<?xml version="1.0" encoding="UTF-8" standalone="no"?>
<!-- Created with Inkscape (http://www.inkscape.org/) -->

<svg
   xmlns:dc="http://purl.org/dc/elements/1.1/"
   xmlns:cc="http://creativecommons.org/ns#"
   xmlns:rdf="http://www.w3.org/1999/02/22-rdf-syntax-ns#"
   xmlns:svg="http://www.w3.org/2000/svg"
   xmlns="http://www.w3.org/2000/svg"
   xmlns:sodipodi="http://sodipodi.sourceforge.net/DTD/sodipodi-0.dtd"
   xmlns:inkscape="http://www.inkscape.org/namespaces/inkscape"
   width="340.09375"
   height="340.0625"
   id="svg4779"
   version="1.1"
   inkscape:version="0.48.2 r9819"
   sodipodi:docname="AJAX1.svg">
  <defs
     id="defs4781" />
  <sodipodi:namedview
     id="base"
     pagecolor="#ffffff"
     bordercolor="#666666"
     borderopacity="1.0"
     inkscape:pageopacity="0.0"
     inkscape:pageshadow="2"
     inkscape:zoom="0.9899495"
     inkscape:cx="93.686109"
     inkscape:cy="179.6447"
     inkscape:document-units="px"
     inkscape:current-layer="layer1"
     showgrid="false"
     inkscape:window-width="1280"
     inkscape:window-height="1004"
     inkscape:window-x="-8"
     inkscape:window-y="-8"
     inkscape:window-maximized="1"
     fit-margin-top="0"
     fit-margin-left="0"
     fit-margin-right="0"
     fit-margin-bottom="0" />
  <metadata
     id="metadata4784">
    <rdf:RDF>
      <cc:Work
         rdf:about="">
        <dc:format>image/svg+xml</dc:format>
        <dc:type
           rdf:resource="http://purl.org/dc/dcmitype/StillImage" />
        <dc:title />
      </cc:Work>
    </rdf:RDF>
  </metadata>
  <g
     inkscape:label="Layer 1"
     inkscape:groupmode="layer"
     id="layer1"
     transform="translate(2028.1563,2008.9688)">
    <path
       d="m -2004.4737,-2007.7178 292.7236,0 c 12.3308,0 22.4252,10.0897 22.4252,22.4252 l 0,292.7189 c 0,12.3402 -10.0944,22.4299 -22.4252,22.4299 l -292.7236,0 c -12.3355,0 -22.4252,-10.0897 -22.4252,-22.4299 l 0,-292.7189 c 0,-12.3355 10.0897,-22.4252 22.4252,-22.4252"
       style="fill:#ffffff;fill-opacity:1;fill-rule:nonzero;stroke:#000000;stroke-width:2.5;stroke-miterlimit:4;stroke-opacity:1;stroke-dasharray:none"
       id="path3372"
       inkscape:connector-curvature="0" />
    <path
       d="m -2004.4737,-1998.3407 292.7235,0 c 7.1782,0 13.0482,5.8699 13.0482,13.0482 l 0,292.7187 c 0,7.1876 -5.87,13.0576 -13.0482,13.0576 l -292.7235,0 c -7.1782,0 -13.0482,-5.8699 -13.0482,-13.0576 l 0,-292.7188 c 0,-7.1782 5.87,-13.0482 13.0482,-13.0482"
       style="fill:#155196;fill-opacity:1;fill-rule:evenodd;stroke:none"
       id="path3396"
       inkscape:connector-curvature="0" />
    <path
       d="m -1904.3755,-1957.9477 5.6591,15.8332 16.9771,0.4313 -13.4795,10.2163 4.8245,16.1004 -13.9812,-9.5224 -13.9906,9.5224 4.8339,-16.1004 -13.4795,-10.2163 16.9771,-0.4313 5.6591,-15.8332 z"
       style="fill:#ffffff;fill-opacity:1;fill-rule:evenodd;stroke:none"
       id="path3400"
       inkscape:connector-curvature="0" />
    <path
       d="m -1858.0946,-1990.8682 5.6591,15.8425 16.9771,0.4314 -13.4795,10.2069 4.8339,16.1098 -13.9906,-9.5224 -13.9812,9.5224 4.8339,-16.1098 -13.4795,-10.2069 16.9678,-0.4314 5.659,-15.8425 z"
       style="fill:#ffffff;fill-opacity:1;fill-rule:evenodd;stroke:none"
       id="path3404"
       inkscape:connector-curvature="0" />
    <path
       d="m -1812.0335,-1957.9477 5.659,15.8332 16.9678,0.4313 -13.4701,10.2163 4.8245,16.1004 -13.9812,-9.5224 -13.9906,9.5224 4.8339,-16.1004 -13.4795,-10.2163 16.9771,-0.4313 5.6591,-15.8332 z"
       style="fill:#ffffff;fill-opacity:1;fill-rule:evenodd;stroke:none"
       id="path3408"
       inkscape:connector-curvature="0" />
    <path
       d="m -1886.9215,-1904.0484 5.6591,15.8332 16.9677,0.4313 -13.4701,10.2163 4.8245,16.1004 -13.9812,-9.5224 -13.9906,9.5224 4.8339,-16.1004 -13.4795,-10.2163 16.9771,-0.4313 5.6591,-15.8332 z"
       style="fill:#ffffff;fill-opacity:1;fill-rule:evenodd;stroke:none"
       id="path3412"
       inkscape:connector-curvature="0" />
    <path
       d="m -1829.4871,-1904.0484 5.6591,15.8332 16.9771,0.4313 -13.4795,10.2163 4.8339,16.1004 -13.9906,-9.5224 -13.9812,9.5224 4.8245,-16.1004 -13.4701,-10.2163 16.9677,-0.4313 5.6591,-15.8332 z"
       style="fill:#ffffff;fill-opacity:1;fill-rule:evenodd;stroke:none"
       id="path3416"
       inkscape:connector-curvature="0" />
    <path
       d="m -1736.3391,-1838.3171 c 0,3.0241 -1.7113,4.7354 -4.8714,4.7354 l -5.5231,0 0,-9.4802 5.5231,0 c 2.8928,0 4.8714,1.852 4.8714,4.7448 m 5.2558,27.4888 -5.3918,-18.4118 c 3.5493,-1.3222 5.3918,-4.6088 5.3918,-9.077 0,-6.0529 -3.9477,-10.0006 -9.8646,-10.0006 l -11.1775,0 0,37.4894 5.3918,0 0,-17.6241 5.1293,0 4.9979,17.6241 5.5231,0 z m -27.3622,0 0,-5.2652 -13.6811,0 0,-12.3589 7.7642,0 0,-5.1293 -7.7642,0 0,-9.4802 12.2323,0 0,-5.2558 -17.6148,0 0,37.4894 19.0636,0 z m -24.2022,-37.4894 -5.2558,0 -3.2867,19.9919 -3.5539,-19.9919 -4.2103,0 -3.6852,19.9919 -3.1554,-19.9919 -5.2699,0 5.9263,37.4894 4.7355,0 3.5539,-19.5933 3.5492,19.5933 4.5994,0 6.0529,-37.4894 z m -38.1506,18.6838 c 0,4.3368 -0.2531,6.5733 -1.1815,9.5927 -0.9142,3.1601 -2.363,4.6088 -4.6041,4.6088 -2.363,0 -3.8118,-1.4487 -4.7354,-4.6088 -0.7877,-3.0194 -1.1815,-5.3918 -1.1815,-9.4662 0,-4.2149 0.2672,-6.7139 1.1815,-9.6067 0.9236,-3.1507 2.3724,-4.5948 4.7354,-4.5948 2.2411,0 3.6899,1.4441 4.6041,4.7307 0.7877,2.7569 1.1815,5.1293 1.1815,9.3443 m 5.1387,0 c 0,-5.6591 -0.5298,-9.213 -2.1052,-12.8935 -1.8426,-4.6088 -4.4775,-6.4467 -8.8191,-6.4467 -4.3416,0 -6.9671,1.8379 -8.9363,6.3061 -1.5848,3.5539 -2.1099,7.375 -2.1099,13.0341 0,5.7856 0.5251,9.3395 2.1099,13.02 1.8379,4.4682 4.4681,6.4655 8.9363,6.4655 4.2103,0 6.9765,-1.9973 8.8191,-6.4655 1.5754,-3.5539 2.1052,-7.2344 2.1052,-13.02 m -29.3408,18.8056 0,-37.4894 -5.3918,0 0,15.2564 -10.2585,0 0,-15.2564 -5.3918,0 0,37.4894 5.3918,0 0,-16.9677 10.2585,0 0,16.9677 5.3918,0 z m -29.0736,0 0,-37.4894 -5.3918,0 0,22.4908 -10.2585,-22.4908 -5.3918,0 0,37.4894 5.3918,0 0,-25.1258 11.576,25.1258 4.0743,0 z m -27.3622,0 0,-5.2652 -13.6812,0 0,-12.3589 7.7642,0 0,-5.1293 -7.7642,0 0,-9.4802 12.2371,0 0,-5.2558 -17.6195,0 0,37.4894 19.0636,0 z m -25.3837,-10.2631 c 0,-5.3965 -3.1601,-9.4709 -10.3945,-13.6812 -2.7569,-1.5753 -3.5539,-2.6302 -3.5539,-4.4681 0,-2.499 1.9786,-4.3416 4.4822,-4.3416 2.3584,0 4.201,1.7113 4.3369,4.3416 l 5.1293,0 c -0.1266,-5.6591 -4.2103,-9.7334 -9.4662,-9.7334 -5.3965,0 -9.6068,4.3369 -9.6068,9.7334 0,3.2866 1.5754,6.1795 4.6042,8.2846 7.6282,5.1292 5.5231,3.6805 6.3107,4.4682 2.2411,1.716 3.0288,3.3007 3.0288,5.3965 0,3.0287 -2.3724,5.659 -5.2652,5.659 -3.6805,0 -5.2558,-3.2866 -5.2558,-6.4467 l -5.2653,0 c 0,6.1795 3.9478,11.7307 10.5211,11.7307 5.7903,0 10.3945,-4.8901 10.3945,-10.943 m -27.2263,-27.2263 -5.2652,0 0,37.4894 5.2652,0 0,-37.4894 z m -11.5807,37.4894 0,-5.2652 -13.6811,0 0,-12.3589 7.7642,0 0,-5.1293 -7.7642,0 0,-9.4802 12.2324,0 0,-5.2558 -17.6289,0 0,37.4894 19.0776,0 z"
       style="fill:#ffffff;fill-opacity:1;fill-rule:evenodd;stroke:none"
       id="path3420"
       inkscape:connector-curvature="0" />
    <path
       d="m -1743.0517,-1752.3121 0,-5.2653 -13.6811,0 0,-12.3636 7.7642,0 0,-5.1339 -7.7642,0 0,-9.4709 12.2323,0 0,-5.2558 -17.6241,0 0,37.4895 19.0729,0 z m -24.2022,-32.5009 0,-4.9886 -19.0729,0 0,4.9886 6.8359,0 0,32.5009 5.3965,0 0,-32.5009 6.8405,0 z m -30.6489,16.9771 -5.3965,0 2.6303,-10.7836 2.7662,10.7836 z m 9.3396,15.5238 -9.3396,-37.4895 -5.2652,0 -9.3396,37.4895 5.3918,0 2.499,-10.2632 8.0221,0 2.6396,10.2632 5.3919,0 z m -26.1808,-32.5009 0,-4.9886 -19.0729,0 0,4.9886 6.8405,0 0,32.5009 5.3919,0 0,-32.5009 6.8405,0 z m -22.4909,22.2377 c 0,-5.3965 -3.16,-9.4709 -10.3944,-13.6812 -2.7663,-1.5753 -3.5539,-2.6302 -3.5539,-4.4728 0,-2.499 1.9692,-4.3369 4.4728,-4.3369 2.3724,0 4.2103,1.7019 4.3369,4.3369 l 5.1386,0 c -0.1359,-5.6591 -4.2102,-9.7334 -9.4755,-9.7334 -5.3965,0 -9.6068,4.3416 -9.6068,9.7334 0,3.2913 1.5848,6.1842 4.6135,8.2893 7.6283,5.1293 5.5231,3.6805 6.3108,4.4682 2.2364,1.7113 3.0194,3.2866 3.0194,5.3965 0,3.0288 -2.363,5.659 -5.2558,5.659 -3.6805,0 -5.2652,-3.2913 -5.2652,-6.4467 l -5.2653,0 c 0,6.1795 3.9478,11.7307 10.5305,11.7307 5.7903,0 10.3944,-4.8901 10.3944,-10.943 m -30.5223,-17.2351 c 0,3.0288 -1.7113,4.7355 -4.8714,4.7355 l -5.5184,0 0,-9.4709 5.5184,0 c 2.8929,0 4.8714,1.8426 4.8714,4.7354 m 5.2606,27.4983 -5.3965,-18.426 c 3.5539,-1.3081 5.3965,-4.5947 5.3965,-9.0723 0,-6.0435 -3.9478,-9.9912 -9.8647,-9.9912 l -11.1821,0 0,37.4895 5.3964,0 0,-17.6289 5.1246,0 5.0027,17.6289 5.5231,0 z m -27.367,0 0,-5.2653 -13.667,0 0,-12.3636 7.7548,0 0,-5.1339 -7.7548,0 0,-9.4709 12.223,0 0,-5.2558 -17.6195,0 0,37.4895 19.0635,0 z m -24.2022,-32.5009 0,-4.9886 -19.0729,0 0,4.9886 6.8406,0 0,32.5009 5.3918,0 0,-32.5009 6.8405,0 z m -24.2021,32.5009 0,-37.4895 -5.3919,0 0,22.4909 -10.2585,-22.4909 -5.3918,0 0,37.4895 5.3918,0 0,-25.1259 11.576,25.1259 4.0744,0 z m -29.2002,-37.4895 -5.2558,0 0,37.4895 5.2558,0 0,-37.4895 z"
       style="fill:#ffffff;fill-opacity:1;fill-rule:evenodd;stroke:none"
       id="path3424"
       inkscape:connector-curvature="0" />
    <path
       d="m -1783.1696,-1693.8045 0,-37.4894 -5.3918,0 -6.9719,21.0515 -6.9671,-21.0515 -5.3918,0 0,37.4894 5.3918,0 0,-21.0468 6.9671,21.0468 6.9719,-21.0468 0,21.0468 5.3918,0 z m -31.0428,0 0,-5.2558 -13.6811,0 0,-12.373 7.7642,0 0,-5.1293 -7.7642,0 0,-9.4661 12.2324,0 0,-5.2652 -17.6242,0 0,37.4894 19.0729,0 z m -24.2021,-32.4915 0,-4.9979 -19.0777,0 0,4.9979 6.8406,0 0,32.4915 5.3965,0 0,-32.4915 6.8406,0 z m -22.5003,22.233 c 0,-5.3918 -3.16,-9.4661 -10.3944,-13.6811 -2.7569,-1.5753 -3.5446,-2.6256 -3.5446,-4.4682 0,-2.4989 1.9692,-4.3415 4.4682,-4.3415 2.363,0 4.215,1.7066 4.3416,4.3415 l 5.1292,0 c -0.1266,-5.659 -4.2103,-9.7333 -9.4708,-9.7333 -5.3918,0 -9.6021,4.3415 -9.6021,9.7333 0,3.2867 1.5847,6.1795 4.6041,8.2894 7.6283,5.1245 5.5231,3.6805 6.3202,4.4681 2.2317,1.7113 3.0194,3.2867 3.0194,5.3918 0,3.0241 -2.3724,5.6591 -5.2652,5.6591 -3.6805,0 -5.2559,-3.2867 -5.2559,-6.4467 l -5.2652,0 c 0,6.1841 3.9477,11.7307 10.5211,11.7307 5.7903,0 10.3944,-4.8902 10.3944,-10.9431 m -24.2022,-27.2309 -5.7856,0 -6.1842,13.5498 -6.3201,-13.5498 -5.6497,0 9.2036,20.517 0,16.9724 5.3965,0 0,-16.9724 9.3395,-20.517 z m -27.3622,27.2309 c 0,-5.3918 -3.1601,-9.4661 -10.3945,-13.6811 -2.7568,-1.5753 -3.5539,-2.6256 -3.5539,-4.4682 0,-2.4989 1.9786,-4.3415 4.4776,-4.3415 2.363,0 4.215,1.7066 4.3415,4.3415 l 5.1293,0 c -0.1266,-5.659 -4.2103,-9.7333 -9.4708,-9.7333 -5.3918,0 -9.6021,4.3415 -9.6021,9.7333 0,3.2867 1.58,6.1795 4.6041,8.2894 7.6282,5.1245 5.5231,3.6805 6.3201,4.4681 2.2318,1.7113 3.0194,3.2867 3.0194,5.3918 0,3.0241 -2.3724,5.6591 -5.2652,5.6591 -3.6805,0 -5.2558,-3.2867 -5.2558,-6.4467 l -5.2652,0 c 0,6.1841 3.9477,11.7307 10.521,11.7307 5.7904,0 10.3945,-4.8902 10.3945,-10.9431"
       style="fill:#ffffff;fill-opacity:1;fill-rule:evenodd;stroke:none"
       id="path3428"
       inkscape:connector-curvature="0" />
  </g>
</svg>
