<?xml version="1.0" encoding="UTF-8" standalone="no"?>
<!-- Created with Inkscape (http://www.inkscape.org/) -->

<svg
   xmlns:dc="http://purl.org/dc/elements/1.1/"
   xmlns:cc="http://creativecommons.org/ns#"
   xmlns:rdf="http://www.w3.org/1999/02/22-rdf-syntax-ns#"
   xmlns:svg="http://www.w3.org/2000/svg"
   xmlns="http://www.w3.org/2000/svg"
   xmlns:sodipodi="http://sodipodi.sourceforge.net/DTD/sodipodi-0.dtd"
   xmlns:inkscape="http://www.inkscape.org/namespaces/inkscape"
   width="446.375"
   height="357.75"
   id="svg4779"
   version="1.1"
   inkscape:version="0.48.2 r9819"
   sodipodi:docname="AJAX1.svg">
  <defs
     id="defs4781" />
  <sodipodi:namedview
     id="base"
     pagecolor="#ffffff"
     bordercolor="#666666"
     borderopacity="1.0"
     inkscape:pageopacity="0.0"
     inkscape:pageshadow="2"
     inkscape:zoom="0.49497475"
     inkscape:cx="737.40355"
     inkscape:cy="192.29722"
     inkscape:document-units="px"
     inkscape:current-layer="layer1"
     showgrid="false"
     inkscape:window-width="1280"
     inkscape:window-height="1004"
     inkscape:window-x="-8"
     inkscape:window-y="-8"
     inkscape:window-maximized="1"
     fit-margin-top="0"
     fit-margin-left="0"
     fit-margin-right="0"
     fit-margin-bottom="0" />
  <metadata
     id="metadata4784">
    <rdf:RDF>
      <cc:Work
         rdf:about="">
        <dc:format>image/svg+xml</dc:format>
        <dc:type
           rdf:resource="http://purl.org/dc/dcmitype/StillImage" />
        <dc:title></dc:title>
      </cc:Work>
    </rdf:RDF>
  </metadata>
  <g
     inkscape:label="Layer 1"
     inkscape:groupmode="layer"
     id="layer1"
     transform="translate(2297.7813,1731.3438)">
    <path
       d="m -2074.5994,-1374.8436 c -124.7526,-14.7321 -221.9396,-122.9967 -221.9396,-249.727 0,-35.3631 8.1133,-73.8779 22.8751,-105.2904 31.9156,8.3451 65.4588,14.2833 98.7455,14.2833 33.2917,0 68.4132,-6.0073 100.319,-14.3327 31.9057,8.3254 67.0371,14.3327 100.3287,14.3327 33.2818,0 66.8251,-5.9382 98.7456,-14.2833 14.7568,31.4125 22.8702,69.9273 22.8702,105.2904 0,126.7303 -97.1871,234.9949 -221.9445,249.727"
       style="fill:#ffffff;fill-opacity:1;fill-rule:nonzero;stroke:#000000;stroke-width:2.5;stroke-miterlimit:4;stroke-opacity:1;stroke-dasharray:none"
       id="path5468"
       inkscape:connector-curvature="0" />
    <path
       d="m -2210.5923,-1448.0709 c -36.8971,-36.3003 -64.5168,-82.2428 -73.1677,-133.8474 -1.7509,-10.4018 -2.8754,-20.7345 -3.63,-31.2497 l -0.2713,-11.477 1.1048,-22.3967 423.8252,0 c 0.2713,4.3205 1.09,14.9393 1.1837,19.2648 l 0.01,3.1319 c -1.233,52.517 -16.9319,104.1117 -49.543,145.9063 -32.5863,41.7946 -76.2354,72.6893 -127.2974,87.5349 -4.9716,1.4599 -10.0023,2.6288 -15.038,3.8421 l -11.0282,2.1109 -10.1552,1.4451 -10.1503,-1.4451 -11.0232,-2.1109 c -43.6541,-10.5202 -81.4784,-30.6678 -114.8194,-60.7092"
       style="fill:#155196;fill-opacity:1;fill-rule:evenodd;stroke:none"
       id="path5476"
       inkscape:connector-curvature="0" />
    <path
       d="m -1865.3108,-1667.0147 1.8397,11.0824 -422.3505,0 1.2231,-7.7976 c 0.7398,-4.3847 1.7262,-8.7447 2.6387,-13.0997 1.9136,-8.6164 4.212,-17.1095 6.9197,-25.5187 l 2.1258,-6.1355 c 1.3612,-3.6745 2.7718,-7.3143 4.3057,-10.9296 9.8888,2.4414 19.8221,4.5918 29.8343,6.466 6.313,1.1393 12.6261,2.1603 18.9787,3.053 35.7034,4.7052 71.1011,3.4919 106.5679,-2.5203 l 6.4265,-1.159 c 10.8111,-2.0666 21.5483,-4.4192 32.2017,-7.1763 14.885,3.847 29.9181,6.9543 45.0942,9.4104 6.4906,0.9964 12.9714,1.8643 19.4965,2.5993 28.0292,2.9247 55.8906,2.3132 83.7866,-1.6029 3.1762,-0.4736 6.3377,-0.9717 9.509,-1.4945 12.1379,-2.0913 24.1575,-4.6214 36.1326,-7.5758 1.9433,4.6165 3.7188,9.2625 5.3859,13.9826 1.3957,4.1429 2.7126,8.2957 3.9358,12.5028 2.3822,8.5424 4.3452,17.1785 5.9481,25.9133"
       style="fill:#bf2f37;fill-opacity:1;fill-rule:evenodd;stroke:none"
       id="path5480"
       inkscape:connector-curvature="0" />
    <path
       d="m -1961.3387,-1662.456 0,-5.1935 -13.4942,0 0,-12.1921 7.6546,0 0,-5.0604 -7.6546,0 0,-9.3364 12.0639,0 0,-5.1886 -17.3857,0 0,36.971 18.816,0 z m -23.8714,-32.0438 0,-4.9272 -18.811,0 0,4.9272 6.7471,0 0,32.0438 5.3168,0 0,-32.0438 6.7471,0 z m -30.2288,16.7346 -5.3218,0 2.5943,-10.6386 2.7275,10.6386 z m 9.2082,15.3092 -9.2082,-36.971 -5.1886,0 -9.2131,36.971 5.3168,0 2.466,-10.1207 7.916,0 2.5943,10.1207 5.3168,0 z m -25.8146,-32.0438 0,-4.9272 -18.816,0 0,4.9272 6.7521,0 0,32.0438 5.3168,0 0,-32.0438 6.7471,0 z m -22.1846,21.9231 c 0,-5.3168 -3.1121,-9.3413 -10.2489,-13.4892 -2.7274,-1.5537 -3.5018,-2.5993 -3.5018,-4.4143 0,-2.466 1.9433,-4.281 4.4093,-4.281 2.3378,0 4.1528,1.6867 4.2762,4.281 l 5.0652,0 c -0.1331,-5.5732 -4.1528,-9.5978 -9.3414,-9.5978 -5.3168,0 -9.4696,4.281 -9.4696,9.5978 0,3.2453 1.5585,6.101 4.5425,8.1774 7.5263,5.0604 5.4499,3.6301 6.2243,4.4093 2.2046,1.6868 2.979,3.2404 2.979,5.3168 0,2.9889 -2.328,5.5783 -5.1837,5.5783 -3.6349,0 -5.1886,-3.2404 -5.1886,-6.3575 l -5.1885,0 c 0,6.101 3.8914,11.5707 10.3771,11.5707 5.7065,0 10.2489,-4.8236 10.2489,-10.7915 m -30.0957,-16.991 c 0,2.979 -1.6867,4.6657 -4.7989,4.6657 l -5.4549,0 0,-9.3364 5.4549,0 c 2.8508,0 4.7989,1.815 4.7989,4.6707 m 5.1886,27.1117 -5.3217,-18.1649 c 3.5067,-1.2971 5.3217,-4.5425 5.3217,-8.9468 0,-5.9728 -3.8914,-9.8593 -9.731,-9.8593 l -11.0282,0 0,36.971 5.3168,0 0,-17.3856 5.0653,0 4.9271,17.3856 5.45,0 z m -26.9835,0 0,-5.1935 -13.4942,0 0,-12.1921 7.6546,0 0,-5.0604 -7.6546,0 0,-9.3364 12.0639,0 0,-5.1886 -17.3807,0 0,36.971 18.811,0 z m -23.8714,-32.0438 0,-4.9272 -18.811,0 0,4.9272 6.7422,0 0,32.0438 5.3217,0 0,-32.0438 6.7471,0 z m -23.8713,32.0438 0,-36.971 -5.3218,0 0,22.1846 -10.1157,-22.1846 -5.3217,0 0,36.971 5.3217,0 0,-24.7789 11.4129,24.7789 4.0246,0 z m -28.8035,-36.971 -5.1886,0 0,36.971 5.1886,0 0,-36.971 z"
       style="fill:#ffffff;fill-opacity:1;fill-rule:evenodd;stroke:none"
       id="path5592"
       inkscape:connector-curvature="0" />
    <path
       d="m -2169.5325,-1582.0277 -42.2089,55.5058 42.2089,0 0,-55.5058 z m 23.4521,76.773 0,36.8576 -23.4521,0 0,-36.8576 -73.4587,0 0,-14.0022 73.4587,-97.0243 23.4521,0 0,89.7593 14.0614,0 0,21.2672 -14.0614,0 z"
       style="fill:#ffffff;fill-opacity:1;fill-rule:nonzero;stroke:none"
       id="path5596"
       inkscape:connector-curvature="0" />
    <path
       d="m -1973.9156,-1465.8151 c -12.9665,0 -25.933,-3.1221 -36.3151,-8.3057 l 11.4228,-20.7493 c 6.244,3.122 17.1094,5.2033 28.0143,5.2033 21.287,0 37.8933,-14.0269 37.8933,-33.2127 0,-14.53 -11.9406,-25.9528 -26.4903,-25.9528 -10.3623,0 -15.0281,3.1221 -23.8516,15.5658 l -23.3486,-6.7422 3.6399,-76.275 85.0787,0 0,23.3535 -62.2677,0 -1.5586,24.3893 c 10.9049,-3.122 15.5657,-4.1627 22.8505,-4.1627 26.9687,0 49.2815,22.8307 49.2815,49.8241 0,32.6751 -26.9737,57.0644 -64.3491,57.0644"
       style="fill:#ffffff;fill-opacity:1;fill-rule:nonzero;stroke:none"
       id="path5600"
       inkscape:connector-curvature="0" />
    <path
       d="m -2072.094,-1595.013 c -14.53,0 -26.4706,9.3464 -26.4706,21.2722 0,11.9406 11.9406,21.2869 26.4706,21.2869 15.0478,0 26.9884,-9.3463 26.9884,-21.2869 0,-11.408 -12.4634,-21.2722 -26.9884,-21.2722 m -6.7422,129.1964 -11.4277,-19.7087 c 17.6471,-14.0269 26.9934,-25.9478 35.8169,-45.1386 -8.3253,1.5586 -11.9455,2.0616 -17.647,2.0616 -27.5113,0 -50.342,-20.2314 -50.342,-45.1385 0,-25.4151 22.3277,-45.1238 50.342,-45.1238 28.5322,0 50.3222,20.2315 50.3222,47.2002 0,40.4777 -22.8307,82.4992 -57.0644,105.8478"
       style="fill:#ffffff;fill-opacity:1;fill-rule:nonzero;stroke:none"
       id="path5604"
       inkscape:connector-curvature="0" />
  </g>
</svg>
