<?xml version="1.0" encoding="UTF-8" standalone="no"?>
<svg xmlns="http://www.w3.org/2000/svg" width="340.0625" height="340.0625">
  <path fill="#fff" stroke="#000" stroke-width="2.5" d="M23.6692 1.251h292.7235c12.3356 0 22.4253 10.0898 22.4253 22.4253v292.7188c0 12.3403-10.0897 22.43-22.4253 22.43H23.6692c-12.3355 0-22.4253-10.0897-22.4253-22.43V23.6763c0-12.3355 10.0898-22.4253 22.4253-22.4253"/>
  <path fill="#155196" fill-rule="evenodd" d="M23.6691 10.628h292.7236c7.1781 0 13.0482 5.8701 13.0482 13.0482v292.7189c0 7.1875-5.8701 13.0575-13.0482 13.0575H23.6691c-7.1687 0-13.0482-5.87-13.0482-13.0575V23.6762c0-7.1781 5.8795-13.0482 13.0482-13.0482"/>
  <path fill="#fff" fill-rule="evenodd" d="M293.221 192.7478v-8.4909h4.0509c1.7395 0 2.5787.1688 3.2585.6798.9237.5861 1.43 1.8942 1.43 3.5446 0 3.0006-1.3924 4.2665-4.5994 4.2665h-4.14zm-9.588-11.7025v3.2116h1.3503c2.1145 0 2.3255.258 2.3255 2.5741v16.6021c0 2.3255-.211 2.574-2.3255 2.574h-1.3503v3.2257h13.5545v-3.2257h-1.6503c-2.1052 0-2.3162-.2485-2.3162-2.574v-7.4688h1.6504c4.4306 0 5.6121 1.1346 5.7434 5.6121l.1266 3.2961c.08 3.296 1.8567 5.1995 4.8151 5.1995 2.7381 0 4.3041-1.233 4.9371-3.8914.2578-1.144.3-1.9411.3-4.9793h-2.4052c-.047 4.1728-.1735 4.7683-1.1909 4.7683-.7595 0-1.008-.5487-1.1346-2.4521l-.1313-2.4897c-.08-3.8821-1.3081-5.3684-5.0636-6.0435 2.4896-.4594 3.6289-.844 4.7729-1.7347 1.6457-1.2612 2.4896-3.0758 2.4896-5.4012 0-2.1521-.8064-3.9759-2.2411-5.0731-1.5237-1.219-3.7086-1.73-7.1359-1.73H283.633zm-3.5961 0h-24.9195v3.2116h1.3549c2.1099 0 2.3209.258 2.3209 2.5741v16.6021c0 2.3255-.211 2.574-2.3209 2.574h-1.3549v3.2257h24.9195v-11.9604h-2.8647c-.5954 7.3047-1.6035 8.7347-6.081 8.7347h-6.3858v-9.8787h1.3925c3.1319 0 3.507.5485 3.8493 5.7387h2.7803v-14.0656h-2.7803c-.2579 2.9585-.2954 3.1695-.5955 3.8024-.4219.933-1.3503 1.3081-3.2913 1.3081h-1.355v-8.655h5.8325c3.2539 0 4.6464.5064 5.4856 1.9457.7267 1.3081 1.0174 2.9913 1.1487 6.0436h2.8647v-11.2009zm-53.5524 28.1874h4.7729l4.6042-15.0924 3.9665 15.0924h4.9886l5.7809-22.1439c.5111-1.988 1.2706-2.8319 2.5365-2.8319h.8486v-3.2116h-10.3944v3.2116h1.2659c1.4394 0 2.1145.4221 2.1145 1.2284 0 .5064-.1266 1.3081-.3376 2.152l-3.8024 14.2766-4.2665-15.3737c-.1266-.5063-.211-.933-.211-1.1815 0-.8064.5063-1.1018 1.7675-1.1018h1.4019v-3.2116h-11.1071v3.2116h.9236c1.6504 0 2.3631.8908 2.8741 3.5445l-4.5197 14.5345-3.929-15.8801c-.084-.3844-.1641-.8064-.1641-1.0174 0-.7594.5485-1.1815 1.5988-1.1815h1.1815v-3.2116h-10.8118v3.2116h.6377c1.6034 0 2.1895.7174 2.9491 3.7555l5.3308 21.2203zm-23.5364-25.6509c4.6557 0 7.3563 4.2665 7.3563 11.5759 0 7.2626-2.7006 11.5291-7.3563 11.5291-4.6885 0-7.3422-4.2243-7.3422-11.7025 0-7.136 2.7474-11.4025 7.3422-11.4025m0-3.3336c-8.2284 0-13.9343 5.9966-13.9343 14.6517 0 9.166 5.4949 15.1298 13.9812 15.1298 8.3268 0 13.9015-6.0013 13.9015-14.9189 0-8.9082-5.5747-14.8626-13.9484-14.8626m-36.1486 12.8372v-6.2545c0-2.3161.2063-2.574 2.3256-2.574h1.6456v-3.2116h-13.5592v3.2116h1.355c2.1051 0 2.3161.2579 2.3161 2.574v16.6021c0 2.3255-.211 2.574-2.3161 2.574h-1.355v3.2257h13.5592v-3.2257h-1.6456c-2.1193 0-2.3256-.2484-2.3256-2.574v-6.9672h10.3476v6.9672c0 2.3255-.211 2.574-2.3302 2.574h-1.6363v3.2257h13.5499v-3.2257h-1.355c-2.1052 0-2.3161-.2484-2.3161-2.574v-16.6021c0-2.3161.2109-2.574 2.3161-2.574h1.355v-3.2116h-13.5499v3.2116h1.6363c2.1192 0 2.3302.2579 2.3302 2.574v6.2545h-10.3476zm-14.6516 16.1473v-22.4018c0-2.3161.2063-2.574 2.3583-2.574h1.1393v-3.2116h-11.9979v3.2116h1.6926c2.152 0 2.363.2579 2.363 2.574v14.661l-10.8962-20.4466h-10.8961v3.2116h1.5191c2.152 0 2.363.258 2.363 2.5741v16.6021c0 2.3255-.211 2.574-2.363 2.574h-1.6832v3.2257h12.4996v-3.2257h-1.6503c-2.1521 0-2.3631-.2485-2.3631-2.574v-17.1882l12.209 22.9879h5.7059zm-29.4533-28.1874H97.7797v3.2116h1.355c2.1052 0 2.3161.258 2.3161 2.5741v16.6021c0 2.3255-.2109 2.574-2.3161 2.574h-1.355v3.2257h24.9149v-11.9604h-2.8647c-.5955 7.3047-1.6035 8.7347-6.081 8.7347h-6.3811v-9.8787h1.3925c3.1319 0 3.507.5485 3.8446 5.7387h2.7849v-14.0656h-2.7849c-.2579 2.9585-.2954 3.1695-.5955 3.8024-.422.933-1.3456 1.3081-3.2866 1.3081h-1.355v-8.655h5.8325c3.2491 0 4.6416.5064 5.4856 1.9457.722 1.3081 1.0174 2.9913 1.144 6.0436h2.8647v-11.2009zm-48.5685 28.1874h2.6162l.8439-2.6303c3.343 2.5365 5.4481 3.4273 8.4066 3.4273 5.5324 0 9.5036-3.718 9.5036-8.9597 0-4.5198-2.7006-7.4782-8.1111-8.8238l-5.1105-1.3127c-2.1052-.5487-3.2023-1.7771-3.2023-3.6336 0-2.3256 1.7301-3.6712 4.5573-3.6712 1.8144 0 3.718.7596 4.8995 1.9411 1.3456 1.3456 2.2364 3.296 2.7474 6.1607h2.8647v-10.6851h-2.2317l-1.355 2.0676c-2.996-2.3161-4.5619-2.9116-7.436-2.9116-5.4012 0-9.077 3.507-9.077 8.7019 0 4.4776 2.4099 6.9297 8.3175 8.4488l4.1024 1.0549c2.5365.6329 3.7977 2.0254 3.7977 4.0931 0 2.4099-1.73 3.718-4.862 3.718-2.3161 0-3.9196-.633-5.448-2.0677-1.5566-1.5237-2.2787-3.0428-2.9116-6.5498h-2.9116v11.6322zM61.664 203.433c0 2.3255-.211 2.574-2.3255 2.574h-1.4769v3.2257H71.463v-3.2257h-1.4769c-2.1145 0-2.3255-.2484-2.3255-2.574v-16.6021c0-2.3161.211-2.574 2.3255-2.574h1.4769v-3.2116H57.8616v3.2116h1.4769c2.1145 0 2.3255.2579 2.3255 2.574v16.6021zm-7.4829-22.3877H29.2663v3.2116h1.355c2.1051 0 2.3161.258 2.3161 2.5741v16.6021c0 2.3255-.211 2.574-2.3161 2.574h-1.355v3.2257h24.9148v-11.9604h-2.8647c-.5954 7.3047-1.6035 8.7347-6.081 8.7347h-6.3858v-9.8787h1.3925c3.132 0 3.507.5485 3.8493 5.7387h2.7803v-14.0656h-2.7803c-.2579 2.9585-.2954 3.1695-.5954 3.8024-.422.933-1.3457 1.3081-3.2867 1.3081h-1.3597v-8.655h5.8372c3.2492 0 4.6417.5064 5.4809 1.9457.7267 1.3081 1.0174 2.9913 1.1487 6.0436h2.8647v-11.2009zm243.3252 50.7312h-24.9242v3.207h1.355c2.1145 0 2.3255.2533 2.3255 2.5787v16.5927c0 2.3303-.211 2.5834-2.3255 2.5834h-1.355v3.2163h24.9242v-11.9604h-2.874c-.5861 7.3095-1.6035 8.7441-6.0811 8.7441h-6.3811v-9.8881h1.4019c3.1226 0 3.4977.5486 3.8352 5.7482h2.7944v-14.0656h-2.7944c-.2485 2.9491-.2907 3.1694-.586 3.8024-.422.9236-1.355 1.3081-3.2961 1.3081h-1.355v-8.6597h5.8326c3.2491 0 4.6416.5017 5.4949 1.941.7127 1.3081 1.0081 3.0007 1.1347 6.0436h2.874v-11.1916zm-41.6435 22.3784c0 2.3303-.211 2.5834-2.3255 2.5834h-2.0723v3.2163h14.6985v-3.2163h-2.0723c-2.1052 0-2.3255-.2532-2.3255-2.5834v-19.2558c4.3603-.084 5.9638 2.1145 6.0904 8.5332h2.8693v-11.6557H246.903v11.6557h2.8788c.1172-6.4186 1.7301-8.6597 6.081-8.5332v19.2558zm-19.8184-6.4514h-6.292l3.0053-9.8083 3.2867 9.8083zm-5.2746-15.9269-7.0515 22.2518c-.6752 2.1614-1.4019 2.71-3.3805 2.71h-.8111v3.2163h11.7917v-3.2163h-1.988c-1.6456 0-2.0207-.1735-2.0207-.9331 0-.2485.1172-.6798.2907-1.3081l1.1346-3.507h8.3268l1.0971 3.2961c.211.6329.3376 1.1815.3376 1.4346 0 .8065-.4642 1.0175-2.1145 1.0175h-2.0677v3.2163h13.0951v-3.2163h-.7127c-1.9879 0-2.1989-.211-3.0897-2.71l-7.5157-22.2518h-5.3215zm-25.3837 22.3784c0 2.3302-.211 2.5834-2.3255 2.5834h-2.0723v3.2163h14.6985v-3.2163h-2.0676c-2.1146 0-2.3255-.2532-2.3255-2.5834v-19.2558c4.3462-.084 5.9591 2.1145 6.0904 8.5331h2.8647v-11.6557H196.431v11.6557h2.8647c.1266-6.4186 1.7395-8.6597 6.0904-8.5331v19.2558zm-32.1398 5.7997h2.6068l.8533-2.6303c3.3335 2.5365 5.4481 3.4367 8.4065 3.4367 5.5278 0 9.4943-3.7274 9.4943-8.9645 0-4.5244-2.7006-7.4736-8.1018-8.8285l-5.1105-1.3127c-2.1145-.5487-3.2163-1.7771-3.2163-3.6336 0-2.3162 1.7301-3.6712 4.5619-3.6712 1.8239 0 3.718.7596 4.8995 1.9411 1.355 1.355 2.2412 3.296 2.7475 6.1701h2.8741v-10.6852h-2.2411l-1.3503 2.0677c-3.0007-2.3255-4.5573-2.921-7.436-2.921-5.4106 0-9.0817 3.507-9.0817 8.7113 0 4.4682 2.4099 6.9203 8.3221 8.444l4.0931 1.0503c2.5365.6423 3.8024 2.0348 3.8024 4.1024 0 2.41-1.7301 3.718-4.8526 3.718-2.3255 0-3.929-.6329-5.4481-2.0676-1.566-1.5191-2.2833-3.0429-2.9116-6.5499h-2.9115v11.6229zm-20.367-16.4849v-8.4862h4.0556c1.73 0 2.574.1735 3.2491.6751.9377.5861 1.4394 1.9036 1.4394 3.5446 0 3.0053-1.3925 4.2665-4.6041 4.2665h-4.14zm-9.588-11.6932v3.207h1.3549c2.1052 0 2.3162.2532 2.3162 2.5787v16.5927c0 2.3302-.211 2.5834-2.3162 2.5834h-1.3549v3.2163h13.5592v-3.2163h-1.6457c-2.1145 0-2.3255-.2532-2.3255-2.5834v-7.4688h1.6457c4.4353 0 5.6262 1.1346 5.7434 5.6121l.1266 3.2961c.094 3.296 1.8614 5.1995 4.8198 5.1995 2.7475 0 4.3135-1.2237 4.9417-3.8914.2579-1.1347.2954-1.9411.2954-4.9793h-2.4099c-.037 4.1822-.1641 4.7683-1.1815 4.7683-.7596 0-1.0174-.5486-1.144-2.4427l-.1172-2.499c-.094-3.8821-1.3128-5.359-5.073-6.0342 2.4896-.4688 3.6336-.8533 4.7682-1.73 1.6504-1.2753 2.499-3.0898 2.499-5.4153 0-2.152-.8017-3.9665-2.2411-5.0636-1.5191-1.2284-3.718-1.7301-7.1453-1.7301h-15.1158zm-3.5915 0H114.785v3.207h1.3456c2.1145 0 2.3255.2532 2.3255 2.5787v16.5927c0 2.3302-.211 2.5834-2.3255 2.5834h-1.3456v3.2163h24.9148v-11.9604h-2.874c-.5861 7.3094-1.6035 8.7441-6.081 8.7441h-6.3718v-9.8881h1.3925c3.1226 0 3.5071.5485 3.8446 5.7481h2.785v-14.0656h-2.785c-.2578 2.9491-.3047 3.1694-.5954 3.8024-.422.9237-1.355 1.3081-3.2961 1.3081h-1.3456v-8.6597h5.8232c3.2491 0 4.651.5017 5.495 1.941.7126 1.3081 1.0174 3.0007 1.1346 6.0436h2.874v-11.1916zM98.0516 254.155c0 2.3302-.2109 2.5834-2.3255 2.5834h-2.0676v3.2163h14.6985v-3.2163h-2.0723c-2.1051 0-2.3161-.2532-2.3161-2.5834v-19.2558c4.3509-.084 5.9544 2.1145 6.081 8.5331h2.8741v-11.6557H89.0966v11.6557h2.8787c.1266-6.4186 1.7301-8.6597 6.0764-8.5331v19.2558zm-14.0655 5.7997v-22.3924c0-2.3255.2109-2.5787 2.363-2.5787h1.144v-3.207H75.4998v3.207h1.6832c2.1614 0 2.3724.2532 2.3724 2.5787v14.6516l-10.8961-20.4373H57.7538v3.207h1.5284c2.152 0 2.363.2532 2.363 2.5787v16.5927c0 2.3302-.211 2.5834-2.363 2.5834h-1.6925v3.2163h12.4996v-3.2163h-1.6504c-2.152 0-2.363-.2532-2.363-2.5834v-17.1882l12.2089 22.9879h5.7013zm-37.6349-5.7997c0 2.3302-.2109 2.5834-2.3255 2.5834h-1.4768v3.2163h13.6014v-3.2163h-1.4769c-2.1145 0-2.3255-.2532-2.3255-2.5834v-16.5927c0-2.3255.211-2.5787 2.3255-2.5787h1.4769v-3.207H42.5489v3.207h1.4768c2.1146 0 2.3255.2532 2.3255 2.5787v16.5927zm196.9651 32.4829v18.2478c0 2.3161-.211 2.5741-2.3255 2.5741h-1.6035v3.2163h13.0107v-3.2163h-1.355c-2.1145 0-2.3255-.258-2.3255-2.5741v-16.5974c0-2.3302.211-2.574 2.3255-2.574h1.355v-3.2163h-11.4072l-6.1279 18.2852-5.6122-18.2852h-11.8338v3.2163h1.2753c2.152 0 2.363.2438 2.363 2.574v16.5974c0 2.3161-.211 2.5741-2.363 2.5741h-1.2753v3.2163h11.8338v-3.2163h-1.3925c-2.1614 0-2.3724-.258-2.3724-2.5741v-18.6696l7.4829 24.46h2.4896l7.858-24.0381zm-29.4861-4.1399h-24.9196v3.2163h1.3456c2.1193 0 2.3302.2438 2.3302 2.5741v16.5974c0 2.3161-.2109 2.574-2.3302 2.574h-1.3456v3.2163h24.9196v-11.9604h-2.8788c-.5861 7.3047-1.5988 8.7441-6.0763 8.7441h-6.3764v-9.8787h1.3925c3.1225 0 3.507.5485 3.8446 5.7387h2.785v-14.0609h-2.785c-.2532 2.9538-.3001 3.1648-.5955 3.7977-.4173.9331-1.3456 1.3081-3.296 1.3081h-1.3456v-8.6503h5.8231c3.2539 0 4.6557.5017 5.495 1.9411.7173 1.3081 1.0174 2.9912 1.1346 6.0341h2.8788v-11.1915zm-41.6482 22.3877c0 2.3161-.211 2.5741-2.3162 2.5741h-2.0817v3.2163h14.7079v-3.2163h-2.077c-2.1051 0-2.3161-.258-2.3161-2.5741v-19.2652c4.3463-.08 5.9497 2.1147 6.081 8.5378h2.8741V282.498h-23.8271v11.6603h2.874c.1266-6.4231 1.7301-8.6643 6.0811-8.5378v19.2652zm-32.1446 5.7903h2.6209l.8439-2.6209c3.343 2.5272 5.4481 3.4228 8.4066 3.4228 5.5277 0 9.5036-3.7228 9.5036-8.9646 0-4.5103-2.7006-7.4688-8.1111-8.8237l-5.1105-1.3081c-2.1052-.5533-3.207-1.7676-3.207-3.6289 0-2.3255 1.7301-3.6805 4.562-3.6805 1.8144 0 3.718.7595 4.8995 1.941 1.3456 1.355 2.2317 3.2961 2.7474 6.1701h2.8647v-10.6851h-2.2364l-1.355 2.0723c-2.9913-2.3302-4.5572-2.9163-7.436-2.9163-5.4012 0-9.0723 3.5024-9.0723 8.7019 0 4.4776 2.4099 6.925 8.3128 8.4441l4.1024 1.0596c2.5365.633 3.8024 2.0254 3.8024 4.0931 0 2.4099-1.73 3.718-4.8526 3.718-2.3255 0-3.929-.633-5.4481-2.0676-1.5659-1.5238-2.2927-3.0429-2.9209-6.5499h-2.9163v11.6228zm-18.6697-11.7869v5.9966c0 2.363-.211 2.574-2.3255 2.574h-2.1052v3.2163h14.7408v-3.2163h-2.0677c-2.1145 0-2.3255-.2579-2.3255-2.574v-5.9966l7.225-11.3275c.9237-1.3925 1.6457-1.8473 2.9585-1.8473h.8393v-3.2163h-11.7401v3.2163h2.4474c.8861 0 1.2284.211 1.2284.7971 0 .3375-.1313.8064-.422 1.2237l-4.6885 6.8405-4.4776-6.6296c-.3047-.4219-.4688-.9705-.4688-1.3549 0-.6658.422-.8768 1.6035-.8768h2.1145v-3.2163h-13.3857v3.2163h1.2237c1.3456 0 2.4943.8768 3.6758 2.8647l5.9497 10.3101zM87.7416 310.676h2.6209l.8486-2.6209c3.3335 2.5272 5.4528 3.4228 8.4065 3.4228 5.5325 0 9.5084-3.7228 9.5084-8.9646 0-4.5103-2.71-7.4688-8.1159-8.8237l-5.1105-1.3081c-2.1145-.5533-3.2116-1.7676-3.2116-3.6289 0-2.3255 1.73-3.6805 4.5619-3.6805 1.8192 0 3.7133.7595 4.8948 1.941 1.3597 1.355 2.2458 3.2961 2.7475 6.1701h2.8788v-10.6851h-2.2458l-1.3456 2.0723c-3.0054-2.3302-4.562-2.9163-7.436-2.9163-5.4012 0-9.0817 3.5024-9.0817 8.7019 0 4.4776 2.4052 6.925 8.3221 8.4441l4.0931 1.0596c2.5365.633 3.8118 2.0254 3.8118 4.0931 0 2.4099-1.7442 3.718-4.8667 3.718-2.3255 0-3.9243-.633-5.4481-2.0676-1.566-1.5238-2.2786-3.0429-2.9116-6.5499h-2.9209v11.6228zm35.7688-248.5013 5.6591 15.8426 16.9678.4312-13.4702 10.207 4.8292 16.1097-13.9859-9.5224-13.9905 9.5224 4.8338-16.1097-13.4795-10.207 16.9772-.4312 5.659-15.8426zm46.2804-32.9121 5.6591 15.8332 16.9678.4314-13.4702 10.2163 4.8292 16.1097-13.9859-9.5224-13.9812 9.5224 4.8245-16.1097-13.4701-10.2163 16.9678-.4314 5.659-15.8332zm46.0507 32.9121 5.6591 15.8426 16.9818.4312-13.4795 10.207 4.8339 16.1097-13.9953-9.5224-13.9812 9.5224 4.8339-16.1097-13.4795-10.207 16.9678-.4312 5.659-15.8426zm-74.8758 53.9087 5.6497 15.8331 16.9772.4314-13.4796 10.2163 4.8339 16.1004-13.9812-9.5224-13.9952 9.5224 4.8385-16.1004-13.4795-10.2163 16.9772-.4314 5.659-15.8331zm57.4345 0 5.6497 15.8331 16.9772.4314-13.4796 10.2163 4.8339 16.1004-13.9812-9.5224-13.9952 9.5224 4.8385-16.1004-13.4795-10.2163 16.9772-.4314 5.659-15.8331z"/>
</svg>