<?xml version="1.0" encoding="UTF-8" standalone="no"?>
<!-- Created with Inkscape (http://www.inkscape.org/) -->

<svg
   xmlns:dc="http://purl.org/dc/elements/1.1/"
   xmlns:cc="http://creativecommons.org/ns#"
   xmlns:rdf="http://www.w3.org/1999/02/22-rdf-syntax-ns#"
   xmlns:svg="http://www.w3.org/2000/svg"
   xmlns="http://www.w3.org/2000/svg"
   xmlns:sodipodi="http://sodipodi.sourceforge.net/DTD/sodipodi-0.dtd"
   xmlns:inkscape="http://www.inkscape.org/namespaces/inkscape"
   width="357.625"
   height="357.78125"
   id="svg4779"
   version="1.1"
   inkscape:version="0.48.2 r9819"
   sodipodi:docname="MUTCD M1-1 (3 digits).svg">
  <defs
     id="defs4781" />
  <sodipodi:namedview
     id="base"
     pagecolor="#ffffff"
     bordercolor="#666666"
     borderopacity="1.0"
     inkscape:pageopacity="0.0"
     inkscape:pageshadow="2"
     inkscape:zoom="0.9899495"
     inkscape:cx="161.7644"
     inkscape:cy="157.60524"
     inkscape:document-units="px"
     inkscape:current-layer="layer1"
     showgrid="false"
     inkscape:window-width="1280"
     inkscape:window-height="1004"
     inkscape:window-x="-8"
     inkscape:window-y="-8"
     inkscape:window-maximized="1"
     fit-margin-top="0"
     fit-margin-left="0"
     fit-margin-right="0"
     fit-margin-bottom="0" />
  <metadata
     id="metadata4784">
    <rdf:RDF>
      <cc:Work
         rdf:about="">
        <dc:format>image/svg+xml</dc:format>
        <dc:type
           rdf:resource="http://purl.org/dc/dcmitype/StillImage" />
        <dc:title></dc:title>
      </cc:Work>
    </rdf:RDF>
  </metadata>
  <g
     inkscape:label="Layer 1"
     inkscape:groupmode="layer"
     id="layer1"
     transform="translate(3252,1857)">
    <path
       d="m -3073.2486,-1500.4571 c -102.3115,-20.8085 -177.4915,-112.6984 -177.4915,-217.6042 0,-49.4147 17.0799,-99.3621 47.437,-137.507 19.9405,6.0764 43.4222,9.667 65.0988,9.667 21.6716,0 45.0794,-3.4673 65.0199,-9.5387 19.9404,6.0714 43.3482,9.5387 65.0247,9.5387 21.6766,0 45.1584,-3.5906 65.0988,-9.667 30.3522,38.1449 47.432,88.0923 47.432,137.507 0,104.9058 -75.3181,196.7908 -177.6197,217.6042"
       style="fill:#ffffff;fill-opacity:1;fill-rule:evenodd;stroke:#000000;stroke-width:2.5;stroke-miterlimit:4;stroke-opacity:1;stroke-dasharray:none"
       id="path5012"
       inkscape:connector-curvature="0" />
    <path
       d="m -2910.1243,-1773.2945 c 0.2219,0.873 1.3119,5.8889 1.4944,6.7323 2.6091,11.6842 4.5523,23.5705 5.1984,35.5407 0.6659,12.4141 0.3502,24.774 -1.0308,37.1289 -1.3563,12.1428 -3.8618,24.1081 -7.3093,35.8169 -3.4574,11.7581 -7.9555,23.1266 -13.3512,34.1153 -5.4993,11.2255 -12.0393,21.8147 -19.324,31.96 -7.265,10.1108 -15.5657,19.3437 -24.3892,28.0982 -8.8137,8.7495 -18.6335,16.3548 -28.764,23.5064 -9.9826,7.048 -20.848,12.7297 -31.8565,17.9627 -11.0775,5.2625 -22.8208,9.0109 -34.6233,12.2415 -2.9001,0.7891 -5.8396,1.3957 -8.7643,2.0616 -1.1098,0.2515 -2.5154,-0.3897 -3.5956,-0.6313 -1.5092,-0.3403 -3.0431,-0.6165 -4.5375,-1.0259 -6.0073,-1.6572 -11.9258,-3.418 -17.8591,-5.3316 -11.6743,-3.7731 -22.7321,-9.3266 -33.5531,-15.0429 -5.3513,-2.836 -10.4314,-6.2687 -15.5262,-9.5486 -5.0259,-3.2403 -10.0665,-6.9641 -14.6435,-10.8111 -6.9641,-5.8594 -13.8542,-11.6644 -20.044,-18.3376 -8.2267,-8.8777 -16.3203,-18.0366 -22.9836,-28.1771 -6.7175,-10.2291 -13.2082,-20.7148 -18.1304,-31.9452 -4.8926,-11.1416 -9.4894,-22.5298 -12.419,-34.3718 -2.9346,-11.8814 -5.5684,-23.97 -6.3871,-36.2164 -0.8187,-12.2267 -1.2034,-24.4681 -0.025,-36.6997 1.1935,-12.3747 3.3193,-24.4879 6.3821,-36.537"
       style="fill:#00674c;fill-opacity:1;fill-rule:evenodd;stroke:none"
       id="path5020"
       inkscape:connector-curvature="0" />
    <path
       d="m -3233.892,-1780.6927 c 3.2946,-11.3339 7.6102,-22.5002 12.9221,-33.0549 5.5535,-11.0578 11.8272,-21.6963 19.1957,-31.6394 0.513,-0.6954 0.8779,-1.7756 1.7657,-1.5339 2.2688,0.6264 4.5425,1.2084 6.8359,1.7608 4.3846,1.0456 8.7939,1.9728 13.2279,2.7817 8.863,1.6128 17.8098,2.7274 26.7961,3.3439 17.8641,1.2232 35.7775,0.1677 53.4344,-2.7077 8.7791,-1.4352 17.4645,-3.3933 26.0217,-5.8297 0.9618,-0.2713 2.1307,0.3156 3.0826,0.577 1.0308,0.2861 2.0715,0.5623 3.1023,0.8336 2.2342,0.5819 4.4685,1.1343 6.7224,1.6473 4.3353,0.9815 8.6904,1.8396 13.0701,2.5943 17.6125,3.0529 35.5752,4.0443 53.4196,2.9592 8.9961,-0.5474 17.9429,-1.6966 26.8257,-3.2206 4.4043,-0.7941 8.7939,-1.6819 13.1489,-2.7127 2.1406,-0.5031 4.2564,-1.0308 6.3772,-1.5931 0.3157,-0.084 2.0025,-0.725 2.1751,-0.4932 0.2811,0.3798 0.5721,0.7645 0.8483,1.1443 3.7681,5.08 7.2551,10.3229 10.5596,15.7087 6.3279,10.3081 11.551,21.2426 16.059,32.4532 2.2441,5.5634 4.1429,11.2551 5.884,16.9812"
       style="fill:#00674c;fill-opacity:1;fill-rule:evenodd;stroke:none"
       id="path5024"
       inkscape:connector-curvature="0" />
    <path
       d="m -3157.4148,-1808.3153 -5.307,0 0,11.5065 5.307,0 c 2.9691,0 4.9123,-2.0665 4.9123,-5.302 0,-3.4919 -2.1947,-6.2045 -4.9123,-6.2045 m 0.2614,-14.9986 -5.5684,0 0,9.8248 5.5684,0 c 2.4562,0 4.0048,-2.0715 4.0048,-5.4303 0,-3.1022 -1.1639,-4.3945 -4.0048,-4.3945 m 0,31.6789 -10.8655,0 0,-36.8526 11.6349,0 c 4.9123,0 8.4092,3.8766 8.4092,9.5682 0,3.3588 -0.9026,4.9124 -3.8816,8.0147 2.8409,2.328 4.5277,5.4352 4.5277,9.1836 0,5.5585 -4.3994,10.0861 -9.8247,10.0861"
       style="fill:#ffffff;fill-opacity:1;fill-rule:evenodd;stroke:none"
       id="path5414"
       inkscape:connector-curvature="0" />
    <path
       d="m -3121.9925,-1796.1631 c -1.8101,2.9789 -5.2971,5.1688 -8.7841,5.1688 -3.6251,0 -7.2452,-2.0666 -9.0553,-5.1688 -1.0308,-1.9384 -1.4254,-3.492 -1.4254,-6.466 l 0,-25.859 5.307,0 0,26.51 c 0,3.4919 2.0616,5.815 5.1737,5.815 2.8409,0 4.9124,-2.3231 4.9124,-5.815 l 0,-26.51 5.2971,0 0,25.859 c 0,2.974 -0.3847,4.5276 -1.4254,6.466"
       style="fill:#ffffff;fill-opacity:1;fill-rule:evenodd;stroke:none"
       id="path5418"
       inkscape:connector-curvature="0" />
    <path
       d="m -3104.1432,-1790.9928 c -6.4709,0 -10.3476,-5.4253 -10.3476,-11.5066 l 5.1738,0 c 0,3.1023 1.5536,6.3377 5.1738,6.3377 2.8409,0 5.1737,-2.5844 5.1737,-5.5584 0,-2.0715 -0.7792,-3.6251 -2.9789,-5.307 -0.7793,-0.7743 1.2922,0.6461 -6.2096,-4.3895 -2.9691,-2.0765 -4.5178,-4.9174 -4.5178,-8.1479 0,-5.3069 4.1282,-9.5683 9.4401,-9.5683 5.1688,0 9.1786,4.0049 9.3019,9.5683 l -5.0357,0 c -0.1331,-2.5893 -1.9481,-4.2712 -4.2662,-4.2712 -2.4562,0 -4.4044,1.8101 -4.4044,4.2712 0,1.8101 0.7793,2.8458 3.4969,4.3945 7.1071,4.1331 10.2094,8.1429 10.2094,13.4499 0,5.9482 -4.5276,10.7274 -10.2094,10.7274"
       style="fill:#ffffff;fill-opacity:1;fill-rule:evenodd;stroke:none"
       id="path5422"
       inkscape:connector-curvature="0" />
    <path
       d="m -3087.8519,-1828.4871 5.1737,0 0,36.8527 -5.1737,0 0,-36.8527 z"
       style="fill:#ffffff;fill-opacity:1;fill-rule:evenodd;stroke:none"
       id="path5424"
       inkscape:connector-curvature="0" />
    <path
       d="m -3057.9837,-1791.636 -11.3833,-24.695 0,24.695 -5.2971,0 0,-36.8526 5.2971,0 10.0862,22.1106 0,-22.1106 5.3069,0 0,36.8526 -4.0098,0 z"
       style="fill:#ffffff;fill-opacity:1;fill-rule:evenodd;stroke:none"
       id="path5428"
       inkscape:connector-curvature="0" />
    <path
       d="m -3046.0924,-1791.636 0,-36.8526 17.3265,0 0,5.1738 -12.0196,0 0,9.3068 7.63,0 0,5.0456 -7.63,0 0,12.1576 13.4449,0 0,5.1688 -18.7518,0 z"
       style="fill:#ffffff;fill-opacity:1;fill-rule:evenodd;stroke:none"
       id="path5432"
       inkscape:connector-curvature="0" />
    <path
       d="m -3012.7268,-1790.9928 c -6.4709,0 -10.3426,-5.4253 -10.3426,-11.5066 l 5.1689,0 c 0,3.1023 1.5536,6.3377 5.1737,6.3377 2.8409,0 5.164,-2.5844 5.164,-5.5584 0,-2.0715 -0.7695,-3.6251 -2.9642,-5.307 -0.7842,-0.7743 1.2872,0.6461 -6.2145,-4.3895 -2.9691,-2.0765 -4.5178,-4.9174 -4.5178,-8.1479 0,-5.3069 4.1331,-9.5683 9.4302,-9.5683 5.1738,0 9.1885,4.0049 9.3167,9.5683 l -5.0504,0 c -0.1234,-2.5893 -1.9384,-4.2712 -4.2663,-4.2712 -2.4562,0 -4.3945,1.8101 -4.3945,4.2712 0,1.8101 0.7793,2.8458 3.4968,4.3945 7.1121,4.1331 10.2144,8.1429 10.2144,13.4499 0,5.9482 -4.5276,10.7274 -10.2144,10.7274"
       style="fill:#ffffff;fill-opacity:1;fill-rule:evenodd;stroke:none"
       id="path5436"
       inkscape:connector-curvature="0" />
    <path
       d="m -2987.9035,-1790.9928 c -6.461,0 -10.3426,-5.4253 -10.3426,-11.5066 l 5.1738,0 c 0,3.1023 1.5486,6.3377 5.1688,6.3377 2.8458,0 5.1738,-2.5844 5.1738,-5.5584 0,-2.0715 -0.7793,-3.6251 -2.9741,-5.307 -0.7792,-0.7743 1.2873,0.6461 -6.2046,-4.3895 -2.979,-2.0765 -4.5276,-4.9174 -4.5276,-8.1479 0,-5.3069 4.1331,-9.5683 9.44,-9.5683 5.1738,0 9.1787,4.0049 9.3069,9.5683 l -5.0406,0 c -0.1332,-2.5893 -1.9433,-4.2712 -4.2663,-4.2712 -2.4562,0 -4.4044,1.8101 -4.4044,4.2712 0,1.8101 0.7842,2.8458 3.4969,4.3945 7.1121,4.1331 10.2144,8.1429 10.2144,13.4499 0,5.9482 -4.5277,10.7274 -10.2144,10.7274"
       style="fill:#ffffff;fill-opacity:1;fill-rule:evenodd;stroke:none"
       id="path5440"
       inkscape:connector-curvature="0" />
    <path
       d="m -3165.321,-1594.0314 c 0.4242,-13.7951 3.339,-25.0896 10.0368,-36.3792 5.016,-9.1983 12.5424,-16.7247 20.9023,-22.9983 2.0912,-1.2478 3.7681,-2.5055 5.4352,-3.7583 l 6.2687,-3.344 5.8593,-3.3538 5.8544,-3.339 c 4.5967,-2.9248 7.9505,-7.9456 7.9505,-12.9616 0,-8.7791 -10.0417,-15.8912 -21.7555,-15.8912 -12.1181,0 -19.6494,5.8544 -21.7308,16.7247 l -18.8209,-4.1774 c 4.1775,-19.6594 19.6495,-31.7776 40.5517,-31.7776 22.5841,0 40.5666,15.8863 40.5666,35.5358 0,9.2033 -4.1825,18.3967 -12.1281,25.5088 -1.667,1.2528 -3.3439,2.5055 -5.0209,3.344 l -5.8544,3.7632 -6.2736,3.344 -5.8445,3.3439 c -11.2896,6.6978 -17.5632,13.8 -23.4176,27.1858 l 58.5391,0 0,19.2302 -81.1183,0 z"
       style="fill:#ffffff;fill-opacity:1;fill-rule:evenodd;stroke:none"
       id="path5444"
       inkscape:connector-curvature="0" />
    <path
       d="m -3060.7851,-1594.0314 c 0.4143,-13.7951 3.3439,-25.0896 10.0368,-36.3792 5.011,-9.1983 12.5423,-16.7247 20.9022,-22.9983 2.0912,-1.2478 3.7681,-2.5055 5.4352,-3.7583 l 6.2736,-3.344 5.8544,-3.3538 5.8594,-3.339 c 4.5917,-2.9248 7.9357,-7.9456 7.9357,-12.9616 0,-8.7791 -10.0269,-15.8912 -21.7407,-15.8912 -12.128,0 -19.6544,5.8544 -21.7407,16.7247 l -18.8159,-4.1774 c 4.1824,-19.6594 19.6495,-31.7776 40.5566,-31.7776 22.5792,0 40.5616,15.8863 40.5616,35.5358 0,9.2033 -4.1775,18.3967 -12.128,25.5088 -1.6769,1.2528 -3.3391,2.5055 -5.016,3.344 l -5.8593,3.7632 -6.2687,3.344 -5.8593,3.3439 c -11.2798,6.6978 -17.5583,13.8 -23.4078,27.1858 l 58.5391,0 0,19.2302 -81.1182,0 z"
       style="fill:#ffffff;fill-opacity:1;fill-rule:evenodd;stroke:none"
       id="path5448"
       inkscape:connector-curvature="0" />
    <path
       d="m -3111.2159,-1741.043 0,-23.8072 3.7583,0 0,20.3005 11.0282,0 0,3.5067 -14.7865,0 z"
       style="fill:#ffffff;fill-opacity:1;fill-rule:evenodd;stroke:none"
       id="path5452"
       inkscape:connector-curvature="0" />
    <path
       d="m -3081.8156,-1759.5867 c -0.7497,-1.2527 -1.672,-1.7558 -3.0924,-1.8397 -1.8397,-0.079 -3.0037,0.8434 -3.8421,2.9248 -0.5771,1.4204 -0.9125,3.5905 -0.9125,5.5979 0,2.5055 0.4982,5.0998 1.4155,6.5942 0.7497,1.2577 1.7509,1.8397 3.2552,1.8397 1.7509,0 2.8409,-0.9223 3.6794,-3.0086 0.503,-1.2478 0.9124,-3.5856 0.9124,-5.4253 0,-2.6732 -0.4981,-5.0949 -1.4155,-6.683 m 2.5943,16.2858 c -1.3416,1.8397 -3.2552,2.6732 -5.7706,2.6732 -3.3341,0 -5.4253,-1.3317 -6.8507,-4.2613 -1.0012,-2.0025 -1.667,-5.1738 -1.667,-8.0147 0,-3.921 1.0012,-7.4327 2.5943,-9.6866 1.4155,-1.8348 3.339,-2.6732 6.096,-2.6732 3.0037,0 5.0949,1.3316 6.5992,4.2613 1.0012,2.0863 1.5783,5.0949 1.5783,8.0985 0,3.7583 -0.9125,7.5116 -2.5795,9.6028"
       style="fill:#ffffff;fill-opacity:1;fill-rule:evenodd;stroke:none"
       id="path5456"
       inkscape:connector-curvature="0" />
    <path
       d="m -3060.2623,-1759.5867 c -0.7546,-1.2527 -1.6769,-1.7558 -3.0925,-1.8397 -1.8396,-0.079 -3.0085,0.8434 -3.847,2.9248 -0.5869,1.4204 -0.9124,3.5905 -0.9124,5.5979 0,2.5055 0.4981,5.0998 1.4155,6.5942 0.7497,1.2577 1.7509,1.8397 3.2552,1.8397 1.7509,0 2.8409,-0.9223 3.6793,-3.0086 0.5031,-1.2478 0.9174,-3.5856 0.9174,-5.4253 0,-2.6732 -0.5031,-5.0949 -1.4155,-6.683 m 2.5795,16.2858 c -1.3317,1.8397 -3.2552,2.6732 -5.7607,2.6732 -3.344,0 -5.4253,-1.3317 -6.8507,-4.2613 -1.0012,-2.0025 -1.6671,-5.1738 -1.6671,-8.0147 0,-3.921 1.0062,-7.4327 2.5943,-9.6866 1.4155,-1.8348 3.3341,-2.6732 6.0961,-2.6732 3.0086,0 5.085,1.3316 6.5991,4.2613 1.0013,2.0863 1.5783,5.0949 1.5783,8.0985 0,3.7583 -0.9124,7.5116 -2.5893,9.6028"
       style="fill:#ffffff;fill-opacity:1;fill-rule:evenodd;stroke:none"
       id="path5460"
       inkscape:connector-curvature="0" />
    <path
       d="m -3038.9754,-1760.6703 c -0.6658,-0.3304 -1.0801,-0.4143 -2.254,-0.4143 l -4.9222,0 0,5.8446 4.9222,0 c 1.1739,0 1.5882,-0.089 2.254,-0.4193 0.8385,-0.4192 1.4254,-1.5042 1.4254,-2.5104 0,-1.0012 -0.5869,-1.9975 -1.4254,-2.5006 m 1.5882,8.4339 c -1.0802,0.4982 -2.5056,0.8335 -4.3452,0.8335 l -4.4192,0 0,10.3575 -3.7583,0 0,-23.8024 8.1775,0 c 1.9284,0 3.1812,0.1677 4.3452,0.7547 2.0912,1.0012 3.6793,3.5116 3.6793,5.9234 0,2.5104 -1.5881,5.0159 -3.6793,5.9333"
       style="fill:#ffffff;fill-opacity:1;fill-rule:evenodd;stroke:none"
       id="path5464"
       inkscape:connector-curvature="0" />
  </g>
</svg>
