<?xml version="1.0" encoding="UTF-8" standalone="no"?>
<svg xmlns="http://www.w3.org/2000/svg" width="357.625" height="357.78125">
  <path fill="#fff" fill-rule="evenodd" stroke="#000" stroke-width="2.5" d="M178.7471 356.5429C76.4357 335.7344 1.2606 243.8444 1.2606 138.9386c0-49.4147 17.0799-99.362 47.432-137.5069 19.9405 6.0763 43.4271 9.6669 65.0988 9.6669 21.6766 0 45.0843-3.4673 65.0248-9.5387 19.9405 6.0714 43.3482 9.5387 65.0248 9.5387 21.6716 0 45.1583-3.5906 65.0988-9.6669 30.3521 38.1449 47.432 88.0922 47.432 137.5069 0 104.9058-75.3181 196.7908-177.6247 217.6043"/>
  <path fill="#00674c" fill-rule="evenodd" d="M341.8764 83.7055c.217.873 1.307 5.889 1.4894 6.7324 2.6141 11.6841 4.5573 23.5705 5.2034 35.5407.6659 12.4141.3453 24.7739-1.0308 37.1288-1.3563 12.1428-3.8618 24.1081-7.3094 35.8169-3.4623 11.7582-7.9604 23.1266-13.3512 34.1154-5.5042 11.2254-12.0442 21.8146-19.3239 31.96-7.265 10.1108-15.5707 19.3437-24.3942 28.0981-8.8137 8.7496-18.6285 16.3549-28.764 23.5064-9.9776 7.048-20.8431 12.7298-31.8564 17.9627-11.0775 5.2626-22.8209 9.011-34.6184 12.2415-2.9001.7891-5.8397 1.3958-8.7693 2.0616-1.1048.2516-2.5104-.3896-3.5906-.6313-1.5141-.3403-3.0431-.6165-4.5375-1.0259-6.0123-1.6571-11.9258-3.4179-17.8592-5.3315-11.6742-3.7731-22.7369-9.3267-33.553-15.043-5.3563-2.8359-10.4314-6.2687-15.5263-9.5485-5.0307-3.2404-10.0664-6.9641-14.6434-10.8112-6.9641-5.8593-13.8592-11.6644-20.049-18.3375-8.2267-8.8778-16.3154-18.0367-22.9836-28.1771-6.7125-10.2292-13.2032-20.7148-18.1254-31.9452-4.8976-11.1416-9.4894-22.5298-12.419-34.3718-2.9396-11.8814-5.5684-23.97-6.3871-36.2164-.8187-12.2267-1.2034-24.4682-.03-36.6998 1.1936-12.3746 3.3242-24.4879 6.3871-36.537m2.2741-7.8864c3.2946-11.334 7.6102-22.5002 12.9171-33.0549 5.5585-11.0578 11.8321-21.6963 19.2007-31.6395.508-.6954.873-1.7755 1.7608-1.5338 2.2737.6263 4.5473 1.2083 6.8408 1.7607 4.3846 1.0456 8.7939 1.9729 13.2279 2.7817 8.858 1.6128 17.8098 2.7275 26.7961 3.344 17.8591 1.2231 35.7774.1677 53.4343-2.7077 8.7742-1.4353 17.4646-3.3933 26.0169-5.8298.9667-.2712 2.1306.3157 3.0825.5771 1.0308.286 2.0715.5622 3.1023.8335 2.2392.582 4.4734 1.1344 6.7274 1.6473 4.3353.9815 8.6854 1.8397 13.0701 2.5943 17.6076 3.053 35.5752 4.0443 53.4146 2.9593 8.9962-.5475 17.9479-1.6967 26.8306-3.2207 4.3995-.7941 8.794-1.6818 13.149-2.7126 2.1356-.5031 4.2564-1.0309 6.3772-1.5931.3157-.084 2.0025-.725 2.1751-.4932.2811.3797.5672.7644.8483 1.1442 3.7681 5.0801 7.2551 10.3229 10.5547 15.7088 6.3328 10.308 11.551 21.2425 16.0589 32.4532 2.2441 5.5634 4.143 11.255 5.8889 16.9812"/>
  <path fill="#fff" d="M94.5266 48.764h-5.2675v11.4524h5.2675c2.9691 0 4.8926-2.0567 4.8926-5.2724 0-3.4772-2.1849-6.18-4.8926-6.18m.2614-14.9245h-5.5289v9.7754h5.5289c2.4463 0 3.9851-2.0567 3.9851-5.4056 0-3.0875-1.1541-4.3698-3.9851-4.3698m0 31.526H83.9768V28.6904h11.5806c4.8926 0 8.3698 3.8569 8.3698 9.5189 0 3.3489-.9026 4.8976-3.8619 7.9802 2.8311 2.3181 4.4981 5.4056 4.4981 9.1392 0 5.5288-4.3698 10.0368-9.7754 10.0368m35.1313-4.507c-1.8002 2.9642-5.2773 5.1491-8.7495 5.1491-3.6103 0-7.2107-2.0567-9.0159-5.1491-1.0209-1.9284-1.4155-3.4722-1.4155-6.4364V28.6914h5.2823v26.3768c0 3.4772 2.0616 5.7903 5.1491 5.7903 2.8261 0 4.8877-2.3131 4.8877-5.7903V28.6914h5.2774v25.7307c0 2.9642-.3848 4.508-1.4156 6.4364m17.8789 5.1486c-6.4364 0-10.2884-5.4055-10.2884-11.4474h5.1442c0 3.0826 1.5388 6.2983 5.1442 6.2983 2.831 0 5.1541-2.5696 5.1541-5.5289 0-2.0616-.7695-3.6004-2.9692-5.2773-.7694-.7743 1.2922.6461-6.175-4.3748-2.9543-2.0616-4.498-4.8926-4.498-8.1133 0-5.2675 4.1133-9.514 9.3956-9.514 5.1393 0 9.1293 3.9851 9.2625 9.514h-5.0159c-.1332-2.5696-1.9384-4.2416-4.2466-4.2416-2.4512 0-4.3748 1.8002-4.3748 4.2416 0 1.8052.7694 2.836 3.4673 4.3797 7.0776 4.1183 10.17 8.1084 10.17 13.3857 0 5.9136-4.5079 10.678-10.17 10.678m16.3455-37.3167h5.1442v36.6751h-5.1442V28.6904zm29.8535 36.6761-11.329-24.5816v24.5816h-5.2675V28.6914h5.2675l10.0368 22.0021V28.6914h5.2823v36.6751h-3.9901zm11.9653 0V28.6914h17.2426v5.1441h-11.9653v9.2675h7.5905v5.0208h-7.5905v12.0935h13.3808v5.1492h-18.6581zm33.3311.6406c-6.4364 0-10.2982-5.4055-10.2982-11.4474h5.154c0 3.0826 1.5388 6.2983 5.1442 6.2983 2.831 0 5.1442-2.5696 5.1442-5.5289 0-2.0616-.7744-3.6004-2.9593-5.2773-.7694-.7743 1.2922.6461-6.175-4.3748-2.9543-2.0616-4.5079-4.8926-4.5079-8.1133 0-5.2675 4.1232-9.514 9.3907-9.514 5.154 0 9.1441 3.9851 9.2674 9.514h-5.0159c-.1283-2.5696-1.9285-4.2416-4.2515-4.2416-2.4365 0-4.3698 1.8002-4.3698 4.2416 0 1.8052.7694 2.836 3.4771 4.3797 7.0775 4.1183 10.1601 8.1084 10.1601 13.3857 0 5.9136-4.4981 10.678-10.1601 10.678m24.8331 0c-6.4364 0-10.2982-5.4055-10.2982-11.4474h5.154c0 3.0826 1.5388 6.2983 5.1442 6.2983 2.831 0 5.1442-2.5696 5.1442-5.5289 0-2.0616-.7694-3.6004-2.9593-5.2773-.7694-.7743 1.2922.6461-6.175-4.3748-2.9543-2.0616-4.5079-4.8926-4.5079-8.1133 0-5.2675 4.1232-9.514 9.3956-9.514 5.1492 0 9.1392 3.9851 9.2625 9.514h-5.0159c-.1282-2.5696-1.9285-4.2416-4.2466-4.2416-2.4413 0-4.3747 1.8002-4.3747 4.2416 0 1.8052.7694 2.836 3.4771 4.3797 7.0776 4.1183 10.1601 8.1084 10.1601 13.3857 0 5.9136-4.498 10.678-10.1601 10.678M153.0558 176.3486c-10.3722 17.4349-18.2635 37.3557-22.0021 56.4478-1.6572 9.9728-2.4857 17.435-2.4857 29.0649h-19.1021c.4242-27.3978 5.4056-50.2285 17.0256-75.1356 4.1479-9.1342 9.1294-17.8542 13.2822-24.4879H83.3258V143.56h80.1072v18.6778c-4.143 5.3908-6.6386 7.8766-10.3772 14.1108m88.4129-6.647c-3.7386-6.2243-8.3008-8.72-15.3537-9.1343-9.1342-.4143-14.9492 4.1529-19.102 14.5399-2.9001 7.0479-4.5671 17.8492-4.5671 27.8071 0 12.4487 2.4956 25.3165 7.0627 32.7936 3.7336 6.2243 8.7151 9.1293 16.1921 9.1293 8.7052 0 14.1108-4.5622 18.2636-14.9393 2.4858-6.2342 4.5671-17.8493 4.5671-26.9836 0-13.2821-2.4956-25.3214-7.0627-33.2127m12.8678 80.9456c-6.6435 9.1342-16.1921 13.2821-28.6358 13.2821-16.6064 0-26.9835-6.6336-34.0413-21.1636-4.9814-9.9678-8.3057-25.7357-8.3057-39.8514 0-19.5163 4.9814-36.9414 12.8679-48.1521 7.0627-9.1342 16.6063-13.287 30.3077-13.287 14.9394 0 25.3165 6.6484 32.7886 21.1735 4.9814 10.3771 7.8914 25.3164 7.8914 40.2656 0 18.6779-4.5672 37.3607-12.8728 47.7329M153.9337 114.2638c-1.3218 1.159-3.1516 1.8199-5.1441 1.8199-4.0641 0-7.0529-2.4019-8.6312-5.9727l3.5659-1.3268c1.0012 2.2392 2.8212 3.487 5.0653 3.487 2.1602 0 3.6497-1.4944 3.6497-3.487 0-3.1565-3.6497-3.6547-6.7224-4.8975-1.4057-.587-4.5672-1.9975-4.5672-5.8988 0-4.6461 3.1615-6.392 7.3883-6.392 3.3243 0 5.5684 1.9087 6.7274 4.8186l-3.3144.9914s-.8384-1.9926-3.487-2.0715c-1.7459-.084-3.8273.577-3.6596 2.7373.3354 4.3994 11.4622 1.4944 11.4622 10.7914 0 2.1603-.8286 4.069-2.3329 5.4007m17.1835-18.1003c-.6609-.3305-1.0752-.4143-2.2441-.4143h-4.8927v5.81h4.8927c1.1689 0 1.5832-.084 2.2441-.4143.8286-.4143 1.4204-1.4944 1.4204-2.4907s-.5918-1.9876-1.4204-2.4907m1.5832 8.3846c-1.0801.4981-2.4957.8285-4.3156.8285h-4.4044v10.2933h-3.7385V92.0107h8.1429c1.9038 0 3.1467.1627 4.3156.7496 2.0715.9963 3.6497 3.487 3.6497 5.8939 0 2.4907-1.5782 4.9814-3.6497 5.8939m22.1648 7.5579c-1.2429 2.323-4.064 3.9802-6.974 3.9802-2.9099 0-5.7311-1.6572-6.9739-3.9802-.6659-1.4155-1.0802-3.0727-1.0802-4.9025V92.0126h3.7386v15.1909c0 3.0727 1.741 5.0653 4.3155 5.0653 2.5697 0 4.3156-1.9926 4.3156-5.0653V92.0126h3.7386v15.1909c0 1.8298-.4143 3.487-1.0802 4.9025m17.0996-15.9425c-.577-.3305-.9075-.4143-2.1602-.4143h-4.4784v5.81h4.4784c1.1689 0 1.5832-.084 2.1602-.4143.9125-.5031 1.4994-1.4944 1.4994-2.4907s-.5869-1.9876-1.4994-2.4907m1.6671 19.5064-3.8273-10.2933h-4.4784v10.2933h-3.7385V92.0107h7.8026c1.8298 0 3.0727.1627 4.2416.7496 2.0715.9963 3.5609 3.487 3.5609 5.8939 0 2.4907-1.4894 4.9814-3.6497 5.9777l4.1528 11.038h-4.064z"/>
</svg>