<?xml version="1.0" encoding="UTF-8" standalone="no"?>
<svg xmlns="http://www.w3.org/2000/svg" xml:space="preserve" width="379.69739" height="379.69739">
  <path fill-rule="evenodd" d="M25.197175 0h329.27675c13.85375 0 25.2235 11.3645 25.2235 25.2235v329.261c0 13.853625-11.36975 25.212875-25.2235 25.212875H25.197175c-13.853625 0-25.197125-11.35925-25.197125-25.212875V25.2235C.00005 11.3645 11.34355 0 25.197175 0"/>
  <path fill="#fff" fill-rule="evenodd" d="M189.8593 15.805c95.841875 0 174.03325 78.19125 174.03325 174.03325 0 95.836625-78.191375 173.991-174.03325 173.991-95.857875 0-174.02275-78.154375-174.02275-173.991 0-95.842 78.164875-174.03325 174.02275-174.03325"/>
  <path d="M98.373925 282.531875V129.3925H81.13455v-23.857625h1.977625c7.963125 0 16.590625-4.661875 21.890625-11.9605h23.857625v188.9575h-30.4865zm135.888875-161.767c-14.5815 0-26.515625 9.9565-26.515625 22.549875 0 11.264375 11.934125 20.53525 26.515625 20.53525 14.592 0 26.531375-9.270875 26.531375-20.53525 0-12.593375-11.939375-22.549875-26.531375-22.549875m0 73.598c-18.5525 0-33.798375 12.598625-33.798375 28.493125 0 17.888 15.245875 32.48525 33.798375 32.48525 19.23275 0 34.478625-14.59725 34.478625-32.48525 0-15.8945-15.910375-28.493125-34.478625-28.493125m0 91.459625c-34.462875 0-64.30075-29.15225-64.30075-63.615125 0-17.919625 7.963125-32.4905 21.880125-43.765375-9.2815-9.935375-13.917-21.210375-13.917-34.489125 0-29.157625 25.84575-53.6745 56.337625-53.6745 30.502375 0 57.017875 24.516875 57.017875 53.6745 0 13.27875-5.294625 24.55375-14.58675 34.489125 14.58675 11.274875 21.895875 26.520875 21.895875 43.765375 0 34.462875-29.848375 63.615125-64.327 63.615125"/>
</svg>