<?xml version="1.0" encoding="UTF-8" standalone="no"?>
<!-- Created with Inkscape (http://www.inkscape.org/) -->

<svg
   xmlns:dc="http://purl.org/dc/elements/1.1/"
   xmlns:cc="http://creativecommons.org/ns#"
   xmlns:rdf="http://www.w3.org/1999/02/22-rdf-syntax-ns#"
   xmlns:svg="http://www.w3.org/2000/svg"
   xmlns="http://www.w3.org/2000/svg"
   xmlns:sodipodi="http://sodipodi.sourceforge.net/DTD/sodipodi-0.dtd"
   xmlns:inkscape="http://www.inkscape.org/namespaces/inkscape"
   width="1090.0227"
   height="1630.0071"
   id="svg2934"
   version="1.1"
   inkscape:version="0.48.2 r9819"
   sodipodi:docname="AJAX1.svg">
  <defs
     id="defs2936">
    <inkscape:perspective
       sodipodi:type="inkscape:persp3d"
       inkscape:vp_x="0 : 526.18109 : 1"
       inkscape:vp_y="0 : 1000 : 0"
       inkscape:vp_z="744.09448 : 526.18109 : 1"
       inkscape:persp3d-origin="372.04724 : 350.78739 : 1"
       id="perspective2942" />
    <inkscape:perspective
       id="perspective2924"
       inkscape:persp3d-origin="0.5 : 0.33333333 : 1"
       inkscape:vp_z="1 : 0.5 : 1"
       inkscape:vp_y="0 : 1000 : 0"
       inkscape:vp_x="0 : 0.5 : 1"
       sodipodi:type="inkscape:persp3d" />
    <clipPath
       id="Clip0">
      <path
         inkscape:connector-curvature="0"
         d="m 0,0 0,1296.5 864.5,0 L 864.5,0 0,0 z"
         transform="translate(0,0.5)"
         id="path7" />
    </clipPath>
  </defs>
  <sodipodi:namedview
     id="base"
     pagecolor="#ffffff"
     bordercolor="#666666"
     borderopacity="1.0"
     inkscape:pageopacity="0.0"
     inkscape:pageshadow="2"
     inkscape:zoom="0.17376232"
     inkscape:cx="-299.08638"
     inkscape:cy="1971.9654"
     inkscape:document-units="px"
     inkscape:current-layer="g2909"
     showgrid="false"
     inkscape:window-width="1280"
     inkscape:window-height="1004"
     inkscape:window-x="-8"
     inkscape:window-y="-8"
     inkscape:window-maximized="1"
     fit-margin-top="0"
     fit-margin-left="0"
     fit-margin-right="0"
     fit-margin-bottom="0" />
  <metadata
     id="metadata2939">
    <rdf:RDF>
      <cc:Work
         rdf:about="">
        <dc:format>image/svg+xml</dc:format>
        <dc:type
           rdf:resource="http://purl.org/dc/dcmitype/StillImage" />
        <dc:title></dc:title>
      </cc:Work>
    </rdf:RDF>
  </metadata>
  <g
     inkscape:label="Ebene 1"
     inkscape:groupmode="layer"
     id="layer1"
     transform="translate(-58.818255,1054.0267)">
    <g
       id="g3018"
       transform="translate(2,-2)">
      <g
         id="g2909"
         transform="matrix(0.80835983,0,0,0.80835983,-165.10178,-177.02766)">
        <path
           inkscape:connector-curvature="0"
           style="fill:#ffffff;fill-rule:nonzero;stroke:#000000;stroke-width:12.37072849;stroke-linecap:butt;stroke-linejoin:miter;stroke-miterlimit:4;stroke-opacity:1;stroke-dasharray:none"
           d="m 1616.769,760.796 c 0,92.2393 -74.7718,167.0049 -167.0048,167.0049 l -1002.02903,0 c -92.23383,0 -167.00483,-74.7656 -167.00483,-167.0049 l 0,-1670.0483 c 0,-92.2339 74.771,-167.0049 167.00483,-167.0049 l 1002.02903,0 c 92.233,0 167.0048,74.771 167.0048,167.0049 l 0,1670.0483 z"
           id="path11" />
        <path
           inkscape:connector-curvature="0"
           style="fill:#006649;fill-rule:nonzero;stroke:none"
           d="m 1221.1763,92.776555 c -75.0516,0 -138.4578,-49.8246 -158.9731,-118.1976 l -60.1326,12.9506 c -1.6206,2.7262001 -3.88749,5.0256001 -6.59359,6.6771001 l 13.24749,50.3750999 16.0495,0 0,12.5269 -40.31776,0 0,-12.5269 12.75577,0 -12.50526,-47.5499999 c -10.43626,-0.3432 -18.79423,-8.9069001 -18.79423,-19.4251001 0,-0.5211 0.0247,-1.0376 0.0664,-1.5463 L 787.39669,-218.31164 c -1.96849,6.1266 -3.83029,11.8511 -5.54518,17.0329 36.90652,30.4382 60.43255,76.5192 60.43255,128.094295 0,91.6578 -74.30323,165.961 -165.96105,165.961 -91.65782,0 -165.96106,-74.3032 -165.96106,-165.961 0,-91.657795 74.30324,-165.961095 165.96106,-165.961095 30.17994,0 58.47798,8.0611 82.86223,22.1375 14.02532,-43.0316 35.70038,-114.4123 44.87482,-144.7963 l -19.80863,-15.1495 30.90053,-31.2841 72.01465,0 0,20.8756 -63.29174,0 -8.12138,8.2204 17.18758,13.1439 c -1.12573,3.7421 -3.40195,11.3022 -6.44515,21.3519 -3.55967,11.7583 -8.16622,26.9218 -13.20111,43.3547 l 236.31489,0 4.6746,-16.7206 c -26.2336,-2.5128 -63.66592,-11.4877 -64.0154,-22.4961 -0.34019,-10.7409 58.2089,-10.4811 69.2436,-10.6203 40.2373,-0.5134 76.4218,-10.2553 77.6202,2.7479 1.2371,13.4114 -18.935,27.2759 -55.4039,30.4134 l -7.6312,27.2914 58.178,77.3309 c 25.7018,-16.334 56.1925,-25.8007 88.9007,-25.8007 91.6578,0 165.9611,74.3033 165.9611,165.961095 0,91.6578 -74.3033,165.961 -165.9611,165.961 z M 578.71799,-689.29314 c 99.86889,-159.7927 231.2816,-247.7934 370.03169,-247.7934 138.75162,0 270.16282,88.0007 370.03172,247.7934 37.0781,59.3238 68.09,125.8304 92.615,197.5528 l -441.72009,0 -483.57178,0 c 24.52343,-71.7208 55.5353,-138.229 92.61346,-197.5528 z m 370.03323,-275.6275 c -307.45281,0 -556.68278,398.7688 -556.68278,890.695495 0,435.656905 195.47761,798.249105 453.75678,875.488805 33.35612,9.9894 67.76066,15.2006 102.926,15.2006 307.45278,0 556.67968,-398.769 556.67968,-890.689405 0,-491.926695 -249.2269,-890.695495 -556.67968,-890.695495 z"
           id="path21" />
        <path
           inkscape:connector-curvature="0"
           style="fill:#ffffff;fill-rule:nonzero;stroke:none"
           d="m 1201.1775,279.41376 -127.1046,167.1981 127.1046,0 0,-167.1981 z m 70.6121,231.2615 0,110.95 -70.6121,0 0,-110.95 -221.25668,0 0,-42.1842 221.25668,-292.212 70.6121,0 0,270.3328 42.3682,0 0,64.0634 -42.3682,0 z"
           id="path115" />
        <path
           inkscape:connector-curvature="0"
           style="fill:#ffffff;fill-rule:nonzero;stroke:none"
           d="m 804.59512,279.41376 -127.10305,167.1981 127.10305,0 0,-167.1981 z m 70.61212,231.2615 0,110.95 -70.61212,0 0,-110.95 -221.25357,0 0,-42.1842 221.25357,-292.212 70.61212,0 0,270.3328 42.3682,0 0,64.0634 -42.3682,0 z"
           id="path117" />
        <path
           inkscape:connector-curvature="0"
           style="fill:#006649;fill-rule:nonzero;stroke:none"
           d="m 1130.0582,-172.30954 c -26.7564,24.6085 -43.5295,59.9068 -43.5295,99.125105 0,5.1709 0.3015,10.2692 0.869,15.2902 l 110.7845,-23.8631 -68.124,-90.552205 z"
           id="path13" />
        <path
           inkscape:connector-curvature="0"
           style="fill:#006649;fill-rule:nonzero;stroke:none"
           d="m 769.54576,-170.33484 c -10.37441,20.9482 -23.97912,40.2559 -34.89783,54.2224 -14.67787,18.777205 -29.5181,34.444805 -40.88835,45.094405 -1.06852,8.6812 -8.46467,15.4077 -17.43654,15.4077 -9.70638,0 -17.57417,-7.8693 -17.57417,-17.5741 0,-9.66 7.79511,-17.4984 17.43964,-17.5695 23.23532,-21.778705 55.48581,-60.420205 72.02392,-96.292305 -20.80138,-13.1624 -45.45469,-20.7859 -71.88939,-20.7859 -74.36354,0 -134.64765,60.2826 -134.64765,134.647705 0,74.3634999 60.28411,134.6476 134.64765,134.6476 74.36354,0 134.64765,-60.2841001 134.64765,-134.6476 0,-38.180705 -15.89484,-72.647105 -41.42493,-97.150405 z"
           id="path15" />
        <path
           inkscape:connector-curvature="0"
           style="fill:#006649;fill-rule:nonzero;stroke:none"
           d="m 805.15954,-274.84894 c -2.853,9.2254 -5.73538,18.4942 -8.55127,27.4784 l 173.47937,188.819105 -8.10438,-30.8201 -16.04947,0 0,-12.525405 40.31775,0 0,12.525405 -12.75577,0 8.17087,31.0691 60.54856,-216.546505 -237.05566,0 z"
           id="path17" />
        <path
           inkscape:connector-curvature="0"
           style="fill:#006649;fill-rule:nonzero;stroke:none"
           d="m 1111.1603,-197.42834 -46.0284,-61.181 -61.1454,218.678905 52.6699,-11.3455 c -0.9448,-7.1688 -1.4411,-14.4799 -1.4411,-21.9085 0,-49.448905 21.6348,-93.839705 55.945,-124.243905 z"
           id="path19" />
        <path
           inkscape:connector-curvature="0"
           style="fill:#006649;fill-rule:nonzero;stroke:none"
           d="m 1221.1763,-207.83214 c -25.6399,0 -49.6035,7.1673 -70.0029,19.6076 l 73.6043,97.837005 c 7.9792,1.6624 13.9728,8.7322 13.9728,17.2031 0,9.7048 -7.8678,17.5741 -17.5742,17.5741 -3.0973,0 -6.006,-0.8025 -8.5342,-2.2128 l -119.7023,25.7806 c 17.3886,54.2395 68.223,93.5057 128.2365,93.5057 74.3651,0 134.6476,-60.2841001 134.6476,-134.6476 0,-74.365105 -60.2825,-134.647705 -134.6476,-134.647705 z"
           id="path23" />
        <g
           transform="matrix(1.5463411,0,0,1.5463411,280.34374,-1077.417)"
           id="Background"
           style="fill:#000000;stroke:none">
          <g
             id="Group1"
             clip-path="url(#Clip0)"
             style="fill:#000000;stroke:none">
            <path
               inkscape:connector-curvature="0"
               style="fill:#000000;fill-rule:nonzero;stroke:none"
               d="M 30.336,37.91 C 27.23,40.601 22.938,41.955 17.469,41.955 11.918,41.955 7.605,40.623 4.55,37.929 1.527,35.248 0,31.109 0,25.517 L 0,0 l 9.039,0 0,25.506 c 0,1.115 0.083,2.208 0.289,3.271 0.175,1.074 0.578,2.023 1.207,2.859 0.609,0.815 1.434,1.485 2.528,2 1.094,0.518 2.569,0.776 4.406,0.776 3.199,0 5.417,-0.713 6.656,-2.147 1.207,-1.433 1.836,-3.693 1.836,-6.759 L 25.961,0 35,0 35,25.517 c 0,5.551 -1.558,9.678 -4.664,12.393 z"
               transform="translate(340.789,120.39)"
               id="path25" />
            <path
               inkscape:connector-curvature="0"
               style="fill:#000000;fill-rule:nonzero;stroke:none"
               d="m 7.769,0.804 0,4.139 0.176,0 C 8.987,3.218 10.339,1.96 11.979,1.175 13.62,0.392 15.312,0 17.046,0 c 2.187,0 3.961,0.289 5.376,0.886 1.382,0.6 2.476,1.424 3.281,2.477 0.804,1.053 1.383,2.344 1.702,3.849 0.341,1.516 0.485,3.2 0.485,5.026 l 0,18.293 -8.172,0 0,-16.787 c 0,-2.455 -0.372,-4.282 -1.156,-5.491 -0.743,-1.207 -2.095,-1.814 -4.055,-1.814 -2.218,0 -3.828,0.67 -4.829,1.99 -0.98,1.311 -1.496,3.498 -1.496,6.522 l 0,15.58 -8.182,0 0,-29.727 7.769,0 z"
               transform="translate(382.661,130.894)"
               id="path27" />
            <path
               inkscape:connector-curvature="0"
               style="fill:#000000;fill-rule:nonzero;stroke:none"
               d="m 8.172,11.318 0,29.717 -8.172,0 0,-29.717 8.172,0 z M 0,6.726 0,0 l 8.172,0 0,6.726 -8.172,0 z"
               transform="translate(416.969,120.39)"
               id="path29" />
            <path
               inkscape:connector-curvature="0"
               style="fill:#000000;fill-rule:nonzero;stroke:none"
               d="m 8.523,19.171 c 0.226,1.125 0.628,2.147 1.175,3.055 0.547,0.897 1.301,1.609 2.188,2.145 0.898,0.537 2.021,0.806 3.373,0.806 1.322,0 2.445,-0.259 3.365,-0.775 0.887,-0.516 1.609,-1.207 2.156,-2.063 0.578,-0.867 0.981,-1.869 1.207,-2.992 0.258,-1.137 0.381,-2.312 0.381,-3.539 0,-1.146 -0.123,-2.303 -0.381,-3.447 C 21.761,11.216 21.358,10.173 20.812,9.255 20.296,8.347 19.573,7.593 18.685,7.015 17.757,6.439 16.694,6.16 15.425,6.16 c -1.352,0 -2.467,0.258 -3.395,0.804 -0.918,0.526 -1.662,1.248 -2.24,2.147 -0.576,0.908 -0.978,1.92 -1.236,3.055 -0.229,1.125 -0.373,2.31 -0.373,3.527 0,1.187 0.113,2.344 0.342,3.478 z m 13.556,21.75 0,-14.134 -0.113,0 c -0.949,1.619 -2.311,2.763 -4.033,3.455 -1.725,0.691 -3.479,1.033 -5.325,1.033 -1.382,0 -2.818,-0.258 -4.283,-0.773 C 6.851,29.984 5.499,29.119 4.261,27.91 3.023,26.714 2.021,25.115 1.216,23.144 0.402,21.173 0,18.748 0,15.869 0,13.837 0.289,11.855 0.814,9.947 1.361,8.027 2.166,6.335 3.28,4.849 4.405,3.375 5.788,2.197 7.46,1.32 9.13,0.433 11.081,0 13.36,0 c 1.838,0 3.561,0.351 5.18,1.062 1.641,0.713 2.9,1.889 3.828,3.539 l 0.115,0 0,-3.797 7.77,0 0,40.117 -8.174,0 z"
               transform="translate(430.29,130.894)"
               id="path31" />
            <path
               inkscape:connector-curvature="0"
               style="fill:#000000;fill-rule:nonzero;stroke:none"
               d="m 20.119,29.686 0,-4.137 -0.174,0 c -1.043,1.733 -2.363,2.971 -4.035,3.744 -1.641,0.776 -3.303,1.147 -5.035,1.147 -2.188,0 -3.973,-0.279 -5.377,-0.857 C 4.086,29.004 2.992,28.19 2.187,27.137 1.383,26.096 0.836,24.805 0.484,23.29 0.174,21.782 0,20.1 0,18.264 L 0,0 l 8.172,0 0,16.758 c 0,2.455 0.402,4.282 1.154,5.489 0.775,1.207 2.127,1.806 4.088,1.806 2.207,0 3.826,-0.662 4.797,-1.97 1.012,-1.333 1.496,-3.499 1.496,-6.522 l 0,-15.561 8.184,0 0,29.686 -7.772,0 z"
               transform="translate(466.672,131.729)"
               id="path33" />
            <path
               inkscape:connector-curvature="0"
               style="fill:#000000;fill-rule:nonzero;stroke:none"
               d="M 19.418,7.769 C 18.449,6.697 16.953,6.16 14.962,6.16 13.671,6.16 12.578,6.377 11.711,6.82 10.843,7.253 10.152,7.8 9.636,8.46 9.121,9.111 8.769,9.802 8.543,10.535 8.347,11.257 8.222,11.908 8.171,12.484 l 13.301,0 C 21.058,10.412 20.398,8.843 19.418,7.769 z m -9.235,15.633 c 1.238,1.185 2.992,1.775 5.293,1.775 1.641,0 3.055,-0.414 4.262,-1.228 1.187,-0.826 1.898,-1.682 2.187,-2.6 l 7.172,0 c -1.156,3.559 -2.91,6.108 -5.304,7.635 -2.352,1.537 -5.231,2.291 -8.606,2.291 -2.32,0 -4.457,-0.371 -6.324,-1.115 C 6.996,29.408 5.406,28.343 4.086,26.972 2.785,25.589 1.785,23.939 1.062,22.019 0.371,20.111 0,17.996 0,15.693 0,13.476 0.371,11.402 1.093,9.482 1.836,7.562 2.879,5.912 4.199,4.509 5.55,3.117 7.16,2.011 9.007,1.207 10.875,0.402 12.918,0 15.187,0 c 2.539,0 4.727,0.484 6.625,1.464 1.867,0.981 3.395,2.291 4.602,3.942 1.207,1.652 2.105,3.529 2.621,5.644 0.547,2.106 0.722,4.313 0.578,6.616 l -21.442,0 c 0.114,2.64 0.805,4.548 2.012,5.736 z"
               transform="translate(499.309,130.894)"
               id="path35" />
            <path
               inkscape:connector-curvature="0"
               style="fill:#000000;fill-rule:nonzero;stroke:none"
               d="m 18.336,24.373 c 0.887,-0.527 1.641,-1.238 2.187,-2.095 0.547,-0.856 0.95,-1.868 1.176,-3.024 0.228,-1.144 0.351,-2.31 0.351,-3.498 0,-1.185 -0.145,-2.351 -0.382,-3.508 C 21.41,11.104 21.008,10.082 20.431,9.174 19.862,8.276 19.109,7.543 18.222,6.996 17.324,6.44 16.23,6.16 14.94,6.16 13.589,6.16 12.465,6.44 11.566,6.996 10.68,7.543 9.958,8.266 9.41,9.143 8.833,10.03 8.461,11.041 8.234,12.198 8.007,13.342 7.883,14.53 7.883,15.756 c 0,1.188 0.124,2.354 0.382,3.498 0.227,1.156 0.63,2.168 1.208,3.024 0.547,0.857 1.258,1.568 2.187,2.095 0.918,0.547 2.043,0.805 3.332,0.805 1.331,0 2.445,-0.258 3.344,-0.805 z M 7.77,0.817 l 0,3.787 0.113,0 C 8.863,2.992 10.133,1.817 11.66,1.094 13.208,0.362 14.879,0 16.726,0 c 2.332,0 4.344,0.434 6.015,1.323 1.693,0.876 3.075,2.052 4.2,3.507 1.124,1.455 1.93,3.157 2.476,5.086 0.517,1.942 0.806,3.963 0.806,6.069 0,1.99 -0.289,3.91 -0.806,5.746 -0.546,1.847 -1.352,3.467 -2.445,4.902 -1.094,1.414 -2.455,2.537 -4.086,3.385 -1.62,0.846 -3.519,1.267 -5.706,1.267 -1.836,0 -3.539,-0.38 -5.087,-1.123 C 10.566,29.408 9.266,28.315 8.285,26.85 l -0.113,0 0,14.074 -8.172,0 0,-40.107 7.77,0 z"
               transform="translate(287.98,197.198)"
               id="path37" />
            <path
               inkscape:connector-curvature="0"
               style="fill:#000000;fill-rule:nonzero;stroke:none"
               d="m 8.173,11.321 0,29.716 -8.173,0 0,-29.716 8.173,0 z M 0,6.729 0,0 l 8.173,0 0,6.729 -8.173,0 z"
               transform="translate(323.32,186.694)"
               id="path39" />
            <path
               inkscape:connector-curvature="0"
               style="fill:#000000;fill-rule:nonzero;stroke:none"
               d="m 15.106,6.16 c -1.29,0 -2.384,0.289 -3.251,0.889 -0.887,0.588 -1.609,1.361 -2.156,2.301 -0.578,0.939 -0.949,1.971 -1.176,3.105 -0.237,1.125 -0.351,2.25 -0.351,3.354 0,1.072 0.114,2.166 0.351,3.281 0.227,1.113 0.598,2.115 1.114,3.024 0.527,0.896 1.218,1.63 2.105,2.207 0.867,0.568 1.93,0.857 3.199,0.857 1.95,0 3.477,-0.547 4.52,-1.641 1.062,-1.084 1.722,-2.548 1.98,-4.396 l 7.884,0 c -0.547,3.953 -2.074,6.965 -4.603,9.029 -2.538,2.074 -5.757,3.115 -9.73,3.115 -2.218,0 -4.261,-0.38 -6.098,-1.123 C 7.027,29.408 5.437,28.365 4.148,27.035 2.817,25.684 1.816,24.084 1.093,22.227 0.35,20.369 0,18.326 0,16.098 0,13.797 0.321,11.66 1.011,9.69 1.672,7.709 2.652,6.006 3.972,4.573 5.262,3.137 6.851,2.014 8.75,1.209 10.618,0.403 12.774,0 15.168,0 c 1.785,0 3.477,0.229 5.097,0.692 1.641,0.455 3.075,1.156 4.375,2.095 1.259,0.928 2.322,2.106 3.137,3.498 0.805,1.403 1.259,3.053 1.372,4.963 l -7.997,0 C 20.605,7.854 18.625,6.16 15.106,6.16 z"
               transform="translate(336.992,197.198)"
               id="path41" />
            <path
               inkscape:connector-curvature="0"
               style="fill:#000000;fill-rule:nonzero;stroke:none"
               d="m 19.079,8.893 0,5.469 -5.954,0 0,14.715 c 0,1.382 0.227,2.291 0.692,2.755 0.454,0.463 1.383,0.69 2.755,0.69 0.464,0 0.897,-0.02 1.299,-0.061 0.435,-0.031 0.836,-0.093 1.208,-0.166 l 0,6.326 c -0.691,0.114 -1.434,0.196 -2.27,0.227 -0.866,0.041 -1.672,0.063 -2.477,0.063 -1.268,0 -2.476,-0.084 -3.6,-0.258 C 9.586,38.477 8.606,38.135 7.74,37.641 6.883,37.145 6.192,36.434 5.697,35.526 5.181,34.596 4.953,33.389 4.953,31.893 l 0,-17.531 -4.953,0 0,-5.469 4.953,0 0,-8.893 8.172,0 0,8.893 5.954,0 z"
               transform="translate(368.132,189.11)"
               id="path43" />
            <path
               inkscape:connector-curvature="0"
               style="fill:#000000;fill-rule:nonzero;stroke:none"
               d="m 8.522,19.172 c 0.228,1.135 0.599,2.147 1.177,3.055 0.547,0.898 1.268,1.619 2.187,2.146 0.918,0.547 2.074,0.805 3.456,0.805 1.383,0 2.529,-0.258 3.447,-0.805 0.96,-0.527 1.703,-1.248 2.25,-2.146 0.547,-0.908 0.949,-1.92 1.175,-3.055 0.238,-1.125 0.351,-2.291 0.351,-3.476 0,-1.188 -0.113,-2.354 -0.351,-3.498 C 21.988,11.041 21.586,10.03 21.039,9.143 20.492,8.266 19.749,7.543 18.789,6.996 17.871,6.44 16.725,6.16 15.342,6.16 c -1.382,0 -2.538,0.28 -3.456,0.836 -0.919,0.547 -1.64,1.27 -2.187,2.147 -0.578,0.887 -0.949,1.898 -1.177,3.055 -0.237,1.144 -0.351,2.31 -0.351,3.498 0,1.185 0.114,2.351 0.351,3.476 z M 1.093,9.225 C 1.815,7.295 2.847,5.645 4.178,4.283 5.53,2.92 7.139,1.869 9.007,1.125 10.875,0.373 13.01,0 15.342,0 c 2.332,0 4.427,0.373 6.326,1.125 1.898,0.744 3.518,1.795 4.87,3.158 1.351,1.362 2.383,3.012 3.106,4.942 0.722,1.941 1.094,4.098 1.094,6.471 0,2.373 -0.372,4.529 -1.094,6.437 -0.723,1.93 -1.755,3.561 -3.106,4.922 -1.352,1.363 -2.972,2.404 -4.87,3.137 -1.899,0.722 -3.994,1.093 -6.326,1.093 -2.332,0 -4.467,-0.371 -6.335,-1.093 C 7.139,29.459 5.53,28.418 4.178,27.055 2.847,25.694 1.815,24.063 1.093,22.133 0.35,20.225 0,18.069 0,15.696 0,13.323 0.35,11.166 1.093,9.225 z"
               transform="translate(390.204,197.198)"
               id="path45" />
            <path
               inkscape:connector-curvature="0"
               style="fill:#000000;fill-rule:nonzero;stroke:none"
               d="m 17.808,22.824 c 0.898,-0.462 1.619,-1.072 2.188,-1.835 0.578,-0.774 1.011,-1.641 1.3,-2.622 0.289,-0.98 0.432,-2.002 0.432,-3.074 0,-1.228 -0.113,-2.385 -0.35,-3.478 C 21.152,10.733 20.749,9.762 20.232,8.916 19.685,8.071 18.994,7.399 18.097,6.905 17.21,6.408 16.117,6.16 14.763,6.16 c -1.154,0 -2.135,0.229 -2.971,0.692 -0.804,0.455 -1.496,1.074 -2.043,1.857 -0.568,0.795 -0.97,1.694 -1.207,2.703 -0.257,1.022 -0.371,2.086 -0.371,3.19 0,1.072 0.082,2.135 0.319,3.187 0.197,1.063 0.578,2.012 1.093,2.848 0.518,0.848 1.178,1.537 2.014,2.064 0.865,0.547 1.899,0.815 3.166,0.815 1.147,0 2.158,-0.236 3.045,-0.692 z m 11.195,9.907 c -0.34,1.527 -1.031,2.961 -2.093,4.281 -1.094,1.322 -2.653,2.445 -4.664,3.365 -2.043,0.918 -4.749,1.371 -8.172,1.371 -1.446,0 -2.942,-0.175 -4.469,-0.535 C 8.109,40.84 6.736,40.283 5.498,39.51 4.23,38.746 3.197,37.756 2.383,36.549 1.557,35.342 1.094,33.897 0.978,32.205 l 8.09,0 c 0.402,1.526 1.146,2.6 2.24,3.198 1.125,0.587 2.393,0.888 3.857,0.888 2.303,0 3.973,-0.691 5.038,-2.074 1.031,-1.383 1.556,-3.127 1.525,-5.232 l 0,-3.92 -0.113,0 c -0.897,1.578 -2.135,2.734 -3.776,3.486 -1.64,0.744 -3.334,1.115 -5.148,1.115 -2.219,0 -4.149,-0.392 -5.758,-1.176 C 5.324,27.705 4.023,26.633 2.992,25.27 1.959,23.908 1.176,22.319 0.721,20.492 0.226,18.678 0,16.748 0,14.725 0,12.807 0.258,10.959 0.834,9.174 1.381,7.389 2.187,5.821 3.281,4.448 4.344,3.096 5.664,2.014 7.252,1.209 8.863,0.403 10.677,0 12.751,0 c 1.952,0 3.684,0.362 5.149,1.094 1.467,0.723 2.705,1.961 3.715,3.684 l 0.113,0 0,-3.961 7.771,0 0,27.828 c 0,1.185 -0.175,2.549 -0.496,4.086 z"
               transform="translate(425.317,197.198)"
               id="path47" />
            <path
               inkscape:connector-curvature="0"
               style="fill:#000000;fill-rule:nonzero;stroke:none"
               d="m 7.769,0.817 0,5.509 0.113,0 C 8.254,5.408 8.779,4.551 9.441,3.768 10.07,2.983 10.822,2.313 11.679,1.756 12.515,1.198 13.414,0.764 14.363,0.455 15.341,0.156 16.312,0 17.355,0 17.902,0 18.5,0.094 19.14,0.289 l 0,7.596 C 18.757,7.801 18.304,7.74 17.757,7.688 17.24,7.627 16.715,7.596 16.199,7.596 c -1.496,0 -2.766,0.258 -3.766,0.752 -1.043,0.496 -1.869,1.178 -2.508,2.043 -0.628,0.857 -1.093,1.857 -1.351,3.014 -0.289,1.144 -0.402,2.394 -0.402,3.734 l 0,13.394 -8.172,0 0,-29.716 7.769,0 z"
               transform="translate(461.348,197.198)"
               id="path49" />
            <path
               inkscape:connector-curvature="0"
               style="fill:#000000;fill-rule:nonzero;stroke:none"
               d="m 18.471,16.707 c -0.516,0.174 -1.063,0.319 -1.672,0.432 -0.567,0.115 -1.207,0.207 -1.836,0.289 -0.66,0.072 -1.32,0.166 -1.961,0.289 -0.598,0.113 -1.207,0.258 -1.807,0.455 -0.607,0.186 -1.123,0.443 -1.556,0.774 -0.434,0.33 -0.774,0.742 -1.063,1.238 -0.258,0.494 -0.402,1.125 -0.402,1.898 0,0.723 0.144,1.342 0.402,1.836 0.289,0.496 0.629,0.889 1.094,1.178 0.453,0.287 1,0.484 1.609,0.607 0.598,0.114 1.239,0.166 1.899,0.166 1.609,0 2.847,-0.269 3.715,-0.804 0.886,-0.528 1.546,-1.178 1.949,-1.92 0.433,-0.742 0.691,-1.506 0.785,-2.27 0.113,-0.763 0.145,-1.383 0.145,-1.847 l 0,-3.043 c -0.352,0.308 -0.786,0.546 -1.301,0.722 z M 2.354,5.17 C 3.189,3.901 4.283,2.891 5.584,2.127 6.873,1.364 8.338,0.817 9.979,0.487 11.619,0.166 13.24,0 14.9,0 c 1.497,0 2.993,0.104 4.551,0.321 1.528,0.207 2.91,0.619 4.168,1.228 1.27,0.619 2.313,1.475 3.117,2.559 0.805,1.093 1.207,2.548 1.207,4.343 l 0,15.467 c 0,1.342 0.082,2.631 0.227,3.85 0.176,1.238 0.434,2.156 0.805,2.765 l -8.286,0 c -0.144,-0.455 -0.257,-0.929 -0.371,-1.414 -0.093,-0.474 -0.144,-0.97 -0.207,-1.464 -1.289,1.351 -2.816,2.279 -4.601,2.826 -1.754,0.537 -3.539,0.804 -5.387,0.804 C 8.689,31.285 7.389,31.112 6.15,30.76 4.922,30.42 3.85,29.883 2.932,29.151 2.014,28.428 1.291,27.51 0.775,26.395 0.26,25.281 0,23.971 0,22.422 0,20.74 0.311,19.358 0.889,18.264 c 0.607,-1.094 1.351,-1.971 2.3,-2.621 0.95,-0.649 2.012,-1.135 3.229,-1.465 1.209,-0.33 2.416,-0.588 3.654,-0.773 1.207,-0.196 2.414,-0.352 3.621,-0.465 1.188,-0.114 2.219,-0.289 3.137,-0.516 0.918,-0.226 1.672,-0.566 2.188,-1.012 0.546,-0.433 0.804,-1.072 0.754,-1.918 0,-0.877 -0.145,-1.58 -0.434,-2.095 C 19.049,6.873 18.678,6.471 18.182,6.192 17.729,5.903 17.15,5.707 16.541,5.614 15.912,5.522 15.221,5.469 14.498,5.469 c -1.609,0 -2.879,0.342 -3.797,1.033 -0.918,0.68 -1.433,1.826 -1.609,3.426 l -8.172,0 C 1.033,8.018 1.518,6.43 2.354,5.17 z"
               transform="translate(482.416,197.198)"
               id="path51" />
            <path
               inkscape:connector-curvature="0"
               style="fill:#000000;fill-rule:nonzero;stroke:none"
               d="m 18.357,24.373 c 0.897,-0.527 1.608,-1.238 2.155,-2.095 0.578,-0.856 0.949,-1.868 1.187,-3.024 0.227,-1.144 0.34,-2.31 0.34,-3.498 0,-1.185 -0.113,-2.351 -0.371,-3.508 C 21.441,11.104 21.008,10.082 20.43,9.174 19.883,8.276 19.129,7.543 18.242,6.996 17.357,6.44 16.232,6.16 14.93,6.16 c -1.321,0 -2.446,0.28 -3.332,0.836 -0.899,0.547 -1.641,1.27 -2.188,2.147 -0.547,0.887 -0.949,1.898 -1.187,3.055 -0.227,1.144 -0.34,2.332 -0.34,3.558 0,1.188 0.144,2.354 0.371,3.498 0.258,1.156 0.66,2.168 1.207,3.024 0.547,0.857 1.301,1.568 2.219,2.095 0.918,0.547 2.011,0.805 3.312,0.805 1.352,0 2.477,-0.258 3.365,-0.805 z M 7.77,0.817 l 0,3.787 0.113,0 C 8.895,2.992 10.152,1.817 11.68,1.094 13.207,0.362 14.899,0 16.715,0 c 2.363,0 4.344,0.434 6.047,1.323 1.672,0.876 3.074,2.052 4.199,3.507 1.094,1.455 1.93,3.157 2.445,5.086 0.547,1.942 0.805,3.963 0.805,6.069 0,1.99 -0.258,3.91 -0.805,5.746 -0.515,1.847 -1.351,3.467 -2.414,4.902 -1.093,1.414 -2.476,2.537 -4.086,3.385 -1.64,0.846 -3.539,1.267 -5.726,1.267 -1.817,0 -3.52,-0.38 -5.067,-1.123 C 10.555,29.408 9.297,28.315 8.285,26.85 l -0.113,0 0,14.074 -8.172,0 0,-40.107 7.77,0 z"
               transform="translate(516.664,197.198)"
               id="path53" />
            <path
               inkscape:connector-curvature="0"
               style="fill:#000000;fill-rule:nonzero;stroke:none"
               d="m 8.183,0 0,15.457 0.164,0 c 1.043,-1.732 2.364,-2.992 3.973,-3.775 1.609,-0.785 3.199,-1.178 4.727,-1.178 2.187,0 3.96,0.289 5.375,0.889 1.382,0.598 2.476,1.424 3.281,2.476 0.804,1.053 1.383,2.342 1.703,3.848 0.34,1.518 0.484,3.199 0.484,5.035 l 0,18.285 -8.172,0 0,-16.789 c 0,-2.445 -0.371,-4.281 -1.156,-5.488 -0.742,-1.207 -2.094,-1.807 -4.055,-1.807 -2.218,0 -3.828,0.661 -4.828,1.983 -0.98,1.32 -1.496,3.498 -1.496,6.531 l 0,15.57 L 0,41.037 0,0 8.183,0 z"
               transform="translate(551.766,186.694)"
               id="path55" />
            <path
               inkscape:connector-curvature="0"
               style="fill:#000000;fill-rule:nonzero;stroke:none"
               d="m 18.48,16.727 c -0.516,0.176 -1.063,0.32 -1.672,0.433 -0.598,0.114 -1.207,0.196 -1.868,0.289 -0.639,0.051 -1.299,0.164 -1.96,0.28 -0.598,0.123 -1.207,0.267 -1.816,0.463 -0.567,0.175 -1.094,0.433 -1.517,0.763 -0.464,0.33 -0.804,0.733 -1.073,1.24 -0.278,0.504 -0.402,1.133 -0.402,1.897 0,0.732 0.124,1.342 0.402,1.826 0.269,0.518 0.64,0.899 1.094,1.178 0.465,0.289 0.98,0.494 1.589,0.607 0.63,0.114 1.269,0.176 1.899,0.176 1.61,0 2.848,-0.258 3.745,-0.805 0.888,-0.525 1.517,-1.185 1.95,-1.92 0.403,-0.742 0.661,-1.505 0.774,-2.269 0.094,-0.764 0.144,-1.383 0.144,-1.846 l 0,-3.035 c -0.339,0.301 -0.773,0.547 -1.289,0.723 z M 2.363,5.182 C 3.198,3.922 4.262,2.91 5.582,2.137 6.882,1.373 8.348,0.826 9.957,0.496 11.598,0.176 13.238,0 14.879,0 c 1.496,0 3.023,0.115 4.551,0.32 1.526,0.217 2.929,0.629 4.199,1.239 1.269,0.619 2.301,1.465 3.105,2.558 0.805,1.094 1.218,2.549 1.218,4.344 l 0,15.479 c 0,1.33 0.052,2.63 0.228,3.838 0.143,1.238 0.402,2.156 0.804,2.765 l -8.286,0 c -0.175,-0.465 -0.289,-0.928 -0.382,-1.414 -0.112,-0.475 -0.165,-0.959 -0.195,-1.465 -1.321,1.352 -2.849,2.281 -4.603,2.817 -1.764,0.547 -3.57,0.804 -5.417,0.804 -1.403,0 -2.734,-0.174 -3.972,-0.515 C 4.922,30.42 3.859,29.903 2.94,29.16 2.022,28.438 1.3,27.52 0.784,26.406 0.258,25.301 0,23.981 0,22.434 0,20.752 0.289,19.369 0.897,18.276 1.475,17.182 2.249,16.305 3.198,15.664 4.117,14.994 5.18,14.508 6.387,14.19 7.604,13.858 8.843,13.6 10.05,13.414 c 1.238,-0.195 2.445,-0.34 3.622,-0.463 1.176,-0.115 2.249,-0.279 3.168,-0.517 0.918,-0.227 1.64,-0.576 2.187,-1 0.516,-0.434 0.774,-1.084 0.742,-1.93 0,-0.877 -0.144,-1.59 -0.422,-2.105 C 19.058,6.883 18.676,6.481 18.191,6.192 17.706,5.903 17.159,5.717 16.519,5.613 15.891,5.531 15.199,5.469 14.476,5.469 12.867,5.469 11.598,5.82 10.71,6.512 9.792,7.203 9.245,8.338 9.1,9.938 l -8.171,0 C 1.042,8.039 1.496,6.44 2.363,5.182 z"
               transform="translate(252.609,263.493)"
               id="path57" />
            <path
               inkscape:connector-curvature="0"
               style="fill:#000000;fill-rule:nonzero;stroke:none"
               d="m 7.77,0.826 0,4.127 0.175,0 C 8.987,3.231 10.309,1.973 11.979,1.188 13.62,0.403 15.281,0 17.016,0 c 2.187,0 3.971,0.311 5.375,0.899 1.414,0.597 2.507,1.423 3.312,2.476 0.805,1.063 1.352,2.342 1.702,3.85 0.31,1.525 0.486,3.197 0.486,5.045 l 0,18.273 -8.172,0 0,-16.777 c 0,-2.455 -0.403,-4.293 -1.157,-5.5 -0.773,-1.207 -2.125,-1.817 -4.085,-1.817 -2.208,0 -3.829,0.661 -4.798,1.993 -1.011,1.32 -1.506,3.507 -1.506,6.531 l 0,15.57 -8.173,0 0,-29.717 7.77,0 z"
               transform="translate(286.855,263.493)"
               id="path59" />
            <path
               inkscape:connector-curvature="0"
               style="fill:#000000;fill-rule:nonzero;stroke:none"
               d="m 22.021,22.567 c -0.238,-1.125 -0.641,-2.125 -1.188,-2.993 -0.546,-0.867 -1.258,-1.558 -2.157,-2.105 -0.886,-0.525 -1.98,-0.805 -3.332,-0.805 -1.331,0 -2.476,0.28 -3.405,0.805 -0.888,0.547 -1.641,1.26 -2.178,2.137 -0.577,0.886 -0.979,1.898 -1.217,3.023 -0.258,1.115 -0.372,2.301 -0.372,3.539 0,1.145 0.114,2.301 0.403,3.436 0.258,1.156 0.691,2.178 1.3,3.076 0.568,0.906 1.321,1.629 2.208,2.176 0.929,0.558 1.992,0.836 3.261,0.836 1.352,0 2.466,-0.258 3.364,-0.805 0.887,-0.516 1.609,-1.238 2.156,-2.147 0.516,-0.908 0.919,-1.929 1.157,-3.074 0.226,-1.144 0.339,-2.353 0.339,-3.56 0,-1.239 -0.113,-2.414 -0.339,-3.539 z M 22.36,37.26 c -0.98,1.609 -2.218,2.775 -3.766,3.467 -1.558,0.722 -3.312,1.062 -5.272,1.062 -2.208,0 -4.169,-0.431 -5.871,-1.289 C 5.789,39.633 4.407,38.479 3.313,37.002 2.219,35.516 1.383,33.824 0.836,31.905 0.258,29.996 0,28.004 0,25.93 c 0,-2 0.258,-3.92 0.836,-5.777 0.547,-1.877 1.383,-3.498 2.477,-4.922 1.094,-1.414 2.445,-2.559 4.086,-3.426 1.671,-0.867 3.57,-1.301 5.758,-1.301 1.754,0 3.446,0.383 5.035,1.125 1.579,0.754 2.848,1.858 3.766,3.313 l 0.114,0 0,-14.942 8.172,0 0,41.047 -7.77,0 0,-3.787 -0.114,0 z"
               transform="translate(319.667,252.989)"
               id="path61" />
            <path
               inkscape:connector-curvature="0"
               style="fill:#000000;fill-rule:nonzero;stroke:none"
               d="M 22.535,0 6.479,42.943 0,42.943 15.973,0 22.535,0 z"
               transform="translate(352.356,252.011)"
               id="path63" />
            <path
               inkscape:connector-curvature="0"
               style="fill:#000000;fill-rule:nonzero;stroke:none"
               d="m 8.523,19.182 c 0.227,1.138 0.599,2.146 1.176,3.054 0.547,0.909 1.269,1.631 2.187,2.147 0.919,0.547 2.075,0.805 3.457,0.805 1.373,0 2.529,-0.258 3.447,-0.805 0.949,-0.516 1.702,-1.238 2.249,-2.147 0.547,-0.908 0.95,-1.916 1.177,-3.054 0.226,-1.135 0.35,-2.279 0.35,-3.467 0,-1.195 -0.124,-2.352 -0.35,-3.508 C 21.989,11.053 21.586,10.051 21.039,9.153 20.492,8.276 19.739,7.555 18.79,6.996 17.872,6.449 16.716,6.16 15.343,6.16 c -1.382,0 -2.538,0.289 -3.457,0.836 -0.918,0.559 -1.64,1.28 -2.187,2.157 -0.577,0.898 -0.949,1.9 -1.176,3.054 -0.237,1.156 -0.35,2.313 -0.35,3.508 0,1.188 0.113,2.332 0.35,3.467 z M 1.093,9.246 C 1.816,7.317 2.848,5.656 4.169,4.293 5.52,2.942 7.14,1.879 9.008,1.125 10.876,0.383 13.011,0 15.343,0 c 2.322,0 4.427,0.383 6.326,1.125 1.898,0.754 3.507,1.817 4.87,3.168 1.351,1.363 2.384,3.024 3.105,4.953 0.723,1.93 1.095,4.086 1.095,6.469 0,2.363 -0.372,4.52 -1.095,6.439 -0.721,1.909 -1.754,3.549 -3.105,4.922 -1.363,1.362 -2.972,2.395 -4.87,3.116 -1.899,0.734 -4.004,1.093 -6.326,1.093 -2.332,0 -4.467,-0.359 -6.335,-1.093 C 7.14,29.471 5.52,28.438 4.169,27.076 2.848,25.703 1.816,24.063 1.093,22.154 0.341,20.235 0,18.078 0,15.715 0,13.332 0.341,11.176 1.093,9.246 z"
               transform="translate(376.449,263.493)"
               id="path65" />
            <path
               inkscape:connector-curvature="0"
               style="fill:#000000;fill-rule:nonzero;stroke:none"
               d="m 7.769,0.826 0,5.51 0.114,0 C 8.254,5.418 8.78,4.563 9.44,3.778 10.07,2.994 10.823,2.322 11.68,1.756 12.516,1.209 13.412,0.785 14.361,0.465 15.342,0.166 16.312,0 17.353,0 17.9,0 18.5,0.104 19.139,0.289 l 0,7.606 C 18.758,7.822 18.305,7.75 17.758,7.688 17.24,7.627 16.715,7.606 16.199,7.606 c -1.496,0 -2.765,0.257 -3.765,0.742 -1.043,0.506 -1.869,1.187 -2.508,2.043 -0.63,0.867 -1.094,1.879 -1.352,3.023 -0.289,1.156 -0.402,2.395 -0.402,3.746 l 0,13.383 -8.172,0 0,-29.717 7.769,0 z"
               transform="translate(412.481,263.493)"
               id="path67" />
            <path
               inkscape:connector-curvature="0"
               style="fill:#000000;fill-rule:nonzero;stroke:none"
               d="m 28.346,29.707 -5.295,-19.935 -0.113,0 -5.067,19.935 -8.439,0 L 0,0 l 8.627,0 5.438,20.174 0.123,0 L 19.131,0 l 7.946,0 5.066,20.121 0.113,0 L 37.694,0 l 8.41,0 -9.391,29.707 -8.367,0 z"
               transform="translate(448.025,264.329)"
               id="path69" />
            <path
               inkscape:connector-curvature="0"
               style="fill:#000000;fill-rule:nonzero;stroke:none"
               d="m 8.524,19.182 c 0.226,1.138 0.597,2.146 1.175,3.054 0.547,0.909 1.27,1.631 2.188,2.147 0.918,0.547 2.074,0.805 3.457,0.805 1.383,0 2.527,-0.258 3.457,-0.805 0.949,-0.516 1.691,-1.238 2.238,-2.147 0.547,-0.908 0.951,-1.916 1.176,-3.054 0.238,-1.135 0.352,-2.279 0.352,-3.467 0,-1.195 -0.114,-2.352 -0.352,-3.508 C 21.99,11.053 21.586,10.051 21.039,9.153 20.492,8.276 19.75,7.555 18.801,6.996 17.871,6.449 16.727,6.16 15.344,6.16 c -1.383,0 -2.539,0.289 -3.457,0.836 -0.918,0.559 -1.641,1.28 -2.188,2.157 -0.578,0.898 -0.949,1.9 -1.175,3.054 -0.239,1.156 -0.352,2.313 -0.352,3.508 0,1.188 0.113,2.332 0.352,3.467 z M 1.094,9.246 C 1.817,7.317 2.848,5.656 4.18,4.293 5.532,2.942 7.141,1.879 9.008,1.125 10.875,0.383 13.012,0 15.344,0 c 2.332,0 4.426,0.383 6.324,1.125 1.91,0.754 3.52,1.817 4.871,3.168 1.352,1.363 2.383,3.024 3.106,4.953 0.722,1.93 1.095,4.086 1.095,6.469 0,2.363 -0.373,4.52 -1.095,6.439 -0.723,1.909 -1.754,3.549 -3.106,4.922 -1.351,1.362 -2.961,2.395 -4.871,3.116 -1.898,0.734 -3.992,1.093 -6.324,1.093 -2.332,0 -4.469,-0.359 -6.336,-1.093 C 7.141,29.471 5.532,28.438 4.18,27.076 2.848,25.703 1.817,24.063 1.094,22.154 0.352,20.235 0,18.078 0,15.715 0,13.332 0.352,11.176 1.094,9.246 z"
               transform="translate(496.656,263.493)"
               id="path71" />
            <path
               inkscape:connector-curvature="0"
               style="fill:#000000;fill-rule:nonzero;stroke:none"
               d="m 7.769,0.826 0,5.51 0.113,0 C 8.265,5.418 8.781,4.563 9.441,3.778 10.07,2.994 10.824,2.322 11.691,1.756 12.515,1.209 13.414,0.785 14.363,0.465 15.343,0.166 16.324,0 17.355,0 c 0.547,0 1.156,0.104 1.785,0.289 l 0,7.606 C 18.769,7.822 18.304,7.75 17.757,7.688 17.242,7.627 16.726,7.606 16.199,7.606 14.703,7.606 13.445,7.863 12.433,8.348 11.402,8.854 10.566,9.535 9.925,10.391 9.296,11.258 8.833,12.27 8.574,13.414 8.285,14.57 8.171,15.809 8.171,17.16 l 0,13.383 -8.171,0 0,-29.717 7.769,0 z"
               transform="translate(532.688,263.493)"
               id="path73" />
            <path
               inkscape:connector-curvature="0"
               style="fill:#000000;fill-rule:nonzero;stroke:none"
               d="m 22.019,22.567 c -0.226,-1.125 -0.597,-2.125 -1.175,-2.993 -0.547,-0.867 -1.27,-1.558 -2.137,-2.105 -0.887,-0.525 -2.012,-0.805 -3.332,-0.805 -1.352,0 -2.477,0.28 -3.395,0.805 -0.929,0.547 -1.672,1.26 -2.218,2.137 -0.547,0.886 -0.95,1.898 -1.206,3.023 -0.228,1.115 -0.373,2.301 -0.373,3.539 0,1.145 0.145,2.301 0.403,3.436 0.289,1.156 0.691,2.178 1.289,3.076 0.609,0.906 1.351,1.629 2.25,2.176 0.887,0.558 1.98,0.836 3.25,0.836 1.32,0 2.445,-0.258 3.332,-0.805 0.93,-0.516 1.641,-1.238 2.168,-2.147 0.547,-0.908 0.918,-1.929 1.144,-3.074 0.227,-1.144 0.352,-2.353 0.352,-3.56 0,-1.239 -0.125,-2.414 -0.352,-3.539 z m 0.352,14.693 c -0.949,1.609 -2.219,2.775 -3.777,3.467 -1.547,0.722 -3.282,1.062 -5.231,1.062 -2.25,0 -4.211,-0.431 -5.871,-1.289 C 5.789,39.633 4.406,38.479 3.312,37.002 2.219,35.516 1.414,33.824 0.836,31.905 0.289,29.996 0,28.004 0,25.93 c 0,-2 0.289,-3.92 0.836,-5.777 0.578,-1.877 1.383,-3.498 2.476,-4.922 1.094,-1.414 2.477,-2.559 4.119,-3.426 1.639,-0.867 3.569,-1.301 5.756,-1.301 1.754,0 3.426,0.383 5.004,1.125 1.61,0.754 2.848,1.858 3.778,3.313 l 0.113,0 0,-14.942 8.172,0 0,41.047 -7.77,0 0,-3.787 -0.113,0 z"
               transform="translate(552.715,252.989)"
               id="path75" />
            <path
               inkscape:connector-curvature="0"
               style="fill:#000000;fill-rule:nonzero;stroke:none"
               d="m 8.328,23.176 c 0.372,0.629 0.825,1.135 1.403,1.537 0.578,0.402 1.238,0.701 1.992,0.877 0.742,0.197 1.516,0.289 2.332,0.289 0.566,0 1.176,-0.062 1.805,-0.207 0.609,-0.123 1.187,-0.34 1.703,-0.629 0.515,-0.289 0.949,-0.66 1.289,-1.154 0.351,-0.455 0.527,-1.065 0.527,-1.797 0,-1.227 -0.816,-2.147 -2.457,-2.766 C 15.313,18.707 13.043,18.11 10.133,17.49 8.926,17.211 7.782,16.903 6.657,16.541 5.532,16.18 4.52,15.686 3.633,15.117 2.735,14.508 2.043,13.766 1.508,12.867 0.981,11.959 0.692,10.856 0.692,9.555 0.692,7.627 1.075,6.078 1.817,4.84 2.571,3.611 3.551,2.653 4.778,1.93 6.016,1.229 7.399,0.723 8.926,0.434 10.453,0.145 12.032,0 13.653,0 c 1.609,0 3.156,0.166 4.683,0.465 1.496,0.32 2.848,0.836 4.035,1.559 1.207,0.732 2.188,1.691 2.961,2.898 0.805,1.209 1.27,2.734 1.414,4.582 l -7.769,0 C 18.852,7.936 18.286,6.873 17.192,6.305 16.119,5.758 14.86,5.469 13.414,5.469 12.961,5.469 12.465,5.5 11.918,5.563 11.371,5.613 10.887,5.748 10.453,5.934 10.02,6.131 9.649,6.408 9.328,6.77 9.039,7.141 8.875,7.627 8.875,8.235 c 0,0.732 0.278,1.32 0.805,1.785 0.547,0.465 1.238,0.836 2.094,1.125 0.867,0.289 1.847,0.547 2.972,0.773 1.114,0.229 2.239,0.486 3.395,0.754 1.176,0.258 2.332,0.588 3.478,0.971 1.125,0.381 2.135,0.896 2.991,1.525 0.898,0.641 1.609,1.414 2.136,2.363 0.547,0.94 0.805,2.106 0.805,3.479 0,1.949 -0.383,3.59 -1.187,4.91 -0.774,1.32 -1.805,2.373 -3.075,3.178 -1.269,0.805 -2.703,1.383 -4.312,1.703 -1.641,0.33 -3.313,0.484 -4.983,0.484 -1.724,0 -3.427,-0.174 -5.068,-0.515 C 7.286,30.42 5.821,29.861 4.52,29.057 3.231,28.252 2.188,27.199 1.364,25.879 0.547,24.549 0.094,22.897 0,20.895 l 7.782,0 c 0,0.898 0.195,1.64 0.546,2.281 z"
               transform="translate(587.652,263.493)"
               id="path77" />
            <path
               inkscape:connector-curvature="0"
               style="fill:#000000;fill-rule:nonzero;stroke:none"
               d="m 0,16.787 0,-5.469 4.902,0 0,-2.291 C 4.902,6.396 5.706,4.219 7.367,2.537 9.008,0.855 11.515,0 14.859,0 c 0.711,0 1.433,0.031 2.187,0.092 0.712,0.052 1.403,0.113 2.095,0.144 l 0,6.098 C 18.192,6.221 17.211,6.16 16.179,6.16 c -1.125,0 -1.93,0.258 -2.394,0.783 -0.485,0.516 -0.712,1.383 -0.712,2.6 l 0,1.775 5.614,0 0,5.469 -5.614,0 0,24.258 -8.171,0 0,-24.258 -4.902,0 z"
               transform="translate(178.472,319.296)"
               id="path79" />
            <path
               inkscape:connector-curvature="0"
               style="fill:#000000;fill-rule:nonzero;stroke:none"
               d="m 8.523,19.171 c 0.226,1.145 0.598,2.147 1.177,3.055 0.546,0.906 1.268,1.629 2.187,2.145 0.918,0.547 2.073,0.806 3.456,0.806 1.383,0 2.528,-0.259 3.457,-0.806 0.949,-0.516 1.692,-1.239 2.239,-2.145 0.547,-0.908 0.95,-1.91 1.176,-3.055 0.237,-1.134 0.351,-2.281 0.351,-3.466 0,-1.188 -0.114,-2.354 -0.351,-3.508 C 21.989,11.05 21.586,10.039 21.039,9.142 20.492,8.265 19.749,7.552 18.8,6.986 17.871,6.439 16.726,6.15 15.343,6.15 13.96,6.15 12.805,6.439 11.887,6.986 10.968,7.552 10.246,8.265 9.7,9.142 9.121,10.039 8.749,11.05 8.523,12.197 c -0.238,1.154 -0.351,2.32 -0.351,3.508 0,1.185 0.113,2.332 0.351,3.466 z M 1.094,9.234 C 1.816,7.304 2.848,5.654 4.179,4.283 5.531,2.929 7.14,1.867 9.008,1.115 10.886,0.371 13.011,0 15.343,0 c 2.332,0 4.427,0.371 6.325,1.115 1.909,0.752 3.519,1.814 4.87,3.168 1.352,1.371 2.384,3.021 3.106,4.951 0.723,1.93 1.094,4.086 1.094,6.471 0,2.363 -0.371,4.519 -1.094,6.437 -0.722,1.91 -1.754,3.551 -3.106,4.922 -1.351,1.363 -2.961,2.404 -4.87,3.117 -1.898,0.733 -3.993,1.094 -6.325,1.094 -2.332,0 -4.457,-0.361 -6.335,-1.094 C 7.14,29.468 5.531,28.427 4.179,27.064 2.848,25.693 1.816,24.052 1.094,22.142 0.351,20.224 0,18.068 0,15.705 0,13.32 0.351,11.164 1.094,9.234 z"
               transform="translate(199.8,329.81)"
               id="path81" />
            <path
               inkscape:connector-curvature="0"
               style="fill:#000000;fill-rule:nonzero;stroke:none"
               d="m 7.769,0.814 0,5.512 0.113,0 C 8.264,5.406 8.78,4.56 9.441,3.765 10.07,2.992 10.823,2.31 11.69,1.753 12.515,1.207 13.414,0.773 14.363,0.455 15.342,0.154 16.323,0 17.355,0 17.902,0 18.51,0.093 19.14,0.279 l 0,7.603 C 18.768,7.81 18.304,7.738 17.757,7.677 17.241,7.625 16.725,7.593 16.199,7.593 c -1.496,0 -2.755,0.258 -3.766,0.744 -1.032,0.506 -1.868,1.186 -2.508,2.043 -0.629,0.868 -1.093,1.877 -1.351,3.024 -0.289,1.154 -0.403,2.392 -0.403,3.744 l 0,13.383 -8.171,0 0,-29.717 7.769,0 z"
               transform="translate(235.832,329.81)"
               id="path83" />
            <path
               inkscape:connector-curvature="0"
               style="fill:#000000;fill-rule:nonzero;stroke:none"
               d="m 18.469,16.714 c -0.516,0.176 -1.063,0.321 -1.662,0.434 -0.577,0.113 -1.207,0.197 -1.847,0.289 -0.66,0.053 -1.32,0.166 -1.95,0.289 -0.608,0.113 -1.218,0.258 -1.815,0.455 -0.61,0.174 -1.125,0.434 -1.559,0.764 -0.433,0.33 -0.773,0.732 -1.062,1.238 -0.258,0.504 -0.403,1.135 -0.403,1.899 0,0.732 0.145,1.339 0.403,1.826 0.289,0.525 0.629,0.896 1.093,1.185 0.464,0.289 1.011,0.487 1.61,0.6 0.608,0.113 1.238,0.174 1.898,0.174 1.61,0 2.848,-0.258 3.715,-0.805 0.898,-0.516 1.558,-1.176 1.96,-1.918 0.434,-0.744 0.692,-1.508 0.775,-2.269 0.113,-0.764 0.144,-1.383 0.144,-1.838 l 0,-3.043 c -0.341,0.308 -0.774,0.547 -1.3,0.72 z M 2.362,5.179 C 3.188,3.91 4.281,2.9 5.582,2.125 6.871,1.361 8.346,0.814 9.987,0.484 11.627,0.166 13.238,0 14.909,0 c 1.496,0 2.992,0.113 4.54,0.31 1.527,0.217 2.91,0.639 4.178,1.238 1.26,0.618 2.302,1.465 3.107,2.559 0.805,1.094 1.207,2.549 1.207,4.354 l 0,15.466 c 0,1.332 0.083,2.631 0.226,3.84 0.176,1.236 0.434,2.156 0.816,2.764 l -8.295,0 c -0.146,-0.463 -0.259,-0.918 -0.372,-1.412 -0.083,-0.475 -0.145,-0.961 -0.206,-1.467 -1.29,1.351 -2.818,2.291 -4.603,2.818 -1.754,0.547 -3.539,0.805 -5.376,0.805 -1.443,0 -2.734,-0.166 -3.972,-0.516 C 4.92,30.418 3.858,29.892 2.929,29.148 2.011,28.427 1.289,27.507 0.773,26.404 0.257,25.291 0,23.968 0,22.431 0,20.74 0.319,19.367 0.886,18.273 c 0.61,-1.094 1.352,-1.971 2.302,-2.621 0.948,-0.66 2.021,-1.154 3.229,-1.465 1.208,-0.34 2.415,-0.598 3.653,-0.783 1.207,-0.197 2.414,-0.342 3.621,-0.455 1.187,-0.123 2.219,-0.289 3.138,-0.526 0.927,-0.226 1.671,-0.568 2.187,-1.002 0.547,-0.433 0.815,-1.082 0.753,-1.929 0,-0.877 -0.144,-1.578 -0.434,-2.104 C 19.046,6.873 18.675,6.468 18.19,6.181 17.726,5.892 17.148,5.707 16.549,5.603 15.91,5.519 15.218,5.459 14.506,5.459 12.886,5.459 11.627,5.808 10.699,6.5 9.781,7.191 9.265,8.326 9.089,9.925 l -8.172,0 C 1.031,8.027 1.526,6.427 2.362,5.179 z"
               transform="translate(272.875,329.81)"
               id="path85" />
            <path
               inkscape:connector-curvature="0"
               style="fill:#000000;fill-rule:nonzero;stroke:none"
               d="m 7.769,0.814 0,4.129 0.176,0 C 8.976,3.218 10.328,1.97 11.968,1.175 13.609,0.402 15.312,0 17.035,0 c 2.187,0 3.972,0.298 5.386,0.886 1.382,0.61 2.476,1.424 3.282,2.477 0.804,1.062 1.372,2.344 1.691,3.859 0.352,1.518 0.496,3.19 0.496,5.035 l 0,18.274 -8.182,0 0,-16.778 c 0,-2.445 -0.372,-4.291 -1.146,-5.5 -0.753,-1.207 -2.105,-1.814 -4.055,-1.814 -2.218,0 -3.828,0.66 -4.839,1.99 -0.981,1.321 -1.497,3.508 -1.497,6.532 l 0,15.57 -8.171,0 0,-29.717 7.769,0 z"
               transform="translate(307.121,329.81)"
               id="path87" />
            <path
               inkscape:connector-curvature="0"
               style="fill:#000000;fill-rule:nonzero;stroke:none"
               d="m 14.395,38.549 c -1.589,1.021 -3.776,1.546 -6.563,1.546 -0.836,0 -1.671,-0.031 -2.507,-0.091 C 4.49,39.951 3.654,39.89 2.818,39.806 l 0,-6.707 c 0.784,0.073 1.557,0.145 2.362,0.229 0.806,0.072 1.61,0.092 2.415,0.06 1.073,-0.113 1.878,-0.546 2.394,-1.267 0.515,-0.735 0.774,-1.539 0.774,-2.416 0,-0.649 -0.114,-1.268 -0.341,-1.846 L 0,0 l 8.689,0 6.707,20.347 0.113,0 L 22.02,0 30.481,0 18.047,33.388 c -0.866,2.405 -2.104,4.129 -3.652,5.161 z"
               transform="translate(337.796,330.636)"
               id="path89" />
            <path
               inkscape:connector-curvature="0"
               style="fill:#000000;fill-rule:nonzero;stroke:none"
               d="m 4.891,6.738 0,-6.738 8.172,0 0,6.738 -8.172,0 z M 1.723,44.709 c 0.836,0 1.589,-0.154 2.219,-0.484 0.629,-0.333 0.949,-1.053 0.949,-2.147 l 0,-30.76 8.172,0 0,31.162 c 0,1.528 -0.176,2.848 -0.485,3.961 -0.351,1.106 -0.898,2.043 -1.671,2.776 -0.806,0.744 -1.868,1.31 -3.199,1.672 -1.352,0.373 -3.044,0.546 -5.118,0.546 -0.95,0 -1.816,-0.072 -2.59,-0.236 l 0,-6.717 c 0.433,0.155 1.011,0.227 1.723,0.227 z"
               transform="translate(382.867,319.296)"
               id="path91" />
            <path
               inkscape:connector-curvature="0"
               style="fill:#000000;fill-rule:nonzero;stroke:none"
               d="m 20.11,29.705 0,-4.147 -0.176,0 c -1.031,1.733 -2.382,2.981 -4.023,3.744 -1.641,0.776 -3.344,1.147 -5.066,1.147 -2.188,0 -3.973,-0.289 -5.387,-0.857 C 4.086,29.013 2.992,28.209 2.187,27.156 1.372,26.105 0.804,24.814 0.484,23.318 0.134,21.791 0,20.119 0,18.283 L 0,0 l 8.172,0 0,16.777 c 0,2.455 0.371,4.281 1.145,5.488 0.753,1.198 2.105,1.797 4.055,1.797 2.219,0 3.828,-0.662 4.84,-1.97 0.98,-1.323 1.496,-3.499 1.496,-6.522 l 0,-15.57 8.172,0 0,29.705 -7.77,0 z"
               transform="translate(402.988,330.636)"
               id="path93" />
            <path
               inkscape:connector-curvature="0"
               style="fill:#000000;fill-rule:nonzero;stroke:none"
               d="m 7.769,0.814 0,5.512 0.113,0 C 8.254,5.406 8.779,4.56 9.439,3.765 10.07,2.992 10.822,2.31 11.679,1.753 12.515,1.207 13.412,0.773 14.361,0.455 15.341,0.154 16.312,0 17.353,0 17.9,0 18.5,0.093 19.138,0.279 l 0,7.603 C 18.757,7.81 18.304,7.738 17.757,7.677 17.24,7.625 16.714,7.593 16.199,7.593 c -1.496,0 -2.766,0.258 -3.766,0.744 -1.043,0.506 -1.869,1.186 -2.508,2.043 -0.629,0.868 -1.093,1.877 -1.351,3.024 -0.289,1.154 -0.403,2.392 -0.403,3.744 l 0,13.383 -8.171,0 0,-29.717 7.769,0 z"
               transform="translate(437.059,329.81)"
               id="path95" />
            <path
               inkscape:connector-curvature="0"
               style="fill:#000000;fill-rule:nonzero;stroke:none"
               d="m 8.174,11.34 0,29.705 -8.174,0 0,-29.705 8.174,0 z M 0,6.738 0,0 l 8.174,0 0,6.738 -8.174,0 z"
               transform="translate(459.623,319.296)"
               id="path97" />
            <path
               inkscape:connector-curvature="0"
               style="fill:#000000;fill-rule:nonzero;stroke:none"
               d="m 8.316,23.164 c 0.381,0.63 0.836,1.134 1.414,1.537 0.578,0.404 1.238,0.703 1.98,0.879 0.754,0.205 1.528,0.287 2.333,0.287 0.578,0 1.187,-0.061 1.816,-0.205 0.609,-0.125 1.176,-0.342 1.703,-0.629 0.516,-0.289 0.949,-0.662 1.289,-1.147 0.35,-0.465 0.516,-1.072 0.516,-1.804 0,-1.219 -0.805,-2.147 -2.446,-2.766 C 15.312,18.697 13.043,18.097 10.132,17.478 8.925,17.201 7.769,16.89 6.654,16.529 5.531,16.168 4.519,15.683 3.63,15.105 2.734,14.498 2.043,13.753 1.496,12.857 0.98,11.949 0.691,10.843 0.691,9.554 0.691,7.625 1.062,6.066 1.816,4.83 2.558,3.611 3.539,2.642 4.777,1.919 6.015,1.216 7.398,0.712 8.925,0.423 10.453,0.134 12.031,0 13.64,0 c 1.61,0 3.168,0.154 4.695,0.455 1.497,0.318 2.848,0.834 4.024,1.556 1.217,0.733 2.187,1.694 2.973,2.901 0.804,1.216 1.257,2.734 1.402,4.58 l -7.77,0 C 18.851,7.923 18.273,6.861 17.179,6.294 16.117,5.748 14.847,5.459 13.414,5.459 12.949,5.459 12.464,5.49 11.918,5.55 11.371,5.603 10.884,5.736 10.453,5.921 10.019,6.128 9.646,6.398 9.328,6.757 9.039,7.13 8.863,7.625 8.863,8.224 c 0,0.733 0.289,1.33 0.805,1.785 0.546,0.463 1.238,0.834 2.105,1.123 0.867,0.289 1.836,0.547 2.961,0.776 1.125,0.236 2.25,0.494 3.394,0.752 1.188,0.258 2.332,0.588 3.489,0.98 1.125,0.371 2.125,0.887 2.992,1.518 0.887,0.638 1.609,1.414 2.125,2.363 0.547,0.938 0.805,2.104 0.805,3.486 0,1.94 -0.371,3.58 -1.176,4.903 -0.774,1.32 -1.817,2.373 -3.074,3.177 -1.27,0.805 -2.715,1.383 -4.325,1.702 -1.64,0.332 -3.302,0.486 -4.972,0.486 -1.735,0 -3.426,-0.166 -5.067,-0.516 C 7.285,30.418 5.818,29.851 4.519,29.046 3.228,28.242 2.187,27.189 1.351,25.867 0.546,24.546 0.091,22.886 0,20.884 l 7.769,0 c 0,0.897 0.207,1.641 0.547,2.28 z"
               transform="translate(472.77,329.81)"
               id="path99" />
            <path
               inkscape:connector-curvature="0"
               style="fill:#000000;fill-rule:nonzero;stroke:none"
               d="m 22.019,22.566 c -0.238,-1.125 -0.609,-2.127 -1.187,-2.992 -0.547,-0.867 -1.258,-1.557 -2.125,-2.105 -0.899,-0.528 -2.012,-0.805 -3.344,-0.805 -1.351,0 -2.476,0.277 -3.394,0.805 -0.918,0.548 -1.672,1.257 -2.219,2.134 -0.547,0.889 -0.949,1.899 -1.207,3.024 -0.227,1.125 -0.371,2.301 -0.371,3.539 0,1.146 0.144,2.301 0.402,3.437 0.289,1.155 0.692,2.176 1.301,3.084 0.599,0.899 1.351,1.621 2.238,2.168 0.899,0.567 1.992,0.836 3.25,0.836 1.332,0 2.445,-0.259 3.344,-0.806 0.918,-0.516 1.642,-1.239 2.156,-2.145 0.547,-0.908 0.918,-1.93 1.156,-3.076 0.227,-1.135 0.34,-2.352 0.34,-3.559 0,-1.238 -0.113,-2.416 -0.34,-3.539 z m 0.34,14.694 c -0.949,1.609 -2.218,2.775 -3.765,3.466 -1.559,0.721 -3.282,1.063 -5.243,1.063 -2.238,0 -4.199,-0.434 -5.871,-1.291 C 5.789,39.633 4.406,38.486 3.312,37 2.219,35.517 1.414,33.822 0.836,31.904 0.289,29.994 0,28.004 0,25.939 0,23.937 0.289,22.008 0.836,20.15 1.414,18.283 2.219,16.652 3.312,15.228 4.406,13.816 5.789,12.67 7.43,11.803 c 1.628,-0.866 3.558,-1.289 5.746,-1.289 1.754,0 3.425,0.371 5.015,1.115 1.61,0.752 2.848,1.857 3.766,3.31 l 0.113,0 0,-14.939 8.172,0 0,41.045 -7.768,0 0,-3.785 -0.115,0 z"
               transform="translate(503.797,319.296)"
               id="path101" />
            <path
               inkscape:connector-curvature="0"
               style="fill:#000000;fill-rule:nonzero;stroke:none"
               d="m 8.172,11.34 0,29.705 -8.172,0 0,-29.705 8.172,0 z M 0,6.738 0,0 l 8.172,0 0,6.738 -8.172,0 z"
               transform="translate(540.406,319.296)"
               id="path103" />
            <path
               inkscape:connector-curvature="0"
               style="fill:#000000;fill-rule:nonzero;stroke:none"
               d="m 15.137,6.15 c -1.301,0 -2.395,0.309 -3.281,0.896 -0.899,0.6 -1.621,1.364 -2.168,2.301 -0.547,0.949 -0.95,1.983 -1.176,3.108 -0.227,1.123 -0.34,2.248 -0.34,3.373 0,1.062 0.113,2.156 0.34,3.261 0.226,1.114 0.609,2.116 1.125,3.022 0.515,0.908 1.207,1.631 2.105,2.199 0.887,0.578 1.951,0.867 3.219,0.867 1.961,0 3.457,-0.547 4.52,-1.64 1.031,-1.084 1.691,-2.549 1.98,-4.387 l 7.863,0 c -0.547,3.953 -2.074,6.945 -4.613,9.019 -2.496,2.073 -5.746,3.106 -9.699,3.106 -2.207,0 -4.25,-0.371 -6.129,-1.115 C 7.047,29.408 5.457,28.375 4.137,27.033 2.848,25.693 1.836,24.084 1.094,22.226 0.371,20.369 0,18.326 0,16.107 0,13.806 0.34,11.669 1,9.689 1.693,7.707 2.672,6.005 3.961,4.57 5.293,3.136 6.871,2.011 8.738,1.207 10.617,0.402 12.774,0 15.188,0 c 1.755,0 3.457,0.226 5.097,0.681 1.61,0.463 3.075,1.166 4.344,2.104 1.301,0.939 2.332,2.105 3.137,3.509 0.804,1.383 1.269,3.053 1.383,4.954 l -7.977,0 C 20.625,7.851 18.613,6.15 15.137,6.15 z"
               transform="translate(554.078,329.81)"
               id="path105" />
            <path
               inkscape:connector-curvature="0"
               style="fill:#000000;fill-rule:nonzero;stroke:none"
               d="m 19.078,8.894 0,5.469 -5.984,0 0,14.715 c 0,1.383 0.238,2.289 0.691,2.754 0.465,0.455 1.383,0.691 2.766,0.691 0.465,0 0.887,-0.019 1.32,-0.062 0.434,-0.03 0.836,-0.082 1.207,-0.174 l 0,6.334 c -0.691,0.113 -1.464,0.197 -2.3,0.228 -0.836,0.041 -1.672,0.061 -2.477,0.061 -1.258,0 -2.445,-0.092 -3.59,-0.258 C 9.586,38.476 8.575,38.146 7.719,37.64 6.852,37.156 6.192,36.433 5.676,35.525 5.18,34.607 4.922,33.4 4.922,31.904 l 0,-17.541 -4.922,0 0,-5.469 4.922,0 0,-8.894 8.172,0 0,8.894 5.984,0 z"
               transform="translate(585.238,321.72)"
               id="path107" />
            <path
               inkscape:connector-curvature="0"
               style="fill:#000000;fill-rule:nonzero;stroke:none"
               d="m 8.171,11.34 0,29.705 -8.171,0 0,-29.705 8.171,0 z M 0,6.738 0,0 l 8.171,0 0,6.738 -8.171,0 z"
               transform="translate(608.434,319.296)"
               id="path109" />
            <path
               inkscape:connector-curvature="0"
               style="fill:#000000;fill-rule:nonzero;stroke:none"
               d="m 8.524,19.171 c 0.226,1.145 0.629,2.147 1.176,3.055 0.547,0.906 1.3,1.629 2.218,2.145 0.918,0.547 2.043,0.806 3.426,0.806 1.383,0 2.528,-0.259 3.477,-0.806 0.92,-0.516 1.672,-1.239 2.22,-2.145 0.577,-0.908 0.948,-1.91 1.174,-3.055 0.239,-1.134 0.352,-2.281 0.352,-3.466 0,-1.188 -0.113,-2.354 -0.352,-3.508 C 21.989,11.05 21.618,10.039 21.041,9.142 20.493,8.265 19.741,7.552 18.821,6.986 17.872,6.439 16.727,6.15 15.344,6.15 13.961,6.15 12.836,6.439 11.918,6.986 11,7.552 10.247,8.265 9.7,9.142 9.153,10.039 8.75,11.05 8.524,12.197 c -0.238,1.154 -0.352,2.32 -0.352,3.508 0,1.185 0.114,2.332 0.352,3.466 z M 1.094,9.234 C 1.817,7.304 2.848,5.654 4.2,4.283 5.551,2.929 7.141,1.867 9.041,1.115 10.907,0.371 13.012,0 15.344,0 c 2.332,0 4.457,0.371 6.356,1.115 1.898,0.752 3.509,1.814 4.861,3.168 1.33,1.371 2.361,3.021 3.084,4.951 0.744,1.93 1.094,4.086 1.094,6.471 0,2.363 -0.35,4.519 -1.094,6.437 -0.723,1.91 -1.754,3.551 -3.084,4.922 -1.352,1.363 -2.963,2.404 -4.861,3.117 -1.899,0.733 -4.024,1.094 -6.356,1.094 -2.332,0 -4.437,-0.361 -6.303,-1.094 C 7.141,29.468 5.551,28.427 4.2,27.064 2.848,25.693 1.817,24.052 1.094,22.142 0.372,20.224 0,18.068 0,15.705 0,13.32 0.372,11.164 1.094,9.234 z"
               transform="translate(622.105,329.81)"
               id="path111" />
            <path
               inkscape:connector-curvature="0"
               style="fill:#000000;fill-rule:nonzero;stroke:none"
               d="m 7.769,0.814 0,4.129 0.176,0 C 8.978,3.218 10.33,1.97 11.97,1.175 13.611,0.402 15.312,0 17.037,0 c 2.187,0 3.972,0.298 5.385,0.886 1.382,0.61 2.476,1.424 3.281,2.477 0.806,1.062 1.383,2.344 1.693,3.859 0.35,1.518 0.494,3.19 0.494,5.035 l 0,18.274 -8.172,0 0,-16.778 c 0,-2.445 -0.38,-4.291 -1.156,-5.5 -0.742,-1.207 -2.103,-1.814 -4.053,-1.814 -2.22,0 -3.83,0.66 -4.839,1.99 -0.981,1.321 -1.498,3.508 -1.498,6.532 l 0,15.57 -8.172,0 0,-29.717 7.769,0 z"
               transform="translate(658.137,329.81)"
               id="path113" />
          </g>
        </g>
      </g>
    </g>
  </g>
</svg>
