<?xml version="1.0" encoding="UTF-8" standalone="no"?>
<svg
   xmlns:dc="http://purl.org/dc/elements/1.1/"
   xmlns:cc="http://creativecommons.org/ns#"
   xmlns:rdf="http://www.w3.org/1999/02/22-rdf-syntax-ns#"
   xmlns:svg="http://www.w3.org/2000/svg"
   xmlns="http://www.w3.org/2000/svg"
   xmlns:sodipodi="http://sodipodi.sourceforge.net/DTD/sodipodi-0.dtd"
   xmlns:inkscape="http://www.inkscape.org/namespaces/inkscape"
   width="72.604568"
   height="108.60235"
   viewBox="0 0 204.90625 306.49996"
   version="1.1"
   id="svg2"
   inkscape:version="0.48.2 r9819"
   sodipodi:docname="MUTCD D11-3.svg">
  <metadata
     id="metadata62">
    <rdf:RDF>
      <cc:Work
         rdf:about="">
        <dc:format>image/svg+xml</dc:format>
        <dc:type
           rdf:resource="http://purl.org/dc/dcmitype/StillImage" />
        <dc:title></dc:title>
      </cc:Work>
    </rdf:RDF>
  </metadata>
  <defs
     id="defs60" />
  <sodipodi:namedview
     pagecolor="#ffffff"
     bordercolor="#666666"
     borderopacity="1"
     objecttolerance="10"
     gridtolerance="10"
     guidetolerance="10"
     inkscape:pageopacity="0"
     inkscape:pageshadow="2"
     inkscape:window-width="1280"
     inkscape:window-height="1004"
     id="namedview58"
     showgrid="false"
     fit-margin-top="0"
     fit-margin-left="0"
     fit-margin-right="0"
     fit-margin-bottom="0"
     inkscape:zoom="4.6745195"
     inkscape:cx="54.567032"
     inkscape:cy="37.493581"
     inkscape:window-x="-8"
     inkscape:window-y="-8"
     inkscape:window-maximized="1"
     inkscape:current-layer="svg2"
     showguides="true"
     inkscape:guide-bbox="true" />
  <!-- draw the bicycle -->
  <!-- RIGHT -->
  <!-- LANE -->
  <!-- ONLY -->
  <path
     inkscape:connector-curvature="0"
     d="m 26.25515,0.84647 152.39649,0 c 14.02998,0 25.40354,11.37003 25.40354,25.4 l 0,254.00003 c 0,14.02645 -11.37356,25.40706 -25.40354,25.40706 l -152.39649,0 c -14.02997,0 -25.39647,-11.38061 -25.39647,-25.40706 l 0,-254.00003 c 0,-14.02997 11.3665,-25.4 25.39647,-25.4"
     style="fill:#ffffff;fill-opacity:1;fill-rule:nonzero;stroke:#000000;stroke-width:1.69333353;stroke-miterlimit:4;stroke-opacity:1;stroke-dasharray:none"
     id="path9859" />
  <path
     inkscape:connector-curvature="0"
     d="m 17.78496,153.24296 c 0,-74.81359 37.91303,-135.46668 84.66668,-135.46668 46.75717,0 84.66667,60.65309 84.66667,135.46668 0,74.81712 -37.9095,135.46315 -84.66667,135.46315 -46.75365,0 -84.66668,-60.64603 -84.66668,-135.46315"
     style="fill:#006649;fill-opacity:1;fill-rule:evenodd;stroke:none"
     id="path9867" />
  <path
     inkscape:connector-curvature="0"
     d="m 142.28062,126.98571 c -9.68375,0 -17.79764,-6.68162 -19.99545,-15.68451 l 19.5192,-4.18747 c 0,0 1.72155,-0.53975 1.90147,-1.48872 0.17992,-0.94544 -0.68792,-2.20486 -0.68792,-2.20486 L 131.74315,88.71284 c 3.07975,-1.8415 6.68513,-2.89983 10.53747,-2.89983 11.3665,0 20.58458,9.21808 20.58458,20.58811 0,11.3665 -9.21808,20.58459 -20.58458,20.58459 m -20.58106,-20.58459 c 0,-6.12422 2.66347,-11.61697 6.90386,-15.38817 l 9.87073,13.00692 -16.74989,3.4537 c -0.0178,-0.35278 -0.0246,-0.71614 -0.0246,-1.07245 m -11.52172,3.4537 9.58497,-30.49765 6.10306,8.04334 c -5.32695,4.60728 -8.69598,11.4053 -8.69598,19.00061 0,0.67028 0.0282,1.3335 0.0847,1.99672 l -7.07672,1.45698 z m -3.36197,-2.92453 -0.9525,-5.11881 1.90147,0 0,-1.90147 -5.9937,0 0,1.90147 1.74978,0 1.02658,4.31095 -24.28184,-26.25373 0.9525,-3.21733 35.03084,0 -9.43328,30.27892 z m -23.60084,0.0423 c 0,11.3665 -9.21809,20.58811 -20.58812,20.58811 -11.3665,0 -20.58811,-9.22161 -20.58811,-20.58811 0,-11.37003 9.22161,-20.58459 20.58811,-20.58459 3.72886,0 7.22136,0.99131 10.24114,2.72345 -1.48166,3.70064 -3.96875,9.04522 -6.98147,12.05089 -0.93486,0.93839 -2.49414,2.80106 -3.46428,3.05858 -3.67242,0.98778 -2.63172,4.16984 -2.24719,4.55437 0.35983,0.35983 4.28625,2.50119 5.09764,-1.84503 0,0 0.76552,-0.99131 3.47486,-3.62303 3.86291,-3.76767 6.29003,-8.3432 7.66939,-11.61697 4.17336,3.76766 6.79803,9.21808 6.79803,15.28233 m 59.06559,-25.68222 c -4.88597,0 -9.44739,1.40052 -13.30678,3.81 l -7.82122,-10.20587 1.09713,-3.80294 c 0,0 2.921,-0.73025 6.07131,-2.92453 7.16492,-5.04825 -4.97769,-3.14678 -9.22161,-2.92453 -5.48217,0.29281 -10.45986,0 -10.45986,1.60867 0,1.67922 6.73452,3.43606 9.51089,3.43606 l -0.65617,2.33891 -35.03084,0 2.99861,-9.35919 -2.63172,-2.56117 1.24178,-1.31939 9.36272,0 0,-3.51014 -10.74914,0 -4.7625,4.82953 3.00566,3.07269 -6.51227,21.02556 c -3.51367,-1.87325 -7.52475,-2.93864 -11.78984,-2.93864 -13.86769,0 -25.1072,11.24303 -25.1072,25.1072 0,13.86417 11.23951,25.1072 25.1072,25.1072 13.86417,0 25.11073,-11.24303 25.11073,-25.1072 0,-8.06803 -3.81,-15.25411 -9.72962,-19.84375 l 0.79023,-2.65289 24.65564,26.55006 c 0,0 -0.51858,1.68275 0.508,3.14678 0.73025,1.02305 1.6122,1.53458 2.77636,1.67922 l 1.24884,7.02381 -1.4605,0 0,1.82738 5.99369,0 0,-1.82738 -1.90147,0 -1.82739,-7.38717 c 0.43392,-0.14464 0.73025,-0.43745 1.09714,-0.73025 0.28928,-0.22225 0.73025,-0.9525 0.73025,-0.9525 l 7.24253,-1.55575 c 2.63878,11.04547 12.56594,19.25461 24.41928,19.25461 13.86769,0 25.1072,-11.2395 25.1072,-25.10367 0,-13.8677 -11.23951,-25.11072 -25.1072,-25.11072"
     style="fill:#ffffff;fill-opacity:1;fill-rule:evenodd;stroke:none"
     id="path9871" />
  <path
     inkscape:connector-curvature="0"
     d="m 73.4921,259.07983 0,-84.74781 -10.98903,0 c -1.32291,2.91747 -5.55978,5.83141 -9.52853,5.83141 l 0,11.11956 7.41539,0 0,67.79684 13.10217,0 z"
     style="fill:#ffffff;fill-opacity:1;fill-rule:evenodd;stroke:none"
     id="path9875" />
  <path
     inkscape:connector-curvature="0"
     d="m 150.25693,231.53494 c 0,-14.83078 -7.41892,-18.80306 -7.41892,-18.80306 0,0 4.76603,-3.04447 4.76603,-14.0335 0,-13.50433 -10.18823,-25.42117 -25.68576,-25.42117 -20.12597,0 -24.88848,17.21203 -24.88848,17.21203 l 12.70706,3.97228 c 0,-0.26811 2.1202,-7.94456 12.18142,-7.94456 7.28486,0 12.44953,5.16114 12.44953,12.18142 0,7.15081 -5.29872,7.41539 -11.92036,7.41539 l 0,13.23975 c 4.90008,-0.13053 14.5662,1.32645 14.5662,12.18142 0,11.39472 -8.73478,15.36347 -15.09537,15.36347 -11.11955,0 -15.88911,-12.45305 -15.88911,-12.45305 L 93.32564,237.892 c 0,0 5.55978,22.24969 28.59264,22.24969 11.12662,0 28.33865,-7.94455 28.33865,-28.60675"
     style="fill:#ffffff;fill-opacity:1;fill-rule:evenodd;stroke:none"
     id="path9879" />
</svg>
