<?xml version="1.0" encoding="UTF-8" standalone="no"?>
<!-- Created with Inkscape (http://www.inkscape.org/) -->
<svg xmlns:dc="http://purl.org/dc/elements/1.1/" xmlns:cc="http://creativecommons.org/ns#" xmlns:rdf="http://www.w3.org/1999/02/22-rdf-syntax-ns#" xmlns:svg="http://www.w3.org/2000/svg" xmlns="http://www.w3.org/2000/svg" xmlns:sodipodi="http://sodipodi.sourceforge.net/DTD/sodipodi-0.dtd" xmlns:inkscape="http://www.inkscape.org/namespaces/inkscape" width="1080" height="1620" id="svg3069" version="1.1" inkscape:version="0.48.4 r" sodipodi:docname="US Bike 23 (M1-9 IA-15).svg">
  <defs id="defs3071"/>
  <sodipodi:namedview id="base" pagecolor="#ffffff" bordercolor="#666666" borderopacity="1.0" inkscape:pageopacity="0.0" inkscape:pageshadow="2" inkscape:zoom="0.39197531" inkscape:cx="540" inkscape:cy="810" inkscape:document-units="in" inkscape:current-layer="layer1" showgrid="false" units="in" inkscape:window-width="953" inkscape:window-height="860" inkscape:window-x="467" inkscape:window-y="0" inkscape:window-maximized="0" inkscape:object-nodes="true" inkscape:snap-smooth-nodes="true" inkscape:snap-midpoints="true"/>
  <metadata id="metadata3074">
    <rdf:RDF>
      <cc:Work rdf:about="">
        <dc:format>image/svg+xml</dc:format>
        <dc:type rdf:resource="http://purl.org/dc/dcmitype/StillImage"/>
        <dc:title/>
      </cc:Work>
    </rdf:RDF>
  </metadata>
  <g inkscape:label="Layer 1" inkscape:groupmode="layer" id="layer1" transform="translate(0,567.64025)">
    <rect style="fill:#006b54;fill-opacity:1;stroke:#ffffff;stroke-width:0.49980715;stroke-linecap:round;stroke-linejoin:round;stroke-miterlimit:4;stroke-opacity:1;stroke-dasharray:none" id="rect3077" width="1079.5002" height="1619.5002" x="0.24990357" y="-567.39038" rx="135" ry="135"/>
    <path style="fill:none;stroke:#000000;stroke-width:1.03948092px;stroke-linecap:butt;stroke-linejoin:miter;stroke-opacity:1" d="m 135.01974,268.99975 809.96052,0 L 540,-432.64025 z" id="path3870" inkscape:connector-curvature="0" sodipodi:nodetypes="cccc"/>
    <path style="fill:#ffffff;fill-opacity:1;stroke:none" d="m 540,-432.64025 c -4.86427,2.82019 -9.8235,5.47829 -14.62309,8.39605 -11.14489,6.77521 -22.12577,13.82627 -32.90977,21.11546 -10.78399,7.28919 -21.37638,14.83303 -31.78251,22.61922 -10.40613,7.78618 -20.61266,15.79415 -30.62394,24.06034 -10.01127,8.26618 -19.83461,16.77225 -29.43405,25.50145 -9.59944,8.7292 -18.9796,17.67335 -28.15022,26.84857 -9.17062,9.17523 -18.11027,18.59145 -26.83509,28.19571 -8.72481,9.60427 -17.2266,19.40121 -25.48863,29.41752 -8.26204,10.01631 -16.29729,20.25931 -24.07956,30.67067 -7.78227,10.41135 -15.32233,21.00907 -22.60785,31.79849 -7.28553,10.78941 -14.30174,21.7445 -21.07353,32.89499 -6.7718,11.15049 -13.29811,22.49691 -19.5392,33.99149 -6.24109,11.49457 -12.21753,23.14101 -17.91093,34.962676 -5.69341,11.821665 -11.09131,23.802099 -16.22004,35.933862 -5.12873,12.131763 -9.98208,24.417512 -14.52915,36.84239 -4.54707,12.4248781 -8.79589,24.987261 -12.74432,37.688261 -3.94843,12.701001 -7.59536,25.542674 -10.92817,38.502805 -1.66642,6.48006 -3.25023,13.007358 -4.75955,19.549023 -1.50932,6.541665 -2.93975,13.104532 -4.28986,19.705663 -1.35011,6.60114 -2.63139,13.23515 -3.82016,19.89364 -1.18878,6.65849 -2.29384,13.33658 -3.31916,20.05028 -1.02532,6.71371 -1.95842,13.47144 -2.81815,20.23825 -0.85974,6.76681 -1.65643,13.54578 -2.34847,20.36357 -0.69203,6.81779 -1.29393,13.65357 -1.81614,20.52021 -0.52221,6.86664 -0.96487,13.76347 -1.31514,20.67685 -0.35026,6.91338 -0.60662,13.84419 -0.78282,20.80217 -0.17013,6.71843 -0.24461,13.44883 -0.2505,20.20692 119.19421,68.91861 257.4342,108.55347 405,108.55347 147.56724,0 285.80396,-39.6329 405,-108.55347 -0.006,-6.75809 -0.0804,-13.48849 -0.2505,-20.20692 -0.1762,-6.95798 -0.43256,-13.88879 -0.78282,-20.80217 -0.35027,-6.91338 -0.79293,-13.81021 -1.31514,-20.67685 -0.52221,-6.86664 -1.12411,-13.70242 -1.81614,-20.52021 -0.69204,-6.81779 -1.48873,-13.59676 -2.34847,-20.36357 -0.85973,-6.76681 -1.79283,-13.52454 -2.81815,-20.23825 -1.02532,-6.7137 -2.13038,-13.39179 -3.31916,-20.05028 -1.18877,-6.65849 -2.47005,-13.2925 -3.82016,-19.89364 -1.35011,-6.601131 -2.78054,-13.163998 -4.28986,-19.705663 -1.50932,-6.541665 -3.09313,-13.068963 -4.75955,-19.549023 -3.33281,-12.960131 -6.97974,-25.801804 -10.92817,-38.502805 -3.94843,-12.701 -8.19725,-25.2633829 -12.74432,-37.688261 -4.54707,-12.424878 -9.40042,-24.710627 -14.52915,-36.84239 -5.12873,-12.131763 -10.52663,-24.112197 -16.22004,-35.933862 -5.6934,-11.821666 -11.66984,-23.468106 -17.91093,-34.962676 -6.24109,-11.49458 -12.7674,-22.841 -19.5392,-33.99149 -6.77179,-11.15049 -13.788,-22.10558 -21.07353,-32.89499 -7.28552,-10.78942 -14.82558,-21.38714 -22.60785,-31.79849 -7.78227,-10.41136 -15.81752,-20.65436 -24.07956,-30.67067 -8.26203,-10.01631 -16.76382,-19.81325 -25.48863,-29.41752 -8.72482,-9.60426 -17.66447,-19.02048 -26.83509,-28.19571 -9.17062,-9.17522 -18.55078,-18.11937 -28.15022,-26.84857 -9.59944,-8.7292 -19.42278,-17.23527 -29.43405,-25.50145 -10.01128,-8.26619 -20.21781,-16.27416 -30.62394,-24.06034 -10.40613,-7.78619 -20.99852,-15.33003 -31.78251,-22.61922 -10.784,-7.28919 -21.76488,-14.34025 -32.90977,-21.11546 -4.79959,-2.91776 -9.76129,-5.57918 -14.62309,-8.39605 z" id="path3963" inkscape:connector-curvature="0"/>
    <path inkscape:connector-curvature="0" d="M 648.01117,137.8797 739.4906,122.94965 681.83707,48.05811 c -29.88415,26.05731 -33.60231,57.33612 -33.82591,89.82159 z m -25.16509,5.47953 c -0.14763,-3.24594 -0.66862,-8.46533 -0.66862,-12.11976 0,-37.05922 11.98807,-73.07268 44.52465,-103.00277 l -33.88537,-40.5726 -52.44901,160.00563 42.47835,-4.3105 z m -201.31066,-159.24508 2.90747,-8.90412 186.80988,-0.24446 -49.69515,150.64914 -2.14471,-15.71566 h 5.71781 l -0.71783,-10.00107 h -25.00313 l 0.71569,9.28752 h 6.43008 l 1.42817,17.14589 c 0,0 -125.73366,-141.50371 -126.44828,-142.21724 z M 338.79917,128.8314 c 25.08678,-19.92693 44.61344,-38.91777 58.69529,-76.92352 22.22531,20.16198 34.90596,49.32421 34.90596,79.33159 0,59.59063 -48.60547,108.19502 -108.1981,108.19502 -59.59169,0 -108.19502,-48.60439 -108.19502,-108.19502 0,-59.59271 48.60333,-108.19606 108.19502,-108.19606 19.02,0 38.46129,5.49311 54.1382,14.74722 -10.6121,33.53123 -20.93407,50.82545 -53.58448,77.10948 -7.92521,0.33431 -13.95219,6.69767 -13.95219,14.28755 0,7.87089 6.41766,14.28858 14.28639,14.28858 7.87002,0 13.70893,-6.41769 13.70893,-14.64484 z m 313.04506,32.03727 c 12.23668,45.60188 55.77006,78.56894 103.95232,78.56894 59.59281,0 108.19912,-48.60437 108.19912,-108.19814 0,-59.59271 -48.6063,-108.19918 -108.19912,-108.19918 -19.02001,0 -41.02601,4.49018 -57.0812,13.88845 l 58.72675,77.97137 c 7.18235,0.11275 13.43613,6.53053 13.43613,14.28755 0,7.87089 -6.42088,14.28858 -14.28876,14.28858 -2.17809,0 -4.46508,-0.55787 -6.3967,-1.46783 l -98.34854,18.86026 z M 386.06525,12.74668 424.3926,-92.98906 l -12.14468,-20.71988 24.28958,-26.43131 h 52.1501 l 0.71569,15.00213 h -45.72195 l -9.28662,10.00106 10.71479,19.2886 -13.47486,47.76027 h 187.15992 l 2.85933,-8.73487 c -15.04167,-1.9578 -40.98621,-11.22548 -47.18243,-16.60577 -6.19622,-5.38344 -0.77111,-10.33329 6.28715,-10.56522 36.94005,-1.56917 91.82005,-4.66362 102.24622,-4.70855 10.42317,-0.0481 11.49104,5.19539 4.51323,12.82913 -6.97867,7.63269 -13.07882,14.50588 -39.51846,18.60221 l -7.14277,19.2886 44.28672,54.86643 C 706.01901,4.21032 731.26562,-2.3829 755.79654,-2.3829 c 73.59622,0 133.62142,60.02523 133.62142,133.62237 0,73.5961 -60.0252,133.62028 -133.62142,133.62028 -60.54646,0 -113.78626,-41.75522 -129.43193,-99.46641 l -40.69587,7.31302 c -1.74268,4.79735 -5.80232,8.47682 -10.65296,11.35608 l 7.25873,34.42653 h 9.28642 l 0.71462,9.28753 -29.28977,1.42708 V 219.2025 h 7.14491 l -8.8478,-34.40668 c -13.16655,-2.15317 -20.06476,-13.42357 -16.14398,-24.60933 L 412.19764,9.83194 406.24599,25.96445 c 32.26507,25.41377 51.57754,64.56138 51.57754,105.27502 0,73.5961 -60.02504,133.62028 -133.62122,133.62028 -73.59507,0 -133.62027,-60.02418 -133.62027,-133.62028 0,-73.59714 60.02521,-133.62237 133.62027,-133.62237 21.40094,0 43.32327,5.22254 61.86294,15.12958 z" id="path15" style="fill-rule:evenodd;overflow:visible;fill:#006b54;fill-opacity:1"/>
    <g style="font-size:164.95600891px;font-style:normal;font-variant:normal;font-weight:normal;font-stretch:normal;line-height:125%;letter-spacing:0px;word-spacing:0px;fill:#006b54;fill-opacity:1;stroke:none;font-family:Roadgeek 2005 Series E;-inkscape-font-specification:Roadgeek 2005 Series E" id="text3988">
      <path d="m 515.57119,-254.15784 c -10e-5,6.81822 -1.0998,13.08654 -3.29912,18.80498 -2.19951,5.60853 -5.27868,10.50222 -9.23753,14.68109 -3.95903,4.06892 -8.68777,7.25807 -14.18622,9.56745 -5.4986,2.30938 -11.492,3.46407 -17.9802,3.46407 -6.48833,0 -12.48172,-1.15469 -17.98021,-3.46407 -5.3886,-2.30938 -10.06235,-5.49853 -14.02126,-9.56745 -3.95897,-4.17887 -7.03814,-9.07256 -9.23754,-14.68109 -2.19943,-5.71844 -3.29913,-11.98676 -3.29912,-18.80498 l 0,-65.98241 19.79472,0 0,65.98241 c -3e-5,3.29916 0.21991,5.99344 0.65983,8.08284 0.54982,1.97951 1.48457,4.06895 2.80425,6.26833 2.19937,3.62906 5.16858,6.54328 8.90763,8.74267 3.73895,2.19943 7.86284,3.29914 12.3717,3.29912 4.50873,2e-5 8.63263,-1.09969 12.3717,-3.29912 3.8489,-2.19939 6.87309,-5.11361 9.07258,-8.74267 1.31956,-2.19938 2.19933,-4.34381 2.63929,-6.43328 0.54977,-2.19938 0.8247,-4.83867 0.82478,-7.91789 l 0,-65.98241 19.79472,0 0,65.98241 0,0" style="" id="path4107"/>
    </g>
    <g transform="scale(1.0014652,0.99853695)" style="font-size:164.7146759px;font-style:normal;font-variant:normal;font-weight:normal;font-stretch:normal;line-height:125%;letter-spacing:0px;word-spacing:0px;fill:#006b54;fill-opacity:1;stroke:none;font-family:Roadgeek 2005 Series E;-inkscape-font-specification:Roadgeek 2005 Series E" id="text3996">
      <path d="m 662.02124,-241.21685 c -1e-4,11.20062 -5.16116,19.82068 -15.48318,25.8602 -3.84342,2.41582 -8.18091,4.28259 -13.01246,5.6003 -4.8317,1.20791 -9.82804,1.81186 -14.98904,1.81186 -9.55349,0 -18.00884,-1.70205 -25.36606,-5.10615 -7.24747,-3.51391 -14.00076,-8.89458 -20.2599,-16.14204 l 15.81261,-12.3536 c 4.17274,4.83166 8.56513,8.34557 13.17717,10.54174 4.61197,2.19622 10.04755,3.29431 16.30675,3.29429 7.02777,2e-5 12.79278,-1.31769 17.29504,-3.95315 4.50213,-2.74522 6.75323,-6.20422 6.7533,-10.37702 -7e-5,-4.39236 -2.30608,-7.74155 -6.91801,-10.0476 -1.97665,-0.76862 -4.06303,-1.53729 -6.25916,-2.306 -2.08645,-0.76863 -4.39245,-1.42748 -6.91802,-1.97658 l -5.10615,-1.48243 -5.10616,-1.15301 -5.27087,-1.64714 c -5.71014,-1.31767 -10.21234,-2.74519 -13.5066,-4.28258 -3.18451,-1.64709 -5.92975,-3.78838 -8.23573,-6.42388 -2.30603,-2.52556 -4.06298,-5.38061 -5.27087,-8.56516 -1.09811,-3.18441 -1.64716,-6.5336 -1.64715,-10.04759 -10e-6,-4.61193 0.93337,-8.7847 2.80015,-12.51832 1.86675,-3.73344 4.44728,-6.91792 7.74159,-9.55345 3.29427,-2.74514 7.24742,-4.83152 11.85946,-6.25916 4.72178,-1.53722 9.88283,-2.30589 15.48318,-2.306 8.23567,1.1e-4 15.70273,1.37273 22.40119,4.11786 6.80813,2.74535 13.01238,7.02793 18.61276,12.84775 l -14.65961,13.17717 c -6.91808,-7.24736 -15.70286,-10.87107 -26.35434,-10.87117 -5.60035,1e-4 -9.99273,1.04329 -13.17718,3.12958 -3.07471,1.97667 -4.61204,4.72191 -4.61201,8.23574 -3e-5,1.53741 0.27449,2.91003 0.82357,4.11786 0.54902,1.09818 1.4824,2.14137 2.80015,3.12958 1.31768,0.87855 3.07464,1.70213 5.27087,2.47072 2.30597,0.76874 5.16102,1.53741 8.56517,2.30601 7.35719,1.5374 13.50654,3.07474 18.44804,4.61201 4.94137,1.5374 8.94942,3.07473 12.02417,4.61201 4.94136,2.52568 8.8396,6.25921 11.69474,11.2006 2.85496,4.83167 4.28249,10.26725 4.28259,16.30675" style="" id="path4110"/>
    </g>
    <rect style="fill:#ffffff;fill-opacity:1;stroke:none" id="rect4000" width="990" height="540" x="45" y="467.35974" rx="90" ry="90"/>
    <g style="font-size:518.73199463px;font-style:normal;font-variant:normal;font-weight:normal;font-stretch:normal;text-align:center;line-height:125%;letter-spacing:0px;word-spacing:0px;text-anchor:middle;fill:#006b54;fill-opacity:1;stroke:none;font-family:Roadgeek 2005 Series D;-inkscape-font-specification:Roadgeek 2005 Series D" id="text4010">
      <path d="m 272.93405,911.13495 c 0.6916,-20.40344 3.28526,-39.07777 7.78098,-56.02306 4.49563,-16.94517 11.58496,-33.71749 21.26801,-50.317 7.26218,-13.14109 16.25352,-25.24483 26.97406,-36.31124 10.72036,-11.41195 22.13246,-21.61367 34.23631,-30.60519 3.11227,-1.72893 5.87884,-3.45803 8.29972,-5.18732 2.42061,-2.07474 4.84136,-3.97676 7.26224,-5.70605 l 18.67436,-9.85591 17.11815,-9.85591 16.59943,-9.33717 c 6.91622,-4.49546 12.44936,-10.0286 16.59942,-16.59942 4.49546,-6.91619 6.7433,-14.00552 6.74352,-21.26802 -2.2e-4,-6.57034 -1.72933,-12.62221 -5.18732,-18.15562 -3.45843,-5.87868 -8.12701,-10.89309 -14.00577,-15.04322 -5.53333,-4.14957 -12.10393,-7.43487 -19.71181,-9.85591 -7.60824,-2.42045 -15.73504,-3.63083 -24.38041,-3.63113 -17.63702,3e-4 -31.98859,4.15015 -43.05475,12.44957 -10.72056,8.29999 -17.46407,20.40373 -20.23055,36.31124 l -54.98559,-11.93083 c 5.87892,-29.04871 19.36594,-51.69998 40.46109,-67.9539 21.09501,-16.59907 47.03158,-24.89878 77.8098,-24.89913 16.59926,3.5e-4 31.98829,2.76692 46.16715,8.29971 14.52428,5.53348 26.97384,12.96863 37.3487,22.30548 10.72022,9.33749 19.19283,20.40376 25.41787,33.19884 6.22452,12.44985 9.33691,25.76396 9.33718,39.94237 -2.7e-4,13.48727 -3.11266,26.80137 -9.33718,39.94236 -5.87922,12.79559 -14.52474,24.20768 -25.9366,34.23631 -2.7668,2.0751 -5.36046,3.97712 -7.78098,5.70605 -2.07515,1.72928 -4.32299,3.11256 -6.74351,4.14986 l -17.11816,10.89337 -18.67435,9.85591 -17.11816,9.85591 c -8.29987,4.84163 -15.73502,10.02894 -22.30547,15.56196 -6.22493,5.18743 -12.10388,10.89348 -17.63689,17.11815 -5.18744,6.22488 -10.20185,13.1413 -15.04323,20.74928 -4.49579,7.60815 -8.81855,16.25367 -12.9683,25.9366 l 170.66283,0 0,56.02306 -236.54179,0" style="" id="path4153"/>
      <path d="m 807.17126,796.49518 c -2.6e-4,17.63698 -2.93974,33.89057 -8.81844,48.76081 -5.87921,14.87036 -14.17892,27.66574 -24.89914,38.38616 -10.37486,10.37466 -22.99732,18.67436 -37.86743,24.89914 -14.52468,5.87896 -30.60535,8.81844 -48.24208,8.81844 -14.1788,0 -27.49291,-2.24784 -39.94236,-6.74351 -12.10384,-4.49568 -23.34302,-10.72045 -33.71758,-18.67436 -10.02888,-7.95386 -18.67441,-17.63685 -25.9366,-29.04899 -7.26229,-11.41204 -12.62251,-24.20742 -16.08069,-38.38616 l 53.94812,-15.56196 c 4.14977,16.94533 11.75783,29.91361 22.82421,38.9049 11.06617,8.9914 24.89901,13.48708 41.49856,13.48703 9.33702,5e-5 17.80963,-1.55615 25.41787,-4.66859 7.60789,-3.11234 14.00558,-7.26219 19.19308,-12.44957 5.53295,-5.53307 9.85571,-11.93076 12.9683,-19.19308 3.11219,-7.60798 4.66838,-15.90768 4.66859,-24.89914 -2.1e-4,-8.99123 -1.72931,-17.46385 -5.18732,-25.41787 -3.45841,-7.95374 -8.29991,-14.17852 -14.5245,-18.67435 -2.07511,-1.38313 -3.97713,-2.42059 -5.70605,-3.11239 -1.38347,-1.0373 -3.28548,-1.72895 -5.70605,-2.07493 -2.0751,-0.34566 -5.01458,-0.69148 -8.81844,-1.03746 -3.45838,-0.34566 -8.47279,-0.69148 -15.04323,-1.03747 l -6.22479,0 0,-56.02305 0,1.55619 1.5562,0 1.03746,0 10.89338,0 c 11.06611,2.2e-4 19.53872,-2.93926 25.41786,-8.81844 5.87877,-5.87873 8.81825,-14.35134 8.81845,-25.41787 -2e-4,-13.48676 -4.84169,-24.55304 -14.5245,-33.19884 -9.33735,-8.99107 -21.09526,-13.48674 -35.27377,-13.48704 -23.17016,3e-4 -40.63411,11.41239 -52.39194,34.23632 l -51.35446,-19.19309 c 8.9913,-22.13226 22.47832,-39.42331 40.46109,-51.8732 18.32843,-12.79504 38.90478,-19.19273 61.72911,-19.19308 14.52434,3.5e-4 28.18427,2.76692 40.97983,8.29971 13.14101,5.53348 24.5531,13.14154 34.23631,22.82421 9.68277,9.68331 17.29083,21.0954 22.82421,34.23631 5.53289,12.79566 8.29946,26.45559 8.29971,40.97983 -2.5e-4,10.37487 -1.38353,19.71204 -4.14986,28.01153 -2.76681,8.29992 -7.95413,17.98291 -15.56196,29.04899 6.57037,5.87914 11.9306,11.58519 16.0807,17.11815 4.1496,5.18749 7.4349,10.72063 9.8559,16.59943 2.76631,5.87911 4.66833,12.2768 5.70605,19.19308 1.03721,6.57074 1.55594,14.1788 1.5562,22.82421" style="" id="path4155"/>
    </g>
  </g>
</svg>