<?xml version="1.0" encoding="UTF-8" standalone="no"?>
<svg xmlns="http://www.w3.org/2000/svg" xml:space="preserve" width="294.10156" height="294.10156">
  <path fill="#fff" stroke="#000" stroke-width="1.50000006" d="M20.18815.732075h253.746c10.68925 0 19.429875 8.742875 19.429875 19.43225V273.9127c0 10.682125-8.740625 19.4275-19.429875 19.4275h-253.746c-10.6845 0-19.43225-8.745375-19.43225-19.4275V20.164325C.7559 9.47495 9.50365.732075 20.18815.732075z"/>
  <path fill="#0b335e" fill-rule="evenodd" d="M20.18815 5.608575h253.746c8.007375 0 14.555625 6.550625 14.555625 14.55575V273.9127c0 7.997875-6.54825 14.55325-14.555625 14.55325h-253.746c-8.002625 0-14.551-6.555375-14.551-14.55325V20.164325c0-8.005125 6.548375-14.55575 14.551-14.55575"/>
  <path fill="#fff" fill-rule="evenodd" d="M20.18815 12.92445h253.746c3.983375 0 7.238375 3.255 7.238375 7.238375v253.7485c0 3.981-3.255 7.238375-7.238375 7.238375h-253.746c-3.97625 0-7.2385-3.257375-7.2385-7.238375v-253.7485c0-3.983375 3.26225-7.238375 7.2385-7.238375"/>
  <path fill="#aa0c31" fill-rule="evenodd" d="m254.906025 186.04195-.57075-.408375c-.437.589875-.7475.771375-1.18925.771375-.351125 0-.707-.1385-1.850875-.771375-2.55525-1.3135-5.2085-1.9965-8.024125-1.9965-2.739125 0-4.898.5445-6.62225 1.72425-2.2855 1.54275-3.658625 4.086125-3.658625 6.8945 0 1.9535.754625 3.85925 1.9845 5.12975 1.19175 1.268125 2.961375 2.178 6.1375 3.17375l3.572625 1.134375c2.3715.73075 3.078375.99825 3.873625 1.49975 1.062625.5875 1.674 1.588125 1.674 2.67475 0 2.455-2.68425 4.133875-6.52675 4.133875-3.7445 0-8.024125-1.94875-8.024125-3.63475 0-.222125.05-.40125.174375-.9505l-.611375-.363-3.9285 7.443875.621.317625c.706875-.680625.87875-.81675 1.18925-.81675.174375 0 .348625.045.57075.136125.929.4035 1.588125.725875 1.944.862125 2.818 1.31575 5.7315 2.00125 8.647375 2.00125 6.832375 0 11.3245-3.727875 11.3245-9.39975 0-4.5375-2.466875-7.26225-8.422875-9.07725L243.4454 195.3437c-2.827625-.9075-2.827625-.9075-3.620375-1.2705-1.0055-.546875-1.626375-1.363625-1.626375-2.26875 0-1.860375 2.11825-3.17375 5.158375-3.17375 3.30275 0 6.834875 1.674 6.834875 3.2215 0 .222125-.0475.45375-.3105.9935l.573125.41075 4.4515-7.2145zm-32.629 12.072c4.898-1.452 8.071875-4.99125 8.071875-9.07725 0-3.17625-1.72425-5.399625-4.145875-5.399625-2.0705 0-3.48425 1.540375-3.48425 3.856875 0 2.1325 1.368375 3.5845 3.398375 3.5845.396375 0 .747375-.0425 1.54025-.274625-.396375 2.500375-1.93675 4.1315-5.380375 5.628875v1.68125zm-7.8045 4.215h-6.9685l3.532-10.932875 3.4365 10.932875zm1.189375 4.449125 1.32775 4.219875c.434625 1.270375.434625 1.270375.434625 1.633375 0 .546875-.26025.771375-1.2275 1.046v.77375h8.817v-.77375c-1.151125-.274625-1.459125-.637625-2.158875-2.583875l-7.627625-23.69025c-.35825-1.17975-.403625-1.268125-.403625-1.54275 0-.499125.308-.728375 1.237-.905125v-.77375h-9.390125v.77375c.88125.17675 1.19175.406 1.19175.905125 0 .274625-.183875.9505-.35825 1.54275l-7.888 23.69025c-.620875 1.94625-.931375 2.30925-2.03475 2.583875v.77375h7.986v-.77375c-.929-.317625-1.189375-.499125-1.189375-1.046 0-.363.12375-.862.3965-1.633375l1.363625-4.219875h9.523875zm-24.738625-2.089625-.570875.41075c.174375.499125.21975.728375.21975 1.134375 0 1.9535-2.729625 3.7685-5.77925 3.7685-4.762 0-7.799625-4.1745-7.799625-10.71325 0-6.48375 3.037625-10.658125 7.84975-10.658125 2.9995 0 5.729125 1.767125 5.729125 3.76125 0 .413125-.045.637625-.21975 1.134375l.570875.41075 5.33975-6.715375-.530125-.45375c-.5325.317625-.883625.45375-1.191625.45375-.3965 0-.88125-.22925-1.6335-.769-2.99475-2.180375-4.93625-2.815625-8.334625-2.815625-4.009625 0-7.009125 1.31825-9.390125 4.04075-2.55525 2.9445-3.92125 6.982875-3.92125 11.611 0 4.678375 1.366 8.71675 3.92125 11.66375 2.381 2.72475 5.421125 4.0455 9.30175 4.0455 3.135625 0 5.468875-.730875 7.811625-2.412125 1.58575-1.13425 1.76-1.222625 2.244875-1.222625.262625 0 .659125.133625 1.191625.45375l.530125-.406-5.33975-6.722625zM166.1894 186.493325c0-.85975.39875-1.315875 1.368375-1.538v-.77375h-8.28925v.77375c1.01025.269875 1.366.67825 1.366 1.538V212.1347c0 .862125-.35575 1.225-1.366 1.542625v.77375h8.28925v-.77375c-1.017375-.274625-1.368375-.6805-1.368375-1.542625v-25.641375zm-28.000875 10.71075V189.0367h6.48375c3.26225 0 4.762 1.268 4.762 4.03825 0 2.81325-1.547625 4.129125-4.762 4.129125h-6.48375zm0 4.855h4.898l4.800125 9.621875c.308125.587375.44425.998125.44425 1.315875 0 .45125-.35825.63275-1.18925.7235v.73075h9.30175v-.73075c-1.1415-.222125-2.11825-1.134375-3.001875-2.808375l-4.762-9.488125c4.0575-1.131875 6.26175-4.03825 6.26175-8.258125 0-2.498-.831125-4.812125-2.330875-6.44075-1.810125-1.865125-3.930875-2.543375-8.16025-2.543375h-13.184875v.77375c1.015.269875 1.366.67825 1.366 1.538V212.1347c0 .862125-.351 1.225-1.366 1.585625v.73075h8.286875v-.73075c-1.017375-.317625-1.363625-.7235-1.363625-1.585625v-10.075625zm-25.624625-.905h7.14525c.88125 0 1.277625.362875 1.5475 1.4495h.706875v-7.489125h-.706875c-.269875 1.048375-.706875 1.406625-1.5475 1.406625h-7.14525V189.0367h12.306c.878875 0 1.234625.362875 1.545125 1.4065h.706875v-7.670625h-.706875c-.2675 1.046-.706875 1.409-1.545125 1.409h-19.226875v.77375c1.017375.269875 1.366.67825 1.366 1.538V212.1347c0 .862125-.348625 1.225-1.366 1.542625v.77375h19.70925c.888375 0 1.277625.37025 1.5475 1.411375h.706875v-7.632375h-.706875c-.310375.99825-.706875 1.36125-1.5475 1.36125H112.5639v-8.43725zm-27.819375 13.297L94.4929 192.6642v19.4705c0 .862125-.35825 1.268-1.375625 1.542625v.77375h8.294v-.77375c-1.06275-.317625-1.363625-.6805-1.363625-1.542625v-25.641375c0-.85975.351125-1.268125 1.363625-1.538v-.77375H90.78415v.77375c.833375.136125 1.23225.451375 1.23225.9505 0 .269875 0 .269875-.611375 1.772l-6.40025 14.56275-6.213875-14.56275c-.269875-.73075-.4465-1.272875-.4465-1.683625 0-.53975.396375-.862125 1.24175-1.038875v-.77375H68.994775v.77375c1.017375.269875 1.37325.67825 1.37325 1.538V212.1347c0 .862125-.355875 1.225-1.37325 1.542625v.77375h7.763875v-.77375c-1.007875-.317625-1.366-.6805-1.366-1.542625v-19.4705l9.351875 21.786875zM56.47865 202.32895h-6.968625l3.5225-10.932875 3.446125 10.932875zm1.18925 4.449125 1.320625 4.219875c.441875 1.270375.441875 1.270375.441875 1.633375 0 .546875-.260375.771375-1.237125 1.046v.77375h8.817v-.77375c-1.1415-.274625-1.449625-.637625-2.158875-2.583875l-7.62775-23.69025c-.348625-1.17975-.396375-1.268125-.396375-1.54275 0-.499125.308125-.728375 1.237-.905125v-.77375h-9.39725v.77375c.89075.17675 1.19175.406 1.19175.905125 0 .274625-.17675.9505-.34875 1.54275l-7.89275 23.69025c-.616125 1.94625-.926625 2.30925-2.029875 2.583875v.77375h7.9835v-.77375c-.926625-.317625-1.19175-.499125-1.19175-1.046 0-.363.129-.862.398875-1.633375l1.366-4.219875H57.6679zm170.83775 29.083375-.57075-.408375c-.444125.5875-.754625.769-1.18925.769-.35825 0-.706875-.131375-1.860375-.769-2.55525-1.31825-5.1965-1.9965-8.024125-1.9965-2.729625 0-4.898.5445-6.61275 1.729-2.2925 1.538-3.658625 4.076625-3.658625 6.897 0 1.94625.7475 3.854375 1.984625 5.12725 1.191625 1.268125 2.954125 2.17325 6.13025 3.173875l3.57025 1.13675c2.381.721125 3.087875.995875 3.883125 1.497375 1.05325.589875 1.674125 1.585625 1.674125 2.677 0 2.447875-2.691375 4.12675-6.52675 4.12675-3.754125 0-8.024125-1.9535-8.024125-3.627625 0-.22925.04125-.41075.17425-.957625l-.6185-.35825-3.92125 7.439125.611375.317625c.706875-.675875.881125-.81675 1.191625-.81675.1815 0 .355875.0425.578.140875.92175.403625 1.588.72125 1.939125.855 2.82275 1.31825 5.729125 2.008375 8.642625 2.008375 6.8325 0 11.334125-3.73025 11.334125-9.402125 0-4.535-2.467-7.259875-8.42775-9.07725l-3.749375-1.175c-2.815625-.909875-2.815625-.909875-3.610875-1.277625-1.015-.537375-1.6335-1.3565-1.6335-2.263875 0-1.86275 2.11825-3.181 5.158375-3.181 3.31 0 6.8325 1.683625 6.8325 3.223875 0 .226875-.03875.456125-.308125 1.000625l.580375.408375 4.451375-7.216875zm-33.646375 15.8405 7.849875-14.295375c1.143875-2.221 1.366-2.455 2.4215-2.6365v-.769h-8.59725v.769c.88125.1815 1.191625.4155 1.191625.819125 0 .27225-.17425.771375-.530125 1.452l-4.938625 9.4355-5.024625-9.4355c-.3105-.5875-.5325-1.17975-.5325-1.452 0-.403625.35575-.637625 1.191625-.819125v-.769H178.9759v.769c1.065125.1815 1.287125.4155 2.42875 2.6365l7.8975 14.295375v10.257c0 .855-.355875 1.22275-1.363625 1.538v.77125h8.284375v-.77125c-1.0125-.269875-1.363625-.683-1.363625-1.538v-10.257zm-23.191125.451375h-6.970875l3.52725-10.93775 3.443625 10.93775zm1.189375 4.446625 1.31825 4.219875c.444125 1.272875.444125 1.272875.444125 1.6335 0 .5445-.262625.77375-1.237 1.043625v.77125h8.814625v-.77125c-1.141625-.269875-1.452-.632875-2.1565-2.58875l-7.625375-23.6855c-.351-1.182125-.39875-1.268125-.39875-1.54275 0-.494375.310375-.728375 1.237-.909875v-.769h-9.394875v.769c.888375.1815 1.18925.4155 1.18925.909875 0 .274625-.17675.95525-.351 1.54275l-7.89525 23.6855c-.61125 1.955875-.92175 2.318875-2.025125 2.58875v.77125h7.986v-.77125c-.929-.31525-1.19175-.499125-1.19175-1.043625 0-.360625.126625-.862125.398875-1.6335l1.363625-4.219875h9.523875zm-54.736-22.598875v.769c1.1965.274625 1.77675 1.000625 2.388125 3.087875l6.834875 23.186375c.358125 1.091375.358125 1.091375.358125 1.452 0 .54925-.39875.866875-1.239375 1.000625v.77125h8.208v-.77125c-.929-.226875-1.2395-.406-1.2395-.862125 0-.27225.0475-.35825.35825-1.5905l4.055125-15.47275 3.7875 15.47275c.308125 1.366.308125 1.366.308125 1.5905 0 .456125-.260375.63525-1.189375.862125v.77125h8.382375v-.77125c-.843-.13375-1.239375-.451375-1.239375-1.000625 0-.360625 0-.360625.35575-1.452l6.83725-23.186375c.57075-2.08725 1.18925-2.81325 2.381-3.087875v-.769h-8.47075v.769c.96725.274625 1.277625.59225 1.277625 1.1845 0 .1815 0 .1815-.310375 1.452l-4.711875 16.652375-3.969-16.652375c-.3105-1.134375-.3105-1.134375-.3105-1.49975 0-.637625.355875-.95525 1.325375-1.13675v-.769h-8.3345v.769c1.017375.1815 1.363625.456125 1.363625 1.13675 0 .365375 0 .365375-.308125 1.49975l-4.31775 16.652375-4.761875-16.652375c-.3105-1.2705-.3105-1.2705-.3105-1.49975 0-.5445.34875-.862125 1.277625-1.13675v-.769h-8.785875zm-9.471375 17.700875 7.85225-14.295375c1.1415-2.221 1.366-2.455 2.419125-2.6365v-.769h-8.594875v.769c.88125.1815 1.19175.4155 1.19175.819125 0 .27225-.17675.771375-.532625 1.452l-4.93625 9.4355-5.027-9.4355c-.308125-.5875-.532625-1.17975-.532625-1.452 0-.403625.360625-.637625 1.19175-.819125v-.769h-8.914875v.769c1.065125.1815 1.287125.4155 2.431125 2.6365l7.895125 14.295375v10.257c0 .855-.34625 1.22275-1.36125 1.538v.77125h8.286875v-.77125c-1.017375-.269875-1.3685-.683-1.3685-1.538v-10.257zm-33.558 7.708875V250.4697h6.524375c3.706375 0 5.468875 1.409 5.468875 4.494375 0 3.040125-1.7625 4.44675-5.468875 4.44675H75.09215zm0-13.567v-6.98525h5.953625c3.618 0 5.03175.995875 5.03175 3.491375 0 2.498-1.459125 3.493875-5.03175 3.493875H75.09215zm-6.923125-11.84275v.769c1.01725.274625 1.366.683 1.366 1.5475v25.641375c0 .855-.34875 1.22275-1.366 1.538v.77125h14.51025c3.3505 0 5.287375-.499 7.056875-1.857875 2.02275-1.502125 3.087875-3.904625 3.087875-6.856375 0-3.992875-1.94625-6.62225-5.6025-7.575125 3.123625-1.635875 4.229375-3.269375 4.229375-6.352375 0-2.22575-.745125-4.219875-2.111125-5.490375-1.635875-1.54275-3.572625-2.135-7.32675-2.135h-13.844z"/>
  <path fill="#0b335e" fill-rule="evenodd" d="M36.35665 86.40745c2.980375-4.984 7.486875-8.573375 12.80525-12.15325 17.836875-11.60625 35.876875-22.434125 54.358625-31.5495 18.422-7.751875 33.441-10.944875 43.487875-7.479625 6.763125 7.16675 13.189625 13.875 19.955125 21.04175-2.163625-.2125-4.547.706875-6.044375 1.23225 1.017375 1.304 1.600125 1.858 2.736875 3.47475 1.977375-1.160625 4.81925-1.56425 6.507625-1.010125 4.50875 4.363125 8.814625 8.525625 13.32575 12.88875 8.334625-4.325 17.065625-7.474875 25.849125-10.517375 9.256375-3.2025 15.382-4.5565 20.538-3.9715 4.026375 2.4145 7.8665 4.7405 11.892875 7.154875-1.497375.07375-3.2765.551625-4.480125 1.4185.812.905125 1.788625 1.380375 2.634125 2.235375 1.693125-1.012625 2.980375-1.327875 4.933875-1.69325 4.991125 4.282 9.98475 8.56625 14.978375 12.853-7.166875 1.635875-13.5025 5.055625-19.568375 9.581125-8.036125 5.996625-16.4495 11.503625-24.6455 17.294875-4.812125 3.400625-9.78425 6.073-15.219625 7.009125-3.14275.855-4.346375-.15525-3.625125-3.03775 1.1295-4.129 2.254375-8.258125 3.3815-12.38475.3225-5.6885-3.2215-7.634875-10.6295-5.84375-9.865375 2.531375-17.039375 7.205-24.3995 12.392-31.466 21.989875-62.27775 45.77325-92.29175 69.637875C66.3134 159.24545 59.7914 143.5077 53.2694 127.7747c7.790125-8.260625 16.36825-15.50375 26.09275-21.26875-1.289625-1.946375-2.818-4.358375-4.10525-6.307-9.905875 5.609625-18.2835 12.303625-25.61025 19.159875-4.432375-10.983-8.862375-21.968375-13.29-32.951375"/>
  <path fill="#fff" fill-rule="evenodd" d="M133.4154 67.8712c4.673625-2.96125 9.937-5.354125 16.065-6.91125 1.404125 1.578625 2.3355 2.232875 3.742125 3.813875C147.3454 66.4192 141.7404 68.8552 136.407775 72.08145c-1.155875-1.709875-1.8365-2.497875-2.992375-4.21025m62.117125 17.2545c.79775.92425 1.595375 1.8485 2.393 2.775 3.109375-2.18275 6.23775-4.14575 9.84625-5.124875-.874125-1.155875-1.194125-1.5905-2.068125-2.746375-3.823375 1.038875-7.121375 2.8275-10.171125 5.09625m22.5705-10.653c.89075.809625 1.7815 1.803125 2.488375 2.794125 3.31-1.89375 7.0785-3.567875 10.76575-4.217375-.9505-1.139125-1.688375-2.051375-2.638875-2.73925-3.907.687875-7.36025 2.175625-10.61525 4.1625m-86.4565 8.6895H112.7229l-5.8485-18.60825-5.8485 18.60825H82.102275L97.41265 94.661075l-5.8485 18.605875 15.31025-11.496375 15.310375 11.496375-5.848625-18.605875L131.646525 83.1622z"/>
</svg>