<?xml version="1.0" encoding="UTF-8" standalone="no"?>
<!-- Created with Inkscape (http://www.inkscape.org/) -->

<svg
   xmlns:dc="http://purl.org/dc/elements/1.1/"
   xmlns:cc="http://creativecommons.org/ns#"
   xmlns:rdf="http://www.w3.org/1999/02/22-rdf-syntax-ns#"
   xmlns:svg="http://www.w3.org/2000/svg"
   xmlns="http://www.w3.org/2000/svg"
   xmlns:sodipodi="http://sodipodi.sourceforge.net/DTD/sodipodi-0.dtd"
   xmlns:inkscape="http://www.inkscape.org/namespaces/inkscape"
   id="svg17624"
   version="1.1"
   inkscape:version="0.48.2 r9819"
   width="294.10156"
   height="152.30469"
   xml:space="preserve"
   sodipodi:docname="MUTCD D6-4.svg"><metadata
     id="metadata17630"><rdf:RDF><cc:Work
         rdf:about=""><dc:format>image/svg+xml</dc:format><dc:type
           rdf:resource="http://purl.org/dc/dcmitype/StillImage" /><dc:title></dc:title></cc:Work></rdf:RDF></metadata><defs
     id="defs17628"><inkscape:perspective
       sodipodi:type="inkscape:persp3d"
       inkscape:vp_x="0 : 0.5 : 1"
       inkscape:vp_y="0 : 1000 : 0"
       inkscape:vp_z="1 : 0.5 : 1"
       inkscape:persp3d-origin="0.5 : 0.33333333 : 1"
       id="perspective17632" /><clipPath
       clipPathUnits="userSpaceOnUse"
       id="clipPath17642"><path
         d="m -2,710 501,0 0,-711 -501,0 0,711 z"
         id="path17644"
         inkscape:connector-curvature="0" /></clipPath><clipPath
       clipPathUnits="userSpaceOnUse"
       id="clipPath17648"><path
         d="m 0,708.06 498,0 0,-708 -498,0 0,708 z"
         id="path17650"
         inkscape:connector-curvature="0" /></clipPath><clipPath
       clipPathUnits="userSpaceOnUse"
       id="clipPath17798"><path
         d="m -2,710 501,0 0,-711 -501,0 0,711 z"
         id="path17800"
         inkscape:connector-curvature="0" /></clipPath><clipPath
       clipPathUnits="userSpaceOnUse"
       id="clipPath17804"><path
         d="m 0,708.06 498,0 0,-708 -498,0 0,708 z"
         id="path17806"
         inkscape:connector-curvature="0" /></clipPath><clipPath
       id="Clip0"><path
         inkscape:connector-curvature="0"
         d="m 0,0 212.597,0 0,269.292 L 0,269.292 0,0 z"
         transform="translate(0.923828,0.879883)"
         id="path7" /></clipPath><clipPath
       id="Clip0-8"><path
         inkscape:connector-curvature="0"
         d="m 0,0 170.079,0 0,113.386 L 0,113.386 0,0 z"
         transform="translate(0.0986328,0.822266)"
         id="path7-8" /></clipPath><clipPath
       id="Clip0-1"><path
         inkscape:connector-curvature="0"
         d="m 0,0 287.009,0 0,159.449 L 0,159.449 0,0 z"
         transform="translate(0.396484,0.267578)"
         id="path7-7" /></clipPath><clipPath
       id="Clip0-9"><path
         inkscape:connector-curvature="0"
         d="m 0,0 170.079,0 0,170.079 L 0,170.079 0,0 z"
         transform="translate(0.460938,0.775391)"
         id="path7-4" /></clipPath><clipPath
       id="Clip0-4"><path
         inkscape:connector-curvature="0"
         d="m 0,0 340.157,0 0,226.771 L 0,226.771 0,0 z"
         transform="translate(0.921875,0.25293)"
         id="path7-5" /></clipPath><clipPath
       id="Clip0-5"><path
         inkscape:connector-curvature="0"
         d="m 0,0 255.119,0 0,170.079 L 0,170.079 0,0 z"
         transform="translate(0.147461,0.0595703)"
         id="path7-1" /></clipPath><clipPath
       id="Clip0-0"><path
         inkscape:connector-curvature="0"
         d="m 0,0 170.079,0 0,113.386 L 0,113.386 0,0 z"
         transform="translate(0.0673828,0.207031)"
         id="path7-9" /></clipPath></defs><sodipodi:namedview
     pagecolor="#ffffff"
     bordercolor="#666666"
     borderopacity="1"
     objecttolerance="10"
     gridtolerance="10"
     guidetolerance="10"
     inkscape:pageopacity="0"
     inkscape:pageshadow="2"
     inkscape:window-width="1280"
     inkscape:window-height="1004"
     id="namedview17626"
     showgrid="false"
     inkscape:zoom="2.8284271"
     inkscape:cx="103.64314"
     inkscape:cy="62.589542"
     inkscape:window-x="-8"
     inkscape:window-y="-8"
     inkscape:window-maximized="1"
     inkscape:current-layer="g17634"
     fit-margin-top="0"
     fit-margin-left="0"
     fit-margin-right="0"
     fit-margin-bottom="0"
     showguides="true"
     inkscape:guide-bbox="true" /><g
     id="g17634"
     inkscape:groupmode="layer"
     inkscape:label="GG1999P002"
     transform="matrix(1.25,0,0,-1.25,-5643.1641,7582.9687)"><path
       d="m 4530.6668,6065.7689 202.9968,0 c 8.5553,0 15.5477,-6.9924 15.5477,-15.5457 l 0,-89.5397 c 0,-8.5476 -6.9924,-15.5438 -15.5477,-15.5438 l -202.9968,0 c -8.5476,0 -15.5439,6.9962 -15.5439,15.5438 l 0,89.5397 c 0,8.5533 6.9963,15.5457 15.5439,15.5457 z"
       style="fill:#ffffff;stroke:#000000;stroke-width:1.20000005;stroke-linecap:butt;stroke-linejoin:miter;stroke-miterlimit:4;stroke-opacity:1;stroke-dasharray:none"
       id="path6769"
       inkscape:connector-curvature="0" /><path
       d="m 4530.6668,6061.866 202.9968,0 c 6.406,0 11.6484,-5.2386 11.6484,-11.6426 l 0,-89.5397 c 0,-6.3983 -5.2424,-11.6407 -11.6484,-11.6407 l -202.9968,0 c -6.4021,0 -11.6407,5.2424 -11.6407,11.6407 l 0,89.5397 c 0,6.404 5.2386,11.6426 11.6407,11.6426"
       style="fill:#0b335e;fill-opacity:1;fill-rule:evenodd;stroke:none"
       id="path6773"
       inkscape:connector-curvature="0" /><path
       d="m 4530.6668,6056.0112 202.9968,0 c 3.1906,0 5.7908,-2.604 5.7908,-5.7869 l 0,-89.5415 c 0,-3.1829 -2.6002,-5.7908 -5.7908,-5.7908 l -202.9968,0 c -3.1829,0 -5.7908,2.6079 -5.7908,5.7908 l 0,89.5415 c 0,3.1829 2.6079,5.7869 5.7908,5.7869"
       style="fill:#ffffff;fill-opacity:1;fill-rule:evenodd;stroke:none"
       id="path6777"
       inkscape:connector-curvature="0" /><path
       d="m 4652.1367,5971.109 -0.2427,0.1528 c -0.1776,-0.2197 -0.3133,-0.2866 -0.4948,-0.2866 -0.1452,0 -0.2999,0.052 -0.7776,0.2866 -1.0622,0.4929 -2.1703,0.7508 -3.3491,0.7508 -1.1463,0 -2.0461,-0.2044 -2.7588,-0.6495 -0.9514,-0.5751 -1.5379,-1.5227 -1.5379,-2.5773 0,-0.7241 0.3171,-1.4367 0.833,-1.9143 0.4967,-0.4738 1.238,-0.8139 2.56,-1.1845 l 1.4998,-0.4242 c 0.9896,-0.2732 1.2839,-0.3744 1.6125,-0.5598 0.4432,-0.2197 0.6935,-0.5941 0.6935,-0.9972 0,-0.9171 -1.1119,-1.5476 -2.7282,-1.5476 -1.559,0 -3.3396,0.728 -3.3396,1.3546 0,0.086 0.019,0.1528 0.071,0.3611 l -0.2598,0.1318 -1.6316,-2.7798 0.2541,-0.1203 c 0.2981,0.2541 0.3688,0.3056 0.4968,0.3056 0.074,0 0.1452,-0.015 0.2388,-0.052 0.3802,-0.149 0.6667,-0.2732 0.8062,-0.3209 1.1826,-0.4929 2.3958,-0.747 3.6147,-0.747 2.8581,0 4.7323,1.3927 4.7323,3.5115 0,1.6946 -1.0298,2.7167 -3.5192,3.3892 l -1.5666,0.4432 c -1.1768,0.3401 -1.1768,0.3401 -1.515,0.4777 -0.4184,0.2006 -0.6725,0.5082 -0.6725,0.8425 0,0.6954 0.8884,1.1864 2.1531,1.1864 1.3852,0 2.8582,-0.6228 2.8582,-1.2036 0,-0.078 -0.019,-0.1643 -0.1338,-0.3706 l 0.2427,-0.1529 1.8608,2.6938 z m -13.6296,-4.5069 c 2.0443,0.5407 3.3721,1.8627 3.3721,3.3911 0,1.1865 -0.7203,2.0194 -1.7348,2.0194 -0.8616,0 -1.4558,-0.5788 -1.4558,-1.4443 0,-0.7948 0.5789,-1.3393 1.4253,-1.3393 0.1566,0 0.3114,0.019 0.6342,0.1051 -0.1623,-0.9342 -0.8005,-1.5456 -2.241,-2.1054 l 0,-0.6266 z m -3.2574,-1.5743 -2.9116,0 1.4749,4.0847 1.4367,-4.0847 z m 0.4948,-1.664 0.5522,-1.5762 c 0.1834,-0.4776 0.1834,-0.4776 0.1834,-0.6152 0,-0.2006 -0.1089,-0.2827 -0.5139,-0.3878 l 0,-0.2904 3.6815,0 0,0.2904 c -0.4815,0.1051 -0.6075,0.2388 -0.8979,0.9629 l -3.1906,8.8552 c -0.1471,0.4394 -0.1719,0.4776 -0.1719,0.577 0,0.1834 0.1413,0.2732 0.5215,0.3362 l 0,0.2923 -3.9241,0 0,-0.2923 c 0.3725,-0.063 0.5024,-0.1528 0.5024,-0.3362 0,-0.099 -0.078,-0.3573 -0.149,-0.577 l -3.2937,-8.8552 c -0.2618,-0.7241 -0.3898,-0.8578 -0.8521,-0.9629 l 0,-0.2904 3.3357,0 0,0.2904 c -0.3878,0.1204 -0.4948,0.1872 -0.4948,0.3878 0,0.1376 0.048,0.321 0.1624,0.6152 l 0.5713,1.5762 3.9776,0 z m -10.332,0.7795 -0.235,-0.1529 c 0.067,-0.1872 0.094,-0.2732 0.094,-0.426 0,-0.7317 -1.1424,-1.4062 -2.4148,-1.4062 -1.9851,0 -3.2651,1.559 -3.2651,4.0045 0,2.4206 1.28,3.9795 3.2804,3.9795 1.2571,0 2.3995,-0.6591 2.3995,-1.4061 0,-0.1528 -0.027,-0.235 -0.094,-0.4222 l 0.235,-0.1528 2.2277,2.5123 -0.2159,0.1681 c -0.2235,-0.1204 -0.3726,-0.1681 -0.5006,-0.1681 -0.1681,0 -0.3687,0.082 -0.682,0.2865 -1.2514,0.8139 -2.0634,1.0527 -3.4867,1.0527 -1.6736,0 -2.9288,-0.4967 -3.9165,-1.5112 -1.0756,-1.1004 -1.6392,-2.6078 -1.6392,-4.3387 0,-1.752 0.5636,-3.2593 1.6392,-4.3636 0.9877,-1.0145 2.2601,-1.5074 3.8802,-1.5074 1.3125,0 2.2869,0.2732 3.2651,0.8998 0.661,0.4261 0.7431,0.4586 0.9399,0.4586 0.1089,0 0.2771,-0.052 0.5006,-0.1682 l 0.2159,0.1491 -2.2277,2.5123 z m -10.3282,6.7975 c 0,0.321 0.1605,0.493 0.5675,0.5751 l 0,0.2923 -3.4638,0 0,-0.2923 c 0.426,-0.097 0.5712,-0.2541 0.5712,-0.5751 l 0,-9.5811 c 0,-0.321 -0.1452,-0.4547 -0.5712,-0.5751 l 0,-0.2904 3.4638,0 0,0.2904 c -0.4261,0.1051 -0.5675,0.2541 -0.5675,0.5751 l 0,9.5811 z m -11.698,-3.9948 0,3.0472 2.7053,0 c 1.3584,0 1.9812,-0.4738 1.9812,-1.5112 0,-1.0469 -0.642,-1.536 -1.9812,-1.536 l -2.7053,0 z m 0,-1.8188 2.0443,0 2.0002,-3.5956 c 0.1261,-0.2216 0.1873,-0.3745 0.1873,-0.4929 0,-0.1681 -0.1433,-0.235 -0.4929,-0.2694 l 0,-0.2751 3.8802,0 0,0.2751 c -0.4814,0.082 -0.8884,0.4222 -1.2571,1.0489 l -1.985,3.5459 c 1.6946,0.4203 2.6231,1.5074 2.6231,3.0854 0,0.9324 -0.3515,1.7978 -0.9744,2.4073 -0.7603,0.6973 -1.6487,0.9514 -3.4102,0.9514 l -5.5042,0 0,-0.2923 c 0.4261,-0.097 0.556,-0.2541 0.556,-0.5751 l 0,-9.5811 c 0,-0.321 -0.1299,-0.4547 -0.556,-0.5904 l 0,-0.2751 3.4523,0 0,0.2751 c -0.426,0.1204 -0.5636,0.2694 -0.5636,0.5904 l 0,3.7675 z m -10.7026,0.3362 2.9861,0 c 0.3687,0 0.533,-0.1375 0.6496,-0.5445 l 0.2827,0 0,2.8027 -0.2827,0 c -0.1166,-0.3916 -0.3,-0.5292 -0.6496,-0.5292 l -2.9861,0 0,2.8008 5.1316,0 c 0.3802,0 0.5139,-0.1375 0.6495,-0.5292 l 0.2981,0 0,2.8696 -0.2981,0 c -0.1165,-0.3917 -0.2923,-0.5254 -0.6495,-0.5254 l -8.0261,0 0,-0.2923 c 0.4242,-0.097 0.577,-0.2541 0.577,-0.5751 l 0,-9.5811 c 0,-0.321 -0.1528,-0.4547 -0.577,-0.5751 l 0,-0.2904 8.2343,0 c 0.3707,0 0.5331,-0.1356 0.6496,-0.5273 l 0.298,0 0,2.8524 -0.298,0 c -0.1337,-0.3707 -0.2904,-0.5082 -0.6496,-0.5082 l -5.3398,0 0,3.1523 z m -11.6235,-4.9692 4.0674,8.1407 0,-7.2752 c 0,-0.321 -0.1414,-0.47 -0.5674,-0.5751 l 0,-0.2904 3.4637,0 0,0.2904 c -0.4413,0.1204 -0.5712,0.2541 -0.5712,0.5751 l 0,9.5811 c 0,0.321 0.1452,0.4777 0.5712,0.5751 l 0,0.2923 -4.4342,0 0,-0.2923 c 0.3439,-0.048 0.5082,-0.1681 0.5082,-0.3534 0,-0.1051 0,-0.1051 -0.2541,-0.6611 l -2.6671,-5.4449 -2.6078,5.4449 c -0.1051,0.2732 -0.1873,0.4738 -0.1873,0.6267 0,0.2063 0.172,0.3248 0.5254,0.3878 l 0,0.2923 -4.4171,0 0,-0.2923 c 0.4184,-0.097 0.5713,-0.2541 0.5713,-0.5751 l 0,-9.5811 c 0,-0.321 -0.1529,-0.4547 -0.5713,-0.5751 l 0,-0.2904 3.2383,0 0,0.2904 c -0.426,0.1204 -0.5712,0.2541 -0.5712,0.5751 l 0,7.2752 3.9032,-8.1407 z m -11.8051,4.5336 -2.9077,0 1.4672,4.0847 1.4405,-4.0847 z m 0.4949,-1.664 0.5521,-1.5762 c 0.1872,-0.4776 0.1872,-0.4776 0.1872,-0.6152 0,-0.2006 -0.1089,-0.2827 -0.5139,-0.3878 l 0,-0.2904 3.6815,0 0,0.2904 c -0.4814,0.1051 -0.6075,0.2388 -0.9017,0.9629 l -3.1867,8.8552 c -0.1471,0.4394 -0.172,0.4776 -0.172,0.577 0,0.1834 0.1261,0.2732 0.5178,0.3362 l 0,0.2923 -3.9204,0 0,-0.2923 c 0.3726,-0.063 0.491,-0.1528 0.491,-0.3362 0,-0.099 -0.067,-0.3573 -0.1375,-0.577 l -3.2957,-8.8552 c -0.2598,-0.7241 -0.3878,-0.8578 -0.8501,-0.9629 l 0,-0.2904 3.3242,0 0,0.2904 c -0.3725,0.1204 -0.4871,0.1872 -0.4871,0.3878 0,0.1376 0.052,0.321 0.17,0.6152 l 0.5674,1.5762 3.9739,0 z"
       style="fill:#aa0c31;fill-opacity:1;fill-rule:evenodd;stroke:none"
       id="path6781"
       inkscape:connector-curvature="0" /><path
       d="m 4728.8243,5971.1164 -0.2388,0.149 c -0.1872,-0.2197 -0.321,-0.2904 -0.4967,-0.2904 -0.1529,0 -0.2981,0.055 -0.7757,0.2904 -1.0756,0.493 -2.1799,0.747 -3.3587,0.747 -1.1463,0 -2.0423,-0.2044 -2.7587,-0.6457 -0.9515,-0.5751 -1.5284,-1.5227 -1.5284,-2.5773 0,-0.7279 0.3171,-1.4405 0.8234,-1.9143 0.5044,-0.4776 1.2476,-0.8139 2.5601,-1.1883 l 1.4921,-0.4242 c 0.9973,-0.2693 1.2953,-0.3744 1.6277,-0.5559 0.4356,-0.2235 0.6974,-0.598 0.6974,-1.0011 0,-0.9171 -1.1234,-1.5437 -2.7244,-1.5437 -1.5743,0 -3.3549,0.7317 -3.3549,1.3545 0,0.086 0.019,0.1529 0.078,0.3573 l -0.2599,0.1318 -1.6392,-2.7779 0.2541,-0.1222 c 0.2981,0.2541 0.3668,0.3057 0.4967,0.3057 0.082,0 0.1567,-0.011 0.2389,-0.052 0.3954,-0.1491 0.6686,-0.2656 0.8138,-0.3172 1.175,-0.4929 2.3958,-0.7508 3.6109,-0.7508 2.8581,0 4.7323,1.3966 4.7323,3.5115 0,1.6984 -1.0259,2.7167 -3.5153,3.395 l -1.5705,0.4413 c -1.1749,0.3362 -1.1749,0.3362 -1.5035,0.4738 -0.4261,0.2006 -0.6878,0.5082 -0.6878,0.8463 0,0.6955 0.8884,1.1903 2.1608,1.1903 1.3774,0 2.8504,-0.6305 2.8504,-1.2036 0,-0.086 -0.013,-0.1681 -0.126,-0.3783 l 0.2388,-0.1528 1.8627,2.7014 z m -14.0537,-5.9206 3.2689,5.3436 c 0.4853,0.8273 0.5789,0.9171 1.0183,0.9801 l 0,0.2885 -3.5898,0 0,-0.2885 c 0.3706,-0.063 0.4967,-0.1528 0.4967,-0.3018 0,-0.1013 -0.071,-0.2904 -0.2235,-0.5445 l -2.0557,-3.5268 -2.1054,3.5268 c -0.1299,0.2159 -0.2159,0.4432 -0.2159,0.5445 0,0.149 0.1414,0.2388 0.4891,0.3018 l 0,0.2885 -3.7217,0 0,-0.2885 c 0.4528,-0.063 0.5426,-0.1528 1.0164,-0.9801 l 3.3014,-5.3436 0,-3.8363 c 0,-0.3172 -0.1567,-0.4509 -0.5713,-0.5751 l 0,-0.2827 3.4638,0 0,0.2827 c -0.4261,0.1051 -0.5713,0.2579 -0.5713,0.5751 l 0,3.8363 z m -9.6862,-0.1682 -2.9231,0 1.4826,4.0885 1.4405,-4.0885 z m 0.4967,-1.6602 0.5522,-1.58 c 0.1815,-0.4776 0.1815,-0.4776 0.1815,-0.6113 0,-0.2006 -0.1109,-0.2866 -0.5178,-0.3917 l 0,-0.2827 3.6892,0 0,0.2827 c -0.4834,0.1051 -0.619,0.2388 -0.9018,0.9706 l -3.1905,8.8513 c -0.149,0.4394 -0.1681,0.4738 -0.1681,0.577 0,0.1834 0.1261,0.2732 0.512,0.3362 l 0,0.2885 -3.9242,0 0,-0.2885 c 0.3821,-0.063 0.5006,-0.1528 0.5006,-0.3362 0,-0.1032 -0.071,-0.3611 -0.1529,-0.577 l -3.288,-8.8513 c -0.2598,-0.7318 -0.384,-0.8655 -0.8463,-0.9706 l 0,-0.2827 3.3357,0 0,0.2827 c -0.3955,0.1242 -0.4967,0.1911 -0.4967,0.3917 0,0.1337 0.046,0.3247 0.1605,0.6113 l 0.5712,1.58 3.9834,0 z m -22.8649,8.4406 0,-0.2885 c 0.5005,-0.1012 0.7432,-0.3725 0.9973,-1.1482 l 2.8505,-8.6679 c 0.1528,-0.407 0.1528,-0.407 0.1528,-0.5426 0,-0.2044 -0.1643,-0.3248 -0.5158,-0.3764 l 0,-0.2827 3.4217,0 0,0.2827 c -0.384,0.086 -0.5101,0.1529 -0.5101,0.321 0,0.1051 0.019,0.1375 0.1452,0.598 l 1.6946,5.7792 1.5819,-5.7792 c 0.1337,-0.512 0.1337,-0.512 0.1337,-0.598 0,-0.1681 -0.1146,-0.235 -0.4967,-0.321 l 0,-0.2827 3.5019,0 0,0.2827 c -0.3591,0.052 -0.5311,0.172 -0.5311,0.3764 0,0.1356 0,0.1356 0.1529,0.5426 l 2.8657,8.6679 c 0.235,0.7757 0.4967,1.047 0.9858,1.1482 l 0,0.2885 -3.5459,0 0,-0.2885 c 0.407,-0.1012 0.5426,-0.2197 0.5426,-0.4394 0,-0.071 0,-0.071 -0.1356,-0.5407 l -1.9621,-6.2244 -1.6564,6.2244 c -0.128,0.4204 -0.128,0.4204 -0.128,0.5579 0,0.2388 0.1528,0.3592 0.5521,0.4222 l 0,0.2885 -3.4886,0 0,-0.2885 c 0.4337,-0.063 0.5789,-0.1681 0.5789,-0.4222 0,-0.1375 0,-0.1375 -0.1261,-0.5579 l -1.8111,-6.2244 -1.9889,6.2244 c -0.1261,0.47 -0.1261,0.47 -0.1261,0.5579 0,0.2025 0.1414,0.321 0.5331,0.4222 l 0,0.2885 -3.6682,0 z m -3.9586,-6.6122 3.2842,5.3436 c 0.4776,0.8273 0.5674,0.9171 1.0106,0.9801 l 0,0.2885 -3.5898,0 0,-0.2885 c 0.363,-0.063 0.4891,-0.1528 0.4891,-0.3018 0,-0.1013 -0.067,-0.2904 -0.2197,-0.5445 l -2.0595,-3.5268 -2.1016,3.5268 c -0.1337,0.2159 -0.2159,0.4432 -0.2159,0.5445 0,0.149 0.1376,0.2388 0.4968,0.3018 l 0,0.2885 -3.7294,0 0,-0.2885 c 0.4528,-0.063 0.5388,-0.1528 1.0164,-0.9801 l 3.3014,-5.3436 0,-3.8363 c 0,-0.3172 -0.1529,-0.4509 -0.5713,-0.5751 l 0,-0.2827 3.46,0 0,0.2827 c -0.4261,0.1051 -0.5713,0.2579 -0.5713,0.5751 l 0,3.8363 z m -14.0154,-2.8811 0,3.3396 2.7243,0 c 1.5552,0 2.2869,-0.5273 2.2869,-1.6793 0,-1.1349 -0.7317,-1.6603 -2.2869,-1.6603 l -2.7243,0 z m 0,5.0705 0,2.6078 2.4894,0 c 1.5073,0 2.0958,-0.3687 2.0958,-1.301 0,-0.9381 -0.6037,-1.3068 -2.0958,-1.3068 l -2.4894,0 z m -2.8887,4.4228 0,-0.2885 c 0.426,-0.1012 0.5636,-0.2541 0.5636,-0.5788 l 0,-9.5812 c 0,-0.3172 -0.1376,-0.4509 -0.5636,-0.5751 l 0,-0.2827 6.0563,0 c 1.4042,0 2.2124,0.1853 2.9402,0.6897 0.8521,0.5636 1.303,1.4634 1.303,2.5638 0,1.4922 -0.8177,2.4742 -2.3518,2.8276 1.3182,0.6152 1.7729,1.2246 1.7729,2.3767 0,0.8291 -0.3095,1.5799 -0.8884,2.0499 -0.6782,0.5808 -1.4768,0.7986 -3.0549,0.7986 l -5.7773,0 z"
       style="fill:#aa0c31;fill-opacity:1;fill-rule:evenodd;stroke:none"
       id="path6785"
       inkscape:connector-curvature="0" /><path
       d="m 4529.6447,6019.737 c 1.7442,2.9212 4.3827,5.0209 7.4987,7.1167 10.4447,6.7995 21.0079,13.1385 31.8309,18.4765 10.7886,4.5393 19.5827,6.4078 25.4651,4.3788 3.9624,-4.1954 7.7242,-8.1234 11.6866,-12.3208 -1.2667,0.1261 -2.6614,-0.4127 -3.5383,-0.7222 0.5942,-0.7642 0.9362,-1.087 1.6029,-2.0347 1.1578,0.6802 2.8199,0.9171 3.8096,0.5923 2.6422,-2.5543 5.1622,-4.9922 7.8044,-7.5484 4.8813,2.5333 9.9919,4.3789 15.1369,6.1595 5.4201,1.8761 9.0081,2.6689 12.0267,2.325 2.3575,-1.4137 4.6062,-2.7759 6.9637,-4.1878 -0.8769,-0.044 -1.9181,-0.3248 -2.6231,-0.8311 0.4757,-0.5311 1.047,-0.81 1.5437,-1.3086 0.9896,0.5922 1.7443,0.7775 2.8868,0.9896 2.925,-2.5066 5.848,-5.017 8.7711,-7.5255 -4.1955,-0.9571 -7.9057,-2.9613 -11.4592,-5.6111 -4.7037,-3.5115 -9.6309,-6.7365 -14.43,-10.1276 -2.818,-1.9908 -5.7316,-3.5574 -8.9145,-4.1038 -1.8379,-0.5024 -2.5467,0.09 -2.1206,1.7787 0.661,2.4168 1.3182,4.8355 1.9793,7.2542 0.1891,3.3281 -1.8857,4.4687 -6.2245,3.4198 -5.7754,-1.4826 -9.9766,-4.2184 -14.2867,-7.2561 -18.4287,-12.8768 -36.4716,-26.8063 -54.0463,-40.7797 -3.821,9.2143 -7.6401,18.4306 -11.4592,27.6431 4.5604,4.8374 9.5831,9.0806 15.2802,12.4564 -0.7565,1.1387 -1.6507,2.5506 -2.4053,3.6911 -5.8003,-3.2841 -10.7046,-7.2045 -14.9994,-11.2204 -2.5925,6.4346 -5.1851,12.8654 -7.7795,19.2961"
       style="fill:#0b335e;fill-opacity:1;fill-rule:evenodd;stroke:none"
       id="path6789"
       inkscape:connector-curvature="0" /><path
       d="m 4586.4803,6030.5925 c 2.7377,1.7348 5.8193,3.1371 9.4073,4.0484 0.8253,-0.9247 1.3679,-1.3087 2.1913,-2.2353 -3.4408,-0.9629 -6.723,-2.39 -9.8467,-4.2776 -0.6763,1.0011 -1.0737,1.4634 -1.7519,2.4645"
       style="fill:#ffffff;fill-opacity:1;fill-rule:evenodd;stroke:none"
       id="path6793"
       inkscape:connector-curvature="0" /><path
       d="m 4622.8563,6020.4877 c 0.4661,-0.5407 0.9342,-1.0814 1.4023,-1.6239 1.8188,1.2781 3.6529,2.4282 5.764,3.0014 -0.5101,0.6763 -0.6993,0.9304 -1.2113,1.6086 -2.2372,-0.6094 -4.1687,-1.6583 -5.955,-2.9861"
       style="fill:#ffffff;fill-opacity:1;fill-rule:evenodd;stroke:none"
       id="path6797"
       inkscape:connector-curvature="0" /><path
       d="m 4636.0731,6026.7274 c 0.5235,-0.4757 1.0432,-1.0565 1.4577,-1.6373 1.9392,1.1081 4.1439,2.0882 6.3047,2.4703 -0.5559,0.6667 -0.9896,1.2017 -1.5456,1.6048 -2.2888,-0.4031 -4.3101,-1.2743 -6.2168,-2.4378"
       style="fill:#ffffff;fill-opacity:1;fill-rule:evenodd;stroke:none"
       id="path6801"
       inkscape:connector-curvature="0" /><path
       d="m 4585.4448,6021.6397 -11.0829,0 -3.4236,10.8956 -3.4255,-10.8956 -11.0791,0 8.9641,-6.7364 -3.4236,-10.8956 8.9641,6.7345 8.966,-6.7345 -3.4236,10.8956 8.9641,6.7364 z"
       style="fill:#ffffff;fill-opacity:1;fill-rule:evenodd;stroke:none"
       id="path6805"
       inkscape:connector-curvature="0" /></g></svg>