<?xml version="1.0" encoding="UTF-8" standalone="no"?>
<!-- Created with Inkscape (http://www.inkscape.org/) -->

<svg
   xmlns:dc="http://purl.org/dc/elements/1.1/"
   xmlns:cc="http://creativecommons.org/ns#"
   xmlns:rdf="http://www.w3.org/1999/02/22-rdf-syntax-ns#"
   xmlns:svg="http://www.w3.org/2000/svg"
   xmlns="http://www.w3.org/2000/svg"
   xmlns:sodipodi="http://sodipodi.sourceforge.net/DTD/sodipodi-0.dtd"
   xmlns:inkscape="http://www.inkscape.org/namespaces/inkscape"
   id="svg17624"
   version="1.1"
   inkscape:version="0.48.2 r9819"
   width="685.35156"
   height="548.90625"
   xml:space="preserve"
   sodipodi:docname="AJAX1.svg"><metadata
     id="metadata17630"><rdf:RDF><cc:Work
         rdf:about=""><dc:format>image/svg+xml</dc:format><dc:type
           rdf:resource="http://purl.org/dc/dcmitype/StillImage" /><dc:title /></cc:Work></rdf:RDF></metadata><defs
     id="defs17628"><inkscape:perspective
       sodipodi:type="inkscape:persp3d"
       inkscape:vp_x="0 : 0.5 : 1"
       inkscape:vp_y="0 : 1000 : 0"
       inkscape:vp_z="1 : 0.5 : 1"
       inkscape:persp3d-origin="0.5 : 0.33333333 : 1"
       id="perspective17632" /><clipPath
       clipPathUnits="userSpaceOnUse"
       id="clipPath17642"><path
         d="m -2,710 501,0 0,-711 -501,0 0,711 z"
         id="path17644"
         inkscape:connector-curvature="0" /></clipPath><clipPath
       clipPathUnits="userSpaceOnUse"
       id="clipPath17648"><path
         d="m 0,708.06 498,0 0,-708 -498,0 0,708 z"
         id="path17650"
         inkscape:connector-curvature="0" /></clipPath><clipPath
       clipPathUnits="userSpaceOnUse"
       id="clipPath17798"><path
         d="m -2,710 501,0 0,-711 -501,0 0,711 z"
         id="path17800"
         inkscape:connector-curvature="0" /></clipPath><clipPath
       clipPathUnits="userSpaceOnUse"
       id="clipPath17804"><path
         d="m 0,708.06 498,0 0,-708 -498,0 0,708 z"
         id="path17806"
         inkscape:connector-curvature="0" /></clipPath><clipPath
       id="Clip0"><path
         inkscape:connector-curvature="0"
         d="m 0,0 212.597,0 0,269.292 L 0,269.292 0,0 z"
         transform="translate(0.923828,0.879883)"
         id="path7" /></clipPath><clipPath
       id="Clip0-8"><path
         inkscape:connector-curvature="0"
         d="m 0,0 170.079,0 0,113.386 L 0,113.386 0,0 z"
         transform="translate(0.0986328,0.822266)"
         id="path7-8" /></clipPath><clipPath
       id="Clip0-1"><path
         inkscape:connector-curvature="0"
         d="m 0,0 287.009,0 0,159.449 L 0,159.449 0,0 z"
         transform="translate(0.396484,0.267578)"
         id="path7-7" /></clipPath><clipPath
       id="Clip0-9"><path
         inkscape:connector-curvature="0"
         d="m 0,0 170.079,0 0,170.079 L 0,170.079 0,0 z"
         transform="translate(0.460938,0.775391)"
         id="path7-4" /></clipPath><clipPath
       id="Clip0-4"><path
         inkscape:connector-curvature="0"
         d="m 0,0 340.157,0 0,226.771 L 0,226.771 0,0 z"
         transform="translate(0.921875,0.25293)"
         id="path7-5" /></clipPath><clipPath
       id="Clip0-5"><path
         inkscape:connector-curvature="0"
         d="m 0,0 255.119,0 0,170.079 L 0,170.079 0,0 z"
         transform="translate(0.147461,0.0595703)"
         id="path7-1" /></clipPath><clipPath
       id="Clip0-0"><path
         inkscape:connector-curvature="0"
         d="m 0,0 170.079,0 0,113.386 L 0,113.386 0,0 z"
         transform="translate(0.0673828,0.207031)"
         id="path7-9" /></clipPath></defs><sodipodi:namedview
     pagecolor="#ffffff"
     bordercolor="#666666"
     borderopacity="1"
     objecttolerance="10"
     gridtolerance="10"
     guidetolerance="10"
     inkscape:pageopacity="0"
     inkscape:pageshadow="2"
     inkscape:window-width="1280"
     inkscape:window-height="1004"
     id="namedview17626"
     showgrid="false"
     inkscape:zoom="1"
     inkscape:cx="259.48443"
     inkscape:cy="375.1526"
     inkscape:window-x="-8"
     inkscape:window-y="-8"
     inkscape:window-maximized="1"
     inkscape:current-layer="g17634"
     fit-margin-top="0"
     fit-margin-left="0"
     fit-margin-right="0"
     fit-margin-bottom="0"
     showguides="true"
     inkscape:guide-bbox="true" /><g
     id="g17634"
     inkscape:groupmode="layer"
     inkscape:label="GG1999P002"
     transform="matrix(1.25,0,0,-1.25,-3327.1875,-2462.0703)"><path
       d="m 2688.4212,-1970.8685 494.9375,0 c 14.0345,0 25.4811,-11.4427 25.4811,-25.4733 l 0,-385.7662 c 0,-14.0307 -11.4466,-25.4811 -25.4811,-25.4811 l -494.9375,0 c -14.0346,0 -25.4733,11.4504 -25.4733,25.4811 l 0,385.7662 c 0,13.8555 11.6216,25.4733 25.4733,25.4733"
       style="fill:#ffffff;fill-opacity:1;fill-rule:nonzero;stroke:#000000;stroke-width:2.4000001;stroke-linecap:butt;stroke-linejoin:miter;stroke-miterlimit:4;stroke-opacity:1;stroke-dasharray:none"
       id="path5851"
       inkscape:connector-curvature="0" /><path
       d="m 3183.2309,-1981.7872 c 8.1811,-0.2296 14.5289,-6.4723 14.6885,-14.6963 l -0.024,-386.377 c -0.5411,-7.753 -6.9044,-13.7507 -14.6652,-13.8051 l -495.5601,0.024 c -7.7295,0.615 -13.7817,6.8422 -13.8088,14.669 l 0.028,386.3772 c 0.5449,7.7529 6.9044,13.7505 14.673,13.8089 l 494.6688,0"
       style="fill:#00674c;fill-opacity:1;fill-rule:evenodd;stroke:none"
       id="path5855"
       inkscape:connector-curvature="0" /><path
       d="m 3162.3493,-2098.2052 0,72.7459 -11.4931,0 0,-46.4513 -26.5397,46.4513 -11.4893,0 0,-72.7459 11.4893,0 0,49.2692 27.824,-49.2692 10.2088,0 z m -76.8325,36.2465 c 0,-5.6124 -1.2687,-12.7582 -2.8061,-16.5878 -2.5532,-6.3791 -5.877,-9.1892 -11.2363,-9.1892 -4.5964,0 -7.6518,1.7865 -9.9559,5.6124 -2.8061,4.5926 -4.3395,12.509 -4.3395,20.1646 0,6.13 1.0236,12.7658 2.8101,17.1054 2.5492,6.3791 6.126,9.1852 11.7382,8.9323 4.3397,-0.2531 7.1536,-1.7865 9.4499,-5.6201 2.8023,-4.8456 4.3396,-12.2444 4.3396,-20.4176 m 11.4777,0 c 0,9.1852 -1.7787,18.3781 -4.8417,24.7572 -4.5926,8.9399 -10.9756,13.0227 -20.1686,13.0227 -8.4223,0 -14.2914,-2.5492 -18.6273,-8.1734 -4.8532,-6.8849 -7.9124,-17.6035 -7.9124,-29.6065 0,-8.6754 2.0394,-18.3781 5.0986,-24.5003 4.3396,-8.9361 10.7225,-13.0617 20.9313,-13.0617 7.6634,0 13.5248,2.592 17.6154,8.2162 5.0984,6.3789 7.9047,17.8604 7.9047,29.3458 m -67.1259,36.4994 -11.7344,0 0,-72.7459 11.7344,0 0,72.7459 z m -22.4609,-10.2088 0,10.2088 -44.9179,0 0,-10.2088 16.5841,0 0,-62.5371 11.493,0 0,62.5371 16.8408,0 z m -54.3677,-47.724 -10.9715,4.0749 c -2.8141,-5.8653 -6.3831,-8.4185 -11.2403,-8.4185 -5.0985,0 -8.4185,1.7865 -10.9715,5.6124 -2.8063,4.5926 -4.5926,12.509 -4.5926,20.4215 0,6.126 1.0236,12.5089 2.8061,16.8485 2.5532,6.3791 6.3829,8.9323 12.2521,8.9323 5.6162,0 7.9085,-1.5336 11.9951,-7.6596 l 10.7226,4.5926 c -4.8495,10.2126 -11.7422,14.8092 -22.7177,14.8092 -8.1693,0 -14.2955,-2.8139 -18.639,-8.1734 -5.0946,-6.3789 -8.1616,-17.8643 -8.1616,-29.3496 0,-9.1892 2.0394,-18.3743 5.3593,-24.757 4.5888,-8.9361 11.4893,-13.0617 22.208,-13.0617 10.4657,0 17.6153,5.4021 21.951,16.1284 m -65.0863,-14.8131 0,72.7459 -11.4855,0 0,-46.4513 -26.5553,46.4513 -11.4814,0 0,-72.7459 11.4814,0 0,49.2692 27.828,-49.2692 10.2128,0 z m -66.6277,26.0377 0,46.7082 -11.4815,0 0,-46.7082 c 0,-9.4419 -5.3592,-15.568 -13.2795,-15.568 -7.9125,0 -13.2718,6.1261 -13.2718,15.568 l 0,46.7082 -11.4854,0 0,-46.7082 c 0,-5.6161 1.2805,-10.7225 3.3276,-15.0622 3.822,-7.1458 12.5013,-12.2908 21.4296,-12.2908 8.94,0 17.6152,5.1452 21.4451,12.2908 2.0432,4.3399 3.3159,9.4461 3.3159,15.0622 m -66.6121,-4.0827 0,50.7909 -11.7422,0 0,-48.4947 c 0,-8.6753 -4.3434,-13.7817 -12.2559,-13.7817 -4.8495,0 -8.4263,1.7865 -12.007,6.3791 l -10.4577,-4.8533 c 1.7825,-3.0552 2.8061,-4.3397 4.3357,-5.8731 4.8533,-4.5888 11.4892,-7.4377 18.129,-7.4377 14.2954,0 23.9981,9.4849 23.9981,23.2705"
       style="fill:#ffffff;fill-opacity:1;fill-rule:evenodd;stroke:none"
       id="path5859"
       inkscape:connector-curvature="0" /><path
       d="m 2813.756,-2352.9912 c -9.368,11.2128 -23.4377,18.0511 -38.0679,18.0511 l -3.7869,0 -5.2115,0 c -31.755,0 -57.6604,25.9016 -57.6604,57.6683 0,19.6353 12.5324,34.0474 12.5324,54.3482 0,13.805 -4.6898,28.1277 -12.7619,39.0681 l 41.5591,39.9362 c 8.5506,-7.2237 20.0556,-11.7929 31.4592,-11.7929 11.5982,0 23.3755,4.3707 31.9379,11.9719 8.5508,-7.6012 20.332,-11.9719 31.9263,-11.9719 11.4037,0 22.9085,4.5692 31.4631,11.7929 l 41.5514,-39.9362 c -8.0644,-10.9404 -12.762,-25.2631 -12.762,-39.0681 0,-20.3008 12.5324,-34.7129 12.5324,-54.3482 0,-31.7667 -25.9054,-57.6683 -57.6605,-57.6683 l -5.2036,0 -3.7947,0 c -14.6263,0 -28.6999,-6.8383 -38.0524,-18.0511"
       style="fill:#ffffff;fill-opacity:1;fill-rule:evenodd;stroke:none"
       id="path5863"
       inkscape:connector-curvature="0" /><path
       d="m 3056.5407,-2143.6209 c 57.6252,0 104.6293,-47 104.6293,-104.6294 0,-57.6214 -47.0041,-104.6293 -104.6293,-104.6293 -57.6332,0 -104.6333,47.0079 -104.6333,104.6293 0,57.6294 47.0001,104.6294 104.6333,104.6294"
       style="fill:#ffffff;fill-opacity:1;fill-rule:evenodd;stroke:none"
       id="path5871"
       inkscape:connector-curvature="0" /><path
       d="m 2892.1259,-2211.2373 0,17.234 -73.8978,0 0,-17.234 52.0715,0 c -3.8297,-6.1222 -8.4223,-14.163 -12.256,-22.5893 -10.7187,-22.9629 -15.3113,-44.0343 -15.6966,-69.3092 l 17.6153,0 c 0,10.7264 0.7629,17.6231 2.2924,26.8122 3.4561,17.6153 10.7264,35.9934 20.297,52.0715 3.4522,5.7485 5.7446,8.0448 9.5742,13.0148 m -110.658,-49.0084 -31.0116,0 31.0116,40.9714 0,-40.9714 z m 27.5673,-15.6966 0,15.6966 -10.3373,0 0,66.2424 -17.23,0 -53.9901,-71.6017 0,-10.3373 53.9901,0 0,-27.1935 17.23,0 0,27.1935 10.3373,0 z"
       style="fill:#000000;fill-opacity:1;fill-rule:evenodd;stroke:none"
       id="path5867"
       inkscape:connector-curvature="0" /><path
       d="m 3095.9087,-2267.1396 c 0,10.7264 -2.2885,16.4711 -10.3411,23.7414 4.6082,6.8927 6.1378,11.4931 6.1378,18.0005 0,18.3704 -14.9377,33.308 -33.3119,33.308 -14.171,0 -26.4191,-8.4223 -32.1638,-22.204 l 16.082,-6.126 c 3.8297,7.2741 9.189,10.7186 16.4631,10.7186 8.8077,0 15.7044,-6.126 15.7044,-14.5485 0,-6.8966 -3.8297,-10.7185 -10.7264,-10.7185 l -3.4522,0 -0.3697,0 -0.3892,0 0,0.3774 0,-17.6114 1.907,0 c 8.0449,-0.3891 8.4301,-0.3891 11.1078,-2.2963 3.8297,-2.6776 6.126,-8.0408 6.126,-13.7894 0,-11.104 -8.033,-19.1332 -19.5223,-19.1332 -10.3373,0 -17.6192,5.7329 -20.2969,16.4595 l -16.8486,-4.978 c 4.6042,-17.6153 18.7634,-29.1629 36.3788,-29.1629 22.2041,0 37.5152,15.7665 37.5152,37.9628"
       style="fill:#000000;fill-opacity:1;fill-rule:evenodd;stroke:none"
       id="path5875"
       inkscape:connector-curvature="0" /></g></svg>