<?xml version="1.0" encoding="UTF-8" standalone="no"?>
<!-- Created with Inkscape (http://www.inkscape.org/) -->

<svg
   xmlns:dc="http://purl.org/dc/elements/1.1/"
   xmlns:cc="http://creativecommons.org/ns#"
   xmlns:rdf="http://www.w3.org/1999/02/22-rdf-syntax-ns#"
   xmlns:svg="http://www.w3.org/2000/svg"
   xmlns="http://www.w3.org/2000/svg"
   xmlns:sodipodi="http://sodipodi.sourceforge.net/DTD/sodipodi-0.dtd"
   xmlns:inkscape="http://www.inkscape.org/namespaces/inkscape"
   width="2169.9915"
   height="1089.9974"
   id="svg2934"
   version="1.1"
   inkscape:version="0.48.2 r9819"
   sodipodi:docname="MUTCD M1-8a.svg">
  <defs
     id="defs2936">
    <inkscape:perspective
       sodipodi:type="inkscape:persp3d"
       inkscape:vp_x="0 : 526.18109 : 1"
       inkscape:vp_y="0 : 1000 : 0"
       inkscape:vp_z="744.09448 : 526.18109 : 1"
       inkscape:persp3d-origin="372.04724 : 350.78739 : 1"
       id="perspective2942" />
    <inkscape:perspective
       id="perspective2924"
       inkscape:persp3d-origin="0.5 : 0.33333333 : 1"
       inkscape:vp_z="1 : 0.5 : 1"
       inkscape:vp_y="0 : 1000 : 0"
       inkscape:vp_x="0 : 0.5 : 1"
       sodipodi:type="inkscape:persp3d" />
    <clipPath
       id="Clip0">
      <path
         inkscape:connector-curvature="0"
         d="m 0,0 0,1296.5 864.5,0 L 864.5,0 0,0 z"
         transform="translate(0,0.5)"
         id="path7" />
    </clipPath>
  </defs>
  <sodipodi:namedview
     id="base"
     pagecolor="#ffffff"
     bordercolor="#666666"
     borderopacity="1.0"
     inkscape:pageopacity="0.0"
     inkscape:pageshadow="2"
     inkscape:zoom="0.17376232"
     inkscape:cx="-294.08465"
     inkscape:cy="1917.0512"
     inkscape:document-units="px"
     inkscape:current-layer="g2909"
     showgrid="false"
     inkscape:window-width="1280"
     inkscape:window-height="1004"
     inkscape:window-x="-8"
     inkscape:window-y="-8"
     inkscape:window-maximized="1"
     fit-margin-top="0"
     fit-margin-left="0"
     fit-margin-right="0"
     fit-margin-bottom="0" />
  <metadata
     id="metadata2939">
    <rdf:RDF>
      <cc:Work
         rdf:about="">
        <dc:format>image/svg+xml</dc:format>
        <dc:type
           rdf:resource="http://purl.org/dc/dcmitype/StillImage" />
        <dc:title></dc:title>
      </cc:Work>
    </rdf:RDF>
  </metadata>
  <g
     inkscape:label="Ebene 1"
     inkscape:groupmode="layer"
     id="layer1"
     transform="translate(-53.816528,509.0153)">
    <g
       id="g3018"
       transform="translate(2,-2)">
      <g
         id="g2909"
         transform="matrix(0.80835983,0,0,0.80835983,-165.10178,-177.02766)">
        <path
           inkscape:connector-curvature="0"
           style="fill:#ffffff;fill-rule:nonzero;stroke:#000000;stroke-width:12.37072849;stroke-miterlimit:4;stroke-opacity:1;stroke-dasharray:none"
           d="m 2946.6086,766.99517 c 0,92.23306 -74.7656,167.00484 -167.0048,167.00484 l -2338.06772,0 c -92.23537,0 -167.00483,-74.77178 -167.00483,-167.00484 l 0,-1002.02901 c 0,-92.23533 74.76946,-167.00483 167.00483,-167.00483 l 2338.06772,0 c 92.2392,0 167.0048,74.7695 167.0048,167.00483 l 0,1002.02901 z"
           id="path11" />
        <path
           inkscape:connector-curvature="0"
           style="fill:#000000;fill-rule:nonzero;stroke:none"
           d="m 441.53609,892.2488 c -69.06594,0 -125.25363,-56.18939 -125.25363,-125.25363 l 0,-1002.029 c 0,-69.06593 56.18769,-125.25363 125.25363,-125.25363 l 2338.06771,0 c 69.0596,0 125.2536,56.1877 125.2536,125.25363 l 0,1002.029 c 0,69.06424 -56.194,125.25363 -125.2536,125.25363 l -2338.06771,0 z"
           id="path13" />
        <path
           inkscape:connector-curvature="0"
           style="fill:#ffffff;fill-rule:nonzero;stroke:none"
           d="m 441.53609,822.66345 c -30.6958,0 -55.66828,-24.97186 -55.66828,-55.66828 l 0,-1002.02899 c 0,-30.6958 24.97248,-55.6683 55.66828,-55.6683 l 2338.06771,0 c 30.6949,0 55.6683,24.9725 55.6683,55.6683 l 0,1002.02899 c 0,30.69642 -24.9734,55.66828 -55.6683,55.66828 l -2338.06771,0 z"
           id="path15" />
        <path
           inkscape:connector-curvature="0"
           style="fill:#000000;fill-rule:nonzero;stroke:none"
           d="m 2535.1582,544.3236 -212.9157,-376.98248 0,376.98248 -87.9095,0 0,-556.684369 87.9095,0 203.1429,355.497669 0,-355.497669 87.9095,0 0,556.684369 -78.1367,0 z"
           id="path17" />
        <path
           inkscape:connector-curvature="0"
           style="fill:#000000;fill-rule:nonzero;stroke:none"
           d="m 2011.6599,544.3236 0,-556.684369 89.0692,0 0,556.684369 -89.0692,0 z"
           id="path19" />
        <path
           inkscape:connector-curvature="0"
           style="fill:#000000;fill-rule:nonzero;stroke:none"
           d="m 1081.4414,544.3236 0,-556.684369 327.7269,0 0,87.89716 -239.9442,0 0,136.732119 161.9174,0 0,89.85015 -161.9174,0 0,152.3548 257.5014,0 0,89.85014 -345.2841,0 z"
           id="path21" />
        <path
           inkscape:connector-curvature="0"
           style="fill:#000000;fill-rule:nonzero;stroke:none"
           d="m 844.20948,306.02471 c -11.72126,-3.90605 -17.58035,-3.90605 -37.11373,-3.90605 l -111.34738,0 0,152.3548 132.83379,0 c 44.92894,0 68.36992,-21.48641 68.36992,-64.45923 0,-37.11219 -21.48795,-72.2698 -52.7426,-83.98952 z M 824.6761,75.534851 l -128.92773,0 0,136.730569 105.4852,0 c 25.39556,0 37.11528,-3.90761 52.74415,-15.62733 19.53338,-15.62423 31.25464,-39.06521 31.25464,-64.45768 0,-37.110639 -21.48795,-56.645559 -60.55626,-56.645559 z M 896.95208,530.6524 c -19.53338,7.81366 -52.7426,13.6712 -78.13816,13.6712 l -210.96731,0 0,-556.685869 210.96731,0 c 87.90485,0 154.3202,60.5532 154.3202,140.633529 0,54.69254 -25.39401,95.71542 -78.13507,125.01549 58.60169,27.34704 91.80936,74.22283 91.80936,134.776 0,60.55007 -37.11373,121.10324 -89.85633,142.58965 z"
           id="path23" />
        <path
           inkscape:connector-curvature="0"
           style="fill:#000000;fill-rule:nonzero;stroke:none"
           d="m 1713.3862,554.09029 c -83.9973,0 -132.8338,-31.2531 -166.0415,-101.56986 -23.4394,-48.83191 -37.1137,-117.19719 -37.1137,-185.56093 0,-89.85169 25.3925,-177.748809 62.5062,-226.582269 33.2123,-41.01819963 80.0943,-62.5031 142.6036,-62.5031 85.9518,0 136.7367,35.1607 173.8488,123.057819 l -83.9956,33.20304 c -23.4394,-48.831909 -46.8789,-66.410709 -89.8532,-66.410709 -44.929,0 -74.2337,19.53338 -93.7655,68.365279 -13.6759,33.20613 -21.4895,83.99106 -21.4895,130.86994 0,58.59705 9.7667,117.19719 27.3486,152.3548 17.5803,31.25155 42.9774,44.92585 76.1851,44.92585 56.6471,0 97.6731,-35.15916 97.6731,-85.94409 l 0,-23.43944 -101.5823,0 0,-87.89712 189.4793,0 0,111.33656 c 0,101.56986 -74.2243,175.79423 -175.8034,175.79423 z"
           id="path25" />
      </g>
    </g>
  </g>
</svg>
