<svg xmlns="http://www.w3.org/2000/svg" width="115.2" height="43.2">
    <path d="M-1491.344-4103.823a5.206 5.206 0 0 1 5.197-5.195h132.12a5.205 5.205 0 0 1 5.193 5.195v43.05a5.204 5.204 0 0 1-5.194 5.196h-132.12a5.205 5.205 0 0 1-5.196-5.196v-43.05z" style="fill:#000;fill-opacity:1;fill-rule:evenodd;stroke:none" transform="matrix(.80836 0 0 .80836 1205.543 3321.566)"/>
    <path d="m-1449.95-4059.905-33.081-22.374 33.08-22.411a3.205 3.205 0 0 1 4.446.846c.665.974.543 1.982.238 3.184l-1.91 6.488h89.436v23.786h-89.437l1.843 6.318c.368 1.322.521 2.301-.17 3.317a3.203 3.203 0 0 1-4.445.846" style="fill:#dd7500;fill-opacity:1;fill-rule:evenodd;stroke:none" transform="matrix(.80836 0 0 .80836 1205.543 3321.566)"/>
    <path d="M-1366.818-4086.145c0 .75-.434 1.498-1.119 1.873-.438.252-.75.314-1.625.314h-3.374v-4.373h3.374c.938 0 1.187.062 1.625.313a2.177 2.177 0 0 1 1.12 1.873m3.19 12.807-3.126-8.309c1.624-.75 2.75-2.625 2.75-4.498 0-1.812-1.126-3.687-2.685-4.435-.875-.438-1.813-.561-3.187-.561h-5.871v17.803h2.81v-7.749h3.374l2.874 7.749h3.06zm-15.742-6.373v-11.43h-2.808v11.43c0 2.31-1.312 3.809-3.248 3.809-1.939 0-3.248-1.498-3.248-3.809v-11.43h-2.813v11.43c0 1.374.312 2.623.813 3.685.937 1.75 3.059 3.008 5.248 3.008 2.184 0 4.31-1.257 5.246-3.008.5-1.062.81-2.311.81-3.685m-18.236-2.499c0 1.375-.31 3.123-.685 4.06-.626 1.561-1.438 2.248-2.748 2.248-1.127 0-1.876-.438-2.439-1.373-.688-1.124-1.062-3.06-1.062-4.935 0-1.498.25-3.123.688-4.184.623-1.563 1.499-2.25 2.873-2.188 1.06.063 1.75.438 2.314 1.376.685 1.188 1.059 2.996 1.059 4.996m2.81 0c0-2.248-.436-4.496-1.186-6.06-1.123-2.185-2.683-3.185-4.935-3.185-2.06 0-3.5.625-4.56 2-1.186 1.688-1.934 4.309-1.934 7.245 0 2.125.498 4.497 1.249 5.996 1.06 2.186 2.621 3.196 5.123 3.196 1.873 0 3.306-.636 4.31-2.009 1.246-1.562 1.933-4.371 1.933-7.183m-14.301-6.434v-2.497h-10.994v2.497h4.06v15.306h2.811v-15.306h4.123zm-11.803 15.306v-2.876h-8.245v-4.873h5.183v-2.871h-5.183v-4.373h7.68v-2.81h-10.493v17.803h11.058zm-17.24-8.935c0 2.374-.562 4.31-1.623 5.372-.5.5-1.062.687-1.997.687h-2.813v-12.117h3.187c.747 0 1.373.313 1.81.751.874.934 1.436 2.933 1.436 5.307m2.876 0c0-3.496-1.064-6.309-2.94-7.933-.935-.75-1.623-.935-3.431-.935h-5.75v17.803h6.436c.936-.065 1.873-.376 2.561-1.002 1.997-1.562 3.124-4.373 3.124-7.933" style="fill:#000;fill-opacity:1;fill-rule:evenodd;stroke:none" transform="matrix(.80836 0 0 .80836 1205.543 3321.566)"/>
</svg>
