<svg xmlns="http://www.w3.org/2000/svg" width="57.597" height="28.8">
    <path d="M-1434.431-3851.972h56.412c4.085 0 7.419 3.247 7.419 7.229v21.17c0 3.981-3.334 7.228-7.42 7.228h-56.411c-4.087 0-7.421-3.247-7.421-7.229v-21.17c0-3.98 3.334-7.228 7.42-7.228" style="fill:#dd7500;fill-opacity:1;fill-rule:nonzero;stroke:none" transform="matrix(.80836 0 0 .80836 1165.536 3113.78)"/>
    <path d="M-1378.038-3850.488c3.226.08 5.872 2.487 5.955 5.765.012.509 0 1.019 0 1.528v19.703c0 3.264-2.927 5.654-6.048 5.654H-1427.939c-4.13 0-10.38 1.036-12.109-3.92-.63-1.807-.314-4.13-.314-6v-2.233c0-3.69 0-7.38.01-11.07 0-2.436-.364-5.015 1.163-7.106 2.64-3.272 7.953-2.32 11.677-2.32 14.919 0 11.823 0 26.744-.01h22.739" style="fill:#000;fill-opacity:1;fill-rule:evenodd;stroke:none" transform="matrix(.80836 0 0 .80836 1165.536 3113.78)"/>
    <path d="M-1434.431-3848.26h56.412a3.718 3.718 0 0 1 3.71 3.71v20.784a3.718 3.718 0 0 1-3.71 3.71h-56.412a3.718 3.718 0 0 1-3.712-3.71v-20.783a3.718 3.718 0 0 1 3.712-3.711" style="fill:#dd7500;fill-opacity:1;fill-rule:evenodd;stroke:none" transform="matrix(.80836 0 0 .80836 1165.536 3113.78)"/>
    <path d="M-1379.178-3838.061c0 1.687-.374 2.248-1.623 2.248h-1.502v-4.872h1.128c1.56 0 1.997.624 1.997 2.624m2.312.062c0-3.31-1.435-4.996-4.183-4.996h-3.5v17.803h2.246v-8.309h1.063l2.002 8.309h2.309l-1.81-8.872c1.31-.812 1.873-1.936 1.873-3.935m-11.495 8.433v-13.43h-2.247v13.744c0 1.31-.565 2.06-1.562 2.06-1.062 0-1.625-.75-1.625-2.06v-13.743h-2.25v13.43c0 1.062.127 1.687.314 2.25.626 1.623 1.749 2.446 3.561 2.446 1.562 0 2.56-.574 3.248-1.884.377-.688.56-1.563.56-2.812m-13.367-4.56c0 1.185.252 6.933-1.748 6.933-2.06 0-1.812-5.748-1.812-6.934 0-1.25-.247-6.808 1.812-6.808 1.684 0 1.748 5.372 1.748 6.808m2.375 0c0-2.998.25-9.12-4.123-9.12s-4.122 6.059-4.122 9.12c0 2.937-.316 9.257 4.122 9.257 4.373 0 4.123-6.32 4.123-9.257m-10.245-6.56v-2.31h-6.748v2.31h2.187v15.494h2.251v-15.493h2.31zm-8.184 15.494v-2.312h-4.56v-6.246h2.874v-2.375h-2.873v-4.56h4.311v-2.31h-6.561v17.803h6.809zm-12.431-8.37a54.1 54.1 0 0 1-.188 4.184c-.252 1.313-.686 1.874-1.498 1.874h-1.438v-13.181h1.438c.936 0 1.31.625 1.498 2.56.063 1.252.188 3.25.188 4.562m2.31-.563c0-1.5-.124-3.123-.374-4.56-.126-1.124-.5-2.312-.938-3-.56-.873-1.438-1.31-2.684-1.31h-3.688v17.804h3.688c.999 0 1.873-.311 2.374-.876 1.059-1.186 1.622-3.872 1.622-8.058" style="fill:#000;fill-opacity:1;fill-rule:evenodd;stroke:none" transform="matrix(.80836 0 0 .80836 1165.536 3113.78)"/>
</svg>
