<svg xmlns="http://www.w3.org/2000/svg" width="57.599" height="28.8">
    <path d="M-1462.06-3941.254h56.411c4.086 0 7.42 3.247 7.42 7.23v21.17c0 3.98-3.334 7.228-7.42 7.228h-56.412c-4.088 0-7.422-3.248-7.422-7.228v-21.17c0-3.983 3.334-7.23 7.422-7.23" style="fill:#dd7500;fill-opacity:1;fill-rule:nonzero;stroke:none" transform="matrix(.80836 0 0 .80836 1187.871 3185.951)"/>
    <path d="M-1405.668-3939.77c3.226.08 5.872 2.489 5.957 5.765.01.509 0 1.02 0 1.53V-3912.773c0 3.265-2.927 5.655-6.05 5.655h-49.802c-4.13 0-10.384 1.036-12.113-3.92-.63-1.807-.314-4.13-.314-6v-13.303c0-2.436-.363-5.014 1.165-7.104 2.64-3.274 7.95-2.323 11.678-2.323h49.48" style="fill:#000;fill-opacity:1;fill-rule:evenodd;stroke:none" transform="matrix(.80836 0 0 .80836 1187.871 3185.951)"/>
    <path d="M-1462.06-3937.541h56.411a3.718 3.718 0 0 1 3.71 3.711v20.783a3.719 3.719 0 0 1-3.71 3.711h-56.412a3.72 3.72 0 0 1-3.711-3.711v-20.783a3.718 3.718 0 0 1 3.711-3.711" style="fill:#dd7500;fill-opacity:1;fill-rule:evenodd;stroke:none" transform="matrix(.80836 0 0 .80836 1187.871 3185.951)"/>
    <path d="M-1411.992-3923.408c0 2.437-.874 4.061-2.748 5.061a5.065 5.065 0 0 1-2.562.687h-2.499v-11.432h2.499c.937 0 1.874.25 2.686.686 1.75 1 2.624 2.625 2.624 4.998m3.187 0c0-3.498-1.5-6.185-4.246-7.745a8.487 8.487 0 0 0-4.251-1.125h-5.746v17.805h5.746a8.85 8.85 0 0 0 4.186-1.064c2.811-1.562 4.311-4.31 4.311-7.87m-18.868 8.934v-17.805h-3.06v11.745l-8.184-11.745h-3.123v17.805h3.123v-12.245l8.497 12.245h2.747zm-17.927 0v-3.187h-10.058v-4.872h5.31v-3.25h-5.31v-3.31h9.747v-3.186h-12.995v17.805h13.306z" style="fill:#000;fill-opacity:1;fill-rule:evenodd;stroke:none" transform="matrix(.80836 0 0 .80836 1187.871 3185.951)"/>
</svg>
