<svg xmlns="http://www.w3.org/2000/svg" width="57.599" height="43.2">
    <path d="M-1446.95-3902.959h56.412c4.085 0 7.42 3.248 7.42 7.23v38.983c0 3.982-3.335 7.23-7.42 7.23h-56.412c-4.087 0-7.42-3.248-7.42-7.23v-38.983c0-3.982 3.333-7.23 7.42-7.23" style="fill:#dd7500;fill-opacity:1;fill-rule:nonzero;stroke:none" transform="matrix(.80836 0 0 .80836 1175.655 3154.995)"/>
    <path d="M-1390.556-3901.474c3.225.08 5.871 2.486 5.956 5.765.012.508 0 1.019 0 1.528V-3856.664c0 3.264-2.927 5.653-6.048 5.653h-49.804c-4.129 0-10.382 1.035-12.111-3.92-.63-1.806-.312-4.13-.312-6V-3892.048c0-2.435-.365-5.014 1.162-7.105 2.64-3.272 7.952-2.321 11.68-2.321 14.917 0 11.822 0 26.74-.01h22.74" style="fill:#000;fill-opacity:1;fill-rule:evenodd;stroke:none" transform="matrix(.80836 0 0 .80836 1175.655 3154.995)"/>
    <path d="M-1446.95-3899.247h56.412a3.718 3.718 0 0 1 3.71 3.712v38.595a3.718 3.718 0 0 1-3.71 3.71h-56.412a3.718 3.718 0 0 1-3.711-3.71v-38.595a3.718 3.718 0 0 1 3.71-3.712" style="fill:#dd7500;fill-opacity:1;fill-rule:evenodd;stroke:none" transform="matrix(.80836 0 0 .80836 1175.655 3154.995)"/>
    <path d="M-1406.52-3886.713c0 1.583-.375 2.873-1.085 3.58-.332.335-.71.458-1.333.458h-1.874v-8.08h2.126c.498 0 .914.21 1.205.502.586.625.96 1.958.96 3.54m1.915 0c0-2.332-.707-4.207-1.96-5.29-.623-.5-1.082-.624-2.29-.624h-3.829v11.87h4.288c.625-.042 1.25-.25 1.71-.668 1.329-1.04 2.08-2.913 2.08-5.288m-10.869 5.956v-11.87h-1.875v7.58l-4.33-7.58h-1.874v11.87h1.874v-8.04l4.538 8.04h1.667zm-10.035 0v-1.917h-5.5v-3.248h3.457v-1.916h-3.458v-2.916h5.123v-1.873h-6.995v11.87h7.373zM-1392.005-3868.513c0 .5-.291 1-.75 1.25-.292.166-.5.208-1.081.208h-2.25v-2.915h2.25c.622 0 .789.04 1.08.207.46.251.75.75.75 1.25m2.124 8.539-2.08-5.54c1.082-.5 1.832-1.75 1.832-3 0-1.207-.75-2.456-1.795-2.956-.581-.29-1.205-.374-2.12-.374h-3.917v11.87h1.876v-5.165h2.25l1.911 5.165h2.043zm-10.871-4.248v-7.622h-1.873v7.622c0 1.54-.873 2.54-2.166 2.54-1.291 0-2.163-1-2.163-2.54v-7.622h-1.876v7.622c0 .915.21 1.749.54 2.456.626 1.165 2.042 2.007 3.499 2.007 1.46 0 2.875-.842 3.5-2.007.332-.707.539-1.54.539-2.456m-12.533-1.667c0 .915-.209 2.083-.46 2.706-.415 1.042-.956 1.502-1.832 1.502-.75 0-1.248-.293-1.622-.919-.46-.748-.71-2.04-.71-3.289 0-.999.167-2.081.458-2.79.418-1.042 1-1.5 1.916-1.458.707.042 1.166.291 1.54.917.46.792.71 1.998.71 3.331m1.874 0c0-1.498-.292-2.998-.793-4.04-.749-1.457-1.79-2.124-3.29-2.124-1.372 0-2.333.418-3.04 1.333-.79 1.124-1.29 2.873-1.29 4.831 0 1.415.332 2.998.833 3.999.708 1.456 1.746 2.13 3.414 2.13 1.25 0 2.208-.423 2.875-1.34.832-1.04 1.291-2.915 1.291-4.789m-9.914-4.29v-1.665h-7.328v1.665h2.706v10.205h1.875v-10.205h2.747zm-8.245 10.205v-1.916h-5.497v-3.249h3.456v-1.916h-3.456v-2.915h5.122v-1.874h-6.994v11.87h7.37zm-11.87-5.957c0 1.582-.374 2.873-1.08 3.582-.336.334-.71.459-1.336.459h-1.874v-8.08h2.126c.498 0 .915.207 1.207.5.583.624.958 1.957.958 3.54m1.916 0c0-2.333-.709-4.207-1.957-5.29-.627-.5-1.084-.624-2.291-.624h-3.832v11.87h4.288c.626-.043 1.251-.25 1.709-.668 1.334-1.04 2.083-2.915 2.083-5.289" style="fill:#000;fill-opacity:1;fill-rule:evenodd;stroke:none" transform="matrix(.80836 0 0 .80836 1175.655 3154.995)"/>
</svg>
