<svg xmlns="http://www.w3.org/2000/svg" width="72" height="57.6">
    <path d="M-1452.667-4023.666h77.193c3.27 0 5.938 2.667 5.938 5.94v59.377a5.95 5.95 0 0 1-5.938 5.938h-77.193a5.95 5.95 0 0 1-5.938-5.938v-59.378c0-3.272 2.668-5.939 5.938-5.939" style="fill:#dd7500;fill-opacity:1;fill-rule:nonzero;stroke:none" transform="matrix(.80836 0 0 .80836 1179.078 3252.57)"/>
    <path d="M-1452.326-4022.123h76.51c2.61 0 4.737 2.123 4.737 4.727v58.716c0 2.603-2.127 4.726-4.737 4.726h-76.51c-2.607 0-4.735-2.123-4.735-4.725v-58.717c0-2.604 2.128-4.727 4.735-4.727" style="fill:#000;fill-opacity:1;fill-rule:evenodd;stroke:none" transform="matrix(.80836 0 0 .80836 1179.078 3252.57)"/>
    <path d="M-1452.275-4019.748h76.408a2.414 2.414 0 0 1 2.412 2.406v58.608a2.414 2.414 0 0 1-2.412 2.405h-76.408a2.412 2.412 0 0 1-2.41-2.405v-58.608a2.413 2.413 0 0 1 2.41-2.406" style="fill:#dd7500;fill-opacity:1;fill-rule:evenodd;stroke:none" transform="matrix(.80836 0 0 .80836 1179.078 3252.57)"/>
    <path d="M-1435.723-3966.037h29.232l-.878 4.94c0 .635.379.81.842.39l12.908-7.705a.966.966 0 0 0-.011-1.49l-12.903-7.932c-.46-.422-.837-.25-.837.382l.879 4.628h-29.232v6.787zM-1444.364-3981.845h3.392c1.765 0 2.927-.665 3.362-1.053.713-.636 1.723-1.936 1.723-4.121 0-1.441-.469-2.852-1.474-3.874-1.256-1.27-2.604-1.286-3.193-1.286h-3.81v10.334zm1.903-8.862h1.783c1.767 0 2.774 1.72 2.774 3.61 0 2.495-1.38 3.735-2.992 3.735h-1.565v-7.345zM-1432.569-3981.845v-10.334h6.648v1.534h-4.79v2.805h3.845v1.503h-3.846v2.896h4.852v1.596h-6.709zM-1421.038-3981.845v-8.737h-2.742v-1.597h7.484v1.597h-2.743v8.737h-2zM-1405.708-3987.02c0-2.773-1.44-5.314-4.354-5.314-2.852 0-4.43 2.494-4.43 5.284 0 2.338 1.099 5.361 4.354 5.361 2.71 0 4.43-2.17 4.43-5.33m-2.011-.017c0 1.474-.218 2.155-.467 2.652a2.175 2.175 0 0 1-1.937 1.192c-2.153 0-2.356-2.573-2.356-3.796 0-1.844.434-3.843 2.389-3.843.414 0 1.331.063 1.857 1.13.481.976.513 2.247.513 2.665M-1395.305-3985.533c0 1.132 0 2.417-1.458 3.317-.82.496-1.811.527-2.138.527-.618 0-2.03-.124-2.77-.991-.777-.93-.823-1.797-.823-2.712v-6.787h1.903v6.646c0 .604.082 1.288.453 1.675.342.355.927.542 1.454.542.59 0 1.257-.233 1.534-.634.31-.434.356-1.087.356-1.583v-6.646h1.489v6.646zM-1384.541-3981.845l-1.812-4.556c.527-.232 1.858-.804 1.858-2.74 0-1.054-.402-1.752-.93-2.233-.635-.556-1.411-.805-2.696-.805h-4.478v10.334h1.86v-4.245h2.618l1.61 4.245h1.97zm-6.198-8.847h2.48c1.315 0 1.828.744 1.828 1.52 0 1.284-1.07 1.596-1.984 1.596h-2.324v-3.116z" style="fill:#000;fill-opacity:1;fill-rule:nonzero;stroke:none" transform="matrix(.80836 0 0 .80836 1179.078 3252.57)"/>
    <path d="M-1401.46-4002.407a4.261 4.261 0 0 1-5.677 2.009 4.235 4.235 0 0 1-2.253-2.671c1.344-.23 2.884-.496 3.877-.668a.614.614 0 0 0 1.019-.176h.017l-.014-.02a.625.625 0 0 0 .045-.217.617.617 0 0 0-.617-.617c-.02 0-.04 0-.057.01l-2.377-3.124a4.253 4.253 0 0 1 4.027-.196 4.258 4.258 0 0 1 2.01 5.675m-7.686-3.668c.232-.486.546-.902.916-1.253.844 1.115 1.733 2.284 2.098 2.764-.598.102-2.072.357-3.419.589-.045-.7.082-1.421.405-2.1m-1.314 2.254c-.356.063-.685.12-.954.166l-.492-.418c.498-1.351 1.477-4.734 1.842-5.723.232.307.804 1.117 1.271 1.73a5.01 5.01 0 0 0-1.183 1.597 5.116 5.116 0 0 0-.484 2.648m-2.231-.773-.136-.796h.228v-.705h-1.521v.68c-1.577-1.658-3.83-4.028-4.081-4.294l.034-.08c.079-.199.153-.381.241-.593.565 0 6.835.054 7.064.054-.124.337-1.103 3.752-1.83 5.734m-1.207-.585c-.063-.068-.133-.14-.2-.211h.534l.133.776-.467-.565zm-4.232 2.76a4.264 4.264 0 0 1-5.679 2.01 4.261 4.261 0 0 1-2.007-5.674 4.255 4.255 0 0 1 5.674-2.01c.082.037.158.083.236.126-.29.704-.522 1.28-.58 1.415-.078.087-1.099 1.196-1.58 1.718-.023 0-.048-.01-.076-.01a.615.615 0 1 0 .58.825l1.866-2.034.563-1.368a4.264 4.264 0 0 1 1.002 5m15.057-6.496a5.171 5.171 0 0 0-4.98.294l-1.722-2.244.344-.867c1.16-.054 1.45-.781 1.377-1.214l-4.506.408c.15.272 1.172.733 1.969.806l-.112.482-6.876-.053.422-1.518.042-.16s-.476-.694-.58-.927c-.134-.138.243-.053.27-.105.407-.01 1.982.023 1.982.023.18 0 .238-.925-.015-.919l-2.444-.017-.915 1.113s.64.7.728.905l-.427 1.545s-.012.023-.023.054l-.734 1.8c-.091.22-.187.451-.278.682-.063-.036-.121-.071-.19-.104a5.182 5.182 0 0 0-6.902 2.448 5.184 5.184 0 0 0 2.443 6.903 5.186 5.186 0 0 0 6.905-2.445 5.183 5.183 0 0 0-1.471-6.295l.187-.458c1.26 1.329 3.89 4.098 4.996 5.262a.872.872 0 0 0 .631 1.133c.121.456.28 1.043.384 1.436h-.12v.705h1.521v-.705h-.447l-.447-1.666c.172-.028.868-.148 1.765-.304a5.154 5.154 0 0 0 2.77 3.346 5.185 5.185 0 0 0 6.907-2.445 5.186 5.186 0 0 0-2.45-6.902" style="fill:#000;fill-opacity:1;fill-rule:evenodd;stroke:none" transform="matrix(.80836 0 0 .80836 1179.078 3252.57)"/>
</svg>
