<svg xmlns="http://www.w3.org/2000/svg" width="72" height="57.6">
    <path d="M-1452.667-4023.666h77.193c3.27 0 5.938 2.667 5.938 5.94v59.377a5.95 5.95 0 0 1-5.938 5.938h-77.193a5.95 5.95 0 0 1-5.938-5.938v-59.378c0-3.272 2.668-5.939 5.938-5.939" style="fill:#dd7500;fill-opacity:1;fill-rule:nonzero;stroke:none" transform="matrix(.80836 0 0 .80836 1179.078 3252.57)"/>
    <path d="M-1452.326-4022.123h76.51c2.61 0 4.737 2.123 4.737 4.727v58.716c0 2.603-2.127 4.726-4.737 4.726h-76.51c-2.607 0-4.735-2.123-4.735-4.725v-58.717c0-2.604 2.128-4.727 4.735-4.727" style="fill:#000;fill-opacity:1;fill-rule:evenodd;stroke:none" transform="matrix(.80836 0 0 .80836 1179.078 3252.57)"/>
    <path d="M-1452.275-4019.748h76.408a2.414 2.414 0 0 1 2.412 2.406v58.608a2.414 2.414 0 0 1-2.412 2.405h-76.408a2.412 2.412 0 0 1-2.41-2.405v-58.608a2.413 2.413 0 0 1 2.41-2.406" style="fill:#dd7500;fill-opacity:1;fill-rule:evenodd;stroke:none" transform="matrix(.80836 0 0 .80836 1179.078 3252.57)"/>
    <path d="M-1393.273-3966.037h-29.232l.878 4.94c0 .635-.379.81-.843.39l-12.907-7.705a.966.966 0 0 1 .01-1.49l12.904-7.932c.459-.422.836-.25.836.382l-.878 4.628h29.232v6.787zM-1444.364-3981.845h3.392c1.765 0 2.927-.665 3.362-1.053.713-.636 1.723-1.936 1.723-4.121 0-1.441-.469-2.852-1.474-3.874-1.256-1.27-2.604-1.286-3.193-1.286h-3.81v10.334zm1.903-8.862h1.783c1.767 0 2.774 1.72 2.774 3.61 0 2.495-1.38 3.735-2.992 3.735h-1.565v-7.345zM-1432.569-3981.845v-10.334h6.648v1.534h-4.79v2.805h3.845v1.503h-3.846v2.896h4.852v1.596h-6.709zM-1421.038-3981.845v-8.737h-2.742v-1.597h7.484v1.597h-2.743v8.737h-2zM-1405.708-3987.02c0-2.773-1.44-5.314-4.354-5.314-2.852 0-4.43 2.494-4.43 5.284 0 2.338 1.099 5.361 4.354 5.361 2.71 0 4.43-2.17 4.43-5.33m-2.011-.017c0 1.474-.218 2.155-.467 2.652a2.175 2.175 0 0 1-1.937 1.192c-2.153 0-2.356-2.573-2.356-3.796 0-1.844.434-3.843 2.389-3.843.414 0 1.331.063 1.857 1.13.481.976.513 2.247.513 2.665M-1395.305-3985.533c0 1.132 0 2.417-1.458 3.317-.82.496-1.811.527-2.138.527-.618 0-2.03-.124-2.77-.991-.777-.93-.823-1.797-.823-2.712v-6.787h1.903v6.646c0 .604.082 1.288.453 1.675.342.355.927.542 1.454.542.59 0 1.257-.233 1.534-.634.31-.434.356-1.087.356-1.583v-6.646h1.489v6.646zM-1384.541-3981.845l-1.812-4.556c.527-.232 1.858-.804 1.858-2.74 0-1.054-.402-1.752-.93-2.233-.635-.556-1.411-.805-2.696-.805h-4.478v10.334h1.86v-4.245h2.618l1.61 4.245h1.97zm-6.198-8.847h2.48c1.315 0 1.828.744 1.828 1.52 0 1.284-1.07 1.596-1.984 1.596h-2.324v-3.116z" style="fill:#000;fill-opacity:1;fill-rule:nonzero;stroke:none" transform="matrix(.80836 0 0 .80836 1179.078 3252.57)"/>
    <path d="M-1417.519-4018.162c-.785 0-1.418.74-1.418 1.653 0 .914.633 1.653 1.418 1.653.781 0 1.421-.74 1.421-1.653s-.64-1.653-1.42-1.653M-1415.5-4014.7l-1.318.09-1.477 1.813v2.442l-3.42 3.352.542.903 4.355-2.081.697.816v.452l-1.398 3.35-1.241 6.427 1.942.45.932-5.157 1.318-2.174 2.874 7.424 1.558-1.175-1.013-3.35-1.4-5.885-.153-1.452-.621-2.895.932.362.467 4.165 1.087.361-.156-5.702-4.506-2.536z" style="fill:#000;fill-opacity:1;fill-rule:evenodd;stroke:none" transform="matrix(.80836 0 0 .80836 1179.078 3252.57)"/>
</svg>
