<svg xmlns="http://www.w3.org/2000/svg" width="72" height="57.6">
    <path d="M-1452.667-4023.666h77.193c3.27 0 5.938 2.667 5.938 5.94v59.377a5.95 5.95 0 0 1-5.938 5.938h-77.193a5.95 5.95 0 0 1-5.938-5.938v-59.378c0-3.272 2.668-5.939 5.938-5.939" style="fill:#dd7500;fill-opacity:1;fill-rule:nonzero;stroke:none" transform="matrix(.80836 0 0 .80836 1179.078 3252.57)"/>
    <path d="M-1452.326-4022.123h76.51c2.61 0 4.737 2.123 4.737 4.727v58.716c0 2.603-2.127 4.726-4.737 4.726h-76.51c-2.607 0-4.735-2.123-4.735-4.725v-58.717c0-2.604 2.128-4.727 4.735-4.727" style="fill:#000;fill-opacity:1;fill-rule:evenodd;stroke:none" transform="matrix(.80836 0 0 .80836 1179.078 3252.57)"/>
    <path d="M-1452.275-4019.748h76.408a2.414 2.414 0 0 1 2.412 2.406v58.608a2.414 2.414 0 0 1-2.412 2.405h-76.408a2.412 2.412 0 0 1-2.41-2.405v-58.608a2.413 2.413 0 0 1 2.41-2.406" style="fill:#dd7500;fill-opacity:1;fill-rule:evenodd;stroke:none" transform="matrix(.80836 0 0 .80836 1179.078 3252.57)"/>
    <path d="M-1380.07-3989.218c0 .625-.363 1.25-.935 1.562-.365.208-.626.26-1.354.26h-2.812v-3.645h2.812c.782 0 .99.053 1.354.261.572.313.936.937.936 1.562m2.655 10.673-2.603-6.925c1.353-.625 2.29-2.186 2.29-3.748 0-1.51-.937-3.073-2.237-3.696-.73-.365-1.51-.47-2.655-.47h-4.894v14.839h2.342v-6.456h2.812l2.395 6.456h2.55zm-13.586-5.312v-9.527h-2.343v9.527c0 1.928-1.093 3.176-2.708 3.176-1.614 0-2.707-1.248-2.707-3.176v-9.527h-2.341v9.527c0 1.146.26 2.188.675 3.073.781 1.456 2.552 2.506 4.373 2.506 1.822 0 3.59-1.05 4.373-2.506a7.21 7.21 0 0 0 .678-3.073m-15.671-2.081c0 1.145-.26 2.602-.572 3.385-.521 1.3-1.199 1.872-2.292 1.872-.935 0-1.562-.365-2.029-1.146-.572-.935-.886-2.548-.886-4.111 0-1.25.208-2.603.574-3.489.52-1.3 1.248-1.873 2.394-1.821.886.05 1.458.364 1.927 1.144.572.991.884 2.5.884 4.166m2.343 0c0-1.875-.364-3.749-.988-5.05-.938-1.822-2.24-2.656-4.114-2.656-1.72 0-2.915.521-3.799 1.667-.99 1.404-1.614 3.59-1.614 6.039 0 1.77.416 3.748 1.04 4.998.885 1.821 2.187 2.662 4.268 2.662 1.564 0 2.76-.529 3.594-1.674 1.04-1.3 1.613-3.644 1.613-5.986m-12.39-5.361v-2.085h-9.163v2.085h3.385v12.754h2.342v-12.754h3.436zm-10.307 12.754v-2.395h-6.872v-4.061h4.32v-2.395h-4.32v-3.645h6.403v-2.343h-8.746v14.839h9.214zm-14.838-7.444c0 1.976-.468 3.59-1.353 4.476-.416.416-.886.573-1.665.573h-2.343v-10.101h2.654c.626 0 1.146.261 1.51.626.729.781 1.197 2.446 1.197 4.426m2.396 0c0-2.917-.885-5.26-2.448-6.612-.78-.627-1.353-.783-2.863-.783h-4.789v14.839H-1444.204c.78-.053 1.56-.314 2.134-.835 1.666-1.3 2.603-3.642 2.603-6.61M-1423.568-3975.285l-11.421 7.725 11.421 7.736a1.104 1.104 0 0 0 1.536-.292c.229-.335.187-.683.083-1.096l-1.008-3.353h29.533v-5.984h-29.533l.983-3.3c.128-.455.181-.792-.059-1.144a1.107 1.107 0 0 0-1.535-.292M-1395.36-4017.728c.863 0 1.565.702 1.565 1.563 0 .863-.702 1.565-1.564 1.565a1.566 1.566 0 0 1-1.564-1.565c0-.86.702-1.563 1.563-1.563M-1400.096-4007.865l3.281-2.187c.154-.642.783-3.488 2.043-4.147 1.251-.826 5.86 2.57 5.885 2.598v4.953l-.999-.175-.39-3.954a250.88 250.88 0 0 0-1.13-.226c.825 2.126 1.126 4.175.653 5.528l1.998 8.168-1.347.956-2.91-7.56-1.347 1.433-1.87 5.692-1.78-.65 1.607-5.998 1.868-3.346-.716-2.468-.76.991-3.563 1.174-.523-.782zM-1422.89-4003.49l3.578-.584-2.256-2.93c-1.17 1.019-1.313 2.242-1.322 3.515m-.985.213a6.908 6.908 0 0 1-.026-.473c0-1.45.468-2.86 1.74-4.03l-1.325-1.588-2.052 6.26 1.663-.169zm-7.876-6.229.113-.349 7.31-.01-1.946 5.893-.082-.614h.223l-.028-.391h-.979l.028.363h.252l.056.67s-4.919-5.534-4.947-5.562m-3.236 5.66c.982-.778 1.746-1.522 2.296-3.01a4.213 4.213 0 0 1 1.365 3.105 4.24 4.24 0 0 1-4.232 4.233 4.24 4.24 0 0 1-4.232-4.233 4.242 4.242 0 0 1 4.232-4.234 4.27 4.27 0 0 1 2.117.577c-.414 1.313-.818 1.99-2.095 3.017a.563.563 0 0 0-.546.558c0 .308.25.56.558.56.31 0 .537-.252.537-.572m12.247 1.253c.478 1.784 2.182 3.074 4.065 3.074a4.24 4.24 0 0 0 4.234-4.233 4.242 4.242 0 0 0-4.234-4.234c-.744 0-1.605.177-2.233.543l2.298 3.051c.281 0 .526.255.526.558a.562.562 0 0 1-.81.503l-3.846.738zm-10.398-5.795 1.5-4.136-.476-.812.95-1.033h2.04l.03.586h-1.791l-.364.393.42.754-.526 1.869h7.32l.113-.342c-.59-.076-1.604-.44-1.846-.65-.243-.212-.03-.405.247-.414 1.444-.06 3.59-.181 3.999-.184.407 0 .45.204.176.5-.274.3-.512.57-1.546.73l-.278.754 1.731 2.148a5.394 5.394 0 0 1 2.764-.755 5.239 5.239 0 0 1 5.228 5.228 5.238 5.238 0 0 1-5.228 5.227c-2.368 0-4.452-1.633-5.063-3.892l-1.591.287c-.068.187-.227.331-.418.444l.285 1.347h.363l.028.363-1.147.056v-.39h.281l-.348-1.348c-.515-.084-.784-.524-.63-.962l-5.2-5.882-.233.631a5.28 5.28 0 0 1 2.017 4.12 5.237 5.237 0 0 1-5.227 5.226 5.238 5.238 0 0 1-5.228-5.226 5.239 5.239 0 0 1 5.228-5.229c.837 0 1.695.204 2.42.593" style="fill:#000;fill-opacity:1;fill-rule:evenodd;stroke:none" transform="matrix(.80836 0 0 .80836 1179.078 3252.57)"/>
</svg>
