<?xml version="1.0" encoding="UTF-8" standalone="no"?>
<!-- Created with Inkscape (http://www.inkscape.org/) -->

<svg
   xmlns:dc="http://purl.org/dc/elements/1.1/"
   xmlns:cc="http://creativecommons.org/ns#"
   xmlns:rdf="http://www.w3.org/1999/02/22-rdf-syntax-ns#"
   xmlns:svg="http://www.w3.org/2000/svg"
   xmlns="http://www.w3.org/2000/svg"
   xmlns:sodipodi="http://sodipodi.sourceforge.net/DTD/sodipodi-0.dtd"
   xmlns:inkscape="http://www.inkscape.org/namespaces/inkscape"
   id="svg17624"
   version="1.1"
   inkscape:version="0.48.2 r9819"
   width="90.625"
   height="64.921875"
   xml:space="preserve"
   sodipodi:docname="MUTCD M5-1L.svg"><metadata
     id="metadata17630"><rdf:RDF><cc:Work
         rdf:about=""><dc:format>image/svg+xml</dc:format><dc:type
           rdf:resource="http://purl.org/dc/dcmitype/StillImage" /><dc:title></dc:title></cc:Work></rdf:RDF></metadata><defs
     id="defs17628"><inkscape:perspective
       sodipodi:type="inkscape:persp3d"
       inkscape:vp_x="0 : 0.5 : 1"
       inkscape:vp_y="0 : 1000 : 0"
       inkscape:vp_z="1 : 0.5 : 1"
       inkscape:persp3d-origin="0.5 : 0.33333333 : 1"
       id="perspective17632" /><clipPath
       clipPathUnits="userSpaceOnUse"
       id="clipPath17642"><path
         d="m -2,710 501,0 0,-711 -501,0 0,711 z"
         id="path17644"
         inkscape:connector-curvature="0" /></clipPath><clipPath
       clipPathUnits="userSpaceOnUse"
       id="clipPath17648"><path
         d="m 0,708.06 498,0 0,-708 -498,0 0,708 z"
         id="path17650"
         inkscape:connector-curvature="0" /></clipPath><clipPath
       clipPathUnits="userSpaceOnUse"
       id="clipPath17798"><path
         d="m -2,710 501,0 0,-711 -501,0 0,711 z"
         id="path17800"
         inkscape:connector-curvature="0" /></clipPath><clipPath
       clipPathUnits="userSpaceOnUse"
       id="clipPath17804"><path
         d="m 0,708.06 498,0 0,-708 -498,0 0,708 z"
         id="path17806"
         inkscape:connector-curvature="0" /></clipPath><clipPath
       id="Clip0"><path
         inkscape:connector-curvature="0"
         d="m 0,0 212.597,0 0,269.292 L 0,269.292 0,0 z"
         transform="translate(0.923828,0.879883)"
         id="path7" /></clipPath><clipPath
       id="Clip0-8"><path
         inkscape:connector-curvature="0"
         d="m 0,0 170.079,0 0,113.386 L 0,113.386 0,0 z"
         transform="translate(0.0986328,0.822266)"
         id="path7-8" /></clipPath><clipPath
       id="Clip0-1"><path
         inkscape:connector-curvature="0"
         d="m 0,0 287.009,0 0,159.449 L 0,159.449 0,0 z"
         transform="translate(0.396484,0.267578)"
         id="path7-7" /></clipPath><clipPath
       id="Clip0-9"><path
         inkscape:connector-curvature="0"
         d="m 0,0 170.079,0 0,170.079 L 0,170.079 0,0 z"
         transform="translate(0.460938,0.775391)"
         id="path7-4" /></clipPath><clipPath
       id="Clip0-4"><path
         inkscape:connector-curvature="0"
         d="m 0,0 340.157,0 0,226.771 L 0,226.771 0,0 z"
         transform="translate(0.921875,0.25293)"
         id="path7-5" /></clipPath><clipPath
       id="Clip0-5"><path
         inkscape:connector-curvature="0"
         d="m 0,0 255.119,0 0,170.079 L 0,170.079 0,0 z"
         transform="translate(0.147461,0.0595703)"
         id="path7-1" /></clipPath><clipPath
       id="Clip0-0"><path
         inkscape:connector-curvature="0"
         d="m 0,0 170.079,0 0,113.386 L 0,113.386 0,0 z"
         transform="translate(0.0673828,0.207031)"
         id="path7-9" /></clipPath></defs><sodipodi:namedview
     pagecolor="#ffffff"
     bordercolor="#666666"
     borderopacity="1"
     objecttolerance="10"
     gridtolerance="10"
     guidetolerance="10"
     inkscape:pageopacity="0"
     inkscape:pageshadow="2"
     inkscape:window-width="1280"
     inkscape:window-height="1004"
     id="namedview17626"
     showgrid="false"
     inkscape:zoom="5.6568544"
     inkscape:cx="36.227358"
     inkscape:cy="30.044193"
     inkscape:window-x="-8"
     inkscape:window-y="-8"
     inkscape:window-maximized="1"
     inkscape:current-layer="g17634"
     fit-margin-top="0"
     fit-margin-left="0"
     fit-margin-right="0"
     fit-margin-bottom="0"
     showguides="true"
     inkscape:guide-bbox="true" /><g
     id="g17634"
     inkscape:groupmode="layer"
     inkscape:label="GG1999P002"
     transform="matrix(1.25,0,0,-1.25,-3411.0938,-2450.8594)"><path
       inkscape:connector-curvature="0"
       d="m 2794.2649,-1960.9431 -58.285,0 c -3.777,0 -6.858,-3.081 -6.858,-6.857 l 0,-37.715 c 0,-3.777 3.081,-6.857 6.858,-6.857 l 58.285,0 c 3.777,0 6.857,3.08 6.857,6.857 l 0,37.715 c 0,3.729 -3.128,6.857 -6.857,6.857"
       style="fill:#ffffff;fill-opacity:1;fill-rule:nonzero;stroke:#000000;stroke-width:0.47999999;stroke-miterlimit:4;stroke-opacity:1;stroke-dasharray:none"
       id="path7008" /><path
       inkscape:connector-curvature="0"
       d="m 2735.9973,-1962.3152 c -3.053,-0.077 -5.422,-2.452 -5.504,-5.503 l 0.01,-37.978 c 0.228,-2.982 2.567,-5.056 5.496,-5.205 l 58.55,0.01 c 2.981,0.229 5.055,2.567 5.204,5.495 l -0.01,37.98 c -0.228,2.979 -2.566,5.057 -5.495,5.203 l -58.251,0"
       style="fill:#000000;fill-opacity:1;fill-rule:evenodd;stroke:none"
       id="path7032" /><path
       inkscape:connector-curvature="0"
       d="m 2736.0227,-1964.3718 c -1.838,-0.01 -3.326,-1.43 -3.466,-3.251 l -0.01,-37.849 c 0,-1.838 1.431,-3.327 3.251,-3.466 l 58.42,0 c 1.838,0 3.327,1.429 3.467,3.251 l 0,37.847 c 0,1.838 -1.43,3.328 -3.251,3.467 l -58.42,0.01"
       style="fill:#ffffff;fill-opacity:1;fill-rule:evenodd;stroke:none"
       id="path7036" /><path
       inkscape:connector-curvature="0"
       d="m 2755.5227,-1983.9245 c -0.756,0.01 -1.372,-0.607 -1.372,-1.361 l 0,-18.926 -8.914,0 0,27.154 c 0,1.133 0.924,2.057 2.058,2.057 l 0,-0.011 24.595,-0.011 -1.5,4.994 c -0.157,0.616 -0.218,1.135 0.122,1.635 0.51,0.75 1.537,0.946 2.286,0.436 l 17.01,-11.524 -17.01,-11.505 c -0.749,-0.51 -1.776,-0.315 -2.286,0.435 -0.355,0.523 -0.276,1.026 -0.087,1.705 l 1.465,4.913 -16.367,0.01 z"
       style="fill:#000000;fill-opacity:1;fill-rule:evenodd;stroke:none"
       id="path7040" /></g></svg>