<?xml version="1.0" encoding="UTF-8" standalone="no"?>
<!-- Created with Inkscape (http://www.inkscape.org/) -->

<svg
   xmlns:dc="http://purl.org/dc/elements/1.1/"
   xmlns:cc="http://creativecommons.org/ns#"
   xmlns:rdf="http://www.w3.org/1999/02/22-rdf-syntax-ns#"
   xmlns:svg="http://www.w3.org/2000/svg"
   xmlns="http://www.w3.org/2000/svg"
   xmlns:sodipodi="http://sodipodi.sourceforge.net/DTD/sodipodi-0.dtd"
   xmlns:inkscape="http://www.inkscape.org/namespaces/inkscape"
   id="svg17624"
   version="1.1"
   inkscape:version="0.48.2 r9819"
   width="90.585938"
   height="64.921875"
   xml:space="preserve"
   sodipodi:docname="MUTCD M5-2R.svg"><metadata
     id="metadata17630"><rdf:RDF><cc:Work
         rdf:about=""><dc:format>image/svg+xml</dc:format><dc:type
           rdf:resource="http://purl.org/dc/dcmitype/StillImage" /><dc:title></dc:title></cc:Work></rdf:RDF></metadata><defs
     id="defs17628"><inkscape:perspective
       sodipodi:type="inkscape:persp3d"
       inkscape:vp_x="0 : 0.5 : 1"
       inkscape:vp_y="0 : 1000 : 0"
       inkscape:vp_z="1 : 0.5 : 1"
       inkscape:persp3d-origin="0.5 : 0.33333333 : 1"
       id="perspective17632" /><clipPath
       clipPathUnits="userSpaceOnUse"
       id="clipPath17642"><path
         d="m -2,710 501,0 0,-711 -501,0 0,711 z"
         id="path17644"
         inkscape:connector-curvature="0" /></clipPath><clipPath
       clipPathUnits="userSpaceOnUse"
       id="clipPath17648"><path
         d="m 0,708.06 498,0 0,-708 -498,0 0,708 z"
         id="path17650"
         inkscape:connector-curvature="0" /></clipPath><clipPath
       clipPathUnits="userSpaceOnUse"
       id="clipPath17798"><path
         d="m -2,710 501,0 0,-711 -501,0 0,711 z"
         id="path17800"
         inkscape:connector-curvature="0" /></clipPath><clipPath
       clipPathUnits="userSpaceOnUse"
       id="clipPath17804"><path
         d="m 0,708.06 498,0 0,-708 -498,0 0,708 z"
         id="path17806"
         inkscape:connector-curvature="0" /></clipPath><clipPath
       id="Clip0"><path
         inkscape:connector-curvature="0"
         d="m 0,0 212.597,0 0,269.292 L 0,269.292 0,0 z"
         transform="translate(0.923828,0.879883)"
         id="path7" /></clipPath><clipPath
       id="Clip0-8"><path
         inkscape:connector-curvature="0"
         d="m 0,0 170.079,0 0,113.386 L 0,113.386 0,0 z"
         transform="translate(0.0986328,0.822266)"
         id="path7-8" /></clipPath><clipPath
       id="Clip0-1"><path
         inkscape:connector-curvature="0"
         d="m 0,0 287.009,0 0,159.449 L 0,159.449 0,0 z"
         transform="translate(0.396484,0.267578)"
         id="path7-7" /></clipPath><clipPath
       id="Clip0-9"><path
         inkscape:connector-curvature="0"
         d="m 0,0 170.079,0 0,170.079 L 0,170.079 0,0 z"
         transform="translate(0.460938,0.775391)"
         id="path7-4" /></clipPath><clipPath
       id="Clip0-4"><path
         inkscape:connector-curvature="0"
         d="m 0,0 340.157,0 0,226.771 L 0,226.771 0,0 z"
         transform="translate(0.921875,0.25293)"
         id="path7-5" /></clipPath><clipPath
       id="Clip0-5"><path
         inkscape:connector-curvature="0"
         d="m 0,0 255.119,0 0,170.079 L 0,170.079 0,0 z"
         transform="translate(0.147461,0.0595703)"
         id="path7-1" /></clipPath><clipPath
       id="Clip0-0"><path
         inkscape:connector-curvature="0"
         d="m 0,0 170.079,0 0,113.386 L 0,113.386 0,0 z"
         transform="translate(0.0673828,0.207031)"
         id="path7-9" /></clipPath></defs><sodipodi:namedview
     pagecolor="#ffffff"
     bordercolor="#666666"
     borderopacity="1"
     objecttolerance="10"
     gridtolerance="10"
     guidetolerance="10"
     inkscape:pageopacity="0"
     inkscape:pageshadow="2"
     inkscape:window-width="1280"
     inkscape:window-height="1004"
     id="namedview17626"
     showgrid="false"
     inkscape:zoom="5.6568544"
     inkscape:cx="18.537306"
     inkscape:cy="3.0818002"
     inkscape:window-x="-8"
     inkscape:window-y="-8"
     inkscape:window-maximized="1"
     inkscape:current-layer="g17634"
     fit-margin-top="0"
     fit-margin-left="0"
     fit-margin-right="0"
     fit-margin-bottom="0"
     showguides="true"
     inkscape:guide-bbox="true" /><g
     id="g17634"
     inkscape:groupmode="layer"
     inkscape:label="GG1999P002"
     transform="matrix(1.25,0,0,-1.25,-3879.8047,-1922.8906)"><path
       inkscape:connector-curvature="0"
       d="m 3110.9288,-1538.5656 58.287,0 c 3.777,0 6.856,-3.08 6.856,-6.857 l 0,-37.715 c 0,-3.778 -3.079,-6.858 -6.856,-6.858 l -58.287,0 c -3.777,0 -6.857,3.08 -6.857,6.858 l 0,37.715 c 0,3.73 3.128,6.857 6.857,6.857"
       style="fill:#ffffff;fill-opacity:1;fill-rule:nonzero;stroke:#000000;stroke-width:0.47999999;stroke-linecap:butt;stroke-linejoin:miter;stroke-miterlimit:4;stroke-opacity:1;stroke-dasharray:none"
       id="path7258" /><path
       inkscape:connector-curvature="0"
       d="m 3169.1968,-1539.9367 c 3.053,-0.078 5.423,-2.453 5.504,-5.504 l -0.01,-37.979 c -0.228,-2.983 -2.567,-5.057 -5.497,-5.204 l -58.549,0.01 c -2.982,0.23 -5.057,2.567 -5.205,5.497 l 0.01,37.981 c 0.228,2.978 2.567,5.057 5.495,5.203 l 58.251,0"
       style="fill:#000000;fill-opacity:1;fill-rule:evenodd;stroke:none"
       id="path7262" /><path
       inkscape:connector-curvature="0"
       d="m 3169.1708,-1541.9944 c 1.838,-0.01 3.327,-1.43 3.467,-3.252 l 0.01,-37.85 c 0,-1.837 -1.432,-3.326 -3.252,-3.466 l -58.42,-0.01 c -1.839,0 -3.327,1.43 -3.467,3.25 l -0.01,37.85 c 0,1.838 1.43,3.327 3.251,3.467 l 58.42,0.01"
       style="fill:#ffffff;fill-opacity:1;fill-rule:evenodd;stroke:none"
       id="path7266" /><path
       inkscape:connector-curvature="0"
       d="m 3145.7298,-1550.5764 -9.506,0 1.465,4.611 c 0,0 0.299,0.92 -0.394,1.58 -0.858,0.793 -1.847,0.333 -1.847,0.333 l -15.351,-10.516 15.351,-10.518 c 0,0 0.989,-0.46 1.847,0.334 0.693,0.659 0.394,1.579 0.394,1.579 l -1.465,4.61 9.506,0 c 3.49,0 6.329,-2.839 6.329,-6.329 0,-1.189 -0.331,-2.342 -0.959,-3.344 l -3.79,-4.795 -0.142,-0.246 c -1.665,-2.863 -2.545,-6.133 -2.545,-9.454 l 0,-1.91 7.987,0 0,1.91 c 0,1.825 0.461,3.621 1.334,5.211 l 3.648,4.616 0.094,0.143 c 1.544,2.34 2.361,5.061 2.361,7.869 0,7.894 -6.422,14.316 -14.317,14.316"
       style="fill:#000000;fill-opacity:1;fill-rule:nonzero;stroke:none"
       id="path7270" /></g></svg>