<?xml version="1.0" encoding="UTF-8" standalone="no"?>
<!-- Created with Inkscape (http://www.inkscape.org/) -->

<svg
   xmlns:dc="http://purl.org/dc/elements/1.1/"
   xmlns:cc="http://creativecommons.org/ns#"
   xmlns:rdf="http://www.w3.org/1999/02/22-rdf-syntax-ns#"
   xmlns:svg="http://www.w3.org/2000/svg"
   xmlns="http://www.w3.org/2000/svg"
   xmlns:sodipodi="http://sodipodi.sourceforge.net/DTD/sodipodi-0.dtd"
   xmlns:inkscape="http://www.inkscape.org/namespaces/inkscape"
   width="2169.9915"
   height="1630.0071"
   id="svg2934"
   version="1.1"
   inkscape:version="0.48.2 r9819"
   sodipodi:docname="MUTCD M5-4.svg">
  <defs
     id="defs2936">
    <inkscape:perspective
       sodipodi:type="inkscape:persp3d"
       inkscape:vp_x="0 : 526.18109 : 1"
       inkscape:vp_y="0 : 1000 : 0"
       inkscape:vp_z="744.09448 : 526.18109 : 1"
       inkscape:persp3d-origin="372.04724 : 350.78739 : 1"
       id="perspective2942" />
    <inkscape:perspective
       id="perspective2924"
       inkscape:persp3d-origin="0.5 : 0.33333333 : 1"
       inkscape:vp_z="1 : 0.5 : 1"
       inkscape:vp_y="0 : 1000 : 0"
       inkscape:vp_x="0 : 0.5 : 1"
       sodipodi:type="inkscape:persp3d" />
  </defs>
  <sodipodi:namedview
     id="base"
     pagecolor="#ffffff"
     bordercolor="#666666"
     borderopacity="1.0"
     inkscape:pageopacity="0.0"
     inkscape:pageshadow="2"
     inkscape:zoom="0.17376232"
     inkscape:cx="949.68612"
     inkscape:cy="1291.3702"
     inkscape:document-units="px"
     inkscape:current-layer="g2909"
     showgrid="false"
     inkscape:window-width="1280"
     inkscape:window-height="1004"
     inkscape:window-x="-8"
     inkscape:window-y="-8"
     inkscape:window-maximized="1"
     fit-margin-top="0"
     fit-margin-left="0"
     fit-margin-right="0"
     fit-margin-bottom="0" />
  <metadata
     id="metadata2939">
    <rdf:RDF>
      <cc:Work
         rdf:about="">
        <dc:format>image/svg+xml</dc:format>
        <dc:type
           rdf:resource="http://purl.org/dc/dcmitype/StillImage" />
        <dc:title></dc:title>
      </cc:Work>
    </rdf:RDF>
  </metadata>
  <g
     inkscape:label="Ebene 1"
     inkscape:groupmode="layer"
     id="layer1"
     transform="translate(-48.814802,1044.0232)">
    <g
       id="g3018"
       transform="translate(2,-2)">
      <g
         id="g2909"
         transform="matrix(0.80835983,0,0,0.80835983,-165.10178,-177.02766)">
        <path
           inkscape:connector-curvature="0"
           style="fill:#ffffff;fill-rule:nonzero;stroke:#000000;stroke-width:12.37072849;stroke-miterlimit:4;stroke-opacity:1;stroke-dasharray:none"
           d="m 2940.4211,773.18267 c 0,92.23925 -74.7656,167.00484 -167.0048,167.00484 l -2338.06772,0 c -92.23537,0 -167.00483,-74.76559 -167.00483,-167.00484 l 0,-1670.04835 c 0,-92.23533 74.76946,-167.00482 167.00483,-167.00482 l 2338.06772,0 c 92.2392,0 167.0048,74.76949 167.0048,167.00482 l 0,1670.04835 z"
           id="path11" />
        <path
           inkscape:connector-curvature="0"
           style="fill:#000000;fill-rule:nonzero;stroke:none"
           d="m 435.34859,898.4363 c -69.06594,0 -125.25363,-56.19403 -125.25363,-125.25362 l 0,-1670.04835 c 0,-69.06593 56.18769,-125.25363 125.25363,-125.25363 l 2338.06771,0 c 69.0596,0 125.2536,56.1877 125.2536,125.25363 l 0,1670.04835 c 0,69.05959 -56.194,125.25362 -125.2536,125.25362 l -2338.06771,0 z"
           id="path13" />
        <path
           inkscape:connector-curvature="0"
           style="fill:#ffffff;fill-rule:nonzero;stroke:none"
           d="m 435.34859,828.85095 c -30.6958,0 -55.66828,-24.97341 -55.66828,-55.66828 l 0,-1670.04833 c 0,-30.6958 24.97248,-55.6683 55.66828,-55.6683 l 2338.06771,0 c 30.6949,0 55.6683,24.9725 55.6683,55.6683 l 0,1670.04833 c 0,30.69487 -24.9734,55.66828 -55.6683,55.66828 l -2338.06771,0 z"
           id="path15" />
        <path
           inkscape:connector-curvature="0"
           style="fill:#000000;fill-rule:nonzero;stroke:none"
           d="m 1944.1136,606.17784 -212.9312,-376.98255 0,376.98255 -87.9033,0 0,-556.684391 87.9033,0 203.1583,355.499171 0,-355.499171 87.8941,0 0,556.684391 -78.1212,0 z"
           id="path17" />
        <path
           inkscape:connector-curvature="0"
           style="fill:#000000;fill-rule:nonzero;stroke:none"
           d="m 707.6345,606.17784 0,-556.687491 87.78269,0 0,474.653971 257.49981,0 0,82.03352 -345.2825,0 z"
           id="path19" />
        <path
           inkscape:connector-curvature="0"
           style="fill:#000000;fill-rule:nonzero;stroke:none"
           d="m 2155.854,606.17784 0,-556.684391 327.716,0 0,87.895571 -239.9456,0 0,136.73057 161.9174,0 0,89.85014 -161.9174,0 0,152.35011 257.5121,0 0,89.858 -345.2825,0 z"
           id="path21" />
        <path
           inkscape:connector-curvature="0"
           style="fill:#000000;fill-rule:nonzero;stroke:none"
           d="m 1324.0277,203.80282 -56.9719,156.2624 111.9799,0 -55.008,-156.2624 z m 141.45,402.37502 -55.008,-156.26247 -174.8463,0 -55.008,156.26247 -94.2974,0 192.5271,-556.684391 88.4028,0 192.5257,556.684391 -94.2959,0 z"
           id="path23" />
        <path
           inkscape:connector-curvature="0"
           style="fill:#000000;fill-rule:nonzero;stroke:none"
           d="m 713.70235,-581.41371 c -7.84459,-54.69099 -29.42223,-80.085 -66.69215,-80.085 -64.72983,0 -88.26669,50.78648 -88.26669,195.32762 0,160.16846 27.45992,224.62923 96.11437,224.62923 47.07527,0 58.84447,-39.06831 58.84447,-80.08655 l 80.4221,0 c -1.96076,91.80472 -60.80522,158.21543 -139.26657,158.21543 -119.65277,0 -172.61341,-95.70923 -172.61341,-300.80508 0,-179.70185 56.8837,-275.41108 166.72804,-275.41108 45.1145,0 84.34672,19.5318 109.84588,56.644 21.5761,27.34706 29.42224,50.7865 35.30606,101.57143 l -80.4221,0 z"
           id="path25" />
        <path
           inkscape:connector-curvature="0"
           style="fill:#000000;fill-rule:nonzero;stroke:none"
           d="m 905.46256,-173.17812 0,-556.68282 262.49754,0 0,78.12892 -182.18214,0 0,140.63663 115.57814,0 0,76.17894 -115.57814,0 0,183.60635 203.73044,0 0,78.13198 -284.04584,0 z"
           id="path27" />
        <path
           inkscape:connector-curvature="0"
           style="fill:#000000;fill-rule:nonzero;stroke:none"
           d="m 2035.9508,-173.17812 0,-556.68282 262.5069,0 0,78.12892 -182.1901,0 0,140.63663 115.589,0 0,76.17894 -115.589,0 0,183.60635 203.7305,0 0,78.13198 -284.0473,0 z"
           id="path29" />
        <path
           inkscape:connector-curvature="0"
           style="fill:#000000;fill-rule:nonzero;stroke:none"
           d="m 1535.6027,-173.17812 -171.5356,-373.07643 0,373.07643 -79.918,0 0,-556.68432 79.918,0 152.0424,334.01275 0,-334.01275 79.918,0 0,556.68432 -60.4248,0 z"
           id="path31" />
        <path
           inkscape:connector-curvature="0"
           style="fill:#000000;fill-rule:nonzero;stroke:none"
           d="m 2576.4278,-651.73202 -81.8633,0 0,140.63817 81.8633,0 c 46.7768,0 72.1215,-25.39246 72.1215,-70.31831 0,-42.97437 -29.2413,-70.31986 -72.1215,-70.31986 z m 68.2246,478.5539 -74.0698,-261.74142 -76.0181,0 0,261.74142 -79.9304,0 0,-556.68432 165.6905,0 c 87.7239,0 146.1911,58.6001 146.1911,148.45028 0,66.40916 -27.2775,115.24261 -79.9148,134.77445 l 79.9148,273.45959 -81.8633,0 z"
           id="path33" />
        <path
           inkscape:connector-curvature="0"
           style="fill:#000000;fill-rule:nonzero;stroke:none"
           d="m 1856.1423,-655.63808 0,482.45996 -80.3062,0 0,-482.45996 -101.8683,0 0,-74.22436 284.0474,0 0,74.22436 -101.8729,0 z"
           id="path35" />
      </g>
    </g>
  </g>
</svg>
