<?xml version="1.0" encoding="UTF-8" standalone="no"?>
<!-- Created with Inkscape (http://www.inkscape.org/) -->

<svg
   xmlns:dc="http://purl.org/dc/elements/1.1/"
   xmlns:cc="http://creativecommons.org/ns#"
   xmlns:rdf="http://www.w3.org/1999/02/22-rdf-syntax-ns#"
   xmlns:svg="http://www.w3.org/2000/svg"
   xmlns="http://www.w3.org/2000/svg"
   xmlns:sodipodi="http://sodipodi.sourceforge.net/DTD/sodipodi-0.dtd"
   xmlns:inkscape="http://www.inkscape.org/namespaces/inkscape"
   id="svg17624"
   version="1.1"
   inkscape:version="0.48.2 r9819"
   width="90.625"
   height="64.882812"
   xml:space="preserve"
   sodipodi:docname="MUTCD M6-4.svg"><metadata
     id="metadata17630"><rdf:RDF><cc:Work
         rdf:about=""><dc:format>image/svg+xml</dc:format><dc:type
           rdf:resource="http://purl.org/dc/dcmitype/StillImage" /><dc:title></dc:title></cc:Work></rdf:RDF></metadata><defs
     id="defs17628"><inkscape:perspective
       sodipodi:type="inkscape:persp3d"
       inkscape:vp_x="0 : 0.5 : 1"
       inkscape:vp_y="0 : 1000 : 0"
       inkscape:vp_z="1 : 0.5 : 1"
       inkscape:persp3d-origin="0.5 : 0.33333333 : 1"
       id="perspective17632" /><clipPath
       clipPathUnits="userSpaceOnUse"
       id="clipPath17642"><path
         d="m -2,710 501,0 0,-711 -501,0 0,711 z"
         id="path17644"
         inkscape:connector-curvature="0" /></clipPath><clipPath
       clipPathUnits="userSpaceOnUse"
       id="clipPath17648"><path
         d="m 0,708.06 498,0 0,-708 -498,0 0,708 z"
         id="path17650"
         inkscape:connector-curvature="0" /></clipPath><clipPath
       clipPathUnits="userSpaceOnUse"
       id="clipPath17798"><path
         d="m -2,710 501,0 0,-711 -501,0 0,711 z"
         id="path17800"
         inkscape:connector-curvature="0" /></clipPath><clipPath
       clipPathUnits="userSpaceOnUse"
       id="clipPath17804"><path
         d="m 0,708.06 498,0 0,-708 -498,0 0,708 z"
         id="path17806"
         inkscape:connector-curvature="0" /></clipPath><clipPath
       id="Clip0"><path
         inkscape:connector-curvature="0"
         d="m 0,0 212.597,0 0,269.292 L 0,269.292 0,0 z"
         transform="translate(0.923828,0.879883)"
         id="path7" /></clipPath><clipPath
       id="Clip0-8"><path
         inkscape:connector-curvature="0"
         d="m 0,0 170.079,0 0,113.386 L 0,113.386 0,0 z"
         transform="translate(0.0986328,0.822266)"
         id="path7-8" /></clipPath><clipPath
       id="Clip0-1"><path
         inkscape:connector-curvature="0"
         d="m 0,0 287.009,0 0,159.449 L 0,159.449 0,0 z"
         transform="translate(0.396484,0.267578)"
         id="path7-7" /></clipPath><clipPath
       id="Clip0-9"><path
         inkscape:connector-curvature="0"
         d="m 0,0 170.079,0 0,170.079 L 0,170.079 0,0 z"
         transform="translate(0.460938,0.775391)"
         id="path7-4" /></clipPath><clipPath
       id="Clip0-4"><path
         inkscape:connector-curvature="0"
         d="m 0,0 340.157,0 0,226.771 L 0,226.771 0,0 z"
         transform="translate(0.921875,0.25293)"
         id="path7-5" /></clipPath><clipPath
       id="Clip0-5"><path
         inkscape:connector-curvature="0"
         d="m 0,0 255.119,0 0,170.079 L 0,170.079 0,0 z"
         transform="translate(0.147461,0.0595703)"
         id="path7-1" /></clipPath><clipPath
       id="Clip0-0"><path
         inkscape:connector-curvature="0"
         d="m 0,0 170.079,0 0,113.386 L 0,113.386 0,0 z"
         transform="translate(0.0673828,0.207031)"
         id="path7-9" /></clipPath></defs><sodipodi:namedview
     pagecolor="#ffffff"
     bordercolor="#666666"
     borderopacity="1"
     objecttolerance="10"
     gridtolerance="10"
     guidetolerance="10"
     inkscape:pageopacity="0"
     inkscape:pageshadow="2"
     inkscape:window-width="1280"
     inkscape:window-height="1004"
     id="namedview17626"
     showgrid="false"
     inkscape:zoom="5.6568544"
     inkscape:cx="49.18899"
     inkscape:cy="23.226272"
     inkscape:window-x="-8"
     inkscape:window-y="-8"
     inkscape:window-maximized="1"
     inkscape:current-layer="g17634"
     fit-margin-top="0"
     fit-margin-left="0"
     fit-margin-right="0"
     fit-margin-bottom="0"
     showguides="true"
     inkscape:guide-bbox="true" /><g
     id="g17634"
     inkscape:groupmode="layer"
     inkscape:label="GG1999P002"
     transform="matrix(1.25,0,0,-1.25,-5778.7109,-1098.3594)"><path
       inkscape:connector-curvature="0"
       d="m 4630.0766,-878.918 58.285,0 c 3.778,0 6.858,-3.08 6.858,-6.857 l 0,-37.715 c 0,-3.776 -3.08,-6.857 -6.858,-6.857 l -58.285,0 c -3.777,0 -6.857,3.081 -6.857,6.857 l 0,37.715 c 0,3.729 3.128,6.857 6.857,6.857"
       style="fill:#ffffff;fill-opacity:1;fill-rule:nonzero;stroke:#000000;stroke-width:0.48;stroke-linecap:butt;stroke-linejoin:miter;stroke-miterlimit:4;stroke-opacity:1;stroke-dasharray:none"
       id="path6828" /><path
       inkscape:connector-curvature="0"
       d="m 4688.3447,-880.289 c 3.052,-0.078 5.422,-2.453 5.504,-5.504 l -0.01,-37.978 c -0.229,-2.982 -2.569,-5.056 -5.496,-5.204 l -58.55,0.007 c -2.982,0.229 -5.056,2.567 -5.204,5.496 l 0.01,37.979 c 0.229,2.98 2.566,5.058 5.496,5.204 l 58.25,0"
       style="fill:#000000;fill-opacity:1;fill-rule:evenodd;stroke:none"
       id="path6832" /><path
       inkscape:connector-curvature="0"
       d="m 4688.3186,-882.346 c 1.838,-0.006 3.326,-1.429 3.467,-3.251 l 0.01,-37.849 c 0,-1.837 -1.432,-3.327 -3.252,-3.467 l -58.42,-0.005 c -1.838,0.003 -3.326,1.43 -3.467,3.251 l -0.01,37.848 c 0.01,1.839 1.429,3.327 3.251,3.467 l 58.42,0.006"
       style="fill:#ffffff;fill-opacity:1;fill-rule:evenodd;stroke:none"
       id="path6836" /><path
       inkscape:connector-curvature="0"
       d="m 4671.0576,-898.907 1.796,-3.895 c 0.241,-0.465 0.487,-0.819 0.969,-0.94 0.723,-0.184 1.461,0.258 1.645,0.981 l 4.164,16.377 -16.744,-2.215 c -0.739,-0.097 -1.2639,-0.778 -1.168,-1.517 0.066,-0.517 0.39,-0.782 0.8771,-1.097 l 3.5799,-2.226 -18.903,-16.875 -1.781,3.821 c -0.256,0.521 -0.48,0.874 -0.986,1.001 -0.723,0.183 -1.461,-0.258 -1.643,-0.98 l -4.176,-16.368 16.754,2.206 c 0.741,0.095 1.264,0.777 1.168,1.516 -0.064,0.494 -0.384,0.779 -0.818,1.073 l -3.65,2.251 18.916,16.887 z"
       style="fill:#000000;fill-opacity:1;fill-rule:evenodd;stroke:none"
       id="path6840" /></g></svg>