<?xml version="1.0" encoding="UTF-8" standalone="no"?>
<!-- Created with Inkscape (http://www.inkscape.org/) -->

<svg
   xmlns:dc="http://purl.org/dc/elements/1.1/"
   xmlns:cc="http://creativecommons.org/ns#"
   xmlns:rdf="http://www.w3.org/1999/02/22-rdf-syntax-ns#"
   xmlns:svg="http://www.w3.org/2000/svg"
   xmlns="http://www.w3.org/2000/svg"
   xmlns:sodipodi="http://sodipodi.sourceforge.net/DTD/sodipodi-0.dtd"
   xmlns:inkscape="http://www.inkscape.org/namespaces/inkscape"
   id="svg17624"
   version="1.1"
   inkscape:version="0.48.2 r9819"
   width="90.625"
   height="64.882812"
   xml:space="preserve"
   sodipodi:docname="MUTCD M6-6R.svg"><metadata
     id="metadata17630"><rdf:RDF><cc:Work
         rdf:about=""><dc:format>image/svg+xml</dc:format><dc:type
           rdf:resource="http://purl.org/dc/dcmitype/StillImage" /><dc:title></dc:title></cc:Work></rdf:RDF></metadata><defs
     id="defs17628"><inkscape:perspective
       sodipodi:type="inkscape:persp3d"
       inkscape:vp_x="0 : 0.5 : 1"
       inkscape:vp_y="0 : 1000 : 0"
       inkscape:vp_z="1 : 0.5 : 1"
       inkscape:persp3d-origin="0.5 : 0.33333333 : 1"
       id="perspective17632" /><clipPath
       clipPathUnits="userSpaceOnUse"
       id="clipPath17642"><path
         d="m -2,710 501,0 0,-711 -501,0 0,711 z"
         id="path17644"
         inkscape:connector-curvature="0" /></clipPath><clipPath
       clipPathUnits="userSpaceOnUse"
       id="clipPath17648"><path
         d="m 0,708.06 498,0 0,-708 -498,0 0,708 z"
         id="path17650"
         inkscape:connector-curvature="0" /></clipPath><clipPath
       clipPathUnits="userSpaceOnUse"
       id="clipPath17798"><path
         d="m -2,710 501,0 0,-711 -501,0 0,711 z"
         id="path17800"
         inkscape:connector-curvature="0" /></clipPath><clipPath
       clipPathUnits="userSpaceOnUse"
       id="clipPath17804"><path
         d="m 0,708.06 498,0 0,-708 -498,0 0,708 z"
         id="path17806"
         inkscape:connector-curvature="0" /></clipPath><clipPath
       id="Clip0"><path
         inkscape:connector-curvature="0"
         d="m 0,0 212.597,0 0,269.292 L 0,269.292 0,0 z"
         transform="translate(0.923828,0.879883)"
         id="path7" /></clipPath><clipPath
       id="Clip0-8"><path
         inkscape:connector-curvature="0"
         d="m 0,0 170.079,0 0,113.386 L 0,113.386 0,0 z"
         transform="translate(0.0986328,0.822266)"
         id="path7-8" /></clipPath><clipPath
       id="Clip0-1"><path
         inkscape:connector-curvature="0"
         d="m 0,0 287.009,0 0,159.449 L 0,159.449 0,0 z"
         transform="translate(0.396484,0.267578)"
         id="path7-7" /></clipPath><clipPath
       id="Clip0-9"><path
         inkscape:connector-curvature="0"
         d="m 0,0 170.079,0 0,170.079 L 0,170.079 0,0 z"
         transform="translate(0.460938,0.775391)"
         id="path7-4" /></clipPath><clipPath
       id="Clip0-4"><path
         inkscape:connector-curvature="0"
         d="m 0,0 340.157,0 0,226.771 L 0,226.771 0,0 z"
         transform="translate(0.921875,0.25293)"
         id="path7-5" /></clipPath><clipPath
       id="Clip0-5"><path
         inkscape:connector-curvature="0"
         d="m 0,0 255.119,0 0,170.079 L 0,170.079 0,0 z"
         transform="translate(0.147461,0.0595703)"
         id="path7-1" /></clipPath><clipPath
       id="Clip0-0"><path
         inkscape:connector-curvature="0"
         d="m 0,0 170.079,0 0,113.386 L 0,113.386 0,0 z"
         transform="translate(0.0673828,0.207031)"
         id="path7-9" /></clipPath></defs><sodipodi:namedview
     pagecolor="#ffffff"
     bordercolor="#666666"
     borderopacity="1"
     objecttolerance="10"
     gridtolerance="10"
     guidetolerance="10"
     inkscape:pageopacity="0"
     inkscape:pageshadow="2"
     inkscape:window-width="1280"
     inkscape:window-height="1004"
     id="namedview17626"
     showgrid="false"
     inkscape:zoom="8.0000002"
     inkscape:cx="44.581999"
     inkscape:cy="32.093675"
     inkscape:window-x="-8"
     inkscape:window-y="-8"
     inkscape:window-maximized="1"
     inkscape:current-layer="g17634"
     fit-margin-top="0"
     fit-margin-left="0"
     fit-margin-right="0"
     fit-margin-bottom="0"
     showguides="true"
     inkscape:guide-bbox="true" /><g
     id="g17634"
     inkscape:groupmode="layer"
     inkscape:label="GG1999P002"
     transform="matrix(1.25,0,0,-1.25,-6188.9453,-1024.2578)"><path
       inkscape:connector-curvature="0"
       d="m 5016.549,-819.63577 -58.285,0 c -3.778,0 -6.858,-3.08 -6.858,-6.857 l 0,-37.714 c 0,-3.776 3.08,-6.857 6.858,-6.857 l 58.285,0 c 3.777,0 6.857,3.081 6.857,6.857 l 0,37.714 c 0,3.73 -3.127,6.857 -6.857,6.857"
       style="fill:#ffffff;fill-opacity:1;fill-rule:nonzero;stroke:#000000;stroke-width:0.47999999;stroke-linecap:butt;stroke-linejoin:miter;stroke-miterlimit:4;stroke-opacity:1;stroke-dasharray:none"
       id="path6848" /><path
       inkscape:connector-curvature="0"
       d="m 4958.281,-821.00677 c -3.052,-0.078 -5.422,-2.451 -5.504,-5.504 l 0.01,-37.978 c 0.229,-2.978 2.569,-5.06 5.496,-5.203 l 58.551,0.008 c 2.979,0.228 5.057,2.566 5.203,5.494 l -0.01,37.98 c -0.228,2.979 -2.566,5.057 -5.496,5.203 l -58.25,0"
       style="fill:#000000;fill-opacity:1;fill-rule:evenodd;stroke:none"
       id="path6852" /><path
       inkscape:connector-curvature="0"
       d="m 4958.307,-823.06277 c -1.84,-0.006 -3.323,-1.431 -3.467,-3.252 l -0.01,-37.848 c 0.01,-1.836 1.43,-3.33 3.252,-3.466 l 58.42,-0.006 c 1.838,0.004 3.326,1.429 3.467,3.25 l 0.01,37.849 c -0.01,1.838 -1.43,3.326 -3.252,3.467 l -58.42,0.006"
       style="fill:#ffffff;fill-opacity:1;fill-rule:evenodd;stroke:none"
       id="path6856" /><path
       inkscape:connector-curvature="0"
       d="m 5006.717,-839.88177 -9.74,14.393 -9.748,-14.399 c -0.432,-0.633 -0.266,-1.503 0.369,-1.933 0.424,-0.289 0.863,-0.237 1.384,-0.104 l 4.225,1.272 0.01,-10.606 -10.508,-0.01 1.238,4.159 c 0.161,0.574 0.229,1.001 -0.074,1.443 -0.431,0.635 -1.301,0.801 -1.933,0.369 l -14.393,-9.742 14.398,-9.748 c 0.635,-0.429 1.504,-0.265 1.934,0.37 0.289,0.423 0.236,0.863 0.104,1.384 l -1.272,4.227 10.51,0.008 0,-0.002 7.541,0.004 -0.01,18.146 4.158,-1.239 c 0.575,-0.16 1,-0.227 1.444,0.075 0.634,0.431 0.799,1.3 0.367,1.933"
       style="fill:#000000;fill-opacity:1;fill-rule:evenodd;stroke:none"
       id="path6860" /></g></svg>