<?xml version="1.0" encoding="UTF-8" standalone="no"?>
<svg
   xmlns:dc="http://purl.org/dc/elements/1.1/"
   xmlns:cc="http://creativecommons.org/ns#"
   xmlns:rdf="http://www.w3.org/1999/02/22-rdf-syntax-ns#"
   xmlns:svg="http://www.w3.org/2000/svg"
   xmlns="http://www.w3.org/2000/svg"
   xmlns:sodipodi="http://sodipodi.sourceforge.net/DTD/sodipodi-0.dtd"
   xmlns:inkscape="http://www.inkscape.org/namespaces/inkscape"
   width="89.99939"
   height="90.000313"
   viewBox="0 0 253.99833 254.00088"
   version="1.1"
   id="svg2"
   inkscape:version="0.48.2 r9819"
   sodipodi:docname="MUTCD OM1-1.svg">
  <metadata
     id="metadata62">
    <rdf:RDF>
      <cc:Work
         rdf:about="">
        <dc:format>image/svg+xml</dc:format>
        <dc:type
           rdf:resource="http://purl.org/dc/dcmitype/StillImage" />
        <dc:title></dc:title>
      </cc:Work>
    </rdf:RDF>
  </metadata>
  <defs
     id="defs60" />
  <sodipodi:namedview
     pagecolor="#ffffff"
     bordercolor="#666666"
     borderopacity="1"
     objecttolerance="10"
     gridtolerance="10"
     guidetolerance="10"
     inkscape:pageopacity="0"
     inkscape:pageshadow="2"
     inkscape:window-width="1280"
     inkscape:window-height="1004"
     id="namedview58"
     showgrid="false"
     fit-margin-top="0"
     fit-margin-left="0"
     fit-margin-right="0"
     fit-margin-bottom="0"
     inkscape:zoom="4.1149687"
     inkscape:cx="42.518534"
     inkscape:cy="30.087421"
     inkscape:window-x="-8"
     inkscape:window-y="-8"
     inkscape:window-maximized="1"
     inkscape:current-layer="svg2"
     showguides="true"
     inkscape:guide-bbox="true" />
  <!-- draw the bicycle -->
  <!-- RIGHT -->
  <!-- LANE -->
  <!-- ONLY -->
  <path
     inkscape:connector-curvature="0"
     d="M 4.918575,115.08054 115.08057,4.9185473 c 6.5475,-6.5581 17.2791,-6.5581 23.8372,0 L 249.07967,115.08054 c 6.5582,6.5546 6.5582,17.2861 0,23.8407 l -110.1619,110.1584 c -6.5581,6.5617 -17.2897,6.5617 -23.8372,0 L 4.918575,138.92124 c -6.5581,-6.5546 -6.5581,-17.2861 0,-23.8407"
     style="fill:#000000;fill-opacity:1;fill-rule:nonzero;stroke:none"
     id="path4191" />
  <path
     inkscape:connector-curvature="0"
     d="m 35.324875,115.89824 c 6.1525,-6.1489 16.1855,-6.1489 22.3344,0 6.1524,6.1524 6.1524,16.1854 0,22.3344 -6.1489,6.1524 -16.1819,6.1524 -22.3344,0 -6.1489,-6.149 -6.1489,-16.182 0,-22.3344"
     style="fill:#fecf33;fill-opacity:1;fill-rule:evenodd;stroke:none"
     id="path4199" />
  <path
     inkscape:connector-curvature="0"
     d="m 75.902875,75.283947 c 6.1524,-6.1489 16.1819,-6.1489 22.3308,0 6.152395,6.149 6.152395,16.182 0,22.3344 -6.1489,6.148893 -16.1784,6.148893 -22.3308,0 -6.156,-6.1524 -6.156,-16.1854 0,-22.3344"
     style="fill:#fecf33;fill-opacity:1;fill-rule:evenodd;stroke:none"
     id="path4203" />
  <path
     inkscape:connector-curvature="0"
     d="m 116.07717,35.143547 c 6.14541,-6.149 16.1819,-6.149 22.3273,0 6.1525,6.1489 6.1525,16.1819 0,22.3343 -6.1454,6.1489 -16.1819,6.1489 -22.3273,0 -6.15239,-6.1524 -6.15239,-16.1854 0,-22.3343"
     style="fill:#fecf33;fill-opacity:1;fill-rule:evenodd;stroke:none"
     id="path4207" />
  <path
     inkscape:connector-curvature="0"
     d="m 75.955675,156.76784 c 6.1525,-6.1453 16.1855,-6.1453 22.3379,0 6.145395,6.1525 6.145395,16.1855 0,22.3379 -6.1524,6.149 -16.1854,6.149 -22.3379,0 -6.1489,-6.1524 -6.1489,-16.1854 0,-22.3379"
     style="fill:#fecf33;fill-opacity:1;fill-rule:evenodd;stroke:none"
     id="path4211" />
  <path
     inkscape:connector-curvature="0"
     d="m 116.13357,115.92434 c 6.1489,-6.1489 16.1819,-6.1489 22.3344,0 6.1489,6.1489 6.1489,16.1819 0,22.3344 -6.1525,6.1489 -16.1855,6.1489 -22.3344,0 -6.1524,-6.1525 -6.1524,-16.1855 0,-22.3344"
     style="fill:#fecf33;fill-opacity:1;fill-rule:evenodd;stroke:none"
     id="path4215" />
  <path
     inkscape:connector-curvature="0"
     d="m 156.67127,75.929947 c 6.1489,-6.1525 16.1855,-6.1525 22.3344,0 6.1489,6.1489 6.1489,16.1819 0,22.3308 -6.1489,6.152493 -16.1855,6.152493 -22.3344,0 -6.1524,-6.1489 -6.1524,-16.1819 0,-22.3308"
     style="fill:#fecf33;fill-opacity:1;fill-rule:evenodd;stroke:none"
     id="path4219" />
  <path
     inkscape:connector-curvature="0"
     d="m 115.86547,196.44974 c 6.1525,-6.1559 16.1819,-6.1559 22.3344,0 6.1489,6.1525 6.1489,16.182 0,22.3309 -6.1525,6.1524 -16.1819,6.1524 -22.3344,0 -6.1524,-6.1489 -6.1524,-16.1784 0,-22.3309"
     style="fill:#fecf33;fill-opacity:1;fill-rule:evenodd;stroke:none"
     id="path4223" />
  <path
     inkscape:connector-curvature="0"
     d="m 156.41727,155.83054 c 6.1489,-6.1489 16.1855,-6.1489 22.3309,0 6.1489,6.149 6.1489,16.1855 0,22.3379 -6.1454,6.1454 -16.182,6.1454 -22.3309,0 -6.1524,-6.1524 -6.1524,-16.1889 0,-22.3379"
     style="fill:#fecf33;fill-opacity:1;fill-rule:evenodd;stroke:none"
     id="path4227" />
  <path
     inkscape:connector-curvature="0"
     d="m 196.63747,115.82984 c 6.1454,-6.1525 16.1784,-6.1525 22.3309,0 6.1524,6.1489 6.1524,16.1819 0,22.3343 -6.1525,6.1489 -16.1855,6.1489 -22.3309,0 -6.1524,-6.1524 -6.1524,-16.1854 0,-22.3343"
     style="fill:#fecf33;fill-opacity:1;fill-rule:evenodd;stroke:none"
     id="path4231" />
</svg>
