<?xml version="1.0" encoding="UTF-8" standalone="no"?>
<svg
   xmlns:dc="http://purl.org/dc/elements/1.1/"
   xmlns:cc="http://creativecommons.org/ns#"
   xmlns:rdf="http://www.w3.org/1999/02/22-rdf-syntax-ns#"
   xmlns:svg="http://www.w3.org/2000/svg"
   xmlns="http://www.w3.org/2000/svg"
   xmlns:sodipodi="http://sodipodi.sourceforge.net/DTD/sodipodi-0.dtd"
   xmlns:inkscape="http://www.inkscape.org/namespaces/inkscape"
   width="89.998741"
   height="89.999695"
   viewBox="0 0 253.9965 253.99913"
   version="1.1"
   id="svg2"
   inkscape:version="0.48.2 r9819"
   sodipodi:docname="MUTCD OM1-1.svg">
  <metadata
     id="metadata62">
    <rdf:RDF>
      <cc:Work
         rdf:about="">
        <dc:format>image/svg+xml</dc:format>
        <dc:type
           rdf:resource="http://purl.org/dc/dcmitype/StillImage" />
        <dc:title />
      </cc:Work>
    </rdf:RDF>
  </metadata>
  <defs
     id="defs60" />
  <sodipodi:namedview
     pagecolor="#ffffff"
     bordercolor="#666666"
     borderopacity="1"
     objecttolerance="10"
     gridtolerance="10"
     guidetolerance="10"
     inkscape:pageopacity="0"
     inkscape:pageshadow="2"
     inkscape:window-width="1280"
     inkscape:window-height="1004"
     id="namedview58"
     showgrid="false"
     fit-margin-top="0"
     fit-margin-left="0"
     fit-margin-right="0"
     fit-margin-bottom="0"
     inkscape:zoom="4.1149687"
     inkscape:cx="1.9947176"
     inkscape:cy="25.287432"
     inkscape:window-x="-8"
     inkscape:window-y="-8"
     inkscape:window-maximized="1"
     inkscape:current-layer="svg2"
     showguides="true"
     inkscape:guide-bbox="true" />
  <!-- draw the bicycle -->
  <!-- RIGHT -->
  <!-- LANE -->
  <!-- ONLY -->
  <path
     inkscape:connector-curvature="0"
     d="M 4.91595,115.07792 115.07785,4.9159193 c 6.5546,-6.5546 17.2862,-6.5546 23.8408,0 L 249.08055,115.07792 c 6.5546,6.5546 6.5546,17.2861 0,23.8442 l -110.1619,110.1584 c -6.5546,6.5582 -17.2862,6.5582 -23.8408,0 L 4.91595,138.92212 c -6.5546,-6.5581 -6.5546,-17.2896 0,-23.8442"
     style="fill:#fecf33;fill-opacity:1;fill-rule:nonzero;stroke:none"
     id="path4247" />
  <path
     inkscape:connector-curvature="0"
     d="m 196.63555,115.82932 c 6.1489,-6.1489 16.1819,-6.1489 22.3343,0 6.1489,6.1489 6.1489,16.1819 0,22.3344 -6.1524,6.1489 -16.1854,6.1489 -22.3343,0 -6.149,-6.1525 -6.149,-16.1855 0,-22.3344 z m -40.2202,40.0015 c 6.1489,-6.1489 16.1819,-6.1489 22.3343,0 6.1489,6.1489 6.1489,16.1854 0,22.3343 -6.1524,6.149 -16.1854,6.149 -22.3343,0 -6.1525,-6.1489 -6.1525,-16.1854 0,-22.3343 z m -40.5519,40.6118 c 6.149,-6.149 16.182,-6.149 22.3344,0 6.1489,6.1559 6.1489,16.1854 0,22.3379 -6.1524,6.1524 -16.1854,6.1524 -22.3344,0 -6.1524,-6.1525 -6.1524,-16.182 0,-22.3379 z m 40.8059,-120.516001 c 6.1524,-6.1489 16.1854,-6.1489 22.3343,0 6.1489,6.1524 6.1489,16.1854 0,22.3344 -6.1489,6.152401 -16.1819,6.152401 -22.3343,0 -6.149,-6.149 -6.149,-16.182 0,-22.3344 z m -40.5377,39.997901 c 6.1489,-6.1524 16.1819,-6.1524 22.3343,0 6.1489,6.149 6.1489,16.182 0,22.3309 -6.1524,6.1524 -16.1854,6.1524 -22.3343,0 -6.1525,-6.1489 -6.1525,-16.1819 0,-22.3309 z m -40.1744,40.8411 c 6.1489,-6.1489 16.1819,-6.1489 22.3309,0 6.1524,6.156 6.1524,16.1855 0,22.3344 -6.149,6.1524 -16.182,6.1524 -22.3309,0 -6.1524,-6.1489 -6.1524,-16.1784 0,-22.3344 z m 40.1144,-121.620101 c 6.1524,-6.1525 16.1854,-6.1525 22.3344,0 6.1489,6.1489 6.1489,16.1819 0,22.3308 -6.149,6.1525 -16.182,6.1525 -22.3344,0 -6.1489,-6.1489 -6.1489,-16.1819 0,-22.3308 z m -40.1708,40.139 c 6.1489,-6.1489 16.1819,-6.1489 22.3308,0 6.1525,6.149 6.1525,16.1855 0,22.3344 -6.1489,6.148901 -16.1819,6.148901 -22.3308,0 -6.1525,-6.1489 -6.1525,-16.1854 0,-22.3344 z m -40.5765,40.615301 c 6.1524,-6.1524 16.1819,-6.1524 22.3343,0 6.1525,6.1525 6.1525,16.182 0,22.3344 -6.1524,6.1525 -16.1819,6.1525 -22.3343,0 -6.1525,-6.1524 -6.1525,-16.1819 0,-22.3344 z"
     style="fill:none;stroke:#000000;stroke-width:1.4111114;stroke-linecap:butt;stroke-linejoin:miter;stroke-miterlimit:2.61299992;stroke-opacity:1;stroke-dasharray:none"
     id="path4263" />
</svg>
