<?xml version="1.0" encoding="UTF-8" standalone="no"?>
<svg
   xmlns:dc="http://purl.org/dc/elements/1.1/"
   xmlns:cc="http://creativecommons.org/ns#"
   xmlns:rdf="http://www.w3.org/1999/02/22-rdf-syntax-ns#"
   xmlns:svg="http://www.w3.org/2000/svg"
   xmlns="http://www.w3.org/2000/svg"
   xmlns:sodipodi="http://sodipodi.sourceforge.net/DTD/sodipodi-0.dtd"
   xmlns:inkscape="http://www.inkscape.org/namespaces/inkscape"
   width="324.24576"
   height="640.04291"
   viewBox="0 0 915.09377 1806.3433"
   version="1.1"
   id="svg2"
   inkscape:version="0.48.2 r9819"
   sodipodi:docname="MUTCD OM2-1V.svg">
  <metadata
     id="metadata62">
    <rdf:RDF>
      <cc:Work
         rdf:about="">
        <dc:format>image/svg+xml</dc:format>
        <dc:type
           rdf:resource="http://purl.org/dc/dcmitype/StillImage" />
        <dc:title />
      </cc:Work>
    </rdf:RDF>
  </metadata>
  <defs
     id="defs60" />
  <sodipodi:namedview
     pagecolor="#ffffff"
     bordercolor="#666666"
     borderopacity="1"
     objecttolerance="10"
     gridtolerance="10"
     guidetolerance="10"
     inkscape:pageopacity="0"
     inkscape:pageshadow="2"
     inkscape:window-width="1280"
     inkscape:window-height="1004"
     id="namedview58"
     showgrid="false"
     fit-margin-top="0"
     fit-margin-left="0"
     fit-margin-right="0"
     fit-margin-bottom="0"
     inkscape:zoom="0.72743056"
     inkscape:cx="105.81037"
     inkscape:cy="296.29608"
     inkscape:window-x="-8"
     inkscape:window-y="-8"
     inkscape:window-maximized="1"
     inkscape:current-layer="svg2"
     showguides="true"
     inkscape:guide-bbox="true" />
  <!-- draw the bicycle -->
  <!-- RIGHT -->
  <!-- LANE -->
  <!-- ONLY -->
  <path
     inkscape:connector-curvature="0"
     d="m 190.19566,11.993745 534.72389,0 c 98.15499,0 178.19241,80.086748 178.19241,178.291135 l 0,1425.78132 c 0,98.1551 -80.03742,178.2911 -178.19241,178.2911 l -534.72389,0 c -98.155026,0 -178.19097,-80.136 -178.19097,-178.2911 l 0,-1425.78132 c 0,-98.204387 80.035944,-178.291135 178.19097,-178.291135 z"
     style="fill:#ffffff;stroke:#000000;stroke-width:23.98889351;stroke-linecap:butt;stroke-linejoin:miter;stroke-miterlimit:2.61299992;stroke-opacity:1;stroke-dasharray:none"
     id="path4373" />
  <path
     inkscape:connector-curvature="0"
     d="m 457.53858,115.52436 c 122.79251,0 222.78881,100.04565 222.78881,222.83818 0,122.64438 -99.9963,222.69003 -222.78881,222.69003 -122.69379,0 -222.79024,-100.04565 -222.79024,-222.69003 0,-122.79253 100.09645,-222.83818 222.79024,-222.83818"
     style="fill:#fecf33;fill-opacity:1;fill-rule:nonzero;stroke:#000000;stroke-width:11.28889084;stroke-miterlimit:4;stroke-opacity:1;stroke-dasharray:none"
     id="path4377" />
  <path
     inkscape:connector-curvature="0"
     d="m 457.53858,680.55482 c 122.79251,0 222.78881,100.09643 222.78881,222.79025 0,122.69233 -99.9963,222.83813 -222.78881,222.83813 -122.69379,0 -222.79024,-100.1458 -222.79024,-222.83813 0,-122.69382 100.09645,-222.79025 222.79024,-222.79025"
     style="fill:#fecf33;fill-opacity:1;fill-rule:nonzero;stroke:#000000;stroke-width:11.28889084;stroke-miterlimit:4;stroke-opacity:1;stroke-dasharray:none"
     id="path4385" />
  <path
     inkscape:connector-curvature="0"
     d="m 457.53858,1244.9503 c 122.79251,0 222.78881,100.1459 222.78881,222.838 0,122.6936 -99.9963,222.8396 -222.78881,222.8396 -122.69379,0 -222.79024,-100.146 -222.79024,-222.8396 0,-122.6921 100.09645,-222.838 222.79024,-222.838"
     style="fill:#fecf33;fill-opacity:1;fill-rule:nonzero;stroke:#000000;stroke-width:11.28889084;stroke-miterlimit:4;stroke-opacity:1;stroke-dasharray:none"
     id="path4393" />
</svg>
