<?xml version="1.0" encoding="UTF-8" standalone="no"?>
<svg
   xmlns:dc="http://purl.org/dc/elements/1.1/"
   xmlns:cc="http://creativecommons.org/ns#"
   xmlns:rdf="http://www.w3.org/1999/02/22-rdf-syntax-ns#"
   xmlns:svg="http://www.w3.org/2000/svg"
   xmlns="http://www.w3.org/2000/svg"
   xmlns:sodipodi="http://sodipodi.sourceforge.net/DTD/sodipodi-0.dtd"
   xmlns:inkscape="http://www.inkscape.org/namespaces/inkscape"
   width="136.62767"
   height="406.26221"
   viewBox="0 0 385.59373 1146.5622"
   version="1.1"
   id="svg2"
   inkscape:version="0.48.2 r9819"
   sodipodi:docname="AJAX1.svg">
  <metadata
     id="metadata62">
    <rdf:RDF>
      <cc:Work
         rdf:about="">
        <dc:format>image/svg+xml</dc:format>
        <dc:type
           rdf:resource="http://purl.org/dc/dcmitype/StillImage" />
        <dc:title />
      </cc:Work>
    </rdf:RDF>
  </metadata>
  <defs
     id="defs60" />
  <sodipodi:namedview
     pagecolor="#ffffff"
     bordercolor="#666666"
     borderopacity="1"
     objecttolerance="10"
     gridtolerance="10"
     guidetolerance="10"
     inkscape:pageopacity="0"
     inkscape:pageshadow="2"
     inkscape:window-width="1280"
     inkscape:window-height="1004"
     id="namedview58"
     showgrid="false"
     fit-margin-top="0"
     fit-margin-left="0"
     fit-margin-right="0"
     fit-margin-bottom="0"
     inkscape:zoom="1.4548611"
     inkscape:cx="41.558208"
     inkscape:cy="210.12979"
     inkscape:window-x="-8"
     inkscape:window-y="-8"
     inkscape:window-maximized="1"
     inkscape:current-layer="svg2"
     showguides="true"
     inkscape:guide-bbox="true" />
  <!-- draw the bicycle -->
  <!-- RIGHT -->
  <!-- LANE -->
  <!-- ONLY -->
  <path
     inkscape:connector-curvature="0"
     d="m 332.30118,2.5327537 -279.02212,0 c -27.9401,0 -50.73725,22.7860733 -50.73725,50.7372523 l 0,1039.983194 c 0,27.9294 22.79715,50.7589 50.73725,50.7589 l 279.02212,0 c 27.94043,0 50.73725,-22.8295 50.73725,-50.7589 l 0,-1039.983194 c 0,-27.951179 -22.79682,-50.7372523 -50.73725,-50.7372523"
     style="fill:#fecf33;fill-opacity:1;fill-rule:evenodd;stroke:none"
     id="path4419" />
  <path
     inkscape:connector-curvature="0"
     d="m 383.25867,53.270006 0,84.916504 L 247.82205,2.7499016 332.53249,2.5315231 c 27.92934,0 50.72618,22.7860739 50.72618,50.7372469"
     style="fill:#000000;fill-opacity:1;fill-rule:nonzero;stroke:none"
     id="path4443" />
  <path
     inkscape:connector-curvature="0"
     d="M 382.74009,693.40845 383.32601,550.88654 2.14565,169.71695 l 0,143.09737 c 0,0 379.99774,379.99743 380.59444,380.59413"
     style="fill:#000000;fill-opacity:1;fill-rule:nonzero;stroke:none"
     id="path4447" />
  <path
     inkscape:connector-curvature="0"
     d="m 383.32262,971.95321 0,-143.07524 L 2.73927,448.27278 2.14258,590.77316 383.32262,971.95321 z"
     style="fill:#000000;fill-opacity:1;fill-rule:nonzero;stroke:none"
     id="path4451" />
  <path
     inkscape:connector-curvature="0"
     d="m 2.76849,1093.2532 0,-84.895 135.43693,135.4367 -84.71044,0.2187 c -27.92934,0 -50.72649,-22.8294 -50.72649,-50.7588"
     style="fill:#000000;fill-opacity:1;fill-rule:nonzero;stroke:none"
     id="path4455" />
  <path
     inkscape:connector-curvature="0"
     d="m 334.48434,1144.0988 c 22.78609,0 43.0442,-15.8743 48.79493,-37.6841 l -0.0308,-0.1635 L 2.1333,725.66776 l 0,143.05367 276.21182,275.28977 56.12995,0.087 z"
     style="fill:#000000;fill-opacity:1;fill-rule:nonzero;stroke:none"
     id="path4459" />
  <path
     inkscape:connector-curvature="0"
     d="m 3.83947,37.102634 379.45487,379.574196 0,-143.87831 L 113.48439,2.5545915 51.75564,2.4684705 c -21.72278,0 -41.15629,14.4203425 -47.91617,34.6350865"
     style="fill:#000000;fill-opacity:1;fill-rule:nonzero;stroke:none"
     id="path4463" />
  <path
     inkscape:connector-curvature="0"
     d="m 332.30118,2.5327537 -279.02212,0 c -27.9401,0 -50.73725,22.7860733 -50.73725,50.7372523 l 0,1039.983194 c 0,27.9294 22.79715,50.7589 50.73725,50.7589 l 279.02212,0 c 27.94043,0 50.73725,-22.8295 50.73725,-50.7589 l 0,-1039.983194 c 0,-27.951179 -22.79682,-50.7372523 -50.73725,-50.7372523"
     style="fill:none;stroke:#000000;stroke-width:5.08000109;stroke-linecap:butt;stroke-linejoin:miter;stroke-miterlimit:2.61299992;stroke-opacity:1;stroke-dasharray:none"
     id="path4431" />
</svg>
