<?xml version="1.0" encoding="UTF-8" standalone="no"?>
<svg
   xmlns:dc="http://purl.org/dc/elements/1.1/"
   xmlns:cc="http://creativecommons.org/ns#"
   xmlns:rdf="http://www.w3.org/1999/02/22-rdf-syntax-ns#"
   xmlns:svg="http://www.w3.org/2000/svg"
   xmlns="http://www.w3.org/2000/svg"
   xmlns:sodipodi="http://sodipodi.sourceforge.net/DTD/sodipodi-0.dtd"
   xmlns:inkscape="http://www.inkscape.org/namespaces/inkscape"
   width="136.62767"
   height="406.26221"
   viewBox="0 0 385.59373 1146.5622"
   version="1.1"
   id="svg2"
   inkscape:version="0.48.2 r9819"
   sodipodi:docname="AJAX1.svg">
  <metadata
     id="metadata62">
    <rdf:RDF>
      <cc:Work
         rdf:about="">
        <dc:format>image/svg+xml</dc:format>
        <dc:type
           rdf:resource="http://purl.org/dc/dcmitype/StillImage" />
        <dc:title />
      </cc:Work>
    </rdf:RDF>
  </metadata>
  <defs
     id="defs60" />
  <sodipodi:namedview
     pagecolor="#ffffff"
     bordercolor="#666666"
     borderopacity="1"
     objecttolerance="10"
     gridtolerance="10"
     guidetolerance="10"
     inkscape:pageopacity="0"
     inkscape:pageshadow="2"
     inkscape:window-width="1280"
     inkscape:window-height="1004"
     id="namedview58"
     showgrid="false"
     fit-margin-top="0"
     fit-margin-left="0"
     fit-margin-right="0"
     fit-margin-bottom="0"
     inkscape:zoom="1.4548611"
     inkscape:cx="41.558208"
     inkscape:cy="210.12997"
     inkscape:window-x="-8"
     inkscape:window-y="-8"
     inkscape:window-maximized="1"
     inkscape:current-layer="svg2"
     showguides="true"
     inkscape:guide-bbox="true" />
  <!-- draw the bicycle -->
  <!-- RIGHT -->
  <!-- LANE -->
  <!-- ONLY -->
  <path
     inkscape:connector-curvature="0"
     d="m 53.27906,2.5323415 279.02212,0 c 27.9401,0 50.73725,22.7860745 50.73725,50.7372535 l 0,1039.983305 c 0,27.9294 -22.79715,50.7589 -50.73725,50.7589 l -279.02212,0 c -27.94043,0 -50.73725,-22.8295 -50.73725,-50.7589 l 0,-1039.983305 c 0,-27.951179 22.79682,-50.7372535 50.73725,-50.7372535"
     style="fill:#fecf33;fill-opacity:1;fill-rule:evenodd;stroke:none"
     id="path4419" />
  <path
     inkscape:connector-curvature="0"
     d="m 2.32157,53.269595 0,84.916495 L 137.75819,2.7494894 53.04775,2.5311109 c -27.92934,0 -50.72618,22.7860751 -50.72618,50.7372481"
     style="fill:#000000;fill-opacity:1;fill-rule:nonzero;stroke:none"
     id="path4443" />
  <path
     inkscape:connector-curvature="0"
     d="M 2.84015,693.40803 2.25423,550.88612 383.43459,169.71653 l 0,143.09737 c 0,0 -379.99774,379.99743 -380.59444,380.59413"
     style="fill:#000000;fill-opacity:1;fill-rule:nonzero;stroke:none"
     id="path4447" />
  <path
     inkscape:connector-curvature="0"
     d="m 2.25762,971.95279 0,-143.07524 380.58335,-380.60519 0.59669,142.50038 L 2.25762,971.95279 z"
     style="fill:#000000;fill-opacity:1;fill-rule:nonzero;stroke:none"
     id="path4451" />
  <path
     inkscape:connector-curvature="0"
     d="m 382.81175,1093.2529 0,-84.895 -135.43693,135.4367 84.71044,0.2187 c 27.92934,0 50.72649,-22.8294 50.72649,-50.7588"
     style="fill:#000000;fill-opacity:1;fill-rule:nonzero;stroke:none"
     id="path4455" />
  <path
     inkscape:connector-curvature="0"
     d="m 51.0959,1144.0985 c -22.78609,0 -43.0442,-15.8743 -48.79493,-37.6841 l 0.0308,-0.1635 381.11517,-380.58356 0,143.05367 -276.21182,275.28989 -56.12995,0.087 z"
     style="fill:#000000;fill-opacity:1;fill-rule:nonzero;stroke:none"
     id="path4459" />
  <path
     inkscape:connector-curvature="0"
     d="M 381.74077,37.102223 2.2859,416.67641 2.2859,272.7981 272.09585,2.5541793 333.8246,2.4680583 c 21.72278,0 41.15629,14.4203437 47.91617,34.6350877"
     style="fill:#000000;fill-opacity:1;fill-rule:nonzero;stroke:none"
     id="path4463" />
  <path
     inkscape:connector-curvature="0"
     d="m 53.27906,2.5323415 279.02212,0 c 27.9401,0 50.73725,22.7860745 50.73725,50.7372535 l 0,1039.983305 c 0,27.9294 -22.79715,50.7589 -50.73725,50.7589 l -279.02212,0 c -27.94043,0 -50.73725,-22.8295 -50.73725,-50.7589 l 0,-1039.983305 c 0,-27.951179 22.79682,-50.7372535 50.73725,-50.7372535"
     style="fill:none;stroke:#000000;stroke-width:5.08000088;stroke-linecap:butt;stroke-linejoin:miter;stroke-miterlimit:2.61299992;stroke-opacity:1;stroke-dasharray:none"
     id="path4431" />
</svg>
