<?xml version="1.0" encoding="UTF-8" standalone="no"?>
<svg
   xmlns:dc="http://purl.org/dc/elements/1.1/"
   xmlns:cc="http://creativecommons.org/ns#"
   xmlns:rdf="http://www.w3.org/1999/02/22-rdf-syntax-ns#"
   xmlns:svg="http://www.w3.org/2000/svg"
   xmlns="http://www.w3.org/2000/svg"
   xmlns:sodipodi="http://sodipodi.sourceforge.net/DTD/sodipodi-0.dtd"
   xmlns:inkscape="http://www.inkscape.org/namespaces/inkscape"
   width="136.61661"
   height="406.22897"
   viewBox="0 0 385.56252 1146.4684"
   version="1.1"
   id="svg2"
   inkscape:version="0.48.2 r9819"
   sodipodi:docname="AJAX1.svg">
  <metadata
     id="metadata62">
    <rdf:RDF>
      <cc:Work
         rdf:about="">
        <dc:format>image/svg+xml</dc:format>
        <dc:type
           rdf:resource="http://purl.org/dc/dcmitype/StillImage" />
        <dc:title />
      </cc:Work>
    </rdf:RDF>
  </metadata>
  <defs
     id="defs60" />
  <sodipodi:namedview
     pagecolor="#ffffff"
     bordercolor="#666666"
     borderopacity="1"
     objecttolerance="10"
     gridtolerance="10"
     guidetolerance="10"
     inkscape:pageopacity="0"
     inkscape:pageshadow="2"
     inkscape:window-width="1280"
     inkscape:window-height="1004"
     id="namedview58"
     showgrid="false"
     fit-margin-top="0"
     fit-margin-left="0"
     fit-margin-right="0"
     fit-margin-bottom="0"
     inkscape:zoom="1.4548611"
     inkscape:cx="-27.659734"
     inkscape:cy="221.97322"
     inkscape:window-x="-8"
     inkscape:window-y="-8"
     inkscape:window-maximized="1"
     inkscape:current-layer="svg2"
     showguides="true"
     inkscape:guide-bbox="true" />
  <!-- draw the bicycle -->
  <!-- RIGHT -->
  <!-- LANE -->
  <!-- ONLY -->
  <path
     inkscape:connector-curvature="0"
     d="m 383.01529,50.077102 c 0,-13.129144 -5.31674,-25.021221 -13.92115,-33.625937 C 360.4679,7.8467562 348.57582,2.5300165 335.45744,2.5300165 l -142.68493,0 -142.66309,0 c -13.12945,0 -25.03229,5.3167397 -33.63701,13.9211485 C 7.86801,25.055881 2.55127,36.947958 2.55127,50.077102 l 0,523.138168 0,523.14903 c 0,13.14 5.31674,25.0214 13.92114,33.6259 8.60472,8.6045 20.50756,13.9321 33.63701,13.9321 l 142.66309,0 142.68493,0 c 13.11838,0 25.01046,-5.3276 33.6367,-13.9321 8.60441,-8.6045 13.92115,-20.4859 13.92115,-33.6259 l 0,-523.14903 0,-523.138168 z"
     style="fill:#fecf33;fill-opacity:1;fill-rule:nonzero;stroke:none"
     id="path4539" />
  <path
     inkscape:connector-curvature="0"
     d="m 369.09414,1129.9901 c 7.88838,-7.8775 13.00981,-18.5219 13.81288,-30.3707 L 192.77251,909.50668 2.65984,1099.6194 c 0.80308,11.8488 5.93527,22.4932 13.81288,30.3707 8.60441,8.6045 20.50756,13.9321 33.6367,13.9321 l 42.77291,0 99.89018,-99.8902 99.90126,99.8902 42.78367,0 c 13.11838,0 25.01046,-5.3276 33.6367,-13.9321"
     style="fill:#000000;fill-opacity:1;fill-rule:nonzero;stroke:none"
     id="path4547" />
  <path
     inkscape:connector-curvature="0"
     d="m 192.77251,775.00318 190.24309,190.22113 0,-134.51442 L 192.77251,640.48867 2.55127,830.70989 l 0,134.51442 190.22124,-190.22113 z"
     style="fill:#000000;fill-opacity:1;fill-rule:nonzero;stroke:none"
     id="path4551" />
  <path
     inkscape:connector-curvature="0"
     d="m 192.77251,505.96463 190.24309,190.23201 0,-134.5145 L 192.77251,371.45012 2.55127,561.68214 l 0,134.5145 190.22124,-190.23201 z"
     style="fill:#000000;fill-opacity:1;fill-rule:nonzero;stroke:none"
     id="path4555" />
  <path
     inkscape:connector-curvature="0"
     d="m 192.77251,236.93471 190.24309,190.22123 0,-134.50373 L 192.77251,102.43096 2.55127,292.65221 l 0,134.50373 190.22124,-190.22123 z"
     style="fill:#000000;fill-opacity:1;fill-rule:nonzero;stroke:none"
     id="path4559" />
  <path
     inkscape:connector-curvature="0"
     d="m 383.01529,158.13893 0,-108.060598 c 0,-13.129451 -5.31674,-25.021529 -13.92115,-33.625937 C 360.4679,7.847679 348.57582,2.5309392 335.45744,2.5309392 l -108.06091,0 155.61876,155.6079908 z"
     style="fill:#000000;fill-opacity:1;fill-rule:nonzero;stroke:none"
     id="path4563" />
  <path
     inkscape:connector-curvature="0"
     d="m 158.17003,2.5300165 -108.06061,0 c -13.12914,0 -25.03229,5.3167397 -33.6367,13.9211485 C 7.86801,25.055573 2.55127,36.947958 2.55127,50.077102 l 0,108.060598 L 158.17003,2.5300165 z"
     style="fill:#000000;fill-opacity:1;fill-rule:nonzero;stroke:none"
     id="path4567" />
  <path
     inkscape:connector-curvature="0"
     d="m 383.01529,50.077102 c 0,-13.129144 -5.31674,-25.021221 -13.92115,-33.625937 C 360.4679,7.8467562 348.57582,2.5300165 335.45744,2.5300165 l -285.34802,0 c -13.12945,0 -25.03229,5.3167397 -33.63701,13.9211485 C 7.86801,25.055881 2.55127,36.947958 2.55127,50.077102 l 0,1046.287198 c 0,13.1401 5.31674,25.0214 13.92114,33.6259 8.60472,8.6045 20.50756,13.9321 33.63701,13.9321 l 285.34802,0 c 13.11838,0 25.01046,-5.3276 33.6367,-13.9321 8.60441,-8.6045 13.92115,-20.4858 13.92115,-33.6259 z"
     style="fill:none;stroke:#000000;stroke-width:5.08000124;stroke-linecap:butt;stroke-linejoin:miter;stroke-miterlimit:4;stroke-opacity:1;stroke-dasharray:none"
     id="path4543"
     sodipodi:nodetypes="scsscsscsscss" />
</svg>
