<?xml version="1.0" encoding="UTF-8" standalone="no"?>
<svg
   xmlns:dc="http://purl.org/dc/elements/1.1/"
   xmlns:cc="http://creativecommons.org/ns#"
   xmlns:rdf="http://www.w3.org/1999/02/22-rdf-syntax-ns#"
   xmlns:svg="http://www.w3.org/2000/svg"
   xmlns="http://www.w3.org/2000/svg"
   xmlns:sodipodi="http://sodipodi.sourceforge.net/DTD/sodipodi-0.dtd"
   xmlns:inkscape="http://www.inkscape.org/namespaces/inkscape"
   width="89.998741"
   height="89.999695"
   viewBox="0 0 253.9965 253.99913"
   version="1.1"
   id="svg2"
   inkscape:version="0.48.2 r9819"
   sodipodi:docname="MUTCD OM4-1.svg">
  <metadata
     id="metadata62">
    <rdf:RDF>
      <cc:Work
         rdf:about="">
        <dc:format>image/svg+xml</dc:format>
        <dc:type
           rdf:resource="http://purl.org/dc/dcmitype/StillImage" />
        <dc:title></dc:title>
      </cc:Work>
    </rdf:RDF>
  </metadata>
  <defs
     id="defs60" />
  <sodipodi:namedview
     pagecolor="#ffffff"
     bordercolor="#666666"
     borderopacity="1"
     objecttolerance="10"
     gridtolerance="10"
     guidetolerance="10"
     inkscape:pageopacity="0"
     inkscape:pageshadow="2"
     inkscape:window-width="1280"
     inkscape:window-height="1004"
     id="namedview58"
     showgrid="false"
     fit-margin-top="0"
     fit-margin-left="0"
     fit-margin-right="0"
     fit-margin-bottom="0"
     inkscape:zoom="2.9097223"
     inkscape:cx="-3.819566"
     inkscape:cy="17.336104"
     inkscape:window-x="-8"
     inkscape:window-y="-8"
     inkscape:window-maximized="1"
     inkscape:current-layer="svg2"
     showguides="true"
     inkscape:guide-bbox="true" />
  <!-- draw the bicycle -->
  <!-- RIGHT -->
  <!-- LANE -->
  <!-- ONLY -->
  <path
     inkscape:connector-curvature="0"
     d="M 4.91595,115.07792 115.07785,4.9159193 c 6.5546,-6.5546 17.2862,-6.5546 23.8408,0 L 249.08055,115.07792 c 6.5546,6.5546 6.5546,17.2861 0,23.8442 l -110.1619,110.1584 c -6.5546,6.5582 -17.2862,6.5582 -23.8408,0 L 4.91595,138.92212 c -6.5546,-6.5581 -6.5546,-17.2896 0,-23.8442"
     style="fill:#000000;fill-opacity:1;fill-rule:nonzero;stroke:none"
     id="path4247" />
  <path
     d="m 35.324888,115.90073 c 6.152446,-6.15597 16.185448,-6.15597 22.330838,0 6.152446,6.15244 6.152446,16.18192 0,22.33083 -6.14539,6.15245 -16.178392,6.15245 -22.330838,0 -6.152446,-6.14891 -6.152446,-16.17839 0,-22.33083"
     style="fill:#bf2519;fill-opacity:1;fill-rule:evenodd;stroke:none"
     id="path4097"
     inkscape:connector-curvature="0" />
  <path
     d="m 75.901044,75.28224 c 6.152446,-6.14539 16.185448,-6.14539 22.330838,0 6.152448,6.152446 6.152448,16.185448 0,22.337894 -6.14539,6.145386 -16.178392,6.145386 -22.330838,0 -6.152446,-6.152446 -6.152446,-16.185448 0,-22.337894"
     style="fill:#bf2519;fill-opacity:1;fill-rule:evenodd;stroke:none"
     id="path4101"
     inkscape:connector-curvature="0" />
  <path
     d="m 116.07891,35.139296 c 6.14539,-6.145391 16.17839,-6.145391 22.32378,0 6.15245,6.152446 6.15245,16.185448 0,22.337893 -6.14539,6.145391 -16.17839,6.145391 -22.32378,0 -6.15244,-6.152445 -6.15244,-16.185447 0,-22.337893"
     style="fill:#bf2519;fill-opacity:1;fill-rule:evenodd;stroke:none"
     id="path4105"
     inkscape:connector-curvature="0" />
  <path
     d="m 75.957488,156.76334 c 6.152446,-6.14539 16.185448,-6.14539 22.337894,0 6.145388,6.15597 6.145388,16.18544 0,22.34142 -6.152446,6.14539 -16.185448,6.14539 -22.337894,0 -6.155973,-6.15598 -6.155973,-16.18545 0,-22.34142"
     style="fill:#bf2519;fill-opacity:1;fill-rule:evenodd;stroke:none"
     id="path4109"
     inkscape:connector-curvature="0" />
  <path
     d="m 116.13183,115.91872 c 6.14892,-6.14539 16.18192,-6.14539 22.33436,0 6.15245,6.15597 6.15245,16.18544 0,22.33789 -6.15244,6.14892 -16.18544,6.14892 -22.33436,0 -6.15245,-6.15245 -6.15245,-16.18192 0,-22.33789"
     style="fill:#bf2519;fill-opacity:1;fill-rule:evenodd;stroke:none"
     id="path4113"
     inkscape:connector-curvature="0" />
  <path
     d="m 156.66953,75.927824 c 6.15244,-6.152446 16.18545,-6.152446 22.33789,0 6.14539,6.148918 6.14539,16.178392 0,22.334366 -6.15244,6.15244 -16.18545,6.15244 -22.33789,0 -6.15245,-6.155974 -6.15245,-16.185448 0,-22.334366"
     style="fill:#bf2519;fill-opacity:1;fill-rule:evenodd;stroke:none"
     id="path4117"
     inkscape:connector-curvature="0" />
  <path
     d="m 115.86372,196.44696 c 6.15244,-6.15597 16.17839,-6.15597 22.33436,0 6.15245,6.15245 6.15245,16.18192 0,22.33084 -6.15597,6.15245 -16.18192,6.15245 -22.33436,0 -6.15245,-6.14892 -6.15245,-16.17839 0,-22.33084"
     style="fill:#bf2519;fill-opacity:1;fill-rule:evenodd;stroke:none"
     id="path4121"
     inkscape:connector-curvature="0" />
  <path
     d="m 156.41553,155.82848 c 6.15244,-6.14539 16.18545,-6.14539 22.33084,0 6.15244,6.15244 6.15244,16.18544 0,22.33789 -6.14539,6.14539 -16.1784,6.14539 -22.33084,0 -6.15245,-6.15245 -6.15245,-16.18545 0,-22.33789"
     style="fill:#bf2519;fill-opacity:1;fill-rule:evenodd;stroke:none"
     id="path4125"
     inkscape:connector-curvature="0" />
  <path
     d="m 196.63926,115.83053 c 6.14539,-6.15245 16.17839,-6.15245 22.33084,0 6.15244,6.14539 6.15244,16.17838 0,22.33083 -6.15245,6.15245 -16.18545,6.15245 -22.33084,0 -6.15245,-6.15245 -6.15245,-16.18544 0,-22.33083"
     style="fill:#bf2519;fill-opacity:1;fill-rule:evenodd;stroke:none"
     id="path4129"
     inkscape:connector-curvature="0" />
</svg>
