<?xml version="1.0" encoding="UTF-8" standalone="no"?>
<svg
   xmlns:dc="http://purl.org/dc/elements/1.1/"
   xmlns:cc="http://creativecommons.org/ns#"
   xmlns:rdf="http://www.w3.org/1999/02/22-rdf-syntax-ns#"
   xmlns:svg="http://www.w3.org/2000/svg"
   xmlns="http://www.w3.org/2000/svg"
   xmlns:sodipodi="http://sodipodi.sourceforge.net/DTD/sodipodi-0.dtd"
   xmlns:inkscape="http://www.inkscape.org/namespaces/inkscape"
   width="90.597931"
   height="90.597931"
   viewBox="0 0 255.68748 255.68749"
   version="1.1"
   id="svg2"
   inkscape:version="0.48.2 r9819"
   sodipodi:docname="MUTCD RS-055.svg">
  <metadata
     id="metadata62">
    <rdf:RDF>
      <cc:Work
         rdf:about="">
        <dc:format>image/svg+xml</dc:format>
        <dc:type
           rdf:resource="http://purl.org/dc/dcmitype/StillImage" />
        <dc:title></dc:title>
      </cc:Work>
    </rdf:RDF>
  </metadata>
  <defs
     id="defs60">
    <clipPath
       clipPathUnits="userSpaceOnUse"
       id="clipPath3564">
      <path
         inkscape:connector-curvature="0"
         d="m 63,43 512.622,0 0,313.129 L 63,356.129 63,43 z"
         id="path3566" />
    </clipPath>
  </defs>
  <sodipodi:namedview
     pagecolor="#ffffff"
     bordercolor="#666666"
     borderopacity="1"
     objecttolerance="10"
     gridtolerance="10"
     guidetolerance="10"
     inkscape:pageopacity="0"
     inkscape:pageshadow="2"
     inkscape:window-width="1280"
     inkscape:window-height="1004"
     id="namedview58"
     showgrid="false"
     fit-margin-top="0"
     fit-margin-left="0"
     fit-margin-right="0"
     fit-margin-bottom="0"
     inkscape:zoom="4.8826954"
     inkscape:cx="83.159137"
     inkscape:cy="32.525196"
     inkscape:window-x="-8"
     inkscape:window-y="-8"
     inkscape:window-maximized="1"
     inkscape:current-layer="svg2"
     showguides="true"
     inkscape:guide-bbox="true" />
  <polygon
     points="315,545 235,375 315,205 395,375 "
     id="polygon10"
     style="fill:none;stroke:#ffffff;stroke-width:40"
     transform="translate(17744.427,14390.473)" />
  <!-- draw the bicycle -->
  <!-- RIGHT -->
  <!-- LANE -->
  <!-- ONLY -->
  <path
     inkscape:connector-curvature="0"
     d="m 22.004643,254.8459 211.663127,0 c 5.57392,0 11.02432,-2.2577 14.97189,-6.2088 3.94053,-3.937 6.1948,-9.3839 6.1948,-14.9578 l 0,-211.6632 c 0,-5.5738 -2.25426,-11.0207 -6.1948,-14.9718 -3.94757,-3.937 -9.39797,-6.1948 -14.97189,-6.1948 l -211.663127,0 c -5.57036,0 -11.02077,2.2578 -14.9577696,6.1948 -3.94759,3.9511 -6.20888999,9.398 -6.20888999,14.9718 l 0,211.6632 c 0,7.2566 3.85232999,14.1111 9.96243959,18.0058 3.48545,2.2154 7.16845,2.7375 11.20422,3.1608"
     style="fill:#ffffff;fill-opacity:1;fill-rule:nonzero;stroke:#000000;stroke-width:1.69333339;stroke-miterlimit:4;stroke-opacity:1;stroke-dasharray:none"
     id="path3026" />
  <path
     inkscape:connector-curvature="0"
     d="m 22.004643,249.5543 c -3.15383,0 -5.80672,-0.7091 -8.36083,-2.3284 -4.6249196,-2.9421 -7.5141696,-8.1385 -7.5141696,-13.5466 l 0,-211.6632 c 0,-4.1733 1.69334,-8.2691 4.6566696,-11.2324 2.94217,-2.9422 7.0485,-4.6426 11.21833,-4.6426 l 211.663127,0 c 4.18397,0 8.29028,1.6898 11.23245,4.6426 2.95277,2.9422 4.64255,7.0485 4.64255,11.2324 l 0,211.6632 c 0,4.1698 -1.70035,8.2761 -4.64255,11.2183 -2.96333,2.9633 -7.05555,4.6567 -11.23245,4.6567 l -211.663127,0 z"
     style="fill:#713907;fill-opacity:1;fill-rule:evenodd;stroke:none"
     id="path3050" />
  <path
     d="m 227.12537,227.35838 c -4.318,0 -8.45961,-0.97014 -12.14614,-2.63173 -3.78883,-1.75683 -8.06097,-2.79047 -12.51303,-2.79047 -4.45558,0 -8.72067,1.03364 -12.51303,2.79047 -3.69358,1.66159 -7.83166,2.63173 -12.15319,2.63173 -4.30036,0 -8.44197,-0.97014 -12.13203,-2.63173 -3.79941,-1.75683 -8.05744,-2.79047 -12.51303,-2.79047 -4.45205,0 -8.72419,1.03364 -12.50597,2.79047 -3.70769,1.66159 -7.8493,2.63173 -12.16378,2.63173 -4.30389,0 -8.4455,-0.97014 -12.13908,-2.63173 -3.78883,-1.75683 -8.05392,-2.79047 -12.50597,-2.79047 -4.459113,0 -8.720668,1.03364 -12.513029,2.79047 -3.700639,1.66159 -7.831667,2.63173 -12.146139,2.63173 -4.321528,0 -8.463139,-0.97014 -12.153194,-2.63173 -3.785306,-1.75683 -8.057444,-2.79047 -12.513028,-2.79047 -4.452055,0 -8.710083,1.03364 -12.505972,2.79047 -3.693583,1.66159 -7.835194,2.63173 -12.153194,2.63173 l 0,-18.21039 c 4.318,0 8.459611,-0.96661 12.153194,-2.62467 3.795889,-1.76389 8.053917,-2.79047 12.505972,-2.79047 4.455584,0 8.727722,1.02658 12.513028,2.79047 3.690055,1.65806 7.831666,2.62467 12.153194,2.62467 4.314472,0 8.4455,-0.96661 12.146139,-2.62467 3.792361,-1.76389 8.053916,-2.79047 12.513029,-2.79047 4.45205,0 8.71714,1.02658 12.50597,2.79047 3.69358,1.65806 7.83519,2.62467 12.13908,2.62467 4.31448,0 8.45609,-0.96661 12.16378,-2.62467 3.78178,-1.76389 8.05392,-2.79047 12.50597,-2.79047 4.45559,0 8.71362,1.02658 12.51303,2.79047 3.69006,1.65806 7.83167,2.62467 12.13203,2.62467 4.32153,0 8.45961,-0.96661 12.15319,-2.62467 3.79236,-1.76389 8.05745,-2.79047 12.51303,-2.79047 4.45206,0 8.7242,1.02658 12.51303,2.79047 3.68653,1.65806 7.82814,2.62467 12.14614,2.62467 l 0,18.21039 z"
     style="fill:#ffffff;fill-opacity:1;fill-rule:nonzero;stroke:none"
     id="path11588"
     inkscape:connector-curvature="0" />
  <path
     d="m 141.79901,23.594641 0,138.465279 -95.712141,0 95.712141,-138.465279 z"
     style="fill:#ffffff;fill-opacity:1;fill-rule:nonzero;stroke:none"
     id="path11592"
     inkscape:connector-curvature="0" />
  <path
     d="m 227.12537,202.07832 c -4.318,0 -8.45961,-0.96308 -12.14614,-2.62467 -3.78883,-1.75683 -8.06097,-2.79752 -12.51303,-2.79752 -4.45558,0 -8.72067,1.04069 -12.51303,2.79752 -3.69358,1.66159 -7.83166,2.62467 -12.15319,2.62467 -4.30036,0 -8.44197,-0.96308 -12.13203,-2.62467 -3.79941,-1.75683 -8.05744,-2.79752 -12.51303,-2.79752 -4.45205,0 -8.72419,1.04069 -12.50597,2.79752 -3.70769,1.66159 -7.8493,2.62467 -12.16378,2.62467 -4.30389,0 -8.4455,-0.96308 -12.13908,-2.62467 -3.78883,-1.75683 -8.05392,-2.79752 -12.50597,-2.79752 -4.459113,0 -8.720668,1.04069 -12.513029,2.79752 -3.700639,1.66159 -7.831667,2.62467 -12.146139,2.62467 -4.321528,0 -8.463139,-0.96308 -12.153194,-2.62467 -3.785306,-1.75683 -8.057444,-2.79752 -12.513028,-2.79752 -4.452055,0 -8.710083,1.04069 -12.505972,2.79752 -3.693583,1.66159 -7.835194,2.62467 -12.153194,2.62467 l 0,-18.19628 c 4.318,0 8.459611,-0.98777 12.153194,-2.63172 3.795889,-1.75683 8.053917,-2.79753 12.505972,-2.79753 4.455584,0 8.727722,1.0407 12.513028,2.79753 3.690055,1.64395 7.831666,2.63172 12.153194,2.63172 4.314472,0 8.4455,-0.98777 12.146139,-2.63172 3.792361,-1.75683 8.053916,-2.79753 12.513029,-2.79753 4.45205,0 8.71714,1.0407 12.50597,2.79753 3.69358,1.64395 7.83519,2.63172 12.13908,2.63172 4.31448,0 8.45609,-0.98777 12.16378,-2.63172 3.78178,-1.75683 8.05392,-2.79753 12.50597,-2.79753 4.45559,0 8.71362,1.0407 12.51303,2.79753 3.69006,1.64395 7.83167,2.63172 12.13203,2.63172 4.32153,0 8.45961,-0.98777 12.15319,-2.63172 3.79236,-1.75683 8.05745,-2.79753 12.51303,-2.79753 4.45206,0 8.7242,1.0407 12.51303,2.79753 3.68653,1.64395 7.82814,2.63172 12.14614,2.63172 l 0,18.19628 z"
     style="fill:#ffffff;fill-opacity:1;fill-rule:nonzero;stroke:none"
     id="path11596"
     inkscape:connector-curvature="0" />
  <path
     d="m 148.75931,55.482577 c 33.3622,15.592777 62.90734,56.941863 57.73914,106.584743 l -57.73208,-0.007 -0.007,-106.577693 z"
     style="fill:#ffffff;fill-opacity:1;fill-rule:nonzero;stroke:none"
     id="path11600"
     inkscape:connector-curvature="0" />
</svg>
