<?xml version="1.0" encoding="UTF-8" standalone="no"?>
<svg
   xmlns:dc="http://purl.org/dc/elements/1.1/"
   xmlns:cc="http://creativecommons.org/ns#"
   xmlns:rdf="http://www.w3.org/1999/02/22-rdf-syntax-ns#"
   xmlns:svg="http://www.w3.org/2000/svg"
   xmlns="http://www.w3.org/2000/svg"
   xmlns:sodipodi="http://sodipodi.sourceforge.net/DTD/sodipodi-0.dtd"
   xmlns:inkscape="http://www.inkscape.org/namespaces/inkscape"
   width="90.597931"
   height="90.597931"
   viewBox="0 0 255.68748 255.68749"
   version="1.1"
   id="svg2"
   inkscape:version="0.48.2 r9819"
   sodipodi:docname="MUTCD RS-061.svg">
  <metadata
     id="metadata62">
    <rdf:RDF>
      <cc:Work
         rdf:about="">
        <dc:format>image/svg+xml</dc:format>
        <dc:type
           rdf:resource="http://purl.org/dc/dcmitype/StillImage" />
        <dc:title></dc:title>
      </cc:Work>
    </rdf:RDF>
  </metadata>
  <defs
     id="defs60">
    <clipPath
       clipPathUnits="userSpaceOnUse"
       id="clipPath3564">
      <path
         inkscape:connector-curvature="0"
         d="m 63,43 512.622,0 0,313.129 L 63,356.129 63,43 z"
         id="path3566" />
    </clipPath>
  </defs>
  <sodipodi:namedview
     pagecolor="#ffffff"
     bordercolor="#666666"
     borderopacity="1"
     objecttolerance="10"
     gridtolerance="10"
     guidetolerance="10"
     inkscape:pageopacity="0"
     inkscape:pageshadow="2"
     inkscape:window-width="1280"
     inkscape:window-height="1004"
     id="namedview58"
     showgrid="false"
     fit-margin-top="0"
     fit-margin-left="0"
     fit-margin-right="0"
     fit-margin-bottom="0"
     inkscape:zoom="4.8826954"
     inkscape:cx="83.159137"
     inkscape:cy="32.525196"
     inkscape:window-x="-8"
     inkscape:window-y="-8"
     inkscape:window-maximized="1"
     inkscape:current-layer="svg2"
     showguides="true"
     inkscape:guide-bbox="true" />
  <polygon
     points="315,545 235,375 315,205 395,375 "
     id="polygon10"
     style="fill:none;stroke:#ffffff;stroke-width:40"
     transform="translate(17744.427,14390.473)" />
  <!-- draw the bicycle -->
  <!-- RIGHT -->
  <!-- LANE -->
  <!-- ONLY -->
  <path
     inkscape:connector-curvature="0"
     d="m 22.004643,254.8459 211.663127,0 c 5.57392,0 11.02432,-2.2577 14.97189,-6.2088 3.94053,-3.937 6.1948,-9.3839 6.1948,-14.9578 l 0,-211.6632 c 0,-5.5738 -2.25426,-11.0207 -6.1948,-14.9718 -3.94757,-3.937 -9.39797,-6.1948 -14.97189,-6.1948 l -211.663127,0 c -5.57036,0 -11.02077,2.2578 -14.9577696,6.1948 -3.94759,3.9511 -6.20888999,9.398 -6.20888999,14.9718 l 0,211.6632 c 0,7.2566 3.85232999,14.1111 9.96243959,18.0058 3.48545,2.2154 7.16845,2.7375 11.20422,3.1608"
     style="fill:#ffffff;fill-opacity:1;fill-rule:nonzero;stroke:#000000;stroke-width:1.69333339;stroke-miterlimit:4;stroke-opacity:1;stroke-dasharray:none"
     id="path3026" />
  <path
     inkscape:connector-curvature="0"
     d="m 22.004643,249.5543 c -3.15383,0 -5.80672,-0.7091 -8.36083,-2.3284 -4.6249196,-2.9421 -7.5141696,-8.1385 -7.5141696,-13.5466 l 0,-211.6632 c 0,-4.1733 1.69334,-8.2691 4.6566696,-11.2324 2.94217,-2.9422 7.0485,-4.6426 11.21833,-4.6426 l 211.663127,0 c 4.18397,0 8.29028,1.6898 11.23245,4.6426 2.95277,2.9422 4.64255,7.0485 4.64255,11.2324 l 0,211.6632 c 0,4.1698 -1.70035,8.2761 -4.64255,11.2183 -2.96333,2.9633 -7.05555,4.6567 -11.23245,4.6567 l -211.663127,0 z"
     style="fill:#713907;fill-opacity:1;fill-rule:evenodd;stroke:none"
     id="path3050" />
  <path
     d="m 227.12183,227.35591 c -4.318,0 -8.45961,-0.97367 -12.15319,-2.63173 -3.78178,-1.75683 -8.05392,-2.79047 -12.50597,-2.79047 -4.45206,0 -8.71361,1.03364 -12.51303,2.79047 -3.69358,1.65806 -7.82461,2.63173 -12.14614,2.63173 -4.31447,0 -8.44903,-0.97367 -12.13908,-2.63173 -3.79942,-1.75683 -8.0645,-2.79047 -12.52008,-2.79047 -4.445,0 -8.71714,1.03364 -12.50598,2.79047 -3.70064,1.65806 -7.82108,2.63173 -12.1426,2.63173 -4.318,0 -8.45961,-0.97367 -12.1532,-2.63173 -3.79589,-1.75683 -8.05391,-2.79047 -12.50597,-2.79047 -4.452055,0 -8.720666,1.03364 -12.513027,2.79047 -3.693584,1.65806 -7.824611,2.63173 -12.146139,2.63173 -4.314472,0 -8.449028,-0.97367 -12.153194,-2.63173 -3.785306,-1.75683 -8.057445,-2.79047 -12.498917,-2.79047 -4.459111,0 -8.724194,1.03364 -12.520083,2.79047 -3.693583,1.65806 -7.835194,2.63173 -12.142611,2.63173 l 0,-18.21039 c 4.307417,0 8.449028,-0.96661 12.142611,-2.6282 3.795889,-1.76388 8.060972,-2.79047 12.520083,-2.79047 4.441472,0 8.713611,1.02659 12.498917,2.79047 3.704166,1.66159 7.838722,2.6282 12.153194,2.6282 4.321528,0 8.452555,-0.96661 12.146139,-2.6282 3.792361,-1.76388 8.060972,-2.79047 12.513027,-2.79047 4.45206,0 8.71008,1.02659 12.50597,2.79047 3.69359,1.66159 7.8352,2.6282 12.1532,2.6282 4.32152,0 8.44196,-0.96661 12.1426,-2.6282 3.78884,-1.76388 8.06098,-2.79047 12.50598,-2.79047 4.45558,0 8.72066,1.02659 12.52008,2.79047 3.69005,1.66159 7.82461,2.6282 12.13908,2.6282 4.32153,0 8.45256,-0.96661 12.14614,-2.6282 3.79942,-1.76388 8.06097,-2.79047 12.51303,-2.79047 4.45205,0 8.72419,1.02659 12.50597,2.79047 3.69358,1.66159 7.83519,2.6282 12.15319,2.6282 l 0,18.21039 z"
     style="fill:#ffffff;fill-opacity:1;fill-rule:nonzero;stroke:none"
     id="path11734"
     inkscape:connector-curvature="0" />
  <path
     d="m 85.682646,140.55141 c 9.17575,0 16.626414,-7.44714 16.626414,-16.63347 0,-9.18281 -7.450664,-16.637 -16.626414,-16.637 -9.186333,0 -16.640528,7.45419 -16.640528,16.637 0,9.18633 7.454195,16.63347 16.640528,16.63347"
     style="fill:#ffffff;fill-opacity:1;fill-rule:nonzero;stroke:none"
     id="path11738"
     inkscape:connector-curvature="0" />
  <path
     d="m 88.032146,198.1071 c -2.617611,4.4697 -8.364361,5.96547 -12.830528,3.34786 -4.473222,-2.61761 -5.965472,-8.3573 -3.354916,-12.82347 L 110.43001,122.1611 c 1.42169,-2.46591 3.47486,-4.52614 5.94783,-5.93725 l 49.5688,-30.028441 33.73261,-57.389888 c 3.18911,-5.580944 10.30817,-7.496528 15.88911,-4.289778 5.56684,3.210278 7.48947,10.31875 4.2792,15.896167 l -40.35073,68.71405 c -1.41111,2.47298 -3.46427,4.52614 -5.93724,5.94078 l -58.53994,36.37139 -26.987504,46.66897 z"
     style="fill:#ffffff;fill-opacity:1;fill-rule:nonzero;stroke:none"
     id="path11742"
     inkscape:connector-curvature="0" />
</svg>
