<?xml version="1.0" encoding="UTF-8" standalone="no"?>
<svg
   xmlns:dc="http://purl.org/dc/elements/1.1/"
   xmlns:cc="http://creativecommons.org/ns#"
   xmlns:rdf="http://www.w3.org/1999/02/22-rdf-syntax-ns#"
   xmlns:svg="http://www.w3.org/2000/svg"
   xmlns="http://www.w3.org/2000/svg"
   xmlns:sodipodi="http://sodipodi.sourceforge.net/DTD/sodipodi-0.dtd"
   xmlns:inkscape="http://www.inkscape.org/namespaces/inkscape"
   width="90.597931"
   height="90.597931"
   viewBox="0 0 255.68748 255.68749"
   version="1.1"
   id="svg2"
   inkscape:version="0.48.2 r9819"
   sodipodi:docname="MUTCD RS-068.svg">
  <metadata
     id="metadata62">
    <rdf:RDF>
      <cc:Work
         rdf:about="">
        <dc:format>image/svg+xml</dc:format>
        <dc:type
           rdf:resource="http://purl.org/dc/dcmitype/StillImage" />
        <dc:title></dc:title>
      </cc:Work>
    </rdf:RDF>
  </metadata>
  <defs
     id="defs60">
    <clipPath
       clipPathUnits="userSpaceOnUse"
       id="clipPath3564">
      <path
         inkscape:connector-curvature="0"
         d="m 63,43 512.622,0 0,313.129 L 63,356.129 63,43 z"
         id="path3566" />
    </clipPath>
  </defs>
  <sodipodi:namedview
     pagecolor="#ffffff"
     bordercolor="#666666"
     borderopacity="1"
     objecttolerance="10"
     gridtolerance="10"
     guidetolerance="10"
     inkscape:pageopacity="0"
     inkscape:pageshadow="2"
     inkscape:window-width="1280"
     inkscape:window-height="1004"
     id="namedview58"
     showgrid="false"
     fit-margin-top="0"
     fit-margin-left="0"
     fit-margin-right="0"
     fit-margin-bottom="0"
     inkscape:zoom="4.8826954"
     inkscape:cx="83.159137"
     inkscape:cy="32.525196"
     inkscape:window-x="-8"
     inkscape:window-y="-8"
     inkscape:window-maximized="1"
     inkscape:current-layer="svg2"
     showguides="true"
     inkscape:guide-bbox="true" />
  <polygon
     points="315,545 235,375 315,205 395,375 "
     id="polygon10"
     style="fill:none;stroke:#ffffff;stroke-width:40"
     transform="translate(17744.427,14390.473)" />
  <!-- draw the bicycle -->
  <!-- RIGHT -->
  <!-- LANE -->
  <!-- ONLY -->
  <path
     inkscape:connector-curvature="0"
     d="m 22.004643,254.8459 211.663127,0 c 5.57392,0 11.02432,-2.2577 14.97189,-6.2088 3.94053,-3.937 6.1948,-9.3839 6.1948,-14.9578 l 0,-211.6632 c 0,-5.5738 -2.25426,-11.0207 -6.1948,-14.9718 -3.94757,-3.937 -9.39797,-6.1948 -14.97189,-6.1948 l -211.663127,0 c -5.57036,0 -11.02077,2.2578 -14.9577696,6.1948 -3.94759,3.9511 -6.20888999,9.398 -6.20888999,14.9718 l 0,211.6632 c 0,7.2566 3.85232999,14.1111 9.96243959,18.0058 3.48545,2.2154 7.16845,2.7375 11.20422,3.1608"
     style="fill:#ffffff;fill-opacity:1;fill-rule:nonzero;stroke:#000000;stroke-width:1.69333339;stroke-miterlimit:4;stroke-opacity:1;stroke-dasharray:none"
     id="path3026" />
  <path
     inkscape:connector-curvature="0"
     d="m 22.004643,249.5543 c -3.15383,0 -5.80672,-0.7091 -8.36083,-2.3284 -4.6249196,-2.9421 -7.5141696,-8.1385 -7.5141696,-13.5466 l 0,-211.6632 c 0,-4.1733 1.69334,-8.2691 4.6566696,-11.2324 2.94217,-2.9422 7.0485,-4.6426 11.21833,-4.6426 l 211.663127,0 c 4.18397,0 8.29028,1.6898 11.23245,4.6426 2.95277,2.9422 4.64255,7.0485 4.64255,11.2324 l 0,211.6632 c 0,4.1698 -1.70035,8.2761 -4.64255,11.2183 -2.96333,2.9633 -7.05555,4.6567 -11.23245,4.6567 l -211.663127,0 z"
     style="fill:#713907;fill-opacity:1;fill-rule:evenodd;stroke:none"
     id="path3050" />
  <path
     d="m 127.76235,54.414718 c 6.5405,0 11.86039,-5.298723 11.86039,-11.84275 0,-6.582833 -5.31989,-11.90625 -11.86039,-11.90625 -6.56519,0 -11.88509,5.323417 -11.88509,11.90625 0,6.544027 5.3199,11.84275 11.88509,11.84275"
     style="fill:#ffffff;fill-opacity:1;fill-rule:nonzero;stroke:none"
     id="path7878"
     inkscape:connector-curvature="0" />
  <path
     d="m 144.47343,58.280104 -33.60561,0 c -8.39611,0 -15.169446,6.854472 -15.169446,15.391694 l 0,28.451532 c 0,7.06261 9.369776,7.06261 9.369776,0 l 0,-27.47081 7.42597,0 0,34.64278 c 4.96359,1.15005 10.04006,2.03905 15.39523,2.03905 5.29872,0 10.32581,-0.85372 15.26822,-2.01789 l 0,-34.66394 7.38011,0 0,27.47081 c 0,7.10847 9.29923,7.10847 9.29923,0 l 0,-28.26456 c 0,-7.828139 -6.12423,-15.578666 -15.36348,-15.578666"
     style="fill:#ffffff;fill-opacity:1;fill-rule:nonzero;stroke:none"
     id="path7882"
     inkscape:connector-curvature="0" />
  <path
     d="m 179.97664,106.75248 c -14.88017,10.16352 -32.90711,16.129 -52.30989,16.129 -19.22992,0 -37.108701,-5.87023 -51.964173,-15.88912 l -11.701639,17.39195 c 18.178639,12.29078 40.096722,19.45217 63.665812,19.45217 23.74547,0 45.77997,-7.25664 64.02564,-19.66384 l -11.71575,-17.42016 z"
     style="fill:#ffffff;fill-opacity:1;fill-rule:nonzero;stroke:none"
     id="path7886"
     inkscape:connector-curvature="0" />
  <path
     d="m 202.26902,139.7566 c -21.23723,14.44272 -46.87006,22.84236 -74.4855,22.84236 -27.46376,0 -52.997813,-8.33261 -74.17859,-22.62716 l -11.832166,16.98977 c 24.539221,16.65464 54.151388,26.39484 86.010756,26.39484 31.93697,0 61.5703,-9.78253 86.13422,-26.43717 L 202.26902,139.7566 z"
     style="fill:#ffffff;fill-opacity:1;fill-rule:nonzero;stroke:none"
     id="path7890"
     inkscape:connector-curvature="0" />
  <path
     d="m 224.41958,172.45028 c -27.58017,18.73603 -60.85417,29.66861 -96.69639,29.66861 -35.789308,0 -69.006863,-10.90789 -96.544696,-29.59805 L 19.62855,189.7505 c 30.832777,20.90561 68.040249,33.1082 108.09464,33.1082 40.14964,0 77.48058,-12.29784 108.38745,-33.2987 l -11.69106,-17.10972 z"
     style="fill:#ffffff;fill-opacity:1;fill-rule:nonzero;stroke:none"
     id="path7894"
     inkscape:connector-curvature="0" />
</svg>
