<?xml version="1.0" encoding="UTF-8" standalone="no"?>
<svg
   xmlns:dc="http://purl.org/dc/elements/1.1/"
   xmlns:cc="http://creativecommons.org/ns#"
   xmlns:rdf="http://www.w3.org/1999/02/22-rdf-syntax-ns#"
   xmlns:svg="http://www.w3.org/2000/svg"
   xmlns="http://www.w3.org/2000/svg"
   xmlns:sodipodi="http://sodipodi.sourceforge.net/DTD/sodipodi-0.dtd"
   xmlns:inkscape="http://www.inkscape.org/namespaces/inkscape"
   width="90.597931"
   height="90.597931"
   viewBox="0 0 255.68748 255.68749"
   version="1.1"
   id="svg2"
   inkscape:version="0.48.2 r9819"
   sodipodi:docname="MUTCD RS-058.svg">
  <metadata
     id="metadata62">
    <rdf:RDF>
      <cc:Work
         rdf:about="">
        <dc:format>image/svg+xml</dc:format>
        <dc:type
           rdf:resource="http://purl.org/dc/dcmitype/StillImage" />
        <dc:title></dc:title>
      </cc:Work>
    </rdf:RDF>
  </metadata>
  <defs
     id="defs60">
    <clipPath
       clipPathUnits="userSpaceOnUse"
       id="clipPath3564">
      <path
         inkscape:connector-curvature="0"
         d="m 63,43 512.622,0 0,313.129 L 63,356.129 63,43 z"
         id="path3566" />
    </clipPath>
  </defs>
  <sodipodi:namedview
     pagecolor="#ffffff"
     bordercolor="#666666"
     borderopacity="1"
     objecttolerance="10"
     gridtolerance="10"
     guidetolerance="10"
     inkscape:pageopacity="0"
     inkscape:pageshadow="2"
     inkscape:window-width="1280"
     inkscape:window-height="1004"
     id="namedview58"
     showgrid="false"
     fit-margin-top="0"
     fit-margin-left="0"
     fit-margin-right="0"
     fit-margin-bottom="0"
     inkscape:zoom="4.8826954"
     inkscape:cx="83.159137"
     inkscape:cy="32.525196"
     inkscape:window-x="-8"
     inkscape:window-y="-8"
     inkscape:window-maximized="1"
     inkscape:current-layer="svg2"
     showguides="true"
     inkscape:guide-bbox="true" />
  <polygon
     points="315,545 235,375 315,205 395,375 "
     id="polygon10"
     style="fill:none;stroke:#ffffff;stroke-width:40"
     transform="translate(17744.427,14390.473)" />
  <!-- draw the bicycle -->
  <!-- RIGHT -->
  <!-- LANE -->
  <!-- ONLY -->
  <path
     inkscape:connector-curvature="0"
     d="m 22.004643,254.8459 211.663127,0 c 5.57392,0 11.02432,-2.2577 14.97189,-6.2088 3.94053,-3.937 6.1948,-9.3839 6.1948,-14.9578 l 0,-211.6632 c 0,-5.5738 -2.25426,-11.0207 -6.1948,-14.9718 -3.94757,-3.937 -9.39797,-6.1948 -14.97189,-6.1948 l -211.663127,0 c -5.57036,0 -11.02077,2.2578 -14.9577696,6.1948 -3.94759,3.9511 -6.20888999,9.398 -6.20888999,14.9718 l 0,211.6632 c 0,7.2566 3.85232999,14.1111 9.96243959,18.0058 3.48545,2.2154 7.16845,2.7375 11.20422,3.1608"
     style="fill:#ffffff;fill-opacity:1;fill-rule:nonzero;stroke:#000000;stroke-width:1.69333339;stroke-miterlimit:4;stroke-opacity:1;stroke-dasharray:none"
     id="path3026" />
  <path
     inkscape:connector-curvature="0"
     d="m 22.004643,249.5543 c -3.15383,0 -5.80672,-0.7091 -8.36083,-2.3284 -4.6249196,-2.9421 -7.5141696,-8.1385 -7.5141696,-13.5466 l 0,-211.6632 c 0,-4.1733 1.69334,-8.2691 4.6566696,-11.2324 2.94217,-2.9422 7.0485,-4.6426 11.21833,-4.6426 l 211.663127,0 c 4.18397,0 8.29028,1.6898 11.23245,4.6426 2.95277,2.9422 4.64255,7.0485 4.64255,11.2324 l 0,211.6632 c 0,4.1698 -1.70035,8.2761 -4.64255,11.2183 -2.96333,2.9633 -7.05555,4.6567 -11.23245,4.6567 l -211.663127,0 z"
     style="fill:#713907;fill-opacity:1;fill-rule:evenodd;stroke:none"
     id="path3050" />
  <path
     d="m 58.737847,169.94838 c 58.285943,24.49689 102.541923,38.79144 164.856583,58.43058 1.28764,0.20461 2.47297,-0.67028 2.68464,-1.97203 0.20108,-1.30175 -0.69497,-2.54353 -2.00378,-2.74814 C 126.15368,192.74135 49.022347,158.5466 31.425792,150.55971 c -1.778,-0.72319 -3.898195,0.10231 -4.614334,1.88736 -0.719666,1.778 0.05997,3.75708 1.845028,4.48028 4.3815,1.9438 8.674806,3.86644 12.883445,5.6903 l -13.888862,10.55512 c -1.545166,2.31775 -0.867833,5.23875 1.432278,6.78744 1.749778,1.17828 4.201584,1.06892 5.849056,-0.0353 l 23.805444,-9.97655 z"
     style="fill:#ffffff;fill-opacity:1;fill-rule:nonzero;stroke:none"
     id="path11634"
     inkscape:connector-curvature="0" />
  <path
     d="m 175.21802,70.302771 c 9.18986,0 16.62641,-7.440083 16.62641,-16.626416 0,-9.182805 -7.43655,-16.633471 -16.62641,-16.633471 -9.19339,0 -16.63348,7.450666 -16.63348,16.633471 0,9.186333 7.44009,16.626416 16.63348,16.626416"
     style="fill:#ffffff;fill-opacity:1;fill-rule:nonzero;stroke:none"
     id="path11638"
     inkscape:connector-curvature="0" />
  <path
     d="m 140.56113,110.70641 35.35186,-17.423695 32.83303,30.240115 c 1.46049,1.42521 3.45722,2.3001 5.64797,2.28952 4.39561,-0.0353 7.92339,-3.62655 7.89869,-8.02216 -0.0212,-2.35656 -1.07597,-4.4697 -2.70933,-5.91961 L 172.6886,68.799938 c -1.5487,-1.520472 -3.37608,-2.748139 -5.39397,-3.608917 L 130.80329,52.173523 114.19098,28.135245 c -1.25236,-1.742723 -3.22438,-2.963334 -5.51744,-3.231445 -4.37092,-0.497416 -8.31144,2.631722 -8.819444,6.999111 -0.208139,1.848556 0.239884,3.619501 1.150054,5.087056 l 16.92981,24.528638 c 0.76905,0.998361 1.78152,1.820333 2.9598,2.356555 l 19.6462,7.743472 -32.30034,16.481778 c -4.48733,2.57175 -7.71877,7.0485 -8.593663,12.32605 l 0.186972,29.50986 -29.869694,13.47964 c -3.354916,1.58397 -5.74675,4.93183 -5.912555,8.90058 -0.232833,5.69031 4.183944,10.5022 9.87425,10.73503 1.778,0.0847 3.471333,-0.29633 4.953,-1.02658 l 36.53367,-16.50295 c 2.63172,-1.40405 4.58258,-3.9123 5.22816,-6.9215 l -0.0811,-18.37619 25.3753,22.66597 -4.66372,38.67503 c -0.0353,0.24342 -0.0564,0.47625 -0.0635,0.71614 -0.23989,5.69383 4.17689,10.50219 9.86719,10.74208 5.36223,0.22931 9.94128,-3.67947 10.65389,-8.89353 l 5.45748,-44.10427 c 0.0104,-0.19403 0.0317,-0.39159 0.0459,-0.58562 0.12347,-3.09386 -1.11478,-5.92666 -3.18911,-7.90222 l -23.48092,-20.83152 z"
     style="fill:#ffffff;fill-opacity:1;fill-rule:nonzero;stroke:none"
     id="path11642"
     inkscape:connector-curvature="0" />
</svg>
