<?xml version="1.0" encoding="UTF-8" standalone="no"?>
<svg
   xmlns:dc="http://purl.org/dc/elements/1.1/"
   xmlns:cc="http://creativecommons.org/ns#"
   xmlns:rdf="http://www.w3.org/1999/02/22-rdf-syntax-ns#"
   xmlns:svg="http://www.w3.org/2000/svg"
   xmlns="http://www.w3.org/2000/svg"
   xmlns:sodipodi="http://sodipodi.sourceforge.net/DTD/sodipodi-0.dtd"
   xmlns:inkscape="http://www.inkscape.org/namespaces/inkscape"
   width="90.597931"
   height="90.597931"
   viewBox="0 0 255.68748 255.68749"
   version="1.1"
   id="svg2"
   inkscape:version="0.48.2 r9819"
   sodipodi:docname="MUTCD RS-057.svg">
  <metadata
     id="metadata62">
    <rdf:RDF>
      <cc:Work
         rdf:about="">
        <dc:format>image/svg+xml</dc:format>
        <dc:type
           rdf:resource="http://purl.org/dc/dcmitype/StillImage" />
        <dc:title></dc:title>
      </cc:Work>
    </rdf:RDF>
  </metadata>
  <defs
     id="defs60">
    <clipPath
       clipPathUnits="userSpaceOnUse"
       id="clipPath3564">
      <path
         inkscape:connector-curvature="0"
         d="m 63,43 512.622,0 0,313.129 L 63,356.129 63,43 z"
         id="path3566" />
    </clipPath>
  </defs>
  <sodipodi:namedview
     pagecolor="#ffffff"
     bordercolor="#666666"
     borderopacity="1"
     objecttolerance="10"
     gridtolerance="10"
     guidetolerance="10"
     inkscape:pageopacity="0"
     inkscape:pageshadow="2"
     inkscape:window-width="1280"
     inkscape:window-height="1004"
     id="namedview58"
     showgrid="false"
     fit-margin-top="0"
     fit-margin-left="0"
     fit-margin-right="0"
     fit-margin-bottom="0"
     inkscape:zoom="4.8826954"
     inkscape:cx="83.159137"
     inkscape:cy="32.525196"
     inkscape:window-x="-8"
     inkscape:window-y="-8"
     inkscape:window-maximized="1"
     inkscape:current-layer="svg2"
     showguides="true"
     inkscape:guide-bbox="true" />
  <polygon
     points="315,545 235,375 315,205 395,375 "
     id="polygon10"
     style="fill:none;stroke:#ffffff;stroke-width:40"
     transform="translate(17744.427,14390.473)" />
  <!-- draw the bicycle -->
  <!-- RIGHT -->
  <!-- LANE -->
  <!-- ONLY -->
  <path
     inkscape:connector-curvature="0"
     d="m 22.004643,254.8459 211.663127,0 c 5.57392,0 11.02432,-2.2577 14.97189,-6.2088 3.94053,-3.937 6.1948,-9.3839 6.1948,-14.9578 l 0,-211.6632 c 0,-5.5738 -2.25426,-11.0207 -6.1948,-14.9718 -3.94757,-3.937 -9.39797,-6.1948 -14.97189,-6.1948 l -211.663127,0 c -5.57036,0 -11.02077,2.2578 -14.9577696,6.1948 -3.94759,3.9511 -6.20888999,9.398 -6.20888999,14.9718 l 0,211.6632 c 0,7.2566 3.85232999,14.1111 9.96243959,18.0058 3.48545,2.2154 7.16845,2.7375 11.20422,3.1608"
     style="fill:#ffffff;fill-opacity:1;fill-rule:nonzero;stroke:#000000;stroke-width:1.69333339;stroke-miterlimit:4;stroke-opacity:1;stroke-dasharray:none"
     id="path3026" />
  <path
     inkscape:connector-curvature="0"
     d="m 22.004643,249.5543 c -3.15383,0 -5.80672,-0.7091 -8.36083,-2.3284 -4.6249196,-2.9421 -7.5141696,-8.1385 -7.5141696,-13.5466 l 0,-211.6632 c 0,-4.1733 1.69334,-8.2691 4.6566696,-11.2324 2.94217,-2.9422 7.0485,-4.6426 11.21833,-4.6426 l 211.663127,0 c 4.18397,0 8.29028,1.6898 11.23245,4.6426 2.95277,2.9422 4.64255,7.0485 4.64255,11.2324 l 0,211.6632 c 0,4.1698 -1.70035,8.2761 -4.64255,11.2183 -2.96333,2.9633 -7.05555,4.6567 -11.23245,4.6567 l -211.663127,0 z"
     style="fill:#713907;fill-opacity:1;fill-rule:evenodd;stroke:none"
     id="path3050" />
  <path
     d="m 148.81436,204.04788 c 1.41817,-0.21166 2.87161,-0.32455 4.34622,-0.32455 4.45206,0 8.71714,1.02658 12.50598,2.79047 3.70063,1.65453 7.83519,2.62819 12.14966,2.62819 4.31095,0 8.45961,-0.97366 12.1532,-2.62819 3.78883,-1.76389 8.05391,-2.79047 12.50597,-2.79047 4.45911,0 8.72419,1.02658 12.51303,2.79047 3.69358,1.65453 7.82813,2.62819 12.14613,2.62819 l 0,18.20334 c -4.318,0 -8.45255,-0.96661 -12.14613,-2.61761 -3.78884,-1.76389 -8.05392,-2.79753 -12.51303,-2.79753 -4.45206,0 -8.71714,1.03364 -12.50597,2.79753 -3.69359,1.651 -7.84225,2.61761 -12.1532,2.61761 -4.31447,0 -8.44903,-0.96661 -12.14966,-2.61761 -3.78884,-1.76389 -8.05392,-2.79753 -12.50598,-2.79753 -4.45558,0 -8.72066,1.03364 -12.51302,2.79753 -3.69006,1.651 -7.83167,2.61761 -12.14614,2.61761 -4.30742,0 -8.4455,-0.96661 -12.14614,-2.61761 -3.78884,-1.76389 -8.05392,-2.79753 -12.51303,-2.79753 -4.452057,0 -8.71714,1.03364 -12.505973,2.79753 -3.693584,1.651 -7.84225,2.61761 -12.146139,2.61761 -4.314472,0 -8.456083,-0.96661 -12.149667,-2.61761 -3.788833,-1.76389 -8.060972,-2.79753 -12.513027,-2.79753 -4.455584,0 -8.713611,1.03364 -12.5095,2.79753 -3.693583,1.651 -7.835194,2.61761 -12.142611,2.61761 l 0,-18.20334 c 4.307417,0 8.449028,-0.97366 12.142611,-2.62819 3.795889,-1.76389 8.053916,-2.79047 12.5095,-2.79047 4.452055,0 8.724194,1.02658 12.513027,2.79047 3.693584,1.65453 7.835195,2.62819 12.149667,2.62819 4.303889,0 8.452555,-0.97366 12.146139,-2.62819 2.123722,-0.98425 4.395611,-1.74272 6.759222,-2.21544 L 213.02344,183.84783 c 3.73592,-0.87489 8.76653,-3.51367 10.541,-7.94456 0.35278,-0.87489 1.60161,-1.08302 2.62114,-1.02658 1.88031,0.0882 3.23145,1.69333 3.23145,3.56658 0.007,2.96334 -2.26131,11.16895 -14.82373,13.75481 l -65.77894,11.8498 z"
     style="fill:#ffffff;fill-opacity:1;fill-rule:nonzero;stroke:none"
     id="path11620"
     inkscape:connector-curvature="0" />
  <path
     d="m 49.092549,59.65241 c 9.186334,0 16.640528,-7.457722 16.640528,-16.640528 0,-9.186333 -7.454194,-16.626416 -16.640528,-16.626416 -9.175749,0 -16.61936,7.440083 -16.61936,16.626416 0,9.182806 7.443611,16.640528 16.61936,16.640528"
     style="fill:#ffffff;fill-opacity:1;fill-rule:nonzero;stroke:none"
     id="path11624"
     inkscape:connector-curvature="0" />
  <path
     d="m 97.468613,193.99725 c 0.839611,3.67241 5.312837,7.239 9.983607,7.239 l -0.0882,0.0564 c 5.86317,0 10.62214,-4.75544 10.62214,-10.61861 l -0.18344,-1.70745 -12.65767,-54.35599 c -1.1183,-3.51367 -4.39561,-6.82273 -7.799916,-8.17387 L 78.679668,115.2396 70.198891,78.585993 l 52.391029,-0.0635 c 4.27214,0 7.73994,-3.471333 7.73994,-7.743472 0,-4.28625 -3.4678,-7.750528 -7.73994,-7.750528 l -75.632029,-0.01411 c -7.552972,0 -11.03136,5.422194 -10.149416,10.142361 L 47.51528,121.70955 c 0.8255,4.58964 3.817055,8.42786 7.881055,10.414 l 0.201084,0.0882 31.22436,18.3268 10.646834,43.4587 z"
     style="fill:#ffffff;fill-opacity:1;fill-rule:nonzero;stroke:none"
     id="path11628"
     inkscape:connector-curvature="0" />
  <path
     d="m 133.55214,72.818782 93.79655,0 0,5.767917 -93.79655,0 0,-5.767917 z"
     style="fill:#ffffff;fill-opacity:1;fill-rule:nonzero;stroke:none"
     id="path11630"
     inkscape:connector-curvature="0" />
</svg>
