<?xml version="1.0" encoding="UTF-8" standalone="no"?>
<svg
   xmlns:dc="http://purl.org/dc/elements/1.1/"
   xmlns:cc="http://creativecommons.org/ns#"
   xmlns:rdf="http://www.w3.org/1999/02/22-rdf-syntax-ns#"
   xmlns:svg="http://www.w3.org/2000/svg"
   xmlns="http://www.w3.org/2000/svg"
   xmlns:sodipodi="http://sodipodi.sourceforge.net/DTD/sodipodi-0.dtd"
   xmlns:inkscape="http://www.inkscape.org/namespaces/inkscape"
   width="90.597931"
   height="90.597931"
   viewBox="0 0 255.68748 255.68749"
   version="1.1"
   id="svg2"
   inkscape:version="0.48.2 r9819"
   sodipodi:docname="MUTCD RS-088.svg">
  <metadata
     id="metadata62">
    <rdf:RDF>
      <cc:Work
         rdf:about="">
        <dc:format>image/svg+xml</dc:format>
        <dc:type
           rdf:resource="http://purl.org/dc/dcmitype/StillImage" />
        <dc:title></dc:title>
      </cc:Work>
    </rdf:RDF>
  </metadata>
  <defs
     id="defs60">
    <clipPath
       clipPathUnits="userSpaceOnUse"
       id="clipPath3564">
      <path
         inkscape:connector-curvature="0"
         d="m 63,43 512.622,0 0,313.129 L 63,356.129 63,43 z"
         id="path3566" />
    </clipPath>
  </defs>
  <sodipodi:namedview
     pagecolor="#ffffff"
     bordercolor="#666666"
     borderopacity="1"
     objecttolerance="10"
     gridtolerance="10"
     guidetolerance="10"
     inkscape:pageopacity="0"
     inkscape:pageshadow="2"
     inkscape:window-width="1280"
     inkscape:window-height="1004"
     id="namedview58"
     showgrid="false"
     fit-margin-top="0"
     fit-margin-left="0"
     fit-margin-right="0"
     fit-margin-bottom="0"
     inkscape:zoom="4.8826954"
     inkscape:cx="83.159137"
     inkscape:cy="32.525196"
     inkscape:window-x="-8"
     inkscape:window-y="-8"
     inkscape:window-maximized="1"
     inkscape:current-layer="svg2"
     showguides="true"
     inkscape:guide-bbox="true" />
  <polygon
     points="315,545 235,375 315,205 395,375 "
     id="polygon10"
     style="fill:none;stroke:#ffffff;stroke-width:40"
     transform="translate(17744.427,14390.473)" />
  <!-- draw the bicycle -->
  <!-- RIGHT -->
  <!-- LANE -->
  <!-- ONLY -->
  <path
     inkscape:connector-curvature="0"
     d="m 22.004643,254.8459 211.663127,0 c 5.57392,0 11.02432,-2.2577 14.97189,-6.2088 3.94053,-3.937 6.1948,-9.3839 6.1948,-14.9578 l 0,-211.6632 c 0,-5.5738 -2.25426,-11.0207 -6.1948,-14.9718 -3.94757,-3.937 -9.39797,-6.1948 -14.97189,-6.1948 l -211.663127,0 c -5.57036,0 -11.02077,2.2578 -14.9577696,6.1948 -3.94759,3.9511 -6.20888999,9.398 -6.20888999,14.9718 l 0,211.6632 c 0,7.2566 3.85232999,14.1111 9.96243959,18.0058 3.48545,2.2154 7.16845,2.7375 11.20422,3.1608"
     style="fill:#ffffff;fill-opacity:1;fill-rule:nonzero;stroke:#000000;stroke-width:1.69333339;stroke-miterlimit:4;stroke-opacity:1;stroke-dasharray:none"
     id="path3026" />
  <path
     inkscape:connector-curvature="0"
     d="m 22.004643,249.5543 c -3.15383,0 -5.80672,-0.7091 -8.36083,-2.3284 -4.6249196,-2.9421 -7.5141696,-8.1385 -7.5141696,-13.5466 l 0,-211.6632 c 0,-4.1733 1.69334,-8.2691 4.6566696,-11.2324 2.94217,-2.9422 7.0485,-4.6426 11.21833,-4.6426 l 211.663127,0 c 4.18397,0 8.29028,1.6898 11.23245,4.6426 2.95277,2.9422 4.64255,7.0485 4.64255,11.2324 l 0,211.6632 c 0,4.1698 -1.70035,8.2761 -4.64255,11.2183 -2.96333,2.9633 -7.05555,4.6567 -11.23245,4.6567 l -211.663127,0 z"
     style="fill:#713907;fill-opacity:1;fill-rule:evenodd;stroke:none"
     id="path3050" />
  <path
     d="m 57.88023,84.124604 c 5.655028,0 10.251722,4.582583 10.251722,10.248194 l 0.01411,14.675552 c 0,15.80445 12.816416,28.61381 28.620861,28.61381 l 24.034747,0.0212 c 5.65503,0 10.25172,4.58964 10.25172,10.25173 l 0.0212,14.66144 c 0,15.81503 12.80936,28.62439 28.62086,28.62439 l 24.21467,0.0212 c 5.66208,0 10.24466,4.58611 10.24466,10.25172 l 0,28.27514 18.3762,0 0,-28.27514 c 0,-15.81503 -12.81642,-28.62086 -28.62086,-28.62086 l -24.04886,-0.0282 c -5.64798,0 -10.24467,-4.58258 -10.24467,-10.24819 l -0.19403,-14.66144 c 0,-15.8115 -12.80936,-28.62086 -28.62086,-28.62086 l -24.034747,-0.0212 c -5.655028,0 -10.244667,-4.5967 -10.244667,-10.24467 l -0.02117,-14.675555 c 0,-15.807972 -12.816417,-28.624388 -28.620861,-28.624388 l -31.951108,0.01401 0,18.326805 31.951083,0.03528 z"
     style="fill:#ffffff;fill-opacity:1;fill-rule:nonzero;stroke:none"
     id="path11822"
     inkscape:connector-curvature="0" />
  <path
     d="m 104.83142,37.677882 c -0.39511,-0.398639 -0.635,-0.948972 -0.635,-1.55575 0,-0.980722 0.70203,-1.820333 1.57692,-2.102556 6.6287,-1.7145 35.27072,-8.695972 71.08119,17.9705 l 14.59795,-2.550583 14.65086,20.16125 -9.62025,1.707445 c 14.39333,21.31836 14.1993,48.923222 13.00691,59.933412 l 15.18709,24.68034 c 0.11641,0.23988 0.18697,0.51505 0.18697,0.80433 0,1.04775 -0.85372,1.90147 -1.90853,1.90147 -0.35983,0 -0.70203,-0.1023 -0.98425,-0.27517 l -21.23017,-9.11577 -21.21605,9.11577 c -0.28928,0.17287 -0.63147,0.27517 -0.99131,0.27517 -1.0548,0 -1.90147,-0.85372 -1.90147,-1.90147 0,-0.28928 0.0635,-0.56445 0.17992,-0.80433 l 15.18708,-24.68034 c 0,-25.95739 -29.40755,-37.807191 -37.09811,-40.385996 -15.3035,-5.147028 -50.0768,-27.587222 -57.418107,-46.302083 -0.116417,-0.268111 -0.176389,-0.631472 -0.176389,-0.934861 0,-1.213556 0.963083,-2.211917 2.183694,-2.211917 0.599722,0 0.984252,0.08819 1.474612,0.47625 l 9.88836,7.260167 c 0.23283,0.229305 0.54328,0.373944 0.88195,0.373944 0.68086,0 1.2453,-0.557389 1.2453,-1.241778 0,-0.391583 -0.18697,-0.744361 -0.46919,-0.963083 l -7.67998,-9.634361 z m 17.60361,8.053917 c 1.96145,0 3.56306,-1.583972 3.56306,-3.559528 0,-1.964972 -1.60161,-3.563056 -3.56306,-3.563056 -1.97908,0 -3.57011,1.598084 -3.57011,3.563056 0,1.975556 1.59103,3.559528 3.57011,3.559528"
     style="fill:#ffffff;fill-opacity:1;fill-rule:nonzero;stroke:none"
     id="path11826"
     inkscape:connector-curvature="0" />
</svg>
