<?xml version="1.0" encoding="UTF-8" standalone="no"?>
<svg
   xmlns:dc="http://purl.org/dc/elements/1.1/"
   xmlns:cc="http://creativecommons.org/ns#"
   xmlns:rdf="http://www.w3.org/1999/02/22-rdf-syntax-ns#"
   xmlns:svg="http://www.w3.org/2000/svg"
   xmlns="http://www.w3.org/2000/svg"
   xmlns:sodipodi="http://sodipodi.sourceforge.net/DTD/sodipodi-0.dtd"
   xmlns:inkscape="http://www.inkscape.org/namespaces/inkscape"
   width="90.597931"
   height="90.597931"
   viewBox="0 0 255.68748 255.68749"
   version="1.1"
   id="svg2"
   inkscape:version="0.48.2 r9819"
   sodipodi:docname="MUTCD RS-027.svg">
  <metadata
     id="metadata62">
    <rdf:RDF>
      <cc:Work
         rdf:about="">
        <dc:format>image/svg+xml</dc:format>
        <dc:type
           rdf:resource="http://purl.org/dc/dcmitype/StillImage" />
        <dc:title></dc:title>
      </cc:Work>
    </rdf:RDF>
  </metadata>
  <defs
     id="defs60">
    <clipPath
       clipPathUnits="userSpaceOnUse"
       id="clipPath3564">
      <path
         inkscape:connector-curvature="0"
         d="m 63,43 512.622,0 0,313.129 L 63,356.129 63,43 z"
         id="path3566" />
    </clipPath>
  </defs>
  <sodipodi:namedview
     pagecolor="#ffffff"
     bordercolor="#666666"
     borderopacity="1"
     objecttolerance="10"
     gridtolerance="10"
     guidetolerance="10"
     inkscape:pageopacity="0"
     inkscape:pageshadow="2"
     inkscape:window-width="1280"
     inkscape:window-height="1004"
     id="namedview58"
     showgrid="false"
     fit-margin-top="0"
     fit-margin-left="0"
     fit-margin-right="0"
     fit-margin-bottom="0"
     inkscape:zoom="4.8826954"
     inkscape:cx="83.159137"
     inkscape:cy="32.525196"
     inkscape:window-x="-8"
     inkscape:window-y="-8"
     inkscape:window-maximized="1"
     inkscape:current-layer="svg2"
     showguides="true"
     inkscape:guide-bbox="true" />
  <polygon
     points="315,545 235,375 315,205 395,375 "
     id="polygon10"
     style="fill:none;stroke:#ffffff;stroke-width:40"
     transform="translate(17744.427,14390.473)" />
  <!-- draw the bicycle -->
  <!-- RIGHT -->
  <!-- LANE -->
  <!-- ONLY -->
  <path
     inkscape:connector-curvature="0"
     d="m 22.004643,254.8459 211.663127,0 c 5.57392,0 11.02432,-2.2577 14.97189,-6.2088 3.94053,-3.937 6.1948,-9.3839 6.1948,-14.9578 l 0,-211.6632 c 0,-5.5738 -2.25426,-11.0207 -6.1948,-14.9718 -3.94757,-3.937 -9.39797,-6.1948 -14.97189,-6.1948 l -211.663127,0 c -5.57036,0 -11.02077,2.2578 -14.9577696,6.1948 -3.94759,3.9511 -6.20888999,9.398 -6.20888999,14.9718 l 0,211.6632 c 0,7.2566 3.85232999,14.1111 9.96243959,18.0058 3.48545,2.2154 7.16845,2.7375 11.20422,3.1608"
     style="fill:#ffffff;fill-opacity:1;fill-rule:nonzero;stroke:#000000;stroke-width:1.69333339;stroke-miterlimit:4;stroke-opacity:1;stroke-dasharray:none"
     id="path3026" />
  <path
     inkscape:connector-curvature="0"
     d="m 22.004643,249.5543 c -3.15383,0 -5.80672,-0.7091 -8.36083,-2.3284 -4.6249196,-2.9421 -7.5141696,-8.1385 -7.5141696,-13.5466 l 0,-211.6632 c 0,-4.1733 1.69334,-8.2691 4.6566696,-11.2324 2.94217,-2.9422 7.0485,-4.6426 11.21833,-4.6426 l 211.663127,0 c 4.18397,0 8.29028,1.6898 11.23245,4.6426 2.95277,2.9422 4.64255,7.0485 4.64255,11.2324 l 0,211.6632 c 0,4.1698 -1.70035,8.2761 -4.64255,11.2183 -2.96333,2.9633 -7.05555,4.6567 -11.23245,4.6567 l -211.663127,0 z"
     style="fill:#713907;fill-opacity:1;fill-rule:evenodd;stroke:none"
     id="path3050" />
  <path
     d="m 163.79718,67.942701 -6.01486,-6.092472 -5.87728,5.940778 -5.78202,-5.849055 -5.7785,5.849055 -5.77497,-5.849055 -7.5177,7.605888 -9.652,0.08819 c -4.14866,7.327199 -11.92036,12.347227 -20.933831,12.347227 -13.338528,0 -24.151167,-10.809111 -24.151167,-24.147639 0,-13.349111 10.812639,-24.151166 24.151167,-24.151166 8.897051,0 16.577031,4.900083 20.775081,12.072055 l 48.63042,0.08819 8.13858,8.247944 c 1.27353,1.294695 1.20297,2.384778 0.0459,3.563056 L 163.94182,67.900368 M 85.910908,63.945729 c 3.584222,0 6.491111,-2.913944 6.491111,-6.491111 0,-3.573639 -2.906889,-6.491111 -6.491111,-6.491111 -3.584223,0 -6.484056,2.917472 -6.484056,6.491111 0,3.577167 2.899833,6.491111 6.484056,6.491111"
     style="fill:#ffffff;fill-opacity:1;fill-rule:nonzero;stroke:none"
     id="path4550"
     inkscape:connector-curvature="0" />
  <path
     d="m 202.34098,220.60904 -159.123944,0 0,-127.469186 159.123944,0 0,127.469186 z m -140.800667,-18.3268 122.417417,0 0,-90.75208 -122.417417,0 0,90.75208 z"
     style="fill:#ffffff;fill-opacity:1;fill-rule:nonzero;stroke:none"
     id="path4552"
     inkscape:connector-curvature="0" />
  <path
     d="m 94.898627,188.99486 -6.1595,0 c -4.243917,0 -8.364361,-3.13972 -8.364361,-8.59013 l 0,-38.98548 c 0,-4.87186 4.021667,-8.54427 8.364361,-8.54427 l 6.1595,0 0,56.11988 z"
     style="fill:#ffffff;fill-opacity:1;fill-rule:nonzero;stroke:none"
     id="path4556"
     inkscape:connector-curvature="0" />
  <path
     d="m 154.60203,188.99486 6.15244,0 c 4.25098,0 8.37142,-3.13972 8.37142,-8.59013 l 0,-38.98548 c 0,-4.87186 -4.02167,-8.54427 -8.37142,-8.54427 l -6.15244,0 0,56.11988 z"
     style="fill:#ffffff;fill-opacity:1;fill-rule:nonzero;stroke:none"
     id="path4560"
     inkscape:connector-curvature="0" />
  <path
     d="m 132.0994,132.97199 -15.00717,0 0,-8.12447 15.00717,0 0,8.12447 z m 4.25802,0 0,-7.88105 c 0,-2.94217 -2.5788,-4.80131 -5.6903,-4.80131 l -11.9627,0 c -3.12208,0 -5.73969,1.85914 -5.73969,4.80131 l 0,7.88105 -11.20422,0 0,56.12694 45.90344,0 0,-56.12694 -11.30653,0 z"
     style="fill:#ffffff;fill-opacity:1;fill-rule:nonzero;stroke:none"
     id="path4562"
     inkscape:connector-curvature="0" />
</svg>
