<?xml version="1.0" encoding="UTF-8" standalone="no"?>
<svg
   xmlns:dc="http://purl.org/dc/elements/1.1/"
   xmlns:cc="http://creativecommons.org/ns#"
   xmlns:rdf="http://www.w3.org/1999/02/22-rdf-syntax-ns#"
   xmlns:svg="http://www.w3.org/2000/svg"
   xmlns="http://www.w3.org/2000/svg"
   xmlns:sodipodi="http://sodipodi.sourceforge.net/DTD/sodipodi-0.dtd"
   xmlns:inkscape="http://www.inkscape.org/namespaces/inkscape"
   width="90.597931"
   height="90.597931"
   viewBox="0 0 255.68748 255.68749"
   version="1.1"
   id="svg2"
   inkscape:version="0.48.2 r9819"
   sodipodi:docname="MUTCD RS-149.svg">
  <metadata
     id="metadata62">
    <rdf:RDF>
      <cc:Work
         rdf:about="">
        <dc:format>image/svg+xml</dc:format>
        <dc:type
           rdf:resource="http://purl.org/dc/dcmitype/StillImage" />
        <dc:title></dc:title>
      </cc:Work>
    </rdf:RDF>
  </metadata>
  <defs
     id="defs60">
    <clipPath
       clipPathUnits="userSpaceOnUse"
       id="clipPath3564">
      <path
         inkscape:connector-curvature="0"
         d="m 63,43 512.622,0 0,313.129 L 63,356.129 63,43 z"
         id="path3566" />
    </clipPath>
  </defs>
  <sodipodi:namedview
     pagecolor="#ffffff"
     bordercolor="#666666"
     borderopacity="1"
     objecttolerance="10"
     gridtolerance="10"
     guidetolerance="10"
     inkscape:pageopacity="0"
     inkscape:pageshadow="2"
     inkscape:window-width="1280"
     inkscape:window-height="1004"
     id="namedview58"
     showgrid="false"
     fit-margin-top="0"
     fit-margin-left="0"
     fit-margin-right="0"
     fit-margin-bottom="0"
     inkscape:zoom="4.8826954"
     inkscape:cx="83.159137"
     inkscape:cy="32.525196"
     inkscape:window-x="-8"
     inkscape:window-y="-8"
     inkscape:window-maximized="1"
     inkscape:current-layer="svg2"
     showguides="true"
     inkscape:guide-bbox="true" />
  <polygon
     points="315,545 235,375 315,205 395,375 "
     id="polygon10"
     style="fill:none;stroke:#ffffff;stroke-width:40"
     transform="translate(17744.427,14390.473)" />
  <!-- draw the bicycle -->
  <!-- RIGHT -->
  <!-- LANE -->
  <!-- ONLY -->
  <path
     inkscape:connector-curvature="0"
     d="m 22.004643,254.8459 211.663127,0 c 5.57392,0 11.02432,-2.2577 14.97189,-6.2088 3.94053,-3.937 6.1948,-9.3839 6.1948,-14.9578 l 0,-211.6632 c 0,-5.5738 -2.25426,-11.0207 -6.1948,-14.9718 -3.94757,-3.937 -9.39797,-6.1948 -14.97189,-6.1948 l -211.663127,0 c -5.57036,0 -11.02077,2.2578 -14.9577696,6.1948 -3.94759,3.9511 -6.20888999,9.398 -6.20888999,14.9718 l 0,211.6632 c 0,7.2566 3.85232999,14.1111 9.96243959,18.0058 3.48545,2.2154 7.16845,2.7375 11.20422,3.1608"
     style="fill:#ffffff;fill-opacity:1;fill-rule:nonzero;stroke:#000000;stroke-width:1.69333339;stroke-miterlimit:4;stroke-opacity:1;stroke-dasharray:none"
     id="path3026" />
  <path
     inkscape:connector-curvature="0"
     d="m 22.004643,249.5543 c -3.15383,0 -5.80672,-0.7091 -8.36083,-2.3284 -4.6249196,-2.9421 -7.5141696,-8.1385 -7.5141696,-13.5466 l 0,-211.6632 c 0,-4.1733 1.69334,-8.2691 4.6566696,-11.2324 2.94217,-2.9422 7.0485,-4.6426 11.21833,-4.6426 l 211.663127,0 c 4.18397,0 8.29028,1.6898 11.23245,4.6426 2.95277,2.9422 4.64255,7.0485 4.64255,11.2324 l 0,211.6632 c 0,4.1698 -1.70035,8.2761 -4.64255,11.2183 -2.96333,2.9633 -7.05555,4.6567 -11.23245,4.6567 l -211.663127,0 z"
     style="fill:#713907;fill-opacity:1;fill-rule:evenodd;stroke:none"
     id="path3050" />
  <path
     d="m 28.23915,105.08172 0,0 c -0.130528,-0.13053 -0.194028,-0.28222 -0.194028,-0.49036 0,-0.39864 0.331611,-0.7232 0.73025,-0.7232 l 21.311305,0.0212 c 1.026584,0 1.876778,-0.83961 1.876778,-1.87325 0,-0.78669 -0.366889,-1.32292 -1.178278,-1.74272 L 31.519983,91.079969 c -0.373944,-0.218722 -0.613833,-0.627944 -0.613833,-1.0795 0,-0.345722 0.130528,-0.663222 0.363361,-0.896055 0,0 50.644777,-44.753388 162.739919,-1.358195 l 30.7728,-15.056555 c 0.31045,-0.151695 0.64911,-0.218722 1.00542,-0.218722 1.31586,0 2.38478,1.061861 2.38478,2.370666 0,0.455084 -0.12347,0.874889 -0.34572,1.23825 l -18.161,22.595418 18.161,22.570724 c 0.22225,0.35983 0.34572,0.77964 0.34572,1.23472 0,1.3088 -1.06892,2.36714 -2.38478,2.36714 -0.35631,0 -0.69497,-0.0741 -1.00542,-0.22578 l -30.7728,-15.05656 c 0,0 -107.142142,42.61203 -165.77028,-4.4838 M 59.953872,94.346691 c 2.515305,0 4.561416,-2.046111 4.561416,-4.561416 0,-2.522361 -2.046111,-4.554361 -4.561416,-4.554361 -2.522362,0 -4.561417,2.032 -4.561417,4.554361 0,2.515305 2.039055,4.561416 4.561417,4.561416"
     style="fill:#ffffff;fill-opacity:1;fill-rule:nonzero;stroke:none"
     id="path11536"
     inkscape:connector-curvature="0" />
  <path
     d="m 39.525569,156.17241 0,0 c -0.05644,-0.0494 -0.08819,-0.11642 -0.08819,-0.20109 0,-0.15875 0.137583,-0.28927 0.303388,-0.28927 l 8.516056,0.0141 c 0.41275,0 0.744361,-0.33867 0.744361,-0.75142 0,-0.3175 -0.137583,-0.52211 -0.462139,-0.69497 l -7.718778,-3.67947 c -0.137583,-0.0882 -0.232833,-0.24695 -0.232833,-0.43392 0,-0.13758 0.05292,-0.26106 0.144639,-0.35983 0,0 20.2565,-17.89289 65.091027,-0.53623 l 12.319,-6.02191 c 0.11642,-0.0635 0.25047,-0.0882 0.39864,-0.0882 0.52564,0 0.94544,0.42686 0.94544,0.94897 0,0.17992 -0.0494,0.34572 -0.13052,0.49036 l -7.27781,9.03817 7.27781,9.03463 c 0.0811,0.13759 0.13052,0.30339 0.13052,0.49037 0,0.52211 -0.4198,0.94191 -0.94544,0.94191 -0.14817,0 -0.28222,-0.0282 -0.39864,-0.0811 l -12.319,-6.02191 c 0,0 -42.855444,17.03916 -66.297527,-1.79917 m 12.678833,-4.29331 c 1.012472,0 1.823861,-0.81844 1.823861,-1.82386 0,-1.00541 -0.811389,-1.82739 -1.823861,-1.82739 -1.005416,0 -1.820333,0.82198 -1.820333,1.82739 0,1.00542 0.814917,1.82386 1.820333,1.82386"
     style="fill:#ffffff;fill-opacity:1;fill-rule:nonzero;stroke:none"
     id="path11540"
     inkscape:connector-curvature="0" />
  <path
     d="m 139.91554,156.17241 0,0 c -0.0564,-0.0494 -0.0776,-0.11642 -0.0776,-0.20109 0,-0.15875 0.13406,-0.28927 0.29986,-0.28927 l 8.51606,0.0141 c 0.4198,0 0.74436,-0.33867 0.74436,-0.75142 0,-0.3175 -0.13406,-0.52211 -0.4692,-0.69497 l -7.70466,-3.67947 c -0.13759,-0.0882 -0.23989,-0.24695 -0.23989,-0.43392 0,-0.13758 0.0529,-0.26106 0.15169,-0.35983 0,0 20.24945,-17.89289 65.08398,-0.53623 l 12.31194,-6.02191 c 0.12347,-0.0635 0.26105,-0.0882 0.40569,-0.0882 0.52564,0 0.93839,0.42686 0.93839,0.94897 0,0.17992 -0.0423,0.34572 -0.13053,0.49036 l -7.26369,9.03817 7.26369,9.03463 c 0.0882,0.13759 0.13053,0.30339 0.13053,0.49037 0,0.52211 -0.41275,0.94191 -0.93839,0.94191 -0.14464,0 -0.28222,-0.0282 -0.40569,-0.0811 l -12.31195,-6.02192 c 0,0 -42.85898,17.03917 -66.30459,-1.79916 m 12.68589,-4.29331 c 1.00542,0 1.82386,-0.81844 1.82386,-1.82386 0,-1.00542 -0.81844,-1.82739 -1.82386,-1.82739 -1.01247,0 -1.82739,0.82197 -1.82739,1.82739 0,1.00542 0.81492,1.82386 1.82739,1.82386"
     style="fill:#ffffff;fill-opacity:1;fill-rule:nonzero;stroke:none"
     id="path11544"
     inkscape:connector-curvature="0" />
  <path
     d="m 90.071921,188.69393 0,0 c -0.0635,-0.0494 -0.07761,-0.10936 -0.07761,-0.19403 0,-0.16227 0.127,-0.29633 0.296333,-0.29633 l 8.519583,0.0141 c 0.419806,0 0.740834,-0.33514 0.740834,-0.74436 0,-0.31397 -0.137584,-0.53622 -0.458611,-0.70203 l -7.711723,-3.6724 c -0.151695,-0.0882 -0.254,-0.254 -0.254,-0.43392 0,-0.14464 0.06703,-0.26811 0.165805,-0.35631 0,0 20.249448,-17.90347 65.091028,-0.5468 l 12.31195,-6.02192 c 0.11641,-0.06 0.254,-0.0882 0.38452,-0.0882 0.5327,0 0.96662,0.42686 0.96662,0.94897 0,0.17992 -0.0565,0.34572 -0.14464,0.49036 l -7.27075,9.04169 7.27075,9.02406 c 0.0882,0.15169 0.14464,0.3175 0.14464,0.49742 0,0.52211 -0.43392,0.94897 -0.96662,0.94897 -0.13052,0 -0.26811,-0.0282 -0.38452,-0.0882 l -12.31195,-6.02191 c 0,0 -42.85897,17.03916 -66.311639,-1.79917 m 12.685889,-4.2933 c 0.99836,0 1.81681,-0.81845 1.81681,-1.82387 0,-1.00541 -0.81845,-1.82033 -1.81681,-1.82033 -1.01247,0 -1.83444,0.81492 -1.83444,1.82033 0,1.00542 0.82197,1.82387 1.83444,1.82387"
     style="fill:#ffffff;fill-opacity:1;fill-rule:nonzero;stroke:none"
     id="path11548"
     inkscape:connector-curvature="0" />
</svg>
