<?xml version="1.0" encoding="UTF-8" standalone="no"?>
<svg
   xmlns:dc="http://purl.org/dc/elements/1.1/"
   xmlns:cc="http://creativecommons.org/ns#"
   xmlns:rdf="http://www.w3.org/1999/02/22-rdf-syntax-ns#"
   xmlns:svg="http://www.w3.org/2000/svg"
   xmlns="http://www.w3.org/2000/svg"
   xmlns:sodipodi="http://sodipodi.sourceforge.net/DTD/sodipodi-0.dtd"
   xmlns:inkscape="http://www.inkscape.org/namespaces/inkscape"
   width="90.597931"
   height="90.597931"
   viewBox="0 0 255.68748 255.68749"
   version="1.1"
   id="svg2"
   inkscape:version="0.48.2 r9819"
   sodipodi:docname="MUTCD RS-054.svg">
  <metadata
     id="metadata62">
    <rdf:RDF>
      <cc:Work
         rdf:about="">
        <dc:format>image/svg+xml</dc:format>
        <dc:type
           rdf:resource="http://purl.org/dc/dcmitype/StillImage" />
        <dc:title></dc:title>
      </cc:Work>
    </rdf:RDF>
  </metadata>
  <defs
     id="defs60">
    <clipPath
       clipPathUnits="userSpaceOnUse"
       id="clipPath3564">
      <path
         inkscape:connector-curvature="0"
         d="m 63,43 512.622,0 0,313.129 L 63,356.129 63,43 z"
         id="path3566" />
    </clipPath>
  </defs>
  <sodipodi:namedview
     pagecolor="#ffffff"
     bordercolor="#666666"
     borderopacity="1"
     objecttolerance="10"
     gridtolerance="10"
     guidetolerance="10"
     inkscape:pageopacity="0"
     inkscape:pageshadow="2"
     inkscape:window-width="1280"
     inkscape:window-height="1004"
     id="namedview58"
     showgrid="false"
     fit-margin-top="0"
     fit-margin-left="0"
     fit-margin-right="0"
     fit-margin-bottom="0"
     inkscape:zoom="4.8826954"
     inkscape:cx="83.159137"
     inkscape:cy="32.525196"
     inkscape:window-x="-8"
     inkscape:window-y="-8"
     inkscape:window-maximized="1"
     inkscape:current-layer="svg2"
     showguides="true"
     inkscape:guide-bbox="true" />
  <polygon
     points="315,545 235,375 315,205 395,375 "
     id="polygon10"
     style="fill:none;stroke:#ffffff;stroke-width:40"
     transform="translate(17744.427,14390.473)" />
  <!-- draw the bicycle -->
  <!-- RIGHT -->
  <!-- LANE -->
  <!-- ONLY -->
  <path
     inkscape:connector-curvature="0"
     d="m 22.004643,254.8459 211.663127,0 c 5.57392,0 11.02432,-2.2577 14.97189,-6.2088 3.94053,-3.937 6.1948,-9.3839 6.1948,-14.9578 l 0,-211.6632 c 0,-5.5738 -2.25426,-11.0207 -6.1948,-14.9718 -3.94757,-3.937 -9.39797,-6.1948 -14.97189,-6.1948 l -211.663127,0 c -5.57036,0 -11.02077,2.2578 -14.9577696,6.1948 -3.94759,3.9511 -6.20888999,9.398 -6.20888999,14.9718 l 0,211.6632 c 0,7.2566 3.85232999,14.1111 9.96243959,18.0058 3.48545,2.2154 7.16845,2.7375 11.20422,3.1608"
     style="fill:#ffffff;fill-opacity:1;fill-rule:nonzero;stroke:#000000;stroke-width:1.69333339;stroke-miterlimit:4;stroke-opacity:1;stroke-dasharray:none"
     id="path3026" />
  <path
     inkscape:connector-curvature="0"
     d="m 22.004643,249.5543 c -3.15383,0 -5.80672,-0.7091 -8.36083,-2.3284 -4.6249196,-2.9421 -7.5141696,-8.1385 -7.5141696,-13.5466 l 0,-211.6632 c 0,-4.1733 1.69334,-8.2691 4.6566696,-11.2324 2.94217,-2.9422 7.0485,-4.6426 11.21833,-4.6426 l 211.663127,0 c 4.18397,0 8.29028,1.6898 11.23245,4.6426 2.95277,2.9422 4.64255,7.0485 4.64255,11.2324 l 0,211.6632 c 0,4.1698 -1.70035,8.2761 -4.64255,11.2183 -2.96333,2.9633 -7.05555,4.6567 -11.23245,4.6567 l -211.663127,0 z"
     style="fill:#713907;fill-opacity:1;fill-rule:evenodd;stroke:none"
     id="path3050" />
  <path
     d="m 234.24267,171.44273 c -4.32152,0 -8.46313,-0.97719 -12.15672,-2.62466 -3.79589,-1.77095 -8.05391,-2.79753 -12.50597,-2.79753 -4.44853,0 -8.72772,1.02658 -12.5095,2.79753 -3.70769,1.64747 -7.82814,2.62466 -12.14967,2.62466 -4.31447,0 -8.45961,-0.97719 -12.15319,-2.62466 -3.78883,-1.77095 -8.04686,-2.79753 -12.50597,-2.79753 -4.45206,0 -8.73125,1.02658 -12.50597,2.79753 -3.70064,1.64747 -7.8352,2.62466 -12.14614,2.62466 -4.31448,0 -8.46314,-0.97719 -12.15673,-2.62466 -3.78883,-1.77095 -8.04686,-2.79753 -12.49892,-2.79753 -4.45558,0 -8.72066,1.02658 -12.513022,2.79753 -3.704167,1.64747 -7.831667,2.62466 -12.146139,2.62466 -4.318,0 -8.459611,-0.97719 -12.153194,-2.62466 -3.795889,-1.77095 -8.053917,-2.79753 -12.505972,-2.79753 -4.452056,0 -8.717139,1.02658 -12.513027,2.79753 -3.707694,1.64747 -7.828138,2.62466 -12.146138,2.62466 l 0,-18.21039 c 4.318,0 8.438444,-0.96308 12.146138,-2.62466 3.795888,-1.76389 8.060971,-2.79047 12.513027,-2.79047 4.452055,0 8.710083,1.02658 12.505972,2.79047 3.693583,1.66158 7.835194,2.62466 12.153194,2.62466 4.314472,0 8.441972,-0.96308 12.146139,-2.62466 3.792362,-1.76389 8.057442,-2.79047 12.513022,-2.79047 4.45206,0 8.71009,1.02658 12.49892,2.79047 3.69359,1.66158 7.84225,2.62466 12.15673,2.62466 4.31094,0 8.4455,-0.96308 12.14614,-2.62466 3.77472,-1.76389 8.05391,-2.79047 12.50597,-2.79047 4.45911,0 8.71714,1.02658 12.50597,2.79047 3.69358,1.66158 7.83872,2.62466 12.15319,2.62466 4.32153,0 8.44198,-0.96308 12.14967,-2.62466 3.78178,-1.76389 8.06097,-2.79047 12.5095,-2.79047 4.45206,0 8.71008,1.02658 12.50597,2.79047 3.69359,1.66158 7.8352,2.62466 12.15672,2.62466 l 0,18.21039 z"
     style="fill:#ffffff;fill-opacity:1;fill-rule:nonzero;stroke:none"
     id="path11572"
     inkscape:connector-curvature="0" />
  <path
     d="m 184.66681,110.02342 35.84928,2.79752 -2.71639,-18.3268 -26.29958,-1.862667 c -7.12964,-0.342194 -6.11011,6.787444 -6.11011,6.787444 l -0.7232,10.604503 z"
     style="fill:#ffffff;fill-opacity:1;fill-rule:nonzero;stroke:none"
     id="path11576"
     inkscape:connector-curvature="0" />
  <path
     d="m 118.16114,105.84124 c 6.56873,0 11.86745,-5.31989 11.86745,-11.885086 0,-6.561667 -5.29872,-11.878028 -11.86745,-11.878028 -6.56519,0 -11.88508,5.316361 -11.88508,11.878028 0,6.565196 5.31989,11.885086 11.88508,11.885086"
     style="fill:#ffffff;fill-opacity:1;fill-rule:nonzero;stroke:none"
     id="path11580"
     inkscape:connector-curvature="0" />
  <path
     d="m 44.755147,145.36328 c 1.506362,-0.4198 2.970389,-1.01952 4.367389,-1.64747 3.795888,-1.76389 8.060971,-2.79753 12.513027,-2.79753 4.452055,0 8.710083,1.03364 12.505972,2.79753 3.693583,1.65453 7.835194,2.62467 12.153194,2.62467 4.314472,0 8.441972,-0.97014 12.146139,-2.62467 3.792362,-1.76389 8.057442,-2.79753 12.513022,-2.79753 4.45206,0 8.71009,1.03364 12.49892,2.79753 3.69359,1.65453 7.84225,2.62467 12.15673,2.62467 4.31094,0 8.4455,-0.97014 12.14614,-2.62467 3.77472,-1.76389 8.05391,-2.79753 12.50597,-2.79753 4.45911,0 8.71714,1.03364 12.50597,2.79753 3.69358,1.65453 7.83872,2.62467 12.15319,2.62467 4.32153,0 8.44198,-0.97014 12.14967,-2.62467 3.78178,-1.76389 8.06097,-2.79753 12.5095,-2.79753 4.45206,0 8.71008,1.03364 12.50597,2.79753 3.69359,1.65453 7.80697,2.62467 12.1285,2.62467 L 230.16104,120.11851 81.140646,107.66898 103.60201,84.978312 93.763034,84.110478 71.280507,106.80467 22.445481,102.81123 c -0.296334,16.62994 18.263305,38.06825 22.309666,42.55205"
     style="fill:#ffffff;fill-opacity:1;fill-rule:nonzero;stroke:none"
     id="path11584"
     inkscape:connector-curvature="0" />
</svg>
