<?xml version="1.0" encoding="UTF-8" standalone="no"?>
<svg
   xmlns:dc="http://purl.org/dc/elements/1.1/"
   xmlns:cc="http://creativecommons.org/ns#"
   xmlns:rdf="http://www.w3.org/1999/02/22-rdf-syntax-ns#"
   xmlns:svg="http://www.w3.org/2000/svg"
   xmlns="http://www.w3.org/2000/svg"
   xmlns:sodipodi="http://sodipodi.sourceforge.net/DTD/sodipodi-0.dtd"
   xmlns:inkscape="http://www.inkscape.org/namespaces/inkscape"
   width="90.597931"
   height="90.597931"
   viewBox="0 0 255.68748 255.68749"
   version="1.1"
   id="svg2"
   inkscape:version="0.48.2 r9819"
   sodipodi:docname="MUTCD RS-009.svg">
  <metadata
     id="metadata62">
    <rdf:RDF>
      <cc:Work
         rdf:about="">
        <dc:format>image/svg+xml</dc:format>
        <dc:type
           rdf:resource="http://purl.org/dc/dcmitype/StillImage" />
        <dc:title></dc:title>
      </cc:Work>
    </rdf:RDF>
  </metadata>
  <defs
     id="defs60">
    <clipPath
       clipPathUnits="userSpaceOnUse"
       id="clipPath3564">
      <path
         inkscape:connector-curvature="0"
         d="m 63,43 512.622,0 0,313.129 L 63,356.129 63,43 z"
         id="path3566" />
    </clipPath>
  </defs>
  <sodipodi:namedview
     pagecolor="#ffffff"
     bordercolor="#666666"
     borderopacity="1"
     objecttolerance="10"
     gridtolerance="10"
     guidetolerance="10"
     inkscape:pageopacity="0"
     inkscape:pageshadow="2"
     inkscape:window-width="1280"
     inkscape:window-height="1004"
     id="namedview58"
     showgrid="false"
     fit-margin-top="0"
     fit-margin-left="0"
     fit-margin-right="0"
     fit-margin-bottom="0"
     inkscape:zoom="4"
     inkscape:cx="48.704041"
     inkscape:cy="35.520564"
     inkscape:window-x="-8"
     inkscape:window-y="-8"
     inkscape:window-maximized="1"
     inkscape:current-layer="svg2"
     showguides="true"
     inkscape:guide-bbox="true" />
  <polygon
     points="235,375 315,205 395,375 315,545 "
     id="polygon10"
     style="fill:none;stroke:#ffffff;stroke-width:40"
     transform="translate(17618.396,14343.442)" />
  <!-- draw the bicycle -->
  <!-- RIGHT -->
  <!-- LANE -->
  <!-- ONLY -->
  <path
     inkscape:connector-curvature="0"
     d="m 22.008538,254.83715 211.663112,0 c 5.57389,0 11.02432,-2.2578 14.97188,-6.2089 3.94054,-3.937 6.19479,-9.3839 6.19479,-14.9578 l 0,-211.6667 c 0,-5.5738 -2.25425,-11.0207 -6.19479,-14.9718 -3.94756,-3.937 -9.39799,-6.1948 -14.97188,-6.1948 l -211.663112,0 c -5.57036,0 -11.02078,2.2578 -14.9577796,6.1948 -3.94758,3.9511 -6.20888999,9.398 -6.20888999,14.9718 l 0,211.6667 c 0,7.2531 3.85232999,14.1111 9.96244959,18.0058 3.48897,2.2154 7.16844,2.734 11.20422,3.1609"
     style="fill:#ffffff;fill-opacity:1;fill-rule:nonzero;stroke:#000000;stroke-width:1.69333331;stroke-miterlimit:4;stroke-opacity:1;stroke-dasharray:none"
     id="path3060" />
  <path
     inkscape:connector-curvature="0"
     d="m 22.008538,249.54545 c -3.15384,0 -5.80672,-0.7126 -8.36084,-2.3319 -4.6249096,-2.9421 -7.5141596,-8.135 -7.5141596,-13.5431 l 0,-211.6667 c 0,-4.1698 1.69333,-8.2655 4.6566596,-11.2289 2.94217,-2.9421 7.0485,-4.6461 11.21834,-4.6461 l 211.663112,0 c 4.18394,0 8.29028,1.6934 11.23244,4.6461 2.95628,2.9422 4.64256,7.0485 4.64256,11.2289 l 0,211.6667 c 0,4.1663 -1.70038,8.2726 -4.64256,11.2148 -2.96333,2.9669 -7.05554,4.6602 -11.23244,4.6602 l -211.663112,0 z"
     style="fill:#713907;fill-opacity:1;fill-rule:evenodd;stroke:none"
     id="path3084" />
  <path
     d="m 180.99475,54.445396 18.60197,-0.02822 c 2.48356,0 4.50145,2.014361 4.50145,4.5085 0,2.480027 -2.01789,4.490861 -4.50145,4.490861 l -18.42205,-0.02117 c -1.17123,-0.0071 -2.34245,0.426861 -3.22439,1.315861 -1.38642,1.379361 -1.70392,3.418417 -0.91722,5.094111 0.66675,1.446389 1.61925,2.988028 2.61761,4.250972 l 10.61861,-0.01411 c 0.81139,0.03528 1.66158,0.232833 2.413,0.599722 l 24.96961,13.373806 c 2.06728,1.294694 3.44311,3.594805 3.44311,6.205361 0,4.046361 -3.27731,7.32014 -7.31661,7.32014 l -16.20661,0 -21.84753,53.45288 -14.00175,14.00881 0,51.15278 c 0,5.19288 -4.20864,9.398 -9.398,9.398 -5.19642,0 -9.40506,-4.20512 -9.40506,-9.398 l 0.007,-55.01923 -37.77191,0 -8.473725,12.8905 20.842115,36.3467 c 2.56116,4.51908 0.96308,10.25172 -3.556,12.80936 -4.51909,2.55764 -10.25173,0.95603 -12.80936,-3.556 l -21.448894,-36.78061 0,-16.2807 -10.639777,14.29103 0,34.62161 c 0,5.18936 -4.208639,9.398 -9.405055,9.398 -5.185834,0 -9.390945,-4.20864 -9.390945,-9.398 l -0.04591,-36.69594 8.791222,-13.91003 0,-16.62642 -6.829777,10.67859 c -0.15875,0.37747 -0.529167,0.64205 -0.970139,0.64205 -0.578556,0 -1.04775,-0.46919 -1.04775,-1.04775 l -0.0071,-36.99227 c 0.331611,-7.23547 6.434667,-13.29972 13.740694,-13.29972 l 92.477163,-0.0141 14.67203,-22.553087 -12.14966,-12.132027 c -0.39159,-0.345723 -0.64559,-0.853723 -0.64559,-1.418167 0,-1.040695 0.83961,-1.876778 1.87325,-1.876778 l 8.90059,0.03528 c -2.23662,-4.596694 -3.4925,-9.761361 -3.4925,-15.218833 0,-19.222863 15.62805,-34.808585 34.85091,-34.808585 2.48708,0 4.54025,2.010833 4.54025,4.497916 0,2.487084 -2.05317,4.561417 -4.54025,4.561417 -13.15155,0 -24.03828,9.948333 -25.54816,22.70125 1.83091,-1.044222 3.89113,-1.55575 6.15244,-1.55575"
     style="fill:#ffffff;fill-opacity:1;fill-rule:nonzero;stroke:none"
     id="path3356"
     inkscape:connector-curvature="0" />
</svg>
