<?xml version="1.0" encoding="UTF-8" standalone="no"?>
<svg
   xmlns:dc="http://purl.org/dc/elements/1.1/"
   xmlns:cc="http://creativecommons.org/ns#"
   xmlns:rdf="http://www.w3.org/1999/02/22-rdf-syntax-ns#"
   xmlns:svg="http://www.w3.org/2000/svg"
   xmlns="http://www.w3.org/2000/svg"
   xmlns:sodipodi="http://sodipodi.sourceforge.net/DTD/sodipodi-0.dtd"
   xmlns:inkscape="http://www.inkscape.org/namespaces/inkscape"
   width="90.597931"
   height="90.597931"
   viewBox="0 0 255.68748 255.68749"
   version="1.1"
   id="svg2"
   inkscape:version="0.48.2 r9819"
   sodipodi:docname="MUTCD RS-053.svg">
  <metadata
     id="metadata62">
    <rdf:RDF>
      <cc:Work
         rdf:about="">
        <dc:format>image/svg+xml</dc:format>
        <dc:type
           rdf:resource="http://purl.org/dc/dcmitype/StillImage" />
        <dc:title></dc:title>
      </cc:Work>
    </rdf:RDF>
  </metadata>
  <defs
     id="defs60">
    <clipPath
       clipPathUnits="userSpaceOnUse"
       id="clipPath3564">
      <path
         inkscape:connector-curvature="0"
         d="m 63,43 512.622,0 0,313.129 L 63,356.129 63,43 z"
         id="path3566" />
    </clipPath>
  </defs>
  <sodipodi:namedview
     pagecolor="#ffffff"
     bordercolor="#666666"
     borderopacity="1"
     objecttolerance="10"
     gridtolerance="10"
     guidetolerance="10"
     inkscape:pageopacity="0"
     inkscape:pageshadow="2"
     inkscape:window-width="1280"
     inkscape:window-height="1004"
     id="namedview58"
     showgrid="false"
     fit-margin-top="0"
     fit-margin-left="0"
     fit-margin-right="0"
     fit-margin-bottom="0"
     inkscape:zoom="4.8826954"
     inkscape:cx="83.159137"
     inkscape:cy="32.525196"
     inkscape:window-x="-8"
     inkscape:window-y="-8"
     inkscape:window-maximized="1"
     inkscape:current-layer="svg2"
     showguides="true"
     inkscape:guide-bbox="true" />
  <polygon
     points="315,545 235,375 315,205 395,375 "
     id="polygon10"
     style="fill:none;stroke:#ffffff;stroke-width:40"
     transform="translate(17744.427,14390.473)" />
  <!-- draw the bicycle -->
  <!-- RIGHT -->
  <!-- LANE -->
  <!-- ONLY -->
  <path
     inkscape:connector-curvature="0"
     d="m 22.004643,254.8459 211.663127,0 c 5.57392,0 11.02432,-2.2577 14.97189,-6.2088 3.94053,-3.937 6.1948,-9.3839 6.1948,-14.9578 l 0,-211.6632 c 0,-5.5738 -2.25426,-11.0207 -6.1948,-14.9718 -3.94757,-3.937 -9.39797,-6.1948 -14.97189,-6.1948 l -211.663127,0 c -5.57036,0 -11.02077,2.2578 -14.9577696,6.1948 -3.94759,3.9511 -6.20888999,9.398 -6.20888999,14.9718 l 0,211.6632 c 0,7.2566 3.85232999,14.1111 9.96243959,18.0058 3.48545,2.2154 7.16845,2.7375 11.20422,3.1608"
     style="fill:#ffffff;fill-opacity:1;fill-rule:nonzero;stroke:#000000;stroke-width:1.69333339;stroke-miterlimit:4;stroke-opacity:1;stroke-dasharray:none"
     id="path3026" />
  <path
     inkscape:connector-curvature="0"
     d="m 22.004643,249.5543 c -3.15383,0 -5.80672,-0.7091 -8.36083,-2.3284 -4.6249196,-2.9421 -7.5141696,-8.1385 -7.5141696,-13.5466 l 0,-211.6632 c 0,-4.1733 1.69334,-8.2691 4.6566696,-11.2324 2.94217,-2.9422 7.0485,-4.6426 11.21833,-4.6426 l 211.663127,0 c 4.18397,0 8.29028,1.6898 11.23245,4.6426 2.95277,2.9422 4.64255,7.0485 4.64255,11.2324 l 0,211.6632 c 0,4.1698 -1.70035,8.2761 -4.64255,11.2183 -2.96333,2.9633 -7.05555,4.6567 -11.23245,4.6567 l -211.663127,0 z"
     style="fill:#713907;fill-opacity:1;fill-rule:evenodd;stroke:none"
     id="path3050" />
  <path
     d="m 61.619675,62.185001 39.849775,10.844389 22.11917,-15.342305 7.6835,1.866194 -21.88986,15.377584 120.75583,33.122307 -8.83356,32.4238 -121.20386,-33.03764 C 53.114202,93.486973 61.686702,62.163835 61.686702,62.163835"
     style="fill:#ffffff;fill-opacity:1;fill-rule:nonzero;stroke:none"
     id="path11556"
     inkscape:connector-curvature="0" />
  <path
     d="m 166.35587,140.07163 c -0.13053,-2.70228 -0.66675,-5.29167 -1.53106,-7.7223 l 54.66292,15.21177 -1.76389,6.71689 -51.36797,-14.20636 z"
     style="fill:#ffffff;fill-opacity:1;fill-rule:nonzero;stroke:none"
     id="path11560"
     inkscape:connector-curvature="0" />
  <path
     d="m 116.74826,126.37398 c 1.4605,-2.15548 3.21027,-4.09928 5.207,-5.75381 l -91.171891,-25.163638 0,7.242528 85.964891,23.67492 z"
     style="fill:#ffffff;fill-opacity:1;fill-rule:nonzero;stroke:none"
     id="path11564"
     inkscape:connector-curvature="0" />
  <path
     d="m 228.27189,204.77742 c -4.31447,0 -8.45608,-0.97014 -12.14966,-2.63172 -3.79589,-1.75684 -8.05392,-2.79047 -12.5095,-2.79047 -4.445,0 -8.7242,1.03363 -12.50597,2.79047 -3.69359,1.66158 -7.84225,2.63172 -12.14967,2.63172 -4.31094,0 -8.45256,-0.97014 -12.15319,-2.63172 -3.78178,-1.75684 -8.05392,-2.79047 -12.50598,-2.79047 -4.45205,0 -8.71714,1.03363 -12.51302,2.79047 -3.69359,1.66158 -7.83167,2.63172 -12.13909,2.63172 -4.31447,0 -8.45608,-0.97014 -12.15672,-2.63172 -3.78883,-1.75684 -8.05392,-2.79047 -12.50244,-2.79047 -4.445,0 -8.724198,1.03363 -12.520087,2.79047 -3.686528,1.66158 -7.835194,2.63172 -12.135555,2.63172 -4.310945,0 -8.459611,-0.97014 -12.153195,-2.63172 -3.788833,-1.75684 -8.053916,-2.79047 -12.505972,-2.79047 -4.452055,0 -8.717138,1.03363 -12.513027,2.79047 -3.693584,1.66158 -7.835195,2.63172 -12.146139,2.63172 l -0.254,-72.37588 99.666775,27.47432 c -6.858,-3.30905 -11.63108,-10.26935 -11.63108,-18.39735 0,-11.31358 9.17575,-20.47875 20.48228,-20.47875 11.31358,0 20.47875,9.16517 20.47875,20.47875 0,11.31358 -9.16517,20.48227 -20.47875,20.48227 -0.68792,0 -1.34409,-0.13758 -2.02495,-0.19755 l 90.86144,25.03663 0.15875,17.97756 z m -88.99524,-54.4195 c 4.90008,0 8.87588,-3.96875 8.87588,-8.87941 0,-4.90009 -3.9758,-8.88295 -8.87588,-8.88295 -4.90362,0 -8.87942,3.98286 -8.87942,8.88295 0,4.91066 3.9758,8.87941 8.87942,8.87941"
     style="fill:#ffffff;fill-opacity:1;fill-rule:nonzero;stroke:none"
     id="path11568"
     inkscape:connector-curvature="0" />
</svg>
