<?xml version="1.0" encoding="UTF-8" standalone="no"?>
<svg
   xmlns:dc="http://purl.org/dc/elements/1.1/"
   xmlns:cc="http://creativecommons.org/ns#"
   xmlns:rdf="http://www.w3.org/1999/02/22-rdf-syntax-ns#"
   xmlns:svg="http://www.w3.org/2000/svg"
   xmlns="http://www.w3.org/2000/svg"
   xmlns:sodipodi="http://sodipodi.sourceforge.net/DTD/sodipodi-0.dtd"
   xmlns:inkscape="http://www.inkscape.org/namespaces/inkscape"
   width="90.597931"
   height="90.597931"
   viewBox="0 0 255.68748 255.68749"
   version="1.1"
   id="svg2"
   inkscape:version="0.48.2 r9819"
   sodipodi:docname="MUTCD RS-081.svg">
  <metadata
     id="metadata62">
    <rdf:RDF>
      <cc:Work
         rdf:about="">
        <dc:format>image/svg+xml</dc:format>
        <dc:type
           rdf:resource="http://purl.org/dc/dcmitype/StillImage" />
        <dc:title></dc:title>
      </cc:Work>
    </rdf:RDF>
  </metadata>
  <defs
     id="defs60">
    <clipPath
       clipPathUnits="userSpaceOnUse"
       id="clipPath3564">
      <path
         inkscape:connector-curvature="0"
         d="m 63,43 512.622,0 0,313.129 L 63,356.129 63,43 z"
         id="path3566" />
    </clipPath>
  </defs>
  <sodipodi:namedview
     pagecolor="#ffffff"
     bordercolor="#666666"
     borderopacity="1"
     objecttolerance="10"
     gridtolerance="10"
     guidetolerance="10"
     inkscape:pageopacity="0"
     inkscape:pageshadow="2"
     inkscape:window-width="1280"
     inkscape:window-height="1004"
     id="namedview58"
     showgrid="false"
     fit-margin-top="0"
     fit-margin-left="0"
     fit-margin-right="0"
     fit-margin-bottom="0"
     inkscape:zoom="4.8826954"
     inkscape:cx="83.159137"
     inkscape:cy="32.525196"
     inkscape:window-x="-8"
     inkscape:window-y="-8"
     inkscape:window-maximized="1"
     inkscape:current-layer="svg2"
     showguides="true"
     inkscape:guide-bbox="true" />
  <polygon
     points="315,545 235,375 315,205 395,375 "
     id="polygon10"
     style="fill:none;stroke:#ffffff;stroke-width:40"
     transform="translate(17744.427,14390.473)" />
  <!-- draw the bicycle -->
  <!-- RIGHT -->
  <!-- LANE -->
  <!-- ONLY -->
  <path
     inkscape:connector-curvature="0"
     d="m 22.004643,254.8459 211.663127,0 c 5.57392,0 11.02432,-2.2577 14.97189,-6.2088 3.94053,-3.937 6.1948,-9.3839 6.1948,-14.9578 l 0,-211.6632 c 0,-5.5738 -2.25426,-11.0207 -6.1948,-14.9718 -3.94757,-3.937 -9.39797,-6.1948 -14.97189,-6.1948 l -211.663127,0 c -5.57036,0 -11.02077,2.2578 -14.9577696,6.1948 -3.94759,3.9511 -6.20888999,9.398 -6.20888999,14.9718 l 0,211.6632 c 0,7.2566 3.85232999,14.1111 9.96243959,18.0058 3.48545,2.2154 7.16845,2.7375 11.20422,3.1608"
     style="fill:#ffffff;fill-opacity:1;fill-rule:nonzero;stroke:#000000;stroke-width:1.69333339;stroke-miterlimit:4;stroke-opacity:1;stroke-dasharray:none"
     id="path3026" />
  <path
     inkscape:connector-curvature="0"
     d="m 22.004643,249.5543 c -3.15383,0 -5.80672,-0.7091 -8.36083,-2.3284 -4.6249196,-2.9421 -7.5141696,-8.1385 -7.5141696,-13.5466 l 0,-211.6632 c 0,-4.1733 1.69334,-8.2691 4.6566696,-11.2324 2.94217,-2.9422 7.0485,-4.6426 11.21833,-4.6426 l 211.663127,0 c 4.18397,0 8.29028,1.6898 11.23245,4.6426 2.95277,2.9422 4.64255,7.0485 4.64255,11.2324 l 0,211.6632 c 0,4.1698 -1.70035,8.2761 -4.64255,11.2183 -2.96333,2.9633 -7.05555,4.6567 -11.23245,4.6567 l -211.663127,0 z"
     style="fill:#713907;fill-opacity:1;fill-rule:evenodd;stroke:none"
     id="path3050" />
  <path
     d="m 52.599865,113.3593 c -0.896056,1.84503 -1.552223,3.8488 -1.880306,5.98664 -0.165805,1.10066 -0.243416,2.20486 -0.243416,3.28083 l 0.779638,49.4912 -17.067388,36.81236 c -0.627944,1.1183 -1.04775,2.36361 -1.245305,3.69358 -0.924278,6.07836 3.252611,11.7475 9.313332,12.66472 4.748389,0.7232 9.246306,-1.66511 11.426472,-5.64091 l 18.792474,-40.27311 c 0.419805,-0.92428 0.716139,-1.91559 0.867833,-2.96334 0.08819,-0.52564 0.130528,-1.04069 0.130528,-1.55222 l -0.144639,-30.61053 28.888972,12.6365 4.68489,29.9085 c 0.95955,4.35328 4.51555,7.87047 9.17928,8.58661 6.07836,0.9137 11.7475,-3.25966 12.66472,-9.33802 0.15875,-1.02659 0.17286,-2.05317 0.0353,-3.04448 l -5.67972,-36.05741 c -0.6597,-3.52073 -2.98803,-6.52286 -6.24064,-8.0257 l -25.844504,-11.50056 16.471194,-28.634967 8.15975,10.368137 c 0.84667,0.9525 1.90853,1.72508 3.14325,2.22603 l 31.10795,9.08755 c 4.07811,0.88195 8.33614,-1.27352 9.9695,-5.28461 1.81328,-4.49086 -0.34925,-9.5885 -4.83658,-11.41589 -0.14464,-0.0564 -0.28928,-0.1023 -0.42687,-0.15875 L 127.56162,95.649854 107.2275,71.258799 C 104.21125,67.992076 100.13314,65.691965 95.398865,64.975826 87.13681,63.719938 79.280449,67.667521 75.163532,74.35266 L 52.599865,113.3593 z"
     style="fill:#ffffff;fill-opacity:1;fill-rule:nonzero;stroke:none"
     id="path8046"
     inkscape:connector-curvature="0" />
  <path
     d="m 138.04864,181.82606 -1.98613,14.82019 -49.716981,15.5575 0.508,9.17222 130.467811,0.007 c 4.60728,0 8.34319,-3.74297 8.34319,-8.35731 l -0.18697,-175.838492 -17.82939,-4.176889 -10.27641,46.228 -20.90209,7.228417 -15.23647,42.629664 18.19275,32.58256 -4.07458,12.53419 -37.30273,7.61295 z"
     style="fill:#ffffff;fill-opacity:1;fill-rule:nonzero;stroke:none"
     id="path8050"
     inkscape:connector-curvature="0" />
  <path
     d="m 105.47843,62.778021 c 9.17222,0 16.63347,-7.450667 16.63347,-16.626416 0,-9.186334 -7.46125,-16.640528 -16.63347,-16.640528 -9.189859,0 -16.626414,7.454194 -16.626414,16.640528 0,9.175749 7.436555,16.626416 16.626414,16.626416"
     style="fill:#ffffff;fill-opacity:1;fill-rule:nonzero;stroke:none"
     id="path8054"
     inkscape:connector-curvature="0" />
  <path
     d="m 72.31591,65.395632 c 1.308806,-2.282472 0.536222,-5.189361 -1.728611,-6.498167 L 62.50516,54.226688 C 60.222688,52.910827 57.301687,53.68341 55.989354,55.948243 L 31.143215,98.828381 c -1.30175,2.264829 -0.543277,5.178779 1.735667,6.487579 l 8.103305,4.67431 c 2.261306,1.32292 5.154083,0.53622 6.491111,-1.72508 L 72.31591,65.395632 z"
     style="fill:#ffffff;fill-opacity:1;fill-rule:nonzero;stroke:none"
     id="path8058"
     inkscape:connector-curvature="0" />
</svg>
