<?xml version="1.0" encoding="UTF-8" standalone="no"?>
<svg
   xmlns:dc="http://purl.org/dc/elements/1.1/"
   xmlns:cc="http://creativecommons.org/ns#"
   xmlns:rdf="http://www.w3.org/1999/02/22-rdf-syntax-ns#"
   xmlns:svg="http://www.w3.org/2000/svg"
   xmlns="http://www.w3.org/2000/svg"
   xmlns:sodipodi="http://sodipodi.sourceforge.net/DTD/sodipodi-0.dtd"
   xmlns:inkscape="http://www.inkscape.org/namespaces/inkscape"
   width="90.597931"
   height="90.597931"
   viewBox="0 0 255.68748 255.68749"
   version="1.1"
   id="svg2"
   inkscape:version="0.48.2 r9819"
   sodipodi:docname="MUTCD RS-067.svg">
  <metadata
     id="metadata62">
    <rdf:RDF>
      <cc:Work
         rdf:about="">
        <dc:format>image/svg+xml</dc:format>
        <dc:type
           rdf:resource="http://purl.org/dc/dcmitype/StillImage" />
        <dc:title></dc:title>
      </cc:Work>
    </rdf:RDF>
  </metadata>
  <defs
     id="defs60">
    <clipPath
       clipPathUnits="userSpaceOnUse"
       id="clipPath3564">
      <path
         inkscape:connector-curvature="0"
         d="m 63,43 512.622,0 0,313.129 L 63,356.129 63,43 z"
         id="path3566" />
    </clipPath>
  </defs>
  <sodipodi:namedview
     pagecolor="#ffffff"
     bordercolor="#666666"
     borderopacity="1"
     objecttolerance="10"
     gridtolerance="10"
     guidetolerance="10"
     inkscape:pageopacity="0"
     inkscape:pageshadow="2"
     inkscape:window-width="1280"
     inkscape:window-height="1004"
     id="namedview58"
     showgrid="false"
     fit-margin-top="0"
     fit-margin-left="0"
     fit-margin-right="0"
     fit-margin-bottom="0"
     inkscape:zoom="4.8826954"
     inkscape:cx="83.159137"
     inkscape:cy="32.525196"
     inkscape:window-x="-8"
     inkscape:window-y="-8"
     inkscape:window-maximized="1"
     inkscape:current-layer="svg2"
     showguides="true"
     inkscape:guide-bbox="true" />
  <polygon
     points="315,545 235,375 315,205 395,375 "
     id="polygon10"
     style="fill:none;stroke:#ffffff;stroke-width:40"
     transform="translate(17744.427,14390.473)" />
  <!-- draw the bicycle -->
  <!-- RIGHT -->
  <!-- LANE -->
  <!-- ONLY -->
  <path
     inkscape:connector-curvature="0"
     d="m 22.004643,254.8459 211.663127,0 c 5.57392,0 11.02432,-2.2577 14.97189,-6.2088 3.94053,-3.937 6.1948,-9.3839 6.1948,-14.9578 l 0,-211.6632 c 0,-5.5738 -2.25426,-11.0207 -6.1948,-14.9718 -3.94757,-3.937 -9.39797,-6.1948 -14.97189,-6.1948 l -211.663127,0 c -5.57036,0 -11.02077,2.2578 -14.9577696,6.1948 -3.94759,3.9511 -6.20888999,9.398 -6.20888999,14.9718 l 0,211.6632 c 0,7.2566 3.85232999,14.1111 9.96243959,18.0058 3.48545,2.2154 7.16845,2.7375 11.20422,3.1608"
     style="fill:#ffffff;fill-opacity:1;fill-rule:nonzero;stroke:#000000;stroke-width:1.69333339;stroke-miterlimit:4;stroke-opacity:1;stroke-dasharray:none"
     id="path3026" />
  <path
     inkscape:connector-curvature="0"
     d="m 22.004643,249.5543 c -3.15383,0 -5.80672,-0.7091 -8.36083,-2.3284 -4.6249196,-2.9421 -7.5141696,-8.1385 -7.5141696,-13.5466 l 0,-211.6632 c 0,-4.1733 1.69334,-8.2691 4.6566696,-11.2324 2.94217,-2.9422 7.0485,-4.6426 11.21833,-4.6426 l 211.663127,0 c 4.18397,0 8.29028,1.6898 11.23245,4.6426 2.95277,2.9422 4.64255,7.0485 4.64255,11.2324 l 0,211.6632 c 0,4.1698 -1.70035,8.2761 -4.64255,11.2183 -2.96333,2.9633 -7.05555,4.6567 -11.23245,4.6567 l -211.663127,0 z"
     style="fill:#713907;fill-opacity:1;fill-rule:evenodd;stroke:none"
     id="path3050" />
  <path
     d="m 130.65865,55.315712 c 9.19339,0 16.63347,-7.440083 16.63347,-16.633472 0,-9.175749 -7.44008,-16.626416 -16.63347,-16.626416 -9.1828,0 -16.63347,7.450667 -16.63347,16.626416 0,9.193389 7.45067,16.633472 16.63347,16.633472"
     style="fill:#ffffff;fill-opacity:1;fill-rule:nonzero;stroke:none"
     id="path7836"
     inkscape:connector-curvature="0" />
  <path
     d="m 105.07485,58.06491 c 0.62795,-2.543528 -0.94897,-5.11175 -3.49955,-5.732639 L 87.725243,48.991465 c -2.554111,-0.620889 -5.118806,0.948972 -5.732639,3.499556 L 70.361521,100.6593 c -0.617361,2.55058 0.959556,5.1188 3.503083,5.73264 l 13.860639,3.34786 c 2.550583,0.61383 5.115278,-0.95603 5.739694,-3.50661 L 105.07485,58.06491 z"
     style="fill:#ffffff;fill-opacity:1;fill-rule:nonzero;stroke:none"
     id="path7840"
     inkscape:connector-curvature="0" />
  <path
     d="m 162.72615,229.42353 c 0,0.0882 -0.0212,0.17286 -0.0212,0.254 0,2.10256 1.71803,3.80295 3.79589,3.80295 1.93675,0 3.54894,-1.45345 3.7853,-3.33375 l 27.9259,-151.327551 c 0.0141,-0.08467 0.0141,-0.172861 0.0141,-0.250473 0,-2.106083 -1.69686,-3.809999 -3.79942,-3.809999 -1.93322,0 -3.40783,1.502833 -3.76766,3.340805 L 162.72615,229.42353 z"
     style="fill:#ffffff;fill-opacity:1;fill-rule:nonzero;stroke:none"
     id="path7844"
     inkscape:connector-curvature="0" />
  <path
     d="m 73.734076,219.50871 c -0.165805,0.75848 -0.243416,1.5487 -0.243416,2.3495 0,6.45584 5.231694,11.69106 11.694583,11.69106 5.298722,0 9.782528,-3.53131 11.20775,-8.382 l 20.108337,-83.12503 19.11702,82.65584 c 1.27,5.08352 5.85259,8.85119 11.33475,8.85119 6.46289,0 11.68753,-5.23522 11.68753,-11.69106 0,-0.88194 -0.1023,-1.73566 -0.28222,-2.55763 l -26.25372,-109.83383 2.20486,-9.676697 1.69686,7.641167 c 1.61219,4.95653 6.12422,5.42572 6.12422,5.42572 l 27.07217,6.89681 c 0.51505,0.10936 1.05481,0.1658 1.60514,0.1658 4.42383,0 8.001,-3.57716 8.001,-8.001 0,-3.78177 -2.61408,-6.94619 -6.14186,-7.7858 l -23.41739,-5.87728 -6.44878,-26.119666 c -3.05506,-14.601472 -16.9792,-14.25575 -16.9792,-14.25575 -13.56783,-0.345722 -16.96155,13.910028 -16.96155,13.910028 L 73.734076,219.50871 z"
     style="fill:#ffffff;fill-opacity:1;fill-rule:nonzero;stroke:none"
     id="path7848"
     inkscape:connector-curvature="0" />
</svg>
