<?xml version="1.0" encoding="UTF-8" standalone="no"?>
<svg
   xmlns:dc="http://purl.org/dc/elements/1.1/"
   xmlns:cc="http://creativecommons.org/ns#"
   xmlns:rdf="http://www.w3.org/1999/02/22-rdf-syntax-ns#"
   xmlns:svg="http://www.w3.org/2000/svg"
   xmlns="http://www.w3.org/2000/svg"
   xmlns:sodipodi="http://sodipodi.sourceforge.net/DTD/sodipodi-0.dtd"
   xmlns:inkscape="http://www.inkscape.org/namespaces/inkscape"
   width="90.597931"
   height="90.597931"
   viewBox="0 0 255.68748 255.68749"
   version="1.1"
   id="svg2"
   inkscape:version="0.48.2 r9819"
   sodipodi:docname="MUTCD RS-011.svg">
  <metadata
     id="metadata62">
    <rdf:RDF>
      <cc:Work
         rdf:about="">
        <dc:format>image/svg+xml</dc:format>
        <dc:type
           rdf:resource="http://purl.org/dc/dcmitype/StillImage" />
        <dc:title></dc:title>
      </cc:Work>
    </rdf:RDF>
  </metadata>
  <defs
     id="defs60">
    <clipPath
       clipPathUnits="userSpaceOnUse"
       id="clipPath3564">
      <path
         inkscape:connector-curvature="0"
         d="m 63,43 512.622,0 0,313.129 L 63,356.129 63,43 z"
         id="path3566" />
    </clipPath>
  </defs>
  <sodipodi:namedview
     pagecolor="#ffffff"
     bordercolor="#666666"
     borderopacity="1"
     objecttolerance="10"
     gridtolerance="10"
     guidetolerance="10"
     inkscape:pageopacity="0"
     inkscape:pageshadow="2"
     inkscape:window-width="1280"
     inkscape:window-height="1004"
     id="namedview58"
     showgrid="false"
     fit-margin-top="0"
     fit-margin-left="0"
     fit-margin-right="0"
     fit-margin-bottom="0"
     inkscape:zoom="4"
     inkscape:cx="48.704041"
     inkscape:cy="35.520564"
     inkscape:window-x="-8"
     inkscape:window-y="-8"
     inkscape:window-maximized="1"
     inkscape:current-layer="svg2"
     showguides="true"
     inkscape:guide-bbox="true" />
  <polygon
     points="235,375 315,205 395,375 315,545 "
     id="polygon10"
     style="fill:none;stroke:#ffffff;stroke-width:40"
     transform="translate(17618.396,14343.442)" />
  <!-- draw the bicycle -->
  <!-- RIGHT -->
  <!-- LANE -->
  <!-- ONLY -->
  <path
     inkscape:connector-curvature="0"
     d="m 22.008538,254.83715 211.663112,0 c 5.57389,0 11.02432,-2.2578 14.97188,-6.2089 3.94054,-3.937 6.19479,-9.3839 6.19479,-14.9578 l 0,-211.6667 c 0,-5.5738 -2.25425,-11.0207 -6.19479,-14.9718 -3.94756,-3.937 -9.39799,-6.1948 -14.97188,-6.1948 l -211.663112,0 c -5.57036,0 -11.02078,2.2578 -14.9577796,6.1948 -3.94758,3.9511 -6.20888999,9.398 -6.20888999,14.9718 l 0,211.6667 c 0,7.2531 3.85232999,14.1111 9.96244959,18.0058 3.48897,2.2154 7.16844,2.734 11.20422,3.1609"
     style="fill:#ffffff;fill-opacity:1;fill-rule:nonzero;stroke:#000000;stroke-width:1.69333331;stroke-miterlimit:4;stroke-opacity:1;stroke-dasharray:none"
     id="path3060" />
  <path
     inkscape:connector-curvature="0"
     d="m 22.008538,249.54545 c -3.15384,0 -5.80672,-0.7126 -8.36084,-2.3319 -4.6249096,-2.9421 -7.5141596,-8.135 -7.5141596,-13.5431 l 0,-211.6667 c 0,-4.1698 1.69333,-8.2655 4.6566596,-11.2289 2.94217,-2.9421 7.0485,-4.6461 11.21834,-4.6461 l 211.663112,0 c 4.18394,0 8.29028,1.6934 11.23244,4.6461 2.95628,2.9422 4.64256,7.0485 4.64256,11.2289 l 0,211.6667 c 0,4.1663 -1.70038,8.2726 -4.64256,11.2148 -2.96333,2.9669 -7.05554,4.6602 -11.23244,4.6602 l -211.663112,0 z"
     style="fill:#713907;fill-opacity:1;fill-rule:evenodd;stroke:none"
     id="path3084" />
  <path
     d="m 44.965755,139.12264 c -3.390194,-5.03061 -5.559777,-10.90083 -6.297083,-17.30375 -0.73025,0.19403 -1.407583,0.30339 -2.197805,0.30339 -5.0165,0 -9.076972,-4.05694 -9.076972,-9.07344 0,-3.12914 1.5875,-5.89139 4.004027,-7.52475 l 25.9715,-18.037528 c 5.482166,-3.347861 11.863916,-5.390444 18.697222,-5.672667 l 64.533636,0.194028 47.13111,-7.475361 c -0.0212,-0.246944 -0.0353,-0.504472 -0.0353,-0.751417 0,-4.713111 3.81706,-8.530166 8.53017,-8.530166 4.70605,0 8.51605,3.817055 8.51605,8.530166 0,0.751417 -0.0952,1.495778 -0.28222,2.190751 l 4.3815,0.620888 c 5.05883,0.98425 8.88295,5.443361 8.88295,10.795 0,0.3175 -0.0141,0.635 -0.0423,0.945445 l 13.97353,7.531805 c 2.05317,0.797278 3.50661,2.797528 3.50661,5.132916 0,0.75847 -0.15169,1.48167 -0.43392,2.14136 l -3.47838,7.91633 c -1.7392,2.79753 -4.68842,4.7625 -8.11742,5.14703 l -32.1557,3.85234 -28.97363,34.02541 16.52763,28.57853 10.89378,5.03767 c 1.74978,1.18533 2.89984,3.18911 2.89984,5.45747 0,3.65125 -2.95628,6.60047 -6.60048,6.60047 l -21.00086,0.0353 c -5.3728,0 -10.04358,-3.02683 -12.39661,-7.46125 l -17.93169,-32.42028 -40.453026,0.0564 14.276916,21.99922 10.56217,4.82247 c 1.93675,1.15006 3.23144,3.26672 3.23144,5.67972 0,3.6442 -2.95628,6.60047 -6.59342,6.60047 l -21.004384,0.0317 c -5.132917,0 -9.623778,-2.75519 -12.068528,-6.88269 l -19.720277,-31.28786 -13.712472,13.37381 -1.164167,8.74536 4.642556,3.01625 c 0.758472,0.39863 1.449916,0.95955 2.021416,1.66863 2.300111,2.82575 1.866195,6.97795 -0.966611,9.28159 -1.23825,1.01247 -2.748139,1.49578 -4.236861,1.47461 l -9.196917,0.007 c -2.585861,-0.26458 -4.850694,-1.61219 -6.332361,-3.59127 L 22.888922,176.35481 c -1.033638,-1.95086 -1.612194,-4.1663 -1.612194,-6.52991 0,-3.59128 1.351139,-6.86506 3.577167,-9.34509 l 20.11186,-21.35717 z"
     style="fill:#ffffff;fill-opacity:1;fill-rule:nonzero;stroke:none"
     id="path3386"
     inkscape:connector-curvature="0" />
</svg>
