<?xml version="1.0" encoding="UTF-8" standalone="no"?>
<svg
   xmlns:dc="http://purl.org/dc/elements/1.1/"
   xmlns:cc="http://creativecommons.org/ns#"
   xmlns:rdf="http://www.w3.org/1999/02/22-rdf-syntax-ns#"
   xmlns:svg="http://www.w3.org/2000/svg"
   xmlns="http://www.w3.org/2000/svg"
   xmlns:sodipodi="http://sodipodi.sourceforge.net/DTD/sodipodi-0.dtd"
   xmlns:inkscape="http://www.inkscape.org/namespaces/inkscape"
   width="90.597931"
   height="90.597931"
   viewBox="0 0 255.68748 255.68749"
   version="1.1"
   id="svg2"
   inkscape:version="0.48.2 r9819"
   sodipodi:docname="AJAX1.svg">
  <metadata
     id="metadata62">
    <rdf:RDF>
      <cc:Work
         rdf:about="">
        <dc:format>image/svg+xml</dc:format>
        <dc:type
           rdf:resource="http://purl.org/dc/dcmitype/StillImage" />
        <dc:title></dc:title>
      </cc:Work>
    </rdf:RDF>
  </metadata>
  <defs
     id="defs60">
    <clipPath
       clipPathUnits="userSpaceOnUse"
       id="clipPath3564">
      <path
         inkscape:connector-curvature="0"
         d="m 63,43 512.622,0 0,313.129 L 63,356.129 63,43 z"
         id="path3566" />
    </clipPath>
  </defs>
  <sodipodi:namedview
     pagecolor="#ffffff"
     bordercolor="#666666"
     borderopacity="1"
     objecttolerance="10"
     gridtolerance="10"
     guidetolerance="10"
     inkscape:pageopacity="0"
     inkscape:pageshadow="2"
     inkscape:window-width="1280"
     inkscape:window-height="1004"
     id="namedview58"
     showgrid="false"
     fit-margin-top="0"
     fit-margin-left="0"
     fit-margin-right="0"
     fit-margin-bottom="0"
     inkscape:zoom="4"
     inkscape:cx="9.7040412"
     inkscape:cy="35.520564"
     inkscape:window-x="-8"
     inkscape:window-y="-8"
     inkscape:window-maximized="1"
     inkscape:current-layer="svg2"
     showguides="true"
     inkscape:guide-bbox="true" />
  <polygon
     points="235,375 315,205 395,375 315,545 "
     id="polygon10"
     style="fill:none;stroke:#ffffff;stroke-width:40"
     transform="translate(17618.396,14343.442)" />
  <!-- draw the bicycle -->
  <!-- RIGHT -->
  <!-- LANE -->
  <!-- ONLY -->
  <path
     inkscape:connector-curvature="0"
     d="m 22.008538,254.83715 211.663112,0 c 5.57389,0 11.02432,-2.2578 14.97188,-6.2089 3.94054,-3.937 6.19479,-9.3839 6.19479,-14.9578 l 0,-211.6667 c 0,-5.5738 -2.25425,-11.0207 -6.19479,-14.9718 -3.94756,-3.937 -9.39799,-6.1948 -14.97188,-6.1948 l -211.663112,0 c -5.57036,0 -11.02078,2.2578 -14.9577796,6.1948 -3.94758,3.9511 -6.20888999,9.398 -6.20888999,14.9718 l 0,211.6667 c 0,7.2531 3.85232999,14.1111 9.96244959,18.0058 3.48897,2.2154 7.16844,2.734 11.20422,3.1609"
     style="fill:#ffffff;fill-opacity:1;fill-rule:nonzero;stroke:#000000;stroke-width:1.69333331;stroke-miterlimit:4;stroke-opacity:1;stroke-dasharray:none"
     id="path3060" />
  <path
     inkscape:connector-curvature="0"
     d="m 22.008538,249.54545 c -3.15384,0 -5.80672,-0.7126 -8.36084,-2.3319 -4.6249096,-2.9421 -7.5141596,-8.135 -7.5141596,-13.5431 l 0,-211.6667 c 0,-4.1698 1.69333,-8.2655 4.6566596,-11.2289 2.94217,-2.9421 7.0485,-4.6461 11.21834,-4.6461 l 211.663112,0 c 4.18394,0 8.29028,1.6934 11.23244,4.6461 2.95628,2.9422 4.64256,7.0485 4.64256,11.2289 l 0,211.6667 c 0,4.1663 -1.70038,8.2726 -4.64256,11.2148 -2.96333,2.9669 -7.05554,4.6602 -11.23244,4.6602 l -211.663112,0 z"
     style="fill:#713907;fill-opacity:1;fill-rule:evenodd;stroke:none"
     id="path3084" />
  <path
     inkscape:connector-curvature="0"
     d="m 36.720778,171.62355 152.876232,0 0,27.051 -152.876232,0 0,-27.051 z"
     style="fill:#ffffff;fill-opacity:1;fill-rule:nonzero;stroke:none"
     id="path3086" />
  <path
     inkscape:connector-curvature="0"
     d="m 196.7831,171.72585 7.71879,0 0,26.9734 -7.71879,0 0,-26.9734 z"
     style="fill:#ffffff;fill-opacity:1;fill-rule:nonzero;stroke:none"
     id="path3088" />
  <path
     inkscape:connector-curvature="0"
     d="m 211.24346,171.72585 7.71879,0 0,26.9734 -7.71879,0 0,-26.9734 z"
     style="fill:#ffffff;fill-opacity:1;fill-rule:nonzero;stroke:none"
     id="path3090" />
  <path
     inkscape:connector-curvature="0"
     d="m 157.80401,137.47505 c -11.65929,0 -21.11021,-9.4474 -21.11021,-21.0961 0,-2.1943 0.34924,-4.3215 0.96308,-6.3077 -14.42862,-0.261 -26.02442,-12.065 -26.02442,-26.5606 0,-14.5521 11.71222,-26.3737 26.23961,-26.5324 l 0,7.6341 c -10.30111,0.1587 -18.61256,8.5548 -18.61256,18.8983 0,10.4457 8.46314,18.9053 18.90182,18.9053 1.30881,0 2.56822,-0.1375 3.79589,-0.3915 0.34217,-0.081 0.69497,-0.1376 1.06889,-0.1376 2.46594,0 4.46265,2.0037 4.46265,4.4732 0,0.9207 -0.3034,1.7956 -0.78319,2.5082 -1.44285,2.1414 -2.31067,4.7237 -2.31067,7.5107 0,7.3977 6.00074,13.3985 13.40907,13.3985 l 27.70717,-0.01 c 10.4775,0 18.96533,8.4984 18.96533,18.9759 l 0.0212,15.1448 -7.71525,0 0,-15.1448 c 0,-6.2265 -5.05179,-11.2712 -11.27126,-11.2712 l -27.70716,0 z"
     style="fill:#ffffff;fill-opacity:1;fill-rule:nonzero;stroke:none"
     id="path3094" />
  <path
     inkscape:connector-curvature="0"
     d="m 163.96384,108.12285 c 2.81164,-3.6795 4.49086,-8.2409 4.49086,-13.2362 0,-12.0721 -9.78958,-21.8546 -21.86165,-21.8546 l -1.70038,-0.014 0,-7.7188 1.70038,0.028 c 16.32304,0 29.55926,13.2363 29.55926,29.5593 0,4.3815 -0.98426,8.509 -2.69522,12.252 l 5.41514,-0.021 c 22.13328,0 40.07553,17.9422 40.07553,40.072 l 0.0141,16.704 -7.7188,0 0.007,-16.704 c 0,-17.8788 -14.49563,-32.378 -32.37792,-32.378 l -11.27833,-0.018 c -2.38828,0 -4.33211,-1.9579 -4.33211,-4.3497 0,-0.8749 0.26106,-1.6404 0.70205,-2.3213"
     style="fill:#ffffff;fill-opacity:1;fill-rule:nonzero;stroke:none"
     id="path3098" />
</svg>
