<?xml version="1.0" encoding="UTF-8" standalone="no"?>
<svg
   xmlns:dc="http://purl.org/dc/elements/1.1/"
   xmlns:cc="http://creativecommons.org/ns#"
   xmlns:rdf="http://www.w3.org/1999/02/22-rdf-syntax-ns#"
   xmlns:svg="http://www.w3.org/2000/svg"
   xmlns="http://www.w3.org/2000/svg"
   xmlns:sodipodi="http://sodipodi.sourceforge.net/DTD/sodipodi-0.dtd"
   xmlns:inkscape="http://www.inkscape.org/namespaces/inkscape"
   width="90.597931"
   height="90.597931"
   viewBox="0 0 255.68748 255.68749"
   version="1.1"
   id="svg2"
   inkscape:version="0.48.2 r9819"
   sodipodi:docname="MUTCD RS-010.svg">
  <metadata
     id="metadata62">
    <rdf:RDF>
      <cc:Work
         rdf:about="">
        <dc:format>image/svg+xml</dc:format>
        <dc:type
           rdf:resource="http://purl.org/dc/dcmitype/StillImage" />
        <dc:title></dc:title>
      </cc:Work>
    </rdf:RDF>
  </metadata>
  <defs
     id="defs60">
    <clipPath
       clipPathUnits="userSpaceOnUse"
       id="clipPath3564">
      <path
         inkscape:connector-curvature="0"
         d="m 63,43 512.622,0 0,313.129 L 63,356.129 63,43 z"
         id="path3566" />
    </clipPath>
  </defs>
  <sodipodi:namedview
     pagecolor="#ffffff"
     bordercolor="#666666"
     borderopacity="1"
     objecttolerance="10"
     gridtolerance="10"
     guidetolerance="10"
     inkscape:pageopacity="0"
     inkscape:pageshadow="2"
     inkscape:window-width="1280"
     inkscape:window-height="1004"
     id="namedview58"
     showgrid="false"
     fit-margin-top="0"
     fit-margin-left="0"
     fit-margin-right="0"
     fit-margin-bottom="0"
     inkscape:zoom="4.8826954"
     inkscape:cx="83.159137"
     inkscape:cy="32.525196"
     inkscape:window-x="-8"
     inkscape:window-y="-8"
     inkscape:window-maximized="1"
     inkscape:current-layer="svg2"
     showguides="true"
     inkscape:guide-bbox="true" />
  <polygon
     points="315,545 235,375 315,205 395,375 "
     id="polygon10"
     style="fill:none;stroke:#ffffff;stroke-width:40"
     transform="translate(17744.427,14390.473)" />
  <!-- draw the bicycle -->
  <!-- RIGHT -->
  <!-- LANE -->
  <!-- ONLY -->
  <path
     inkscape:connector-curvature="0"
     d="m 22.004643,254.8459 211.663127,0 c 5.57392,0 11.02432,-2.2577 14.97189,-6.2088 3.94053,-3.937 6.1948,-9.3839 6.1948,-14.9578 l 0,-211.6632 c 0,-5.5738 -2.25426,-11.0207 -6.1948,-14.9718 -3.94757,-3.937 -9.39797,-6.1948 -14.97189,-6.1948 l -211.663127,0 c -5.57036,0 -11.02077,2.2578 -14.9577696,6.1948 -3.94759,3.9511 -6.20888999,9.398 -6.20888999,14.9718 l 0,211.6632 c 0,7.2566 3.85232999,14.1111 9.96243959,18.0058 3.48545,2.2154 7.16845,2.7375 11.20422,3.1608"
     style="fill:#ffffff;fill-opacity:1;fill-rule:nonzero;stroke:#000000;stroke-width:1.69333339;stroke-miterlimit:4;stroke-opacity:1;stroke-dasharray:none"
     id="path3026" />
  <path
     inkscape:connector-curvature="0"
     d="m 22.004643,249.5543 c -3.15383,0 -5.80672,-0.7091 -8.36083,-2.3284 -4.6249196,-2.9421 -7.5141696,-8.1385 -7.5141696,-13.5466 l 0,-211.6632 c 0,-4.1733 1.69334,-8.2691 4.6566696,-11.2324 2.94217,-2.9422 7.0485,-4.6426 11.21833,-4.6426 l 211.663127,0 c 4.18397,0 8.29028,1.6898 11.23245,4.6426 2.95277,2.9422 4.64255,7.0485 4.64255,11.2324 l 0,211.6632 c 0,4.1698 -1.70035,8.2761 -4.64255,11.2183 -2.96333,2.9633 -7.05555,4.6567 -11.23245,4.6567 l -211.663127,0 z"
     style="fill:#713907;fill-opacity:1;fill-rule:evenodd;stroke:none"
     id="path3050" />
  <path
     d="m 138.72315,204.25214 c 20.01661,-3.95464 36.30436,-18.29506 43.01067,-37.17925 l -6.93914,-2.31422 c -0.74436,-0.26106 -1.4605,-0.635 -2.13078,-1.12537 -3.56306,-2.63172 -4.318,-7.64116 -1.70039,-11.20422 0.39158,-0.52211 0.81844,-0.97719 1.28058,-1.37583 l 27.6225,-25.85156 c 1.38642,-1.50988 3.36903,-2.44827 5.55272,-2.44827 3.66537,0 6.72042,2.62819 7.40834,6.09952 l 5.96547,37.338 c 0.13758,0.60678 0.22931,1.22767 0.22931,1.8662 0,4.43089 -3.59128,8.02216 -8.01512,8.02216 -0.83255,0 -1.63688,-0.13052 -2.38125,-0.36688 l -6.477,-2.12725 c -10.287,31.369 -39.81802,54.03144 -74.64777,54.03144 -34.819166,0 -64.350193,-22.64833 -74.65836,-54.01381 l -6.448778,2.10962 c -0.74436,0.23636 -1.541638,0.36688 -2.36361,0.36688 -4.437945,0 -8.025695,-3.59127 -8.025695,-8.02216 0,-0.63853 0.07408,-1.25942 0.218722,-1.8662 l 5.976056,-37.338 c 0.66675,-3.47133 3.718278,-6.09952 7.39775,-6.09952 2.204861,0 4.183944,0.93839 5.556249,2.44827 l 27.6225,25.85156 c 0.462139,0.39864 0.896056,0.85372 1.280583,1.37583 2.624667,3.56306 1.859139,8.5725 -1.693333,11.20422 -0.670278,0.49037 -1.386417,0.86431 -2.130778,1.12537 l -6.970888,2.32127 c 6.819194,19.2017 23.734888,33.71145 44.227752,37.37328 l -0.0282,-122.674941 c -9.81075,-4.148667 -16.79928,-13.87475 -16.79928,-25.202444 0,-15.116528 12.25903,-27.361444 27.35439,-27.361444 15.11652,0 27.35438,12.244916 27.35438,27.361444 0,11.320639 -6.78744,21.043194 -16.59819,25.195389 l -0.0494,122.480916 z M 128.01635,64.968418 c 4.64961,0 8.39963,-3.757083 8.39963,-8.392583 0,-4.646083 -3.75002,-8.406694 -8.39963,-8.406694 -4.62845,0 -8.39964,3.760611 -8.39964,8.406694 0,4.6355 3.77119,8.392583 8.39964,8.392583"
     style="fill:#ffffff;fill-opacity:1;fill-rule:nonzero;stroke:none"
     id="path11552"
     inkscape:connector-curvature="0" />
</svg>
