<?xml version="1.0" encoding="UTF-8" standalone="no"?>
<svg
   xmlns:dc="http://purl.org/dc/elements/1.1/"
   xmlns:cc="http://creativecommons.org/ns#"
   xmlns:rdf="http://www.w3.org/1999/02/22-rdf-syntax-ns#"
   xmlns:svg="http://www.w3.org/2000/svg"
   xmlns="http://www.w3.org/2000/svg"
   xmlns:sodipodi="http://sodipodi.sourceforge.net/DTD/sodipodi-0.dtd"
   xmlns:inkscape="http://www.inkscape.org/namespaces/inkscape"
   width="90.597931"
   height="90.597931"
   viewBox="0 0 255.68748 255.68749"
   version="1.1"
   id="svg2"
   inkscape:version="0.48.2 r9819"
   sodipodi:docname="MUTCD RS-056.svg">
  <metadata
     id="metadata62">
    <rdf:RDF>
      <cc:Work
         rdf:about="">
        <dc:format>image/svg+xml</dc:format>
        <dc:type
           rdf:resource="http://purl.org/dc/dcmitype/StillImage" />
        <dc:title></dc:title>
      </cc:Work>
    </rdf:RDF>
  </metadata>
  <defs
     id="defs60">
    <clipPath
       clipPathUnits="userSpaceOnUse"
       id="clipPath3564">
      <path
         inkscape:connector-curvature="0"
         d="m 63,43 512.622,0 0,313.129 L 63,356.129 63,43 z"
         id="path3566" />
    </clipPath>
  </defs>
  <sodipodi:namedview
     pagecolor="#ffffff"
     bordercolor="#666666"
     borderopacity="1"
     objecttolerance="10"
     gridtolerance="10"
     guidetolerance="10"
     inkscape:pageopacity="0"
     inkscape:pageshadow="2"
     inkscape:window-width="1280"
     inkscape:window-height="1004"
     id="namedview58"
     showgrid="false"
     fit-margin-top="0"
     fit-margin-left="0"
     fit-margin-right="0"
     fit-margin-bottom="0"
     inkscape:zoom="4.8826954"
     inkscape:cx="83.159137"
     inkscape:cy="32.525196"
     inkscape:window-x="-8"
     inkscape:window-y="-8"
     inkscape:window-maximized="1"
     inkscape:current-layer="svg2"
     showguides="true"
     inkscape:guide-bbox="true" />
  <polygon
     points="315,545 235,375 315,205 395,375 "
     id="polygon10"
     style="fill:none;stroke:#ffffff;stroke-width:40"
     transform="translate(17744.427,14390.473)" />
  <!-- draw the bicycle -->
  <!-- RIGHT -->
  <!-- LANE -->
  <!-- ONLY -->
  <path
     inkscape:connector-curvature="0"
     d="m 22.004643,254.8459 211.663127,0 c 5.57392,0 11.02432,-2.2577 14.97189,-6.2088 3.94053,-3.937 6.1948,-9.3839 6.1948,-14.9578 l 0,-211.6632 c 0,-5.5738 -2.25426,-11.0207 -6.1948,-14.9718 -3.94757,-3.937 -9.39797,-6.1948 -14.97189,-6.1948 l -211.663127,0 c -5.57036,0 -11.02077,2.2578 -14.9577696,6.1948 -3.94759,3.9511 -6.20888999,9.398 -6.20888999,14.9718 l 0,211.6632 c 0,7.2566 3.85232999,14.1111 9.96243959,18.0058 3.48545,2.2154 7.16845,2.7375 11.20422,3.1608"
     style="fill:#ffffff;fill-opacity:1;fill-rule:nonzero;stroke:#000000;stroke-width:1.69333339;stroke-miterlimit:4;stroke-opacity:1;stroke-dasharray:none"
     id="path3026" />
  <path
     inkscape:connector-curvature="0"
     d="m 22.004643,249.5543 c -3.15383,0 -5.80672,-0.7091 -8.36083,-2.3284 -4.6249196,-2.9421 -7.5141696,-8.1385 -7.5141696,-13.5466 l 0,-211.6632 c 0,-4.1733 1.69334,-8.2691 4.6566696,-11.2324 2.94217,-2.9422 7.0485,-4.6426 11.21833,-4.6426 l 211.663127,0 c 4.18397,0 8.29028,1.6898 11.23245,4.6426 2.95277,2.9422 4.64255,7.0485 4.64255,11.2324 l 0,211.6632 c 0,4.1698 -1.70035,8.2761 -4.64255,11.2183 -2.96333,2.9633 -7.05555,4.6567 -11.23245,4.6567 l -211.663127,0 z"
     style="fill:#713907;fill-opacity:1;fill-rule:evenodd;stroke:none"
     id="path3050" />
  <path
     d="m 156.60159,82.164923 c 10.11414,0 18.30211,-8.184444 18.30211,-18.288 0,-10.107083 -8.18797,-18.291527 -18.30211,-18.291527 -10.09297,0 -18.28447,8.184444 -18.28447,18.291527 0,10.103556 8.1915,18.288 18.28447,18.288"
     style="fill:#ffffff;fill-opacity:1;fill-rule:nonzero;stroke:none"
     id="path11604"
     inkscape:connector-curvature="0" />
  <path
     d="m 228.09554,204.79648 c -4.31448,0 -8.45609,-0.97014 -12.14967,-2.63172 -3.78178,-1.75684 -8.05392,-2.79048 -12.5095,-2.79048 -4.45206,0 -8.72419,1.03364 -12.50597,2.79048 -3.69359,1.66158 -7.8352,2.63172 -12.15672,2.63172 -4.31095,0 -8.45256,-0.97014 -12.14614,-2.63172 -3.78178,-1.75684 -8.06097,-2.79048 -12.51303,-2.79048 -4.45206,0 -8.72419,1.03364 -12.50597,2.79048 -3.69359,1.66158 -7.8352,2.63172 -12.1532,2.63172 -4.30036,0 -8.44197,-0.97014 -12.14967,-2.63172 -3.78177,-1.75684 -8.0398,-2.79048 -12.5095,-2.79048 -4.45205,0 -8.710079,1.03364 -12.491857,2.79048 -3.707694,1.66158 -7.849305,2.63172 -12.156722,2.63172 -4.310944,0 -8.452555,-0.97014 -12.146139,-2.63172 -3.795888,-1.75684 -8.060972,-2.79048 -12.513027,-2.79048 -4.452056,0 -8.710083,1.03364 -12.505972,2.79048 -3.693583,1.66158 -7.835195,2.63172 -12.153194,2.63172 l 0,-18.21039 c 4.317999,0 8.459611,-0.96661 12.153194,-2.62467 3.795889,-1.75683 8.053916,-2.79047 12.505972,-2.79047 4.452055,0 8.717139,1.03364 12.513027,2.79047 3.693584,1.65806 7.835195,2.62467 12.146139,2.62467 4.307417,0 8.449028,-0.96661 12.156722,-2.62467 3.781778,-1.75683 8.039807,-2.79047 12.491857,-2.79047 4.4697,0 8.72773,1.03364 12.5095,2.79047 3.7077,1.65806 7.84931,2.62467 12.14967,2.62467 4.318,0 8.45961,-0.96661 12.1532,-2.62467 3.78178,-1.75683 8.05391,-2.79047 12.50597,-2.79047 4.45206,0 8.73125,1.03364 12.51303,2.79047 3.69358,1.65806 7.83519,2.62467 12.14614,2.62467 4.32152,0 8.46313,-0.96661 12.15672,-2.62467 3.78178,-1.75683 8.05391,-2.79047 12.50597,-2.79047 4.45558,0 8.72772,1.03364 12.5095,2.79047 3.69358,1.65806 7.83519,2.62467 12.14967,2.62467 l 0,18.21039 z"
     style="fill:#ffffff;fill-opacity:1;fill-rule:nonzero;stroke:none"
     id="path11608"
     inkscape:connector-curvature="0" />
  <path
     d="m 43.395203,176.88435 c 3.693583,-1.65453 7.792861,-2.61056 12.093222,-2.61056 4.452055,0 8.717139,1.03364 12.513027,2.80459 3.693584,1.64747 7.835195,2.62466 12.146139,2.62466 4.307417,0 8.449028,-0.97719 12.156722,-2.62466 3.781778,-1.77095 8.039807,-2.80459 12.491857,-2.80459 4.4697,0 8.72773,1.03364 12.5095,2.80459 3.7077,1.64747 7.84931,2.62466 12.14967,2.62466 4.318,0 8.45961,-0.97719 12.1532,-2.62466 2.38478,-1.11831 4.88597,-1.87678 7.56708,-2.32834 l 31.49247,-36.05742 -40.54827,-0.007 16.81338,-28.84311 36.79473,20.13303 c 12.18141,6.88975 21.15961,-8.98525 8.96408,-15.83972 L 149.94468,84.975151 C 130.53132,74.151929 122.32217,92.07304 122.32217,92.07304 l -27.188579,45.96342 -71.691499,-0.0212 c 2.268361,13.08453 14.015861,30.66345 19.953111,38.86906"
     style="fill:#ffffff;fill-opacity:1;fill-rule:nonzero;stroke:none"
     id="path11612"
     inkscape:connector-curvature="0" />
  <path
     d="m 158.62654,174.62445 c 2.81869,0.44803 5.51391,1.28764 8.001,2.45181 3.69358,1.64747 7.83519,2.62467 12.14614,2.62467 4.32152,0 8.46313,-0.9772 12.15672,-2.62467 3.78178,-1.77095 8.05391,-2.80458 12.50597,-2.80458 4.45558,0 8.72772,1.03363 12.5095,2.80458 3.69358,1.64747 7.83519,2.62467 12.14967,2.62467 l -0.0917,-41.01042 -37.96947,-0.0388 -31.4078,35.97274 z"
     style="fill:#ffffff;fill-opacity:1;fill-rule:nonzero;stroke:none"
     id="path11616"
     inkscape:connector-curvature="0" />
</svg>
