<?xml version="1.0" encoding="UTF-8" standalone="no"?>
<svg
   xmlns:dc="http://purl.org/dc/elements/1.1/"
   xmlns:cc="http://creativecommons.org/ns#"
   xmlns:rdf="http://www.w3.org/1999/02/22-rdf-syntax-ns#"
   xmlns:svg="http://www.w3.org/2000/svg"
   xmlns="http://www.w3.org/2000/svg"
   xmlns:sodipodi="http://sodipodi.sourceforge.net/DTD/sodipodi-0.dtd"
   xmlns:inkscape="http://www.inkscape.org/namespaces/inkscape"
   width="90.597931"
   height="90.597931"
   viewBox="0 0 255.68748 255.68749"
   version="1.1"
   id="svg2"
   inkscape:version="0.48.2 r9819"
   sodipodi:docname="MUTCD RS-042.svg">
  <metadata
     id="metadata62">
    <rdf:RDF>
      <cc:Work
         rdf:about="">
        <dc:format>image/svg+xml</dc:format>
        <dc:type
           rdf:resource="http://purl.org/dc/dcmitype/StillImage" />
        <dc:title></dc:title>
      </cc:Work>
    </rdf:RDF>
  </metadata>
  <defs
     id="defs60">
    <clipPath
       clipPathUnits="userSpaceOnUse"
       id="clipPath3564">
      <path
         inkscape:connector-curvature="0"
         d="m 63,43 512.622,0 0,313.129 L 63,356.129 63,43 z"
         id="path3566" />
    </clipPath>
  </defs>
  <sodipodi:namedview
     pagecolor="#ffffff"
     bordercolor="#666666"
     borderopacity="1"
     objecttolerance="10"
     gridtolerance="10"
     guidetolerance="10"
     inkscape:pageopacity="0"
     inkscape:pageshadow="2"
     inkscape:window-width="1280"
     inkscape:window-height="1004"
     id="namedview58"
     showgrid="false"
     fit-margin-top="0"
     fit-margin-left="0"
     fit-margin-right="0"
     fit-margin-bottom="0"
     inkscape:zoom="4"
     inkscape:cx="48.704041"
     inkscape:cy="35.520564"
     inkscape:window-x="-8"
     inkscape:window-y="-8"
     inkscape:window-maximized="1"
     inkscape:current-layer="svg2"
     showguides="true"
     inkscape:guide-bbox="true" />
  <polygon
     points="235,375 315,205 395,375 315,545 "
     id="polygon10"
     style="fill:none;stroke:#ffffff;stroke-width:40"
     transform="translate(17618.396,14343.442)" />
  <!-- draw the bicycle -->
  <!-- RIGHT -->
  <!-- LANE -->
  <!-- ONLY -->
  <path
     inkscape:connector-curvature="0"
     d="m 22.008538,254.83715 211.663112,0 c 5.57389,0 11.02432,-2.2578 14.97188,-6.2089 3.94054,-3.937 6.19479,-9.3839 6.19479,-14.9578 l 0,-211.6667 c 0,-5.5738 -2.25425,-11.0207 -6.19479,-14.9718 -3.94756,-3.937 -9.39799,-6.1948 -14.97188,-6.1948 l -211.663112,0 c -5.57036,0 -11.02078,2.2578 -14.9577796,6.1948 -3.94758,3.9511 -6.20888999,9.398 -6.20888999,14.9718 l 0,211.6667 c 0,7.2531 3.85232999,14.1111 9.96244959,18.0058 3.48897,2.2154 7.16844,2.734 11.20422,3.1609"
     style="fill:#ffffff;fill-opacity:1;fill-rule:nonzero;stroke:#000000;stroke-width:1.69333331;stroke-miterlimit:4;stroke-opacity:1;stroke-dasharray:none"
     id="path3060" />
  <path
     inkscape:connector-curvature="0"
     d="m 22.008538,249.54545 c -3.15384,0 -5.80672,-0.7126 -8.36084,-2.3319 -4.6249096,-2.9421 -7.5141596,-8.135 -7.5141596,-13.5431 l 0,-211.6667 c 0,-4.1698 1.69333,-8.2655 4.6566596,-11.2289 2.94217,-2.9421 7.0485,-4.6461 11.21834,-4.6461 l 211.663112,0 c 4.18394,0 8.29028,1.6934 11.23244,4.6461 2.95628,2.9422 4.64256,7.0485 4.64256,11.2289 l 0,211.6667 c 0,4.1663 -1.70038,8.2726 -4.64256,11.2148 -2.96333,2.9669 -7.05554,4.6602 -11.23244,4.6602 l -211.663112,0 z"
     style="fill:#713907;fill-opacity:1;fill-rule:evenodd;stroke:none"
     id="path3084" />
  <path
     d="m 131.26508,144.02272 c -3.56306,-3.556 -3.56306,-9.3345 0,-12.9046 3.56306,-3.556 9.34156,-3.556 12.90461,0 l 18.20334,18.20332 0,-25.74218 c 0,-5.03767 4.08869,-9.12284 9.12283,-9.12284 5.03767,0 9.12283,4.08517 9.12283,9.12284 l 0,25.74218 18.20333,-18.20332 c 3.56306,-3.556 9.33803,-3.556 12.90109,0 3.56658,3.5701 3.56658,9.34155 0,12.9046 l -18.15747,18.15747 25.6928,0.0459 c 5.04472,0 9.12989,4.08869 9.12989,9.12283 0,5.03767 -4.08517,9.12989 -9.12989,9.12989 l -25.71397,0 18.17864,18.19628 c 3.56658,3.56305 3.56658,9.33802 0,12.90813 -3.56306,3.55248 -9.33803,3.55248 -12.90109,0 l -18.161,-18.15747 -0.0423,25.68575 c 0,5.04472 -4.08516,9.12989 -9.12283,9.12989 -5.03414,0 -9.12283,-4.08517 -9.12283,-9.12989 l 0,-25.73514 -18.20334,18.20686 c -3.56305,3.55248 -9.34155,3.55248 -12.90461,0 -3.56306,-3.57011 -3.56306,-9.34508 0,-12.90813 l 18.20333,-18.19628 -25.74219,0 c -5.03414,0 -9.12284,-4.09222 -9.12284,-9.12989 0,-5.03414 4.0887,-9.12283 9.12284,-9.12283 l 25.71397,0 -18.17511,-18.20334 z"
     style="fill:#ffffff;fill-opacity:1;fill-rule:nonzero;stroke:none"
     id="path3608"
     inkscape:connector-curvature="0" />
  <path
     d="m 121.05392,51.997117 c 0,-5.041195 -4.08516,-9.129889 -9.12283,-9.129889 -5.04472,0 -9.12989,4.088694 -9.12989,9.129889 l 0,37.757806 -53.371747,-53.371751 c -3.559528,-3.566583 -9.341556,-3.566583 -12.904611,0 -3.563056,3.556 -3.563056,9.338028 0,12.901084 l 53.357638,53.378804 -37.743694,0 c -5.037667,0 -9.122833,4.08517 -9.122833,9.11931 0,5.03766 4.085166,9.12989 9.122833,9.12989 l 59.757024,-0.0318 c 2.34245,0 4.67431,-0.889 6.45584,-2.67406 1.778,-1.77094 2.65994,-4.09928 2.67405,-6.42408 l 0.0282,-59.785253 z"
     style="fill:#ffffff;fill-opacity:1;fill-rule:nonzero;stroke:none"
     id="path3612"
     inkscape:connector-curvature="0" />
</svg>
