<?xml version="1.0" encoding="UTF-8" standalone="no"?>
<svg
   xmlns:dc="http://purl.org/dc/elements/1.1/"
   xmlns:cc="http://creativecommons.org/ns#"
   xmlns:rdf="http://www.w3.org/1999/02/22-rdf-syntax-ns#"
   xmlns:svg="http://www.w3.org/2000/svg"
   xmlns="http://www.w3.org/2000/svg"
   xmlns:sodipodi="http://sodipodi.sourceforge.net/DTD/sodipodi-0.dtd"
   xmlns:inkscape="http://www.inkscape.org/namespaces/inkscape"
   width="90.597931"
   height="90.597931"
   viewBox="0 0 255.68748 255.68749"
   version="1.1"
   id="svg2"
   inkscape:version="0.48.2 r9819"
   sodipodi:docname="MUTCD RS-089.svg">
  <metadata
     id="metadata62">
    <rdf:RDF>
      <cc:Work
         rdf:about="">
        <dc:format>image/svg+xml</dc:format>
        <dc:type
           rdf:resource="http://purl.org/dc/dcmitype/StillImage" />
        <dc:title></dc:title>
      </cc:Work>
    </rdf:RDF>
  </metadata>
  <defs
     id="defs60">
    <clipPath
       clipPathUnits="userSpaceOnUse"
       id="clipPath3564">
      <path
         inkscape:connector-curvature="0"
         d="m 63,43 512.622,0 0,313.129 L 63,356.129 63,43 z"
         id="path3566" />
    </clipPath>
  </defs>
  <sodipodi:namedview
     pagecolor="#ffffff"
     bordercolor="#666666"
     borderopacity="1"
     objecttolerance="10"
     gridtolerance="10"
     guidetolerance="10"
     inkscape:pageopacity="0"
     inkscape:pageshadow="2"
     inkscape:window-width="1280"
     inkscape:window-height="1004"
     id="namedview58"
     showgrid="false"
     fit-margin-top="0"
     fit-margin-left="0"
     fit-margin-right="0"
     fit-margin-bottom="0"
     inkscape:zoom="4.8826954"
     inkscape:cx="83.159137"
     inkscape:cy="32.525196"
     inkscape:window-x="-8"
     inkscape:window-y="-8"
     inkscape:window-maximized="1"
     inkscape:current-layer="svg2"
     showguides="true"
     inkscape:guide-bbox="true" />
  <polygon
     points="315,545 235,375 315,205 395,375 "
     id="polygon10"
     style="fill:none;stroke:#ffffff;stroke-width:40"
     transform="translate(17744.427,14390.473)" />
  <!-- draw the bicycle -->
  <!-- RIGHT -->
  <!-- LANE -->
  <!-- ONLY -->
  <path
     inkscape:connector-curvature="0"
     d="m 22.004643,254.8459 211.663127,0 c 5.57392,0 11.02432,-2.2577 14.97189,-6.2088 3.94053,-3.937 6.1948,-9.3839 6.1948,-14.9578 l 0,-211.6632 c 0,-5.5738 -2.25426,-11.0207 -6.1948,-14.9718 -3.94757,-3.937 -9.39797,-6.1948 -14.97189,-6.1948 l -211.663127,0 c -5.57036,0 -11.02077,2.2578 -14.9577696,6.1948 -3.94759,3.9511 -6.20888999,9.398 -6.20888999,14.9718 l 0,211.6632 c 0,7.2566 3.85232999,14.1111 9.96243959,18.0058 3.48545,2.2154 7.16845,2.7375 11.20422,3.1608"
     style="fill:#ffffff;fill-opacity:1;fill-rule:nonzero;stroke:#000000;stroke-width:1.69333339;stroke-miterlimit:4;stroke-opacity:1;stroke-dasharray:none"
     id="path3026" />
  <path
     inkscape:connector-curvature="0"
     d="m 22.004643,249.5543 c -3.15383,0 -5.80672,-0.7091 -8.36083,-2.3284 -4.6249196,-2.9421 -7.5141696,-8.1385 -7.5141696,-13.5466 l 0,-211.6632 c 0,-4.1733 1.69334,-8.2691 4.6566696,-11.2324 2.94217,-2.9422 7.0485,-4.6426 11.21833,-4.6426 l 211.663127,0 c 4.18397,0 8.29028,1.6898 11.23245,4.6426 2.95277,2.9422 4.64255,7.0485 4.64255,11.2324 l 0,211.6632 c 0,4.1698 -1.70035,8.2761 -4.64255,11.2183 -2.96333,2.9633 -7.05555,4.6567 -11.23245,4.6567 l -211.663127,0 z"
     style="fill:#713907;fill-opacity:1;fill-rule:evenodd;stroke:none"
     id="path3050" />
  <path
     d="m 29.65448,154.2286 0,0 c -0.123472,-0.13758 -0.194027,-0.28928 -0.194027,-0.49741 0,-0.39864 0.324555,-0.7232 0.73025,-0.7232 l 21.290138,0.0212 c 1.04775,0 1.890889,-0.83961 1.890889,-1.8803 0,-0.7867 -0.359833,-1.31587 -1.167694,-1.73567 L 32.928258,140.2198 c -0.373944,-0.21872 -0.606778,-0.62795 -0.606778,-1.0795 0,-0.35278 0.130528,-0.66322 0.363361,-0.89606 0,0 50.644778,-44.753386 162.746969,-1.35114 l 30.76575,-15.05655 c 0.31045,-0.1517 0.65264,-0.22578 1.01953,-0.22578 1.30175,0 2.36361,1.06186 2.36361,2.37067 0,0.45508 -0.13053,0.87489 -0.33867,1.23825 l -18.16805,22.58836 18.16805,22.57072 c 0.20814,0.36336 0.33867,0.78669 0.33867,1.24178 0,1.3088 -1.06186,2.36714 -2.36361,2.36714 -0.36689,0 -0.70908,-0.0811 -1.01953,-0.22578 l -30.76575,-15.05656 c 0,0 -107.149191,42.60497 -165.77733,-4.47675 m 31.700611,-10.74208 c 2.522361,0 4.575528,-2.04611 4.575528,-4.56142 0,-2.5153 -2.053167,-4.56141 -4.575528,-4.56141 -2.515305,0 -4.547305,2.04611 -4.547305,4.56141 0,2.51531 2.032,4.56142 4.547305,4.56142"
     style="fill:#ffffff;fill-opacity:1;fill-rule:nonzero;stroke:none"
     id="path11830"
     inkscape:connector-curvature="0" />
  <path
     d="m 159.86476,74.398521 0,24.750889 61.15755,0 c 6.82978,0 12.37545,-5.542139 12.37545,-12.375445 0,-6.836833 -5.54567,-12.375444 -12.37545,-12.375444 l -61.15755,0 z"
     style="fill:#ffffff;fill-opacity:1;fill-rule:nonzero;stroke:none"
     id="path11834"
     inkscape:connector-curvature="0" />
  <path
     d="m 44.848619,92.19616 5.626806,-2.384778 3.570111,6.071305 5.669139,-4.106333 4.106333,5.690306 5.418666,-4.459112 4.434417,5.42925 5.168194,-4.73075 4.727223,5.171723 4.935361,-4.960056 4.952999,4.960056 4.945945,-4.960056 4.952997,4.960056 4.94947,-4.960056 4.94595,4.960056 4.953,-4.960056 4.94947,4.960056 4.953,-4.960056 4.94595,4.960056 4.95652,-4.960056 4.953,4.960056 4.93184,-4.960056 4.97064,4.967111 0,-24.429861 -129.455336,0 0.02822,0.116417 c 5.947833,7.122583 13.200944,13.165667 21.410083,17.624778"
     style="fill:#ffffff;fill-opacity:1;fill-rule:nonzero;stroke:none"
     id="path11838"
     inkscape:connector-curvature="0" />
</svg>
