<?xml version="1.0" encoding="UTF-8" standalone="no"?>
<svg
   xmlns:dc="http://purl.org/dc/elements/1.1/"
   xmlns:cc="http://creativecommons.org/ns#"
   xmlns:rdf="http://www.w3.org/1999/02/22-rdf-syntax-ns#"
   xmlns:svg="http://www.w3.org/2000/svg"
   xmlns="http://www.w3.org/2000/svg"
   xmlns:sodipodi="http://sodipodi.sourceforge.net/DTD/sodipodi-0.dtd"
   xmlns:inkscape="http://www.inkscape.org/namespaces/inkscape"
   width="90.597931"
   height="90.597931"
   viewBox="0 0 255.68748 255.68749"
   version="1.1"
   id="svg2"
   inkscape:version="0.48.2 r9819"
   sodipodi:docname="MUTCD RS-084.svg">
  <metadata
     id="metadata62">
    <rdf:RDF>
      <cc:Work
         rdf:about="">
        <dc:format>image/svg+xml</dc:format>
        <dc:type
           rdf:resource="http://purl.org/dc/dcmitype/StillImage" />
        <dc:title></dc:title>
      </cc:Work>
    </rdf:RDF>
  </metadata>
  <defs
     id="defs60">
    <clipPath
       clipPathUnits="userSpaceOnUse"
       id="clipPath3564">
      <path
         inkscape:connector-curvature="0"
         d="m 63,43 512.622,0 0,313.129 L 63,356.129 63,43 z"
         id="path3566" />
    </clipPath>
  </defs>
  <sodipodi:namedview
     pagecolor="#ffffff"
     bordercolor="#666666"
     borderopacity="1"
     objecttolerance="10"
     gridtolerance="10"
     guidetolerance="10"
     inkscape:pageopacity="0"
     inkscape:pageshadow="2"
     inkscape:window-width="1280"
     inkscape:window-height="1004"
     id="namedview58"
     showgrid="false"
     fit-margin-top="0"
     fit-margin-left="0"
     fit-margin-right="0"
     fit-margin-bottom="0"
     inkscape:zoom="4.8826954"
     inkscape:cx="83.159137"
     inkscape:cy="32.525196"
     inkscape:window-x="-8"
     inkscape:window-y="-8"
     inkscape:window-maximized="1"
     inkscape:current-layer="svg2"
     showguides="true"
     inkscape:guide-bbox="true" />
  <polygon
     points="315,545 235,375 315,205 395,375 "
     id="polygon10"
     style="fill:none;stroke:#ffffff;stroke-width:40"
     transform="translate(17744.427,14390.473)" />
  <!-- draw the bicycle -->
  <!-- RIGHT -->
  <!-- LANE -->
  <!-- ONLY -->
  <path
     inkscape:connector-curvature="0"
     d="m 22.004643,254.8459 211.663127,0 c 5.57392,0 11.02432,-2.2577 14.97189,-6.2088 3.94053,-3.937 6.1948,-9.3839 6.1948,-14.9578 l 0,-211.6632 c 0,-5.5738 -2.25426,-11.0207 -6.1948,-14.9718 -3.94757,-3.937 -9.39797,-6.1948 -14.97189,-6.1948 l -211.663127,0 c -5.57036,0 -11.02077,2.2578 -14.9577696,6.1948 -3.94759,3.9511 -6.20888999,9.398 -6.20888999,14.9718 l 0,211.6632 c 0,7.2566 3.85232999,14.1111 9.96243959,18.0058 3.48545,2.2154 7.16845,2.7375 11.20422,3.1608"
     style="fill:#ffffff;fill-opacity:1;fill-rule:nonzero;stroke:#000000;stroke-width:1.69333339;stroke-miterlimit:4;stroke-opacity:1;stroke-dasharray:none"
     id="path3026" />
  <path
     inkscape:connector-curvature="0"
     d="m 22.004643,249.5543 c -3.15383,0 -5.80672,-0.7091 -8.36083,-2.3284 -4.6249196,-2.9421 -7.5141696,-8.1385 -7.5141696,-13.5466 l 0,-211.6632 c 0,-4.1733 1.69334,-8.2691 4.6566696,-11.2324 2.94217,-2.9422 7.0485,-4.6426 11.21833,-4.6426 l 211.663127,0 c 4.18397,0 8.29028,1.6898 11.23245,4.6426 2.95277,2.9422 4.64255,7.0485 4.64255,11.2324 l 0,211.6632 c 0,4.1698 -1.70035,8.2761 -4.64255,11.2183 -2.96333,2.9633 -7.05555,4.6567 -11.23245,4.6567 l -211.663127,0 z"
     style="fill:#713907;fill-opacity:1;fill-rule:evenodd;stroke:none"
     id="path3050" />
  <path
     d="m 183.68395,91.391473 0,-23.290389 -2.18369,0 c -6.42761,0 -11.64519,5.210528 -11.64519,11.645195 0,6.434666 5.21758,11.645194 11.64519,11.645194 l 2.18369,0 z"
     style="fill:#ffffff;fill-opacity:1;fill-rule:nonzero;stroke:none"
     id="path8176"
     inkscape:connector-curvature="0" />
  <path
     d="m 166.07329,86.057826 -10.14236,-20.32 c -2.26836,-4.162778 -6.65692,-6.977944 -11.72634,-6.977944 l -23.62905,0.01411 c -2.20486,0 -3.98639,1.774472 -3.98639,3.986389 0,2.197805 1.78153,3.982861 3.98639,3.982861 l 23.62905,-0.03881 c 1.89442,0 4.0005,1.280583 4.82953,3.12561 l 6.50522,12.968111 10.53395,3.259667 z"
     style="fill:#ffffff;fill-opacity:1;fill-rule:nonzero;stroke:none"
     id="path8180"
     inkscape:connector-curvature="0" />
  <path
     d="m 212.98956,107.84538 c 3.0868,0.87489 5.35164,3.71122 5.35164,7.07672 l -17.1697,0.004 c -22.64833,0 -41.01041,18.37267 -41.01041,41.01747 l -56.01053,0 c 0,-18.18216 -11.835692,-33.60208 -28.215164,-38.97488 l -30.87511,-10.17781 5.125861,-7.792865 c 1.834444,-2.737556 4.963583,-4.547306 8.516055,-4.547306 0.744361,0 1.481667,0.08114 2.183694,0.232834 l 68.788134,21.290137 c 0.81845,0.26458 1.7145,0.40217 2.62467,0.40217 3.10091,0 5.81377,-1.5875 7.4048,-3.97581 l 15.61395,-22.574247 57.67211,18.019887 z"
     style="fill:#ffffff;fill-opacity:1;fill-rule:nonzero;stroke:none"
     id="path8184"
     inkscape:connector-curvature="0" />
  <path
     d="m 166.9697,163.06886 c 0,-15.44108 12.52008,-27.95411 27.94705,-27.95411 15.44108,0 27.95411,12.51303 27.95411,27.95411 0,15.42697 -12.51303,27.94705 -27.95411,27.94705 -15.42697,0 -27.94705,-12.52008 -27.94705,-27.94705 m 27.96116,10.44575 c 5.7785,0 10.44928,-4.67078 10.44928,-10.44575 0,-5.76792 -4.67078,-10.4528 -10.44928,-10.4528 -5.76086,0 -10.43869,4.68488 -10.43869,10.4528 0,5.77497 4.67783,10.44575 10.43869,10.44575"
     style="fill:#ffffff;fill-opacity:1;fill-rule:nonzero;stroke:none"
     id="path8188"
     inkscape:connector-curvature="0" />
  <path
     d="m 35.323619,160.09882 c 0,-16.96861 13.761861,-30.73752 30.751638,-30.73752 16.979195,0 30.737528,13.76891 30.737528,30.73752 0,16.98625 -13.758333,30.75164 -30.737528,30.75164 -16.989777,0 -30.751638,-13.76539 -30.751638,-30.75164 m 30.76575,11.50056 c 6.346472,0 11.500555,-5.13997 11.500555,-11.4935 0,-6.35353 -5.154083,-11.4935 -11.500555,-11.4935 -6.353528,0 -11.4935,5.13997 -11.4935,11.4935 0,6.35353 5.139972,11.4935 11.4935,11.4935"
     style="fill:#ffffff;fill-opacity:1;fill-rule:nonzero;stroke:none"
     id="path8192"
     inkscape:connector-curvature="0" />
</svg>
