<?xml version="1.0" encoding="UTF-8" standalone="no"?>
<svg
   xmlns:dc="http://purl.org/dc/elements/1.1/"
   xmlns:cc="http://creativecommons.org/ns#"
   xmlns:rdf="http://www.w3.org/1999/02/22-rdf-syntax-ns#"
   xmlns:svg="http://www.w3.org/2000/svg"
   xmlns="http://www.w3.org/2000/svg"
   xmlns:sodipodi="http://sodipodi.sourceforge.net/DTD/sodipodi-0.dtd"
   xmlns:inkscape="http://www.inkscape.org/namespaces/inkscape"
   width="90.597931"
   height="90.597931"
   viewBox="0 0 255.68748 255.68749"
   version="1.1"
   id="svg2"
   inkscape:version="0.48.2 r9819"
   sodipodi:docname="MUTCD RS-090.svg">
  <metadata
     id="metadata62">
    <rdf:RDF>
      <cc:Work
         rdf:about="">
        <dc:format>image/svg+xml</dc:format>
        <dc:type
           rdf:resource="http://purl.org/dc/dcmitype/StillImage" />
        <dc:title></dc:title>
      </cc:Work>
    </rdf:RDF>
  </metadata>
  <defs
     id="defs60">
    <clipPath
       clipPathUnits="userSpaceOnUse"
       id="clipPath3564">
      <path
         inkscape:connector-curvature="0"
         d="m 63,43 512.622,0 0,313.129 L 63,356.129 63,43 z"
         id="path3566" />
    </clipPath>
  </defs>
  <sodipodi:namedview
     pagecolor="#ffffff"
     bordercolor="#666666"
     borderopacity="1"
     objecttolerance="10"
     gridtolerance="10"
     guidetolerance="10"
     inkscape:pageopacity="0"
     inkscape:pageshadow="2"
     inkscape:window-width="1280"
     inkscape:window-height="1004"
     id="namedview58"
     showgrid="false"
     fit-margin-top="0"
     fit-margin-left="0"
     fit-margin-right="0"
     fit-margin-bottom="0"
     inkscape:zoom="4"
     inkscape:cx="48.704041"
     inkscape:cy="45.520564"
     inkscape:window-x="-8"
     inkscape:window-y="-8"
     inkscape:window-maximized="1"
     inkscape:current-layer="svg2"
     showguides="true"
     inkscape:guide-bbox="true" />
  <polygon
     points="235,375 315,205 395,375 315,545 "
     id="polygon10"
     style="fill:none;stroke:#ffffff;stroke-width:40"
     transform="translate(17618.396,14343.442)" />
  <!-- draw the bicycle -->
  <!-- RIGHT -->
  <!-- LANE -->
  <!-- ONLY -->
  <path
     inkscape:connector-curvature="0"
     d="m 22.008538,254.83715 211.663112,0 c 5.57389,0 11.02432,-2.2578 14.97188,-6.2089 3.94054,-3.937 6.19479,-9.3839 6.19479,-14.9578 l 0,-211.6667 c 0,-5.5738 -2.25425,-11.0207 -6.19479,-14.9718 -3.94756,-3.937 -9.39799,-6.1948 -14.97188,-6.1948 l -211.663112,0 c -5.57036,0 -11.02078,2.2578 -14.9577796,6.1948 -3.94758,3.9511 -6.20888999,9.398 -6.20888999,14.9718 l 0,211.6667 c 0,7.2531 3.85232999,14.1111 9.96244959,18.0058 3.48897,2.2154 7.16844,2.734 11.20422,3.1609"
     style="fill:#ffffff;fill-opacity:1;fill-rule:nonzero;stroke:#000000;stroke-width:1.69333331;stroke-miterlimit:4;stroke-opacity:1;stroke-dasharray:none"
     id="path3060" />
  <path
     inkscape:connector-curvature="0"
     d="m 22.008538,249.54545 c -3.15384,0 -5.80672,-0.7126 -8.36084,-2.3319 -4.6249096,-2.9421 -7.5141596,-8.135 -7.5141596,-13.5431 l 0,-211.6667 c 0,-4.1698 1.69333,-8.2655 4.6566596,-11.2289 2.94217,-2.9421 7.0485,-4.6461 11.21834,-4.6461 l 211.663112,0 c 4.18394,0 8.29028,1.6934 11.23244,4.6461 2.95628,2.9422 4.64256,7.0485 4.64256,11.2289 l 0,211.6667 c 0,4.1663 -1.70038,8.2726 -4.64256,11.2148 -2.96333,2.9669 -7.05554,4.6602 -11.23244,4.6602 l -211.663112,0 z"
     style="fill:#713907;fill-opacity:1;fill-rule:evenodd;stroke:none"
     id="path3084" />
  <path
     d="m 214.0659,37.445035 9.35919,0 0.007,-3.506611 -8.35378,0.02822 0.0212,-8.371417 -3.49953,-0.0071 -0.0212,9.362722 -4.2792,4.265083 2.47297,2.487084 4.29331,-4.258028 z"
     style="fill:#ffffff;fill-opacity:1;fill-rule:nonzero;stroke:none"
     id="path3672"
     inkscape:connector-curvature="0" />
  <path
     d="m 54.684078,187.88711 c -1.344084,-1.33703 -3.52425,-1.33703 -4.85775,0.0141 -1.344084,1.34409 -1.337028,3.52073 0.0071,4.8507 l 10.470445,10.46339 c 1.344083,1.33702 3.520722,1.33702 4.85775,-0.0104 1.337027,-1.34408 1.337027,-3.51719 -0.01411,-4.85069 l -10.463435,-10.4671 z"
     style="fill:#ffffff;fill-opacity:1;fill-rule:nonzero;stroke:none"
     id="path3676"
     inkscape:connector-curvature="0" />
  <path
     d="m 45.66355,196.89706 c -1.344083,-1.3335 -3.513667,-1.3335 -4.850694,0.0141 -1.337028,1.34408 -1.337028,3.52072 0.0071,4.85775 l 10.473972,10.46691 c 1.340556,1.33703 3.520723,1.32998 4.85775,-0.0141 1.3335,-1.34408 1.326445,-3.52072 -0.01411,-4.85775 L 45.66355,196.89706 z"
     style="fill:#ffffff;fill-opacity:1;fill-rule:nonzero;stroke:none"
     id="path3680"
     inkscape:connector-curvature="0" />
  <path
     d="m 43.677411,221.69733 c 1.033639,0.1517 2.123722,-0.17991 2.924528,-0.98072 1.3335,-1.34055 1.326444,-3.52072 -0.01411,-4.85775 l -9.330972,-9.27805 c -1.344084,-1.33703 -3.520723,-1.32998 -4.85775,0.0106 -0.881945,0.889 -1.178278,2.13078 -0.896056,3.25967 l 2.949222,9.02052 9.225139,2.82575 z"
     style="fill:#ffffff;fill-opacity:1;fill-rule:nonzero;stroke:none"
     id="path3684"
     inkscape:connector-curvature="0" />
  <path
     d="m 43.857328,127.71381 c -8.660695,-9.3345 -13.952361,-21.84753 -13.952361,-35.58822 0,-28.92425 23.449139,-52.369861 52.373388,-52.369861 28.917195,0 52.366335,23.445611 52.366335,52.369861 l -0.0494,75.65672 c 0,20.48933 16.61936,37.10869 37.11575,37.10869 20.50697,0 37.12633,-16.61936 37.12633,-37.10869 0,-10.25525 -4.15572,-19.53684 -10.87967,-26.25373 l -31.01974,-31.19966 c -5.1823,-5.17878 -8.37847,-12.333108 -8.37847,-20.23533 0,-7.902222 3.19617,-15.060083 8.37847,-20.242389 l 7.86695,-7.863416 c 0.50447,-0.493889 0.80786,-1.185334 0.80786,-1.947334 0,-0.642055 -0.22931,-1.234722 -0.59267,-1.703916 l -1.66864,-2.328334 c -0.508,-0.673805 -0.79727,-1.516944 -0.79727,-2.427111 0,-1.541639 0.86783,-2.878666 2.1343,-3.552472 l 22.65539,-10.611555 c 3.70769,-1.957917 5.73264,-0.151695 5.73264,-0.151695 l 7.79991,7.821083 c 0,0 1.82034,2.010834 -0.20108,5.68325 l -10.85144,21.953361 c -0.70203,1.259417 -2.05317,2.099028 -3.59481,2.074333 -0.91017,-0.01411 -1.74625,-0.324555 -2.413,-0.850194 l -2.32128,-1.852083 c -0.47625,-0.391584 -1.09008,-0.627945 -1.75683,-0.627945 -0.77964,0 -1.48167,0.324556 -1.98614,0.846667 l -8.43844,8.463139 c -1.71803,1.880305 -2.75873,4.388555 -2.75873,7.136694 0,2.935111 1.18534,5.588 3.10798,7.517694 l 31.19966,31.199663 c 10.01889,10.01889 16.22073,23.85483 16.22073,39.15128 0,30.57525 -24.79323,55.36141 -55.372,55.36141 -30.57878,0 -55.36847,-24.78616 -55.36847,-55.36141 l 0.1023,-75.65672 c 0,-18.774833 -15.21883,-33.997194 -33.993664,-33.997194 -18.778361,0 -33.997194,15.222361 -33.997194,33.997194 0,9.38389 3.802945,17.88936 9.955389,24.0418 l 25.371777,25.36119 c 5.171723,5.18231 8.378472,12.33312 8.378472,20.23534 0,7.90575 -3.206749,15.06361 -8.378472,20.24591 L 70.749577,195.0097 58.106022,182.35908 71.398689,169.26045 c 1.721555,-1.88737 2.76225,-4.38856 2.76225,-7.14375 0,-2.92806 -1.192389,-5.588 -3.115028,-7.51064 L 43.857328,127.71381 z"
     style="fill:#ffffff;fill-opacity:1;fill-rule:nonzero;stroke:none"
     id="path3688"
     inkscape:connector-curvature="0" />
</svg>
