<?xml version="1.0" encoding="UTF-8" standalone="no"?>
<svg
   xmlns:dc="http://purl.org/dc/elements/1.1/"
   xmlns:cc="http://creativecommons.org/ns#"
   xmlns:rdf="http://www.w3.org/1999/02/22-rdf-syntax-ns#"
   xmlns:svg="http://www.w3.org/2000/svg"
   xmlns="http://www.w3.org/2000/svg"
   xmlns:sodipodi="http://sodipodi.sourceforge.net/DTD/sodipodi-0.dtd"
   xmlns:inkscape="http://www.inkscape.org/namespaces/inkscape"
   width="90.597931"
   height="90.597931"
   viewBox="0 0 255.68748 255.68749"
   version="1.1"
   id="svg2"
   inkscape:version="0.48.2 r9819"
   sodipodi:docname="MUTCD RS-078.svg">
  <metadata
     id="metadata62">
    <rdf:RDF>
      <cc:Work
         rdf:about="">
        <dc:format>image/svg+xml</dc:format>
        <dc:type
           rdf:resource="http://purl.org/dc/dcmitype/StillImage" />
        <dc:title></dc:title>
      </cc:Work>
    </rdf:RDF>
  </metadata>
  <defs
     id="defs60">
    <clipPath
       clipPathUnits="userSpaceOnUse"
       id="clipPath3564">
      <path
         inkscape:connector-curvature="0"
         d="m 63,43 512.622,0 0,313.129 L 63,356.129 63,43 z"
         id="path3566" />
    </clipPath>
  </defs>
  <sodipodi:namedview
     pagecolor="#ffffff"
     bordercolor="#666666"
     borderopacity="1"
     objecttolerance="10"
     gridtolerance="10"
     guidetolerance="10"
     inkscape:pageopacity="0"
     inkscape:pageshadow="2"
     inkscape:window-width="1280"
     inkscape:window-height="1004"
     id="namedview58"
     showgrid="false"
     fit-margin-top="0"
     fit-margin-left="0"
     fit-margin-right="0"
     fit-margin-bottom="0"
     inkscape:zoom="4.8826954"
     inkscape:cx="83.159137"
     inkscape:cy="32.525196"
     inkscape:window-x="-8"
     inkscape:window-y="-8"
     inkscape:window-maximized="1"
     inkscape:current-layer="svg2"
     showguides="true"
     inkscape:guide-bbox="true" />
  <polygon
     points="315,545 235,375 315,205 395,375 "
     id="polygon10"
     style="fill:none;stroke:#ffffff;stroke-width:40"
     transform="translate(17744.427,14390.473)" />
  <!-- draw the bicycle -->
  <!-- RIGHT -->
  <!-- LANE -->
  <!-- ONLY -->
  <path
     inkscape:connector-curvature="0"
     d="m 22.004643,254.8459 211.663127,0 c 5.57392,0 11.02432,-2.2577 14.97189,-6.2088 3.94053,-3.937 6.1948,-9.3839 6.1948,-14.9578 l 0,-211.6632 c 0,-5.5738 -2.25426,-11.0207 -6.1948,-14.9718 -3.94757,-3.937 -9.39797,-6.1948 -14.97189,-6.1948 l -211.663127,0 c -5.57036,0 -11.02077,2.2578 -14.9577696,6.1948 -3.94759,3.9511 -6.20888999,9.398 -6.20888999,14.9718 l 0,211.6632 c 0,7.2566 3.85232999,14.1111 9.96243959,18.0058 3.48545,2.2154 7.16845,2.7375 11.20422,3.1608"
     style="fill:#ffffff;fill-opacity:1;fill-rule:nonzero;stroke:#000000;stroke-width:1.69333339;stroke-miterlimit:4;stroke-opacity:1;stroke-dasharray:none"
     id="path3026" />
  <path
     inkscape:connector-curvature="0"
     d="m 22.004643,249.5543 c -3.15383,0 -5.80672,-0.7091 -8.36083,-2.3284 -4.6249196,-2.9421 -7.5141696,-8.1385 -7.5141696,-13.5466 l 0,-211.6632 c 0,-4.1733 1.69334,-8.2691 4.6566696,-11.2324 2.94217,-2.9422 7.0485,-4.6426 11.21833,-4.6426 l 211.663127,0 c 4.18397,0 8.29028,1.6898 11.23245,4.6426 2.95277,2.9422 4.64255,7.0485 4.64255,11.2324 l 0,211.6632 c 0,4.1698 -1.70035,8.2761 -4.64255,11.2183 -2.96333,2.9633 -7.05555,4.6567 -11.23245,4.6567 l -211.663127,0 z"
     style="fill:#713907;fill-opacity:1;fill-rule:evenodd;stroke:none"
     id="path3050" />
  <path
     d="m 226.86081,223.60269 c -47.87547,0.71261 -97.90995,-8.43844 -136.225136,-39.22536 -0.229305,-0.23283 -0.345722,-0.50094 -0.345722,-0.86783 0,-0.70909 0.585611,-1.28764 1.294694,-1.28764 l 37.743694,0.0423 c 1.83444,0 3.33022,-1.48872 3.33022,-3.32317 0,-1.38288 -0.64206,-2.34244 -2.08139,-3.07975 L 96.442396,159.57352 c -0.652639,-0.39863 -1.090083,-1.10066 -1.090083,-1.91558 0,-0.62089 0.250472,-1.17122 0.656167,-1.57692 0,0 41.60308,-36.7665 130.85233,-35.95511 l 0,103.47678 z m -80.05234,-58.24008 c 4.46617,0 8.08214,-3.6195 8.08214,-8.08214 0,-4.45911 -3.61597,-8.07508 -8.08214,-8.07508 -4.45911,0 -8.07508,3.61597 -8.07508,8.07508 0,4.46264 3.61597,8.08214 8.07508,8.08214"
     style="fill:#ffffff;fill-opacity:1;fill-rule:nonzero;stroke:none"
     id="path14147"
     inkscape:connector-curvature="0" />
  <path
     d="m 27.296189,28.50106 35.983333,0 0,29.17825 -35.983333,0 0,-29.17825 z"
     style="fill:#ffffff;fill-opacity:1;fill-rule:nonzero;stroke:none"
     id="path14149"
     inkscape:connector-curvature="0" />
  <path
     d="m 101.79227,28.50106 127.95955,0 0,28.850166 -127.95955,0 0,-28.850166 z"
     style="fill:#ffffff;fill-opacity:1;fill-rule:nonzero;stroke:none"
     id="path14151"
     inkscape:connector-curvature="0" />
  <path
     d="m 80.22873,73.019498 c -3.189111,1.075972 -5.482167,4.085167 -5.482167,7.641167 0,3.541889 2.335389,6.600472 5.510389,7.690555 l 0,49.88278 c 0,6.39586 -5.182305,11.57111 -11.574639,11.57111 -6.402916,0 -11.581694,-5.17525 -11.581694,-11.57111 0,-1.59809 0.324556,-3.12561 0.913695,-4.51203 l 0.483305,0.44097 4.078111,3.72886 -2.561166,-22.74005 -6.607528,15.27528 c -2.032,4.75544 -1.538111,7.80697 -1.538111,7.80697 0,9.27452 7.531805,16.81339 16.813388,16.81339 9.288639,0 16.813389,-7.53887 16.813389,-16.81339 l 0,-49.960391 c 3.125611,-1.114778 5.408083,-4.113389 5.408083,-7.612944 0,-3.527778 -2.247194,-6.586361 -5.408083,-7.697611 l 0,-44.460583 -5.259917,0 -0.0071,44.517027 z"
     style="fill:#ffffff;fill-opacity:1;fill-rule:nonzero;stroke:none"
     id="path14155"
     inkscape:connector-curvature="0" />
</svg>
