<?xml version="1.0" encoding="UTF-8" standalone="no"?>
<svg
   xmlns:dc="http://purl.org/dc/elements/1.1/"
   xmlns:cc="http://creativecommons.org/ns#"
   xmlns:rdf="http://www.w3.org/1999/02/22-rdf-syntax-ns#"
   xmlns:svg="http://www.w3.org/2000/svg"
   xmlns="http://www.w3.org/2000/svg"
   xmlns:sodipodi="http://sodipodi.sourceforge.net/DTD/sodipodi-0.dtd"
   xmlns:inkscape="http://www.inkscape.org/namespaces/inkscape"
   width="90.597931"
   height="90.597931"
   viewBox="0 0 255.68748 255.68749"
   version="1.1"
   id="svg2"
   inkscape:version="0.48.2 r9819"
   sodipodi:docname="MUTCD RS-062.svg">
  <metadata
     id="metadata62">
    <rdf:RDF>
      <cc:Work
         rdf:about="">
        <dc:format>image/svg+xml</dc:format>
        <dc:type
           rdf:resource="http://purl.org/dc/dcmitype/StillImage" />
        <dc:title></dc:title>
      </cc:Work>
    </rdf:RDF>
  </metadata>
  <defs
     id="defs60">
    <clipPath
       clipPathUnits="userSpaceOnUse"
       id="clipPath3564">
      <path
         inkscape:connector-curvature="0"
         d="m 63,43 512.622,0 0,313.129 L 63,356.129 63,43 z"
         id="path3566" />
    </clipPath>
  </defs>
  <sodipodi:namedview
     pagecolor="#ffffff"
     bordercolor="#666666"
     borderopacity="1"
     objecttolerance="10"
     gridtolerance="10"
     guidetolerance="10"
     inkscape:pageopacity="0"
     inkscape:pageshadow="2"
     inkscape:window-width="1280"
     inkscape:window-height="1004"
     id="namedview58"
     showgrid="false"
     fit-margin-top="0"
     fit-margin-left="0"
     fit-margin-right="0"
     fit-margin-bottom="0"
     inkscape:zoom="4.8826954"
     inkscape:cx="83.159137"
     inkscape:cy="32.525196"
     inkscape:window-x="-8"
     inkscape:window-y="-8"
     inkscape:window-maximized="1"
     inkscape:current-layer="svg2"
     showguides="true"
     inkscape:guide-bbox="true" />
  <polygon
     points="315,545 235,375 315,205 395,375 "
     id="polygon10"
     style="fill:none;stroke:#ffffff;stroke-width:40"
     transform="translate(17744.427,14390.473)" />
  <!-- draw the bicycle -->
  <!-- RIGHT -->
  <!-- LANE -->
  <!-- ONLY -->
  <path
     inkscape:connector-curvature="0"
     d="m 22.004643,254.8459 211.663127,0 c 5.57392,0 11.02432,-2.2577 14.97189,-6.2088 3.94053,-3.937 6.1948,-9.3839 6.1948,-14.9578 l 0,-211.6632 c 0,-5.5738 -2.25426,-11.0207 -6.1948,-14.9718 -3.94757,-3.937 -9.39797,-6.1948 -14.97189,-6.1948 l -211.663127,0 c -5.57036,0 -11.02077,2.2578 -14.9577696,6.1948 -3.94759,3.9511 -6.20888999,9.398 -6.20888999,14.9718 l 0,211.6632 c 0,7.2566 3.85232999,14.1111 9.96243959,18.0058 3.48545,2.2154 7.16845,2.7375 11.20422,3.1608"
     style="fill:#ffffff;fill-opacity:1;fill-rule:nonzero;stroke:#000000;stroke-width:1.69333339;stroke-miterlimit:4;stroke-opacity:1;stroke-dasharray:none"
     id="path3026" />
  <path
     inkscape:connector-curvature="0"
     d="m 22.004643,249.5543 c -3.15383,0 -5.80672,-0.7091 -8.36083,-2.3284 -4.6249196,-2.9421 -7.5141696,-8.1385 -7.5141696,-13.5466 l 0,-211.6632 c 0,-4.1733 1.69334,-8.2691 4.6566696,-11.2324 2.94217,-2.9422 7.0485,-4.6426 11.21833,-4.6426 l 211.663127,0 c 4.18397,0 8.29028,1.6898 11.23245,4.6426 2.95277,2.9422 4.64255,7.0485 4.64255,11.2324 l 0,211.6632 c 0,4.1698 -1.70035,8.2761 -4.64255,11.2183 -2.96333,2.9633 -7.05555,4.6567 -11.23245,4.6567 l -211.663127,0 z"
     style="fill:#713907;fill-opacity:1;fill-rule:evenodd;stroke:none"
     id="path3050" />
  <path
     d="m 226.86031,217.23838 c -47.879,0.71614 -97.89582,-8.43492 -136.232185,-39.2183 -0.232833,-0.23637 -0.331611,-0.51153 -0.331611,-0.86784 0,-0.70908 0.564444,-1.28764 1.287639,-1.28764 l 37.747217,0.0388 c 1.81681,0 3.32669,-1.48872 3.32669,-3.31964 0,-1.39347 -0.62794,-2.34244 -2.08844,-3.07975 l -34.134773,-16.2948 c -0.652639,-0.38806 -1.086555,-1.1042 -1.086555,-1.91559 0,-0.61383 0.254,-1.17122 0.659694,-1.58044 0,0 41.588964,-36.75945 130.852324,-35.94453 l 0,103.46972 z m -80.04175,-58.24361 c 4.44853,0 8.06803,-3.61597 8.06803,-8.08214 0,-4.45558 -3.6195,-8.06803 -8.06803,-8.06803 -4.45911,0 -8.08919,3.61245 -8.08919,8.06803 0,4.46617 3.63008,8.08214 8.08919,8.08214"
     style="fill:#ffffff;fill-opacity:1;fill-rule:nonzero;stroke:none"
     id="path11746"
     inkscape:connector-curvature="0" />
  <path
     d="m 60.857562,135.15052 0.01072,0.003 c -7.020274,6.37468 -17.864663,5.85963 -24.232302,-1.16418 -6.364111,-7.00617 -5.834944,-17.85055 1.178278,-24.21819 0,0 1.964972,-2.46592 6.939139,-4.18747 l 16.076084,-5.47864 -15.419918,17.51541 0.01411,-6.30414 c -1.464027,0.508 -2.818694,1.30881 -4.039305,2.40242 -4.822471,4.38856 -5.175249,11.86039 -0.800805,16.68286 4.399139,4.83658 11.895667,5.18231 16.725195,0.79022 15.384639,-13.87475 31.612417,-30.56466 49.050222,-46.122162 -0.43392,-0.98425 -0.67028,-2.120194 -0.67028,-3.266722 0,-4.455583 3.60539,-8.075083 8.07861,-8.075083 1.49225,0 2.95275,0.426861 4.15925,1.146528 26.56769,-21.886332 56.23277,-39.274749 90.7168,-39.66986 5.96195,-0.05997 10.94317,0.567973 18.21745,2.123723 l 0,4.776611 c -7.27428,-1.559278 -11.8992,-2.370667 -17.85761,-2.303639 -32.75189,0.381 -61.81373,17.7165 -87.73936,39.108942 0.37042,0.924278 0.56444,1.8415 0.56444,2.892778 0,4.466167 -3.60538,8.082139 -8.06097,8.082139 -1.48166,0 -2.91747,-0.342195 -4.12044,-1.037167 C 91.895091,104.72683 75.684953,121.69896 61.055258,134.89991"
     style="fill:#ffffff;fill-opacity:1;fill-rule:nonzero;stroke:none"
     id="path11750"
     inkscape:connector-curvature="0" />
</svg>
