<?xml version="1.0" encoding="UTF-8" standalone="no"?>
<svg
   xmlns:dc="http://purl.org/dc/elements/1.1/"
   xmlns:cc="http://creativecommons.org/ns#"
   xmlns:rdf="http://www.w3.org/1999/02/22-rdf-syntax-ns#"
   xmlns:svg="http://www.w3.org/2000/svg"
   xmlns="http://www.w3.org/2000/svg"
   xmlns:sodipodi="http://sodipodi.sourceforge.net/DTD/sodipodi-0.dtd"
   xmlns:inkscape="http://www.inkscape.org/namespaces/inkscape"
   width="90.597931"
   height="90.597931"
   viewBox="0 0 255.68748 255.68749"
   version="1.1"
   id="svg2"
   inkscape:version="0.48.2 r9819"
   sodipodi:docname="MUTCD RS-063.svg">
  <metadata
     id="metadata62">
    <rdf:RDF>
      <cc:Work
         rdf:about="">
        <dc:format>image/svg+xml</dc:format>
        <dc:type
           rdf:resource="http://purl.org/dc/dcmitype/StillImage" />
        <dc:title></dc:title>
      </cc:Work>
    </rdf:RDF>
  </metadata>
  <defs
     id="defs60">
    <clipPath
       clipPathUnits="userSpaceOnUse"
       id="clipPath3564">
      <path
         inkscape:connector-curvature="0"
         d="m 63,43 512.622,0 0,313.129 L 63,356.129 63,43 z"
         id="path3566" />
    </clipPath>
  </defs>
  <sodipodi:namedview
     pagecolor="#ffffff"
     bordercolor="#666666"
     borderopacity="1"
     objecttolerance="10"
     gridtolerance="10"
     guidetolerance="10"
     inkscape:pageopacity="0"
     inkscape:pageshadow="2"
     inkscape:window-width="1280"
     inkscape:window-height="1004"
     id="namedview58"
     showgrid="false"
     fit-margin-top="0"
     fit-margin-left="0"
     fit-margin-right="0"
     fit-margin-bottom="0"
     inkscape:zoom="4.8826954"
     inkscape:cx="83.159137"
     inkscape:cy="32.525196"
     inkscape:window-x="-8"
     inkscape:window-y="-8"
     inkscape:window-maximized="1"
     inkscape:current-layer="svg2"
     showguides="true"
     inkscape:guide-bbox="true" />
  <polygon
     points="315,545 235,375 315,205 395,375 "
     id="polygon10"
     style="fill:none;stroke:#ffffff;stroke-width:40"
     transform="translate(17744.427,14390.473)" />
  <!-- draw the bicycle -->
  <!-- RIGHT -->
  <!-- LANE -->
  <!-- ONLY -->
  <path
     inkscape:connector-curvature="0"
     d="m 22.004643,254.8459 211.663127,0 c 5.57392,0 11.02432,-2.2577 14.97189,-6.2088 3.94053,-3.937 6.1948,-9.3839 6.1948,-14.9578 l 0,-211.6632 c 0,-5.5738 -2.25426,-11.0207 -6.1948,-14.9718 -3.94757,-3.937 -9.39797,-6.1948 -14.97189,-6.1948 l -211.663127,0 c -5.57036,0 -11.02077,2.2578 -14.9577696,6.1948 -3.94759,3.9511 -6.20888999,9.398 -6.20888999,14.9718 l 0,211.6632 c 0,7.2566 3.85232999,14.1111 9.96243959,18.0058 3.48545,2.2154 7.16845,2.7375 11.20422,3.1608"
     style="fill:#ffffff;fill-opacity:1;fill-rule:nonzero;stroke:#000000;stroke-width:1.69333339;stroke-miterlimit:4;stroke-opacity:1;stroke-dasharray:none"
     id="path3026" />
  <path
     inkscape:connector-curvature="0"
     d="m 22.004643,249.5543 c -3.15383,0 -5.80672,-0.7091 -8.36083,-2.3284 -4.6249196,-2.9421 -7.5141696,-8.1385 -7.5141696,-13.5466 l 0,-211.6632 c 0,-4.1733 1.69334,-8.2691 4.6566696,-11.2324 2.94217,-2.9422 7.0485,-4.6426 11.21833,-4.6426 l 211.663127,0 c 4.18397,0 8.29028,1.6898 11.23245,4.6426 2.95277,2.9422 4.64255,7.0485 4.64255,11.2324 l 0,211.6632 c 0,4.1698 -1.70035,8.2761 -4.64255,11.2183 -2.96333,2.9633 -7.05555,4.6567 -11.23245,4.6567 l -211.663127,0 z"
     style="fill:#713907;fill-opacity:1;fill-rule:evenodd;stroke:none"
     id="path3050" />
  <path
     d="m 98.574572,79.51027 c 10.100028,0 18.287998,-8.1915 18.287998,-18.291527 0,-10.110611 -8.18797,-18.302111 -18.287998,-18.302111 -10.107084,0 -18.298584,8.1915 -18.298584,18.302111 0,10.100027 8.1915,18.291527 18.298584,18.291527"
     style="fill:#ffffff;fill-opacity:1;fill-rule:nonzero;stroke:none"
     id="path11754"
     inkscape:connector-curvature="0" />
  <path
     d="m 31.07125,179.55804 c 4.307417,0 8.399639,-1.00188 12.093222,-2.65994 3.781778,-1.75683 8.060972,-2.79047 12.513028,-2.79047 4.448528,0 8.706555,1.03364 12.505972,2.79047 3.690055,1.65806 7.831667,2.63172 12.153194,2.63172 4.321528,0 8.452556,-0.97366 12.132028,-2.63172 3.795889,-1.75683 8.064496,-2.79047 12.527136,-2.79047 4.45206,0 8.71009,1.03364 12.50597,2.79047 3.67948,1.65806 7.8352,2.63172 12.1532,2.63172 4.30741,0 8.44197,-0.97366 12.13555,-2.63172 3.79589,-1.75683 8.06097,-2.79047 12.51303,-2.79047 4.44853,0 8.72067,1.03364 12.50597,2.79047 3.69359,1.65806 7.84578,2.63172 12.1532,2.63172 4.32152,0 8.43844,-0.97366 12.14613,-2.63172 3.78178,-1.75683 8.06098,-2.79047 12.51303,-2.79047 3.79589,0 7.50359,0.7373 10.83734,2.05316 5.4363,-5.93372 8.78769,-13.85005 8.78769,-22.52486 0,-18.40441 -14.91897,-33.32691 -33.30928,-33.32691 l -3.75355,0.40569 c -4.06753,16.62642 -20.69747,17.30728 -20.69747,17.30728 l -76.111807,-0.0212 -6.342945,-3.72534 15.307028,-25.76336 16.799274,9.70845 c 10.08239,6.52991 15.31056,-2.61056 15.31056,-2.61056 L 147.28683,88.142742 C 154.61402,76.218854 139.06711,66.672687 131.78577,78.62127 L 120.003,97.879409 91.995972,82.378354 C 72.579083,71.551604 64.359361,89.472715 64.359361,89.472715 L 42.328389,127.1776 c -3.732389,7.84225 -0.370417,11.20423 -0.370417,11.20423 l -10.900833,-0.0141 0.01411,41.19033 z"
     style="fill:#ffffff;fill-opacity:1;fill-rule:nonzero;stroke:none"
     id="path11758"
     inkscape:connector-curvature="0" />
  <path
     d="m 228.28249,204.80282 c -4.32153,0 -8.46314,-0.97366 -12.15319,-2.63172 -3.79589,-1.75683 -8.05745,-2.79047 -12.50598,-2.79047 -4.45205,0 -8.73125,1.03364 -12.51302,2.79047 -3.7077,1.65806 -7.82814,2.63172 -12.14614,2.63172 -4.30742,0 -8.46314,-0.97366 -12.15672,-2.63172 -3.78178,-1.75683 -8.05392,-2.79047 -12.50598,-2.79047 -4.44852,0 -8.71361,1.03364 -12.51302,2.79047 -3.69359,1.65806 -7.82462,2.63172 -12.13203,2.63172 -4.32153,0 -8.47372,-0.97366 -12.15319,-2.63172 -3.79942,-1.75683 -8.05745,-2.79047 -12.50598,-2.79047 -4.46616,0 -8.731246,1.03364 -12.527135,2.79047 -3.679472,1.65806 -7.814028,2.63172 -12.135555,2.63172 -4.318,0 -8.459611,-0.97366 -12.153195,-2.63172 -3.795889,-1.75683 -8.053916,-2.79047 -12.505972,-2.79047 -4.452055,0 -8.727722,1.03364 -12.513027,2.79047 -3.690056,1.65806 -7.824612,2.63172 -12.146139,2.63172 l 0,-18.20333 c 4.321527,0 8.456083,-0.97367 12.146139,-2.63172 3.785305,-1.76036 8.060972,-2.79048 12.513027,-2.79048 4.452056,0 8.710083,1.03012 12.505972,2.79048 3.693584,1.65805 7.835195,2.63172 12.153195,2.63172 4.321527,0 8.456083,-0.97367 12.135555,-2.63172 3.795889,-1.76036 8.060975,-2.79048 12.527135,-2.79048 4.44853,0 8.70656,1.03012 12.50598,2.79048 3.67947,1.65805 7.83166,2.63172 12.15319,2.63172 4.30741,0 8.43844,-0.97367 12.13203,-2.63172 3.79941,-1.76036 8.0645,-2.79048 12.51302,-2.79048 4.45206,0 8.7242,1.03012 12.50598,2.79048 3.69358,1.65805 7.8493,2.63172 12.15672,2.63172 4.318,0 8.43844,-0.97367 12.14614,-2.63172 3.78177,-1.76036 8.06097,-2.79048 12.51302,-2.79048 4.44853,0 8.71009,1.03012 12.50598,2.79048 3.69005,1.65805 7.83166,2.63172 12.15319,2.63172 l 0,18.20333 z"
     style="fill:#ffffff;fill-opacity:1;fill-rule:nonzero;stroke:none"
     id="path11762"
     inkscape:connector-curvature="0" />
</svg>
