<?xml version="1.0" encoding="UTF-8" standalone="no"?>
<svg
   xmlns:dc="http://purl.org/dc/elements/1.1/"
   xmlns:cc="http://creativecommons.org/ns#"
   xmlns:rdf="http://www.w3.org/1999/02/22-rdf-syntax-ns#"
   xmlns:svg="http://www.w3.org/2000/svg"
   xmlns="http://www.w3.org/2000/svg"
   xmlns:sodipodi="http://sodipodi.sourceforge.net/DTD/sodipodi-0.dtd"
   xmlns:inkscape="http://www.inkscape.org/namespaces/inkscape"
   width="90.597931"
   height="90.597931"
   viewBox="0 0 255.68748 255.68749"
   version="1.1"
   id="svg2"
   inkscape:version="0.48.2 r9819"
   sodipodi:docname="MUTCD RS-045.svg">
  <metadata
     id="metadata62">
    <rdf:RDF>
      <cc:Work
         rdf:about="">
        <dc:format>image/svg+xml</dc:format>
        <dc:type
           rdf:resource="http://purl.org/dc/dcmitype/StillImage" />
        <dc:title></dc:title>
      </cc:Work>
    </rdf:RDF>
  </metadata>
  <defs
     id="defs60">
    <clipPath
       clipPathUnits="userSpaceOnUse"
       id="clipPath3564">
      <path
         inkscape:connector-curvature="0"
         d="m 63,43 512.622,0 0,313.129 L 63,356.129 63,43 z"
         id="path3566" />
    </clipPath>
  </defs>
  <sodipodi:namedview
     pagecolor="#ffffff"
     bordercolor="#666666"
     borderopacity="1"
     objecttolerance="10"
     gridtolerance="10"
     guidetolerance="10"
     inkscape:pageopacity="0"
     inkscape:pageshadow="2"
     inkscape:window-width="1280"
     inkscape:window-height="1004"
     id="namedview58"
     showgrid="false"
     fit-margin-top="0"
     fit-margin-left="0"
     fit-margin-right="0"
     fit-margin-bottom="0"
     inkscape:zoom="4.8826954"
     inkscape:cx="83.159137"
     inkscape:cy="32.525196"
     inkscape:window-x="-8"
     inkscape:window-y="-8"
     inkscape:window-maximized="1"
     inkscape:current-layer="svg2"
     showguides="true"
     inkscape:guide-bbox="true" />
  <polygon
     points="315,545 235,375 315,205 395,375 "
     id="polygon10"
     style="fill:none;stroke:#ffffff;stroke-width:40"
     transform="translate(17744.427,14390.473)" />
  <!-- draw the bicycle -->
  <!-- RIGHT -->
  <!-- LANE -->
  <!-- ONLY -->
  <path
     inkscape:connector-curvature="0"
     d="m 22.004643,254.8459 211.663127,0 c 5.57392,0 11.02432,-2.2577 14.97189,-6.2088 3.94053,-3.937 6.1948,-9.3839 6.1948,-14.9578 l 0,-211.6632 c 0,-5.5738 -2.25426,-11.0207 -6.1948,-14.9718 -3.94757,-3.937 -9.39797,-6.1948 -14.97189,-6.1948 l -211.663127,0 c -5.57036,0 -11.02077,2.2578 -14.9577696,6.1948 -3.94759,3.9511 -6.20888999,9.398 -6.20888999,14.9718 l 0,211.6632 c 0,7.2566 3.85232999,14.1111 9.96243959,18.0058 3.48545,2.2154 7.16845,2.7375 11.20422,3.1608"
     style="fill:#ffffff;fill-opacity:1;fill-rule:nonzero;stroke:#000000;stroke-width:1.69333339;stroke-miterlimit:4;stroke-opacity:1;stroke-dasharray:none"
     id="path3026" />
  <path
     inkscape:connector-curvature="0"
     d="m 22.004643,249.5543 c -3.15383,0 -5.80672,-0.7091 -8.36083,-2.3284 -4.6249196,-2.9421 -7.5141696,-8.1385 -7.5141696,-13.5466 l 0,-211.6632 c 0,-4.1733 1.69334,-8.2691 4.6566696,-11.2324 2.94217,-2.9422 7.0485,-4.6426 11.21833,-4.6426 l 211.663127,0 c 4.18397,0 8.29028,1.6898 11.23245,4.6426 2.95277,2.9422 4.64255,7.0485 4.64255,11.2324 l 0,211.6632 c 0,4.1698 -1.70035,8.2761 -4.64255,11.2183 -2.96333,2.9633 -7.05555,4.6567 -11.23245,4.6567 l -211.663127,0 z"
     style="fill:#713907;fill-opacity:1;fill-rule:evenodd;stroke:none"
     id="path3050" />
  <path
     d="m 229.39339,39.639341 0,-7.009695 -207.447443,78.478944 0,7.00969 207.447443,-78.478939 z"
     style="fill:#ffffff;fill-opacity:1;fill-rule:nonzero;stroke:none"
     id="path4488"
     inkscape:connector-curvature="0" />
  <path
     d="m 112.91675,69.939423 c 6.23006,0 11.2783,-5.04825 11.2783,-11.278305 0,-6.230056 -5.04824,-11.278306 -11.2783,-11.278306 -6.23005,0 -11.28536,5.04825 -11.28536,11.278306 0,6.230055 5.05531,11.278305 11.28536,11.278305"
     style="fill:#ffffff;fill-opacity:1;fill-rule:nonzero;stroke:none"
     id="path4492"
     inkscape:connector-curvature="0" />
  <path
     d="m 182.8373,123.41701 -50.30611,0 0,-40.770531 -7.01322,2.839861 0,37.93067 -50.754135,0 c -3.979333,0 -7.210778,3.23144 -7.210778,7.21783 l 0,75.68495 c 0,3.97933 3.231445,7.2143 7.210778,7.2143 l 108.073465,0 c 3.98286,0 7.21431,-3.23497 7.21431,-7.2143 l 0,-75.68495 c 0,-3.98639 -3.23145,-7.21783 -7.21431,-7.21783 m -76.71505,41.13389 c 0,2.15547 -1.75683,3.9123 -3.9123,3.9123 l -23.738421,0 c -2.162527,0 -3.912305,-1.75683 -3.912305,-3.9123 l 0,-23.74547 c 0,-2.15548 1.749778,-3.91231 3.912305,-3.91231 l 23.738421,0 c 2.15547,0 3.9123,1.75683 3.9123,3.91231 l 0,23.74547 z m 38.62564,-0.33161 c 0,2.17664 -1.75684,3.91936 -3.91936,3.91936 l -23.73842,0 c -2.16253,0 -3.9123,-1.74272 -3.9123,-3.91936 l 0,-23.73842 c 0,-2.15547 1.74977,-3.90525 3.9123,-3.90525 l 23.73842,0 c 2.16252,0 3.91936,1.74978 3.91936,3.90525 l 0,23.73842 z m 38.37869,0 c 0,2.17664 -1.74978,3.91936 -3.9123,3.91936 l -23.73842,0 c -2.16253,0 -3.91936,-1.74272 -3.91936,-3.91936 l 0,-23.73842 c 0,-2.15547 1.75683,-3.90525 3.91936,-3.90525 l 23.73842,0 c 2.16252,0 3.9123,1.74978 3.9123,3.90525 l 0,23.73842 z"
     style="fill:#ffffff;fill-opacity:1;fill-rule:nonzero;stroke:none"
     id="path4496"
     inkscape:connector-curvature="0" />
  <path
     d="m 139.8725,59.860562 c 6.22653,0 11.2783,-5.044722 11.2783,-11.278305 0,-6.223 -5.05177,-11.281833 -11.2783,-11.281833 -6.23006,0 -11.28183,5.058833 -11.28183,11.281833 0,6.233583 5.05177,11.278305 11.28183,11.278305"
     style="fill:#ffffff;fill-opacity:1;fill-rule:nonzero;stroke:none"
     id="path4500"
     inkscape:connector-curvature="0" />
</svg>
