<?xml version="1.0" encoding="UTF-8" standalone="no"?>
<svg
   xmlns:dc="http://purl.org/dc/elements/1.1/"
   xmlns:cc="http://creativecommons.org/ns#"
   xmlns:rdf="http://www.w3.org/1999/02/22-rdf-syntax-ns#"
   xmlns:svg="http://www.w3.org/2000/svg"
   xmlns="http://www.w3.org/2000/svg"
   xmlns:sodipodi="http://sodipodi.sourceforge.net/DTD/sodipodi-0.dtd"
   xmlns:inkscape="http://www.inkscape.org/namespaces/inkscape"
   width="90.597931"
   height="90.597931"
   viewBox="0 0 255.68748 255.68749"
   version="1.1"
   id="svg2"
   inkscape:version="0.48.2 r9819"
   sodipodi:docname="MUTCD RS-060.svg">
  <metadata
     id="metadata62">
    <rdf:RDF>
      <cc:Work
         rdf:about="">
        <dc:format>image/svg+xml</dc:format>
        <dc:type
           rdf:resource="http://purl.org/dc/dcmitype/StillImage" />
        <dc:title></dc:title>
      </cc:Work>
    </rdf:RDF>
  </metadata>
  <defs
     id="defs60">
    <clipPath
       clipPathUnits="userSpaceOnUse"
       id="clipPath3564">
      <path
         inkscape:connector-curvature="0"
         d="m 63,43 512.622,0 0,313.129 L 63,356.129 63,43 z"
         id="path3566" />
    </clipPath>
  </defs>
  <sodipodi:namedview
     pagecolor="#ffffff"
     bordercolor="#666666"
     borderopacity="1"
     objecttolerance="10"
     gridtolerance="10"
     guidetolerance="10"
     inkscape:pageopacity="0"
     inkscape:pageshadow="2"
     inkscape:window-width="1280"
     inkscape:window-height="1004"
     id="namedview58"
     showgrid="false"
     fit-margin-top="0"
     fit-margin-left="0"
     fit-margin-right="0"
     fit-margin-bottom="0"
     inkscape:zoom="4.8826954"
     inkscape:cx="83.159137"
     inkscape:cy="32.525196"
     inkscape:window-x="-8"
     inkscape:window-y="-8"
     inkscape:window-maximized="1"
     inkscape:current-layer="svg2"
     showguides="true"
     inkscape:guide-bbox="true" />
  <polygon
     points="315,545 235,375 315,205 395,375 "
     id="polygon10"
     style="fill:none;stroke:#ffffff;stroke-width:40"
     transform="translate(17744.427,14390.473)" />
  <!-- draw the bicycle -->
  <!-- RIGHT -->
  <!-- LANE -->
  <!-- ONLY -->
  <path
     inkscape:connector-curvature="0"
     d="m 22.004643,254.8459 211.663127,0 c 5.57392,0 11.02432,-2.2577 14.97189,-6.2088 3.94053,-3.937 6.1948,-9.3839 6.1948,-14.9578 l 0,-211.6632 c 0,-5.5738 -2.25426,-11.0207 -6.1948,-14.9718 -3.94757,-3.937 -9.39797,-6.1948 -14.97189,-6.1948 l -211.663127,0 c -5.57036,0 -11.02077,2.2578 -14.9577696,6.1948 -3.94759,3.9511 -6.20888999,9.398 -6.20888999,14.9718 l 0,211.6632 c 0,7.2566 3.85232999,14.1111 9.96243959,18.0058 3.48545,2.2154 7.16845,2.7375 11.20422,3.1608"
     style="fill:#ffffff;fill-opacity:1;fill-rule:nonzero;stroke:#000000;stroke-width:1.69333339;stroke-miterlimit:4;stroke-opacity:1;stroke-dasharray:none"
     id="path3026" />
  <path
     inkscape:connector-curvature="0"
     d="m 22.004643,249.5543 c -3.15383,0 -5.80672,-0.7091 -8.36083,-2.3284 -4.6249196,-2.9421 -7.5141696,-8.1385 -7.5141696,-13.5466 l 0,-211.6632 c 0,-4.1733 1.69334,-8.2691 4.6566696,-11.2324 2.94217,-2.9422 7.0485,-4.6426 11.21833,-4.6426 l 211.663127,0 c 4.18397,0 8.29028,1.6898 11.23245,4.6426 2.95277,2.9422 4.64255,7.0485 4.64255,11.2324 l 0,211.6632 c 0,4.1698 -1.70035,8.2761 -4.64255,11.2183 -2.96333,2.9633 -7.05555,4.6567 -11.23245,4.6567 l -211.663127,0 z"
     style="fill:#713907;fill-opacity:1;fill-rule:evenodd;stroke:none"
     id="path3050" />
  <path
     d="m 228.28251,204.80282 c -4.31447,0 -8.45608,-0.97367 -12.16378,-2.62467 -3.78178,-1.76036 -8.04686,-2.794 -12.49891,-2.794 -4.45559,0 -8.72067,1.03364 -12.5095,2.794 -3.69359,1.651 -7.84225,2.62467 -12.14967,2.62467 -4.31094,0 -8.45256,-0.97367 -12.14614,-2.62467 -3.79589,-1.76036 -8.05392,-2.794 -12.51303,-2.794 -4.45205,0 -8.71714,1.03364 -12.50597,2.794 -3.69358,1.651 -7.84225,2.62467 -12.1532,2.62467 -4.30741,0 -8.44197,-0.97367 -12.14966,-2.62467 -3.78178,-1.76036 -8.05392,-2.794 -12.5095,-2.794 -4.45206,0 -8.710087,1.03364 -12.505975,2.794 -3.693584,1.651 -7.835195,2.62467 -12.156723,2.62467 -4.296833,0 -8.438444,-0.97367 -12.139083,-2.62467 -3.781777,-1.76036 -8.053916,-2.794 -12.520083,-2.794 -4.445,0 -8.710083,1.03364 -12.498916,2.794 -3.693584,1.651 -7.84225,2.62467 -12.146139,2.62467 l 0,-18.20686 c 4.303889,0 8.452555,-0.97014 12.146139,-2.62467 3.788833,-1.76389 8.053916,-2.79047 12.498916,-2.79047 4.466167,0 8.738306,1.02658 12.520083,2.79047 3.700639,1.65453 7.84225,2.62467 12.139083,2.62467 4.321528,0 8.463139,-0.97014 12.156723,-2.62467 3.795888,-1.76389 8.053915,-2.79047 12.505975,-2.79047 4.45558,0 8.72772,1.02658 12.5095,2.79047 3.70769,1.65453 7.84225,2.62467 12.14966,2.62467 4.31095,0 8.45962,-0.97014 12.1532,-2.62467 3.78883,-1.76389 8.05392,-2.79047 12.50597,-2.79047 4.45911,0 8.71714,1.02658 12.51303,2.79047 3.69358,1.65453 7.8352,2.62467 12.14614,2.62467 4.30742,0 8.45608,-0.97014 12.14967,-2.62467 3.78883,-1.76389 8.05391,-2.79047 12.5095,-2.79047 4.45205,0 8.71713,1.02658 12.49891,2.79047 3.7077,1.65453 7.84931,2.62467 12.16378,2.62467 l 0,18.20686 z"
     style="fill:#ffffff;fill-opacity:1;fill-rule:nonzero;stroke:none"
     id="path11672"
     inkscape:connector-curvature="0" />
  <path
     d="m 197.1922,162.01441 c 12.96812,0 23.48089,-10.52336 23.48089,-23.48442 0,-12.97164 -10.51277,-23.48089 -23.48089,-23.48089 -12.97516,0 -23.48794,10.50925 -23.48794,23.48089 0,12.96106 9.57792,23.48442 23.48794,23.48442"
     style="fill:#ffffff;fill-opacity:1;fill-rule:nonzero;stroke:none"
     id="path11676"
     inkscape:connector-curvature="0" />
  <path
     d="m 63.034342,175.22946 c 1.785055,0.46214 3.513666,1.08656 5.147027,1.85208 3.700639,1.65453 7.84225,2.62467 12.139083,2.62467 4.321528,0 8.463139,-0.97014 12.156723,-2.62467 3.795888,-1.76388 8.053915,-2.79752 12.505975,-2.79752 4.45558,0 8.72772,1.03364 12.5095,2.79752 3.70769,1.65453 7.84225,2.62467 12.14966,2.62467 4.31095,0 8.45962,-0.97014 12.1532,-2.62467 3.78883,-1.76388 8.05392,-2.79752 12.50597,-2.79752 4.45911,0 8.71714,1.03364 12.51303,2.79752 3.69358,1.65453 7.8352,2.62467 12.14614,2.62467 3.14325,0 6.18772,-0.51505 9.04875,-1.43933 l -39.12306,-70.62258 45.52245,-8.332613 c 6.67103,-1.273528 11.4935,-6.494639 11.4935,-13.250333 0,-7.390695 -5.9937,-13.380861 -13.38792,-13.380861 -0.51153,0 -1.02658,0.02822 -1.53105,0.09172 l -70.29804,12.788194 c -4.94947,1.150056 -11.48644,8.357306 -7.7858,17.250831 0.19755,0.48331 0.38453,0.9525 0.61736,1.40759 l 18.33034,33.15405 -68.812838,37.85658 z"
     style="fill:#ffffff;fill-opacity:1;fill-rule:nonzero;stroke:none"
     id="path11684"
     inkscape:connector-curvature="0" />
</svg>
