<?xml version="1.0" encoding="UTF-8" standalone="no"?>
<svg
   xmlns:dc="http://purl.org/dc/elements/1.1/"
   xmlns:cc="http://creativecommons.org/ns#"
   xmlns:rdf="http://www.w3.org/1999/02/22-rdf-syntax-ns#"
   xmlns:svg="http://www.w3.org/2000/svg"
   xmlns="http://www.w3.org/2000/svg"
   xmlns:sodipodi="http://sodipodi.sourceforge.net/DTD/sodipodi-0.dtd"
   xmlns:inkscape="http://www.inkscape.org/namespaces/inkscape"
   width="90.597931"
   height="90.597931"
   viewBox="0 0 255.68748 255.68749"
   version="1.1"
   id="svg2"
   inkscape:version="0.48.2 r9819"
   sodipodi:docname="MUTCD RS-076.svg">
  <metadata
     id="metadata62">
    <rdf:RDF>
      <cc:Work
         rdf:about="">
        <dc:format>image/svg+xml</dc:format>
        <dc:type
           rdf:resource="http://purl.org/dc/dcmitype/StillImage" />
        <dc:title></dc:title>
      </cc:Work>
    </rdf:RDF>
  </metadata>
  <defs
     id="defs60">
    <clipPath
       clipPathUnits="userSpaceOnUse"
       id="clipPath3564">
      <path
         inkscape:connector-curvature="0"
         d="m 63,43 512.622,0 0,313.129 L 63,356.129 63,43 z"
         id="path3566" />
    </clipPath>
  </defs>
  <sodipodi:namedview
     pagecolor="#ffffff"
     bordercolor="#666666"
     borderopacity="1"
     objecttolerance="10"
     gridtolerance="10"
     guidetolerance="10"
     inkscape:pageopacity="0"
     inkscape:pageshadow="2"
     inkscape:window-width="1280"
     inkscape:window-height="1004"
     id="namedview58"
     showgrid="false"
     fit-margin-top="0"
     fit-margin-left="0"
     fit-margin-right="0"
     fit-margin-bottom="0"
     inkscape:zoom="4.8826954"
     inkscape:cx="83.159137"
     inkscape:cy="32.525196"
     inkscape:window-x="-8"
     inkscape:window-y="-8"
     inkscape:window-maximized="1"
     inkscape:current-layer="svg2"
     showguides="true"
     inkscape:guide-bbox="true" />
  <polygon
     points="315,545 235,375 315,205 395,375 "
     id="polygon10"
     style="fill:none;stroke:#ffffff;stroke-width:40"
     transform="translate(17744.427,14390.473)" />
  <!-- draw the bicycle -->
  <!-- RIGHT -->
  <!-- LANE -->
  <!-- ONLY -->
  <path
     inkscape:connector-curvature="0"
     d="m 22.004643,254.8459 211.663127,0 c 5.57392,0 11.02432,-2.2577 14.97189,-6.2088 3.94053,-3.937 6.1948,-9.3839 6.1948,-14.9578 l 0,-211.6632 c 0,-5.5738 -2.25426,-11.0207 -6.1948,-14.9718 -3.94757,-3.937 -9.39797,-6.1948 -14.97189,-6.1948 l -211.663127,0 c -5.57036,0 -11.02077,2.2578 -14.9577696,6.1948 -3.94759,3.9511 -6.20888999,9.398 -6.20888999,14.9718 l 0,211.6632 c 0,7.2566 3.85232999,14.1111 9.96243959,18.0058 3.48545,2.2154 7.16845,2.7375 11.20422,3.1608"
     style="fill:#ffffff;fill-opacity:1;fill-rule:nonzero;stroke:#000000;stroke-width:1.69333339;stroke-miterlimit:4;stroke-opacity:1;stroke-dasharray:none"
     id="path3026" />
  <path
     inkscape:connector-curvature="0"
     d="m 22.004643,249.5543 c -3.15383,0 -5.80672,-0.7091 -8.36083,-2.3284 -4.6249196,-2.9421 -7.5141696,-8.1385 -7.5141696,-13.5466 l 0,-211.6632 c 0,-4.1733 1.69334,-8.2691 4.6566696,-11.2324 2.94217,-2.9422 7.0485,-4.6426 11.21833,-4.6426 l 211.663127,0 c 4.18397,0 8.29028,1.6898 11.23245,4.6426 2.95277,2.9422 4.64255,7.0485 4.64255,11.2324 l 0,211.6632 c 0,4.1698 -1.70035,8.2761 -4.64255,11.2183 -2.96333,2.9633 -7.05555,4.6567 -11.23245,4.6567 l -211.663127,0 z"
     style="fill:#713907;fill-opacity:1;fill-rule:evenodd;stroke:none"
     id="path3050" />
  <path
     d="m 127.81104,163.31933 c -2.09902,0.79375 -4.44147,1.22767 -6.8333,1.22767 -2.63172,0 -5.19642,-0.29634 -7.53886,-0.96661 l -26.712336,61.3798 c -2.472972,5.64092 -9.200444,7.54239 -15.035389,4.25803 -5.827888,-3.27378 -8.572499,-10.50925 -6.103054,-16.15017 l 32.769526,-75.09227 41.754773,0 0,-7.00617 21.10317,-9.83192 c 5.55272,-2.68111 12.73175,1.90147 14.1993,7.78581 l 10.35756,41.51489 c 1.47461,5.89139 -2.11667,11.8498 -8.01159,13.31736 -5.89138,1.48166 -11.86038,-2.11667 -13.335,-7.99395 l -6.60752,-26.46539 -30.00728,14.02292 z"
     style="fill:#ffffff;fill-opacity:1;fill-rule:nonzero;stroke:none"
     id="path7984"
     inkscape:connector-curvature="0" />
  <path
     d="M 147.09034,120.30373 C 192.80682,97.606006 210.53743,19.906702 210.53743,13.429702 l -6.30061,0 c -2.34245,16.213666 -21.97806,81.050693 -57.14648,99.860808 l 0,7.01322 z"
     style="fill:#ffffff;fill-opacity:1;fill-rule:nonzero;stroke:none"
     id="path7988"
     inkscape:connector-curvature="0" />
  <path
     d="m 62.677684,103.29878 c 2.391833,3.77472 7.193138,5.40103 11.465277,3.66536 l 24.228777,-9.486192 -0.01411,33.520942 41.754772,0 0.0141,-38.82672 37.38386,-59.855804 c 2.77636,-4.3815 1.46756,-10.19175 -2.90689,-12.968111 -4.39561,-2.776361 -10.20586,-1.467556 -12.64355,2.790472 l -31.77821,50.856444 -19.15936,0.07761 c -1.22767,-0.02117 -2.46945,0.204611 -3.67242,0.694972 l -33.101136,12.954 -17.014471,-25.81275 c -2.808111,-4.360333 -8.632472,-5.626805 -12.999861,-2.822222 -4.360333,2.815166 -5.623278,8.639528 -2.818695,12.999861 l 21.261917,32.212137 z"
     style="fill:#ffffff;fill-opacity:1;fill-rule:nonzero;stroke:none"
     id="path7992"
     inkscape:connector-curvature="0" />
  <path
     d="m 116.3881,69.640254 c 9.18633,0 16.63347,-7.440083 16.63347,-16.626416 0,-9.17575 -7.44714,-16.626417 -16.63347,-16.626417 -9.17928,0 -16.633473,7.450667 -16.633473,16.626417 0,9.186333 7.454193,16.626416 16.633473,16.626416"
     style="fill:#ffffff;fill-opacity:1;fill-rule:nonzero;stroke:none"
     id="path7996"
     inkscape:connector-curvature="0" />
  <path
     d="m 140.11275,239.42831 0,-74.88413 -7.01674,3.28083 0,71.6033 7.01674,0 z"
     style="fill:#ffffff;fill-opacity:1;fill-rule:nonzero;stroke:none"
     id="path8000"
     inkscape:connector-curvature="0" />
</svg>
