<?xml version="1.0" encoding="UTF-8" standalone="no"?>
<svg
   xmlns:dc="http://purl.org/dc/elements/1.1/"
   xmlns:cc="http://creativecommons.org/ns#"
   xmlns:rdf="http://www.w3.org/1999/02/22-rdf-syntax-ns#"
   xmlns:svg="http://www.w3.org/2000/svg"
   xmlns="http://www.w3.org/2000/svg"
   xmlns:sodipodi="http://sodipodi.sourceforge.net/DTD/sodipodi-0.dtd"
   xmlns:inkscape="http://www.inkscape.org/namespaces/inkscape"
   width="90.597931"
   height="90.597931"
   viewBox="0 0 255.68748 255.68749"
   version="1.1"
   id="svg2"
   inkscape:version="0.48.2 r9819"
   sodipodi:docname="MUTCD RS-008.svg">
  <metadata
     id="metadata62">
    <rdf:RDF>
      <cc:Work
         rdf:about="">
        <dc:format>image/svg+xml</dc:format>
        <dc:type
           rdf:resource="http://purl.org/dc/dcmitype/StillImage" />
        <dc:title></dc:title>
      </cc:Work>
    </rdf:RDF>
  </metadata>
  <defs
     id="defs60">
    <clipPath
       clipPathUnits="userSpaceOnUse"
       id="clipPath3564">
      <path
         inkscape:connector-curvature="0"
         d="m 63,43 512.622,0 0,313.129 L 63,356.129 63,43 z"
         id="path3566" />
    </clipPath>
  </defs>
  <sodipodi:namedview
     pagecolor="#ffffff"
     bordercolor="#666666"
     borderopacity="1"
     objecttolerance="10"
     gridtolerance="10"
     guidetolerance="10"
     inkscape:pageopacity="0"
     inkscape:pageshadow="2"
     inkscape:window-width="1280"
     inkscape:window-height="1004"
     id="namedview58"
     showgrid="false"
     fit-margin-top="0"
     fit-margin-left="0"
     fit-margin-right="0"
     fit-margin-bottom="0"
     inkscape:zoom="4"
     inkscape:cx="48.704041"
     inkscape:cy="35.520564"
     inkscape:window-x="-8"
     inkscape:window-y="-8"
     inkscape:window-maximized="1"
     inkscape:current-layer="svg2"
     showguides="true"
     inkscape:guide-bbox="true" />
  <polygon
     points="235,375 315,205 395,375 315,545 "
     id="polygon10"
     style="fill:none;stroke:#ffffff;stroke-width:40"
     transform="translate(17618.396,14343.442)" />
  <!-- draw the bicycle -->
  <!-- RIGHT -->
  <!-- LANE -->
  <!-- ONLY -->
  <path
     inkscape:connector-curvature="0"
     d="m 22.008538,254.83715 211.663112,0 c 5.57389,0 11.02432,-2.2578 14.97188,-6.2089 3.94054,-3.937 6.19479,-9.3839 6.19479,-14.9578 l 0,-211.6667 c 0,-5.5738 -2.25425,-11.0207 -6.19479,-14.9718 -3.94756,-3.937 -9.39799,-6.1948 -14.97188,-6.1948 l -211.663112,0 c -5.57036,0 -11.02078,2.2578 -14.9577796,6.1948 -3.94758,3.9511 -6.20888999,9.398 -6.20888999,14.9718 l 0,211.6667 c 0,7.2531 3.85232999,14.1111 9.96244959,18.0058 3.48897,2.2154 7.16844,2.734 11.20422,3.1609"
     style="fill:#ffffff;fill-opacity:1;fill-rule:nonzero;stroke:#000000;stroke-width:1.69333331;stroke-miterlimit:4;stroke-opacity:1;stroke-dasharray:none"
     id="path3060" />
  <path
     inkscape:connector-curvature="0"
     d="m 22.008538,249.54545 c -3.15384,0 -5.80672,-0.7126 -8.36084,-2.3319 -4.6249096,-2.9421 -7.5141596,-8.135 -7.5141596,-13.5431 l 0,-211.6667 c 0,-4.1698 1.69333,-8.2655 4.6566596,-11.2289 2.94217,-2.9421 7.0485,-4.6461 11.21834,-4.6461 l 211.663112,0 c 4.18394,0 8.29028,1.6934 11.23244,4.6461 2.95628,2.9422 4.64256,7.0485 4.64256,11.2289 l 0,211.6667 c 0,4.1663 -1.70038,8.2726 -4.64256,11.2148 -2.96333,2.9669 -7.05554,4.6602 -11.23244,4.6602 l -211.663112,0 z"
     style="fill:#713907;fill-opacity:1;fill-rule:evenodd;stroke:none"
     id="path3084" />
  <path
     d="m 95.701549,203.53743 -70.234527,0 0.04939,-13.74422 70.185138,0 0,13.74422 z"
     style="fill:#ffffff;fill-opacity:1;fill-rule:nonzero;stroke:none"
     id="path3290"
     inkscape:connector-curvature="0" />
  <path
     d="m 95.701549,182.68085 -70.234527,0 0.04939,-13.74422 70.185138,0 0,13.74422 z"
     style="fill:#ffffff;fill-opacity:1;fill-rule:nonzero;stroke:none"
     id="path3294"
     inkscape:connector-curvature="0" />
  <path
     d="m 95.701549,161.82428 -70.234527,0 0.04939,-13.75128 70.185138,0 0,13.75128 z"
     style="fill:#ffffff;fill-opacity:1;fill-rule:nonzero;stroke:none"
     id="path3298"
     inkscape:connector-curvature="0" />
  <path
     d="m 95.701549,140.9677 -70.234527,0 0.04939,-13.74775 70.185138,0 0,13.74775 z"
     style="fill:#ffffff;fill-opacity:1;fill-rule:nonzero;stroke:none"
     id="path3302"
     inkscape:connector-curvature="0" />
  <path
     d="m 126.6578,57.251771 c -1.2947,-3.044472 -4.31447,-5.182305 -7.8352,-5.182305 l -16.28069,0.04939 0,151.391056 58.47645,0 L 126.6578,57.251771 z"
     style="fill:#ffffff;fill-opacity:1;fill-rule:nonzero;stroke:none"
     id="path3306"
     inkscape:connector-curvature="0" />
  <path
     d="m 95.701549,120.11113 -70.234527,0 0.04939,-13.74423 70.185138,0 0,13.74423 z"
     style="fill:#ffffff;fill-opacity:1;fill-rule:nonzero;stroke:none"
     id="path3310"
     inkscape:connector-curvature="0" />
  <path
     d="m 95.701549,99.254551 -70.234527,0 0.04939,-13.751277 70.185138,0 0,13.751277 z"
     style="fill:#ffffff;fill-opacity:1;fill-rule:nonzero;stroke:none"
     id="path3314"
     inkscape:connector-curvature="0" />
  <path
     d="m 95.701549,78.397977 -70.234527,0 0.04939,-13.744222 70.185138,0 0,13.744222 z"
     style="fill:#ffffff;fill-opacity:1;fill-rule:nonzero;stroke:none"
     id="path3318"
     inkscape:connector-curvature="0" />
  <path
     d="m 165.04355,191.55568 c 1.01247,0.17287 2.05317,0.26812 3.11503,0.26812 2.71286,0 5.31636,-0.60678 7.65528,-1.66159 2.38125,-1.10772 5.06941,-1.75683 7.874,-1.75683 2.80458,0 5.49275,0.64911 7.88105,1.75683 2.32833,1.05481 4.93536,1.66159 7.65528,1.66159 2.71639,0 5.32694,-0.60678 7.64822,-1.66159 2.39183,-1.10772 5.08,-1.75683 7.88458,-1.75683 2.80812,0 5.49628,0.64911 7.88106,1.75683 2.32833,1.05481 4.93183,1.66159 7.65528,1.66159 l 0,11.46527 c -2.72345,0 -5.32695,-0.61383 -7.65528,-1.65452 -2.38478,-1.10773 -5.07294,-1.76389 -7.88106,-1.76389 -2.80458,0 -5.49275,0.65616 -7.88458,1.76389 -2.32128,1.04069 -4.93183,1.65452 -7.64822,1.65452 -2.71992,0 -5.32695,-0.61383 -7.65528,-1.65452 -2.3883,-1.10773 -5.07647,-1.76389 -7.88105,-1.76389 -2.80459,0 -5.49275,0.65616 -7.874,1.76389 -2.33892,1.04069 -4.94242,1.65452 -7.65528,1.65452 -0.15875,0 -0.31045,0 -0.4692,-0.007 l -2.64583,-11.72634 z"
     style="fill:#ffffff;fill-opacity:1;fill-rule:nonzero;stroke:none"
     id="path3322"
     inkscape:connector-curvature="0" />
  <path
     d="m 160.5033,171.60857 c 2.32128,1.04775 4.93889,1.65453 7.65528,1.65453 2.71286,0 5.31636,-0.60678 7.65528,-1.65453 2.38125,-1.11478 5.06941,-1.75683 7.874,-1.75683 2.80458,0 5.49275,0.64205 7.88105,1.75683 2.32833,1.04775 4.93536,1.65453 7.65528,1.65453 2.71639,0 5.32694,-0.60678 7.64822,-1.65453 2.39183,-1.11478 5.08,-1.75683 7.88458,-1.75683 2.80812,0 5.49628,0.64205 7.88106,1.75683 2.32833,1.04775 4.93183,1.65453 7.65528,1.65453 l 0,11.47233 c -2.72345,0 -5.32695,-0.60678 -7.65528,-1.65453 -2.38478,-1.11477 -5.07294,-1.76388 -7.88106,-1.76388 -2.80458,0 -5.49275,0.64911 -7.88458,1.76388 -2.32128,1.04775 -4.93183,1.65453 -7.64822,1.65453 -2.71992,0 -5.32695,-0.60678 -7.65528,-1.65453 -2.3883,-1.11477 -5.07647,-1.76388 -7.88105,-1.76388 -2.80459,0 -5.49275,0.64911 -7.874,1.76388 -2.33892,1.04775 -4.94242,1.65453 -7.65528,1.65453 -1.68275,0 -3.31611,-0.23636 -4.87186,-0.66322 l -2.78342,-12.46364 z"
     style="fill:#ffffff;fill-opacity:1;fill-rule:nonzero;stroke:none"
     id="path3326"
     inkscape:connector-curvature="0" />
</svg>
