<?xml version="1.0" encoding="UTF-8" standalone="no"?>
<svg
   xmlns:dc="http://purl.org/dc/elements/1.1/"
   xmlns:cc="http://creativecommons.org/ns#"
   xmlns:rdf="http://www.w3.org/1999/02/22-rdf-syntax-ns#"
   xmlns:svg="http://www.w3.org/2000/svg"
   xmlns="http://www.w3.org/2000/svg"
   xmlns:sodipodi="http://sodipodi.sourceforge.net/DTD/sodipodi-0.dtd"
   xmlns:inkscape="http://www.inkscape.org/namespaces/inkscape"
   width="90.597931"
   height="90.597931"
   viewBox="0 0 255.68748 255.68749"
   version="1.1"
   id="svg2"
   inkscape:version="0.48.2 r9819"
   sodipodi:docname="MUTCD RS-021.svg">
  <metadata
     id="metadata62">
    <rdf:RDF>
      <cc:Work
         rdf:about="">
        <dc:format>image/svg+xml</dc:format>
        <dc:type
           rdf:resource="http://purl.org/dc/dcmitype/StillImage" />
        <dc:title></dc:title>
      </cc:Work>
    </rdf:RDF>
  </metadata>
  <defs
     id="defs60">
    <clipPath
       clipPathUnits="userSpaceOnUse"
       id="clipPath3564">
      <path
         inkscape:connector-curvature="0"
         d="m 63,43 512.622,0 0,313.129 L 63,356.129 63,43 z"
         id="path3566" />
    </clipPath>
  </defs>
  <sodipodi:namedview
     pagecolor="#ffffff"
     bordercolor="#666666"
     borderopacity="1"
     objecttolerance="10"
     gridtolerance="10"
     guidetolerance="10"
     inkscape:pageopacity="0"
     inkscape:pageshadow="2"
     inkscape:window-width="1280"
     inkscape:window-height="1004"
     id="namedview58"
     showgrid="false"
     fit-margin-top="0"
     fit-margin-left="0"
     fit-margin-right="0"
     fit-margin-bottom="0"
     inkscape:zoom="4.8826954"
     inkscape:cx="83.159137"
     inkscape:cy="32.525196"
     inkscape:window-x="-8"
     inkscape:window-y="-8"
     inkscape:window-maximized="1"
     inkscape:current-layer="svg2"
     showguides="true"
     inkscape:guide-bbox="true" />
  <polygon
     points="315,545 235,375 315,205 395,375 "
     id="polygon10"
     style="fill:none;stroke:#ffffff;stroke-width:40"
     transform="translate(17744.427,14390.473)" />
  <!-- draw the bicycle -->
  <!-- RIGHT -->
  <!-- LANE -->
  <!-- ONLY -->
  <path
     inkscape:connector-curvature="0"
     d="m 22.004643,254.8459 211.663127,0 c 5.57392,0 11.02432,-2.2577 14.97189,-6.2088 3.94053,-3.937 6.1948,-9.3839 6.1948,-14.9578 l 0,-211.6632 c 0,-5.5738 -2.25426,-11.0207 -6.1948,-14.9718 -3.94757,-3.937 -9.39797,-6.1948 -14.97189,-6.1948 l -211.663127,0 c -5.57036,0 -11.02077,2.2578 -14.9577696,6.1948 -3.94759,3.9511 -6.20888999,9.398 -6.20888999,14.9718 l 0,211.6632 c 0,7.2566 3.85232999,14.1111 9.96243959,18.0058 3.48545,2.2154 7.16845,2.7375 11.20422,3.1608"
     style="fill:#ffffff;fill-opacity:1;fill-rule:nonzero;stroke:#000000;stroke-width:1.69333339;stroke-miterlimit:4;stroke-opacity:1;stroke-dasharray:none"
     id="path3026" />
  <path
     inkscape:connector-curvature="0"
     d="m 22.004643,249.5543 c -3.15383,0 -5.80672,-0.7091 -8.36083,-2.3284 -4.6249196,-2.9421 -7.5141696,-8.1385 -7.5141696,-13.5466 l 0,-211.6632 c 0,-4.1733 1.69334,-8.2691 4.6566696,-11.2324 2.94217,-2.9422 7.0485,-4.6426 11.21833,-4.6426 l 211.663127,0 c 4.18397,0 8.29028,1.6898 11.23245,4.6426 2.95277,2.9422 4.64255,7.0485 4.64255,11.2324 l 0,211.6632 c 0,4.1698 -1.70035,8.2761 -4.64255,11.2183 -2.96333,2.9633 -7.05555,4.6567 -11.23245,4.6567 l -211.663127,0 z"
     style="fill:#713907;fill-opacity:1;fill-rule:evenodd;stroke:none"
     id="path3050" />
  <path
     d="m 120.08555,42.666499 18.27036,0 0,165.833781 -18.27036,0 0,-165.833781 z"
     style="fill:#ffffff;fill-opacity:1;fill-rule:nonzero;stroke:none"
     id="path3086"
     inkscape:connector-curvature="0" />
  <path
     d="m 76.894966,72.983515 c 9.398,0 14.904861,7.750528 16.323028,12.022667 l 11.549946,37.958888 c 2.31422,8.16328 -8.082141,11.54642 -10.555113,3.59128 l -10.392833,-34.857974 -4.720167,0 18.012834,62.004224 -16.598195,0 0,48.32703 c 0,8.24794 -12.386027,8.20561 -12.386027,0 l 0,-48.64453 -5.058833,0 0.0071,48.58455 c 0,8.30792 -12.442473,8.30792 -12.442473,0 l -0.0071,-48.26705 -16.647583,0 17.868194,-62.004224 -4.487334,0 -10.396361,34.981444 c -2.472971,7.62705 -12.953999,4.49086 -10.55511,-3.67947 L 37.955355,85.006182 C 39.190077,80.667015 44.668716,72.983515 54.15491,72.983515 l 22.740056,0 z"
     style="fill:#ffffff;fill-opacity:1;fill-rule:nonzero;stroke:none"
     id="path3090"
     inkscape:connector-curvature="0" />
  <path
     d="m 52.12291,56.674599 c 0,-7.440084 6.036029,-13.469056 13.476112,-13.469056 7.440083,0 13.469055,6.028972 13.469055,13.469056 0,7.440083 -6.028972,13.469055 -13.469055,13.469055 -7.440083,0 -13.476112,-6.028972 -13.476112,-13.469055"
     style="fill:#ffffff;fill-opacity:1;fill-rule:nonzero;stroke:none"
     id="path3094"
     inkscape:connector-curvature="0" />
  <path
     d="m 191.46661,69.924226 c 7.43303,0 13.46905,-6.028972 13.46905,-13.469055 0,-7.443611 -6.03602,-13.472584 -13.46905,-13.472584 -7.44009,0 -13.47611,6.028973 -13.47611,13.472584 0,7.440083 6.03602,13.469055 13.47611,13.469055"
     style="fill:#ffffff;fill-opacity:1;fill-rule:nonzero;stroke:none"
     id="path3098"
     inkscape:connector-curvature="0" />
  <path
     d="m 173.84183,200.54161 c 0,4.17689 3.38314,7.56003 7.54944,7.56003 4.16984,0 7.55298,-3.38314 7.55298,-7.56003 l 0.007,-63.35536 5.06589,0 -0.0212,63.35536 c 0,4.17689 3.37609,7.56003 7.54945,7.56003 4.16983,0 7.55297,-3.38314 7.55297,-7.56003 l 0.0282,-109.230584 5.00945,0 0,40.251944 c 0,8.1033 10.56922,8.1033 10.541,0 l 0,-41.112722 c 0,-8.942916 -6.95325,-17.709444 -17.4237,-17.709444 l -31.89111,-0.0175 c -9.53558,0 -17.2085,7.771695 -17.2085,17.480139 l 0,41.359667 c 0,8.04333 10.62214,8.04333 10.62214,0 l 0,-40.251945 5.08,0 -0.0141,109.230585 z"
     style="fill:#ffffff;fill-opacity:1;fill-rule:nonzero;stroke:none"
     id="path3102"
     inkscape:connector-curvature="0" />
</svg>
