<?xml version="1.0" encoding="UTF-8" standalone="no"?>
<svg
   xmlns:dc="http://purl.org/dc/elements/1.1/"
   xmlns:cc="http://creativecommons.org/ns#"
   xmlns:rdf="http://www.w3.org/1999/02/22-rdf-syntax-ns#"
   xmlns:svg="http://www.w3.org/2000/svg"
   xmlns="http://www.w3.org/2000/svg"
   xmlns:sodipodi="http://sodipodi.sourceforge.net/DTD/sodipodi-0.dtd"
   xmlns:inkscape="http://www.inkscape.org/namespaces/inkscape"
   width="90.597931"
   height="90.597931"
   viewBox="0 0 255.68748 255.68749"
   version="1.1"
   id="svg2"
   inkscape:version="0.48.2 r9819"
   sodipodi:docname="MUTCD RS-083.svg">
  <metadata
     id="metadata62">
    <rdf:RDF>
      <cc:Work
         rdf:about="">
        <dc:format>image/svg+xml</dc:format>
        <dc:type
           rdf:resource="http://purl.org/dc/dcmitype/StillImage" />
        <dc:title></dc:title>
      </cc:Work>
    </rdf:RDF>
  </metadata>
  <defs
     id="defs60">
    <clipPath
       clipPathUnits="userSpaceOnUse"
       id="clipPath3564">
      <path
         inkscape:connector-curvature="0"
         d="m 63,43 512.622,0 0,313.129 L 63,356.129 63,43 z"
         id="path3566" />
    </clipPath>
  </defs>
  <sodipodi:namedview
     pagecolor="#ffffff"
     bordercolor="#666666"
     borderopacity="1"
     objecttolerance="10"
     gridtolerance="10"
     guidetolerance="10"
     inkscape:pageopacity="0"
     inkscape:pageshadow="2"
     inkscape:window-width="1280"
     inkscape:window-height="1004"
     id="namedview58"
     showgrid="false"
     fit-margin-top="0"
     fit-margin-left="0"
     fit-margin-right="0"
     fit-margin-bottom="0"
     inkscape:zoom="4.8826954"
     inkscape:cx="83.159137"
     inkscape:cy="32.525196"
     inkscape:window-x="-8"
     inkscape:window-y="-8"
     inkscape:window-maximized="1"
     inkscape:current-layer="svg2"
     showguides="true"
     inkscape:guide-bbox="true" />
  <polygon
     points="315,545 235,375 315,205 395,375 "
     id="polygon10"
     style="fill:none;stroke:#ffffff;stroke-width:40"
     transform="translate(17744.427,14390.473)" />
  <!-- draw the bicycle -->
  <!-- RIGHT -->
  <!-- LANE -->
  <!-- ONLY -->
  <path
     inkscape:connector-curvature="0"
     d="m 22.004643,254.8459 211.663127,0 c 5.57392,0 11.02432,-2.2577 14.97189,-6.2088 3.94053,-3.937 6.1948,-9.3839 6.1948,-14.9578 l 0,-211.6632 c 0,-5.5738 -2.25426,-11.0207 -6.1948,-14.9718 -3.94757,-3.937 -9.39797,-6.1948 -14.97189,-6.1948 l -211.663127,0 c -5.57036,0 -11.02077,2.2578 -14.9577696,6.1948 -3.94759,3.9511 -6.20888999,9.398 -6.20888999,14.9718 l 0,211.6632 c 0,7.2566 3.85232999,14.1111 9.96243959,18.0058 3.48545,2.2154 7.16845,2.7375 11.20422,3.1608"
     style="fill:#ffffff;fill-opacity:1;fill-rule:nonzero;stroke:#000000;stroke-width:1.69333339;stroke-miterlimit:4;stroke-opacity:1;stroke-dasharray:none"
     id="path3026" />
  <path
     inkscape:connector-curvature="0"
     d="m 22.004643,249.5543 c -3.15383,0 -5.80672,-0.7091 -8.36083,-2.3284 -4.6249196,-2.9421 -7.5141696,-8.1385 -7.5141696,-13.5466 l 0,-211.6632 c 0,-4.1733 1.69334,-8.2691 4.6566696,-11.2324 2.94217,-2.9422 7.0485,-4.6426 11.21833,-4.6426 l 211.663127,0 c 4.18397,0 8.29028,1.6898 11.23245,4.6426 2.95277,2.9422 4.64255,7.0485 4.64255,11.2324 l 0,211.6632 c 0,4.1698 -1.70035,8.2761 -4.64255,11.2183 -2.96333,2.9633 -7.05555,4.6567 -11.23245,4.6567 l -211.663127,0 z"
     style="fill:#713907;fill-opacity:1;fill-rule:evenodd;stroke:none"
     id="path3050" />
  <path
     d="m 165.61152,54.911077 c 0,9.203972 -7.46125,16.658166 -16.66522,16.658166 -5.64445,0 -10.63273,-2.808111 -13.64192,-7.115528 l 5.25639,0.0071 c 3.49955,0 6.53697,-2.046111 7.97278,-5.009444 l 2.24366,-4.836584 c 0.127,-0.338666 0.44803,-0.585611 0.82903,-0.585611 l 14.00528,0 0,0.881945 z"
     style="fill:#ffffff;fill-opacity:1;fill-rule:nonzero;stroke:none"
     id="path8130"
     inkscape:connector-curvature="0" />
  <path
     d="m 168.7971,49.791918 c -2.2613,-8.847666 -10.29405,-15.374055 -19.8508,-15.374055 -11.31359,0 -20.48581,9.172222 -20.48581,20.492861 0,1.845028 0.23636,3.644194 0.69497,5.344583 l 11.40531,-0.01058 c 1.83091,0 3.43253,-1.075972 4.17336,-2.628195 l 2.20486,-4.822472 c 0.80081,-1.770944 2.59292,-3.002139 4.66725,-3.002139 l 17.19086,0 z"
     style="fill:#ffffff;fill-opacity:1;fill-rule:nonzero;stroke:none"
     id="path8134"
     inkscape:connector-curvature="0" />
  <path
     d="m 109.8236,64.612465 c 2.032,-1.661583 2.34244,-4.653139 0.68791,-6.685138 l -8.99583,-11.059584 c -1.647473,-2.039055 -4.660195,-2.335388 -6.692195,-0.694972 l -38.428082,31.27375 c -2.046111,1.661583 -2.3495,4.653138 -0.694973,6.685138 l 8.999361,11.059584 c 1.661584,2.039055 4.642556,2.335388 6.681611,0.687916 L 109.8236,64.612465 z"
     style="fill:#ffffff;fill-opacity:1;fill-rule:nonzero;stroke:none"
     id="path8138"
     inkscape:connector-curvature="0" />
  <path
     d="m 71.871763,108.81905 c -2.176638,1.65453 -4.049888,3.76766 -5.496277,6.29708 -1.351139,2.39183 -2.204861,4.93536 -2.564695,7.50358 l -10.950222,47.19108 -30.204833,29.04773 c -0.8255,0.77963 -1.562805,1.6898 -2.141361,2.7305 -3.178527,5.55272 -1.241777,12.62944 4.318,15.79033 4.487334,2.56469 9.9695,1.78505 13.574889,-1.52047 l 33.566805,-32.45203 c 0.504472,-0.57856 0.959556,-1.22061 1.36525,-1.90147 0.497417,-0.87489 0.860778,-1.778 1.118306,-2.69522 l 6.840361,-29.91203 22.468414,22.38728 -0.06,37.77897 c 0.0178,4.01108 2.11314,7.90222 5.84906,10.033 5.55977,3.16089 12.63649,1.22414 15.80444,-4.32859 1.1183,-1.97555 1.59102,-4.1275 1.50283,-6.24064 l 0.0353,-41.97702 c 0.0952,-2.99509 -0.97367,-5.93725 -3.02684,-8.1915 l -24.218185,-23.89364 27.858855,-22.8353 6.39939,17.82586 c 0.56444,1.17827 1.37231,2.22955 2.42711,3.0868 l 26.59592,20.17183 c 3.60891,2.19075 8.39964,1.64042 11.40177,-1.56986 3.44664,-3.68653 3.24556,-9.4615 -0.43391,-12.90461 -0.12347,-0.11642 -0.23284,-0.21519 -0.36336,-0.32455 L 150.22723,120.08324 139.44987,88.417909 c -1.72861,-4.148666 -4.79425,-7.792861 -9.00994,-10.184694 -7.17903,-4.099278 -15.75858,-3.485444 -22.16503,0.821972 L 71.871763,108.81905 z"
     style="fill:#ffffff;fill-opacity:1;fill-rule:nonzero;stroke:none"
     id="path8142"
     inkscape:connector-curvature="0" />
  <path
     d="m 175.12946,49.961604 c -0.75141,-0.694972 -1.22061,-1.693333 -1.22061,-2.801055 0,-2.123722 1.72156,-3.852334 3.83822,-3.852334 l 57.66506,0.05292 c 5.80672,0.01411 9.42269,16.538222 5.47511,29.478111 -3.70064,12.079111 -14.61206,27.558997 -19.80142,22.330833 L 175.12946,49.961604 z"
     style="fill:#ffffff;fill-opacity:1;fill-rule:nonzero;stroke:none"
     id="path8146"
     inkscape:connector-curvature="0" />
</svg>
