<?xml version="1.0" encoding="UTF-8" standalone="no"?>
<svg
   xmlns:dc="http://purl.org/dc/elements/1.1/"
   xmlns:cc="http://creativecommons.org/ns#"
   xmlns:rdf="http://www.w3.org/1999/02/22-rdf-syntax-ns#"
   xmlns:svg="http://www.w3.org/2000/svg"
   xmlns="http://www.w3.org/2000/svg"
   xmlns:sodipodi="http://sodipodi.sourceforge.net/DTD/sodipodi-0.dtd"
   xmlns:inkscape="http://www.inkscape.org/namespaces/inkscape"
   width="90.597931"
   height="90.597931"
   viewBox="0 0 255.68748 255.68749"
   version="1.1"
   id="svg2"
   inkscape:version="0.48.2 r9819"
   sodipodi:docname="MUTCD RS-073.svg">
  <metadata
     id="metadata62">
    <rdf:RDF>
      <cc:Work
         rdf:about="">
        <dc:format>image/svg+xml</dc:format>
        <dc:type
           rdf:resource="http://purl.org/dc/dcmitype/StillImage" />
        <dc:title></dc:title>
      </cc:Work>
    </rdf:RDF>
  </metadata>
  <defs
     id="defs60">
    <clipPath
       clipPathUnits="userSpaceOnUse"
       id="clipPath3564">
      <path
         inkscape:connector-curvature="0"
         d="m 63,43 512.622,0 0,313.129 L 63,356.129 63,43 z"
         id="path3566" />
    </clipPath>
  </defs>
  <sodipodi:namedview
     pagecolor="#ffffff"
     bordercolor="#666666"
     borderopacity="1"
     objecttolerance="10"
     gridtolerance="10"
     guidetolerance="10"
     inkscape:pageopacity="0"
     inkscape:pageshadow="2"
     inkscape:window-width="1280"
     inkscape:window-height="1004"
     id="namedview58"
     showgrid="false"
     fit-margin-top="0"
     fit-margin-left="0"
     fit-margin-right="0"
     fit-margin-bottom="0"
     inkscape:zoom="4.8826954"
     inkscape:cx="83.159137"
     inkscape:cy="32.525196"
     inkscape:window-x="-8"
     inkscape:window-y="-8"
     inkscape:window-maximized="1"
     inkscape:current-layer="svg2"
     showguides="true"
     inkscape:guide-bbox="true" />
  <polygon
     points="315,545 235,375 315,205 395,375 "
     id="polygon10"
     style="fill:none;stroke:#ffffff;stroke-width:40"
     transform="translate(17744.427,14390.473)" />
  <!-- draw the bicycle -->
  <!-- RIGHT -->
  <!-- LANE -->
  <!-- ONLY -->
  <path
     inkscape:connector-curvature="0"
     d="m 22.004643,254.8459 211.663127,0 c 5.57392,0 11.02432,-2.2577 14.97189,-6.2088 3.94053,-3.937 6.1948,-9.3839 6.1948,-14.9578 l 0,-211.6632 c 0,-5.5738 -2.25426,-11.0207 -6.1948,-14.9718 -3.94757,-3.937 -9.39797,-6.1948 -14.97189,-6.1948 l -211.663127,0 c -5.57036,0 -11.02077,2.2578 -14.9577696,6.1948 -3.94759,3.9511 -6.20888999,9.398 -6.20888999,14.9718 l 0,211.6632 c 0,7.2566 3.85232999,14.1111 9.96243959,18.0058 3.48545,2.2154 7.16845,2.7375 11.20422,3.1608"
     style="fill:#ffffff;fill-opacity:1;fill-rule:nonzero;stroke:#000000;stroke-width:1.69333339;stroke-miterlimit:4;stroke-opacity:1;stroke-dasharray:none"
     id="path3026" />
  <path
     inkscape:connector-curvature="0"
     d="m 22.004643,249.5543 c -3.15383,0 -5.80672,-0.7091 -8.36083,-2.3284 -4.6249196,-2.9421 -7.5141696,-8.1385 -7.5141696,-13.5466 l 0,-211.6632 c 0,-4.1733 1.69334,-8.2691 4.6566696,-11.2324 2.94217,-2.9422 7.0485,-4.6426 11.21833,-4.6426 l 211.663127,0 c 4.18397,0 8.29028,1.6898 11.23245,4.6426 2.95277,2.9422 4.64255,7.0485 4.64255,11.2324 l 0,211.6632 c 0,4.1698 -1.70035,8.2761 -4.64255,11.2183 -2.96333,2.9633 -7.05555,4.6567 -11.23245,4.6567 l -211.663127,0 z"
     style="fill:#713907;fill-opacity:1;fill-rule:evenodd;stroke:none"
     id="path3050" />
  <path
     d="m 191.40309,39.907452 c 3.45016,0 6.24064,2.804583 6.24064,6.240639 l 0.007,17.631833 -137.837328,0 0.0071,-17.617722 c 0,-3.436056 2.804583,-6.240639 6.247695,-6.240639 L 191.40309,39.907452 z M 97.867591,58.777535 c 3.443109,0 6.233579,-2.804583 6.233579,-6.25475 0,-3.439583 -2.79047,-6.244167 -6.233579,-6.244167 -3.446639,0 -6.244167,2.804584 -6.244167,6.244167 0,3.450167 2.797528,6.25475 6.244167,6.25475 m -17.645944,0 c 3.443111,0 6.237111,-2.804583 6.237111,-6.25475 0,-3.439583 -2.794,-6.244167 -6.237111,-6.244167 -3.446639,0 -6.244167,2.804584 -6.244167,6.244167 0,3.450167 2.797528,6.25475 6.244167,6.25475"
     style="fill:#ffffff;fill-opacity:1;fill-rule:nonzero;stroke:none"
     id="path4146"
     inkscape:connector-curvature="0" />
  <path
     d="m 59.488897,215.55903 0,-138.377079 c 0,-3.436055 2.797527,-6.240638 6.237111,-6.240638 l 125.352522,-0.01411 c 3.44311,0 6.24064,2.783416 6.24064,6.226527 l 0,138.433521 -137.830273,-0.0282 z m 68.220163,-35.52119 c 22.2885,0 40.36131,-18.07986 40.36131,-40.36836 0,-22.29556 -18.07281,-40.375418 -40.36131,-40.375418 -22.29555,0 -40.375413,18.079858 -40.375413,40.375418 0,22.2885 18.079863,40.36836 40.375413,40.36836"
     style="fill:#ffffff;fill-opacity:1;fill-rule:nonzero;stroke:none"
     id="path4150"
     inkscape:connector-curvature="0" />
  <path
     d="m 160.37628,130.45845 c 0.83256,2.94217 1.28059,6.04308 1.28059,9.25336 0,18.7325 -15.19414,33.91958 -33.92664,33.91958 -18.73603,0 -33.916056,-15.18708 -33.916056,-33.91958 0,-3.45369 0.518584,-6.78744 1.474611,-9.93775 l -0.0175,0.0212 c 2.162527,2.36361 5.277555,3.8735 8.734775,3.8735 2.99861,0 5.73264,-1.12889 7.81403,-2.95628 l -0.0213,-0.0212 c 2.08844,1.84856 4.82247,2.97745 7.82814,2.97745 3.12208,0 5.95841,-1.22767 8.06803,-3.20322 l -0.0141,0.0141 c 2.10961,1.96144 4.93889,3.18911 8.06097,3.18911 3.21028,0 6.12069,-1.28764 8.24794,-3.36903 l -0.007,0.0282 c 2.12373,2.06728 5.02356,3.34081 8.21973,3.34081 3.16441,0 6.02191,-1.24884 8.13857,-3.26673 l 0.0353,0.0565 z"
     style="fill:#ffffff;fill-opacity:1;fill-rule:nonzero;stroke:none"
     id="path4154"
     inkscape:connector-curvature="0" />
</svg>
