<?xml version="1.0" encoding="UTF-8" standalone="no"?>
<svg
   xmlns:dc="http://purl.org/dc/elements/1.1/"
   xmlns:cc="http://creativecommons.org/ns#"
   xmlns:rdf="http://www.w3.org/1999/02/22-rdf-syntax-ns#"
   xmlns:svg="http://www.w3.org/2000/svg"
   xmlns="http://www.w3.org/2000/svg"
   xmlns:sodipodi="http://sodipodi.sourceforge.net/DTD/sodipodi-0.dtd"
   xmlns:inkscape="http://www.inkscape.org/namespaces/inkscape"
   width="90.597931"
   height="90.597931"
   viewBox="0 0 255.68748 255.68749"
   version="1.1"
   id="svg2"
   inkscape:version="0.48.2 r9819"
   sodipodi:docname="MUTCD RS-150.svg">
  <metadata
     id="metadata62">
    <rdf:RDF>
      <cc:Work
         rdf:about="">
        <dc:format>image/svg+xml</dc:format>
        <dc:type
           rdf:resource="http://purl.org/dc/dcmitype/StillImage" />
        <dc:title></dc:title>
      </cc:Work>
    </rdf:RDF>
  </metadata>
  <defs
     id="defs60">
    <clipPath
       clipPathUnits="userSpaceOnUse"
       id="clipPath3564">
      <path
         inkscape:connector-curvature="0"
         d="m 63,43 512.622,0 0,313.129 L 63,356.129 63,43 z"
         id="path3566" />
    </clipPath>
  </defs>
  <sodipodi:namedview
     pagecolor="#ffffff"
     bordercolor="#666666"
     borderopacity="1"
     objecttolerance="10"
     gridtolerance="10"
     guidetolerance="10"
     inkscape:pageopacity="0"
     inkscape:pageshadow="2"
     inkscape:window-width="1280"
     inkscape:window-height="1004"
     id="namedview58"
     showgrid="false"
     fit-margin-top="0"
     fit-margin-left="0"
     fit-margin-right="0"
     fit-margin-bottom="0"
     inkscape:zoom="4.8826954"
     inkscape:cx="83.159137"
     inkscape:cy="32.525196"
     inkscape:window-x="-8"
     inkscape:window-y="-8"
     inkscape:window-maximized="1"
     inkscape:current-layer="svg2"
     showguides="true"
     inkscape:guide-bbox="true" />
  <polygon
     points="315,545 235,375 315,205 395,375 "
     id="polygon10"
     style="fill:none;stroke:#ffffff;stroke-width:40"
     transform="translate(17744.427,14390.473)" />
  <!-- draw the bicycle -->
  <!-- RIGHT -->
  <!-- LANE -->
  <!-- ONLY -->
  <path
     inkscape:connector-curvature="0"
     d="m 22.004643,254.8459 211.663127,0 c 5.57392,0 11.02432,-2.2577 14.97189,-6.2088 3.94053,-3.937 6.1948,-9.3839 6.1948,-14.9578 l 0,-211.6632 c 0,-5.5738 -2.25426,-11.0207 -6.1948,-14.9718 -3.94757,-3.937 -9.39797,-6.1948 -14.97189,-6.1948 l -211.663127,0 c -5.57036,0 -11.02077,2.2578 -14.9577696,6.1948 -3.94759,3.9511 -6.20888999,9.398 -6.20888999,14.9718 l 0,211.6632 c 0,7.2566 3.85232999,14.1111 9.96243959,18.0058 3.48545,2.2154 7.16845,2.7375 11.20422,3.1608"
     style="fill:#ffffff;fill-opacity:1;fill-rule:nonzero;stroke:#000000;stroke-width:1.69333339;stroke-miterlimit:4;stroke-opacity:1;stroke-dasharray:none"
     id="path3026" />
  <path
     inkscape:connector-curvature="0"
     d="m 22.004643,249.5543 c -3.15383,0 -5.80672,-0.7091 -8.36083,-2.3284 -4.6249196,-2.9421 -7.5141696,-8.1385 -7.5141696,-13.5466 l 0,-211.6632 c 0,-4.1733 1.69334,-8.2691 4.6566696,-11.2324 2.94217,-2.9422 7.0485,-4.6426 11.21833,-4.6426 l 211.663127,0 c 4.18397,0 8.29028,1.6898 11.23245,4.6426 2.95277,2.9422 4.64255,7.0485 4.64255,11.2324 l 0,211.6632 c 0,4.1698 -1.70035,8.2761 -4.64255,11.2183 -2.96333,2.9633 -7.05555,4.6567 -11.23245,4.6567 l -211.663127,0 z"
     style="fill:#713907;fill-opacity:1;fill-rule:evenodd;stroke:none"
     id="path3050" />
  <path
     d="m 93.982185,38.455051 c 0,-7.88811 6.402915,-14.276916 14.283975,-14.276916 7.88105,0 14.28397,6.388806 14.28397,14.276916 0,7.888111 -6.40292,14.276917 -14.28397,14.276917 -7.88106,0 -14.283975,-6.388806 -14.283975,-14.276917"
     style="fill:#ffffff;fill-opacity:1;fill-rule:nonzero;stroke:none"
     id="path7802"
     inkscape:connector-curvature="0" />
  <path
     d="m 28.491108,123.3288 c 0,-11.59581 9.376834,-21.01497 20.965583,-21.01497 l 44.263027,0 0,-31.778226 c 0,-7.881056 6.395862,-14.276917 14.276922,-14.276917 7.88811,0 14.29102,6.395861 14.29102,14.276917 l 0.0141,4.914194 21.04319,5.401028 c 3.70417,0.832555 6.02898,4.512028 5.19289,8.219722 -0.83255,3.700639 -4.51202,6.028972 -8.21972,5.196416 l -18.02341,-4.219222 -0.007,12.266088 21.22311,0 58.02842,-60.067476 -1.69687,15.603361 28.56089,19.046472 c 4.74839,2.688167 6.45584,8.748889 3.76767,13.497278 -2.12725,3.753555 -6.33942,5.580944 -10.34697,4.857749 l -2.32128,-0.426861 c -2.72344,11.105447 -12.77761,19.325167 -24.72267,19.325167 -2.36361,0 -4.65314,-0.34925 -6.82272,-0.94897 l -21.66761,44.26303 -0.0212,60.69542 c 0,5.21405 -4.23333,9.45091 -9.44738,9.45091 -5.21759,0 -9.44739,-4.23686 -9.44739,-9.45091 l 0,-62.08184 -47.797866,0 -8.530166,14.65792 17.903472,42.62614 c 2.56822,4.54378 0.97719,10.30111 -3.56306,12.87286 -4.54025,2.56822 -10.308162,0.97014 -12.88344,-3.57717 l -20.877389,-49.17369 0,-15.6845 -9.338027,14.70378 0,45.64944 c 0,5.21406 -4.229806,9.44739 -9.440334,9.44739 -5.228166,0 -9.457972,-4.23333 -9.457972,-9.44739 l 0,-52.72264 7.806972,-12.22375 0,-41.39142 -7.775222,11.88508 0,34.45229 -14.929555,0 0,-34.8227 z M 214.27094,93.818937 199.12619,90.943798 190.35613,108.41688 c 1.41817,0.3175 2.89983,0.48331 4.42383,0.48331 9.38389,0 17.23673,-6.39939 19.49098,-15.081253"
     style="fill:#ffffff;fill-opacity:1;fill-rule:nonzero;stroke:none"
     id="path7806"
     inkscape:connector-curvature="0" />
</svg>
