<?xml version="1.0" encoding="UTF-8" standalone="no"?>
<svg
   xmlns:dc="http://purl.org/dc/elements/1.1/"
   xmlns:cc="http://creativecommons.org/ns#"
   xmlns:rdf="http://www.w3.org/1999/02/22-rdf-syntax-ns#"
   xmlns:svg="http://www.w3.org/2000/svg"
   xmlns="http://www.w3.org/2000/svg"
   xmlns:sodipodi="http://sodipodi.sourceforge.net/DTD/sodipodi-0.dtd"
   xmlns:inkscape="http://www.inkscape.org/namespaces/inkscape"
   width="90.597931"
   height="90.597931"
   viewBox="0 0 255.68748 255.68749"
   version="1.1"
   id="svg2"
   inkscape:version="0.48.2 r9819"
   sodipodi:docname="MUTCD RS-147.svg">
  <metadata
     id="metadata62">
    <rdf:RDF>
      <cc:Work
         rdf:about="">
        <dc:format>image/svg+xml</dc:format>
        <dc:type
           rdf:resource="http://purl.org/dc/dcmitype/StillImage" />
        <dc:title></dc:title>
      </cc:Work>
    </rdf:RDF>
  </metadata>
  <defs
     id="defs60">
    <clipPath
       clipPathUnits="userSpaceOnUse"
       id="clipPath3564">
      <path
         inkscape:connector-curvature="0"
         d="m 63,43 512.622,0 0,313.129 L 63,356.129 63,43 z"
         id="path3566" />
    </clipPath>
  </defs>
  <sodipodi:namedview
     pagecolor="#ffffff"
     bordercolor="#666666"
     borderopacity="1"
     objecttolerance="10"
     gridtolerance="10"
     guidetolerance="10"
     inkscape:pageopacity="0"
     inkscape:pageshadow="2"
     inkscape:window-width="1280"
     inkscape:window-height="1004"
     id="namedview58"
     showgrid="false"
     fit-margin-top="0"
     fit-margin-left="0"
     fit-margin-right="0"
     fit-margin-bottom="0"
     inkscape:zoom="4.8826954"
     inkscape:cx="83.159137"
     inkscape:cy="32.525196"
     inkscape:window-x="-8"
     inkscape:window-y="-8"
     inkscape:window-maximized="1"
     inkscape:current-layer="svg2"
     showguides="true"
     inkscape:guide-bbox="true" />
  <polygon
     points="315,545 235,375 315,205 395,375 "
     id="polygon10"
     style="fill:none;stroke:#ffffff;stroke-width:40"
     transform="translate(17744.427,14390.473)" />
  <!-- draw the bicycle -->
  <!-- RIGHT -->
  <!-- LANE -->
  <!-- ONLY -->
  <path
     inkscape:connector-curvature="0"
     d="m 22.004643,254.8459 211.663127,0 c 5.57392,0 11.02432,-2.2577 14.97189,-6.2088 3.94053,-3.937 6.1948,-9.3839 6.1948,-14.9578 l 0,-211.6632 c 0,-5.5738 -2.25426,-11.0207 -6.1948,-14.9718 -3.94757,-3.937 -9.39797,-6.1948 -14.97189,-6.1948 l -211.663127,0 c -5.57036,0 -11.02077,2.2578 -14.9577696,6.1948 -3.94759,3.9511 -6.20888999,9.398 -6.20888999,14.9718 l 0,211.6632 c 0,7.2566 3.85232999,14.1111 9.96243959,18.0058 3.48545,2.2154 7.16845,2.7375 11.20422,3.1608"
     style="fill:#ffffff;fill-opacity:1;fill-rule:nonzero;stroke:#000000;stroke-width:1.69333339;stroke-miterlimit:4;stroke-opacity:1;stroke-dasharray:none"
     id="path3026" />
  <path
     inkscape:connector-curvature="0"
     d="m 22.004643,249.5543 c -3.15383,0 -5.80672,-0.7091 -8.36083,-2.3284 -4.6249196,-2.9421 -7.5141696,-8.1385 -7.5141696,-13.5466 l 0,-211.6632 c 0,-4.1733 1.69334,-8.2691 4.6566696,-11.2324 2.94217,-2.9422 7.0485,-4.6426 11.21833,-4.6426 l 211.663127,0 c 4.18397,0 8.29028,1.6898 11.23245,4.6426 2.95277,2.9422 4.64255,7.0485 4.64255,11.2324 l 0,211.6632 c 0,4.1698 -1.70035,8.2761 -4.64255,11.2183 -2.96333,2.9633 -7.05555,4.6567 -11.23245,4.6567 l -211.663127,0 z"
     style="fill:#713907;fill-opacity:1;fill-rule:evenodd;stroke:none"
     id="path3050" />
  <path
     d="m 181.22088,59.919815 c 9.17928,0 16.62642,-7.454194 16.62642,-16.640528 0,-9.182805 -7.44714,-16.626416 -16.62642,-16.626416 -9.18986,0 -16.63347,7.443611 -16.63347,16.626416 0,9.186334 7.44361,16.640528 16.63347,16.640528"
     style="fill:#ffffff;fill-opacity:1;fill-rule:nonzero;stroke:none"
     id="path14453"
     inkscape:connector-curvature="0" />
  <path
     d="m 226.7719,227.1587 c 8.00805,-0.7373 10.04005,-11.56758 10.04005,-11.56758 l -7.22841,0 c 0,0 -1.84856,4.73781 -3.26673,4.73781 l -174.176965,0 0,6.82977 174.632055,0 z"
     style="fill:#ffffff;fill-opacity:1;fill-rule:nonzero;stroke:none"
     id="path14457"
     inkscape:connector-curvature="0" />
  <path
     d="m 75.80065,203.12572 -55.347305,-55.51311 0.01411,9.70844 51.523194,51.70311 c 5.926666,6.40645 16.054916,-0.9913 16.054916,-0.9913 l -4.871861,-5.21759 c 0,0 -4.769555,3.1362 -7.27075,0.46214 l -0.102305,-0.15169 z"
     style="fill:#ffffff;fill-opacity:1;fill-rule:nonzero;stroke:none"
     id="path14461"
     inkscape:connector-curvature="0" />
  <path
     d="m 20.921834,98.414925 56.638471,0 0,6.773335 -56.638471,0 0,-6.773335 z"
     style="fill:#ffffff;fill-opacity:1;fill-rule:nonzero;stroke:none"
     id="path14463"
     inkscape:connector-curvature="0" />
  <path
     d="m 228.18442,82.258056 6.44172,2.709334 -64.29022,129.46591 -7.12611,0 64.97461,-132.175244 z"
     style="fill:#ffffff;fill-opacity:1;fill-rule:nonzero;stroke:none"
     id="path14467"
     inkscape:connector-curvature="0" />
  <path
     d="M 123.97704,72.280795 98.097263,102.1646 c -1.541639,1.88031 -3.8735,3.05153 -6.462889,3.05153 -4.635499,0 -8.385527,-3.75003 -8.385527,-8.364363 0,-2.494139 1.104194,-4.741333 2.82575,-6.268861 L 113.97932,58.458962 c 1.53811,-1.852083 3.85939,-3.037416 6.46994,-3.037416 l 40.38247,-0.0071 c 2.95628,0 5.63034,1.185333 7.5812,3.072694 l 25.75983,25.74925 21.33953,-21.297194 c 1.48872,-1.27 3.43958,-2.021417 5.55272,-2.021417 4.77661,0 8.65011,3.859389 8.65011,8.636 0,2.084917 -0.73025,3.979333 -1.9438,5.461 l -25.74925,25.943281 c -7.81403,7.79991 -14.08995,1.18533 -14.08995,1.18533 l -15.7868,-15.875 -24.68739,28.53972 22.62011,22.62012 c 0,0 4.74839,4.40972 2.04611,13.22211 l -12.6753,56.48677 c -1.01248,4.90361 -5.34812,8.5972 -10.54453,8.5972 -5.94431,0 -10.75267,-4.82247 -10.75267,-10.7562 0,-0.94191 0.12347,-1.84502 0.3422,-2.71286 l 10.41047,-46.34441 -25.68575,-24.96961 -22.098,24.638 c 0,0 -3.559529,4.41677 -13.063362,4.07458 l -44.806305,0.0741 c -5.009444,0.0882 -9.549694,-3.33375 -10.678583,-8.40669 -1.308806,-5.79261 2.264833,-11.46528 8.053916,-12.75292 0.917223,-0.21519 1.820334,-0.28222 2.716389,-0.26105 l 38.548027,0.10936 56.984198,-66.075283 -14.89781,-0.07056 z"
     style="fill:#ffffff;fill-opacity:1;fill-rule:nonzero;stroke:none"
     id="path14471"
     inkscape:connector-curvature="0" />
</svg>
