<?xml version="1.0" encoding="UTF-8" standalone="no"?>
<svg
   xmlns:dc="http://purl.org/dc/elements/1.1/"
   xmlns:cc="http://creativecommons.org/ns#"
   xmlns:rdf="http://www.w3.org/1999/02/22-rdf-syntax-ns#"
   xmlns:svg="http://www.w3.org/2000/svg"
   xmlns="http://www.w3.org/2000/svg"
   xmlns:sodipodi="http://sodipodi.sourceforge.net/DTD/sodipodi-0.dtd"
   xmlns:inkscape="http://www.inkscape.org/namespaces/inkscape"
   width="90.597931"
   height="90.597931"
   viewBox="0 0 255.68748 255.68749"
   version="1.1"
   id="svg2"
   inkscape:version="0.48.2 r9819"
   sodipodi:docname="MUTCD RS-052.svg">
  <metadata
     id="metadata62">
    <rdf:RDF>
      <cc:Work
         rdf:about="">
        <dc:format>image/svg+xml</dc:format>
        <dc:type
           rdf:resource="http://purl.org/dc/dcmitype/StillImage" />
        <dc:title></dc:title>
      </cc:Work>
    </rdf:RDF>
  </metadata>
  <defs
     id="defs60">
    <clipPath
       clipPathUnits="userSpaceOnUse"
       id="clipPath3564">
      <path
         inkscape:connector-curvature="0"
         d="m 63,43 512.622,0 0,313.129 L 63,356.129 63,43 z"
         id="path3566" />
    </clipPath>
  </defs>
  <sodipodi:namedview
     pagecolor="#ffffff"
     bordercolor="#666666"
     borderopacity="1"
     objecttolerance="10"
     gridtolerance="10"
     guidetolerance="10"
     inkscape:pageopacity="0"
     inkscape:pageshadow="2"
     inkscape:window-width="1280"
     inkscape:window-height="1004"
     id="namedview58"
     showgrid="false"
     fit-margin-top="0"
     fit-margin-left="0"
     fit-margin-right="0"
     fit-margin-bottom="0"
     inkscape:zoom="4.8826954"
     inkscape:cx="83.159137"
     inkscape:cy="32.525196"
     inkscape:window-x="-8"
     inkscape:window-y="-8"
     inkscape:window-maximized="1"
     inkscape:current-layer="svg2"
     showguides="true"
     inkscape:guide-bbox="true" />
  <polygon
     points="315,545 235,375 315,205 395,375 "
     id="polygon10"
     style="fill:none;stroke:#ffffff;stroke-width:40"
     transform="translate(17744.427,14390.473)" />
  <!-- draw the bicycle -->
  <!-- RIGHT -->
  <!-- LANE -->
  <!-- ONLY -->
  <path
     inkscape:connector-curvature="0"
     d="m 22.004643,254.8459 211.663127,0 c 5.57392,0 11.02432,-2.2577 14.97189,-6.2088 3.94053,-3.937 6.1948,-9.3839 6.1948,-14.9578 l 0,-211.6632 c 0,-5.5738 -2.25426,-11.0207 -6.1948,-14.9718 -3.94757,-3.937 -9.39797,-6.1948 -14.97189,-6.1948 l -211.663127,0 c -5.57036,0 -11.02077,2.2578 -14.9577696,6.1948 -3.94759,3.9511 -6.20888999,9.398 -6.20888999,14.9718 l 0,211.6632 c 0,7.2566 3.85232999,14.1111 9.96243959,18.0058 3.48545,2.2154 7.16845,2.7375 11.20422,3.1608"
     style="fill:#ffffff;fill-opacity:1;fill-rule:nonzero;stroke:#000000;stroke-width:1.69333339;stroke-miterlimit:4;stroke-opacity:1;stroke-dasharray:none"
     id="path3026" />
  <path
     inkscape:connector-curvature="0"
     d="m 22.004643,249.5543 c -3.15383,0 -5.80672,-0.7091 -8.36083,-2.3284 -4.6249196,-2.9421 -7.5141696,-8.1385 -7.5141696,-13.5466 l 0,-211.6632 c 0,-4.1733 1.69334,-8.2691 4.6566696,-11.2324 2.94217,-2.9422 7.0485,-4.6426 11.21833,-4.6426 l 211.663127,0 c 4.18397,0 8.29028,1.6898 11.23245,4.6426 2.95277,2.9422 4.64255,7.0485 4.64255,11.2324 l 0,211.6632 c 0,4.1698 -1.70035,8.2761 -4.64255,11.2183 -2.96333,2.9633 -7.05555,4.6567 -11.23245,4.6567 l -211.663127,0 z"
     style="fill:#713907;fill-opacity:1;fill-rule:evenodd;stroke:none"
     id="path3050" />
  <path
     d="m 119.6841,212.21503 0,-23.749 -13.23622,7.45419 -6.780389,-3.89819 0,-8.31145 19.684999,-11.20069 0,-15.61395 -14.2628,9.15811 0,-16.54527 -13.641921,7.85636 -0.01411,22.43314 -7.482416,4.62491 -6.332361,-4.17689 -0.01411,-15.04244 -20.718642,11.72281 -8.805333,-3.74298 0,-9.5003 21.745222,-11.86745 -13.599583,-6.80508 0,-8.73831 7.708194,-4.17336 19.533305,11.45117 13.532556,-7.80697 -0.335139,-0.23637 -13.821833,-7.96219 13.426722,-8.32555 -13.518445,-7.80698 -19.54036,11.44411 -7.316611,-3.63713 0,-8.65364 13.215055,-7.41539 -21.029083,-11.422946 0,-9.500306 8.075083,-4.183944 20.768028,11.997972 0,-15.275277 6.311194,-4.219223 7.634111,4.395611 -0.02822,22.898806 13.920607,7.976307 -0.0282,-16.196029 14.61912,7.881055 0,-15.621 -19.685004,-11.197166 0,-8.307917 6.780384,-3.908778 13.23623,7.471834 0,-23.752528 7.64116,-4.931833 7.64117,4.931833 0,23.752528 13.74774,-7.641167 6.94972,4.586111 0,7.457722 -20.36585,11.539361 0,15.621 13.91708,-8.487833 0,16.961557 14.34041,-7.799918 0,-24.429861 6.95678,-3.234972 7.22136,3.234972 0,15.603361 21.36422,-11.532306 7.47889,4.582584 0,8.826499 -20.87739,11.878031 13.06336,7.28839 0,8.48783 -6.78038,3.72886 -20.03073,-11.86392 -13.85358,8.81239 13.41967,8.32909 -13.81478,7.96572 14.24869,7.46125 20.03073,-11.20423 6.44877,4.58964 0.0141,8.05392 -12.57299,7.0485 20.02013,11.88156 0,9.3345 -8.48783,3.90878 -19.67089,-11.20423 0,14.84136 -7.0485,3.90525 -6.95325,-3.90525 0.007,-22.52486 -14.52386,-8.26911 0,15.61395 -13.91708,-8.48784 0,15.61395 19.69205,11.20069 0,8.81945 -6.7945,3.39019 -13.22916,-7.45419 0,23.749 -7.64117,4.91419 -7.64117,-4.91419 z m -5.42219,-84.50792 7.12258,10.50925 13.23622,0 6.11364,-10.50925 -6.45583,-11.2007 -13.22917,0 -6.78744,11.2007 z"
     style="fill:#ffffff;fill-opacity:1;fill-rule:nonzero;stroke:none"
     id="path14135"
     inkscape:connector-curvature="0" />
</svg>
