<?xml version="1.0" encoding="UTF-8" standalone="no"?>
<svg
   xmlns:dc="http://purl.org/dc/elements/1.1/"
   xmlns:cc="http://creativecommons.org/ns#"
   xmlns:rdf="http://www.w3.org/1999/02/22-rdf-syntax-ns#"
   xmlns:svg="http://www.w3.org/2000/svg"
   xmlns="http://www.w3.org/2000/svg"
   xmlns:sodipodi="http://sodipodi.sourceforge.net/DTD/sodipodi-0.dtd"
   xmlns:inkscape="http://www.inkscape.org/namespaces/inkscape"
   width="90.597931"
   height="90.597931"
   viewBox="0 0 255.68748 255.68749"
   version="1.1"
   id="svg2"
   inkscape:version="0.48.2 r9819"
   sodipodi:docname="MUTCD RS-097.svg">
  <metadata
     id="metadata62">
    <rdf:RDF>
      <cc:Work
         rdf:about="">
        <dc:format>image/svg+xml</dc:format>
        <dc:type
           rdf:resource="http://purl.org/dc/dcmitype/StillImage" />
        <dc:title></dc:title>
      </cc:Work>
    </rdf:RDF>
  </metadata>
  <defs
     id="defs60">
    <clipPath
       clipPathUnits="userSpaceOnUse"
       id="clipPath3564">
      <path
         inkscape:connector-curvature="0"
         d="m 63,43 512.622,0 0,313.129 L 63,356.129 63,43 z"
         id="path3566" />
    </clipPath>
  </defs>
  <sodipodi:namedview
     pagecolor="#ffffff"
     bordercolor="#666666"
     borderopacity="1"
     objecttolerance="10"
     gridtolerance="10"
     guidetolerance="10"
     inkscape:pageopacity="0"
     inkscape:pageshadow="2"
     inkscape:window-width="1280"
     inkscape:window-height="1004"
     id="namedview58"
     showgrid="false"
     fit-margin-top="0"
     fit-margin-left="0"
     fit-margin-right="0"
     fit-margin-bottom="0"
     inkscape:zoom="4.8826954"
     inkscape:cx="83.159137"
     inkscape:cy="40.717393"
     inkscape:window-x="-8"
     inkscape:window-y="-8"
     inkscape:window-maximized="1"
     inkscape:current-layer="svg2"
     showguides="true"
     inkscape:guide-bbox="true" />
  <polygon
     points="315,545 235,375 315,205 395,375 "
     id="polygon10"
     style="fill:none;stroke:#ffffff;stroke-width:40"
     transform="translate(17744.427,14390.473)" />
  <!-- draw the bicycle -->
  <!-- RIGHT -->
  <!-- LANE -->
  <!-- ONLY -->
  <path
     inkscape:connector-curvature="0"
     d="m 22.004643,254.8459 211.663127,0 c 5.57392,0 11.02432,-2.2577 14.97189,-6.2088 3.94053,-3.937 6.1948,-9.3839 6.1948,-14.9578 l 0,-211.6632 c 0,-5.5738 -2.25426,-11.0207 -6.1948,-14.9718 -3.94757,-3.937 -9.39797,-6.1948 -14.97189,-6.1948 l -211.663127,0 c -5.57036,0 -11.02077,2.2578 -14.9577696,6.1948 -3.94759,3.9511 -6.20888999,9.398 -6.20888999,14.9718 l 0,211.6632 c 0,7.2566 3.85232999,14.1111 9.96243959,18.0058 3.48545,2.2154 7.16845,2.7375 11.20422,3.1608"
     style="fill:#ffffff;fill-opacity:1;fill-rule:nonzero;stroke:#000000;stroke-width:1.69333339;stroke-miterlimit:4;stroke-opacity:1;stroke-dasharray:none"
     id="path3026" />
  <path
     inkscape:connector-curvature="0"
     d="m 22.004643,249.5543 c -3.15383,0 -5.80672,-0.7091 -8.36083,-2.3284 -4.6249196,-2.9421 -7.5141696,-8.1385 -7.5141696,-13.5466 l 0,-211.6632 c 0,-4.1733 1.69334,-8.2691 4.6566696,-11.2324 2.94217,-2.9422 7.0485,-4.6426 11.21833,-4.6426 l 211.663127,0 c 4.18397,0 8.29028,1.6898 11.23245,4.6426 2.95277,2.9422 4.64255,7.0485 4.64255,11.2324 l 0,211.6632 c 0,4.1698 -1.70035,8.2761 -4.64255,11.2183 -2.96333,2.9633 -7.05555,4.6567 -11.23245,4.6567 l -211.663127,0 z"
     style="fill:#713907;fill-opacity:1;fill-rule:evenodd;stroke:none"
     id="path3050" />
  <path
     d="m 105.31335,229.78302 c 3.1503,0 5.71147,-2.56117 5.71147,-5.71853 0,-3.14678 -2.56117,-5.69736 -5.71147,-5.69736 -3.15031,0 -5.697364,2.55058 -5.697364,5.69736 0,3.15736 2.547054,5.71853 5.697364,5.71853"
     style="fill:#ffffff;fill-opacity:1;fill-rule:nonzero;stroke:none"
     id="path8422"
     inkscape:connector-curvature="0" />
  <path
     d="m 155.96977,229.60663 c 3.1503,0 5.69736,-2.55058 5.69736,-5.70794 0,-3.14678 -2.54706,-5.70442 -5.69736,-5.70442 -3.16089,0 -5.70442,2.55764 -5.70442,5.70442 0,3.15736 2.54353,5.70794 5.70442,5.70794"
     style="fill:#ffffff;fill-opacity:1;fill-rule:nonzero;stroke:none"
     id="path8426"
     inkscape:connector-curvature="0" />
  <path
     d="m 92.966477,215.45319 c 0,0 -3.71475,-0.23284 -3.700638,-3.98992 l 0,-0.35631 c -0.01411,-3.74297 3.700638,-3.98991 3.700638,-3.98991 l 75.109913,0 c 0,0 3.7077,0.37747 3.69359,3.98991 l 0,0.35631 c 0.0141,3.61597 -3.69359,3.98992 -3.69359,3.98992 l -75.109913,0 z"
     style="fill:#ffffff;stroke:none"
     id="path8434"
     inkscape:connector-curvature="0" />
  <path
     d="m 145.1663,54.296891 c 9.17928,0 16.62642,-7.440084 16.62642,-16.619361 0,-9.182806 -7.44714,-16.637 -16.62642,-16.637 -9.18986,0 -16.64053,7.454194 -16.64053,16.637 0,9.179277 7.45067,16.619361 16.64053,16.619361"
     style="fill:#ffffff;fill-opacity:1;fill-rule:nonzero;stroke:none"
     id="path8438"
     inkscape:connector-curvature="0" />
  <path
     d="m 54.859775,199.74399 c -0.800806,1.48872 -1.234722,3.18206 -1.234722,4.97417 0,5.87022 4.758972,10.63272 10.622139,10.63272 4.22275,0 7.856361,-2.46239 9.577916,-6.02192 L 110.20708,146.9508 95.087025,131.84133 54.859775,199.74399 z"
     style="fill:#ffffff;fill-opacity:1;fill-rule:nonzero;stroke:none"
     id="path8442"
     inkscape:connector-curvature="0" />
  <path
     d="m 133.56979,196.96057 c -1.7145,3.556 -5.3587,6.00781 -9.57792,6.00781 -5.86317,0 -10.62214,-4.75544 -10.62214,-10.62567 0,-1.79916 0.44097,-3.48544 1.23825,-4.96711 l 15.8115,-27.76008 -30.818664,-30.64228 c -11.870972,-11.88508 -3.39725,-24.77558 -3.39725,-24.77558 l 16.569974,-29.30525 -44.05489,0.03528 c -4.815417,0 -8.713611,-3.90525 -8.713611,-8.717139 0,-4.808361 3.898194,-8.703028 8.713611,-8.703028 l 133.30414,0.0071 c 4.81542,0 8.71008,3.901722 8.71008,8.717138 0,4.808361 -3.89466,8.710084 -8.71008,8.710084 l -50.83528,-0.01416 -24.26758,42.499142 24.71561,24.37694 c 8.64658,8.30792 3.05153,17.63183 3.05153,17.63183 l -21.11728,37.52497 z"
     style="fill:#ffffff;fill-opacity:1;fill-rule:nonzero;stroke:none"
     id="path8446"
     inkscape:connector-curvature="0" />
</svg>
