<?xml version="1.0" encoding="UTF-8" standalone="no"?>
<svg
   xmlns:dc="http://purl.org/dc/elements/1.1/"
   xmlns:cc="http://creativecommons.org/ns#"
   xmlns:rdf="http://www.w3.org/1999/02/22-rdf-syntax-ns#"
   xmlns:svg="http://www.w3.org/2000/svg"
   xmlns="http://www.w3.org/2000/svg"
   xmlns:sodipodi="http://sodipodi.sourceforge.net/DTD/sodipodi-0.dtd"
   xmlns:inkscape="http://www.inkscape.org/namespaces/inkscape"
   width="90.597931"
   height="90.597931"
   viewBox="0 0 255.68748 255.68749"
   version="1.1"
   id="svg2"
   inkscape:version="0.48.2 r9819"
   sodipodi:docname="MUTCD RS-079.svg">
  <metadata
     id="metadata62">
    <rdf:RDF>
      <cc:Work
         rdf:about="">
        <dc:format>image/svg+xml</dc:format>
        <dc:type
           rdf:resource="http://purl.org/dc/dcmitype/StillImage" />
        <dc:title></dc:title>
      </cc:Work>
    </rdf:RDF>
  </metadata>
  <defs
     id="defs60">
    <clipPath
       clipPathUnits="userSpaceOnUse"
       id="clipPath3564">
      <path
         inkscape:connector-curvature="0"
         d="m 63,43 512.622,0 0,313.129 L 63,356.129 63,43 z"
         id="path3566" />
    </clipPath>
  </defs>
  <sodipodi:namedview
     pagecolor="#ffffff"
     bordercolor="#666666"
     borderopacity="1"
     objecttolerance="10"
     gridtolerance="10"
     guidetolerance="10"
     inkscape:pageopacity="0"
     inkscape:pageshadow="2"
     inkscape:window-width="1280"
     inkscape:window-height="1004"
     id="namedview58"
     showgrid="false"
     fit-margin-top="0"
     fit-margin-left="0"
     fit-margin-right="0"
     fit-margin-bottom="0"
     inkscape:zoom="4.8826954"
     inkscape:cx="83.159137"
     inkscape:cy="32.525196"
     inkscape:window-x="-8"
     inkscape:window-y="-8"
     inkscape:window-maximized="1"
     inkscape:current-layer="svg2"
     showguides="true"
     inkscape:guide-bbox="true" />
  <polygon
     points="315,545 235,375 315,205 395,375 "
     id="polygon10"
     style="fill:none;stroke:#ffffff;stroke-width:40"
     transform="translate(17744.427,14390.473)" />
  <!-- draw the bicycle -->
  <!-- RIGHT -->
  <!-- LANE -->
  <!-- ONLY -->
  <path
     inkscape:connector-curvature="0"
     d="m 22.004643,254.8459 211.663127,0 c 5.57392,0 11.02432,-2.2577 14.97189,-6.2088 3.94053,-3.937 6.1948,-9.3839 6.1948,-14.9578 l 0,-211.6632 c 0,-5.5738 -2.25426,-11.0207 -6.1948,-14.9718 -3.94757,-3.937 -9.39797,-6.1948 -14.97189,-6.1948 l -211.663127,0 c -5.57036,0 -11.02077,2.2578 -14.9577696,6.1948 -3.94759,3.9511 -6.20888999,9.398 -6.20888999,14.9718 l 0,211.6632 c 0,7.2566 3.85232999,14.1111 9.96243959,18.0058 3.48545,2.2154 7.16845,2.7375 11.20422,3.1608"
     style="fill:#ffffff;fill-opacity:1;fill-rule:nonzero;stroke:#000000;stroke-width:1.69333339;stroke-miterlimit:4;stroke-opacity:1;stroke-dasharray:none"
     id="path3026" />
  <path
     inkscape:connector-curvature="0"
     d="m 22.004643,249.5543 c -3.15383,0 -5.80672,-0.7091 -8.36083,-2.3284 -4.6249196,-2.9421 -7.5141696,-8.1385 -7.5141696,-13.5466 l 0,-211.6632 c 0,-4.1733 1.69334,-8.2691 4.6566696,-11.2324 2.94217,-2.9422 7.0485,-4.6426 11.21833,-4.6426 l 211.663127,0 c 4.18397,0 8.29028,1.6898 11.23245,4.6426 2.95277,2.9422 4.64255,7.0485 4.64255,11.2324 l 0,211.6632 c 0,4.1698 -1.70035,8.2761 -4.64255,11.2183 -2.96333,2.9633 -7.05555,4.6567 -11.23245,4.6567 l -211.663127,0 z"
     style="fill:#713907;fill-opacity:1;fill-rule:evenodd;stroke:none"
     id="path3050" />
  <path
     d="m 226.66713,189.56283 c -4.31448,0 -8.46314,-0.97014 -12.1532,-2.63173 -3.79236,-1.75683 -8.05039,-2.79047 -12.50597,-2.79047 -4.45911,0 -8.71714,1.03364 -12.50597,2.79047 -3.70064,1.66159 -7.84225,2.63173 -12.14967,2.63173 -4.31094,0 -8.45255,-0.97014 -12.13908,-2.63173 -3.78883,-1.75683 -8.05392,-2.79047 -12.51303,-2.79047 -4.45911,0 -8.71714,1.03364 -12.49892,2.79047 -3.70063,1.66159 -7.84225,2.63173 -12.14614,2.63173 -4.32153,0 -8.45608,-0.97014 -12.15672,-2.63173 -3.78178,-1.75683 -8.05392,-2.79047 -12.49892,-2.79047 -4.45558,0 -8.720663,1.03364 -12.509497,2.79047 -3.686527,1.66159 -7.821083,2.63173 -12.142611,2.63173 -4.317999,0 -8.452555,-0.97014 -12.153194,-2.63173 -3.781778,-1.75683 -8.046861,-2.79047 -12.491861,-2.79047 -4.452055,0 -8.73125,1.03364 -12.505972,2.79047 -3.707694,1.66159 -7.84225,2.63173 -12.153194,2.63173 l 0,-18.20334 c 4.310944,0 8.4455,-0.97366 12.153194,-2.63172 3.774722,-1.76389 8.053917,-2.79047 12.505972,-2.79047 4.445,0 8.710083,1.02658 12.491861,2.79047 3.700639,1.65806 7.835195,2.63172 12.153194,2.63172 4.321528,0 8.456084,-0.97366 12.142611,-2.63172 3.788834,-1.76389 8.053917,-2.79047 12.509497,-2.79047 4.445,0 8.71714,1.02658 12.49892,2.79047 3.70064,1.65806 7.83519,2.63172 12.15672,2.63172 4.30389,0 8.44551,-0.97366 12.14614,-2.63172 3.78178,-1.76389 8.03981,-2.79047 12.49892,-2.79047 4.45911,0 8.7242,1.02658 12.51303,2.79047 3.68653,1.65806 7.82814,2.63172 12.13908,2.63172 4.30742,0 8.44903,-0.97366 12.14967,-2.63172 3.78883,-1.76389 8.04686,-2.79047 12.50597,-2.79047 4.45558,0 8.71361,1.02658 12.50597,2.79047 3.69006,1.65806 7.83872,2.63172 12.1532,2.63172 l 0,18.20334 z"
     style="fill:#ffffff;fill-opacity:1;fill-rule:nonzero;stroke:none"
     id="path11766"
     inkscape:connector-curvature="0" />
  <path
     d="m 120.2129,54.343104 c 4.09222,0 7.42245,-3.323166 7.42245,-7.422444 0,-4.099278 -3.33023,-7.418917 -7.42245,-7.418917 -4.10633,0 -7.42597,3.319639 -7.42597,7.418917 0,4.099278 3.31964,7.422444 7.42597,7.422444"
     style="fill:#ffffff;fill-opacity:1;fill-rule:nonzero;stroke:none"
     id="path11770"
     inkscape:connector-curvature="0" />
  <path
     d="m 130.58457,48.19066 22.24617,5.496278 0,-14.19225 -22.28145,6.194777 0.0353,2.501195 z"
     style="fill:#ffffff;fill-opacity:1;fill-rule:nonzero;stroke:none"
     id="path11774"
     inkscape:connector-curvature="0" />
  <path
     d="m 187.43471,76.875021 c 6.33236,0 11.76867,3.884083 14.0335,9.405055 l 15.98083,41.155054 9.2322,0.86783 0,15.42698 -15.44109,0 -13.28561,15.77622 c -2.9845,0.42333 -5.842,1.29822 -8.45255,2.50825 -3.70064,1.66158 -7.84225,2.62819 -12.14967,2.62819 -4.31094,0 -8.45255,-0.96661 -12.13908,-2.62819 -3.78883,-1.76389 -8.05392,-2.79047 -12.51303,-2.79047 -4.45911,0 -8.71714,1.02658 -12.49892,2.79047 -3.70063,1.66158 -7.84225,2.62819 -12.14614,2.62819 -4.32153,0 -8.45608,-0.96661 -12.15672,-2.62819 -3.78178,-1.76389 -8.05392,-2.79047 -12.49892,-2.79047 -4.45558,0 -8.720663,1.02658 -12.509497,2.79047 -3.686527,1.66158 -7.821083,2.62819 -12.142611,2.62819 -4.317999,0 -8.452555,-0.96661 -12.153194,-2.62819 -2.144889,-0.99836 -4.437944,-1.76389 -6.850944,-2.22956 l -13.578417,-15.88911 -16.711083,0 0,-15.77269 9.027583,-0.51153 15.977306,-41.331444 c 2.261305,-5.520972 7.697611,-9.405055 14.044083,-9.405055 l 48.065974,-0.05645 0,-15.620999 c 0,0 0.99836,-4.706056 6.55108,-4.706056 l 11.91331,0 c 0,0 5.38339,0.426861 5.38339,5.630333 l 7.51769,-7.517694 c 0.68086,-0.599722 1.57692,-0.963083 2.56117,-0.963083 2.15547,0 3.90525,1.749777 3.90525,3.90525 0,0.751416 -0.21167,1.453444 -0.5715,2.053166 l -13.41261,13.352639 0,3.915833 47.01822,0.0071 z M 203.7154,126.5673 190.19696,90.633354 c -0.58561,-1.654528 -2.16253,-2.82575 -4.01108,-2.82575 l -116.45195,0 c -1.845027,0 -3.414888,1.171222 -4.0005,2.82575 l -13.525499,35.933946 76.383439,-5.37634 75.12403,5.37634 z"
     style="fill:#ffffff;fill-opacity:1;fill-rule:nonzero;stroke:none"
     id="path11778"
     inkscape:connector-curvature="0" />
  <path
     d="m 120.99254,98.348604 c 0,-4.131028 3.35492,-7.482417 7.47536,-7.482417 4.14162,0 7.48948,3.351389 7.48948,7.482417 0,4.134556 -3.34786,7.485946 -7.48948,7.485946 -4.12044,0 -7.47536,-3.35139 -7.47536,-7.485946"
     style="fill:#ffffff;fill-opacity:1;fill-rule:nonzero;stroke:none"
     id="path11782"
     inkscape:connector-curvature="0" />
  <path
     d="m 115.63032,118.50985 0,-1.41111 c 0,-5.38691 4.25803,-9.7155 9.5638,-9.7155 l 6.40292,0.0141 c 5.82084,0 9.67317,4.86481 9.67317,9.83897 l 0,1.27353 -12.86581,-0.88194 -12.77408,0.88194 z"
     style="fill:#ffffff;fill-opacity:1;fill-rule:nonzero;stroke:none"
     id="path11786"
     inkscape:connector-curvature="0" />
  <path
     d="m 80.885236,98.348604 c 0,-4.131028 3.340805,-7.482417 7.475361,-7.482417 4.134555,0 7.482416,3.351389 7.482416,7.482417 0,4.134556 -3.347861,7.485946 -7.482416,7.485946 -4.134556,0 -7.475361,-3.35139 -7.475361,-7.485946"
     style="fill:#ffffff;fill-opacity:1;fill-rule:nonzero;stroke:none"
     id="path11790"
     inkscape:connector-curvature="0" />
  <path
     d="m 75.515958,121.3356 0,-4.23686 c 0,-5.38691 4.258028,-9.7155 9.55675,-9.7155 l 6.409972,0.0141 c 5.813778,0 9.65905,4.86481 9.65905,9.83897 l 0,2.33539 -25.625772,1.76389 z"
     style="fill:#ffffff;fill-opacity:1;fill-rule:nonzero;stroke:none"
     id="path11794"
     inkscape:connector-curvature="0" />
  <path
     d="m 161.11396,98.348604 c 0,-4.131028 3.34786,-7.482417 7.48242,-7.482417 4.13455,0 7.48241,3.351389 7.48241,7.482417 0,4.134556 -3.34786,7.485946 -7.48241,7.485946 -4.13456,0 -7.48242,-3.35139 -7.48242,-7.485946"
     style="fill:#ffffff;fill-opacity:1;fill-rule:nonzero;stroke:none"
     id="path11798"
     inkscape:connector-curvature="0" />
  <path
     d="m 155.74468,119.57171 0,-2.47297 c 0,-5.38691 4.26509,-9.7155 9.55675,-9.7155 l 6.40292,0.0141 c 5.82789,0 9.67317,4.86481 9.67317,9.83897 l 0,4.2792 -25.63284,-1.94381 z"
     style="fill:#ffffff;fill-opacity:1;fill-rule:nonzero;stroke:none"
     id="path11802"
     inkscape:connector-curvature="0" />
</svg>
