<?xml version="1.0" encoding="UTF-8" standalone="no"?>
<svg
   xmlns:dc="http://purl.org/dc/elements/1.1/"
   xmlns:cc="http://creativecommons.org/ns#"
   xmlns:rdf="http://www.w3.org/1999/02/22-rdf-syntax-ns#"
   xmlns:svg="http://www.w3.org/2000/svg"
   xmlns="http://www.w3.org/2000/svg"
   xmlns:sodipodi="http://sodipodi.sourceforge.net/DTD/sodipodi-0.dtd"
   xmlns:inkscape="http://www.inkscape.org/namespaces/inkscape"
   width="90.597931"
   height="90.597931"
   viewBox="0 0 255.68748 255.68749"
   version="1.1"
   id="svg2"
   inkscape:version="0.48.2 r9819"
   sodipodi:docname="MUTCD RS-086.svg">
  <metadata
     id="metadata62">
    <rdf:RDF>
      <cc:Work
         rdf:about="">
        <dc:format>image/svg+xml</dc:format>
        <dc:type
           rdf:resource="http://purl.org/dc/dcmitype/StillImage" />
        <dc:title></dc:title>
      </cc:Work>
    </rdf:RDF>
  </metadata>
  <defs
     id="defs60">
    <clipPath
       clipPathUnits="userSpaceOnUse"
       id="clipPath3564">
      <path
         inkscape:connector-curvature="0"
         d="m 63,43 512.622,0 0,313.129 L 63,356.129 63,43 z"
         id="path3566" />
    </clipPath>
  </defs>
  <sodipodi:namedview
     pagecolor="#ffffff"
     bordercolor="#666666"
     borderopacity="1"
     objecttolerance="10"
     gridtolerance="10"
     guidetolerance="10"
     inkscape:pageopacity="0"
     inkscape:pageshadow="2"
     inkscape:window-width="1280"
     inkscape:window-height="1004"
     id="namedview58"
     showgrid="false"
     fit-margin-top="0"
     fit-margin-left="0"
     fit-margin-right="0"
     fit-margin-bottom="0"
     inkscape:zoom="4.8826954"
     inkscape:cx="83.159137"
     inkscape:cy="32.525196"
     inkscape:window-x="-8"
     inkscape:window-y="-8"
     inkscape:window-maximized="1"
     inkscape:current-layer="svg2"
     showguides="true"
     inkscape:guide-bbox="true" />
  <polygon
     points="315,545 235,375 315,205 395,375 "
     id="polygon10"
     style="fill:none;stroke:#ffffff;stroke-width:40"
     transform="translate(17744.427,14390.473)" />
  <!-- draw the bicycle -->
  <!-- RIGHT -->
  <!-- LANE -->
  <!-- ONLY -->
  <path
     inkscape:connector-curvature="0"
     d="m 22.004643,254.8459 211.663127,0 c 5.57392,0 11.02432,-2.2577 14.97189,-6.2088 3.94053,-3.937 6.1948,-9.3839 6.1948,-14.9578 l 0,-211.6632 c 0,-5.5738 -2.25426,-11.0207 -6.1948,-14.9718 -3.94757,-3.937 -9.39797,-6.1948 -14.97189,-6.1948 l -211.663127,0 c -5.57036,0 -11.02077,2.2578 -14.9577696,6.1948 -3.94759,3.9511 -6.20888999,9.398 -6.20888999,14.9718 l 0,211.6632 c 0,7.2566 3.85232999,14.1111 9.96243959,18.0058 3.48545,2.2154 7.16845,2.7375 11.20422,3.1608"
     style="fill:#ffffff;fill-opacity:1;fill-rule:nonzero;stroke:#000000;stroke-width:1.69333339;stroke-miterlimit:4;stroke-opacity:1;stroke-dasharray:none"
     id="path3026" />
  <path
     inkscape:connector-curvature="0"
     d="m 22.004643,249.5543 c -3.15383,0 -5.80672,-0.7091 -8.36083,-2.3284 -4.6249196,-2.9421 -7.5141696,-8.1385 -7.5141696,-13.5466 l 0,-211.6632 c 0,-4.1733 1.69334,-8.2691 4.6566696,-11.2324 2.94217,-2.9422 7.0485,-4.6426 11.21833,-4.6426 l 211.663127,0 c 4.18397,0 8.29028,1.6898 11.23245,4.6426 2.95277,2.9422 4.64255,7.0485 4.64255,11.2324 l 0,211.6632 c 0,4.1698 -1.70035,8.2761 -4.64255,11.2183 -2.96333,2.9633 -7.05555,4.6567 -11.23245,4.6567 l -211.663127,0 z"
     style="fill:#713907;fill-opacity:1;fill-rule:evenodd;stroke:none"
     id="path3050" />
  <path
     d="m 187.2262,56.022341 c 9.18633,0 16.62642,-7.447139 16.62642,-16.633472 0,-9.17575 -7.44009,-16.622889 -16.62642,-16.622889 -9.18986,0 -16.63347,7.447139 -16.63347,16.622889 0,9.186333 7.44361,16.633472 16.63347,16.633472"
     style="fill:#ffffff;fill-opacity:1;fill-rule:nonzero;stroke:none"
     id="path4248"
     inkscape:connector-curvature="0" />
  <path
     d="m 141.5309,95.854479 -25.02606,0 c -9.92011,0 -9.92011,13.105691 0,13.105691 l 28.62792,-0.0564 c 2.10255,-0.0318 4.32858,-1.16416 5.98311,-3.78883 l 14.37216,-22.690667 -0.0212,134.856357 c 0,5.15408 4.17689,9.32391 9.32391,9.32391 5.15409,0 9.32039,-4.16983 9.32039,-9.32391 l 0.007,-78.22495 6.25828,0 -0.0282,78.22495 c 0,5.15408 4.17336,9.32391 9.32745,9.32391 5.13997,0 9.32391,-4.16983 9.32391,-9.32391 l 0.0353,-134.856357 6.18772,0 0,49.692277 c 0,10.00477 13.03514,10.00477 13.00692,0 l 0,-50.75061 c 0,-11.045472 -8.57955,-21.879278 -21.51239,-21.879278 l -30.70225,-0.01058 c -7.45419,0 -13.98058,3.84175 -17.76941,9.687278 l -16.71461,26.691166 z"
     style="fill:#ffffff;fill-opacity:1;fill-rule:nonzero;stroke:none"
     id="path4252"
     inkscape:connector-curvature="0" />
  <path
     d="m 41.656333,179.36403 c 14.978944,0 27.121555,12.13909 27.121555,27.11803 l -0.246944,18.41147 31.894636,0 28.86781,-81.48814 0.13758,-27.57663 -96.904526,0.0353 -0.05997,63.42944 9.189861,0.0705 z"
     style="fill:#ffffff;fill-opacity:1;fill-rule:nonzero;stroke:none"
     id="path4256"
     inkscape:connector-curvature="0" />
  <path
     d="m 20.820925,206.48206 c 0,-11.31358 9.165167,-20.48228 20.47875,-20.48228 11.313583,0 20.482277,9.1687 20.482277,20.48228 0,11.303 -9.168694,20.47875 -20.482277,20.47875 -11.313583,0 -20.47875,-9.17575 -20.47875,-20.47875 m 20.47875,8.87589 c 4.903611,0 8.879416,-3.97581 8.879416,-8.87589 0,-4.90361 -3.975805,-8.87942 -8.879416,-8.87942 -4.900084,0 -8.875889,3.97581 -8.875889,8.87942 0,4.90008 3.975805,8.87589 8.875889,8.87589"
     style="fill:#ffffff;fill-opacity:1;fill-rule:nonzero;stroke:none"
     id="path4260"
     inkscape:connector-curvature="0" />
  <path
     d="m 111.57301,74.123368 0,0 -3.82411,1.859139 -1.82739,-3.788833 0.007,0 -3.78884,1.834444 -1.83444,-3.785305 0.0141,0 -3.788834,1.834444 -1.827389,-3.788833 0.0071,0 -3.788833,1.830916 -1.823861,-3.788833 0.0071,0.01411 -3.792361,1.816806 -1.837973,-3.834695 -11.479388,32.741305 c -0.924278,2.659945 0.47625,5.566837 3.129139,6.491107 l 18.559638,6.39939 c 2.652889,0.92428 5.55625,-0.4833 6.477002,-3.13619 l 11.41223,-32.698972 z"
     style="fill:#ffffff;fill-opacity:1;fill-rule:nonzero;stroke:none"
     id="path4264"
     inkscape:connector-curvature="0" />
  <path
     d="m 95.331118,40.934035 -5.372805,-4.5085 -62.991999,74.651305 5.376333,4.50497 62.988471,-74.647775 z"
     style="fill:#ffffff;fill-opacity:1;fill-rule:nonzero;stroke:none"
     id="path4268"
     inkscape:connector-curvature="0" />
</svg>
