<?xml version="1.0" encoding="UTF-8" standalone="no"?>
<svg
   xmlns:dc="http://purl.org/dc/elements/1.1/"
   xmlns:cc="http://creativecommons.org/ns#"
   xmlns:rdf="http://www.w3.org/1999/02/22-rdf-syntax-ns#"
   xmlns:svg="http://www.w3.org/2000/svg"
   xmlns="http://www.w3.org/2000/svg"
   xmlns:sodipodi="http://sodipodi.sourceforge.net/DTD/sodipodi-0.dtd"
   xmlns:inkscape="http://www.inkscape.org/namespaces/inkscape"
   width="90.597931"
   height="90.597931"
   viewBox="0 0 255.68748 255.68749"
   version="1.1"
   id="svg2"
   inkscape:version="0.48.2 r9819"
   sodipodi:docname="MUTCD RS-067'.svg">
  <metadata
     id="metadata62">
    <rdf:RDF>
      <cc:Work
         rdf:about="">
        <dc:format>image/svg+xml</dc:format>
        <dc:type
           rdf:resource="http://purl.org/dc/dcmitype/StillImage" />
        <dc:title></dc:title>
      </cc:Work>
    </rdf:RDF>
  </metadata>
  <defs
     id="defs60">
    <clipPath
       clipPathUnits="userSpaceOnUse"
       id="clipPath3564">
      <path
         inkscape:connector-curvature="0"
         d="m 63,43 512.622,0 0,313.129 L 63,356.129 63,43 z"
         id="path3566" />
    </clipPath>
  </defs>
  <sodipodi:namedview
     pagecolor="#ffffff"
     bordercolor="#666666"
     borderopacity="1"
     objecttolerance="10"
     gridtolerance="10"
     guidetolerance="10"
     inkscape:pageopacity="0"
     inkscape:pageshadow="2"
     inkscape:window-width="1280"
     inkscape:window-height="1004"
     id="namedview58"
     showgrid="false"
     fit-margin-top="0"
     fit-margin-left="0"
     fit-margin-right="0"
     fit-margin-bottom="0"
     inkscape:zoom="4.8826954"
     inkscape:cx="83.159137"
     inkscape:cy="32.525196"
     inkscape:window-x="-8"
     inkscape:window-y="-8"
     inkscape:window-maximized="1"
     inkscape:current-layer="svg2"
     showguides="true"
     inkscape:guide-bbox="true" />
  <polygon
     points="315,545 235,375 315,205 395,375 "
     id="polygon10"
     style="fill:none;stroke:#ffffff;stroke-width:40"
     transform="translate(17744.427,14390.473)" />
  <!-- draw the bicycle -->
  <!-- RIGHT -->
  <!-- LANE -->
  <!-- ONLY -->
  <path
     inkscape:connector-curvature="0"
     d="m 22.004643,254.8459 211.663127,0 c 5.57392,0 11.02432,-2.2577 14.97189,-6.2088 3.94053,-3.937 6.1948,-9.3839 6.1948,-14.9578 l 0,-211.6632 c 0,-5.5738 -2.25426,-11.0207 -6.1948,-14.9718 -3.94757,-3.937 -9.39797,-6.1948 -14.97189,-6.1948 l -211.663127,0 c -5.57036,0 -11.02077,2.2578 -14.9577696,6.1948 -3.94759,3.9511 -6.20888999,9.398 -6.20888999,14.9718 l 0,211.6632 c 0,7.2566 3.85232999,14.1111 9.96243959,18.0058 3.48545,2.2154 7.16845,2.7375 11.20422,3.1608"
     style="fill:#ffffff;fill-opacity:1;fill-rule:nonzero;stroke:#000000;stroke-width:1.69333339;stroke-miterlimit:4;stroke-opacity:1;stroke-dasharray:none"
     id="path3026" />
  <path
     inkscape:connector-curvature="0"
     d="m 22.004643,249.5543 c -3.15383,0 -5.80672,-0.7091 -8.36083,-2.3284 -4.6249196,-2.9421 -7.5141696,-8.1385 -7.5141696,-13.5466 l 0,-211.6632 c 0,-4.1733 1.69334,-8.2691 4.6566696,-11.2324 2.94217,-2.9422 7.0485,-4.6426 11.21833,-4.6426 l 211.663127,0 c 4.18397,0 8.29028,1.6898 11.23245,4.6426 2.95277,2.9422 4.64255,7.0485 4.64255,11.2324 l 0,211.6632 c 0,4.1698 -1.70035,8.2761 -4.64255,11.2183 -2.96333,2.9633 -7.05555,4.6567 -11.23245,4.6567 l -211.663127,0 z"
     style="fill:#713907;fill-opacity:1;fill-rule:evenodd;stroke:none"
     id="path3050" />
  <path
     d="m 190.47849,151.41308 c 3.94406,0 7.15433,3.21381 7.15433,7.15786 0,3.94053 -3.21027,7.15081 -7.15433,7.15081 -3.95111,0 -7.16492,-3.21028 -7.16492,-7.15081 0,-3.94405 3.21381,-7.15786 7.16492,-7.15786 m 0,-21.63233 c -15.875,0 -28.79019,12.91519 -28.79019,28.79019 0,15.875 12.91519,28.7902 28.79019,28.7902 15.875,0 28.7902,-12.9152 28.7902,-28.7902 0,-15.875 -12.9152,-28.79019 -28.7902,-28.79019"
     style="fill:#ffffff;fill-opacity:1;fill-rule:nonzero;stroke:none"
     id="path8826"
     inkscape:connector-curvature="0" />
  <path
     d="m 225.9256,135.52397 -0.06,-24.01711 c 0,-9.5885 -8.49842,-8.59366 -8.49842,-8.59366 l -48.10477,0.007 -17.58242,-29.608688 -10.3258,0 17.5648,29.608638 -13.29972,22.51075 -30.32478,-0.0459 C 104.82052,103.90803 83.544488,105.22742 83.544488,105.22742 l -55.072138,0 0.01411,51.11044 8.240889,0 c 1.058334,-17.36725 15.345833,-31.17144 32.981194,-31.17144 17.667111,0 31.947556,13.8183 33.009416,31.20672 l 54.85342,0.0212 c 1.03011,-17.39547 15.33172,-31.22789 32.99531,-31.22789 17.67769,0 31.9793,13.85358 33.00941,31.26317 l 5.57036,0.007 c 3.42195,0 6.20889,-2.78342 6.20889,-6.21242 l 0,-14.70025 -9.42975,0 z"
     style="fill:#ffffff;fill-opacity:1;fill-rule:nonzero;stroke:none"
     id="path8830"
     inkscape:connector-curvature="0" />
  <path
     d="m 69.620349,151.41308 c 3.954639,0 7.164917,3.21381 7.164917,7.15786 0,3.94053 -3.210278,7.15081 -7.164917,7.15081 -3.944055,0 -7.150805,-3.21028 -7.150805,-7.15081 0,-3.94405 3.20675,-7.15786 7.150805,-7.15786 m 0,-21.63233 c -15.867944,0 -28.776083,12.91519 -28.776083,28.79019 0,15.875 12.908139,28.7902 28.776083,28.7902 15.871472,0 28.790194,-12.9152 28.790194,-28.7902 0,-15.875 -12.918722,-28.79019 -28.790194,-28.79019"
     style="fill:#ffffff;fill-opacity:1;fill-rule:nonzero;stroke:none"
     id="path8834"
     inkscape:connector-curvature="0" />
</svg>
