<?xml version="1.0" encoding="UTF-8" standalone="no"?>
<svg
   xmlns:dc="http://purl.org/dc/elements/1.1/"
   xmlns:cc="http://creativecommons.org/ns#"
   xmlns:rdf="http://www.w3.org/1999/02/22-rdf-syntax-ns#"
   xmlns:svg="http://www.w3.org/2000/svg"
   xmlns="http://www.w3.org/2000/svg"
   xmlns:sodipodi="http://sodipodi.sourceforge.net/DTD/sodipodi-0.dtd"
   xmlns:inkscape="http://www.inkscape.org/namespaces/inkscape"
   width="90.597931"
   height="90.597931"
   viewBox="0 0 255.68748 255.68749"
   version="1.1"
   id="svg2"
   inkscape:version="0.48.2 r9819"
   sodipodi:docname="MUTCD RS-093.svg">
  <metadata
     id="metadata62">
    <rdf:RDF>
      <cc:Work
         rdf:about="">
        <dc:format>image/svg+xml</dc:format>
        <dc:type
           rdf:resource="http://purl.org/dc/dcmitype/StillImage" />
        <dc:title></dc:title>
      </cc:Work>
    </rdf:RDF>
  </metadata>
  <defs
     id="defs60">
    <clipPath
       clipPathUnits="userSpaceOnUse"
       id="clipPath3564">
      <path
         inkscape:connector-curvature="0"
         d="m 63,43 512.622,0 0,313.129 L 63,356.129 63,43 z"
         id="path3566" />
    </clipPath>
  </defs>
  <sodipodi:namedview
     pagecolor="#ffffff"
     bordercolor="#666666"
     borderopacity="1"
     objecttolerance="10"
     gridtolerance="10"
     guidetolerance="10"
     inkscape:pageopacity="0"
     inkscape:pageshadow="2"
     inkscape:window-width="1280"
     inkscape:window-height="1004"
     id="namedview58"
     showgrid="false"
     fit-margin-top="0"
     fit-margin-left="0"
     fit-margin-right="0"
     fit-margin-bottom="0"
     inkscape:zoom="4.8826954"
     inkscape:cx="83.159137"
     inkscape:cy="32.525196"
     inkscape:window-x="-8"
     inkscape:window-y="-8"
     inkscape:window-maximized="1"
     inkscape:current-layer="svg2"
     showguides="true"
     inkscape:guide-bbox="true" />
  <polygon
     points="315,545 235,375 315,205 395,375 "
     id="polygon10"
     style="fill:none;stroke:#ffffff;stroke-width:40"
     transform="translate(17744.427,14390.473)" />
  <!-- draw the bicycle -->
  <!-- RIGHT -->
  <!-- LANE -->
  <!-- ONLY -->
  <path
     inkscape:connector-curvature="0"
     d="m 22.004643,254.8459 211.663127,0 c 5.57392,0 11.02432,-2.2577 14.97189,-6.2088 3.94053,-3.937 6.1948,-9.3839 6.1948,-14.9578 l 0,-211.6632 c 0,-5.5738 -2.25426,-11.0207 -6.1948,-14.9718 -3.94757,-3.937 -9.39797,-6.1948 -14.97189,-6.1948 l -211.663127,0 c -5.57036,0 -11.02077,2.2578 -14.9577696,6.1948 -3.94759,3.9511 -6.20888999,9.398 -6.20888999,14.9718 l 0,211.6632 c 0,7.2566 3.85232999,14.1111 9.96243959,18.0058 3.48545,2.2154 7.16845,2.7375 11.20422,3.1608"
     style="fill:#ffffff;fill-opacity:1;fill-rule:nonzero;stroke:#000000;stroke-width:1.69333339;stroke-miterlimit:4;stroke-opacity:1;stroke-dasharray:none"
     id="path3026" />
  <path
     inkscape:connector-curvature="0"
     d="m 22.004643,249.5543 c -3.15383,0 -5.80672,-0.7091 -8.36083,-2.3284 -4.6249196,-2.9421 -7.5141696,-8.1385 -7.5141696,-13.5466 l 0,-211.6632 c 0,-4.1733 1.69334,-8.2691 4.6566696,-11.2324 2.94217,-2.9422 7.0485,-4.6426 11.21833,-4.6426 l 211.663127,0 c 4.18397,0 8.29028,1.6898 11.23245,4.6426 2.95277,2.9422 4.64255,7.0485 4.64255,11.2324 l 0,211.6632 c 0,4.1698 -1.70035,8.2761 -4.64255,11.2183 -2.96333,2.9633 -7.05555,4.6567 -11.23245,4.6567 l -211.663127,0 z"
     style="fill:#713907;fill-opacity:1;fill-rule:evenodd;stroke:none"
     id="path3050" />
  <path
     d="m 124.2554,155.74907 0,38.6962 c 0,0 1.35114,10.18117 -11.43,10.18117 l -50.387254,0 c -12.774083,0 -11.43,-10.18117 -11.43,-10.18117 l 0,-38.6962 73.247254,0 z"
     style="fill:#ffffff;fill-opacity:1;fill-rule:nonzero;stroke:none"
     id="path11842"
     inkscape:connector-curvature="0" />
  <path
     d="m 101.05673,51.01641 c -1.763889,-2.843389 -4.914195,-4.73075 -8.509,-4.73075 l -16.248945,0.0388 c -5.697361,0 -10.31875,4.624917 -10.31875,10.322278 0,2.007306 0.564444,3.866445 1.548694,5.450417 l 0.123472,0.179916 c 4.797778,6.787445 7.602361,15.053028 7.602361,23.985361 0,15.158863 -8.089194,28.419773 -20.196527,35.697583 l -0.123472,0.0811 c -2.328333,1.46755 -3.887611,4.01814 -3.887611,6.98853 l 0,12.29783 73.278998,0 0,-45.137915 c 0,0 0.0811,-4.162778 -2.72344,-9.3345 L 101.05673,51.01641 z"
     style="fill:#ffffff;fill-opacity:1;fill-rule:nonzero;stroke:none"
     id="path11846"
     inkscape:connector-curvature="0" />
  <path
     d="m 154.36498,51.01641 c 1.77095,-2.843389 4.92125,-4.73075 8.509,-4.73075 l 16.256,0.0388 c 5.69736,0 10.32228,4.624917 10.32228,10.322278 0,2.007306 -0.5715,3.866445 -1.55222,5.450417 l -0.13053,0.179916 c -4.78014,6.787445 -7.59178,15.053028 -7.59178,23.985361 0,15.158863 8.09625,28.419773 20.193,35.697583 l 0.11289,0.0811 c 2.3495,1.46755 3.90525,4.01814 3.90525,6.98853 l 0,12.29783 -73.27547,0 0,-45.137915 c 0,0 -0.0988,-4.162778 2.71286,-9.3345 L 154.36498,51.01641 z"
     style="fill:#ffffff;fill-opacity:1;fill-rule:nonzero;stroke:none"
     id="path11850"
     inkscape:connector-curvature="0" />
  <path
     d="m 204.34654,155.74907 0,38.6962 c 0,0 1.35114,10.18117 -11.41589,10.18117 l -50.40137,0 c -12.76702,0 -11.42294,-10.18117 -11.42294,-10.18117 l 0,-38.6962 73.2402,0 z"
     style="fill:#ffffff;fill-opacity:1;fill-rule:nonzero;stroke:none"
     id="path11854"
     inkscape:connector-curvature="0" />
  <path
     d="m 133.91092,152.1578 c 1.90853,0 3.45017,-1.54164 3.45017,-3.44311 0,-1.90853 -1.54164,-3.4537 -3.45017,-3.4537 l -11.70869,0 c -1.90853,0 -3.45722,1.54517 -3.45722,3.4537 0,1.90147 1.54869,3.44311 3.45722,3.44311 l 11.70869,0 z"
     style="fill:#ffffff;fill-opacity:1;fill-rule:nonzero;stroke:none"
     id="path11858"
     inkscape:connector-curvature="0" />
</svg>
