<?xml version="1.0" encoding="UTF-8" standalone="no"?>
<svg
   xmlns:dc="http://purl.org/dc/elements/1.1/"
   xmlns:cc="http://creativecommons.org/ns#"
   xmlns:rdf="http://www.w3.org/1999/02/22-rdf-syntax-ns#"
   xmlns:svg="http://www.w3.org/2000/svg"
   xmlns="http://www.w3.org/2000/svg"
   xmlns:sodipodi="http://sodipodi.sourceforge.net/DTD/sodipodi-0.dtd"
   xmlns:inkscape="http://www.inkscape.org/namespaces/inkscape"
   width="90.597931"
   height="90.597931"
   viewBox="0 0 255.68748 255.68749"
   version="1.1"
   id="svg2"
   inkscape:version="0.48.2 r9819"
   sodipodi:docname="MUTCD RS-059.svg">
  <metadata
     id="metadata62">
    <rdf:RDF>
      <cc:Work
         rdf:about="">
        <dc:format>image/svg+xml</dc:format>
        <dc:type
           rdf:resource="http://purl.org/dc/dcmitype/StillImage" />
        <dc:title></dc:title>
      </cc:Work>
    </rdf:RDF>
  </metadata>
  <defs
     id="defs60">
    <clipPath
       clipPathUnits="userSpaceOnUse"
       id="clipPath3564">
      <path
         inkscape:connector-curvature="0"
         d="m 63,43 512.622,0 0,313.129 L 63,356.129 63,43 z"
         id="path3566" />
    </clipPath>
  </defs>
  <sodipodi:namedview
     pagecolor="#ffffff"
     bordercolor="#666666"
     borderopacity="1"
     objecttolerance="10"
     gridtolerance="10"
     guidetolerance="10"
     inkscape:pageopacity="0"
     inkscape:pageshadow="2"
     inkscape:window-width="1280"
     inkscape:window-height="1004"
     id="namedview58"
     showgrid="false"
     fit-margin-top="0"
     fit-margin-left="0"
     fit-margin-right="0"
     fit-margin-bottom="0"
     inkscape:zoom="4.8826954"
     inkscape:cx="83.159137"
     inkscape:cy="32.525196"
     inkscape:window-x="-8"
     inkscape:window-y="-8"
     inkscape:window-maximized="1"
     inkscape:current-layer="svg2"
     showguides="true"
     inkscape:guide-bbox="true" />
  <polygon
     points="315,545 235,375 315,205 395,375 "
     id="polygon10"
     style="fill:none;stroke:#ffffff;stroke-width:40"
     transform="translate(17744.427,14390.473)" />
  <!-- draw the bicycle -->
  <!-- RIGHT -->
  <!-- LANE -->
  <!-- ONLY -->
  <path
     inkscape:connector-curvature="0"
     d="m 22.004643,254.8459 211.663127,0 c 5.57392,0 11.02432,-2.2577 14.97189,-6.2088 3.94053,-3.937 6.1948,-9.3839 6.1948,-14.9578 l 0,-211.6632 c 0,-5.5738 -2.25426,-11.0207 -6.1948,-14.9718 -3.94757,-3.937 -9.39797,-6.1948 -14.97189,-6.1948 l -211.663127,0 c -5.57036,0 -11.02077,2.2578 -14.9577696,6.1948 -3.94759,3.9511 -6.20888999,9.398 -6.20888999,14.9718 l 0,211.6632 c 0,7.2566 3.85232999,14.1111 9.96243959,18.0058 3.48545,2.2154 7.16845,2.7375 11.20422,3.1608"
     style="fill:#ffffff;fill-opacity:1;fill-rule:nonzero;stroke:#000000;stroke-width:1.69333339;stroke-miterlimit:4;stroke-opacity:1;stroke-dasharray:none"
     id="path3026" />
  <path
     inkscape:connector-curvature="0"
     d="m 22.004643,249.5543 c -3.15383,0 -5.80672,-0.7091 -8.36083,-2.3284 -4.6249196,-2.9421 -7.5141696,-8.1385 -7.5141696,-13.5466 l 0,-211.6632 c 0,-4.1733 1.69334,-8.2691 4.6566696,-11.2324 2.94217,-2.9422 7.0485,-4.6426 11.21833,-4.6426 l 211.663127,0 c 4.18397,0 8.29028,1.6898 11.23245,4.6426 2.95277,2.9422 4.64255,7.0485 4.64255,11.2324 l 0,211.6632 c 0,4.1698 -1.70035,8.2761 -4.64255,11.2183 -2.96333,2.9633 -7.05555,4.6567 -11.23245,4.6567 l -211.663127,0 z"
     style="fill:#713907;fill-opacity:1;fill-rule:evenodd;stroke:none"
     id="path3050" />
  <path
     d="M 27.876509,43.833854 59.090286,75.728492 71.045925,64.965243 60.219175,43.929104 27.876509,43.833854 z"
     style="fill:#ffffff;fill-opacity:1;fill-rule:nonzero;stroke:none"
     id="path11714"
     inkscape:connector-curvature="0" />
  <path
     d="m 163.11034,132.14471 c 5.35516,1.48167 11.07369,-1.57691 12.57652,-6.98147 1.50284,-5.35869 -1.63336,-10.95375 -6.98852,-12.47775 l -4.20159,-1.15005 -5.42219,19.40983 4.03578,1.19944 z"
     style="fill:#ffffff;fill-opacity:1;fill-rule:nonzero;stroke:none"
     id="path11718"
     inkscape:connector-curvature="0" />
  <path
     d="m 159.81186,110.29719 -33.84549,-9.51795 c -2.20486,-0.61736 -4.49086,0.71614 -5.12586,2.91395 l -3.15031,11.37708 c -0.62442,2.20486 0.62089,4.49439 2.84692,5.11881 l 33.87724,9.46855 5.3975,-19.36044 z"
     style="fill:#ffffff;fill-opacity:1;fill-rule:nonzero;stroke:none"
     id="path11722"
     inkscape:connector-curvature="0" />
  <path
     d="m 170.7127,144.47782 c -2.84692,-2.71991 -6.40997,-4.87891 -10.5022,-6.02191 L 114.96323,125.78413 87.139647,76.49402 c -1.425222,-2.536472 -3.824111,-4.543778 -6.861528,-5.404555 -6.092472,-1.721556 -12.410722,1.862666 -14.096999,7.9375 -0.843139,2.913944 -0.41275,5.877277 0.881944,8.364361 l 34.773306,61.005854 c 0,0 2.84692,4.54025 10.01889,6.93208 l 63.20366,17.73767 29.3123,29.73564 c 0.99837,1.05481 2.29306,1.82033 3.77473,2.24719 4.45911,1.24531 9.0805,-1.38641 10.32227,-5.77497 0.87489,-3.11503 -0.11994,-6.31825 -2.33538,-8.37847 l -45.42014,-46.4185 z"
     style="fill:#ffffff;fill-opacity:1;fill-rule:nonzero;stroke:none"
     id="path11726"
     inkscape:connector-curvature="0" />
  <path
     d="m 201.93706,155.61854 4.58258,2.86809 8.509,-8.99231 -4.445,-6.16655 c 1.08303,-7.88811 -3.83117,-15.52928 -11.71222,-17.78353 -8.65364,-2.39183 -17.61772,2.63172 -20.03072,11.27831 -2.4377,8.66069 2.60702,17.59655 11.26066,20.03777 4.14161,1.15006 8.29381,0.52211 11.8357,-1.24178"
     style="fill:#ffffff;fill-opacity:1;fill-rule:nonzero;stroke:none"
     id="path11730"
     inkscape:connector-curvature="0" />
</svg>
