<?xml version="1.0" encoding="UTF-8" standalone="no"?>
<svg
   xmlns:dc="http://purl.org/dc/elements/1.1/"
   xmlns:cc="http://creativecommons.org/ns#"
   xmlns:rdf="http://www.w3.org/1999/02/22-rdf-syntax-ns#"
   xmlns:svg="http://www.w3.org/2000/svg"
   xmlns="http://www.w3.org/2000/svg"
   xmlns:sodipodi="http://sodipodi.sourceforge.net/DTD/sodipodi-0.dtd"
   xmlns:inkscape="http://www.inkscape.org/namespaces/inkscape"
   width="90.597931"
   height="90.597931"
   viewBox="0 0 255.68748 255.68749"
   version="1.1"
   id="svg2"
   inkscape:version="0.48.2 r9819"
   sodipodi:docname="MUTCD RS-095.svg">
  <metadata
     id="metadata62">
    <rdf:RDF>
      <cc:Work
         rdf:about="">
        <dc:format>image/svg+xml</dc:format>
        <dc:type
           rdf:resource="http://purl.org/dc/dcmitype/StillImage" />
        <dc:title></dc:title>
      </cc:Work>
    </rdf:RDF>
  </metadata>
  <defs
     id="defs60">
    <clipPath
       clipPathUnits="userSpaceOnUse"
       id="clipPath3564">
      <path
         inkscape:connector-curvature="0"
         d="m 63,43 512.622,0 0,313.129 L 63,356.129 63,43 z"
         id="path3566" />
    </clipPath>
  </defs>
  <sodipodi:namedview
     pagecolor="#ffffff"
     bordercolor="#666666"
     borderopacity="1"
     objecttolerance="10"
     gridtolerance="10"
     guidetolerance="10"
     inkscape:pageopacity="0"
     inkscape:pageshadow="2"
     inkscape:window-width="1280"
     inkscape:window-height="1004"
     id="namedview58"
     showgrid="false"
     fit-margin-top="0"
     fit-margin-left="0"
     fit-margin-right="0"
     fit-margin-bottom="0"
     inkscape:zoom="4.8826954"
     inkscape:cx="83.159137"
     inkscape:cy="32.525196"
     inkscape:window-x="-8"
     inkscape:window-y="-8"
     inkscape:window-maximized="1"
     inkscape:current-layer="svg2"
     showguides="true"
     inkscape:guide-bbox="true" />
  <polygon
     points="315,545 235,375 315,205 395,375 "
     id="polygon10"
     style="fill:none;stroke:#ffffff;stroke-width:40"
     transform="translate(17744.427,14390.473)" />
  <!-- draw the bicycle -->
  <!-- RIGHT -->
  <!-- LANE -->
  <!-- ONLY -->
  <path
     inkscape:connector-curvature="0"
     d="m 22.004643,254.8459 211.663127,0 c 5.57392,0 11.02432,-2.2577 14.97189,-6.2088 3.94053,-3.937 6.1948,-9.3839 6.1948,-14.9578 l 0,-211.6632 c 0,-5.5738 -2.25426,-11.0207 -6.1948,-14.9718 -3.94757,-3.937 -9.39797,-6.1948 -14.97189,-6.1948 l -211.663127,0 c -5.57036,0 -11.02077,2.2578 -14.9577696,6.1948 -3.94759,3.9511 -6.20888999,9.398 -6.20888999,14.9718 l 0,211.6632 c 0,7.2566 3.85232999,14.1111 9.96243959,18.0058 3.48545,2.2154 7.16845,2.7375 11.20422,3.1608"
     style="fill:#ffffff;fill-opacity:1;fill-rule:nonzero;stroke:#000000;stroke-width:1.69333339;stroke-miterlimit:4;stroke-opacity:1;stroke-dasharray:none"
     id="path3026" />
  <path
     inkscape:connector-curvature="0"
     d="m 22.004643,249.5543 c -3.15383,0 -5.80672,-0.7091 -8.36083,-2.3284 -4.6249196,-2.9421 -7.5141696,-8.1385 -7.5141696,-13.5466 l 0,-211.6632 c 0,-4.1733 1.69334,-8.2691 4.6566696,-11.2324 2.94217,-2.9422 7.0485,-4.6426 11.21833,-4.6426 l 211.663127,0 c 4.18397,0 8.29028,1.6898 11.23245,4.6426 2.95277,2.9422 4.64255,7.0485 4.64255,11.2324 l 0,211.6632 c 0,4.1698 -1.70035,8.2761 -4.64255,11.2183 -2.96333,2.9633 -7.05555,4.6567 -11.23245,4.6567 l -211.663127,0 z"
     style="fill:#713907;fill-opacity:1;fill-rule:evenodd;stroke:none"
     id="path3050" />
  <path
     d="m 140.19352,75.114659 c 9.19691,0 16.64052,-7.447139 16.64052,-16.637 0,-9.186333 -7.44361,-16.626415 -16.64052,-16.626415 -9.17928,0 -16.61937,7.440082 -16.61937,16.626415 0,9.189861 7.44009,16.637 16.61937,16.637"
     style="fill:#ffffff;fill-opacity:1;fill-rule:nonzero;stroke:none"
     id="path8222"
     inkscape:connector-curvature="0" />
  <path
     d="m 185.42703,220.49086 -24.53569,-74.53842 0,-59.682948 c 0,-7.803444 -7.80697,-7.46125 -7.80697,-7.46125 l -25.11425,0 -6.61458,0 c 0,0 -1.3582,-0.179916 -4.07812,2.032 L 98.777757,91.610548 79.526675,72.338298 c -3.14325,-3.753556 -8.703028,-4.300361 -12.453055,-1.143 -3.767667,3.157361 -3.975806,8.847666 -0.832556,12.601222 l 24.634471,24.61331 c 1.61925,1.778 3.96875,2.9845 6.558139,2.9845 1.908528,0 3.693586,-0.59973 5.125866,-1.62631 l 16.24541,-8.90411 0,43.73386 -24.824971,75.72728 c -1.781527,6.59694 2.130778,13.36675 8.731251,15.13769 6.58636,1.77095 13.36675,-2.14136 15.13064,-8.72772 l 21.68525,-65.37325 22.02038,65.52495 c 1.76389,6.60047 8.55134,10.51277 15.13064,8.74183 6.59342,-1.77095 10.51278,-8.55133 8.74889,-15.13769"
     style="fill:#ffffff;fill-opacity:1;fill-rule:nonzero;stroke:none"
     id="path8226"
     inkscape:connector-curvature="0" />
  <path
     d="m 61.845453,92.196159 c 0.881944,0.874889 2.293056,0.889 3.175,0.02822 l 0.271639,-0.268111 c 0.874889,-0.860778 0.889,-2.275417 0.02469,-3.157361 l -4.836583,-4.924776 c -0.881944,-0.889 -2.293056,-0.896055 -3.175,-0.03528 l -0.268111,0.261056 c -0.874889,0.874889 -0.889,2.296583 -0.02822,3.164416 l 4.836583,4.931834 z"
     style="fill:#ffffff;fill-opacity:1;fill-rule:nonzero;stroke:none"
     id="path8230"
     inkscape:connector-curvature="0" />
  <path
     d="m 107.91435,36.337327 -28.402139,30.702249 3.443111,3.506611 31.704138,-27.326166 21.082,-19.423943 c 0.83608,-0.927806 1.35114,-2.155472 1.35114,-3.499556 0.0353,-2.935111 -2.32833,-5.326944 -5.25639,-5.358694 -1.38642,-0.0071 -2.64583,0.508 -3.61244,1.368778 l -20.30942,20.030721 z"
     style="fill:#ffffff;fill-opacity:1;fill-rule:nonzero;stroke:none"
     id="path8234"
     inkscape:connector-curvature="0" />
</svg>
