<?xml version="1.0" encoding="UTF-8" standalone="no"?>
<svg
   xmlns:dc="http://purl.org/dc/elements/1.1/"
   xmlns:cc="http://creativecommons.org/ns#"
   xmlns:rdf="http://www.w3.org/1999/02/22-rdf-syntax-ns#"
   xmlns:svg="http://www.w3.org/2000/svg"
   xmlns="http://www.w3.org/2000/svg"
   xmlns:sodipodi="http://sodipodi.sourceforge.net/DTD/sodipodi-0.dtd"
   xmlns:inkscape="http://www.inkscape.org/namespaces/inkscape"
   width="90.597931"
   height="90.597931"
   viewBox="0 0 255.68748 255.68749"
   version="1.1"
   id="svg2"
   inkscape:version="0.48.2 r9819"
   sodipodi:docname="MUTCD RS-015.svg">
  <metadata
     id="metadata62">
    <rdf:RDF>
      <cc:Work
         rdf:about="">
        <dc:format>image/svg+xml</dc:format>
        <dc:type
           rdf:resource="http://purl.org/dc/dcmitype/StillImage" />
        <dc:title></dc:title>
      </cc:Work>
    </rdf:RDF>
  </metadata>
  <defs
     id="defs60">
    <clipPath
       clipPathUnits="userSpaceOnUse"
       id="clipPath3564">
      <path
         inkscape:connector-curvature="0"
         d="m 63,43 512.622,0 0,313.129 L 63,356.129 63,43 z"
         id="path3566" />
    </clipPath>
  </defs>
  <sodipodi:namedview
     pagecolor="#ffffff"
     bordercolor="#666666"
     borderopacity="1"
     objecttolerance="10"
     gridtolerance="10"
     guidetolerance="10"
     inkscape:pageopacity="0"
     inkscape:pageshadow="2"
     inkscape:window-width="1280"
     inkscape:window-height="1004"
     id="namedview58"
     showgrid="false"
     fit-margin-top="0"
     fit-margin-left="0"
     fit-margin-right="0"
     fit-margin-bottom="0"
     inkscape:zoom="4.8826954"
     inkscape:cx="83.159137"
     inkscape:cy="32.525196"
     inkscape:window-x="-8"
     inkscape:window-y="-8"
     inkscape:window-maximized="1"
     inkscape:current-layer="svg2"
     showguides="true"
     inkscape:guide-bbox="true" />
  <polygon
     points="315,545 235,375 315,205 395,375 "
     id="polygon10"
     style="fill:none;stroke:#ffffff;stroke-width:40"
     transform="translate(17744.427,14390.473)" />
  <!-- draw the bicycle -->
  <!-- RIGHT -->
  <!-- LANE -->
  <!-- ONLY -->
  <path
     inkscape:connector-curvature="0"
     d="m 22.004643,254.8459 211.663127,0 c 5.57392,0 11.02432,-2.2577 14.97189,-6.2088 3.94053,-3.937 6.1948,-9.3839 6.1948,-14.9578 l 0,-211.6632 c 0,-5.5738 -2.25426,-11.0207 -6.1948,-14.9718 -3.94757,-3.937 -9.39797,-6.1948 -14.97189,-6.1948 l -211.663127,0 c -5.57036,0 -11.02077,2.2578 -14.9577696,6.1948 -3.94759,3.9511 -6.20888999,9.398 -6.20888999,14.9718 l 0,211.6632 c 0,7.2566 3.85232999,14.1111 9.96243959,18.0058 3.48545,2.2154 7.16845,2.7375 11.20422,3.1608"
     style="fill:#ffffff;fill-opacity:1;fill-rule:nonzero;stroke:#000000;stroke-width:1.69333339;stroke-miterlimit:4;stroke-opacity:1;stroke-dasharray:none"
     id="path3026" />
  <path
     inkscape:connector-curvature="0"
     d="m 22.004643,249.5543 c -3.15383,0 -5.80672,-0.7091 -8.36083,-2.3284 -4.6249196,-2.9421 -7.5141696,-8.1385 -7.5141696,-13.5466 l 0,-211.6632 c 0,-4.1733 1.69334,-8.2691 4.6566696,-11.2324 2.94217,-2.9422 7.0485,-4.6426 11.21833,-4.6426 l 211.663127,0 c 4.18397,0 8.29028,1.6898 11.23245,4.6426 2.95277,2.9422 4.64255,7.0485 4.64255,11.2324 l 0,211.6632 c 0,4.1698 -1.70035,8.2761 -4.64255,11.2183 -2.96333,2.9633 -7.05555,4.6567 -11.23245,4.6567 l -211.663127,0 z"
     style="fill:#713907;fill-opacity:1;fill-rule:evenodd;stroke:none"
     id="path3050" />
  <path
     d="m 203.35167,32.221454 c 0,0 -1.61925,32.046333 -29.70389,29.329944 0,0 -3.16089,-26.786416 29.70389,-29.329944"
     style="fill:#ffffff;fill-opacity:1;fill-rule:nonzero;stroke:none"
     id="path3600"
     inkscape:connector-curvature="0" />
  <path
     d="m 180.98556,69.552398 c 3.67947,-3.601861 8.72419,-5.820833 14.27691,-5.820833 11.29242,0 20.44348,9.161638 20.44348,20.450527 0,0.377472 -0.0141,0.754945 -0.0282,1.143 l -0.0529,0 c -0.35278,4.423833 -1.75684,9.948333 -5.07295,16.707558 0,0 -5.72558,10.96433 -10.30816,15.96319 l -0.43392,0.41628 c -2.23308,2.23661 -5.32694,3.62303 -8.74183,3.62303 -4.14867,0 -7.82814,-2.03906 -10.06828,-5.18231 l -0.06,0 c -2.24014,3.14325 -5.91961,5.18231 -10.07534,5.18231 -3.4043,0 -6.49816,-1.38642 -8.73477,-3.62303 l -0.43392,-0.41628 c -4.58259,-4.99886 -10.30818,-15.96319 -10.30818,-15.96319 -3.31611,-6.759225 -4.72016,-12.297836 -5.06589,-16.707558 l -0.0564,0 c -0.0247,-0.388055 -0.0318,-0.765528 -0.0318,-1.143 0,-11.288889 9.14753,-20.450527 20.44347,-20.450527 5.55272,0 10.59745,2.218972 14.28045,5.820833"
     style="fill:#ffffff;fill-opacity:1;fill-rule:nonzero;stroke:none"
     id="path3604"
     inkscape:connector-curvature="0" />
  <path
     d="m 68.934521,37.154699 30.039028,0 0,11.133666 -30.039028,0 0,-11.133666 z"
     style="fill:#ffffff;fill-opacity:1;fill-rule:nonzero;stroke:none"
     id="path3606"
     inkscape:connector-curvature="0" />
  <path
     d="m 40.484758,82.230525 c 0,-2.088444 0.627944,-4.025194 1.7145,-5.630333 L 55.675369,59.596304 c 3.884083,-4.769556 7.951611,-4.229806 7.951611,-4.229806 l 34.730972,0 c 21.526498,2.113139 21.568838,22.620111 21.568838,22.620111 l 0,132.919601 c 0,3.51367 -2.85398,6.36411 -6.36764,6.36411 l -66.639725,0 c -3.520723,0 -6.364111,-2.85044 -6.364111,-6.36411 L 40.484758,82.230525 z m 7.027333,35.524725 c 0,3.65125 5.065889,7.65528 9.133417,3.01272 l 7.422444,-9.38389 c 0.529167,-0.6985 1.178278,-2.02847 1.178278,-3.52778 l 0,-34.639247 c 0,-4.744861 -5.376333,-6.766277 -8.780639,-3.361972 l -7.690555,9.81075 c -1.234723,1.594556 -1.262945,2.204861 -1.262945,3.086806 l 0,35.002613 z"
     style="fill:#ffffff;fill-opacity:1;fill-rule:nonzero;stroke:none"
     id="path3610"
     inkscape:connector-curvature="0" />
  <path
     d="m 181.52531,131.54357 c 61.33394,0 37.58494,31.41133 28.21516,31.43955 0,0 11.53231,2.28247 11.53231,14.22047 l 0,33.26694 c 0,0 0.51153,6.44878 -6.45583,6.11717 l -66.59386,0 c -6.95678,0.33161 -6.44878,-6.11717 -6.44878,-6.11717 l 0,-33.26694 c 0,-11.938 11.52878,-14.22047 11.52878,-14.22047 -9.37331,-0.0282 -33.11525,-31.43955 28.22222,-31.43955"
     style="fill:#ffffff;fill-opacity:1;fill-rule:nonzero;stroke:none"
     id="path3614"
     inkscape:connector-curvature="0" />
</svg>
