<?xml version="1.0" encoding="UTF-8" standalone="no"?>
<svg
   xmlns:dc="http://purl.org/dc/elements/1.1/"
   xmlns:cc="http://creativecommons.org/ns#"
   xmlns:rdf="http://www.w3.org/1999/02/22-rdf-syntax-ns#"
   xmlns:svg="http://www.w3.org/2000/svg"
   xmlns="http://www.w3.org/2000/svg"
   xmlns:sodipodi="http://sodipodi.sourceforge.net/DTD/sodipodi-0.dtd"
   xmlns:inkscape="http://www.inkscape.org/namespaces/inkscape"
   width="90.597931"
   height="90.597931"
   viewBox="0 0 255.68748 255.68749"
   version="1.1"
   id="svg2"
   inkscape:version="0.48.2 r9819"
   sodipodi:docname="MUTCD RS-137.svg">
  <metadata
     id="metadata62">
    <rdf:RDF>
      <cc:Work
         rdf:about="">
        <dc:format>image/svg+xml</dc:format>
        <dc:type
           rdf:resource="http://purl.org/dc/dcmitype/StillImage" />
        <dc:title></dc:title>
      </cc:Work>
    </rdf:RDF>
  </metadata>
  <defs
     id="defs60">
    <clipPath
       clipPathUnits="userSpaceOnUse"
       id="clipPath3564">
      <path
         inkscape:connector-curvature="0"
         d="m 63,43 512.622,0 0,313.129 L 63,356.129 63,43 z"
         id="path3566" />
    </clipPath>
  </defs>
  <sodipodi:namedview
     pagecolor="#ffffff"
     bordercolor="#666666"
     borderopacity="1"
     objecttolerance="10"
     gridtolerance="10"
     guidetolerance="10"
     inkscape:pageopacity="0"
     inkscape:pageshadow="2"
     inkscape:window-width="1280"
     inkscape:window-height="1004"
     id="namedview58"
     showgrid="false"
     fit-margin-top="0"
     fit-margin-left="0"
     fit-margin-right="0"
     fit-margin-bottom="0"
     inkscape:zoom="4.8826954"
     inkscape:cx="83.159137"
     inkscape:cy="32.525196"
     inkscape:window-x="-8"
     inkscape:window-y="-8"
     inkscape:window-maximized="1"
     inkscape:current-layer="svg2"
     showguides="true"
     inkscape:guide-bbox="true" />
  <polygon
     points="315,545 235,375 315,205 395,375 "
     id="polygon10"
     style="fill:none;stroke:#ffffff;stroke-width:40"
     transform="translate(17744.427,14390.473)" />
  <!-- draw the bicycle -->
  <!-- RIGHT -->
  <!-- LANE -->
  <!-- ONLY -->
  <path
     inkscape:connector-curvature="0"
     d="m 22.004643,254.8459 211.663127,0 c 5.57392,0 11.02432,-2.2577 14.97189,-6.2088 3.94053,-3.937 6.1948,-9.3839 6.1948,-14.9578 l 0,-211.6632 c 0,-5.5738 -2.25426,-11.0207 -6.1948,-14.9718 -3.94757,-3.937 -9.39797,-6.1948 -14.97189,-6.1948 l -211.663127,0 c -5.57036,0 -11.02077,2.2578 -14.9577696,6.1948 -3.94759,3.9511 -6.20888999,9.398 -6.20888999,14.9718 l 0,211.6632 c 0,7.2566 3.85232999,14.1111 9.96243959,18.0058 3.48545,2.2154 7.16845,2.7375 11.20422,3.1608"
     style="fill:#ffffff;fill-opacity:1;fill-rule:nonzero;stroke:#000000;stroke-width:1.69333339;stroke-miterlimit:4;stroke-opacity:1;stroke-dasharray:none"
     id="path3026" />
  <path
     inkscape:connector-curvature="0"
     d="m 22.004643,249.5543 c -3.15383,0 -5.80672,-0.7091 -8.36083,-2.3284 -4.6249196,-2.9421 -7.5141696,-8.1385 -7.5141696,-13.5466 l 0,-211.6632 c 0,-4.1733 1.69334,-8.2691 4.6566696,-11.2324 2.94217,-2.9422 7.0485,-4.6426 11.21833,-4.6426 l 211.663127,0 c 4.18397,0 8.29028,1.6898 11.23245,4.6426 2.95277,2.9422 4.64255,7.0485 4.64255,11.2324 l 0,211.6632 c 0,4.1698 -1.70035,8.2761 -4.64255,11.2183 -2.96333,2.9633 -7.05555,4.6567 -11.23245,4.6567 l -211.663127,0 z"
     style="fill:#713907;fill-opacity:1;fill-rule:evenodd;stroke:none"
     id="path3050" />
  <path
     d="m 156.56629,54.618623 c 0,-8.734777 -7.07672,-15.804444 -15.81855,-15.804444 -8.73125,0 -15.79386,7.069667 -15.79386,15.804444 0,8.724195 7.06261,15.807972 15.79386,15.807972 8.74183,0 15.81855,-7.083777 15.81855,-15.807972"
     style="fill:#ffffff;fill-opacity:1;fill-rule:nonzero;stroke:none"
     id="path3402"
     inkscape:connector-curvature="0" />
  <path
     d="m 165.51627,160.45866 0,-25.2095 c 0,-2.78342 -2.26484,-5.04472 -5.04825,-5.04472 -2.78342,0 -5.03061,2.2613 -5.03061,5.04472 l 0,17.09914 -21.29014,0 2.90689,-2.921 c 2.21192,-2.21897 2.21192,-5.81378 0,-8.0257 l -14.20283,-14.20283 c -2.21545,-2.21544 -5.79967,-2.21544 -8.01864,0 -1.10067,1.11125 -1.66864,2.57881 -1.66864,4.02519 0,1.44639 0.56797,2.89984 1.66864,4.0252 0,0 6.04308,6.02897 10.17058,10.15647 -3.9758,3.98639 -9.12989,9.22514 -9.12989,9.22514 -0.007,0 -0.0141,0.0141 -0.0141,0.0141 -1.54869,1.49578 -2.52941,3.59481 -2.52941,5.9055 0,4.5332 3.67241,8.19856 8.19502,8.19856 l 35.80694,0 c 4.52614,0 8.19856,-3.66536 8.19856,-8.19856 0,-0.0353 -0.0141,-0.0635 -0.0141,-0.0917"
     style="fill:#ffffff;fill-opacity:1;fill-rule:nonzero;stroke:none"
     id="path3406"
     inkscape:connector-curvature="0" />
  <path
     d="m 193.12466,156.12655 c 0,-6.77334 -5.51039,-12.28725 -12.30489,-12.28725 -6.78745,0 -12.29078,5.51391 -12.29078,12.28725 0,6.79803 5.50333,12.319 12.29078,12.319 6.7945,0 12.30489,-5.52097 12.30489,-12.319"
     style="fill:#ffffff;fill-opacity:1;fill-rule:nonzero;stroke:none"
     id="path3410"
     inkscape:connector-curvature="0" />
  <path
     d="m 85.171133,155.8161 21.360697,0 -11.507614,-34.63219 21.050254,-21.05378 0,8.8265 c 0,2.02495 0.79727,3.94758 2.2225,5.37281 l 19.81905,19.80847 c 2.95628,2.95628 7.74347,2.95628 10.7068,0 1.47461,-1.48167 2.21192,-3.41842 2.21192,-5.35164 0,-1.93675 -0.73731,-3.8735 -2.21192,-5.35517 0,0 -14.11111,-14.10405 -17.61066,-17.5895 l 0,-25.689274 c 0,-0.426862 -0.0564,-0.839612 -0.11289,-1.259417 0.007,-3.884083 -1.4605,-7.785805 -4.43442,-10.76325 -5.91961,-5.909028 -15.49752,-5.909028 -21.41008,0 L 65.676633,107.72896 c -0.356305,0.34573 -0.617361,0.75142 -0.934861,1.13595 -1.583972,1.56986 -2.723444,3.58422 -3.224389,5.842 l -0.03528,0 -12.911664,41.10919 12.622389,0"
     style="fill:#ffffff;fill-opacity:1;fill-rule:nonzero;stroke:none"
     id="path3414"
     inkscape:connector-curvature="0" />
  <path
     d="m 114.23297,188.25261 83.58363,0 0,-12.55536 -83.58363,0 0,12.55536 z"
     style="fill:#ffffff;fill-opacity:1;fill-rule:nonzero;stroke:none"
     id="path3416"
     inkscape:connector-curvature="0" />
  <path
     d="m 67.112439,155.40335 0,58.60697 c 0,5.207 4.22275,9.40506 9.412111,9.40506 5.192888,0 9.412111,-4.19806 9.412111,-9.40506 l 0,-58.60697 -18.824222,0 z"
     style="fill:#ffffff;fill-opacity:1;fill-rule:nonzero;stroke:none"
     id="path3420"
     inkscape:connector-curvature="0" />
</svg>
