<?xml version="1.0" encoding="UTF-8" standalone="no"?>
<svg
   xmlns:dc="http://purl.org/dc/elements/1.1/"
   xmlns:cc="http://creativecommons.org/ns#"
   xmlns:rdf="http://www.w3.org/1999/02/22-rdf-syntax-ns#"
   xmlns:svg="http://www.w3.org/2000/svg"
   xmlns="http://www.w3.org/2000/svg"
   xmlns:sodipodi="http://sodipodi.sourceforge.net/DTD/sodipodi-0.dtd"
   xmlns:inkscape="http://www.inkscape.org/namespaces/inkscape"
   width="90.597931"
   height="90.597931"
   viewBox="0 0 255.68748 255.68749"
   version="1.1"
   id="svg2"
   inkscape:version="0.48.2 r9819"
   sodipodi:docname="MUTCD RS-102.svg">
  <metadata
     id="metadata62">
    <rdf:RDF>
      <cc:Work
         rdf:about="">
        <dc:format>image/svg+xml</dc:format>
        <dc:type
           rdf:resource="http://purl.org/dc/dcmitype/StillImage" />
        <dc:title></dc:title>
      </cc:Work>
    </rdf:RDF>
  </metadata>
  <defs
     id="defs60">
    <clipPath
       clipPathUnits="userSpaceOnUse"
       id="clipPath3564">
      <path
         inkscape:connector-curvature="0"
         d="m 63,43 512.622,0 0,313.129 L 63,356.129 63,43 z"
         id="path3566" />
    </clipPath>
  </defs>
  <sodipodi:namedview
     pagecolor="#ffffff"
     bordercolor="#666666"
     borderopacity="1"
     objecttolerance="10"
     gridtolerance="10"
     guidetolerance="10"
     inkscape:pageopacity="0"
     inkscape:pageshadow="2"
     inkscape:window-width="1280"
     inkscape:window-height="1004"
     id="namedview58"
     showgrid="false"
     fit-margin-top="0"
     fit-margin-left="0"
     fit-margin-right="0"
     fit-margin-bottom="0"
     inkscape:zoom="4"
     inkscape:cx="48.704041"
     inkscape:cy="45.520564"
     inkscape:window-x="-8"
     inkscape:window-y="-8"
     inkscape:window-maximized="1"
     inkscape:current-layer="svg2"
     showguides="true"
     inkscape:guide-bbox="true" />
  <polygon
     points="235,375 315,205 395,375 315,545 "
     id="polygon10"
     style="fill:none;stroke:#ffffff;stroke-width:40"
     transform="translate(17618.396,14343.442)" />
  <!-- draw the bicycle -->
  <!-- RIGHT -->
  <!-- LANE -->
  <!-- ONLY -->
  <path
     inkscape:connector-curvature="0"
     d="m 22.008538,254.83715 211.663112,0 c 5.57389,0 11.02432,-2.2578 14.97188,-6.2089 3.94054,-3.937 6.19479,-9.3839 6.19479,-14.9578 l 0,-211.6667 c 0,-5.5738 -2.25425,-11.0207 -6.19479,-14.9718 -3.94756,-3.937 -9.39799,-6.1948 -14.97188,-6.1948 l -211.663112,0 c -5.57036,0 -11.02078,2.2578 -14.9577796,6.1948 -3.94758,3.9511 -6.20888999,9.398 -6.20888999,14.9718 l 0,211.6667 c 0,7.2531 3.85232999,14.1111 9.96244959,18.0058 3.48897,2.2154 7.16844,2.734 11.20422,3.1609"
     style="fill:#ffffff;fill-opacity:1;fill-rule:nonzero;stroke:#000000;stroke-width:1.69333331;stroke-miterlimit:4;stroke-opacity:1;stroke-dasharray:none"
     id="path3060" />
  <path
     inkscape:connector-curvature="0"
     d="m 22.008538,249.54545 c -3.15384,0 -5.80672,-0.7126 -8.36084,-2.3319 -4.6249096,-2.9421 -7.5141596,-8.135 -7.5141596,-13.5431 l 0,-211.6667 c 0,-4.1698 1.69333,-8.2655 4.6566596,-11.2289 2.94217,-2.9421 7.0485,-4.6461 11.21834,-4.6461 l 211.663112,0 c 4.18394,0 8.29028,1.6934 11.23244,4.6461 2.95628,2.9422 4.64256,7.0485 4.64256,11.2289 l 0,211.6667 c 0,4.1663 -1.70038,8.2726 -4.64256,11.2148 -2.96333,2.9669 -7.05554,4.6602 -11.23244,4.6602 l -211.663112,0 z"
     style="fill:#713907;fill-opacity:1;fill-rule:evenodd;stroke:none"
     id="path3084" />
  <path
     d="m 187.81889,97.050367 32.66722,0 0,76.990213 -186.66531,0 0,-76.990213 33.439805,0 0.02822,-16.640528 c 2e-6,-6.215944 5.044724,-11.246555 11.257141,-11.246555 l 97.924064,0 c 6.20888,0 11.24655,5.030611 11.24655,11.246555 l 0.10231,16.640528 z m -11.27831,-18.280944 -98.00167,0 0,18.280944 98.00167,0 0,-18.280944 z m -28.0035,29.943777 -42.34745,0 0,28.25044 42.34745,0 0,-28.25044 z m -77.692253,56.39858 c 15.631583,0 28.317472,-12.67883 28.317472,-28.32805 0,-15.63864 -12.685889,-28.31747 -28.317472,-28.31747 -15.649222,0 -28.328055,12.67883 -28.328055,28.31747 0,15.64922 12.678833,28.32805 28.328055,28.32805 m 112.941813,0 c 15.64216,0 28.32805,-12.67883 28.32805,-28.32805 0,-15.63864 -12.68589,-28.31747 -28.32805,-28.31747 -15.63864,0 -28.31748,12.67883 -28.31748,28.31747 0,15.64922 12.67884,28.32805 28.31748,28.32805"
     style="fill:#ffffff;fill-opacity:1;fill-rule:nonzero;stroke:none"
     id="path3814"
     inkscape:connector-curvature="0" />
</svg>
