<?xml version="1.0" encoding="UTF-8" standalone="no"?>
<svg
   xmlns:dc="http://purl.org/dc/elements/1.1/"
   xmlns:cc="http://creativecommons.org/ns#"
   xmlns:rdf="http://www.w3.org/1999/02/22-rdf-syntax-ns#"
   xmlns:svg="http://www.w3.org/2000/svg"
   xmlns="http://www.w3.org/2000/svg"
   xmlns:sodipodi="http://sodipodi.sourceforge.net/DTD/sodipodi-0.dtd"
   xmlns:inkscape="http://www.inkscape.org/namespaces/inkscape"
   width="90.597931"
   height="90.597931"
   viewBox="0 0 255.68748 255.68749"
   version="1.1"
   id="svg2"
   inkscape:version="0.48.2 r9819"
   sodipodi:docname="MUTCD RS-118.svg">
  <metadata
     id="metadata62">
    <rdf:RDF>
      <cc:Work
         rdf:about="">
        <dc:format>image/svg+xml</dc:format>
        <dc:type
           rdf:resource="http://purl.org/dc/dcmitype/StillImage" />
        <dc:title></dc:title>
      </cc:Work>
    </rdf:RDF>
  </metadata>
  <defs
     id="defs60">
    <clipPath
       clipPathUnits="userSpaceOnUse"
       id="clipPath3564">
      <path
         inkscape:connector-curvature="0"
         d="m 63,43 512.622,0 0,313.129 L 63,356.129 63,43 z"
         id="path3566" />
    </clipPath>
  </defs>
  <sodipodi:namedview
     pagecolor="#ffffff"
     bordercolor="#666666"
     borderopacity="1"
     objecttolerance="10"
     gridtolerance="10"
     guidetolerance="10"
     inkscape:pageopacity="0"
     inkscape:pageshadow="2"
     inkscape:window-width="1280"
     inkscape:window-height="1004"
     id="namedview58"
     showgrid="false"
     fit-margin-top="0"
     fit-margin-left="0"
     fit-margin-right="0"
     fit-margin-bottom="0"
     inkscape:zoom="4.8826954"
     inkscape:cx="83.159137"
     inkscape:cy="32.525196"
     inkscape:window-x="-8"
     inkscape:window-y="-8"
     inkscape:window-maximized="1"
     inkscape:current-layer="svg2"
     showguides="true"
     inkscape:guide-bbox="true" />
  <polygon
     points="315,545 235,375 315,205 395,375 "
     id="polygon10"
     style="fill:none;stroke:#ffffff;stroke-width:40"
     transform="translate(17744.427,14390.473)" />
  <!-- draw the bicycle -->
  <!-- RIGHT -->
  <!-- LANE -->
  <!-- ONLY -->
  <path
     inkscape:connector-curvature="0"
     d="m 22.004643,254.8459 211.663127,0 c 5.57392,0 11.02432,-2.2577 14.97189,-6.2088 3.94053,-3.937 6.1948,-9.3839 6.1948,-14.9578 l 0,-211.6632 c 0,-5.5738 -2.25426,-11.0207 -6.1948,-14.9718 -3.94757,-3.937 -9.39797,-6.1948 -14.97189,-6.1948 l -211.663127,0 c -5.57036,0 -11.02077,2.2578 -14.9577696,6.1948 -3.94759,3.9511 -6.20888999,9.398 -6.20888999,14.9718 l 0,211.6632 c 0,7.2566 3.85232999,14.1111 9.96243959,18.0058 3.48545,2.2154 7.16845,2.7375 11.20422,3.1608"
     style="fill:#ffffff;fill-opacity:1;fill-rule:nonzero;stroke:#000000;stroke-width:1.69333339;stroke-miterlimit:4;stroke-opacity:1;stroke-dasharray:none"
     id="path3026" />
  <path
     inkscape:connector-curvature="0"
     d="m 22.004643,249.5543 c -3.15383,0 -5.80672,-0.7091 -8.36083,-2.3284 -4.6249196,-2.9421 -7.5141696,-8.1385 -7.5141696,-13.5466 l 0,-211.6632 c 0,-4.1733 1.69334,-8.2691 4.6566696,-11.2324 2.94217,-2.9422 7.0485,-4.6426 11.21833,-4.6426 l 211.663127,0 c 4.18397,0 8.29028,1.6898 11.23245,4.6426 2.95277,2.9422 4.64255,7.0485 4.64255,11.2324 l 0,211.6632 c 0,4.1698 -1.70035,8.2761 -4.64255,11.2183 -2.96333,2.9633 -7.05555,4.6567 -11.23245,4.6567 l -211.663127,0 z"
     style="fill:#713907;fill-opacity:1;fill-rule:evenodd;stroke:none"
     id="path3050" />
  <path
     d="m 128.21356,47.788494 c 7.59883,0 13.74422,-6.138334 13.74422,-13.737167 0,-7.58825 -6.14539,-13.733639 -13.74422,-13.733639 -7.58825,0 -13.74069,6.145389 -13.74069,13.733639 0,7.598833 6.15244,13.737167 13.74069,13.737167"
     style="fill:#ffffff;fill-opacity:1;fill-rule:nonzero;stroke:none"
     id="path11000"
     inkscape:connector-curvature="0" />
  <path
     d="m 214.4642,205.40961 c -3.78883,-1.75684 -8.06803,-2.79048 -12.51303,-2.79048 -4.45911,0 -8.7383,1.03364 -12.52714,2.79048 -3.70769,1.66863 -7.84225,2.63877 -12.16025,2.63877 -4.32152,0 -8.47372,-0.97014 -12.1673,-2.63877 -3.79236,-1.75684 -8.05745,-2.79048 -12.52714,-2.79048 -4.45911,0 -8.7242,1.03364 -12.52008,2.79048 -3.71475,1.66863 -7.84225,2.63877 -12.16731,2.63877 -4.32153,0 -8.47019,-0.97014 -12.1673,-2.63877 -3.79942,-1.75684 -8.0645,-2.79048 -12.52714,-2.79048 -4.459114,0 -8.724197,1.03364 -12.520086,2.79048 -3.707694,1.66863 -7.849305,2.63877 -12.167305,2.63877 -4.321528,0 -8.456084,-0.97014 -12.167306,-2.63877 -3.799416,-1.75684 -8.0645,-2.79048 -12.520083,-2.79048 -4.466167,0 -8.73125,1.03364 -12.527139,2.79048 -3.700638,1.66863 -7.849305,2.63877 -12.167305,2.63877 l 0,18.2245 c 4.318,0 8.466667,-0.96308 12.167305,-2.62466 3.795889,-1.77095 8.060972,-2.80459 12.527139,-2.80459 4.455583,0 8.720667,1.03364 12.520083,2.80459 3.711222,1.66158 7.845778,2.62466 12.167306,2.62466 4.318,0 8.459611,-0.96308 12.167305,-2.62466 3.795889,-1.77095 8.060972,-2.80459 12.520086,-2.80459 4.46264,0 8.72772,1.03364 12.52714,2.80459 3.69711,1.66158 7.84577,2.62466 12.1673,2.62466 4.32506,0 8.45256,-0.96308 12.16731,-2.62466 3.79588,-1.77095 8.06097,-2.80459 12.52008,-2.80459 4.46969,0 8.73478,1.03364 12.52714,2.80459 3.69358,1.66158 7.84578,2.62466 12.1673,2.62466 4.318,0 8.45256,-0.96308 12.16025,-2.62466 3.78884,-1.77095 8.06803,-2.80459 12.52714,-2.80459 4.445,0 8.7242,1.03364 12.51303,2.80459 3.70064,1.66158 7.85283,2.62466 12.17436,2.62466 l 0,-18.2245 c -4.32153,0 -8.47372,-0.97014 -12.17436,-2.63877"
     style="fill:#ffffff;fill-opacity:1;fill-rule:nonzero;stroke:none"
     id="path11004"
     inkscape:connector-curvature="0" />
  <path
     d="m 214.77464,19.767355 c -0.98777,-0.405694 -2.10961,-0.179917 -2.86102,0.5715 l -50.11914,50.119138 c -0.77964,-0.3175 -1.63336,-0.511528 -2.52942,-0.511528 l -18.99355,0 c -3.28789,-3.284361 -20.46464,-20.475222 -20.46464,-20.475222 -0.88195,-0.889 -1.98614,-1.372305 -3.11503,-1.661583 -3.94053,-3.450166 -9.88836,-3.39725 -13.64192,0.359833 L 73.317813,77.838104 c -1.128889,1.121833 -1.827389,2.688167 -1.827389,4.402667 l 0,21.794609 -41.740665,0 0,6.91092 41.740665,0 -0.0037,48.68333 c 0,6.12775 4.967111,11.10192 11.084278,11.10192 6.131278,0 11.168944,-4.97417 11.168944,-11.10192 l -0.01411,-48.68333 33.644414,0 0,64.51953 -97.620662,0 0,11.77925 104.531582,0 0,-76.29878 12.02266,0 0,-6.91092 -52.577994,0 0,-6.208887 27.693054,-27.693056 11.29242,11.306528 c 1.26647,1.27 2.97744,1.979083 4.76955,1.979083 l 21.78403,0 c 3.72181,0 6.73453,-3.019777 6.73453,-6.738055 0,-0.889 -0.20109,-1.732139 -0.51153,-2.50825 11.89919,-11.899194 39.74394,-39.750999 45.65297,-45.663555 l 0,158.958142 5.24581,0 0,-165.283447 c 0,-1.058334 -0.64206,-2.010834 -1.6122,-2.416528"
     style="fill:#ffffff;fill-opacity:1;fill-rule:nonzero;stroke:none"
     id="path11008"
     inkscape:connector-curvature="0" />
</svg>
