<?xml version="1.0" encoding="UTF-8" standalone="no"?>
<svg
   xmlns:dc="http://purl.org/dc/elements/1.1/"
   xmlns:cc="http://creativecommons.org/ns#"
   xmlns:rdf="http://www.w3.org/1999/02/22-rdf-syntax-ns#"
   xmlns:svg="http://www.w3.org/2000/svg"
   xmlns="http://www.w3.org/2000/svg"
   xmlns:sodipodi="http://sodipodi.sourceforge.net/DTD/sodipodi-0.dtd"
   xmlns:inkscape="http://www.inkscape.org/namespaces/inkscape"
   width="90.597931"
   height="90.597931"
   viewBox="0 0 255.68748 255.68749"
   version="1.1"
   id="svg2"
   inkscape:version="0.48.2 r9819"
   sodipodi:docname="MUTCD RS-106.svg">
  <metadata
     id="metadata62">
    <rdf:RDF>
      <cc:Work
         rdf:about="">
        <dc:format>image/svg+xml</dc:format>
        <dc:type
           rdf:resource="http://purl.org/dc/dcmitype/StillImage" />
        <dc:title></dc:title>
      </cc:Work>
    </rdf:RDF>
  </metadata>
  <defs
     id="defs60">
    <clipPath
       clipPathUnits="userSpaceOnUse"
       id="clipPath3564">
      <path
         inkscape:connector-curvature="0"
         d="m 63,43 512.622,0 0,313.129 L 63,356.129 63,43 z"
         id="path3566" />
    </clipPath>
  </defs>
  <sodipodi:namedview
     pagecolor="#ffffff"
     bordercolor="#666666"
     borderopacity="1"
     objecttolerance="10"
     gridtolerance="10"
     guidetolerance="10"
     inkscape:pageopacity="0"
     inkscape:pageshadow="2"
     inkscape:window-width="1280"
     inkscape:window-height="1004"
     id="namedview58"
     showgrid="false"
     fit-margin-top="0"
     fit-margin-left="0"
     fit-margin-right="0"
     fit-margin-bottom="0"
     inkscape:zoom="4.8826954"
     inkscape:cx="83.159137"
     inkscape:cy="32.525196"
     inkscape:window-x="-8"
     inkscape:window-y="-8"
     inkscape:window-maximized="1"
     inkscape:current-layer="svg2"
     showguides="true"
     inkscape:guide-bbox="true" />
  <polygon
     points="315,545 235,375 315,205 395,375 "
     id="polygon10"
     style="fill:none;stroke:#ffffff;stroke-width:40"
     transform="translate(17744.427,14390.473)" />
  <!-- draw the bicycle -->
  <!-- RIGHT -->
  <!-- LANE -->
  <!-- ONLY -->
  <path
     inkscape:connector-curvature="0"
     d="m 22.004643,254.8459 211.663127,0 c 5.57392,0 11.02432,-2.2577 14.97189,-6.2088 3.94053,-3.937 6.1948,-9.3839 6.1948,-14.9578 l 0,-211.6632 c 0,-5.5738 -2.25426,-11.0207 -6.1948,-14.9718 -3.94757,-3.937 -9.39797,-6.1948 -14.97189,-6.1948 l -211.663127,0 c -5.57036,0 -11.02077,2.2578 -14.9577696,6.1948 -3.94759,3.9511 -6.20888999,9.398 -6.20888999,14.9718 l 0,211.6632 c 0,7.2566 3.85232999,14.1111 9.96243959,18.0058 3.48545,2.2154 7.16845,2.7375 11.20422,3.1608"
     style="fill:#ffffff;fill-opacity:1;fill-rule:nonzero;stroke:#000000;stroke-width:1.69333339;stroke-miterlimit:4;stroke-opacity:1;stroke-dasharray:none"
     id="path3026" />
  <path
     inkscape:connector-curvature="0"
     d="m 22.004643,249.5543 c -3.15383,0 -5.80672,-0.7091 -8.36083,-2.3284 -4.6249196,-2.9421 -7.5141696,-8.1385 -7.5141696,-13.5466 l 0,-211.6632 c 0,-4.1733 1.69334,-8.2691 4.6566696,-11.2324 2.94217,-2.9422 7.0485,-4.6426 11.21833,-4.6426 l 211.663127,0 c 4.18397,0 8.29028,1.6898 11.23245,4.6426 2.95277,2.9422 4.64255,7.0485 4.64255,11.2324 l 0,211.6632 c 0,4.1698 -1.70035,8.2761 -4.64255,11.2183 -2.96333,2.9633 -7.05555,4.6567 -11.23245,4.6567 l -211.663127,0 z"
     style="fill:#713907;fill-opacity:1;fill-rule:evenodd;stroke:none"
     id="path3050" />
  <path
     d="m 227.11972,227.34885 c -4.30742,0 -8.44197,-0.97366 -12.13556,-2.62114 -3.78883,-1.77094 -8.06097,-2.80458 -12.52713,-2.80458 -4.43795,0 -8.70656,1.03364 -12.49892,2.80458 -3.69358,1.64748 -7.83872,2.62114 -12.1532,2.62114 -4.30741,0 -8.44902,-0.97366 -12.13908,-2.62114 -3.7853,-1.77094 -8.05744,-2.80458 -12.52008,-2.80458 -4.445,0 -8.71008,1.03364 -12.49892,2.80458 -3.69358,1.64748 -7.84225,2.62114 -12.15672,2.62114 -4.31094,0 -8.4455,-0.97366 -12.13202,-2.62114 -3.79589,-1.77094 -8.07509,-2.80458 -12.52714,-2.80458 -4.445004,0 -8.70656,1.03364 -12.505976,2.80458 -3.693583,1.64748 -7.831667,2.62114 -12.153194,2.62114 -4.300361,0 -8.441973,-0.97366 -12.132028,-2.62114 -3.799417,-1.77094 -8.071555,-2.80458 -12.527139,-2.80458 -4.437944,0 -8.710083,1.03364 -12.498916,2.80458 -3.693583,1.64748 -7.84225,2.62114 -12.16025,2.62114 l 0,-18.20686 c 4.318,0 8.466667,-0.97014 12.16025,-2.63172 3.788833,-1.75683 8.060972,-2.78342 12.498916,-2.78342 4.455584,0 8.727722,1.02659 12.527139,2.78342 3.690055,1.66158 7.831667,2.63172 12.132028,2.63172 4.321527,0 8.459611,-0.97014 12.153194,-2.63172 3.799416,-1.75683 8.060972,-2.78342 12.505976,-2.78342 4.45205,0 8.73125,1.02659 12.52714,2.78342 3.68652,1.66158 7.82108,2.63172 12.13202,2.63172 4.31447,0 8.46314,-0.97014 12.15672,-2.63172 3.78884,-1.75683 8.05392,-2.78342 12.49892,-2.78342 4.46264,0 8.73478,1.02659 12.52008,2.78342 3.69006,1.66158 7.83167,2.63172 12.13908,2.63172 4.31448,0 8.45962,-0.97014 12.1532,-2.63172 3.79236,-1.75683 8.06097,-2.78342 12.49892,-2.78342 4.46616,0 8.7383,1.02659 12.52713,2.78342 3.69359,1.66158 7.82814,2.63172 12.13556,2.63172 l 0,18.20686 z"
     style="fill:#ffffff;fill-opacity:1;fill-rule:nonzero;stroke:none"
     id="path10780"
     inkscape:connector-curvature="0" />
  <path
     d="m 147.48014,197.25691 c 1.84855,-0.36336 3.72886,-0.59972 5.66561,-0.59972 4.46264,0 8.73478,1.02658 12.52008,2.78341 3.69006,1.66159 7.83167,2.63173 12.13908,2.63173 4.31448,0 8.45962,-0.97014 12.1532,-2.63173 2.62467,-1.21002 5.40455,-2.10608 8.39258,-2.52589 -1.63336,-48.86677 -52.57094,-92.45247 -55.01216,-94.70672 -2.47298,-2.296581 -4.78014,-7.249581 -3.175,-13.07747 l 12.19552,-40.301332 c 2.12373,-6.194778 1.06187,-14.58736 -1.9438,-17.056805 -1.68628,-1.379361 -5.33047,-2.363611 -7.77875,0.440972 l -32.96708,37.38386 c -7.23547,7.641166 -1.19945,15.860888 -1.32292,15.8115 C 97.128168,81.379992 83.994252,84.057576 76.003835,87.359576 L 48.772919,101.14613 c -2.716389,1.15006 -3.866444,4.56142 -2.480028,6.88975 4.526139,7.2002 19.52625,7.24253 50.750611,3.89467 50.457798,-5.41514 50.514248,75.36391 50.436638,85.32636"
     style="fill:#ffffff;fill-opacity:1;fill-rule:nonzero;stroke:none"
     id="path10784"
     inkscape:connector-curvature="0" />
</svg>
