<?xml version="1.0" encoding="UTF-8" standalone="no"?>
<svg
   xmlns:dc="http://purl.org/dc/elements/1.1/"
   xmlns:cc="http://creativecommons.org/ns#"
   xmlns:rdf="http://www.w3.org/1999/02/22-rdf-syntax-ns#"
   xmlns:svg="http://www.w3.org/2000/svg"
   xmlns="http://www.w3.org/2000/svg"
   xmlns:sodipodi="http://sodipodi.sourceforge.net/DTD/sodipodi-0.dtd"
   xmlns:inkscape="http://www.inkscape.org/namespaces/inkscape"
   width="90.597931"
   height="90.597931"
   viewBox="0 0 255.68748 255.68749"
   version="1.1"
   id="svg2"
   inkscape:version="0.48.2 r9819"
   sodipodi:docname="MUTCD RS-113.svg">
  <metadata
     id="metadata62">
    <rdf:RDF>
      <cc:Work
         rdf:about="">
        <dc:format>image/svg+xml</dc:format>
        <dc:type
           rdf:resource="http://purl.org/dc/dcmitype/StillImage" />
        <dc:title></dc:title>
      </cc:Work>
    </rdf:RDF>
  </metadata>
  <defs
     id="defs60">
    <clipPath
       clipPathUnits="userSpaceOnUse"
       id="clipPath3564">
      <path
         inkscape:connector-curvature="0"
         d="m 63,43 512.622,0 0,313.129 L 63,356.129 63,43 z"
         id="path3566" />
    </clipPath>
  </defs>
  <sodipodi:namedview
     pagecolor="#ffffff"
     bordercolor="#666666"
     borderopacity="1"
     objecttolerance="10"
     gridtolerance="10"
     guidetolerance="10"
     inkscape:pageopacity="0"
     inkscape:pageshadow="2"
     inkscape:window-width="1280"
     inkscape:window-height="1004"
     id="namedview58"
     showgrid="false"
     fit-margin-top="0"
     fit-margin-left="0"
     fit-margin-right="0"
     fit-margin-bottom="0"
     inkscape:zoom="4.8826954"
     inkscape:cx="83.159137"
     inkscape:cy="40.717393"
     inkscape:window-x="-8"
     inkscape:window-y="-8"
     inkscape:window-maximized="1"
     inkscape:current-layer="svg2"
     showguides="true"
     inkscape:guide-bbox="true" />
  <polygon
     points="315,545 235,375 315,205 395,375 "
     id="polygon10"
     style="fill:none;stroke:#ffffff;stroke-width:40"
     transform="translate(17744.427,14390.473)" />
  <!-- draw the bicycle -->
  <!-- RIGHT -->
  <!-- LANE -->
  <!-- ONLY -->
  <path
     inkscape:connector-curvature="0"
     d="m 22.004643,254.8459 211.663127,0 c 5.57392,0 11.02432,-2.2577 14.97189,-6.2088 3.94053,-3.937 6.1948,-9.3839 6.1948,-14.9578 l 0,-211.6632 c 0,-5.5738 -2.25426,-11.0207 -6.1948,-14.9718 -3.94757,-3.937 -9.39797,-6.1948 -14.97189,-6.1948 l -211.663127,0 c -5.57036,0 -11.02077,2.2578 -14.9577696,6.1948 -3.94759,3.9511 -6.20888999,9.398 -6.20888999,14.9718 l 0,211.6632 c 0,7.2566 3.85232999,14.1111 9.96243959,18.0058 3.48545,2.2154 7.16845,2.7375 11.20422,3.1608"
     style="fill:#ffffff;fill-opacity:1;fill-rule:nonzero;stroke:#000000;stroke-width:1.69333339;stroke-miterlimit:4;stroke-opacity:1;stroke-dasharray:none"
     id="path3026" />
  <path
     inkscape:connector-curvature="0"
     d="m 22.004643,249.5543 c -3.15383,0 -5.80672,-0.7091 -8.36083,-2.3284 -4.6249196,-2.9421 -7.5141696,-8.1385 -7.5141696,-13.5466 l 0,-211.6632 c 0,-4.1733 1.69334,-8.2691 4.6566696,-11.2324 2.94217,-2.9422 7.0485,-4.6426 11.21833,-4.6426 l 211.663127,0 c 4.18397,0 8.29028,1.6898 11.23245,4.6426 2.95277,2.9422 4.64255,7.0485 4.64255,11.2324 l 0,211.6632 c 0,4.1698 -1.70035,8.2761 -4.64255,11.2183 -2.96333,2.9633 -7.05555,4.6567 -11.23245,4.6567 l -211.663127,0 z"
     style="fill:#713907;fill-opacity:1;fill-rule:evenodd;stroke:none"
     id="path3050" />
  <path
     d="m 81.661347,75.037048 c 7.835194,0 14.199305,-6.360583 14.199305,-14.195777 0,-7.881056 -6.364111,-14.248695 -14.199305,-14.248695 -7.835195,0 -14.199306,6.367639 -14.199306,14.248695 0,7.835194 6.364111,14.195777 14.199306,14.195777"
     style="fill:#ffffff;fill-opacity:1;fill-rule:nonzero;stroke:none"
     id="path8574"
     inkscape:connector-curvature="0" />
  <path
     d="M 59.813467,77.972159 C 60.314411,75.774354 58.99855,73.615354 56.821912,73.079132 L 44.996801,70.186354 c -2.204861,-0.483306 -4.3815,0.832555 -4.8895,3.037416 l -9.93775,41.12683 c -0.543278,2.15195 0.800806,4.35681 2.9845,4.88598 l 11.84275,2.83986 c 2.159,0.54328 4.356806,-0.77964 4.893028,-2.97745 l 9.923638,-41.126831 z"
     style="fill:#ffffff;fill-opacity:1;fill-rule:nonzero;stroke:none"
     id="path8578"
     inkscape:connector-curvature="0" />
  <path
     d="m 33.037634,215.81655 c -0.130527,0.69497 -0.208138,1.37936 -0.208138,2.01083 0,5.53508 4.480277,9.99067 9.990666,9.99067 4.529667,0 8.35025,-2.98803 9.570861,-7.14375 l 17.176749,-70.98947 16.301861,70.59788 c 1.104194,4.35328 5.044722,7.53534 9.694333,7.53534 5.542134,0 9.994194,-4.45559 9.994194,-9.99067 0,-0.73025 -0.10583,-1.46756 -0.25047,-2.14842 l -22.411974,-93.84594 1.87325,-8.21972 1.446389,6.50522 c 1.372306,4.2157 5.235222,4.64961 5.235222,4.64961 l 23.131643,5.87728 c 0.44802,0.0988 0.91016,0.14464 1.37936,0.14464 3.76061,0 6.82625,-3.08681 6.82625,-6.85447 0,-3.175 -2.23661,-5.92667 -5.24228,-6.60048 L 97.528938,112.28333 92.018549,89.973659 C 89.39741,77.531187 77.526438,77.82752 77.526438,77.82752 65.930633,77.531187 63.044911,89.67027 63.044911,89.67027 L 33.037634,215.81655 z"
     style="fill:#ffffff;fill-opacity:1;fill-rule:nonzero;stroke:none"
     id="path8582"
     inkscape:connector-curvature="0" />
  <path
     d="m 216.18609,220.61785 c 0,-4.00755 3.23145,-7.239 7.29897,-7.239 3.9617,0 7.239,3.23145 7.239,7.239 0,4.01814 -3.2773,7.24959 -7.239,7.24959 -4.06752,0 -7.29897,-3.23145 -7.29897,-7.24959"
     style="fill:#ffffff;fill-opacity:1;fill-rule:nonzero;stroke:none"
     id="path8586"
     inkscape:connector-curvature="0" />
  <path
     d="m 216.03405,194.28299 c 0,-4.00755 3.23144,-7.239 7.2778,-7.239 3.98286,0 7.24958,3.23145 7.24958,7.239 0,4.01814 -3.26672,7.29897 -7.24958,7.29897 -4.04636,0 -7.2778,-3.28083 -7.2778,-7.29897"
     style="fill:#ffffff;fill-opacity:1;fill-rule:nonzero;stroke:none"
     id="path8590"
     inkscape:connector-curvature="0" />
  <path
     d="m 216.03405,168.00458 c 0,-3.96875 3.23144,-7.25312 7.2778,-7.25312 3.98286,0 7.24958,3.28437 7.24958,7.25312 0,4.05341 -3.26672,7.28486 -7.24958,7.28486 -4.04636,0 -7.2778,-3.23145 -7.2778,-7.28486"
     style="fill:#ffffff;fill-opacity:1;fill-rule:nonzero;stroke:none"
     id="path8594"
     inkscape:connector-curvature="0" />
  <path
     d="m 216.03405,141.71205 c 0,-4.01814 3.23144,-7.29545 7.2778,-7.29545 3.98286,0 7.24958,3.27731 7.24958,7.29545 0,3.96169 -3.26672,7.24253 -7.24958,7.24253 -4.04636,0 -7.2778,-3.28084 -7.2778,-7.24253"
     style="fill:#ffffff;fill-opacity:1;fill-rule:nonzero;stroke:none"
     id="path8598"
     inkscape:connector-curvature="0" />
  <path
     d="m 216.03405,115.37719 c 0,-4.02167 3.23144,-7.24606 7.2778,-7.24606 3.98286,0 7.24958,3.22439 7.24958,7.24606 0,4.01108 -3.26672,7.29191 -7.24958,7.29191 -4.04636,0 -7.2778,-3.28083 -7.2778,-7.29191"
     style="fill:#ffffff;fill-opacity:1;fill-rule:nonzero;stroke:none"
     id="path8602"
     inkscape:connector-curvature="0" />
  <path
     d="m 216.03405,89.084659 c 0,-4.018139 3.23144,-7.295444 7.2778,-7.295444 3.98286,0 7.24958,3.277305 7.24958,7.295444 0,4.064 -3.26672,7.242528 -7.24958,7.242528 -4.04636,0 -7.2778,-3.178528 -7.2778,-7.242528"
     style="fill:#ffffff;fill-opacity:1;fill-rule:nonzero;stroke:none"
     id="path8606"
     inkscape:connector-curvature="0" />
  <path
     d="m 216.03405,62.792132 c 0,-4.004028 3.23144,-7.288389 7.2778,-7.288389 3.98286,0 7.24958,3.284361 7.24958,7.288389 0,3.96875 -3.26672,7.256638 -7.24958,7.256638 -4.04636,0 -7.2778,-3.287888 -7.2778,-7.256638"
     style="fill:#ffffff;fill-opacity:1;fill-rule:nonzero;stroke:none"
     id="path8610"
     inkscape:connector-curvature="0" />
  <path
     d="m 216.13988,36.464327 c 0,-4.064 3.23144,-7.249584 7.26722,-7.249584 3.98992,0 7.24958,3.185584 7.24958,7.249584 0,4.018138 -3.25966,7.249583 -7.24958,7.249583 -4.03578,0 -7.26722,-3.231445 -7.26722,-7.249583"
     style="fill:#ffffff;fill-opacity:1;fill-rule:nonzero;stroke:none"
     id="path8614"
     inkscape:connector-curvature="0" />
  <path
     d="m 170.81534,28.91841 c 4.064,0 7.24253,3.231444 7.24253,7.298972 0,3.961694 -3.17853,7.246056 -7.24253,7.246056 -4.01814,0 -7.24958,-3.284362 -7.24958,-7.246056 0,-4.067528 3.23144,-7.298972 7.24958,-7.298972"
     style="fill:#ffffff;fill-opacity:1;fill-rule:nonzero;stroke:none"
     id="path8618"
     inkscape:connector-curvature="0" />
  <path
     d="m 196.99816,28.91841 c 4.01814,0 7.24958,3.231444 7.24958,7.298972 0,3.961694 -3.23144,7.246056 -7.24958,7.246056 -4.01109,0 -7.24253,-3.284362 -7.24253,-7.246056 0,-4.067528 3.23144,-7.298972 7.24253,-7.298972"
     style="fill:#ffffff;fill-opacity:1;fill-rule:nonzero;stroke:none"
     id="path8622"
     inkscape:connector-curvature="0" />
  <path
     d="m 170.70563,213.37885 c 3.96875,0 7.25311,3.23145 7.25311,7.239 0,4.01814 -3.28436,7.24959 -7.25311,7.24959 -4.05342,0 -7.28486,-3.23145 -7.28486,-7.24959 0,-4.00755 3.23144,-7.239 7.28486,-7.239"
     style="fill:#ffffff;fill-opacity:1;fill-rule:nonzero;stroke:none"
     id="path8626"
     inkscape:connector-curvature="0" />
  <path
     d="m 196.99816,213.37885 c 4.01814,0 7.24958,3.23145 7.24958,7.239 0,4.01814 -3.23144,7.24959 -7.24958,7.24959 -4.01109,0 -7.24253,-3.23145 -7.24253,-7.24959 0,-4.00755 3.23144,-7.239 7.24253,-7.239"
     style="fill:#ffffff;fill-opacity:1;fill-rule:nonzero;stroke:none"
     id="path8630"
     inkscape:connector-curvature="0" />
  <path
     d="m 163.12444,20.458799 -16.129,16.054916 16.129,16.157222 -13.6772,0 -16.10783,-16.157222 16.10783,-16.054916 13.6772,0 z"
     style="fill:#ffffff;fill-opacity:1;fill-rule:nonzero;stroke:none"
     id="path8634"
     inkscape:connector-curvature="0" />
  <path
     d="m 149.69101,227.27477 0,-83.95053 c 4.13456,-4.16278 32.13453,-32.16275 32.13453,-32.16275 1.5628,-1.5628 2.37772,-3.67241 2.37772,-5.72558 0,-2.10961 -0.81492,-4.16278 -2.37772,-5.782029 -3.18911,-3.175 -8.35025,-3.175 -11.55347,0 l -36.88998,36.911139 0,90.70975 16.30892,0 z"
     style="fill:#ffffff;fill-opacity:1;fill-rule:nonzero;stroke:none"
     id="path8638"
     inkscape:connector-curvature="0" />
</svg>
