<?xml version="1.0" encoding="UTF-8" standalone="no"?>
<svg
   xmlns:dc="http://purl.org/dc/elements/1.1/"
   xmlns:cc="http://creativecommons.org/ns#"
   xmlns:rdf="http://www.w3.org/1999/02/22-rdf-syntax-ns#"
   xmlns:svg="http://www.w3.org/2000/svg"
   xmlns="http://www.w3.org/2000/svg"
   xmlns:sodipodi="http://sodipodi.sourceforge.net/DTD/sodipodi-0.dtd"
   xmlns:inkscape="http://www.inkscape.org/namespaces/inkscape"
   width="90.597931"
   height="90.597931"
   viewBox="0 0 255.68748 255.68749"
   version="1.1"
   id="svg2"
   inkscape:version="0.48.2 r9819"
   sodipodi:docname="MUTCD RS-141.svg">
  <metadata
     id="metadata62">
    <rdf:RDF>
      <cc:Work
         rdf:about="">
        <dc:format>image/svg+xml</dc:format>
        <dc:type
           rdf:resource="http://purl.org/dc/dcmitype/StillImage" />
        <dc:title></dc:title>
      </cc:Work>
    </rdf:RDF>
  </metadata>
  <defs
     id="defs60">
    <clipPath
       clipPathUnits="userSpaceOnUse"
       id="clipPath3564">
      <path
         inkscape:connector-curvature="0"
         d="m 63,43 512.622,0 0,313.129 L 63,356.129 63,43 z"
         id="path3566" />
    </clipPath>
  </defs>
  <sodipodi:namedview
     pagecolor="#ffffff"
     bordercolor="#666666"
     borderopacity="1"
     objecttolerance="10"
     gridtolerance="10"
     guidetolerance="10"
     inkscape:pageopacity="0"
     inkscape:pageshadow="2"
     inkscape:window-width="1280"
     inkscape:window-height="1004"
     id="namedview58"
     showgrid="false"
     fit-margin-top="0"
     fit-margin-left="0"
     fit-margin-right="0"
     fit-margin-bottom="0"
     inkscape:zoom="4"
     inkscape:cx="48.704041"
     inkscape:cy="45.520564"
     inkscape:window-x="-8"
     inkscape:window-y="-8"
     inkscape:window-maximized="1"
     inkscape:current-layer="svg2"
     showguides="true"
     inkscape:guide-bbox="true" />
  <polygon
     points="235,375 315,205 395,375 315,545 "
     id="polygon10"
     style="fill:none;stroke:#ffffff;stroke-width:40"
     transform="translate(17618.396,14343.442)" />
  <!-- draw the bicycle -->
  <!-- RIGHT -->
  <!-- LANE -->
  <!-- ONLY -->
  <path
     inkscape:connector-curvature="0"
     d="m 22.008538,254.83715 211.663112,0 c 5.57389,0 11.02432,-2.2578 14.97188,-6.2089 3.94054,-3.937 6.19479,-9.3839 6.19479,-14.9578 l 0,-211.6667 c 0,-5.5738 -2.25425,-11.0207 -6.19479,-14.9718 -3.94756,-3.937 -9.39799,-6.1948 -14.97188,-6.1948 l -211.663112,0 c -5.57036,0 -11.02078,2.2578 -14.9577796,6.1948 -3.94758,3.9511 -6.20888999,9.398 -6.20888999,14.9718 l 0,211.6667 c 0,7.2531 3.85232999,14.1111 9.96244959,18.0058 3.48897,2.2154 7.16844,2.734 11.20422,3.1609"
     style="fill:#ffffff;fill-opacity:1;fill-rule:nonzero;stroke:#000000;stroke-width:1.69333331;stroke-miterlimit:4;stroke-opacity:1;stroke-dasharray:none"
     id="path3060" />
  <path
     inkscape:connector-curvature="0"
     d="m 22.008538,249.54545 c -3.15384,0 -5.80672,-0.7126 -8.36084,-2.3319 -4.6249096,-2.9421 -7.5141596,-8.135 -7.5141596,-13.5431 l 0,-211.6667 c 0,-4.1698 1.69333,-8.2655 4.6566596,-11.2289 2.94217,-2.9421 7.0485,-4.6461 11.21834,-4.6461 l 211.663112,0 c 4.18394,0 8.29028,1.6934 11.23244,4.6461 2.95628,2.9422 4.64256,7.0485 4.64256,11.2289 l 0,211.6667 c 0,4.1663 -1.70038,8.2726 -4.64256,11.2148 -2.96333,2.9669 -7.05554,4.6602 -11.23244,4.6602 l -211.663112,0 z"
     style="fill:#713907;fill-opacity:1;fill-rule:evenodd;stroke:none"
     id="path3084" />
  <path
     style="fill:#ffffff;fill-opacity:1;fill-rule:nonzero;stroke:none"
     d="m 163.30046,41.198605 c -6.02319,0.229391 -10.43009,7.269427 -5.64445,12.170833 2.49061,2.554111 3.63714,6.551083 7.14375,7.9375 5.9302,2.367139 2.52236,7.231944 -0.70555,9.34861 -3.96522,2.645833 -8.92881,1.181806 -12.43542,-1.587499 -2.09197,-1.598083 -3.80294,-3.806472 -6.2618,-4.850694 -2.67759,-1.11125 -4.826,-4.215695 -8.0257,-3.175 -0.82903,0.462139 -1.36525,1.231194 -1.67569,2.028472 -10.57628,-5.503333 -22.54603,-8.643055 -35.27778,-8.643055 -42.439165,0 -76.905553,34.441692 -76.905553,76.905558 0,42.44269 34.466388,76.90555 76.905553,76.90555 21.98511,0 41.89236,-9.28511 55.91528,-24.07708 3.07622,1.32292 7.8493,1.84503 8.46666,3.96875 -0.68086,2.18369 -3.81,4.85775 1.32292,5.99722 1.41817,0.2787 3.42547,3.35139 3.79236,4.05695 2.43064,2.9845 2.88572,2.11313 3.43958,4.85069 0.52564,0.9525 -1.94733,3.46075 -0.44097,4.32153 0.64911,1.07597 3.00214,2.90689 3.61597,3.70416 2.55059,3.1997 4.64256,4.27567 6.70278,4.05695 1.84856,0.15522 4.78367,-1.17475 6.96736,-4.58611 0.64559,-0.70909 3.29847,-2.78342 3.79236,-3.61597 0.61736,-1.04423 -1.79211,-2.43417 -1.14652,-3.2632 0.67733,-2.77283 2.44827,-2.91747 3.52777,-5.46805 0.36689,-0.70556 2.67406,-2.19428 4.05695,-2.46945 5.16466,-1.10772 2.2613,-5.24933 1.05833,-7.58472 0.64911,-2.12372 5.39045,-2.64583 8.46667,-3.96875 2.21191,-0.89253 0.48683,-2.24014 0.0881,-3.43958 -0.27517,-0.80081 0.26444,-1.63689 0.26444,-2.46945 -0.0601,-1.53458 0.28928,-3.0233 1.76389,-4.40972 1.41464,-1.31939 2.21192,-2.91394 0.70556,-4.23333 -1.19945,-1.016 -3.96522,-2.32834 -2.02847,-3.52778 1.47461,-0.9525 2.96686,-1.92264 4.40972,-2.99861 1.60161,-1.10772 3.15736,-3.26672 0.88194,-5.90903 -1.41111,-1.87678 0.63853,-3.86644 2.82222,-5.55625 0.86078,-0.64558 0.93839,-1.62631 2.29306,-2.02847 1.68981,-0.9525 2.74108,-2.93864 -0.0881,-9.6132 0.55386,-1.19592 1.06539,-2.35655 1.5875,-3.52778 0.0316,-0.92075 1.48872,-1.4993 2.38125,-2.20486 1.25941,-0.92428 3.27025,-2.40594 1.76389,-3.175 -1.0795,-0.86078 -2.12725,-1.7533 -3.175,-2.64583 -1.72156,-1.25589 0.39863,-3.05506 2.02847,-4.40972 2.37066,-1.905 4.40972,-4.98475 1.05833,-5.99723 -3.32317,-1.04775 -1.70744,-4.42383 0.35278,-6.79097 1.7533,-1.99672 3.60186,-4.7625 1.23472,-6.08541 -2.58586,-1.47109 -0.99836,-4.90714 1.5875,-7.05556 4.12045,-3.510139 1.4852,-3.563056 0.52917,-4.7625 -0.89253,-1.107722 -1.48167,-2.430639 -1.94028,-3.880556 -0.33867,-1.104194 -0.35278,-2.434166 -1.05833,-3.263194 -1.44286,-1.693333 0.28575,-4.321528 1.76389,-6.35 1.32291,-1.721555 1.17122,-3.750028 0.61736,-5.291667 -0.49389,-1.354666 -1.09361,-2.984499 -0.26445,-4.674305 1.62984,-3.199693 2.38125,-7.327193 -0.35277,-8.55486 -3.13973,-0.649111 -5.26698,1.834445 -7.76111,2.910417 -2.46239,1.044222 -4.17337,3.252611 -6.26181,4.850694 -3.53836,2.769305 -8.46667,4.233332 -12.43542,1.587499 -3.19969,-2.120193 -6.63927,-6.981471 -0.70555,-9.34861 3.50661,-1.386417 4.65314,-5.471583 7.14375,-8.025694 5.44336,-5.566833 -1.21003,-12.79525 -7.76111,-11.994444 l -14.99306,1.852083 -5.99722,0 -15.875,-1.940278 c -0.4132,-0.04784 -0.83318,-0.01524 -1.23472,0 z M 98.477544,63.688188 97.066433,113.07708 c -2.596445,0.48683 -5.055306,1.5628 -7.14375,2.99861 L 54.115739,82.120826 C 65.753877,71.110631 81.300794,64.199716 98.477544,63.688188 z m 3.968746,0 c 12.54831,0.370417 24.19703,4.15925 34.13125,10.495138 -0.0316,0.09525 -0.0564,0.261055 -0.088,0.352777 -0.58209,1.541639 -0.70556,3.570112 0.61736,5.291667 1.47814,2.028472 3.20675,4.656667 1.76389,6.35 -0.70556,0.829028 -0.68439,2.159 -1.05834,3.263194 -0.17977,0.617361 -0.46213,1.266473 -0.70555,1.852084 l -26.28199,24.782642 c -2.09198,-1.41111 -4.41678,-2.41653 -6.96736,-2.91042 l -1.41112,-49.477082 z m -51.240968,21.25486 33.954861,35.806942 c -1.474611,2.12372 -2.420056,4.52614 -2.910417,7.14375 l -49.388888,1.41111 c 0.518583,-17.15911 7.369528,-32.706025 18.344444,-44.361802 z m 85.636798,13.581944 c 2.33539,2.148418 3.57717,5.235218 1.14653,6.614588 -2.36714,1.32291 -0.55033,4.08869 1.23472,6.08541 2.06023,2.36714 3.67595,5.74322 0.35278,6.79097 -3.35139,1.01248 -1.31233,4.09223 1.05834,5.99723 1.62983,1.35466 3.75355,3.15383 2.02847,4.40972 -0.0601,0.067 -0.11628,0.11289 -0.17639,0.17639 l -23.90069,-0.70556 c -0.49036,-2.58586 -1.43228,-4.96358 -2.91042,-7.05555 l 21.16666,-22.313198 z m -36.4243,26.634718 c 3.41489,0 6.17361,2.76578 6.17361,6.17362 0,3.41488 -2.75872,6.17361 -6.17361,6.17361 -3.41136,0 -6.17361,-2.75873 -6.17361,-6.17361 0,-3.40784 2.76225,-6.17362 6.17361,-6.17362 z m -67.645137,8.11389 49.388889,1.41111 c 0.462139,2.64584 1.524,5.10823 2.998611,7.23195 l -34.13125,35.71875 C 40.078711,165.97963 33.294794,150.46447 32.772683,133.2736 z m 108.302777,0.79375 c 0.0635,0.06 0.11289,0.11289 0.17639,0.17639 0.86077,0.70556 2.32127,1.28411 2.38125,2.20486 0.52211,1.17123 1.03364,2.33186 1.5875,3.52778 -2.40242,6.67456 -2.42711,8.19856 -0.0881,9.6132 1.35114,0.40216 1.43228,1.38289 2.29306,2.02847 2.18369,1.68981 4.23333,3.67947 2.82222,5.55625 -0.34219,0.39864 -2.92805,4.46264 0.88195,5.90903 1.44638,1.07597 2.93158,2.04611 4.40972,2.99861 1.93322,1.19944 -0.82903,2.51178 -2.02847,3.52778 -1.25942,1.10772 -0.89606,2.36008 0.0881,3.52777 -1.2312,1.56634 -2.52589,3.05506 -3.88056,4.49792 l -33.95487,-35.80694 c 1.44639,-2.09198 2.44828,-4.56495 2.91042,-7.14376 l 22.40139,-0.61736 z m -51.240972,12.52362 c 2.151945,1.50636 4.646083,2.53647 7.320139,2.99861 l 1.322917,49.30069 c -16.083139,-0.43039 -31.965194,-6.50875 -44.45,-18.34444 l 35.806944,-33.95486 z m 21.166662,0 35.89514,33.95486 c -12.44953,11.80747 -28.42683,17.85055 -44.45,18.34444 l 1.41111,-49.30069 c 2.64584,-0.49036 5.05178,-1.524 7.14375,-2.99861 z"
     id="path4218"
     inkscape:connector-curvature="0" />
</svg>
