<?xml version="1.0" encoding="UTF-8" standalone="no"?>
<svg
   xmlns:dc="http://purl.org/dc/elements/1.1/"
   xmlns:cc="http://creativecommons.org/ns#"
   xmlns:rdf="http://www.w3.org/1999/02/22-rdf-syntax-ns#"
   xmlns:svg="http://www.w3.org/2000/svg"
   xmlns="http://www.w3.org/2000/svg"
   xmlns:sodipodi="http://sodipodi.sourceforge.net/DTD/sodipodi-0.dtd"
   xmlns:inkscape="http://www.inkscape.org/namespaces/inkscape"
   width="90.597931"
   height="90.597931"
   viewBox="0 0 255.68748 255.68749"
   version="1.1"
   id="svg2"
   inkscape:version="0.48.2 r9819"
   sodipodi:docname="MUTCD RS-123.svg">
  <metadata
     id="metadata62">
    <rdf:RDF>
      <cc:Work
         rdf:about="">
        <dc:format>image/svg+xml</dc:format>
        <dc:type
           rdf:resource="http://purl.org/dc/dcmitype/StillImage" />
        <dc:title></dc:title>
      </cc:Work>
    </rdf:RDF>
  </metadata>
  <defs
     id="defs60">
    <clipPath
       clipPathUnits="userSpaceOnUse"
       id="clipPath3564">
      <path
         inkscape:connector-curvature="0"
         d="m 63,43 512.622,0 0,313.129 L 63,356.129 63,43 z"
         id="path3566" />
    </clipPath>
  </defs>
  <sodipodi:namedview
     pagecolor="#ffffff"
     bordercolor="#666666"
     borderopacity="1"
     objecttolerance="10"
     gridtolerance="10"
     guidetolerance="10"
     inkscape:pageopacity="0"
     inkscape:pageshadow="2"
     inkscape:window-width="1280"
     inkscape:window-height="1004"
     id="namedview58"
     showgrid="false"
     fit-margin-top="0"
     fit-margin-left="0"
     fit-margin-right="0"
     fit-margin-bottom="0"
     inkscape:zoom="4"
     inkscape:cx="48.704041"
     inkscape:cy="45.520564"
     inkscape:window-x="-8"
     inkscape:window-y="-8"
     inkscape:window-maximized="1"
     inkscape:current-layer="svg2"
     showguides="true"
     inkscape:guide-bbox="true" />
  <polygon
     points="235,375 315,205 395,375 315,545 "
     id="polygon10"
     style="fill:none;stroke:#ffffff;stroke-width:40"
     transform="translate(17618.396,14343.442)" />
  <!-- draw the bicycle -->
  <!-- RIGHT -->
  <!-- LANE -->
  <!-- ONLY -->
  <path
     inkscape:connector-curvature="0"
     d="m 22.008538,254.83715 211.663112,0 c 5.57389,0 11.02432,-2.2578 14.97188,-6.2089 3.94054,-3.937 6.19479,-9.3839 6.19479,-14.9578 l 0,-211.6667 c 0,-5.5738 -2.25425,-11.0207 -6.19479,-14.9718 -3.94756,-3.937 -9.39799,-6.1948 -14.97188,-6.1948 l -211.663112,0 c -5.57036,0 -11.02078,2.2578 -14.9577796,6.1948 -3.94758,3.9511 -6.20888999,9.398 -6.20888999,14.9718 l 0,211.6667 c 0,7.2531 3.85232999,14.1111 9.96244959,18.0058 3.48897,2.2154 7.16844,2.734 11.20422,3.1609"
     style="fill:#ffffff;fill-opacity:1;fill-rule:nonzero;stroke:#000000;stroke-width:1.69333331;stroke-miterlimit:4;stroke-opacity:1;stroke-dasharray:none"
     id="path3060" />
  <path
     inkscape:connector-curvature="0"
     d="m 22.008538,249.54545 c -3.15384,0 -5.80672,-0.7126 -8.36084,-2.3319 -4.6249096,-2.9421 -7.5141596,-8.135 -7.5141596,-13.5431 l 0,-211.6667 c 0,-4.1698 1.69333,-8.2655 4.6566596,-11.2289 2.94217,-2.9421 7.0485,-4.6461 11.21834,-4.6461 l 211.663112,0 c 4.18394,0 8.29028,1.6934 11.23244,4.6461 2.95628,2.9422 4.64256,7.0485 4.64256,11.2289 l 0,211.6667 c 0,4.1663 -1.70038,8.2726 -4.64256,11.2148 -2.96333,2.9669 -7.05554,4.6602 -11.23244,4.6602 l -211.663112,0 z"
     style="fill:#713907;fill-opacity:1;fill-rule:evenodd;stroke:none"
     id="path3084" />
  <path
     style="fill:#ffffff;fill-opacity:1;fill-rule:nonzero;stroke:none"
     d="m 133.0078,86.795131 c -4.67033,-0.0034 -9.29395,0.331612 -13.93472,0.970139 -1.40053,0.22225 -2.70228,1.023056 -2.99861,2.469445 -1.44639,7.612944 -2.27189,14.693195 -2.91042,23.018745 l -82.461805,0.61737 c -3.316112,0.0246 -6.406445,2.38125 -6.526389,5.82083 l -0.617361,21.96042 c -0.04572,1.71802 1.354666,3.02683 2.998611,3.175 l 16.227777,1.4993 c 2.501195,-9.82486 11.348862,-17.02153 21.960417,-17.02153 11.250083,0 20.60575,8.11389 22.401389,18.87361 l 24.518051,0.0882 69.32084,0.26459 c 1.8168,-10.7315 11.1513,-18.96181 22.40138,-18.96181 11.69106,0 21.32895,8.8512 22.57778,20.19653 l 6.17361,0.0882 -0.17639,-29.63333 c -0.19755,-7.76111 -33.24577,-7.28486 -57.41458,-9.34861 L 154.17446,90.322909 c -1.91205,-1.788583 -4.54025,-2.462389 -7.14375,-2.734028 -4.65313,-0.455083 -9.35259,-0.790222 -14.02291,-0.79375 z m -5.99722,4.056945 17.72708,0 c 1.40053,0.09878 2.81869,0.522111 3.70417,1.675694 l 13.31736,16.75694 c 1.17827,1.47462 -0.1905,3.43959 -1.94028,3.43959 l -35.10139,-0.0882 c -1.47461,0 -2.48003,-1.32997 -2.38125,-2.73403 l 1.23472,-15.522226 c 0.22239,-2.6035 1.49931,-3.527778 3.43959,-3.527778 z"
     id="path4120"
     inkscape:connector-curvature="0" />
  <path
     style="fill:#ffffff;fill-opacity:1;fill-rule:nonzero;stroke:none"
     d="m 64.7453,135.39027 c -9.161638,0 -16.580556,7.41892 -16.580556,16.58056 0,9.16516 7.418918,16.58055 16.580556,16.58055 9.165167,0 16.580556,-7.41539 16.580556,-16.58055 0,-9.16164 -7.415389,-16.58056 -16.580556,-16.58056 z m 0,7.40833 c 5.08,0 9.260417,4.0887 9.260417,9.17223 0,5.08705 -4.180417,9.26041 -9.260417,9.26041 -5.087055,0 -9.172222,-4.17336 -9.172222,-9.26041 0,-5.08353 4.085167,-9.17223 9.172222,-9.17223 z"
     id="path4128"
     inkscape:connector-curvature="0" />
  <path
     style="fill:#ffffff;fill-opacity:1;fill-rule:nonzero;stroke:none"
     d="m 203.38696,135.74305 c -9.16163,0 -16.58055,7.41891 -16.58055,16.58055 0,9.16164 7.41892,16.58056 16.58055,16.58056 9.15811,0 16.58056,-7.41892 16.58056,-16.58056 0,-9.16164 -7.42245,-16.58055 -16.58056,-16.58055 z m 0,7.32014 c 5.08,0 9.26042,4.17689 9.26042,9.26041 0,5.08 -4.18042,9.17223 -9.26042,9.17223 -5.08705,0 -9.17222,-4.09223 -9.17222,-9.17223 0,-5.08352 4.08517,-9.26041 9.17222,-9.26041 z"
     id="path4132"
     inkscape:connector-curvature="0" />
</svg>
