<?xml version="1.0" encoding="UTF-8" standalone="no"?>
<svg
   xmlns:dc="http://purl.org/dc/elements/1.1/"
   xmlns:cc="http://creativecommons.org/ns#"
   xmlns:rdf="http://www.w3.org/1999/02/22-rdf-syntax-ns#"
   xmlns:svg="http://www.w3.org/2000/svg"
   xmlns="http://www.w3.org/2000/svg"
   xmlns:sodipodi="http://sodipodi.sourceforge.net/DTD/sodipodi-0.dtd"
   xmlns:inkscape="http://www.inkscape.org/namespaces/inkscape"
   width="90.597931"
   height="90.597931"
   viewBox="0 0 255.68748 255.68749"
   version="1.1"
   id="svg2"
   inkscape:version="0.48.2 r9819"
   sodipodi:docname="MUTCD RS-105.svg">
  <metadata
     id="metadata62">
    <rdf:RDF>
      <cc:Work
         rdf:about="">
        <dc:format>image/svg+xml</dc:format>
        <dc:type
           rdf:resource="http://purl.org/dc/dcmitype/StillImage" />
        <dc:title></dc:title>
      </cc:Work>
    </rdf:RDF>
  </metadata>
  <defs
     id="defs60">
    <clipPath
       clipPathUnits="userSpaceOnUse"
       id="clipPath3564">
      <path
         inkscape:connector-curvature="0"
         d="m 63,43 512.622,0 0,313.129 L 63,356.129 63,43 z"
         id="path3566" />
    </clipPath>
  </defs>
  <sodipodi:namedview
     pagecolor="#ffffff"
     bordercolor="#666666"
     borderopacity="1"
     objecttolerance="10"
     gridtolerance="10"
     guidetolerance="10"
     inkscape:pageopacity="0"
     inkscape:pageshadow="2"
     inkscape:window-width="1280"
     inkscape:window-height="1004"
     id="namedview58"
     showgrid="false"
     fit-margin-top="0"
     fit-margin-left="0"
     fit-margin-right="0"
     fit-margin-bottom="0"
     inkscape:zoom="4.8826954"
     inkscape:cx="83.159137"
     inkscape:cy="32.525196"
     inkscape:window-x="-8"
     inkscape:window-y="-8"
     inkscape:window-maximized="1"
     inkscape:current-layer="svg2"
     showguides="true"
     inkscape:guide-bbox="true" />
  <polygon
     points="315,545 235,375 315,205 395,375 "
     id="polygon10"
     style="fill:none;stroke:#ffffff;stroke-width:40"
     transform="translate(17744.427,14390.473)" />
  <!-- draw the bicycle -->
  <!-- RIGHT -->
  <!-- LANE -->
  <!-- ONLY -->
  <path
     inkscape:connector-curvature="0"
     d="m 22.004643,254.8459 211.663127,0 c 5.57392,0 11.02432,-2.2577 14.97189,-6.2088 3.94053,-3.937 6.1948,-9.3839 6.1948,-14.9578 l 0,-211.6632 c 0,-5.5738 -2.25426,-11.0207 -6.1948,-14.9718 -3.94757,-3.937 -9.39797,-6.1948 -14.97189,-6.1948 l -211.663127,0 c -5.57036,0 -11.02077,2.2578 -14.9577696,6.1948 -3.94759,3.9511 -6.20888999,9.398 -6.20888999,14.9718 l 0,211.6632 c 0,7.2566 3.85232999,14.1111 9.96243959,18.0058 3.48545,2.2154 7.16845,2.7375 11.20422,3.1608"
     style="fill:#ffffff;fill-opacity:1;fill-rule:nonzero;stroke:#000000;stroke-width:1.69333339;stroke-miterlimit:4;stroke-opacity:1;stroke-dasharray:none"
     id="path3026" />
  <path
     inkscape:connector-curvature="0"
     d="m 22.004643,249.5543 c -3.15383,0 -5.80672,-0.7091 -8.36083,-2.3284 -4.6249196,-2.9421 -7.5141696,-8.1385 -7.5141696,-13.5466 l 0,-211.6632 c 0,-4.1733 1.69334,-8.2691 4.6566696,-11.2324 2.94217,-2.9422 7.0485,-4.6426 11.21833,-4.6426 l 211.663127,0 c 4.18397,0 8.29028,1.6898 11.23245,4.6426 2.95277,2.9422 4.64255,7.0485 4.64255,11.2324 l 0,211.6632 c 0,4.1698 -1.70035,8.2761 -4.64255,11.2183 -2.96333,2.9633 -7.05555,4.6567 -11.23245,4.6567 l -211.663127,0 z"
     style="fill:#713907;fill-opacity:1;fill-rule:evenodd;stroke:none"
     id="path3050" />
  <path
     d="m 181.28898,65.868692 c 9.18633,0 16.64758,-7.46125 16.64758,-16.640527 0,-9.189861 -7.46125,-16.65111 -16.64758,-16.65111 -9.18986,0 -16.64053,7.461249 -16.64053,16.65111 0,9.179277 7.45067,16.640527 16.64053,16.640527"
     style="fill:#ffffff;fill-opacity:1;fill-rule:nonzero;stroke:none"
     id="path14179"
     inkscape:connector-curvature="0" />
  <path
     d="m 140.56078,110.68911 35.37656,-17.430751 32.87183,30.254221 c 1.44639,1.42522 3.43959,2.30717 5.64445,2.29305 4.39561,-0.0459 7.9375,-3.61597 7.88105,-8.02569 -0.007,-2.37066 -1.0548,-4.46616 -2.70228,-5.91961 L 172.72353,68.747359 c -1.5628,-1.506361 -3.38313,-2.741083 -5.40102,-3.601861 L 130.80648,52.124471 114.18712,28.054443 c -1.26295,-1.728611 -3.22439,-2.956277 -5.53509,-3.224388 -4.37444,-0.493889 -8.30791,2.631722 -8.819439,7.009694 -0.204611,1.845028 0.236359,3.615972 1.146529,5.090583 l 16.94744,24.535694 c 0.77964,1.005416 1.78506,1.820333 2.95628,2.363611 l 19.66383,7.743472 -32.32855,16.488833 c -4.47675,2.585861 -7.71525,7.069667 -8.59014,12.354278 l 0.1905,29.52397 -29.880277,13.47258 c -3.369028,1.59103 -5.760861,4.93889 -5.933723,8.9147 -0.239888,5.69736 4.191,10.51277 9.881306,10.74914 1.785055,0.067 3.464278,-0.31045 4.974166,-1.03364 l 36.551308,-16.52411 c 2.62114,-1.397 4.58258,-3.90525 5.21758,-6.91798 l -0.0706,-18.38324 25.39295,22.66949 -4.68136,38.71736 c -0.0248,0.23284 -0.0388,0.4692 -0.0529,0.71614 -0.25047,5.68325 4.16631,10.49161 9.88131,10.74209 5.35869,0.22577 9.94127,-3.68653 10.65036,-8.91117 l 5.45041,-44.11486 c 0.0353,-0.20108 0.0494,-0.39511 0.0494,-0.60678 0.13759,-3.07975 -1.10419,-5.91961 -3.19264,-7.89164 l -23.495,-20.84916 z"
     style="fill:#ffffff;fill-opacity:1;fill-rule:nonzero;stroke:none"
     id="path14183"
     inkscape:connector-curvature="0" />
  <path
     d="m 32.43087,146.17502 c -1.658056,0.56092 -2.550583,2.36009 -1.989667,4.01814 2.353028,6.95678 7.641167,12.44953 14.513278,15.06714 0.0035,0 139.714109,53.17067 139.714109,53.17067 6.85447,2.61761 14.45331,2.03552 20.84211,-1.59809 1.524,-0.8643 2.05317,-2.80105 1.18886,-4.32505 -0.8643,-1.52048 -2.80105,-2.05317 -4.32153,-1.18534 -4.7378,2.6917 -10.37166,3.12209 -15.45166,1.18181 -0.003,0 -139.717639,-53.17067 -139.717639,-53.17067 -5.090583,-1.9438 -9.013472,-6.01486 -10.756194,-11.17247 -0.564445,-1.65805 -2.360084,-2.54705 -4.021667,-1.98614"
     style="fill:#ffffff;fill-opacity:1;fill-rule:nonzero;stroke:none"
     id="path14187"
     inkscape:connector-curvature="0" />
</svg>
