<?xml version="1.0" encoding="UTF-8" standalone="no"?>
<svg
   xmlns:dc="http://purl.org/dc/elements/1.1/"
   xmlns:cc="http://creativecommons.org/ns#"
   xmlns:rdf="http://www.w3.org/1999/02/22-rdf-syntax-ns#"
   xmlns:svg="http://www.w3.org/2000/svg"
   xmlns="http://www.w3.org/2000/svg"
   xmlns:sodipodi="http://sodipodi.sourceforge.net/DTD/sodipodi-0.dtd"
   xmlns:inkscape="http://www.inkscape.org/namespaces/inkscape"
   width="90.597931"
   height="90.597931"
   viewBox="0 0 255.68748 255.68749"
   version="1.1"
   id="svg2"
   inkscape:version="0.48.2 r9819"
   sodipodi:docname="MUTCD RS-108.svg">
  <metadata
     id="metadata62">
    <rdf:RDF>
      <cc:Work
         rdf:about="">
        <dc:format>image/svg+xml</dc:format>
        <dc:type
           rdf:resource="http://purl.org/dc/dcmitype/StillImage" />
        <dc:title></dc:title>
      </cc:Work>
    </rdf:RDF>
  </metadata>
  <defs
     id="defs60">
    <clipPath
       clipPathUnits="userSpaceOnUse"
       id="clipPath3564">
      <path
         inkscape:connector-curvature="0"
         d="m 63,43 512.622,0 0,313.129 L 63,356.129 63,43 z"
         id="path3566" />
    </clipPath>
  </defs>
  <sodipodi:namedview
     pagecolor="#ffffff"
     bordercolor="#666666"
     borderopacity="1"
     objecttolerance="10"
     gridtolerance="10"
     guidetolerance="10"
     inkscape:pageopacity="0"
     inkscape:pageshadow="2"
     inkscape:window-width="1280"
     inkscape:window-height="1004"
     id="namedview58"
     showgrid="false"
     fit-margin-top="0"
     fit-margin-left="0"
     fit-margin-right="0"
     fit-margin-bottom="0"
     inkscape:zoom="4.8826954"
     inkscape:cx="83.159137"
     inkscape:cy="32.525196"
     inkscape:window-x="-8"
     inkscape:window-y="-8"
     inkscape:window-maximized="1"
     inkscape:current-layer="svg2"
     showguides="true"
     inkscape:guide-bbox="true" />
  <polygon
     points="315,545 235,375 315,205 395,375 "
     id="polygon10"
     style="fill:none;stroke:#ffffff;stroke-width:40"
     transform="translate(17744.427,14390.473)" />
  <!-- draw the bicycle -->
  <!-- RIGHT -->
  <!-- LANE -->
  <!-- ONLY -->
  <path
     inkscape:connector-curvature="0"
     d="m 22.004643,254.8459 211.663127,0 c 5.57392,0 11.02432,-2.2577 14.97189,-6.2088 3.94053,-3.937 6.1948,-9.3839 6.1948,-14.9578 l 0,-211.6632 c 0,-5.5738 -2.25426,-11.0207 -6.1948,-14.9718 -3.94757,-3.937 -9.39797,-6.1948 -14.97189,-6.1948 l -211.663127,0 c -5.57036,0 -11.02077,2.2578 -14.9577696,6.1948 -3.94759,3.9511 -6.20888999,9.398 -6.20888999,14.9718 l 0,211.6632 c 0,7.2566 3.85232999,14.1111 9.96243959,18.0058 3.48545,2.2154 7.16845,2.7375 11.20422,3.1608"
     style="fill:#ffffff;fill-opacity:1;fill-rule:nonzero;stroke:#000000;stroke-width:1.69333339;stroke-miterlimit:4;stroke-opacity:1;stroke-dasharray:none"
     id="path3026" />
  <path
     inkscape:connector-curvature="0"
     d="m 22.004643,249.5543 c -3.15383,0 -5.80672,-0.7091 -8.36083,-2.3284 -4.6249196,-2.9421 -7.5141696,-8.1385 -7.5141696,-13.5466 l 0,-211.6632 c 0,-4.1733 1.69334,-8.2691 4.6566696,-11.2324 2.94217,-2.9422 7.0485,-4.6426 11.21833,-4.6426 l 211.663127,0 c 4.18397,0 8.29028,1.6898 11.23245,4.6426 2.95277,2.9422 4.64255,7.0485 4.64255,11.2324 l 0,211.6632 c 0,4.1698 -1.70035,8.2761 -4.64255,11.2183 -2.96333,2.9633 -7.05555,4.6567 -11.23245,4.6567 l -211.663127,0 z"
     style="fill:#713907;fill-opacity:1;fill-rule:evenodd;stroke:none"
     id="path3050" />
  <path
     d="m 106.8317,62.693354 c 6.81567,-0.670277 11.80395,-6.727472 11.14072,-13.532555 -0.6738,-6.808611 -6.73805,-11.796888 -13.54666,-11.133666 -6.805085,0.659694 -11.786307,6.731 -11.119557,13.536083 0.663222,6.815666 6.716887,11.789833 13.525497,11.130138"
     style="fill:#ffffff;fill-opacity:1;fill-rule:nonzero;stroke:none"
     id="path10804"
     inkscape:connector-curvature="0" />
  <path
     d="M 131.50498,100.87096 99.680897,65.586132 C 99.218758,65.071077 98.386203,64.291438 97.807647,63.966882 93.602536,60.516716 87.545342,59.860549 82.641731,62.85916 L 53.184787,80.81202 c -3.880556,2.363611 -6.096,6.409972 -6.290028,10.632722 -0.102306,0.846667 -0.04939,1.675694 0.123472,2.536472 0.01411,0.04939 0.03528,0.08819 0.04233,0.137584 0.123473,0.522111 0.144639,1.061861 0.384528,1.562805 l 0.01411,0.03528 c 0.324556,1.090083 0.73025,2.155472 1.351139,3.175 0.116417,0.194028 0.282222,0.352778 0.405695,0.546805 l 7.126111,15.060082 -15.359945,19.33575 c -2.667,3.34786 -2.109611,8.23383 1.255889,10.89378 3.347861,2.66347 8.233833,2.10608 10.897306,-1.24884 l 18.358559,-23.11047 c 0.246944,-0.30339 0.321028,-0.6738 0.515055,-0.99836 0.282223,-0.49742 0.585612,-0.95603 0.758473,-1.49578 0.151694,-0.47977 0.165805,-0.97014 0.225777,-1.46755 0.05645,-0.48684 0.151695,-0.95603 0.112889,-1.4605 -0.04233,-0.5715 -0.243416,-1.08656 -0.402166,-1.63336 -0.01411,-0.0212 -0.01411,-0.0318 -0.01411,-0.0459 4.176888,3.0868 8.159749,6.02897 10.082388,7.45419 -0.123472,6.20183 -0.557389,29.5663 -0.557389,29.61922 0,4.21922 3.376084,7.66939 7.605889,7.75406 4.28625,0.0811 7.828139,-3.32317 7.909278,-7.61648 l 0.627944,-33.47155 c 0.04586,-2.50825 -1.125361,-4.88597 -3.150305,-6.37822 L 76.962008,97.135047 99.430425,83.334381 122.48798,108.98838 c 2.23661,2.49414 6.06778,2.6917 8.56191,0.45508 2.49414,-2.24013 2.70228,-6.08541 0.45509,-8.5725"
     style="fill:#ffffff;fill-opacity:1;fill-rule:nonzero;stroke:none"
     id="path10808"
     inkscape:connector-curvature="0" />
  <path
     d="m 31.397231,193.14352 c 3.245555,0 6.448778,-0.69497 9.433278,-2.032 4.769555,-2.21897 10.040055,-3.38314 15.247055,-3.38314 5.252861,0 10.385778,1.13594 15.172972,3.34786 2.998611,1.35819 6.290028,2.06728 9.503833,2.06728 3.242028,0 6.448778,-0.69497 9.42975,-2.032 4.7625,-2.21897 10.040051,-3.38314 15.243531,-3.38314 5.17877,0 10.4528,1.16417 15.16944,3.34786 3.00567,1.35819 6.29356,2.06728 9.50383,2.06728 3.24556,0 6.44172,-0.69497 9.42622,-2.03906 3.10798,-1.43228 6.42761,-2.37772 9.78959,-2.89983 l -16.62642,-11.95564 -23.94302,-0.64558 -16.823976,-11.65225 -31.725305,-12.29431 -29.509861,-3.88408 0.15875,45.37075 0.550333,0 z"
     style="fill:#ffffff;fill-opacity:1;fill-rule:nonzero;stroke:none"
     id="path10816"
     inkscape:connector-curvature="0" />
  <path
     d="m 31.397231,217.83796 c 4.321528,0 8.456083,-0.97014 12.163778,-2.63172 3.781778,-1.76389 8.053916,-2.79047 12.516555,-2.79047 4.459111,0 8.717139,1.02658 12.513028,2.79047 3.693583,1.66158 7.84225,2.63172 12.163777,2.63172 4.310945,0 8.4455,-0.97014 12.153195,-2.63172 3.781777,-1.76389 8.060976,-2.79047 12.520086,-2.79047 4.44147,0 8.71361,1.02658 12.51302,2.79047 3.69006,1.66158 7.83873,2.63172 12.16025,2.63172 4.318,0 8.45256,-0.97014 12.14614,-2.63172 3.79589,-1.76389 8.06803,-2.79047 12.52714,-2.79047 4.445,0 8.72419,1.02658 12.52008,2.79047 3.69359,1.66158 7.83872,2.63172 12.1532,2.63172 4.30741,0 8.45608,-0.97014 12.15319,-2.63172 3.79236,-1.76389 8.0645,-2.79047 12.52714,-2.79047 4.445,0 8.71714,1.02658 12.51303,2.79047 3.69358,1.66158 7.84225,2.63172 12.16025,2.63172 l 0,-18.21039 c -4.318,0 -8.46667,-0.98425 -12.16025,-2.63878 -3.79589,-1.76388 -8.06803,-2.79047 -12.51303,-2.79047 -4.46264,0 -8.73478,1.02659 -12.52714,2.79047 -3.69711,1.65453 -7.84578,2.63878 -12.15319,2.63878 -4.31448,0 -8.45961,-0.98425 -12.1532,-2.63878 -3.79589,-1.76388 -8.07508,-2.79047 -12.52008,-2.79047 -4.45911,0 -8.73125,1.02659 -12.52714,2.79047 -3.69358,1.65453 -7.82814,2.63878 -12.14614,2.63878 -4.32152,0 -8.47019,-0.98425 -12.16025,-2.63878 -3.79941,-1.76388 -8.07155,-2.79047 -12.51302,-2.79047 -4.45911,0 -8.738309,1.02659 -12.520086,2.79047 -3.707695,1.65453 -7.84225,2.63878 -12.153195,2.63878 -4.321527,0 -8.470194,-0.98425 -12.163777,-2.63878 -3.795889,-1.76388 -8.053917,-2.79047 -12.513028,-2.79047 -4.462639,0 -8.734777,1.02659 -12.516555,2.79047 -3.707695,1.65453 -7.84225,2.63878 -12.163778,2.63878 l 0,18.21039 z"
     style="fill:#ffffff;fill-opacity:1;fill-rule:nonzero;stroke:none"
     id="path10820"
     inkscape:connector-curvature="0" />
  <path
     d="m 224.83234,163.16446 -43.6492,-20.75391 c 2.68817,-0.56445 4.74839,-2.83634 4.74839,-5.69031 0,-3.28083 -2.65289,-5.92666 -5.93372,-5.92666 -3.27025,0 -5.92314,2.64583 -5.92314,5.92666 0,0.95956 0.28222,1.83444 0.68792,2.63878 l -44.1325,-20.98675 c -7.07672,-3.36197 -15.46225,-0.46919 -19.03589,6.4135 l 120.28664,57.16764 c 3.06211,-7.11553 0.0141,-15.43403 -7.0485,-18.78895 m -47.63206,-26.44422 c 0,-1.54869 1.25589,-2.79753 2.79753,-2.79753 1.55222,0 2.80458,1.24884 2.80458,2.79753 0,1.54517 -1.25236,2.80458 -2.80458,2.80458 -1.54164,0 -2.79753,-1.25941 -2.79753,-2.80458"
     style="fill:#ffffff;fill-opacity:1;fill-rule:nonzero;stroke:none"
     id="path10824"
     inkscape:connector-curvature="0" />
  <path
     d="m 110.16545,129.09319 c -1.03364,6.223 2.02847,12.62238 8.01511,15.46224 l 94.20225,44.7922 c 5.97958,2.84692 12.88344,1.18533 17.05328,-3.54189 L 110.16545,129.09319 z"
     style="fill:#ffffff;fill-opacity:1;fill-rule:nonzero;stroke:none"
     id="path10828"
     inkscape:connector-curvature="0" />
</svg>
