<?xml version="1.0" encoding="UTF-8" standalone="no"?>
<svg
   xmlns:dc="http://purl.org/dc/elements/1.1/"
   xmlns:cc="http://creativecommons.org/ns#"
   xmlns:rdf="http://www.w3.org/1999/02/22-rdf-syntax-ns#"
   xmlns:svg="http://www.w3.org/2000/svg"
   xmlns="http://www.w3.org/2000/svg"
   xmlns:sodipodi="http://sodipodi.sourceforge.net/DTD/sodipodi-0.dtd"
   xmlns:inkscape="http://www.inkscape.org/namespaces/inkscape"
   width="90.597931"
   height="90.597931"
   viewBox="0 0 255.68748 255.68749"
   version="1.1"
   id="svg2"
   inkscape:version="0.48.2 r9819"
   sodipodi:docname="MUTCD RS-115.svg">
  <metadata
     id="metadata62">
    <rdf:RDF>
      <cc:Work
         rdf:about="">
        <dc:format>image/svg+xml</dc:format>
        <dc:type
           rdf:resource="http://purl.org/dc/dcmitype/StillImage" />
        <dc:title></dc:title>
      </cc:Work>
    </rdf:RDF>
  </metadata>
  <defs
     id="defs60">
    <clipPath
       clipPathUnits="userSpaceOnUse"
       id="clipPath3564">
      <path
         inkscape:connector-curvature="0"
         d="m 63,43 512.622,0 0,313.129 L 63,356.129 63,43 z"
         id="path3566" />
    </clipPath>
  </defs>
  <sodipodi:namedview
     pagecolor="#ffffff"
     bordercolor="#666666"
     borderopacity="1"
     objecttolerance="10"
     gridtolerance="10"
     guidetolerance="10"
     inkscape:pageopacity="0"
     inkscape:pageshadow="2"
     inkscape:window-width="1280"
     inkscape:window-height="1004"
     id="namedview58"
     showgrid="false"
     fit-margin-top="0"
     fit-margin-left="0"
     fit-margin-right="0"
     fit-margin-bottom="0"
     inkscape:zoom="4"
     inkscape:cx="48.704041"
     inkscape:cy="45.520564"
     inkscape:window-x="-8"
     inkscape:window-y="-8"
     inkscape:window-maximized="1"
     inkscape:current-layer="svg2"
     showguides="true"
     inkscape:guide-bbox="true" />
  <polygon
     points="235,375 315,205 395,375 315,545 "
     id="polygon10"
     style="fill:none;stroke:#ffffff;stroke-width:40"
     transform="translate(17618.396,14343.442)" />
  <!-- draw the bicycle -->
  <!-- RIGHT -->
  <!-- LANE -->
  <!-- ONLY -->
  <path
     inkscape:connector-curvature="0"
     d="m 22.008538,254.83715 211.663112,0 c 5.57389,0 11.02432,-2.2578 14.97188,-6.2089 3.94054,-3.937 6.19479,-9.3839 6.19479,-14.9578 l 0,-211.6667 c 0,-5.5738 -2.25425,-11.0207 -6.19479,-14.9718 -3.94756,-3.937 -9.39799,-6.1948 -14.97188,-6.1948 l -211.663112,0 c -5.57036,0 -11.02078,2.2578 -14.9577796,6.1948 -3.94758,3.9511 -6.20888999,9.398 -6.20888999,14.9718 l 0,211.6667 c 0,7.2531 3.85232999,14.1111 9.96244959,18.0058 3.48897,2.2154 7.16844,2.734 11.20422,3.1609"
     style="fill:#ffffff;fill-opacity:1;fill-rule:nonzero;stroke:#000000;stroke-width:1.69333331;stroke-miterlimit:4;stroke-opacity:1;stroke-dasharray:none"
     id="path3060" />
  <path
     inkscape:connector-curvature="0"
     d="m 22.008538,249.54545 c -3.15384,0 -5.80672,-0.7126 -8.36084,-2.3319 -4.6249096,-2.9421 -7.5141596,-8.135 -7.5141596,-13.5431 l 0,-211.6667 c 0,-4.1698 1.69333,-8.2655 4.6566596,-11.2289 2.94217,-2.9421 7.0485,-4.6461 11.21834,-4.6461 l 211.663112,0 c 4.18394,0 8.29028,1.6934 11.23244,4.6461 2.95628,2.9422 4.64256,7.0485 4.64256,11.2289 l 0,211.6667 c 0,4.1663 -1.70038,8.2726 -4.64256,11.2148 -2.96333,2.9669 -7.05554,4.6602 -11.23244,4.6602 l -211.663112,0 z"
     style="fill:#713907;fill-opacity:1;fill-rule:evenodd;stroke:none"
     id="path3084" />
  <path
     d="m 102.36235,56.547951 c -9.281587,0 -16.809864,-7.531805 -16.809864,-16.827499 0,-9.288639 7.528277,-16.813389 16.809864,-16.813389 9.29569,0 16.82044,7.52475 16.82044,16.813389 0,9.295694 -7.52475,16.827499 -16.82044,16.827499"
     style="fill:#ffffff;fill-opacity:1;fill-rule:nonzero;stroke:none"
     id="path3882"
     inkscape:connector-curvature="0" />
  <path
     d="m 178.74191,90.005395 -26.26078,0 c -2.85044,-2.861027 -19.42394,-19.416888 -23.54791,-23.544388 -0.2787,-0.282222 -1.64042,-1.548695 -1.95792,-1.770945 -3.65831,-2.899833 -8.24795,-4.656666 -13.2715,-4.656666 l -31.047973,0.01411 c -13.070416,0 -21.752277,10.95375 -21.752277,22.108583 l 0,51.332691 c -0.02822,10.11414 13.162139,10.11414 13.162139,0 l 0,-50.256719 6.25475,0 0.03528,136.383889 c 0,5.20347 4.215695,9.41916 9.426222,9.41916 5.207,0 9.426223,-4.21569 9.426223,-9.41916 l -0.01411,-79.09984 6.311196,0 0.007,79.09984 c 0,5.20347 4.22275,9.41916 9.42622,9.41916 5.21406,0 9.43328,-4.21569 9.43328,-9.41916 l -0.0142,-139.39661 20.85622,20.8668 c 1.21003,1.21709 2.86455,1.89442 4.58258,1.89442 l 28.94542,0 c 3.58069,0 6.48758,-2.91042 6.48758,-6.476998 0,-3.591278 -2.90689,-6.498167 -6.48758,-6.498167"
     style="fill:#ffffff;fill-opacity:1;fill-rule:nonzero;stroke:none"
     id="path3886"
     inkscape:connector-curvature="0" />
  <path
     d="m 80.666161,111.23203 -41.500778,41.50783 c -1.128889,1.12889 -1.128889,2.97039 0,4.10634 1.132417,1.12889 2.970389,1.143 4.106334,0 l 9.383889,-9.38389 0,9.99066 -10.897306,10.90084 c -0.684389,0.68791 -0.684389,1.79916 0,2.49414 0.687917,0.68086 1.788583,0.66675 2.487083,-0.0141 l 8.424334,-8.44198 0.02822,25.38589 c 0.01411,0.84667 0.694972,1.53459 1.552222,1.53459 0.860778,0 1.55575,-0.70203 1.55575,-1.55575 l -0.0635,-12.8517 6.589889,6.58636 c 0.455083,0.44097 1.185333,0.43039 1.626305,-0.0104 0.4445,-0.44803 0.4445,-1.16769 0,-1.61925 l -6.656916,-6.65706 0,-30.3918 27.470805,-27.47081 -4.106333,-4.10986 z"
     style="fill:#ffffff;fill-opacity:1;fill-rule:nonzero;stroke:none"
     id="path3890"
     inkscape:connector-curvature="0" />
  <path
     d="m 227.09045,80.550951 c 0.71614,-0.716139 0.71614,-1.87325 0,-2.589389 -0.71614,-0.716139 -1.87677,-0.716139 -2.59291,0 l -10.87967,10.879667 0,-11.003139 c 0,-0.765528 -0.59267,-1.386417 -1.36172,-1.386417 -0.76553,0 -1.38642,0.620889 -1.38642,1.386417 l 0,11.126611 -25.39647,25.389419 -21.49828,0 c 0,0 22.39434,-22.380225 23.75606,-23.749002 1.3723,-1.36525 1.41464,-3.485445 1.41464,-3.485445 l 0,-12.057944 18.47144,-14.622639 12.76703,0 c 0.71614,0 1.29116,-0.5715 1.29116,-1.280583 0,-0.702028 -0.57502,-1.358195 -1.29116,-1.358195 l -12.36839,0 11.80394,-9.680222 c 0.69498,-0.687916 0.7867,-1.728611 0.0917,-2.420055 -0.69145,-0.694972 -1.82034,-0.694972 -2.50825,0 l -18.42559,14.753166 0,-20.827999 c 0,-0.931334 -0.66675,-1.654528 -1.59808,-1.654528 -0.92428,0 -1.67569,0.723194 -1.67569,1.654528 l 0,23.251583 -8.94292,7.567083 0,-13.451417 c 0,-1.252361 -0.94897,-2.286 -2.20486,-2.286 -1.25236,0 -2.27189,1.033639 -2.27189,2.286 l 0,27.417889 -44.1325,44.12544 5.82789,5.82083 13.13391,-13.13391 54.26075,0 c 1.46756,0 2.667,-1.18181 2.667,-2.65642 0,-1.47461 -1.19944,-2.67405 -2.667,-2.67405 l -19.72733,0.0529 9.94128,-9.92011 18.19628,0 c 1.14652,0 2.07433,-0.91723 2.07433,-2.05317 0,-1.15006 -0.92075,-2.06022 -2.06022,-2.07433 l -14.097,-0.007 21.38891,-21.33953 z"
     style="fill:#ffffff;fill-opacity:1;fill-rule:nonzero;stroke:none"
     id="path3894"
     inkscape:connector-curvature="0" />
</svg>
