<?xml version="1.0" encoding="UTF-8" standalone="no"?>
<svg
   xmlns:dc="http://purl.org/dc/elements/1.1/"
   xmlns:cc="http://creativecommons.org/ns#"
   xmlns:rdf="http://www.w3.org/1999/02/22-rdf-syntax-ns#"
   xmlns:svg="http://www.w3.org/2000/svg"
   xmlns="http://www.w3.org/2000/svg"
   xmlns:sodipodi="http://sodipodi.sourceforge.net/DTD/sodipodi-0.dtd"
   xmlns:inkscape="http://www.inkscape.org/namespaces/inkscape"
   width="90.597931"
   height="90.597931"
   viewBox="0 0 255.68748 255.68749"
   version="1.1"
   id="svg2"
   inkscape:version="0.48.2 r9819"
   sodipodi:docname="MUTCD RS-116.svg">
  <metadata
     id="metadata62">
    <rdf:RDF>
      <cc:Work
         rdf:about="">
        <dc:format>image/svg+xml</dc:format>
        <dc:type
           rdf:resource="http://purl.org/dc/dcmitype/StillImage" />
        <dc:title></dc:title>
      </cc:Work>
    </rdf:RDF>
  </metadata>
  <defs
     id="defs60">
    <clipPath
       clipPathUnits="userSpaceOnUse"
       id="clipPath3564">
      <path
         inkscape:connector-curvature="0"
         d="m 63,43 512.622,0 0,313.129 L 63,356.129 63,43 z"
         id="path3566" />
    </clipPath>
  </defs>
  <sodipodi:namedview
     pagecolor="#ffffff"
     bordercolor="#666666"
     borderopacity="1"
     objecttolerance="10"
     gridtolerance="10"
     guidetolerance="10"
     inkscape:pageopacity="0"
     inkscape:pageshadow="2"
     inkscape:window-width="1280"
     inkscape:window-height="1004"
     id="namedview58"
     showgrid="false"
     fit-margin-top="0"
     fit-margin-left="0"
     fit-margin-right="0"
     fit-margin-bottom="0"
     inkscape:zoom="4.8826954"
     inkscape:cx="83.159137"
     inkscape:cy="40.717393"
     inkscape:window-x="-8"
     inkscape:window-y="-8"
     inkscape:window-maximized="1"
     inkscape:current-layer="svg2"
     showguides="true"
     inkscape:guide-bbox="true" />
  <polygon
     points="315,545 235,375 315,205 395,375 "
     id="polygon10"
     style="fill:none;stroke:#ffffff;stroke-width:40"
     transform="translate(17744.427,14390.473)" />
  <!-- draw the bicycle -->
  <!-- RIGHT -->
  <!-- LANE -->
  <!-- ONLY -->
  <path
     inkscape:connector-curvature="0"
     d="m 22.004643,254.8459 211.663127,0 c 5.57392,0 11.02432,-2.2577 14.97189,-6.2088 3.94053,-3.937 6.1948,-9.3839 6.1948,-14.9578 l 0,-211.6632 c 0,-5.5738 -2.25426,-11.0207 -6.1948,-14.9718 -3.94757,-3.937 -9.39797,-6.1948 -14.97189,-6.1948 l -211.663127,0 c -5.57036,0 -11.02077,2.2578 -14.9577696,6.1948 -3.94759,3.9511 -6.20888999,9.398 -6.20888999,14.9718 l 0,211.6632 c 0,7.2566 3.85232999,14.1111 9.96243959,18.0058 3.48545,2.2154 7.16845,2.7375 11.20422,3.1608"
     style="fill:#ffffff;fill-opacity:1;fill-rule:nonzero;stroke:#000000;stroke-width:1.69333339;stroke-miterlimit:4;stroke-opacity:1;stroke-dasharray:none"
     id="path3026" />
  <path
     inkscape:connector-curvature="0"
     d="m 22.004643,249.5543 c -3.15383,0 -5.80672,-0.7091 -8.36083,-2.3284 -4.6249196,-2.9421 -7.5141696,-8.1385 -7.5141696,-13.5466 l 0,-211.6632 c 0,-4.1733 1.69334,-8.2691 4.6566696,-11.2324 2.94217,-2.9422 7.0485,-4.6426 11.21833,-4.6426 l 211.663127,0 c 4.18397,0 8.29028,1.6898 11.23245,4.6426 2.95277,2.9422 4.64255,7.0485 4.64255,11.2324 l 0,211.6632 c 0,4.1698 -1.70035,8.2761 -4.64255,11.2183 -2.96333,2.9633 -7.05555,4.6567 -11.23245,4.6567 l -211.663127,0 z"
     style="fill:#713907;fill-opacity:1;fill-rule:evenodd;stroke:none"
     id="path3050" />
  <path
     d="m 164.41595,29.320577 c -9.09461,0 -16.48883,7.383639 -16.48883,16.506472 0,9.115778 7.39422,16.499416 16.48883,16.499416 9.12283,0 16.51353,-7.383638 16.51353,-16.499416 0,-9.122833 -7.3907,-16.506472 -16.51353,-16.506472"
     style="fill:#ffffff;fill-opacity:1;fill-rule:nonzero;stroke:none"
     id="path8370"
     inkscape:connector-curvature="0" />
  <path
     d="m 39.818375,143.08083 c -1.425222,-2.28953 -4.427361,-2.9845 -6.702777,-1.55222 -2.278945,1.42169 -2.9845,4.42383 -1.548695,6.7063 1.425222,2.27895 4.434417,2.98097 6.709833,1.55575 2.278945,-1.42522 2.970389,-4.43794 1.541639,-6.70983"
     style="fill:#ffffff;fill-opacity:1;fill-rule:nonzero;stroke:none"
     id="path8374"
     inkscape:connector-curvature="0" />
  <path
     d="m 43.194106,156.55694 c -1.432278,-2.27895 -4.420306,-2.97745 -6.709833,-1.5487 -2.286,1.42523 -2.970389,4.43442 -1.548695,6.70984 1.432278,2.27894 4.430889,2.97744 6.709833,1.54869 2.286,-1.42522 2.977445,-4.43441 1.548695,-6.70983"
     style="fill:#ffffff;fill-opacity:1;fill-rule:nonzero;stroke:none"
     id="path8378"
     inkscape:connector-curvature="0" />
  <path
     d="m 46.570542,170.04011 c -1.432278,-2.29306 -4.441472,-2.98803 -6.716889,-1.55575 -2.278944,1.42522 -2.988028,4.43794 -1.548694,6.731 1.418166,2.27541 4.445,2.96333 6.723944,1.53105 2.275417,-1.42169 2.970389,-4.43089 1.541639,-6.7063"
     style="fill:#ffffff;fill-opacity:1;fill-rule:nonzero;stroke:none"
     id="path8382"
     inkscape:connector-curvature="0" />
  <path
     d="m 49.935689,183.50563 c -1.42875,-2.27541 -4.430889,-2.96333 -6.713361,-1.54516 -2.278944,1.42875 -2.970389,4.43794 -1.541639,6.71336 1.432278,2.29305 4.430889,2.98803 6.716889,1.5628 2.289528,-1.42522 2.970389,-4.43794 1.538111,-6.731"
     style="fill:#ffffff;fill-opacity:1;fill-rule:nonzero;stroke:none"
     id="path8386"
     inkscape:connector-curvature="0" />
  <path
     d="m 129.11666,210.98349 c -2.5647,0.8255 -3.98992,3.57364 -3.16442,6.13128 0.82903,2.5647 3.57011,3.97581 6.12775,3.16442 2.57528,-0.82197 3.98991,-3.57011 3.175,-6.13481 -0.8255,-2.56116 -3.57717,-3.98286 -6.13833,-3.16089"
     style="fill:#ffffff;fill-opacity:1;fill-rule:nonzero;stroke:none"
     id="path8390"
     inkscape:connector-curvature="0" />
  <path
     d="m 143.01257,211.04347 c -2.56117,0.82197 -3.98639,3.56305 -3.16089,6.12775 0.81845,2.56822 3.57011,3.98286 6.12422,3.16088 2.57175,-0.8255 3.98287,-3.57363 3.15737,-6.13127 -0.82198,-2.5647 -3.56306,-3.97581 -6.1207,-3.15736"
     style="fill:#ffffff;fill-opacity:1;fill-rule:nonzero;stroke:none"
     id="path8394"
     inkscape:connector-curvature="0" />
  <path
     d="m 156.91237,211.09991 c -2.58586,0.81844 -3.98286,3.57011 -3.15736,6.13128 0.81491,2.55764 3.54894,3.98286 6.11364,3.15736 2.56116,-0.80786 3.98991,-3.556 3.16794,-6.13128 -0.81139,-2.55764 -3.57011,-3.9758 -6.12422,-3.15736"
     style="fill:#ffffff;fill-opacity:1;fill-rule:nonzero;stroke:none"
     id="path8398"
     inkscape:connector-curvature="0" />
  <path
     d="m 170.79417,211.17047 c -2.55411,0.81138 -3.98286,3.54541 -3.15383,6.11716 0.81844,2.57528 3.57011,3.97581 6.13128,3.15384 2.55764,-0.8255 3.9758,-3.54542 3.15736,-6.11717 -0.82903,-2.57528 -3.57011,-3.97581 -6.13481,-3.15383"
     style="fill:#ffffff;fill-opacity:1;fill-rule:nonzero;stroke:none"
     id="path8402"
     inkscape:connector-curvature="0" />
  <path
     d="m 203.91613,102.44083 -28.81489,0 -13.23622,-30.02492 c -0.17992,-0.462139 -0.44803,-1.132417 -0.60678,-1.42875 -0.0282,-0.06703 -0.0811,-0.116417 -0.10936,-0.179917 l -0.23989,-0.550333 c -0.007,0.02117 -0.0282,0.05644 -0.0353,0.07761 -2.48708,-5.210528 -7.62706,-8.978194 -13.70542,-9.221611 -1.16416,-0.03175 -2.24719,0.07761 -3.35491,0.331611 L 71.405744,78.437826 c -4.392083,0.98425 -7.126111,5.337528 -6.12775,9.726083 0.991306,4.370917 5.348111,7.097889 9.7155,6.113639 l 48.327026,-11.479388 -36.717109,60.60017 -26.761722,0 c -0.01411,0 -0.02117,0.007 -0.03528,0.007 l -12.537722,0 8.713611,34.21592 c 0.257528,0.99836 0.257528,1.24531 0.606778,1.81681 1.220611,2.0073 3.838222,2.62819 5.831416,1.41463 1.072445,-0.66322 1.756834,-1.70391 1.961445,-2.82575 l 5.182305,-15.875 0.186972,-0.635 c 0,0 24.080611,-0.1023 24.281694,-0.10936 4.79425,0 8.935862,-1.30175 11.373552,-5.34105 l 11.176,-18.48556 24.77911,24.70856 -10.50219,41.38436 c 0,0 36.24791,0.0246 36.40666,0.0246 2.35656,0 4.24745,-1.91558 4.24745,-4.25097 0,-1.79211 -1.13242,-3.08681 -2.54353,-3.87703 l -15.73036,-8.69597 7.57767,-29.72506 c 0,0 1.87677,-6.29708 -4.09223,-12.09322 l -20.28472,-20.31633 c 0,0 10.8585,-17.85408 17.81175,-29.269973 l 8.0892,18.298583 c 0.64558,1.48872 1.70744,2.67406 2.9845,3.4925 0.0178,0.0282 0.0811,0.0635 0.10936,0.0917 0.0212,0 0.0212,0 0.0212,0.007 1.26648,0.84667 2.79753,1.31586 4.46264,1.31586 l 33.88078,0 c 4.4838,0.0459 8.15622,-3.62656 8.17739,-8.1033 0.0353,-4.49439 -3.58775,-8.10331 -8.06097,-8.13153"
     style="fill:#ffffff;fill-opacity:1;fill-rule:nonzero;stroke:none"
     id="path8406"
     inkscape:connector-curvature="0" />
</svg>
