<?xml version="1.0" encoding="UTF-8" standalone="no"?>
<svg
   xmlns:dc="http://purl.org/dc/elements/1.1/"
   xmlns:cc="http://creativecommons.org/ns#"
   xmlns:rdf="http://www.w3.org/1999/02/22-rdf-syntax-ns#"
   xmlns:svg="http://www.w3.org/2000/svg"
   xmlns="http://www.w3.org/2000/svg"
   xmlns:sodipodi="http://sodipodi.sourceforge.net/DTD/sodipodi-0.dtd"
   xmlns:inkscape="http://www.inkscape.org/namespaces/inkscape"
   width="90.597931"
   height="90.597931"
   viewBox="0 0 255.68748 255.68749"
   version="1.1"
   id="svg2"
   inkscape:version="0.48.2 r9819"
   sodipodi:docname="MUTCD RS-138.svg">
  <metadata
     id="metadata62">
    <rdf:RDF>
      <cc:Work
         rdf:about="">
        <dc:format>image/svg+xml</dc:format>
        <dc:type
           rdf:resource="http://purl.org/dc/dcmitype/StillImage" />
        <dc:title></dc:title>
      </cc:Work>
    </rdf:RDF>
  </metadata>
  <defs
     id="defs60">
    <clipPath
       clipPathUnits="userSpaceOnUse"
       id="clipPath3564">
      <path
         inkscape:connector-curvature="0"
         d="m 63,43 512.622,0 0,313.129 L 63,356.129 63,43 z"
         id="path3566" />
    </clipPath>
  </defs>
  <sodipodi:namedview
     pagecolor="#ffffff"
     bordercolor="#666666"
     borderopacity="1"
     objecttolerance="10"
     gridtolerance="10"
     guidetolerance="10"
     inkscape:pageopacity="0"
     inkscape:pageshadow="2"
     inkscape:window-width="1280"
     inkscape:window-height="1004"
     id="namedview58"
     showgrid="false"
     fit-margin-top="0"
     fit-margin-left="0"
     fit-margin-right="0"
     fit-margin-bottom="0"
     inkscape:zoom="4.8826954"
     inkscape:cx="83.159137"
     inkscape:cy="32.525196"
     inkscape:window-x="-8"
     inkscape:window-y="-8"
     inkscape:window-maximized="1"
     inkscape:current-layer="svg2"
     showguides="true"
     inkscape:guide-bbox="true" />
  <polygon
     points="315,545 235,375 315,205 395,375 "
     id="polygon10"
     style="fill:none;stroke:#ffffff;stroke-width:40"
     transform="translate(17744.427,14390.473)" />
  <!-- draw the bicycle -->
  <!-- RIGHT -->
  <!-- LANE -->
  <!-- ONLY -->
  <path
     inkscape:connector-curvature="0"
     d="m 22.004643,254.8459 211.663127,0 c 5.57392,0 11.02432,-2.2577 14.97189,-6.2088 3.94053,-3.937 6.1948,-9.3839 6.1948,-14.9578 l 0,-211.6632 c 0,-5.5738 -2.25426,-11.0207 -6.1948,-14.9718 -3.94757,-3.937 -9.39797,-6.1948 -14.97189,-6.1948 l -211.663127,0 c -5.57036,0 -11.02077,2.2578 -14.9577696,6.1948 -3.94759,3.9511 -6.20888999,9.398 -6.20888999,14.9718 l 0,211.6632 c 0,7.2566 3.85232999,14.1111 9.96243959,18.0058 3.48545,2.2154 7.16845,2.7375 11.20422,3.1608"
     style="fill:#ffffff;fill-opacity:1;fill-rule:nonzero;stroke:#000000;stroke-width:1.69333339;stroke-miterlimit:4;stroke-opacity:1;stroke-dasharray:none"
     id="path3026" />
  <path
     inkscape:connector-curvature="0"
     d="m 22.004643,249.5543 c -3.15383,0 -5.80672,-0.7091 -8.36083,-2.3284 -4.6249196,-2.9421 -7.5141696,-8.1385 -7.5141696,-13.5466 l 0,-211.6632 c 0,-4.1733 1.69334,-8.2691 4.6566696,-11.2324 2.94217,-2.9422 7.0485,-4.6426 11.21833,-4.6426 l 211.663127,0 c 4.18397,0 8.29028,1.6898 11.23245,4.6426 2.95277,2.9422 4.64255,7.0485 4.64255,11.2324 l 0,211.6632 c 0,4.1698 -1.70035,8.2761 -4.64255,11.2183 -2.96333,2.9633 -7.05555,4.6567 -11.23245,4.6567 l -211.663127,0 z"
     style="fill:#713907;fill-opacity:1;fill-rule:evenodd;stroke:none"
     id="path3050" />
  <path
     inkscape:connector-curvature="0"
     style="fill:#ffffff;fill-opacity:1;fill-rule:nonzero;stroke:none"
     d="m 165.36457,23.118744 -47.80139,78.757636 -11.90625,0 0,7.9375 119.41528,0 0,-8.02569 -11.90625,0 -47.80139,-78.669446 z m 0.0882,43.127083 21.07847,35.542363 -42.33334,0 21.25487,-35.542363 z"
     id="path3470" />
  <path
     inkscape:connector-curvature="0"
     style="fill:#ffffff;fill-opacity:1;fill-rule:nonzero;stroke:none"
     d="m 88.988184,125.51249 c -0.511968,0.0626 -1.023056,0.20814 -1.499306,0.44097 l -16.404166,8.02569 -0.881944,18.60903 4.409722,-0.70555 c 1.181805,-8.43492 1.573389,-10.65389 1.763889,-15.08125 1.837972,-0.067 3.330222,-0.254 4.321527,-0.52917 l -2.38125,6.87917 c -1.202972,3.41489 -1.358194,7.30955 -0.08819,10.49514 l -6.261806,19.75555 c -16.562916,13.589 -30.338888,28.88192 -41.09861,44.97917 0.716139,0.4833 2.367139,1.91558 3.086806,2.38125 9.553222,-14.13581 21.427721,-27.44964 35.54236,-39.59931 l -1.5875,5.20347 5.379861,4.23334 8.290278,-19.22639 c 2.314222,-1.72861 4.649611,-3.35845 7.055555,-5.02708 l 1.499306,1.76388 6.173611,21.60764 6.790973,-1.94027 -5.291668,-22.48959 c -0.479777,-1.4993 -0.994833,-2.82928 -1.499305,-4.05694 9.853083,-6.26181 20.397613,-12.0262 31.661803,-17.10972 -0.69497,-0.73731 -2.49766,-2.79048 -3.175,-3.52778 -4.86833,2.23308 -9.58144,4.56494 -14.1993,7.05555 l -9.70139,-7.14375 c -2.487085,-6.35 -3.023308,-14.10405 -10.318752,-14.90486 -0.516819,-0.0635 -1.075532,-0.15082 -1.5875,-0.0882 z m 5.732639,16.66875 3.263194,5.29166 7.584723,2.99862 c -3.79942,2.15194 -7.528278,4.49086 -11.112501,6.79097 -1.097138,-2.10609 -2.317749,-4.12397 -3.880555,-6.52639 1.922639,-2.76225 3.510139,-6.04661 4.145139,-8.55486 z"
     id="path3474" />
  <path
     d="m 89.764295,229.73999 c 13.835945,-31.97931 40.625885,-64.14911 79.403225,-90.70975 0.90311,0.46567 3.98286,1.73214 4.91066,2.19781 -38.77028,26.28194 -65.43322,58.68458 -79.360885,90.49808 -0.903111,-0.23636 -4.028722,-1.73214 -4.953,-1.98614"
     style="fill:#ffffff;fill-opacity:1;fill-rule:nonzero;stroke:none"
     id="path3478"
     inkscape:connector-curvature="0" />
  <path
     d="m 95.807378,113.53888 c 3.07975,0 5.588002,2.51177 5.588002,5.588 0,3.08327 -2.508252,5.59152 -5.588002,5.59152 -3.07975,0 -5.595055,-2.50825 -5.595055,-5.59152 0,-3.07623 2.515305,-5.588 5.595055,-5.588"
     style="fill:#ffffff;fill-opacity:1;fill-rule:nonzero;stroke:none"
     id="path3490"
     inkscape:connector-curvature="0" />
</svg>
