<?xml version="1.0" encoding="UTF-8" standalone="no"?>
<svg
   xmlns:dc="http://purl.org/dc/elements/1.1/"
   xmlns:cc="http://creativecommons.org/ns#"
   xmlns:rdf="http://www.w3.org/1999/02/22-rdf-syntax-ns#"
   xmlns:svg="http://www.w3.org/2000/svg"
   xmlns="http://www.w3.org/2000/svg"
   xmlns:sodipodi="http://sodipodi.sourceforge.net/DTD/sodipodi-0.dtd"
   xmlns:inkscape="http://www.inkscape.org/namespaces/inkscape"
   width="90.597931"
   height="90.597931"
   viewBox="0 0 255.68748 255.68749"
   version="1.1"
   id="svg2"
   inkscape:version="0.48.2 r9819"
   sodipodi:docname="MUTCD RS-111.svg">
  <metadata
     id="metadata62">
    <rdf:RDF>
      <cc:Work
         rdf:about="">
        <dc:format>image/svg+xml</dc:format>
        <dc:type
           rdf:resource="http://purl.org/dc/dcmitype/StillImage" />
        <dc:title></dc:title>
      </cc:Work>
    </rdf:RDF>
  </metadata>
  <defs
     id="defs60">
    <clipPath
       clipPathUnits="userSpaceOnUse"
       id="clipPath3564">
      <path
         inkscape:connector-curvature="0"
         d="m 63,43 512.622,0 0,313.129 L 63,356.129 63,43 z"
         id="path3566" />
    </clipPath>
  </defs>
  <sodipodi:namedview
     pagecolor="#ffffff"
     bordercolor="#666666"
     borderopacity="1"
     objecttolerance="10"
     gridtolerance="10"
     guidetolerance="10"
     inkscape:pageopacity="0"
     inkscape:pageshadow="2"
     inkscape:window-width="1280"
     inkscape:window-height="1004"
     id="namedview58"
     showgrid="false"
     fit-margin-top="0"
     fit-margin-left="0"
     fit-margin-right="0"
     fit-margin-bottom="0"
     inkscape:zoom="4"
     inkscape:cx="48.704041"
     inkscape:cy="45.520564"
     inkscape:window-x="-8"
     inkscape:window-y="-8"
     inkscape:window-maximized="1"
     inkscape:current-layer="svg2"
     showguides="true"
     inkscape:guide-bbox="true" />
  <polygon
     points="235,375 315,205 395,375 315,545 "
     id="polygon10"
     style="fill:none;stroke:#ffffff;stroke-width:40"
     transform="translate(17618.396,14343.442)" />
  <!-- draw the bicycle -->
  <!-- RIGHT -->
  <!-- LANE -->
  <!-- ONLY -->
  <path
     inkscape:connector-curvature="0"
     d="m 22.008538,254.83715 211.663112,0 c 5.57389,0 11.02432,-2.2578 14.97188,-6.2089 3.94054,-3.937 6.19479,-9.3839 6.19479,-14.9578 l 0,-211.6667 c 0,-5.5738 -2.25425,-11.0207 -6.19479,-14.9718 -3.94756,-3.937 -9.39799,-6.1948 -14.97188,-6.1948 l -211.663112,0 c -5.57036,0 -11.02078,2.2578 -14.9577796,6.1948 -3.94758,3.9511 -6.20888999,9.398 -6.20888999,14.9718 l 0,211.6667 c 0,7.2531 3.85232999,14.1111 9.96244959,18.0058 3.48897,2.2154 7.16844,2.734 11.20422,3.1609"
     style="fill:#ffffff;fill-opacity:1;fill-rule:nonzero;stroke:#000000;stroke-width:1.69333331;stroke-miterlimit:4;stroke-opacity:1;stroke-dasharray:none"
     id="path3060" />
  <path
     inkscape:connector-curvature="0"
     d="m 22.008538,249.54545 c -3.15384,0 -5.80672,-0.7126 -8.36084,-2.3319 -4.6249096,-2.9421 -7.5141596,-8.135 -7.5141596,-13.5431 l 0,-211.6667 c 0,-4.1698 1.69333,-8.2655 4.6566596,-11.2289 2.94217,-2.9421 7.0485,-4.6461 11.21834,-4.6461 l 211.663112,0 c 4.18394,0 8.29028,1.6934 11.23244,4.6461 2.95628,2.9422 4.64256,7.0485 4.64256,11.2289 l 0,211.6667 c 0,4.1663 -1.70038,8.2726 -4.64256,11.2148 -2.96333,2.9669 -7.05554,4.6602 -11.23244,4.6602 l -211.663112,0 z"
     style="fill:#713907;fill-opacity:1;fill-rule:evenodd;stroke:none"
     id="path3084" />
  <path
     d="m 226.62691,210.00628 c -4.31447,0 -8.46314,-0.97367 -12.16378,-2.63525 -3.79589,-1.77095 -8.07508,-2.79048 -12.52361,-2.79048 -4.45206,0 -8.73831,1.01953 -12.52714,2.79048 -3.70064,1.66158 -7.83519,2.63525 -12.15672,2.63525 -4.31095,0 -8.47372,-0.97367 -12.16731,-2.63525 -3.79589,-1.77095 -8.06097,-2.79048 -12.52714,-2.79048 -4.45558,0 -8.72066,1.01953 -12.5095,2.79048 -3.71475,1.66158 -7.85636,2.63525 -12.17788,2.63525 -4.31095,0 -8.46667,-0.97367 -12.16731,-2.63525 -3.79589,-1.77095 -8.05392,-2.79048 -12.52008,-2.79048 -4.462643,0 -8.720671,1.01953 -12.520087,2.79048 -3.711222,1.66158 -7.845778,2.63525 -12.167306,2.63525 -4.310944,0 -8.452555,-0.97367 -12.160249,-2.63525 -3.795889,-1.77095 -8.068028,-2.79048 -12.527139,-2.79048 -4.462639,0 -8.720667,1.01953 -12.527139,2.79048 -3.690056,1.66158 -7.831667,2.63525 -12.16025,2.63525 l 0,-18.23156 c 4.328583,0 8.470194,-0.97367 12.16025,-2.62819 3.806472,-1.76389 8.0645,-2.79753 12.527139,-2.79753 4.459111,0 8.73125,1.03364 12.527139,2.79753 3.707694,1.65452 7.849305,2.62819 12.160249,2.62819 4.321528,0 8.456084,-0.97367 12.167306,-2.62819 3.799416,-1.76389 8.057444,-2.79753 12.520087,-2.79753 4.46616,0 8.72419,1.03364 12.52008,2.79753 3.70064,1.65452 7.85636,2.62819 12.16731,2.62819 4.32152,0 8.46313,-0.97367 12.17788,-2.62819 3.78884,-1.76389 8.05392,-2.79753 12.5095,-2.79753 4.46617,0 8.73125,1.03364 12.52714,2.79753 3.69359,1.65452 7.85636,2.62819 12.16731,2.62819 4.32153,0 8.45608,-0.97367 12.15672,-2.62819 3.78883,-1.76389 8.07508,-2.79753 12.52714,-2.79753 4.44853,0 8.72772,1.03364 12.52361,2.79753 3.70064,1.65452 7.84931,2.62819 12.16378,2.62819 l 0,18.23156 z"
     style="fill:#ffffff;fill-opacity:1;fill-rule:nonzero;stroke:none"
     id="path4070"
     inkscape:connector-curvature="0" />
  <path
     d="m 233.12825,167.02384 -50.75061,0.067 -7.29897,-19.61445 c 5.86316,-0.93133 16.84866,-2.70933 23.19161,-4.49791 2.7305,-0.68439 5.54919,-3.54189 6.31825,-5.18231 l 15.12005,-23.02228 0,28.81489 c 0,3.2385 4.83659,3.2385 4.83659,0 l 0,-29.74269 2.032,0 c 5.80672,0 5.80672,-8.70303 0,-8.70303 l -2.032,0 0,-28.779611 c 0,-3.231445 -4.83659,-3.231445 -4.83659,0 l 0,28.779611 -1.4358,0 0,0.0212 c -5.11175,-0.52564 -29.32289,-3.10797 -33.99367,-5.528029 -4.74133,-2.465917 -9.64142,-5.235222 -14.26986,-7.577667 -4.191,-2.123722 -6.64986,-2.003777 -11.23244,-1.192388 -2.6035,0.469194 -17.82587,3.316111 -32.61784,7.055555 -18.2245,4.596689 -40.685859,15.215299 -40.685859,15.215299 l -25.756305,0.13053 C 53.818362,111.50367 51.518251,100.51112 48.939445,95.66042 L 42.504778,82.611171 C 42.007361,81.542254 40.797334,81.20006 39.679028,81.143615 L 23.26075,80.138199 c -2.420055,-0.151695 -1.516944,1.929694 -1.178278,3.129139 l 11.264195,44.076052 c 1.160639,4.91772 8.029222,9.63789 12.823472,10.1212 l 66.209331,10.1353 0.83961,0 -7.28839,19.61092 -52.062939,0.067 c -1.255889,0 -2.289528,0.67028 -2.289528,1.89442 l 0,3.33022 c 0,1.40405 0.814917,2.30717 2.289528,2.7552 4.279194,1.30175 17.134416,4.83658 32.466138,8.53722 0.529167,-0.19403 1.090083,-0.28928 1.605139,-0.51858 4.85775,-2.25778 9.990666,-3.40078 15.247052,-3.40078 5.25992,0 10.39284,1.143 15.15886,3.36197 3.01978,1.34761 6.3112,2.05317 9.52853,2.05317 3.25967,0 6.46995,-0.69145 9.44034,-2.00731 4.79072,-2.22955 10.06122,-3.40783 15.24705,-3.40783 5.19642,0 10.46692,1.17828 15.17297,3.36197 3.00567,1.34761 6.29709,2.05317 9.52148,2.05317 3.2138,0 6.50522,-0.70556 9.42622,-2.00731 4.78366,-2.22955 10.06122,-3.40783 15.25764,-3.40783 4.91066,0 9.88483,1.08655 14.38627,3.05153 12.67531,-4.14867 17.12736,-7.60237 17.12736,-7.60237 0.99131,-0.78316 1.64042,-1.62983 1.64042,-2.89278 l 0,-3.45722 c 0,-1.25589 -0.70908,-1.95792 -1.96497,-1.95086 m -121.39789,0.17992 7.28486,-19.60387 50.30964,0 7.25664,19.50509 -64.85114,0.0988 z m 39.72983,-69.818254 6.02192,17.864664 -44.78514,0 c -0.95955,0 -2.0073,-0.59266 -2.0073,-2.11314 l 0,-2.39889 c 0,-1.3088 0.53269,-2.13077 1.70391,-2.68816 1.41111,-0.6597 9.49325,-3.90525 14.43214,-5.16114 8.84061,-2.23308 18.10103,-4.201584 24.63447,-5.503334 m 30.78339,9.831914 c -0.5715,0.99131 -3.88408,6.63575 -3.88408,6.63575 0,0 -0.68086,1.397 -2.91394,1.397 l -11.27478,0 -6.43467,-19.092331 c 0.50447,-0.08819 1.03364,-0.194028 1.37936,-0.246944 4.04284,-0.716139 5.40103,-0.737306 8.38553,0.769055 0,0 12.83053,6.64986 13.73717,7.13317 1.0548,0.56444 1.73214,2.1343 1.00541,3.4043"
     style="fill:#ffffff;fill-opacity:1;fill-rule:nonzero;stroke:none"
     id="path4074"
     inkscape:connector-curvature="0" />
</svg>
