<?xml version="1.0" encoding="UTF-8" standalone="no"?>
<svg
   xmlns:dc="http://purl.org/dc/elements/1.1/"
   xmlns:cc="http://creativecommons.org/ns#"
   xmlns:rdf="http://www.w3.org/1999/02/22-rdf-syntax-ns#"
   xmlns:svg="http://www.w3.org/2000/svg"
   xmlns="http://www.w3.org/2000/svg"
   xmlns:sodipodi="http://sodipodi.sourceforge.net/DTD/sodipodi-0.dtd"
   xmlns:inkscape="http://www.inkscape.org/namespaces/inkscape"
   width="90.597931"
   height="90.597931"
   viewBox="0 0 255.68748 255.68749"
   version="1.1"
   id="svg2"
   inkscape:version="0.48.2 r9819"
   sodipodi:docname="MUTCD RS-145.svg">
  <metadata
     id="metadata62">
    <rdf:RDF>
      <cc:Work
         rdf:about="">
        <dc:format>image/svg+xml</dc:format>
        <dc:type
           rdf:resource="http://purl.org/dc/dcmitype/StillImage" />
        <dc:title></dc:title>
      </cc:Work>
    </rdf:RDF>
  </metadata>
  <defs
     id="defs60">
    <clipPath
       clipPathUnits="userSpaceOnUse"
       id="clipPath3564">
      <path
         inkscape:connector-curvature="0"
         d="m 63,43 512.622,0 0,313.129 L 63,356.129 63,43 z"
         id="path3566" />
    </clipPath>
  </defs>
  <sodipodi:namedview
     pagecolor="#ffffff"
     bordercolor="#666666"
     borderopacity="1"
     objecttolerance="10"
     gridtolerance="10"
     guidetolerance="10"
     inkscape:pageopacity="0"
     inkscape:pageshadow="2"
     inkscape:window-width="1280"
     inkscape:window-height="1004"
     id="namedview58"
     showgrid="false"
     fit-margin-top="0"
     fit-margin-left="0"
     fit-margin-right="0"
     fit-margin-bottom="0"
     inkscape:zoom="4.8826954"
     inkscape:cx="83.159137"
     inkscape:cy="32.525196"
     inkscape:window-x="-8"
     inkscape:window-y="-8"
     inkscape:window-maximized="1"
     inkscape:current-layer="svg2"
     showguides="true"
     inkscape:guide-bbox="true" />
  <polygon
     points="315,545 235,375 315,205 395,375 "
     id="polygon10"
     style="fill:none;stroke:#ffffff;stroke-width:40"
     transform="translate(17744.427,14390.473)" />
  <!-- draw the bicycle -->
  <!-- RIGHT -->
  <!-- LANE -->
  <!-- ONLY -->
  <path
     inkscape:connector-curvature="0"
     d="m 22.004643,254.8459 211.663127,0 c 5.57392,0 11.02432,-2.2577 14.97189,-6.2088 3.94053,-3.937 6.1948,-9.3839 6.1948,-14.9578 l 0,-211.6632 c 0,-5.5738 -2.25426,-11.0207 -6.1948,-14.9718 -3.94757,-3.937 -9.39797,-6.1948 -14.97189,-6.1948 l -211.663127,0 c -5.57036,0 -11.02077,2.2578 -14.9577696,6.1948 -3.94759,3.9511 -6.20888999,9.398 -6.20888999,14.9718 l 0,211.6632 c 0,7.2566 3.85232999,14.1111 9.96243959,18.0058 3.48545,2.2154 7.16845,2.7375 11.20422,3.1608"
     style="fill:#ffffff;fill-opacity:1;fill-rule:nonzero;stroke:#000000;stroke-width:1.69333339;stroke-miterlimit:4;stroke-opacity:1;stroke-dasharray:none"
     id="path3026" />
  <path
     inkscape:connector-curvature="0"
     d="m 22.004643,249.5543 c -3.15383,0 -5.80672,-0.7091 -8.36083,-2.3284 -4.6249196,-2.9421 -7.5141696,-8.1385 -7.5141696,-13.5466 l 0,-211.6632 c 0,-4.1733 1.69334,-8.2691 4.6566696,-11.2324 2.94217,-2.9422 7.0485,-4.6426 11.21833,-4.6426 l 211.663127,0 c 4.18397,0 8.29028,1.6898 11.23245,4.6426 2.95277,2.9422 4.64255,7.0485 4.64255,11.2324 l 0,211.6632 c 0,4.1698 -1.70035,8.2761 -4.64255,11.2183 -2.96333,2.9633 -7.05555,4.6567 -11.23245,4.6567 l -211.663127,0 z"
     style="fill:#713907;fill-opacity:1;fill-rule:evenodd;stroke:none"
     id="path3050" />
  <path
     d="m 117.27037,177.82943 3.85233,-3.63714 -10.19175,-10.03652 -74.35497,0.06 c -7.083777,0 -13.1445,-5.61975 -12.834055,-12.83053 l 0.246944,-5.18939 207.966031,-0.27869 -0.0282,5.46805 c -0.0635,7.05556 -5.71853,12.83053 -12.79878,12.83053 l -99.77967,-0.06 5.72206,6.74511 7.33425,-5.06942 1.08303,0.59267 c 3.23144,2.89278 7.1508,6.83683 10.69269,11.18658 4.34975,-0.56092 8.636,-2.70228 11.05958,-6.83683 2.921,4.63197 7.79992,7.33425 13.04925,7.33425 5.34459,0 10.287,-2.70228 13.17625,-7.24253 2.70228,4.35328 7.61295,7.17903 13.70189,7.17903 5.16114,0 10.06828,-2.95275 12.61534,-7.52122 3.42194,4.88244 8.51605,7.64469 13.36322,7.64469 3.00919,0 7.70466,-1.58397 11.15483,-4.59669 l 0,11.05958 c -3.63714,3.54189 -8.57955,5.28461 -12.27314,5.28461 -5.22111,0 -10.03653,-2.54706 -12.89755,-6.74511 -2.79753,4.1663 -7.54945,6.80508 -13.23623,6.80508 -5.842,0 -10.03652,-2.63878 -12.77055,-6.8968 -3.1997,4.34975 -7.42597,6.80508 -12.92578,6.80508 -5.6268,0 -10.16353,-2.11314 -13.26797,-6.92856 -1.15006,1.86267 -2.51531,3.35492 -4.07106,4.47323 3.60539,6.58989 4.93889,12.8658 1.05834,16.96508 -9.26042,6.06072 -19.23345,-3.04094 -29.39698,-15.84325 -1.86266,0.83608 -3.72886,1.23825 -5.37633,1.23825 -5.87022,0 -10.84439,-1.92617 -14.19931,-7.05203 -2.794,4.41325 -7.485941,7.14728 -13.204469,7.14728 -5.750278,0 -10.752666,-2.921 -13.359694,-7.48594 -2.765778,4.43794 -7.799917,7.33072 -13.578417,7.33072 -5.499805,0 -9.757833,-2.36009 -12.837583,-6.89681 -3.072695,4.41325 -8.011584,6.95678 -13.419667,6.95678 -5.034139,0 -9.662583,-2.36008 -12.460111,-6.36764 l 0,-12.64708 c 2.88925,4.53672 7.644695,7.14728 13.391444,7.14728 5.129389,0 9.944806,-2.61056 12.802306,-6.96031 3.171473,4.56847 8.173861,6.96031 12.587111,6.96031 5.528028,0 10.622139,-2.70228 13.296195,-6.70984 3.048,4.2545 8.050388,6.64986 12.865805,6.64986 5.341055,0 10.375194,-2.73755 13.23622,-7.20725 3.25967,4.65667 8.51253,7.26723 13.39145,7.26723 0.56091,0 1.15005,-0.06 1.61572,-0.0917"
     style="fill:#ffffff;fill-opacity:1;fill-rule:nonzero;stroke:none"
     id="path11874"
     inkscape:connector-curvature="0" />
  <path
     inkscape:connector-curvature="0"
     style="fill:#ffffff;fill-opacity:1;fill-rule:nonzero;stroke:none"
     d="m 136.4368,77.975687 c -2.46707,0.05836 -4.97416,0.617361 -7.40833,1.675695 l -1.41111,0.617361 -60.23681,22.754167 -8.025694,-9.877779 c -2.197806,-2.709333 -6.949723,0.381 -5.027084,3.086806 l 7.14375,9.084023 -3.439583,1.49931 5.820833,8.81944 5.291667,-1.4993 17.550694,21.25486 -50.182639,0 c -4.579055,0 -10.498666,1.76389 -11.377083,5.99722 l 204.787499,0 c -1.6898,-4.55436 -6.4523,-5.97958 -10.84791,-5.99722 l -37.92361,-0.0882 -0.97014,-3.26319 c -4.72017,-16.42534 -12.51303,-31.90523 -23.98889,-44.626397 -5.11969,-5.675311 -12.35434,-9.611928 -19.75556,-9.436806 z m -16.49236,20.725694 c 2.74754,-0.218045 5.25154,1.590589 6.52639,4.056949 l 16.75694,32.63194 -48.065971,-0.0882 -19.579166,-23.54792 43.127087,-12.87639 c 0.39908,-0.119069 0.84221,-0.145231 1.23472,-0.176389 z"
     id="path11878" />
  <path
     d="m 116.62831,48.377632 c 8.3679,0 15.15534,6.787444 15.15534,15.155333 0,8.367889 -6.78744,15.155333 -15.15534,15.155333 -8.36436,0 -15.1518,-6.787444 -15.1518,-15.155333 0,-8.367889 6.78744,-15.155333 15.1518,-15.155333"
     style="fill:#ffffff;fill-opacity:1;fill-rule:nonzero;stroke:none"
     id="path11886"
     inkscape:connector-curvature="0" />
</svg>
