<?xml version="1.0" encoding="UTF-8" standalone="no"?>
<svg
   xmlns:dc="http://purl.org/dc/elements/1.1/"
   xmlns:cc="http://creativecommons.org/ns#"
   xmlns:rdf="http://www.w3.org/1999/02/22-rdf-syntax-ns#"
   xmlns:svg="http://www.w3.org/2000/svg"
   xmlns="http://www.w3.org/2000/svg"
   xmlns:sodipodi="http://sodipodi.sourceforge.net/DTD/sodipodi-0.dtd"
   xmlns:inkscape="http://www.inkscape.org/namespaces/inkscape"
   width="90.597931"
   height="90.597931"
   viewBox="0 0 255.68748 255.68749"
   version="1.1"
   id="svg2"
   inkscape:version="0.48.2 r9819"
   sodipodi:docname="MUTCD RS-128.svg">
  <metadata
     id="metadata62">
    <rdf:RDF>
      <cc:Work
         rdf:about="">
        <dc:format>image/svg+xml</dc:format>
        <dc:type
           rdf:resource="http://purl.org/dc/dcmitype/StillImage" />
        <dc:title></dc:title>
      </cc:Work>
    </rdf:RDF>
  </metadata>
  <defs
     id="defs60">
    <clipPath
       clipPathUnits="userSpaceOnUse"
       id="clipPath3564">
      <path
         inkscape:connector-curvature="0"
         d="m 63,43 512.622,0 0,313.129 L 63,356.129 63,43 z"
         id="path3566" />
    </clipPath>
  </defs>
  <sodipodi:namedview
     pagecolor="#ffffff"
     bordercolor="#666666"
     borderopacity="1"
     objecttolerance="10"
     gridtolerance="10"
     guidetolerance="10"
     inkscape:pageopacity="0"
     inkscape:pageshadow="2"
     inkscape:window-width="1280"
     inkscape:window-height="1004"
     id="namedview58"
     showgrid="false"
     fit-margin-top="0"
     fit-margin-left="0"
     fit-margin-right="0"
     fit-margin-bottom="0"
     inkscape:zoom="4.8826954"
     inkscape:cx="83.159137"
     inkscape:cy="40.717393"
     inkscape:window-x="-8"
     inkscape:window-y="-8"
     inkscape:window-maximized="1"
     inkscape:current-layer="svg2"
     showguides="true"
     inkscape:guide-bbox="true" />
  <polygon
     points="315,545 235,375 315,205 395,375 "
     id="polygon10"
     style="fill:none;stroke:#ffffff;stroke-width:40"
     transform="translate(17744.427,14390.473)" />
  <!-- draw the bicycle -->
  <!-- RIGHT -->
  <!-- LANE -->
  <!-- ONLY -->
  <path
     inkscape:connector-curvature="0"
     d="m 22.004643,254.8459 211.663127,0 c 5.57392,0 11.02432,-2.2577 14.97189,-6.2088 3.94053,-3.937 6.1948,-9.3839 6.1948,-14.9578 l 0,-211.6632 c 0,-5.5738 -2.25426,-11.0207 -6.1948,-14.9718 -3.94757,-3.937 -9.39797,-6.1948 -14.97189,-6.1948 l -211.663127,0 c -5.57036,0 -11.02077,2.2578 -14.9577696,6.1948 -3.94759,3.9511 -6.20888999,9.398 -6.20888999,14.9718 l 0,211.6632 c 0,7.2566 3.85232999,14.1111 9.96243959,18.0058 3.48545,2.2154 7.16845,2.7375 11.20422,3.1608"
     style="fill:#ffffff;fill-opacity:1;fill-rule:nonzero;stroke:#000000;stroke-width:1.69333339;stroke-miterlimit:4;stroke-opacity:1;stroke-dasharray:none"
     id="path3026" />
  <path
     inkscape:connector-curvature="0"
     d="m 22.004643,249.5543 c -3.15383,0 -5.80672,-0.7091 -8.36083,-2.3284 -4.6249196,-2.9421 -7.5141696,-8.1385 -7.5141696,-13.5466 l 0,-211.6632 c 0,-4.1733 1.69334,-8.2691 4.6566696,-11.2324 2.94217,-2.9422 7.0485,-4.6426 11.21833,-4.6426 l 211.663127,0 c 4.18397,0 8.29028,1.6898 11.23245,4.6426 2.95277,2.9422 4.64255,7.0485 4.64255,11.2324 l 0,211.6632 c 0,4.1698 -1.70035,8.2761 -4.64255,11.2183 -2.96333,2.9633 -7.05555,4.6567 -11.23245,4.6567 l -211.663127,0 z"
     style="fill:#713907;fill-opacity:1;fill-rule:evenodd;stroke:none"
     id="path3050" />
  <path
     d="m 39.437375,129.63294 c 0,-4.08164 3.309055,-7.38717 7.380111,-7.38717 4.078111,0 7.387166,3.30553 7.387166,7.38717 0,4.07106 -3.309055,7.38011 -7.387166,7.38011 -4.071056,0 -7.380111,-3.30905 -7.380111,-7.38011"
     style="fill:#ffffff;fill-opacity:1;fill-rule:nonzero;stroke:none"
     id="path8740"
     inkscape:connector-curvature="0" />
  <path
     d="m 149.64832,60.502604 c 8.88648,0 16.07256,-7.200194 16.07256,-16.076083 0,-8.89 -7.18608,-16.090194 -16.07256,-16.090194 -8.88294,0 -16.07608,7.200194 -16.07608,16.090194 0,8.875889 7.19314,16.076083 16.07608,16.076083"
     style="fill:#ffffff;fill-opacity:1;fill-rule:nonzero;stroke:none"
     id="path8744"
     inkscape:connector-curvature="0" />
  <path
     d="m 218.77548,203.75508 -26.14789,-30.861 c 0,0 -8.11741,-47.61089 -8.13505,-47.73437 -0.007,-0.0353 -1.2065,-5.3728 -1.2065,-5.3728 0.007,0.0317 -3.30906,-15.0495 -5.88434,-26.811112 4.12045,2.335389 7.78581,4.437945 7.96573,4.54025 0.21872,0.426861 13.86769,26.405412 13.86769,26.405412 1.01247,1.92617 2.72345,3.34786 4.80483,3.99345 2.08492,0.64911 4.29684,0.44097 6.22653,-0.5715 1.93675,-1.01247 3.36197,-2.71992 4.00403,-4.80836 0.65264,-2.08139 0.44803,-4.29331 -0.56444,-6.223 l -14.986,-28.504446 c 0,-0.01411 -0.5715,-1.040695 -1.37937,-1.852083 -1.08302,-1.083028 -3.4043,-2.377723 -3.4043,-2.377723 0,0 -29.09711,-16.569972 -29.09711,-16.562916 -3.66536,-1.855611 -7.7717,-2.480028 -11.84275,-1.61925 -1.63336,0.356306 -3.21733,0.977194 -4.98828,1.9685 -0.19403,0.07056 -6.65692,2.88925 -10.36461,11.659305 l -14.95778,30.049613 c 0,0 -22.690663,4.38855 -23.502052,4.572 -0.186972,0.0423 -0.381,0.0988 -0.557389,0.15875 L 77.389207,98.796631 C 72.602013,95.44877 72.016402,85.458104 71.981124,85.031243 71.388458,78.176771 67.454985,71.699771 61.168485,67.226549 55.457013,63.17666 48.595486,61.469215 42.319569,62.524021 c -4.907138,0.832555 -9.069916,3.351389 -11.726333,7.087305 -2.056694,2.885723 -3.14325,6.388806 -3.14325,10.114139 0,0.0635 0.275167,3.273778 0.275167,3.273778 1.075972,6.311194 4.960055,12.22375 10.671527,16.273638 5.725584,4.067529 12.583583,5.796139 18.845389,4.741329 0.02822,-0.0141 1.481667,-0.33161 1.481667,-0.33161 0.144638,-0.0529 9.584972,-2.94922 14.181666,0.19403 0.02455,0.0212 15.913805,11.20422 20.164777,14.20636 -0.4445,0.70909 -1.252361,2.21192 -1.217083,3.78884 0.01411,0.49741 0.05292,1.00894 0.151695,1.49577 0.853722,4.42384 5.161138,7.32367 9.584969,6.4629 l 28.17283,-5.47512 c 0.0212,0 2.41653,-0.75142 3.47839,-1.49578 1.2947,-0.91722 2.27542,-2.88219 2.27542,-2.88219 0,-0.007 7.44714,-14.96483 7.44714,-14.96483 0,0 5.10469,24.15822 5.19642,24.56392 -0.57856,0.61383 -23.13164,24.50041 -23.13164,24.50041 0,0.0141 -0.39158,0.50447 -0.39158,0.50447 -2.21192,2.00378 -3.43959,4.67784 -3.43959,7.4542 l 0,50.67652 c 0,5.3975 4.39561,9.78606 9.79311,9.78606 5.39397,0 9.78253,-4.38856 9.78253,-9.78606 l 0,-42.29805 c 2.06022,-2.16253 19.37455,-20.37997 23.98536,-25.22361 0.49389,2.88572 4.953,28.53267 4.953,28.53267 0.39158,2.27188 1.44639,4.33916 3.07269,5.99369 0.0212,0.0564 31.06914,36.68889 31.06914,36.68889 1.68628,1.98614 4.04284,3.20675 6.65692,3.42547 2.61055,0.21519 5.13997,-0.60678 7.12964,-2.286 2.27541,-1.93675 3.45369,-4.699 3.45369,-7.47889 0,-2.22955 -0.75141,-4.4838 -2.31775,-6.31119 M 63.842541,93.243909 c -1.7145,2.427111 -4.367389,3.996973 -7.662333,4.554361 -4.621389,0.779639 -9.761361,-0.550333 -14.12875,-3.65125 -4.370917,-3.107972 -7.320139,-7.531805 -8.09625,-12.146138 L 33.747069,79.68666 c 0,-2.405945 0.670278,-4.568473 1.979084,-6.424084 4.265083,-6.00075 14.040555,-6.406444 21.798138,-0.896055 7.754056,5.520972 10.576278,14.876638 6.31825,20.877388"
     style="fill:#ffffff;fill-opacity:1;fill-rule:nonzero;stroke:none"
     id="path8748"
     inkscape:connector-curvature="0" />
</svg>
