<?xml version="1.0" encoding="UTF-8" standalone="no"?>
<svg
   xmlns:dc="http://purl.org/dc/elements/1.1/"
   xmlns:cc="http://creativecommons.org/ns#"
   xmlns:rdf="http://www.w3.org/1999/02/22-rdf-syntax-ns#"
   xmlns:svg="http://www.w3.org/2000/svg"
   xmlns="http://www.w3.org/2000/svg"
   xmlns:sodipodi="http://sodipodi.sourceforge.net/DTD/sodipodi-0.dtd"
   xmlns:inkscape="http://www.inkscape.org/namespaces/inkscape"
   width="90.597931"
   height="90.597931"
   viewBox="0 0 255.68748 255.68749"
   version="1.1"
   id="svg2"
   inkscape:version="0.48.2 r9819"
   sodipodi:docname="MUTCD RS-120.svg">
  <metadata
     id="metadata62">
    <rdf:RDF>
      <cc:Work
         rdf:about="">
        <dc:format>image/svg+xml</dc:format>
        <dc:type
           rdf:resource="http://purl.org/dc/dcmitype/StillImage" />
        <dc:title></dc:title>
      </cc:Work>
    </rdf:RDF>
  </metadata>
  <defs
     id="defs60">
    <clipPath
       clipPathUnits="userSpaceOnUse"
       id="clipPath3564">
      <path
         inkscape:connector-curvature="0"
         d="m 63,43 512.622,0 0,313.129 L 63,356.129 63,43 z"
         id="path3566" />
    </clipPath>
  </defs>
  <sodipodi:namedview
     pagecolor="#ffffff"
     bordercolor="#666666"
     borderopacity="1"
     objecttolerance="10"
     gridtolerance="10"
     guidetolerance="10"
     inkscape:pageopacity="0"
     inkscape:pageshadow="2"
     inkscape:window-width="1280"
     inkscape:window-height="1004"
     id="namedview58"
     showgrid="false"
     fit-margin-top="0"
     fit-margin-left="0"
     fit-margin-right="0"
     fit-margin-bottom="0"
     inkscape:zoom="4"
     inkscape:cx="48.704041"
     inkscape:cy="45.520564"
     inkscape:window-x="-8"
     inkscape:window-y="-8"
     inkscape:window-maximized="1"
     inkscape:current-layer="svg2"
     showguides="true"
     inkscape:guide-bbox="true" />
  <polygon
     points="235,375 315,205 395,375 315,545 "
     id="polygon10"
     style="fill:none;stroke:#ffffff;stroke-width:40"
     transform="translate(17618.396,14343.442)" />
  <!-- draw the bicycle -->
  <!-- RIGHT -->
  <!-- LANE -->
  <!-- ONLY -->
  <path
     inkscape:connector-curvature="0"
     d="m 22.008538,254.83715 211.663112,0 c 5.57389,0 11.02432,-2.2578 14.97188,-6.2089 3.94054,-3.937 6.19479,-9.3839 6.19479,-14.9578 l 0,-211.6667 c 0,-5.5738 -2.25425,-11.0207 -6.19479,-14.9718 -3.94756,-3.937 -9.39799,-6.1948 -14.97188,-6.1948 l -211.663112,0 c -5.57036,0 -11.02078,2.2578 -14.9577796,6.1948 -3.94758,3.9511 -6.20888999,9.398 -6.20888999,14.9718 l 0,211.6667 c 0,7.2531 3.85232999,14.1111 9.96244959,18.0058 3.48897,2.2154 7.16844,2.734 11.20422,3.1609"
     style="fill:#ffffff;fill-opacity:1;fill-rule:nonzero;stroke:#000000;stroke-width:1.69333331;stroke-miterlimit:4;stroke-opacity:1;stroke-dasharray:none"
     id="path3060" />
  <path
     inkscape:connector-curvature="0"
     d="m 22.008538,249.54545 c -3.15384,0 -5.80672,-0.7126 -8.36084,-2.3319 -4.6249096,-2.9421 -7.5141596,-8.135 -7.5141596,-13.5431 l 0,-211.6667 c 0,-4.1698 1.69333,-8.2655 4.6566596,-11.2289 2.94217,-2.9421 7.0485,-4.6461 11.21834,-4.6461 l 211.663112,0 c 4.18394,0 8.29028,1.6934 11.23244,4.6461 2.95628,2.9422 4.64256,7.0485 4.64256,11.2289 l 0,211.6667 c 0,4.1663 -1.70038,8.2726 -4.64256,11.2148 -2.96333,2.9669 -7.05554,4.6602 -11.23244,4.6602 l -211.663112,0 z"
     style="fill:#713907;fill-opacity:1;fill-rule:evenodd;stroke:none"
     id="path3084" />
  <path
     d="m 132.48532,52.949618 c 7.10494,0.557389 13.32794,-4.7625 13.87827,-11.863916 0.55034,-7.104944 -4.74133,-13.327944 -11.84627,-13.878277 -7.10848,-0.557389 -13.32442,4.741333 -13.86769,11.846277 -0.5715,7.094361 4.73427,13.331472 11.83569,13.895916"
     style="fill:#ffffff;fill-opacity:1;fill-rule:nonzero;stroke:none"
     id="path3924"
     inkscape:connector-curvature="0" />
  <path
     d="m 121.55979,58.24834 c 2.52589,-1.770945 5.64797,-2.963333 9.04522,-2.681111 4.43089,0.338666 8.08919,3.086805 10.27289,6.441722 l 13.04219,25.82686 17.76589,12.227279 c 1.50636,1.16769 2.42358,3.048 2.25778,5.10822 -0.26106,3.19617 -3.05153,5.588 -6.26181,5.33047 -0.96661,-0.0811 -1.72155,-0.44802 -2.65994,-0.86783 L 145.66862,96.295422 c -0.60678,-0.47625 -1.09714,-1.075972 -1.47461,-1.735666 l -4.89303,-9.644945 -5.82083,25.731609 22.89528,27.05806 c 0.49389,0.84314 0.85372,1.778 1.04775,2.77283 l 6.18772,32.68486 c -0.0282,0.70909 0.0811,1.16417 0.0246,1.76389 -0.37747,4.82953 -4.57905,8.4067 -9.39094,8.03981 -3.9617,-0.32103 -6.9462,-3.27731 -7.88106,-6.93561 l -5.83494,-30.607 -18.57728,-20.37645 -4.36033,19.86492 c -0.11994,0.90311 -1.34408,2.88925 -1.72508,3.69358 L 98.029424,178.6902 c -1.778,2.74814 -4.762499,4.50497 -8.195027,4.23686 -4.815417,-0.381 -8.410222,-4.58258 -8.03275,-9.398 0.123472,-1.37936 0.694972,-2.76577 1.185333,-3.75002 l 16.60525,-27.86239 13.82183,-61.323366 -9.03464,7.316611 -4.78719,21.854585 c -0.642056,2.77989 -3.189111,5.08 -6.208889,4.83305 -3.203222,-0.25047 -5.609166,-3.05505 -5.358694,-6.26533 0.02117,-0.27517 0.06703,-0.52211 0.116416,-0.78317 l 5.697312,-25.481135 c 0.324555,-1.118306 0.945444,-2.081389 1.792111,-2.811639 L 121.55965,58.24834 z"
     style="fill:#ffffff;fill-opacity:1;fill-rule:nonzero;stroke:none"
     id="path3928"
     inkscape:connector-curvature="0" />
  <path
     d="m 61.084511,210.5351 16.792222,0 0,23.73489 -16.792222,0 0,-23.73489 z"
     style="fill:#ffffff;fill-opacity:1;fill-rule:evenodd;stroke:none"
     id="path3930"
     inkscape:connector-curvature="0" />
  <path
     d="m 177.77634,210.5351 16.77811,0 0,23.73489 -16.77811,0 0,-23.73489 z"
     style="fill:#ffffff;fill-opacity:1;fill-rule:evenodd;stroke:none"
     id="path3932"
     inkscape:connector-curvature="0" />
  <path
     d="m 25.35165,191.89079 20.464639,0 0,11.3665 -20.464639,0 0,-11.3665 z"
     style="fill:#ffffff;fill-opacity:1;fill-rule:evenodd;stroke:none"
     id="path3934"
     inkscape:connector-curvature="0" />
  <path
     d="m 183.02567,191.89079 20.46464,0 0,11.3665 -20.46464,0 0,-11.3665 z"
     style="fill:#ffffff;fill-opacity:1;fill-rule:evenodd;stroke:none"
     id="path3936"
     inkscape:connector-curvature="0" />
  <path
     d="m 209.93909,191.89079 20.45758,0 0,11.3665 -20.45758,0 0,-11.3665 z"
     style="fill:#ffffff;fill-opacity:1;fill-rule:evenodd;stroke:none"
     id="path3938"
     inkscape:connector-curvature="0" />
  <path
     d="m 156.74725,191.89079 20.45759,0 0,11.3665 -20.45759,0 0,-11.3665 z"
     style="fill:#ffffff;fill-opacity:1;fill-rule:evenodd;stroke:none"
     id="path3940"
     inkscape:connector-curvature="0" />
  <path
     d="m 130.47589,191.89079 20.45759,0 0,11.3665 -20.45759,0 0,-11.3665 z"
     style="fill:#ffffff;fill-opacity:1;fill-rule:evenodd;stroke:none"
     id="path3942"
     inkscape:connector-curvature="0" />
  <path
     d="m 104.19748,191.89079 20.45758,0 0,11.3665 -20.45758,0 0,-11.3665 z"
     style="fill:#ffffff;fill-opacity:1;fill-rule:evenodd;stroke:none"
     id="path3944"
     inkscape:connector-curvature="0" />
  <path
     d="m 77.91201,191.89079 20.461111,0 0,11.3665 -20.461111,0 0,-11.3665 z"
     style="fill:#ffffff;fill-opacity:1;fill-rule:evenodd;stroke:none"
     id="path3946"
     inkscape:connector-curvature="0" />
  <path
     d="m 51.637122,191.89079 20.464638,0 0,11.3665 -20.464638,0 0,-11.3665 z"
     style="fill:#ffffff;fill-opacity:1;fill-rule:evenodd;stroke:none"
     id="path3948"
     inkscape:connector-curvature="0" />
</svg>
