<?xml version="1.0" encoding="UTF-8" standalone="no"?>
<svg
   xmlns:dc="http://purl.org/dc/elements/1.1/"
   xmlns:cc="http://creativecommons.org/ns#"
   xmlns:rdf="http://www.w3.org/1999/02/22-rdf-syntax-ns#"
   xmlns:svg="http://www.w3.org/2000/svg"
   xmlns="http://www.w3.org/2000/svg"
   xmlns:sodipodi="http://sodipodi.sourceforge.net/DTD/sodipodi-0.dtd"
   xmlns:inkscape="http://www.inkscape.org/namespaces/inkscape"
   width="90.597931"
   height="90.597931"
   viewBox="0 0 255.68748 255.68749"
   version="1.1"
   id="svg2"
   inkscape:version="0.48.2 r9819"
   sodipodi:docname="MUTCD RS-103.svg">
  <metadata
     id="metadata62">
    <rdf:RDF>
      <cc:Work
         rdf:about="">
        <dc:format>image/svg+xml</dc:format>
        <dc:type
           rdf:resource="http://purl.org/dc/dcmitype/StillImage" />
        <dc:title></dc:title>
      </cc:Work>
    </rdf:RDF>
  </metadata>
  <defs
     id="defs60">
    <clipPath
       clipPathUnits="userSpaceOnUse"
       id="clipPath3564">
      <path
         inkscape:connector-curvature="0"
         d="m 63,43 512.622,0 0,313.129 L 63,356.129 63,43 z"
         id="path3566" />
    </clipPath>
  </defs>
  <sodipodi:namedview
     pagecolor="#ffffff"
     bordercolor="#666666"
     borderopacity="1"
     objecttolerance="10"
     gridtolerance="10"
     guidetolerance="10"
     inkscape:pageopacity="0"
     inkscape:pageshadow="2"
     inkscape:window-width="1280"
     inkscape:window-height="1004"
     id="namedview58"
     showgrid="false"
     fit-margin-top="0"
     fit-margin-left="0"
     fit-margin-right="0"
     fit-margin-bottom="0"
     inkscape:zoom="4"
     inkscape:cx="48.704041"
     inkscape:cy="45.520564"
     inkscape:window-x="-8"
     inkscape:window-y="-8"
     inkscape:window-maximized="1"
     inkscape:current-layer="svg2"
     showguides="true"
     inkscape:guide-bbox="true" />
  <polygon
     points="235,375 315,205 395,375 315,545 "
     id="polygon10"
     style="fill:none;stroke:#ffffff;stroke-width:40"
     transform="translate(17618.396,14343.442)" />
  <!-- draw the bicycle -->
  <!-- RIGHT -->
  <!-- LANE -->
  <!-- ONLY -->
  <path
     inkscape:connector-curvature="0"
     d="m 22.008538,254.83715 211.663112,0 c 5.57389,0 11.02432,-2.2578 14.97188,-6.2089 3.94054,-3.937 6.19479,-9.3839 6.19479,-14.9578 l 0,-211.6667 c 0,-5.5738 -2.25425,-11.0207 -6.19479,-14.9718 -3.94756,-3.937 -9.39799,-6.1948 -14.97188,-6.1948 l -211.663112,0 c -5.57036,0 -11.02078,2.2578 -14.9577796,6.1948 -3.94758,3.9511 -6.20888999,9.398 -6.20888999,14.9718 l 0,211.6667 c 0,7.2531 3.85232999,14.1111 9.96244959,18.0058 3.48897,2.2154 7.16844,2.734 11.20422,3.1609"
     style="fill:#ffffff;fill-opacity:1;fill-rule:nonzero;stroke:#000000;stroke-width:1.69333331;stroke-miterlimit:4;stroke-opacity:1;stroke-dasharray:none"
     id="path3060" />
  <path
     inkscape:connector-curvature="0"
     d="m 22.008538,249.54545 c -3.15384,0 -5.80672,-0.7126 -8.36084,-2.3319 -4.6249096,-2.9421 -7.5141596,-8.135 -7.5141596,-13.5431 l 0,-211.6667 c 0,-4.1698 1.69333,-8.2655 4.6566596,-11.2289 2.94217,-2.9421 7.0485,-4.6461 11.21834,-4.6461 l 211.663112,0 c 4.18394,0 8.29028,1.6934 11.23244,4.6461 2.95628,2.9422 4.64256,7.0485 4.64256,11.2289 l 0,211.6667 c 0,4.1663 -1.70038,8.2726 -4.64256,11.2148 -2.96333,2.9669 -7.05554,4.6602 -11.23244,4.6602 l -211.663112,0 z"
     style="fill:#713907;fill-opacity:1;fill-rule:evenodd;stroke:none"
     id="path3084" />
  <path
     d="m 98.812696,128.68042 -18.333861,14.54503 -23.502056,17.99519 c -6.685139,5.2458 -12.142611,-1.06539 -12.142611,-1.06539 -5.207,-6.82978 0.779639,-11.30652 0.779639,-11.30652 l 29.255862,-22.8847 c 0,0 3.203222,-3.36902 11.609916,-0.95602 l 12.333111,3.67241 z"
     style="fill:#ffffff;fill-opacity:1;fill-rule:nonzero;stroke:none"
     id="path4032"
     inkscape:connector-curvature="0" />
  <path
     d="m 133.13233,99.45984 c -9.18281,0 -16.63347,-7.450667 -16.63347,-16.633472 0,-9.186333 7.45066,-16.633472 16.63347,-16.633472 9.18633,0 16.63347,7.447139 16.63347,16.633472 0,9.182805 -7.44714,16.633472 -16.63347,16.633472"
     style="fill:#ffffff;fill-opacity:1;fill-rule:nonzero;stroke:none"
     id="path4036"
     inkscape:connector-curvature="0" />
  <path
     d="m 72.223483,172.95756 c -1.135945,-3.12914 -1.633363,-6.58284 -0.821973,-10.06828 0.903111,-3.88408 3.033889,-7.17903 5.880806,-9.56381 L 200.30651,55.376729 c 2.95981,-2.226028 6.65339,-3.548944 10.65036,-3.548944 9.8037,0 17.7412,7.944555 17.7412,17.74825 0,5.68325 -2.6035,10.802055 -6.76628,14.054666 -1.47461,1.248833 -3.61597,1.125361 -4.86128,-0.34925 -1.25589,-1.474611 -1.07597,-3.71475 0.39864,-4.963583 2.65289,-1.975556 4.35328,-5.178778 4.35328,-8.741833 0,-6.007806 -4.86481,-10.872612 -10.86556,-10.872612 -2.48708,0 -4.78014,0.832556 -6.60753,2.233084 l -35.7258,28.504444 -18.70075,54.094939 11.32769,26.95928 c 1.34409,-0.27517 2.76225,-0.52917 4.191,-0.52917 11.31359,0 20.48228,9.16517 20.48228,20.47875 0,11.31358 -9.16869,20.48228 -20.48228,20.48228 -11.31358,0 -20.4858,-9.1687 -20.4858,-20.48228 0,-7.32014 3.82411,-13.74775 9.59908,-17.36372 l -8.12447,-19.45922 -0.69497,2.032 c -2.52236,7.66233 -10.77737,11.82511 -18.4397,9.30275 l -37.916554,-12.52009 -7.418917,5.9055 c -1.785055,1.47461 -3.122083,3.51367 -3.679472,5.93372 -0.511528,2.19075 -0.179917,4.28978 0.5715,6.24064 1.329972,-0.27516 2.804583,-0.55033 4.215694,-0.55033 11.313583,0 20.485809,9.16517 20.485809,20.47875 0,11.31358 -9.172226,20.48228 -20.485809,20.48228 -11.313583,0 -20.485806,-9.1687 -20.485806,-20.48228 0,-7.4295 3.735917,-13.89944 9.641418,-17.48719 m 102.090367,17.48719 c 0,-4.90714 -3.97581,-8.88294 -8.87237,-8.88294 -4.90713,0 -8.88294,3.9758 -8.88294,8.88294 0,4.89656 3.97581,8.87236 8.88294,8.87236 4.89656,0 8.87237,-3.9758 8.87237,-8.87236 m -82.363034,0 c 0,-4.90714 -3.975806,-8.88294 -8.882945,-8.88294 -4.903611,0 -8.879416,3.9758 -8.879416,8.88294 0,4.89656 3.975805,8.87236 8.879416,8.87236 4.907139,0 8.882945,-3.9758 8.882945,-8.87236"
     style="fill:#ffffff;fill-opacity:1;fill-rule:nonzero;stroke:none"
     id="path4040"
     inkscape:connector-curvature="0" />
</svg>
