<?xml version="1.0" encoding="UTF-8" standalone="no"?>
<svg
   xmlns:dc="http://purl.org/dc/elements/1.1/"
   xmlns:cc="http://creativecommons.org/ns#"
   xmlns:rdf="http://www.w3.org/1999/02/22-rdf-syntax-ns#"
   xmlns:svg="http://www.w3.org/2000/svg"
   xmlns="http://www.w3.org/2000/svg"
   xmlns:sodipodi="http://sodipodi.sourceforge.net/DTD/sodipodi-0.dtd"
   xmlns:inkscape="http://www.inkscape.org/namespaces/inkscape"
   width="90.597931"
   height="90.597931"
   viewBox="0 0 255.68748 255.68749"
   version="1.1"
   id="svg2"
   inkscape:version="0.48.2 r9819"
   sodipodi:docname="MUTCD RS-119.svg">
  <metadata
     id="metadata62">
    <rdf:RDF>
      <cc:Work
         rdf:about="">
        <dc:format>image/svg+xml</dc:format>
        <dc:type
           rdf:resource="http://purl.org/dc/dcmitype/StillImage" />
        <dc:title></dc:title>
      </cc:Work>
    </rdf:RDF>
  </metadata>
  <defs
     id="defs60">
    <clipPath
       clipPathUnits="userSpaceOnUse"
       id="clipPath3564">
      <path
         inkscape:connector-curvature="0"
         d="m 63,43 512.622,0 0,313.129 L 63,356.129 63,43 z"
         id="path3566" />
    </clipPath>
  </defs>
  <sodipodi:namedview
     pagecolor="#ffffff"
     bordercolor="#666666"
     borderopacity="1"
     objecttolerance="10"
     gridtolerance="10"
     guidetolerance="10"
     inkscape:pageopacity="0"
     inkscape:pageshadow="2"
     inkscape:window-width="1280"
     inkscape:window-height="1004"
     id="namedview58"
     showgrid="false"
     fit-margin-top="0"
     fit-margin-left="0"
     fit-margin-right="0"
     fit-margin-bottom="0"
     inkscape:zoom="4.8826954"
     inkscape:cx="83.159137"
     inkscape:cy="32.525196"
     inkscape:window-x="-8"
     inkscape:window-y="-8"
     inkscape:window-maximized="1"
     inkscape:current-layer="svg2"
     showguides="true"
     inkscape:guide-bbox="true" />
  <polygon
     points="315,545 235,375 315,205 395,375 "
     id="polygon10"
     style="fill:none;stroke:#ffffff;stroke-width:40"
     transform="translate(17744.427,14390.473)" />
  <!-- draw the bicycle -->
  <!-- RIGHT -->
  <!-- LANE -->
  <!-- ONLY -->
  <path
     inkscape:connector-curvature="0"
     d="m 22.004643,254.8459 211.663127,0 c 5.57392,0 11.02432,-2.2577 14.97189,-6.2088 3.94053,-3.937 6.1948,-9.3839 6.1948,-14.9578 l 0,-211.6632 c 0,-5.5738 -2.25426,-11.0207 -6.1948,-14.9718 -3.94757,-3.937 -9.39797,-6.1948 -14.97189,-6.1948 l -211.663127,0 c -5.57036,0 -11.02077,2.2578 -14.9577696,6.1948 -3.94759,3.9511 -6.20888999,9.398 -6.20888999,14.9718 l 0,211.6632 c 0,7.2566 3.85232999,14.1111 9.96243959,18.0058 3.48545,2.2154 7.16845,2.7375 11.20422,3.1608"
     style="fill:#ffffff;fill-opacity:1;fill-rule:nonzero;stroke:#000000;stroke-width:1.69333339;stroke-miterlimit:4;stroke-opacity:1;stroke-dasharray:none"
     id="path3026" />
  <path
     inkscape:connector-curvature="0"
     d="m 22.004643,249.5543 c -3.15383,0 -5.80672,-0.7091 -8.36083,-2.3284 -4.6249196,-2.9421 -7.5141696,-8.1385 -7.5141696,-13.5466 l 0,-211.6632 c 0,-4.1733 1.69334,-8.2691 4.6566696,-11.2324 2.94217,-2.9422 7.0485,-4.6426 11.21833,-4.6426 l 211.663127,0 c 4.18397,0 8.29028,1.6898 11.23245,4.6426 2.95277,2.9422 4.64255,7.0485 4.64255,11.2324 l 0,211.6632 c 0,4.1698 -1.70035,8.2761 -4.64255,11.2183 -2.96333,2.9633 -7.05555,4.6567 -11.23245,4.6567 l -211.663127,0 z"
     style="fill:#713907;fill-opacity:1;fill-rule:evenodd;stroke:none"
     id="path3050" />
  <path
     d="M 94.096396,74.708965 C 103.21923,73.615354 109.72798,65.325076 108.63437,56.188132 107.53017,47.065298 99.236368,40.57066 90.120591,41.671326 80.997758,42.768465 74.48548,51.04816 75.589674,60.170993 c 1.100667,9.136944 9.383889,15.642167 18.506722,14.537972"
     style="fill:#ffffff;fill-opacity:1;fill-rule:nonzero;stroke:none"
     id="path11012"
     inkscape:connector-curvature="0" />
  <path
     d="m 230.95653,153.17027 c -0.889,-0.42686 -68.75639,-34.90031 -68.75639,-34.90031 l -17.20497,-22.221467 -0.23636,-0.218722 c -2.3495,-2.151945 -5.9937,-1.979084 -8.13506,0.363361 l 0,0.0635 c -1.49578,1.778 -1.83444,4.360328 -0.64911,6.505218 l 12.80936,16.48531 0.0141,0.127 -10.61154,24.31344 -28.14108,-6.985 -1.21003,-10.07533 23.14222,-2.79047 c 1.04069,-0.0741 2.08139,-0.38453 3.06564,-0.89606 3.85233,-2.02494 5.31283,-6.80508 3.28789,-10.62919 -1.56986,-2.93511 -4.699,-4.5085 -7.80698,-4.16984 l -23.5726,2.83281 -2.10609,-17.448388 C 103.7484,84.410354 95.447535,77.894549 86.317646,78.995215 c -9.129888,1.104195 -15.635111,9.398 -14.537972,18.527889 l 4.882445,40.460086 c 0.620889,5.13291 3.700639,9.60614 7.754055,12.19552 l -37.027555,4.445 -11.514666,28.55736 c 0.440972,-0.16933 0.903111,-0.23988 1.329972,-0.44097 4.751916,-2.21544 10.033,-3.39372 15.254111,-3.39372 5.189361,0 10.459861,1.17122 15.151805,3.35492 3.023306,1.35114 6.311194,2.06727 9.514417,2.06727 3.2385,0 6.448777,-0.70555 9.426222,-2.02847 4.755444,-2.21544 10.033,-3.39372 15.24705,-3.39372 5.20348,0 10.48103,1.17122 15.15887,3.35492 3.01977,1.35114 6.31119,2.06727 9.51794,2.06727 3.24555,0 6.44172,-0.6985 9.41211,-2.02847 4.78013,-2.2225 10.05769,-3.39372 15.26116,-3.39372 5.19995,0 10.47045,1.17122 15.15886,3.35492 1.13595,0.508 2.34245,0.83961 3.54542,1.16416 18.94417,-4.93536 52.40161,-14.50622 61.43978,-22.606 2.65289,-2.38477 3.16441,-6.36058 -0.33514,-8.08919"
     style="fill:#ffffff;fill-opacity:1;fill-rule:nonzero;stroke:none"
     id="path11016"
     inkscape:connector-curvature="0" />
  <path
     d="m 27.771,209.46337 c 4.321528,0 8.459611,-0.98072 12.167305,-2.63878 3.774723,-1.75683 8.053917,-2.79047 12.520084,-2.79047 4.452055,0 8.710083,1.03364 12.505972,2.79047 3.700638,1.65806 7.842249,2.63878 12.160249,2.63878 4.321528,0 8.449028,-0.98072 12.170834,-2.63878 3.767666,-1.75683 8.04686,-2.79047 12.502446,-2.79047 4.43794,0 8.73125,1.03364 12.52008,2.79047 3.69358,1.65806 7.83519,2.63878 12.15672,2.63878 4.318,0 8.45255,-0.98072 12.14614,-2.63878 3.79589,-1.75683 8.06802,-2.79047 12.52714,-2.79047 4.44147,0 8.72066,1.03364 12.51302,2.79047 3.69006,1.65806 7.84578,2.63878 12.16731,2.63878 4.2933,0 8.43844,-0.98072 12.13203,-2.63878 3.79588,-1.75683 8.06802,-2.79047 12.53419,-2.79047 4.445,0 8.71714,1.03364 12.51303,2.79047 3.69358,1.65806 7.84578,2.63878 12.1673,2.63878 l 0,-18.2245 c -4.32152,0 -8.47372,-0.97366 -12.1673,-2.62819 -3.79589,-1.76389 -8.06803,-2.79047 -12.51303,-2.79047 -4.46617,0 -8.73831,1.02658 -12.53419,2.79047 -3.69359,1.65453 -7.83873,2.62819 -12.13203,2.62819 -4.32153,0 -8.47725,-0.97366 -12.16731,-2.62819 -3.79236,-1.76389 -8.07155,-2.79047 -12.51302,-2.79047 -4.45912,0 -8.73125,1.02658 -12.52714,2.79047 -3.69359,1.65453 -7.82814,2.62819 -12.14614,2.62819 -4.32153,0 -8.46314,-0.97366 -12.15672,-2.62819 -3.78883,-1.76389 -8.08214,-2.79047 -12.52008,-2.79047 -4.455586,0 -8.73478,1.02658 -12.502446,2.79047 -3.721806,1.65453 -7.849306,2.62819 -12.170834,2.62819 -4.318,0 -8.459611,-0.97366 -12.160249,-2.62819 -3.795889,-1.76389 -8.053917,-2.79047 -12.505972,-2.79047 -4.466167,0 -8.745361,1.02658 -12.520084,2.79047 -3.707694,1.65453 -7.845777,2.62819 -12.167305,2.62819 l 0,18.2245 z"
     style="fill:#ffffff;fill-opacity:1;fill-rule:nonzero;stroke:none"
     id="path11020"
     inkscape:connector-curvature="0" />
</svg>
