<?xml version="1.0" encoding="UTF-8" standalone="no"?>
<svg
   xmlns:dc="http://purl.org/dc/elements/1.1/"
   xmlns:cc="http://creativecommons.org/ns#"
   xmlns:rdf="http://www.w3.org/1999/02/22-rdf-syntax-ns#"
   xmlns:svg="http://www.w3.org/2000/svg"
   xmlns="http://www.w3.org/2000/svg"
   xmlns:sodipodi="http://sodipodi.sourceforge.net/DTD/sodipodi-0.dtd"
   xmlns:inkscape="http://www.inkscape.org/namespaces/inkscape"
   width="90.597931"
   height="90.597931"
   viewBox="0 0 255.68748 255.68749"
   version="1.1"
   id="svg2"
   inkscape:version="0.48.2 r9819"
   sodipodi:docname="MUTCD RS-114.svg">
  <metadata
     id="metadata62">
    <rdf:RDF>
      <cc:Work
         rdf:about="">
        <dc:format>image/svg+xml</dc:format>
        <dc:type
           rdf:resource="http://purl.org/dc/dcmitype/StillImage" />
        <dc:title></dc:title>
      </cc:Work>
    </rdf:RDF>
  </metadata>
  <defs
     id="defs60">
    <clipPath
       clipPathUnits="userSpaceOnUse"
       id="clipPath3564">
      <path
         inkscape:connector-curvature="0"
         d="m 63,43 512.622,0 0,313.129 L 63,356.129 63,43 z"
         id="path3566" />
    </clipPath>
  </defs>
  <sodipodi:namedview
     pagecolor="#ffffff"
     bordercolor="#666666"
     borderopacity="1"
     objecttolerance="10"
     gridtolerance="10"
     guidetolerance="10"
     inkscape:pageopacity="0"
     inkscape:pageshadow="2"
     inkscape:window-width="1280"
     inkscape:window-height="1004"
     id="namedview58"
     showgrid="false"
     fit-margin-top="0"
     fit-margin-left="0"
     fit-margin-right="0"
     fit-margin-bottom="0"
     inkscape:zoom="4.8826954"
     inkscape:cx="83.159137"
     inkscape:cy="40.717393"
     inkscape:window-x="-8"
     inkscape:window-y="-8"
     inkscape:window-maximized="1"
     inkscape:current-layer="svg2"
     showguides="true"
     inkscape:guide-bbox="true" />
  <polygon
     points="315,545 235,375 315,205 395,375 "
     id="polygon10"
     style="fill:none;stroke:#ffffff;stroke-width:40"
     transform="translate(17744.427,14390.473)" />
  <!-- draw the bicycle -->
  <!-- RIGHT -->
  <!-- LANE -->
  <!-- ONLY -->
  <path
     inkscape:connector-curvature="0"
     d="m 22.004643,254.8459 211.663127,0 c 5.57392,0 11.02432,-2.2577 14.97189,-6.2088 3.94053,-3.937 6.1948,-9.3839 6.1948,-14.9578 l 0,-211.6632 c 0,-5.5738 -2.25426,-11.0207 -6.1948,-14.9718 -3.94757,-3.937 -9.39797,-6.1948 -14.97189,-6.1948 l -211.663127,0 c -5.57036,0 -11.02077,2.2578 -14.9577696,6.1948 -3.94759,3.9511 -6.20888999,9.398 -6.20888999,14.9718 l 0,211.6632 c 0,7.2566 3.85232999,14.1111 9.96243959,18.0058 3.48545,2.2154 7.16845,2.7375 11.20422,3.1608"
     style="fill:#ffffff;fill-opacity:1;fill-rule:nonzero;stroke:#000000;stroke-width:1.69333339;stroke-miterlimit:4;stroke-opacity:1;stroke-dasharray:none"
     id="path3026" />
  <path
     inkscape:connector-curvature="0"
     d="m 22.004643,249.5543 c -3.15383,0 -5.80672,-0.7091 -8.36083,-2.3284 -4.6249196,-2.9421 -7.5141696,-8.1385 -7.5141696,-13.5466 l 0,-211.6632 c 0,-4.1733 1.69334,-8.2691 4.6566696,-11.2324 2.94217,-2.9422 7.0485,-4.6426 11.21833,-4.6426 l 211.663127,0 c 4.18397,0 8.29028,1.6898 11.23245,4.6426 2.95277,2.9422 4.64255,7.0485 4.64255,11.2324 l 0,211.6632 c 0,4.1698 -1.70035,8.2761 -4.64255,11.2183 -2.96333,2.9633 -7.05555,4.6567 -11.23245,4.6567 l -211.663127,0 z"
     style="fill:#713907;fill-opacity:1;fill-rule:evenodd;stroke:none"
     id="path3050" />
  <path
     d="m 94.03291,48.550493 c 0,-9.186333 7.44714,-16.640527 16.637,-16.640527 9.19339,0 16.64758,7.454194 16.64758,16.640527 0,9.189861 -7.45419,16.644055 -16.64758,16.644055 -9.18986,0 -16.637,-7.454194 -16.637,-16.644055"
     style="fill:#ffffff;fill-opacity:1;fill-rule:nonzero;stroke:none"
     id="path8346"
     inkscape:connector-curvature="0" />
  <path
     d="m 114.50849,69.438465 -41.560754,0 c -10.004778,-0.02822 -10.004778,13.021027 0,13.021027 l 41.560754,0 c 10.01183,0.03528 10.01183,-13.021027 0,-13.021027"
     style="fill:#ffffff;fill-opacity:1;fill-rule:nonzero;stroke:none"
     id="path8350"
     inkscape:connector-curvature="0" />
  <path
     d="m 193.6503,75.880187 c 0,-18.450278 -6.64986,-36.089166 -18.66547,-49.970971 0.0353,-0.02822 -3.05858,-3.340806 -3.05858,-3.340806 l -46.88065,46.870055 -0.77258,0.783166 c 0.1517,0.186973 0.32456,0.352778 0.44097,0.567973 0.74436,1.294694 1.11478,2.705805 1.23825,4.145139 0.0564,0.592666 0.0423,1.192388 -0.0141,1.785055 -0.1023,1.248833 -0.36336,2.472972 -0.89958,3.626556 l -0.0423,0.102305 c -0.10936,0.232833 -0.16581,0.490361 -0.28928,0.709083 -0.0917,0.15875 -0.2293,0.261056 -0.32455,0.41275 -2.05317,3.150306 -5.588,4.981223 -9.87425,4.967111 l -22.845893,0 -0.0071,61.076417 c 0,0.0494 0.02822,0.1023 0.02822,0.15169 L 78.80345,212.56746 c -1.005416,5.05884 2.275417,9.96245 7.323667,10.96786 5.058833,1.00895 9.965972,-2.27189 10.978444,-7.33777 l 13.359699,-67.23945 0,-0.0212 6.08188,0 0,0.0212 13.3597,67.23945 c 1.00894,5.06588 5.91255,8.34672 10.97844,7.33777 5.04825,-1.00541 8.32909,-5.90902 7.32367,-10.96786 l -12.99633,-65.40852 0.0212,-54.744059 36.71005,36.713579 c 0,0 3.10798,-3.302 3.08681,-3.32316 11.99092,-13.89592 18.61961,-31.513641 18.61961,-49.925113 m -77.089,72.940333 -0.0282,-0.56445 c 0,0.0811 0.0494,0.1517 0.0494,0.23284 l -0.0212,0.33161 z m 68.57298,-66.361028 c -1.33702,13.828889 -6.858,26.892248 -15.88911,37.560248 -8.32908,-8.33261 -23.73136,-23.724303 -34.00425,-33.997192 l 0,-3.563056 49.89336,0 z m 0.007,-13.021027 -53.68925,0 c 9.83897,-9.8425 28.31747,-28.317472 37.75781,-37.754277 9.08755,10.699749 14.61558,23.837194 15.93144,37.754277"
     style="fill:#ffffff;fill-opacity:1;fill-rule:nonzero;stroke:none"
     id="path8354"
     inkscape:connector-curvature="0" />
</svg>
