<?xml version="1.0" encoding="UTF-8" standalone="no"?>
<svg
   xmlns:dc="http://purl.org/dc/elements/1.1/"
   xmlns:cc="http://creativecommons.org/ns#"
   xmlns:rdf="http://www.w3.org/1999/02/22-rdf-syntax-ns#"
   xmlns:svg="http://www.w3.org/2000/svg"
   xmlns="http://www.w3.org/2000/svg"
   xmlns:sodipodi="http://sodipodi.sourceforge.net/DTD/sodipodi-0.dtd"
   xmlns:inkscape="http://www.inkscape.org/namespaces/inkscape"
   width="90.597931"
   height="90.597931"
   viewBox="0 0 255.68748 255.68749"
   version="1.1"
   id="svg2"
   inkscape:version="0.48.2 r9819"
   sodipodi:docname="MUTCD RS-107.svg">
  <metadata
     id="metadata62">
    <rdf:RDF>
      <cc:Work
         rdf:about="">
        <dc:format>image/svg+xml</dc:format>
        <dc:type
           rdf:resource="http://purl.org/dc/dcmitype/StillImage" />
        <dc:title></dc:title>
      </cc:Work>
    </rdf:RDF>
  </metadata>
  <defs
     id="defs60">
    <clipPath
       clipPathUnits="userSpaceOnUse"
       id="clipPath3564">
      <path
         inkscape:connector-curvature="0"
         d="m 63,43 512.622,0 0,313.129 L 63,356.129 63,43 z"
         id="path3566" />
    </clipPath>
  </defs>
  <sodipodi:namedview
     pagecolor="#ffffff"
     bordercolor="#666666"
     borderopacity="1"
     objecttolerance="10"
     gridtolerance="10"
     guidetolerance="10"
     inkscape:pageopacity="0"
     inkscape:pageshadow="2"
     inkscape:window-width="1280"
     inkscape:window-height="1004"
     id="namedview58"
     showgrid="false"
     fit-margin-top="0"
     fit-margin-left="0"
     fit-margin-right="0"
     fit-margin-bottom="0"
     inkscape:zoom="4.8826954"
     inkscape:cx="83.159137"
     inkscape:cy="32.525196"
     inkscape:window-x="-8"
     inkscape:window-y="-8"
     inkscape:window-maximized="1"
     inkscape:current-layer="svg2"
     showguides="true"
     inkscape:guide-bbox="true" />
  <polygon
     points="315,545 235,375 315,205 395,375 "
     id="polygon10"
     style="fill:none;stroke:#ffffff;stroke-width:40"
     transform="translate(17744.427,14390.473)" />
  <!-- draw the bicycle -->
  <!-- RIGHT -->
  <!-- LANE -->
  <!-- ONLY -->
  <path
     inkscape:connector-curvature="0"
     d="m 22.004643,254.8459 211.663127,0 c 5.57392,0 11.02432,-2.2577 14.97189,-6.2088 3.94053,-3.937 6.1948,-9.3839 6.1948,-14.9578 l 0,-211.6632 c 0,-5.5738 -2.25426,-11.0207 -6.1948,-14.9718 -3.94757,-3.937 -9.39797,-6.1948 -14.97189,-6.1948 l -211.663127,0 c -5.57036,0 -11.02077,2.2578 -14.9577696,6.1948 -3.94759,3.9511 -6.20888999,9.398 -6.20888999,14.9718 l 0,211.6632 c 0,7.2566 3.85232999,14.1111 9.96243959,18.0058 3.48545,2.2154 7.16845,2.7375 11.20422,3.1608"
     style="fill:#ffffff;fill-opacity:1;fill-rule:nonzero;stroke:#000000;stroke-width:1.69333339;stroke-miterlimit:4;stroke-opacity:1;stroke-dasharray:none"
     id="path3026" />
  <path
     inkscape:connector-curvature="0"
     d="m 22.004643,249.5543 c -3.15383,0 -5.80672,-0.7091 -8.36083,-2.3284 -4.6249196,-2.9421 -7.5141696,-8.1385 -7.5141696,-13.5466 l 0,-211.6632 c 0,-4.1733 1.69334,-8.2691 4.6566696,-11.2324 2.94217,-2.9422 7.0485,-4.6426 11.21833,-4.6426 l 211.663127,0 c 4.18397,0 8.29028,1.6898 11.23245,4.6426 2.95277,2.9422 4.64255,7.0485 4.64255,11.2324 l 0,211.6632 c 0,4.1698 -1.70035,8.2761 -4.64255,11.2183 -2.96333,2.9633 -7.05555,4.6567 -11.23245,4.6567 l -211.663127,0 z"
     style="fill:#713907;fill-opacity:1;fill-rule:evenodd;stroke:none"
     id="path3050" />
  <path
     d="m 227.12539,227.34885 c -4.30388,0 -8.45961,-0.97367 -12.14613,-2.62114 -3.78178,-1.77095 -8.06098,-2.80459 -12.51303,-2.80459 -4.45206,0 -8.71714,1.03364 -12.50597,2.80459 -3.69359,1.64747 -7.8352,2.62114 -12.1532,2.62114 -4.31447,0 -8.44903,-0.97367 -12.13555,-2.62114 -3.80295,-1.77095 -8.06803,-2.80459 -12.52361,-2.80459 -4.445,0 -8.71009,1.03364 -12.49892,2.80459 -3.70064,1.64747 -7.84225,2.62114 -12.15672,2.62114 -4.31095,0 -8.4455,-0.97367 -12.13909,-2.62114 -3.80294,-1.77095 -8.06097,-2.80459 -12.51302,-2.80459 -4.452059,0 -8.717143,1.03364 -12.505976,2.80459 -3.700639,1.64747 -7.838722,2.62114 -12.153194,2.62114 -4.321528,0 -8.441972,-0.97367 -12.153194,-2.62114 -3.785306,-1.77095 -8.057445,-2.80459 -12.498917,-2.80459 -4.459111,0 -8.717139,1.03364 -12.498916,2.80459 -3.707694,1.64747 -7.849305,2.62114 -12.163778,2.62114 l 0,-18.20686 c 4.314473,0 8.456084,-0.97014 12.163778,-2.63173 3.781777,-1.75683 8.039805,-2.78341 12.498916,-2.78341 4.441472,0 8.713611,1.02658 12.498917,2.78341 3.711222,1.66159 7.831666,2.63173 12.153194,2.63173 4.314472,0 8.452555,-0.97014 12.153194,-2.63173 3.788833,-1.75683 8.053917,-2.78341 12.505976,-2.78341 4.45205,0 8.71008,1.02658 12.51302,2.78341 3.69359,1.66159 7.82814,2.63173 12.13909,2.63173 4.31447,0 8.45608,-0.97014 12.15672,-2.63173 3.78883,-1.75683 8.05392,-2.78341 12.49892,-2.78341 4.45558,0 8.72066,1.02658 12.52361,2.78341 3.68652,1.66159 7.82108,2.63173 12.13555,2.63173 4.318,0 8.45961,-0.97014 12.1532,-2.63173 3.78883,-1.75683 8.05391,-2.78341 12.50597,-2.78341 4.45205,0 8.73125,1.02658 12.51303,2.78341 3.68652,1.66159 7.84225,2.63173 12.14613,2.63173 l 0,18.20686 z"
     style="fill:#ffffff;fill-opacity:1;fill-rule:nonzero;stroke:none"
     id="path10788"
     inkscape:connector-curvature="0" />
  <path
     d="m 51.046952,126.98357 c 6.600473,0 11.941528,-5.34458 11.941528,-11.93799 0,-6.59695 -5.341055,-11.94859 -11.941528,-11.94859 -6.593416,0 -11.941527,5.35164 -11.941527,11.94859 0,6.59341 5.348111,11.93799 11.941527,11.93799"
     style="fill:#ffffff;fill-opacity:1;fill-rule:nonzero;stroke:none"
     id="path10792"
     inkscape:connector-curvature="0" />
  <path
     d="m 103.56498,181.15613 -34.187694,-0.0212 c -5.044723,0 -9.394473,-2.99156 -11.370028,-7.28839 L 45.363703,145.00346 c -0.239889,-0.96661 -0.373945,-1.97908 -0.373945,-3.01272 0,-6.91092 5.595056,-12.50597 12.505972,-12.50597 l 27.774194,-0.06 19.053526,-8.60777 c 0.27517,-0.21872 1.0795,-0.39158 1.90147,-0.39158 3.27378,0 5.93725,2.65994 5.93725,5.93371 0,2.01789 -1.01247,3.80295 -2.54,4.87539 l -20.72569,9.34511 c -1.379361,1.09361 -3.975806,1.25236 -3.975806,1.25236 l -12.484805,0 10.484555,23.21983 23.103416,0 c 2.26131,-0.007 3.88056,0.76553 5.26345,2.02142 l 22.63422,21.47358 c 3.17147,2.95628 3.35844,7.93397 0.39511,11.10192 -2.95628,3.175 -7.93045,3.34786 -11.10192,0.39158 l -19.64972,-18.88419 z"
     style="fill:#ffffff;fill-opacity:1;fill-rule:nonzero;stroke:none"
     id="path10796"
     inkscape:connector-curvature="0" />
  <path
     d="M 219.90403,145.78663 147.56695,191.43607 81.703341,23.228105 C 140.62781,31.042132 215.57192,76.790354 219.90403,145.78663 m -9.83191,-3.69006 c 0.44802,0.76906 1.50989,1.02658 2.4765,1.02658 1.92616,0 3.49955,-1.56633 3.49955,-3.51014 0,-0.96308 -0.44097,-1.76388 -0.85372,-2.55411 -21.38186,-40.749352 -79.05397,-28.63496 -86.13069,-25.98207 -1.17828,0.43391 -1.85914,1.74977 -1.85914,3.0868 0,1.93322 1.5628,3.49956 3.49955,3.49956 0.56445,0 0.86784,-0.0776 1.38642,-0.18698 56.56086,-12.72469 74.97939,19.49097 77.98153,24.62036"
     style="fill:#ffffff;fill-opacity:1;fill-rule:nonzero;stroke:none"
     id="path10800"
     inkscape:connector-curvature="0" />
</svg>
