<?xml version="1.0" encoding="UTF-8" standalone="no"?>
<svg
   xmlns:dc="http://purl.org/dc/elements/1.1/"
   xmlns:cc="http://creativecommons.org/ns#"
   xmlns:rdf="http://www.w3.org/1999/02/22-rdf-syntax-ns#"
   xmlns:svg="http://www.w3.org/2000/svg"
   xmlns="http://www.w3.org/2000/svg"
   xmlns:sodipodi="http://sodipodi.sourceforge.net/DTD/sodipodi-0.dtd"
   xmlns:inkscape="http://www.inkscape.org/namespaces/inkscape"
   width="90.597931"
   height="90.597931"
   viewBox="0 0 255.68748 255.68749"
   version="1.1"
   id="svg2"
   inkscape:version="0.48.2 r9819"
   sodipodi:docname="MUTCD RS-099.svg">
  <metadata
     id="metadata62">
    <rdf:RDF>
      <cc:Work
         rdf:about="">
        <dc:format>image/svg+xml</dc:format>
        <dc:type
           rdf:resource="http://purl.org/dc/dcmitype/StillImage" />
        <dc:title></dc:title>
      </cc:Work>
    </rdf:RDF>
  </metadata>
  <defs
     id="defs60">
    <clipPath
       clipPathUnits="userSpaceOnUse"
       id="clipPath3564">
      <path
         inkscape:connector-curvature="0"
         d="m 63,43 512.622,0 0,313.129 L 63,356.129 63,43 z"
         id="path3566" />
    </clipPath>
  </defs>
  <sodipodi:namedview
     pagecolor="#ffffff"
     bordercolor="#666666"
     borderopacity="1"
     objecttolerance="10"
     gridtolerance="10"
     guidetolerance="10"
     inkscape:pageopacity="0"
     inkscape:pageshadow="2"
     inkscape:window-width="1280"
     inkscape:window-height="1004"
     id="namedview58"
     showgrid="false"
     fit-margin-top="0"
     fit-margin-left="0"
     fit-margin-right="0"
     fit-margin-bottom="0"
     inkscape:zoom="4"
     inkscape:cx="48.704041"
     inkscape:cy="45.520564"
     inkscape:window-x="-8"
     inkscape:window-y="-8"
     inkscape:window-maximized="1"
     inkscape:current-layer="svg2"
     showguides="true"
     inkscape:guide-bbox="true" />
  <polygon
     points="235,375 315,205 395,375 315,545 "
     id="polygon10"
     style="fill:none;stroke:#ffffff;stroke-width:40"
     transform="translate(17618.396,14343.442)" />
  <!-- draw the bicycle -->
  <!-- RIGHT -->
  <!-- LANE -->
  <!-- ONLY -->
  <path
     inkscape:connector-curvature="0"
     d="m 22.008538,254.83715 211.663112,0 c 5.57389,0 11.02432,-2.2578 14.97188,-6.2089 3.94054,-3.937 6.19479,-9.3839 6.19479,-14.9578 l 0,-211.6667 c 0,-5.5738 -2.25425,-11.0207 -6.19479,-14.9718 -3.94756,-3.937 -9.39799,-6.1948 -14.97188,-6.1948 l -211.663112,0 c -5.57036,0 -11.02078,2.2578 -14.9577796,6.1948 -3.94758,3.9511 -6.20888999,9.398 -6.20888999,14.9718 l 0,211.6667 c 0,7.2531 3.85232999,14.1111 9.96244959,18.0058 3.48897,2.2154 7.16844,2.734 11.20422,3.1609"
     style="fill:#ffffff;fill-opacity:1;fill-rule:nonzero;stroke:#000000;stroke-width:1.69333331;stroke-miterlimit:4;stroke-opacity:1;stroke-dasharray:none"
     id="path3060" />
  <path
     inkscape:connector-curvature="0"
     d="m 22.008538,249.54545 c -3.15384,0 -5.80672,-0.7126 -8.36084,-2.3319 -4.6249096,-2.9421 -7.5141596,-8.135 -7.5141596,-13.5431 l 0,-211.6667 c 0,-4.1698 1.69333,-8.2655 4.6566596,-11.2289 2.94217,-2.9421 7.0485,-4.6461 11.21834,-4.6461 l 211.663112,0 c 4.18394,0 8.29028,1.6934 11.23244,4.6461 2.95628,2.9422 4.64256,7.0485 4.64256,11.2289 l 0,211.6667 c 0,4.1663 -1.70038,8.2726 -4.64256,11.2148 -2.96333,2.9669 -7.05554,4.6602 -11.23244,4.6602 l -211.663112,0 z"
     style="fill:#713907;fill-opacity:1;fill-rule:evenodd;stroke:none"
     id="path3084" />
  <path
     d="m 163.80212,39.046646 c -1.74272,-0.254 -3.07975,-1.756834 -3.07975,-3.566583 0,-1.337028 0.75142,-2.501195 1.8415,-3.122084 -1.11125,-0.620889 -1.8415,-1.799166 -1.8415,-3.157361 0,-1.989666 1.61219,-3.601861 3.60539,-3.601861 l 18.00225,0 c 1.98614,0 3.60539,1.612195 3.60539,3.601861 0,1.393472 -0.76553,2.557639 -1.92264,3.157361 1.12889,0.606778 1.92264,1.749778 1.92264,3.122084 0,1.809749 -1.33703,3.312583 -3.0727,3.566583 l 21.81931,59.030304 c 1.34408,3.83117 2.02494,8.10331 2.02494,12.36133 l 0,104.648 c 0,3.94053 -3.19616,7.12259 -7.12964,7.12259 l -52.49685,0 c -3.94053,0 -7.13317,-3.18206 -7.13317,-7.12259 l 0,-104.648 c 0,-4.25802 0.67733,-8.53016 2.02847,-12.36133 l 21.82636,-59.030304 z"
     style="fill:#ffffff;fill-opacity:1;fill-rule:nonzero;stroke:none"
     id="path3718"
     inkscape:connector-curvature="0" />
  <path
     d="m 73.243717,99.770284 c 0.250472,0.585616 0.381,1.227666 0.381,1.901476 0,2.69522 -2.176639,4.87891 -4.871861,4.87891 -1.012473,0 -1.950862,-0.3175 -2.7305,-0.83961 L 54.186661,95.910895 c -1.280583,-1.506361 -2.060222,-3.464278 -2.060222,-5.591528 0,-4.769555 3.866444,-8.628944 8.625416,-8.628944 3.570112,0 6.642806,2.169583 7.944556,5.263444 l 4.547306,12.816417 z M 63.454133,98.4897 c 0.469195,0.419806 1.083028,0.673806 1.756834,0.673806 1.453444,0 2.631722,-1.171222 2.631722,-2.617611 0,-0.469195 -0.123472,-0.903111 -0.338667,-1.280584 l -2.956278,-6.868583 c -0.702027,-1.386416 -2.134305,-2.335389 -3.795889,-2.335389 -2.342444,0 -4.250972,1.908528 -4.250972,4.258028 0,1.121833 0.440972,2.148417 1.157111,2.913945 l 5.796139,5.256388 z"
     style="fill:#ffffff;fill-opacity:1;fill-rule:nonzero;stroke:none"
     id="path3722"
     inkscape:connector-curvature="0" />
  <path
     d="m 111.19555,108.44509 c 1.43228,0 2.58939,1.15711 2.58939,2.58586 l 0,4.04283 c 0,1.42523 -1.15711,2.58586 -2.58939,2.58586 l -2.39889,-0.10583 c 2.89631,1.83445 4.98828,4.96711 4.98828,8.64659 l 0.0282,87.97572 c 0,4.49086 -3.63009,8.12447 -8.12095,8.12447 l -46.661912,0 c -4.487332,0 -8.12447,-3.63361 -8.12447,-8.12447 l 0.03528,-87.97572 c 0,-3.67948 2.088445,-6.81214 4.988278,-8.64659 l -2.405944,0.10583 c -1.425223,0 -2.582334,-1.16063 -2.582334,-2.58586 l 0,-4.04283 c 0,-1.42875 1.157111,-2.58586 2.582334,-2.58586 l 57.672111,0 z"
     style="fill:#ffffff;fill-opacity:1;fill-rule:nonzero;stroke:none"
     id="path3726"
     inkscape:connector-curvature="0" />
</svg>
