<?xml version="1.0" encoding="UTF-8" standalone="no"?>
<svg
   xmlns:dc="http://purl.org/dc/elements/1.1/"
   xmlns:cc="http://creativecommons.org/ns#"
   xmlns:rdf="http://www.w3.org/1999/02/22-rdf-syntax-ns#"
   xmlns:svg="http://www.w3.org/2000/svg"
   xmlns="http://www.w3.org/2000/svg"
   xmlns:sodipodi="http://sodipodi.sourceforge.net/DTD/sodipodi-0.dtd"
   xmlns:inkscape="http://www.inkscape.org/namespaces/inkscape"
   width="90.597931"
   height="90.597931"
   viewBox="0 0 255.68748 255.68749"
   version="1.1"
   id="svg2"
   inkscape:version="0.48.2 r9819"
   sodipodi:docname="MUTCD RS-040.svg">
  <metadata
     id="metadata62">
    <rdf:RDF>
      <cc:Work
         rdf:about="">
        <dc:format>image/svg+xml</dc:format>
        <dc:type
           rdf:resource="http://purl.org/dc/dcmitype/StillImage" />
        <dc:title></dc:title>
      </cc:Work>
    </rdf:RDF>
  </metadata>
  <defs
     id="defs60">
    <clipPath
       clipPathUnits="userSpaceOnUse"
       id="clipPath3564">
      <path
         inkscape:connector-curvature="0"
         d="m 63,43 512.622,0 0,313.129 L 63,356.129 63,43 z"
         id="path3566" />
    </clipPath>
  </defs>
  <sodipodi:namedview
     pagecolor="#ffffff"
     bordercolor="#666666"
     borderopacity="1"
     objecttolerance="10"
     gridtolerance="10"
     guidetolerance="10"
     inkscape:pageopacity="0"
     inkscape:pageshadow="2"
     inkscape:window-width="1280"
     inkscape:window-height="1004"
     id="namedview58"
     showgrid="false"
     fit-margin-top="0"
     fit-margin-left="0"
     fit-margin-right="0"
     fit-margin-bottom="0"
     inkscape:zoom="4.8826954"
     inkscape:cx="83.159137"
     inkscape:cy="32.525196"
     inkscape:window-x="-8"
     inkscape:window-y="-8"
     inkscape:window-maximized="1"
     inkscape:current-layer="svg2"
     showguides="true"
     inkscape:guide-bbox="true" />
  <polygon
     points="315,545 235,375 315,205 395,375 "
     id="polygon10"
     style="fill:none;stroke:#ffffff;stroke-width:40"
     transform="translate(17744.427,14390.473)" />
  <!-- draw the bicycle -->
  <!-- RIGHT -->
  <!-- LANE -->
  <!-- ONLY -->
  <path
     inkscape:connector-curvature="0"
     d="m 22.004643,254.8459 211.663127,0 c 5.57392,0 11.02432,-2.2577 14.97189,-6.2088 3.94053,-3.937 6.1948,-9.3839 6.1948,-14.9578 l 0,-211.6632 c 0,-5.5738 -2.25426,-11.0207 -6.1948,-14.9718 -3.94757,-3.937 -9.39797,-6.1948 -14.97189,-6.1948 l -211.663127,0 c -5.57036,0 -11.02077,2.2578 -14.9577696,6.1948 -3.94759,3.9511 -6.20888999,9.398 -6.20888999,14.9718 l 0,211.6632 c 0,7.2566 3.85232999,14.1111 9.96243959,18.0058 3.48545,2.2154 7.16845,2.7375 11.20422,3.1608"
     style="fill:#ffffff;fill-opacity:1;fill-rule:nonzero;stroke:#000000;stroke-width:1.69333339;stroke-miterlimit:4;stroke-opacity:1;stroke-dasharray:none"
     id="path3026" />
  <path
     inkscape:connector-curvature="0"
     d="m 22.004643,249.5543 c -3.15383,0 -5.80672,-0.7091 -8.36083,-2.3284 -4.6249196,-2.9421 -7.5141696,-8.1385 -7.5141696,-13.5466 l 0,-211.6632 c 0,-4.1733 1.69334,-8.2691 4.6566696,-11.2324 2.94217,-2.9422 7.0485,-4.6426 11.21833,-4.6426 l 211.663127,0 c 4.18397,0 8.29028,1.6898 11.23245,4.6426 2.95277,2.9422 4.64255,7.0485 4.64255,11.2324 l 0,211.6632 c 0,4.1698 -1.70035,8.2761 -4.64255,11.2183 -2.96333,2.9633 -7.05555,4.6567 -11.23245,4.6567 l -211.663127,0 z"
     style="fill:#713907;fill-opacity:1;fill-rule:evenodd;stroke:none"
     id="path3050" />
  <path
     d="m 168.05983,61.401849 c 1.64747,0 3.11502,0.744361 4.09927,1.908528 l 15.13064,21.801666 c 0.37395,0.500945 0.58561,1.114778 0.58561,1.785056 0,1.651 -1.34055,3.002139 -2.99508,3.002139 l -23.58672,-0.02117 c -8.97114,0 -16.24542,7.27075 -16.24542,16.248942 l -0.0141,26.416 -121.577801,0 0,-54.54297 c -10e-6,3e-6 -1.005427,-16.626413 16.121935,-16.626413 l 128.481666,0.02822 z m 5.30577,21.533555 c 0.87489,0 1.59103,-0.712611 1.59103,-1.605138 0,-0.345723 -0.11641,-0.670278 -0.31044,-0.938389 L 166.69458,68.94071 c -0.29986,-0.352778 -0.75495,-0.578556 -1.26647,-0.578556 l -17.54364,0 c -1.57692,0 -2.8575,1.273528 -2.8575,2.843389 l 0.007,8.875889 c 0,1.576917 1.28059,2.839861 2.8575,2.839861 l 25.47408,0.01411 z m -72.15363,29.047726 c 1.9438,0 3.52072,-1.57692 3.52072,-3.52073 l 0.0423,-21.93219 c 0,-1.943806 -1.58045,-3.513667 -3.52072,-3.513667 l -50.355502,0 c -1.943805,0 -3.520722,1.569861 -3.520722,3.513667 l -0.04233,21.93219 c 0,1.94381 1.580444,3.52073 3.52425,3.52073 l 50.351974,0 z"
     style="fill:#ffffff;fill-opacity:1;fill-rule:nonzero;stroke:none"
     id="path3170"
     inkscape:connector-curvature="0" />
  <path
     d="m 233.46835,152.15393 0.007,-11.46528 c 0,-4.60375 -2.92806,-8.51605 -7.01322,-9.99066 l -9.91653,-3.35845 -19.80141,-28.599691 c -0.98425,-1.157111 -2.45181,-1.901473 -4.09222,-1.901473 l -31.35842,0 c -5.10469,0 -9.25336,4.141614 -9.25336,9.239254 l 0.0423,33.46097 -128.668634,0 0,24.16881 c 0,3.51366 2.853972,6.37469 6.374694,6.37469 l 19.459222,0 c 0.941917,-14.12522 12.573,-25.31534 26.931055,-25.31534 14.361584,0 25.989143,11.19012 26.941643,25.31534 l 68.10374,0 c 1.03364,-14.02997 12.62239,-25.13542 26.92048,-25.13542 14.29455,0 25.8833,11.10545 26.91694,25.13542 l 8.17386,0 c 3.52072,0 6.37117,-2.86103 6.37117,-6.37469 l 0.007,-11.55348 -6.14539,0 z m -29.22058,-18.58433 -33.59503,-0.0494 c -2.96333,0 -5.37633,-2.40947 -5.37633,-5.37986 l -0.0141,-17.31434 c 0,-2.97039 2.40594,-5.37633 5.37633,-5.37633 l 18.2245,0 c 0.95603,0 1.80975,0.43392 2.38125,1.10419 l 15.41639,22.23559 c 0.36336,0.48683 0.59267,1.11478 0.59267,1.77094 0,1.65806 -1.34409,3.0092 -3.00567,3.0092"
     style="fill:#ffffff;fill-opacity:1;fill-rule:nonzero;stroke:none"
     id="path3174"
     inkscape:connector-curvature="0" />
  <path
     d="m 177.5813,172.22346 c 0,-11.30653 9.17222,-20.47875 20.4858,-20.47875 11.30653,0 20.48581,9.17222 20.48581,20.47875 0,11.32064 -9.17928,20.49286 -20.48581,20.49286 -11.31358,0 -20.4858,-9.17222 -20.4858,-20.49286 m 20.4858,8.87589 c 4.90009,0 8.88295,-3.95464 8.88295,-8.87589 0,-4.90008 -3.98286,-8.87236 -8.88295,-8.87236 -4.90008,0 -8.88294,3.97228 -8.88294,8.87236 0,4.92125 3.98286,8.87589 8.88294,8.87589"
     style="fill:#ffffff;fill-opacity:1;fill-rule:nonzero;stroke:none"
     id="path3178"
     inkscape:connector-curvature="0" />
  <path
     d="m 55.703636,171.88479 c 0,-11.30653 9.161638,-20.47522 20.475221,-20.47522 11.313584,0 20.485806,9.16869 20.485806,20.47522 0,11.31359 -9.172222,20.49287 -20.485806,20.49287 -11.313583,0 -20.475221,-9.17928 -20.475221,-20.49287 m 20.475221,8.88295 c 4.907139,0 8.882945,-3.97581 8.882945,-8.88295 0,-4.89655 -3.975806,-8.87236 -8.882945,-8.87236 -4.903611,0 -8.872361,3.97581 -8.872361,8.87236 0,4.90714 3.96875,8.88295 8.872361,8.88295"
     style="fill:#ffffff;fill-opacity:1;fill-rule:nonzero;stroke:none"
     id="path3182"
     inkscape:connector-curvature="0" />
</svg>
