<?xml version="1.0" encoding="UTF-8" standalone="no"?>
<svg
   xmlns:dc="http://purl.org/dc/elements/1.1/"
   xmlns:cc="http://creativecommons.org/ns#"
   xmlns:rdf="http://www.w3.org/1999/02/22-rdf-syntax-ns#"
   xmlns:svg="http://www.w3.org/2000/svg"
   xmlns="http://www.w3.org/2000/svg"
   xmlns:sodipodi="http://sodipodi.sourceforge.net/DTD/sodipodi-0.dtd"
   xmlns:inkscape="http://www.inkscape.org/namespaces/inkscape"
   width="90.597931"
   height="90.597931"
   viewBox="0 0 255.68748 255.68749"
   version="1.1"
   id="svg2"
   inkscape:version="0.48.2 r9819"
   sodipodi:docname="MUTCD RS-092.svg">
  <metadata
     id="metadata62">
    <rdf:RDF>
      <cc:Work
         rdf:about="">
        <dc:format>image/svg+xml</dc:format>
        <dc:type
           rdf:resource="http://purl.org/dc/dcmitype/StillImage" />
        <dc:title></dc:title>
      </cc:Work>
    </rdf:RDF>
  </metadata>
  <defs
     id="defs60">
    <clipPath
       clipPathUnits="userSpaceOnUse"
       id="clipPath3564">
      <path
         inkscape:connector-curvature="0"
         d="m 63,43 512.622,0 0,313.129 L 63,356.129 63,43 z"
         id="path3566" />
    </clipPath>
  </defs>
  <sodipodi:namedview
     pagecolor="#ffffff"
     bordercolor="#666666"
     borderopacity="1"
     objecttolerance="10"
     gridtolerance="10"
     guidetolerance="10"
     inkscape:pageopacity="0"
     inkscape:pageshadow="2"
     inkscape:window-width="1280"
     inkscape:window-height="1004"
     id="namedview58"
     showgrid="false"
     fit-margin-top="0"
     fit-margin-left="0"
     fit-margin-right="0"
     fit-margin-bottom="0"
     inkscape:zoom="4.8826954"
     inkscape:cx="83.159137"
     inkscape:cy="32.525196"
     inkscape:window-x="-8"
     inkscape:window-y="-8"
     inkscape:window-maximized="1"
     inkscape:current-layer="svg2"
     showguides="true"
     inkscape:guide-bbox="true" />
  <polygon
     points="315,545 235,375 315,205 395,375 "
     id="polygon10"
     style="fill:none;stroke:#ffffff;stroke-width:40"
     transform="translate(17744.427,14390.473)" />
  <!-- draw the bicycle -->
  <!-- RIGHT -->
  <!-- LANE -->
  <!-- ONLY -->
  <path
     inkscape:connector-curvature="0"
     d="m 22.004643,254.8459 211.663127,0 c 5.57392,0 11.02432,-2.2577 14.97189,-6.2088 3.94053,-3.937 6.1948,-9.3839 6.1948,-14.9578 l 0,-211.6632 c 0,-5.5738 -2.25426,-11.0207 -6.1948,-14.9718 -3.94757,-3.937 -9.39797,-6.1948 -14.97189,-6.1948 l -211.663127,0 c -5.57036,0 -11.02077,2.2578 -14.9577696,6.1948 -3.94759,3.9511 -6.20888999,9.398 -6.20888999,14.9718 l 0,211.6632 c 0,7.2566 3.85232999,14.1111 9.96243959,18.0058 3.48545,2.2154 7.16845,2.7375 11.20422,3.1608"
     style="fill:#ffffff;fill-opacity:1;fill-rule:nonzero;stroke:#000000;stroke-width:1.69333339;stroke-miterlimit:4;stroke-opacity:1;stroke-dasharray:none"
     id="path3026" />
  <path
     inkscape:connector-curvature="0"
     d="m 22.004643,249.5543 c -3.15383,0 -5.80672,-0.7091 -8.36083,-2.3284 -4.6249196,-2.9421 -7.5141696,-8.1385 -7.5141696,-13.5466 l 0,-211.6632 c 0,-4.1733 1.69334,-8.2691 4.6566696,-11.2324 2.94217,-2.9422 7.0485,-4.6426 11.21833,-4.6426 l 211.663127,0 c 4.18397,0 8.29028,1.6898 11.23245,4.6426 2.95277,2.9422 4.64255,7.0485 4.64255,11.2324 l 0,211.6632 c 0,4.1698 -1.70035,8.2761 -4.64255,11.2183 -2.96333,2.9633 -7.05555,4.6567 -11.23245,4.6567 l -211.663127,0 z"
     style="fill:#713907;fill-opacity:1;fill-rule:evenodd;stroke:none"
     id="path3050" />
  <path
     d="m 220.38381,176.83494 c 8.18798,-2.72697 12.62239,-11.53231 9.89542,-19.72028 l -5.94078,1.94381 c 1.61925,4.89302 -1.05833,10.17058 -5.9443,11.80394 l -156.26292,53.22005 2.003778,5.92314 156.248802,-53.17066 z"
     style="fill:#ffffff;fill-opacity:1;fill-rule:nonzero;stroke:none"
     id="path14159"
     inkscape:connector-curvature="0" />
  <path
     d="M 76.468118,87.331692 C 85.061785,84.816386 89.986563,75.792331 87.471257,67.198664 84.952424,58.60147 75.938952,53.673165 67.338229,56.195526 c -8.590138,2.522361 -13.536082,11.52525 -11.003138,20.133027 2.515306,8.597195 11.521722,13.532556 20.133027,11.003139"
     style="fill:#ffffff;fill-opacity:1;fill-rule:nonzero;stroke:none"
     id="path14163"
     inkscape:connector-curvature="0" />
  <path
     d="M 69.853535,109.82128 C 61.323369,93.547636 85.84848,80.325525 94.886646,96.122914 l 17.645944,33.506826 33.53506,-9.54969 c 5.53861,-1.57692 13.208,4.49439 13.23622,11.58875 l 0.15875,47.76258 c 0.0388,11.83217 -17.50131,11.88861 -17.54364,-0.0952 -0.0353,-11.12661 -0.33867,-34.80153 -0.33867,-34.80153 l -34.9885,10.51278 c -7.665858,2.23309 -14.01233,-1.61925 -16.975664,-7.27428 L 69.853535,109.82128 z"
     style="fill:#ffffff;fill-opacity:1;fill-rule:nonzero;stroke:none"
     id="path14167"
     inkscape:connector-curvature="0" />
  <path
     d="m 124.13545,119.88955 0,-103.169857 -7.02028,0 0,105.110137 7.02028,-1.94028 z"
     style="fill:#ffffff;fill-opacity:1;fill-rule:nonzero;stroke:none"
     id="path14171"
     inkscape:connector-curvature="0" />
  <path
     d="m 56.246897,129.08647 c -4.79425,-9.47561 7.634111,-15.77975 12.42836,-6.3112 l 15.180028,29.68272 c 3.259667,6.13128 9.708445,10.31523 17.130885,10.31523 2.29306,0 4.49087,-0.5715 6.60753,-1.0407 l 19.08528,-5.58094 c 10.09297,-3.0727 14.01233,10.30816 3.83117,13.29619 l -20.08011,5.85258 c -3.03742,0.9137 -6.27592,1.41112 -9.61673,1.41112 -12.879914,0 -24.06297,-7.31662 -29.601581,-18.01637 L 56.246897,129.08647 z"
     style="fill:#ffffff;fill-opacity:1;fill-rule:nonzero;stroke:none"
     id="path14175"
     inkscape:connector-curvature="0" />
</svg>
