<?xml version="1.0" encoding="UTF-8" standalone="no"?>
<svg
   xmlns:dc="http://purl.org/dc/elements/1.1/"
   xmlns:cc="http://creativecommons.org/ns#"
   xmlns:rdf="http://www.w3.org/1999/02/22-rdf-syntax-ns#"
   xmlns:svg="http://www.w3.org/2000/svg"
   xmlns="http://www.w3.org/2000/svg"
   xmlns:sodipodi="http://sodipodi.sourceforge.net/DTD/sodipodi-0.dtd"
   xmlns:inkscape="http://www.inkscape.org/namespaces/inkscape"
   width="90.597931"
   height="90.597931"
   viewBox="0 0 255.68748 255.68749"
   version="1.1"
   id="svg2"
   inkscape:version="0.48.2 r9819"
   sodipodi:docname="MUTCD RS-091.svg">
  <metadata
     id="metadata62">
    <rdf:RDF>
      <cc:Work
         rdf:about="">
        <dc:format>image/svg+xml</dc:format>
        <dc:type
           rdf:resource="http://purl.org/dc/dcmitype/StillImage" />
        <dc:title></dc:title>
      </cc:Work>
    </rdf:RDF>
  </metadata>
  <defs
     id="defs60">
    <clipPath
       clipPathUnits="userSpaceOnUse"
       id="clipPath3564">
      <path
         inkscape:connector-curvature="0"
         d="m 63,43 512.622,0 0,313.129 L 63,356.129 63,43 z"
         id="path3566" />
    </clipPath>
  </defs>
  <sodipodi:namedview
     pagecolor="#ffffff"
     bordercolor="#666666"
     borderopacity="1"
     objecttolerance="10"
     gridtolerance="10"
     guidetolerance="10"
     inkscape:pageopacity="0"
     inkscape:pageshadow="2"
     inkscape:window-width="1280"
     inkscape:window-height="1004"
     id="namedview58"
     showgrid="false"
     fit-margin-top="0"
     fit-margin-left="0"
     fit-margin-right="0"
     fit-margin-bottom="0"
     inkscape:zoom="4.8826954"
     inkscape:cx="83.159137"
     inkscape:cy="32.525196"
     inkscape:window-x="-8"
     inkscape:window-y="-8"
     inkscape:window-maximized="1"
     inkscape:current-layer="svg2"
     showguides="true"
     inkscape:guide-bbox="true" />
  <polygon
     points="315,545 235,375 315,205 395,375 "
     id="polygon10"
     style="fill:none;stroke:#ffffff;stroke-width:40"
     transform="translate(17744.427,14390.473)" />
  <!-- draw the bicycle -->
  <!-- RIGHT -->
  <!-- LANE -->
  <!-- ONLY -->
  <path
     inkscape:connector-curvature="0"
     d="m 22.004643,254.8459 211.663127,0 c 5.57392,0 11.02432,-2.2577 14.97189,-6.2088 3.94053,-3.937 6.1948,-9.3839 6.1948,-14.9578 l 0,-211.6632 c 0,-5.5738 -2.25426,-11.0207 -6.1948,-14.9718 -3.94757,-3.937 -9.39797,-6.1948 -14.97189,-6.1948 l -211.663127,0 c -5.57036,0 -11.02077,2.2578 -14.9577696,6.1948 -3.94759,3.9511 -6.20888999,9.398 -6.20888999,14.9718 l 0,211.6632 c 0,7.2566 3.85232999,14.1111 9.96243959,18.0058 3.48545,2.2154 7.16845,2.7375 11.20422,3.1608"
     style="fill:#ffffff;fill-opacity:1;fill-rule:nonzero;stroke:#000000;stroke-width:1.69333339;stroke-miterlimit:4;stroke-opacity:1;stroke-dasharray:none"
     id="path3026" />
  <path
     inkscape:connector-curvature="0"
     d="m 22.004643,249.5543 c -3.15383,0 -5.80672,-0.7091 -8.36083,-2.3284 -4.6249196,-2.9421 -7.5141696,-8.1385 -7.5141696,-13.5466 l 0,-211.6632 c 0,-4.1733 1.69334,-8.2691 4.6566696,-11.2324 2.94217,-2.9422 7.0485,-4.6426 11.21833,-4.6426 l 211.663127,0 c 4.18397,0 8.29028,1.6898 11.23245,4.6426 2.95277,2.9422 4.64255,7.0485 4.64255,11.2324 l 0,211.6632 c 0,4.1698 -1.70035,8.2761 -4.64255,11.2183 -2.96333,2.9633 -7.05555,4.6567 -11.23245,4.6567 l -211.663127,0 z"
     style="fill:#713907;fill-opacity:1;fill-rule:evenodd;stroke:none"
     id="path3050" />
  <path
     d="m 44.586858,123.84384 c -1.785056,-11.45117 14.739055,-14.92956 17.395472,-3.21733 l 4.501444,22.44019 16.799278,0.0353 c 4.896555,0 7.447138,3.9123 7.447138,7.56002 l 0,30.50822 c 0,7.40834 -10.55511,7.37306 -10.55511,-0.13758 l 0,-23.749 -21.441834,0 c -5.002389,0 -8.145639,-3.43253 -8.925277,-7.34483 l -5.221111,-26.09497 z"
     style="fill:#ffffff;fill-opacity:1;fill-rule:nonzero;stroke:none"
     id="path4390"
     inkscape:connector-curvature="0" />
  <path
     d="m 216.65422,43.608062 -181.75464,0 0,10.960805 181.71584,60.455523 0.0388,-71.416328 z"
     style="fill:#ffffff;fill-opacity:1;fill-rule:nonzero;stroke:none"
     id="path4394"
     inkscape:connector-curvature="0" />
  <path
     d="m 52.42558,111.47545 c 5.464527,0.0282 9.916583,-4.38856 9.93775,-9.84603 0.02822,-5.478637 -4.388556,-9.93422 -9.853084,-9.948331 -5.464527,-0.02117 -9.916583,4.3815 -9.934222,9.853081 -0.02822,5.47159 4.3815,9.92011 9.849556,9.94128"
     style="fill:#ffffff;fill-opacity:1;fill-rule:nonzero;stroke:none"
     id="path4398"
     inkscape:connector-curvature="0" />
  <path
     d="m 33.520572,133.24889 c -1.171222,-6.37469 7.20725,-7.89516 8.364361,-1.524 l 3.707694,19.99545 c 0.832556,4.15572 3.880555,7.72583 8.219722,9.01347 1.337028,0.39864 2.723444,0.44803 4.053417,0.55033 l 12.117916,0.0564 c 6.441723,-0.0423 6.402917,8.45961 -0.06703,8.43491 l -12.756445,-0.0635 c -1.940278,0 -3.919361,-0.27516 -5.870222,-0.84666 -7.545914,-2.26126 -12.802302,-8.48073 -14.178135,-15.70209 l -3.591278,-19.91431 z"
     style="fill:#ffffff;fill-opacity:1;fill-rule:nonzero;stroke:none"
     id="path4402"
     inkscape:connector-curvature="0" />
  <path
     d="m 107.51536,145.23275 c -1.78506,-11.45469 14.732,-14.93308 17.38841,-3.22086 l 4.50145,22.44372 16.79928,0.0282 c 4.90361,0 7.46125,3.93347 7.46125,7.5565 l 0,30.5188 c 0,7.40481 -10.55511,7.37658 -10.55511,-0.13758 l 0,-23.74547 -21.45242,0 c -4.99886,0 -8.14211,-3.43253 -8.92881,-7.35895 l -5.21405,-26.08439 z"
     style="fill:#ffffff;fill-opacity:1;fill-rule:nonzero;stroke:none"
     id="path4406"
     inkscape:connector-curvature="0" />
  <path
     d="m 115.35408,132.85731 c 5.46453,0.0282 9.91658,-4.3815 9.93775,-9.84603 0.0282,-5.46452 -4.3815,-9.91658 -9.85308,-9.9448 -5.47159,-0.0175 -9.91659,4.39208 -9.94481,9.85308 -0.0175,5.46453 4.39208,9.92364 9.86014,9.93775"
     style="fill:#ffffff;fill-opacity:1;fill-rule:nonzero;stroke:none"
     id="path4410"
     inkscape:connector-curvature="0" />
  <path
     d="m 96.441663,154.64486 c -1.157111,-6.38175 7.214307,-7.9128 8.371417,-1.53811 l 3.70769,20.0025 c 0.83256,4.15572 3.87703,7.7082 8.21973,9.00642 1.34408,0.40569 2.71991,0.44803 4.04283,0.55033 l 12.1285,0.06 c 6.44173,-0.0459 6.39939,8.45609 -0.0706,8.42787 l -12.75292,-0.067 c -1.9438,0.0141 -3.9123,-0.25753 -5.87727,-0.8502 -7.53181,-2.23661 -12.79525,-8.45961 -14.17109,-15.68802 l -3.598327,-19.90379 z"
     style="fill:#ffffff;fill-opacity:1;fill-rule:nonzero;stroke:none"
     id="path4414"
     inkscape:connector-curvature="0" />
  <path
     d="m 170.44386,166.63225 c -1.79211,-11.47233 14.72847,-14.93661 17.38842,-3.23144 l 4.50144,22.44725 16.79575,0.0353 c 4.90714,0 7.45772,3.9123 7.45772,7.55297 l 0,30.50822 c 0,7.42244 -10.55511,7.37305 -10.55511,-0.13053 l 0,-23.749 -21.45241,0 c -4.99534,0 -8.13506,-3.43958 -8.92175,-7.35894 l -5.21406,-26.07381 z"
     style="fill:#ffffff;fill-opacity:1;fill-rule:nonzero;stroke:none"
     id="path4418"
     inkscape:connector-curvature="0" />
  <path
     d="m 178.27553,154.25681 c 5.47158,0.0282 9.92364,-4.39561 9.9448,-9.86014 0.0246,-5.46453 -4.38855,-9.92011 -9.85308,-9.93422 -5.47158,-0.0282 -9.92364,4.3815 -9.94481,9.85308 -0.0212,5.46453 4.38856,9.906 9.85309,9.94128"
     style="fill:#ffffff;fill-opacity:1;fill-rule:nonzero;stroke:none"
     id="path4422"
     inkscape:connector-curvature="0" />
  <path
     d="m 159.37017,176.0232 c -1.15711,-6.3747 7.20725,-7.88811 8.37141,-1.51695 l 3.7077,19.98134 c 0.83255,4.15572 3.86997,7.73288 8.21972,9.02758 1.33703,0.38453 2.71992,0.44097 4.04989,0.53622 l 12.12144,0.0564 c 6.44172,-0.0282 6.40645,8.45961 -0.0776,8.43491 l -12.74586,-0.0635 c -1.95086,0 -3.91936,-0.26811 -5.87728,-0.84666 -7.53886,-2.24014 -12.79525,-8.4702 -14.17461,-15.69509 l -3.5948,-19.9143 z"
     style="fill:#ffffff;fill-opacity:1;fill-rule:nonzero;stroke:none"
     id="path4426"
     inkscape:connector-curvature="0" />
</svg>
