<?xml version="1.0" encoding="UTF-8" standalone="no"?>
<svg
   xmlns:dc="http://purl.org/dc/elements/1.1/"
   xmlns:cc="http://creativecommons.org/ns#"
   xmlns:rdf="http://www.w3.org/1999/02/22-rdf-syntax-ns#"
   xmlns:svg="http://www.w3.org/2000/svg"
   xmlns="http://www.w3.org/2000/svg"
   xmlns:sodipodi="http://sodipodi.sourceforge.net/DTD/sodipodi-0.dtd"
   xmlns:inkscape="http://www.inkscape.org/namespaces/inkscape"
   width="90.597931"
   height="90.597931"
   viewBox="0 0 255.68748 255.68749"
   version="1.1"
   id="svg2"
   inkscape:version="0.48.2 r9819"
   sodipodi:docname="MUTCD RS-140.svg">
  <metadata
     id="metadata62">
    <rdf:RDF>
      <cc:Work
         rdf:about="">
        <dc:format>image/svg+xml</dc:format>
        <dc:type
           rdf:resource="http://purl.org/dc/dcmitype/StillImage" />
        <dc:title></dc:title>
      </cc:Work>
    </rdf:RDF>
  </metadata>
  <defs
     id="defs60">
    <clipPath
       clipPathUnits="userSpaceOnUse"
       id="clipPath3564">
      <path
         inkscape:connector-curvature="0"
         d="m 63,43 512.622,0 0,313.129 L 63,356.129 63,43 z"
         id="path3566" />
    </clipPath>
  </defs>
  <sodipodi:namedview
     pagecolor="#ffffff"
     bordercolor="#666666"
     borderopacity="1"
     objecttolerance="10"
     gridtolerance="10"
     guidetolerance="10"
     inkscape:pageopacity="0"
     inkscape:pageshadow="2"
     inkscape:window-width="1280"
     inkscape:window-height="1004"
     id="namedview58"
     showgrid="false"
     fit-margin-top="0"
     fit-margin-left="0"
     fit-margin-right="0"
     fit-margin-bottom="0"
     inkscape:zoom="4"
     inkscape:cx="48.704041"
     inkscape:cy="45.520564"
     inkscape:window-x="-8"
     inkscape:window-y="-8"
     inkscape:window-maximized="1"
     inkscape:current-layer="svg2"
     showguides="true"
     inkscape:guide-bbox="true" />
  <polygon
     points="235,375 315,205 395,375 315,545 "
     id="polygon10"
     style="fill:none;stroke:#ffffff;stroke-width:40"
     transform="translate(17618.396,14343.442)" />
  <!-- draw the bicycle -->
  <!-- RIGHT -->
  <!-- LANE -->
  <!-- ONLY -->
  <path
     inkscape:connector-curvature="0"
     d="m 22.008538,254.83715 211.663112,0 c 5.57389,0 11.02432,-2.2578 14.97188,-6.2089 3.94054,-3.937 6.19479,-9.3839 6.19479,-14.9578 l 0,-211.6667 c 0,-5.5738 -2.25425,-11.0207 -6.19479,-14.9718 -3.94756,-3.937 -9.39799,-6.1948 -14.97188,-6.1948 l -211.663112,0 c -5.57036,0 -11.02078,2.2578 -14.9577796,6.1948 -3.94758,3.9511 -6.20888999,9.398 -6.20888999,14.9718 l 0,211.6667 c 0,7.2531 3.85232999,14.1111 9.96244959,18.0058 3.48897,2.2154 7.16844,2.734 11.20422,3.1609"
     style="fill:#ffffff;fill-opacity:1;fill-rule:nonzero;stroke:#000000;stroke-width:1.69333331;stroke-miterlimit:4;stroke-opacity:1;stroke-dasharray:none"
     id="path3060" />
  <path
     inkscape:connector-curvature="0"
     d="m 22.008538,249.54545 c -3.15384,0 -5.80672,-0.7126 -8.36084,-2.3319 -4.6249096,-2.9421 -7.5141596,-8.135 -7.5141596,-13.5431 l 0,-211.6667 c 0,-4.1698 1.69333,-8.2655 4.6566596,-11.2289 2.94217,-2.9421 7.0485,-4.6461 11.21834,-4.6461 l 211.663112,0 c 4.18394,0 8.29028,1.6934 11.23244,4.6461 2.95628,2.9422 4.64256,7.0485 4.64256,11.2289 l 0,211.6667 c 0,4.1663 -1.70038,8.2726 -4.64256,11.2148 -2.96333,2.9669 -7.05554,4.6602 -11.23244,4.6602 l -211.663112,0 z"
     style="fill:#713907;fill-opacity:1;fill-rule:evenodd;stroke:none"
     id="path3084" />
  <path
     inkscape:connector-curvature="0"
     style="fill:#ffffff;fill-opacity:1;fill-rule:nonzero;stroke:none"
     d="m 171.97916,31.144438 c -19.56858,0 -35.69052,14.978944 -37.39444,34.131249 l -14.72848,-3.615972 -72.936802,0 0,14.728472 72.936802,0 14.81667,-3.615972 c 2.07434,18.739555 17.99167,33.425695 37.30625,33.425695 20.71511,0 37.48264,-16.855723 37.48264,-37.570834 0,-20.71511 -16.76753,-37.482638 -37.48264,-37.482638 z m -0.0882,8.819444 c 15.79739,0 28.66319,12.865806 28.66319,28.663194 0,15.797389 -12.8658,28.663194 -28.66319,28.663194 -15.79386,0 -28.575,-12.865805 -28.575,-28.663194 0,-15.797388 12.78114,-28.663194 28.575,-28.663194 z"
     id="path4170" />
  <path
     d="m 177.48285,196.39612 -10.90789,-4.3815 -7.13669,-2.48709 -7.78934,-4.40619 -4.75544,-4.953 -5.86317,-7.72936 8.9535,-3.69711 7.05203,-1.62631 -2.17311,-4.46969 -2.79047,-10.0577 0.14816,-8.02216 1.56281,-11.2395 10.45633,4.34975 6.99559,3.88055 5.67619,5.12586 1.89794,-4.58258 2.8822,-8.30439 5.12586,-9.10167 5.77144,-5.55272 8.9782,-6.90739 4.41678,10.44575 2.21544,7.69056 -0.0988,10.44575 -1.66511,8.64658 -0.65969,5.00945 7.493,-1.65806 7.99747,0.15875 11.23244,1.45345 -4.27919,10.50572 -3.86645,7.02028 -7.46125,7.31661 -4.01813,2.72697 5.20347,4.99533 5.9055,7.67645 -8.93939,3.76766 -6.60047,1.91206 -8.9535,-0.0741 -7.40834,-1.42523 -11.60638,-1.65452 c -4.94595,17.16616 -5.91609,23.77369 -6.19125,26.94163 l -4.96006,-1.32997 c 1.33703,-2.73755 3.76061,-9.14753 8.15975,-26.40894"
     style="fill:#ffffff;fill-opacity:1;fill-rule:nonzero;stroke:none"
     id="path4174"
     inkscape:connector-curvature="0" />
  <path
     d="m 27.414356,211.28687 c -1.859139,0 -3.361973,-1.49931 -3.351389,-3.35492 l 0.127,-20.8033 9.30275,-55.18856 c 0.197555,-1.1677 1.280583,-1.89795 2.430638,-1.89795 l 4.850695,0 c 1.852083,0 3.354916,-1.50283 3.354916,-3.35844 l 0,-9.26042 17.949334,0 0.123472,49.45239 c 0,1.85561 -1.513416,3.34786 -3.358444,3.34786 l -3.160889,0 1.231195,37.54967 c 0.08467,2.40947 -2.388306,3.51367 -4.522611,3.51367 l -24.976667,0 z"
     style="fill:#ffffff;fill-opacity:1;fill-rule:nonzero;stroke:none"
     id="path4182"
     inkscape:connector-curvature="0" />
  <path
     d="m 112.71955,211.28687 -24.976667,0 c -2.134305,0 -4.610805,-1.1042 -4.526139,-3.51367 l 1.234723,-37.54967 -3.164417,0 c -1.8415,0 -3.354917,-1.49225 -3.354917,-3.34786 l 0.123473,-49.45239 17.949333,0 0,9.26042 c 0,1.85561 1.502833,3.35844 3.354916,3.35844 l 4.850695,0 c 1.14653,0 2.23308,0.73025 2.43064,1.89795 l 9.29922,55.18856 0.12347,20.8033 c 0.0104,1.85561 -1.48872,3.35492 -3.34433,3.35492"
     style="fill:#ffffff;fill-opacity:1;fill-rule:nonzero;stroke:none"
     id="path4186"
     inkscape:connector-curvature="0" />
  <path
     d="m 64.834906,129.99593 10.198805,0 0,34.88267 -10.198805,0 0,-34.88267 z"
     style="fill:#ffffff;fill-opacity:1;fill-rule:nonzero;stroke:none"
     id="path4188"
     inkscape:connector-curvature="0" />
</svg>
