<?xml version="1.0" encoding="UTF-8" standalone="no"?>
<svg
   xmlns:dc="http://purl.org/dc/elements/1.1/"
   xmlns:cc="http://creativecommons.org/ns#"
   xmlns:rdf="http://www.w3.org/1999/02/22-rdf-syntax-ns#"
   xmlns:svg="http://www.w3.org/2000/svg"
   xmlns="http://www.w3.org/2000/svg"
   xmlns:sodipodi="http://sodipodi.sourceforge.net/DTD/sodipodi-0.dtd"
   xmlns:inkscape="http://www.inkscape.org/namespaces/inkscape"
   width="90.597931"
   height="90.597931"
   viewBox="0 0 255.68748 255.68749"
   version="1.1"
   id="svg2"
   inkscape:version="0.48.2 r9819"
   sodipodi:docname="MUTCD RS-104.svg">
  <metadata
     id="metadata62">
    <rdf:RDF>
      <cc:Work
         rdf:about="">
        <dc:format>image/svg+xml</dc:format>
        <dc:type
           rdf:resource="http://purl.org/dc/dcmitype/StillImage" />
        <dc:title></dc:title>
      </cc:Work>
    </rdf:RDF>
  </metadata>
  <defs
     id="defs60">
    <clipPath
       clipPathUnits="userSpaceOnUse"
       id="clipPath3564">
      <path
         inkscape:connector-curvature="0"
         d="m 63,43 512.622,0 0,313.129 L 63,356.129 63,43 z"
         id="path3566" />
    </clipPath>
  </defs>
  <sodipodi:namedview
     pagecolor="#ffffff"
     bordercolor="#666666"
     borderopacity="1"
     objecttolerance="10"
     gridtolerance="10"
     guidetolerance="10"
     inkscape:pageopacity="0"
     inkscape:pageshadow="2"
     inkscape:window-width="1280"
     inkscape:window-height="1004"
     id="namedview58"
     showgrid="false"
     fit-margin-top="0"
     fit-margin-left="0"
     fit-margin-right="0"
     fit-margin-bottom="0"
     inkscape:zoom="4.8826954"
     inkscape:cx="83.159137"
     inkscape:cy="32.525196"
     inkscape:window-x="-8"
     inkscape:window-y="-8"
     inkscape:window-maximized="1"
     inkscape:current-layer="svg2"
     showguides="true"
     inkscape:guide-bbox="true" />
  <polygon
     points="315,545 235,375 315,205 395,375 "
     id="polygon10"
     style="fill:none;stroke:#ffffff;stroke-width:40"
     transform="translate(17744.427,14390.473)" />
  <!-- draw the bicycle -->
  <!-- RIGHT -->
  <!-- LANE -->
  <!-- ONLY -->
  <path
     inkscape:connector-curvature="0"
     d="m 22.004643,254.8459 211.663127,0 c 5.57392,0 11.02432,-2.2577 14.97189,-6.2088 3.94053,-3.937 6.1948,-9.3839 6.1948,-14.9578 l 0,-211.6632 c 0,-5.5738 -2.25426,-11.0207 -6.1948,-14.9718 -3.94757,-3.937 -9.39797,-6.1948 -14.97189,-6.1948 l -211.663127,0 c -5.57036,0 -11.02077,2.2578 -14.9577696,6.1948 -3.94759,3.9511 -6.20888999,9.398 -6.20888999,14.9718 l 0,211.6632 c 0,7.2566 3.85232999,14.1111 9.96243959,18.0058 3.48545,2.2154 7.16845,2.7375 11.20422,3.1608"
     style="fill:#ffffff;fill-opacity:1;fill-rule:nonzero;stroke:#000000;stroke-width:1.69333339;stroke-miterlimit:4;stroke-opacity:1;stroke-dasharray:none"
     id="path3026" />
  <path
     inkscape:connector-curvature="0"
     d="m 22.004643,249.5543 c -3.15383,0 -5.80672,-0.7091 -8.36083,-2.3284 -4.6249196,-2.9421 -7.5141696,-8.1385 -7.5141696,-13.5466 l 0,-211.6632 c 0,-4.1733 1.69334,-8.2691 4.6566696,-11.2324 2.94217,-2.9422 7.0485,-4.6426 11.21833,-4.6426 l 211.663127,0 c 4.18397,0 8.29028,1.6898 11.23245,4.6426 2.95277,2.9422 4.64255,7.0485 4.64255,11.2324 l 0,211.6632 c 0,4.1698 -1.70035,8.2761 -4.64255,11.2183 -2.96333,2.9633 -7.05555,4.6567 -11.23245,4.6567 l -211.663127,0 z"
     style="fill:#713907;fill-opacity:1;fill-rule:evenodd;stroke:none"
     id="path3050" />
  <path
     d="m 157.57524,51.675766 c 0,-8.710084 -7.0485,-15.744472 -15.748,-15.744472 -8.71008,0 -15.75858,7.034388 -15.75858,15.744472 0,8.710083 7.0485,15.765639 15.75858,15.765639 8.6995,0 15.748,-7.055556 15.748,-15.765639"
     style="fill:#ffffff;fill-opacity:1;fill-rule:nonzero;stroke:none"
     id="path3272"
     inkscape:connector-curvature="0" />
  <path
     d="m 61.630272,116.27643 c -0.02822,-3.87703 1.446389,-7.75053 4.402666,-10.7068 L 105.4876,66.122016 c 5.88434,-5.901972 15.43403,-5.901972 21.31837,0 3.01625,2.998611 4.46969,6.960305 4.40266,10.893777 l 0,26.659417 c 3.48545,3.4925 17.54011,17.55069 17.54011,17.55069 1.47461,1.46756 2.19781,3.40078 2.19781,5.32342 0,1.93675 -0.7232,3.85939 -2.19781,5.34106 -2.94569,2.94216 -7.71525,2.94216 -10.66447,0 l -19.75555,-19.75556 c -1.41817,-1.40406 -2.21898,-3.32669 -2.21898,-5.32342 l 0,-8.695968 -30.645802,30.564668 0,80.22872 c 0,6.59341 -5.348111,11.94858 -11.934472,11.94858 -6.600472,0 -11.952111,-5.35517 -11.952111,-11.94858 l 0,-92.20553 c 0,-0.15169 0.03881,-0.28222 0.05292,-0.42686"
     style="fill:#ffffff;fill-opacity:1;fill-rule:nonzero;stroke:none"
     id="path3276"
     inkscape:connector-curvature="0" />
  <path
     d="m 165.31519,157.64668 0,-25.10719 c 0,-2.77636 -2.26131,-5.03061 -5.03061,-5.03061 -2.77636,0 -5.02356,2.25425 -5.02356,5.03061 l 0,17.0321 -21.22664,0 2.90689,-2.921 c 2.20486,-2.20486 2.20486,-5.78908 0,-7.98688 l -14.14639,-14.14639 c -2.20486,-2.21192 -5.78203,-2.21192 -8.001,0 -1.10066,1.10419 -1.64394,2.55058 -1.64394,3.99697 0,1.45345 0.54328,2.89984 1.64394,4.01109 0,0 6.03603,6.01485 10.14236,10.12824 -3.96875,3.97581 -9.09461,9.18281 -9.09461,9.18281 -0.007,0.007 -0.0141,0.0141 -0.0245,0.0141 -1.53811,1.49578 -2.5153,3.56305 -2.5153,5.88433 0,4.51908 3.6583,8.18092 8.17033,8.18092 l 35.67642,0 c 4.50849,0 8.1668,-3.66184 8.1668,-8.18092 l 0,-0.0882 z"
     style="fill:#ffffff;fill-opacity:1;fill-rule:nonzero;stroke:none"
     id="path3280"
     inkscape:connector-curvature="0" />
  <path
     d="m 193.24108,153.32515 c 0,-6.76628 -5.49275,-12.24139 -12.25198,-12.24139 -6.77333,0 -12.2555,5.47511 -12.2555,12.24139 0,6.77333 5.48217,12.28019 12.2555,12.28019 6.75923,0 12.25198,-5.50686 12.25198,-12.28019"
     style="fill:#ffffff;fill-opacity:1;fill-rule:nonzero;stroke:none"
     id="path3284"
     inkscape:connector-curvature="0" />
  <path
     d="m 114.23649,185.76518 83.58011,0 0,-12.56947 -83.58011,0 0,12.56947 z"
     style="fill:#ffffff;fill-opacity:1;fill-rule:nonzero;stroke:none"
     id="path3286"
     inkscape:connector-curvature="0" />
</svg>
