<?xml version="1.0" encoding="UTF-8" standalone="no"?>
<svg
   xmlns:dc="http://purl.org/dc/elements/1.1/"
   xmlns:cc="http://creativecommons.org/ns#"
   xmlns:rdf="http://www.w3.org/1999/02/22-rdf-syntax-ns#"
   xmlns:svg="http://www.w3.org/2000/svg"
   xmlns="http://www.w3.org/2000/svg"
   xmlns:sodipodi="http://sodipodi.sourceforge.net/DTD/sodipodi-0.dtd"
   xmlns:inkscape="http://www.inkscape.org/namespaces/inkscape"
   width="90.597931"
   height="90.597931"
   viewBox="0 0 255.68748 255.68749"
   version="1.1"
   id="svg2"
   inkscape:version="0.48.2 r9819"
   sodipodi:docname="MUTCD RS-117.svg">
  <metadata
     id="metadata62">
    <rdf:RDF>
      <cc:Work
         rdf:about="">
        <dc:format>image/svg+xml</dc:format>
        <dc:type
           rdf:resource="http://purl.org/dc/dcmitype/StillImage" />
        <dc:title></dc:title>
      </cc:Work>
    </rdf:RDF>
  </metadata>
  <defs
     id="defs60">
    <clipPath
       clipPathUnits="userSpaceOnUse"
       id="clipPath3564">
      <path
         inkscape:connector-curvature="0"
         d="m 63,43 512.622,0 0,313.129 L 63,356.129 63,43 z"
         id="path3566" />
    </clipPath>
  </defs>
  <sodipodi:namedview
     pagecolor="#ffffff"
     bordercolor="#666666"
     borderopacity="1"
     objecttolerance="10"
     gridtolerance="10"
     guidetolerance="10"
     inkscape:pageopacity="0"
     inkscape:pageshadow="2"
     inkscape:window-width="1280"
     inkscape:window-height="1004"
     id="namedview58"
     showgrid="false"
     fit-margin-top="0"
     fit-margin-left="0"
     fit-margin-right="0"
     fit-margin-bottom="0"
     inkscape:zoom="4.8826954"
     inkscape:cx="83.159137"
     inkscape:cy="32.525196"
     inkscape:window-x="-8"
     inkscape:window-y="-8"
     inkscape:window-maximized="1"
     inkscape:current-layer="svg2"
     showguides="true"
     inkscape:guide-bbox="true" />
  <polygon
     points="315,545 235,375 315,205 395,375 "
     id="polygon10"
     style="fill:none;stroke:#ffffff;stroke-width:40"
     transform="translate(17744.427,14390.473)" />
  <!-- draw the bicycle -->
  <!-- RIGHT -->
  <!-- LANE -->
  <!-- ONLY -->
  <path
     inkscape:connector-curvature="0"
     d="m 22.004643,254.8459 211.663127,0 c 5.57392,0 11.02432,-2.2577 14.97189,-6.2088 3.94053,-3.937 6.1948,-9.3839 6.1948,-14.9578 l 0,-211.6632 c 0,-5.5738 -2.25426,-11.0207 -6.1948,-14.9718 -3.94757,-3.937 -9.39797,-6.1948 -14.97189,-6.1948 l -211.663127,0 c -5.57036,0 -11.02077,2.2578 -14.9577696,6.1948 -3.94759,3.9511 -6.20888999,9.398 -6.20888999,14.9718 l 0,211.6632 c 0,7.2566 3.85232999,14.1111 9.96243959,18.0058 3.48545,2.2154 7.16845,2.7375 11.20422,3.1608"
     style="fill:#ffffff;fill-opacity:1;fill-rule:nonzero;stroke:#000000;stroke-width:1.69333339;stroke-miterlimit:4;stroke-opacity:1;stroke-dasharray:none"
     id="path3026" />
  <path
     inkscape:connector-curvature="0"
     d="m 22.004643,249.5543 c -3.15383,0 -5.80672,-0.7091 -8.36083,-2.3284 -4.6249196,-2.9421 -7.5141696,-8.1385 -7.5141696,-13.5466 l 0,-211.6632 c 0,-4.1733 1.69334,-8.2691 4.6566696,-11.2324 2.94217,-2.9422 7.0485,-4.6426 11.21833,-4.6426 l 211.663127,0 c 4.18397,0 8.29028,1.6898 11.23245,4.6426 2.95277,2.9422 4.64255,7.0485 4.64255,11.2324 l 0,211.6632 c 0,4.1698 -1.70035,8.2761 -4.64255,11.2183 -2.96333,2.9633 -7.05555,4.6567 -11.23245,4.6567 l -211.663127,0 z"
     style="fill:#713907;fill-opacity:1;fill-rule:evenodd;stroke:none"
     id="path3050" />
  <path
     d="m 201.84181,152.67285 c -4.46617,0 -8.73831,1.02659 -12.52008,2.79048 -3.72181,1.65805 -7.84931,2.62466 -12.16731,2.62466 -4.32153,0 -8.47019,-0.96661 -12.17083,-2.62466 -3.79589,-1.76389 -8.05392,-2.79048 -12.52361,-2.79048 -4.45911,0 -8.7242,1.02659 -12.52009,2.79048 -3.70769,1.65805 -7.8493,2.62466 -12.1673,2.62466 -4.32153,0 -8.47019,-0.96661 -12.17083,-2.62466 -3.79589,-1.76389 -8.05392,-2.79048 -12.51656,-2.79048 -4.452052,0 -8.724191,1.02659 -12.52008,2.79048 -3.71475,1.65805 -7.849305,2.62466 -12.167305,2.62466 -4.321528,0 -8.456083,-0.96661 -12.170833,-2.62466 -3.788834,-1.76389 -8.053917,-2.79048 -12.520083,-2.79048 -4.455585,0 -8.720668,1.02659 -12.523613,2.79048 -3.693583,1.65805 -7.849305,2.62466 -12.163777,2.62466 l 0,18.23861 c 4.314472,0 8.470194,-0.98072 12.163777,-2.63877 3.802945,-1.76389 8.068028,-2.79048 12.523613,-2.79048 4.466166,0 8.731249,1.02659 12.520083,2.79048 3.136194,1.397 6.600472,2.16958 10.198805,2.42358 L 61.288093,191.2491 c -4.790722,-3.03036 -11.183057,-2.48002 -15.35289,1.68275 l -17.3355,17.3355 c -4.822472,4.82953 -4.822472,12.65767 0,17.48014 4.836583,4.83658 12.657667,4.83658 17.49425,0 L 63.422398,210.4261 c 3.929942,-3.937 4.60375,-9.82486 2.137834,-14.49916 l 20.891497,-20.87739 c 1.397002,-0.39864 2.804586,-0.77611 4.113388,-1.36172 3.795892,-1.76389 8.068028,-2.79048 12.520083,-2.79048 4.46264,0 8.72067,1.02659 12.51656,2.79048 3.70063,1.65805 7.8493,2.63877 12.17083,2.63877 4.318,0 8.45961,-0.98072 12.1673,-2.63877 3.79589,-1.76389 8.06097,-2.79048 12.52008,-2.79048 4.4697,0 8.72773,1.02659 12.52362,2.79048 3.70063,1.65805 7.8493,2.63877 12.17083,2.63877 4.318,0 8.4455,-0.98072 12.1673,-2.63877 3.78178,-1.76389 8.05392,-2.79048 12.52009,-2.79048 4.44852,0 8.72066,1.02659 12.52008,2.79048 3.69711,1.65805 7.85284,2.63877 12.17436,2.63877 l 0,-18.23861 c -4.32152,0 -8.47725,-0.96661 -12.17436,-2.62466 -3.79942,-1.76389 -8.07156,-2.79048 -12.52008,-2.79048"
     style="fill:#ffffff;fill-opacity:1;fill-rule:nonzero;stroke:none"
     id="path10836"
     inkscape:connector-curvature="0" />
  <path
     d="m 222.41581,127.95019 -88.86473,0 25.13542,-25.13542 3.34434,1.23119 c 4.2298,1.56634 8.91469,-0.59972 10.47044,-4.822468 1.12536,-3.01625 0.27517,-6.233583 -1.8027,-8.420805 l 24.63095,-24.630944 c 4.66372,2.458861 10.55511,1.785055 14.478,-2.141361 l 17.34255,-17.335501 c 4.83659,-4.826 4.83659,-12.657667 0,-17.497778 -4.83305,-4.822472 -12.66472,-4.822472 -17.49072,0 l -17.3355,17.339028 c -4.17336,4.173361 -4.71663,10.576279 -1.67922,15.356417 L 164.83189,87.698243 122.01173,71.862048 c -1.143,-0.638527 -2.34244,-1.192389 -3.64419,-1.583972 -9.34509,-2.797528 -19.191114,2.515306 -21.988642,11.856861 L 83.192062,126.20041 c -0.194028,0.63853 -0.236361,1.17122 -0.338664,1.74978 l -53.749223,0 0,23.65375 c 3.189111,-0.0141 6.455834,-0.70909 9.348611,-2.01084 4.783667,-2.22602 10.061222,-3.39725 15.254113,-3.39725 5.203472,0 10.481024,1.17123 15.15886,3.35492 3.065636,1.36525 6.272386,2.06728 9.532053,2.06728 3.256139,0 6.455833,-0.70203 9.436805,-2.02495 4.776612,-2.22602 10.047111,-3.39725 15.250583,-3.39725 5.2705,0 10.39636,1.13595 15.16944,3.35492 3.01273,1.35114 6.29356,2.06728 9.51795,2.06728 3.25613,0 6.46288,-0.70203 9.42974,-2.02495 4.78367,-2.22602 10.06123,-3.39725 15.25764,-3.39725 5.27756,0 10.40342,1.13595 15.1765,3.35492 3.00567,1.35114 6.29356,2.06728 9.51795,2.06728 3.25261,0 6.45583,-0.70203 9.42622,-2.02495 4.77308,-2.22602 10.04358,-3.39725 15.26117,-3.39725 0.91016,0 1.80975,0.0811 2.71991,0.1517 8.98525,-4.1275 15.49047,-7.69056 19.44511,-9.92364 4.5967,-2.58233 4.83659,-8.47372 -1.59102,-8.47372 m -92.19142,-35.658781 21.91808,8.096251 -27.55546,27.56253 -5.03414,0 10.67152,-35.658781 z"
     style="fill:#ffffff;fill-opacity:1;fill-rule:nonzero;stroke:none"
     id="path10840"
     inkscape:connector-curvature="0" />
  <path
     d="m 124.72459,48.649269 -2.25072,4.85775 c -1.44286,2.977446 -4.48733,5.030613 -8.001,5.030613 l -5.27756,0 c 3.02331,4.307416 8.03275,7.129639 13.69836,7.129639 9.22514,0 16.70756,-7.489472 16.70756,-16.714613 l 0,-0.881944 -14.04761,0 c -0.37395,0 -0.70556,0.243417 -0.82903,0.578555"
     style="fill:#ffffff;fill-opacity:1;fill-rule:nonzero;stroke:none"
     id="path10844"
     inkscape:connector-curvature="0" />
  <path
     d="m 114.47287,54.293715 c 1.83444,0 3.43958,-1.068918 4.18394,-2.617612 l 2.21192,-4.843639 c 0.81139,-1.785056 2.59644,-3.026833 4.68489,-3.026833 l 17.25083,0 c -2.27189,-8.865306 -10.33286,-15.419917 -19.91078,-15.419917 -11.36297,0 -20.55988,9.203972 -20.55988,20.566944 0,1.848556 0.23283,3.658306 0.70202,5.362224 l 11.43706,-0.02117 z"
     style="fill:#ffffff;fill-opacity:1;fill-rule:nonzero;stroke:none"
     id="path10848"
     inkscape:connector-curvature="0" />
</svg>
