<?xml version="1.0" encoding="UTF-8" standalone="no"?>
<svg
   xmlns:dc="http://purl.org/dc/elements/1.1/"
   xmlns:cc="http://creativecommons.org/ns#"
   xmlns:rdf="http://www.w3.org/1999/02/22-rdf-syntax-ns#"
   xmlns:svg="http://www.w3.org/2000/svg"
   xmlns="http://www.w3.org/2000/svg"
   xmlns:sodipodi="http://sodipodi.sourceforge.net/DTD/sodipodi-0.dtd"
   xmlns:inkscape="http://www.inkscape.org/namespaces/inkscape"
   width="90.597931"
   height="90.597931"
   viewBox="0 0 255.68748 255.68749"
   version="1.1"
   id="svg2"
   inkscape:version="0.48.2 r9819"
   sodipodi:docname="MUTCD RS-125.svg">
  <metadata
     id="metadata62">
    <rdf:RDF>
      <cc:Work
         rdf:about="">
        <dc:format>image/svg+xml</dc:format>
        <dc:type
           rdf:resource="http://purl.org/dc/dcmitype/StillImage" />
        <dc:title></dc:title>
      </cc:Work>
    </rdf:RDF>
  </metadata>
  <defs
     id="defs60">
    <clipPath
       clipPathUnits="userSpaceOnUse"
       id="clipPath3564">
      <path
         inkscape:connector-curvature="0"
         d="m 63,43 512.622,0 0,313.129 L 63,356.129 63,43 z"
         id="path3566" />
    </clipPath>
  </defs>
  <sodipodi:namedview
     pagecolor="#ffffff"
     bordercolor="#666666"
     borderopacity="1"
     objecttolerance="10"
     gridtolerance="10"
     guidetolerance="10"
     inkscape:pageopacity="0"
     inkscape:pageshadow="2"
     inkscape:window-width="1280"
     inkscape:window-height="1004"
     id="namedview58"
     showgrid="false"
     fit-margin-top="0"
     fit-margin-left="0"
     fit-margin-right="0"
     fit-margin-bottom="0"
     inkscape:zoom="4.8826954"
     inkscape:cx="83.159137"
     inkscape:cy="40.717393"
     inkscape:window-x="-8"
     inkscape:window-y="-8"
     inkscape:window-maximized="1"
     inkscape:current-layer="svg2"
     showguides="true"
     inkscape:guide-bbox="true" />
  <polygon
     points="315,545 235,375 315,205 395,375 "
     id="polygon10"
     style="fill:none;stroke:#ffffff;stroke-width:40"
     transform="translate(17744.427,14390.473)" />
  <!-- draw the bicycle -->
  <!-- RIGHT -->
  <!-- LANE -->
  <!-- ONLY -->
  <path
     inkscape:connector-curvature="0"
     d="m 22.004643,254.8459 211.663127,0 c 5.57392,0 11.02432,-2.2577 14.97189,-6.2088 3.94053,-3.937 6.1948,-9.3839 6.1948,-14.9578 l 0,-211.6632 c 0,-5.5738 -2.25426,-11.0207 -6.1948,-14.9718 -3.94757,-3.937 -9.39797,-6.1948 -14.97189,-6.1948 l -211.663127,0 c -5.57036,0 -11.02077,2.2578 -14.9577696,6.1948 -3.94759,3.9511 -6.20888999,9.398 -6.20888999,14.9718 l 0,211.6632 c 0,7.2566 3.85232999,14.1111 9.96243959,18.0058 3.48545,2.2154 7.16845,2.7375 11.20422,3.1608"
     style="fill:#ffffff;fill-opacity:1;fill-rule:nonzero;stroke:#000000;stroke-width:1.69333339;stroke-miterlimit:4;stroke-opacity:1;stroke-dasharray:none"
     id="path3026" />
  <path
     inkscape:connector-curvature="0"
     d="m 22.004643,249.5543 c -3.15383,0 -5.80672,-0.7091 -8.36083,-2.3284 -4.6249196,-2.9421 -7.5141696,-8.1385 -7.5141696,-13.5466 l 0,-211.6632 c 0,-4.1733 1.69334,-8.2691 4.6566696,-11.2324 2.94217,-2.9422 7.0485,-4.6426 11.21833,-4.6426 l 211.663127,0 c 4.18397,0 8.29028,1.6898 11.23245,4.6426 2.95277,2.9422 4.64255,7.0485 4.64255,11.2324 l 0,211.6632 c 0,4.1698 -1.70035,8.2761 -4.64255,11.2183 -2.96333,2.9633 -7.05555,4.6567 -11.23245,4.6567 l -211.663127,0 z"
     style="fill:#713907;fill-opacity:1;fill-rule:evenodd;stroke:none"
     id="path3050" />
  <path
     d="m 146.20698,131.52735 c 5.63739,1.95792 11.78278,-1.03364 13.73717,-6.66397 1.95792,-5.63739 -1.02658,-11.78278 -6.65339,-13.73717 -5.64444,-1.96497 -11.79689,1.02659 -13.74775,6.66045 -1.95086,5.63739 1.02658,11.78278 6.66397,13.74069"
     style="fill:#ffffff;fill-opacity:1;fill-rule:nonzero;stroke:none"
     id="path8672"
     inkscape:connector-curvature="0" />
  <path
     d="m 234.74327,61.14466 c 0,0 -36.52309,-4.409723 -112.40206,-4.409723 -56.010527,0 -101.726999,4.409723 -101.726999,4.409723 0,0 18.940639,8.307916 15.698611,34.201804 0,0 27.181527,-3.231444 38.59036,20.069526 l 51.131618,-15.486943 -3.36198,34.099503 -21.6288,5.29872 c -1.873255,0.44097 -3.520727,1.34408 -4.857755,2.55411 l -47.409804,45.7447 c -2.790473,2.67405 -2.868084,7.11905 -0.179917,9.90247 2.681111,2.79753 7.122583,2.89983 9.909528,0.21167 l 35.690527,-34.38173 43.688001,-10.67153 -0.25753,0.10231 7.24253,-1.8662 6.70278,7.57767 c 1.02658,1.15006 2.49414,1.82034 4.03931,1.82034 0,0 23.52322,0.0952 23.53027,0.0952 2.97745,0 5.40103,-2.40242 5.40809,-5.38692 l 0,-0.0212 c 0,-2.56117 -1.81328,-4.61786 -4.20864,-5.17525 l -17.5507,-61.034084 73.025,-22.122694 c 3.50661,-1.538111 3.20322,-5.083528 -1.07244,-5.531555 m -59.69353,88.434383 c -5.31989,-0.0212 -14.26986,-0.0705 -16.96508,-0.0741 -2.53647,-2.86103 -12.67884,-14.3263 -12.67884,-14.3263 -0.15169,-0.17992 -0.37041,-0.26106 -0.53622,-0.4057 -2.55764,-2.99861 -6.61458,-4.52261 -10.7068,-3.56305 l -6.34295,1.55575 3.3902,-34.409948 26.78641,-8.099778 17.05328,59.323106 z"
     style="fill:#ffffff;fill-opacity:1;fill-rule:nonzero;stroke:none"
     id="path8676"
     inkscape:connector-curvature="0" />
</svg>
