<?xml version="1.0" encoding="UTF-8" standalone="no"?>
<svg
   xmlns:dc="http://purl.org/dc/elements/1.1/"
   xmlns:cc="http://creativecommons.org/ns#"
   xmlns:rdf="http://www.w3.org/1999/02/22-rdf-syntax-ns#"
   xmlns:svg="http://www.w3.org/2000/svg"
   xmlns="http://www.w3.org/2000/svg"
   xmlns:sodipodi="http://sodipodi.sourceforge.net/DTD/sodipodi-0.dtd"
   xmlns:inkscape="http://www.inkscape.org/namespaces/inkscape"
   width="90.597931"
   height="90.597931"
   viewBox="0 0 255.68748 255.68749"
   version="1.1"
   id="svg2"
   inkscape:version="0.48.2 r9819"
   sodipodi:docname="MUTCD RS-122.svg">
  <metadata
     id="metadata62">
    <rdf:RDF>
      <cc:Work
         rdf:about="">
        <dc:format>image/svg+xml</dc:format>
        <dc:type
           rdf:resource="http://purl.org/dc/dcmitype/StillImage" />
        <dc:title></dc:title>
      </cc:Work>
    </rdf:RDF>
  </metadata>
  <defs
     id="defs60">
    <clipPath
       clipPathUnits="userSpaceOnUse"
       id="clipPath3564">
      <path
         inkscape:connector-curvature="0"
         d="m 63,43 512.622,0 0,313.129 L 63,356.129 63,43 z"
         id="path3566" />
    </clipPath>
  </defs>
  <sodipodi:namedview
     pagecolor="#ffffff"
     bordercolor="#666666"
     borderopacity="1"
     objecttolerance="10"
     gridtolerance="10"
     guidetolerance="10"
     inkscape:pageopacity="0"
     inkscape:pageshadow="2"
     inkscape:window-width="1280"
     inkscape:window-height="1004"
     id="namedview58"
     showgrid="false"
     fit-margin-top="0"
     fit-margin-left="0"
     fit-margin-right="0"
     fit-margin-bottom="0"
     inkscape:zoom="4"
     inkscape:cx="48.704041"
     inkscape:cy="45.520564"
     inkscape:window-x="-8"
     inkscape:window-y="-8"
     inkscape:window-maximized="1"
     inkscape:current-layer="svg2"
     showguides="true"
     inkscape:guide-bbox="true" />
  <polygon
     points="235,375 315,205 395,375 315,545 "
     id="polygon10"
     style="fill:none;stroke:#ffffff;stroke-width:40"
     transform="translate(17618.396,14343.442)" />
  <!-- draw the bicycle -->
  <!-- RIGHT -->
  <!-- LANE -->
  <!-- ONLY -->
  <path
     inkscape:connector-curvature="0"
     d="m 22.008538,254.83715 211.663112,0 c 5.57389,0 11.02432,-2.2578 14.97188,-6.2089 3.94054,-3.937 6.19479,-9.3839 6.19479,-14.9578 l 0,-211.6667 c 0,-5.5738 -2.25425,-11.0207 -6.19479,-14.9718 -3.94756,-3.937 -9.39799,-6.1948 -14.97188,-6.1948 l -211.663112,0 c -5.57036,0 -11.02078,2.2578 -14.9577796,6.1948 -3.94758,3.9511 -6.20888999,9.398 -6.20888999,14.9718 l 0,211.6667 c 0,7.2531 3.85232999,14.1111 9.96244959,18.0058 3.48897,2.2154 7.16844,2.734 11.20422,3.1609"
     style="fill:#ffffff;fill-opacity:1;fill-rule:nonzero;stroke:#000000;stroke-width:1.69333331;stroke-miterlimit:4;stroke-opacity:1;stroke-dasharray:none"
     id="path3060" />
  <path
     inkscape:connector-curvature="0"
     d="m 22.008538,249.54545 c -3.15384,0 -5.80672,-0.7126 -8.36084,-2.3319 -4.6249096,-2.9421 -7.5141596,-8.135 -7.5141596,-13.5431 l 0,-211.6667 c 0,-4.1698 1.69333,-8.2655 4.6566596,-11.2289 2.94217,-2.9421 7.0485,-4.6461 11.21834,-4.6461 l 211.663112,0 c 4.18394,0 8.29028,1.6934 11.23244,4.6461 2.95628,2.9422 4.64256,7.0485 4.64256,11.2289 l 0,211.6667 c 0,4.1663 -1.70038,8.2726 -4.64256,11.2148 -2.96333,2.9669 -7.05554,4.6602 -11.23244,4.6602 l -211.663112,0 z"
     style="fill:#713907;fill-opacity:1;fill-rule:evenodd;stroke:none"
     id="path3084" />
  <path
     d="m 136.57826,55.059229 c 8.1915,0.638528 15.35995,-5.478638 15.99847,-13.677193 0.65617,-8.202084 -5.461,-15.367 -13.66308,-16.012584 -8.19856,-0.649111 -15.36347,5.475111 -16.01964,13.670139 -0.63852,8.198556 5.47864,15.363471 13.68425,16.019638"
     style="fill:#ffffff;fill-opacity:1;fill-rule:nonzero;stroke:none"
     id="path3978"
     inkscape:connector-curvature="0" />
  <path
     d="m 123.94847,61.176396 c 2.94216,-2.039056 6.54049,-3.404306 10.43163,-3.100917 5.13292,0.398639 9.35214,3.563056 11.87803,7.440083 l 15.04244,29.788555 20.48581,14.125223 c 1.74272,1.32997 2.80458,3.50661 2.62467,5.86317 -0.29634,3.70063 -3.53484,6.46288 -7.24253,6.17361 -1.12183,-0.0917 -1.98261,-0.51859 -3.05858,-1.01248 l -22.35906,-15.38111 c -0.68086,-0.55739 -1.25589,-1.23825 -1.68275,-2.00377 l -5.64092,-11.13367 -6.72041,29.69683 26.41952,31.21026 c 0.5715,0.98072 0.99131,2.05316 1.2065,3.20674 l 7.1367,37.71548 c -0.0212,0.81139 0.1023,1.33702 0.0423,2.032 -0.43391,5.55272 -5.29166,9.69433 -10.84439,9.26041 -4.56847,-0.3563 -8.00805,-3.78883 -9.09108,-7.97983 l -6.73806,-35.31658 -21.43477,-23.51617 -5.00239,22.90939 c -0.14464,1.06892 -1.57692,3.33375 -2.01789,4.25803 l -20.566943,34.72039 c -2.067278,3.16794 -5.499806,5.19994 -9.454445,4.8895 -5.552722,-0.44098 -9.701388,-5.29167 -9.260416,-10.84439 0.116416,-1.58398 0.786694,-3.19617 1.351139,-4.318 l 19.166416,-32.15923 15.924389,-70.731941 -10.41047,8.424333 -5.524502,25.220078 c -0.733778,3.21734 -3.668889,5.84906 -7.161389,5.58095 -3.707694,-0.28928 -6.469944,-3.53483 -6.180667,-7.23547 0.02822,-0.29634 0.07056,-0.59267 0.137584,-0.889 l 6.568752,-29.414614 c 0.370416,-1.280583 1.107722,-2.398889 2.074333,-3.231444 L 123.94847,61.176396 z"
     style="fill:#ffffff;fill-opacity:1;fill-rule:nonzero;stroke:none"
     id="path3982"
     inkscape:connector-curvature="0" />
  <path
     d="m 228.97782,210.22501 c -1.16064,0.37041 0.94191,0.37041 0,0.37041 -0.93839,-0.60325 0.94191,-1.21002 0,-1.21002 -12.17789,-1.21356 -27.55548,-1.82034 -39.74395,-0.60678 -0.93133,0 -4.64961,1.95792 -5.60211,1.95792 -11.24303,0.6103 -17.82586,-0.74437 -28.13755,1.07244 -15.9385,2.42711 -31.86995,-1.21356 -48.75036,0.60678 -14.986004,1.21355 -30.935087,0 -46.873587,0.60678 -7.496527,-5.45748 -20.792722,-3.03037 -31.372527,-2.79753 l 0,20.31294 200.480084,0 0,-20.31294 z"
     style="fill:#ffffff;fill-opacity:1;fill-rule:nonzero;stroke:none"
     id="path3986"
     inkscape:connector-curvature="0" />
</svg>
