<?xml version="1.0" encoding="UTF-8" standalone="no"?>
<svg
   xmlns:dc="http://purl.org/dc/elements/1.1/"
   xmlns:cc="http://creativecommons.org/ns#"
   xmlns:rdf="http://www.w3.org/1999/02/22-rdf-syntax-ns#"
   xmlns:svg="http://www.w3.org/2000/svg"
   xmlns="http://www.w3.org/2000/svg"
   xmlns:sodipodi="http://sodipodi.sourceforge.net/DTD/sodipodi-0.dtd"
   xmlns:inkscape="http://www.inkscape.org/namespaces/inkscape"
   width="90.597931"
   height="90.597931"
   viewBox="0 0 255.68748 255.68749"
   version="1.1"
   id="svg2"
   inkscape:version="0.48.2 r9819"
   sodipodi:docname="MUTCD RS-121.svg">
  <metadata
     id="metadata62">
    <rdf:RDF>
      <cc:Work
         rdf:about="">
        <dc:format>image/svg+xml</dc:format>
        <dc:type
           rdf:resource="http://purl.org/dc/dcmitype/StillImage" />
        <dc:title></dc:title>
      </cc:Work>
    </rdf:RDF>
  </metadata>
  <defs
     id="defs60">
    <clipPath
       clipPathUnits="userSpaceOnUse"
       id="clipPath3564">
      <path
         inkscape:connector-curvature="0"
         d="m 63,43 512.622,0 0,313.129 L 63,356.129 63,43 z"
         id="path3566" />
    </clipPath>
  </defs>
  <sodipodi:namedview
     pagecolor="#ffffff"
     bordercolor="#666666"
     borderopacity="1"
     objecttolerance="10"
     gridtolerance="10"
     guidetolerance="10"
     inkscape:pageopacity="0"
     inkscape:pageshadow="2"
     inkscape:window-width="1280"
     inkscape:window-height="1004"
     id="namedview58"
     showgrid="false"
     fit-margin-top="0"
     fit-margin-left="0"
     fit-margin-right="0"
     fit-margin-bottom="0"
     inkscape:zoom="4.8826954"
     inkscape:cx="83.159137"
     inkscape:cy="32.525196"
     inkscape:window-x="-8"
     inkscape:window-y="-8"
     inkscape:window-maximized="1"
     inkscape:current-layer="svg2"
     showguides="true"
     inkscape:guide-bbox="true" />
  <polygon
     points="315,545 235,375 315,205 395,375 "
     id="polygon10"
     style="fill:none;stroke:#ffffff;stroke-width:40"
     transform="translate(17744.427,14390.473)" />
  <!-- draw the bicycle -->
  <!-- RIGHT -->
  <!-- LANE -->
  <!-- ONLY -->
  <path
     inkscape:connector-curvature="0"
     d="m 22.004643,254.8459 211.663127,0 c 5.57392,0 11.02432,-2.2577 14.97189,-6.2088 3.94053,-3.937 6.1948,-9.3839 6.1948,-14.9578 l 0,-211.6632 c 0,-5.5738 -2.25426,-11.0207 -6.1948,-14.9718 -3.94757,-3.937 -9.39797,-6.1948 -14.97189,-6.1948 l -211.663127,0 c -5.57036,0 -11.02077,2.2578 -14.9577696,6.1948 -3.94759,3.9511 -6.20888999,9.398 -6.20888999,14.9718 l 0,211.6632 c 0,7.2566 3.85232999,14.1111 9.96243959,18.0058 3.48545,2.2154 7.16845,2.7375 11.20422,3.1608"
     style="fill:#ffffff;fill-opacity:1;fill-rule:nonzero;stroke:#000000;stroke-width:1.69333339;stroke-miterlimit:4;stroke-opacity:1;stroke-dasharray:none"
     id="path3026" />
  <path
     inkscape:connector-curvature="0"
     d="m 22.004643,249.5543 c -3.15383,0 -5.80672,-0.7091 -8.36083,-2.3284 -4.6249196,-2.9421 -7.5141696,-8.1385 -7.5141696,-13.5466 l 0,-211.6632 c 0,-4.1733 1.69334,-8.2691 4.6566696,-11.2324 2.94217,-2.9422 7.0485,-4.6426 11.21833,-4.6426 l 211.663127,0 c 4.18397,0 8.29028,1.6898 11.23245,4.6426 2.95277,2.9422 4.64255,7.0485 4.64255,11.2324 l 0,211.6632 c 0,4.1698 -1.70035,8.2761 -4.64255,11.2183 -2.96333,2.9633 -7.05555,4.6567 -11.23245,4.6567 l -211.663127,0 z"
     style="fill:#713907;fill-opacity:1;fill-rule:evenodd;stroke:none"
     id="path3050" />
  <path
     d="m 233.14732,211.16341 c -3.65831,3.54542 -8.59367,5.27756 -12.28725,5.27756 -5.23875,0 -10.06828,-2.56117 -12.92931,-6.74512 -2.79047,4.14514 -7.54239,6.78392 -13.23269,6.78392 -5.842,0 -10.06828,-2.63878 -12.77762,-6.8968 -3.20675,4.37091 -7.4295,6.81919 -12.93283,6.81919 -5.65503,0 -10.17764,-2.10961 -13.30678,-6.93208 -2.86455,4.6743 -7.0485,6.93208 -12.51302,6.93208 -5.54567,0 -9.95539,-2.18369 -13.04573,-6.81919 -3.50661,4.59669 -8.44197,6.7063 -12.24844,6.7063 -5.88081,0 -10.86203,-1.92264 -14.21342,-7.0485 -2.79047,4.40972 -7.503583,7.16139 -13.193889,7.16139 -5.767916,0 -10.784416,-2.93864 -13.384389,-7.50005 -2.786944,4.44852 -7.799916,7.35188 -13.606638,7.35188 -5.503334,0 -9.764889,-2.37419 -12.855222,-6.90033 -3.055056,4.40972 -7.990417,6.93561 -13.419667,6.93561 -5.051777,0 -9.648472,-2.33539 -12.47775,-6.37117 l 0,-12.66119 c 2.903361,4.56142 7.65175,7.16139 13.419667,7.16139 5.125861,0 9.951861,-2.59997 12.816416,-6.93914 3.167945,4.56142 8.180917,6.93914 12.590639,6.93914 5.542139,0 10.632722,-2.71639 13.310305,-6.70983 3.051528,4.25802 8.0645,6.67102 12.851695,6.67102 5.390444,0 10.403413,-2.75166 13.267973,-7.239 3.28083,4.67784 8.51958,7.27781 13.42319,7.27781 5.6515,0 10.25173,-2.07433 13.26798,-7.0485 3.4678,4.67078 8.44197,7.08731 12.96811,7.08731 5.08706,0 10.21644,-2.6035 13.38086,-7.2002 2.89983,4.67431 7.80345,7.34836 13.0422,7.34836 5.35516,0 10.29405,-2.67405 13.19741,-7.23547 2.71286,4.33211 7.61295,7.20019 13.71953,7.20019 5.16467,0 10.06475,-2.98097 12.62592,-7.54238 3.39372,4.90361 8.51958,7.65175 13.34911,7.65175 3.05152,0 7.72583,-1.58045 11.19364,-4.60023 l 0,11.08428 z"
     style="fill:#ffffff;fill-opacity:1;fill-rule:nonzero;stroke:none"
     id="path11866"
     inkscape:connector-curvature="0" />
  <path
     d="m 108.10876,141.73674 0,0 2.4765,1.78506 c 20.7257,14.91192 36.93231,28.59969 66.89725,36.74533 l -152.943279,-0.66675 0.275167,-63.01317 c 19.12761,-1.06186 35.683471,1.78506 52.355749,8.1527 8.082139,3.07975 16.047861,6.60047 23.156333,11.55347 l 3.19617,2.24719 14.72847,-41.1233 -0.55739,-1.368777 c -4.26156,-10.488084 -17.018,-13.359695 -26.490083,-7.916334 l -2.293056,1.319389 C 86.504647,83.200326 78.814091,70.278076 58.437647,78.451937 l 1.389945,-2.82575 C 73.46598,47.911965 104.97962,33.924326 134.66587,42.468604 l 3.06211,0.878417 3.05153,1.019528 2.98803,1.181805 c 29.73211,11.765139 46.49611,43.532778 38.94666,74.679526 l -0.7373,3.05506 -1.13595,-2.20134 c -5.32694,-10.3258 -18.06222,-16.83455 -28.36686,-9.67669 l -1.96497,1.36172 -0.60325,-2.33539 C 147.21771,99.960798 136.08051,94.175243 125.93815,97.787687 l -2.4765,0.878417 -0.18698,0.186972 -15.16591,42.837804 0,0.0459 z"
     style="fill:#ffffff;fill-opacity:1;fill-rule:nonzero;stroke:none"
     id="path11870"
     inkscape:connector-curvature="0" />
</svg>
