<?xml version="1.0" encoding="UTF-8" standalone="no"?>
<!-- Created with Inkscape (http://www.inkscape.org/) -->

<svg
   xmlns:dc="http://purl.org/dc/elements/1.1/"
   xmlns:cc="http://creativecommons.org/ns#"
   xmlns:rdf="http://www.w3.org/1999/02/22-rdf-syntax-ns#"
   xmlns:svg="http://www.w3.org/2000/svg"
   xmlns="http://www.w3.org/2000/svg"
   xmlns:sodipodi="http://sodipodi.sourceforge.net/DTD/sodipodi-0.dtd"
   xmlns:inkscape="http://www.inkscape.org/namespaces/inkscape"
   width="2170.0166"
   height="3249.9854"
   id="svg2934"
   version="1.1"
   inkscape:version="0.48.2 r9819"
   sodipodi:docname="AJAX.svg">
  <defs
     id="defs2936">
    <inkscape:perspective
       sodipodi:type="inkscape:persp3d"
       inkscape:vp_x="0 : 526.18109 : 1"
       inkscape:vp_y="0 : 1000 : 0"
       inkscape:vp_z="744.09448 : 526.18109 : 1"
       inkscape:persp3d-origin="372.04724 : 350.78739 : 1"
       id="perspective2942" />
    <inkscape:perspective
       id="perspective2924"
       inkscape:persp3d-origin="0.5 : 0.33333333 : 1"
       inkscape:vp_z="1 : 0.5 : 1"
       inkscape:vp_y="0 : 1000 : 0"
       inkscape:vp_x="0 : 0.5 : 1"
       sodipodi:type="inkscape:persp3d" />
  </defs>
  <sodipodi:namedview
     id="base"
     pagecolor="#ffffff"
     bordercolor="#666666"
     borderopacity="1.0"
     inkscape:pageopacity="0.0"
     inkscape:pageshadow="2"
     inkscape:zoom="0.17376232"
     inkscape:cx="593.9931"
     inkscape:cy="1967.2667"
     inkscape:document-units="px"
     inkscape:current-layer="g2909"
     showgrid="false"
     inkscape:window-width="1280"
     inkscape:window-height="1004"
     inkscape:window-x="-8"
     inkscape:window-y="-8"
     inkscape:window-maximized="1"
     fit-margin-top="0"
     fit-margin-left="0"
     fit-margin-right="0"
     fit-margin-bottom="0" />
  <metadata
     id="metadata2939">
    <rdf:RDF>
      <cc:Work
         rdf:about="">
        <dc:format>image/svg+xml</dc:format>
        <dc:type
           rdf:resource="http://purl.org/dc/dcmitype/StillImage" />
        <dc:title />
      </cc:Work>
    </rdf:RDF>
  </metadata>
  <g
     inkscape:label="Ebene 1"
     inkscape:groupmode="layer"
     id="layer1"
     transform="translate(-63.516846,2678.7036)">
    <g
       id="g3018"
       transform="translate(2,-2)">
      <g
         id="g2909"
         transform="matrix(0.80835983,0,0,0.80835983,-165.10178,-177.02766)">
        <path
           inkscape:connector-curvature="0"
           style="fill:#ffffff;fill-rule:nonzero;stroke:#000000;stroke-width:12.37072849;stroke-miterlimit:4;stroke-opacity:1;stroke-dasharray:none"
           d="m 2958.6154,755.00777 c 0,92.23924 -74.7656,167.00483 -167.0049,167.00483 l -2338.06765,0 c -92.23537,0 -167.00483,-74.76559 -167.00483,-167.00483 l 0,-3674.10637 c 0,-92.2353 74.76946,-167.0048 167.00483,-167.0048 l 2338.06765,0 c 92.2393,0 167.0049,74.7695 167.0049,167.0048 l 0,3674.10637 z"
           id="path11" />
        <path
           inkscape:connector-curvature="0"
           style="fill:#006649;fill-rule:nonzero;stroke:none"
           d="m 453.54286,-3030.4351 c -61.3916,0 -111.33656,49.945 -111.33656,111.3366 l 0,3674.10627 c 0,61.38974 49.94496,111.33656 111.33656,111.33656 l 2338.06774,0 c 61.3897,0 111.3365,-49.94682 111.3365,-111.33656 l 0,-3674.10627 c 0,-61.3916 -49.9468,-111.3366 -111.3365,-111.3366 l -2338.06774,0 z"
           id="path13" />
        <path
           inkscape:connector-curvature="0"
           style="fill:#ffffff;fill-rule:nonzero;stroke:none"
           d="m 1894.9492,-2507.9342 -31.3289,128.1345 64.235,0 -32.9061,-128.1345 z m 79.8994,312.5233 -31.3288,-121.8842 -95.5639,0 -29.7686,121.8842 -64.2335,0 111.2283,-445.3462 62.6732,0 111.2284,445.3462 -64.2351,0 z"
           id="path15" />
        <path
           inkscape:connector-curvature="0"
           style="fill:#ffffff;fill-rule:nonzero;stroke:none"
           d="m 1340.4746,-2250.1019 c -17.2602,39.0668 -53.3534,62.5046 -98.8591,62.5046 -53.3534,0 -92.5826,-26.5645 -114.5514,-76.5686 -14.1243,-32.8164 -23.54,-95.3195 -23.54,-153.1372 0,-62.5047 4.7086,-107.8218 20.3994,-150.0121 15.6922,-46.8774 61.1995,-81.2556 112.9849,-81.2556 64.3355,0 112.9819,46.8789 116.1225,112.5087 l -64.3402,0 c -1.5695,-29.6898 -21.9673,-50.0056 -53.3534,-50.0056 -21.9688,0 -39.2306,10.9388 -50.2143,32.8165 -12.5532,21.876 -20.3993,71.8801 -20.3993,125.0108 0,37.5034 3.1375,76.5671 9.4141,110.9453 9.4157,43.7538 31.3845,67.1932 65.9081,67.1932 32.9541,0 48.6448,-21.8776 48.6448,-68.755 l 0,-29.6897 -50.2143,0 0,-62.5062 114.5545,0 0,92.1959 c 0,31.2516 -3.1406,50.0041 -12.5563,68.755 z"
           id="path17" />
        <path
           inkscape:connector-curvature="0"
           style="fill:#ffffff;fill-rule:nonzero;stroke:none"
           d="m 952.10641,-2195.4094 0,-445.3477 62.34849,0 0,445.3477 -62.34849,0 z"
           id="path19" />
        <path
           inkscape:connector-curvature="0"
           style="fill:#ffffff;fill-rule:nonzero;stroke:none"
           d="m 2101.4321,-2195.4094 0,-445.3477 64.2505,0 0,385.9682 162.9843,0 0,59.3795 -227.2348,0 z"
           id="path21" />
        <path
           inkscape:connector-curvature="0"
           style="fill:#ffffff;fill-rule:nonzero;stroke:none"
           d="m 1643.2621,-2195.4109 -137.227,-298.4593 0,298.4593 -63.9365,0 0,-445.3462 63.9365,0 121.6321,267.2077 0,-267.2077 63.9366,0 0,445.3462 -48.3417,0 z"
           id="path23" />
        <path
           inkscape:connector-curvature="0"
           style="fill:#ffffff;fill-rule:nonzero;stroke:none"
           d="m 753.70312,-2401.0774 c -19.26741,-12.4836 -37.97659,-25.0089 -49.91899,-33.4149 -35.90449,-25.2718 -54.92294,-59.3779 -54.92294,-98.4447 0,-64.068 50.21434,-115.6338 114.55295,-115.6338 62.76753,0 111.41387,48.4407 112.98341,115.6338 l -61.19954,0 c -1.56799,-31.2515 -23.53841,-51.5658 -51.78387,-51.5658 -29.815,0 -53.35341,21.8761 -53.35341,51.5658 0,21.8777 9.41567,34.3783 42.36975,53.1292 86.30593,50.0041 123.96707,98.4463 123.96707,162.5127 0,71.8817 -54.9214,129.6978 -123.96707,129.6978 -78.46289,0 -125.53815,-65.6298 -125.53815,-139.0732 l 62.76753,0 c 0,37.5034 18.83134,76.5686 62.77062,76.5686 34.52206,0 62.76753,-31.2531 62.76753,-67.1932 0,-27.9068 -11.53261,-51.4112 -61.49489,-83.7823 z"
           id="path25" />
        <path
           inkscape:connector-curvature="0"
           style="fill:#ffffff;fill-rule:nonzero;stroke:none"
           d="m 2495.5635,-2401.0774 c -19.2674,-12.4836 -37.9781,-25.0089 -49.9159,-33.4149 -35.906,-25.2718 -54.926,-59.3779 -54.926,-98.4447 0,-64.068 50.2252,-115.6338 114.553,-115.6338 62.7659,0 111.4138,48.4407 112.9911,115.6338 l -61.2042,0 c -1.5618,-31.2515 -23.5353,-51.5658 -51.7869,-51.5658 -29.8135,0 -53.3488,21.8761 -53.3488,51.5658 0,21.8777 9.4172,34.3783 42.3697,53.1292 86.3013,50.0041 123.9702,98.4463 123.9702,162.5127 0,71.8817 -54.926,129.6978 -123.9702,129.6978 -78.4613,0 -125.5474,-65.6298 -125.5474,-139.0732 l 62.7815,0 c 0,37.5034 18.8189,76.5686 62.7659,76.5686 34.5144,0 62.766,-31.2531 62.766,-67.1932 0,-27.9068 -11.5357,-51.4112 -61.498,-83.7823 z"
           id="path27" />
        <path
           inkscape:connector-curvature="0"
           style="fill:#ffffff;fill-rule:nonzero;stroke:none"
           d="m 1808.7453,-1854.5649 0,112.5087 89.3275,0 0,60.9429 -89.3275,0 0,209.39 -64.2551,0 0,-445.3462 227.2348,0 0,62.5046 -162.9797,0 z"
           id="path29" />
        <path
           inkscape:connector-curvature="0"
           style="fill:#ffffff;fill-rule:nonzero;stroke:none"
           d="m 2212.4903,-1806.1242 c -11.0254,-39.0652 -28.3444,-56.2543 -55.0961,-56.2543 -28.329,0 -45.648,17.1891 -56.6734,54.691 -11.0099,34.3782 -14.1645,64.068 -14.1645,114.072 0,48.4422 4.7318,76.5686 14.1645,112.5102 11.0254,37.5019 28.3444,54.6879 56.6734,54.6879 26.7517,0 44.0707,-17.186 55.0961,-54.6879 11.01,-35.9416 14.1645,-62.5062 14.1645,-114.072 0,-50.004 -4.7318,-78.132 -14.1645,-110.9469 z m 50.3644,265.6459 c -22.0354,53.1215 -55.0962,76.564 -105.4605,76.564 -53.5189,0 -85.0024,-23.4425 -107.0377,-76.564 -18.8808,-43.7537 -25.1899,-85.9441 -25.1899,-154.699 0,-67.1932 6.3091,-112.5102 25.1899,-154.7006 23.6126,-53.1277 55.0961,-75.0053 107.0377,-75.0053 51.9416,0 83.4251,21.8776 105.4605,76.5686 18.8963,43.7538 25.1899,85.9441 25.1899,153.1373 0,68.7549 -6.2936,112.5087 -25.1899,154.699 z"
           id="path31" />
        <path
           inkscape:connector-curvature="0"
           style="fill:#ffffff;fill-rule:nonzero;stroke:none"
           d="m 2506.5426,-1854.5649 -65.5031,0 0,112.5087 65.5031,0 c 37.4214,0 57.6939,-20.3143 57.6939,-56.2543 0,-34.3783 -23.3961,-56.2544 -57.6939,-56.2544 z m 54.5703,382.8416 -59.2558,-209.3916 -60.8176,0 0,209.3916 -63.9257,0 0,-445.3462 132.5369,0 c 70.173,0 116.9652,46.8789 116.9652,118.759 0,53.1292 -21.8343,92.1944 -63.9412,107.8217 l 63.9412,218.7655 -65.503,0 z"
           id="path33" />
        <path
           inkscape:connector-curvature="0"
           style="fill:#ffffff;fill-rule:nonzero;stroke:none"
           d="m 943.75771,-1471.7233 0,-445.3462 209.99779,0 0,62.5046 -145.7458,0 0,112.5087 92.4635,0 0,60.9429 -92.4635,0 0,146.8869 162.9844,0 0,62.5031 -227.23639,0 z"
           id="path35" />
        <path
           inkscape:connector-curvature="0"
           style="fill:#ffffff;fill-rule:nonzero;stroke:none"
           d="m 745.35288,-1677.3898 c -19.26741,-12.4836 -37.97505,-25.0089 -49.91899,-33.4148 -35.90449,-25.2719 -54.92294,-59.378 -54.92294,-98.4447 0,-64.0681 50.21588,-115.6339 114.55449,-115.6339 62.76753,0 111.41388,48.4407 112.98341,115.6339 l -61.20108,0 c -1.56799,-31.2516 -23.53686,-51.5659 -51.78233,-51.5659 -29.81655,0 -53.3534,21.8761 -53.3534,51.5659 0,21.8776 9.41412,34.3782 42.3682,53.1291 86.30748,50.0041 123.96861,98.4463 123.96861,162.5128 0,71.8754 -54.92294,129.6931 -123.96861,129.6931 -78.46135,0 -125.53661,-65.6267 -125.53661,-139.0686 l 62.76598,0 c 0,37.5034 18.83135,76.5655 62.77063,76.5655 34.52206,0 62.76753,-31.25 62.76753,-67.19 0,-27.9069 -11.53107,-51.4112 -61.49489,-83.7824 z"
           id="path37" />
        <path
           inkscape:connector-curvature="0"
           style="fill:#ffffff;fill-rule:nonzero;stroke:none"
           d="m 1356.8225,-1857.69 0,385.9667 -64.2535,0 0,-385.9667 -81.4922,0 0,-59.3795 227.2379,0 0,59.3795 -81.4922,0 z"
           id="path39" />
        <path
           inkscape:connector-curvature="0"
           style="fill:#ffffff;fill-rule:nonzero;stroke:none"
           d="m 1738.0063,109.4568 c -12.5006,-6.2471 -20.3127,-7.8244 -42.1919,-7.8244 l -92.2006,0 0,109.388 92.2006,0 c 21.8792,0 29.6913,-1.5618 42.1919,-7.809 15.6274,-7.809 26.5693,-28.1278 26.5693,-46.8849 0,-18.7417 -10.9419,-37.4988 -26.5693,-46.8697 z m 29.696,157.8197 c -20.3174,9.3707 -46.8835,15.6333 -81.2649,15.6333 l -82.8236,0 0,193.7566 -70.3214,0 0,-445.346198 153.145,0 c 35.9432,0 59.3826,3.1237 81.2649,14.0717 39.0652,18.7417 68.7642,65.626798 68.7642,110.934598 0,46.8849 -29.699,93.77 -68.7642,110.95 z"
           id="path41" />
        <path
           inkscape:connector-curvature="0"
           style="fill:#ffffff;fill-rule:nonzero;stroke:none"
           d="m 1249.0565,476.6664 0,-257.8213 -103.3389,257.8213 -103.3373,-257.8213 0,257.8213 -70.45908,0 0,-445.346198 70.45908,0 103.3373,250.027998 103.3389,-250.027998 70.4575,0 0,445.346198 -70.4575,0 z"
           id="path43" />
        <path
           inkscape:connector-curvature="0"
           style="fill:#ffffff;fill-rule:nonzero;stroke:none"
           d="m 2202.903,476.6664 0,-193.7566 -162.5204,0 0,193.7566 -70.3276,0 0,-445.346198 70.3276,0 0,179.700198 162.5204,0 0,-179.700198 70.3276,0 0,445.346198 -70.3276,0 z"
           id="path45" />
        <path
           inkscape:connector-curvature="0"
           style="fill:#ffffff;fill-rule:nonzero;stroke:none"
           d="m 1392.8414,-691.8262 c -119.9419,74.5492 -230.2548,107.548 -296.8974,273.2075 l 437.565,0 0,143.7633 -606.34044,0 c 3.12671,-103.1253 24.65332,-187.7102 75.00994,-271.893 156.2856,-261.239 390.683,-232.3688 390.683,-371.9105 0,-65.6267 -75.0099,-118.759 -162.5219,-118.759 -90.6404,0 -146.8963,43.7615 -162.5267,125.0217 l -140.64434,-31.2517 c 31.2531,-146.8868 146.89624,-237.518 303.17104,-237.518 168.7738,0 303.1694,118.759 303.1694,265.646 0,106.4966 -61.2676,174.3344 -140.6676,223.6937 z"
           id="path47" />
        <path
           inkscape:connector-curvature="0"
           style="fill:#ffffff;fill-rule:nonzero;stroke:none"
           d="m 1930.4224,-259.2217 c -78.1367,0 -156.2671,-18.7418 -218.7749,-49.9934 l 68.7596,-125.0217 c 37.505,18.7572 103.1456,31.2516 168.7723,31.2516 128.1454,0 228.1626,-84.3684 228.1626,-200.0192 0,-87.4919 -71.8894,-156.2578 -159.3967,-156.2578 -62.5186,0 -90.6466,18.7571 -143.7789,93.7547 l -140.6412,-40.6224 21.8776,-459.4179 512.5703,0 0,140.6397 -375.0495,0 -9.3709,146.8869 c 65.6267,-18.7415 93.7548,-25.0042 137.5162,-25.0042 162.5204,0 296.913,137.516 296.913,300.021 0,196.8956 -162.5206,343.7825 -387.5595,343.7825 z"
           id="path49" />
      </g>
    </g>
  </g>
</svg>
