<?xml version="1.0" encoding="UTF-8" standalone="no"?>
<!-- Created with Inkscape (http://www.inkscape.org/) -->

<svg
   xmlns:dc="http://purl.org/dc/elements/1.1/"
   xmlns:cc="http://creativecommons.org/ns#"
   xmlns:rdf="http://www.w3.org/1999/02/22-rdf-syntax-ns#"
   xmlns:svg="http://www.w3.org/2000/svg"
   xmlns="http://www.w3.org/2000/svg"
   xmlns:sodipodi="http://sodipodi.sourceforge.net/DTD/sodipodi-0.dtd"
   xmlns:inkscape="http://www.inkscape.org/namespaces/inkscape"
   width="1359.9896"
   height="820.00525"
   id="svg2934"
   version="1.1"
   inkscape:version="0.48.2 r9819"
   sodipodi:docname="AJAX1.svg">
  <defs
     id="defs2936">
    <inkscape:perspective
       sodipodi:type="inkscape:persp3d"
       inkscape:vp_x="0 : 526.18109 : 1"
       inkscape:vp_y="0 : 1000 : 0"
       inkscape:vp_z="744.09448 : 526.18109 : 1"
       inkscape:persp3d-origin="372.04724 : 350.78739 : 1"
       id="perspective2942" />
    <inkscape:perspective
       id="perspective2924"
       inkscape:persp3d-origin="0.5 : 0.33333333 : 1"
       inkscape:vp_z="1 : 0.5 : 1"
       inkscape:vp_y="0 : 1000 : 0"
       inkscape:vp_x="0 : 0.5 : 1"
       sodipodi:type="inkscape:persp3d" />
  </defs>
  <sodipodi:namedview
     id="base"
     pagecolor="#ffffff"
     bordercolor="#666666"
     borderopacity="1.0"
     inkscape:pageopacity="0.0"
     inkscape:pageshadow="2"
     inkscape:zoom="0.49147406"
     inkscape:cx="434.87615"
     inkscape:cy="360.44259"
     inkscape:document-units="px"
     inkscape:current-layer="g2909"
     showgrid="false"
     inkscape:window-width="1280"
     inkscape:window-height="1004"
     inkscape:window-x="-8"
     inkscape:window-y="-8"
     inkscape:window-maximized="1"
     fit-margin-top="0"
     fit-margin-left="0"
     fit-margin-right="0"
     fit-margin-bottom="0" />
  <metadata
     id="metadata2939">
    <rdf:RDF>
      <cc:Work
         rdf:about="">
        <dc:format>image/svg+xml</dc:format>
        <dc:type
           rdf:resource="http://purl.org/dc/dcmitype/StillImage" />
        <dc:title />
      </cc:Work>
    </rdf:RDF>
  </metadata>
  <g
     inkscape:label="Ebene 1"
     inkscape:groupmode="layer"
     id="layer1"
     transform="translate(-59.146651,244.35324)">
    <g
       id="g3018"
       transform="translate(2,-2)">
      <g
         id="g2909"
         transform="matrix(0.80835983,0,0,0.80835983,-165.10178,-177.02766)">
        <path
           inkscape:connector-curvature="0"
           style="fill:#ffffff;fill-rule:nonzero;stroke:#000000;stroke-width:12.37072849;stroke-linecap:butt;stroke-linejoin:miter;stroke-miterlimit:4;stroke-opacity:1;stroke-dasharray:none"
           d="m 1951.1653,816.07793 c 0,61.49025 -49.8541,111.33656 -111.3366,111.33656 l -1447.37522,0 c -61.48963,0 -111.33655,-49.84631 -111.33655,-111.33656 l 0,-779.355896 c 0,-61.4896 49.84692,-111.3366 111.33655,-111.3366 l 1447.37522,0 c 61.4825,0 111.3366,49.847 111.3366,111.3366 l 0,779.355896 z"
           id="path11" />
        <path
           inkscape:connector-curvature="0"
           style="fill:#005597;fill-rule:nonzero;stroke:none"
           d="m 392.45348,885.66319 c -38.37014,0 -69.58535,-31.21599 -69.58535,-69.58535 l 0,-779.355897 c 0,-38.3701003 31.21521,-69.5853 69.58535,-69.5853 l 1447.37522,0 c 38.3647,0 69.5854,31.2151997 69.5854,69.5853 l 0,779.355897 c 0,38.36936 -31.2207,69.58535 -69.5854,69.58535 l -1447.37522,0 z"
           id="path13" />
        <path
           inkscape:connector-curvature="0"
           style="fill:#ffffff;fill-rule:nonzero;stroke:none"
           d="m 1253.3216,334.25344 -15.986,0 0,34.76793 15.986,0 c 8.9673,0 14.814,-6.25031 14.814,-16.017 0,-10.54759 -6.6292,-18.75093 -14.814,-18.75093 z m 0.7794,-45.31707 -16.7654,0 0,29.68974 16.7654,0 c 7.4054,0 12.0831,-6.25031 12.0831,-16.40667 0,-9.37547 -3.5056,-13.28307 -12.0831,-13.28307 z m 0,95.71232 -32.7484,0 0,-111.33655 35.0865,0 c 14.817,0 25.3414,11.71817 25.3414,28.9073 0,10.15636 -2.7293,14.84487 -11.6965,24.22034 8.5775,7.03121 13.6449,16.40822 13.6449,27.73672 0,16.7979 -13.2553,30.47219 -29.6279,30.47219 z"
           id="path15" />
        <path
           inkscape:connector-curvature="0"
           style="fill:#ffffff;fill-rule:nonzero;stroke:none"
           d="m 1375.0542,384.64869 0,-111.33655 52.4968,0 0,15.62423 -36.4365,0 0,28.12794 23.1163,0 0,15.2361 -23.1163,0 0,36.72096 40.7461,0 0,15.62732 -56.8064,0 z"
           id="path17" />
        <path
           inkscape:connector-curvature="0"
           style="fill:#ffffff;fill-rule:nonzero;stroke:none"
           d="m 1302.6561,384.64869 0,-111.33655 16.0649,0 0,96.49013 40.7446,0 0,14.84642 -56.8095,0 z"
           id="path19" />
        <path
           inkscape:connector-curvature="0"
           style="fill:#ffffff;fill-rule:nonzero;stroke:none"
           d="m 1508.2901,384.64869 0,-62.5062 -20.7318,62.5062 -20.7334,-62.5062 0,62.5062 -16.0371,0 0,-111.33655 16.0371,0 20.7334,62.5031 20.7318,-62.5031 16.0371,0 0,111.33655 -16.0371,0 z"
           id="path21" />
        <path
           inkscape:connector-curvature="0"
           style="fill:#ffffff;fill-rule:nonzero;stroke:none"
           d="m 754.78284,301.04886 c -2.75403,-9.7667 -7.08379,-14.06552 -13.77326,-14.06552 -7.08224,0 -11.41045,4.29882 -14.16449,13.67429 -2.75558,8.59302 -3.54266,16.017 -3.54266,28.51762 0,12.11095 1.1814,19.14216 3.54266,28.1264 2.75404,9.37547 7.08225,13.67275 14.16449,13.67275 6.68947,0 11.01923,-4.29728 13.77326,-13.67275 2.75558,-8.98424 3.54112,-15.62578 3.54112,-28.51762 0,-12.50062 -1.17986,-19.53338 -3.54112,-27.73517 z m 12.5934,66.4107 c -5.50807,13.28153 -13.77326,19.14216 -26.36666,19.14216 -13.37894,0 -21.24827,-5.86063 -26.75634,-19.14216 -4.72253,-10.93881 -6.29825,-21.4864 -6.29825,-38.67553 0,-16.7979 1.57572,-28.1264 6.29825,-38.67554 5.90238,-13.28152 13.77171,-18.75093 26.75634,-18.75093 12.98772,0 20.85859,5.46941 26.36666,19.14216 4.72253,10.93881 6.29515,21.48641 6.29515,38.28431 0,17.18913 -1.57262,28.12794 -6.29515,38.67553 z"
           id="path23" />
        <path
           inkscape:connector-curvature="0"
           style="fill:#ffffff;fill-rule:nonzero;stroke:none"
           d="m 1180.1998,301.04886 c -2.7525,-9.7667 -7.0853,-14.06552 -13.7748,-14.06552 -7.0822,0 -11.4105,4.29882 -14.166,13.67429 -2.7541,8.59302 -3.5427,16.017 -3.5427,28.51762 0,12.11095 1.1814,19.14216 3.5427,28.1264 2.7555,9.37547 7.0838,13.67275 14.166,13.67275 6.6895,0 11.0223,-4.29728 13.7748,-13.67275 2.754,-8.98424 3.5396,-15.62578 3.5396,-28.51762 0,-12.50062 -1.1814,-19.53338 -3.5396,-27.73517 z m 12.5903,66.4107 c -5.5081,13.28153 -13.7717,19.14216 -26.3651,19.14216 -13.3805,0 -21.2483,-5.86063 -26.7563,-19.14216 -4.7241,-10.93881 -6.2967,-21.4864 -6.2967,-38.67553 0,-16.7979 1.5726,-28.1264 6.2967,-38.67554 5.9008,-13.28152 13.7717,-18.75093 26.7563,-18.75093 12.9862,0 20.857,5.46941 26.3651,19.14216 4.7241,10.93881 6.2983,21.48641 6.2983,38.28431 0,17.18913 -1.5742,28.12794 -6.2983,38.67553 z"
           id="path25" />
        <path
           inkscape:connector-curvature="0"
           style="fill:#ffffff;fill-rule:nonzero;stroke:none"
           d="m 1002.0088,288.93637 -16.3727,0 0,31.64432 16.3727,0 c 9.3569,0 14.4258,-5.86063 14.4258,-16.017 0,-9.37701 -5.8483,-15.62732 -14.4258,-15.62732 z m 0.7793,46.87887 -17.152,0 0,48.83345 -15.98453,0 0,-111.33655 33.13653,0 c 17.5448,0 29.2382,12.49907 29.2382,31.25155 0,20.31428 -10.5244,31.25155 -29.2382,31.25155 z"
           id="path27" />
        <path
           inkscape:connector-curvature="0"
           style="fill:#ffffff;fill-rule:nonzero;stroke:none"
           d="m 1086.6539,288.93637 -16.3742,0 0,28.12794 16.3742,0 c 9.3554,0 14.4243,-5.07818 14.4243,-14.06397 0,-8.59302 -5.8452,-14.06397 -14.4243,-14.06397 z m 13.6449,95.71232 -14.8155,-52.34983 -15.2036,0 0,52.34983 -15.9845,0 0,-111.3381 33.1381,0 c 17.5432,0 29.2382,11.71972 29.2382,29.68975 0,13.28307 -5.4586,23.04821 -15.983,26.95581 l 15.983,54.69254 -16.3727,0 z"
           id="path29" />
        <path
           inkscape:connector-curvature="0"
           style="fill:#ffffff;fill-rule:nonzero;stroke:none"
           d="m 828.29589,288.93637 -16.37266,0 0,28.12794 16.37266,0 c 9.35537,0 14.42427,-5.07818 14.42427,-14.06397 0,-8.59302 -5.84826,-14.06397 -14.42427,-14.06397 z m 13.64492,95.71232 -14.81395,-52.34983 -15.20363,0 0,52.34983 -15.98452,0 0,-111.3381 33.13654,0 c 17.54324,0 29.23976,11.71972 29.23976,29.68975 0,13.28307 -5.45858,23.04821 -15.98453,26.95581 l 15.98453,54.69254 -16.3742,0 z"
           id="path31" />
        <path
           inkscape:connector-curvature="0"
           style="fill:#ffffff;fill-rule:nonzero;stroke:none"
           d="m 605.58721,495.88938 c -2.75403,-9.76824 -7.08378,-14.06552 -13.77326,-14.06552 -7.08224,0 -11.41045,4.29728 -14.16448,13.67429 -2.75713,8.59302 -3.54267,16.01546 -3.54267,28.51762 0,12.1094 1.17986,19.14216 3.54267,28.1264 2.75403,9.37547 7.08224,13.67275 14.16448,13.67275 6.68948,0 11.01923,-4.29728 13.77326,-13.67275 2.75404,-8.98424 3.54112,-15.62578 3.54112,-28.51762 0,-12.50062 -1.1814,-19.53338 -3.54112,-27.73517 z m 12.59341,66.41071 c -5.50962,13.28152 -13.77481,19.14215 -26.36667,19.14215 -13.38049,0 -21.24827,-5.86063 -26.75788,-19.14215 -4.72253,-10.93882 -6.2967,-21.48796 -6.2967,-38.67554 0,-16.7979 1.57417,-28.1264 6.2967,-38.67554 5.90393,-13.28307 13.77171,-18.75093 26.75788,-18.75093 12.98618,0 20.85705,5.46786 26.36667,19.14216 4.72097,10.93727 6.29515,21.48641 6.29515,38.28431 0,17.18758 -1.57418,28.1264 -6.29515,38.67554 z"
           id="path33" />
        <path
           inkscape:connector-curvature="0"
           style="fill:#ffffff;fill-rule:nonzero;stroke:none"
           d="m 525.02439,482.99753 0,96.49014 -16.06184,0 0,-96.49014 -20.37305,0 0,-14.84642 56.80793,0 0,14.84642 -20.37304,0 z"
           id="path35" />
        <path
           inkscape:connector-curvature="0"
           style="fill:#ffffff;fill-rule:nonzero;stroke:none"
           d="m 742.94405,579.48921 0,-91.4135 -7.13172,0 0,-12.11094 c 6.33999,-0.38968 10.30327,-3.12515 12.67999,-7.81366 l 10.70068,0 0,111.3381 -16.24895,0 z"
           id="path37" />
        <path
           inkscape:connector-curvature="0"
           style="fill:#ffffff;fill-rule:nonzero;stroke:none"
           d="m 1184.2126,581.44224 c -9.8085,0 -19.2226,-3.51792 -27.4615,-9.76824 l 10.5909,-11.32849 c 5.4941,3.90606 9.81,5.46941 15.301,5.46941 12.162,0 20.7937,-10.93882 20.7937,-26.17492 0,-12.10939 -5.887,-19.53183 -15.2995,-19.53183 -5.1014,0 -9.4172,1.95303 -13.3403,5.46941 l -15.3011,-1.95303 2.7479,-55.47344 52.5679,0 0,15.62578 -37.6596,0 -1.1783,23.43943 c 5.491,-1.95302 8.2389,-2.34425 12.5562,-2.34425 18.0443,0 30.5975,14.4552 30.5975,35.55038 0,23.43944 -14.9083,41.01979 -34.9148,41.01979 z"
           id="path39" />
        <path
           inkscape:connector-curvature="0"
           style="fill:#ffffff;fill-rule:nonzero;stroke:none"
           d="m 1259.9508,581.44224 c -9.81,0 -19.2241,-3.51792 -27.463,-9.76824 l 10.5924,-11.32849 c 5.4942,3.90606 9.81,5.46941 15.2995,5.46941 12.1635,0 20.7952,-10.93882 20.7952,-26.17492 0,-12.10939 -5.8869,-19.53183 -15.301,-19.53183 -5.1014,0 -9.4173,1.95303 -13.3403,5.46941 l -15.2995,-1.95303 2.7478,-55.47344 52.5663,0 0,15.62578 -37.658,0 -1.1783,23.43943 c 5.491,-1.95302 8.2389,-2.34425 12.5547,-2.34425 18.0458,0 30.5975,14.4552 30.5975,35.55038 0,23.43944 -14.9067,41.01979 -34.9133,41.01979 z"
           id="path41" />
        <path
           inkscape:connector-curvature="0"
           style="fill:#ffffff;fill-rule:nonzero;stroke:none"
           d="m 1335.689,581.44224 c -9.81,0 -19.2241,-3.51792 -27.463,-9.76824 l 10.5909,-11.32849 c 5.4942,3.90606 9.81,5.46941 15.3011,5.46941 12.1619,0 20.7936,-10.93882 20.7936,-26.17492 0,-12.10939 -5.8854,-19.53183 -15.2995,-19.53183 -5.1014,0 -9.4172,1.95303 -13.3403,5.46941 l -15.301,-1.95303 2.7478,-55.47344 52.5679,0 0,15.62578 -37.6596,0 -1.1783,23.43943 c 5.491,-1.95302 8.2404,-2.34425 12.5578,-2.34425 18.0427,0 30.5959,14.4552 30.5959,35.55038 0,23.43944 -14.9083,41.01979 -34.9133,41.01979 z"
           id="path43" />
        <path
           inkscape:connector-curvature="0"
           style="fill:#ffffff;fill-rule:nonzero;stroke:none"
           d="m 968.60006,495.88938 c -2.75404,-9.76824 -7.08225,-14.06398 -13.77172,-14.06398 -7.08533,0 -11.41354,4.29574 -14.16757,13.67275 -2.75558,8.59302 -3.54112,16.017 -3.54112,28.51762 0,12.1094 1.17831,19.14216 3.54112,28.1264 2.75403,9.37701 7.08224,13.67275 14.16757,13.67275 6.68947,0 11.01768,-4.29574 13.77172,-13.67275 2.75403,-8.98424 3.54266,-15.62578 3.54266,-28.51762 0,-12.50062 -1.1814,-19.53338 -3.54266,-27.73517 z m 12.59031,66.41071 c -5.50807,13.28307 -13.77172,19.14215 -26.36203,19.14215 -13.38049,0 -21.25136,-5.85908 -26.75943,-19.14215 -4.72407,-10.93573 -6.2967,-21.48641 -6.2967,-38.67554 0,-16.7979 1.57263,-28.1264 6.2967,-38.67554 5.90084,-13.28152 13.77171,-18.75093 26.75943,-18.75093 12.98308,0 20.85396,5.46941 26.36203,19.14216 4.72407,10.93881 6.29824,21.48641 6.29824,38.28431 0,17.18913 -1.57417,28.1264 -6.29824,38.67554 z"
           id="path45" />
        <path
           inkscape:connector-curvature="0"
           style="fill:#ffffff;fill-rule:nonzero;stroke:none"
           d="m 1054.3586,495.88938 c -2.754,-9.76824 -7.0853,-14.06398 -13.7748,-14.06398 -7.0823,0 -11.4105,4.29574 -14.1645,13.67275 -2.7556,8.59302 -3.5411,16.017 -3.5411,28.51762 0,12.1094 1.1783,19.14216 3.5411,28.1264 2.754,9.37701 7.0822,13.67275 14.1645,13.67275 6.6895,0 11.0208,-4.29574 13.7748,-13.67275 2.754,-8.98424 3.5396,-15.62578 3.5396,-28.51762 0,-12.50062 -1.1814,-19.53338 -3.5396,-27.73517 z m 12.5903,66.41071 c -5.5081,13.28307 -13.7717,19.14215 -26.3651,19.14215 -13.3805,0 -21.2483,-5.85908 -26.7594,-19.14215 -4.721,-10.93573 -6.2937,-21.48641 -6.2937,-38.67554 0,-16.7979 1.5727,-28.1264 6.2937,-38.67554 5.9039,-13.28152 13.7748,-18.75093 26.7594,-18.75093 12.9862,0 20.857,5.46941 26.3651,19.14216 4.721,10.93881 6.2982,21.48641 6.2982,38.28431 0,17.18913 -1.5772,28.1264 -6.2982,38.67554 z"
           id="path47" />
        <path
           inkscape:connector-curvature="0"
           style="fill:#ffffff;fill-rule:nonzero;stroke:none"
           d="m 874.08151,481.8254 c -8.23891,0 -14.12583,5.85909 -14.12583,14.06398 0,8.98424 5.88692,14.84332 14.12583,14.84332 7.84304,0 13.72996,-5.85908 13.72996,-14.84332 0,-8.20489 -5.88692,-14.06398 -13.72996,-14.06398 z m 0,44.92585 c -9.41722,0 -15.69382,7.81212 -15.69382,19.92151 0,11.3285 6.2766,19.14216 15.69382,19.14216 9.41412,0 15.68917,-7.81366 15.68917,-19.14216 0,-12.10939 -6.27505,-19.92151 -15.68917,-19.92151 z m 20.39778,47.26855 c -5.10138,5.07819 -11.7692,7.42244 -20.39778,7.42244 -10.9883,0 -18.83135,-3.9076 -24.3255,-11.71972 -4.31583,-6.25031 -7.06059,-14.45365 -7.06059,-23.04976 0,-10.93727 3.5303,-20.70396 10.59244,-27.73517 -5.88383,-6.25031 -9.02136,-14.06397 -9.02136,-23.04821 0,-17.19068 12.15888,-29.6913 29.81501,-29.6913 17.26025,0 29.42068,12.50062 29.42068,29.6913 0,8.98424 -3.13753,17.18758 -9.0229,23.04821 7.06059,6.64153 10.59089,16.7979 10.59089,27.73517 0,10.54914 -3.92307,21.09673 -10.59089,27.34704 z"
           id="path49" />
        <path
           inkscape:connector-curvature="0"
           style="fill:#ffffff;fill-rule:nonzero;stroke:none"
           d="m 773.11007,533.77937 0,-14.84333 55.66828,0 0,14.84333 -55.66828,0 z"
           id="path51" />
        <path
           inkscape:connector-curvature="0"
           style="fill:#ffffff;fill-rule:nonzero;stroke:none"
           d="m 1087.1642,533.77937 0,-14.84333 55.6698,0 0,14.84333 -55.6698,0 z"
           id="path53" />
        <path
           inkscape:connector-curvature="0"
           style="fill:#ffffff;fill-rule:nonzero;stroke:none"
           d="m 1481.5631,581.44224 c -9.8053,0 -19.2225,-3.51792 -27.4584,-9.76824 l 10.5909,-11.32849 c 5.4911,3.90606 9.8069,5.46941 15.3011,5.46941 12.1589,0 20.7905,-10.93882 20.7905,-26.17492 0,-12.10939 -5.8838,-19.53183 -15.2995,-19.53183 -5.0983,0 -9.4141,1.95303 -13.3372,5.46941 l -15.301,-1.95303 2.7448,-55.47344 52.5709,0 0,15.62578 -37.6627,0 -1.1752,23.43943 c 5.4911,-1.95302 8.2358,-2.34425 12.5517,-2.34425 18.0458,0 30.6036,14.4552 30.6036,35.55038 0,23.43944 -14.9098,41.01979 -34.9195,41.01979 z"
           id="path55" />
        <path
           inkscape:connector-curvature="0"
           style="fill:#ffffff;fill-rule:nonzero;stroke:none"
           d="m 1557.3013,581.44224 c -9.8069,0 -19.2241,-3.51792 -27.4599,-9.76824 l 10.5924,-11.32849 c 5.4911,3.90606 9.8069,5.46941 15.2995,5.46941 12.1604,0 20.7921,-10.93882 20.7921,-26.17492 0,-12.10939 -5.8838,-19.53183 -15.301,-19.53183 -5.0983,0 -9.4142,1.95303 -13.3372,5.46941 l -15.2995,-1.95303 2.7447,-55.47344 52.5694,0 0,15.62578 -37.6611,0 -1.1752,23.43943 c 5.491,-1.95302 8.2358,-2.34425 12.5516,-2.34425 18.0458,0 30.6006,14.4552 30.6006,35.55038 0,23.43944 -14.9083,41.01979 -34.9164,41.01979 z"
           id="path57" />
        <path
           inkscape:connector-curvature="0"
           style="fill:#ffffff;fill-rule:nonzero;stroke:none"
           d="m 1633.0381,581.44224 c -9.8054,0 -19.2226,-3.51792 -27.4584,-9.76824 l 10.5909,-11.32849 c 5.491,3.90606 9.8069,5.46941 15.301,5.46941 12.1589,0 20.7906,-10.93882 20.7906,-26.17492 0,-12.10939 -5.8839,-19.53183 -15.2995,-19.53183 -5.0983,0 -9.4142,1.95303 -13.3372,5.46941 l -15.3011,-1.95303 2.7448,-55.47344 52.5709,0 0,15.62578 -37.6626,0 -1.1753,23.43943 c 5.4911,-1.95302 8.2359,-2.34425 12.5532,-2.34425 18.0443,0 30.6006,14.4552 30.6006,35.55038 0,23.43944 -14.9084,41.01979 -34.9179,41.01979 z"
           id="path59" />
        <path
           inkscape:connector-curvature="0"
           style="fill:#ffffff;fill-rule:nonzero;stroke:none"
           d="m 1708.7763,581.44224 c -9.8069,0 -19.2241,-3.51792 -27.4599,-9.76824 l 10.5924,-11.32849 c 5.4911,3.90606 9.8069,5.46941 15.2995,5.46941 12.1604,0 20.7921,-10.93882 20.7921,-26.17492 0,-12.10939 -5.8838,-19.53183 -15.301,-19.53183 -5.0983,0 -9.4141,1.95303 -13.3372,5.46941 l -15.2995,-1.95303 2.7448,-55.47344 52.5694,0 0,15.62578 -37.6612,0 -1.1752,23.43943 c 5.4911,-1.95302 8.2358,-2.34425 12.5517,-2.34425 18.0458,0 30.6005,14.4552 30.6005,35.55038 0,23.43944 -14.9082,41.01979 -34.9164,41.01979 z"
           id="path61" />
        <path
           inkscape:connector-curvature="0"
           style="fill:#ffffff;fill-rule:nonzero;stroke:none"
           d="m 1384.5194,533.77937 0,-14.84333 55.6683,0 0,14.84333 -55.6683,0 z"
           id="path63" />
        <path
           inkscape:connector-curvature="0"
           style="fill:#ffffff;fill-rule:nonzero;stroke:none"
           d="m 455.25039,692.68138 c -1.56644,-10.93882 -5.88228,-16.017 -13.33719,-16.017 -12.94551,0 -17.65257,10.15637 -17.65257,39.06367 0,32.03554 5.49075,44.92584 19.2221,44.92584 9.41567,0 11.76766,-7.81366 11.76766,-16.01545 l 16.08659,0 c -0.39278,18.35971 -12.16352,31.64278 -27.85425,31.64278 -23.93055,0 -34.52237,-19.14216 -34.52237,-60.16195 0,-35.94006 11.37705,-55.08222 33.34561,-55.08222 9.02135,0 16.86749,3.90761 21.96887,11.3285 4.31429,5.47095 5.88382,10.15946 7.06214,20.31583 l -16.08659,0 z"
           id="path65" />
        <path
           inkscape:connector-curvature="0"
           style="fill:#ffffff;fill-rule:nonzero;stroke:none"
           d="m 996.09555,760.65389 c -4.31429,9.76824 -13.33874,15.62733 -24.71517,15.62733 -13.33719,0 -23.14564,-6.64154 -28.63824,-19.14216 -3.5303,-8.20334 -5.88383,-23.82912 -5.88383,-38.28431 0,-15.62733 1.17677,-26.95582 5.09829,-37.50341 3.92461,-11.71972 15.30104,-20.31429 28.24701,-20.31429 16.0835,0 28.24701,11.71972 29.02946,28.12795 l -16.08349,0 c -0.39277,-7.42244 -5.4926,-12.50062 -13.33874,-12.50062 -5.4926,0 -9.80844,2.73393 -12.5532,8.20334 -3.13752,5.46941 -5.09983,17.97157 -5.09983,31.25155 0,9.37701 0.784,19.14216 2.35508,27.73672 2.35198,10.93882 7.84459,16.7979 16.47626,16.7979 8.23736,0 12.16043,-5.46941 12.16043,-17.18758 l 0,-7.42244 -12.5532,0 0,-15.62577 28.63669,0 0,23.04821 c 0,7.81366 -0.78245,12.50062 -3.13752,17.18758 z"
           id="path67" />
        <path
           inkscape:connector-curvature="0"
           style="fill:#ffffff;fill-rule:nonzero;stroke:none"
           d="m 1807.3385,774.32819 0,-50.39526 -30.4073,0 0,50.39526 -15.9861,0 0,-111.33656 15.9861,0 0,45.31552 30.4073,0 0,-45.31552 15.9829,0 0,111.33656 -15.9829,0 z"
           id="path69" />
        <path
           inkscape:connector-curvature="0"
           style="fill:#ffffff;fill-rule:nonzero;stroke:none"
           d="m 812.13354,774.32819 0,-111.33656 15.58711,0 0,111.33656 -15.58711,0 z"
           id="path71" />
        <path
           inkscape:connector-curvature="0"
           style="fill:#ffffff;fill-rule:nonzero;stroke:none"
           d="m 902.50635,774.32819 -34.30867,-74.6156 0,74.6156 -15.98298,0 0,-111.33656 15.98298,0 30.40879,66.80193 0,-66.80193 15.98453,0 0,111.33656 -12.08465,0 z"
           id="path73" />
        <path
           inkscape:connector-curvature="0"
           style="fill:#ffffff;fill-rule:nonzero;stroke:none"
           d="m 619.50583,690.72835 c -2.75403,-9.76669 -7.08224,-14.06397 -13.77171,-14.06397 -7.08225,0 -11.41045,4.29728 -14.16449,13.67429 -2.75867,8.59147 -3.54267,16.01546 -3.54267,28.51608 0,12.11094 1.17986,19.14215 3.54267,28.12639 2.75404,9.37702 7.08224,13.67275 14.16449,13.67275 6.68947,0 11.01768,-4.29573 13.77171,-13.67275 2.75403,-8.98424 3.54267,-15.62577 3.54267,-28.51607 0,-12.50062 -1.18141,-19.53493 -3.54267,-27.73672 z m 12.59495,66.41071 c -5.50962,13.28307 -13.77635,19.14216 -26.36666,19.14216 -13.38049,0 -21.24982,-5.85909 -26.75944,-19.14216 -4.72098,-10.93572 -6.2967,-21.48641 -6.2967,-38.67399 0,-16.7979 1.57572,-28.1264 6.2967,-38.67708 5.90393,-13.28153 13.77172,-18.74939 26.75944,-18.74939 12.98617,0 20.85704,5.46786 26.36666,19.14216 4.71943,10.93727 6.29361,21.48641 6.29361,38.28431 0,17.18758 -1.57418,28.1264 -6.29361,38.67399 z"
           id="path75" />
        <path
           inkscape:connector-curvature="0"
           style="fill:#ffffff;fill-rule:nonzero;stroke:none"
           d="m 525.95993,678.61741 -16.37421,0 0,28.12794 16.37421,0 c 9.35691,0 14.42427,-5.07818 14.42427,-14.06397 0,-8.59302 -5.84827,-14.06397 -14.42427,-14.06397 z m 13.64336,95.71078 -14.81394,-52.34829 -15.20363,0 0,52.34829 -15.98298,0 0,-111.33656 33.13809,0 c 17.54324,0 29.23822,11.71972 29.23822,29.68975 0,13.28152 -5.45704,23.04821 -15.98453,26.95582 l 15.98453,54.69099 -16.37576,0 z"
           id="path77" />
        <path
           inkscape:connector-curvature="0"
           style="fill:#ffffff;fill-rule:nonzero;stroke:none"
           d="m 686.79795,722.9108 c -4.81685,-3.12052 -9.49453,-6.25186 -12.48206,-8.35179 -8.97496,-6.31835 -13.72996,-14.84642 -13.72996,-24.61156 0,-16.01855 12.55629,-28.90885 28.63823,-28.90885 15.69227,0 27.85424,12.1094 28.24702,28.90885 l -15.30105,0 c -0.39122,-7.81366 -5.88383,-12.89185 -12.94597,-12.89185 -7.45336,0 -13.33719,5.46941 -13.33719,12.89185 0,5.46941 2.35199,8.59301 10.59244,13.28152 21.57764,12.50062 30.99177,24.61157 30.99177,40.62857 0,17.97003 -13.72997,32.42522 -30.99177,32.42522 -19.61689,0 -31.38299,-16.40977 -31.38299,-34.76948 l 15.68917,0 c 0,9.37547 4.70861,19.14216 15.69382,19.14216 8.63013,0 15.69072,-7.81366 15.69072,-16.7979 0,-6.97709 -2.88083,-12.85319 -15.37218,-20.94674 z"
           id="path79" />
        <path
           inkscape:connector-curvature="0"
           style="fill:#ffffff;fill-rule:nonzero;stroke:none"
           d="m 762.5331,722.9108 c -4.81531,-3.12052 -9.49144,-6.25186 -12.48052,-8.35179 -8.97651,-6.31835 -13.72996,-14.84642 -13.72996,-24.61156 0,-16.01855 12.55474,-28.90885 28.63824,-28.90885 15.69226,0 27.85269,12.1094 28.24546,28.90885 l -15.2995,0 c -0.39122,-7.81366 -5.88382,-12.89185 -12.94596,-12.89185 -7.45491,0 -13.3372,5.46941 -13.3372,12.89185 0,5.46941 2.35199,8.59301 10.59089,13.28152 21.57765,12.50062 30.99177,24.61157 30.99177,40.62857 0,17.97003 -13.72996,32.42522 -30.99177,32.42522 -19.61533,0 -31.38299,-16.40977 -31.38299,-34.76948 l 15.69072,0 c 0,9.37547 4.70861,19.14216 15.69227,19.14216 8.63013,0 15.69227,-7.81366 15.69227,-16.7979 0,-6.97709 -2.88238,-12.85319 -15.37372,-20.94674 z"
           id="path81" />
        <path
           inkscape:connector-curvature="0"
           style="fill:#ffffff;fill-rule:nonzero;stroke:none"
           d="m 1217.6908,776.28122 c -18.0458,0 -30.599,-12.8903 -31.383,-31.2531 l 15.6908,0 c 0.784,8.98424 7.0637,15.62577 15.6922,15.62577 9.0245,0 15.6923,-7.03121 15.6923,-16.40513 0,-11.72126 -6.6678,-21.48796 -14.5139,-21.48796 l -7.8477,0 0,-15.23455 6.6693,0 c 3.9231,0 5.4942,-1.17212 8.2389,-4.29883 3.1376,-3.51483 4.7087,-7.81211 4.7087,-12.49907 0,-8.59456 -5.1014,-14.06397 -12.9476,-14.06397 -7.0621,0 -11.3779,4.29573 -12.1604,11.71972 l -15.6923,-1.95458 c 1.5696,-14.84333 12.9445,-25.39247 27.8527,-25.39247 16.0851,0 28.2471,12.50217 28.2471,28.51917 0,9.37392 -2.7463,16.79791 -10.1997,25.39247 8.6301,7.81211 12.946,17.97003 12.946,29.30007 0,18.35971 -12.946,32.03246 -30.9934,32.03246 z"
           id="path83" />
        <path
           inkscape:connector-curvature="0"
           style="fill:#ffffff;fill-rule:nonzero;stroke:none"
           d="m 1466.559,776.28122 c -9.8069,0 -19.2226,-3.51638 -27.4584,-9.76669 l 10.5893,-11.3285 c 5.4926,3.90606 9.8085,5.46786 15.3011,5.46786 12.1604,0 20.7921,-10.93727 20.7921,-26.17337 0,-12.11094 -5.8854,-19.53183 -15.3011,-19.53183 -5.0982,0 -9.4141,1.95148 -13.3387,5.46941 l -15.2995,-1.95303 2.7463,-55.47499 52.5679,0 0,15.62578 -37.6596,0 -1.1768,23.44098 c 5.4911,-1.95302 8.2374,-2.34425 12.5532,-2.34425 18.0458,0 30.599,14.4552 30.599,35.55038 0,23.43944 -14.9067,41.01825 -34.9148,41.01825 z"
           id="path85" />
        <path
           inkscape:connector-curvature="0"
           style="fill:#ffffff;fill-rule:nonzero;stroke:none"
           d="m 1296.378,720.4181 c -9.4157,0 -15.6923,8.20334 -15.6923,18.75093 0,12.50062 6.2766,21.48486 15.6923,21.48486 9.4156,0 15.6907,-8.20179 15.6907,-19.92306 0,-11.71971 -6.2751,-20.31273 -15.6907,-20.31273 z m 0,55.86312 c -20.4009,0 -30.9918,-14.84488 -30.9918,-40.23889 0,-26.95118 14.1212,-55.08222 38.4451,-73.8316 l 9.0229,12.50062 c -9.4157,7.03121 -19.6153,20.31428 -23.5384,30.86033 2.7463,-0.38968 5.0998,-0.38968 7.0622,-0.38968 19.221,0 31.386,14.4552 31.386,35.54883 0,21.09519 -12.165,35.55039 -31.386,35.55039 z"
           id="path87" />
        <path
           inkscape:connector-curvature="0"
           style="fill:#ffffff;fill-rule:nonzero;stroke:none"
           d="m 1625.6791,721.9799 c -5.8854,17.19068 -8.2374,32.034 -9.0229,52.34983 l -15.6938,0 0,-2.3458 c 0,-11.32849 2.7478,-29.68974 6.6709,-44.53307 4.707,-17.97158 10.5909,-31.2531 21.5761,-48.83345 l -41.977,0 0,-15.62578 62.3763,0 0,15.62578 c -9.8053,11.33004 -17.6546,25.39246 -23.9296,43.36249 z"
           id="path89" />
        <path
           inkscape:connector-curvature="0"
           style="fill:#ffffff;fill-rule:nonzero;stroke:none"
           d="m 1141.9557,676.66592 c -8.2389,0 -14.1196,5.85909 -14.1196,14.06243 0,8.98424 5.8807,14.84487 14.1196,14.84487 7.8446,0 13.73,-5.86063 13.73,-14.84487 0,-8.20334 -5.8854,-14.06243 -13.73,-14.06243 z m 0,44.9243 c -9.4172,0 -15.6922,7.81367 -15.6922,19.92306 0,11.3285 6.275,19.14216 15.6922,19.14216 9.4141,0 15.6907,-7.81366 15.6907,-19.14216 0,-12.10939 -6.2766,-19.92306 -15.6907,-19.92306 z m 20.3993,47.2701 c -5.0983,5.07664 -11.7707,7.42244 -20.3993,7.42244 -10.9837,0 -18.8298,-3.9076 -24.3239,-11.71972 -4.3159,-6.25031 -7.0622,-14.45519 -7.0622,-23.04976 0,-10.93727 3.5319,-20.70396 10.5925,-27.73517 -5.8839,-6.25186 -9.0214,-14.06552 -9.0214,-23.04976 0,-17.18913 12.1589,-29.68975 29.815,-29.68975 17.2603,0 29.4238,12.50062 29.4238,29.68975 0,8.98424 -3.1391,17.18913 -9.0245,23.04976 7.0606,6.64153 10.5909,16.7979 10.5909,27.73517 0,10.54914 -3.9231,21.09519 -10.5909,27.34704 z"
           id="path91" />
        <path
           inkscape:connector-curvature="0"
           style="fill:#ffffff;fill-rule:nonzero;stroke:none"
           d="m 1546.2203,676.66592 c -9.8085,0 -15.6923,7.42244 -15.6923,19.14216 0,12.1094 5.8838,19.53183 15.6923,19.53183 9.4156,0 15.6907,-7.03121 15.6907,-17.97157 0,-12.50062 -6.2751,-20.70242 -15.6907,-20.70242 z m -7.4534,97.66381 -9.0229,-12.50216 c 9.4157,-7.03276 19.6138,-20.70551 23.5369,-31.25156 -2.7463,0.38968 -4.7086,0.38968 -7.0606,0.38968 -19.2241,0 -31.3846,-13.67275 -31.3846,-35.15761 0,-21.09673 12.1605,-34.76948 31.3846,-34.76948 20.3993,0 30.9917,13.67275 30.9917,39.84612 0,27.34704 -14.1242,54.30286 -38.4451,73.44501 z"
           id="path93" />
        <path
           inkscape:connector-curvature="0"
           style="fill:#ffffff;fill-rule:nonzero;stroke:none"
           d="m 553.13996,189.80817 0,-111.336574 52.49828,0 0,15.6258 -36.43489,0 0,28.127904 23.11626,0 0,15.2346 -23.11626,0 0,36.7225 40.74455,0 0,15.62577 -56.80794,0 z"
           id="path95" />
        <path
           inkscape:connector-curvature="0"
           style="fill:#ffffff;fill-rule:nonzero;stroke:none"
           d="m 758.12139,106.2099 c -2.75558,-9.768204 -7.08379,-14.065504 -13.77481,-14.065504 -7.08224,0 -11.40736,4.2973 -14.16448,13.674304 -2.75558,8.593 -3.54267,16.0154 -3.54267,28.5176 0,12.1094 1.18141,19.14214 3.54267,28.12638 2.75712,9.37547 7.08224,13.67275 14.16448,13.67275 6.69102,0 11.01923,-4.29728 13.77481,-13.67275 2.75403,-8.98424 3.54112,-15.62578 3.54112,-28.51758 0,-12.5007 -1.1814,-19.5334 -3.54112,-27.7352 z m 12.59185,66.4107 c -5.50806,13.28152 -13.77326,19.14215 -26.36666,19.14215 -13.37894,0 -21.24827,-5.86063 -26.75634,-19.14215 -4.72252,-10.93882 -6.29824,-21.488 -6.29824,-38.6755 0,-16.7979 1.57572,-28.1264 6.29824,-38.675604 5.90239,-13.283 13.77172,-18.7504 26.75634,-18.7504 12.98772,0 20.8586,5.4674 26.36666,19.1416 4.72253,10.937304 6.29671,21.486504 6.29671,38.284404 0,17.1875 -1.57418,28.1279 -6.29671,38.6755 z"
           id="path97" />
        <path
           inkscape:connector-curvature="0"
           style="fill:#ffffff;fill-rule:nonzero;stroke:none"
           d="m 661.23384,94.097396 -16.37266,0 0,31.642804 16.37266,0 c 9.35691,0 14.42582,-5.8591 14.42582,-16.0155 0,-9.377 -5.84826,-15.627304 -14.42582,-15.627304 z m 0.77936,46.878904 -17.15202,0 0,48.83187 -15.98452,0 0,-111.336574 33.13654,0 c 17.54478,0 29.23822,12.5006 29.23822,31.253104 0,20.3143 -10.5244,31.2516 -29.23822,31.2516 z"
           id="path99" />
        <path
           inkscape:connector-curvature="0"
           style="fill:#ffffff;fill-rule:nonzero;stroke:none"
           d="m 504.19518,94.097396 -16.37421,0 0,28.127904 16.37421,0 c 9.35691,0 14.42427,-5.0781 14.42427,-14.0639 0,-8.593104 -5.84827,-14.064004 -14.42427,-14.064004 z m 13.64336,95.712324 -14.81394,-52.34982 -15.20363,0 0,52.34982 -15.98453,0 0,-111.338124 33.13809,0 c 17.54324,0 29.23822,11.7197 29.23822,29.689804 0,13.283 -5.45704,23.0482 -15.98298,26.9558 l 15.98298,54.69252 -16.37421,0 z"
           id="path101" />
        <path
           inkscape:connector-curvature="0"
           style="fill:#ffffff;fill-rule:nonzero;stroke:none"
           d="m 831.63444,94.097396 -16.3742,0 0,28.127904 16.3742,0 c 9.35537,0 14.42427,-5.0781 14.42427,-14.0639 0,-8.593104 -5.84826,-14.064004 -14.42427,-14.064004 z m 13.64337,95.712324 -14.81395,-52.34982 -15.20362,0 0,52.34982 -15.98453,0 0,-111.338124 33.13809,0 c 17.54324,0 29.23822,11.7197 29.23822,29.689804 0,13.283 -5.45704,23.0482 -15.98299,26.9558 l 15.98299,54.69252 -16.37421,0 z"
           id="path103" />
        <path
           inkscape:connector-curvature="0"
           style="fill:#ffffff;fill-rule:nonzero;stroke:none"
           d="m 908.10874,93.317996 0,96.491724 -16.06339,0 0,-96.491724 -20.37304,0 0,-14.8464 56.80947,0 0,14.8464 -20.37304,0 z"
           id="path105" />
        <path
           inkscape:connector-curvature="0"
           style="fill:#ffffff;fill-rule:nonzero;stroke:none"
           d="m 1659.7187,108.1614 c -1.5681,-10.938904 -5.8823,-16.017004 -13.3373,-16.017004 -12.9475,0 -17.6545,10.156304 -17.6545,39.065204 0,32.03398 5.4926,44.92582 19.2225,44.92582 9.4172,0 11.7693,-7.81366 11.7693,-16.017 l 16.0865,0 c -0.3928,18.35971 -12.162,31.64278 -27.8558,31.64278 -23.9296,0 -34.5205,-19.14216 -34.5205,-60.1619 0,-35.940104 11.3749,-55.081604 33.3438,-55.081604 9.0229,0 16.8705,3.9069 21.9703,11.3294 4.3128,5.4694 5.8839,10.1563 7.0622,20.314304 l -16.0865,0 z"
           id="path107" />
        <path
           inkscape:connector-curvature="0"
           style="fill:#ffffff;fill-rule:nonzero;stroke:none"
           d="m 1039.8183,189.80817 0,-111.336574 52.4999,0 0,15.6258 -36.4396,0 0,28.126404 23.1178,0 0,15.2361 -23.1178,0 0,36.7225 40.7492,0 0,15.62577 -56.8095,0 z"
           id="path109" />
        <path
           inkscape:connector-curvature="0"
           style="fill:#ffffff;fill-rule:nonzero;stroke:none"
           d="m 1213.5884,189.80817 0,-111.336574 52.4998,0 0,15.6258 -36.4395,0 0,28.126404 23.1178,0 0,15.2361 -23.1178,0 0,36.7225 40.7492,0 0,15.62577 -56.8095,0 z"
           id="path111" />
        <path
           inkscape:connector-curvature="0"
           style="fill:#ffffff;fill-rule:nonzero;stroke:none"
           d="m 1453.0455,189.80817 0,-111.336574 52.4998,0 0,15.6258 -36.438,0 0,28.126404 23.1163,0 0,15.2361 -23.1163,0 0,36.7225 40.7477,0 0,15.62577 -56.8095,0 z"
           id="path113" />
        <path
           inkscape:connector-curvature="0"
           style="fill:#ffffff;fill-rule:nonzero;stroke:none"
           d="m 1427.6391,176.13542 c -4.3158,9.76669 -13.3387,15.62578 -24.7136,15.62578 -13.3387,0 -23.1472,-6.64153 -28.6398,-19.14216 -3.5303,-8.20333 -5.8838,-23.82914 -5.8838,-38.28434 0,-15.6257 1.1783,-26.9558 5.1014,-37.503404 3.9215,-11.7197 15.2979,-20.3136 28.2439,-20.3136 16.085,0 28.247,11.7191 29.031,28.127304 l -16.0851,0 c -0.3927,-7.422504 -5.491,-12.500604 -13.3387,-12.500604 -5.491,0 -9.8038,2.7339 -12.5532,8.203304 -3.1375,5.4694 -5.0998,17.97 -5.0998,31.2516 0,9.377 0.7855,19.1421 2.3535,27.73667 2.3535,10.93882 7.8461,16.79945 16.4778,16.79945 8.2374,0 12.1604,-5.4694 12.1604,-17.18912 l 0,-7.4224 -12.5532,0 0,-15.6258 28.6383,0 0,23.0482 c 0,7.81366 -0.784,12.50062 -3.1391,17.18912 z"
           id="path115" />
        <path
           inkscape:connector-curvature="0"
           style="fill:#ffffff;fill-rule:nonzero;stroke:none"
           d="m 1173.0573,189.80817 0,-62.50467 -20.7334,62.50467 -20.7302,-62.50467 0,62.50467 -16.0371,0 0,-111.336574 16.0371,0 20.7302,62.504704 20.7334,-62.504704 16.0371,0 0,111.336574 -16.0371,0 z"
           id="path117" />
        <path
           inkscape:connector-curvature="0"
           style="fill:#ffffff;fill-rule:nonzero;stroke:none"
           d="m 1579.0754,189.80817 -34.3071,-74.61407 0,74.61407 -15.983,0 0,-111.336574 15.983,0 30.4103,66.801904 0,-66.801904 15.9814,0 0,111.336574 -12.0846,0 z"
           id="path119" />
        <path
           inkscape:connector-curvature="0"
           style="fill:#ffffff;fill-rule:nonzero;stroke:none"
           d="m 1321.6823,94.097396 -16.3727,0 0,28.126404 16.3727,0 c 9.3569,0 14.4242,-5.0782 14.4242,-14.0624 0,-8.594604 -5.8482,-14.064004 -14.4242,-14.064004 z m 13.6433,95.712324 -14.8124,-52.34982 -15.2036,0 0,52.34982 -15.9845,0 0,-111.339624 33.1381,0 c 17.5432,0 29.2382,11.7212 29.2382,29.691304 0,13.283 -5.457,23.0482 -15.9845,26.9542 l 15.9845,54.69412 -16.3758,0 z"
           id="path121" />
        <path
           inkscape:connector-curvature="0"
           style="fill:#ffffff;fill-rule:nonzero;stroke:none"
           d="m 1732.6394,139.4145 0,50.39522 -16.0587,0 0,-50.39522 -27.4182,-60.944404 16.8427,0 18.8005,40.238904 18.4092,-40.238904 17.2308,0 -27.8063,60.944404 z"
           id="path123" />
      </g>
    </g>
  </g>
</svg>
