<?xml version="1.0" encoding="UTF-8" standalone="no"?>
<svg
   xmlns:dc="http://purl.org/dc/elements/1.1/"
   xmlns:cc="http://creativecommons.org/ns#"
   xmlns:rdf="http://www.w3.org/1999/02/22-rdf-syntax-ns#"
   xmlns:svg="http://www.w3.org/2000/svg"
   xmlns="http://www.w3.org/2000/svg"
   xmlns:sodipodi="http://sodipodi.sourceforge.net/DTD/sodipodi-0.dtd"
   xmlns:inkscape="http://www.inkscape.org/namespaces/inkscape"
   width="209.18799"
   height="157.31177"
   viewBox="0 0 590.37499 443.96875"
   version="1.1"
   id="svg2"
   inkscape:version="0.48.2 r9819"
   sodipodi:docname="AJAX1.svg">
  <metadata
     id="metadata62">
    <rdf:RDF>
      <cc:Work
         rdf:about="">
        <dc:format>image/svg+xml</dc:format>
        <dc:type
           rdf:resource="http://purl.org/dc/dcmitype/StillImage" />
        <dc:title></dc:title>
      </cc:Work>
    </rdf:RDF>
  </metadata>
  <defs
     id="defs60" />
  <sodipodi:namedview
     pagecolor="#ffffff"
     bordercolor="#666666"
     borderopacity="1"
     objecttolerance="10"
     gridtolerance="10"
     guidetolerance="10"
     inkscape:pageopacity="0"
     inkscape:pageshadow="2"
     inkscape:window-width="1280"
     inkscape:window-height="1004"
     id="namedview58"
     showgrid="false"
     fit-margin-top="0"
     fit-margin-left="0"
     fit-margin-right="0"
     fit-margin-bottom="0"
     inkscape:zoom="1.3683986"
     inkscape:cx="158.54535"
     inkscape:cy="96.143919"
     inkscape:window-x="-8"
     inkscape:window-y="-8"
     inkscape:window-maximized="1"
     inkscape:current-layer="svg2"
     showguides="true"
     inkscape:guide-bbox="true" />
  <polygon
     points="395,375 315,545 235,375 315,205 "
     id="polygon10"
     style="fill:none;stroke:#ffffff;stroke-width:40"
     transform="translate(1329.7187,14326.375)" />
  <!-- draw the bicycle -->
  <!-- RIGHT -->
  <!-- LANE -->
  <!-- ONLY -->
  <path
     d="m 51.2068,2.4045331 487.9671,0 c 26.8804,0 48.7977,21.9273899 48.7977,48.7977199 l 0,341.594047 c 0,26.87032 -21.9173,48.78767 -48.7977,48.78767 l -487.9671,0 c -26.8804,0 -48.7977,-21.91735 -48.7977,-48.78767 l 0,-341.594047 c 0,-26.52944 22.2482,-48.7977199 48.7977,-48.7977199"
     style="fill:#ffffff;fill-opacity:1;fill-rule:nonzero;stroke:#000000;stroke-width:4.79777765;stroke-linecap:butt;stroke-linejoin:miter;stroke-miterlimit:4;stroke-opacity:1;stroke-dasharray:none"
     id="path3296"
     inkscape:connector-curvature="0" />
  <path
     d="m 51.3932,17.051873 487.5961,0 c 18.7491,0 34.37,15.57075 34.3399,34.33987 l 0,341.213037 c 0.03,18.74907 -15.5908,34.36995 -34.3399,34.33987 l -487.5961,0 c -18.7992,0.0301 -34.3399,-15.5908 -34.3499,-34.33987 l 0,-341.213037 c 0.03,-18.76912 15.5507,-34.33987 34.3499,-34.33987"
     style="fill:#00674c;fill-opacity:1;fill-rule:evenodd;stroke:none"
     id="path3300"
     inkscape:connector-curvature="0" />
  <path
     d="m 507.7567,177.13889 c 0,-13.29479 -10.2368,-20.81447 -30.6904,-24.89515 -10.2267,-1.71449 -11.5903,-2.39628 -11.5903,-5.11339 0,-2.73716 3.0681,-3.75984 10.2167,-3.75984 6.487,0 15.3602,2.39627 22.519,6.14609 l 7.5097,-17.06466 c -11.2595,-5.44425 -20.8145,-7.49963 -30.7004,-7.49963 -17.7364,0 -28.9959,7.85054 -28.9959,20.46355 0,10.90856 6.8279,18.07732 22.1781,22.50892 3.068,1.0327 10.9085,2.73716 14.6583,3.74981 3.7498,0.69181 5.4643,2.39627 5.4643,4.44162 0,2.71712 -5.1234,4.09071 -12.9639,4.09071 -7.1587,0 -16.7037,-2.05538 -23.8725,-5.45427 l -7.4996,17.04461 c 10.2267,5.11338 18.739,6.878 32.0639,6.878 11.2494,0 19.4309,-2.09549 25.5669,-7.20887 4.4416,-3.74981 6.1361,-8.19144 6.1361,-14.3275 m -110.1583,1.01265 c -5.4543,3.08808 -10.5677,3.76987 -14.6684,3.76987 -6.8079,0 -12.603,-3.76987 -12.603,-8.20147 0,-4.4316 4.7624,-7.83049 10.9085,-7.83049 3.7499,0 10.5677,1.01265 16.3629,3.06803 l 0,9.19406 z m 18.4182,19.45091 0,-43.31336 c 0,-19.78178 -11.5904,-29.33678 -31.0312,-29.33678 -9.5551,0 -16.7138,2.05538 -27.2915,7.49963 l 7.1788,15.3602 c 6.8078,-3.74982 13.2948,-5.46431 20.1127,-5.46431 7.1587,0 12.2721,2.73717 12.613,9.54499 -5.7952,-2.04536 -12.2621,-2.71712 -16.3629,-2.71712 -16.7037,0 -29.3267,10.90856 -29.3267,25.57695 0,13.97658 11.2494,23.92261 26.9405,23.92261 5.4443,0 11.9312,-0.68179 18.7491,-3.45906 l 0,2.38625 18.4182,0 z m -85.2532,0 -26.9505,-39.22265 21.1453,-31.72303 -23.1806,0 -9.555,14.3275 -10.2368,-14.3275 -22.8398,0 20.7944,31.72303 -26.9505,39.22265 23.2007,0 16.032,-23.53159 15.3501,23.53159 23.1907,0 z m -119.0315,-45.35871 -23.1807,0 c 2.0354,-6.47696 6.8179,-9.89591 11.9413,-9.89591 5.4543,0 8.5223,2.73717 11.2394,9.89591 m 20.1227,16.03195 0,-2.73716 c 0,-8.8632 -1.3736,-15.69107 -4.0807,-22.16802 -5.1234,-11.24944 -15.6911,-18.4182 -27.2814,-18.4182 -17.4056,0 -32.7457,16.38287 -32.7457,36.83641 0,20.81447 15.6911,36.88654 33.7583,36.88654 9.555,0 17.0647,-3.79995 24.2134,-12.32225 l -13.3048,-11.60036 c -3.058,4.08068 -6.8078,6.48697 -10.9086,6.48697 -6.136,0 -11.9412,-4.78251 -13.9765,-12.96393 l 44.326,0 z m -78.4353,-48.76763 0,-19.45091 -72.2992,0 0,19.45091 26.9405,0 0,78.09439 18.7691,0 0,-78.09439 26.5896,0 z"
     style="fill:#ffffff;fill-opacity:1;fill-rule:evenodd;stroke:none"
     id="path3304"
     inkscape:connector-curvature="0" />
  <path
     d="m 554.5692,343.99149 0,-11.80089 -33.8787,0 0,-20.03242 21.2957,0 0,-11.8009 -21.2957,0 0,-17.96701 31.5526,0 0,-11.55023 -43.1129,0 0,73.15145 45.439,0 z m -62.634,0 0,-73.15145 -11.5502,0 0,46.72227 -26.6999,-46.72227 -11.5502,0 0,73.15145 11.5502,0 0,-49.53965 27.9832,49.53965 10.2669,0 z m -66.9953,-73.15145 -11.8109,0 0,73.15145 11.8109,0 0,-73.15145 z m -22.5891,73.15145 0,-10.78822 -33.8887,0 0,-62.36323 -11.5503,0 0,73.15145 45.439,0 z m -93.9459,0 0,-11.80089 -33.8887,0 0,-20.03242 21.3158,0 0,-11.8009 -21.3158,0 0,-17.96701 31.5827,0 0,-11.55023 -43.1229,0 0,73.15145 45.4289,0 z m -56.2171,-62.88458 0,-10.26687 -45.1582,0 0,10.26687 16.6937,0 0,62.88458 11.5301,0 0,-62.88458 16.9344,0 z m -73.3921,30.54996 -14.6484,0 7.4596,-20.54377 7.1888,20.54377 z m 23.6118,32.33462 -25.1659,-73.15145 -11.5402,0 -25.1558,73.15145 12.3222,0 7.1888,-20.54377 22.8398,0 7.1788,20.54377 12.3323,0 z m -66.2234,-62.88458 0,-10.26687 -45.1782,0 0,10.26687 16.6837,0 0,62.88458 11.5402,0 0,-62.88458 16.9543,0 z m -50.823,41.8395 c 0,-28.75526 -34.41,-19.76171 -35.4227,-33.37735 -0.5113,-6.66745 5.9055,-8.72283 11.2795,-8.46215 8.2316,0.25064 10.7983,6.41679 10.7983,6.41679 l 10.2568,-3.07805 c -3.5793,-8.98352 -10.5175,-14.88897 -20.7844,-14.88897 -13.0942,0 -22.8397,5.38409 -22.8397,19.76172 0,12.07159 9.7455,16.42298 14.1169,18.21769 9.4949,3.86009 20.7744,5.39411 20.7744,15.15968 0,6.15611 -4.6121,10.7782 -11.2795,10.7782 -6.9181,0 -12.583,-3.86012 -15.661,-10.7782 l -11.0389,4.09069 c 4.8727,11.0389 14.1169,18.53853 26.6999,18.53853 6.1561,0 11.7908,-2.0955 15.9216,-5.6949 4.6121,-4.11077 7.1788,-10.01624 7.1788,-16.68368"
     style="fill:#ffffff;fill-opacity:1;fill-rule:evenodd;stroke:none"
     id="path3308"
     inkscape:connector-curvature="0" />
</svg>
