<?xml version="1.0" encoding="UTF-8" standalone="no"?>
<svg
   xmlns:dc="http://purl.org/dc/elements/1.1/"
   xmlns:cc="http://creativecommons.org/ns#"
   xmlns:rdf="http://www.w3.org/1999/02/22-rdf-syntax-ns#"
   xmlns:svg="http://www.w3.org/2000/svg"
   xmlns="http://www.w3.org/2000/svg"
   xmlns:sodipodi="http://sodipodi.sourceforge.net/DTD/sodipodi-0.dtd"
   xmlns:inkscape="http://www.inkscape.org/namespaces/inkscape"
   width="209.18799"
   height="157.31177"
   viewBox="0 0 590.37499 443.96875"
   version="1.1"
   id="svg2"
   inkscape:version="0.48.2 r9819"
   sodipodi:docname="MUTCD I-2.svg">
  <metadata
     id="metadata62">
    <rdf:RDF>
      <cc:Work
         rdf:about="">
        <dc:format>image/svg+xml</dc:format>
        <dc:type
           rdf:resource="http://purl.org/dc/dcmitype/StillImage" />
        <dc:title></dc:title>
      </cc:Work>
    </rdf:RDF>
  </metadata>
  <defs
     id="defs60" />
  <sodipodi:namedview
     pagecolor="#ffffff"
     bordercolor="#666666"
     borderopacity="1"
     objecttolerance="10"
     gridtolerance="10"
     guidetolerance="10"
     inkscape:pageopacity="0"
     inkscape:pageshadow="2"
     inkscape:window-width="1280"
     inkscape:window-height="1004"
     id="namedview58"
     showgrid="false"
     fit-margin-top="0"
     fit-margin-left="0"
     fit-margin-right="0"
     fit-margin-bottom="0"
     inkscape:zoom="1.3683986"
     inkscape:cx="84.935768"
     inkscape:cy="6.7602959"
     inkscape:window-x="-8"
     inkscape:window-y="-8"
     inkscape:window-maximized="1"
     inkscape:current-layer="svg2"
     showguides="true"
     inkscape:guide-bbox="true" />
  <polygon
     points="315,205 395,375 315,545 235,375 "
     id="polygon10"
     style="fill:none;stroke:#ffffff;stroke-width:40"
     transform="translate(4572.1874,13936.406)" />
  <!-- draw the bicycle -->
  <!-- RIGHT -->
  <!-- LANE -->
  <!-- ONLY -->
  <path
     d="m 51.21005,2.3945315 487.9671,0 c 26.8904,0 48.8077,21.9173605 48.8077,48.7977105 l 0,341.583998 c 0,26.88037 -21.9173,48.80777 -48.8077,48.80777 l -487.9671,0 c -26.8904,0 -48.8078,-21.9274 -48.8078,-48.80777 l 0,-341.583998 c 0,-26.53946 22.2483,-48.7977105 48.8078,-48.7977105"
     style="fill:#ffffff;fill-opacity:1;fill-rule:nonzero;stroke:#000000;stroke-width:4.79777765;stroke-linecap:butt;stroke-linejoin:miter;stroke-miterlimit:4;stroke-opacity:1;stroke-dasharray:none"
     id="path3404"
     inkscape:connector-curvature="0" />
  <path
     d="m 51.40055,17.027832 487.5761,0 c 18.8192,-0.01 34.2997,15.5908 34.3599,34.33987 l 0,341.223048 c -0.06,18.75912 -15.5407,34.36996 -34.3599,34.3399 l -487.5761,0 c -18.7992,0.02 -34.3299,-15.58078 -34.37,-34.3399 l 0,-341.223048 c 0.04,-18.74907 15.5708,-34.33987 34.37,-34.33987"
     style="fill:#00674c;fill-opacity:1;fill-rule:evenodd;stroke:none"
     id="path3408"
     inkscape:connector-curvature="0" />
  <path
     d="m 545.54375,167.34328 c 0,-13.30482 -10.2669,-20.80445 -30.7104,-24.89516 -10.2368,-1.71449 -11.6104,-2.38625 -11.6104,-5.11338 0,-2.72714 3.0982,-3.74982 10.2469,-3.74982 6.4769,0 15.3501,2.38625 22.4988,6.13606 l 7.5197,-17.06466 c -11.2594,-5.45427 -20.8245,-7.49963 -30.7103,-7.49963 -17.7164,0 -28.9759,7.85055 -28.9759,20.46356 0,10.91858 6.8078,18.07731 22.158,22.50891 3.058,1.0327 10.9086,2.73717 14.6684,3.75984 3.7398,0.67176 5.4643,2.38625 5.4643,4.42157 0,2.72714 -5.1234,4.10074 -12.9639,4.10074 -7.1688,0 -16.7238,-2.03533 -23.8725,-5.46431 l -7.4996,17.05464 c 10.2267,5.12341 18.7691,6.878 32.0639,6.878 11.2394,0 19.4208,-2.09548 25.5669,-7.21889 4.4316,-3.74982 6.1561,-8.17139 6.1561,-14.31747 m -103.0096,-15.00929 c 0,10.22677 -6.4769,18.41821 -13.6457,18.41821 -7.5197,0 -13.3148,-8.19144 -13.3148,-18.41821 0,-10.57768 5.7951,-18.74907 13.3148,-18.74907 7.1688,0 13.6457,8.17139 13.6457,18.74907 m 19.7818,0 c 0,-20.46355 -16.3929,-37.1773 -33.4275,-37.1773 -18.4282,0 -32.7357,16.03196 -32.7357,37.1773 0,20.45353 14.9893,36.88654 32.7357,36.88654 17.3855,0 33.4275,-16.43301 33.4275,-36.88654 m -87.9803,35.46282 0,-19.08996 -35.8137,0 35.8137,-36.1446 0,-15.69107 -64.1278,0 0,19.09999 32.4048,0 -34.4702,34.78103 0,17.04461 66.1932,0 z m -115.2817,-19.42083 c -5.4643,3.04798 -10.5777,3.74981 -14.6884,3.74981 -6.7978,0 -12.6131,-3.74981 -12.6131,-8.19144 0,-4.44162 4.7826,-7.85054 10.9287,-7.85054 3.7397,0 10.5776,1.0327 16.3728,3.07805 l 0,9.21412 z m 18.4082,19.42083 0,-43.31336 c 0,-19.77175 -11.5904,-29.32676 -31.0413,-29.32676 -9.5349,0 -16.7037,2.04536 -27.2713,7.49963 l 7.1386,15.35017 c 6.8379,-3.74981 13.3249,-5.44424 20.1327,-5.44424 7.1688,0 12.2822,2.71711 12.6331,9.54498 -5.7952,-2.04536 -12.2821,-2.73717 -16.3728,-2.73717 -16.7238,0 -29.3569,10.92861 -29.3569,25.57694 0,13.99664 11.2795,23.93264 26.9706,23.93264 5.4443,0 11.9212,-0.67176 18.7591,-3.45905 l 0,2.37622 18.4082,0 z m -78.4253,-67.51671 c -4.8025,-3.74981 -9.2241,-5.12341 -15.0193,-5.12341 -5.1134,0 -9.2041,1.3736 -13.9866,5.12341 l 0,-3.40892 -19.4409,0 0,70.92563 19.4409,0 0,-39.21263 c 0,-9.88587 2.7271,-14.99926 11.2595,-14.99926 3.7398,0 8.5223,1.69444 11.2594,6.13606 l 6.487,-19.44088 z m -94.8181,38.53085 c 0,5.80519 -4.1208,9.56503 -11.2595,9.56503 l -28.9859,0 0,-22.52897 26.2588,0 c 3.3888,0 5.4442,0.35093 7.4996,1.3736 4.0907,2.04535 6.487,6.81785 6.487,11.59034 m -3.0781,-41.6089 c 0,5.1234 -4.4216,9.21411 -10.5777,9.21411 l -26.5896,0 0,-16.71374 28.3141,0 c 5.7952,0 8.8532,2.72713 8.8532,7.49963 m 22.168,41.6089 c 0,-9.21412 -3.4089,-16.70372 -10.9286,-22.83978 5.4844,-5.12341 7.8506,-11.25947 7.8506,-18.76912 0,-9.54499 -5.1034,-18.749078 -13.2948,-23.180668 -5.1134,-3.07806 -8.1814,-3.75985 -16.7037,-3.75985 l -45.3688,0 0,97.535278 45.3688,0 4.4316,0 c 4.7724,0 9.8858,-1.34352 14.3275,-3.73979 8.8732,-5.11338 14.3174,-14.65836 14.3174,-25.24607"
     style="fill:#ffffff;fill-opacity:1;fill-rule:evenodd;stroke:none"
     id="path3412"
     inkscape:connector-curvature="0" />
  <path
     d="m 489.41685,286.14529 c -4.7925,-3.73979 -9.2241,-5.11339 -15.0193,-5.11339 -5.1134,0 -9.2041,1.3736 -13.9766,5.11339 l 0,-3.3989 -19.4509,0 0,70.93566 19.4509,0 0,-39.23267 c 0,-9.87586 2.7372,-14.98925 11.2595,-14.98925 3.7599,0 8.5123,1.70445 11.2595,6.13608 l 6.4769,-19.45092 z m -98.5679,22.17803 -23.1908,0 c 2.0554,-6.48696 6.8179,-9.89589 11.9213,-9.89589 5.4643,0 8.5423,2.73715 11.2695,9.89589 m 20.1226,16.03197 0,-2.73716 c 0,-8.86319 -1.3736,-15.68106 -4.0907,-22.158 -5.1134,-11.25946 -15.7011,-18.42823 -27.3014,-18.42823 -17.3856,0 -32.7357,16.38288 -32.7357,36.8364 0,20.80446 15.7011,36.89658 33.7784,36.89658 9.5349,0 17.0346,-3.80997 24.2033,-12.34231 l -13.2948,-11.59034 c -3.058,4.08068 -6.8379,6.487 -10.9085,6.487 -6.1461,0 -11.9413,-4.78251 -13.9966,-12.96394 l 44.346,0 z m -83.2178,-41.6089 -20.4435,0 -16.3929,45.3587 -17.7264,-45.3587 -20.1327,0 26.6197,70.93566 21.4762,0 26.5996,-70.93566 z m -102.6587,0 -19.4408,0 0,70.93566 19.4408,0 0,-70.93566 z m -0.3308,-18.42823 c 0,-5.44425 -4.1108,-9.54498 -9.555,-9.54498 -5.1134,0 -9.2041,4.10073 -9.2041,9.54498 0,5.11338 4.0907,9.54498 9.2041,9.54498 5.4442,0 9.555,-4.4316 9.555,-9.54498 m -65.8323,22.17804 c 0,6.81785 -5.1134,11.24945 -12.2822,11.24945 l -26.6096,0 0,-22.15799 26.6096,0 c 7.1688,0 12.2822,4.76246 12.2822,10.90854 m 20.4635,67.18585 -15.3602,-41.268 c 8.8732,-5.8052 13.9866,-15.35019 13.9866,-25.91785 0,-10.90854 -5.7951,-20.80445 -15.3301,-26.26875 -5.4643,-3.06803 -9.555,-4.0907 -17.7464,-4.0907 l -44.0052,0 0,97.5453 19.1,0 0,-36.49551 25.597,0 13.2948,36.49551 20.4635,0 z"
     style="fill:#ffffff;fill-opacity:1;fill-rule:evenodd;stroke:none"
     id="path3416"
     inkscape:connector-curvature="0" />
</svg>
