<?xml version="1.0" encoding="UTF-8" standalone="no"?>
<svg
   xmlns:dc="http://purl.org/dc/elements/1.1/"
   xmlns:cc="http://creativecommons.org/ns#"
   xmlns:rdf="http://www.w3.org/1999/02/22-rdf-syntax-ns#"
   xmlns:svg="http://www.w3.org/2000/svg"
   xmlns="http://www.w3.org/2000/svg"
   xmlns:sodipodi="http://sodipodi.sourceforge.net/DTD/sodipodi-0.dtd"
   xmlns:inkscape="http://www.inkscape.org/namespaces/inkscape"
   width="135.79724"
   height="113.28617"
   viewBox="0 0 383.24999 319.71874"
   version="1.1"
   id="svg2"
   inkscape:version="0.48.2 r9819"
   sodipodi:docname="MUTCD D10-5.svg">
  <metadata
     id="metadata62">
    <rdf:RDF>
      <cc:Work
         rdf:about="">
        <dc:format>image/svg+xml</dc:format>
        <dc:type
           rdf:resource="http://purl.org/dc/dcmitype/StillImage" />
        <dc:title></dc:title>
      </cc:Work>
    </rdf:RDF>
  </metadata>
  <defs
     id="defs60" />
  <sodipodi:namedview
     pagecolor="#ffffff"
     bordercolor="#666666"
     borderopacity="1"
     objecttolerance="10"
     gridtolerance="10"
     guidetolerance="10"
     inkscape:pageopacity="0"
     inkscape:pageshadow="2"
     inkscape:window-width="1280"
     inkscape:window-height="1004"
     id="namedview58"
     showgrid="false"
     fit-margin-top="0"
     fit-margin-left="0"
     fit-margin-right="0"
     fit-margin-bottom="0"
     inkscape:zoom="2.9670668"
     inkscape:cx="42.387676"
     inkscape:cy="51.549438"
     inkscape:window-x="-8"
     inkscape:window-y="-8"
     inkscape:window-maximized="1"
     inkscape:current-layer="svg2"
     showguides="true"
     inkscape:guide-bbox="true" />
  <polygon
     points="395,375 315,545 235,375 315,205 "
     id="polygon10"
     style="fill:none;stroke:#ffffff;stroke-width:40"
     transform="translate(-15496.969,23518.468)" />
  <!-- draw the bicycle -->
  <!-- RIGHT -->
  <!-- LANE -->
  <!-- ONLY -->
  <path
     inkscape:connector-curvature="0"
     d="m 24.83246,1.1198895 333.59725,0 c 13.02808,0 23.69255,10.6609445 23.69255,23.6925555 l 0,270.090195 c 0,13.03161 -10.66447,23.68902 -23.69255,23.68902 l -333.59725,0 c -13.02809,0 -23.68903,-10.65741 -23.68903,-23.68902 l 0,-270.090195 c 0,-13.031611 10.66094,-23.6925555 23.68903,-23.6925555"
     style="fill:#ffffff;fill-opacity:1;fill-rule:nonzero;stroke:#000000;stroke-width:2.25777769;stroke-miterlimit:4;stroke-opacity:1;stroke-dasharray:none"
     id="path5671" />
  <path
     inkscape:connector-curvature="0"
     d="m 24.83246,9.0573895 333.59725,0 c 8.66422,0 15.75505,7.0908335 15.75505,15.7550555 l 0,270.090195 c 0,8.66422 -7.09083,15.75505 -15.75505,15.75505 l -333.59725,0 c -8.66423,0 -15.75153,-7.09083 -15.75153,-15.75505 l 0,-270.090195 c 0,-8.664222 7.0873,-15.7550555 15.75153,-15.7550555"
     style="fill:#155196;fill-opacity:1;fill-rule:evenodd;stroke:none"
     id="path5695" />
  <path
     inkscape:connector-curvature="0"
     d="m 123.54321,281.45297 -6.53345,-14.17814 0,14.17814 -3.04094,0 0,-21.15255 3.04094,0 5.79261,12.68941 0,-12.68941 3.04095,0 0,21.15255 -2.30011,0 z"
     style="fill:#ffffff;fill-opacity:1;fill-rule:nonzero;stroke:none"
     id="path5699" />
  <path
     inkscape:connector-curvature="0"
     d="m 130.44351,281.45297 0,-21.15255 9.94481,0 0,2.97038 -6.90034,0 0,5.34106 4.37798,0 0,2.89631 -4.37798,0 0,6.97441 7.71878,0 0,2.97039 -10.76325,0 z"
     style="fill:#ffffff;fill-opacity:1;fill-rule:nonzero;stroke:none"
     id="path5703" />
  <path
     inkscape:connector-curvature="0"
     d="m 152.26493,281.45297 -2.97038,-7.20019 -2.96687,7.20019 -3.19263,0 4.60022,-10.98197 -4.30389,-10.17058 3.19264,0 2.67053,6.38175 2.67052,-6.38175 3.19264,0 -4.2298,10.17058 4.60375,10.98197 -3.26673,0 z"
     style="fill:#ffffff;fill-opacity:1;fill-rule:nonzero;stroke:none"
     id="path5707" />
  <path
     inkscape:connector-curvature="0"
     d="m 163.69389,263.12264 0,18.33033 -3.04447,0 0,-18.33033 -3.85586,0 0,-2.82222 10.75972,0 0,2.82222 -3.85939,0 z"
     style="fill:#ffffff;fill-opacity:1;fill-rule:nonzero;stroke:none"
     id="path5711" />
  <path
     inkscape:connector-curvature="0"
     d="m 185.88398,281.82339 c -3.41489,0 -5.78908,-2.44828 -5.93725,-5.93725 l 2.97039,0 c 0.14816,1.70744 1.33703,2.97039 2.96686,2.97039 1.70744,0 2.97039,-1.33703 2.97039,-3.11856 0,-2.22603 -1.26295,-4.08164 -2.74461,-4.08164 l -1.4852,0 0,-2.8963 1.25942,0 c 0.74083,0 1.04069,-0.22225 1.55928,-0.81492 0.59266,-0.67028 0.889,-1.48519 0.889,-2.37419 0,-1.63337 -0.96309,-2.67406 -2.44828,-2.67406 -1.3335,0 -2.15195,0.81844 -2.30011,2.22603 l -2.97039,-0.37042 c 0.29986,-2.81869 2.4518,-4.826 5.2705,-4.826 3.04447,0 5.34458,2.37772 5.34458,5.41867 0,1.78153 -0.51858,3.19264 -1.92969,4.826 1.63336,1.48519 2.44828,3.41136 2.44828,5.56683 0,3.48897 -2.44828,6.08542 -5.86317,6.08542"
     style="fill:#ffffff;fill-opacity:1;fill-rule:nonzero;stroke:none"
     id="path5715" />
  <path
     inkscape:connector-curvature="0"
     d="m 216.79329,281.45297 0,-11.8745 -3.93347,11.8745 -3.937,-11.8745 0,11.8745 -3.04094,0 0,-21.15255 3.04094,0 3.937,11.8745 3.93347,-11.8745 3.04095,0 0,21.15255 -3.04095,0 z"
     style="fill:#ffffff;fill-opacity:1;fill-rule:nonzero;stroke:none"
     id="path5719" />
  <path
     inkscape:connector-curvature="0"
     d="m 224.43658,260.30183 2.97039,0 0,21.15255 -2.97039,0 0,-21.15255 z"
     style="fill:#ffffff;fill-opacity:1;fill-rule:nonzero;stroke:none"
     id="path5721" />
  <path
     inkscape:connector-curvature="0"
     d="m 232.08268,281.45297 0,-21.15255 3.04095,0 0,18.33033 7.7223,0 0,2.82222 -10.76325,0 z"
     style="fill:#ffffff;fill-opacity:1;fill-rule:nonzero;stroke:none"
     id="path5725" />
  <path
     inkscape:connector-curvature="0"
     d="m 245.81491,281.45297 0,-21.15255 9.94481,0 0,2.97038 -6.90386,0 0,5.34106 4.37797,0 0,2.89631 -4.37797,0 0,6.97441 7.7223,0 0,2.97039 -10.76325,0 z"
     style="fill:#ffffff;fill-opacity:1;fill-rule:nonzero;stroke:none"
     id="path5729" />
  <path
     inkscape:connector-curvature="0"
     d="m 265.03495,281.82339 c -3.71122,0 -5.93725,-3.11503 -5.93725,-6.60753 l 2.97039,0 c 0,1.78153 0.889,3.64067 2.96686,3.64067 1.63336,0 2.97039,-1.4852 2.97039,-3.19264 0,-1.18886 -0.4445,-2.08139 -1.70745,-3.04447 -0.44802,-0.4445 0.74084,0.37041 -3.56305,-2.52237 -1.70745,-1.18886 -2.59997,-2.82222 -2.59997,-4.6743 0,-3.04447 2.37772,-5.49628 5.42219,-5.49628 2.96686,0 5.2705,2.30364 5.34106,5.49628 l -2.89278,0 c -0.0741,-1.4852 -1.11478,-2.44828 -2.44828,-2.44828 -1.41111,0 -2.52236,1.03717 -2.52236,2.44828 0,1.03717 0.4445,1.63336 2.00025,2.52236 4.08164,2.37419 5.86317,4.67431 5.86317,7.71878 0,3.41489 -2.59645,6.1595 -5.86317,6.1595"
     style="fill:#ffffff;fill-opacity:1;fill-rule:nonzero;stroke:none"
     id="path5733" />
  <path
     inkscape:connector-curvature="0"
     d="m 43.42912,96.364922 296.40389,0 c 5.79614,0 10.53747,4.741328 10.53747,10.537468 l 0,105.91095 c 0,5.79614 -4.74133,10.541 -10.53747,10.541 l -296.40389,0 c -5.79614,0 -10.53747,-4.74486 -10.53747,-10.541 l 0,-105.91095 c 0,-5.79614 4.74133,-10.537468 10.53747,-10.537468"
     style="fill:#ffffff;fill-opacity:1;fill-rule:evenodd;stroke:none"
     id="path5737" />
  <path
     inkscape:connector-curvature="0"
     d="m 43.42912,100.33367 296.40389,0 c 3.61245,0 6.56872,2.95628 6.56872,6.56872 l 0,105.91095 c 0,3.61597 -2.95627,6.57225 -6.56872,6.57225 l -296.40389,0 c -3.61244,0 -6.56872,-2.95628 -6.56872,-6.57225 l 0,-105.91095 c 0,-3.61244 2.95628,-6.56872 6.56872,-6.56872"
     style="fill:#155196;fill-opacity:1;fill-rule:evenodd;stroke:none"
     id="path5741" />
  <path
     inkscape:connector-curvature="0"
     d="m 123.47262,146.8492 -8.08919,-14.32278 0,14.32278 -3.34081,0 0,-21.15256 3.34081,0 7.71878,13.50787 0,-13.50787 3.3408,0 0,21.15256 -2.97039,0 z"
     style="fill:#ffffff;fill-opacity:1;fill-rule:nonzero;stroke:none"
     id="path5745" />
  <path
     inkscape:connector-curvature="0"
     d="m 138.61385,131.55981 -2.15195,5.93725 4.22981,0 -2.07786,-5.93725 z m 5.34458,15.28939 -2.07786,-5.93725 -6.60753,0 -2.07786,5.93725 -3.56306,0 7.27428,-21.15256 3.34081,0 7.27075,21.15256 -3.55953,0 z"
     style="fill:#ffffff;fill-opacity:1;fill-rule:nonzero;stroke:none"
     id="path5749" />
  <path
     inkscape:connector-curvature="0"
     d="m 160.43315,129.40857 c -0.59267,-0.29986 -0.96308,-0.37041 -2.00378,-0.37041 l -4.37797,0 0,5.19288 4.37797,0 c 1.0407,0 1.41111,-0.0741 2.00378,-0.37041 0.74436,-0.37042 1.26295,-1.33703 1.26295,-2.22603 0,-0.89253 -0.51859,-1.78153 -1.26295,-2.22603 m 1.41111,7.493 c -0.96661,0.44803 -2.22603,0.74436 -3.85939,0.74436 l -3.93347,0 0,9.20397 -3.3408,0 0,-21.15255 7.27427,0 c 1.70745,0 2.8187,0.14817 3.85939,0.66675 1.85561,0.89253 3.26672,3.11856 3.26672,5.2705 0,2.22603 -1.41111,4.45206 -3.26672,5.26697"
     style="fill:#ffffff;fill-opacity:1;fill-rule:nonzero;stroke:none"
     id="path5753" />
  <path
     inkscape:connector-curvature="0"
     d="m 168.22601,146.8492 0,-21.15256 12.4707,0 0,3.34081 -9.12989,0 0,5.19289 6.1595,0 0,3.41489 -6.1595,0 0,5.78908 9.79664,0 0,3.41489 -13.13745,0 z"
     style="fill:#ffffff;fill-opacity:1;fill-rule:nonzero;stroke:none"
     id="path5757" />
  <path
     inkscape:connector-curvature="0"
     d="m 194.20386,129.40857 c -0.52211,-0.29986 -0.81844,-0.37041 -1.92969,-0.37041 l -4.00756,0 0,5.19288 4.00756,0 c 1.03716,0 1.40758,-0.0741 1.92969,-0.37041 0.81492,-0.4445 1.3335,-1.33703 1.3335,-2.22603 0,-0.89253 -0.51858,-1.78153 -1.3335,-2.22603 m 1.4852,17.44133 -3.41489,-9.20397 -4.00756,0 0,9.20397 -3.3408,0 0,-21.15255 6.97794,0 c 1.62983,0 2.74461,0.14817 3.78531,0.66675 1.85208,0.89253 3.18911,3.11856 3.18911,5.2705 0,2.22603 -1.33703,4.45206 -3.26673,5.34458 l 3.71123,9.87072 -3.63361,0 z"
     style="fill:#ffffff;fill-opacity:1;fill-rule:nonzero;stroke:none"
     id="path5761" />
  <path
     inkscape:connector-curvature="0"
     d="m 210.30958,146.8492 -2.59645,0 -6.68161,-21.15256 3.48545,0 4.52966,14.10406 4.45206,-14.10406 3.56305,0 -6.75216,21.15256 z"
     style="fill:#ffffff;fill-opacity:1;fill-rule:nonzero;stroke:none"
     id="path5765" />
  <path
     inkscape:connector-curvature="0"
     d="m 220.17855,125.69594 3.41489,0 0,21.15255 -3.41489,0 0,-21.15255 z"
     style="fill:#ffffff;fill-opacity:1;fill-rule:nonzero;stroke:none"
     id="path5767" />
  <path
     inkscape:connector-curvature="0"
     d="m 228.64098,146.8492 0,-21.15256 3.33728,0 0,18.034 9.80017,0 0,3.11856 -13.13745,0 z"
     style="fill:#ffffff;fill-opacity:1;fill-rule:nonzero;stroke:none"
     id="path5771" />
  <path
     inkscape:connector-curvature="0"
     d="m 244.89487,146.8492 0,-21.15256 3.33727,0 0,18.034 9.80017,0 0,3.11856 -13.13744,0 z"
     style="fill:#ffffff;fill-opacity:1;fill-rule:nonzero;stroke:none"
     id="path5775" />
  <path
     inkscape:connector-curvature="0"
     d="m 261.14875,146.8492 0,-21.15256 12.46717,0 0,3.34081 -9.12989,0 0,5.19289 6.1595,0 0,3.41489 -6.1595,0 0,5.78908 9.80016,0 0,3.41489 -13.13744,0 z"
     style="fill:#ffffff;fill-opacity:1;fill-rule:nonzero;stroke:none"
     id="path5779" />
  <path
     inkscape:connector-curvature="0"
     d="m 76.3059,194.271 0,-21.15256 12.47069,0 0,3.34081 -9.12989,0 0,5.19642 6.1595,0 0,3.41488 -6.1595,0 0,5.78556 9.79664,0 0,3.41489 -13.13744,0 z"
     style="fill:#ffffff;fill-opacity:1;fill-rule:nonzero;stroke:none"
     id="path5783" />
  <path
     inkscape:connector-curvature="0"
     d="m 100.42672,194.271 -2.59644,0 -6.68161,-21.15256 3.48897,0 4.52967,14.10053 4.45205,-14.10053 3.55953,0 -6.75217,21.15256 z"
     style="fill:#ffffff;fill-opacity:1;fill-rule:nonzero;stroke:none"
     id="path5787" />
  <path
     inkscape:connector-curvature="0"
     d="m 110.29674,194.271 0,-21.15256 12.47069,0 0,3.34081 -9.12988,0 0,5.19642 6.1595,0 0,3.41488 -6.1595,0 0,5.78556 9.79663,0 0,3.41489 -13.13744,0 z"
     style="fill:#ffffff;fill-opacity:1;fill-rule:nonzero;stroke:none"
     id="path5791" />
  <path
     inkscape:connector-curvature="0"
     d="m 138.42583,194.271 -8.0892,-14.32631 0,14.32631 -3.3408,0 0,-21.15256 3.3408,0 7.71878,13.50786 0,-13.50786 3.34081,0 0,21.15256 -2.97039,0 z"
     style="fill:#ffffff;fill-opacity:1;fill-rule:nonzero;stroke:none"
     id="path5795" />
  <path
     inkscape:connector-curvature="0"
     d="m 146.44094,173.11633 3.41489,0 0,21.15255 -3.41489,0 0,-21.15255 z"
     style="fill:#ffffff;fill-opacity:1;fill-rule:nonzero;stroke:none"
     id="path5797" />
  <path
     inkscape:connector-curvature="0"
     d="m 166.33301,194.271 -8.0892,-14.32631 0,14.32631 -3.3408,0 0,-21.15256 3.3408,0 7.71878,13.50786 0,-13.50786 3.34081,0 0,21.15256 -2.97039,0 z"
     style="fill:#ffffff;fill-opacity:1;fill-rule:nonzero;stroke:none"
     id="path5801" />
  <path
     inkscape:connector-curvature="0"
     d="m 181.62239,194.64319 c -3.19263,0 -5.04824,-1.18886 -6.31119,-3.86291 -0.889,-1.85209 -1.40758,-4.44853 -1.40758,-7.0485 0,-3.41489 0.96308,-6.7557 2.37419,-8.60778 1.26295,-1.56281 3.04447,-2.37772 5.41867,-2.37772 3.26672,0 5.19641,1.33702 6.60753,4.67783 l -3.19264,1.26294 c -0.89253,-1.85913 -1.78153,-2.52588 -3.41489,-2.52588 -1.70745,0 -2.8187,0.74436 -3.56306,2.59644 -0.51858,1.26294 -0.81491,3.19264 -0.81491,4.97417 0,2.22602 0.37041,4.45205 1.03716,5.78908 0.67028,1.18886 1.63336,1.70744 2.89631,1.70744 2.15194,0 3.71122,-1.33702 3.71122,-3.26672 l 0,-0.889 -3.85939,0 0,-3.3408 7.2002,0 0,4.2298 c 0,3.85939 -2.82223,6.68161 -6.68162,6.68161"
     style="fill:#ffffff;fill-opacity:1;fill-rule:nonzero;stroke:none"
     id="path5805" />
  <path
     inkscape:connector-curvature="0"
     d="m 214.35419,194.271 -5.34458,-10.01889 -2.22956,2.74461 0,7.27428 -3.33728,0 0,-21.15256 3.33728,0 0,8.38906 6.68161,-8.38906 4.30742,0 -6.53345,8.23736 6.97795,12.9152 -3.85939,0 z"
     style="fill:#ffffff;fill-opacity:1;fill-rule:nonzero;stroke:none"
     id="path5809" />
  <path
     inkscape:connector-curvature="0"
     d="m 221.84719,173.11633 3.41489,0 0,21.15255 -3.41489,0 0,-21.15255 z"
     style="fill:#ffffff;fill-opacity:1;fill-rule:nonzero;stroke:none"
     id="path5811" />
  <path
     inkscape:connector-curvature="0"
     d="m 244.11627,194.271 -2.97039,0 -3.3408,-13.58547 -3.26672,13.58547 -2.96687,0 -3.11502,-21.15256 3.41136,0 1.63336,11.13367 2.67053,-11.13367 3.26672,0 2.74461,11.13367 1.63336,-11.13367 3.41489,0 -3.11503,21.15256 z"
     style="fill:#ffffff;fill-opacity:1;fill-rule:nonzero;stroke:none"
     id="path5815" />
  <path
     inkscape:connector-curvature="0"
     d="m 257.47281,178.98161 -2.15195,5.94078 4.22981,0 -2.07786,-5.94078 z m 5.34458,15.28939 -2.07786,-5.93725 -6.604,0 -2.07786,5.93725 -3.56659,0 7.27781,-21.15256 3.33728,0 7.27427,21.15256 -3.56305,0 z"
     style="fill:#ffffff;fill-opacity:1;fill-rule:nonzero;stroke:none"
     id="path5819" />
  <path
     inkscape:connector-curvature="0"
     d="m 280.99956,194.271 -8.0892,-14.32631 0,14.32631 -3.33728,0 0,-21.15256 3.33728,0 7.71878,13.50786 0,-13.50786 3.3408,0 0,21.15256 -2.97038,0 z"
     style="fill:#ffffff;fill-opacity:1;fill-rule:nonzero;stroke:none"
     id="path5823" />
  <path
     inkscape:connector-curvature="0"
     d="m 289.01608,173.11633 3.41489,0 0,21.15255 -3.41489,0 0,-21.15255 z"
     style="fill:#ffffff;fill-opacity:1;fill-rule:nonzero;stroke:none"
     id="path5825" />
  <path
     inkscape:connector-curvature="0"
     d="m 307.65437,193.01017 c -1.18886,1.03717 -2.82222,1.63336 -4.60375,1.63336 -3.63714,0 -6.30766,-2.15547 -7.71878,-5.34458 l 3.19264,-1.18886 c 0.889,2.0073 2.52236,3.11855 4.52614,3.11855 1.9297,0 3.26672,-1.33702 3.26672,-3.11855 0,-2.8187 -3.26672,-3.2632 -6.01133,-4.37797 -1.26294,-0.51859 -4.08164,-1.78153 -4.08164,-5.2705 0,-4.15573 2.8187,-5.715 6.604,-5.715 2.97039,0 4.97417,1.70744 6.01134,4.30741 l -2.97039,0.889 c 0,0 -0.74084,-1.78153 -3.11503,-1.85561 -1.55928,-0.0741 -3.41136,0.52211 -3.2632,2.44828 0.29634,3.937 10.24114,1.33703 10.24114,9.64847 0,1.93322 -0.74436,3.63714 -2.07786,4.826"
     style="fill:#ffffff;fill-opacity:1;fill-rule:nonzero;stroke:none"
     id="path5829" />
  <path
     inkscape:connector-curvature="0"
     d="m 51.82312,41.644517 -3.11856,0 0,6.011333 3.11856,0 c 1.78153,0 2.74461,-1.114778 2.74461,-3.044472 0,-1.781528 -1.11125,-2.966861 -2.74461,-2.966861 m 0.14816,8.904111 -3.26672,0 0,9.278055 -3.04094,0 0,-21.152555 6.30766,0 c 3.34081,0 5.56684,2.377722 5.56684,5.93725 0,3.859389 -2.00378,5.93725 -5.56684,5.93725"
     style="fill:#ffffff;fill-opacity:1;fill-rule:nonzero;stroke:none"
     id="path5833" />
  <path
     inkscape:connector-curvature="0"
     d="m 65.47948,44.982839 -1.48519,6.088944 3.04447,0 -1.55928,-6.088944 z m 3.78531,14.844889 -1.48519,-5.789084 -4.52614,0 -1.41111,5.789084 -3.04095,0 5.26697,-21.152556 2.97039,0 5.2705,21.152556 -3.04447,0 z"
     style="fill:#ffffff;fill-opacity:1;fill-rule:nonzero;stroke:none"
     id="path5837" />
  <path
     inkscape:connector-curvature="0"
     d="m 81.36154,41.644517 -3.11856,0 0,5.344583 3.11856,0 c 1.78153,0 2.74461,-0.966611 2.74461,-2.674055 0,-1.633361 -1.11125,-2.670528 -2.74461,-2.670528 m 2.59644,18.182166 -2.81869,-9.944805 -2.89631,0 0,9.944805 -3.04094,0 0,-21.152555 6.30767,0 c 3.3408,0 5.56683,2.229556 5.56683,5.640917 0,2.525888 -1.03717,4.3815 -3.04447,5.122333 l 3.04447,10.389305 -3.11856,0 z"
     style="fill:#ffffff;fill-opacity:1;fill-rule:nonzero;stroke:none"
     id="path5841" />
  <path
     inkscape:connector-curvature="0"
     d="m 99.32253,59.827728 -3.71122,-10.315223 -1.9297,3.563056 0,6.752167 -3.04094,0 0,-21.152556 3.04094,0 0,8.459611 4.826,-8.459611 3.48545,0 -4.37798,7.422445 4.90009,13.730111 -3.19264,0 z"
     style="fill:#ffffff;fill-opacity:1;fill-rule:nonzero;stroke:none"
     id="path5845" />
  <path
     inkscape:connector-curvature="0"
     d="m 117.06124,59.827728 -2.59644,0 -2.00731,-11.059584 -2.00378,11.059584 -2.67053,0 -3.3408,-21.152556 2.97039,0 1.78153,11.281833 2.07786,-11.281833 2.37419,0 2.00378,11.281833 1.85561,-11.281833 2.97039,0 -3.41489,21.152556 z"
     style="fill:#ffffff;fill-opacity:1;fill-rule:nonzero;stroke:none"
     id="path5849" />
  <path
     inkscape:connector-curvature="0"
     d="m 128.41611,44.982839 -1.48519,6.088944 3.04094,0 -1.55575,-6.088944 z m 3.78531,14.844889 -1.4852,-5.789084 -4.52614,0 -1.41111,5.789084 -3.04094,0 5.26697,-21.152556 2.96686,0 5.27403,21.152556 -3.04447,0 z"
     style="fill:#ffffff;fill-opacity:1;fill-rule:nonzero;stroke:none"
     id="path5853" />
  <path
     inkscape:connector-curvature="0"
     d="m 144.74267,50.254044 0,9.574389 -3.04095,0 0,-9.574389 -5.19641,-11.578166 3.18911,0 3.56658,7.644694 3.48545,-7.644694 3.26672,0 -5.2705,11.578166 z"
     style="fill:#ffffff;fill-opacity:1;fill-rule:nonzero;stroke:none"
     id="path5857" />
  <path
     inkscape:connector-curvature="0"
     d="m 168.34491,60.198144 c -3.71122,0 -5.93725,-3.115027 -5.93725,-6.604 l 2.96686,0 c 0,1.781528 0.89253,3.637139 2.97039,3.637139 1.63336,0 2.96686,-1.485194 2.96686,-3.192639 0,-1.185333 -0.4445,-2.077861 -1.70744,-3.040944 -0.4445,-0.448028 0.74436,0.370417 -3.55953,-2.525889 -1.70744,-1.188861 -2.59997,-2.818694 -2.59997,-4.674306 0,-3.044472 2.37772,-5.492749 5.41867,-5.492749 2.97038,0 5.2705,2.300111 5.34458,5.492749 l -2.89631,0 c -0.0741,-1.485194 -1.11125,-2.451805 -2.44827,-2.451805 -1.40759,0 -2.52237,1.040694 -2.52237,2.451805 0,1.037167 0.4445,1.633362 2.00378,2.522362 4.08164,2.374194 5.86317,4.677833 5.86317,7.718777 0,3.414889 -2.59645,6.1595 -5.86317,6.1595"
     style="fill:#ffffff;fill-opacity:1;fill-rule:nonzero;stroke:none"
     id="path5861" />
  <path
     inkscape:connector-curvature="0"
     d="m 183.93063,41.644517 -3.11855,0 0,6.011333 3.11855,0 c 1.78153,0 2.74462,-1.114778 2.74462,-3.044472 0,-1.781528 -1.11125,-2.966861 -2.74462,-2.966861 m 0.14817,8.904111 -3.26672,0 0,9.278055 -3.04095,0 0,-21.152555 6.30767,0 c 3.34081,0 5.56683,2.377722 5.56683,5.93725 0,3.859389 -2.00377,5.93725 -5.56683,5.93725"
     style="fill:#ffffff;fill-opacity:1;fill-rule:nonzero;stroke:none"
     id="path5865" />
  <path
     inkscape:connector-curvature="0"
     d="m 201.00085,43.944289 c -0.51859,-1.855611 -1.33703,-2.670527 -2.59645,-2.670527 -1.33703,0 -2.15547,0.814916 -2.67405,2.596444 -0.51859,1.633361 -0.66675,3.044472 -0.66675,5.418667 0,2.300111 0.22225,3.637138 0.66675,5.344583 0.51858,1.781528 1.33702,2.596444 2.67405,2.596444 1.25942,0 2.07786,-0.814916 2.59645,-2.596444 0.52211,-1.707445 0.66675,-2.970389 0.66675,-5.418667 0,-2.374194 -0.22225,-3.711222 -0.66675,-5.2705 m 2.37419,12.618861 c -1.03717,2.522361 -2.59644,3.633611 -4.97064,3.633611 -2.52589,0 -4.00755,-1.11125 -5.04825,-3.633611 -0.889,-2.081389 -1.18886,-4.085166 -1.18886,-7.348361 0,-3.192639 0.29986,-5.344583 1.18886,-7.348361 1.11125,-2.522361 2.59645,-3.563055 5.04825,-3.563055 2.44828,0 3.93347,1.040694 4.97064,3.637139 0.89253,2.077861 1.18886,4.081638 1.18886,7.274277 0,3.263195 -0.29633,5.344584 -1.18886,7.348361"
     style="fill:#ffffff;fill-opacity:1;fill-rule:nonzero;stroke:none"
     id="path5869" />
  <path
     inkscape:connector-curvature="0"
     d="m 218.36773,59.827728 -6.53345,-14.174611 0,14.174611 -3.04094,0 0,-21.152556 3.04094,0 5.79261,12.692945 0,-12.692945 3.04095,0 0,21.152556 -2.30011,0 z"
     style="fill:#ffffff;fill-opacity:1;fill-rule:nonzero;stroke:none"
     id="path5873" />
  <path
     inkscape:connector-curvature="0"
     d="m 230.1671,60.198144 c -3.71122,0 -5.93725,-3.115027 -5.93725,-6.604 l 2.97039,0 c 0,1.781528 0.889,3.637139 2.96686,3.637139 1.63336,0 2.97039,-1.485194 2.97039,-3.192639 0,-1.185333 -0.4445,-2.077861 -1.71097,-3.040944 -0.44098,-0.448028 0.74436,0.370417 -3.55953,-2.525889 -1.70745,-1.188861 -2.59997,-2.818694 -2.59997,-4.674306 0,-3.044472 2.37772,-5.492749 5.41866,-5.492749 2.97039,0 5.27403,2.300111 5.34459,5.492749 l -2.89278,0 c -0.0776,-1.485194 -1.11478,-2.451805 -2.45181,-2.451805 -1.40758,0 -2.51883,1.040694 -2.51883,2.451805 0,1.037167 0.4445,1.633362 2.00025,2.522362 4.08164,2.374194 5.86317,4.677833 5.86317,7.718777 0,3.414889 -2.59645,6.1595 -5.86317,6.1595"
     style="fill:#ffffff;fill-opacity:1;fill-rule:nonzero;stroke:none"
     id="path5877" />
  <path
     inkscape:connector-curvature="0"
     d="m 248.05401,43.944289 c -0.51859,-1.855611 -1.33703,-2.670527 -2.59645,-2.670527 -1.33703,0 -2.15547,0.814916 -2.67053,2.596444 -0.52211,1.633361 -0.67027,3.044472 -0.67027,5.418667 0,2.300111 0.22225,3.637138 0.67027,5.344583 0.51506,1.781528 1.3335,2.596444 2.67053,2.596444 1.25942,0 2.07786,-0.814916 2.59645,-2.596444 0.52211,-1.707445 0.66675,-2.970389 0.66675,-5.418667 0,-2.374194 -0.22225,-3.711222 -0.66675,-5.2705 m 2.37772,12.618861 c -1.0407,2.522361 -2.59645,3.633611 -4.97417,3.633611 -2.52236,0 -4.00755,-1.11125 -5.04825,-3.633611 -0.889,-2.081389 -1.18533,-4.085166 -1.18533,-7.348361 0,-3.192639 0.29633,-5.344583 1.18533,-7.348361 1.11125,-2.522361 2.59645,-3.563055 5.04825,-3.563055 2.44828,0 3.93347,1.040694 4.97417,3.637139 0.889,2.077861 1.18533,4.081638 1.18533,7.274277 0,3.263195 -0.29633,5.344584 -1.18533,7.348361"
     style="fill:#ffffff;fill-opacity:1;fill-rule:nonzero;stroke:none"
     id="path5881" />
  <path
     inkscape:connector-curvature="0"
     d="m 262.00671,41.644517 -3.11856,0 0,5.344583 3.11856,0 c 1.78152,0 2.74461,-0.966611 2.74461,-2.674055 0,-1.633361 -1.11125,-2.670528 -2.74461,-2.670528 m 2.59644,18.182166 -2.81869,-9.944805 -2.89631,0 0,9.944805 -3.04094,0 0,-21.152555 6.30766,0 c 3.34081,0 5.56684,2.229556 5.56684,5.640917 0,2.525888 -1.03717,4.3815 -3.04095,5.122333 l 3.04095,10.389305 -3.11856,0 z"
     style="fill:#ffffff;fill-opacity:1;fill-rule:nonzero;stroke:none"
     id="path5885" />
  <path
     inkscape:connector-curvature="0"
     d="m 270.99831,59.827728 0,-21.152556 9.9448,0 0,2.970389 -6.90386,0 0,5.341056 4.3815,0 0,2.896305 -4.3815,0 0,6.974417 7.72231,0 0,2.970389 -10.76325,0 z"
     style="fill:#ffffff;fill-opacity:1;fill-rule:nonzero;stroke:none"
     id="path5889" />
  <path
     inkscape:connector-curvature="0"
     d="m 293.63606,43.796123 c -0.51859,-1.485195 -1.41112,-2.151945 -2.74814,-2.151945 l -2.52236,0 0,15.215306 2.52236,0 c 1.78152,0 2.74814,-1.411111 3.04447,-3.044473 0.14817,-1.337027 0.29633,-2.818694 0.29633,-4.452055 0,-2.374195 -0.22578,-4.677833 -0.59266,-5.566833 m 0.51505,15.067138 c -0.74083,0.66675 -1.778,0.963084 -2.96333,0.963084 l -5.86317,0 0,-21.152556 5.41514,0 c 1.78153,0 2.67053,0.22225 3.41136,0.818445 1.26647,0.889 2.15547,2.522361 2.52589,4.677833 0.29633,1.55575 0.52211,3.411361 0.52211,5.044722 0,4.896556 -0.96661,8.015111 -3.048,9.648472"
     style="fill:#ffffff;fill-opacity:1;fill-rule:nonzero;stroke:none"
     id="path5893" />
  <path
     inkscape:connector-curvature="0"
     d="m 317.97913,50.254044 -3.04447,0 0,6.604 3.04447,0 c 1.70392,0 2.8187,-1.185333 2.8187,-3.040944 0,-2.007306 -1.26295,-3.563056 -2.8187,-3.563056 m 0.14817,-8.607777 -3.19264,0 0,5.637388 3.19264,0 c 1.40758,0 2.30011,-1.185333 2.30011,-3.115027 0,-1.781528 -0.66675,-2.522361 -2.30011,-2.522361 m 0,18.182166 -6.23711,0 0,-21.152555 6.68161,0 c 2.82222,0 4.82247,2.226028 4.82247,5.49275 0,1.929694 -0.51505,2.818694 -2.22603,4.600222 1.63337,1.337028 2.59998,3.115028 2.59998,5.2705 0,3.192639 -2.52236,5.789083 -5.64092,5.789083"
     style="fill:#ffffff;fill-opacity:1;fill-rule:nonzero;stroke:none"
     id="path5897" />
  <path
     inkscape:connector-curvature="0"
     d="m 333.93668,50.254044 0,9.574389 -3.04447,0 0,-9.574389 -5.19642,-11.578166 3.19264,0 3.56306,7.644694 3.48544,-7.644694 3.26673,0 -5.26698,11.578166 z"
     style="fill:#ffffff;fill-opacity:1;fill-rule:nonzero;stroke:none"
     id="path5901" />
</svg>
