<?xml version="1.0" encoding="UTF-8" standalone="no"?>
<svg
   xmlns:dc="http://purl.org/dc/elements/1.1/"
   xmlns:cc="http://creativecommons.org/ns#"
   xmlns:rdf="http://www.w3.org/1999/02/22-rdf-syntax-ns#"
   xmlns:svg="http://www.w3.org/2000/svg"
   xmlns="http://www.w3.org/2000/svg"
   xmlns:sodipodi="http://sodipodi.sourceforge.net/DTD/sodipodi-0.dtd"
   xmlns:inkscape="http://www.inkscape.org/namespaces/inkscape"
   width="209.19907"
   height="209.18799"
   viewBox="0 0 590.40625 590.37497"
   version="1.1"
   id="svg2"
   inkscape:version="0.48.2 r9819"
   sodipodi:docname="MUTCD I-3.svg">
  <metadata
     id="metadata62">
    <rdf:RDF>
      <cc:Work
         rdf:about="">
        <dc:format>image/svg+xml</dc:format>
        <dc:type
           rdf:resource="http://purl.org/dc/dcmitype/StillImage" />
        <dc:title></dc:title>
      </cc:Work>
    </rdf:RDF>
  </metadata>
  <defs
     id="defs60" />
  <sodipodi:namedview
     pagecolor="#ffffff"
     bordercolor="#666666"
     borderopacity="1"
     objecttolerance="10"
     gridtolerance="10"
     guidetolerance="10"
     inkscape:pageopacity="0"
     inkscape:pageshadow="2"
     inkscape:window-width="1280"
     inkscape:window-height="1004"
     id="namedview58"
     showgrid="false"
     fit-margin-top="0"
     fit-margin-left="0"
     fit-margin-right="0"
     fit-margin-bottom="0"
     inkscape:zoom="1.9352079"
     inkscape:cx="89.561203"
     inkscape:cy="163.17588"
     inkscape:window-x="-8"
     inkscape:window-y="-8"
     inkscape:window-maximized="1"
     inkscape:current-layer="svg2"
     showguides="true"
     inkscape:guide-bbox="true" />
  <polygon
     points="235,375 315,205 395,375 315,545 "
     id="polygon10"
     style="fill:none;stroke:#ffffff;stroke-width:40"
     transform="translate(6931.3124,13692.843)" />
  <!-- draw the bicycle -->
  <!-- RIGHT -->
  <!-- LANE -->
  <!-- ONLY -->
  <path
     d="m 54.5268,2.4116415 481.3498,0 c 28.675,0 52.1164,23.4413505 52.1164,52.0863205 l 0,481.389908 c 0,28.65501 -23.4414,52.09636 -52.1164,52.09636 l -481.3498,0 c -28.655,0 -52.1164,-23.44135 -52.1164,-52.09636 l 0,-481.389908 c 0,-28.64497 23.4614,-52.0863205 52.1164,-52.0863205 z"
     style="fill:#ffffff;stroke:#000000;stroke-width:4.79777765;stroke-linecap:butt;stroke-linejoin:miter;stroke-miterlimit:4;stroke-opacity:1;stroke-dasharray:none"
     id="path3504"
     inkscape:connector-curvature="0" />
  <path
     d="m 54.5267,15.424702 481.3499,0 c 21.5263,0 39.1123,17.576 39.1123,39.07226 l 0,481.389908 c 0,21.49628 -17.586,39.09233 -39.1123,39.09233 l -481.3499,0 c -21.5263,0 -39.0923,-17.59605 -39.0923,-39.09233 l 0,-481.389908 c 0,-21.49626 17.566,-39.07226 39.0923,-39.07226"
     style="fill:#00674c;fill-opacity:1;fill-rule:evenodd;stroke:none"
     id="path3508"
     inkscape:connector-curvature="0" />
  <path
     d="m 57.1035,361.88335 c 70.0734,-41.77935 140.1167,-83.53864 210.1801,-125.31798 0,-49.289 -0.04,-113.93821 0,-154.975608 0.04,-20.19285 13.5555,-30.24917 27.3014,-30.43967 14.2173,-0.1905 28.6651,10.11648 28.7653,30.64019 0.2408,40.425808 0,104.904558 -0.371,154.775088 69.8328,41.77934 139.6856,83.53863 209.5184,125.31798 l 0,51.05364 C 462.6649,391.29032 392.8121,369.62361 322.9793,347.96692 l 0,112.05329 c 15.6811,12.82355 31.3922,25.62707 47.0732,38.46065 l 0,41.09756 c -24.9853,-7.29911 -49.9507,-14.58817 -74.9361,-21.87724 -24.7347,7.50965 -49.4895,15.0193 -74.2443,22.53897 l 0,-41.75929 c 15.4705,-12.83358 30.941,-25.6371 46.4115,-38.46065 l 0,-112.05329 C 197.4508,369.84419 127.608,391.72144 57.7752,413.60873 57.5346,396.37362 57.3241,379.11847 57.1035,361.88335"
     style="fill:#ffffff;fill-opacity:1;fill-rule:evenodd;stroke:none"
     id="path3512"
     inkscape:connector-curvature="0" />
</svg>
