<?xml version="1.0" encoding="UTF-8" standalone="no"?>
<svg
   xmlns:dc="http://purl.org/dc/elements/1.1/"
   xmlns:cc="http://creativecommons.org/ns#"
   xmlns:rdf="http://www.w3.org/1999/02/22-rdf-syntax-ns#"
   xmlns:svg="http://www.w3.org/2000/svg"
   xmlns="http://www.w3.org/2000/svg"
   xmlns:sodipodi="http://sodipodi.sourceforge.net/DTD/sodipodi-0.dtd"
   xmlns:inkscape="http://www.inkscape.org/namespaces/inkscape"
   width="209.18799"
   height="209.18799"
   viewBox="0 0 590.37499 590.37497"
   version="1.1"
   id="svg2"
   inkscape:version="0.48.2 r9819"
   sodipodi:docname="MUTCD I-5.svg">
  <metadata
     id="metadata62">
    <rdf:RDF>
      <cc:Work
         rdf:about="">
        <dc:format>image/svg+xml</dc:format>
        <dc:type
           rdf:resource="http://purl.org/dc/dcmitype/StillImage" />
        <dc:title></dc:title>
      </cc:Work>
    </rdf:RDF>
  </metadata>
  <defs
     id="defs60" />
  <sodipodi:namedview
     pagecolor="#ffffff"
     bordercolor="#666666"
     borderopacity="1"
     objecttolerance="10"
     gridtolerance="10"
     guidetolerance="10"
     inkscape:pageopacity="0"
     inkscape:pageshadow="2"
     inkscape:window-width="1280"
     inkscape:window-height="1004"
     id="namedview58"
     showgrid="false"
     fit-margin-top="0"
     fit-margin-left="0"
     fit-margin-right="0"
     fit-margin-bottom="0"
     inkscape:zoom="1.9352079"
     inkscape:cx="119.79541"
     inkscape:cy="63.198417"
     inkscape:window-x="-8"
     inkscape:window-y="-8"
     inkscape:window-maximized="1"
     inkscape:current-layer="svg2"
     showguides="true"
     inkscape:guide-bbox="true" />
  <polygon
     points="315,545 235,375 315,205 395,375 "
     id="polygon10"
     style="fill:none;stroke:#ffffff;stroke-width:40"
     transform="translate(11891.656,12368.187)" />
  <!-- draw the bicycle -->
  <!-- RIGHT -->
  <!-- LANE -->
  <!-- ONLY -->
  <path
     d="m 54.49955,2.4053421 481.3799,0 c 28.645,0 52.0863,23.4413999 52.0863,52.0863999 l 0,481.379898 c 0,28.655 -23.4413,52.0963 -52.0863,52.0963 l -481.3799,0 c -28.645,0 -52.1064,-23.4413 -52.1064,-52.0963 l 0,-481.379898 c 0,-28.645 23.4614,-52.0863999 52.1064,-52.0863999 z"
     style="fill:#ffffff;stroke:#000000;stroke-width:4.79777765;stroke-linecap:butt;stroke-linejoin:miter;stroke-miterlimit:4;stroke-opacity:1;stroke-dasharray:none"
     id="path3242"
     inkscape:connector-curvature="0" />
  <path
     d="m 54.49935,15.409442 481.3799,0 c 21.4962,0 39.0822,17.586 39.0822,39.0823 l 0,481.379798 c 0,21.5063 -17.586,39.0924 -39.0822,39.0924 l -481.3799,0 c -21.5063,0 -39.1024,-17.5861 -39.1024,-39.0924 l 0,-481.379798 c 0,-21.4963 17.5961,-39.0823 39.1024,-39.0823"
     style="fill:#00674c;fill-opacity:1;fill-rule:evenodd;stroke:none"
     id="path3254"
     inkscape:connector-curvature="0" />
  <path
     d="m 58.84665,440.13104 0,53.2293 39.6137,0 0,48.6674 83.2479,0 0,-48.126 234.4436,0 0,45.8801 82.7165,0 0,-48.136 39.5936,0 0,-50.9834 -7.9107,-11.2996 9.6553,-81.5635 -29.4772,-228.7888 c -1.9351,-15.0594 -5.5746,-30.058698 -14.7185,-42.461098 -5.2939,-7.1487 -11.9914,-13.4552 -19.5913,-18.0974 -5.9055,-3.6195 -12.5127,-5.6849 -19.501,-5.6849 l -285.9785,0 c -12.3223,0 -25.0456,0.05 -36.9968,3.4591 -12.0616,3.439 -22.6393,10.2869 -31.4423,19.1 -9.4648,9.4347 -16.5132,21.2055 -18.2377,34.620598 l -28.8656,227.6959 10.2268,92.843 -6.7778,9.6453 z"
     style="fill:#ffffff;fill-opacity:1;fill-rule:evenodd;stroke:none"
     id="path3258"
     inkscape:connector-curvature="0" />
  <path
     d="m 102.39865,449.69604 0.04,-14.1269 394.6629,0 0,14.1269 -394.703,0 z"
     style="fill:#00674c;fill-opacity:1;fill-rule:evenodd;stroke:none"
     id="path3262"
     inkscape:connector-curvature="0" />
  <path
     d="m 177.18655,66.894242 238.3538,0 0,54.372298 -238.3538,0 0,-54.372298 z"
     style="fill:#00674c;fill-opacity:1;fill-rule:evenodd;stroke:none"
     id="path3264"
     inkscape:connector-curvature="0" />
  <path
     d="m 314.22305,135.44364 181.7658,11.8811 15.2499,147.8068 -197.0157,0 0,-159.6879 z"
     style="fill:#00674c;fill-opacity:1;fill-rule:evenodd;stroke:none"
     id="path3268"
     inkscape:connector-curvature="0" />
  <path
     d="m 84.83375,295.13174 16.9944,-146.0824 176.6925,-14.1971 0,160.2795 -193.6869,0 z"
     style="fill:#00674c;fill-opacity:1;fill-rule:evenodd;stroke:none"
     id="path3272"
     inkscape:connector-curvature="0" />
  <path
     d="m 138.66565,394.82244 c -2.6269,4.7424 -6.1461,8.392 -11.3598,10.4073 -9.184,3.5593 -19.5411,0.3509 -25.1658,-7.7403 -4.8527,-7.0785 -4.8527,-16.5433 0.04,-23.6218 5.5445,-7.9809 16.0219,-11.1993 25.1257,-7.7302 5.2538,2.0052 8.7329,5.8052 11.3598,10.5175 2.5867,-4.7324 6.0458,-8.5524 11.2394,-10.5576 9.0236,-3.429 19.6213,-0.1203 25.0856,7.7302 4.9931,7.1186 5.0332,16.4631 0.1203,23.6118 -5.4442,7.9809 -16.1222,11.3798 -25.2059,7.9107 -5.1936,-2.0153 -8.6326,-5.7852 -11.2394,-10.5276"
     style="fill:#00674c;fill-opacity:1;fill-rule:evenodd;stroke:none"
     id="path3276"
     inkscape:connector-curvature="0" />
  <path
     d="m 456.90055,394.22104 c -2.5668,4.7625 -6.0659,8.6828 -11.3197,10.6278 -8.9333,3.3388 -19.6012,0.3209 -25.0254,-7.5998 -4.9731,-7.2189 -5.0332,-16.403 -0.2007,-23.682 5.4242,-8.1915 16.1222,-11.4099 25.226,-7.8405 5.3841,2.0854 8.5624,5.6247 11.3197,10.3871 2.6068,-4.7023 6.1059,-8.4521 11.2394,-10.4573 9.0436,-3.5594 19.7617,-0.09 25.2059,7.9107 4.0506,5.9455 4.8928,13.2547 1.9552,19.8619 -4.191,9.4749 -13.726,14.0167 -23.7723,12.3825 -6.9481,-1.1531 -11.5001,-5.6448 -14.6282,-11.5904"
     style="fill:#00674c;fill-opacity:1;fill-rule:evenodd;stroke:none"
     id="path3280"
     inkscape:connector-curvature="0" />
</svg>
