<?xml version="1.0" encoding="UTF-8" standalone="no"?>
<svg
   xmlns:dc="http://purl.org/dc/elements/1.1/"
   xmlns:cc="http://creativecommons.org/ns#"
   xmlns:rdf="http://www.w3.org/1999/02/22-rdf-syntax-ns#"
   xmlns:svg="http://www.w3.org/2000/svg"
   xmlns="http://www.w3.org/2000/svg"
   xmlns:sodipodi="http://sodipodi.sourceforge.net/DTD/sodipodi-0.dtd"
   xmlns:inkscape="http://www.inkscape.org/namespaces/inkscape"
   width="209.18799"
   height="209.18799"
   viewBox="0 0 590.37499 590.37497"
   version="1.1"
   id="svg2"
   inkscape:version="0.48.2 r9819"
   sodipodi:docname="MUTCD I-6.svg">
  <metadata
     id="metadata62">
    <rdf:RDF>
      <cc:Work
         rdf:about="">
        <dc:format>image/svg+xml</dc:format>
        <dc:type
           rdf:resource="http://purl.org/dc/dcmitype/StillImage" />
        <dc:title></dc:title>
      </cc:Work>
    </rdf:RDF>
  </metadata>
  <defs
     id="defs60" />
  <sodipodi:namedview
     pagecolor="#ffffff"
     bordercolor="#666666"
     borderopacity="1"
     objecttolerance="10"
     gridtolerance="10"
     guidetolerance="10"
     inkscape:pageopacity="0"
     inkscape:pageshadow="2"
     inkscape:window-width="1280"
     inkscape:window-height="1004"
     id="namedview58"
     showgrid="false"
     fit-margin-top="0"
     fit-margin-left="0"
     fit-margin-right="0"
     fit-margin-bottom="0"
     inkscape:zoom="1.9352079"
     inkscape:cx="120.98422"
     inkscape:cy="91.871924"
     inkscape:window-x="-8"
     inkscape:window-y="-8"
     inkscape:window-maximized="1"
     inkscape:current-layer="svg2"
     showguides="true"
     inkscape:guide-bbox="true" />
  <polygon
     points="395,375 315,545 235,375 315,205 "
     id="polygon10"
     style="fill:none;stroke:#ffffff;stroke-width:40"
     transform="translate(15988.281,11043.531)" />
  <!-- draw the bicycle -->
  <!-- RIGHT -->
  <!-- LANE -->
  <!-- ONLY -->
  <path
     d="m 54.2766,2.40544 481.821,0 c 28.5347,0 51.8758,23.3511 51.8758,51.8958 l 0,481.7909 c 0,28.5347 -23.3411,51.8758 -51.8758,51.8758 l -481.821,0 c -28.5146,0 -51.8758,-23.3411 -51.8758,-51.8758 l 0,-481.7909 c 0,-28.5447 23.3612,-51.8958 51.8758,-51.8958 z"
     style="fill:#ffffff;stroke:#000000;stroke-width:4.79777765;stroke-linecap:butt;stroke-linejoin:miter;stroke-miterlimit:4;stroke-opacity:1;stroke-dasharray:none"
     id="path3330"
     inkscape:connector-curvature="0" />
  <path
     d="m 54.2767,17.22414 481.8211,0 c 20.3733,0 37.0569,16.6837 37.0569,37.0771 l 0,481.7909 c 0,20.3834 -16.6836,37.0671 -37.0569,37.0671 l -481.8211,0 c -20.3833,0 -37.0469,-16.6837 -37.0469,-37.0671 l 0,-481.7909 c 0,-20.3934 16.6636,-37.0771 37.0469,-37.0771"
     style="fill:#00674c;fill-opacity:1;fill-rule:evenodd;stroke:none"
     id="path3334"
     inkscape:connector-curvature="0" />
  <path
     d="m 333.4998,198.39814 c 0.2407,-5.4041 0.4512,-10.7983 0.6517,-16.1924 64.7795,-37.7789 129.519,-75.5477 194.2985,-113.3366 l 0,379.5032 -166.4556,0 c -0.4312,-21.3859 -0.8422,-42.7519 -1.2934,-64.1178 l -63.4862,0 c -0.4111,-4.963 -0.8422,-9.936 -1.2533,-14.8889 l 74.4549,0 c -0.2105,-14.6784 -0.4311,-29.3569 -0.6216,-44.0353 -0.3209,-2.687 -1.0227,-5.1134 -4.5519,-5.8353 0,-13.1644 -0.1505,-28.665 0,-39.5033 0.1605,-10.8484 4.8627,-12.8637 13.5956,-12.954 8.7328,-0.09 13.4351,2.1056 13.6056,12.954 0.1603,10.8383 0,26.008 0,38.5208 -2.9377,-0.09 -4.4617,3.5894 -4.1309,6.7175 -0.4511,15.7613 -0.6416,28.3743 -1.0527,44.1356 l 45.9803,0 0,-170.3258 c -33.2369,-0.2106 -66.504,-0.4311 -99.741,-0.6417"
     style="fill:#ffffff;fill-opacity:1;fill-rule:evenodd;stroke:none"
     id="path3338"
     inkscape:connector-curvature="0" />
  <path
     d="m 279.5886,500.60934 c 2.7873,4.1508 5.5445,8.3117 8.3318,12.4726 3.068,-0.1103 6.1661,-0.2207 9.2341,-0.3108 -1.9952,-3.9704 -4.0305,-7.9107 -6.0658,-11.851 7.1487,-0.1002 14.2974,-0.2207 21.426,-0.3108 -3.5091,-5.2237 -7.0384,-10.4574 -10.5576,-15.661 -6.487,-0.1104 -13.4953,0.09 -20.0124,0 -4.1308,-6.7176 -7.7803,-13.756 -11.9512,-20.4736 5.1334,-0.09 10.2468,-0.2105 15.3802,-0.3208 -3.5493,-4.7926 -7.0484,-9.5952 -10.5777,-14.3877 -4.6822,0.2207 -8.8531,-0.2105 -13.5354,0 -3.83,-7.3392 -8.7329,-14.9291 -12.5529,-22.2883 3.0781,-0.2207 6.6775,0.4411 9.7957,0.2407 -3.1182,-4.3714 -6.1662,-8.7529 -9.2843,-13.1143 -2.657,-0.1002 -5.324,-0.2204 -7.9909,-0.3208 -0.1103,-6.076 -0.1905,-12.1418 -0.3108,-18.2177 11.8309,-11.4099 23.6519,-22.8097 35.4828,-34.2196 3.7799,-2.306 5.3841,-5.7149 4.8026,-10.2267 l 0,-145.4708 c -0.1203,-5.6448 -1.5942,-10.6178 -6.0759,-14.0668 -3.6195,-2.3161 -6.497,-5.725 -8.6326,-10.2268 -2.4464,-8.5323 -4.9129,-17.0546 -7.3693,-25.5769 -1.7145,-5.6047 -4.9329,-9.0136 -9.5951,-10.2368 -19.5612,-6.9983 -40.0248,-10.1165 -61.0498,-10.5476 -21.035,0.4311 -41.4986,3.5493 -61.0598,10.5476 -4.6622,1.2232 -7.8706,4.6321 -9.5951,10.2368 -2.4665,8.5223 -4.9028,17.0446 -7.3693,25.5769 -2.1356,4.5018 -5.0332,7.9107 -8.6326,10.2268 -4.4617,3.449 -5.9556,8.422 -6.0458,14.0668 l 0,145.4708 c -0.6116,4.5118 0.9725,7.9207 4.7725,10.2267 11.851,11.4099 23.6519,22.8097 35.5029,34.2196 -0.1203,6.0759 -0.2105,12.5027 -0.3108,18.5987 -2.687,0.09 -5.344,-0.1603 -8.011,-0.06 -3.0981,4.3614 -6.1862,8.5123 -9.2642,12.8737 3.078,0.2105 6.6975,-0.2207 9.7956,0 -3.84,7.3592 -8.7128,14.9491 -12.5729,22.2883 -4.6823,-0.2105 -8.8532,0.2207 -13.5354,0 -3.5192,4.7925 -7.0284,9.5951 -10.5476,14.3877 5.1033,0.1103 10.7481,0.011 15.8615,0.1103 -4.1409,6.7276 -8.031,13.9666 -12.202,20.6841 -6.4869,0.09 -13.786,-0.1103 -20.2931,0 -3.5192,5.2036 -7.0284,10.4373 -10.5476,15.661 7.1387,0.09 14.7988,0 21.9475,0.1104 -2.0354,3.9403 -4.582,8.0811 -6.6173,12.0515 3.1081,0.09 6.2062,0.2004 9.2843,0.3108 2.7772,-4.1609 5.5344,-8.3218 8.3217,-12.4726 60.6588,0.4311 121.5682,0.4311 182.227,0"
     style="fill:#ffffff;fill-opacity:1;fill-rule:evenodd;stroke:none"
     id="path3346"
     inkscape:connector-curvature="0" />
  <path
     d="m 119.5257,175.32784 c 1.2532,-4.3814 2.5266,-8.7629 3.7799,-13.1544 1.544,-4.0506 2.1757,-8.041 6.1661,-9.545 19.5411,-6.3767 36.4454,-8.8531 57.0393,-10.3671 0.04,5.3841 0.06,10.7782 0.1203,16.1723 0.1003,1.4238 -0.6617,2.1857 -2.306,2.296 -19.6414,2.1757 -40.6364,8.1514 -62.4535,16.4832 -1.895,0.4712 -2.6569,-0.1504 -2.3461,-1.885"
     style="fill:#00674c;fill-opacity:1;fill-rule:evenodd;stroke:none"
     id="path3350"
     inkscape:connector-curvature="0" />
  <path
     d="m 138.0702,427.47794 101.5358,0 12.5929,22.2883 -126.7217,0 12.593,-22.2883 z"
     style="fill:#00674c;fill-opacity:1;fill-rule:evenodd;stroke:none"
     id="path3354"
     inkscape:connector-curvature="0" />
  <path
     d="m 105.2692,484.94824 12.0816,-20.6841 142.9742,0 11.8009,20.6841 -166.8567,0 z"
     style="fill:#00674c;fill-opacity:1;fill-rule:evenodd;stroke:none"
     id="path3358"
     inkscape:connector-curvature="0" />
  <path
     d="m 184.189,393.25824 -1.0427,-32.7758 -20.1127,0 8.031,32.7758 -7.3993,0 -10.9888,-32.7758 -16.0721,0 16.9344,32.7758 -8.4822,0 -20.3032,-32.7758 -16.7237,0 0,-9.1039 160.8309,0 0,9.1039 -16.7037,0 -20.3032,32.7758 -8.4621,0 16.9143,-32.7758 -16.0721,0 -10.9888,32.7758 -7.3993,0 8.031,-32.7758 -20.0926,0 -1.0628,32.7758 -8.5323,0 z"
     style="fill:#00674c;fill-opacity:1;fill-rule:evenodd;stroke:none"
     id="path3362"
     inkscape:connector-curvature="0" />
  <path
     d="m 149.5062,397.92034 77.9139,0 0,16.7438 -77.9139,0 0,-16.7438 z"
     style="fill:#00674c;fill-opacity:1;fill-rule:evenodd;stroke:none"
     id="path3364"
     inkscape:connector-curvature="0" />
  <path
     d="m 257.8016,175.32784 c -1.2734,-4.3814 -2.5266,-8.7629 -3.8,-13.1544 -1.534,-4.0506 -2.1556,-8.041 -6.1761,-9.545 -19.5211,-6.3767 -36.4153,-8.8531 -57.0193,-10.3671 -0.04,5.3841 -0.08,10.7782 -0.1203,16.1723 -0.1103,1.4238 0.6718,2.1857 2.3161,2.296 19.6213,2.1757 40.5962,8.1514 62.4434,16.4832 1.8849,0.4712 2.667,-0.1504 2.3562,-1.885"
     style="fill:#00674c;fill-opacity:1;fill-rule:evenodd;stroke:none"
     id="path3368"
     inkscape:connector-curvature="0" />
  <path
     d="m 189.1016,175.55844 c 7.5598,0 13.726,6.1662 13.726,13.736 0,7.5598 -6.1662,13.7259 -13.726,13.7259 -7.5598,0 -13.7459,-6.1661 -13.7459,-13.7259 0,-7.5698 6.1861,-13.736 13.7459,-13.736"
     style="fill:#00674c;fill-opacity:1;fill-rule:evenodd;stroke:none"
     id="path3372"
     inkscape:connector-curvature="0" />
  <path
     d="m 180.8602,121.19624 c 3.0179,0 5.4843,2.4564 5.4843,5.4844 0,3.0279 -2.4664,5.4943 -5.4843,5.4943 -3.0179,0 -5.5044,-2.4664 -5.5044,-5.4943 0,-3.028 2.4865,-5.4844 5.5044,-5.4844"
     style="fill:#ffffff;fill-opacity:1;fill-rule:evenodd;stroke:none"
     id="path3376"
     inkscape:connector-curvature="0" />
  <path
     d="m 195.2879,121.19624 c 3.038,0 5.4844,2.4564 5.4844,5.4844 0,3.0279 -2.4464,5.4943 -5.4844,5.4943 -3.0279,0 -5.4843,-2.4664 -5.4843,-5.4943 0,-3.028 2.4564,-5.4844 5.4843,-5.4844"
     style="fill:#ffffff;fill-opacity:1;fill-rule:evenodd;stroke:none"
     id="path3380"
     inkscape:connector-curvature="0" />
  <path
     d="m 114.0031,249.42164 c 4.4617,0 8.0912,-3.6395 8.0912,-8.0912 0,-4.4616 -3.6295,-8.1012 -8.0912,-8.1012 -4.4616,0 -8.1112,3.6396 -8.1112,8.1012 0,4.4517 3.6496,8.0912 8.1112,8.0912"
     style="fill:#00674c;fill-opacity:1;fill-rule:evenodd;stroke:none"
     id="path3384"
     inkscape:connector-curvature="0" />
  <path
     d="m 261.8721,249.42164 c 4.4416,0 8.0911,-3.6395 8.0911,-8.0912 0,-4.4616 -3.6495,-8.1012 -8.0911,-8.1012 -4.4617,0 -8.1113,3.6396 -8.1113,8.1012 0,4.4517 3.6496,8.0912 8.1113,8.0912"
     style="fill:#00674c;fill-opacity:1;fill-rule:evenodd;stroke:none"
     id="path3388"
     inkscape:connector-curvature="0" />
  <path
     d="m 379.5,245.98294 c 4.6822,0 8.4822,3.8099 8.4822,8.4721 0,4.6723 -3.8,8.4822 -8.4822,8.4822 -4.6622,0 -8.4722,-3.8099 -8.4722,-8.4822 0,-4.6622 3.81,-8.4721 8.4722,-8.4721"
     style="fill:#ffffff;fill-opacity:1;fill-rule:evenodd;stroke:none"
     id="path3342"
     inkscape:connector-curvature="0" />
</svg>
