<?xml version="1.0" encoding="UTF-8" standalone="no"?>
<svg
   xmlns:dc="http://purl.org/dc/elements/1.1/"
   xmlns:cc="http://creativecommons.org/ns#"
   xmlns:rdf="http://www.w3.org/1999/02/22-rdf-syntax-ns#"
   xmlns:svg="http://www.w3.org/2000/svg"
   xmlns="http://www.w3.org/2000/svg"
   xmlns:sodipodi="http://sodipodi.sourceforge.net/DTD/sodipodi-0.dtd"
   xmlns:inkscape="http://www.inkscape.org/namespaces/inkscape"
   width="209.19907"
   height="209.21014"
   viewBox="0 0 590.40626 590.43749"
   version="1.1"
   id="svg2"
   inkscape:version="0.48.2 r9819"
   sodipodi:docname="MUTCD I-12.svg">
  <metadata
     id="metadata62">
    <rdf:RDF>
      <cc:Work
         rdf:about="">
        <dc:format>image/svg+xml</dc:format>
        <dc:type
           rdf:resource="http://purl.org/dc/dcmitype/StillImage" />
        <dc:title />
      </cc:Work>
    </rdf:RDF>
  </metadata>
  <defs
     id="defs60">
    <clipPath
       clipPathUnits="userSpaceOnUse"
       id="clipPath3564">
      <path
         inkscape:connector-curvature="0"
         d="m 63,43 512.622,0 0,313.129 L 63,356.129 63,43 z"
         id="path3566" />
    </clipPath>
  </defs>
  <sodipodi:namedview
     pagecolor="#ffffff"
     bordercolor="#666666"
     borderopacity="1"
     objecttolerance="10"
     gridtolerance="10"
     guidetolerance="10"
     inkscape:pageopacity="0"
     inkscape:pageshadow="2"
     inkscape:window-width="1280"
     inkscape:window-height="1004"
     id="namedview58"
     showgrid="false"
     fit-margin-top="0"
     fit-margin-left="0"
     fit-margin-right="0"
     fit-margin-bottom="0"
     inkscape:zoom="2.7367973"
     inkscape:cx="45.276088"
     inkscape:cy="74.487968"
     inkscape:window-x="-8"
     inkscape:window-y="-8"
     inkscape:window-maximized="1"
     inkscape:current-layer="svg2"
     showguides="true"
     inkscape:guide-bbox="true" />
  <polygon
     points="315,545 235,375 315,205 395,375 "
     id="polygon10"
     style="fill:none;stroke:#ffffff;stroke-width:40"
     transform="translate(23517.803,5950.9602)" />
  <!-- draw the bicycle -->
  <!-- RIGHT -->
  <!-- LANE -->
  <!-- ONLY -->
  <path
     d="m 533.05256,587.98257 -475.70504,0.06 c -30.289274,0 -54.943805,-24.6946 -54.943805,-54.9839 l 0,-475.674987 c 0,-30.2892 24.654531,-54.9236991 54.943805,-54.9236991 l 475.70504,-0.05 c 30.25919,0 54.94379,24.6845991 54.94379,54.9738991 l 0,475.674887 c -0.0502,29.8882 -25.0656,54.9839 -54.94379,54.9238"
     style="fill:#ffffff;stroke:#000000;stroke-width:4.79777765;stroke-linecap:butt;stroke-linejoin:miter;stroke-miterlimit:4;stroke-opacity:1;stroke-dasharray:none"
     id="path3582"
     inkscape:connector-curvature="0" />
  <g
     id="g3560"
     transform="matrix(10.026241,0,0,-10.026241,-5212.0303,2527.4656)">
    <g
       id="g3562"
       clip-path="url(#clipPath3564)">
      <g
         id="g3568"
         transform="translate(565.7022,182.847)" />
    </g>
  </g>
  <g
     id="g3592"
     transform="matrix(10.026241,0,0,-10.026241,532.85289,572.77257)">
    <path
       d="m 0,0 -47.409,0 c -2.174,0.006 -3.972,1.807 -3.975,3.98 l 0,47.405 c 0,2.176 1.804,3.971 3.978,3.98 L -0.002,55.359 C 2.174,55.356 3.973,53.561 3.975,51.385 L 3.978,3.98 C 3.969,1.807 2.174,0 0,0"
       style="fill:#00674c;fill-opacity:1;fill-rule:evenodd;stroke:none"
       id="path3594"
       inkscape:connector-curvature="0" />
  </g>
  <g
     id="g3596"
     transform="matrix(10.026241,0,0,-10.026241,343.11531,216.26977)">
    <path
       d="M 0,0 C 0.022,0.567 0.045,1.134 0.068,1.701 6.879,5.676 13.69,9.647 20.501,13.622 l 0,-39.913 -17.505,0 c -0.044,2.247 -0.091,4.496 -0.134,6.743 l -6.677,0 c -0.046,0.521 -0.089,1.042 -0.135,1.566 l 7.833,0 c -0.025,1.544 -0.047,3.088 -0.068,4.633 -0.031,0.278 -0.106,0.535 -0.478,0.61 0,1.385 -0.018,3.016 0,4.155 0.019,1.142 0.513,1.353 1.431,1.364 0.918,0.008 1.412,-0.222 1.432,-1.364 0.015,-1.139 0,-2.735 0,-4.053 -0.309,0.012 -0.471,-0.375 -0.436,-0.704 -0.045,-1.658 -0.066,-2.984 -0.109,-4.641 l 4.835,0 0,17.912 C 6.993,-0.046 3.496,-0.024 0,0"
       style="fill:#ffffff;fill-opacity:1;fill-rule:evenodd;stroke:none"
       id="path3598"
       inkscape:connector-curvature="0" />
  </g>
  <g
     id="g3600"
     transform="matrix(10.026241,0,0,-10.026241,391.62226,266.46107)">
    <path
       d="m 0,0 c 0.492,0 0.891,-0.402 0.891,-0.89 0,-0.492 -0.399,-0.892 -0.891,-0.892 -0.491,0 -0.89,0.4 -0.89,0.892 C -0.89,-0.402 -0.491,0 0,0"
       style="fill:#ffffff;fill-opacity:1;fill-rule:evenodd;stroke:none"
       id="path3602"
       inkscape:connector-curvature="0" />
  </g>
  <path
     d="m 287.40953,421.65727 -0.2207,-25.0957 -3.85008,-5.4141 4.71233,-39.1926 -14.34755,-109.9478 c -0.9223,-7.2189 -2.70697,-14.4478 -7.13857,-20.4034 -2.57674,-3.4189 -5.8453,-6.4769 -9.53495,-8.6927 -2.87753,-1.7346 -6.08593,-2.7272 -9.4748,-2.7272 l -67.83755,0 c 5.82525,-2.25589 9.73548,-6.42679 9.73548,-11.15919 0,-1.1931 -0.26069,-2.3862 -0.75197,-3.4891 l 46.95289,0 0,3.82 c 0,2.0754 1.71449,3.81 3.85008,3.81 l 1.79469,0 c 2.11554,0 3.85008,-1.7346 3.85008,-3.81 l 0,-3.82 0.11029,0 0,-10.1265 -150.19309,0 0,10.1265 0.0501,0 0,3.82 c 0,2.0754 1.73453,3.81 3.85007,3.81 l 1.78467,0 c 2.12557,0 3.87014,-1.7346 3.87014,-3.81 l 0,-3.82 45.94023,0 c -0.49128,1.1029 -0.73191,2.296 -0.73191,3.4891 0,4.7324 3.93028,8.9033 9.7455,11.15919 l -51.05361,0 c -6.01575,0 -12.18189,0.02 -18.00714,1.6744 -5.8453,1.6544 -11.01884,4.9229 -15.29002,9.174 -4.60204,4.5219 -8.02099,10.1767 -8.85317,16.6235 l -14.05679,109.4265 4.98304,44.6167 -3.29863,4.6221 -0.11029,25.3363 46.43152,0 -4.12078,6.9382 -14.39769,0 -7.67007,14.6383 14.08687,0 -6.17617,10.8584 -14.07684,0 -8.50225,15.8314 14.1771,0 -7.26902,13.3751 -14.15705,0 -10.5075,17.8667 15.05941,0 -5.31391,9.4748 13.99663,0.1104 5.76509,-9.5851 196.8853,0 5.36404,9.5851 14.39768,-0.1104 -4.90283,-9.4748 13.40508,0 -9.2542,-17.8667 -14.15706,0 -7.27905,-13.3751 13.93647,0 -8.09118,-15.8314 -15.04939,0 -5.36403,-10.8584 14.21721,0 -8.45212,-14.6383 -13.72593,0 -4.4717,-6.9382 49.37923,0 -0.64166,0 z m -62.06245,0.1104 3.71974,6.8279 -118.82098,0 4.03055,-6.8279 111.07069,0 z"
     style="fill:#ffffff;fill-opacity:1;fill-rule:evenodd;stroke:none"
     id="path3606"
     inkscape:connector-curvature="0" />
  <path
     d="m 75.70353,394.42587 190.85953,0 0,6.8279 -190.85953,0 0,-6.8279 z"
     style="fill:#00674c;fill-opacity:1;fill-rule:evenodd;stroke:none"
     id="path3608"
     inkscape:connector-curvature="0" />
  <path
     d="m 111.84813,216.12927 115.26167,0 0,26.2888 -115.26167,0 0,-26.2888 z"
     style="fill:#00674c;fill-opacity:1;fill-rule:evenodd;stroke:none"
     id="path3610"
     inkscape:connector-curvature="0" />
  <g
     id="g3612"
     transform="matrix(10.026241,0,0,-10.026241,178.11346,249.29597)">
    <path
       d="M 0,0 8.768,-0.572 9.504,-7.704 0,-7.704 0,0 z"
       style="fill:#00674c;fill-opacity:1;fill-rule:evenodd;stroke:none"
       id="path3614"
       inkscape:connector-curvature="0" />
  </g>
  <g
     id="g3616"
     transform="matrix(10.026241,0,0,-10.026241,67.20317,326.53827)">
    <path
       d="M 0,0 0.818,7.048 9.343,7.734 9.343,0 0,0 z"
       style="fill:#00674c;fill-opacity:1;fill-rule:evenodd;stroke:none"
       id="path3618"
       inkscape:connector-curvature="0" />
  </g>
  <g
     id="g3620"
     transform="matrix(10.026241,0,0,-10.026241,93.23132,374.72427)">
    <path
       d="m 0,0 c -0.127,-0.226 -0.297,-0.405 -0.549,-0.502 -0.443,-0.17 -0.942,-0.016 -1.212,0.375 -0.236,0.341 -0.236,0.797 0.003,1.14 0.267,0.383 0.771,0.537 1.209,0.37 C -0.295,1.288 -0.127,1.105 0,0.875 0.124,1.105 0.293,1.288 0.542,1.386 0.98,1.55 1.487,1.391 1.751,1.013 1.992,0.67 1.995,0.219 1.757,-0.127 1.496,-0.51 0.982,-0.675 0.542,-0.507 0.293,-0.41 0.126,-0.226 0,0"
       style="fill:#00674c;fill-opacity:1;fill-rule:evenodd;stroke:none"
       id="path3622"
       inkscape:connector-curvature="0" />
  </g>
  <g
     id="g3624"
     transform="matrix(10.026241,0,0,-10.026241,247.12408,374.42377)">
    <path
       d="M 0,0 C -0.125,-0.229 -0.292,-0.418 -0.546,-0.513 -0.977,-0.675 -1.49,-0.529 -1.752,-0.146 -1.993,0.2 -1.996,0.646 -1.764,0.997 -1.502,1.391 -0.986,1.547 -0.546,1.375 -0.287,1.274 -0.133,1.105 0,0.872 0.124,1.099 0.294,1.28 0.543,1.377 0.981,1.55 1.496,1.38 1.758,0.997 1.951,0.708 1.995,0.357 1.852,0.038 1.65,-0.418 1.191,-0.637 0.707,-0.559 0.369,-0.505 0.151,-0.286 0,0"
       style="fill:#00674c;fill-opacity:1;fill-rule:evenodd;stroke:none"
       id="path3626"
       inkscape:connector-curvature="0" />
  </g>
  <g
     id="g3628"
     transform="matrix(10.026241,0,0,-10.026241,169.89193,197.20988)">
    <path
       d="m 0,0 c 0.315,0 0.574,-0.151 0.574,-0.338 0,-0.188 -0.259,-0.34 -0.574,-0.34 -0.316,0 -0.576,0.152 -0.576,0.34 C -0.576,-0.151 -0.316,0 0,0"
       style="fill:#00674c;fill-opacity:1;fill-rule:evenodd;stroke:none"
       id="path3630"
       inkscape:connector-curvature="0" />
  </g>
  <g
     id="g3632"
     transform="matrix(10.026241,0,0,-10.026241,251.17468,470.71567)">
    <path
       d="m 0,0 -16.261,0 -0.721,-1.342 17.703,0 L 0,0 z"
       style="fill:#00674c;fill-opacity:1;fill-rule:evenodd;stroke:none"
       id="path3634"
       inkscape:connector-curvature="0" />
  </g>
  <g
     id="g3636"
     transform="matrix(10.026241,0,0,-10.026241,236.69679,443.83517)">
    <path
       d="m 0,0 -13.37,0 -0.613,-1.05 14.556,0 L 0,0 z"
       style="fill:#00674c;fill-opacity:1;fill-rule:evenodd;stroke:none"
       id="path3638"
       inkscape:connector-curvature="0" />
  </g>
</svg>
