<?xml version="1.0" encoding="UTF-8" standalone="no"?>
<!-- Created with Inkscape (http://www.inkscape.org/) -->

<svg
   xmlns:dc="http://purl.org/dc/elements/1.1/"
   xmlns:cc="http://creativecommons.org/ns#"
   xmlns:rdf="http://www.w3.org/1999/02/22-rdf-syntax-ns#"
   xmlns:svg="http://www.w3.org/2000/svg"
   xmlns="http://www.w3.org/2000/svg"
   xmlns:sodipodi="http://sodipodi.sourceforge.net/DTD/sodipodi-0.dtd"
   xmlns:inkscape="http://www.inkscape.org/namespaces/inkscape"
   width="2170.0166"
   height="2170.0166"
   id="svg2934"
   version="1.1"
   inkscape:version="0.48.2 r9819"
   sodipodi:docname="AJAX.svg">
  <defs
     id="defs2936">
    <inkscape:perspective
       sodipodi:type="inkscape:persp3d"
       inkscape:vp_x="0 : 526.18109 : 1"
       inkscape:vp_y="0 : 1000 : 0"
       inkscape:vp_z="744.09448 : 526.18109 : 1"
       inkscape:persp3d-origin="372.04724 : 350.78739 : 1"
       id="perspective2942" />
    <inkscape:perspective
       id="perspective2924"
       inkscape:persp3d-origin="0.5 : 0.33333333 : 1"
       inkscape:vp_z="1 : 0.5 : 1"
       inkscape:vp_y="0 : 1000 : 0"
       inkscape:vp_x="0 : 0.5 : 1"
       sodipodi:type="inkscape:persp3d" />
  </defs>
  <sodipodi:namedview
     id="base"
     pagecolor="#ffffff"
     bordercolor="#666666"
     borderopacity="1.0"
     inkscape:pageopacity="0.0"
     inkscape:pageshadow="2"
     inkscape:zoom="0.17376232"
     inkscape:cx="598.6917"
     inkscape:cy="1513.8061"
     inkscape:document-units="px"
     inkscape:current-layer="g2909"
     showgrid="false"
     inkscape:window-width="1280"
     inkscape:window-height="1004"
     inkscape:window-x="-8"
     inkscape:window-y="-8"
     inkscape:window-maximized="1"
     fit-margin-top="0"
     fit-margin-left="0"
     fit-margin-right="0"
     fit-margin-bottom="0" />
  <metadata
     id="metadata2939">
    <rdf:RDF>
      <cc:Work
         rdf:about="">
        <dc:format>image/svg+xml</dc:format>
        <dc:type
           rdf:resource="http://purl.org/dc/dcmitype/StillImage" />
        <dc:title></dc:title>
      </cc:Work>
    </rdf:RDF>
  </metadata>
  <g
     inkscape:label="Ebene 1"
     inkscape:groupmode="layer"
     id="layer1"
     transform="translate(-58.818255,1594.0363)">
    <g
       id="g3018"
       transform="translate(2,-2)">
      <g
         id="g2909"
         transform="matrix(0.80835983,0,0,0.80835983,-165.10178,-177.02766)">
        <path
           inkscape:connector-curvature="0"
           style="fill:#ffffff;fill-rule:nonzero;stroke:#000000;stroke-width:12.37072849;stroke-linecap:butt;stroke-linejoin:miter;stroke-miterlimit:4;stroke-opacity:1;stroke-dasharray:none"
           d="m 2952.8077,760.79601 c 0,92.23924 -74.7656,167.00483 -167.0048,167.00483 l -2338.06773,0 c -92.23538,0 -167.00483,-74.76559 -167.00483,-167.00483 l 0,-2338.06761 c 0,-92.2354 74.76945,-167.0049 167.00483,-167.0049 l 2338.06773,0 c 92.2392,0 167.0048,74.7695 167.0048,167.0049 l 0,2338.06761 z"
           id="path11" />
        <path
           inkscape:connector-curvature="0"
           style="fill:#006649;fill-rule:nonzero;stroke:none"
           d="m 447.73517,-1688.6083 c -61.3916,0 -111.33656,49.9449 -111.33656,111.3365 l 0,2338.06773 c 0,61.38974 49.94496,111.33655 111.33656,111.33655 l 2338.06773,0 c 61.3897,0 111.3366,-49.94681 111.3366,-111.33655 l 0,-2338.06773 c 0,-61.3916 -49.9469,-111.3365 -111.3366,-111.3365 l -2338.06773,0 z"
           id="path13" />
        <path
           inkscape:connector-curvature="0"
           style="fill:#ffffff;fill-rule:nonzero;stroke:none"
           d="m 447.73517,106.24521 70.57501,50.7509 c 19.81636,14.6129 52.36065,14.8449 72.38113,0.5722 l 70.575,-50.7355 c 20.02358,-14.272701 52.56632,-14.040801 72.38423,0.5722 l 70.57501,50.7509 c 19.81636,14.6129 52.36065,14.8603 72.38268,0.5876 l 70.575,-50.7509 c 20.02048,-14.272801 52.56477,-14.025301 72.38117,0.5876 l 70.575,50.7354 c 19.8163,14.6284 52.3622,14.8604 72.3827,0.5876 l 70.5765,-50.7354 c 20.0205,-14.272701 52.5648,-14.040801 72.3811,0.5721 l 70.575,50.751 c 19.8164,14.6129 52.3622,14.8603 72.3842,0.5876 l 70.5751,-50.751 c 20.0204,-14.272701 52.5647,-14.025301 72.3811,0.5877 l 70.5734,50.7354 c 19.818,14.6129 52.3606,14.8603 72.3828,0.5876 l 70.5781,-50.7509 c 20.0204,-14.272701 52.5585,-14.025301 72.3826,0.5876 l 70.575,50.7509 c 19.8086,14.613 52.3591,14.8449 72.3842,0.5722 l 70.575,-50.7355 c 20.0097,-14.272701 52.5602,-14.040801 72.3843,0.5876 l 70.575,50.7355 c 19.8086,14.6129 52.3591,14.8603 72.3687,0.5876 l 70.5905,-50.7509 c 20.0097,-14.272701 52.5601,-14.025301 72.3688,0.5876 l 70.5904,50.7354 c 19.8087,14.6284 52.3591,14.8604 72.3688,0.5876 l 70.5905,-50.7354 0,-106.0945009 -70.5905,50.7509999 c -20.0097,14.2727 -52.5601,14.0253 -72.3688,-0.5877 L 2449.1335,8.3154091 c -19.8087,-14.6129 -52.3591,-14.8448 -72.3688,-0.5721 l -70.5905,50.7353999 c -20.0096,14.2728 -52.5601,14.0408 -72.3687,-0.5876 l -70.575,-50.7353999 c -19.8241,-14.613 -52.3746,-14.8604 -72.3843,-0.5876 l -70.575,50.7508999 c -20.0251,14.2727 -52.5756,14.0253 -72.3842,-0.5876 L 1877.312,5.9959091 c -19.8241,-14.6284 -52.3622,-14.8603 -72.3826,-0.5876 l -70.5781,50.7354999 c -20.0222,14.2727 -52.5648,14.0407 -72.3828,-0.5722 L 1591.3951,4.8207091 c -19.8164,-14.6129 -52.3607,-14.8603001 -72.3811,-0.5876 l -70.5751,50.7508999 c -20.022,14.2727 -52.5678,14.0253 -72.3842,-0.5876 l -70.575,-50.7354999 c -19.8163,-14.6283001 -52.3606,-14.8603001 -72.3811,-0.5876 l -70.5765,50.7354999 c -20.0205,14.2727 -52.5664,14.0408 -72.3827,-0.5722 L 1019.5644,2.4857091 C 999.748,-12.127191 967.20371,-12.374591 947.18323,1.9136091 l -70.575,50.7353999 c -20.02203,14.2728 -52.56632,14.0408 -72.38268,-0.5876 L 733.65054,1.3260091 c -19.81791,-14.6130001 -52.36065,-14.8604001 -72.38423,-0.5876 l -70.575,50.7508999 c -20.02048,14.2727 -52.56477,14.0253 -72.38113,-0.5876 l -70.57501,-50.7509999 0,106.0945009 z"
           id="path15" />
        <path
           inkscape:connector-curvature="0"
           style="fill:#ffffff;fill-rule:nonzero;stroke:none"
           d="m 590.69131,-4.2098909 70.575,-50.7355001 c 20.02358,-14.2727 52.56632,-14.0408 72.38423,0.5876 l 70.57501,50.7355001 c 19.81636,14.6128999 52.36065,14.8602999 72.38268,0.5876 l 70.575,-50.7509001 c 20.02048,-14.2728 52.56477,-14.0253 72.38117,0.5876 l 70.575,50.7509001 c 19.8163,14.6128999 52.3622,14.8448999 72.3827,0.5721 l 70.5765,-50.7354001 c 20.0205,-14.2727 52.5648,-14.0408 72.3811,0.5721 l 70.575,50.7510001 c 19.8164,14.6128999 52.3622,14.8602999 72.3842,0.5876 l 70.5751,-50.7510001 c 20.0204,-14.2727 52.5647,-14.0253 72.3811,0.5877 l 70.5734,50.7354001 c 19.818,14.6283999 52.3606,14.8602999 72.3828,0.5876 l 70.5781,-50.7354001 c 20.0204,-14.2728 52.5585,-14.0408 72.3826,0.5721 l 70.575,50.7509001 c 19.8086,14.6128999 52.3591,14.8603999 72.3842,0.5722 l 70.5766,-50.7355001 c 20.0097,-14.2727 52.5602,-14.0253 72.3843,0.5876 l 70.575,50.7355001 c 19.8086,14.6128999 52.3591,14.8602999 72.3687,0.5876 l 70.5905,-50.7509001 c 20.0097,-14.2728 52.5601,-14.0253 72.3688,0.5876 l 70.5904,50.7509001 c 3.0618,2.2577 6.4792,4.1442 10.0667,5.7215 l 256.0122,-460.1122991 -332.6179,-0.6463 -93.0897,-307.4173 -159.1495,0 -86.2703,-233.683 -131.1314,0 22.7158,253.0015 -97.3886,0 -83.2967,364.4323 -1343.80442,0 44.49597,375.3325991 c 19.78079,9.6491 46.89898,8.2729 64.42366,-4.2215 z"
           id="path17" />
        <path
           inkscape:connector-curvature="0"
           style="fill:#ffffff;fill-rule:nonzero;stroke:none"
           d="m 1716.6178,-485.55499 c 0,0 -5.1833,-136.1445 -13.6434,-153.0615 -4.5044,-10.812 -16.0727,-15.9211 -29.6866,-19.521 0,0 -193.5834,-11.4645 -230.2054,-11.9408 l -122.5723,-136.5125 c -26.379,-12.2161 -374.48817,-27.8574 -405.15057,23.7749 l -99.55962,114.1803 -174.23398,12.3197 c -23.23687,2.6412 -39.48582,171.2063 -39.48582,171.2063 l 195.21783,-0.077 c 0.41596,47.0537 38.67244,85.072 85.82502,85.072 47.17423,0 85.44617,-38.0555 85.82657,-85.1415 l 424.34067,-0.1686 c 0.2892,47.1634 38.5998,85.3101 85.8312,85.3101 47.2547,0 85.5807,-38.1838 85.8328,-85.3781 l 151.6635,-0.062 z"
           id="path19" />
      </g>
    </g>
  </g>
</svg>
