<?xml version="1.0" encoding="UTF-8" standalone="no"?>
<svg
   xmlns:dc="http://purl.org/dc/elements/1.1/"
   xmlns:cc="http://creativecommons.org/ns#"
   xmlns:rdf="http://www.w3.org/1999/02/22-rdf-syntax-ns#"
   xmlns:svg="http://www.w3.org/2000/svg"
   xmlns="http://www.w3.org/2000/svg"
   xmlns:sodipodi="http://sodipodi.sourceforge.net/DTD/sodipodi-0.dtd"
   xmlns:inkscape="http://www.inkscape.org/namespaces/inkscape"
   width="209.17693"
   height="209.17693"
   viewBox="0 0 590.34377 590.34375"
   version="1.1"
   id="svg2"
   inkscape:version="0.48.2 r9819"
   sodipodi:docname="MUTCD I-7.svg">
  <metadata
     id="metadata62">
    <rdf:RDF>
      <cc:Work
         rdf:about="">
        <dc:format>image/svg+xml</dc:format>
        <dc:type
           rdf:resource="http://purl.org/dc/dcmitype/StillImage" />
        <dc:title></dc:title>
      </cc:Work>
    </rdf:RDF>
  </metadata>
  <defs
     id="defs60" />
  <sodipodi:namedview
     pagecolor="#ffffff"
     bordercolor="#666666"
     borderopacity="1"
     objecttolerance="10"
     gridtolerance="10"
     guidetolerance="10"
     inkscape:pageopacity="0"
     inkscape:pageshadow="2"
     inkscape:window-width="1280"
     inkscape:window-height="1004"
     id="namedview58"
     showgrid="false"
     fit-margin-top="0"
     fit-margin-left="0"
     fit-margin-right="0"
     fit-margin-bottom="0"
     inkscape:zoom="2.7367973"
     inkscape:cx="74.609675"
     inkscape:cy="87.609564"
     inkscape:window-x="-8"
     inkscape:window-y="-8"
     inkscape:window-maximized="1"
     inkscape:current-layer="svg2"
     showguides="true"
     inkscape:guide-bbox="true" />
  <polygon
     points="315,205 395,375 315,545 235,375 "
     id="polygon10"
     style="fill:none;stroke:#ffffff;stroke-width:40"
     transform="translate(19221.156,9718.8747)" />
  <!-- draw the bicycle -->
  <!-- RIGHT -->
  <!-- LANE -->
  <!-- ONLY -->
  <path
     d="m 54.4698,2.40544 481.3799,0 c 28.6449,0 52.1064,23.4313 52.1064,52.0863 l 0,481.3698 c 0,28.655 -23.4615,52.0964 -52.1064,52.0964 l -481.3799,0 c -28.645,0 -52.0863,-23.4414 -52.0863,-52.0964 l 0,-481.3698 c 0,-28.655 23.4413,-52.0863 52.0863,-52.0863 z"
     style="fill:#fff;stroke:#000000;stroke-width:4.79777765;stroke-linecap:butt;stroke-linejoin:miter;stroke-miterlimit:4;stroke-opacity:1;stroke-dasharray:none"
     id="path3438"
     inkscape:connector-curvature="0" />
  <path
     d="m 54.4699,15.40944 481.3798,0 c 21.5063,0 39.1024,17.586 39.1024,39.0823 l 0,481.3698 c 0,21.5063 -17.5961,39.0924 -39.1024,39.0924 l -481.3798,0 c -21.4963,0 -39.0823,-17.5861 -39.0823,-39.0924 l 0,-481.3698 c 0,-21.4963 17.586,-39.0823 39.0823,-39.0823"
     style="fill:#00674c;fill-opacity:1;fill-rule:evenodd;stroke:none"
     id="path3442"
     inkscape:connector-curvature="0" />
  <path
     d="m 216.8148,195.19004 0,254.9072 c 42.7018,-0.381 85.4336,-0.742 128.1253,-1.1129 -27.6323,-21.3459 -55.2044,-42.7018 -82.8368,-64.0377 34.6206,-45.2784 69.1911,-90.5469 103.8117,-135.8355 6.8078,9.7355 15.4705,15.8014 25.9379,18.2278 9.3846,-11.7909 18.7892,-23.5717 28.1637,-35.3425 16.9444,39.9345 37.7989,76.821 65.7421,108.2232 -28.0033,35.3425 -55.9865,70.675 -83.9497,105.9974 5.5946,18.4683 4.4817,34.4702 -3.2886,48.0357 -13.365,16.5233 -30.3194,22.1981 -49.7202,20.4436 -4.4316,8.4721 -8.8331,16.9343 -13.2647,25.4064 -76.7609,0.1705 -153.5017,0.361 -230.2426,0.5415 l 0,-250.7363 c 4.0506,-49.2088 35.9541,-80.1798 91.4895,-95.7406 -33.1769,-6.4168 -58.3828,-35.7335 -58.3828,-70.7451 0,-39.6839 32.3948,-72.0586 72.1087,-72.0586 39.6538,0 72.0385,32.3747 72.0385,72.0586 0,37.5483 -28.9758,68.5494 -65.732,71.7678"
     style="fill:#ffffff;fill-opacity:1;fill-rule:evenodd;stroke:none"
     id="path3446"
     inkscape:connector-curvature="0" />
</svg>
