<svg xmlns="http://www.w3.org/2000/svg" width="90.123" height="90.107" viewBox="0 0 254.347 254.303">
    <path d="M250.706 118.329 136.014 3.64c-4.854-4.855-12.798-4.855-17.65 0L3.639 118.329c-4.85 4.85-4.85 12.791 0 17.646l114.727 114.688c4.85 4.854 12.795 4.854 17.65 0l114.69-114.688c4.855-4.855 4.855-12.796 0-17.646" style="fill:#fcd116;fill-opacity:1;fill-rule:nonzero;stroke:none"/>
    <path d="M247.944 120.153 134.198 6.406c-3.86-3.848-10.157-3.848-14.01 0L6.405 120.153c-3.849 3.848-3.849 10.149 0 13.998l113.785 113.746c3.852 3.849 10.15 3.849 14.009 0l113.746-113.746c3.849-3.849 3.849-10.15 0-13.998" style="fill:#000;fill-opacity:1;fill-rule:evenodd;stroke:none"/>
    <path d="M244.388 123.652 130.69 9.96c-1.923-1.923-5.073-1.923-6.996 0L9.96 123.652c-1.923 1.923-1.923 5.073 0 7L123.695 244.34a4.957 4.957 0 0 0 6.996 0l113.697-113.69c1.922-1.926 1.922-5.076 0-6.999" style="fill:#fcd116;fill-opacity:1;fill-rule:evenodd;stroke:none"/>
    <path d="M121.395 106.373c-1.051 3.51-2.116 7.024-3.171 10.538-1.193 3.954-4.36 10.911-9.469 6.046-1.39-1.323-2.113-3.383-2.949-5.07-1.633-3.326-3.277-6.65-4.918-9.98-6.794-13.79-13.596-27.58-20.394-41.37 15.41 0 30.812-.004 46.218-.004l10.932-.003c1.965 0 4.195-.211 6.096.343 3.052.882 4.957 4.416 2.85 7.235-.977 1.32-2.31 2.519-3.418 3.747-2.61 2.878-5.21 5.757-7.81 8.636 10.632 4.83 20.482 11.839 27.785 21.015l19.84-19.837c1.213-1.217 2.434-2.434 3.655-3.658.829-.83 1.234.3 1.993 1.054 3.316 3.32 6.632 6.633 9.952 9.945-5.966 5.962-11.924 11.924-17.886 17.882-2.953 2.953-5.902 5.899-8.844 8.852-1.45 1.435.716 5.895 1.114 7.902 1.165 5.856 1.006 11.846.999 17.783-.021 10.672-.035 21.343-.046 32.019-.01 2.769-.014 5.538-.014 8.307 0 .117-9.08.057-9.726.057h-14.376c-1.69 0-.868-3.023-.868-4.417 0-10.527 0-21.054-.01-31.584-.01-5.937.399-12.069-.702-17.939-2.543-13.663-15.497-21.58-26.836-27.499" style="fill:#000;fill-opacity:1;fill-rule:evenodd;stroke:none"/>
</svg>
