<svg xmlns="http://www.w3.org/2000/svg" width="90" height="90.003" viewBox="0 0 254 254.009">
    <path d="M3.633 118.188 118.19 3.638c4.844-4.85 12.774-4.85 17.625 0l114.547 114.55c4.85 4.844 4.85 12.775 0 17.625L135.815 250.371c-4.85 4.85-12.781 4.85-17.625 0L3.633 135.813c-4.844-4.85-4.844-12.78 0-17.625" style="fill:#fcd116;fill-opacity:1;fill-rule:nonzero;stroke:none"/>
    <path d="M6.395 120.009 120.007 6.397c3.845-3.846 10.135-3.846 13.988 0l113.612 113.612c3.845 3.845 3.845 10.135 0 13.987l-113.612 113.62c-3.853 3.845-10.143 3.845-13.988 0L6.395 133.996c-3.845-3.852-3.845-10.142 0-13.987" style="fill:#000;fill-opacity:1;fill-rule:evenodd;stroke:none"/>
    <path d="M9.951 123.508 123.507 9.953a4.955 4.955 0 0 1 6.988 0l113.556 113.555c1.922 1.923 1.922 5.066 0 6.985L130.495 244.06a4.955 4.955 0 0 1-6.988 0L9.95 130.493c-1.923-1.919-1.923-5.062 0-6.985" style="fill:#fcd116;fill-opacity:1;fill-rule:evenodd;stroke:none"/>
    <path d="M69.25 129.35c0-32.43 26.454-58.882 58.889-58.882 32.423 0 58.875 26.452 58.875 58.882l-.247 2.442 12.121-4.163c.66-.367 1.454-.483 2.205-.593 2.286-.324 4.449 1.997 4.449 4.445a4.52 4.52 0 0 1-1.253 3.094l-28.314 38.336-29.393-38.336c-.776-.822-1.253-1.944-1.253-3.094 0-2.448 1.997-4.66 4.453-4.445.754.07 1.541.226 2.204.593l12.552 4.163.05-2.442c0-20.076-16.38-36.449-36.45-36.449-20.08 0-36.455 16.373-36.455 36.45l-.152 43.617H69.253l-.003-43.618z" style="fill:#000;fill-opacity:1;fill-rule:evenodd;stroke:none"/>
</svg>
