<svg xmlns="http://www.w3.org/2000/svg" width="90.237" height="90.233" viewBox="0 0 254.669 254.658">
    <path d="M119.076 251.237c4.558 4.561 11.955 4.561 16.517 0L251.25 135.589c4.558-4.561 4.558-11.959 0-16.52L135.593 3.42c-4.562-4.561-11.96-4.561-16.517 0L3.42 119.069c-4.561 4.561-4.561 11.959 0 16.52l115.655 115.648z" style="fill:#fcd116;fill-opacity:1;fill-rule:nonzero;stroke:none"/>
    <path d="M8.924 130.082 124.58 245.73a3.905 3.905 0 0 0 5.51 0l115.652-115.648a3.894 3.894 0 0 0 0-5.506L130.089 8.927a3.905 3.905 0 0 0-5.51 0L8.924 124.576a3.9 3.9 0 0 0 0 5.506m-3.21-8.717L121.37 5.718c3.291-3.292 8.64-3.292 11.93 0l115.652 115.647c3.291 3.288 3.291 8.64 0 11.931L133.3 248.944c-3.292 3.288-8.64 3.288-11.931 0L5.714 133.296c-3.291-3.291-3.291-8.643 0-11.93" style="fill:#000;fill-opacity:1;fill-rule:nonzero;stroke:none"/>
    <path d="M140.43 66.97c2.642 0 4.804 2.142 4.811 4.784 0 1.845-1.009 2.928-2.575 4.258l-11.557 9.462 19.745 13.356a51.958 51.958 0 0 1 8.008 6.554 51.78 51.78 0 0 1 10.756 15.664c.01.018.014.035.025.053l.339.786a51.45 51.45 0 0 1 4.06 18.514v.148c0 .201.011.402.014.607 0 .064 0 .127.01.187v46.994h-25.964V142.1c0-.2 0-.398-.01-.596v-.091a25.945 25.945 0 0 0-1.492-8.068c0-.007 0-.015-.011-.022-.056-.162-.124-.324-.184-.486l-.116-.307c-.025-.064-.053-.124-.078-.19a26.196 26.196 0 0 0-9.363-11.635c-.138-.096-19.939-13.494-20.285-13.727l-4.53 14.496c-.627 1.746-1.326 3.097-2.963 3.75a4.805 4.805 0 0 1-5.418-1.344 4.662 4.662 0 0 1-.812-1.338L80.601 66.97h59.828z" style="fill:#000;fill-opacity:1;fill-rule:nonzero;stroke:none"/>
    <path d="M213.01 147.622v-12.506H109.159v12.506H213.01z" style="fill:#000;fill-opacity:1;fill-rule:evenodd;stroke:none"/>
</svg>
