<svg xmlns="http://www.w3.org/2000/svg" width="90.238" height="90.235" viewBox="0 0 254.671 254.663">
    <path d="M135.599 251.24c-4.565 4.564-11.96 4.564-16.52 0L3.423 135.595c-4.565-4.565-4.565-11.962 0-16.52L119.078 3.424c4.562-4.565 11.956-4.565 16.521 0l115.651 115.65c4.562 4.559 4.562 11.956 0 16.521L135.6 251.24z" style="fill:#fcd116;fill-opacity:1;fill-rule:nonzero;stroke:none"/>
    <path d="M245.743 130.085 130.09 245.736a3.896 3.896 0 0 1-5.504 0L8.931 130.085a3.894 3.894 0 0 1 0-5.507L124.585 8.931a3.896 3.896 0 0 1 5.504 0l115.654 115.647a3.894 3.894 0 0 1 0 5.507m3.218-8.72L133.302 5.72c-3.287-3.291-8.643-3.291-11.93 0L5.716 121.364c-3.288 3.292-3.288 8.647 0 11.938L121.37 248.946c3.288 3.292 8.644 3.292 11.931 0l115.659-115.644c3.287-3.291 3.287-8.646 0-11.938" style="fill:#000;fill-opacity:1;fill-rule:nonzero;stroke:none"/>
    <path d="m104.46 169.395-.029 23.312H79.423l-.003-23.188c-.007.155-.007.007-.007.007 0-13.223 7.2-25.856 18.513-32.467l37.331-25.385a12.596 12.596 0 0 0 5.091-10.086l.018-11.233-13.826 4.124c-1.915.533-3.33.755-4.8-.247a4.643 4.643 0 0 1-1.229-6.434l32.385-47.876 32.438 47.876a4.639 4.639 0 0 1-1.224 6.434c-1.41.96-2.868.787-4.604.346l-14.058-4.223-.028 11.38c0 10.429-3.722 21.764-12.192 27.616l-42.425 29.305c-3.82 2.202-6.318 6.315-6.343 10.739" style="fill:#000;fill-opacity:1;fill-rule:evenodd;stroke:none"/>
    <path d="m90.574 94.51 10.357-7.002 33.165 49.04-10.36 7.003-33.162-49.04z" style="fill:#000;fill-opacity:1;fill-rule:evenodd;stroke:none"/>
</svg>
