<svg xmlns="http://www.w3.org/2000/svg" width="90.238" height="90.235" viewBox="0 0 254.671 254.663">
    <path d="M119.072 251.24c4.565 4.564 11.96 4.564 16.52 0l115.655-115.645c4.565-4.565 4.565-11.962 0-16.52L135.593 3.424c-4.562-4.565-11.956-4.565-16.52 0L3.42 119.074c-4.561 4.559-4.561 11.956 0 16.521L119.072 251.24z" style="fill:#fcd116;fill-opacity:1;fill-rule:nonzero;stroke:none"/>
    <path d="m8.928 130.085 115.655 115.651a3.896 3.896 0 0 0 5.503 0L245.74 130.085a3.894 3.894 0 0 0 0-5.507L130.086 8.931a3.896 3.896 0 0 0-5.503 0L8.928 124.578a3.894 3.894 0 0 0 0 5.507m-3.217-8.72L121.369 5.72c3.288-3.291 8.643-3.291 11.93 0l115.655 115.644c3.288 3.292 3.288 8.647 0 11.938L133.3 248.946c-3.288 3.292-8.643 3.292-11.931 0L5.71 133.302c-3.288-3.291-3.288-8.646 0-11.938" style="fill:#000;fill-opacity:1;fill-rule:nonzero;stroke:none"/>
    <path d="m104.45 169.406-.025 23.304H79.416l-.007-23.184c-.007.151-.007.004-.007.004 0-13.215 7.2-25.848 18.51-32.463l37.331-25.382a12.596 12.596 0 0 0 5.091-10.086l.018-11.233-13.822 4.124c-1.916.53-3.33.759-4.805-.243a4.65 4.65 0 0 1-1.224-6.438l32.385-47.876 32.43 47.876c1.433 2.113.89 5.002-1.223 6.438-1.411.956-2.868.787-4.604.342l-14.055-4.223-.024 11.38c0 10.429-3.726 21.764-12.196 27.616l-42.418 29.299c-3.82 2.208-6.318 6.318-6.347 10.745" style="fill:#000;fill-opacity:1;fill-rule:evenodd;stroke:none"/>
    <path d="m90.564 94.525 10.361-7.006 58.166 86.014-10.354 7.003-58.173-86.011z" style="fill:#000;fill-opacity:1;fill-rule:evenodd;stroke:none"/>
</svg>
