<svg xmlns="http://www.w3.org/2000/svg" width="90" height="90.002" viewBox="0 0 254 254.005">
    <path d="M250.365 118.188 135.81 3.638c-4.848-4.85-12.778-4.85-17.625 0L3.636 118.188c-4.848 4.844-4.848 12.775 0 17.625l114.55 114.554c4.847 4.851 12.777 4.851 17.625 0l114.554-114.554c4.847-4.85 4.847-12.78 0-17.625" style="fill:#fcd116;fill-opacity:1;fill-rule:nonzero;stroke:none"/>
    <path d="M247.602 120.005 133.99 6.393c-3.846-3.845-10.136-3.845-13.985 0L6.397 120.005c-3.845 3.846-3.845 10.143 0 13.988l113.608 113.62c3.85 3.844 10.14 3.844 13.985 0l113.612-113.62c3.845-3.845 3.845-10.142 0-13.988" style="fill:#000;fill-opacity:1;fill-rule:evenodd;stroke:none"/>
    <path d="M244.053 123.505 130.494 9.949a4.955 4.955 0 0 0-6.989 0L9.95 123.505a4.955 4.955 0 0 0 0 6.988l113.555 113.563a4.955 4.955 0 0 0 6.989 0l113.56-113.563a4.961 4.961 0 0 0 0-6.988" style="fill:#fcd116;fill-opacity:1;fill-rule:evenodd;stroke:none"/>
    <path d="M160.613 121.61c.021 17.42.046 34.83.064 52.243h19.917c.004-17.434.007-34.872.014-52.303 0-28.864-26.56-52.278-58.987-52.278-32.428 0-58.872 23.545-58.872 52.409 0 27.058 23.244 49.442 52.867 52.137l-3.14 11.3c-.349 1.386-.486 2.543.276 3.665a3.695 3.695 0 0 0 5.126.98l38.138-25.84-38.138-25.796a3.696 3.696 0 0 0-5.126.97c-.798 1.179-.621 2.304-.194 3.825l3.15 10.851c-18.658-2.388-33.02-15.885-33.02-32.092 0-17.882 17.487-32.466 38.933-32.466 21.445 0 38.936 14.584 38.992 32.395" style="fill:#000;fill-opacity:1;fill-rule:evenodd;stroke:none"/>
</svg>
