<svg xmlns="http://www.w3.org/2000/svg" width="90.237" height="90.233" viewBox="0 0 254.669 254.658">
    <path d="M135.594 251.237c-4.558 4.561-11.956 4.561-16.517 0L3.418 135.589c-4.557-4.561-4.557-11.959 0-16.52L119.077 3.42c4.561-4.561 11.959-4.561 16.517 0l115.654 115.648c4.562 4.561 4.562 11.959 0 16.52L135.594 251.237z" style="fill:#fcd116;fill-opacity:1;fill-rule:nonzero;stroke:none"/>
    <path d="M245.745 130.082 130.09 245.73a3.905 3.905 0 0 1-5.51 0L8.929 130.082a3.894 3.894 0 0 1 0-5.506L124.58 8.927a3.905 3.905 0 0 1 5.51 0l115.655 115.648a3.9 3.9 0 0 1 0 5.506m3.21-8.717L133.301 5.718c-3.292-3.292-8.64-3.292-11.931 0L5.719 121.365c-3.292 3.288-3.292 8.64 0 11.931l115.65 115.648c3.292 3.288 8.64 3.288 11.932 0l115.654-115.648c3.292-3.291 3.292-8.643 0-11.93" style="fill:#000;fill-opacity:1;fill-rule:nonzero;stroke:none"/>
    <path d="M114.24 66.97c-2.642 0-4.805 2.142-4.812 4.784 0 1.845 1.01 2.928 2.575 4.258l11.557 9.462-19.745 13.356a51.958 51.958 0 0 0-8.008 6.554 51.78 51.78 0 0 0-10.756 15.664c-.01.018-.014.035-.025.053-.113.26-.225.522-.338.786a51.45 51.45 0 0 0-4.06 18.514v.148c0 .201-.012.402-.015.607 0 .064 0 .127-.01.187v46.994h25.965V142.1c0-.2 0-.398.01-.596v-.091c.07-2.79.578-5.507 1.492-8.068 0-.007 0-.015.01-.022.057-.162.124-.324.184-.486l.117-.307c.025-.064.053-.124.078-.19a26.196 26.196 0 0 1 9.363-11.635c.137-.096 19.938-13.494 20.284-13.727l4.53 14.496c.628 1.746 1.326 3.097 2.963 3.75a4.805 4.805 0 0 0 5.419-1.344c.338-.389.61-.837.811-1.338l22.24-55.573H114.24z" style="fill:#000;fill-opacity:1;fill-rule:nonzero;stroke:none"/>
    <path d="M41.66 147.622v-12.506h103.85v12.506H41.66z" style="fill:#000;fill-opacity:1;fill-rule:evenodd;stroke:none"/>
</svg>
