<svg xmlns="http://www.w3.org/2000/svg" width="108.958" height="108.945" viewBox="-1 0 108.958 108.945" xml:space="preserve">
    <path d="M50.56 107.753.207 57.4a4.136 4.136 0 0 1 0-5.84L50.558 1.21a4.137 4.137 0 0 1 5.84-.003l50.352 50.356a4.135 4.135 0 0 1 .001 5.84L56.4 107.753c-1.59 1.586-4.251 1.59-5.84 0" style="fill:#fcd116;fill-opacity:1;fill-rule:nonzero;stroke:none"/>
    <path d="M51.36 106.933 1.028 56.598c-1.157-1.16-1.155-3.079 0-4.239L51.36 2.03c1.158-1.16 3.076-1.158 4.238 0l50.332 50.333a3.016 3.016 0 0 1 0 4.236l-50.332 50.335c-1.16 1.153-3.078 1.156-4.237 0" style="fill:#000;fill-opacity:1;fill-rule:evenodd;stroke:none"/>
    <path d="M52.482 105.783 2.177 55.478a1.403 1.403 0 0 1 0-1.997L52.481 3.178a1.4 1.4 0 0 1 1.996 0l50.304 50.303c.556.541.556 1.46-.001 2l-50.302 50.302a1.403 1.403 0 0 1-1.996 0" style="fill:#fcd116;fill-opacity:1;fill-rule:evenodd;stroke:none"/>
    <path d="m31.057 43.424-.017 31.77h10.562l.002-27.428c0-1.617 1.383-2.635 2.634-2.635l17.665.062-1.966 5.931c-.173.313-.247.683-.28 1.042-.102 1.157.945 2.101 2.102 2.101.543 0 1.074-.221 1.459-.593L81.329 39.79 63.218 26.413a2.14 2.14 0 0 0-1.459-.591c-1.157 0-2.255 1.021-2.101 2.1.051.357.105.731.279 1.042l1.966 5.728-22.036-.01c-4.853 0-8.81 3.956-8.81 8.81v-.068" style="fill:#000;fill-opacity:1;fill-rule:evenodd;stroke:none"/>
    <path d="M62.36 75.246v-2.859h-9.422c.562-1.068 1.01-1.684 1.74-2.3.953-.841 1.57-1.121 3.7-1.739 1.122-.335 1.852-.729 2.357-1.12a4.47 4.47 0 0 0 1.625-3.477c0-2.917-2.412-4.768-6.17-4.768-2.58 0-4.877.841-6.728 2.468l1.963 2.186c1.346-1.233 2.86-1.738 4.935-1.738 2.018 0 3.14.673 3.14 1.852 0 .952-.618 1.515-2.41 2.017-2.917.786-4.937 2.245-6.34 4.599-.895 1.571-1.288 2.974-1.288 4.879H62.36zm15.143-5.495c0-3.309-2.637-5.778-6.28-5.778-1.01 0-1.797.114-3.086.394l.166-2.3h7.91l.055-2.804H65.613l-.505 7.515 2.86.73c1.178-.449 2.02-.617 3.084-.617 1.178 0 2.02.223 2.581.672.615.505 1.01 1.346 1.01 2.188 0 1.795-1.457 2.861-3.87 2.861a9.078 9.078 0 0 1-4.655-1.293l-1.515 2.414c2.02 1.233 3.983 1.803 6.17 1.803 3.925 0 6.73-2.422 6.73-5.785" style="fill:#000;fill-opacity:1;fill-rule:evenodd;stroke:none"/>
</svg>
