<svg xmlns="http://www.w3.org/2000/svg" width="90.238" height="90.235" viewBox="0 0 254.671 254.663">
    <path d="M135.599 251.24c-4.565 4.564-11.96 4.564-16.52 0L3.423 135.595c-4.565-4.565-4.565-11.962 0-16.52L119.078 3.424c4.562-4.565 11.956-4.565 16.521 0l115.651 115.65c4.562 4.559 4.562 11.956 0 16.521L135.6 251.24z" style="fill:#fcd116;fill-opacity:1;fill-rule:nonzero;stroke:none"/>
    <path d="M245.743 130.085 130.09 245.736a3.896 3.896 0 0 1-5.504 0L8.931 130.085a3.894 3.894 0 0 1 0-5.507L124.585 8.931a3.896 3.896 0 0 1 5.504 0l115.654 115.647a3.894 3.894 0 0 1 0 5.507m3.218-8.72L133.302 5.72c-3.287-3.291-8.643-3.291-11.93 0L5.716 121.364c-3.288 3.292-3.288 8.647 0 11.938L121.37 248.946c3.288 3.292 8.643 3.292 11.931 0l115.659-115.644c3.287-3.291 3.287-8.646 0-11.938" style="fill:#000;fill-opacity:1;fill-rule:nonzero;stroke:none"/>
    <path d="m150.222 169.406.024 23.304h25.009l.007-23.184c.007.151.007.004.007.004 0-13.215-7.2-25.848-18.51-32.463l-37.331-25.382a12.596 12.596 0 0 1-5.091-10.086l-.018-11.233 13.822 4.124c1.916.53 3.33.759 4.805-.243a4.65 4.65 0 0 0 1.224-6.438l-32.385-47.876-32.43 47.876c-1.433 2.113-.89 5.002 1.224 6.438 1.41.956 2.868.787 4.603.342l14.055-4.223.025 11.38c0 10.429 3.725 21.764 12.195 27.616l42.418 29.299c3.82 2.208 6.319 6.318 6.347 10.745" style="fill:#000;fill-opacity:1;fill-rule:evenodd;stroke:none"/>
    <path d="m164.107 94.525-10.361-7.006-58.166 86.014 10.354 7.003 58.173-86.011z" style="fill:#000;fill-opacity:1;fill-rule:evenodd;stroke:none"/>
</svg>
