<svg xmlns="http://www.w3.org/2000/svg" width="90.232" height="90.229" viewBox="0 0 254.654 254.646">
    <path d="M119.064 251.223c4.565 4.565 11.96 4.565 16.52 0l115.652-115.637c4.558-4.565 4.558-11.963 0-16.524L135.585 3.422c-4.562-4.562-11.956-4.562-16.52 0L3.423 119.061c-4.565 4.561-4.565 11.959 0 16.524z" style="fill:#fcd116;fill-opacity:1;fill-rule:nonzero;stroke:none"/>
    <path d="m8.927 130.075 115.644 115.64a3.903 3.903 0 0 0 5.514 0l115.637-115.64a3.894 3.894 0 0 0 0-5.506L130.085 8.931a3.903 3.903 0 0 0-5.514 0L8.927 124.568a3.894 3.894 0 0 0 0 5.507m-3.21-8.717L121.36 5.718c3.291-3.288 8.64-3.288 11.93 0l115.648 115.64c3.292 3.288 3.292 8.64 0 11.931L133.292 248.93c-3.292 3.289-8.64 3.289-11.931 0L5.717 133.29c-3.292-3.291-3.292-8.643 0-11.93" style="fill:#000;fill-opacity:1;fill-rule:nonzero;stroke:none"/>
    <path d="M88.19 66.635h53.18c1.775 0 3.747.438 5.031 1.75 1.535 1.573 1.595 4.3.236 5.997-.698.875-1.545 1.648-2.296 2.48l-2.66 2.935c-1.912 2.117-3.824 4.237-5.74 6.354-.144.155-.286.314-.427.47 3.966 1.802 7.821 3.887 11.437 6.324 3.627 2.438 11.543 8.972 14.655 11.977V77.84h12.506l.01 110.116c0 .225-.233.123-.434.123-5.44 0-24.564.018-24.564-.014 0-.293-.021-42.228-.021-46.32-.01-3.62-.325-7.33-1.492-10.777-1.39-4.117-3.61-8.061-6.731-11.12-1.64-1.598-3.302-3.118-5.12-4.508-4.176-3.2-8.706-5.93-13.362-8.361l-.861-.448c-1.38 4.576-2.755 9.151-4.131 13.73-.434 1.432-1.22 2.822-2.544 3.595-1.975 1.153-4.618.727-6.173-.91-.812-.843-1.242-1.806-1.747-2.826-1.901-3.86-3.806-7.719-5.708-11.578-2.86-5.807-5.725-11.614-8.586-17.42-2.674-5.423-5.345-10.845-8.022-16.267-1.33-2.706-2.667-5.412-4-8.117-.015-.028-.026-.064-.043-.095z" style="fill:#000;fill-opacity:1;fill-rule:evenodd;stroke:none"/>
</svg>
