<svg xmlns="http://www.w3.org/2000/svg" width="90.238" height="90.235" viewBox="0 0 254.671 254.663">
    <path d="M119.072 251.24c4.565 4.564 11.96 4.564 16.52 0l115.655-115.645c4.565-4.565 4.565-11.962 0-16.52L135.593 3.424c-4.562-4.565-11.956-4.565-16.52 0L3.42 119.074c-4.561 4.559-4.561 11.956 0 16.521L119.072 251.24z" style="fill:#fcd116;fill-opacity:1;fill-rule:nonzero;stroke:none"/>
    <path d="m8.928 130.085 115.655 115.651a3.896 3.896 0 0 0 5.503 0L245.74 130.085a3.894 3.894 0 0 0 0-5.507L130.086 8.931a3.896 3.896 0 0 0-5.503 0L8.928 124.578a3.894 3.894 0 0 0 0 5.507m-3.217-8.72L121.369 5.72c3.288-3.291 8.643-3.291 11.93 0l115.655 115.644c3.288 3.292 3.288 8.647 0 11.938L133.3 248.946c-3.288 3.292-8.643 3.292-11.931 0L5.71 133.302c-3.288-3.291-3.288-8.646 0-11.938" style="fill:#000;fill-opacity:1;fill-rule:nonzero;stroke:none"/>
    <path d="m150.212 169.395.028 23.312h25.009l.003-23.188c.007.155.007.007.007.007 0-13.223-7.2-25.856-18.514-32.467l-37.331-25.385a12.596 12.596 0 0 1-5.09-10.086l-.019-11.233 13.826 4.124c1.915.533 3.33.755 4.801-.247a4.643 4.643 0 0 0 1.228-6.434l-32.385-47.876-32.438 47.876a4.639 4.639 0 0 0 1.224 6.434c1.411.96 2.868.787 4.604.346l14.058-4.223.028 11.38c0 10.429 3.722 21.764 12.192 27.616l42.425 29.305c3.82 2.202 6.318 6.315 6.343 10.739" style="fill:#000;fill-opacity:1;fill-rule:evenodd;stroke:none"/>
    <path d="m164.097 94.51-10.357-7.002-33.165 49.04 10.361 7.003 33.161-49.04z" style="fill:#000;fill-opacity:1;fill-rule:evenodd;stroke:none"/>
</svg>
