<svg xmlns="http://www.w3.org/2000/svg" width="90" height="90" viewBox="0 0 254 254">
    <path d="M3.392 118.775 118.772 3.392c4.526-4.523 11.927-4.523 16.453 0l115.383 115.383c4.523 4.523 4.523 11.924 0 16.454L135.225 250.608c-4.526 4.523-11.927 4.523-16.454 0L3.392 135.228c-4.523-4.53-4.523-11.93 0-16.453" style="fill:#fcd116;fill-opacity:1;fill-rule:nonzero;stroke:none"/>
    <path d="M5.587 120.971 120.97 5.591c3.316-3.316 8.741-3.316 12.058 0l115.38 115.38c3.315 3.316 3.315 8.742 0 12.058l-115.38 115.383c-3.317 3.316-8.742 3.316-12.058 0L5.587 133.029c-3.317-3.316-3.317-8.742 0-12.058" style="fill:#000;fill-opacity:1;fill-rule:evenodd;stroke:none"/>
    <path d="M8.887 124.266 124.267 8.883a3.882 3.882 0 0 1 5.464 0l115.383 115.383a3.875 3.875 0 0 1 0 5.465L129.73 245.11a3.869 3.869 0 0 1-5.465 0L8.886 129.73a3.869 3.869 0 0 1 0-5.465" style="fill:#fcd116;fill-opacity:1;fill-rule:evenodd;stroke:none"/>
    <path d="m76.714 110.383-.046 76.528h27.227l.008-65.338c0-4.163 3.566-6.788 6.79-6.788l41.819.16-5.07 15.289c-.44.804-.635 1.76-.716 2.684-.264 2.985 2.43 5.415 5.412 5.415a5.517 5.517 0 0 0 3.764-1.52l46.687-35.796-46.687-34.485a5.501 5.501 0 0 0-3.764-1.52c-2.981 0-5.81 2.628-5.412 5.412.13.92.272 1.883.716 2.684l5.07 14.768-53.086-.029c-12.51 0-22.712 10.203-22.712 22.709v-.173z" style="fill:#000;fill-opacity:1;fill-rule:evenodd;stroke:none"/>
</svg>
