<svg xmlns="http://www.w3.org/2000/svg" width="90.232" height="90.229" viewBox="0 0 254.656 254.646">
    <path d="M135.592 251.222c-4.565 4.565-11.966 4.565-16.524 0L3.424 135.588c-4.565-4.565-4.565-11.962 0-16.52L119.068 3.424c4.558-4.565 11.959-4.565 16.524 0l115.64 115.644c4.565 4.558 4.565 11.955 0 16.52l-115.64 115.634z" style="fill:#fcd116;fill-opacity:1;fill-rule:nonzero;stroke:none"/>
    <path d="m8.926 130.078 115.648 115.64a3.894 3.894 0 0 0 5.506 0l115.648-115.64a3.899 3.899 0 0 0 0-5.51L130.08 8.934a3.894 3.894 0 0 0-5.506 0L8.926 124.568a3.911 3.911 0 0 0 0 5.51m-3.21-8.72L121.363 5.716c3.288-3.292 8.64-3.292 11.928 0l115.647 115.64c3.288 3.292 3.288 8.64 0 11.931l-115.647 115.64c-3.288 3.292-8.64 3.292-11.928 0L5.716 133.289c-3.288-3.291-3.288-8.64 0-11.93" style="fill:#000;fill-opacity:1;fill-rule:nonzero;stroke:none"/>
    <path d="m129.98 97.827 5.539-11.215 82.366 40.679-5.538 11.211-82.367-40.675z" style="fill:#000;fill-opacity:1;fill-rule:evenodd;stroke:none"/>
    <path d="m121.532 106.527-4.13 13.726c-.428 1.436-1.214 2.826-2.54 3.598-1.98 1.15-4.615.724-6.181-.91-.808-.843-1.235-1.806-1.74-2.829-1.901-3.86-3.803-7.719-5.711-11.575-2.861-5.806-5.722-11.617-8.587-17.42-2.67-5.426-5.344-10.844-8.018-16.266-1.334-2.706-2.664-5.412-4.004-8.118a.446.446 0 0 0-.043-.095h25.171c6.54-.007 13.081-.007 19.618-.007h16.002c1.775 0 3.75.434 5.03 1.746 1.535 1.577 1.592 4.304.24 6.001-.701.875-1.541 1.644-2.3 2.48-.882.98-1.77 1.95-2.652 2.932-1.913 2.116-3.828 4.24-5.744 6.357-.14.151-.285.314-.427.465 3.97 1.807 7.822 3.888 11.441 6.326 3.76 2.536 7.295 5.274 10.633 8.357 3.154 2.917 6.022 6.343 8.308 9.973a54.229 54.229 0 0 1 5.732 12.259c1.376 4.212 2.015 8.618 2.392 13.018.25 2.9.162 5.838.159 8.745-.007 5.687-.018 11.377-.021 17.064-.014 6.209-.018 12.418-.032 18.626-.003 1.912-.003 3.821-.01 5.733v1.235c0 .226-.23.127-.435.127h-23.636c-.063 0-.92.014-.92-.014v-.875c-.008-4.52-.008-9.038-.015-13.557 0-6.534-.004-13.067-.01-19.608 0-4.092 0-8.191-.003-12.28 0-3.623-.325-7.33-1.486-10.781-1.39-4.113-3.608-8.06-6.738-11.116-1.633-1.598-3.305-3.119-5.118-4.512-4.174-3.2-8.703-5.93-13.364-8.36-.285-.149-.568-.297-.86-.445" style="fill:#000;fill-opacity:1;fill-rule:evenodd;stroke:none"/>
</svg>
