<svg xmlns="http://www.w3.org/2000/svg" width="90" height="90.002" viewBox="0 0 254 254.005">
    <path d="M3.635 118.188 118.19 3.638c4.848-4.85 12.778-4.85 17.625 0l114.55 114.55c4.848 4.844 4.848 12.775 0 17.625l-114.55 114.554c-4.847 4.851-12.777 4.851-17.625 0L3.635 135.813c-4.847-4.85-4.847-12.78 0-17.625" style="fill:#fcd116;fill-opacity:1;fill-rule:nonzero;stroke:none"/>
    <path d="M6.398 120.005 120.01 6.393c3.846-3.845 10.136-3.845 13.985 0l113.608 113.612c3.845 3.846 3.845 10.143 0 13.988l-113.608 113.62c-3.85 3.844-10.14 3.844-13.985 0L6.398 133.992c-3.845-3.845-3.845-10.142 0-13.988" style="fill:#000;fill-opacity:1;fill-rule:evenodd;stroke:none"/>
    <path d="M9.947 123.505 123.507 9.949a4.955 4.955 0 0 1 6.988 0L244.05 123.505a4.955 4.955 0 0 1 0 6.988L130.495 244.056a4.955 4.955 0 0 1-6.989 0L9.946 130.493a4.961 4.961 0 0 1 0-6.988" style="fill:#fcd116;fill-opacity:1;fill-rule:evenodd;stroke:none"/>
    <path d="M93.387 121.61c-.021 17.42-.046 34.83-.064 52.243H73.406c-.004-17.434-.007-34.872-.014-52.303 0-28.864 26.56-52.278 58.988-52.278 32.427 0 58.871 23.545 58.871 52.409 0 27.058-23.244 49.442-52.867 52.137l3.14 11.3c.349 1.386.486 2.543-.276 3.665a3.695 3.695 0 0 1-5.125.98l-38.14-25.84 38.14-25.796a3.696 3.696 0 0 1 5.125.97c.798 1.179.621 2.304.194 3.825l-3.15 10.851c18.659-2.388 33.02-15.885 33.02-32.092 0-17.882-17.487-32.466-38.932-32.466-21.446 0-38.937 14.584-38.993 32.395" style="fill:#000;fill-opacity:1;fill-rule:evenodd;stroke:none"/>
</svg>
