<svg xmlns="http://www.w3.org/2000/svg" width="108.958" height="108.946" viewBox="-1 0 108.958 108.946" xml:space="preserve">
    <path d="M50.56 107.754.207 57.401a4.136 4.136 0 0 1 0-5.84L50.558 1.208a4.137 4.137 0 0 1 5.84-.002l50.352 50.358a4.133 4.133 0 0 1 .001 5.837L56.4 107.755c-1.59 1.586-4.251 1.59-5.84 0" style="fill:#fcd116;fill-opacity:1;fill-rule:nonzero;stroke:none"/>
    <path d="M51.36 106.934 1.027 56.6c-1.157-1.16-1.155-3.078 0-4.238L51.36 2.028c1.158-1.159 3.075-1.156 4.238 0l50.332 50.335a3.017 3.017 0 0 1 0 4.236l-50.332 50.335c-1.162 1.153-3.078 1.157-4.238 0" style="fill:#000;fill-opacity:1;fill-rule:evenodd;stroke:none"/>
    <path d="M52.482 105.784 2.177 55.48a1.402 1.402 0 0 1 0-1.997L52.481 3.179a1.4 1.4 0 0 1 1.996 0l50.304 50.303c.556.54.556 1.46-.001 2l-50.302 50.302a1.403 1.403 0 0 1-1.996 0" style="fill:#fcd116;fill-opacity:1;fill-rule:evenodd;stroke:none"/>
    <path d="m31.056 43.43-.018 31.77H41.6l.004-27.43c0-1.614 1.38-2.634 2.632-2.634l17.666.063-1.966 5.932c-.172.31-.246.682-.279 1.04-.102 1.158.943 2.102 2.1 2.102a2.14 2.14 0 0 0 1.46-.591l18.11-13.886-18.11-13.377a2.137 2.137 0 0 0-1.46-.59c-1.157 0-2.253 1.02-2.1 2.1.052.355.105.73.28 1.042l1.965 5.727-22.037-.01c-4.851 0-8.809 3.956-8.809 8.808v-.067" style="fill:#000;fill-opacity:1;fill-rule:evenodd;stroke:none"/>
    <path d="M60.35 56.57c8.757 0 15.898 7.14 15.898 15.896 0 8.755-7.14 15.895-15.897 15.895-8.755 0-15.895-7.14-15.895-15.895 0-8.755 7.14-15.897 15.895-15.897" style="fill:#000;fill-opacity:1;fill-rule:evenodd;stroke:none"/>
    <path d="M60.35 58.69c7.588 0 13.776 6.188 13.776 13.776S67.938 86.243 60.35 86.243c-7.588 0-13.778-6.189-13.778-13.777 0-7.588 6.19-13.777 13.778-13.777" style="fill:#fcd116;fill-opacity:1;fill-rule:evenodd;stroke:none"/>
    <path d="M57.887 75.73v3.3h-2.09v-3.3h-6.551v-1.253l6.551-8.688h2.09v8.037h1.254v1.905h-1.254zm-2.09-6.874-3.764 4.97h3.764v-4.97M69.966 77.776c-.743 1.021-1.811 1.487-3.206 1.487-1.858 0-3.02-.745-3.81-2.371-.557-1.114-.93-2.879-.93-4.46 0-2.183.56-4.134 1.44-5.389.792-1.021 1.86-1.486 3.393-1.486 1.672 0 2.834.744 3.67 2.37.558 1.16.884 2.834.884 4.505 0 2.092-.512 4.182-1.441 5.344zm-1.441-9.06c-.418-.698-.928-.977-1.718-1.023-1.022-.045-1.674.466-2.137 1.626-.325.792-.512 2-.512 3.113 0 1.394.28 2.835.79 3.671.42.696.975 1.023 1.812 1.023.976 0 1.58-.512 2.046-1.674.277-.696.51-1.998.51-3.02 0-1.485-.28-2.833-.791-3.716" style="fill:#000;fill-opacity:1;fill-rule:nonzero;stroke:none"/>
</svg>
