<svg xmlns="http://www.w3.org/2000/svg" width="90.123" height="90.107" viewBox="0 0 254.347 254.303">
    <path d="M3.64 118.329 118.333 3.64c4.854-4.855 12.8-4.855 17.65 0l114.727 114.688c4.85 4.85 4.85 12.791 0 17.646L135.982 250.663c-4.85 4.854-12.796 4.854-17.65 0L3.641 135.975c-4.855-4.855-4.855-12.796 0-17.646" style="fill:#fcd116;fill-opacity:1;fill-rule:nonzero;stroke:none"/>
    <path d="M6.403 120.153 120.149 6.406c3.86-3.848 10.156-3.848 14.009 0l113.785 113.747c3.849 3.848 3.849 10.149 0 13.998L134.158 247.897c-3.853 3.849-10.15 3.849-14.009 0L6.403 134.151c-3.849-3.849-3.849-10.15 0-13.998" style="fill:#000;fill-opacity:1;fill-rule:evenodd;stroke:none"/>
    <path d="M9.959 123.652 123.656 9.96c1.922-1.923 5.073-1.923 6.995 0l113.736 113.693c1.922 1.923 1.922 5.073 0 7L130.65 244.34a4.957 4.957 0 0 1-6.995 0L9.959 130.651c-1.923-1.926-1.923-5.076 0-6.999" style="fill:#fcd116;fill-opacity:1;fill-rule:evenodd;stroke:none"/>
    <path d="M132.951 106.373c1.052 3.51 2.117 7.024 3.172 10.538 1.192 3.954 4.36 10.911 9.468 6.046 1.39-1.323 2.113-3.383 2.95-5.07 1.633-3.326 3.277-6.65 4.917-9.98 6.795-13.79 13.596-27.58 20.394-41.37-15.409 0-30.811-.004-46.217-.004l-10.933-.003c-1.965 0-4.194-.211-6.096.343-3.051.882-4.956 4.416-2.85 7.235.977 1.32 2.31 2.519 3.418 3.747 2.61 2.878 5.21 5.757 7.81 8.636-10.632 4.83-20.481 11.839-27.784 21.015-6.615-6.612-13.23-13.226-19.84-19.837-1.214-1.217-2.434-2.434-3.655-3.658-.829-.83-1.235.3-1.993 1.054-3.316 3.32-6.632 6.633-9.952 9.945 5.965 5.962 11.924 11.924 17.886 17.882 2.953 2.953 5.902 5.899 8.844 8.852 1.45 1.435-.716 5.895-1.115 7.902-1.164 5.856-1.005 11.846-.998 17.783.02 10.672.035 21.343.046 32.019.01 2.769.014 5.538.014 8.307 0 .117 9.08.057 9.726.057h14.376c1.69 0 .867-3.023.867-4.417 0-10.527 0-21.054.01-31.584.01-5.937-.398-12.069.702-17.939 2.544-13.663 15.498-21.58 26.836-27.499" style="fill:#000;fill-opacity:1;fill-rule:evenodd;stroke:none"/>
</svg>
