<svg xmlns="http://www.w3.org/2000/svg" width="89.999" height="90.002" viewBox="0 0 253.997 254.005">
    <path d="M250.362 118.185 135.808 3.638c-4.847-4.85-12.778-4.85-17.621 0L3.633 118.185c-4.844 4.844-4.844 12.774 0 17.625l114.554 114.557c4.843 4.851 12.774 4.851 17.621 0L250.362 135.81c4.847-4.85 4.847-12.781 0-17.625" style="fill:#fcd116;fill-opacity:1;fill-rule:nonzero;stroke:none"/>
    <path d="M247.6 120.005 133.988 6.393c-3.846-3.845-10.136-3.845-13.98 0L6.394 120.005c-3.845 3.846-3.845 10.136 0 13.988l113.612 113.612c3.845 3.852 10.135 3.852 13.98 0L247.6 133.993c3.845-3.852 3.845-10.142 0-13.988" style="fill:#000;fill-opacity:1;fill-rule:evenodd;stroke:none"/>
    <path d="M244.05 123.505 130.493 9.949c-1.92-1.922-5.07-1.922-6.985 0L9.944 123.505c-1.916 1.922-1.916 5.066 0 6.988l113.563 113.563c1.915 1.923 5.066 1.923 6.985 0L244.05 130.493a4.955 4.955 0 0 0 0-6.988" style="fill:#fcd116;fill-opacity:1;fill-rule:evenodd;stroke:none"/>
    <path d="m135.042 156.955-1.848-1.065a2.837 2.837 0 0 0-3.059.159 2.834 2.834 0 0 0-1.4-2.73l-1.845-1.07c-1.344-.769-3.08-.307-3.853 1.034l-4.706 8.153a2.837 2.837 0 0 0 1.034 3.859l1.849 1.062a2.83 2.83 0 0 0 3.058-.152 2.842 2.842 0 0 0 1.39 2.727l1.849 1.062a2.833 2.833 0 0 0 3.86-1.027l4.705-8.152a2.843 2.843 0 0 0-1.034-3.86M105.042 139.634l-1.848-1.066a2.836 2.836 0 0 0-3.059.156 2.848 2.848 0 0 0-1.397-2.727l-1.848-1.07a2.843 2.843 0 0 0-3.86 1.034l-4.706 8.153a2.843 2.843 0 0 0 1.034 3.86l1.848 1.058c.992.571 2.191.476 3.059-.152a2.85 2.85 0 0 0 1.397 2.73l1.848 1.063a2.838 2.838 0 0 0 3.86-1.027l4.706-8.153c.769-1.344.31-3.08-1.034-3.86M167.251 106.949l-43.166-24.924-28.67 49.657 43.166 24.924 28.67-49.657z" style="fill:#000;fill-opacity:1;fill-rule:evenodd;stroke:none"/>
    <path d="M195.311 119.6zm-12.46 0zm-124.601 0 .014 7.874-6.876-2.054c-.952-.26-1.654-.37-2.392.124a2.303 2.303 0 0 0-.606 3.196l16.104 23.813 16.129-23.813a2.304 2.304 0 0 0-.614-3.196c-.695-.476-1.425-.392-2.286-.173l-6.988 2.103-.022-7.874c-.02-30.89 25.171-56.081 56.06-56.081 30.89 0 56.078 25.191 56.078 56.08v19.238h12.46V119.6c0-37.755-30.787-68.545-68.538-68.545-37.75 0-68.537 30.79-68.523 68.545M182.851 172.989H70.693v6.237H182.85v-6.237z" style="fill:#000;fill-opacity:1;fill-rule:evenodd;stroke:none"/>
</svg>
