<svg xmlns="http://www.w3.org/2000/svg" width="90.232" height="90.229" viewBox="0 0 254.656 254.646">
    <path d="M119.064 251.222c4.565 4.565 11.967 4.565 16.524 0l115.644-115.634c4.565-4.565 4.565-11.962 0-16.52L135.588 3.424c-4.557-4.565-11.959-4.565-16.524 0L3.424 119.068c-4.565 4.558-4.565 11.955 0 16.52l115.64 115.634z" style="fill:#fcd116;fill-opacity:1;fill-rule:nonzero;stroke:none"/>
    <path d="m245.73 130.078-115.647 115.64a3.894 3.894 0 0 1-5.507 0L8.928 130.079a3.899 3.899 0 0 1 0-5.51L124.576 8.934a3.894 3.894 0 0 1 5.507 0L245.73 124.568a3.911 3.911 0 0 1 0 5.51m3.21-8.72L133.293 5.716c-3.288-3.292-8.64-3.292-11.928 0L5.718 121.357c-3.288 3.292-3.288 8.64 0 11.931l115.647 115.64c3.288 3.292 8.64 3.292 11.928 0l115.647-115.64c3.288-3.291 3.288-8.64 0-11.93" style="fill:#000;fill-opacity:1;fill-rule:nonzero;stroke:none"/>
    <path d="m124.676 97.827-5.538-11.215-82.367 40.679 5.539 11.211 82.366-40.675z" style="fill:#000;fill-opacity:1;fill-rule:evenodd;stroke:none"/>
    <path d="m133.124 106.527 4.13 13.726c.428 1.436 1.214 2.826 2.54 3.598 1.98 1.15 4.615.724 6.182-.91.807-.843 1.234-1.806 1.739-2.829 1.901-3.86 3.803-7.719 5.711-11.575 2.861-5.806 5.722-11.617 8.587-17.42 2.67-5.426 5.344-10.844 8.018-16.266 1.334-2.706 2.664-5.412 4.005-8.118a.446.446 0 0 1 .042-.095h-25.171c-6.54-.007-13.08-.007-19.618-.007h-16.002c-1.774 0-3.75.434-5.03 1.746-1.535 1.577-1.591 4.304-.24 6.001.702.875 1.541 1.644 2.3 2.48.882.98 1.77 1.95 2.653 2.932 1.912 2.116 3.827 4.24 5.743 6.357.141.151.286.314.427.465-3.969 1.807-7.821 3.888-11.44 6.326-3.761 2.536-7.296 5.274-10.634 8.357-3.153 2.917-6.021 6.343-8.307 9.973a54.229 54.229 0 0 0-5.733 12.259c-1.376 4.212-2.014 8.618-2.392 13.018-.25 2.9-.162 5.838-.159 8.745.007 5.687.018 11.377.021 17.064.015 6.209.018 12.418.032 18.626.003 1.912.003 3.821.011 5.733v1.235c0 .226.23.127.434.127h23.636c.064 0 .92.014.92-.014v-.875c.008-4.52.008-9.038.015-13.557 0-6.534.004-13.067.01-19.608 0-4.092 0-8.191.004-12.28 0-3.623.324-7.33 1.485-10.781 1.39-4.113 3.609-8.06 6.738-11.116 1.633-1.598 3.305-3.119 5.119-4.512 4.173-3.2 8.703-5.93 13.363-8.36.286-.149.568-.297.86-.445" style="fill:#000;fill-opacity:1;fill-rule:evenodd;stroke:none"/>
</svg>
