<svg xmlns="http://www.w3.org/2000/svg" width="108.958" height="108.946" viewBox="-1 0 108.958 108.946" xml:space="preserve">
    <path d="m56.399 107.754 50.352-50.353a4.136 4.136 0 0 0 .001-5.84L56.4 1.208a4.137 4.137 0 0 0-5.842-.002L.208 51.564A4.133 4.133 0 0 0 .205 57.4l50.352 50.354c1.59 1.586 4.252 1.59 5.84 0" style="fill:#fcd116;fill-opacity:1;fill-rule:nonzero;stroke:none"/>
    <path d="M55.599 106.934 105.93 56.6c1.158-1.16 1.155-3.078 0-4.238L55.6 2.028c-1.16-1.159-3.075-1.156-4.24 0L1.03 52.363a3.017 3.017 0 0 0 0 4.236l50.33 50.335c1.163 1.153 3.08 1.157 4.24 0" style="fill:#000;fill-opacity:1;fill-rule:evenodd;stroke:none"/>
    <path d="m54.476 105.784 50.305-50.305a1.402 1.402 0 0 0 0-1.997L54.477 3.179a1.4 1.4 0 0 0-1.996 0L2.177 53.482c-.556.54-.556 1.46.001 2l50.302 50.302c.54.557 1.456.557 1.996 0" style="fill:#fcd116;fill-opacity:1;fill-rule:evenodd;stroke:none"/>
    <path d="m75.902 43.43.018 31.77H65.359l-.004-27.43c0-1.614-1.382-2.634-2.633-2.634l-17.666.063 1.966 5.932c.173.31.246.682.279 1.04.102 1.158-.943 2.102-2.1 2.102a2.14 2.14 0 0 1-1.46-.591L25.63 39.796l18.11-13.377c.385-.37.92-.59 1.46-.59 1.157 0 2.254 1.02 2.1 2.1-.051.355-.105.73-.279 1.042l-1.966 5.727 22.037-.01c4.852 0 8.81 3.956 8.81 8.808v-.067" style="fill:#000;fill-opacity:1;fill-rule:evenodd;stroke:none"/>
    <path d="M46.605 56.57c8.756 0 15.897 7.14 15.897 15.896 0 8.755-7.14 15.895-15.897 15.895-8.755 0-15.895-7.14-15.895-15.895 0-8.755 7.14-15.897 15.895-15.897" style="fill:#000;fill-opacity:1;fill-rule:evenodd;stroke:none"/>
    <path d="M46.605 58.69c7.587 0 13.775 6.188 13.775 13.776s-6.188 13.777-13.775 13.777c-7.588 0-13.778-6.189-13.778-13.777 0-7.588 6.19-13.777 13.778-13.777" style="fill:#fcd116;fill-opacity:1;fill-rule:evenodd;stroke:none"/>
    <path d="M44.141 75.73v3.3h-2.09v-3.3H35.5v-1.253l6.551-8.688h2.09v8.037h1.254v1.905H44.14zm-2.09-6.874-3.764 4.97h3.764v-4.97M56.22 77.776c-.743 1.021-1.811 1.487-3.206 1.487-1.858 0-3.02-.745-3.81-2.371-.557-1.114-.93-2.879-.93-4.46 0-2.183.56-4.134 1.44-5.389.792-1.021 1.86-1.486 3.393-1.486 1.672 0 2.834.744 3.67 2.37.558 1.16.884 2.834.884 4.505 0 2.092-.512 4.182-1.441 5.344zm-1.441-9.06c-.418-.698-.928-.977-1.718-1.023-1.022-.045-1.674.466-2.137 1.626-.325.792-.512 2-.512 3.113 0 1.394.28 2.835.79 3.671.42.696.975 1.023 1.812 1.023.976 0 1.58-.512 2.046-1.674.277-.696.51-1.998.51-3.02 0-1.485-.28-2.833-.791-3.716" style="fill:#000;fill-opacity:1;fill-rule:nonzero;stroke:none"/>
</svg>
