<svg xmlns="http://www.w3.org/2000/svg" width="90.003" height="89.988" viewBox="0 0 254.008 253.965">
    <path d="M120.2 251.192 2.811 133.81c-3.75-3.75-3.75-9.864 0-13.614L120.2 2.82c3.747-3.757 9.864-3.757 13.61-.01L251.19 120.2c3.754 3.75 3.76 9.857.01 13.607L133.812 251.19c-3.704 3.697-9.909 3.705-13.61 0" style="fill:#fcd116;fill-opacity:1;fill-rule:nonzero;stroke:none"/>
    <path d="M122.062 249.28 4.725 131.943c-2.696-2.703-2.689-7.176 0-9.882L122.062 4.731c2.706-2.702 7.172-2.699 9.881 0L249.277 122.07c2.699 2.702 2.706 7.164 0 9.874L131.943 249.28c-2.709 2.685-7.175 2.699-9.881 0" style="fill:#000;fill-opacity:1;fill-rule:evenodd;stroke:none"/>
    <path d="M124.68 246.598 7.406 129.328c-1.295-1.256-1.295-3.398 0-4.654L124.676 7.411c1.253-1.298 3.397-1.298 4.653 0L246.6 124.674c1.299 1.256 1.299 3.405 0 4.66L129.33 246.599c-1.256 1.298-3.39 1.298-4.65 0" style="fill:#fcd116;fill-opacity:1;fill-rule:evenodd;stroke:none"/>
    <path d="M133.855 105.296c1.253 4.155 2.502 8.304 3.75 12.46.695 2.321 1.67 4.738 4.371 5.217 2.473.438 4.657-.903 5.744-3.1 3.443-6.989 6.89-13.974 10.336-20.956a71101.23 71101.23 0 0 1 16.295-33.058c-17.456 0-34.904-.01-52.37-.01-3.665 0-11.642-1.228-13.504 2.889-1.725 3.803 2.734 7.108 5.037 9.662 2.173 2.4 4.35 4.802 6.52 7.204-13.572 6.163-25.834 15.833-32.791 29.214-6.784 13.02-5.436 28.14-5.419 42.319.018 9.313.028 18.627.042 27.933 0 .691-.19.847.505.847h21.456c.183 0 2.748.035 2.748-.028v-2.46c.01-4.416.01-8.826.01-13.246.01-9.677.018-19.364.02-29.037 0-5.93.784-11.709 3.779-16.934 5.073-8.823 14.778-14.368 23.474-18.919" style="fill:#000;fill-opacity:1;fill-rule:evenodd;stroke:none"/>
    <path d="M185.238 162.593c0-7.712-6.139-13.462-14.64-13.462-2.354 0-4.188.257-7.19.913l.391-5.358h18.436l.124-6.537h-24.836l-1.174 17.519 6.664 1.7c2.744-1.055 4.706-1.443 7.19-1.443 2.75 0 4.705.526 6.01 1.57 1.447 1.175 2.357 3.136 2.357 5.098 0 4.184-3.397 6.664-9.02 6.664a21.15 21.15 0 0 1-10.845-3.006l-3.531 5.62c4.706 2.879 9.281 4.208 14.376 4.208 9.15 0 15.688-5.64 15.688-13.486m-35.3 1.182c0-3.535-1.047-5.493-4.705-8.763 2.219-2.876 3.005-4.576 3.005-7.063 0-6.011-5.493-10.456-12.943-10.456-5.362 0-9.934 1.958-13.596 5.75l4.977 4.575c2.216-2.346 5.091-3.661 8.234-3.661 3.92 0 6.534 1.704 6.534 3.93 0 2.084-2.092 3.658-4.971 3.658h-1.563v6.667h1.824c1.436 0 2.618.258 3.665.787 1.7.91 2.88 3.002 2.88 4.833 0 3.136-3.144 5.225-7.723 5.225-4.308 0-7.708-1.436-10.33-4.833l-5.348 4.053c1.302 1.566 1.955 2.22 2.872 3.006 3.263 3.005 7.839 4.596 12.414 4.596 8.368 0 14.775-5.383 14.775-12.304" style="fill:#000;fill-opacity:1;fill-rule:evenodd;stroke:none"/>
</svg>
