<svg xmlns="http://www.w3.org/2000/svg" width="108.959" height="108.946" viewBox="-1 0 108.959 108.946" xml:space="preserve">
    <path d="M50.56 107.754.208 57.401a4.137 4.137 0 0 1-.003-5.84L50.56 1.208a4.135 4.135 0 0 1 5.84-.002l50.351 50.358a4.133 4.133 0 0 1 .002 5.837L56.4 107.755c-1.59 1.586-4.251 1.59-5.84 0" style="fill:#fcd116;fill-opacity:1;fill-rule:nonzero;stroke:none"/>
    <path d="M51.36 106.934 1.03 56.6c-1.158-1.16-1.156-3.078 0-4.238L51.36 2.028c1.16-1.159 3.077-1.156 4.24 0l50.332 50.335a3.018 3.018 0 0 1 0 4.236l-50.333 50.335c-1.162 1.153-3.079 1.157-4.239 0" style="fill:#000;fill-opacity:1;fill-rule:evenodd;stroke:none"/>
    <path d="M52.484 105.784 2.18 55.48a1.4 1.4 0 0 1 0-1.997L52.482 3.179a1.4 1.4 0 0 1 1.996 0l50.304 50.303c.556.54.556 1.46 0 2l-50.304 50.302a1.4 1.4 0 0 1-1.994 0" style="fill:#fcd116;fill-opacity:1;fill-rule:evenodd;stroke:none"/>
    <path d="m56.42 45.17 1.608 5.347c.3.996.714 2.034 1.872 2.235 1.065.187 2-.384 2.467-1.328l4.432-8.99c2.329-4.726 4.659-9.453 6.991-14.18-7.488-.003-14.975-.003-22.46-.003-1.575 0-4.998-.526-5.797 1.239-.739 1.632 1.172 3.051 2.162 4.144l2.794 3.093c-5.82 2.643-11.079 6.79-14.066 12.528-2.908 5.586-2.33 12.075-2.321 18.155l.016 11.985c0 .294-.083.362.217.362h9.203c.079 0 1.18.015 1.18-.013.003-.353.003-.704.003-1.055 0-1.893 0-3.788.003-5.68 0-4.154.005-8.305.007-12.46 0-2.54.334-5.022 1.619-7.26 2.177-3.785 6.34-6.168 10.07-8.118" style="fill:#000;fill-opacity:1;fill-rule:evenodd;stroke:none"/>
    <path d="M62.684 56.268c8.755 0 15.898 7.141 15.898 15.898 0 8.755-7.143 15.895-15.898 15.895-8.756 0-15.896-7.14-15.896-15.895 0-8.757 7.14-15.898 15.896-15.898" style="fill:#000;fill-opacity:1;fill-rule:evenodd;stroke:none"/>
    <path d="M62.684 58.39c7.588 0 13.775 6.188 13.775 13.776s-6.187 13.777-13.775 13.777c-7.587 0-13.779-6.189-13.779-13.777 0-7.588 6.192-13.777 13.78-13.777" style="fill:#fcd116;fill-opacity:1;fill-rule:evenodd;stroke:none"/>
    <path d="M59.37 75.233c0 1.066-1.112 1.946-2.41 1.946-1.296 0-2.362-.88-2.362-1.946 0-1.019 1.066-1.899 2.362-1.899 1.344 0 2.41.88 2.41 1.9zm2.084.047c0-2.224-2.037-4.03-4.494-4.03-.508 0-.833 0-1.575.138.788-1.668 1.622-2.733 3.244-3.983l-1.066-1.763c-3.058 2.039-5.096 5.793-5.096 9.453 0 2.363 1.946 4.216 4.493 4.216 2.55 0 4.494-1.761 4.494-4.031M71.323 72.5c0 1.018-.233 2.316-.51 3.012-.463 1.157-1.065 1.667-2.038 1.667-.835 0-1.39-.325-1.807-1.018-.51-.834-.788-2.272-.788-3.66 0-1.113.185-2.318.51-3.105.463-1.158 1.112-1.668 2.13-1.622.79.047 1.298.324 1.715 1.02.51.88.788 2.223.788 3.707zm2.085 0c0-1.668-.325-3.336-.88-4.494-.834-1.622-1.993-2.364-3.661-2.364-1.53 0-2.594.465-3.382 1.484-.88 1.251-1.436 3.197-1.436 5.375 0 1.575.371 3.335.926 4.446.79 1.622 1.945 2.364 3.8 2.364 1.39 0 2.455-.464 3.197-1.483.926-1.159 1.436-3.244 1.436-5.327" style="fill:#000;fill-opacity:1;fill-rule:nonzero;stroke:none"/>
</svg>
