<svg xmlns="http://www.w3.org/2000/svg" width="108.959" height="108.946" viewBox="-1 0 108.959 108.946" xml:space="preserve">
    <path d="m56.399 107.754 50.352-50.353a4.137 4.137 0 0 0 .003-5.84L56.399 1.208a4.135 4.135 0 0 0-5.84-.002L.208 51.564A4.133 4.133 0 0 0 .206 57.4l50.353 50.354c1.59 1.586 4.251 1.59 5.84 0" style="fill:#fcd116;fill-opacity:1;fill-rule:nonzero;stroke:none"/>
    <path d="m55.599 106.934 50.33-50.335c1.158-1.16 1.156-3.078 0-4.238L55.6 2.028c-1.16-1.159-3.077-1.156-4.24 0L1.028 52.363a3.018 3.018 0 0 0 0 4.236l50.333 50.335c1.162 1.153 3.079 1.157 4.239 0" style="fill:#000;fill-opacity:1;fill-rule:evenodd;stroke:none"/>
    <path d="M54.475 105.784 104.78 55.48a1.4 1.4 0 0 0 0-1.997L54.477 3.179a1.4 1.4 0 0 0-1.996 0L2.177 53.482a1.407 1.407 0 0 0 0 2l50.304 50.302a1.4 1.4 0 0 0 1.994 0" style="fill:#fcd116;fill-opacity:1;fill-rule:evenodd;stroke:none"/>
    <path d="m50.54 45.17-1.609 5.347c-.3.996-.714 2.034-1.872 2.235-1.065.187-2-.384-2.467-1.328l-4.432-8.99c-2.329-4.726-4.659-9.453-6.991-14.18 7.488-.003 14.975-.003 22.46-.003 1.575 0 4.998-.526 5.797 1.239.739 1.632-1.172 3.051-2.162 4.144l-2.794 3.093c5.82 2.643 11.079 6.79 14.066 12.528 2.908 5.586 2.33 12.075 2.321 18.155l-.016 11.985c0 .294.082.362-.218.362h-9.202c-.079 0-1.18.015-1.18-.013-.003-.353-.003-.704-.003-1.055-.001-1.893-.001-3.788-.003-5.68-.001-4.154-.005-8.305-.007-12.46-.001-2.54-.334-5.022-1.619-7.26-2.177-3.785-6.341-6.168-10.07-8.118" style="fill:#000;fill-opacity:1;fill-rule:evenodd;stroke:none"/>
    <path d="M44.274 56.268c8.755 0 15.897 7.141 15.897 15.898 0 8.755-7.142 15.895-15.897 15.895-8.757 0-15.897-7.14-15.897-15.895 0-8.757 7.14-15.898 15.897-15.898" style="fill:#000;fill-opacity:1;fill-rule:evenodd;stroke:none"/>
    <path d="M44.274 58.39c7.587 0 13.775 6.188 13.775 13.776S51.86 85.943 44.274 85.943c-7.588 0-13.78-6.189-13.78-13.777 0-7.588 6.192-13.777 13.78-13.777" style="fill:#fcd116;fill-opacity:1;fill-rule:evenodd;stroke:none"/>
    <path d="M40.959 75.233c0 1.066-1.112 1.946-2.41 1.946-1.295 0-2.362-.88-2.362-1.946 0-1.019 1.067-1.899 2.363-1.899 1.344 0 2.409.88 2.409 1.9zm2.085.047c0-2.224-2.038-4.03-4.494-4.03-.509 0-.834 0-1.575.138.787-1.668 1.621-2.733 3.244-3.983l-1.067-1.763c-3.057 2.039-5.096 5.793-5.096 9.453 0 2.363 1.946 4.216 4.494 4.216 2.549 0 4.494-1.761 4.494-4.031M52.912 72.5c0 1.018-.232 2.316-.51 3.012-.462 1.157-1.065 1.667-2.037 1.667-.835 0-1.39-.325-1.808-1.018-.51-.834-.787-2.272-.787-3.66 0-1.113.185-2.318.51-3.105.462-1.158 1.111-1.668 2.13-1.622.789.047 1.297.324 1.715 1.02.509.88.787 2.223.787 3.707zm2.085 0c0-1.668-.325-3.336-.88-4.494-.833-1.622-1.992-2.364-3.661-2.364-1.529 0-2.594.465-3.381 1.484-.88 1.251-1.436 3.197-1.436 5.375 0 1.575.37 3.335.926 4.446.789 1.622 1.945 2.364 3.8 2.364 1.389 0 2.455-.464 3.196-1.483.926-1.159 1.436-3.244 1.436-5.327" style="fill:#000;fill-opacity:1;fill-rule:nonzero;stroke:none"/>
</svg>
