<svg xmlns="http://www.w3.org/2000/svg" width="90.003" height="90" viewBox="0 0 254.008 254">
    <path d="M3.39 118.775 118.78 3.392c4.529-4.523 11.927-4.523 16.453 0l115.383 115.383c4.523 4.523 4.523 11.924 0 16.454L135.233 250.608c-4.526 4.523-11.924 4.523-16.454 0L3.39 135.228c-4.519-4.53-4.519-11.93 0-16.453" style="fill:#fcd116;fill-opacity:1;fill-rule:nonzero;stroke:none"/>
    <path d="M5.587 120.97 120.977 5.592c3.316-3.316 8.746-3.316 12.058 0l115.383 115.38c3.316 3.316 3.316 8.742 0 12.058L133.035 248.412c-3.312 3.316-8.742 3.316-12.058 0L5.587 133.029c-3.312-3.316-3.312-8.742 0-12.058" style="fill:#000;fill-opacity:1;fill-rule:evenodd;stroke:none"/>
    <path d="M8.89 124.266 124.271 8.883c1.503-1.5 3.962-1.5 5.472 0L245.12 124.266a3.875 3.875 0 0 1 0 5.465L129.744 245.11a3.877 3.877 0 0 1-5.472 0L8.89 129.73a3.862 3.862 0 0 1 0-5.465" style="fill:#fcd116;fill-opacity:1;fill-rule:evenodd;stroke:none"/>
    <path d="M162.672 94.246v4.381c0 11.695-5.486 23.241-14.841 30.329l-36.527 27.661c-2.935 2.223-4.685 5.62-4.685 9.296v26.765H79.706v-26.765c0-7.017 1.901-14.016 5.595-19.989 2.275-3.697 5.133-7.179 8.608-9.814l37.158-28.187c1.764-1.34 3.217-3.108 4.01-5.19.509-1.336.784-2.776.784-4.215V93.83l-17.819 5.129c-.282.074-.564.106-.84.145-1.259.169-2.472-.17-3.52-.89a5.231 5.231 0 0 1-2.163-3.315c-.275-1.475-.01-2.858.854-4.064l36.834-51.781 33.535 51.9c.54.833.86 1.884.853 2.876 0 2.529-1.887 4.73-4.332 5.245-.896.19-1.757.053-2.603-.225l-13.988-4.604z" style="fill:#000;fill-opacity:1;fill-rule:evenodd;stroke:none"/>
</svg>
