<svg xmlns="http://www.w3.org/2000/svg" width="86.747" height="86.748" viewBox="0 0 244.821 244.822">
    <path style="fill:none;stroke:#fff;stroke-width:40" transform="translate(21091.025 14379.66)" d="m235 375 80-170 80 170-80 170z"/>
    <path d="M241.315 113.918 130.906 3.506c-4.678-4.675-12.319-4.675-16.99 0L3.5 113.918c-4.667 4.67-4.667 12.316 0 16.986l110.416 110.413c4.671 4.674 12.312 4.674 16.99 0l110.409-110.413c4.674-4.67 4.674-12.315 0-16.986" style="fill:#fcd116;fill-opacity:1;fill-rule:nonzero;stroke:none"/>
    <path d="M238.659 115.671 129.149 6.17c-3.71-3.707-9.775-3.707-13.475 0L6.168 115.671c-3.708 3.708-3.708 9.772 0 13.477l109.506 109.505c3.7 3.704 9.764 3.704 13.476 0l109.509-109.505c3.704-3.705 3.704-9.769 0-13.477" style="fill:#000;fill-opacity:1;fill-rule:evenodd;stroke:none"/>
    <path d="M235.232 119.044 125.78 9.592a4.78 4.78 0 0 0-6.738 0L9.592 119.044a4.77 4.77 0 0 0 0 6.735l109.45 109.456a4.78 4.78 0 0 0 6.738 0L235.232 125.78a4.776 4.776 0 0 0 0-6.735" style="fill:#fcd116;fill-opacity:1;fill-rule:evenodd;stroke:none"/>
    <path d="M167.438 62.335h-30.032v45.043h-30.021v30.028h30.021v45.043h30.032V62.335zM62.452 107.377H32.431v30.029h30.021v-30.029zM95.098 62.462v7.76h8.026v8.115h-8.026v8.025h8.026v8.026h-8.026v7.85h8.026v8.113h-8.026l-.088 8.026h8.114v8.114H95.01l.088 8.025h8.026v7.938H95.01l.088 8.114h8.026v7.937H95.01l.088 8.026h8.026v7.938H95.01l.088 8.113-3.88-.088v-8.025H79.222l-.088 8.114-3.88-.088v-8.026H67.14v-7.938l8.114-.088v-7.937H67.14v-7.938h8.114v-8.114H67.14v-7.937l8.114-.088v-7.938H67.14v-8.114h8.114v-8.025H67.14v-8.114h8.114v-7.85H67.14v-8.025h8.114v-8.026H67.14v-8.114h8.114v-7.76h3.969v7.76h11.906v-7.76h3.969zm-3.88 15.875H79.223v8.113h11.995v-8.113zm0 16.051H79.223v7.85h11.995v-7.85zm0 15.963H79.223v8.026h11.995v-8.026zm0 16.14H79.223v7.937h11.995v-7.937zm0 15.963H79.223v8.114h11.995v-8.114zm0 16.051H79.223v7.938h11.995v-7.938z" style="fill:#000;fill-opacity:1;fill-rule:evenodd;stroke:none"/>
</svg>
