<svg id="W10-13P" xmlns="http://www.w3.org/2000/svg" width="24in" height="18in" viewBox="0 0 1728 1296">
  <rect width="1728" height="1296" rx="108" fill="#fcd116"/>
  <path d="M1620,27H108a81.0963,81.0963,0,0,0-81,81V1188a81.0964,81.0964,0,0,0,81,81H1620a81.0964,81.0964,0,0,0,81-81V108A81.0964,81.0964,0,0,0,1620,27Zm36,1161a36.0414,36.0414,0,0,1-36,36H108a36.0414,36.0414,0,0,1-36-36V108a36.0414,36.0414,0,0,1,36-36H1620a36.0414,36.0414,0,0,1,36,36Z"/>
  <g id="NO GATES">
    <path d="M317.1574,379.8928V540.0014H283.104V270.0037h34.0534L365.3181,404.53V270.0037H399.27V540.0014H369.9759Z"/>
    <path d="M512.686,544.7266c-60.6142,0-62.1331-76.2072-62.1331-139.2514s1.5189-139.2178,62.1331-139.2178,62.1332,76.1731,62.1332,139.2178S573.3008,544.7266,512.686,544.7266ZM486.1252,405.4752c0,47.1817.6747,104.2191,26.5608,104.2191s26.5272-57.0374,26.5272-104.2191-.6411-104.2191-26.5272-104.2191S486.1252,358.293,486.1252,405.4752Z"/>
    <path d="M813.5593,266.2574c30.4761,0,50.4891,18.9673,53.3248,52.11h-35.235c-.9452-11.3736-7.6278-17.0435-17.1451-17.0435-16.9424,0-28.5518,14.4451-28.5518,104.1517s11.6094,104.2191,28.5518,104.2191c14.3436,0,18.09-16.6051,18.09-33.176V444.3212H816.4277v-35.066h50.4564v67.2631c0,17.6509,2.531,68.2083-53.2574,68.2083-48.7344,0-62.9095-37.3612-62.9095-139.2514C750.7172,285.731,776.6033,266.2574,813.5593,266.2574Z"/>
    <path d="M991.2686,468.0131H946.7868L931.6,540.0014H896.5672L951.512,270.0037h35.0324l55.889,269.9977h-35.9766Zm-36.9218-35.0655h29.3618L969.5008,361.87Z"/>
    <path d="M1126.0516,540.0014h-34.0871V305.07H1058.62v-35.066h102.6665V305.07h-35.2345Z"/>
    <path d="M1199.076,270.0037h98.8866V305.07h-64.9684v69.1531H1276.33V410.2h-43.3353v94.7355h68.7483v35.066H1199.076Z"/>
    <path d="M1409.7963,482.2219c0-67.6683-74.452-88.9645-74.452-152.5487,0-36.956,22.5109-63.4494,54.7759-63.4494,33.176,0,50.9626,20.8235,54.7426,63.4494h-35.0665c-.9452-20.8572-6.3784-29.3624-18.7309-29.3624-13.2636,0-20.6214,11.4073-20.6214,29.3624,0,20.3172,11.4073,27.7087,27.6745,47.0807,11.9483,14.2425,46.7775,48.87,46.7775,105.468,0,26.2909-16.942,62.5047-56.6653,62.5047-37.9355,0-57.6106-24.6039-59.5011-71.9883h35.0655c0,10.361,1.4853,36.956,24.4356,36.956C1401.4942,509.6943,1409.7963,499.2655,1409.7963,482.2219Z"/>
  </g>
  <g id="OR LIGHTS">
    <path d="M299.7331,1030.7265c-60.6142,0-62.1331-76.2067-62.1331-139.2513s1.5189-139.2171,62.1331-139.2171,62.1331,76.1725,62.1331,139.2171S360.3477,1030.7265,299.7331,1030.7265ZM273.1723,891.4752c0,47.1817.6747,104.219,26.5608,104.219S326.26,938.6569,326.26,891.4752s-.6411-104.219-26.5271-104.219S273.1723,844.2926,273.1723,891.4752Z"/>
    <path d="M500.8977,891.5768,528.37,1026.0013H491.38L465.6291,900.0136h-18.36v125.9877H413.1486V756.0039h52.6158c41.8159,0,63.55,25.5819,63.55,75.8014C529.3148,857.6577,521.6538,880.0006,500.8977,891.5768Zm-6.6825-60.7158c0-30.5775-6.6826-39.7916-30.3408-39.7916H447.2693v73.8787H469.578C488.5115,864.9481,494.2152,856.4429,494.2152,830.861Z"/>
    <path d="M701.7363,756.0039h33.919v238.745h68.7483v31.2524H701.7363Z"/>
    <path d="M842.1886,756.0039h35.1v269.9974h-35.1Z"/>
    <path d="M991.4214,752.2581c30.4761,0,50.49,18.9672,53.3248,52.109h-35.2344c-.9453-11.3731-7.6273-17.0435-17.1451-17.0435-16.942,0-28.5524,14.4451-28.5524,104.1516s11.61,104.219,28.5524,104.219c14.3435,0,18.09-16.6051,18.09-33.176V930.3206H994.29V895.2552h50.4558v67.263c0,17.6509,2.531,68.2083-53.2564,68.2083-48.7353,0-62.91-37.3612-62.91-139.2513C928.58,771.7311,954.4655,752.2581,991.4214,752.2581Z"/>
    <path d="M1178.1756,900.0136h-48.1269v125.9877h-34.02V756.0039h34.02V864.9481h48.1943V756.0039h33.9523v269.9974h-34.02Z"/>
    <path d="M1317.4093,1026.0013h-34.087V791.0694h-33.3449V756.0039h102.6663v35.0655h-35.2344Z"/>
    <path d="M1455.3,968.2218c0-67.6682-74.4519-88.9643-74.4519-152.548,0-36.9559,22.5109-63.45,54.7758-63.45,33.176,0,50.9626,20.8235,54.7426,63.45H1455.3c-.9452-20.8577-6.3783-29.3628-18.7308-29.3628-13.2636,0-20.6214,11.4073-20.6214,29.3628,0,20.3167,11.4073,27.7077,27.6745,47.08,11.9482,14.243,46.7774,48.87,46.7774,105.4679,0,26.2908-16.942,62.5047-56.6653,62.5047-37.9353,0-57.61-24.6035-59.5009-71.9883h35.0654c0,10.3615,1.4853,36.956,24.4355,36.956C1446.9983,995.6942,1455.3,985.2653,1455.3,968.2218Z"/>
  </g>
</svg>
