<svg xmlns="http://www.w3.org/2000/svg" width="86.744" height="86.745" viewBox="0 0 244.811 244.814">
    <path style="fill:none;stroke:#fff;stroke-width:40" transform="translate(21490.334 14695.177)" d="m315 545-80-170 80-170 80 170z"/>
    <path d="M3.5 113.912 113.906 3.503c4.674-4.67 12.322-4.67 16.99 0l110.412 110.409c4.67 4.678 4.67 12.319 0 16.99L130.896 241.31c-4.668 4.67-12.316 4.67-16.99 0L3.5 130.9c-4.667-4.67-4.667-12.311 0-16.99" style="fill:#fcd116;fill-opacity:1;fill-rule:nonzero;stroke:none"/>
    <path d="M6.157 115.672 115.659 6.167c3.708-3.705 9.769-3.705 13.483 0l109.495 109.505c3.708 3.7 3.708 9.769 0 13.473L129.142 238.644c-3.714 3.707-9.775 3.707-13.483 0L6.157 129.144c-3.704-3.703-3.704-9.771 0-13.472" style="fill:#000;fill-opacity:1;fill-rule:evenodd;stroke:none"/>
    <path d="M9.579 119.045 119.032 9.592c1.848-1.852 4.882-1.852 6.734 0l109.45 109.453c1.855 1.845 1.855 4.875 0 6.73l-109.45 109.45c-1.852 1.856-4.886 1.856-6.734 0L9.579 125.775c-1.852-1.855-1.852-4.885 0-6.73" style="fill:#fcd116;fill-opacity:1;fill-rule:evenodd;stroke:none"/>
    <path d="M166.964 91.73c0-3.454-2.018-6.065-6.654-8.76-1.767-1.01-2.272-1.686-2.272-2.868 0-1.598 1.263-2.777 2.861-2.777 1.514 0 2.696 1.097 2.773 2.777h3.292c-.082-3.62-2.7-6.23-6.065-6.23-3.453 0-6.149 2.776-6.149 6.23 0 2.113 1.01 3.965 2.95 5.313 4.882 3.284 3.538 2.356 4.042 2.86 1.43 1.098 1.93 2.11 1.93 3.454 0 1.94-1.51 3.623-3.362 3.623-2.36 0-3.369-2.102-3.369-4.127h-3.372c0 3.961 2.529 7.514 6.741 7.514 3.704 0 6.654-3.133 6.654-7.01m-17.354 6.573V74.295h-3.457v14.404l-6.572-14.404h-3.45v24.007h3.45V82.215l7.422 16.087h2.607zm-18.704-24.007h-3.372v24.007h3.372V74.295zM118.27 88.364h-3.45l1.686-6.911 1.764 6.91zm5.976 9.938-5.976-24.007h-3.366l-5.983 24.007h3.454l1.598-6.573h5.14l1.679 6.573h3.454zm-20.8-17.608c0 1.937-1.097 3.034-3.115 3.034h-3.542v-6.064h3.542c1.852 0 3.115 1.182 3.115 3.03m3.369 17.608-3.454-11.794c2.276-.843 3.454-2.95 3.454-5.814 0-3.873-2.526-6.399-6.318-6.399h-7.162v24.007h3.454V87.016h3.288l3.203 11.286h3.535zM90.051 77.495v-3.2H77.838v3.2h4.378v20.807h3.453V77.495h4.382zM200.026 122.58c0 1.852-.173 3.531-.335 5.051-.339 1.853-1.436 3.458-3.454 3.458h-2.865v-17.276h2.865c1.513 0 2.526.762 3.115 2.445.423 1.012.674 3.623.674 6.322m3.369-.17c0-1.855-.25-3.958-.593-5.729-.416-2.445-1.425-4.297-2.86-5.31-.844-.676-1.853-.927-3.87-.927h-6.15v24.01h6.65c1.351 0 2.526-.335 3.37-1.093 2.356-1.856 3.453-5.39 3.453-10.95m-17.519 12.043v-3.365h-8.767v-7.924h4.975v-3.284h-4.975v-6.068h7.836v-3.369h-11.29v24.01h12.221zm-16.263 0v-3.365h-8.76v-7.924h4.975v-3.284h-4.975v-6.068h7.836v-3.369h-11.29v24.01h12.214zm-16.926-17.607c-.254-2.19-.593-3.203-1.524-4.381-1.094-1.602-2.777-2.438-4.717-2.438-4.717 0-7.158 4.127-7.158 11.874 0 8.848 2.272 12.99 7.412 12.99 3.369 0 5.898-2.883 5.987-6.844h-3.461c0 1.774-.508 3.457-2.526 3.457-2.946 0-4.131-2.78-4.131-9.684 0-6.237 1.02-8.428 3.792-8.428 1.602 0 2.533 1.094 2.865 3.454h3.46zm-16.267 17.607-5.221-12.467L136 110.444h-3.623l-3.027 7.246-3.04-7.246h-3.617l4.883 11.543-5.221 12.467h3.623l3.372-8.174 3.366 8.174h3.704zm-16.26 0v-3.365h-8.755v-7.924h4.97v-3.284h-4.97v-6.068h7.835v-3.369h-11.29v24.01h12.21zm-27.456-24.01h-3.708l-3.958 8.678-4.043-8.678H77.37l5.898 13.141v10.87h3.454v-10.87l5.983-13.14zm-22.747 14.069h-3.454l1.683-6.907 1.77 6.907zm5.986 9.941-5.986-24.01h-3.373l-5.98 24.01h3.454l1.605-6.572h5.14l1.68 6.572h3.46zm-18.707 0v-24.01h-3.454l-4.466 13.483-4.463-13.483h-3.454v24.01h3.454v-13.476l4.463 13.476 4.466-13.476v13.476h3.454zM174.302 170.49v-24.006h-3.458v9.765h-6.565v-9.765h-3.45v24.006h3.45v-10.865h6.565v10.865h3.458zm-22.462-17.264c0 2.183-1.093 3.453-3.111 3.453h-3.542v-6.83h3.542c1.848 0 3.111 1.352 3.111 3.377m3.37 0c0-4.043-2.523-6.742-6.315-6.742h-7.165v24.006h3.457v-10.533h3.708c4.042 0 6.314-2.357 6.314-6.731m-21.025 17.264v-24.006h-3.454l-4.47 13.473-4.462-13.473h-3.454v24.006h3.454v-13.483l4.462 13.483 4.47-13.483v13.483h3.454zm-35.888-12.047c0 2.784-.17 4.209-.759 6.153-.592 2.024-1.52 2.949-2.949 2.949-1.517 0-2.441-.925-3.034-2.95-.504-1.943-.758-3.457-.758-6.064 0-2.695.169-4.3.758-6.149.593-2.028 1.517-2.949 3.034-2.949 1.429 0 2.357.92 2.95 3.027.504 1.77.758 3.288.758 5.983m3.284 0c0-3.62-.339-5.898-1.348-8.251-1.181-2.95-2.864-4.131-5.644-4.131-2.783 0-4.466 1.181-5.73 4.042-1.008 2.28-1.347 4.72-1.347 8.34 0 3.704.339 5.987 1.348 8.343 1.182 2.861 2.864 4.142 5.729 4.142 2.699 0 4.463-1.28 5.644-4.142 1.01-2.279 1.348-4.639 1.348-8.343m-20.976 4.974c0 2.438-1.348 4.128-3.373 4.128-2.018 0-3.369-1.69-3.369-4.128 0-2.617 1.351-4.297 3.37-4.297 2.024 0 3.372 1.68 3.372 4.297m-.423-10.957c0 1.94-1.263 3.2-2.95 3.2-1.767 0-3.03-1.26-3.03-3.2 0-1.764 1.263-3.027 3.03-3.027 1.687 0 2.95 1.263 2.95 3.027m3.707 10.957c0-2.363-.758-4.547-2.272-5.983 1.26-1.263 1.937-3.034 1.937-4.974 0-3.708-2.61-6.4-6.322-6.4-3.785 0-6.399 2.692-6.399 6.4 0 1.94.674 3.627 1.937 4.974-1.517 1.514-2.272 3.62-2.272 5.983 0 1.852.585 3.62 1.513 4.967 1.182 1.687 2.865 2.544 5.221 2.544 1.856 0 3.288-.526 4.385-1.612 1.433-1.351 2.272-3.627 2.272-5.899" style="fill:#000;fill-opacity:1;fill-rule:evenodd;stroke:none"/>
</svg>
