<svg xmlns="http://www.w3.org/2000/svg" width="55.013" height="41.23" xml:space="preserve">
    <path d="M.002 36.814 0 4.415C-.003 1.985 1.985 0 4.416 0l46.18.002c2.429 0 4.414 1.985 4.417 4.417L55.01 36.81c0 2.432-1.988 4.419-4.414 4.417l-46.178.002C1.991 41.228.003 39.239.003 36.814" style="fill:#fcd116;fill-opacity:1;fill-rule:nonzero;stroke:none"/>
    <path d="M1.15 36.576 1.146 4.65a3.518 3.518 0 0 1 3.504-3.505l45.708.007a3.512 3.512 0 0 1 3.503 3.5v31.922a3.516 3.516 0 0 1-3.503 3.505H4.654a3.514 3.514 0 0 1-3.504-3.503" style="fill:#000;fill-opacity:1;fill-rule:evenodd;stroke:none"/>
    <path d="M2.917 36.564 2.914 4.662a1.755 1.755 0 0 1 1.75-1.75l45.681.005c.963 0 1.751.787 1.751 1.75v31.896c0 .963-.788 1.752-1.75 1.748l-45.68.004a1.76 1.76 0 0 1-1.75-1.751" style="fill:#fcd116;fill-opacity:1;fill-rule:evenodd;stroke:none"/>
    <path d="M50.114 32.648v-8.61h-1.098v4.292l-1.542-4.292h-1.073v8.61h1.073v-5.09l1.708 5.09h.932zm-6.16-6.218c0 .826-.192 1.073-.77 1.073h-.743v-2.337h.55c.743 0 .963.303.963 1.264m1.125.028c0-1.595-.712-2.42-2.033-2.42h-1.677v8.61h1.072v-4.015h.522l.965 4.015h1.098l-.852-4.292c.633-.385.905-.935.905-1.898m-6.462 1.872c0 .578.137 3.354-.851 3.354-.992 0-.855-2.776-.855-3.354 0-.606-.137-3.274.855-3.274.825 0 .851 2.585.851 3.274m1.155 0c0-1.46.11-4.404-2.006-4.404-2.09 0-1.983 2.917-1.983 4.404 0 1.428-.136 4.454 1.983 4.454 2.116 0 2.006-3.026 2.006-4.454m-5.583 4.318v-8.61h-1.072v3.465h-1.54v-3.465h-1.101v8.61h1.101v-4.015h1.54v4.015h1.072zm-7.976 0v-8.61h-1.101v4.292l-1.541-4.292h-1.072v8.61h1.072v-5.09l1.707 5.09h.935zm-5.584-8.61h-1.075v8.61h1.075v-8.61zm-4.126 5.2h-.935l.494-2.255.441 2.255zm1.87 3.41-1.789-8.61h-1.098l-1.762 8.61h1.13l.465-2.312h1.43l.47 2.312h1.154zm-6.409-6.218c0 .826-.192 1.073-.797 1.073h-.716v-2.337h.522c.771 0 .991.303.991 1.264m1.1.028c0-1.595-.687-2.42-2.007-2.42H9.349v8.61h1.102v-4.015h.496l.961 4.015h1.129l-.879-4.292c.631-.385.905-.935.905-1.898m-4.921-1.292v-1.128H4.894v1.128h1.074v7.482h1.073v-7.482h1.101zM32.98 12.843c0 .66-.14 1.513-.332 1.98-.302.743-.688 1.073-1.318 1.073-.552 0-.908-.22-1.184-.661-.33-.547-.523-1.484-.523-2.392 0-.714.138-1.485.359-2.008.274-.743.714-1.101 1.375-1.045.523.026.853.191 1.125.66.333.549.499 1.43.499 2.393m1.347 0c0-1.073-.195-2.172-.552-2.917-.549-1.045-1.294-1.537-2.393-1.537-.991 0-1.676.3-2.198.958-.58.828-.938 2.093-.938 3.496 0 1.045.249 2.17.605 2.916.525 1.045 1.268 1.541 2.478 1.541.906 0 1.595-.332 2.06-.99.606-.744.938-2.091.938-3.467m-7.896 4.29v-8.58h-1.347v5.472L21.95 8.552h-1.348v8.582h1.348V11.3l3.272 5.833h1.21z" style="fill:#000;fill-opacity:1;fill-rule:evenodd;stroke:none"/>
</svg>
