<svg xmlns="http://www.w3.org/2000/svg" width="86.747" height="86.748" viewBox="0 0 244.82 244.822">
    <path style="fill:none;stroke:#fff;stroke-width:40" transform="translate(21243.68 14488.171)" d="m315 205 80 170-80 170-80-170z"/>
    <path d="M3.506 113.918 113.915 3.506c4.674-4.675 12.319-4.675 16.986 0l110.416 110.412c4.67 4.67 4.67 12.316 0 16.986L130.9 241.317c-4.667 4.674-12.312 4.674-16.986 0L3.505 130.904c-4.674-4.67-4.674-12.315 0-16.986" style="fill:#fcd116;fill-opacity:1;fill-rule:nonzero;stroke:none"/>
    <path d="M6.162 115.671 115.668 6.17c3.711-3.707 9.775-3.707 13.483 0l109.502 109.502c3.708 3.708 3.708 9.772 0 13.477L129.151 238.653c-3.708 3.704-9.772 3.704-13.483 0L6.162 129.148c-3.708-3.705-3.708-9.769 0-13.477" style="fill:#000;fill-opacity:1;fill-rule:evenodd;stroke:none"/>
    <path d="M9.584 119.044 119.044 9.592c1.849-1.856 4.879-1.856 6.731 0l109.45 109.452a4.77 4.77 0 0 1 0 6.735l-109.45 109.456c-1.852 1.852-4.882 1.852-6.731 0L9.584 125.78a4.782 4.782 0 0 1 0-6.735" style="fill:#fcd116;fill-opacity:1;fill-rule:evenodd;stroke:none"/>
    <path d="M46.35 122.388V92.363h86.406v30.025h-20.662v60.06H82.07v-60.06H46.351zM177.535 92.363h20.82v30.025h-20.82V92.363zM145.584 62.373v7.762h-8.114v8.025h8.114v8.114h-8.114V94.3h8.114v7.85h-8.114v8.113h8.114v8.026h-8.114v8.114h8.114v8.025h-8.114v7.938h8.114v8.114h-8.114v7.937h8.114v7.938h-8.114v8.025h8.114v8.026h3.88v-8.026h11.907l.088 8.026h3.88l.088-8.026h8.026v-8.025h-8.114v-7.938h8.114v-8.026h-8.114v-8.025h8.114v-7.938l-8.114-.088v-7.937h8.114v-8.114h-8.114l.088-8.026h8.026v-8.114h-8.026V94.3h8.026v-8.025h-8.114l.088-8.114h8.026v-8.025h-8.114l.088-7.761h-4.057v7.76h-11.906v-7.76h-3.88zm3.88 15.787h11.995v8.202h-11.995V78.16zm0 16.14h11.995v7.85h-11.995V94.3zm0 15.963h11.995v8.026h-11.995v-8.026zm0 16.14h11.995v7.937h-11.995v-7.937zm0 15.963h11.995v8.025h-11.995v-8.025zm0 16.051h11.995v7.938h-11.995v-7.938z" style="fill:#000;fill-opacity:1;fill-rule:evenodd;stroke:none"/>
</svg>
