<svg xmlns="http://www.w3.org/2000/svg" width="86.743" height="86.745" viewBox="0 0 244.807 244.815">
    <path style="fill:none;stroke:#fff;stroke-width:40" transform="translate(22097.236 15096.415)" d="m315 545-80-170 80-170 80 170z"/>
    <path d="M241.31 113.916 130.894 3.511c-4.664-4.681-12.309-4.681-16.983 0L3.506 113.916c-4.675 4.668-4.675 12.316 0 16.987L113.91 241.31c4.674 4.671 12.32 4.671 16.983 0L241.31 130.903c4.663-4.671 4.663-12.32 0-16.987" style="fill:#fcd116;fill-opacity:1;fill-rule:nonzero;stroke:none"/>
    <path d="M238.643 115.67 129.144 6.164c-3.708-3.7-9.768-3.7-13.476 0L6.169 115.67c-3.704 3.704-3.704 9.775 0 13.483L115.668 238.65c3.708 3.701 9.768 3.701 13.476 0l109.499-109.498c3.707-3.708 3.707-9.78 0-13.483" style="fill:#000;fill-opacity:1;fill-rule:evenodd;stroke:none"/>
    <path d="M235.217 119.046 125.771 9.593a4.776 4.776 0 0 0-6.734 0L9.584 119.046c-1.852 1.845-1.852 4.875 0 6.73l109.453 109.45a4.77 4.77 0 0 0 6.734 0l109.446-109.45c1.856-1.855 1.856-4.885 0-6.73" style="fill:#fcd116;fill-opacity:1;fill-rule:evenodd;stroke:none"/>
    <path d="m137.406 170.396-.028 38.47h-30.025v-68.18l30.053 29.71zM98.304 73.036l5.644 5.645-5.644 5.732 5.644 5.733 5.733-5.733 5.733 5.733-5.733 5.644 5.556 5.557 5.645-5.645 5.732 5.645-5.732 5.732 5.732 5.733 5.733-5.733 5.733 5.733-5.733 5.732 5.644 5.645 5.733-5.733 5.556 5.645-5.644 5.644 5.732 5.733 5.645-5.645 5.644 5.557-5.732 5.732 5.644 5.645 5.733-5.733 5.644 5.644-5.732 5.733 5.732 5.733-2.734 2.734-5.732-5.733-8.467 8.467 5.732 5.732-2.822 2.823-5.644-5.733-5.733 5.733-5.644-5.645 5.732-5.732-5.644-5.645-5.733 5.733-5.644-5.645 5.732-5.732-5.732-5.733-5.733 5.733-5.644-5.645 5.732-5.732-5.644-5.645-5.733 5.733-5.732-5.733 5.732-5.732-5.732-5.645-5.645 5.733-5.732-5.733 5.732-5.733-5.556-5.556-5.733 5.733-5.644-5.645 5.733-5.732-5.733-5.733-5.733 5.733-5.732-5.733 5.732-5.733-5.556-5.468 2.822-2.822 5.556 5.468 8.467-8.378-5.556-5.556 2.734-2.735 5.556 5.557 5.733-5.733zm-2.822 14.111-8.467 8.467 5.733 5.82 8.554-8.554-5.82-5.733zm11.465 11.377-8.555 8.555 5.556 5.556 8.555-8.554-5.556-5.557zm11.2 11.29-8.466 8.466 5.733 5.732 8.466-8.466-5.732-5.733zm11.466 11.464-8.467 8.467 5.556 5.645 8.555-8.555-5.644-5.557zm11.289 11.201-8.555 8.555 5.733 5.644 8.466-8.466-5.644-5.733zm11.289 11.377-8.467 8.467 5.644 5.644 8.467-8.466-5.644-5.645zM107.353 74.356l.021-38.47h30.032v68.177l-30.053-29.707z" style="fill:#000;fill-opacity:1;fill-rule:evenodd;stroke:none"/>
</svg>
