<svg xmlns="http://www.w3.org/2000/svg" width="86.743" height="86.745" viewBox="0 0 244.807 244.815">
    <path style="fill:none;stroke:#fff;stroke-width:40" transform="translate(22097.236 15096.415)" d="m395 375-80 170-80-170 80-170z"/>
    <path d="M3.498 113.916 113.914 3.511c4.663-4.681 12.308-4.681 16.982 0l110.406 110.405c4.674 4.668 4.674 12.316 0 16.987L130.896 241.31c-4.674 4.671-12.319 4.671-16.982 0L3.498 130.903c-4.664-4.671-4.664-12.32 0-16.987" style="fill:#fcd116;fill-opacity:1;fill-rule:nonzero;stroke:none"/>
    <path d="M6.165 115.67 115.664 6.164c3.707-3.7 9.768-3.7 13.476 0L238.638 115.67c3.704 3.704 3.704 9.775 0 13.483L129.14 238.65c-3.708 3.701-9.769 3.701-13.476 0L6.164 129.153c-3.707-3.708-3.707-9.78 0-13.483" style="fill:#000;fill-opacity:1;fill-rule:evenodd;stroke:none"/>
    <path d="M9.59 119.046 119.036 9.593a4.776 4.776 0 0 1 6.735 0l109.452 109.453c1.853 1.845 1.853 4.875 0 6.73l-109.452 109.45a4.77 4.77 0 0 1-6.735 0L9.59 125.776c-1.855-1.855-1.855-4.885 0-6.73" style="fill:#fcd116;fill-opacity:1;fill-rule:evenodd;stroke:none"/>
    <path d="m107.401 170.396.029 38.47h30.025v-68.18l-30.054 29.71zM146.504 73.036l-5.645 5.645 5.645 5.732-5.645 5.733-5.732-5.733-5.733 5.733 5.733 5.644-5.557 5.557-5.644-5.645-5.733 5.645 5.733 5.732-5.733 5.733-5.732-5.733-5.733 5.733 5.733 5.732-5.645 5.645-5.732-5.733-5.557 5.645 5.645 5.644-5.733 5.733-5.644-5.645-5.645 5.557 5.733 5.732-5.645 5.645-5.732-5.733-5.645 5.644 5.733 5.733-5.733 5.733 2.734 2.734 5.733-5.733 8.467 8.467-5.733 5.732 2.822 2.823 5.645-5.733 5.732 5.733 5.645-5.645-5.733-5.732 5.645-5.645 5.732 5.733 5.645-5.645-5.733-5.732 5.733-5.733 5.732 5.733 5.645-5.645-5.733-5.732 5.645-5.645 5.732 5.733 5.733-5.733-5.733-5.732 5.733-5.645 5.644 5.733 5.733-5.733-5.733-5.733 5.557-5.556 5.732 5.733 5.645-5.645-5.733-5.732 5.733-5.733 5.732 5.733 5.733-5.733-5.733-5.733 5.556-5.468-2.822-2.822-5.556 5.468-8.467-8.378 5.557-5.556-2.734-2.735-5.557 5.557-5.732-5.733zm2.822 14.111 8.467 8.467-5.733 5.82-8.555-8.554 5.82-5.733zM137.86 98.524l8.554 8.555-5.556 5.556-8.555-8.554 5.557-5.557zm-11.201 11.29 8.467 8.466-5.733 5.732-8.467-8.466 5.733-5.733zm-11.465 11.464 8.466 8.467-5.556 5.645-8.555-8.555 5.645-5.557zm-11.29 11.201 8.556 8.555-5.733 5.644-8.467-8.466 5.645-5.733zm-11.288 11.377 8.467 8.467-5.645 5.644-8.467-8.466 5.645-5.645zM137.455 74.356l-.022-38.47h-30.032v68.177l30.054-29.707z" style="fill:#000;fill-opacity:1;fill-rule:evenodd;stroke:none"/>
</svg>
