<svg xmlns="http://www.w3.org/2000/svg" width="2700" height="3240" viewBox="-1 -0.876 2700 3240" xml:space="preserve">
    <path style="fill:#fcd116;fill-rule:nonzero;stroke:none" d="M2699 3070.374c0 93.2-75.55 168.75-168.75 168.75H167.75c-93.198 0-168.75-75.55-168.75-168.75v-2902.5C-1 74.676 74.552-.876 167.75-.876h2362.5c93.2 0 168.75 75.552 168.75 168.75v2902.5z"/>
    <path style="fill:#000;fill-rule:nonzero;stroke:none" d="M2586.5 3070.374c0 31.012-25.238 56.25-56.25 56.25H167.75c-31.016 0-56.25-25.238-56.25-56.25v-2902.5c0-31.016 25.234-56.25 56.25-56.25h2362.5c31.012 0 56.25 25.234 56.25 56.25v2902.5zm-56.25-3026.25H167.75C99.514 44.124 44 99.638 44 167.874v2902.5c0 68.237 55.514 123.75 123.75 123.75h2362.5c68.237 0 123.75-55.513 123.75-123.75v-2902.5c0-68.236-55.513-123.75-123.75-123.75z"/>
    <path style="fill:#000;fill-rule:nonzero;stroke:none" d="M602.405 1309.924H550.72v112.425h51.685c28.991 0 47.9-20.212 47.9-51.788 0-34.112-21.43-60.637-47.9-60.637zm2.52-146.524H550.72v96h54.205c23.95 0 39.078-20.208 39.078-53.05 0-30.317-11.344-42.95-39.078-42.95zm0 309.474H499.036v-359.999h113.451c47.903 0 81.938 37.894 81.938 93.474 0 32.843-8.824 48-37.816 78.313 27.73 22.737 44.117 53.05 44.117 89.687 0 54.313-42.857 98.525-95.801 98.525zM761.93 1472.874v-359.999h169.752v50.525H813.87v90.95h74.741v49.262H813.87v118.737h131.749v50.525H761.93zM1507.487 1472.874v-359.999h169.763v50.525h-117.825v90.95h74.75v49.262h-74.75v118.737h131.75v50.525h-183.688zM1752.388 1472.874v-359.999h169.75v50.525h-117.813v90.95h74.737v49.262h-74.737v118.737h131.75v50.525h-183.688zM2159.887 1472.874l-110.937-241.261v241.261h-51.675v-360h51.675l98.325 216v-216h51.687v360h-39.075zM1095.834 1160.875v311.999h-51.939v-311.999h-65.876v-48.001h183.691v48.001h-65.876zM1398.788 1472.874h-44.363l-34.225-188.213-34.225 188.213h-45.627l-57.04-360h50.702l30.415 192 35.5-192h40.55l34.225 192 31.688-192h50.7l-58.3 360zM1833.912 2525.249l-25.325 103.575h51.925l-26.6-103.575zm64.588 252.625-25.325-98.525h-77.25l-24.063 98.525h-51.925l89.913-360h50.663l89.912 360H1898.5zM1090.318 2733.662c-13.953 31.587-43.13 50.525-79.915 50.525-43.13 0-74.842-21.463-92.6-61.888-11.417-26.525-19.03-77.05-19.03-123.787 0-50.525 3.807-87.163 16.493-121.263 12.683-37.9 49.47-65.687 91.33-65.687 52.008 0 91.332 37.9 93.868 90.95h-52.008c-1.268-24-17.758-40.425-43.127-40.425-17.761 0-31.714 8.837-40.593 26.525-10.146 17.687-16.49 58.112-16.49 101.05 0 30.312 2.538 61.9 7.61 89.687 7.61 35.375 25.369 54.313 53.277 54.313 26.638 0 39.323-17.675 39.323-55.575v-24h-40.59v-50.525h92.598v74.525c0 25.262-2.536 40.425-10.146 55.575zM645.492 2777.874v-162.95H547.17v162.95h-51.685v-360h51.685v146.525h98.323v-146.525h51.682v360h-51.682zM1322.475 2777.874v-162.95h-98.328v162.95h-51.683v-360h51.683v146.525h98.328v-146.525h51.675v360h-51.675zM776.374 2777.874v-360h50.401v360h-50.401zM1640.025 2777.874h-44.362l-34.213-188.213-34.225 188.213h-45.637l-57.038-360h50.7l30.425 192 35.488-192h40.562l34.225 192 31.688-192h50.7l-58.313 360zM2112.6 2614.924v162.95h-51.925v-162.95l-88.65-197.05h54.462l60.788 130.113 59.525-130.113h55.712l-89.912 197.05zM1552.4 820.374v-360h169.75V510.9h-117.813v90.949h74.75v49.261h-74.75v118.74h131.75v50.524H1552.4zM1797.287 820.374v-360h169.763V510.9h-117.825v90.949h74.75v49.261h-74.75v118.74h131.75v50.524h-183.688zM1370.25 510.9v90.948h72.213v49.262h-72.213v169.264h-51.938v-360H1502V510.9h-131.75zM2131.2 508.375v312.002h-51.938V508.375h-65.887v-48.001h183.7v48.001H2131.2zM523.991 820.376v-295.58h-23.063v-39.158c20.5-1.262 33.313-10.105 41.002-25.264h34.596v360.002h-52.535zM799.942 550.06c-8.906-31.58-22.903-45.473-44.535-45.473-22.902 0-36.898 13.893-45.805 44.21-8.907 27.788-11.452 51.79-11.452 92.21 0 39.158 3.819 61.895 11.453 90.947 8.906 30.317 22.902 44.211 45.805 44.211 21.63 0 35.628-13.893 44.535-44.211 8.907-29.052 11.45-50.525 11.45-92.21 0-40.421-3.818-63.159-11.45-89.684zM840.658 764.8c-17.812 42.946-44.532 61.894-85.25 61.894-43.26 0-68.707-18.948-86.52-61.894-15.27-35.369-20.36-69.476-20.36-125.055 0-54.318 5.09-90.946 20.36-125.053 19.087-42.947 44.533-60.632 86.52-60.632 41.992 0 67.438 17.685 85.25 61.895 15.27 35.371 20.36 69.472 20.36 123.79 0 55.579-5.09 90.947-20.36 125.055zM1077.231 550.06c-8.906-31.58-22.901-45.473-44.532-45.473-22.903 0-36.902 13.893-45.808 44.21-8.906 27.788-11.45 51.79-11.45 92.21 0 39.158 3.818 61.895 11.45 90.947 8.906 30.317 22.905 44.211 45.808 44.211 21.631 0 35.626-13.893 44.532-44.211 8.908-29.052 11.453-50.525 11.453-92.21 0-40.421-3.818-63.159-11.453-89.684zM1117.95 764.8c-17.815 42.946-44.535 61.894-85.25 61.894-43.262 0-68.71-18.948-86.523-61.894-15.271-35.369-20.36-69.476-20.36-125.055 0-54.318 5.089-90.946 20.36-125.053 19.088-42.947 44.533-60.632 86.523-60.632 41.99 0 67.435 17.685 85.25 61.895 15.267 35.371 20.357 69.472 20.357 123.79 0 55.579-5.09 90.947-20.357 125.055zM1863.112 1872.749l-25.325 103.575h51.925l-26.6-103.575zm64.6 252.625-25.337-98.525h-77.25l-24.063 98.525h-51.925l89.913-360h50.662l89.913 360h-51.913zM2387.3 1852.536c-8.825-25.262-23.95-36.637-46.638-36.637H2297.8v258.95h42.862c30.25 0 46.638-24 51.688-51.788 2.513-22.737 5.038-48 5.038-75.787 0-40.425-3.788-79.588-10.088-94.737zm8.825 256.425c-12.6 11.363-30.25 16.413-50.425 16.413h-99.575v-360h92.013c30.25 0 45.387 3.787 57.987 13.9 21.425 15.15 36.563 42.938 42.862 79.575 5.038 26.525 8.826 58.1 8.826 85.9 0 83.362-16.388 136.412-51.688 164.213zM2167.438 2125.374l-110.926-241.262v241.262h-51.675v-360h51.675l98.325 216v-216h51.688v360h-39.088zM768.359 1872.749l-25.328 103.575h51.925l-26.597-103.575zm64.588 252.625-25.327-98.525h-77.252l-24.063 98.525h-51.924l89.915-360h50.66l89.915 360h-51.924zM1056.152 1861.374c-5.073-35.362-19.027-51.788-43.128-51.788-41.862 0-57.082 32.838-57.082 126.313 0 103.588 17.758 145.263 62.155 145.263 30.444 0 38.055-25.263 38.055-51.788h52.01c-1.27 59.375-39.325 102.313-90.065 102.313-77.377 0-111.626-61.888-111.626-194.525 0-116.213 36.785-178.1 107.82-178.1 29.175 0 54.546 12.625 71.038 36.625 13.952 17.687 19.026 32.85 22.832 65.687h-52.009zM1291.65 2125.374l-63.031-175.575-32.775 60.625v114.95h-51.684v-360h51.684v144l81.931-144h59.25l-74.375 126.312 83.2 233.688h-54.2zM541.117 1815.899h-52.943v90.95h52.943c30.254 0 46.642-16.425 46.642-45.475 0-27.788-18.909-45.475-46.642-45.475zm44.12 309.475-47.902-169.262h-49.161v169.262H436.49v-360h107.147c56.728 0 94.544 37.9 94.544 96 0 42.95-17.647 74.525-51.684 87.162l51.684 176.838h-52.945zM1469.963 1959.124c-15.575-10.088-30.7-20.212-40.35-27.012-29.025-20.426-44.4-48-44.4-79.576 0-51.787 40.587-93.475 92.6-93.475 50.737 0 90.062 39.163 91.324 93.476h-49.462c-1.275-25.263-19.038-41.688-41.862-41.688-24.1 0-43.138 17.688-43.138 41.688 0 17.687 7.612 27.787 34.25 42.95 69.775 40.412 100.213 79.574 100.213 131.362 0 58.112-44.4 104.838-100.213 104.838-63.425 0-101.475-53.05-101.475-112.413h50.737c0 30.313 15.226 61.888 50.738 61.888 27.913 0 50.75-25.263 50.75-54.313 0-22.563-9.325-41.563-49.712-67.725zM345.415 1813.374v312h-51.94v-312H227.6v-48h183.69v48h-65.875z"/>
</svg>
