<svg xmlns="http://www.w3.org/2000/svg" width="86.747" height="86.748" viewBox="0 0 244.82 244.822">
    <path style="fill:none;stroke:#fff;stroke-width:40" transform="translate(20844.344 14211.913)" d="m235 375 80-170 80 170-80 170z"/>
    <path d="M3.5 113.918 113.916 3.506c4.668-4.675 12.312-4.675 16.987 0L241.31 113.918c4.678 4.67 4.678 12.316 0 16.986L130.903 241.317c-4.675 4.674-12.32 4.674-16.987 0L3.5 130.904c-4.667-4.67-4.667-12.315 0-16.986" style="fill:#fcd116;fill-opacity:1;fill-rule:nonzero;stroke:none"/>
    <path d="M6.164 115.672 115.67 6.17c3.704-3.708 9.768-3.708 13.48 0l109.498 109.502c3.708 3.707 3.708 9.772 0 13.476L129.149 238.654c-3.71 3.704-9.775 3.704-13.48 0L6.165 129.148c-3.708-3.704-3.708-9.769 0-13.476" style="fill:#000;fill-opacity:1;fill-rule:evenodd;stroke:none"/>
    <path d="M9.579 119.044 119.042 9.592c1.845-1.853 4.883-1.853 6.735 0l109.449 109.452a4.77 4.77 0 0 1 0 6.735l-109.45 109.456c-1.851 1.852-4.889 1.852-6.734 0L9.58 125.78c-1.842-1.852-1.842-4.883 0-6.735" style="fill:#fcd116;fill-opacity:1;fill-rule:evenodd;stroke:none"/>
    <path d="M32.464 137.407v-30.029h44.915V62.336h30.029v45.042h30.032v30.029h-30.032v45.042H77.379v-45.042H32.464zM182.36 107.377h30.031v30.028H182.36v-30.028zM149.748 62.398v7.85h-8.114v8.025h8.114v8.114h-8.114v8.025h8.114v7.85h-8.114v8.114h8.114v8.025h-8.114v8.114h8.114v7.938h-8.114v8.025h8.114v8.114h-8.114v7.938h8.114v7.937h-8.114v8.026l8.114-.088v8.114h3.88v-8.114h11.907l.088 8.114h3.969v-8.026h8.026v-8.026h-8.026v-7.937h8.026v-8.026h-8.026v-8.026h8.026v-8.025h-8.026v-7.938h8.026v-8.114h-8.026v-8.025h8.026v-8.114h-8.026v-7.85h8.026v-8.025h-8.026v-8.114h8.026v-8.026h-8.026v-7.85h-4.057v7.85h-11.906v-7.85h-3.88zm3.88 15.875h11.995v8.202H153.63v-8.202zm0 16.14h11.995v7.849H153.63v-7.85zm0 15.963h11.995v8.025H153.63v-8.025zm0 16.14h11.995v7.937H153.63v-7.938zm0 15.962h11.995v8.026H153.63v-8.026zm0 16.052h11.995v7.937H153.63v-7.937z" style="fill:#000;fill-opacity:1;fill-rule:evenodd;stroke:none"/>
</svg>
