<svg xmlns="http://www.w3.org/2000/svg" width="86.744" height="86.743" viewBox="0 0 244.811 244.809">
    <path style="fill:none;stroke:#fff;stroke-width:40" transform="translate(21764.755 14820.732)" d="m315 545-80-170 80-170 80 170z"/>
    <path d="M130.9 3.506 241.307 113.91c4.67 4.674 4.67 12.316 0 16.986l-110.409 110.41c-4.67 4.67-12.319 4.67-16.986 0L3.5 130.896c-4.667-4.67-4.667-12.312 0-16.986L113.913 3.506c4.667-4.675 12.315-4.675 16.986 0" style="fill:#fcd116;fill-opacity:1;fill-rule:nonzero;stroke:none"/>
    <path d="M129.146 6.166 238.645 115.67c3.704 3.705 3.704 9.769 0 13.47L129.146 238.638c-3.711 3.708-9.772 3.708-13.48 0L6.164 129.14c-3.704-3.7-3.704-9.764 0-13.469L115.666 6.166c3.708-3.704 9.769-3.704 13.48 0" style="fill:#000;fill-opacity:1;fill-rule:evenodd;stroke:none"/>
    <path d="m125.773 9.591 109.45 109.45c1.855 1.844 1.855 4.875 0 6.73l-109.45 109.45c-1.852 1.855-4.886 1.855-6.734 0L9.586 125.77c-1.849-1.855-1.849-4.886 0-6.73L119.039 9.59c1.848-1.855 4.882-1.855 6.734 0" style="fill:#fcd116;fill-opacity:1;fill-rule:evenodd;stroke:none"/>
    <path d="M182.479 77.381v30.029h-45.04v30.025h-30.028V107.41H62.372V77.38h120.107zM137.44 212.382H107.41v-30.029h30.029v30.029zM70.292 141.646l.088 8.114h-8.114v3.88h8.114v11.907l-8.114.088v3.88l8.026.089v8.025h8.026v-8.114h8.025v8.114h7.938v-8.114h8.114v8.114h7.937v-8.114h8.026v8.114h8.026v-8.114l8.114.088v8.026h8.025v-8.026h7.85v8.026h8.025v-8.114l8.114.088v8.026h8.026v-8.114l7.85.088v-4.057h-7.85V153.64h7.85v-3.88h-7.85v-8.114h-8.026v8.113h-8.114v-8.113h-8.025v8.113h-7.85v-8.113h-8.025v8.113h-8.114v-8.113h-8.026v8.113h-8.026v-8.113h-7.937v8.113H94.28v-8.113h-7.938v8.113h-8.025v-8.113h-8.026zm8.026 11.995h8.026v11.994h-8.026v-11.994zm15.963 0h8.114v11.994h-8.114v-11.994zm16.051 0h8.026v11.994h-8.026v-11.994zm16.052 0h8.114v11.994h-8.114v-11.994zm16.14 0h7.849v11.994h-7.85v-11.994zm15.874 0h8.114v11.994h-8.114v-11.994z" style="fill:#000;fill-opacity:1;fill-rule:evenodd;stroke:none"/>
</svg>
