<svg xmlns="http://www.w3.org/2000/svg" width="30in" height="24in" viewBox="0 0 2160 1728">
  <rect width="2160" height="1728" rx="108" fill="#fcd116"/>
  <path d="M2052,27H108a81.0963,81.0963,0,0,0-81,81V1620a81.0964,81.0964,0,0,0,81,81H2052a81.0964,81.0964,0,0,0,81-81V108A81.0964,81.0964,0,0,0,2052,27Zm36,1593a36.0413,36.0413,0,0,1-36,36H108a36.0414,36.0414,0,0,1-36-36V108a36.0414,36.0414,0,0,1,36-36H2052a36.0413,36.0413,0,0,1,36,36Z"/>
  <g id="LOW_GROUND" data-name="LOW GROUND">
    <g id="LOW">
      <path d="M132.984,360.0012h45.2253V678.3331h91.6659v41.67H132.984Z"/>
      <path d="M380.4439,726.3036c-80.8207,0-82.8457-101.6108-82.8457-185.6714s2.025-185.6259,82.8457-185.6259,82.8452,101.5654,82.8452,185.6259S461.2641,726.3036,380.4439,726.3036ZM345.0286,540.6322c0,62.9107.9,138.9612,35.4153,138.9612s35.37-76.05,35.37-138.9612-.8545-138.9606-35.37-138.9606S345.0286,477.7221,345.0286,540.6322Z"/>
      <path d="M639.9261,720.0035l-34.29-202.0964-33.03,202.0964H533.2307L491.02,360.0012H538L557.351,526.7273l29.25-166.7261h39.33l29.2949,166.7261,19.3051-166.7261H721.512L679.3464,720.0035Z"/>
    </g>
    <g id="GROUND">
      <path d="M940.3026,355.0068c40.6352,0,67.3205,25.29,71.1005,69.48h-46.98c-1.26-15.1652-10.17-22.7252-22.86-22.7252-22.59,0-38.07,19.26-38.07,138.8708s15.48,138.9612,38.07,138.9612c19.1254,0,24.12-22.1407,24.12-44.2355v-42.93H944.1274V545.673h67.2757v89.6854c0,23.5353,3.3751,90.9457-71.0107,90.9457-64.98,0-83.88-49.8158-83.88-185.6714C856.512,380.9719,891.0273,355.0068,940.3026,355.0068Z"/>
      <path d="M1176.2528,540.768l36.6306,179.236h-49.3207l-34.3346-167.986h-24.4807V720.004h-45.4948V360.0017h70.1562c55.7545,0,84.7344,34.11,84.7344,101.0707C1214.1432,495.5427,1203.9289,525.3327,1176.2528,540.768Zm-8.9087-80.9555c0-40.77-8.91-53.0557-40.456-53.0557h-22.1407v98.5056h29.7456C1159.7383,505.2624,1167.3441,493.9225,1167.3441,459.8125Z"/>
      <path d="M1329.7561,726.3041c-80.82,0-82.8457-101.6108-82.8457-185.6714s2.0255-185.6259,82.8457-185.6259,82.8457,101.5653,82.8457,185.6259S1410.5763,726.3041,1329.7561,726.3041ZM1294.34,540.6327c0,62.9107.9,138.9612,35.4158,138.9612s35.37-76.05,35.37-138.9612-.8545-138.9606-35.37-138.9606S1294.34,477.7226,1294.34,540.6327Z"/>
      <path d="M1460.4888,631.5779V360.0017h45.4494V637.923c0,26.5061,11.0259,41.6709,32.4908,41.6709,20.205,0,31.5454-15.1648,31.5454-41.6709V360.0017h45.4045V631.5779c0,75.1061-39.5546,94.7262-76.95,94.7262C1497.7484,726.3041,1460.4888,703.804,1460.4888,631.5779Z"/>
      <path d="M1716.2313,506.5227V720.004h-45.4064V360.0017h45.4064l64.2149,179.3712V360.0017h45.2707V720.004h-39.06Z"/>
      <path d="M1881.1259,720.004V360.0017H1955.42c30.1958,0,80.5956,1.5753,80.5956,179.3712s-50.4,180.6311-80.5956,180.6311ZM1926.53,406.7568v266.492h28.89c35.1013,0,33.39-54.0455,33.39-133.7411,0-119.2058-11.024-132.7509-33.39-132.7509Z"/>
    </g>
  </g>
  <g id="CLEARANCE">
    <path d="M247.1587,1003.0066c40.6352,0,67.23,25.2444,71.1006,69.435h-46.98c-1.26-15.1648-10.17-22.77-22.86-22.77-22.59,0-38.07,19.35-38.07,138.9608s15.39,138.9609,38.07,138.9609c19.1254,0,22.8605-22.14,22.8605-44.2356h46.98c0,23.5353,3.33,90.9458-71.0557,90.9458-64.9807,0-83.8356-49.8149-83.8356-185.6711C163.368,1028.9717,197.9283,1003.0066,247.1587,1003.0066Z"/>
    <path d="M386.6307,1008.001h45.2258v318.3327h91.6656v41.67H386.6307Z"/>
    <path d="M573.9249,1008.001H705.7755v46.7551H619.15v92.2057h57.78v47.971H619.15v126.3157h91.6656v46.7552H573.9249Z"/>
    <path d="M865.8921,1272.0186H806.5816l-20.25,95.9851h-46.71l73.26-360.0027h46.71l74.5207,360.0027H886.1421Zm-49.23-46.7562h39.15l-18.9452-94.77Z"/>
    <path d="M1101.52,1188.7675l36.6307,179.2362H1088.83l-34.3352-167.9856h-24.48v167.9856H984.52V1008.001h70.1553c55.7556,0,84.7355,34.11,84.7355,101.0713C1139.4107,1143.5427,1129.1954,1173.3322,1101.52,1188.7675Zm-8.91-80.9551c0-40.7705-8.9106-53.0563-40.4556-53.0563h-22.14v98.5058H1059.76C1085.0048,1153.2619,1092.6106,1141.9225,1092.6106,1107.8124Z"/>
    <path d="M1294.4837,1272.0186h-59.3105l-20.25,95.9851h-46.71l73.26-360.0027h46.71l74.52,360.0027h-47.97Zm-49.2309-46.7562h39.15l-18.9443-94.77Z"/>
    <path d="M1458.517,1154.5227v213.481h-45.4055V1008.001h45.4055l64.215,179.3719V1008.001h45.2707v360.0027h-39.06Z"/>
    <path d="M1720.1966,1003.0066c40.6358,0,67.2308,25.2444,71.1011,69.435h-46.9808c-1.26-15.1648-10.1694-22.77-22.86-22.77-22.5909,0-38.07,19.35-38.07,138.9608s15.3894,138.9609,38.07,138.9609c19.125,0,22.86-22.14,22.86-44.2356h46.9808c0,23.5353,3.33,90.9458-71.0552,90.9458-64.9807,0-83.8361-49.8149-83.8361-185.6711C1636.4064,1028.9717,1670.9667,1003.0066,1720.1966,1003.0066Z"/>
    <path d="M1859.67,1008.001h131.8511v46.7551h-86.6263v92.2057h57.7811v47.971h-57.7811v126.3157H1996.56v46.7552H1859.67Z"/>
  </g>
</svg>
