<svg xmlns="http://www.w3.org/2000/svg" width="55.017" height="41.264" xml:space="preserve">
    <path d="M3.445 0h48.129a3.455 3.455 0 0 1 3.443 3.445V37.82a3.453 3.453 0 0 1-3.443 3.444H3.445A3.454 3.454 0 0 1 0 37.82V3.445A3.456 3.456 0 0 1 3.445 0" style="fill:#fcd116;fill-opacity:1;fill-rule:evenodd;stroke:none"/>
    <path d="M3.445.861h48.129a2.592 2.592 0 0 1 2.583 2.584V37.82a2.591 2.591 0 0 1-2.583 2.584H3.445A2.592 2.592 0 0 1 .86 37.82V3.445A2.593 2.593 0 0 1 3.445.861" style="fill:#000;fill-opacity:1;fill-rule:evenodd;stroke:none"/>
    <path d="M3.445 2.292h48.129c.633 0 1.152.52 1.152 1.153V37.82c0 .633-.518 1.151-1.152 1.151H3.445a1.156 1.156 0 0 1-1.152-1.151V3.445c0-.633.518-1.153 1.152-1.153" style="fill:#fcd116;fill-opacity:1;fill-rule:evenodd;stroke:none"/>
    <path d="M50.117 30.289V28.53h-2.202v1.181h.965v.578c0 .907-.302 1.321-.935 1.321-.659 0-1.101-.44-1.265-1.294-.139-.66-.193-1.402-.193-2.143 0-1.02.164-1.98.384-2.395.219-.44.551-.633.99-.633.577 0 .992.386 1.019.963h1.237c-.056-1.264-.99-2.172-2.228-2.172-1.018 0-1.87.659-2.173 1.568-.304.825-.384 1.679-.384 2.887 0 1.129.164 2.339.44 2.97.413.964 1.182 1.459 2.2 1.459.88 0 1.567-.441 1.897-1.21.192-.357.248-.716.248-1.321m-6.49 2.392v-8.608h-1.238v5.17l-2.34-5.17H38.81v8.608h1.238v-5.773l2.642 5.773h.935zm-6.686-8.608h-1.209v8.608h1.21v-8.608zm-2.639 6.243c0-1.236-.745-2.171-2.395-3.133-.632-.36-.822-.607-.822-1.018 0-.579.466-.991 1.045-.991.522 0 .961.386.989.991h1.183c-.056-1.294-.965-2.229-2.172-2.229-1.241 0-2.203.99-2.203 2.229 0 .743.357 1.429 1.045 1.896 1.763 1.183 1.264.853 1.46 1.019.493.413.687.769.687 1.236 0 .688-.55 1.294-1.212 1.294-.852 0-1.208-.742-1.208-1.457h-1.212c0 1.403.91 2.667 2.42 2.667 1.32 0 2.395-1.099 2.395-2.504m-5.832 0c0-1.236-.715-2.171-2.336-3.133-.635-.36-.828-.607-.828-1.018 0-.579.442-.991 1.018-.991.551 0 .962.386.991.991h1.155c-.027-1.294-.962-2.229-2.146-2.229-1.238 0-2.2.99-2.2 2.229 0 .743.356 1.429 1.072 1.896 1.733 1.183 1.267.853 1.43 1.019.523.413.689.769.689 1.236 0 .688-.522 1.294-1.181 1.294-.855 0-1.211-.742-1.211-1.457H23.71c0 1.403.909 2.667 2.423 2.667 1.317 0 2.336-1.099 2.336-2.504m-7.234-1.952c0 .99-.053 1.514-.276 2.201-.192.715-.522 1.045-1.045 1.045-.549 0-.881-.33-1.101-1.045-.164-.687-.246-1.239-.246-2.174 0-.963.056-1.54.246-2.198.22-.717.552-1.048 1.101-1.048.523 0 .853.331 1.045 1.074.193.632.276 1.181.276 2.145m1.182 0c0-1.293-.137-2.118-.494-2.944-.413-1.071-1.018-1.484-2.009-1.484-.989 0-1.594.413-2.062 1.458-.357.799-.47 1.677-.47 2.97 0 1.32.113 2.147.47 2.997.438 1.018 1.045 1.459 2.062 1.459.965 0 1.596-.441 2.009-1.459.357-.823.494-1.677.494-2.997m-7.508-1.981c0 .688-.385 1.073-1.101 1.073h-1.264v-2.172h1.264c.66 0 1.101.44 1.101 1.099m1.209 6.298-1.235-4.233c.822-.303 1.235-1.048 1.235-2.065 0-1.402-.907-2.31-2.254-2.31h-2.559v8.608h1.239V28.64h1.154l1.155 4.042h1.265zM9.6 26.383c-.083-.797-.193-1.154-.522-1.565a2.037 2.037 0 0 0-1.704-.882c-1.68 0-2.559 1.484-2.559 4.237 0 3.188.825 4.647 2.641 4.647 1.209 0 2.118-1.017 2.144-2.449H8.363c0 .633-.164 1.239-.907 1.239-1.047 0-1.46-.99-1.46-3.465 0-2.229.359-3 1.348-3 .579 0 .909.386 1.019 1.238H9.6zM42.855 17.171V8.588h-1.239v3.492H39.28V8.588h-1.238v8.583h1.238v-3.88h2.336v3.88h1.239zm-6.49-2.395v-1.76h-2.203v1.208h.965v.552c0 .908-.302 1.348-.937 1.348-.659 0-1.099-.466-1.265-1.321-.136-.66-.19-1.402-.19-2.117 0-1.045.136-2.008.384-2.42.218-.415.548-.633.963-.633.605 0 .99.385 1.045.963h1.238c-.083-1.266-1.018-2.173-2.255-2.173-.991 0-1.874.66-2.146 1.568-.303.824-.413 1.704-.413 2.888 0 1.129.193 2.339.466 2.969.415.963 1.157 1.487 2.202 1.487.852 0 1.567-.469 1.897-1.211.167-.386.249-.743.249-1.348m-6.491-.163V8.588h-1.238v6.16c0 .826-.496 1.376-1.128 1.376-.715 0-1.21-.55-1.21-1.375V8.588h-1.212v6.025c0 .686.083 1.045.329 1.51.415.717 1.265 1.212 2.092 1.212.797 0 1.595-.524 2.034-1.211.249-.466.333-.825.333-1.511M22.17 12.85c0 .991-.056 1.514-.276 2.201-.19.743-.522 1.073-1.045 1.073-.549 0-.879-.33-1.071-1.073-.194-.687-.276-1.238-.276-2.172 0-.961.056-1.54.276-2.201.192-.714.522-1.045 1.071-1.045.522 0 .855.33 1.045 1.073.193.633.276 1.183.276 2.144m1.184 0c0-1.291-.112-2.09-.469-2.942-.44-1.074-1.045-1.485-2.036-1.485-.989 0-1.594.41-2.036 1.458-.383.797-.493 1.678-.493 2.969 0 1.32.11 2.146.493 2.998.415 1.018 1.019 1.487 2.036 1.487.965 0 1.596-.469 2.036-1.487.357-.824.469-1.678.469-2.998m-7.51-1.98c0 .689-.385 1.074-1.101 1.074H13.48V9.77h1.264c.66 0 1.101.439 1.101 1.1m1.211 6.301-1.24-4.208c.825-.304 1.24-1.074 1.24-2.093 0-1.375-.908-2.282-2.256-2.282h-2.559v8.583h1.239v-4.046h1.154l1.155 4.046h1.267z" style="fill:#000;fill-opacity:1;fill-rule:evenodd;stroke:none"/>
</svg>
