<svg xmlns="http://www.w3.org/2000/svg" width="86.747" height="86.748" viewBox="0 0 244.821 244.822">
    <path style="fill:none;stroke:#fff;stroke-width:40" transform="translate(21091.025 14379.66)" d="m235 375 80-170 80 170-80 170z"/>
    <path d="M3.506 113.918 113.915 3.506c4.677-4.675 12.319-4.675 16.99 0L241.32 113.918c4.668 4.67 4.668 12.316 0 16.986L130.904 241.317c-4.67 4.674-12.312 4.674-16.99 0L3.507 130.904c-4.675-4.67-4.675-12.315 0-16.986" style="fill:#fcd116;fill-opacity:1;fill-rule:nonzero;stroke:none"/>
    <path d="M6.162 115.671 115.672 6.17c3.71-3.707 9.775-3.707 13.475 0l109.506 109.502c3.708 3.708 3.708 9.772 0 13.477L129.147 238.653c-3.7 3.704-9.765 3.704-13.476 0L6.161 129.148c-3.703-3.705-3.703-9.769 0-13.477" style="fill:#000;fill-opacity:1;fill-rule:evenodd;stroke:none"/>
    <path d="M9.588 119.044 119.041 9.592a4.78 4.78 0 0 1 6.738 0l109.45 109.452a4.77 4.77 0 0 1 0 6.735l-109.45 109.456a4.78 4.78 0 0 1-6.738 0L9.588 125.78a4.776 4.776 0 0 1 0-6.735" style="fill:#fcd116;fill-opacity:1;fill-rule:evenodd;stroke:none"/>
    <path d="M77.382 62.335h30.032v45.043h30.022v30.028h-30.022v45.043H77.382V62.335zM182.369 107.377h30.021v30.029h-30.021v-30.029zM149.723 62.462v7.76h-8.026v8.115h8.026v8.025h-8.026v8.026h8.026v7.85h-8.026v8.113h8.026l.088 8.026h-8.114v8.114h8.114l-.088 8.025h-8.026v7.938h8.114l-.088 8.114h-8.026v7.937h8.114l-.088 8.026h-8.026v7.938h8.114l-.088 8.113 3.88-.088v-8.025h11.995l.088 8.114 3.88-.088v-8.026h8.115v-7.938l-8.114-.088v-7.937h8.114v-7.938h-8.114v-8.114h8.114v-7.937l-8.114-.088v-7.938h8.114v-8.114h-8.114v-8.025h8.114v-8.114h-8.114v-7.85h8.114v-8.025h-8.114v-8.026h8.114v-8.114h-8.114v-7.76h-3.97v7.76h-11.905v-7.76h-3.97zm3.88 15.875h11.995v8.113h-11.995v-8.113zm0 16.051h11.995v7.85h-11.995v-7.85zm0 15.963h11.995v8.026h-11.995v-8.026zm0 16.14h11.995v7.937h-11.995v-7.937zm0 15.963h11.995v8.114h-11.995v-8.114zm0 16.051h11.995v7.938h-11.995v-7.938z" style="fill:#000;fill-opacity:1;fill-rule:evenodd;stroke:none"/>
</svg>
