<svg xmlns="http://www.w3.org/2000/svg" width="86.747" height="86.748" viewBox="0 0 244.82 244.822">
    <path style="fill:none;stroke:#fff;stroke-width:40" transform="translate(20844.344 14211.913)" d="m315 205 80 170-80 170-80-170z"/>
    <path d="M241.32 113.918 130.902 3.506c-4.667-4.675-12.311-4.675-16.986 0L3.508 113.918c-4.677 4.67-4.677 12.316 0 16.986l110.41 110.413c4.674 4.674 12.318 4.674 16.985 0L241.32 130.904c4.668-4.67 4.668-12.315 0-16.986" style="fill:#fcd116;fill-opacity:1;fill-rule:nonzero;stroke:none"/>
    <path d="M238.656 115.672 129.15 6.17c-3.704-3.708-9.768-3.708-13.48 0L6.173 115.672c-3.708 3.707-3.708 9.772 0 13.476L115.67 238.654c3.71 3.704 9.775 3.704 13.48 0l109.505-109.506c3.708-3.704 3.708-9.769 0-13.476" style="fill:#000;fill-opacity:1;fill-rule:evenodd;stroke:none"/>
    <path d="M235.241 119.044 125.778 9.592c-1.845-1.853-4.883-1.853-6.735 0L9.593 119.044a4.77 4.77 0 0 0 0 6.735l109.45 109.456c1.852 1.852 4.89 1.852 6.735 0L235.24 125.78c1.842-1.852 1.842-4.883 0-6.735" style="fill:#fcd116;fill-opacity:1;fill-rule:evenodd;stroke:none"/>
    <path d="M212.356 137.407v-30.029H167.44V62.336h-30.028v45.042H107.38v30.029h30.032v45.042h30.028v-45.042h44.916zM62.46 107.377H32.43v30.028H62.46v-30.028zM95.072 62.398v7.85h8.113v8.025h-8.113v8.114h8.113v8.025h-8.113v7.85h8.113v8.114h-8.113v8.025h8.113v8.114h-8.113v7.938h8.113v8.025h-8.113v8.114h8.113v7.938h-8.113v7.937h8.113v8.026l-8.113-.088v8.114H91.19v-8.114H79.285l-.088 8.114h-3.97v-8.026h-8.025v-8.026h8.026v-7.937h-8.026v-8.026h8.026v-8.026h-8.026v-8.025h8.026v-7.938h-8.026v-8.114h8.026v-8.025h-8.026v-8.114h8.026v-7.85h-8.026v-8.025h8.026v-8.114h-8.026v-8.026h8.026v-7.85h4.057v7.85H91.19v-7.85h3.88zM91.19 78.273H79.197v8.202H91.19v-8.202zm0 16.14H79.197v7.849H91.19v-7.85zm0 15.963H79.197v8.025H91.19v-8.025zm0 16.14H79.197v7.937H91.19v-7.938zm0 15.962H79.197v8.026H91.19v-8.026zm0 16.052H79.197v7.937H91.19v-7.937z" style="fill:#000;fill-opacity:1;fill-rule:evenodd;stroke:none"/>
</svg>
