<svg xmlns="http://www.w3.org/2000/svg" width="55.017" height="41.264" xml:space="preserve">
    <path d="M3.445 0h48.129a3.455 3.455 0 0 1 3.443 3.445V37.82a3.453 3.453 0 0 1-3.443 3.444H3.445A3.454 3.454 0 0 1 0 37.82V3.445A3.456 3.456 0 0 1 3.445 0" style="fill:#fcd116;fill-opacity:1;fill-rule:evenodd;stroke:none"/>
    <path d="M3.445.861h48.129a2.592 2.592 0 0 1 2.583 2.584V37.82a2.591 2.591 0 0 1-2.583 2.584H3.445A2.592 2.592 0 0 1 .86 37.82V3.445A2.593 2.593 0 0 1 3.445.861" style="fill:#000;fill-opacity:1;fill-rule:evenodd;stroke:none"/>
    <path d="M3.445 2.292h48.129c.633 0 1.152.52 1.152 1.153V37.82c0 .633-.518 1.151-1.152 1.151H3.445a1.156 1.156 0 0 1-1.152-1.151V3.445c0-.633.518-1.153 1.152-1.153" style="fill:#fcd116;fill-opacity:1;fill-rule:evenodd;stroke:none"/>
    <path d="M49.98 30.428V28.65h-2.2v1.206h.964v.572c0 .905-.301 1.328-.935 1.328-.662 0-1.084-.453-1.265-1.296a12.25 12.25 0 0 1-.18-2.141c0-1.024.15-1.988.39-2.41.211-.425.543-.633.965-.633.603 0 .994.392 1.025.963h1.235c-.061-1.265-.994-2.171-2.23-2.171-.995 0-1.869.665-2.169 1.57-.302.812-.392 1.687-.392 2.892 0 1.114.181 2.32.451 2.955.423.961 1.176 1.48 2.2 1.48.874 0 1.566-.457 1.899-1.209.18-.363.241-.725.241-1.328m-6.477 2.382v-8.591h-1.237v5.154l-2.35-5.154h-1.236v8.591h1.235v-5.756l2.651 5.756h.937zm-6.692-8.591h-1.205v8.591h1.205v-8.591zm-2.65 6.241c0-1.237-.723-2.171-2.38-3.135-.633-.361-.816-.604-.816-1.026 0-.573.453-.993 1.026-.993.542 0 .964.392.994.993h1.175c-.031-1.295-.965-2.231-2.169-2.231-1.237 0-2.2.995-2.2 2.23 0 .756.363 1.42 1.055 1.9 1.748 1.175 1.265.846 1.447 1.025.512.392.692.753.692 1.237 0 .693-.542 1.296-1.205 1.296-.844 0-1.206-.755-1.206-1.478h-1.205c0 1.417.904 2.687 2.411 2.687 1.325 0 2.38-1.119 2.38-2.505m-5.816 0c0-1.237-.723-2.171-2.38-3.135-.634-.361-.814-.604-.814-1.026 0-.573.453-.993 1.024-.993.544 0 .966.392.996.993h1.174c-.03-1.295-.964-2.231-2.17-2.231-1.235 0-2.199.995-2.199 2.23 0 .756.363 1.42 1.055 1.9 1.749 1.175 1.266.846 1.446 1.025.514.392.694.753.694 1.237 0 .693-.542 1.296-1.206 1.296-.845 0-1.206-.755-1.206-1.478h-1.204c0 1.417.904 2.687 2.41 2.687 1.326 0 2.38-1.119 2.38-2.505m-7.261-1.96c0 .995-.06 1.505-.272 2.199-.21.725-.54 1.057-1.055 1.057-.54 0-.873-.332-1.085-1.057-.18-.694-.27-1.233-.27-2.169 0-.966.06-1.537.27-2.199.212-.725.544-1.055 1.085-1.055.514 0 .844.33 1.055 1.084.182.633.272 1.175.272 2.14m1.175 0c0-1.297-.12-2.109-.483-2.955-.421-1.055-1.025-1.477-2.019-1.477-.995 0-1.596.422-2.048 1.448-.362.815-.483 1.687-.483 2.984 0 1.328.121 2.14.483 2.985.422 1.023 1.025 1.48 2.048 1.48.964 0 1.598-.457 2.02-1.48.362-.815.482-1.657.482-2.985m-7.503-1.991c0 .694-.392 1.087-1.115 1.087h-1.266v-2.171h1.266c.663 0 1.115.423 1.115 1.084m1.204 6.301-1.235-4.22c.814-.301 1.235-1.055 1.235-2.081 0-1.386-.903-2.29-2.259-2.29h-2.561v8.591h1.235v-4.037h1.176l1.145 4.037h1.264zm-6.509-6.301c-.09-.783-.21-1.144-.541-1.564-.391-.574-.994-.877-1.688-.877-1.687 0-2.56 1.477-2.56 4.25 0 3.167.813 4.647 2.65 4.647 1.207 0 2.11-1.029 2.14-2.445H8.213c0 .633-.18 1.236-.904 1.236-1.053 0-1.476-.996-1.476-3.467 0-2.23.363-3.013 1.356-3.013.573 0 .904.392 1.024 1.233H9.45zM38.285 9.83V8.685h-4.371V9.83h1.569v7.444h1.235V9.83m-3.315 7.444-1.87-4.461 1.718-4.128h-1.296l-1.085 2.59-1.085-2.59h-1.297l1.748 4.128-1.868 4.46h1.297l1.205-2.923 1.206 2.924h1.327zm-5.82 0v-1.205H24.45v-2.834h1.778v-1.174H24.45v-2.17h2.803V8.685h-4.04v8.589h4.37zm-6.21 0V8.685h-1.235v5.154l-2.35-5.154H16.55v8.589h1.238v-5.756l2.652 5.756h.934z" style="fill:#000;fill-opacity:1;fill-rule:evenodd;stroke:none"/>
</svg>
