<svg xmlns="http://www.w3.org/2000/svg" width="86.747" height="86.748" viewBox="0 0 244.82 244.822">
    <path style="fill:none;stroke:#fff;stroke-width:40" transform="translate(21243.68 14488.171)" d="m235 375 80-170 80 170-80 170z"/>
    <path d="M241.314 113.918 130.905 3.506c-4.674-4.675-12.319-4.675-16.986 0L3.503 113.918c-4.67 4.67-4.67 12.316 0 16.986L113.92 241.317c4.667 4.674 12.312 4.674 16.986 0l110.41-110.413c4.673-4.67 4.673-12.315 0-16.986" style="fill:#fcd116;fill-opacity:1;fill-rule:nonzero;stroke:none"/>
    <path d="M238.658 115.671 129.152 6.17c-3.711-3.707-9.776-3.707-13.483 0L6.167 115.671c-3.708 3.708-3.708 9.772 0 13.477l109.502 109.505c3.707 3.704 9.772 3.704 13.483 0l109.506-109.505c3.707-3.705 3.707-9.769 0-13.477" style="fill:#000;fill-opacity:1;fill-rule:evenodd;stroke:none"/>
    <path d="M235.236 119.044 125.776 9.592c-1.849-1.856-4.88-1.856-6.731 0L9.595 119.044a4.77 4.77 0 0 0 0 6.735l109.45 109.456c1.852 1.852 4.882 1.852 6.73 0l109.46-109.456a4.782 4.782 0 0 0 0-6.735" style="fill:#fcd116;fill-opacity:1;fill-rule:evenodd;stroke:none"/>
    <path d="M198.47 122.388V92.363h-86.407v30.025h20.663v60.06h30.024v-60.06h35.72zM67.285 92.363H46.464v30.025h20.82V92.363zM99.236 62.373v7.762h8.114v8.025h-8.114v8.114h8.114V94.3h-8.114v7.85h8.114v8.113h-8.114v8.026h8.114v8.114h-8.114v8.025h8.114v7.938h-8.114v8.114h8.114v7.937h-8.114v7.938h8.114v8.025h-8.114v8.026h-3.88v-8.026H83.448l-.088 8.026h-3.88l-.089-8.026h-8.025v-8.025h8.114v-7.938h-8.114v-8.026h8.114v-8.025h-8.114v-7.938l8.114-.088v-7.937h-8.114v-8.114h8.114l-.088-8.026h-8.026v-8.114h8.026V94.3h-8.026v-8.025h8.114l-.088-8.114h-8.026v-8.025h8.114l-.088-7.761h4.057v7.76h11.906v-7.76h3.88zm-3.88 15.787H83.36v8.202h11.994V78.16zm0 16.14H83.36v7.85h11.994V94.3zm0 15.963H83.36v8.026h11.994v-8.026zm0 16.14H83.36v7.937h11.994v-7.937zm0 15.963H83.36v8.025h11.994v-8.025zm0 16.051H83.36v7.938h11.994v-7.938z" style="fill:#000;fill-opacity:1;fill-rule:evenodd;stroke:none"/>
</svg>
