<svg xmlns="http://www.w3.org/2000/svg" width="55.017" height="41.264" xml:space="preserve">
    <path d="M3.445 0h48.129a3.455 3.455 0 0 1 3.443 3.445V37.82a3.453 3.453 0 0 1-3.443 3.444H3.445A3.454 3.454 0 0 1 0 37.82V3.445A3.456 3.456 0 0 1 3.445 0" style="fill:#fcd116;fill-opacity:1;fill-rule:evenodd;stroke:none"/>
    <path d="M3.445.861h48.129a2.592 2.592 0 0 1 2.583 2.584V37.82a2.591 2.591 0 0 1-2.583 2.584H3.445A2.592 2.592 0 0 1 .86 37.82V3.445A2.593 2.593 0 0 1 3.445.861" style="fill:#000;fill-opacity:1;fill-rule:evenodd;stroke:none"/>
    <path d="M3.445 2.292h48.129c.633 0 1.152.52 1.152 1.153V37.82c0 .633-.518 1.151-1.152 1.151H3.445a1.156 1.156 0 0 1-1.152-1.151V3.445c0-.633.518-1.153 1.152-1.153" style="fill:#fcd116;fill-opacity:1;fill-rule:evenodd;stroke:none"/>
    <path d="M50.115 30.289v-1.76h-2.2v1.182h.963v.578c0 .907-.304 1.321-.935 1.321-.66 0-1.102-.442-1.265-1.294-.14-.66-.193-1.402-.193-2.143 0-1.02.165-1.983.385-2.395.22-.44.55-.633.989-.633.579 0 .991.385 1.019.963h1.237c-.054-1.267-.989-2.172-2.226-2.172a2.29 2.29 0 0 0-2.174 1.567c-.302.826-.385 1.678-.385 2.888 0 1.129.164 2.337.439 2.97.412.964 1.185 1.459 2.2 1.459.881 0 1.567-.441 1.9-1.21.192-.357.246-.716.246-1.321m-6.491 2.392v-8.608h-1.236v5.17l-2.34-5.17h-1.237v8.608h1.238v-5.773l2.639 5.773h.936zm-6.685-8.608H35.73v8.608h1.209v-8.608zM34.3 30.316c0-1.238-.742-2.173-2.394-3.135-.631-.36-.825-.605-.825-1.018 0-.577.467-.992 1.045-.992.523 0 .963.387.989.992H34.3c-.056-1.292-.962-2.227-2.174-2.227-1.237 0-2.2.99-2.2 2.227 0 .745.358 1.43 1.045 1.898 1.762 1.183 1.265.853 1.458 1.017.496.415.686.77.686 1.238 0 .688-.549 1.294-1.209 1.294-.851 0-1.21-.742-1.21-1.459h-1.208c0 1.405.906 2.669 2.418 2.669 1.322 0 2.394-1.101 2.394-2.504m-5.832 0c0-1.238-.714-2.173-2.338-3.135-.631-.36-.825-.605-.825-1.018 0-.577.44-.992 1.019-.992.549 0 .961.387.989.992h1.155c-.028-1.292-.963-2.227-2.144-2.227-1.239 0-2.203.99-2.203 2.227 0 .745.359 1.43 1.074 1.898 1.734 1.183 1.265.853 1.431 1.017.523.415.687.77.687 1.238 0 .688-.523 1.294-1.183 1.294-.851 0-1.21-.742-1.21-1.459h-1.211c0 1.405.907 2.669 2.421 2.669 1.321 0 2.338-1.101 2.338-2.504m-7.233-1.952c0 .99-.056 1.514-.275 2.201-.194.715-.522 1.045-1.045 1.045-.552 0-.881-.33-1.101-1.045-.166-.687-.246-1.239-.246-2.174 0-.963.053-1.54.246-2.201.22-.716.549-1.045 1.101-1.045.523 0 .851.329 1.045 1.074.193.632.275 1.181.275 2.145m1.183 0c0-1.293-.138-2.118-.497-2.944-.412-1.071-1.017-1.484-2.006-1.484-.991 0-1.597.413-2.064 1.458-.358.796-.468 1.677-.468 2.97 0 1.32.11 2.147.468 2.997.44 1.018 1.045 1.459 2.064 1.459.961 0 1.594-.441 2.006-1.459.359-.823.497-1.677.497-2.997m-7.51-1.981c0 .688-.387 1.072-1.1 1.072h-1.267v-2.171h1.268c.659 0 1.099.44 1.099 1.099m1.21 6.298-1.238-4.236c.826-.302 1.239-1.045 1.239-2.062 0-1.402-.909-2.31-2.256-2.31h-2.56v8.608h1.238V28.64h1.155l1.158 4.042h1.265zM9.6 26.383c-.084-.797-.194-1.154-.522-1.568a2.043 2.043 0 0 0-1.707-.879c-1.677 0-2.558 1.484-2.558 4.237 0 3.188.825 4.647 2.64 4.647 1.212 0 2.117-1.019 2.147-2.449H8.363c0 .633-.167 1.239-.91 1.239-1.044 0-1.457-.99-1.457-3.467 0-2.227.357-2.998 1.348-2.998.576 0 .909.385 1.019 1.238H9.6zM49.649 9.798V8.64h-4.375v1.157h1.567v7.452h1.24V9.798h1.568zm-4.87 7.452-1.872-4.482 1.707-4.127H43.32l-1.071 2.613-1.102-2.613h-1.29l1.76 4.127-1.87 4.482h1.29l1.212-2.94 1.21 2.94h1.32zm-5.832 0v-1.21h-3.135v-2.832H37.6v-1.182h-1.788V9.851h2.807v-1.21h-4.044v8.609h4.372zm-6.188 0V8.641H31.52v5.172L29.155 8.64h-1.238v8.609h1.238v-5.775l2.669 5.775h.935zm-10.535 0v-1.21h-3.137v-2.832h1.79v-1.182h-1.79V9.851h2.808v-1.21H17.85v8.609h4.373zm-5.833-2.364c0-1.24-.712-2.173-2.362-3.135-.635-.358-.825-.606-.825-1.018 0-.58.466-.992 1.045-.992.52 0 .96.387.988.992h1.154c-.026-1.294-.961-2.23-2.142-2.23-1.24 0-2.203.992-2.203 2.23 0 .742.359 1.4 1.045 1.897 1.733 1.183 1.266.853 1.43 1.016.523.388.716.773.716 1.24 0 .688-.55 1.292-1.208 1.292-.855 0-1.212-.743-1.212-1.457h-1.21c0 1.403.908 2.668 2.422 2.668 1.317 0 2.362-1.101 2.362-2.503m-6.186-.22V8.641H8.967v6.189c0 .828-.496 1.348-1.157 1.348-.715 0-1.209-.52-1.209-1.348V8.641H5.364v6.025c0 .715.11 1.072.33 1.512a2.491 2.491 0 0 0 2.116 1.21c.825 0 1.624-.522 2.064-1.21.218-.44.33-.797.33-1.512" style="fill:#000;fill-opacity:1;fill-rule:evenodd;stroke:none"/>
</svg>
