<svg xmlns="http://www.w3.org/2000/svg" width="2700" height="3240" viewBox="-1 -0.876 2700 3240" xml:space="preserve">
    <path style="fill:#fcd116;fill-rule:nonzero;stroke:none" d="M2699 3070.374c0 93.2-75.55 168.75-168.75 168.75H167.75c-93.198 0-168.75-75.55-168.75-168.75v-2902.5C-1 74.676 74.552-.876 167.75-.876h2362.5c93.2 0 168.75 75.552 168.75 168.75v2902.5z"/>
    <path style="fill:#000;fill-rule:nonzero;stroke:none" d="M2586.5 3070.374c0 31.012-25.238 56.25-56.25 56.25H167.75c-31.016 0-56.25-25.238-56.25-56.25v-2902.5c0-31.016 25.234-56.25 56.25-56.25h2362.5c31.012 0 56.25 25.234 56.25 56.25v2902.5zm-56.25-3026.25H167.75C99.514 44.124 44 99.638 44 167.874v2902.5c0 68.238 55.514 123.75 123.75 123.75h2362.5c68.237 0 123.75-55.512 123.75-123.75v-2902.5c0-68.236-55.513-123.75-123.75-123.75z"/>
    <path style="fill:#000;fill-rule:nonzero;stroke:none" d="m1200.089 2131.499-25.329 103.575h51.925l-26.596-103.575zm64.586 252.625-25.329-98.525h-77.25l-24.06 98.525h-51.926l89.916-360h50.659l89.915 360h-51.925zM1509.487 2120.124c-5.075-35.362-19.025-51.787-43.137-51.787-41.862 0-57.075 32.837-57.075 126.312 0 103.588 17.75 145.262 62.15 145.262 30.45 0 38.063-25.262 38.063-51.787h52c-1.263 59.375-39.326 102.325-90.063 102.325-77.375 0-111.625-61.9-111.625-194.537 0-116.213 36.788-178.1 107.825-178.1 29.175 0 54.538 12.625 71.037 36.625 13.95 17.687 19.025 32.85 22.825 65.687h-52zM1780.975 2384.124l-63.025-175.575-32.775 60.625v114.95h-51.688v-360h51.688v144l81.937-144h59.25l-74.375 126.312 83.188 233.688h-54.2zM956.647 2074.65h-52.943v90.949h52.943c30.254 0 46.642-16.425 46.642-45.475 0-27.787-18.908-45.475-46.642-45.475zm44.12 309.474-47.9-169.262h-49.163v169.262H852.02v-360h107.149c56.726 0 94.542 37.9 94.542 96 0 42.95-17.649 74.525-51.682 87.163l51.682 176.837h-52.944zM1980.888 2217.874c-15.575-10.088-30.7-20.212-40.35-27.012-29.025-20.426-44.4-48-44.4-79.576 0-51.8 40.587-93.474 92.6-93.474 50.737 0 90.062 39.162 91.337 93.475H2030.6c-1.275-25.263-19.025-41.688-41.862-41.688-24.1 0-43.126 17.688-43.126 41.688 0 17.687 7.613 27.787 34.25 42.95 69.763 40.412 100.213 79.574 100.213 131.362 0 58.113-44.4 104.85-100.213 104.85-63.425 0-101.487-53.063-101.487-112.425h50.75c0 30.313 15.212 61.888 50.737 61.888 27.9 0 50.738-25.263 50.738-54.313 0-22.563-9.325-41.563-49.713-67.725zM735.745 2072.124v312h-51.939v-312H617.93v-48h183.691v48h-65.876zM602.405 1051.177h-51.682v112.422h51.682c28.992 0 47.901-20.209 47.901-51.789 0-34.106-21.43-60.634-47.901-60.634zm2.521-146.525h-54.204v96h54.204c23.95 0 39.078-20.212 39.078-53.053 0-30.315-11.345-42.947-39.078-42.947zm0 309.473H499.04V854.127H612.49c47.9 0 81.936 37.893 81.936 93.472 0 32.841-8.824 48-37.817 78.315 27.732 22.739 44.121 53.054 44.121 89.685 0 54.316-42.86 98.526-95.804 98.526zM761.93 1214.125V854.126h169.754v50.525H813.87V995.6h74.741v49.264H813.87v118.736h131.75v50.526H761.93zM1507.487 1214.125V854.126h169.763v50.525h-117.825V995.6h74.75v49.264h-74.75v118.736h131.75v50.526h-183.688zM1752.375 1214.125V854.126h169.762v50.525h-117.812V995.6h74.737v49.264h-74.737v118.736h131.75v50.526h-183.7zM2159.887 1214.125 2048.95 972.863v241.262h-51.675V854.126h51.675l98.325 216v-216h51.687v360h-39.075zM1095.835 902.128v311.997h-51.941V902.128H978.02v-48.002h183.689v48.002h-65.874zM1398.788 1214.125h-44.363l-34.225-188.209-34.225 188.21h-45.627l-57.04-360h50.7l30.417 192 35.5-192h40.55l34.225 192 31.688-192h50.7l-58.3 360zM1518.987 2696.287c-8.825-25.263-23.95-36.638-46.637-36.638h-42.862v258.95h42.862c30.25 0 46.638-24 51.675-51.788 2.525-22.737 5.05-48 5.05-75.787 0-40.425-3.788-79.587-10.088-94.737zm8.825 256.425c-12.612 11.362-30.262 16.412-50.424 16.412H1377.8v-360h92.025c30.25 0 45.375 3.788 57.987 13.9 21.426 15.15 36.55 42.938 42.85 79.575 5.05 26.525 8.825 58.1 8.825 85.9 0 83.363-16.387 136.413-51.675 164.213zM282.006 2806.174h-51.683V2918.6h51.683c28.993 0 47.902-20.212 47.902-51.787 0-34.113-21.432-60.638-47.902-60.638zm2.522-146.525h-54.205v96h54.205c23.948 0 39.076-20.212 39.076-53.05 0-30.313-11.344-42.95-39.076-42.95zm0 309.475H178.64v-360h113.45c47.901 0 81.936 37.9 81.936 93.475 0 32.837-8.822 48-37.816 78.313 27.733 22.737 44.119 53.05 44.119 89.687 0 54.313-42.86 98.525-95.801 98.525zM441.53 2969.124v-360h169.755v50.525H493.469v90.95h74.744v49.262h-74.744V2918.6H625.22v50.525H441.53zM836.426 2969.124v-162.95h-98.322v162.95h-51.682v-360h51.682v146.525h98.322v-146.525h51.684v360h-51.684zM967.309 2969.124v-360h50.399v360h-50.4zM1259.525 2969.124l-110.933-241.262v241.262h-51.682v-360h51.683l98.322 216v-216h51.685v360h-39.075zM2184.6 2698.811c-8.912-31.575-22.913-45.474-44.538-45.474-22.9 0-36.9 13.9-45.8 44.212-8.912 27.788-11.462 51.788-11.462 92.213 0 39.15 3.825 61.887 11.462 90.937 8.9 30.325 22.9 44.213 45.8 44.213 21.626 0 35.626-13.888 44.538-44.213 8.9-29.05 11.45-50.525 11.45-92.2 0-40.425-3.825-63.162-11.45-89.687zm40.712 214.738c-17.812 42.938-44.537 61.887-85.25 61.887-43.262 0-68.712-18.95-86.524-61.887-15.263-35.375-20.363-69.475-20.363-125.05 0-54.325 5.1-90.95 20.363-125.05 19.087-42.95 44.537-60.638 86.524-60.638 41.988 0 67.438 17.688 85.25 61.888 15.276 35.375 20.363 69.475 20.363 123.8 0 55.575-5.088 90.938-20.363 125.05zM2505.5 2924.912c-17.65 29.05-51.688 50.537-85.725 50.537-35.3 0-70.6-20.212-88.237-50.538-10.088-18.95-13.863-34.1-13.863-63.15v-252.637h51.675v258.95c0 34.1 20.175 56.837 50.425 56.837 27.738 0 47.9-22.737 47.9-56.837v-258.95h51.688v252.638c0 29.05-3.788 44.2-13.863 63.15zM1900.063 2806.174v162.95h-51.926v-162.95l-88.65-197.05h54.463l60.788 130.113 59.524-130.113h55.726l-89.926 197.05zM1781.088 629.126V269.124h169.762v50.526h-117.812V410.6h74.737v49.264h-74.737v118.736h131.75v50.528h-183.7zM1536.2 629.126V269.124h169.75v50.526h-117.813V410.6h74.75v49.264h-74.75v118.736h131.75v50.528H1536.2zM1354.05 319.65V410.6h72.213v49.264h-72.213v169.264h-51.938V269.124H1485.8v50.526h-131.75zM2115 317.125v311.999h-51.938V317.125h-65.887v-48.001h183.7v48.001H2115zM540.194 629.126V333.548h-23.065v-39.16c20.501-1.263 33.313-10.105 41.005-25.264h34.593v360.002h-52.533zM742.724 635.442c-31.713 0-62.158-11.37-88.795-31.582l34.249-36.63c17.758 12.63 31.712 17.685 49.47 17.685 39.323 0 67.23-35.372 67.23-84.632 0-39.156-19.027-63.161-49.47-63.161-16.49 0-30.444 6.316-43.13 17.686l-49.47-6.316 8.878-179.37h169.98v50.526H719.89l-3.806 75.79c17.76-6.314 26.64-7.578 40.594-7.578 58.348 0 98.94 46.738 98.94 114.948 0 75.79-48.203 132.634-112.894 132.634zM1061.034 358.809c-8.907-31.579-22.902-45.474-44.534-45.474-22.902 0-36.9 13.895-45.806 44.213-8.908 27.787-11.453 51.787-11.453 92.21 0 39.157 3.818 61.895 11.453 90.945 8.906 30.318 22.904 44.215 45.806 44.215 21.633 0 35.627-13.897 44.534-44.215 8.907-29.05 11.45-50.524 11.45-92.209 0-40.421-3.816-63.159-11.45-89.685zm40.716 214.741c-17.814 42.947-44.534 61.894-85.25 61.894-43.261 0-68.709-18.948-86.523-61.894-15.27-35.371-20.358-69.476-20.358-125.056 0-54.318 5.088-90.946 20.358-125.052 19.087-42.948 44.534-60.634 86.523-60.634s67.436 17.686 85.25 61.896c15.269 35.369 20.359 69.472 20.359 123.79 0 55.58-5.09 90.948-20.359 125.056zM1932.963 1546.499l-25.338 103.575h51.925l-26.587-103.575zm64.587 252.625-25.337-98.525h-77.25l-24.063 98.525h-51.925l89.925-360h50.65l89.925 360h-51.925zM2457.137 1526.286c-8.812-25.262-23.95-36.637-46.637-36.637h-42.862v258.95h42.862c30.25 0 46.638-24 51.688-51.788 2.512-22.737 5.037-48 5.037-75.787 0-40.425-3.775-79.587-10.088-94.737zm8.825 256.426c-12.6 11.362-30.25 16.412-50.425 16.412h-99.575v-360h92.013c30.262 0 45.387 3.787 57.987 13.9 21.438 15.15 36.563 42.938 42.863 79.575 5.037 26.525 8.825 58.1 8.825 85.9 0 83.362-16.388 136.412-51.688 164.213zM2237.287 1799.124l-110.937-241.262v241.262h-51.675v-360h51.675l98.325 216v-216h51.687v360h-39.075zM1348.675 1546.499l-25.325 103.575h51.925l-26.6-103.575zm64.588 252.625-25.325-98.525h-77.25l-24.063 98.525h-51.926l89.913-360h50.663l89.912 360h-51.924zM677.081 1754.912c-13.952 31.587-43.129 50.525-79.915 50.525-43.129 0-74.84-21.463-92.599-61.888-11.417-26.525-19.028-77.05-19.028-123.788 0-50.524 3.806-87.162 16.491-121.262 12.684-37.9 49.471-65.688 91.331-65.688 52.008 0 91.331 37.888 93.868 90.95H635.22c-1.269-24-17.757-40.424-43.129-40.424-17.758 0-31.712 8.837-40.59 26.525-10.148 17.687-16.49 58.1-16.49 101.05 0 30.325 2.536 61.9 7.608 89.687 7.611 35.363 25.37 54.313 53.279 54.313 26.637 0 39.322-17.688 39.322-55.575v-24H594.63v-50.525h92.599v74.525c0 25.262-2.536 40.425-10.148 55.575zM873.236 1799.124v-162.95h-98.324v162.95H723.23v-360h51.683v146.525h98.324v-146.525h51.681v360h-51.68zM307.858 1799.124v-162.95h-98.323v162.95H157.85v-360h51.685v146.525h98.323v-146.525h51.682v360h-51.682zM399.139 1799.124v-360h50.401v360h-50.401zM1165.591 1799.124h-44.36l-34.223-188.213-34.224 188.213h-45.63l-57.034-360h50.696l30.423 192 35.489-192h40.56l34.222 192 31.689-192h50.699l-58.307 360zM1616.563 1636.174v162.95h-51.926v-162.95l-88.65-197.05h54.463l60.788 130.113 59.524-130.113h55.713l-89.912 197.05z"/>
</svg>
