<svg xmlns="http://www.w3.org/2000/svg" width="55.017" height="55.017" xml:space="preserve">
    <path d="M55.017 55.017H0V0h55.017v55.017z" style="fill:#000;fill-opacity:1;fill-rule:nonzero;stroke:none"/>
    <path style="fill:#fcd116;fill-opacity:1;fill-rule:nonzero;stroke:none" d="M17.776 6.101v1.844a.5.5 0 0 0 .5.5h.25a.5.5 0 0 0 .5-.5v-.5h6.063a1.195 1.195 0 0 0-.125.469c0 .622.545 1.174 1.312 1.469h-6.719c-.788 0-1.607 0-2.375.218-.768.214-1.437.631-2 1.188-.606.599-1.076 1.339-1.187 2.187l-1.844 14.406.656 5.875-.437.594v3.344h6.094l-.532.906h-1.906l-1 1.938h1.844l-.813 1.406h-1.843l-1.125 2.094h1.875l-.969 1.75h-1.844l-1.406 2.343h2l-.719 1.25 1.844.032.781-1.282h25.875l.719 1.282 1.906-.032-.656-1.25h1.75l-1.219-2.343h-1.844l-.968-1.75h1.843l-1.062-2.094h-2l-.688-1.406h1.875L39.057 38.1h-1.812l-.563-.906h6.407l-.031-3.313-.5-.718.593-5.157-1.875-14.437c-.126-.954-.352-1.901-.937-2.688a4.465 4.465 0 0 0-1.25-1.156 2.365 2.365 0 0 0-1.25-.344H28.9c.767-.294 1.282-.846 1.282-1.468 0-.16-.03-.323-.094-.469h6.187v.5a.5.5 0 0 0 .5.5h.22c.28 0 .53-.225.53-.5V6.101h-19.75zm9.844 1.563c.42 0 .75.192.75.437 0 .246-.33.438-.75.438-.416 0-.75-.191-.75-.438 0-.245.334-.437.75-.437zm-7.625 2.469h15.156V13.6H19.995v-3.469zm6.437 4.343v10.188H14.12l1.062-9.282 11.25-.906zm2.282.031 11.562.75.969 9.407H28.714V14.507zM36.62 29.07c.15.004.292.038.437.094.342.133.545.35.72.656.163-.304.392-.559.718-.688.576-.227 1.25.025 1.594.532.257.38.312.83.125 1.25-.268.6-.863.885-1.5.78-.443-.07-.738-.34-.938-.718-.161.303-.385.531-.719.656-.57.214-1.248.034-1.593-.468a1.326 1.326 0 0 1 0-1.5c.258-.39.703-.606 1.156-.594zm-20.25.031c.15.004.293.007.437.063.334.126.553.387.72.687.163-.304.388-.557.718-.687a1.387 1.387 0 0 1 1.594.5c.316.452.311 1.04 0 1.5a1.366 1.366 0 0 1-1.594.5c-.33-.13-.551-.357-.719-.657-.166.3-.39.53-.719.657a1.344 1.344 0 0 1-1.593-.5 1.322 1.322 0 0 1 0-1.5c.263-.38.708-.576 1.156-.563zm-1.125 4.5h25.094v.875H15.214l.031-.875zm5.062 3.594h14.594l.5.906H19.776l.531-.906zm-1.53 2.906H36.4l.75 1.375H17.964l.812-1.375zm-1.907 3.531h21.437l.97 1.75H15.9l.969-1.75z"/>
</svg>
