<svg xmlns="http://www.w3.org/2000/svg" width="89.999" height="90.001" xml:space="preserve">
    <path d="m1.288 41.877 40.588-40.59c1.718-1.716 4.53-1.716 6.245 0l40.59 40.59a4.432 4.432 0 0 1 0 6.246l-40.59 40.59c-1.715 1.718-4.527 1.718-6.245 0L1.288 48.122a4.43 4.43 0 0 1 0-6.246" style="fill:#fcd116;fill-opacity:1;fill-rule:nonzero;stroke:none"/>
    <path d="M2.264 42.523 42.521 2.268a3.512 3.512 0 0 1 4.955 0L87.73 42.523a3.515 3.515 0 0 1 0 4.954L47.476 87.733a3.514 3.514 0 0 1-4.955 0L2.264 47.477a3.513 3.513 0 0 1 0-4.954" style="fill:#000;fill-opacity:1;fill-rule:evenodd;stroke:none"/>
    <path d="M3.522 43.762 43.76 3.526a1.754 1.754 0 0 1 2.475 0l40.237 40.236a1.756 1.756 0 0 1 0 2.476L46.236 86.476a1.754 1.754 0 0 1-2.475 0L3.52 46.238a1.758 1.758 0 0 1 0-2.476" style="fill:#fcd116;fill-opacity:1;fill-rule:evenodd;stroke:none"/>
    <path d="m42.657 29.246-3.376-5.98v5.98h-1.394v-8.83h1.394l3.221 5.637v-5.637h1.396v8.83h-1.241zM50.187 22.38c-.281-.467-.621-.653-1.15-.683-.683-.03-1.119.309-1.429 1.085-.216.525-.341 1.331-.341 2.074 0 .931.185 1.891.527 2.447.28.467.653.682 1.213.682.651 0 1.055-.34 1.365-1.114.187-.465.342-1.334.342-2.015 0-.991-.187-1.888-.527-2.476m.961 6.04c-.496.68-1.21.99-2.141.99-1.243 0-2.02-.495-2.548-1.58-.372-.743-.62-1.92-.62-2.974 0-1.456.372-2.756.963-3.594.527-.681 1.241-.991 2.266-.991 1.119 0 1.895.496 2.453 1.581.373.774.59 1.89.59 3.004 0 1.395-.34 2.79-.963 3.564M58.606 64.565l-3.377-5.98v5.98h-1.395v-8.83h1.395l3.222 5.638v-5.638h1.395v8.83h-1.24zM42.453 57.698c-.279-.465-.621-.65-1.15-.682-.681-.03-1.117.31-1.427 1.085-.218.525-.342 1.331-.342 2.075 0 .929.187 1.89.527 2.447.28.465.653.68 1.213.68.652 0 1.055-.338 1.365-1.113.187-.464.343-1.333.343-2.014 0-.991-.188-1.889-.529-2.478m.963 6.04c-.498.682-1.212.992-2.142.992-1.242 0-2.02-.497-2.548-1.58-.373-.744-.62-1.92-.62-2.974 0-1.458.372-2.758.962-3.595.528-.681 1.243-.99 2.268-.99 1.117 0 1.893.496 2.453 1.581.373.774.59 1.889.59 3.004 0 1.394-.342 2.789-.963 3.562M50.194 57.286c-.216-.126-.342-.156-.806-.156h-1.674v2.167h1.674c.435 0 .59-.03.806-.156.34-.185.557-.556.557-.928 0-.37-.217-.742-.557-.927m.62 7.277-1.426-3.84h-1.674v3.84h-1.393v-8.828h2.912c.683 0 1.146.062 1.58.277.776.373 1.333 1.303 1.333 2.201 0 .928-.557 1.86-1.363 2.23l1.549 4.12h-1.519zM34.77 64.563v-3.84h-3.22v3.84h-1.396v-8.828h1.395v3.562h3.22v-3.562h1.394v8.828H34.77zM59.708 46.906l-3.377-5.981v5.98h-1.394v-8.83h1.394l3.221 5.64v-5.64h1.395v8.83h-1.239zM51.405 38.074h1.411v8.831h-1.411v-8.83zM32.475 39.316v7.589h-1.4v-7.59h-2.023v-1.24h5.476v1.24h-2.053zM39.726 39.625c-.218-.124-.342-.155-.807-.155h-1.672v2.168h1.672c.434 0 .59-.03.807-.156a1.08 1.08 0 0 0 .557-.929c0-.37-.217-.742-.557-.928m.62 7.28-1.427-3.842h-1.672v3.842h-1.394v-8.83h2.911c.682 0 1.147.062 1.582.278.773.372 1.33 1.302 1.33 2.2 0 .93-.557 1.86-1.362 2.232l1.55 4.12h-1.518zM46.34 40.523l-.904 2.48h1.776l-.873-2.48zm2.243 6.38-.874-2.476h-2.77l-.875 2.475H42.57l3.054-8.827h1.403l3.052 8.827h-1.495z" style="fill:#000;fill-opacity:1;fill-rule:nonzero;stroke:none"/>
</svg>
