<?xml version="1.0" encoding="UTF-8" standalone="no"?>
<!-- Generator: Adobe Illustrator 12.0.1, SVG Export Plug-In  -->

<svg
   xmlns:dc="http://purl.org/dc/elements/1.1/"
   xmlns:cc="http://creativecommons.org/ns#"
   xmlns:rdf="http://www.w3.org/1999/02/22-rdf-syntax-ns#"
   xmlns:svg="http://www.w3.org/2000/svg"
   xmlns="http://www.w3.org/2000/svg"
   xmlns:sodipodi="http://sodipodi.sourceforge.net/DTD/sodipodi-0.dtd"
   xmlns:inkscape="http://www.inkscape.org/namespaces/inkscape"
   version="1.1"
   width="285.26175"
   height="285.22076"
   viewBox="-1 0 285.26175 285.22076"
   enable-background="new -1 0 289 289"
   xml:space="preserve"
   id="svg2"
   inkscape:version="0.92.4 (5da689c313, 2019-01-14)"
   sodipodi:docname="MUTCD_W10-1_(non-compliant).svg"><metadata
   id="metadata26"><rdf:RDF><cc:Work
       rdf:about=""><dc:format>image/svg+xml</dc:format><dc:type
         rdf:resource="http://purl.org/dc/dcmitype/StillImage" /></cc:Work></rdf:RDF></metadata><sodipodi:namedview
   pagecolor="#ffffff"
   bordercolor="#666666"
   borderopacity="1"
   objecttolerance="10"
   gridtolerance="10"
   guidetolerance="10"
   inkscape:pageopacity="0"
   inkscape:pageshadow="2"
   inkscape:window-width="1920"
   inkscape:window-height="1057"
   id="namedview24"
   showgrid="false"
   fit-margin-top="0"
   fit-margin-left="0"
   fit-margin-right="0"
   fit-margin-bottom="0"
   inkscape:zoom="1.8202571"
   inkscape:cx="97.907512"
   inkscape:cy="90.023476"
   inkscape:window-x="-8"
   inkscape:window-y="-8"
   inkscape:window-maximized="1"
   inkscape:current-layer="svg2" />
<defs
   id="defs4">
</defs>
<path
   clip-rule="evenodd"
   d="m 40.7,41.691748 c 55.596,-55.589 146.272,-55.589 201.873,0 55.585,55.581 55.585,146.257002 0,201.841002 -55.601,55.584 -146.277,55.584 -201.873,0 -55.6,-55.584 -55.6,-146.260002 0,-201.841002 z"
   id="path6"
   style="fill:#cdff00;fill-rule:evenodd;stroke:none;fill-opacity:1"
   inkscape:connector-curvature="0" />

<path
   clip-rule="evenodd"
   d="m 44.738,45.723748 c 53.372,-53.3650008 140.417,-53.3650008 193.798,0 53.371,53.365 53.371,140.417002 0,193.783002 -53.382,53.365 -140.427,53.365 -193.798,0 -53.387,-53.366 -53.387,-140.418002 0,-193.783002"
   id="path10"
   inkscape:connector-curvature="0"
   style="fill-rule:evenodd;stroke:none;fill:#000000" />
<path
   clip-rule="evenodd"
   d="m 38.035,58.704748 c -39.774,48.608002 -39.774,119.205002 0,167.807002 l 83.911,-83.904 -83.911,-83.903002"
   id="path12"
   inkscape:connector-curvature="0"
   style="fill:#cdff00;fill-rule:evenodd;stroke:none;fill-opacity:1" />
<path
   clip-rule="evenodd"
   d="m 57.723,39.026748 c 48.611,-39.7690009 119.213,-39.7690009 167.817,0 L 141.634,122.92775 57.723,39.026748"
   id="path14"
   inkscape:connector-curvature="0"
   style="fill:#cdff00;fill-rule:evenodd;stroke:none;fill-opacity:1" />
<path
   clip-rule="evenodd"
   d="m 225.54,246.19175 c -48.604,39.762 -119.206,39.762 -167.817,0 l 83.911,-83.905 83.906,83.905"
   id="path16"
   inkscape:connector-curvature="0"
   style="fill:#cdff00;fill-rule:evenodd;stroke:none;fill-opacity:1" />
<path
   clip-rule="evenodd"
   d="m 245.224,226.51175 c 39.776,-48.603 39.776,-119.199 0,-167.807002 l -83.911,83.903002 83.911,83.904"
   id="path18"
   inkscape:connector-curvature="0"
   style="fill:#cdff00;fill-rule:evenodd;stroke:none;fill-opacity:1" />
<path
   clip-rule="evenodd"
   d="m 70.454,131.76075 c 0,4.1 -3.123,6.836 -8.004,6.836 H 46.644 v -13.862 H 62.45 c 4.881,10e-4 8.004,2.737 8.004,7.026 m 11.122,38.642 -10.142,-23.802 c 5.652,-3.128 8.979,-8.595 8.979,-14.84 0,-6.245 -3.328,-11.711 -8.593,-14.643 -2.923,-1.748 -5.468,-2.329 -9.571,-2.329 H 36.684 v 55.613 h 9.959 v -21.863 h 14.831 l 8.979,21.863 h 11.123 z"
   id="path20"
   inkscape:connector-curvature="0"
   style="fill-rule:evenodd;stroke:none;fill:#000000" />
<path
   clip-rule="evenodd"
   d="m 242.595,131.76075 c 0,4.1 -3.134,6.836 -8.013,6.836 h -15.803 v -13.862 h 15.803 c 4.879,10e-4 8.013,2.737 8.013,7.026 m 11.119,38.642 -10.152,-23.802 c 5.657,-3.128 8.979,-8.595 8.979,-14.84 0,-6.245 -3.322,-11.711 -8.59,-14.643 -2.934,-1.748 -5.463,-2.329 -9.563,-2.329 h -25.565 v 55.613 h 9.957 v -21.863 h 14.825 l 8.99,21.863 h 11.119 z"
   id="path22"
   inkscape:connector-curvature="0"
   style="fill-rule:evenodd;stroke:none;fill:#000000" />
</svg>