<svg xmlns="http://www.w3.org/2000/svg" width="112.5" height="112.5" viewBox="0 -0.999 112.5 112.5" xml:space="preserve">
    <path d="M1.61 51.348 52.346.611c2.149-2.147 5.66-2.147 7.806 0l50.739 50.737c2.145 2.146 2.145 5.659 0 7.806l-50.739 50.737c-2.146 2.147-5.657 2.147-7.806 0L1.61 59.154c-2.147-2.147-2.147-5.66 0-7.806z" style="fill:#fcd116;fill-opacity:1;fill-rule:nonzero;stroke:none"/>
    <path d="m2.833 52.154 50.32-50.32a4.394 4.394 0 0 1 6.193 0l50.32 50.32a4.388 4.388 0 0 1 0 6.193l-50.32 50.32a4.394 4.394 0 0 1-6.194 0L2.833 58.347a4.39 4.39 0 0 1 0-6.193" style="fill:#000;fill-opacity:1;fill-rule:evenodd;stroke:none"/>
    <path d="M4.405 53.703 54.702 3.408a2.19 2.19 0 0 1 3.094 0l50.296 50.295a2.195 2.195 0 0 1 0 3.095l-50.296 50.296a2.19 2.19 0 0 1-3.094 0L4.405 56.798a2.197 2.197 0 0 1 0-3.095" style="fill:#fcd116;fill-opacity:1;fill-rule:evenodd;stroke:none"/>
    <path d="M41.425 34.612V33.14H35.81v1.47h2.013v9.562h1.587v-9.561h2.015zm7.702 9.561-1.587-5.42c1.046-.386 1.587-1.355 1.587-2.67 0-1.781-1.16-2.942-2.904-2.942h-3.29v11.032h1.588v-5.186h1.509l1.47 5.186h1.627zm-1.549-8.09c0 .89-.502 1.393-1.432 1.393H44.52v-2.787h1.625c.851 0 1.432.543 1.432 1.394zm9.562 8.09-2.748-11.032h-1.55l-2.749 11.032h1.59l.735-3.02h2.36l.774 3.02h1.588zm-2.748-4.567h-1.589l.775-3.175.814 3.175zm4.259 4.567h1.547V33.141h-1.547v11.032zm10.141 0V33.141h-1.586v6.62l-3.02-6.62H62.6v11.032h1.586V36.78l3.406 7.394h1.2zm7.974-3.02c0-1.586-.928-2.786-3.058-4.025-.812-.464-1.043-.774-1.043-1.317 0-.735.58-1.278 1.316-1.278.695 0 1.237.505 1.277 1.278h1.508c-.036-1.664-1.239-2.864-2.785-2.864-1.588 0-2.828 1.277-2.828 2.864 0 .968.464 1.82 1.355 2.44 2.247 1.51 1.627 1.083 1.86 1.316.658.502.89.967.89 1.586 0 .891-.7 1.665-1.55 1.665-1.083 0-1.547-.967-1.547-1.896h-1.55c0 1.82 1.162 3.452 3.097 3.452 1.703 0 3.058-1.44 3.058-3.22M26.296 60.787V49.753h-1.588l-2.05 6.195-2.052-6.195H19.02v11.034h1.586v-6.194l2.052 6.194 2.05-6.194v6.194h1.588zm8.595 0-2.748-11.034h-1.55l-2.747 11.034h1.587l.737-3.02h2.358l.775 3.02h1.588zm-2.748-4.569h-1.587l.772-3.174.815 3.174zm10.453-6.465h-1.704l-1.82 3.989-1.859-3.989h-1.665l2.71 6.039v4.995h1.588v-4.995l2.75-6.039zm12.619 11.034v-1.549H51.19v-3.64h2.283V54.09H51.19v-2.787h3.6v-1.549h-5.187v11.034h5.612zm7.47 0-2.4-5.73 2.208-5.304h-1.667l-1.391 3.329-1.394-3.329h-1.664l2.243 5.304-2.4 5.73h1.663l1.552-3.755 1.547 3.755h1.703zm7.475-8.091c-.118-1.007-.273-1.472-.7-2.014-.504-.735-1.275-1.121-2.167-1.121-2.17 0-3.29 1.897-3.29 5.458 0 4.065 1.044 5.968 3.407 5.968 1.546 0 2.71-1.324 2.75-3.143h-1.592c0 .814-.23 1.587-1.158 1.587-1.355 0-1.9-1.277-1.9-4.45 0-2.865.467-3.873 1.745-3.873.735 0 1.16.504 1.313 1.588h1.592zm7.777 8.09v-1.548h-4.025v-3.64h2.286V54.09h-2.286v-2.787h3.601v-1.549h-5.188v11.034h5.612zm7.474 0v-1.548h-4.029v-3.64h2.286V54.09h-2.286v-2.787h3.601v-1.549h-5.187v11.034h5.615zm8.051-5.534c0-.853-.116-1.82-.271-2.634-.193-1.122-.656-1.974-1.315-2.439-.389-.31-.853-.426-1.78-.426H87.27v11.034h3.058c.62 0 1.16-.155 1.548-.504 1.082-.852 1.586-2.476 1.586-5.031zm-1.547.076c0 .853-.08 1.625-.157 2.324-.155.85-.658 1.586-1.586 1.586h-1.315v-7.936h1.315c.695 0 1.159.349 1.431 1.122.195.465.312 1.665.312 2.904M30.413 77.346V66.314h-1.045c-.232.464-.618.735-1.237.775v1.2h.695v9.057h1.587zm8.013-2.98a3.83 3.83 0 0 0-1.278-2.904c.737-.85 1.007-1.586 1.007-2.514 0-1.59-1.2-2.826-2.785-2.826-1.473 0-2.595 1.044-2.75 2.515l1.548.192c.078-.736.503-1.16 1.202-1.16.772 0 1.276.544 1.276 1.395 0 .464-.154.89-.466 1.24-.27.308-.424.424-.81.424h-.66v1.51h.775c.773 0 1.43.968 1.43 2.128 0 .93-.657 1.626-1.545 1.626-.853 0-1.473-.66-1.55-1.548h-1.55c.08 1.82 1.317 3.104 3.1 3.104 1.778 0 3.056-1.361 3.056-3.182zm8.13-2.555c0-1.663-.155-2.71-.619-3.793-.544-1.355-1.317-1.896-2.594-1.896-1.28 0-2.052.541-2.635 1.855-.463 1.047-.618 2.171-.618 3.834 0 1.702.155 2.75.618 3.832.545 1.316 1.318 1.905 2.635 1.905 1.24 0 2.05-.589 2.594-1.905.464-1.046.619-2.13.619-3.832zm-1.51 0c0 1.278-.079 1.935-.348 2.825-.27.932-.697 1.356-1.355 1.356-.697 0-1.123-.424-1.393-1.356-.233-.89-.35-1.587-.35-2.785 0-1.24.078-1.975.35-2.827.27-.93.696-1.355 1.393-1.355.658 0 1.084.424 1.355 1.395.232.812.348 1.508.348 2.747zm15.019 5.535-2.515-5.843 1.778-2.207h-1.856l-1.859 2.322v-5.496l-1.547.852v10.372h1.547V73.86l.853-1.044 1.935 4.529h1.664zm10.45 0V71.81c0-1.858-1.123-2.632-2.243-2.71-.735-.037-1.589.04-2.169.967-.463-.656-1.007-.967-1.703-.967-.348 0-.892 0-1.625.658v-.463h-1.51v8.05h1.548V71.81c0-.928.464-1.24 1.048-1.277.771 0 1.235.233 1.235 1.277v5.535h1.55V71.81c0-.928.464-1.277 1.044-1.277.815 0 1.238.233 1.238 1.277v5.535h1.588M79.185 66.287h-1.702l-6.33 11.065h1.704l6.328-11.065M85.28 77.346V71.81c0-2.438-2.205-3.29-4.064-2.4v-3.29l-1.511.853v10.372h1.547V71.81c0-.928.543-1.24 1.123-1.277.775 0 1.355.233 1.355 1.277v5.535h1.55" style="fill:#000;fill-opacity:1;fill-rule:evenodd;stroke:none"/>
</svg>
