<svg xmlns="http://www.w3.org/2000/svg" width="89.963" height="89.414" xml:space="preserve">
    <path d="m47.898 88.242 40.868-40.628c1.599-1.58 1.594-4.222 0-5.805L47.898 1.184c-1.59-1.575-4.248-1.582-5.84 0L1.189 41.81c-1.58 1.579-1.59 4.229 0 5.805l40.87 40.628c1.713 1.7 4.092 1.42 5.84 0" style="fill:#fcd116;fill-opacity:1;fill-rule:nonzero;stroke:none"/>
    <path d="M42.8 87.51 1.931 46.877c-1.187-1.18-1.183-3.148 0-4.333L42.8 1.92c1.191-1.176 3.169-1.185 4.36 0l40.874 40.625c1.177 1.178 1.182 3.16 0 4.333L47.16 87.509c-1.186 1.175-3.176 1.179-4.36 0" style="fill:#000;fill-opacity:1;fill-rule:evenodd;stroke:none"/>
    <path d="M44.029 86.29a1.387 1.387 0 0 0 1.911 0l40.864-40.633c.51-.514.522-1.377 0-1.889L45.94 3.141a1.373 1.373 0 0 0-1.911 0L3.16 43.768a1.34 1.34 0 0 0 0 1.89L44.03 86.29" style="fill:#fcd116;fill-opacity:1;fill-rule:evenodd;stroke:none"/>
    <path d="m39.13 27.845 5.198 4.574H43.22l6.733 5.498-3.339-4.7 1.733.125-9.218-5.497zm13.639 13.639 5.197 4.573H56.86l6.735 5.498-3.34-4.7 1.734.127-9.22-5.498zm-11.92-.133-.099.609h-1.377l-.37 1.181h1.56l-.097.609h-1.65l-.468 1.476h1.878l-.131.754h-1.987l-.54 1.735h2.245l-.128.792h-2.374l-.653 2.09h2.673l-.156 1.008h-2.844l-.708 2.259h3.168l-.215 1.335h-3.378l-.882 2.796h3.792l-.343 2.105h-4.116l-1.266 4.004h4.716l-.623 3.82h2.799l.439-3.82h13.211l.569 3.82h2.799l-.724-3.82h4.911L59.075 60.1H54.8l-.399-2.105h3.95l-.966-2.796h-3.522l-.258-1.335h3.311l-.77-2.26h-2.965l-.201-1.007h2.813l-.723-2.09h-2.486l-.159-.792H54.8l-.597-1.735H52.1l-.141-.754h1.973l-.512-1.476h-1.748l-.112-.609h1.66l-.411-1.181h-1.476l-.115-.609 27.23 4.755V44.73l-5.07-.921-.128-.03-.11-.035-.099-.043L73 43.68l-.039-.027-.036-.027-.033-.028-.03-.03-.028-.028-.049-.065-.037-.067-.028-.07-.021-.073-.015-.078-.006-.074-.004-.076v-.077l.009-.144.048-.089.022-.047.014-.05.085-.06.083-.058.077-.062.076-.064.074-.069.07-.07.067-.075.068-.075.063-.077.06-.08.054-.082.055-.086.051-.089.05-.088.048-.093.041-.092.074-.03.07-.027.064-.02.033-.007.03-.004h3.565l-.268-1.634-3.452-.127-.032-.11-.036-.105-.042-.108-.046-.103-.049-.102-.055-.097-.055-.098-.062-.09-.064-.092-.068-.089-.07-.085-.077-.081-.077-.08-.079-.076-.085-.073-.087-.069-.087-.066-.092-.061-.098-.058-.096-.056-.099-.049-.1-.048-.105-.047-.106-.037-.104-.034-.112-.032-.111-.024-.113-.023-.114-.015-.113-.01-.12-.01h-.227l-.11.007-.108.01-.11.012-.105.02-.105.026-.104.023-.101.034-.1.03-.098.04-.096.038-.094.045-.091.052-.09.048-.089.054-.085.059-.085.059-.08.065-.079.066-.077.07-.073.071-.07.076-.064.078-.07.081-.06.083-.058.082-.057.089-.053.089-.049.09-.046.095-.043.095-.038.1-12.515-.51 5.68-3.738-1.432-.95 3.125-5.525-5.996 5.81.754.938-3.611 3.418-9.63-.38-.09-.006-.09-.014-.085-.013-.085-.017-.084-.025-.083-.026-.082-.036-.079-.035-.077-.044-.074-.044-.073-.048-.068-.054-.07-.059-.062-.059-.058-.067-.06-.065-3.554-4.418-.034-.04-.04-.038-.039-.04-.042-.032-.043-.03-.04-.028-.09-.052-.097-.038-.098-.033-.1-.021-.106-.019-.106-.01-.108-.009h-.218l-.217.01-.21.013-4.588.199-.555 1.39 3.098.313.093.008.096.014.089.022.084.024.082.032.079.034.072.04.07.046.063.05.054.052.052.055.041.057.037.061.026.067.016.066.01.067h-4.744l-.07-.002-.076-.004-.076-.01-.073-.012-.076-.018-.07-.021-.071-.028-.064-.028-.06-.04-.056-.042-.049-.046-.045-.055-.034-.059-.023-.066-.018-.071-.004-.039-.002-.039-.025-4.618-.001-.092-.007-.08-.012-.082-.015-.071-.015-.07-.02-.064-.029-.055-.024-.056-.032-.05-.031-.044-.037-.039-.04-.039-.04-.03-.04-.03-.043-.028-.05-.02-.044-.02-.051-.02-.1-.02-.102-.018-.107-.01-.105-.001-.105.001-.2.016h-2.148l-.053.003-.057.007-.057.01-.056.017-.057.022-.058.026-.058.027-.059.037-.058.039-.062.041-.06.053-.06.05-.125.12-.123.135-.128.153-.126.172-.131.185-.128.202-.132.219-.132.235-.132.252-.135.268-.094.189-.101.175-.104.163-.107.153-.113.141-.11.129-.114.117-.113.105-.11.094-.11.081-.112.07-.105.058-.103.045-.095.035-.098.022-.087.012h-2.685l-.06.003-.058.005-.057.01-.055.01-.052.019-.05.021-.048.023-.048.026-.042.029-.044.032-.041.037-.04.037-.035.036-.035.043-.063.09-.057.096-.047.104-.043.105-.033.107-.025.113-.02.112-.01.109-.004.111v4.678l-.015.01-.006.014-.006.015-.004.016v.03l.004.031.006.031v.033l-.014.029-.01.015-.015.015-.082.092-.079.085-.067.083-.06.076-.048.07-.036.065-.025.059-.013.05-.005.047v.046l.007.045.008.049.02.053.02.05.028.052.032.05.037.058.046.053.051.055.053.058.057.059.066.058.074.059.075.06.67.569.04.117.051.115.06.12.067.114.077.113.08.11.089.107.091.1.091.1.098.091.096.083.098.08.095.069.09.063.086.052.084.043-12.887 2.244-.013.865 30.468-4.755zm-14.33 1.083.104-.137.098-.127.083-.126.075-.118.066-.116.055-.114.05-.112.039-.11.036-.113.026-.111.023-.115.016-.116.01-.124.01-.124.005-.134v-.136l6.733-1.32.122.299.115.256.053.111.056.11.064.1.063.094.068.093.074.09.085.088.092.09.106.093.117.091.13.101.147.103-8.721 1.534zm14.045-5.648 2.554 3.263.018.032.01.033v.032l-.01.026-.015.027-.026.027-.029.025-.037.021-.043.02-.043.018-.05.014-.05.01-.107.02-.053.005-.054.002H39.38l-1.286.219.095-.128.09-.12.081-.12.07-.12.067-.118.058-.112.053-.11.045-.11.04-.103.032-.105.029-.102.021-.1.019-.1.011-.096.009-.094.002-.09.003-.09-.005-.088-.008-.087-.008-.087-.03-.163-.039-.16-.046-.152-.051-.148-.053-.143-.057-.137 2.04-.81zm29.586 5.968-.124-.115-.117-.123-.114-.131-.102-.136-.098-.147-.087-.147-.082-.151-.072-.16h-7.046l-.057.006-.048.012-.045.02-.033.027-.029.03-.016.036-.012.035-.005.042.005.04.012.04.016.038.03.035.032.032.045.027.048.023.057.014 7.088 1.258.112.017.097.006h.089l.081-.013.075-.018.064-.027.055-.034.048-.041.04-.047.034-.05.028-.057.02-.064.011-.065.005-.069v-.072l-.005-.071zm-27.856-1.4h7.259l.083.61h-7.412l.07-.61zm7.614 2.4h-7.883l.07-.61h7.728l.085.61zm-8.055 1.473h8.28l.117.757h-8.482l.085-.757zm-.284 2.485h8.936l.114.795h-9.133l.083-.795zm-.326 2.883h9.687l.141 1.009H41.13l.113-1.01zm-.37 3.266h10.54l.2 1.336H40.72l.154-1.336zm-.47 4.134h11.622l.313 2.1H40.163l.24-2.1z" style="fill:#000;fill-opacity:1;fill-rule:evenodd;stroke:none"/>
</svg>
