<svg xmlns="http://www.w3.org/2000/svg" xml:space="preserve" width="2942.863" height="2942.854" viewBox="0 -0.764 2942.864 2942.854">
    <path fill="#fcd116" d="M1566.882 2902.555c-52.712 52.713-138.2 52.713-190.912 0L39.54 1566.118c-52.72-52.713-52.72-138.2 0-190.913L1375.97 38.778c52.712-52.723 138.2-52.723 190.912 0L2903.32 1375.205c52.725 52.713 52.725 138.2 0 190.913L1566.882 2902.555z"/>
    <path d="M2839.69 1502.488 1503.254 2838.927c-17.537 17.538-46.087 17.538-63.637 0L103.18 1502.488c-17.545-17.55-17.545-46.087 0-63.637L1439.616 102.415c17.55-17.544 46.1-17.544 63.637 0l1336.438 1336.436c17.537 17.55 17.537 46.087 0 63.638zm39.776-103.412L1543.028 62.641c-39.475-39.477-103.712-39.477-143.187 0L63.404 1399.076c-39.476 39.475-39.476 103.713.002 143.188L1399.84 2878.7c39.475 39.475 103.712 39.475 143.187 0l1336.438-1336.438c39.475-39.474 39.475-103.712 0-143.187z"/>
    <path fill-rule="evenodd" d="M2217.772 1594.548c-1.337-7.8-2.725-15.575-4.15-23.325-1.15-6.35-4.037-14.3-3.712-20.763 1.062-17.875 2.087-35.787 3.125-53.65 1.612-28.237 3.162-56.387 8.862-84.087 3.038-14.738 7.788-29.925 8.588-45.013.787-15.712 3.125-31.862.862-47.462-1.337-9.975-2.8-19.888-4.225-29.863-.837-5.812-3.65-11.475-5.55-16.975-5.612-16.187-11.512-30.925-19.112-46.22-2.725-5.54-5.063-10.88-8.938-15.67-6.487-7.953-13.025-15.947-19.512-23.88-8.9-10.922-22.313-19.687-33.163-28.65-22.512-18.578-50.212-29.302-77.837-38.107-12.538-4.016-25.125-8.033-37.663-12.049-7.725-2.435-15.6-3.047-23.712-4.056h2.262c-29.875-4.571-59.835-7.658-90.097-5.343-32.525 2.494-64.5 8.568-96.638 13.79-18.562 3.008-36.837 10.073-54.85 15.177-21.2 6.015-42.337 12.05-63.5 18.063h3.35c-17.6 1.248-34.937.534-52.625 0-3.125-.118-7.2-2.69-10.087-3.778-4.588-1.722-9.188-3.443-13.738-5.204-7.4-2.83-11.587-13.019-19.187-15.789 2.812 11.318 6.962 21.804 13.5 31.519-7.013-1.405-13.775-4.254-19.163-8.983-6.25-5.46-8.825-10.802-12.337-18.045-4.913 6.47-8.75 13.337-16.15 17.075-7.4 3.7-14.2 3.66-22.163 2.078 4.838-3.244 8.35-5.381 10.1-11.278 1.775-5.975 1.225-10.566-2.225-15.75.475 8.647-5.537 18.718-14.087 21.568-1.188.415-4.625 2.056-5.3.295-1.113-3.105-2.213-6.191-3.363-9.279-1.587-4.431 2.488-8.646 4.75-12.584-7.475 4.67-12.937 9.518-19.187 15.75-2.025 2.058-5.625 7.558-8.438 7.993-4.75.712-9.412 1.445-14.05 2.177 0-2.097-.987-5.263 1.113-6.115 2.575-1.008 4.2-1.286 5.7-3.54 3.2-4.808 5.7-9.755 8.275-14.938 4.187-8.27 12.85-15.414 18.712-22.714-5.625 1.109-12.55 1.365-17.65 3.72-7.8 3.541-15.512 7.042-23.312 10.565-4.825 2.216-12.025 1.484-17.25 1.484-8.275 0-12.938-.514-20.65-3.364l1.1-1.128v1.128c1.225-4.016 2.262-7.795 4.037-11.575 1.863-4.055 6.1-9.794 6.175-14.325-5.062 5.006-8.662 9.557-15.237 12.09-8.025 3.086-16.138 6.172-24.175 9.26 1.9-7.143 5.225-14.088 3.362-21.35-1.7 4.452-2.1 8.231-6.175 10.646-5.3 3.086-9.1 6.213-15.187 6.213 2.175-7.58 3.75-14.583 7.875-21.37-4.038 2.89-8.913 5.54-12.388 9.003-3.925 3.82-6.887 9.16-10.175 13.494 0-2.532-.912-6.985.163-9.24 1.662-3.7 3.437-7.38 5.1-11.08 3.325-7.064 9.5-15.631 9.425-23.565-10.925 12.445-23.713 33.755-41.675 33.755 6.812-6.055 11.237-10.842 16.15-18.5 3.675-5.777 7.675-14.027 7.437-20.892-7.2 7.24-14.212 14.62-21.137 22.1-5.925 6.41-14.125 10.763-21.563 15.057 2.063-2.099 6.25-4.789 6.963-7.717.637-2.732.8-9.715 4.275-10.328-4.113 1.285-3.125-9.596-3.4-12.367-2.888 5.797-5.025 11.852-9.7 16.422-4.663 4.67-9.338 9.32-13.963 13.99.313-2.731-.237-8.766 1.663-10.685 2.812-2.81 4.987-6.43 7.4-9.596l-14.688 7.875c4.313-10.408 7.963-20.4 10.175-31.499-2.65 2.571-5.225 5.144-7.8 7.716-2.05 2.098-2.962 5.58-4.625 8.033-4.35 6.391-9.187 10.111-16.862 10.111 4.637-4.65 7.762-8.982 11.237-14.602v2.235c1.988-5.382 3.6-10.11 4.475-15.768-3.437 1.958-8.187 3.561-10.925 6.549-3.837 4.215-7.437 8.665-11.55 12.604-.475-4.018 1.538-9.834 1.938-13.97.475-4.352.312-8.685.312-13.06-1.062 2.89-3.675 5.106-5.062 7.877-1.863 3.6-4 6.826-6.175 10.189-4.038 5.955-9.575 10.645-14.638 15.71 5.15-11.615 10.138-29.323-1.187-39.394-2.175 3.126-1.7 8.113-2.013 11.754-.4 3.779-3.212 7.241-5.075 10.525-3.437 6.154-9.762 13.177-16.537 14.859 0-5.382 2.175-11.89 1.15-17.015-.838-3.82-.988-17.115-5.619-17.887-1.781 7.202-3.482 13.792-6.451 20.578-1.108 2.77-5.381 2.077-6.094-.771-.87-3.74-.949-6.947-.949-10.804-5.382 5.381-5.658 12.861-5.658 20.28-6.015-5.303-8.824-16.54-12.347-23.644-1.94 7.538-4.036 14.939-5.618 22.516v-1.128c-1.07 1.523-3.958 9.973-4.987 10.25-2.335.593-4.273 1.84-5.46-.693-.872-1.8-2.02-2.77-2.493-4.729-1.188-4.53-1.702-10.842-3.998-14.937-2.017-3.701-6.212-6.985-9.022-10.171l4.51 23.665c-4.273-1.445-6.528-1.208-7.873-5.62-1.109-3.7-2.097-7.44-3.205-11.18-2.256-7.933-4.67-15.055-8.034-22.594.08 6.866-2.73 13.731-2.176 20.517.713 8.548 1.464 17.115 2.176 25.623-6.766-6.746-9.97-15.434-11.237-24.771-2.098 3.166-1.385 19.15-6.214 19.15-7.517 0-9.536-6.943-10.011-13.532-1.226-16.145-2.968-32.21-2.968-48.395-1.068 4.293-2.097 8.587-3.245 12.84-1.028 4.473-3.52 5.917-3.52 10.804l-3.365-1.109h1.108c-.871-2.65-3.205-3.58-3.521-6.35-.397-3.503-1.108-7.023-.95-10.566-3.72 6.035-3.404 15.176-3.404 22.001 0 2.73-1.186 8.074-2.215 10.645-.278.733-1.148-.87-1.148.613 0 .99.317 1.485-.555 1.96-2.57 1.246-3.6-.634-5.855-2.296-2.493-1.88-5.697-3.483-6.372-6.608-.949-4.274-1.82-8.37-2.294-12.662-.832-7.302-.356-15.294 3.838-21.528-8.983-1.76-11.08 14.978-15.75 19.153-3.918-5.204-4.985-7.104-3.363-13.534-5.144 1.741-6.846 5.799-9.062 10.487-1.702 3.542-3.403 7.063-5.064 10.645-.475 1.088-1.703 5.302-2.81 5.895-2.415 1.325-4.828-.475-3.641-2.77 1.226-2.472 1.94-4.767 2.73-7.418 1.623-5.7 4.67-10.645 7.637-15.71-8.902 3.58-15.354 10.802-22.635 17.075-7.874 6.746-15.986 13.216-24.572 18.953-2.335-2.413.948-4.49 2.255-6.747 1.662-3.046 2.453-6.469 3.6-9.754 2.02-5.954 2.968-12.01 6.49-17.272-6.727 6.747-13.493 13.493-20.22 20.24-2.89 2.888-6.292 1.8-2.652-1.84 2.652-2.652 4.235-8.21 6.015-11.614-2.255 3.285-4.59 5.54-7.952 7.875-2.258 1.562-9.141 5.975-6.094-.04 1.938-3.938 2.888-8.071 4.905-12.01.634-1.404.316-4.174 1.583-5.105 1.78-1.365 3.72-2.611 5.303-4.253-7.123 2.414-9.933 5.422-15.315 10.843-4.115 4.095-7.557 8.784-11.752 12.801 0-8.587 1.147-15.572 3.799-23.762 2.493-7.362 7.44-13.297 10.842-20.123-10.684 7.143-20.576 14.859-27.304 25.9-1.543 2.374-2.81 5.301-4.748 7.32-2.414 2.394-6.094 2.118-3.64-1.661 1.383-2.079 1.146-5.423 2.176-7.994 1.226-3.047 2.73-5.976 4.274-8.944-6.688 3.324-11.318 9.082-16.542 14.287-1.463 1.443-3.877 6.666-6.528 5.796-2.494-.811-2.89-.415-2.573-2.908.238-2.276.316-4.768.91-7.063 1.584-6.867 5.54-12.763 7.875-19.312a753.267 753.267 0 0 0 4.393-12.008c.832-2.297 5.302-6.015 6.846-8.073-3.483 2.414-9.261 4.905-11.595 8.309-3.285 4.709-7.203 9.32-9.854 14.345-2.81 5.262-5.619 10.565-8.429 15.829-1.226 2.156-2.255 4.41-3.402 6.607-1.108 2.295-4.235.574-6.171-.079 4.192-6.132 5.617-12.642 5.617-19.944 0-7.122 4.511-14.622 7.954-20.557-6.49 4.847-11.951 10.782-17.649 16.541-1.464 1.404-1.702 4.848-2.255 6.708-1.702 5.5-3.285 11.04-4.907 16.54-.475 1.405-1.108 6.866-2.493 7.637-3.285 1.84-6.411 5.698-9.22 2.553-5.224-5.818-8.785-11.477-13.02-17.907-9.14-13.73-20.101-25.087-31.657-36.702-10.842-10.843-21.05-22.318-31.537-33.498-5.303-5.697-11.516-9.753-17.926-14.283-5.224-3.78-10.13-8.765-16.699-9.874-8.03-1.325-14.127.831-19.943 6.647-5.54 5.522-6.65 11.18-6.015 18.797 1.306 14.463 1.068 31.816 10.13 44.142 2.888 3.938 5.777 7.835 8.666 11.773 1.78 2.353 3.601 6.212 5.935 8.032 6.055 4.61 12.229 9.023 17.767 14.088 5.858 5.223 10.764 9.398 14.603 16.223 2.255 4.095 2.414 4.65 1.701 9.28-.634 3.522-1.781 7.34-1.464 11.002-4.076-6.114-7.44-13.1-12.663-18.283-4.512-4.53-11.238-7.776-16.54-11.356-5.738-3.78-12.783-5.62-19.193-8.231-6.371-2.533-13.691-5.62-19.152-9.675-3.284-2.494-5.62-4.254-9.695-5.263-1.86-.475-7.242-3.582-8.587-4.869-2.335-2.393-5.698-3.442-7.875-5.657-2.492-2.454-4.906-4.888-7.4-7.34-4.906-4.948-10.05-10.409-17.57-10.409-3.48 0-7.24-.197-9.97 2.494-2.097 2.116-7.085 5.975-7.638 9.081-2.81 14.008.553 31.024 5.303 44.399 2.967 8.31 6.41 15.472 10.605 23.269 2.968 5.36 6.094 12.523 10.447 16.856 5.618 5.619 11.238 11.279 17.095 16.66 6.41 5.876 12.78 10.011 20.26 14.542 12.505 7.717 21.09 20.32 28.41 32.607 1.228 1.978 2.653 7.993 4.752 7.835-7.56 2.532-14.881-1.405-20.261-6.747 3.165 7.498 6.29 15.017 9.416 22.575 2.414 5.857 6.57 9.794 10.845 14.562l-2.257-2.235c1.385 5.085-10.764 2.81-13.494 2.235 7.954 7.083 16.62 13.02 21.527 22.773.395.89 3.6 6.312 2.968 6.668-2.098 1.405-4.354 3.541-6.728 4.412-5.143 1.94-10.288 3.82-15.51 5.58 2.492 4.134 4.984 8.33 7.477 12.504 3.126 5.224 2.058 5.54-.752 11.12v-1.129c-2.572 3.623-5.38 6.59-6.33 10.923-1.466 6.627-1.188 7.795 1.86 13.844 2.135-3.475 4.233-7.058 6.647-10.422 3.442-4.907 4.67-6.47 10.21-8.726 2.096 7.401 5.697 15.295 6.805 22.81 1.227 8.813 1.068 16.788-.08 25.625 4.117-2.012 4.987-2.925 7.32-6.75.715-1.162 2.653-3.125 2.81-4.487.16-.738-1.423-2.888-1.107-4.55 2.652 7.837 1.108 17.512 1.108 25.7v26.712c0 18.95-1.108 37.788-1.108 56.825l1.108-1.125c0 12.563 1.147 25.1 1.147 37.663 0 6.137 1.03 12.762 2.297 18.762 1.226 5.85 1.542 12.875 4.827 17.9 4.194 6.2 7.241 12.05 10.368 18.8 2.572 5.5 6.49 10.85 12.938 12.688 5.937 1.737 14.682 0 20.974 0 5.461 0 11.318-3.013 14.998-6.75 1.7 2.45 3.047 6.075 5.856 7.362 2.889 1.325 7.954 5 11.159 5 7.478 0 15.116 1.088 22.12-1.6 8.27-3.162 14.047-5.625 18.282-14.125 3.799-7.4 0-14.075 0-21.687 0-15.35 4.669-30.25 15.908-41.488 11.08-11.087 21.605-21.762 31.183-34.25 5.697-7.6 10.92-14.625 17.884-21.012 8.271-7.463 16.621-13.925 22.516-23.363 2.217-3.587 5.025-6.95 8.034-9.962 4.629-4.663 6.568-1.038 6.964 4.262.712 9.675 2.177 18.75 4.511 28.15 1.583-4.95 3.048-10.562 5.303-15.187 1.266-2.4 3.283-4.3 4.55-6.75 1.148-2.363 1.07-5.05 2.493-7.338-.475 3.2 1.86 5.925 2.493 9 .634 3.325 1.306 7.688 3.364 10.463 2.65 3.462 4.432 6.75 6.45 10.65 1.108 2.287.079 7.912.079 10.4 2.018-4.013 6.252-7.175 7.875-11.238 1.662-4.137 1.187-10.125 2.335-14.625 4.986 8.4 6.727 16.15 6.727 25.863 0 10.037-3.919 17.437-9.062 25.9 2.81.512 5.857-1.525 7.953-3.125 2.732-2.013 6.41-3.3 8.745-5.613 5.067-5.025 7.797-10.887 10.922-17.2 2.493-4.912 2.968-3.087 5.936.85 2.176 2.85 2.889 5.25 3.799 8.663 1.74 7.262.633 14.662-3.562 20.912 10.922.938 14.643-10.337 14.643-19.112 2.412 3.187 1.265 8.237 2.412 11.775 1.188 3.55-.158 7.837-.158 11.85 6.807-6.738 10.09-13.9 10.09-23.625 4.433 5.8 8.35 13.812 6.847 21.412-1.781 8.513-8.191 13.175-14.72 17.988 15.511-.363 25.404-13.5 31.578-25.9 1.7 1.287 1.7 3.575 2.096 5.537 1.03 4.825 2.177 9.638 3.206 14.463 1.623 7.225 3.205 14.462 4.828 21.65 2.255-6.675 4.63-15.263 11.237-18.563 8.034-4.012 9.893 12.663 11.081 16.913 4.274 14.787 6.173 30.037 10.525 44.9 1.03 3.575 2.098 7.137 3.125 10.725.793 2.762 6.492 6.5 8.59 8.587 5.222 5.225 11.553 9.638 17.292 14.338 12.272 10.075 23.347 20.725 34.585 31.962 5.462 5.5 9.812 12 14.25 18.313 3.6 5.187 3.037 14.9 3.037 21.075 0 14.262-2.087 29.362-8.587 42.262-13.763 27.538-38.182 46.738-56.304 71.313-4.035 5.45-11.16 12.05-13.178 18.587-2.73 8.963-5.54 17.913-8.27 26.913-4.195 13.45-3.047 28.275-5.857 42.012-3.046 15.213-9.18 29.2-15.67 43.25-6.173 13.45-13.969 27.025-18.243 41.188-1.186 4.062-2.176 7.4-4.312 10.962-1.86 3.15-1.306 6-1.306 9.65 0 7.55.237 14.288 1.463 21.775 2.414 14.475-2.57 28.988-14.087 38.5-11 9.2-22.318 18.75-27.936 32.525-5.62 13.813-5.62 28.113-5.62 42.775 6.49-2.175 12.86-2.375 19.587-1.25 7.321 1.25 14.128 1.25 21.606 1.25 14.128 0 27.543-2.687 35.18-15.475 1.307-2.187 3.56-5.412 3.56-8.075 0-3.512-.435-6.087 1.345-9.1 4.274-7.112 8.59-12.537 14.128-18.675 2.256-2.575 2.651-2.05 3.482-6.112.554-2.85-1.622-6.463-2.492-9.125-2.098-6.325-4.195-12.675-6.373-19.025l1.15 2.25c4.708-7.063 9.853-10.638 16.777-15.65 1.345-1.013 1.425-8.45 1.702-10.088.633-3.7 1.82-7.8 1.82-11.512 0-7.2-1.504-15.988.158-23.013 1.86-8.037 3.8-15.712 6.37-23.5 9.696-29.15 28.095-54.1 41.745-81.487 7.4-14.775 18.487-27.1 28.775-39.95 2.287-2.938 10.912-15.825 14.912-9.775 3.363 5.075 2.1 16.925 2.575 22.975 1.15 14.937.55 29.675 3.05 44.612.988 5.888.313 12.1.313 17.975v33.788c0 5.875.675 11.9-.638 17.65-1.775 7.812-3.837 15.537-5.925 23.287-1.712 6.338-2.65 13.5-5.55 19.438-4.5 9.15-8.9 18.312-13.325 27.45-1.312 2.575-2.5 5.15-3.762 7.762-1.313 2.65-4.038 4.3-5.063 7.138-2.887 7.8-4.837 16.6-9.9 23.275a302.157 302.157 0 0 0-6.325 8.862c-1.937 2.738-6.062 4.95-8.512 7.438-2.338 2.362-5.463 4.65-7.4 7.387-2.338 3.275-3.875 7.75-5.698 11.35-2.176 4.513-4.352 8.763-5.936 13.538-.751 2.212-1.146 4.425-1.543 6.75-.553 3.462 2.257 2.687 5.462 3.412 9.377 2.088 18.952 4.338 28.69 4.338 20.375 0 40.125-2.038 59-10.113v1.113c1.537-7.7 4.187-14.45 1.7-21.963-2.413-7.187-2.413-14.7-4.513-22.162-1.025-3.575 1.788-6.788 3.4-10.013 1.588-3.287 2.738-6.525 3.925-10.025 2.25-6.95 5.613-12.137 10.688-17.55 11.237-12.05 22.55-23.575 34.625-34.712 4.462-4.138 14.362-5.938 14.362-12.838 0-8.55-.875-14.262-4.75-21.925-3.05-6.275-3.45-12.4-4.075-19.262-.837-8.45-2.1-16.963-2.5-25.438-.712-16.575-.387-33.287-.95-49.875-.987-31.162 3.05-62.012 5.863-92.975 1.262-13.65 5.137-27.1 8.825-40.262 2.487-8.925 4.987-17.8 7.475-26.663 1.662-5.9 4.55-14.112 8.825-18.45 1.35-1.325 6.575-1.2 8.587-1.512 4.113-.675 8.188-1.325 12.313-1.888 6.875-1 14.275-.275 21.287-.275h15.713c1.7 0 .512.95 2.087 1.363 7.725 1.925 15.438 3.875 23.15 5.7 60.15 14.125 123.263 14.9 183.925 4.175 30.588-5.388 60.863-12.9 89.875-23.825 13.013-4.85 26.9-11.075 39.088-17.588 14.287-7.612 28.775-14.937 42.425-23.675 5.225-3.387 10.525-6.787 15.75-10.175 1.975-1.25 4.95-2.35 6.65-3.525 2.962-2.1 4.512-4.55 7.875-6.187 11.625-5.863 23.775-2.775 32.687 6.187v-1.162c9.725 12.525 19.425 25.05 29.235 37.587 3.838 5.013 9.063 8.663 11.875 14.363a6269.915 6269.915 0 0 1 13.725 27.525c3.25 6.325 8.113 11.837 12.313 17.525 3.512 4.837 8.662 8.262 12.187 13.025 9.963 13.375 20.1 26.437 28.613 40.675 2.487 4.175 4.587 8.725 6.8 13.025 2.412 4.762 6.45 10.112 7.95 15.287 2.575 8.888 1.55 21.288.837 30.4-.912 11.963-2.5 21.6-9.9 31.538-6.487 8.737-14.912 15.762-21.362 24.762l3.362-2.25-3.362 3.375v-1.125c-4.313 3.863-8.425 8-13.413 10.963-5.15 3.087-9.062 5.825-13.5 9.8-9.775 8.925-19.112 18.55-30.512 25.375l1.112-1.125c-21.685 15.475-33.072 38.8-39.335 64.187l1.113-1.125-6.725 23.638h2.25c-2.888 2.85-4.663 5.387-8.625 6.362-3.913 1-7.363 4.725-10.488 7.138-5.375 3.975-8.3 8.8-10.362 15.137-.6 1.825-16.063 45.975-13.263 46.825 15.088 4.413 29.488 9.288 44.8 4.138 8.113-2.688 15.825-5.813 23.7-9.038 4.2-1.725 14.285-3.837 15.348-7.387 1.35-4.738 2.737-9.475 4-14.175.637-2.163 2.812-6.263 2.1-8.588-1.188-3.937-2.338-7.875-3.525-11.812-.9-2.85-3.563-7.825-3.125-10.85.237-2-.15-8.738 2.062-8.738h15.588c3.05 0 3.362.513 4.912-2.025a772.659 772.659 0 0 1 7.788-13.15c7.637-12.9 14.45-26.2 22.637-38.762 4.038-6.1 7.563-13 12.463-18.475 5.937-6.613 11.8-13.25 17.725-19.838 4.2-4.7 7.087-11.725 10.375-17.112 5.462-9.025 10.925-18.063 16.375-27.063.875-1.45 1.625-3.325 2.812-4.537 4.125-4.138 5.388-4.413 11.163-5.263 6.687-.962 6.925 16.588 7.4 19.85.95 7.338 1.462 14.125 1.462 21.563 0 6.412.95 13.612-.35 19.862-2.062 9.563-4.087 19.075-6.175 28.638-1.187 5.875-1.662 12.737-4.162 18.237-3.038 6.75-8.025 14.288-9.65 21.525-1.863 8.4-3.6 16.825-5.463 25.213-1.537 7.05-5.15 13.612-6.812 20.612-.825 3.213-1.7 6.863-2.25 10.113-.825 4.3 1.5 6.075-2.65 8-6.85 3.162-12.938 5.212-18 10.637a7094.708 7094.708 0 0 1-21.375 23.125c-1.425 1.613-2.963 2.575-3.2 4.738-.163 2.012-2.1 10.525-.163 11.25 8.038 3.012 15.825 4.5 24.338 6.1 15.112 2.812 30.825-.75 45.55-3.863 2.087-.387 5.925-.387 7.55-1.912 2.062-2.175 7.675-5.863 8.512-8.813 2.338-7.887 3.363-15.25 3.363-23.475 0-8.037 2.25-14.587 6.325-21.212 3.562-5.588 7.875-12.725 12.862-16.975 6.85-5.963 13.738-11.9 20.663-17.838 5.612-4.937 12.187-8.112 18.8-11.8 3.2-1.812 4.225-3.212 6.4-6.362 2.425-3.275 2.425-5.413 3.212-9.35.55-2.738 2.175-6.213.788-8.788-2.45-4.487-4.95-9.037-7.438-13.575-6.762-12.25-11.675-26.675-12.462-40.675-.788-15.637-.088-31.325-2.025-46.875-.863-7.062-2.413-14.087-1.663-21.225.875-9.625 1.825-19.212 2.813-28.85 1.5-14.662 3.687-29.225 6.1-43.762.787-4.95 1.537-9.875 2.325-14.825.712-4.1.637-4.05-2.175-7.375-4.75-5.763-10.288-10.813-15.275-16.413-21.088-23.4-27.3-56.05-18.125-85.962 2.5-7.913 6.1-14.088 10.3-21.325.237-.4-1.15-.95-.913-1.8.388-1.288.788-2.575 1.15-3.863 1.575-5.15 3.2-10.325 4.7-15.487 4.438-14.588 7.8-29.013 11-43.95 6.538-30.225 14.888-59.588 23.475-89.35 6.763-23.6 13.563-47.225 20.338-70.838-2.413 35.188-4.913 70.325-7.325 105.5-.713 10.613-1.7 21.15-1.7 31.763 0 14.737.4 29.275-1.263 43.9-1.7 15.1-3.362 30.187-5.15 45.287-1.15 9.913-1.025 17.475.075 27.5 1.2 10.725 6.025 20.663 9.738 30.775 1.9 5.3 2.537 10.875 3.45 16.5 1.025 6.15 2.562 7.988 6.637 12.863l-1.1-11.263 7.875 22.538 6.725-14.663 10.125 23.663 6.738-7.875c2.562 6.937 5.137 13.687 8.187 20.4 2.725 5.937 9.888 10.287 16.663 9.987l-28.225-97.937"/>
</svg>
