<svg xmlns="http://www.w3.org/2000/svg" width="2942.863" height="2942.854" viewBox="0 -0.764 2942.864 2942.854" xml:space="preserve">
    <path style="fill:#fcd116;fill-rule:nonzero;stroke:none" d="M1566.882 2902.555c-52.712 52.713-138.2 52.713-190.912 0L39.54 1566.118c-52.72-52.713-52.72-138.2 0-190.913L1375.97 38.778c52.712-52.723 138.2-52.723 190.912 0L2903.32 1375.205c52.725 52.713 52.725 138.2 0 190.913L1566.882 2902.555z"/>
    <path style="fill:#000;fill-rule:nonzero;stroke:none" d="M2839.69 1502.488 1503.254 2838.927c-17.537 17.538-46.087 17.538-63.637 0L103.18 1502.488c-17.545-17.55-17.545-46.087 0-63.637L1439.616 102.415c17.55-17.544 46.1-17.544 63.637 0l1336.438 1336.436c17.537 17.55 17.537 46.087 0 63.638zm39.776-103.412L1543.028 62.641c-39.475-39.477-103.712-39.477-143.187 0L63.404 1399.076c-39.476 39.475-39.476 103.713.002 143.188L1399.84 2878.7c39.475 39.475 103.712 39.475 143.187 0l1336.438-1336.438c39.475-39.474 39.475-103.712 0-143.187z"/>
    <path style="fill:#000;fill-rule:evenodd;stroke:none" d="M1124.655 1135.768c3.214 11.169 19.636 11.012 28.532 9.327 15.284-2.9 30.413-4.272 45.775-6.113 13.835-1.648 25.28-8.505 37.9-13.835 12.62-5.292 23.588-10.66 32.525-21.36 8.313-9.954 16.813-21.83 28.45-28.18 12.738-6.935 25.325-11.56 36.45-21.202 10.9-9.445 21.95-19.595 32.025-29.863 9.8-9.915 14.463-21.32 20.3-33.665 5.838-12.384 13.4-21.83 13.8-35.94.113-3.723-1.225-29.707-5.8-29.628-3.337.039-7.525 29.354-8.662 33.43-3.888 13.6-8.938 26.415-15.8 38.8-6.813 12.228-16.7 23.319-25.163 34.449-6.187 8.191-18.575 19.871-29.387 21.086-14.938 1.684 16.812-60.316 9.987-62.041-5.287-1.331-17.325 22.927-19.275 26.965-6.112 12.697-10.112 26.18-15.875 39.034-5.487 12.307-14.537 24.455-25.162 32.763-9.838 7.722-24.141 6.86-24.886-7.68-.354-6.938 1.606-13.365.508-20.34-1.176-7.056-3.448-13.953-5.838-20.655-2.47-6.858-5.997-17.755-6.742-4.076-1.527 26.571 1.137 56.123-18.145 77.913-14.54 16.46-20.77 5.682-22.887-11.092-.706-5.173-8.82-33.978-12.543-19.438-4.31 17.01 7.055 28.845-9.758 41.543-7.21 5.525-12.817 6.897-21.79 6.23-4.625-.312-17.127-3.212-18.54 3.568zm-142.616-11.64c3.252-11.013-9.525-16.148-18.107-15.795-13.875.666-26.807-.509-40.603-2.076-12.307-1.412-22.692-5.213-28.727-16.774-3.645-7.016-8.035-32.686-19.282-32.921-7.25-.158 1.019 21.202 2.664 25.866 3.45 9.601 13.403 25.2 6.977 35.271-6.662 10.426-23.985 7.996-33.509 3.999-5.643-2.39-10.385-5.605-14.5-10.073-3.097-3.41-5.37-12.228-9.603-14.07-9.954-4.35-5.292 10.897-3.213 15.325 4.78 10.033 9.015 24.142-6.232 27.552-12.384 2.82-24.064-7.604-34.293-12.66-5.212-2.547-26.885-5.173-18.694 6.545 8.192 11.718 19.203 15.833 32.49 19.243 14.304 3.607 23.514 8.192 38.093 2.313 14.306-5.761 28.336-11.759 42.876-16.735 13.874-4.743 28.454-5.135 42.603-8.23 10.776-2.351 21.436-6.545 32.527-6.938 7.211-.273 23.241 5.802 28.533.158zm311.723-26.533c29.788-1.882 58.713-6.075 88.613-4.116 28.775 1.881 55.337 12.464 80.937 25.005 28.1 13.796 55.613 28.766 84.1 41.818 27.75 12.697 57.15 19.086 86.413 27.356 27.712 7.797 52.4 11.679 81.175 7.797 29.587-3.957 60.787-6.348 89.587-14.147 28.413-7.76 52.988-18.694 83.25-16.069 28.838 2.47 55.998 7.683 80.173 24.495 47.387 32.921 89.2 84.689 110.4 138.151 10.125 25.475 21.912 55.5 11.8 81.95-10.65 27.825-2.7 58.438 3.062 86.338 5.8 28.175 11.2 56.787 13.6 85.437 2.238 27.4-3.525 61.563 9.325 86.613 12.313 23.987 38.8 42.087 42.638 70.5 1.962 14.737-2.15 29.325-1.05 44.062 1.012 13.713 4.812 26.925 7.2 40.438 5.412 30.538 10.425 61.413 18.737 91.325 4.038 14.575 9.1 28.413 15.763 42.013 5.562 11.437 14.412 24.175 12.462 37.462-1.725 11.363-13.1 18.463-15.012 30.613-2.075 13.442.587 26.342 3.287 39.392 5.25 25.513-24.1 47.738-47.887 44.438-8.625-1.25-29.088 2-35.113-4.975-7.337-8.588-.675-27.513 1.4-37.075 5.763-26.575 26.538-46.993 29.013-74.555 2.575-28.6-12.663-56.625-20.663-83.513-8.812-29.75-17.087-59.65-26.137-89.312-4.238-13.988-8.7-26.3-17.325-38.288-8.575-11.875-17.163-22.575-22.138-36.575-4.825-13.638-4.237-29.075-9.962-42.4-5.913-13.638-14.15-23.55-24.613-33.9-20.487-20.188-36.487-43.188-51.062-68-5.363-9.138-31.738-67.963-47.373-46.6-5.725 7.875-3.225 27.987-3.225 37.15 0 14.55.238 29.237 2.275 43.787 4.35 30.25 9.6 57.65 27.198 83.125 7.287 10.613 19.787 21.35 20.15 34.913.312 12.312-7.175 24.775-11.325 36.063-10.863 29.55-18.225 59.25-23.398 90.287-2.35 14.313-4.237 28.738-6.312 43.075-2.075 14.425-5.913 29.087-5.95 43.7-.087 15.912.9 28.65-8.275 42.325-7.525 11.137-21.4 17.762-21.713 32.417-.275 15.4 1.8 25.126-7.287 38.876-5.688 8.512-21.713 17.724-31.625 20.024-10.15 2.326-29.913 6.938-37.038-2.112-2.55-3.212-2.237-9.325-7.287-9.25-3.725.075-5.3 5.175-10.113 4.162-11.25-2.275-7.337-15.675-2.087-21.437 10.387-11.325 20.937-22.075 30.537-34.1 15.788-19.843 37.738-44.093 40.25-70.318 3.013-31.35 4.5-62.9 6.463-94.375 1.687-27.587 3.725-56.475-3.138-83.55-7.162-28.375-19.987-55.112-35.275-80-14.412-23.35-34.437-45.962-42.475-72.462-1.962-6.625-3.562-13.325-5.012-20.063-.438-1.962-.2-8.387-1.538-9.45-1.6-1.175-11.362 1.575-13.362 1.85-14.063 1.913-28.175 3.913-42.4 4.813-31.825 2.125-61.963-.588-93.6-3.8-29.463-2.938-56.9 3.45-84.688 12.462-13.675 4.475-28.337 10.388-42.875 11.063-14.5.662-28.887-1.538-43.312-.713-11.988.663-21.275 7.6-22.138 19.825-.975 14.55.713 26.813-5.012 40.763-11.213 27.162-24.15 48.287-19.125 78.812 4.662 28.063 17.05 55.463 25.787 82.388 9.675 29.7 17.788 59.762 26.488 89.662 4.312 14.825 8.462 29.675 13.712 44.138 3.375 9.325 14.975 21.675 14.275 31.35-.4 5.487-4.825 11.487-6.7 16.542-2.587 6.863-2.75 14.738-2.55 21.95.313 9.875 7.05 32.8.313 40.8-6.788 8.15-24.138 10.225-34.1 10.025-15.2-.15-18.413 2.4-24.925 16.776-12.738 28.15-36.45 28.65-63.838 29.95-8.825.387-22.65 6.774-26.337-4.15-4.975-14.9-7.963-2.788-18.075-5.65-18.413-5.1 19.175-55.376 26.575-60.388 10.9-7.375 28.337-9.575 35.975-20.738 6.975-10.187 6.4-25.587 6.712-37.43.863-31.162-2.362-61.375-7.025-92.062-8.85-58.875-17.275-118.988-31.462-176.8-7.1-28.838-15.325-57.25-19.675-86.65-2.2-14.888 7.487-27.275 6.35-40.988-1.025-12.737-8.35-27.912-17.8-36.65-8.975-8.312-19.088-16.375-25.75-26.962-2.775-4.475-8.85-27.088-16.775-24.775-8.063 2.437.6 25.162 3.1 29.512 6.825 12.113 18.425 20.625 26.812 31.55 5.913 7.763 20.263 21.2 19.75 31.475-.625 11.6-11.45 11.763-18.85 6.813-11.525-7.675-19.4-19.663-30.337-27.825-9.913-7.4-24.575-4.5-32.838-13.275-19.6-20.938.463-52.25-19.6-72.313-8.935-8.975-3.017 23.713-2.703 26.613.978 9.287 6.23 28.1-2.078 35.225-11.17 9.525-24.651-7.363-29.825-15.55-7.877-12.463-8.112-26.063-10.816-40.1-2.626-13.513-8.544-28.613-13.246-41.625-4.35-12.1-19.637-22.413-29.473-30.05-23.946-18.625-31.862-51.775-43.307-78.975-4.624-11.175-10.7-17.788 2.39-23.125 12.737-5.138 23.006-15.2 27.708-28.563 1.295-3.725 2.94-22.812-3.252-20.85-2.273.7-5.761 14.813-7.369 17.75-3.174 5.563-7.406 10.85-12.305 15.013-10.15 8.7-23.867 12.462-34.41 20.85-11.6 9.2-13.011 17.2-9.406 31.312 2.547 10.113 5.331 22.175-1.331 31.35-7.37 10.113-22.537 10.975-32.843 17.4-11.014 6.863-21.476 18.025-35.587 14.263-13.952-3.675-22.692-13.55-38.368-12.15-13.835 1.225-14.892 2.587-19.989-11.475-2.39-6.55-4.348-10.663-10.816-13.875-5.487-2.7-11.209-3.375-14.696-8.975-7.094-11.4 2.821-27.238 3.919-39.275 1.253-13.675-.98-27.55.39-41.225 1.412-13.713 6.663-27.238 13.13-39.425 6.976-13.213 14.54-21.163 14.815-36.8.313-13.643 6.427-26.536 9.798-39.586 3.802-14.58.902-29.59 2.86-44.404.785-6.036 13.052-26.494 10.308-30.451-4.271-6.154-30.609 4.936-36.486 5.877-6.782 1.098-13.64-.509-20.42-.587-7.917-.04-14.423 2.665-22.025 4.076-15.363 2.821-29.238 7.72-43.7 13.52-12.618 5.056-25.395 10.504-39.152 7.407-12.11-2.703-27.12-6.543-37.506-13.403-10.972-7.29-22.416-12.854-33.43-19.753-5.801-3.684-10.621-8.386-16.774-11.522-5.448-2.822-12.07-4.468-15.285-10.268-5.8-10.465 1.177-22.849 11.875-26.376 12.463-4.076 21.282 5.722 31.354 10.856 5.721 2.94 11.953 4.82 17.754 7.485 5.877 2.666 13.285 7.918 19.634 8.584 4.35.51 3.606 2.155 4.233-.588.784-3.41-7.407-15.207-9.602-18.028-16.695-21.4-34.606-43.11-49.343-66.155-9.052-14.15-11.05-27.943-13.95-44.248-1.136-6.035-1.412-12.345-2.862-18.302-1.294-5.252-4.821-9.72-6.075-14.854-1.411-6.035.079-11.718-2.155-17.831-2.548-6.82-6.703-12.738-8.23-19.95-1.451-6.74-3.018-25.355 7.681-25.59 3.88-.08 8.544 4.545 11.679 6.23 3.606 1.92 7.015.706 10.739 1.568 11.09 2.468 15.52 14.108 15.285 24.494-.118 4.86-3.292 10.7-1.255 15.443 1.922 4.506 7.956 7.367 11.012 11.207 5.88 7.408 17.324 23.711 14.306 4.194-2.038-13.365-4.35-25.513-10.543-37.741-3.332-6.584-7.21-13.208-9.837-20.105-1.488-3.96-5.173-13.834-5.096-17.637.119-6.388 10.348-19.047 17.01-17.362 8.348 2.116 14.894 25.594 18.185 32.646 2.234 4.744 12.228 18.695 15.638 6.938 3.017-10.425-2.195-29.824-5.292-40.093-3.643-12.071-26.727-58.435 5.645-52.83 26.454 4.546 19.438 44.521 41.11 55.104 7.84 3.801 1.294-15.56 1.49-19.165.314-5.761-1.37-23.555 5.722-26.101 10.856-3.92 16.93 5.84 16.97 15.362.04 4.508 2.43 24.18 9.877 12.541 4.741-7.368-5.645-19.87-3.489-29.237 3.332-14.619 8.82-7.368 17.165-2.038 7.958 5.095 13.21-2.625 20.89.197 9.915 3.605 9.093 19.4 13.992 26.885 4.43-5.487-1.333-21.32 7.76-24.143 9.915-3.056 14.617 17.323 16.42 23.006 4.195 13.17 8.7 24.573 6.467 38.564-2.076 13.011-4.429 26.298-6.74 39.271-2.351 13.13-11.994 22.927-15.716 35.547-3.801 12.893-5.056 25.826-5.879 39.15-.626 10.387-4.429 27.16.744 36.567 5.684 10.504 3.254 22.653 6.781 33.705 1.215 3.88 11.993 24.769 18.498 17.596 2.508-2.742-1.92-8.347-2.625-10.698-1.725-5.918-1.92-12.894-2.157-19.008-.547-13.914-2.507-27.317 1.218-40.877 1.214-4.193 3.409-8.31 3.525-12.62.156-5.84-4.154-10.817-1.568-16.89 3.802-8.897 20.694-9.015 28.453-5.92 13.09 5.213 17.48 17.4 25.357 27.866 8.074 10.739 12.385 21.869 17.48 34.214 2.195 5.408 2.743 11.248 5.173 16.54 1.529 3.37 8.387 14.03 12.227 14.93 4.43 1.06 5.488-2.43 9.014-4.78 3.255-2.155 6.624-1.685 10.113-2.234 10.973-1.645 18.302-7.643 29.98-7.799 5.997-.117 10.818.391 16.657 1.841 5.174 1.294 4.311-2.742 5.253-6.466 2.272-9.406 3.487-20.457 6.308-29.471 1.294-4.274 5.057-6.585 7.055-10.621 2.195-4.508 1.687-9.445 5.448-13.325 7.33-7.643 7.25-21.438 14.031-30.334 10.031-13.209 42.248-52.556 57.219-22.929 5.291 10.464-5.449 21.869-2.39 33.235 1.489 5.526 5.644 9.799 7.602 15.09 2.47 6.663 2.98 13.951 4 20.965 1.84 12.66 5.172 25.554-1.06 37.469-2.822 5.447-6.153 8.935-5.33 15.322.392 3.02 3.84 12.974 8.27 12.543 3.135-.314 7.21-9.603 8.662-12.033 3.917-6.7 2.31-13.598 2.663-20.967.588-13.52 2.04-25.826-.9-39.269-1.96-9.015-6.585-26.69 6.232-31.08 14.343-4.937 10.62 12.973 11.128 19.91.51 7.799 3.488 26.101 13.64 26.963 15.013 1.255 17.325-21.32 17.988-31.157.475-6.466-2.975-11.757-4.188-17.87-1.3-6.39-.4-12.973-2-19.322-3.375-13.444-10.625-26.259-12.427-39.898-2.079-15.716.9-28.883 5.8-43.737 1.602-4.978 1.727-9.328 1.965-14.501.312-5.722 3.325-9.954 4.7-15.362 1.487-5.645.825-11.72 2.075-17.44 1.137-5.252 5.562-10.033 7.912-14.855 2.675-5.525 2.825-12.345 9.563-10.543 4.437 1.177 10.587 10.818 13.325 14.62 5.962 8.19 8.825-13.718 10.15-15.443 7.175-9.014 22.025-5.29 32.262-7.994 11.25-3.018 22.963-5.957 27.475 8.66 3.6 11.602-9.375 7.447-9.875 15.638-.325 4.9 6.975 13.482 8.3 5.449.9-5.84 10.463-20.97 17.875-17.402 24.725 11.914-1.1 54.75-2.425 72.23-.987 12.58 10.3 11.837 15.788 3.057 2.475-4.077 2.2-6.82 6.737-9.25 3.613-1.96 7.688-.47 10.038-4.468 1.65-2.977-.513-8.425 0-11.796.7-5.251 3.412-11.993 7.4-15.559 8.162-7.29 12.625.588 15.487 8.779 9.763 27.982-2 59.297-6.5 87.671-4.512 28.375-13.45 57.18-28.5 81.714-11.562 18.93-29.662 33.589-45.187 49.069-7.363 7.328-19.238 9.366-28.175 14.46-10.15 5.762-17.713 14.307-25.913 22.458zm-123.408-107.267c-21.988-12.58-27.984 37.584-27.63 49.695.117 3.526 1.92 23.75 7.916 22.495 6.859-1.41 1.841-21.203 3.057-25.631 7.72-27.708 23.084 17.087 29.824 13.678 5.291-2.665-1.019-23.553-2.704-27.747-3.606-8.896-3.135-26.415-10.463-32.49zm-217.28 33.861c-8.307 11.209-2.585 33.666-1.017 47.109 1.174 10.464 3.644 8.935 10.503 13.795 5.055 3.566 7.565 14.11 13.951 14.657 1.686.118 5.096 3.41 6.115 3.057 1.999-.665 2.821-8.504 2.743-10.307-.588-12.816-14.11-26.69-18.812-38.055-4.27-10.465-8.543-19.987-13.482-30.256zm128.862 169.073c-8.151-5.722-14.656-5.802-23.122-.98-6.27 3.567-11.404 9.406-6.505 16.892 8.975 13.599 28.727-4.704 29.627-15.912zm350.489 737.461c2.712-8.463-4-7.838-5.363 0-2.275 12.588 2.5 29.238 3.6 41.975 1.413 15.45 7.913 30.062 13.838 43.7.662 1.488 6 15.055 7.362 9.1 2.4-10.388-3.8-27.675-6.037-37.9-3.675-16.813-16.138-39.313-13.4-56.875zm-403.749-539.625c-7.211-3.725-11.6-.625-12.895 6.787-.509 2.7-2.076 5.163.746 6.925 2.822 1.775 3.33-2.15 5.683-1.762 3.801.6 9.326 7.487 12.972 2.162 2.587-3.762-4.036-11.45-6.506-14.112zm-26.376-283.156c14.031 4.82 12.032-24.024 5.565-28.845-5.055-3.763-5.134-.667-5.213 5.526-.077 5.76-4.428 19.125-.352 23.319"/>
</svg>
