<svg xmlns="http://www.w3.org/2000/svg" width="2942.863" height="2942.854" viewBox="0 -0.764 2942.864 2942.854" xml:space="preserve">
    <path style="fill:#fcd116;fill-rule:nonzero;stroke:none" d="M1566.882 2902.555c-52.712 52.713-138.2 52.713-190.912 0L39.54 1566.118c-52.72-52.713-52.72-138.2 0-190.913L1375.97 38.778c52.712-52.723 138.2-52.723 190.912 0L2903.32 1375.205c52.725 52.713 52.725 138.2 0 190.913L1566.882 2902.555z"/>
    <path style="fill:#000;fill-rule:nonzero;stroke:none" d="M2839.69 1502.488 1503.254 2838.927c-17.537 17.538-46.087 17.538-63.637 0L103.18 1502.488c-17.545-17.55-17.545-46.087 0-63.637L1439.616 102.415c17.55-17.544 46.1-17.544 63.637 0l1336.438 1336.436c17.537 17.55 17.537 46.087 0 63.638zm39.776-103.412L1543.028 62.641c-39.475-39.477-103.712-39.477-143.187 0L63.404 1399.076c-39.476 39.475-39.476 103.713.002 143.188L1399.84 2878.7c39.475 39.475 103.712 39.475 143.187 0l1336.438-1336.438c39.475-39.474 39.475-103.712 0-143.187z"/>
    <path style="fill:#000;fill-rule:nonzero;stroke:none" d="M2228.792 1746.723c-1.675-14.288.363-37.025 3-54.013 3.063-19.8 2.988-38.65 2.988-58.725 0-15.762 3-31.5 3-47.25v-128.712c0-1.95.088-3.888 0-5.825-1.3-25.263-5.688-64.55-15.275-93.288-11.85-35.55-22.788-73.95-40.6-107.35-21.463-40.24-44.163-65.863-74.15-99.2-9.988-11.105-50.025-45.203-83.063-65.368-16.325-9.958-57.162-27.963-104.855-34.504-37.525-5.149-76.012-10.789-113.912-10.789-19.113 0-38.1-3.034-57.138-3.036-16.5 0-33.287 2.611-49.787 3.83-43.275 3.201-86.338 9.431-129.713 10.356-11.537.245-47.212 7.505-49.437 6.501-17.213-7.746-35.888-7.745-54.55-10.188-41.425-5.422-82.613-12.093-123.875-18.595-22.65-3.567-51-9.165-69.65-9.868-7.838-.294-21.525 2.446-30.996 4.549-6.592 1.461-38.628 8.012-50.504 19.916l-11.473 11.503s-58.935-10.752-108.027-5.987c-48.204 4.675-86.544 24.86-90.736 26.252-.725.24-1.793.963-2.66.402-6.77-4.39-16.947-2.715-22.194-3.004-8.511-.463-17.979 1.208-25.384 3.358-2.876-30.115-21.335-46.365-47.875-46.365-29.34 0-53.124 23.784-53.124 53.125 0 10.116 2.83 19.572 7.74 27.621-.233 2.428-1.12 4.694-2.366 6.856-2.569 4.457-3.535 6.895-6.67 9.502-4.34 3.608-8.586 7.113-12.612 10.673-10.464 6.134-19.523 17.627-25.09 32.244a64.934 64.934 0 0 0-3.47 11.455 92.899 92.899 0 0 0-1.31 6.82c-1.82 11.946-1.182 23.445 1.408 33.495-.178 6.803-1.38 13.373-5.075 19.481-4.29 7.103-11.8 12.253-14.716 20.378-2.326 6.487-5.709 14.325-12.944 18.237-11.127 6.025-26.952 6.375-27.665 6.413a24.664 24.664 0 0 0-4.102-.363c-13.635 0-24.688 11.05-24.688 24.688 0 10.362 6.4 19.225 15.457 22.875 2.807 2.062 5.897 4.1 9.128 6.262 5.348 3.588 5.325 9.875 5.507 15.725-.005.038-.017.075-.022.113-.281 2.362.033 4.687.803 6.9.181.65.404 1.262.687 1.837.048.1.127.2.183.3.011 0 .03.013.042.013 3.365 6.613 11.11 11.788 20.637 12.913a31.04 31.04 0 0 0 9.037-.238c-1.972 6.963-.081 15.763 5.666 23.063.373.475.764.912 1.155 1.362 5.65 11.4 17.387 19.263 30.978 19.263 2.92 0 5.754-.363 8.462-1.05a63.583 63.583 0 0 0 5.12-.663c7.024-1.187 14.502-2.025 21.332.25 17.433 5.825 34.822 11.7 53.01 14.725 21.003 3.5 41.215 5.838 62.452 7.375 10.094.738 14.546 1.275 12.833 13.3-1.277 8.95-3.503 17.438-1.733 26.325 3.496 17.538 9.265 33.513 4.81 51.075-4.044 15.925-20.064 29.075-32.074 41.088-12.581 12.587-28.186 25.387-36.267 41.587-9.455 18.95-12.648 34.663-12.648 55.688 0 38 18.645 68.05 48.666 90.175 62.554 46.125 104.332 38.512 104.332 38.512v-84.025s-.188.062 0 0c5.201-1.737 21.937-7.225 27.296-9.1 35.035-12.287 69.904-30.5 98.281-45.237 7.425-3.863 13.389-7.55 19.843-10.863.528-.275 8.501-7.175 13.388-15.2 2.894-4.762 4.097-9.337 5.724-14.7.444-6.4.444-20.687.444-27.887v-27c9.591 11.225 18.205 10.225 29.374 14.762 6.626 2.7 12.643 6.2 12.643 6.2l-3.63 18.188c-4.336 21.737-5.527 43.875-8.396 65.85-2.505 19.175-5.005 38.425-9.619 57.2-4.362 17.75-1.268 34.45-2.44 52.075-.755 11.337-2.026 30.45-2.888 45.837-.237 4.213-3.247 7.425-6.009 9.838-13.054 11.437-38.189 5.537-53.995 9.025-18.424 4.062-30.704 11.712-40.124 28.625-4.24 7.612-10.916 16.425-10.916 16.425v11.975h210.416c50.85 0 66.663-42.438 74.6-57.025 8.75-16.038 14.163-34.588 21.163-51.4 13.325-31.975 26.237-71.763 37.275-109.225 5.85-19.863 13.275-49.938 17.987-76.138.388-2.137 4.225-34.15 4.575-36.225l32.988 21c7.7 3.125 33.262 22.7 32.987 23.975-.262 1.213 1.15 11.763-2.725 17.725-1.612 6.913-3.475 13.875-4.175 19.513-1.125 9-3.587 19.637-2.087 28.775.562 3.437 2.837 20.125 3.925 21.937 5.587 9.225 9.825 14.525 17.087 23.05 5.175 6.075 10.613 11.55 15.725 17.688 13.35 16.05 24.225 29.112 41.65 43.787 8.238 6.938 36.1 30.188 38.638 37.575 1.65 4.838-35.013 14-48.038 21-14.675 7.888-34.2 15.913-43.487 31.463-2.738 4.587-22.225 40.487-9.063 40.487h272.1s11.4-4.037 16.013-16.625c9.325-25.45 5.612-36.262 7.437-57.462 1.063-12.363-8.987-42.913-8.987-42.913s2.212-1.112 3.125-1.562c35.9-17.975 61.625-42.175 89.887-70.4 29.318 44.175 66.268 83.7 102.005 123-12.937 8.6-30.437 15.35-41.35 26.312-5.225 5.238-10.987 10.775-13.4 17.975-.25.738-7.437 21.675-5.162 21.675h152.1s10.45-5.012 17.687-10.525c17.5-13.312 33.875-23.825 51.45-35.125 14.738-9.475 30.85-17.612 43.325-29.975 11.688-11.55 13.338-31.675 14.325-47.45 1.263-20.25-13.537-38.587-14.975-50.875z"/>
</svg>
