<?xml version="1.0" encoding="UTF-8" standalone="no"?>
<svg
   xmlns:dc="http://purl.org/dc/elements/1.1/"
   xmlns:cc="http://creativecommons.org/ns#"
   xmlns:rdf="http://www.w3.org/1999/02/22-rdf-syntax-ns#"
   xmlns:svg="http://www.w3.org/2000/svg"
   xmlns="http://www.w3.org/2000/svg"
   xmlns:sodipodi="http://sodipodi.sourceforge.net/DTD/sodipodi-0.dtd"
   xmlns:inkscape="http://www.inkscape.org/namespaces/inkscape"
   width="89.985161"
   height="90.000931"
   viewBox="0 0 253.95815 254.00261"
   version="1.1"
   id="svg2"
   inkscape:version="0.92.4 (5da689c313, 2019-01-14)"
   sodipodi:docname="MUTCD_W11-1_(fluorescent).svg">
  <metadata
     id="metadata62">
    <rdf:RDF>
      <cc:Work
         rdf:about="">
        <dc:format>image/svg+xml</dc:format>
        <dc:type
           rdf:resource="http://purl.org/dc/dcmitype/StillImage" />
        <dc:title />
      </cc:Work>
    </rdf:RDF>
  </metadata>
  <defs
     id="defs60" />
  <sodipodi:namedview
     pagecolor="#ffffff"
     bordercolor="#666666"
     borderopacity="1"
     objecttolerance="10"
     gridtolerance="10"
     guidetolerance="10"
     inkscape:pageopacity="0"
     inkscape:pageshadow="2"
     inkscape:window-width="1920"
     inkscape:window-height="1057"
     id="namedview58"
     showgrid="false"
     fit-margin-top="0"
     fit-margin-left="0"
     fit-margin-right="0"
     fit-margin-bottom="0"
     inkscape:zoom="6.4858979"
     inkscape:cx="90.158191"
     inkscape:cy="46.478636"
     inkscape:window-x="-8"
     inkscape:window-y="-8"
     inkscape:window-maximized="1"
     inkscape:current-layer="svg2"
     showguides="false"
     inkscape:guide-bbox="true" />
  <!-- draw the bicycle -->
  <!-- RIGHT -->
  <!-- LANE -->
  <!-- ONLY -->
  <path
     inkscape:connector-curvature="0"
     d="M 3.3615264,118.7608 118.71636,3.4025018 c 4.54025,-4.5367 11.94153,-4.5367 16.48178,0 L 250.55296,118.7608 c 4.54025,4.5367 4.54025,11.938 0,16.4783 L 135.19814,250.5974 c -4.54025,4.5403 -11.94153,4.5403 -16.48178,0 L 3.3615264,135.2391 c -4.48027,-4.4803 -4.4838,-11.9945 0,-16.4783"
     style="fill:#cdff00;fill-opacity:1;fill-rule:nonzero;stroke:none"
     id="path3260" />
  <path
     inkscape:connector-curvature="0"
     d="M 5.6764564,121.0211 120.97837,5.7227018 c 3.27025,-3.2702 8.68892,-3.2632 11.95917,0 L 248.23591,121.0211 c 3.27378,3.2738 3.25967,8.6819 0,11.9592 L 132.93754,248.2786 c -3.27731,3.2632 -8.68187,3.2703 -11.95917,0 L 5.6764564,132.9803 c -3.25614,-3.2773 -3.27025,-8.6854 0,-11.9592"
     style="fill:#000000;fill-opacity:1;fill-rule:evenodd;stroke:none"
     id="path3272" />
  <path
     inkscape:connector-curvature="0"
     d="M 8.9220164,124.1837 124.13926,8.9665018 c 1.524,-1.5734 4.11339,-1.5734 5.63739,0 L 244.99036,124.1837 c 1.57339,1.5205 1.57339,4.1134 0,5.6339 L 129.77665,245.0313 c -1.524,1.5769 -4.11692,1.5804 -5.63739,0 L 8.9220164,129.8176 c -1.56986,-1.5205 -1.56986,-4.1134 0,-5.6339"
     style="fill:#cdff00;fill-opacity:1;fill-rule:evenodd;stroke:none"
     id="path3276" />
  <path
     d="m 153.18794,135.79596 22.38375,-3.65125 -14.10758,-18.32681 c -7.31308,6.37469 -8.21972,14.02997 -8.27617,21.97806 m -6.1595,1.34055 c -0.0353,-0.79375 -0.1658,-2.0708 -0.1658,-2.96333 0,-9.06992 2.93511,-17.88231 10.8973,-25.20598 l -8.2938,-9.930693 -12.83053,39.154813 10.39283,-1.05481 z m -49.261889,-38.967837 0.712611,-2.176639 45.709418,-0.0635 -12.16025,36.865286 -0.52564,-3.84175 1.40053,0 -0.17286,-2.45181 -6.11717,0 0.17639,2.27542 1.56986,0 0.34925,4.19453 c 0,0 -30.765751,-34.625148 -30.942139,-34.801537 M 77.524159,133.58051 c 6.138334,-4.87539 10.914946,-9.52147 14.361585,-18.8207 5.436307,4.93537 8.540746,12.06853 8.540746,19.41337 0,14.58031 -11.892135,26.47597 -26.47597,26.47597 -14.583835,0 -26.475976,-11.89566 -26.475976,-26.47597 0,-14.58384 11.892141,-26.47598 26.475976,-26.47598 4.653139,0 9.412112,1.34409 13.246807,3.60892 -2.592917,8.20561 -5.122334,12.43542 -13.112751,18.86656 -1.940278,0.0847 -3.41489,1.64041 -3.41489,3.49955 0,1.92264 1.573389,3.49603 3.496028,3.49603 1.926167,0 3.358445,-1.57339 3.358445,-3.58775 m 76.602171,7.84225 c 2.99156,11.15836 13.64545,19.22639 25.43528,19.22639 14.58031,0 26.47245,-11.89566 26.47245,-26.47597 0,-14.58384 -11.89214,-26.47598 -26.47245,-26.47598 -4.65667,0 -10.04006,1.09714 -13.96647,3.39725 l 14.36864,19.07823 c 1.75683,0.0282 3.28436,1.59808 3.28436,3.49955 0,1.92264 -1.56986,3.49603 -3.4925,3.49603 -0.5327,0 -1.09361,-0.13758 -1.56633,-0.36336 l -24.06298,4.61786 z m -65.038114,-36.24792 9.376835,-25.872724 -2.97039,-5.069418 5.944309,-6.466417 12.75997,0 0.17639,3.668889 -11.19011,0 -2.26836,2.448278 2.62114,4.720167 -3.29848,11.68753 45.79762,0 0.70202,-2.141362 c -3.683,-0.47625 -10.03299,-2.744611 -11.54994,-4.060472 -1.51342,-1.315862 -0.18697,-2.529417 1.53811,-2.585862 9.03817,-0.384528 22.46842,-1.139472 25.02253,-1.153583 2.55058,-0.01058 2.81164,1.277055 1.10419,3.14325 -1.70744,1.866195 -3.20322,3.548945 -9.67316,4.550834 l -1.74625,4.720167 10.83733,13.423193 c 5.10822,-3.09739 11.28536,-4.70958 17.28964,-4.70958 18.00931,0 32.69545,14.68614 32.69545,32.69545 0,18.00931 -14.68614,32.69545 -32.69545,32.69545 -14.81667,0 -27.84475,-10.21998 -31.67239,-24.33815 l -9.95539,1.78859 c -0.42686,1.17475 -1.42522,2.07433 -2.61408,2.77989 l 1.778,8.42433 2.27542,0 0.17286,2.26836 -7.16845,0.35278 0,-2.44828 1.75331,0 -2.16959,-8.41728 c -3.22086,-0.52564 -4.90714,-3.28789 -3.94758,-6.02544 l -32.53317,-36.7912 -1.456972,3.94758 c 7.898692,6.21948 12.625922,15.80092 12.625922,25.76337 0,18.00931 -14.6932,32.69545 -32.69898,32.69545 -18.009308,0 -32.698976,-14.68614 -32.698976,-32.69545 0,-18.00931 14.689668,-32.69545 32.698976,-32.69545 5.235223,0 10.600973,1.27353 15.137696,3.69711"
     style="fill:#000000;fill-opacity:1;fill-rule:evenodd;stroke:none"
     id="path3420"
     inkscape:connector-curvature="0" />
</svg>
