<svg xmlns="http://www.w3.org/2000/svg" width="89.985" height="90.001" viewBox="0 0 253.958 254.003">
    <path d="M3.362 118.76 118.716 3.404c4.54-4.537 11.942-4.537 16.482 0L250.553 118.76c4.54 4.537 4.54 11.938 0 16.478L135.198 250.597c-4.54 4.54-11.941 4.54-16.482 0L3.362 135.24c-4.48-4.48-4.484-11.994 0-16.478" style="fill:#fcd116;fill-opacity:1;fill-rule:nonzero;stroke:none"/>
    <path d="M5.676 121.021 120.978 5.723c3.27-3.27 8.69-3.263 11.96 0L248.236 121.02c3.274 3.274 3.26 8.682 0 11.96L132.938 248.278c-3.278 3.263-8.682 3.27-11.96 0L5.676 132.98c-3.256-3.277-3.27-8.685 0-11.959" style="fill:#000;fill-opacity:1;fill-rule:evenodd;stroke:none"/>
    <path d="M8.922 124.184 124.139 8.967c1.524-1.574 4.114-1.574 5.638 0L244.99 124.184c1.574 1.52 1.574 4.113 0 5.634L129.777 245.03c-1.524 1.577-4.117 1.58-5.638 0L8.922 129.818c-1.57-1.52-1.57-4.114 0-5.634" style="fill:#fcd116;fill-opacity:1;fill-rule:evenodd;stroke:none"/>
    <path d="M183.867 159.488h17.805V95.18l-96.633-.169v11.225H89.562c-6.297 0-10.23 0-12.844 8.703l-4.34 16.987h-10.04c-4.931 0-4.931 0-4.931 4.766v22.796h-5.27v5.274h18.89c.956 7.172 5.546 12.08 12.774 12.08 7.172 0 12.044-5.02 13.657-12.08h7.58v-5.274h50.36c-.117.677-.173 2.156-.173 2.89 0 7.965 6.498 14.463 14.464 14.463s14.46-6.498 14.46-14.464c0-.903-.116-2.042-.282-2.889" style="fill:#000;fill-opacity:1;fill-rule:evenodd;stroke:none"/>
</svg>
