<svg xmlns="http://www.w3.org/2000/svg" width="2179.184" height="2179.189">
    <path style="fill:#fcd116;fill-rule:nonzero;stroke:none" d="M1017.99 714.208c-52.719 52.725-138.197 52.725-190.919 0l-954.594-954.591c-52.72-52.722-52.72-138.198 0-190.92l954.596-954.593c52.72-52.721 138.198-52.721 190.917 0l954.593 954.594c52.712 52.721 52.725 138.197 0 190.919l-954.593 954.59z" transform="translate(167.062 1425.437)"/>
    <path style="fill:#000;fill-rule:nonzero;stroke:none" d="m1908.952-304.022-954.6 954.6c-17.546 17.538-46.095 17.538-63.64 0l-954.595-954.6c-17.544-17.547-17.544-46.094.002-63.64l954.593-954.595c17.545-17.544 46.094-17.544 63.637 0l954.603 954.595c17.538 17.546 17.538 46.093 0 63.64zm39.775-103.417-954.6-954.592c-39.478-39.478-103.714-39.478-143.191 0L-103.657-407.44c-39.479 39.479-39.477 103.715 0 143.19l954.593 954.603c39.477 39.475 103.714 39.475 143.191 0l954.6-954.603c39.475-39.475 39.475-103.711 0-143.19z" transform="translate(167.062 1425.437)"/>
    <path style="fill:#000;fill-rule:evenodd;stroke:none" d="M874.788-346.952c32.643 0 59.27 26.625 59.27 59.27s-26.627 59.266-59.27 59.266c-32.644 0-59.268-26.622-59.268-59.267s26.624-59.27 59.267-59.27zM695.336 26.775l124.329-82.887c5.746-24.3 29.584-132.14 77.407-157.1 47.37-31.32 222.015 97.337 223.028 98.4V72.863l-37.874-6.588-14.816-149.812c-14.269-2.863-28.535-5.738-42.806-8.613 31.18 80.613 42.631 158.288 24.696 209.475l75.737 309.513-51.043 36.212-110.301-286.462-51.04 54.325-70.792 215.675-67.499-24.7L835.275 194.7l70.794-126.775-27.136-93.55L850.09 11.95 715.093 56.4l-19.757-29.625z" transform="translate(167.062 1425.437)"/>
    <path style="fill:#000;fill-rule:nonzero;stroke:none" d="M1228.388-460.248c-67.375 0-124.45-44.083-143.975-104.978l134.4-28.945a19.618 19.618 0 0 0 9.575 2.483c10.9 0 19.737-8.835 19.737-19.73 0-9.512-6.737-17.45-15.687-19.316L1149.8-740.576c22.9-13.966 49.8-22.015 78.588-22.015 83.487 0 151.175 67.681 151.175 151.172 0 83.49-67.688 151.172-151.176 151.172zm-151.17-151.17c0-44.033 18.832-83.66 48.87-111.29l76.487 101.664-124.38 26.789a152.887 152.887 0 0 1-.976-17.164zm-33.537 24.597-59.135 12.736 68.651-245.515 51.678 68.691c-38.523 34.135-62.813 83.973-62.813 139.49 0 8.34.558 16.549 1.62 24.598zm-84.194-7.89-9.172-34.881h14.321v-14.063H919.37v14.063h18.017l9.102 34.6-194.77-211.988a8274.868 8274.868 0 0 0 9.6-30.852h266.15l-67.981 243.12zM767.844-611.42c0 83.49-67.683 151.172-151.172 151.172-83.49 0-151.172-67.683-151.172-151.172 0-83.491 67.683-151.172 151.173-151.172 29.68 0 57.357 8.56 80.71 23.336-18.567 40.275-54.776 83.656-80.862 108.109-10.827.082-19.58 8.881-19.58 19.727 0 10.896 8.835 19.731 19.731 19.731 10.073 0 18.377-7.55 19.577-17.297 12.765-11.956 29.426-29.55 45.906-50.63 12.259-15.681 27.534-37.359 39.181-60.876 28.663 27.51 46.508 66.206 46.508 109.072zm460.543-186.328c-36.712 0-70.95 10.628-99.812 28.97l-65.313-86.822 8.568-30.642c40.945-3.524 63.595-19.089 62.208-34.146-1.35-14.6-41.975-3.662-87.15-3.087-12.388.159-78.123-.136-77.742 11.925.393 12.359 42.419 22.435 71.872 25.256l-5.25 18.773H770.455a15437.207 15437.207 0 0 0 22.057-72.647l-19.296-14.755 9.116-9.232h71.06v-23.437H772.54l-34.694 35.125 22.24 17.006c-10.299 34.114-34.635 114.255-50.383 162.569-27.376-15.808-59.146-24.856-93.03-24.856-102.906 0-186.328 83.422-186.328 186.328 0 102.907 83.422 186.328 186.328 186.328C719.58-425.091 803-508.512 803-611.42c0-57.905-26.414-109.64-67.849-143.815a2337.481 2337.481 0 0 0 6.226-19.121l200.498 218.221a22.19 22.19 0 0 0-.076 1.738c0 11.811 9.383 21.426 21.101 21.81l14.042 53.386H962.62v14.063h45.265V-479.2h-18.018l-14.875-56.556a21.952 21.952 0 0 0 7.405-7.498l67.513-14.541c23.031 76.764 94.215 132.704 178.477 132.704 102.913 0 186.338-83.421 186.338-186.328 0-102.906-83.425-186.328-186.337-186.328z" transform="translate(167.062 1425.437)"/>
</svg>
