<svg xmlns="http://www.w3.org/2000/svg" width="2942.863" height="2942.854" viewBox="0 -0.764 2942.864 2942.854" xml:space="preserve">
    <path style="fill:#fcd116;fill-rule:nonzero;stroke:none" d="M1566.882 2902.555c-52.712 52.713-138.2 52.713-190.912 0L39.54 1566.118c-52.72-52.713-52.72-138.2 0-190.913L1375.97 38.778c52.712-52.723 138.2-52.723 190.912 0L2903.32 1375.205c52.725 52.713 52.725 138.2 0 190.913L1566.882 2902.555z"/>
    <path style="fill:#000;fill-rule:nonzero;stroke:none" d="M2839.69 1502.488 1503.254 2838.927c-17.537 17.538-46.087 17.538-63.637 0L103.18 1502.488c-17.545-17.55-17.545-46.087 0-63.637L1439.616 102.415c17.55-17.544 46.1-17.544 63.637 0l1336.438 1336.436c17.537 17.55 17.537 46.087 0 63.638zm39.776-103.412L1543.028 62.641c-39.475-39.477-103.712-39.477-143.187 0L63.404 1399.076c-39.476 39.475-39.476 103.713.002 143.188L1399.84 2878.7c39.475 39.475 103.712 39.475 143.187 0l1336.438-1336.438c39.475-39.474 39.475-103.712 0-143.187z"/>
    <path style="fill:#000;fill-rule:evenodd;stroke:none" d="M2250.066 1936.235c-2.412-6.85-4.425-14.05-7.312-20.787-2.888-6.625-4.75-14.363-9.888-19.5-3.362-3.338-6.637-6.663-10-10-2.175-2.2-7.712-2-10.6-2.513-5.775-1.087-15.575 1.45-20.237 4.925-3.525 2.613-6.175 3.7-10.288 5.063-1.975.675-7.75-2.263-8.575-4.213-1.5-3.5-3.6-6.312-2.65-9.962.913-3.213 3.563-8.388 2.888-11.663-.713-4.212-1.5-8.387-2.213-12.562-.675-3.263-5.375-7.7-7.237-10.438-4.588-6.5-10.838-12.037-16.213-17.812-8.587-9.188-16.137-21.425-21.512-32.838-6.488-13.725-14.113-27.325-19.338-41.55-6.6-17.95-13.162-35.887-19.762-53.812-4.95-13.375-7.6-27.825-11.238-41.575-3.912-14.975-7.862-29.363-10.075-44.663-.987-7.062-1.075-15.9-7.637-20.262-6.763-4.525-15.975-6.75-23.525-9.75-13.713-5.5-27.513-11.6-39.65-20.025-13.888-9.588-21.4-22.338-30.1-36.513-7.188-11.887-3.988-31.65-3.988-44.787 0-5.85 1.738-12.15 2.575-17.963 1.575-10.762 3.2-21.55 4.738-32.312 4-27.513 5.462-55.725 6.65-83.5 1.187-29.438 4.35-59.388-.95-88.513-2.575-14.292-7.95-27.16-13.013-40.802-1.7-4.586-2.887-10.203-5.687-14.254-4.588-6.466-9.175-12.91-13.725-19.415 8.1 2.334 16.125 4.606 24.237 6.94 7.038 1.996 14.038 7.018 20.525 10.438 6.913 3.637 9.325 7.375 14.113 13.8 3.875 5.1 9.25 10.22 11.187 16.408 4.7 15.124 10.913 29.898 11.938 45.71.637 8.975 1.187 17.925 1.862 26.925.388 5.925-1.862 13.025-2.725 18.9-1.937 13.4-4.987 27.163-5.775 40.688-.837 14.15.713 28.837 1.025 43.012.313 12.475 1.35 24.913 2.175 37.35.788 11.488 4.075 22.638 6.488 33.825l7.312-25.487c1.938 8.45 3.838 16.862 5.775 25.325 1.5 6.387 3.75 9.55 7.55 15.05 5.7 8.262 11.388 16.525 17.075 24.787 3.838 5.6 5.463 13.213 7.875 19.513 2.413 6.587 4.275 11.625 4.975 18.5.95 8.9 1.9 17.825 2.888 26.712.875 8.15 2.412 16.3 3.6 24.4.325 2.45.162 6.188 1.225 8.475 1.112 2.438 4.075 4.888 5.775 6.95 6.175 7.413 12.337 14.838 18.55 22.213-3.963-10.1-7.95-20.225-11.9-30.288-3.125-7.987-2.975-17.137-3.925-25.562l15.825 18.212c-2.413-7.575-4.75-15.162-7.163-22.7-1.937-6.187-.95-14.525-1.387-21.025 3.875 5.288 9.412 10.313 10.212 16.938 1.063 8.5 2.088 17.037 3.2 25.537l7.313-26.7c2.412 16.4 4.587 32.775 6.525 49.3.787 7.4-.913 11.563-3.238 18.825-2.737 8.463-5.462 16.938-8.187 25.4l24.312-29.137-7.275 26.725 13.4-12.163 3.6 23.075 15.813-38.887c-1.225 12.4-2.4 24.775-3.638 37.125-.387 4.487-3.512 9.587-5.137 13.725-2.288 6.125-4.7 12.275-7.038 18.4l18.225-23.063c-1.3 7.788-1.85 16.125-4.187 23.638-3.05 9.55-6.088 19.1-9.138 28.612 7.038-9.825 14.125-19.65 21.2-29.537 2.288-3.2 2.8-8.425 3.913-12.125 1.775-5.963 3.437-11.913 5.225-17.888l1.175 20.663 10.912-27.913v23.063c4.825-7.313 9.575-14.6 14.325-21.9 3.438-5.338 2.213-13.663 2.638-19.825.4-6.313 2.65-15.013 1.037-21.2-2.412-9.388-4.825-18.738-7.237-28.125-4-15.363-11.938-29.325-18.788-43.663-6.162-13.125-13.037-25.875-19.725-38.737-8.587-16.513-13.725-33.475-18.387-51.288l18.225 8.5c-4.5-7.512-8.975-15-13.475-22.512-3.288-5.425-3.05-13.8-4-19.938-2.563-15.887-3.713-30.937-4.425-47.025-1.625-33.95-5.85-67.575-9.575-101.362-1.413-13.088-4.863-24.925-8.338-37.675-2.137-7.675-4.225-15.286-6.325-22.918-1.787-6.307-7.787-13.285-11.075-18.9-4.425-7.413-8.737-14.847-13.162-22.26-.95-1.66-3.675-3.105-5.138-4.29-4.512-3.658-8.975-7.316-13.487-10.932-12.775-10.301-27.675-17.576-41.875-25.761-4.975-2.847-9.725-4.567-15.175-6.524-7.638-2.729-16.063-7.156-24-8.56-7.475-1.325-16.375 0-24.013 0-6.475 0-14.187-1.166-20.675.157-7.312 1.582-15.575 4.707-23.054 4.707-7.112 0-15.9 1.442-22.85-.16-9.175-2.133-18.387-4.25-27.6-6.384-5.375-1.246-11.425-2.61-16.05-5.575-6.762-4.211-13.925-10.479-21.275-13.404-6.525-2.571-13.012-5.18-19.5-7.751-13.837-5.456-28.025-12.909-42.537-16.17-10.2-2.275-20.4-4.608-30.563-6.9-5.3-1.206-10.762-3.005-16.212-3.283a5122.365 5122.365 0 0 0-30.125-1.64c-6.575-.376-12.1-.89-18.513.474-17.437 3.658-33.65 9.074-50.562 14.689-8.663 2.886-17.163 5.772-26.338 6.386-37.487 2.471-74.85 4.923-112.337 7.414-33.725 2.214-67.413 4.447-101.138 6.662-2.412.158-4.625-.475-7.037-1.008-9.725-1.997-19.413-4.014-29.138-6.01-15.112-3.144-30.65-4.33-43.887-12.12-4.275-2.49-8.5-4.982-12.7-7.472 13.25 1.324 25.862 4.33 38.825 7.314-6.875-6.899-13.788-13.817-20.675-20.717-5.538-5.575-15.813-6.624-23.213-8.977-8.025-2.53-15.337-9.43-22.3-14.056-6.475-4.33-13.4-8.145-20.075-12.157l31.625 2.41c-12.337-4.527-24.712-9.034-37.087-13.363-5.18-1.8-11.15-3.005-15.855-6.05-6.288-4.052-12.534-8.106-18.781-12.159 12.89 2.61 25.897 4.923 38.91 7.297-7.32-6.545-14.515-13.07-21.83-19.613-6.01-5.416-15.42-7.275-22.853-10.201-8.027-3.084-15.5-9.391-22.736-13.998-6.643-4.13-13.404-8.065-20.046-12.078l32.738 2.45c-4.745-2.412-8.975-4.17-12.692-7.908-4.744-4.665-9.371-9.311-14.036-13.956l27.993 4.844c-6.958-7.374-13.957-14.73-20.916-22.103-4.27-4.547-8.461-9.035-12.692-13.522-2.65-2.848-4.982-6.11-8.422-7.91-19.77-10.398-39.816-19.907-60.02-29.375 8.66 1.897 17.318 3.775 25.977 5.653 6.286 1.364 15.34-3.716 21.35-5.653-8.342-2.532-16.763-5.102-25.185-7.652-7-2.136-13.01-8.402-18.862-12.692-5.772-4.21-11.9-7.948-17.91-11.843-5.456-3.597-10.992-8.046-16.923-10.873-13.878-6.524-27.678-13.878-41.912-19.572-9.212-3.696-18.505-7.433-27.756-11.11-6.169-2.452-11.625-5.022-18.149-5.91a911.694 911.694 0 0 1-11.94-1.603c-2.176-.277-3.362-2.965-4.746-4.605-4.389-5.577-8.501-9.708-14.036-14.334-4.508-3.855-8.026-6.939-11.466-11.704-4.113-5.634-7.87-11.605-12.298-16.981-2.135-2.65-8.262-13.246-11.624-13.246-2.333 0-8.106-1.168-10.122 0-1.345.77-4.548 6.938-4.864 8.52-.514 2.55.871 6.525 1.186 9.093.397 2.928.397 6.387 1.267 9.234 2.016 6.425 4.032 12.89 6.048 19.295-3.48-1.482-6.918-3.005-10.358-4.487-2.73-1.207-7.315-2.215-9.41-4.33-5.3-5.3-10.4-10.874-16.213-15.618-3.36-2.769-6.719-5.496-10.081-8.265-.435-.355-3.955 1.859-4.588 2.175-.868.435-.395 3.678-.395 4.608 0 3.775-.908 8.916 0 12.552 1.028 4.054 4.548 8.443 6.484 12.08 2.491 4.626 24.239 34.359 22.064 35.724-12.969 8.302-25.978 16.566-38.669 25.442-7.71 5.418-15.5 10.795-23.21 16.173-5.021 3.559-12.335 5.575-16.37 10.339-2.214 2.768-4.785 4.706-5.1 8.303-.277 2.254.315 9.59-1.226 11.21a3656.998 3656.998 0 0 0-19.571 19.572c-10.282 10.24-21.273 19.79-31.95 29.576-11.703 10.636-22.22 22.22-36.335 29.337-7.315 3.6-13.88 7.73-20.798 12.12-2.255 1.443-3.44 7.572-4.429 10.063-1.423 3.579-.948 7.176-.948 11.07 0 7.355-2.412 14.294-2.412 21.589 0 6.74-1.028 16.33 1.937 22.28 1.74 3.44 2.49 7.928 6.406 8.58 6.01 1.008 5.456 2.076 7.394 7.87.395 1.363 7.63 2.647 8.896 3.083 4.665 1.443 9.252 2.887 13.799 4.33 6.84 2.174 12.217 7.018 19.256 8.797 1.937.475 7.71 2.235 9.489 2.076 6.01-.475 14.432-9.708 17.91-13.146 3.678-3.777 7.356-13.74 12.18-14.888 9.567-2.332 19.097-4.665 28.666-6.997 6.484-1.603 13.047-3.283 19.65-4.49 3.52-.632 7.159-1.007 10.44-2.253 3.125-1.146 6.326-3.164 9.607-2.807 9.885 1.008 19.77 2.056 29.535 3.065 7.237.75 14.274-1.285 21.432-2.492 7.315-1.206 14.273-3.538 21.35-5.536 5.06-1.442 5.457-4.052 8.027 1.108 1.108 2.293 1.859 4.823 2.649 7.275 7.315 21.945 14.669 43.81 22.3 65.636 2.412 7.156 8.897 24.771 11.387 31.867 5.892 16.884 11.823 33.748 17.674 50.632 5.22 14.886 11.309 29.575 16.925 44.303 3.36 9.035 6.839 18.05 10.279 27.043 2.175 5.662 2.016 9.787 2.016 16.012 0 6.388.316 12.275-1.226 18.413-2.333 9.387-4.625 18.775-7.036 28.162-3.64 14.65-2.572 30.788-.673 45.55.593 4.213 3.005 7.338 5.061 11.075 4.823 8.575 9.648 17.175 14.55 25.763 9.373 16.687 18.782 33.387 28.152 50.075 5.616 9.962-10.597 26.487-15.894 34.225-6.88 10.162-13.8 20.3-20.68 30.5-12.296 18.012-24.593 36-36.85 54.012-6.326 9.35-12.614 20.575-20.64 28.563-6.089 6.15-12.336 12.05-18.78 17.862-5.536 5.138-9.135 11.638-13.405 17.925-1.424 2.25-1.503 7.038-2.056 9.613a1677.65 1677.65 0 0 1-2.808 13.512c-1.225 5.663-2.411 11.275-3.637 16.925-6.484 30.25-12.1 60.988-22.063 90.375-6.01 17.613-11.941 35.188-17.99 52.8-2.294 7.025-2.135 15.85-3.204 23.15-1.027 7.45-.553 15.088-.553 22.6 0 6.125.87 14.763-1.264 20.338-2.966 7.812-5.695 15.162-9.965 22.35-3.678 6.137-4.508 11.362-5.931 18.462-2.095 10.338-4.112 20.7-6.208 31.05-1.265 6.25-1.581 12.6-2.056 18.988-.079.862 8.976 4.162 10.162 4.687 2.412 1.075 8.027-2 10.44-2.737 13.56-4.25 28.19-9.313 39.342-18.238 4.228-3.387 8.42-6.75 12.69-10.125 1.977-1.6 5.1-3.25 6.485-5.425 2.492-3.637 4.903-7.325 7.393-10.987 1.505-2.288 4.628-5.263 4.47-8.15-.633-8.263-1.346-15.438-3.44-23.388-1.187-4.437-2.413-8.912-3.52-13.325-.752-2.687-5.852-3.45-6.367-5.887-.71-4.175-1.501-8.338-2.214-12.538-.592-2.725 3.361-7.725 4.548-10.175 1.463-2.85 4.745-4.712 6.207-7.512 1.899-3.713 2.373-9.013 3.519-13.075 3.836-14.563 4.982-29.65 4.982-44.688 0-16.375 3.203-31.95 5.93-48.125 1.03-6.225 4.904-12.675 7.315-18.5 2.81-7.025 5.102-14.712 8.66-21.45 7.71-14.7 15.46-28.712 24.475-42.625 7.632-11.762 21.193-20.787 32.107-29.337 12.177-9.55 24.236-19.975 36.89-28.813 12.137-8.375 25.463-15.362 38.273-22.55 8.108-4.487 17.99-8.35 25.227-14.075 8.58-6.9 17.238-13.762 25.898-20.625 8.935-7.1 17.912-14.212 26.807-21.35 3.362-2.65 6.92-5.062 10.36-7.55 4.665-3.4 3.955-6.45 4.665-12.237 3.598 1.2 7.117 2.375 10.755 3.575.79.275 1.345 4.087 1.583 4.825 2.807 9.587 5.693 19.137 8.54 28.725 3.993 13.562 8.737 26.887 10.833 40.887 2.372 15.65 4.864 31.288 7.196 46.988 1.464 10.062 2.966 20.187 4.429 30.25.949 6.112 1.346 12.725 3.281 18.537 2.57 7.75 2.491 16.775 3.44 24.875.831 6.463 1.543 12.925 2.254 19.438 1.621 14.55 1.859 32.612 10.205 45.125 4.825 7.225 8.412 11.512 15.062 17.062a6214.911 6214.911 0 0 0 15.175 12.6 17419.6 17419.6 0 0 1 41.563 34.65c11.975 9.925 21.95 23.413 32.5 34.763 10.05 10.75 20.087 21.387 30.525 31.787 20.362 20.388 50.45 36.338 78.487 43.25 8.263 2.038 17.313 2.313 25.738 3.45 7.475 1 14.4 1.4 21.987 1.4 18.538 0 2.65-28.25-.875-36.475-2.487-5.812-4.35-12.987-8.575-17.775-6.175-6.937-12.462-13.875-18.625-20.812-1.937-2.138-5.225-3.7-7.55-5.3-2.65-1.863-6.012-5.338-9.287-6.075-2.338-.513-8.425-3.125-10.6-1.95a3014.033 3014.033 0 0 0-12.375 6.737c-2.813 1.525-5.225 4.175-7.638 6.213-.862.762-9.05.725-10 0-1.625-1.075-8.112-4.375-8.35-6.088-.825-4.637-1.612-9.2-2.325-13.8-2.412-14.375-16.925-24-28.35-31.475a794.218 794.218 0 0 1-42.187-29.525c-11.313-8.512-23.925-16.9-30.688-29.487-7.112-13.563-13.4-28.013-13.05-43.838.325-17.687.563-35.425.875-53.162.55-27.788 5.775-55.288 7.788-83.05.712-11.25 1.5-22.438 2.337-33.663.238-3.862-.675-14.375 2.288-15.937 1.462-.75 5.5 0 7.075 0h16.85c6.762 0 14.55 1.05 21.275-.038 14.7-2.375 30.762-3.125 44.95-7.3 16.287-4.775 32.5-9.55 48.712-14.288 31.275-9.2 62.513-18.375 93.788-27.6 11.9-3.537 23.612-7.062 35.35-11.212 15.15-5.363 31.35-9.7 46.062-16.363 17.638-8.037 35.238-16 52.863-24.025.325 17.4.712 34.775 1.112 52.188.275 14.975 5.375 30.237 8.463 44.825 5.85 27.775 18.937 52.837 29.85 78.937 6.562 15.8 13.562 31.338 18.7 47.7.712 2.413 2.887 6.225 2.537 8.788-.475 4.862-1.037 9.725-1.512 14.562-.713 6.738-1.7 12.888-5.925 18.5-19.263 25.688-38.863 51.013-60.1 75.038-20.725 23.437-45.675 43.412-69.2 64.125-5.688 5.05-10.2 10.637-15.025 16.575-3.988 4.937-2.888 16.25-3.6 22.475-.788 7.175.712 12.625-2.488 19.175-3.75 7.537-7.712 15.012-11.625 22.425-7.625 14.25-10.275 29.287-13.95 44.937-1.55 6.225-4.825 13.938-4.825 20.4 0 5.034-1.312 6.56 3.513 7.997 3.437 1.05 7.075 3.025 10.525 2.1 14.787-3.938 28.587-8.997 41.237-17.772 8.338-5.775 16.725-11.562 25.063-17.337 1.425-1.013 4.55-2.25 4.787-4.088.513-3.937.913-7.875 1.775-11.725.8-3.637 2.175-6.862 1.113-10.425-.875-3.462-1.263-8.787-3.438-11.637-3.362-4.488-13.25-14.45-10.437-20.075 1.937-3.85 5.962-3 10.037-3.513 3.363-.412 7.163-4.012 9.963-5.787 4.55-2.888 8.262-11.825 11.15-16.65 9.062-14.813 19.1-28.138 29.7-41.863 9.762-12.662 22.062-23.912 33.05-35.625 7.875-8.45 17.6-15.537 26.337-23.062 16.525-14.175 33.05-28.338 49.575-42.513 9.65-8.212 19.188-16.437 28.75-24.662 5.775-5.063 10.988-8.113 11.625-16.45.163-3.088-2.337-7.588-.95-10.363 1.663-3.362-.35-7.687-1.062-11.275-2.5-11.637-5.938-21.462-10.363-32.575-1.9-5.025-3.912-9.987-5.85-15-1.737-4.337-1.587-10.487-2.262-15.087-1.65-10.988-2.638-20.838-2.638-31.95v-19.538c0-4.7 2.488-10.275 3.638-14.875 11.387 8.775 22.45 17.888 34.512 25.675 12.575 8.15 25.663 15.525 36.888 25.538 24.95 22.25 49.791 44.625 74.816 66.825 4.975 4.45 10.038 8.937 14.988 13.45 5.962 5.375 13.637 10.55 18.7 16.8 10.6 13.287 19.925 26.525 29.137 40.762 8.588 13.125 15.1 27.975 22.375 41.813 7.563 14.262 14.475 28.862 21.675 43.3 13.475 27 24.55 55.412 34.988 83.737 2.025 5.425 7.312 11.538 12.062 14.7 2.813 1.838 6.563 5.65 9.85 6.5 4.588 1.125 9.163 2.275 13.713 3.4 16.062 4.013 22.975 17.988 31.087 30.55 1.938 3.075 5.525 10.75 8.725 12.275 4.2 1.988 8.275 4.013 12.463 6 14.987 7.2 29.925 14.413 44.912 21.597 1.463.725 7.238 4.7 8.5 3.212 1.075-1.325 5.538-5.1 5.538-6.775v-10.359c0-11.65-2.888-23.025-4.863-34.462"/>
</svg>
