<svg xmlns="http://www.w3.org/2000/svg" width="89.999" height="90.006" viewBox="0 0 253.997 254.016">
    <path d="M3.633 118.203 118.187 3.638c4.847-4.85 12.777-4.85 17.625 0l114.55 114.565c4.847 4.843 4.847 12.774 0 17.624l-114.55 114.55c-4.848 4.852-12.778 4.852-17.625 0L3.633 135.828c-4.844-4.85-4.844-12.78 0-17.624" style="fill:#fcd116;fill-opacity:1;fill-rule:nonzero;stroke:none"/>
    <path d="M6.396 120.022 120.008 6.402c3.845-3.845 10.135-3.845 13.984 0L247.6 120.022c3.846 3.845 3.846 10.135 0 13.98L133.992 247.614c-3.849 3.846-10.139 3.846-13.984 0L6.396 134.002c-3.846-3.845-3.846-10.135 0-13.98" style="fill:#000;fill-opacity:1;fill-rule:evenodd;stroke:none"/>
    <path d="M9.947 123.522 123.503 9.952c1.92-1.923 5.07-1.923 6.989 0l113.555 113.57c1.923 1.922 1.923 5.066 0 6.985L130.492 244.066c-1.92 1.923-5.07 1.923-6.989 0L9.947 130.506c-1.922-1.918-1.922-5.062 0-6.984" style="fill:#fcd116;fill-opacity:1;fill-rule:evenodd;stroke:none"/>
    <path d="M123.598 43.65c3.85 0 6.985 3.136 6.985 6.978 0 3.845-3.136 6.981-6.985 6.981-3.838 0-6.981-3.136-6.981-6.981 0-3.842 3.143-6.978 6.981-6.978M103.698 87.73l15.282-11.765c.522-.357.847-1.002.97-1.944a7425.75 7425.75 0 0 0 3.034-15.402c2.494-.046 4.858-1.023 7.158-2.424 7.359 9.36 8.075 22.204 7.641 35.659 7.317 4.656 16.263 3.252 24.991 2.67 17.314.47 25.245 7.828 23.77 22.077-.303 7.454 1.111 14.125 4.248 20.013-4.198-.024-8.195-1.912-11.762-7.884-.367.564-.73 1.129-1.097 1.7 2.032 4.558 4.498 8.043 7.158 11.035.409 1.051.808 2.103 1.213 3.154.081 8.597 1.655 16.26 4.244 23.29 1.055.603 2.103 1.21 3.158 1.82-.41 2.385-.808 4.774-1.214 7.158-1.986-1.4-3.962-2.847-5.948-4.61-.398-.367-.804-.727-1.21-1.094-.388-1.616-1.365-3.235-2.303-4.85-.53-.632-.992-1.31-.97-2.304l-1.821-10.192c-.811-2.381-1.376-5.013-3.154-6.428-4.974-4.61-9.952-9.218-14.919-13.829-1.64 1.874-2.85 5.045-3.76 9.099-.043 1.093-.085 2.183-.124 3.277.06 1.7-.243 3.327-1.09 4.85-.522.607-1.055 1.214-1.577 1.82-3.245 4.788-6.223 9.759-7.278 16.013-.031.597-.151.918-.363.967-.808.487-1.62.97-2.427 1.457-.625.903-1.136 1.827-.847 2.91-3.28-.038-6.55-.08-9.825-.12-.36-.395-.91-.744-.49-1.337 1.083-2.032 3.397-3.757 5.341-5.577 2.127-2.367 3.383-4.854 4.244-7.401 4.396-10.203 5.066-20.06 3.637-29.715-6.4 3.528-17.23 4.671-30.081 4.731.931 3.433 1.439 6.872 1.82 10.308a21.47 21.47 0 0 0 1.7 4.368c1.8 4.134 4.258 7.814 7.881 10.675.325.402.65.808.974 1.213.325.646.646 1.291.97 1.94.367.403.723.808 1.09 1.21.847.854 1.7 1.7 2.547 2.551.223.445.265.89.12 1.334-2.18 1.82-4.363 3.637-6.547 5.457-.427.293-.667.13-.73-.487-.283-2.018-.565-4.04-.847-6.064a2.957 2.957 0 0 0-.847-1.21c-.973-.448-1.764-1.069-2.187-2.064-9.003-8.798-14.64-18.556-19.65-28.628-7.57 7.786-6.16 8.058-6.55 9.825-.18 1.034-.548 1.884-1.09 2.547-5.843 6.424-8.475 13.11-9.95 19.897-.144.73-.338 1.39-.846 1.573-2.363 1.147-3.764 2.738-3.764 4.974l-1.087.85h-8.498c-.53-.176-.907-.352-.723-1.093 2.275-3.147 5.817-5.8 7.532-9.349 2.536-5.252 4.83-10.802 7.567-16.626.303-.646.448-1.355.666-2.043.773-5.175 1.539-10.35 2.308-15.529-.06-1.129-.177-2.261-.604-3.397-.889-2.988-1.778-5.98-2.667-8.975-.585-.97-1.358-1.937-2.31-2.91-1.337-1.334-2.667-2.67-4-4.004a36025.57 36025.57 0 0 1-16.987 10.192c-.91.486-1.923.483-3.03 0-1.277-.752-2.509-1.577-3.398-2.91-.44.077-.889.161-1.33.239-1.965-1.04-3.887-2.18-5.457-4-.572-.734-1.02-1.496-.607-2.428 1.958-7.281 5.726-15.963 9.462-24.62-.565-1.62-1.136-3.242-1.704-4.854.084-.568.165-1.136.243-1.7.646.405 1.295.81 1.944 1.213.32-.325.645-.65.97-.974 1.686 1.337 2.847 2.67 3.76 4.004 11.558 1.486 23.517 4.17 35.666 7.402 1.21-1.094 2.424-2.184 3.638-3.274l3.637 2.667c-.522.564-1.055 1.132-1.577 1.697l4.12 1.46c2.184-1.337 4.368-2.67 6.551-4.004.642-.3 1.133-1.069 1.454-2.307.208-1.175.409-2.346.607-3.517-3.147 1.94-6.305 3.88-9.458 5.824l-4.611-3.277" style="fill:#000;fill-opacity:1;fill-rule:evenodd;stroke:none"/>
</svg>
