<svg xmlns="http://www.w3.org/2000/svg" width="89.999" height="90.006" viewBox="0 0 253.997 254.016">
    <path d="M3.633 118.203 118.187 3.638c4.847-4.85 12.777-4.85 17.625 0l114.55 114.565c4.847 4.843 4.847 12.774 0 17.624l-114.55 114.55c-4.848 4.852-12.778 4.852-17.625 0L3.633 135.828c-4.844-4.85-4.844-12.78 0-17.624" style="fill:#fcd116;fill-opacity:1;fill-rule:nonzero;stroke:none"/>
    <path d="M6.396 120.022 120.008 6.402c3.845-3.845 10.135-3.845 13.984 0L247.6 120.022c3.846 3.845 3.846 10.135 0 13.98L133.992 247.614c-3.849 3.846-10.139 3.846-13.984 0L6.396 134.002c-3.846-3.845-3.846-10.135 0-13.98" style="fill:#000;fill-opacity:1;fill-rule:evenodd;stroke:none"/>
    <path d="M9.947 123.522 123.503 9.952c1.92-1.923 5.07-1.923 6.989 0l113.555 113.57c1.923 1.922 1.923 5.066 0 6.985L130.492 244.066c-1.92 1.923-5.07 1.923-6.989 0L9.947 130.506c-1.922-1.918-1.922-5.062 0-6.984" style="fill:#fcd116;fill-opacity:1;fill-rule:evenodd;stroke:none"/>
    <path d="M147.454 81.075c-6.448-.592-11.465-6.156-11.465-12.657 0-7 5.712-12.707 12.707-12.707 7 0 12.71 5.708 12.71 12.707 0 2.134-.592 4.321-1.59 6.152l-4.526 63.722-46.673.015-19.127 44.82-25.122-9.85 3.891-9.26 14.055 5.073 18.514-42.732 43.395.293.6-8.072-31.426.014v-11.941l32.618-.01 1.44-25.567z" style="fill:#000;fill-opacity:1;fill-rule:evenodd;stroke:none"/>
    <path d="M100.518 172.459c7.87 15.561 24.353 25.813 41.956 25.813 25.81 0 46.86-21.054 46.86-46.863 0-18.126-10.982-34.964-27.369-42.432l-1.062 13.84c9.695 6.113 15.67 17.133 15.67 28.683 0 18.73-15.278 33.998-33.996 33.998-17.149 0-31.772-13.148-33.765-30.011l-8.294 16.972z" style="fill:#000;fill-opacity:1;fill-rule:evenodd;stroke:none"/>
</svg>
