<svg id="W11-12P" xmlns="http://www.w3.org/2000/svg" width="30in" height="24in" viewBox="0 0 2160 1728">
  <rect width="2160" height="1728" rx="135" fill="#fcd116"/>
  <path d="M2025,36H135a99.1106,99.1106,0,0,0-99,99V1593a99.1106,99.1106,0,0,0,99,99H2025a99.11,99.11,0,0,0,99-99V135A99.11,99.11,0,0,0,2025,36Zm45,1557a45.0548,45.0548,0,0,1-45,45H135a45.0549,45.0549,0,0,1-45-45V135a45.0549,45.0549,0,0,1,45-45H2025a45.0549,45.0549,0,0,1,45,45Z"/>
  <g id="EMERGENCY">
    <path d="M151.992,287.9963H287.78v40.4282H193.5346V401.18h59.7586V440.6H193.5346v95.0039H298.94v40.3923H151.992Z"/>
    <path d="M495.7129,414.3205,442.0743,575.9966,388.435,414.3205V575.9966H346.9641v-288H388.435l53.6393,161.6761,53.6386-161.6761h41.471v288h-41.471Z"/>
    <path d="M599.5277,287.9963H735.3158v40.4282H641.07V401.18h59.7586V440.6H641.07v95.0039H746.476v40.3923H599.5277Z"/>
    <path d="M875.0768,440.6H835.7294V575.9966H794.403v-288h85.7134c45.1789,0,75.6342,30.3122,75.6342,76.7882,0,34.3438-14.148,59.6162-41.3629,69.7322l41.3264,141.48h-42.298ZM835.7294,328.4245V401.18h42.3351c24.263,0,37.3313-13.14,37.3313-36.3958,0-22.2482-15.12-36.36-37.2955-36.36Z"/>
    <path d="M1087.2368,581.0364c-26.2082,0-89.3146-4.86-89.3146-148.5359s60.0106-149.5081,86.2539-149.5081c41.6156,0,73.0789,30.2757,75.095,72.72h-41.6155c-1.0081-19.2239-14.1831-32.3641-34.4875-32.3641-13.8953,0-45.6465,4.3559-45.6465,109.188s34.7754,108.1084,48.6707,108.1084c21.3111,0,31.4633-14.04,31.4633-44.46V476.9968h-32.4714V436.5322h74.0869v59.6162C1159.2711,568.2205,1111.8234,581.0364,1087.2368,581.0364Z"/>
    <path d="M1215.8421,287.9963H1351.63v40.4282h-94.2454V401.18h59.7579V440.6h-59.7579v95.0039H1362.79v40.3923H1215.8421Z"/>
    <path d="M1452.0437,383V575.9966h-41.3264v-288h41.3264l78.6583,172.8v-172.8h41.3629v288h-31.2471Z"/>
    <path d="M1748.3758,364.7845c-3.9958-28.296-15.1912-41.4362-34.4875-41.4362-33.48,0-45.683,26.28-45.683,101.0159,0,82.8725,14.22,116.2082,49.7516,116.2082,24.37,0,30.4189-20.2319,30.4189-41.4355h41.6155c-1.0081,47.4834-31.4282,81.8637-72.0344,81.8637-61.8834,0-89.3145-49.5-89.3145-155.6283,0-92.9161,29.412-142.38,86.2539-142.38,52.7745,0,73.691,48.132,75.095,81.7921Z"/>
    <path d="M1936.0818,575.9966h-41.5426V445.6408L1823.621,287.9963H1867.18l48.6341,104.0761,47.6274-104.0761h44.5668l-71.9262,157.6445Z"/>
  </g>
  <g id="SIGNAL">
    <path d="M613.6158,972.6856c22.3193,0,40.57-20.2322,40.57-43.4886-.0358-61.3452-107.5266-61.2019-107.5266-139.5023,0-41.4359,32.4706-74.7362,74.0486-74.7362,40.6058,0,72.0684,31.2841,73.0764,74.7727H654.15c-1.0081-20.1964-15.2273-33.3367-33.4787-33.3367-19.2945,0-34.4859,14.1126-34.4859,33.3,0,17.2444,10.8356,24.1207,24.2624,32.5449,38.95,23.5078,83.3,51.877,83.3,106.9939,0,46.62-35.53,83.88-80.1677,83.88-50.7213,0-81.14-42.9129-81.14-90.0015h40.6423C573.0823,947.6292,585.2131,972.6856,613.6158,972.6856Z"/>
    <path d="M742.16,719.9983h40.3173v288.0031H742.16Z"/>
    <path d="M927.9707,1013.0406c-26.2062,0-89.3111-4.86-89.3111-148.5367s60.0085-149.51,86.2511-149.51c41.6139,0,73.0764,30.276,75.0925,72.7207H958.3894c-1.0081-19.2241-14.1835-32.3644-34.486-32.3644-13.8956,0-45.646,4.356-45.646,109.1891s34.7745,108.1094,48.6694,108.1094c21.3113,0,31.4626-14.04,31.4626-44.46V909.0013H925.9188V868.5356h74.0844v59.6168C1000.0032,1000.2245,952.5574,1013.0406,927.9707,1013.0406Z"/>
    <path d="M1097.5373,815.0032v192.9982H1056.212V719.9983h41.3253L1176.1937,892.8V719.9983h41.3618v288.0031h-31.2463Z"/>
    <path d="M1379.0671,929.197h-61.7725l-19.2594,78.8044h-41.5416l71.9232-288.0031h40.57l71.8893,288.0031h-41.5415ZM1327.41,888.7678h41.5416l-21.2755-82.8726Z"/>
    <path d="M1480.6154,719.9983h41.5416v249.59H1627.56v38.413H1480.6154Z"/>
  </g>
  <g id="AHEAD">
    <path d="M700.03,1361.1964H638.0678L618.7492,1440H577.08l72.1449-288H689.92l72.11,288H720.36Zm-51.8158-40.4287h41.6692l-21.34-82.8711Z"/>
    <path d="M921.4643,1309.6436H842.53V1440H801.0778V1152H842.53v117.2162h78.8982V1152h41.4889v288h-41.453Z"/>
    <path d="M1025.0848,1152h136.202v40.4275h-94.5327v72.7563h59.94v39.4207h-59.94v95.0032h105.727V1440H1025.0848Z"/>
    <path d="M1320.0316,1361.1964h-61.9624L1238.7506,1440h-41.6693l72.1456-288h40.6947l72.1089,288h-41.6692Zm-51.8159-40.4287h41.6693l-21.3408-82.8711Z"/>
    <path d="M1421.0805,1440V1152h82.4358c17.6216,0,79.4037.8635,79.4037,143.4966,0,130.5-57.0517,144.5034-75.9732,144.5034Zm73.8425-247.5725h-32.39v207.145h28.8146c33.7983,0,51.0947-14.7239,51.0947-102.061C1542.4422,1196.3165,1517.13,1192.4275,1494.923,1192.4275Z"/>
  </g>
</svg>
