<svg xmlns="http://www.w3.org/2000/svg" width="1620" height="1080" viewBox="-1 -0.876 1620 1080" xml:space="preserve">
    <path style="fill:#fcd116;fill-rule:nonzero;stroke:none" d="M1619 944.124c0 74.558-60.438 135-135 135H134c-74.558 0-135-60.443-135-135v-810c0-74.558 60.442-135 135-135h1350c74.563 0 135 60.442 135 135v810z"/>
    <path style="fill:#000;fill-rule:nonzero;stroke:none" d="M134 1045.374c-55.83 0-101.25-45.42-101.25-101.25v-810c0-55.83 45.42-101.25 101.25-101.25h1350c55.825 0 101.25 45.42 101.25 101.25v810c0 55.83-45.425 101.25-101.25 101.25H134z"/>
    <path style="fill:#fcd116;fill-rule:nonzero;stroke:none" d="M134 1011.624c-37.22 0-67.5-30.281-67.5-67.5v-810c0-37.22 30.28-67.5 67.5-67.5h1350c37.225 0 67.5 30.28 67.5 67.5v810c0 37.219-30.275 67.5-67.5 67.5H134z"/>
    <path style="fill:#000;fill-rule:nonzero;stroke:none" d="M979.016 449.125V224.124h36v225.001h-36zM1069.016 449.125V224.124h35.48v191.845h104.075v33.156h-139.555zM496.65 255.704v193.42h-35.679v-193.42H409.43v-31.58h139.555v31.58H496.65zM681.424 263.599c-5.525-3.159-8.684-3.947-20.526-3.947h-42.635v55.262h42.635c11.053 0 15-.789 20.526-3.946 8.687-4.738 14.214-14.213 14.214-23.685 0-9.474-5.527-18.948-14.214-23.684zm15.791 185.526-36.318-97.895h-42.635v97.895h-35.528V224.124h74.215c17.371 0 29.212 1.58 40.266 7.106 19.739 9.474 33.95 33.158 33.95 56.053 0 23.685-14.211 47.368-34.739 56.842l39.478 105h-38.689zM849.981 286.494l-23.026 63.157h45.259l-22.233-63.157zm57.17 162.631-22.232-63.157H814.25l-22.234 63.157h-38.112l77.815-225.001h35.732l77.815 225.001h-38.115zM975.504 854.126l-86.06-152.368v152.368h-35.528v-225h35.528l82.111 143.684V629.127h35.529v225h-31.58zM763.916 854.126v-225h35.999v225h-35.999zM521.149 854.126l-36.319-75-36.318 75h-40.267l56.057-116.055-52.108-108.947h40.266l32.37 67.108 32.374-67.108h40.264l-52.9 108.948 56.848 116.055H521.15zM1138.697 858.074c-33.948 0-53.687-12.631-67.11-41.053-9.475-19.738-15-47.37-15-75 0-36.315 10.262-71.842 25.263-91.58 13.424-16.578 32.372-25.262 57.638-25.262 34.74 0 55.267 14.211 70.267 49.736l-33.95 13.42c-9.475-19.736-18.949-26.841-36.318-26.841-18.16 0-30.002 7.896-37.898 27.633-5.528 13.42-8.685 33.945-8.685 52.895 0 23.682 3.947 47.368 11.053 61.577 7.105 12.633 17.37 18.159 30.793 18.159 22.895 0 39.477-14.211 39.477-34.736v-9.475h-41.057v-35.525h76.585v45c0 41.052-30 71.052-71.058 71.052zM595.166 760.968V725.44h112.5v35.528h-112.5z"/>
</svg>
