<svg xmlns="http://www.w3.org/2000/svg" width="89.985" height="90.001" viewBox="0 0 253.958 254.003">
    <path d="M3.362 118.76 118.716 3.404c4.54-4.537 11.942-4.537 16.482 0L250.553 118.76c4.54 4.537 4.54 11.938 0 16.478L135.198 250.597c-4.54 4.54-11.941 4.54-16.482 0L3.362 135.24c-4.48-4.48-4.484-11.994 0-16.478" style="fill:#fcd116;fill-opacity:1;fill-rule:nonzero;stroke:none"/>
    <path d="M5.676 121.021 120.978 5.723c3.27-3.27 8.69-3.263 11.96 0L248.236 121.02c3.274 3.274 3.26 8.682 0 11.96L132.938 248.278c-3.278 3.263-8.682 3.27-11.96 0L5.676 132.98c-3.256-3.277-3.27-8.685 0-11.959" style="fill:#000;fill-opacity:1;fill-rule:evenodd;stroke:none"/>
    <path d="M8.922 124.184 124.139 8.967c1.524-1.574 4.114-1.574 5.638 0L244.99 124.184c1.574 1.52 1.574 4.113 0 5.634L129.777 245.03c-1.524 1.577-4.117 1.58-5.638 0L8.922 129.818c-1.57-1.52-1.57-4.114 0-5.634" style="fill:#fcd116;fill-opacity:1;fill-rule:evenodd;stroke:none"/>
    <path d="M144.211 98.399h13.751v30.515l-13.75 4.692V98.399zm6.516 58.709a10.698 10.698 0 0 1-6.629 2.713v-9.342l6.629 6.629zm3.591-7.416a10.71 10.71 0 0 1-2.797 6.63l-6.636-6.63h9.433zm-2.755-7.785a10.664 10.664 0 0 1 2.755 6.67h-9.433l6.678-6.67zm-18.7 6.67a10.675 10.675 0 0 1 2.712-6.628l6.629 6.629h-9.342zm2.755 7.702a10.715 10.715 0 0 1-2.749-6.587h9.335l-6.586 6.587zm7.373-15.233h-.332l-4.946-.939c-.483.318-.931.67-1.351 1.048l6.629 6.636v-6.745zm7.708 0h-6.6v6.745l6.677-6.675c-.028-.02-.056-.042-.077-.07m-11.554-1.729 3.694.73-.007-1.675c-1.302.099-2.55.42-3.687.945m57.203 17.95a10.675 10.675 0 0 1-6.628 2.712v-9.341l6.628 6.629zm3.584-7.416a10.743 10.743 0 0 1-2.794 6.636l-6.632-6.636h9.426zm-2.751-7.786a10.706 10.706 0 0 1 2.755 6.678h-9.43l6.675-6.678zm-1.831-1.619c.363.254.716.536 1.04.833l-6.67 6.67v-6.903h5.63v-.6zm-13.374.875c.095-.095.205-.187.31-.275h6.319v6.904l-6.629-6.63zm-3.503 7.422a10.745 10.745 0 0 1 2.716-6.628l6.63 6.628h-9.346zm2.759 7.694a10.718 10.718 0 0 1-2.752-6.586h9.338l-6.586 6.586zm7.373 3.542a10.772 10.772 0 0 1-6.59-2.755l6.59-6.586v9.341zM59.149 115.402c-1.41.833-2.974 1.31-4.808 1.15l-2.226-.426-1.185-.822-.621-.854.416-.6 2.223-.55.663-.113.49-.205 1.782.173 1.11-.144.848-.283.289-.123.173.282.663 2.004c.116.296.074.215.183.511m54.05 19.678-2.957-.642-.194 1.394v1.467l.145.667.649 1.069.55.667.79.518 1.468.681 1.344.695.25.296.16 1.27.927 3.458 1.076 2.984 1.062 2.226.833 1.26.853.952.455.565.11.68-.16.695.16.441.352.173.367-.158.247-.184.805-.208.649.123.695.664.345.84.364 1.026.271 1.453v.822l-.331.392-3.274-1.626-.455-.614-.378-.695-.504-.512-.635-.296-.723-.205-.558-.331-.455-.55-.44-1.186-1.108-2.593-1.323-2.699-1.126-2.067-.769-1.235-.73-.903-1.249-1.136-1.1-.882-1.221-1.185-2.254-2.004-1.88-1.213-1.338-1.083-.194.78v1.689l.223 1.693.709 1.69.194 1.26.06.522-.145.409-1.33 1.171-4.304 3.644-1.661 1.852-1.09 1.323-.632 1.09-.367.586-.515.303-.49.06-.13.187.253.441.395.49.145.667-.078.565-.08.49-1.592 1.112-1.175.578-.9.24-.599-.159v-.345l.586-2.576.218-.427.477-.945.331-.68.014-.71.145-1.062.522-.723 1.04-.868 1.31-1.171.772-.71 1.404-1.58 1.613-1.975.793-1.133.247-1.439-.342-.998-.917-2.163-.695-1.69-.49-1.344-.586-2.603-.085-2.847-2.656 1.192-2.942 1.055-3.722 1.062-4.555 1.344-2.24.392-2.279.007-.324 3.453-.268 2.46-.085 3.442.29 1.545.585.999.882.758 1.503 1.136 1.555 1.027.73.709.174.54.123.68.462.36.505-.05.331-.31.71-.338.507.099.836.6 1.013 1.135.744 1.69.124.646-.268.254-.794.014-1.8-.219-1.072-.36-.945-.427-1.027-.645-.635-.462-.868-.85-.882-1.013-1.686-1.736-2.198-1.845-1.076-.938-.476-.688-.296-.98-.145-1.659c-.211-1.09-.144-.829-.282-1.69l-.095-.776-.318-2.056-.346-2.382-.412-3.08-1.136-.426-.05.508-.673.476-2.653 2.127c-1.126.6-2.177 1.164-3.253 1.835l-1.076.832-1.418 1.126-.84.769-.712 1.047-.646 1.323-.772 1.958-.332 1.831v1.344l-.19 1.263-.223.914-.342.317-.243.526.144.709.332.233.268 1.157.05.758-.586.896-1.186.967-1.213.586-.999.247-.49-.173.085-.71.473-2.444.395-.586.317-.808.039-.818-.014-1.171.194-1.298 1.026-3.045.406-1.626.759-3.397.243-1.186.487-.674.695-.695.44-.426.576-.724 2.935-4.459.942-1.337.254-.462v-.317l-2.403-4.294-.137-.913.137-1.468.4-1.736v-1.203l-1.468-3.855-1.253-4.18c-.973 1.114-2.55 2.126-4.776 1.562-.904-.138-1.563-.519-2.466-.663l-1.994-.992-.709-1.252-.476.145-.268-.036-.487-.14-.698-.364-1.15-.363-.13-.413-.333-.028-.268-.49-.074-.809v-.412l.124-.642.05-.713.218-.614.68-.427.837-.395 2.699-2.448 1.263-1.312.045-.65.353-.377.737-.392 1.82-1.298 1.341-.882-.144-.254-.928-1.344-.395-.783v-.826l.25-.127.66.537.698.684.935.392-.289-.95-.123-.93.254-.406h.553l.537.673.804 1.076.758.66.54.67.536.798L71.518 112.3l3.831 2.17c2.01-.085 2.335.68 3.309.935l19.131-.356 1.277.536 2.156.504 2.956 1.2 1.714.913 1.599.336h1.125l1.178-.202h2.184l1.7.565 2.04 1.185 1.262 1.059 1.246 2.035.635 2.466.504 4.424.145 2.667.268 1.88-.092.572 16.972 3.63a12.307 12.307 0 0 1 6.167-2.1l-.166-38.325h-8.11v-4.801h60.8v44.894c3.733 2.145 6.256 6.17 6.256 10.763 0 6.83-5.574 12.397-12.404 12.397-6.826 0-12.393-5.567-12.393-12.397 0-3.14 1.178-6.014 3.122-8.205h-26.92a12.36 12.36 0 0 1 2.973 8.047c0 6.83-5.566 12.396-12.393 12.396-6.83 0-12.396-5.567-12.396-12.396 0-3.754 1.682-7.123 4.328-9.398l-15.585-3.154.624 1.453.843 1.627.977 2.053.49 1.894-.144 1.895-.758 1.199-.565.29-.49.426-1.136 1.531-.208-1.467-.854-2.103-1.245-1.28-1.2-1.468-.271-1.626-.138-1.69-.571-1.489-1.2-1.75-.769-.345-.123-.61zm-2.798-1.756 2.603.564-.109-1.496-.063-2.452.42-2.949-.075-1.834-.635-1.976-.917-1.185-1.26-.695-1.287-.325.702.992.804 2.127.258 1.33v1.481l-.134 2.907-.247 3.07-.06.44zm32.59 26.49a10.715 10.715 0 0 1-6.587-2.749l6.587-6.586v9.335z" style="fill:#000;fill-opacity:1;fill-rule:evenodd;stroke:none"/>
</svg>
