<svg xmlns="http://www.w3.org/2000/svg" width="2942.863" height="2942.854" viewBox="0 -0.764 2942.864 2942.854" xml:space="preserve">
    <path style="fill:#fcd116;fill-rule:nonzero;stroke:none" d="M1566.882 2902.555c-52.712 52.713-138.2 52.713-190.912 0L39.54 1566.118c-52.72-52.713-52.72-138.2 0-190.913L1375.97 38.778c52.712-52.723 138.2-52.723 190.912 0L2903.32 1375.205c52.725 52.713 52.725 138.2 0 190.913L1566.882 2902.555z"/>
    <path style="fill:#000;fill-rule:nonzero;stroke:none" d="M2839.69 1502.488 1503.254 2838.927c-17.537 17.538-46.087 17.538-63.637 0L103.18 1502.488c-17.545-17.55-17.545-46.087 0-63.637L1439.616 102.415c17.55-17.544 46.1-17.544 63.637 0l1336.438 1336.436c17.537 17.55 17.537 46.087 0 63.638zm39.776-103.412L1543.028 62.641c-39.475-39.477-103.712-39.477-143.187 0L63.404 1399.076c-39.476 39.475-39.476 103.713.002 143.188L1399.84 2878.7c39.475 39.475 103.712 39.475 143.187 0l1336.438-1336.438c39.475-39.474 39.475-103.712 0-143.187z"/>
    <path style="fill:#000;fill-rule:evenodd;stroke:none" d="M2073.292 2049.817c-2.987-6.438-5.75-12.85-9.375-18.988-3.375-5.55-1.65-14.437-1.65-20.687 0-13.813-.7-28.607-2.287-42.269-.85-8.463-1.8-16.925-2.763-25.35-.462-4.35 3.088-17.85.65-19.05-5.925-2.95-2.062-35.438-1.412-42 .925-9.088 1.95-12.113-2.525-19.525-3.713-6.288-6-11.45-6.55-18.563-1.1-14.387-4.475-31.512-2.525-45.837.962-7.138 1.65-13.85 3.862-20.65 1.575-4.725 7.25-16.763 5.825-21.775-1-3.6-12.437-11.563-15.912-13.538-6.213-3.537-12.438-6.987-18.588-10.762-8.975-5.463-22.687-10.713-28.275-20.375-8.5-14.938-17.03-29.85-25.605-44.825-6.237-10.875-12.387-21.775-18.825-32.488-7.337-12.262-3.862-27.987-3.325-41.962.238-5.863 6.313-10.95 9.688-15.563 3.862-5.087 6.787-11.137 10.087-16.612 5.825-9.75 17.98-17.35 23.643-26.088 8.5-13.162 13.012-20.1 13.012-35.937 0-15.263 1.875-27.363 5.513-42.113v2.175c3.212-12.737 8.725-28.337 11.012-39.75 3.225-15.375 3.15-29.737 2.45-45.725-.562-13.975-8.6-26.512-15.45-38.275-7.725-13.15-17.25-21.262-27.092-32.525-19.55-22.275-37.188-45.95-56.425-68.352-19.6-22.861-54.1-29.305-82.55-33.38-15.05-2.174-30.013-6.25-45.225-8.501-12.675-1.902-23.875.155-36.538 1.631-16.075 1.862-31.75 3.415-47.987 4.036-12.525.465-28.525 1.63-39.85-3.997-13.163-6.599-27.813-15.877-42.075-19.952-6.163-1.746-13.4-.272-19.475-2.445-8.113-2.988-16.225-5.59-24.563-8.035-28.612-8.385-57.525-16.03-86.575-22.473-15.45-3.415-31.287-13.003-45.862-19.097-12.775-5.357-21.663-14.207-31.988-23.25-10.637-9.355-30.175-9.316-43.487-11.257-13.475-2.018-26.938-4.386-40.25-6.288-14.5-2.057-27.588-9.12-42.313-10.363-13.937-1.165-28.275 4.736-42.386 6.016-4.639.427-15.274 1.009-19.446-1.049-6.308-3.104-9.781-14.671-12.77-20.221-5.92-11.295-14.031-23.523-21.989-33.459-10.557-13.197-26.705-28.49-19.854-46.771 5.842-15.565 32.934-16.536 41.92-30.043 4.483-6.638 4.737-17.816 5.823-25.386.485-3.105 4.191-7.569 3.475-10.209-1.03-3.452-1.806-12.613-4.329-14.942-9.626-8.966-44.289 9.082-47.432 0 11.663.815 25.288-13.663 36.95-16.03 11.413-2.253 28.51 3.104 37.652 9.781 5.924 4.269 7.961 6.599 11.661 12.848 2.763 4.696 9.763 12.381 9.763 18.048 0 16.652-1.488 31.44-3.938 47.86-1.8 11.993-7.55 25.034-6.925 36.873.875 14.167 1.8 28.529 4.575 42.464.625 2.911 1.8 17.04 4.488 17.04 6.85 0 15.362-1.475 21.962.077 8.6 1.978 17.175 3.958 25.775 5.937 8.113 1.864 8.913 5.784 14.813-1.59v1.125c11.175-26.161 21.35-54.146 29.762-81.317 3.95-12.964 10.1-24.647 11.125-38.427 1.025-14.283 3.063-30.158-.075-44.21-3.712-16.65-9.7-27.093-19.312-41.298-7.475-10.947-19.213-19.447-26.238-30.354-3.762-5.861-6.925-12.848-12.437-17.195-6.063-4.774-12.05-9.354-17.488-14.789-10.875-10.906-21.812-21.697-34.037-31.167-7.638-5.94-27.739-16.263-37.966-13.469-14.264 3.881-28.53 8.267-43.26 10.13-6.773.815-13.235 3.61-19.93 4.192-10.403.854-13.314 2.484-21.815 8.657-12.693 9.198-23.017 24.22-33.652 35.671-3.94 4.191-8.656 8.227-12.052 12.885-3.455 4.814-5.511 15.487-13.159 15.487-15.991 0-20.706-19.523-27.48-31.672-14.187-25.54-43.492-39.243-67.519-53.331v1.086c-30.178-20.494-54.747 4.735-75.94 24.104-10.868 9.937-15.682 23.561-22.533 36.215-7.647 14.166-8.52 27.323-8.034 42.89.155 7.102-.641 14.788 1.649 21.542 2.523 7.569-1.65 17.66-3.144 25.345-1.416 7.22-4.269 11.529-8.21 17.934-4.016 6.481-6.133 14.089-8.888 21.192-5.435 14.05-12.847 27.093-19.62 40.6-5.435 10.868-13.236 24.88-22.3 33.032-8.19 7.413-8.112 9.161-18.592 6.132-8.424-2.367-12.363-7.685-18.593-13.934-10.072-10.092-21.27-18.398-31.828-27.908-3.377-2.989-14.012-10.518-17.874-4.153-2.368 3.881 2.679 15.099 4.871 19.058 4.814 8.461 9.549 16.845 14.343 25.268 3.318 5.823 9.703 9.083 14.982 13.082 12.364 9.198 25.035 17.621 37.573 26.51 14.01 9.936 22.22 17.661 39.863 17.661 15.527 0 24.57-.466 37.184-10.636a2128.052 2128.052 0 0 1 20.398-16.535c4.657-3.765 6.073-11.489 8.267-17 5.124-12.694 16.631-20.999 21.523-33.382 5.278-13.196 10.946-26.51 12.906-40.6 13.644 5.823 24.589 13.042 36.079 22.203 12.613 10.091-4.018 24.919-10.792 34.234-6.365 8.617-19.6 18.786-19.776 30.78-.077 12.46 12.848 24.881 18.845 35.321v-2.211c3.144 5.083 8.035 10.635 9.219 16.573 2.272 11.18-.719 10.287-5.92 19.873-8.034 14.711-4.483 28.335-5.123 44.365-.62 14.595-.388 29.227-.388 43.822 0 13.43-.72 30.12 2.212 43.198 2.678 12.312 13.546 27.325 20.941 37.5 8.908 12.187 22.377 18.437 30.49 31.362 3.084 4.888 2.6 12.85 4.812 18.325 3.298 7.95 8.5 15.525 12.595 23.088 2.602 4.737 9.296 6.912 9.705 12.5.62 9.787 1.26 19.637 1.96 29.5 1.027 15.412 4.248 25.425 17.175 34.662 7.18 5.163 7.258 7.563 9.936 15.6 2.426 7.375 6.929 14.213 11.567 20.413 8.034 10.675 14.73 25.2 24.512 34.237 11.488 10.713 22.997 19.563 36.08 28.263 13.233 8.812 21.812 13.925 28.837 28.687 5.201 10.938 11.411 22.075 14.965 33.525 4.636 15.025 7.878 31.675 14.574 45.925 5.279 11.413 16.786 28.8 15.681 41.875-2.446 29.35-4.25 60.938 4.25 89.35 8.19 27.325 20.96 52.675 27.969 80.663 3.387 13.625 5.737 26.312 7.562 40.287 1.65 12.738 5.288 29.075 3.15 41.85-2.287 13.738-10 27.125-15.275 39.825-5.357 12.832-13.41 25.057-16.556 38.782-2.911 12.787-7.491 16.512-19.697 20.937-11.49 4.088-16.148 6.925-20.088 18.675 10.17-.187 19.699 1.1 29.868 0-3.008 4.4-5.92 8.825-8.908 13.25 7.648 3.763 12.925 7.213 21.581 7.763 8.91.575 17.713 1.15 26.625 1.662 8.45.55 16.863.5 25.288.5 6.85 0 16-5.462 22.612-7.712-2.187-5.013-4.012-6.563-1.5-11.188 3.95-7.062 7.963-14.175 11.9-21.275 3.15-5.737 3.15-5.112 9.838-5.425 2.062-.075 16.95.425 17.437-1.25 3.375-12.912 5.513-21.587 3.45-34.812-1.65-10.838-9.225-21.969-13.55-32.019-4.887-11.15-7.237-19.725-9.062-31.675-1.575-10.95-5.125-21.663-5.588-32.613-1.025-24.837-.95-47.812 1.413-72.612v1.087c.95-11.875 2.6-23.525 4.412-35.325v1.125c4.088-3.537 4.738-9.975 7.8-14.512 3.863-5.788 9.863-12.425 9.863-19.688 0-5.737 2.75-13.2 3.212-19.325.563-6.137-.075-12.887 1.65-18.75 8.038-27.325 13.238-58.3 29.313-82.287 8.75-13 11.975-25.225 13-40.988.875-13.237 24.1-12.15 30.412-2.637 8.6 12.85 20.238 18.287 32.375 27.212 11.813 8.688 24.275 15.675 39.088 11.988h-1.113c14.038-1.275 19.213.275 31.988 6.6-.7-.35-1.5-.7-2.213-1.088 13.95 3.575 29.4 2.6 43.413.588 13.95-1.988 25.85-12.15 38.287-.588 11.663 10.913 16.538 21.7 31.988 28.175 7.562 3.15 13.162 7.613 19.7 12.538 5.975 4.512 13 5.6 18.975 10.1 22.762 17.075 48.775 33.337 74.6 45.337 14.35 6.675 27.5 11.288 42.462 15.875 18.438 5.588 24.363 10.938 36.575 25.963 8.025 9.9 16.688 19.75 25.2 29.262 8.038 9.088 3.613 16.963 1.425 28.575-6 32.638-9.537 66.838-20.012 98.35-4.663 13.9-7.963 25.15-7.963 40.338.087 7.525 1.5 15.294 2.2 22.781.638 7.1-2.837 16.313-4.175 23.313-2.45 13.675-16.462 22.062-26.212 30.787-3.788 3.3-10.888 10.125-12.625 14.713-1.1 2.837 0 8.125 0 11.225 0 3.412-2.525 5.862-4.4 8.662.7.375 1.412.738 2.187 1.075-1.725-1-1.412.775-2.187-1.075-10.1 7.713-29.15 17.5-34.813 28.725-8.837 17.613 16.838 15.4 27.4 15.4 16.788 0 33.4-.187 50.188-.887 8.037-.313 5.037-8.363 5.35-15.6.237-5.913-.313-15.45 3.075-20.575 4.5-6.775 7.487-8.2 15.45-8.2 10.162 0 15.912-.688 25.362-4.15 4.563-1.638.713-40.175.713-45.338 0-14.287 6.212-25.762 8.112-39.625 2.038-14.981 4.325-29.894 6.7-44.831 1.65-10.563 3.375-21.088 5.025-31.6-.7.7-1.5 1.475-2.2 2.212 8.275-24.837 11.188-51.2 18.363-76.387 3.687-13.075 6.775-26.75 11.412-39.55 4.588-12.313 12.613-23.763 18.825-35.325 20.113 24.187 39.255 51.037 47.443 81.7v-1.125c2.287 7.925 4.65 15.837 6.925 23.762 1.662 5.55-.313 12.3-.075 18.238.637 14.525-.7 28.65-.163 43.05.488 13.425-1.337 30 4.588 42.537 6.775 14.294 11.9 26.932 11.9 43.12 0 16.7-3.013 30.362-7.575 46.4-3.938 13.574-17.413 21.074-22.45 34.537-2.213 5.937 1.412 11.562-3.075 17.737-4.43 6.063-12.13 11.925-17.255 17.625-4.65 5.188-8.913 10.525-13.238 16.025-1.1 1.45 3.688 7.188 4.725 8.738.938 1.55 5.675.55 7.25.5 19.78-.5 39.543-1.038 59.318-1.738 10.787-.4 11.425-2.375 10.012-13-.875-6.15-2.912-17.162.625-22.525 3.775-5.625 9.063-18.775 14.825-22.162 2.988-1.825 9.125-1.563 12.675-2.138 1.975-.312 3.625-7.087 4.325-9.012 1.663-4.913 19.7-47.188 9.45-47.413"/>
</svg>
