<svg xmlns="http://www.w3.org/2000/svg" width="89.999" height="90.006" viewBox="0 0 253.997 254.016">
    <path d="M3.633 118.203 118.187 3.638c4.847-4.85 12.777-4.85 17.625 0l114.55 114.565c4.847 4.843 4.847 12.774 0 17.624l-114.55 114.55c-4.848 4.852-12.778 4.852-17.625 0L3.633 135.828c-4.844-4.85-4.844-12.78 0-17.624" style="fill:#fcd116;fill-opacity:1;fill-rule:nonzero;stroke:none"/>
    <path d="M6.396 120.022 120.008 6.402c3.845-3.845 10.135-3.845 13.984 0L247.6 120.022c3.846 3.845 3.846 10.135 0 13.98L133.992 247.614c-3.849 3.846-10.139 3.846-13.984 0L6.396 134.002c-3.846-3.845-3.846-10.135 0-13.98" style="fill:#000;fill-opacity:1;fill-rule:evenodd;stroke:none"/>
    <path d="M9.947 123.522 123.503 9.952c1.92-1.923 5.07-1.923 6.989 0l113.555 113.57c1.923 1.922 1.923 5.066 0 6.985L130.492 244.066c-1.92 1.923-5.07 1.923-6.989 0L9.947 130.506c-1.922-1.918-1.922-5.062 0-6.984" style="fill:#fcd116;fill-opacity:1;fill-rule:evenodd;stroke:none"/>
    <path d="M56.167 116.277c-.575-1.411-2.303-3.754-.949-5.21 1.524-2.093 4.092-3.296 5.97-5.035 2.14-1.982 3.777-4.205 5.52-6.52 1.313-2.102 3.708-3.202 5.666-4.571-4.156-.141-10.21 1.601-11.106-4.152.152-1.824 2.985.691 3.997.857 2.28.363 4.692-.304 6.883-.864 1.665-.42 3.651-1.26 5.359-.67 2.046.705 2.007 2.409 3.312 3.739 1.253 1.277 4.59-.914 5.867-1.373 2.307-1.69 2.445 3.09.822 4.107-.487.307-3.51 1.171-1.482 1.99 2.106.705 4.265 1.276 6.47 1.559 2.985.38 5.786-.014 8.693-.667 2.649-.596 4.886-.49 7.546.01 5.757 1.09 11.32 2.135 17.187 2.371 10.915.438 21.865-.547 32.759-1.171 4.36-.247 8.71-1.238 13.063-1.33 2.068-.042 3.99.568 6.03.723 2.024.159 4.402-.413 5.912 1.22 6.766 4.933 6.667 13.643 6.318 21.182-.18 3.933-1.75 8.985 1.344 12.079 2.438 2.444 6.364 4.808 3.969 8.95-1.083 1.859 1.33 7.824-.85 7.842-3.161.028-3.313-3.778-3.5-5.962-.254-3.006-2.582-5.196-3.898-7.744-1.055-2.039-.282-4.893-.222-7.104.07-2.495.007-5-.173-7.49-.19-2.653-.508-5.31-1.051-7.916-.31-1.468-.872-5.726-2.346-6.548-.269-.152.917 5.341 1.061 5.955 1.013 2.727 1.352 5.623 1.277 8.52-.12 4.716-1.718 9.786-1.262 14.464.208 2.159 1.855 3.122 2.935 4.79 1.323 2.04.303 3.891-.378 5.941-1.735 5.168-.8 10.372-.113 15.628.194 1.44 1.634 4.664.194 5.761-1.961 1.503.085 3.694-1.02 5.644-.948 1.68-12.297 2.3-11.479-.084 1.546-1.51 3.796-2.22 4.865-4.209 1.04-1.93 1.2-4.815 1.358-6.967.37-4.989-.984-11.466-4.632-15.177-2.43 4.318-4.25 8.1-5.069 13.028-.31 1.845-.353 4.389-1.28 6.043-.89 1.591-2.615.882-2.971 3.197-.123.765-.116 1.534-.152 2.307a34.142 34.142 0 0 1-3.796.691c-1.703.205-4.995 1.02-6.59.29-1.301-.607 4.206-4.992 4.84-5.832 2.258-3.023 3.243-6.82 4.94-10.178.825-1.658 1.259-4.533.564-6.304-.557-1.418-2.826-.31-3.175.713-1.584 4.512-2.84-.59-5.782-.113-1.108-.212-1.337 1.827-2.55 1.965-.921.102-1.493-.702-1.592-1.503-.137-1.115-1.206-1.59-2.067-2.155-1.411-.925-2.988-1.94-4.16-3.168-1.04-1.094-3.054-.37-4.409-.357-4.096.046-7.877-1.132-11.846-1.841-2.575-.455-6.325-.73-8.76.44-3.838 1.85-3.323 9.162-3.4 12.648-.05 2.219-.357 4.777.095 6.96.335 1.62 1.796 3.433.995 5.133-.37.804-1.5.318-1.955 1.097-.345.6-.374 1.514-.487 2.184-.448 2.653-4.106 2.025-6.304 2.279-.395.042-6.512.938-4.745-.963 1.535-1.358 3.348-2.385 4.551-4.082 1.99-2.797 2.22-7.144 1.877-10.417-.275-2.583-1.125-4.996-1.88-7.469-1.842 2.442-3.246 6.428-3.63 9.515-.254 2.028.158 5.87-.836 7.51-.321.533-1.514-.02-1.916.946-.335.804-.141 2.081-.62 2.797-.653.97-7.748.455-9.035.508-.441-2.988 2.783-3.422 4.642-4.917 2.72-2.191 2.953-9.233 2.279-12.369-.677-3.168-1.365-5.5-1.2-8.809.096-1.943-3.975-.635-5.369-1.41-2.41-1.359-2.448-4.386-3.16-6.742-1.045-3.472-3.313-6.516-5.451-9.384-3.306-4.438-6.537-11.289-12.64-12.153-2.96-.42-6.075.211-9.056.165-2.466-.045-7.683-.042-8.816-2.818" style="fill:#000;fill-opacity:1;fill-rule:evenodd;stroke:none"/>
</svg>
