<svg xmlns="http://www.w3.org/2000/svg" width="89.999" height="90.006" viewBox="0 0 253.997 254.016">
    <path d="M3.633 118.203 118.187 3.638c4.847-4.85 12.777-4.85 17.625 0l114.55 114.565c4.847 4.843 4.847 12.774 0 17.624l-114.55 114.55c-4.848 4.852-12.778 4.852-17.625 0L3.633 135.828c-4.844-4.85-4.844-12.78 0-17.624" style="fill:#fcd116;fill-opacity:1;fill-rule:nonzero;stroke:none"/>
    <path d="M6.396 120.022 120.008 6.402c3.845-3.845 10.135-3.845 13.984 0L247.6 120.022c3.846 3.845 3.846 10.135 0 13.98L133.992 247.614c-3.849 3.846-10.139 3.846-13.984 0L6.396 134.002c-3.846-3.845-3.846-10.135 0-13.98" style="fill:#000;fill-opacity:1;fill-rule:evenodd;stroke:none"/>
    <path d="M9.947 123.522 123.503 9.952c1.92-1.923 5.07-1.923 6.989 0l113.555 113.57c1.923 1.922 1.923 5.066 0 6.985L130.492 244.066c-1.92 1.923-5.07 1.923-6.989 0L9.947 130.506c-1.922-1.918-1.922-5.062 0-6.984" style="fill:#fcd116;fill-opacity:1;fill-rule:evenodd;stroke:none"/>
    <path style="fill:#000;fill-opacity:1;fill-rule:evenodd;stroke:none" d="m140.141 75.683-12.612 10.054-1.676 14.905-18.256 10.054 1.235-14.904h-1.764L96.75 110.696l-27.87 12.965-2.204 12.259c1.997 2.318 4.092 4.568 6.35 6.615 2.766 2.494 5.704 4.66 8.82 6.702 2.113 1.39 4.286 2.621 6.526 3.793l-.706 2.47-10.318 4.232c-1.468.586-2.936.918-4.498.706-3.33-.448-6.774-1.884-8.82-4.674l-3.969-5.38-2.998 1.676c1.39 2.758 3.03 5.436 5.38 7.496 2.984 2.61 6.921 4.322 10.936 4.322h49.036v-3.97h-18.786l-7.584-2.645.264-2.734h100.277c.456-2.473.71-4.886.53-7.408a25.206 25.206 0 0 0-2.999-10.32c-.85-1.565-1.774-3.118-2.91-4.497-.992-1.185-2.114-2.23-3.264-3.263l4.146-12.436h-7.85l-7.85 10.76h-24.694c.262-4.575.378-9.094 0-13.67-.532-6.593-1.926-13.145-3.792-19.491a90.323 90.323 0 0 0-3.616-10.054c-1.249-2.914-2.656-5.676-4.145-8.467zm-13.053 36.248 2.91 6.88-12.258 10.759-6.968-11.289 16.316-6.35z"/>
    <path d="M127.807 157.973h59.38c-.586.744-1.207 1.46-1.909 2.088-.952.86-2.081 1.57-3.115 2.335-1.294.964-2.162 1.7-3.845 1.7h-39.176c-1.111 0-2.212-.197-3.274-.528-1.301-.406-2.536-1.115-3.743-1.757-1.721-.931-3.118-2.314-4.318-3.838M133.932 76.2c-2.604 2.329-5.786 3.246-9.08 1.972-9.674-3.75 3.312-2.145.599-7.503-.73-1.443-6.131-.787-5.74-2.435.875-3.601 4.251-6.49 7.945-6.752 4.187-.303 7.669 2.276 8.653 6.347.688 2.84-.123 6.353-2.377 8.371" style="fill:#000;fill-opacity:1;fill-rule:evenodd;stroke:none"/>
</svg>
