<svg xmlns="http://www.w3.org/2000/svg" width="3678.161" height="3678.162">
    <path style="fill:#fcd116;fill-opacity:1;fill-rule:nonzero;stroke:none" d="M3675.764-1370.423c65.625 65.625 65.625 173.025 0 238.65L2005.227 538.764c-65.625 65.625-173.025 65.625-238.65 0L96.043-1131.773c-65.629-65.625-65.627-173.025 0-238.65l1670.534-1670.534c65.625-65.629 173.025-65.629 238.65 0l1670.537 1670.534z" transform="translate(-46.822 3090.178)"/>
    <path style="fill:#000;fill-rule:nonzero;stroke:none" d="M1798.41-3009.138 127.864-1338.592c-48.127 48.125-48.127 126.875 0 175L1798.411 506.946c48.125 48.137 126.875 48.137 175 0l1670.55-1670.538c48.125-48.125 48.125-126.875 0-175L1973.41-3009.137c-48.125-48.127-126.875-48.13-175 0zm1797.813 1718.271c21.875 21.875 21.875 57.675 0 79.55L1925.686 459.221c-21.875 21.875-57.675 21.875-79.55 0L175.593-1211.317c-21.877-21.875-21.877-57.675 0-79.55l1670.543-1670.54c21.875-21.877 57.675-21.877 79.55 0l1670.537 1670.54z" transform="translate(-46.822 3090.178)"/>
    <path style="fill:#000;fill-rule:evenodd;stroke:none" d="M1003.325-1395.381c-1.245-11.175-2.484-22.363-3.725-33.55-14.688 1.225-30.961-.725-45.649.5-7.323-61.325 40.602-98.613 87.625-112.8l26.809-21.95 114.815-1.775 91.799-481.589 859.251-14.704v319.83l264.375-44.112 14.688-294.103H2519.8l14.675 308.803 69.788 3.687 95.475 55.138 11 382.337 124.887 25.575c67.525 43.363 113.025 145.625 113.025 255.5 0 153.375-84.375 278.473-187.863 278.473-103.462 0-187.824-125.098-187.824-278.473 0-13.062 1.462-27.2 2.062-36.962l-62.575-52.95-72.712 28.812c10.812 51.3 18.05 109.7 18.05 165.938 0 304.96-166.125 553.685-369.794 553.685-164.675 0-313.45-168.7-355.388-399.988l-241.812-61.247c-56.688 148.51-177.663 245.01-309.273 245.01-187.452 0-340.333-191.338-340.333-425.923 0-148.075 62.48-286.162 162.137-363.162zm348.781-165.9 44.063-374.975 301.112 15.522-14.687 392.553-330.488-33.1zm459-360.272-7.337 393.372 238.675-62.5v-352.93l-231.338 22.058zm289.981 1315.257c-70.306 0-127.63-138.35-127.63-307.973 0-169.625 57.324-307.975 127.63-307.975 70.275 0 127.613 138.35 127.613 307.975 0 169.623-57.338 307.973-127.613 307.973zM1158.274-959.42c-1.398 10.225-2.933 23.475-2.933 35.325 0 66.763 35.28 121.223 78.54 121.223 40.495 0 74.863-48.773 78.475-107.473l-154.082-49.075zm1626.764 32.05c-28.863 0-52.376-54.462-52.376-121.225 0-66.762 23.513-121.225 52.376-121.225 28.824 0 52.337 54.463 52.337 121.225 0 66.763-23.512 121.225-52.337 121.225z" transform="translate(-46.822 3090.178)"/>
</svg>
