<svg xmlns="http://www.w3.org/2000/svg" width="2942.863" height="2942.854" viewBox="0 -0.764 2942.864 2942.854" xml:space="preserve">
    <path style="fill:#fcd116;fill-rule:nonzero;stroke:none" d="M1566.882 2902.555c-52.712 52.713-138.2 52.713-190.912 0L39.54 1566.118c-52.72-52.713-52.72-138.2 0-190.913L1375.97 38.778c52.712-52.723 138.2-52.723 190.912 0L2903.32 1375.205c52.725 52.713 52.725 138.2 0 190.913L1566.882 2902.555z"/>
    <path style="fill:#000;fill-rule:nonzero;stroke:none" d="M2839.69 1502.488 1503.254 2838.927c-17.537 17.538-46.087 17.538-63.637 0L103.18 1502.488c-17.545-17.55-17.545-46.087 0-63.637L1439.616 102.415c17.55-17.544 46.1-17.544 63.637 0l1336.438 1336.436c17.537 17.55 17.537 46.087 0 63.638zm39.776-103.412L1543.028 62.641c-39.475-39.477-103.712-39.477-143.187 0L63.404 1399.076c-39.476 39.475-39.476 103.713.002 143.188L1399.84 2878.7c39.475 39.475 103.712 39.475 143.187 0l1336.438-1336.438c39.475-39.474 39.475-103.712 0-143.187z"/>
    <path style="fill:#000;fill-rule:evenodd;stroke:none" d="M1725.275 661.384c-8.388 33.478-14.425 67.269-21.638 100.981-3.225 14.858-3.925 29.872-10.162 43.827-7.638 17.131-15.713 33.242-24.813 49.707-8.312 15.014-19.437 27.871-29.987 41.435-3.725 4.744-6.775 9.486-11.138 13.643-7.437 7.095-14.887 14.19-22.3 21.285-12.55 11.957-28.975 18.777-44.137 27.05-13.688 7.447-29.488 3.802-41.638-4.863-4.225-3.056-9.362-6.585-12.3-11.015-1.337-1.999-4.362-4.979-4.75-7.33-.387-2.312 0-6.742-2.387-7.017v-28.185c0-7.88 2.037-15.994 3.175-23.834 2.35-15.603 5.362-31.088 7.8-46.689.7-4.742 1.487-9.486 2.2-14.23.462-3.215 5.6-5.292 8.112-7.095 2.863-2.039 6.113-5.292 9.363-6.586 3.762-1.529 8.662-2.626 12.075-4.861 15.325-10.193 29.125-20.698 43.237-32.575 12.188-10.232 25.175-19.679 37.713-29.402 12.975-10.113 24.3-22.03 36.15-33.437 11.25-10.859 21.987-22.266 32.85-33.518 10.35-10.74 23.4-16.856 36.212-24.305l-3.637 17.014zm-261.788 204.433c-1.85 16.66-3.725 33.281-6.075 49.902-1.262 8.429-2.125 16.151-4.975 24.109-2.787 7.801-5.887 14.034-10 21.207-7.837 13.722-15.412 30.068-26.775 41.358-6.75 6.781-13.525 13.563-20.312 20.345-2.113 2.156-8.5 3.058-11.363 4.116-4.787 1.685-5.487 2.118-10.15.431-4.675-1.646-11.25-2.352-14.075-6.625-4.2-6.31-8.387-12.622-12.625-18.973-2.512-3.724-2.825-9.957-3.875-14.19-1.725-6.822-3.45-13.564-5.1-20.345-2.662-10.664-1.725-23.364-2.512-34.302-.825-11.525.987-22.815 2.437-34.183-7.8 12.152-14.75 23.285-17.8 37.633-3.525 16.308-6.975 31.674-12.587 47.394-.938 2.548 1.1 8.271 1.45 10.898.4 2.508.625 5.096 1.262 7.526 2.425 9.369 4.813 18.699 7.25 28.029 1.725 6.704 4.775 12.976 7.4 19.326 2.788 6.742 7.85 10.741 13.025 15.915l-47.512 8.508 2.425-36.497c-4.513 7.565-8.975 15.131-13.45 22.698-2.588 4.351-5.175 8.663-7.713 12.975-2.125 3.567-2.4 3.371-6.712 4.312-15.363 3.41-32.493 6.389-47.978 3.175a2426.449 2426.449 0 0 0-16.267-3.371c-4.744-.98-4.665-1.92-7.214-6.35-3.41-5.959-6.115-15.21-4.742-21.953 1.528-7.8 3.135-15.523 5.135-23.246 1.41-5.567 2.86-11.094 4.352-16.661.586-2.273.783-6.389 2.273-8.31 9.525-12.78 18.58-26.225 29.205-38.143 11.132-12.466 22.223-25.01 33.473-37.358 7.838-8.624 15.688-17.248 23.563-25.873 5.062-5.566 6.55-6.86 13.675-9.134 8.587-2.783 17.65-6.86 26.512-8.506 9.088-1.686 18.963-1.372 28.213-2.039 20.35-1.45 40.737-6.663 60.65-10.937 4.112-.861 9.562-1.098 13.412-2.861 3.563-1.647 7.013-5.253 10.113-7.567 9.637-7.212 19.2-14.425 28.85-21.638l-4.863 29.205zm-204.55 278.679c0-1.647-.987-7.566.113-8.663 2.787-2.744 5.525-5.527 8.312-8.271 4.438-4.43 11.138-4.705 17.175-6.234l-25.6 23.168zm-66.996-8.546-3.645-8.507-7.291 8.508-3.685-10.938-10.938 14.584-2.43-14.584-12.19 10.938 6.114-19.444c17.954 2.547 35.751 5.175 53.549 8.506l-19.484 10.938zm393.696 804.803a5599.897 5599.897 0 0 1 13.013-26l13.362-10.938c4.95 14.713 9.688 29.525 14.438 44.338 1.762 5.5 4.15 11.488 3.45 17.288-1.063 8.662-2.163 17.287-3.225 25.95-7.05-3.05-16.263-5.25-21.713-10.738-6.787-6.775-11.525-14.113-16.862-22.15-2.15-3.175-4.3-6.35-6.463-9.637-.512-.75 3.525-7.213 4-8.113zM1937.15 772.127c-16.113-2.902-31.825-5.919-48.175-7.095-7.063-.51-14.9-2.157-21.988-1.138-10.275 1.451-20.55 2.901-30.812 4.391-14.7 2.078-29.213 5.567-43.95 7.683-7.638 1.059-17.488.824-24.738 3.606-8.387 3.176-16.775 6.39-25.125 9.565 2.788-8.389 5.563-16.737 8.35-25.127 2.663-7.958 2.625-17.798 3.8-26.108 2.125-14.817 5.925-29.557 7.488-44.454 1.137-10.23 2.237-20.502 3.337-30.772.775-7.528-2.75-16.896-4.125-24.266-.587-3.135-.7-6.899-1.837-9.878-2.275-6.155-5.375-4.9.662-9.095 7.025-4.94 13.525-7.919 21.488-11.329 6.825-2.94 13.637-5.88 20.462-8.78-17.762-2.548-33.362-2.548-51.125 0 0-11.095-5.162-21.64-8.7-32.067-3.087-9.41-7.012-18.425-10.775-27.559 2.038 17.641 2.425 34.458 2.425 52.216 0 4.978 2.675 15.053-2.55 16.74-9.912 3.174-19.825 6.39-29.787 9.564-7.013 2.274-13.638 6.743-20.225 10.114-5.963 3.097-12.15 5.841-17.638 9.839-14.387 10.428-28.15 21.168-43.912 29.362-7.05 3.606-14.038 7.251-21.05 10.859-6.863-31.989-7.05-65.27-9.45-97.885-1.363-18.15-4.275-35.478-7.488-53.431-1.362-7.879-5.525-15.917-8.187-23.403-2.713-7.566-5.1-15.015-7.338-22.736-2.312-8.076-6.425-15.249-10.15-22.778 1.175 16.584 2.313 33.125 4.113 49.63 1.85 17.523 1.962 34.575 1.962 52.254 0 15.445-3.45 31.714-5.562 47.081-2.513 17.954-5.6 35.673-8.9 53.47-1.688 9.212-5.8 18.385-8.663 27.244-2.787 8.625-4.787 17.328-6.862 26.109-1.838 7.8-3.05 14.346-8.263 20.541-7.175 8.466-14.275 16.974-21.412 25.441-6.775-14.896-14.075-29.4-21.913-43.787.625 7.252 1.338 14.544 2.113 21.756.6 5.763 1.225 11.565 1.887 17.288.275 2.743 1.375 6.468.663 9.133-1.05 4-1.638 8.978-3.45 12.663-1.763 3.489-6 5.605-9.288 8.035-5.562 4.077-12 10.31-18.3 13.015-16.862 7.214-33.212 14.819-49.637 23.011-13.213 6.586-28.85 12.858-43.475 15.563-8.263 1.568-16.263 4.43-24.5 2.352-8.85-2.195-17.675-4.625-26.5-7.095-4.35-1.216-4.7-.666-5.725-5.019-.775-3.448-3.4-9.21-2.663-12.7 1.613-7.448 3.3-14.857 4.388-22.383 4.675-32.812 11.45-66.485 21.65-98.12 3.362-10.545 5.562-23.012 10.7-32.85a7076.27 7076.27 0 0 1 16.737-32.263c-13.525 10.545-26.737 20.62-38.85 32.733-5.8 5.801-10.037 14.7-14.662 21.482-3.763 5.566-7.913 10.584-10 17.013-5.675 17.718-10.938 35.163-15.438 53.235-3.725 15.013-10.825 29.675-13.6 44.767-2.087 10.976-3.537 22.226-6.162 33.086a5140.106 5140.106 0 0 0-4.55 18.815c-1.088 4.43-1.4 12.388-3.955 16.23-13.131 19.64-26.383 39.083-40.141 58.332l1.215-1.215-1.215 1.215c-7.292 7.291-12.074 9.132-22.228 6.623-8.31-2.077-13.915-8.937-19.247-15.052-9.957-11.329-11.487-27.558-10.702-41.906.863-17.053-.43-35.203 4.98-51.47 5.957-17.954 12.583-35.164 19.874-52.609.195-.47.353-.901.549-1.333-10.859 10.782-22.973 21.13-32.38 33.243-6.821 8.742-13.603 17.522-20.424 26.265-4.272 5.449-3.646 14.269-4.547 20.934-2.313 16.895-2.04 32.692.117 49.745 1.176 9.447 3.333 18.817 5.018 28.186 1.332 7.37.196 13.916-.588 21.442-.627 5.802-2.901 13.447-1.882 19.287 1.647 9.133 3.253 18.268 4.9 27.402 2.352 13.093 6.272 25.911 9.605 38.769-6.35-1.803-14.23-2.548-19.405-6.781-8.468-7.017-17.013-13.995-25.52-20.973-13.054-10.741-24.187-23.756-35.947-35.907-4.743-4.9-5.92-11.055-8.232-17.484-2.549-7.214-5.293-14.348-7.644-21.639-3.215-9.919-6.429-19.875-9.605-29.754-2.274-7.095-1.764-15.327-2.312-22.657-.432-6.313-.902-12.506-.902-18.818-4.077 6.743-4.86 12.467-6.31 20.268-1.335 7.369-3.176 14.739-3.686 22.226-.627 8.35-.824 15.915-.196 24.226.51 7.41 2.626 13.917 4.665 21.13 8.429 29.362 20.462 57.547 31.086 86.163-8.742-8.114-17.444-16.229-26.186-24.344-7.84-7.291-11.643-12.896-17.013-22.305-10.977-19.17-22.815-37.869-28.656-59.232-3.92 7.84-1.607 16.268-1.02 24.892.51 7.096 1.02 14.113 1.804 21.169.587 5.762 1.215 11.486 1.804 17.209.235 2.078-.237 8.076 1.136 9.801 5.88 7.605 11.8 15.21 17.757 22.815a475.286 475.286 0 0 0 14.897 18.306c5.136 6.036 14.466 10.584 20.855 15.21 14.308 10.31 28.735 20.424 43.238 30.499 12.192 8.506 24.933 18.855 22.11 35.867-1.372 8.352-3.372 16.622-10.192 21.797-6.704 5.017-14.623 8.898-21.756 13.211-15.368 9.29-29.675 19.247-44.22 29.754-5.88 4.271-9.957 7.212-16.74 9.486-8.583 2.861-17.757 5.135-26.067 8.702-16.307 6.94-31.987 13.955-48.962 18.817-7.174 2.038-12.779 9.016-19.169 12.78-7.957 4.665-16.972 8.075-25.285 12.036-5.37 2.587-6.702 14.425-8.585 19.987-.666 2.075 1.373 5.3 2.039 7.25 2.117 5.85 4.195 11.688 6.311 17.525 1.176 3.338 2.391 6.7 3.568 10.038 1.215 3.375.666 8.2 2.587 11.212 1.921 3.1 3.685 7.25 6.233 9.8 4.195 4.275 6.272 5.1 12.035 6.738 4.703 1.337 13.64 4.9 18.306 3.962 6.704-1.45 13.525-3.65 20.424-3.65 7.88 0 14.347.2 21.99 1.813 6.038 1.287 14.506 1.8 19.916 4.5 7.135 3.575 14.27 7.1 21.405 10.662 5.879 2.988 15.679 2.75 22.107 3.85 5.568.975 11.174 1.363 16.348 3.6 7.486 3.213 15.014 6.438 22.54 9.65l-31.674 40.138 19.483-8.5-8.507 10.937 21.913-6.087-19.483 28.037 19.483-7.337-13.406 21.912 23.128-10.937-9.722 10.937 14.584-2.425-8.468 10.938 17.013-2.438-23.13 30.425 25.56-8.512-13.407 17.062 28.03-8.55-17.053 25.563 17.052-6.075-10.976 17.012 19.482-10.937-13.406 25.6 19.521-2.475-17.05 21.875 17.05-8.513-17.05 25.563 30.42-10.938-21.876 19.45 19.444-2.437-19.444 19.487 25.559-10.937-17.053 19.437 25.56-8.5-12.19 19.475 14.62-8.537-8.506 17.05 13.368-10.938-7.292 27.95c7.958-4.825 15.915-9.65 23.834-14.5 1.96-1.137 3.411-3.1 5.253-1.687 4.312 3.287 8.625 6.537 12.897 9.8 3.646 2.775 7.291 5.562 10.938 8.387 1.567 1.175.08 5.838-.118 7.563-.98 8.937-1.334 18.187-2.901 27.05-3.098 17.212-6.076 33.567-6.704 51.005-.587 17.175-2.391 33.987-4.234 51.037-.86 8.275-2.743 15.375-1.45 23.563 1.254 8.2 3.058 16 5.018 24.112 1.725 7.25 2.666 15.475 5.724 22.3 4.272 9.563 8.467 19.138 12.74 28.7 5.958 13.363 15.17 25.238 21.52 38.45 4.118 8.625 8.268 17.288 12.43 25.95 3.838 8.038 3.688 13.213 3.688 22.15 0 17.488.188 34.225 2.388 51.588 1.012 8.35 5.637 17.375 8.312 25.325 2.188 6.625 4.775 12.312 7.913 18.587 3.925 7.8 7.8 15.6 11.725 23.363 9.912 42.487 12.7 83.925 14.462 127.512 27.675 37.438 15.325 106.325 20.625 143.6 30.138 54.1-86.99 114.35 29.625 107.525 97.888-29.875 3.1-41.475 53.475-90.475-1.175-6.425-29.237-70.125-36.1-153.9.425-24.5 1.563-54.762-.4-65.825-2.775-15.525-2.35-32.337-3.45-48.175-1.325-18.15-4.187-35.437-7.362-53.35-3.1-17.287-2.588-34.062-2.588-51.55 0-5.962-1.762-10.425-3.687-16.15 7.412 0 15.6 1.1 22.9-.475 7.875-1.675 15.712-3.287 23.675-4.537 5.525-.913 11.05-1.813 16.575-2.713 4.987-.787 4.787-1.525 6.437 3.338 2.813 8.5 3.013 16.662 3.725 25.587.588 7.413 1.25 13.85 3.088 21.025 2.162 8.188 5.3 16.65 6.475 25.088 1.45 9.912 2.862 19.95 4.312 29.937.938 6.825 4.188 14.038 4.188 20.825 0 7.45-3.563 15.288-4.113 22.888-.662 9.525-.387 19.725-2.2 29.125-.625 3.537-1.8 7.412-2.737 11.412-6.938 16.863-9.063 33.713-1.175 52.45 27.637 42.45 10.35 113.063 17.05 158.45 21.4 29.75-23.05 80.163 8.9 107.875 23.087 0 94.437-12.1 86.512-46.875-28.575-36.025-24.537-30.625-21.637-73.7-10.113-45.2-40.1-90.587-27.125-139.712 16.7-24.113 19.287-41.4 16.975-69.5.075-.55.112-1.1.15-1.65 1.3-17.763 2.625-34.813 5.762-52.3 1.3-7.438 2.95-13.988 2.163-21.475-1.063-9.325-1.85-18.775-3.063-28.15-2.112-16.663-4.975-33.325-7.912-49.863-.988-5.687-2.038-11.362-3.063-17.05 10.35 11.8 20.388 23.75 30.575 35.675 6.713 7.8 13.375 15.563 20.075 23.363 4.275 4.975 10.5 6.512 14.35 12.112 9.913 14.625 19.75 29.163 30.338 43.275 3.45 4.625 6.937 9.25 10.425 13.913 1.45 1.925 4.475 4.625 5.137 7.025.863 2.975 3.025 6.7 1.763 9.637a2042.237 2042.237 0 0 1-6.625 15.413c-5.525 12.937-12.075 25.362-18.338 37.95-1.612 3.212-3.137 7.087-4.512 11.325-6.113 11.4-11.688 22.375-15.138 32.65 4.825 31.6-49.737 53.125-35.862 87.3 9.6 4.9 31.162 12.55 50.412 14.037-2.512 9.05-2.312 18.113 3.725 26.888 19.475 5.137 82.363 10.787 83.375-20.338-16.112-36.7-13.875-31.25-1.875-66.962.7-19.013-2.312-39-3.375-58.838 1.375-12.587 3.213-25.912 5.175-36.737 3.1-17.4 6.738-34.65 10.425-51.9 1.8-8.313 3.025-16.738 4.55-25.05 1.488-8.263 1.25-12.538-.275-20.888-3.212-18.112-6.037-36.225-8.775-54.412-1.1-7.688.938-16.625 1.45-24.3.5-7.175 1.288-13.8 2.538-20.863 3.3-18.537 6.625-37.087 9.925-55.587 1.212-6.9 6.425-13.213 9.875-19.163 3.562-6.312 8.425-12.75 10.737-19.637 5.888-17.65 11.8-33.95 19.838-50.613 7.562-15.637 14.625-31.475 21.637-47.35 5.888-13.175 9.138-27.875 13.563-41.6 5.725-17.912 10.825-35.517 15.412-53.78 3.563-14.275 7.175-29.412 8.225-44.062.713-10.038 1.5-20.038 2.238-30.075.587-8.113-1.1-16.975-1.688-25.088-.55-7.487-1.637-12.737-3.95-19.912-2.4-7.413-3.812-17.488-7.85-24.15-18.062-29.75-36.212-59-49.937-91.025-6.775-15.763-16.075-28.65-25.875-42.725-10.038-14.425-25.088-20.738-40.1-28.5-13.363-6.938-28.925-8.15-43.788-10.35-9.875-1.488-19.8-2.938-29.675-4.388-7.45-1.137-15.45.463-22.887 1.013-7.263.512-13.838.95-20.825 2.675-8.813 2.225-18.925 3.4-27.313 6.812-8.312 3.413-16.312 9.338-24.112 13.763-2.713 1.562-15.375 10.5-18.625 9.375-8-2.825-16.025-6.4-24.263-8.513-9.137-2.35-18.862-3.375-28.187-5.062-14.225-2.5-29.363 1.85-43.75 2.862-7.325.55-14.625 1.063-21.95 1.613-3.288.237-7.013 1.287-10.038-.238a13062.918 13062.918 0 0 0-32.45-16.187l19.475 2.387-19.475-10.937 30.413 2.437c-7.325-4.162-14.738-8.275-22.113-12.387-6.937-3.888-11.162-7.488-16.812-13.138 9.487 0 18.575-1.287 27.987-2.462l-27.987-8.513h14.625l-23.138-14.625h17.025l-25.6-15.8 19.513 2.438-28.025-23.125 31.712 3.637-29.237-18.225 29.237 3.65-42.65-29.208 17.013 3.645-17.013-14.622h17.013l-48.688-26.775c15.913-6.78 28.5-20.03 41.825-30.968 4.988-4.077 8.863-10.153 13.025-15.014 6.85-8.114 13.713-16.19 20.613-24.304 4.275-5.019 11.6-8.115 17.05-11.644 6.2-3.997 12.587-9.29 19.412-12.23 16.15-6.9 31.513-13.17 46.25-22.618 6.275-4.078 15.963-7.998 20.975-13.564 6.313-7.018 12.625-13.995 18.938-20.973 4.587-5.096 9.525-12.936 15.25-16.738 8.425-5.607 16.812-11.212 25.2-16.818 12.512-8.31 27.712-9.996 42.225-13.641 17.012-4.234 33.75-8.468 50.45-13.799 32.187-10.35 60.287-27.676 85.262-50.53 11.838-10.859 21.438-24.265 33.05-35.437 11.638-11.252 22.963-22.973 35.075-33.714 12.275-11.015 24.113-24.696 38.738-32.536 16.937-9.017 33.162-17.132 50.925-24.305 30.1-12.27 62.012-20.737 93.962-26.422 17.525-3.136 34.925-5.056 52.65-6.977l-34.112-7.291z"/>
</svg>
