<svg xmlns="http://www.w3.org/2000/svg" width="89.985" height="90.001" viewBox="0 0 253.958 254.003">
    <path d="M3.362 118.76 118.716 3.404c4.54-4.537 11.942-4.537 16.482 0L250.553 118.76c4.54 4.537 4.54 11.938 0 16.478L135.198 250.597c-4.54 4.54-11.941 4.54-16.482 0L3.362 135.24c-4.48-4.48-4.484-11.994 0-16.478" style="fill:#fcd116;fill-opacity:1;fill-rule:nonzero;stroke:none"/>
    <path d="M5.676 121.021 120.978 5.723c3.27-3.27 8.69-3.263 11.96 0L248.236 121.02c3.274 3.274 3.26 8.682 0 11.96L132.938 248.278c-3.278 3.263-8.682 3.27-11.96 0L5.676 132.98c-3.256-3.277-3.27-8.685 0-11.959" style="fill:#000;fill-opacity:1;fill-rule:evenodd;stroke:none"/>
    <path d="M8.922 124.184 124.139 8.967c1.524-1.574 4.114-1.574 5.638 0L244.99 124.184c1.574 1.52 1.574 4.113 0 5.634L129.777 245.03c-1.524 1.577-4.117 1.58-5.638 0L8.922 129.818c-1.57-1.52-1.57-4.114 0-5.634" style="fill:#fcd116;fill-opacity:1;fill-rule:evenodd;stroke:none"/>
    <path style="fill:#000;fill-opacity:1;fill-rule:evenodd;stroke:none" d="M53.094 16.344c-1.243.07-1.285 2.513-2.125 3.156-.356.273-2.129.608-2 1.281.073.383 1.122.144 1.312.094.42-.11.611-.371.75.125.09.316.158.624.25.938.203.704.47 1.443.969 2 .454.506 1.313.725.688 1.5-.978 1.21-1.688 1.993-1.97 3.593-.097.562-.052 1.55-.437 2-.44.513-1.469.399-2.062.438-1.157.076-2.86-.232-3.844.5-.758.562-1.257-1.152-2.094-.688-1.423.787 1.335 2.242 1.844 2.657-.504.608-1.028 1.204-1.531 1.812-.464.563-.736 1.379-1.469 1.125-.984-.343-2.384-.063-3.406-.063-.845 0-9.344.134-9.344-.156v-4.531c0-.034-1.894-.031-2.094-.031-.268 0-.125 1.051-.125 1.281v2.906c0 .573.042.532-.531.532h-2.938c-.23 0-1.37-.182-1.53 0-.632.717-1.907 1.474-1.5 2.437.604 1.43 1.21 2.854 1.812 4.281 1.152 2.726 2.317 5.432 3.468 8.157-2.84.246-5.125 2.71-5.125 5.562 0 2.782 2.174 5.228 4.938 5.563 2.767.335 5.431-1.51 6.094-4.22a5.657 5.657 0 0 0-.532-4 5.448 5.448 0 0 0-1.25-1.53c-.286-.25-1.406-.76-1.406-1.063 0-.341 3.819-.188 4.375-.188 1.047 0 1.599 1.626 2.563 1.626h7.344c.538 0 .207.733.593.843.561.158.901.122 1.157.657.024.22-.364.734-.47.937-.232.446.693 1.106 1.063 1.125.441.023 1.097-.04.938.625-.04.161-.279.819-.157.938.733.713.716.818 1.72.624.856-.163.28 1.185.874 1.532.147.085.615.484.782.406.23-.105.688-.449.937-.438.605.298.547.473.719 1.126.085.33.326.28.656.374.315.09.494.24.75.032.486-.394.524-.553 1.156-.438.469.855.443.967 1.407 1 .72.027.64-.815 1.312-.843.451-.02.583.322.875.656.225.255.419.125.75.062.95-.18.419-.596 1.063-1.125.617-.169.608-.169 1.124.188.354.246.333.271.72.093.842-.385.77-.48.937-1.406.138-.774 1.341.247 1.687-.031.755-.61.821-.594.75-1.563-.082-1.163 1.263-.13 1.563-.53.61-.822.731-.844.406-1.813-.374-1.11 1.237-.51 1.469-1.063.402-.962.376-.989-.188-1.875-.532-.836 1.247-.888 1.313-1.375.134-1 .146-1.008-.594-1.687-.817-.75.804-1.043.75-1.594-.1-1.047-.138-1.044-1.063-1.563-.515-.29.017-.878.22-1.124.268-.324.297-.295.156-.688-.06-.161-.166-.765-.344-.813-.264-.072-.821-.11-1.031-.28-.325-.688-.24-.724.062-1.407.136-.306-.057-.416-.25-.688-.191-.267-.236-.503-.563-.5-.537.006-.796.127-1.156-.28-.375-.43-.186-.76-.094-1.313.028-.173-.5-.489-.624-.594-.318-.268-.283-.264-.688-.156-.64.173-.664.15-1.25-.219-.164-.289.125-.854-.063-1.125-.137-.197-.688-.359-.906-.469-.271-.139-.455.048-.718.188-.513.274-.526.279-1.094.093.366-.364.685-1.21 1.125-1.343.74-.223.468-.742.468-1.469-.76.011-1.392.579-2.124.719-.022-.13-.042-.275-.063-.407-.184-.986-.707-1.895-.844-2.874-.13-.944.081-1.858.25-2.782.339-1.868.76-3.057-.25-4.75-.294-.488-2.378-3.166-.812-3.312.625-.059 1.226-.255 1.718-.657.21-.167 1.08-1.036.657-1.343-.635-.459-1.66 1.636-2.219.343-.339-.786-.661-1.558-1-2.343-.33-.768-1.609-1.225-2.406-1.375-.094-.018-.167-.005-.25 0zm-6.719 16.968.625.032.344.468 3.375.063-.032.656-.312.219v1l.5.594-2.938 3.062-4.53-1.906 2.187-2.656c.501.38.998.775 1.5 1.156.51.41 1.292-.685.875-1.031l-1.844-1.407.25-.25z" transform="matrix(2.82222 0 0 2.82222 0 0)"/>
</svg>
