<svg xmlns="http://www.w3.org/2000/svg" width="2942.863" height="2942.854" viewBox="0 -0.764 2942.864 2942.854" xml:space="preserve">
    <path style="fill:#fcd116;fill-rule:nonzero;stroke:none" d="M1566.882 2902.555c-52.712 52.713-138.2 52.713-190.912 0L39.54 1566.118c-52.72-52.713-52.72-138.2 0-190.913L1375.97 38.778c52.712-52.723 138.2-52.723 190.912 0L2903.32 1375.205c52.725 52.713 52.725 138.2 0 190.913L1566.882 2902.555z"/>
    <path style="fill:#000;fill-rule:nonzero;stroke:none" d="M2839.69 1502.488 1503.254 2838.927c-17.537 17.538-46.087 17.538-63.637 0L103.18 1502.488c-17.545-17.55-17.545-46.087 0-63.637L1439.616 102.415c17.55-17.544 46.1-17.544 63.637 0l1336.438 1336.436c17.537 17.55 17.537 46.087 0 63.638zm39.776-103.412L1543.028 62.641c-39.475-39.477-103.712-39.477-143.187 0L63.404 1399.076c-39.476 39.475-39.476 103.713.002 143.188L1399.84 2878.7c39.475 39.475 103.712 39.475 143.187 0l1336.438-1336.438c39.475-39.474 39.475-103.712 0-143.187z"/>
    <path style="fill:#000;fill-rule:evenodd;stroke:none" d="M2147.577 1961.26c-3.575-7.1-6.9-14-9.675-21.462-2.8-7.412 1.163-15.5 3.963-22.125 2.937-6.987 6.1-13.3 8.325-20.6 1.737-5.912-6.5-14.387-10.088-19.2-2.2-2.888-4.2-5.862-6.25-8.938-2.875-4.237-2.95-5.624-2.95-10.824 0-2.388 5.075-7.013 6.588-9.013 1.912-2.575 5.8-3.275 7.775-5.975 2.625-3.425 5.637-6 5.637-10.325 0-4.438-3.175-7.412-5.712-10.988a422.563 422.563 0 0 1-5.788-8.474c-.725-1.075-6.275-7.163-6.275-8.013 0-7.75.888-15.375 1.113-23.113.162-3.2.162-6.5-.225-9.712-.5-3.575.462-7.625-.725-10.238-1.588-3.4-2.863-7.174-4.75-10.4-2.95-4.787-3.113-5.55-2.388-10.987 1.188-8.213 2.775-16.15 4.513-24.238.725-3.362.65-5.35 2.312-8.6 1.738-3.574 2.538-8.012 3.725-11.787 1.825-6.075 1.35-14.287-2.462-19.687-1.988-2.925-6.038-5.313-8.738-7.663-2.85-2.5-4.975-6.775-7.212-9.825-3.725-5.125-6.038-12.825-5-19.162.962-5.875 3.262-9.725 6.662-14.55 2.225-3.113 8.738-10.088 8.738-13.788 0-6.1-2.225-11.75-3.888-17.612-.65-2.225-.562-4.163-.562-6.513 0-2.962-1.125-5.512-2.063-8.362-3.8-11.388-2.15-21.7.163-33.213 2.05-10.387 9.125-18.875 15.225-27.275v2.238c2.225-2.2 4.775-4.238 6.35-6.9 1.662-2.775 5.862-7.325 5.862-10.625 0-2.863 1.125-8.1-.15-10.713-2.212-4.362-4.362-8.725-6.587-13.1-6.975-13.95 7.55-29.712 15.325-40.112 3.012-4.075-.388-13.288-2-17.963-2.125-6.425-6.588-14.287-6.588-21.062 0-16.15.5-31.988-1.662-48.013-1.888-14.012-6.975-28.65-14.825-40.375-8.638-12.987-18.888-24.725-28.813-36.675-4.675-5.625-13.412-9.875-19.35-14.15-5.325-3.887-10.637-6.475-16.675-9.362-15.15-7.272-29.437-12.433-45.465-17.514-13.65-4.32-26.25-7.253-40.387-9.754-14.213-2.502-29.2-6.9-43.563-7.409-18.812-.683-37.537-1.348-56.262-2.032-12.288-.43-24.825-1.7-37.138-1.114-62.762 2.971-125.6 6.43-188.45 8.58-63.387 2.131-126.4 8.875-189.675 14.114-28.162 2.384-56.737 2.814-84.187-5.239-28.888-8.522-57.85-21.815-80.375-42.416-11.513-10.495-22.375-21.169-31.9-33.561-9.513-12.452-16.825-26.29-24.193-40.148-6.352-11.865-11.043-27.815-13.33-40.95-.802-4.515-1.603-8.991-2.385-13.526-.567-3.049 6.665-3.088 9.05-3.597 6.02-1.348 14.583-5.687 19.745-9.088 11.513-7.623 20.638-18.53 27.85-30.043 1.838-2.932 3.65-5.825 5.475-8.717.325-.528-7.6-6.353-8.487-7.018-4.688-3.772-10-7.466-15.4-10.125-13-6.547-25.39-12.06-39.583-15.364-14.287-3.283-27.46-4.397-42.14-4.397.155.996-.235 1.7-1.115 2.229-.079-5.435-6.51-14.212-8.952-19.137-3.42-6.743-6.841-13.37-12.314-18.803-10.379-10.42-20.465-19.39-33.64-26.33-13.486-7.075-26.895-13.897-41.887-17.454-14.523-3.46-30.16-7.936-45.31-7.231-7.544.35-15.402.116-22.848 1.152-7.78 1.075-16.674 1.075-24.219 3.284-15.538 4.691-29.592 10.007-44.35 16.672h1.037c-17.847 8.973-34.364 20.662-48.887 34.48-4.593 4.36-40.617 44.468-35.612 47.85-15.638-1.603-30.004-.918-45.388 2.17-6.997 1.387-14.678 5.96-21.187 8.854-7.233 3.205-13.175 7.095-19.528 11.825-2.15 1.623 19.195 33.601 22.694 37.216 5.081 5.2 13.488 8.953 19.528 12.96 5.16 3.5 11.57 9.694 17.532 11.59 8.014 2.58 16.106 5.123 24.12 7.703-5.239 14.991-10.321 30.023-15.149 45.19-1.837 5.826-3.655 13.291-7.153 18.238-4.75 6.88-9.52 13.74-14.367 20.6-3.636 5.318-9.988 11.592-11.65 17.965-1.113 4.573-1.758 6.82-.8 11.317.957 4.241 2.072 7.213 4.045 11.101 1.583 3.225 2.62 7.057 5.63 9.09 1.27.8 4.222 2.013 4.925 3.284 1.35 2.15.548 2.951-.39 5.688-2.386 7.173.312 14.112 3.967 20.23 3.89 6.472 8.17 11.022 15.305 13.872 4.926 1.962 3.42 4.463 3.42 9.6 0 3.538.705 6.85 1.35 10.325.78 4.275.78 4.725 4.202 7.313 2.386 1.812 4.515 3.85 7.369 4.712 8.659 2.65 17.299 5.313 25.957 7.975 5.708 1.788 14.523-.825 20.467-1.387 6.273-.55 11.432-2.788 17.375-4.976 6.352-2.287 15.716-3.887 21.266-7.8 6.275-4.412 12.549-8.85 18.804-13.25 1.036 4.288 9.285 6.663 12.705 8.563 4.125 2.188 7.7 5.95 11.258 8.863 7.468 5.937 12.784 13.6 18.18 21.337 11.668 16.65 12.372 36.338 12.372 55.763h1.113c-1.113 34.287-2.15 68.612-3.245 102.937-.41 13.4-.8 26.85-1.19 40.263-.157 5.587 2.852 12.65 4.2 18.037 1.898 8.138 3.813 16.325 5.71 24.463.878 3.475.644 7.562.878 11.137.312 3.85 1.74 6.588 3.655 10.05 1.896 3.513 2.932 5.35 6.411 7.088 3.421 1.7 8.738 3.175 11.123 6.312 4.515 6.025 5.55 14.238 6.9 21.625 1.505 8.438 4.847 13.913 9.596 21.063 1.584 2.375 7.39 3.412 10.086 4.475 3.558 1.437 7.448 1.937 11.259 2.787 2.306.5 5.161 6.113 6.9 7.813 2.697 2.737 6.587 4.812 8.894 7.825 4.202 5.512 6.273 13.912 8.97 20.225 3.48 8.175 6.98 12.25 15.697 14.762 4.848 1.388 7.779 2.613 11.904 5.588 4.535 3.225 4.612 4.725 4.612 10.275 0 4.325-.233 7.975-1.113 12.225-.548 2.925-2.933 9.162 1.036 10.75 4.045 1.575 8.249 5.2 12.295 6.225 1.426.362 4.849-.875 5.786.312 1.583 2.15 3.029 3.9 3.966 6.325 1.995 4.9.412 9.2-.468 14.4-.802 4.438-.392 8.95-.392 13.45 2.542.113 4.985 3.238 6.98 4.825 3.967 3.263 7.934 6.55 11.903 9.85 1.739 1.425 5.941 3.438 6.665 5.363 1.114 2.812-2.463 7.25-3.733 9.675-7.29 14.562-11.905 30.35-17.298 45.7-2.385 6.662-1.193 16.625-1.662 23.687-.41 5.9-.723 11.825-1.115 17.725-.547 9.663-1.113 19.338-1.66 28.975-.333 4.875-10.478 8.238-14.523 11.325-25.08 18.788-45.954 44.925-51.193 76.475 33.093-.038 66.34 1.425 99.433 2.125 3.81.075 10.945-.113 12.372-3.6 1.916-4.487 3.811-8.962 5.728-13.437.39-1.075 2.52-8.238 4.046-8.55 3.322-.663 6.097-1.038 9.519-1.038 2.775 0 10.476 1.45 12.685-.225 4.043-3.05 4.118-3.487 4.118-8.487v-12.3c0-1.875-1.012-9.813 0-11.238 1.125-1.462 2.775-.387 3.588-1.35 1.425-1.775 2.85-3.475 4.2-5.312 4.85-6.55 5.625-12.338 5.625-20.5 0-7.275.25-14.763 1.275-21.95.637-4.563 1.262-9.113 1.912-13.688.475-3.05 4.275-5.625 5.713-8.362.637-1.388.225-3.613 2.225-3.388 1.5.263 1.812 4.125 2.05 5.125.65 2.575-2.213 9.4-2.775 11.988-1.5 6.5-.388 13.925-.388 20.637 0 7.813.238 15.025 1.188 22.775.787 7.088.787 14.638 3.087 21.413 1.113 3.4 4.613 20.2 7.938 20.425l-1.113 1.125v-1.125c-16.575 8.25-30.225 17.95-43.315 31.025-5.648 5.687-10.867 15.287-14.523 22.337-4.358 8.375-6.665 16.563-8.893 25.588 31.819-.35 63.569-.7 95.381-1.113 2.863 0 4.6-.312 7.375-1.212 1.988-.688 4.05-1.35 6.038-2.025.787-.275 0-4.713.162-5.638 1.5-6.862 6.5-13.975 9.05-20.675 1.263-3.325 3.238-5.862 5.313-8.8 3.562-5.2 3.012-4.275 9.025-5 7.075-.837 15.412-3.462 22.225-5.55 2.775-.887 5.475-2.075 8.175-3.05 1.737-.687 1.662-4.812 1.987-6.512 1.1-5.65-.8-9.013-1.337-14.638-1.2-11.787-4.05-22.537-8.738-33.45-8.412-19.762-10.075-42.487-11.187-63.6l1.112 7.775c0-14.162 10.388-28.087 24.438-30.9 2.7-.562 5-3.412 6.975-5.075 3.812-3.112 7.625-6.237 11.362-9.325 2.775-2.275.7-4.362-.412-7.662-1.35-4.163-1.2-7.588-1.2-11.988 0-3.812-1.088-7.175-1.975-10.862-.463-1.738-1.188-7.513-.225-8.738 4.125-5.437 14.987.563 19.425-3.887 2.462-2.488 5.887-4.6 6.425-8.138.65-4.475 1.587-7.725 3.275-11.937 1.35-3.325 2.287-6.138 5.312-8.288 2.125-1.475 8.25-5.125 8.875-1.112 4.613-4.6 8.738-8.563 12.063-14.113 3.725-6.237 1.35-11.2-.625-17.387-2.238-6.625 5-7.463 5.462-13.088.313-3.625.625-7.237.888-10.837.237-2.813 3.5-5 3.412-7.975 1.925-.113 8.838 15.912 10.888 18.612 1.687 2.213-.85 6.475.812 8.913 2.925 4.462 4.513 6.275 9.125 9.012 2.288 1.35 8.013-.35 10.4-.737 4.2-.725 5.313-4.925 7.213-8.275 1.575-2.7 6.187-4.363 8.712-5.975 2.313-1.388 9.125 1.7 11.675 2.337 6.425 1.625 10.788 8.638 17.788 9.638 8.637 1.237 15.375.4 23.962-1.15 2.363-.425 3.638-5.313 5.313-7.013 3.95-3.975 5.712-4.575 11.187-5.962 4.2-1.025 4.038 3.612 5.313 6.187 1.112 2.425 4.512 7.588 6.825 9.013 2.687 1.662 5.387 3.362 8.087 5.05 2.075 1.35 3.738 1.425 6.038 2.55 4.287 2.15 4.675 2.275 9.112.762 2.788-.912 5.163-2.3 7.7-3.687 5.475-3.013 10.55-4.95 16.513-6.938 6.025-2.012 10.787-.662 16.575.95 5.162 1.475 9.45 5.75 14.6 7.45 5.012 1.688 12.687 1.313 17.15-2.05 3.087-2.262 5.075-3.425 8.712-4.612 3.188-1.05 5.813.25 9.05 1.037 5.475 1.388 11.513 3.3 16.425 6.075v-1.112c1.438 0 6.663.737 7.85-.075 3.35-2.313 6.588-4.613 9.938-6.863 5-3.462 9.75-7.237 14.987-10.2 11.175-6.4 22.3-16.537 36.175-16.262l-2.225 1.112c3.113 4.863 6.275 9.75 9.388 14.638 2.362 3.637.55 9.675 4.512 11.937 5.625 3.213 9.513 4.05 16.025 5.113 5.238.875 9.05 4.3 13.413 7.262-3.738 5.588-5 9.213-6.438 15.8-1.112 4.975 1.275 12.013 1.925 17.038.463 3.425 6.738 8.237 8.95 11.4 3.5 4.887 6.663 10.637 11.2 14.712-4.537 2.975-6.587 4.25-8.975 9.013-1.037 1.937-5.237 9.675-4.362 11.112 4.987 7.7 9.675 15.1 15.55 22.138-6.413 2.537-7.763 5.4-11.738 11.137-3.887 5.563-3.812 7.513-3.812 14.45l-2.3-2.225c0 6.275-1.813 15.513.15 21.425 2.775 8.425 5.55 16.788 8.412 25.188.95 2.862 1.763 5.775 2.613 8.662 1.512 5.125-.7 5.063-4.975 8.4-5.325 4.125-10.638 9.763-16.038 12.45-13.887 6.963-26.187 16.15-34.587 29.525-8.175 12.938-11.6 28-12.95 43.013-.15 1.625-.313 3.212-.463 4.837 5.788 0 11.338.113 17.038-.825 7-1.15 13.75-2.537 20.8-2.537l-1.113 1.112c18.575-.887 37.063-1.112 55.625-1.112v2.262c6.588-4.962 12.613-9.012 17.538-15.6 5.087-6.737 6.9-13.012 6.9-21.3 0-3.737-.625-5.887 2.075-8.5 3.962-3.975 4.037-4.75 9.437-4.25 8.488.763 12.763 3.263 20 7.55 5.313 3.2 12.525 12.525 18.8 6.238 1.188-1.163 6.825-5.738 6.425-7.788-.875-3.775-1.262-7.9-3.025-11.387-1.5-3.088-3.637-5.95-3.637-9.45 0-5.625.787-6.588 4.2-11.138 2.237-3.05 4.675-5.925 7.137-8.812 3.263-3.813 4.7-3.775 2-8.45-2.237-3.963-2.625-6.9-3.262-11.438-.475-3.087-3.638-6.85-4.525-10.25-1.988-8.1-.313-14.45 2.237-22.275v1.125c3.163-7.975 5.063-14.6 6.488-23.112.412-2.813-1.738-5.175-2.213-7.975-.562-3.513-2.075-7.563-2.075-11.1 0-6.513 2.238-14.95 8.325-18.25 3.9-2.063 7.713-4.163 11.6-6.225.563-.313 7.313 8.687 8.088 9.6 3.812 4.737 7.625 13.062 7.625 19.112 0 8.388-4.613 16.113-7.7 23.813-2.463 6.075 5.387 13.287 8.737 18.487 1.35 2.113 5.238 4.6 5.7 7.063.888 5.35.963 6.587-1.5 11.437-1.35 2.775-6.587 9.95-2.937 12.8 4.437 3.463 8.8 6.913 13.262 10.4 2.688 2.063 10.938 6.35 12.213 9.55 1.35 3.313-3.738 11.788-5.55 14.488v-1.15c-.563 5.037-1.688 8.812.55 13.325 2.225 4.5 4.762 8.812 7.125 13.212 2.625 4.85-4.038 7.625-6.975 9.7-3.4 2.438-6.738 5.438-9.675 8.4-13.638 13.613-23.175 28.563-29.925 46.588 14.05 1.35 28.262 3.575 42.45 3.125 16.677-.513 33.177-1.15 49.852-2.175 4.438-.288 8.875-.525 13.325-.8 3.713-.238 4.05-1.075 6.413-4.238 2.15-2.9 5.012-5.2 7.237-8.1 2.2-3.025 3.813-6.775 5.7-10.075 1.513-2.512 6.588-17.262 8.738-16.537 6.9 2.237 14.525 4.312 21.812 4.312 3.013 0 7.3 1.275 8.825-1.625 1.188-2.412 3.163-4.525 3.888-7.15.775-2.85 1.812-5.662 2.125-8.6.237-2.262-.225-6.937 1.35-8.7 2.462-2.812 5.012-5.625 7.55-8.475 1.662-1.9.95-4.925.95-7.412 0-4.688-5.725-11.513-8.963-14.775"/>
</svg>
