<?xml version="1.0" encoding="UTF-8" standalone="no"?>
<!-- Generator: Adobe Illustrator 12.0.1, SVG Export Plug-In  -->

<svg
   xmlns:dc="http://purl.org/dc/elements/1.1/"
   xmlns:cc="http://creativecommons.org/ns#"
   xmlns:rdf="http://www.w3.org/1999/02/22-rdf-syntax-ns#"
   xmlns:svg="http://www.w3.org/2000/svg"
   xmlns="http://www.w3.org/2000/svg"
   xmlns:sodipodi="http://sodipodi.sourceforge.net/DTD/sodipodi-0.dtd"
   xmlns:inkscape="http://www.inkscape.org/namespaces/inkscape"
   version="1.1"
   width="1620"
   height="1080"
   viewBox="-1 -0.876 1620 1080"
   enable-background="new -1 -0.876 289 218"
   xml:space="preserve"
   id="svg2"
   inkscape:version="0.92.4 (5da689c313, 2019-01-14)"
   sodipodi:docname="MUTCD_W11-15P_(fluorescent).svg"><metadata
   id="metadata90"><rdf:RDF><cc:Work
       rdf:about=""><dc:format>image/svg+xml</dc:format><dc:type
         rdf:resource="http://purl.org/dc/dcmitype/StillImage" /><dc:title /></cc:Work></rdf:RDF></metadata><sodipodi:namedview
   pagecolor="#ffffff"
   bordercolor="#666666"
   borderopacity="1"
   objecttolerance="10"
   gridtolerance="10"
   guidetolerance="10"
   inkscape:pageopacity="0"
   inkscape:pageshadow="2"
   inkscape:window-width="1920"
   inkscape:window-height="1057"
   id="namedview88"
   showgrid="false"
   showguides="true"
   inkscape:guide-bbox="true"
   fit-margin-top="0"
   fit-margin-left="0"
   fit-margin-right="0"
   fit-margin-bottom="0"
   inkscape:zoom="0.21328931"
   inkscape:cx="1163.7555"
   inkscape:cy="-14.815905"
   inkscape:window-x="-8"
   inkscape:window-y="-8"
   inkscape:window-maximized="1"
   inkscape:current-layer="svg2" />
<defs
   id="defs4">
</defs>









































<path
   inkscape:connector-curvature="0"
   style="fill:#cdff00;fill-rule:nonzero;stroke:none;fill-opacity:1"
   d="m 1619,944.124 c 0,74.5575 -60.4375,135 -135,135 l -1350,0 c -74.558125,0 -135,-60.4425 -135,-135 l 0,-810 c 0,-74.55813 60.441875,-135 135,-135 l 1350,0 c 74.5625,0 135,60.44187 135,135 l 0,810 z"
   id="path11" /><path
   inkscape:connector-curvature="0"
   style="fill:#000000;fill-rule:nonzero;stroke:none"
   d="m 134,1045.374 c -55.830125,0 -101.25,-45.42 -101.25,-101.25 l 0,-810 C 32.75,78.29387 78.169875,32.874 134,32.874 l 1350,0 c 55.825,0 101.25,45.41987 101.25,101.25 l 0,810 c 0,55.83 -45.425,101.25 -101.25,101.25 l -1350,0 z"
   id="path13" /><path
   inkscape:connector-curvature="0"
   style="fill:#cdff00;fill-rule:nonzero;stroke:none;fill-opacity:1"
   d="m 134,1011.624 c -37.2205,0 -67.5,-30.2812 -67.5,-67.5 l 0,-810 c 0,-37.2205 30.2795,-67.5 67.5,-67.5 l 1350,0 c 37.225,0 67.5,30.2795 67.5,67.5 l 0,810 c 0,37.2188 -30.275,67.5 -67.5,67.5 l -1350,0 z"
   id="path15" /><path
   inkscape:connector-curvature="0"
   style="fill:#000000;fill-rule:nonzero;stroke:none"
   d="m 979.01625,449.12525 0,-225.00125 36.00005,0 0,225.00125 -36.00005,0 z"
   id="path17" /><path
   inkscape:connector-curvature="0"
   style="fill:#000000;fill-rule:nonzero;stroke:none"
   d="m 1069.0163,449.12525 0,-225.00125 35.4788,0 0,191.845 104.0762,0 0,33.15625 -139.555,0 z"
   id="path19" /><path
   inkscape:connector-curvature="0"
   style="fill:#000000;fill-rule:nonzero;stroke:none"
   d="m 496.65,255.704 0,193.42 -35.67875,0 0,-193.42 -51.5425,0 0,-31.58 139.555,0 0,31.58 -52.33375,0 z"
   id="path21" /><path
   inkscape:connector-curvature="0"
   style="fill:#000000;fill-rule:nonzero;stroke:none"
   d="m 681.42375,263.599 c -5.525,-3.15875 -8.68375,-3.9475 -20.52625,-3.9475 l -42.635,0 0,55.2625 42.635,0 c 11.05375,0 15.00125,-0.78875 20.52625,-3.94625 8.6875,-4.7375 14.21375,-14.2125 14.21375,-23.685 0,-9.47375 -5.52625,-18.9475 -14.21375,-23.68375 z m 15.79125,185.52625 -36.3175,-97.895 -42.635,0 0,97.895 -35.52875,0 0,-225.00125 74.215,0 c 17.37125,0 29.2125,1.58 40.26625,7.10625 19.73875,9.47375 33.95,33.1575 33.95,56.0525 0,23.685 -14.21125,47.36875 -34.73875,56.8425 l 39.4775,105 -38.68875,0 z"
   id="path23" /><path
   inkscape:connector-curvature="0"
   style="fill:#000000;fill-rule:nonzero;stroke:none"
   d="m 849.98125,286.494 -23.02625,63.1575 45.25875,0 -22.2325,-63.1575 z m 57.17,162.63125 -22.2325,-63.1575 -70.66875,0 -22.23375,63.1575 -38.1125,0 77.815,-225.00125 35.7325,0 77.815,225.00125 -38.115,0 z"
   id="path25" /><path
   inkscape:connector-curvature="0"
   style="fill:#000000;fill-rule:nonzero;stroke:none"
   d="m 975.50375,854.1265 -86.06,-152.3687 0,152.3687 -35.5275,0 0,-225 35.5275,0 82.11125,143.6838 0,-143.6838 35.5288,0 0,225 -31.58005,0 z"
   id="path27" /><path
   inkscape:connector-curvature="0"
   style="fill:#000000;fill-rule:nonzero;stroke:none"
   d="m 763.91625,854.1265 0,-225 35.99875,0 0,225 -35.99875,0 z"
   id="path29" /><path
   inkscape:connector-curvature="0"
   style="fill:#000000;fill-rule:nonzero;stroke:none"
   d="m 521.14875,854.1265 -36.31875,-75 -36.3175,75 -40.2675,0 56.0575,-116.055 -52.10875,-108.9475 40.26625,0 32.37,67.1075 32.37375,-67.1075 40.26375,0 -52.89875,108.9475 56.8475,116.055 -40.2675,0 z"
   id="path31" /><path
   inkscape:connector-curvature="0"
   style="fill:#000000;fill-rule:nonzero;stroke:none"
   d="m 1138.6975,858.074 c -33.9488,0 -53.6875,-12.6312 -67.1113,-41.0525 -9.4737,-19.7388 -15,-47.37 -15,-75 0,-36.315 10.2625,-71.8425 25.2637,-91.5813 13.4238,-16.5774 32.3725,-25.2612 57.6376,-25.2612 34.7399,0 55.2675,14.2113 70.2675,49.7363 l -33.95,13.4199 c -9.475,-19.7362 -18.9488,-26.8412 -36.3175,-26.8412 -18.16,0 -30.0025,7.8963 -37.8988,27.6325 -5.5275,13.42 -8.685,33.945 -8.685,52.895 0,23.6825 3.9475,47.3688 11.0538,61.5775 7.105,12.6325 17.37,18.1588 30.7925,18.1588 22.895,0 39.4775,-14.2113 39.4775,-34.7363 l 0,-9.475 -41.0575,0 0,-35.525 76.585,0 0,45 c 0,41.0525 -30,71.0525 -71.0575,71.0525 z"
   id="path33" /><path
   inkscape:connector-curvature="0"
   style="fill:#000000;fill-rule:nonzero;stroke:none"
   d="m 595.16625,760.9678 0,-35.5275 112.5,0 0,35.5275 -112.5,0 z"
   id="path35" /></svg>