<svg xmlns="http://www.w3.org/2000/svg" width="89.985" height="90.001" viewBox="0 0 253.958 254.003">
    <path d="M3.362 118.76 118.716 3.404c4.54-4.537 11.942-4.537 16.482 0L250.553 118.76c4.54 4.537 4.54 11.938 0 16.478L135.198 250.597c-4.54 4.54-11.941 4.54-16.482 0L3.362 135.24c-4.48-4.48-4.484-11.994 0-16.478" style="fill:#fcd116;fill-opacity:1;fill-rule:nonzero;stroke:none"/>
    <path d="M5.676 121.021 120.978 5.723c3.27-3.27 8.69-3.263 11.96 0L248.236 121.02c3.274 3.274 3.26 8.682 0 11.96L132.938 248.278c-3.278 3.263-8.682 3.27-11.96 0L5.676 132.98c-3.256-3.277-3.27-8.685 0-11.959" style="fill:#000;fill-opacity:1;fill-rule:evenodd;stroke:none"/>
    <path d="M8.922 124.184 124.139 8.967c1.524-1.574 4.114-1.574 5.638 0L244.99 124.184c1.574 1.52 1.574 4.113 0 5.634L129.777 245.03c-1.524 1.577-4.117 1.58-5.638 0L8.922 129.818c-1.57-1.52-1.57-4.114 0-5.634" style="fill:#fcd116;fill-opacity:1;fill-rule:evenodd;stroke:none"/>
    <path d="M133.058 95.918c-3.94 0-7.158-3.214-7.158-7.155 0-3.94 3.217-7.154 7.158-7.154 3.94 0 7.15 3.214 7.15 7.154s-3.21 7.155-7.15 7.155m-41.032 27.181 6.82-47.97 59.45-.015 4.23 58.614h-17.749c.014-4.385.021-8.77.036-13.151.137-2.522-2.082-2.177-2.018-2.307h-4.329v-14.178c0-6.904-10.657-6.33-11.306.07l-2.689 10.82c-3.623.053-10.449.134-14.075.187-2.262-.014-2.156 4.678.144 4.724h13.938v8.195h-11.574l-9.028 12.89 3.158 2.977 8.325-10.227v17.463l-9.045.127-11.204-22.39 8.583-4.562c.868 1.633 1.344 2.085 2.212 3.722 1.368 2.42 4.72.169 3.464-2.1-2.31-4.18-3.76-7.02-5.994-11.243-.92-1.732-4.395.18-3.5 1.937l2.004 4.04-8.798 4.307-1.055-1.93zm94.203-22.532-1.232 10.495h-5.147l1.426-11.493c.977.751 2.61 1.393 3.76 1.393.561 0 .939-.148 1.193-.395m-41.353 59.39c0-9.659 8.005-17.593 17.664-17.593 9.655 0 17.66 7.934 17.66 17.593l18.15-.014v-4.854h-5.023v-21.763l-2.343.007v-20.486c0-.98-.8-1.785-1.785-1.785h-.571l.948-8.918c.593.342 1.443.558 2.371.558 1.806 0 3.274-.805 3.274-1.785 0-.985-1.468-1.79-3.274-1.79-1.803 0-3.27.805-3.27 1.79 0 .06.007.116.01.172l-1.058 9.973h-1.792l1.598-13.709.11.032 3.404.833c.448.113.832-.374.832-.833v-1.284a.832.832 0 0 0-.832-.832h-3.404a.836.836 0 0 0-.833.832v.314l-.152 1.295c-.44-.759-1.605-1.306-2.963-1.306-1.736 0-3.147.897-3.147 1.99 0 .102.018.205.067.307l-1.534 12.361h-1.299c-.977 0-1.785.805-1.785 1.785v20.532l-7.556.025-5.553-58.29h6.392c5.402 0 5.06-4.642.131-4.642h-79.83c-5.581-.261-5.553 5.037.13 4.642h4.615l-7.775 48.133H74.38L57.109 155.09H53.03l.194 4.854c.537.014 8.414-.028 8.414-.2 0-9.727 7.038-17.379 16.764-17.379 9.656 0 17.664 7.934 17.664 17.593h48.81zm17.664 14.052c-7.889 0-14.316-6.432-14.316-14.316 0-7.885 6.427-14.312 14.316-14.312 7.884 0 14.312 6.427 14.312 14.312 0 7.884-6.428 14.316-14.312 14.316m-83.633.331c-7.882 0-14.31-6.43-14.31-14.312 0-7.885 6.428-14.316 14.31-14.316 7.884 0 14.315 6.431 14.315 14.316 0 7.881-6.43 14.312-14.315 14.312" style="fill:#000;fill-opacity:1;fill-rule:evenodd;stroke:none"/>
</svg>
