<?xml version="1.0" encoding="UTF-8" standalone="no"?>
<!-- Generator: Adobe Illustrator 12.0.1, SVG Export Plug-In  -->

<svg
   xmlns:dc="http://purl.org/dc/elements/1.1/"
   xmlns:cc="http://creativecommons.org/ns#"
   xmlns:rdf="http://www.w3.org/1999/02/22-rdf-syntax-ns#"
   xmlns:svg="http://www.w3.org/2000/svg"
   xmlns="http://www.w3.org/2000/svg"
   xmlns:sodipodi="http://sodipodi.sourceforge.net/DTD/sodipodi-0.dtd"
   xmlns:inkscape="http://www.inkscape.org/namespaces/inkscape"
   version="1.1"
   width="286.00101"
   height="286.01401"
   viewBox="0 0 286.00101 286.01401"
   enable-background="new 0 0 288 289"
   xml:space="preserve"
   id="svg2"
   inkscape:version="0.92.4 (5da689c313, 2019-01-14)"
   sodipodi:docname="MUTCD_W12-2_(non-compliant).svg"><metadata
   id="metadata32"><rdf:RDF><cc:Work
       rdf:about=""><dc:format>image/svg+xml</dc:format><dc:type
         rdf:resource="http://purl.org/dc/dcmitype/StillImage" /></cc:Work></rdf:RDF></metadata><sodipodi:namedview
   pagecolor="#ffffff"
   bordercolor="#666666"
   borderopacity="1"
   objecttolerance="10"
   gridtolerance="10"
   guidetolerance="10"
   inkscape:pageopacity="0"
   inkscape:pageshadow="2"
   inkscape:window-width="1920"
   inkscape:window-height="1057"
   id="namedview30"
   showgrid="false"
   fit-margin-top="0"
   fit-margin-left="0"
   fit-margin-right="0"
   fit-margin-bottom="0"
   inkscape:zoom="1.8202571"
   inkscape:cx="245.99943"
   inkscape:cy="81.50856"
   inkscape:window-x="-8"
   inkscape:window-y="-8"
   inkscape:window-maximized="1"
   inkscape:current-layer="svg2" />
<defs
   id="defs4">
</defs>
<path
   d="M 4.0935,133.0845 133.0765,4.0934998 c 5.462,-5.458 14.39,-5.458 19.844,0 L 281.9105,133.0845 c 5.454,5.458 5.454,14.388 0,19.846 l -128.99,128.987 c -5.454,5.462 -14.382,5.462 -19.844,0 L 4.0935,152.9305 c -5.458,-5.458 -5.458,-14.388 0,-19.846 z"
   id="path6"
   style="fill:#cdff00;stroke:none;fill-opacity:1"
   inkscape:connector-curvature="0" />

<path
   clip-rule="evenodd"
   d="M 7.1985,135.1325 135.1305,7.2004998 c 4.331,-4.326 11.412,-4.326 15.741,0 L 278.7995,135.1325 c 4.329,4.329 4.329,11.417 0,15.742 l -127.928,127.932 c -4.329,4.33 -11.41,4.33 -15.741,0 L 7.1985,150.8745 c -4.329,-4.325 -4.329,-11.413 0,-15.742"
   id="path10"
   inkscape:connector-curvature="0"
   style="fill-rule:evenodd;stroke:none;fill:#000000" />
<path
   clip-rule="evenodd"
   d="m 11.2035,139.0735 127.864,-127.873 c 2.161,-2.1650002 5.708,-2.1650002 7.865,0 l 127.864,127.873 c 2.165,2.161 2.165,5.706 0,7.867 l -127.864,127.87 c -2.156,2.164 -5.704,2.164 -7.865,0 L 11.2035,146.9415 c -2.165,-2.162 -2.165,-5.707 0,-7.868"
   id="path12"
   inkscape:connector-curvature="0"
   style="fill:#cdff00;fill-rule:evenodd;stroke:none;fill-opacity:1" />
<path
   clip-rule="evenodd"
   d="m 122.2045,178.0065 v -9.846 h -28.294 c 0.489,-2.455 0.735,-3.689 1.474,-5.407 1.971,-5.912 6.642,-12.306 11.075,-15.506 l 2.706,-1.967 2.457,-1.723 2.459,-1.718 c 0.739,-0.741 1.486,-1.234 2.221,-1.727 3.931,-3.689 5.902,-8.119 5.902,-13.779 0,-10.823 -8.612,-19.684 -19.44,-19.684 -11.071,0 -19.437,8.612 -19.683,19.684 h 9.844 c 0,-5.416 4.43,-9.842 9.839,-9.842 5.416,0 9.843,4.426 9.843,9.842 0,3.445 -1.231,5.167 -5.902,8.368 -5.666,3.934 -7.138,5.167 -8.862,6.646 -4.672,4.426 -8.361,10.086 -11.317,17.469 -2.213,6.148 -2.952,9.593 -3.445,19.19 h 39.123 m -50.932,0 v -70.122 h -6.643 c -1.472,2.948 -3.936,4.67 -7.877,4.919 v 7.623 h 4.434 v 57.581 h 10.086 z"
   id="path14"
   inkscape:connector-curvature="0"
   style="fill-rule:evenodd;stroke:none;fill:#000000" />
<path
   transform="translate(-1.0035,-0.99250028)"
   style="fill:#000000;fill-rule:evenodd;stroke:none"
   d="m 220.056,108.974 -7.758,0 1.265,16.091 5.228,0 1.265,-16.091"
   id="polyline16" />
<path
   transform="translate(-1.0035,-0.99250028)"
   style="fill:#000000;fill-rule:evenodd;stroke:none"
   d="m 231.639,108.974 -7.906,0 1.265,16.091 5.369,0 1.272,-16.091"
   id="polyline18" />
<path
   transform="translate(-1.0035,-0.99250028)"
   style="fill:#000000;fill-rule:evenodd;stroke:none"
   d="m 145.143,108.974 -7.766,0 1.272,16.091 5.224,0 1.27,-16.091"
   id="polyline20" />
<path
   clip-rule="evenodd"
   d="m 160.5935,100.9675 -35.06,-0.035 0.064,-28.73 -31.115,6.502 c -1.004,0.209 -1.41,0.33 -1.744,0.33 -2.081,-0.004 -3.988,-2.006 -3.984,-4.085 0,-0.83 -0.068,-1.451 0.917,-2.324 l 53.36,-47.487 53.21,47.576 c 0.838,0.756 0.908,1.501 0.908,2.332 -0.008,2.161 -1.925,4.073 -4.081,4.069 -0.334,0 -0.396,-0.078 -1.164,-0.252 l -31.251,-7.095 -0.06,29.199"
   id="path22"
   inkscape:connector-curvature="0"
   style="fill-rule:evenodd;stroke:none;fill:#000000" />
<path
   clip-rule="evenodd"
   d="m 160.5935,185.2455 -35.06,0.038 0.064,28.73 -31.115,-6.498 c -1.004,-0.213 -1.41,-0.325 -1.744,-0.325 -2.081,0 -3.988,2.001 -3.984,4.077 0,0.83 -0.068,1.45 0.917,2.327 l 53.36,47.482 53.21,-47.571 c 0.838,-0.757 0.908,-1.498 0.908,-2.328 -0.008,-2.164 -1.925,-4.077 -4.081,-4.077 -0.334,0 -0.396,0.082 -1.164,0.26 l -31.251,7.088 -0.06,-29.203"
   id="path24"
   inkscape:connector-curvature="0"
   style="fill-rule:evenodd;stroke:none;fill:#000000" />
<path
   style="fill:#000000;stroke:none"
   d="m 130.97151,139.86951 24.598,0 0,9.345 -24.598,0 z"
   id="rect26" />
<path
   clip-rule="evenodd"
   d="m 197.1585,156.8415 c 0,7.386 -3.941,12.553 -9.846,12.553 -5.905,0 -9.838,-5.659 -9.838,-13.534 0,-6.646 3.934,-11.809 9.838,-11.809 5.904,0 9.846,5.415 9.846,12.79 m 9.837,0 c 0,-13.283 -7.626,-22.388 -19.683,-22.388 -1.226,0 -2.708,0 -4.43,0.248 2.467,-6.645 8.859,-15.009 14.764,-19.439 l -5.655,-7.871 c -15.253,11.809 -24.113,29.525 -24.113,46.501 0,15.99 6.641,25.386 19.435,25.386 12.056,0 19.682,-9.143 19.682,-22.437 z"
   id="path28"
   inkscape:connector-curvature="0"
   style="fill-rule:evenodd;stroke:none;fill:#000000" />
</svg>