<svg xmlns="http://www.w3.org/2000/svg" width="143.131" height="40.891" viewBox="0 0 403.948 115.404">
    <path d="M14.503 0h374.953c7.98 0 14.492 6.516 14.492 14.5V100.9c0 7.984-6.512 14.503-14.492 14.503H14.503c-7.99 0-14.503-6.52-14.503-14.502V14.498C0 6.516 6.512 0 14.503 0" style="fill:#fcd116;fill-opacity:1;fill-rule:nonzero;stroke:none"/>
    <path d="M14.496 4.138h374.96c5.712 0 10.351 4.66 10.351 10.361v86.403c0 5.697-4.639 10.357-10.35 10.357H14.496c-5.708 0-10.354-4.66-10.354-10.357V14.498c0-5.7 4.646-10.36 10.354-10.36" style="fill:#000;fill-opacity:1;fill-rule:evenodd;stroke:none"/>
    <path d="m389.375 10.358.501.02a4.136 4.136 0 0 1 1.863.692l.328.23a4.485 4.485 0 0 1 1.337 1.964c.088.346.137.664.162 1.013l.014 86.547-.025.504a4.428 4.428 0 0 1-.667 1.874l-.246.317c-.561.642-1.171 1.066-1.965 1.334a4.364 4.364 0 0 1-1.02.187l-375.077.004-.508-.018a4.416 4.416 0 0 1-1.876-.692l-.322-.236c-.638-.564-1.058-1.171-1.33-1.968a4.75 4.75 0 0 1-.183-1.006l-.007-86.547.021-.504c.092-.71.3-1.284.685-1.866l.243-.336c.557-.638 1.168-1.058 1.965-1.326a4.643 4.643 0 0 1 1.016-.18l375.091-.007z" style="fill:#fcd116;fill-opacity:1;fill-rule:evenodd;stroke:none"/>
    <path d="M49.756 90.858V24.546H40.22c-2.572 4.195-5.355 6.057-10.477 7.222l.236 9.535h8.379l-.23 49.555h11.628zM283.436 66.657h-25.841l25.84-26.521v26.521zm21.466 10.704V66.657h-9.754v-42.11h-11.712l-40.961 42.11v10.704h40.96v13.497h11.713V77.36h9.754zM101.579 66.657H75.734l25.845-26.521v26.521zm21.466 10.704V66.657h-9.757v-42.11h-11.71l-40.964 42.11v10.704h40.965v13.497h11.709V77.36h9.757zM326.477 45.97h-8.03v44.887h8.03V45.97zM374.202 90.858V45.97h-7.722v29.613L345.842 45.97h-7.863v44.888h7.863V59.993l21.435 30.865h6.925zM170.716 54v-8.03h-33.542v44.888h8.185V71.325h14.03v-8.181h-14.03V54h25.357zM207.892 53.844V45.97h-33.694v7.874h12.908v37.014h7.878V53.844h12.908z" style="fill:#000;fill-opacity:1;fill-rule:evenodd;stroke:none"/>
</svg>
