<svg xmlns="http://www.w3.org/2000/svg" width="89.985" height="90.001" viewBox="0 0 253.958 254.003">
    <path d="M3.362 118.76 118.716 3.403c4.54-4.536 11.942-4.536 16.482 0l115.355 115.359c4.54 4.537 4.54 11.938 0 16.478L135.198 250.597c-4.54 4.54-11.941 4.54-16.482 0L3.362 135.24c-4.48-4.48-4.484-11.998 0-16.478" style="fill:#fcd116;fill-opacity:1;fill-rule:nonzero;stroke:none"/>
    <path d="M5.68 121.02 120.978 5.723c3.27-3.27 8.69-3.263 11.96 0l115.298 115.299c3.274 3.274 3.26 8.682 0 11.959L132.938 248.278c-3.274 3.264-8.682 3.267-11.96 0L5.68 132.98c-3.26-3.277-3.274-8.686 0-11.96" style="fill:#000;fill-opacity:1;fill-rule:evenodd;stroke:none"/>
    <path d="M8.926 124.183 124.143 8.966c1.52-1.577 4.11-1.573 5.634 0L244.99 124.183c1.574 1.52 1.574 4.114 0 5.634L129.777 245.031c-1.52 1.577-4.117 1.58-5.634 0L8.926 129.817c-1.574-1.524-1.574-4.113 0-5.634" style="fill:#fcd116;fill-opacity:1;fill-rule:evenodd;stroke:none"/>
    <path d="M193.857 95.837h-6.985l1.143 14.351h4.7l1.142-14.35zM204.144 95.837h-7.112l1.147 14.351H203l1.143-14.35zM107.881 157.94v-8.763H82.862c.381-2.159.635-3.302 1.27-4.826 1.778-5.207 5.842-10.922 9.776-13.716l2.413-1.778 2.162-1.524 2.28-1.397c.641-.635 1.276-1.143 1.908-1.524 3.556-3.302 5.21-7.239 5.21-12.192 0-9.652-7.62-17.526-17.272-17.526-9.779 0-17.145 7.62-17.399 17.526h8.763c0-4.826 3.937-8.763 8.636-8.763 4.823 0 8.763 3.937 8.763 8.763 0 3.048-1.02 4.572-5.21 7.366-5.077 3.556-6.35 4.572-7.874 5.842-4.191 3.81-7.366 8.89-10.033 15.494-2.032 5.461-2.667 8.51-3.045 17.018h34.671zm-45.212 0V95.71h-5.845c-1.397 2.667-3.553 4.191-6.985 4.445v6.731h3.94v51.054h8.89zM127.312 95.837h-6.862l1.143 14.351h4.7l1.019-14.35zM141.912 89.614h-30.984V64.087l-27.563 5.715c-.889.254-1.266.381-1.644.381-1.778 0-3.556-1.778-3.556-3.683 0-.762 0-1.27.89-2.032l47.367-42.164 47.117 42.291c.765.635.889 1.27.765 2.032 0 1.905-1.654 3.556-3.563 3.556-.247 0-.38 0-1.012-.127l-27.817-6.35v25.908zM141.912 164.414h-30.984v25.527l-27.563-5.846c-.889-.123-1.266-.254-1.644-.254-1.778 0-3.556 1.778-3.556 3.563 0 .755 0 1.39.89 2.16l47.367 42.16 47.117-42.291c.765-.639.889-1.274.765-2.029 0-1.908-1.654-3.686-3.563-3.686-.247 0-.38.123-1.012.254l-27.817 6.35v-25.908zM137.468 124.158h-21.717v8.255h21.717v-8.255zM174.427 139.144c0 6.604-3.556 11.176-8.763 11.176-5.334 0-8.767-5.08-8.767-12.065 0-5.842 3.433-10.54 8.767-10.54 5.207 0 8.763 4.825 8.763 11.43m8.632 0c0-11.812-6.73-19.813-17.395-19.813-1.147 0-2.413 0-3.937.254 2.159-5.842 7.877-13.335 13.077-17.272l-5.076-6.985c-13.466 10.541-21.34 26.29-21.34 41.148 0 14.224 5.842 22.606 17.276 22.606 10.664 0 17.395-8.128 17.395-19.939" style="fill:#000;fill-opacity:1;fill-rule:evenodd;stroke:none"/>
</svg>
