<?xml version="1.0" encoding="UTF-8" standalone="no"?>
<!-- Generator: Adobe Illustrator 12.0.1, SVG Export Plug-In  -->

<svg
   xmlns:dc="http://purl.org/dc/elements/1.1/"
   xmlns:cc="http://creativecommons.org/ns#"
   xmlns:rdf="http://www.w3.org/1999/02/22-rdf-syntax-ns#"
   xmlns:svg="http://www.w3.org/2000/svg"
   xmlns="http://www.w3.org/2000/svg"
   xmlns:sodipodi="http://sodipodi.sourceforge.net/DTD/sodipodi-0.dtd"
   xmlns:inkscape="http://www.inkscape.org/namespaces/inkscape"
   version="1.1"
   width="2160"
   height="2700"
   viewBox="-1 -0.876 2160 2700"
   enable-background="new -1 -0.876 289 218"
   xml:space="preserve"
   id="svg2"
   inkscape:version="0.48.2 r9819"
   sodipodi:docname="AJAX1.svg"><metadata
   id="metadata90"><rdf:RDF><cc:Work
       rdf:about=""><dc:format>image/svg+xml</dc:format><dc:type
         rdf:resource="http://purl.org/dc/dcmitype/StillImage" /><dc:title></dc:title></cc:Work></rdf:RDF></metadata><sodipodi:namedview
   pagecolor="#ffffff"
   bordercolor="#666666"
   borderopacity="1"
   objecttolerance="10"
   gridtolerance="10"
   guidetolerance="10"
   inkscape:pageopacity="0"
   inkscape:pageshadow="2"
   inkscape:window-width="1280"
   inkscape:window-height="1004"
   id="namedview88"
   showgrid="false"
   showguides="true"
   inkscape:guide-bbox="true"
   fit-margin-top="0"
   fit-margin-left="0"
   fit-margin-right="0"
   fit-margin-bottom="0"
   inkscape:zoom="0.2706422"
   inkscape:cx="1467.5582"
   inkscape:cy="1010.2822"
   inkscape:window-x="-8"
   inkscape:window-y="-8"
   inkscape:window-maximized="1"
   inkscape:current-layer="svg2" />
<defs
   id="defs4">
</defs>









































<path
   inkscape:connector-curvature="0"
   style="fill:#ffd033;fill-rule:nonzero;stroke:none"
   d="m 2159,2564.124 c 0,74.5625 -60.4375,135 -135,135 l -1890,0 c -74.559375,0 -135,-60.4375 -135,-135 l 0,-2430 c 0,-74.5594 60.440625,-135 135,-135 l 1890,0 c 74.5625,0 135,60.4406 135,135 l 0,2430 z"
   id="path11" /><path
   inkscape:connector-curvature="0"
   style="fill:#000000;fill-rule:nonzero;stroke:none"
   d="m 2069,899.124 -1980,0 0,-765 c 0,-24.8132 20.18675,-45 45,-45 l 1890,0 c 24.8125,0 45,20.1868 45,45 l 0,765 z m 0,1665 c 0,24.8125 -20.1875,45 -45,45 l -1890,0 c -24.81325,0 -45,-20.1875 -45,-45 l 0,-1608.75 1980,0 0,1608.75 z m -45,-2531.25 -1890,0 c -55.830125,0 -101.25,45.4199 -101.25,101.25 l 0,2430 c 0,55.825 45.419875,101.25 101.25,101.25 l 1890,0 c 55.825,0 101.25,-45.425 101.25,-101.25 l 0,-2430 c 0,-55.8301 -45.425,-101.25 -101.25,-101.25 z"
   id="path13" /><path
   inkscape:connector-curvature="0"
   style="fill:#000000;fill-rule:nonzero;stroke:none"
   d="m 550.25,674.12525 0,-360.00125 263.66375,0 0,64.4213 -197.7475,0 0,66.9487 107.74625,0 0,65.6838 -107.74625,0 0,98.5262 204.085,0 0,64.42125 -270.00125,0 z"
   id="path15" /><path
   inkscape:connector-curvature="0"
   style="fill:#000000;fill-rule:nonzero;stroke:none"
   d="m 1256.0375,674.12525 0,-360.00125 64.7875,0 0,360.00125 -64.7875,0 z"
   id="path17" /><path
   inkscape:connector-curvature="0"
   style="fill:#000000;fill-rule:nonzero;stroke:none"
   d="m 1548.575,377.2815 0,296.84375 -63.0875,0 0,-296.84375 -103.4625,0 0,-63.1562 270,0 0,63.1562 -103.45,0 z"
   id="path19" /><path
   inkscape:connector-curvature="0"
   style="fill:#000000;fill-rule:nonzero;stroke:none"
   d="m 1107.905,674.12525 -81.2,-127.57875 -79.9325,127.57875 -76.12375,0 L 988.6425,484.6515 880.79875,314.1253 l 77.39375,0 68.5125,109.8937 68.5125,-109.8937 77.3938,0 -106.5763,170.5262 117.9938,189.47375 -76.1238,0 z"
   id="path21" /><path
   inkscape:connector-curvature="0"
   style="fill:#000000;fill-rule:nonzero;stroke:none"
   d="m 445.04125,1934.124 c 0,-85.8875 17.76125,-149.05 58.355,-219.7875 63.4325,-106.1 154.7725,-171.7875 286.70875,-207.1625 81.18875,-22.7375 109.09625,-48 109.09625,-90.9375 0,-53.0625 -50.7425,-83.375 -142.0825,-83.375 -93.87625,0 -162.3825,22.7375 -223.27375,78.3125 l -88.80375,-98.525 c 83.7275,-73.2613 187.75375,-111.155 304.465,-111.155 169.9925,0 279.09505,83.3675 279.09505,214.7425 0,60.625 -25.3738,116.2 -73.58005,156.625 -22.83625,17.6875 -55.82,35.375 -106.5625,50.525 -96.41125,27.7875 -124.32375,40.425 -167.45375,78.3125 -32.985,27.8 -53.2825,55.5875 -78.65625,103.5875 l 426.25255,0 0,128.8375 -583.56005,0 z"
   id="path23" /><path
   inkscape:connector-curvature="0"
   style="fill:#000000;fill-rule:nonzero;stroke:none"
   d="m 1408.5,1946.7615 c -98.9625,0 -187.7575,-25.2625 -279.1013,-80.85 l 68.5062,-108.625 c 63.4326,37.8875 137.0076,58.1 210.5951,58.1 109.0875,0 175.0625,-48 175.0625,-128.8375 0,-37.9 -17.7625,-75.7875 -45.675,-98.525 -25.3625,-20.2125 -63.425,-30.3125 -116.7,-30.3125 -48.2125,0 -86.275,7.575 -139.55,27.7875 l -129.4013,-32.85 22.8362,-338.525 482.0651,0 -2.5375,126.3125 -357.75,0 -7.6,103.5875 c 58.35,-12.6375 93.875,-17.6875 139.5375,-17.6875 164.925,0 284.175,111.1625 284.175,260.2125 0,151.575 -126.8625,260.2125 -304.4625,260.2125 z"
   id="path25" /><path
   inkscape:connector-curvature="0"
   style="fill:#000000;fill-rule:nonzero;stroke:none"
   d="m 1492.375,2429.124 0,-117.475 -121.7875,0 0,117.475 -48.525,0 0,-270 48.525,0 0,104.2125 121.7875,0 0,-104.2125 48.525,0 0,270 -48.525,0 z"
   id="path27" /><path
   inkscape:connector-curvature="0"
   style="fill:#000000;fill-rule:nonzero;stroke:none"
   d="m 823.47875,2429.124 0,-164.8375 -79.89,164.8375 -78.9375,-164.8375 0,164.8375 -47.55375,0 0,-270 47.55375,0 78.9375,160.1125 79.89,-160.1125 47.5525,0 0,270 -47.5525,0 z"
   id="path29" /><path
   inkscape:connector-curvature="0"
   style="fill:#000000;fill-rule:nonzero;stroke:none"
   d="m 1142.21,2207.4365 -81.5387,0 0,67.2625 81.5387,0 c 23.6725,0 39.7675,-13.2625 39.7675,-33.15 0,-20.85 -16.095,-34.1125 -39.7675,-34.1125 z m 46.3963,105.1625 c -15.15,8.525 -27.4588,10.425 -48.29,10.425 l -79.645,0 0,106.1 -49.2388,0 0,-270 128.8838,0 c 20.8312,0 33.14,2.85 48.29,11.375 25.5662,14.2 41.6625,40.7375 41.6625,71.05 0,28.425 -16.0963,56.8375 -41.6625,71.05 z"
   id="path31" /></svg>