<?xml version="1.0" encoding="UTF-8" standalone="no"?>
<svg
   xmlns:dc="http://purl.org/dc/elements/1.1/"
   xmlns:cc="http://creativecommons.org/ns#"
   xmlns:rdf="http://www.w3.org/1999/02/22-rdf-syntax-ns#"
   xmlns:svg="http://www.w3.org/2000/svg"
   xmlns="http://www.w3.org/2000/svg"
   xmlns:sodipodi="http://sodipodi.sourceforge.net/DTD/sodipodi-0.dtd"
   xmlns:inkscape="http://www.inkscape.org/namespaces/inkscape"
   width="66.239998"
   height="115.92125"
   viewBox="0 0 186.94403 327.15551"
   version="1.1"
   id="svg2"
   inkscape:version="0.48.2 r9819"
   sodipodi:docname="MUTCD W13-6.svg">
  <metadata
     id="metadata62">
    <rdf:RDF>
      <cc:Work
         rdf:about="">
        <dc:format>image/svg+xml</dc:format>
        <dc:type
           rdf:resource="http://purl.org/dc/dcmitype/StillImage" />
        <dc:title></dc:title>
      </cc:Work>
    </rdf:RDF>
  </metadata>
  <defs
     id="defs60" />
  <sodipodi:namedview
     pagecolor="#ffffff"
     bordercolor="#666666"
     borderopacity="1"
     objecttolerance="10"
     gridtolerance="10"
     guidetolerance="10"
     inkscape:pageopacity="0"
     inkscape:pageshadow="2"
     inkscape:window-width="1280"
     inkscape:window-height="1004"
     id="namedview58"
     showgrid="false"
     fit-margin-top="0"
     fit-margin-left="0"
     fit-margin-right="0"
     fit-margin-bottom="0"
     inkscape:zoom="4"
     inkscape:cx="37.115628"
     inkscape:cy="57.255452"
     inkscape:window-x="-8"
     inkscape:window-y="-8"
     inkscape:window-maximized="1"
     inkscape:current-layer="svg2" />
  <!-- draw the bicycle -->
  <!-- RIGHT -->
  <!-- LANE -->
  <!-- ONLY -->
  <path
     d="m 15.57867,327.15555 0,0 155.78669,0 c 8.60073,0 15.57867,-6.96737 15.57867,-15.57867 l 0,-295.99825 c 0,-8.5971896 -6.97794,-15.578669553258 -15.57867,-15.578669553258 l -155.56797,0 -0.21872,0 C 6.96383,-3.9553258e-5 0,6.9814404 0,15.57863 l 0,295.99825 c 0,8.59719 6.97794,15.57867 15.57867,15.57867"
     style="fill:#ffd033;fill-opacity:1;fill-rule:evenodd;stroke:none"
     id="path3903"
     inkscape:connector-curvature="0" />
  <path
     d="m 15.63511,323.90293 0,0 155.67381,0 c 6.87917,0 12.45306,-5.56683 12.45306,-12.44953 l 0,-296.0194 c 0,-6.8826996 -5.57389,-12.4565896 -12.45306,-12.4565896 l -155.67381,0 c -6.88622,0 -12.45306,5.57389 -12.45306,12.4565896 l 0,296.0194 c 0,6.87564 5.57389,12.44953 12.45306,12.44953"
     style="fill:#000000;fill-opacity:1;fill-rule:evenodd;stroke:none"
     id="path3911"
     inkscape:connector-curvature="0" />
  <path
     d="m 15.63864,77.47351 0,0 155.6597,0 c 4.30389,0 7.7858,-3.47839 7.7858,-7.7717 l 0,-54.26076 c 0,-4.29683 -3.48191,-7.7787496 -7.7858,-7.7787496 l -155.6597,0 c -4.28978,0 -7.7717,3.4819196 -7.7717,7.7787496 l 0,54.26076 c 0,4.29331 3.47486,7.7717 7.7717,7.7717"
     style="fill:#ffd033;fill-opacity:1;fill-rule:evenodd;stroke:none"
     id="path3915"
     inkscape:connector-curvature="0" />
  <path
     d="m 15.63864,319.25332 0,0 155.6597,0 c 4.30389,0 7.7858,-3.48191 7.7858,-7.77522 l 0,-221.84081 c 0,-4.30742 -3.48191,-7.78581 -7.7858,-7.78581 l -155.6597,0 c -4.28978,0 -7.7717,3.47839 -7.7717,7.78581 l 0,221.84081 c 0,4.30036 3.47486,7.77522 7.7717,7.77522"
     style="fill:#ffd033;fill-opacity:1;fill-rule:evenodd;stroke:none"
     id="path3919"
     inkscape:connector-curvature="0" />
  <path
     d="m 73.61415,311.57688 0,-12.4707 -6.02192,12.4707 -5.95136,-12.4707 0,12.4707 -3.58422,0 0,-20.42937 3.58422,0 5.95136,12.11087 6.02192,-12.11087 3.58422,0 0,20.42937 -3.58422,0 z"
     style="fill:#000000;fill-opacity:1;fill-rule:nonzero;stroke:none"
     id="path3937"
     inkscape:connector-curvature="0" />
  <path
     d="m 97.55013,294.79876 -5.95137,0 0,5.09059 5.95137,0 c 1.79211,0 3.01272,-1.00542 3.01272,-2.50825 0,-1.57692 -1.22061,-2.58234 -3.01272,-2.58234 m 3.51367,7.95867 c -1.15006,0.64558 -2.0814,0.79022 -3.65831,0.79022 l -5.80673,0 0,8.02923 -3.72886,0 0,-20.42937 9.53559,0 c 1.57691,0 2.50825,0.21167 3.65831,0.86078 1.92969,1.07597 3.1503,3.07975 3.1503,5.37281 0,2.15194 -1.22061,4.30036 -3.1503,5.37633"
     style="fill:#000000;fill-opacity:1;fill-rule:nonzero;stroke:none"
     id="path3941"
     inkscape:connector-curvature="0" />
  <path
     d="m 125.78647,311.57688 0,-8.96409 -9.1687,0.0742 0,8.89 -3.66183,0 0,-20.42937 3.66183,0 0,7.88106 9.1687,0 0,-7.88106 3.6583,0 0,20.42937 -3.6583,0 z"
     style="fill:#000000;fill-opacity:1;fill-rule:nonzero;stroke:none"
     id="path3945"
     inkscape:connector-curvature="0" />
  <path
     d="m 45.66709,275.56884 c 0,-6.49816 1.33703,-11.28183 4.39561,-16.63347 4.77661,-8.02923 11.65931,-12.99634 21.60059,-15.67039 6.11364,-1.72156 8.21267,-3.63009 8.21267,-6.8827 0,-4.00756 -3.81706,-6.30414 -10.69976,-6.30414 -7.06966,0 -12.2308,1.71803 -16.81692,5.92667 l -6.69219,-7.4542 c 6.30414,-5.54919 14.14639,-8.41375 22.93761,-8.41375 12.80231,0 21.02203,6.3112 21.02203,16.24542 0,4.58964 -1.90852,8.79122 -5.53861,11.85334 -1.72155,1.33702 -4.21216,2.67052 -8.02922,3.82411 -7.26722,2.09903 -9.36978,3.05858 -12.61534,5.92314 -2.48708,2.10255 -4.01461,4.20511 -5.92314,7.83519 l 32.10631,0 0,9.75078 -43.95964,0 z"
     style="fill:#000000;fill-opacity:1;fill-rule:nonzero;stroke:none"
     id="path3949"
     inkscape:connector-curvature="0" />
  <path
     d="m 118.29699,276.52487 c -7.45419,0 -14.14639,-1.91558 -21.02909,-6.11717 l 5.16115,-8.21972 c 4.78366,2.86456 10.32228,4.39561 15.86794,4.39561 8.21973,0 13.18684,-3.63008 13.18684,-9.75078 0,-2.86455 -1.33703,-5.73264 -3.43606,-7.45419 -1.91558,-1.53106 -4.78366,-2.29306 -8.79122,-2.29306 -3.64067,0 -6.50522,0.57856 -10.51631,2.10608 l -9.75078,-2.48708 1.72509,-25.61167 36.31142,0 -0.18697,9.55675 -26.95576,0 -0.5715,7.8352 c 4.39561,-0.95603 7.06967,-1.33703 10.51631,-1.33703 12.42131,0 21.40656,8.41375 21.40656,19.685 0,11.47234 -9.55675,19.69206 -22.93762,19.69206"
     style="fill:#000000;fill-opacity:1;fill-rule:nonzero;stroke:none"
     id="path3953"
     inkscape:connector-curvature="0" />
  <path
     d="m 60.65309,141.30865 c -0.0212,17.42017 -0.0388,34.82976 -0.06,52.24287 l -19.92136,0 c 0,-17.43428 -0.007,-34.87209 -0.0141,-52.30284 0,-28.86781 26.56417,-52.27814 58.98798,-52.27814 32.43087,0 58.87509,23.54438 58.87509,52.40867 0,27.05806 -23.24453,49.44181 -52.86728,52.13703 l 3.13619,11.29948 c 0.34925,1.38642 0.48683,2.54353 -0.26811,3.66536 -1.14653,1.68275 -3.44664,2.12372 -5.12939,0.9772 l -38.14234,-25.83745 38.14234,-25.79512 c 1.68275,-1.143 3.98286,-0.70908 5.12939,0.97014 0.79022,1.17828 0.61736,2.30011 0.1905,3.82411 l -3.14678,10.85145 c 18.65137,-2.38831 33.01648,-15.88912 33.01648,-32.0922 0,-17.88231 -17.4872,-32.46967 -38.93609,-32.46967 -21.44184,0 -38.93609,14.58736 -38.99254,32.39911"
     style="fill:#000000;fill-opacity:1;fill-rule:evenodd;stroke:none"
     id="path3957"
     inkscape:connector-curvature="0" />
  <path
     d="m 48.623357,36.491299 c 0,-1.019528 -0.433917,-1.93675 -1.294695,-2.741084 -0.860778,-0.814917 -1.813278,-1.220611 -2.853973,-1.220611 l -9.588502,0 0,7.792863 9.652002,0 c 1.040695,0 1.979084,-0.384528 2.825751,-1.150056 0.839611,-0.772584 1.259417,-1.668639 1.259417,-2.681112 m 0.352777,8.456085 5.545668,13.144503 -6.110112,0 -5.139973,-12.174364 -8.38553,0 0,12.174364 -5.602112,0 0,-31.15734 15.363475,0 c 2.617612,0 4.878918,0.924278 6.766279,2.769306 1.894417,1.855612 2.825751,4.11339 2.804584,6.794502 -0.02117,1.908528 -0.500944,3.612445 -1.446389,5.094112 -0.9525,1.485195 -2.211917,2.6035 -3.79589,3.354917"
     style="fill:#000000;fill-opacity:1;fill-rule:nonzero;stroke:none"
     id="path4001"
     inkscape:connector-curvature="0" />
  <path
     d="m 78.284918,45.324857 -4.455584,-10.692697 -4.487335,10.692697 8.942919,0 z m 11.43353,12.76703 -6.071307,0 -2.991556,-7.164918 -13.648975,0 -2.988028,7.164918 -6.078363,0 13.021031,-31.15734 5.704417,0 13.052781,31.15734 z"
     style="fill:#000000;fill-opacity:1;fill-rule:nonzero;stroke:none"
     id="path4005"
     inkscape:connector-curvature="0" />
  <path
     d="m 124.31184,58.091887 -5.59505,0 0,-18.383254 -9.04523,18.383254 -9.04875,-18.383254 0,18.383254 -5.598583,0 0,-31.15734 5.612693,0 9.0417,18.347976 9.03817,-18.347976 5.59505,0 0,31.15734 z"
     style="fill:#000000;fill-opacity:1;fill-rule:nonzero;stroke:none"
     id="path4009"
     inkscape:connector-curvature="0" />
  <path
     d="m 152.04723,36.491299 c 0,-1.019528 -0.42686,-1.93675 -1.29116,-2.741084 -0.86078,-0.814917 -1.80975,-1.220611 -2.84339,-1.220611 l -9.90248,0 0,7.792863 9.96245,0 c 1.03364,0 1.97908,-0.384528 2.81869,-1.150056 0.83609,-0.772584 1.25589,-1.668639 1.25589,-2.681112 m 5.60211,0 c -0.0212,2.737556 -0.96661,4.995335 -2.83986,6.766279 -1.86619,1.778001 -4.11339,2.659945 -6.731,2.659945 l -10.06828,0 0,12.174364 -5.59505,0 0,-31.15734 15.67039,0 c 2.61761,0 4.86833,0.924278 6.75922,2.769306 1.88736,1.848556 2.82222,4.106335 2.80458,6.787446"
     style="fill:#000000;fill-opacity:1;fill-rule:nonzero;stroke:none"
     id="path4013"
     inkscape:connector-curvature="0" />
</svg>
