<svg xmlns="http://www.w3.org/2000/svg" width="66.24" height="82.701" viewBox="-1 0 66.24 82.701" xml:space="preserve">
    <path d="M4.531 82.701H59.71a5.54 5.54 0 0 0 5.53-5.53V5.532C65.24 2.486 62.756 0 59.71 0H4.531A5.543 5.543 0 0 0-1 5.532v71.64a5.541 5.541 0 0 0 5.531 5.53z" style="fill:#fcd116;fill-opacity:1;fill-rule:evenodd;stroke:none"/>
    <path d="M4.565 81.543h55.11a4.384 4.384 0 0 0 4.406-4.407V5.466a4.404 4.404 0 0 0-4.406-4.405H4.565A4.403 4.403 0 0 0 .16 5.466v71.67a4.383 4.383 0 0 0 4.405 4.407" style="fill:#000;fill-opacity:1;fill-rule:evenodd;stroke:none"/>
    <path d="M4.565 27.457h55.11a2.741 2.741 0 0 0 2.75-2.748V5.466a2.743 2.743 0 0 0-2.75-2.75H4.565a2.743 2.743 0 0 0-2.749 2.75V24.71a2.74 2.74 0 0 0 2.749 2.748M4.565 79.886h55.11a2.742 2.742 0 0 0 2.75-2.75V31.762a2.743 2.743 0 0 0-2.75-2.748H4.565a2.742 2.742 0 0 0-2.749 2.748v45.374a2.742 2.742 0 0 0 2.749 2.75" style="fill:#fcd116;fill-opacity:1;fill-rule:evenodd;stroke:none"/>
    <path d="M24.304 76.873 22.053 72.5l1.588-1.656h-1.687l-1.658 1.721V68.46l-1.323.63v7.783h1.323v-2.617l.763-.793 1.755 3.41h1.49zm9.109 0v-4.108c0-2.119-2.815-2.715-3.843-1.39-.729-.827-2.087-.961-2.947-.266v-.264h-1.358v6.028h1.39v-3.91c0-.694.399-1.025.928-1.058.696 0 1.126.265 1.126 1.059v3.909H30.1v-3.91c0-.694.431-1.058.961-1.058.694 0 1.059.265 1.059 1.059v3.909h1.293M40.235 68.659H38.91l-4.769 8.214h1.357l4.737-8.214M45.566 76.873v-4.14c0-1.855-2.217-2.584-3.576-1.69V68.46l-1.325.63v7.783h1.359V72.93c0-.695.464-.993.994-1.026.695 0 1.226.165 1.226.96v4.008h1.322M31.988 32.624c9.373 0 17.057 7.683 17.057 17.091 0 9.405-7.684 17.09-17.057 17.09-9.44 0-17.123-7.685-17.123-17.09 0-9.408 7.684-17.091 17.123-17.091zm0-1.193c-10.102 0-18.315 8.215-18.315 18.284 0 10.101 8.213 18.315 18.315 18.315 10.036 0 18.282-8.214 18.282-18.315 0-10.069-8.246-18.284-18.282-18.284zM19.434 20.569l-2.02-4.703c1.127-.63 1.755-1.722 1.755-2.949 0-1.225-.628-2.317-1.689-2.88-.562-.365-1.092-.497-1.887-.497h-5.068v11.029h1.954v-4.307h2.947l1.789 4.307h2.219zm-2.219-7.652c0 .83-.629 1.36-1.59 1.36h-3.146v-2.75h3.146c.961 0 1.59.53 1.59 1.39zm14.673 7.652L27.284 9.54h-2.021l-4.637 11.029h2.153l1.094-2.584h4.802l1.06 2.584h2.153zm-4.075-4.538h-3.08l1.523-3.742 1.557 3.742zM44.01 20.57V9.54h-1.921l-3.245 6.557L35.63 9.54h-1.921v11.029h1.921v-6.725l3.214 6.725 3.245-6.725v6.725h1.921zm11.691-7.652a3.276 3.276 0 0 0-1.688-2.88c-.63-.365-1.128-.497-1.988-.497H46.89v11.029h2.021v-4.307h3.114c.86 0 1.358-.098 1.988-.43 1.026-.596 1.688-1.756 1.688-2.915zm-1.953 0c0 .83-.664 1.36-1.624 1.36H48.91v-2.75h3.213c.96 0 1.624.53 1.624 1.39" style="fill:#000;fill-opacity:1;fill-rule:evenodd;stroke:none"/>
    <path d="M30.464 52.992c0-2.715-2.485-4.9-5.499-4.9-.595 0-.994 0-1.92.165.96-2.02 1.986-3.312 3.974-4.835l-1.291-2.153C21.985 43.752 19.5 48.322 19.5 52.76c0 2.881 2.385 5.166 5.465 5.166 3.114 0 5.499-2.186 5.499-4.935zm-2.55-.066c0 1.291-1.359 2.385-2.949 2.385-1.556 0-2.881-1.094-2.881-2.385 0-1.259 1.325-2.317 2.881-2.317 1.656 0 2.949 1.058 2.949 2.317zm17.09-3.345c0-1.987-.399-4.04-1.06-5.431-1.028-1.988-2.419-2.881-4.471-2.881-1.855 0-3.148.562-4.108 1.788-1.091 1.523-1.756 3.908-1.756 6.524 0 1.923.431 4.075 1.127 5.433.96 1.987 2.35 2.913 4.638 2.913 1.687 0 2.979-.596 3.874-1.82 1.16-1.426 1.756-3.976 1.756-6.526zm-2.518 0c0 1.259-.298 2.85-.63 3.678-.562 1.422-1.291 2.052-2.482 2.052-1.029 0-1.723-.397-2.22-1.259-.63-1.026-.96-2.748-.96-4.47 0-1.325.231-2.782.629-3.743.563-1.424 1.357-2.02 2.582-1.988.963.066 1.59.399 2.12 1.259.598 1.061.961 2.716.961 4.471" style="fill:#000;fill-opacity:1;fill-rule:evenodd;stroke:none"/>
</svg>
