<?xml version="1.0" encoding="UTF-8" standalone="no"?>
<svg
   xmlns:dc="http://purl.org/dc/elements/1.1/"
   xmlns:cc="http://creativecommons.org/ns#"
   xmlns:rdf="http://www.w3.org/1999/02/22-rdf-syntax-ns#"
   xmlns:svg="http://www.w3.org/2000/svg"
   xmlns="http://www.w3.org/2000/svg"
   xmlns:sodipodi="http://sodipodi.sourceforge.net/DTD/sodipodi-0.dtd"
   xmlns:inkscape="http://www.inkscape.org/namespaces/inkscape"
   width="66.2425"
   height="66.2425"
   viewBox="0 0 186.95109 186.95105"
   version="1.1"
   id="svg2"
   inkscape:version="0.48.2 r9819"
   sodipodi:docname="MUTCD W1-15L.svg">
  <metadata
     id="metadata62">
    <rdf:RDF>
      <cc:Work
         rdf:about="">
        <dc:format>image/svg+xml</dc:format>
        <dc:type
           rdf:resource="http://purl.org/dc/dcmitype/StillImage" />
        <dc:title></dc:title>
      </cc:Work>
    </rdf:RDF>
  </metadata>
  <defs
     id="defs60" />
  <sodipodi:namedview
     pagecolor="#ffffff"
     bordercolor="#666666"
     borderopacity="1"
     objecttolerance="10"
     gridtolerance="10"
     guidetolerance="10"
     inkscape:pageopacity="0"
     inkscape:pageshadow="2"
     inkscape:window-width="1280"
     inkscape:window-height="1004"
     id="namedview58"
     showgrid="false"
     fit-margin-top="0"
     fit-margin-left="0"
     fit-margin-right="0"
     fit-margin-bottom="0"
     inkscape:zoom="5.6568543"
     inkscape:cx="36.391211"
     inkscape:cy="41.303862"
     inkscape:window-x="-8"
     inkscape:window-y="-8"
     inkscape:window-maximized="1"
     inkscape:current-layer="svg2" />
  <!-- draw the bicycle -->
  <!-- RIGHT -->
  <!-- LANE -->
  <!-- ONLY -->
  <path
     d="m 15.57867,186.95106 0,0 155.78316,0 c 8.60778,0 15.58925,-6.96031 15.58925,-15.57161 l 0,-155.79375 c 0,-8.60777 -6.98147,-15.58572 -15.58925,-15.58572 l -155.56444,0 -0.21872,0 C 6.96736,-2e-5 0,6.97793 0,15.5857 l 0,155.79375 c 0,8.59014 6.97795,15.57161 15.57867,15.57161"
     style="fill:#ffd033;fill-opacity:1;fill-rule:evenodd;stroke:none"
     id="path3375"
     inkscape:connector-curvature="0" />
  <path
     d="m 15.62806,183.70551 0,0 155.68438,0 c 6.87917,0 12.45306,-5.56684 12.45306,-12.44953 l 0,-155.82197 c 0,-6.88622 -5.57389,-12.46011 -12.45306,-12.46011 l -155.68438,0 c -6.87564,0 -12.44247,5.57389 -12.44247,12.46011 l 0,155.82197 c 0,6.86858 5.57389,12.44953 12.44247,12.44953"
     style="fill:#000000;fill-opacity:1;fill-rule:evenodd;stroke:none"
     id="path3383"
     inkscape:connector-curvature="0" />
  <path
     d="m 15.64217,179.05237 0,0 155.66322,0 c 4.30036,0 7.77522,-3.48545 7.77522,-7.77876 l 0,-155.44096 c 0,-4.30036 -3.47486,-7.77875 -7.77522,-7.77875 l -155.66322,0 c -4.29683,0 -7.77522,3.47839 -7.77522,7.77875 l 0,155.44096 c 0,4.30037 3.47133,7.77876 7.77522,7.77876"
     style="fill:#ffd033;fill-opacity:1;fill-rule:evenodd;stroke:none"
     id="path3387"
     inkscape:connector-curvature="0" />
  <path
     d="m 57.14295,108.21458 c -9.56027,0 -19.12055,-3.27731 -25.95033,-9.56381 -1.91206,-1.62983 -3.27731,-3.00214 -6.01134,-6.27591 l 11.2007,-8.46667 c 5.46453,7.09789 12.56242,10.10708 21.57942,10.10708 9.56028,0 16.11136,-4.37444 16.11136,-10.92905 0,-3.82412 -2.45533,-8.19151 -6.0078,-10.10709 -2.1837,-1.08656 -4.64256,-1.64042 -7.64823,-1.64042 l -3.82411,0 0,-13.93119 3.28084,0 c 6.0078,0 10.37872,-3.27378 10.37872,-7.64823 0,-4.6355 -5.461,-8.1915 -13.65956,-8.1915 -6.55461,0 -12.56242,2.73403 -17.2085,7.64823 L 29.00539,39.65926 C 36.65362,31.73587 46.2139,27.6366 57.41459,27.6366 c 15.56809,0 27.04042,9.28511 27.04042,21.85458 0,5.18936 -1.63688,8.73478 -6.27944,14.75317 7.64822,6.82625 9.83192,10.91848 9.83192,18.29859 0,14.478 -13.38439,25.67164 -30.86454,25.67164"
     style="fill:#000000;fill-opacity:1;fill-rule:nonzero;stroke:none"
     id="path3391"
     inkscape:connector-curvature="0" />
  <path
     d="m 128.97557,108.21458 c -10.65389,0 -20.21417,-2.72698 -30.04962,-8.74183 l 7.37659,-11.74045 c 6.82977,4.09222 14.75317,6.28297 22.67303,6.28297 11.74397,0 18.84539,-5.19641 18.84539,-13.93119 0,-4.09928 -1.90853,-8.19151 -4.91772,-10.65389 -2.72698,-2.1837 -6.82625,-3.27731 -12.56242,-3.27731 -5.18936,0 -9.28511,0.81844 -15.02128,3.00214 l -13.9312,-3.54895 2.45886,-36.6007 51.89715,0 -0.27517,13.65603 -38.51275,0 -0.82198,11.19717 c 6.28651,-1.36525 10.11062,-1.90853 15.02481,-1.90853 17.75531,0 30.5929,12.01562 30.5929,28.13404 0,16.383 -13.65603,28.1305 -32.77659,28.1305"
     style="fill:#000000;fill-opacity:1;fill-rule:nonzero;stroke:none"
     id="path3395"
     inkscape:connector-curvature="0" />
  <path
     d="m 67.75804,157.71636 0,-19.01119 -9.17575,19.01119 -9.06639,-19.01119 0,19.01119 -5.46453,0 0,-31.1397 5.46453,0 9.06639,18.46792 9.17575,-18.46792 5.46453,0 0,31.1397 -5.46453,0 z"
     style="fill:#000000;fill-opacity:1;fill-rule:nonzero;stroke:none"
     id="path3399"
     inkscape:connector-curvature="0" />
  <path
     d="m 98.67549,132.15408 -9.06639,0 0,7.75759 9.06639,0 c 2.73403,0 4.58964,-1.53106 4.58964,-3.82412 0,-2.40594 -1.85561,-3.93347 -4.58964,-3.93347 m 5.35517,12.12497 c -1.74626,0.98426 -3.16795,1.19945 -5.57037,1.19945 l -8.85119,0 0,12.23786 -5.68325,0 0,-31.1397 14.53444,0 c 2.40242,0 3.82411,0.33161 5.57037,1.31234 2.95275,1.63689 4.80836,4.699 4.80836,8.19855 0,3.27378 -1.85561,6.55109 -4.80836,8.1915"
     style="fill:#000000;fill-opacity:1;fill-rule:nonzero;stroke:none"
     id="path3403"
     inkscape:connector-curvature="0" />
  <path
     d="m 136.15107,157.71636 0,-13.65603 -13.98411,0.10936 0,13.54667 -5.57389,0 0,-31.1397 5.57389,0 0,12.01914 13.98411,0 0,-12.01914 5.57036,0 0,31.1397 -5.57036,0 z"
     style="fill:#000000;fill-opacity:1;fill-rule:nonzero;stroke:none"
     id="path3407"
     inkscape:connector-curvature="0" />
</svg>
