<?xml version="1.0" encoding="UTF-8" standalone="no"?>
<!-- Generator: Adobe Illustrator 12.0.1, SVG Export Plug-In  -->

<svg
   xmlns:dc="http://purl.org/dc/elements/1.1/"
   xmlns:cc="http://creativecommons.org/ns#"
   xmlns:rdf="http://www.w3.org/1999/02/22-rdf-syntax-ns#"
   xmlns:svg="http://www.w3.org/2000/svg"
   xmlns="http://www.w3.org/2000/svg"
   xmlns:sodipodi="http://sodipodi.sourceforge.net/DTD/sodipodi-0.dtd"
   xmlns:inkscape="http://www.inkscape.org/namespaces/inkscape"
   version="1.1"
   width="66.239998"
   height="82.701241"
   viewBox="-1 0 66.240007 82.701243"
   enable-background="new -1 0 289 288"
   xml:space="preserve"
   id="svg2"
   inkscape:version="0.48.2 r9819"
   sodipodi:docname="MUTCD W3-5.svg"><metadata
   id="metadata18"><rdf:RDF><cc:Work
       rdf:about=""><dc:format>image/svg+xml</dc:format><dc:type
         rdf:resource="http://purl.org/dc/dcmitype/StillImage" /><dc:title></dc:title></cc:Work></rdf:RDF></metadata><sodipodi:namedview
   pagecolor="#ffffff"
   bordercolor="#666666"
   borderopacity="1"
   objecttolerance="10"
   gridtolerance="10"
   guidetolerance="10"
   inkscape:pageopacity="0"
   inkscape:pageshadow="2"
   inkscape:window-width="1280"
   inkscape:window-height="1004"
   id="namedview16"
   showgrid="false"
   fit-margin-top="0"
   fit-margin-left="0"
   fit-margin-right="0"
   fit-margin-bottom="0"
   inkscape:zoom="7.5869735"
   inkscape:cx="22.465064"
   inkscape:cy="47.749055"
   inkscape:window-x="-8"
   inkscape:window-y="-8"
   inkscape:window-maximized="1"
   inkscape:current-layer="svg2"
   showguides="true"
   inkscape:guide-bbox="true" />
<defs
   id="defs4">
</defs>





<path
   inkscape:connector-curvature="0"
   d="m 4.53125,82.701251 55.17876,0 c 3.04625,0 5.53,-2.48375 5.53,-5.53 l 0,-71.6387555 c 0,-3.04625 -2.48375,-5.5324999731089 -5.53,-5.5324999731089 l -55.17876,0 C 1.485,-4.4731089e-6 -1,2.4862455 -1,5.5324955 l 0,71.6387555 c 0,3.04625 2.485,5.53 5.53125,5.53 z"
   style="fill:#ffd033;fill-opacity:1;fill-rule:evenodd;stroke:none"
   id="path4592" /><path
   inkscape:connector-curvature="0"
   d="m 4.565,81.542501 55.11001,0 c 2.45125,0 4.40625,-1.955 4.40625,-4.40625 l 0,-71.6700055 c 0,-2.4175 -1.955,-4.405 -4.40625,-4.405 l -55.11001,0 c -2.45125,0 -4.405,1.9875 -4.405,4.405 l 0,71.6700055 c 0,2.45125 1.95375,4.40625 4.405,4.40625"
   style="fill:#000000;fill-opacity:1;fill-rule:evenodd;stroke:none"
   id="path4594" /><path
   inkscape:connector-curvature="0"
   d="m 4.565,27.457496 55.11001,0 c 1.525,0 2.75,-1.22375 2.75,-2.74875 l 0,-19.2425005 c 0,-1.52375 -1.225,-2.75 -2.75,-2.75 l -55.11001,0 c -1.52375,0 -2.74875,1.22625 -2.74875,2.75 l 0,19.2425005 c 0,1.525 1.225,2.74875 2.74875,2.74875"
   style="fill:#ffd033;fill-opacity:1;fill-rule:evenodd;stroke:none"
   id="path4596" /><path
   inkscape:connector-curvature="0"
   d="m 4.565,79.886251 55.11001,0 c 1.525,0 2.75,-1.225 2.75,-2.75 l 0,-45.373755 c 0,-1.5225 -1.225,-2.74875 -2.75,-2.74875 l -55.11001,0 c -1.52375,0 -2.74875,1.22625 -2.74875,2.74875 l 0,45.373755 c 0,1.525 1.225,2.75 2.74875,2.75"
   style="fill:#ffd033;fill-opacity:1;fill-rule:evenodd;stroke:none"
   id="path4598" /><path
   inkscape:connector-curvature="0"
   d="m 23.54251,20.568746 0,-1.95375 -6.22625,0 0,-3.01375 3.27875,0 0,-2.02 -3.27875,0 0,-2.055 6.0275,0 0,-1.9875005 -8.04875,0 0,11.0300005 8.2475,0 z m 11.0625,0 -3.5775,-5.795 3.24625,-5.2350005 -2.3525,0 -2.08625,3.3787505 -2.08625,-3.3787505 -2.3525,0 3.28125,5.2350005 -3.57875,5.795 2.31875,0 2.4175,-3.90875 2.45125,3.90875 2.31875,0 z m 2.21875,0 1.95375,0 0,-11.0300005 -1.95375,0 0,11.0300005 z m 12.05625,-9.075 0,-1.9550005 -8.28,0 0,1.9550005 3.18,0 0,9.075 1.92,0 0,-9.075 3.18,0"
   style="fill:#000000;fill-opacity:1;fill-rule:evenodd;stroke:none"
   id="path4600" /><path
   inkscape:connector-curvature="0"
   d="m 30.29876,53.622491 0,-2.31875 -1.52375,0 0,-9.769995 -2.55,0 -7.98125,10.532495 0,1.55625 7.98125,0 0,4.00751 2.55,0 0,-4.00751 1.52375,0 z m -4.07375,-2.31875 -4.57,0 4.57,-6.027495 0,6.027495 z m 17.8175,-1.722495 c 0,-1.9875 -0.39625,-4.04 -1.05875,-5.43 -1.0275,-1.9875 -2.4175,-2.8825 -4.47125,-2.8825 -1.855,0 -3.14625,0.5625 -4.14,1.78875 -1.05875,1.5225 -1.7225,3.9075 -1.7225,6.52375 0,1.921245 0.43125,4.073745 1.1275,5.431245 0.96,1.98751 2.35,2.91501 4.635,2.91501 1.69,0 2.98125,-0.595 3.87625,-1.82125 1.15875,-1.42376 1.75375,-3.97501 1.75375,-6.525005 z m -2.51625,0 c 0,1.258745 -0.29875,2.848745 -0.62875,3.677495 -0.5625,1.42375 -1.29125,2.0525 -2.485,2.0525 -1.02625,0 -1.72,-0.39625 -2.21875,-1.2575 -0.63,-1.02875 -0.95875,-2.75 -0.95875,-4.472495 0,-1.32375 0.23125,-2.78125 0.6275,-3.7425 0.56375,-1.425 1.3575,-2.02 2.58375,-1.9875 0.96125,0.0675 1.59,0.39875 2.12,1.25875 0.59625,1.06125 0.96,2.71625 0.96,4.47125"
   style="fill:#000000;fill-opacity:1;fill-rule:evenodd;stroke:none"
   id="path4602" /><path
   inkscape:connector-curvature="0"
   d="m 24.30376,76.872501 -2.25125,-4.37125 1.58875,-1.65625 -1.6875,0 -1.6575,1.72125 0,-4.10625 -1.32375,0.63 0,7.7825 1.32375,0 0,-2.61625 0.7625,-0.79375 1.755,3.41 1.49,0 z m 9.10875,0 0,-4.1075 c 0,-2.11875 -2.815,-2.715 -3.8425,-1.39 -0.72875,-0.8275 -2.0875,-0.96125 -2.9475,-0.26625 l 0,-0.26375 -1.3575,0 0,6.0275 1.39,0 0,-3.90875 c 0,-0.695 0.39875,-1.02625 0.9275,-1.05875 0.69625,0 1.12625,0.265 1.12625,1.05875 l 0,3.90875 1.39125,0 0,-3.90875 c 0,-0.695 0.43125,-1.05875 0.96125,-1.05875 0.69375,0 1.05875,0.265 1.05875,1.05875 l 0,3.90875 1.2925,0"
   style="fill:#000000;fill-opacity:1;fill-rule:evenodd;stroke:none"
   id="path4604" /><path
   inkscape:connector-curvature="0"
   d="m 40.23501,68.658751 -1.325,0 -4.76875,8.21375 1.35625,0 4.7375,-8.21375"
   style="fill:#000000;fill-opacity:1;fill-rule:evenodd;stroke:none"
   id="path4606" /><path
   inkscape:connector-curvature="0"
   d="m 45.56626,76.872501 0,-4.14 c 0,-1.855 -2.2175,-2.58375 -3.57625,-1.68875 l 0,-2.58375 -1.325,0.63 0,7.7825 1.35875,0 0,-3.94125 c 0,-0.695 0.46375,-0.99375 0.99375,-1.02625 0.695,0 1.22625,0.165 1.22625,0.96 l 0,4.0075 1.3225,0"
   style="fill:#000000;fill-opacity:1;fill-rule:evenodd;stroke:none"
   id="path4608" /><path
   inkscape:connector-curvature="0"
   d="m 31.98751,32.623746 c 9.37375,0 17.0575,7.68375 17.0575,17.09125 0,9.405005 -7.68375,17.090005 -17.0575,17.090005 -9.43875,0 -17.1225,-7.685 -17.1225,-17.090005 0,-9.4075 7.68375,-17.09125 17.1225,-17.09125 z m 0,-1.1925 c -10.10125,0 -18.315,8.215 -18.315,18.28375 0,10.101255 8.21375,18.315005 18.315,18.315005 10.03625,0 18.2825,-8.21375 18.2825,-18.315005 0,-10.06875 -8.24625,-18.28375 -18.2825,-18.28375 z"
   style="fill:#000000;fill-opacity:1;fill-rule:evenodd;stroke:none"
   id="path4610" /></svg>