<svg xmlns="http://www.w3.org/2000/svg" width="90" height="74.845" viewBox="0 0 254 211.229">
    <path d="m21.703 1.528 222.352 90.074C249.94 93.72 254 99.483 254 105.777c0 6.473-4.177 12.294-10.294 14.298l-222.769 89.98a15.498 15.498 0 0 1-5.884 1.174C6.759 211.23 0 204.466 0 196.17V15.057C0 6.767 6.76 0 15.053 0c2.297 0 4.59.53 6.65 1.528" style="fill:#fcd116;fill-opacity:1;fill-rule:nonzero;stroke:none"/>
    <path d="M242.68 95.105c.44.17.86.346 1.294.55.78.41 1.46.861 2.142 1.415.331.283.634.572.945.882.695.766 1.26 1.538 1.778 2.434.197.385.377.77.55 1.172.378.963.621 1.887.766 2.914.042.44.067.867.074 1.305a13.462 13.462 0 0 1-.219 2.23c-.099.437-.208.853-.339 1.28a13.3 13.3 0 0 1-1.1 2.388c-.237.37-.484.724-.745 1.08a12.832 12.832 0 0 1-2.18 2.127c-.48.342-.956.642-1.478.928-.402.194-.8.37-1.214.536l-.578.205-223.023 90.082c-1.33.529-2.727.8-4.162.829-.434.004-.861-.025-1.288-.057-.766-.099-1.46-.24-2.198-.448-.522-.18-1.02-.377-1.531-.607-.494-.25-.949-.518-1.418-.818a14.249 14.249 0 0 1-1.28-1.009 18.875 18.875 0 0 1-1.133-1.182 17.71 17.71 0 0 1-.942-1.33c-.282-.48-.526-.952-.751-1.46a15.136 15.136 0 0 1-.53-1.567c-.13-.553-.229-1.093-.296-1.661l-.063-1.2.014-181.645c.049-.579.116-1.122.215-1.69.13-.55.275-1.065.458-1.598.201-.522.424-1.005.678-1.5.275-.479.564-.923.882-1.375.342-.434.688-.833 1.069-1.231.398-.385.797-.73 1.23-1.073.456-.32.904-.606 1.38-.882.494-.254.977-.476 1.496-.68l1.058-.325c1.154-.272 2.276-.402 3.461-.342 1.475.095 2.865.448 4.209 1.065l222.768 90.258z" style="fill:#000;fill-opacity:1;fill-rule:evenodd;stroke:none"/>
    <path d="M241.315 101.35c.81.469 1.418 1.079 1.915 1.876l.194.35c.681 1.428.702 2.86.067 4.31a5.386 5.386 0 0 1-1.425 1.838 5.351 5.351 0 0 1-1.302.741l-.6.212-223.16 90.138c-1.185.47-2.437.487-3.658.07l-.441-.186c-.917-.47-1.584-1.08-2.145-1.948a5.436 5.436 0 0 1-.617-1.573 6.796 6.796 0 0 1-.106-1.136l.007-181.247.05-.504c.186-1.016.578-1.813 1.252-2.593l.345-.35c1.105-.952 2.406-1.42 3.867-1.283a5.395 5.395 0 0 1 1.693.465l.402.19 223.171 90.397c.166.067.332.148.49.232" style="fill:#fcd116;fill-opacity:1;fill-rule:evenodd;stroke:none"/>
    <path d="M59.902 54.028c0 3.626-.219 5.5-.984 8.03-.773 2.641-1.986 3.848-3.853 3.848-1.982 0-3.189-1.207-3.961-3.849-.664-2.53-.992-4.512-.992-7.923 0-3.521.22-5.61.992-8.03.772-2.638 1.979-3.852 3.961-3.852 1.867 0 3.08 1.214 3.853 3.962.652 2.31.984 4.293.984 7.814m4.293 0c0-4.734-.44-7.701-1.764-10.785-1.538-3.848-3.735-5.39-7.366-5.39-3.63 0-5.834 1.542-7.482 5.281-1.323 2.97-1.764 6.16-1.764 10.894 0 4.836.441 7.81 1.764 10.89 1.535 3.743 3.74 5.408 7.482 5.408 3.521 0 5.828-1.665 7.366-5.408 1.323-2.97 1.764-6.054 1.764-10.89M39.66 69.758V38.4h-4.512v18.817L26.568 38.4h-4.512v31.358h4.512V48.743l9.68 21.015h3.412zM160.87 104.927v-6.491h-8.032v4.402h3.52v2.089c0 3.298-1.097 4.843-3.411 4.843-2.417 0-3.962-1.654-4.614-4.734-.441-2.416-.664-5.172-.664-7.814 0-3.736.55-7.257 1.426-8.798.772-1.542 1.986-2.31 3.52-2.31 2.205 0 3.634 1.428 3.743 3.52h4.512c-.218-4.622-3.63-7.92-8.142-7.92-3.633 0-6.823 2.416-7.92 5.718-1.1 2.97-1.432 6.163-1.432 10.563 0 4.07.663 8.47 1.655 10.784 1.538 3.52 4.286 5.408 8.025 5.408 3.193 0 5.726-1.669 6.932-4.417.664-1.323.882-2.642.882-4.843m-23.653 8.692V82.261h-4.513v18.813l-8.586-18.813h-4.505v31.358h4.505V92.608l9.687 21.011h3.412zM112.79 82.261h-4.402v31.358h4.402V82.261zm-9.68 22.775c0-4.508-2.646-7.923-8.696-11.44-2.307-1.32-2.967-2.202-2.967-3.744 0-2.088 1.644-3.63 3.74-3.63 1.979 0 3.52 1.43 3.63 3.63h4.293c-.11-4.727-3.52-8.138-7.923-8.138-4.512 0-8.033 3.63-8.033 8.138 0 2.756 1.323 5.172 3.852 6.933 6.378 4.29 4.622 3.08 5.285 3.743 1.866 1.428 2.526 2.748 2.526 4.508 0 2.533-1.983 4.734-4.403 4.734-3.08 0-4.403-2.751-4.403-5.394h-4.395c0 5.172 3.302 9.811 8.798 9.811 4.844 0 8.696-4.089 8.696-9.151m-21.234 0c0-4.508-2.646-7.923-8.696-11.44-2.307-1.32-2.97-2.202-2.97-3.744 0-2.088 1.654-3.63 3.743-3.63 1.975 0 3.52 1.43 3.63 3.63h4.293c-.113-4.727-3.52-8.138-7.923-8.138-4.516 0-8.036 3.63-8.036 8.138 0 2.756 1.323 5.172 3.852 6.933 6.382 4.29 4.625 3.08 5.285 3.743 1.866 1.428 2.529 2.748 2.529 4.508 0 2.533-1.98 4.734-4.403 4.734-3.08 0-4.395-2.751-4.395-5.394h-4.403c0 5.172 3.298 9.811 8.798 9.811 4.844 0 8.696-4.089 8.696-9.151m-28.056-4.4h-4.516l2.205-9.023 2.31 9.024zm7.81 12.983-7.81-31.358h-4.406l-7.81 31.358h4.511l2.089-8.583h6.717l2.197 8.583h4.512zm-26.3-22.556c0 2.86-1.424 4.512-4.07 4.512h-4.618v-8.912h4.618c2.423 0 4.07 1.76 4.07 4.4m4.403 0c0-5.282-3.298-8.802-8.255-8.802H22.13v31.358h4.512V99.864h4.836c5.289 0 8.255-3.08 8.255-8.801M106.06 157.699v-4.4H94.621v-10.343h6.491v-4.293h-6.49v-7.92h10.23v-4.4H90.11V157.7h15.95zm-21.594 0v-31.355h-4.512v18.813l-8.58-18.813h-4.512v31.355h4.512v-21.012l9.68 21.012h3.412zm-27.1-15.73c0 3.626-.22 5.496-.985 8.029-.772 2.638-1.982 3.852-3.852 3.852-1.983 0-3.19-1.214-3.962-3.852-.66-2.533-.991-4.509-.991-7.92 0-3.521.219-5.613.991-8.033.773-2.639 1.98-3.852 3.962-3.852 1.87 0 3.08 1.213 3.852 3.961.656 2.311.984 4.294.984 7.814m4.294 0c0-4.734-.441-7.704-1.757-10.784-1.542-3.852-3.74-5.39-7.373-5.39-3.63 0-5.835 1.538-7.483 5.28-1.322 2.971-1.763 6.16-1.763 10.894 0 4.84.44 7.81 1.763 10.89 1.546 3.74 3.743 5.409 7.483 5.409 3.52 0 5.831-1.669 7.373-5.408 1.316-2.97 1.757-6.05 1.757-10.89m-22.035 15.73v-4.29h-12.65l12.65-24.317v-2.858H23.562v4.4h10.453l-11.663 22.225v4.84h17.272z" style="fill:#000;fill-opacity:1;fill-rule:evenodd;stroke:none"/>
</svg>
