<svg xmlns="http://www.w3.org/2000/svg" width="66.065" height="14.68" viewBox="0 0 186.45 41.43">
    <path d="M177.98 0H8.474C3.81 0 0 3.81 0 8.477v24.487c0 4.663 3.81 8.466 8.474 8.466H177.98c4.667 0 8.47-3.803 8.47-8.466V8.477c0-4.667-3.803-8.477-8.47-8.477" style="fill:#fcd116;fill-opacity:1;fill-rule:nonzero;stroke:none"/>
    <path d="M177.98 2.826H8.474c-3.112 0-5.648 2.54-5.648 5.651v24.487c0 3.108 2.536 5.644 5.648 5.644H177.98a5.654 5.654 0 0 0 5.644-5.644V8.477c0-3.111-2.533-5.651-5.644-5.651" style="fill:#000;fill-opacity:1;fill-rule:evenodd;stroke:none"/>
    <path d="M177.962 5.651H8.403a2.843 2.843 0 0 0-2.84 2.844v24.447a2.843 2.843 0 0 0 2.84 2.84h169.56a2.845 2.845 0 0 0 2.84-2.84V8.495a2.846 2.846 0 0 0-2.84-2.844" style="fill:#fcd116;fill-opacity:1;fill-rule:evenodd;stroke:none"/>
    <path d="M169.076 20.694c0 1.609-.145 3.055-.29 4.367-.292 1.598-1.238 2.981-2.984 2.981h-2.47V13.137h2.47c1.312 0 2.18.653 2.692 2.114.36.87.582 3.122.582 5.443m2.907-.141c0-1.602-.219-3.419-.512-4.946-.363-2.106-1.231-3.704-2.47-4.58-.726-.578-1.597-.796-3.34-.796h-5.31v20.718h5.744c1.164 0 2.18-.296 2.907-.945 2.035-1.598 2.98-4.657 2.98-9.451m-16.065 10.396V10.231h-2.977v12.428l-5.67-12.428h-2.984v20.718h2.985V17.064l6.395 13.885h2.251zm-15.116 0v-2.907h-7.557v-6.837h4.283v-2.832h-4.283v-5.236h6.76v-2.906h-9.744v20.718h10.54zm-27.838-10.255c0 1.609-.148 3.055-.293 4.367-.293 1.598-1.238 2.981-2.98 2.981h-2.47V13.137h2.47c1.308 0 2.18.653 2.687 2.114.364.87.586 3.122.586 5.443m2.907-.141c0-1.602-.219-3.419-.512-4.946-.36-2.106-1.234-3.704-2.473-4.58-.723-.578-1.598-.796-3.34-.796h-5.306v20.718h5.743c1.164 0 2.18-.296 2.903-.945 2.036-1.598 2.985-4.657 2.985-9.451M96.245 22.37h-2.981l1.453-5.959 1.528 5.959zm5.157 8.58-5.157-20.72h-2.91l-5.162 20.72h2.985l1.376-5.673h4.434l1.453 5.672h2.981zm-15.116 0v-2.908h-7.564v-6.837h4.29v-2.832h-4.29v-5.236h6.763v-2.906h-9.74v20.718h10.54zM68.763 20.693c0 1.609-.144 3.055-.285 4.367-.293 1.598-1.235 2.981-2.985 2.981h-2.47V13.137h2.47c1.313 0 2.184.653 2.692 2.114.363.87.578 3.122.578 5.443m2.907-.141c0-1.602-.215-3.419-.504-4.946-.367-2.106-1.238-3.704-2.47-4.58-.73-.578-1.598-.796-3.348-.796h-5.302v20.718h5.74c1.164 0 2.18-.296 2.91-.945 2.032-1.598 2.974-4.657 2.974-9.451M45.554 16.926l-16.111.01 1.432-4.172c.127-.226.166-.501.205-.762.11-.787-.688-1.528-1.531-1.528-.395 0-.783.162-1.062.43l-14.02 9.744 14.02 10.121c.279.268.667.43 1.062.43.843 0 1.608-.684 1.53-1.534-.024-.254-.077-.53-.204-.755l-1.432-4.321 16.111-.046v-7.617z" style="fill:#000;fill-opacity:1;fill-rule:evenodd;stroke:none"/>
</svg>
