<svg xmlns="http://www.w3.org/2000/svg" width="66.065" height="14.68" viewBox="0 0 186.45 41.43">
    <path d="M8.47 0h169.507c4.663 0 8.473 3.81 8.473 8.477v24.487c0 4.663-3.81 8.466-8.473 8.466H8.47C3.803 41.43 0 37.627 0 32.964V8.477C0 3.81 3.803 0 8.47 0" style="fill:#fcd116;fill-opacity:1;fill-rule:nonzero;stroke:none"/>
    <path d="M8.47 2.826h169.507c3.111 0 5.647 2.54 5.647 5.651v24.487c0 3.108-2.536 5.644-5.647 5.644H8.47a5.654 5.654 0 0 1-5.644-5.644V8.477c0-3.111 2.533-5.651 5.644-5.651" style="fill:#000;fill-opacity:1;fill-rule:evenodd;stroke:none"/>
    <path d="M8.488 5.651h169.559a2.843 2.843 0 0 1 2.84 2.844v24.447a2.843 2.843 0 0 1-2.84 2.84H8.487a2.845 2.845 0 0 1-2.839-2.84V8.495a2.846 2.846 0 0 1 2.84-2.844" style="fill:#fcd116;fill-opacity:1;fill-rule:evenodd;stroke:none"/>
    <path d="M123.497 20.694c0 1.609-.145 3.055-.29 4.367-.292 1.598-1.237 2.981-2.984 2.981h-2.47V13.137h2.47c1.313 0 2.18.653 2.692 2.114.36.87.582 3.122.582 5.443m2.907-.141c0-1.602-.219-3.419-.512-4.946-.363-2.106-1.23-3.704-2.47-4.58-.726-.578-1.597-.796-3.34-.796h-5.31v20.718h5.744c1.164 0 2.18-.296 2.907-.945 2.035-1.598 2.98-4.657 2.98-9.451m-16.065 10.396V10.231h-2.977v12.428l-5.67-12.428h-2.984v20.718h2.985V17.064l6.396 13.885h2.25zm-15.116 0v-2.907h-7.557v-6.837h4.283v-2.832h-4.283v-5.236h6.76v-2.906H84.68v20.718h10.54zM67.384 20.694c0 1.609-.148 3.055-.293 4.367-.292 1.598-1.238 2.981-2.98 2.981h-2.47V13.137h2.47c1.308 0 2.18.653 2.687 2.114.364.87.586 3.122.586 5.443m2.907-.141c0-1.602-.219-3.419-.511-4.946-.36-2.106-1.235-3.704-2.474-4.58-.723-.578-1.598-.796-3.34-.796H58.66v20.718h5.743c1.164 0 2.18-.296 2.903-.945 2.036-1.598 2.985-4.657 2.985-9.451M50.666 22.37h-2.981l1.453-5.959 1.528 5.959zm5.158 8.58-5.158-20.72h-2.91l-5.162 20.72h2.985l1.376-5.673h4.434l1.454 5.672h2.98zm-15.117 0v-2.908h-7.564v-6.837h4.29v-2.832h-4.29v-5.236h6.763v-2.906h-9.74v20.718h10.541zM23.185 20.693c0 1.609-.145 3.055-.286 4.367-.293 1.598-1.235 2.981-2.985 2.981h-2.47V13.137h2.47c1.313 0 2.184.653 2.692 2.114.363.87.579 3.122.579 5.443m2.907-.141c0-1.602-.216-3.419-.505-4.946-.367-2.106-1.238-3.704-2.47-4.58-.73-.578-1.597-.796-3.347-.796h-5.302v20.718h5.74c1.163 0 2.18-.296 2.91-.945 2.032-1.598 2.974-4.657 2.974-9.451M140.896 16.926l16.111.01-1.432-4.172c-.127-.226-.166-.501-.204-.762-.11-.787.687-1.528 1.53-1.528.396 0 .784.162 1.062.43l14.02 9.744-14.02 10.121c-.278.268-.666.43-1.061.43-.844 0-1.61-.684-1.531-1.534.024-.254.077-.53.204-.755l1.432-4.321-16.111-.046v-7.617z" style="fill:#000;fill-opacity:1;fill-rule:evenodd;stroke:none"/>
</svg>
