<svg xmlns="http://www.w3.org/2000/svg" width="89.999" height="90.006" viewBox="0 0 253.997 254.016">
    <path d="M3.633 118.203 118.187 3.638c4.847-4.85 12.777-4.85 17.625 0l114.55 114.565c4.847 4.843 4.847 12.774 0 17.624l-114.55 114.55c-4.848 4.852-12.778 4.852-17.625 0L3.633 135.828c-4.844-4.85-4.844-12.78 0-17.624" style="fill:#fcd116;fill-opacity:1;fill-rule:nonzero;stroke:none"/>
    <path d="M6.396 120.022 120.008 6.402c3.845-3.845 10.135-3.845 13.984 0L247.6 120.022c3.846 3.845 3.846 10.135 0 13.98L133.992 247.614c-3.849 3.846-10.139 3.846-13.984 0L6.396 134.002c-3.846-3.845-3.846-10.135 0-13.98" style="fill:#000;fill-opacity:1;fill-rule:evenodd;stroke:none"/>
    <path d="M9.947 123.522 123.503 9.952c1.92-1.923 5.07-1.923 6.989 0l113.555 113.57c1.923 1.922 1.923 5.066 0 6.985L130.492 244.066c-1.92 1.923-5.07 1.923-6.989 0L9.947 130.506c-1.922-1.918-1.922-5.062 0-6.984" style="fill:#fcd116;fill-opacity:1;fill-rule:evenodd;stroke:none"/>
    <path d="M85.695 92.15a6.521 6.521 0 0 0 6.512-6.513 6.521 6.521 0 0 0-6.512-6.512c-3.58 0-6.509 2.924-6.509 6.512 0 3.588 2.928 6.512 6.509 6.512M182.173 112.744c3.584 0 6.512-2.928 6.512-6.509 0-3.59-2.928-6.512-6.512-6.512-3.585 0-6.513 2.921-6.513 6.512 0 3.581 2.928 6.51 6.513 6.51" style="fill:#000;fill-opacity:1;fill-rule:evenodd;stroke:none"/>
    <path style="fill:#000;fill-opacity:1;fill-rule:evenodd;stroke:none" d="m27.375 31.281-5.75 3.844c-.738.43-1.014 1.106-.781 2.063.066.298.152.546.218.843-.934-.241-1.875-.414-2.812-.656l-.625 2.688 7.938 1.75 2.312 4.437 2.688-.625-.594-2.875L59.5 49.156 57.75 51.5l2.156 1.688 4-3.032 7.938 1.75.562-2.687c-.95-.175-1.891-.419-2.844-.594.187-.241.378-.446.563-.688.612-.77.675-1.487.188-2.187l-3.626-5.906c-.94.169-1.872.33-2.812.5-1.342.905-2.689 1.811-4.031 2.718-.415.293-.594.704-.532 1.22l.157.687-.594 1.281-27.125-5.875v-1.406l.438-.563c.276-.441.284-.871.03-1.312-.837-1.387-1.664-2.769-2.5-4.157-.78-.55-1.562-1.106-2.343-1.656zm1.438 3.844 2.218 2.719-.25 2.343-1.562-.343-2.25-2.75 1.843-1.969zm34.937 7.594.844 2.562-3.188 1.532-1.562-.344.75-2.219 3.156-1.531z" transform="matrix(2.82222 0 0 2.82222 0 0)"/>
    <path d="M119.353 162.79v-25.482l7.698-6.928 7.867 6.928v25.481h-15.565z" style="fill:#000;fill-opacity:1;fill-rule:evenodd;stroke:none"/>
</svg>
