<svg xmlns="http://www.w3.org/2000/svg" width="11880" height="1350">
    <path style="fill:#fcd116;fill-rule:nonzero;stroke:none" d="M14982.964 755.008c0 92.239-74.766 167.005-167.005 167.005H453.543c-92.236 0-167.005-74.766-167.005-167.005V-581.031c0-92.234 74.77-167.005 167.005-167.005h14362.416c92.239 0 167.005 74.771 167.005 167.005V755.008z" transform="matrix(.80836 0 0 .80836 -231.626 604.682)"/>
    <path style="fill:#000;fill-rule:nonzero;stroke:none" d="M14871.627 755.008c0 30.695-24.973 55.668-55.668 55.668H453.543c-30.694 0-55.668-24.973-55.668-55.668V-581.031c0-30.694 24.974-55.668 55.668-55.668h14362.416c30.695 0 55.668 24.974 55.668 55.668V755.008zm-55.668-1461.293H453.543c-69.065 0-125.254 56.19-125.254 125.254V755.008c0 69.06 56.19 125.253 125.254 125.253h14362.416c69.074 0 125.253-56.194 125.253-125.253V-581.031c0-69.064-56.179-125.254-125.253-125.254z" transform="matrix(.80836 0 0 .80836 -231.626 604.682)"/>
    <path style="fill:#000;fill-rule:nonzero;stroke:none" d="m2039.594-80.6-93.724 225.016h187.448L2039.594-80.6zm210.89 501.6-65.611-157.044h-290.558L1828.702 421h-131.22l281.186-668.021h121.852l278.836 668.02h-128.872zM7359.904 125.666h-190.68v175.792h190.68c63.555 0 108.275-35.157 108.275-84.38 0-51.566-47.07-91.412-108.275-91.412zm0-253.146h-190.68V6.124h190.68c51.787 0 87.09-28.126 87.09-67.974s-32.953-65.63-87.09-65.63zm127.11 520.355C7454.06 411.625 7418.741 421 7383.438 421h-336.622v-668.021h313.087c58.838 0 80.023 4.688 115.342 23.44 56.487 32.814 91.806 89.07 91.806 152.356 0 53.91-21.185 100.789-65.92 138.29 58.853 42.19 87.105 93.758 87.105 157.045 0 67.974-40.02 135.947-101.224 168.765zM4266.186 421v-668.021h489.247v119.541h-366.931V-3.25h199.926v121.884h-199.926v182.825H4767.2V421h-501.014zM7748.561 421v-668.021h489.263v119.541h-366.947V-3.25h199.942v121.884h-199.942v182.825h378.699V421h-501.014zM10470.74 421v-668.021h489.263v119.541h-366.947V-3.25h199.942v121.884h-199.942v182.825h378.699V421h-501.015zM8532.216-127.48V8.468h209.344v121.885h-209.344V421h-122.315v-668.021h501.014v119.541h-378.699zM5621.26 421v-668.021h120.244v668.02H5621.26zM1132.336 421v-668.021h119.959v564.887h381.055V421h-501.014zM12998.87 421v-668.021h119.949v564.887h381.065V421h-501.014zM13636.162 421v-668.021h119.951v564.887h381.064V421h-501.015zM9307.397-139.2c-101.007 0-162.088 84.381-162.088 225.016 0 142.981 61.081 227.362 162.088 227.362 126.862 0 157.402-124.227 157.402-227.362 0-140.635-56.38-225.015-157.402-225.015zm0 571.92c-197.329 0-284.248-178.14-284.248-346.904 0-213.296 108.058-344.557 284.248-344.557 164.453 0 277.212 138.292 277.212 342.215 0 208.61-108.058 349.245-277.212 349.245zM12537.286-139.2c-101.022 0-162.103 84.381-162.103 225.016 0 142.981 61.081 227.362 162.103 227.362 126.862 0 157.402-124.227 157.402-227.362 0-140.635-56.395-225.015-157.402-225.015zm0 571.92c-197.344 0-284.264-178.14-284.264-346.904 0-213.296 108.059-344.557 284.264-344.557 164.439 0 277.213 138.292 277.213 342.215 0 208.61-108.073 349.245-277.213 349.245zM10080.831-127.48h-192.365V38.94h192.365c58.575 0 96.058-32.816 96.058-82.039 0-51.567-37.483-84.38-96.058-84.38zm96.058 548.48-107.764-262.52h-180.66V421h-119.47v-668.021h309.501c49.189 0 79.652 7.031 114.785 28.128 63.26 35.157 103.079 100.787 103.079 175.794 0 75.005-39.819 140.635-107.765 178.14L10310.416 421h-133.527zM2716.598 121.23c-29.737-8.206-104.502-26.154-129.723-40.945-50.287-29.48-88.73-77.691-88.73-149.166 0-110.166 94.158-185.171 230.7-185.171 98.857 0 181.262 32.814 249.517 103.131l-89.456 79.696c-42.37-44.535-96.507-65.632-160.061-65.632-68.271 0-108.29 25.785-108.29 67.976 0 37.502 23.535 53.91 105.924 72.66 89.455 18.752 148.31 37.503 185.978 56.255 58.854 30.47 96.507 93.758 96.507 166.419 0 67.974-30.602 119.541-94.157 157.043-47.086 28.128-108.29 44.535-169.494 44.535-115.342 0-202.447-42.19-277.77-128.915l96.508-75.007c49.436 58.598 103.59 84.384 178.912 84.384 84.74 0 145.943-37.505 145.943-86.727 0-62.701-68.193-71.8-172.308-100.535zM3406.188-129.824v550.825H3289.13v-550.825h-191.978v-117.197h501.015v117.197h-191.979zM11948.811-129.824v550.825h-117.058v-550.825h-191.979v-117.197h501.015v117.197h-191.978zM6186.803-129.824v550.825h-117.058v-550.825h-191.962v-117.197h501.014v117.197h-191.994zM5319.677 421.001l-150.675-236.738L5020.677 421h-141.259l218.947-351.59-200.112-316.432h143.608l127.14 203.924 127.125-203.924h143.61L5241.972 69.41l218.962 351.59h-141.258z" transform="matrix(.80836 0 0 .80836 -231.626 604.682)"/>
</svg>
