<?xml version="1.0" encoding="UTF-8" standalone="no"?>
<svg
   xmlns:dc="http://purl.org/dc/elements/1.1/"
   xmlns:cc="http://creativecommons.org/ns#"
   xmlns:rdf="http://www.w3.org/1999/02/22-rdf-syntax-ns#"
   xmlns:svg="http://www.w3.org/2000/svg"
   xmlns="http://www.w3.org/2000/svg"
   xmlns:sodipodi="http://sodipodi.sourceforge.net/DTD/sodipodi-0.dtd"
   xmlns:inkscape="http://www.inkscape.org/namespaces/inkscape"
   width="72.001251"
   height="89.999977"
   viewBox="0 0 203.20358 253.99993"
   version="1.1"
   id="svg2"
   inkscape:version="0.92.4 (5da689c313, 2019-01-14)"
   sodipodi:docname="MUTCD_W16-1P_(fluorescent).svg">
  <metadata
     id="metadata62">
    <rdf:RDF>
      <cc:Work
         rdf:about="">
        <dc:format>image/svg+xml</dc:format>
        <dc:type
           rdf:resource="http://purl.org/dc/dcmitype/StillImage" />
        <dc:title />
      </cc:Work>
    </rdf:RDF>
  </metadata>
  <defs
     id="defs60" />
  <sodipodi:namedview
     pagecolor="#ffffff"
     bordercolor="#666666"
     borderopacity="1"
     objecttolerance="10"
     gridtolerance="10"
     guidetolerance="10"
     inkscape:pageopacity="0"
     inkscape:pageshadow="2"
     inkscape:window-width="1920"
     inkscape:window-height="1057"
     id="namedview58"
     showgrid="false"
     fit-margin-top="0"
     fit-margin-left="0"
     fit-margin-right="0"
     fit-margin-bottom="0"
     inkscape:zoom="6.4858977"
     inkscape:cx="54.471644"
     inkscape:cy="47.620177"
     inkscape:window-x="-8"
     inkscape:window-y="-8"
     inkscape:window-maximized="1"
     inkscape:current-layer="svg2"
     showguides="true"
     inkscape:guide-bbox="true" />
  <!-- draw the bicycle -->
  <!-- RIGHT -->
  <!-- LANE -->
  <!-- ONLY -->
  <path
     inkscape:connector-curvature="0"
     d="M 0,237.06666 0,16.933266 C 0,7.6058668 7.60589,-3.3187396e-5 16.93686,-3.3187396e-5 l 169.32985,0 c 9.32039,0 16.93686,7.605899987396 16.93686,16.933299187396 l 0,220.133394 c 0,9.3274 -7.61647,16.9333 -16.93686,16.9333 l -169.32985,0 C 7.60589,253.99996 0,246.39406 0,237.06666"
     style="fill:#cdff00;fill-opacity:1;fill-rule:nonzero;stroke:none"
     id="path3303" />
  <path
     inkscape:connector-curvature="0"
     d="m 4.40267,236.09506 0,-218.189494 c 0,-7.4366 6.05014,-13.5043992 13.47611,-13.5043992 l 167.44248,0 c 7.42245,0 13.47612,6.0677992 13.47612,13.5043992 l 0,218.189494 c 0,7.4331 -6.05367,13.5009 -13.47612,13.5009 l -167.44248,0 c -7.42597,0 -13.47611,-6.0678 -13.47611,-13.5009"
     style="fill:#000000;fill-opacity:1;fill-rule:evenodd;stroke:none"
     id="path3311" />
  <path
     inkscape:connector-curvature="0"
     d="m 11.17565,235.95006 0,-217.900294 c 0,-3.7853 3.07975,-6.8756 6.85447,-6.8756 l 167.13204,0 c 3.77825,0 6.86506,3.0903 6.86506,6.8756 l 0,217.900294 c 0,3.7818 -3.08681,6.8722 -6.86506,6.8722 l -167.13204,0 c -3.77472,0 -6.85447,-3.0904 -6.85447,-6.8722"
     style="fill:#cdff00;fill-opacity:1;fill-rule:evenodd;stroke:none"
     id="path3315" />
  <path
     inkscape:connector-curvature="0"
     d="m 174.26309,79.319266 0,-5.9408 -15.43403,0 0,-13.9524 8.75594,0 0,-5.7855 -8.75594,0 0,-10.6963 13.80067,0 0,-5.9302 -19.88609,0 0,42.3052 21.51945,0 z m -34.43818,-31.0269 c 0,3.4185 -1.92969,5.3482 -5.48922,5.3482 l -6.23711,0 0,-10.6963 6.23711,0 c 3.2632,0 5.48922,2.0814 5.48922,5.3481 m 5.94078,31.0269 -6.08541,-20.7822 c 4.00402,-1.4887 6.08541,-5.1929 6.08541,-10.2447 0,-6.8297 -4.45205,-11.2783 -11.13367,-11.2783 l -12.62239,0 0,42.3052 6.08895,0 0,-19.8932 5.78908,0 5.64092,19.8932 6.23711,0 z m -40.08614,-17.5155 -6.08542,0 2.97039,-12.1743 3.11503,12.1743 z m 10.541,17.5155 -10.541,-42.3052 -5.93373,0 -10.541,42.3052 6.08189,0 2.82575,-11.5782 9.05228,0 2.97039,11.5782 6.08542,0 z m -32.80482,0 0,-42.3052 -6.09247,0 0,17.2191 -11.57464,0 0,-17.2191 -6.08895,0 0,42.3052 6.08895,0 0,-19.1488 11.57464,0 0,19.1488 6.09247,0 z m -30.88217,-11.5782 c 0,-6.089 -3.56306,-10.6927 -11.72634,-15.4376 -3.11503,-1.785 -4.01108,-2.9704 -4.01108,-5.0517 0,-2.8187 2.23308,-4.9001 5.05178,-4.9001 2.67405,0 4.74839,1.9297 4.90008,4.9001 l 5.78556,0 c -0.14464,-6.3783 -4.74839,-10.982 -10.68564,-10.982 -6.08542,0 -10.83734,4.8965 -10.83734,10.982 0,3.7147 1.78153,6.9814 5.19289,9.3556 8.61484,5.7891 6.23711,4.1557 7.12611,5.0447 2.52942,1.9297 3.41842,3.7148 3.41842,6.089 0,3.4114 -2.67405,6.3817 -5.94078,6.3817 -4.15572,0 -5.94078,-3.7112 -5.94078,-7.2742 l -5.93019,0 c 0,6.9779 4.44853,13.2362 11.87097,13.2362 6.52992,0 11.72634,-5.5139 11.72634,-12.3437"
     style="fill:#000000;fill-opacity:1;fill-rule:evenodd;stroke:none"
     id="path3319" />
  <path
     inkscape:connector-curvature="0"
     d="m 142.32013,147.98636 0,-5.9337 -15.43403,0 0,-13.9594 8.75594,0 0,-5.7856 -8.75594,0 0,-10.6891 13.80067,0 0,-5.9373 -19.89315,0 0,42.3051 21.52651,0 z m -30.57879,0 0,-42.3051 -6.08542,0 0,17.2191 -11.5817,0 0,-17.2191 -6.08894,0 0,42.3051 6.08894,0 0,-19.1488 11.5817,0 0,19.1488 6.08542,0 z m -29.54515,-36.6607 0,-5.6444 -21.5265,0 0,5.6444 7.71878,0 0,36.6607 6.09247,0 0,-36.6607 7.71525,0 z"
     style="fill:#000000;fill-opacity:1;fill-rule:evenodd;stroke:none"
     id="path3323" />
  <path
     inkscape:connector-curvature="0"
     d="m 153.82667,196.03226 c 0,3.2667 -0.29634,6.2371 -0.59267,8.9006 -0.59267,3.2667 -2.52236,6.0924 -6.09247,6.0924 l -5.0412,0 0,-30.4341 5.0412,0 c 2.67405,0 4.45911,1.337 5.4998,4.3074 0.74437,1.7851 1.18534,6.3782 1.18534,11.1337 m 5.94078,-0.2963 c 0,-3.2668 -0.44803,-6.9815 -1.0407,-10.093 -0.74436,-4.3074 -2.52236,-7.5742 -5.05178,-9.3592 -1.48166,-1.1854 -3.26672,-1.6334 -6.82272,-1.6334 l -10.83734,0 0,42.3157 11.72634,0 c 2.37772,0 4.45206,-0.5997 5.93372,-1.9297 4.16278,-3.2667 6.09248,-9.5038 6.09248,-19.3004 m -40.08262,3.7076 -6.08895,0 2.96686,-12.1673 3.12209,12.1673 z m 10.53747,17.5225 -10.53747,-42.3157 -5.93725,0 -10.54453,42.3157 6.09247,0 2.81869,-11.5852 9.05228,0 2.97039,11.5852 6.08542,0 z m -38.00123,-21.2301 c 0,4.9 -0.29634,7.4189 -1.33703,10.8302 -1.04069,3.5701 -2.67406,5.2035 -5.19642,5.2035 -2.67053,0 -4.30389,-1.6334 -5.34458,-5.2035 -0.889,-3.4113 -1.33703,-6.0819 -1.33703,-10.6856 0,-4.7484 0.29633,-7.5671 1.33703,-10.8303 1.04069,-3.5701 2.67405,-5.2035 5.34458,-5.2035 2.52236,0 4.15573,1.6334 5.19642,5.3481 0.889,3.1186 1.33703,5.7856 1.33703,10.5411 m 5.78908,0 c 0,-6.3889 -0.59266,-10.3964 -2.37772,-14.5521 -2.07433,-5.1965 -5.04472,-7.2743 -9.94481,-7.2743 -4.89655,0 -7.86694,2.0778 -10.09297,7.1296 -1.78506,4.0111 -2.37772,8.3079 -2.37772,14.6968 0,6.5334 0.59266,10.541 2.37772,14.6967 2.07433,5.0447 5.04472,7.2954 10.09297,7.2954 4.74839,0 7.87048,-2.2507 9.94481,-7.2954 1.78506,-4.0111 2.37772,-8.1633 2.37772,-14.6967 m -36.96759,-9.7967 c 0,3.4078 -1.92969,5.3375 -5.48922,5.3375 l -6.23711,0 0,-10.6856 6.23711,0 c 3.26319,0 5.48922,2.0814 5.48922,5.3481 m 5.94078,31.0268 -6.08542,-20.7892 c 4.00403,-1.4816 6.08542,-5.1964 6.08542,-10.2376 0,-6.8298 -4.45206,-11.2889 -11.13367,-11.2889 l -12.61886,0 0,42.3157 6.08542,0 0,-19.8931 5.78908,0 5.64092,19.8931 6.23711,0 z"
     style="fill:#000000;fill-opacity:1;fill-rule:evenodd;stroke:none"
     id="path3327" />
</svg>
