<svg xmlns="http://www.w3.org/2000/svg" width="90" height="72.001" viewBox="0 0 254 203.204">
    <path d="M16.933 0h220.134C246.394 0 254 7.606 254 16.937v169.33c0 9.327-7.606 16.937-16.933 16.937H16.933C7.606 203.204 0 195.594 0 186.267V16.937C0 7.606 7.606 0 16.933 0" style="fill:#fcd116;fill-opacity:1;fill-rule:nonzero;stroke:none"/>
    <path d="M17.905 4.403h218.19c7.436 0 13.503 6.053 13.503 13.48V185.32c0 7.426-6.067 13.48-13.504 13.48H17.904c-7.433 0-13.5-6.054-13.5-13.48V17.882c0-7.426 6.067-13.48 13.5-13.48" style="fill:#000;fill-opacity:1;fill-rule:evenodd;stroke:none"/>
    <path d="M18.05 11.176h217.9c3.785 0 6.875 3.083 6.875 6.861v167.129c0 3.778-3.09 6.861-6.875 6.861H18.05c-3.782 0-6.873-3.083-6.873-6.861V18.037c0-3.778 3.09-6.861 6.873-6.861" style="fill:#fcd116;fill-opacity:1;fill-rule:evenodd;stroke:none"/>
    <path d="M191.176 44.168v-6.77h-25.827v6.77h9.264v43.995h7.303V44.168h9.26zm-28.857 43.995-11.046-26.36 10.153-24.405h-7.659l-6.413 15.318-6.41-15.318h-7.662l10.332 24.405-11.041 26.36h7.658l7.123-17.276 7.13 17.276h7.835zm-34.382 0V81.04h-18.524V64.294h10.509v-6.946h-10.51V44.52h16.564v-7.122H102.11v50.765h25.827zm-36.696 0V37.398H83.94V67.86L70.043 37.398H62.74v50.765h7.303V54.14l15.674 34.022h5.524zM225.141 121.916v-6.77h-25.83v6.77h9.264v43.999h7.302v-43.999h9.264zm-28.86.356v-7.126h-25.828v50.769h7.303v-23.87h10.153V135.1h-10.153v-12.827h18.524zm-68.228 18.172c0 5.877-.353 8.904-1.602 13.003-1.245 4.276-3.206 6.237-6.233 6.237-3.207 0-5.168-1.96-6.417-6.237-1.066-4.099-1.602-7.302-1.602-12.823 0-5.705.357-9.088 1.602-13.007 1.249-4.276 3.21-6.237 6.417-6.237 3.027 0 4.988 1.961 6.233 6.417 1.07 3.74 1.602 6.946 1.602 12.647m6.95 0c0-7.659-.713-12.47-2.85-17.455-2.495-6.238-6.058-8.732-11.935-8.732-5.877 0-9.44 2.494-12.115 8.552-2.137 4.808-2.85 9.976-2.85 17.635 0 7.835.713 12.647 2.85 17.635 2.495 6.058 6.058 8.756 12.115 8.756 5.697 0 9.44-2.698 11.934-8.756 2.138-4.808 2.85-9.8 2.85-17.635m-45.96 0c0 5.877-.355 8.904-1.6 13.003-1.25 4.276-3.207 6.237-6.238 6.237-3.207 0-5.168-1.96-6.413-6.237-1.07-4.099-1.602-7.302-1.602-12.823 0-5.705.353-9.088 1.602-13.007 1.245-4.276 3.206-6.237 6.413-6.237 3.03 0 4.988 1.961 6.237 6.417 1.07 3.74 1.602 6.946 1.602 12.647m6.95 0c0-7.659-.713-12.47-2.854-17.455-2.494-6.238-6.058-8.732-11.935-8.732-5.877 0-9.444 2.494-12.11 8.552-2.142 4.808-2.855 9.976-2.855 17.635 0 7.835.713 12.647 2.854 17.635 2.494 6.058 6.054 8.756 12.111 8.756 5.698 0 9.44-2.698 11.935-8.756 2.141-4.808 2.854-9.8 2.854-17.635m-37.412 7.662c0-9.623-5.701-16.213-13.893-16.213-1.961 0-3.207.18-5.704 1.069l.536-10.69h17.1v-7.126H32.75l-1.249 25.298 6.95.893c1.782-1.606 3.743-2.495 6.057-2.495 4.276 0 6.95 3.384 6.95 8.904 0 6.95-3.923 11.938-9.444 11.938-2.494 0-4.456-.712-6.946-2.494l-4.808 5.165c3.735 2.85 8.011 4.48 12.467 4.48 9.084 0 15.854-8.043 15.854-18.729" style="fill:#000;fill-opacity:1;fill-rule:evenodd;stroke:none"/>
</svg>
