<svg xmlns="http://www.w3.org/2000/svg" width="89.999" height="67.501" viewBox="0 0 253.996 190.503">
    <path d="M232.244.007H20.25l-.02.02C9.291.508.472 9.346.016 20.285L0 20.305v149.222c.095 10.707 8.213 19.554 18.609 20.82l.138.156h214.626l.007-.01c11.084-.283 20.098-9.166 20.595-20.197l.021-.028V22.179l-.02-.028c.013-.328.02-.653.02-.984C253.996 9.507 244.486 0 232.83 0c-.194 0-.388 0-.582.01l-.004-.01z" style="fill:#fcd116;fill-opacity:1;fill-rule:nonzero;stroke:none"/>
    <path d="M230.713 4.24H23.28C12.788 4.24 4.23 12.8 4.23 23.287v143.937c0 10.495 8.558 19.053 19.05 19.053h207.433c10.495 0 19.05-8.558 19.05-19.053V23.287c0-10.488-8.555-19.047-19.05-19.047" style="fill:#000;fill-opacity:1;fill-rule:evenodd;stroke:none"/>
    <path d="M230.53 10.53H23.467c-7.158 0-12.99 5.835-12.99 12.99v143.542c0 7.157 5.832 12.992 12.99 12.992H230.53c7.154 0 12.989-5.835 12.989-12.992V23.52c0-7.155-5.835-12.99-12.99-12.99" style="fill:#fcd116;fill-opacity:1;fill-rule:evenodd;stroke:none"/>
    <path d="m47.177 82.36 114.505.031-5.066-14.756c-.445-.801-.586-1.764-.717-2.682-.398-2.783 2.428-5.411 5.409-5.411 1.393 0 2.769.568 3.764 1.517l49.547 34.466-49.547 35.782a5.53 5.53 0 0 1-3.764 1.521c-2.981 0-5.677-2.43-5.412-5.412.081-.927.275-1.88.72-2.684l5.066-15.283-114.505-.158V82.36z" style="fill:#000;fill-opacity:1;fill-rule:evenodd;stroke:none"/>
</svg>
