<svg xmlns="http://www.w3.org/2000/svg" width="2160" height="1620" viewBox="-1 -0.876 2160 1620" xml:space="preserve">
    <path style="fill:#fcd116;fill-rule:nonzero;stroke:none" d="M2159 1484.124c0 74.563-60.438 135-135 135H134c-74.56 0-135-60.438-135-135v-1350c0-74.56 60.44-135 135-135h1890c74.563 0 135 60.44 135 135v1350z"/>
    <path style="fill:#000;fill-rule:nonzero;stroke:none" d="M134 1585.374c-55.83 0-101.25-45.425-101.25-101.25v-1350c0-55.83 45.42-101.25 101.25-101.25h1890c55.825 0 101.25 45.42 101.25 101.25v1350c0 55.825-45.425 101.25-101.25 101.25H134z"/>
    <path style="fill:#fcd116;fill-rule:nonzero;stroke:none" d="M134 1529.124c-24.814 0-45-20.188-45-45v-1350c0-24.814 20.186-45 45-45h1890c24.813 0 45 20.186 45 45v1350c0 24.813-20.188 45-45 45H134z"/>
    <path style="fill:#000;fill-rule:nonzero;stroke:none" d="M1604.463 314.124h57.6v360.001h-57.6V314.124zM327.061 364.65v309.474h-57.086V364.65h-82.469v-50.526h223.291v50.526h-83.736zM611.899 377.283c-8.84-5.054-13.894-6.316-32.843-6.316H510.84v88.42h68.216c17.686 0 24.003-1.262 32.843-6.313 13.898-7.581 22.741-22.74 22.741-37.896 0-15.159-8.842-30.317-22.741-37.895zm25.266 296.842-58.109-156.633H510.84v156.633h-56.844V314.124H572.74c27.792 0 46.741 2.526 64.426 11.369 31.582 15.159 54.32 53.052 54.32 89.685 0 37.896-22.738 75.788-55.583 90.949l63.164 167.998h-61.901zM875.832 413.915 838.99 514.97h72.417l-35.573-101.054zm91.475 260.21-35.572-101.051H818.662L783.09 674.125h-60.983l124.504-360.001h57.172l124.505 360.001h-60.98zM1861.85 680.442c-53.05 0-87.162-20.212-109.9-64.422-16.425-31.578-26.525-77.053-26.525-122.527 0-56.841 15.162-113.684 40.425-145.264 21.475-26.525 51.788-40.42 92.213-40.42 54.325 0 88.424 22.738 112.424 73.264l-53.05 22.736c-20.212-30.316-31.574-37.895-59.374-37.895-29.05 0-48 12.631-60.638 44.211-8.838 21.474-13.887 53.053-13.887 83.368 0 39.159 8.837 78.317 22.737 101.054 12.625 18.946 29.05 27.79 54.312 27.79 24 0 41.688-12.633 55.588-41.685l54.313 20.21c-21.475 53.053-56.838 79.58-108.638 79.58M1128.255 370.966v88.422h104.705v58.106h-104.705v156.631h-56.77V314.124h223.29v56.843h-166.52zM1394.75 370.966v88.422h104.7v58.106h-104.7v156.631h-56.775V314.124h223.287v56.843H1394.75zM607.176 944.123h57.6v360.001h-57.6V944.123zM1374.513 1304.124V944.12h56.775v306.954h166.525v53.05h-223.3zM909.079 1007.282c-8.841-5.054-13.895-6.315-32.844-6.315h-68.216v88.42h68.216c17.687 0 24.002-1.263 32.844-6.314 13.897-7.58 22.74-22.739 22.74-37.895 0-15.159-8.843-30.316-22.74-37.896zm25.265 296.842-58.109-156.635h-68.216v156.635h-56.844V944.123h118.743c27.792 0 46.74 2.527 64.426 11.37 31.582 15.158 54.32 53.051 54.32 89.685 0 37.895-22.738 75.788-55.583 90.947l63.164 167.999h-61.901zM1651.8 1304.124V944.123h211.938v56.842h-155.163v88.421h104.7v58.106h-104.7v98.527H1875.1v58.105h-223.3zM1186.674 1310.437c-53.058 0-87.164-20.213-109.901-64.418-16.422-31.579-26.528-77.054-26.528-122.528 0-56.84 15.158-113.684 40.423-145.263 21.475-26.525 51.792-40.421 92.216-40.421 54.32 0 88.429 22.74 112.429 73.265l-53.057 22.736c-20.21-30.316-31.581-37.895-59.372-37.895-29.055 0-48.003 12.631-60.634 44.211-8.844 21.474-13.898 53.053-13.898 83.368 0 39.158 8.844 78.316 22.74 101.053 12.632 18.946 29.053 27.791 54.32 27.791 24 0 41.687-12.633 55.583-41.685l54.318 20.21c-21.475 53.05-56.846 79.575-108.64 79.575M419.335 1310.437c-53.056 0-87.162-20.213-109.903-64.418-16.42-31.579-26.527-77.054-26.527-122.528 0-56.84 15.158-113.684 40.424-145.263 21.475-26.525 51.792-40.421 92.217-40.421 54.319 0 88.428 22.74 112.429 73.265l-53.056 22.736c-20.213-30.316-31.583-37.895-59.373-37.895-29.055 0-48.003 12.631-60.635 44.211-8.842 21.474-13.896 53.053-13.896 83.368 0 39.158 8.843 78.316 22.739 101.053 12.632 18.946 29.052 27.791 54.319 27.791 24 0 41.687-12.633 55.583-41.685l54.319 20.21c-21.475 53.05-56.845 79.575-108.64 79.575"/>
</svg>
