<svg xmlns="http://www.w3.org/2000/svg" width="90" height="67.501" viewBox="0 0 254 190.503">
    <path d="M21.756.003H233.747l.02.02c10.93.48 19.756 9.314 20.212 20.257l.02.021v149.222h-.01c-.091 10.707-8.205 19.558-18.605 20.82l-.138.16H20.62l-.007-.01C9.529 190.21.515 181.327.02 170.289L0 170.268V22.172l.021-.021A22.918 22.918 0 0 1 0 21.167C0 9.507 9.507 0 21.167 0c.19 0 .384 0 .578.01l.007-.01z" style="fill:#fcd116;fill-opacity:1;fill-rule:nonzero;stroke:none"/>
    <path d="M23.283 4.233H230.71c10.496 0 19.054 8.558 19.054 19.05V167.22c0 10.488-8.558 19.046-19.054 19.046H23.283c-10.491 0-19.05-8.558-19.05-19.046V23.283c0-10.492 8.559-19.05 19.05-19.05" style="fill:#000;fill-opacity:1;fill-rule:evenodd;stroke:none"/>
    <path d="M23.47 10.523h207.06c7.154 0 12.99 5.839 12.99 12.99v143.541c0 7.162-5.836 12.996-12.99 12.996H23.47c-7.157 0-12.996-5.834-12.996-12.996V23.512c0-7.15 5.839-12.989 12.996-12.989" style="fill:#fcd116;fill-opacity:1;fill-rule:evenodd;stroke:none"/>
    <path d="m179.31 85.495.01 72.277h27.21V65.295c0-7.479-6.1-13.518-13.575-13.518l-100.634.039 5.063-14.764c.448-.801.585-1.757.716-2.681.402-2.784-2.424-5.408-5.408-5.408-1.39 0-2.77.564-3.761 1.513L39.376 64.95l49.555 35.776a5.522 5.522 0 0 0 3.76 1.52c2.985 0 5.68-2.43 5.409-5.408-.074-.931-.268-1.88-.716-2.688L92.32 78.867l80.204-.16c3.218 0 6.788 2.625 6.788 6.788" style="fill:#000;fill-opacity:1;fill-rule:evenodd;stroke:none"/>
</svg>
