<?xml version="1.0" encoding="UTF-8" standalone="no"?>
<svg
   xmlns:dc="http://purl.org/dc/elements/1.1/"
   xmlns:cc="http://creativecommons.org/ns#"
   xmlns:rdf="http://www.w3.org/1999/02/22-rdf-syntax-ns#"
   xmlns:svg="http://www.w3.org/2000/svg"
   xmlns="http://www.w3.org/2000/svg"
   xmlns:sodipodi="http://sodipodi.sourceforge.net/DTD/sodipodi-0.dtd"
   xmlns:inkscape="http://www.inkscape.org/namespaces/inkscape"
   width="90"
   height="44.999989"
   viewBox="0 0 254.00007 126.99995"
   version="1.1"
   id="svg2"
   inkscape:version="0.92.4 (5da689c313, 2019-01-14)"
   sodipodi:docname="MUTCD_W16-9P_(fluorescent).svg">
  <metadata
     id="metadata62">
    <rdf:RDF>
      <cc:Work
         rdf:about="">
        <dc:format>image/svg+xml</dc:format>
        <dc:type
           rdf:resource="http://purl.org/dc/dcmitype/StillImage" />
        <dc:title />
      </cc:Work>
    </rdf:RDF>
  </metadata>
  <defs
     id="defs60" />
  <sodipodi:namedview
     pagecolor="#ffffff"
     bordercolor="#666666"
     borderopacity="1"
     objecttolerance="10"
     gridtolerance="10"
     guidetolerance="10"
     inkscape:pageopacity="0"
     inkscape:pageshadow="2"
     inkscape:window-width="1920"
     inkscape:window-height="1057"
     id="namedview58"
     showgrid="false"
     fit-margin-top="0"
     fit-margin-left="0"
     fit-margin-right="0"
     fit-margin-bottom="0"
     inkscape:zoom="8.0361263"
     inkscape:cx="25.671191"
     inkscape:cy="13.18095"
     inkscape:window-x="-8"
     inkscape:window-y="-8"
     inkscape:window-maximized="1"
     inkscape:current-layer="svg2"
     showguides="true"
     inkscape:guide-bbox="true" />
  <!-- draw the bicycle -->
  <!-- RIGHT -->
  <!-- LANE -->
  <!-- ONLY -->
  <path
     inkscape:connector-curvature="0"
     d="m 21.16667,-3.4275135e-5 211.66671,0 c 11.6593,0 21.1667,9.260399975135 21.1667,20.619900275135 l 0,85.767304 c 0,11.3524 -9.5074,20.6128 -21.1667,20.6128 l -211.66671,0 C 9.50736,126.99997 0,117.73957 0,106.38717 L 0,20.619866 C 0,9.2603657 9.50736,-3.4275135e-5 21.16667,-3.4275135e-5"
     style="fill:#cdff00;fill-opacity:1;fill-rule:nonzero;stroke:none"
     id="path3545" />
  <path
     inkscape:connector-curvature="0"
     d="m 232.78048,4.2367657 c 9.204,0.2258 16.7499,7.0874003 16.9827,16.4395003 0.042,1.4464 0,2.9069 0,4.3568 0,9.017 -0.01,18.034 -0.01,27.0545 -0.01,18.1752 -0.01,36.3573 -0.014,54.532404 -0.01,9.3099 -8.3502,16.122 -17.2473,16.122 l -12.4989,0 c -17.94581,0 -35.9022,0.01 -53.85154,0.01 -42.15696,0.01 -84.32097,0.011 -126.48145,0.014 -11.77573,0 -29.60512,2.9527 -34.53696,-11.1795 C 3.32739,106.43587 4.2305,99.810666 4.2305,94.480266 c 0.007,-10.5904 0.007,-21.1808 0.0106,-31.7712 0.004,-10.5234 0.004,-21.0432 0.0106,-31.5666 0,-6.9497 -1.0407,-14.3016 3.31964,-20.2635 7.52828,-9.3310003 22.67303,-6.6217003 33.30223,-6.6217003 42.54501,-0.01 85.0865,-0.01 127.63151,-0.011 21.42067,0 42.8484,-0.01 64.2726,-0.01"
     style="fill:#000000;fill-opacity:1;fill-rule:evenodd;stroke:none"
     id="path3553" />
  <path
     inkscape:connector-curvature="0"
     d="m 21.16667,10.583266 211.66671,0 c 5.8279,0 10.5833,4.7555 10.5833,10.5834 l 0,84.666704 c 0,5.8314 -4.7554,10.5833 -10.5833,10.5833 l -211.66671,0 c -5.82789,0 -10.58334,-4.7519 -10.58334,-10.5833 l 0,-84.666704 c 0,-5.8279 4.75545,-10.5834 10.58334,-10.5834"
     style="fill:#cdff00;fill-opacity:1;fill-rule:evenodd;stroke:none"
     id="path3557" />
  <path
     inkscape:connector-curvature="0"
     d="m 210.93614,66.946566 c 0,5.6445 -1.33703,10.2377 -3.85939,12.7671 -1.18534,1.1853 -2.51884,1.6333 -4.74487,1.6333 l -6.68514,0 0,-28.8007 7.57414,0 c 1.778,0 3.2632,0.7443 4.30389,1.778 2.07434,2.233 3.41137,6.9779 3.41137,12.6223 m 6.82978,0 c 0,-8.3149 -2.52237,-14.993 -6.97442,-18.8524 -2.23309,-1.7851 -3.86645,-2.2331 -8.16328,-2.2331 l -13.66309,0 0,42.3157 12.91873,0 2.37772,0 c 2.2225,-0.1517 4.44853,-0.889 6.08189,-2.3777 4.74839,-3.7148 7.42245,-10.3928 7.42245,-18.8525 m -48.83857,2.5224 -8.46314,0 4.30036,-11.878 4.16278,11.878 z m 13.65603,18.7078 -14.55209,-42.3157 -6.67808,0 -14.55209,42.3157 7.13317,0 4.15572,-11.8815 13.208,0 4.15926,11.8815 7.12611,0 z m -39.04546,0 0,-6.8298 -19.59681,0 0,-11.5817 12.32606,0 0,-6.8297 -12.32606,0 0,-10.3893 18.25979,0 0,-6.6852 -24.93787,0 0,42.3157 26.27489,0 z m -36.22323,0 0,-42.3157 -6.67808,0 0,17.0745 -15.43757,0 0,-17.0745 -6.68514,0 0,42.3157 6.68514,0 0,-18.4115 15.43757,0 0,18.4115 6.67808,0 z m -48.83857,-18.7078 -8.45961,0 4.30036,-11.878 4.15925,11.878 z m 13.65603,18.7078 -14.55209,-42.3157 -6.67455,0 -14.55209,42.3157 7.12964,0 4.15572,-11.8815 13.20801,0 4.16278,11.8815 7.12258,0 z"
     style="fill:#000000;fill-opacity:1;fill-rule:evenodd;stroke:none"
     id="path3561" />
</svg>
