<svg xmlns="http://www.w3.org/2000/svg" width="2160" height="1080" viewBox="-1 -0.876 2160 1080" xml:space="preserve">
    <path style="fill:#fcd116;fill-rule:nonzero;stroke:none" d="M2159 944.124c0 74.558-60.438 135-135 135H134c-74.56 0-135-60.443-135-135v-810c0-74.56 60.44-135 135-135h1890c74.563 0 135 60.44 135 135v810z"/>
    <path style="fill:#000;fill-rule:nonzero;stroke:none" d="M2069 944.124c0 24.814-20.188 45-45 45H134c-24.813 0-45-20.186-45-45v-810c0-24.813 20.187-45 45-45h1890c24.813 0 45 20.187 45 45v810zm-45-911.25H134c-55.83 0-101.25 45.42-101.25 101.25v810c0 55.829 45.42 101.25 101.25 101.25h1890c55.825 0 101.25-45.421 101.25-101.25v-810c0-55.83-45.425-101.25-101.25-101.25z"/>
    <path style="fill:#000;fill-rule:nonzero;stroke:none" d="M1079 882.249c-77.665 0-140.625-62.959-140.625-140.625s62.96-140.625 140.625-140.625c77.665 0 140.625 62.959 140.625 140.625S1156.665 882.249 1079 882.249zm337.5-331.875h-675c-12.426 0-22.5 10.074-22.5 22.5v337.5c0 12.426 10.074 22.5 22.5 22.5h675c12.425 0 22.5-10.074 22.5-22.5v-337.5c0-12.426-10.075-22.5-22.5-22.5zM1185.875 392.874h-213.75c-12.426 0-22.5 10.074-22.5 22.5v90c0 12.426 10.074 22.5 22.5 22.5h213.75c12.426 0 22.5-10.074 22.5-22.5v-90c0-12.426-10.074-22.5-22.5-22.5zM924.413 439.024l-195.6-52.413-8.735 32.6 195.6 52.413 8.735-32.6zM974.455 346.508 831.266 203.319l-23.865 23.865 143.189 143.19 23.865-23.866zM1242.322 471.624l195.603-52.413-8.738-32.6-195.6 52.413 8.736 32.6zM1350.6 227.184l-23.862-23.865-143.193 143.189 23.866 23.866 143.189-143.19zM1095.875 156.624h-33.75v202.5h33.75v-202.5z"/>
</svg>
