<svg xmlns="http://www.w3.org/2000/svg" width="97.5" height="45" viewBox="0 0 275.167 127">
    <path d="M19.05 0h237.063c10.495 0 19.054 8.558 19.054 19.05v88.896c0 10.496-8.559 19.054-19.054 19.054H19.05C8.555 127 0 118.442 0 107.946V19.05C0 8.558 8.555 0 19.05 0" style="fill:#fcd116;fill-opacity:1;fill-rule:nonzero;stroke:none"/>
    <path d="M19.05 6.354h237.063c7 0 12.707 5.704 12.707 12.696v88.896c0 7.003-5.708 12.708-12.707 12.708H19.05c-6.996 0-12.7-5.705-12.7-12.708V19.05c0-6.992 5.704-12.696 12.7-12.696" style="fill:#000;fill-opacity:1;fill-rule:evenodd;stroke:none"/>
    <path d="M19.093 12.696H256.07c3.52 0 6.396 2.875 6.396 6.396v88.815c0 3.521-2.875 6.393-6.396 6.393H19.093c-3.521 0-6.39-2.872-6.39-6.393V19.092c0-3.52 2.869-6.396 6.39-6.396" style="fill:#fcd116;fill-opacity:1;fill-rule:evenodd;stroke:none"/>
    <path d="M49.671 39.536v16.15h9.289v8.41H49.67v30.307h-7.966V31.351h24.116v8.185h-16.15zM72.677 48.386h7.965v46.017h-7.965V48.386zm3.982-10.177c-2.212 0-3.983-1.771-3.983-4.202 0-2.215 1.771-3.983 4.202-3.983 2.212 0 3.983 1.768 3.983 4.202 0 2.212-1.771 3.983-4.202 3.983M106.522 58.564c-1.105-1.548-1.994-2.656-3.32-2.656-3.097 0-4.424 3.32-4.424 9.07v29.425h-7.962V48.387h7.962v2.212c1.327-2.212 2.212-3.317 4.205-3.317 1.99 0 3.539 1.327 4.424 3.098l-.885 8.184zM128.203 90.865c-2.212 2.875-5.531 4.423-8.847 4.423-3.539 0-6.42-.885-9.074-4.868l2.212-9.292c2.212 4.868 4.205 6.64 6.417 6.64 2.875 0 3.98-1.994 3.98-5.755 0-1.77-1.327-6.417-5.529-9.733-4.646-3.76-7.08-6.858-7.08-13.497 0-2.875.663-5.528 2.212-7.74 1.771-2.434 3.542-3.76 7.525-3.76 3.094 0 5.972 1.767 9.066 5.527l-2.43 8.407c-2.879-5.087-4.205-6.636-6.195-6.636-1.549 0-2.43 1.99-2.43 3.983 0 1.104.44 2.653 1.326 4.202.44.663 1.104 1.549 5.528 5.976 3.76 3.98 5.753 8.403 5.753 13.494 0 3.097-.885 6.417-2.434 8.629M149.44 92.191c-1.552 1.994-2.882 2.876-4.65 2.876-4.864 0-8.402-5.087-8.402-11.727V55.686h-4.869v-7.299h4.869V35.112l8.184-4.865v18.14h5.528v7.08h-5.528V83.34c0 2.216 1.104 3.764 2.656 3.764 1.323 0 1.99-.885 3.094-2.434l-.882 7.521zM207.966 92.636c-1.993 1.77-4.879 2.875-8.195 2.875-8.844 0-13.49-5.754-13.938-16.813h8.195c0 2.434.212 3.32.66 4.646.663 2.434 2.653 3.983 5.083 3.983 3.101 0 5.087-2.435 5.087-6.42 0-5.529-1.986-10.172-6.858-15.929-2.871-3.32-4.86-5.75-5.524-6.636-3.542-4.205-5.09-8.625-5.09-13.052 0-8.63 5.312-14.82 12.833-14.82 7.747 0 11.942 4.86 12.831 14.82h-8.192c-.215-4.869-1.545-6.858-4.416-6.858-3.101 0-4.872 2.656-4.872 6.858 0 2.878 1.107 5.087 4.43 8.629 6.848 7.74 7.966 9.292 9.956 13.275 1.771 3.982 3.094 9.288 3.094 13.712 0 4.427-1.99 9.077-5.084 11.73M233.846 92.191c-1.545 1.99-2.875 2.876-4.646 2.876-4.872 0-8.414-5.084-8.414-11.723V55.689h-4.86v-7.302h4.86V35.112l8.195-4.868v18.143h5.532v7.077h-5.532v27.88c0 2.212 1.101 3.757 2.646 3.757 1.33 0 1.997-.882 3.101-2.43l-.882 7.52z" style="fill:#000;fill-opacity:1;fill-rule:nonzero;stroke:none"/>
</svg>
