<svg xmlns="http://www.w3.org/2000/svg" width="89.982" height="45.032" viewBox="0 0 253.949 127.091">
    <path d="M232.191.006H20.249l-.02.021C9.291.51.472 9.351.02 20.284l-.021.02V106.112c.095 10.707 8.3 19.65 18.697 20.916l.05.064h214.566l.01-.01c11.088-.29 20.119-9.186 20.616-20.218l.01-.01V22.18l-.028-.025c.021-.324.028-.656.028-.987C253.95 9.51 244.442 0 232.782 0c-.194 0-.384.01-.578.01l-.01-.01z" style="fill:#fcd116;fill-opacity:1;fill-rule:nonzero;stroke:none"/>
    <path d="M230.66 4.247H23.28c-10.492 0-19.05 8.555-19.05 19.043v80.51c0 10.496 8.558 19.054 19.05 19.054h207.38c10.496 0 19.047-8.558 19.047-19.053V23.29c0-10.488-8.551-19.043-19.047-19.043" style="fill:#000;fill-opacity:1;fill-rule:evenodd;stroke:none"/>
    <path d="M230.477 10.537H23.467c-7.158 0-12.99 5.828-12.99 12.985v79.735c0 7.151 5.832 12.99 12.99 12.99h207.01c7.15 0 12.986-5.839 12.986-12.99V23.522c0-7.157-5.835-12.985-12.986-12.985" style="fill:#fcd116;fill-opacity:1;fill-rule:evenodd;stroke:none"/>
    <path d="m80.836 18.252 61.736 35.934 3.478-17.84c.014-1.07.434-2.114.833-3.123 1.22-3.037 5.602-4.042 8.607-2.307a6.441 6.441 0 0 1 2.907 3.73l29.912 63.602-70.756 7.228a6.389 6.389 0 0 1-4.678-.656c-3.006-1.736-4.308-5.754-2.304-8.604.621-.882 1.373-1.736 2.29-2.29l13.96-12.457-61.67-36.057 15.685-27.16z" style="fill:#000;fill-opacity:1;fill-rule:evenodd;stroke:none"/>
</svg>
