<svg xmlns="http://www.w3.org/2000/svg" width="90" height="45" viewBox="0 0 254 127">
    <path d="M21.167 0h211.666C244.493 0 254 9.26 254 20.616v85.768C254 117.74 244.493 127 232.833 127H21.167C9.51 127 0 117.74 0 106.384V20.616C0 9.26 9.51 0 21.167 0" style="fill:#fcd116;fill-opacity:1;fill-rule:nonzero;stroke:none"/>
    <path d="M232.78 4.232c9.204.23 16.75 7.095 16.983 16.44.042 1.45 0 2.907 0 4.36 0 9.017-.01 18.038-.01 27.055-.01 18.175-.01 36.357-.014 54.532-.01 9.31-8.35 16.122-17.244 16.122h-12.499c-17.949 0-35.905.01-53.855.01-42.16.01-84.32.01-126.484.014-11.773 0-29.606 2.953-34.534-11.18-1.796-5.15-.896-11.775-.896-17.106.01-10.59.01-21.18.014-31.771 0-10.523 0-21.047.01-31.567 0-6.95-1.04-14.301 3.323-20.263 7.532-9.331 22.673-6.622 33.299-6.622 42.548 0 85.086-.01 127.635-.014 21.42 0 42.848-.01 64.272-.01" style="fill:#000;fill-opacity:1;fill-rule:evenodd;stroke:none"/>
    <path d="M21.167 10.583h211.666c5.832 0 10.584 4.756 10.584 10.584v84.666c0 5.828-4.752 10.584-10.584 10.584H21.167c-5.828 0-10.584-4.756-10.584-10.584V21.167c0-5.828 4.756-10.584 10.584-10.584" style="fill:#fcd116;fill-opacity:1;fill-rule:evenodd;stroke:none"/>
    <path d="M210.559 72.902c0-13.296-15.91-9.14-16.387-15.43-.233-3.087 2.73-4.04 5.225-3.916 3.803.116 4.988 2.963 4.988 2.963l4.749-1.425c-1.662-4.156-4.865-6.883-9.62-6.883-6.05 0-10.563 2.494-10.563 9.14 0 5.581 4.512 7.596 6.53 8.428 4.392 1.782 9.613 2.491 9.613 7.006 0 2.847-2.134 4.985-5.221 4.985-3.207 0-5.817-1.781-7.242-4.985l-5.105 1.898c2.258 5.105 6.53 8.566 12.347 8.566 2.85 0 5.461-.97 7.356-2.628 2.137-1.905 3.33-4.632 3.33-7.72m-26.24 9.734v-5.46h-15.667v-9.258h9.853v-5.46h-9.853v-8.312h14.602v-5.341H163.31v33.831h21.008zm-25.996 0V77.65h-15.667V48.804h-5.341v33.831h21.008zm-28.967-33.831H123.9v33.831h5.457V48.804zm-13.532 33.831V48.804h-5.338l-7.835 18.993-7.835-18.993h-5.338v33.831h5.338V63.05l7.835 19.586 7.835-19.586v19.586h5.338zm-50.567 0v-5.46h-16.62c1.662-3.797 3.44-5.818 6.65-7.716l1.662-.95 1.778-.948 1.665-1.069c.469-.236.945-.593 1.421-.949 2.258-2.018 3.444-4.629 3.444-7.243 0-5.58-5.105-10.089-11.512-10.089-5.94 0-10.329 3.443-11.521 9.02l5.348 1.19c.593-3.087 2.727-4.749 6.173-4.749 3.32 0 6.174 2.018 6.174 4.508 0 1.426-.952 2.851-2.261 3.683l-1.662.95-1.658.948-1.785.953c-.476.353-.945.709-1.545 1.065-2.37 1.782-4.505 3.92-5.93 6.53-1.902 3.203-2.73 6.407-2.854 10.326h23.033z" style="fill:#000;fill-opacity:1;fill-rule:evenodd;stroke:none"/>
</svg>
