<svg xmlns="http://www.w3.org/2000/svg" width="90" height="67.501" viewBox="0 0 254 190.503">
    <path d="M232.244.003H20.253l-.021.02C9.302.504.476 9.338.02 20.28L0 20.301v149.222h.01c.092 10.707 8.206 19.558 18.605 20.82l.138.16H233.38l.007-.01c11.084-.283 20.097-9.166 20.591-20.204l.022-.021V22.172l-.022-.021c.014-.332.022-.653.022-.984C254 9.507 244.492 0 232.833 0c-.19 0-.385 0-.579.01l-.007-.01z" style="fill:#fcd116;fill-opacity:1;fill-rule:nonzero;stroke:none"/>
    <path d="M230.716 4.233H23.29c-10.495 0-19.054 8.558-19.054 19.05V167.22c0 10.488 8.559 19.046 19.054 19.046h207.426c10.492 0 19.05-8.558 19.05-19.046V23.283c0-10.492-8.558-19.05-19.05-19.05" style="fill:#000;fill-opacity:1;fill-rule:evenodd;stroke:none"/>
    <path d="M230.529 10.523H23.469c-7.154 0-12.989 5.839-12.989 12.99v143.541c0 7.162 5.835 12.996 12.99 12.996h207.059c7.158 0 12.996-5.834 12.996-12.996V23.512c0-7.15-5.838-12.989-12.996-12.989" style="fill:#fcd116;fill-opacity:1;fill-rule:evenodd;stroke:none"/>
    <path d="m74.69 85.495-.01 72.277H47.47V65.295c0-7.479 6.1-13.518 13.575-13.518l100.633.039-5.062-14.764c-.448-.801-.586-1.757-.716-2.681-.402-2.784 2.423-5.408 5.408-5.408 1.39 0 2.77.564 3.76 1.513l49.555 34.473-49.555 35.776a5.522 5.522 0 0 1-3.76 1.52c-2.985 0-5.68-2.43-5.408-5.408.074-.931.268-1.88.716-2.688l5.062-15.282-80.204-.16c-3.217 0-6.787 2.625-6.787 6.788" style="fill:#000;fill-opacity:1;fill-rule:evenodd;stroke:none"/>
</svg>
