<svg xmlns="http://www.w3.org/2000/svg" width="143.586" height="59.126" viewBox="0 0 405.232 166.867">
    <path d="M19.05 0h367.132c10.496 0 19.05 8.555 19.05 19.05v128.767c0 10.496-8.554 19.05-19.05 19.05H19.05c-10.492 0-19.05-8.554-19.05-19.05V19.05C0 8.555 8.558 0 19.05 0" style="fill:#fcd116;fill-opacity:1;fill-rule:nonzero;stroke:none"/>
    <path d="M19.05 6.346h367.132c7 0 12.707 5.708 12.707 12.704v128.767c0 6.996-5.707 12.704-12.707 12.704H19.05c-6.996 0-12.7-5.708-12.7-12.704V19.05c0-6.996 5.704-12.704 12.7-12.704" style="fill:#000;fill-opacity:1;fill-rule:evenodd;stroke:none"/>
    <path d="M19.095 12.696h367.044c3.52 0 6.396 2.876 6.396 6.396v128.683c0 3.52-2.875 6.396-6.396 6.396H19.095c-3.52 0-6.393-2.875-6.393-6.396V19.092c0-3.52 2.872-6.396 6.393-6.396" style="fill:#fcd116;fill-opacity:1;fill-rule:evenodd;stroke:none"/>
    <path d="M119.175 66.753v-33.55h19.776V38.5h-14.478v8.24h9.769v5.416h-9.769v9.183h15.537v5.415h-20.835zM144.835 66.753V35.204l5.416-2.59v34.139h-5.416zM184.625 66.753V50.86c0-3.178-1.648-4.237-4.474-4.237-2.12 0-3.884 1.412-3.884 4.237v15.893h-5.651V50.86c0-3.178-1.648-4.237-4.59-4.237-2.12.117-3.768 1.412-3.768 4.237v15.893h-5.535V42.267h5.415v1.058c3.535-2.706 9.067-2.237 12.009 1.178 4.12-5.415 15.776-3.058 15.776 5.652v16.598h-5.298zM230.654 64.753c-1.884 1.647-4.473 2.59-7.299 2.59-5.768 0-10.008-3.416-12.241-8.478l5.062-1.884c1.411 3.179 4 4.946 7.179 4.946 3.062 0 5.182-2.12 5.182-4.946 0-4.473-5.182-5.179-9.539-6.946-2-.822-6.473-2.826-6.473-8.358 0-6.593 4.473-9.062 10.477-9.062 4.71 0 7.888 2.705 9.536 6.826l-4.71 1.415s-1.178-2.826-4.942-2.946c-2.473-.117-5.419.825-5.183 3.887.473 6.238 16.246 2.117 16.246 15.304 0 3.059-1.175 5.768-3.295 7.652M248.427 66.164c-1.764.825-2.706 1.058-4 1.058-3.888.237-5.063-2.822-5.063-6.353v-13.66h-3.531v-4.942h3.531v-7.063l5.179-2.59v9.653h4.237v4.826h-4.237v12.95c0 1.648.236 2.353 1.767 2.353 1.175 0 1.764-.353 2.822-1.175l-.705 4.943z" style="fill:#000;fill-opacity:1;fill-rule:nonzero;stroke:none"/>
    <path d="M56.688 66.051 33.379 50.285l23.309-15.794a2.265 2.265 0 0 1 3.136.597c.462.684.377 1.393.166 2.243l-2.054 6.84H83.38v12.214H57.936l2.004 6.73c.261.932.364 1.624-.116 2.336a2.26 2.26 0 0 1-3.136.6" style="fill:#000;fill-opacity:1;fill-rule:evenodd;stroke:none"/>
    <path d="M47.455 133.502v-33.55h5.295v28.607h15.54v4.943H47.455zM86.655 133.502v-.826c-6.474 3.768-14.478.71-14.478-6.826v-16.835h5.295v16.246c0 3.178 2.12 3.884 4.946 3.884 2.12-.117 4.12-1.058 4.12-3.884v-16.246h5.295v24.487h-5.178zM126.325 133.502v-15.893c0-3.178-1.647-4.237-4.473-4.237-2.12 0-3.884 1.411-3.884 4.237v15.893h-5.652v-15.893c0-3.178-1.647-4.237-4.59-4.237-2.12.117-3.767 1.411-3.767 4.237v15.893h-5.535v-24.487h5.415v1.059c3.531-2.706 9.066-2.237 12.009 1.178 4.12-5.415 15.776-3.059 15.776 5.652v16.598h-5.299zM143.042 133.971c-3.531 0-5.651-1.527-7.182-3.884l3.767-3.178c1.179 1.53 2.706 2.59 4.237 2.12 2.237-.59 2.473-2.71.71-4.59-3.18-3.651-8.242-5.182-8.594-8.95-.237-3.295 1.527-6.004 5.062-6.826 2.822-.706 6.354 0 9.18 3.415l-3.768 3.058s-2.59-3.058-4.354-1.294c-2.945 2.825 10.005 6.004 9.416 13.303-.233 3.648-3.175 6.826-8.474 6.826M159.875 121.14c.12 3.416 1.178 7.889 4.826 8.005 1.884.12 3.182-.353 4.473-1.647v-12.362c-1.41-1.53-2.59-1.763-4.12-1.763-4.12.116-5.295 4.236-5.179 7.768m-5.415 0c.12-6.474 2.237-13.42 10.241-12.714 1.651.12 4.004.825 4.593 1.41v-7.884l5.295-2.59v34.14h-5.295v-.707c-1.647.942-2.826 1.295-4.71 1.295-7.415 0-10.24-6.004-10.124-12.95M190.013 113.373c-4.12 0-4.71 2.705-4.71 5.178h9.183c0-2.353-.473-5.178-4.473-5.178m-4.593 10.12c.236 2.71 1.294 5.536 4.593 5.536 2.236 0 4-1.295 4.59-3.415l4.356 2.71c-1.414 3.178-4.004 5.647-8.946 5.647-8.477 0-10.125-6.473-10.125-12.83 0-5.415 1.648-12.714 10.125-12.714 9.652 0 9.888 9.062 9.772 15.067H185.42zM218.734 133.502v-16.246c0-3.178-2.117-3.884-4.943-3.884-2.12.117-4.12 1.295-4.12 4.117v16.013h-5.415v-24.487h5.298v.822c5.532-3.53 14.478-.705 14.478 6.83v16.835h-5.298zM262.291 105.837c-.825-.473-1.295-.59-3.062-.59h-6.357v8.242h6.357c1.647 0 2.237-.117 3.062-.59 1.295-.705 2.12-2.12 2.12-3.53 0-1.412-.825-2.827-2.12-3.532m2.353 27.665-5.415-14.598h-6.357v14.598h-5.295v-33.55h11.063c2.59 0 4.357.233 6.004 1.059 2.942 1.411 5.062 4.942 5.062 8.357 0 3.531-2.12 7.063-5.178 8.477l5.884 15.657h-5.768zM279.358 121.14c.12 3.416 1.179 7.889 4.826 8.005 1.884.12 3.179-.353 4.474-1.647v-12.362c-1.411-1.53-2.59-1.763-4.12-1.763-4.121.116-5.296 4.236-5.18 7.768m-5.415 0c.117-6.474 2.237-13.42 10.241-12.714 1.648.12 4.004.825 4.594 1.41v-7.884l5.295-2.59v34.14h-5.295v-.707c-1.651.942-2.826 1.295-4.71 1.295-7.419 0-10.245-6.004-10.125-12.95" style="fill:#000;fill-opacity:1;fill-rule:nonzero;stroke:none"/>
    <path d="m346.214 132.8 23.3-15.77-23.3-15.786a2.261 2.261 0 0 0-3.136.593c-.466.688-.385 1.397-.166 2.243l2.056 6.84h-25.446v12.21h25.446l-2.014 6.735c-.254.931-.363 1.616.124 2.335a2.263 2.263 0 0 0 3.136.6" style="fill:#000;fill-opacity:1;fill-rule:evenodd;stroke:none"/>
</svg>
