<svg xmlns="http://www.w3.org/2000/svg" width="89.999" height="67.501" viewBox="0 0 253.996 190.503">
    <path d="M21.752.007h211.995l.021.02c10.936.48 19.756 9.318 20.21 20.257l.018.021v149.222c-.095 10.707-8.212 19.554-18.609 20.82l-.137.156H20.623l-.007-.01C9.532 190.21.52 181.327.021 170.296L0 170.268V22.179l.021-.028A22.793 22.793 0 0 1 0 21.167C0 9.507 9.51 0 21.167 0c.194 0 .388 0 .582.01l.004-.01z" style="fill:#fcd116;fill-opacity:1;fill-rule:nonzero;stroke:none"/>
    <path d="M23.283 4.24h207.434c10.491 0 19.05 8.559 19.05 19.047v143.937c0 10.495-8.559 19.053-19.05 19.053H23.283c-10.495 0-19.05-8.558-19.05-19.053V23.287c0-10.488 8.555-19.047 19.05-19.047" style="fill:#000;fill-opacity:1;fill-rule:evenodd;stroke:none"/>
    <path d="M23.467 10.53H230.53c7.158 0 12.989 5.835 12.989 12.99v143.542c0 7.157-5.831 12.992-12.99 12.992H23.468c-7.155 0-12.99-5.835-12.99-12.992V23.52c0-7.155 5.835-12.99 12.99-12.99" style="fill:#fcd116;fill-opacity:1;fill-rule:evenodd;stroke:none"/>
    <path d="m206.82 82.36-114.505.031 5.066-14.756c.444-.801.585-1.764.716-2.682.399-2.783-2.427-5.411-5.408-5.411-1.394 0-2.77.568-3.764 1.517L39.377 95.525l49.548 35.782a5.53 5.53 0 0 0 3.764 1.521c2.98 0 5.676-2.43 5.411-5.412-.08-.927-.275-1.88-.72-2.684l-5.065-15.283 114.504-.158V82.36z" style="fill:#000;fill-opacity:1;fill-rule:evenodd;stroke:none"/>
</svg>
