<svg xmlns="http://www.w3.org/2000/svg" width="2160" height="1080">
    <path style="fill:#fcd116;fill-rule:nonzero;stroke:none" d="M2873.956 989.173c0 92.233-74.765 167.005-167.004 167.005H368.884c-92.235 0-167.005-74.772-167.005-167.005V-12.857c0-92.235 74.77-167.004 167.005-167.004h2338.068c92.239 0 167.004 74.77 167.004 167.005V989.173z" transform="matrix(.80836 0 0 .80836 -163.191 145.392)"/>
    <path style="fill:#000;fill-rule:nonzero;stroke:none" d="M368.884 1114.426c-69.066 0-125.254-56.189-125.254-125.253V-12.857c0-69.065 56.188-125.253 125.254-125.253h2338.068c69.06 0 125.253 56.188 125.253 125.254V989.173c0 69.064-56.194 125.253-125.253 125.253H368.884z" transform="matrix(.80836 0 0 .80836 -163.191 145.392)"/>
    <path style="fill:#fcd116;fill-rule:nonzero;stroke:none" d="M368.884 1044.841c-30.696 0-55.668-24.972-55.668-55.668V-12.857c0-30.695 24.972-55.667 55.668-55.667h2338.068c30.694 0 55.668 24.972 55.668 55.668V989.173c0 30.696-24.974 55.668-55.668 55.668H368.884z" transform="matrix(.80836 0 0 .80836 -163.191 145.392)"/>
    <path style="fill:#000;fill-rule:nonzero;stroke:none" d="M796.036 710.831 625.697 409.247v301.584h-70.321V265.485h70.321l162.524 284.397V265.485h70.321v445.346h-62.506zM1175.823 364.479c-14.098-23.441-31.328-32.815-57.958-34.378-34.463-1.564-56.392 15.625-72.055 54.69-10.966 26.567-17.23 67.194-17.23 104.696 0 46.88 9.395 95.32 26.626 123.447 14.1 23.441 32.895 34.38 61.093 34.38 32.895 0 53.257-17.19 68.923-56.254 9.399-23.44 17.231-67.194 17.231-101.573 0-50.003-9.4-95.317-26.63-125.008zm48.559 304.71c-25.065 34.38-61.093 50.005-108.083 50.005-62.658 0-101.82-25.004-128.45-79.694-18.794-37.505-31.324-96.881-31.324-150.013 0-73.442 18.794-139.07 48.558-181.262 26.63-34.38 62.656-50.005 114.347-50.005 56.393 0 95.553 25.003 123.749 79.694 18.796 39.065 29.762 95.32 29.762 151.573 0 70.32-17.23 140.636-48.56 179.701zM1673.857 710.831V265.485h71.255v445.346h-71.255zM1503.471 327.99V710.83h-70.62V327.99h-102.02v-62.506h276.225v62.506h-103.585zM2244.24 710.831V265.485h262.167v70.319h-191.948v109.383h129.537v71.88H2314.46v121.884h206.004v71.88H2244.24zM2011.856 718.648c-65.627 0-107.826-25.004-135.954-79.697-20.304-39.063-32.814-95.32-32.814-151.574 0-70.318 18.757-140.636 50.009-179.701 26.566-32.815 64.08-50.003 114.073-50.003 67.204 0 109.404 28.128 139.094 90.633l-65.642 28.126c-25.005-37.503-39.061-46.879-73.452-46.879-35.937 0-59.38 15.626-74.997 54.693-10.948 26.563-17.195 65.63-17.195 103.131 0 48.443 10.932 96.883 28.128 125.011 15.618 23.437 35.937 34.379 67.188 34.379 29.705 0 51.57-15.63 68.766-51.566l67.204 25c-26.566 65.63-70.328 98.447-134.408 98.447z" transform="matrix(.80836 0 0 .80836 -163.191 145.392)"/>
</svg>
