<svg xmlns="http://www.w3.org/2000/svg" width="2160" height="1620" viewBox="-1 -0.876 2160 1620" xml:space="preserve">
    <path style="fill:#fcd116;fill-rule:nonzero;stroke:none" d="M2159 1484.124c0 74.563-60.438 135-135 135H134c-74.56 0-135-60.438-135-135v-1350c0-74.56 60.44-135 135-135h1890c74.563 0 135 60.44 135 135v1350z"/>
    <path style="fill:#161413;fill-rule:nonzero;stroke:none" d="M134 1585.374c-55.83 0-101.25-45.425-101.25-101.25v-1350c0-55.83 45.42-101.25 101.25-101.25h1890c55.825 0 101.25 45.42 101.25 101.25v1350c0 55.825-45.425 101.25-101.25 101.25H134z"/>
    <path style="fill:#fcd116;fill-rule:nonzero;stroke:none" d="M134 1529.124c-24.813 0-45-20.188-45-45v-1350c0-24.813 20.187-45 45-45h1890c24.813 0 45 20.187 45 45v1350c0 24.813-20.188 45-45 45H134z"/>
    <path style="fill:#000;fill-rule:nonzero;stroke:none" d="M1158.245 674.124v-360H1328v50.525h-117.816v90.949h74.741v49.264h-74.741v118.736h131.754v50.526h-183.693zM1027.362 674.124V511.177H929.04v162.947h-51.684v-360h51.684V460.65h98.323V314.124h51.682v360h-51.683zM1565.75 674.124 1454.825 432.86v241.264h-51.688v-360h51.688l98.313 216v-216h51.687v360h-39.075zM768.651 674.124H724.29l-34.221-188.21-34.224 188.21h-45.63l-57.038-360h50.699l30.421 192 35.49-192h40.56l34.223 192 31.689-192h50.698l-58.305 360zM732.048 1051.494l-25.33 103.58h51.925l-26.596-103.58zm64.586 252.63-25.329-98.524h-77.251l-24.063 98.524h-51.924l89.918-359.998h50.657l89.915 359.998h-51.923zM245.025 994.652v90.948h72.21v49.264h-72.21v169.26h-51.94V944.126h183.69v50.526h-131.75zM1954.775 1259.911c-13.963 31.588-43.138 50.525-79.925 50.525-43.125 0-74.837-21.462-92.6-61.887-11.412-26.529-19.025-77.055-19.025-123.791 0-50.527 3.813-87.159 16.488-121.264 12.687-37.895 49.475-65.684 91.337-65.684 52 0 91.325 37.895 93.863 90.948h-52c-1.275-24-17.763-40.423-43.138-40.423-17.75 0-31.712 8.843-40.587 26.528-10.15 17.683-16.488 58.105-16.488 101.053 0 30.315 2.538 61.894 7.612 89.684 7.6 35.369 25.363 54.311 53.276 54.311 26.637 0 39.325-17.68 39.325-55.575v-23.998h-40.6v-50.528h92.6v74.526c0 25.264-2.538 40.423-10.138 55.575zM1275.138 1304.124v-162.945h-98.328v162.945h-51.682V944.126h51.682v146.527h98.328V944.127h51.675v359.997h-51.676zM1390.175 1304.124V944.126h50.4v359.998h-50.4zM417.098 1304.124V944.126h51.938v311.998h131.751v48h-183.69zM1666.55 1304.124l-110.925-241.261v241.261h-51.688V944.126h51.688l98.325 216v-216h51.675v359.998h-39.075zM976.986 1137.873c-15.575-10.09-30.698-20.216-40.353-27.01-29.023-20.429-44.397-48-44.397-79.578 0-51.791 40.593-93.475 92.6-93.475 50.74 0 90.063 39.158 91.332 93.475h-49.472c-1.267-25.264-19.026-41.685-41.86-41.685-24.101 0-43.128 17.684-43.128 41.685 0 17.683 7.61 27.788 34.248 42.946 69.768 40.422 100.212 79.58 100.212 131.37 0 58.11-44.398 104.835-100.212 104.835-63.425 0-101.479-53.05-101.479-112.416h50.74c0 30.316 15.222 61.891 50.74 61.891 27.907 0 50.74-25.258 50.74-54.31 0-22.56-9.323-41.56-49.71-67.728z"/>
</svg>
