<svg xmlns="http://www.w3.org/2000/svg" width="90" height="45" viewBox="0 0 254 127">
    <path d="M21.167 0h211.666C244.493 0 254 9.26 254 20.62v85.767C254 117.74 244.493 127 232.833 127H21.167C9.507 127 0 117.74 0 106.387V20.62C0 9.26 9.507 0 21.167 0" style="fill:#fcd116;fill-opacity:1;fill-rule:nonzero;stroke:none"/>
    <path d="M232.78 4.237c9.204.226 16.75 7.087 16.983 16.44.042 1.446 0 2.906 0 4.356 0 9.017-.01 18.034-.01 27.055-.01 18.175-.01 36.357-.014 54.532-.01 9.31-8.35 16.122-17.247 16.122h-12.499c-17.946 0-35.902.01-53.852.01-42.157.01-84.32.011-126.481.014-11.776 0-29.605 2.953-34.537-11.18-1.796-5.15-.893-11.775-.893-17.106.007-10.59.007-21.18.011-31.77.004-10.524.004-21.044.01-31.568 0-6.95-1.04-14.301 3.32-20.263C15.1 1.548 30.244 4.257 40.874 4.257c42.545-.01 85.086-.01 127.631-.01 21.42 0 42.848-.01 64.273-.01" style="fill:#000;fill-opacity:1;fill-rule:evenodd;stroke:none"/>
    <path d="M21.167 10.583h211.666c5.828 0 10.584 4.756 10.584 10.584v84.666c0 5.832-4.756 10.584-10.584 10.584H21.167c-5.828 0-10.584-4.752-10.584-10.584V21.167c0-5.828 4.756-10.584 10.584-10.584" style="fill:#fcd116;fill-opacity:1;fill-rule:evenodd;stroke:none"/>
    <path d="M210.936 66.947c0 5.644-1.337 10.237-3.86 12.767-1.185 1.185-2.518 1.633-4.744 1.633h-6.685v-28.8h7.574c1.778 0 3.263.744 4.304 1.777 2.074 2.233 3.411 6.978 3.411 12.623m6.83 0c0-8.315-2.522-14.993-6.974-18.853-2.234-1.785-3.867-2.233-8.164-2.233h-13.663v42.316h15.297c2.222-.152 4.448-.89 6.081-2.378 4.749-3.715 7.423-10.393 7.423-18.852m-48.839 2.522h-8.463l4.3-11.878 4.163 11.878zm13.656 18.708L168.031 45.86h-6.678l-14.552 42.316h7.133l4.156-11.882h13.208l4.16 11.882h7.125zm-39.045 0v-6.83H123.94V69.765h12.326v-6.83h-12.326V52.547h18.26v-6.685h-24.938v42.316h26.275zm-36.223 0V45.86h-6.678v17.075H85.199V45.86h-6.685v42.316h6.685V69.765h15.438v18.412h6.678zM58.476 69.469h-8.46l4.3-11.878 4.16 11.878zm13.656 18.708L57.58 45.86h-6.674L36.353 88.177h7.13l4.156-11.882h13.208l4.163 11.882h7.122z" style="fill:#000;fill-opacity:1;fill-rule:evenodd;stroke:none"/>
</svg>
