<svg xmlns="http://www.w3.org/2000/svg" width="90.001" height="45.001" viewBox="0 -0.321 90.001 45.001" xml:space="preserve">
    <path d="M5.691-.32H84.434A5.64 5.64 0 0 1 90 5.19v33.979a5.642 5.642 0 0 1-5.44 5.509l-.005.002H5.566a5.639 5.639 0 0 1-5.561-5.384L0 39.291v-34.1l.002-.002c.062-3.044 2.564-5.51 5.623-5.51h.066z" style="fill:#fcd116;fill-opacity:1;fill-rule:nonzero;stroke:none"/>
    <path d="M87.343 2.312c1.03 1.03 1.252 2.297 1.252 3.687v30.317c0 1.334.216 2.938-.269 4.219-.615 1.629-2.148 2.654-3.865 2.74-2.998.149-79.373.61-81.318-.814-1.18-.864-1.737-2.197-1.737-3.63V8.977c0-3.018-.437-7.23 3.587-7.842 2.573-.393 78.223-.049 78.223-.049.957 0 1.902-.049 2.805.338.492.21.94.515 1.322.888" style="fill:#000;fill-opacity:1;fill-rule:evenodd;stroke:none"/>
    <path d="M86.095 4.562c.408.93.156 2.303.156 3.268v30.394c0 1.498-.432 2.707-2.153 2.707H8.704c-1.36 0-3.865.518-4.705-.95-.464-.806-.249-2.012-.249-2.886V6.511c0-.804-.131-1.704.415-2.374.76-.93 1.983-.707 3.048-.707H80.68c1.36 0 4.249-.581 5.215.786.077.11.145.225.199.346" style="fill:#fcd116;fill-opacity:1;fill-rule:evenodd;stroke:none"/>
    <path d="M26.997 33.424v-9.867l-10.1.08v9.787h-4.026V10.929h4.026v8.682h10.1V10.93h4.027v22.495h-4.027zM45.701 14.56c-3.393 0-5.443 2.841-5.443 7.576 0 4.814 2.05 7.656 5.443 7.656 4.263 0 5.289-4.183 5.289-7.656 0-4.735-1.892-7.576-5.289-7.576m0 19.259c-6.629 0-9.549-5.999-9.549-11.683 0-7.181 3.632-11.601 9.55-11.601 5.524 0 9.313 4.656 9.313 11.522 0 7.025-3.63 11.762-9.314 11.762M70.799 33.424h-4.34l-8.287-22.495h4.34l6.156 16.417 6.157-16.417h4.341L70.8 33.424z" style="fill:#000;fill-opacity:1;fill-rule:nonzero;stroke:none"/>
</svg>
