<?xml version="1.0" encoding="UTF-8" standalone="no"?>
<svg
   xmlns:dc="http://purl.org/dc/elements/1.1/"
   xmlns:cc="http://creativecommons.org/ns#"
   xmlns:rdf="http://www.w3.org/1999/02/22-rdf-syntax-ns#"
   xmlns:svg="http://www.w3.org/2000/svg"
   xmlns="http://www.w3.org/2000/svg"
   xmlns:sodipodi="http://sodipodi.sourceforge.net/DTD/sodipodi-0.dtd"
   xmlns:inkscape="http://www.inkscape.org/namespaces/inkscape"
   width="89.999809"
   height="67.5009"
   viewBox="0 0 253.99953 190.50253"
   version="1.1"
   id="svg2"
   inkscape:version="0.92.4 (5da689c313, 2019-01-14)"
   sodipodi:docname="MUTCD_W16-6PR_(fluorescent).svg">
  <metadata
     id="metadata62">
    <rdf:RDF>
      <cc:Work
         rdf:about="">
        <dc:format>image/svg+xml</dc:format>
        <dc:type
           rdf:resource="http://purl.org/dc/dcmitype/StillImage" />
        <dc:title />
      </cc:Work>
    </rdf:RDF>
  </metadata>
  <defs
     id="defs60" />
  <sodipodi:namedview
     pagecolor="#ffffff"
     bordercolor="#666666"
     borderopacity="1"
     objecttolerance="10"
     gridtolerance="10"
     guidetolerance="10"
     inkscape:pageopacity="0"
     inkscape:pageshadow="2"
     inkscape:window-width="1920"
     inkscape:window-height="1057"
     id="namedview58"
     showgrid="false"
     fit-margin-top="0"
     fit-margin-left="0"
     fit-margin-right="0"
     fit-margin-bottom="0"
     inkscape:zoom="6.4858979"
     inkscape:cx="32.71186"
     inkscape:cy="36.874794"
     inkscape:window-x="-8"
     inkscape:window-y="-8"
     inkscape:window-maximized="1"
     inkscape:current-layer="svg2"
     showguides="true"
     inkscape:guide-bbox="true" />
  <!-- draw the bicycle -->
  <!-- RIGHT -->
  <!-- LANE -->
  <!-- ONLY -->
  <path
     inkscape:connector-curvature="0"
     d="m 232.24391,0.00286902 -211.07761,0 -0.9137,0 -0.021,0.021 C 9.3026,0.50356902 0.4761,9.337169 0.021,20.280369 l -0.021,0.021 0,0.8679 0,148.166701 0,0.1869 0.01,0 c 0.092,10.7069 8.2056,19.558 18.6055,20.821 l 0.1376,0.1587 2.4165,0 211.6632,0 0.54681,0 0.007,-0.01 c 11.08435,-0.2822 20.09783,-9.1652 20.59172,-20.2036 l 0.0212,-0.021 0,-0.9348 0,-147.161301 -0.0212,-0.021 c 0.0141,-0.3316 0.0212,-0.6526 0.0212,-0.9842 0,-11.6593 -9.50736,-21.16669999042 -21.16667,-21.16669999042 -0.1905,0 -0.38453,0 -0.57855,0.01000001042 l -0.007,-0.01000001042 z"
     style="fill:#cdff00;fill-opacity:1;fill-rule:nonzero;stroke:none"
     id="path3399" />
  <path
     inkscape:connector-curvature="0"
     d="m 230.71638,4.233069 -207.42628,0 c -10.4952,0 -19.0536,8.5584 -19.0536,19.05 l 0,143.936901 c 0,10.4881 8.5584,19.0464 19.0536,19.0464 l 207.42628,0 c 10.49162,0 19.05001,-8.5583 19.05001,-19.0464 l 0,-143.936901 c 0,-10.4916 -8.55839,-19.05 -19.05001,-19.05"
     style="fill:#000000;fill-opacity:1;fill-rule:evenodd;stroke:none"
     id="path3407" />
  <path
     inkscape:connector-curvature="0"
     d="m 230.52904,10.523069 -207.05944,0 c -7.1543,0 -12.9893,5.8385 -12.9893,12.9893 l 0,143.541801 c 0,7.1614 5.835,12.9963 12.9893,12.9963 l 207.05944,0 c 7.15787,0 12.99634,-5.8349 12.99634,-12.9963 l 0,-143.541801 c 0,-7.1508 -5.83847,-12.9893 -12.99634,-12.9893"
     style="fill:#cdff00;fill-opacity:1;fill-rule:evenodd;stroke:none"
     id="path3411" />
  <path
     inkscape:connector-curvature="0"
     d="m 74.6898,85.495069 -0.01,72.277101 -27.2098,0 0,-92.477201 c 0,-7.4789 6.0996,-13.5184 13.5749,-13.5184 l 100.63343,0.039 -5.06236,-14.7638 c -0.44803,-0.8008 -0.58561,-1.7568 -0.71614,-2.6811 -0.40217,-2.7834 2.42358,-5.4081 5.40808,-5.4081 1.38995,0 2.76931,0.5645 3.76062,1.5135 l 49.55465,34.4734 -49.5547,35.775201 c -0.99131,0.949 -2.37067,1.5205 -3.76062,1.5205 -2.9845,0 -5.67972,-2.430701 -5.40808,-5.408101 0.0741,-0.9313 0.26811,-1.8803 0.71614,-2.6882 l 5.06236,-15.2823 -80.20408,-0.1588 c -3.2173,0 -6.7874,2.6247 -6.7874,6.7875"
     style="fill:#000000;fill-opacity:1;fill-rule:evenodd;stroke:none"
     id="path3415" />
</svg>
