<?xml version="1.0" encoding="UTF-8" standalone="no"?>
<svg
   xmlns:dc="http://purl.org/dc/elements/1.1/"
   xmlns:cc="http://creativecommons.org/ns#"
   xmlns:rdf="http://www.w3.org/1999/02/22-rdf-syntax-ns#"
   xmlns:svg="http://www.w3.org/2000/svg"
   xmlns="http://www.w3.org/2000/svg"
   xmlns:sodipodi="http://sodipodi.sourceforge.net/DTD/sodipodi-0.dtd"
   xmlns:inkscape="http://www.inkscape.org/namespaces/inkscape"
   width="89.981979"
   height="45.03223"
   viewBox="0 0 253.94921 127.09095"
   version="1.1"
   id="svg2"
   inkscape:version="0.92.4 (5da689c313, 2019-01-14)"
   sodipodi:docname="MUTCD_W16-7PL_(fluorescent).svg">
  <metadata
     id="metadata62">
    <rdf:RDF>
      <cc:Work
         rdf:about="">
        <dc:format>image/svg+xml</dc:format>
        <dc:type
           rdf:resource="http://purl.org/dc/dcmitype/StillImage" />
        <dc:title />
      </cc:Work>
    </rdf:RDF>
  </metadata>
  <defs
     id="defs60" />
  <sodipodi:namedview
     pagecolor="#ffffff"
     bordercolor="#666666"
     borderopacity="1"
     objecttolerance="10"
     gridtolerance="10"
     guidetolerance="10"
     inkscape:pageopacity="0"
     inkscape:pageshadow="2"
     inkscape:window-width="1920"
     inkscape:window-height="1057"
     id="namedview58"
     showgrid="false"
     fit-margin-top="0"
     fit-margin-left="0"
     fit-margin-right="0"
     fit-margin-bottom="0"
     inkscape:zoom="6.4858979"
     inkscape:cx="43.32256"
     inkscape:cy="-2.6629653"
     inkscape:window-x="-8"
     inkscape:window-y="-8"
     inkscape:window-maximized="1"
     inkscape:current-layer="svg2"
     showguides="true"
     inkscape:guide-bbox="true" />
  <!-- draw the bicycle -->
  <!-- RIGHT -->
  <!-- LANE -->
  <!-- ONLY -->
  <path
     inkscape:connector-curvature="0"
     d="m 21.7582,0.00596901 211.0246,0 0.9173,0 0.021,0.021 c 10.936,0.4834 19.7555,9.32399999 20.2071,20.25659999 l 0.021,0.021 0,0.8679 0,84.751301 0,0.187 c -0.095,10.7068 -8.3009,19.6497 -18.6973,20.9162 l -0.049,0.064 -214.0303,0 -0.5362,0 -0.01,-0.01 C 9.5386,126.79167 0.5075,117.89457 0.01,106.86317 l -0.01,-0.01 0,-0.9349 0,-83.738901 0.028,-0.025 C 0.007,21.829869 0,21.498269 0,21.166669 0,9.510869 9.5074,-3.099042e-5 21.1667,-3.099042e-5 c 0.194,0 0.3845,0.01000000042 0.5785,0.01000000042 l 0.01,-0.01000000042 z"
     style="fill:#cdff00;fill-opacity:1;fill-rule:nonzero;stroke:none"
     id="path3431" />
  <path
     inkscape:connector-curvature="0"
     d="m 23.2889,4.246669 207.3804,0 c 10.4917,0 19.05,8.5549 19.05,19.043 l 0,80.511001 c 0,10.4951 -8.5583,19.0535 -19.05,19.0535 l -207.3804,0 c -10.4952,0 -19.0465,-8.5584 -19.0465,-19.0535 l 0,-80.511001 c 0,-10.4881 8.5513,-19.043 19.0465,-19.043"
     style="fill:#000000;fill-opacity:1;fill-rule:evenodd;stroke:none"
     id="path3439" />
  <path
     inkscape:connector-curvature="0"
     d="m 23.4723,10.536769 207.0101,0 c 7.1578,0 12.9892,5.8279 12.9892,12.9857 l 0,79.734901 c 0,7.1508 -5.8314,12.9893 -12.9892,12.9893 l -207.0101,0 c -7.1508,0 -12.9857,-5.8385 -12.9857,-12.9893 l 0,-79.734901 c 0,-7.1578 5.8349,-12.9857 12.9857,-12.9857"
     style="fill:#cdff00;fill-opacity:1;fill-rule:evenodd;stroke:none"
     id="path3443" />
  <path
     inkscape:connector-curvature="0"
     d="m 173.1136,18.251669 -61.7361,35.9339 -3.4784,-17.84 c -0.014,-1.0689 -0.4339,-2.1131 -0.8325,-3.1221 -1.2207,-3.0374 -5.6022,-4.0428 -8.6078,-2.3071 -1.4041,0.8149 -2.4589,2.1907 -2.9069,3.7288 l -29.9121,63.6024 70.7567,7.228401 c 1.5487,0.3845 3.2667,0.1587 4.6778,-0.6562 3.0057,-1.7356 4.3075,-5.753801 2.3037,-8.604201 -0.6209,-0.882 -1.3723,-1.7357 -2.2895,-2.2896 l -13.9595,-12.4566 61.6691,-36.0574 -15.6845,-27.1603 z"
     style="fill:#000000;fill-opacity:1;fill-rule:evenodd;stroke:none"
     id="path3447" />
</svg>
