<svg xmlns="http://www.w3.org/2000/svg" width="2160" height="1620" viewBox="-1 -0.876 2160 1620" xml:space="preserve">
    <path style="fill:#fcd116;fill-rule:nonzero;stroke:none" d="M2159 1484.124c0 74.563-60.438 135-135 135H134c-74.56 0-135-60.438-135-135v-1350c0-74.56 60.44-135 135-135h1890c74.563 0 135 60.44 135 135v1350z"/>
    <path style="fill:#000;fill-rule:nonzero;stroke:none" d="M2069 1484.124c0 24.813-20.188 45-45 45H134c-24.813 0-45-20.188-45-45v-1350c0-24.813 20.187-45 45-45h1890c24.813 0 45 20.187 45 45v1350zm-45-1451.25H134c-55.83 0-101.25 45.42-101.25 101.25v1350c0 55.825 45.42 101.25 101.25 101.25h1890c55.825 0 101.25-45.425 101.25-101.25v-1350c0-55.83-45.425-101.25-101.25-101.25z"/>
    <path style="fill:#000;fill-rule:nonzero;stroke:none" d="M1135.037 464.142c-8.547-14.21-18.99-19.894-35.136-20.843-20.895-.946-34.191 9.474-43.687 33.159-6.649 16.105-10.445 40.737-10.445 63.473 0 28.422 5.696 57.79 16.142 74.843 8.549 14.21 19.945 20.842 37.04 20.842 19.944 0 32.288-10.422 41.785-34.105 5.698-14.21 10.446-40.737 10.446-61.58 0-30.315-5.697-57.788-16.144-75.79zm29.442 184.737c-15.195 20.844-37.039 30.316-65.528 30.316-37.99 0-61.732-15.159-77.877-48.316-11.394-22.738-18.992-58.736-18.992-90.948 0-44.526 11.395-84.315 29.442-109.895 16.144-20.842 37.985-30.316 69.325-30.316 34.189 0 57.931 15.159 75.026 48.317 11.394 23.683 18.045 57.788 18.045 91.895 0 42.63-10.447 85.262-29.441 108.947zM1564.537 464.142c-8.55-14.21-18.987-19.894-35.137-20.843-20.888-.946-34.188 9.474-43.688 33.159-6.65 16.105-10.437 40.737-10.437 63.473 0 28.422 5.687 57.79 16.137 74.843 8.55 14.21 19.938 20.842 37.038 20.842 19.95 0 32.287-10.422 41.787-34.105 5.7-14.21 10.45-40.737 10.45-61.58 0-30.315-5.7-57.788-16.15-75.79zm29.438 184.737c-15.188 20.844-37.038 30.316-65.525 30.316-37.988 0-61.725-15.159-77.875-48.316-11.4-22.738-18.988-58.736-18.988-90.948 0-44.526 11.388-84.315 29.438-109.895 16.15-20.842 37.987-30.316 69.325-30.316 34.188 0 57.925 15.159 75.025 48.317 11.387 23.683 18.05 57.788 18.05 91.895 0 42.63-10.45 85.262-29.45 108.947zM658.692 451.493c-7.578-3.789-12.315-4.738-25.578-4.738h-55.899v66.318h55.899c13.263 0 18-.949 25.578-4.736 9.475-4.738 16.11-17.053 16.11-28.423 0-11.369-6.635-22.736-16.11-28.421zm18.003 95.685c-12.316 5.684-28.422 9.474-49.267 9.474h-50.213v117.473h-42.634v-270h92.847c21.792 0 36.002 1.895 49.267 8.525 23.685 11.37 41.688 39.792 41.688 67.264 0 28.422-18.003 56.844-41.688 67.264zM1333.688 442.019v232.106h-42.826V442.02h-61.847v-37.895h167.472v37.895h-62.8zM900.05 674.125V556.65h-98.535v117.475H758.88v-270h42.635v108.947h98.535V404.125h42.634v270H900.05zM548.051 1214.127 444.78 1031.284v182.841h-42.635v-270h42.635l98.532 172.422V944.127h42.634v270h-37.895zM986.273 1004.144c-8.548-14.212-18.993-19.895-35.138-20.842-20.894-.948-34.19 9.472-43.686 33.156-6.649 16.106-10.445 40.737-10.445 63.474 0 28.42 5.695 57.79 16.142 74.843 8.549 14.21 19.944 20.843 37.039 20.843 19.944 0 32.288-10.423 41.785-34.107 5.699-14.21 10.446-40.737 10.446-61.58 0-30.312-5.699-57.787-16.144-75.787zm29.44 184.736c-15.197 20.843-37.04 30.318-65.528 30.318-37.989 0-61.731-15.161-77.876-48.319-11.394-22.736-18.991-58.735-18.991-90.947 0-44.527 11.395-84.314 29.44-109.895 16.143-20.842 37.987-30.314 69.325-30.314 34.19 0 57.93 15.157 75.026 48.315 11.394 23.684 18.042 57.787 18.042 91.894 0 42.632-10.445 85.263-29.438 108.948zM1903.85 998.125c-6.625-6.631-16.1-11.37-27.475-11.37h-48.325v183.793h42.638c14.212 0 22.737-2.843 30.324-10.42 16.1-16.106 24.626-45.476 24.626-81.478 0-35.999-8.525-66.314-21.788-80.525zm18 200.845c-10.412 9.473-24.625 14.209-38.837 15.156h-97.588v-270h87.162c27.475 0 37.9 2.842 52.113 14.212 28.412 24.631 44.525 67.263 44.525 120.312 0 54.001-17.05 96.636-47.375 120.32zM188.775 1214.127v-270h158.952v42.63H231.351v66.317h78.533v43.579H231.35v73.895h124.893v43.579H188.775zM1572.05 1214.127v-270h158.963v42.63h-116.388v66.317h78.537v43.579h-78.537v73.895h124.9v43.579H1572.05zM1431.175 1218.865c-39.788 0-65.375-15.159-82.425-48.317-12.313-23.685-19.9-57.792-19.9-91.895 0-42.632 11.375-85.264 30.325-108.948 16.1-19.895 38.837-30.315 69.162-30.315 40.738 0 66.313 17.053 84.313 54.946l-39.788 17.054c-15.162-22.737-23.687-28.421-44.525-28.421-21.8 0-36.012 9.472-45.487 33.157-6.625 16.105-10.412 39.79-10.412 62.527 0 29.367 6.624 58.737 17.05 75.791 9.474 14.209 21.787 20.843 40.737 20.843 18 0 31.262-9.476 41.688-31.266l40.737 15.16c-16.1 39.79-42.625 59.684-81.475 59.684zM693.325 986.758v66.316h78.53v43.579h-78.53v117.474h-42.576v-270h167.469v42.63H693.325zM1222.976 991.494c-6.63-3.791-10.42-4.736-24.63-4.736h-51.163v66.313h51.162c13.264 0 18-.944 24.631-4.733 10.425-5.686 17.055-17.055 17.055-28.423 0-11.367-6.63-22.737-17.055-28.421zm18.95 222.632-43.58-117.476h-51.163v117.476h-42.634V944.125h89.057c20.844 0 35.055 1.897 48.32 8.527 23.687 11.37 40.737 39.79 40.737 67.264 0 28.423-17.05 56.843-41.684 68.21l47.371 126.002h-46.424z"/>
</svg>
