<?xml version="1.0" encoding="UTF-8" standalone="no"?>
<!-- Created with Inkscape (http://www.inkscape.org/) -->

<svg
   xmlns:dc="http://purl.org/dc/elements/1.1/"
   xmlns:cc="http://creativecommons.org/ns#"
   xmlns:rdf="http://www.w3.org/1999/02/22-rdf-syntax-ns#"
   xmlns:svg="http://www.w3.org/2000/svg"
   xmlns="http://www.w3.org/2000/svg"
   xmlns:sodipodi="http://sodipodi.sourceforge.net/DTD/sodipodi-0.dtd"
   xmlns:inkscape="http://www.inkscape.org/namespaces/inkscape"
   width="2160"
   height="1080"
   id="svg2934"
   version="1.1"
   inkscape:version="0.48.2 r9819"
   sodipodi:docname="MUTCD M4-14.svg">
  <defs
     id="defs2936">
    <inkscape:perspective
       sodipodi:type="inkscape:persp3d"
       inkscape:vp_x="0 : 526.18109 : 1"
       inkscape:vp_y="0 : 1000 : 0"
       inkscape:vp_z="744.09448 : 526.18109 : 1"
       inkscape:persp3d-origin="372.04724 : 350.78739 : 1"
       id="perspective2942" />
    <inkscape:perspective
       id="perspective2924"
       inkscape:persp3d-origin="0.5 : 0.33333333 : 1"
       inkscape:vp_z="1 : 0.5 : 1"
       inkscape:vp_y="0 : 1000 : 0"
       inkscape:vp_x="0 : 0.5 : 1"
       sodipodi:type="inkscape:persp3d" />
    <clipPath
       id="Clip0">
      <path
         inkscape:connector-curvature="0"
         d="m 0,0 0,1296.5 864.5,0 L 864.5,0 0,0 z"
         transform="translate(0,0.5)"
         id="path7" />
    </clipPath>
  </defs>
  <sodipodi:namedview
     id="base"
     pagecolor="#ffffff"
     bordercolor="#666666"
     borderopacity="1.0"
     inkscape:pageopacity="0.0"
     inkscape:pageshadow="2"
     inkscape:zoom="0.17376232"
     inkscape:cx="2022.526"
     inkscape:cy="815.95945"
     inkscape:document-units="px"
     inkscape:current-layer="g2909"
     showgrid="false"
     inkscape:window-width="1280"
     inkscape:window-height="1004"
     inkscape:window-x="-8"
     inkscape:window-y="-8"
     inkscape:window-maximized="1"
     fit-margin-top="0"
     fit-margin-left="0"
     fit-margin-right="0"
     fit-margin-bottom="0" />
  <metadata
     id="metadata2939">
    <rdf:RDF>
      <cc:Work
         rdf:about="">
        <dc:format>image/svg+xml</dc:format>
        <dc:type
           rdf:resource="http://purl.org/dc/dcmitype/StillImage" />
        <dc:title></dc:title>
      </cc:Work>
    </rdf:RDF>
  </metadata>
  <g
     inkscape:label="Ebene 1"
     inkscape:groupmode="layer"
     id="layer1"
     transform="translate(-54.129032,499.33036)">
    <g
       id="g3018"
       transform="translate(2,-2)">
      <g
         id="g2909"
         transform="matrix(0.80835983,0,0,0.80835983,-165.10178,-177.02766)">
        <path
           inkscape:connector-curvature="0"
           style="fill:#ffd033;fill-rule:nonzero;stroke:none"
           d="m 2940.8077,772.79606 c 0,92.23306 -74.7656,167.00483 -167.0048,167.00483 l -2338.06773,0 c -92.23538,0 -167.00483,-74.77177 -167.00483,-167.00483 l 0,-1002.02901 c 0,-92.23538 74.76945,-167.00483 167.00483,-167.00483 l 2338.06773,0 c 92.2392,0 167.0048,74.76945 167.0048,167.00483 l 0,1002.02901 z"
           id="path11" />
        <path
           inkscape:connector-curvature="0"
           style="fill:#000000;fill-rule:nonzero;stroke:none"
           d="m 435.73517,898.04969 c -69.06594,0 -125.25363,-56.18939 -125.25363,-125.25362 l 0,-1002.02901 c 0,-69.06594 56.18769,-125.25363 125.25363,-125.25363 l 2338.06773,0 c 69.0596,0 125.2536,56.18769 125.2536,125.25363 l 0,1002.02901 c 0,69.06423 -56.194,125.25362 -125.2536,125.25362 l -2338.06773,0 z"
           id="path13" />
        <path
           inkscape:connector-curvature="0"
           style="fill:#ffd033;fill-rule:nonzero;stroke:none"
           d="m 435.73517,828.46435 c -30.6958,0 -55.66828,-24.97187 -55.66828,-55.66828 l 0,-1002.02901 c 0,-30.6958 24.97248,-55.66828 55.66828,-55.66828 l 2338.06763,0 c 30.6949,0 55.6683,24.97248 55.6683,55.66828 l 0,1002.02901 c 0,30.69641 -24.9734,55.66828 -55.6683,55.66828 l -2338.06763,0 z"
           id="path15" />
        <path
           inkscape:connector-curvature="0"
           style="fill:#000000;fill-rule:nonzero;stroke:none"
           d="m 1685.6288,550.1245 0,-556.6858799 99.9663,0 0,470.7402399 317.5443,0 0,85.94564 -417.5106,0 z"
           id="path17" />
        <path
           inkscape:connector-curvature="0"
           style="fill:#000000;fill-rule:nonzero;stroke:none"
           d="m 2197.7753,550.1245 0,-556.6858799 99.971,0 0,470.7402399 317.5411,0 0,85.94564 -417.5121,0 z"
           id="path19" />
        <path
           inkscape:connector-curvature="0"
           style="fill:#000000;fill-rule:nonzero;stroke:none"
           d="m 1326.5807,83.28877 c -84.1797,0 -135.0791,70.31831 -135.0791,187.5155 0,119.15022 50.8994,189.47008 135.0791,189.47008 105.7171,0 131.1683,-103.52753 131.1683,-189.47008 0,-117.19719 -46.9886,-187.5155 -131.1683,-187.5155 z m 0,476.60087 c -164.4472,0 -236.8824,-148.45028 -236.8824,-289.08537 0,-177.74726 90.0542,-287.13079 236.8824,-287.13079 137.0414,0 231.0094,115.24261 231.0094,285.17622 0,173.84275 -90.0543,291.03994 -231.0094,291.03994 z"
           id="path21" />
        <path
           inkscape:connector-curvature="0"
           style="fill:#000000;fill-rule:nonzero;stroke:none"
           d="m 851.78132,91.10243 0,459.02207 -97.55092,0 0,-459.02207 -159.97981,0 0,-97.6622599 417.51211,0 0,97.6622599 -159.98138,0 z"
           id="path23" />
      </g>
    </g>
  </g>
</svg>
