<svg xmlns="http://www.w3.org/2000/svg" width="90" height="72.001" viewBox="0 0 254 203.203">
    <path d="M16.93 0h220.137C246.394 0 254 7.606 254 16.937v169.33c0 9.327-7.606 16.936-16.933 16.936H16.93c-9.32 0-16.93-7.609-16.93-16.936V16.937C0 7.606 7.61 0 16.93 0" style="fill:#fcd116;fill-opacity:1;fill-rule:nonzero;stroke:none"/>
    <path d="M17.904 4.403h218.19c7.436 0 13.503 6.054 13.503 13.476v167.443c0 7.425-6.067 13.476-13.504 13.476H17.903c-7.436 0-13.497-6.05-13.497-13.476V17.879c0-7.422 6.061-13.476 13.498-13.476" style="fill:#000;fill-opacity:1;fill-rule:evenodd;stroke:none"/>
    <path d="M18.049 11.176h217.9c3.789 0 6.875 3.083 6.875 6.858v167.132c0 3.778-3.086 6.861-6.875 6.861h-217.9c-3.786 0-6.873-3.083-6.873-6.861V18.034c0-3.775 3.087-6.858 6.872-6.858" style="fill:#fcd116;fill-opacity:1;fill-rule:evenodd;stroke:none"/>
    <path d="M143.726 88.163v-8.192H118.78c2.494-5.7 5.168-8.73 9.98-11.578l2.494-1.428 2.67-1.426 2.495-1.601c.712-.357 1.428-.89 2.137-1.426 3.384-3.03 5.169-6.946 5.169-10.865 0-8.375-7.663-15.141-17.283-15.141-8.908 0-15.501 5.164-17.279 13.536l8.012 1.781c.896-4.628 4.099-7.122 9.267-7.122 4.988 0 9.26 3.027 9.26 6.77 0 2.134-1.418 4.275-3.383 5.52l-2.494 1.422-2.494 1.429-2.674 1.425c-.71.533-1.425 1.07-2.314 1.602-3.563 2.67-6.767 5.877-8.908 9.8-2.847 4.808-4.092 9.617-4.272 15.494h34.562zM217.703 151.309c0-19.95-23.873-13.716-24.582-23.157-.36-4.631 4.1-6.057 7.839-5.877 5.7.177 7.475 4.449 7.475 4.449l7.133-2.135c-2.494-6.237-7.302-10.332-14.435-10.332-9.08 0-15.854 3.743-15.854 13.716 0 8.375 6.773 11.401 9.797 12.65 6.593 2.67 14.435 3.74 14.435 10.51 0 4.275-3.21 7.478-7.842 7.478-4.808 0-8.728-2.67-10.866-7.479l-7.658 2.85c3.383 7.66 9.796 12.853 18.524 12.853 4.272 0 8.195-1.454 11.045-3.948 3.207-2.847 4.989-6.946 4.989-11.578m-39.37 14.608v-8.195h-23.516V143.83h14.788v-8.195h-14.788v-12.474h21.91v-8.015h-29.922v50.771h31.528zm-39.01 0v-7.479h-23.517v-43.292h-8.015v50.771h31.532zM95.85 115.146h-8.192v50.771h8.192v-50.771zm-20.303 50.771v-50.771h-8.015L55.771 143.65l-11.755-28.504h-8.019v50.771h8.02v-29.39l11.754 29.39 11.761-29.39v29.39h8.015z" style="fill:#000;fill-opacity:1;fill-rule:evenodd;stroke:none"/>
</svg>
