<svg xmlns="http://www.w3.org/2000/svg" width="90.001" height="45" viewBox="0 0 254.004 127">
    <path d="M21.167 0h211.67c11.656 0 21.167 9.26 21.167 20.616v85.768c0 11.356-9.511 20.616-21.167 20.616H21.167C9.507 127 0 117.74 0 106.384V20.616C0 9.26 9.507 0 21.167 0" style="fill:#fcd116;fill-opacity:1;fill-rule:nonzero;stroke:none"/>
    <path d="M232.78 4.232c9.204.23 16.75 7.095 16.983 16.44.042 1.45 0 2.907 0 4.36v27.055c-.01 18.175-.01 36.357-.014 54.532-.01 9.31-8.354 16.122-17.247 16.122h-12.499c-17.95 0-35.906.01-53.855.01-42.16.01-84.321.011-126.482.014-11.775 0-29.608 2.953-34.537-11.18-1.795-5.15-.892-11.775-.892-17.106.007-10.59.007-21.18.01-31.77.004-10.524.004-21.048.011-31.568 0-6.95-1.04-14.301 3.316-20.263C15.106 1.547 30.25 4.256 40.88 4.256c42.541 0 85.086-.01 127.631-.014 21.424 0 42.852-.01 64.273-.01" style="fill:#000;fill-opacity:1;fill-rule:evenodd;stroke:none"/>
    <path d="M21.167 10.583h211.67c5.828 0 10.583 4.756 10.583 10.584v84.666c0 5.828-4.755 10.584-10.583 10.584H21.167c-5.832 0-10.584-4.756-10.584-10.584V21.167c0-5.828 4.752-10.584 10.584-10.584" style="fill:#fcd116;fill-opacity:1;fill-rule:evenodd;stroke:none"/>
    <path d="M222.321 48.267V42.33h-26.127v5.937h9.652v36.371h6.678v-36.37h9.797zm-28.65.744V42.33h-26.278v42.308h6.682V66.231h12.323V59.4h-12.323V49.01h19.597zM130.427 63.56c0 3.263-.741 7.422-1.633 9.648-1.479 3.715-3.412 5.349-6.53 5.349-2.674 0-4.452-1.041-5.79-3.267-1.633-2.674-2.525-7.278-2.525-11.73 0-3.563.596-7.422 1.633-9.948 1.485-3.712 3.567-5.345 6.833-5.193 2.523.148 4.156 1.037 5.493 3.263 1.63 2.822 2.519 7.126 2.519 11.878m6.681 0c0-5.345-1.037-10.69-2.818-14.4-2.674-5.197-6.382-7.571-11.73-7.571-4.9 0-8.315 1.482-10.837 4.748-2.82 4.008-4.6 10.245-4.6 17.223 0 5.045 1.188 10.69 2.966 14.252 2.526 5.193 6.234 7.596 12.175 7.596 4.455 0 7.867-1.514 10.24-4.78 2.971-3.705 4.604-10.39 4.604-17.068m-44.982 0c0 3.263-.738 7.422-1.634 9.648-1.481 3.715-3.41 5.349-6.533 5.349-2.667 0-4.449-1.041-5.786-3.267-1.633-2.674-2.522-7.278-2.522-11.73 0-3.563.593-7.422 1.633-9.948 1.482-3.712 3.563-5.345 6.827-5.193 2.522.148 4.155 1.037 5.492 3.263 1.634 2.822 2.523 7.126 2.523 11.878m6.681 0c0-5.345-1.037-10.69-2.818-14.4-2.67-5.197-6.386-7.571-11.73-7.571-4.897 0-8.312 1.482-10.838 4.748-2.822 4.008-4.6 10.245-4.6 17.223 0 5.045 1.186 10.69 2.967 14.252 2.526 5.193 6.237 7.596 12.171 7.596 4.46 0 7.87-1.514 10.248-4.78 2.97-3.705 4.6-10.39 4.6-17.068m-38.3 5.493c0-7.723-6.382-14.252-14.105-14.252-2.074 0-3.411.296-6.533 1.188l.448-6.978h17.812V42.33H33.786l-1.04 21.823 6.68 1.93c2.523-3.564 3.86-4.453 6.83-4.453 4.156 0 7.568 3.263 7.568 7.423 0 5.492-4.749 9.504-10.834 9.504-3.122 0-6.234-.597-8.019-1.49l-3.266 5.938c2.97 1.485 6.685 2.403 10.392 2.403 10.693 0 18.408-7.003 18.408-16.355" style="fill:#000;fill-opacity:1;fill-rule:evenodd;stroke:none"/>
</svg>
