<svg xmlns="http://www.w3.org/2000/svg" width="74.427" height="74.431" viewBox="0 0 210.051 210.062">
    <path d="m206.643 96.802-93.377-93.37C111.104 1.262 108.11 0 105.033 0c-3.066 0-6.061 1.263-8.245 3.432L3.411 96.802A11.682 11.682 0 0 0 0 105.043c.014 3.066 1.249 6.068 3.411 8.234l93.377 93.366c2.163 2.166 5.193 3.411 8.245 3.419 3.055-.007 6.085-1.253 8.233-3.419l93.377-93.363c2.798-2.797 3.99-7.006 3.136-10.858-.504-2.226-1.728-3.87-3.136-5.62" style="fill:#fcd116;fill-opacity:1;fill-rule:nonzero;stroke:none"/>
    <path d="m204.336 110.973-93.37 93.363a8.456 8.456 0 0 1-5.933 2.459 8.431 8.431 0 0 1-5.924-2.459l-93.405-93.37c-1.548-1.548-2.43-3.725-2.43-5.923 0-2.201.882-4.378 2.43-5.934L99.11 5.72c1.556-1.55 3.726-2.431 5.924-2.431 2.197 0 4.378.882 5.933 2.43l93.377 93.398a8.456 8.456 0 0 1 2.445 5.927c0 2.208-.89 4.36-2.452 5.93" style="fill:#000;fill-opacity:1;fill-rule:evenodd;stroke:none"/>
    <path d="M201.119 107.749a3.878 3.878 0 0 0 1.122-2.706c0-.98-.413-2.021-1.122-2.723L107.742 8.943a3.929 3.929 0 0 0-2.71-1.108c-.977 0-2.017.413-2.72 1.108L8.93 102.32c-.71.709-1.094 1.721-1.094 2.716.007.998.392 1.997 1.094 2.706l93.384 93.39a3.975 3.975 0 0 0 2.72 1.116c.994 0 2.014-.413 2.709-1.115l93.377-93.384z" style="fill:#fcd116;fill-opacity:1;fill-rule:evenodd;stroke:none"/>
    <path d="M150.731 89.285c0 3.464-.822 6.297-2.37 7.852-.738.73-1.56.999-2.928.999h-4.107V80.423h4.657a3.73 3.73 0 0 1 2.646 1.09c1.28 1.376 2.102 4.297 2.102 7.772m4.202 0c0-5.12-1.549-9.233-4.293-11.603-1.37-1.097-2.378-1.373-5.024-1.373h-8.403v26.032h9.412c1.362-.088 2.741-.543 3.74-1.46 2.928-2.283 4.568-6.397 4.568-11.596M132.92 102.34v-4.205h-12.058v-7.123h7.577V86.82h-7.577v-6.396h11.236v-4.114h-15.35v26.032h16.172zm-20.465 0v-4.205h-12.05v-7.123h7.577V86.82h-7.578v-6.396h11.233v-4.114H96.29v26.032h16.164zM88.251 83.61c0 1.105-.642 2.29-1.552 2.745-.73.364-1.193.463-2.466.463h-5.387v-6.396h5.387c1.273 0 1.735.088 2.466.455.91.55 1.552 1.647 1.552 2.734m4.202 0c0-2.646-1.736-5.387-4.019-6.484-1.28-.632-2.653-.819-4.752-.819h-8.95v26.032h4.114V91.013h4.836c2.011 0 3.567-.367 4.752-.91 2.283-1.005 4.019-3.747 4.019-6.491m-22.014 11.24c0-10.235-12.238-7.035-12.608-11.872-.18-2.377 2.099-3.108 4.022-3.02 2.92.092 3.83 2.29 3.83 2.29l3.659-1.097c-1.28-3.203-3.746-5.299-7.398-5.299-4.66 0-8.131 1.916-8.131 7.035 0 4.293 3.471 5.842 5.023 6.484 3.383 1.372 7.398 1.915 7.398 5.387 0 2.194-1.637 3.838-4.015 3.838-2.465 0-4.48-1.369-5.573-3.838l-3.93 1.464c1.739 3.926 5.023 6.593 9.503 6.593 2.191 0 4.202-.751 5.663-2.028 1.64-1.46 2.557-3.56 2.557-5.938M146.484 122.707c0 1.097-.639 2.29-1.556 2.744-.73.364-1.185.455-2.466.455h-5.39v-6.395h5.39c1.28 0 1.736.088 2.466.455.917.55 1.556 1.647 1.556 2.74m4.198 0c0-2.645-1.729-5.386-4.018-6.483-1.28-.639-2.646-.826-4.745-.826h-8.953v26.039h4.106v-11.328h4.847c2.004 0 3.553-.367 4.745-.91 2.29-1.006 4.018-3.747 4.018-6.491m-23.929 18.729v-26.039h-4.113l-6.03 14.623-6.028-14.623h-4.107v26.039h4.107v-15.078l6.029 15.078 6.029-15.078v15.078h4.113zm-26.398-9.317v-16.722H96.24v16.722c0 3.376-1.915 5.567-4.752 5.567-2.825 0-4.748-2.191-4.748-5.567v-16.722h-4.106v16.722c0 2.014.455 3.838 1.185 5.39 1.369 2.554 4.477 4.403 7.67 4.403 3.203 0 6.304-1.849 7.68-4.403a12.736 12.736 0 0 0 1.185-5.39m-23.845 9.317v-26.039H72.4v10.51h-9.5v-10.51h-4.106v26.039H62.9v-11.328h9.5v11.328h4.11z" style="fill:#000;fill-opacity:1;fill-rule:evenodd;stroke:none"/>
</svg>
