<svg xmlns="http://www.w3.org/2000/svg" width="89.063" height="89.056" viewBox="0 0 251.355 251.337">
    <path style="fill:none;stroke:#fff;stroke-width:40" transform="translate(18234.886 12427.884)" d="m315 545-80-170 80-170 80 170z"/>
    <path d="M114.671 246.793 4.548 136.683c-6.064-6.06-6.064-15.973 0-22.027L114.671 4.54c6.057-6.053 15.967-6.053 22.028 0l110.105 110.116c6.072 6.054 6.064 15.967 0 22.02L136.7 246.8c-6.061 6.053-15.97 6.046-22.028-.007" style="fill:#fcd116;fill-opacity:1;fill-rule:nonzero;stroke:none"/>
    <path d="M116.947 243.336 7.998 134.412c-4.808-4.816-4.808-12.675 0-17.484L116.947 7.998c4.801-4.809 12.671-4.809 17.473 0l108.941 108.93c4.801 4.809 4.801 12.668 0 17.484L134.42 243.346c-4.802 4.805-12.672 4.798-17.473-.01" style="fill:#000;fill-opacity:1;fill-rule:evenodd;stroke:none"/>
    <path d="M121.321 238.905 12.436 130.027c-2.406-2.392-2.406-6.329 0-8.72L121.321 12.438c2.406-2.403 6.332-2.403 8.738 0l108.864 108.867c2.399 2.392 2.406 6.329 0 8.731L130.06 238.905c-2.406 2.398-6.332 2.398-8.738 0" style="fill:#fcd116;fill-opacity:1;fill-rule:evenodd;stroke:none"/>
    <path d="m118.979 88.473-10.065-17.826v17.826h-4.156V62.15h4.156l9.61 16.81v-16.81h4.155v26.324h-3.7zM147.056 75.357c0-3.323-.649-6.647-1.75-8.957-1.668-3.235-3.968-4.71-7.302-4.71-3.04 0-5.168.924-6.742 2.953-1.756 2.49-2.857 6.375-2.857 10.714 0 3.147.737 6.65 1.845 8.865 1.566 3.235 3.88 4.71 7.574 4.71 2.77 0 4.893-.925 6.368-2.953 1.852-2.307 2.864-6.46 2.864-10.622m-4.155 0c0 2.032-.463 4.618-1.013 6.004-.924 2.31-2.127 3.327-4.064 3.327-1.669 0-2.77-.65-3.605-2.032-1.013-1.665-1.57-4.526-1.57-7.3 0-2.211.374-4.614 1.012-6.19.932-2.308 2.22-3.324 4.251-3.232 1.574.099 2.593.65 3.426 2.036 1.005 1.756 1.563 4.434 1.563 7.387M67.586 110.642v22.63H63.43v-22.63h-6v-3.694h16.252v3.694h-6.096zM95.477 133.272l-4.618-12.287c2.406-1.104 4.067-3.877 4.067-6.65 0-2.677-1.661-5.45-3.968-6.55-1.302-.646-2.682-.837-4.714-.837h-8.681v26.324h4.155v-11.45h4.989l4.25 11.45h4.52zm-4.706-18.937c0 1.115-.65 2.223-1.669 2.773-.639.374-1.108.466-2.395.466h-4.989v-6.467h4.989c1.382 0 1.756.092 2.395.455 1.02.561 1.669 1.673 1.669 2.773M119.86 133.272l-9.052-26.324h-4.155L97.6 133.272h4.435l2.586-7.383h8.22l2.582 7.383h4.438zm-8.494-11.641h-5.264l2.67-7.387 2.594 7.387zM127.985 111.107v6.467h7.67v4.247h-7.67v11.451h-4.156v-26.324h16.345v4.16h-12.189zM148.213 111.107v6.467h7.663v4.247h-7.663v11.451h-4.162v-26.324h16.35v4.16h-12.188zM164.281 106.95h4.251v26.324h-4.25V106.95zM184.228 133.731c-3.877 0-6.37-1.471-8.032-4.71-1.2-2.307-1.944-5.63-1.944-8.957 0-4.152 1.115-8.311 2.963-10.618 1.563-1.937 3.782-2.957 6.738-2.957 3.976 0 6.463 1.666 8.22 5.36l-3.88 1.66c-1.479-2.222-2.308-2.772-4.34-2.772-2.123 0-3.513.92-4.43 3.231-.646 1.574-1.02 3.88-1.02 6.096 0 2.868.649 5.726 1.661 7.391.928 1.383 2.12 2.032 3.976 2.032 1.757 0 3.045-.924 4.064-3.048l3.969 1.482c-1.57 3.873-4.156 5.81-7.945 5.81M92.894 176.498c-1.481 1.291-3.517 2.032-5.729 2.032-4.526 0-7.853-2.674-9.602-6.646l3.968-1.482c1.108 2.498 3.14 3.884 5.634 3.884 2.4 0 4.068-1.661 4.068-3.884 0-3.503-4.068-4.057-7.483-5.443-1.573-.646-5.08-2.223-5.08-6.565 0-5.165 3.507-7.102 8.22-7.102 3.694 0 6.188 2.117 7.475 5.355l-3.69 1.105s-.924-2.212-3.88-2.311c-1.937-.092-4.244.65-4.057 3.051.363 4.89 12.739 1.659 12.739 12.006 0 2.402-.925 4.53-2.583 6M99.906 151.75h4.251v26.323h-4.25V151.75zM119.49 178.53c-3.969 0-6.28-1.47-7.85-4.794-1.107-2.318-1.756-5.546-1.756-8.777 0-4.255 1.2-8.407 2.956-10.71 1.57-1.94 3.79-2.957 6.738-2.957 4.064 0 6.47 1.662 8.22 5.81l-3.969 1.577c-1.107-2.317-2.219-3.14-4.25-3.14-2.124 0-3.507.921-4.431 3.229-.646 1.573-1.013 3.968-1.013 6.19 0 2.767.462 5.54 1.288 7.201.836 1.482 2.032 2.127 3.605 2.127 2.678 0 4.614-1.661 4.614-4.064v-1.114h-4.8v-4.15h8.956v5.264c0 4.805-3.506 8.308-8.308 8.308M147.751 178.075l-10.065-17.826v17.826h-4.162v-26.324h4.162l9.603 16.806v-16.806h4.156v26.324h-3.694zM171.207 176.498c-1.474 1.291-3.506 2.032-5.725 2.032-4.53 0-7.85-2.674-9.6-6.646l3.97-1.482c1.1 2.498 3.136 3.884 5.63 3.884 2.402 0 4.064-1.661 4.064-3.884 0-3.503-4.064-4.057-7.475-5.443-1.57-.646-5.088-2.223-5.088-6.565 0-5.165 3.518-7.102 8.224-7.102 3.69 0 6.184 2.117 7.482 5.355l-3.693 1.105s-.925-2.212-3.881-2.311c-1.944-.092-4.251.65-4.064 3.051.363 4.89 12.739 1.659 12.739 12.006 0 2.402-.917 4.53-2.583 6" style="fill:#000;fill-opacity:1;fill-rule:nonzero;stroke:none"/>
</svg>
