<svg xmlns="http://www.w3.org/2000/svg" width="12960" height="4320">
    <path style="fill:#fcd116;fill-rule:nonzero;stroke:none" d="M16319.389 587.616c0 184.463-149.685 334.01-334.009 334.01H620.934c-184.469 0-334.01-149.547-334.01-334.01v-4676.135c0-184.47 149.541-334.01 334.01-334.01H15985.38c184.324 0 334.009 149.54 334.009 334.01V587.616z" transform="matrix(.80836 0 0 .80836 -231.938 3574.995)"/>
    <path style="fill:#000;fill-rule:nonzero;stroke:none" d="M16096.716 587.616c0 61.39-50.102 111.337-111.337 111.337H620.934c-61.391 0-111.336-49.947-111.336-111.337v-4676.135c0-61.391 49.945-111.337 111.336-111.337H15985.38c61.235 0 111.337 49.946 111.337 111.337V587.616zm-111.337-4926.642H620.934c-138.13 0-250.507 112.377-250.507 250.507V587.616c0 138.135 112.377 250.508 250.507 250.508H15985.38c137.934 0 250.507-112.373 250.507-250.508v-4676.135c0-138.13-112.573-250.507-250.507-250.507z" transform="matrix(.80836 0 0 .80836 -231.938 3574.995)"/>
    <path style="fill:#000;fill-rule:nonzero;stroke:none" d="m13132.116-2251.466-425.846-753.96v753.96h-175.819V-3364.83h175.819l406.301 710.992v-710.992h175.804v1113.365h-156.259zM3628.753-3169.507c-31.251-15.621-50.797-19.532-105.491-19.532h-230.498v273.463h230.498c54.694 0 74.24-3.91 105.491-19.533 39.06-19.532 66.416-70.317 66.416-117.2 0-46.88-27.355-93.752-66.416-117.198zm74.225 394.574c-50.782 23.427-117.198 39.06-203.159 39.06h-207.055v484.407h-175.803V-3364.83h382.858c89.858 0 148.465 7.816 203.159 35.154 97.667 46.884 171.906 164.082 171.906 277.369 0 117.199-74.24 234.402-171.906 277.375zM4530.224-3169.5c-27.34-15.63-42.973-19.531-101.58-19.531h-210.967v273.454h210.967c54.71 0 74.24-3.903 101.58-19.526 42.972-23.444 70.327-70.325 70.327-117.199 0-46.88-27.355-93.76-70.327-117.199zm78.136 918.034-179.716-484.407h-210.967v484.407h-175.803V-3364.83h367.24c85.946 0 144.552 7.813 199.246 35.16 97.667 46.884 167.995 164.075 167.995 277.37 0 117.198-70.328 234.395-171.892 281.264l195.334 519.571H4608.36zM8334.084-2251.466h-156.738l-176.36-714.898-172.432 714.898h-156.737l-164.593-1113.369h180.257l86.224 585.99 141.073-585.99h172.432l144.985 585.99 86.224-585.99h180.257l-164.593 1113.37zM6439.506-2317.866c-62.503 54.679-148.448 85.93-242.218 85.93-191.437 0-332.077-113.284-406.317-281.264l167.995-62.503c46.884 105.476 132.83 164.067 238.322 164.067 101.579 0 171.89-70.312 171.89-164.067 0-148.448-171.89-171.89-316.442-230.482-66.416-27.355-214.88-93.758-214.88-277.372 0-218.762 148.464-300.803 347.71-300.803 156.274 0 261.765 89.852 316.444 226.582l-156.258 46.874s-39.076-93.754-164.098-97.657c-82.033-3.908-179.716 27.339-171.891 128.917 15.618 207.044 539.132 70.316 539.132 507.838 0 101.58-39.061 191.422-109.389 253.94zM15129.062-2317.881c-62.519 54.694-148.464 85.945-242.218 85.945-191.437 0-332.078-113.284-406.317-281.264l167.993-62.503c46.887 105.476 132.831 164.067 238.324 164.067 101.578 0 171.891-70.312 171.891-164.067 0-148.448-171.891-171.89-316.459-230.482-66.4-27.355-214.864-93.76-214.864-277.373 0-218.766 148.464-300.805 347.71-300.805 156.257 0 261.749 89.851 316.444 226.582l-156.274 46.874s-39.06-93.754-164.083-97.657c-82.048-3.91-179.715 27.339-171.906 128.917 15.633 207.047 539.146 70.316 539.146 507.841 0 101.58-39.075 191.422-109.387 253.925zM7308.767-2317.881c-62.503 54.694-148.45 85.945-242.22 85.945-191.436 0-332.076-113.284-406.316-281.264l167.995-62.503c46.885 105.476 132.83 164.067 238.322 164.067 101.579 0 171.891-70.312 171.891-164.067 0-148.448-171.891-171.89-316.459-230.482-66.4-27.355-214.864-93.76-214.864-277.373 0-218.766 148.464-300.805 347.71-300.805 156.274 0 261.765 89.851 316.444 226.582l-156.258 46.874s-39.076-93.754-164.098-97.657c-82.033-3.91-179.716 27.339-171.891 128.917 15.618 207.047 539.147 70.316 539.147 507.841 0 101.58-39.076 191.422-109.403 253.925zM2728.443-2251.466l-179.716-371.122-179.716 371.122h-199.246l277.383-574.265-257.853-539.103h199.246l160.186 332.062 160.185-332.063h199.246l-261.764 539.105 281.295 574.264h-199.246zM10148.529-2735.873v484.407h-176.685v-484.407l-392.647-628.958h212.02l267.006 429.722 270.919-429.722h208.106l-388.719 628.958zM14043.948-3142.158c-27.356-27.349-66.415-46.88-113.301-46.88h-199.246v757.872h175.803c58.607 0 93.77-11.721 125.023-42.973 66.414-66.4 101.563-187.525 101.563-335.974 0-148.437-35.149-273.445-89.842-332.045zm74.224 828.189c-42.973 39.076-101.58 58.606-160.17 62.503H13555.597V-3364.83h359.417c113.3 0 156.288 11.718 214.88 58.6 117.212 101.57 183.627 277.367 183.627 496.119 0 222.688-70.326 398.492-195.349 496.143zM1367.865-2251.466V-3364.83h655.446v175.795h-479.882v273.462h323.825v179.701H1543.43v304.707h515v179.7h-690.564zM11650.614-2251.466V-3364.83h655.448v175.795h-479.892v273.462h323.835v179.701h-323.835v304.707h515.009v179.7h-690.565zM4989.07-2251.466V-3364.83h655.447v175.795h-479.892v273.46h323.835v179.703h-323.835v304.707h515.01v179.7h-690.566zM9040.9-3056.211l-113.95 312.53h223.973l-110.023-312.53zm282.904 804.745L9213.78-2563.98h-349.69l-110.006 312.515h-188.607l385.054-1113.365h176.809l385.054 1113.365h-188.591zM8598.199-191.74v-1113.365h178.138V-191.74h-178.138zM9043.545-191.74v-1113.365h175.571v949.299h514.994v164.066h-690.565zM8154.832-191.74v-644.576L7896.484-191.74l-258.331-644.576v644.576h-176.144v-1113.365h176.144l258.331 625.046 258.348-625.046h176.143V-191.74h-176.143zM9901.115-191.74v-1113.365h655.447v175.803h-479.891v273.455h323.834v179.7h-323.834v304.707h515.009v179.7h-690.565zM6135.248-80.403V-1163.29h-120.614v-168.768h13.917c55.668 0 115.975-32.813 153.088-84.384h167.004V-80.403h-213.395z" transform="matrix(.80836 0 0 .80836 -231.938 3574.995)"/>
</svg>
