<svg xmlns="http://www.w3.org/2000/svg" width="5885.73" height="5885.73">
    <path style="fill:#fcd116;fill-rule:nonzero;stroke:none" d="M5936.421 1487.544c-130.434 130.434-341.911 130.434-472.345 0L2157.54-1818.98c-130.439-130.45-130.439-341.927 0-472.361l3306.536-3306.536c130.434-130.439 341.912-130.438 472.345 0l3306.541 3306.536c130.434 130.434 130.434 341.912 0 472.36l-3306.54 3306.526z" transform="matrix(.80836 0 0 .80836 -1664.988 4604.18)"/>
    <path style="fill:#000;fill-rule:nonzero;stroke:none" d="M2216.586-1878.031c-97.672-97.667-97.672-256.6 0-354.267l3306.52-3306.535c97.667-97.673 256.6-97.673 354.267 0l3306.526 3306.535c97.682 97.667 97.682 256.6 0 354.267L5877.373 1428.494c-97.667 97.683-256.6 97.683-354.267 0L2216.586-1878.03z" transform="matrix(.80836 0 0 .80836 -1664.988 4604.18)"/>
    <path style="fill:#fcd116;fill-rule:nonzero;stroke:none" d="M2314.994-1976.453c-43.41-43.406-43.41-114.043 0-157.448l3306.537-3306.521c43.39-43.41 114.042-43.41 157.433 0l3306.525 3306.52c43.422 43.407 43.422 114.043 0 157.45L5778.964 1330.072c-43.39 43.42-114.043 43.42-157.433 0L2314.994-1976.453z" transform="matrix(.80836 0 0 .80836 -1664.988 4604.18)"/>
    <path style="fill:#000;fill-rule:nonzero;stroke:none" d="M6079.936-892.292c-19.113-54.694-51.85-79.296-100.976-79.296h-92.78v560.58h92.78c65.503 0 100.976-51.957 111.877-112.11 5.474-49.22 10.918-103.914 10.918-164.082 0-87.508-8.18-172.278-21.82-205.092zm19.097 555.121c-27.293 24.618-65.488 35.55-109.156 35.55h-215.591v-779.355H5973.5c65.488 0 98.24 8.196 125.532 30.076 46.39 32.814 79.142 92.982 92.78 172.278 10.918 57.431 19.113 125.795 19.113 185.963 0 180.474-35.488 295.336-111.893 355.488zM4636.04-301.62v-779.356h367.488v109.388h-255.054v196.88h161.81v106.651h-161.81v257.049h285.223v109.388H4636.04zM5518.227-301.62 5278.08-823.928v522.308h-111.893v-779.356h111.893l212.854 467.613v-467.613h111.894v779.356h-84.6zM6549.745-661.531c-33.726-21.85-66.462-43.777-87.368-58.483-62.828-44.225-96.105-103.914-96.105-172.278 0-112.11 87.878-202.354 200.467-202.354 109.852 0 194.979 84.77 197.73 202.354h-107.114c-2.737-54.694-41.18-90.244-90.616-90.244-52.173 0-93.368 38.287-93.368 90.244 0 38.288 16.469 60.169 74.147 92.982 151.031 87.507 216.952 172.278 216.952 284.387 0 125.795-96.12 226.972-216.952 226.972-137.315 0-219.688-114.846-219.688-243.378h109.836c0 65.642 32.953 134.006 109.852 134.006 60.416 0 109.837-54.694 109.837-117.6 0-48.833-20.18-89.966-107.61-146.608zM7607.705-2212.403l-54.833 224.235h112.419l-57.586-224.235zm139.836 546.91-54.833-213.302h-167.253l-52.08 213.302h-112.42l194.67-779.356h109.666l194.653 779.356h-112.403zM2994.806-1665.493v-779.356H3362.3v109.388h-255.054v196.88h161.812v106.652h-161.813v257.048h285.223v109.388h-397.663zM5193.372-1665.493v-779.356h367.503v109.388h-255.053v196.88h161.809v106.652h-161.81v257.048h285.224v109.388h-397.673zM4258.238-2335.46h-114.615v221.497h114.615c65.503 0 100.976-41.024 100.976-112.125 0-65.627-40.932-109.373-100.976-109.373zm5.474 328.148h-120.09v341.819h-111.877v-779.356h231.967c122.795 0 204.658 87.508 204.658 218.761 0 142.202-73.683 218.776-204.658 218.776zM4850.75-2335.46h-114.616v196.88h114.615c65.503 0 100.976-35.536 100.976-98.44 0-60.153-40.931-98.44-100.976-98.44zm95.517 669.967-103.698-366.436h-106.435v366.436h-111.877v-779.356h231.95c122.811 0 204.675 82.034 204.675 207.828 0 92.982-38.21 161.346-111.878 188.685l111.878 382.843h-114.615zM5906.483-2025.404c-33.71-21.85-66.462-43.777-87.353-58.483-62.843-44.225-96.12-103.914-96.12-172.277 0-112.125 87.878-202.355 200.467-202.355 109.852 0 194.978 84.77 197.73 202.355h-107.114c-2.737-54.694-41.18-90.245-90.616-90.245-52.174 0-93.368 38.288-93.368 90.245 0 38.287 16.484 60.168 74.147 92.981 151.031 87.508 216.952 172.278 216.952 284.388 0 125.795-96.121 226.972-216.952 226.972-137.3 0-219.689-114.847-219.689-243.379h109.837c0 65.642 32.952 134.006 109.852 134.006 60.415 0 109.837-54.694 109.837-117.6 0-48.833-20.18-89.965-107.61-146.608zM6436.646-2025.404c-33.726-21.85-66.462-43.777-87.369-58.483-62.828-44.225-96.105-103.914-96.105-172.277 0-112.125 87.879-202.355 200.468-202.355 109.836 0 194.978 84.77 197.715 202.355h-107.1c-2.736-54.694-41.194-90.245-90.615-90.245-52.174 0-93.368 38.288-93.368 90.245 0 38.287 16.468 60.168 74.147 92.981 151.031 87.508 216.936 172.278 216.936 284.388 0 125.795-96.12 226.972-216.936 226.972-137.315 0-219.689-114.847-219.689-243.379h109.837c0 65.642 32.952 134.006 109.852 134.006 60.415 0 109.836-54.694 109.836-117.6 0-48.833-20.18-89.965-107.61-146.608zM7187.982-1665.493h-96.043l-74.086-407.445-74.1 407.445h-98.78l-123.476-779.356h109.76l65.858 415.657 76.838-415.657h87.801l74.085 415.657 68.596-415.657h109.76l-126.213 779.356zM3801.433-1665.493l-110.177-265.26-110.189 265.26h-118.45l170.79-404.724-159.772-374.632h118.45l99.171 235.183 99.152-235.183h118.45l-157 374.632 170.777 404.724h-121.202zM8211.041-2018.26v352.767h-112.419v-352.767l-191.916-426.589h117.893l131.609 281.666 128.856-281.666h120.63l-194.653 426.59z" transform="matrix(.80836 0 0 .80836 -1664.988 4604.18)"/>
</svg>
