<?xml version="1.0" encoding="UTF-8" standalone="no"?>
<svg
   xmlns:dc="http://purl.org/dc/elements/1.1/"
   xmlns:cc="http://creativecommons.org/ns#"
   xmlns:rdf="http://www.w3.org/1999/02/22-rdf-syntax-ns#"
   xmlns:svg="http://www.w3.org/2000/svg"
   xmlns="http://www.w3.org/2000/svg"
   xmlns:sodipodi="http://sodipodi.sourceforge.net/DTD/sodipodi-0.dtd"
   xmlns:inkscape="http://www.inkscape.org/namespaces/inkscape"
   width="90"
   height="90.001244"
   viewBox="0 0 254.00005 254.00352"
   version="1.1"
   id="svg2"
   inkscape:version="0.48.2 r9819"
   sodipodi:docname="AJAX1.svg">
  <metadata
     id="metadata62">
    <rdf:RDF>
      <cc:Work
         rdf:about="">
        <dc:format>image/svg+xml</dc:format>
        <dc:type
           rdf:resource="http://purl.org/dc/dcmitype/StillImage" />
        <dc:title />
      </cc:Work>
    </rdf:RDF>
  </metadata>
  <defs
     id="defs60" />
  <sodipodi:namedview
     pagecolor="#ffffff"
     bordercolor="#666666"
     borderopacity="1"
     objecttolerance="10"
     gridtolerance="10"
     guidetolerance="10"
     inkscape:pageopacity="0"
     inkscape:pageshadow="2"
     inkscape:window-width="1280"
     inkscape:window-height="1004"
     id="namedview58"
     showgrid="false"
     fit-margin-top="0"
     fit-margin-left="0"
     fit-margin-right="0"
     fit-margin-bottom="0"
     inkscape:zoom="5.6568543"
     inkscape:cx="33.329452"
     inkscape:cy="34.698262"
     inkscape:window-x="-8"
     inkscape:window-y="-8"
     inkscape:window-maximized="1"
     inkscape:current-layer="svg2"
     showguides="true"
     inkscape:guide-bbox="true">
    <sodipodi:guide
       orientation="1,0"
       position="-42.24963,26.69329"
       id="guide4975" />
  </sodipodi:namedview>
  <!-- draw the bicycle -->
  <!-- RIGHT -->
  <!-- LANE -->
  <!-- ONLY -->
  <path
     d="M 3.63361,118.18759 60.91062,60.910586 118.18763,3.6371059 c 2.42359,-2.42358 5.61623,-3.637140009914 8.81239,-3.637140009914 3.19617,0 6.38881,1.213560009914 8.81239,3.637140009914 l 57.27701,57.2734801 57.27701,57.277004 c 2.42359,2.42359 3.63362,5.61975 3.63362,8.81239 0,3.19617 -1.21003,6.38881 -3.63362,8.81239 l -57.27701,57.27701 -57.27701,57.27701 c -2.42358,2.42712 -5.61622,3.63714 -8.81239,3.63714 -3.19616,0 -6.3888,-1.21002 -8.81239,-3.63714 L 60.91062,193.08938 3.63361,135.81237 C 1.21356,133.38879 0,130.19615 0,126.99998 c 0,-3.19264 1.21356,-6.3888 3.63361,-8.81239"
     style="fill:#ffd033;fill-opacity:1;fill-rule:nonzero;stroke:none"
     id="path3973"
     inkscape:connector-curvature="0" />
  <path
     d="M 6.39586,120.00793 120.00797,6.3993559 c 3.84527,-3.84528 10.1353,-3.84528 13.98411,0 L 247.60066,120.00793 c 3.84527,3.8488 3.84527,10.13883 0,13.98411 l -113.60858,113.6121 c -3.84881,3.84528 -10.13884,3.84528 -13.98411,0 L 6.39586,133.99204 c -3.84527,-3.84528 -3.84527,-10.13531 0,-13.98411"
     style="fill:#000000;fill-opacity:1;fill-rule:evenodd;stroke:none"
     id="path3981"
     inkscape:connector-curvature="0" />
  <path
     d="M 9.94834,123.50748 123.50752,9.9518259 c 1.91911,-1.92264 5.06589,-1.92264 6.985,0 L 244.05171,123.50748 c 1.91911,1.92264 1.91911,5.06589 0,6.98853 L 130.49252,244.0552 c -1.91911,1.92264 -5.06589,1.92264 -6.985,0 L 9.94834,130.49601 c -1.92264,-1.92264 -1.92264,-5.06589 0,-6.98853"
     style="fill:#ffd033;fill-opacity:1;fill-rule:evenodd;stroke:none"
     id="path3985"
     inkscape:connector-curvature="0" />
  <path
     inkscape:connector-curvature="0"
     d="m 42.7087,133.15319 23.37886,0 c 2.88879,28.85757 25.90543,51.87119 54.763,54.76298 l 0,23.37585 12.29768,0 0,-23.37585 c 28.86059,-2.89179 51.87421,-25.90541 54.766,-54.76298 l 23.37585,0 0,-12.3007 -23.37585,0 c -2.89179,-28.857564 -25.90541,-51.871194 -54.766,-54.762984 l 0,-23.37584 -12.29768,0 0,23.37584 c -28.85757,2.89179 -51.87421,25.90542 -54.763,54.762984 l -23.37886,0 0,12.3007 z m 84.2907,-55.073904 c 26.97701,0 48.92506,21.945034 48.92506,48.925064 0,26.97398 -21.94805,48.92506 -48.92506,48.92506 -26.977,0 -48.92204,-21.95108 -48.92204,-48.92506 0,-26.98003 21.94504,-48.925064 48.92204,-48.925064"
     style="fill:#000000;fill-opacity:1;fill-rule:evenodd;stroke:none"
     id="path3160" />
</svg>
