<svg xmlns="http://www.w3.org/2000/svg" width="90" height="90" viewBox="0 0 253.999 254.001">
    <path d="M3.622 118.218 118.22 3.622c4.829-4.83 12.731-4.83 17.56 0l114.6 114.596c4.827 4.83 4.827 12.732 0 17.562l-114.6 114.596c-4.829 4.833-12.731 4.833-17.56 0L3.621 135.78c-4.83-4.83-4.83-12.732 0-17.562" style="fill:#fcd116;fill-opacity:1;fill-rule:nonzero;stroke:none"/>
    <path d="M6.952 119.293 119.291 6.951c4.244-4.236 11.176-4.236 15.416 0l112.339 112.342c4.24 4.24 4.24 11.176 0 15.413L134.707 247.048c-4.24 4.237-11.172 4.237-15.416 0L6.952 134.706c-4.236-4.237-4.236-11.172 0-15.413" style="fill:#000;fill-opacity:1;fill-rule:evenodd;stroke:none"/>
    <path d="M11.34 122.248 122.248 11.34c2.614-2.614 6.89-2.614 9.508 0l110.902 110.907c2.614 2.614 2.614 6.893 0 9.507L131.755 242.661c-2.618 2.61-6.894 2.61-9.508 0L11.341 131.755c-2.614-2.614-2.614-6.893 0-9.507" style="fill:#fcd116;fill-opacity:1;fill-rule:evenodd;stroke:none"/>
    <path d="M171.22 75.192c-9.905-6.985-22.478-11.938-34.794-12.954-18.545-1.651-37.465 4.826-51.562 17.145l-6.35-8.636c-.765-1.016-1.527-1.782-2.794-1.782-1.905-.123-3.56 1.4-3.56 3.179l-1.904 42.795 40.386-14.224c1.778-.504 2.667-2.54 2.032-4.318-.381-1.27-1.27-1.774-2.667-2.282l-10.03-3.556c9.776-7.62 22.603-11.176 34.922-10.164 9.27.89 18.669 4.576 25.911 10.033l10.41-15.236zM62.128 123.833c-1.016 12.065 1.143 25.273 6.477 36.449 8.131 17.018 23.24 30.095 41.02 35.937l-4.187 9.783c-.511 1.27-.762 2.282-.13 3.429.889 1.651 2.924 2.286 4.572 1.397l37.722-20.066-32.639-27.686c-1.4-1.143-3.56-1.016-4.826.504-.762 1.02-.762 2.036-.511 3.433l1.905 10.537c-11.427-4.699-21.079-13.839-26.413-25.146-4.067-8.382-5.464-18.411-4.575-27.178l-18.415-1.393zM159.029 193.298c10.925-5.076 21.34-13.712 28.32-23.872 10.672-15.498 14.355-35.179 10.415-53.34l10.671-1.274c1.267-.25 2.283-.504 3.045-1.65.889-1.521.384-3.684-1.143-4.7L174.015 85.86l-7.493 42.037c-.378 1.901.889 3.68 2.794 3.933 1.27.258 2.159-.377 3.305-1.266l8.125-6.731c1.65 12.065-1.394 25.019-8.51 35.306-5.203 7.62-13.08 13.97-21.335 17.653l8.128 16.506z" style="fill:#000;fill-opacity:1;fill-rule:evenodd;stroke:none"/>
</svg>
