<svg xmlns="http://www.w3.org/2000/svg" width="90" height="90" viewBox="0 0 253.999 254.001">
    <path d="M250.377 118.218 135.781 3.622c-4.83-4.83-12.732-4.83-17.562 0L3.62 118.218c-4.825 4.83-4.825 12.732 0 17.562l114.6 114.596c4.83 4.833 12.732 4.833 17.562 0L250.377 135.78c4.83-4.83 4.83-12.732 0-17.562" style="fill:#fcd116;fill-opacity:1;fill-rule:nonzero;stroke:none"/>
    <path d="M247.047 119.293 134.708 6.951c-4.244-4.236-11.176-4.236-15.416 0L6.953 119.293c-4.24 4.24-4.24 11.176 0 15.413l112.339 112.342c4.24 4.237 11.172 4.237 15.416 0l112.339-112.342c4.237-4.237 4.237-11.172 0-15.413" style="fill:#000;fill-opacity:1;fill-rule:evenodd;stroke:none"/>
    <path d="M242.658 122.248 131.752 11.34c-2.614-2.614-6.89-2.614-9.507 0L11.342 122.248c-2.614 2.614-2.614 6.893 0 9.507l110.903 110.906c2.617 2.61 6.893 2.61 9.507 0l110.906-110.906c2.614-2.614 2.614-6.893 0-9.507" style="fill:#fcd116;fill-opacity:1;fill-rule:evenodd;stroke:none"/>
    <path d="M110.418 216.486h31.362l-.022-180.721H110.39l.029 180.72z" style="fill:#000;fill-opacity:1;fill-rule:evenodd;stroke:none"/>
    <path d="M185.291 160.076v-31.372l-59.235.024v31.37l59.235-.022zM66.878 92.174v31.365l59.235-.024V92.149l-59.235.025z" style="fill:#000;fill-opacity:1;fill-rule:evenodd;stroke:none"/>
</svg>
