<svg xmlns="http://www.w3.org/2000/svg" width="90" height="90" viewBox="0 0 253.999 254.001">
    <path d="M3.622 118.218 118.22 3.622c4.829-4.83 12.731-4.83 17.56 0l114.6 114.596c4.827 4.83 4.827 12.732 0 17.562l-114.6 114.596c-4.829 4.833-12.731 4.833-17.56 0L3.621 135.78c-4.83-4.83-4.83-12.732 0-17.562" style="fill:#fcd116;fill-opacity:1;fill-rule:nonzero;stroke:none"/>
    <path d="M6.952 119.293 119.291 6.951c4.244-4.236 11.176-4.236 15.416 0l112.339 112.342c4.24 4.24 4.24 11.176 0 15.413L134.707 247.048c-4.24 4.237-11.172 4.237-15.416 0L6.952 134.706c-4.236-4.237-4.236-11.172 0-15.413" style="fill:#000;fill-opacity:1;fill-rule:evenodd;stroke:none"/>
    <path d="M11.34 122.248 122.248 11.34c2.614-2.614 6.89-2.614 9.508 0l110.902 110.907c2.614 2.614 2.614 6.893 0 9.507L131.755 242.661c-2.618 2.61-6.894 2.61-9.508 0L11.341 131.755c-2.614-2.614-2.614-6.893 0-9.507" style="fill:#fcd116;fill-opacity:1;fill-rule:evenodd;stroke:none"/>
    <path d="M142.618 37.243h-31.157l.028 179.493h31.157l-.028-179.493z" style="fill:#000;fill-opacity:1;fill-rule:evenodd;stroke:none"/>
    <path d="M185.86 74.242V105.4l-58.835-.028V74.214l58.836.028zM185.86 179.737v-31.158l-58.835.029v31.153l58.836-.024z" style="fill:#000;fill-opacity:1;fill-rule:evenodd;stroke:none"/>
</svg>
