<svg xmlns="http://www.w3.org/2000/svg" width="108.958" height="108.944" viewBox="0 -0.321 108.958 108.944" xml:space="preserve">
    <path d="M51.56 107.432 1.207 57.08a4.137 4.137 0 0 1 0-5.84L51.557.887A4.139 4.139 0 0 1 57.4.885l50.352 50.356a4.135 4.135 0 0 1 0 5.839L57.4 107.432c-1.588 1.587-4.25 1.59-5.84 0" style="fill:#dd7500;fill-opacity:1;fill-rule:nonzero;stroke:none"/>
    <path d="M52.362 106.612 2.027 56.278c-1.158-1.16-1.155-3.078 0-4.238L52.359 1.707c1.16-1.159 3.076-1.156 4.24 0l50.33 50.335a3.016 3.016 0 0 1 0 4.236L56.6 106.612c-1.161 1.153-3.079 1.156-4.237 0" style="fill:#000;fill-opacity:1;fill-rule:evenodd;stroke:none"/>
    <path d="M53.482 105.462 3.177 55.157a1.403 1.403 0 0 1 0-1.996L53.482 2.857a1.401 1.401 0 0 1 1.995 0l50.305 50.304c.556.54.556 1.459-.002 1.999l-50.3 50.302a1.404 1.404 0 0 1-1.998 0" style="fill:#dd7500;fill-opacity:1;fill-rule:evenodd;stroke:none"/>
    <path d="M71.173 33.266c0 1.47-.35 2.671-1.009 3.327-.307.31-.656.428-1.237.428h-1.742v-7.51h1.975c.462 0 .85.195 1.122.464.54.583.89 1.82.89 3.29m1.777 0c0-2.164-.654-3.908-1.816-4.914-.58-.464-1.005-.58-2.129-.58h-3.559V38.8h3.984c.581-.04 1.163-.233 1.588-.618 1.24-.97 1.932-2.71 1.932-4.917m-12.731.656h-2.205l1.121-3.092 1.084 3.092zm3.56 4.879-3.793-11.03h-1.742L54.454 38.8h1.855l1.084-3.096h3.447l1.08 3.096h1.858zM51.28 33.305c0 .852-.193 1.936-.427 2.515-.389.966-.891 1.393-1.703 1.393-.697 0-1.16-.27-1.508-.85-.43-.697-.66-1.898-.66-3.058 0-.928.155-1.934.428-2.593.385-.966.928-1.394 1.778-1.355.659.039 1.084.271 1.432.853.425.735.66 1.857.66 3.095m1.74 0c0-1.394-.27-2.788-.735-3.755-.697-1.355-1.665-1.973-3.058-1.973-1.278 0-2.165.389-2.825 1.239-.735 1.044-1.2 2.67-1.2 4.489 0 1.316.308 2.786.775 3.716.657 1.355 1.626 1.98 3.173 1.98 1.16 0 2.052-.394 2.67-1.245.775-.97 1.2-2.708 1.2-4.451m-11.378-2.44c0 .465-.27.93-.7 1.163-.268.154-.46.193-1.003.193h-2.09v-2.71h2.09c.579 0 .735.039 1.004.195.43.232.699.696.699 1.16m1.975 7.935-1.937-5.149c1.007-.465 1.704-1.624 1.704-2.786 0-1.12-.697-2.283-1.665-2.746-.541-.272-1.12-.35-1.972-.35h-3.64V38.8h1.742V34h2.09l1.78 4.8h1.898zM79.25 52.026c0 1.472-.348 2.67-1.005 3.327-.31.31-.66.428-1.24.428h-1.74v-7.51h1.972c.466 0 .852.195 1.123.466.542.579.89 1.819.89 3.289m1.78 0c0-2.168-.658-3.91-1.818-4.915-.582-.467-1.005-.58-2.132-.58h-3.558v11.027h3.988c.58-.037 1.16-.23 1.585-.617 1.238-.968 1.935-2.708 1.935-4.915m-9.328 5.532v-1.777h-5.11v-3.02h3.216v-1.78h-3.215v-2.71h4.76v-1.74h-6.499v11.027h6.848zm-8.67-3.171c0-4.336-5.185-2.981-5.34-5.033-.074-1.005.892-1.315 1.703-1.276 1.24.039 1.627.966 1.627.966l1.55-.463c-.543-1.355-1.59-2.244-3.135-2.244-1.975 0-3.445.814-3.445 2.979 0 1.818 1.47 2.478 2.126 2.748 1.434.58 3.137.814 3.137 2.283 0 .931-.698 1.626-1.703 1.626-1.045 0-1.898-.581-2.364-1.626l-1.663.621c.735 1.663 2.13 2.793 4.027 2.793.927 0 1.78-.315 2.397-.858.698-.622 1.084-1.511 1.084-2.516m-10.874-2.323c0 .85-.194 1.934-.425 2.515-.386.967-.891 1.394-1.704 1.394-.696 0-1.162-.271-1.508-.851-.425-.696-.658-1.895-.658-3.058 0-.93.154-1.936.425-2.592.386-.969.928-1.394 1.78-1.355.656.039 1.084.271 1.43.85.428.737.66 1.86.66 3.097m1.743 0c0-1.393-.274-2.785-.735-3.755-.698-1.352-1.668-1.972-3.06-1.972-1.275 0-2.167.386-2.824 1.237-.735 1.045-1.201 2.672-1.201 4.49 0 1.317.31 2.79.773 3.717.66 1.352 1.627 1.98 3.175 1.98 1.162 0 2.053-.397 2.67-1.245.774-.97 1.202-2.71 1.202-4.452m-9.212 5.494v-1.624h-5.11v-9.403h-1.742v11.027h6.852zm-9.25-2.244-1.665-.617c-.425.891-.967 1.276-1.702 1.276-.774 0-1.276-.271-1.665-.851-.425-.696-.695-1.895-.695-3.096 0-.928.154-1.898.426-2.554.386-.969.968-1.355 1.859-1.355.849 0 1.196.232 1.816 1.162l1.626-.698c-.737-1.548-1.78-2.244-3.442-2.244-1.24 0-2.169.425-2.828 1.237-.773.968-1.24 2.71-1.24 4.452 0 1.393.31 2.786.815 3.755.697 1.352 1.739 1.98 3.365 1.98 1.589 0 2.673-.82 3.33-2.447" style="fill:#000;fill-opacity:1;fill-rule:evenodd;stroke:none"/>
    <path d="M31.624 76.57v-9.127h-.701v-1.209c.625-.041 1.016-.312 1.25-.781h1.05v11.116h-1.599zM40.128 68.222c-.274-.974-.704-1.404-1.368-1.404-.699 0-1.13.43-1.401 1.365-.274.86-.351 1.6-.351 2.85 0 1.208.116 1.908.35 2.807.272.935.703 1.362 1.402 1.362.664 0 1.094-.427 1.368-1.362.27-.9.35-1.56.35-2.85 0-1.247-.117-1.948-.35-2.768m1.247 6.631c-.545 1.325-1.365 1.91-2.615 1.91-1.324 0-2.105-.585-2.651-1.91-.469-1.093-.623-2.143-.623-3.862 0-1.678.154-2.808.623-3.86.586-1.326 1.367-1.873 2.651-1.873 1.286 0 2.07.547 2.615 1.912.469 1.09.623 2.143.623 3.82 0 1.72-.154 2.81-.623 3.863M48.668 68.222c-.274-.974-.702-1.404-1.368-1.404-.699 0-1.13.43-1.401 1.365-.274.86-.351 1.6-.351 2.85 0 1.208.116 1.908.35 2.807.272.935.703 1.362 1.402 1.362.666 0 1.094-.427 1.368-1.362.272-.9.35-1.56.35-2.85 0-1.247-.117-1.948-.35-2.768m1.247 6.631c-.545 1.325-1.365 1.91-2.615 1.91-1.324 0-2.102-.585-2.651-1.91-.469-1.093-.623-2.143-.623-3.862 0-1.678.154-2.808.623-3.86.586-1.326 1.367-1.873 2.651-1.873 1.289 0 2.07.547 2.615 1.912.469 1.09.623 2.143.623 3.82 0 1.72-.154 2.81-.623 3.863M57.21 68.222c-.276-.974-.703-1.404-1.365-1.404-.703 0-1.132.43-1.406 1.365-.274.86-.349 1.6-.349 2.85 0 1.208.117 1.908.35 2.807.273.935.702 1.362 1.405 1.362.662 0 1.09-.427 1.365-1.362.27-.9.35-1.56.35-2.85 0-1.247-.118-1.948-.35-2.768m1.248 6.631c-.548 1.325-1.365 1.91-2.613 1.91-1.328 0-2.107-.585-2.656-1.91-.464-1.093-.622-2.143-.622-3.862 0-1.678.158-2.808.622-3.86.586-1.326 1.368-1.873 2.656-1.873 1.284 0 2.065.547 2.613 1.912.466 1.09.625 2.143.625 3.82 0 1.72-.159 2.81-.625 3.863M68.438 67.014v2.807h2.224v1.521h-2.224v5.227h-1.596V65.454h5.653v1.56h-4.057zM76.824 66.935v9.634h-1.596v-9.634h-2.031v-1.482h5.656v1.482h-2.029z" style="fill:#000;fill-opacity:1;fill-rule:nonzero;stroke:none"/>
</svg>
