<?xml version="1.0" encoding="UTF-8" standalone="no"?>
<!-- Created with Inkscape (http://www.inkscape.org/) -->

<svg
   xmlns:dc="http://purl.org/dc/elements/1.1/"
   xmlns:cc="http://creativecommons.org/ns#"
   xmlns:rdf="http://www.w3.org/1999/02/22-rdf-syntax-ns#"
   xmlns:svg="http://www.w3.org/2000/svg"
   xmlns="http://www.w3.org/2000/svg"
   xmlns:sodipodi="http://sodipodi.sourceforge.net/DTD/sodipodi-0.dtd"
   xmlns:inkscape="http://www.inkscape.org/namespaces/inkscape"
   width="681.62006"
   height="681.62006"
   id="svg2"
   version="1.1"
   inkscape:version="0.48.4 r9939"
   sodipodi:docname="11.svg">
  <defs
     id="defs4" />
  <sodipodi:namedview
     id="base"
     pagecolor="#ffffff"
     bordercolor="#666666"
     borderopacity="1.0"
     inkscape:pageopacity="0.0"
     inkscape:pageshadow="2"
     inkscape:zoom="0.7"
     inkscape:cx="320.13127"
     inkscape:cy="346.61313"
     inkscape:document-units="px"
     inkscape:current-layer="layer1"
     showgrid="false"
     fit-margin-top="0.2"
     fit-margin-left="0.2"
     fit-margin-bottom="0.2"
     fit-margin-right="0.2"
     inkscape:window-width="1280"
     inkscape:window-height="1001"
     inkscape:window-x="-8"
     inkscape:window-y="-8"
     inkscape:window-maximized="1" />
  <metadata
     id="metadata7">
    <rdf:RDF>
      <cc:Work
         rdf:about="">
        <dc:format>image/svg+xml</dc:format>
        <dc:type
           rdf:resource="http://purl.org/dc/dcmitype/StillImage" />
        <dc:title></dc:title>
      </cc:Work>
    </rdf:RDF>
  </metadata>
  <g
     inkscape:label="Layer 1"
     inkscape:groupmode="layer"
     id="layer1"
     transform="translate(89.359446,-81.801905)">
    <path
       inkscape:connector-curvature="0"
       style="fill:#ffd033;fill-opacity:1;fill-rule:nonzero;stroke:none"
       d="m 582.90746,444.70907 c 12.20418,-12.20417 12.20416,-31.99003 10e-6,-44.19419 L 273.54755,91.154954 c -12.20396,-12.20396 -31.99001,-12.20417 -44.19418,0 L -80.00651,400.51482 c -12.20388,12.20388 -12.20395,31.99021 0,44.19418 l 309.35994,309.35991 c 12.20416,12.20419 31.99028,12.2039 44.19418,2e-5 z"
       id="path11-1"
       sodipodi:nodetypes="sssssssss" />
    <path
       inkscape:connector-curvature="0"
       style="fill:#000000;fill-rule:nonzero;stroke:none"
       d="m 235.24596,748.17639 c 8.93529,8.93529 23.47368,8.93544 32.4091,2e-5 l 309.35987,-309.3599 c 8.93528,-8.93528 8.93528,-23.47381 0,-32.40909 L 267.65501,97.047504 c -8.93543,-8.93543 -23.47383,-8.93529 -32.40911,-1e-5 L -74.11397,406.40736 c -8.93542,8.93542 -8.93542,23.47369 0,32.40911 z"
       id="path13-7"
       sodipodi:nodetypes="sssssssss" />
    <path
       inkscape:connector-curvature="0"
       style="fill:#ffd033;fill-opacity:1;fill-rule:nonzero;stroke:none"
       d="m 244.08479,739.3399 c 4.06148,4.06148 10.67045,4.06098 14.73143,0 L 568.17844,429.97768 c 4.06147,-4.06147 4.06148,-10.66996 0,-14.73144 L 258.81618,105.88399 c -4.06092,-4.06092 -10.66996,-4.06148 -14.73144,0 L -65.27747,415.2462 c -4.06099,4.06098 -4.06092,10.67052 0,14.73144 z"
       id="path15-4"
       sodipodi:nodetypes="sssssssss" />
    <path
       inkscape:connector-curvature="0"
       d="m 119.45055,459.53404 77.3389,-77.312 109.21094,0 77.45016,77.312 0,109.3793 -77.45016,77.3086 -109.21094,0 -77.3389,-77.3086 0,-109.3793 z"
       style="fill:#ffffff;fill-opacity:1;fill-rule:evenodd;stroke:none"
       id="path3326" />
    <path
       id="path3902"
       style="fill:#c4122e;fill-opacity:1;fill-rule:evenodd;stroke:none"
       d="m 126.45055,462.43414 73.23759,-73.2121 103.41946,0 73.34295,73.2121 0,103.5789 -73.34295,73.2089 -103.41946,0 -73.23759,-73.2089 0,-103.5789 z"
       inkscape:connector-curvature="0" />
    <path
       style="fill:#000000;fill-opacity:1;fill-rule:evenodd;stroke:none"
       d="m 221.61784,189.3359 c -1.58265,0.0165 -3.07214,0.12087 -4.53266,0.50363 -4.86002,1.27928 -8.13864,6.81912 -4.78447,11.33164 1.55621,2.09002 3.65131,3.97367 5.41401,5.91764 4.00385,4.42687 8.08324,8.92428 12.08708,13.34616 -18.45295,8.38035 -36.3922,21.17758 -47.34109,38.52759 -10.88853,17.2795 -12.63096,36.02461 -12.59071,55.90278 0.0161,12.55244 -0.19017,36.71519 0,42.55662 l 38.7794,0 c 10e-4,-5.37133 0,-10.744 0,-16.11611 0.012,-12.06686 -0.004,-24.06334 0.12571,-36.13536 0.0955,-9.52374 2.12531,-18.49311 7.30261,-26.56641 8.03287,-12.54028 22.6633,-20.79482 35.37991,-27.44776 l 0,0.1257 c 1.72242,5.71115 3.44483,11.41739 5.1622,17.12338 0.67487,2.24119 1.07776,4.75421 2.26632,6.79898 2.57859,4.43701 8.87395,5.13203 12.46482,1.38498 1.98429,-2.06986 3.04192,-5.02629 4.28084,-7.55443 2.54836,-5.16723 5.137,-10.31934 7.68033,-15.48658 10.53089,-21.35888 20.95096,-42.72787 31.47679,-64.08675 -23.8317,0 -47.67851,0.0141 -71.51526,0 l -16.99747,0 c -1.49578,0 -3.07592,-0.14225 -4.65856,-0.12591 z"
       id="path3147"
       inkscape:connector-curvature="0"
       sodipodi:nodetypes="sccccccccccccccccccccss" />
  </g>
</svg>
