<?xml version="1.0" encoding="UTF-8" standalone="no"?>
<!-- Created with Inkscape (http://www.inkscape.org/) -->

<svg
   xmlns:dc="http://purl.org/dc/elements/1.1/"
   xmlns:cc="http://creativecommons.org/ns#"
   xmlns:rdf="http://www.w3.org/1999/02/22-rdf-syntax-ns#"
   xmlns:svg="http://www.w3.org/2000/svg"
   xmlns="http://www.w3.org/2000/svg"
   xmlns:sodipodi="http://sodipodi.sourceforge.net/DTD/sodipodi-0.dtd"
   xmlns:inkscape="http://www.inkscape.org/namespaces/inkscape"
   width="681.62006"
   height="681.62006"
   id="svg2"
   version="1.1"
   inkscape:version="0.48.4 r9939"
   sodipodi:docname="Ajax.svg">
  <defs
     id="defs4" />
  <sodipodi:namedview
     id="base"
     pagecolor="#ffffff"
     bordercolor="#666666"
     borderopacity="1.0"
     inkscape:pageopacity="0.0"
     inkscape:pageshadow="2"
     inkscape:zoom="0.7"
     inkscape:cx="333.26054"
     inkscape:cy="315.90376"
     inkscape:document-units="px"
     inkscape:current-layer="layer1"
     showgrid="false"
     fit-margin-top="0.2"
     fit-margin-left="0.2"
     fit-margin-bottom="0.2"
     fit-margin-right="0.2"
     inkscape:window-width="1280"
     inkscape:window-height="1001"
     inkscape:window-x="-8"
     inkscape:window-y="-8"
     inkscape:window-maximized="1" />
  <metadata
     id="metadata7">
    <rdf:RDF>
      <cc:Work
         rdf:about="">
        <dc:format>image/svg+xml</dc:format>
        <dc:type
           rdf:resource="http://purl.org/dc/dcmitype/StillImage" />
        <dc:title></dc:title>
      </cc:Work>
    </rdf:RDF>
  </metadata>
  <g
     inkscape:label="Layer 1"
     inkscape:groupmode="layer"
     id="layer1"
     transform="translate(89.359446,-81.801905)">
    <path
       inkscape:connector-curvature="0"
       style="fill:#ffd033;fill-opacity:1;fill-rule:nonzero;stroke:none"
       d="m 582.90746,444.70907 c 12.20418,-12.20417 12.20416,-31.99003 10e-6,-44.19419 L 273.54755,91.154954 c -12.20396,-12.20396 -31.99001,-12.20417 -44.19418,0 L -80.00651,400.51482 c -12.20388,12.20388 -12.20395,31.99021 0,44.19418 l 309.35994,309.35991 c 12.20416,12.20419 31.99028,12.2039 44.19418,2e-5 z"
       id="path11-1"
       sodipodi:nodetypes="sssssssss" />
    <path
       inkscape:connector-curvature="0"
       style="fill:#000000;fill-rule:nonzero;stroke:none"
       d="m 235.24596,748.17639 c 8.93529,8.93529 23.47368,8.93544 32.4091,2e-5 l 309.35987,-309.3599 c 8.93528,-8.93528 8.93528,-23.47381 0,-32.40909 L 267.65501,97.047504 c -8.93543,-8.93543 -23.47383,-8.93529 -32.40911,-1e-5 L -74.11397,406.40736 c -8.93542,8.93542 -8.93542,23.47369 0,32.40911 z"
       id="path13-7"
       sodipodi:nodetypes="sssssssss" />
    <path
       inkscape:connector-curvature="0"
       style="fill:#ffd033;fill-opacity:1;fill-rule:nonzero;stroke:none"
       d="m 244.08479,739.3399 c 4.06148,4.06148 10.67045,4.06098 14.73143,0 L 568.17844,429.97768 c 4.06147,-4.06147 4.06148,-10.66996 0,-14.73144 L 258.81618,105.88399 c -4.06092,-4.06092 -10.66996,-4.06148 -14.73144,0 L -65.27747,415.2462 c -4.06099,4.06098 -4.06092,10.67052 0,14.73144 z"
       id="path15-4"
       sodipodi:nodetypes="sssssssss" />
    <path
       inkscape:connector-curvature="0"
       style="fill:#000000;fill-rule:nonzero;stroke:none"
       d="m 288.70435,283.37454 c -2.3906,-8.47349 -6.1456,-12.20369 -11.9512,-12.20369 -6.1462,0 -9.9026,3.7302 -12.2924,11.86378 -2.3904,7.45818 -3.0728,13.89881 -3.0728,24.7473 0,10.50851 1.0242,16.60924 3.0728,24.40734 2.3898,8.13356 6.1462,11.86377 12.2924,11.86377 5.8056,0 9.5606,-3.73021 11.9512,-11.86377 2.3904,-7.7981 3.0728,-13.56113 3.0728,-24.7473 0,-10.84622 -1.0244,-16.94916 -3.0728,-24.06743 z m 10.9266,57.62813 c -4.7812,11.52386 -11.951,16.60927 -22.8778,16.60927 -11.6096,0 -18.4388,-5.08541 -23.219,-16.60927 -4.098,-9.49324 -5.4634,-18.64432 -5.4634,-33.5607 0,-14.57643 1.3654,-24.40734 5.4634,-33.55844 5.1216,-11.52608 11.9512,-16.27159 23.219,-16.27159 11.2692,0 18.0966,4.74551 22.8778,16.60929 4.097,9.49322 5.4636,18.64431 5.4636,33.22074 0,14.91638 -1.3666,24.40738 -5.4636,33.5607 z"
       id="path21" />
    <path
       inkscape:connector-curvature="0"
       style="fill:#000000;fill-rule:nonzero;stroke:none"
       d="m 352.49283,272.86601 -14.2074,0 0,27.45773 14.2074,0 c 8.1202,0 12.5166,-5.08543 12.5166,-13.89883 0,-8.13578 -5.074,-13.5589 -12.5166,-13.5589 z m 0.6776,40.67894 -14.885,0 0,42.37186 -13.8698,0 0,-96.60974 28.7548,0 c 15.2204,0 25.369,10.84626 25.369,27.11784 0,17.6268 -9.1332,27.12004 -25.369,27.12004 z"
       id="path23"
       sodipodi:nodetypes="sccssssccccsss" />
    <path
       inkscape:connector-curvature="0"
       style="fill:#000000;fill-rule:nonzero;stroke:none"
       d="m 151.87095,311.30191 c -4.1798,-2.7082 -8.2384,-5.42537 -10.8292,-7.2502 -7.7888,-5.48127 -11.9144,-12.8813 -11.9144,-21.35478 0,-13.89882 10.8934,-25.08499 24.8504,-25.08499 13.6162,0 24.169,10.50853 24.5094,25.08499 l -13.2762,0 c -0.34,-6.78058 -5.106,-11.18616 -11.2332,-11.18616 -6.4682,0 -11.5744,4.7455 -11.5744,11.18616 0,4.7455 2.0426,7.45818 9.1912,11.52608 18.7224,10.84622 26.8926,21.35476 26.8926,35.2536 0,15.59396 -11.9144,28.13533 -26.8926,28.13533 -17.0208,0 -27.233,-14.2365 -27.233,-30.1704 l 13.6164,0 c 0,8.13579 4.0852,16.6115 13.6166,16.6115 7.4894,0 13.6164,-6.78059 13.6164,-14.57643 0,-6.05377 -2.5014,-11.1526 -13.34,-18.1747 z"
       id="path25" />
    <path
       inkscape:connector-curvature="0"
       style="fill:#000000;fill-rule:nonzero;stroke:none"
       d="m 218.79875,272.18837 0,83.72844 -13.9384,0 0,-83.72844 -17.6782,0 0,-12.8813 49.295,0 0,12.8813 -17.6784,0 z"
       id="path27" />
    <path
       inkscape:connector-curvature="0"
       style="font-size:186.31217957px;font-style:normal;font-variant:normal;font-weight:normal;font-stretch:normal;text-align:center;line-height:125%;writing-mode:lr-tb;text-anchor:middle;fill:#000000;stroke:none;font-family:Roadgeek 2005 Series D"
       d="m 209.72236,439.88977 c -4e-5,2.65073 -0.48904,5.10005 -1.46698,7.34796 -0.97802,2.24792 -2.3862,4.20738 -4.2246,5.87837 -1.61039,1.44056 -3.49308,2.55001 -5.64814,3.32834 -2.15504,0.77833 -4.46843,1.16749 -6.94008,1.1675 -5.00126,-1e-5 -9.2697,-1.33988 -12.80529,-4.01961 -3.53564,-2.67974 -6.28056,-6.2385 -8.23472,-10.67632 l 8.70967,-3.20038 c 1.20686,2.76681 2.87379,4.88503 5.0008,6.3546 2.12697,1.4696 4.57016,2.2044 7.32954,2.20438 2.70145,2e-5 4.87142,-0.82142 6.50991,-2.46426 1.63838,-1.64283 2.45761,-3.67442 2.45765,-6.09472 -4e-5,-1.90139 -0.50308,-3.45718 -1.5091,-4.66734 -1.00607,-1.21013 -2.31381,-2.23339 -3.92328,-3.06979 -1.60952,-0.83635 -3.37734,-1.57158 -5.30341,-2.20571 -1.92617,-0.63406 -3.83737,-1.32577 -5.73365,-2.0751 -0.8631,-0.34474 -1.92659,-0.83416 -3.1905,-1.46828 -1.2639,-0.63406 -2.48526,-1.5131 -3.66408,-2.63708 -1.17883,-1.12392 -2.1849,-2.52185 -3.01816,-4.19376 -0.83321,-1.67182 -1.24987,-3.7179 -1.24987,-6.13824 0,-2.82306 0.45962,-5.22883 1.37885,-7.21736 0.91917,-1.98843 2.16949,-3.60226 3.75093,-4.84148 1.58139,-1.23911 3.47859,-2.14716 5.69151,-2.72415 2.21293,-0.57688 4.61229,-0.86534 7.19798,-0.8654 4.08205,6e-5 7.48831,1.06641 10.21876,3.19906 2.73038,2.13277 4.81397,5.01435 6.25068,8.64474 l -8.10445,2.42207 c -0.45965,-0.92165 -1.06312,-1.75714 -1.81037,-2.5065 -0.6333,-0.63492 -1.51038,-1.21185 -2.63129,-1.73079 -1.12099,-0.51884 -2.48578,-0.80642 -4.09433,-0.86276 -1.03502,-0.0579 -2.11297,0.0136 -3.2339,0.21503 -1.12095,0.20145 -2.11251,0.5616 -2.97474,1.08043 -0.86217,0.51893 -1.55201,1.22514 -2.06949,2.11865 -0.51753,0.89358 -0.71838,2.00346 -0.60257,3.32965 0.11399,1.78537 0.88979,3.15383 2.32738,4.10537 1.43755,0.95162 3.1909,1.77305 5.26,2.46426 2.06908,0.69131 4.29651,1.39709 6.68224,2.11734 2.38568,0.7203 4.58415,1.75764 6.5954,3.11199 2.01115,1.35441 3.69259,3.17007 5.04423,5.447 1.35159,2.27695 2.02743,5.31772 2.02747,9.12229 z m 9.6964,16.68528 0,-57.92622 9.3122,0 0,57.92622 z m 61.18339,-17.29212 c -4e-5,2.65248 -0.46007,5.08818 -1.38013,7.30707 -0.9201,2.21889 -2.18489,4.14977 -3.79436,5.79261 -1.60951,1.64286 -3.53522,2.92512 -5.77706,3.8468 -2.24189,0.92169 -4.68466,1.38252 -7.3282,1.38253 -4.36801,-1e-5 -7.90278,-0.85001 -10.60422,-2.55003 -2.7015,-1.7 -4.91532,-4.36523 -6.64142,-7.99568 -1.20696,-2.59443 -2.1406,-5.57758 -2.80104,-8.94947 -0.66051,-3.37187 -0.99073,-6.84489 -0.99073,-10.41907 0,-2.30417 0.15789,-4.59475 0.47365,-6.87173 0.31577,-2.27691 0.74684,-4.43819 1.29329,-6.48389 0.54645,-2.04559 1.22178,-3.94745 2.02612,-5.70555 0.80429,-1.75801 1.69498,-3.27113 2.67212,-4.53938 1.72436,-2.13354 3.80835,-3.74779 6.25202,-4.84279 2.44357,-1.09488 5.30294,-1.64235 8.57805,-1.64241 4.42762,6e-5 8.04964,0.99429 10.86606,2.98272 2.81633,1.98853 5.20161,5.25971 7.15585,9.81355 l -8.70967,3.45896 c -1.20691,-2.53635 -2.51423,-4.32342 -3.92198,-5.36124 -1.40779,-1.03774 -3.20454,-1.55662 -5.39026,-1.55667 -2.35592,5e-5 -4.32413,0.54753 -5.90463,1.64241 -1.58061,1.09499 -2.85939,2.93967 -3.8365,5.53405 -0.74729,1.72908 -1.30778,3.81826 -1.68139,6.26754 -0.37368,2.44936 -0.56049,4.88416 -0.56049,7.30443 0,3.11334 0.24426,6.08198 0.73283,8.90594 0.48854,2.82399 1.19241,5.15854 2.11162,7.00364 1.78229,3.11158 4.42674,4.66736 7.93342,4.66734 2.93126,2e-5 5.34506,-0.83547 7.2414,-2.50647 1.89627,-1.67099 2.84441,-3.83273 2.84445,-6.48521 l 0,-2.41943 -10.51738,0 0,-9.16581 19.65858,0 z m 43.78965,17.29212 -22.07153,-39.25158 0,39.25158 -9.14119,0 0,-57.92622 9.14119,0 21.03737,37.00365 0,-37.00365 9.14124,0 0,57.92622 z"
       id="text1884"
       sodipodi:nodetypes="cccssscccsccccccccssscccccccccccscccccccccccccccssssccsscscccccccccccsccsscccccccccccccccc" />
    <path
       inkscape:connector-curvature="0"
       style="font-size:186.97798157px;font-style:normal;font-variant:normal;font-weight:normal;font-stretch:normal;text-align:center;line-height:125%;writing-mode:lr-tb;text-anchor:middle;fill:#000000;stroke:none;font-family:Roadgeek 2005 Series D"
       d="m 148.06972,557.61194 -6.9271,-19.64017 -21.931,0 -6.92709,19.64017 -11.85898,0 24.24318,-70 11.01672,0 24.24324,70 -11.85897,0 z m -17.73568,-50.56707 -7.24094,19.64336 14.06235,0 -6.82141,-19.64336 z m 76.96016,50.56707 0,-30.50604 -25.60426,0 0,30.50604 -11.12566,0 0,-70 11.12566,0 0,28.21043 25.60426,0 0,-28.21043 11.1256,0 0,70 -11.1256,0 z m 27.83322,0 0,-70 41.45369,0 0,11.07629 -30.32803,0 0,17.13414 20.46417,0 0,11.28353 -20.46417,0 0,19.2225 32.53136,0 0,11.28354 -43.65702,0 z m 96.99846,0 -6.92709,-19.64017 -21.93093,0 -6.92711,19.64017 -11.85902,0 24.24323,-70 11.01673,0 24.24323,70 -11.85904,0 z m -17.73562,-50.56707 -7.24092,19.64336 14.06229,0 -6.82137,-19.64336 z m 88.08578,15.46345 c -6e-5,7.03563 -1.06702,13.21728 -3.20091,18.54498 -2.13406,5.32773 -5.19514,9.52412 -9.18329,12.58916 -1.33017,1.25409 -2.88715,2.19411 -4.67092,2.82009 -1.78383,0.62598 -3.58531,1.00911 -5.4043,1.14939 l -3.98714,0 -21.40896,0 0,-70 22.66755,0 c 1.75069,7e-5 3.27299,0.0528 4.56681,0.15782 1.29384,0.10529 2.46542,0.29712 3.5148,0.5755 1.04934,0.27851 1.99356,0.66164 2.83266,1.1494 0.83899,0.48787 1.74854,1.07931 2.72855,1.7743 3.70849,3.20542 6.55979,7.47194 8.55402,12.7996 1.99405,5.32775 2.99107,11.47434 2.99113,18.43976 l 0,0 z m -11.33375,0 c -6e-5,-4.7357 -0.50764,-8.94963 -1.52282,-12.64176 -1.01528,-3.69206 -2.39713,-6.4436 -4.14568,-8.25462 -0.90955,-0.83529 -1.95895,-1.53141 -3.1481,-2.08837 -1.18929,-0.55683 -2.51834,-0.83528 -3.98717,-0.83534 l -12.5924,0 0,47.64017 11.1224,0 c 1.81905,2e-5 3.34074,-0.20882 4.56524,-0.6265 1.2244,-0.41766 2.3266,-1.11431 3.30665,-2.08996 2.09866,-2.0894 3.69035,-4.96263 4.77497,-8.61968 1.08454,-3.65699 1.62685,-7.81831 1.62691,-12.48394 l 0,0 z"
       id="text1890" />
  </g>
</svg>
