<svg xmlns="http://www.w3.org/2000/svg" width="90" height="89.994" viewBox="0 0 254 253.982">
    <path d="m135.227 250.575 115.34-115.348a11.7 11.7 0 0 0 3.433-8.234c0-3.066-1.26-6.064-3.432-8.234L135.227 3.411A11.69 11.69 0 0 0 126.982 0a11.817 11.817 0 0 0-8.233 3.411L3.41 118.76C1.252 120.911 0 123.941 0 126.993c0 3.051 1.252 6.085 3.411 8.234L118.75 250.575c2.797 2.797 7.01 3.99 10.858 3.136 2.223-.505 3.87-1.729 5.62-3.136" style="fill:#fcd116;fill-opacity:1;fill-rule:nonzero;stroke:none"/>
    <path d="M121.058 248.268 5.72 132.928a8.447 8.447 0 0 1-2.46-5.935 8.43 8.43 0 0 1 2.46-5.926L121.058 5.705c1.556-1.549 3.736-2.43 5.93-2.43 2.194 0 4.37.881 5.927 2.43L248.28 121.067a8.482 8.482 0 0 1 2.434 5.926 8.5 8.5 0 0 1-2.434 5.934l-115.365 115.34a8.433 8.433 0 0 1-5.927 2.453 8.441 8.441 0 0 1-5.93-2.452" style="fill:#000;fill-opacity:1;fill-rule:evenodd;stroke:none"/>
    <path d="M124.283 245.05a3.878 3.878 0 0 0 2.705 1.122c.981 0 2.022-.413 2.72-1.122l115.345-115.347a3.923 3.923 0 0 0 1.11-2.71c0-.977-.412-2.018-1.11-2.72L129.708 8.93c-.712-.702-1.721-1.093-2.72-1.093-.998.01-1.993.391-2.705 1.093L8.924 124.273c-.698.702-1.115 1.743-1.115 2.72 0 .992.417 2.008 1.115 2.71L124.283 245.05z" style="fill:#fcd116;fill-opacity:1;fill-rule:evenodd;stroke:none"/>
    <path d="M145.989 81.895v-4.357h-11.335V67.29h6.435v-4.248h-6.435V55.2h10.135v-4.364h-14.601v31.059h15.8zm-25.28-8.827c0 2.727-1.64 4.47-4.142 4.47h-4.473v-9.701h4.473c2.286 0 4.142 2.29 4.142 5.231m-.544-14.167c0 2.836-1.312 4.579-3.383 4.579h-4.688V55.2h4.688c2.396 0 3.383 1.087 3.383 3.7m4.897 14.496c0-3.164-1.411-5.778-3.81-7.736 2.508-2.618 3.267-3.923 3.267-6.76 0-4.794-2.943-8.064-7.084-8.064h-9.804v31.059h9.151c4.58 0 8.28-3.814 8.28-8.499M207.312 116.26c0 2.398-.223 4.575-.434 6.54-.441 2.395-1.856 4.463-4.473 4.463h-3.708v-22.338h3.708c1.965 0 3.273.98 4.032 3.164.55 1.309.875 4.685.875 8.17m4.36-.222c0-2.392-.332-5.118-.765-7.404-.544-3.165-1.853-5.557-3.708-6.862-1.087-.875-2.396-1.2-5.006-1.2h-7.959v31.056h8.612c1.742 0 3.266-.438 4.353-1.422 3.055-2.399 4.473-6.971 4.473-14.168m-22.677 15.59v-4.364h-11.327v-10.238h6.43v-4.25h-6.43v-7.85h10.135v-4.353h-14.605v31.055h15.797zm-25.28-22.776c0 2.501-1.418 3.923-4.028 3.923h-4.583v-7.85h4.583c2.395 0 4.028 1.532 4.028 3.927m4.364 22.776-4.473-15.258c2.942-1.087 4.473-3.817 4.473-7.518 0-5.016-3.274-8.28-8.18-8.28h-9.261v31.056h4.466v-14.602h4.251l4.142 14.602h4.582zm-29.428-12.86h-4.467l2.177-8.935 2.29 8.936zm7.736 12.86-7.736-31.055h-4.364l-7.737 31.055h4.473l2.068-8.506h6.646l2.187 8.506h4.463zm-26.046-22.342c0 2.833-1.418 4.466-4.028 4.466h-4.583v-8.826h4.583c2.391 0 4.028 1.743 4.028 4.36m4.357 0c0-5.228-3.267-8.713-8.174-8.713h-9.26v31.055h4.466v-13.625h4.794c5.232 0 8.174-3.051 8.174-8.717m-22.67 22.342v-4.364H90.695v-10.238h6.435v-4.25h-6.435v-7.85h10.135v-4.353H86.228v31.055h15.8zm-25.28-22.776c0 2.501-1.418 3.923-4.032 3.923h-4.579v-7.85h4.58c2.398 0 4.032 1.532 4.032 3.927m4.36 22.776-4.47-15.258c2.942-1.087 4.47-3.817 4.47-7.518 0-5.016-3.27-8.28-8.177-8.28h-9.26v31.056h4.465v-14.602h4.251l4.138 14.602h4.583zm-26.05-22.342c0 2.833-1.414 4.466-4.031 4.466h-4.576v-8.826h4.576c2.398 0 4.032 1.743 4.032 4.36m4.36 0c0-5.228-3.274-8.713-8.174-8.713H41.98v31.055h4.473v-13.625h4.794c5.232 0 8.174-3.051 8.174-8.717M194.248 159.013c0 2.837-1.414 4.474-4.032 4.474h-4.583v-8.827h4.583c2.399 0 4.032 1.743 4.032 4.353m4.36 0c0-5.228-3.273-8.717-8.177-8.717h-9.26v31.055h4.462v-13.62h4.798c5.235 0 8.178-3.048 8.178-8.718m-27.905 6.76c0 3.594-.215 5.443-.98 7.951-.763 2.618-1.962 3.817-3.818 3.817-1.954 0-3.154-1.2-3.92-3.817-.652-2.508-.976-4.466-.976-7.842 0-3.493.211-5.56.977-7.959.765-2.61 1.965-3.813 3.92-3.813 1.855 0 3.054 1.203 3.816 3.926.656 2.286.98 4.251.98 7.737m4.252 0c0-4.685-.434-7.627-1.743-10.679-1.524-3.813-3.708-5.341-7.306-5.341-3.588 0-5.771 1.528-7.405 5.228-1.308 2.942-1.742 6.107-1.742 10.792 0 4.794.434 7.736 1.742 10.784 1.52 3.704 3.708 5.359 7.405 5.359 3.496 0 5.782-1.655 7.306-5.359 1.309-2.942 1.743-5.99 1.743-10.784m-21.904-11.335v-4.142H137.25v4.142h5.666v26.913h4.47v-26.913h5.665zm-18.637 18.418c0-4.473-2.614-7.849-8.608-11.334-2.286-1.31-2.942-2.177-2.942-3.708 0-2.067 1.633-3.591 3.7-3.591 1.965 0 3.493 1.414 3.606 3.591h4.244c-.106-4.685-3.49-8.061-7.85-8.061-4.466 0-7.951 3.598-7.951 8.061 0 2.73 1.309 5.126 3.817 6.869 6.318 4.243 4.575 3.048 5.231 3.7 1.853 1.422 2.509 2.73 2.509 4.473 0 2.502-1.965 4.685-4.364 4.685-3.052 0-4.36-2.727-4.36-5.34h-4.36c0 5.118 3.27 9.715 8.72 9.715 4.798 0 8.608-4.05 8.608-9.06m-41.741-7.083c0 3.594-.215 5.443-.98 7.951-.766 2.618-1.962 3.817-3.818 3.817-1.954 0-3.154-1.2-3.92-3.817-.655-2.508-.976-4.466-.976-7.842 0-3.493.211-5.56.977-7.959.765-2.61 1.965-3.813 3.92-3.813 1.855 0 3.05 1.203 3.816 3.926.656 2.286.981 4.251.981 7.737m4.251 0c0-4.685-.434-7.627-1.743-10.679-1.524-3.813-3.707-5.341-7.306-5.341-3.588 0-5.771 1.528-7.405 5.228-1.308 2.942-1.746 6.107-1.746 10.792 0 4.794.438 7.736 1.746 10.784 1.52 3.704 3.705 5.359 7.405 5.359 3.493 0 5.782-1.655 7.306-5.359 1.31-2.942 1.743-5.99 1.743-10.784M75.02 154.438v-4.142h-15.8v4.142h5.665v26.913h4.47v-26.913h5.665z" style="fill:#000;fill-opacity:1;fill-rule:evenodd;stroke:none"/>
</svg>
