<svg xmlns="http://www.w3.org/2000/svg" width="135" height="135.001" viewBox="0 0 381.001 381.002">
    <path d="M5.45 177.283 177.278 5.456c7.27-7.275 19.163-7.275 26.437 0l171.828 171.827c7.277 7.27 7.277 19.17 0 26.437L203.715 375.551c-7.274 7.268-19.166 7.268-26.437 0L5.45 203.721c-7.267-7.268-7.267-19.167 0-26.438" style="fill:#fcd116;fill-opacity:1;fill-rule:nonzero;stroke:none"/>
    <path d="M9.6 180.013 180.015 9.597c5.764-5.764 15.204-5.764 20.98 0l170.408 170.416c5.765 5.772 5.765 15.209 0 20.973l-170.409 170.42c-5.775 5.764-15.215 5.764-20.98 0L9.6 200.986c-5.768-5.764-5.768-15.201 0-20.973" style="fill:#000;fill-opacity:1;fill-rule:evenodd;stroke:none"/>
    <path d="M14.919 185.262 185.258 14.927c2.871-2.886 7.599-2.886 10.48 0l170.34 170.335c2.878 2.879 2.878 7.599 0 10.481l-170.34 170.335c-2.881 2.886-7.609 2.886-10.48 0L14.919 195.743c-2.882-2.882-2.882-7.602 0-10.481" style="fill:#fcd116;fill-opacity:1;fill-rule:evenodd;stroke:none"/>
    <path d="M327.752 210.886v-5.715h-14.86v-13.335h8.386v-5.524h-8.385v-10.287h13.338v-5.715h-19.053v40.576h20.574zm-29.337 0V170.31h-5.906v24.384l-11.052-24.384h-5.902v40.576h5.902v-27.05l12.576 27.05h4.382zm-36.573-20.193c0 4.572-.194 6.858-1.337 10.097-.952 3.429-2.473 5.143-4.953 5.143-2.476 0-4.19-1.714-5.14-5.143-.765-3.239-1.337-5.715-1.337-10.097 0-4.381.378-7.239 1.337-10.287.95-3.429 2.664-4.953 5.14-4.953 2.48 0 4 1.524 4.953 5.144.95 2.857 1.337 5.524 1.337 10.096m5.518 0c0-6.096-.565-10.096-2.28-14.097-1.908-4.953-4.769-6.858-9.528-6.858-4.762 0-7.62 1.905-9.715 6.858-1.718 3.81-2.29 8.001-2.29 14.097s.572 9.906 2.29 13.907c2.095 4.762 4.953 7.048 9.715 7.048 4.576 0 7.62-2.286 9.529-7.048 1.714-3.81 2.279-7.81 2.279-13.907m-29.902 20.193v-5.524h-16.386l16.386-31.433v-3.62H216.69v5.716h13.526l-15.24 28.575v6.286h22.482zm-54.102-20.193c0 3.239-.388 6.096-.571 8.573-.572 3.238-2.48 5.905-5.906 5.905h-4.77v-29.146h4.77c2.473 0 4.188 1.333 5.334 4.19.572 1.715 1.143 6.097 1.143 10.478m5.712 0c0-3.238-.572-6.667-1.143-9.715-.572-4.191-2.283-7.24-4.763-8.954-1.524-1.143-3.238-1.714-6.667-1.714h-10.29v40.576h11.246c2.279 0 4.187-.571 5.711-1.905 4.004-3.048 5.906-9.144 5.906-18.288m-29.718 20.193v-5.715h-14.863v-13.335h8.386v-5.524h-8.386v-10.287h13.339v-5.715h-19.244v40.576h20.768zm-27.623 0v-5.715h-14.855v-13.335h8.572v-5.524h-8.572v-10.287h13.331v-5.715h-19.05v40.576h20.574zM99.914 181.74c0 3.81-1.909 5.905-5.33 5.905h-6.1v-11.62h6.1c3.044 0 5.33 2.286 5.33 5.715m5.528 0c0-6.858-4.198-11.43-10.675-11.43H82.765v40.576h5.719V192.98h6.283c6.865 0 10.675-3.81 10.675-11.24M75.91 199.838c0-5.905-3.426-10.096-11.24-14.668-3.044-1.715-4.004-2.858-4.004-4.953 0-2.667 2.29-4.763 4.957-4.763 2.48 0 4.575 1.905 4.575 4.763h5.712c-.187-6.096-4.569-10.478-10.287-10.478-5.906 0-10.474 4.572-10.474 10.478 0 3.62 1.707 6.667 4.946 8.953 8.385 5.525 6.1 3.81 6.865 4.763 2.473 1.905 3.238 3.62 3.238 5.905 0 3.239-2.48 6.096-5.528 6.096-4.004 0-5.718-3.62-5.718-7.048H53.24c0 6.667 4.191 12.763 11.43 12.763 6.1 0 11.24-5.334 11.24-11.81M263.366 143.638v-40.767h-5.722v16.574h-11.236V102.87h-5.905v40.767h5.905V125.16h11.236v18.478h5.722zm-34.103-29.337c0 3.81-1.714 5.906-5.143 5.906h-6.093v-11.62h6.093c3.051 0 5.143 2.285 5.143 5.714m5.715 0c0-6.858-4.19-11.43-10.668-11.43h-12.188v40.767h5.905v-17.903h6.283c6.858 0 10.668-4.004 10.668-11.434m-31.62 29.337v-40.767h-5.905l-7.242 22.864-7.62-22.864h-5.906v40.767h5.906v-22.856l7.62 22.856 7.242-22.856v22.856h5.906zm-46.675-14.287c0-7.81-4.576-12.954-11.053-12.954-1.52 0-2.663 0-4.565.762l.378-8.573h13.72v-5.715h-19.054l-1.143 20.387 5.718.568c1.33-1.143 2.854-1.905 4.763-1.905 3.422 0 5.524 2.67 5.524 7.049 0 5.715-3.051 9.525-7.433 9.525-2.095 0-3.62-.572-5.711-1.905l-3.814 4.19c3.048 2.287 6.477 3.62 10.097 3.62 7.242 0 12.573-6.477 12.573-15.05m-36.957-.948h-9.716l9.716-15.43v15.43zm8.385 5.33v-5.33h-2.48v-25.53h-5.905l-16.764 26.67v4.19h16.764v9.906h5.905v-9.906h2.48zM255.552 258.13c0 3.048-.38 5.906-.571 8.573-.575 3.048-2.477 5.715-5.906 5.715h-4.762V243.27h4.762c2.48 0 4.188 1.334 5.33 4.191.576 1.715 1.147 6.096 1.147 10.668m5.719-.38c0-3.049-.572-6.668-1.143-9.716-.575-4-2.29-7.24-4.763-8.954-1.53-1.143-3.238-1.524-6.477-1.524h-10.48v40.577h11.239c2.286 0 4.187-.572 5.718-1.715 3.997-3.238 5.906-9.144 5.906-18.669m-38.675 3.62h-5.712l2.85-11.62 2.862 11.62zm10.287 16.764-10.287-40.577h-5.712l-10.103 40.577h5.905l2.674-11.05h8.76l2.857 11.05h5.906zm-29.718 0v-5.715h-14.669v-13.335h8.192v-5.525h-8.192v-10.287h13.145v-5.715h-19.05v40.577h20.574zm-29.147 0v-40.577h-5.902v16.574h-11.24v-16.574h-5.718v40.577h5.719v-18.288h11.24v18.288h5.901zm-38.675-16.764h-5.711l2.86-11.62 2.851 11.62zm10.104 16.764-10.104-40.577h-5.711l-10.093 40.577h5.905l2.667-11.05h8.763l2.854 11.05h5.719z" style="fill:#000;fill-opacity:1;fill-rule:evenodd;stroke:none"/>
</svg>
