<svg xmlns="http://www.w3.org/2000/svg" width="90" height="89.994" viewBox="0 0 254 253.982">
    <path d="m135.227 250.575 115.34-115.348a11.7 11.7 0 0 0 3.433-8.234c0-3.066-1.26-6.064-3.432-8.234L135.227 3.411A11.69 11.69 0 0 0 126.982 0a11.817 11.817 0 0 0-8.233 3.411L3.41 118.76C1.252 120.911 0 123.941 0 126.993c0 3.051 1.252 6.085 3.411 8.234L118.75 250.575c2.797 2.797 7.01 3.99 10.858 3.136 2.223-.505 3.87-1.729 5.62-3.136" style="fill:#fcd116;fill-opacity:1;fill-rule:nonzero;stroke:none"/>
    <path d="M121.058 248.268 5.72 132.928a8.447 8.447 0 0 1-2.46-5.935 8.43 8.43 0 0 1 2.46-5.926L121.058 5.705c1.556-1.549 3.736-2.43 5.93-2.43 2.194 0 4.37.881 5.927 2.43L248.28 121.067a8.482 8.482 0 0 1 2.434 5.926 8.5 8.5 0 0 1-2.434 5.934l-115.365 115.34a8.433 8.433 0 0 1-5.927 2.453 8.441 8.441 0 0 1-5.93-2.452" style="fill:#000;fill-opacity:1;fill-rule:evenodd;stroke:none"/>
    <path d="M124.283 245.05a3.878 3.878 0 0 0 2.705 1.122c.981 0 2.022-.413 2.72-1.122l115.345-115.347a3.923 3.923 0 0 0 1.11-2.71c0-.977-.412-2.018-1.11-2.72L129.708 8.93c-.712-.702-1.721-1.093-2.72-1.093-.998.01-1.993.391-2.705 1.093L8.924 124.273c-.698.702-1.115 1.743-1.115 2.72 0 .992.417 2.008 1.115 2.71L124.283 245.05z" style="fill:#fcd116;fill-opacity:1;fill-rule:evenodd;stroke:none"/>
    <path d="M114.826 85.827c-.762-.437-1.2-.547-2.836-.547h-5.888v7.63h5.888c1.527 0 2.074-.105 2.836-.543 1.2-.652 1.961-1.961 1.961-3.27s-.762-2.617-1.961-3.27m2.18 25.619-5.016-13.519h-5.888v13.519h-4.904v-31.07h10.248c2.4 0 4.036.216 5.56.981 2.727 1.31 4.689 4.58 4.689 7.74 0 3.27-1.962 6.54-4.798 7.85l5.45 14.499h-5.34zM176.202 111.446h-4.374l-4.921-19.95-4.812 19.95h-4.375l-4.593-31.07h5.03l2.403 16.352 3.94-16.351h4.813l4.046 16.35 2.406-16.35h5.03l-4.593 31.069zM86.838 86.589a4.435 4.435 0 0 0-3.16-1.309h-5.564v21.153h4.907c1.637 0 2.618-.328 3.489-1.2 1.856-1.855 2.836-5.235 2.836-9.377 0-4.141-.98-7.63-2.508-9.267m2.07 23.114c-1.199 1.09-2.832 1.637-4.469 1.743H73.21v-31.07h10.03c3.164 0 4.36.325 5.997 1.634 3.27 2.836 5.122 7.74 5.122 13.846 0 6.216-1.961 11.12-5.45 13.847M138.103 88.988l-3.179 8.72h6.248l-3.069-8.72zm7.895 22.458-3.069-8.721h-9.761l-3.07 8.72h-5.263l10.746-31.068h4.935l10.746 31.069h-5.264zM109.91 134.75h4.97v31.074h-4.97V134.75zM97.103 140.2c-.762-.433-1.2-.543-2.837-.543H88.38v7.63h5.887c1.528 0 2.075-.108 2.837-.542 1.2-.656 1.965-1.962 1.965-3.274 0-1.305-.766-2.614-1.965-3.27m2.18 25.622-5.017-13.519H88.38v13.519h-4.904V134.75h10.248c2.4 0 4.032.219 5.56.981 2.727 1.309 4.688 4.579 4.688 7.74 0 3.274-1.961 6.544-4.797 7.853l5.454 14.499h-5.345zM135.967 140.962a4.432 4.432 0 0 0-3.161-1.305h-5.563v21.149h4.907c1.637 0 2.617-.325 3.489-1.2 1.855-1.851 2.836-5.231 2.836-9.376 0-4.142-.98-7.63-2.508-9.268m2.07 23.114c-1.199 1.09-2.832 1.637-4.469 1.747H122.336V134.75h10.033c3.16 0 4.36.328 5.997 1.637 3.27 2.833 5.122 7.74 5.122 13.843 0 6.216-1.961 11.123-5.45 13.846M177.692 165.823V134.75h18.292v4.907h-13.392v7.63h9.038v5.017h-9.038v8.502h14.372v5.017h-19.272zM70.233 152.52c-.653-.216-.98-.216-2.071-.216h-6.216v8.502h7.415c2.505 0 3.817-1.2 3.817-3.598 0-2.071-1.199-4.033-2.945-4.689m-1.09-12.862h-7.197v7.63h5.888c1.418 0 2.07-.218 2.946-.87a4.609 4.609 0 0 0 1.742-3.6c0-2.07-1.2-3.16-3.38-3.16m4.036 25.404c-1.093.433-2.945.762-4.363.762H57.039V134.75h11.776c4.907 0 8.614 3.38 8.614 7.85 0 3.054-1.418 5.344-4.36 6.977 3.27 1.528 5.122 4.145 5.122 7.525 0 3.38-2.07 6.76-5.013 7.959M161.044 166.37c-4.689 0-7.416-1.747-9.268-5.673-1.308-2.723-2.07-6.54-2.07-10.354 0-5.016 1.414-9.924 3.485-12.647 1.856-2.29 4.473-3.493 7.962-3.493 4.798 0 7.63 1.965 9.702 6.873l-4.685 1.852c-1.31-2.727-2.618-3.708-5.017-3.708-2.508 0-4.145 1.09-5.235 3.817-.762 1.852-1.2 4.688-1.2 7.306 0 3.267.547 6.54 1.528 8.502.98 1.743 2.399 2.508 4.251 2.508 3.164 0 5.454-1.961 5.454-4.798v-1.308h-5.673v-4.904h10.577v6.212c0 5.67-4.142 9.815-9.811 9.815" style="fill:#000;fill-opacity:1;fill-rule:nonzero;stroke:none"/>
</svg>
