<svg xmlns="http://www.w3.org/2000/svg" width="90" height="89.994" viewBox="0 0 254 253.982">
    <path d="m135.227 250.575 115.34-115.348a11.7 11.7 0 0 0 3.433-8.234c0-3.066-1.26-6.064-3.432-8.234L135.227 3.411A11.69 11.69 0 0 0 126.982 0a11.817 11.817 0 0 0-8.233 3.411L3.41 118.76C1.252 120.911 0 123.941 0 126.993c0 3.051 1.252 6.085 3.411 8.234L118.75 250.575c2.797 2.797 7.01 3.99 10.858 3.136 2.223-.505 3.87-1.729 5.62-3.136" style="fill:#fcd116;fill-opacity:1;fill-rule:nonzero;stroke:none"/>
    <path d="M121.058 248.268 5.72 132.928a8.447 8.447 0 0 1-2.46-5.935 8.43 8.43 0 0 1 2.46-5.926L121.058 5.705c1.556-1.549 3.736-2.43 5.93-2.43 2.194 0 4.37.881 5.927 2.43L248.28 121.067a8.482 8.482 0 0 1 2.434 5.926 8.5 8.5 0 0 1-2.434 5.934l-115.365 115.34a8.433 8.433 0 0 1-5.927 2.453 8.441 8.441 0 0 1-5.93-2.452" style="fill:#000;fill-opacity:1;fill-rule:evenodd;stroke:none"/>
    <path d="M124.283 245.05a3.878 3.878 0 0 0 2.705 1.122c.981 0 2.022-.413 2.72-1.122l115.345-115.347a3.923 3.923 0 0 0 1.11-2.71c0-.977-.412-2.018-1.11-2.72L129.708 8.93c-.712-.702-1.721-1.093-2.72-1.093-.998.01-1.993.391-2.705 1.093L8.924 124.273c-.698.702-1.115 1.743-1.115 2.72 0 .992.417 2.008 1.115 2.71L124.283 245.05z" style="fill:#fcd116;fill-opacity:1;fill-rule:evenodd;stroke:none"/>
    <path d="M99.524 93.202h-4.307l-4.124-11.278h-4.88v11.278H82.21v-25.75h9.673c1.993 0 3.7.71 5.119 2.131 1.421 1.411 2.13 3.112 2.13 5.105 0 1.376-.367 2.65-1.097 3.824a6.987 6.987 0 0 1-2.907 2.667l4.396 12.023zm-13.31-15.283h5.655c.892 0 1.654-.317 2.282-.945a3.12 3.12 0 0 0 .942-2.286c0-.875-.317-1.633-.942-2.275a3.106 3.106 0 0 0-2.282-.953h-5.655v6.46M125.88 93.202h-4.23l-2.505-7.236h-8.064l-2.508 7.236h-4.234l8.763-25.75h4.015l8.763 25.75zm-8.146-11.24-2.624-7.845-2.713 7.845h5.337zM150.63 93.202h-4.003V78.308l-5.962 14.894-5.966-14.775v14.775h-4.004v-25.75h3.97l6.021 14.92 5.97-14.92h3.975v25.75zM156.692 67.453h10.068c1.99 0 3.693.709 5.112 2.123 1.418 1.411 2.123 3.115 2.123 5.098 0 2.004-.705 3.715-2.123 5.126-1.419 1.414-3.13 2.124-5.12 2.124h-6.056v11.278h-4.004v-25.75zm4.004 4.007v6.46h6.07c.876 0 1.634-.318 2.273-.946a3.09 3.09 0 0 0 .952-2.286c0-.875-.317-1.633-.952-2.275-.639-.632-1.397-.953-2.272-.953h-6.071M93.805 181.276h-4.23l-2.508-7.235h-8.064l-2.505 7.235h-4.23l8.756-25.745h4.022l8.76 25.745zm-8.142-11.24-2.628-7.848-2.713 7.849h5.341zM115.932 181.276h-4.008v-11.282h-9.3v11.282h-4.003v-25.745h4.004v10.46h9.3v-10.46h4.007v25.745zM137.677 177.272v4.004h-15.692v-25.745h14.891v4.004H125.99v6.455h7.447v4.004h-7.447v7.278h11.688zM162.438 181.276h-4.23l-2.508-7.235h-8.068l-2.5 7.235h-4.23l8.755-25.745h4.018l8.763 25.745zm-8.142-11.24-2.628-7.848-2.72 7.849h5.348zM167.254 181.276v-25.745h7.207c3.369 0 5.955 1.372 7.754 4.12 1.563 2.332 2.343 5.274 2.343 8.827 0 3.418-.808 6.318-2.42 8.706-1.853 2.724-4.424 4.092-7.702 4.092h-7.182zm4.004-4.004h3.178c2.237 0 3.87-.97 4.904-2.914.808-1.495 1.213-3.457 1.213-5.88 0-2.544-.469-4.597-1.418-6.16-.635-1.048-1.27-1.76-1.89-2.141-.667-.43-1.606-.642-2.809-.642h-3.178v17.737M87.258 126.176l5.962-14.813h4.134v25.894H93.22l-.021-14.838-5.959 14.838-5.962-14.838v14.838h-4.134v-25.894h4.148l5.966 14.813zM119.611 137.257h-16.055v-25.894h15.537v4.134H107.69v6.223h7.88v4.135h-7.88v7.264h11.92v4.138zM137.765 115.497h-5.951v21.76h-4.135v-21.76h-5.969v-4.134h16.055v4.134zM157.672 137.257h-16.055v-25.894h15.537v4.134h-11.402v6.223h7.881v4.135h-7.881v7.264h11.92v4.138zM175.198 118.556c0-.864-.289-1.591-.868-2.177-.578-.585-1.301-.882-2.162-.882h-5.958v6.223h5.958c.86 0 1.584-.307 2.162-.92.579-.614.868-1.362.868-2.244m4.48 18.7h-4.374l-4.17-11.401h-4.924v11.402h-4.135v-25.894h10.065c1.986 0 3.68.705 5.087 2.11 1.404 1.407 2.106 3.104 2.106 5.086 0 2.904-1.369 5.077-4.106 6.527l4.452 12.17z" style="fill:#000;fill-opacity:1;fill-rule:nonzero;stroke:none"/>
</svg>
