<svg xmlns="http://www.w3.org/2000/svg" width="90" height="89.994" viewBox="0 0 254 253.982">
    <path d="m135.227 250.575 115.34-115.348a11.7 11.7 0 0 0 3.433-8.234c0-3.066-1.26-6.064-3.432-8.234L135.227 3.411A11.69 11.69 0 0 0 126.982 0a11.817 11.817 0 0 0-8.233 3.411L3.41 118.76C1.252 120.911 0 123.941 0 126.993c0 3.051 1.252 6.085 3.411 8.234L118.75 250.575c2.797 2.797 7.01 3.99 10.858 3.136 2.223-.505 3.87-1.729 5.62-3.136" style="fill:#fcd116;fill-opacity:1;fill-rule:nonzero;stroke:none"/>
    <path d="M121.058 248.268 5.72 132.928a8.447 8.447 0 0 1-2.46-5.935 8.43 8.43 0 0 1 2.46-5.926L121.058 5.705c1.556-1.549 3.736-2.43 5.93-2.43 2.194 0 4.37.881 5.927 2.43L248.28 121.067a8.482 8.482 0 0 1 2.434 5.926 8.5 8.5 0 0 1-2.434 5.934l-115.365 115.34a8.433 8.433 0 0 1-5.927 2.453 8.441 8.441 0 0 1-5.93-2.452" style="fill:#000;fill-opacity:1;fill-rule:evenodd;stroke:none"/>
    <path d="M124.283 245.05a3.878 3.878 0 0 0 2.705 1.122c.981 0 2.022-.413 2.72-1.122l115.345-115.347a3.923 3.923 0 0 0 1.11-2.71c0-.977-.412-2.018-1.11-2.72L129.708 8.93c-.712-.702-1.721-1.093-2.72-1.093-.998.01-1.993.391-2.705 1.093L8.924 124.273c-.698.702-1.115 1.743-1.115 2.72 0 .992.417 2.008 1.115 2.71L124.283 245.05z" style="fill:#fcd116;fill-opacity:1;fill-rule:evenodd;stroke:none"/>
    <path d="M105.317 75.1h-3.446l-3.362-9.062h-3.842V75.1h-3.231V54.439h7.736c1.598 0 2.963.568 4.1 1.707 1.135 1.136 1.7 2.501 1.7 4.1 0 1.1-.29 2.12-.882 3.065a5.625 5.625 0 0 1-2.35 2.138l3.577 9.652zm-10.65-12.294h4.52c.715 0 1.322-.254 1.823-.758.504-.5.751-1.111.751-1.83a2.5 2.5 0 0 0-.751-1.821 2.467 2.467 0 0 0-1.824-.766h-4.519v5.175M126.456 75.1h-3.37l-1.982-5.824h-6.568l-1.983 5.825h-3.37l7.021-20.662h3.225l7.027 20.662zm-6.435-9.016-2.205-6.474-2.197 6.474h4.402zM146.278 75.1h-3.238V63.157L138.316 75.1l-4.762-11.945V75.1h-3.239V54.439h3.196l4.791 12.012 4.752-12.012h3.224V75.1zM151.164 54.439h8.083c1.598 0 2.963.568 4.106 1.7 1.132 1.136 1.704 2.501 1.704 4.092 0 1.605-.572 2.978-1.704 4.11-1.136 1.132-2.501 1.697-4.1 1.697h-4.85V75.1h-3.239V54.439zm3.239 3.192v5.175h4.844c.695 0 1.301-.254 1.813-.758a2.47 2.47 0 0 0 .758-1.83c0-.703-.25-1.31-.758-1.821-.512-.508-1.118-.766-1.813-.766h-4.844M86.303 106.166H83.07V94.228l-4.723 11.938-4.763-11.938v11.938h-3.238V85.511h3.2l4.786 12.016 4.752-12.016h3.218v20.655zM103.783 102.977v3.19H91.199V85.51h11.942v3.19h-8.703v5.178h5.948v3.193h-5.948v5.905h9.345zM118.96 88.446h-4.657v17.72h-3.232v-17.72h-4.706v-2.935h12.594v2.935zM135.392 102.977v3.19h-12.58V85.51h11.948v3.19h-8.71v5.178h5.955v3.193h-5.955v5.905h9.342zM153.15 106.166h-3.453l-3.362-9.052h-3.838v9.052h-3.239V85.511h7.744c1.594 0 2.963.568 4.102 1.704 1.13 1.133 1.7 2.505 1.7 4.103 0 1.1-.295 2.124-.881 3.066a5.645 5.645 0 0 1-2.357 2.137l3.585 9.645zM142.498 93.88h4.512c.72 0 1.33-.25 1.827-.755a2.503 2.503 0 0 0 .759-1.834 2.5 2.5 0 0 0-.759-1.82 2.441 2.441 0 0 0-1.827-.77h-4.512v5.18M170.588 102.977v3.19h-12.587V85.51h11.945v3.19h-8.706v5.178h5.951v3.193h-5.951v5.905h9.348zM174.448 106.166V85.511h5.785c2.703 0 4.777 1.1 6.223 3.306 1.256 1.873 1.88 4.233 1.88 7.084 0 2.74-.645 5.073-1.943 6.985-1.485 2.19-3.546 3.28-6.177 3.28h-5.768zm3.238-3.189h2.533c1.785 0 3.087-.78 3.916-2.342.646-1.207.97-2.784.97-4.734 0-2.047-.384-3.701-1.136-4.957-.511-.843-1.012-1.418-1.503-1.722-.536-.349-1.287-.522-2.247-.522h-2.533v14.277M109.713 116.58l-2.914 20.663h-2.854l-3.27-13.424-3.281 13.424h-2.847l-2.914-20.663h3.225l1.573 11.166 2.727-11.166h3.03l2.73 11.166 1.57-11.166h3.225zM127.461 137.243h-3.231v-9.06h-7.42v9.06h-3.23V116.58h3.23v8.368h7.42v-8.368h3.231v20.663zM144.903 134.054v3.189h-12.584V116.58h11.942v3.197h-8.71v5.171h5.954v3.193h-5.955v5.913h9.353zM162.65 137.243h-2.87l-7.783-13.78v13.78h-3.231V116.58h3.02l7.633 13.533V116.58h3.232v20.663zM76.742 150.846h-9.348v5.175h5.951v3.235h-5.951v9.056h-3.239v-20.655h12.587v3.189zM93.192 168.312h-12.59v-20.655h3.235v17.593h9.355v3.062zM111.745 168.312h-3.376l-1.976-5.821h-6.575l-1.976 5.82h-3.369l7.02-20.654h3.225l7.027 20.655zm-6.442-9.014-2.197-6.47-2.198 6.47h4.395zM115.604 163.334l3.038-1.115a4.753 4.753 0 0 0 1.764 2.318c.836.593 1.75.889 2.758.889a2.98 2.98 0 0 0 2.184-.903c.607-.6.91-1.323.91-2.163 0-.963-.324-1.718-.987-2.257-.494-.413-1.239-.73-2.226-.95-.826-.151-1.651-.303-2.473-.458a4.936 4.936 0 0 1-2.981-1.778 5.086 5.086 0 0 1-1.168-3.295c0-1.736.62-3.224 1.848-4.459 1.235-1.235 2.713-1.856 4.452-1.856a6.13 6.13 0 0 1 3.666 1.193 6.333 6.333 0 0 1 2.3 3.115l-3.052 1.037a3.168 3.168 0 0 0-1.128-1.524 2.98 2.98 0 0 0-1.778-.582c-.837 0-1.56.3-2.167.9-.6.6-.903 1.319-.903 2.165 0 .466.145.879.438 1.228.282.353.652.575 1.108.674.716.141 1.799.356 3.245.653 1.454.296 2.653 1.023 3.609 2.183.96 1.157 1.436 2.49 1.436 3.994 0 1.739-.621 3.228-1.849 4.466-1.23 1.231-2.72 1.848-4.459 1.848a7.872 7.872 0 0 1-4.628-1.467 7.92 7.92 0 0 1-2.957-3.856M148.236 168.312h-3.238v-9.056h-7.412v9.056h-3.238v-20.655h3.238v8.364h7.412v-8.364h3.238v20.655zM153.088 168.312h3.238v-20.655h-3.238v20.655zM175.055 168.312h-2.876l-7.778-13.776v13.776h-3.232v-20.655h3.02l7.634 13.532v-13.532h3.232v20.655zM193.794 158.007v3.19c-.014.373-.053.941-.123 1.7-.223 1.644-.953 3.016-2.198 4.113-1.249 1.1-2.702 1.647-4.353 1.647-1.464 0-2.773-.426-3.923-1.287-1.157-.86-1.955-1.99-2.396-3.38-.592-1.859-.889-3.86-.889-5.993 0-2.096.29-4.075.868-5.93.427-1.405 1.217-2.544 2.381-3.412 1.168-.868 2.484-1.302 3.959-1.302 1.418 0 2.705.413 3.862 1.238a6.333 6.333 0 0 1 2.4 3.257l-3.052 1.03a3.246 3.246 0 0 0-1.235-1.687 3.281 3.281 0 0 0-1.968-.645c-2.653 0-3.983 2.476-3.983 7.44 0 4.956 1.33 7.44 3.983 7.44 1.1 0 1.961-.406 2.575-1.21.578-.737.868-1.672.868-2.812v-.208h-3.542v-3.189h6.766" style="fill:#000;fill-opacity:1;fill-rule:nonzero;stroke:none"/>
</svg>
