<?xml version="1.0" encoding="UTF-8" standalone="no"?>
<!-- Generator: Adobe Illustrator 14.0.0, SVG Export Plug-In  -->

<svg
   xmlns:dc="http://purl.org/dc/elements/1.1/"
   xmlns:cc="http://creativecommons.org/ns#"
   xmlns:rdf="http://www.w3.org/1999/02/22-rdf-syntax-ns#"
   xmlns:svg="http://www.w3.org/2000/svg"
   xmlns="http://www.w3.org/2000/svg"
   xmlns:sodipodi="http://sodipodi.sourceforge.net/DTD/sodipodi-0.dtd"
   xmlns:inkscape="http://www.inkscape.org/namespaces/inkscape"
   version="1.1"
   x="0px"
   y="0px"
   width="157.69872"
   height="262.70001"
   viewBox="0 -0.321 157.69872 262.70004"
   enable-background="new 0 -0.321 144 120"
   xml:space="preserve"
   id="svg2"
   inkscape:version="0.48.2 r9819"
   sodipodi:docname="AJAX1.svg"><metadata
   id="metadata44"><rdf:RDF><cc:Work
       rdf:about=""><dc:format>image/svg+xml</dc:format><dc:type
         rdf:resource="http://purl.org/dc/dcmitype/StillImage" /><dc:title /></cc:Work></rdf:RDF></metadata><sodipodi:namedview
   pagecolor="#ffffff"
   bordercolor="#666666"
   borderopacity="1"
   objecttolerance="10"
   gridtolerance="10"
   guidetolerance="10"
   inkscape:pageopacity="0"
   inkscape:pageshadow="2"
   inkscape:window-width="1280"
   inkscape:window-height="1004"
   id="namedview42"
   showgrid="false"
   fit-margin-top="0.1"
   fit-margin-left="0.1"
   fit-margin-right="0.1"
   fit-margin-bottom="0.1"
   inkscape:zoom="2.43673"
   inkscape:cx="52.705232"
   inkscape:cy="10.157927"
   inkscape:window-x="-8"
   inkscape:window-y="-8"
   inkscape:window-maximized="1"
   inkscape:current-layer="svg2" />
<defs
   id="defs4">
</defs>


















<path
   inkscape:connector-curvature="0"
   d="m 157.59873,252.43528 c 0,5.43625 -4.40625,9.84375 -9.84375,9.84375 l -137.8112359,0 c -5.4375,0 -9.84375004,-4.4075 -9.84375004,-9.84375 l 0,-242.81253 c 0,-5.43625 4.40625004,-9.84374999 9.84375004,-9.84374999 l 137.8112359,0 c 5.4375,0 9.84375,4.40749999 9.84375,9.84374999 l 0,242.81253 z"
   style="fill:#ffd033;fill-opacity:1;fill-rule:nonzero;stroke:none"
   id="path3293" /><path
   inkscape:connector-curvature="0"
   d="m 9.9437441,-0.22062999 137.8112359,0 c 5.4375,0 9.84375,4.40624999 9.84375,9.84374999 l 0,68.8952 -157.49873594,0 0,-68.8952 c 0,-5.4375 4.40625004,-9.84374999 9.84375004,-9.84374999"
   style="fill:#ffffff;fill-opacity:1;fill-rule:nonzero;stroke:none"
   id="path3317"
   sodipodi:nodetypes="cssccsc" /><path
   style="fill:#000000;fill-opacity:1;fill-rule:evenodd;stroke:none"
   d="m 147.75358,2.51809 c 3.91999,0 7.125,3.17375 7.125,7.09375 l 0,242.8125 c 0,3.92 -3.20501,7.125 -7.125,7.125 l -137.8125059,0 c -3.92,0 -7.09375,-3.205 -7.09375,-7.125 l 0,-242.8125 c 0,-3.92 3.17375,-7.09375 7.09375,-7.09375 z m 3.28125,76 -144.3750059,0 0,173.90625 c 0,1.81 1.4725,3.28125 3.28125,3.28125 l 137.8125059,0 c 1.80874,0 3.28125,-1.47125 3.28125,-3.28125 z"
   id="path3301"
   inkscape:connector-curvature="0"
   sodipodi:nodetypes="sssssssssccssssc" /><path
   inkscape:connector-curvature="0"
   d="m 90.333093,152.68527 0,-4.8125 c 4.01875,1.27375 8.03625,2.54875 12.055007,3.8225 0.46625,0.1475 0.93375,0.2925 1.39875,0.44375 0.91875,0.2975 1.72875,0.24875 2.665,0.0163 1.6,-0.3975 2.75875,-1.845 3.13,-3.40875 0.5325,-2.24 -1.13375,-4.095 -2.295,-5.80375 -2.32,-3.41875 -27.153757,-39.99126 -28.438757,-41.88251 -3.86125,5.6875 -22.627479,33.325 -28.148729,41.45751 -0.945,1.39125 -3.09875,3.73375 -2.63875,5.57375 0.1075,0.4275 0.0362,0.83875 0.24125,1.2475 0.19875,0.39875 0.36375,0.7275 0.6125,1.10125 0.44375,0.66125 1.18875,1.2925 1.935,1.58875 0.67375,0.2675 1.83625,0.51875 2.53625,0.285 0.4825,-0.16 0.96625,-0.31375 1.45,-0.4675 4.176229,-1.325 8.352479,-2.65 12.528729,-3.97375 l 0,80.04501 c 0,0.035 18.63,0.0175 22.83875,0.0175 0.29625,0 0.13,-24.49626 0.13,-32.92251 1.95875,3.04875 4.1575,6.0175 6.36875,8.89125 2.23376,2.905 4.483757,5.80875 6.905007,8.56 1.58875,1.805 3.17875,3.60125 4.8825,5.3 2.98125,-3.01125 11.0275,-11.13625 11.14125,-11.25125 0.0337,-0.0337 -0.625,-0.655 -0.68375,-0.715 -1.33125,-1.33 -2.57375,-2.72875 -3.78625,-4.1675 -2.45,-2.91 -4.94,-5.7825 -7.1225,-8.90125 -1.06375,-1.52 -2.25,-2.94875 -3.31375,-4.47 -1.04625,-1.495 -2.00875,-3.05625 -3.02,-4.5725 -1.0075,-1.51 -1.854998,-3.16 -2.811247,-4.705 -0.92876,-1.50125 -1.86751,-3.06875 -2.65626,-4.64625 -1.66,-3.3175 -3.3475,-6.62625 -4.3275,-10.22125 -1.02625,-3.75875 -1.57625,-7.63625 -1.57625,-11.5375 l 0,0.10875"
   style="fill:#000000;fill-opacity:1;fill-rule:evenodd;stroke:none"
   id="path3313" /><path
   inkscape:connector-curvature="0"
   d="M 78.862103,65.019 91.308353,40.68275 78.862103,16.159 66.600853,40.68275 78.862103,65.019 z m 16.83,-24.33375 -0.4375,0.875 -14.655,28.65625 -1.75125,3.50125 -1.75,-3.50125 -14.43625,-28.65625 -0.43625,-0.875 0.43625,-0.875 14.43625,-28.875 1.75,-3.5 1.75125,3.5 14.655,28.875 0.4375,0.875 z"
   style="fill:#ffffff;fill-opacity:1;fill-rule:nonzero;stroke:none"
   id="path3309" /><path
   style="font-size:medium;font-style:normal;font-variant:normal;font-weight:normal;font-stretch:normal;text-indent:0;text-align:start;text-decoration:none;line-height:normal;letter-spacing:normal;word-spacing:normal;text-transform:none;direction:ltr;block-progression:tb;writing-mode:lr-tb;text-anchor:start;baseline-shift:baseline;color:#000000;fill:#000000;fill-opacity:1;stroke:none;stroke-width:0.80000007;marker:none;visibility:visible;display:inline;overflow:visible;enable-background:accumulate;font-family:Sans;-inkscape-font-specification:Sans"
   d="m 147.75498,-0.22087999 c 5.65365,0 9.844,4.19123999 9.844,9.84362999 l 0,68.895271 -0.8125,0 0,-68.895271 c 0,-5.22011 -3.81016,-9.03112999 -9.0315,-9.03112999 l -137.8124959,0 c -5.22135,0 -9.03024004,3.81101999 -9.03024004,9.03112999 l 0,68.895271 -0.8125,0 0,-68.895271 c 0,-5.65239 4.18909004,-9.84362999 9.84274004,-9.84362999 z"
   id="path3329"
   inkscape:connector-curvature="0"
   sodipodi:nodetypes="ssccssssccsss" /></svg>