<?xml version="1.0" encoding="UTF-8" standalone="no"?>
<!-- Generator: Adobe Illustrator 14.0.0, SVG Export Plug-In  -->

<svg
   xmlns:dc="http://purl.org/dc/elements/1.1/"
   xmlns:cc="http://creativecommons.org/ns#"
   xmlns:rdf="http://www.w3.org/1999/02/22-rdf-syntax-ns#"
   xmlns:svg="http://www.w3.org/2000/svg"
   xmlns="http://www.w3.org/2000/svg"
   xmlns:sodipodi="http://sodipodi.sourceforge.net/DTD/sodipodi-0.dtd"
   xmlns:inkscape="http://www.inkscape.org/namespaces/inkscape"
   version="1.1"
   x="0px"
   y="0px"
   width="157.69872"
   height="262.70001"
   viewBox="0 -0.321 157.69872 262.70004"
   enable-background="new 0 -0.321 144 120"
   xml:space="preserve"
   id="svg2"
   inkscape:version="0.48.2 r9819"
   sodipodi:docname="AJAX1.svg"><metadata
   id="metadata44"><rdf:RDF><cc:Work
       rdf:about=""><dc:format>image/svg+xml</dc:format><dc:type
         rdf:resource="http://purl.org/dc/dcmitype/StillImage" /><dc:title /></cc:Work></rdf:RDF></metadata><sodipodi:namedview
   pagecolor="#ffffff"
   bordercolor="#666666"
   borderopacity="1"
   objecttolerance="10"
   gridtolerance="10"
   guidetolerance="10"
   inkscape:pageopacity="0"
   inkscape:pageshadow="2"
   inkscape:window-width="1280"
   inkscape:window-height="1004"
   id="namedview42"
   showgrid="false"
   fit-margin-top="0.1"
   fit-margin-left="0.1"
   fit-margin-right="0.1"
   fit-margin-bottom="0.1"
   inkscape:zoom="1.7230283"
   inkscape:cx="138.62173"
   inkscape:cy="96.885584"
   inkscape:window-x="-8"
   inkscape:window-y="-8"
   inkscape:window-maximized="1"
   inkscape:current-layer="svg2" />
<defs
   id="defs4">
</defs>


















<path
   inkscape:connector-curvature="0"
   d="m 157.59873,252.43528 c 0,5.43625 -4.40625,9.84375 -9.84375,9.84375 l -137.8112359,0 c -5.4375,0 -9.84375004,-4.4075 -9.84375004,-9.84375 l 0,-242.81253 c 0,-5.43625 4.40625004,-9.84374999 9.84375004,-9.84374999 l 137.8112359,0 c 5.4375,0 9.84375,4.40749999 9.84375,9.84374999 l 0,242.81253 z"
   style="fill:#ffd033;fill-opacity:1;fill-rule:nonzero;stroke:none"
   id="path3293" /><path
   inkscape:connector-curvature="0"
   d="m 9.9437441,-0.22062999 137.8112359,0 c 5.4375,0 9.84375,4.40624999 9.84375,9.84374999 l 0,68.8952 -157.49873594,0 0,-68.8952 c 0,-5.4375 4.40625004,-9.84374999 9.84375004,-9.84374999"
   style="fill:#ffffff;fill-opacity:1;fill-rule:nonzero;stroke:none"
   id="path3317"
   sodipodi:nodetypes="cssccsc" /><path
   style="fill:#000000;fill-opacity:1;fill-rule:evenodd;stroke:none"
   d="m 147.75358,2.51809 c 3.91999,0 7.125,3.17375 7.125,7.09375 l 0,242.8125 c 0,3.92 -3.20501,7.125 -7.125,7.125 l -137.8125059,0 c -3.92,0 -7.09375,-3.205 -7.09375,-7.125 l 0,-242.8125 c 0,-3.92 3.17375,-7.09375 7.09375,-7.09375 z m 3.28125,76 -144.3750059,0 0,173.90625 c 0,1.81 1.4725,3.28125 3.28125,3.28125 l 137.8125059,0 c 1.80874,0 3.28125,-1.47125 3.28125,-3.28125 z"
   id="path3301"
   inkscape:connector-curvature="0"
   sodipodi:nodetypes="sssssssssccssssc" /><path
   inkscape:connector-curvature="0"
   d="M 78.862103,65.019 91.308353,40.68275 78.862103,16.159 66.600853,40.68275 78.862103,65.019 z m 16.83,-24.33375 -0.4375,0.875 -14.655,28.65625 -1.75125,3.50125 -1.75,-3.50125 -14.43625,-28.65625 -0.43625,-0.875 0.43625,-0.875 14.43625,-28.875 1.75,-3.5 1.75125,3.5 14.655,28.875 0.4375,0.875 z"
   style="fill:#ffffff;fill-opacity:1;fill-rule:nonzero;stroke:none"
   id="path3309" /><path
   style="font-size:medium;font-style:normal;font-variant:normal;font-weight:normal;font-stretch:normal;text-indent:0;text-align:start;text-decoration:none;line-height:normal;letter-spacing:normal;word-spacing:normal;text-transform:none;direction:ltr;block-progression:tb;writing-mode:lr-tb;text-anchor:start;baseline-shift:baseline;color:#000000;fill:#000000;fill-opacity:1;stroke:none;stroke-width:0.80000007;marker:none;visibility:visible;display:inline;overflow:visible;enable-background:accumulate;font-family:Sans;-inkscape-font-specification:Sans"
   d="m 147.75498,-0.22087999 c 5.65365,0 9.844,4.19123999 9.844,9.84362999 l 0,68.895271 -0.8125,0 0,-68.895271 c 0,-5.22011 -3.81016,-9.03112999 -9.0315,-9.03112999 l -137.8124959,0 c -5.22135,0 -9.03024004,3.81101999 -9.03024004,9.03112999 l 0,68.895271 -0.8125,0 0,-68.895271 c 0,-5.65239 4.18909004,-9.84362999 9.84274004,-9.84362999 z"
   id="path3329"
   inkscape:connector-curvature="0"
   sodipodi:nodetypes="ssccssssccsss" /><path
   d="m 121.7447,222.69146 -17.835,0 0,-111.56252 17.835,0 0,111.56252 z"
   style="fill:#000000;fill-opacity:1;fill-rule:nonzero;stroke:none"
   id="path3387"
   inkscape:connector-curvature="0" /><path
   d="m 72.402062,111.12894 0,33.40002 c 0,0 -15.417504,18.745 -18.646254,22.66625 l 0,55.49625 -17.828754,0 0,-61.89125 c 0,0 15.416253,-18.745 18.638754,-22.665 l 0,-27.00627 17.836254,0 z"
   style="fill:#000000;fill-opacity:1;fill-rule:nonzero;stroke:none"
   id="path3391"
   inkscape:connector-curvature="0" /><path
   d="m 65.798435,222.69146 6.603752,0 0,-11.65375 -6.603752,0 0,11.65375 z"
   style="fill:#000000;fill-opacity:1;fill-rule:nonzero;stroke:none"
   id="path3393"
   inkscape:connector-curvature="0" /><path
   d="m 65.798435,202.87771 6.603752,0 0,-11.6525 -6.603752,0 0,11.6525 z"
   style="fill:#000000;fill-opacity:1;fill-rule:nonzero;stroke:none"
   id="path3395"
   inkscape:connector-curvature="0" /><path
   d="m 65.798435,183.06646 6.603752,0 0,-11.65625 -6.603752,0 0,11.65625 z"
   style="fill:#000000;fill-opacity:1;fill-rule:nonzero;stroke:none"
   id="path3397"
   inkscape:connector-curvature="0" /></svg>