<svg xmlns="http://www.w3.org/2000/svg" width="66.235" height="33.118" viewBox="0 0 186.929 93.465">
    <path d="m186.926 11.656.003 70.157c0 6.424-5.231 11.652-11.652 11.652H11.652C5.235 93.472 0 88.237 0 81.813l.004-70.157C.004 5.232 5.232.004 11.656.004L175.275 0c6.343.007 11.659 5.313 11.652 11.656" style="fill:#fcd116;fill-opacity:1;fill-rule:nonzero;stroke:none"/>
    <path d="M183.695 11.695v70.08c-.007 4.62-3.838 8.445-8.46 8.459l-163.544-.007c-4.618.007-8.438-3.831-8.453-8.453V11.7c.011-4.625 3.828-8.453 8.46-8.456l163.544-.004c4.608.014 8.456 3.827 8.453 8.456" style="fill:#000;fill-opacity:1;fill-rule:evenodd;stroke:none"/>
    <path d="m179.169 11.755-.007 69.963c.046 2.184-1.796 4.018-3.983 3.983H11.755c-2.184.035-4.026-1.8-3.983-3.983v-69.96c-.043-2.19 1.799-4.028 3.983-3.982l163.424-.007c2.184-.04 4.025 1.799 3.99 3.986" style="fill:#fcd116;fill-opacity:1;fill-rule:evenodd;stroke:none"/>
    <path d="M170.83 24.9c-.195-1.704-.46-2.488-1.176-3.408-.853-1.246-2.166-1.898-3.672-1.898-3.672 0-5.574 3.21-5.574 9.239 0 6.883 1.771 10.107 5.768 10.107 2.625 0 4.59-2.24 4.653-5.323h-2.685c0 1.379-.391 2.691-1.968 2.691-2.297 0-3.214-2.166-3.214-7.539 0-4.854.794-6.558 2.95-6.558 1.248 0 1.971.854 2.232 2.689h2.685zm-14.161-4.982h-2.622v18.68h2.622v-18.68zm-5.18 2.625v-2.625h-9.5v18.68h2.689v-8.78h3.736v-2.555h-3.736v-4.72h6.812zm-12.057 0v-2.625h-9.5v18.68h2.688v-8.78h3.729v-2.555h-3.73v-4.72h6.813zm-16.715 8.322h-2.688l1.309-5.373 1.38 5.373zm4.657 7.733-4.657-18.68H120.1l-4.657 18.68h2.685l1.248-5.112h3.997l1.316 5.112h2.685zM111.185 24.9c0 1.506-.854 2.363-2.43 2.363h-2.745v-4.72h2.744c1.443 0 2.431.914 2.431 2.357m2.621 13.698-2.688-9.172c1.767-.657 2.688-2.297 2.688-4.526 0-3.013-1.968-4.982-4.918-4.982h-5.57v18.68h2.692v-8.78h2.55l2.49 8.78h2.756zm-13.042-16.186v-2.494h-9.507v2.494h3.414v16.186h2.678V22.412h3.415zM80.25 33.486c0-2.685-1.573-4.717-5.182-6.816-1.376-.786-1.771-1.308-1.771-2.226 0-1.248.987-2.166 2.23-2.166 1.181 0 2.102.854 2.162 2.166h2.56c-.066-2.818-2.102-4.85-4.723-4.85-2.688 0-4.783 2.162-4.783 4.85 0 1.637.786 3.08 2.296 4.128 3.8 2.554 2.752 1.83 3.143 2.23 1.115.85 1.507 1.633 1.507 2.684 0 1.51-1.179 2.822-2.621 2.822-1.835 0-2.622-1.64-2.622-3.213h-2.62c0 3.08 1.968 5.845 5.242 5.845 2.885 0 5.182-2.438 5.182-5.454m-12.654 0c0-2.685-1.574-4.717-5.179-6.816-1.376-.786-1.771-1.308-1.771-2.226 0-1.248.988-2.166 2.23-2.166 1.181 0 2.099.854 2.162 2.166h2.558c-.064-2.818-2.1-4.85-4.72-4.85-2.689 0-4.784 2.162-4.784 4.85 0 1.637.783 3.08 2.293 4.128 3.8 2.554 2.752 1.83 3.147 2.23 1.115.85 1.506 1.633 1.506 2.684 0 1.51-1.178 2.822-2.621 2.822-1.834 0-2.621-1.64-2.621-3.213h-2.621c0 3.08 1.968 5.845 5.242 5.845 2.886 0 5.179-2.438 5.179-5.454m-15.798-4.261c0 2.166-.134 3.28-.589 4.79-.458 1.57-1.178 2.293-2.293 2.293-1.182 0-1.901-.723-2.363-2.293-.392-1.51-.59-2.691-.59-4.72 0-2.102.131-3.344.59-4.79.462-1.57 1.181-2.294 2.363-2.294 1.115 0 1.835.724 2.293 2.364.395 1.376.59 2.554.59 4.65m2.553 0c0-2.82-.257-4.59-1.047-6.421-.914-2.293-2.23-3.21-4.389-3.21-2.166 0-3.475.917-4.455 3.143-.787 1.767-1.052 3.669-1.052 6.488 0 2.889.265 4.66 1.052 6.49.913 2.227 2.226 3.225 4.455 3.225 2.096 0 3.475-.998 4.389-3.224.79-1.771 1.047-3.602 1.047-6.491M38.033 24.9c0 1.506-.85 2.363-2.424 2.363h-2.755v-4.72h2.755c1.44 0 2.424.914 2.424 2.357m2.621 13.698-2.685-9.172c1.768-.657 2.685-2.297 2.685-4.526 0-3.013-1.961-4.982-4.914-4.982h-5.57v18.68h2.684v-8.78h2.558l2.49 8.78h2.752zM26.497 24.9c-.194-1.704-.458-2.488-1.178-3.408-.85-1.246-2.166-1.898-3.673-1.898-3.668 0-5.566 3.21-5.566 9.239 0 6.883 1.767 10.107 5.764 10.107 2.625 0 4.586-2.24 4.653-5.323H23.81c0 1.379-.392 2.691-1.965 2.691-2.293 0-3.214-2.166-3.214-7.539 0-4.854.79-6.558 2.95-6.558 1.248 0 1.968.854 2.229 2.689h2.688zM168.23 60.093c0 1.707-.851 2.688-2.42 2.688h-2.756v-5.306h2.755c1.44 0 2.42 1.048 2.42 2.618m2.625 0c0-3.144-1.969-5.243-4.914-5.243h-5.574v18.687h2.688v-8.199h2.886c3.143 0 4.914-1.834 4.914-5.245m-16.778 4.067c0 2.163-.13 3.277-.59 4.784-.462 1.573-1.181 2.29-2.3 2.29-1.178 0-1.894-.717-2.356-2.29-.392-1.507-.59-2.688-.59-4.72 0-2.1.135-3.345.59-4.784.462-1.573 1.178-2.297 2.356-2.297 1.119 0 1.838.724 2.3 2.36.389 1.376.59 2.562.59 4.657m2.554 0c0-2.819-.261-4.59-1.048-6.427-.914-2.294-2.23-3.214-4.396-3.214-2.159 0-3.47.92-4.448 3.15-.794 1.771-1.051 3.672-1.051 6.491 0 2.882.257 4.653 1.05 6.488.911 2.226 2.227 3.224 4.45 3.224 2.102 0 3.481-.998 4.395-3.224.787-1.771 1.048-3.606 1.048-6.488m-13.173-6.819v-2.49h-9.504v2.49h3.405v16.196h2.688V57.341h3.411zm-11.211 11.077c0-2.68-1.57-4.716-5.175-6.815-1.376-.787-1.768-1.31-1.768-2.227 0-1.248.984-2.166 2.223-2.166 1.181 0 2.102.85 2.166 2.166h2.554c-.06-2.822-2.096-4.857-4.72-4.857-2.685 0-4.78 2.166-4.78 4.857 0 1.634.786 3.077 2.293 4.128 3.803 2.558 2.751 1.834 3.143 2.233 1.115.847 1.51 1.637 1.51 2.681 0 1.507-1.179 2.815-2.621 2.815-1.835 0-2.625-1.633-2.625-3.206h-2.618c0 3.076 1.965 5.845 5.243 5.845 2.882 0 5.175-2.438 5.175-5.454m-17.438-11.077v-2.49h-9.5v2.49h3.408v16.196h2.688V57.341h3.404zm-14.347 6.82c0 2.162-.138 3.276-.593 4.783-.459 1.573-1.175 2.29-2.293 2.29-1.182 0-1.895-.717-2.35-2.29-.402-1.507-.6-2.688-.6-4.72 0-2.1.131-3.345.6-4.784.455-1.573 1.168-2.297 2.35-2.297 1.118 0 1.834.724 2.293 2.36.395 1.376.593 2.562.593 4.657m2.554 0c0-2.819-.265-4.59-1.052-6.427-.913-2.294-2.233-3.214-4.388-3.214-2.156 0-3.472.92-4.46 3.15-.782 1.771-1.044 3.672-1.044 6.491 0 2.882.262 4.653 1.045 6.488.92 2.226 2.243 3.224 4.459 3.224 2.099 0 3.475-.998 4.388-3.224.787-1.771 1.052-3.606 1.052-6.488m-14.616 9.377V54.85h-2.688v11.212L80.599 54.85h-2.688v18.687h2.688V61.01l5.768 12.527H88.4zM66.77 68.418c0-2.68-1.577-4.716-5.179-6.815-1.379-.787-1.77-1.31-1.77-2.227 0-1.248.98-2.166 2.23-2.166 1.177 0 2.098.85 2.162 2.166h2.557c-.07-2.822-2.099-4.857-4.72-4.857-2.688 0-4.79 2.166-4.79 4.857 0 1.634.79 3.077 2.296 4.128 3.803 2.558 2.755 1.834 3.147 2.233 1.118.847 1.51 1.637 1.51 2.681 0 1.507-1.182 2.815-2.622 2.815-1.837 0-2.62-1.633-2.62-3.206h-2.625c0 3.076 1.965 5.845 5.245 5.845 2.883 0 5.18-2.438 5.18-5.454m-12.655 5.119v-2.625H47.3v-6.16h3.867v-2.56H47.3v-4.717h6.096V54.85h-8.784v18.687h9.504zM38.32 64.16c0 2.163-.13 3.277-.59 4.784-.462 1.573-1.181 2.29-2.292 2.29-1.182 0-1.902-.717-2.36-2.29-.392-1.507-.59-2.688-.59-4.72 0-2.1.13-3.345.59-4.784.458-1.573 1.178-2.297 2.36-2.297 1.11 0 1.83.724 2.293 2.36.395 1.376.589 2.562.589 4.657m2.557 0c0-2.819-.26-4.59-1.047-6.427-.918-2.294-2.23-3.214-4.392-3.214-2.163 0-3.475.92-4.46 3.15-.783 1.771-1.047 3.672-1.047 6.491 0 2.882.264 4.653 1.047 6.488.918 2.226 2.23 3.224 4.46 3.224 2.099 0 3.474-.998 4.392-3.224.786-1.771 1.047-3.606 1.047-6.488m-16.912.13c0 1.447-.127 2.752-.26 3.934-.262 1.44-1.12 2.688-2.689 2.688h-2.23V57.475h2.23c1.178 0 1.968.586 2.427 1.901.325.787.522 2.816.522 4.915m2.621-.13c0-1.444-.197-3.08-.458-4.46-.328-1.901-1.112-3.34-2.23-4.127-.652-.526-1.44-.724-3.013-.724h-4.787v18.687h5.179c1.051 0 1.969-.268 2.621-.854 1.838-1.45 2.688-4.201 2.688-8.523" style="fill:#000;fill-opacity:1;fill-rule:evenodd;stroke:none"/>
</svg>
