<svg xmlns="http://www.w3.org/2000/svg" width="2160" height="1080" id="svg2" version="1.1">
    <defs id="defs4">
        <clipPath id="Clip0">
            <path d="M0 0v864.5h1728.5V0H0z" transform="translate(0 .5)" id="path7"/>
        </clipPath>
        <style type="text/css" id="style561">
            .str2{stroke:#000}.fil9{fill:#838281}.fil6{fill:#dededd}.fil8{fill:#000}.fil7{fill:#1f1a17;fill-rule:nonzero}.str0{stroke:#000;stroke-width:.2646}.str1{stroke:#d4ae05;stroke-width:.3969}.fil4{fill:none}.fil0{fill:#005121}.fil2{fill:#00722e}.fil1{fill:#00923f}.fil5{fill:#0a73b9}.fil3{fill:#fff}
        </style>
    </defs>
    <g id="layer1" transform="translate(1576.932 417.847)">
        <path style="fill:#fcd116;fill-rule:nonzero;stroke:none" d="M583.068 527.153c0 74.558-60.438 135-135 135h-1890c-74.56 0-135-60.442-135-135v-810c0-74.56 60.44-135 135-135h1890c74.562 0 135 60.44 135 135v810z" id="path11"/>
        <path style="fill:#000;fill-rule:nonzero;stroke:none" d="M-1441.932 628.403c-55.83 0-101.25-45.421-101.25-101.25v-810c0-55.83 45.42-101.25 101.25-101.25h1890c55.825 0 101.25 45.42 101.25 101.25v810c0 55.829-45.425 101.25-101.25 101.25h-1890z" id="path13"/>
        <path style="fill:#fcd116;fill-rule:nonzero;stroke:none" d="M-1441.932 572.153c-24.813 0-45-20.186-45-45v-810c0-24.813 20.187-45 45-45h1890c24.812 0 45 20.187 45 45v810c0 24.814-20.188 45-45 45h-1890z" id="path15"/>
        <g transform="matrix(1.25 0 0 1.25 -1577.245 -418.784)" id="Background" style="fill:#000;stroke:none">
            <g id="Group1" clip-path="url(#Clip0)" style="fill:#000;stroke:none">
                <path style="fill:#000;fill-rule:nonzero;stroke:none" d="M63.532 39.221c-3.97-11.369-10.777-16.485-20.988-16.485H23.258v116.526h19.286c13.614 0 20.988-10.799 23.258-23.305 1.134-10.232 2.268-21.6 2.268-34.105 0-18.19-1.701-35.811-4.538-42.631zm3.971 115.388C61.831 159.726 53.889 162 44.813 162H0V0h41.41c13.614 0 20.421 1.704 26.093 6.252 9.643 6.82 16.45 19.326 19.287 35.811 2.269 11.936 3.971 26.146 3.971 38.652 0 37.515-7.375 61.39-23.258 73.894z" transform="translate(153.297 495.75)" id="path17"/>
                <path style="fill:#000;fill-rule:nonzero;stroke:none" d="M0 162V0h76.389v22.736H23.373v40.926h33.635v22.169H23.373v53.431H82.66V162H0z" transform="translate(401.238 495.75)" id="path19"/>
                <path style="fill:#000;fill-rule:nonzero;stroke:none" d="M73.176 162.001 23.258 53.433v108.568H0V0h23.258l44.245 97.2V0H90.76v162.001H73.176z" transform="translate(711.099 495.749)" id="path21"/>
                <path style="fill:#000;fill-rule:nonzero;stroke:none" d="M68.137 43.201c-4.008-14.211-10.306-20.463-20.04-20.463-10.306 0-16.605 6.252-20.613 19.895-4.008 12.504-5.153 23.305-5.153 41.494 0 17.621 1.718 27.854 5.153 40.926 4.008 13.643 10.307 19.895 20.613 19.895 9.734 0 16.032-6.252 20.04-19.895 4.008-13.072 5.154-22.736 5.154-41.494 0-18.19-1.719-28.422-5.154-40.358zm18.322 96.631c-8.016 19.326-20.039 27.854-38.362 27.854-19.468 0-30.919-8.528-38.935-27.854C2.29 123.916 0 108.569 0 83.559c0-24.443 2.29-40.926 9.162-56.274C17.75 7.959 29.202 0 48.097 0c18.895 0 30.346 7.959 38.362 27.854 6.872 15.916 9.162 31.262 9.162 55.705 0 25.01-2.29 40.926-9.162 56.273z" transform="translate(273.217 492.906)" id="path23"/>
                <path style="fill:#000;fill-rule:nonzero;stroke:none" d="M68.136 43.201C64.129 28.99 57.83 22.738 48.097 22.738c-10.306 0-16.605 6.252-20.613 19.895-4.01 12.504-5.154 23.305-5.154 41.494 0 17.621 1.719 27.854 5.154 40.926 4.008 13.643 10.307 19.895 20.613 19.895 9.733 0 16.032-6.252 20.039-19.895 4.008-13.072 5.155-22.736 5.155-41.494 0-18.19-1.719-28.422-5.155-40.358zm18.323 96.631c-8.016 19.326-20.039 27.854-38.362 27.854-19.468 0-30.919-8.528-38.935-27.854C2.289 123.916 0 108.569 0 83.559c0-24.443 2.289-40.926 9.162-56.274C17.75 7.959 29.201 0 48.097 0c18.895 0 30.346 7.959 38.362 27.854 6.871 15.916 9.162 31.262 9.162 55.705 0 25.01-2.291 40.926-9.162 56.273z" transform="translate(834.26 492.906)" id="path25"/>
                <path style="fill:#000;fill-rule:nonzero;stroke:none" d="M68.14 43.201C64.13 28.99 57.83 22.738 48.1 22.738c-10.31 0-16.61 6.252-20.61 19.895-4.01 12.504-5.16 23.305-5.16 41.494 0 17.621 1.72 27.854 5.16 40.926 4 13.643 10.3 19.895 20.61 19.895 9.73 0 16.03-6.252 20.04-19.895 4.01-13.072 5.15-22.736 5.15-41.494 0-18.19-1.72-28.422-5.15-40.358zm18.32 96.631c-8.01 19.326-20.04 27.854-38.36 27.854-19.47 0-30.92-8.528-38.94-27.854C2.29 123.916 0 108.569 0 83.559c0-24.443 2.29-40.926 9.16-56.274C17.75 7.959 29.2 0 48.1 0c18.89 0 30.35 7.959 38.36 27.854 6.87 15.916 9.16 31.262 9.16 55.705 0 25.01-2.29 40.926-9.16 56.273z" transform="translate(1356.42 492.906)" id="path27"/>
                <path style="fill:#000;fill-rule:nonzero;stroke:none" d="M47.09 22.736H23.26v46.043h23.83c13.61 0 20.98-8.527 20.98-23.305 0-13.642-8.51-22.738-20.98-22.738zm1.13 68.211H23.26V162H0V0h48.22c25.53 0 42.54 18.189 42.54 45.474 0 29.557-15.31 45.473-42.54 45.473z" transform="translate(1484.44 495.75)" id="path29"/>
                <path style="fill:#000;fill-rule:nonzero;stroke:none" d="M46.129 90.029c-7.009-4.54-13.814-9.097-18.158-12.155C14.91 68.681 7.992 56.275 7.992 42.064 7.992 18.758 26.258 0 49.662 0 72.495 0 90.19 17.621 90.761 42.064H68.498c-.57-11.369-8.561-18.758-18.836-18.758-10.846 0-19.408 7.958-19.408 18.758 0 7.958 3.425 12.505 15.412 19.326 31.395 18.189 45.095 35.81 45.095 59.116 0 26.148-19.979 47.179-45.095 47.179C17.125 167.685 0 143.811 0 117.095h22.833c0 13.644 6.85 27.853 22.833 27.853 12.559 0 22.832-11.369 22.832-24.442 0-10.151-4.194-18.702-22.369-30.477z" transform="translate(503.338 492.907)" id="path31"/>
                <path style="fill:#000;fill-rule:nonzero;stroke:none" d="M46.13 90.029c-7.01-4.54-13.81-9.097-18.16-12.155-13.06-9.193-19.98-21.599-19.98-35.81C7.99 18.758 26.26 0 49.66 0c22.83 0 40.53 17.621 41.1 42.064H68.5c-.57-11.369-8.56-18.758-18.84-18.758-10.84 0-19.41 7.958-19.41 18.758 0 7.958 3.43 12.505 15.42 19.326 31.39 18.189 45.09 35.81 45.09 59.116 0 26.148-19.98 47.179-45.09 47.179-28.54 0-45.67-23.874-45.67-50.59h22.83c0 13.644 6.85 27.853 22.84 27.853 12.56 0 22.83-11.369 22.83-24.442 0-10.151-4.19-18.702-22.37-30.477z" transform="translate(1148.98 492.907)" id="path33"/>
                <path style="fill:#000;fill-rule:nonzero;stroke:none" d="M53.02 21.601v140.4H29.645v-140.4H0V0h82.66v21.601H53.02z" transform="translate(949.32 495.749)" id="path35"/>
                <path style="fill:#000;fill-rule:nonzero;stroke:none" d="M53.02 21.601v140.4H29.64v-140.4H0V0h82.66v21.601H53.02z" transform="translate(1254.32 495.749)" id="path37"/>
                <path style="fill:#000;fill-rule:nonzero;stroke:none" d="m43.76 55.137-9.09 42.631h17.62l-8.53-42.631zM65.93 162l-9.1-43.201H30.12L21.03 162H0L32.96 0h21.03l33.53 162H65.93z" transform="translate(1175.93 207.75)" id="path39"/>
                <path style="fill:#000;fill-rule:nonzero;stroke:none" d="M67.42 147.79c-3.54 11.751-14.28 19.326-28.57 19.326-16.57 0-26.85-6.821-31.99-21.599C2.29 131.874 0 109.706 0 83.558c0-14.779 1.72-36.379 4-48.885C8.57 9.663 18.29 0 37.71 0 55.99 0 67.99 11.369 69.7 31.263H48.57c-.58-6.821-4.57-10.232-10.29-10.232-7.43 0-11.43 5.117-13.71 15.916-2.86 13.074-3.43 25.011-3.43 46.611 0 22.737.57 32.4 3.43 46.043 2.28 10.798 6.28 16.484 13.14 16.484 7.43 0 10.86-5.686 10.86-19.895H69.7c0 12.504-.57 15.915-2.28 21.6z" transform="translate(1506.53 205.476)" id="path41"/>
                <path style="fill:#000;fill-rule:nonzero;stroke:none" d="M20.35 21.031v41.495h23.73v21.599H20.35V162H0V0h61.6v21.031H20.35z" transform="translate(1286.13 207.75)" id="path43"/>
                <path style="fill:#000;fill-rule:nonzero;stroke:none" d="M20.35 21.031v41.495h23.73v21.599H20.35V162H0V0h61.6v21.031H20.35z" transform="translate(1370.41 207.75)" id="path45"/>
                <path style="fill:#000;fill-rule:nonzero;stroke:none" d="M0 162V0h21.06v162H0z" transform="translate(1454.69 207.75)" id="path47"/>
                <path style="fill:#000;fill-rule:nonzero;stroke:none" d="M30.44 21.032h-9.96v44.337h13.38c11.38 0 14.79-5.116 14.79-20.464 0-18.189-3.98-23.873-18.21-23.873zm22.19 60.253L69.13 162H48.08L29.87 86.401h-9.39V162H0V0h31.58C56.62 0 69.7 15.348 69.7 45.474c0 18.19-5.12 28.422-17.07 35.811z" transform="translate(1093.27 207.75)" id="path49"/>
                <path style="fill:#000;fill-rule:nonzero;stroke:none" d="M40.45 21.032V162H20.01V21.032H0V0h61.6v21.032H40.45z" transform="translate(1008.99 207.75)" id="path51"/>
                <path style="fill:#000;fill-rule:nonzero;stroke:none" d="M67.415 147.789c-3.543 11.752-14.283 19.326-28.564 19.326-16.57 0-26.853-6.821-31.995-21.599C2.285 131.873 0 109.705 0 83.558c0-14.78 1.715-36.38 4-48.885C8.57 9.662 18.282 0 37.707 0 55.989 0 67.987 11.368 69.7 31.263H48.561c-.571-6.822-4.57-10.232-10.283-10.232-7.427 0-11.427 5.116-13.712 15.916-2.856 13.074-3.427 25.01-3.427 46.611 0 22.736.571 32.399 3.427 46.042 2.285 10.799 6.285 16.484 13.141 16.484 7.427 0 10.854-5.685 10.854-19.895H69.7c0 12.505-.57 15.916-2.285 21.6z" transform="translate(358.087 205.477)" id="path53"/>
                <path style="fill:#000;fill-rule:nonzero;stroke:none" d="M67.415 148.357c-3.726 11.275-14.283 18.758-29.137 18.758-16.568 0-26.281-6.252-31.422-21.599C1.714 130.736 0 115.957 0 82.989c0-32.4 1.714-46.611 7.427-61.958C12.569 6.252 22.282 0 38.278 0 56.56 0 67.415 11.368 69.7 31.263H49.133c-1.142-6.822-4.569-10.232-10.284-10.232-7.426 0-12.569 5.116-14.282 15.916-2.285 13.074-3.428 23.873-3.428 46.042 0 22.168 1.143 32.968 2.856 46.611 2.285 10.799 6.285 16.484 13.712 16.484s11.426-6.821 11.426-17.621v-21.601h-9.712V85.831H69.7v41.495c0 7.39-.644 16.069-2.285 21.031z" transform="translate(831.29 205.477)" id="path55"/>
                <path style="fill:#000;fill-rule:nonzero;stroke:none" d="M0 162V0h21.06v162H0z" transform="translate(674.11 207.75)" id="path57"/>
                <path style="fill:#000;fill-rule:nonzero;stroke:none" d="M58.964 162V65.938l-18.759 60.82-19.748-60.82V162H0V0h20.457l19.748 57.411L58.964 0h20.457v162H58.964z" transform="translate(559.05 207.75)" id="path59"/>
                <path style="fill:#000;fill-rule:nonzero;stroke:none" d="M52.134 162 20.401 65.938V162H0V0h20.401l28.9 80.716V0h20.401v162H52.134z" transform="translate(257.606 207.75)" id="path61"/>
                <path style="fill:#000;fill-rule:nonzero;stroke:none" d="M52.133 162 20.4 65.938V162H0V0h20.4l28.9 80.716V0h20.401v162H52.133z" transform="translate(730.81 207.75)" id="path63"/>
                <path style="fill:#000;fill-rule:nonzero;stroke:none" d="M40.36 21.032c-18.759 0-16.204 50.589-16.204 61.958 0 10.8-2.555 63.095 16.204 63.095 18.189 0 15.634-52.295 15.634-63.095 0-13.074-.287-61.958-15.634-61.958zm0 146.084c-40.36 0-37.237-57.41-37.237-84.126C3.123 55.138.569 0 40.36 0c39.79 0 37.234 55.706 37.234 82.99 0 26.716 2.556 84.126-37.234 84.126z" transform="translate(149.198 205.476)" id="path65"/>
                <path style="fill:#000;fill-rule:nonzero;stroke:none" d="M40.359 21.032c-18.758 0-16.203 50.589-16.203 61.958 0 10.8-2.555 63.095 16.203 63.095 18.189 0 15.635-52.295 15.635-63.095 0-13.074-.287-61.958-15.635-61.958zm0 146.084C0 167.116 3.123 109.706 3.123 82.99 3.123 55.138.568 0 40.359 0s37.234 55.706 37.234 82.99c0 26.716 2.557 84.126-37.234 84.126z" transform="translate(450.641 205.476)" id="path67"/>
            </g>
        </g>
    </g>
</svg>
