<svg xmlns="http://www.w3.org/2000/svg" width="288" height="288.002" viewBox="-0.024 -0.556 288 288.002" xml:space="preserve">
    <path d="M4.096 133.455 133.981 3.566c5.497-5.496 14.492-5.496 19.982 0l129.894 129.889c5.491 5.496 5.491 14.489 0 19.983L153.961 283.326c-5.49 5.493-14.485 5.493-19.982 0L4.096 153.438c-5.494-5.494-5.494-14.487 0-19.983z" style="fill:#dd7500;stroke:none;fill-opacity:1"/>
    <path clip-rule="evenodd" d="M7.227 135.519 136.05 6.698c4.362-4.359 11.49-4.359 15.85 0l128.823 128.82c4.362 4.362 4.362 11.493 0 15.852L151.9 280.194c-4.36 4.357-11.487 4.357-15.85 0L7.227 151.37c-4.357-4.358-4.357-11.489 0-15.851" style="fill-rule:evenodd;stroke:none;fill:#000"/>
    <path clip-rule="evenodd" d="M11.255 139.486 140.012 10.723c2.185-2.177 5.75-2.177 7.922 0l128.762 128.763c2.18 2.176 2.18 5.743 0 7.92L147.934 276.162c-2.172 2.183-5.737 2.183-7.922 0L11.255 147.406c-2.175-2.177-2.175-5.744 0-7.92" style="fill:#dd7500;fill-rule:evenodd;stroke:none;fill-opacity:1"/>
    <path d="M92.118 182.013v-18.705l-9.01 18.705-8.918-18.705v18.705h-5.396v-30.642h5.396l8.918 18.156 9.01-18.156h5.396v30.642h-5.396zM105.472 182.013v-30.642h22.364v5.488H111.05v5.67h9.147v5.625h-9.147v8.37h17.333v5.488h-22.912zM153.125 182.013l-4.938-12.028H140v12.028h-5.488v-30.642h14.086c2.241 0 3.66.319 5.26 1.28 2.928 1.601 4.757 4.619 4.757 8.096 0 3.43-1.83 6.448-4.984 8.141l5.625 13.125h-6.13zm-4.436-25.153H140v7.638h8.69c2.697 0 4.436-1.51 4.436-3.75 0-2.379-1.739-3.888-4.437-3.888zM189.255 166.737v3.979c0 6.678-5.396 11.845-12.164 11.845-9.01 0-12.668-7.958-12.668-15.915 0-9.375 5.03-15.823 12.668-15.823 5.488 0 9.238 2.927 11.387 7.637l-5.58 1.922c-1.188-2.562-3.108-4.07-5.807-4.07-4.3 0-7.181 4.299-7.181 10.335 0 4.939 1.509 10.428 7.18 10.428 3.019 0 5.717-2.058 6.449-4.849h-5.03v-5.487h10.746zM196.251 182.013v-30.642h22.364v5.488h-16.784v5.67h9.147v5.625h-9.146v8.37h17.333v5.488h-22.913zM72.704 109.465v26.343h-4.848v-26.343H60.86v-4.299h18.934v4.299h-7.089zM101.472 135.808l-4.94-13.354h-5.808v13.354h-4.848v-30.641h10.107c2.378 0 3.98.229 5.489.96 2.698 1.28 4.619 4.528 4.619 7.637 0 3.248-1.921 6.449-4.756 7.729l5.396 14.314h-5.26zm-2.15-25.245c-.824-.457-1.19-.549-2.79-.549h-5.809v7.5h5.808c1.51 0 2.012-.091 2.79-.503 1.19-.686 1.922-1.966 1.922-3.248a3.697 3.697 0 0 0-1.922-3.2zM131.518 135.808l-3.02-8.598h-9.557l-3.02 8.598h-5.166l10.564-30.642h4.801l10.564 30.642h-5.167zm-7.73-22.135-3.154 8.598h6.128l-2.973-8.598zM147.706 110.014v7.5h8.918v4.939h-8.918v13.354h-4.848v-30.64h19.024v4.848h-14.177zM172.814 110.014v7.5h8.918v4.939h-8.918v13.354h-4.848v-30.64h19.024v4.848h-14.177zM193.075 135.808v-30.641h4.938v30.642h-4.939zM217.86 136.357c-4.527 0-7.408-1.738-9.375-5.488-1.37-2.699-2.24-6.586-2.24-10.427 0-4.848 1.28-9.696 3.43-12.394 1.83-2.241 4.391-3.43 7.866-3.43 4.62 0 7.5 1.967 9.558 6.266l-4.527 1.921c-1.69-2.607-2.698-3.247-5.03-3.247-2.47 0-4.116 1.098-5.168 3.796-.777 1.829-1.188 4.481-1.188 7.089 0 3.338.73 6.677 1.92 8.598 1.098 1.601 2.471 2.378 4.62 2.378 2.058 0 3.566-1.097 4.756-3.567l4.618 1.738c-1.83 4.48-4.85 6.767-9.24 6.767zM108.856 61.676v26.343h-4.847V61.676H97.01v-4.299h18.934v4.299h-7.088zM136.478 88.019V74.664H125.32v13.354h-4.847V57.377h4.847v12.348h11.159V57.377h4.847v30.642h-4.847zM161.953 88.019l-4.939-13.354h-5.808v13.354h-4.848V57.377h10.108c2.378 0 3.978.229 5.487.96 2.698 1.281 4.619 4.528 4.619 7.638 0 3.247-1.921 6.448-4.756 7.729l5.396 14.314h-5.258zm-2.15-25.245c-.823-.458-1.189-.549-2.79-.549h-5.808v7.5h5.808c1.51 0 2.013-.091 2.79-.503 1.19-.686 1.921-1.966 1.921-3.247a3.693 3.693 0 0 0-1.92-3.201zM189.53 83.4c-1.6 3.018-5.26 5.168-9.01 5.168s-7.409-2.15-9.055-5.168a15.453 15.453 0 0 1-1.372-6.357V57.377h4.848v19.665c0 3.979 2.24 6.586 5.58 6.586 3.339 0 5.579-2.607 5.579-6.586V57.377h4.848v19.665c0 2.379-.548 4.528-1.417 6.358zM99.641 227.433v-30.642h4.848v26.113h14.177v4.528H99.641zM123.194 227.433v-30.642h18.063v4.848h-13.216v7.5h8.918v4.939h-8.918v8.415h14.177v4.939h-19.025zM152.236 201.639v7.5h8.918v4.939h-8.918v13.354h-4.85V196.79h19.026v4.848h-14.176zM181.23 201.091v26.342h-4.848v-26.342h-6.999v-4.3h18.934v4.3h-7.088z" style="stroke:none;fill:#000"/>
</svg>
