<svg xmlns="http://www.w3.org/2000/svg" width="89.985" height="90.001" viewBox="0 0 253.958 254.003">
    <path d="M3.362 118.76 118.716 3.403c4.54-4.536 11.942-4.536 16.482 0l115.355 115.359c4.54 4.537 4.54 11.938 0 16.478L135.198 250.597c-4.54 4.54-11.941 4.54-16.482 0L3.362 135.24c-4.48-4.48-4.484-11.998 0-16.478" style="fill:#fcd116;fill-opacity:1;fill-rule:nonzero;stroke:none"/>
    <path d="M5.68 121.02 120.978 5.723c3.27-3.27 8.69-3.263 11.96 0l115.298 115.299c3.274 3.274 3.26 8.682 0 11.959L132.938 248.278c-3.274 3.264-8.682 3.267-11.96 0L5.68 132.98c-3.26-3.277-3.274-8.686 0-11.96" style="fill:#000;fill-opacity:1;fill-rule:evenodd;stroke:none"/>
    <path d="M8.926 124.183 124.143 8.966c1.52-1.577 4.11-1.573 5.634 0L244.99 124.183c1.574 1.52 1.574 4.114 0 5.634L129.777 245.031c-1.52 1.577-4.117 1.58-5.634 0L8.926 129.817c-1.574-1.524-1.574-4.113 0-5.634" style="fill:#fcd116;fill-opacity:1;fill-rule:evenodd;stroke:none"/>
    <path d="M207.905 92.193h-5.017l-2.395 16.348-4.033-16.348h-4.794l-3.923 16.348-2.395-16.348h-5.01l4.576 31.055h4.357l4.79-19.939 4.908 19.94h4.356l4.58-31.056zm-36.502 15.586c0 2.396-.547 5.447-1.2 7.08-1.09 2.724-2.508 3.923-4.798 3.923-1.958 0-3.263-.762-4.25-2.399-1.197-1.961-1.85-5.337-1.85-8.604 0-2.617.438-5.45 1.2-7.302 1.09-2.724 2.614-3.923 5.013-3.814 1.852.106 3.052.762 4.029 2.396 1.2 2.07 1.856 5.231 1.856 8.72m4.9 0c0-3.926-.762-7.85-2.071-10.573-1.958-3.813-4.685-5.556-8.604-5.556-3.599 0-6.107 1.09-7.96 3.49-2.066 2.941-3.375 7.513-3.375 12.64 0 3.7.871 7.841 2.177 10.46 1.855 3.813 4.579 5.573 8.935 5.573 3.27 0 5.775-1.108 7.518-3.503 2.18-2.727 3.38-7.63 3.38-12.53m-32.033-6.87c0 1.31-.765 2.618-1.965 3.27-.754.438-1.301.544-2.829.544h-5.884v-7.627h5.884c1.634 0 2.075.11 2.83.547 1.199.653 1.964 1.961 1.964 3.267m5.56 22.338-5.45-14.493c2.833-1.305 4.798-4.575 4.798-7.845 0-3.158-1.965-6.428-4.685-7.737-1.531-.762-3.165-.98-5.564-.98h-10.244v31.055h4.907v-13.512h5.884l5.017 13.512h5.337zm-31.824-22.338c0 1.308-.762 2.617-1.961 3.27-.762.437-1.306.543-2.833.543h-5.884v-7.627h5.884c1.633 0 2.07.11 2.833.547 1.2.653 1.961 1.961 1.961 3.267m5.56 22.338-5.45-14.493c2.832-1.305 4.794-4.575 4.794-7.845 0-3.158-1.962-6.428-4.685-7.737-1.524-.762-3.161-.98-5.556-.98h-10.242v31.055h4.9v-13.512h5.885l5.013 13.512h5.34zm-35.85-13.727h-6.212l3.161-8.72 3.052 8.72zm10.027 13.727L87.06 92.193h-4.9L71.478 123.25h5.232l3.051-8.714h9.698l3.048 8.714h5.236zm-30.84 0V92.193h-4.904v19.834L50.668 92.193h-4.904v31.056h4.904v-21.03l11.878 21.03h4.357zM194.266 169.709v-5.013h-14.383v-8.499h9.042v-5.013h-9.042v-7.627h13.402v-4.907h-18.309v31.059h19.29zm-25.174-9.264v-6.21h-10.57v4.904h5.67v1.306c0 2.836-2.29 4.794-5.447 4.794-1.856 0-3.27-.762-4.251-2.508-.98-1.955-1.524-5.228-1.524-8.495 0-2.618.434-5.45 1.2-7.303 1.086-2.723 2.72-3.81 5.228-3.81 2.398 0 3.704.977 5.009 3.7l4.685-1.851c-2.067-4.9-4.9-6.865-9.694-6.865-3.486 0-6.104 1.2-7.956 3.485-2.067 2.727-3.485 7.627-3.485 12.644 0 3.81.765 7.627 2.074 10.35 1.849 3.923 4.572 5.684 9.257 5.684 5.662 0 9.804-4.16 9.804-9.825m-31.373-6.319c0 4.142-.987 7.518-2.84 9.37-.867.872-1.845 1.2-3.485 1.2h-4.907v-21.139h5.56c1.308 0 2.399.543 3.164 1.309 1.52 1.633 2.508 5.119 2.508 9.26m5.01 0c0-6.106-1.856-11.003-5.123-13.839-1.63-1.305-2.829-1.637-5.993-1.637h-10.03v31.059H132.812c1.634-.106 3.267-.657 4.466-1.743 3.486-2.727 5.45-7.627 5.45-13.84m-27.572-15.476h-5.013v31.059h5.013V138.65zm-14.82 8.72c0 1.306-.763 2.615-1.962 3.271-.758.434-1.309.543-2.83.543H89.66v-7.627h5.885c1.633 0 2.07.11 2.829.543 1.2.657 1.961 1.962 1.961 3.27m5.557 22.339-5.447-14.492c2.833-1.31 4.798-4.576 4.798-7.846 0-3.161-1.965-6.431-4.685-7.737-1.528-.762-3.165-.984-5.56-.984H84.753v31.059h4.907v-13.512h5.885l5.013 13.512h5.334zm-30.4-8.612c0 2.4-1.308 3.599-3.813 3.599h-7.412v-8.499h6.213c1.09 0 1.418 0 2.07.215 1.743.657 2.943 2.622 2.943 4.685m-.656-14.382a4.598 4.598 0 0 1-1.743 3.598c-.871.649-1.524.871-2.942.871h-5.885v-7.627h7.194c2.18 0 3.376 1.09 3.376 3.158m5.669 14.273c0-3.376-1.852-5.99-5.122-7.518 2.942-1.633 4.356-3.92 4.356-6.97 0-4.47-3.704-7.85-8.604-7.85H59.367v31.059h11.77c1.414 0 3.266-.328 4.356-.762 2.942-1.2 5.013-4.58 5.013-7.959" style="fill:#000;fill-opacity:1;fill-rule:evenodd;stroke:none"/>
</svg>
