<svg xmlns="http://www.w3.org/2000/svg" width="89.985" height="90.001" viewBox="0 0 253.958 254.003">
    <path d="M3.362 118.76 118.716 3.403c4.54-4.536 11.942-4.536 16.482 0l115.355 115.359c4.54 4.537 4.54 11.938 0 16.478L135.198 250.597c-4.54 4.54-11.941 4.54-16.482 0L3.362 135.24c-4.48-4.48-4.484-11.998 0-16.478" style="fill:#fcd116;fill-opacity:1;fill-rule:nonzero;stroke:none"/>
    <path d="M5.68 121.02 120.978 5.723c3.27-3.27 8.69-3.263 11.96 0l115.298 115.299c3.274 3.274 3.26 8.682 0 11.959L132.938 248.278c-3.274 3.264-8.682 3.267-11.96 0L5.68 132.98c-3.26-3.277-3.274-8.686 0-11.96" style="fill:#000;fill-opacity:1;fill-rule:evenodd;stroke:none"/>
    <path d="M8.926 124.183 124.143 8.966c1.52-1.577 4.11-1.573 5.634 0L244.99 124.183c1.574 1.52 1.574 4.114 0 5.634L129.777 245.031c-1.52 1.577-4.117 1.58-5.634 0L8.926 129.817c-1.574-1.524-1.574-4.113 0-5.634" style="fill:#fcd116;fill-opacity:1;fill-rule:evenodd;stroke:none"/>
    <path d="M108.45 127.134v-4.357H97.113v-10.244h6.428v-4.248h-6.428v-7.846h10.136v-4.36H92.64v31.055h15.808zm-22.448 0V96.079h-4.473v18.634l-8.495-18.634H68.56v31.055h4.473v-20.81l9.585 20.81h3.383zM58.1 111.552c0 3.598-.219 5.45-.985 7.955-.758 2.614-1.957 3.813-3.81 3.813-1.964 0-3.16-1.199-3.926-3.813-.649-2.505-.98-4.466-.98-7.846 0-3.489.222-5.556.98-7.955.766-2.614 1.962-3.814 3.926-3.814 1.853 0 3.052 1.2 3.81 3.923.657 2.29.985 4.251.985 7.737m4.254 0c0-4.685-.44-7.627-1.746-10.679-1.528-3.813-3.704-5.34-7.303-5.34-3.594 0-5.774 1.527-7.411 5.23-1.306 2.943-1.747 6.104-1.747 10.789 0 4.794.441 7.736 1.747 10.788 1.527 3.704 3.704 5.358 7.411 5.358 3.486 0 5.775-1.654 7.303-5.358 1.305-2.942 1.746-5.994 1.746-10.788M186.9 178.773v-4.36h-11.335V164.17h6.431v-4.25h-6.43v-7.847H185.7v-4.36h-14.605v31.059H186.9zm-22.102-8.608v-6.431h-7.958v4.36h3.485v2.07c0 3.268-1.09 4.792-3.376 4.792-2.399 0-3.926-1.634-4.582-4.685-.434-2.4-.646-5.12-.646-7.733 0-3.704.543-7.193 1.411-8.72.766-1.525 1.965-2.29 3.485-2.29 2.184 0 3.599 1.421 3.708 3.488h4.473c-.222-4.575-3.598-7.845-8.071-7.845-3.595 0-6.752 2.399-7.846 5.665-1.09 2.942-1.415 6.103-1.415 10.46 0 4.032.657 8.393 1.634 10.682 1.524 3.486 4.25 5.355 7.958 5.355 3.158 0 5.666-1.65 6.866-4.378.652-1.305.874-2.61.874-4.79m-27.453-6.76c0 2.4-.211 4.576-.434 6.541-.434 2.399-1.852 4.466-4.462 4.466h-3.708v-22.338h3.708c1.954 0 3.263.981 4.028 3.161.547 1.305.868 4.685.868 8.17m4.364-.218c0-2.396-.332-5.119-.765-7.409-.544-3.16-1.856-5.56-3.708-6.865-1.087-.87-2.392-1.199-5.01-1.199h-7.958v31.059h8.615c1.742 0 3.266-.438 4.353-1.419 3.051-2.399 4.473-6.974 4.473-14.167m-24.391-15.473h-4.364v31.059h4.364v-31.059zm-14.044 8.283c0 2.505-1.418 3.923-4.029 3.923h-4.582v-7.846h4.582c2.396 0 4.029 1.528 4.029 3.923m4.357 22.776-4.466-15.255c2.942-1.09 4.466-3.817 4.466-7.52 0-5.014-3.267-8.284-8.174-8.284h-9.26v31.059h4.466V164.17h4.25l4.142 14.602h4.576zm-27.115-8.827c0 2.72-1.64 4.466-4.141 4.466h-4.47v-9.694h4.47c2.29 0 4.141 2.286 4.141 5.228m-.543-14.167c0 2.832-1.309 4.575-3.383 4.575h-4.685v-8.28h4.685c2.395 0 3.383 1.087 3.383 3.704m4.897 14.493c0-3.158-1.412-5.775-3.81-7.733 2.5-2.618 3.266-3.927 3.266-6.76 0-4.794-2.942-8.064-7.084-8.064H67.44v31.059h9.15c4.583 0 8.28-3.817 8.28-8.502M205.96 126.982v-4.36h-11.334v-10.241h6.434v-4.251h-6.434v-7.846h10.135v-4.357H190.16v31.055h15.8zm-22.45 0V95.927h-4.463v18.634l-8.502-18.634h-4.466v31.055h4.466v-20.814l9.589 20.814h3.376zm-29.422-12.858h-4.47l2.184-8.936 2.286 8.936zm7.74 12.858-7.74-31.055h-4.36l-7.737 31.055h4.47l2.067-8.498h6.65l2.177 8.498h4.473zm-21.692 0v-4.141h-11.328V95.927h-4.47v31.055h15.798z" style="fill:#000;fill-opacity:1;fill-rule:evenodd;stroke:none"/>
</svg>
