<?xml version="1.0" encoding="UTF-8" standalone="no"?>
<svg
   xmlns:dc="http://purl.org/dc/elements/1.1/"
   xmlns:cc="http://creativecommons.org/ns#"
   xmlns:rdf="http://www.w3.org/1999/02/22-rdf-syntax-ns#"
   xmlns:svg="http://www.w3.org/2000/svg"
   xmlns="http://www.w3.org/2000/svg"
   xmlns:sodipodi="http://sodipodi.sourceforge.net/DTD/sodipodi-0.dtd"
   xmlns:inkscape="http://www.inkscape.org/namespaces/inkscape"
   width="81.700005"
   height="81.701874"
   viewBox="0 0 230.57561 230.58084"
   version="1.1"
   id="svg2"
   inkscape:version="0.48.2 r9819"
   sodipodi:docname="AJAX1.svg">
  <metadata
     id="metadata62">
    <rdf:RDF>
      <cc:Work
         rdf:about="">
        <dc:format>image/svg+xml</dc:format>
        <dc:type
           rdf:resource="http://purl.org/dc/dcmitype/StillImage" />
        <dc:title />
      </cc:Work>
    </rdf:RDF>
  </metadata>
  <defs
     id="defs60" />
  <sodipodi:namedview
     pagecolor="#ffffff"
     bordercolor="#666666"
     borderopacity="1"
     objecttolerance="10"
     gridtolerance="10"
     guidetolerance="10"
     inkscape:pageopacity="0"
     inkscape:pageshadow="2"
     inkscape:window-width="1280"
     inkscape:window-height="1004"
     id="namedview58"
     showgrid="false"
     fit-margin-top="0"
     fit-margin-left="0"
     fit-margin-right="0"
     fit-margin-bottom="0"
     inkscape:zoom="5.6568543"
     inkscape:cx="69.590586"
     inkscape:cy="28.581863"
     inkscape:window-x="-8"
     inkscape:window-y="-8"
     inkscape:window-maximized="1"
     inkscape:current-layer="svg2" />
  <!-- draw the bicycle -->
  <!-- RIGHT -->
  <!-- LANE -->
  <!-- ONLY -->
  <path
     inkscape:connector-curvature="0"
     d="M 3.299355,107.28767 107.29121,3.2993773 c 4.39914,-4.3992 11.59934,-4.3992 16.00554,0 L 227.27095,107.28767 c 4.4062,4.4026 4.4062,11.6028 0,16.002 l -103.9742,103.9918 c -4.4062,4.3992 -11.6064,4.3992 -16.00554,0 L 3.299355,123.28967 c -4.39914,-4.3992 -4.39914,-11.5994 0,-16.002"
     style="fill:#ffd033;fill-opacity:1;fill-rule:nonzero;stroke:none"
     id="path3360" />
  <path
     inkscape:connector-curvature="0"
     d="M 5.803715,108.94467 108.93832,5.8100773 c 3.49249,-3.4925 9.20398,-3.4925 12.70353,0 L 224.76586,108.94467 c 3.48545,3.4889 3.48545,9.2004 0,12.6929 l -103.12401,103.1346 c -3.49955,3.489 -9.21104,3.489 -12.70353,0 L 5.803715,121.63757 c -3.48897,-3.4925 -3.48897,-9.204 0,-12.6929"
     style="fill:#000000;fill-opacity:1;fill-rule:evenodd;stroke:none"
     id="path3368" />
  <path
     inkscape:connector-curvature="0"
     d="M 9.028445,112.11927 112.12072,9.0340773 c 1.73566,-1.7462 4.60022,-1.7462 6.34647,0 L 221.54181,112.11927 c 1.74625,1.7463 1.74625,4.5967 0,6.3394 l -103.07462,103.0888 c -1.74626,1.7462 -4.61082,1.7462 -6.34647,0 L 9.028445,118.45867 c -1.74625,-1.7427 -1.74625,-4.5931 0,-6.3394"
     style="fill:#ffd033;fill-opacity:1;fill-rule:evenodd;stroke:none"
     id="path3372" />
  <path
     inkscape:connector-curvature="0"
     d="m 103.75564,174.45157 c 0,2.5365 -2.18722,4.6108 -4.960055,4.6108 -2.64583,0 -4.84011,-2.0743 -4.84011,-4.6108 0,-2.3071 2.19428,-4.1522 4.84011,-4.1522 2.652885,0 4.960055,1.8451 4.960055,4.1522 m -1.15006,-11.5323 c 0,1.6158 -1.73214,2.9986 -3.809995,2.9986 -2.06728,0 -3.79942,-1.3828 -3.79942,-2.9986 0,-1.8415 1.73214,-3.2279 3.79942,-3.2279 2.077855,0 3.809995,1.3864 3.809995,3.2279 m 5.53156,11.4159 c 0,-2.5364 -1.03716,-4.7272 -3.22792,-6.3394 1.38289,-1.4993 2.19075,-3.115 2.19075,-4.96 0,-4.2651 -3.91936,-7.8388 -8.304385,-7.8388 -4.37797,0 -8.18092,3.5737 -8.18092,7.8388 0,1.845 0.68792,3.4607 2.07434,4.96 -2.07434,1.6122 -3.11503,3.6865 -3.11503,6.3394 0,4.9566 4.26508,9.2216 9.22161,9.2216 4.960055,0 9.341555,-4.265 9.341555,-9.2216"
     style="fill:#000000;fill-opacity:1;fill-rule:evenodd;stroke:none"
     id="path3376" />
  <path
     inkscape:connector-curvature="0"
     d="m 138.92057,156.12017 -4.03577,0 -15.68098,27.0934 4.03578,0 15.68097,-27.0934 z"
     style="fill:#000000;fill-opacity:1;fill-rule:evenodd;stroke:none"
     id="path3380" />
  <path
     inkscape:connector-curvature="0"
     style="fill:#000000;fill-opacity:1;fill-rule:evenodd;stroke:none"
     d="m 119.34103,155.77517 c -1.84855,0 -3.13266,0.5821 -4.05694,1.8521 -1.03717,1.4958 -1.76389,3.8735 -1.76389,6.5264 0,1.9614 0.45508,4.1734 1.14653,5.5562 0.92428,1.958 2.19428,2.9105 4.49792,2.9105 1.72861,0 3.15736,-0.5821 3.96875,-1.8521 1.15006,-1.3829 1.85208,-3.9617 1.85208,-6.6146 0,-2.0743 -0.45508,-3.9723 -1.14653,-5.4681 -0.92075,-1.9614 -2.42005,-2.9104 -4.49792,-2.9104 z m 0,3.7924 c 0.69145,0 1.24531,0.2785 1.58751,0.9701 0.57854,0.9208 0.79375,2.1167 0.79375,3.616 0,1.0372 -0.21167,2.3072 -0.44098,2.9986 -0.45861,1.1536 -1.07597,1.6757 -2.11666,1.6757 -0.80787,0 -1.32645,-0.3704 -1.6757,-1.0583 -0.5715,-0.8079 -0.79375,-2.2331 -0.79375,-3.616 0,-1.0372 0.20827,-2.3036 0.44097,-2.9986 0.45862,-1.1501 1.1677,-1.7039 2.20486,-1.5875 z"
     id="path3384" />
  <path
     inkscape:connector-curvature="0"
     style="fill:#000000;fill-opacity:1;fill-rule:evenodd;stroke:none"
     d="m 138.65562,166.71127 c -1.8415,0 -3.22438,0.4974 -4.14514,1.7639 -1.04069,1.6157 -1.67569,4.0499 -1.67569,6.7028 0,1.9579 0.45861,4.1099 1.14653,5.3799 0.92426,2.0778 2.28247,2.9986 4.5861,2.9986 1.72861,0 3.04448,-0.5856 3.96875,-1.8521 1.15007,-1.4993 1.76389,-3.9899 1.76389,-6.5264 0,-2.0743 -0.45861,-4.1698 -1.14653,-5.5563 -1.04069,-2.0743 -2.42006,-2.9104 -4.49792,-2.9104 z m -0.0881,3.7042 c 0.80434,0.1163 1.41464,0.3669 1.76389,1.0583 0.57503,0.9208 0.79375,2.2049 0.79375,3.7042 0,1.0372 -0.21167,2.3072 -0.44097,2.9986 -0.46214,1.1501 -1.19592,1.5875 -2.11667,1.5875 -0.80786,0 -1.4217,-0.3669 -1.76388,-1.0583 -0.57503,-0.8079 -0.79376,-2.1449 -0.79376,-3.5278 0,-1.1536 0.18344,-2.3707 0.52918,-3.175 0.46213,-1.1536 1.10419,-1.5875 2.02846,-1.5875 z"
     id="path3392" />
  <path
     inkscape:connector-curvature="0"
     d="m 104.3342,111.73337 c 1.37937,-1.9615 1.6122,-4.6108 0.46214,-6.8016 -0.81139,-1.4957 -2.07434,-2.6529 -3.46075,-3.2279 l 33.8949,-17.522493 c -0.34572,1.4958 -0.22931,3.1115 0.57855,4.6108 1.15006,2.1873 3.34081,3.5737 5.76086,3.5737 l -37.23571,19.367493 z m -38.738535,19.8296 c 1.27,-1.9579 1.4993,-4.4944 0.34572,-6.6851 0,-0.1164 -0.11642,-0.2328 -0.11642,-0.3457 l 18.67959,-9.6873 -1.72861,-3.4572 9.56733,-4.9566 c -0.34572,1.4958 -0.23283,3.1115 0.57503,4.6108 1.15711,2.1908 3.34434,3.5737 5.76439,3.5737 l -33.08703,16.9474 z m -18.44675,2.5365 6.80508,-3.4607 c 0,0.1199 0.11289,0.2328 0.11289,0.3492 1.15358,2.1872 3.45722,3.5736 5.76439,3.5736 l -15.33173,7.9552 120.702945,0 -0.11289,-62.258193 -17.87172,9.2216 c 1.38289,-1.958 1.61572,-4.6073 0.46214,-6.7981 -0.80786,-1.4993 -2.07434,-2.5364 -3.45723,-3.115 l 7.83873,-4.1487 -16.60173,-32.0498 -67.327655,34.932 14.986,28.938393 -1.95791,1.0372 -8.98878,-17.409593 -14.76023,7.6094 0,13.490193 -15.21883,7.7223 -1.03717,2.8822 5.9937,11.5288 z"
     style="fill:#000000;fill-opacity:1;fill-rule:evenodd;stroke:none"
     id="path3400" />
</svg>
