<svg xmlns="http://www.w3.org/2000/svg" width="48.096" height="36.07" viewBox="0 0 135.739 101.798">
    <path d="M11.625.004H124.915l.015.01c5.835.258 10.555 4.978 10.795 10.824l.014.011v79.742c-.046 5.722-4.389 10.45-9.942 11.126l-.078.081H11.017C5.101 101.647.282 96.898.014 91L0 90.989V11.85l.014-.01C.007 11.662 0 11.485 0 11.31 0 5.08 5.087 0 11.314 0h.31z" style="fill:#fcd116;fill-opacity:1;fill-rule:nonzero;stroke:none"/>
    <path d="M12.447 2.264h110.85c5.609 0 10.177 4.575 10.177 10.184v76.91c0 5.605-4.568 10.18-10.178 10.18H12.446c-5.609 0-10.177-4.575-10.177-10.18v-76.91c0-5.609 4.568-10.184 10.178-10.184" style="fill:#000;fill-opacity:1;fill-rule:evenodd;stroke:none"/>
    <path d="M12.542 5.626h110.66c3.816 0 6.935 3.118 6.935 6.943v76.704c0 3.824-3.119 6.943-6.936 6.943H12.541c-3.823 0-6.938-3.119-6.938-6.943V12.57c0-3.825 3.115-6.943 6.939-6.943" style="fill:#fcd116;fill-opacity:1;fill-rule:evenodd;stroke:none"/>
    <path d="M121.338 22.862h-3.168l-1.986 12.061-2.141-12.061h-2.537l-2.218 12.061-1.902-12.061h-3.175l3.57 22.613h2.85l2.153-11.822 2.134 11.822h2.776l3.644-22.613zM98.341 34.13c0 2.614-.159 3.965-.716 5.792-.554 1.902-1.429 2.773-2.777 2.773-1.428 0-2.296-.871-2.854-2.773-.476-1.827-.716-3.252-.716-5.715 0-2.536.159-4.046.716-5.789.558-1.901 1.426-2.776 2.854-2.776 1.348 0 2.223.875 2.777 2.857.48 1.662.716 3.094.716 5.63m3.094 0c0-3.41-.318-5.552-1.27-7.775-1.115-2.776-2.699-3.884-5.317-3.884-2.62 0-4.205 1.108-5.39 3.807-.956 2.141-1.274 4.441-1.274 7.853 0 3.492.318 5.63 1.274 7.853 1.111 2.698 2.695 3.898 5.39 3.898 2.54 0 4.202-1.2 5.317-3.898.952-2.138 1.27-4.36 1.27-7.853M85.482 45.475v-3.013h-8.248v-19.6h-3.252v22.613h11.5zm-26.575 0V42.3H50.66v-7.454h4.678v-3.094H50.66v-5.715h7.38v-3.175H47.414v22.613h11.493zm-15.31-6.191c0-3.253-1.902-5.708-6.266-8.248-1.658-.953-2.14-1.588-2.14-2.695 0-1.51 1.191-2.622 2.701-2.622 1.426 0 2.54 1.03 2.618 2.622h3.087c-.07-3.412-2.537-5.87-5.705-5.87-3.252 0-5.796 2.613-5.796 5.87 0 1.979.956 3.725 2.777 4.995 4.603 3.097 3.333 2.222 3.81 2.695 1.35 1.03 1.827 1.983 1.827 3.253 0 1.827-1.436 3.411-3.179 3.411-2.219 0-3.168-1.982-3.168-3.884h-3.178c0 3.725 2.378 7.07 6.346 7.07 3.496 0 6.266-2.95 6.266-6.597M27.26 38.73V22.862h-3.246v16.263c0 2.145-1.273 3.57-3.02 3.57-1.908 0-3.175-1.425-3.175-3.57V22.862h-3.252V38.73c0 1.827.243 2.776.875 3.965 1.11 1.905 3.33 3.186 5.552 3.186 2.138 0 4.28-1.358 5.39-3.186.632-1.189.876-2.138.876-3.965M95.13 62.673c0 1.824-1.026 2.854-2.935 2.854h-3.337v-5.711h3.337c1.743 0 2.936 1.111 2.936 2.857m3.175 16.577-3.26-11.105c2.152-.794 3.26-2.776 3.26-5.472 0-3.647-2.385-6.032-5.955-6.032h-6.738v22.61h3.245V68.62h3.101l3.013 10.63h3.334zm-21.421-9.359h-3.253l1.584-6.505 1.669 6.505zm5.627 9.36-5.627-22.61h-3.172L68.08 79.25h3.256l1.503-6.188h4.843l1.588 6.187h3.242zm-16.493 0v-3.172h-8.248V68.62h4.671v-3.094h-4.67v-5.711h7.372V56.64H54.52v22.61h11.5zm-15.945-6.266v-4.681h-5.796v3.171h2.536v1.51c0 2.381-.79 3.489-2.455 3.489-1.75 0-2.858-1.189-3.334-3.411-.317-1.747-.476-3.726-.476-5.63 0-2.7.402-5.236 1.033-6.347.561-1.115 1.43-1.669 2.537-1.669 1.587 0 2.621 1.034 2.695 2.544h3.26c-.159-3.334-2.618-5.715-5.87-5.715-2.622 0-4.922 1.746-5.715 4.127-.79 2.142-1.034 4.445-1.034 7.613 0 2.935.476 6.107 1.192 7.775 1.112 2.54 3.094 3.902 5.79 3.902 2.303 0 4.127-1.203 4.995-3.189.483-.949.642-1.905.642-3.489" style="fill:#000;fill-opacity:1;fill-rule:evenodd;stroke:none"/>
</svg>
