<svg xmlns="http://www.w3.org/2000/svg" width="48.096" height="36.07" viewBox="0 0 135.738 101.798">
    <path d="M11.628.004H124.912l.014.01c5.842.258 10.555 4.978 10.802 10.824l.01.01v79.743c-.049 5.722-4.388 10.449-9.94 11.126l-.079.081H11.025C5.105 101.647.283 96.898.018 91L0 90.989V11.85l.018-.01A8.503 8.503 0 0 1 0 11.31C0 5.08 5.083 0 11.314 0h.316z" style="fill:#fcd116;fill-opacity:1;fill-rule:nonzero;stroke:none"/>
    <path d="M12.45 2.267H123.3c5.602 0 10.178 4.572 10.178 10.181v76.913c0 5.605-4.576 10.177-10.178 10.177H12.45c-5.609 0-10.184-4.572-10.184-10.177V12.448c0-5.609 4.575-10.18 10.184-10.18" style="fill:#000;fill-opacity:1;fill-rule:evenodd;stroke:none"/>
    <path d="M12.546 5.626h110.648c3.824 0 6.94 3.118 6.94 6.942v76.705c0 3.824-3.115 6.943-6.94 6.943H12.546c-3.824 0-6.94-3.119-6.94-6.943V12.568c0-3.824 3.116-6.942 6.94-6.942" style="fill:#fcd116;fill-opacity:1;fill-rule:evenodd;stroke:none"/>
    <path d="M102.9 29.325c0-2.434-1.437-4.283-4.707-6.184-1.249-.717-1.609-1.193-1.609-2.022 0-1.132.89-1.965 2.022-1.965 1.072 0 1.908.773 1.961 1.965h2.332c-.07-2.561-1.908-4.406-4.293-4.406-2.441 0-4.343 1.965-4.343 4.406 0 1.485.716 2.794 2.081 3.747 3.454 2.32 2.502 1.665 2.862 2.025 1.012.769 1.361 1.485 1.361 2.434 0 1.372-1.065 2.56-2.374 2.56-1.662 0-2.378-1.488-2.378-2.917H93.43c0 2.798 1.785 5.306 4.763 5.306 2.618 0 4.706-2.212 4.706-4.95m-11.433 4.643-3.92-11.01 3.507-5.944h-2.798l-3.873 6.784v-6.784h-2.43v16.954h2.43v-5.415l1.552-2.85 2.977 8.265h2.554zM78.617 21.532c-.18-1.545-.412-2.261-1.069-3.094-.772-1.129-1.965-1.725-3.333-1.725-3.33 0-5.06 2.917-5.06 8.389 0 6.248 1.606 9.172 5.236 9.172 2.385 0 4.17-2.032 4.226-4.83h-2.44c0 1.253-.357 2.442-1.786 2.442-2.078 0-2.914-1.962-2.914-6.844 0-4.403.716-5.948 2.681-5.948 1.122 0 1.778.773 2.018 2.438h2.441zm-12.788 7.38v-11.9h-2.441v12.196c0 1.605-.949 2.678-2.258 2.678-1.436 0-2.385-1.073-2.385-2.678V17.013h-2.437v11.899c0 1.369.176 2.081.652 2.974.833 1.429 2.502 2.388 4.17 2.388 1.605 0 3.21-1.02 4.043-2.388.476-.893.656-1.605.656-2.974m-14.697-7.38c0 1.369-.772 2.141-2.197 2.141h-2.502v-4.282h2.502c1.301 0 2.197.832 2.197 2.14m2.378 12.436-2.441-8.329c1.612-.596 2.441-2.085 2.441-4.106 0-2.734-1.785-4.52-4.459-4.52h-5.059v16.955h2.441v-7.969h2.322l2.261 7.97h2.494zM41.67 19.271v-2.258h-8.624v2.258h3.093v14.696h2.438V19.271h3.094zM117.395 46.95c0 1.372-.773 2.141-2.198 2.141h-2.494V44.81h2.494c1.309 0 2.198.832 2.198 2.14m2.384 12.433-2.44-8.326c1.604-.596 2.44-2.085 2.44-4.106 0-2.734-1.785-4.52-4.466-4.52h-5.059v16.952h2.449v-7.966h2.314l2.261 7.966h2.501zm-12.375 0v-2.374h-6.195v-5.592h3.514v-2.325h-3.514V44.81h5.539V42.43h-7.97v16.95h8.626zM96.454 42.43H94.08l-1.49 9.041-1.604-9.041h-1.909l-1.668 9.041-1.419-9.041h-2.384l2.674 16.95h2.141l1.605-8.857 1.612 8.858h2.082l2.734-16.951zm-17.251 8.445c0 1.965-.124 2.978-.54 4.347-.413 1.425-1.065 2.081-2.078 2.081-1.069 0-1.725-.656-2.145-2.081-.349-1.37-.536-2.442-.536-4.283 0-1.905.124-3.034.536-4.346.42-1.43 1.076-2.078 2.145-2.078 1.013 0 1.665.649 2.078 2.138.36 1.252.54 2.317.54 4.222m2.321 0c0-2.554-.24-4.162-.952-5.828-.833-2.085-2.025-2.917-3.987-2.917-1.965 0-3.157.832-4.046 2.854-.716 1.609-.949 3.337-.949 5.891 0 2.618.233 4.227.949 5.888.833 2.029 2.018 2.928 4.046 2.928 1.902 0 3.154-.9 3.987-2.928.712-1.601.952-3.27.952-5.888m-11.962 8.506v-2.258h-6.188V42.431h-2.438v16.95h8.626zm-19.925 0v-2.374h-6.195v-5.592h3.514v-2.325h-3.514V44.81h5.531V42.43h-7.969v16.95h8.633zM38.15 54.746c0-2.44-1.432-4.286-4.699-6.19-1.249-.71-1.605-1.19-1.605-2.019 0-1.132.889-1.965 2.025-1.965 1.069 0 1.902.773 1.958 1.965h2.321c-.056-2.561-1.901-4.406-4.279-4.406-2.445 0-4.346 1.961-4.346 4.406 0 1.485.716 2.794 2.088 3.747 3.443 2.317 2.494 1.665 2.844 2.021 1.02.773 1.372 1.489 1.372 2.441 0 1.37-1.069 2.558-2.378 2.558-1.668 0-2.385-1.485-2.385-2.918H28.69c0 2.794 1.785 5.306 4.762 5.306 2.618 0 4.7-2.212 4.7-4.946m-12.253-.416v-11.9h-2.444v12.196c0 1.609-.946 2.678-2.262 2.678-1.425 0-2.374-1.069-2.374-2.678V42.431H16.37V54.33c0 1.365.187 2.081.656 2.974.84 1.429 2.501 2.388 4.166 2.388 1.605 0 3.218-1.023 4.047-2.388.483-.893.66-1.609.66-2.974M88.516 72.21c0 1.372-.776 2.14-2.205 2.14h-2.494v-4.282h2.494c1.31 0 2.205.836 2.205 2.141m2.378 12.432-2.438-8.325c1.605-.596 2.438-2.082 2.438-4.107 0-2.734-1.785-4.519-4.456-4.519h-5.066v16.951h2.445v-7.969h2.325l2.258 7.97h2.494zm-16.062-7.016h-2.438l1.186-4.883 1.252 4.883zm4.226 7.016-4.226-16.95h-2.381l-4.226 16.95h2.448l1.122-4.639h3.63l1.192 4.64h2.441zm-12.375 0v-2.377h-6.188v-5.592h3.507v-2.321h-3.507v-4.283h5.532V67.69h-7.97v16.951h8.626zM54.72 79.942v-3.506h-4.339v2.377h1.909v1.13c0 1.784-.6 2.617-1.849 2.617-1.316 0-2.141-.889-2.501-2.558-.24-1.308-.356-2.794-.356-4.219 0-2.028.296-3.933.772-4.762.42-.833 1.073-1.25 1.909-1.25 1.185 0 1.961.773 2.025 1.906h2.43c-.116-2.501-1.961-4.286-4.402-4.286-1.962 0-3.687 1.308-4.287 3.093-.592 1.61-.769 3.334-.769 5.715 0 2.198.357 4.58.89 5.825.839 1.905 2.328 2.928 4.345 2.928 1.729 0 3.094-.903 3.75-2.392.357-.713.473-1.425.473-2.618" style="fill:#000;fill-opacity:1;fill-rule:evenodd;stroke:none"/>
</svg>
