<svg xmlns="http://www.w3.org/2000/svg" width="48.097" height="36.07" viewBox="0 0 135.74 101.798">
    <path d="M11.633.003h113.28l.014.011c5.839.258 10.556 4.978 10.799 10.823l.014.011v79.743h-.01c-.049 5.722-4.381 10.452-9.945 11.126l-.074.081H11.013C5.097 101.643.278 96.898.01 91.003L0 90.989V11.85l.01-.01c0-.177-.01-.354-.01-.53C0 5.08 5.08 0 11.306 0h.321z" style="fill:#fcd116;fill-opacity:1;fill-rule:nonzero;stroke:none"/>
    <path d="M12.448 2.267h110.846c5.602 0 10.178 4.572 10.178 10.177v76.92c0 5.602-4.576 10.178-10.178 10.178H12.448c-5.61 0-10.178-4.576-10.178-10.178v-76.92C2.27 6.84 6.84 2.267 12.448 2.267" style="fill:#000;fill-opacity:1;fill-rule:evenodd;stroke:none"/>
    <path d="M12.543 5.625H123.2c3.817 0 6.94 3.119 6.94 6.943v76.705c0 3.824-3.123 6.942-6.94 6.942H12.543c-3.824 0-6.939-3.118-6.939-6.942V12.568c0-3.824 3.115-6.943 6.94-6.943" style="fill:#fcd116;fill-opacity:1;fill-rule:evenodd;stroke:none"/>
    <path d="M121.371 39.594v-2.381h-6.184V31.62h3.507v-2.317h-3.507v-4.287h5.525v-2.38h-7.973v16.957h8.632zm-14.343-8.389c0 1.309-.117 2.498-.24 3.57-.237 1.309-1.006 2.438-2.442 2.438h-2.017V25.017h2.018c1.075 0 1.784.536 2.204 1.729.297.712.477 2.558.477 4.459m2.384-.12c0-1.309-.18-2.794-.42-4.046-.303-1.725-1.012-3.034-2.02-3.747-.597-.476-1.31-.656-2.742-.656h-4.34v16.958h4.7c.949 0 1.785-.236 2.381-.773 1.662-1.308 2.441-3.81 2.441-7.736m-16.069 1.489H90.9l1.199-4.88 1.245 4.88zm4.223 7.02-4.223-16.958h-2.377l-4.23 16.958h2.441l1.136-4.639h3.63l1.185 4.64h2.438zM82.87 27.16c0 1.365-.769 2.145-2.204 2.145H78.17v-4.287h2.495c1.312 0 2.204.833 2.204 2.142m2.378 12.435-2.43-8.329c1.605-.596 2.43-2.085 2.43-4.106 0-2.738-1.785-4.523-4.455-4.523h-5.06v16.958h2.438v-7.973h2.318l2.265 7.973h2.494zm-12.841-4.699v-3.51h-4.35v2.381h1.902v1.13c0 1.78-.593 2.617-1.845 2.617-1.31 0-2.138-.896-2.494-2.558-.244-1.312-.36-2.798-.36-4.23 0-2.018.296-3.923.78-4.755.412-.836 1.068-1.253 1.9-1.253 1.193 0 1.966.777 2.019 1.905h2.448c-.127-2.497-1.965-4.286-4.41-4.286-1.958 0-3.686 1.309-4.279 3.098-.593 1.605-.78 3.333-.78 5.715 0 2.197.36 4.575.897 5.827.832 1.905 2.32 2.928 4.339 2.928 1.732 0 3.094-.906 3.75-2.391.356-.713.483-1.429.483-2.618M104.491 74.531c0-2.441-1.425-4.286-4.699-6.191-1.252-.713-1.605-1.189-1.605-2.022 0-1.132.889-1.965 2.018-1.965 1.076 0 1.905.776 1.965 1.965h2.321c-.06-2.557-1.908-4.402-4.286-4.402-2.438 0-4.346 1.961-4.346 4.402 0 1.49.716 2.798 2.088 3.747 3.45 2.321 2.494 1.668 2.858 2.025 1.009.772 1.365 1.485 1.365 2.441 0 1.369-1.07 2.558-2.378 2.558-1.665 0-2.378-1.486-2.378-2.918h-2.38c0 2.798 1.784 5.306 4.758 5.306 2.614 0 4.7-2.212 4.7-4.946m-11.487 4.64v-2.379H86.82v-5.591h3.513v-2.325H86.82v-4.283h5.532v-2.377h-7.973V79.17h8.626zm-10.94 0v-2.259h-6.188V62.216h-2.444V79.17h8.632zM69.746 62.215h-2.378v16.958h2.378V62.216zM63.675 79.17V62.216h-2.438l-3.15 9.517-3.154-9.517h-2.441V79.17h2.44v-9.518l3.155 9.518 3.15-9.518v9.518h2.438zM40.709 64.593v-2.377H31.25v2.377h6.364c-1.665 2.678-2.561 4.703-3.27 7.437-.593 2.261-1.016 5.059-1.016 6.784v.356h2.385c.116-3.094.476-5.352 1.365-7.97.949-2.744 2.141-4.882 3.63-6.607" style="fill:#000;fill-opacity:1;fill-rule:evenodd;stroke:none"/>
    <path d="M19.433 24.729c-1.489 0-2.385 1.132-2.385 2.917 0 1.845.896 2.974 2.385 2.974 1.418 0 2.378-1.072 2.378-2.737 0-1.905-.96-3.154-2.378-3.154m-1.129 14.876L16.932 37.7c1.425-1.069 2.977-3.157 3.57-4.759-.413.06-.71.06-1.07.06-2.913 0-4.762-2.081-4.762-5.355 0-3.214 1.849-5.295 4.763-5.295 3.094 0 4.699 2.081 4.699 6.068 0 4.163-2.141 8.272-5.828 11.186" style="fill:#000;fill-opacity:1;fill-rule:nonzero;stroke:none"/>
    <path style="fill:#000;fill-opacity:1;fill-rule:evenodd;stroke:none" d="M32.542 22.327c-1.179 0-1.849.55-2.382 1.764-.426.963-.617 1.99-.617 3.528 0 1.57.19 2.526.617 3.528.505 1.213 1.168 1.764 2.382 1.764 1.143 0 1.961-.55 2.47-1.764.419-.967.528-1.958.528-3.528 0-1.538-.11-2.53-.529-3.528-.508-1.249-1.291-1.764-2.47-1.764zm-.353 2.205c.107-.04.221 0 .353 0 .487 0 .857.247 1.058.97.18.607.264 1.19.264 2.117 0 .956-.06 1.453-.264 2.117-.2.695-.571.97-1.058.97-.526 0-.773-.275-.97-.97a7.572 7.572 0 0 1-.265-2.117c0-.924.056-1.478.265-2.117.148-.518.297-.848.617-.97zM45.03 22.579h-2.204l-9.804 17.025h2.212l9.796-17.025zM45.418 29.383c-1.178 0-1.845.462-2.381 1.676-.43.963-.617 1.99-.617 3.527 0 1.57.186 2.53.617 3.528.5 1.214 1.168 1.764 2.381 1.764 1.143 0 1.965-.55 2.47-1.764.426-.966.529-1.958.529-3.528 0-1.538-.102-2.437-.53-3.44-.504-1.248-1.29-1.763-2.469-1.763zm0 2.117c.498 0 .857.338 1.059 1.058.172.61.264 1.104.264 2.028 0 .956-.063 1.45-.264 2.117-.201.695-.561 1.058-1.059 1.058-.522 0-.769-.363-.97-1.058-.173-.667-.265-1.132-.265-2.028 0-.925.064-1.479.265-2.117.2-.692.448-1.058.97-1.058z"/>
</svg>
