<svg xmlns="http://www.w3.org/2000/svg" width="48.096" height="36.071" viewBox="0 0 135.739 101.801">
    <path d="M11.632.006h113.283l.015.01c5.842.258 10.555 4.982 10.795 10.824l.014.011v79.742c-.056 5.718-4.389 10.45-9.949 11.127l-.07.08H11.023C5.101 101.65.282 96.9.014 91.006L0 90.991V11.85l.014-.01A9.347 9.347 0 0 1 0 11.31C0 5.08 5.087 0 11.314 0h.32z" style="fill:#fcd116;fill-opacity:1;fill-rule:nonzero;stroke:none"/>
    <path d="M12.447 2.266h110.85c5.602 0 10.174 4.572 10.174 10.181V89.36c0 5.609-4.572 10.18-10.174 10.18H12.447c-5.602 0-10.178-4.571-10.178-10.18V12.447c0-5.61 4.575-10.181 10.178-10.181" style="fill:#000;fill-opacity:1;fill-rule:evenodd;stroke:none"/>
    <path d="M12.542 5.628H123.19c3.83 0 6.946 3.119 6.946 6.943v76.704c0 3.824-3.115 6.943-6.946 6.943H12.54c-3.823 0-6.938-3.119-6.938-6.943V12.571c0-3.824 3.115-6.943 6.939-6.943" style="fill:#fcd116;fill-opacity:1;fill-rule:evenodd;stroke:none"/>
    <path d="M115.122 79.284v-3.647h-10.467v-6.188h6.583V65.8h-6.583v-5.553h9.758v-3.57H101.09v22.606h14.033zM92.523 67.94c0 3.016-.716 5.475-2.067 6.826-.635.632-1.351.872-2.544.872h-3.559V60.248h4.043c.952 0 1.743.395 2.3.95 1.111 1.192 1.827 3.728 1.827 6.74m3.644 0c0-4.44-1.344-8.01-3.725-10.07-1.192-.957-2.06-1.19-4.364-1.19h-7.302v22.606h8.17c1.193-.078 2.385-.476 3.26-1.27 2.536-1.982 3.961-5.549 3.961-10.075m-26.09 1.351h-4.53l2.303-6.346 2.226 6.346zm7.294 9.994-7.778-22.606h-3.57L58.25 79.284h3.803l2.226-6.346h7.063l2.219 6.346h3.81zm-24.913-16.26c0 .95-.554 1.902-1.428 2.378-.558.318-.95.4-2.06.4h-4.28v-5.554h4.28c1.192 0 1.502.078 2.06.395.874.477 1.428 1.43 1.428 2.382m4.05 16.26L52.54 68.735c2.06-.956 3.493-3.334 3.493-5.711 0-2.304-1.432-4.685-3.418-5.634-1.108-.554-2.293-.713-4.043-.713h-7.454v22.606h3.573V69.45h4.28l3.644 9.835h3.894zm-20.313-6.742v-4.52h-7.69v3.564h4.12v.956c0 2.063-1.665 3.489-3.962 3.489-1.347 0-2.38-.554-3.093-1.824-.717-1.429-1.108-3.807-1.108-6.184 0-1.905.317-3.97.868-5.32.793-1.983 1.986-2.777 3.803-2.777 1.75 0 2.702.716 3.65 2.7l3.412-1.349c-1.51-3.57-3.57-4.998-7.062-4.998-2.53 0-4.438.874-5.786 2.536-1.503 1.986-2.536 5.556-2.536 9.208 0 2.772.557 5.549 1.502 7.531 1.348 2.858 3.334 4.138 6.746 4.138 4.127 0 7.136-3.026 7.136-7.15M55.193 29.372c0 1.827-1.828 3.252-4.128 3.252-2.219 0-4.043-1.425-4.043-3.252 0-1.828 1.824-3.253 4.043-3.253 2.226 0 4.128 1.507 4.128 3.253m3.57.317c0-4.124-3.337-7.218-7.698-7.218-4.279 0-7.69 3.013-7.69 6.9 0 3.807 3.489 6.901 7.69 6.901.875 0 1.425-.078 2.695-.317-1.344 2.935-2.776 4.762-5.464 6.904l1.743 3.026c5.228-3.58 8.724-10.004 8.724-16.196M70.291 22.478c-1.57 0-2.628.451-3.44 1.5-.902 1.283-1.499 3.315-1.499 5.555 0 1.616.399 3.443.97 4.586.808 1.666 1.973 2.382 3.881 2.382 1.425 0 2.501-.452 3.263-1.5.953-1.188 1.5-3.326 1.5-5.468 0-1.714-.31-3.393-.882-4.586-.858-1.661-2.078-2.47-3.793-2.47zm0 2.91c.688.04 1.136.275 1.5.882.44.773.617 1.969.617 3.263 0 .893-.201 2.04-.441 2.646-.41 1.013-.91 1.411-1.764 1.411-.73 0-1.224-.275-1.587-.882-.448-.73-.706-1.958-.706-3.175 0-.97.152-2.042.441-2.734.399-1.012 1.051-1.453 1.94-1.41zM87.32 22.84h-3.252L71.004 45.488h3.253L87.32 22.84zM87.577 31.826c-1.573 0-2.624.544-3.44 1.588-.902 1.288-1.499 3.228-1.499 5.468 0 1.616.4 3.443.97 4.586.812 1.665 1.973 2.47 3.881 2.47 1.425 0 2.498-.54 3.263-1.588.95-1.189 1.5-3.327 1.5-5.468 0-1.715-.31-3.397-.882-4.586-.854-1.665-2.078-2.47-3.793-2.47zm-.088 2.91c.688.04 1.14.276 1.5.883.448.772.705 1.968.705 3.263 0 .893-.2 2.04-.44 2.646-.406 1.012-.91 1.5-1.765 1.5-.73 0-1.224-.364-1.587-.971-.448-.73-.706-1.958-.706-3.175 0-.97.159-2.043.441-2.734.399-1.016.963-1.453 1.852-1.411z" style="fill:#000;fill-opacity:1;fill-rule:evenodd;stroke:none"/>
</svg>
