<svg xmlns="http://www.w3.org/2000/svg" width="156.504" height="96.959" viewBox="0 0 441.688 273.639">
    <path d="M441.406 252.356c0 11.547-9.454 21-21.008 21H21.287c-11.554 0-21.005-9.453-21.005-21V21.286C.282 9.737 9.733.283 21.287.283h399.111c11.554 0 21.008 9.455 21.008 21.005v231.07z" style="fill:#fcd116;fill-opacity:1;fill-rule:nonzero;stroke:none"/>
    <path d="M21.287 270.733c-2.466 0-4.869-.49-7.13-1.45a18.397 18.397 0 0 1-5.85-3.955 18.434 18.434 0 0 1-3.954-5.849 18.131 18.131 0 0 1-1.446-7.123V21.286c0-2.468.487-4.864 1.446-7.125a18.489 18.489 0 0 1 3.955-5.853 18.562 18.562 0 0 1 5.849-3.95 18.17 18.17 0 0 1 7.13-1.45h399.111c2.466 0 4.865.49 7.13 1.45a18.563 18.563 0 0 1 9.8 9.803 18.076 18.076 0 0 1 1.45 7.126v231.07c0 2.465-.487 4.86-1.45 7.122a18.366 18.366 0 0 1-3.951 5.85 18.398 18.398 0 0 1-5.85 3.954 18.18 18.18 0 0 1-7.129 1.45H21.287z" style="fill:#000;fill-opacity:1;fill-rule:nonzero;stroke:none"/>
    <path d="M21.287 266.355c-1.877 0-3.701-.37-5.419-1.101a14.08 14.08 0 0 1-4.466-3.02 14.093 14.093 0 0 1-3.016-4.462 13.716 13.716 0 0 1-1.105-5.416V21.286c0-1.876.37-3.7 1.105-5.418a14.093 14.093 0 0 1 3.016-4.462 14.02 14.02 0 0 1 4.466-3.02c1.718-.73 3.542-1.1 5.419-1.1h399.111c1.877 0 3.697.37 5.419 1.1a14.044 14.044 0 0 1 4.463 3.02 14.114 14.114 0 0 1 3.023 4.462 13.776 13.776 0 0 1 1.097 5.419v231.07c0 1.873-.367 3.697-1.097 5.415a14.114 14.114 0 0 1-3.023 4.462 14.104 14.104 0 0 1-4.463 3.02c-1.722.73-3.542 1.1-5.419 1.1H21.287z" style="fill:#fcd116;fill-opacity:1;fill-rule:nonzero;stroke:none"/>
    <path d="m217.357 47.516-4.914 11.79h9.821l-4.907-11.79zm11.053 26.285-3.44-8.226h-15.23L206.3 73.8h-6.875l14.74-35.01h6.381l14.616 35.01h-6.752zM296.947 47.516l-4.91 11.79h9.824l-4.914-11.79zM308 73.801l-3.436-8.226h-15.23l-3.436 8.226h-6.879l14.736-35.01h6.388l14.612 35.01H308zM186.852 73.802l-16.774-24.074v24.074h-6.17v-35.01h6.17l16.16 23.096V38.792h6.044v35.01h-5.43zM104.175 45.057H94.09v8.72h10.086c3.07 0 5.034-1.72 5.034-4.296 0-2.702-1.965-4.424-5.034-4.424m5.034 28.745-5.648-13.759H94.09v13.759h-6.258v-35.01h16.224c2.576 0 4.17.367 6.015 1.474 3.313 1.842 5.401 5.278 5.401 9.215 0 3.926-2.088 7.373-5.651 9.335l6.389 14.986h-7zM138.797 74.415c-8.266 0-14.189-6.138-14.189-14.739V38.792h6.294v20.884c0 2.089.243 3.193 1.107 4.54 1.359 2.34 3.952 3.814 6.788 3.814 2.836 0 5.426-1.475 6.784-3.813.864-1.348 1.111-2.576 1.111-4.54V38.791h6.294v20.884c0 8.6-5.923 14.74-14.19 14.74M269.388 73.802h-6.643l-5.655-23.46-5.535 23.46h-6.639l-6.392-35.01h6.519l3.81 22.602 5.161-22.602h6.276l5.408 22.602 3.567-22.602h6.392l-6.269 35.01zM339.118 59.553V73.8h-6.265V59.553l-14.74-20.761h7.74l10.193 14.249 10.068-14.25h7.736l-14.732 20.762zM302.888 110.533l-4.914 11.79h9.825l-4.911-11.79zm11.053 26.289-3.44-8.234h-15.226l-3.44 8.234h-6.879l14.74-35.01h6.385l14.615 35.01h-6.755zM164.701 137.432c-9.21 0-14.862-7.246-14.862-18.175 0-11.06 5.651-18.059 14.862-18.059 5.652 0 10.813 2.826 13.512 7.737l-5.525 2.949c-.987-1.475-1.474-1.962-2.462-2.583-1.348-1.104-3.68-1.841-5.525-1.841-6.385 0-8.473 6.265-8.473 11.673 0 7.613 3.192 12.037 8.473 12.037 3.193 0 4.915-1.107 7.987-4.424l5.525 2.95c-2.579 4.914-7.86 7.736-13.512 7.736M209.804 136.822l-8.992-18.186-6.654 8.357v9.829h-6.283v-35.01h6.283v15.233l12.443-15.233h8.135l-9.366 11.423 11.581 23.587h-7.147zM354.595 136.822v-21.375l-10.354 21.375-10.242-21.375v21.375h-6.166v-35.01h6.166l10.242 20.757 10.354-20.757h6.166v35.01h-6.166zM388.645 108.074h-10.576v8.724h10.576c3.069 0 5.154-1.725 5.154-4.3 0-2.703-2.085-4.424-5.154-4.424m6.015 13.635c-1.965 1.11-3.56 1.35-6.262 1.35h-10.33v13.763h-6.381v-35.01h16.71c2.703 0 4.298.363 6.263 1.475 3.312 1.838 5.4 5.277 5.4 9.21 0 3.687-2.088 7.374-5.4 9.212M91.366 108.074H81.284v8.724h10.082c3.07 0 5.034-1.725 5.034-4.3 0-2.703-1.965-4.424-5.034-4.424m5.034 28.748-5.648-13.762h-9.468v13.762h-6.262v-35.01h16.22c2.58 0 4.174.363 6.019 1.475 3.312 1.838 5.4 5.277 5.4 9.21 0 3.927-2.088 7.374-5.647 9.335l6.382 14.99H96.4zM268.302 108.074h-10.08v8.724h10.08c3.072 0 5.037-1.725 5.037-4.3 0-2.703-1.965-4.424-5.037-4.424m5.037 28.748-5.651-13.762h-9.465v13.762h-6.265v-35.01h16.224c2.579 0 4.173.363 6.015 1.475 3.316 1.838 5.4 5.277 5.4 9.21 0 3.927-2.084 7.374-5.644 9.335l6.382 14.99h-6.996zM57.82 107.95v28.872h-6.138V107.95H41.621v-6.138h26.26v6.138h-10.06zM125.984 137.432c-8.262 0-14.185-6.138-14.185-14.736v-20.884h6.293v20.884c0 2.085.244 3.19 1.112 4.54 1.354 2.336 3.947 3.81 6.78 3.81 2.84 0 5.433-1.474 6.787-3.81.865-1.35 1.112-2.578 1.112-4.54v-20.884h6.293v20.884c0 8.598-5.923 14.736-14.192 14.736M250.698 220.024a.648.648 0 0 0 .056-.08c.106-.195.184-.385.24-.586 0-.021.014-.042.02-.056h-.01c.015-.067.04-.138.05-.205l.095-.67 9.546-49.27.127-.93c.13-.925-.176-1.849-.79-2.46-.706-.712-1.626-1.015-2.508-.842l-.618.123-49.417 9.627-.864.138c-.572.13-1.013.399-1.454.84a2.853 2.853 0 0 0 0 4.046c.135.13.35.26.53.35l.529.295 17.586 10.813-42.997 39.472 14.39 14.387 39.476-42.905v-.088l10.65 17.321.441.635c.134.219.265.441.441.614 1.1 1.1 2.946 1.1 4.047 0 .18-.173.317-.367.433-.568" style="fill:#000;fill-opacity:1;fill-rule:nonzero;stroke:none"/>
</svg>
