<svg xmlns="http://www.w3.org/2000/svg" width="48.095" height="24.02" viewBox="0 0 135.735 67.79">
    <path d="M11.335 0H124.4c6.248 0 11.335 4.953 11.335 11.056v45.745c0 6.036-5.087 10.989-11.335 10.989H11.335C5.09 67.79 0 62.837 0 56.8V11.057C0 4.953 5.09 0 11.335 0" style="fill:#fcd116;fill-opacity:1;fill-rule:evenodd;stroke:none"/>
    <path d="M124.332 2.3c.476 0 .949 0 1.425.067.476.071.886.208 1.358.279.406.197.815.335 1.221.472.41.202.744.41 1.154.678.61.405 1.086.882 1.63 1.358.338.473.677.882 1.015 1.355.205.409.41.744.61 1.157.138.409.272.815.41 1.22.138.406.201.815.201 1.288l.07.882v46.22c-.07.407-.07.812-.204 1.289-.067.405-.205.814-.339 1.22-.137.406-.338.744-.543 1.157-.205.339-.406.745-.677 1.083-.477.544-.953 1.02-1.493 1.493-.342.271-.68.546-1.09.744-.54.279-1.016.547-1.559.751-.473.13-.878.268-1.288.339l-1.358.201H11.405c-.477 0-.953-.07-1.426-.13a9.848 9.848 0 0 1-1.358-.28 8.276 8.276 0 0 1-1.22-.472c-.41-.2-.749-.41-1.158-.607a16.089 16.089 0 0 1-1.626-1.428c-.342-.406-.678-.882-1.02-1.355-.204-.339-.405-.752-.61-1.09-.134-.406-.272-.812-.406-1.22a4.195 4.195 0 0 1-.204-1.288L2.31 56.8V10.583c.067-.476.067-.882.2-1.29.071-.407.205-.812.343-1.218.134-.41.339-.822.54-1.157.204-.41.412-.745.68-1.083.477-.614.95-1.09 1.496-1.563a5.504 5.504 0 0 1 1.083-.677c.544-.346 1.016-.544 1.563-.752.473-.197.882-.268 1.288-.405.476-.071.882-.138 1.358-.138h113.471z" style="fill:#000;fill-opacity:1;fill-rule:evenodd;stroke:none"/>
    <path d="M11.335 5.697H124.4a5.617 5.617 0 0 1 5.634 5.63v45.199a5.623 5.623 0 0 1-5.634 5.637H11.335A5.623 5.623 0 0 1 5.7 56.526V11.328a5.617 5.617 0 0 1 5.634-5.63" style="fill:#fcd116;fill-opacity:1;fill-rule:evenodd;stroke:none"/>
    <path d="M109.875 33.796c0 3.725-.949 6.784-2.579 8.48-.815.812-1.697 1.091-3.189 1.091H99.63V24.225h5.088c1.153 0 2.17.476 2.853 1.15 1.355 1.496 2.304 4.685 2.304 8.421m4.547 0c0-5.567-1.693-9.976-4.68-12.562-1.493-1.22-2.58-1.489-5.43-1.489H95.15v28.162H105.395c1.492-.063 2.988-.607 4.074-1.559 3.123-2.515 4.953-6.925 4.953-12.552M88.567 47.907V19.745h-4.48V37.73L73.775 19.745h-4.48v28.162h4.48V28.84l10.788 19.067h4.004zM55.992 35.422h-5.634l2.847-7.877 2.787 7.877zm9.094 12.485-9.704-28.162h-4.414l-9.772 28.162h4.816l2.716-7.937h8.823l2.784 7.937h4.751zm-26.063-8.145c0-10.99-13.232-7.532-13.638-12.753-.205-2.586 2.236-3.398 4.339-3.33 3.19.14 4.142 2.515 4.142 2.515l4.004-1.224c-1.426-3.461-4.071-5.701-8.008-5.701-5.091 0-8.823 2.035-8.823 7.602 0 4.685 3.732 6.378 5.429 7.056 3.665 1.425 8.011 1.968 8.011 5.771 0 2.37-1.767 4.135-4.346 4.135-2.65 0-4.886-1.49-6.036-4.135l-4.279 1.56c1.901 4.279 5.43 7.192 10.315 7.192 2.374 0 4.548-.814 6.11-2.24 1.831-1.555 2.78-3.866 2.78-6.448" style="fill:#000;fill-opacity:1;fill-rule:evenodd;stroke:none"/>
</svg>
