<svg xmlns="http://www.w3.org/2000/svg" width="156.502" height="82.072" viewBox="0 0 441.685 231.627">
    <path d="M441.403 210.34c0 11.55-9.451 21.005-21.008 21.005H21.287C9.733 231.345.282 221.89.282 210.34V21.287C.282 9.73 9.733.282 21.287.282h399.108c11.557 0 21.008 9.448 21.008 21.005V210.34z" style="fill:#fcd116;fill-opacity:1;fill-rule:nonzero;stroke:none"/>
    <path d="M21.285 228.72a18.08 18.08 0 0 1-7.126-1.454 18.302 18.302 0 0 1-5.853-3.95 18.472 18.472 0 0 1-3.954-5.85 18.211 18.211 0 0 1-1.447-7.126V21.287c0-2.47.49-4.869 1.447-7.13a18.434 18.434 0 0 1 3.954-5.85 18.488 18.488 0 0 1 5.853-3.954 18.073 18.073 0 0 1 7.126-1.446h399.108c2.47 0 4.868.483 7.133 1.446a18.512 18.512 0 0 1 5.85 3.955 18.366 18.366 0 0 1 3.95 5.849 18.09 18.09 0 0 1 1.447 7.13V210.34c0 2.466-.484 4.865-1.447 7.126a18.404 18.404 0 0 1-3.95 5.85 18.326 18.326 0 0 1-5.85 3.95 18.127 18.127 0 0 1-7.133 1.454H21.285z" style="fill:#000;fill-opacity:1;fill-rule:nonzero;stroke:none"/>
    <path d="M21.285 224.342c-1.877 0-3.7-.37-5.419-1.1a14.022 14.022 0 0 1-4.466-3.02 14.093 14.093 0 0 1-3.016-4.463 13.794 13.794 0 0 1-1.104-5.419V21.287c0-1.877.374-3.701 1.104-5.42a14.068 14.068 0 0 1 3.016-4.465 14.08 14.08 0 0 1 4.466-3.02 13.78 13.78 0 0 1 5.419-1.1h399.108c1.88 0 3.7.37 5.422 1.1a14.104 14.104 0 0 1 4.463 3.02 14.147 14.147 0 0 1 3.023 4.466 13.775 13.775 0 0 1 1.097 5.419V210.34c0 1.877-.367 3.697-1.097 5.419a14.173 14.173 0 0 1-3.023 4.463 14.046 14.046 0 0 1-4.463 3.02c-1.721.73-3.542 1.1-5.422 1.1H21.285z" style="fill:#fcd116;fill-opacity:1;fill-rule:nonzero;stroke:none"/>
    <path d="M273.504 198.085v-28.007h20.51v5.01H278.63v5.21h8.385v5.108h-8.385v7.666h15.878v5.013h-21.004zM235.412 170.077h5.041v28.007h-5.041v-28.007zM247.735 198.085v-28.007h5.03v23.682h15.978v4.325h-21.008zM223.199 198.085v-17.103l-8.29 17.103-8.189-17.103v17.103h-4.928v-28.007h4.928l8.188 16.608 8.29-16.608h4.936v28.007h-4.935zM152.45 205.084l.145-31.397h-5.274l-.148-6.044c3.224-.737 4.985-1.915 6.597-4.568h6.008v42.009h-7.328zM217.356 45.762l-4.914 11.794h9.825l-4.911-11.794zm11.052 26.286-3.44-8.23H209.74l-3.44 8.23h-6.875l14.74-35.006h6.381l14.616 35.006h-6.753zM296.948 45.762l-4.914 11.794h9.828l-4.914-11.794zM308 72.048l-3.44-8.23h-15.225l-3.44 8.23h-6.875l14.735-35.006h6.386l14.615 35.006H308zM186.853 72.048 170.075 47.97v24.077h-6.167V37.042h6.167l16.16 23.089V37.04h6.047v35.007h-5.429zM104.174 43.303H94.092v8.725h10.082c3.07 0 5.034-1.722 5.034-4.3 0-2.703-1.965-4.425-5.034-4.425m5.034 28.745-5.648-13.755h-9.468v13.755H87.83V37.042h16.224c2.576 0 4.17.367 6.015 1.474 3.313 1.842 5.401 5.281 5.401 9.211 0 3.93-2.088 7.373-5.648 9.335l6.385 14.986h-6.999zM138.797 72.662c-8.269 0-14.188-6.139-14.188-14.74v-20.88h6.293v20.88c0 2.089.244 3.197 1.108 4.548 1.358 2.332 3.947 3.806 6.787 3.806 2.837 0 5.426-1.474 6.784-3.806.865-1.351 1.108-2.582 1.108-4.547V37.042h6.297v20.88c0 8.601-5.923 14.74-14.189 14.74M269.387 72.048h-6.643l-5.655-23.46-5.535 23.46h-6.639l-6.392-35.006h6.519l3.81 22.602 5.165-22.602h6.272l5.408 22.602 3.567-22.602h6.392l-6.269 35.006zM339.116 57.8v14.248h-6.262V57.799l-14.739-20.757h7.736l10.196 14.248 10.064-14.248h7.74l-14.735 20.757zM302.887 108.783l-4.914 11.786h9.825l-4.91-11.786zm11.053 26.285-3.44-8.23h-15.226l-3.44 8.23h-6.878l14.739-35.01h6.385l14.616 35.01h-6.756zM164.701 135.682c-9.211 0-14.862-7.25-14.862-18.182 0-11.056 5.651-18.055 14.862-18.055 5.652 0 10.813 2.825 13.511 7.736l-5.524 2.95c-.988-1.475-1.475-1.966-2.462-2.58-1.348-1.107-3.68-1.845-5.525-1.845-6.385 0-8.474 6.27-8.474 11.674 0 7.613 3.193 12.037 8.474 12.037 3.193 0 4.914-1.105 7.987-4.424l5.524 2.949c-2.578 4.914-7.86 7.74-13.511 7.74M209.804 135.068l-8.992-18.182-6.657 8.357v9.825h-6.28v-35.01h6.28v15.23l12.446-15.23h8.132l-9.363 11.423 11.578 23.587h-7.144zM354.595 135.068v-21.375l-10.358 21.375L334 113.693v21.375h-6.166v-35.01h6.166l10.238 20.761 10.358-20.76h6.166v35.009h-6.166zM388.641 106.32h-10.573v8.724h10.573c3.073 0 5.158-1.718 5.158-4.3 0-2.699-2.085-4.424-5.158-4.424m6.015 13.635c-1.961 1.108-3.556 1.351-6.258 1.351h-10.33v13.762h-6.381v-35.01h16.71c2.703 0 4.298.367 6.26 1.475 3.315 1.841 5.404 5.281 5.404 9.211 0 3.687-2.089 7.37-5.405 9.211M91.365 106.32H81.283v8.724h10.082c3.07 0 5.034-1.718 5.034-4.3 0-2.699-1.965-4.424-5.034-4.424m5.034 28.748-5.648-13.762h-9.468v13.762H75.02v-35.01h16.22c2.58 0 4.174.367 6.02 1.475 3.312 1.841 5.4 5.281 5.4 9.211 0 3.93-2.088 7.37-5.648 9.338l6.382 14.986h-6.996zM268.302 106.32h-10.079v8.724h10.079c3.073 0 5.038-1.718 5.038-4.3 0-2.699-1.965-4.424-5.038-4.424m5.038 28.748-5.652-13.762h-9.465v13.762h-6.265v-35.01h16.224c2.575 0 4.17.367 6.015 1.475 3.313 1.841 5.401 5.281 5.401 9.211 0 3.93-2.088 7.37-5.644 9.338l6.381 14.986h-6.995zM57.82 106.2v28.868h-6.138V106.2H41.621v-6.142h26.26v6.142h-10.06zM125.985 135.682c-8.265 0-14.189-6.142-14.189-14.74v-20.884h6.297v20.885c0 2.088.244 3.192 1.108 4.544 1.358 2.331 3.948 3.806 6.784 3.806 2.84 0 5.43-1.475 6.788-3.807.864-1.35 1.107-2.582 1.107-4.543v-20.885h6.294v20.885c0 8.597-5.92 14.739-14.189 14.739" style="fill:#000;fill-opacity:1;fill-rule:nonzero;stroke:none"/>
</svg>
