<svg xmlns="http://www.w3.org/2000/svg" width="48.095" height="24.02" viewBox="0 0 135.735 67.79">
    <path d="M11.335 0H124.4c6.248 0 11.335 4.953 11.335 11.056v45.745c0 6.036-5.087 10.989-11.335 10.989H11.335C5.09 67.79 0 62.837 0 56.8V11.057C0 4.953 5.09 0 11.335 0" style="fill:#fcd116;fill-opacity:1;fill-rule:evenodd;stroke:none"/>
    <path d="M124.332 2.3c.476 0 .949 0 1.425.067.476.071.886.208 1.358.279.406.197.815.335 1.221.472.41.202.744.41 1.154.678.61.405 1.086.882 1.63 1.358.338.473.677.882 1.015 1.355.205.409.41.744.61 1.157.138.409.272.815.41 1.22.138.406.201.815.201 1.288l.07.882v46.22c-.07.407-.07.812-.204 1.289-.067.405-.205.814-.339 1.22-.137.406-.338.744-.543 1.157-.205.339-.406.745-.677 1.083-.477.544-.953 1.02-1.493 1.493-.342.271-.68.546-1.09.744-.54.279-1.016.547-1.559.751-.473.13-.878.268-1.288.339l-1.358.201H11.405c-.477 0-.953-.07-1.426-.13a9.848 9.848 0 0 1-1.358-.28 8.276 8.276 0 0 1-1.22-.472c-.41-.2-.749-.41-1.158-.607a16.089 16.089 0 0 1-1.626-1.428c-.342-.406-.678-.882-1.02-1.355-.204-.339-.405-.752-.61-1.09-.134-.406-.272-.812-.406-1.22a4.195 4.195 0 0 1-.204-1.288L2.31 56.8V10.583c.067-.476.067-.882.2-1.29.071-.407.205-.812.343-1.218.134-.41.339-.822.54-1.157.204-.41.412-.745.68-1.083.477-.614.95-1.09 1.496-1.563a5.504 5.504 0 0 1 1.083-.677c.544-.346 1.016-.544 1.563-.752.473-.197.882-.268 1.288-.405.476-.071.882-.138 1.358-.138h113.471z" style="fill:#000;fill-opacity:1;fill-rule:evenodd;stroke:none"/>
    <path d="M11.335 5.697H124.4a5.617 5.617 0 0 1 5.634 5.63v45.199a5.623 5.623 0 0 1-5.634 5.637H11.335A5.623 5.623 0 0 1 5.7 56.526V11.328a5.617 5.617 0 0 1 5.634-5.63" style="fill:#fcd116;fill-opacity:1;fill-rule:evenodd;stroke:none"/>
    <path d="M36.368 27.594c0-4.755-2.97-7.923-7.426-7.923h-8.42v28.236h4.056V35.525h4.364c4.752 0 7.426-2.777 7.426-7.93m-3.962 0c0 2.575-1.287 4.063-3.665 4.063h-4.163v-8.025h4.163c2.184 0 3.665 1.584 3.665 3.961M46.972 28.088l-1.986 8.125h4.068l-2.082-8.125zm5.052 19.82-1.986-7.734h-6.043l-1.88 7.733H38.05l7.034-28.236h3.969l7.034 28.236h-4.064zM67.973 47.907h-3.072l-7.134-28.236h4.06l4.658 18.327 4.66-18.327h4.064l-7.236 28.236zM79.17 47.907V19.671H92.45v3.962h-9.222v7.13h5.85v3.866h-5.85v9.317h10.309v3.961H79.17zM114.145 33.74c0-2.184-.297-4.657-.695-6.738-.49-2.876-1.683-5.06-3.37-6.245-.987-.79-2.18-1.086-4.554-1.086h-7.235v28.236h7.828c1.584 0 2.974-.395 3.962-1.29 2.776-2.178 4.064-6.337 4.064-12.877m-3.962.194c0 2.183-.201 4.159-.399 5.944-.395 2.184-1.682 4.068-4.06 4.068h-3.369V23.633h3.369c1.785 0 2.97.889 3.665 2.871.498 1.186.794 4.258.794 7.43" style="fill:#000;fill-opacity:1;fill-rule:evenodd;stroke:none"/>
</svg>
