<svg xmlns="http://www.w3.org/2000/svg" width="48.095" height="24.02" viewBox="0 0 135.735 67.79">
    <path d="M11.335 0H124.4c6.248 0 11.335 4.953 11.335 11.056v45.745c0 6.036-5.087 10.989-11.335 10.989H11.335C5.09 67.79 0 62.837 0 56.8V11.057C0 4.953 5.09 0 11.335 0" style="fill:#fcd116;fill-opacity:1;fill-rule:evenodd;stroke:none"/>
    <path d="M124.332 2.3c.476 0 .949 0 1.425.067.476.071.886.208 1.358.279.406.197.815.335 1.221.472.41.202.744.41 1.154.678.61.405 1.086.882 1.63 1.358.338.473.677.882 1.015 1.355.205.409.41.744.61 1.157.138.409.272.815.41 1.22.138.406.201.815.201 1.288l.07.882v46.22c-.07.407-.07.812-.204 1.289-.067.405-.205.814-.339 1.22-.137.406-.338.744-.543 1.157-.205.339-.406.745-.677 1.083-.477.544-.953 1.02-1.493 1.493-.342.271-.68.546-1.09.744-.54.279-1.016.547-1.559.751-.473.13-.878.268-1.288.339l-1.358.201H11.405c-.477 0-.953-.07-1.426-.13a9.848 9.848 0 0 1-1.358-.28 8.276 8.276 0 0 1-1.22-.472c-.41-.2-.749-.41-1.158-.607a16.089 16.089 0 0 1-1.626-1.428c-.342-.406-.678-.882-1.02-1.355-.204-.339-.405-.752-.61-1.09-.134-.406-.272-.812-.406-1.22a4.195 4.195 0 0 1-.204-1.288L2.31 56.8V10.583c.067-.476.067-.882.2-1.29.071-.407.205-.812.343-1.218.134-.41.339-.822.54-1.157.204-.41.412-.745.68-1.083.477-.614.95-1.09 1.496-1.563a5.504 5.504 0 0 1 1.083-.677c.544-.346 1.016-.544 1.563-.752.473-.197.882-.268 1.288-.405.476-.071.882-.138 1.358-.138h113.471z" style="fill:#000;fill-opacity:1;fill-rule:evenodd;stroke:none"/>
    <path d="M11.335 5.697H124.4a5.617 5.617 0 0 1 5.634 5.63v45.199a5.623 5.623 0 0 1-5.634 5.637H11.335A5.623 5.623 0 0 1 5.7 56.526V11.328a5.617 5.617 0 0 1 5.634-5.63" style="fill:#fcd116;fill-opacity:1;fill-rule:evenodd;stroke:none"/>
    <path d="M126.03 47.907v-3.736H115.71V19.738h-4.004v28.17h14.323zm-19.142 0V43.97H96.573v-9.299h5.905v-3.796h-5.905v-7.197h9.232v-3.94H92.572v28.17h14.316zm-18.186-28.17h-4.07l-4.682 18.26-4.688-18.26H71.19l7.193 28.17h3.055l7.263-28.17zm-26.13 16.497h-4.074l1.972-8.075 2.102 8.075zm6.992 11.673-6.992-28.17h-4.004l-6.988 28.17h4.07l1.832-7.74h6.04l2.035 7.74h4.007zm-24.433-20.63c0 2.307-1.288 3.598-3.665 3.598H37.26v-7.197h4.206c2.173 0 3.665 1.43 3.665 3.599m3.937 20.63-4.075-13.776c2.717-1.02 4.075-3.464 4.075-6.854 0-4.548-2.985-7.54-7.465-7.54H33.19v28.17h4.071V34.671h3.87l3.8 13.236h4.138zM27.623 40.1v-5.838h-7.197v3.944h3.192V40.1c0 2.988-1.016 4.346-3.122 4.346-2.17 0-3.53-1.495-4.138-4.279-.409-2.17-.614-4.614-.614-6.918 0-3.397.477-6.586 1.292-7.944.677-1.425 1.764-2.1 3.189-2.1 1.968 0 3.26 1.288 3.393 3.19h4.005c-.138-4.209-3.257-7.126-7.331-7.126-3.256 0-6.107 2.173-7.123 5.154-.952 2.646-1.291 5.5-1.291 9.504 0 3.594.61 7.531 1.492 9.638 1.426 3.189 3.87 4.886 7.26 4.886 2.854 0 5.162-1.496 6.248-4.005.607-1.157.745-2.377.745-4.346" style="fill:#000;fill-opacity:1;fill-rule:evenodd;stroke:none"/>
</svg>
