<svg xmlns="http://www.w3.org/2000/svg" width="156.506" height="120.423" viewBox="0 0 441.696 339.859">
    <path d="M16.115.282h409.47c8.716 0 15.828 7.112 15.828 15.833v307.619c0 8.724-7.112 15.843-15.829 15.843H16.114c-8.723 0-15.832-7.12-15.832-15.843V16.114C.282 7.505 7.497.283 16.115.283" style="fill:#fcd116;fill-opacity:1;fill-rule:nonzero;stroke:none"/>
    <path d="M16.129 4.801h409.445c6.226 0 11.313 5.087 11.313 11.32v307.613c0 6.237-5.087 11.32-11.313 11.32H16.129c-6.244 0-11.328-5.083-11.328-11.32V16.122c0-6.153 5.161-11.32 11.328-11.32" style="fill:#000;fill-opacity:1;fill-rule:evenodd;stroke:none"/>
    <path d="M425.482 11.589c2.427 0 4.466 1.859 4.61 4.3l.015 307.763c.014 2.431-1.856 4.41-4.3 4.611H16.21c-2.438.014-4.427-1.862-4.614-4.286l-.01-307.77c-.01-2.435 1.866-4.417 4.3-4.611l409.593-.01" style="fill:#fcd116;fill-opacity:1;fill-rule:evenodd;stroke:none"/>
    <path d="m362.638 99.74-19.382-39.595 15.674-19.191h-13.62l-20.832 25.583V40.954h-10.513V99.74h10.513v-16.5l11.14-14.023 15.05 30.523h11.97zM300.563 87.79l-9.289-4.957c-5.161 5.567-8.04 7.423-13.402 7.423-8.865 0-14.241-7.423-14.241-20.211 0-9.08 3.5-19.593 14.241-19.593 3.087 0 7.01 1.224 9.275 3.094 1.647 1.026 2.473 1.852 4.127 4.325l9.289-4.946c-4.54-8.255-13.201-12.99-22.69-12.99-15.474 0-24.963 11.74-24.963 30.318 0 18.355 9.49 30.558 24.962 30.558 9.49 0 18.355-4.78 22.69-13.021m-61.061-11.762V40.954h-10.513v35.073c0 3.299-.42 5.359-1.866 7.627-2.262 3.92-6.597 6.392-11.335 6.392-4.749 0-9.08-2.473-11.342-6.392-1.446-2.268-1.866-4.127-1.866-7.627V40.954h-10.516v35.073c0 14.44 9.909 24.783 23.724 24.783S239.5 90.466 239.5 76.027m-70.955-17.124c0 4.329-3.288 7.222-8.46 7.222h-16.742V51.477h16.743c5.171 0 8.46 2.893 8.46 7.426m11.76 40.838-10.72-25.16c5.973-3.295 9.476-9.077 9.476-15.678 0-6.6-3.503-12.375-9.07-15.47-3.094-1.851-5.772-2.48-10.114-2.48h-27.051v58.788h10.516V76.644h15.702l9.5 23.097h11.762zm-57.385-48.465V40.954H78.775v10.322h16.923v48.465h10.315V51.276h16.909zM388.765 199.87v-10.52h-33.21v-16.097h17.536v-10.721h-17.537v-10.933h32.184v-10.516h-42.905v58.787h43.932zm-64.142-40.845c0 4.329-3.507 7.214-8.668 7.214h-17.113V151.6h17.113c5.161 0 8.668 2.886 8.668 7.426m10.516 0c0-6.6-3.5-12.382-9.08-15.476-3.288-1.852-5.984-2.466-10.517-2.466h-27.421v58.787h10.72v-23.11h16.701c4.533 0 7.229-.413 10.516-2.266 5.581-3.093 9.08-9.281 9.08-15.469m-78.59 16.496h-16.5l8.255-19.798 8.244 19.798zm21.656 24.349-24.543-58.787h-10.72l-24.744 58.787h11.55l5.76-13.822h25.587l5.768 13.822h11.342zm-68.061-11.966-9.275-4.957c-5.161 5.574-8.054 7.43-13.416 7.43-8.865 0-14.227-7.43-14.227-20.218 0-9.074 3.499-19.586 14.227-19.586 3.094 0 7.017 1.23 9.282 3.086 1.654 1.03 2.48 1.86 4.134 4.332l9.275-4.945c-4.533-8.248-13.194-13.004-22.691-13.004-15.473 0-24.948 11.762-24.948 30.325 0 18.362 9.475 30.565 24.948 30.565 9.497 0 18.359-4.784 22.69-13.028m-57.594-5.162c0-6.395-3.295-11.955-8.449-14.636-3.298-1.655-8.46-3.306-16.295-4.96-7.221-1.648-9.288-3.094-9.288-6.39 0-3.71 3.51-5.979 9.49-5.979 5.58 0 10.315 1.856 14.026 5.775l7.835-7.013c-5.98-6.195-13.2-9.084-21.862-9.084-11.97 0-20.21 6.6-20.21 16.302 0 3.707 1.235 7.214 3.708 9.895 2.48 2.893 5.58 4.336 11.557 5.782l2.885.819 2.681.613 2.678.826c2.681.628 4.964 1.457 7.017 2.275 2.48 1.242 3.71 3.094 3.71 5.36 0 4.335-5.365 7.637-12.787 7.637-6.6 0-11.339-2.269-15.674-7.423l-8.453 6.594c6.608 7.634 14.228 11.377 24.335 11.377 5.362 0 10.72-1.475 14.855-3.948 5.56-3.302 8.241-7.835 8.241-13.822M96.862 199.87v-10.52h-33.21v-16.097h17.526v-10.721H63.652v-10.933h32.177v-10.516H52.93v58.787h43.931zM330.75 259.09c0 4.33-3.51 7.215-8.66 7.215h-17.124v-14.647h17.124c5.15 0 8.66 2.885 8.66 7.433m10.52 0c0-6.608-3.506-12.383-9.087-15.473-3.302-1.856-5.98-2.484-10.517-2.484h-27.421v58.787h10.72v-23.1h16.701c4.537 0 7.215-.409 10.517-2.268 5.58-3.094 9.087-9.282 9.087-15.462m-62.3 40.83v-58.787h-10.308l-17.329 34.858-17.117-34.858h-10.311v58.787h10.311v-35.88l17.117 35.88 17.329-35.88v35.88h10.308zm-86.618-24.328h-16.51l8.248-19.808 8.262 19.808zm21.657 24.328-24.557-58.787h-10.72l-24.787 58.787h11.585l5.779-13.815h25.576l5.775 13.815h11.35zm-78.225-40.83c0 4.328-3.309 7.214-8.46 7.214h-16.71v-14.647h16.71c5.151 0 8.46 2.885 8.46 7.433m11.748 40.83-10.721-25.16c5.986-3.302 9.486-9.084 9.486-15.67 0-6.608-3.5-12.383-9.066-15.473-3.101-1.856-5.782-2.484-10.115-2.484h-27.015v58.787h10.513v-23.1h15.684l9.486 23.1h11.748z" style="fill:#000;fill-opacity:1;fill-rule:evenodd;stroke:none"/>
</svg>
