<svg xmlns="http://www.w3.org/2000/svg" width="90" height="90" viewBox="0 0 254 254">
    <path d="M4.919 115.075 115.08 4.913c6.558-6.55 17.286-6.55 23.847 0l110.159 110.162c6.55 6.558 6.55 17.286 0 23.844L138.928 249.081c-6.561 6.559-17.29 6.559-23.847 0L4.919 138.92c-6.559-6.558-6.559-17.286 0-23.844" style="fill:#fcd116;fill-opacity:1;fill-rule:nonzero;stroke:none"/>
    <path d="M9.357 116.589 116.594 9.359c5.726-5.726 15.092-5.726 20.81 0l107.238 107.23c5.725 5.725 5.725 15.091 0 20.817L137.404 244.643c-5.718 5.719-15.084 5.719-20.81 0L9.357 137.406c-5.719-5.726-5.719-15.092 0-20.817" style="fill:#000;fill-opacity:1;fill-rule:evenodd;stroke:none"/>
    <path d="M14.937 119.95 119.96 14.933c3.87-3.88 10.217-3.88 14.09 0l105.019 105.019c3.88 3.873 3.88 10.22 0 14.097L134.049 239.07c-3.873 3.873-10.22 3.873-14.09 0L14.937 134.048c-3.88-3.877-3.88-10.224 0-14.097" style="fill:#fcd116;fill-opacity:1;fill-rule:evenodd;stroke:none"/>
    <path style="fill:#000;fill-opacity:1;fill-rule:evenodd;stroke:none" d="M120.356 67.035c-.299.025-.62.125-1.058.353-1.757.913-10.75 6.237-16.846 9.701-1.17.656-1.693 1.923-.176 2.293 1.51.374 6.728-.264 9.437-1.235l.264 1.676-31.661 16.228-1.853-9.172-3.44-2.382.706-2.469 7.673-3.969-1.41-2.47-8.82 4.499-1.764 6.614 3.792 2.382 2.734 21.254c-3.99-.07-8.12.964-11.73 2.823-12.431 6.378-17.402 21.699-11.024 34.13 5.913 11.512 19.537 16.567 31.397 12.172l-18.52 9.613h117.915v-61.119L166.393 118.1c9.26-7.366 12.393-20.483 6.791-31.398-6.378-12.432-21.71-17.402-34.131-11.024-4.142 2.13-7.807 5.486-10.23 9.437l-12.26-5.468-.44-3.88c4.106-2.985 4.508-4.633 5.027-6.527.386-1.424.101-2.278-.794-2.205zm30.692 10.672a20.614 20.614 0 0 1 17.815 11.2c5.165 10.058 1.242 22.437-8.82 27.605-8.138 4.173-18.415 2.406-24.43-4.233l14.994-11.73c.405-.014.86-.07 1.234-.265 1.33-.68 1.828-2.374 1.147-3.704-.677-1.309-2.31-1.834-3.528-1.234l-16.669-8.026c1.895-2.978 5.257-5.673 8.467-7.32 3.143-1.615 6.478-2.373 9.79-2.293zm-38.365 6.702 4.674 29.722-1.764-2.47.97-.44-.97-1.676-4.233 2.205.97 1.499 1.059-.53 1.763 2.735s-33.513-13-33.69-13.053l-.353-1.764 31.574-16.228zm4.763.265 9.172 3.88c-2.9 7.874-1.8 15 1.41 21.255.318.614.932 1.496 1.236 2.029l-6.88 4.41-4.938-31.574zm13.493 5.997 16.228 7.585-14.2 10.495c-2.783-5.507-4.811-11.095-2.028-18.08zm-48.86 16.845 35.455 13.847c.31 2.233 2.437 3.598 4.85 2.822l4.498 5.027-1.146.617.794 1.676 4.85-2.734-.882-1.5-1.587.794-4.234-5.203c.576-.91.918-1.86.794-2.822l6.262-4.763c6.569 7.207 16.785 10.001 26.017 7.32l-65.616 33.955c10.357-7.105 14.086-20.997 8.202-32.455-3.528-6.876-10.167-11.822-17.815-13.318l-.441-3.263zm-5.908 7.673a19.532 19.532 0 0 1 2.645 0c1.115 6.58.85 10.372-2.38 17.639-1.31.744-1.807 2.423-1.147 3.704.684 1.33 2.377 1.827 3.704 1.147 1.33-.685 1.69-2.322.97-3.705 2.508-5.549 4.18-10.445 3.263-18.08 5.5 1.475 10.192 5.338 12.788 10.408 5.168 10.06 1.15 22.436-8.907 27.604-10.069 5.169-22.444 1.239-27.605-8.82-5.168-10.067-1.16-22.527 8.907-27.692a20.514 20.514 0 0 1 7.762-2.205z"/>
</svg>
