<svg xmlns="http://www.w3.org/2000/svg" width="90.002" height="90" viewBox="0 0 254.005 254">
    <path d="M3.638 118.185 118.192 3.638c4.844-4.85 12.774-4.85 17.625 0l114.55 114.547c4.851 4.85 4.851 12.781 0 17.625l-114.55 114.557c-4.85 4.844-12.781 4.844-17.625 0L3.638 135.81c-4.85-4.844-4.85-12.774 0-17.625" style="fill:#fcd116;fill-opacity:1;fill-rule:nonzero;stroke:none"/>
    <path d="M6.393 120.005 120.013 6.4c3.845-3.845 10.135-3.845 13.987 0l113.605 113.605c3.845 3.85 3.845 10.143 0 13.988L134 247.605c-3.852 3.842-10.142 3.842-13.988 0L6.393 133.993c-3.845-3.845-3.845-10.139 0-13.988" style="fill:#000;fill-opacity:1;fill-rule:evenodd;stroke:none"/>
    <path d="M9.95 123.505 123.511 9.949c1.915-1.922 5.066-1.922 6.985 0l113.56 113.556a4.95 4.95 0 0 1 0 6.985l-113.56 113.559c-1.92 1.923-5.07 1.923-6.985 0L9.949 130.489a4.95 4.95 0 0 1 0-6.984" style="fill:#fcd116;fill-opacity:1;fill-rule:evenodd;stroke:none"/>
    <path d="M164.882 117.02c-3.446 1.807-6.893 3.61-10.308 5.486-3.937 2.156-9.917 4.47-12.107 8.598-6.767 12.746 21.311 9.384 26.624 9.736 5.704.378 12.982 2.142 12.506 9.289-.688 5.496-4.576 10.555-7.165 15.318-1.422-.822-2.84-1.64-4.258-2.463.448-.06 1.492-2.032 1.721-2.37 1.323-1.888 2.59-3.818 3.701-5.835 1.087-1.965 2.494-4.611 1.542-6.883-1.359-2.321-5.017-2.59-7.395-2.833-6.632-.522-13.303.23-19.946-.205-2.508-.165-5.037-.737-7.207-2.06-3.94-2.406-5.972-7.041-4.699-11.514 1.866-6.58 9.412-9.592 14.849-12.577-7.077-.935-13.561-5.105-17.251-11.451l-6.506 3.055c-.077.889-.592 1.686-1.28 2.388l2.77 5.45 1.555-.42.536 1.532-4.85 1.556-.449-1.68 1.2-.317-3.03-5.383c-2.308.236-3.976-1.348-3.818-3.405L92.542 90.778l-.276 2.974c6.559 2.811 11.56 8.516 13.392 15.352 3.295 12.284-3.987 24.991-16.217 28.381-5.087 2.777-10.309 5.292-15.31 8.213-3.225 1.887-7.483 4.28-7.353 8.58.194 6.508 8.386 6.565 13.035 6.625 6.622.035 13.632-.861 20.102.889 12.812 3.475 3.45 16.69-.367 23.717-1.418-.818-2.847-1.64-4.265-2.459.412-.028 1.524-2.067 1.728-2.37 1.316-1.88 2.586-3.818 3.7-5.828 1.084-1.972 2.488-4.618 1.546-6.894-1.351-2.32-5.024-2.589-7.401-2.822-6.629-.533-13.3.219-19.946-.215-2.509-.166-5.038-.73-7.208-2.06-3.94-2.406-5.961-7.035-4.699-11.515 1.99-7.027 10.57-10.273 16.362-13.346-8.675-1.481-16.15-7.845-18.566-16.88-3.31-12.354 4.064-25.128 16.418-28.434 3.595-.966 7.51-1.076 11.067-.243l1.679-19.477-2.978-2.928 2.897-5.535 8.748-2.343.801 2.487-7.676 2.054-1.108 2.095 2.664 2.755-.117 8.63 31.422-8.422.081-1.59c-2.61.342-7.38-.043-8.66-.67-1.288-.625-.6-1.701.578-2.054 6.124-1.93 15.201-4.91 16.951-5.394 1.75-.476 2.163.356 1.337 1.958-.836 1.59-1.545 3.016-5.803 4.896l-.332 3.556 9.903 7.222c2.935-3.066 6.875-5.313 10.996-6.414 12.354-3.309 25.128 4.064 28.437 16.419 3.016 11.25-2.826 22.842-13.222 27.333m-25.322-11.674c4.106 7.105 12.897 10.682 20.98 8.516 10.004-2.677 15.977-13.028 13.3-23.032-2.682-9.998-13.025-15.97-23.03-13.29-3.196.854-6.689 2.597-8.957 4.897l13.36 10.446c1.213-.304 2.55.49 2.903 1.792a2.494 2.494 0 0 1-1.757 3.044 2.703 2.703 0 0 1-1.14.043l-15.66 7.584zm-53.993 8.703c3.316-4.47 5.74-8.537 6.396-15.55 4.635 2.385 8.075 6.71 9.426 11.747 2.678 10.005-3.288 20.349-13.292 23.026-10.005 2.681-20.349-3.291-23.033-13.296-2.681-9.998 3.291-20.348 13.296-23.026 3.189-.857 6.706-.808 9.75.039-.267 6.107-1.227 9.476-5.527 15.353-1.316.413-2.04 1.757-1.694 3.03a2.478 2.478 0 0 0 3.038 1.75c1.323-.35 2.014-1.686 1.64-3.073m7.38-28.014.088-1.626 31.345-8.442-1.563 27.527-1.069-2.543.963-.261-.571-1.648-4.195 1.133.536 1.52 1.076-.29 1.013 2.82s-27.471-18.102-27.623-18.19m40.954 17.678c-.173-.536-.487-1.39-.652-2.004-1.67-6.223-1.278-12.81 2.836-19.293l-7.514-5.285-1.605 29.217 6.935-2.635zm3.983-2.053 14.683-6.622-13.05-9.976c-3.845 5.718-3.058 11.137-1.633 16.598" style="fill:#000;fill-opacity:1;fill-rule:evenodd;stroke:none"/>
</svg>
