<svg xmlns="http://www.w3.org/2000/svg" width="3678.575" height="3678.575" viewBox="-0.525 -0.67 3678.575 3678.575" xml:space="preserve">
    <path style="fill:#fcd116;fill-rule:nonzero;stroke:none" d="M1958.087 3628.48c-65.9 65.9-172.75 65.9-238.65 0L48.901 1957.942c-65.901-65.9-65.901-172.75 0-238.65L1719.437 48.756c65.9-65.901 172.75-65.901 238.65 0l1670.538 1670.536c65.9 65.9 65.9 172.75 0 238.65L1958.087 3628.48z"/>
    <path style="fill:#000;fill-rule:nonzero;stroke:none" d="M80.72 1926.126c-48.249-48.25-48.249-126.762 0-175.012L1751.26 80.576c48.25-48.25 126.75-48.25 175.012 0L3596.81 1751.114c48.25 48.25 48.25 126.762 0 175.012L1926.27 3596.664c-48.25 48.25-126.762 48.25-175.012 0L80.72 1926.126z"/>
    <path style="fill:#fcd116;fill-rule:nonzero;stroke:none" d="M128.45 1878.387c-21.931-21.925-21.931-57.613 0-79.55l1670.532-1670.53c21.937-21.933 57.625-21.933 79.55 0l1670.537 1670.53c21.938 21.937 21.938 57.625 0 79.55L1878.532 3548.924c-21.925 21.938-57.613 21.938-79.55 0L128.45 1878.387z"/>
    <path style="fill:#000;fill-rule:nonzero;stroke:none" d="M2048.374 2498.617c-6.35-44.212-23.787-64.737-53.912-64.737-52.325 0-71.363 41.05-71.363 157.9 0 129.475 22.2 181.575 77.7 181.575 38.05 0 47.575-31.575 47.575-64.738h65c-1.587 74.213-49.15 127.9-112.575 127.9-96.725 0-139.537-77.375-139.537-243.162 0-145.263 45.987-222.625 134.775-222.625 36.475 0 68.187 15.787 88.8 45.787 17.437 22.1 23.787 41.05 28.537 82.1h-65zM1398.524 2487.567c-11.037-31.575-29.937-45.787-58.312-45.787h-53.563v323.687h53.563c37.825 0 58.312-30 64.612-64.737 3.15-28.425 6.3-60 6.3-94.738 0-50.525-4.725-99.475-12.6-118.425zm11.025 320.525c-15.762 14.213-37.812 20.525-63.025 20.525h-124.483v-450h115.02c37.826 0 56.726 4.738 72.488 17.375 26.788 18.938 45.7 53.675 53.575 99.475 6.3 33.15 11.025 72.625 11.025 107.363 0 104.212-20.475 170.525-64.6 205.262zM1564.15 2828.617v-450h212.2v63.163h-147.276v113.687h93.438v61.575h-93.438v148.425h164.688v63.15h-229.613zM2387.737 2828.617l-78.788-219.475-40.962 75.788v143.687h-64.613v-450h64.613v180l102.412-180h74.063l-92.963 157.9 103.988 292.1h-67.75zM1105.942 1904.93h-64.605v140.537h64.605c36.24 0 59.876-25.275 59.876-64.737 0-42.638-26.786-75.8-59.876-75.8zm3.15-183.15h-67.755v120h67.755c29.94 0 48.846-25.263 48.846-66.313 0-37.9-14.179-53.687-48.846-53.687zm0 386.837H976.734v-450h141.813c59.876 0 102.42 47.375 102.42 116.85 0 41.05-11.029 60-47.27 97.888 34.665 28.425 55.149 66.312 55.149 112.112 0 67.888-53.574 123.15-119.754 123.15zM1972.437 1767.567c-11.025-31.575-29.938-45.787-58.3-45.787h-53.575v323.687h53.575c37.812 0 58.3-30 64.6-64.737 3.15-28.425 6.312-60 6.312-94.738 0-50.525-4.737-99.475-12.612-118.425zm11.025 320.525c-15.75 14.213-37.813 20.525-63.025 20.525h-124.475v-450h115.025c37.812 0 56.725 4.738 72.475 17.375 26.787 18.938 45.7 53.675 53.575 99.475 6.312 33.15 11.037 72.625 11.037 107.363 0 104.212-20.487 170.525-64.612 205.262zM2471.187 2108.617v-450h212.187v63.163h-147.262v113.687h93.425v61.575h-93.425v148.425h164.687v63.15h-229.612zM2368.5 2053.355c-17.438 39.475-53.913 63.162-99.888 63.162-53.913 0-93.55-26.85-115.75-77.375-14.275-33.15-23.788-96.312-23.788-154.737 0-63.15 4.763-108.938 20.613-151.575 15.85-47.363 61.837-82.1 114.162-82.1 65.013 0 114.163 47.362 117.338 113.675h-65.013c-1.587-30-22.2-50.525-53.912-50.525-22.2 0-39.638 11.05-50.738 33.162-12.687 22.1-20.612 72.625-20.612 126.313 0 37.9 3.175 77.375 9.512 112.112 9.513 44.2 31.713 67.888 66.6 67.888 33.288 0 49.15-22.1 49.15-69.475v-30h-50.737v-63.15h115.75v93.15c0 31.587-3.175 50.525-12.688 69.475zM1633.962 2108.617v-450h63v450h-63zM1436.137 1721.78h-66.188v113.675h66.188c37.812 0 58.3-20.525 58.3-56.838 0-34.737-23.638-56.837-58.3-56.837zm55.137 386.837-59.875-211.575h-61.45v211.575h-64.6v-450h133.925c70.913 0 118.188 47.375 118.188 120 0 53.688-22.063 93.163-64.6 108.95l64.6 221.05h-66.188zM2197.35 1072.829l-31.663 129.475h64.912l-33.25-129.475zm80.737 315.788-31.663-123.162h-96.562l-30.075 123.162h-64.913l112.4-449.997h63.325l112.388 449.997h-64.9zM1528.15 1388.617V938.62h212.2v63.156h-147.276v113.684h93.438v61.581h-93.438v148.426h164.688v63.15h-229.613zM2405.987 1388.617V938.62h64.925v389.997h164.687v60h-229.612zM1364.337 1388.617v-252.63l-83.8 252.63-83.793-252.63v252.63h-64.817V938.62h64.817l83.793 252.63 83.8-252.63h64.812v449.997h-64.812zM1945.537 998.619v389.998h-64.925V998.62h-82.35v-60.002h229.612v60.002h-82.337z"/>
</svg>
