<svg xmlns="http://www.w3.org/2000/svg" width="3678.575" height="3678.575" viewBox="-0.525 -0.67 3678.575 3678.575" xml:space="preserve">
    <path style="fill:#fcd116;fill-rule:nonzero;stroke:none" d="M1958.087 3628.48c-65.9 65.9-172.75 65.9-238.65 0L48.901 1957.942c-65.901-65.9-65.901-172.75 0-238.65L1719.437 48.756c65.9-65.901 172.75-65.901 238.65 0l1670.538 1670.536c65.9 65.9 65.9 172.75 0 238.65L1958.087 3628.48z"/>
    <path style="fill:#000;fill-rule:nonzero;stroke:none" d="M80.72 1926.126c-48.249-48.25-48.249-126.762 0-175.012L1751.26 80.576c48.25-48.25 126.75-48.25 175.012 0L3596.81 1751.114c48.25 48.25 48.25 126.762 0 175.012L1926.27 3596.664c-48.25 48.25-126.762 48.25-175.012 0L80.72 1926.126z"/>
    <path style="fill:#fcd116;fill-rule:nonzero;stroke:none" d="M128.45 1878.387c-21.931-21.925-21.931-57.613 0-79.55l1670.532-1670.53c21.937-21.933 57.625-21.933 79.55 0l1670.537 1670.53c21.938 21.937 21.938 57.625 0 79.55L1878.532 3548.924c-21.925 21.938-57.613 21.938-79.55 0L128.45 1878.387z"/>
    <path style="fill:#000;fill-rule:nonzero;stroke:none" d="m1086.693 1995.33-31.661 129.475h64.907l-33.246-129.475zm80.735 315.787-31.66-123.15h-96.565l-30.077 123.15H944.22l112.395-450h63.323l112.394 450h-64.905zM2250.687 2311.117v-450h212.187v63.163h-147.262v113.687h93.425v61.575h-93.425v148.425h164.687v63.15h-229.612zM1583.45 2311.117v-450h212.187v63.163h-147.263v113.687h93.425v61.575h-93.425v148.425h164.688v63.15h-229.613zM2106.662 2311.117v-252.625l-83.788 252.625-83.8-252.625v252.625h-64.812v-450h64.812l83.8 252.638 83.788-252.638h64.825v450h-64.825zM2744.762 2311.117l-138.663-301.575v301.575h-64.6v-450h64.6l122.913 270v-270h64.6v450h-48.85zM779.69 1924.28h-66.18v127.887h66.18c37.818 0 58.302-23.675 58.302-64.725 0-37.9-23.635-63.162-58.301-63.162zm3.152 189.475H713.51v197.362h-64.604v-450h133.935c70.907 0 118.176 50.525 118.176 126.325 0 82.1-42.542 126.313-118.176 126.313zM2991.274 1921.117v390h-64.925v-390h-82.337v-60h229.612v60h-82.35zM1417.274 2311.117h-49.162l-114.175-450h65.012l74.538 292.113 74.537-292.113h65.025l-115.775 450zM2834.074 1295.067c-11.025-31.575-29.937-45.787-58.3-45.787H2722.2v323.687h53.575c37.813 0 58.3-30 64.6-64.737 3.15-28.425 6.3-60 6.3-94.738 0-50.525-4.725-99.475-12.6-118.425zm11.025 320.525c-15.75 14.213-37.812 20.525-63.025 20.525H2657.6v-449.996h115.025c37.813 0 56.725 4.736 72.475 17.368 26.788 18.947 45.7 53.678 53.575 99.478 6.313 33.15 11.038 72.625 11.038 107.363 0 104.212-20.488 170.525-64.613 205.262zM2366.787 1636.117v-449.996h212.187v63.159h-147.262v113.687h93.425v61.575h-93.425v148.425h164.687v63.15h-229.612zM1007.25 1580.855c-17.44 39.475-53.91 63.162-99.892 63.162-53.911 0-93.551-26.85-115.75-77.375-14.271-33.15-23.785-96.312-23.785-154.737 0-63.15 4.758-108.938 20.614-151.575 15.855-47.369 61.839-82.105 114.164-82.105 65.008 0 114.163 47.369 117.333 113.68h-65.01c-1.585-30-22.195-50.523-53.91-50.523-22.198 0-39.638 11.048-50.738 33.16-12.685 22.1-20.614 72.625-20.614 126.313 0 37.9 3.172 77.375 9.514 112.112 9.512 44.2 31.71 67.888 66.596 67.888 33.297 0 49.152-22.1 49.152-69.475v-30h-50.736v-63.15h115.746v93.15c0 31.587-3.17 50.525-12.683 69.475zM1587.312 1298.23c-11.125-39.475-28.625-56.848-55.663-56.848-28.625 0-46.125 17.373-57.262 55.26-11.125 34.738-14.313 64.738-14.313 115.263 0 48.95 4.775 77.375 14.313 113.687 11.137 37.9 28.637 55.263 57.262 55.263 27.038 0 44.538-17.363 55.663-55.263 11.137-36.312 14.325-63.162 14.325-115.262 0-50.525-4.775-78.95-14.325-112.1zm50.9 268.412c-22.263 53.688-55.663 77.375-106.563 77.375-54.075 0-85.887-23.687-108.15-77.375-19.087-44.2-25.45-86.837-25.45-156.312 0-67.9 6.363-113.688 25.45-156.313 23.85-53.688 55.663-75.792 108.15-75.792 52.488 0 84.3 22.104 106.563 77.367 19.087 44.213 25.45 86.838 25.45 154.738 0 69.475-6.363 113.687-25.45 156.312zM1917.724 1298.23c-11.125-39.475-28.625-56.848-55.662-56.848-28.625 0-46.125 17.373-57.263 55.26-11.125 34.738-14.312 64.738-14.312 115.263 0 48.95 4.775 77.375 14.312 113.687 11.138 37.9 28.638 55.263 57.263 55.263 27.037 0 44.537-17.363 55.662-55.263 11.138-36.312 14.313-63.162 14.313-115.262 0-50.525-4.763-78.95-14.313-112.1zm50.9 268.412c-22.275 53.688-55.662 77.375-106.562 77.375-54.075 0-85.888-23.687-108.15-77.375-19.088-44.2-25.45-86.837-25.45-156.312 0-67.9 6.362-113.688 25.45-156.313 23.85-53.688 55.662-75.792 108.15-75.792 52.487 0 84.287 22.104 106.562 77.367 19.088 44.213 25.45 86.838 25.45 154.738 0 69.475-6.362 113.687-25.45 156.312zM1222.72 1249.28h-66.18v113.687h66.18c37.817 0 58.304-20.537 58.304-56.85 0-34.737-23.637-56.837-58.303-56.837zm55.154 386.837-59.883-211.575h-61.452v211.575h-64.602V1186.12h133.932c70.905 0 118.18 47.369 118.18 119.997 0 53.688-22.062 93.163-64.6 108.95l64.6 221.05h-66.175zM2200.612 1636.117h-49.163l-114.175-449.996h65.013l74.537 292.109 74.538-292.109h65.025l-115.775 449.996z"/>
</svg>
