<svg xmlns="http://www.w3.org/2000/svg" width="74.43" height="74.431" viewBox="0 0 210.058 210.062">
    <path d="m206.65 96.806-93.38-93.37A11.698 11.698 0 0 0 105.036 0c-3.066 0-6.057 1.263-8.24 3.436L3.41 96.806A11.676 11.676 0 0 0 0 105.046c.021 3.066 1.249 6.065 3.411 8.234l93.384 93.367c2.163 2.162 5.193 3.411 8.248 3.415a11.773 11.773 0 0 0 8.234-3.415l93.373-93.363c2.798-2.798 3.99-7.01 3.136-10.862-.5-2.219-1.728-3.866-3.136-5.616" style="fill:#fcd116;fill-opacity:1;fill-rule:nonzero;stroke:none"/>
    <path d="m204.343 110.973-93.37 93.366a8.444 8.444 0 0 1-5.93 2.456 8.436 8.436 0 0 1-5.927-2.456L5.708 110.97c-1.552-1.551-2.434-3.728-2.434-5.926.007-2.198.889-4.378 2.437-5.93L99.11 5.718a8.513 8.513 0 0 1 5.927-2.43c2.198 0 4.382.885 5.937 2.43l93.37 93.398a8.418 8.418 0 0 1 2.452 5.927 8.42 8.42 0 0 1-2.452 5.93" style="fill:#000;fill-opacity:1;fill-rule:evenodd;stroke:none"/>
    <path d="M201.126 107.749a3.878 3.878 0 0 0 1.122-2.706c0-.98-.413-2.021-1.122-2.72L107.742 8.946a3.897 3.897 0 0 0-2.699-1.11c-.988 0-2.021.412-2.723 1.11L8.932 102.323c-.705.71-1.097 1.718-1.097 2.717.007.998.392 1.993 1.104 2.705l93.38 93.391c.703.699 1.743 1.112 2.724 1.112.991 0 2.004-.413 2.706-1.112l93.377-93.387z" style="fill:#fcd116;fill-opacity:1;fill-rule:evenodd;stroke:none"/>
    <path d="M144.184 83.354v-2.928h-7.599v-6.872h4.307v-2.843h-4.307v-5.264h6.795v-2.92h-9.79v20.827h10.594zm-14.69-5.775v-4.314h-5.33v2.924h2.335v1.39c0 2.191-.73 3.21-2.261 3.21-1.612 0-2.639-1.093-3.073-3.14-.29-1.604-.44-3.432-.44-5.188 0-2.48.366-4.823.952-5.842.508-1.02 1.316-1.539 2.335-1.539 1.468 0 2.41.953 2.487 2.343h2.995c-.144-3.073-2.41-5.264-5.408-5.264-2.41 0-4.526 1.606-5.256 3.803-.738 1.972-.953 4.086-.953 7.007 0 2.709.434 5.63 1.097 7.168 1.02 2.335 2.854 3.588 5.334 3.588 2.114 0 3.803-1.108 4.6-2.935.442-.875.586-1.75.586-3.21m-18.263-4.534c0 1.612-.152 3.073-.296 4.389-.29 1.605-1.242 2.991-3 2.991h-2.48V65.447h2.48c1.317 0 2.192.66 2.71 2.12.364.875.586 3.144.586 5.48m2.92-.145c0-1.606-.221-3.44-.51-4.968-.371-2.123-1.246-3.728-2.488-4.61-.73-.579-1.612-.798-3.362-.798h-5.334v20.828h5.775c1.164 0 2.191-.296 2.921-.952 2.046-1.612 2.999-4.678 2.999-9.5M97.924 62.526h-2.92v20.828h2.92V62.526zM88.65 68.08c0 1.68-.956 2.632-2.706 2.632h-3.066v-5.264h3.066c1.605 0 2.706 1.027 2.706 2.632m2.92 15.275L88.576 73.12c1.969-.73 2.996-2.56 2.996-5.04 0-3.363-2.198-5.554-5.483-5.554H79.88v20.828h2.998v-9.8h2.844l2.776 9.8h3.073zm-18.051-5.92c0 1.828-1.094 2.992-2.776 2.992h-2.999v-6.505h2.999c1.538 0 2.776 1.538 2.776 3.514m-.363-9.5c0 1.9-.875 3.065-2.269 3.065h-3.143v-5.553h3.143c1.605 0 2.269.73 2.269 2.487m3.284 9.716c0-2.117-.949-3.874-2.554-5.19 1.679-1.75 2.19-2.624 2.19-4.526 0-3.217-1.971-5.408-4.748-5.408h-6.58v20.828h6.14c3.065 0 5.552-2.564 5.552-5.704M176.626 114.713v-2.928h-7.603v-6.869h4.308v-2.847h-4.308v-5.26h6.795v-2.928h-9.79v20.832h10.598zm-16.958-15.276c0 1.676-.95 2.632-2.703 2.632h-3.072v-5.26h3.072c1.609 0 2.703 1.02 2.703 2.628m2.928 15.276-2.995-10.238c1.968-.723 2.995-2.554 2.995-5.038 0-3.358-2.198-5.556-5.486-5.556h-6.205v20.832h2.988v-9.797h2.854l2.776 9.797h3.073zm-18.715-10.45c0 2.41-.145 3.652-.653 5.331-.511 1.75-1.316 2.558-2.557 2.558-1.316 0-2.12-.808-2.632-2.558-.441-1.68-.66-2.995-.66-5.263 0-2.336.152-3.73.66-5.331.511-1.75 1.316-2.554 2.632-2.554 1.241 0 2.046.804 2.557 2.628.441 1.528.653 2.847.653 5.19m2.854 0c0-3.15-.297-5.12-1.171-7.165-1.02-2.555-2.48-3.574-4.893-3.574-2.41 0-3.877 1.02-4.975 3.507-.875 1.968-1.164 4.081-1.164 7.231 0 3.21.29 5.186 1.164 7.232 1.027 2.48 2.487 3.592 4.975 3.592 2.335 0 3.873-1.112 4.893-3.592.874-1.975 1.17-4.021 1.17-7.232m-14.689-7.454v-2.928h-10.597v20.832h2.998v-9.797h4.167v-2.847h-4.167v-5.26h7.6zm-14.104 17.904v-2.928h-7.599v-6.869h4.311v-2.847h-4.31v-5.26h6.797v-2.928h-9.796v20.832h10.597zm-16.95-5.916c0 1.824-1.095 2.988-2.777 2.988h-2.995v-6.502h2.995c1.53 0 2.776 1.535 2.776 3.514m-.363-9.508c0 1.898-.882 3.073-2.269 3.073h-3.14v-5.553h3.14c1.606 0 2.269.73 2.269 2.48m3.284 9.72c0-2.12-.949-3.87-2.554-5.186 1.68-1.754 2.19-2.636 2.19-4.534 0-3.21-1.978-5.408-4.755-5.408H92.22v20.832h6.138c3.073 0 5.553-2.561 5.553-5.705m-25.576 0c0-2.995-1.757-5.256-5.772-7.598-1.538-.875-1.972-1.461-1.972-2.48 0-1.39 1.097-2.41 2.487-2.41 1.31 0 2.336.945 2.406 2.41h2.85c-.073-3.147-2.335-5.405-5.256-5.405-2.995 0-5.337 2.41-5.337 5.404 0 1.824.875 3.433 2.554 4.597 4.237 2.85 3.073 2.053 3.507 2.487 1.241.95 1.682 1.824 1.682 2.995 0 1.683-1.316 3.144-2.92 3.144-2.047 0-2.922-1.828-2.922-3.578h-2.924c0 3.433 2.194 6.513 5.845 6.513 3.218 0 5.772-2.717 5.772-6.079m-14.104 5.705v-2.928h-7.6v-6.869h4.315v-2.847h-4.314v-5.26h6.801v-2.928h-9.8v20.832h10.598zM49.54 99.437c-.219-1.897-.508-2.772-1.316-3.799-.949-1.383-2.41-2.113-4.085-2.113-4.1 0-6.216 3.574-6.216 10.298 0 7.672 1.972 11.264 6.431 11.264 2.921 0 5.119-2.494 5.186-5.934h-2.988c0 1.538-.441 2.999-2.198 2.999-2.557 0-3.577-2.413-3.577-8.4 0-5.408.875-7.306 3.288-7.306 1.383 0 2.19.949 2.487 2.991h2.988zm-15.783-5.556h-2.921v20.832h2.92V93.88zM129.297 135.668c0 1.605-.152 3.065-.297 4.381-.289 1.612-1.241 2.999-2.991 2.999h-2.487v-14.98h2.487c1.309 0 2.19.654 2.702 2.121.363.875.586 3.136.586 5.479m2.92-.145c0-1.612-.222-3.44-.51-4.967-.364-2.124-1.24-3.736-2.488-4.604-.73-.585-1.605-.808-3.362-.808h-5.334v20.825h5.775c1.171 0 2.19-.29 2.921-.946 2.046-1.605 2.999-4.677 2.999-9.5m-19.728 1.824h-2.998l1.464-5.987 1.534 5.987zm5.183 8.622-5.183-20.825h-2.928l-5.19 20.825h3l1.39-5.697h4.451l1.461 5.697h2.999zm-18.708-10.446c0 2.41-.145 3.651-.653 5.334-.511 1.757-1.32 2.561-2.557 2.561-1.316 0-2.124-.804-2.632-2.56-.441-1.684-.656-3-.656-5.26 0-2.343.144-3.726.656-5.338.508-1.757 1.316-2.558 2.632-2.558 1.238 0 2.046.8 2.557 2.625.434 1.545.653 2.86.653 5.196m2.854 0c0-3.143-.29-5.119-1.171-7.158-1.02-2.564-2.48-3.584-4.893-3.584s-3.874 1.02-4.968 3.507c-.882 1.972-1.17 4.092-1.17 7.235 0 3.21.288 5.19 1.17 7.236 1.02 2.487 2.48 3.587 4.968 3.587 2.335 0 3.873-1.1 4.893-3.587.881-1.98 1.17-4.026 1.17-7.236m-18.199-4.822c0 1.679-.949 2.624-2.699 2.624h-3.072v-5.256h3.072c1.605 0 2.699 1.02 2.699 2.632m2.932 15.268-3-10.234c1.973-.723 3-2.547 3-5.034 0-3.362-2.202-5.557-5.486-5.557h-6.216v20.825h2.999v-9.786h2.85l2.776 9.786h3.077z" style="fill:#000;fill-opacity:1;fill-rule:evenodd;stroke:none"/>
</svg>
