<svg xmlns="http://www.w3.org/2000/svg" width="44.04" height="33.03" viewBox="0 0 124.291 93.218">
    <path d="M10.643 0h103.738l.014.007c5.348.236 9.663 4.562 9.882 9.917l.014.007v73.021c-.05 5.243-4.019 9.571-9.102 10.192l-.078.074H10.093l-.007-.007C4.664 93.073.254 88.727.01 83.333L0 83.32V10.848l.01-.007c-.003-.159-.01-.325-.01-.483C0 4.653 4.65 0 10.354 0h.289z" style="fill:#fcd116;fill-opacity:1;fill-rule:nonzero;stroke:none"/>
    <path d="M11.394 2.067h101.502c5.14 0 9.32 4.191 9.32 9.324v70.432c0 5.14-4.18 9.32-9.32 9.32H11.394c-5.14 0-9.324-4.18-9.324-9.32V11.391c0-5.133 4.184-9.324 9.324-9.324" style="fill:#000;fill-opacity:1;fill-rule:evenodd;stroke:none"/>
    <path d="M11.476 5.147H112.81c3.5 0 6.353 2.854 6.353 6.354v70.245c0 3.5-2.854 6.353-6.353 6.353H11.476c-3.5 0-6.35-2.854-6.35-6.353V11.5c0-3.5 2.85-6.354 6.35-6.354" style="fill:#fcd116;fill-opacity:1;fill-rule:evenodd;stroke:none"/>
    <path d="M114.92 20.637h-3.2l-3.407 7.49-3.489-7.49h-3.126l5.084 11.335v9.37h2.977v-9.37l5.162-11.335zm-17.942 5.525c0 1.669-.945 2.621-2.688 2.621H91.24v-5.239h3.051c1.598 0 2.688 1.02 2.688 2.618m2.907 15.18-2.984-10.17c1.965-.724 2.984-2.54 2.984-5.01 0-3.348-2.184-5.525-5.45-5.525H88.26v20.705h2.978v-9.73h2.832l2.763 9.73h3.051zm-15.11 0v-2.9h-7.56v-6.83h4.287v-2.829h-4.286v-5.239h6.759v-2.907h-9.737v20.705h10.538zm-16.273-14.89c0 1.89-.945 2.977-2.688 2.977h-3.052v-5.885h3.052c1.598 0 2.688 1.165 2.688 2.907m2.907 0c0-3.485-2.184-5.814-5.45-5.814h-6.174v20.705h2.977v-9.073h3.197c3.485 0 5.45-2.04 5.45-5.818m-17.364 0c0 1.891-.952 2.978-2.688 2.978h-3.051v-5.885h3.051c1.591 0 2.688 1.165 2.688 2.907m2.9 0c0-3.485-2.177-5.814-5.443-5.814H45.32v20.705h2.985v-9.073h3.196c3.485 0 5.443-2.04 5.443-5.818m-16.122-5.814h-2.907v20.705h2.907V20.637zm-5.74 20.705v-2.755h-7.56v-17.95H24.55v20.705h10.534zM21.06 35.68c0-2.978-1.742-5.232-5.74-7.553-1.52-.875-1.96-1.46-1.96-2.473 0-1.38 1.086-2.399 2.472-2.399 1.31 0 2.322.946 2.4 2.399h2.828c-.067-3.13-2.32-5.38-5.228-5.38-2.977 0-5.305 2.403-5.305 5.38 0 1.82.874 3.418 2.543 4.576 4.216 2.832 3.052 2.039 3.486 2.472 1.238.946 1.675 1.814 1.675 2.978 0 1.665-1.312 3.118-2.91 3.118-2.032 0-2.907-1.81-2.907-3.552h-2.9c0 3.408 2.177 6.477 5.807 6.477 3.2 0 5.74-2.702 5.74-6.043M105.096 59.037V56.97H97.19v2.067h2.84v13.455h2.233V59.037h2.833zm-9.317 13.455v-2.176h-5.67v-5.12h3.218v-2.123H90.11v-3.926h5.07V56.97h-7.303v15.522h7.902zM85.753 56.97h-2.184l-1.358 8.283-1.475-8.283h-1.742l-1.524 8.283-1.31-8.283h-2.176l2.456 15.522h1.954l1.475-8.117 1.467 8.117h1.909l2.508-15.522zM64.124 72.492V56.97h-2.237v9.313l-4.254-9.313h-2.23v15.522h2.23V62.09l4.798 10.403h1.693zm-11.335 0v-2.176H47.12v-5.12h3.218v-2.123H47.12v-3.926h5.07V56.97h-7.303v15.522h7.902zm-11.222 0V56.97h-2.233v6.318h-4.25V56.97H32.85v15.522h2.233v-7.02h4.251v7.02h2.233zM30.723 56.97h-2.18l-1.362 8.283-1.467-8.283h-1.747l-1.527 8.283-1.302-8.283h-2.184l2.452 15.522h1.965l1.468-8.117 1.474 8.117h1.902l2.508-15.522z" style="fill:#000;fill-opacity:1;fill-rule:evenodd;stroke:none"/>
</svg>
