<svg xmlns="http://www.w3.org/2000/svg" width="3678.575" height="3678.575" viewBox="-0.525 -0.67 3678.575 3678.575" xml:space="preserve">
    <path style="fill:#fcd116;fill-rule:nonzero;stroke:none" d="M1958.087 3628.48c-65.9 65.9-172.75 65.9-238.65 0L48.901 1957.942c-65.901-65.9-65.901-172.75 0-238.65L1719.437 48.756c65.9-65.901 172.75-65.901 238.65 0l1670.538 1670.536c65.9 65.9 65.9 172.75 0 238.65L1958.087 3628.48z"/>
    <path style="fill:#000;fill-rule:nonzero;stroke:none" d="M80.72 1926.126c-48.249-48.262-48.249-126.762 0-175.012L1751.26 80.576c48.25-48.25 126.75-48.25 175 0l1670.55 1670.538c48.25 48.25 48.25 126.75 0 175.012l-1670.55 1670.538c-48.25 48.25-126.75 48.25-175 0L80.72 1926.126z"/>
    <path style="fill:#fcd116;fill-rule:nonzero;stroke:none" d="M128.45 1878.4c-21.93-21.926-21.93-57.613 0-79.55L1798.995 128.305c21.938-21.932 57.625-21.932 79.55 0L3549.082 1798.85c21.937 21.938 21.937 57.625 0 79.55L1878.544 3548.936c-21.925 21.938-57.612 21.938-79.55 0L128.451 1878.4z"/>
    <path style="fill:#000;fill-rule:nonzero;stroke:none" d="m1719.413 1186.472-172.125-304.737v304.737h-71.05v-450h71.05l164.225 287.37v-287.37h71.05v450h-63.15zM2103.163 836.499c-14.25-23.685-31.65-33.158-58.562-34.737-34.825-1.578-56.988 15.788-72.813 55.263-11.075 26.842-17.4 67.896-17.4 105.789 0 47.37 9.488 96.316 26.9 124.737 14.25 23.685 33.238 34.739 61.725 34.739 33.25 0 53.825-17.371 69.65-56.843 9.5-23.685 17.413-67.895 17.413-102.633 0-50.525-9.5-96.314-26.913-126.315zm49.063 307.893c-25.325 34.74-61.725 50.53-109.213 50.53-63.312 0-102.875-25.266-129.787-80.527-18.988-37.898-31.65-97.895-31.65-151.581 0-74.21 18.987-140.524 49.062-183.158 26.913-34.737 63.313-50.526 115.55-50.526 56.975 0 96.55 25.262 125.038 80.527 18.987 39.473 30.075 96.315 30.075 153.157 0 71.053-17.413 142.105-49.075 181.578zM1998.526 2761.481l-172.125-304.75v304.75h-71.05V2311.47h71.05l164.225 287.375v-287.375h71.05v450.012h-63.15zM1575.35 2761.481V2311.47h72v450.012h-72zM1228.735 2761.481V2311.47h70.953v383.687h208.163v66.325h-279.117zM2169.688 2761.481V2311.47h264.913v71.062h-193.963v110.525h130.888v72.625h-130.888v123.163h208.163v72.637h-279.113zM1771.213 1973.969l-172.112-304.738v304.738h-71.063v-450h71.063l164.212 287.375v-287.375h71.063v450h-63.163zM2076.326 1587.131v386.838h-71.363V1587.13h-103.087v-63.162h279.112v63.162h-104.662zM2801.476 1602.919c-11.05-6.313-17.363-7.888-41.05-7.888h-85.275v110.525h85.275c22.112 0 30-1.587 41.05-7.9 17.375-9.475 28.437-28.425 28.437-47.362 0-18.95-11.062-37.9-28.437-47.375zm31.587 371.05-72.637-195.788h-85.275v195.788h-71.05v-450h148.425c34.75 0 58.437 3.162 80.537 14.212 39.475 18.95 67.9 66.313 67.9 112.113 0 47.362-28.425 94.737-69.475 113.687l78.95 209.988h-77.375zM1172.423 1973.969v-450h264.915v71.062h-193.955v110.525h130.893v72.625h-130.893v123.163h208.155v72.625h-279.115zM2248.488 1973.969v-450h264.925v71.062h-193.962v110.525h130.887v72.625h-130.887v123.163h208.15v72.625h-279.113zM937.627 1981.869c-66.32 0-108.956-25.263-137.378-80.525-20.528-39.475-33.16-96.313-33.16-153.163 0-71.05 18.95-142.1 50.53-181.575 26.842-33.162 64.742-50.525 115.27-50.525 67.902 0 110.534 28.425 140.535 91.575l-66.318 28.425c-25.267-37.9-39.477-47.375-74.218-47.375-36.315 0-60.001 15.788-75.792 55.263-11.054 26.85-17.372 66.325-17.372 104.212 0 48.95 11.054 97.9 28.424 126.325 15.79 23.675 36.319 34.738 67.899 34.738 30.002 0 52.109-15.8 69.48-52.113l67.897 25.263c-26.842 66.312-71.057 99.475-135.797 99.475z"/>
</svg>
