<svg xmlns="http://www.w3.org/2000/svg" width="1080" height="6480">
    <rect width="1080" height="6480" rx="135" fill="#fcd116"/>
    <path d="M945 68.4c36.765.042 66.558 29.835 66.6 66.6v6210c-.042 36.765-29.835 66.558-66.6 66.6H135c-36.765-.042-66.558-29.835-66.6-66.6V135c.042-36.765 29.835-66.558 66.6-66.6h810m0-34.2H135A100.8 100.8 0 0 0 34.2 135v6210A100.8 100.8 0 0 0 135 6445.8h810a100.8 100.8 0 0 0 100.8-100.8V135A100.8 100.8 0 0 0 945 34.2zM101.25 1057.5h225v45h-225zm0 540h180v45h-180zm877.5-495h-225v-45h225zm0 540h-180v-45h180zm-877.5 495h225v45h-225zm0 540h180v45h-180zm877.5-495h-225v-45h225zm0 540h-180v-45h180zm-877.5 495h225v45h-225zm0 540h180v45h-180zm877.5-495h-225v-45h225zm0 540h-180v-45h180zm-877.5 495h225v45h-225zm0 540h180v45h-180zm877.5-495h-225v-45h225zm0 540h-180v-45h180zm-877.5 495h225v45h-225zm0 540h180v45h-180zm877.5-495h-225v-45h225zm0 540h-180v-45h180zM356.187 1329.08l41.648-75.804c22.748 11.407 62.506 18.968 102.332 18.968 77.761 0 138.311-51.368 138.311-121.232 0-53.055-42.999-94.771-96.663-94.771-37.867 0-54.945 11.34-87.144 56.836l-85.254-24.638 13.365-278.51H693.49v85.254H466.078l-5.603 89.034c39.826-11.34 56.836-15.12 83.364-15.12 98.755 0 179.958 82.014 179.958 181.848 0 119.409-98.417 208.443-234.971 208.443-47.386 0-94.772-11.34-132.64-30.308zm335.075 1100.858h-85.659v-134.529H337.355v-51.099l268.248-354.38h85.659v327.785h51.368v77.694h-51.368zm-239.763-212.224h154.104v-202.773zm91.328 1040.243v-85.254h20.992c34.291 0 53.326-18.968 53.326-53.056 0-41.985-34.088-72.024-78.099-72.024-36.18 0-62.843 17.078-81.879 53.056l-79.988-30.308c28.485-68.244 89.506-109.824 159.977-109.824 91.396 0 165.715 73.576 165.715 164.837 0 32.198-7.628 54.946-30.51 89.034 39.96 35.978 51.436 64.328 51.436 117.519 0 109.893-75.669 187.518-186.641 187.518-87.617 0-158.088-56.903-180.97-144.047l83.836-24.639c13.365 53.057 49.479 81.475 100.914 81.475 57.106 0 97.134-40.096 97.134-94.705 0-22.275-9.181-79.584-71.213-79.584zm-84.309 1244.836h265.28v87.145H356.187c1.89-62.506 15.052-113.807 45.496-164.838 94.772-158.357 236.862-142.495 236.862-225.454 0-39.758-45.361-72.024-98.552-72.024-54.946 0-89.102 26.528-98.552 75.804l-85.254-18.968c18.968-89.033 89.034-143.979 183.738-143.979 102.399 0 183.738 72.024 183.738 161.058 0 64.598-37.058 105.707-85.186 135.609-72.699 45.226-139.525 65.206-179.958 165.647zm63.162 729.468h-48.736v-68.243h5.602c22.478 0 46.913-13.23 61.899-34.088h67.501v540.009H521.68zM204.872 361.037h62.849v42.878h-62.849v147.273h-45.188V237.925h159.843v43.974H204.872zm157.303-123.112h147.703v43.974H407.363v79.138h65.002v42.878h-65.002v103.338h114.654v43.935H362.175zm207.193 0h147.704v43.974H614.557v79.138h65.001v42.878h-65.001v103.338H729.21v43.935H569.368zm297.177 313.263h-45.188V279.706H764.03v-41.782h159.843v41.782h-57.327z"/>
</svg>
