<svg xmlns="http://www.w3.org/2000/svg" width="2942.864" height="2942.863" viewBox="-0.525 -0.67 2942.864 2942.863" xml:space="preserve">
    <path style="fill:#fcd116;fill-rule:nonzero;stroke:none" d="M1566.357 2902.65c-52.712 52.724-138.2 52.724-190.912 0L39.015 1566.223c-52.72-52.725-52.72-138.2 0-190.912l1336.43-1336.44c52.712-52.723 138.2-52.723 190.912 0l1336.438 1336.44c52.725 52.712 52.725 138.187 0 190.912L1566.357 2902.65z"/>
    <path style="fill:#000;fill-rule:nonzero;stroke:none" d="M62.88 1542.359c-39.477-39.475-39.477-103.713 0-143.188L1399.315 62.736c39.475-39.477 103.712-39.477 143.187 0l1336.438 1336.435c39.475 39.475 39.475 103.713 0 143.188L1542.503 2878.796c-39.475 39.475-103.712 39.475-143.187 0L62.88 1542.36z"/>
    <path style="fill:#fcd116;fill-rule:nonzero;stroke:none" d="M102.655 1502.578c-17.545-17.55-17.545-46.088 0-63.638l1336.43-1336.43c17.55-17.545 46.1-17.545 63.637 0L2839.16 1438.94c17.537 17.55 17.537 46.088 0 63.638L1502.722 2839.015c-17.538 17.538-46.087 17.538-63.638 0L102.654 1502.578z"/>
    <path style="fill:#000;fill-rule:nonzero;stroke:none" d="M1353.062 1639.706c-11.05-6.313-17.375-7.888-41.062-7.888h-85.263v110.525H1312c22.112 0 30.012-1.575 41.062-7.9 17.375-9.475 28.425-28.412 28.425-47.362 0-18.95-11.05-37.9-28.425-47.375zm31.575 371.062-72.637-195.8h-85.263v195.8h-71.056v-450h148.431c34.738 0 58.425 3.15 80.525 14.2 39.488 18.95 67.9 66.325 67.9 112.113 0 47.362-28.412 94.737-69.475 113.687l78.963 210h-77.388zM1538.512 2010.768v-450h264.925v71.05h-193.962v110.525h130.887v72.638h-130.887v123.15h208.15v72.637h-279.113zM897.614 1685.493l-46.054 126.325h90.52l-44.466-126.325zm114.34 325.275-44.465-126.325h-141.34l-44.464 126.325h-76.228l155.632-450h71.462l155.63 450h-76.226zM2045.787 1685.493l-46.05 126.325h90.513l-44.463-126.325zm114.338 325.275-44.463-126.325h-141.337l-44.463 126.325h-76.225l155.625-450h71.463l155.637 450h-76.237zM1525.775 895.234c-14.238-23.685-31.65-33.156-58.563-34.736-34.825-1.58-56.975 15.788-72.812 55.263-11.075 26.843-17.4 67.895-17.4 105.788 0 47.37 9.487 96.318 26.9 124.738 14.25 23.685 33.237 34.739 61.725 34.739 33.25 0 53.825-17.372 69.65-56.843 9.5-23.684 17.412-67.895 17.412-102.634 0-50.525-9.5-96.312-26.912-126.315zm49.075 307.895c-25.338 34.74-61.738 50.527-109.225 50.527-63.313 0-102.875-25.264-129.788-80.525-18.987-37.897-31.65-97.894-31.65-151.582 0-74.208 18.988-140.523 49.063-183.156 26.912-34.739 63.312-50.526 115.55-50.526 56.975 0 96.55 25.264 125.037 80.526 18.988 39.473 30.075 96.315 30.075 153.156 0 71.055-17.412 142.105-49.062 181.58zM1037.534 866.813v110.528h130.88v72.632h-130.88v195.79H966.57V795.761h279.113v71.052h-208.15zM1878.137 1253.656c-67.9 0-107.387-25.264-134.225-82.107-18.95-39.472-30-94.736-30-150 0-72.63 20.525-143.683 50.525-183.157 26.85-33.159 64.75-50.525 115.275-50.525 69.475 0 110.538 28.421 140.525 99.475l-67.887 26.839c-18.95-39.474-37.9-53.684-72.638-53.684-36.325 0-60 15.789-75.8 55.264-11.05 26.842-17.362 67.895-17.362 105.788 0 47.37 7.887 94.74 22.1 123.16 14.212 25.262 34.737 36.317 61.587 36.317 45.788 0 78.95-28.423 78.95-69.475v-18.948h-82.112v-71.054h153.162v90.002c0 82.106-60 142.105-142.1 142.105z"/>
</svg>
