<svg xmlns="http://www.w3.org/2000/svg" width="74.43" height="74.431" viewBox="0 0 210.058 210.062">
    <path d="m206.65 96.806-93.38-93.37A11.698 11.698 0 0 0 105.036 0c-3.066 0-6.057 1.263-8.24 3.436L3.41 96.806A11.676 11.676 0 0 0 0 105.046c.021 3.066 1.249 6.065 3.411 8.234l93.384 93.367c2.163 2.162 5.193 3.411 8.248 3.415a11.773 11.773 0 0 0 8.234-3.415l93.373-93.363c2.798-2.798 3.99-7.01 3.136-10.862-.5-2.219-1.728-3.866-3.136-5.616" style="fill:#fcd116;fill-opacity:1;fill-rule:nonzero;stroke:none"/>
    <path d="m204.343 110.973-93.37 93.366a8.444 8.444 0 0 1-5.93 2.456 8.436 8.436 0 0 1-5.927-2.456L5.708 110.97c-1.552-1.551-2.434-3.728-2.434-5.926.007-2.198.889-4.378 2.437-5.93L99.11 5.718a8.513 8.513 0 0 1 5.927-2.43c2.198 0 4.382.885 5.937 2.43l93.37 93.398a8.418 8.418 0 0 1 2.452 5.927 8.42 8.42 0 0 1-2.452 5.93" style="fill:#000;fill-opacity:1;fill-rule:evenodd;stroke:none"/>
    <path d="M201.126 107.749a3.878 3.878 0 0 0 1.122-2.706c0-.98-.413-2.021-1.122-2.72L107.742 8.946a3.897 3.897 0 0 0-2.699-1.11c-.988 0-2.021.412-2.723 1.11L8.932 102.323c-.705.71-1.097 1.718-1.097 2.717.007.998.392 1.993 1.104 2.705l93.38 93.391c.703.699 1.743 1.112 2.724 1.112.991 0 2.004-.413 2.706-1.112l93.377-93.387z" style="fill:#fcd116;fill-opacity:1;fill-rule:evenodd;stroke:none"/>
    <path d="M152.02 96.633c0 3.175-2.573 5.295-6.354 5.295h-12.56V91.182h12.56c3.781 0 6.353 2.117 6.353 5.45m7.722 0c0-4.843-2.575-9.08-6.66-11.352-2.42-1.365-4.392-1.816-7.719-1.816h-20.126v43.134h7.87v-16.951h12.256c3.327 0 5.299-.304 7.719-1.665 4.085-2.269 6.66-6.809 6.66-11.35m-51.47-13.168h-7.715v43.134h7.715V83.464zm-31.182 21.49c0 5.903-2.124 9.836-6.664 12.26a12.282 12.282 0 0 1-6.202 1.662h-6.057V91.182h6.057c2.269 0 4.54.607 6.505 1.666 4.237 2.42 6.361 6.353 6.361 12.107m7.715 0c0-8.474-3.63-14.983-10.294-18.764-3.175-1.82-6.657-2.727-10.287-2.727H50.3v43.134h13.924c3.479 0 7.112-.907 10.136-2.575 6.815-3.782 10.445-10.44 10.445-19.068" style="fill:#000;fill-opacity:1;fill-rule:evenodd;stroke:none"/>
</svg>
