<svg xmlns="http://www.w3.org/2000/svg" width="2942.863" height="2942.863" viewBox="-0.525 -0.67 2942.864 2942.863" xml:space="preserve">
    <path style="fill:#fcd116;fill-rule:nonzero;stroke:none" d="M1566.357 2902.65c-52.712 52.724-138.2 52.724-190.912 0L39.015 1566.223c-52.72-52.725-52.72-138.2 0-190.912l1336.43-1336.44c52.712-52.723 138.2-52.723 190.912 0l1336.438 1336.44c52.725 52.712 52.725 138.187 0 190.912L1566.357 2902.65z"/>
    <path style="fill:#000;fill-rule:nonzero;stroke:none" d="M62.88 1542.359c-39.477-39.475-39.477-103.713 0-143.188L1399.315 62.736c39.475-39.477 103.712-39.477 143.187 0l1336.438 1336.435c39.475 39.475 39.475 103.713 0 143.188L1542.503 2878.796c-39.475 39.475-103.712 39.475-143.187 0L62.88 1542.36z"/>
    <path style="fill:#fcd116;fill-rule:nonzero;stroke:none" d="M102.655 1502.578c-17.545-17.55-17.545-46.088 0-63.638l1336.43-1336.43c17.55-17.545 46.1-17.545 63.637 0L2839.16 1438.94c17.537 17.55 17.537 46.088 0 63.638L1502.721 2839.015c-17.538 17.538-46.087 17.538-63.638 0L102.654 1502.578z"/>
    <path style="fill:#000;fill-rule:nonzero;stroke:none" d="M1390.437 1155.763 1279.5 914.5v241.264h-51.68v-360h51.68l98.325 215.999V795.763h51.687v360h-39.075zM1652.925 885.447c-8.913-31.58-22.9-45.474-44.538-45.474-22.9 0-36.9 13.894-45.8 44.21-8.912 27.789-11.45 51.789-11.45 92.21 0 39.159 3.813 61.895 11.45 90.948 8.9 30.316 22.9 44.211 45.8 44.211 21.638 0 35.625-13.895 44.538-44.211 8.912-29.053 11.45-50.526 11.45-92.209 0-40.421-3.813-63.16-11.45-89.685zm40.712 214.736c-17.812 42.948-44.525 61.895-85.25 61.895-43.262 0-68.7-18.947-86.512-61.895-15.275-35.367-20.363-69.472-20.363-125.051 0-54.316 5.088-90.949 20.363-125.054 19.075-42.947 44.525-60.632 86.512-60.632 41.988 0 67.438 17.685 85.25 61.893 15.275 35.37 20.363 69.477 20.363 123.793 0 55.579-5.088 90.946-20.363 125.051zM1897.475 1512.918c-8.813-25.262-23.95-36.625-46.638-36.625h-42.85v258.95h42.85c30.263 0 46.638-24 51.688-51.8 2.525-22.737 5.037-48 5.037-75.787 0-40.413-3.775-79.575-10.087-94.738zm8.825 256.425c-12.6 11.363-30.25 16.425-50.413 16.425H1756.3v-360h92.025c30.25 0 45.375 3.788 57.975 13.888 21.437 15.162 36.562 42.95 42.862 79.575 5.05 26.537 8.825 58.112 8.825 85.9 0 83.375-16.387 136.425-51.687 164.212zM2029.987 1785.768v-360h169.75v50.525h-117.812v90.95h74.75v49.263h-74.75v118.737h131.75v50.525h-183.688zM833.147 1785.768v-162.95h-98.323v162.95H683.14v-360h51.684v146.525h98.323v-146.525h51.682v360h-51.682zM1522.212 1785.768v-360h51.938v312h131.75v48h-183.688zM1108.244 1515.443c-8.907-31.575-22.904-45.475-44.534-45.475-22.904 0-36.9 13.9-45.806 44.213-8.908 27.787-11.452 51.787-11.452 92.212 0 39.163 3.818 61.9 11.452 90.95 8.906 30.313 22.902 44.213 45.806 44.213 21.63 0 35.627-13.9 44.534-44.213 8.907-29.05 11.45-50.525 11.45-92.212 0-40.413-3.817-63.163-11.45-89.688zm40.716 214.738c-17.814 42.95-44.534 61.9-85.25 61.9-43.263 0-68.709-18.95-86.523-61.9-15.27-35.363-20.358-69.475-20.358-125.05 0-54.313 5.088-90.95 20.358-125.05 19.085-42.95 44.534-60.638 86.523-60.638s67.436 17.688 85.25 61.9c15.27 35.363 20.359 69.475 20.359 123.788 0 55.575-5.09 90.95-20.36 125.05zM2379.5 1476.293h-52.938v90.95h52.938c30.262 0 46.65-16.425 46.65-45.475 0-27.8-18.913-45.475-46.65-45.475zm44.125 309.475-47.9-169.262h-49.163v169.262h-51.687v-360h107.15c56.725 0 94.55 37.888 94.55 96 0 42.938-17.65 74.525-51.688 87.15l51.688 176.85h-52.95zM522.759 1619.506c-15.575-10.088-30.7-20.213-40.353-27-29.024-20.438-44.399-48-44.399-79.588 0-51.787 40.593-93.475 92.602-93.475 50.738 0 90.062 39.163 91.33 93.475h-49.47c-1.268-25.262-19.028-41.675-41.86-41.675-24.102 0-43.13 17.675-43.13 41.675 0 17.688 7.612 27.788 34.25 42.95 69.767 40.425 100.21 79.575 100.21 131.375 0 58.1-44.397 104.838-100.21 104.838-63.425 0-101.48-53.05-101.48-112.425h50.74c0 30.312 15.222 61.9 50.74 61.9 27.907 0 50.74-25.263 50.74-54.313 0-22.562-9.322-41.562-49.71-67.737zM1429.15 1741.556c-17.65 29.05-51.688 50.525-85.725 50.525-35.3 0-70.588-20.213-88.238-50.525-10.09-18.95-13.87-34.113-13.87-63.163v-252.625H1293v258.95c0 34.1 20.175 56.838 50.425 56.838 27.737 0 47.9-22.738 47.9-56.838v-258.95h51.687v252.625c0 29.05-3.787 44.213-13.862 63.163z"/>
</svg>
