<svg xmlns="http://www.w3.org/2000/svg" width="2942.863" height="2942.863" viewBox="-0.525 -0.67 2942.864 2942.863" xml:space="preserve">
    <path style="fill:#fcd116;fill-rule:nonzero;stroke:none" d="M1566.357 2902.65c-52.712 52.724-138.2 52.724-190.912 0L39.015 1566.223c-52.72-52.725-52.72-138.2 0-190.912l1336.43-1336.44c52.712-52.723 138.2-52.723 190.912 0l1336.438 1336.44c52.725 52.712 52.725 138.187 0 190.912L1566.357 2902.65z"/>
    <path style="fill:#000;fill-rule:nonzero;stroke:none" d="M62.88 1542.359c-39.477-39.475-39.477-103.713 0-143.188L1399.315 62.736c39.475-39.477 103.712-39.477 143.187 0l1336.438 1336.435c39.475 39.475 39.475 103.713 0 143.188L1542.503 2878.796c-39.475 39.475-103.712 39.475-143.187 0L62.88 1542.36z"/>
    <path style="fill:#fcd116;fill-rule:nonzero;stroke:none" d="M102.655 1502.578c-17.545-17.55-17.545-46.088 0-63.638l1336.43-1336.43c17.55-17.545 46.1-17.545 63.637 0L2839.16 1438.94c17.537 17.55 17.537 46.088 0 63.638L1502.721 2839.015c-17.538 17.538-46.087 17.538-63.638 0L102.654 1502.578z"/>
    <path style="fill:#000;fill-rule:nonzero;stroke:none" d="M1668.787 1917.918c-8.812-25.263-23.95-36.625-46.637-36.625h-42.863v258.95h42.863c30.25 0 46.637-24 51.687-51.8 2.513-22.738 5.038-48 5.038-75.788 0-40.412-3.775-79.575-10.088-94.737zm8.825 256.425c-12.6 11.362-30.25 16.425-50.425 16.425h-99.575v-360h92.013c30.262 0 45.387 3.787 57.987 13.887 21.438 15.163 36.563 42.95 42.863 79.575 5.037 26.538 8.825 58.113 8.825 85.9 0 83.375-16.388 136.425-51.688 164.213zM1001.825 2190.768v-360h169.754v50.525h-117.815v90.95h74.743v49.262h-74.743v118.738h131.75v50.525h-183.69zM1409.325 2190.768 1298.4 1949.505v241.263h-51.685v-360h51.685l98.325 216v-216h51.675v360h-39.075zM1885.8 2024.505c-15.563-10.087-30.688-20.212-40.35-27-29.025-20.437-44.4-48-44.4-79.587 0-51.788 40.6-93.475 92.612-93.475 50.738 0 90.063 39.162 91.325 93.475h-49.475c-1.262-25.263-19.025-41.675-41.85-41.675-24.112 0-43.137 17.675-43.137 41.675 0 17.687 7.612 27.787 34.25 42.95 69.775 40.425 100.212 79.575 100.212 131.375 0 58.1-44.4 104.838-100.212 104.838-63.425 0-101.475-53.05-101.475-112.426h50.737c0 30.313 15.225 61.9 50.738 61.9 27.912 0 50.737-25.262 50.737-54.312 0-22.563-9.312-41.563-49.712-67.738zM1914.35 1287.918c-8.825-25.263-23.95-36.625-46.638-36.625h-42.862v258.937h42.862c30.25 0 46.638-24 51.688-51.787 2.512-22.738 5.037-48 5.037-75.788 0-40.425-3.787-79.575-10.087-94.737zm8.825 256.425c-12.6 11.362-30.25 16.425-50.425 16.425h-99.575v-360.005h92.012c30.263 0 45.388 3.787 57.988 13.894 21.425 15.157 36.562 42.948 42.862 79.573 5.038 26.525 8.825 58.113 8.825 85.9 0 83.363-16.387 136.425-51.687 164.213zM2046.862 1560.768v-360.005h169.75v50.53H2098.8v90.937h74.737v49.275H2098.8v118.725h131.75v50.538h-183.688zM850.017 1560.768v-162.95h-98.322v162.95H700.01v-360.005h51.685v146.53h98.322v-146.53H901.7v360.005h-51.683zM1539.087 1560.768v-360.005h51.938v312.005h131.75v48h-183.688zM1125.115 1290.443c-8.906-31.575-22.903-45.471-44.534-45.471-22.902 0-36.899 13.896-45.805 44.208-8.909 27.788-11.452 51.788-11.452 92.213 0 39.162 3.817 61.9 11.452 90.95 8.906 30.312 22.903 44.212 45.805 44.212 21.631 0 35.628-13.9 44.534-44.212 8.906-29.05 11.45-50.525 11.45-92.213 0-40.425-3.815-63.162-11.45-89.687zm40.715 214.737c-17.813 42.95-44.533 61.9-85.249 61.9-43.261 0-68.709-18.95-86.522-61.9-15.27-35.362-20.36-69.475-20.36-125.05 0-54.312 5.09-90.95 20.36-125.05 19.086-42.95 44.532-60.635 86.522-60.635 41.99 0 67.436 17.684 85.249 61.898 15.271 35.362 20.36 69.475 20.36 123.787 0 55.575-5.089 90.95-20.36 125.05zM2396.375 1251.293h-52.938v90.937h52.938c30.262 0 46.65-16.412 46.65-45.462 0-27.8-18.913-45.475-46.65-45.475zm44.125 309.475-47.9-169.275h-49.163v169.275h-51.687v-360.005h107.15c56.725 0 94.537 37.894 94.537 96.005 0 42.937-17.65 74.525-51.675 87.15l51.675 176.85H2440.5zM539.63 1394.505c-15.574-10.087-30.699-20.212-40.353-27.012-29.022-20.425-44.398-48-44.398-79.575 0-51.789 40.592-93.473 92.602-93.473 50.738 0 90.061 39.16 91.33 93.473h-49.47c-1.27-25.263-19.029-41.683-41.86-41.683-24.101 0-43.13 17.683-43.13 41.683 0 17.687 7.613 27.787 34.25 42.95 69.766 40.425 100.21 79.575 100.21 131.362 0 58.113-44.396 104.85-100.21 104.85-63.425 0-101.479-53.05-101.479-112.425h50.74c0 30.313 15.22 61.9 50.74 61.9 27.904 0 50.74-25.262 50.74-54.325 0-22.55-9.325-41.55-49.712-67.725zM1446.012 1516.555c-17.65 29.05-51.675 50.525-85.712 50.525-35.3 0-70.6-20.212-88.25-50.525-10.088-18.95-13.863-34.112-13.863-63.162v-252.63h51.688v258.942c0 34.113 20.162 56.85 50.425 56.85 27.725 0 47.9-22.737 47.9-56.85v-258.942h51.675v252.63c0 29.05-3.775 44.212-13.863 63.162z"/>
</svg>
