<svg xmlns="http://www.w3.org/2000/svg" width="2942.863" height="2942.863" viewBox="0 -0.321 2942.863 2942.864" xml:space="preserve">
    <path style="fill:#dd7500;fill-opacity:1;fill-rule:nonzero;stroke:none" d="M1566.882 2903c-52.712 52.724-138.2 52.724-190.912 0L39.54 1566.573c-52.72-52.725-52.72-138.2 0-190.913L1375.97 39.221c52.712-52.723 138.2-52.723 190.912 0L2903.32 1375.66c52.725 52.713 52.725 138.188 0 190.913L1566.882 2902.999z"/>
    <path style="fill:#000;fill-rule:nonzero;stroke:none" d="M63.405 1542.708c-39.477-39.475-39.477-103.712 0-143.187L1399.84 63.085c39.476-39.477 103.713-39.477 143.188 0l1336.438 1336.436c39.475 39.475 39.475 103.712 0 143.187L1543.028 2879.146c-39.475 39.475-103.713 39.475-143.188 0L63.405 1542.708z"/>
    <path style="fill:#dd7500;fill-opacity:1;fill-rule:nonzero;stroke:none" d="M103.18 1502.927c-17.546-17.55-17.546-46.087 0-63.637L1439.61 102.86c17.55-17.546 46.1-17.546 63.637 0l1336.438 1336.43c17.537 17.55 17.537 46.087 0 63.637L1503.247 2839.365c-17.538 17.538-46.088 17.538-63.638 0L103.18 1502.927z"/>
    <path style="fill:#000;fill-rule:nonzero;stroke:none" d="M1669.312 1918.267c-8.812-25.262-23.95-36.625-46.637-36.625h-42.863v258.95h42.863c30.25 0 46.637-24 51.687-51.8 2.513-22.737 5.038-48 5.038-75.787 0-40.413-3.775-79.575-10.088-94.738zm8.825 256.426c-12.6 11.362-30.25 16.425-50.425 16.425h-99.575v-360h92.013c30.262 0 45.387 3.787 57.987 13.887 21.438 15.162 36.563 42.95 42.863 79.575 5.037 26.538 8.825 58.113 8.825 85.9 0 83.375-16.388 136.425-51.688 164.213zM1002.35 2191.118v-360h169.753v50.525h-117.815v90.95h74.744v49.262h-74.744v118.738h131.752v50.525h-183.69zM1409.85 2191.118l-110.925-241.263v241.263h-51.685v-360h51.685l98.325 216v-216h51.675v360h-39.075zM1886.325 2024.855c-15.563-10.088-30.688-20.212-40.35-27-29.025-20.438-44.4-48-44.4-79.588 0-51.787 40.6-93.475 92.612-93.475 50.738 0 90.063 39.163 91.325 93.476h-49.475c-1.262-25.263-19.025-41.676-41.85-41.676-24.112 0-43.137 17.675-43.137 41.675 0 17.688 7.612 27.788 34.25 42.95 69.775 40.425 100.212 79.575 100.212 131.375 0 58.1-44.4 104.838-100.212 104.838-63.425 0-101.475-53.05-101.475-112.425h50.737c0 30.312 15.225 61.9 50.738 61.9 27.912 0 50.737-25.263 50.737-54.313 0-22.562-9.312-41.562-49.712-67.737zM1914.875 1288.267c-8.825-25.262-23.95-36.625-46.638-36.625h-42.862v258.938h42.862c30.25 0 46.638-24 51.688-51.788 2.512-22.737 5.037-48 5.037-75.787 0-40.425-3.787-79.575-10.087-94.738zm8.825 256.425c-12.6 11.363-30.25 16.425-50.425 16.425H1773.7v-360.005h92.012c30.263 0 45.388 3.788 57.988 13.894 21.425 15.158 36.562 42.949 42.862 79.574 5.038 26.525 8.825 58.112 8.825 85.9 0 83.362-16.387 136.425-51.687 164.212zM2047.387 1561.117v-360.005h169.75v50.53h-117.812v90.938h74.737v49.275h-74.737v118.725h131.75v50.537h-183.688zM850.542 1561.117v-162.95h-98.323v162.95h-51.685v-360.005h51.685v146.53h98.323v-146.53h51.683v360.005h-51.683zM1539.612 1561.117v-360.005h51.938v312.005h131.75v48h-183.688zM1125.64 1290.792c-8.907-31.575-22.903-45.47-44.534-45.47-22.903 0-36.899 13.895-45.805 44.208-8.909 27.787-11.453 51.787-11.453 92.212 0 39.163 3.818 61.9 11.453 90.95 8.906 30.313 22.902 44.213 45.805 44.213 21.631 0 35.627-13.9 44.534-44.213 8.906-29.05 11.45-50.525 11.45-92.212 0-40.425-3.815-63.163-11.45-89.688zm40.715 214.738c-17.813 42.95-44.533 61.9-85.25 61.9-43.26 0-68.708-18.95-86.522-61.9-15.268-35.363-20.36-69.475-20.36-125.05 0-54.313 5.092-90.95 20.36-125.05 19.086-42.951 44.533-60.635 86.523-60.635 41.99 0 67.436 17.684 85.249 61.897 15.27 35.363 20.36 69.475 20.36 123.788 0 55.575-5.09 90.95-20.36 125.05zM2396.9 1251.642h-52.938v90.938h52.938c30.263 0 46.65-16.413 46.65-45.463 0-27.8-18.913-45.475-46.65-45.475zm44.125 309.475-47.9-169.275h-49.163v169.275h-51.687v-360.005h107.15c56.725 0 94.538 37.894 94.538 96.005 0 42.938-17.65 74.525-51.676 87.15l51.676 176.85h-52.938zM540.154 1394.855c-15.573-10.088-30.698-20.213-40.352-27.013-29.023-20.425-44.399-48-44.399-79.575 0-51.788 40.593-93.472 92.603-93.472 50.737 0 90.06 39.159 91.33 93.472h-49.47c-1.27-25.262-19.03-41.682-41.86-41.682-24.102 0-43.13 17.682-43.13 41.682 0 17.688 7.612 27.788 34.25 42.95 69.766 40.425 100.21 79.575 100.21 131.363 0 58.112-44.397 104.85-100.21 104.85-63.425 0-101.48-53.05-101.48-112.425h50.74c0 30.312 15.22 61.9 50.74 61.9 27.905 0 50.74-25.263 50.74-54.325 0-22.55-9.324-41.55-49.712-67.725zM1446.537 1516.905c-17.65 29.05-51.675 50.525-85.712 50.525-35.3 0-70.6-20.213-88.25-50.525-10.088-18.95-13.863-34.113-13.863-63.163v-252.63h51.688v258.943c0 34.112 20.162 56.85 50.425 56.85 27.725 0 47.9-22.738 47.9-56.85v-258.943h51.675v252.63c0 29.05-3.775 44.213-13.863 63.163z"/>
</svg>
