<svg xmlns="http://www.w3.org/2000/svg" width="4414.298" height="4414.298" viewBox="-0.525 -0.67 4414.298 4414.298" xml:space="preserve">
    <path style="fill:#fcd116;fill-rule:nonzero;stroke:none" d="M2349.817 4354.322c-79.088 79.075-207.3 79.075-286.375 0L58.785 2349.672c-79.08-79.087-79.08-207.3 0-286.375L2063.442 58.641c79.075-79.081 207.287-79.081 286.375 0l2004.65 2004.656c79.075 79.075 79.075 207.288 0 286.375l-2004.65 2004.65z"/>
    <path style="fill:#000;fill-rule:nonzero;stroke:none" d="M98.56 2309.893c-57.022-57.025-57.022-149.812 0-206.825L2103.214 98.415c57.012-57.022 149.8-57.022 206.825 0l2004.65 2004.653c57.025 57.013 57.025 149.8 0 206.825l-2004.65 2004.65c-57.025 57.025-149.813 57.025-206.825 0L98.56 2309.893z"/>
    <path style="fill:#fcd116;fill-rule:nonzero;stroke:none" d="M154.245 2254.206c-26.318-26.313-26.318-69.138 0-95.463L2158.89 154.1c26.325-26.32 69.15-26.32 95.462 0l2004.65 2004.643c26.313 26.325 26.313 69.15 0 95.463l-2004.65 2004.65c-26.312 26.312-69.137 26.312-95.462 0L154.245 2254.206z"/>
    <path style="fill:#000;fill-rule:nonzero;stroke:none" d="m1634.812 2975.03-37.987 155.362h77.887l-39.9-155.362zm96.888 378.95-37.988-147.8h-115.875l-36.1 147.8h-77.887l134.875-540h75.987l134.875 540H1731.7zM2774.625 2975.03l-38 155.362h77.9l-39.9-155.362zm96.875 378.95-37.988-147.8h-115.875l-36.1 147.8h-77.875l134.875-540h75.988l134.862 540H2871.5zM2279.525 3353.98v-540h254.625v75.787h-176.713v136.413h112.113v73.9h-112.113v178.112h197.625v75.788h-275.537zM2042.125 2889.767h-79.413v136.425h79.413c45.387 0 69.962-24.637 69.962-68.212 0-41.688-28.362-68.213-69.962-68.213zm66.187 464.213-71.862-253.9h-73.738v253.9h-77.525v-540h160.725c85.088 0 141.813 56.837 141.813 144 0 64.412-26.475 111.787-77.525 130.737l77.525 265.263h-79.413zM2626.362 2134.717c-13.237-37.9-35.925-54.95-69.962-54.95h-64.288v388.425h64.288c45.387 0 69.962-36 77.525-77.687 3.787-34.113 7.562-72 7.562-113.688 0-60.637-5.675-119.375-15.125-142.1zm13.238 384.625c-18.9 17.05-45.375 24.638-75.638 24.638h-149.375v-540h138.038c45.375 0 68.075 5.675 86.975 20.837 32.15 22.738 54.837 64.425 64.287 119.363 7.563 39.8 13.238 87.162 13.238 128.85 0 125.05-24.575 204.625-77.525 246.312zM1798.85 2543.98v-540h75.6v540h-75.6zM2237.175 2543.98l-166.4-361.9v361.9h-77.525v-540h77.525l147.487 324v-324h77.525v540h-58.612zM2951.887 2294.592c-23.362-15.125-46.05-30.325-60.525-40.512-43.537-30.638-66.6-72-66.6-119.363 0-77.687 60.888-140.212 138.9-140.212 76.113 0 135.1 58.737 137 140.212h-74.212c-1.9-37.9-28.538-62.525-62.788-62.525-36.15 0-64.687 26.525-64.687 62.525 0 26.525 11.412 41.675 51.375 64.413 104.65 60.637 150.312 119.375 150.312 197.062 0 87.15-66.6 157.263-150.312 157.263-95.138 0-152.225-79.588-152.225-168.638h76.112c0 45.475 22.825 92.85 76.113 92.85 41.85 0 76.1-37.9 76.1-81.475 0-33.837-13.975-62.337-74.563-101.6zM1635.8 2543.98h-66.55l-51.338-282.313-51.325 282.313h-68.45l-85.55-540h76.05l45.625 288 53.238-288h60.837l51.338 288 47.525-288h76.05l-87.45 540zM1589.1 1667.655c-20.938 47.375-64.7 75.8-119.875 75.8-64.7 0-112.263-32.213-138.9-92.85-17.125-39.788-28.538-115.575-28.538-185.688 0-75.787 5.7-130.737 24.725-181.887 19.038-56.846 74.213-98.529 137-98.529 78.013 0 137 56.841 140.8 136.416H1526.3c-1.9-36-26.638-60.625-64.688-60.625-26.637 0-47.575 13.263-60.887 39.788-15.225 26.525-24.738 87.162-24.738 151.575 0 45.475 3.813 92.85 11.413 134.525 11.425 53.062 38.062 81.475 79.925 81.475 39.95 0 58.975-26.525 58.975-83.363v-36h-60.888v-75.787h138.9v111.787c0 37.888-3.8 60.638-15.212 83.363zM2260.412 1484.592c-23.362-15.137-46.05-30.325-60.525-40.512-43.537-30.638-66.6-72-66.6-119.363 0-77.69 60.888-140.216 138.9-140.216 76.113 0 135.1 58.737 137 140.216h-74.212c-1.9-37.9-28.538-62.537-62.788-62.537-36.15 0-64.687 26.537-64.687 62.537 0 26.525 11.412 41.675 51.375 64.413 104.65 60.637 150.312 119.375 150.312 197.062 0 87.15-66.6 157.263-150.312 157.263-95.138 0-152.225-79.588-152.225-168.638h76.112c0 45.475 22.838 92.85 76.113 92.85 41.862 0 76.1-37.9 76.1-81.475 0-33.837-13.975-62.35-74.563-101.6zM2634.512 1265.98v468H2556.6v-468h-98.813v-72.005h275.538v72.005h-98.813zM1994.05 1667.655c-26.475 43.587-77.525 75.8-128.575 75.8-52.95 0-105.888-30.325-132.363-75.8-15.125-28.413-20.8-51.15-20.8-94.738v-378.942h77.525v388.417c0 51.163 30.263 85.263 75.638 85.263 41.6 0 71.85-34.1 71.85-85.263v-388.417h77.525v378.942c0 43.588-5.675 66.325-20.8 94.738zM2976.587 1489.555v244.425H2898.7v-244.425l-132.975-295.58h81.687l91.188 195.155 89.275-195.155h83.587l-134.875 295.58z"/>
</svg>
