<svg xmlns="http://www.w3.org/2000/svg" width="74.43" height="74.431" viewBox="0 0 210.058 210.062">
    <path d="m206.65 96.806-93.38-93.37A11.698 11.698 0 0 0 105.036 0c-3.066 0-6.057 1.263-8.24 3.436L3.41 96.806A11.676 11.676 0 0 0 0 105.046c.021 3.066 1.249 6.065 3.411 8.234l93.384 93.367c2.163 2.162 5.193 3.411 8.248 3.415a11.773 11.773 0 0 0 8.234-3.415l93.373-93.363c2.798-2.798 3.99-7.01 3.136-10.862-.5-2.219-1.728-3.866-3.136-5.616" style="fill:#fcd116;fill-opacity:1;fill-rule:nonzero;stroke:none"/>
    <path d="m204.343 110.973-93.37 93.366a8.444 8.444 0 0 1-5.93 2.456 8.436 8.436 0 0 1-5.927-2.456L5.708 110.97c-1.552-1.551-2.434-3.728-2.434-5.926.007-2.198.889-4.378 2.437-5.93L99.11 5.718a8.513 8.513 0 0 1 5.927-2.43c2.198 0 4.382.885 5.937 2.43l93.37 93.398a8.418 8.418 0 0 1 2.452 5.927 8.42 8.42 0 0 1-2.452 5.93" style="fill:#000;fill-opacity:1;fill-rule:evenodd;stroke:none"/>
    <path d="M201.126 107.749a3.878 3.878 0 0 0 1.122-2.706c0-.98-.413-2.021-1.122-2.72L107.742 8.946a3.897 3.897 0 0 0-2.699-1.11c-.988 0-2.021.412-2.723 1.11L8.932 102.323c-.705.71-1.097 1.718-1.097 2.717.007.998.392 1.993 1.104 2.705l93.38 93.391c.703.699 1.743 1.112 2.724 1.112.991 0 2.004-.413 2.706-1.112l93.377-93.387z" style="fill:#fcd116;fill-opacity:1;fill-rule:evenodd;stroke:none"/>
    <path d="M177.336 88.918v-3.454h-13.17v3.454h4.724v22.426h3.719V88.918h4.727zm-16.99 22.426v-25.88h-3.725v15.533l-7.08-15.533h-3.73v25.88h3.73V94l7.993 17.343h2.812zm-19.166 0v-3.63h-9.444v-8.538h5.355v-3.541h-5.355V89.1h8.445v-3.637h-12.17v25.88h13.169zm-19.079 0v-25.88h-3.721l-4.82 14.534-4.808-14.534h-3.722v25.88h3.722V96.816l4.809 14.528 4.819-14.528v14.528h3.721zm-21.71 0v-3.63h-9.443v-8.538h5.351v-3.541h-5.351V89.1h8.445v-3.637H87.22v25.88h13.172zm-16.99-25.88H79.68l-4.272 16.8-4.262-16.8h-3.729l6.537 25.88h2.819l6.629-25.88zM59.149 100.63h-3.722l1.814-7.444 1.908 7.444zm6.449 10.714-6.449-25.88h-3.637l-6.445 25.88h3.722l1.725-7.08h5.542l1.82 7.08h3.722zM43.612 92.73c0 2.36-1.178 3.725-3.362 3.725h-3.81v-7.355h3.81c1.997 0 3.362 1.45 3.362 3.63m3.63 0c0-4.357-2.724-7.267-6.809-7.267h-7.722v25.88h3.729V99.998h3.993c4.36 0 6.809-2.547 6.809-7.267M140.35 145.263c0-3.722-2.184-6.537-7.172-9.444-1.912-1.09-2.456-1.816-2.456-3.086 0-1.725 1.362-2.995 3.087-2.995 1.633 0 2.903 1.174 2.995 2.995h3.546c-.092-3.91-2.907-6.72-6.541-6.72-3.718 0-6.625 2.994-6.625 6.72 0 2.268 1.083 4.268 3.175 5.722 5.27 3.542 3.817 2.543 4.353 3.086 1.549 1.179 2.092 2.269 2.092 3.722 0 2.089-1.637 3.906-3.626 3.906-2.544 0-3.634-2.272-3.634-4.453h-3.637c0 4.27 2.73 8.1 7.27 8.1 3.99 0 7.173-3.376 7.173-7.553m-21.594-5.722c0 2-.18 3.817-.367 5.45-.356 1.997-1.542 3.722-3.718 3.722h-3.087v-18.612h3.087c1.637 0 2.72.811 3.362 2.632.451 1.086.723 3.905.723 6.808m3.63-.18c0-2-.268-4.265-.635-6.173-.451-2.636-1.542-4.636-3.083-5.722-.907-.724-2-1.002-4.18-1.002h-6.626v25.883h7.172c1.45 0 2.727-.363 3.634-1.182 2.54-1.996 3.718-5.81 3.718-11.804m-19.773 12.986v-25.883H98.89v15.533l-7.084-15.533h-3.725v25.883h3.725v-17.346l7.994 17.346h2.812zm-18.599 0v-3.634h-9.443v-8.537h5.362v-3.538H74.57V130.1h8.445v-3.637H70.85v25.883h13.165z" style="fill:#000;fill-opacity:1;fill-rule:evenodd;stroke:none"/>
</svg>
