<svg xmlns="http://www.w3.org/2000/svg" width="2160" height="1620" id="svg2" version="1.1">
    <defs id="defs4">
        <clipPath id="Clip0">
            <path d="M0 0v864.5h1728.5V0H0z" transform="translate(0 .5)" id="path7"/>
        </clipPath>
        <clipPath id="Clip0-1">
            <path d="M0 0v1728.5h1296.5V0H0z" transform="translate(0 .5)" id="path7-7"/>
        </clipPath>
        <style type="text/css" id="style561">
            .str2{stroke:#000}.fil9{fill:#838281}.fil6{fill:#dededd}.fil8{fill:#000}.fil7{fill:#1f1a17;fill-rule:nonzero}.str0{stroke:#000;stroke-width:.2646}.str1{stroke:#d4ae05;stroke-width:.3969}.fil4{fill:none}.fil0{fill:#005121}.fil2{fill:#00722e}.fil1{fill:#00923f}.fil5{fill:#0a73b9}.fil3{fill:#fff}
        </style>
    </defs>
    <g id="layer1" transform="translate(1576.307 958.472)">
        <path style="fill:#fcd116;fill-rule:nonzero;stroke:none" d="M583.693 526.528c0 74.563-60.438 135-135 135h-1890c-74.56 0-135-60.438-135-135v-1350c0-74.56 60.44-135 135-135h1890c74.562 0 135 60.44 135 135v1350z" id="path11"/>
        <path style="fill:#000;fill-rule:nonzero;stroke:none" d="M-1441.307 627.778c-55.83 0-101.25-45.425-101.25-101.25v-1350c0-55.83 45.42-101.25 101.25-101.25h1890c55.825 0 101.25 45.42 101.25 101.25v1350c0 55.825-45.425 101.25-101.25 101.25h-1890z" id="path13"/>
        <path style="fill:#fcd116;fill-rule:nonzero;stroke:none" d="M-1441.307 571.528c-24.813 0-45-20.188-45-45v-1350c0-24.813 20.187-45 45-45h1890c24.812 0 45 20.187 45 45v1350c0 24.813-20.188 45-45 45h-1890z" id="path15"/>
        <path style="fill:#000;fill-rule:nonzero;stroke:none" d="M-47.882-283.47v-360.005H8.88v306.953h166.525v53.051H-47.882z" id="path17"/>
        <path style="fill:#000;fill-rule:nonzero;stroke:none" d="M-754.6-592.946v309.474h-57.086v-309.474h-82.467v-50.527h223.288v50.527H-754.6z" id="path19"/>
        <path style="fill:#000;fill-rule:nonzero;stroke:none" d="M-958.322-304.945c-20.211 17.684-48.004 27.79-78.321 27.79-61.898 0-107.375-36.63-131.378-90.948l54.32-20.21c15.16 34.105 42.949 53.052 77.058 53.052 32.845 0 55.582-22.737 55.582-53.052 0-48-55.582-55.578-102.324-74.526-21.474-8.843-69.476-30.315-69.476-89.685 0-70.737 48.002-97.263 112.429-97.263 50.527 0 84.636 29.052 102.321 73.264l-50.527 15.156s-12.634-30.315-53.06-31.578c-26.527-1.262-58.11 8.842-55.58 41.685 5.053 66.947 174.327 22.737 174.327 164.21 0 32.842-12.634 61.894-35.371 82.105z" id="path21"/>
        <path style="fill:#000;fill-rule:nonzero;stroke:none" d="M-616.865-283.47v-360.002h211.938v56.843h-155.17v88.42h104.709v58.107h-104.71v98.526h166.526v58.105h-223.293z" id="path23"/>
        <path style="fill:#000;fill-rule:nonzero;stroke:none" d="M-332.375-283.47v-360.002h211.93v56.843h-155.162v88.42h104.712v58.107h-104.712v98.526h166.525v58.105h-223.293z" id="path25"/>
        <path style="fill:#000;fill-rule:nonzero;stroke:none" d="m26.805 346.528-91.25-170.526-38.012 46.736v123.79h-57.025V-13.473h57.025v142.737L11.593-13.473h73.5L-26.42 126.738l119.125 219.79h-65.9z" id="path27"/>
        <path style="fill:#000;fill-rule:nonzero;stroke:none" d="M-927.408 58.527c-8.842-8.844-21.474-15.159-36.633-15.159h-64.427v245.055h56.847c18.95 0 30.318-3.79 40.423-13.895 21.477-21.474 32.843-60.634 32.843-108.635 0-47.997-11.366-88.419-29.053-107.366zm24.002 267.788c-13.896 12.638-32.844 18.95-51.792 20.213h-130.115V-13.473h116.217c36.635 0 50.531 3.788 69.481 18.947 37.898 32.843 59.372 89.684 59.372 160.419 0 72.002-22.74 128.847-63.163 160.422z" id="path29"/>
        <path style="fill:#000;fill-rule:nonzero;stroke:none" d="M-761.045 346.528V-13.473h211.937v56.842h-155.17v88.423h104.71v58.105h-104.71v98.526h166.525v58.105h-223.292z" id="path31"/>
        <path style="fill:#000;fill-rule:nonzero;stroke:none" d="M-347.322 352.84c-53.058 0-87.165-20.212-109.903-64.417-16.422-31.579-26.528-77.054-26.528-122.528 0-56.84 15.158-113.683 40.423-145.263 21.477-26.525 51.793-40.42 92.217-40.42 54.318 0 88.43 22.737 112.43 73.264l-53.062 22.736c-20.212-30.316-31.575-37.895-59.368-37.895-29.054 0-48.003 12.631-60.635 44.211-8.843 21.474-13.897 53.053-13.897 83.368 0 39.157 8.843 78.316 22.74 101.053 12.632 18.946 29.054 27.791 54.32 27.791 24.003 0 41.69-12.633 55.578-41.686l54.325 20.211c-21.475 53.05-56.85 79.575-108.64 79.575z" id="path33"/>
    </g>
</svg>
