<svg xmlns="http://www.w3.org/2000/svg" width="73.834" height="74.381" viewBox="0 -0.321 73.834 74.381" xml:space="preserve">
    <path d="M72.66 33.956 39.822.876C38.242-.723 35.6-.718 34.018.877L1.187 33.953c-1.58 1.59-1.585 4.25-.002 5.84L34.02 72.87c1.575 1.58 4.226 1.59 5.801 0l32.839-33.08c1.702-1.711 1.419-4.088 0-5.835" style="fill:#dd7500;fill-opacity:1;fill-rule:nonzero;stroke:none"/>
    <path d="M71.928 39.052 39.087 72.13c-1.179 1.186-3.15 1.184-4.334 0L1.922 39.05c-1.178-1.19-1.188-3.167-.004-4.359L34.755 1.61C35.93.43 37.914.427 39.086 1.609l32.84 33.084c1.174 1.187 1.18 3.175.001 4.36" style="fill:#000;fill-opacity:1;fill-rule:evenodd;stroke:none"/>
    <path d="M70.71 37.822a1.388 1.388 0 0 0 0-1.91L37.865 2.84c-.512-.51-1.376-.523-1.888 0L3.139 35.913a1.378 1.378 0 0 0 .002 1.911L35.98 70.901a1.34 1.34 0 0 0 1.886 0L70.71 37.822" style="fill:#dd7500;fill-opacity:1;fill-rule:evenodd;stroke:none"/>
    <path d="M53.303 21.062v-1.29h-5.679v1.29h2.098v7.904h1.452v-7.904h2.129zm-7.034 7.904v-9.194h-1.452v3.71h-3.355v-3.71h-1.453v9.194h1.453v-4h3.355v4h1.452zm-8.259-2.742v-1.84h-3.127v1.455h1.676v.385c0 .84-.679 1.42-1.614 1.42-.548 0-.966-.227-1.258-.742-.289-.58-.453-1.548-.453-2.517 0-.774.133-1.614.356-2.16.323-.809.807-1.13 1.55-1.13.71 0 1.098.29 1.483 1.097l1.387-.548c-.613-1.453-1.45-2.034-2.87-2.034-1.033 0-1.808.356-2.357 1.032-.61.81-1.03 2.26-1.03 3.743 0 1.131.224 2.259.612 3.066.55 1.16 1.355 1.683 2.742 1.683 1.677 0 2.903-1.232 2.903-2.91m-8.225-6.452H28.3v9.194h1.485v-9.194zm-4.646 2.582c0 .386-.227.775-.581.967-.225.129-.386.161-.838.161h-1.743v-2.258h1.743c.482 0 .613.032.838.16.354.195.581.582.581.97m1.645 6.612-1.614-4.29c.838-.387 1.422-1.355 1.422-2.322 0-.938-.584-1.904-1.39-2.293-.452-.224-.935-.289-1.645-.289h-3.033v9.194h1.453v-4h1.743l1.482 4h1.582zM51.702 42.725v-1.484h-4.259v-2.517h2.679V37.24h-2.679V34.98h3.967V33.53h-5.42v9.195h5.712zm-7.872 0V33.53h-1.452V39.4l-3.355-5.871H37.57v9.195h1.453v-6.226l3.516 6.226h1.291zM33.218 38.66h-1.839l.935-2.581.904 2.58zm2.966 4.065-3.162-9.195h-1.45l-3.162 9.195h1.548l.904-2.58h2.871l.902 2.58h1.55zm-8.324 0V41.37h-4.257v-7.84H22.15v9.195h5.71zM51.67 53.816c0-3.612-4.325-2.485-4.45-4.194-.067-.838.74-1.096 1.418-1.066 1.032.034 1.355.808 1.355.808l1.291-.387c-.452-1.13-1.326-1.872-2.615-1.872-1.645 0-2.871.677-2.871 2.485 0 1.516 1.226 2.064 1.775 2.291 1.194.483 2.612.676 2.612 1.903 0 .773-.58 1.355-1.418 1.355-.872 0-1.583-.485-1.968-1.355l-1.387.516c.611 1.386 1.772 2.327 3.355 2.327.773 0 1.482-.263 2-.715.581-.516.902-1.258.902-2.096m-9.096-1.969c0 1.227-.29 2.227-.84 2.775-.259.258-.549.354-1.033.354h-1.452V48.72h1.647c.387 0 .71.16.935.387.453.484.743 1.516.743 2.741m1.484 0c0-1.806-.549-3.257-1.518-4.096-.484-.387-.837-.485-1.772-.485h-2.969v9.195h3.322c.484-.032.967-.194 1.323-.516 1.034-.806 1.614-2.258 1.614-4.098m-8.42 4.614v-9.195h-1.453v5.871l-3.355-5.87h-1.452v9.194h1.452v-6.226l3.516 6.226h1.292zm-7.777 0v-1.485h-4.257v-2.515h2.676v-1.484h-2.676V48.72h3.967v-1.453h-5.42v9.195h5.71z" style="fill:#000;fill-opacity:1;fill-rule:evenodd;stroke:none"/>
</svg>
