<svg xmlns="http://www.w3.org/2000/svg" width="73.834" height="74.381" viewBox="0 0 208.376 209.92">
    <path d="M205.065 96.737 112.387 3.378c-4.459-4.512-11.913-4.498-16.38.004L3.352 96.731c-4.46 4.487-4.474 11.99-.007 16.478l92.67 93.356c4.446 4.459 11.928 4.487 16.373 0l92.678-93.36c4.805-4.829 4.004-11.535 0-16.467" style="fill:#fcd116;fill-opacity:1;fill-rule:nonzero;stroke:none"/>
    <path d="m202.998 111.12-92.685 93.352c-3.327 3.348-8.89 3.341-12.231 0L5.425 111.117c-3.323-3.359-3.352-8.94-.01-12.302L98.088 5.45c3.316-3.327 8.915-3.337 12.224-.004l92.678 93.37c3.316 3.351 3.33 8.96.007 12.305" style="fill:#000;fill-opacity:1;fill-rule:evenodd;stroke:none"/>
    <path d="M199.562 107.65c1.432-1.461 1.432-3.927 0-5.391L106.866 8.917c-1.446-1.44-3.884-1.474-5.33.004L8.86 102.26c-1.432 1.5-1.46 3.898.007 5.394l92.675 93.352c1.453 1.46 3.855 1.46 5.323 0l92.696-93.355" style="fill:#fcd116;fill-opacity:1;fill-rule:evenodd;stroke:none"/>
    <path d="M166.63 91.432c0-2.984-1.749-5.246-5.75-7.574-1.53-.875-1.972-1.457-1.972-2.477 0-1.382 1.098-2.402 2.48-2.402 1.31 0 2.329.945 2.406 2.402h2.837c-.074-3.132-2.329-5.39-5.243-5.39-2.991 0-5.32 2.402-5.32 5.39 0 1.824.875 3.422 2.551 4.587 4.223 2.846 3.059 2.042 3.493 2.48 1.241.949 1.682 1.82 1.682 2.984 0 1.672-1.308 3.133-2.914 3.133-2.042 0-2.917-1.817-2.917-3.567h-2.914c0 3.419 2.184 6.491 5.831 6.491 3.204 0 5.75-2.706 5.75-6.057m-17.546-4.586c0 1.602-.152 3.055-.297 4.367-.289 1.602-1.242 2.988-2.984 2.988h-2.48V79.268h2.48c1.309 0 2.183.656 2.695 2.113.363.872.586 3.133.586 5.465m2.906-.148c0-1.598-.211-3.426-.508-4.95-.36-2.113-1.234-3.718-2.476-4.593-.73-.578-1.605-.8-3.355-.8h-5.313v20.76h5.754c1.164 0 2.184-.289 2.914-.952 2.039-1.598 2.984-4.657 2.984-9.465m-16.093 10.417v-20.76h-2.992v12.46l-5.676-12.46h-2.985v20.76h2.985v-13.91l6.406 13.91h2.262zm-15.152 0v-2.914h-7.574v-6.85h4.293v-2.837h-4.293v-5.246h6.773v-2.914h-9.758v20.761h10.559zm-24.398 0v-2.914h-7.581v-6.85h4.3v-2.837h-4.3v-5.246h6.773v-2.914h-9.758v20.761h10.566zm-15.029 0v-20.76H78.32v12.46l-5.712-12.46h-2.984v20.76h2.984v-13.91l6.442 13.91h2.268zm-19.706-8.597h-2.984l1.453-5.969 1.531 5.97zm5.169 8.597-5.169-20.76h-2.914l-5.168 20.76h2.985l1.383-5.683h4.445l1.453 5.683h2.985zm-14.493 0v-2.769h-7.577V76.354h-2.985v20.761h10.562zM140.78 133.448v-2.914h-7.571v-6.847h4.3v-2.837h-4.3v-5.25h6.773v-2.913h-9.765v20.76h10.562zm-14.634-5.754v-4.297h-5.32v2.91h2.321v1.387c0 2.184-.723 3.203-2.25 3.203-1.606 0-2.622-1.09-3.062-3.129a29.931 29.931 0 0 1-.441-5.172c0-2.476.373-4.811.952-5.831.508-1.016 1.316-1.528 2.328-1.528 1.46 0 2.406.95 2.473 2.332h2.999c-.152-3.055-2.413-5.245-5.394-5.245-2.406 0-4.523 1.605-5.246 3.788-.73 1.969-.942 4.082-.942 6.992 0 2.696.434 5.61 1.087 7.14 1.02 2.333 2.847 3.581 5.32 3.581 2.11 0 3.789-1.107 4.59-2.928.433-.871.585-1.746.585-3.203m-17.565-9.468c0 1.675-.935 2.624-2.692 2.624h-3.055v-5.25h3.055c1.606 0 2.692 1.02 2.692 2.626m2.925 15.222-2.992-10.199c1.962-.73 2.992-2.547 2.992-5.023 0-3.348-2.195-5.54-5.465-5.54h-6.188v20.762h2.981v-9.761h2.84l2.763 9.76h3.069zm-15.16 0v-2.914h-7.573v-6.847h4.3v-2.837h-4.3v-5.25h6.773v-2.913h-9.758v20.76h10.559zm-15.098 0v-20.761h-2.995l-3.88 11.66-3.874-11.66h-2.981v20.76h2.98v-11.651l3.874 11.652 3.88-11.652v11.652h2.996zM129.148 151.789v-2.77h-10.562v2.77h3.792v17.991h2.981V151.79h3.79zm-11.8.144v-2.913h-10.562v20.76h2.988v-9.76h4.148v-2.844h-4.148v-5.243h7.574zm-14.059 17.847v-2.913h-7.577v-6.848h4.307v-2.843h-4.307v-5.243h6.78v-2.913h-9.765v20.76h10.562zm-13.398 0v-2.765h-7.595V149.02H79.3v20.76h10.59z" style="fill:#000;fill-opacity:1;fill-rule:evenodd;stroke:none"/>
</svg>
