<svg xmlns="http://www.w3.org/2000/svg" width="164" height="112.748">
    <path d="M-1284.707-2854.788a5.124 5.124 0 0 1-5.126 5.125h-153.747a5.124 5.124 0 0 1-5.127-5.125v-102.499a5.124 5.124 0 0 1 5.127-5.123h153.747a5.124 5.124 0 0 1 5.126 5.123v102.5z" style="fill:#fcd116;fill-opacity:1;fill-rule:nonzero;stroke:none" transform="translate(1448.707 2962.41)"/>
    <path d="M-1288.124-2854.788a1.71 1.71 0 0 1-1.709 1.709h-153.748a1.71 1.71 0 0 1-1.708-1.709v-102.499a1.71 1.71 0 0 1 1.709-1.707h153.747a1.71 1.71 0 0 1 1.709 1.707v102.5zm-1.709-106.341h-153.748a3.85 3.85 0 0 0-3.845 3.842v102.5a3.85 3.85 0 0 0 3.845 3.843h153.748a3.85 3.85 0 0 0 3.845-3.844v-102.499a3.849 3.849 0 0 0-3.845-3.842" style="fill:#000;fill-opacity:1;fill-rule:nonzero;stroke:none" transform="translate(1448.707 2962.41)"/>
    <path d="M-1401.92-2895.525h-4.555v-15.446h-2.254v-4.556c.436 0 .957-.314 1.561-.944.604-.63.905-1.224.905-1.786h4.344v22.732zM-1365.673-2898.35h-3.417v-9.292l-4.532 9.293-4.531-9.293v9.293h-3.417v-17.084h3.418l4.533 9.311 4.528-9.311h3.418v17.084zM-1357.485-2898.35h-3.415v-17.084h3.415v17.084zM-1340.06-2898.35h-12.64v-17.083h3.416v13.667h9.225v3.417zM-1324.684-2898.35h-12.642v-17.083h12.214v3.416h-8.796v2.729h5.125v3.417h-5.125v4.105h9.224v3.417zM-1420.096-2939.856c0-.57-.198-1.055-.597-1.455-.399-.4-.884-.6-1.451-.6h-4.953v3.938h4.953c.578 0 1.067-.173 1.457-.522.395-.348.591-.803.591-1.361m3.417 0c0 1.573-.564 2.86-1.69 3.863-1.07.96-2.385 1.437-3.945 1.437h-4.783v6.312h-3.415v-17.084h8.368c1.503 0 2.79.535 3.858 1.608 1.072 1.071 1.607 2.359 1.607 3.864M-1404.751-2935.59l-1.93-4.749-1.95 4.749h3.88zm-.257-9.738 6.953 17.083h-3.673l-1.622-3.929h-6.68l-1.573 3.929h-3.705l6.97-17.083h3.33zM-1379.433-2945.328l-6.91 10.251v6.833h-3.416v-6.833l-6.93-10.251h4.17l4.459 6.645 4.458-6.645h4.17zM-1351.76-2941.911h-4.62v13.667h-3.42v-13.667h-4.6v-3.417h12.64v3.417zM-1338.436-2936.787c0-1.399-.307-2.599-.922-3.601-.698-1.125-1.641-1.689-2.838-1.689s-2.142.564-2.836 1.689c-.615 1.002-.924 2.202-.924 3.601 0 1.4.31 2.6.924 3.601.694 1.128 1.639 1.69 2.836 1.69 1.197 0 2.14-.562 2.838-1.69.615-1 .922-2.2.922-3.6m3.418 0c0 2.322-.643 4.324-1.929 6.01-1.367 1.8-3.119 2.697-5.249 2.697-2.13 0-3.878-.898-5.247-2.698-1.286-1.685-1.93-3.687-1.93-6.01 0-2.321.644-4.325 1.93-6.009 1.369-1.798 3.117-2.698 5.247-2.698s3.882.9 5.25 2.698c1.285 1.684 1.928 3.688 1.928 6.01M-1318.277-2928.244h-12.641v-17.084h3.416v13.666h9.225v3.418zM-1302.902-2928.244h-12.641v-17.084h3.415v13.666h9.226v3.418zM-1417.786-2872.026a7.312 7.312 0 0 1-2.511 2.663 6.817 6.817 0 0 1-3.706 1.075c-2.152 0-3.976-.888-5.468-2.664-1.434-1.706-2.151-3.722-2.151-6.044 0-2.32.717-4.336 2.151-6.043 1.492-1.777 3.316-2.664 5.468-2.664 1.31 0 2.544.341 3.706 1.022 1.082.627 1.92 1.435 2.511 2.425l-2.853 1.76c-.306-.502-.758-.92-1.35-1.262a4.17 4.17 0 0 0-2.014-.529c-1.22 0-2.233.551-3.04 1.656-.774 1.035-1.162 2.248-1.162 3.635 0 1.39.388 2.6 1.161 3.636.808 1.103 1.822 1.656 3.04 1.656 1.437 0 2.512-.62 3.228-1.858l2.99 1.537zM-1405.174-2875.8l-1.93-4.75-1.948 4.75h3.878zm-.256-9.738 6.953 17.084h-3.673l-1.621-3.93h-6.681l-1.572 3.93h-3.706l6.969-17.084h3.331zM-1385.152-2880.066c0-.57-.2-1.056-.598-1.455-.4-.4-.883-.6-1.453-.6h-4.782v3.94h4.782c.491 0 .955-.18 1.394-.54.437-.36.657-.807.657-1.345m3.417-.01c0 1.117-.382 2.17-1.146 3.16-.557.73-1.004 1.147-1.348 1.248l2.664 7.209h-3.638l-2.308-6.31h-4.474v6.31h-3.417v-17.084h8.199c1.504 0 2.791.537 3.861 1.607 1.072 1.07 1.607 2.358 1.607 3.86M-1365.26-2883.621l-2.12 2.526c-1.062-.795-2.48-1.191-4.258-1.191-1.791 0-2.685.541-2.685 1.622 0 .705.833 1.223 2.495 1.553 2.371.477 3.926.916 4.666 1.315 1.665.91 2.495 2.407 2.495 4.489 0 1.617-.616 2.868-1.844 3.756-1.172.842-2.732 1.264-4.68 1.264-3.346 0-5.782-.894-7.307-2.68l2.387-2.475c-.02.216.33.522 1.06.918 1.002.547 2.285.82 3.858.82 2.184 0 3.276-.586 3.276-1.758 0-.934-.837-1.6-2.512-1.998-2.767-.66-4.329-1.075-4.68-1.247-1.675-.785-2.513-2.117-2.513-3.994 0-1.504.563-2.71 1.685-3.629 1.123-.915 2.561-1.372 4.316-1.372 2.452 0 4.57.693 6.36 2.08M-1339.738-2868.454h-3.418c0-5.078 1.494-9.633 4.484-13.667h-9.396v-3.416h13.836v3.416c-3.67 3.714-5.506 8.27-5.506 13.667M-1318.04-2882.12h-8.304l-.205 2.374c.887-.445 1.935-.666 3.142-.666 1.809 0 3.339.559 4.591 1.674 1.322 1.172 1.98 2.681 1.98 4.525 0 1.627-.58 2.994-1.74 4.097-1.286 1.22-3.022 1.828-5.21 1.828-3.347 0-5.64-.631-6.88-1.894l1.86-2.816c1.253.862 2.925 1.294 5.02 1.294 2.357 0 3.535-.864 3.535-2.595 0-.842-.278-1.502-.837-1.98-.556-.478-1.333-.715-2.321-.715-1.288 0-2.387.272-3.297.818l-3.416-1.486.65-7.875h11.431v3.416zM-1305.027-2881.788c1.19.364 2.27 1.08 3.236 2.149l-2.186 2.473c-.971-1.025-1.95-1.538-2.94-1.538-.934 0-1.669.37-2.204 1.113-.468.663-.7 1.463-.7 2.4 0 .96.273 1.783.82 2.473.547.692 1.24 1.037 2.084 1.037 1.163 0 2.079-.536 2.751-1.607l2.375 2.189c-.727 1.208-1.807 2.052-3.236 2.53v3.2h-3.419v-3.093c-1.46-.362-2.635-1.189-3.526-2.476-.842-1.23-1.265-2.648-1.265-4.253 0-1.515.459-2.932 1.378-4.253.917-1.323 2.055-2.158 3.413-2.51v-2.444h3.42v2.61z" style="fill:#000;fill-opacity:1;fill-rule:nonzero;stroke:none" transform="translate(1448.707 2962.41)"/>
</svg>
