<svg xmlns="http://www.w3.org/2000/svg" width="11880.001" height="1350" viewBox="-1 -0.876 11880.001 1350" xml:space="preserve">
    <path style="fill:#fcd116;fill-rule:nonzero;stroke:none" d="M11879.001 1214.124c0 74.563-60.438 135-135 135H134c-74.56 0-135-60.438-135-135v-1080c0-74.558 60.44-135 135-135h11610.001c74.562 0 135 60.442 135 135v1080z"/>
    <path style="fill:#000;fill-rule:nonzero;stroke:none" d="M11789.001 1214.124c0 24.813-20.187 45-45 45H134c-24.812 0-45-20.188-45-45v-1080c0-24.812 20.188-45 45-45h11610.001c24.813 0 45 20.188 45 45v1080zm-45-1181.25H134c-55.829 0-101.25 45.421-101.25 101.25v1080c0 55.825 45.421 101.25 101.25 101.25h11610.001c55.835 0 101.25-45.425 101.25-101.25v-1080c0-55.829-45.415-101.25-101.25-101.25z"/>
    <path style="fill:#000;fill-rule:nonzero;stroke:none" d="m3580.488 538.65-75.763 181.897h151.538l-75.775-181.897zm170.475 405.475-53.038-126.948H3463.05l-53.038 126.948h-106.074l227.3-540.001h98.5l225.412 540.001h-104.187zM5970.788 521.598c-24.6-13.263-52.988-20.843-81.363-20.843h-81.938v346.738h81.938c28.375 0 54.875-7.579 77.575-20.843 56.775-30.315 83.263-79.578 83.263-153.473 0-72-26.488-121.263-79.476-151.58zm45.412 390.316c-37.837 20.843-83.263 32.211-126.775 32.211H5709.1V404.124h180.325c45.413 0 88.938 11.369 128.675 34.106 83.25 47.368 128.662 128.84 128.662 234.946 0 108.002-45.412 191.37-130.562 238.738zM4571.45 944.125V404.124h395.5v96.631h-296.625v100.423h161.625v98.525h-161.625v147.79h306.125v96.632h-405zM4305.925 944.125V709.177H4062.35v234.948h-97.05V404.124h97.05v208.421h243.575V404.124h97.05v540.001h-97.05zM1953.138 491.281c-81.65 0-131.025 68.21-131.025 181.895 0 115.58 49.374 183.79 131.024 183.79 102.55 0 127.238-100.42 127.238-183.79 0-113.685-45.575-181.895-127.237-181.895zm0 462.318c-159.513 0-229.775-144.001-229.775-280.423 0-172.42 87.35-278.527 229.774-278.527 132.938 0 224.088 111.79 224.088 276.632 0 168.633-87.35 282.318-224.088 282.318zM2587.825 500.755H2424.75v134.526h163.075c47.35 0 79.537-26.527 79.537-66.316 0-41.683-32.187-68.21-79.537-68.21zm92.787 210.318c-30.287 17.051-54.912 20.84-96.575 20.84H2424.75v212.212h-98.475V404.123h257.762c41.663 0 66.288 5.683 96.576 22.736 51.137 28.422 83.324 81.475 83.324 142.106 0 56.844-32.187 113.685-83.325 142.108zM920.018 701.804c-24.036-6.635-84.476-21.142-104.868-33.099-40.65-23.831-71.721-62.803-71.721-120.581 0-89.052 76.116-149.685 186.484-149.685 79.922 0 146.525 26.527 201.71 83.368l-72.313 64.423c-34.25-36.001-78.019-53.054-129.397-53.054-55.184 0-87.534 20.843-87.534 54.948 0 30.315 19.03 43.579 85.631 58.736 72.311 15.158 119.885 30.315 150.33 45.475 47.574 24.632 78.02 75.789 78.02 134.525 0 54.949-24.737 96.633-76.117 126.948-38.058 22.739-87.533 36.001-137.008 36.001-93.244 0-163.651-34.105-224.545-104.211l78.019-60.631c39.962 47.368 83.729 68.21 144.622 68.21 68.504 0 117.979-30.315 117.979-70.104 0-50.686-55.13-58.04-139.292-81.269zM1477.45 498.861v445.265h-94.625V498.862h-155.186v-94.738h404.999v94.737H1477.45zM10239.149 944.125V404.123h96.978v456.632h308.022v83.37h-405zM10754.314 944.125V404.123h96.975v456.632h308.025v83.37h-405zM9866.025 491.281c-81.662 0-131.037 68.21-131.037 181.895 0 115.58 49.374 183.79 131.037 183.79 102.55 0 127.237-100.42 127.237-183.79 0-113.685-45.575-181.895-127.237-181.895zm0 462.318c-159.525 0-229.787-144.001-229.787-280.423 0-172.42 87.362-278.527 229.787-278.527 132.938 0 224.086 111.79 224.086 276.632 0 168.633-87.361 282.318-224.086 282.318zM9390.337 498.861v445.265H9295.7V498.862h-155.175v-94.738h405v94.737h-155.188zM7722.825 538.65l-75.763 181.897h151.526l-75.763-181.897zM7893.3 944.125l-53.038-126.948h-234.874l-53.038 126.948h-106.075l227.3-540.001h98.5l225.4 540.001H7893.3zM7218.325 500.755h-163.088v134.526h163.088c47.337 0 79.525-26.527 79.525-66.316 0-41.683-32.188-68.21-79.525-68.21zm92.787 210.318c-30.3 17.051-54.912 20.84-96.574 20.84h-159.3v212.212h-98.476V404.123h257.776c41.662 0 66.274 5.684 96.574 22.736 51.138 28.422 83.325 81.475 83.325 142.106 0 56.844-32.187 113.685-83.325 142.108zM8373.212 724.335v219.791h-96.6v-219.79l-227.3-320.212h119.338l157.212 219.79 155.326-219.79h119.337l-227.313 320.211zM6416.762 726.234v-96.632h270v96.632h-270zM5324.288 538.65l-75.775 181.897h151.537l-75.762-181.897zm170.475 405.475-53.038-126.948H5206.85l-53.038 126.948h-106.074l227.3-540.001h98.5l225.4 540.001h-104.176z"/>
</svg>
