<svg xmlns="http://www.w3.org/2000/svg" width="491.956" height="47.303">
    <path d="M-382.72-3522.229a4.743 4.743 0 0 1-4.73 4.73h-482.497a4.743 4.743 0 0 1-4.73-4.73v-37.842a4.743 4.743 0 0 1 4.73-4.73h482.498c2.6 0 4.729 2.127 4.729 4.73v37.842z" style="fill:#fcd116;fill-opacity:1;fill-rule:nonzero;stroke:none" transform="translate(874.677 3564.801)"/>
    <path d="M-385.873-3522.229c0 .424-.16.807-.466 1.112a1.546 1.546 0 0 1-1.11.467h-482.498c-.421 0-.805-.164-1.11-.467a1.536 1.536 0 0 1-.466-1.112v-37.842c0-.423.16-.806.466-1.111a1.542 1.542 0 0 1 1.11-.467h482.498c.422 0 .805.162 1.11.467.306.305.466.688.466 1.111v37.842zm1.206-40.626a3.908 3.908 0 0 0-2.782-1.157h-482.498c-1.047 0-2.036.41-2.782 1.157a3.916 3.916 0 0 0-1.159 2.784v37.843c0 1.047.411 2.036 1.159 2.783a3.908 3.908 0 0 0 2.782 1.158h482.498c1.047 0 2.036-.41 2.782-1.158a3.915 3.915 0 0 0 1.16-2.783v-37.843a3.918 3.918 0 0 0-1.16-2.784" style="fill:#000;fill-opacity:1;fill-rule:nonzero;stroke:none" transform="translate(874.677 3564.801)"/>
    <path d="m-819.171-3545.897-2.655 6.375h5.31l-2.655-6.375zm5.972 14.207-1.859-4.446h-8.23l-1.857 4.446h-3.718l7.965-18.921h3.452l7.898 18.921h-3.65zM-732.703-3531.69v-18.921h3.397v16.001h10.794v2.92h-14.191zM-715.296-3531.69v-18.921h3.4v16.001h10.79v2.92h-14.19zM-744.908-3547.557c-2.861 0-4.59 2.39-4.59 6.373 0 4.052 1.729 6.44 4.59 6.44 3.594 0 4.46-3.517 4.46-6.44 0-3.983-1.599-6.373-4.46-6.373m0 16.198c-5.589 0-8.051-5.044-8.051-9.824 0-6.042 3.061-9.76 8.051-9.76 4.659 0 7.854 3.918 7.854 9.695 0 5.908-3.063 9.89-7.854 9.89M-836.547-3547.225h-5.714v4.714h5.714c1.659 0 2.786-.93 2.786-2.324 0-1.46-1.127-2.39-2.786-2.39m3.251 7.37c-1.06.598-1.923.729-3.383.729h-5.582v7.436h-3.45v-18.921h9.032c1.46 0 2.322.2 3.383.799a5.64 5.64 0 0 1 2.92 4.977c0 1.993-1.128 3.983-2.92 4.98M-761.045-3547.291v15.601h-3.315v-15.601h-5.439v-3.32h14.191v3.32h-5.437zM-796.685-3539.391v7.701h-3.385v-7.701l-7.963-11.22h4.18l5.508 7.702 5.443-7.702h4.181l-7.964 11.22zM-674.482-3529.323l.083-17.677h-2.97l-.084-3.401c1.815-.417 2.805-1.08 3.714-2.574h3.382v23.651h-4.125zM-436.724-3531.358c-2.6 0-4.934-.664-7.334-2.123l1.799-2.855a10.851 10.851 0 0 0 5.535 1.528c2.869 0 4.6-1.263 4.6-3.387 0-.995-.468-1.991-1.199-2.59-.667-.531-1.667-.796-3.067-.796-1.267 0-2.268.199-3.67.729l-3.398-.863.599-8.896h12.67l-.068 3.32h-9.402l-.2 2.723c1.534-.333 2.469-.464 3.67-.464 4.332 0 7.465 2.92 7.465 6.837 0 3.983-3.333 6.836-8 6.836M-449.334-3544.966c-1.26 1.725-2.457 4.247-3.187 6.44-.73 2.256-.996 3.981-1.062 6.836h-3.385c.065-2.855.265-4.446.861-6.771.664-2.391 1.594-4.58 2.723-6.44.331-.598.732-1.195 1.527-2.39h-10.687l-.066-3.32h15.333v3.386c-1.261 1.196-1.593 1.529-2.057 2.259M-416.603-3533.88v3.32h-3.387v-3.386c-3.455-.73-5.517-3.651-5.517-7.769 0-3.981 2.26-6.903 5.517-7.7v-2.788h3.387v2.788c2.193.333 3.855 1.46 4.918 3.187l-2.657 1.327c-.863-1.061-1.728-1.859-3.72-1.859-2.86 0-4.12 2.854-4.12 5.045 0 2.723 1.593 5.247 3.985 5.247 1.995 0 2.66-.73 3.855-1.927l2.657 1.263c-1.063 1.792-2.725 2.853-4.918 3.252M-528.01-3545.897l-2.655 6.375h5.31l-2.655-6.375zm5.973 14.207-1.858-4.446h-8.23l-1.858 4.446h-3.717l7.966-18.921h3.451l7.896 18.921h-3.65zM-547.652-3531.358c-4.979 0-8.032-3.917-8.032-9.825 0-5.975 3.053-9.76 8.032-9.76 3.054 0 5.841 1.528 7.301 4.183l-2.985 1.593c-.532-.795-.798-1.061-1.328-1.394-.73-.597-1.992-.996-2.988-.996-3.452 0-4.58 3.386-4.58 6.309 0 4.116 1.725 6.503 4.58 6.503 1.725 0 2.656-.595 4.316-2.387l2.985 1.592c-1.393 2.657-4.247 4.182-7.3 4.182M-598.258-3531.69v-18.921h13.857v3.386h-10.392v3.519h5.664v3.454h-5.664v5.176h10.727v3.386h-14.192zM-623.99-3550.61h3.406v18.92h-3.406v-18.92zM-615.666-3531.69v-18.921h3.4v16.001h10.793v2.92h-14.193zM-632.242-3531.69v-11.551l-5.599 11.551-5.532-11.551v11.551h-3.333v-18.921h3.333l5.532 11.22 5.6-11.22h3.33v18.921h-3.33zM-506.337-3547.225h-5.449v4.714h5.45c1.66 0 2.72-.93 2.72-2.324 0-1.46-1.06-2.39-2.72-2.39m2.72 15.535-3.052-7.436h-5.118v7.436h-3.383v-18.921h8.767c1.394 0 2.255.2 3.251.799a5.643 5.643 0 0 1 2.92 4.977c0 2.125-1.13 3.983-3.053 5.046l3.45 8.1h-3.783zM-490.13-3540.178c-.843-.234-2.96-.742-3.674-1.16-1.424-.835-2.513-2.202-2.513-4.227 0-3.12 2.666-5.243 6.534-5.243 2.8 0 5.134.927 7.067 2.92l-2.533 2.257c-1.199-1.262-2.733-1.859-4.534-1.859-1.934 0-3.068.73-3.068 1.925 0 1.063.668 1.528 3.002 2.058 2.533.532 4.198 1.062 5.266 1.595 1.667.861 2.734 2.655 2.734 4.714 0 1.923-.867 3.385-2.667 4.448-1.335.795-3.066 1.26-4.8 1.26-3.268 0-5.733-1.196-7.867-3.65l2.734-2.126c1.398 1.66 2.932 2.39 5.066 2.39 2.4 0 4.134-1.062 4.134-2.456 0-1.776-1.932-2.034-4.882-2.846M-574.605-3542.19h9.46v2.258h-9.46v-2.257z" style="fill:#000;fill-opacity:1;fill-rule:nonzero;stroke:none" transform="translate(874.677 3564.801)"/>
</svg>
