<svg xmlns="http://www.w3.org/2000/svg" width="194.734" height="112.741">
    <path d="M-833.716-3234.888a5.125 5.125 0 0 1-5.124 5.125h-184.485a5.124 5.124 0 0 1-5.125-5.125v-102.493a5.124 5.124 0 0 1 5.125-5.123h184.485a5.125 5.125 0 0 1 5.124 5.123v102.493z" style="fill:#fcd116;fill-opacity:1;fill-rule:nonzero;stroke:none" transform="translate(1028.45 3342.505)"/>
    <path d="M-837.131-3234.888c0 .942-.768 1.71-1.709 1.71h-184.485c-.942 0-1.71-.768-1.71-1.71v-102.493c0-.941.768-1.707 1.71-1.707h184.485a1.71 1.71 0 0 1 1.709 1.707v102.493zm-1.709-106.335h-184.485a3.85 3.85 0 0 0-3.846 3.842v102.493a3.85 3.85 0 0 0 3.846 3.843h184.485a3.847 3.847 0 0 0 3.843-3.843v-102.493a3.847 3.847 0 0 0-3.843-3.842" style="fill:#000;fill-opacity:1;fill-rule:nonzero;stroke:none" transform="translate(1028.45 3342.505)"/>
    <path d="m-1000.181-3323.506-2.121 2.525c-1.06-.794-2.478-1.192-4.258-1.192-1.79 0-2.684.542-2.684 1.623 0 .707.83 1.224 2.495 1.553 2.37.479 3.924.916 4.667 1.314 1.662.91 2.495 2.407 2.495 4.49 0 1.616-.615 2.868-1.847 3.755-1.17.842-2.73 1.265-4.677 1.265-3.348 0-5.784-.894-7.31-2.682l2.391-2.472c-.025.214.329.522 1.056.919 1.002.545 2.288.817 3.858.817 2.185 0 3.276-.585 3.276-1.759 0-.932-.835-1.597-2.51-1.997-2.767-.659-4.327-1.074-4.682-1.245-1.673-.786-2.51-2.116-2.51-3.995 0-1.503.562-2.711 1.682-3.626 1.124-.917 2.564-1.375 4.319-1.375 2.449 0 4.571.693 6.36 2.082M-984.37-3322.007h-4.622v13.668h-3.418v-13.668h-4.602v-3.415h12.642v3.415zM-971.047-3316.881c0-1.4-.308-2.6-.923-3.601-.696-1.127-1.641-1.69-2.837-1.69-1.197 0-2.144.563-2.837 1.69-.616 1-.923 2.2-.923 3.6s.307 2.6.923 3.602c.693 1.126 1.64 1.689 2.837 1.689 1.196 0 2.14-.563 2.837-1.689.615-1.001.923-2.201.923-3.601m3.415 0c0 2.321-.642 4.325-1.932 6.01-1.366 1.797-3.115 2.697-5.243 2.697-2.132 0-3.88-.9-5.247-2.697-1.286-1.685-1.93-3.689-1.93-6.01 0-2.321.644-4.325 1.93-6.01 1.368-1.799 3.115-2.698 5.247-2.698 2.128 0 3.877.9 5.243 2.698 1.29 1.685 1.932 3.689 1.932 6.01M-953.115-3319.951c0-.572-.201-1.057-.599-1.455a1.97 1.97 0 0 0-1.45-.602h-4.95v3.94h4.95c.58 0 1.067-.175 1.458-.522.392-.348.591-.803.591-1.361m3.415 0c0 1.572-.564 2.86-1.69 3.865-1.071.956-2.385 1.435-3.945 1.435h-4.78v6.31h-3.415v-17.082h8.366c1.502 0 2.788.537 3.86 1.608 1.07 1.071 1.604 2.36 1.604 3.864M-925.816-3315.686l-1.929-4.749-1.947 4.749h3.876zm-.256-9.736 6.953 17.082h-3.672l-1.623-3.93h-6.68l-1.57 3.93h-3.708l6.97-17.082h3.33zM-902.212-3308.34h-3.418v-7.522h-6.997v7.522h-3.418v-17.082h3.418v6.145h6.997v-6.145h3.418v17.082zM-884.785-3308.34h-12.64v-17.082h12.213v3.415h-8.797v2.73h5.124v3.415h-5.124v4.106h9.224v3.416zM-872.349-3315.686l-1.93-4.749-1.947 4.749h3.877zm-.256-9.736 6.953 17.082h-3.674l-1.621-3.93h-6.68l-1.573 3.93h-3.705l6.97-17.082h3.33zM-852.164-3316.881c0-1.526-.295-2.733-.888-3.621-.66-1.002-1.655-1.505-2.985-1.505h-3.125v10.25h3.125c1.33 0 2.326-.502 2.985-1.503.593-.887.888-2.095.888-3.621m3.417 0c0 2.447-.625 4.457-1.878 6.029-1.342 1.675-3.147 2.512-5.412 2.512h-6.542v-17.082h6.542c2.265 0 4.07.837 5.412 2.51 1.253 1.573 1.878 3.583 1.878 6.03M-983.614-3290.057c0-.572-.2-1.057-.597-1.457a1.975 1.975 0 0 0-1.451-.598h-4.95v3.938h4.95c.578 0 1.067-.173 1.457-.522.394-.348.591-.803.591-1.361m3.417 0c0 1.573-.565 2.86-1.69 3.863-1.072.957-2.385 1.435-3.945 1.435h-4.78v6.312h-3.417v-17.082h8.367c1.502 0 2.788.537 3.86 1.608 1.07 1.071 1.605 2.359 1.605 3.864M-968.269-3285.791l-1.93-4.75-1.95 4.75h3.88zm-.257-9.737 6.951 17.08h-3.671l-1.624-3.928h-6.677l-1.573 3.929h-3.706l6.967-17.081h3.333zM-942.955-3295.529l-6.909 10.25v6.832h-3.415v-6.833l-6.928-10.249h4.167l4.458 6.644 4.458-6.644h4.17zM-916.99-3292.112h-4.621v13.665h-3.419v-13.665h-4.601v-3.416h12.641v3.416zM-903.667-3286.987c0-1.4-.308-2.6-.923-3.602-.696-1.126-1.641-1.688-2.837-1.688-1.197 0-2.143.562-2.837 1.688-.615 1.002-.922 2.202-.922 3.602 0 1.398.307 2.6.922 3.6.694 1.126 1.64 1.69 2.837 1.69 1.196 0 2.14-.564 2.837-1.69.615-1 .923-2.202.923-3.6m3.416 0c0 2.32-.643 4.323-1.931 6.008-1.368 1.8-3.117 2.698-5.245 2.698-2.132 0-3.88-.899-5.247-2.698-1.286-1.685-1.93-3.687-1.93-6.008 0-2.322.644-4.327 1.93-6.012 1.368-1.796 3.115-2.696 5.247-2.696 2.128 0 3.877.9 5.245 2.696 1.288 1.685 1.93 3.69 1.93 6.012M-883.511-3278.447h-12.639v-17.081h3.415v13.664h9.224v3.417zM-868.137-3278.447h-12.64v-17.081h3.416v13.664h9.224v3.417zM-981.304-3252.125a7.32 7.32 0 0 1-2.51 2.662 6.828 6.828 0 0 1-3.708 1.075c-2.152 0-3.974-.887-5.467-2.664-1.432-1.706-2.15-3.72-2.15-6.043 0-2.322.718-4.335 2.15-6.043 1.493-1.775 3.315-2.664 5.467-2.664 1.31 0 2.546.342 3.708 1.024 1.082.626 1.92 1.434 2.51 2.424l-2.85 1.759c-.31-.502-.76-.922-1.352-1.262a4.168 4.168 0 0 0-2.016-.528c-1.218 0-2.232.55-3.04 1.655-.774 1.035-1.162 2.248-1.162 3.635 0 1.39.388 2.6 1.163 3.636.807 1.102 1.821 1.655 3.039 1.655 1.436 0 2.512-.618 3.23-1.858l2.988 1.537zM-968.691-3255.899l-1.931-4.748-1.95 4.748h3.88zm-.256-9.736 6.95 17.081h-3.672l-1.623-3.93h-6.678l-1.572 3.93h-3.707l6.97-17.08h3.332zM-948.672-3260.164c0-.57-.2-1.057-.598-1.455a1.981 1.981 0 0 0-1.452-.6h-4.784v3.938h4.784c.49 0 .953-.179 1.39-.54.44-.359.66-.805.66-1.343m3.416 0c0 1.117-.381 2.17-1.145 3.16-.558.73-1.009 1.145-1.348 1.247l2.663 7.208h-3.638l-2.306-6.31h-4.476v6.31h-3.415v-17.08h8.199c1.503 0 2.79.534 3.86 1.604 1.07 1.071 1.606 2.358 1.606 3.861M-928.782-3263.72l-2.122 2.527c-1.06-.794-2.477-1.193-4.257-1.193-1.79 0-2.684.543-2.684 1.623 0 .706.83 1.223 2.495 1.552 2.369.479 3.924.918 4.666 1.315 1.663.911 2.495 2.408 2.495 4.49 0 1.616-.615 2.868-1.846 3.755-1.171.843-2.731 1.264-4.677 1.264-3.347 0-5.784-.893-7.31-2.68l2.39-2.474c-.022.215.33.523 1.06.919 1 .546 2.285.817 3.855.817 2.185 0 3.278-.585 3.278-1.757 0-.933-.837-1.599-2.51-1.998-2.77-.658-4.33-1.075-4.682-1.246-1.674-.785-2.511-2.116-2.511-3.994 0-1.502.56-2.71 1.683-3.627 1.122-.916 2.562-1.374 4.317-1.374 2.45 0 4.57.694 6.36 2.081M-904.971-3248.554h-3.418c0-5.08 1.494-9.633 4.485-13.666h-9.395v-3.415h13.835v3.415c-3.67 3.714-5.507 8.269-5.507 13.666M-883.276-3262.22h-8.301l-.205 2.376c.886-.444 1.933-.667 3.142-.667 1.809 0 3.34.558 4.591 1.673 1.322 1.174 1.98 2.681 1.98 4.525 0 1.629-.58 2.995-1.742 4.099-1.284 1.217-3.023 1.826-5.208 1.826-3.347 0-5.64-.63-6.882-1.893l1.862-2.816c1.253.863 2.925 1.293 5.02 1.293 2.357 0 3.535-.864 3.535-2.593 0-.842-.28-1.502-.837-1.98-.559-.479-1.333-.717-2.321-.717-1.288 0-2.385.272-3.297.82l-3.415-1.488.65-7.872h11.428v3.415zM-870.264-3261.887c1.194.363 2.273 1.08 3.238 2.148l-2.188 2.473c-.967-1.024-1.946-1.536-2.937-1.536-.935 0-1.668.37-2.205 1.112-.466.664-.7 1.461-.7 2.399 0 .96.274 1.784.82 2.475.547.691 1.242 1.036 2.085 1.036 1.162 0 2.077-.536 2.749-1.607l2.376 2.188c-.728 1.21-1.808 2.053-3.238 2.532v3.198h-3.416v-3.092c-1.46-.364-2.636-1.19-3.525-2.476-.845-1.23-1.267-2.648-1.267-4.254 0-1.514.46-2.931 1.377-4.253.92-1.32 2.058-2.158 3.415-2.51v-2.443h3.416v2.61z" style="fill:#000;fill-opacity:1;fill-rule:nonzero;stroke:none" transform="translate(1028.45 3342.505)"/>
</svg>
