<svg xmlns="http://www.w3.org/2000/svg" width="11880.001" height="6480" viewBox="-1 -0.876 11880.001 6480" xml:space="preserve">
    <path style="fill:#fcd116;fill-rule:nonzero;stroke:none" d="M11879.001 6209.124c0 149.113-120.889 270-270 270H269c-149.117 0-270-120.888-270-270v-5940c0-149.117 120.883-270 270-270h11340.001c149.111 0 270 120.883 270 270v5940z"/>
    <path style="fill:#000;fill-rule:nonzero;stroke:none" d="M11699.001 6209.124c0 49.625-40.375 90-90 90H269c-49.626 0-90-40.375-90-90v-5940c0-49.626 40.374-90 90-90h11340.001c49.625 0 90 40.374 90 90v5940zm-90-6142.5H269c-111.659 0-202.5 90.84-202.5 202.5v5940c0 111.662 90.841 202.5 202.5 202.5h11340.001c111.663 0 202.5-90.838 202.5-202.5v-5940c0-111.66-90.837-202.5-202.5-202.5z"/>
    <path style="fill:#000;fill-rule:nonzero;stroke:none" d="m3718.65 4898.787-132.2 302.1h253.075l-120.875-302.1zm309.738 770.362L3926.4 5416.137h-426.825L3397.6 5669.149h-230.412l434.375-1080.013h222.85l434.375 1080.013h-230.4zM7100.95 4898.787l-132.213 302.1h253.076l-120.863-302.1zm309.725 770.362-101.987-253.012h-426.826l-101.974 253.012h-230.413l434.375-1080.013h222.862l434.375 1080.013h-230.412zM8185.613 4804.386h-137V5453.9h137c194.1 0 312.087-120.838 312.087-324.75 0-203.925-117.987-324.763-312.087-324.763zM8174.2 5669.15h-338.725V4589.136H8174.2c327.3 0 536.625 215.25 536.625 540.013 0 328.525-213.125 540-536.625 540zM5630.938 5669.149V4589.136h784.65v215.25h-573.4v177.476h324.424v215.25h-324.424v256.787h588.487v215.25h-799.737zM5115.413 5669.149v-472.038h-449.088v472.038h-213.137v-1080h213.137v392.712h449.088V4589.15h213.125v1080h-213.125zM1584.575 3779.137V2699.124h784.65v215.25h-573.4v177.475h324.425v215.25h-324.425v256.787h588.487v215.25h-799.737zM3702.45 3779.137V2699.124h216v1080.013h-216zM4618.35 2914.374v864.763h-207.488v-864.763H4112.85v-215.25h799.737v215.25H4618.35zM3222.688 3779.137l-215.213-362.526-222.775 362.526h-249.188l339.813-570.213-309.6-509.8h252.963l188.787 305.875 181.225-305.875h256.75l-305.837 513.575 336.037 566.437h-252.963zM8337.275 3779.137V2699.124h211.25v876.1h588.487v203.912h-799.737zM7848.387 3779.137l-475.724-691.05v691.05h-213.126V2699.124h213.125l449.088 660.85v-660.85h213.125v1080.013h-186.488zM6448.363 2899.262c-155.726 0-239.276 113.3-239.276 339.874 0 219.013 87.35 343.638 239.276 343.638 148.124 0 239.274-135.95 239.274-347.425 0-234.125-87.362-336.088-239.274-336.088zm0 898.762c-326.638 0-455.776-275.675-455.776-558.887 0-339.875 174.713-555.113 455.776-555.113 262.062 0 451.962 222.8 451.962 555.113 0 343.637-178.512 558.887-451.962 558.887zM9859.05 3341.086v438.05h-215.3v-438.05l-441.938-641.962h256.85l298.4 415.387 279.514-415.387h256.85l-434.376 641.962zM7689.675 1118.768l-132.2 302.106h253.075l-120.875-302.106zm309.738 770.356-101.988-253.012H7470.6l-101.987 253.012h-230.4l434.375-1080.01h222.85l434.375 1080.01h-230.4zM9601.95 1889.124V809.114h784.651v215.245H9813.2v177.484h324.426v215.244H9813.2v256.787h588.489v215.25H9601.95zM6273.663 1889.124V809.114h211.25v876.098h588.5v203.912h-799.75zM9113.075 1889.124l-475.738-691.054v691.054h-213.124V809.114h213.125l449.1 660.848V809.114h213.112v1080.01h-186.475zM2448.85 1889.124V809.114h784.65v215.245h-573.4v177.485h324.425v215.243H2660.1v256.787h588.487v215.25H2448.85zM3686.637 1024.359v192.591H4033.7V1432.2h-347.063v456.925h-211.25V809.114h799.738v215.245h-588.487zM1476.313 1889.124V809.114h211.25v876.098h588.487v203.912h-799.737zM4899.425 1024.359v864.765h-207.488v-864.765h-298.012V809.114h799.737v215.245h-294.237z"/>
</svg>
