<?xml version="1.0" encoding="UTF-8" standalone="no"?>
<!-- Created with Inkscape (http://www.inkscape.org/) -->

<svg
   xmlns:dc="http://purl.org/dc/elements/1.1/"
   xmlns:cc="http://creativecommons.org/ns#"
   xmlns:rdf="http://www.w3.org/1999/02/22-rdf-syntax-ns#"
   xmlns:svg="http://www.w3.org/2000/svg"
   xmlns="http://www.w3.org/2000/svg"
   xmlns:sodipodi="http://sodipodi.sourceforge.net/DTD/sodipodi-0.dtd"
   xmlns:inkscape="http://www.inkscape.org/namespaces/inkscape"
   width="615.8125"
   height="233.65625"
   id="svg4779"
   version="1.1"
   inkscape:version="0.48.2 r9819"
   sodipodi:docname="MUTCD E1-5bP.svg">
  <defs
     id="defs4781" />
  <sodipodi:namedview
     id="base"
     pagecolor="#ffffff"
     bordercolor="#666666"
     borderopacity="1.0"
     inkscape:pageopacity="0.0"
     inkscape:pageshadow="2"
     inkscape:zoom="0.9899495"
     inkscape:cx="246.9797"
     inkscape:cy="43.566363"
     inkscape:document-units="px"
     inkscape:current-layer="layer1"
     showgrid="false"
     inkscape:window-width="1280"
     inkscape:window-height="1004"
     inkscape:window-x="-8"
     inkscape:window-y="-8"
     inkscape:window-maximized="1"
     fit-margin-top="0"
     fit-margin-left="0"
     fit-margin-right="0"
     fit-margin-bottom="0" />
  <metadata
     id="metadata4784">
    <rdf:RDF>
      <cc:Work
         rdf:about="">
        <dc:format>image/svg+xml</dc:format>
        <dc:type
           rdf:resource="http://purl.org/dc/dcmitype/StillImage" />
        <dc:title></dc:title>
      </cc:Work>
    </rdf:RDF>
  </metadata>
  <g
     inkscape:label="Layer 1"
     inkscape:groupmode="layer"
     id="layer1"
     transform="translate(2629.5313,3178.5625)">
    <path
       d="m -2614.6035,-2946.1467 c -7.5376,0 -13.6677,-6.1338 -13.6677,-13.6714 l 0,-203.8173 c 0,-7.545 6.1301,-13.6789 13.6677,-13.6789 l 585.9682,0 c 7.5375,0 13.6714,6.1339 13.6714,13.6789 l 0,203.8173 c 0,7.5376 -6.1339,13.6714 -13.6714,13.6714 l -585.9682,0 z"
       style="fill:#ffffff;fill-opacity:1;fill-rule:nonzero;stroke:#000000;stroke-width:2.5;stroke-miterlimit:4;stroke-opacity:1;stroke-dasharray:none"
       id="path3574"
       inkscape:connector-curvature="0" />
    <path
       d="m -2618.8482,-2959.8181 0,-203.8173 c 0,-2.3557 1.904,-4.2597 4.2448,-4.2597 l 585.9681,0 c 2.3408,0 4.2448,1.904 4.2448,4.2597 l 0,203.8173 c 0,2.3333 -1.904,4.2336 -4.2448,4.2336 l -585.9681,0 c -2.3408,0 -4.2448,-1.9003 -4.2448,-4.2336"
       style="fill:#00674c;fill-opacity:1;fill-rule:nonzero;stroke:none"
       id="path3582"
       inkscape:connector-curvature="0" />
    <path
       d="m -2337.3292,-3076.5966 c 0,4.6667 -3.8229,8.4896 -8.4933,8.4896 l -237.7831,0 c -4.6704,0 -8.4933,-3.8229 -8.4933,-8.4896 l 0,-59.4457 c 0,-4.6816 3.8229,-8.4971 8.4933,-8.4971 l 237.7831,0 c 4.6704,0 8.4933,3.8155 8.4933,8.4971 l 0,59.4457 z"
       style="fill:#ffd033;fill-opacity:1;fill-rule:nonzero;stroke:none"
       id="path3586"
       inkscape:connector-curvature="0" />
    <path
       d="m -2505.7321,-3080.8451 0,-50.9562 37.3183,0 0,9.1168 -27.9925,0 0,9.4864 15.2544,0 0,9.296 -15.2544,0 0,13.9402 28.8885,0 0,9.1168 -38.2143,0 z"
       style="fill:#000000;fill-opacity:1;fill-rule:nonzero;stroke:none"
       id="path3590"
       inkscape:connector-curvature="0" />
    <path
       d="m -2447.9962,-3122.6845 0,10.3749 15.9674,0 0,9.2885 -15.9674,0 0,22.176 -9.3296,0 0,-50.9562 38.2181,0 0,9.1168 -28.8885,0 z"
       style="fill:#000000;fill-opacity:1;fill-rule:nonzero;stroke:none"
       id="path3594"
       inkscape:connector-curvature="0" />
    <path
       d="m -2552.6115,-3080.8451 0,-50.9562 9.1504,0 0,43.0863 29.0677,0 0,7.8699 -38.2181,0 z"
       style="fill:#000000;fill-opacity:1;fill-rule:nonzero;stroke:none"
       id="path3598"
       inkscape:connector-curvature="0" />
    <path
       d="m -2391.4624,-3122.8525 0,42.0074 -8.9264,0 0,-42.0074 -14.6421,0 0,-8.9488 38.2143,0 0,8.9488 -14.6458,0 z"
       style="fill:#000000;fill-opacity:1;fill-rule:nonzero;stroke:none"
       id="path3602"
       inkscape:connector-curvature="0" />
    <path
       d="m -2527.3033,-2989.554 0,-42.4592 31.0986,0 0,7.6048 -23.3258,0 0,7.8885 12.7082,0 0,7.7504 -12.7082,0 0,11.6181 24.0725,0 0,7.5974 -31.8453,0 z"
       style="fill:#ffffff;fill-opacity:1;fill-rule:nonzero;stroke:none"
       id="path3606"
       inkscape:connector-curvature="0" />
    <path
       d="m -2444.0595,-3032.0132 7.6422,0 0,42.4591 -7.6422,0 0,-42.4591 z"
       style="fill:#ffffff;fill-opacity:1;fill-rule:nonzero;stroke:none"
       id="path3608"
       inkscape:connector-curvature="0" />
    <path
       d="m -2409.5541,-3024.5689 0,35.0149 -7.4443,0 0,-35.0149 -12.2005,0 0,-7.4443 31.8453,0 0,7.4443 -12.2005,0 z"
       style="fill:#ffffff;fill-opacity:1;fill-rule:nonzero;stroke:none"
       id="path3612"
       inkscape:connector-curvature="0" />
    <path
       d="m -2461.5295,-2989.554 -9.5835,-15.0416 -9.4266,15.0416 -8.9749,0 13.9141,-22.3477 -12.7157,-20.1115 9.1242,0 8.0789,12.9621 8.0827,-12.9621 9.128,0 -12.5701,20.1115 13.9178,22.3477 -8.9749,0 z"
       style="fill:#ffffff;fill-opacity:1;fill-rule:nonzero;stroke:none"
       id="path3616"
       inkscape:connector-curvature="0" />
    <path
       d="m -2148.3295,-3026.8164 -8.9301,21.4666 17.8715,0 -8.9414,-21.4666 z m 20.1115,47.8426 -6.2571,-14.9781 -27.705,0 -6.2533,14.9781 -12.5179,0 26.8128,-63.6943 11.6218,0 26.585,63.6943 -12.2863,0 z"
       style="fill:#ffffff;fill-opacity:1;fill-rule:nonzero;stroke:none"
       id="path3620"
       inkscape:connector-curvature="0" />
    <path
       d="m -2275.0311,-2978.9738 c 0,-7.6048 1.5717,-13.1898 5.1631,-19.4469 5.615,-9.3856 13.6902,-15.1946 25.3643,-18.3232 7.1792,-2.0122 9.6544,-4.2522 9.6544,-8.0378 0,-4.7077 -4.495,-7.392 -12.5739,-7.392 -8.3029,0 -14.3621,2.0197 -19.753,6.9402 l -7.8549,-8.721 c 7.4069,-6.4811 16.6058,-9.8299 26.9396,-9.8299 15.0342,0 24.6848,7.3734 24.6848,19.0027 0,5.3536 -2.2475,10.2666 -6.5109,13.8469 -2.016,1.5605 -4.9317,3.1285 -9.4267,4.465 -8.5269,2.4715 -10.9984,3.5878 -14.8138,6.9254 -2.9195,2.464 -4.7115,4.913 -6.9589,9.1728 l 37.7103,0 0,11.3978 -51.6244,0 z"
       style="fill:#ffffff;fill-opacity:1;fill-rule:nonzero;stroke:none"
       id="path3624"
       inkscape:connector-curvature="0" />
    <path
       d="m -2310.8823,-2977.865 c -8.7472,0 -16.6096,-2.2325 -24.6847,-7.1531 l 6.0591,-9.6133 c 5.6112,3.3638 12.1184,5.1558 18.6256,5.1558 9.6507,0 15.4896,-4.256 15.4896,-11.4016 0,-3.3488 -1.5717,-6.7088 -4.0395,-8.7285 -2.2474,-1.7808 -5.6112,-2.6843 -10.3264,-2.6843 -4.2671,0 -7.6309,0.6869 -12.3423,2.4789 l -11.4501,-2.9157 2.0234,-29.9413 42.6458,0 -0.2277,11.1701 -31.6437,0 -0.6757,9.1616 c 5.1594,-1.1088 8.3029,-1.5605 12.3423,-1.5605 14.5899,0 25.1403,9.8261 25.1403,23.0197 0,13.4138 -11.2224,23.0122 -26.936,23.0122"
       style="fill:#ffffff;fill-opacity:1;fill-rule:nonzero;stroke:none"
       id="path3628"
       inkscape:connector-curvature="0" />
  </g>
</svg>
