<?xml version="1.0" encoding="UTF-8" standalone="no"?>
<!-- Created with Inkscape (http://www.inkscape.org/) -->

<svg
   xmlns:dc="http://purl.org/dc/elements/1.1/"
   xmlns:cc="http://creativecommons.org/ns#"
   xmlns:rdf="http://www.w3.org/1999/02/22-rdf-syntax-ns#"
   xmlns:svg="http://www.w3.org/2000/svg"
   xmlns="http://www.w3.org/2000/svg"
   xmlns:sodipodi="http://sodipodi.sourceforge.net/DTD/sodipodi-0.dtd"
   xmlns:inkscape="http://www.inkscape.org/namespaces/inkscape"
   width="717.71875"
   height="131.75"
   id="svg4779"
   version="1.1"
   inkscape:version="0.48.2 r9819"
   sodipodi:docname="AJAX1.svg">
  <defs
     id="defs4781" />
  <sodipodi:namedview
     id="base"
     pagecolor="#ffffff"
     bordercolor="#666666"
     borderopacity="1.0"
     inkscape:pageopacity="0.0"
     inkscape:pageshadow="2"
     inkscape:zoom="0.9899495"
     inkscape:cx="394.40855"
     inkscape:cy="2.7224598"
     inkscape:document-units="px"
     inkscape:current-layer="layer1"
     showgrid="false"
     inkscape:window-width="1280"
     inkscape:window-height="1004"
     inkscape:window-x="-8"
     inkscape:window-y="-8"
     inkscape:window-maximized="1"
     fit-margin-top="0"
     fit-margin-left="0"
     fit-margin-right="0"
     fit-margin-bottom="0" />
  <metadata
     id="metadata4784">
    <rdf:RDF>
      <cc:Work
         rdf:about="">
        <dc:format>image/svg+xml</dc:format>
        <dc:type
           rdf:resource="http://purl.org/dc/dcmitype/StillImage" />
        <dc:title></dc:title>
      </cc:Work>
    </rdf:RDF>
  </metadata>
  <g
     inkscape:label="Layer 1"
     inkscape:groupmode="layer"
     id="layer1"
     transform="translate(2100.5,2523.5)">
    <path
       d="m -2085.5911,-2392.9904 c -7.5376,0 -13.6678,-6.1302 -13.6678,-13.664 l 0,-101.9012 c 0,-7.545 6.1302,-13.6789 13.6678,-13.6789 l 687.8767,0 c 7.5414,0 13.6715,6.1339 13.6715,13.6789 l 0,101.9012 c 0,7.5338 -6.1301,13.664 -13.6715,13.664 l -687.8767,0 z"
       style="fill:#ffffff;fill-opacity:1;fill-rule:nonzero;stroke:#000000;stroke-width:2.5;stroke-miterlimit:4;stroke-opacity:1;stroke-dasharray:none"
       id="path3644"
       inkscape:connector-curvature="0" />
    <path
       d="m -2089.8353,-2406.6544 0,-101.9011 c 0,-2.3483 1.904,-4.2523 4.2448,-4.2523 l 687.8768,0 c 2.3408,0 4.2448,1.904 4.2448,4.2523 l 0,101.9011 c 0,2.3408 -1.904,4.2411 -4.2448,4.2411 l -687.8768,0 c -2.3408,0 -4.2448,-1.9003 -4.2448,-4.2411"
       style="fill:#00674c;fill-opacity:1;fill-rule:nonzero;stroke:none"
       id="path3652"
       inkscape:connector-curvature="0" />
    <path
       d="m -2019.1063,-2436.3605 0,-42.4516 31.0949,0 0,7.5749 -23.3221,0 0,7.9035 12.7083,0 0,7.7429 -12.7083,0 0,11.6293 24.0688,0 0,7.601 -31.8416,0 z"
       style="fill:#ffffff;fill-opacity:1;fill-rule:nonzero;stroke:none"
       id="path3656"
       inkscape:connector-curvature="0" />
    <path
       d="m -1935.8613,-2478.8121 7.6459,0 0,42.4516 -7.6459,0 0,-42.4516 z"
       style="fill:#ffffff;fill-opacity:1;fill-rule:nonzero;stroke:none"
       id="path3658"
       inkscape:connector-curvature="0" />
    <path
       d="m -1868.6502,-2455.4154 c -1.8928,-0.5264 -6.6453,-1.6613 -8.2469,-2.6096 -3.1957,-1.8666 -5.641,-4.9279 -5.641,-9.4789 0,-7.0074 5.9882,-11.7637 14.6645,-11.7637 6.2869,0 11.521,2.0795 15.8592,6.5408 l -5.6822,5.0773 c -2.6954,-2.8373 -6.1376,-4.1701 -10.177,-4.1701 -4.3419,0 -6.8805,1.6315 -6.8805,4.3157 0,2.3782 1.497,3.4272 6.7274,4.6144 5.6859,1.1947 9.4304,2.3931 11.8235,3.5803 3.7408,1.9413 6.1375,5.9509 6.1375,10.5802 0,4.3232 -1.9487,7.5974 -5.9845,9.9755 -2.9978,1.7882 -6.8842,2.8373 -10.7744,2.8373 -7.3359,0 -12.8687,-2.6842 -17.6586,-8.1909 l 6.1339,-4.7749 c 3.1434,3.7258 6.5855,5.361 11.3717,5.361 5.3909,0 9.281,-2.3781 9.281,-5.5066 0,-3.9872 -4.3344,-4.5734 -10.9536,-6.3878"
       style="fill:#ffffff;fill-opacity:1;fill-rule:nonzero;stroke:none"
       id="path3662"
       inkscape:connector-curvature="0" />
    <path
       d="m -1901.3567,-2471.3828 0,35.0223 -7.4405,0 0,-35.0223 -12.2042,0 0,-7.4293 31.8453,0 0,7.4293 -12.2006,0 z"
       style="fill:#ffffff;fill-opacity:1;fill-rule:nonzero;stroke:none"
       id="path3666"
       inkscape:connector-curvature="0" />
    <path
       d="m -1953.3317,-2436.3605 -9.5797,-15.0527 -9.4266,15.0527 -8.9787,0 13.9179,-22.3589 -12.7195,-20.0927 9.128,0 8.0789,12.9472 8.0827,-12.9472 9.1242,0 -12.5663,20.0927 13.9141,22.3589 -8.975,0 z"
       style="fill:#ffffff;fill-opacity:1;fill-rule:nonzero;stroke:none"
       id="path3670"
       inkscape:connector-curvature="0" />
    <path
       d="m -1601.2002,-2473.5705 -8.9338,21.4442 17.8752,0 -8.9414,-21.4442 z m 20.1077,47.8164 -6.257,-14.9743 -27.7013,0 -6.2571,14.9743 -12.5103,0 26.809,-63.6905 11.6181,0 26.5888,63.6905 -12.2902,0 z"
       style="fill:#ffffff;fill-opacity:1;fill-rule:nonzero;stroke:none"
       id="path3674"
       inkscape:connector-curvature="0" />
    <path
       d="m -1485.9673,-2453.9071 -18.1813,0 0,16.7515 18.1813,0 c 6.0592,0 10.3264,-3.3414 10.3264,-8.0379 0,-4.9131 -4.4912,-8.7136 -10.3264,-8.7136 m 0,-24.1322 -18.1813,0 0,12.7306 18.1813,0 c 4.9392,0 8.3067,-2.6842 8.3067,-6.4773 0,-3.8043 -3.1472,-6.2533 -8.3067,-6.2533 m 12.1184,49.6047 c -3.1434,1.7995 -6.5109,2.6805 -9.8784,2.6805 l -3.1397,0 -28.9519,0 0,-63.6905 29.8516,0 c 5.6075,0 7.6272,0.4517 10.9984,2.2362 5.3872,3.1286 8.7472,8.4896 8.7472,14.5264 0,5.1333 -2.0197,9.6096 -6.2832,13.1899 5.6149,4.017 8.3029,8.9338 8.3029,14.9706 0,6.4811 -3.8117,12.9584 -9.6469,16.0869"
       style="fill:#ffffff;fill-opacity:1;fill-rule:nonzero;stroke:none"
       id="path3678"
       inkscape:connector-curvature="0" />
    <path
       d="m -1762.1809,-2424.6303 c -7.8549,0 -15.7135,-2.6843 -21.321,-7.8214 -1.5717,-1.344 -2.6955,-2.4677 -4.9392,-5.1407 l 9.2027,-6.9291 c 4.4912,5.8203 10.3226,8.2618 17.7295,8.2618 7.8512,0 13.2422,-3.5653 13.2422,-8.9338 0,-3.1248 -2.016,-6.7051 -4.9392,-8.2656 -1.7958,-0.8923 -3.8118,-1.344 -6.2832,-1.344 l -3.1398,0 0,-11.3978 2.6955,0 c 4.9317,0 8.5269,-2.6806 8.5269,-6.2608 0,-3.7931 -4.4912,-6.7014 -11.2224,-6.7014 -5.3871,0 -10.3301,2.2288 -14.1381,6.2646 l -8.5306,-7.8251 c 6.2832,-6.4848 14.1381,-9.8448 23.3407,-9.8448 12.7942,0 22.2208,7.6123 22.2208,17.8864 0,4.2448 -1.3515,7.1456 -5.1632,12.0699 6.2869,5.5925 8.0789,8.9375 8.0789,14.9669 0,11.8495 -10.9946,21.0149 -25.3605,21.0149"
       style="fill:#ffffff;fill-opacity:1;fill-rule:nonzero;stroke:none"
       id="path3682"
       inkscape:connector-curvature="0" />
    <path
       d="m -1701.6416,-2424.6303 c -7.8586,0 -15.7135,-2.6843 -21.3247,-7.8214 -1.5718,-1.344 -2.6918,-2.4677 -4.9355,-5.1407 l 9.2064,-6.9291 c 4.4875,5.8203 10.3227,8.2618 17.7258,8.2618 7.855,0 13.2459,-3.5653 13.2459,-8.9338 0,-3.1248 -2.0272,-6.7051 -4.9429,-8.2656 -1.7958,-0.8923 -3.8118,-1.344 -6.2795,-1.344 l -3.1435,0 0,-11.3978 2.688,0 c 4.9392,0 8.5382,-2.6806 8.5382,-6.2608 0,-3.7931 -4.495,-6.7014 -11.2262,-6.7014 -5.3909,0 -10.3263,2.2288 -14.1418,6.2646 l -8.5269,-7.8251 c 6.2832,-6.4848 14.1418,-9.8448 23.3407,-9.8448 12.7942,0 22.2245,7.6123 22.2245,17.8864 0,4.2448 -1.3514,7.1456 -5.1669,12.0699 6.2832,5.5925 8.0827,8.9375 8.0827,14.9669 0,11.8495 -10.9984,21.0149 -25.3643,21.0149"
       style="fill:#ffffff;fill-opacity:1;fill-rule:nonzero;stroke:none"
       id="path3686"
       inkscape:connector-curvature="0" />
    <path
       d="m -1564.7237,-2462.8522 31.849,0 0,11.4053 -31.849,0 0,-11.4053 z"
       style="fill:#ffffff;fill-opacity:1;fill-rule:nonzero;stroke:none"
       id="path3688"
       inkscape:connector-curvature="0" />
  </g>
</svg>
