<?xml version="1.0" encoding="UTF-8" standalone="no"?>
<!-- Created with Inkscape (http://www.inkscape.org/) -->

<svg
   xmlns:dc="http://purl.org/dc/elements/1.1/"
   xmlns:cc="http://creativecommons.org/ns#"
   xmlns:rdf="http://www.w3.org/1999/02/22-rdf-syntax-ns#"
   xmlns:svg="http://www.w3.org/2000/svg"
   xmlns="http://www.w3.org/2000/svg"
   xmlns:sodipodi="http://sodipodi.sourceforge.net/DTD/sodipodi-0.dtd"
   xmlns:inkscape="http://www.inkscape.org/namespaces/inkscape"
   width="6480"
   height="2700"
   id="svg2934"
   version="1.1"
   inkscape:version="0.48.2 r9819"
   sodipodi:docname="AJAX1.svg">
  <defs
     id="defs2936">
    <inkscape:perspective
       sodipodi:type="inkscape:persp3d"
       inkscape:vp_x="0 : 526.18109 : 1"
       inkscape:vp_y="0 : 1000 : 0"
       inkscape:vp_z="744.09448 : 526.18109 : 1"
       inkscape:persp3d-origin="372.04724 : 350.78739 : 1"
       id="perspective2942" />
    <inkscape:perspective
       id="perspective2924"
       inkscape:persp3d-origin="0.5 : 0.33333333 : 1"
       inkscape:vp_z="1 : 0.5 : 1"
       inkscape:vp_y="0 : 1000 : 0"
       inkscape:vp_x="0 : 0.5 : 1"
       sodipodi:type="inkscape:persp3d" />
  </defs>
  <sodipodi:namedview
     id="base"
     pagecolor="#ffffff"
     bordercolor="#666666"
     borderopacity="1.0"
     inkscape:pageopacity="0.0"
     inkscape:pageshadow="2"
     inkscape:zoom="0.061434257"
     inkscape:cx="3402.9899"
     inkscape:cy="-624.05857"
     inkscape:document-units="px"
     inkscape:current-layer="g2909"
     showgrid="false"
     inkscape:window-width="1280"
     inkscape:window-height="1004"
     inkscape:window-x="-8"
     inkscape:window-y="-8"
     inkscape:window-maximized="1"
     fit-margin-top="0"
     fit-margin-left="0"
     fit-margin-right="0"
     fit-margin-bottom="0" />
  <metadata
     id="metadata2939">
    <rdf:RDF>
      <cc:Work
         rdf:about="">
        <dc:format>image/svg+xml</dc:format>
        <dc:type
           rdf:resource="http://purl.org/dc/dcmitype/StillImage" />
        <dc:title></dc:title>
      </cc:Work>
    </rdf:RDF>
  </metadata>
  <g
     inkscape:label="Ebene 1"
     inkscape:groupmode="layer"
     id="layer1"
     transform="translate(-63.516846,2128.7183)">
    <g
       id="g3018"
       transform="translate(2,-2)">
      <g
         id="g2909"
         transform="matrix(0.80835983,0,0,0.80835983,-165.10178,-177.02766)">
        <path
           inkscape:connector-curvature="0"
           style="fill:#ffd033;fill-rule:nonzero;stroke:none"
           d="m 8296.5758,594.17769 c 0,184.46303 -149.5466,334.00967 -334.0096,334.00967 l -7348.21278,0 c -184.46905,0 -334.00967,-149.54664 -334.00967,-334.00967 l 0,-2672.07739 c 0,-184.469 149.54062,-334.0096 334.00967,-334.0096 l 7348.21278,0 c 184.463,0 334.0096,149.5406 334.0096,334.0096 l 0,2672.07739 z"
           id="path11" />
        <path
           inkscape:connector-curvature="0"
           style="fill:#000000;fill-rule:nonzero;stroke:none"
           d="m 614.35342,844.68494 c -138.13001,0 -250.50725,-112.3726 -250.50725,-250.50725 l 0,-2672.07739 c 0,-138.13 112.37724,-250.5072 250.50725,-250.5072 l 7348.21268,0 c 138.1347,0 250.5073,112.3772 250.5073,250.5072 l 0,2672.07739 c 0,138.13465 -112.3726,250.50725 -250.5073,250.50725 l -7348.21268,0 z"
           id="path13" />
        <path
           inkscape:connector-curvature="0"
           style="fill:#ffd033;fill-rule:nonzero;stroke:none"
           d="m 614.35342,705.51425 c -61.39129,0 -111.33656,-49.94682 -111.33656,-111.33656 l 0,-2672.07739 c 0,-61.3913 49.94527,-111.3365 111.33656,-111.3365 l 7348.21268,0 c 61.3898,0 111.3366,49.9452 111.3366,111.3365 l 0,2672.07739 c 0,61.38974 -49.9468,111.33656 -111.3366,111.33656 l -7348.21268,0 z"
           id="path15" />
        <path
           inkscape:connector-curvature="0"
           style="fill:#000000;fill-rule:nonzero;stroke:none"
           d="m 3194.5781,-73.841679 0,-1336.038721 978.5091,0 0,239.0814 -733.878,0 0,248.45682 399.8684,0 0,243.7729 -399.8684,0 0,365.6478 757.3979,0 0,239.079801 -1002.029,0 z"
           id="path17" />
        <path
           inkscape:connector-curvature="0"
           style="fill:#000000;fill-rule:nonzero;stroke:none"
           d="m 4775.2479,-1170.799 0,271.89622 418.6873,0 0,243.7606 -418.6873,0 0,581.300501 -244.6311,0 0,-1336.038721 1002.029,0 0,239.0814 -757.3979,0 z"
           id="path19" />
        <path
           inkscape:connector-curvature="0"
           style="fill:#000000;fill-rule:nonzero;stroke:none"
           d="m 1908.6409,-73.841679 0,-1336.041721 239.9148,0 0,1129.77532 762.1142,0 0,206.266401 -1002.029,0 z"
           id="path21" />
        <path
           inkscape:connector-curvature="0"
           style="fill:#000000;fill-rule:nonzero;stroke:none"
           d="m 6284.3222,-1175.4891 0,1101.647421 -234.1315,0 0,-1101.647421 -383.9411,0 0,-234.3882 1002.029,0 0,234.3882 -383.9564,0 z"
           id="path23" />
      </g>
    </g>
  </g>
</svg>
