<?xml version="1.0" encoding="UTF-8" standalone="no"?>
<svg
   xmlns:dc="http://purl.org/dc/elements/1.1/"
   xmlns:cc="http://creativecommons.org/ns#"
   xmlns:rdf="http://www.w3.org/1999/02/22-rdf-syntax-ns#"
   xmlns:svg="http://www.w3.org/2000/svg"
   xmlns="http://www.w3.org/2000/svg"
   xmlns:sodipodi="http://sodipodi.sourceforge.net/DTD/sodipodi-0.dtd"
   xmlns:inkscape="http://www.inkscape.org/namespaces/inkscape"
   width="165.97072"
   height="44.723179"
   viewBox="0 0 468.40625 126.21874"
   version="1.1"
   id="svg2"
   inkscape:version="0.48.2 r9819"
   sodipodi:docname="MUTCD D9-17P.svg">
  <metadata
     id="metadata62">
    <rdf:RDF>
      <cc:Work
         rdf:about="">
        <dc:format>image/svg+xml</dc:format>
        <dc:type
           rdf:resource="http://purl.org/dc/dcmitype/StillImage" />
        <dc:title></dc:title>
      </cc:Work>
    </rdf:RDF>
  </metadata>
  <defs
     id="defs60">
    <clipPath
       clipPathUnits="userSpaceOnUse"
       id="clipPath3564">
      <path
         inkscape:connector-curvature="0"
         d="m 63,43 512.622,0 0,313.129 L 63,356.129 63,43 z"
         id="path3566" />
    </clipPath>
  </defs>
  <sodipodi:namedview
     pagecolor="#ffffff"
     bordercolor="#666666"
     borderopacity="1"
     objecttolerance="10"
     gridtolerance="10"
     guidetolerance="10"
     inkscape:pageopacity="0"
     inkscape:pageshadow="2"
     inkscape:window-width="1280"
     inkscape:window-height="1004"
     id="namedview58"
     showgrid="false"
     fit-margin-top="0"
     fit-margin-left="0"
     fit-margin-right="0"
     fit-margin-bottom="0"
     inkscape:zoom="3.8704159"
     inkscape:cx="77.984851"
     inkscape:cy="22.493516"
     inkscape:window-x="-8"
     inkscape:window-y="-8"
     inkscape:window-maximized="1"
     inkscape:current-layer="svg2"
     showguides="true"
     inkscape:guide-bbox="true" />
  <polygon
     points="235,375 315,205 395,375 315,545 "
     id="polygon10"
     style="fill:none;stroke:#ffffff;stroke-width:40"
     transform="translate(27239.865,6808.6476)" />
  <!-- draw the bicycle -->
  <!-- RIGHT -->
  <!-- LANE -->
  <!-- ONLY -->
  <path
     inkscape:connector-curvature="0"
     d="m 14.21666,125.1001 c -7.22489,0 -13.10216,-5.8808 -13.10216,-13.1057 l 0,-97.768804 c 0,-7.2248998 5.87727,-13.1021998 13.10216,-13.1021998 l 439.9527,0 c 7.22842,0 13.10569,5.8773 13.10569,13.1021998 l 0,97.768804 c 0,7.2249 -5.87727,13.1057 -13.10569,13.1057 l -439.9527,0 z"
     style="fill:#ffffff;fill-opacity:1;fill-rule:nonzero;stroke:#000000;stroke-width:2.25777778;stroke-miterlimit:4;stroke-opacity:1;stroke-dasharray:none"
     id="path4758" />
  <path
     inkscape:connector-curvature="0"
     d="m 14.21666,116.0704 c -1.44991,0 -2.42005,-0.7549 -2.86808,-1.2029 -0.44803,-0.4551 -1.20297,-1.4253 -1.20297,-2.8716 l 0,-97.768904 c 0,-1.4499 0.75494,-2.4236 1.20297,-2.8716 0.44803,-0.4515 1.41817,-1.203 2.86808,-1.203 l 439.9527,0 c 1.44992,0 2.42358,0.7515 2.87161,1.203 0.45508,0.448 1.2065,1.4217 1.2065,2.8716 l 0,97.768904 c 0,1.4463 -0.75142,2.4165 -1.2065,2.8716 -0.44803,0.448 -1.42169,1.2029 -2.87161,1.2029 l -439.9527,0 z"
     style="fill:#155196;fill-opacity:1;fill-rule:nonzero;stroke:none"
     id="path4766" />
  <path
     inkscape:connector-curvature="0"
     d="m 116.33913,83.479796 0,-40.7388 29.83442,0 0,7.2919 -22.37317,0 0,7.5741 12.18847,0 0,7.4331 -12.18847,0 0,11.1513 23.09283,0 0,7.2884 -30.55408,0 z"
     style="fill:#ffffff;fill-opacity:1;fill-rule:nonzero;stroke:none"
     id="path4770" />
  <path
     inkscape:connector-curvature="0"
     d="m 196.2052,42.739896 7.33072,0 0,40.7388 -7.33072,0 0,-40.7388 z"
     style="fill:#ffffff;fill-opacity:1;fill-rule:nonzero;stroke:none"
     id="path4772" />
  <path
     inkscape:connector-curvature="0"
     d="m 229.30738,49.886496 0,33.595 -7.14022,0 0,-33.595 -11.70517,0 0,-7.1437 30.55056,0 0,7.1437 -11.70517,0 z"
     style="fill:#ffffff;fill-opacity:1;fill-rule:nonzero;stroke:none"
     id="path4776" />
  <path
     inkscape:connector-curvature="0"
     d="m 179.44295,83.479796 -9.18987,-14.4392 -9.04522,14.4392 -8.61483,0 13.35264,-21.4419 -12.19906,-19.2969 8.75595,0 7.75052,12.4389 7.75053,-12.4389 8.75947,0 -12.05794,19.2969 13.34911,21.4419 -8.6113,0 z"
     style="fill:#ffffff;fill-opacity:1;fill-rule:nonzero;stroke:none"
     id="path4780" />
  <path
     inkscape:connector-curvature="0"
     d="m 345.40512,50.781896 c -4.07458,5.5774 -7.93397,13.723 -10.29053,20.7997 -2.36008,7.2884 -3.21733,12.8623 -3.43253,22.0769 l -10.93258,0 c 0.21167,-9.2146 0.85372,-14.3581 2.78695,-21.8652 2.14136,-7.7152 5.1435,-14.792 8.79122,-20.7962 1.07244,-1.9297 2.36008,-3.8594 4.9283,-7.7224 l -34.5193,0 -0.20828,-10.7173 49.51941,0 0,10.9361 c -4.07105,3.8558 -5.1435,4.9318 -6.6428,7.2884"
     style="fill:#ffffff;fill-opacity:1;fill-rule:nonzero;stroke:none"
     id="path4784" />
</svg>
