<?xml version="1.0" encoding="UTF-8" standalone="no"?>
<!-- Created with Inkscape (http://www.inkscape.org/) -->

<svg
   xmlns:dc="http://purl.org/dc/elements/1.1/"
   xmlns:cc="http://creativecommons.org/ns#"
   xmlns:rdf="http://www.w3.org/1999/02/22-rdf-syntax-ns#"
   xmlns:svg="http://www.w3.org/2000/svg"
   xmlns="http://www.w3.org/2000/svg"
   xmlns:sodipodi="http://sodipodi.sourceforge.net/DTD/sodipodi-0.dtd"
   xmlns:inkscape="http://www.inkscape.org/namespaces/inkscape"
   width="9990"
   height="1620"
   id="svg2934"
   version="1.1"
   inkscape:version="0.48.2 r9819"
   sodipodi:docname="MUTCD E11-1d.svg">
  <defs
     id="defs2936">
    <inkscape:perspective
       sodipodi:type="inkscape:persp3d"
       inkscape:vp_x="0 : 526.18109 : 1"
       inkscape:vp_y="0 : 1000 : 0"
       inkscape:vp_z="744.09448 : 526.18109 : 1"
       inkscape:persp3d-origin="372.04724 : 350.78739 : 1"
       id="perspective2942" />
    <inkscape:perspective
       id="perspective2924"
       inkscape:persp3d-origin="0.5 : 0.33333333 : 1"
       inkscape:vp_z="1 : 0.5 : 1"
       inkscape:vp_y="0 : 1000 : 0"
       inkscape:vp_x="0 : 0.5 : 1"
       sodipodi:type="inkscape:persp3d" />
  </defs>
  <sodipodi:namedview
     id="base"
     pagecolor="#ffffff"
     bordercolor="#666666"
     borderopacity="1.0"
     inkscape:pageopacity="0.0"
     inkscape:pageshadow="2"
     inkscape:zoom="0.061434257"
     inkscape:cx="5752.7961"
     inkscape:cy="-625.93391"
     inkscape:document-units="px"
     inkscape:current-layer="g3018"
     showgrid="false"
     inkscape:window-width="1280"
     inkscape:window-height="1004"
     inkscape:window-x="-8"
     inkscape:window-y="-8"
     inkscape:window-maximized="1"
     fit-margin-top="0"
     fit-margin-left="0"
     fit-margin-right="0"
     fit-margin-bottom="0" />
  <metadata
     id="metadata2939">
    <rdf:RDF>
      <cc:Work
         rdf:about="">
        <dc:format>image/svg+xml</dc:format>
        <dc:type
           rdf:resource="http://purl.org/dc/dcmitype/StillImage" />
        <dc:title></dc:title>
      </cc:Work>
    </rdf:RDF>
  </metadata>
  <g
     inkscape:label="Ebene 1"
     inkscape:groupmode="layer"
     id="layer1"
     transform="translate(-65.391865,1050.5933)">
    <g
       id="g3018"
       transform="translate(2,-2)">
      <path
         inkscape:connector-curvature="0"
         style="fill:#ffd033;fill-rule:nonzero;stroke:none"
         d="m 63.391865,31.406721 c 0,298.237499 241.766255,539.999999 540.000005,539.999999 l 8910.00003,0 c 298.2375,0 540.0001,-241.7625 540.0001,-539.999999 l 0,-1080.000021 -9990.000135,0 0,1080.000021 z"
         id="path11" />
      <path
         inkscape:connector-curvature="0"
         style="fill:#000000;fill-rule:nonzero;stroke:none"
         d="m 9963.3919,-1048.5933 0,1080.000021 c 0,248.137499 -201.875,449.999999 -450,449.999999 l -8910.00003,0 c -248.13125,0 -450,-201.8625 -450,-449.999999 l 0,-1080.000021 -67.500005,0 0,1080.000021 c 0,285.349999 232.150005,517.499999 517.500005,517.499999 l 8910.00003,0 c 285.35,0 517.5001,-232.15 517.5001,-517.499999 l 0,-1080.000021 -67.5001,0 z"
         id="path13" />
      <path
         inkscape:connector-curvature="0"
         style="fill:#000000;fill-rule:nonzero;stroke:none"
         d="m 6517.2669,-13.588279 0,-540.005001 105.625,0 0,438.0475 294.25,0 0,101.957501 -399.875,0 z"
         id="path15" />
      <path
         inkscape:connector-curvature="0"
         style="fill:#000000;fill-rule:nonzero;stroke:none"
         d="m 6272.8169,-13.588279 -237.8625,-345.528701 0,345.528701 -106.5625,0 0,-540.005001 106.5625,0 224.55,330.4225 0,-330.4225 106.5625,0 0,540.005001 -93.25,0 z"
         id="path17" />
      <path
         inkscape:connector-curvature="0"
         style="fill:#000000;fill-rule:nonzero;stroke:none"
         d="m 5572.8044,-453.52198 c -77.8625,0 -119.6375,56.6437 -119.6375,169.9325 0,109.5112 43.675,171.8187 119.6375,171.8187 74.0625,0 119.6375,-67.9725 119.6375,-173.7087 0,-117.0625 -43.675,-168.0425 -119.6375,-168.0425 z m 0,449.3750009 c -163.3125,0 -227.8875,-137.8325009 -227.8875,-279.4425009 0,-169.9325 87.3625,-277.5563 227.8875,-277.5563 131.0375,0 225.9875,111.3988 225.9875,277.5563 0,171.8187 -89.25,279.4425009 -225.9875,279.4425009 z"
         id="path19" />
      <path
         inkscape:connector-curvature="0"
         style="fill:#000000;fill-rule:nonzero;stroke:none"
         d="m 7278.1544,-232.61198 0,219.023701 -107.65,0 0,-219.023701 -220.975,-320.9813 128.4375,0 149.1875,207.695 139.7625,-207.695 128.425,0 -217.1875,320.9813 z"
         id="path21" />
      <path
         inkscape:connector-curvature="0"
         style="fill:#000000;fill-rule:nonzero;stroke:none"
         d="m 2891.4419,-13.585779 0,-540.006201 392.325,0 0,107.6237 -286.7,0 0,88.7413 162.2125,0 0,107.6225 -162.2125,0 0,128.3937 294.25,0 0,107.625001 -399.875,0 z"
         id="path23" />
      <path
         inkscape:connector-curvature="0"
         style="fill:#000000;fill-rule:nonzero;stroke:none"
         d="m 4025.9794,-13.585779 0,-540.006201 108,0 0,540.006201 -108,0 z"
         id="path25" />
      <path
         inkscape:connector-curvature="0"
         style="fill:#000000;fill-rule:nonzero;stroke:none"
         d="m 4522.8044,-445.96948 0,432.383701 -103.7375,0 0,-432.383701 -149.0125,0 0,-107.6225 399.875,0 0,107.6225 -147.125,0 z"
         id="path27" />
      <path
         inkscape:connector-curvature="0"
         style="fill:#000000;fill-rule:nonzero;stroke:none"
         d="m 3740.7294,-13.585779 -107.6,-181.260001 -111.3875,181.260001 -124.6,0 169.9125,-285.110001 -154.8,-254.8962 126.475,0 94.4,152.9387 90.6125,-152.9387 128.375,0 -152.9125,256.7862 168.0125,283.220001 -126.4875,0 z"
         id="path29" />
      <path
         inkscape:connector-curvature="0"
         style="fill:#000000;fill-rule:nonzero;stroke:none"
         d="m 1925.5044,-60.463279 154.3125,-796.023701 c 4.1,-15.0638 0.25,-31.8388 -11.5875,-43.6688 -11.825,-11.83 -28.6,-15.6837 -43.6625,-11.5875 l -796.0275,154.32 c -8.58,1.6213 -16.78,5.7488 -23.42,12.39 -17.5737,17.5725 -17.5737,46.0663 0,63.6388 2.8137,2.8125 5.9062,5.1687 9.1887,7.08 l 283.1588,173.8937 -676.17503,620.4875 226.71753,226.7188 620.4825,-676.1738 173.9,283.158801 c 1.9125,3.2812 4.2625,6.3737 7.075,9.1862 17.575,17.5738 46.075,17.5738 63.6375,0 6.65,-6.64 10.775,-14.84 12.4,-23.42 z"
         id="path31" />
      <path
         inkscape:connector-curvature="0"
         style="fill:#000000;fill-rule:nonzero;stroke:none"
         d="m 9139.4419,-60.463279 154.3125,-796.023701 c 4.1,-15.0638 0.25,-31.8388 -11.5875,-43.6688 -11.825,-11.83 -28.6,-15.6837 -43.6625,-11.5875 l -796.025,154.32 c -8.5875,1.6213 -16.775,5.7488 -23.425,12.39 -17.575,17.5725 -17.575,46.0663 0,63.6388 2.8125,2.8125 5.9125,5.1687 9.1875,7.08 l 283.1625,173.8937 -676.175,620.4875 226.7125,226.7188 620.4875,-676.1738 173.9,283.158801 c 1.9125,3.2812 4.2625,6.3737 7.075,9.1862 17.575,17.5738 46.075,17.5738 63.65,0 6.6375,-6.64 10.7625,-14.84 12.3875,-23.42 z"
         id="path33" />
    </g>
  </g>
</svg>
