<?xml version="1.0" encoding="UTF-8" standalone="no"?>
<!-- Created with Inkscape (http://www.inkscape.org/) -->

<svg
   xmlns:dc="http://purl.org/dc/elements/1.1/"
   xmlns:cc="http://creativecommons.org/ns#"
   xmlns:rdf="http://www.w3.org/1999/02/22-rdf-syntax-ns#"
   xmlns:svg="http://www.w3.org/2000/svg"
   xmlns="http://www.w3.org/2000/svg"
   xmlns:sodipodi="http://sodipodi.sourceforge.net/DTD/sodipodi-0.dtd"
   xmlns:inkscape="http://www.inkscape.org/namespaces/inkscape"
   width="15660"
   height="3240"
   id="svg2934"
   version="1.1"
   inkscape:version="0.48.2 r9819"
   sodipodi:docname="MUTCD E11-1c.svg">
  <defs
     id="defs2936">
    <inkscape:perspective
       sodipodi:type="inkscape:persp3d"
       inkscape:vp_x="0 : 526.18109 : 1"
       inkscape:vp_y="0 : 1000 : 0"
       inkscape:vp_z="744.09448 : 526.18109 : 1"
       inkscape:persp3d-origin="372.04724 : 350.78739 : 1"
       id="perspective2942" />
    <inkscape:perspective
       id="perspective2924"
       inkscape:persp3d-origin="0.5 : 0.33333333 : 1"
       inkscape:vp_z="1 : 0.5 : 1"
       inkscape:vp_y="0 : 1000 : 0"
       inkscape:vp_x="0 : 0.5 : 1"
       sodipodi:type="inkscape:persp3d" />
  </defs>
  <sodipodi:namedview
     id="base"
     pagecolor="#ffffff"
     bordercolor="#666666"
     borderopacity="1.0"
     inkscape:pageopacity="0.0"
     inkscape:pageshadow="2"
     inkscape:zoom="0.061434257"
     inkscape:cx="8996.5308"
     inkscape:cy="-625.62147"
     inkscape:document-units="px"
     inkscape:current-layer="g2909"
     showgrid="false"
     inkscape:window-width="1280"
     inkscape:window-height="1004"
     inkscape:window-x="-8"
     inkscape:window-y="-8"
     inkscape:window-maximized="1"
     fit-margin-top="0"
     fit-margin-left="0"
     fit-margin-right="0"
     fit-margin-bottom="0" />
  <metadata
     id="metadata2939">
    <rdf:RDF>
      <cc:Work
         rdf:about="">
        <dc:format>image/svg+xml</dc:format>
        <dc:type
           rdf:resource="http://purl.org/dc/dcmitype/StillImage" />
        <dc:title></dc:title>
      </cc:Work>
    </rdf:RDF>
  </metadata>
  <g
     inkscape:label="Ebene 1"
     inkscape:groupmode="layer"
     id="layer1"
     transform="translate(-65.079365,2670.2808)">
    <g
       id="g3018"
       transform="translate(2,-2)">
      <g
         id="g2909"
         transform="matrix(0.80835983,0,0,0.80835983,-165.10178,-177.02766)">
        <path
           inkscape:connector-curvature="0"
           style="fill:#ffd033;fill-rule:nonzero;stroke:none"
           d="m 282.2767,-409.7843 c 0,737.8676 598.16492,1336.0387 1336.0387,1336.0387 l 16700.4836,0 c 737.76,0 1336.039,-598.1711 1336.039,-1336.0387 l 0,-2672.0773 -19372.5613,0 0,2672.0773 z"
           id="path11" />
        <path
           inkscape:connector-curvature="0"
           style="fill:#000000;fill-rule:nonzero;stroke:none"
           d="m 19432.165,-3081.8616 0,2672.0774 c 0,613.9128 -499.469,1113.3655 -1113.366,1113.3655 l -16700.4836,0 c -613.9129,0 -1113.3656,-499.4527 -1113.3656,-1113.3655 l 0,-2672.0774 -167.00483,0 0,2672.0774 c 0,705.9974 574.37292,1280.3704 1280.37043,1280.3704 l 16700.4836,0 c 705.905,0 1280.37,-574.373 1280.37,-1280.3704 l 0,-2672.0774 -167.004,0 z"
           id="path13" />
        <path
           inkscape:connector-curvature="0"
           style="fill:#000000;fill-rule:nonzero;stroke:none"
           d="m 2450.7727,-521.1053 0,-1336.0511 970.6692,0 0,266.2768 -709.3376,0 0,219.565 401.3374,0 0,266.2645 -401.3374,0 0,317.6648 728.0019,0 0,266.28 -989.3335,0 z"
           id="path15" />
        <path
           inkscape:connector-curvature="0"
           style="fill:#000000;fill-rule:nonzero;stroke:none"
           d="m 5257.7837,-521.1053 0,-1336.0511 267.2078,0 0,1336.0511 -267.2078,0 z"
           id="path17" />
        <path
           inkscape:connector-curvature="0"
           style="fill:#000000;fill-rule:nonzero;stroke:none"
           d="m 6487.0012,-1590.8826 0,1069.7773 -256.6772,0 0,-1069.7773 -368.6631,0 0,-266.2738 989.3335,0 0,266.2738 -363.9932,0 z"
           id="path19" />
        <path
           inkscape:connector-curvature="0"
           style="fill:#000000;fill-rule:nonzero;stroke:none"
           d="m 4552.0337,-521.1053 -266.2181,-448.4544 -275.5889,448.4544 -308.2786,0 420.3883,-705.3944 -383.0132,-630.6567 312.9485,0 233.5439,378.3866 224.1885,-378.3866 317.6185,0 -378.3433,635.3266 415.7029,700.7245 -312.9485,0 z"
           id="path21" />
        <path
           inkscape:connector-curvature="0"
           style="fill:#000000;fill-rule:nonzero;stroke:none"
           d="m 15541.494,-521.1053 0,-1336.0542 261.177,0 0,1083.7841 728.017,0 0,252.2701 -989.194,0 z"
           id="path23" />
        <path
           inkscape:connector-curvature="0"
           style="fill:#000000;fill-rule:nonzero;stroke:none"
           d="M 14936.704,-521.1053 14348.182,-1376 l 0,854.8947 -263.651,0 0,-1336.0542 263.651,0 555.57,817.5196 0,-817.5196 263.635,0 0,1336.0542 -230.683,0 z"
           id="path25" />
        <path
           inkscape:connector-curvature="0"
           style="fill:#000000;fill-rule:nonzero;stroke:none"
           d="m 13204.756,-1609.5686 c -192.628,0 -296.002,140.1387 -296.002,420.4439 0,270.9344 108.074,425.1046 296.002,425.1046 183.256,0 296.015,-168.18 296.015,-429.79 0,-289.6297 -108.073,-415.7585 -296.015,-415.7585 z m 0,1111.8285 c -404.059,0 -563.812,-341.0301 -563.812,-691.3846 0,-420.4439 216.131,-686.7208 563.812,-686.7208 324.205,0 559.125,275.6215 559.125,686.7208 0,425.1046 -220.833,691.3846 -559.125,691.3846 z"
           id="path27" />
        <path
           inkscape:connector-curvature="0"
           style="fill:#000000;fill-rule:nonzero;stroke:none"
           d="m 17424.009,-1063.0051 0,541.8998 -266.434,0 0,-541.8998 -546.632,-794.1544 317.773,0 369.112,513.8646 345.762,-513.8646 317.773,0 -537.354,794.1544 z"
           id="path29" />
        <path
           inkscape:connector-curvature="0"
           style="fill:#000000;fill-rule:nonzero;stroke:none"
           d="M 10919.093,-637.7938 11300.9,-2607.271 c 10.144,-37.2714 0.603,-78.7721 -28.669,-108.0397 -29.257,-29.2692 -70.761,-38.8055 -108.043,-28.6692 l -1969.4818,381.8071 c -21.2158,4.0143 -41.5038,14.2232 -57.9414,30.6515 -43.4676,43.4816 -43.4676,113.9747 0,157.4562 6.9586,6.9586 14.613,12.7867 22.7313,17.517 l 700.5698,430.2415 -1672.94,1535.1734 560.9352,560.9199 1535.1609,-1672.9386 430.254,700.5682 c 4.732,8.1183 10.562,15.7727 17.52,22.7313 43.468,43.4831 113.966,43.4831 157.449,0 16.422,-16.4222 26.643,-36.7102 30.648,-57.9414 z"
           id="path31" />
      </g>
    </g>
  </g>
</svg>
