<?xml version="1.0" encoding="UTF-8" standalone="no"?>
<!-- Created with Inkscape (http://www.inkscape.org/) -->

<svg
   xmlns:dc="http://purl.org/dc/elements/1.1/"
   xmlns:cc="http://creativecommons.org/ns#"
   xmlns:rdf="http://www.w3.org/1999/02/22-rdf-syntax-ns#"
   xmlns:svg="http://www.w3.org/2000/svg"
   xmlns="http://www.w3.org/2000/svg"
   xmlns:sodipodi="http://sodipodi.sourceforge.net/DTD/sodipodi-0.dtd"
   xmlns:inkscape="http://www.inkscape.org/namespaces/inkscape"
   width="10800.001"
   height="1620"
   id="svg2934"
   version="1.1"
   inkscape:version="0.48.2 r9819"
   sodipodi:docname="MUTCD E11-1b.svg">
  <defs
     id="defs2936">
    <inkscape:perspective
       sodipodi:type="inkscape:persp3d"
       inkscape:vp_x="0 : 526.18109 : 1"
       inkscape:vp_y="0 : 1000 : 0"
       inkscape:vp_z="744.09448 : 526.18109 : 1"
       inkscape:persp3d-origin="372.04724 : 350.78739 : 1"
       id="perspective2942" />
    <inkscape:perspective
       id="perspective2924"
       inkscape:persp3d-origin="0.5 : 0.33333333 : 1"
       inkscape:vp_z="1 : 0.5 : 1"
       inkscape:vp_y="0 : 1000 : 0"
       inkscape:vp_x="0 : 0.5 : 1"
       sodipodi:type="inkscape:persp3d" />
  </defs>
  <sodipodi:namedview
     id="base"
     pagecolor="#ffffff"
     bordercolor="#666666"
     borderopacity="1.0"
     inkscape:pageopacity="0.0"
     inkscape:pageshadow="2"
     inkscape:zoom="0.061434257"
     inkscape:cx="4500.1618"
     inkscape:cy="-625.30886"
     inkscape:document-units="px"
     inkscape:current-layer="g2909"
     showgrid="false"
     inkscape:window-width="1280"
     inkscape:window-height="1004"
     inkscape:window-x="-8"
     inkscape:window-y="-8"
     inkscape:window-maximized="1"
     fit-margin-top="0"
     fit-margin-left="0"
     fit-margin-right="0"
     fit-margin-bottom="0" />
  <metadata
     id="metadata2939">
    <rdf:RDF>
      <cc:Work
         rdf:about="">
        <dc:format>image/svg+xml</dc:format>
        <dc:type
           rdf:resource="http://purl.org/dc/dcmitype/StillImage" />
        <dc:title></dc:title>
      </cc:Work>
    </rdf:RDF>
  </metadata>
  <g
     inkscape:label="Ebene 1"
     inkscape:groupmode="layer"
     id="layer1"
     transform="translate(-64.766861,1049.9683)">
    <g
       id="g3018"
       transform="translate(2,-2)">
      <g
         id="g2909"
         transform="matrix(0.80835983,0,0,0.80835983,-165.10178,-177.02766)">
        <path
           inkscape:connector-curvature="0"
           style="fill:#ffd033;fill-rule:nonzero;stroke:none"
           d="m 13642.278,717.88497 c 0,115.29519 -93.463,208.75604 -208.757,208.75604 l -12942.87485,0 c -115.29303,0 -208.75604,-93.46085 -208.75604,-208.75604 l 0,-1586.54593 c 0,-115.29303 93.46301,-208.75604 208.75604,-208.75604 l 12942.87485,0 c 115.294,0 208.757,93.46301 208.757,208.75604 l 0,1586.54593 z"
           id="path11" />
        <path
           inkscape:connector-curvature="0"
           style="fill:#000000;fill-rule:nonzero;stroke:none"
           d="m 1553.9165,592.63136 0,-1336.04331 978.5029,0 0,239.07824 -733.8733,0 0,248.4568 399.8637,0 0,243.769854 -399.8637,0 0,365.652446 757.3931,0 0,239.08597 -1002.0227,0 z"
           id="path13" />
        <path
           inkscape:connector-curvature="0"
           style="fill:#000000;fill-rule:nonzero;stroke:none"
           d="m 4354.9215,592.63136 0,-1336.04331 240.487,0 0,1336.04331 -240.487,0 z"
           id="path15" />
        <path
           inkscape:connector-curvature="0"
           style="fill:#000000;fill-rule:nonzero;stroke:none"
           d="m 5531.4551,-509.02377 0,1101.65513 -234.116,0 0,-1101.65513 -383.9565,0 0,-234.38508 1002.029,0 0,234.38508 -383.9565,0 z"
           id="path17" />
        <path
           inkscape:connector-curvature="0"
           style="fill:#000000;fill-rule:nonzero;stroke:none"
           d="m 3698.2987,592.63136 -301.3509,-473.47726 -296.6501,473.47726 -282.5011,0 437.8929,-703.18159 -400.224,-632.85862 287.2174,0 254.2649,407.83816 254.2648,-407.83816 287.2329,0 -395.5231,632.85862 437.8928,703.18159 -282.5165,0 z"
           id="path19" />
        <path
           inkscape:connector-curvature="0"
           style="fill:#000000;fill-rule:nonzero;stroke:none"
           d="m 10111.918,592.63136 0,-1336.04021 239.915,0 0,1129.77223 762.114,0 0,206.26798 -1002.029,0 z"
           id="path21" />
        <path
           inkscape:connector-curvature="0"
           style="fill:#000000;fill-rule:nonzero;stroke:none"
           d="m 9557.4005,592.63136 -640.3089,-918.81885 0,918.81885 -235.415,0 0,-1336.04021 235.415,0 616.7581,881.31697 0,-881.31697 230.6986,0 0,1336.04021 -207.1478,0 z"
           id="path23" />
        <path
           inkscape:connector-curvature="0"
           style="fill:#000000;fill-rule:nonzero;stroke:none"
           d="m 7819.9626,-527.76697 c -202.0295,0 -324.1904,168.76148 -324.1904,450.033194 0,285.963306 122.1609,454.726336 324.1904,454.726336 253.7236,0 314.8041,-248.4599 314.8041,-454.726336 0,-281.271714 -112.7747,-450.033194 -314.8041,-450.033194 z m 0,1143.84086 c -394.6727,0 -568.5123,-356.28316 -568.5123,-693.807666 0,-426.593754 216.1321,-689.116074 568.5123,-689.116074 328.9067,0 554.4251,276.58475 554.4251,684.429114 0,417.221376 -216.1321,698.494626 -554.4251,698.494626 z"
           id="path25" />
        <path
           inkscape:connector-curvature="0"
           style="fill:#000000;fill-rule:nonzero;stroke:none"
           d="m 12022.191,48.838884 0,543.792476 -239.003,0 0,-543.792476 -562.373,-792.243134 295.243,0 388.982,543.78787 384.297,-543.78787 295.243,0 -562.389,792.243134 z"
           id="path27" />
      </g>
    </g>
  </g>
</svg>
