<?xml version="1.0" encoding="UTF-8" standalone="no"?>
<svg
   xmlns:dc="http://purl.org/dc/elements/1.1/"
   xmlns:cc="http://creativecommons.org/ns#"
   xmlns:rdf="http://www.w3.org/1999/02/22-rdf-syntax-ns#"
   xmlns:svg="http://www.w3.org/2000/svg"
   xmlns="http://www.w3.org/2000/svg"
   xmlns:sodipodi="http://sodipodi.sourceforge.net/DTD/sodipodi-0.dtd"
   xmlns:inkscape="http://www.inkscape.org/namespaces/inkscape"
   width="540.40002"
   height="80.400002"
   viewBox="-50 -30 54.040009 8.0399991"
   id="svg2"
   version="1.1"
   inkscape:version="0.48.4 r9939"
   sodipodi:docname="AJAX1.svg">
  <metadata
     id="metadata14">
    <rdf:RDF>
      <cc:Work
         rdf:about="">
        <dc:format>image/svg+xml</dc:format>
        <dc:type
           rdf:resource="http://purl.org/dc/dcmitype/StillImage" />
      </cc:Work>
    </rdf:RDF>
  </metadata>
  <defs
     id="defs12" />
  <sodipodi:namedview
     pagecolor="#ffffff"
     bordercolor="#666666"
     borderopacity="1"
     objecttolerance="10"
     gridtolerance="10"
     guidetolerance="10"
     inkscape:pageopacity="0"
     inkscape:pageshadow="2"
     inkscape:window-width="1280"
     inkscape:window-height="1004"
     id="namedview10"
     showgrid="false"
     fit-margin-top="0.2"
     fit-margin-left="0.2"
     fit-margin-right="0.2"
     fit-margin-bottom="0.2"
     inkscape:zoom="0.87990975"
     inkscape:cx="162.95145"
     inkscape:cy="90.61112"
     inkscape:window-x="-8"
     inkscape:window-y="-8"
     inkscape:window-maximized="1"
     inkscape:current-layer="svg2"
     showguides="true"
     inkscape:guide-bbox="true" />
  <path
     inkscape:connector-curvature="0"
     d="m 4.0200081,-22.605001 c 0,0.345125 -0.27975,0.625 -0.625,0.625 l -52.7500081,0 c -0.34512,0 -0.625,-0.279875 -0.625,-0.625 l 0,-6.750001 c 0,-0.345125 0.27988,-0.625 0.625,-0.625 l 52.7500081,0 c 0.34525,0 0.625,0.279875 0.625,0.625 l 0,6.750001 z"
     style="fill:#ffd033;fill-opacity:1;fill-rule:nonzero;stroke:none"
     id="path3130" />
  <path
     inkscape:connector-curvature="0"
     d="m -0.91899187,-23.980002 0,-1.740375 -1.80412603,0 0,1.740375 -0.719,0 0,-4 0.719,0 0,1.543875 1.80412603,0 0,-1.543875 0.719,0 0,4 -0.719,0 z"
     style="fill:#000000;fill-opacity:1;fill-rule:nonzero;stroke:none"
     id="path3138" />
  <path
     inkscape:connector-curvature="0"
     d="m -9.1086179,-23.980002 0,-2.442125 -1.1833751,2.442125 -1.1695,-2.442125 0,2.442125 -0.7045,0 0,-4 0.7045,0 1.1695,2.372 1.1833751,-2.372 0.7045,0 0,4 -0.7045,0 z"
     style="fill:#000000;fill-opacity:1;fill-rule:nonzero;stroke:none"
     id="path3142" />
  <path
     inkscape:connector-curvature="0"
     d="m -5.4264929,-27.264252 -1.208,0 0,0.996625 1.208,0 c 0.3505,0 0.589125,-0.196625 0.589125,-0.49125 0,-0.308875 -0.238625,-0.505375 -0.589125,-0.505375 m 0.68725,1.558 c -0.224375,0.12625 -0.40675,0.15425 -0.715375,0.15425 l -1.179875,0 0,1.572 -0.7295,0 0,-4 1.909375,0 c 0.308625,0 0.491,0.04212 0.715375,0.168375 0.378625,0.210625 0.617125,0.6035 0.617125,1.05275 0,0.421 -0.2385,0.842 -0.617125,1.052625"
     style="fill:#000000;fill-opacity:1;fill-rule:nonzero;stroke:none"
     id="path3146" />
  <path
     inkscape:connector-curvature="0"
     d="m -25.270995,-23.480002 c 0,-0.5965 0.123375,-1.035125 0.40525,-1.526375 0.4405,-0.73675 1.074875,-1.193 1.991,-1.4385 0.56375,-0.157875 0.7575,-0.333375 0.7575,-0.631625 0,-0.368375 -0.35225,-0.578875 -0.9865,-0.578875 -0.652,0 -1.12775,0.157875 -1.550625,0.543875 l -0.616625,-0.68425 c 0.581375,-0.50875 1.303875,-0.772 2.114375,-0.772 1.1805,0 1.938125,0.579 1.938125,1.49125 0,0.421125 -0.17625,0.807 -0.511,1.08775 -0.15875,0.12275 -0.38775,0.245625 -0.74,0.350875 -0.6695,0.193 -0.86325,0.28075 -1.162875,0.543875 -0.229,0.193 -0.37,0.385875 -0.54625,0.71925 l 2.960125,0 0,0.89475 -4.0525,0 z"
     style="fill:#000000;fill-opacity:1;fill-rule:nonzero;stroke:none"
     id="path3150" />
  <path
     inkscape:connector-curvature="0"
     d="m -17.062744,-25.988752 c 0,-1.052625 -0.43975,-1.68425 -1.195875,-1.68425 -0.896625,0 -1.213125,0.929875 -1.213125,1.666625 0,1.105375 0.457125,1.719375 1.213125,1.719375 0.738625,0 1.195875,-0.684125 1.195875,-1.719375 l 0,0.01762 z m -1.195875,2.596376 c -1.494625,0 -2.11,-1.280626 -2.11,-2.596376 0,-1.31575 0.633,-2.579 2.11,-2.579 1.49475,0 2.092625,1.29825 2.092625,2.561375 0,1.28075 -0.580375,2.614001 -2.092625,2.614001"
     style="fill:#000000;fill-opacity:1;fill-rule:nonzero;stroke:none"
     id="path3154" />
  <path
     inkscape:connector-curvature="0"
     d="m -40.0295,-26.983502 -0.56125,1.347375 1.1225,0 -0.56125,-1.347375 z m 1.26288,3.0035 -0.393,-0.940375 -1.73975,0 -0.39288,0.940375 -0.78575,0 1.68375,-4 0.72963,0 1.66962,4 -0.77162,0 z"
     style="fill:#000000;fill-opacity:1;fill-rule:nonzero;stroke:none"
     id="path3158" />
  <path
     inkscape:connector-curvature="0"
     d="m -34.257496,-23.980002 0,-2.442125 -1.183504,2.442125 -1.1695,-2.442125 0,2.442125 -0.7045,0 0,-4 0.7045,0 1.1695,2.372 1.183504,-2.372 0.7045,0 0,4 -0.7045,0 z"
     style="fill:#000000;fill-opacity:1;fill-rule:nonzero;stroke:none"
     id="path3162" />
  <path
     inkscape:connector-curvature="0"
     d="m -30.575496,-27.264127 -1.208,0 0,0.9965 1.208,0 c 0.35075,0 0.589125,-0.196625 0.589125,-0.49125 0,-0.308875 -0.238375,-0.50525 -0.589125,-0.50525 m 0.68725,1.557875 c -0.224375,0.12625 -0.40675,0.15425 -0.715375,0.15425 l -1.179875,0 0,1.572 -0.7295,0 0,-4 1.909375,0 c 0.308625,0 0.491,0.04212 0.715375,0.168375 0.378875,0.210625 0.617251,0.6035 0.617251,1.05275 0,0.421 -0.238376,0.842 -0.617251,1.052625"
     style="fill:#000000;fill-opacity:1;fill-rule:nonzero;stroke:none"
     id="path3166" />
  <path
     inkscape:connector-curvature="0"
     d="m -43.89275,-27.264127 -1.15187,0 0,0.9965 1.15187,0 c 0.35075,0 0.57513,-0.196625 0.57513,-0.49125 0,-0.308875 -0.22438,-0.50525 -0.57513,-0.50525 m 0.57513,3.284125 -0.64525,-1.571875 -1.08175,0 0,1.571875 -0.71538,0 0,-4 1.85325,0 c 0.29463,0 0.477,0.04212 0.68738,0.1685 0.37875,0.2105 0.61725,0.603375 0.61725,1.052625 0,0.449125 -0.2385,0.842 -0.64538,1.066625 l 0.7295,1.71225 -0.79962,0 z"
     style="fill:#000000;fill-opacity:1;fill-rule:nonzero;stroke:none"
     id="path3170" />
</svg>
