<?xml version="1.0" encoding="UTF-8" standalone="no"?>
<svg
   xmlns:dc="http://purl.org/dc/elements/1.1/"
   xmlns:cc="http://creativecommons.org/ns#"
   xmlns:rdf="http://www.w3.org/1999/02/22-rdf-syntax-ns#"
   xmlns:svg="http://www.w3.org/2000/svg"
   xmlns="http://www.w3.org/2000/svg"
   xmlns:sodipodi="http://sodipodi.sourceforge.net/DTD/sodipodi-0.dtd"
   xmlns:inkscape="http://www.inkscape.org/namespaces/inkscape"
   width="540.40002"
   height="180.39999"
   viewBox="-50 -30 54.040009 18.039997"
   id="svg2"
   version="1.1"
   inkscape:version="0.48.4 r9939"
   sodipodi:docname="AJAX1.svg">
  <metadata
     id="metadata14">
    <rdf:RDF>
      <cc:Work
         rdf:about="">
        <dc:format>image/svg+xml</dc:format>
        <dc:type
           rdf:resource="http://purl.org/dc/dcmitype/StillImage" />
      </cc:Work>
    </rdf:RDF>
  </metadata>
  <defs
     id="defs12" />
  <sodipodi:namedview
     pagecolor="#ffffff"
     bordercolor="#666666"
     borderopacity="1"
     objecttolerance="10"
     gridtolerance="10"
     guidetolerance="10"
     inkscape:pageopacity="0"
     inkscape:pageshadow="2"
     inkscape:window-width="1280"
     inkscape:window-height="1004"
     id="namedview10"
     showgrid="false"
     fit-margin-top="0.2"
     fit-margin-left="0.2"
     fit-margin-right="0.2"
     fit-margin-bottom="0.2"
     inkscape:zoom="0.87990975"
     inkscape:cx="65.816501"
     inkscape:cy="8.4878939"
     inkscape:window-x="-8"
     inkscape:window-y="-8"
     inkscape:window-maximized="1"
     inkscape:current-layer="svg2"
     showguides="true"
     inkscape:guide-bbox="true" />
  <path
     inkscape:connector-curvature="0"
     d="m 4.0200066,-14.230004 c 0,1.24275 -1.007375,2.25 -2.250001,2.25 l -49.5000056,0 c -1.242625,0 -2.25,-1.00725 -2.25,-2.25 l 0,-13.500002 c 0,-1.242625 1.007375,-2.25 2.25,-2.25 l 49.5000056,0 c 1.242626,0 2.250001,1.007375 2.250001,2.25 l 0,13.500002 z"
     style="fill:#ffd033;fill-opacity:1;fill-rule:nonzero;stroke:none"
     id="path3073" />
  <path
     inkscape:connector-curvature="0"
     d="m 2.8950066,-14.230004 c 0,0.620375 -0.504626,1.125 -1.125001,1.125 l -49.5000056,0 c -0.620375,0 -1.125,-0.504625 -1.125,-1.125 l 0,-13.500002 c 0,-0.620375 0.504625,-1.125 1.125,-1.125 l 49.5000056,0 c 0.620375,0 1.125001,0.504625 1.125001,1.125 l 0,13.500002 z m -1.125001,-15.281252 -49.5000056,0 c -0.982125,0 -1.78125,0.799125 -1.78125,1.78125 l 0,13.500002 c 0,0.98225 0.799125,1.78125 1.78125,1.78125 l 49.5000056,0 c 0.982126,0 1.781251,-0.799 1.781251,-1.78125 l 0,-13.500002 c 0,-0.982125 -0.799125,-1.78125 -1.781251,-1.78125"
     style="fill:#000000;fill-opacity:1;fill-rule:nonzero;stroke:none"
     id="path3081" />
  <path
     inkscape:connector-curvature="0"
     d="m -2.5603694,-17.230004 0,-3.263126 -3.3828756,0 0,3.263126 -1.347875,0 0,-7.500001 1.347875,0 0,2.89475 3.3828756,0 0,-2.89475 1.348,0 0,7.500001 -1.348,0 z"
     style="fill:#000000;fill-opacity:1;fill-rule:nonzero;stroke:none"
     id="path3085" />
  <path
     inkscape:connector-curvature="0"
     d="m -17.915746,-17.230004 0,-4.579001 -2.21925,4.579001 -2.192625,-4.579001 0,4.579001 -1.321001,0 0,-7.500001 1.321001,0 2.192625,4.447375 2.21925,-4.447375 1.320875,0 0,7.500001 -1.320875,0 z"
     style="fill:#000000;fill-opacity:1;fill-rule:nonzero;stroke:none"
     id="path3089" />
  <path
     inkscape:connector-curvature="0"
     d="m -11.012245,-23.38788 -2.264875,0 0,1.8685 2.264875,0 c 0.657625,0 1.104625,-0.368625 1.104625,-0.921125 0,-0.578875 -0.447,-0.947375 -1.104625,-0.947375 m 1.288875,2.921125 c -0.42075,0.23675 -0.762875,0.289375 -1.3415,0.289375 l -2.21225,0 0,2.947376 -1.36775,0 0,-7.500001 3.58,0 c 0.578625,0 0.92075,0.079 1.3415,0.31575 0.710125,0.394875 1.15725,1.131625 1.15725,1.97375 0,0.7895 -0.447125,1.578875 -1.15725,1.97375"
     style="fill:#000000;fill-opacity:1;fill-rule:nonzero;stroke:none"
     id="path3093" />
  <path
     inkscape:connector-curvature="0"
     d="m -41.036874,-16.315879 c -1.110125,0 -2.220125,-0.379125 -3.013,-1.105375 -0.222,-0.189501 -0.380625,-0.347251 -0.69775,-0.726376 l 1.300375,-0.978875 c 0.63425,0.821125 1.458875,1.168375 2.5055,1.168375 1.11,0 1.871125,-0.50525 1.871125,-1.263125 0,-0.442125 -0.285375,-0.947375 -0.69775,-1.168375 -0.253625,-0.126375 -0.539125,-0.1895 -0.888,-0.1895 l -0.444,0 0,-1.610625 0.380625,0 c 0.69775,0 1.205125,-0.378875 1.205125,-0.884125 0,-0.536875 -0.634375,-0.947375 -1.58575,-0.947375 -0.76125,0 -1.458875,0.31575 -1.998,0.884125 l -1.20525,-1.10525 c 0.888125,-0.91575 1.998125,-1.389501 3.2985,-1.389501 1.80775,0 3.139626,1.073751 3.139626,2.526376 0,0.6 -0.190125,1.0105 -0.729376,1.705375 0.888126,0.789375 1.141751,1.263 1.141751,2.11575 0,1.673625 -1.554001,2.968501 -3.583751,2.968501"
     style="fill:#000000;fill-opacity:1;fill-rule:nonzero;stroke:none"
     id="path3101" />
  <path
     inkscape:connector-curvature="0"
     d="m -32.704373,-16.315879 c -1.236875,0 -2.347,-0.315875 -3.48875,-1.010625 l 0.856375,-1.358001 c 0.79275,0.47375 1.712625,0.726375 2.632375,0.726375 1.363625,0 2.188251,-0.6 2.188251,-1.6105 0,-0.473625 -0.221876,-0.947375 -0.570751,-1.2315 -0.31725,-0.25275 -0.793,-0.379 -1.459,-0.379 -0.602625,0 -1.07825,0.09475 -1.74425,0.347375 l -1.617625,-0.410625 0.2855,-4.231501 6.025876,0 -0.03175,1.579001 -4.471751,0 -0.09525,1.294625 c 0.7295,-0.157875 1.1735,-0.221 1.744375,-0.221 2.061626,0 3.552001,1.3895 3.552001,3.252625 0,1.89475 -1.585625,3.252751 -3.805626,3.252751"
     style="fill:#000000;fill-opacity:1;fill-rule:nonzero;stroke:none"
     id="path3105" />
</svg>
