<?xml version="1.0" encoding="UTF-8" standalone="no"?>
<svg
   xmlns:dc="http://purl.org/dc/elements/1.1/"
   xmlns:cc="http://creativecommons.org/ns#"
   xmlns:rdf="http://www.w3.org/1999/02/22-rdf-syntax-ns#"
   xmlns:svg="http://www.w3.org/2000/svg"
   xmlns="http://www.w3.org/2000/svg"
   xmlns:sodipodi="http://sodipodi.sourceforge.net/DTD/sodipodi-0.dtd"
   xmlns:inkscape="http://www.inkscape.org/namespaces/inkscape"
   width="540.39996"
   height="80.400002"
   viewBox="-50 -30 54.040003 8.0399991"
   id="svg2"
   version="1.1"
   inkscape:version="0.48.4 r9939"
   sodipodi:docname="AJAX1.svg">
  <metadata
     id="metadata14">
    <rdf:RDF>
      <cc:Work
         rdf:about="">
        <dc:format>image/svg+xml</dc:format>
        <dc:type
           rdf:resource="http://purl.org/dc/dcmitype/StillImage" />
      </cc:Work>
    </rdf:RDF>
  </metadata>
  <defs
     id="defs12" />
  <sodipodi:namedview
     pagecolor="#ffffff"
     bordercolor="#666666"
     borderopacity="1"
     objecttolerance="10"
     gridtolerance="10"
     guidetolerance="10"
     inkscape:pageopacity="0"
     inkscape:pageshadow="2"
     inkscape:window-width="1280"
     inkscape:window-height="1004"
     id="namedview10"
     showgrid="false"
     fit-margin-top="0.2"
     fit-margin-left="0.2"
     fit-margin-right="0.2"
     fit-margin-bottom="0.2"
     inkscape:zoom="0.87990975"
     inkscape:cx="429.14816"
     inkscape:cy="-97.621399"
     inkscape:window-x="-8"
     inkscape:window-y="-8"
     inkscape:window-maximized="1"
     inkscape:current-layer="svg2"
     showguides="true"
     inkscape:guide-bbox="true" />
  <path
     inkscape:connector-curvature="0"
     d="m 4.0200057,-22.605 c 0,0.345 -0.27975,0.625 -0.625,0.625 l -52.7500057,0 c -0.345125,0 -0.625,-0.28 -0.625,-0.625 l 0,-6.750001 c 0,-0.34525 0.279875,-0.625 0.625,-0.625 l 52.7500057,0 c 0.34525,0 0.625,0.27975 0.625,0.625 l 0,6.750001 z"
     style="fill:#ffd033;fill-opacity:1;fill-rule:nonzero;stroke:none"
     id="path3628" />
  <path
     inkscape:connector-curvature="0"
     d="m -2.0422443,-23.98 0,-1.74025 -1.804251,0 0,1.74025 -0.719,0 0,-4.000001 0.719,0 0,1.54375 1.804251,0 0,-1.54375 0.71875,0 0,4.000001 -0.71875,0 z"
     style="fill:#000000;fill-opacity:1;fill-rule:nonzero;stroke:none"
     id="path3904" />
  <path
     inkscape:connector-curvature="0"
     d="m -10.231995,-23.98 0,-2.442126 -1.1835,2.442126 -1.1695,-2.442126 0,2.442126 -0.704376,0 0,-4.000001 0.704376,0 1.1695,2.372001 1.1835,-2.372001 0.704625,0 0,4.000001 -0.704625,0 z"
     style="fill:#000000;fill-opacity:1;fill-rule:nonzero;stroke:none"
     id="path3908" />
  <path
     inkscape:connector-curvature="0"
     d="m -6.5501203,-27.264376 -1.2079997,0 0,0.9965 1.2079997,0 c 0.350875,0 0.589125,-0.1965 0.589125,-0.49125 0,-0.30875 -0.23825,-0.50525 -0.589125,-0.50525 m 0.6875,1.558001 c -0.2245,0.1265 -0.406875,0.154375 -0.7155,0.154375 l -1.1799997,0 0,1.572 -0.72925,0 0,-4.000001 1.9092497,0 c 0.308625,0 0.491,0.042 0.7155,0.16825 0.37875,0.210625 0.61725,0.6035 0.61725,1.052625 0,0.42125 -0.2385,0.842125 -0.61725,1.052751"
     style="fill:#000000;fill-opacity:1;fill-rule:nonzero;stroke:none"
     id="path3912" />
  <path
     inkscape:connector-curvature="0"
     d="m -44.636374,-23.98 0,-4.000001 2.9295,0 0,0.715625 -2.197125,0 0,0.743875 1.197125,0 0,0.73 -1.197125,0 0,1.094626 2.267625,0 0,0.715875 -3,0 z"
     style="fill:#000000;fill-opacity:1;fill-rule:nonzero;stroke:none"
     id="path3916" />
  <path
     inkscape:connector-curvature="0"
     d="m -36.794373,-27.980001 0.72,0 0,4.000001 -0.72,0 0,-4.000001 z"
     style="fill:#000000;fill-opacity:1;fill-rule:nonzero;stroke:none"
     id="path3918" />
  <path
     inkscape:connector-curvature="0"
     d="m -33.543998,-27.278376 0,3.298376 -0.701,0 0,-3.298376 -1.1495,0 0,-0.701625 3,0 0,0.701625 -1.1495,0 z"
     style="fill:#000000;fill-opacity:1;fill-rule:nonzero;stroke:none"
     id="path3922" />
  <path
     inkscape:connector-curvature="0"
     d="m -38.440249,-23.98 -0.90225,-1.4175 -0.888125,1.4175 -0.845875,0 1.311,-2.105501 -1.19825,-1.8945 0.86,0 0.76125,1.220875 0.76125,-1.220875 0.86,0 -1.18425,1.8945 1.311001,2.105501 -0.845751,0 z"
     style="fill:#000000;fill-opacity:1;fill-rule:nonzero;stroke:none"
     id="path3926" />
  <path
     inkscape:connector-curvature="0"
     d="m -27.394372,-23.48 c 0,-0.5965 0.12325,-1.035125 0.405125,-1.526375 0.440625,-0.736875 1.074875,-1.193126 1.991125,-1.438751 0.563875,-0.15775 0.757625,-0.33325 0.757625,-0.631625 0,-0.368375 -0.352375,-0.57875 -0.98675,-0.57875 -0.651875,0 -1.127625,0.157875 -1.550375,0.543875 l -0.61675,-0.68425 c 0.581375,-0.508875 1.303875,-0.772 2.11425,-0.772 1.1805,0 1.93825,0.579125 1.93825,1.491125 0,0.42125 -0.17625,0.80725 -0.511,1.088 -0.1585,0.12275 -0.387625,0.245501 -0.74,0.350751 -0.6695,0.193125 -0.863375,0.28075 -1.163,0.544 -0.229,0.193125 -0.37,0.386 -0.546125,0.71925 l 2.960125,0 0,0.89475 -4.0525,0 z"
     style="fill:#000000;fill-opacity:1;fill-rule:nonzero;stroke:none"
     id="path3930" />
  <path
     inkscape:connector-curvature="0"
     d="m -19.186246,-25.988751 c 0,-1.05275 -0.4395,-1.684375 -1.195625,-1.684375 -0.896751,0 -1.213376,0.929875 -1.213376,1.66675 0,1.105501 0.457251,1.719501 1.213376,1.719501 0.7385,0 1.195625,-0.684375 1.195625,-1.719501 l 0,0.01762 z m -1.195625,2.596376 c -1.494626,0 -2.110126,-1.2805 -2.110126,-2.596376 0,-1.316 0.633125,-2.579125 2.110126,-2.579125 1.494625,0 2.0925,1.298375 2.0925,2.5615 0,1.280751 -0.58025,2.614001 -2.0925,2.614001"
     style="fill:#000000;fill-opacity:1;fill-rule:nonzero;stroke:none"
     id="path3934" />
</svg>
