<?xml version="1.0" encoding="UTF-8" standalone="no"?>
<!-- Created with Inkscape (http://www.inkscape.org/) -->

<svg
   xmlns:dc="http://purl.org/dc/elements/1.1/"
   xmlns:cc="http://creativecommons.org/ns#"
   xmlns:rdf="http://www.w3.org/1999/02/22-rdf-syntax-ns#"
   xmlns:svg="http://www.w3.org/2000/svg"
   xmlns="http://www.w3.org/2000/svg"
   xmlns:sodipodi="http://sodipodi.sourceforge.net/DTD/sodipodi-0.dtd"
   xmlns:inkscape="http://www.inkscape.org/namespaces/inkscape"
   width="88.09375"
   height="63.625"
   id="svg4779"
   version="1.1"
   inkscape:version="0.48.2 r9819"
   sodipodi:docname="AJAX1.svg">
  <defs
     id="defs4781" />
  <sodipodi:namedview
     id="base"
     pagecolor="#ffffff"
     bordercolor="#666666"
     borderopacity="1.0"
     inkscape:pageopacity="0.0"
     inkscape:pageshadow="2"
     inkscape:zoom="3.959798"
     inkscape:cx="50.968023"
     inkscape:cy="31.723879"
     inkscape:document-units="px"
     inkscape:current-layer="layer1"
     showgrid="false"
     inkscape:window-width="1280"
     inkscape:window-height="1004"
     inkscape:window-x="-8"
     inkscape:window-y="-8"
     inkscape:window-maximized="1"
     fit-margin-top="0"
     fit-margin-left="0"
     fit-margin-right="0"
     fit-margin-bottom="0" />
  <metadata
     id="metadata4784">
    <rdf:RDF>
      <cc:Work
         rdf:about="">
        <dc:format>image/svg+xml</dc:format>
        <dc:type
           rdf:resource="http://purl.org/dc/dcmitype/StillImage" />
        <dc:title />
      </cc:Work>
    </rdf:RDF>
  </metadata>
  <g
     inkscape:label="Layer 1"
     inkscape:groupmode="layer"
     id="layer1"
     transform="translate(-97.78125,2295.2813)">
    <path
       inkscape:connector-curvature="0"
       d="m 178.52913,-2294.6964 -73.40875,0 c -3.7175,0 -6.7425,3.025 -6.7425,6.7437 l 0,48.9388 c 0,3.7187 3.025,6.7437 6.7425,6.7437 l 73.40875,0 c 3.71875,0 6.7425,-3.025 6.7425,-6.7437 l 0,-48.9388 c 0,-3.7187 -3.02375,-6.7437 -6.7425,-6.7437"
       style="fill:#ffffff;fill-opacity:1;fill-rule:nonzero;stroke:#000000;stroke-width:1.20000005;stroke-miterlimit:4;stroke-opacity:1;stroke-dasharray:none"
       id="path3354"
       sodipodi:nodetypes="csssssssc" />
    <path
       inkscape:connector-curvature="0"
       d="m 105.121,-2235.9544 c -0.81125,0 -1.5775,-0.3188 -2.15875,-0.9013 -0.58,-0.5812 -0.9,-1.3475 -0.9,-2.1575 l 0,-48.94 c 0,-0.81 0.32,-1.5762 0.9,-2.1575 0.58125,-0.5825 1.3475,-0.9012 2.15875,-0.9012 l 73.40875,0 c 0.8125,0 1.57625,0.3187 2.1575,0.9012 0.58125,0.5813 0.90125,1.3475 0.90125,2.1575 l 0,48.94 c 0,0.81 -0.32,1.5763 -0.90125,2.1575 -0.58125,0.5825 -1.345,0.9013 -2.1575,0.9013 l -73.40875,0 z"
       style="fill:#00674c;fill-opacity:1;fill-rule:nonzero;stroke:none"
       id="path3350" />
    <path
       inkscape:connector-curvature="0"
       d="m 129.8085,-2271.5574 -11.91375,12.235 11.91375,0 0,-12.235 z m 5.3675,17.1725 0,6.2225 -5.3675,0 0,-6.2225 -18.89125,0 0,-4.9375 18.89125,-19.4262 5.3675,0 0,19.4262 4.50875,0 0,4.9375 -4.50875,0 z"
       style="fill:#ffffff;fill-opacity:1;fill-rule:nonzero;stroke:none"
       id="path3358" />
    <path
       inkscape:connector-curvature="0"
       d="m 162.859,-2271.5574 -11.915,12.235 11.915,0 0,-12.235 z m 5.3675,17.1725 0,6.2225 -5.3675,0 0,-6.2225 -18.8925,0 0,-4.9375 18.8925,-19.4262 5.3675,0 0,19.4262 4.50625,0 0,4.9375 -4.50625,0 z"
       style="fill:#ffffff;fill-opacity:1;fill-rule:nonzero;stroke:none"
       id="path3362" />
  </g>
</svg>
