<?xml version="1.0" encoding="UTF-8" standalone="no"?>
<!-- Created with Inkscape (http://www.inkscape.org/) -->

<svg
   xmlns:dc="http://purl.org/dc/elements/1.1/"
   xmlns:cc="http://creativecommons.org/ns#"
   xmlns:rdf="http://www.w3.org/1999/02/22-rdf-syntax-ns#"
   xmlns:svg="http://www.w3.org/2000/svg"
   xmlns="http://www.w3.org/2000/svg"
   xmlns:sodipodi="http://sodipodi.sourceforge.net/DTD/sodipodi-0.dtd"
   xmlns:inkscape="http://www.inkscape.org/namespaces/inkscape"
   width="149.28125"
   height="124.78125"
   id="svg4779"
   version="1.1"
   inkscape:version="0.48.2 r9819"
   sodipodi:docname="AJAX1.svg">
  <defs
     id="defs4781" />
  <sodipodi:namedview
     id="base"
     pagecolor="#ffffff"
     bordercolor="#666666"
     borderopacity="1.0"
     inkscape:pageopacity="0.0"
     inkscape:pageshadow="2"
     inkscape:zoom="2.8"
     inkscape:cx="68.140612"
     inkscape:cy="62.122392"
     inkscape:document-units="px"
     inkscape:current-layer="layer1"
     showgrid="false"
     inkscape:window-width="1280"
     inkscape:window-height="1004"
     inkscape:window-x="-8"
     inkscape:window-y="-8"
     inkscape:window-maximized="1"
     fit-margin-top="0"
     fit-margin-left="0"
     fit-margin-right="0"
     fit-margin-bottom="0" />
  <metadata
     id="metadata4784">
    <rdf:RDF>
      <cc:Work
         rdf:about="">
        <dc:format>image/svg+xml</dc:format>
        <dc:type
           rdf:resource="http://purl.org/dc/dcmitype/StillImage" />
        <dc:title></dc:title>
      </cc:Work>
    </rdf:RDF>
  </metadata>
  <g
     inkscape:label="Layer 1"
     inkscape:groupmode="layer"
     id="layer1"
     transform="translate(-67.1875,2233.7188)">
    <path
       inkscape:connector-curvature="0"
       d="m 202.99938,-2233.1339 -122.35,0 c -7.09125,0 -12.86,5.7687 -12.86,12.86 l 0,97.88 c 0,7.09 5.76875,12.8587 12.86,12.8587 l 122.35,0 c 7.0925,0 12.86125,-5.7687 12.86125,-12.8587 l 0,-97.88 c 0,-7.0913 -5.76875,-12.86 -12.86125,-12.86"
       style="fill:#ffffff;fill-opacity:1;fill-rule:nonzero;stroke:#000000;stroke-width:1.20000005;stroke-miterlimit:4;stroke-opacity:1;stroke-dasharray:none"
       id="path3370"
       sodipodi:nodetypes="csssssssc" />
    <path
       inkscape:connector-curvature="0"
       d="m 80.6495,-2113.2187 c -2.43625,0 -4.73875,-0.9587 -6.47875,-2.6987 -1.74,-1.7375 -2.6975,-4.04 -2.6975,-6.4763 l 0,-97.8812 c 0,-2.4375 0.9575,-4.7388 2.6975,-6.4788 1.74,-1.74 4.0425,-2.6987 6.47875,-2.6987 l 122.35,0 c 2.43875,0 4.73875,0.9587 6.48,2.6987 1.74,1.74 2.6975,4.0413 2.6975,6.4788 l 0,97.8812 c 0,2.4363 -0.9575,4.7388 -2.6975,6.4763 -1.74125,1.74 -4.04125,2.6987 -6.48,2.6987 l -122.35,0 z"
       style="fill:#00674c;fill-opacity:1;fill-rule:nonzero;stroke:none"
       id="path3366" />
    <path
       inkscape:connector-curvature="0"
       d="m 97.472,-2187.6487 0,-24.47 17.9225,0 0,4.38 -13.44125,0 0,4.55 7.3225,0 0,4.4638 -7.3225,0 0,6.6975 13.8725,0 0,4.3787 -18.35375,0 z"
       style="fill:#ffffff;fill-opacity:1;fill-rule:nonzero;stroke:none"
       id="path3374" />
    <path
       inkscape:connector-curvature="0"
       d="m 154.3275,-2212.1188 4.405,0 0,24.47 -4.405,0 0,-24.47 z"
       style="fill:#ffffff;fill-opacity:1;fill-rule:nonzero;stroke:none"
       id="path3376" />
    <path
       inkscape:connector-curvature="0"
       d="m 179.14437,-2207.8257 0,20.1775 -4.2875,0 0,-20.1775 -7.03125,0 0,-4.2925 18.3525,0 0,4.2925 -7.03375,0 z"
       style="fill:#ffffff;fill-opacity:1;fill-rule:nonzero;stroke:none"
       id="path3380" />
    <path
       inkscape:connector-curvature="0"
       d="m 139.81825,-2187.6487 -5.51875,-8.6725 -5.43375,8.6725 -5.175,0 8.02125,-12.8787 -7.33125,-11.5913 5.26125,0 4.6575,7.47 4.6575,-7.47 5.26,0 -7.245,11.5913 8.0225,12.8787 -5.17625,0 z"
       style="fill:#ffffff;fill-opacity:1;fill-rule:nonzero;stroke:none"
       id="path3384" />
    <path
       inkscape:connector-curvature="0"
       d="m 159.3995,-2136.8974 c 0.0113,-0.019 0.0213,-0.034 0.0325,-0.051 0.0612,-0.1137 0.10875,-0.2287 0.14,-0.345 0.005,-0.011 0.0125,-0.021 0.0125,-0.032 l -0.005,0 c 0.01,-0.039 0.025,-0.08 0.0325,-0.1187 l 0.055,-0.3963 5.61875,-29 0.0763,-0.5462 c 0.075,-0.5438 -0.105,-1.0875 -0.4675,-1.45 -0.41375,-0.415 -0.95875,-0.5975 -1.4775,-0.4925 l -0.3625,0.071 -29.0875,5.6663 -0.50875,0.082 c -0.33625,0.077 -0.59625,0.2325 -0.855,0.4925 -0.6475,0.6475 -0.6725,1.7087 0,2.3812 0.0788,0.079 0.2075,0.155 0.31125,0.2075 l 0.31125,0.1738 10.35125,6.3625 -25.30375,23.2337 8.4675,8.4675 23.235,-25.2537 0,-0.05 6.2675,10.1962 0.26,0.3713 c 0.0763,0.1287 0.155,0.2587 0.25875,0.3612 0.6475,0.6475 1.73375,0.6488 2.38125,0 0.105,-0.1025 0.185,-0.2162 0.25625,-0.3325"
       style="fill:#ffffff;fill-opacity:1;fill-rule:nonzero;stroke:none"
       id="path3388" />
  </g>
</svg>
