<svg xmlns="http://www.w3.org/2000/svg" width="115.2" height="86.4">
    <path d="M-1398.674-3800.269h132.12a5.206 5.206 0 0 1 5.197 5.194v96.495a5.206 5.206 0 0 1-5.198 5.194h-132.12a5.203 5.203 0 0 1-5.193-5.194v-96.495a5.203 5.203 0 0 1 5.194-5.194" style="fill:#dd7500;fill-opacity:1;fill-rule:nonzero;stroke:none" transform="matrix(.80836 0 0 .80836 1134.83 3071.985)"/>
    <path d="M-1398.674-3798.785h132.118a3.718 3.718 0 0 1 3.713 3.712v96.491a3.718 3.718 0 0 1-3.713 3.712h-132.118a3.718 3.718 0 0 1-3.71-3.712v-96.491a3.718 3.718 0 0 1 3.71-3.712" style="fill:#000;fill-opacity:1;fill-rule:evenodd;stroke:none" transform="matrix(.80836 0 0 .80836 1134.83 3071.985)"/>
    <path d="m-1266.583-3796.558.181.01c.252.032.458.108.673.246l.114.087c.23.2.38.419.477.707.037.122.057.235.065.362v96.538l-.01.18a1.555 1.555 0 0 1-.246.675l-.087.114c-.198.23-.418.38-.705.478a1.664 1.664 0 0 1-.364.065h-132.164l-.182-.01a1.527 1.527 0 0 1-.671-.246l-.116-.087a1.566 1.566 0 0 1-.48-.705 1.966 1.966 0 0 1-.063-.362v-96.54l.01-.18c.031-.254.107-.46.245-.673l.088-.116c.199-.229.417-.379.706-.476a1.64 1.64 0 0 1 .359-.066h132.17z" style="fill:#dd7500;fill-opacity:1;fill-rule:evenodd;stroke:none" transform="matrix(.80836 0 0 .80836 1134.83 3071.985)"/>
    <path d="M-1296.305-3775.32v-4.163h-17.824v4.164h6.83v19.572h4.163v-19.572h6.831zm-21.738-4.163h-4.248v23.736h4.248v-23.736zm-8.995 23.736-7.744-12.493 6.994-11.243h-5.08l-4.498 7.244-4.497-7.244h-5.081l7.079 11.243-7.743 12.493h4.995l5.247-8.412 5.33 8.412h4.998zm-23.904 0v-4.248h-13.406v-6.496h7.079v-4.331h-7.08v-4.414h12.992v-4.247h-17.324v23.736h17.74zM-1279.31-3726.09c0 3.162-.75 5.744-2.165 7.16-.67.668-1.418.917-2.668.917h-3.747v-16.157h4.247c1 0 1.832.417 2.415 1 1.168 1.251 1.917 3.914 1.917 7.08m3.83 0c0-4.666-1.417-8.413-3.913-10.578-1.251-1.002-2.165-1.25-4.582-1.25h-7.662v23.737h8.578c1.249-.084 2.497-.5 3.414-1.333 2.667-2.083 4.166-5.83 4.166-10.577m-20.07 11.91v-3.832h-10.996v-6.496h6.913v-3.832h-6.913v-5.83h10.244v-3.746h-13.99v23.736h14.742zm-18.657-6.83c0-9.328-11.161-6.414-11.494-10.828-.167-2.164 1.918-2.83 3.665-2.749 2.663.085 3.5 2.085 3.5 2.085l3.327-1c-1.163-2.917-3.414-4.83-6.745-4.83-4.246 0-7.412 1.746-7.412 6.414 0 3.91 3.166 5.327 4.58 5.91 3.083 1.251 6.747 1.75 6.747 4.913 0 1.998-1.5 3.5-3.664 3.5-2.25 0-4.081-1.25-5.08-3.5l-3.58 1.334c1.582 3.58 4.579 6.013 8.66 6.013 1.999 0 3.831-.68 5.164-1.85 1.5-1.331 2.332-3.247 2.332-5.412m-23.404-4.998c0 1.831-.416 4.166-.917 5.414-.832 2.081-1.914 2.998-3.664 2.998-1.499 0-2.498-.583-3.248-1.832-.917-1.502-1.413-4.08-1.413-6.58 0-2 .33-4.164.915-5.579.83-2.083 1.998-3 3.83-2.915 1.415.08 2.332.583 3.082 1.833.916 1.581 1.415 3.998 1.415 6.661m3.747 0c0-2.995-.581-5.997-1.582-8.078-1.498-2.915-3.58-4.246-6.581-4.246-2.745 0-4.662.83-6.077 2.663-1.584 2.25-2.583 5.749-2.583 9.661 0 2.833.667 5.995 1.669 7.996 1.413 2.915 3.495 4.264 6.826 4.264 2.5 0 4.414-.848 5.747-2.68 1.666-2.085 2.581-5.83 2.581-9.58m-19.82 11.828v-3.5h-10.994v-20.236h-3.748v23.736h14.741zm-19.905-4.83-3.582-1.335c-.915 1.919-2.081 2.75-3.665 2.75-1.667 0-2.749-.584-3.58-1.833-.915-1.502-1.5-4.08-1.5-6.662 0-1.998.333-4.082.918-5.497.83-2.083 2.081-2.915 3.997-2.915 1.832 0 2.582.5 3.914 2.497l3.498-1.498c-1.582-3.332-3.834-4.83-7.412-4.83-2.664 0-4.665.916-6.082 2.664-1.664 2.084-2.663 5.83-2.663 9.58 0 2.996.664 5.996 1.748 8.077 1.5 2.915 3.748 4.264 7.246 4.264 3.416 0 5.746-1.765 7.163-5.263" style="fill:#000;fill-opacity:1;fill-rule:evenodd;stroke:none" transform="matrix(.80836 0 0 .80836 1134.83 3071.985)"/>
</svg>
