<svg xmlns="http://www.w3.org/2000/svg" width="115.2" height="86.4">
    <path d="M-1398.674-3800.269h132.12a5.206 5.206 0 0 1 5.197 5.194v96.495a5.206 5.206 0 0 1-5.198 5.194h-132.12a5.203 5.203 0 0 1-5.193-5.194v-96.495a5.203 5.203 0 0 1 5.194-5.194" style="fill:#dd7500;fill-opacity:1;fill-rule:nonzero;stroke:none" transform="matrix(.80836 0 0 .80836 1134.83 3071.985)"/>
    <path d="M-1398.674-3798.785h132.118a3.718 3.718 0 0 1 3.713 3.712v96.491a3.718 3.718 0 0 1-3.713 3.712h-132.118a3.718 3.718 0 0 1-3.71-3.712v-96.491a3.718 3.718 0 0 1 3.71-3.712" style="fill:#000;fill-opacity:1;fill-rule:evenodd;stroke:none" transform="matrix(.80836 0 0 .80836 1134.83 3071.985)"/>
    <path d="m-1266.583-3796.558.181.01c.252.032.458.108.673.246l.114.087c.23.2.38.419.477.707.037.122.057.235.065.362v96.538l-.01.18a1.555 1.555 0 0 1-.246.675l-.087.114c-.198.23-.418.38-.705.478a1.664 1.664 0 0 1-.364.065h-132.164l-.182-.01a1.527 1.527 0 0 1-.671-.246l-.116-.087a1.566 1.566 0 0 1-.48-.705 1.966 1.966 0 0 1-.063-.362v-96.54l.01-.18c.031-.254.107-.46.245-.673l.088-.116c.199-.229.417-.379.706-.476a1.64 1.64 0 0 1 .359-.066h132.17z" style="fill:#dd7500;fill-opacity:1;fill-rule:evenodd;stroke:none" transform="matrix(.80836 0 0 .80836 1134.83 3071.985)"/>
    <path d="M-1296.487-3775.508v-4.204h-17.814v4.204h6.84v19.524h4.133v-19.524h6.84zm-21.734-4.204h-4.276v23.728h4.276v-23.728zm-8.976 23.728-7.697-12.47 6.913-11.258h-4.989l-4.489 7.267-4.489-7.267h-5.13l7.126 11.259-7.768 12.47h4.988l5.273-8.41 5.273 8.41h4.988zm-23.873 0v-4.204h-13.394v-6.484h7.053v-4.347h-7.053v-4.418h12.969v-4.275h-17.316v23.728h17.741zM-1287.723-3714.37v-23.729h-4.062v15.606l-10.902-15.606h-4.204v23.729h4.204v-16.319l11.329 16.319h3.635zm-23.94 0v-4.276h-13.398v-6.483h7.126v-4.347h-7.126v-4.418h13.04v-4.205h-17.315v23.729h17.673zm-25.796-16.532c0 1.781-1.426 2.921-3.492 2.921h-6.912v-5.913h6.912c2.066 0 3.492 1.21 3.492 2.992m4.276 0c0-2.636-1.425-4.989-3.706-6.2-1.354-.783-2.423-.997-4.204-.997h-11.115v23.729h4.345v-9.335h6.77c1.781 0 2.85-.214 4.205-.927 2.28-1.282 3.704-3.776 3.704-6.27m-28.717 4.631c0 3.634-1.068 8.052-5.556 8.052-3.562 0-5.772-2.992-5.772-8.052 0-5.058 2.21-8.052 5.772-8.052 3.562 0 5.556 2.994 5.556 8.052m4.276-.142c0-7.197-3.99-12.114-9.832-12.114-6.272 0-10.048 4.633-10.048 12.256 0 5.986 3.065 12.328 10.048 12.328 5.986 0 9.832-5.06 9.832-12.47" style="fill:#000;fill-opacity:1;fill-rule:evenodd;stroke:none" transform="matrix(.80836 0 0 .80836 1134.83 3071.985)"/>
</svg>
