<svg xmlns="http://www.w3.org/2000/svg" width="115.2" height="86.4">
    <path d="M-1398.674-3800.269h132.12a5.206 5.206 0 0 1 5.197 5.194v96.495a5.206 5.206 0 0 1-5.198 5.194h-132.12a5.203 5.203 0 0 1-5.193-5.194v-96.495a5.203 5.203 0 0 1 5.194-5.194" style="fill:#dd7500;fill-opacity:1;fill-rule:nonzero;stroke:none" transform="matrix(.80836 0 0 .80836 1134.83 3071.985)"/>
    <path d="M-1398.674-3798.785h132.118a3.718 3.718 0 0 1 3.713 3.712v96.491a3.718 3.718 0 0 1-3.713 3.712h-132.118a3.718 3.718 0 0 1-3.71-3.712v-96.491a3.718 3.718 0 0 1 3.71-3.712" style="fill:#000;fill-opacity:1;fill-rule:evenodd;stroke:none" transform="matrix(.80836 0 0 .80836 1134.83 3071.985)"/>
    <path d="m-1266.583-3796.558.181.01c.252.032.458.108.673.246l.114.087c.23.2.38.419.477.707.037.122.057.235.065.362v96.538l-.01.18a1.555 1.555 0 0 1-.246.675l-.087.114c-.198.23-.418.38-.705.478a1.664 1.664 0 0 1-.364.065h-132.164l-.182-.01a1.527 1.527 0 0 1-.671-.246l-.116-.087a1.566 1.566 0 0 1-.48-.705 1.966 1.966 0 0 1-.063-.362v-96.54l.01-.18c.031-.254.107-.46.245-.673l.088-.116c.199-.229.417-.379.706-.476a1.64 1.64 0 0 1 .359-.066h132.17z" style="fill:#dd7500;fill-opacity:1;fill-rule:evenodd;stroke:none" transform="matrix(.80836 0 0 .80836 1134.83 3071.985)"/>
    <path d="M-1296.026-3775.32v-4.164h-17.824v4.164h6.83v19.572h4.162v-19.572h6.831zm-21.739-4.164h-4.248v23.736h4.248v-23.736zm-8.995 23.736-7.744-12.493 6.996-11.243h-5.08l-4.498 7.244-4.497-7.244h-5.08l7.08 11.243-7.748 12.493h5l5.245-8.413 5.331 8.413h4.995zm-23.902 0v-4.248h-13.408v-6.497h7.079v-4.33h-7.08v-4.413h12.992v-4.248h-17.322v23.736h17.74z" style="fill:#000;fill-opacity:1;fill-rule:evenodd;stroke:none" transform="matrix(.80836 0 0 .80836 1134.83 3071.985)"/>
    <path d="M-1359.676-3726.135c0-7.346-4.052-12.328-9.964-12.328-6.334 0-10.218 4.728-10.218 12.413 0 6.08 3.125 12.498 10.218 12.498 6.08 0 9.965-5.067 9.965-12.582m-4.307.084c0 3.715-1.098 8.192-5.658 8.192-3.63 0-5.827-3.04-5.827-8.192 0-5.067 2.196-8.107 5.827-8.107 3.63 0 5.658 3.04 5.658 8.108M-1338.395-3713.974l-11.484-16.552v16.552h-4.225v-24.067h4.225l11.06 15.876v-15.876h4.14v24.067h-3.716zM-1328.431-3713.974v-24.067h4.306v20.352h13.682v3.715h-17.989zM-1294.061-3723.77v9.796h-4.308v-9.796l-10.133-14.272h5.319l7.01 9.796 6.926-9.796h5.32l-10.134 14.272z" style="fill:#000;fill-opacity:1;fill-rule:nonzero;stroke:none" transform="matrix(.80836 0 0 .80836 1134.83 3071.985)"/>
</svg>
