<?xml version="1.0" encoding="UTF-8" standalone="no"?>
<!-- Created with Inkscape (http://www.inkscape.org/) -->

<svg
   xmlns:dc="http://purl.org/dc/elements/1.1/"
   xmlns:cc="http://creativecommons.org/ns#"
   xmlns:rdf="http://www.w3.org/1999/02/22-rdf-syntax-ns#"
   xmlns:svg="http://www.w3.org/2000/svg"
   xmlns="http://www.w3.org/2000/svg"
   xmlns:sodipodi="http://sodipodi.sourceforge.net/DTD/sodipodi-0.dtd"
   xmlns:inkscape="http://www.inkscape.org/namespaces/inkscape"
   width="229.78125"
   height="160.125"
   id="svg4779"
   version="1.1"
   inkscape:version="0.48.2 r9819"
   sodipodi:docname="MUTCD E6-2.svg">
  <defs
     id="defs4781" />
  <sodipodi:namedview
     id="base"
     pagecolor="#ffffff"
     bordercolor="#666666"
     borderopacity="1.0"
     inkscape:pageopacity="0.0"
     inkscape:pageshadow="2"
     inkscape:zoom="1.979899"
     inkscape:cx="2.1946265"
     inkscape:cy="52.180481"
     inkscape:document-units="px"
     inkscape:current-layer="layer1"
     showgrid="false"
     inkscape:window-width="1280"
     inkscape:window-height="1004"
     inkscape:window-x="-8"
     inkscape:window-y="-8"
     inkscape:window-maximized="1"
     fit-margin-top="0"
     fit-margin-left="0"
     fit-margin-right="0"
     fit-margin-bottom="0" />
  <metadata
     id="metadata4784">
    <rdf:RDF>
      <cc:Work
         rdf:about="">
        <dc:format>image/svg+xml</dc:format>
        <dc:type
           rdf:resource="http://purl.org/dc/dcmitype/StillImage" />
        <dc:title></dc:title>
      </cc:Work>
    </rdf:RDF>
  </metadata>
  <g
     inkscape:label="Layer 1"
     inkscape:groupmode="layer"
     id="layer1"
     transform="translate(-1257.3438,1282.5938)">
    <path
       inkscape:connector-curvature="0"
       d="m 1486.6344,-1142.8488 c 0,10.9413 -8.9525,19.8938 -19.8938,19.8938 l -188.99,0 c -10.9412,0 -19.8937,-8.9525 -19.8937,-19.8938 l 0,-119.3624 c 0,-10.9413 8.9525,-19.8926 19.8937,-19.8926 l 188.99,0 c 10.9413,0 19.8938,8.9513 19.8938,19.8926 l 0,119.3624 z"
       style="fill:#ffffff;fill-opacity:1;fill-rule:nonzero;stroke:#000000;stroke-opacity:1"
       id="path3516" />
    <path
       inkscape:connector-curvature="0"
       d="m 1277.7506,-1126.2713 c -2.225,0 -4.3875,-0.4387 -6.4262,-1.3062 -1.9738,-0.8375 -3.75,-2.0388 -5.2788,-3.5663 -1.5287,-1.5287 -2.7275,-3.3037 -3.5662,-5.2775 -0.8675,-2.04 -1.3063,-4.2025 -1.3063,-6.4275 l 0,-119.3625 c 0,-2.225 0.4388,-4.3887 1.3063,-6.4275 0.8387,-1.9737 2.0375,-3.7487 3.5662,-5.2775 1.5288,-1.5287 3.305,-2.7287 5.2788,-3.5662 2.0387,-0.8663 4.2012,-1.3063 6.4262,-1.3063 l 188.9901,0 c 2.2262,0 4.3887,0.44 6.4274,1.3063 1.9738,0.8375 3.7488,2.0375 5.2776,3.5662 1.5287,1.5288 2.7287,3.3038 3.5675,5.2775 0.8662,2.0388 1.3062,4.2025 1.3062,6.4275 l 0,119.3625 c 0,2.225 -0.44,4.3875 -1.3062,6.4275 -0.8388,1.9738 -2.0388,3.7488 -3.5675,5.2775 -1.5288,1.5275 -3.3038,2.7288 -5.2776,3.5663 -2.0387,0.8675 -4.2012,1.3062 -6.4274,1.3062 l -188.9901,0 z"
       style="fill:#00674c;fill-opacity:1;fill-rule:nonzero;stroke:none"
       id="path3540" />
    <path
       inkscape:connector-curvature="0"
       d="m 1403.0381,-1230.7125 0,-19.8938 14.57,0 0,3.56 -10.9275,0 0,3.7 5.9538,0 0,3.6288 -5.9538,0 0,5.445 11.2775,0 0,3.56 -14.92,0 z"
       style="fill:#ffffff;fill-opacity:1;fill-rule:nonzero;stroke:none"
       id="path3544" />
    <path
       inkscape:connector-curvature="0"
       d="m 1429.1544,-1239.6395 c -0.885,-0.245 -3.1113,-0.7788 -3.8625,-1.22 -1.4988,-0.8775 -2.6425,-2.3138 -2.6425,-4.4412 0,-3.2813 2.805,-5.5151 6.87,-5.5151 2.945,0 5.3987,0.9775 7.4312,3.0713 l -2.6637,2.3725 c -1.2625,-1.325 -2.875,-1.9538 -4.7675,-1.9538 -2.0338,0 -3.225,0.7675 -3.225,2.025 0,1.1163 0.7012,1.605 3.155,2.1638 2.6637,0.5575 4.4162,1.1162 5.5375,1.675 1.7537,0.9075 2.875,2.7912 2.875,4.9562 0,2.0238 -0.9113,3.56 -2.805,4.6763 -1.4013,0.8375 -3.2238,1.3262 -5.0463,1.3262 -3.435,0 -6.0287,-1.2562 -8.2725,-3.8387 l 2.875,-2.2338 c 1.4713,1.745 3.0825,2.5125 5.3263,2.5125 2.525,0 4.3475,-1.1162 4.3475,-2.5825 0,-1.8675 -2.0313,-2.1375 -5.1325,-2.9937"
       style="fill:#ffffff;fill-opacity:1;fill-rule:nonzero;stroke:none"
       id="path3548" />
    <path
       inkscape:connector-curvature="0"
       d="m 1450.7456,-1247.1164 0,16.4038 -3.4862,0 0,-16.4038 -5.7163,0 0,-3.49 14.9188,0 0,3.49 -5.7163,0 z"
       style="fill:#ffffff;fill-opacity:1;fill-rule:nonzero;stroke:none"
       id="path3552" />
    <path
       inkscape:connector-curvature="0"
       d="m 1394.3394,-1230.7125 -4.7175,0 -4.0163,-16.6663 -3.9312,16.6663 -4.7163,0 -4.5412,-24.8675 4.6287,0 2.7075,16.055 3.6688,-16.055 4.4537,0 3.8438,16.055 2.5337,-16.055 4.54,0 -4.4537,24.8675 z"
       style="fill:#ffffff;fill-opacity:1;fill-rule:nonzero;stroke:none"
       id="path3556" />
    <path
       inkscape:connector-curvature="0"
       d="m 1317.1594,-1170.725 -3.365,0 0,15.9525 3.365,0 c 4.7675,0 7.665,-2.9688 7.665,-7.9763 0,-5.0087 -2.8975,-7.9762 -7.665,-7.9762 m -0.2813,21.2387 -8.3175,0 0,-26.525 8.3175,0 c 8.04,0 13.18,5.2863 13.18,13.2625 0,8.0688 -5.2337,13.2625 -13.18,13.2625"
       style="fill:#ffffff;fill-opacity:1;fill-rule:nonzero;stroke:none"
       id="path3560" />
    <path
       inkscape:connector-curvature="0"
       d="m 1348.1156,-1157.2762 c -1.5837,-0.5563 -3.4462,-0.8351 -4.4725,-0.8351 -1.6775,0 -2.9825,0.9275 -2.9825,2.1325 0,1.2063 1.5838,2.2263 3.4475,2.2263 1.12,0 2.5163,-0.185 4.0075,-1.02 l 0,-2.5037 z m 0,7.7899 0,-0.6487 c -1.8637,0.7412 -3.635,0.9275 -5.125,0.9275 -4.2862,0 -7.3625,-2.69 -7.3625,-6.4925 0,-3.9887 3.4488,-6.9563 8.015,-6.9563 1.1188,0 2.8888,0.1863 4.4725,0.7425 -0.092,-1.855 -1.4912,-2.5975 -3.4462,-2.5975 -1.8663,0 -3.6363,0.4651 -5.5,1.4838 l -1.9563,-4.1725 c 2.8875,-1.4838 4.8463,-2.0413 7.4563,-2.0413 5.3112,0 8.4787,2.5975 8.4787,7.9763 l 0,11.7787 -5.0325,0 z"
       style="fill:#ffffff;fill-opacity:1;fill-rule:nonzero;stroke:none"
       id="path3564" />
    <path
       inkscape:connector-curvature="0"
       d="m 1405.6881,-1157.2762 c -1.585,-0.5563 -3.4487,-0.8351 -4.4725,-0.8351 -1.6787,0 -2.9825,0.9275 -2.9825,2.1325 0,1.2063 1.5838,2.2263 3.4475,2.2263 1.1175,0 2.5163,-0.185 4.0075,-1.02 l 0,-2.5037 z m 0,7.7899 0,-0.6487 c -1.8637,0.7412 -3.6337,0.9275 -5.1262,0.9275 -4.285,0 -7.3613,-2.69 -7.3613,-6.4925 0,-3.9887 3.4488,-6.9563 8.015,-6.9563 1.1175,0 2.8875,0.1863 4.4725,0.7425 -0.092,-1.855 -1.4912,-2.5975 -3.4487,-2.5975 -1.8638,0 -3.6338,0.4651 -5.4975,1.4838 l -1.9575,-4.1725 c 2.89,-1.4838 4.8462,-2.0413 7.455,-2.0413 5.3125,0 8.48,2.5975 8.48,7.9763 l 0,11.7787 -5.0313,0 z"
       style="fill:#ffffff;fill-opacity:1;fill-rule:nonzero;stroke:none"
       id="path3568" />
    <path
       inkscape:connector-curvature="0"
       d="m 1363.7581,-1149.4863 0,-24.855 5.305,-2.0412 0,26.8962 -5.305,0 z"
       style="fill:#ffffff;fill-opacity:1;fill-rule:nonzero;stroke:none"
       id="path3572" />
    <path
       inkscape:connector-curvature="0"
       d="m 1379.6731,-1149.4863 0,-24.855 5.305,-2.0412 0,26.8962 -5.305,0 z"
       style="fill:#ffffff;fill-opacity:1;fill-rule:nonzero;stroke:none"
       id="path3576" />
    <path
       inkscape:connector-curvature="0"
       d="m 1434.2456,-1151.295 c -1.6862,1.3912 -3.935,1.9475 -7.0262,1.9475 -3.6538,0 -5.9963,-0.4638 -8.8063,-1.855 l 2.06,-4.6375 c 1.9675,0.9287 4.5913,1.485 6.5588,1.485 2.155,0 3.56,-0.3713 3.56,-1.1138 0,-0.5562 -0.4688,-1.02 -1.4988,-1.205 -1.0312,-0.2787 -3.185,-0.7425 -4.0287,-1.02 -4.2163,-1.2062 -6.09,-3.1537 -6.09,-6.1212 0,-3.4325 3.0925,-5.565 7.9637,-5.565 2.7163,0 5.34,0.5562 8.4313,2.04 l -2.06,4.6375 c -1.9688,-1.02 -4.4038,-1.6688 -6.185,-1.6688 -1.9663,0 -2.81,0.2775 -2.81,1.02 0,0.7413 0.375,0.9275 3.185,1.39 5.6212,1.1138 8.4325,3.1538 8.4325,6.7713 0,1.6687 -0.4688,2.875 -1.6863,3.895"
       style="fill:#ffffff;fill-opacity:1;fill-rule:nonzero;stroke:none"
       id="path3580" />
    <path
       inkscape:connector-curvature="0"
       d="m 1317.6519,-1195.8986 c -17.1938,-3.4963 -29.8288,-18.9388 -29.8288,-36.57 0,-8.305 2.8713,-16.6988 7.9713,-23.1113 3.3525,1.0213 7.3,1.6263 10.9425,1.6263 3.6425,0 7.5762,-0.5838 10.9275,-1.6038 3.3512,1.02 7.2837,1.6038 10.9275,1.6038 3.6425,0 7.5912,-0.605 10.94,-1.6263 5.1,6.4125 7.9725,14.8063 7.9725,23.1113 0,17.6312 -12.66,33.0737 -29.8525,36.57"
       style="fill:#ffffff;fill-opacity:1;fill-rule:evenodd;stroke:none"
       id="path3584" />
    <path
       inkscape:connector-curvature="0"
       d="m 1299.2744,-1207.3952 c -1.3825,-1.49 -2.7425,-3.03 -3.8625,-4.735 -1.1287,-1.7188 -2.2187,-3.4813 -3.0475,-5.3688 -0.8212,-1.8712 -1.595,-3.785 -2.085,-5.7762 -0.495,-1.995 -0.9362,-4.0288 -1.075,-6.0875 -0.1387,-2.0538 -0.2025,-4.1113 0,-6.1663 0.2013,-2.0787 0.5588,-4.1162 1.0738,-6.1412 0.024,-0.1038 0.024,-0.082 0.1225,-0.082 l 0.3537,0 1.4063,0 5.1875,0 7.5425,0 8.92,0 9.3262,0 8.755,0 7.21,0 4.6913,0 1.0962,0 0.1825,0 c 0.053,0 0.2188,0.9912 0.2513,1.1312 0.4362,1.9663 0.765,3.9613 0.8725,5.9738 0.1112,2.0862 0.059,4.1637 -0.1725,6.24 -0.2275,2.0412 -0.6475,4.0512 -1.2288,6.02 -0.5812,1.975 -1.3362,3.8862 -2.2437,5.7337 -0.925,1.8863 -2.0238,3.6663 -3.2463,5.3713 -1.2212,1.7 -2.6175,3.25 -4.1,4.7212 -1.48,1.4713 -3.1312,2.7488 -4.8337,3.95 -1.6788,1.185 -3.5038,2.14 -5.355,3.0188 -1.8613,0.885 -3.8338,1.5137 -5.8188,2.0575 -0.4862,0.1325 -0.98,0.235 -1.4725,0.3462 -0.185,0.043 -0.4225,-0.065 -0.6037,-0.105 -0.2538,-0.059 -0.5125,-0.105 -0.7638,-0.1737 -1.0087,-0.2763 -2.0037,-0.575 -3,-0.895 -1.9625,-0.6338 -3.8212,-1.5688 -5.6387,-2.5275 -0.9025,-0.4788 -1.7538,-1.055 -2.6113,-1.6063 -0.8437,-0.5437 -1.6887,-1.1687 -2.4587,-1.8162 -1.1713,-0.985 -2.285,-2.0025 -3.37,-3.0825"
       style="fill:#155196;fill-opacity:1;fill-rule:evenodd;stroke:none"
       id="path3588" />
    <path
       inkscape:connector-curvature="0"
       d="m 1290.6544,-1242.9959 c 0.555,-1.905 1.28,-3.7812 2.1713,-5.555 0.9337,-1.8587 1.9875,-3.6462 3.2275,-5.3175 0.085,-0.1175 0.1462,-0.2975 0.295,-0.2575 0.3825,0.105 0.7675,0.2038 1.15,0.2963 0.7375,0.1762 1.4787,0.3312 2.225,0.4675 1.4875,0.27 2.9925,0.4587 4.5025,0.5612 3.0012,0.2063 6.0125,0.029 8.9812,-0.4562 1.4738,-0.2388 2.9338,-0.57 4.3713,-0.9775 0.1625,-0.046 0.3587,0.053 0.5187,0.096 0.1725,0.048 0.3463,0.095 0.5213,0.14 0.375,0.099 0.75,0.1912 1.13,0.2762 0.7275,0.1663 1.4587,0.31 2.1962,0.4363 2.9588,0.5137 5.9788,0.68 8.9775,0.4987 1.5113,-0.092 3.0163,-0.2875 4.5088,-0.5425 0.74,-0.135 1.4787,-0.2812 2.21,-0.455 0.3587,-0.086 0.715,-0.175 1.0712,-0.2687 0.054,-0.014 0.3363,-0.1213 0.3663,-0.082 0.046,0.064 0.095,0.1275 0.1412,0.1925 0.6325,0.8537 1.2188,1.735 1.775,2.64 1.065,1.7325 1.9413,3.57 2.7,5.4537 0.375,0.9338 0.6963,1.89 0.9863,2.8538 l -1.9988,0 -5.3287,0 -7.6588,0 -8.9862,0 -9.3125,0 -8.6363,0 -6.9575,0 -4.2775,0 -0.87,0"
       style="fill:#bf2f37;fill-opacity:1;fill-rule:evenodd;stroke:none"
       id="path3592" />
    <path
       inkscape:connector-curvature="0"
       d="m 1336.7131,-1244.2421 0,-0.8725 -2.2662,0 0,-2.0488 1.2862,0 0,-0.85 -1.2862,0 0,-1.57 2.0262,0 0,-0.8712 -2.92,0 0,6.2125 3.16,0 z m -4.01,-5.385 0,-0.8275 -3.1612,0 0,0.8275 1.1325,0 0,5.385 0.8937,0 0,-5.385 1.135,0 z m -5.08,2.8125 -0.8937,0 0.435,-1.7888 0.4587,1.7888 z m 1.5475,2.5725 -1.5475,-6.2125 -0.8712,0 -1.5488,6.2125 0.8938,0 0.4137,-1.7013 1.33,0 0.4363,1.7013 0.8937,0 z m -4.3387,-5.385 0,-0.8275 -3.1613,0 0,0.8275 1.1338,0 0,5.385 0.8937,0 0,-5.385 1.1338,0 z m -3.7275,3.6837 c 0,-0.8937 -0.5225,-1.57 -1.7225,-2.2662 -0.4575,-0.2625 -0.5888,-0.4363 -0.5888,-0.7413 0,-0.415 0.3275,-0.72 0.7413,-0.72 0.3937,0 0.6987,0.2825 0.7187,0.72 l 0.8513,0 c -0.023,-0.9375 -0.6988,-1.6137 -1.57,-1.6137 -0.8938,0 -1.5913,0.72 -1.5913,1.6137 0,0.5438 0.2625,1.025 0.7638,1.3725 1.265,0.8513 0.915,0.61 1.045,0.7413 0.3712,0.2837 0.5012,0.545 0.5012,0.8937 0,0.5025 -0.3912,0.9375 -0.8712,0.9375 -0.61,0 -0.8713,-0.5437 -0.8713,-1.0687 l -0.8712,0 c 0,1.0262 0.6525,1.9437 1.7425,1.9437 0.9587,0 1.7225,-0.8087 1.7225,-1.8125 m -5.0563,-2.8562 c 0,0.5025 -0.285,0.7862 -0.8075,0.7862 l -0.9162,0 0,-1.57 0.9162,0 c 0.48,0 0.8075,0.3063 0.8075,0.7838 m 0.8713,4.5575 -0.895,-3.0525 c 0.59,-0.2188 0.895,-0.7625 0.895,-1.505 0,-1.0025 -0.6538,-1.655 -1.635,-1.655 l -1.8538,0 0,6.2125 0.8938,0 0,-2.9213 0.85,0 0.8275,2.9213 0.9175,0 z m -4.5363,0 0,-0.8725 -2.2662,0 0,-2.0488 1.285,0 0,-0.85 -1.285,0 0,-1.57 2.0275,0 0,-0.8712 -2.92,0 0,6.2125 3.1587,0 z m -4.0112,-5.385 0,-0.8275 -3.1613,0 0,0.8275 1.135,0 0,5.385 0.8938,0 0,-5.385 1.1325,0 z m -4.0113,5.385 0,-6.2125 -0.8925,0 0,3.7275 -1.7012,-3.7275 -0.895,0 0,6.2125 0.895,0 0,-4.165 1.9175,4.165 0.6762,0 z m -4.8387,-6.2125 -0.8725,0 0,6.2125 0.8725,0 0,-6.2125 z"
       style="fill:#ffffff;fill-opacity:1;fill-rule:evenodd;stroke:none"
       id="path3596" />
    <path
       inkscape:connector-curvature="0"
       d="m 1313.2331,-1224.3319 c -3.5712,2.22 -6.8562,3.2038 -8.8412,8.1363 l 13.0312,0 0,4.2812 -18.0575,0 c 0.094,-3.0712 0.735,-5.59 2.235,-8.0962 4.6525,-7.78 11.6338,-6.9213 11.6338,-11.0763 0,-1.9537 -2.2338,-3.5362 -4.84,-3.5362 -2.7,0 -4.375,1.3037 -4.84,3.7225 l -4.1888,-0.93 c 0.9313,-4.375 4.375,-7.0738 9.0288,-7.0738 5.0275,0 9.0287,3.5363 9.0287,7.9113 0,3.1712 -1.8237,5.1912 -4.19,6.6612"
       style="fill:#ffffff;fill-opacity:1;fill-rule:nonzero;stroke:none"
       id="path3600" />
    <path
       inkscape:connector-curvature="0"
       d="m 1333.9656,-1232.5754 c -0.84,-1.3962 -1.865,-1.9537 -3.4525,-2.0475 -2.0525,-0.092 -3.3587,0.9313 -4.2912,3.2575 -0.6525,1.5825 -1.0263,4.0025 -1.0263,6.2363 0,2.7912 0.56,5.6762 1.5863,7.3512 0.8387,1.3963 1.9587,2.0488 3.6387,2.0488 1.9588,0 3.1713,-1.025 4.1038,-3.3513 0.5612,-1.3962 1.0275,-4.0025 1.0275,-6.0487 0,-2.9788 -0.5613,-5.6775 -1.5863,-7.4463 m 2.8925,18.1488 c -1.4937,2.0475 -3.64,2.9775 -6.4375,2.9775 -3.7325,0 -6.0637,-1.4888 -7.6512,-4.7463 -1.1175,-2.2337 -1.865,-5.77 -1.865,-8.9337 0,-4.375 1.1187,-8.2838 2.8912,-10.7975 1.5863,-2.0463 3.7325,-2.9775 6.8113,-2.9775 3.3587,0 5.69,1.49 7.37,4.7462 1.1212,2.3275 1.7725,5.6775 1.7725,9.0288 0,4.1875 -1.025,8.375 -2.8913,10.7025"
       style="fill:#ffffff;fill-opacity:1;fill-rule:nonzero;stroke:none"
       id="path3604" />
  </g>
</svg>
