<?xml version="1.0" encoding="UTF-8" standalone="no"?>
<!-- Created with Inkscape (http://www.inkscape.org/) -->

<svg
   xmlns:dc="http://purl.org/dc/elements/1.1/"
   xmlns:cc="http://creativecommons.org/ns#"
   xmlns:rdf="http://www.w3.org/1999/02/22-rdf-syntax-ns#"
   xmlns:svg="http://www.w3.org/2000/svg"
   xmlns="http://www.w3.org/2000/svg"
   xmlns:sodipodi="http://sodipodi.sourceforge.net/DTD/sodipodi-0.dtd"
   xmlns:inkscape="http://www.inkscape.org/namespaces/inkscape"
   width="130.3125"
   height="150.1875"
   id="svg4779"
   version="1.1"
   inkscape:version="0.48.2 r9819"
   sodipodi:docname="AJAX1.svg">
  <defs
     id="defs4781" />
  <sodipodi:namedview
     id="base"
     pagecolor="#ffffff"
     bordercolor="#666666"
     borderopacity="1.0"
     inkscape:pageopacity="0.0"
     inkscape:pageshadow="2"
     inkscape:zoom="2.8"
     inkscape:cx="58.261672"
     inkscape:cy="34.042623"
     inkscape:document-units="px"
     inkscape:current-layer="layer1"
     showgrid="false"
     inkscape:window-width="1280"
     inkscape:window-height="1004"
     inkscape:window-x="-8"
     inkscape:window-y="-8"
     inkscape:window-maximized="1"
     fit-margin-top="0"
     fit-margin-left="0"
     fit-margin-right="0"
     fit-margin-bottom="0" />
  <metadata
     id="metadata4784">
    <rdf:RDF>
      <cc:Work
         rdf:about="">
        <dc:format>image/svg+xml</dc:format>
        <dc:type
           rdf:resource="http://purl.org/dc/dcmitype/StillImage" />
        <dc:title></dc:title>
      </cc:Work>
    </rdf:RDF>
  </metadata>
  <g
     inkscape:label="Layer 1"
     inkscape:groupmode="layer"
     id="layer1"
     transform="translate(-821.03125,888.0625)">
    <path
       inkscape:connector-curvature="0"
       d="m 950.82938,-753.28 c 0,8.20625 -6.71375,14.92 -14.92,14.92 l -99.4675,0 c -8.20625,0 -14.92,-6.71375 -14.92,-14.92 l 0,-119.36125 c 0,-8.20625 6.71375,-14.92125 14.92,-14.92125 l 99.4675,0 c 8.20625,0 14.92,6.715 14.92,14.92125 l 0,119.36125 z"
       style="fill:#ffffff;fill-opacity:1;fill-rule:nonzero;stroke:#000000;stroke-opacity:1"
       id="path3608" />
    <path
       inkscape:connector-curvature="0"
       d="m 836.44125,-741.675 c -1.55625,0 -3.07,-0.3075 -4.49625,-0.91375 -1.38125,-0.5875 -2.625,-1.4275 -3.69625,-2.49875 -1.07,-1.07 -1.91125,-2.31375 -2.49875,-3.69625 -0.605,-1.42625 -0.9125,-2.93875 -0.9125,-4.49625 l 0,-119.36125 c 0,-1.5575 0.3075,-3.07 0.9125,-4.4975 0.5875,-1.38125 1.42875,-2.625 2.49875,-3.69625 1.07125,-1.07 2.315,-1.91125 3.69625,-2.4975 1.42625,-0.60625 2.94,-0.91375 4.49625,-0.91375 l 99.4675,0 c 1.5575,0 3.07,0.3075 4.4975,0.91375 1.38125,0.58625 2.62625,1.4275 3.69625,2.4975 1.07,1.07125 1.91125,2.315 2.4975,3.69625 0.6075,1.4275 0.915,2.94 0.915,4.4975 l 0,119.36125 c 0,1.5575 -0.3075,3.07 -0.915,4.49625 -0.58625,1.3825 -1.4275,2.62625 -2.4975,3.69625 -1.07,1.07125 -2.315,1.91125 -3.69625,2.49875 -1.4275,0.60625 -2.94,0.91375 -4.4975,0.91375 l -99.4675,0 z"
       style="fill:#00674c;fill-opacity:1;fill-rule:nonzero;stroke:none"
       id="path3632" />
    <path
       inkscape:connector-curvature="0"
       d="m 886.17525,-760.74 c -2.66375,-3.19 -6.66125,-5.135 -10.8225,-5.135 l -1.07625,0 -1.47875,0 c -9.03125,0 -16.39625,-7.36375 -16.39625,-16.395 0,-5.58 3.5625,-9.67875 3.5625,-15.45 0,-3.9275 -1.33375,-8 -3.62875,-11.11125 l 11.815,-11.35375 c 2.43125,2.0525 5.7025,3.35125 8.94625,3.35125 3.2975,0 6.64625,-1.24125 9.07875,-3.4025 2.4325,2.16125 5.78375,3.4025 9.08,3.4025 3.24,0 6.51375,-1.29875 8.945,-3.35125 l 11.815,11.35375 c -2.29625,3.11125 -3.62875,7.18375 -3.62875,11.11125 0,5.77125 3.56375,9.87 3.56375,15.45 0,9.03125 -7.365,16.395 -16.395,16.395 l -1.47875,0 -1.07875,0 c -4.1625,0 -8.16125,1.945 -10.8225,5.135"
       style="fill:#ffffff;fill-opacity:1;fill-rule:evenodd;stroke:none"
       id="path3636" />
    <path
       inkscape:connector-curvature="0"
       d="m 875.68575,-840.31463 0,-19.89375 14.57,0 0,3.56 -10.9275,0 0,3.7 5.955,0 0,3.62875 -5.955,0 0,5.445 11.2775,0 0,3.56 -14.92,0 z"
       style="fill:#ffffff;fill-opacity:1;fill-rule:nonzero;stroke:none"
       id="path3648" />
    <path
       inkscape:connector-curvature="0"
       d="m 900.80775,-849.24212 c -0.885,-0.24375 -3.11125,-0.77875 -3.86375,-1.21875 -1.49625,-0.87875 -2.64125,-2.31375 -2.64125,-4.4425 0,-3.28125 2.80375,-5.51375 6.87,-5.51375 2.94375,0 5.3975,0.97625 7.43,3.07125 l -2.66375,2.3725 c -1.26125,-1.32625 -2.87375,-1.95375 -4.76625,-1.95375 -2.03375,0 -3.225,0.7675 -3.225,2.02375 0,1.11625 0.7,1.605 3.15375,2.16375 2.665,0.55875 4.4175,1.1175 5.53875,1.675 1.7525,0.9075 2.875,2.7925 2.875,4.95625 0,2.02375 -0.9125,3.56 -2.80375,4.67625 -1.4025,0.8375 -3.225,1.3275 -5.0475,1.3275 -3.43625,0 -6.03,-1.2575 -8.27375,-3.84 l 2.875,-2.23375 c 1.4725,1.745 3.085,2.5125 5.3275,2.5125 2.52375,0 4.34625,-1.11625 4.34625,-2.58125 0,-1.86875 -2.03125,-2.13875 -5.13125,-2.995"
       style="fill:#ffffff;fill-opacity:1;fill-rule:nonzero;stroke:none"
       id="path3652" />
    <path
       inkscape:connector-curvature="0"
       d="m 920.90663,-856.71838 0,16.40375 -3.48625,0 0,-16.40375 -5.71625,0 0,-3.49 14.91875,0 0,3.49 -5.71625,0 z"
       style="fill:#ffffff;fill-opacity:1;fill-rule:nonzero;stroke:none"
       id="path3656" />
    <path
       inkscape:connector-curvature="0"
       d="m 867.651,-840.31463 -4.71625,0 -4.0175,-16.665 -3.93125,16.665 -4.71625,0 -4.5425,-24.8675 4.63,0 2.7075,16.055 3.66875,-16.055 4.45375,0 3.8425,16.055 2.53375,-16.055 4.54125,0 -4.45375,24.8675 z"
       style="fill:#ffffff;fill-opacity:1;fill-rule:nonzero;stroke:none"
       id="path3660" />
    <path
       inkscape:connector-curvature="0"
       d="m 870.212,-776.24625 c -2.6175,0 -5.235,-0.6275 -7.32875,-1.675 l 2.3025,-4.18875 c 1.25625,0.62875 3.45625,1.0475 5.655,1.0475 4.29375,0 7.64375,-2.8275 7.64375,-6.70125 0,-2.93125 -2.4075,-5.235 -5.34,-5.235 -2.09375,0 -3.03625,0.62875 -4.8175,3.14125 l -4.71,-1.36125 0.7325,-15.39125 17.1725,0 0,4.71125 -12.56625,0 -0.31375,4.92125 c 2.19875,-0.6275 3.14125,-0.8375 4.6075,-0.8375 5.445,0 9.9475,4.6075 9.9475,10.05125 0,6.59625 -5.445,11.5175 -12.985,11.5175"
       style="fill:#000000;fill-opacity:1;fill-rule:nonzero;stroke:none"
       id="path3640" />
    <path
       inkscape:connector-curvature="0"
       d="m 899.32213,-789.7525 c -2.9325,0 -5.34,1.98875 -5.34,4.2925 0,2.40875 2.4075,4.3975 5.34,4.3975 2.9325,0 5.44375,-1.98875 5.44375,-4.3975 0,-2.30375 -2.4075,-4.2925 -5.44375,-4.2925 m 0,13.50625 c -5.75875,0 -10.1575,-4.1875 -10.1575,-9.5275 0,-8.2725 4.6075,-16.7525 11.51875,-21.36 l 2.40875,3.97875 c -3.66625,2.8275 -5.55125,5.235 -7.33125,9.005 1.67625,-0.31375 2.40875,-0.31375 3.56125,-0.31375 5.55,0 10.15625,4.0825 10.15625,9.10875 0,5.13 -4.39625,9.10875 -10.15625,9.10875"
       style="fill:#000000;fill-opacity:1;fill-rule:nonzero;stroke:none"
       id="path3644" />
  </g>
</svg>
