<?xml version="1.0" encoding="UTF-8" standalone="no"?>
<svg
   xmlns:dc="http://purl.org/dc/elements/1.1/"
   xmlns:cc="http://creativecommons.org/ns#"
   xmlns:rdf="http://www.w3.org/1999/02/22-rdf-syntax-ns#"
   xmlns:svg="http://www.w3.org/2000/svg"
   xmlns="http://www.w3.org/2000/svg"
   xmlns:sodipodi="http://sodipodi.sourceforge.net/DTD/sodipodi-0.dtd"
   xmlns:inkscape="http://www.inkscape.org/namespaces/inkscape"
   width="98.82505"
   height="196.02238"
   viewBox="0 0 278.90626 553.2187"
   version="1.1"
   id="svg2"
   inkscape:version="0.48.2 r9819"
   sodipodi:docname="MUTCD E8-2a.svg">
  <metadata
     id="metadata62">
    <rdf:RDF>
      <cc:Work
         rdf:about="">
        <dc:format>image/svg+xml</dc:format>
        <dc:type
           rdf:resource="http://purl.org/dc/dcmitype/StillImage" />
        <dc:title></dc:title>
      </cc:Work>
    </rdf:RDF>
  </metadata>
  <defs
     id="defs60" />
  <sodipodi:namedview
     pagecolor="#ffffff"
     bordercolor="#666666"
     borderopacity="1"
     objecttolerance="10"
     gridtolerance="10"
     guidetolerance="10"
     inkscape:pageopacity="0"
     inkscape:pageshadow="2"
     inkscape:window-width="1280"
     inkscape:window-height="1004"
     id="namedview58"
     showgrid="false"
     fit-margin-top="0"
     fit-margin-left="0"
     fit-margin-right="0"
     fit-margin-bottom="0"
     inkscape:zoom="2.7367973"
     inkscape:cx="46.244864"
     inkscape:cy="116.20478"
     inkscape:window-x="-8"
     inkscape:window-y="-8"
     inkscape:window-maximized="1"
     inkscape:current-layer="svg2"
     showguides="true"
     inkscape:guide-bbox="true" />
  <polygon
     points="315,545 235,375 315,205 395,375 "
     id="polygon10"
     style="fill:none;stroke:#ffffff;stroke-width:40"
     transform="translate(-1101.3438,6403.3124)" />
  <!-- draw the bicycle -->
  <!-- RIGHT -->
  <!-- LANE -->
  <!-- ONLY -->
  <path
     inkscape:connector-curvature="0"
     d="m 19.4494,551.82269 c -9.94128,0 -18.02695,-8.0857 -18.02695,-18.0269 l 0,-514.343004 c 0,-9.9378002 8.08567,-18.0270002 18.02695,-18.0270002 l 240.03,0 c 9.94128,0 18.02694,8.0892 18.02694,18.0270002 l 0,514.343004 c 0,9.9412 -8.08566,18.0269 -18.02694,18.0269 l -240.03,0 z"
     style="fill:#ffffff;fill-opacity:1;fill-rule:nonzero;stroke:#000000;stroke-width:2.82222223;stroke-miterlimit:4;stroke-opacity:1;stroke-dasharray:none"
     id="path11229" />
  <path
     inkscape:connector-curvature="0"
     d="m 10.87444,533.79569 c 0,2.2719 0.89959,4.4203 2.52942,6.0537 1.6263,1.6263 3.77472,2.5188 6.04661,2.5188 l 240.03,0 c 2.26836,0 4.41678,-0.8925 6.04661,-2.5188 1.62631,-1.6334 2.52236,-3.7818 2.52236,-6.0537 l 0,-394.2549 -257.175,0 z"
     style="fill:#00674c;fill-opacity:1;fill-rule:nonzero;stroke:none"
     id="path11237"
     sodipodi:nodetypes="scsscsccs" />
  <path
     inkscape:connector-curvature="0"
     d="m 265.5253,13.407586 c -1.62983,-1.6299 -3.77472,-2.5259 -6.04661,-2.5259 l -240.03,0 c -2.26836,0 -4.4203,0.896 -6.04661,2.5259 -1.62983,1.6298 -2.52942,3.7747 -2.52942,6.0466 l 0,120.117604 257.17853,0 0,-120.117604 c 0,-2.2719 -0.89958,-4.4168 -2.52589,-6.0466"
     style="fill:#000000;fill-opacity:1;fill-rule:nonzero;stroke:none"
     id="path11241"
     sodipodi:nodetypes="csscsccsc" />
  <path
     inkscape:connector-curvature="0"
     d="m 72.3763,370.31849 -13.11628,-23.2234 0,23.2234 -5.41161,0 0,-34.2935 5.41161,0 12.51303,21.8969 0,-21.8969 5.41514,0 0,34.2935 -4.81189,0 z"
     style="fill:#ffffff;fill-opacity:1;fill-rule:nonzero;stroke:none"
     id="path11245" />
  <path
     inkscape:connector-curvature="0"
     d="m 187.66972,370.31849 -13.11628,-23.2234 0,23.2234 -5.41866,0 0,-34.2935 5.41866,0 12.5095,21.8969 0,-21.8969 5.41514,0 0,34.2935 -4.80836,0 z"
     style="fill:#ffffff;fill-opacity:1;fill-rule:nonzero;stroke:none"
     id="path11249" />
  <path
     inkscape:connector-curvature="0"
     d="m 95.62717,340.84039 0,29.4781 -5.43983,0 0,-29.4781 -7.85283,0 0,-4.8154 21.26897,0 0,4.8154 -7.97631,0 z"
     style="fill:#ffffff;fill-opacity:1;fill-rule:nonzero;stroke:none"
     id="path11253" />
  <path
     inkscape:connector-curvature="0"
     d="m 123.78378,342.03979 c -0.83608,-0.4797 -1.32292,-0.5962 -3.12561,-0.5962 l -6.49817,0 0,8.4173 6.49817,0 c 1.68275,0 2.28953,-0.1129 3.12561,-0.5962 1.32292,-0.7267 2.16958,-2.1696 2.16958,-3.6089 0,-1.4464 -0.84666,-2.8928 -2.16958,-3.616 m 2.40947,28.2787 -5.53508,-14.9225 -6.49817,0 0,14.9225 -5.41514,0 0,-34.2935 11.30653,0 c 2.65289,0 4.45559,0.2399 6.14186,1.0865 3.00567,1.4429 5.17173,5.0518 5.17173,8.5443 0,3.6089 -2.16606,7.2178 -5.2952,8.6572 l 6.01839,16.0055 -5.89492,0 z"
     style="fill:#ffffff;fill-opacity:1;fill-rule:nonzero;stroke:none"
     id="path11257" />
  <path
     inkscape:connector-curvature="0"
     d="m 230.90899,370.31849 0,-34.2935 20.193,0 0,5.4186 -14.78492,0 0,8.4173 9.9695,0 0,5.5351 -9.9695,0 0,9.3874 15.86089,0 0,5.5351 -21.26897,0 z"
     style="fill:#ffffff;fill-opacity:1;fill-rule:nonzero;stroke:none"
     id="path11261" />
  <path
     inkscape:connector-curvature="0"
     d="m 26.74943,370.31849 0,-34.2935 20.18594,0 0,5.4186 -14.77786,0 0,8.4173 9.9695,0 0,5.5351 -9.9695,0 0,9.3874 15.86089,0 0,5.5351 -21.26897,0 z"
     style="fill:#ffffff;fill-opacity:1;fill-rule:nonzero;stroke:none"
     id="path11265" />
  <path
     inkscape:connector-curvature="0"
     d="m 149.4741,345.52879 -3.51013,9.6273 6.8968,0 -3.38667,-9.6273 z m 8.71362,24.7897 -3.3902,-9.6273 -10.76678,0 -3.39019,9.6273 -5.81025,0 11.85686,-34.2935 5.45042,0 11.85333,34.2935 -5.80319,0 z"
     style="fill:#ffffff;fill-opacity:1;fill-rule:nonzero;stroke:none"
     id="path11269" />
  <path
     inkscape:connector-curvature="0"
     d="m 213.02208,370.91469 c -5.0553,0 -8.30086,-1.9226 -10.47044,-6.1313 -1.56633,-3.0057 -2.52942,-7.3413 -2.52942,-11.6734 0,-5.4081 1.44639,-10.8268 3.85234,-13.8359 2.04611,-2.5259 4.93536,-3.8453 8.78769,-3.8453 5.1682,0 8.42081,2.1625 10.70681,6.9779 l -5.05531,2.1625 c -1.92617,-2.8821 -3.00919,-3.6018 -5.6515,-3.6018 -2.77283,0 -4.57553,1.1959 -5.7785,4.2051 -0.84667,2.0461 -1.32292,5.0553 -1.32292,7.9375 0,3.7324 0.83961,7.4648 2.16606,9.6273 1.20297,1.8062 2.76578,2.6423 5.17525,2.6423 2.28247,0 3.96875,-1.1994 5.29167,-3.9687 l 5.17525,1.9297 c -2.04611,5.0482 -5.41514,7.5741 -10.34698,7.5741"
     style="fill:#ffffff;fill-opacity:1;fill-rule:nonzero;stroke:none"
     id="path11273" />
  <path
     inkscape:connector-curvature="0"
     d="m 98.52808,435.89639 c -0.0282,0.046 -0.0564,0.078 -0.0776,0.1236 -0.14464,0.254 -0.24694,0.5256 -0.32456,0.7972 -0.007,0.032 -0.0248,0.056 -0.0317,0.078 l 0.0141,0 c -0.0245,0.092 -0.0564,0.1869 -0.0741,0.2786 l -0.127,0.9243 -13.09158,67.5534 -0.17639,1.27 c -0.17991,1.2629 0.24695,2.5329 1.09009,3.3796 0.96308,0.9631 2.22955,1.3864 3.43605,1.1395 l 0.84314,-0.1623 67.75803,-13.2009 1.18886,-0.1869 c 0.78317,-0.1868 1.38642,-0.5397 1.98967,-1.1465 1.50988,-1.5099 1.56986,-3.9829 -0.003,-5.5527 -0.17992,-0.1835 -0.47625,-0.3599 -0.7232,-0.4833 l -0.72319,-0.3987 -24.11236,-14.8272 58.94564,-54.1126 -19.72734,-19.7273 -54.11963,58.8186 0,0.1233 -14.59795,-23.7525 -0.60678,-0.8678 c -0.18344,-0.2999 -0.35983,-0.5962 -0.60677,-0.8432 -1.50637,-1.5028 -4.03931,-1.5028 -5.54567,0 -0.23989,0.2399 -0.43392,0.5045 -0.5962,0.7761"
     style="fill:#ffffff;fill-opacity:1;fill-rule:nonzero;stroke:none"
     id="path11277" />
  <path
     inkscape:connector-curvature="0"
     d="m 120.19072,75.390286 18.9724,-38.2517 19.558,38.2517 -19.558,38.526804 -18.9724,-38.526804 z m 18.95123,-51.2727 -25.48467,51.2656 25.48467,51.600804 26.12319,-51.600804 -26.12319,-51.2656 z"
     style="fill:#ffffff;fill-opacity:1;fill-rule:nonzero;stroke:none"
     id="path11281" />
  <path
     inkscape:connector-curvature="0"
     d="m 112.44268,265.07709 -6.40997,15.4023 12.827,0 -6.41703,-15.4023 z m 14.43214,34.3289 -4.48733,-10.7492 -19.88609,0 -4.49439,10.7492 -8.97819,0 19.2405,-45.7165 8.34319,0 19.08528,45.7165 -8.82297,0 z"
     style="fill:#ffffff;fill-opacity:1;fill-rule:nonzero;stroke:none"
     id="path11285" />
  <path
     inkscape:connector-curvature="0"
     d="m 194.70129,299.40659 0,-45.7164 33.48567,0 0,8.1809 -25.11425,0 0,8.5019 13.68072,0 0,8.3397 -13.68072,0 0,12.5095 25.91505,0 0,8.1844 -34.28647,0 z"
     style="fill:#ffffff;fill-opacity:1;fill-rule:nonzero;stroke:none"
     id="path11289" />
  <path
     inkscape:connector-curvature="0"
     d="m 49.93822,299.40659 0,-45.7164 8.21266,0 0,38.6573 26.07734,0 0,7.0591 -34.29,0 z"
     style="fill:#ffffff;fill-opacity:1;fill-rule:nonzero;stroke:none"
     id="path11293" />
  <path
     inkscape:connector-curvature="0"
     d="m 174.58167,299.40659 -21.91456,-31.4431 0,31.4431 -8.05392,0 0,-45.7164 8.05392,0 21.1067,30.1519 0,-30.1519 7.89516,0 0,45.7164 -7.0873,0 z"
     style="fill:#ffffff;fill-opacity:1;fill-rule:nonzero;stroke:none"
     id="path11297" />
  <path
     inkscape:connector-curvature="0"
     d="m 99.91661,219.32119 0,-19.8932 -20.61986,0 0,19.8932 -8.21619,0 0,-45.72 8.21619,0 0,17.6459 20.61986,0 0,-17.6459 8.2162,0 0,45.72 -8.2162,0 z"
     style="fill:#ffffff;fill-opacity:1;fill-rule:nonzero;stroke:none"
     id="path11301" />
  <path
     inkscape:connector-curvature="0"
     d="m 139.24533,180.98019 c -6.91445,0 -11.08781,5.775 -11.08781,15.4023 0,9.786 4.17336,15.5575 11.08781,15.5575 8.68539,0 10.77736,-8.4984 10.77736,-15.5575 0,-9.6273 -3.86292,-15.4023 -10.77736,-15.4023 m 0,39.1442 c -13.50081,0 -19.4557,-12.1955 -19.4557,-23.7419 0,-14.598 7.39775,-23.5832 19.4557,-23.5832 11.25361,0 18.97591,9.465 18.97591,23.4209 0,14.2769 -7.39775,23.9042 -18.97591,23.9042"
     style="fill:#ffffff;fill-opacity:1;fill-rule:nonzero;stroke:none"
     id="path11305" />
  <path
     inkscape:connector-curvature="0"
     d="m 191.08038,219.32119 -8.70656,0 -16.6123,-45.72 8.70302,0 12.34017,33.3657 12.3437,-33.3657 8.70302,0 -16.77105,45.72 z"
     style="fill:#ffffff;fill-opacity:1;fill-rule:nonzero;stroke:none"
     id="path11309" />
</svg>
