<?xml version="1.0" encoding="UTF-8" standalone="no"?>
<svg
   xmlns:dc="http://purl.org/dc/elements/1.1/"
   xmlns:cc="http://creativecommons.org/ns#"
   xmlns:rdf="http://www.w3.org/1999/02/22-rdf-syntax-ns#"
   xmlns:svg="http://www.w3.org/2000/svg"
   xmlns="http://www.w3.org/2000/svg"
   xmlns:sodipodi="http://sodipodi.sourceforge.net/DTD/sodipodi-0.dtd"
   xmlns:inkscape="http://www.inkscape.org/namespaces/inkscape"
   width="98.82505"
   height="171.72859"
   viewBox="0 0 278.90626 484.65622"
   version="1.1"
   id="svg2"
   inkscape:version="0.48.2 r9819"
   sodipodi:docname="MUTCD E8-1.svg">
  <metadata
     id="metadata62">
    <rdf:RDF>
      <cc:Work
         rdf:about="">
        <dc:format>image/svg+xml</dc:format>
        <dc:type
           rdf:resource="http://purl.org/dc/dcmitype/StillImage" />
        <dc:title></dc:title>
      </cc:Work>
    </rdf:RDF>
  </metadata>
  <defs
     id="defs60" />
  <sodipodi:namedview
     pagecolor="#ffffff"
     bordercolor="#666666"
     borderopacity="1"
     objecttolerance="10"
     gridtolerance="10"
     guidetolerance="10"
     inkscape:pageopacity="0"
     inkscape:pageshadow="2"
     inkscape:window-width="1280"
     inkscape:window-height="1004"
     id="namedview58"
     showgrid="false"
     fit-margin-top="0"
     fit-margin-left="0"
     fit-margin-right="0"
     fit-margin-bottom="0"
     inkscape:zoom="3.8704158"
     inkscape:cx="57.474635"
     inkscape:cy="90.939714"
     inkscape:window-x="-8"
     inkscape:window-y="-8"
     inkscape:window-maximized="1"
     inkscape:current-layer="svg2"
     showguides="true"
     inkscape:guide-bbox="true" />
  <polygon
     points="395,375 315,545 235,375 315,205 "
     id="polygon10"
     style="fill:none;stroke:#ffffff;stroke-width:40"
     transform="translate(-1749.3438,8320.9061)" />
  <!-- draw the bicycle -->
  <!-- RIGHT -->
  <!-- LANE -->
  <!-- ONLY -->
  <path
     inkscape:connector-curvature="0"
     d="m 19.44569,483.23273 c -9.93775,0 -18.02694,-8.0856 -18.02694,-18.0269 l 0,-445.766502 c 0,-9.9412997 8.08919,-18.0268997 18.02694,-18.0268997 l 240.03354,0 c 9.93775,0 18.02694,8.0856 18.02694,18.0268997 l 0,445.766502 c 0,9.9413 -8.08919,18.0269 -18.02694,18.0269 l -240.03354,0 z"
     style="fill:#ffffff;fill-opacity:1;fill-rule:nonzero;stroke:#000000;stroke-width:2.82222223;stroke-miterlimit:4;stroke-opacity:1;stroke-dasharray:none"
     id="path11177" />
  <path
     inkscape:connector-curvature="0"
     d="m 10.87319,465.20513 c 0,2.2683 0.89959,4.4168 2.52942,6.0466 1.62631,1.6228 3.77472,2.5224 6.04308,2.5224 l 240.03353,0 c 2.26836,0 4.41325,-0.8996 6.04309,-2.5224 1.6263,-1.6298 2.52589,-3.7783 2.52589,-6.0466 l 0,-325.6753 -257.17501,0 z"
     style="fill:#00674c;fill-opacity:1;fill-rule:nonzero;stroke:none"
     id="path11185"
     sodipodi:nodetypes="scsscsccs" />
  <path
     inkscape:connector-curvature="0"
     d="m 265.52231,13.392028 c -1.62984,-1.6263 -3.77473,-2.5259 -6.04309,-2.5259 l -240.03353,0 c -2.26836,0 -4.41677,0.8996 -6.04308,2.5259 -1.62983,1.6298 -2.52942,3.7747 -2.52942,6.0466 l 0,120.119402 257.17501,0 0,-120.119402 c 0,-2.2719 -0.89959,-4.4168 -2.52589,-6.0466"
     style="fill:#000000;fill-opacity:1;fill-rule:nonzero;stroke:none"
     id="path11189"
     sodipodi:nodetypes="cssssccsc" />
  <path
     inkscape:connector-curvature="0"
     d="m 98.52436,367.30253 c -0.0245,0.039 -0.0529,0.078 -0.0741,0.1163 -0.14464,0.2645 -0.24694,0.5327 -0.32808,0.8043 -0.007,0.025 -0.0245,0.049 -0.0317,0.081 l 0.0141,-0.011 c -0.0212,0.1025 -0.0529,0.1976 -0.0706,0.2893 l -0.127,0.9208 -13.09158,67.5463 -0.17639,1.2736 c -0.17992,1.27 0.24342,2.54 1.09008,3.3831 0.96309,0.9631 2.22603,1.3829 3.43253,1.143 l 0.84314,-0.1623 67.75803,-13.2009 1.18886,-0.1939 c 0.78317,-0.1798 1.38995,-0.5433 1.9932,-1.1395 1.50988,-1.5134 1.56633,-3.9864 -0.003,-5.5527 -0.18345,-0.1834 -0.47978,-0.3634 -0.7232,-0.4868 l -0.72319,-0.4022 -24.11236,-14.8237 58.94564,-54.1161 -19.73086,-19.7274 -54.11965,58.8257 0,0.1236 -14.59794,-23.7525 -0.60325,-0.8678 c -0.18344,-0.3034 -0.36336,-0.6068 -0.60678,-0.8467 -1.50636,-1.5028 -4.04283,-1.5099 -5.54919,0 -0.23989,0.2399 -0.43392,0.508 -0.5962,0.7761"
     style="fill:#ffffff;fill-opacity:1;fill-rule:nonzero;stroke:none"
     id="path11193" />
  <path
     inkscape:connector-curvature="0"
     d="m 120.18845,75.375828 18.97239,-38.2517 19.558,38.2517 -19.558,38.526802 -18.97239,-38.526802 z m 18.95122,-51.2763 -25.48114,51.2692 25.48114,51.604302 26.12672,-51.604302 -26.12672,-51.2692 z"
     style="fill:#ffffff;fill-opacity:1;fill-rule:nonzero;stroke:none"
     id="path11197" />
  <path
     inkscape:connector-curvature="0"
     d="m 112.44145,265.06053 -6.4135,15.4023 12.83052,0 -6.41702,-15.4023 z m 14.43214,34.3323 -4.48734,-10.7491 -19.88961,0 -4.49086,10.7491 -8.97819,0 19.2405,-45.7165 8.33966,0 19.08881,45.7165 -8.82297,0 z"
     style="fill:#ffffff;fill-opacity:1;fill-rule:nonzero;stroke:none"
     id="path11201" />
  <path
     inkscape:connector-curvature="0"
     d="m 194.69864,299.39283 0,-45.7165 33.48567,0 0,8.1774 -25.11425,0 0,8.502 13.68072,0 0,8.3396 -13.68072,0 0,12.5201 25.91859,0 0,8.1774 -34.29001,0 z"
     style="fill:#ffffff;fill-opacity:1;fill-rule:nonzero;stroke:none"
     id="path11205" />
  <path
     inkscape:connector-curvature="0"
     d="m 49.93628,299.39283 0,-45.7165 8.21266,0 0,38.6574 26.07734,0 0,7.0591 -34.29,0 z"
     style="fill:#ffffff;fill-opacity:1;fill-rule:nonzero;stroke:none"
     id="path11209" />
  <path
     inkscape:connector-curvature="0"
     d="m 174.57973,299.39283 -21.91456,-31.4395 0,31.4395 -8.05392,0 0,-45.7165 8.05392,0 21.11022,30.1625 0,-30.1625 7.89164,0 0,45.7165 -7.0873,0 z"
     style="fill:#ffffff;fill-opacity:1;fill-rule:nonzero;stroke:none"
     id="path11213" />
  <path
     inkscape:connector-curvature="0"
     d="m 99.91431,219.30843 0,-19.8932 -20.61986,0 0,19.8932 -8.2162,0 0,-45.72 8.2162,0 0,17.6495 20.61986,0 0,-17.6495 8.21619,0 0,45.72 -8.21619,0 z"
     style="fill:#ffffff;fill-opacity:1;fill-rule:nonzero;stroke:none"
     id="path11217" />
  <path
     inkscape:connector-curvature="0"
     d="m 139.24198,180.96643 c -6.91092,0 -11.08781,5.7785 -11.08781,15.4023 0,9.786 4.17689,15.5575 11.08781,15.5575 8.68538,0 10.77736,-8.502 10.77736,-15.5575 0,-9.6238 -3.86292,-15.4023 -10.77736,-15.4023 m 0,39.1442 c -13.50081,0 -19.45217,-12.192 -19.45217,-23.7419 0,-14.598 7.39775,-23.5832 19.45217,-23.5832 11.25714,0 18.97591,9.465 18.97591,23.4174 0,14.2804 -7.39422,23.9077 -18.97591,23.9077"
     style="fill:#ffffff;fill-opacity:1;fill-rule:nonzero;stroke:none"
     id="path11221" />
  <path
     inkscape:connector-curvature="0"
     d="m 191.07914,219.30843 -8.70655,0 -16.60878,-45.72 8.6995,0 12.34017,33.3657 12.34369,-33.3657 8.70303,0 -16.77106,45.72 z"
     style="fill:#ffffff;fill-opacity:1;fill-rule:nonzero;stroke:none"
     id="path11225" />
</svg>
