<?xml version="1.0" encoding="UTF-8" standalone="no"?>
<svg
   xmlns:dc="http://purl.org/dc/elements/1.1/"
   xmlns:cc="http://creativecommons.org/ns#"
   xmlns:rdf="http://www.w3.org/1999/02/22-rdf-syntax-ns#"
   xmlns:svg="http://www.w3.org/2000/svg"
   xmlns="http://www.w3.org/2000/svg"
   xmlns:sodipodi="http://sodipodi.sourceforge.net/DTD/sodipodi-0.dtd"
   xmlns:inkscape="http://www.inkscape.org/namespaces/inkscape"
   width="221.25737"
   height="128.89886"
   viewBox="0 0 624.43748 363.78122"
   version="1.1"
   id="svg2"
   inkscape:version="0.48.2 r9819"
   sodipodi:docname="MUTCD E8-2.svg">
  <metadata
     id="metadata62">
    <rdf:RDF>
      <cc:Work
         rdf:about="">
        <dc:format>image/svg+xml</dc:format>
        <dc:type
           rdf:resource="http://purl.org/dc/dcmitype/StillImage" />
        <dc:title></dc:title>
      </cc:Work>
    </rdf:RDF>
  </metadata>
  <defs
     id="defs60" />
  <sodipodi:namedview
     pagecolor="#ffffff"
     bordercolor="#666666"
     borderopacity="1"
     objecttolerance="10"
     gridtolerance="10"
     guidetolerance="10"
     inkscape:pageopacity="0"
     inkscape:pageshadow="2"
     inkscape:window-width="1280"
     inkscape:window-height="1004"
     id="namedview58"
     showgrid="false"
     fit-margin-top="0"
     fit-margin-left="0"
     fit-margin-right="0"
     fit-margin-bottom="0"
     inkscape:zoom="2.7367973"
     inkscape:cx="122.18546"
     inkscape:cy="53.547203"
     inkscape:window-x="-8"
     inkscape:window-y="-8"
     inkscape:window-maximized="1"
     inkscape:current-layer="svg2"
     showguides="true"
     inkscape:guide-bbox="true" />
  <polygon
     points="235,375 315,205 395,375 315,545 "
     id="polygon10"
     style="fill:none;stroke:#ffffff;stroke-width:40"
     transform="translate(-840.96875,4227.6874)" />
  <!-- draw the bicycle -->
  <!-- RIGHT -->
  <!-- LANE -->
  <!-- ONLY -->
  <path
     inkscape:connector-curvature="0"
     d="m 623.03515,322.26358 c 0,22.0592 -18.0446,40.1038 -40.1038,40.1038 l -541.4257,0 c -22.0592,0 -40.1038,-18.0446 -40.1038,-40.1038 l 0,-280.737003 c 0,-22.0592 18.0446,-40.1038005 40.1038,-40.1038005 l 541.4257,0 c 22.0592,0 40.1038,18.0446005 40.1038,40.1038005 l 0,280.737003 z"
     style="fill:#ffffff;fill-opacity:1;fill-rule:nonzero;stroke:#000000;stroke-width:2.82222223;stroke-miterlimit:4;stroke-opacity:1;stroke-dasharray:none"
     id="path3350" />
  <path
     inkscape:connector-curvature="0"
     d="m 613.71835,28.569077 c -1.6898,-3.9794 -4.1134,-7.5601 -7.1932,-10.6398 -3.0797,-3.0833 -6.6569,-5.5034 -10.6362,-7.1932 -4.1134,-1.7462005 -8.4773,-2.6317005 -12.9576,-2.6317005 l -461.2284,0 0,347.5814035 461.2284,0 c 4.4803,0 8.8442,-0.8855 12.9576,-2.6317 3.9793,-1.6934 7.5565,-4.1099 10.6362,-7.1932 3.0798,-3.0797 5.5034,-6.6604 7.1932,-10.6397 1.7427,-4.1099 2.6282,-8.4702 2.6282,-12.9576 l 0,-280.737003 c 0,-4.4873 -0.8855,-8.8477 -2.6282,-12.9575"
     style="fill:#00674c;fill-opacity:1;fill-rule:nonzero;stroke:none"
     id="path3378"
     sodipodi:nodetypes="cccsccscccssc" />
  <path
     inkscape:connector-curvature="0"
     d="m 41.50565,8.1057765 c -4.4873,0 -8.8441,0.8855 -12.9575,2.6318005 -3.9758,1.6898 -7.5565,4.1098 -10.6363,7.1931 -3.0797,3.0797 -5.5033,6.6604 -7.1931,10.6398 -1.7463,4.1098 -2.6353,8.4702 -2.6353,12.9575 l 0,280.737003 c 0,4.4874 0.889,8.8477 2.6353,12.9576 1.6898,3.9793 4.1134,7.56 7.1931,10.6397 3.0798,3.0833 6.6605,5.4999 10.6363,7.1932 4.1134,1.7462 8.4702,2.6317 12.9575,2.6317 l 80.2255,0 0,-347.5814035 z"
     style="fill:#000000;fill-opacity:1;fill-rule:nonzero;stroke:none"
     id="path3382"
     sodipodi:nodetypes="scccsscccsccs" />
  <path
     inkscape:connector-curvature="0"
     d="m 386.34945,245.37218 c -0.035,-0.021 -0.063,-0.042 -0.095,-0.063 -0.2258,-0.12 -0.448,-0.2082 -0.6773,-0.2752 -0.02,0 -0.039,-0.014 -0.06,-0.021 l 0,0.01 c -0.081,-0.021 -0.1589,-0.046 -0.2365,-0.063 l -0.7726,-0.1058 -56.5715,-10.9643 -1.0653,-0.1447 c -1.0619,-0.1517 -2.1238,0.2011 -2.8293,0.9102 -0.8079,0.8078 -1.1607,1.8662 -0.9596,2.8786 l 0.1411,0.7091 11.049,56.7408 0.1623,0.9948 c 0.1482,0.6597 0.4516,1.1642 0.956,1.6687 1.2665,1.2629 3.3373,1.3123 4.6497,0 0.1515,-0.1517 0.3033,-0.4057 0.4056,-0.6068 l 0.3352,-0.6032 12.4178,-20.1966 45.3249,49.3642 16.517,-16.5206 -49.2654,-45.3249 -0.095,0 19.8861,-12.2272 0.7267,-0.5045 c 0.254,-0.1517 0.5045,-0.3069 0.7091,-0.508 1.2559,-1.2629 1.2629,-3.3867 0,-4.6461 -0.2012,-0.2046 -0.4233,-0.3633 -0.6527,-0.5009"
     style="fill:#ffffff;fill-opacity:1;fill-rule:nonzero;stroke:none"
     id="path3386" />
  <path
     inkscape:connector-curvature="0"
     d="m 34.94395,181.64708 29.4887,-59.4501 30.3989,59.4501 -30.3989,59.884 -29.4887,-59.884 z m 29.4605,-79.6925 -39.6064,79.6854 39.6064,80.197 40.6047,-80.197 -40.6047,-79.6854 z"
     style="fill:#ffffff;fill-opacity:1;fill-rule:nonzero;stroke:none"
     id="path3390" />
  <path
     inkscape:connector-curvature="0"
     d="m 439.78825,64.207377 -7.038,16.8875 14.0724,0 -7.0344,-16.8875 z m 15.822,37.641403 -4.9212,-11.782803 -21.8052,0 -4.9212,11.782803 -9.8531,0 21.1067,-50.129803 9.1404,0 20.9268,50.129803 -9.6732,0 z"
     style="fill:#ffffff;fill-opacity:1;fill-rule:nonzero;stroke:none"
     id="path3394" />
  <path
     inkscape:connector-curvature="0"
     d="m 529.98295,101.84978 0,-50.133203 36.71,0 0,8.9746 -27.5308,0 0,9.3204 15.0002,0 0,9.1475 -15.0002,0 0,13.7196 28.4128,0 0,8.971103 -37.592,0 z"
     style="fill:#ffffff;fill-opacity:1;fill-rule:nonzero;stroke:none"
     id="path3398" />
  <path
     inkscape:connector-curvature="0"
     d="m 371.24705,101.84978 0,-50.133203 9.0064,0 0,42.3933 28.5962,0 0,7.739903 -37.6026,0 z"
     style="fill:#ffffff;fill-opacity:1;fill-rule:nonzero;stroke:none"
     id="path3402" />
  <path
     inkscape:connector-curvature="0"
     d="m 507.92015,101.84978 -24.0277,-34.477003 0,34.477003 -8.83,0 0,-50.133203 8.83,0 23.1423,33.0729 0,-33.0729 8.6571,0 0,50.133203 -7.7717,0 z"
     style="fill:#ffffff;fill-opacity:1;fill-rule:nonzero;stroke:none"
     id="path3406" />
  <path
     inkscape:connector-curvature="0"
     d="m 202.11125,100.97138 0,-21.812203 -22.613,0 0,21.812203 -9.01,0 0,-50.133203 9.01,0 0,19.3498 22.613,0 0,-19.3498 9.01,0 0,50.133203 -9.01,0 z"
     style="fill:#ffffff;fill-opacity:1;fill-rule:nonzero;stroke:none"
     id="path3410" />
  <path
     inkscape:connector-curvature="0"
     d="m 245.23835,58.931177 c -7.5812,0 -12.1673,6.3324 -12.1673,16.8875 0,10.728 4.5861,17.0603 12.1673,17.0603 9.5179,0 11.8145,-9.3239 11.8145,-17.0603 0,-10.5551 -4.2333,-16.8875 -11.8145,-16.8875 m 0,42.919003 c -14.8061,0 -21.3325,-13.370303 -21.3325,-26.031503 0,-16.009 8.1104,-25.8586 21.3325,-25.8586 12.3402,0 20.8033,10.3752 20.8033,25.6822 0,15.6528 -8.1104,26.207903 -20.8033,26.207903"
     style="fill:#ffffff;fill-opacity:1;fill-rule:nonzero;stroke:none"
     id="path3414" />
  <path
     inkscape:connector-curvature="0"
     d="m 302.06735,100.97138 -9.5427,0 -18.2104,-50.133203 9.5427,0 13.529,36.5901 13.529,-36.5901 9.5427,0 -18.3903,50.133203 z"
     style="fill:#ffffff;fill-opacity:1;fill-rule:nonzero;stroke:none"
     id="path3418" />
  <path
     inkscape:connector-curvature="0"
     d="m 389.05175,153.77798 -7.0344,16.884 14.0688,0 -7.0344,-16.884 z m 15.822,37.6414 -4.9212,-11.7863 -21.8052,0 -4.9248,11.7863 -9.8495,0 21.1031,-50.1332 9.1476,0 20.9232,50.1332 -9.6732,0 z"
     style="fill:#ffffff;fill-opacity:1;fill-rule:nonzero;stroke:none"
     id="path3422" />
  <path
     inkscape:connector-curvature="0"
     d="m 499.01965,192.29778 c -13.1904,0 -21.2831,-10.3752 -21.2831,-26.0315 0,-15.8326 8.0927,-25.8586 21.2831,-25.8586 8.0927,0 15.4798,4.0464 19.3463,11.0843 l -7.9128,4.2192 c -1.4076,-2.1096 -2.1096,-2.8151 -3.5172,-3.6936 -1.9368,-1.5839 -5.2776,-2.6387 -7.9163,-2.6387 -9.144,0 -12.1356,8.9711 -12.1356,16.711 0,10.9079 4.5755,17.2368 12.1356,17.2368 4.572,0 7.0343,-1.5805 11.4335,-6.3289 l 7.9128,4.2193 c -3.6865,7.0343 -11.2536,11.0807 -19.3463,11.0807"
     style="fill:#ffffff;fill-opacity:1;fill-rule:nonzero;stroke:none"
     id="path3426" />
  <path
     inkscape:connector-curvature="0"
     d="m 169.31705,191.41898 0,-50.1297 36.7171,0 0,8.9712 -27.5414,0 0,9.3204 15.0072,0 0,9.1475 -15.0072,0 0,13.7195 28.4233,0 0,8.9711 -37.599,0 z"
     style="fill:#ffffff;fill-opacity:1;fill-rule:nonzero;stroke:none"
     id="path3430" />
  <path
     inkscape:connector-curvature="0"
     d="m 531.15415,191.41898 0,-50.1297 36.7136,0 0,8.9712 -27.5343,0 0,9.3204 14.9966,0 0,9.1475 -14.9966,0 0,13.7195 28.4198,0 0,8.9711 -37.5991,0 z"
     style="fill:#ffffff;fill-opacity:1;fill-rule:nonzero;stroke:none"
     id="path3434" />
  <path
     inkscape:connector-curvature="0"
     d="m 251.05565,191.41898 -24.0277,-34.4769 0,34.4769 -8.8336,0 0,-50.1297 8.8336,0 23.1457,33.0694 0,-33.0694 8.6572,0 0,50.1297 -7.7752,0 z"
     style="fill:#ffffff;fill-opacity:1;fill-rule:nonzero;stroke:none"
     id="path3438" />
  <path
     inkscape:connector-curvature="0"
     d="m 457.18015,191.41898 -24.0242,-34.4769 0,34.4769 -8.8335,0 0,-50.1297 8.8335,0 23.1387,33.0694 0,-33.0694 8.6572,0 0,50.1297 -7.7717,0 z"
     style="fill:#ffffff;fill-opacity:1;fill-rule:nonzero;stroke:none"
     id="path3442" />
  <path
     inkscape:connector-curvature="0"
     d="m 339.38065,150.25908 -14.4357,0 0,12.4883 14.4357,0 c 4.3956,0 7.2072,-2.4624 7.2072,-6.156 0,-3.87 -2.8116,-6.3323 -7.2072,-6.3323 m 7.2072,41.1585 -8.0856,-19.6991 -13.5573,0 0,19.6991 -8.9676,0 0,-50.1297 23.2269,0 c 3.69,0 5.976,0.5292 8.6113,2.1132 4.7449,2.6352 7.7399,7.5635 7.7399,13.1903 0,5.6303 -2.995,10.5551 -8.0856,13.3668 l 9.1334,21.4594 -10.0154,0 z"
     style="fill:#ffffff;fill-opacity:1;fill-rule:nonzero;stroke:none"
     id="path3446" />
  <path
     inkscape:connector-curvature="0"
     d="m 291.79095,150.08338 0,41.3349 -8.7842,0 0,-41.3349 -14.4039,0 0,-8.7948 37.5955,0 0,8.7948 -14.4074,0 z"
     style="fill:#ffffff;fill-opacity:1;fill-rule:nonzero;stroke:none"
     id="path3450" />
</svg>
