<?xml version="1.0" encoding="UTF-8" standalone="no"?>
<svg
   xmlns:dc="http://purl.org/dc/elements/1.1/"
   xmlns:cc="http://creativecommons.org/ns#"
   xmlns:rdf="http://www.w3.org/1999/02/22-rdf-syntax-ns#"
   xmlns:svg="http://www.w3.org/2000/svg"
   xmlns="http://www.w3.org/2000/svg"
   xmlns:sodipodi="http://sodipodi.sourceforge.net/DTD/sodipodi-0.dtd"
   xmlns:inkscape="http://www.inkscape.org/namespaces/inkscape"
   width="270.99655"
   height="86.268456"
   viewBox="0 0 764.81251 243.46874"
   version="1.1"
   id="svg2"
   inkscape:version="0.48.2 r9819"
   sodipodi:docname="MUTCD E8-3.svg">
  <metadata
     id="metadata62">
    <rdf:RDF>
      <cc:Work
         rdf:about="">
        <dc:format>image/svg+xml</dc:format>
        <dc:type
           rdf:resource="http://purl.org/dc/dcmitype/StillImage" />
        <dc:title></dc:title>
      </cc:Work>
    </rdf:RDF>
  </metadata>
  <defs
     id="defs60" />
  <sodipodi:namedview
     pagecolor="#ffffff"
     bordercolor="#666666"
     borderopacity="1"
     objecttolerance="10"
     gridtolerance="10"
     guidetolerance="10"
     inkscape:pageopacity="0"
     inkscape:pageshadow="2"
     inkscape:window-width="1280"
     inkscape:window-height="1004"
     id="namedview58"
     showgrid="false"
     fit-margin-top="0"
     fit-margin-left="0"
     fit-margin-right="0"
     fit-margin-bottom="0"
     inkscape:zoom="2.7367973"
     inkscape:cx="114.01688"
     inkscape:cy="74.065607"
     inkscape:window-x="-8"
     inkscape:window-y="-8"
     inkscape:window-maximized="1"
     inkscape:current-layer="svg2"
     showguides="true"
     inkscape:guide-bbox="true" />
  <polygon
     points="395,375 315,545 235,375 315,205 "
     id="polygon10"
     style="fill:none;stroke:#ffffff;stroke-width:40"
     transform="translate(409.6875,2584.7499)" />
  <!-- draw the bicycle -->
  <!-- RIGHT -->
  <!-- LANE -->
  <!-- ONLY -->
  <path
     inkscape:connector-curvature="0"
     d="m 763.4041,210.29919 c 0,17.459 -14.284,31.7465 -31.75,31.7465 l -698.50006,0 c -17.45897,0 -31.75,-14.2875 -31.75,-31.7465 l 0,-177.133202 c 0,-17.4661 14.29103,-31.7499998 31.75,-31.7499998 l 698.50006,0 c 17.466,0 31.75,14.2838998 31.75,31.7499998 l 0,177.133202 z"
     style="fill:#ffffff;stroke:#000000;stroke-width:2.82222223;stroke-linecap:butt;stroke-linejoin:miter;stroke-miterlimit:4;stroke-opacity:1;stroke-dasharray:none"
     id="path3248" />
  <path
     inkscape:connector-curvature="0"
     d="M 749.3494,15.467488 C 744.601,10.711988 738.318,8.0978882 731.6541,8.0978882 l -609.94682,0 0,227.2630018 609.94682,0 c 6.6639,0 12.9469,-2.6141 17.6953,-7.366 4.7519,-4.7554 7.3695,-11.0384 7.3695,-17.6953 l 0,-177.133302 c 0,-6.6639 -2.6176,-12.9469 -7.3695,-17.6988"
     style="fill:#00674c;fill-opacity:1;fill-rule:nonzero;stroke:none"
     id="path3260"
     sodipodi:nodetypes="csccssssc" />
  <path
     inkscape:connector-curvature="0"
     d="m 33.15404,8.0968882 c -6.65691,0 -12.94694,2.6175998 -17.69533,7.3694998 -4.75192,4.7519 -7.36953,11.0349 -7.36953,17.6989 l 0,177.133202 c 0,6.6569 2.61761,12.9399 7.36953,17.6954 4.74839,4.7519 11.03842,7.366 17.69533,7.366 l 88.58146,0 0,-227.2630018 z"
     style="fill:#000000;fill-opacity:1;fill-rule:nonzero;stroke:none"
     id="path3264"
     sodipodi:nodetypes="scssssccs" />
  <path
     inkscape:connector-curvature="0"
     d="m 230.67503,86.989288 c -0.0353,-0.021 -0.0635,-0.046 -0.10231,-0.067 -0.22225,-0.1234 -0.44802,-0.2081 -0.68086,-0.2787 -0.0212,0 -0.0353,-0.014 -0.0635,-0.021 l 0,0.011 c -0.0776,-0.025 -0.15875,-0.046 -0.23636,-0.06 l -0.78316,-0.1094 -57.32639,-11.1089 -1.08303,-0.1517 c -1.07245,-0.1517 -2.14842,0.2046 -2.86456,0.9207 -0.81844,0.822 -1.17475,1.898 -0.97366,2.921 l 0.14111,0.7161 11.20069,57.502802 0.16581,1.0054 c 0.15169,0.6668 0.45508,1.1783 0.97014,1.6898 1.28411,1.2842 3.37961,1.3335 4.70605,0 0.15522,-0.1552 0.31045,-0.4056 0.41275,-0.6173 l 0.3422,-0.6103 12.58005,-20.4647 45.92814,50.0239 16.73931,-16.7428 -49.92159,-45.9281 -0.0988,0 20.15419,-12.386102 0.73378,-0.5185 c 0.26105,-0.1517 0.51153,-0.307 0.71614,-0.5116 1.28058,-1.277 1.28058,-3.4325 0.007,-4.7096 -0.20814,-0.2046 -0.43391,-0.3669 -0.66322,-0.5044"
     style="fill:#ffffff;fill-opacity:1;fill-rule:nonzero;stroke:none"
     id="path3268" />
  <path
     inkscape:connector-curvature="0"
     d="m 34.94545,122.04129 29.49222,-59.450102 30.39886,59.450102 -30.39886,59.8805 -29.49222,-59.8805 z m 29.464,-79.696102 -39.60636,79.685502 39.60636,80.197 40.59767,-80.197 -40.59767,-79.685502 z"
     style="fill:#ffffff;fill-opacity:1;fill-rule:nonzero;stroke:none"
     id="path3272" />
  <path
     inkscape:connector-curvature="0"
     d="m 584.22117,63.195788 -7.12611,17.1133 14.25575,0 -7.12964,-17.1133 z m 16.03727,38.145902 -4.98827,-11.941502 -22.098,0 -4.98828,11.941502 -9.97656,0 21.38186,-50.796502 9.26395,0 21.20546,50.796502 -9.80016,0 z"
     style="fill:#ffffff;fill-opacity:1;fill-rule:nonzero;stroke:none"
     id="path3276" />
  <path
     inkscape:connector-curvature="0"
     d="m 675.6153,101.34209 0,-50.796502 37.2075,0 0,9.0875 -27.9047,0 0,9.4474 15.2047,0 0,9.271 -15.2047,0 0,13.903 28.8007,0 0,9.087602 -38.1035,0 z"
     style="fill:#ffffff;fill-opacity:1;fill-rule:nonzero;stroke:none"
     id="path3280" />
  <path
     inkscape:connector-curvature="0"
     d="m 514.76983,101.34209 0,-50.796502 9.12284,0 0,42.9542 28.97716,0 0,7.842302 -38.1,0 z"
     style="fill:#ffffff;fill-opacity:1;fill-rule:nonzero;stroke:none"
     id="path3284" />
  <path
     inkscape:connector-curvature="0"
     d="m 653.2633,101.34209 -24.3452,-34.935602 0,34.935602 -8.9535,0 0,-50.796502 8.9535,0 23.4492,33.5068 0,-33.5068 8.7735,0 0,50.796502 -7.8775,0 z"
     style="fill:#ffffff;fill-opacity:1;fill-rule:nonzero;stroke:none"
     id="path3288" />
  <path
     inkscape:connector-curvature="0"
     d="m 343.37802,100.45299 0,-22.101502 -22.91644,0 0,22.101502 -9.12989,0 0,-50.800002 9.12989,0 0,19.6039 22.91644,0 0,-19.6039 9.12989,0 0,50.800002 -9.12989,0 z"
     style="fill:#ffffff;fill-opacity:1;fill-rule:nonzero;stroke:none"
     id="path3292" />
  <path
     inkscape:connector-curvature="0"
     d="m 387.08188,57.852588 c -7.68702,0 -12.33311,6.4135 -12.33311,17.1133 0,10.8691 4.64609,17.2861 12.33311,17.2861 9.64848,0 11.96623,-9.4438 11.96623,-17.2861 0,-10.6998 -4.28978,-17.1133 -11.96623,-17.1133 m 0,43.490502 c -15.01069,0 -21.62175,-13.546702 -21.62175,-26.377202 0,-16.2278 8.21973,-26.2079 21.62175,-26.2079 12.49892,0 21.07848,10.5163 21.07848,26.0245 0,15.8644 -8.21973,26.560602 -21.07848,26.560602"
     style="fill:#ffffff;fill-opacity:1;fill-rule:nonzero;stroke:none"
     id="path3296" />
  <path
     inkscape:connector-curvature="0"
     d="m 444.6658,100.45299 -9.66964,0 -18.45733,-50.800002 9.67317,0 13.71247,37.0734 13.70894,-37.0734 9.66964,0 -18.63725,50.800002 z"
     style="fill:#ffffff;fill-opacity:1;fill-rule:nonzero;stroke:none"
     id="path3300" />
  <path
     inkscape:connector-curvature="0"
     d="m 532.54278,154.12989 -7.03792,16.884 14.07231,0 -7.03439,-16.884 z m 15.82208,37.6414 -4.92478,-11.7863 -21.79814,0 -4.9283,11.7863 -9.84956,0 21.11022,-50.1297 9.14048,0 20.92325,50.1297 -9.67317,0 z"
     style="fill:#ffffff;fill-opacity:1;fill-rule:nonzero;stroke:none"
     id="path3304" />
  <path
     inkscape:connector-curvature="0"
     d="m 642.5106,192.64979 c -13.1903,0 -21.283,-10.3752 -21.283,-26.0315 0,-15.8292 8.0927,-25.8586 21.283,-25.8586 8.0928,0 15.4799,4.0499 19.3534,11.0842 l -7.9163,4.2193 c -1.4076,-2.1096 -2.1096,-2.8152 -3.5137,-3.6936 -1.9367,-1.5805 -5.2846,-2.6388 -7.9234,-2.6388 -9.1404,0 -12.1355,8.9711 -12.1355,16.7111 0,10.9043 4.5755,17.2367 12.1355,17.2367 4.572,0 7.038,-1.5804 11.4371,-6.3324 l 7.9163,4.2263 c -3.6935,7.0344 -11.2606,11.0773 -19.3534,11.0773"
     style="fill:#ffffff;fill-opacity:1;fill-rule:nonzero;stroke:none"
     id="path3308" />
  <path
     inkscape:connector-curvature="0"
     d="m 312.8063,191.77099 0,-50.1297 36.71711,0 0,8.9711 -27.53783,0 0,9.3239 15.00364,0 0,9.1476 -15.00364,0 0,13.716 28.41978,0 0,8.9711 -37.59906,0 z"
     style="fill:#ffffff;fill-opacity:1;fill-rule:nonzero;stroke:none"
     id="path3312" />
  <path
     inkscape:connector-curvature="0"
     d="m 674.6452,191.77099 0,-50.1297 36.7136,0 0,8.9711 -27.5343,0 0,9.3239 15.0036,0 0,9.1476 -15.0036,0 0,13.716 28.4198,0 0,8.9711 -37.5991,0 z"
     style="fill:#ffffff;fill-opacity:1;fill-rule:nonzero;stroke:none"
     id="path3316" />
  <path
     inkscape:connector-curvature="0"
     d="m 394.54313,191.77099 -24.02064,-34.4735 0,34.4735 -8.83708,0 0,-50.1297 8.83708,0 23.1387,33.0658 0,-33.0658 8.65717,0 0,50.1297 -7.77523,0 z"
     style="fill:#ffffff;fill-opacity:1;fill-rule:nonzero;stroke:none"
     id="path3320" />
  <path
     inkscape:connector-curvature="0"
     d="m 600.67122,191.77099 -24.02416,-34.4735 0,34.4735 -8.8265,0 0,-50.1297 8.8265,0 23.14222,33.0658 0,-33.0658 8.65362,0 0,50.1297 -7.77168,0 z"
     style="fill:#ffffff;fill-opacity:1;fill-rule:nonzero;stroke:none"
     id="path3324" />
  <path
     inkscape:connector-curvature="0"
     d="m 482.87166,150.61269 -14.43566,0 0,12.4884 14.43566,0 c 4.39562,0 7.20725,-2.4624 7.20725,-6.156 0,-3.87 -2.81163,-6.3324 -7.20725,-6.3324 m 7.20725,41.1586 -8.08566,-19.6991 -13.55725,0 0,19.6991 -8.96409,0 0,-50.1297 23.22689,0 c 3.68653,0 5.97606,0.5292 8.61131,2.1096 4.74486,2.6388 7.73642,7.5636 7.73642,13.1939 0,5.6268 -2.99156,10.5516 -8.0892,13.3668 l 9.13695,21.4594 -10.01537,0 z"
     style="fill:#ffffff;fill-opacity:1;fill-rule:nonzero;stroke:none"
     id="path3328" />
  <path
     inkscape:connector-curvature="0"
     d="m 435.28544,150.43279 0,41.3385 -8.78417,0 0,-41.3385 -14.40744,0 0,-8.7912 37.59553,0 0,8.7912 -14.40392,0 z"
     style="fill:#ffffff;fill-opacity:1;fill-rule:nonzero;stroke:none"
     id="path3332" />
</svg>
