<?xml version="1.0" encoding="UTF-8" standalone="no"?>
<svg
   xmlns:dc="http://purl.org/dc/elements/1.1/"
   xmlns:cc="http://creativecommons.org/ns#"
   xmlns:rdf="http://www.w3.org/1999/02/22-rdf-syntax-ns#"
   xmlns:svg="http://www.w3.org/2000/svg"
   xmlns="http://www.w3.org/2000/svg"
   xmlns:sodipodi="http://sodipodi.sourceforge.net/DTD/sodipodi-0.dtd"
   xmlns:inkscape="http://www.inkscape.org/namespaces/inkscape"
   width="223.19513"
   height="123.11884"
   viewBox="0 0 629.90627 347.46872"
   version="1.1"
   id="svg2"
   inkscape:version="0.48.2 r9819"
   sodipodi:docname="AJAX1.svg">
  <metadata
     id="metadata62">
    <rdf:RDF>
      <cc:Work
         rdf:about="">
        <dc:format>image/svg+xml</dc:format>
        <dc:type
           rdf:resource="http://purl.org/dc/dcmitype/StillImage" />
        <dc:title></dc:title>
      </cc:Work>
    </rdf:RDF>
  </metadata>
  <defs
     id="defs60" />
  <sodipodi:namedview
     pagecolor="#ffffff"
     bordercolor="#666666"
     borderopacity="1"
     objecttolerance="10"
     gridtolerance="10"
     guidetolerance="10"
     inkscape:pageopacity="0"
     inkscape:pageshadow="2"
     inkscape:window-width="1280"
     inkscape:window-height="1004"
     id="namedview58"
     showgrid="false"
     fit-margin-top="0"
     fit-margin-left="0"
     fit-margin-right="0"
     fit-margin-bottom="0"
     inkscape:zoom="2.7367973"
     inkscape:cx="96.645239"
     inkscape:cy="55.376359"
     inkscape:window-x="-8"
     inkscape:window-y="-8"
     inkscape:window-maximized="1"
     inkscape:current-layer="svg2" />
  <polygon
     points="315,545 235,375 315,205 395,375 "
     id="polygon10"
     style="fill:none;stroke:#ffffff;stroke-width:40"
     transform="translate(805.4375,1163.1249)" />
  <!-- draw the bicycle -->
  <!-- RIGHT -->
  <!-- LANE -->
  <!-- ONLY -->
  <path
     inkscape:connector-curvature="0"
     d="m 42.64011,346.05041 c -22.72947,0 -41.22208,-18.49261 -41.22208,-41.22209 l 0,-262.195016 c 0,-22.733 18.49261,-41.2221 41.22208,-41.2221 l 544.63246,0 c 22.733,0 41.22914,18.4891 41.22914,41.2221 l 0,262.195016 c 0,22.72948 -18.49614,41.22209 -41.22914,41.22209 l -544.63246,0 z"
     style="fill:#ffffff;fill-opacity:1;fill-rule:nonzero;stroke:#000000;stroke-width:2.82222223;stroke-miterlimit:4;stroke-opacity:1;stroke-dasharray:none"
     id="path3112" />
  <path
     inkscape:connector-curvature="0"
     d="m 42.64011,9.016404 c -4.51556,0 -8.90058,0.8925 -13.03514,2.6493 -4.00403,1.6969 -7.60236,4.117 -10.70681,7.2285 -3.08327,3.0938 -5.5245,6.6992 -7.22488,10.6962 -1.75684,4.1522 -2.65289,8.5266 -2.65289,13.0422 l 0,262.195006 c 0,4.51556 0.89605,8.89 2.65289,13.0422 1.70038,3.99697 4.14161,7.59883 7.22488,10.69269 3.10445,3.1115 6.70278,5.53156 10.70681,7.24959 4.13456,1.73919 8.51958,2.63172 13.03514,2.63172 l 80.71168,0 0,-329.427406 z"
     style="fill:#000000;fill-opacity:1;fill-rule:nonzero;stroke:none"
     id="path3124"
     sodipodi:nodetypes="scccsscccsccs" />
  <path
     inkscape:connector-curvature="0"
     d="m 36.04246,173.2253 29.66156,-59.81 30.5823,59.81 -30.5823,60.23678 L 36.04246,173.2253 z M 65.67579,93.063604 25.82954,173.2076 65.67579,253.89144 106.52041,173.2076 65.67579,93.063604 z"
     style="fill:#ffffff;fill-opacity:1;fill-rule:nonzero;stroke:none"
     id="path3128" />
  <path
     inkscape:connector-curvature="0"
     d="m 618.25316,29.589004 c -1.69333,-3.9935 -4.13455,-7.5989 -7.23547,-10.6927 -3.10444,-3.1115 -6.7063,-5.5316 -10.70328,-7.2284 -4.13455,-1.7604 -8.51958,-2.6529 -13.04219,-2.6529 l -463.94866,0 0,329.430926 463.94866,0 c 4.52261,0 8.90764,-0.89253 13.04219,-2.63173 3.99698,-1.71802 7.59884,-4.13808 10.70328,-7.24958 3.10092,-3.09386 5.54214,-6.69572 7.23547,-10.69269 1.74978,-4.1522 2.64231,-8.52664 2.64231,-13.0422 l 0,-262.198526 c 0,-4.5121 -0.89253,-8.89 -2.64231,-13.0422"
     style="fill:#00674c;fill-opacity:1;fill-rule:nonzero;stroke:none"
     id="path3120"
     sodipodi:nodetypes="cccsccscccssc" />
  <path
     inkscape:connector-curvature="0"
     d="m 443.28949,68.808004 -7.07673,16.9933 14.14639,0 -7.06966,-16.9933 z m 15.91733,37.856596 -4.95653,-11.849796 -21.93572,0 -4.95653,11.849796 -9.89894,0 21.22664,-50.415496 9.18986,0 21.05025,50.415496 -9.71903,0 z"
     style="fill:#ffffff;fill-opacity:1;fill-rule:nonzero;stroke:none"
     id="path3132" />
  <path
     inkscape:connector-curvature="0"
     d="m 534.0204,106.6642 0,-50.415496 36.92173,0 0,9.017 -27.69659,0 0,9.3733 15.09537,0 0,9.2075 -15.09537,0 0,13.8042 28.58912,0 0,9.013496 -37.81426,0 z"
     style="fill:#ffffff;fill-opacity:1;fill-rule:nonzero;stroke:none"
     id="path3136" />
  <path
     inkscape:connector-curvature="0"
     d="m 374.3426,106.6642 0,-50.415496 9.05933,0 0,42.6403 28.75492,0 0,7.775196 -37.81425,0 z"
     style="fill:#ffffff;fill-opacity:1;fill-rule:nonzero;stroke:none"
     id="path3140" />
  <path
     inkscape:connector-curvature="0"
     d="m 511.8201,106.6642 -24.15822,-34.667496 0,34.667496 -8.89,0 0,-50.415496 8.89,0 23.26569,33.2564 0,-33.2564 8.70656,0 0,50.415496 -7.81403,0 z"
     style="fill:#ffffff;fill-opacity:1;fill-rule:nonzero;stroke:none"
     id="path3144" />
  <path
     inkscape:connector-curvature="0"
     d="m 204.20456,105.7823 0,-21.935796 -22.74711,0 0,21.935796 -9.06639,0 0,-50.426096 9.06639,0 0,19.4698 22.74711,0 0,-19.4698 9.06639,0 0,50.426096 -9.06639,0 z"
     style="fill:#ffffff;fill-opacity:1;fill-rule:nonzero;stroke:none"
     id="path3148" />
  <path
     inkscape:connector-curvature="0"
     d="m 247.57506,63.505704 c -7.61647,0 -12.2308,6.3606 -12.2308,16.9828 0,10.7985 4.61433,17.1626 12.2308,17.1626 9.58145,0 11.89567,-9.3768 11.89567,-17.1626 0,-10.6222 -4.25803,-16.9828 -11.89567,-16.9828 m 0,43.158896 c -14.8978,0 -21.45594,-13.430296 -21.45594,-26.176096 0,-16.1008 8.16328,-26.0139 21.45594,-26.0139 12.42484,0 20.93736,10.4422 20.93736,25.8375 0,15.748 -8.1668,26.352496 -20.93736,26.352496"
     style="fill:#ffffff;fill-opacity:1;fill-rule:nonzero;stroke:none"
     id="path3152" />
  <path
     inkscape:connector-curvature="0"
     d="m 304.75328,105.7823 -9.59908,0 -18.32681,-50.426096 9.59909,0 13.61369,36.8159 13.61017,-36.8159 9.60614,0 -18.5032,50.426096 z"
     style="fill:#ffffff;fill-opacity:1;fill-rule:nonzero;stroke:none"
     id="path3156" />
  <path
     inkscape:connector-curvature="0"
     d="m 392.25665,158.9092 -7.0873,16.9933 14.15344,0 -7.06614,-16.9933 z m 15.90675,37.8566 -4.94947,-11.8463 -21.93572,0 -4.94595,11.8463 -9.90953,0 21.21959,-50.4225 9.2075,0 21.04319,50.4225 -9.72961,0 z"
     style="fill:#ffffff;fill-opacity:1;fill-rule:nonzero;stroke:none"
     id="path3160" />
  <path
     inkscape:connector-curvature="0"
     d="m 502.87718,197.67 c -13.2715,0 -21.41714,-10.4458 -21.41714,-26.1938 0,-15.9244 8.14564,-26.0174 21.41714,-26.0174 8.13153,0 15.55397,4.0746 19.45217,11.1513 l -7.9622,4.244 c -1.41463,-2.1202 -2.12372,-2.8293 -3.53483,-3.7113 -1.9438,-1.591 -5.30225,-2.6528 -7.95514,-2.6528 -9.20397,0 -12.21317,9.024 -12.21317,16.8098 0,10.9749 4.5967,17.339 12.21317,17.339 4.5967,0 7.06967,-1.591 11.48997,-6.3641 l 7.9622,4.2404 c -3.70417,7.0803 -11.32064,11.1549 -19.45217,11.1549"
     style="fill:#ffffff;fill-opacity:1;fill-rule:nonzero;stroke:none"
     id="path3164" />
  <path
     inkscape:connector-curvature="0"
     d="m 171.21419,196.7675 0,-50.4225 36.93231,0 0,9.0205 -27.70717,0 0,9.3769 15.09536,0 0,9.2181 -15.09536,0 0,13.783 28.58911,0 0,9.024 -37.81425,0 z"
     style="fill:#ffffff;fill-opacity:1;fill-rule:nonzero;stroke:none"
     id="path3168" />
  <path
     inkscape:connector-curvature="0"
     d="m 535.19515,196.7675 0,-50.4225 36.93231,0 0,9.0205 -27.69658,0 0,9.3769 15.09536,0 0,9.2181 -15.09536,0 0,13.783 28.58911,0 0,9.024 -37.82484,0 z"
     style="fill:#ffffff;fill-opacity:1;fill-rule:nonzero;stroke:none"
     id="path3172" />
  <path
     inkscape:connector-curvature="0"
     d="m 253.42482,196.7675 -24.16175,-34.6674 0,34.6674 -8.88647,0 0,-50.4225 8.88647,0 23.28686,33.2599 0,-33.2599 8.70656,0 0,50.4225 -7.83167,0 z"
     style="fill:#ffffff;fill-opacity:1;fill-rule:nonzero;stroke:none"
     id="path3176" />
  <path
     inkscape:connector-curvature="0"
     d="m 460.78726,196.7675 -24.1688,-34.6674 0,34.6674 -8.89,0 0,-50.4225 8.89,0 23.27628,33.2599 0,-33.2599 8.70302,0 0,50.4225 -7.8105,0 z"
     style="fill:#ffffff;fill-opacity:1;fill-rule:nonzero;stroke:none"
     id="path3180" />
  <path
     inkscape:connector-curvature="0"
     d="m 342.29096,155.3659 -14.52739,0 0,12.5765 14.52739,0 c 4.4203,0 7.24958,-2.4765 7.24958,-6.2053 0,-3.8877 -2.82928,-6.3712 -7.24958,-6.3712 m 7.24958,41.402 -8.14211,-19.7944 -13.63486,0 0,19.7944 -9.01348,0 0,-50.4261 23.35389,0 c 3.70417,0 6.01839,0.5327 8.67128,2.1237 4.76956,2.667 7.77522,7.6165 7.77522,13.2716 0,5.6761 -3.00566,10.6221 -8.128,13.4514 l 9.18986,21.5794 -10.0718,0 z"
     style="fill:#ffffff;fill-opacity:1;fill-rule:nonzero;stroke:none"
     id="path3184" />
  <path
     inkscape:connector-curvature="0"
     d="m 294.41091,155.1987 0,41.5678 -8.83708,0 0,-41.5678 -14.48858,0 0,-8.8547 37.81777,0 0,8.8547 -14.49211,0 z"
     style="fill:#ffffff;fill-opacity:1;fill-rule:nonzero;stroke:none"
     id="path3188" />
  <path
     inkscape:connector-curvature="0"
     d="m 450.75779,286.96012 0,-40.35072 29.54161,0 0,7.21078 -22.15444,0 0,7.51064 12.06147,0 0,7.35189 -12.06147,0 0,11.04547 22.87058,0 0,7.23194 -30.25775,0 z"
     style="fill:#ffffff;fill-opacity:1;fill-rule:nonzero;stroke:none"
     id="path3192" />
  <path
     inkscape:connector-curvature="0"
     d="m 392.41187,246.61081 7.26723,0 0,40.35073 -7.26723,0 0,-40.35073 z"
     style="fill:#ffffff;fill-opacity:1;fill-rule:nonzero;stroke:none"
     id="path3194" />
  <path
     inkscape:connector-curvature="0"
     d="m 412.26268,286.96012 0,-40.35072 7.24606,0 0,34.11009 23.01522,0 0,6.24063 -30.26128,0 z"
     style="fill:#ffffff;fill-opacity:1;fill-rule:nonzero;stroke:none"
     id="path3198" />
  <path
     inkscape:connector-curvature="0"
     d="m 372.71629,286.96012 0,-24.62741 -11.92742,24.62741 -11.79689,-24.62741 0,24.62741 -7.09789,0 0,-40.35072 7.09789,0 11.79689,23.93245 11.92742,-23.93245 7.11553,0 0,40.35072 -7.11553,0 z"
     style="fill:#ffffff;fill-opacity:1;fill-rule:nonzero;stroke:none"
     id="path3202" />
  <path
     inkscape:connector-curvature="0"
     d="m 270.81888,297.03512 0.21167,-45.22964 -7.60236,0 -0.20814,-8.70656 c 4.64608,-1.06539 7.1755,-2.74814 9.49678,-6.58283 l 8.65011,0 0,60.51903 -10.54806,0 z"
     style="fill:#ffffff;fill-opacity:1;fill-rule:nonzero;stroke:none"
     id="path3206" />
</svg>
