<?xml version="1.0" encoding="UTF-8" standalone="no"?>
<svg
   xmlns:dc="http://purl.org/dc/elements/1.1/"
   xmlns:cc="http://creativecommons.org/ns#"
   xmlns:rdf="http://www.w3.org/1999/02/22-rdf-syntax-ns#"
   xmlns:svg="http://www.w3.org/2000/svg"
   xmlns="http://www.w3.org/2000/svg"
   xmlns:sodipodi="http://sodipodi.sourceforge.net/DTD/sodipodi-0.dtd"
   xmlns:inkscape="http://www.inkscape.org/namespaces/inkscape"
   width="82.005409"
   height="114.73671"
   viewBox="0 0 231.43749 323.81248"
   version="1.1"
   id="svg2"
   inkscape:version="0.48.2 r9819"
   sodipodi:docname="MUTCD E8-6.svg">
  <metadata
     id="metadata62">
    <rdf:RDF>
      <cc:Work
         rdf:about="">
        <dc:format>image/svg+xml</dc:format>
        <dc:type
           rdf:resource="http://purl.org/dc/dcmitype/StillImage" />
        <dc:title></dc:title>
      </cc:Work>
    </rdf:RDF>
  </metadata>
  <defs
     id="defs60" />
  <sodipodi:namedview
     pagecolor="#ffffff"
     bordercolor="#666666"
     borderopacity="1"
     objecttolerance="10"
     gridtolerance="10"
     guidetolerance="10"
     inkscape:pageopacity="0"
     inkscape:pageshadow="2"
     inkscape:window-width="1280"
     inkscape:window-height="1004"
     id="namedview58"
     showgrid="false"
     fit-margin-top="0"
     fit-margin-left="0"
     fit-margin-right="0"
     fit-margin-bottom="0"
     inkscape:zoom="3.8704158"
     inkscape:cx="40.790267"
     inkscape:cy="34.181212"
     inkscape:window-x="-8"
     inkscape:window-y="-8"
     inkscape:window-maximized="1"
     inkscape:current-layer="svg2"
     showguides="true"
     inkscape:guide-bbox="true" />
  <polygon
     points="315,545 235,375 315,205 395,375 "
     id="polygon10"
     style="fill:none;stroke:#ffffff;stroke-width:40"
     transform="translate(-2796.0938,14596.188)" />
  <!-- draw the bicycle -->
  <!-- RIGHT -->
  <!-- LANE -->
  <!-- ONLY -->
  <path
     inkscape:connector-curvature="0"
     d="m 230.02031,299.46354 c 0,12.6118 -10.31875,22.9305 -22.93055,22.9305 l -182.74242,0 c -12.61181,0 -22.92703,-10.3187 -22.92703,-22.9305 l 0,-275.131401 c 0,-12.6154 10.31522,-22.9306002 22.92703,-22.9306002 l 182.74242,0 c 12.6118,0 22.93055,10.3152002 22.93055,22.9306002 l 0,275.131401 z"
     style="fill:#ffffff;stroke:#000000;stroke-width:2.82222223;stroke-linecap:butt;stroke-linejoin:miter;stroke-miterlimit:4;stroke-opacity:1;stroke-dasharray:none"
     id="path12575" />
  <path
     inkscape:connector-curvature="0"
     d="m 7.32828,299.63984 c 0,4.5685 1.79564,8.8794 5.05883,12.1391 3.25967,3.2632 7.57061,5.0588 12.13909,5.0588 l 182.74242,0 c 4.56847,0 8.87941,-1.7956 12.13908,-5.0588 3.25967,-3.2597 5.05883,-7.5706 5.05883,-12.1391 l 0,-206.364701 -217.13825,0 z"
     style="fill:#00674c;fill-opacity:1;fill-rule:nonzero;stroke:none"
     id="path12583"
     sodipodi:nodetypes="scsscsccs" />
  <path
     inkscape:connector-curvature="0"
     d="M 219.40839,12.366939 C 216.14873,9.1072388 211.83425,7.3080388 207.26931,7.3080388 l -182.74595,0 c -4.56847,0 -8.87589,1.7992 -12.13908,5.0589002 -3.25967,3.2596 -5.05531,7.5706 -5.05531,12.1391 l 0,68.7945 217.13826,0 0,-68.7945 c 0,-4.5685 -1.79917,-8.8795 -5.05884,-12.1391"
     style="fill:#000000;fill-opacity:1;fill-rule:nonzero;stroke:none"
     id="path12587"
     sodipodi:nodetypes="csscsccsc" />
  <path
     inkscape:connector-curvature="0"
     d="m 132.43882,217.65644 c -0.0353,-0.021 -0.067,-0.042 -0.0953,-0.063 -0.21167,-0.1129 -0.42686,-0.1976 -0.64558,-0.2576 -0.0212,-0.01 -0.0388,-0.021 -0.06,-0.025 l 0,0.01 c -0.0741,-0.021 -0.14816,-0.042 -0.22225,-0.056 l -0.7373,-0.1023 -54.03498,-10.4704 -1.016,-0.1411 c -1.016,-0.1447 -2.032,0.1905 -2.7058,0.8678 -0.77259,0.7726 -1.11125,1.7851 -0.91722,2.7482 l 0.13405,0.6773 10.55511,54.2008 0.1517,0.9489 c 0.14816,0.628 0.43744,1.1113 0.92075,1.5911 1.2065,1.2065 3.18558,1.2559 4.44147,0 0.14464,-0.1447 0.28575,-0.3846 0.381,-0.5821 l 0.32455,-0.575 11.85687,-19.2899 43.28936,47.1522 15.78328,-15.7797 -47.05703,-43.2894 -0.0953,0 19.00061,-11.6804 0.69144,-0.4869 c 0.23989,-0.1446 0.47978,-0.2893 0.67381,-0.4798 1.2065,-1.2065 1.2065,-3.2314 0,-4.4379 -0.19403,-0.1976 -0.40217,-0.3492 -0.61736,-0.4798"
     style="fill:#ffffff;fill-opacity:1;fill-rule:nonzero;stroke:none"
     id="path12591" />
  <path
     inkscape:connector-curvature="0"
     d="m 103.34839,50.445439 12.68589,-25.5764 13.081,25.5764 -13.081,25.7633 -12.68589,-25.7633 z m 12.67178,-34.2865 -17.03916,34.2829 17.03916,34.5017 17.46956,-34.5017 -17.46956,-34.2829 z"
     style="fill:#ffffff;fill-opacity:1;fill-rule:nonzero;stroke:none"
     id="path12595" />
  <path
     inkscape:connector-curvature="0"
     d="m 31.49885,172.34984 0,-45.854 33.58797,0 0,8.2056 -25.19186,0 0,8.5266 13.72658,0 0,8.3679 -13.72658,0 0,12.5518 25.99619,0 0,8.2021 -34.3923,0 z"
     style="fill:#ffffff;fill-opacity:1;fill-rule:nonzero;stroke:none"
     id="path12599" />
  <path
     inkscape:connector-curvature="0"
     d="m 138.04056,126.49684 8.255,0 0,45.8541 -8.255,0 0,-45.8541 z"
     style="fill:#ffffff;fill-opacity:1;fill-rule:nonzero;stroke:none"
     id="path12601" />
  <path
     inkscape:connector-curvature="0"
     d="m 184.5476,134.54024 0,37.8107 -8.03275,0 0,-37.8107 -13.17978,0 0,-8.0434 34.39231,0 0,8.0434 -13.17978,0 z"
     style="fill:#ffffff;fill-opacity:1;fill-rule:nonzero;stroke:none"
     id="path12605" />
  <path
     inkscape:connector-curvature="0"
     d="m 110.85164,172.34984 -10.34345,-16.2489 -10.18116,16.2489 -9.69434,0 15.02481,-24.1335 -13.73364,-21.7205 9.86014,0 8.72419,13.9982 8.72773,-13.9982 9.85661,0 -13.57489,21.7205 15.03186,24.1335 -9.69786,0 z"
     style="fill:#ffffff;fill-opacity:1;fill-rule:nonzero;stroke:none"
     id="path12609" />
</svg>
