<?xml version="1.0" encoding="UTF-8" standalone="no"?>
<svg
   xmlns:dc="http://purl.org/dc/elements/1.1/"
   xmlns:cc="http://creativecommons.org/ns#"
   xmlns:rdf="http://www.w3.org/1999/02/22-rdf-syntax-ns#"
   xmlns:svg="http://www.w3.org/2000/svg"
   xmlns="http://www.w3.org/2000/svg"
   xmlns:sodipodi="http://sodipodi.sourceforge.net/DTD/sodipodi-0.dtd"
   xmlns:inkscape="http://www.inkscape.org/namespaces/inkscape"
   width="82.005409"
   height="135.99655"
   viewBox="0 0 231.43749 383.81247"
   version="1.1"
   id="svg2"
   inkscape:version="0.48.2 r9819"
   sodipodi:docname="MUTCD E8-1a.svg">
  <metadata
     id="metadata62">
    <rdf:RDF>
      <cc:Work
         rdf:about="">
        <dc:format>image/svg+xml</dc:format>
        <dc:type
           rdf:resource="http://purl.org/dc/dcmitype/StillImage" />
        <dc:title></dc:title>
      </cc:Work>
    </rdf:RDF>
  </metadata>
  <defs
     id="defs60" />
  <sodipodi:namedview
     pagecolor="#ffffff"
     bordercolor="#666666"
     borderopacity="1"
     objecttolerance="10"
     gridtolerance="10"
     guidetolerance="10"
     inkscape:pageopacity="0"
     inkscape:pageshadow="2"
     inkscape:window-width="1280"
     inkscape:window-height="1004"
     id="namedview58"
     showgrid="false"
     fit-margin-top="0"
     fit-margin-left="0"
     fit-margin-right="0"
     fit-margin-bottom="0"
     inkscape:zoom="3.8704158"
     inkscape:cx="25.321748"
     inkscape:cy="61.708858"
     inkscape:window-x="-8"
     inkscape:window-y="-8"
     inkscape:window-maximized="1"
     inkscape:current-layer="svg2"
     showguides="true"
     inkscape:guide-bbox="true" />
  <polygon
     points="315,205 395,375 315,545 235,375 "
     id="polygon10"
     style="fill:none;stroke:#ffffff;stroke-width:40"
     transform="translate(-2019.75,10338.344)" />
  <!-- draw the bicycle -->
  <!-- RIGHT -->
  <!-- LANE -->
  <!-- ONLY -->
  <path
     inkscape:connector-curvature="0"
     d="m 230.0221,363.35618 c 0,10.5233 -8.52664,19.05 -19.04648,19.05 l -190.5,0 c -10.52337,0 -19.05353,-8.5267 -19.05353,-19.05 l 0,-342.9 c 0,-10.5199 8.53016,-19.05 19.05353,-19.05 l 190.5,0 c 10.51984,0 19.04648,8.5301 19.04648,19.05 l 0,342.9 z"
     style="fill:#ffffff;fill-opacity:1;fill-rule:evenodd;stroke:#000000;stroke-width:2.82222223;stroke-miterlimit:4;stroke-opacity:1;stroke-dasharray:none"
     id="path11835" />
  <path
     inkscape:connector-curvature="0"
     d="m 223.67279,115.69028 0,247.6655 c 0,7.0027 -5.69736,12.7 -12.7,12.7 l -190.50001,0 c -7.00264,0 -12.7,-5.6973 -12.7,-12.7 l 0,-247.6655 z"
     style="fill:#00674c;fill-opacity:1;fill-rule:evenodd;stroke:none"
     id="path11859"
     sodipodi:nodetypes="csssscc" />
  <path
     inkscape:connector-curvature="0"
     d="m 7.77209,115.71848 0,-95.2627 c 0,-7.0026 5.69736,-12.7 12.70353,-12.7 l 190.5,0 c 6.99911,0 12.69648,5.6974 12.69648,12.7 l 0,95.2627 z"
     style="fill:#000000;fill-opacity:1;fill-rule:evenodd;stroke:none"
     id="path11863"
     sodipodi:nodetypes="csssscc" />
  <path
     inkscape:connector-curvature="0"
     d="m 96.98289,61.73508 18.45733,-37.1899 19.00414,37.1899 -19.00414,37.4614 -18.45733,-37.4614 z m 18.42558,-49.8546 -24.76853,49.851 24.76853,50.1686 25.39647,-50.1686 -25.39647,-49.851 z"
     style="fill:#ffffff;fill-opacity:1;fill-rule:nonzero;stroke:none"
     id="path11867" />
  <path
     inkscape:connector-curvature="0"
     d="m 73.70768,195.34608 -5.44689,-13.081 -5.48922,13.081 10.93611,0 z m 13.98411,15.6104 -7.4295,0 -3.6583,-8.7312 -16.68639,0 -3.65831,8.7312 -7.4295,0 15.92792,-38.1 6.97089,0 15.96319,38.1 z"
     style="fill:#ffffff;fill-opacity:1;fill-rule:nonzero;stroke:none"
     id="path11871" />
  <path
     inkscape:connector-curvature="0"
     d="m 99.55991,210.95578 -6.87916,0 0,-35.5247 6.87916,-2.9704 0,38.4951 z"
     style="fill:#ffffff;fill-opacity:1;fill-rule:nonzero;stroke:none"
     id="path11875" />
  <path
     inkscape:connector-curvature="0"
     d="m 113.22901,210.95718 -6.83683,0 0,-27.813 6.83683,0 0,27.813 z m 0.13053,-34.9885 c 0,0.9631 -0.34572,1.7957 -1.04422,2.4977 -0.70556,0.6985 -1.53459,1.0478 -2.5012,1.0478 -0.97014,0 -1.80269,-0.3493 -2.50119,-1.0478 -0.70203,-0.702 -1.04775,-1.5346 -1.04775,-2.4977 0,-0.9419 0.34572,-1.7603 1.04775,-2.4623 0.6985,-0.6985 1.53105,-1.0478 2.50119,-1.0478 0.96661,0 1.79564,0.3422 2.5012,1.0301 0.6985,0.6879 1.04422,1.5134 1.04422,2.48"
     style="fill:#ffffff;fill-opacity:1;fill-rule:nonzero;stroke:none"
     id="path11877" />
  <path
     inkscape:connector-curvature="0"
     d="m 142.5854,205.97108 c -1.11478,1.5769 -2.6035,2.8504 -4.45911,3.817 -1.97909,1.0443 -4.03578,1.5628 -6.17009,1.5628 -3.60538,0 -6.67455,-1.3934 -9.20044,-4.1874 -2.52942,-2.794 -3.79236,-6.0996 -3.79236,-9.9096 0,-3.9863 1.1183,-7.3413 3.35492,-10.0541 2.413,-2.9492 5.63738,-4.4203 9.67669,-4.4203 4.064,0 7.59178,1.8344 10.59039,5.5139 l -4.45206,5.5527 c -1.97908,-2.794 -4.04636,-4.1875 -6.20536,-4.1875 -4.05694,0 -6.08541,2.4801 -6.08541,7.4436 0,4.9142 1.91558,7.3696 5.74675,7.3696 1.13947,0 2.00377,-0.099 2.58586,-0.3034 1.21708,-0.4304 2.4518,-1.3441 3.69005,-2.7376 l 4.72017,4.5403 z"
     style="fill:#ffffff;fill-opacity:1;fill-rule:nonzero;stroke:none"
     id="path11881" />
  <path
     inkscape:connector-curvature="0"
     d="m 153.99601,210.95718 -6.83683,0 0,-27.813 6.83683,0 0,27.813 z m 0.13053,-34.9885 c 0,0.9631 -0.34925,1.7957 -1.04775,2.4977 -0.70203,0.6985 -1.53106,1.0478 -2.5012,1.0478 -0.96661,0 -1.79916,-0.3493 -2.50119,-1.0478 -0.6985,-0.702 -1.04775,-1.5346 -1.04775,-2.4977 0,-0.9419 0.34925,-1.7603 1.04775,-2.4623 0.70203,-0.6985 1.53458,-1.0478 2.50119,-1.0478 0.97014,0 1.79917,0.3422 2.5012,1.0301 0.6985,0.6879 1.04775,1.5134 1.04775,2.48"
     style="fill:#ffffff;fill-opacity:1;fill-rule:nonzero;stroke:none"
     id="path11883" />
  <path
     inkscape:connector-curvature="0"
     d="m 176.13386,203.56268 0,-3.5807 c -1.80622,-0.9913 -3.78531,-1.4817 -5.94783,-1.4817 -3.14678,0 -4.7237,1.1748 -4.7237,3.5384 0,1.1465 0.43392,2.039 1.2947,2.6881 0.8643,0.6492 1.9685,0.9737 3.31611,0.9737 2.1343,0 4.15572,-0.7161 6.06072,-2.1378 m 6.48406,7.3942 -6.48406,0 0,-1.3723 c -2.36714,1.1783 -4.8507,1.7674 -7.44361,1.7674 -2.82928,0 -5.12939,-0.9525 -6.91092,-2.8575 -1.62983,-1.7815 -2.44828,-3.9299 -2.44828,-6.4488 0,-2.8187 0.99484,-5.0412 2.98098,-6.671 1.98613,-1.6263 4.62138,-2.4412 7.90222,-2.4412 1.88736,0 3.85586,0.2787 5.91961,0.8396 0,-1.464 -0.48331,-2.6317 -1.44639,-3.489 -0.79022,-0.6808 -1.62631,-1.0266 -2.51531,-1.0266 -2.81869,0 -5.49627,0.7091 -8.03275,2.1167 l -2.36008,-5.401 c 3.85586,-2.1308 7.32367,-3.1962 10.39989,-3.1962 2.81869,0 5.22817,0.9137 7.239,2.7411 2.13078,1.9579 3.1997,4.4062 3.1997,7.3519 l 0,18.0869 z"
     style="fill:#ffffff;fill-opacity:1;fill-rule:nonzero;stroke:none"
     id="path11887" />
  <path
     inkscape:connector-curvature="0"
     d="m 75.93724,241.72408 c 0,-1.2418 -0.52564,-2.3636 -1.57692,-3.3514 -1.05128,-0.9913 -2.21192,-1.4887 -3.48192,-1.4887 l -12.09322,0 0,9.525 12.17083,0 c 1.26648,0 2.413,-0.4692 3.43959,-1.4076 1.02658,-0.9419 1.54164,-2.032 1.54164,-3.2773 m 6.8333,0 c -0.0212,3.3584 -1.17828,6.1242 -3.46075,8.3044 -2.28247,2.1695 -5.02708,3.2596 -8.22678,3.2596 l -12.29783,0 0,14.8167 -6.88269,0 0,-38.0965 19.16994,0 c 3.20322,0 5.95842,1.1289 8.27264,3.3973 2.31069,2.2613 3.45369,5.0341 3.42547,8.3185"
     style="fill:#ffffff;fill-opacity:1;fill-rule:nonzero;stroke:none"
     id="path11891" />
  <path
     inkscape:connector-curvature="0"
     d="m 110.60115,268.10618 -6.96383,0 -5.13644,-12.4989 -3.87703,4.7272 0,7.7717 -6.87917,0 0,-35.5248 6.87917,-2.9739 0,19.7133 7.26722,-9.0276 8.75242,0 -7.54592,9.4474 7.50358,18.3656 z"
     style="fill:#ffffff;fill-opacity:1;fill-rule:nonzero;stroke:none"
     id="path11895" />
  <path
     inkscape:connector-curvature="0"
     d="m 133.89719,240.28048 3.81,15.4093 4.2298,-15.4093 6.74159,0 -7.62,27.8271 -6.6287,0 -4.03578,-16.383 -4.04283,16.383 -6.62869,0 -7.62,-27.8271 6.74511,0 4.2298,15.4093 3.81,-15.4093 7.0097,0 z"
     style="fill:#ffffff;fill-opacity:1;fill-rule:nonzero;stroke:none"
     id="path11899" />
  <path
     inkscape:connector-curvature="0"
     d="m 179.54099,240.28048 -14.6685,38.1458 -6.97442,-0.039 3.88761,-10.2905 -11.58169,-27.8165 6.97089,0 8.001,19.1382 7.4295,-19.1382 6.93561,0 z"
     style="fill:#ffffff;fill-opacity:1;fill-rule:nonzero;stroke:none"
     id="path11903" />
  <path
     inkscape:connector-curvature="0"
     d="m 112.79933,132.96938 -7.16492,0 0,20.835 -4.71664,0 0,-20.835 -7.16492,0 0,-4.565 19.04648,0 0,4.565 z"
     style="fill:#ffffff;fill-opacity:1;fill-rule:nonzero;stroke:none"
     id="path11907" />
  <path
     inkscape:connector-curvature="0"
     d="m 133.24243,141.10648 c 0,-2.2648 -0.51505,-4.2121 -1.54516,-5.8349 -1.1677,-1.8309 -2.72698,-2.7446 -4.67431,-2.7446 -1.92969,0 -3.47486,0.9137 -4.64256,2.7446 -1.04775,1.6228 -1.57338,3.5701 -1.57338,5.8349 0,2.2508 0.52563,4.191 1.57338,5.8103 1.1677,1.8309 2.71287,2.7446 4.64256,2.7446 1.94733,0 3.50661,-0.9137 4.67431,-2.7446 1.03011,-1.6193 1.54516,-3.5595 1.54516,-5.8103 m 4.45559,0 c 0,3.4678 -0.95956,6.4665 -2.87514,8.9923 -2.04964,2.6917 -4.64609,4.0358 -7.79992,4.0358 -3.14678,0 -5.75028,-1.3441 -7.79992,-4.0358 -1.91558,-2.5258 -2.86808,-5.5245 -2.86808,-8.9923 0,-3.4713 0.9525,-6.4699 2.86808,-8.9923 2.04964,-2.6952 4.65314,-4.0393 7.79992,-4.0393 3.15383,0 5.75028,1.3441 7.79992,4.0393 1.91558,2.5224 2.87514,5.521 2.87514,8.9923"
     style="fill:#ffffff;fill-opacity:1;fill-rule:nonzero;stroke:none"
     id="path11911" />
  <path
     inkscape:connector-curvature="0"
     d="m 141.94828,335.78658 c 0,-0.023 0.0245,-0.042 0.0245,-0.074 0.0317,-0.1764 0.0529,-0.3528 0.0635,-0.5045 l 0,-0.053 0,0.02 c 0,-0.067 0,-0.134 -0.0178,-0.1763 l -0.0459,-0.5574 -2.4518,-40.4601 -0.10231,-0.7585 c -0.0847,-0.7444 -0.52211,-1.4111 -1.10067,-1.7709 -0.71613,-0.4057 -1.47813,-0.4481 -2.159,-0.1411 l -0.42686,0.2046 -36.72769,17.4977 -0.66675,0.2823 c -0.42686,0.2435 -0.71614,0.515 -0.9525,0.9525 -0.64559,1.0865 -0.32103,2.4941 0.82197,3.1855 0.13053,0.056 0.29633,0.1095 0.46567,0.166 l 0.4833,0.1163 15.93145,4.9036 -25.68223,39.5428 14.18167,8.3609 22.21089,-41.5149 -0.0212,-0.074 11.81806,11.4088 0.47977,0.3951 c 0.1517,0.1552 0.30692,0.2964 0.48331,0.4057 1.07244,0.6244 2.51531,0.2611 3.175,-0.8184 0.0741,-0.1798 0.14817,-0.3528 0.21519,-0.5398"
     style="fill:#ffffff;fill-opacity:1;fill-rule:nonzero;stroke:none"
     id="path12005" />
</svg>
