<?xml version="1.0" encoding="UTF-8" standalone="no"?>
<!-- Created with Inkscape (http://www.inkscape.org/) -->

<svg
   xmlns:dc="http://purl.org/dc/elements/1.1/"
   xmlns:cc="http://creativecommons.org/ns#"
   xmlns:rdf="http://www.w3.org/1999/02/22-rdf-syntax-ns#"
   xmlns:svg="http://www.w3.org/2000/svg"
   xmlns="http://www.w3.org/2000/svg"
   xmlns:sodipodi="http://sodipodi.sourceforge.net/DTD/sodipodi-0.dtd"
   xmlns:inkscape="http://www.inkscape.org/namespaces/inkscape"
   width="90"
   height="89.998749"
   id="svg2"
   sodipodi:version="0.32"
   inkscape:version="0.48.2 r9819"
   version="1.0"
   sodipodi:docname="AJAX1.svg"
   inkscape:output_extension="org.inkscape.output.svg.inkscape"
   sodipodi:modified="true">
  <defs
     id="defs4" />
  <sodipodi:namedview
     id="base"
     pagecolor="#ffffff"
     bordercolor="#666666"
     borderopacity="1.0"
     inkscape:pageopacity="0.0"
     inkscape:pageshadow="2"
     inkscape:zoom="5.6"
     inkscape:cx="36.115271"
     inkscape:cy="43.731141"
     inkscape:document-units="px"
     inkscape:current-layer="layer2"
     inkscape:window-width="1280"
     inkscape:window-height="1004"
     inkscape:window-x="-8"
     inkscape:window-y="-8"
     showguides="true"
     inkscape:guide-bbox="true"
     showgrid="false"
     fit-margin-top="0"
     fit-margin-left="0"
     fit-margin-right="0"
     fit-margin-bottom="0"
     inkscape:window-maximized="1" />
  <metadata
     id="metadata7">
    <rdf:RDF>
      <cc:Work
         rdf:about="">
        <dc:format>image/svg+xml</dc:format>
        <dc:type
           rdf:resource="http://purl.org/dc/dcmitype/StillImage" />
      </cc:Work>
    </rdf:RDF>
  </metadata>
  <g
     inkscape:groupmode="layer"
     id="layer2"
     inkscape:label="Dessin"
     transform="translate(254.7134,-2.584729)">
    <g
       id="g3485"
       transform="matrix(1.25,0,0,-1.25,-252.7434,43.143479)"
       style="stroke:none">
      <path
         d="m 0,0 30.817,30.816 c 0.899,1.013 2.232,1.631 3.6,1.631 1.369,0 2.718,-0.599 3.619,-1.631 L 68.849,0 c 0.994,-0.899 1.575,-2.212 1.575,-3.562 l 0,-31.191 c 0,-2.643 -2.156,-4.799 -4.799,-4.799 l -62.401,0 c -2.643,0 -4.8,2.156 -4.8,4.799 l 0,31.191 c 0,1.35 0.583,2.663 1.576,3.562"
         style="fill:#ffd033;fill-opacity:1;fill-rule:nonzero;stroke:none"
         id="path3487"
         inkscape:connector-curvature="0" />
    </g>
    <g
       id="g3493"
       transform="matrix(1.25,0,0,-1.25,-213.09465,5.7008544)"
       style="stroke:none">
      <path
         d="m 0,0 0.159,0.17 c 0.393,0.387 0.829,0.664 1.344,0.86 0.09,0.032 0.179,0.06 0.27,0.087 0.599,0.158 1.165,0.165 1.768,0.026 L 3.725,1.092 C 4.344,0.898 4.867,0.582 5.314,0.11 l 30.95,-30.962 0.161,-0.154 c 0.375,-0.388 0.641,-0.818 0.827,-1.324 0.102,-0.3 0.165,-0.593 0.195,-0.908 0.006,-0.096 0.009,-0.19 0.01,-0.287 l -0.004,-31.364 c -0.014,-0.182 -0.036,-0.354 -0.068,-0.531 -0.04,-0.174 -0.087,-0.336 -0.143,-0.504 -0.109,-0.276 -0.232,-0.516 -0.392,-0.764 -0.101,-0.142 -0.204,-0.273 -0.317,-0.404 -0.203,-0.213 -0.407,-0.389 -0.646,-0.559 -0.147,-0.095 -0.292,-0.177 -0.446,-0.258 -0.273,-0.123 -0.53,-0.21 -0.821,-0.277 -0.179,-0.033 -0.35,-0.055 -0.532,-0.068 l -62.566,-0.004 c -0.19,0.004 -0.368,0.015 -0.556,0.041 -0.176,0.031 -0.342,0.068 -0.513,0.117 -0.281,0.096 -0.527,0.207 -0.784,0.356 -0.146,0.093 -0.282,0.191 -0.419,0.298 -0.222,0.192 -0.408,0.387 -0.589,0.618 -0.101,0.142 -0.191,0.283 -0.278,0.433 -0.136,0.266 -0.235,0.516 -0.317,0.803 -0.04,0.176 -0.07,0.344 -0.093,0.521 l -0.019,0.379 10e-4,31.268 0.01,0.186 c 0.059,0.636 0.26,1.202 0.612,1.734 0.142,0.205 0.296,0.388 0.474,0.563 L 0,0 z"
         style="fill:#000000;fill-opacity:1;fill-rule:evenodd;stroke:none"
         id="path3495"
         inkscape:connector-curvature="0" />
    </g>
    <g
       id="g3497"
       transform="matrix(1.25,0,0,-1.25,-211.35965,7.3597294)"
       style="stroke:none">
      <path
         d="M 0,0 0.136,0.146 C 0.414,0.421 0.762,0.595 1.15,0.643 1.654,0.692 2.167,0.502 2.516,0.135 l 31.027,-31.042 0.131,-0.123 c 0.313,-0.324 0.47,-0.731 0.476,-1.18 l -0.003,-31.254 -0.017,-0.164 c -0.074,-0.414 -0.263,-0.735 -0.58,-1.01 -0.195,-0.154 -0.388,-0.254 -0.628,-0.322 -0.152,-0.036 -0.288,-0.047 -0.444,-0.051 l -62.446,0.002 -0.163,0.017 c -0.414,0.075 -0.734,0.262 -1.01,0.578 -0.154,0.198 -0.253,0.389 -0.322,0.629 -0.035,0.153 -0.048,0.289 -0.052,0.446 l 0.001,31.191 c 0.018,0.436 0.193,0.839 0.504,1.146 L 0,0 z"
         style="fill:#ffd033;fill-opacity:1;fill-rule:evenodd;stroke:none"
         id="path3499"
         inkscape:connector-curvature="0" />
    </g>
    <g
       id="g3501"
       transform="matrix(1.25,0,0,-1.25,-212.4009,47.565979)"
       style="stroke:none">
      <path
         inkscape:connector-curvature="0"
         style="fill:#000000;fill-opacity:1;fill-rule:evenodd;stroke:none"
         d="m 54.625,27 c -0.375,0.29875 -0.77625,0.5675 -1.21875,0.75 -0.45,0.1825 -0.92,0.29125 -1.40625,0.3125 -0.34625,0.015 -0.69,0.0038 -1.03125,-0.0625 l -0.15625,1 -2.34375,2.15625 -2.90625,9.8125 -4.25,1.75 -2.40625,-5.3125 -3.6875,-2.09375 C 34.9225,35.48125 34.64125,35.655 34.3125,35.75 34.00625,35.8375 33.69625,35.90375 33.375,35.90625 32.9075,35.91375 32.45125,35.875 32,35.75 l -0.09375,0 L 29.3125,38.5 26.75,46.71875 21.84375,51.375 23.25,52.71875 29.0625,48.875 l 0.75,-3.0625 0.9375,2.84375 -3.75,11.5625 1.3125,0.40625 -3.90625,14.75 2.09375,0.75 5.5625,-14.75 2.25,0.15625 6.15625,14.3125 2.1875,-0.65625 -4.4375,-13.90625 c 0.4475,-0.0975 0.89375,-0.215 1.34375,-0.3125 0.3925,-0.09 0.77375,-0.22 1.15625,-0.34375 l -2.25,-6.90625 5.59375,-1.34375 -1.15625,-5.65625 -1.34375,0 0.90625,-1.40625 -0.15625,-0.34375 4.8125,-1.3125 1.25,-2.1875 1.84375,7.6875 -3.59375,11.3125 -1,17.21875 3.9375,0.34375 1.40625,-14.3125 2.40625,-5.34375 1.84375,7.34375 6.8125,12.71875 3.59375,-1.75 -6.40625,-13.21875 0.65625,-11.40625 6.8125,-2 -1.8125,-6.65625 -1.75,0.25 L 63.6875,40.0625 58.125,29.5 55.125,28.15625 54.625,27 z m 3.09375,10.0625 3,4.59375 -0.75,2.8125 -1,0.25 -1.25,-7.65625 z m -19.5625,6.65625 0.75,1.59375 -0.6875,2 -0.90625,0.15625 0.84375,-3.75 z"
         transform="matrix(0.8,0,0,-0.8,-33.849998,35.98498)"
         id="path3503" />
    </g>
    <g
       id="g3505"
       transform="matrix(1.25,0,0,-1.25,-199.2509,25.588479)"
       style="stroke:none">
      <path
         d="m 0,0 c -0.032,-1.234 -0.542,-2.271 -1.571,-2.981 -1.194,-0.824 -2.791,-0.797 -3.984,0.018 -0.974,0.664 -1.573,1.783 -1.57,2.963 0,1.434 0.877,2.74 2.191,3.304 1.105,0.471 2.375,0.354 3.37,-0.324 C -0.595,2.318 0.028,1.18 0,0"
         style="fill:#000000;fill-opacity:1;fill-rule:evenodd;stroke:none"
         id="path3507"
         inkscape:connector-curvature="0" />
    </g>
    <g
       id="g3509"
       transform="matrix(1.25,0,0,-1.25,-217.4834,33.662229)"
       style="stroke:none">
      <path
         d="m 0,0 c -0.04,-1.388 -0.839,-2.581 -2.124,-3.131 -1.5,-0.64 -3.232,-0.062 -4.121,1.29 -0.868,1.319 -0.666,3.141 0.443,4.253 1.11,1.115 2.935,1.3 4.253,0.44 C -0.628,2.247 0.034,1.12 0,0"
         style="fill:#000000;fill-opacity:1;fill-rule:evenodd;stroke:none"
         id="path3511"
         inkscape:connector-curvature="0" />
    </g>
  </g>
  <g
     inkscape:label="Calque 1"
     inkscape:groupmode="layer"
     id="layer1"
     transform="translate(255.99913,-12.011568)" />
</svg>
