<?xml version="1.0" encoding="UTF-8" standalone="no"?>
<svg xmlns="http://www.w3.org/2000/svg" width="5885.73" height="5885.7295">
  <g transform="translate(501.81389 5644.2633)">
    <path fill="#cdff00" d="M2631.9631 162.38825c-105.4375 105.4375-276.3875 105.4375-381.825 0L-422.73248-2510.4742c-105.44188-105.45-105.44188-276.4 0-381.8375L2250.1381-5565.1824c105.4375-105.4418 276.3875-105.4407 381.825 0l2672.875 2672.8707c105.4375 105.4375 105.4375 276.3875 0 381.8375L2631.9631 162.38825z"/>
    <path d="M-375.00198-2558.208c-78.95475-78.95-78.95475-207.425 0-286.375L2297.8558-5517.4532c78.95-78.9549 207.425-78.9549 286.375 0L5257.0933-2844.583c78.9625 78.95 78.9625 207.425 0 286.375L2584.2308 114.65445c-78.95 78.9625-207.425 78.9625-286.375 0L-375.00198-2558.208z"/>
    <path fill="#cdff00" d="M-295.45323-2637.7682c-35.09125-35.0875-35.09125-92.1875 0-127.275L2377.4181-5437.9019c35.075-35.0913 92.1875-35.0913 127.2625 0l2672.8625 2672.8587c35.1 35.0875 35.1 92.1875 0 127.275L2504.6806 35.094349c-35.075 35.1-92.1875 35.1-127.2625 0L-295.45323-2637.7682z"/>
    <path d="m3552.0618-4236.1381-1110.85-1047.2576-1110.85 1047.2576c-8.7125 8.2-14.15 19.8375-14.15 32.7375 0 24.85 20.1375 45 45 45 1.8375 0 3.65-.125 5.4375-.3375l714.5625-89.55v584.8925h720v-584.8925l714.55 89.55c1.7875.2125 3.6.3375 5.45.3375 24.85 0 45-20.15 45-45 0-12.9-5.45-24.5375-14.15-32.7375z"/>
    <path d="M2621.0493-1448.9006v232.5h301.5375v-232.5h163.4625v-1470.75c0-206.6875-402.8625-374.25-885-374.25s-885 167.5625-885 374.25v1470.75h163.475v232.5h301.525v-232.5h840z"/>
    <path fill-rule="evenodd" d="m3816.8118-2183.8256 47.25 72.2-11.8125 44.6125-15.7875 3.975-19.65-120.7875zm-307.175 161.525-14.4625 2.55 13.1375-59.075 11.825 24.95-10.5 31.575zm341.2875 74.7625 107.65-31.4875-28.9125-105-27.5125 3.875 9.175-56.425-88-166.7125-47.25-20.9875-7.85-18.3375c-5.9 4.725-12.05 8.75-19.0375 11.625-7.0875 2.8875-14.8375 4.8625-22.5 5.2-5.475.2375-10.8125-.087-16.2125-1.1375l-2.6375 15.7875-36.7625 34.1125-45.9375 154.9125-66.925 27.6-38.075-84.025-57.75-32.7875c-4.6875 2.6375-9.4125 5.1-14.6 6.6125-4.825 1.375-9.7875 2.6875-14.85 2.7375-7.375.1-14.6875-.85-21.775-2.8375h-1.325l-40.6375 43.2875-40.7375 129.9625-77.4125 73.525 22.3 20.9875 91.875-60.4 11.8125-48.475 14.4625 44.6-59.075 182.4125 20.9875 6.625-61.725 232.3125 32.9 11.8125 87.8875-232.3125 35.45 2.6375 97.1625 225.7 34.1125-10.4875-69.5625-219.175c7.0375-1.5625 13.9875-3.55 21.075-5.1125 6.2-1.4125 12.2875-3.4 18.3375-5.375l-35.4375-108.975 87.8875-20.9875-18.325-89.3125h-20.9875l14.3625-22.3125-2.55-5.2 76.0875-21.075 19.6625-34.1125 28.925 120.7875-56.4375 178.5375-15.775 271.725 61.7125 5.2875 22.3-225.7875 38.1-84.025 28.825 115.5 107.65 200.8375 56.425-27.6-101.0375-208.6875 10.4875-179.85z"/>
    <path fill-rule="evenodd" d="M3671.8743-2347.2381c23.5375 16.0625 55 16.5875 78.5375.325 20.275-13.9875 30.3375-34.4 30.95-58.7375.575-23.25-11.7125-45.7-30.8-58.7375-19.625-13.375-44.6625-15.6875-66.45-6.3875-25.9 11.1125-43.1875 36.8625-43.1875 65.125-.05 23.25 11.7625 45.325 30.95 58.4125z"/>
    <path fill-rule="evenodd" d="M3451.9868-2216.6256c25.325-10.825 41.0625-34.35 41.8625-61.7125.675-22.075-12.375-44.2875-30.525-56.2-25.9875-16.9625-61.95-13.3125-83.825 8.6625-21.8875 21.925-25.85 57.8375-8.75 83.825 17.5375 26.65 51.65 38.0375 81.2375 25.425z"/>
    <path d="M1151.0493-2153.9006h150v-105h-150v105z"/>
    <path fill="#cdff00" d="M2523.5493-1891.4006c0 16.575-13.425 30-30 30h-585c-16.5625 0-30-13.425-30-30v-270.0001c0-16.5625 13.4375-30 30-30h585c16.575 0 30 13.4375 30 30v270.0001z"/>
    <path fill="#cdff00" d="M1818.5493-2408.9007c0 16.575-13.425 30-30 30h-367.5c-16.5625 0-30-13.425-30-30v-367.5c0-16.5625 13.4375-30 30-30h367.5c16.575 0 30 13.4375 30 30v367.5z"/>
    <path fill="#cdff00" d="M2523.5493-2408.9007c0 16.575-13.425 30-30 30h-585c-16.5625 0-30-13.425-30-30v-367.5c0-16.5625 13.4375-30 30-30h585c16.575 0 30 13.4375 30 30v367.5z"/>
    <path fill="#cdff00" d="M3011.0493-2408.9007c0 16.575-13.425 30-30 30h-367.5c-16.5625 0-30-13.425-30-30v-367.5c0-16.5625 13.4375-30 30-30h367.5c16.575 0 30 13.4375 30 30v367.5z"/>
    <path fill="#cdff00" d="M1728.5493-2056.4007h-315v30h315v-30z"/>
    <path fill="#cdff00" d="M2673.5618-2056.4007h315v30h-315v-30z"/>
    <path fill="#cdff00" d="M2996.0493-1628.9006c0 8.2875-6.7125 15-15 15h-1560c-8.2875 0-15-6.7125-15-15s6.7125-15 15-15h1560c8.2875 0 15 6.7125 15 15z"/>
    <path fill="#cdff00" d="M2996.0493-1538.9006c0 8.2875-6.7125 15-15 15h-1560c-8.2875 0-15-6.7125-15-15s6.7125-15 15-15h1560c8.2875 0 15 6.7125 15 15z"/>
    <path fill="#af1e2d" d="m754.19922-1936.4006-158.14875-158.1625v-223.6875l158.14875-158.15h223.7l158.14998 158.15v223.6875l-158.14998 158.1625h-223.7z"/>
    <path fill="#af1e2d" d="M1586.0492-2948.9007c0 41.425-33.575 75-75 75s-75-33.575-75-75 33.575-75 75-75 75 33.575 75 75z"/>
    <path fill="#af1e2d" d="M1556.0492-2206.4006c0 41.425-33.575 75-75 75s-75-33.575-75-75 33.575-75 75-75 75 33.575 75 75z"/>
    <path fill="#af1e2d" d="M1736.0492-2206.4006c0 41.425-33.575 75-75 75s-75-33.575-75-75 33.575-75 75-75 75 33.575 75 75z"/>
    <path fill="#af1e2d" d="M2846.0617-2206.4006c0 41.425 33.5625 75 74.9875 75s75.0125-33.575 75.0125-75-33.5875-75-75.0125-75c-41.425 0-74.9875 33.575-74.9875 75z"/>
    <path fill="#af1e2d" d="M2666.0617-2206.4006c0 41.425 33.5625 75 74.9875 75s75.0125-33.575 75.0125-75-33.5875-75-75.0125-75c-41.425 0-74.9875 33.575-74.9875 75z"/>
    <path fill="#af1e2d" d="M2740.8492-3466.4007s-19.65 49.025-69.8 172.325c-39.0125 110.7625-87.075 62.7-96.825 57.125-9.75-5.575-179.9125-112.725-179.9125-112.725l80.1375 181.5875c48.5 83.0375-36.825 127.5375-36.825 127.5375l-281.575 110.25 277.2375 2.15c125.6375 2.1625 98.2875 124.5375 98.2875 124.5375l-37.0125 173.9375 137.8375-149.575c60.325-56.1375 116.6-6.7875 116.6-6.7875l123.975 182.1375-28.8875-205.4125c-21.5375-96.6875 86.1125-94.9 86.1125-94.9l230.85-8.8-220.925-86.4625c-108.3-43.2375-30.325-116.7375-30.325-116.7375l173.2625-164.2875-197.0875 73.5c-90.975 38.9125-106.1375-32.425-106.1375-32.425l-38.9875-226.975z"/>
  </g>
</svg>