<?xml version="1.0" encoding="UTF-8" standalone="no"?>
<!-- Created with Inkscape (http://www.inkscape.org/) -->

<svg
   xmlns:dc="http://purl.org/dc/elements/1.1/"
   xmlns:cc="http://creativecommons.org/ns#"
   xmlns:rdf="http://www.w3.org/1999/02/22-rdf-syntax-ns#"
   xmlns:svg="http://www.w3.org/2000/svg"
   xmlns="http://www.w3.org/2000/svg"
   xmlns:xlink="http://www.w3.org/1999/xlink"
   xmlns:sodipodi="http://sodipodi.sourceforge.net/DTD/sodipodi-0.dtd"
   xmlns:inkscape="http://www.inkscape.org/namespaces/inkscape"
   id="svg3012"
   version="1.1"
   inkscape:version="0.48.2 r9819"
   width="5885.73"
   height="5885.7295"
   sodipodi:docname="AJAX1.svg">
  <metadata
     id="metadata3018">
    <rdf:RDF>
      <cc:Work
         rdf:about="">
        <dc:format>image/svg+xml</dc:format>
        <dc:type
           rdf:resource="http://purl.org/dc/dcmitype/StillImage" />
        <dc:title />
      </cc:Work>
    </rdf:RDF>
  </metadata>
  <defs
     id="defs3016">
    <radialGradient
       r="8.4377003"
       cy="109.6489"
       cx="171.9519"
       gradientUnits="userSpaceOnUse"
       id="radialGradient9492"
       xlink:href="#SVGID_108_"
       inkscape:collect="always" />
    <radialGradient
       r="9.2683001"
       cy="99.741203"
       cx="171.9529"
       gradientUnits="userSpaceOnUse"
       id="radialGradient9490"
       xlink:href="#SVGID_107_"
       inkscape:collect="always" />
    <radialGradient
       r="10.4343"
       cy="90.153297"
       cx="171.6331"
       gradientUnits="userSpaceOnUse"
       id="radialGradient9488"
       xlink:href="#SVGID_106_"
       inkscape:collect="always" />
    <radialGradient
       r="10.5517"
       cy="80.246101"
       cx="170.99339"
       gradientUnits="userSpaceOnUse"
       id="radialGradient9486"
       xlink:href="#SVGID_105_"
       inkscape:collect="always" />
    <radialGradient
       r="8.9535999"
       cy="70.338898"
       cx="171.9534"
       gradientUnits="userSpaceOnUse"
       id="radialGradient9484"
       xlink:href="#SVGID_104_"
       inkscape:collect="always" />
    <radialGradient
       r="9.2665005"
       cy="60.433102"
       cx="172.27319"
       gradientUnits="userSpaceOnUse"
       id="radialGradient9482"
       xlink:href="#SVGID_103_"
       inkscape:collect="always" />
    <linearGradient
       y2="107.2783"
       x2="195.0925"
       y1="107.2783"
       x1="156.7722"
       gradientUnits="userSpaceOnUse"
       id="linearGradient9480"
       xlink:href="#SVGID_102_"
       inkscape:collect="always" />
    <linearGradient
       y2="10.6455"
       x2="189.2439"
       y1="10.6455"
       x1="161.77029"
       gradientUnits="userSpaceOnUse"
       id="linearGradient9478"
       xlink:href="#SVGID_101_"
       inkscape:collect="always" />
    <linearGradient
       y2="152.6611"
       x2="302.54959"
       y1="152.6611"
       x1="50.2341"
       gradientUnits="userSpaceOnUse"
       id="linearGradient9476"
       xlink:href="#SVGID_100_"
       inkscape:collect="always" />
    <radialGradient
       r="7.4874001"
       cy="122.0713"
       cx="195.27119"
       gradientTransform="matrix(-1,0,0,1,450.0308,0)"
       gradientUnits="userSpaceOnUse"
       id="radialGradient9474"
       xlink:href="#SVGID_99_"
       inkscape:collect="always" />
    <radialGradient
       r="8.8393002"
       cy="118.5552"
       cx="186.00459"
       gradientTransform="matrix(-1,0,0,1,450.0308,0)"
       gradientUnits="userSpaceOnUse"
       id="radialGradient9472"
       xlink:href="#SVGID_98_"
       inkscape:collect="always" />
    <radialGradient
       r="7.6238999"
       cy="112.8027"
       cx="179.6111"
       gradientTransform="matrix(-1,0,0,1,450.0308,0)"
       gradientUnits="userSpaceOnUse"
       id="radialGradient9470"
       xlink:href="#SVGID_97_"
       inkscape:collect="always" />
    <radialGradient
       r="8.1356001"
       cy="106.4116"
       cx="173.5403"
       gradientTransform="matrix(-1,0,0,1,450.0308,0)"
       gradientUnits="userSpaceOnUse"
       id="radialGradient9468"
       xlink:href="#SVGID_96_"
       inkscape:collect="always" />
    <radialGradient
       r="9.9794998"
       cy="98.102501"
       cx="168.42799"
       gradientTransform="matrix(-1,0,0,1,450.0308,0)"
       gradientUnits="userSpaceOnUse"
       id="radialGradient9466"
       xlink:href="#SVGID_95_"
       inkscape:collect="always" />
    <radialGradient
       r="9.0496998"
       cy="87.875504"
       cx="169.70531"
       gradientTransform="matrix(-1,0,0,1,450.0308,0)"
       gradientUnits="userSpaceOnUse"
       id="radialGradient9464"
       xlink:href="#SVGID_94_"
       inkscape:collect="always" />
    <radialGradient
       r="9.9834003"
       cy="78.607903"
       cx="170.6653"
       gradientTransform="matrix(-1,0,0,1,450.0308,0)"
       gradientUnits="userSpaceOnUse"
       id="radialGradient9462"
       xlink:href="#SVGID_93_"
       inkscape:collect="always" />
    <radialGradient
       r="9.335"
       cy="69.659698"
       cx="174.4968"
       gradientTransform="matrix(-1,0,0,1,450.0308,0)"
       gradientUnits="userSpaceOnUse"
       id="radialGradient9460"
       xlink:href="#SVGID_92_"
       inkscape:collect="always" />
    <radialGradient
       r="8.5999002"
       cy="61.351101"
       cx="179.61211"
       gradientTransform="matrix(-1,0,0,1,450.0308,0)"
       gradientUnits="userSpaceOnUse"
       id="radialGradient9458"
       xlink:href="#SVGID_91_"
       inkscape:collect="always" />
    <radialGradient
       r="7.9896998"
       cy="58.1548"
       cx="186.00169"
       gradientTransform="matrix(-1,0,0,1,450.0308,0)"
       gradientUnits="userSpaceOnUse"
       id="radialGradient9456"
       xlink:href="#SVGID_90_"
       inkscape:collect="always" />
    <radialGradient
       r="6.5573001"
       cy="54.320301"
       cx="195.90891"
       gradientTransform="matrix(-1,0,0,1,450.0308,0)"
       gradientUnits="userSpaceOnUse"
       id="radialGradient9454"
       xlink:href="#SVGID_89_"
       inkscape:collect="always" />
    <radialGradient
       r="7.9122"
       cy="52.083"
       cx="202.6218"
       gradientTransform="matrix(-1,0,0,1,450.0308,0)"
       gradientUnits="userSpaceOnUse"
       id="radialGradient9452"
       xlink:href="#SVGID_88_"
       inkscape:collect="always" />
    <radialGradient
       r="6.7947001"
       cy="51.762199"
       cx="210.6111"
       gradientTransform="matrix(-1,0,0,1,450.0308,0)"
       gradientUnits="userSpaceOnUse"
       id="radialGradient9450"
       xlink:href="#SVGID_87_"
       inkscape:collect="always" />
    <radialGradient
       r="6.3267999"
       cy="51.763199"
       cx="218.6013"
       gradientTransform="matrix(-1,0,0,1,450.0308,0)"
       gradientUnits="userSpaceOnUse"
       id="radialGradient9448"
       xlink:href="#SVGID_86_"
       inkscape:collect="always" />
    <radialGradient
       r="5.9464002"
       cy="51.443401"
       cx="224.9919"
       gradientTransform="matrix(-1,0,0,1,450.0308,0)"
       gradientUnits="userSpaceOnUse"
       id="radialGradient9446"
       xlink:href="#SVGID_85_"
       inkscape:collect="always" />
    <radialGradient
       r="6.5881"
       cy="51.443802"
       cx="232.0251"
       gradientTransform="matrix(-1,0,0,1,450.0308,0)"
       gradientUnits="userSpaceOnUse"
       id="radialGradient9444"
       xlink:href="#SVGID_84_"
       inkscape:collect="always" />
    <radialGradient
       r="5.6543002"
       cy="51.443401"
       cx="238.41479"
       gradientTransform="matrix(-1,0,0,1,450.0308,0)"
       gradientUnits="userSpaceOnUse"
       id="radialGradient9442"
       xlink:href="#SVGID_83_"
       inkscape:collect="always" />
    <radialGradient
       r="4.3457999"
       cy="52.082001"
       cx="245.1277"
       gradientTransform="matrix(-1,0,0,1,450.0308,0)"
       gradientUnits="userSpaceOnUse"
       id="radialGradient9440"
       xlink:href="#SVGID_82_"
       inkscape:collect="always" />
    <radialGradient
       r="4.2995"
       cy="49.8452"
       cx="250.24001"
       gradientTransform="matrix(-1,0,0,1,450.0308,0)"
       gradientUnits="userSpaceOnUse"
       id="radialGradient9438"
       xlink:href="#SVGID_81_"
       inkscape:collect="always" />
    <radialGradient
       r="4.7491999"
       cy="49.206501"
       cx="254.0769"
       gradientTransform="matrix(-1,0,0,1,450.0308,0)"
       gradientUnits="userSpaceOnUse"
       id="radialGradient9436"
       xlink:href="#SVGID_80_"
       inkscape:collect="always" />
    <linearGradient
       y2="86.591797"
       x2="110.1375"
       y1="86.591797"
       x1="36.310299"
       gradientTransform="matrix(-1,0,0,1,299.8716,0)"
       gradientUnits="userSpaceOnUse"
       id="linearGradient9434"
       xlink:href="#SVGID_79_"
       inkscape:collect="always" />
    <linearGradient
       y2="85.358902"
       x2="112.8484"
       y1="85.358902"
       x1="22.9827"
       gradientTransform="matrix(-1,0,0,1,299.8716,0)"
       gradientUnits="userSpaceOnUse"
       id="linearGradient9432"
       xlink:href="#SVGID_78_"
       inkscape:collect="always" />
    <radialGradient
       r="8.0657997"
       cy="131.0195"
       cx="146.3757"
       gradientTransform="matrix(-1,0,0,1,450.0308,0)"
       gradientUnits="userSpaceOnUse"
       id="radialGradient9430"
       xlink:href="#SVGID_77_"
       inkscape:collect="always" />
    <radialGradient
       r="8.7208996"
       cy="128.1436"
       cx="139.3455"
       gradientTransform="matrix(-1,0,0,1,450.0308,0)"
       gradientUnits="userSpaceOnUse"
       id="radialGradient9428"
       xlink:href="#SVGID_76_"
       inkscape:collect="always" />
    <radialGradient
       r="7.9376998"
       cy="122.3911"
       cx="132.9534"
       gradientTransform="matrix(-1,0,0,1,450.0308,0)"
       gradientUnits="userSpaceOnUse"
       id="radialGradient9426"
       xlink:href="#SVGID_75_"
       inkscape:collect="always" />
    <radialGradient
       r="7.6237001"
       cy="113.7622"
       cx="129.7551"
       gradientTransform="matrix(-1,0,0,1,450.0308,0)"
       gradientUnits="userSpaceOnUse"
       id="radialGradient9424"
       xlink:href="#SVGID_74_"
       inkscape:collect="always" />
    <radialGradient
       r="8.1674995"
       cy="106.0923"
       cx="126.241"
       gradientTransform="matrix(-1,0,0,1,450.0308,0)"
       gradientUnits="userSpaceOnUse"
       id="radialGradient9422"
       xlink:href="#SVGID_73_"
       inkscape:collect="always" />
    <radialGradient
       r="7.9793"
       cy="99.291"
       cx="126.5823"
       gradientTransform="matrix(-1,0,0,1,450.0308,0)"
       gradientUnits="userSpaceOnUse"
       id="radialGradient9420"
       xlink:href="#SVGID_72_"
       inkscape:collect="always" />
    <radialGradient
       r="9.2198"
       cy="88.515099"
       cx="129.7556"
       gradientTransform="matrix(-1,0,0,1,450.0308,0)"
       gradientUnits="userSpaceOnUse"
       id="radialGradient9418"
       xlink:href="#SVGID_71_"
       inkscape:collect="always" />
    <radialGradient
       r="8.6042004"
       cy="83.721703"
       cx="134.55051"
       gradientTransform="matrix(-1,0,0,1,450.0308,0)"
       gradientUnits="userSpaceOnUse"
       id="radialGradient9416"
       xlink:href="#SVGID_70_"
       inkscape:collect="always" />
    <radialGradient
       r="7.1801"
       cy="77.648903"
       cx="142.5408"
       gradientTransform="matrix(-1,0,0,1,450.0308,0)"
       gradientUnits="userSpaceOnUse"
       id="radialGradient9414"
       xlink:href="#SVGID_69_"
       inkscape:collect="always" />
    <radialGradient
       r="8.1317997"
       cy="72.296898"
       cx="148.9133"
       gradientTransform="matrix(-1,0,0,1,450.0308,0)"
       gradientUnits="userSpaceOnUse"
       id="radialGradient9412"
       xlink:href="#SVGID_68_"
       inkscape:collect="always" />
    <radialGradient
       r="7.9415998"
       cy="69.339401"
       cx="156.9216"
       gradientTransform="matrix(-1,0,0,1,450.0308,0)"
       gradientUnits="userSpaceOnUse"
       id="radialGradient9410"
       xlink:href="#SVGID_67_"
       inkscape:collect="always" />
    <radialGradient
       r="7.9133"
       cy="65.185501"
       cx="164.90939"
       gradientTransform="matrix(-1,0,0,1,450.0308,0)"
       gradientUnits="userSpaceOnUse"
       id="radialGradient9408"
       xlink:href="#SVGID_66_"
       inkscape:collect="always" />
    <radialGradient
       r="9.7184"
       cy="61.669899"
       cx="172.2634"
       gradientTransform="matrix(-1,0,0,1,450.0308,0)"
       gradientUnits="userSpaceOnUse"
       id="radialGradient9406"
       xlink:href="#SVGID_65_"
       inkscape:collect="always" />
    <radialGradient
       r="4.9928002"
       cy="58.7939"
       cx="179.9304"
       gradientTransform="matrix(-1,0,0,1,450.0308,0)"
       gradientUnits="userSpaceOnUse"
       id="radialGradient9404"
       xlink:href="#SVGID_64_"
       inkscape:collect="always" />
    <linearGradient
       y2="89.2939"
       x2="39.791698"
       y1="89.2939"
       x1="-92.190697"
       gradientTransform="matrix(-1,0,0,1,216.769,0)"
       gradientUnits="userSpaceOnUse"
       id="linearGradient9402"
       xlink:href="#SVGID_63_"
       inkscape:collect="always" />
    <linearGradient
       y2="94.218803"
       x2="33.4417"
       y1="94.218803"
       x1="-102.885"
       gradientTransform="matrix(-1,0,0,1,216.769,0)"
       gradientUnits="userSpaceOnUse"
       id="linearGradient9400"
       xlink:href="#SVGID_62_"
       inkscape:collect="always" />
    <radialGradient
       r="7.4879999"
       cy="122.0713"
       cx="95.917702"
       gradientUnits="userSpaceOnUse"
       id="radialGradient9398"
       xlink:href="#SVGID_61_"
       inkscape:collect="always" />
    <radialGradient
       r="8.8402996"
       cy="118.5552"
       cx="86.6492"
       gradientUnits="userSpaceOnUse"
       id="radialGradient9396"
       xlink:href="#SVGID_60_"
       inkscape:collect="always" />
    <radialGradient
       r="7.6230001"
       cy="112.8027"
       cx="80.258499"
       gradientUnits="userSpaceOnUse"
       id="radialGradient9394"
       xlink:href="#SVGID_59_"
       inkscape:collect="always" />
    <radialGradient
       r="8.1360998"
       cy="106.4116"
       cx="74.185799"
       gradientUnits="userSpaceOnUse"
       id="radialGradient9392"
       xlink:href="#SVGID_58_"
       inkscape:collect="always" />
    <radialGradient
       r="9.9808998"
       cy="98.102501"
       cx="69.073502"
       gradientUnits="userSpaceOnUse"
       id="radialGradient9390"
       xlink:href="#SVGID_57_"
       inkscape:collect="always" />
    <radialGradient
       r="9.0492001"
       cy="87.875504"
       cx="70.352798"
       gradientUnits="userSpaceOnUse"
       id="radialGradient9388"
       xlink:href="#SVGID_56_"
       inkscape:collect="always" />
    <radialGradient
       r="9.9834003"
       cy="78.607903"
       cx="71.310799"
       gradientUnits="userSpaceOnUse"
       id="radialGradient9386"
       xlink:href="#SVGID_55_"
       inkscape:collect="always" />
    <radialGradient
       r="9.3340998"
       cy="69.659698"
       cx="75.144798"
       gradientUnits="userSpaceOnUse"
       id="radialGradient9384"
       xlink:href="#SVGID_54_"
       inkscape:collect="always" />
    <radialGradient
       r="8.5999002"
       cy="61.351101"
       cx="80.257599"
       gradientUnits="userSpaceOnUse"
       id="radialGradient9382"
       xlink:href="#SVGID_53_"
       inkscape:collect="always" />
    <radialGradient
       r="7.9889998"
       cy="58.1548"
       cx="86.650101"
       gradientUnits="userSpaceOnUse"
       id="radialGradient9380"
       xlink:href="#SVGID_52_"
       inkscape:collect="always" />
    <radialGradient
       r="6.5567999"
       cy="54.320301"
       cx="96.556396"
       gradientUnits="userSpaceOnUse"
       id="radialGradient9378"
       xlink:href="#SVGID_51_"
       inkscape:collect="always" />
    <radialGradient
       r="7.9124999"
       cy="52.083"
       cx="103.2678"
       gradientUnits="userSpaceOnUse"
       id="radialGradient9376"
       xlink:href="#SVGID_50_"
       inkscape:collect="always" />
    <radialGradient
       r="6.7954998"
       cy="51.762199"
       cx="111.2571"
       gradientUnits="userSpaceOnUse"
       id="radialGradient9374"
       xlink:href="#SVGID_49_"
       inkscape:collect="always" />
    <radialGradient
       r="6.3270998"
       cy="51.763199"
       cx="119.2483"
       gradientUnits="userSpaceOnUse"
       id="radialGradient9372"
       xlink:href="#SVGID_48_"
       inkscape:collect="always" />
    <radialGradient
       r="5.9461002"
       cy="51.443401"
       cx="125.6379"
       gradientUnits="userSpaceOnUse"
       id="radialGradient9370"
       xlink:href="#SVGID_47_"
       inkscape:collect="always" />
    <radialGradient
       r="6.5883999"
       cy="51.443802"
       cx="132.6702"
       gradientUnits="userSpaceOnUse"
       id="radialGradient9368"
       xlink:href="#SVGID_46_"
       inkscape:collect="always" />
    <radialGradient
       r="5.6543002"
       cy="51.443401"
       cx="139.0623"
       gradientUnits="userSpaceOnUse"
       id="radialGradient9366"
       xlink:href="#SVGID_45_"
       inkscape:collect="always" />
    <radialGradient
       r="4.3467999"
       cy="52.082001"
       cx="145.77319"
       gradientUnits="userSpaceOnUse"
       id="radialGradient9364"
       xlink:href="#SVGID_44_"
       inkscape:collect="always" />
    <radialGradient
       r="4.2992001"
       cy="49.8452"
       cx="150.88699"
       gradientUnits="userSpaceOnUse"
       id="radialGradient9362"
       xlink:href="#SVGID_43_"
       inkscape:collect="always" />
    <radialGradient
       r="4.7508998"
       cy="49.206501"
       cx="154.72141"
       gradientUnits="userSpaceOnUse"
       id="radialGradient9360"
       xlink:href="#SVGID_42_"
       inkscape:collect="always" />
    <linearGradient
       y2="86.591797"
       x2="160.8425"
       y1="86.591797"
       x1="87.015404"
       gradientUnits="userSpaceOnUse"
       id="linearGradient9358"
       xlink:href="#SVGID_41_"
       inkscape:collect="always" />
    <linearGradient
       y2="85.358902"
       x2="163.5535"
       y1="85.358902"
       x1="73.688202"
       gradientUnits="userSpaceOnUse"
       id="linearGradient9356"
       xlink:href="#SVGID_40_"
       inkscape:collect="always" />
    <radialGradient
       r="8.0649004"
       cy="131.0195"
       cx="48.6208"
       gradientUnits="userSpaceOnUse"
       id="radialGradient9354"
       xlink:href="#SVGID_39_"
       inkscape:collect="always" />
    <radialGradient
       r="8.7214003"
       cy="128.1436"
       cx="41.5896"
       gradientUnits="userSpaceOnUse"
       id="radialGradient9352"
       xlink:href="#SVGID_38_"
       inkscape:collect="always" />
    <radialGradient
       r="7.9383998"
       cy="122.3911"
       cx="35.196999"
       gradientUnits="userSpaceOnUse"
       id="radialGradient9350"
       xlink:href="#SVGID_37_"
       inkscape:collect="always" />
    <radialGradient
       r="7.6237001"
       cy="113.7622"
       cx="32.000198"
       gradientUnits="userSpaceOnUse"
       id="radialGradient9348"
       xlink:href="#SVGID_36_"
       inkscape:collect="always" />
    <radialGradient
       r="8.1674995"
       cy="106.0923"
       cx="28.4851"
       gradientUnits="userSpaceOnUse"
       id="radialGradient9346"
       xlink:href="#SVGID_35_"
       inkscape:collect="always" />
    <radialGradient
       r="7.9805999"
       cy="99.291"
       cx="28.826401"
       gradientUnits="userSpaceOnUse"
       id="radialGradient9344"
       xlink:href="#SVGID_34_"
       inkscape:collect="always" />
    <radialGradient
       r="9.2185001"
       cy="88.515099"
       cx="32.000702"
       gradientUnits="userSpaceOnUse"
       id="radialGradient9342"
       xlink:href="#SVGID_33_"
       inkscape:collect="always" />
    <radialGradient
       r="8.6056995"
       cy="83.721703"
       cx="36.794701"
       gradientUnits="userSpaceOnUse"
       id="radialGradient9340"
       xlink:href="#SVGID_32_"
       inkscape:collect="always" />
    <radialGradient
       r="7.1805"
       cy="77.648903"
       cx="44.7854"
       gradientUnits="userSpaceOnUse"
       id="radialGradient9338"
       xlink:href="#SVGID_31_"
       inkscape:collect="always" />
    <radialGradient
       r="8.1324997"
       cy="72.296898"
       cx="51.157501"
       gradientUnits="userSpaceOnUse"
       id="radialGradient9336"
       xlink:href="#SVGID_30_"
       inkscape:collect="always" />
    <radialGradient
       r="7.9415998"
       cy="69.339401"
       cx="59.166698"
       gradientUnits="userSpaceOnUse"
       id="radialGradient9334"
       xlink:href="#SVGID_29_"
       inkscape:collect="always" />
    <radialGradient
       r="7.9122"
       cy="65.185501"
       cx="67.155502"
       gradientUnits="userSpaceOnUse"
       id="radialGradient9332"
       xlink:href="#SVGID_28_"
       inkscape:collect="always" />
    <radialGradient
       r="9.7195997"
       cy="61.669899"
       cx="74.5056"
       gradientUnits="userSpaceOnUse"
       id="radialGradient9330"
       xlink:href="#SVGID_27_"
       inkscape:collect="always" />
    <radialGradient
       r="4.9931002"
       cy="58.7939"
       cx="82.175003"
       gradientUnits="userSpaceOnUse"
       id="radialGradient9328"
       xlink:href="#SVGID_26_"
       inkscape:collect="always" />
    <linearGradient
       y2="89.2939"
       x2="175.9021"
       y1="89.2939"
       x1="43.921101"
       gradientUnits="userSpaceOnUse"
       id="linearGradient9326"
       xlink:href="#SVGID_25_"
       inkscape:collect="always" />
    <linearGradient
       y2="94.218803"
       x2="169.55099"
       y1="94.218803"
       x1="33.224899"
       gradientUnits="userSpaceOnUse"
       id="linearGradient9324"
       xlink:href="#SVGID_24_"
       inkscape:collect="always" />
    <linearGradient
       y2="86.490196"
       x2="197.70779"
       y1="86.490196"
       x1="153.30589"
       gradientUnits="userSpaceOnUse"
       id="linearGradient9322"
       xlink:href="#SVGID_23_"
       inkscape:collect="always" />
    <linearGradient
       y2="133.21001"
       x2="204.63451"
       y1="133.21001"
       x1="204.63451"
       gradientUnits="userSpaceOnUse"
       id="linearGradient9320"
       xlink:href="#SVGID_22_"
       inkscape:collect="always" />
    <radialGradient
       r="18.883301"
       cy="202.7334"
       cx="275.02609"
       gradientTransform="matrix(-1,0,0,1,369.0562,0)"
       gradientUnits="userSpaceOnUse"
       id="radialGradient9318"
       xlink:href="#SVGID_21_"
       inkscape:collect="always" />
    <radialGradient
       r="32.669102"
       cy="217.6162"
       cx="306.17551"
       gradientTransform="matrix(-1,0,0,1,369.0562,0)"
       gradientUnits="userSpaceOnUse"
       id="radialGradient9316"
       xlink:href="#SVGID_20_"
       inkscape:collect="always" />
    <radialGradient
       r="18.883499"
       cy="202.7148"
       cx="259.29861"
       gradientUnits="userSpaceOnUse"
       id="radialGradient9314"
       xlink:href="#SVGID_19_"
       inkscape:collect="always" />
    <radialGradient
       r="32.676201"
       cy="217.5981"
       cx="290.45389"
       gradientUnits="userSpaceOnUse"
       id="radialGradient9312"
       xlink:href="#SVGID_18_"
       inkscape:collect="always" />
    <radialGradient
       r="29.415501"
       cy="205.18851"
       cx="167.45039"
       gradientTransform="matrix(-0.9947,-0.1024,-0.1024,0.9947,397.2037,15.2414)"
       gradientUnits="userSpaceOnUse"
       id="radialGradient9310"
       xlink:href="#SVGID_17_"
       inkscape:collect="always" />
    <radialGradient
       r="31.2778"
       cy="201.31931"
       cx="114.635"
       gradientTransform="matrix(0.9947,-0.1024,0.1024,0.9947,-28.8556,15.2414)"
       gradientUnits="userSpaceOnUse"
       id="radialGradient9308"
       xlink:href="#SVGID_16_"
       inkscape:collect="always" />
    <radialGradient
       r="8.3254995"
       cy="464.2998"
       cx="-79.220001"
       gradientTransform="matrix(2.2536,0.4469,0.4469,-2.2536,137.7442,1276.3328)"
       gradientUnits="userSpaceOnUse"
       id="radialGradient9306"
       xlink:href="#path11064_1_"
       inkscape:collect="always" />
    <radialGradient
       r="32.755199"
       cy="200.98441"
       cx="193.8777"
       gradientUnits="userSpaceOnUse"
       id="radialGradient9304"
       xlink:href="#SVGID_15_"
       inkscape:collect="always" />
    <radialGradient
       r="6.4861002"
       cy="194.04201"
       cx="163.7742"
       gradientTransform="matrix(-1,0,0,1,369.1401,0)"
       gradientUnits="userSpaceOnUse"
       id="radialGradient9302"
       xlink:href="#SVGID_14_"
       inkscape:collect="always" />
    <radialGradient
       r="5.5102"
       cy="202.5625"
       cx="164.33521"
       gradientTransform="matrix(-1,0,0,1,369.1401,0)"
       gradientUnits="userSpaceOnUse"
       id="radialGradient9300"
       xlink:href="#SVGID_13_"
       inkscape:collect="always" />
    <radialGradient
       r="6.4847999"
       cy="198.85249"
       cx="115.0906"
       gradientTransform="matrix(-1,0,0,1,369.1401,0)"
       gradientUnits="userSpaceOnUse"
       id="radialGradient9298"
       xlink:href="#SVGID_12_"
       inkscape:collect="always" />
    <radialGradient
       r="5.5077"
       cy="208.02341"
       cx="116.3044"
       gradientTransform="matrix(-1,0,0,1,369.1401,0)"
       gradientUnits="userSpaceOnUse"
       id="radialGradient9296"
       xlink:href="#SVGID_11_"
       inkscape:collect="always" />
    <radialGradient
       r="6.4868002"
       cy="194.0986"
       cx="145.9919"
       gradientUnits="userSpaceOnUse"
       id="radialGradient9294"
       xlink:href="#SVGID_10_"
       inkscape:collect="always" />
    <radialGradient
       r="5.5079999"
       cy="202.6201"
       cx="146.55299"
       gradientUnits="userSpaceOnUse"
       id="radialGradient9292"
       xlink:href="#SVGID_9_"
       inkscape:collect="always" />
    <radialGradient
       r="6.4868002"
       cy="198.90919"
       cx="100.0769"
       gradientUnits="userSpaceOnUse"
       id="radialGradient9290"
       xlink:href="#SVGID_8_"
       inkscape:collect="always" />
    <radialGradient
       r="5.5091"
       cy="208.08009"
       cx="101.2883"
       gradientUnits="userSpaceOnUse"
       id="radialGradient9288"
       xlink:href="#SVGID_7_"
       inkscape:collect="always" />
    <linearGradient
       y2="189.9355"
       x2="281.98611"
       y1="189.9355"
       x1="70.131599"
       gradientUnits="userSpaceOnUse"
       id="linearGradient9286"
       xlink:href="#path3272_2_"
       inkscape:collect="always" />
    <linearGradient
       y2="219.0029"
       x2="274.02509"
       y1="219.0029"
       x1="78.814201"
       gradientUnits="userSpaceOnUse"
       id="linearGradient9284"
       xlink:href="#path3272_1_"
       inkscape:collect="always" />
    <linearGradient
       y2="204.1279"
       x2="278.8757"
       y1="204.1279"
       x1="74.962601"
       gradientUnits="userSpaceOnUse"
       id="linearGradient9282"
       xlink:href="#path10091_1_"
       inkscape:collect="always" />
    <linearGradient
       y2="170.30569"
       x2="285.9451"
       y1="170.30569"
       x1="65.307404"
       gradientUnits="userSpaceOnUse"
       id="linearGradient9280"
       xlink:href="#SVGID_6_"
       inkscape:collect="always" />
    <linearGradient
       y2="161.35249"
       x2="131.08031"
       y1="161.35249"
       x1="86.643303"
       gradientTransform="matrix(0.8849,0.4658,-0.4658,0.8849,121.2332,-44.6746)"
       gradientUnits="userSpaceOnUse"
       id="linearGradient9278"
       xlink:href="#SVGID_5_"
       inkscape:collect="always" />
    <linearGradient
       y2="229.40041"
       x2="133.39619"
       y1="229.40041"
       x1="106.1233"
       gradientTransform="matrix(-0.5765,0.8171,-0.8171,-0.5765,497.3969,133.2192)"
       gradientUnits="userSpaceOnUse"
       id="linearGradient9276"
       xlink:href="#SVGID_4_"
       inkscape:collect="always" />
    <linearGradient
       y2="90.038101"
       x2="209.4939"
       y1="90.038101"
       x1="182.2224"
       gradientUnits="userSpaceOnUse"
       id="linearGradient9274"
       xlink:href="#SVGID_3_"
       inkscape:collect="always" />
    <linearGradient
       y2="93.963402"
       x2="162.4543"
       y1="93.963402"
       x1="92.145302"
       gradientUnits="userSpaceOnUse"
       id="linearGradient9272"
       xlink:href="#SVGID_2_"
       inkscape:collect="always" />
    <radialGradient
       r="251.1386"
       cy="83.816399"
       cx="81.097397"
       gradientUnits="userSpaceOnUse"
       id="radialGradient9270"
       xlink:href="#SVGID_1_"
       inkscape:collect="always" />
  </defs>
  <sodipodi:namedview
     pagecolor="#ffffff"
     bordercolor="#666666"
     borderopacity="1"
     objecttolerance="10"
     gridtolerance="10"
     guidetolerance="10"
     inkscape:pageopacity="0"
     inkscape:pageshadow="2"
     inkscape:window-width="1280"
     inkscape:window-height="1004"
     id="namedview3014"
     showgrid="false"
     fit-margin-top="0"
     fit-margin-left="0"
     fit-margin-right="0"
     fit-margin-bottom="0"
     inkscape:zoom="0.088388348"
     inkscape:cx="4328.0966"
     inkscape:cy="3453.0821"
     inkscape:window-x="-8"
     inkscape:window-y="-8"
     inkscape:window-maximized="1"
     inkscape:current-layer="g17065">
    <inkscape:grid
       type="xygrid"
       id="grid4268"
       empspacing="5"
       visible="true"
       enabled="true"
       snapvisiblegridlinesonly="true" />
  </sodipodi:namedview>
  <g
     id="g17065"
     transform="translate(693.83509,4366.1224)">
    <path
       inkscape:connector-curvature="0"
       style="fill:#ffd033;fill-rule:nonzero;stroke:none;fill-opacity:1"
       d="m 2439.9419,1440.5291 c -105.4375,105.4375 -276.3875,105.4375 -381.825,0 L -614.75368,-1232.3333 c -105.44188,-105.45 -105.44188,-276.4 0,-381.8375 L 2058.1169,-4287.0415 c 105.4375,-105.4418 276.3875,-105.4407 381.825,0 l 2672.875,2672.8707 c 105.4375,105.4375 105.4375,276.3875 0,381.8375 l -2672.875,2672.8624 z"
       id="path11" />
    <path
       inkscape:connector-curvature="0"
       style="fill:#000000;fill-rule:nonzero;stroke:none"
       d="m -567.02318,-1280.0671 c -78.95475,-78.95 -78.95475,-207.425 0,-286.375 L 2105.8346,-4239.3123 c 78.95,-78.9549 207.425,-78.9549 286.375,0 l 2672.8625,2672.8702 c 78.9625,78.95 78.9625,207.425 0,286.375 L 2392.2096,1392.7953 c -78.95,78.9625 -207.425,78.9625 -286.375,0 L -567.02318,-1280.0671 z"
       id="path13" />
    <path
       inkscape:connector-curvature="0"
       style="fill:#ffd033;fill-rule:nonzero;stroke:none;fill-opacity:1"
       d="m -487.47443,-1359.6272 c -35.09125,-35.0875 -35.09125,-92.1875 0,-127.275 L 2185.3969,-4159.761 c 35.075,-35.0913 92.1875,-35.0913 127.2625,0 l 2672.8625,2672.8588 c 35.1,35.0875 35.1,92.1875 0,127.275 L 2312.6594,1313.2352 c -35.075,35.1 -92.1875,35.1 -127.2625,0 L -487.47443,-1359.6272 z"
       id="path15" />
    <path
       inkscape:connector-curvature="0"
       style="fill:#000000;fill-rule:nonzero;stroke:none"
       d="m 478.73057,-1389.1472 -103.3675,0 0,224.8375 103.3675,0 c 57.98625,0 95.7975,-40.425 95.7975,-103.5875 0,-68.2 -42.85375,-121.25 -95.7975,-121.25 z m 5.0425,-293.0625 -108.41,0 0,192 108.41,0 c 47.90125,0 78.155,-40.4125 78.155,-106.1 0,-60.6375 -22.69,-85.9 -78.155,-85.9 z m 0,618.95 -211.775,0 0,-720 226.9,0 c 95.805,0 163.8675,75.7875 163.8675,186.95 0,65.6875 -17.6375,96 -75.625,156.625 55.4625,45.475 88.2375,106.1125 88.2375,179.375 0,108.625 -85.725,197.05 -191.605,197.05 z"
       id="path17" />
    <path
       inkscape:connector-curvature="0"
       style="fill:#000000;fill-rule:nonzero;stroke:none"
       d="m 4147.9031,-1063.2597 -221.8625,-482.525 0,482.525 -103.3625,0 0,-720 103.3625,0 196.65,432 0,-432 103.375,0 0,720 -78.1625,0 z"
       id="path19" />
    <path
       inkscape:connector-curvature="0"
       style="fill:#000000;fill-rule:nonzero;stroke:none"
       d="m 3506.1531,-1682.2097 -105.8875,0 0,181.9 105.8875,0 c 60.5125,0 93.2875,-32.8375 93.2875,-90.95 0,-55.575 -37.825,-90.95 -93.2875,-90.95 z m 88.2375,618.95 -95.8,-338.525 -98.325,0 0,338.525 -103.3625,0 0,-720 214.2875,0 c 113.4625,0 189.0875,75.7875 189.0875,192 0,85.9 -35.2875,149.05 -103.3625,174.3125 l 103.3625,353.6875 -105.8875,0 z"
       id="path21" />
    <path
       inkscape:connector-curvature="0"
       style="fill:#000000;fill-rule:nonzero;stroke:none"
       d="m 1528.5781,-1395.7722 c -31.15,-20.175 -61.4,-40.425 -80.7125,-54.0125 -58.0375,-40.8625 -88.7875,-96 -88.7875,-159.1625 0,-103.575 81.1875,-186.9375 185.2,-186.9375 101.475,0 180.125,78.3125 182.6625,186.9375 l -98.9375,0 c -2.5375,-50.525 -38.0625,-83.3625 -83.725,-83.3625 -48.2,0 -86.2625,35.3625 -86.2625,83.3625 0,35.375 15.225,55.5875 68.5,85.9 139.5375,80.8375 200.425,159.15 200.425,262.7375 0,116.2125 -88.8,209.6875 -200.425,209.6875 -126.85,0 -202.95,-106.1125 -202.95,-224.85 l 101.475,0 c 0,60.6375 30.4375,123.8 101.475,123.8 55.8125,0 101.4875,-50.5375 101.4875,-108.6375 0,-45.1125 -18.65,-83.1125 -99.425,-135.4625 z"
       id="path23" />
    <path
       inkscape:connector-curvature="0"
       style="fill:#000000;fill-rule:nonzero;stroke:none"
       d="m 2502.5656,-1687.2597 0,624 -103.875,0 0,-624 -131.75,0 0,-96 367.375,0 0,96 -131.75,0 z"
       id="path25" />
    <path
       inkscape:connector-curvature="0"
       style="fill:#000000;fill-rule:nonzero;stroke:none"
       d="m 1173.4281,-1151.6722 c -35.3,58.1 -103.3625,101.05 -171.4375,101.05 -70.58754,0 -141.18754,-40.425 -176.47504,-101.05 -20.17499,-37.9 -27.73749,-68.225 -27.73749,-126.325 l 0,-505.2625 103.36249,0 0,517.9 c 0,68.2 40.3375,113.6875 100.85004,113.6875 55.4625,0 95.8,-45.4875 95.8,-113.6875 l 0,-517.9 103.375,0 0,505.2625 c 0,58.1 -7.5625,88.425 -27.7375,126.325 z"
       id="path27" />
    <path
       inkscape:connector-curvature="0"
       style="fill:#000000;fill-rule:nonzero;stroke:none"
       d="m 3110.7781,-1151.6847 c -35.3,58.1125 -103.375,101.0625 -171.45,101.0625 -70.5875,0 -141.175,-40.425 -176.475,-101.0625 -20.175,-37.8875 -27.7375,-68.2125 -27.7375,-126.3125 l 0,-505.2625 103.3625,0 0,517.9 c 0,68.2 40.35,113.675 100.85,113.675 55.4625,0 95.8125,-45.475 95.8125,-113.675 l 0,-517.9 103.3625,0 0,505.2625 c 0,58.1 -7.5625,88.425 -27.725,126.3125 z"
       id="path29" />
    <path
       inkscape:connector-curvature="0"
       style="fill:#000000;fill-rule:nonzero;stroke:none"
       d="m 1284.0281,-533.52224 -50.65,207.1625 103.85,0 -53.2,-207.1625 z m 129.175,505.262498 -50.65,-197.049998 -154.5,0 -48.125,197.049998 -103.85,0 179.825,-719.999998 101.325,0 179.825,719.999998 -103.85,0 z"
       id="path31" />
    <path
       inkscape:connector-curvature="0"
       style="fill:#000000;fill-rule:nonzero;stroke:none"
       d="m 2839.7781,-533.52224 -50.6625,207.1625 103.85,0 -53.1875,-207.1625 z m 129.175,505.262498 -50.6625,-197.049998 -154.5,0 -48.125,197.049998 -103.85,0 179.8375,-719.999998 101.3125,0 179.8375,719.999998 -103.85,0 z"
       id="path33" />
    <path
       inkscape:connector-curvature="0"
       style="fill:#000000;fill-rule:nonzero;stroke:none"
       d="m 3455.9656,-573.94724 c -17.65,-50.525 -47.9,-73.2625 -93.2875,-73.2625 l -85.7125,0 0,517.9 85.7125,0 c 60.5125,0 93.2875,-48 103.375,-103.575 5.0375,-45.475 10.0875,-96 10.0875,-151.5875 0,-80.8375 -7.575,-159.1625 -20.175,-189.475 z m 17.65,512.849998 c -25.2125,22.7375 -60.5125,32.8375 -100.85,32.8375 l -199.1625,0 0,-719.999998 184.0375,0 c 60.5125,0 90.7625,7.575 115.975,27.7875 42.8625,30.325 73.1125,85.9 85.7125,159.1625 10.0875,53.05 17.65,116.2125 17.65,171.7875 0,166.7375 -32.775,272.85 -103.3625,328.424998 z"
       id="path35" />
    <path
       inkscape:connector-curvature="0"
       style="fill:#000000;fill-rule:nonzero;stroke:none"
       d="m 2179.6406,-28.259742 0,-719.999998 339.5,0 0,101.05 -235.625,0 0,181.9 149.4875,0 0,98.525 -149.4875,0 0,237.475 263.5,0 0,101.049998 -367.375,0 z"
       id="path37" />
    <path
       inkscape:connector-curvature="0"
       style="fill:#000000;fill-rule:nonzero;stroke:none"
       d="m 1917.8656,-28.259742 0,-325.899998 -196.6375,0 0,325.899998 -103.375,0 0,-719.999998 103.375,0 0,293.05 196.6375,0 0,-293.05 103.375,0 0,719.999998 -103.375,0 z"
       id="path39" />
    <path
       inkscape:connector-curvature="0"
       style="fill:#000000;fill-rule:nonzero;stroke:none"
       d="m 1624.0906,-2626.2597 c -10.15,-70.7375 -38.05,-103.575 -86.25,-103.575 -83.725,0 -114.1625,65.6875 -114.1625,252.625 0,207.1625 35.5125,290.5375 124.3125,290.5375 60.8875,0 76.1,-50.5375 76.1,-103.5875 l 104.025,0 c -2.5375,118.7375 -78.65,204.6375 -180.125,204.6375 -154.7625,0 -223.2625,-123.7875 -223.2625,-389.05 0,-232.425 73.575,-356.2125 215.65,-356.2125 58.35,0 109.0875,25.2625 142.0625,73.2625 27.9125,35.3625 38.0625,65.6875 45.675,131.3625 l -104.025,0 z"
       id="path41" />
    <path
       inkscape:connector-curvature="0"
       style="fill:#000000;fill-rule:nonzero;stroke:none"
       d="m 2143.3281,-2098.2597 0,-325.8875 -196.65,0 0,325.8875 -103.3625,0 0,-720 103.3625,0 0,293.0625 196.65,0 0,-293.0625 103.3625,0 0,720 -103.3625,0 z"
       id="path43" />
    <path
       inkscape:connector-curvature="0"
       style="fill:#000000;fill-rule:nonzero;stroke:none"
       d="m 3430.7281,-2098.2597 0,-720 103.875,0 0,624 263.5,0 0,96 -367.375,0 z"
       id="path45" />
    <path
       inkscape:connector-curvature="0"
       style="fill:#000000;fill-rule:nonzero;stroke:none"
       d="m 2664.7156,-2638.8847 c -17.8125,-63.1625 -45.8125,-90.95 -89.0625,-90.95 -45.8125,0 -73.8,27.7875 -91.6125,88.425 -17.8125,55.575 -22.9,103.575 -22.9,184.4125 0,78.325 7.625,123.7875 22.9,181.9 17.8125,60.625 45.8,88.425 91.6125,88.425 43.25,0 71.25,-27.8 89.0625,-88.425 17.8125,-58.1125 22.9,-101.05 22.9,-184.425 0,-80.8375 -7.6375,-126.3125 -22.9,-179.3625 z m 81.4375,429.475 c -35.6375,85.8875 -89.075,123.7875 -170.5,123.7875 -86.525,0 -137.425,-37.9 -173.05,-123.7875 -30.5375,-70.7375 -40.7125,-138.95 -40.7125,-250.1125 0,-108.625 10.175,-181.8875 40.7125,-250.1 38.175,-85.9 89.075,-121.2625 173.05,-121.2625 83.975,0 134.8625,35.3625 170.5,123.7875 30.5375,70.7375 40.7125,138.95 40.7125,247.575 0,111.1625 -10.175,181.9 -40.7125,250.1125 z"
       id="path47" />
    <path
       inkscape:connector-curvature="0"
       style="fill:#000000;fill-rule:nonzero;stroke:none"
       d="m 3193.3781,-2638.8847 c -17.8125,-63.1625 -45.8125,-90.95 -89.075,-90.95 -45.8,0 -73.8,27.7875 -91.6125,88.425 -17.8125,55.575 -22.9,103.575 -22.9,184.4125 0,78.325 7.6375,123.7875 22.9,181.9 17.8125,60.625 45.8125,88.425 91.6125,88.425 43.2625,0 71.2625,-27.8 89.075,-88.425 17.8125,-58.1125 22.9,-101.05 22.9,-184.425 0,-80.8375 -7.6375,-126.3125 -22.9,-179.3625 z m 81.4375,429.475 c -35.6375,85.8875 -89.075,123.7875 -170.5125,123.7875 -86.525,0 -137.4125,-37.9 -173.0375,-123.7875 -30.5375,-70.7375 -40.7125,-138.95 -40.7125,-250.1125 0,-108.625 10.175,-181.8875 40.7125,-250.1 38.1625,-85.9 89.0625,-121.2625 173.0375,-121.2625 83.9875,0 134.875,35.3625 170.5125,123.7875 30.5375,70.7375 40.7125,138.95 40.7125,247.575 0,111.1625 -10.175,181.9 -40.7125,250.1125 z"
       id="path49" />
    <path
       inkscape:connector-curvature="0"
       style="fill:#000000;fill-rule:nonzero;stroke:none"
       d="m 1039.9656,-2430.7597 c -31.15,-20.1875 -61.40004,-40.4375 -80.70004,-54.025 -58.05,-40.8625 -88.8,-96 -88.8,-159.1625 0,-103.575 81.1875,-186.9375 185.20004,-186.9375 101.4875,0 180.125,78.3125 182.6625,186.9375 l -98.9375,0 c -2.5375,-50.525 -38.05,-83.3625 -83.725,-83.3625 -48.2,0 -86.25004,35.3625 -86.25004,83.3625 0,35.375 15.2125,55.5875 68.50004,85.9 139.525,80.8375 200.4125,159.1625 200.4125,262.7375 0,116.2125 -88.7875,209.6875 -200.4125,209.6875 -126.85004,0 -202.96254,-106.1125 -202.96254,-224.85 l 101.475,0 c 0,60.6375 30.45,123.8 101.48754,123.8 55.8125,0 101.475,-50.5375 101.475,-108.6375 0,-45.1125 -18.65,-83.1125 -99.425,-135.45 z"
       id="path51" />
  </g>
</svg>
