<?xml version="1.0" encoding="UTF-8" standalone="no"?>
<svg xmlns="http://www.w3.org/2000/svg" width="5885.73" height="5885.7295">
  <g transform="translate(693.83509 4366.1224)">
    <path fill="#cdff00" d="M2439.9419 1440.5291c-105.4375 105.4375-276.3875 105.4375-381.825 0L-614.75368-1232.3333c-105.44188-105.45-105.44188-276.4 0-381.8375L2058.1169-4287.0415c105.4375-105.4418 276.3875-105.4407 381.825 0l2672.875 2672.8707c105.4375 105.4375 105.4375 276.3875 0 381.8375l-2672.875 2672.8624z"/>
    <path d="M-567.02318-1280.0671c-78.95475-78.95-78.95475-207.425 0-286.375L2105.8346-4239.3123c78.95-78.9549 207.425-78.9549 286.375 0l2672.8625 2672.8702c78.9625 78.95 78.9625 207.425 0 286.375L2392.2096 1392.7953c-78.95 78.9625-207.425 78.9625-286.375 0L-567.02318-1280.0671z"/>
    <path fill="#cdff00" d="M-487.47443-1359.6272c-35.09125-35.0875-35.09125-92.1875 0-127.275L2185.3969-4159.761c35.075-35.0913 92.1875-35.0913 127.2625 0l2672.8625 2672.8588c35.1 35.0875 35.1 92.1875 0 127.275L2312.6594 1313.2352c-35.075 35.1-92.1875 35.1-127.2625 0L-487.47443-1359.6272z"/>
    <path d="M478.73057-1389.1472h-103.3675v224.8375h103.3675c57.98625 0 95.7975-40.425 95.7975-103.5875 0-68.2-42.85375-121.25-95.7975-121.25zm5.0425-293.0625h-108.41v192h108.41c47.90125 0 78.155-40.4125 78.155-106.1 0-60.6375-22.69-85.9-78.155-85.9zm0 618.95h-211.775v-720h226.9c95.805 0 163.8675 75.7875 163.8675 186.95 0 65.6875-17.6375 96-75.625 156.625 55.4625 45.475 88.2375 106.1125 88.2375 179.375 0 108.625-85.725 197.05-191.605 197.05zm3664.13003 0-221.8625-482.525v482.525h-103.3625v-720h103.3625l196.65 432v-432h103.375v720h-78.1625zm-641.75-618.95h-105.8875v181.9h105.8875c60.5125 0 93.2875-32.8375 93.2875-90.95 0-55.575-37.825-90.95-93.2875-90.95zm88.2375 618.95-95.8-338.525h-98.325v338.525h-103.3625v-720h214.2875c113.4625 0 189.0875 75.7875 189.0875 192 0 85.9-35.2875 149.05-103.3625 174.3125l103.3625 353.6875h-105.8875zm-2065.8125-332.5125c-31.15-20.175-61.4-40.425-80.7125-54.0125-58.0375-40.8625-88.7875-96-88.7875-159.1625 0-103.575 81.1875-186.9375 185.2-186.9375 101.475 0 180.125 78.3125 182.6625 186.9375h-98.9375c-2.5375-50.525-38.0625-83.3625-83.725-83.3625-48.2 0-86.2625 35.3625-86.2625 83.3625 0 35.375 15.225 55.5875 68.5 85.9 139.5375 80.8375 200.425 159.15 200.425 262.7375 0 116.2125-88.8 209.6875-200.425 209.6875-126.85 0-202.95-106.1125-202.95-224.85h101.475c0 60.6375 30.4375 123.8 101.475 123.8 55.8125 0 101.4875-50.5375 101.4875-108.6375 0-45.1125-18.65-83.1125-99.425-135.4625zm973.9875-291.4875v624h-103.875v-624h-131.75v-96h367.375v96h-131.75zm-1329.1375 535.5875c-35.3 58.1-103.3625 101.05-171.4375 101.05-70.58754 0-141.18754-40.425-176.47504-101.05-20.17499-37.9-27.73749-68.225-27.73749-126.325v-505.2625h103.36249v517.9c0 68.2 40.3375 113.6875 100.85004 113.6875 55.4625 0 95.8-45.4875 95.8-113.6875v-517.9h103.375v505.2625c0 58.1-7.5625 88.425-27.7375 126.325zm1937.35-.0125c-35.3 58.1125-103.375 101.0625-171.45 101.0625-70.5875 0-141.175-40.425-176.475-101.0625-20.175-37.8875-27.7375-68.2125-27.7375-126.3125v-505.2625h103.3625v517.9c0 68.2 40.35 113.675 100.85 113.675 55.4625 0 95.8125-45.475 95.8125-113.675v-517.9h103.3625v505.2625c0 58.1-7.5625 88.425-27.725 126.3125zm-1826.75 618.16246-50.65 207.1625h103.85l-53.2-207.1625zm129.175 505.262498-50.65-197.049998h-154.5l-48.125 197.049998h-103.85l179.825-719.999998h101.325l179.825 719.999998h-103.85zm1426.575-505.262498-50.6625 207.1625h103.85l-53.1875-207.1625zm129.175 505.262498-50.6625-197.049998h-154.5l-48.125 197.049998h-103.85l179.8375-719.999998h101.3125l179.8375 719.999998h-103.85zm487.0125-545.687498c-17.65-50.525-47.9-73.2625-93.2875-73.2625h-85.7125v517.9h85.7125c60.5125 0 93.2875-48 103.375-103.575 5.0375-45.475 10.0875-96 10.0875-151.5875 0-80.8375-7.575-159.1625-20.175-189.475zm17.65 512.849998c-25.2125 22.7375-60.5125 32.8375-100.85 32.8375h-199.1625V-748.25974h184.0375c60.5125 0 90.7625 7.575 115.975 27.7875 42.8625 30.325 73.1125 85.9 85.7125 159.1625 10.0875 53.05 17.65 116.2125 17.65 171.7875 0 166.7375-32.775 272.85-103.3625 328.424998zm-1293.975 32.8375V-748.25974h339.5v101.05h-235.625v181.9h149.4875v98.525h-149.4875v237.475h263.5v101.049998h-367.375zm-261.775 0V-354.15974h-196.6375v325.899998h-103.375V-748.25974h103.375v293.05h196.6375v-293.05h103.375v719.999998h-103.375zM1624.0906-2626.2597c-10.15-70.7375-38.05-103.575-86.25-103.575-83.725 0-114.1625 65.6875-114.1625 252.625 0 207.1625 35.5125 290.5375 124.3125 290.5375 60.8875 0 76.1-50.5375 76.1-103.5875h104.025c-2.5375 118.7375-78.65 204.6375-180.125 204.6375-154.7625 0-223.2625-123.7875-223.2625-389.05 0-232.425 73.575-356.2125 215.65-356.2125 58.35 0 109.0875 25.2625 142.0625 73.2625 27.9125 35.3625 38.0625 65.6875 45.675 131.3625h-104.025zm519.2375 528v-325.8875h-196.65v325.8875h-103.3625v-720h103.3625v293.0625h196.65v-293.0625h103.3625v720h-103.3625zm1287.4 0v-720h103.875v624h263.5v96h-367.375zm-766.0125-540.625c-17.8125-63.1625-45.8125-90.95-89.0625-90.95-45.8125 0-73.8 27.7875-91.6125 88.425-17.8125 55.575-22.9 103.575-22.9 184.4125 0 78.325 7.625 123.7875 22.9 181.9 17.8125 60.625 45.8 88.425 91.6125 88.425 43.25 0 71.25-27.8 89.0625-88.425 17.8125-58.1125 22.9-101.05 22.9-184.425 0-80.8375-7.6375-126.3125-22.9-179.3625zm81.4375 429.475c-35.6375 85.8875-89.075 123.7875-170.5 123.7875-86.525 0-137.425-37.9-173.05-123.7875-30.5375-70.7375-40.7125-138.95-40.7125-250.1125 0-108.625 10.175-181.8875 40.7125-250.1 38.175-85.9 89.075-121.2625 173.05-121.2625 83.975 0 134.8625 35.3625 170.5 123.7875 30.5375 70.7375 40.7125 138.95 40.7125 247.575 0 111.1625-10.175 181.9-40.7125 250.1125zm447.225-429.475c-17.8125-63.1625-45.8125-90.95-89.075-90.95-45.8 0-73.8 27.7875-91.6125 88.425-17.8125 55.575-22.9 103.575-22.9 184.4125 0 78.325 7.6375 123.7875 22.9 181.9 17.8125 60.625 45.8125 88.425 91.6125 88.425 43.2625 0 71.2625-27.8 89.075-88.425 17.8125-58.1125 22.9-101.05 22.9-184.425 0-80.8375-7.6375-126.3125-22.9-179.3625zm81.4375 429.475c-35.6375 85.8875-89.075 123.7875-170.5125 123.7875-86.525 0-137.4125-37.9-173.0375-123.7875-30.5375-70.7375-40.7125-138.95-40.7125-250.1125 0-108.625 10.175-181.8875 40.7125-250.1 38.1625-85.9 89.0625-121.2625 173.0375-121.2625 83.9875 0 134.875 35.3625 170.5125 123.7875 30.5375 70.7375 40.7125 138.95 40.7125 247.575 0 111.1625-10.175 181.9-40.7125 250.1125zm-2234.85-221.35c-31.15-20.1875-61.40004-40.4375-80.70004-54.025-58.05-40.8625-88.8-96-88.8-159.1625 0-103.575 81.1875-186.9375 185.20004-186.9375 101.4875 0 180.125 78.3125 182.6625 186.9375h-98.9375c-2.5375-50.525-38.05-83.3625-83.725-83.3625-48.2 0-86.25004 35.3625-86.25004 83.3625 0 35.375 15.2125 55.5875 68.50004 85.9 139.525 80.8375 200.4125 159.1625 200.4125 262.7375 0 116.2125-88.7875 209.6875-200.4125 209.6875-126.85004 0-202.96254-106.1125-202.96254-224.85h101.475c0 60.6375 30.45 123.8 101.48754 123.8 55.8125 0 101.475-50.5375 101.475-108.6375 0-45.1125-18.65-83.1125-99.425-135.45z"/>
  </g>
</svg>