<?xml version="1.0" encoding="UTF-8" standalone="no"?>
<!-- Created with Inkscape (http://www.inkscape.org/) -->

<svg
   xmlns:dc="http://purl.org/dc/elements/1.1/"
   xmlns:cc="http://creativecommons.org/ns#"
   xmlns:rdf="http://www.w3.org/1999/02/22-rdf-syntax-ns#"
   xmlns:svg="http://www.w3.org/2000/svg"
   xmlns="http://www.w3.org/2000/svg"
   xmlns:sodipodi="http://sodipodi.sourceforge.net/DTD/sodipodi-0.dtd"
   xmlns:inkscape="http://www.inkscape.org/namespaces/inkscape"
   width="226.5"
   height="95.25"
   id="svg3562"
   version="1.1"
   inkscape:version="0.48.2 r9819"
   sodipodi:docname="MUTCD S4-1P.svg">
  <defs
     id="defs3564">
    <inkscape:perspective
       sodipodi:type="inkscape:persp3d"
       inkscape:vp_x="0 : 526.18109 : 1"
       inkscape:vp_y="0 : 1000 : 0"
       inkscape:vp_z="744.09448 : 526.18109 : 1"
       inkscape:persp3d-origin="372.04724 : 350.78739 : 1"
       id="perspective3570" />
    <inkscape:perspective
       id="perspective3595"
       inkscape:persp3d-origin="301.91901 : 198.427 : 1"
       inkscape:vp_z="603.83801 : 297.6405 : 1"
       inkscape:vp_y="0 : 1000 : 0"
       inkscape:vp_x="0 : 297.6405 : 1"
       sodipodi:type="inkscape:persp3d" />
    <inkscape:perspective
       id="perspective3615"
       inkscape:persp3d-origin="0.5 : 0.33333333 : 1"
       inkscape:vp_z="1 : 0.5 : 1"
       inkscape:vp_y="0 : 1000 : 0"
       inkscape:vp_x="0 : 0.5 : 1"
       sodipodi:type="inkscape:persp3d" />
    <inkscape:perspective
       id="perspective4061"
       inkscape:persp3d-origin="0.5 : 0.33333333 : 1"
       inkscape:vp_z="1 : 0.5 : 1"
       inkscape:vp_y="0 : 1000 : 0"
       inkscape:vp_x="0 : 0.5 : 1"
       sodipodi:type="inkscape:persp3d" />
    <inkscape:perspective
       id="perspective4872"
       inkscape:persp3d-origin="263 : 175.33333 : 1"
       inkscape:vp_z="526 : 263 : 1"
       inkscape:vp_y="0 : 1000 : 0"
       inkscape:vp_x="0 : 263 : 1"
       sodipodi:type="inkscape:persp3d" />
    <inkscape:perspective
       id="perspective4933"
       inkscape:persp3d-origin="0.5 : 0.33333333 : 1"
       inkscape:vp_z="1 : 0.5 : 1"
       inkscape:vp_y="0 : 1000 : 0"
       inkscape:vp_x="0 : 0.5 : 1"
       sodipodi:type="inkscape:persp3d" />
    <inkscape:perspective
       id="perspective4966"
       inkscape:persp3d-origin="0.5 : 0.33333333 : 1"
       inkscape:vp_z="1 : 0.5 : 1"
       inkscape:vp_y="0 : 1000 : 0"
       inkscape:vp_x="0 : 0.5 : 1"
       sodipodi:type="inkscape:persp3d" />
    <inkscape:perspective
       id="perspective3614"
       inkscape:persp3d-origin="0.5 : 0.33333333 : 1"
       inkscape:vp_z="1 : 0.5 : 1"
       inkscape:vp_y="0 : 1000 : 0"
       inkscape:vp_x="0 : 0.5 : 1"
       sodipodi:type="inkscape:persp3d" />
    <inkscape:perspective
       id="perspective3653"
       inkscape:persp3d-origin="0.5 : 0.33333333 : 1"
       inkscape:vp_z="1 : 0.5 : 1"
       inkscape:vp_y="0 : 1000 : 0"
       inkscape:vp_x="0 : 0.5 : 1"
       sodipodi:type="inkscape:persp3d" />
    <inkscape:perspective
       id="perspective3701"
       inkscape:persp3d-origin="0.5 : 0.33333333 : 1"
       inkscape:vp_z="1 : 0.5 : 1"
       inkscape:vp_y="0 : 1000 : 0"
       inkscape:vp_x="0 : 0.5 : 1"
       sodipodi:type="inkscape:persp3d" />
    <inkscape:perspective
       id="perspective4525"
       inkscape:persp3d-origin="0.5 : 0.33333333 : 1"
       inkscape:vp_z="1 : 0.5 : 1"
       inkscape:vp_y="0 : 1000 : 0"
       inkscape:vp_x="0 : 0.5 : 1"
       sodipodi:type="inkscape:persp3d" />
    <inkscape:perspective
       id="perspective4729"
       inkscape:persp3d-origin="301.91901 : 198.427 : 1"
       inkscape:vp_z="603.83801 : 297.6405 : 1"
       inkscape:vp_y="0 : 1000 : 0"
       inkscape:vp_x="0 : 297.6405 : 1"
       sodipodi:type="inkscape:persp3d" />
    <inkscape:perspective
       id="perspective4759"
       inkscape:persp3d-origin="0.5 : 0.33333333 : 1"
       inkscape:vp_z="1 : 0.5 : 1"
       inkscape:vp_y="0 : 1000 : 0"
       inkscape:vp_x="0 : 0.5 : 1"
       sodipodi:type="inkscape:persp3d" />
    <inkscape:perspective
       id="perspective4793"
       inkscape:persp3d-origin="0.5 : 0.33333333 : 1"
       inkscape:vp_z="1 : 0.5 : 1"
       inkscape:vp_y="0 : 1000 : 0"
       inkscape:vp_x="0 : 0.5 : 1"
       sodipodi:type="inkscape:persp3d" />
  </defs>
  <sodipodi:namedview
     id="base"
     pagecolor="#ffffff"
     bordercolor="#666666"
     borderopacity="1.0"
     inkscape:pageopacity="0.0"
     inkscape:pageshadow="2"
     inkscape:zoom="2.4702858"
     inkscape:cx="126.68731"
     inkscape:cy="5.617577"
     inkscape:document-units="px"
     inkscape:current-layer="layer1"
     showgrid="false"
     inkscape:window-width="1280"
     inkscape:window-height="1004"
     inkscape:window-x="-8"
     inkscape:window-y="-8"
     inkscape:window-maximized="1"
     fit-margin-top="0"
     fit-margin-left="0"
     fit-margin-right="0"
     fit-margin-bottom="0" />
  <metadata
     id="metadata3567">
    <rdf:RDF>
      <cc:Work
         rdf:about="">
        <dc:format>image/svg+xml</dc:format>
        <dc:type
           rdf:resource="http://purl.org/dc/dcmitype/StillImage" />
        <dc:title></dc:title>
      </cc:Work>
    </rdf:RDF>
  </metadata>
  <g
     inkscape:label="Livello 1"
     inkscape:groupmode="layer"
     id="layer1"
     transform="translate(1913.2813,2344.6875)">
    <g
       display="none"
       id="Layer_1_1_"
       style="display:none"
       transform="translate(-179.26841,166.65141)">
      <path
         id="path3574"
         enable-background="new    "
         d=""
         display="inline"
         style="fill:none;display:inline"
         inkscape:connector-curvature="0" />
    </g>
    <g
       display="none"
       id="Layer_3"
       transform="translate(-859.87637,144.75832)"
       style="display:none">
      <line
         y2="395.00101"
         x2="154.05701"
         y1="342.67899"
         x1="207.533"
         display="inline"
         id="line7934"
         style="fill:none;display:inline" />
    </g>
    <path
       d="m -1890.0416,-2343.9445 180.0146,0 c 12.3994,0 22.5065,10.1117 22.5065,22.4971 l 0,48.7586 c 0,12.3948 -10.1071,22.5019 -22.5065,22.5019 l -179.1989,-0.1172 c -0.2766,0.01 -0.5391,0.019 -0.8157,0.019 -12.3901,0 -22.4971,-10.107 -22.4971,-22.5065 l 0,-48.6555 c 0,-12.3854 10.107,-22.4971 22.4971,-22.4971 z"
       style="fill:#ffffff;stroke:#000000;stroke-width:1.5;stroke-linecap:butt;stroke-linejoin:miter;stroke-miterlimit:4;stroke-opacity:1;stroke-dasharray:none"
       id="path3107"
       inkscape:connector-curvature="0" />
    <path
       d="m -1890.0791,-2339.4488 180.0896,0 c 9.9008,0 17.9639,8.0678 17.9639,17.9639 l 0,48.829 c 0,9.9008 -8.0631,17.9639 -17.9639,17.9639 l -180.0896,0 c -9.8867,0 -17.9639,-8.0631 -17.9639,-17.9639 l 0,-48.829 c 0,-9.8961 8.0772,-17.9639 17.9639,-17.9639"
       style="fill:#000000;fill-opacity:1;fill-rule:evenodd;stroke:none"
       id="path3111"
       inkscape:connector-curvature="0" />
    <path
       d="m -1890.0323,-2332.6983 179.9958,0 c 6.2021,0 11.265,5.0629 11.265,11.2603 l 0,48.7399 c 0,6.1973 -5.0629,11.2603 -11.265,11.2603 l -179.9958,0 c -6.1974,0 -11.2509,-5.063 -11.2509,-11.2603 l 0,-48.7399 c 0,-6.1974 5.0535,-11.2603 11.2509,-11.2603"
       style="fill:#ffffff;fill-opacity:1;fill-rule:evenodd;stroke:none"
       id="path3115"
       inkscape:connector-curvature="0" />
    <path
       d="m -1768.3302,-2311.1575 0,-18.7421 -2.958,0 0,11.9681 -6.849,-11.9681 -2.9487,0 0,18.7421 2.9487,0 0,-12.6901 7.1771,12.6901 2.6299,0 z m -15.8497,0 0,-3.019 -8.682,0 0,-5.1379 5.4614,0 0,-3.019 -5.4614,0 0,-4.6082 8.0866,0 0,-2.958 -11.0493,0 0,18.7421 11.6447,0 z m -16.0419,0 0,-18.7421 -2.9675,0 0,7.5662 -6.8396,0 0,-7.5662 -2.958,0 0,18.7421 2.958,0 0,-8.1569 6.8396,0 0,8.1569 2.9675,0 z m -15.5263,-18.7421 -3.0237,0 -1.4438,9.8633 -2.4377,-9.8633 -2.8925,0 -2.3626,9.8633 -1.4486,-9.8633 -3.019,0 2.7565,18.7421 2.6252,0 2.8924,-12.0291 2.9674,12.0291 2.6299,0 2.7565,-18.7421 z"
       style="fill:#000000;fill-opacity:1;fill-rule:evenodd;stroke:none"
       id="path3119"
       inkscape:connector-curvature="0" />
    <path
       d="m -1742.2797,-2287.7317 0,-18.7468 -2.958,0 0,11.9681 -6.8397,-11.9681 -2.958,0 0,18.7468 2.958,0 0,-12.6948 7.1678,12.6948 2.6299,0 z m -15.8497,0 0,-3.033 -8.682,0 0,-5.1286 5.4661,0 0,-3.019 -5.4661,0 0,-4.6082 8.0866,0 0,-2.958 -11.0446,0 0,18.7468 11.64,0 z m -18.0858,-13.487 c 0,0.7922 -0.4548,1.5798 -1.1814,1.9736 -0.4547,0.2672 -0.7876,0.3328 -1.7111,0.3328 l -3.5534,0 0,-4.6082 3.5534,0 c 0.9892,0 1.2564,0.066 1.7111,0.3329 0.7266,0.3938 1.1814,1.1813 1.1814,1.9689 m 3.3518,13.487 -3.2768,-8.7476 c 1.7017,-0.7875 2.8924,-2.7658 2.8924,-4.7394 0,-1.908 -1.1907,-3.8769 -2.8362,-4.6644 -0.9188,-0.4641 -1.908,-0.5954 -3.3518,-0.5954 l -6.1833,0 0,18.7468 2.958,0 0,-8.1616 3.5534,0 3.0237,8.1616 3.2206,0 z m -19.8485,-9.4039 c 0,2.4987 -0.5954,4.5379 -1.7158,5.6583 -0.5203,0.5204 -1.1157,0.7126 -2.1048,0.7126 l -2.9581,0 0,-12.7558 3.3519,0 c 0.7875,0 1.4485,0.3329 1.9032,0.797 0.9282,0.9797 1.5236,3.0846 1.5236,5.5879 m 3.019,0 c 0,-3.68 -1.1157,-6.6474 -3.094,-8.3538 -0.9891,-0.7875 -1.7017,-0.9891 -3.605,-0.9891 l -6.0614,0 0,18.7468 5.7286,0 1.0454,0 c 0.9891,-0.066 1.9783,-0.3938 2.7002,-1.0548 2.0955,-1.6501 3.2862,-4.5988 3.2862,-8.3491 m -15.5169,9.4039 0,-2.7565 -8.6819,0 0,-15.9903 -2.9581,0 0,18.7468 11.64,0 z m -16.0513,-18.7468 -3.0237,0 0,18.7468 3.0237,0 0,-18.7468 z m -7.4256,18.7468 0,-18.7468 -2.958,0 0,7.5662 -6.8396,0 0,-7.5662 -2.9581,0 0,18.7468 2.9581,0 0,-8.1616 6.8396,0 0,8.1616 2.958,0 z m -16.8388,-3.8206 -2.8268,-1.0454 c -0.7173,1.5142 -1.6408,2.1611 -2.8971,2.1611 -1.308,0 -2.1612,-0.4547 -2.8175,-1.4439 -0.7313,-1.1813 -1.1907,-3.2252 -1.1907,-5.2551 0,-1.5751 0.2672,-3.2252 0.722,-4.3409 0.6609,-1.6502 1.6501,-2.3065 3.1596,-2.3065 1.4485,0 2.0345,0.4032 3.094,1.9783 l 2.7565,-1.1813 c -1.247,-2.6299 -3.019,-3.8207 -5.8505,-3.8207 -2.1049,0 -3.68,0.722 -4.7957,2.1049 -1.322,1.6501 -2.1096,4.6082 -2.1096,7.5662 0,2.3627 0.5345,4.7301 1.383,6.3709 1.1813,2.3064 2.958,3.3705 5.7239,3.3705 2.6908,0 4.5331,-1.3923 5.6489,-4.1581"
       style="fill:#000000;fill-opacity:1;fill-rule:evenodd;stroke:none"
       id="path3123"
       inkscape:connector-curvature="0" />
    <path
       d="m -1719.5107,-2280.6957 0,-2.6252 -11.5744,0 0,2.6252 4.2754,0 0,16.117 2.958,0 0,-16.117 4.341,0 z m -14.3308,16.117 0,-18.7422 -2.9675,0 0,11.9682 -6.8302,-11.9682 -2.9627,0 0,18.7422 2.9627,0 0,-12.6901 7.1631,12.6901 2.6346,0 z m -15.8591,0 0,-3.0331 -8.6773,0 0,-5.1238 5.4661,0 0,-3.0237 -5.4661,0 0,-4.6035 8.0913,0 0,-2.9581 -11.04,0 0,18.7422 11.626,0 z m -14.72,-5.3911 c 0,-7.374 -8.8085,-5.0629 -9.0757,-8.5554 -0.136,-1.711 1.5142,-2.2314 2.8971,-2.1705 2.0955,0.066 2.7518,1.6502 2.7518,1.6502 l 2.6393,-0.7876 c -0.9235,-2.3064 -2.7003,-3.8159 -5.3302,-3.8159 -3.3518,0 -5.8504,1.3829 -5.8504,5.0629 0,3.094 2.4986,4.2097 3.619,4.6691 2.433,0.9892 5.3254,1.3829 5.3254,3.8816 0,1.5751 -1.1907,2.7565 -2.8924,2.7565 -1.7767,0 -3.2205,-0.9798 -4.0081,-2.7565 l -2.8409,1.0454 c 1.2564,2.8268 3.6285,4.7488 6.849,4.7488 1.5752,0 3.0237,-0.5391 4.0738,-1.4532 1.1813,-1.0548 1.8423,-2.5643 1.8423,-4.2754 m -14.5324,5.3911 0,-3.0331 -8.6773,0 0,-5.1238 5.4567,0 0,-3.0237 -5.4567,0 0,-4.6035 8.0819,0 0,-2.9581 -11.0399,0 0,18.7422 11.6353,0 z m -18.0811,-13.4777 c 0,0.7876 -0.4595,1.5752 -1.1908,1.9689 -0.4594,0.2672 -0.7875,0.3282 -1.7017,0.3282 l -3.5534,0 0,-4.6035 3.5534,0 c 0.9892,0 1.2423,0.061 1.7017,0.3281 0.7313,0.3938 1.1908,1.1814 1.1908,1.9783 m 3.3518,13.4777 -3.2862,-8.7523 c 1.7111,-0.7876 2.8924,-2.7565 2.8924,-4.7254 0,-1.9126 -1.1813,-3.8815 -2.8315,-4.6691 -0.9141,-0.4688 -1.9033,-0.5954 -3.3518,-0.5954 l -6.188,0 0,18.7422 2.9674,0 0,-8.1569 3.5534,0 3.019,8.1569 3.2253,0 z m -18.5499,-13.4777 c 0,0.7876 -0.4595,1.6408 -1.1205,1.9689 -0.5203,0.2672 -0.8485,0.3282 -1.7767,0.3282 l -3.8721,0 0,-4.6035 3.8721,0 c 0.9282,0 1.2564,0.061 1.7767,0.3281 0.661,0.3938 1.1205,1.1814 1.1205,1.9783 m 3.0283,0 c 0,-1.9126 -1.2516,-3.8815 -2.8924,-4.6691 -0.9235,-0.4688 -1.9033,-0.5954 -3.4175,-0.5954 l -6.4458,0 0,18.7422 2.9581,0 0,-8.1569 3.4877,0 c 1.4486,0 2.5643,-0.2672 3.4175,-0.661 1.6408,-0.722 2.8924,-2.6909 2.8924,-4.6598 m -25.188,13.4777 0,-3.0331 -8.6772,0 0,-5.1238 5.4567,0 0,-3.0237 -5.4567,0 0,-4.6035 8.0913,0 0,-2.9581 -11.0494,0 0,18.7422 11.6353,0 z m -18.0811,-13.4777 c 0,0.7876 -0.4594,1.5752 -1.1813,1.9689 -0.4688,0.2672 -0.797,0.3282 -1.7158,0.3282 l -3.5487,0 0,-4.6035 3.5487,0 c 0.9891,0 1.247,0.061 1.7158,0.3281 0.7219,0.3938 1.1813,1.1814 1.1813,1.9783 m 3.3518,13.4777 -3.2909,-8.7523 c 1.7158,-0.7876 2.8971,-2.7565 2.8971,-4.7254 0,-1.9126 -1.1813,-3.8815 -2.8314,-4.6691 -0.9142,-0.4688 -1.9033,-0.5954 -3.3519,-0.5954 l -6.1786,0 0,18.7422 2.9581,0 0,-8.1569 3.5487,0 3.0237,8.1569 3.2252,0 z m -21.6298,-8.2882 -3.755,0 1.9079,-5.2645 1.8471,5.2645 z m 6.0426,8.2882 -6.4458,-18.7422 -2.9581,0 -6.4458,18.7422 3.1596,0 1.8424,-5.2645 5.8505,0 1.847,5.2645 3.1502,0 z"
       style="fill:#000000;fill-opacity:1;fill-rule:evenodd;stroke:none"
       id="path3127"
       inkscape:connector-curvature="0" />
  </g>
</svg>
