<?xml version="1.0" encoding="UTF-8"?>
<svg width="24in" height="8in" viewBox="0 0 1728 576" xmlns="http://www.w3.org/2000/svg">
<rect class="cls-1" width="1728" height="576" rx="108" fill="#cdff00"/>
<path transform="translate(1e-4)" d="m1620 27h-1512a81.096 81.096 0 0 0-81 81v360a81.096 81.096 0 0 0 81 81h1512a81.096 81.096 0 0 0 81-81v-360a81.096 81.096 0 0 0-81-81zm36 441a36.041 36.041 0 0 1-36 36h-1512a36.041 36.041 0 0 1-36-36v-360a36.041 36.041 0 0 1 36-36h1512a36.041 36.041 0 0 1 36 36z"/>
<g data-name="SCHOOL">
<path transform="translate(1e-4)" d="m248.97 437.1c-49.497 0-85.767-29.442-104.97-72.965l43.522-16.215c11.949 27.308 34.137 42.67 61.446 42.67 26.455 0 44.376-18.348 44.376-42.67 0-38.402-44.376-44.376-81.926-59.311-17.067-7.254-55.47-24.321-55.47-71.684 0-56.751 38.403-78.086 90.032-78.086 40.537 0 67.845 23.469 81.926 58.885l-40.536 11.947c-4.266-12.801-22.614-25.176-43.096-25.176-21.761 0-45.657 6.827-43.95 33.283 4.267 53.337 139.53 18.347 139.53 131.42 0 52.484-39.256 87.9-90.886 87.9z"/>
<path transform="translate(1e-4)" d="m490.9 437.1c-42.243 0-69.551-16.214-87.9-51.63-12.801-25.175-21.334-61.445-21.334-98.141 0-45.229 12.374-90.887 32.429-116.06 17.067-21.334 41.389-32.429 73.818-32.429 43.523 0 70.832 18.347 90.033 58.885l-42.669 17.92c-15.788-24.322-25.176-30.295-47.364-30.295-23.041 0-38.402 10.24-48.644 35.416-6.826 17.068-11.093 42.243-11.093 66.564 0 31.576 6.827 63.151 18.348 81.072 9.814 15.362 23.468 22.189 43.523 22.189 19.201 0 33.282-10.24 44.377-33.282l43.522 16.214c-17.068 42.243-45.656 63.578-87.046 63.578z"/>
<path transform="translate(1e-4)" d="m790.44 431.98v-125.45h-104.97v125.45h-45.658v-288.02h45.658v116.06h104.97v-116.06h45.231v288.02z"/>
<path transform="translate(1e-4)" d="m1070.4 404.67c-16.64 21.762-39.25 32.429-69.55 32.429-40.534 0-65.283-16.214-82.778-51.63-11.947-24.323-20.481-62.725-20.481-96.861 0-47.79 11.947-90.46 31.575-117.34 16.642-22.615 40.537-32.429 73.824-32.429 79.79 0 98.99 85.34 98.99 149.77 0 45.23-11.52 90.46-31.58 116.06zm-67.41-219.32c-25.607 0-37.554 10.24-47.794 35.416-6.828 17.068-11.095 43.523-11.095 67.844 0 30.296 6.4 61.445 17.495 79.792 8.96 14.935 20.908 22.189 39.254 22.189 21.34 0 34.56-11.094 44.38-36.27 5.97-15.36 11.09-43.522 11.09-65.711 0-33.282-7.25-103.26-53.33-103.26z"/>
<path transform="translate(1e-4)" d="m1330.6 404.67c-16.64 21.762-39.26 32.429-69.56 32.429-40.53 0-65.28-16.214-82.77-51.63-11.95-24.323-20.49-62.725-20.49-96.861 0-47.79 11.95-90.46 31.58-117.34 16.64-22.615 40.54-32.429 73.82-32.429 79.79 0 98.99 85.34 98.99 149.77 0 45.23-11.52 90.46-31.57 116.06zm-67.42-219.32c-25.6 0-37.55 10.24-47.79 35.416-6.83 17.068-11.1 43.523-11.1 67.844 0 30.296 6.4 61.445 17.5 79.792 8.96 14.935 20.91 22.189 39.25 22.189 21.34 0 34.57-11.094 44.38-36.27 5.98-15.36 11.1-43.522 11.1-65.711 0-33.282-7.26-103.26-53.34-103.26z"/>
<path transform="translate(1e-4)" d="m1423.2 431.98v-288.02h45.66v245.78h133.13v42.243h-178.79z"/>
</g>
</svg>