<?xml version="1.0" encoding="UTF-8" standalone="no"?>
<!-- Created with Inkscape (http://www.inkscape.org/) -->

<svg
   xmlns:dc="http://purl.org/dc/elements/1.1/"
   xmlns:cc="http://creativecommons.org/ns#"
   xmlns:rdf="http://www.w3.org/1999/02/22-rdf-syntax-ns#"
   xmlns:svg="http://www.w3.org/2000/svg"
   xmlns="http://www.w3.org/2000/svg"
   xmlns:sodipodi="http://sodipodi.sourceforge.net/DTD/sodipodi-0.dtd"
   xmlns:inkscape="http://www.inkscape.org/namespaces/inkscape"
   width="123.61063"
   height="123.61125"
   id="svg2"
   sodipodi:version="0.32"
   inkscape:version="0.92.4 (5da689c313, 2019-01-14)"
   version="1.0"
   sodipodi:docname="MUTCD_S4-5a.svg"
   inkscape:output_extension="org.inkscape.output.svg.inkscape"
   sodipodi:modified="true">
  <defs
     id="defs4" />
  <sodipodi:namedview
     id="base"
     pagecolor="#ffffff"
     bordercolor="#666666"
     borderopacity="1.0"
     inkscape:pageopacity="0.0"
     inkscape:pageshadow="2"
     inkscape:zoom="6.2413222"
     inkscape:cx="48.024865"
     inkscape:cy="74.202236"
     inkscape:document-units="px"
     inkscape:current-layer="layer2"
     inkscape:window-width="1920"
     inkscape:window-height="1057"
     inkscape:window-x="-8"
     inkscape:window-y="-8"
     showguides="true"
     inkscape:guide-bbox="true"
     showgrid="false"
     fit-margin-top="0"
     fit-margin-left="0"
     fit-margin-right="0"
     fit-margin-bottom="0"
     inkscape:window-maximized="1" />
  <metadata
     id="metadata7">
    <rdf:RDF>
      <cc:Work
         rdf:about="">
        <dc:format>image/svg+xml</dc:format>
        <dc:type
           rdf:resource="http://purl.org/dc/dcmitype/StillImage" />
      </cc:Work>
    </rdf:RDF>
  </metadata>
  <g
     inkscape:groupmode="layer"
     id="layer2"
     inkscape:label="Dessin"
     transform="translate(423.20695,180.94642)">
    <g
       id="g3533"
       transform="matrix(1.25,0,0,-1.25,-358.28039,-179.65923)"
       style="stroke:none">
      <path
         d="m 0,0 45.916,-45.918 c 1.375,-1.373 1.375,-3.621 0,-4.996 L 0.002,-96.828 c -1.375,-1.375 -3.623,-1.375 -4.998,0 l -45.914,45.912 c -1.375,1.375 -1.375,3.625 0,4.998 L -4.994,0 C -3.621,1.373 -1.373,1.373 0,0"
         style="fill:#cdff00;fill-opacity:1;fill-rule:nonzero;stroke:none"
         id="path3535"
         inkscape:connector-curvature="0" />
    </g>
    <g
       id="g3537"
       transform="matrix(1.25,0,0,-1.25,-358.28039,-179.65923)"
       style="stroke:none">
      <path
         d="m 0,0 45.916,-45.918 c 1.375,-1.373 1.375,-3.621 0,-4.996 L 0.002,-96.828 c -1.375,-1.375 -3.623,-1.375 -4.998,0 l -45.914,45.912 c -1.375,1.375 -1.375,3.625 0,4.998 L -4.994,0 C -3.621,1.373 -1.373,1.373 0,0 z"
         style="fill:none;stroke:none"
         id="path3539"
         inkscape:connector-curvature="0" />
    </g>
    <g
       id="g3541"
       transform="matrix(1.25,0,0,-1.25,-358.92538,-178.68049)"
       style="stroke:none">
      <path
         d="m 0,0 45.649,-45.652 c 1.09,-1.088 1.09,-2.871 0,-3.963 L 0,-95.262 c -1.089,-1.09 -2.873,-1.09 -3.963,0 l -45.648,45.647 c -1.09,1.092 -1.09,2.873 0,3.963 L -3.963,0 C -2.873,1.09 -1.089,1.09 0,0"
         style="fill:#000000;fill-opacity:1;fill-rule:evenodd;stroke:none"
         id="path3543"
         inkscape:connector-curvature="0" />
    </g>
    <g
       id="g3545"
       transform="matrix(1.25,0,0,-1.25,-360.16301,-177.42298)"
       style="stroke:none">
      <path
         d="m 0,0 45.633,-45.637 c 0.545,-0.543 0.545,-1.435 0,-1.98 L 0,-93.25 c -0.545,-0.545 -1.437,-0.545 -1.98,0 l -45.635,45.633 c -0.545,0.545 -0.545,1.436 0,1.98 L -1.98,0 C -1.437,0.543 -0.545,0.543 0,0"
         style="fill:#cdff00;fill-opacity:1;fill-rule:evenodd;stroke:none"
         id="path3547"
         inkscape:connector-curvature="0" />
    </g>
    <path
       d="m -312.71914,-112.11802 0,-1.8575 -4.82375,0 0,-4.33125 2.7225,0 0,-1.795 -2.7225,0 0,-3.34 4.33125,0 0,-1.8575 -6.1875,0 0,13.18125 6.68,0 z m -9.52625,0 0,-13.18125 -1.91874,0 0,7.9225 -3.58875,-7.9225 -1.91875,0 0,13.18125 1.91875,0 0,-8.78625 4.08375,8.78625 1.42374,0 z m -11.88249,-6.56 c 0,1.48375 -0.0612,2.22625 -0.43125,3.27875 -0.30875,1.11625 -0.80375,1.6725 -1.61,1.6725 -0.8025,0 -1.35875,-0.55625 -1.66875,-1.6725 -0.2475,-1.0525 -0.435,-1.855 -0.435,-3.27875 0,-1.42375 0.12375,-2.35125 0.435,-3.34 0.31,-1.11625 0.86625,-1.60875 1.66875,-1.60875 0.80625,0 1.30125,0.4925 1.61,1.67 0.31,0.9275 0.43125,1.79375 0.43125,3.27875 m 1.795,0 c 0,-1.98 -0.18625,-3.27875 -0.7425,-4.5775 -0.6175,-1.60875 -1.545,-2.22875 -3.09375,-2.22875 -1.545,0 -2.475,0.62 -3.15375,2.22875 -0.55625,1.2375 -0.745,2.5975 -0.745,4.5775 0,1.98 0.18875,3.2175 0.745,4.51625 0.67875,1.54875 1.60875,2.29 3.15375,2.29 1.485,0 2.47625,-0.74125 3.09375,-2.29 0.55625,-1.2375 0.7425,-2.53625 0.7425,-4.51625 m -9.715,6.56 0,-1.795 -5.32,0 5.32,-10.21 0,-1.17625 -6.7425,0 0,1.8575 4.39375,0 -4.95125,9.28 0,2.04375 7.3,0 z m -13.17875,0 0,-1.795 -4.82625,0 0,-11.38625 -1.7925,0 0,13.18125 6.61875,0 z m -11.07375,-6.56 c 0,1.48375 -0.1225,2.22625 -0.4325,3.27875 -0.31,1.11625 -0.805,1.6725 -1.60875,1.6725 -0.86625,0 -1.3625,-0.55625 -1.67,-1.6725 -0.31,-1.0525 -0.43375,-1.855 -0.43375,-3.27875 0,-1.42375 0.12375,-2.35125 0.43375,-3.34 0.3075,-1.11625 0.80375,-1.60875 1.67,-1.60875 0.80375,0 1.29875,0.4925 1.60875,1.67 0.31,0.9275 0.4325,1.79375 0.4325,3.27875 m 1.795,0 c 0,-1.98 -0.18625,-3.27875 -0.7425,-4.5775 -0.6175,-1.60875 -1.54625,-2.22875 -3.09375,-2.22875 -1.545,0 -2.475,0.62 -3.15625,2.22875 -0.5575,1.2375 -0.7425,2.5975 -0.7425,4.5775 0,1.98 0.185,3.2175 0.7425,4.51625 0.62,1.54875 1.5475,2.29 3.15625,2.29 1.485,0 2.47625,-0.74125 3.09375,-2.29 0.55625,-1.2375 0.7425,-2.53625 0.7425,-4.51625 m -11.94125,0 c 0,1.48375 -0.125,2.22625 -0.435,3.27875 -0.3075,1.11625 -0.8025,1.6725 -1.60875,1.6725 -0.86375,0 -1.36,-0.55625 -1.67,-1.6725 -0.3075,-1.0525 -0.4325,-1.855 -0.4325,-3.27875 0,-1.42375 0.125,-2.35125 0.4325,-3.34 0.31,-1.11625 0.80625,-1.60875 1.67,-1.60875 0.80625,0 1.30125,0.4925 1.60875,1.67 0.31,0.9275 0.435,1.79375 0.435,3.27875 m 1.79375,0 c 0,-1.98 -0.185,-3.27875 -0.74125,-4.5775 -0.62,-1.60875 -1.54875,-2.22875 -3.09625,-2.22875 -1.545,0 -2.4725,0.62 -3.15375,2.22875 -0.5575,1.2375 -0.7425,2.5975 -0.7425,4.5775 0,1.98 0.185,3.2175 0.7425,4.51625 0.6175,1.54875 1.5475,2.29 3.15375,2.29 1.48625,0 2.47625,-0.74125 3.09625,-2.29 0.55625,-1.2375 0.74125,-2.53625 0.74125,-4.51625 m -10.33125,6.56 0,-13.18125 -1.91875,0 0,5.38375 -3.59,0 0,-5.38375 -1.91875,0 0,13.18125 1.91875,0 0,-6.00375 3.59,0 0,6.00375 1.91875,0 z m -10.025,-9.65375 c -0.12375,-1.17625 -0.31,-1.7325 -0.805,-2.41375 -0.6175,-0.865 -1.54625,-1.29875 -2.5975,-1.29875 -2.60125,0 -3.96,2.22875 -3.96,6.49625 0,4.82625 1.2375,7.11625 4.08375,7.11625 1.85625,0 3.215,-1.60875 3.27875,-3.77375 l -1.91875,0 c 0,0.99125 -0.24625,1.91875 -1.36,1.91875 -1.61125,0 -2.29,-1.5475 -2.29,-5.26125 0,-3.465 0.55625,-4.63875 2.1025,-4.63875 0.86625,0 1.3625,0.55625 1.5475,1.855 l 1.91875,0 z m -9.3425,6.065 c 0,-1.91875 -1.11375,-3.28125 -3.6525,-4.76625 -0.98875,-0.55625 -1.29875,-0.9275 -1.29875,-1.60875 0,-0.86625 0.74125,-1.545 1.60875,-1.545 0.805,0 1.48375,0.6175 1.5475,1.545 l 1.795,0 c -0.0637,-1.98 -1.4875,-3.4025 -3.3425,-3.4025 -1.91625,0 -3.40375,1.48375 -3.40375,3.4025 0,1.1775 0.55625,2.16625 1.67,2.9075 2.66125,1.7975 1.91875,1.23875 2.165,1.54875 0.80625,0.62 1.11625,1.17375 1.11625,1.91875 0,1.0525 -0.86625,1.98 -1.8575,1.98 -1.29875,0 -1.85625,-1.1775 -1.85625,-2.29 l -1.855,0 c 0,2.165 1.36,4.145 3.71125,4.145 2.0425,0 3.6525,-1.7325 3.6525,-3.835"
       style="fill:#000000;fill-opacity:1;fill-rule:evenodd;stroke:none"
       id="path3551"
       inkscape:connector-curvature="0" />
    <g
       id="g3553"
       transform="matrix(1.25,0,0,-1.25,-335.55038,-133.96161)"
       style="stroke:none">
      <path
         d="m 0,0 0,10.595 -1.485,0 0,-4.306 -2.92,0 0,4.306 -1.535,0 0,-10.595 1.535,0 0,4.802 2.92,0 L -1.485,0 0,0 z m -8.86,7.625 c 0,-0.991 -0.445,-1.536 -1.336,-1.536 l -1.584,0 0,3.02 1.584,0 c 0.791,0 1.336,-0.594 1.336,-1.484 m 1.485,0 c 0,1.781 -1.088,2.97 -2.772,2.97 l -3.168,0 0,-10.595 1.535,0 0,4.654 1.633,0 c 1.781,0 2.772,1.039 2.772,2.971 M -15.592,0 l 0,10.595 -1.535,0 -1.93,-5.941 -1.928,5.941 -1.535,0 0,-10.595 1.535,0 0,5.941 1.928,-5.941 1.93,5.941 0,-5.941 1.535,0 z m -13.166,5.296 c 0,-1.187 -0.049,-1.83 -0.297,-2.671 -0.297,-0.893 -0.691,-1.289 -1.336,-1.289 -0.643,0 -1.039,0.396 -1.336,1.289 -0.199,0.841 -0.297,1.484 -0.297,2.671 0,1.19 0.049,1.883 0.297,2.674 0.297,0.891 0.693,1.336 1.336,1.336 0.645,0 1.039,-0.445 1.336,-1.336 0.199,-0.791 0.297,-1.484 0.297,-2.674 m 1.486,0 c 0,1.635 -0.148,2.625 -0.594,3.665 -0.545,1.287 -1.289,1.832 -2.525,1.832 -1.188,0 -1.93,-0.545 -2.523,-1.784 -0.446,-1.039 -0.596,-2.078 -0.596,-3.713 0,-1.632 0.15,-2.623 0.596,-3.664 0.543,-1.236 1.285,-1.83 2.523,-1.83 1.187,0 1.98,0.594 2.525,1.83 0.446,0.993 0.594,2.032 0.594,3.664 M -35.092,0 l 0,1.484 -4.258,0 c 0.098,0.396 0.098,0.547 0.248,0.844 0.297,0.89 0.988,1.832 1.633,2.326 l 0.445,0.297 0.346,0.248 0.396,0.248 c 0.1,0.148 0.2,0.197 0.297,0.297 0.594,0.545 0.893,1.187 0.893,2.078 0,1.635 -1.289,2.971 -2.922,2.971 -1.682,0 -2.92,-1.336 -2.971,-2.971 l 1.487,0 c 0,0.793 0.693,1.484 1.484,1.484 0.842,0 1.484,-0.691 1.484,-1.484 0,-0.545 -0.197,-0.791 -0.89,-1.287 C -38.262,5.941 -38.508,5.744 -38.756,5.546 -39.45,4.853 -39.995,4.011 -40.44,2.921 -40.786,1.982 -40.885,1.484 -40.985,0 l 5.893,0 z"
         style="fill:#000000;fill-opacity:1;fill-rule:evenodd;stroke:none"
         id="path3555"
         inkscape:connector-curvature="0" />
    </g>
    <g
       id="g3557"
       transform="matrix(1.25,0,0,-1.25,-340.43914,-96.774215)"
       style="stroke:none">
      <path
         d="m 0,0 c 0,-0.789 -0.097,-1.532 -0.148,-2.225 -0.148,-0.793 -0.643,-1.486 -1.533,-1.486 l -1.238,0 0,7.572 1.238,0 c 0.642,0 1.088,-0.346 1.385,-1.09 C -0.148,2.326 0,1.187 0,0 M 1.487,0.099 C 1.487,0.89 1.336,1.832 1.19,2.623 1.041,3.664 0.594,4.504 -0.048,4.949 -0.445,5.246 -0.89,5.345 -1.73,5.345 l -2.725,0 0,-10.541 2.922,0 c 0.594,0 1.088,0.149 1.485,0.446 1.039,0.841 1.535,2.375 1.535,4.849 m -10.049,-0.939 -1.484,0 0.742,3.017 0.742,-3.017 z m 2.672,-4.356 -2.672,10.541 -1.484,0 -2.625,-10.541 1.535,0 0.693,2.871 2.277,0 0.743,-2.871 1.533,0 z m -7.721,0 0,1.485 -3.81,0 0,3.463 2.127,0 0,1.435 -2.127,0 0,2.674 3.414,0 0,1.484 -4.95,0 0,-10.541 5.346,0 z m -7.572,0 0,10.541 -1.535,0 0,-4.306 -2.92,0 0,4.306 -1.485,0 0,-10.541 1.485,0 0,4.75 2.92,0 0,-4.75 1.535,0 z m -10.049,4.356 -1.484,0 0.742,3.017 0.742,-3.017 z m 2.623,-4.356 -2.623,10.541 -1.484,0 -2.625,-10.541 1.535,0 0.693,2.871 2.278,0 0.742,-2.871 1.484,0 z"
         style="fill:#000000;fill-opacity:1;fill-rule:evenodd;stroke:none"
         id="path3559"
         inkscape:connector-curvature="0" />
    </g>
  </g>
  <g
     inkscape:label="Calque 1"
     inkscape:groupmode="layer"
     id="layer1"
     transform="translate(424.49268,171.51958)" />
</svg>
