<?xml version="1.0" encoding="UTF-8" standalone="no"?>
<!-- Generator: Adobe Illustrator 14.0.0, SVG Export Plug-In  -->

<svg
   xmlns:dc="http://purl.org/dc/elements/1.1/"
   xmlns:cc="http://creativecommons.org/ns#"
   xmlns:rdf="http://www.w3.org/1999/02/22-rdf-syntax-ns#"
   xmlns:svg="http://www.w3.org/2000/svg"
   xmlns="http://www.w3.org/2000/svg"
   xmlns:sodipodi="http://sodipodi.sourceforge.net/DTD/sodipodi-0.dtd"
   xmlns:inkscape="http://www.inkscape.org/namespaces/inkscape"
   version="1.1"
   x="0px"
   y="0px"
   width="123.61186"
   height="123.61125"
   viewBox="0 -0.321 123.61187 123.61126"
   enable-background="new 0 -0.321 144 120"
   xml:space="preserve"
   id="svg2"
   inkscape:version="0.48.2 r9819"
   sodipodi:docname="AJAX1.svg"><metadata
   id="metadata44"><rdf:RDF><cc:Work
       rdf:about=""><dc:format>image/svg+xml</dc:format><dc:type
         rdf:resource="http://purl.org/dc/dcmitype/StillImage" /><dc:title></dc:title></cc:Work></rdf:RDF></metadata><sodipodi:namedview
   pagecolor="#ffffff"
   bordercolor="#666666"
   borderopacity="1"
   objecttolerance="10"
   gridtolerance="10"
   guidetolerance="10"
   inkscape:pageopacity="0"
   inkscape:pageshadow="2"
   inkscape:window-width="1280"
   inkscape:window-height="1004"
   id="namedview42"
   showgrid="false"
   fit-margin-top="0"
   fit-margin-left="0"
   fit-margin-right="0"
   fit-margin-bottom="0"
   inkscape:zoom="3.7904688"
   inkscape:cx="39.108589"
   inkscape:cy="51.182946"
   inkscape:window-x="-8"
   inkscape:window-y="-8"
   inkscape:window-maximized="1"
   inkscape:current-layer="svg2" />
<defs
   id="defs4">
</defs>


















<path
   inkscape:connector-curvature="0"
   d="M 64.927812,0.9661875 122.32281,58.361198 c 1.71875,1.71625 1.71875,4.52625 0,6.245 L 64.930312,122.0012 c -1.72,1.71875 -4.53,1.71875 -6.24875,0 L 1.2890623,64.608698 c -1.71874997,-1.71875 -1.71874997,-4.53125 0,-6.2475 L 58.684062,0.9661875 c 1.71625,-1.71625 4.52625,-1.71625 6.24375,0 z"
   style="fill:#ffd033;fill-opacity:1;fill-rule:nonzero;stroke:none"
   id="path4179" /><path
   inkscape:connector-curvature="0"
   d="M 64.282812,1.9449375 121.34281,59.007448 c 1.3625,1.36 1.3625,3.59 0,4.95375 L 64.282812,121.02245 c -1.3625,1.3625 -3.59125,1.3625 -4.95375,0 L 2.2690623,63.961198 c -1.36249997,-1.36375 -1.36249997,-3.59125 0,-4.95375 L 59.329062,1.9449375 c 1.3625,-1.3625 3.59125,-1.3625 4.95375,0"
   style="fill:#000000;fill-opacity:1;fill-rule:evenodd;stroke:none"
   id="path4181" /><path
   inkscape:connector-curvature="0"
   d="M 63.045312,3.2024375 120.08531,60.246198 c 0.68125,0.67875 0.68125,1.79375 0,2.475 L 63.045312,119.76495 c -0.68125,0.68125 -1.7975,0.68125 -2.47625,0 L 3.5253123,62.721198 c -0.68125,-0.68125 -0.68125,-1.79375 0,-2.475 L 60.569062,3.2024375 c 0.67875,-0.67875 1.795,-0.67875 2.47625,0"
   style="fill:#ffd033;fill-opacity:1;fill-rule:evenodd;stroke:none"
   id="path4183" /><path
   inkscape:connector-curvature="0"
   d="m 18.666562,64.003698 c 0,-1.92 -1.11375,-3.28125 -3.65,-4.765 -0.99125,-0.55625 -1.29875,-0.92875 -1.29875,-1.60875 0,-0.86625 0.74125,-1.54625 1.60625,-1.54625 0.805,0 1.48625,0.6175 1.5475,1.54625 l 1.795,0 c -0.0612,-1.98125 -1.485,-3.40375 -3.3425,-3.40375 -1.91625,0 -3.40125,1.48625 -3.40125,3.40375 0,1.175 0.55625,2.16375 1.67,2.9075 2.66,1.79625 1.9175,1.2375 2.16625,1.54625 0.8025,0.62 1.1125,1.1775 1.1125,1.92 0,1.05125 -0.865,1.97875 -1.855,1.97875 -1.29875,0 -1.8575,-1.17625 -1.8575,-2.28875 l -1.85625,0 c 0,2.165 1.36125,4.145 3.71375,4.145 2.04125,0 3.65,-1.73375 3.65,-3.835 z m 9.3425,-6.065 c -0.1225,-1.175 -0.31,-1.7325 -0.80375,-2.4125 -0.61875,-0.86625 -1.5475,-1.3 -2.59875,-1.3 -2.59875,0 -3.96,2.2275 -3.96,6.49625 0,4.8275 1.2375,7.11625 4.08375,7.11625 1.85625,0 3.2175,-1.60875 3.27875,-3.775 l -1.9175,0 c 0,0.991249 -0.2475,1.91875 -1.36125,1.91875 -1.60875,0 -2.29,-1.5475 -2.29,-5.260001 0,-3.46375 0.5575,-4.63875 2.105,-4.63875 0.865,0 1.36,0.556251 1.54625,1.855001 l 1.9175,0 z m 10.025,9.65375 0,-13.18 -1.91875,0 0,5.38125 -3.58875,0 0,-5.38125 -1.9175,0 0,13.18 1.9175,0 0,-6.00375 3.58875,0 0,6.00375 1.91875,0 z m 10.33125,-6.56 c 0,-1.97875 -0.185,-3.27875 -0.74125,-4.57875 -0.61875,-1.60875 -1.54875,-2.2275 -3.09375,-2.2275 -1.5475,0 -2.475,0.61875 -3.15625,2.2275 -0.55625,1.23875 -0.7425,2.6 -0.7425,4.57875 0,1.98 0.18625,3.2175 0.7425,4.5175 0.62,1.54625 1.5475,2.28875 3.15625,2.28875 1.485,0 2.475,-0.7425 3.09375,-2.28875 0.55625,-1.2375 0.74125,-2.5375 0.74125,-4.5175 z m -1.79375,0 c 0,1.485 -0.12375,2.22875 -0.4325,3.28 -0.31,1.11375 -0.80375,1.67 -1.60875,1.67 -0.86625,0 -1.3625,-0.55625 -1.67125,-1.67 -0.30875,-1.05125 -0.4325,-1.8575 -0.4325,-3.28 0,-1.42375 0.12375,-2.35 0.4325,-3.34 0.30875,-1.115 0.805,-1.60875 1.67125,-1.60875 0.805,0 1.29875,0.49375 1.60875,1.67 0.30875,0.92875 0.4325,1.79375 0.4325,3.27875 z m 11.94375,0 c 0,-1.97875 -0.1875,-3.27875 -0.74375,-4.57875 -0.61875,-1.60875 -1.54625,-2.2275 -3.095,-2.2275 -1.545,0 -2.4725,0.61875 -3.155,2.2275 -0.555,1.23875 -0.74125,2.6 -0.74125,4.57875 0,1.98 0.18625,3.2175 0.74125,4.5175 0.61875,1.54625 1.5475,2.28875 3.155,2.28875 1.48625,0 2.47625,-0.7425 3.095,-2.28875 0.55625,-1.2375 0.74375,-2.5375 0.74375,-4.5175 z m -1.795,0 c 0,1.485 -0.125,2.22875 -0.43375,3.28 -0.31,1.11375 -0.80375,1.67 -1.61,1.67 -0.86625,0 -1.36125,-0.55625 -1.67,-1.67 -0.30875,-1.05125 -0.43125,-1.8575 -0.43125,-3.28 0,-1.42375 0.1225,-2.35 0.43125,-3.34 0.30875,-1.115 0.80375,-1.60875 1.67,-1.60875 0.80625,0 1.3,0.49375 1.61,1.67 0.30875,0.92875 0.43375,1.79375 0.43375,3.27875 z m 11.07375,6.56 0,-1.795 -4.82625,0 0,-11.385 -1.7925,0 0,13.18 6.61875,0 z m 13.18,0 0,-1.795 -5.32,0 5.32,-10.21 0,-1.175 -6.74375,0 0,1.85625 4.395,0 -4.95125,9.28125 0,2.0425 7.3,0 z m 9.715,-6.56 c 0,-1.97875 -0.18625,-3.27875 -0.7425,-4.57875 -0.61875,-1.60875 -1.54625,-2.2275 -3.09375,-2.2275 -1.5475,0 -2.475,0.61875 -3.15625,2.2275 -0.555,1.23875 -0.7425,2.6 -0.7425,4.57875 0,1.98 0.1875,3.2175 0.7425,4.5175 0.68126,1.54625 1.60875,2.28875 3.15625,2.28875 1.48375,0 2.475,-0.7425 3.09375,-2.28875 0.55625,-1.2375 0.7425,-2.5375 0.7425,-4.5175 z m -1.79499,0 c 0,1.485 -0.0613,2.22875 -0.43251,3.28 -0.30875,1.11375 -0.80374,1.67 -1.60874,1.67 -0.80375,0 -1.36125,-0.55625 -1.67,-1.67 -0.2475,-1.05125 -0.43501,-1.8575 -0.43501,-3.28 0,-1.42375 0.12501,-2.35 0.43501,-3.34 0.30875,-1.115 0.86624,-1.60875 1.67,-1.60875 0.805,0 1.3,0.49375 1.60874,1.67 0.31,0.92875 0.43251,1.79375 0.43251,3.27875 z m 11.879988,6.56 0,-13.18 -1.917488,0 0,7.92125 -3.58875,-7.92125 -1.91875,0 0,13.18 1.91875,0 0,-8.7875 4.08375,8.7875 1.422488,0 z m 9.52875,0 0,-1.8575 -4.825,0 0,-4.33 2.7225,0 0,-1.79625 -2.7225,0 0,-3.34 4.33125,0 0,-1.85625 -6.1875,0 0,13.18 6.68125,0"
   style="fill:#000000;fill-opacity:1;fill-rule:evenodd;stroke:none"
   id="path4185" /><path
   inkscape:connector-curvature="0"
   d="m 47.562812,42.161198 c 0,-1.36125 -0.49625,-2.5375 -1.4875,-3.46625 0.8675,-1.050001 1.1775,-1.9175 1.1775,-3.03125 0,-1.91625 -1.42375,-3.4025 -3.34125,-3.4025 -1.7325,0 -3.09375,1.3 -3.28,3.03125 l 1.85625,0.2475 c 0.0625,-0.865 0.61875,-1.422501 1.42375,-1.422501 0.92875,0 1.54625,0.680001 1.54625,1.67 0,0.5575 -0.185,1.11375 -0.55625,1.485 -0.31,0.3725 -0.495,0.556251 -0.99,0.556251 l -0.805,0 0,1.794999 0.92875,0 c 0.92875,0 1.7325,1.176251 1.7325,2.5375 0,1.11375 -0.80375,1.9175 -1.85625,1.9175 -0.99,0 -1.7325,-0.7425 -1.85625,-1.79375 l -1.85625,0 c 0.12375,2.165 1.60875,3.7125 3.7125,3.7125 2.16375,0 3.65125,-1.671249 3.65125,-3.83625 z m 9.775,-3.03125 c 0,-2.04375 -0.185,-3.28125 -0.7425,-4.58 -0.68,-1.60875 -1.60875,-2.28875 -3.155,-2.28875 -1.485,0 -2.41375,0.68 -3.155,2.227499 -0.5575,1.298751 -0.7425,2.5975 -0.7425,4.641251 0,2.04125 0.185,3.27875 0.7425,4.577499 0.68125,1.547501 1.60875,2.29 3.155,2.29 1.48625,0 2.475,-0.7425 3.155,-2.29 0.5575,-1.2375 0.7425,-2.536249 0.7425,-4.577499 z m -1.855,0 c 0,1.485 -0.0612,2.2875 -0.37125,3.34 -0.3725,1.11375 -0.86625,1.60875 -1.67125,1.60875 -0.805,0 -1.3,-0.495001 -1.67125,-1.60875 -0.2475,-1.0525 -0.37125,-1.855 -0.37125,-3.34 0,-1.485001 0.0625,-2.3525 0.37125,-3.3425 0.37125,-1.1125 0.86625,-1.67 1.67125,-1.67 0.805,0 1.29875,0.5575 1.67125,1.67 0.24625,0.99 0.37125,1.857499 0.37125,3.3425"
   style="fill:#000000;fill-opacity:1;fill-rule:evenodd;stroke:none"
   id="path4187" /><path
   inkscape:connector-curvature="0"
   d="m 67.300312,45.748698 -1.98,-4.64 1.42375,-1.7925 -1.48625,0 -1.48375,1.855 0,-4.39375 -1.23875,0.68 0,8.29125 1.23875,0 0,-2.7825 0.68125,-0.805 1.545,3.5875 1.3,0 z m 8.35375,0 0,-4.3925 c 0,-1.48375 -0.93,-2.10375 -1.795,-2.165 -0.61875,-0.0613 -1.29875,0 -1.73375,0.7425 -0.37,-0.49625 -0.8025,-0.7425 -1.36,-0.7425 -0.2475,0 -0.68125,0 -1.29875,0.495 l 0,-0.37 -1.17625,0 0,6.4325 1.2375,0 0,-4.3925 c 0,-0.741251 0.37125,-0.990001 0.805,-1.051251 0.61875,0 0.99,0.185 0.99,1.051251 l 0,4.3925 1.2375,0 0,-4.3925 c 0,-0.741251 0.37125,-1.051251 0.80375,-1.051251 0.68125,0 0.99,0.185 0.99,1.051251 l 0,4.3925 1.3,0"
   style="fill:#000000;fill-opacity:1;fill-rule:evenodd;stroke:none"
   id="path4189" /><path
   inkscape:connector-curvature="0"
   d="m 82.584072,36.901198 -1.36125,0 -5.07501,8.8475 1.36125,0 5.07501,-8.8475"
   style="fill:#000000;fill-opacity:1;fill-rule:evenodd;stroke:none"
   id="path4191" /><path
   inkscape:connector-curvature="0"
   d="m 87.347822,45.748698 0,-4.3925 c 0,-1.98 -1.73375,-2.66125 -3.2175,-1.91875 l 0,-2.66 -1.2375,0.68 0,8.29125 1.2375,0 0,-4.3925 c 0,-0.741251 0.43375,-0.990001 0.9275,-1.051251 0.61875,0 1.0525,0.185 1.0525,1.051251 l 0,4.3925 1.2375,0"
   style="fill:#000000;fill-opacity:1;fill-rule:evenodd;stroke:none"
   id="path4193" /><path
   inkscape:connector-curvature="0"
   d="m 46.819062,89.432449 -3.27875,-13.178751 -1.85625,0 -3.27875,13.178751 1.9175,0 0.865,-3.58875 2.8475,0 0.92875,3.58875 1.855,0 z m -3.27875,-5.443751 -1.85625,0 0.9275,-3.775 0.92875,3.775 z m 12.56,5.443751 0,-13.178751 -1.9175,0 0,5.38375 -3.65125,0 0,-5.38375 -1.855,0 0,13.178751 1.855,0 0,-5.940001 3.65125,0 0,5.940001 1.9175,0 z m 9.4675,0 0,-1.855 -4.76375,0 0,-4.331251 2.66,0 0,-1.795 -2.66,0 0,-3.34125 4.26875,0 0,-1.85625 -6.1875,0 0,13.178751 6.6825,0 z m 9.6525,0 -3.34125,-13.178751 -1.85625,0 -3.27875,13.178751 1.9175,0 0.86625,-3.58875 2.8475,0 0.9275,3.58875 1.9175,0 z m -3.34125,-5.443751 -1.85625,0 0.92875,-3.775 0.9275,3.775 z m 12.56126,-1.1775 c 0,-0.98875 -0.1875,-2.16375 -0.37126,-3.15375 -0.18625,-1.29875 -0.745,-2.35125 -1.5475,-2.9075 -0.49625,-0.37125 -1.05249,-0.49625 -2.10375,-0.49625 l -3.405,0 0,13.178751 3.65251,0 c 0.7425,0 1.36,-0.185001 1.85625,-0.55625 1.29875,-1.0525 1.91875,-2.96875 1.91875,-6.065001 z m -1.85625,0.125 c 0,0.99 -0.12501,1.918751 -0.18626,2.785001 -0.185,0.99 -0.80374,1.85625 -1.91749,1.85625 l -1.54751,0 0,-9.467501 1.54751,0 c 0.8025,0 1.36,0.43375 1.7325,1.3625 0.185,0.55625 0.37125,1.97875 0.37125,3.46375"
   style="fill:#000000;fill-opacity:1;fill-rule:evenodd;stroke:none"
   id="path4195" /></svg>