<?xml version="1.0" encoding="UTF-8" standalone="no"?>
<!-- Created with Inkscape (http://www.inkscape.org/) -->

<svg
   xmlns:dc="http://purl.org/dc/elements/1.1/"
   xmlns:cc="http://creativecommons.org/ns#"
   xmlns:rdf="http://www.w3.org/1999/02/22-rdf-syntax-ns#"
   xmlns:svg="http://www.w3.org/2000/svg"
   xmlns="http://www.w3.org/2000/svg"
   xmlns:sodipodi="http://sodipodi.sourceforge.net/DTD/sodipodi-0.dtd"
   xmlns:inkscape="http://www.inkscape.org/namespaces/inkscape"
   width="123.61469"
   height="123.615"
   id="svg2"
   sodipodi:version="0.32"
   inkscape:version="0.92.4 (5da689c313, 2019-01-14)"
   version="1.0"
   sodipodi:docname="MUTCD_S4-5_METRIC.svg"
   inkscape:output_extension="org.inkscape.output.svg.inkscape"
   sodipodi:modified="true">
  <defs
     id="defs4" />
  <sodipodi:namedview
     id="base"
     pagecolor="#ffffff"
     bordercolor="#666666"
     borderopacity="1.0"
     inkscape:pageopacity="0.0"
     inkscape:pageshadow="2"
     inkscape:zoom="8.9161745"
     inkscape:cx="50.134008"
     inkscape:cy="62.163403"
     inkscape:document-units="px"
     inkscape:current-layer="layer2"
     inkscape:window-width="1920"
     inkscape:window-height="1057"
     inkscape:window-x="-8"
     inkscape:window-y="-8"
     showguides="true"
     inkscape:guide-bbox="true"
     showgrid="false"
     fit-margin-top="0"
     fit-margin-left="0"
     fit-margin-right="0"
     fit-margin-bottom="0"
     inkscape:window-maximized="1" />
  <metadata
     id="metadata7">
    <rdf:RDF>
      <cc:Work
         rdf:about="">
        <dc:format>image/svg+xml</dc:format>
        <dc:type
           rdf:resource="http://purl.org/dc/dcmitype/StillImage" />
      </cc:Work>
    </rdf:RDF>
  </metadata>
  <g
     inkscape:groupmode="layer"
     id="layer2"
     inkscape:label="Dessin"
     transform="translate(327.05646,65.474022)">
    <path
       d="m -325.40084,-7.6774602 56.14126,-56.1399998 c 2.21125,-2.20875 5.8125,-2.20875 8.02,0 l 56.14125,56.1399998 c 2.20875,2.20875 2.20875,5.8125 0,8.02125 l -56.14125,56.1387492 c -2.2075,2.21125 -5.80876,2.21125 -8.02,0 L -325.40084,0.3437898 c -2.20749,-2.20875 -2.20749,-5.8125 0,-8.02125"
       style="fill:#cdff00;fill-opacity:1;fill-rule:evenodd;stroke:none"
       id="path4571"
       inkscape:connector-curvature="0" />
    <g
       id="g4573"
       transform="matrix(1.25,0,0,-1.25,-325.40083,-7.6774602)"
       style="stroke:none">
      <path
         d="m 0,0 44.913,44.912 c 1.769,1.767 4.65,1.767 6.416,0 L 96.242,0 c 1.767,-1.767 1.767,-4.65 0,-6.417 L 51.329,-51.328 c -1.766,-1.769 -4.647,-1.769 -6.416,0 L 0,-6.417 C -1.766,-4.65 -1.766,-1.767 0,0 z"
         style="fill:none;stroke:none"
         id="path4575"
         inkscape:connector-curvature="0" />
    </g>
    <g
       id="g4577"
       transform="matrix(1.25,0,0,-1.25,-207.22446,-3.5749602)"
       style="stroke:none">
      <path
         d="m 0,0 -0.006,-0.074 -0.007,-0.075 -0.014,-0.072 -0.017,-0.071 -0.016,-0.07 -0.025,-0.071 -0.024,-0.068 -0.03,-0.066 -0.031,-0.067 -0.035,-0.062 -0.041,-0.063 -0.041,-0.06 -0.047,-0.061 -0.049,-0.058 -0.082,-0.086 -44.858,-44.857 -0.085,-0.082 -0.059,-0.049 -0.058,-0.047 -0.062,-0.042 -0.062,-0.04 -0.064,-0.034 -0.065,-0.032 -0.068,-0.029 -0.068,-0.026 -0.069,-0.022 -0.07,-0.019 -0.073,-0.016 -0.072,-0.013 -0.074,-0.008 -0.074,-0.006 -0.074,-0.001 -0.073,0.001 -0.074,0.006 -0.074,0.008 -0.073,0.013 -0.071,0.016 -0.07,0.019 -0.071,0.022 -0.068,0.026 -0.066,0.029 -0.067,0.032 -0.062,0.034 -0.063,0.04 -0.06,0.042 -0.061,0.047 -0.057,0.049 -0.084,0.082 -44.861,44.857 -0.079,0.086 -0.052,0.058 -0.045,0.061 -0.043,0.06 -0.038,0.063 -0.035,0.062 -0.033,0.067 -0.028,0.066 -0.027,0.068 -0.021,0.071 -0.02,0.07 -0.016,0.071 -0.011,0.072 -0.01,0.075 -0.005,0.074 -0.002,0.073 0.002,0.074 0.005,0.076 0.01,0.072 0.011,0.072 0.016,0.071 0.02,0.072 0.021,0.071 0.027,0.066 0.028,0.068 0.033,0.065 0.035,0.063 0.038,0.063 0.043,0.06 0.045,0.06 0.052,0.059 0.079,0.085 44.861,44.858 0.084,0.081 0.057,0.051 0.061,0.046 0.06,0.041 0.063,0.04 0.062,0.035 0.067,0.032 0.066,0.03 0.068,0.025 0.071,0.022 0.07,0.019 0.071,0.016 0.073,0.012 0.074,0.008 0.074,0.006 0.073,0.001 0.074,-0.001 0.074,-0.006 0.074,-0.008 0.072,-0.012 0.073,-0.016 0.07,-0.019 0.069,-0.022 0.068,-0.025 0.068,-0.03 0.065,-0.032 0.064,-0.035 0.062,-0.04 0.062,-0.041 0.058,-0.046 0.059,-0.051 0.085,-0.081 L -0.465,1.17 -0.383,1.085 -0.334,1.026 -0.287,0.966 -0.246,0.906 -0.205,0.843 -0.17,0.78 -0.139,0.715 -0.109,0.647 -0.085,0.581 -0.06,0.51 -0.044,0.438 -0.027,0.367 -0.013,0.295 -0.006,0.223 0,0.147 0.003,0.073 0,0 z M 1.89,0.237 1.876,0.401 1.857,0.564 1.829,0.725 1.794,0.887 1.753,1.046 1.701,1.201 1.644,1.357 1.578,1.509 1.504,1.658 1.422,1.803 1.334,1.946 1.237,2.086 1.132,2.222 1.02,2.352 0.889,2.489 l -44.893,44.894 -0.136,0.131 -0.131,0.112 -0.136,0.103 -0.14,0.098 -0.141,0.089 -0.147,0.082 -0.149,0.073 -0.153,0.066 -0.155,0.057 -0.155,0.051 -0.159,0.042 -0.161,0.036 -0.162,0.027 -0.163,0.019 -0.164,0.012 -0.164,0.005 -0.164,-0.005 -0.162,-0.012 -0.164,-0.019 -0.162,-0.027 -0.161,-0.036 -0.158,-0.042 -0.157,-0.051 -0.155,-0.057 -0.151,-0.066 -0.151,-0.073 -0.144,-0.082 -0.144,-0.089 -0.137,-0.098 -0.137,-0.103 -0.132,-0.112 -0.137,-0.131 -44.892,-44.894 -0.13,-0.137 -0.114,-0.13 -0.103,-0.136 -0.097,-0.14 -0.09,-0.143 -0.081,-0.145 -0.073,-0.149 -0.065,-0.152 -0.06,-0.156 -0.049,-0.155 -0.044,-0.159 -0.035,-0.162 -0.027,-0.161 -0.02,-0.163 -0.01,-0.164 -0.004,-0.164 0.004,-0.164 0.01,-0.162 0.02,-0.164 0.027,-0.162 0.035,-0.161 0.044,-0.159 0.049,-0.156 0.06,-0.156 0.065,-0.151 0.073,-0.15 0.081,-0.144 0.09,-0.144 0.097,-0.14 0.103,-0.133 0.114,-0.131 0.13,-0.139 44.892,-44.891 0.137,-0.131 0.132,-0.114 0.137,-0.104 0.137,-0.097 0.144,-0.089 0.144,-0.081 0.151,-0.073 0.151,-0.066 0.155,-0.059 0.157,-0.051 0.158,-0.042 0.161,-0.034 0.162,-0.027 0.164,-0.021 0.162,-0.01 0.164,-0.004 0.164,0.004 0.164,0.01 0.163,0.021 0.162,0.027 0.161,0.034 0.159,0.042 0.155,0.051 0.155,0.059 0.153,0.066 0.149,0.073 0.147,0.081 0.141,0.089 0.14,0.097 0.136,0.104 0.131,0.114 0.136,0.131 44.893,44.891 0.131,0.139 0.112,0.131 0.105,0.133 0.097,0.14 0.088,0.144 0.082,0.144 0.074,0.15 0.066,0.151 0.057,0.156 0.052,0.156 0.041,0.159 0.035,0.161 0.028,0.162 0.019,0.164 0.014,0.162 0.003,0.164 -0.003,0.164 z"
         style="fill:#000000;fill-opacity:1;fill-rule:nonzero;stroke:none"
         id="path4579"
         inkscape:connector-curvature="0" />
    </g>
    <g
       id="g4597"
       transform="matrix(1.25,0,0,-1.25,-257.86571,-28.68369)"
       style="stroke:none">
      <path
         d="m 0,0 -11.738,0.013 0.021,6.354 -10.417,-2.169 c -0.338,-0.071 -0.475,-0.11 -0.585,-0.11 -0.697,0.001 -1.336,0.668 -1.335,1.363 0.002,0.277 -0.004,0.467 0.308,0.776 l 17.866,17.67 17.815,-17.7 c 0.269,-0.267 0.307,-0.5 0.307,-0.779 -0.003,-0.722 -0.643,-1.36 -1.367,-1.358 -0.113,0 -0.132,0.026 -0.392,0.083 L 0.021,6.512"
         style="fill:#000000;fill-opacity:1;fill-rule:evenodd;stroke:none"
         id="path4599"
         inkscape:connector-curvature="0" />
    </g>
    <path
       inkscape:connector-curvature="0"
       d="m -282.51646,-24.669745 c 0,-1.571248 1.29426,-2.865509 2.88278,-2.865509 l 28.76658,0 c 1.58852,0 2.8835,1.294261 2.8835,2.865509 l 0,58.927226 c 0,1.588508 -1.29498,2.883494 -2.8835,2.883494 l -28.76658,0 c -1.58852,0 -2.88278,-1.294986 -2.88278,-2.883494 z"
       style="fill:#ffffff;stroke:none"
       id="path4197"
       sodipodi:nodetypes="sssssssss" />
    <path
       inkscape:connector-curvature="0"
       d="m -248.67138,34.339498 c 0,0.103595 -0.0345,0.223743 -0.0519,0.326624 -0.0337,0.120141 -0.0683,0.223022 -0.10286,0.326622 -0.0518,0.102874 -0.10289,0.188486 -0.15396,0.292088 -0.0691,0.10288 -0.12086,0.188492 -0.18994,0.274825 -0.13741,0.13741 -0.25755,0.257558 -0.41223,0.3777 -0.0856,0.06835 -0.17123,0.120149 -0.27482,0.171945 -0.1036,0.0511 -0.18849,0.103601 -0.29209,0.137417 -0.12015,0.03377 -0.22302,0.06834 -0.32663,0.102873 -0.12015,0.01726 -0.24029,0.03453 -0.34317,0.03453 l -28.72486,0 c -0.12015,0 -0.24102,0 -0.36115,-0.01726 -0.12016,-0.01726 -0.22375,-0.05179 -0.32591,-0.08633 -0.12086,-0.03377 -0.20648,-0.06762 -0.30935,-0.120141 -0.10289,-0.0511 -0.20648,-0.10288 -0.2921,-0.154677 -0.1036,-0.06835 -0.17194,-0.137417 -0.25827,-0.205761 -0.13742,-0.13741 -0.25684,-0.274106 -0.36044,-0.428783 -0.0683,-0.08633 -0.12014,-0.171946 -0.17195,-0.275547 -0.0511,-0.102874 -0.0849,-0.206474 -0.12014,-0.309355 -0.0345,-0.120141 -0.0512,-0.223022 -0.0849,-0.34317 -0.018,-0.120862 -0.018,-0.223742 -0.018,-0.343891 l 0,-58.712829 c 0.018,-0.120148 0.018,-0.240289 0.0518,-0.343891 0.0166,-0.120149 0.0512,-0.223743 0.0864,-0.326624 0.0339,-0.10288 0.0849,-0.20576 0.13669,-0.309354 0.0519,-0.102881 0.12014,-0.188493 0.17195,-0.274826 0.0683,-0.08633 0.13741,-0.171946 0.22302,-0.257559 0.13741,-0.120147 0.27555,-0.240289 0.42951,-0.34389 0.1036,-0.0511 0.18921,-0.10288 0.29209,-0.13669 0.12015,-0.05178 0.22375,-0.08633 0.3259,-0.121588 0.12086,-0.01583 0.22375,-0.0331 0.34388,-0.05036 l 0.24103,-0.01793 28.72486,0 c 0.10286,0.01793 0.22302,0.03527 0.34316,0.05253 0.1036,0.01583 0.20647,0.0511 0.32663,0.08562 0.10359,0.05179 0.18849,0.08561 0.29209,0.13741 0.10359,0.0511 0.18921,0.120147 0.27483,0.189213 0.10359,0.06835 0.17193,0.136688 0.25826,0.205754 0.1367,0.137417 0.2403,0.274825 0.3439,0.429503 0.0511,0.102881 0.10215,0.206481 0.15396,0.309355 0.0345,0.10288 0.0691,0.205761 0.10287,0.309363 0.0173,0.120142 0.0518,0.223743 0.0518,0.343891 l 0.0166,0.24029 0,58.712829 -0.0166,0.120148 z"
       style="fill:#000000;fill-opacity:1;fill-rule:evenodd;stroke:none"
       id="path4199"
       sodipodi:nodetypes="cccccccccsssccccccccsccccccccccccccccccccccccc" />
    <path
       inkscape:connector-curvature="0"
       d="m -279.56462,-15.225004 28.62845,0 c 0.82808,0 1.50218,0.673388 1.50218,1.502174 l 0,47.963042 c 0,0.828788 -0.6741,1.501462 -1.50218,1.501462 l -28.62845,0 c -0.82806,0 -1.50219,-0.672674 -1.50219,-1.501462 l 0,-47.963042 c 0,-0.828786 0.67413,-1.502174 1.50219,-1.502174 z"
       style="fill:#ffffff;fill-opacity:1;fill-rule:evenodd;stroke:none"
       id="path4201"
       sodipodi:nodetypes="sssssssss" />
    <path
       inkscape:connector-curvature="0"
       d="m -279.56462,-26.102856 28.62845,0 c 0.82808,0 1.50218,0.674108 1.50218,1.502175 l 0,7.010173 c 0,0.829506 -0.6741,1.502181 -1.50218,1.502181 l -28.62845,0 c -0.82806,0 -1.50219,-0.672675 -1.50219,-1.502181 l 0,-7.010173 c 0,-0.828067 0.67413,-1.502175 1.50219,-1.502175 z"
       style="fill:#cdff00;fill-opacity:1;fill-rule:evenodd;stroke:none"
       id="path4203" />
    <path
       inkscape:connector-curvature="0"
       d="m -275.92068,-19.886941 c 0,-2.261902 -2.69428,-1.553265 -2.77989,-2.624495 -0.0352,-0.535267 0.46619,-0.690664 0.88059,-0.673396 0.6554,0.01726 0.86331,0.500729 0.86331,0.500729 l 0.79425,-0.241731 c -0.27625,-0.707203 -0.8295,-1.156849 -1.62304,-1.156849 -1.03598,0 -1.79571,0.414389 -1.79571,1.553979 0,0.9331 0.75973,1.277712 1.10506,1.433109 0.74245,0.293528 1.64031,0.414397 1.64031,1.191386 0,0.483463 -0.37986,0.846055 -0.89786,0.846055 -0.53526,0 -0.98419,-0.310075 -1.22591,-0.846055 l -0.86333,0.310797 c 0.37915,0.863322 1.10505,1.467644 2.08924,1.467644 0.48346,0 0.93238,-0.171945 1.26045,-0.448924 0.3626,-0.327343 0.55253,-0.793537 0.55253,-1.312249 z m 4.74755,0.483462 -0.86261,-0.327343 c -0.22518,0.465473 -0.51871,0.672668 -0.89786,0.672668 -0.39784,0 -0.65612,-0.155398 -0.86332,-0.448925 -0.22446,-0.362601 -0.36258,-0.984192 -0.36258,-1.623045 0,-0.483461 0.0863,-0.98419 0.22374,-1.328795 0.20719,-0.501451 0.50144,-0.708645 0.96691,-0.708645 0.44965,0 0.62232,0.120861 0.94967,0.604324 l 0.84605,-0.362594 c -0.37915,-0.794256 -0.93167,-1.156849 -1.79572,-1.156849 -0.63886,0 -1.13958,0.207915 -1.46692,0.639572 -0.41439,0.500009 -0.65612,1.41513 -0.65612,2.312987 0,0.725186 0.17266,1.467646 0.43094,1.969089 0.36259,0.707205 0.89857,1.035267 1.74391,1.035267 0.82951,0 1.39929,-0.430943 1.74391,-1.277711 z m 5.16338,1.174832 0,-5.76699 -0.89786,0 0,2.330255 -2.10721,0 0,-2.330255 -0.91442,0 0,5.76699 0.91442,0 0,-2.504355 2.10721,0 0,2.504355 0.89786,0 z m 5.30079,-2.866948 c 0,-0.741733 -0.15612,-1.467645 -0.39785,-1.96837 -0.3626,-0.707923 -0.86259,-1.018718 -1.58851,-1.018718 -0.65613,0 -1.12159,0.189926 -1.46764,0.639572 -0.37914,0.551807 -0.62088,1.397868 -0.62088,2.347516 0,0.673396 0.1554,1.450385 0.39713,1.93456 0.34462,0.707205 0.84605,1.035267 1.65686,1.035267 0.60433,0 1.07123,-0.207194 1.38131,-0.655405 0.4151,-0.500724 0.63958,-1.416564 0.63958,-2.314422 z m -0.91512,0 c 0,0.431665 -0.10359,1.002173 -0.22446,1.312249 -0.19065,0.501449 -0.4662,0.725192 -0.88131,0.725192 -0.36188,0 -0.60361,-0.155398 -0.79354,-0.448925 -0.22517,-0.362601 -0.34604,-0.984192 -0.34604,-1.588516 0,-0.500009 0.0871,-1.018719 0.22517,-1.363324 0.20649,-0.501451 0.48347,-0.725913 0.9324,-0.708645 0.34461,0.01793 0.56979,0.13885 0.74246,0.448925 0.22446,0.380582 0.34532,0.966923 0.34532,1.623044 z m 6.11232,0 c 0,-0.741733 -0.13885,-1.467645 -0.38058,-1.96837 -0.3626,-0.707923 -0.86332,-1.018718 -1.58853,-1.018718 -0.67266,0 -1.13956,0.189926 -1.48418,0.639572 -0.37986,0.551807 -0.62159,1.397868 -0.62159,2.347516 0,0.673396 0.15467,1.450385 0.3964,1.93456 0.34606,0.707205 0.86406,1.035267 1.6583,1.035267 0.60433,0 1.0698,-0.207194 1.39787,-0.655405 0.39711,-0.500724 0.62231,-1.416564 0.62231,-2.314422 z m -0.89786,0 c 0,0.431665 -0.1036,1.002173 -0.22447,1.312249 -0.20791,0.501449 -0.46619,0.725192 -0.89785,0.725192 -0.36331,0 -0.60504,-0.155398 -0.77699,-0.448925 -0.22518,-0.362601 -0.34532,-0.984192 -0.34532,-1.588516 0,-0.500009 0.0863,-1.018719 0.22446,-1.363324 0.18993,-0.501451 0.48346,-0.725913 0.93168,-0.708645 0.32876,0.01793 0.55251,0.13885 0.74245,0.448925 0.22517,0.380582 0.34604,0.966923 0.34604,1.623044 z m 5.73174,2.866948 0,-0.864042 -2.67558,0 0,-4.902948 -0.89786,0 0,5.76699 3.57344,0"
       style="fill:#000000;fill-opacity:1;fill-rule:evenodd;stroke:none"
       id="path4205" />
    <path
       inkscape:connector-curvature="0"
       d="m -274.02138,-8.3299356 c 0,-0.638139 -0.32878,-1.17412 -0.82878,-1.4331194 -0.3108,-0.1726608 -0.82951,-0.328059 -1.58851,-0.483459 -0.70865,-0.172667 -0.91585,-0.310077 -0.91585,-0.638143 0,-0.362601 0.34605,-0.569793 0.93311,-0.569793 0.55253,0 1.00145,0.172663 1.38132,0.551805 l 0.75972,-0.690654 c -0.58777,-0.604325 -1.29497,-0.879871 -2.14104,-0.879871 -1.17483,0 -1.98636,0.638139 -1.98636,1.588513 0,0.361875 0.12087,0.707209 0.38058,0.9841912 0.24173,0.2762622 0.53526,0.4136796 1.1216,0.55181 l 0.27627,0.08633 0.27698,0.05178 0.25828,0.08705 c 0.25971,0.06907 0.48344,0.137409 0.6741,0.223742 0.259,0.120869 0.37987,0.294248 0.37987,0.517997 0,0.431658 -0.53525,0.760442 -1.26046,0.760442 -0.63957,0 -1.10576,-0.225183 -1.53743,-0.725912 l -0.82878,0.638859 c 0.65612,0.7431728 1.39859,1.1057729 2.38348,1.1057729 0.53526,0 1.05253,-0.138857 1.44965,-0.3805811 0.55326,-0.3280638 0.81225,-0.7590078 0.81225,-1.3467838 z m 5.74901,-2.3309784 c 0,-0.638861 -0.34461,-1.208653 -0.87987,-1.50218 -0.32806,-0.189208 -0.58777,-0.241732 -1.03599,-0.241732 l -2.67629,0 0,5.7497373 1.05253,0 0,-2.2619029 1.62376,0 c 0.44822,0 0.70793,-0.05104 1.03599,-0.224469 0.53526,-0.3107896 0.87987,-0.9151244 0.87987,-1.5194534 z m -1.01872,0 c 0,0.432382 -0.34462,0.7079302 -0.84534,0.7079302 l -1.67556,0 0,-1.4331212 1.67556,0 c 0.50072,0 0.84534,0.293526 0.84534,0.725191 z m 6.25116,4.0058253 0,-1.0359879 -3.22882,0 0,-1.571246 1.69139,0 0,-1.0525434 -1.69139,0 0,-1.071239 3.1245,0 0,-1.018721 -4.17774,0 0,5.7497373 4.28206,0 z m 5.4562,0 0,-1.0359879 -3.24609,0 0,-1.571246 1.70865,0 0,-1.0525434 -1.70865,0 0,-1.071239 3.14176,0 0,-1.018721 -4.19573,0 0,5.7497373 4.30006,0 z m 5.74971,-2.8827829 c 0,-1.1395894 -0.48345,-2.0036324 -1.38131,-2.5043534 -0.41439,-0.241732 -0.88131,-0.362601 -1.36405,-0.362601 l -1.86477,0 0,5.7497373 1.86477,0 c 0.4662,0 0.94966,-0.120869 1.34679,-0.3453319 0.91512,-0.500009 1.39857,-1.39786 1.39857,-2.537451 z m -1.03598,0 c 0,0.776992 -0.27627,1.311537 -0.88059,1.623052 -0.24173,0.13741 -0.51871,0.223743 -0.82879,0.223743 l -0.81152,0 0,-3.6950284 0.81152,0 c 0.31008,0 0.6036,0.08633 0.86332,0.225179 0.56979,0.327346 0.84606,0.84606 0.84606,1.6230544"
       style="fill:#000000;fill-opacity:1;fill-rule:evenodd;stroke:none"
       id="path4207" />
    <path
       inkscape:connector-curvature="0"
       d="m -271.39688,2.0644553 0,-0.8978582 -3.26407,0 0,-4.8691346 -1.03526,0 0,5.7669928 4.29933,0 z m 0.9662,0 1.03599,0 0,-5.7669928 -1.03599,0 0,5.7669928 z m 7.8742,0 0,-5.7669928 -1.00216,0 -1.69139,3.41875692 -1.65758,-3.41875692 -1.01872,0 0,5.7669928 1.01872,0 0,-3.5223529 1.65758,3.5223529 1.69139,-3.5223529 0,3.5223529 1.00216,0 z m 1.50219,0 1.01872,0 0,-5.7669928 -1.01872,0 0,5.7669928 z m 6.28498,-4.748273 0,-1.0187198 -4.3166,0 0,1.0187198 1.65756,0 0,4.748273 1.01873,0 0,-4.748273 1.64031,0"
       style="fill:#000000;fill-opacity:1;fill-rule:evenodd;stroke:none"
       id="path4209" />
    <path
       inkscape:connector-curvature="0"
       d="m -271.68825,33.503012 -0.75181,-1.815131 -0.51223,0.696414 0,1.118717 -0.93599,0 0,-4.968415 0.93599,-0.349647 0,2.824507 1.00791,-1.300742 1.1547,0 -1.00792,1.208653 1.04534,2.585644 -0.93599,0"
       style="fill:#000000;fill-opacity:1;fill-rule:nonzero;stroke:none"
       id="path4215" />
    <path
       inkscape:connector-curvature="0"
       d="m -265.69176,33.503012 0,-2.273413 c 0,-0.422307 -0.25613,-0.696406 -0.65972,-0.696406 -0.36692,0 -0.66044,0.310796 -0.66044,0.659715 l 0,2.310104 -0.89857,0 0,-2.273413 c 0,-0.402878 -0.31081,-0.696406 -0.69642,-0.696406 -0.36619,0 -0.62447,0.293528 -0.62447,0.678424 l 0,2.291395 -0.93455,0 0,-3.813726 0.93455,0 0,0.312237 c 0.22087,-0.220148 0.55036,-0.403606 0.93526,-0.403606 0.38563,0 0.71512,0.146769 0.99066,0.457564 0.43958,-0.346766 0.73383,-0.457564 1.15542,-0.457564 0.8072,0 1.39354,0.550373 1.39354,1.282762 l 0,2.622333 -0.93526,0"
       style="fill:#000000;fill-opacity:1;fill-rule:nonzero;stroke:none"
       id="path4217" />
    <path
       inkscape:connector-curvature="0"
       d="m -260.33198,28.143225 -0.93526,0 -3.1353,5.359787 0.93456,0 3.136,-5.359787"
       style="fill:#000000;fill-opacity:1;fill-rule:evenodd;stroke:none"
       id="path4219" />
    <path
       inkscape:connector-curvature="0"
       d="m -257.67654,33.503012 0,-2.273413 c 0,-0.38561 -0.31152,-0.696406 -0.69641,-0.696406 -0.33023,0 -0.69713,0.164028 -0.69713,0.732382 l 0,2.237437 -0.93455,0 0,-4.968415 0.93455,-0.349647 0,1.779883 c 0.23884,-0.312957 0.60432,-0.366916 0.87985,-0.366916 0.8252,0 1.39428,0.550373 1.39428,1.282762 l 0,2.622333 -0.88059,0"
       style="fill:#000000;fill-opacity:1;fill-rule:nonzero;stroke:none"
       id="path4221" />
    <path
       inkscape:connector-curvature="0"
       d="m -265.35218,4.0522531 c 6.39648,0 11.61383,5.2166191 11.61383,11.6130979 0,6.395775 -5.21735,11.613831 -11.61383,11.613831 -6.39578,0 -11.6124,-5.218056 -11.6124,-11.613831 0,-6.3964788 5.21662,-11.6130979 11.6124,-11.6130979"
       style="fill:#000000;fill-opacity:1;fill-rule:evenodd;stroke:none"
       id="path4223" />
    <path
       inkscape:connector-curvature="0"
       d="m -265.35218,5.1695379 c 5.78209,0 10.49654,4.7158789 10.49654,10.4958131 0,5.782093 -4.71445,10.495826 -10.49654,10.495826 -5.78066,0 -10.49584,-4.713733 -10.49584,-10.495826 0,-5.7799342 4.71518,-10.4958131 10.49584,-10.4958131"
       style="fill:#ffffff;fill-opacity:1;fill-rule:evenodd;stroke:none"
       id="path4225" />
    <path
       inkscape:connector-curvature="0"
       d="m -269.26303,20.297072 c -1.44103,0 -2.59932,-0.938143 -2.9756,-2.37917 l 1.37845,-0.408641 c 0.21871,0.877708 0.81512,1.346784 1.66046,1.346784 0.9403,0 1.59786,-0.656127 1.59786,-1.56477 0,-0.469795 -0.18849,-0.908649 -0.50144,-1.128796 -0.21943,-0.155399 -0.25037,-0.155399 -0.90793,-0.186332 -0.0323,0 -0.0942,0 -0.15756,0 l 0,-1.441027 0,0.03093 0.34533,0 c 0.56404,0 0.87627,-0.314391 0.87627,-0.877709 0,-0.689215 -0.56404,-1.189224 -1.28419,-1.189224 -0.59498,0 -1.0331,0.281295 -1.34678,0.876988 l -1.31585,-0.501442 c 0.4698,-1.127357 1.47268,-1.816572 2.63098,-1.816572 1.50433,0 2.72521,1.220879 2.72521,2.724493 0,0.532385 -0.12375,0.90865 -0.50072,1.472682 0.65755,0.594972 0.84606,1.064047 0.84606,1.941756 0,1.81585 -1.25327,3.100046 -3.07055,3.100046"
       style="fill:#000000;fill-opacity:1;fill-rule:nonzero;stroke:none"
       id="path4227" />
    <path
       inkscape:connector-curvature="0"
       d="m -259.48879,15.69341 c 0,0.689216 -0.15541,1.566924 -0.3439,2.035999 -0.31367,0.783465 -0.72087,1.126636 -1.37844,1.126636 -0.56332,0 -0.94029,-0.217993 -1.2216,-0.687782 -0.34532,-0.564752 -0.53381,-1.534556 -0.53381,-2.474853 0,-0.75253 0.12662,-1.56549 0.34604,-2.099308 0.31151,-0.782025 0.75109,-1.126635 1.44103,-1.094982 0.53166,0.03024 0.87627,0.217987 1.15901,0.689216 0.34389,0.594252 0.53167,1.502903 0.53167,2.505074 z m 1.41009,0 c 0,-1.127356 -0.21943,-2.254706 -0.59497,-3.038892 -0.56476,-1.096421 -1.34679,-1.596424 -2.47486,-1.596424 -1.03383,0 -1.75471,0.312229 -2.28709,1.001452 -0.59497,0.845333 -0.97122,2.162617 -0.97122,3.633864 0,1.065481 0.25035,2.256146 0.62661,3.007957 0.53311,1.094975 1.31585,1.595705 2.5691,1.595705 0.93959,0 1.66046,-0.311516 2.16191,-1.000732 0.6259,-0.783466 0.97052,-2.193559 0.97052,-3.60293"
       style="fill:#000000;fill-opacity:1;fill-rule:nonzero;stroke:none"
       id="path4229" />
  </g>
  <g
     inkscape:label="Calque 1"
     inkscape:groupmode="layer"
     id="layer1"
     transform="translate(328.34219,56.047183)" />
</svg>
