<?xml version="1.0" encoding="UTF-8" standalone="no"?>
<svg
   xmlns:dc="http://purl.org/dc/elements/1.1/"
   xmlns:cc="http://creativecommons.org/ns#"
   xmlns:rdf="http://www.w3.org/1999/02/22-rdf-syntax-ns#"
   xmlns:svg="http://www.w3.org/2000/svg"
   xmlns="http://www.w3.org/2000/svg"
   xmlns:sodipodi="http://sodipodi.sourceforge.net/DTD/sodipodi-0.dtd"
   xmlns:inkscape="http://www.inkscape.org/namespaces/inkscape"
   width="123.61063"
   height="123.61125"
   viewBox="0 0 98.888501 98.889001"
   version="1.1"
   id="svg2"
   inkscape:version="0.48.2 r9819"
   sodipodi:docname="MUTCD S4-5a.svg">
  <metadata
     id="metadata18">
    <rdf:RDF>
      <cc:Work
         rdf:about="">
        <dc:format>image/svg+xml</dc:format>
        <dc:type
           rdf:resource="http://purl.org/dc/dcmitype/StillImage" />
        <dc:title></dc:title>
      </cc:Work>
    </rdf:RDF>
  </metadata>
  <defs
     id="defs16" />
  <sodipodi:namedview
     pagecolor="#ffffff"
     bordercolor="#666666"
     borderopacity="1"
     objecttolerance="10"
     gridtolerance="10"
     guidetolerance="10"
     inkscape:pageopacity="0"
     inkscape:pageshadow="2"
     inkscape:window-width="1280"
     inkscape:window-height="1004"
     id="namedview14"
     showgrid="false"
     inkscape:zoom="4.857352"
     inkscape:cx="-7.0555835"
     inkscape:cy="59.741036"
     inkscape:window-x="-8"
     inkscape:window-y="-8"
     inkscape:window-maximized="1"
     inkscape:current-layer="svg2"
     fit-margin-top="0"
     fit-margin-left="0"
     fit-margin-right="0"
     fit-margin-bottom="0" />
  <path
     inkscape:connector-curvature="0"
     d="m 51.94125,1.0297498 45.916,45.9180002 c 1.375,1.373 1.375,3.621 0,4.996 l -45.914,45.914004 c -1.375,1.375 -3.623,1.375 -4.998,0 L 1.03125,51.94575 c -1.375,-1.375 -1.375,-3.625 0,-4.998 l 45.916,-45.9180002 c 1.373,-1.37300006 3.621,-1.37300006 4.994,0"
     style="fill:#ffd033;fill-opacity:1;fill-rule:nonzero;stroke:none"
     id="path3487" />
  <path
     inkscape:connector-curvature="0"
     d="m 51.42525,1.8127498 45.649,45.6520002 c 1.09,1.088 1.09,2.871 0,3.963 l -45.649,45.647004 c -1.089,1.09 -2.873,1.09 -3.963,0 L 1.81425,51.42775 c -1.09,-1.092 -1.09,-2.873 0,-3.963 l 45.648,-45.6520002 c 1.09,-1.09000006 2.874,-1.09000006 3.963,0"
     style="fill:#000000;fill-opacity:1;fill-rule:evenodd;stroke:none"
     id="path3495" />
  <path
     inkscape:connector-curvature="0"
     d="m 50.43515,2.8187498 45.633,45.6370002 c 0.545,0.543 0.545,1.435 0,1.98 l -45.633,45.633004 c -0.545,0.545 -1.437,0.545 -1.98,0 L 2.82015,50.43575 c -0.545,-0.545 -0.545,-1.436 0,-1.98 l 45.635,-45.6370002 c 0.543,-0.543 1.435,-0.543 1.98,0"
     style="fill:#ffd033;fill-opacity:1;fill-rule:evenodd;stroke:none"
     id="path3499" />
  <path
     inkscape:connector-curvature="0"
     d="m 88.39025,55.06275 0,-1.486 -3.859,0 0,-3.465 2.178,0 0,-1.436 -2.178,0 0,-2.672 3.465,0 0,-1.486 -4.95,0 0,10.545 5.344,0 z m -7.621,0 0,-10.545 -1.535,0 0,6.338 -2.871,-6.338 -1.535,0 0,10.545 1.535,0 0,-7.029 3.267,7.029 1.139,0 z m -9.506,-5.248 c 0,1.187 -0.049,1.781 -0.345,2.623 -0.247,0.893 -0.643,1.338 -1.288,1.338 -0.642,0 -1.087,-0.445 -1.335,-1.338 -0.198,-0.842 -0.348,-1.484 -0.348,-2.623 0,-1.139 0.099,-1.881 0.348,-2.672 0.248,-0.893 0.693,-1.287 1.335,-1.287 0.645,0 1.041,0.394 1.288,1.336 0.248,0.742 0.345,1.435 0.345,2.623 m 1.436,0 c 0,-1.584 -0.149,-2.623 -0.594,-3.662 -0.494,-1.287 -1.236,-1.783 -2.475,-1.783 -1.236,0 -1.98,0.496 -2.523,1.783 -0.445,0.99 -0.596,2.078 -0.596,3.662 0,1.584 0.151,2.574 0.596,3.613 0.543,1.239 1.287,1.832 2.523,1.832 1.188,0 1.981,-0.593 2.475,-1.832 0.445,-0.99 0.594,-2.029 0.594,-3.613 m -7.772,5.248 0,-1.436 -4.256,0 4.256,-8.168 0,-0.941 -5.394,0 0,1.486 3.515,0 -3.961,7.424 0,1.635 5.84,0 z m -10.543,0 0,-1.436 -3.861,0 0,-9.109 -1.434,0 0,10.545 5.295,0 z m -8.859,-5.248 c 0,1.187 -0.098,1.781 -0.346,2.623 -0.248,0.893 -0.644,1.338 -1.287,1.338 -0.693,0 -1.09,-0.445 -1.336,-1.338 -0.248,-0.842 -0.347,-1.484 -0.347,-2.623 0,-1.139 0.099,-1.881 0.347,-2.672 0.246,-0.893 0.643,-1.287 1.336,-1.287 0.643,0 1.039,0.394 1.287,1.336 0.248,0.742 0.346,1.435 0.346,2.623 m 1.436,0 c 0,-1.584 -0.149,-2.623 -0.594,-3.662 -0.494,-1.287 -1.237,-1.783 -2.475,-1.783 -1.236,0 -1.98,0.496 -2.525,1.783 -0.446,0.99 -0.594,2.078 -0.594,3.662 0,1.584 0.148,2.574 0.594,3.613 0.496,1.239 1.238,1.832 2.525,1.832 1.188,0 1.981,-0.593 2.475,-1.832 0.445,-0.99 0.594,-2.029 0.594,-3.613 m -9.553,0 c 0,1.187 -0.1,1.781 -0.348,2.623 -0.246,0.893 -0.642,1.338 -1.287,1.338 -0.691,0 -1.088,-0.445 -1.336,-1.338 -0.246,-0.842 -0.346,-1.484 -0.346,-2.623 0,-1.139 0.1,-1.881 0.346,-2.672 0.248,-0.893 0.645,-1.287 1.336,-1.287 0.645,0 1.041,0.394 1.287,1.336 0.248,0.742 0.348,1.435 0.348,2.623 m 1.435,0 c 0,-1.584 -0.148,-2.623 -0.593,-3.662 -0.496,-1.287 -1.239,-1.783 -2.477,-1.783 -1.236,0 -1.978,0.496 -2.523,1.783 -0.446,0.99 -0.594,2.078 -0.594,3.662 0,1.584 0.148,2.574 0.594,3.613 0.494,1.239 1.238,1.832 2.523,1.832 1.189,0 1.981,-0.593 2.477,-1.832 0.445,-0.99 0.593,-2.029 0.593,-3.613 m -8.265,5.248 0,-10.545 -1.535,0 0,4.307 -2.872,0 0,-4.307 -1.535,0 0,10.545 1.535,0 0,-4.803 2.872,0 0,4.803 1.535,0 z m -8.02,-7.723 c -0.099,-0.941 -0.248,-1.386 -0.644,-1.931 -0.494,-0.692 -1.237,-1.039 -2.078,-1.039 -2.081,0 -3.168,1.783 -3.168,5.197 0,3.861 0.99,5.693 3.267,5.693 1.485,0 2.572,-1.287 2.623,-3.019 l -1.535,0 c 0,0.793 -0.197,1.535 -1.088,1.535 -1.289,0 -1.832,-1.238 -1.832,-4.209 0,-2.772 0.445,-3.711 1.682,-3.711 0.693,0 1.09,0.445 1.238,1.484 l 1.535,0 z m -7.474,4.852 c 0,-1.535 -0.891,-2.625 -2.922,-3.813 -0.791,-0.445 -1.039,-0.742 -1.039,-1.287 0,-0.693 0.593,-1.236 1.287,-1.236 0.644,0 1.187,0.494 1.238,1.236 l 1.436,0 c -0.051,-1.584 -1.19,-2.722 -2.674,-2.722 -1.533,0 -2.723,1.187 -2.723,2.722 0,0.942 0.445,1.733 1.336,2.326 2.129,1.438 1.535,0.991 1.732,1.239 0.645,0.496 0.893,0.939 0.893,1.535 0,0.842 -0.693,1.584 -1.486,1.584 -1.039,0 -1.485,-0.942 -1.485,-1.832 l -1.484,0 c 0,1.732 1.088,3.316 2.969,3.316 1.634,0 2.922,-1.386 2.922,-3.068"
     style="fill:#000000;fill-opacity:1;fill-rule:evenodd;stroke:none"
     id="path3503" />
  <path
     inkscape:connector-curvature="0"
     d="m 70.12525,37.58786 0,-10.595 -1.485,0 0,4.306 -2.92,0 0,-4.306 -1.535,0 0,10.595 1.535,0 0,-4.802 2.92,0 0,4.802 1.485,0 z m -8.86,-7.625 c 0,0.991 -0.445,1.536 -1.336,1.536 l -1.584,0 0,-3.02 1.584,0 c 0.791,0 1.336,0.594 1.336,1.484 m 1.485,0 c 0,-1.781 -1.088,-2.97 -2.772,-2.97 l -3.168,0 0,10.595 1.535,0 0,-4.654 1.633,0 c 1.781,0 2.772,-1.039 2.772,-2.971 m -8.217,7.625 0,-10.595 -1.535,0 -1.93,5.941 -1.928,-5.941 -1.535,0 0,10.595 1.535,0 0,-5.941 1.928,5.941 1.93,-5.941 0,5.941 1.535,0 z m -13.166,-5.296 c 0,1.187 -0.049,1.83 -0.297,2.671 -0.297,0.893 -0.691,1.289 -1.336,1.289 -0.643,0 -1.039,-0.396 -1.336,-1.289 -0.199,-0.841 -0.297,-1.484 -0.297,-2.671 0,-1.19 0.049,-1.883 0.297,-2.674 0.297,-0.891 0.693,-1.336 1.336,-1.336 0.645,0 1.039,0.445 1.336,1.336 0.199,0.791 0.297,1.484 0.297,2.674 m 1.486,0 c 0,-1.635 -0.148,-2.625 -0.594,-3.665 -0.545,-1.287 -1.289,-1.832 -2.525,-1.832 -1.188,0 -1.93,0.545 -2.523,1.784 -0.446,1.039 -0.596,2.078 -0.596,3.713 0,1.632 0.15,2.623 0.596,3.664 0.543,1.236 1.285,1.83 2.523,1.83 1.187,0 1.98,-0.594 2.525,-1.83 0.446,-0.993 0.594,-2.032 0.594,-3.664 m -7.82,5.296 0,-1.484 -4.258,0 c 0.098,-0.396 0.098,-0.547 0.248,-0.844 0.297,-0.89 0.988,-1.832 1.633,-2.326 l 0.445,-0.297 0.346,-0.248 0.396,-0.248 c 0.1,-0.148 0.2,-0.197 0.297,-0.297 0.594,-0.545 0.893,-1.187 0.893,-2.078 0,-1.635 -1.289,-2.971 -2.922,-2.971 -1.682,0 -2.92,1.336 -2.971,2.971 l 1.487,0 c 0,-0.793 0.693,-1.484 1.484,-1.484 0.842,0 1.484,0.691 1.484,1.484 0,0.545 -0.197,0.791 -0.89,1.287 -0.842,0.594 -1.088,0.791 -1.336,0.989 -0.694,0.693 -1.239,1.535 -1.684,2.625 -0.346,0.939 -0.445,1.437 -0.545,2.921 l 5.893,0 z"
     style="fill:#000000;fill-opacity:1;fill-rule:evenodd;stroke:none"
     id="path3507" />
  <path
     inkscape:connector-curvature="0"
     d="m 66.21425,67.33775 c 0,0.789 -0.097,1.532 -0.148,2.225 -0.148,0.793 -0.643,1.486 -1.533,1.486 l -1.238,0 0,-7.572 1.238,0 c 0.642,0 1.088,0.346 1.385,1.09 0.148,0.445 0.296,1.584 0.296,2.771 m 1.487,-0.099 c 0,-0.791 -0.151,-1.733 -0.297,-2.524 -0.149,-1.041 -0.596,-1.881 -1.238,-2.326 -0.397,-0.297 -0.842,-0.396 -1.682,-0.396 l -2.725,0 0,10.541 2.922,0 c 0.594,0 1.088,-0.149 1.485,-0.446 1.039,-0.841 1.535,-2.375 1.535,-4.849 m -10.049,0.939 -1.484,0 0.742,-3.017 0.742,3.017 z m 2.672,4.356 -2.672,-10.541 -1.484,0 -2.625,10.541 1.535,0 0.693,-2.871 2.277,0 0.743,2.871 1.533,0 z m -7.721,0 0,-1.485 -3.81,0 0,-3.463 2.127,0 0,-1.435 -2.127,0 0,-2.674 3.414,0 0,-1.484 -4.95,0 0,10.541 5.346,0 z m -7.572,0 0,-10.541 -1.535,0 0,4.306 -2.92,0 0,-4.306 -1.485,0 0,10.541 1.485,0 0,-4.75 2.92,0 0,4.75 1.535,0 z m -10.049,-4.356 -1.484,0 0.742,-3.017 0.742,3.017 z m 2.623,4.356 -2.623,-10.541 -1.484,0 -2.625,10.541 1.535,0 0.693,-2.871 2.278,0 0.742,2.871 1.484,0 z"
     style="fill:#000000;fill-opacity:1;fill-rule:evenodd;stroke:none"
     id="path3511" />
</svg>
