<?xml version="1.0" encoding="UTF-8" standalone="no"?>
<!-- Created with Inkscape (http://www.inkscape.org/) -->

<svg
   xmlns:dc="http://purl.org/dc/elements/1.1/"
   xmlns:cc="http://creativecommons.org/ns#"
   xmlns:rdf="http://www.w3.org/1999/02/22-rdf-syntax-ns#"
   xmlns:svg="http://www.w3.org/2000/svg"
   xmlns="http://www.w3.org/2000/svg"
   xmlns:sodipodi="http://sodipodi.sourceforge.net/DTD/sodipodi-0.dtd"
   xmlns:inkscape="http://www.inkscape.org/namespaces/inkscape"
   width="226.53125"
   height="95.25"
   id="svg3562"
   version="1.1"
   inkscape:version="0.48.2 r9819"
   sodipodi:docname="MUTCD S4-4P.svg">
  <defs
     id="defs3564">
    <inkscape:perspective
       sodipodi:type="inkscape:persp3d"
       inkscape:vp_x="0 : 526.18109 : 1"
       inkscape:vp_y="0 : 1000 : 0"
       inkscape:vp_z="744.09448 : 526.18109 : 1"
       inkscape:persp3d-origin="372.04724 : 350.78739 : 1"
       id="perspective3570" />
    <inkscape:perspective
       id="perspective3595"
       inkscape:persp3d-origin="301.91901 : 198.427 : 1"
       inkscape:vp_z="603.83801 : 297.6405 : 1"
       inkscape:vp_y="0 : 1000 : 0"
       inkscape:vp_x="0 : 297.6405 : 1"
       sodipodi:type="inkscape:persp3d" />
    <inkscape:perspective
       id="perspective3615"
       inkscape:persp3d-origin="0.5 : 0.33333333 : 1"
       inkscape:vp_z="1 : 0.5 : 1"
       inkscape:vp_y="0 : 1000 : 0"
       inkscape:vp_x="0 : 0.5 : 1"
       sodipodi:type="inkscape:persp3d" />
    <inkscape:perspective
       id="perspective4061"
       inkscape:persp3d-origin="0.5 : 0.33333333 : 1"
       inkscape:vp_z="1 : 0.5 : 1"
       inkscape:vp_y="0 : 1000 : 0"
       inkscape:vp_x="0 : 0.5 : 1"
       sodipodi:type="inkscape:persp3d" />
    <inkscape:perspective
       id="perspective4872"
       inkscape:persp3d-origin="263 : 175.33333 : 1"
       inkscape:vp_z="526 : 263 : 1"
       inkscape:vp_y="0 : 1000 : 0"
       inkscape:vp_x="0 : 263 : 1"
       sodipodi:type="inkscape:persp3d" />
    <inkscape:perspective
       id="perspective4933"
       inkscape:persp3d-origin="0.5 : 0.33333333 : 1"
       inkscape:vp_z="1 : 0.5 : 1"
       inkscape:vp_y="0 : 1000 : 0"
       inkscape:vp_x="0 : 0.5 : 1"
       sodipodi:type="inkscape:persp3d" />
    <inkscape:perspective
       id="perspective4966"
       inkscape:persp3d-origin="0.5 : 0.33333333 : 1"
       inkscape:vp_z="1 : 0.5 : 1"
       inkscape:vp_y="0 : 1000 : 0"
       inkscape:vp_x="0 : 0.5 : 1"
       sodipodi:type="inkscape:persp3d" />
    <inkscape:perspective
       id="perspective3614"
       inkscape:persp3d-origin="0.5 : 0.33333333 : 1"
       inkscape:vp_z="1 : 0.5 : 1"
       inkscape:vp_y="0 : 1000 : 0"
       inkscape:vp_x="0 : 0.5 : 1"
       sodipodi:type="inkscape:persp3d" />
    <inkscape:perspective
       id="perspective3653"
       inkscape:persp3d-origin="0.5 : 0.33333333 : 1"
       inkscape:vp_z="1 : 0.5 : 1"
       inkscape:vp_y="0 : 1000 : 0"
       inkscape:vp_x="0 : 0.5 : 1"
       sodipodi:type="inkscape:persp3d" />
    <inkscape:perspective
       id="perspective3701"
       inkscape:persp3d-origin="0.5 : 0.33333333 : 1"
       inkscape:vp_z="1 : 0.5 : 1"
       inkscape:vp_y="0 : 1000 : 0"
       inkscape:vp_x="0 : 0.5 : 1"
       sodipodi:type="inkscape:persp3d" />
    <inkscape:perspective
       id="perspective4525"
       inkscape:persp3d-origin="0.5 : 0.33333333 : 1"
       inkscape:vp_z="1 : 0.5 : 1"
       inkscape:vp_y="0 : 1000 : 0"
       inkscape:vp_x="0 : 0.5 : 1"
       sodipodi:type="inkscape:persp3d" />
    <inkscape:perspective
       id="perspective4729"
       inkscape:persp3d-origin="301.91901 : 198.427 : 1"
       inkscape:vp_z="603.83801 : 297.6405 : 1"
       inkscape:vp_y="0 : 1000 : 0"
       inkscape:vp_x="0 : 297.6405 : 1"
       sodipodi:type="inkscape:persp3d" />
    <inkscape:perspective
       id="perspective4759"
       inkscape:persp3d-origin="0.5 : 0.33333333 : 1"
       inkscape:vp_z="1 : 0.5 : 1"
       inkscape:vp_y="0 : 1000 : 0"
       inkscape:vp_x="0 : 0.5 : 1"
       sodipodi:type="inkscape:persp3d" />
    <inkscape:perspective
       id="perspective4793"
       inkscape:persp3d-origin="0.5 : 0.33333333 : 1"
       inkscape:vp_z="1 : 0.5 : 1"
       inkscape:vp_y="0 : 1000 : 0"
       inkscape:vp_x="0 : 0.5 : 1"
       sodipodi:type="inkscape:persp3d" />
  </defs>
  <sodipodi:namedview
     id="base"
     pagecolor="#ffffff"
     bordercolor="#666666"
     borderopacity="1.0"
     inkscape:pageopacity="0.0"
     inkscape:pageshadow="2"
     inkscape:zoom="2.5249666"
     inkscape:cx="106.95926"
     inkscape:cy="7.0051418"
     inkscape:document-units="px"
     inkscape:current-layer="layer1"
     showgrid="false"
     inkscape:window-width="1280"
     inkscape:window-height="1004"
     inkscape:window-x="-8"
     inkscape:window-y="-8"
     inkscape:window-maximized="1"
     fit-margin-top="0"
     fit-margin-left="0"
     fit-margin-right="0"
     fit-margin-bottom="0" />
  <metadata
     id="metadata3567">
    <rdf:RDF>
      <cc:Work
         rdf:about="">
        <dc:format>image/svg+xml</dc:format>
        <dc:type
           rdf:resource="http://purl.org/dc/dcmitype/StillImage" />
        <dc:title></dc:title>
      </cc:Work>
    </rdf:RDF>
  </metadata>
  <g
     inkscape:label="Livello 1"
     inkscape:groupmode="layer"
     id="layer1"
     transform="translate(4275.3125,1525.5938)">
    <g
       display="none"
       id="Layer_1_1_"
       style="display:none"
       transform="translate(-179.26841,166.65141)">
      <path
         id="path3574"
         enable-background="new    "
         d=""
         display="inline"
         style="fill:none;display:inline"
         inkscape:connector-curvature="0" />
    </g>
    <g
       display="none"
       id="Layer_3"
       transform="translate(-859.87637,144.75832)"
       style="display:none">
      <line
         y2="395.00101"
         x2="154.05701"
         y1="342.67899"
         x1="207.533"
         display="inline"
         id="line7934"
         style="fill:none;display:inline" />
    </g>
    <path
       d="m -4252.0678,-1524.8415 180.0145,0 c 12.3995,0 22.5065,10.107 22.5065,22.4971 l 0,48.7539 c 0,12.3995 -10.107,22.5065 -22.5065,22.5065 l -179.1988,-0.1172 c -0.2766,0.01 -0.5391,0.019 -0.8157,0.019 -12.3901,0 -22.4971,-10.1118 -22.4971,-22.5065 l 0,-48.6555 c 0,-12.3901 10.107,-22.4971 22.4971,-22.4971 z"
       style="fill:#ffffff;stroke:#000000;stroke-width:1.5;stroke-linecap:butt;stroke-linejoin:miter;stroke-miterlimit:4;stroke-opacity:1;stroke-dasharray:none"
       id="path3175"
       inkscape:connector-curvature="0" />
    <path
       d="m -4252.1053,-1520.3459 180.0895,0 c 9.9008,0 17.964,8.0679 17.964,17.964 l 0,48.8289 c 0,9.9008 -8.0632,17.964 -17.964,17.964 l -180.0895,0 c -9.8867,0 -17.964,-8.0632 -17.964,-17.964 l 0,-48.8289 c 0,-9.8961 8.0773,-17.964 17.964,-17.964"
       style="fill:#000000;fill-opacity:1;fill-rule:evenodd;stroke:none"
       id="path3179"
       inkscape:connector-curvature="0" />
    <path
       d="m -4252.0585,-1513.5953 179.9958,0 c 6.2021,0 11.265,5.0629 11.265,11.2603 l 0,48.7352 c 0,6.202 -5.0629,11.2649 -11.265,11.2649 l -179.9958,0 c -6.1974,0 -11.2509,-5.0629 -11.2509,-11.2649 l 0,-48.7352 c 0,-6.1974 5.0535,-11.2603 11.2509,-11.2603"
       style="fill:#ffffff;fill-opacity:1;fill-rule:evenodd;stroke:none"
       id="path3183"
       inkscape:connector-curvature="0" />
    <path
       d="m -4083.2591,-1495.2568 -5.3208,0 0,37.428 5.3208,0 0,-37.428 z m -16.7217,10.0508 c 0,3.0002 -1.7298,4.7254 -4.8801,4.7254 l -5.5457,0 0,-9.4508 5.5457,0 c 2.9299,0 4.8801,1.8002 4.8801,4.7254 m 5.2457,27.3772 -5.4004,-18.3765 c 3.5253,-1.2751 5.4004,-4.5753 5.4004,-9.0007 0,-6.0755 -3.9706,-10.0508 -9.8961,-10.0508 l -11.1806,0 0,37.428 5.4052,0 0,-17.6264 5.1707,0 4.9551,17.6264 5.5457,0 z m -26.1724,-32.1026 0,-5.3254 -19.0562,0 0,37.428 5.4004,0 0,-17.6264 7.5006,0 0,-5.0254 -7.5006,0 0,-9.4508 13.6558,0 z m -24.227,11.776 -13.1307,0 0,4.9504 13.1307,0 0,-4.9504 z m -18.2217,20.3266 0,-37.428 -5.3302,0 0,22.4268 -10.2711,-22.4268 -5.4051,0 0,37.428 5.4051,0 0,-25.052 11.5462,25.052 4.0551,0 z m -33.6121,-18.7515 c 0,4.2753 -0.2954,6.5255 -1.2001,9.5258 -0.8954,3.2252 -2.3252,4.6503 -4.5707,4.6503 -2.4049,0 -3.8253,-1.4251 -4.7207,-4.6503 -0.8344,-3.0003 -1.2001,-5.3255 -1.2001,-9.4508 0,-4.1253 0.2203,-6.6005 1.2001,-9.5258 0.8954,-3.1502 2.3158,-4.5753 4.7207,-4.5753 2.2455,0 3.6753,1.4251 4.5707,4.7253 0.825,2.7753 1.2001,5.1005 1.2001,9.3008 m 5.1004,0 c 0,-5.6255 -0.5251,-9.1507 -2.0955,-12.826 -1.8048,-4.6504 -4.4253,-6.4506 -8.7757,-6.4506 -4.3457,0 -6.9756,1.8002 -8.9257,6.3005 -1.6455,3.5253 -2.1799,7.3506 -2.1799,12.9761 0,5.7755 0.5344,9.3007 2.1799,12.976 1.7954,4.5004 4.4206,6.4506 8.9257,6.4506 4.1957,0 6.9709,-1.9502 8.7757,-6.4506 1.5704,-3.5252 2.0955,-7.2005 2.0955,-12.976 m -29.4024,18.7515 0,-37.428 -5.4004,0 -6.9662,21.0017 -6.9803,-21.0017 -5.4004,0 0,37.428 5.4004,0 0,-20.9267 6.9803,20.9267 6.9662,-20.9267 0,20.9267 5.4004,0 z"
       style="fill:#000000;fill-opacity:1;fill-rule:evenodd;stroke:none"
       id="path3185"
       inkscape:connector-curvature="0" />
  </g>
</svg>
