<?xml version="1.0" encoding="UTF-8" standalone="no"?>
<!-- Created with Inkscape (http://www.inkscape.org/) -->

<svg
   xmlns:dc="http://purl.org/dc/elements/1.1/"
   xmlns:cc="http://creativecommons.org/ns#"
   xmlns:rdf="http://www.w3.org/1999/02/22-rdf-syntax-ns#"
   xmlns:svg="http://www.w3.org/2000/svg"
   xmlns="http://www.w3.org/2000/svg"
   xmlns:sodipodi="http://sodipodi.sourceforge.net/DTD/sodipodi-0.dtd"
   xmlns:inkscape="http://www.inkscape.org/namespaces/inkscape"
   width="2160"
   height="1080"
   id="svg3562"
   version="1.1"
   inkscape:version="0.92.4 (5da689c313, 2019-01-14)"
   sodipodi:docname="MUTCD_S4-7P.svg">
  <defs
     id="defs3564">
    <inkscape:perspective
       sodipodi:type="inkscape:persp3d"
       inkscape:vp_x="0 : 526.18109 : 1"
       inkscape:vp_y="0 : 1000 : 0"
       inkscape:vp_z="744.09448 : 526.18109 : 1"
       inkscape:persp3d-origin="372.04724 : 350.78739 : 1"
       id="perspective3570" />
    <inkscape:perspective
       id="perspective3595"
       inkscape:persp3d-origin="301.91901 : 198.427 : 1"
       inkscape:vp_z="603.83801 : 297.6405 : 1"
       inkscape:vp_y="0 : 1000 : 0"
       inkscape:vp_x="0 : 297.6405 : 1"
       sodipodi:type="inkscape:persp3d" />
    <inkscape:perspective
       id="perspective3615"
       inkscape:persp3d-origin="0.5 : 0.33333333 : 1"
       inkscape:vp_z="1 : 0.5 : 1"
       inkscape:vp_y="0 : 1000 : 0"
       inkscape:vp_x="0 : 0.5 : 1"
       sodipodi:type="inkscape:persp3d" />
    <inkscape:perspective
       id="perspective4061"
       inkscape:persp3d-origin="0.5 : 0.33333333 : 1"
       inkscape:vp_z="1 : 0.5 : 1"
       inkscape:vp_y="0 : 1000 : 0"
       inkscape:vp_x="0 : 0.5 : 1"
       sodipodi:type="inkscape:persp3d" />
    <inkscape:perspective
       id="perspective4872"
       inkscape:persp3d-origin="263 : 175.33333 : 1"
       inkscape:vp_z="526 : 263 : 1"
       inkscape:vp_y="0 : 1000 : 0"
       inkscape:vp_x="0 : 263 : 1"
       sodipodi:type="inkscape:persp3d" />
    <inkscape:perspective
       id="perspective4933"
       inkscape:persp3d-origin="0.5 : 0.33333333 : 1"
       inkscape:vp_z="1 : 0.5 : 1"
       inkscape:vp_y="0 : 1000 : 0"
       inkscape:vp_x="0 : 0.5 : 1"
       sodipodi:type="inkscape:persp3d" />
    <inkscape:perspective
       id="perspective4966"
       inkscape:persp3d-origin="0.5 : 0.33333333 : 1"
       inkscape:vp_z="1 : 0.5 : 1"
       inkscape:vp_y="0 : 1000 : 0"
       inkscape:vp_x="0 : 0.5 : 1"
       sodipodi:type="inkscape:persp3d" />
    <inkscape:perspective
       id="perspective3614"
       inkscape:persp3d-origin="0.5 : 0.33333333 : 1"
       inkscape:vp_z="1 : 0.5 : 1"
       inkscape:vp_y="0 : 1000 : 0"
       inkscape:vp_x="0 : 0.5 : 1"
       sodipodi:type="inkscape:persp3d" />
    <inkscape:perspective
       id="perspective3653"
       inkscape:persp3d-origin="0.5 : 0.33333333 : 1"
       inkscape:vp_z="1 : 0.5 : 1"
       inkscape:vp_y="0 : 1000 : 0"
       inkscape:vp_x="0 : 0.5 : 1"
       sodipodi:type="inkscape:persp3d" />
    <inkscape:perspective
       id="perspective3701"
       inkscape:persp3d-origin="0.5 : 0.33333333 : 1"
       inkscape:vp_z="1 : 0.5 : 1"
       inkscape:vp_y="0 : 1000 : 0"
       inkscape:vp_x="0 : 0.5 : 1"
       sodipodi:type="inkscape:persp3d" />
    <inkscape:perspective
       id="perspective4525"
       inkscape:persp3d-origin="0.5 : 0.33333333 : 1"
       inkscape:vp_z="1 : 0.5 : 1"
       inkscape:vp_y="0 : 1000 : 0"
       inkscape:vp_x="0 : 0.5 : 1"
       sodipodi:type="inkscape:persp3d" />
    <inkscape:perspective
       id="perspective4729"
       inkscape:persp3d-origin="301.91901 : 198.427 : 1"
       inkscape:vp_z="603.83801 : 297.6405 : 1"
       inkscape:vp_y="0 : 1000 : 0"
       inkscape:vp_x="0 : 297.6405 : 1"
       sodipodi:type="inkscape:persp3d" />
    <inkscape:perspective
       id="perspective4759"
       inkscape:persp3d-origin="0.5 : 0.33333333 : 1"
       inkscape:vp_z="1 : 0.5 : 1"
       inkscape:vp_y="0 : 1000 : 0"
       inkscape:vp_x="0 : 0.5 : 1"
       sodipodi:type="inkscape:persp3d" />
    <inkscape:perspective
       id="perspective4793"
       inkscape:persp3d-origin="0.5 : 0.33333333 : 1"
       inkscape:vp_z="1 : 0.5 : 1"
       inkscape:vp_y="0 : 1000 : 0"
       inkscape:vp_x="0 : 0.5 : 1"
       sodipodi:type="inkscape:persp3d" />
  </defs>
  <sodipodi:namedview
     id="base"
     pagecolor="#ffffff"
     bordercolor="#666666"
     borderopacity="1.0"
     inkscape:pageopacity="0.0"
     inkscape:pageshadow="2"
     inkscape:zoom="0.34414843"
     inkscape:cx="1648.3836"
     inkscape:cy="309.36778"
     inkscape:document-units="px"
     inkscape:current-layer="layer1"
     showgrid="false"
     inkscape:window-width="1920"
     inkscape:window-height="1057"
     inkscape:window-x="-8"
     inkscape:window-y="-8"
     inkscape:window-maximized="1"
     fit-margin-top="0"
     fit-margin-left="0"
     fit-margin-right="0"
     fit-margin-bottom="0" />
  <metadata
     id="metadata3567">
    <rdf:RDF>
      <cc:Work
         rdf:about="">
        <dc:format>image/svg+xml</dc:format>
        <dc:type
           rdf:resource="http://purl.org/dc/dcmitype/StillImage" />
        <dc:title />
      </cc:Work>
    </rdf:RDF>
  </metadata>
  <g
     inkscape:label="Livello 1"
     inkscape:groupmode="layer"
     id="layer1"
     transform="translate(167.0625,326.25)">
    <g
       display="none"
       id="Layer_1_1_"
       style="display:none"
       transform="translate(-179.26841,166.65141)">
      <path
         id="path3574"
         enable-background="new    "
         d=""
         display="inline"
         style="fill:none;display:inline"
         inkscape:connector-curvature="0" />
    </g>
    <g
       display="none"
       id="Layer_3"
       transform="translate(-859.87637,144.75832)"
       style="display:none">
      <line
         y2="395.00101"
         x2="154.05701"
         y1="342.67899"
         x1="207.533"
         display="inline"
         id="line7934"
         style="fill:none;display:inline" />
    </g>
    <path
       inkscape:connector-curvature="0"
       style="fill:#cdff00;fill-rule:nonzero;stroke:none;fill-opacity:1"
       d="m 1992.9375,618.75 c 0,74.5575 -60.4375,135 -135,135 l -1890,0 c -74.55938,0 -135,-60.4425 -135,-135 l 0,-810 c 0,-74.5594 60.44062,-135 135,-135 l 1890,0 c 74.5625,0 135,60.4406 135,135 l 0,810 z"
       id="path11" />
    <path
       inkscape:connector-curvature="0"
       style="fill:#000000;fill-rule:nonzero;stroke:none"
       d="m -32.0625,720 c -55.83013,0 -101.25,-45.42125 -101.25,-101.25 l 0,-810 c 0,-55.8301 45.41987,-101.25 101.25,-101.25 l 1890,0 c 55.825,0 101.25,45.4199 101.25,101.25 l 0,810 c 0,55.82875 -45.425,101.25 -101.25,101.25 l -1890,0 z"
       id="path13" />
    <path
       inkscape:connector-curvature="0"
       style="fill:#cdff00;fill-rule:nonzero;stroke:none;fill-opacity:1"
       d="m -32.0625,663.75 c -24.81325,0 -45,-20.1863 -45,-45 l 0,-810 c 0,-24.8133 20.18675,-45 45,-45 l 1890,0 c 24.8125,0 45,20.1867 45,45 l 0,810 c 0,24.8137 -20.1875,45 -45,45 l -1890,0 z"
       id="path15" />
    <path
       inkscape:connector-curvature="0"
       style="fill:#000000;fill-rule:nonzero;stroke:none"
       d="m 121.2,141.1187 -25.32875,103.5788 51.925,0 L 121.2,141.1187 z M 185.7875,393.75 160.46,295.2238 l -77.2525,0 -24.06125,98.5262 -51.92375,0 89.915,-360 50.65875,0 89.915,360 -51.92375,0 z"
       id="path17" />
    <path
       inkscape:connector-curvature="0"
       style="fill:#000000;fill-rule:nonzero;stroke:none"
       d="m 1460.1375,141.1187 -25.3375,103.5788 51.925,0 -26.5875,-103.5788 z m 64.5875,252.6313 -25.3375,-98.5262 -77.25,0 -24.0625,98.5262 -51.925,0 89.9125,-360 50.6625,0 89.9125,360 -51.9125,0 z"
       id="path19" />
    <path
       inkscape:connector-curvature="0"
       style="fill:#000000;fill-rule:nonzero;stroke:none"
       d="m 1136.5375,393.75 0,-360 169.7625,0 0,50.525 -117.8125,0 0,90.9488 74.7375,0 0,49.2637 -74.7375,0 0,118.7363 131.75,0 0,50.5262 -183.7,0 z"
       id="path21" />
    <path
       inkscape:connector-curvature="0"
       style="fill:#000000;fill-rule:nonzero;stroke:none"
       d="m 278.0325,393.75 0,-360 51.94,0 0,312.0012 131.75,0 0,47.9988 -183.69,0 z"
       id="path23" />
    <path
       inkscape:connector-curvature="0"
       style="fill:#000000;fill-rule:nonzero;stroke:none"
       d="m 502.04375,393.75 0,-360 51.94,0 0,312.0012 131.75,0 0,47.9988 -183.69,0 z"
       id="path25" />
    <path
       inkscape:connector-curvature="0"
       style="fill:#000000;fill-rule:nonzero;stroke:none"
       d="m 1721.5875,84.2762 -52.9375,0 0,90.9476 52.9375,0 c 30.2625,0 46.6375,-16.4213 46.6375,-45.4738 0,-27.79 -18.9,-45.4738 -46.6375,-45.4738 z m 44.125,309.4738 -47.9,-169.2638 -49.1625,0 0,169.2638 -51.6875,0 0,-360 107.15,0 c 56.725,0 94.5375,37.8937 94.5375,96 0,42.9462 -17.6375,74.5262 -51.675,87.1575 l 51.675,176.8425 -52.9375,0 z"
       id="path27" />
    <path
       inkscape:connector-curvature="0"
       style="fill:#000000;fill-rule:nonzero;stroke:none"
       d="m 1006.3075,230.8025 0,162.9475 -51.9213,0 0,-162.9475 -88.6525,-197.0525 54.45625,0 60.79125,130.105 59.5213,-130.105 55.7225,0 -89.9176,197.0525 z"
       id="path29" />
  </g>
</svg>
