<?xml version="1.0" encoding="UTF-8" standalone="no"?>
<!-- Generator: Adobe Illustrator 14.0.0, SVG Export Plug-In  -->

<svg
   xmlns:dc="http://purl.org/dc/elements/1.1/"
   xmlns:cc="http://creativecommons.org/ns#"
   xmlns:rdf="http://www.w3.org/1999/02/22-rdf-syntax-ns#"
   xmlns:svg="http://www.w3.org/2000/svg"
   xmlns="http://www.w3.org/2000/svg"
   xmlns:sodipodi="http://sodipodi.sourceforge.net/DTD/sodipodi-0.dtd"
   xmlns:inkscape="http://www.inkscape.org/namespaces/inkscape"
   version="1.1"
   x="0px"
   y="0px"
   width="201.71873"
   height="451.90622"
   viewBox="0 -0.321 201.71875 451.90624"
   enable-background="new 0 -0.321 144 120"
   xml:space="preserve"
   id="svg2"
   inkscape:version="0.92.4 (5da689c313, 2019-01-14)"
   sodipodi:docname="MUTCD_S5-1_METRIC.svg"><metadata
   id="metadata44"><rdf:RDF><cc:Work
       rdf:about=""><dc:format>image/svg+xml</dc:format><dc:type
         rdf:resource="http://purl.org/dc/dcmitype/StillImage" /><dc:title /></cc:Work></rdf:RDF></metadata><sodipodi:namedview
   pagecolor="#ffffff"
   bordercolor="#666666"
   borderopacity="1"
   objecttolerance="10"
   gridtolerance="10"
   guidetolerance="10"
   inkscape:pageopacity="0"
   inkscape:pageshadow="2"
   inkscape:window-width="1920"
   inkscape:window-height="1057"
   id="namedview42"
   showgrid="false"
   fit-margin-top="0"
   fit-margin-left="0"
   fit-margin-right="0"
   fit-margin-bottom="0"
   inkscape:zoom="1.4936076"
   inkscape:cx="171.78576"
   inkscape:cy="310.61954"
   inkscape:window-x="-8"
   inkscape:window-y="-8"
   inkscape:window-maximized="1"
   inkscape:current-layer="svg2" />
<defs
   id="defs4">
</defs>


















<path
   inkscape:connector-curvature="0"
   d="m 0.76425706,17.051776 c 0,-9.1098687 7.50396324,-16.61383264 16.71394194,-16.61383264 l 166.784871,0 c 9.20997,0 16.71811,7.50396394 16.71811,16.61383264 l 0,417.051884 c 0,9.20998 -7.50814,16.71811 -16.71811,16.71811 l -166.784871,0 c -9.2099787,0 -16.71394194,-7.50813 -16.71394194,-16.71811 l 0,-417.051884 z"
   style="fill:#ffffff;stroke:#000000;stroke-width:1.50000012;stroke-linecap:butt;stroke-linejoin:miter;stroke-miterlimit:4;stroke-opacity:1;stroke-dasharray:none"
   id="path4197" /><path
   inkscape:connector-curvature="0"
   d="m 196.99352,434.57918 c 0,0.60065 -0.20021,1.29724 -0.30032,1.89372 -0.19588,0.69658 -0.39626,1.29306 -0.59648,1.89371 -0.30033,0.59648 -0.59648,1.09285 -0.89263,1.6935 -0.40044,0.59648 -0.70076,1.09286 -1.1012,1.5934 -0.79669,0.79669 -1.49328,1.49328 -2.39009,2.18987 -0.49637,0.39626 -0.99274,0.69659 -1.59339,0.99691 -0.60065,0.29632 -1.09285,0.60065 -1.6935,0.7967 -0.69659,0.19588 -1.29307,0.39626 -1.89372,0.59648 -0.69659,0.10011 -1.39318,0.20022 -1.98965,0.20022 l -166.542943,0 c -0.696588,0 -1.397347,0 -2.093935,-0.10011 -0.696588,-0.10011 -1.297239,-0.30033 -1.889548,-0.50054 -0.700759,-0.19588 -1.19713,-0.3921 -1.793609,-0.69659 -0.59648,-0.29632 -1.197131,-0.59648 -1.693502,-0.89681 -0.6006507,-0.39626 -0.9969133,-0.79669 -1.4974556,-1.19296 -0.7966965,-0.79669 -1.4891134,-1.58922 -2.0897642,-2.48602 -0.3962626,-0.50055 -0.696588,-0.99692 -0.9969134,-1.59757 -0.296321,-0.59648 -0.4921999,-1.19713 -0.696588,-1.79361 C 5.0480649,436.4729 4.9519607,435.87642 4.7560819,435.17983 4.6519691,434.47907 4.6519691,433.88259 4.6519691,433.186 l 0,-415.808872 c 0.1041128,-0.696588 0.1041128,-1.393176 0.3003253,-1.993826 0.096104,-0.696588 0.2963211,-1.297239 0.5005423,-1.893719 0.1962126,-0.596479 0.4922,-1.192959 0.7925253,-1.79361 C 6.5456874,11.099494 6.9419501,10.603123 7.2422755,10.10258 7.6385381,9.6020392 8.038972,9.1056681 8.5353431,8.609297 9.3320396,7.912709 10.132907,7.2161209 11.025541,6.6154702 11.626192,6.3191491 12.122563,6.0189906 12.719042,5.8229449 13.415631,5.5226195 14.016281,5.3224026 14.60859,5.1180144 c 0.700759,-0.091766 1.297238,-0.1918745 1.993827,-0.291983 l 1.397347,-0.1041128 166.542936,0 c 0.59648,0.1041128 1.29307,0.204555 1.98966,0.3046635 0.60065,0.091766 1.19713,0.296321 1.89372,0.4963711 0.60065,0.3003253 1.09285,0.4963711 1.6935,0.7966965 0.60065,0.296321 1.09702,0.696588 1.59339,1.0970218 0.60065,0.3962627 0.99691,0.7925254 1.49746,1.1929592 0.79252,0.7966965 1.39317,1.5933913 1.99382,2.4901963 0.29599,0.59648 0.59231,1.197131 0.89264,1.79361 0.20021,0.59648 0.40043,1.19296 0.59648,1.79361 0.1001,0.696588 0.30032,1.297239 0.30032,1.993827 l 0.0961,1.393176 0,415.80887 -0.0961,0.69659 z"
   style="fill:#000000;fill-opacity:1;fill-rule:evenodd;stroke:none"
   id="path4199" /><path
   inkscape:connector-curvature="0"
   d="m 17.878633,71.8111 165.983997,0 c 4.80104,0 8.70944,3.90423 8.70944,8.709436 l 0,353.483014 c 0,4.80521 -3.9084,8.70527 -8.70944,8.70527 l -165.983997,0 c -4.801035,0 -8.7094365,-3.90006 -8.7094365,-8.70527 l 0,-353.483014 c 0,-4.805206 3.9084015,-8.709436 8.7094365,-8.709436 z"
   style="fill:#ffffff;fill-opacity:1;fill-rule:evenodd;stroke:none"
   id="path4201" /><path
   inkscape:connector-curvature="0"
   d="m 17.878633,8.7427749 165.983997,0 c 4.80104,0 8.70944,3.9084001 8.70944,8.7094351 l 0,40.644031 c 0,4.809377 -3.9084,8.709436 -8.70944,8.709436 l -165.983997,0 c -4.801035,0 -8.7094365,-3.900059 -8.7094365,-8.709436 l 0,-40.644031 c 0,-4.801035 3.9084015,-8.7094351 8.7094365,-8.7094351 z"
   style="fill:#cdff00;fill-opacity:1;fill-rule:evenodd;stroke:none"
   id="path4203" /><path
   inkscape:connector-curvature="0"
   d="m 39.00569,44.781815 c 0,-13.114204 -15.621092,-9.00559 -16.117463,-15.216481 -0.204555,-3.103363 2.702928,-4.004339 5.105531,-3.90423 3.799951,0.100108 5.005423,2.903145 5.005423,2.903145 l 4.60499,-1.401519 c -1.601735,-4.100275 -4.809378,-6.707266 -9.410196,-6.707266 -6.006507,0 -10.41128,2.402603 -10.41128,9.009761 0,5.410024 4.404773,7.408022 6.406942,8.308998 4.304664,1.701844 9.510304,2.402603 9.510304,6.907484 0,2.803037 -2.202387,4.905315 -5.20564,4.905315 -3.103363,0 -5.706183,-1.797782 -7.107701,-4.905315 l -5.005423,1.801952 c 2.198215,5.005423 6.406941,8.509219 12.113124,8.509219 2.803036,0 5.405857,-0.996913 7.307918,-2.60282 2.102277,-1.897889 3.203471,-4.600818 3.203471,-7.608243 z m 27.525655,2.803037 -5.001252,-1.897889 c -1.305581,2.698757 -3.007425,3.900059 -5.20564,3.900059 -2.306666,0 -3.804121,-0.900977 -5.005423,-2.60282 -1.30141,-2.102278 -2.102277,-5.706183 -2.102277,-9.410196 0,-2.803037 0.500542,-5.706178 1.297238,-7.704176 1.201302,-2.907316 2.907317,-4.108618 5.606074,-4.108618 2.606991,0 3.608076,0.700759 5.505965,3.503796 l 4.905315,-2.102278 c -2.198215,-4.604989 -5.401686,-6.707266 -10.41128,-6.707266 -3.704013,0 -6.607158,1.205472 -8.505048,3.708184 -2.402603,2.898974 -3.804121,8.204722 -3.804121,13.410358 0,4.204556 1.001084,8.509219 2.49854,11.416536 2.102278,4.100276 5.209811,6.002336 10.110954,6.002336 4.809378,0 8.112957,-2.49854 10.110955,-7.408026 z m 29.936601,6.811547 0,-33.436222 -5.20564,0 0,13.510467 -12.217403,0 0,-13.510467 -5.301578,0 0,33.436222 5.301578,0 0,-14.519898 12.217403,0 0,14.519898 5.20564,0 z M 127.20124,37.774223 c 0,-4.300488 -0.90514,-8.509215 -2.30666,-11.41236 -2.10228,-4.104447 -5.00125,-5.906399 -9.20998,-5.906399 -3.80412,0 -6.50288,1.101193 -8.50922,3.708184 -2.19822,3.199299 -3.59973,8.104614 -3.59973,13.610575 0,3.90423 0.90097,8.409111 2.30249,11.216319 1.998,4.100276 4.90532,6.002336 9.60624,6.002336 3.5038,0 6.2109,-1.201301 8.00868,-3.79995 2.40677,-2.903145 3.70818,-8.213065 3.70818,-13.418705 z m -5.30575,0 c 0,2.502712 -0.60065,5.810462 -1.30141,7.608243 -1.10536,2.907317 -2.70292,4.204556 -5.1097,4.204556 -2.0981,0 -3.49962,-0.900977 -4.60082,-2.60282 -1.30558,-2.102278 -2.00634,-5.706183 -2.00634,-9.209979 0,-2.898974 0.50472,-5.906395 1.30558,-7.904393 1.19714,-2.907316 2.80304,-4.208726 5.40586,-4.108618 1.998,0.104113 3.30358,0.805039 4.30467,2.60282 1.30141,2.206557 2.00216,5.606074 2.00216,9.410191 z m 35.4384,0 c 0,-4.300488 -0.80504,-8.509215 -2.20656,-11.41236 -2.10228,-4.104447 -5.00542,-5.906399 -9.20998,-5.906399 -3.90005,0 -6.60715,1.101193 -8.60515,3.708184 -2.20239,3.199299 -3.60391,8.104614 -3.60391,13.610575 0,3.90423 0.89681,8.409111 2.29833,11.216319 2.00634,4.100276 5.00959,6.002336 9.61458,6.002336 3.5038,0 6.20255,-1.201301 8.10461,-3.79995 2.3025,-2.903145 3.60808,-8.213065 3.60808,-13.418705 z m -5.20564,0 c 0,2.502712 -0.60065,5.810462 -1.30141,7.608243 -1.20547,2.907317 -2.70293,4.204556 -5.20564,4.204556 -2.10645,0 -3.50797,-0.900977 -4.50488,-2.60282 -1.30558,-2.102278 -2.00217,-5.706183 -2.00217,-9.209979 0,-2.898974 0.50054,-5.906395 1.30141,-7.904393 1.10119,-2.907316 2.80304,-4.208726 5.40169,-4.108618 1.90623,0.104113 3.20347,0.805039 4.30466,2.60282 1.30558,2.206557 2.00634,5.606074 2.00634,9.410191 z m 33.23184,16.622176 0,-5.009594 -15.51264,0 0,-28.426628 -5.20564,0 0,33.436222 20.71828,0"
   style="fill:#000000;fill-opacity:1;fill-rule:evenodd;stroke:none"
   id="path4205" /><path
   inkscape:connector-curvature="0"
   d="m 50.01762,111.78774 c 0,-3.69985 -1.906232,-6.80738 -4.805206,-8.30901 -1.801952,-1.00108 -4.809377,-1.90206 -9.209978,-2.80303 -4.108619,-1.001079 -5.309921,-1.797775 -5.309921,-3.699836 0,-2.102278 2.006341,-3.303579 5.410029,-3.303579 3.203471,0 5.806291,1.001084 8.008677,3.199299 l 4.404772,-4.004338 c -3.407859,-3.503796 -7.508134,-5.10136 -12.413449,-5.10136 -6.811547,0 -11.516645,3.699842 -11.516645,9.209978 0,2.098107 0.70076,4.100266 2.206558,5.706176 1.401518,1.60173 3.103362,2.39843 6.502878,3.1993 l 1.601736,0.50054 1.605907,0.30032 1.497456,0.50472 c 1.505798,0.40043 2.803037,0.79669 3.908401,1.29724 1.501627,0.70076 2.202386,1.70601 2.202386,3.00325 0,2.50271 -3.103362,4.40894 -7.307918,4.40894 -3.708184,0 -6.411113,-1.30558 -8.913824,-4.20872 l -4.805207,3.70401 c 3.804122,4.30883 8.108786,6.41111 13.81914,6.41111 3.103362,0 6.102445,-0.80504 8.404939,-2.20656 3.207642,-1.90206 4.709269,-4.4006 4.709269,-7.80845 z M 83.349566,98.273103 c 0,-3.704013 -1.997998,-7.007592 -5.10136,-8.709436 -1.902061,-1.097022 -3.407859,-1.401519 -6.006508,-1.401519 l -15.516811,0 0,33.336112 6.102445,0 0,-13.11421 9.414366,0 c 2.598649,0 4.104447,-0.29599 6.006508,-1.30141 3.103362,-1.80195 5.10136,-5.30575 5.10136,-8.809537 z m -5.906399,0 c 0,2.506877 -1.997998,4.104437 -4.901143,4.104437 l -9.714692,0 0,-8.308992 9.714692,0 c 2.903145,0 4.901143,1.701843 4.901143,4.204555 z m 36.243433,23.225157 0,-6.00651 -18.720281,0 0,-9.10987 9.806461,0 0,-6.10245 -9.806461,0 0,-6.210882 18.115461,0 0,-5.9064 -24.222077,0 0,33.336112 24.826897,0 z m 31.63427,0 0,-6.00651 -18.82039,0 0,-9.10987 9.90657,0 0,-6.10245 -9.90657,0 0,-6.210882 18.21557,0 0,-5.9064 -24.32635,0 0,33.336112 24.93117,0 z m 33.33612,-16.71395 c 0,-6.607144 -2.80304,-11.616739 -8.00867,-14.519884 -2.40261,-1.401518 -5.10971,-2.102278 -7.90857,-2.102278 l -10.81172,0 0,33.336112 10.81172,0 c 2.70293,0 5.50596,-0.70076 7.80846,-2.00217 5.30574,-2.89898 8.10878,-8.10462 8.10878,-14.71178 z m -6.00651,0 c 0,4.50488 -1.60173,7.60408 -5.10553,9.4102 -1.40152,0.7967 -3.00742,1.29724 -4.8052,1.29724 l -4.7051,0 0,-21.423202 4.7051,0 c 1.79778,0 3.49962,0.500542 5.00542,1.305581 3.30358,1.897889 4.90531,4.905301 4.90531,9.410181"
   style="fill:#000000;fill-opacity:1;fill-rule:evenodd;stroke:none"
   id="path4207" /><path
   inkscape:connector-curvature="0"
   d="m 65.234106,172.05305 0,-5.20564 -18.92467,0 0,-28.23061 -6.002336,0 0,33.43625 24.927006,0 z m 5.601903,0 6.006507,0 0,-33.43625 -6.006507,0 0,33.43625 z m 45.653631,0 0,-33.43625 -5.81046,0 -9.80646,19.8215 -9.610414,-19.8215 -5.906399,0 0,33.43625 5.906399,0 0,-20.42213 9.610414,20.42213 9.80646,-20.42213 0,20.42213 5.81046,0 z m 8.70943,0 5.9064,0 0,-33.43625 -5.9064,0 0,33.43625 z m 36.43948,-27.52985 0,-5.9064 -25.02711,0 0,5.9064 9.61041,0 0,27.52985 5.9064,0 0,-27.52985 9.5103,0"
   style="fill:#000000;fill-opacity:1;fill-rule:evenodd;stroke:none"
   id="path4209" /><path
   inkscape:connector-curvature="0"
   d="m 84.154605,372.30754 -3.303579,0 -1.601735,10.81172 -2.702929,-10.81172 -3.203471,0 -2.60282,10.81172 -1.601735,-10.81172 -3.30775,0 3.007425,20.62652 2.898974,0 3.207642,-13.21432 3.303579,13.21432 2.898974,0 3.007425,-20.62652 z m 17.018435,20.62652 0,-20.62652 -3.203467,0 0,8.31318 -7.512306,0 0,-8.31318 -3.1993,0 0,20.62652 3.1993,0 0,-9.00976 7.512306,0 0,9.00976 3.203467,0 z m 17.7192,0 0,-3.30358 -9.61458,0 0,-5.70618 6.01068,0 0,-3.30358 -6.01068,0 0,-5.10553 8.91382,0 0,-3.20765 -12.11312,0 0,20.62652 12.81388,0 z m 17.51481,0 0,-20.62652 -3.29941,0 0,13.21432 -7.5123,-13.21432 -3.30358,0 0,20.62652 3.30358,0 0,-14.01936 7.91274,14.01936 2.89897,0"
   style="fill:#000000;fill-opacity:1;fill-rule:evenodd;stroke:none"
   id="path4211" /><path
   inkscape:connector-curvature="0"
   d="m 50.718379,412.65125 0,-3.29941 -12.813883,0 0,20.71828 3.30358,0 0,-9.00559 6.006507,0 0,-3.30357 -6.006507,0 0,-5.10971 9.510303,0 z m 15.917246,17.41887 0,-3.09919 -9.610413,0 0,-17.61909 -3.20347,0 0,20.71828 12.813883,0 z m 18.720282,0 -7.107701,-20.71828 -3.303579,0 -7.107701,20.71828 3.499625,0 2.00634,-5.80629 6.50705,0 1.997998,5.80629 3.507968,0 z m -6.711438,-9.2058 -4.104447,0 2.106449,-5.70618 1.997998,5.70618 z m 22.324191,3.20347 c 0,-8.10879 -9.606246,-5.51014 -9.906571,-9.4102 -0.100108,-1.90206 1.701844,-2.4026 3.203471,-2.4026 2.298323,0.10011 3.003254,1.79778 3.003254,1.79778 l 2.903146,-0.7967 c -1.005257,-2.60282 -2.903146,-4.20455 -5.810463,-4.20455 -3.699842,0 -6.50705,1.49745 -6.50705,5.50596 0,3.5038 2.807208,4.70093 4.004338,5.20147 2.7071,1.10537 5.9064,1.5058 5.9064,4.30884 0,1.70184 -1.297239,2.99908 -3.1993,2.99908 -2.00634,0 -3.603904,-1.09702 -4.408943,-2.99908 l -3.103363,1.09702 c 1.305582,3.10336 3.908402,5.30992 7.512306,5.30992 1.701844,0 3.303579,-0.60482 4.504881,-1.70602 1.297234,-1.09702 1.897894,-2.79886 1.897894,-4.70092 z m 17.51898,6.00233 0,-20.71828 -3.30358,0 0,8.40912 -7.50814,0 0,-8.40912 -3.30358,0 0,20.71828 3.30358,0 0,-9.00559 7.50814,0 0,9.00559 3.30358,0 z m 4.80937,0 3.40369,0 0,-20.71828 -3.40369,0 0,20.71828 z m 22.32419,0 0,-20.71828 -3.30775,0 0,13.21432 -7.50814,-13.21432 -3.30357,0 0,20.71828 3.30357,0 0,-14.01101 7.91274,14.01101 2.90315,0 z m 18.52007,-6.20255 0,-4.10862 -7.11188,0 0,3.30358 3.8083,0 0,0.80504 c 0,1.90206 -1.5058,3.1993 -3.60808,3.1993 -1.29724,0 -2.19821,-0.50054 -2.80304,-1.69767 -0.70076,-1.30141 -1.09702,-3.40369 -1.09702,-5.61025 0,-1.69767 0.30033,-3.6039 0.7967,-4.90114 0.80504,-1.80195 1.80612,-2.50271 3.50379,-2.50271 1.60591,0 2.50689,0.70076 3.30775,2.50271 l 3.20348,-1.30141 c -1.40152,-3.20764 -3.30358,-4.50488 -6.51123,-4.50488 -2.30249,0 -4.00016,0.7967 -5.30574,2.30249 -1.39735,1.79778 -2.29833,5.10136 -2.29833,8.40494 0,2.50689 0.50054,5.10971 1.40152,6.91166 1.2013,2.60282 2.99908,3.80412 6.10662,3.80412 3.80412,0 6.60716,-2.80304 6.60716,-6.60716"
   style="fill:#000000;fill-opacity:1;fill-rule:evenodd;stroke:none"
   id="path4213" /><path
   inkscape:connector-curvature="0"
   d="m 63.544776,354.32973 -4.358889,-10.5239 -2.969885,4.03771 0,6.48619 -5.426712,0 0,-28.80623 5.426712,-2.0272 0,16.3761 5.843832,-7.54153 6.694753,0 -5.843831,7.00762 6.060733,14.99124 -5.426713,0"
   style="fill:#000000;fill-opacity:1;fill-rule:nonzero;stroke:none"
   id="path4215" /><path
   inkscape:connector-curvature="0"
   d="m 98.31161,354.32973 0,-13.18095 c 0,-2.44848 -1.484942,-4.0377 -3.824977,-4.0377 -2.127305,0 -3.829149,1.80195 -3.829149,3.82497 l 0,13.39368 -5.209811,0 0,-13.18095 c 0,-2.33586 -1.801952,-4.0377 -4.037708,-4.0377 -2.123134,0 -3.620589,1.70184 -3.620589,3.93343 l 0,13.28522 -5.418371,0 0,-22.11148 5.418371,0 0,1.8103 c 1.280554,-1.27639 3.190957,-2.34004 5.422541,-2.34004 2.235756,0 4.146159,0.85092 5.743723,2.65289 2.548595,-2.01053 4.25461,-2.65289 6.698925,-2.65289 4.680075,0 8.079585,3.19098 8.079585,7.43725 l 0,15.20397 -5.42254,0"
   style="fill:#000000;fill-opacity:1;fill-rule:nonzero;stroke:none"
   id="path4217" /><path
   inkscape:connector-curvature="0"
   d="m 129.38694,323.25437 -5.42254,0 -18.17802,31.07536 5.41837,0 18.18219,-31.07536"
   style="fill:#000000;fill-opacity:1;fill-rule:evenodd;stroke:none"
   id="path4219" /><path
   inkscape:connector-curvature="0"
   d="m 144.78279,354.32973 0,-13.18095 c 0,-2.23575 -1.80612,-4.0377 -4.03771,-4.0377 -1.91457,0 -4.04188,0.95103 -4.04188,4.24626 l 0,12.97239 -5.41837,0 0,-28.80623 5.41837,-2.0272 0,10.31952 c 1.38484,-1.81447 3.5038,-2.12731 5.10136,-2.12731 4.78436,0 8.08376,3.19098 8.08376,7.43725 l 0,15.20397 -5.10553,0"
   style="fill:#000000;fill-opacity:1;fill-rule:nonzero;stroke:none"
   id="path4221" /><path
   inkscape:connector-curvature="0"
   d="m 100.28041,183.57803 c 37.08601,0 67.33545,30.24528 67.33545,67.33129 0,37.08185 -30.24944,67.33546 -67.33545,67.33546 -37.081843,0 -67.327112,-30.25361 -67.327112,-67.33546 0,-37.08601 30.245269,-67.33129 67.327112,-67.33129"
   style="fill:#000000;fill-opacity:1;fill-rule:evenodd;stroke:none"
   id="path4223" /><path
   inkscape:connector-curvature="0"
   d="m 100.28041,190.05589 c 33.52382,0 60.8576,27.34212 60.8576,60.85343 0,33.52382 -27.33378,60.85343 -60.8576,60.85343 -33.515479,0 -60.853431,-27.32961 -60.853431,-60.85343 0,-33.51131 27.337952,-60.85343 60.853431,-60.85343"
   style="fill:#ffffff;fill-opacity:1;fill-rule:evenodd;stroke:none"
   id="path4225" /><path
   inkscape:connector-curvature="0"
   d="m 77.605843,277.76342 c -8.354885,0 -15.070494,-5.43923 -17.252024,-13.79411 l 7.991992,-2.36924 c 1.26804,5.08885 4.725953,7.80846 9.627097,7.80846 5.45174,0 9.264204,-3.80412 9.264204,-9.07233 0,-2.72378 -1.092851,-5.26821 -2.907317,-6.54459 -1.272212,-0.90098 -1.451573,-0.90098 -5.264037,-1.08034 -0.187536,0 -0.546425,0 -0.913489,0 l 0,-8.35488 0,0.17936 2.002169,0 c 3.27021,0 5.080504,-1.82281 5.080504,-5.08885 0,-3.99599 -3.270209,-6.89497 -7.445566,-6.89497 -3.449571,0 -5.989823,1.63093 -7.80846,5.08468 l -7.629099,-2.90732 c 2.723784,-6.53625 8.538417,-10.53224 15.254026,-10.53224 8.72195,0 15.800452,7.0785 15.800452,15.79628 0,3.08667 -0.717444,5.2682 -2.903145,8.53841 3.812464,3.44957 4.905315,6.16919 4.905315,11.25804 0,10.52807 -7.266206,17.97364 -17.802622,17.97364"
   style="fill:#000000;fill-opacity:1;fill-rule:nonzero;stroke:none"
   id="path4227" /><path
   inkscape:connector-curvature="0"
   d="m 134.27557,251.072 c 0,3.99599 -0.90097,9.08484 -1.99382,11.80446 -1.81864,4.54242 -4.17953,6.53207 -7.99199,6.53207 -3.26604,0 -5.45174,-1.26387 -7.08268,-3.98765 -2.00217,-3.27438 -3.09502,-8.89714 -3.09502,-14.34888 0,-4.36306 0.73413,-9.0765 2.00634,-12.17152 1.80613,-4.53408 4.35472,-6.53208 8.35489,-6.34855 3.0825,0.17519 5.0805,1.26387 6.71978,3.996 1.99382,3.4454 3.0825,8.7136 3.0825,14.52407 z m 8.17553,0 c 0,-6.53625 -1.27221,-13.0725 -3.44957,-17.61909 -3.27438,-6.35689 -7.80846,-9.25586 -14.34888,-9.25586 -5.994,0 -10.17352,1.81029 -13.2602,5.80629 -3.44957,4.90114 -5.6311,12.53858 -5.6311,21.06866 0,6.17752 1.45157,13.08084 3.6331,17.43973 3.09085,6.34854 7.6291,9.25169 14.89531,9.25169 5.44756,0 9.62709,-1.80613 12.53441,-5.80212 3.62893,-4.54242 5.62693,-12.71795 5.62693,-20.8893"
   style="fill:#000000;fill-opacity:1;fill-rule:nonzero;stroke:none"
   id="path4229" /></svg>