<?xml version="1.0" encoding="UTF-8" standalone="no"?>
<!-- Generator: Adobe Illustrator 14.0.0, SVG Export Plug-In  -->

<svg
   xmlns:dc="http://purl.org/dc/elements/1.1/"
   xmlns:cc="http://creativecommons.org/ns#"
   xmlns:rdf="http://www.w3.org/1999/02/22-rdf-syntax-ns#"
   xmlns:svg="http://www.w3.org/2000/svg"
   xmlns="http://www.w3.org/2000/svg"
   xmlns:sodipodi="http://sodipodi.sourceforge.net/DTD/sodipodi-0.dtd"
   xmlns:inkscape="http://www.inkscape.org/namespaces/inkscape"
   version="1.1"
   x="0px"
   y="0px"
   width="215.56248"
   height="269.06247"
   viewBox="0 -0.321 215.56249 269.06249"
   enable-background="new 0 -0.321 144 120"
   xml:space="preserve"
   id="svg2"
   inkscape:version="0.48.2 r9819"
   sodipodi:docname="Delaware S5-1-DE (old).svg"><metadata
   id="metadata44"><rdf:RDF><cc:Work
       rdf:about=""><dc:format>image/svg+xml</dc:format><dc:type
         rdf:resource="http://purl.org/dc/dcmitype/StillImage" /><dc:title></dc:title></cc:Work></rdf:RDF></metadata><sodipodi:namedview
   pagecolor="#ffffff"
   bordercolor="#666666"
   borderopacity="1"
   objecttolerance="10"
   gridtolerance="10"
   guidetolerance="10"
   inkscape:pageopacity="0"
   inkscape:pageshadow="2"
   inkscape:window-width="1280"
   inkscape:window-height="1004"
   id="namedview42"
   showgrid="false"
   fit-margin-top="0"
   fit-margin-left="0"
   fit-margin-right="0"
   fit-margin-bottom="0"
   inkscape:zoom="1.8952344"
   inkscape:cx="22.212336"
   inkscape:cy="86.966683"
   inkscape:window-x="-8"
   inkscape:window-y="-8"
   inkscape:window-maximized="1"
   inkscape:current-layer="svg2" />
<defs
   id="defs4">
</defs>


















<path
   inkscape:connector-curvature="0"
   d="m 214.80065,254.62835 c 0,7.35875 -6.02,13.37875 -13.37875,13.37875 l -187.305001,0 c -7.3587583,0 -13.38000829,-6.02 -13.38000829,-13.37875 l 0,-240.82127 c 0,-7.35875 6.02124999,-13.37875 13.38000829,-13.37875 l 187.305001,0 c 7.35875,0 13.37875,6.02 13.37875,13.37875 l 0,240.82127"
   style="fill:#ffffff;fill-opacity:1;fill-rule:nonzero;stroke:#000000;stroke-width:1.50000012;stroke-miterlimit:4;stroke-opacity:1;stroke-dasharray:none"
   id="path12700" /><path
   inkscape:connector-curvature="0"
   d="m 205.8814,254.62835 c 0,2.4525 -2.00625,4.46 -4.46,4.46 l -187.305001,0 c -2.45251,0 -4.4600083,-2.0075 -4.4600083,-4.46 l 0,-240.82127 c 0,-2.4525 2.0074983,-4.46 4.4600083,-4.46 l 187.305001,0 c 2.45375,0 4.46,2.0075 4.46,4.46 l 0,240.82127 z m -4.46,-250.85502 -187.305001,0 c -5.5187583,0 -10.0337583,4.515 -10.0337583,10.03375 l 0,240.82127 c 0,5.51875 4.515,10.03375 10.0337583,10.03375 l 187.305001,0 c 5.51875,0 10.035,-4.515 10.035,-10.03375 l 0,-240.82127 c 0,-5.51875 -4.51625,-10.03375 -10.035,-10.03375"
   style="fill:#000000;fill-opacity:1;fill-rule:nonzero;stroke:none"
   id="path12724" /><path
   inkscape:connector-curvature="0"
   d="m 71.719399,89.620586 0,-35.680003 16.80875,0 0,5.021251 -11.68125,0 0,8.98625 7.4,0 0,4.916251 -7.4,0 0,11.735 13.05625,0 0,5.021251 -18.18375,0 z"
   style="fill:#000000;fill-opacity:1;fill-rule:nonzero;stroke:none"
   id="path12728" /><path
   inkscape:connector-curvature="0"
   d="m 112.10327,89.620586 -11.0475,-23.892502 0,23.892502 -5.127501,0 0,-35.680003 5.127501,0 9.77875,21.407502 0,-21.407502 5.1275,0 0,35.680003 -3.85875,0 z"
   style="fill:#000000;fill-opacity:1;fill-rule:nonzero;stroke:none"
   id="path12732" /><path
   inkscape:connector-curvature="0"
   d="m 137.84565,62.556824 c -0.95125,-2.485 -2.37875,-3.59375 -4.65125,-3.59375 l -4.28125,0 0,25.636251 4.28125,0 c 3.0125,0 4.70375,-2.32625 5.1275,-5.1275 0.31625,-2.22 0.475,-4.7575 0.475,-7.50625 0,-4.017501 -0.42375,-7.876251 -0.95125,-9.408751 m 0.84625,25.425002 c -1.3225,1.0575 -3.01375,1.63875 -5.0225,1.63875 l -9.885,0 0,-35.680003 9.14625,0 c 3.0125,0 4.4925,0.4225 5.76125,1.375 2.11375,1.5325 3.59375,4.281251 4.28125,7.875001 0.475,2.64375 0.84625,5.7625 0.84625,8.51125 0,8.298751 -1.6925,13.478752 -5.1275,16.280002"
   style="fill:#000000;fill-opacity:1;fill-rule:nonzero;stroke:none"
   id="path12736" /><path
   inkscape:connector-curvature="0"
   d="m 41.299399,152.37346 c -6.2375,0 -10.04375,-5.28625 -10.04375,-11.1525 l 5.0225,0 c 0,3.0125 1.5325,6.13 5.02125,6.13 2.74875,0 5.02125,-2.48375 5.02125,-5.39125 0,-4.2275 -3.6475,-5.65625 -8.88,-9.355 -3.17125,-2.2725 -4.3875,-4.75875 -4.3875,-7.93 0,-5.12625 3.965,-9.25 9.145,-9.25 4.96875,0 8.88,3.9125 8.98625,9.25 l -4.86375,0 c -0.15875,-2.48375 -1.9025,-4.1225 -4.1225,-4.1225 -2.37875,0 -4.28125,1.745 -4.28125,4.1225 0,1.7975 0.74,2.75 3.3825,4.28125 6.87125,3.96625 9.885,7.87625 9.885,13.00375 0,5.7625 -4.3875,10.41375 -9.885,10.41375"
   style="fill:#000000;fill-opacity:1;fill-rule:nonzero;stroke:none"
   id="path12740" /><path
   inkscape:connector-curvature="0"
   d="m 67.569889,152.37346 c -7.61125,0 -10.995,-6.1325 -10.995,-19.2925 0,-11.52375 3.595,-17.65625 10.625,-17.65625 5.92,0 8.98625,5.28625 9.25,10.14875 l -5.1275,0 c -0.475,-3.4875 -1.85,-5.12625 -4.22875,-5.12625 -4.1225,0 -5.655,3.22375 -5.655,12.52625 0,10.255 1.74375,14.3775 6.13125,14.3775 3.0125,0 3.7525,-2.48375 3.7525,-5.1275 l 5.1275,0 c -0.105,5.86875 -3.85875,10.15 -8.88,10.15"
   style="fill:#000000;fill-opacity:1;fill-rule:nonzero;stroke:none"
   id="path12744" /><path
   inkscape:connector-curvature="0"
   d="m 98.491769,151.73908 0,-16.175 -9.77875,0 0,16.175 -5.1275,0 0,-35.68 5.1275,0 0,14.53625 9.77875,0 0,-14.53625 5.127501,0 0,35.68 -5.127501,0 z"
   style="fill:#000000;fill-opacity:1;fill-rule:nonzero;stroke:none"
   id="path12748" /><path
   inkscape:connector-curvature="0"
   d="m 125.6609,124.93908 c -0.8975,-3.11875 -2.2725,-4.4925 -4.3875,-4.4925 -2.2725,0 -3.59375,1.37375 -4.545,4.3875 -0.79375,2.74875 -1.11,5.1275 -1.11,9.145 0,3.85875 0.31625,6.13125 1.11,8.98625 0.845,3.0125 2.2725,4.38625 4.545,4.38625 2.115,0 3.49,-1.37375 4.3875,-4.38625 0.84625,-2.855 1.11,-5.0225 1.11,-9.145 0,-3.965 -0.36875,-6.2375 -1.11,-8.88125 m 3.96375,21.3025 c -1.79625,4.22875 -4.38625,6.13125 -8.35125,6.13125 -4.28125,0 -6.765,-1.9025 -8.51,-6.13125 -1.48,-3.5425 -2.00875,-6.87125 -2.00875,-12.42125 0,-5.39125 0.47625,-8.98625 2.00875,-12.37 1.85,-4.28125 4.3875,-6.025 8.51,-6.025 4.12375,0 6.555,1.7975 8.35125,6.13125 1.48125,3.54125 2.01,6.8725 2.01,12.26375 0,5.55 -0.52875,8.98625 -2.01,12.42125"
   style="fill:#000000;fill-opacity:1;fill-rule:nonzero;stroke:none"
   id="path12752" /><path
   inkscape:connector-curvature="0"
   d="m 152.98989,124.93908 c -0.89875,-3.11875 -2.27375,-4.4925 -4.3875,-4.4925 -2.27375,0 -3.595,1.37375 -4.54625,4.3875 -0.79375,2.74875 -1.11,5.1275 -1.11,9.145 0,3.85875 0.31625,6.13125 1.11,8.98625 0.84625,3.0125 2.2725,4.38625 4.54625,4.38625 2.11375,0 3.48875,-1.37375 4.3875,-4.38625 0.845,-2.855 1.11,-5.0225 1.11,-9.145 0,-3.965 -0.37,-6.2375 -1.11,-8.88125 m 3.96375,21.3025 c -1.7975,4.22875 -4.3875,6.13125 -8.35125,6.13125 -4.28125,0 -6.76625,-1.9025 -8.51125,-6.13125 -1.48,-3.5425 -2.0075,-6.87125 -2.0075,-12.42125 0,-5.39125 0.475,-8.98625 2.0075,-12.37 1.85125,-4.28125 4.38875,-6.025 8.51125,-6.025 4.1225,0 6.55375,1.7975 8.35125,6.13125 1.48,3.54125 2.00875,6.8725 2.00875,12.26375 0,5.55 -0.52875,8.98625 -2.00875,12.42125"
   style="fill:#000000;fill-opacity:1;fill-rule:nonzero;stroke:none"
   id="path12756" /><path
   inkscape:connector-curvature="0"
   d="m 166.09877,151.73908 0,-35.68 5.1275,0 0,30.9225 13.055,0 0,4.7575 -18.1825,0 z"
   style="fill:#000000;fill-opacity:1;fill-rule:nonzero;stroke:none"
   id="path12760" /><path
   inkscape:connector-curvature="0"
   d="m 58.214019,213.85722 0,-5.49625 13.32,-25.32001 -11.8925,0 0,-4.86375 18.23625,0 0,3.12 -14.3775,27.69751 14.3775,0 0,4.8625 -19.66375,0 z"
   style="fill:#000000;fill-opacity:1;fill-rule:nonzero;stroke:none"
   id="path12764" /><path
   inkscape:connector-curvature="0"
   d="m 98.174899,187.05833 c -0.89875,-3.11875 -2.2725,-4.4925 -4.3875,-4.4925 -2.2725,0 -3.59375,1.37375 -4.54625,4.3875 -0.7925,2.7475 -1.11,5.12625 -1.11,9.14376 0,3.85875 0.3175,6.13125 1.11,8.98625 0.84625,3.0125 2.27375,4.3875 4.54625,4.3875 2.115,0 3.48875,-1.375 4.3875,-4.3875 0.84625,-2.855 1.11,-5.02125 1.11,-9.145 0,-3.96501 -0.37,-6.23751 -1.11,-8.88001 m 3.965001,21.30251 c -1.79751,4.2275 -4.387501,6.13 -8.352501,6.13 -4.28125,0 -6.76625,-1.9025 -8.51,-6.13 -1.48,-3.5425 -2.00875,-6.87125 -2.00875,-12.4225 0,-5.39126 0.47625,-8.98501 2.00875,-12.36876 1.85,-4.2825 4.3875,-6.02625 8.51,-6.02625 4.12375,0 6.554991,1.7975 8.352501,6.13125 1.48,3.5425 2.00875,6.8725 2.00875,12.26376 0,5.55125 -0.52875,8.98625 -2.00875,12.4225"
   style="fill:#000000;fill-opacity:1;fill-rule:nonzero;stroke:none"
   id="path12768" /><path
   inkscape:connector-curvature="0"
   d="m 127.4584,213.85722 -11.0475,-23.89126 0,23.89126 -5.12625,0 0,-35.68001 5.12625,0 9.77875,21.40876 0,-21.40876 5.1275,0 0,35.68001 -3.85875,0 z"
   style="fill:#000000;fill-opacity:1;fill-rule:nonzero;stroke:none"
   id="path12772" /><path
   inkscape:connector-curvature="0"
   d="m 139.14014,213.85722 0,-35.68001 16.80875,0 0,5.0225 -11.68125,0 0,8.98625 7.4,0 0,4.91501 -7.4,0 0,11.735 13.05625,0 0,5.02125 -18.18375,0 z"
   style="fill:#000000;fill-opacity:1;fill-rule:nonzero;stroke:none"
   id="path12776" /></svg>