<?xml version="1.0" encoding="UTF-8" standalone="no"?>
<svg
   xmlns:dc="http://purl.org/dc/elements/1.1/"
   xmlns:cc="http://creativecommons.org/ns#"
   xmlns:rdf="http://www.w3.org/1999/02/22-rdf-syntax-ns#"
   xmlns:svg="http://www.w3.org/2000/svg"
   xmlns="http://www.w3.org/2000/svg"
   xmlns:sodipodi="http://sodipodi.sourceforge.net/DTD/sodipodi-0.dtd"
   xmlns:inkscape="http://www.inkscape.org/namespaces/inkscape"
   width="197.99336"
   height="197.99336"
   viewBox="0 0 558.78123 558.78127"
   version="1.1"
   id="svg2"
   inkscape:version="0.48.2 r9819"
   sodipodi:docname="MUTCD EM-7d.svg">
  <metadata
     id="metadata62">
    <rdf:RDF>
      <cc:Work
         rdf:about="">
        <dc:format>image/svg+xml</dc:format>
        <dc:type
           rdf:resource="http://purl.org/dc/dcmitype/StillImage" />
        <dc:title></dc:title>
      </cc:Work>
    </rdf:RDF>
  </metadata>
  <defs
     id="defs60">
    <clipPath
       clipPathUnits="userSpaceOnUse"
       id="clipPath3564">
      <path
         inkscape:connector-curvature="0"
         d="m 63,43 512.622,0 0,313.129 L 63,356.129 63,43 z"
         id="path3566" />
    </clipPath>
  </defs>
  <sodipodi:namedview
     pagecolor="#ffffff"
     bordercolor="#666666"
     borderopacity="1"
     objecttolerance="10"
     gridtolerance="10"
     guidetolerance="10"
     inkscape:pageopacity="0"
     inkscape:pageshadow="2"
     inkscape:window-width="1280"
     inkscape:window-height="1004"
     id="namedview58"
     showgrid="false"
     fit-margin-top="0"
     fit-margin-left="0"
     fit-margin-right="0"
     fit-margin-bottom="0"
     inkscape:zoom="1.7262935"
     inkscape:cx="106.60534"
     inkscape:cy="49.642898"
     inkscape:window-x="-8"
     inkscape:window-y="-8"
     inkscape:window-maximized="1"
     inkscape:current-layer="svg2"
     showguides="true"
     inkscape:guide-bbox="true" />
  <polygon
     points="395,375 315,545 235,375 315,205 "
     id="polygon10"
     style="fill:none;stroke:#ffffff;stroke-width:40"
     transform="translate(23754.879,13356.738)" />
  <!-- draw the bicycle -->
  <!-- RIGHT -->
  <!-- LANE -->
  <!-- ONLY -->
  <path
     d="m 557.09967,522.36735 c 0,19.1689 -15.5337,34.7122 -34.7121,34.7122 l -485.960096,0 c -19.1785,0 -34.7218001,-15.5433 -34.7218001,-34.7122 l 0,-485.9697 c 0,-19.1688 15.5433001,-34.7121 34.7218001,-34.7121 l 485.960096,0 c 19.1784,0 34.7121,15.5433 34.7121,34.7121 l 0,485.9697 z"
     style="fill:#ffffff;fill-opacity:1;fill-rule:nonzero;stroke:#000000;stroke-width:3.38666668;stroke-miterlimit:4;stroke-opacity:1;stroke-dasharray:none"
     id="path4140"
     inkscape:connector-curvature="0" />
  <path
     d="m 279.40457,47.96835 c 127.4707,0 231.4142,103.9532 231.4142,231.4142 0,127.4706 -103.9435,231.4142 -231.4142,231.4142 -127.461,0 -231.414096,-103.9436 -231.414096,-231.4142 0,-127.461 103.953096,-231.4142 231.414096,-231.4142"
     style="fill:#155196;fill-opacity:1;fill-rule:evenodd;stroke:none"
     id="path4168"
     inkscape:connector-curvature="0" />
  <path
     d="m 443.26597,400.14215 0,-41.6353 -6.5761,0 0,26.5934 -15.1865,-26.5934 -6.576,0 0,41.6353 6.576,0 0,-28.1939 15.9194,28.1939 5.8432,0 z m -43.9591,-20.7501 c 0,3.2205 -0.7424,7.3088 -1.6102,9.4976 -1.4657,3.6544 -3.3555,5.2647 -6.4314,5.2647 -2.6324,0 -4.3873,-1.0318 -5.6986,-3.2206 -1.6103,-2.6226 -2.4781,-7.1545 -2.4781,-11.5417 0,-3.5002 0.5689,-7.2992 1.6007,-9.7773 1.4656,-3.6544 3.5001,-5.255 6.7206,-5.12 2.4781,0.1543 4.098,1.0221 5.4093,3.2205 1.6006,2.7673 2.4877,7.0099 2.4877,11.6768 m 6.5567,0 c 0,-5.2551 -1.0124,-10.5197 -2.7673,-14.1645 -2.6227,-5.1104 -6.2771,-7.4535 -11.5418,-7.4535 -4.8211,0 -8.1766,1.4657 -10.6643,4.6669 -2.7673,3.9629 -4.5222,10.0858 -4.5222,16.9511 0,4.9754 1.1667,10.5293 2.9119,14.0198 2.4877,5.1297 6.1422,7.4824 11.9854,7.4824 4.3872,0 7.7427,-1.4849 10.0665,-4.6958 2.9312,-3.6544 4.5318,-10.2304 4.5318,-16.8064 m -38.4051,-20.8852 -6.7206,0 0,41.6353 6.7206,0 0,-41.6353 z m -12.8627,5.8529 0,-5.8529 -25.7063,0 0,5.8529 9.4976,0 0,35.7824 6.5761,0 0,-35.7824 9.6326,0 z m -41.7799,17.3753 -8.3213,0 4.2329,-11.6864 4.0884,11.6864 z m 13.4413,18.4071 -14.3091,-41.6353 -6.5761,0 -14.3091,41.6353 7.0003,0 4.0883,-11.6864 13.0074,0 4.0884,11.6864 7.0099,0 z m -41.3364,-14.8973 0,-26.738 -6.576,0 0,26.738 c 0,5.3997 -3.0566,8.9095 -7.5981,8.9095 -4.5126,0 -7.5885,-3.5098 -7.5885,-8.9095 l 0,-26.738 -6.576,0 0,26.738 c 0,3.2109 0.7328,6.1325 1.8995,8.6105 2.1985,4.0884 7.1546,7.0389 12.265,7.0389 5.12,0 10.0762,-2.9505 12.2746,-7.0389 1.1667,-2.478 1.8995,-5.3996 1.8995,-8.6105 m -37.3927,6.4314 -6.2867,-2.3431 c -1.6103,3.3555 -3.6448,4.8212 -6.4314,4.8212 -2.912,0 -4.8115,-1.0318 -6.2675,-3.2206 -1.6102,-2.6226 -2.6323,-7.1545 -2.6323,-11.6767 0,-3.5098 0.5882,-7.1642 1.6006,-9.6423 1.456,-3.6544 3.6544,-5.12 7.0196,-5.12 3.2109,0 4.5222,0.8774 6.8653,4.3776 l 6.1324,-2.6227 c -2.7769,-5.8432 -6.7206,-8.4756 -12.9977,-8.4756 -4.6862,0 -8.1863,1.6103 -10.674,4.6669 -2.9216,3.664 -4.6669,10.24 -4.6669,16.8161 0,5.255 1.1668,10.51 3.0663,14.1548 2.6323,5.1297 6.576,7.4824 12.6988,7.4824 5.9975,0 10.0858,-3.0952 12.5735,-9.218 m -47.1795,-9.9412 -8.3309,0 4.2329,-11.6864 4.098,11.6864 z m 13.4316,18.4071 -14.3091,-41.6353 -6.5856,0 -14.3091,41.6353 7.0099,0 4.0979,-11.6864 12.9978,0 4.098,11.6864 7.0002,0 z m -37.6819,-41.6353 -7.0196,0 -8.7551,27.7504 -8.9095,-27.7504 -6.8653,0 13.1424,41.6353 5.1104,0 13.2967,-41.6353 z m -34.77,41.6353 0,-6.7303 -19.2845,0 0,-11.3779 12.1203,0 0,-6.7303 -12.1203,0 0,-10.2208 17.9732,0 0,-6.576 -24.5396,0 0,41.6353 25.8509,0 z"
     style="fill:#ffffff;fill-opacity:1;fill-rule:evenodd;stroke:none"
     id="path4172"
     inkscape:connector-curvature="0" />
  <path
     d="m 361.74067,469.28675 0,-6.7206 -19.2749,0 0,-11.3875 12.1203,0 0,-6.7207 -12.1203,0 0,-10.2304 17.9636,0 0,-6.5664 -24.5396,0 0,41.6256 25.8509,0 z m -31.9737,-35.7824 0,-5.8432 -25.7256,0 0,5.8432 9.4977,0 0,35.7824 6.576,0 0,-35.7824 9.6519,0 z m -31.858,20.8851 0,-26.7283 -6.5664,0 0,26.7283 c 0,5.4094 -3.0662,8.9095 -7.5981,8.9095 -4.5319,0 -7.6077,-3.5001 -7.6077,-8.9095 l 0,-26.7283 -6.5664,0 0,26.7283 c 0,3.2109 0.7424,6.1325 1.8995,8.6106 2.1888,4.0979 7.1642,7.0485 12.2746,7.0485 5.1007,0 10.0665,-2.9506 12.2746,-7.0485 1.1571,-2.4781 1.8899,-5.3997 1.8899,-8.6106 m -43.9687,-5.8528 c 0,3.2205 -0.7328,7.3088 -1.6103,9.4976 -1.456,3.6544 -3.3555,5.2647 -6.4314,5.2647 -2.6227,0 -4.3776,-1.0221 -5.6793,-3.2109 -1.6102,-2.6323 -2.4877,-7.1642 -2.4877,-11.5514 0,-3.4905 0.5786,-7.2992 1.6103,-9.7869 1.456,-3.6448 3.5001,-5.2454 6.711,-5.1104 2.4877,0.1544 4.0883,1.0317 5.3997,3.2205 1.6102,2.7674 2.4877,7.0099 2.4877,11.6768 m 6.576,0 c 0,-5.255 -1.0221,-10.5101 -2.777,-14.1645 -2.6323,-5.1104 -6.2867,-7.4438 -11.5321,-7.4438 -4.8308,0 -8.1959,1.456 -10.6643,4.6669 -2.7867,3.9436 -4.5416,10.0857 -4.5416,16.9414 0,4.9754 1.1764,10.5293 2.9217,14.0295 2.4877,5.1104 6.1421,7.4824 11.9756,7.4824 4.3873,0 7.7524,-1.4946 10.0858,-4.7054 2.9313,-3.6545 4.5319,-10.2208 4.5319,-16.8065 m -42.9466,-9.1891 c 0,1.7549 -1.0317,3.5002 -2.6324,4.3776 -1.022,0.5882 -1.7548,0.7328 -3.7894,0.7328 l -7.897,0 0,-10.2304 7.897,0 c 2.1792,0 2.7674,0.1445 3.7894,0.7328 1.6007,0.8775 2.6324,2.6227 2.6324,4.3872 m 7.4438,29.9392 -7.2992,-19.4291 c 3.7991,-1.7549 6.4314,-6.1325 6.4314,-10.5101 0,-4.2426 -2.6323,-8.6201 -6.2868,-10.375 -2.0441,-1.0318 -4.2329,-1.3114 -7.4438,-1.3114 l -13.7305,0 0,41.6256 6.5663,0 0,-18.1081 7.897,0 6.711,18.1081 7.1546,0 z"
     style="fill:#ffffff;fill-opacity:1;fill-rule:evenodd;stroke:none"
     id="path4176"
     inkscape:connector-curvature="0" />
  <path
     d="m 219.48857,159.68355 59.9266,-88.5931 60.0327,88.5931 c 2.6516,3.9051 1.6295,9.2566 -2.2659,11.9082 -2.6034,1.7742 -5.3226,1.456 -8.5238,0.646 l -26.0148,-7.8295 -0.1061,91.8136 -46.4371,0 0.1253,-91.8136 -25.5905,7.6463 c -3.5387,0.9835 -6.1518,1.3981 -8.8902,-0.4628 -3.8955,-2.6516 -4.9079,-8.0031 -2.2563,-11.9082"
     style="fill:#ffffff;fill-opacity:1;fill-rule:evenodd;stroke:none"
     id="path4180"
     inkscape:connector-curvature="0" />
  <path
     d="m 429.83917,330.98785 0,-6.7303 -19.2845,0 0,-11.3875 12.13,0 0,-6.711 -12.13,0 0,-10.24 17.9732,0 0,-6.5664 -24.5492,0 0,41.6352 25.8605,0 z m -35.6377,0 0,-41.6352 -6.5761,0 0,26.5837 -15.1865,-26.5837 -6.576,0 0,41.6352 6.576,0 0,-28.1939 15.9097,28.1939 5.8529,0 z m -48.0667,-18.407 -8.3213,0 4.233,-11.6864 4.0883,11.6864 z m 13.4413,18.407 -14.3091,-41.6352 -6.576,0 -14.3188,41.6352 7.0099,0 4.098,-11.6864 12.9978,0 4.0883,11.6864 7.0099,0 z m -40.6132,-8.4659 -6.2675,-2.343 c -1.6102,3.3555 -3.6544,4.8211 -6.4313,4.8211 -2.9216,0 -4.8212,-1.0221 -6.2868,-3.2109 -1.6006,-2.6323 -2.6227,-7.1642 -2.6227,-11.6864 0,-3.5194 0.5786,-7.1546 1.6103,-9.6423 1.4463,-3.6544 3.6544,-5.12 7.0003,-5.12 3.2108,0 4.5318,0.8775 6.8653,4.3872 l 6.1324,-2.6323 c -2.7673,-5.8336 -6.711,-8.4755 -12.9977,-8.4755 -4.6765,0 -8.1767,1.6102 -10.6547,4.6765 -2.9313,3.6544 -4.6862,10.2208 -4.6862,16.8064 0,5.2647 1.1764,10.5197 3.0759,14.1548 2.6323,5.1297 6.576,7.4824 12.7085,7.4824 5.9878,0 10.0762,-3.0855 12.5542,-9.218 m -37.2384,-33.1693 -6.711,0 0,41.6352 6.711,0 0,-41.6352 z m -21.0394,11.6864 c 0,1.7549 -1.0221,3.5194 -2.6227,4.3776 -1.0317,0.5882 -1.7549,0.7424 -3.799,0.7424 l -7.8874,0 0,-10.24 7.8874,0 c 2.1791,0 2.7673,0.1639 3.799,0.7327 1.6006,0.8775 2.6227,2.6324 2.6227,4.3873 m 7.4438,29.9488 -7.2895,-19.4291 c 3.7894,-1.7549 6.4217,-6.1421 6.4217,-10.5197 0,-4.233 -2.6323,-8.6105 -6.2867,-10.3751 -2.0442,-1.0124 -4.233,-1.3113 -7.4438,-1.3113 l -13.7306,0 0,41.6352 6.576,0 0,-18.1178 7.8874,0 6.711,18.1178 7.1545,0 z m -42.6477,-29.9488 c 0,1.7549 -1.022,3.5194 -2.6323,4.3776 -1.0124,0.5882 -1.7356,0.7424 -3.7894,0.7424 l -7.897,0 0,-10.24 7.897,0 c 2.1888,0 2.777,0.1639 3.7894,0.7327 1.6103,0.8775 2.6323,2.6324 2.6323,4.3873 m 7.4535,29.9488 -7.3088,-19.4291 c 3.8087,-1.7549 6.4314,-6.1421 6.4314,-10.5197 0,-4.233 -2.6227,-8.6105 -6.2771,-10.3751 -2.0442,-1.0124 -4.2426,-1.3113 -7.4632,-1.3113 l -13.7209,0 0,41.6352 6.5664,0 0,-18.1178 7.897,0 6.7207,18.1178 7.1545,0 z m -38.1255,-14.8973 0,-26.7379 -6.5856,0 0,26.7379 c 0,5.3997 -3.0566,8.9095 -7.5885,8.9095 -4.5222,0 -7.5981,-3.5098 -7.5981,-8.9095 l 0,-26.7379 -6.576,0 0,26.7379 c 0,3.2109 0.7424,6.1325 1.9092,8.6106 2.1887,4.0883 7.1545,7.0388 12.2649,7.0388 5.1104,0 10.0858,-2.9505 12.2746,-7.0388 1.1667,-2.4781 1.8995,-5.3997 1.8995,-8.6106 m -38.1255,14.8973 0,-41.6352 -6.576,0 0,16.8064 -15.1865,0 0,-16.8064 -6.5857,0 0,41.6352 6.5857,0 0,-18.1178 15.1865,0 0,18.1178 6.576,0 z"
     style="fill:#ffffff;fill-opacity:1;fill-rule:evenodd;stroke:none"
     id="path4184"
     inkscape:connector-curvature="0" />
</svg>
