<?xml version="1.0" encoding="UTF-8" standalone="no"?>
<svg xmlns="http://www.w3.org/2000/svg" width="197.99336" height="197.99336" viewBox="0 0 558.78123 558.78127">
  <path fill="none" stroke="#fff" stroke-width="40" d="m24149.879 13731.738-80 170-80-170 80-170z"/>
  <path fill="#fff" stroke="#000" stroke-width="3.38666668" d="M557.09967 522.36735c0 19.1689-15.5337 34.7122-34.7121 34.7122H36.427474c-19.1785 0-34.7218001-15.5433-34.7218001-34.7122V36.39765c0-19.1688 15.5433001-34.7121 34.7218001-34.7121H522.38757c19.1784 0 34.7121 15.5433 34.7121 34.7121v485.9697z"/>
  <path fill="#155196" fill-rule="evenodd" d="M24.888135 295.26562C33.92293 427.72131 145.29099 533.89221 279.41479 533.89221c134.13345 0 245.5208-106.1709 254.54596-238.62659H24.888135zm509.073545-31.85803C524.9269 130.9519 413.54917 24.781009 279.42538 24.781009c-97.83034 0-183.559646 56.474699-226.29413 138.443531 9.815819-1.97666 18.908469-3.29765 27.856482-8.01272 9.883313-5.21646 18.358858-12.04318 26.390858-19.82448 7.22205-7.00028 12.92062-15.39868 20.46087-22.10005 7.83915-6.981 15.43725-14.077699 23.98029-20.20053 31.6266-22.688231 74.19717-42.078812 113.634-30.739518 19.79555 5.698575 34.28787 13.267747 49.21409 27.673278 14.31874 13.83664 21.83971 29.4571 27.80826 48.18236-13.43166-13.80771-30.30561-26.96939-50.21688-28.83035-19.95947-1.86096-38.99329-.26035-56.02151 11.07895-17.72247 11.79249-27.84684 29.32211-28.50251 50.73756-.70389 22.56289 11.54178 40.43963 29.66922 52.27068 20.96227 13.68236 46.21534 7.21241 66.64729-3.08552 20.57657-10.36543 50.87254-6.76887 62.36612 15.78437-13.33525-5.36109-29.78494-2.96981-37.92299 9.48798-2.92162 4.46437-4.08833 15.33119 1.83202 18.0021 6.61458 2.9891 14.47303 2.77697 21.09727-.15426 13.95233-6.17105 25.87015-16.29542 39.14755-23.7971 13.91378-7.85844 29.43781-3.69298 41.076 6.18069-11.24286 1.6199-21.48292 4.64757-22.91963 17.67426-1.61025 14.77194 11.79249 15.3119 22.01328 10.28829 9.99902-4.91756 19.68948-14.55017 29.30282-20.15232 9.65189-5.62144 19.40986-4.07868 30.24776-2.02487-6.82673 3.71227-18.55171 10.44256-17.09573 20.02696 1.92846 12.65064 13.47987 13.40274 23.67173 12.9592 8.00309-.33748 19.47737-4.69578 26.87298-8.3502 2.27558-1.12814 9.85438-4.12688 10.07615-7.25098.15437-1.93809.26049-3.76047.14478-5.64072"/>
  <path fill="#fff" d="M485.94326 386.95383h-8.32127l-20.51871-46.31177-.11571 46.31177h-9.98937v-71.36235h9.98937l18.97597 43.19733v-43.19733h9.97972v71.36235zm-53.26383-35.51242c0-6.46032-.44354-11.58037-1.44633-15.59154-1.65848-7.23169-4.6572-10.79932-9.09264-10.79932-3.33623 0-5.88179 2.23701-7.77166 6.91349-1.88025 4.67651-2.76733 11.12718-2.76733 19.69914 0 6.46032.44354 11.58034 1.44633 15.58188 1.65848 7.35706 4.6572 10.91503 9.09266 10.91503 3.32656 0 5.87212-2.22735 7.77164-6.90386 1.88025-4.67648 2.76733-11.12715 2.76733-19.70876v-.10612zm9.65192-.11571c0 12.46745-1.65848 21.49257-5.10078 27.50935-3.44226 6.00713-8.42732 9.01551-15.31188 9.01551-6.66281 0-11.64784-3.00838-15.1962-9.13122-3.558-6.12284-5.33219-15.14796-5.33219-27.39364 0-9.34334.89673-16.58468 2.77698-22.14827 3.33624-9.69046 9.20835-14.36697 17.85747-14.36697 8.77446 0 14.64657 4.67651 17.8671 14.25126 1.88024 5.57324 2.77698 12.92064 2.77698 22.37969l-.33748-.11571zm-46.83247 35.62813h-9.98937v-71.36235h9.98937v71.36235zm-14.98405-61.34402h-12.76635v61.34402h-9.98937v-61.34402h-12.75673v-10.01833h35.51245v10.01833zm-52.94565 32.39798-5.10074-20.48016-5.10075 20.48016h10.20158zm17.21143 28.94604h-10.21113l-4.55115-18.92775H315.0439l-4.55114 18.92775h-10.21115l17.20179-71.36235h9.98937l17.19213 71.36235h.11571zm-48.94409-18.70598c-.55925 4.45474-1.33063 7.68489-2.33342 9.91224-3.32658 6.56638-8.97694 9.79653-17.19215 9.79653-8.09949 0-13.65343-3.23015-16.98001-9.79653-.99315-2.22735-1.77418-5.4575-2.32379-9.91224v-52.65637h9.97974v52.65637c.23142 2.22736.55925 3.7894 1.1185 4.79222 1.55241 3.23015 4.31973 4.79219 8.32127 4.79219 3.99189 0 6.75922-1.56204 8.42733-4.79219.54961-1.00282.99316-2.56486 1.33064-4.79222v-52.65637h9.98937v52.65637h-.33748zm-43.61193 0c-.89673 4.45474-1.88988 7.68489-2.99874 9.79653-3.44228 6.57603-8.54304 9.80618-15.64938 9.80618-8.6491 0-14.42482-4.79219-17.63569-14.6948-1.77417-5.4575-2.66126-12.58314-2.66126-21.83006 0-9.45905.88709-16.69074 2.66126-22.04221 3.21087-9.68081 9.10229-14.35732 17.8671-14.35732 6.75923 0 11.76356 2.89269 15.31191 8.79374 1.10886 1.8899 2.20807 4.79221 3.21087 8.79376h-10.65469c-.54961-1.66813-1.10886-2.8927-1.65847-3.67372-1.65847-2.67089-3.77012-3.89545-6.44103-3.89545-4.31973 0-7.31847 3.56762-8.97694 10.79931-1.0028 4.11723-1.44634 9.23728-1.44634 15.6976 0 6.56638.44354 11.69605 1.33063 15.58188 1.66811 7.35706 4.65721 10.91503 8.98659 10.91503 2.89267 0 5.10075-1.56204 6.76886-4.78256.54961-1.0028 1.10886-2.56484 1.66811-4.67648h10.42328l-.10606-.23143zm-58.59599-10.24006-5.10075-20.48016-5.1104 20.48016h10.21115zm17.20179 28.94604h-10.21115l-4.54151-18.92775h-14.98407l-4.55114 18.92775h-10.20151l17.19215-71.36235h9.97973l17.20179 71.36235h.11571zm-46.94816-71.36235-17.08607 71.36235h-9.98938l-17.19214-71.36235h10.31721l11.87926 48.98269 11.85997-48.98269h10.21115zm-48.38484 71.36235H79.994604v-71.36235h34.953176v10.01833H89.983981v18.59991h15.311899v10.01829H89.983981v22.70752h25.513409v10.0183zm271.85379 98.65955h-35.51241v-71.36234h34.95316v10.01832h-24.9638v18.59991h15.31191v10.0183h-15.31191v22.70752h25.52305v10.01829zm-43.25515-61.34402h-12.7567v61.34402h-9.97975v-61.34402h-12.76635v-10.01832h35.5028v10.01832zm-42.24273 42.63805c-.55926 4.45474-1.33063 7.68488-2.33343 9.91224-3.32658 6.56638-8.97694 9.79652-17.20179 9.79652-8.09949 0-13.64379-3.23014-16.97037-9.79652-.99315-2.22736-1.77418-5.4575-2.33342-9.91224v-52.65637h9.98937v52.65637c.22177 2.22735.55925 3.7894 1.11851 4.79222 1.54275 3.23014 4.31973 4.78254 8.31162 4.78254 3.9919 0 6.76886-1.5524 8.43697-4.78254.54961-1.00282.99316-2.56487 1.33064-4.79222v-52.65637h9.98937v52.65637h-.33747zm-56.01188-16.80645c0-6.46032-.44354-11.58036-1.43669-15.59153-1.65847-7.23169-4.66686-10.7897-9.10229-10.7897-3.32658 0-5.88178 2.22739-7.77166 6.90386-1.88024 4.66686-2.76733 11.12718-2.76733 19.69914 0 6.46032.44354 11.58034 1.44634 15.59154 1.65847 7.33775 4.65721 10.90538 9.09265 10.90538 3.32658 0 5.88177-2.22736 7.77166-6.90386 1.88024-4.67648 2.76732-11.12715 2.76732-19.70877v-.10611zm9.6519-.11571c0 12.46745-1.65846 21.49258-5.09111 27.49971-3.45193 6.01678-8.43697 9.02515-15.32154 9.02515-6.65316 0-11.64785-3.00837-15.1962-9.13121-3.558-6.13246-5.32253-15.13834-5.32253-27.39365 0-9.34333.88709-16.58467 2.76733-22.14826 3.33622-9.69047 9.20835-14.36697 17.85746-14.36697 8.77445 0 14.65623 4.6765 17.8671 14.25126 1.88988 5.56359 2.77697 12.92064 2.77697 22.37968l-.33748-.11571zm-57.7764-16.3629c0-4.11726-1.22457-6.78815-3.66406-8.3502-.77138-.44354-1.99595-.78102-3.66406-1.00279h-11.64784v18.59991h11.64784c.99316-.11571 1.78382-.22182 2.33343-.33748 3.44229-1.22456 5.10075-4.11725 5.10075-8.90944h-.10606zm9.97974 51.99103h-10.42328l-9.32407-32.72581h-9.20835v32.72581h-9.97974v-71.36234h21.18404c6.10355 0 10.43292 1.44636 13.09418 4.34867 3.10481 3.33621 4.65722 8.23449 4.65722 15.02264 0 5.90107-1.55241 10.47149-4.87899 13.91378-.99315 1.1185-2.66126 2.22735-4.99469 3.45191l9.87368 34.62534z"/>
  <path fill="#155196" d="M72.251865 255.25024H60.671517l-8.822666 34.20109h-8.523756l8.822665-34.20109H40.567409l2.198435-8.55268h31.751952l-2.198435 8.55268h-.06751zm34.981145-1.53312-8.138066 5.20682c-.935299-1.26313-2.14058-2.26593-3.692985-3.00838-1.533119-.73281-3.355504-1.12815-5.631079-1.12815-1.388482 0-2.574482.2025-3.625489.66532-1.051004.46283-1.668108 1.07029-1.860953 1.8031-.202495.80031.18319 1.60062 1.176356 2.40092 1.205281 1.0028 3.104805 1.8706 5.833564 2.67091 4.715064 1.34027 7.925935 3.34586 9.815822 6.08426 1.69703 2.46842 2.14058 5.13933 1.35955 8.14771-.93529 3.60621-3.249437 6.68208-7.087056 9.42049-3.837618 2.7384-7.983787 4.06903-12.631355 4.06903-4.39687 0-7.704164-.85816-10.047232-2.60341-1.504194-1.12815-3.374791-3.47121-5.611794-7.14491l8.253772-4.40651c1.137787 1.8031 2.208076 3.07588 3.326579 3.87618 1.571687 1.12815 3.635129 1.66811 6.296394 1.66811 2.333425 0 4.319731-.47247 6.084263-1.40777 1.774176-.93529 2.796255-2.06344 3.143377-3.40371.318194-1.20529-.01919-2.26593-1.002795-3.33622-1.099219-1.13779-2.863751-2.07309-5.399665-2.8059-4.888625-1.40777-8.253772-3.33622-10.201506-5.88178-1.745251-2.27557-2.237006-4.74399-1.523478-7.48239.752097-2.94089 2.670906-5.4768 5.766071-7.67524 3.095162-2.20807 6.373532-3.27836 9.960449-3.27836 3.866546 0 7.009923.73281 9.622976 2.20807 1.97666 1.12815 3.8569 2.8734 5.74678 5.34181h.0675zm35.64067 18.30101c-1.29206 5.00433-3.96297 9.1505-8.20556 12.68921-4.23295 3.53871-8.74553 5.28396-13.67272 5.28396-4.92719 0-8.53339-1.74525-10.9536-5.28396-2.41057-3.53871-2.94089-7.68488-1.64883-12.68921l6.52781-25.32057h8.51411l-6.51816 25.32057c-.70389 2.6709-.46283 4.87898.73281 6.68208 1.19564 1.8031 3.03731 2.67091 5.64072 2.67091 2.58412 0 4.87898-.86781 7.00028-2.67091 2.14058-1.8031 3.50978-4.01118 4.19438-6.68208l6.52781-25.32057h8.51411l-6.51817 25.32057h-.13499zm35.61657 17.43321h-8.65875l-10.29793-27.18153-7.00992 27.18153h-8.52375l11.03074-42.75377h8.85159l10.20151 27.05617 6.97135-27.05617h8.52375l-11.03074 42.75377h-.0579zm25.76411-18.36851 8.16699-12.29388 1.83203 12.29388h-9.99902zm15.54332-24.38527h-8.51412l-28.39644 42.75377h9.17943l6.5278-9.82546h16.90288l1.46562 9.82546h9.18908l-6.35425-42.75377zm50.55435 42.75378h-8.52376l5.95892-23.11249-16.9993 23.11249h-.67496l-5.09111-23.11249-5.95891 23.11249h-8.52376l11.03074-42.75377h8.51412l5.25503 23.78745 17.51998-23.78745h8.51411l-11.0211 42.75377zm14.31876 0h-8.52376l11.03074-42.75377h8.52376l-11.03074 42.75377z"/>
</svg>