<?xml version="1.0" encoding="UTF-8" standalone="no"?>
<svg
   xmlns:dc="http://purl.org/dc/elements/1.1/"
   xmlns:cc="http://creativecommons.org/ns#"
   xmlns:rdf="http://www.w3.org/1999/02/22-rdf-syntax-ns#"
   xmlns:svg="http://www.w3.org/2000/svg"
   xmlns="http://www.w3.org/2000/svg"
   xmlns:sodipodi="http://sodipodi.sourceforge.net/DTD/sodipodi-0.dtd"
   xmlns:inkscape="http://www.inkscape.org/namespaces/inkscape"
   width="245.45761"
   height="196.66504"
   viewBox="0 0 692.73588 555.03245"
   version="1.1"
   id="svg2"
   inkscape:version="0.48.2 r9819"
   sodipodi:docname="MUTCD EM-2.svg">
  <metadata
     id="metadata62">
    <rdf:RDF>
      <cc:Work
         rdf:about="">
        <dc:format>image/svg+xml</dc:format>
        <dc:type
           rdf:resource="http://purl.org/dc/dcmitype/StillImage" />
        <dc:title></dc:title>
      </cc:Work>
    </rdf:RDF>
  </metadata>
  <defs
     id="defs60">
    <clipPath
       clipPathUnits="userSpaceOnUse"
       id="clipPath3564">
      <path
         inkscape:connector-curvature="0"
         d="m 63,43 512.622,0 0,313.129 L 63,356.129 63,43 z"
         id="path3566" />
    </clipPath>
  </defs>
  <sodipodi:namedview
     pagecolor="#ffffff"
     bordercolor="#666666"
     borderopacity="1"
     objecttolerance="10"
     gridtolerance="10"
     guidetolerance="10"
     inkscape:pageopacity="0"
     inkscape:pageshadow="2"
     inkscape:window-width="1280"
     inkscape:window-height="1004"
     id="namedview58"
     showgrid="false"
     fit-margin-top="0"
     fit-margin-left="0"
     fit-margin-right="0"
     fit-margin-bottom="0"
     inkscape:zoom="2.4413477"
     inkscape:cx="121.49935"
     inkscape:cy="94.642671"
     inkscape:window-x="-8"
     inkscape:window-y="-8"
     inkscape:window-maximized="1"
     inkscape:current-layer="svg2"
     showguides="true"
     inkscape:guide-bbox="true" />
  <polygon
     points="235,375 315,205 395,375 315,545 "
     id="polygon10"
     style="fill:none;stroke:#ffffff;stroke-width:40"
     transform="translate(22507.22,13670.941)" />
  <!-- draw the bicycle -->
  <!-- RIGHT -->
  <!-- LANE -->
  <!-- ONLY -->
  <g
     id="g3710"
     transform="matrix(9.6422572,0,0,-9.6422572,47.60862,1.8079232)"
     style="stroke:none">
    <path
       d="m 0,0 61.971,0 c 2.625,0 4.766,-2.142 4.766,-4.767 l 0,-47.669 c 0,-2.625 -2.141,-4.766 -4.766,-4.766 l -61.971,0 c -2.626,0 -4.766,2.141 -4.766,4.766 l 0,47.669 C -4.766,-2.142 -2.626,0 0,0 z"
       style="fill:#ffffff;stroke:#000000;stroke-width:0.35123173;stroke-miterlimit:4;stroke-opacity:1;stroke-dasharray:none"
       id="path3712"
       inkscape:connector-curvature="0" />
  </g>
  <g
     id="g3714"
     transform="matrix(9.6422572,0,0,-9.6422572,50.25062,13.761429)"
     style="stroke:none">
    <path
       d="m 0,0 61.422,0 c 2.093,0 3.802,-1.704 3.802,-3.793 l 0,-47.138 c 0,-2.088 -1.709,-3.793 -3.802,-3.793 l -61.422,0 c -2.094,0 -3.802,1.705 -3.802,3.793 l 0,47.138 C -3.802,-1.704 -2.094,0 0,0"
       style="fill:#000000;fill-opacity:1;fill-rule:evenodd;stroke:none"
       id="path3716"
       inkscape:connector-curvature="0" />
  </g>
  <g
     id="g3718"
     transform="matrix(9.6422572,0,0,-9.6422572,50.25062,13.761429)"
     style="stroke:none">
    <path
       d="m 0,0 61.422,0 c 2.093,0 3.802,-1.704 3.802,-3.793 l 0,-47.138 c 0,-2.088 -1.709,-3.793 -3.802,-3.793 l -61.422,0 c -2.094,0 -3.802,1.705 -3.802,3.793 l 0,47.138 C -3.802,-1.704 -2.094,0 0,0 z"
       style="fill:none;stroke:none"
       id="path3720"
       inkscape:connector-curvature="0" />
  </g>
  <g
     id="g3722"
     transform="matrix(9.6422572,0,0,-9.6422572,50.64592,32.13957)"
     style="stroke:none">
    <path
       d="m 0,0 61.342,0 c 1.064,0 1.935,-0.867 1.935,-1.931 l 0,-47.049 c 0,-1.064 -0.871,-1.931 -1.935,-1.931 l -61.342,0 c -1.066,0 -1.936,0.867 -1.936,1.931 l 0,47.049 C -1.936,-0.867 -1.066,0 0,0"
       style="fill:#ffffff;fill-opacity:1;fill-rule:evenodd;stroke:none"
       id="path3724"
       inkscape:connector-curvature="0" />
  </g>
  <g
     id="g3726"
     transform="matrix(9.6422572,0,0,-9.6422572,50.64592,32.13957)"
     style="stroke:none">
    <path
       d="m 0,0 61.342,0 c 1.064,0 1.935,-0.867 1.935,-1.931 l 0,-47.049 c 0,-1.064 -0.871,-1.931 -1.935,-1.931 l -61.342,0 c -1.066,0 -1.936,0.867 -1.936,1.931 l 0,47.049 C -1.936,-0.867 -1.066,0 0,0 z"
       style="fill:none;stroke:none"
       id="path3728"
       inkscape:connector-curvature="0" />
  </g>
  <g
     id="g3730"
     transform="matrix(9.6422572,0,0,-9.6422572,582.05962,155.87865)"
     style="stroke:none">
    <path
       d="m 0,0 -1.437,0.534 c -0.368,-0.768 -0.836,-1.102 -1.471,-1.102 -0.668,0 -1.104,0.233 -1.438,0.735 -0.367,0.602 -0.601,1.638 -0.601,2.674 0,0.803 0.135,1.639 0.367,2.207 0.336,0.836 0.836,1.17 1.606,1.17 0.734,0 1.037,-0.201 1.572,-1.003 L 0,5.817 c -0.635,1.337 -1.537,1.939 -2.974,1.939 -1.071,0 -1.872,-0.368 -2.44,-1.07 -0.67,-0.836 -1.07,-2.34 -1.07,-3.845 0,-1.203 0.267,-2.406 0.701,-3.242 0.601,-1.17 1.504,-1.711 2.908,-1.711 1.371,0 2.307,0.708 2.875,2.112 m -8.523,7.589 -1.539,0 0,-9.528 1.539,0 0,9.528 z m -2.944,-1.505 0,1.505 -5.916,0 0,-9.528 1.504,0 0,4.145 2.776,0 0,1.538 -2.776,0 0,2.34 4.412,0 z m -7.32,0 0,1.505 -5.918,0 0,-9.528 1.504,0 0,4.145 2.775,0 0,1.538 -2.775,0 0,2.34 4.414,0 z m -10.432,-3.811 -1.904,0 0.969,2.674 0.935,-2.674 z m 3.077,-4.212 -3.276,9.528 -1.506,0 -3.275,-9.528 1.605,0 0.936,2.675 2.975,0 0.935,-2.675 1.606,0 z m -10.499,6.853 c 0,-0.401 -0.233,-0.802 -0.601,-1.003 -0.233,-0.133 -0.401,-0.167 -0.869,-0.167 l -1.805,0 0,2.34 1.805,0 c 0.502,0 0.636,-0.033 0.869,-0.167 0.368,-0.201 0.601,-0.601 0.601,-1.003 m 1.706,-6.853 -1.672,4.446 c 0.869,0.401 1.471,1.404 1.471,2.407 0,0.97 -0.602,1.973 -1.437,2.374 -0.468,0.234 -0.97,0.301 -1.705,0.301 l -3.143,0 0,-9.528 1.505,0 0,4.145 1.805,0 1.538,-4.145 1.638,0 z m -7.89,8.19 0,1.338 -5.884,0 0,-1.338 2.173,0 0,-8.19 1.505,0 0,8.19 2.206,0 z"
       style="fill:#000000;fill-opacity:1;fill-rule:evenodd;stroke:none"
       id="path3732"
       inkscape:connector-curvature="0" />
  </g>
  <g
     id="g3734"
     transform="matrix(9.6422572,0,0,-9.6422572,603.90902,323.49003)"
     style="stroke:none">
    <path
       d="m 0,0 0,1.402 -4.412,0 0,8.125 -1.506,0 L -5.918,0 0,0 z m -9.233,4.746 c 0,-0.734 -0.168,-1.672 -0.369,-2.172 -0.334,-0.836 -0.767,-1.205 -1.471,-1.205 -0.601,0 -1.001,0.234 -1.302,0.736 -0.369,0.602 -0.571,1.639 -0.571,2.641 0,0.803 0.135,1.672 0.37,2.24 0.334,0.836 0.802,1.203 1.537,1.17 0.568,-0.033 0.935,-0.234 1.238,-0.736 0.367,-0.635 0.568,-1.604 0.568,-2.674 m 1.504,0 c 0,1.203 -0.234,2.407 -0.636,3.243 -0.6,1.171 -1.436,1.705 -2.641,1.705 -1.102,0 -1.871,-0.335 -2.44,-1.069 -0.634,-0.903 -1.037,-2.307 -1.037,-3.879 0,-1.137 0.268,-2.406 0.67,-3.209 0.569,-1.17 1.403,-1.711 2.74,-1.711 1.004,0 1.772,0.34 2.307,1.076 0.67,0.836 1.037,2.34 1.037,3.844 m -9.568,2.106 c 0,-0.401 -0.235,-0.801 -0.602,-1.003 -0.234,-0.133 -0.4,-0.167 -0.869,-0.167 l -1.805,0 0,2.34 1.805,0 c 0.502,0 0.635,-0.033 0.869,-0.167 0.367,-0.201 0.602,-0.601 0.602,-1.003 M -15.592,0 -17.264,4.445 c 0.869,0.402 1.471,1.404 1.471,2.407 0,0.97 -0.602,1.972 -1.438,2.374 -0.467,0.234 -0.968,0.301 -1.703,0.301 l -3.144,0 0,-9.527 1.505,0 0,4.144 1.805,0 1.537,-4.144 1.639,0 z m -7.629,8.189 0,1.338 -5.883,0 0,-1.338 2.172,0 0,-8.189 1.506,0 0,8.189 2.205,0 z M -30.246,0 l 0,9.527 -1.506,0 0,-6.084 -3.477,6.084 -1.505,0 0,-9.527 1.505,0 0,6.451 3.645,-6.451 1.338,0 z m -9.803,4.746 c 0,-0.734 -0.168,-1.672 -0.368,-2.172 -0.335,-0.836 -0.769,-1.205 -1.471,-1.205 -0.602,0 -1.003,0.234 -1.304,0.736 -0.368,0.602 -0.568,1.639 -0.568,2.641 0,0.803 0.134,1.672 0.368,2.24 0.334,0.836 0.802,1.203 1.537,1.17 0.569,-0.033 0.937,-0.234 1.238,-0.736 0.367,-0.635 0.568,-1.604 0.568,-2.674 m 1.504,0 c 0,1.203 -0.235,2.407 -0.635,3.243 -0.602,1.171 -1.437,1.705 -2.642,1.705 -1.102,0 -1.872,-0.335 -2.44,-1.069 -0.636,-0.903 -1.036,-2.307 -1.036,-3.879 0,-1.137 0.267,-2.406 0.669,-3.209 0.568,-1.17 1.404,-1.711 2.741,-1.711 1.003,0 1.772,0.34 2.307,1.076 0.669,0.836 1.036,2.34 1.036,3.844 m -8.364,-2.809 -1.438,0.536 c -0.367,-0.768 -0.836,-1.104 -1.471,-1.104 -0.669,0 -1.103,0.234 -1.437,0.736 -0.367,0.602 -0.602,1.639 -0.602,2.674 0,0.803 0.133,1.639 0.367,2.207 0.334,0.836 0.836,1.17 1.606,1.17 0.734,0 1.036,-0.201 1.57,-1.003 l 1.405,0.603 c -0.635,1.336 -1.538,1.938 -2.975,1.938 -1.07,0 -1.873,-0.368 -2.441,-1.069 -0.668,-0.836 -1.07,-2.34 -1.07,-3.846 0,-1.203 0.268,-2.406 0.702,-3.242 0.602,-1.17 1.504,-1.711 2.909,-1.711 1.371,0 2.306,0.709 2.875,2.111"
       style="fill:#000000;fill-opacity:1;fill-rule:evenodd;stroke:none"
       id="path3736"
       inkscape:connector-curvature="0" />
  </g>
  <g
     id="g3738"
     transform="matrix(9.6422572,0,0,-9.6422572,510.70692,393.43494)"
     style="stroke:none">
    <path
       d="m 0,0 0,1.336 -5.883,0 0,-1.336 2.172,0 0,-8.191 1.504,0 0,8.191 L 0,0 z m -7.287,-8.191 0,9.527 -1.506,0 0,-6.084 -3.477,6.084 -1.504,0 0,-9.527 1.504,0 0,6.451 3.645,-6.451 1.338,0 z m -8.727,9.527 -1.537,0 0,-9.527 1.537,0 0,9.527 z m -5.115,-4.779 c 0,-0.737 -0.166,-1.672 -0.367,-2.174 -0.334,-0.836 -0.77,-1.203 -1.471,-1.203 -0.602,0 -1.004,0.234 -1.305,0.734 -0.367,0.604 -0.568,1.639 -0.568,2.643 0,0.8 0.135,1.67 0.369,2.238 0.334,0.836 0.801,1.205 1.537,1.17 0.568,-0.033 0.936,-0.233 1.236,-0.735 0.37,-0.634 0.569,-1.605 0.569,-2.673 m 1.506,0 c 0,1.203 -0.235,2.406 -0.637,3.242 -0.602,1.17 -1.438,1.705 -2.641,1.705 -1.103,0 -1.871,-0.334 -2.439,-1.07 -0.637,-0.903 -1.038,-2.307 -1.038,-3.877 0,-1.137 0.268,-2.409 0.669,-3.211 0.568,-1.17 1.404,-1.709 2.742,-1.709 1.002,0 1.771,0.34 2.307,1.074 0.668,0.836 1.037,2.34 1.037,3.846 m -9.496,2.105 c 0,-0.402 -0.234,-0.836 -0.569,-1.004 -0.267,-0.133 -0.434,-0.166 -0.902,-0.166 l -1.973,0 0,2.34 1.973,0 c 0.468,0 0.635,-0.033 0.902,-0.168 0.335,-0.199 0.569,-0.602 0.569,-1.002 m 1.538,0 c 0,0.969 -0.636,1.973 -1.471,2.373 -0.468,0.235 -0.97,0.301 -1.738,0.301 l -3.277,0 0,-9.527 1.504,0 0,4.144 1.773,0 c 0.735,0 1.303,0.135 1.738,0.336 0.835,0.367 1.471,1.369 1.471,2.373"
       style="fill:#000000;fill-opacity:1;fill-rule:evenodd;stroke:none"
       id="path3740"
       inkscape:connector-curvature="0" />
  </g>
</svg>
