<?xml version="1.0" encoding="UTF-8" standalone="no"?>
<svg
   xmlns:dc="http://purl.org/dc/elements/1.1/"
   xmlns:cc="http://creativecommons.org/ns#"
   xmlns:rdf="http://www.w3.org/1999/02/22-rdf-syntax-ns#"
   xmlns:svg="http://www.w3.org/2000/svg"
   xmlns="http://www.w3.org/2000/svg"
   xmlns:sodipodi="http://sodipodi.sourceforge.net/DTD/sodipodi-0.dtd"
   xmlns:inkscape="http://www.inkscape.org/namespaces/inkscape"
   width="245.50688"
   height="196.63139"
   viewBox="0 0 692.87493 554.93749"
   version="1.1"
   id="svg2"
   inkscape:version="0.48.2 r9819"
   sodipodi:docname="MUTCD EM-1a.svg">
  <metadata
     id="metadata62">
    <rdf:RDF>
      <cc:Work
         rdf:about="">
        <dc:format>image/svg+xml</dc:format>
        <dc:type
           rdf:resource="http://purl.org/dc/dcmitype/StillImage" />
        <dc:title></dc:title>
      </cc:Work>
    </rdf:RDF>
  </metadata>
  <defs
     id="defs60">
    <clipPath
       clipPathUnits="userSpaceOnUse"
       id="clipPath3564">
      <path
         inkscape:connector-curvature="0"
         d="m 63,43 512.622,0 0,313.129 L 63,356.129 63,43 z"
         id="path3566" />
    </clipPath>
  </defs>
  <sodipodi:namedview
     pagecolor="#ffffff"
     bordercolor="#666666"
     borderopacity="1"
     objecttolerance="10"
     gridtolerance="10"
     guidetolerance="10"
     inkscape:pageopacity="0"
     inkscape:pageshadow="2"
     inkscape:window-width="1280"
     inkscape:window-height="1004"
     id="namedview58"
     showgrid="false"
     fit-margin-top="0"
     fit-margin-left="0"
     fit-margin-right="0"
     fit-margin-bottom="0"
     inkscape:zoom="2.4413477"
     inkscape:cx="111.55819"
     inkscape:cy="49.394099"
     inkscape:window-x="-8"
     inkscape:window-y="-8"
     inkscape:window-maximized="1"
     inkscape:current-layer="svg2"
     showguides="true"
     inkscape:guide-bbox="true" />
  <polygon
     points="315,205 395,375 315,545 235,375 "
     id="polygon10"
     style="fill:none;stroke:#ffffff;stroke-width:40"
     transform="translate(24250.441,13670.769)" />
  <!-- draw the bicycle -->
  <!-- RIGHT -->
  <!-- LANE -->
  <!-- ONLY -->
  <path
     d="m 47.6622,1.67955 597.53066,0 c 25.33024,0 45.97429,20.64407 45.97429,45.96464 l 0,459.63676 c 0,25.32055 -20.64405,45.97428 -45.97429,45.97428 l -597.53066,0 c -25.31093,0 -45.955,-20.65373 -45.955,-45.97428 l 0,-459.63676 c 0,-25.32057 20.64407,-45.96464 45.955,-45.96464 z"
     style="fill:#ffffff;stroke:#000000;stroke-width:3.38666668;stroke-miterlimit:4;stroke-opacity:1;stroke-dasharray:none"
     id="path3668"
     inkscape:connector-curvature="0" />
  <path
     d="m 50.30419,13.63306 592.25636,0 c 20.19088,0 36.65022,16.4304 36.65022,36.57308 l 0,454.51672 c 0,20.15233 -16.45934,36.58271 -36.65022,36.58271 l -592.25636,0 c -20.18124,0 -36.65986,-16.43038 -36.65986,-36.58271 l 0,-454.51672 c 0,-20.14268 16.47862,-36.57308 36.65986,-36.57308"
     style="fill:#000000;fill-opacity:1;fill-rule:evenodd;stroke:none"
     id="path3672"
     inkscape:connector-curvature="0" />
  <path
     d="m 50.68988,32.0112 591.47533,0 c 10.27865,0 18.65777,8.36948 18.65777,18.6192 l 0,453.66819 c 0,10.24972 -8.37912,18.60956 -18.65777,18.60956 l -591.47533,0 c -10.25936,0 -18.65777,-8.35984 -18.65777,-18.60956 l 0,-453.66819 c 0,-10.24972 8.39841,-18.6192 18.65777,-18.6192"
     style="fill:#ffffff;fill-opacity:1;fill-rule:evenodd;stroke:none"
     id="path3680"
     inkscape:connector-curvature="0" />
  <path
     d="m 501.65825,174.36948 -19.83412,0 9.68081,-39.64896 10.15331,39.64896 z m 34.32644,57.05323 -34.32644,-137.80713 -19.34238,0 -34.33606,137.80713 19.81482,0 9.18907,-37.71086 29.49567,0 9.67119,37.71086 19.83413,0 z m -100.58804,0 0,-19.34236 -50.27473,0 0,-45.4536 28.53146,0 0,-18.86026 -28.53146,0 0,-34.80855 44.97149,0 0,-19.34236 -64.80561,0 0,137.80713 70.10885,0 z M 323.22828,130.37186 c 0,11.10788 -6.28676,17.39463 -17.8864,17.39463 l -20.31622,0 0,-34.80855 20.31622,0 c 10.62578,0 17.8864,6.76887 17.8864,17.41392 m 19.34235,101.05085 -19.82447,-67.68864 c 13.04597,-4.84041 19.82447,-16.92216 19.82447,-33.36221 0,-22.25433 -14.51158,-36.75628 -36.26451,-36.75628 l -41.10495,0 0,137.80713 19.82449,0 0,-64.79596 18.86989,0 18.35886,64.79596 20.31622,0 z m -130.55615,-57.05323 -19.81484,0 9.66154,-39.64896 10.1533,39.64896 z m 34.32644,57.05323 -34.32644,-137.80713 -19.34237,0 -34.33607,137.80713 19.83412,0 9.18907,-37.71086 29.48602,0 9.67118,37.71086 19.82449,0 z"
     style="fill:#000000;fill-opacity:1;fill-rule:evenodd;stroke:none"
     id="path3688"
     inkscape:connector-curvature="0" />
  <path
     d="m 608.6198,370.08801 c 0,10.6354 -0.95459,20.29694 -1.93811,29.00389 -1.9188,10.63543 -8.20555,19.82451 -19.81485,19.82451 l -16.44003,0 0,-99.11278 16.44003,0 c 8.70698,0 14.50196,4.33903 17.89605,14.01022 2.41055,5.81425 3.85691,20.78868 3.85691,36.27416 m 19.34235,-0.97386 c 0,-10.62578 -1.44633,-22.72682 -3.38443,-32.88011 -2.41055,-14.01984 -8.21521,-24.65524 -16.44004,-30.45987 -4.82112,-3.86656 -10.64506,-5.32255 -22.2447,-5.32255 l -35.29065,0 0,137.80714 38.19297,0 c 7.73311,0 14.52126,-1.92845 19.34238,-6.28675 13.53772,-10.63541 19.82447,-30.942 19.82447,-62.85786 m -100.57838,69.14461 0,-19.34235 -50.28438,0 0,-45.44396 28.53145,0 0,-18.86992 -28.53145,0 0,-34.7989 44.97149,0 0,-19.35201 -64.78631,0 0,137.80714 70.0992,0 z M 434.066,400.54789 c 0,-19.82448 -11.59964,-34.80853 -38.19296,-50.29401 -10.15331,-5.79501 -13.05563,-9.67119 -13.05563,-16.44003 0,-9.17945 7.25097,-15.9483 16.44004,-15.9483 8.70698,0 15.4662,6.27711 15.95794,15.9483 l 18.85061,0 c -0.49174,-20.78872 -15.48545,-35.78242 -34.80855,-35.78242 -19.82448,0 -35.30993,15.95791 -35.30993,35.78242 0,12.09138 5.80464,22.73644 16.93178,30.46953 28.03971,18.85061 20.3066,13.53772 23.19929,16.44003 8.23449,6.28676 11.1368,12.08177 11.1368,19.82448 0,11.11752 -8.70695,20.78871 -19.34235,20.78871 -13.53775,0 -19.34238,-12.09139 -19.34238,-23.69103 l -19.34236,0 c 0,22.72682 14.50193,43.12017 38.68474,43.12017 21.28046,0 38.19296,-17.97315 38.19296,-40.21785 M 317.53932,369.11415 c 0,15.96756 -0.97386,24.18277 -4.3583,35.30029 -3.37478,11.60927 -8.70695,16.92216 -16.9125,16.92216 -8.70698,0 -14.02949,-5.31289 -17.41393,-16.92216 -2.91196,-11.11752 -4.3583,-19.82447 -4.3583,-34.81817 0,-15.46621 0.98351,-24.65528 4.3583,-35.29068 3.38444,-11.60927 8.70695,-16.92216 17.41393,-16.92216 8.20555,0 13.53772,5.31289 16.9125,17.40428 2.8927,10.15328 4.3583,18.86026 4.3583,34.32644 m 18.86027,0 c 0,-20.78872 -1.93811,-33.84435 -7.74274,-47.39169 -6.76888,-16.91254 -16.44004,-23.69103 -32.38833,-23.69103 -15.96759,0 -25.62913,6.77849 -32.88011,23.20891 -5.80463,13.06525 -7.74273,27.08509 -7.74273,47.87381 0,21.2708 1.9381,34.33605 7.74273,47.8738 6.75922,16.44004 16.44005,23.77779 32.88011,23.77779 15.45652,0 25.61945,-7.33775 32.38833,-23.77779 5.80463,-13.05563 7.74274,-26.603 7.74274,-47.8738 m -97.19396,69.14461 0,-18.36849 -50.28437,0 0,-119.43865 -19.83412,0 0,137.80714 70.11849,0 z M 142.01168,337.20791 c -1.45598,-12.57351 -3.37479,-18.37814 -8.70696,-25.14702 -6.28675,-9.18907 -15.94829,-14.02946 -27.07546,-14.02946 -27.07545,0 -41.0953,23.69103 -41.0953,68.19002 0,50.7665 13.05562,74.54429 42.54164,74.54429 19.34237,0 33.86361,-16.52682 34.33608,-39.25361 l -19.81484,0 c 0,10.15328 -2.91196,19.82447 -14.52124,19.82447 -16.91252,0 -23.69102,-15.95794 -23.69102,-55.59724 0,-35.78242 5.80464,-48.35593 21.77221,-48.35593 9.17943,0 14.50196,6.2771 16.44005,19.82448 l 19.81484,0 z"
     style="fill:#000000;fill-opacity:1;fill-rule:evenodd;stroke:none"
     id="path3692"
     inkscape:connector-curvature="0" />
</svg>
