<?xml version="1.0" encoding="UTF-8" standalone="no"?>
<svg
   xmlns:dc="http://purl.org/dc/elements/1.1/"
   xmlns:cc="http://creativecommons.org/ns#"
   xmlns:rdf="http://www.w3.org/1999/02/22-rdf-syntax-ns#"
   xmlns:svg="http://www.w3.org/2000/svg"
   xmlns="http://www.w3.org/2000/svg"
   xmlns:sodipodi="http://sodipodi.sourceforge.net/DTD/sodipodi-0.dtd"
   xmlns:inkscape="http://www.inkscape.org/namespaces/inkscape"
   width="495.93326"
   height="619.14252"
   viewBox="0 0 1399.6337 1747.3578"
   version="1.1"
   id="svg2"
   inkscape:version="0.48.2 r9819"
   sodipodi:docname="AJAX1.svg">
  <metadata
     id="metadata62">
    <rdf:RDF>
      <cc:Work
         rdf:about="">
        <dc:format>image/svg+xml</dc:format>
        <dc:type
           rdf:resource="http://purl.org/dc/dcmitype/StillImage" />
        <dc:title />
      </cc:Work>
    </rdf:RDF>
  </metadata>
  <defs
     id="defs60">
    <clipPath
       clipPathUnits="userSpaceOnUse"
       id="clipPath3564">
      <path
         inkscape:connector-curvature="0"
         d="m 63,43 512.622,0 0,313.129 L 63,356.129 63,43 z"
         id="path3566" />
    </clipPath>
  </defs>
  <sodipodi:namedview
     pagecolor="#ffffff"
     bordercolor="#666666"
     borderopacity="1"
     objecttolerance="10"
     gridtolerance="10"
     guidetolerance="10"
     inkscape:pageopacity="0"
     inkscape:pageshadow="2"
     inkscape:window-width="1280"
     inkscape:window-height="1004"
     id="namedview58"
     showgrid="false"
     fit-margin-top="0"
     fit-margin-left="0"
     fit-margin-right="0"
     fit-margin-bottom="0"
     inkscape:zoom="0.86314676"
     inkscape:cx="425.0859"
     inkscape:cy="323.16988"
     inkscape:window-x="-8"
     inkscape:window-y="-8"
     inkscape:window-maximized="1"
     inkscape:current-layer="svg2"
     showguides="true"
     inkscape:guide-bbox="true" />
  <polygon
     points="235,375 315,205 395,375 315,545 "
     id="polygon10"
     style="fill:none;stroke:#ffffff;stroke-width:40"
     transform="translate(22925.461,14130.695)" />
  <!-- draw the bicycle -->
  <!-- RIGHT -->
  <!-- LANE -->
  <!-- ONLY -->
  <g
     id="g4030"
     transform="matrix(9.6422572,0,0,-9.6422572,59.661374,696.05044)"
     style="stroke:none">
    <path
       d="m 9.287985,-108.58689 0,0 114.200895,0 c 8.29728,0 15.03176,6.71697 15.03176,15.021757 l 0,150.27013 c 0,8.297278 -6.73448,15.031772 -15.03176,15.031772 l -113.9905203,0 -0.2103747,0 c -8.30729517,0 -15.0217536,-6.734494 -15.0217536,-15.031772 l 0,-150.27013 c 0,-8.289767 6.72948519,-15.021757 15.0217536,-15.021757 z"
       style="fill:#ffffff;stroke:#000000;stroke-width:0.87807935;stroke-miterlimit:4;stroke-opacity:1;stroke-dasharray:none"
       id="path4032"
       inkscape:connector-curvature="0" />
  </g>
  <g
     id="g4034"
     transform="matrix(11.595158,0,0,-11.595158,71.961572,822.51054)"
     style="stroke:none">
    <path
       d="m 6.7065985,-76.788671 0,0 94.8792615,0 c 5.51903,0 9.99464,4.467283 9.99464,9.986305 l 0,124.981883 c 0,5.519021 -4.47561,9.99047 -9.99464,9.99047 l -94.8792615,0 c -5.5190214,0 -9.9863047,-4.471449 -9.9863047,-9.99047 l 0,-124.981883 c 0,-5.512774 4.4756139,-9.986305 9.9863047,-9.986305"
       style="fill:#000000;fill-opacity:1;fill-rule:evenodd;stroke:none"
       id="path4036"
       inkscape:connector-curvature="0" />
  </g>
  <g
     id="g4038"
     transform="matrix(11.595158,0,0,-11.595158,71.961572,822.51054)"
     style="stroke:none">
    <path
       d="m 0,0 0,0 45.557,0 c 2.65,0 4.799,2.145 4.799,4.795 l 0,60.011 c 0,2.65 -2.149,4.797 -4.799,4.797 L 0,69.603 c -2.65,0 -4.795,-2.147 -4.795,-4.797 l 0,-60.011 C -4.795,2.148 -2.646,0 0,0 z"
       style="fill:none;stroke:none"
       id="path4040"
       inkscape:connector-curvature="0" />
  </g>
  <g
     id="g4042"
     transform="matrix(11.595158,0,0,-11.595158,71.984757,801.72042)"
     style="stroke:none">
    <path
       d="m 6.7087633,-74.84748 0,0 94.8709367,0 c 3.44887,0 6.23962,2.79075 6.23962,6.235453 l 0,124.990213 c 0,3.448868 -2.79075,6.239618 -6.23962,6.239618 l -94.8709367,0 c -3.4405371,0 -6.23128755,-2.79075 -6.23128755,-6.239618 l 0,-124.990213 c 0,-3.448868 2.78658515,-6.235453 6.23128755,-6.235453"
       style="fill:#ffffff;fill-opacity:1;fill-rule:evenodd;stroke:none"
       id="path4044"
       inkscape:connector-curvature="0" />
  </g>
  <g
     id="g4046"
     transform="matrix(11.595158,0,0,-11.595158,71.984757,801.72042)"
     style="stroke:none">
    <path
       d="m 0,0 0,0 45.553,0 c 1.656,0 2.996,1.34 2.996,2.994 l 0,60.015 c 0,1.656 -1.34,2.996 -2.996,2.996 L 0,66.005 c -1.652,0 -2.992,-1.34 -2.992,-2.996 l 0,-60.015 C -2.992,1.338 -1.654,0 0,0 z"
       style="fill:none;stroke:none"
       id="path4048"
       inkscape:connector-curvature="0" />
  </g>
  <g
     id="g4050"
     transform="matrix(11.595158,0,0,-11.595158,608.14498,197.48512)"
     style="stroke:none">
    <path
       d="m 56.770488,-18.429529 0,19.9642785 -2.874057,0 0,-11.9794005 -5.464872,11.9794005 -2.869891,0 0,-19.9642785 2.869891,0 0,13.3789406 6.16256,-13.3789406 2.176369,0 z m -15.553227,19.9642785 -2.803246,0 0,-19.9642785 2.803246,0 0,19.9642785 z m -10.506967,-11.6982425 -2.871974,0 1.399541,5.7439474 1.472433,-5.7439474 z m 4.973367,-8.266036 -4.973367,19.9642785 -2.803247,0 -4.975449,-19.9642785 2.871973,0 1.330813,5.46279 4.27568,0 1.399541,-5.46279 2.874056,0 z m -13.943339,17.3005697 0,2.6637088 -10.157082,0 0,-2.6637088 3.644637,0 0,-17.3005697 2.871974,0 0,17.3005697 3.640471,0 z M 8.8549693,-18.429529 l 0,19.9642785 -2.8719738,0 0,-11.9794005 -5.4669551,11.9794005 -2.8719738,0 0,-19.9642785 2.8719738,0 0,13.3789406 6.1667254,-13.3789406 2.1722035,0 z m -15.5553096,19.9642785 -2.7990811,0 0,-19.9642785 2.7990811,0 0,19.9642785 z m -10.5069667,-11.6982425 -2.871974,0 1.403706,5.7439474 1.468268,-5.7439474 z m 4.975449,-8.266036 -4.975449,19.9642785 -2.803247,0 -4.973367,-19.9642785 2.874057,0 1.330813,5.46279 4.271514,0 1.403706,-5.46279 2.871973,0 z m -15.555309,0 0,19.9642785 -2.871974,0 -3.709199,-11.2088199 -3.715447,11.2088199 -2.869891,0 0,-19.9642785 2.869891,0 0,11.2088198 3.715447,-11.2088198 3.709199,11.2088198 0,-11.2088198 2.871974,0 z"
       style="fill:#000000;fill-opacity:1;fill-rule:evenodd;stroke:none"
       id="path4052"
       inkscape:connector-curvature="0" />
  </g>
  <g
     id="g4054"
     transform="matrix(11.595158,0,0,-11.595158,503.26668,308.05655)"
     style="stroke:none">
    <path
       d="m 46.977914,-28.753675 c 0,-1.838979 -1.482846,-3.06566 -3.675876,-3.06566 l -7.268447,0 0,6.216709 7.268447,0 c 2.19303,0 3.675876,-1.224598 3.675876,-3.151049 m 4.467284,0 c 0,2.801164 -1.489095,5.254525 -3.852902,6.566594 -1.397458,0.787242 -2.536667,1.051738 -4.465201,1.051738 l -11.646176,0 0,-24.95639 4.552672,0 0,9.807197 7.093504,0 c 1.928534,0 3.067743,0.174943 4.465201,0.962184 2.363807,1.314152 3.852902,3.940373 3.852902,6.568677 m -30.121361,-4.817168 c 0,-3.850819 -1.139209,-8.493045 -5.864741,-8.493045 -3.767513,0 -6.045932,3.153131 -6.045932,8.493045 0,5.254524 2.278419,8.405573 6.045932,8.405573 3.761265,0 5.864741,-3.151049 5.864741,-8.405573 m 4.467283,0.08955 c 0,7.616249 -4.206952,12.783303 -10.332024,12.783303 -6.5707597,0 -10.5965213,-4.90464 -10.5965213,-12.872857 0,-6.304181 3.2364374,-12.974907 10.5965213,-12.974907 6.30418,0 10.332024,5.269103 10.332024,13.064461 m -24.3461732,7.966134 0,4.379812 -18.7396808,0 0,-4.379812 7.183058,0 0,-20.576578 4.3777297,0 0,20.576578 7.1788931,0 z"
       style="fill:#000000;fill-opacity:1;fill-rule:evenodd;stroke:none"
       id="path4056"
       inkscape:connector-curvature="0" />
  </g>
  <g
     id="g4058"
     transform="matrix(11.595158,0,0,-11.595158,545.36876,584.77501)"
     style="stroke:none">
    <path
       d="m 50.90902,-54.591107 0,3.573827 -11.27963,0 0,5.462789 5.956377,0 0,3.642555 -5.956377,0 0,3.713364 10.925579,0 0,3.571744 -14.566051,0 0,-19.964279 14.920102,0 z m -18.283581,16.392535 0,3.571744 -14.924267,0 0,-19.964279 3.644637,0 0,8.686731 6.235453,0 0,3.644637 -6.235453,0 0,4.061167 11.27963,0 z m -25.6394986,-8.126499 -5.60441,0 2.799081,6.726958 2.805329,-6.726958 z m 7.3559186,-8.266036 -8.3389292,19.964279 -3.6404714,0 -8.4076563,-19.964279 3.9237118,0 1.96185586,4.692209 8.68464864,0 1.9639386,-4.692209 3.852902,0 z m -22.5592604,5.814758 c 0,2.172203 -1.1183828,4.063249 -2.8719736,4.973367 -1.118383,0.560232 -2.871974,1.122548 -5.531517,1.682781 -2.453362,0.560232 -3.153132,1.051738 -3.153132,2.17012 0,1.262086 1.191276,2.030584 3.221859,2.030584 1.891046,0 3.500934,-0.626878 4.76302,-1.959773 l 2.6595431,2.382551 c -2.0285011,2.09931 -4.4818621,3.082321 -7.4225631,3.082321 -4.063249,0 -6.866496,-2.243014 -6.866496,-5.535683 0,-1.260003 0.422778,-2.451278 1.260003,-3.361396 0.843473,-0.983011 1.893129,-1.470351 3.925795,-1.961856 l 0.980928,-0.281158 0.910118,-0.210347 0.908035,-0.281158 c 0.910118,-0.208265 1.682781,-0.48734 2.382551,-0.77058 0.843473,-0.418613 1.262086,-1.047573 1.262086,-1.818153 0,-1.470351 -1.822319,-2.592899 -4.344407,-2.592899 -2.240931,0 -3.852902,0.77058 -5.325335,2.522089 l -2.871974,-2.243014 c 2.243013,-2.590816 4.837995,-3.863315 8.270201,-3.863315 1.818153,0 3.640472,0.501919 5.044178,1.341226 1.8868801,1.122549 2.7990806,2.661627 2.7990806,4.694293"
       style="fill:#000000;fill-opacity:1;fill-rule:evenodd;stroke:none"
       id="path4060"
       inkscape:connector-curvature="0" />
  </g>
  <g
     id="g4062"
     transform="matrix(11.595158,0,0,-11.595158,575.92199,695.81024)"
     style="stroke:none">
    <path
       d="m 53.7618,-64.958559 c 0,-2.734519 -0.980927,-4.556837 -3.078156,-5.67522 -0.843473,-0.491505 -1.822318,-0.77058 -2.876139,-0.77058 l -2.803246,0 0,12.820791 2.803246,0 c 1.053821,0 2.101394,-0.283241 3.013594,-0.770581 1.959774,-1.122548 2.940701,-2.942784 2.940701,-5.60441 m 3.57591,0 c 0,3.921629 -1.684864,6.933141 -4.767185,8.684649 -1.468268,0.84139 -3.080239,1.260003 -4.76302,1.260003 l -6.443717,0 0,-19.964279 6.443717,0 c 1.614054,0 3.294752,0.418613 4.698458,1.191276 3.146883,1.749425 4.831747,4.835912 4.831747,8.828351 m -19.964279,-10.019627 0,3.573827 -11.27963,0 0,5.46279 5.954295,0 0,3.644636 -5.954295,0 0,3.713365 10.92558,0 0,3.569661 -14.570217,0 0,-19.964279 14.924267,0 z m -18.914623,0 0,3.573827 -11.2796303,0 0,5.46279 5.9501293,0 0,3.644636 -5.9501293,0 0,3.713365 10.9297453,0 0,3.569661 -14.5743821,0 0,-19.964279 14.9242671,0 z m -21.7865974,13.872529 c 0,-1.470351 -1.1912756,-2.453361 -2.9448665,-2.453361 l -5.8126751,0 0,4.97545 5.8126751,0 c 1.7535909,0 2.9448665,-0.983011 2.9448665,-2.522089 m 3.571744,0 c 0,2.238848 -1.19127555,4.200704 -3.084404,5.252442 -1.1225481,0.631043 -2.0285007,0.839308 -3.5696614,0.839308 l -9.3198572,0 0,-19.964279 3.644637,0 0,7.845341 5.6752202,0 c 1.5411607,0 2.4471133,0.139538 3.5696614,0.77058 1.89312845,1.051739 3.084404,3.155215 3.084404,5.256608 m -19.9642786,-8.057771 c 0,2.170121 -1.122548,4.065332 -2.871974,4.971284 -1.122548,0.564398 -2.871974,1.124631 -5.535682,1.684864 -2.453362,0.55815 -3.153132,1.049655 -3.153132,2.170121 0,1.262085 1.191276,2.032666 3.221859,2.032666 1.891046,0 3.503017,-0.631043 4.76302,-1.961856 l 2.663708,2.382551 c -2.032666,2.101393 -4.481862,3.080239 -7.426728,3.080239 -4.059084,0 -6.866496,-2.240931 -6.866496,-5.5336 0,-1.260003 0.422778,-2.451279 1.262086,-3.361397 0.84139,-0.980928 1.891046,-1.472433 3.923712,-1.963938 l 0.980928,-0.279075 0.9122,-0.208265 0.910118,-0.279075 c 0.912201,-0.212431 1.680698,-0.491506 2.380469,-0.772663 0.84139,-0.418613 1.260003,-1.049656 1.260003,-1.822319 0,-1.47035 -1.818154,-2.590816 -4.340242,-2.590816 -2.245096,0 -3.854984,0.768498 -5.325335,2.520006 l -2.869891,-2.238848 c 2.240931,-2.592899 4.831747,-3.865398 8.263953,-3.865398 1.818153,0 3.640472,0.501919 5.044178,1.343309 1.891045,1.118383 2.803246,2.661627 2.803246,4.69221"
       style="fill:#000000;fill-opacity:1;fill-rule:evenodd;stroke:none"
       id="path4064"
       inkscape:connector-curvature="0" />
  </g>
</svg>
