<?xml version="1.0" encoding="UTF-8" standalone="no"?>
<svg
   xmlns:dc="http://purl.org/dc/elements/1.1/"
   xmlns:cc="http://creativecommons.org/ns#"
   xmlns:rdf="http://www.w3.org/1999/02/22-rdf-syntax-ns#"
   xmlns:svg="http://www.w3.org/2000/svg"
   xmlns="http://www.w3.org/2000/svg"
   xmlns:sodipodi="http://sodipodi.sourceforge.net/DTD/sodipodi-0.dtd"
   xmlns:inkscape="http://www.inkscape.org/namespaces/inkscape"
   width="247.18996"
   height="197.86047"
   viewBox="0 0 697.62495 558.40624"
   version="1.1"
   id="svg2"
   inkscape:version="0.48.2 r9819"
   sodipodi:docname="MUTCD EM-6b.svg">
  <metadata
     id="metadata62">
    <rdf:RDF>
      <cc:Work
         rdf:about="">
        <dc:format>image/svg+xml</dc:format>
        <dc:type
           rdf:resource="http://purl.org/dc/dcmitype/StillImage" />
        <dc:title></dc:title>
      </cc:Work>
    </rdf:RDF>
  </metadata>
  <defs
     id="defs60">
    <clipPath
       clipPathUnits="userSpaceOnUse"
       id="clipPath3564">
      <path
         inkscape:connector-curvature="0"
         d="m 63,43 512.622,0 0,313.129 L 63,356.129 63,43 z"
         id="path3566" />
    </clipPath>
    <clipPath
       clipPathUnits="userSpaceOnUse"
       id="clipPath4086">
      <path
         d="m 63,45 513,0 0,450 -513,0 0,-450 z"
         id="path4088"
         inkscape:connector-curvature="0" />
    </clipPath>
    <clipPath
       clipPathUnits="userSpaceOnUse"
       id="clipPath4074">
      <path
         d="m 67.766,77.839 503.592,0 0,373.159 -503.592,0 0,-373.159 z"
         id="path4076"
         inkscape:connector-curvature="0" />
    </clipPath>
  </defs>
  <sodipodi:namedview
     pagecolor="#ffffff"
     bordercolor="#666666"
     borderopacity="1"
     objecttolerance="10"
     gridtolerance="10"
     guidetolerance="10"
     inkscape:pageopacity="0"
     inkscape:pageshadow="2"
     inkscape:window-width="1280"
     inkscape:window-height="1004"
     id="namedview58"
     showgrid="false"
     fit-margin-top="0"
     fit-margin-left="0"
     fit-margin-right="0"
     fit-margin-bottom="0"
     inkscape:zoom="2.4413477"
     inkscape:cx="123.59863"
     inkscape:cy="98.930792"
     inkscape:window-x="-8"
     inkscape:window-y="-8"
     inkscape:window-maximized="1"
     inkscape:current-layer="svg2"
     showguides="true"
     inkscape:guide-bbox="true" />
  <polygon
     points="315,545 235,375 315,205 395,375 "
     id="polygon10"
     style="fill:none;stroke:#ffffff;stroke-width:40"
     transform="translate(24181.505,15088.261)" />
  <!-- draw the bicycle -->
  <!-- RIGHT -->
  <!-- LANE -->
  <!-- ONLY -->
  <path
     d="m 48.215778,1.67811 601.204382,0 c 25.68697,0 46.52389,20.48016 46.52389,46.16713 l 0,462.36552 c 0,25.68696 -20.83692,46.51426 -46.52389,46.51426 l -601.204382,0 c -25.686975,0 -46.5142508,-20.8273 -46.5142508,-46.51426 l 0,-462.36552 c 0,-25.68697 20.8272758,-46.16713 46.5142508,-46.16713 z"
     style="fill:#ffffff;stroke:#000000;stroke-width:3.38666675;stroke-miterlimit:4;stroke-opacity:1;stroke-dasharray:none"
     id="path4260"
     inkscape:connector-curvature="0" />
  <g
     id="g4262"
     transform="matrix(9.6422573,0,0,-9.6422573,50.645626,13.48987)"
     style="stroke:none">
    <path
       d="m 0,0 61.847,0 c 2.088,0 3.817,-1.727 3.817,-3.815 l 0,-47.448 c 0,-2.088 -1.729,-3.816 -3.817,-3.816 l -61.847,0 c -2.088,0 -3.817,1.728 -3.817,3.816 l 0,47.448 C -3.817,-1.727 -2.088,0 0,0"
       style="fill:#000000;fill-opacity:1;fill-rule:evenodd;stroke:none"
       id="path4264"
       inkscape:connector-curvature="0" />
  </g>
  <g
     id="g4266"
     transform="matrix(9.6422573,0,0,-9.6422573,50.645626,13.48987)"
     style="stroke:none">
    <path
       d="m 0,0 61.847,0 c 2.088,0 3.817,-1.727 3.817,-3.815 l 0,-47.448 c 0,-2.088 -1.729,-3.816 -3.817,-3.816 l -61.847,0 c -2.088,0 -3.817,1.728 -3.817,3.816 l 0,47.448 C -3.817,-1.727 -2.088,0 0,0 z"
       style="fill:none;stroke:none"
       id="path4268"
       inkscape:connector-curvature="0" />
  </g>
  <g
     id="g4270"
     transform="matrix(9.6422573,0,0,-9.6422573,51.339893,32.22477)"
     style="stroke:none">
    <path
       d="m 0,0 61.705,0 c 1.08,0 1.979,-0.864 1.979,-1.944 l 0,-47.34 c 0,-1.044 -0.899,-1.944 -1.979,-1.944 l -61.705,0 c -1.08,0 -1.98,0.9 -1.98,1.944 l 0,47.34 C -1.98,-0.864 -1.08,0 0,0"
       style="fill:#ffffff;fill-opacity:1;fill-rule:evenodd;stroke:none"
       id="path4272"
       inkscape:connector-curvature="0" />
  </g>
  <g
     id="g4274"
     transform="matrix(9.6422573,0,0,-9.6422573,51.339893,32.22477)"
     style="stroke:none">
    <path
       d="m 0,0 61.705,0 c 1.08,0 1.979,-0.864 1.979,-1.944 l 0,-47.34 c 0,-1.044 -0.899,-1.944 -1.979,-1.944 l -61.705,0 c -1.08,0 -1.98,0.9 -1.98,1.944 l 0,47.34 C -1.98,-0.864 -1.08,0 0,0 z"
       style="fill:none;stroke:none"
       id="path4276"
       inkscape:connector-curvature="0" />
  </g>
  <g
     id="g4278"
     transform="matrix(9.6422573,0,0,-9.6422573,604.9983,163.4366)"
     style="stroke:none">
    <path
       d="m 0,0 0,7.2 -1.008,0 0,-4.32 -1.98,4.32 -1.043,0 0,-7.2 1.043,0 0,4.824 L -0.756,0 0,0 z M -6.443,3.599 C -6.443,2.772 -6.516,2.34 -6.695,1.763 -6.84,1.152 -7.127,0.9 -7.561,0.9 c -0.466,0 -0.718,0.252 -0.898,0.863 -0.182,0.577 -0.252,1.045 -0.252,1.836 0,0.793 0.07,1.261 0.252,1.836 0.18,0.613 0.432,0.865 0.898,0.865 0.434,0 0.721,-0.252 0.866,-0.9 0.179,-0.54 0.252,-0.973 0.252,-1.801 m 0.97,0 c 0,1.117 -0.107,1.765 -0.394,2.485 -0.362,0.9 -0.865,1.224 -1.694,1.224 -0.828,0 -1.332,-0.324 -1.726,-1.188 -0.289,-0.685 -0.397,-1.404 -0.397,-2.521 0,-1.08 0.108,-1.763 0.397,-2.483 0.359,-0.864 0.863,-1.26 1.726,-1.26 0.793,0 1.332,0.396 1.694,1.26 0.287,0.684 0.394,1.403 0.394,2.483 m -5.65,3.601 -1.008,0 0,-7.2 1.008,0 0,7.2 z m -1.981,-0.972 0,0.972 -3.671,0 0,-0.972 1.295,0 0,-6.228 1.044,0 0,6.228 1.332,0 z m -5.904,-3.24 -1.043,0 0.504,2.052 0.539,-2.052 z M -17.207,0 l -1.801,7.2 -1.008,0 -1.8,-7.2 1.044,0 0.467,1.98 1.549,0 0.504,-1.98 1.045,0 z m -6.229,5.292 c 0,-0.576 -0.324,-0.936 -0.935,-0.936 l -1.08,0 0,1.836 1.08,0 c 0.539,0 0.935,-0.36 0.935,-0.9 M -22.428,0 -23.473,3.528 c 0.686,0.252 1.045,0.899 1.045,1.764 0,1.152 -0.756,1.908 -1.908,1.908 l -2.123,0 0,-7.2 1.008,0 0,3.383 1.008,0 0.935,-3.383 1.08,0 z m -5.004,6.228 0,0.972 -3.636,0 0,-0.972 1.296,0 0,-6.228 1.043,0 0,6.228 1.297,0 z m -4.32,-4.248 c 0,1.044 -0.611,1.8 -1.98,2.628 -0.54,0.288 -0.684,0.504 -0.684,0.864 0,0.468 0.396,0.828 0.865,0.828 0.432,0 0.791,-0.324 0.826,-0.828 l 0.973,0 c 0,1.079 -0.791,1.836 -1.799,1.836 -1.045,0 -1.838,-0.828 -1.838,-1.836 0,-0.648 0.289,-1.188 0.866,-1.621 1.476,-0.971 1.08,-0.683 1.224,-0.827 0.432,-0.36 0.574,-0.648 0.574,-1.044 0,-0.576 -0.466,-1.08 -1.007,-1.08 -0.719,0 -1.008,0.611 -1.008,1.224 l -1.008,0 c 0,-1.189 0.756,-2.268 2.016,-2.268 1.117,0 1.98,0.972 1.98,2.124 m -5.221,5.22 -1.007,0 0,-7.2 1.007,0 0,7.2 z m -2.41,-5.22 0,1.512 -1.838,0 0,-1.008 0.793,0 0,-0.504 c 0,-0.756 -0.252,-1.08 -0.793,-1.08 -0.539,0 -0.898,0.359 -1.043,1.08 -0.107,0.539 -0.144,1.188 -0.144,1.8 0,0.828 0.109,1.655 0.324,2.016 0.18,0.36 0.432,0.504 0.793,0.504 0.504,0 0.828,-0.324 0.863,-0.792 l 1.045,0 c -0.072,1.043 -0.828,1.8 -1.873,1.8 -0.828,0 -1.584,-0.541 -1.836,-1.297 -0.252,-0.683 -0.324,-1.403 -0.324,-2.412 0,-0.935 0.18,-1.943 0.396,-2.483 0.36,-0.792 0.973,-1.26 1.836,-1.26 0.721,0 1.295,0.396 1.584,1.044 0.145,0.287 0.217,0.576 0.217,1.08 M -44.496,0 l 0,1.008 -2.627,0 0,2.375 1.512,0 0,0.973 -1.512,0 0,1.836 2.34,0 0,1.008 -3.385,0 0,-7.2 3.672,0 z m -5.867,5.292 c 0,-0.576 -0.325,-0.936 -0.936,-0.936 l -1.045,0 0,1.836 1.045,0 c 0.574,0 0.936,-0.36 0.936,-0.9 M -49.355,0 -50.363,3.528 c 0.683,0.252 1.008,0.899 1.008,1.764 0,1.152 -0.756,1.908 -1.874,1.908 l -2.16,0 0,-7.2 1.045,0 0,3.383 0.973,0 L -50.4,0 l 1.045,0 z"
       style="fill:#000000;fill-opacity:1;fill-rule:evenodd;stroke:none"
       id="path4280"
       inkscape:connector-curvature="0" />
  </g>
  <g
     id="g4282"
     transform="matrix(9.6422573,0,0,-9.6422573,521.34207,246.74572)"
     style="stroke:none">
    <path
       d="m 0,0 c 0,-0.792 -0.431,-1.224 -1.26,-1.224 l -1.404,0 0,2.412 1.404,0 C -0.504,1.188 0,0.72 0,0 m 1.332,-7.056 -1.367,4.715 c 0.898,0.324 1.367,1.189 1.367,2.341 0,1.548 -1.008,2.556 -2.519,2.556 l -2.844,0 0,-9.612 1.367,0 0,4.5 1.297,0 1.295,-4.5 1.404,0 z m -6.984,0 0,1.332 -3.527,0 0,3.168 2.015,0 0,1.332 -2.015,0 0,2.412 3.13,0 0,1.368 -4.5,0 0,-9.612 4.897,0 z m -6.192,8.316 0,1.296 -4.896,0 0,-1.296 1.764,0 0,-8.316 1.369,0 0,8.316 1.763,0 z m -6.191,-8.316 0,9.612 -1.369,0 0,-5.76 -2.627,5.76 -1.369,0 0,-9.612 1.369,0 0,6.444 2.986,-6.444 1.01,0 z m -6.984,0 0,1.332 -3.493,0 0,3.168 1.981,0 0,1.332 -1.981,0 0,2.412 3.131,0 0,1.368 -4.535,0 0,-9.612 4.897,0 z M -31.787,0 c -0.109,0.864 -0.252,1.26 -0.613,1.728 -0.432,0.648 -1.115,0.972 -1.871,0.972 -1.908,0 -2.881,-1.656 -2.881,-4.752 0,-3.528 0.935,-5.184 2.988,-5.184 1.332,0 2.34,1.152 2.377,2.736 l -1.369,0 c 0,-0.685 -0.215,-1.368 -1.008,-1.368 -1.187,0 -1.656,1.116 -1.656,3.851 0,2.521 0.396,3.385 1.512,3.385 0.648,0 1.007,-0.432 1.152,-1.368 l 1.369,0 z"
       style="fill:#000000;fill-opacity:1;fill-rule:evenodd;stroke:none"
       id="path4284"
       inkscape:connector-curvature="0" />
  </g>
  <g
     id="g4286"
     transform="matrix(9.6422573,0,0,-9.6422573,350.54877,363.72557)"
     style="stroke:none">
    <path
       d="M 0,0 8.244,-5.58 0,-11.196 c -0.322,-0.252 -0.826,-0.144 -1.078,0.216 -0.144,0.252 -0.144,0.504 -0.037,0.792 l 0.721,2.412 -8.209,0 0,4.356 8.209,0 -0.721,2.375 c -0.107,0.325 -0.144,0.576 0.037,0.828 C -0.826,0.144 -0.322,0.216 0,0"
       style="fill:#000000;fill-opacity:1;fill-rule:evenodd;stroke:none"
       id="path4288"
       inkscape:connector-curvature="0" />
  </g>
  <g
     id="g4290"
     transform="matrix(9.6422573,0,0,-9.6422573,350.54877,363.72557)"
     style="stroke:none">
    <path
       d="M 0,0 8.244,-5.58 0,-11.196 c -0.322,-0.252 -0.826,-0.144 -1.078,0.216 -0.144,0.252 -0.144,0.504 -0.037,0.792 l 0.721,2.412 -8.209,0 0,4.356 8.209,0 -0.721,2.375 c -0.107,0.325 -0.144,0.576 0.037,0.828 C -0.826,0.144 -0.322,0.216 0,0 z"
       style="fill:none;stroke:none"
       id="path4292"
       inkscape:connector-curvature="0" />
  </g>
</svg>
