<?xml version="1.0" encoding="UTF-8" standalone="no"?>
<svg
   xmlns:dc="http://purl.org/dc/elements/1.1/"
   xmlns:cc="http://creativecommons.org/ns#"
   xmlns:rdf="http://www.w3.org/1999/02/22-rdf-syntax-ns#"
   xmlns:svg="http://www.w3.org/2000/svg"
   xmlns="http://www.w3.org/2000/svg"
   xmlns:sodipodi="http://sodipodi.sourceforge.net/DTD/sodipodi-0.dtd"
   xmlns:inkscape="http://www.inkscape.org/namespaces/inkscape"
   width="247.20103"
   height="197.87155"
   viewBox="0 0 697.65621 558.4375"
   version="1.1"
   id="svg2"
   inkscape:version="0.48.2 r9819"
   sodipodi:docname="MUTCD EM-5.svg">
  <metadata
     id="metadata62">
    <rdf:RDF>
      <cc:Work
         rdf:about="">
        <dc:format>image/svg+xml</dc:format>
        <dc:type
           rdf:resource="http://purl.org/dc/dcmitype/StillImage" />
        <dc:title></dc:title>
      </cc:Work>
    </rdf:RDF>
  </metadata>
  <defs
     id="defs60">
    <clipPath
       clipPathUnits="userSpaceOnUse"
       id="clipPath3564">
      <path
         inkscape:connector-curvature="0"
         d="m 63,43 512.622,0 0,313.129 L 63,356.129 63,43 z"
         id="path3566" />
    </clipPath>
    <clipPath
       clipPathUnits="userSpaceOnUse"
       id="clipPath4086">
      <path
         d="m 63,45 513,0 0,450 -513,0 0,-450 z"
         id="path4088"
         inkscape:connector-curvature="0" />
    </clipPath>
    <clipPath
       clipPathUnits="userSpaceOnUse"
       id="clipPath4074">
      <path
         d="m 67.766,77.839 503.592,0 0,373.159 -503.592,0 0,-373.159 z"
         id="path4076"
         inkscape:connector-curvature="0" />
    </clipPath>
  </defs>
  <sodipodi:namedview
     pagecolor="#ffffff"
     bordercolor="#666666"
     borderopacity="1"
     objecttolerance="10"
     gridtolerance="10"
     guidetolerance="10"
     inkscape:pageopacity="0"
     inkscape:pageshadow="2"
     inkscape:window-width="1280"
     inkscape:window-height="1004"
     id="namedview58"
     showgrid="false"
     fit-margin-top="0"
     fit-margin-left="0"
     fit-margin-right="0"
     fit-margin-bottom="0"
     inkscape:zoom="2.4413477"
     inkscape:cx="126.31404"
     inkscape:cy="113.38974"
     inkscape:window-x="-8"
     inkscape:window-y="-8"
     inkscape:window-maximized="1"
     inkscape:current-layer="svg2"
     showguides="true"
     inkscape:guide-bbox="true" />
  <polygon
     points="315,205 395,375 315,545 235,375 "
     id="polygon10"
     style="fill:none;stroke:#ffffff;stroke-width:40"
     transform="translate(23839.349,14769.98)" />
  <!-- draw the bicycle -->
  <!-- RIGHT -->
  <!-- LANE -->
  <!-- ONLY -->
  <path
     d="m 48.21791,1.68952 601.21404,0 c 25.69658,0 46.52388,20.82727 46.52388,46.16713 l 0,462.36551 c 0,25.68697 -20.8273,46.51426 -46.52388,46.51426 l -601.21404,0 c -25.68698,0 -46.5142503,-20.82729 -46.5142503,-46.51426 l 0,-462.36551 C 1.7036597,22.51679 22.53093,1.68952 48.21791,1.68952 z"
     style="fill:#ffffff;stroke:#000000;stroke-width:3.38666673;stroke-miterlimit:4;stroke-opacity:1;stroke-dasharray:none"
     id="path4188"
     inkscape:connector-curvature="0" />
  <g
     id="g4190"
     transform="matrix(9.6422572,0,0,-9.6422572,50.64776,13.49163)"
     style="stroke:none">
    <path
       d="m 0,0 61.849,0 c 2.087,0 3.816,-1.728 3.816,-3.816 l 0,-47.448 c 0,-2.088 -1.729,-3.817 -3.816,-3.817 l -61.849,0 c -2.088,0 -3.816,1.729 -3.816,3.817 l 0,47.448 C -3.816,-1.728 -2.088,0 0,0"
       style="fill:#000000;fill-opacity:1;fill-rule:evenodd;stroke:none"
       id="path4192"
       inkscape:connector-curvature="0" />
  </g>
  <g
     id="g4194"
     transform="matrix(9.6422572,0,0,-9.6422572,50.64776,13.49163)"
     style="stroke:none">
    <path
       d="m 0,0 61.849,0 c 2.087,0 3.816,-1.728 3.816,-3.816 l 0,-47.448 c 0,-2.088 -1.729,-3.817 -3.816,-3.817 l -61.849,0 c -2.088,0 -3.816,1.729 -3.816,3.817 l 0,47.448 C -3.816,-1.728 -2.088,0 0,0 z"
       style="fill:none;stroke:none"
       id="path4196"
       inkscape:connector-curvature="0" />
  </g>
  <g
     id="g4198"
     transform="matrix(9.6422572,0,0,-9.6422572,51.34007,32.23618)"
     style="stroke:none">
    <path
       d="m 0,0 61.704,0 c 1.08,0 1.981,-0.864 1.981,-1.944 l 0,-47.34 c 0,-1.044 -0.901,-1.944 -1.981,-1.944 l -61.704,0 c -1.08,0 -1.979,0.9 -1.979,1.944 l 0,47.34 C -1.979,-0.864 -1.08,0 0,0"
       style="fill:#ffffff;fill-opacity:1;fill-rule:evenodd;stroke:none"
       id="path4200"
       inkscape:connector-curvature="0" />
  </g>
  <g
     id="g4202"
     transform="matrix(9.6422572,0,0,-9.6422572,51.34007,32.23618)"
     style="stroke:none">
    <path
       d="m 0,0 61.704,0 c 1.08,0 1.981,-0.864 1.981,-1.944 l 0,-47.34 c 0,-1.044 -0.901,-1.944 -1.981,-1.944 l -61.704,0 c -1.08,0 -1.979,0.9 -1.979,1.944 l 0,47.34 C -1.979,-0.864 -1.08,0 0,0 z"
       style="fill:none;stroke:none"
       id="path4204"
       inkscape:connector-curvature="0" />
  </g>
  <g
     id="g4206"
     transform="matrix(9.6422572,0,0,-9.6422572,551.53987,253.35241)"
     style="stroke:none">
    <path
       d="m 0,0 c 0,-0.396 -0.252,-0.828 -0.611,-1.008 -0.252,-0.144 -0.397,-0.18 -0.901,-0.18 l -1.799,0 0,2.376 1.799,0 c 0.504,0 0.649,-0.036 0.901,-0.18 C -0.252,0.791 0,0.396 0,0 m 1.693,-6.912 -1.657,4.5 C 0.901,-2.016 1.513,-1.008 1.513,0 1.513,0.972 0.901,1.98 0.036,2.375 -0.432,2.627 -0.935,2.7 -1.655,2.7 l -3.168,0 0,-9.612 1.512,0 0,4.176 1.799,0 1.548,-4.176 1.657,0 z m -8.1,0 0,1.548 -4.464,0 0,2.628 2.808,0 0,1.548 -2.808,0 0,2.376 4.176,0 0,1.512 -5.689,0 0,-9.612 5.977,0 z m -7.38,8.244 0,1.368 -5.904,0 0,-1.368 2.16,0 0,-8.244 1.512,0 0,8.244 2.232,0 z m -7.309,-8.244 0,9.612 -1.511,0 0,-6.119 -3.492,6.119 -1.512,0 0,-9.612 1.512,0 0,6.516 3.671,-6.516 1.332,0 z m -8.099,0 0,1.548 -4.464,0 0,2.628 2.808,0 0,1.548 -2.808,0 0,2.376 4.14,0 0,1.512 -5.653,0 0,-9.612 5.977,0 z m -8.065,1.944 -1.44,0.54 c -0.359,-0.756 -0.827,-1.08 -1.476,-1.08 -0.683,0 -1.116,0.215 -1.44,0.719 -0.359,0.613 -0.611,1.657 -0.611,2.701 0,0.792 0.143,1.656 0.36,2.232 0.359,0.828 0.863,1.151 1.619,1.151 0.756,0 1.045,-0.179 1.585,-1.007 L -37.26,0.9 c -0.611,1.368 -1.547,1.944 -2.988,1.944 -1.079,0 -1.872,-0.36 -2.447,-1.08 -0.685,-0.828 -1.08,-2.34 -1.08,-3.852 0,-1.224 0.252,-2.412 0.72,-3.276 0.576,-1.188 1.511,-1.728 2.916,-1.728 1.368,0 2.339,0.719 2.879,2.124"
       style="fill:#000000;fill-opacity:1;fill-rule:evenodd;stroke:none"
       id="path4208"
       inkscape:connector-curvature="0" />
  </g>
  <g
     id="g4210"
     transform="matrix(9.6422572,0,0,-9.6422572,350.55666,369.63805)"
     style="stroke:none">
    <path
       d="M 0,0 8.245,-5.58 0,-11.16 c -0.324,-0.252 -0.828,-0.144 -1.08,0.216 -0.143,0.253 -0.143,0.504 -0.036,0.792 l 0.721,2.448 -8.208,0 0,4.284 8.208,0 -0.721,2.376 C -1.223,-0.72 -1.259,-0.468 -1.08,-0.216 -0.828,0.144 -0.324,0.216 0,0"
       style="fill:#000000;fill-opacity:1;fill-rule:evenodd;stroke:none"
       id="path4212"
       inkscape:connector-curvature="0" />
  </g>
  <g
     id="g4214"
     transform="matrix(9.6422572,0,0,-9.6422572,350.55666,369.63805)"
     style="stroke:none">
    <path
       d="M 0,0 8.245,-5.58 0,-11.16 c -0.324,-0.252 -0.828,-0.144 -1.08,0.216 -0.143,0.253 -0.143,0.504 -0.036,0.792 l 0.721,2.448 -8.208,0 0,4.284 8.208,0 -0.721,2.376 C -1.223,-0.72 -1.259,-0.468 -1.08,-0.216 -0.828,0.144 -0.324,0.216 0,0 z"
       style="fill:none;stroke:none"
       id="path4216"
       inkscape:connector-curvature="0" />
  </g>
  <g
     id="g4218"
     transform="matrix(9.6422572,0,0,-9.6422572,602.91379,170.04332)"
     style="stroke:none">
    <path
       d="m 0,0 0,1.403 -4.427,0 0,8.209 -1.512,0 L -5.939,0 0,0 z m -10.511,4.248 -1.909,0 0.973,2.7 0.936,-2.7 z M -7.416,0 l -3.275,9.612 -1.513,0 -3.311,-9.612 1.62,0 0.935,2.7 2.989,0 L -9,0 -7.416,0 z m -9.359,1.944 -1.441,0.54 c -0.36,-0.756 -0.828,-1.081 -1.475,-1.081 -0.685,0 -1.116,0.217 -1.441,0.721 -0.359,0.611 -0.612,1.656 -0.612,2.699 0,0.793 0.145,1.657 0.36,2.233 0.361,0.828 0.865,1.152 1.621,1.152 0.755,0 1.044,-0.18 1.584,-1.008 l 1.404,0.612 c -0.612,1.368 -1.548,1.944 -2.988,1.944 -1.08,0 -1.872,-0.36 -2.449,-1.08 -0.683,-0.828 -1.08,-2.34 -1.08,-3.853 0,-1.223 0.288,-2.411 0.721,-3.275 0.575,-1.188 1.512,-1.729 2.916,-1.729 1.367,0 2.34,0.721 2.88,2.125 m -8.568,7.668 -1.512,0 0,-9.612 1.512,0 0,9.612 z m -5.148,-4.789 c 0,-1.295 -0.288,-2.339 -0.864,-2.879 -0.288,-0.289 -0.576,-0.396 -1.08,-0.396 l -1.512,0 0,6.552 1.691,0 c 0.433,0 0.756,-0.18 0.972,-0.432 0.505,-0.504 0.793,-1.584 0.793,-2.845 m 1.548,0 c 0,1.873 -0.576,3.385 -1.584,4.286 -0.504,0.395 -0.864,0.503 -1.836,0.503 l -3.097,0 0,-9.612 2.916,0 0.54,0 c 0.504,0.036 1.008,0.216 1.369,0.54 1.08,0.863 1.692,2.376 1.692,4.283 M -37.044,0 l 0,1.548 -4.464,0 0,2.628 2.809,0 0,1.548 -2.809,0 0,2.376 4.14,0 0,1.512 -5.651,0 0,-9.612 5.975,0 z m -8.244,0 0,9.612 -1.548,0 -2.195,-5.4 -2.232,5.4 -1.513,0 0,-9.612 1.513,0 0,5.58 2.232,-5.58 2.195,5.58 0,-5.58 1.548,0 z"
       style="fill:#000000;fill-opacity:1;fill-rule:evenodd;stroke:none"
       id="path4220"
       inkscape:connector-curvature="0" />
  </g>
</svg>
