<?xml version="1.0" encoding="UTF-8" standalone="no"?>
<svg
   xmlns:dc="http://purl.org/dc/elements/1.1/"
   xmlns:cc="http://creativecommons.org/ns#"
   xmlns:rdf="http://www.w3.org/1999/02/22-rdf-syntax-ns#"
   xmlns:svg="http://www.w3.org/2000/svg"
   xmlns="http://www.w3.org/2000/svg"
   xmlns:sodipodi="http://sodipodi.sourceforge.net/DTD/sodipodi-0.dtd"
   xmlns:inkscape="http://www.inkscape.org/namespaces/inkscape"
   width="247.18996"
   height="197.87155"
   viewBox="0 0 697.62495 558.4375"
   version="1.1"
   id="svg2"
   inkscape:version="0.48.2 r9819"
   sodipodi:docname="MUTCD EM-6a.svg">
  <metadata
     id="metadata62">
    <rdf:RDF>
      <cc:Work
         rdf:about="">
        <dc:format>image/svg+xml</dc:format>
        <dc:type
           rdf:resource="http://purl.org/dc/dcmitype/StillImage" />
        <dc:title></dc:title>
      </cc:Work>
    </rdf:RDF>
  </metadata>
  <defs
     id="defs60">
    <clipPath
       clipPathUnits="userSpaceOnUse"
       id="clipPath3564">
      <path
         inkscape:connector-curvature="0"
         d="m 63,43 512.622,0 0,313.129 L 63,356.129 63,43 z"
         id="path3566" />
    </clipPath>
    <clipPath
       clipPathUnits="userSpaceOnUse"
       id="clipPath4086">
      <path
         d="m 63,45 513,0 0,450 -513,0 0,-450 z"
         id="path4088"
         inkscape:connector-curvature="0" />
    </clipPath>
    <clipPath
       clipPathUnits="userSpaceOnUse"
       id="clipPath4074">
      <path
         d="m 67.766,77.839 503.592,0 0,373.159 -503.592,0 0,-373.159 z"
         id="path4076"
         inkscape:connector-curvature="0" />
    </clipPath>
  </defs>
  <sodipodi:namedview
     pagecolor="#ffffff"
     bordercolor="#666666"
     borderopacity="1"
     objecttolerance="10"
     gridtolerance="10"
     guidetolerance="10"
     inkscape:pageopacity="0"
     inkscape:pageshadow="2"
     inkscape:window-width="1280"
     inkscape:window-height="1004"
     id="namedview58"
     showgrid="false"
     fit-margin-top="0"
     fit-margin-left="0"
     fit-margin-right="0"
     fit-margin-bottom="0"
     inkscape:zoom="2.4413477"
     inkscape:cx="115.71478"
     inkscape:cy="38.325341"
     inkscape:window-x="-8"
     inkscape:window-y="-8"
     inkscape:window-maximized="1"
     inkscape:current-layer="svg2"
     showguides="true"
     inkscape:guide-bbox="true" />
  <polygon
     points="235,375 315,205 395,375 315,545 "
     id="polygon10"
     style="fill:none;stroke:#ffffff;stroke-width:40"
     transform="translate(24159.255,15214.417)" />
  <!-- draw the bicycle -->
  <!-- RIGHT -->
  <!-- LANE -->
  <!-- ONLY -->
  <path
     d="m 48.199432,1.69412 601.214018,0 c 25.68699,0 46.51426,20.83692 46.51426,46.16713 l 0,462.71264 c 0,25.3302 -20.82727,46.1575 -46.51426,46.1575 l -601.214018,0 c -25.68698,0 -46.5142599,-20.8273 -46.5142599,-46.1575 l 0,-462.71264 c 0,-25.33021 20.8272799,-46.16713 46.5142599,-46.16713 z"
     style="fill:#ffffff;stroke:#000000;stroke-width:3.38666673;stroke-linecap:butt;stroke-linejoin:miter;stroke-miterlimit:4;stroke-opacity:1;stroke-dasharray:none"
     id="path4224"
     inkscape:connector-curvature="0" />
  <g
     id="g4226"
     transform="matrix(9.6422573,0,0,-9.6422573,50.629272,13.84337)"
     style="stroke:none">
    <path
       d="m 0,0 61.848,0 c 2.088,0 3.816,-1.692 3.816,-3.817 l 0,-47.41 c 0,-2.125 -1.728,-3.817 -3.816,-3.817 l -61.848,0 c -2.088,0 -3.816,1.692 -3.816,3.817 l 0,47.41 C -3.816,-1.692 -2.088,0 0,0"
       style="fill:#000000;fill-opacity:1;fill-rule:evenodd;stroke:none"
       id="path4228"
       inkscape:connector-curvature="0" />
  </g>
  <g
     id="g4230"
     transform="matrix(9.6422573,0,0,-9.6422573,50.629272,13.84337)"
     style="stroke:none">
    <path
       d="m 0,0 61.848,0 c 2.088,0 3.816,-1.692 3.816,-3.817 l 0,-47.41 c 0,-2.125 -1.728,-3.817 -3.816,-3.817 l -61.848,0 c -2.088,0 -3.816,1.692 -3.816,3.817 l 0,47.41 C -3.816,-1.692 -2.088,0 0,0 z"
       style="fill:none;stroke:none"
       id="path4232"
       inkscape:connector-curvature="0" />
  </g>
  <g
     id="g4234"
     transform="matrix(9.6422573,0,0,-9.6422573,51.323512,32.24078)"
     style="stroke:none">
    <path
       d="m 0,0 61.704,0 c 1.08,0 1.98,-0.864 1.98,-1.944 l 0,-47.34 c 0,-1.08 -0.9,-1.943 -1.98,-1.943 l -61.704,0 c -1.08,0 -1.98,0.863 -1.98,1.943 l 0,47.34 C -1.98,-0.864 -1.08,0 0,0"
       style="fill:#ffffff;fill-opacity:1;fill-rule:evenodd;stroke:none"
       id="path4236"
       inkscape:connector-curvature="0" />
  </g>
  <g
     id="g4238"
     transform="matrix(9.6422573,0,0,-9.6422573,51.323512,32.24078)"
     style="stroke:none">
    <path
       d="m 0,0 61.704,0 c 1.08,0 1.98,-0.864 1.98,-1.944 l 0,-47.34 c 0,-1.08 -0.9,-1.943 -1.98,-1.943 l -61.704,0 c -1.08,0 -1.98,0.863 -1.98,1.943 l 0,47.34 C -1.98,-0.864 -1.08,0 0,0 z"
       style="fill:none;stroke:none"
       id="path4240"
       inkscape:connector-curvature="0" />
  </g>
  <g
     id="g4242"
     transform="matrix(9.6422573,0,0,-9.6422573,551.52523,253.35702)"
     style="stroke:none">
    <path
       d="m 0,0 c 0,-0.432 -0.252,-0.828 -0.612,-1.008 -0.252,-0.144 -0.396,-0.18 -0.9,-0.18 l -1.8,0 0,2.34 1.8,0 c 0.504,0 0.648,-0.036 0.9,-0.144 C -0.252,0.793 0,0.396 0,0 M 1.692,-6.912 0.036,-2.447 C 0.9,-2.016 1.512,-1.008 1.512,0 1.512,0.973 0.9,1.98 0.036,2.377 -0.432,2.629 -0.936,2.664 -1.656,2.664 l -3.168,0 0,-9.576 1.512,0 0,4.176 1.8,0 1.548,-4.176 1.656,0 z m -8.1,0 0,1.549 -4.464,0 0,2.627 2.808,0 0,1.548 -2.808,0 0,2.34 4.176,0 0,1.512 -5.688,0 0,-9.576 5.976,0 z m -7.38,8.244 0,1.332 -5.904,0 0,-1.332 2.16,0 0,-8.244 1.512,0 0,8.244 2.232,0 z m -7.308,-8.244 0,9.576 -1.512,0 0,-6.119 -3.492,6.119 -1.512,0 0,-9.576 1.512,0 0,6.48 3.672,-6.48 1.332,0 z m -8.1,0 0,1.549 -4.464,0 0,2.627 2.808,0 0,1.548 -2.808,0 0,2.34 4.14,0 0,1.512 -5.652,0 0,-9.576 5.976,0 z m -8.064,1.944 -1.44,0.54 c -0.359,-0.756 -0.828,-1.115 -1.476,-1.115 -0.684,0 -1.116,0.252 -1.44,0.756 -0.36,0.611 -0.612,1.655 -0.612,2.699 0,0.793 0.144,1.62 0.36,2.195 0.36,0.866 0.864,1.19 1.62,1.19 0.756,0 1.044,-0.217 1.584,-1.008 L -37.26,0.9 c -0.612,1.332 -1.548,1.944 -2.988,1.944 -1.08,0 -1.872,-0.36 -2.448,-1.08 -0.684,-0.828 -1.08,-2.34 -1.08,-3.852 0,-1.225 0.252,-2.447 0.72,-3.275 0.576,-1.189 1.512,-1.729 2.916,-1.729 1.368,0 2.34,0.721 2.88,2.124"
       style="fill:#000000;fill-opacity:1;fill-rule:evenodd;stroke:none"
       id="path4244"
       inkscape:connector-curvature="0" />
  </g>
  <g
     id="g4246"
     transform="matrix(9.6422573,0,0,-9.6422573,350.54203,369.65231)"
     style="stroke:none">
    <path
       d="M 0,0 8.244,-5.579 0,-11.159 c -0.324,-0.251 -0.828,-0.144 -1.08,0.216 -0.144,0.252 -0.144,0.504 -0.036,0.793 l 0.72,2.411 -8.208,0 0,4.32 8.208,0 -0.72,2.376 c -0.108,0.36 -0.144,0.577 0.036,0.829 C -0.828,0.181 -0.324,0.252 0,0"
       style="fill:#000000;fill-opacity:1;fill-rule:evenodd;stroke:none"
       id="path4248"
       inkscape:connector-curvature="0" />
  </g>
  <g
     id="g4250"
     transform="matrix(9.6422573,0,0,-9.6422573,350.54203,369.65231)"
     style="stroke:none">
    <path
       d="M 0,0 8.244,-5.579 0,-11.159 c -0.324,-0.251 -0.828,-0.144 -1.08,0.216 -0.144,0.252 -0.144,0.504 -0.036,0.793 l 0.72,2.411 -8.208,0 0,4.32 8.208,0 -0.72,2.376 c -0.108,0.36 -0.144,0.577 0.036,0.829 C -0.828,0.181 -0.324,0.252 0,0 z"
       style="fill:none;stroke:none"
       id="path4252"
       inkscape:connector-curvature="0" />
  </g>
  <g
     id="g4254"
     transform="matrix(9.6422573,0,0,-9.6422573,613.65993,170.0383)"
     style="stroke:none">
    <path
       d="m 0,0 0,1.546 -4.428,0 0,2.629 2.772,0 0,1.548 -2.772,0 0,2.341 4.14,0 0,1.512 -5.652,0 L -5.94,0 0,0 z m -9.252,6.912 c 0,-0.433 -0.251,-0.828 -0.612,-1.008 -0.216,-0.145 -0.396,-0.181 -0.864,-0.181 l -1.836,0 0,2.341 1.836,0 c 0.504,0 0.648,-0.037 0.864,-0.144 0.361,-0.217 0.612,-0.613 0.612,-1.008 M -7.524,0 -9.216,4.462 c 0.864,0.433 1.476,1.442 1.476,2.45 0,0.97 -0.612,1.979 -1.44,2.375 -0.468,0.252 -0.972,0.289 -1.728,0.289 l -3.168,0 0,-9.576 1.512,0 0,4.175 1.836,0 L -9.18,0 -7.524,0 z m -11.088,4.248 -1.908,0 0.972,2.699 0.936,-2.699 z M -15.516,0 l -3.312,9.576 -1.512,0 -3.276,-9.576 1.62,0 0.936,2.699 2.988,0 0.936,-2.699 1.62,0 z m -8.676,8.064 0,1.512 -5.94,0 0,-9.576 1.512,0 0,4.175 2.772,0 0,1.548 -2.772,0 0,2.341 4.428,0 z M -31.536,0 l 0,1.404 -4.428,0 0,8.172 -1.512,0 0,-9.576 5.94,0 z m -7.524,0 0,1.546 -4.464,0 0,2.629 2.808,0 0,1.548 -2.808,0 0,2.341 4.14,0 0,1.512 -5.652,0 0,-9.576 5.976,0 z m -7.38,9.576 -1.548,0 -0.756,-5.041 -1.224,5.041 -1.512,0 -1.188,-5.041 -0.756,5.041 -1.548,0 1.404,-9.576 1.368,0 1.476,6.156 1.513,-6.156 1.331,0 1.44,9.576 z"
       style="fill:#000000;fill-opacity:1;fill-rule:evenodd;stroke:none"
       id="path4256"
       inkscape:connector-curvature="0" />
  </g>
</svg>
