<?xml version="1.0" encoding="UTF-8" standalone="no"?>
<svg
   xmlns:dc="http://purl.org/dc/elements/1.1/"
   xmlns:cc="http://creativecommons.org/ns#"
   xmlns:rdf="http://www.w3.org/1999/02/22-rdf-syntax-ns#"
   xmlns:svg="http://www.w3.org/2000/svg"
   xmlns="http://www.w3.org/2000/svg"
   xmlns:sodipodi="http://sodipodi.sourceforge.net/DTD/sodipodi-0.dtd"
   xmlns:inkscape="http://www.inkscape.org/namespaces/inkscape"
   width="247.18996"
   height="197.86047"
   viewBox="0 0 697.62495 558.40624"
   version="1.1"
   id="svg2"
   inkscape:version="0.48.2 r9819"
   sodipodi:docname="MUTCD EM-6c.svg">
  <metadata
     id="metadata62">
    <rdf:RDF>
      <cc:Work
         rdf:about="">
        <dc:format>image/svg+xml</dc:format>
        <dc:type
           rdf:resource="http://purl.org/dc/dcmitype/StillImage" />
        <dc:title></dc:title>
      </cc:Work>
    </rdf:RDF>
  </metadata>
  <defs
     id="defs60">
    <clipPath
       clipPathUnits="userSpaceOnUse"
       id="clipPath3564">
      <path
         inkscape:connector-curvature="0"
         d="m 63,43 512.622,0 0,313.129 L 63,356.129 63,43 z"
         id="path3566" />
    </clipPath>
    <clipPath
       clipPathUnits="userSpaceOnUse"
       id="clipPath4086">
      <path
         d="m 63,45 513,0 0,450 -513,0 0,-450 z"
         id="path4088"
         inkscape:connector-curvature="0" />
    </clipPath>
    <clipPath
       clipPathUnits="userSpaceOnUse"
       id="clipPath4074">
      <path
         d="m 67.766,77.839 503.592,0 0,373.159 -503.592,0 0,-373.159 z"
         id="path4076"
         inkscape:connector-curvature="0" />
    </clipPath>
  </defs>
  <sodipodi:namedview
     pagecolor="#ffffff"
     bordercolor="#666666"
     borderopacity="1"
     objecttolerance="10"
     gridtolerance="10"
     guidetolerance="10"
     inkscape:pageopacity="0"
     inkscape:pageshadow="2"
     inkscape:window-width="1280"
     inkscape:window-height="1004"
     id="namedview58"
     showgrid="false"
     fit-margin-top="0"
     fit-margin-left="0"
     fit-margin-right="0"
     fit-margin-bottom="0"
     inkscape:zoom="2.4413477"
     inkscape:cx="152.79227"
     inkscape:cy="62.829869"
     inkscape:window-x="-8"
     inkscape:window-y="-8"
     inkscape:window-maximized="1"
     inkscape:current-layer="svg2"
     showguides="true"
     inkscape:guide-bbox="true" />
  <polygon
     points="395,375 315,545 235,375 315,205 "
     id="polygon10"
     style="fill:none;stroke:#ffffff;stroke-width:40"
     transform="translate(24621.63,15478.386)" />
  <!-- draw the bicycle -->
  <!-- RIGHT -->
  <!-- LANE -->
  <!-- ONLY -->
  <path
     d="m 48.193142,1.678 601.204388,0 c 25.68697,0 46.52389,20.82728 46.52389,46.15749 l 0,462.37516 c 0,25.68697 -20.83692,46.51426 -46.52389,46.51426 l -601.204388,0 c -25.68698,0 -46.5142504,-20.82729 -46.5142504,-46.51426 l 0,-462.37516 C 1.6788916,22.50528 22.506162,1.678 48.193142,1.678 z"
     style="fill:#ffffff;stroke:#000000;stroke-width:3.38666675;stroke-miterlimit:4;stroke-opacity:1;stroke-dasharray:none"
     id="path4296"
     inkscape:connector-curvature="0" />
  <g
     id="g4298"
     transform="matrix(9.6422574,0,0,-9.6422574,50.623072,13.48977)"
     style="stroke:none">
    <path
       d="m 0,0 61.847,0 c 2.088,0 3.817,-1.726 3.817,-3.814 l 0,-47.449 c 0,-2.088 -1.729,-3.816 -3.817,-3.816 l -61.847,0 c -2.088,0 -3.817,1.728 -3.817,3.816 l 0,47.449 C -3.817,-1.726 -2.088,0 0,0"
       style="fill:#000000;fill-opacity:1;fill-rule:evenodd;stroke:none"
       id="path4300"
       inkscape:connector-curvature="0" />
  </g>
  <g
     id="g4302"
     transform="matrix(9.6422574,0,0,-9.6422574,50.623072,13.48977)"
     style="stroke:none">
    <path
       d="m 0,0 61.847,0 c 2.088,0 3.817,-1.726 3.817,-3.814 l 0,-47.449 c 0,-2.088 -1.729,-3.816 -3.817,-3.816 l -61.847,0 c -2.088,0 -3.817,1.728 -3.817,3.816 l 0,47.449 C -3.817,-1.726 -2.088,0 0,0 z"
       style="fill:none;stroke:none"
       id="path4304"
       inkscape:connector-curvature="0" />
  </g>
  <g
     id="g4306"
     transform="matrix(9.6422574,0,0,-9.6422574,51.307742,32.22467)"
     style="stroke:none">
    <path
       d="m 0,0 61.705,0 c 1.08,0 1.98,-0.863 1.98,-1.943 l 0,-47.34 c 0,-1.045 -0.9,-1.945 -1.98,-1.945 l -61.705,0 c -1.079,0 -1.979,0.9 -1.979,1.945 l 0,47.34 C -1.979,-0.863 -1.079,0 0,0"
       style="fill:#ffffff;fill-opacity:1;fill-rule:evenodd;stroke:none"
       id="path4308"
       inkscape:connector-curvature="0" />
  </g>
  <g
     id="g4310"
     transform="matrix(9.6422574,0,0,-9.6422574,51.307742,32.22467)"
     style="stroke:none">
    <path
       d="m 0,0 61.705,0 c 1.08,0 1.98,-0.863 1.98,-1.943 l 0,-47.34 c 0,-1.045 -0.9,-1.945 -1.98,-1.945 l -61.705,0 c -1.079,0 -1.979,0.9 -1.979,1.945 l 0,47.34 C -1.979,-0.863 -1.079,0 0,0 z"
       style="fill:none;stroke:none"
       id="path4312"
       inkscape:connector-curvature="0" />
  </g>
  <g
     id="g4314"
     transform="matrix(9.6422574,0,0,-9.6422574,633.44077,163.42687)"
     style="stroke:none">
    <path
       d="m 0,0 0,7.199 -0.9,0 0,-3.6 -1.296,3.6 -0.937,0 0,-7.199 0.937,0 0,4.248 L -0.793,0 0,0 z m -5.4,3.599 c 0,-0.468 0.072,-2.808 -0.721,-2.808 -0.827,0 -0.72,2.34 -0.72,2.808 0,0.504 -0.107,2.772 0.72,2.772 0.685,0 0.721,-2.196 0.721,-2.772 m 0.935,0 c 0,1.225 0.109,3.708 -1.656,3.708 -1.764,0 -1.655,-2.448 -1.655,-3.708 0,-1.187 -0.144,-3.744 1.655,-3.744 1.765,0 1.656,2.557 1.656,3.744 m -4.679,3.6 -0.901,0 0,-7.199 0.901,0 0,7.199 z m -1.909,-0.936 0,0.936 -2.736,0 0,-0.936 0.864,0 0,-6.263 0.937,0 0,6.263 0.935,0 z m -4.752,-3.42 -0.756,0 0.397,1.909 0.359,-1.909 z M -14.221,0 l -1.475,7.199 -0.937,0 -1.475,-7.199 0.935,0 0.397,1.908 1.188,0 0.396,-1.908 0.971,0 z m -4.859,0 0,7.199 -0.937,0 0,-3.6 -1.259,3.6 -0.937,0 0,-7.199 0.937,0 0,4.248 1.403,-4.248 0.793,0 z m -4.681,7.199 -0.899,0 0,-7.199 0.899,0 0,7.199 z M -26.244,0 l 0,7.199 -0.9,0 -0.865,-2.556 -0.899,2.556 -0.864,0 0,-7.199 0.864,0 0,4.248 0.899,-2.701 0.865,2.701 0,-4.248 0.9,0 z m -6.084,2.843 -0.756,0 0.396,1.909 0.36,-1.909 z M -30.744,0 l -1.513,7.199 -0.935,0 -1.441,-7.199 0.937,0 0.395,1.908 1.189,0 0.395,-1.908 0.973,0 z m -4.357,6.263 0,0.936 -2.735,0 0,-0.936 0.9,0 0,-6.263 0.899,0 0,6.263 0.936,0 z M -38.809,0 l 0,7.199 -0.9,0 0,-3.6 -1.295,3.6 -0.9,0 0,-7.199 0.9,0 0,4.248 1.403,-4.248 0.792,0 z m -5.4,3.599 c 0,-0.468 0.108,-2.808 -0.72,-2.808 -0.828,0 -0.719,2.34 -0.719,2.808 0,0.504 -0.109,2.772 0.719,2.772 0.685,0 0.72,-2.196 0.72,-2.772 m 0.973,0 c 0,1.225 0.072,3.708 -1.693,3.708 -1.763,0 -1.655,-2.448 -1.655,-3.708 0,-1.187 -0.108,-3.744 1.655,-3.744 1.765,0 1.693,2.557 1.693,3.744 m -4.464,-1.908 -0.937,0 c 0,-0.648 -0.179,-0.9 -0.504,-0.9 -0.288,0 -0.467,0.252 -0.576,0.756 -0.107,0.613 -0.143,1.008 -0.143,2.052 0,0.936 0.036,1.477 0.143,2.053 0.109,0.467 0.288,0.719 0.613,0.719 0.252,0 0.431,-0.18 0.467,-0.467 l 0.937,0 c -0.109,0.898 -0.612,1.403 -1.441,1.403 -0.863,0 -1.295,-0.432 -1.475,-1.548 -0.109,-0.576 -0.181,-1.511 -0.181,-2.16 0,-1.187 0.109,-2.16 0.288,-2.771 0.252,-0.649 0.685,-0.973 1.441,-0.973 0.611,0 1.115,0.36 1.259,0.863 0.073,0.253 0.109,0.434 0.109,0.973 M -51.732,0 l 0,0.935 -1.836,0 0,2.52 1.152,0 0,0.972 -1.152,0 0,1.836 1.727,0 0,0.936 -2.628,0 0,-7.199 2.737,0 z m -5.04,3.382 c 0,-0.646 -0.037,-1.439 -0.073,-1.691 -0.071,-0.539 -0.252,-0.756 -0.575,-0.756 l -0.612,0 0,5.328 0.612,0 c 0.359,0 0.504,-0.252 0.575,-1.045 0.036,-0.503 0.073,-1.294 0.073,-1.836 m 0.936,0.217 c 0,0.612 -0.037,1.26 -0.144,1.836 -0.037,0.469 -0.18,0.936 -0.361,1.225 -0.252,0.359 -0.575,0.539 -1.079,0.539 l -1.513,0 0,-7.199 1.513,0 c 0.396,0 0.756,0.107 0.936,0.359 0.431,0.469 0.648,1.549 0.648,3.24"
       style="fill:#000000;fill-opacity:1;fill-rule:evenodd;stroke:none"
       id="path4316"
       inkscape:connector-curvature="0" />
  </g>
  <g
     id="g4318"
     transform="matrix(9.6422574,0,0,-9.6422574,521.30993,247.0831)"
     style="stroke:none">
    <path
       d="m 0,0 c 0,-0.756 -0.432,-1.19 -1.26,-1.19 l -1.404,0 0,2.413 1.404,0 C -0.504,1.223 0,0.756 0,0 m 1.332,-7.022 -1.367,4.717 c 0.899,0.324 1.367,1.188 1.367,2.305 0,1.547 -1.008,2.555 -2.519,2.555 l -2.844,0 0,-9.577 1.367,0 0,4.5 1.297,0 1.296,-4.5 1.403,0 z m -6.983,0 0,1.332 -3.529,0 0,3.168 2.016,0 0,1.332 -2.016,0 0,2.413 3.132,0 0,1.332 -4.5,0 0,-9.577 4.897,0 z m -6.193,8.317 0,1.26 -4.895,0 0,-1.26 1.764,0 0,-8.317 1.368,0 0,8.317 1.763,0 z m -6.191,-8.317 0,9.577 -1.368,0 0,-5.723 -2.628,5.723 -1.368,0 0,-9.577 1.368,0 0,6.446 2.951,-6.446 1.045,0 z m -6.984,0 0,1.332 -3.493,0 0,3.168 1.981,0 0,1.332 -1.981,0 0,2.413 3.132,0 0,1.332 -4.536,0 0,-9.577 4.897,0 z M -31.787,0 c -0.108,0.899 -0.252,1.295 -0.612,1.764 -0.433,0.648 -1.116,0.971 -1.872,0.971 -1.909,0 -2.88,-1.655 -2.88,-4.752 0,-3.528 0.935,-5.184 2.987,-5.184 1.332,0 2.34,1.152 2.377,2.736 l -1.368,0 c 0,-0.72 -0.216,-1.367 -1.009,-1.367 -1.187,0 -1.655,1.115 -1.655,3.851 0,2.485 0.395,3.384 1.512,3.384 0.647,0 1.007,-0.432 1.152,-1.403 l 1.368,0 z"
       style="fill:#000000;fill-opacity:1;fill-rule:evenodd;stroke:none"
       id="path4320"
       inkscape:connector-curvature="0" />
  </g>
  <g
     id="g4322"
     transform="matrix(9.6422574,0,0,-9.6422574,350.52625,364.41008)"
     style="stroke:none">
    <path
       d="M 0,0 8.244,-5.545 0,-11.125 c -0.323,-0.252 -0.827,-0.144 -1.079,0.217 -0.144,0.252 -0.144,0.504 -0.037,0.791 l 0.721,2.412 -8.208,0 0,4.32 8.208,0 -0.721,2.376 c -0.107,0.324 -0.144,0.576 0.037,0.828 C -0.827,0.18 -0.323,0.252 0,0"
       style="fill:#000000;fill-opacity:1;fill-rule:evenodd;stroke:none"
       id="path4324"
       inkscape:connector-curvature="0" />
  </g>
  <g
     id="g4326"
     transform="matrix(9.6422574,0,0,-9.6422574,350.52625,364.41008)"
     style="stroke:none">
    <path
       d="M 0,0 8.244,-5.545 0,-11.125 c -0.323,-0.252 -0.827,-0.144 -1.079,0.217 -0.144,0.252 -0.144,0.504 -0.037,0.791 l 0.721,2.412 -8.208,0 0,4.32 8.208,0 -0.721,2.376 c -0.107,0.324 -0.144,0.576 0.037,0.828 C -0.827,0.18 -0.323,0.252 0,0 z"
       style="fill:none;stroke:none"
       id="path4328"
       inkscape:connector-curvature="0" />
  </g>
</svg>
