<?xml version="1.0" encoding="UTF-8" standalone="no"?>
<svg
   xmlns:dc="http://purl.org/dc/elements/1.1/"
   xmlns:cc="http://creativecommons.org/ns#"
   xmlns:rdf="http://www.w3.org/1999/02/22-rdf-syntax-ns#"
   xmlns:svg="http://www.w3.org/2000/svg"
   xmlns="http://www.w3.org/2000/svg"
   xmlns:sodipodi="http://sodipodi.sourceforge.net/DTD/sodipodi-0.dtd"
   xmlns:inkscape="http://www.inkscape.org/namespaces/inkscape"
   width="247.18996"
   height="197.99335"
   viewBox="0 0 697.62495 558.78124"
   version="1.1"
   id="svg2"
   inkscape:version="0.48.2 r9819"
   sodipodi:docname="MUTCD EM-7a.svg">
  <metadata
     id="metadata62">
    <rdf:RDF>
      <cc:Work
         rdf:about="">
        <dc:format>image/svg+xml</dc:format>
        <dc:type
           rdf:resource="http://purl.org/dc/dcmitype/StillImage" />
        <dc:title></dc:title>
      </cc:Work>
    </rdf:RDF>
  </metadata>
  <defs
     id="defs60">
    <clipPath
       clipPathUnits="userSpaceOnUse"
       id="clipPath3564">
      <path
         inkscape:connector-curvature="0"
         d="m 63,43 512.622,0 0,313.129 L 63,356.129 63,43 z"
         id="path3566" />
    </clipPath>
    <clipPath
       clipPathUnits="userSpaceOnUse"
       id="clipPath4086">
      <path
         d="m 63,45 513,0 0,450 -513,0 0,-450 z"
         id="path4088"
         inkscape:connector-curvature="0" />
    </clipPath>
    <clipPath
       clipPathUnits="userSpaceOnUse"
       id="clipPath4074">
      <path
         d="m 67.766,77.839 503.592,0 0,373.159 -503.592,0 0,-373.159 z"
         id="path4076"
         inkscape:connector-curvature="0" />
    </clipPath>
  </defs>
  <sodipodi:namedview
     pagecolor="#ffffff"
     bordercolor="#666666"
     borderopacity="1"
     objecttolerance="10"
     gridtolerance="10"
     guidetolerance="10"
     inkscape:pageopacity="0"
     inkscape:pageshadow="2"
     inkscape:window-width="1280"
     inkscape:window-height="1004"
     id="namedview58"
     showgrid="false"
     fit-margin-top="0"
     fit-margin-left="0"
     fit-margin-right="0"
     fit-margin-bottom="0"
     inkscape:zoom="2.4413477"
     inkscape:cx="123.31943"
     inkscape:cy="40.194029"
     inkscape:window-x="-8"
     inkscape:window-y="-8"
     inkscape:window-maximized="1"
     inkscape:current-layer="svg2"
     showguides="true"
     inkscape:guide-bbox="true" />
  <polygon
     points="235,375 315,205 395,375 315,545 "
     id="polygon10"
     style="fill:none;stroke:#ffffff;stroke-width:40"
     transform="translate(25458.997,16058.298)" />
  <!-- draw the bicycle -->
  <!-- RIGHT -->
  <!-- LANE -->
  <!-- ONLY -->
  <path
     d="m 47.970122,1.69994 601.676858,0 c 25.49413,0 46.28284,20.77906 46.28284,46.28283 l 0,462.82835 c 0,25.49415 -20.78871,46.28284 -46.28284,46.28284 l -601.676858,0 c -25.49412,0 -46.2828296,-20.78869 -46.2828296,-46.28284 l 0,-462.82835 C 1.6872924,22.479 22.476002,1.69994 47.970122,1.69994 z"
     style="fill:#ffffff;stroke:#000000;stroke-width:3.38666676;stroke-miterlimit:4;stroke-opacity:1;stroke-dasharray:none"
     id="path3772"
     inkscape:connector-curvature="0" />
  <g
     id="g3774"
     transform="matrix(9.6422574,0,0,-9.6422574,50.631402,13.72382)"
     style="stroke:none">
    <path
       d="m 0,0 61.849,0 c 2.107,0 3.827,-1.717 3.827,-3.821 l 0,-47.464 c 0,-2.104 -1.72,-3.82 -3.827,-3.82 l -61.849,0 c -2.108,0 -3.828,1.716 -3.828,3.82 l 0,47.464 C -3.828,-1.717 -2.108,0 0,0"
       style="fill:#000000;fill-opacity:1;fill-rule:evenodd;stroke:none"
       id="path3776"
       inkscape:connector-curvature="0" />
  </g>
  <g
     id="g3778"
     transform="matrix(9.6422574,0,0,-9.6422574,50.631402,13.72382)"
     style="stroke:none">
    <path
       d="m 0,0 61.849,0 c 2.107,0 3.827,-1.717 3.827,-3.821 l 0,-47.464 c 0,-2.104 -1.72,-3.82 -3.827,-3.82 l -61.849,0 c -2.108,0 -3.828,1.716 -3.828,3.82 l 0,47.464 C -3.828,-1.717 -2.108,0 0,0 z"
       style="fill:none;stroke:none"
       id="path3780"
       inkscape:connector-curvature="0" />
  </g>
  <g
     id="g3782"
     transform="matrix(9.6422574,0,0,-9.6422574,51.026732,32.23697)"
     style="stroke:none">
    <path
       d="m 0,0 61.767,0 c 1.072,0 1.948,-0.874 1.948,-1.946 l 0,-47.375 c 0,-1.071 -0.876,-1.944 -1.948,-1.944 l -61.767,0 c -1.074,0 -1.949,0.873 -1.949,1.944 l 0,47.375 C -1.949,-0.874 -1.074,0 0,0"
       style="fill:#ffffff;fill-opacity:1;fill-rule:evenodd;stroke:none"
       id="path3784"
       inkscape:connector-curvature="0" />
  </g>
  <g
     id="g3786"
     transform="matrix(9.6422574,0,0,-9.6422574,51.026732,32.23697)"
     style="stroke:none">
    <path
       d="m 0,0 61.767,0 c 1.072,0 1.948,-0.874 1.948,-1.946 l 0,-47.375 c 0,-1.071 -0.876,-1.944 -1.948,-1.944 l -61.767,0 c -1.074,0 -1.949,0.873 -1.949,1.944 l 0,47.375 C -1.949,-0.874 -1.074,0 0,0 z"
       style="fill:none;stroke:none"
       id="path3788"
       inkscape:connector-curvature="0" />
  </g>
  <g
     id="g3790"
     transform="matrix(9.6422574,0,0,-9.6422574,592.05378,163.6513)"
     style="stroke:none">
    <path
       d="m 0,0 0,1.162 -3.332,0 0,1.969 2.096,0 0,1.162 -2.096,0 0,1.767 3.106,0 0,1.136 -4.242,0 L -4.468,0 0,0 z m -5.945,0 0,7.196 -1.137,0 0,-4.595 -2.626,4.595 -1.135,0 0,-7.196 1.135,0 0,4.873 2.753,-4.873 1.01,0 z m -8.092,3.182 -1.439,0 0.732,2.019 0.707,-2.019 z M -11.715,0 l -2.474,7.196 -1.137,0 L -17.8,0 l 1.212,0 0.707,2.02 2.248,0 0.707,-2.02 1.211,0 z m -6.804,1.465 -1.086,0.404 c -0.278,-0.581 -0.631,-0.834 -1.111,-0.834 -0.504,0 -0.833,0.178 -1.085,0.556 -0.279,0.455 -0.455,1.237 -0.455,2.02 0,0.606 0.101,1.237 0.278,1.666 0.252,0.631 0.631,0.884 1.212,0.884 0.555,0 0.782,-0.151 1.186,-0.758 l 1.061,0.454 c -0.48,1.011 -1.162,1.465 -2.247,1.465 -0.808,0 -1.414,-0.277 -1.843,-0.807 -0.506,-0.632 -0.809,-1.768 -0.809,-2.904 0,-0.909 0.203,-1.818 0.532,-2.449 0.453,-0.884 1.135,-1.292 2.195,-1.292 1.035,0 1.742,0.534 2.172,1.595 m -6.224,5.731 -1.161,0 0,-7.196 1.161,0 0,7.196 z m -3.421,-2.019 c 0,-0.304 -0.177,-0.607 -0.454,-0.758 -0.178,-0.101 -0.304,-0.126 -0.657,-0.126 l -1.363,0 0,1.767 1.363,0 c 0.379,0 0.479,-0.025 0.657,-0.127 0.277,-0.151 0.454,-0.454 0.454,-0.756 M -26.877,0 -28.139,3.358 c 0.657,0.303 1.111,1.061 1.111,1.819 0,0.731 -0.454,1.489 -1.086,1.792 -0.353,0.176 -0.731,0.227 -1.287,0.227 l -2.373,0 0,-7.196 1.136,0 0,3.131 1.363,0 1.161,-3.131 1.237,0 z m -7.157,5.177 c 0,-0.304 -0.178,-0.607 -0.455,-0.758 -0.177,-0.101 -0.303,-0.126 -0.656,-0.126 l -1.363,0 0,1.767 1.363,0 c 0.379,0 0.479,-0.025 0.656,-0.127 0.277,-0.151 0.455,-0.454 0.455,-0.756 M -32.747,0 -34.008,3.358 c 0.656,0.303 1.11,1.061 1.11,1.819 0,0.731 -0.454,1.489 -1.085,1.792 -0.354,0.176 -0.733,0.227 -1.288,0.227 l -2.374,0 0,-7.196 1.137,0 0,3.131 1.363,0 1.162,-3.131 1.236,0 z m -6.375,2.576 0,4.62 -1.136,0 0,-4.62 c 0,-0.934 -0.53,-1.541 -1.313,-1.541 -0.782,0 -1.312,0.607 -1.312,1.541 l 0,4.62 -1.137,0 0,-4.62 c 0,-0.556 0.127,-1.06 0.328,-1.49 0.379,-0.707 1.237,-1.216 2.121,-1.216 0.884,0 1.742,0.509 2.121,1.216 0.202,0.43 0.328,0.934 0.328,1.49 M -45.497,0 l 0,7.196 -1.136,0 0,-2.903 -2.625,0 0,2.903 -1.137,0 0,-7.196 1.137,0 0,3.131 2.625,0 0,-3.131 1.136,0 z"
       style="fill:#000000;fill-opacity:1;fill-rule:evenodd;stroke:none"
       id="path3792"
       inkscape:connector-curvature="0" />
  </g>
  <g
     id="g3794"
     transform="matrix(9.6422574,0,0,-9.6422574,627.02625,261.33699)"
     style="stroke:none">
    <path
       d="M 0,0 C 0,-0.504 -0.295,-1.01 -0.758,-1.262 -1.052,-1.43 -1.261,-1.473 -1.851,-1.473 l -2.272,0 0,2.947 2.272,0 c 0.631,0 0.799,-0.042 1.093,-0.211 C -0.295,1.011 0,0.506 0,0 m 2.147,-8.626 -2.104,5.597 c 1.094,0.505 1.852,1.767 1.852,3.029 0,1.221 -0.758,2.483 -1.811,2.988 -0.589,0.295 -1.219,0.379 -2.145,0.379 l -3.956,0 0,-11.993 1.894,0 0,5.219 2.272,0 1.935,-5.219 2.063,0 z m -9.907,0 0,1.935 -5.554,0 0,3.284 3.493,0 0,1.934 -3.493,0 0,2.947 5.177,0 0,1.893 -7.07,0 0,-11.993 7.447,0 z m -8.978,10.31 0,1.683 -7.406,0 0,-1.683 2.734,0 0,-10.31 1.894,0 0,10.31 2.778,0 z m -5.783,-10.31 0,1.767 -5.554,0 0,10.226 -1.893,0 0,-11.993 7.447,0 z m -9.19,0 0,1.935 -5.554,0 0,3.284 3.493,0 0,1.934 -3.493,0 0,2.947 5.175,0 0,1.893 -7.069,0 0,-11.993 7.448,0 z m -10.032,0 0,11.993 -1.893,0 0,-4.84 -4.376,0 0,4.84 -1.894,0 0,-11.993 1.894,0 0,5.219 4.376,0 0,-5.219 1.893,0 z m -9.905,3.451 c 0,4.712 -5.639,3.239 -5.808,5.47 -0.084,1.094 0.969,1.431 1.852,1.389 1.346,-0.042 1.767,-1.052 1.767,-1.052 l 1.684,0.505 c -0.59,1.472 -1.726,2.44 -3.408,2.44 -2.147,0 -3.746,-0.884 -3.746,-3.24 0,-1.978 1.599,-2.692 2.314,-2.987 1.558,-0.632 3.409,-0.884 3.409,-2.484 0,-1.01 -0.758,-1.768 -1.851,-1.768 -1.136,0 -2.062,0.632 -2.568,1.768 l -1.808,-0.673 c 0.799,-1.81 2.314,-3.036 4.376,-3.036 1.009,0 1.935,0.344 2.608,0.931 0.758,0.674 1.179,1.642 1.179,2.737"
       style="fill:#000000;fill-opacity:1;fill-rule:evenodd;stroke:none"
       id="path3796"
       inkscape:connector-curvature="0" />
  </g>
  <g
     id="g3798"
     transform="matrix(9.6422574,0,0,-9.6422574,449.4448,451.40518)"
     style="stroke:none">
    <path
       d="M 0,0 -3.408,0 0,4.502 0,0 z m 3.031,-1.727 0,1.727 -1.137,0 0,7.279 -1.894,0 -5.932,-7.869 0,-1.137 5.932,0 0,-2.987 1.894,0 0,2.987 1.137,0 z"
       style="fill:#000000;fill-opacity:1;fill-rule:evenodd;stroke:none"
       id="path3800"
       inkscape:connector-curvature="0" />
  </g>
  <path
     d="m 592.79532,403.94702 -11.26216,0 0,69.80031 11.26216,0 0,-69.80031 z m -27.91435,69.80031 0,-69.80031 -11.02109,0 -16.17006,39.18614 -16.16041,-39.18614 -11.02112,0 0,69.80031 11.02112,0 0,-40.42032 16.16041,40.42032 16.17006,-40.42032 0,40.42032 11.02109,0 z"
     style="fill:#000000;fill-opacity:1;fill-rule:evenodd;stroke:none"
     id="path3802"
     inkscape:connector-curvature="0" />
  <g
     id="g3804"
     transform="matrix(9.6422574,0,0,-9.6422574,192.69078,501.68956)"
     style="stroke:none">
    <path
       d="M 0,0 -9.188,6.215 0,12.439 c 0.406,0.276 0.96,0.17 1.236,-0.235 0.183,-0.271 0.15,-0.55 0.065,-0.884 l -0.81,-2.697 11.935,0 0,-4.813 -11.935,0 0.792,-2.654 C 1.384,0.789 1.427,0.517 1.236,0.235 0.96,-0.17 0.406,-0.276 0,0"
       style="fill:#000000;fill-opacity:1;fill-rule:evenodd;stroke:none"
       id="path3806"
       inkscape:connector-curvature="0" />
  </g>
  <g
     id="g3808"
     transform="matrix(9.6422574,0,0,-9.6422574,192.69078,501.68956)"
     style="stroke:none">
    <path
       d="M 0,0 -9.188,6.215 0,12.439 c 0.406,0.276 0.96,0.17 1.236,-0.235 0.183,-0.271 0.15,-0.55 0.065,-0.884 l -0.81,-2.697 11.935,0 0,-4.813 -11.935,0 0.792,-2.654 C 1.384,0.789 1.427,0.517 1.236,0.235 0.96,-0.17 0.406,-0.276 0,0 z"
       style="fill:none;stroke:none"
       id="path3810"
       inkscape:connector-curvature="0" />
  </g>
</svg>
