<?xml version="1.0" encoding="UTF-8" standalone="no"?>
<svg
   xmlns:dc="http://purl.org/dc/elements/1.1/"
   xmlns:cc="http://creativecommons.org/ns#"
   xmlns:rdf="http://www.w3.org/1999/02/22-rdf-syntax-ns#"
   xmlns:svg="http://www.w3.org/2000/svg"
   xmlns="http://www.w3.org/2000/svg"
   xmlns:sodipodi="http://sodipodi.sourceforge.net/DTD/sodipodi-0.dtd"
   xmlns:inkscape="http://www.inkscape.org/namespaces/inkscape"
   width="245.45761"
   height="196.66504"
   viewBox="0 0 692.73589 555.03246"
   version="1.1"
   id="svg2"
   inkscape:version="0.48.2 r9819"
   sodipodi:docname="MUTCD EM-6d.svg">
  <metadata
     id="metadata62">
    <rdf:RDF>
      <cc:Work
         rdf:about="">
        <dc:format>image/svg+xml</dc:format>
        <dc:type
           rdf:resource="http://purl.org/dc/dcmitype/StillImage" />
        <dc:title></dc:title>
      </cc:Work>
    </rdf:RDF>
  </metadata>
  <defs
     id="defs60">
    <clipPath
       clipPathUnits="userSpaceOnUse"
       id="clipPath3564">
      <path
         inkscape:connector-curvature="0"
         d="m 63,43 512.622,0 0,313.129 L 63,356.129 63,43 z"
         id="path3566" />
    </clipPath>
    <clipPath
       clipPathUnits="userSpaceOnUse"
       id="clipPath4086">
      <path
         d="m 63,45 513,0 0,450 -513,0 0,-450 z"
         id="path4088"
         inkscape:connector-curvature="0" />
    </clipPath>
    <clipPath
       clipPathUnits="userSpaceOnUse"
       id="clipPath4074">
      <path
         d="m 67.766,77.839 503.592,0 0,373.159 -503.592,0 0,-373.159 z"
         id="path4076"
         inkscape:connector-curvature="0" />
    </clipPath>
  </defs>
  <sodipodi:namedview
     pagecolor="#ffffff"
     bordercolor="#666666"
     borderopacity="1"
     objecttolerance="10"
     gridtolerance="10"
     guidetolerance="10"
     inkscape:pageopacity="0"
     inkscape:pageshadow="2"
     inkscape:window-width="1280"
     inkscape:window-height="1004"
     id="namedview58"
     showgrid="false"
     fit-margin-top="0"
     fit-margin-left="0"
     fit-margin-right="0"
     fit-margin-bottom="0"
     inkscape:zoom="2.4413477"
     inkscape:cx="99.634462"
     inkscape:cy="49.108555"
     inkscape:window-x="-8"
     inkscape:window-y="-8"
     inkscape:window-maximized="1"
     inkscape:current-layer="svg2"
     showguides="true"
     inkscape:guide-bbox="true" />
  <polygon
     points="315,205 395,375 315,545 235,375 "
     id="polygon10"
     style="fill:none;stroke:#ffffff;stroke-width:40"
     transform="translate(24978.403,15782.517)" />
  <!-- draw the bicycle -->
  <!-- RIGHT -->
  <!-- LANE -->
  <!-- ONLY -->
  <g
     id="g3824"
     transform="matrix(9.6422574,0,0,-9.6422574,47.608618,1.8079233)"
     style="stroke:none">
    <path
       d="m 0,0 61.969,0 c 2.627,0 4.768,-2.142 4.768,-4.768 l 0,-47.669 c 0,-2.625 -2.141,-4.767 -4.768,-4.767 l -61.969,0 c -2.625,0 -4.768,2.142 -4.768,4.767 l 0,47.669 C -4.768,-2.142 -2.625,0 0,0 z"
       style="fill:#ffffff;stroke:#000000;stroke-width:0.35123173;stroke-miterlimit:4;stroke-opacity:1;stroke-dasharray:none"
       id="path3826"
       inkscape:connector-curvature="0" />
  </g>
  <g
     id="g3828"
     transform="matrix(9.6422574,0,0,-9.6422574,50.244808,13.764323)"
     style="stroke:none">
    <path
       d="m 0,0 61.422,0 c 2.093,0 3.802,-1.704 3.802,-3.793 l 0,-47.139 c 0,-2.088 -1.709,-3.793 -3.802,-3.793 l -61.422,0 c -2.094,0 -3.801,1.705 -3.801,3.793 l 0,47.139 C -3.801,-1.704 -2.094,0 0,0"
       style="fill:#000000;fill-opacity:1;fill-rule:evenodd;stroke:none"
       id="path3830"
       inkscape:connector-curvature="0" />
  </g>
  <g
     id="g3832"
     transform="matrix(9.6422574,0,0,-9.6422574,50.244808,13.764323)"
     style="stroke:none">
    <path
       d="m 0,0 61.422,0 c 2.093,0 3.802,-1.704 3.802,-3.793 l 0,-47.139 c 0,-2.088 -1.709,-3.793 -3.802,-3.793 l -61.422,0 c -2.094,0 -3.801,1.705 -3.801,3.793 l 0,47.139 C -3.801,-1.704 -2.094,0 0,0 z"
       style="fill:none;stroke:none"
       id="path3834"
       inkscape:connector-curvature="0" />
  </g>
  <path
     d="m 50.640138,32.152123 591.475362,0 c 10.25934,0 18.63846,8.35983 18.63846,18.60955 l 0,453.668207 c 0,10.25937 -8.37912,18.60956 -18.63846,18.60956 l -591.475362,0 c -10.27864,0 -18.66741,-8.35019 -18.66741,-18.60956 l 0,-453.668207 c 0,-10.24972 8.38877,-18.60955 18.66741,-18.60955"
     style="fill:#ffffff;fill-opacity:1;fill-rule:evenodd;stroke:none"
     id="path3838"
     inkscape:connector-curvature="0" />
  <g
     id="g3840"
     transform="matrix(9.6422574,0,0,-9.6422574,50.640138,32.152123)"
     style="stroke:none">
    <path
       d="m 0,0 61.342,0 c 1.064,0 1.933,-0.867 1.933,-1.93 l 0,-47.05 c 0,-1.064 -0.869,-1.93 -1.933,-1.93 L 0,-50.91 c -1.066,0 -1.936,0.866 -1.936,1.93 l 0,47.05 C -1.936,-0.867 -1.066,0 0,0 z"
       style="fill:none;stroke:none"
       id="path3842"
       inkscape:connector-curvature="0" />
  </g>
  <g
     id="g3844"
     transform="matrix(9.6422574,0,0,-9.6422574,606.42175,93.737213)"
     style="stroke:none">
    <path
       d="M 0,0 -1.328,0 -3.058,-2.759 -4.763,0 l -1.354,0 2.508,-4.037 0,-3.11 1.127,0 0,3.11 L 0,0 z m -6.957,-5.693 -1.078,0.402 c -0.275,-0.577 -0.627,-0.828 -1.103,-0.828 -0.502,0 -0.828,0.176 -1.078,0.552 -0.276,0.451 -0.452,1.229 -0.452,2.006 0,0.602 0.1,1.229 0.276,1.655 0.25,0.627 0.627,0.877 1.203,0.877 0.553,0 0.777,-0.15 1.18,-0.752 l 1.052,0.452 c -0.476,1.002 -1.154,1.454 -2.232,1.454 -0.801,0 -1.404,-0.276 -1.83,-0.802 -0.502,-0.627 -0.803,-1.756 -0.803,-2.884 0,-0.902 0.201,-1.806 0.528,-2.433 0.451,-0.876 1.128,-1.282 2.181,-1.282 1.028,0 1.731,0.531 2.156,1.583 m -6.181,-1.454 0,7.147 -1.127,0 0,-4.564 -2.61,4.564 -1.127,0 0,-7.147 1.127,0 0,4.839 2.735,-4.839 1.002,0 z m -5.828,0 0,1.153 -3.311,0 0,1.957 2.08,0 0,1.153 -2.08,0 0,1.756 3.084,0 0,1.128 -4.213,0 0,-7.147 4.44,0 z m -5.782,2.132 0,1.429 -2.431,0 0,-1.128 1.303,0 0,-0.301 c 0,-0.652 -0.526,-1.104 -1.252,-1.104 -0.427,0 -0.753,0.176 -0.979,0.577 -0.226,0.451 -0.352,1.204 -0.352,1.956 0,0.602 0.102,1.254 0.277,1.68 0.251,0.627 0.627,0.877 1.204,0.877 0.551,0 0.851,-0.225 1.152,-0.852 l 1.078,0.427 c -0.474,1.127 -1.128,1.579 -2.23,1.579 -0.803,0 -1.404,-0.276 -1.831,-0.802 -0.476,-0.627 -0.802,-1.756 -0.802,-2.909 0,-0.877 0.176,-1.755 0.477,-2.382 0.425,-0.902 1.052,-1.308 2.131,-1.308 1.302,0 2.255,0.956 2.255,2.261 m -6.957,3.009 c 0,-0.302 -0.175,-0.603 -0.451,-0.753 -0.176,-0.1 -0.301,-0.125 -0.652,-0.125 l -1.354,0 0,1.756 1.354,0 c 0.376,0 0.476,-0.026 0.652,-0.126 0.276,-0.151 0.451,-0.451 0.451,-0.752 m 1.28,-5.141 -1.255,3.335 c 0.651,0.301 1.103,1.053 1.103,1.806 0,0.727 -0.452,1.479 -1.078,1.78 C -32.005,-0.05 -32.382,0 -32.933,0 l -2.358,0 0,-7.147 1.129,0 0,3.11 1.354,0 1.153,-3.11 1.23,0 z m -5.83,0 0,1.153 -3.311,0 0,1.957 2.082,0 0,1.153 -2.082,0 0,1.756 3.084,0 0,1.128 -4.213,0 0,-7.147 4.44,0 z m -5.931,0 0,7.147 -1.128,0 -1.655,-4.012 -1.656,4.012 -1.126,0 0,-7.147 1.126,0 0,4.138 1.656,-4.138 1.655,4.138 0,-4.138 1.128,0 z m -6.532,0 0,1.153 -3.309,0 0,1.957 2.08,0 0,1.153 -2.08,0 0,1.756 3.084,0 0,1.128 -4.213,0 0,-7.147 4.438,0 z"
       style="fill:#000000;fill-opacity:1;fill-rule:evenodd;stroke:none"
       id="path3846"
       inkscape:connector-curvature="0" />
  </g>
  <g
     id="g3848"
     transform="matrix(9.6422574,0,0,-9.6422574,622.6786,259.65152)"
     style="stroke:none">
    <path
       d="m 0,0 c 0,-0.502 -0.293,-1.003 -0.752,-1.254 -0.293,-0.167 -0.502,-0.209 -1.086,-0.209 l -2.258,0 0,2.925 2.258,0 c 0.625,0 0.793,-0.042 1.086,-0.209 C -0.293,1.003 0,0.501 0,0 m 2.131,-8.567 -2.09,5.558 c 1.088,0.501 1.84,1.755 1.84,3.009 0,1.212 -0.752,2.465 -1.797,2.966 -0.586,0.293 -1.213,0.376 -2.131,0.376 l -3.93,0 0,-11.909 1.881,0 0,5.182 2.258,0 1.922,-5.182 2.047,0 z m -9.836,0 0,1.922 -5.518,0 0,3.26 3.469,0 0,1.922 -3.469,0 0,2.925 5.141,0 0,1.88 -7.022,0 0,-11.909 7.399,0 z m -8.918,10.238 0,1.671 -7.356,0 0,-1.671 2.715,0 0,-10.238 1.881,0 0,10.238 2.76,0 z m -5.742,-10.238 0,1.754 -5.518,0 0,10.155 -1.88,0 0,-11.909 7.398,0 z m -9.127,0 0,1.922 -5.518,0 0,3.26 3.469,0 0,1.922 -3.469,0 0,2.925 5.141,0 0,1.88 -7.02,0 0,-11.909 7.397,0 z m -9.963,0 0,11.909 -1.881,0 0,-4.805 -4.346,0 0,4.805 -1.88,0 0,-11.909 1.88,0 0,5.182 4.346,0 0,-5.182 1.881,0 z m -9.838,3.426 c 0,4.681 -5.6,3.218 -5.768,5.433 -0.082,1.086 0.962,1.42 1.84,1.379 1.337,-0.042 1.755,-1.044 1.755,-1.044 l 1.672,0.501 c -0.585,1.462 -1.714,2.423 -3.386,2.423 -2.131,0 -3.718,-0.877 -3.718,-3.217 0,-1.964 1.587,-2.674 2.298,-2.967 1.546,-0.627 3.385,-0.877 3.385,-2.466 0,-1.002 -0.752,-1.755 -1.839,-1.755 -1.128,0 -2.048,0.627 -2.55,1.755 L -59.4,-5.768 c 0.795,-1.797 2.298,-3.016 4.346,-3.016 1.003,0 1.923,0.342 2.591,0.927 0.752,0.669 1.17,1.63 1.17,2.716"
       style="fill:#000000;fill-opacity:1;fill-rule:evenodd;stroke:none"
       id="path3850"
       inkscape:connector-curvature="0" />
  </g>
  <g
     id="g3852"
     transform="matrix(9.6422574,0,0,-9.6422574,499.6627,379.22516)"
     style="stroke:none">
    <path
       d="M 0,0 9.125,-6.173 0,-12.355 c -0.403,-0.273 -0.953,-0.168 -1.227,0.234 -0.182,0.268 -0.148,0.547 -0.064,0.878 l 0.804,2.678 -11.853,0 0,4.781 11.853,0 -0.787,2.635 c -0.101,0.364 -0.143,0.633 0.047,0.914 C -0.953,0.168 -0.403,0.273 0,0"
       style="fill:#000000;fill-opacity:1;fill-rule:evenodd;stroke:none"
       id="path3854"
       inkscape:connector-curvature="0" />
  </g>
  <g
     id="g3856"
     transform="matrix(9.6422574,0,0,-9.6422574,499.6627,379.22516)"
     style="stroke:none">
    <path
       d="M 0,0 9.125,-6.173 0,-12.355 c -0.403,-0.273 -0.953,-0.168 -1.227,0.234 -0.182,0.268 -0.148,0.547 -0.064,0.878 l 0.804,2.678 -11.853,0 0,4.781 11.853,0 -0.787,2.635 c -0.101,0.364 -0.143,0.633 0.047,0.914 C -0.953,0.168 -0.403,0.273 0,0 z"
       style="fill:none;stroke:none"
       id="path3858"
       inkscape:connector-curvature="0" />
  </g>
  <path
     d="m 299.19923,401.27806 -11.19465,0 0,69.32782 11.19465,0 0,-69.32782 z m -27.72148,69.32782 0,-69.32782 -10.96325,0 -16.04472,38.92577 -16.04471,-38.92577 -10.96325,0 0,69.32782 10.96325,0 0,-40.13107 16.04471,40.13107 16.04472,-40.13107 0,40.13107 10.96325,0 z"
     style="fill:#000000;fill-opacity:1;fill-rule:evenodd;stroke:none"
     id="path3860"
     inkscape:connector-curvature="0" />
  <g
     id="g3862"
     transform="matrix(9.6422574,0,0,-9.6422574,105.15071,493.45696)"
     style="stroke:none">
    <path
       d="m 0,0 c 0.042,1.378 0.334,2.505 1.002,3.632 0.501,0.919 1.252,1.67 2.087,2.297 0.209,0.125 0.376,0.25 0.543,0.376 l 0.626,0.334 0.585,0.334 0.585,0.334 c 0.459,0.292 0.793,0.793 0.793,1.294 0,0.877 -1.002,1.586 -2.171,1.586 -1.211,0 -1.963,-0.584 -2.171,-1.67 L 0,8.935 c 0.418,1.962 1.962,3.172 4.05,3.172 2.254,0 4.05,-1.586 4.05,-3.548 C 8.1,7.641 7.682,6.722 6.889,6.012 6.722,5.887 6.555,5.762 6.388,5.678 L 5.803,5.302 5.177,4.968 4.593,4.634 C 3.465,3.966 2.839,3.257 2.254,1.921 L 8.1,1.921 8.1,0 0,0 z"
       style="fill:#000000;fill-opacity:1;fill-rule:nonzero;stroke:none"
       id="path3864"
       inkscape:connector-curvature="0" />
  </g>
</svg>
