<?xml version="1.0" encoding="UTF-8" standalone="no"?>
<svg
   xmlns:dc="http://purl.org/dc/elements/1.1/"
   xmlns:cc="http://creativecommons.org/ns#"
   xmlns:rdf="http://www.w3.org/1999/02/22-rdf-syntax-ns#"
   xmlns:svg="http://www.w3.org/2000/svg"
   xmlns="http://www.w3.org/2000/svg"
   xmlns:sodipodi="http://sodipodi.sourceforge.net/DTD/sodipodi-0.dtd"
   xmlns:inkscape="http://www.inkscape.org/namespaces/inkscape"
   width="247.18996"
   height="197.99336"
   viewBox="0 0 697.62494 558.78127"
   version="1.1"
   id="svg2"
   inkscape:version="0.48.2 r9819"
   sodipodi:docname="AJAX1.svg">
  <metadata
     id="metadata62">
    <rdf:RDF>
      <cc:Work
         rdf:about="">
        <dc:format>image/svg+xml</dc:format>
        <dc:type
           rdf:resource="http://purl.org/dc/dcmitype/StillImage" />
        <dc:title />
      </cc:Work>
    </rdf:RDF>
  </metadata>
  <defs
     id="defs60">
    <clipPath
       clipPathUnits="userSpaceOnUse"
       id="clipPath3564">
      <path
         inkscape:connector-curvature="0"
         d="m 63,43 512.622,0 0,313.129 L 63,356.129 63,43 z"
         id="path3566" />
    </clipPath>
  </defs>
  <sodipodi:namedview
     pagecolor="#ffffff"
     bordercolor="#666666"
     borderopacity="1"
     objecttolerance="10"
     gridtolerance="10"
     guidetolerance="10"
     inkscape:pageopacity="0"
     inkscape:pageshadow="2"
     inkscape:window-width="1280"
     inkscape:window-height="1004"
     id="namedview58"
     showgrid="false"
     fit-margin-top="0"
     fit-margin-left="0"
     fit-margin-right="0"
     fit-margin-bottom="0"
     inkscape:zoom="1.2206738"
     inkscape:cx="96.953018"
     inkscape:cy="95.79828"
     inkscape:window-x="-8"
     inkscape:window-y="-8"
     inkscape:window-maximized="1"
     inkscape:current-layer="svg2"
     showguides="true"
     inkscape:guide-bbox="true" />
  <polygon
     points="395,375 315,545 235,375 315,205 "
     id="polygon10"
     style="fill:none;stroke:#ffffff;stroke-width:40"
     transform="translate(20062.584,11765.411)" />
  <!-- draw the bicycle -->
  <!-- RIGHT -->
  <!-- LANE -->
  <!-- ONLY -->
  <path
     d="m 47.977638,1.7042 601.676902,0 c 25.4941,0 46.2924,20.78871 46.2924,46.28283 l 0,462.82834 c 0,25.50377 -20.7983,46.28283 -46.2924,46.28283 l -601.676902,0 c -25.4845,0 -46.2731996,-20.77906 -46.2731996,-46.28283 l 0,-462.82834 C 1.7044384,22.49291 22.493138,1.7042 47.977638,1.7042 z"
     style="fill:#ffffff;stroke:#000000;stroke-width:3.38666668;stroke-linecap:butt;stroke-linejoin:miter;stroke-miterlimit:2.61299992;stroke-opacity:1;stroke-dasharray:none"
     id="path3868"
     inkscape:connector-curvature="0" />
  <path
     d="m 50.648538,13.73759 596.344702,0 c 20.3355,0 36.9202,16.54611 36.9202,36.83342 l 0,457.66973 c 0,20.27767 -16.5847,36.83342 -36.9202,36.83342 l -596.344702,0 c -20.3355,0 -36.9105,-16.55575 -36.9105,-36.83342 l 0,-457.66973 c 0,-20.28731 16.575,-36.83342 36.9105,-36.83342"
     style="fill:#000000;fill-opacity:1;fill-rule:evenodd;stroke:none"
     id="path3872"
     inkscape:connector-curvature="0" />
  <path
     d="m 51.043938,32.2508 595.554002,0 c 10.3654,0 18.8024,8.41769 18.8024,18.75419 l 0,456.80192 c 0,10.32688 -8.437,18.74455 -18.8024,18.74455 l -595.554002,0 c -10.3558,0 -18.7928,-8.41767 -18.7928,-18.74455 l 0,-456.80192 c 0,-10.3365 8.437,-18.75419 18.7928,-18.75419"
     style="fill:#ffffff;fill-opacity:1;fill-rule:evenodd;stroke:none"
     id="path3880"
     inkscape:connector-curvature="0" />
  <path
     d="m 644.99734,104.01822 0,-9.73868 -42.8406,0 0,9.73868 15.8326,0 0,59.63736 10.944,0 0,-59.63736 16.064,0 z m -50.9979,34.80855 0,-44.54723 -10.944,0 0,44.54723 c 0,9.00586 -5.12,14.84907 -12.6699,14.84907 -7.5403,0 -12.6507,-5.84321 -12.6507,-14.84907 l 0,-44.54723 -10.9536,0 0,44.54723 c 0,5.36109 1.215,10.22079 3.1531,14.35732 3.6544,6.81707 11.9371,11.73462 20.4512,11.73462 8.5334,0 16.7968,-4.91755 20.4512,-11.73462 1.9477,-4.13653 3.1627,-8.99623 3.1627,-14.35732 m -71.1985,-9.73869 c 0,5.3611 -1.2149,12.17818 -2.6805,15.82295 -2.4395,6.0939 -5.6022,8.76481 -10.7126,8.76481 -4.3776,0 -7.3088,-1.70668 -9.4976,-5.36109 -2.6709,-4.37759 -4.1365,-11.92748 -4.1365,-19.22667 0,-5.8432 0.9739,-12.17817 2.6805,-16.31469 2.4395,-6.08427 5.8529,-8.75517 11.1947,-8.51412 4.1462,0.24105 6.8171,1.70668 9.0058,5.35146 2.6806,4.62828 4.1462,11.69605 4.1462,19.47735 m 10.9536,0 c 0,-8.76481 -1.7066,-17.52962 -4.6283,-23.61388 -4.3775,-8.52375 -10.4715,-12.41923 -19.2266,-12.41923 -8.032,0 -13.6342,2.4395 -17.7803,7.79094 -4.6187,6.57602 -7.5403,16.80646 -7.5403,28.24217 0,8.2827 1.9478,17.52963 4.8694,23.37284 4.1365,8.52375 10.2208,12.45779 19.9594,12.45779 7.3089,0 12.9014,-2.47806 16.7968,-7.83915 4.8694,-6.07463 7.5499,-17.03787 7.5499,-27.99148 m -55.8769,34.5675 0,-10.2208 -32.1279,0 0,-59.15524 -10.9536,0 0,69.37604 43.0815,0 z m -51.2389,0 0,-10.2208 -32.1377,0 0,-59.15524 -10.9535,0 0,69.37604 43.0912,0 z m -73.879,-30.68167 -13.8848,0 7.0677,-19.46771 6.8171,19.46771 z m 22.3893,30.68167 -23.8645,-69.37604 -10.944,0 -23.8646,69.37604 11.6864,0 6.8171,-19.46772 21.6662,0 6.817,19.46772 11.6864,0 z m -60.7462,-58.42244 0,-10.9536 -43.0912,0 0,69.37604 10.9632,0 0,-30.18991 20.2005,0 0,-11.19466 -20.2005,0 0,-17.03787 32.128,0 z"
     style="fill:#000000;fill-opacity:1;fill-rule:evenodd;stroke:none"
     id="path3888"
     inkscape:connector-curvature="0" />
  <path
     d="m 627.05304,261.3413 c 0,4.86934 -2.8445,9.73868 -7.3088,12.17817 -2.8445,1.6199 -4.879,2.02488 -10.5487,2.02488 l -21.9168,0 0,-28.40609 21.9168,0 c 6.0843,0 7.7042,0.40497 10.5487,2.02487 4.4643,2.43949 7.3088,7.30883 7.3088,12.17817 m 20.6923,83.18374 -20.297,-53.97734 c 10.5487,-4.8597 17.8575,-17.02823 17.8575,-29.2064 0,-11.77319 -7.3088,-23.93208 -17.4428,-28.80142 -5.689,-2.84447 -11.7733,-3.65442 -20.6923,-3.65442 l -38.1448,0 0,115.63958 18.2528,0 0,-50.32293 21.9168,0 18.6675,50.32293 19.8823,0 z m -95.5162,0 0,-18.65777 -53.5531,0 0,-31.66516 33.6708,0 0,-18.65776 -33.6708,0 0,-28.40609 49.8987,0 0,-18.2528 -68.1611,0 0,115.63958 71.8155,0 z m -86.5875,-99.4213 0,-16.21828 -71.4105,0 0,16.21828 26.3812,0 0,99.4213 18.2431,0 0,-99.4213 26.7862,0 z m -55.7419,99.4213 0,-17.03787 -53.5627,0 0,-98.60171 -18.2625,0 0,115.63958 71.8252,0 z m -88.6219,0 0,-18.65777 -53.5628,0 0,-31.66516 33.69,0 0,-18.65776 -33.69,0 0,-28.40609 49.9083,0 0,-18.2528 -68.1611,0 0,115.63958 71.8156,0 z m -96.7312,0 0,-115.63958 -18.2624,0 0,46.65889 -42.1945,0 0,-46.65889 -18.2528,0 0,115.63958 18.2528,0 0,-50.32293 42.1945,0 0,50.32293 18.2624,0 z m -95.5065,-33.27541 c 0,-45.44396 -54.372702,-31.24092 -55.992602,-52.7528 -0.8196,-10.54862 9.3337,-13.78842 17.8478,-13.39309 12.988102,0.41462 17.037902,10.1533 17.037902,10.1533 l 16.2375,-4.87899 c -5.6793,-14.1934 -16.6425,-23.51746 -32.860802,-23.51746 -20.7019,0 -36.1199,8.51411 -36.1199,31.23127 0,19.07239 15.418,25.96659 22.3218,28.80143 15.013,6.09391 32.860902,8.53338 32.860902,23.95135 0,9.7387 -7.3089,17.04752 -17.847902,17.04752 -10.9536,0 -19.8823,-6.09391 -24.7613,-17.04752 l -17.4332,6.48925 c 7.6945,17.46213 22.3122,29.28355 42.1945,29.28355 9.729102,0 18.657802,-3.31696 25.147002,-8.98661 7.3089,-6.48922 11.3683,-15.83258 11.3683,-26.3812"
     style="fill:#000000;fill-opacity:1;fill-rule:evenodd;stroke:none"
     id="path3892"
     inkscape:connector-curvature="0" />
  <path
     d="m 71.002438,48.08433 161.980302,0 0,161.99956 -161.980302,0 0,-161.99956 z"
     style="fill:#fecf33;fill-opacity:1;fill-rule:evenodd;stroke:none"
     id="path3894"
     inkscape:connector-curvature="0" />
  <path
     d="m 151.98864,59.66389 c 38.2412,0 69.4339,31.18307 69.4339,69.41461 0,38.24119 -31.1927,69.42425 -69.4339,69.42425 -38.2315,0 -69.424202,-31.18306 -69.424202,-69.42425 0,-38.23154 31.192702,-69.41461 69.424202,-69.41461"
     style="fill:#000000;fill-opacity:1;fill-rule:evenodd;stroke:none"
     id="path3898"
     inkscape:connector-curvature="0" />
  <path
     d="m 185.23524,71.68769 -33.2562,57.39071 -33.2465,-57.39071 66.5027,0 z"
     style="fill:#fecf33;fill-opacity:1;fill-rule:evenodd;stroke:none"
     id="path3906"
     inkscape:connector-curvature="0" />
  <path
     d="m 151.95014,129.15547 -33.2562,57.39071 -33.246502,-57.39071 66.502702,0 z"
     style="fill:#fecf33;fill-opacity:1;fill-rule:evenodd;stroke:none"
     id="path3914"
     inkscape:connector-curvature="0" />
  <path
     d="m 218.51064,129.15547 -33.2465,57.39071 -33.2465,-57.39071 66.493,0 z"
     style="fill:#fecf33;fill-opacity:1;fill-rule:evenodd;stroke:none"
     id="path3922"
     inkscape:connector-curvature="0" />
  <path
     d="m 554.24344,403.95111 -11.2621,0 0,69.80995 11.2621,0 0,-69.80995 z m -27.9143,69.80995 0,-69.80995 -11.0308,0 -16.1604,39.18613 -16.1508,-39.18613 -11.0307,0 0,69.80995 11.0307,0 0,-40.42035 16.1508,40.42035 16.1604,-40.42035 0,40.42035 11.0308,0 z"
     style="fill:#000000;fill-opacity:1;fill-rule:evenodd;stroke:none"
     id="path3928"
     inkscape:connector-curvature="0" />
  <path
     d="m 384.77204,498.00073 c -10.0665,0 -20.133,-2.42022 -28.1843,-6.44104 l 8.8612,-16.10256 c 4.8308,2.41057 13.2774,4.02082 21.7337,4.02082 16.5075,0 29.3895,-10.85717 29.3895,-25.75447 0,-11.27179 -9.2565,-20.13303 -20.5283,-20.13303 -8.0513,0 -11.6768,2.4202 -18.5228,12.08174 l -18.1178,-5.23573 2.8252,-59.17455 66.0205,0 0,18.11782 -48.3077,0 -1.2149,18.91809 c 8.4563,-2.4202 12.0818,-3.2205 17.7128,-3.2205 20.943,0 38.2509,17.7128 38.2509,38.64616 0,25.34948 -20.9334,44.27725 -49.918,44.27725"
     style="fill:#000000;fill-opacity:1;fill-rule:nonzero;stroke:none"
     id="path3932"
     inkscape:connector-curvature="0" />
  <path
     d="m 192.37044,435.17185 53.8038,-79.53899 53.9002,79.53899 c 2.3913,3.50012 1.4656,8.31162 -2.0345,10.69326 -2.3334,1.59097 -4.7633,1.3017 -7.6463,0.56888 l -23.3535,-7.01955 0,79.12436 -41.6739,0 0,-79.12436 -22.9775,6.85563 c -3.1819,0.88711 -5.5346,1.25349 -7.9838,-0.40496 -3.5001,-2.38164 -4.4065,-7.19314 -2.0345,-10.69326"
     style="fill:#000000;fill-opacity:1;fill-rule:evenodd;stroke:none"
     id="path3936"
     inkscape:connector-curvature="0" />
</svg>
