<?xml version="1.0" encoding="UTF-8" standalone="no"?>
<svg
   xmlns:dc="http://purl.org/dc/elements/1.1/"
   xmlns:cc="http://creativecommons.org/ns#"
   xmlns:rdf="http://www.w3.org/1999/02/22-rdf-syntax-ns#"
   xmlns:svg="http://www.w3.org/2000/svg"
   xmlns="http://www.w3.org/2000/svg"
   xmlns:sodipodi="http://sodipodi.sourceforge.net/DTD/sodipodi-0.dtd"
   xmlns:inkscape="http://www.inkscape.org/namespaces/inkscape"
   width="247.18996"
   height="197.99336"
   viewBox="0 0 697.62494 558.78127"
   version="1.1"
   id="svg2"
   inkscape:version="0.48.2 r9819"
   sodipodi:docname="AJAX1.svg">
  <metadata
     id="metadata62">
    <rdf:RDF>
      <cc:Work
         rdf:about="">
        <dc:format>image/svg+xml</dc:format>
        <dc:type
           rdf:resource="http://purl.org/dc/dcmitype/StillImage" />
        <dc:title></dc:title>
      </cc:Work>
    </rdf:RDF>
  </metadata>
  <defs
     id="defs60">
    <clipPath
       clipPathUnits="userSpaceOnUse"
       id="clipPath3564">
      <path
         inkscape:connector-curvature="0"
         d="m 63,43 512.622,0 0,313.129 L 63,356.129 63,43 z"
         id="path3566" />
    </clipPath>
  </defs>
  <sodipodi:namedview
     pagecolor="#ffffff"
     bordercolor="#666666"
     borderopacity="1"
     objecttolerance="10"
     gridtolerance="10"
     guidetolerance="10"
     inkscape:pageopacity="0"
     inkscape:pageshadow="2"
     inkscape:window-width="1280"
     inkscape:window-height="1004"
     id="namedview58"
     showgrid="false"
     fit-margin-top="0"
     fit-margin-left="0"
     fit-margin-right="0"
     fit-margin-bottom="0"
     inkscape:zoom="1.2206738"
     inkscape:cx="96.94697"
     inkscape:cy="95.804158"
     inkscape:window-x="-8"
     inkscape:window-y="-8"
     inkscape:window-maximized="1"
     inkscape:current-layer="svg2"
     showguides="true"
     inkscape:guide-bbox="true" />
  <polygon
     points="315,545 235,375 315,205 395,375 "
     id="polygon10"
     style="fill:none;stroke:#ffffff;stroke-width:40"
     transform="translate(20062.567,11765.394)" />
  <!-- draw the bicycle -->
  <!-- RIGHT -->
  <!-- LANE -->
  <!-- ONLY -->
  <path
     d="m 47.96057,1.6875 601.67689,0 c 25.4941,0 46.2924,20.78871 46.2924,46.28283 l 0,462.82834 c 0,25.50377 -20.7983,46.28283 -46.2924,46.28283 l -601.67689,0 c -25.4845,0 -46.2732008,-20.77906 -46.2732008,-46.28283 l 0,-462.82834 C 1.6873692,22.47621 22.47607,1.6875 47.96057,1.6875 z"
     style="fill:#ffffff;stroke:#000000;stroke-width:3.38666668;stroke-miterlimit:4;stroke-opacity:1;stroke-dasharray:none"
     id="path3868"
     inkscape:connector-curvature="0" />
  <path
     d="m 50.63147,13.72089 596.34469,0 c 20.3355,0 36.9202,16.54611 36.9202,36.83342 l 0,457.66973 c 0,20.27767 -16.5847,36.83342 -36.9202,36.83342 l -596.34469,0 c -20.3355,0 -36.9105,-16.55575 -36.9105,-36.83342 l 0,-457.66973 c 0,-20.28731 16.575,-36.83342 36.9105,-36.83342"
     style="fill:#000000;fill-opacity:1;fill-rule:evenodd;stroke:none"
     id="path3872"
     inkscape:connector-curvature="0" />
  <path
     d="m 51.02687,32.2341 595.55399,0 c 10.3654,0 18.8024,8.41769 18.8024,18.75419 l 0,456.80192 c 0,10.32688 -8.437,18.74455 -18.8024,18.74455 l -595.55399,0 c -10.3558,0 -18.7928,-8.41767 -18.7928,-18.74455 l 0,-456.80192 c 0,-10.3365 8.437,-18.75419 18.7928,-18.75419"
     style="fill:#ffffff;fill-opacity:1;fill-rule:evenodd;stroke:none"
     id="path3880"
     inkscape:connector-curvature="0" />
  <path
     d="m 627.03596,261.3246 c 0,4.86934 -2.8445,9.73868 -7.3088,12.17817 -2.8445,1.6199 -4.879,2.02488 -10.5487,2.02488 l -21.9168,0 0,-28.40609 21.9168,0 c 6.0843,0 7.7042,0.40497 10.5487,2.02487 4.4643,2.43949 7.3088,7.30883 7.3088,12.17817 m 20.6923,83.18374 -20.297,-53.97734 c 10.5487,-4.8597 17.8575,-17.02823 17.8575,-29.2064 0,-11.77319 -7.3088,-23.93208 -17.4428,-28.80142 -5.689,-2.84447 -11.7733,-3.65442 -20.6923,-3.65442 l -38.1448,0 0,115.63958 18.2528,0 0,-50.32293 21.9168,0 18.6675,50.32293 19.8823,0 z m -95.5162,0 0,-18.65777 -53.5531,0 0,-31.66516 33.6708,0 0,-18.65776 -33.6708,0 0,-28.40609 49.8987,0 0,-18.2528 -68.1611,0 0,115.63958 71.8155,0 z m -86.5875,-99.4213 0,-16.21828 -71.4105,0 0,16.21828 26.3812,0 0,99.4213 18.2431,0 0,-99.4213 26.7862,0 z m -55.7419,99.4213 0,-17.03787 -53.5627,0 0,-98.60171 -18.2625,0 0,115.63958 71.8252,0 z m -88.6219,0 0,-18.65777 -53.5628,0 0,-31.66516 33.69,0 0,-18.65776 -33.69,0 0,-28.40609 49.9083,0 0,-18.2528 -68.1611,0 0,115.63958 71.8156,0 z m -96.7312,0 0,-115.63958 -18.2624,0 0,46.65889 -42.1945,0 0,-46.65889 -18.2528,0 0,115.63958 18.2528,0 0,-50.32293 42.1945,0 0,50.32293 18.2624,0 z m -95.5065,-33.27541 c 0,-45.44396 -54.37269,-31.24092 -55.99259,-52.7528 -0.8196,-10.54862 9.3337,-13.78842 17.8478,-13.39309 12.98809,0.41462 17.03789,10.1533 17.03789,10.1533 l 16.2375,-4.87899 c -5.6793,-14.1934 -16.6425,-23.51746 -32.86079,-23.51746 -20.7019,0 -36.1199,8.51411 -36.1199,31.23127 0,19.07239 15.418,25.96659 22.3218,28.80143 15.013,6.09391 32.86089,8.53338 32.86089,23.95135 0,9.7387 -7.3089,17.04752 -17.84789,17.04752 -10.9536,0 -19.8823,-6.09391 -24.7613,-17.04752 l -17.4332,6.48925 c 7.6945,17.46213 22.3122,29.28355 42.1945,29.28355 9.72909,0 18.65779,-3.31696 25.14699,-8.98661 7.3089,-6.48922 11.3683,-15.83258 11.3683,-26.3812"
     style="fill:#000000;fill-opacity:1;fill-rule:evenodd;stroke:none"
     id="path3892"
     inkscape:connector-curvature="0" />
  <path
     d="m 70.98537,48.06763 161.98029,0 0,161.99956 -161.98029,0 0,-161.99956 z"
     style="fill:#fecf33;fill-opacity:1;fill-rule:evenodd;stroke:none"
     id="path3894"
     inkscape:connector-curvature="0" />
  <path
     d="m 151.97156,59.64719 c 38.2412,0 69.4339,31.18307 69.4339,69.41461 0,38.24119 -31.1927,69.42425 -69.4339,69.42425 -38.2315,0 -69.42419,-31.18306 -69.42419,-69.42425 0,-38.23154 31.19269,-69.41461 69.42419,-69.41461"
     style="fill:#000000;fill-opacity:1;fill-rule:evenodd;stroke:none"
     id="path3898"
     inkscape:connector-curvature="0" />
  <path
     d="m 185.21816,71.67099 -33.2562,57.39071 -33.2465,-57.39071 66.5027,0 z"
     style="fill:#fecf33;fill-opacity:1;fill-rule:evenodd;stroke:none"
     id="path3906"
     inkscape:connector-curvature="0" />
  <path
     d="m 151.93306,129.13877 -33.2562,57.39071 -33.24649,-57.39071 66.50269,0 z"
     style="fill:#fecf33;fill-opacity:1;fill-rule:evenodd;stroke:none"
     id="path3914"
     inkscape:connector-curvature="0" />
  <path
     d="m 218.49356,129.13877 -33.2465,57.39071 -33.2465,-57.39071 66.493,0 z"
     style="fill:#fecf33;fill-opacity:1;fill-rule:evenodd;stroke:none"
     id="path3922"
     inkscape:connector-curvature="0" />
  <path
     d="m 633.61197,163.63885 0,-9.25657 -25.32058,0 0,-60.129117 -9.97974,0 0,69.385687 35.30032,0 z m -60.01342,-28.72429 -9.97975,0 4.86935,-19.96911 5.1104,19.96911 z m 17.27894,28.72429 -17.27894,-69.385687 -9.72905,0 -17.28855,69.385687 9.97973,0 4.61865,-18.99525 14.85872,0 4.8597,18.99525 9.97974,0 z m -50.50616,-50.8822 c -0.73281,-6.32532 -1.70668,-9.24692 -4.38722,-12.66028 -3.16266,-4.628282 -8.02236,-7.058131 -13.63416,-7.058131 -13.6245,0 -20.69228,11.927471 -20.69228,34.316791 0,25.57127 6.57602,37.53731 21.4251,37.53731 9.73868,0 17.04751,-8.31163 17.28856,-19.75699 l -9.97973,0 c 0,5.1104 -1.45598,9.97974 -7.30883,9.97974 -8.51412,0 -11.91783,-8.032 -11.91783,-27.99147 0,-18.02138 2.9216,-24.3467 10.9536,-24.3467 4.61864,0 7.28955,3.16266 8.27306,9.97973 l 9.97973,0 z m -50.51578,-18.503487 -9.73868,0 0,69.385687 9.73868,0 0,-69.385687 z m -22.75573,69.385687 0,-69.385687 -9.98938,0 -12.90134,38.954717 -12.8917,-38.954717 -9.98937,0 0,69.385687 9.98937,0 0,-38.95472 12.8917,38.95472 12.90134,-38.95472 0,38.95472 9.98938,0 z m -55.39477,0 0,-9.73868 -25.31092,0 0,-22.89072 14.36696,0 0,-9.48798 -14.36696,0 0,-17.51999 22.64002,0 0,-9.748317 -32.61976,0 0,69.385687 35.29066,0 z m -48.07629,0 0,-69.385687 -9.97974,0 0,28.242177 -18.9856,0 0,-28.242177 -9.97974,0 0,69.385687 9.97974,0 0,-31.41448 18.9856,0 0,31.41448 9.97974,0 z m -50.51579,-50.8822 c -0.72317,-6.32532 -1.70668,-9.24692 -4.37758,-12.66028 -3.16266,-4.628282 -8.032,-7.058131 -13.63415,-7.058131 -13.63415,0 -20.69229,11.927471 -20.69229,34.316791 0,25.57127 6.57602,37.53731 21.4251,37.53731 9.73868,0 17.03787,-8.31163 17.27892,-19.75699 l -9.97009,0 c 0,5.1104 -1.47527,9.97974 -7.30883,9.97974 -8.52376,0 -11.93712,-8.032 -11.93712,-27.99147 0,-18.02138 2.92161,-24.3467 10.95361,-24.3467 4.63792,0 7.30883,3.16266 8.29234,9.97973 l 9.97009,0 z"
     style="fill:#000000;fill-opacity:1;fill-rule:evenodd;stroke:none"
     id="path3964"
     inkscape:connector-curvature="0" />
  <path
     d="m 435.79141,462.15349 c 0,-19.32309 -17.70318,-35.02068 -39.04149,-35.02068 -4.43544,0 -7.25097,0 -13.692,1.20528 6.84599,-14.49231 14.08733,-23.74888 28.18431,-34.6157 l -9.26621,-15.30227 c -26.56441,17.71283 -44.27724,50.32294 -44.27724,82.12311 0,20.52836 16.90288,36.63093 39.05114,36.63093 22.13864,0 39.04149,-15.30226 39.04149,-35.02067 m -18.10814,-0.39534 c 0,9.25657 -9.66154,16.90288 -20.93335,16.90288 -11.27179,0 -20.53801,-7.64631 -20.53801,-16.90288 0,-8.86123 9.26622,-16.50754 20.53801,-16.50754 11.66712,0 20.93335,7.64631 20.93335,16.50754"
     style="fill:#000000;fill-opacity:1;fill-rule:nonzero;stroke:none"
     id="path4014"
     inkscape:connector-curvature="0" />
  <path
     d="m 557.39854,404.30087 -11.26216,0 0,69.8003 11.26216,0 0,-69.8003 z m -27.92397,69.8003 0,-69.8003 -11.02112,0 -16.16041,39.18614 -16.16044,-39.18614 -11.02109,0 0,69.8003 11.02109,0 0,-40.4107 16.16044,40.4107 16.16041,-40.4107 0,40.4107 11.02112,0 z"
     style="fill:#000000;fill-opacity:1;fill-rule:evenodd;stroke:none"
     id="path4398"
     inkscape:connector-curvature="0" />
  <path
     d="m 192.70047,501.6771 -88.6027,-59.92663 88.6027,-60.01341 c 3.90511,-2.66126 9.24692,-1.63918 11.90818,2.25629 1.76454,2.62269 1.44634,5.31288 0.62675,8.5334 l -7.81023,26.00516 115.08034,0 0,46.40819 -115.08034,0 7.63667,25.59055 c 0.97387,3.52906 1.38848,6.1614 -0.45319,8.88051 -2.66126,3.90512 -8.00307,4.9272 -11.90818,2.26594"
     style="fill:#000000;fill-opacity:1;fill-rule:evenodd;stroke:none"
     id="path3972"
     inkscape:connector-curvature="0" />
</svg>
