<?xml version="1.0" encoding="UTF-8" standalone="no"?>
<!-- Created with Inkscape (http://www.inkscape.org/) -->

<svg
   xmlns:dc="http://purl.org/dc/elements/1.1/"
   xmlns:cc="http://creativecommons.org/ns#"
   xmlns:rdf="http://www.w3.org/1999/02/22-rdf-syntax-ns#"
   xmlns:svg="http://www.w3.org/2000/svg"
   xmlns="http://www.w3.org/2000/svg"
   xmlns:sodipodi="http://sodipodi.sourceforge.net/DTD/sodipodi-0.dtd"
   xmlns:inkscape="http://www.inkscape.org/namespaces/inkscape"
   id="svg17624"
   version="1.1"
   inkscape:version="0.48.2 r9819"
   width="126.60156"
   height="36.601562"
   xml:space="preserve"
   sodipodi:docname="AJAX1.svg"><metadata
     id="metadata17630"><rdf:RDF><cc:Work
         rdf:about=""><dc:format>image/svg+xml</dc:format><dc:type
           rdf:resource="http://purl.org/dc/dcmitype/StillImage" /><dc:title></dc:title></cc:Work></rdf:RDF></metadata><defs
     id="defs17628"><inkscape:perspective
       sodipodi:type="inkscape:persp3d"
       inkscape:vp_x="0 : 0.5 : 1"
       inkscape:vp_y="0 : 1000 : 0"
       inkscape:vp_z="1 : 0.5 : 1"
       inkscape:persp3d-origin="0.5 : 0.33333333 : 1"
       id="perspective17632" /><clipPath
       clipPathUnits="userSpaceOnUse"
       id="clipPath17642"><path
         d="m -2,710 501,0 0,-711 -501,0 0,711 z"
         id="path17644"
         inkscape:connector-curvature="0" /></clipPath><clipPath
       clipPathUnits="userSpaceOnUse"
       id="clipPath17648"><path
         d="m 0,708.06 498,0 0,-708 -498,0 0,708 z"
         id="path17650"
         inkscape:connector-curvature="0" /></clipPath><clipPath
       clipPathUnits="userSpaceOnUse"
       id="clipPath17798"><path
         d="m -2,710 501,0 0,-711 -501,0 0,711 z"
         id="path17800"
         inkscape:connector-curvature="0" /></clipPath><clipPath
       clipPathUnits="userSpaceOnUse"
       id="clipPath17804"><path
         d="m 0,708.06 498,0 0,-708 -498,0 0,708 z"
         id="path17806"
         inkscape:connector-curvature="0" /></clipPath><clipPath
       id="Clip0"><path
         inkscape:connector-curvature="0"
         d="m 0,0 212.597,0 0,269.292 L 0,269.292 0,0 z"
         transform="translate(0.923828,0.879883)"
         id="path7" /></clipPath><clipPath
       id="Clip0-8"><path
         inkscape:connector-curvature="0"
         d="m 0,0 170.079,0 0,113.386 L 0,113.386 0,0 z"
         transform="translate(0.0986328,0.822266)"
         id="path7-8" /></clipPath><clipPath
       id="Clip0-1"><path
         inkscape:connector-curvature="0"
         d="m 0,0 287.009,0 0,159.449 L 0,159.449 0,0 z"
         transform="translate(0.396484,0.267578)"
         id="path7-7" /></clipPath><clipPath
       id="Clip0-9"><path
         inkscape:connector-curvature="0"
         d="m 0,0 170.079,0 0,170.079 L 0,170.079 0,0 z"
         transform="translate(0.460938,0.775391)"
         id="path7-4" /></clipPath><clipPath
       id="Clip0-4"><path
         inkscape:connector-curvature="0"
         d="m 0,0 340.157,0 0,226.771 L 0,226.771 0,0 z"
         transform="translate(0.921875,0.25293)"
         id="path7-5" /></clipPath><clipPath
       id="Clip0-5"><path
         inkscape:connector-curvature="0"
         d="m 0,0 255.119,0 0,170.079 L 0,170.079 0,0 z"
         transform="translate(0.147461,0.0595703)"
         id="path7-1" /></clipPath><clipPath
       id="Clip0-0"><path
         inkscape:connector-curvature="0"
         d="m 0,0 170.079,0 0,113.386 L 0,113.386 0,0 z"
         transform="translate(0.0673828,0.207031)"
         id="path7-9" /></clipPath></defs><sodipodi:namedview
     pagecolor="#ffffff"
     bordercolor="#666666"
     borderopacity="1"
     objecttolerance="10"
     gridtolerance="10"
     guidetolerance="10"
     inkscape:pageopacity="0"
     inkscape:pageshadow="2"
     inkscape:window-width="1280"
     inkscape:window-height="1004"
     id="namedview17626"
     showgrid="false"
     inkscape:zoom="5.6568542"
     inkscape:cx="29.049873"
     inkscape:cy="-0.40156995"
     inkscape:window-x="-8"
     inkscape:window-y="-8"
     inkscape:window-maximized="1"
     inkscape:current-layer="g17634"
     fit-margin-top="0"
     fit-margin-left="0"
     fit-margin-right="0"
     fit-margin-bottom="0"
     showguides="true"
     inkscape:guide-bbox="true" /><g
     id="g17634"
     inkscape:groupmode="layer"
     inkscape:label="GG1999P002"
     transform="matrix(1.25,0,0,-1.25,-3366.4063,-2191.7188)"><path
       inkscape:connector-curvature="0"
       d="m 2700.5783,-1753.6234 86.399,0 c 3.977,0 7.2,-3.224 7.2,-7.2 l 0,-14.4 c 0,-3.976 -3.223,-7.2 -7.2,-7.2 l -86.399,0 c -3.977,0 -7.2,3.224 -7.2,7.2 l 0,14.4 c 0,3.976 3.223,7.2 7.2,7.2"
       style="fill:#ffffff;fill-opacity:1;fill-rule:nonzero;stroke:#000000;stroke-width:0.48;stroke-miterlimit:4;stroke-opacity:1;stroke-dasharray:none"
       id="path3225" /><path
       inkscape:connector-curvature="0"
       d="m 2700.5783,-1756.0233 86.399,0 c 2.651,0 4.799,-2.149 4.799,-4.8 l 0,-14.4 c 0,-2.651 -2.148,-4.8 -4.799,-4.8 l -86.399,0 c -2.651,0 -4.8,2.149 -4.8,4.8 l 0,14.4 c 0,2.651 2.149,4.8 4.8,4.8"
       style="fill:#00674c;fill-opacity:1;fill-rule:nonzero;stroke:none"
       id="path3249" /><path
       inkscape:connector-curvature="0"
       d="m 2779.9054,-1769.4261 1.011,-1.972 c 0,0 0.192,-0.406 0.673,-0.416 0.587,-0.011 0.726,0.596 0.726,0.596 l 1.527,8.297 -8.381,-1.57 c 0,0 -0.47,-0.17 -0.492,-0.704 -0.01,-0.438 0.384,-0.64 0.384,-0.64 l 2.011,-1.037 -4.968,-4.968 2.549,-2.549 4.96,4.963 z"
       style="fill:#ffffff;fill-opacity:1;fill-rule:nonzero;stroke:none"
       id="path3253" /><path
       inkscape:connector-curvature="0"
       d="m 2703.714,-1772.8236 0,10 6.2,0 0,-1.601 -4.598,0 0,-2.399 2.999,0 0,-1.601 -2.999,0 0,-4.399 -1.602,0 z"
       style="fill:#ffffff;fill-opacity:1;fill-rule:nonzero;stroke:none"
       id="path3257" /><path
       inkscape:connector-curvature="0"
       d="m 2715.0187,-1765.7245 -0.24,-1.599 c 0,0.034 -0.09,0.103 -0.27,0.21 -0.213,0.126 -0.423,0.189 -0.629,0.189 -0.707,0 -1.059,-0.397 -1.059,-1.19 l 0,-4.709 -1.602,0 0,7.301 1.602,0 0,-0.47 c 0.293,0.378 0.722,0.568 1.289,0.568 0.173,0 0.476,-0.1 0.909,-0.3"
       style="fill:#ffffff;fill-opacity:1;fill-rule:nonzero;stroke:none"
       id="path3261" /><path
       inkscape:connector-curvature="0"
       d="m 2720.3205,-1769.1747 c 0,0.62 -0.107,1.13 -0.32,1.53 -0.253,0.48 -0.629,0.72 -1.129,0.72 -0.48,0 -0.847,-0.22 -1.1,-0.66 -0.233,-0.4 -0.349,-0.93 -0.349,-1.59 0,-0.62 0.106,-1.13 0.319,-1.53 0.254,-0.48 0.63,-0.72 1.13,-0.72 0.5,0 0.876,0.24 1.129,0.72 0.213,0.4 0.32,0.91 0.32,1.53 m 1.602,0 c 0,-1.086 -0.231,-1.96 -0.691,-2.62 -0.533,-0.754 -1.32,-1.13 -2.36,-1.13 -0.961,0 -1.709,0.327 -2.246,0.98 -0.537,0.653 -0.805,1.577 -0.805,2.77 0,1.06 0.22,1.917 0.66,2.57 0.526,0.787 1.323,1.18 2.391,1.18 1.054,0 1.846,-0.39 2.381,-1.17 0.446,-0.66 0.67,-1.52 0.67,-2.58"
       style="fill:#ffffff;fill-opacity:1;fill-rule:nonzero;stroke:none"
       id="path3265" /><path
       inkscape:connector-curvature="0"
       d="m 2729.4172,-1772.8236 -1.602,0 0,4.699 c 0,0.413 -0.15,0.727 -0.449,0.94 -0.246,0.174 -0.549,0.26 -0.908,0.26 -0.347,0 -0.643,-0.09 -0.889,-0.27 -0.299,-0.22 -0.449,-0.53 -0.449,-0.93 l 0,-4.699 -1.602,0 0,7.301 1.602,0 0,-0.29 c 0.446,0.258 0.989,0.388 1.629,0.388 0.706,0 1.313,-0.197 1.818,-0.59 0.567,-0.44 0.85,-1.043 0.85,-1.81 l 0,-4.999 z"
       style="fill:#ffffff;fill-opacity:1;fill-rule:nonzero;stroke:none"
       id="path3269" /><path
       inkscape:connector-curvature="0"
       d="m 2734.4201,-1771.2226 -0.141,-1.372 c -0.407,-0.22 -0.821,-0.33 -1.241,-0.33 -0.975,0 -1.462,0.533 -1.462,1.6 l 0,4.4 -1.156,0 0,1.398 1.156,0 0,1.944 1.602,0.861 0,-2.805 1.242,0 0,-1.398 -1.242,0 0,-4.082 c 0,-0.346 0.14,-0.52 0.421,-0.52 0.266,0 0.541,0.101 0.821,0.304"
       style="fill:#ffffff;fill-opacity:1;fill-rule:nonzero;stroke:none"
       id="path3273" /><path
       inkscape:connector-curvature="0"
       d="m 2747.1154,-1768.4247 -1.05,3.051 -1.04,-3.051 2.09,0 z m 3.2,-4.399 -1.69,0 -0.96,2.797 -3.21,0 -0.94,-2.797 -1.7,0 3.44,10.001 1.62,0 3.44,-10.001 z"
       style="fill:#ffffff;fill-opacity:1;fill-rule:nonzero;stroke:none"
       id="path3277" /><path
       inkscape:connector-curvature="0"
       d="m 2757.9133,-1765.5262 -2.779,-7.297 -1.531,0 -2.79,7.297 1.72,0 1.83,-4.817 1.85,4.817 1.7,0 z"
       style="fill:#ffffff;fill-opacity:1;fill-rule:nonzero;stroke:none"
       id="path3281" /><path
       inkscape:connector-curvature="0"
       d="m 2763.0168,-1768.4247 c 0,0.44 -0.111,0.8 -0.335,1.08 -0.223,0.28 -0.527,0.42 -0.914,0.42 -0.366,0 -0.679,-0.148 -0.939,-0.445 -0.259,-0.297 -0.406,-0.648 -0.439,-1.055 l 2.627,0 z m 1.393,-2.899 c -0.206,-0.48 -0.534,-0.864 -0.98,-1.151 -0.474,-0.3 -1.026,-0.45 -1.66,-0.45 -0.96,0 -1.708,0.327 -2.245,0.98 -0.536,0.653 -0.805,1.577 -0.805,2.77 0,1.06 0.22,1.917 0.659,2.57 0.528,0.787 1.324,1.18 2.39,1.18 1.899,0 2.85,-1.25 2.85,-3.75 0,-0.374 -0.01,-0.624 -0.021,-0.75 l -4.208,0 c 0.06,-0.433 0.203,-0.784 0.43,-1.05 0.254,-0.3 0.57,-0.45 0.95,-0.45 0.606,0 1.03,0.347 1.27,1.041 l 1.37,-0.94 z"
       style="fill:#ffffff;fill-opacity:1;fill-rule:nonzero;stroke:none"
       id="path3285" /></g></svg>