<?xml version="1.0" encoding="UTF-8" standalone="no"?>
<!-- Created with Inkscape (http://www.inkscape.org/) -->

<svg
   xmlns:dc="http://purl.org/dc/elements/1.1/"
   xmlns:cc="http://creativecommons.org/ns#"
   xmlns:rdf="http://www.w3.org/1999/02/22-rdf-syntax-ns#"
   xmlns:svg="http://www.w3.org/2000/svg"
   xmlns="http://www.w3.org/2000/svg"
   xmlns:sodipodi="http://sodipodi.sourceforge.net/DTD/sodipodi-0.dtd"
   xmlns:inkscape="http://www.inkscape.org/namespaces/inkscape"
   id="svg17624"
   version="1.1"
   inkscape:version="0.48.2 r9819"
   width="278.98438"
   height="86.679688"
   xml:space="preserve"
   sodipodi:docname="AJAX1.svg"><metadata
     id="metadata17630"><rdf:RDF><cc:Work
         rdf:about=""><dc:format>image/svg+xml</dc:format><dc:type
           rdf:resource="http://purl.org/dc/dcmitype/StillImage" /><dc:title></dc:title></cc:Work></rdf:RDF></metadata><defs
     id="defs17628"><inkscape:perspective
       sodipodi:type="inkscape:persp3d"
       inkscape:vp_x="0 : 0.5 : 1"
       inkscape:vp_y="0 : 1000 : 0"
       inkscape:vp_z="1 : 0.5 : 1"
       inkscape:persp3d-origin="0.5 : 0.33333333 : 1"
       id="perspective17632" /><clipPath
       clipPathUnits="userSpaceOnUse"
       id="clipPath17642"><path
         d="m -2,710 501,0 0,-711 -501,0 0,711 z"
         id="path17644"
         inkscape:connector-curvature="0" /></clipPath><clipPath
       clipPathUnits="userSpaceOnUse"
       id="clipPath17648"><path
         d="m 0,708.06 498,0 0,-708 -498,0 0,708 z"
         id="path17650"
         inkscape:connector-curvature="0" /></clipPath><clipPath
       clipPathUnits="userSpaceOnUse"
       id="clipPath17798"><path
         d="m -2,710 501,0 0,-711 -501,0 0,711 z"
         id="path17800"
         inkscape:connector-curvature="0" /></clipPath><clipPath
       clipPathUnits="userSpaceOnUse"
       id="clipPath17804"><path
         d="m 0,708.06 498,0 0,-708 -498,0 0,708 z"
         id="path17806"
         inkscape:connector-curvature="0" /></clipPath><clipPath
       id="Clip0"><path
         inkscape:connector-curvature="0"
         d="m 0,0 212.597,0 0,269.292 L 0,269.292 0,0 z"
         transform="translate(0.923828,0.879883)"
         id="path7" /></clipPath><clipPath
       id="Clip0-8"><path
         inkscape:connector-curvature="0"
         d="m 0,0 170.079,0 0,113.386 L 0,113.386 0,0 z"
         transform="translate(0.0986328,0.822266)"
         id="path7-8" /></clipPath><clipPath
       id="Clip0-1"><path
         inkscape:connector-curvature="0"
         d="m 0,0 287.009,0 0,159.449 L 0,159.449 0,0 z"
         transform="translate(0.396484,0.267578)"
         id="path7-7" /></clipPath><clipPath
       id="Clip0-9"><path
         inkscape:connector-curvature="0"
         d="m 0,0 170.079,0 0,170.079 L 0,170.079 0,0 z"
         transform="translate(0.460938,0.775391)"
         id="path7-4" /></clipPath><clipPath
       id="Clip0-4"><path
         inkscape:connector-curvature="0"
         d="m 0,0 340.157,0 0,226.771 L 0,226.771 0,0 z"
         transform="translate(0.921875,0.25293)"
         id="path7-5" /></clipPath><clipPath
       id="Clip0-5"><path
         inkscape:connector-curvature="0"
         d="m 0,0 255.119,0 0,170.079 L 0,170.079 0,0 z"
         transform="translate(0.147461,0.0595703)"
         id="path7-1" /></clipPath><clipPath
       id="Clip0-0"><path
         inkscape:connector-curvature="0"
         d="m 0,0 170.079,0 0,113.386 L 0,113.386 0,0 z"
         transform="translate(0.0673828,0.207031)"
         id="path7-9" /></clipPath></defs><sodipodi:namedview
     pagecolor="#ffffff"
     bordercolor="#666666"
     borderopacity="1"
     objecttolerance="10"
     gridtolerance="10"
     guidetolerance="10"
     inkscape:pageopacity="0"
     inkscape:pageshadow="2"
     inkscape:window-width="1280"
     inkscape:window-height="1004"
     id="namedview17626"
     showgrid="false"
     inkscape:zoom="2"
     inkscape:cx="101.78741"
     inkscape:cy="-2.5612964"
     inkscape:window-x="-8"
     inkscape:window-y="-8"
     inkscape:window-maximized="1"
     inkscape:current-layer="g17634"
     fit-margin-top="0"
     fit-margin-left="0"
     fit-margin-right="0"
     fit-margin-bottom="0"
     showguides="true"
     inkscape:guide-bbox="true" /><g
     id="g17634"
     inkscape:groupmode="layer"
     inkscape:label="GG1999P002"
     transform="matrix(1.25,0,0,-1.25,-1834.9609,-2339.4531)"><path
       d="m 1690.6662,-1931.8882 c 0,-4.6995 -3.8478,-8.5473 -8.5473,-8.5473 l -205.132,0 c -4.7019,0 -8.5473,3.8478 -8.5473,8.5473 l 0,51.2836 c 0,4.6995 3.8454,8.5473 8.5473,8.5473 l 205.132,0 c 4.6995,0 8.5473,-3.8478 8.5473,-8.5473 l 0,-51.2836 z"
       style="fill:#ffffff;fill-opacity:1;fill-rule:nonzero;stroke:#000000;stroke-width:0.95999998;stroke-miterlimit:4;stroke-opacity:1;stroke-dasharray:none"
       id="path3433"
       inkscape:connector-curvature="0" /><path
       d="m 1476.9864,-1936.8739 c -1.3235,0 -2.5739,0.5214 -3.5199,1.4674 -0.946,0.9461 -1.4674,2.1964 -1.4674,3.5176 l 0,51.2859 c 0,1.3212 0.5214,2.5692 1.4674,3.5176 0.946,0.946 2.1964,1.4674 3.5199,1.4674 l 205.1321,0 c 1.3234,0 2.5714,-0.5214 3.5175,-1.4674 0.9484,-0.9484 1.4697,-2.1964 1.4697,-3.5176 l 0,-51.2859 c 0,-1.3212 -0.5213,-2.5715 -1.4697,-3.5176 -0.9461,-0.946 -2.1941,-1.4674 -3.5175,-1.4674 l -205.1321,0 z"
       style="fill:#00674c;fill-opacity:1;fill-rule:nonzero;stroke:none"
       id="path3441"
       inkscape:connector-curvature="0" /><path
       d="m 1616.5988,-1910.1396 c -1.5523,0.7385 -5.8837,1.7199 -5.8837,-1.7221 0,-4.1852 4.4942,-2.9537 5.8837,-2.2177 l 0,3.9398 z m 0.1628,-7.7144 0,0.4907 c -0.5733,-0.4907 -2.043,-0.7361 -3.3524,-0.7361 -3.4302,0 -6.3721,2.2153 -6.3721,6.3179 0,4.841 5.721,6.5655 9.4815,5.0061 0,0 0.08,2.7083 -2.5337,2.9537 -2.371,0.3279 -4.2512,-1.3943 -4.742,-2.135 l -1.0616,3.6118 c 4.2489,3.4468 12.1781,2.5432 12.1781,-4.1049 l 0,-11.4042 -3.5978,0 z"
       style="fill:#ffffff;fill-opacity:1;fill-rule:nonzero;stroke:none"
       id="path3445"
       inkscape:connector-curvature="0" /><path
       d="m 1659.6183,-1900.7863 3.7393,0 0,-17.0663 -3.7393,0 0,17.0663 z m 1.8709,2.8734 c -1.0664,0 -1.9699,0.821 -1.9699,1.8874 0,1.0663 0.9035,1.9699 1.9699,1.9699 1.0663,0 1.9675,-0.9036 1.9675,-1.9699 0,-1.0664 -0.9012,-1.8874 -1.9675,-1.8874"
       style="fill:#ffffff;fill-opacity:1;fill-rule:nonzero;stroke:none"
       id="path3447"
       inkscape:connector-curvature="0" /><path
       d="m 1651.1872,-1917.8531 -4.8764,9.5995 -2.1139,-2.2129 0,-7.3866 -3.7392,0 0,21.9898 3.7392,1.8071 0,-11.6542 4.6334,4.9235 4.7137,0 -4.4707,-4.6758 6.3415,-12.3904 -4.2276,0 z"
       style="fill:#ffffff;fill-opacity:1;fill-rule:nonzero;stroke:none"
       id="path3451"
       inkscape:connector-curvature="0" /><path
       d="m 1598.0436,-1917.8531 0,21.9898 3.7369,1.8071 0,-23.7969 -3.7369,0 z"
       style="fill:#ffffff;fill-opacity:1;fill-rule:nonzero;stroke:none"
       id="path3455"
       inkscape:connector-curvature="0" /><path
       d="m 1587.3997,-1917.8531 0,0.5733 c -4.5414,-2.6234 -10.1562,-0.4907 -10.1562,4.7608 l 0,11.7321 3.7157,0 0,-11.3216 c 0,-2.2153 1.4863,-2.7083 3.468,-2.7083 1.4862,0.082 2.8899,0.7384 2.8899,2.7083 l 0,11.3216 3.7157,0 0,-17.0662 -3.6331,0 z"
       style="fill:#ffffff;fill-opacity:1;fill-rule:nonzero;stroke:none"
       id="path3459"
       inkscape:connector-curvature="0" /><path
       d="m 1567.8743,-1898.5881 c -0.6559,0.3279 -1.0664,0.4081 -2.2153,0.4081 l -4.8339,0 0,-5.7375 4.8339,0 c 1.1489,0 1.5594,0.08 2.2153,0.4082 0.8186,0.4128 1.3942,1.4768 1.3942,2.4606 0,0.9837 -0.5756,1.9675 -1.3942,2.4606 m 1.557,-8.2807 c -1.0663,-0.4931 -2.4606,-0.8186 -4.263,-0.8186 l -4.3432,0 0,-10.1657 -3.6921,0 0,23.3605 8.0353,0 c 1.885,0 3.1165,-0.1628 4.263,-0.7337 2.0478,-0.9861 3.6072,-3.4444 3.6072,-5.8224 0,-2.4606 -1.5594,-4.9189 -3.6072,-5.8201"
       style="fill:#ffffff;fill-opacity:1;fill-rule:nonzero;stroke:none"
       id="path3463"
       inkscape:connector-curvature="0" /><path
       d="m 1629.9546,-1918.1709 c -2.4771,-0.01 -3.9658,1.0593 -5.0392,2.6966 l 2.6352,2.2199 c 0.8281,-1.064 1.9038,-1.8 2.9749,-1.4697 1.5665,0.4152 1.7293,1.892 0.4884,3.2014 -2.2318,2.5408 -5.7847,3.6001 -6.0371,6.2235 -0.1699,2.3001 1.0663,4.1875 3.5411,4.7678 1.9793,0.4978 4.4564,0.01 6.4429,-2.3662 l -2.6376,-2.1421 c 0,0 -1.8213,2.1326 -3.0575,0.8964 -2.0595,-1.9722 7.0256,-4.1686 6.6222,-9.2573 -0.1604,-2.5456 -2.22,-4.7656 -5.9333,-4.7703"
       style="fill:#ffffff;fill-opacity:1;fill-rule:nonzero;stroke:none"
       id="path3467"
       inkscape:connector-curvature="0" /><path
       d="m 1512.1205,-1895.1022 -0.1109,-0.064 -16.3608,-11.1848 16.5142,-11.3264 0.085,-0.054 c 0.2359,-0.1297 0.5308,-0.1958 0.8281,-0.1958 0.913,0 1.6585,0.7054 1.6585,1.6585 0,0.1675 -0.038,0.2902 -0.083,0.4601 l -1.6609,5.1429 20.8339,0 0,8.5898 -20.8339,0 1.6609,5.1052 0.047,0.1864 c 0.024,0.097 0.035,0.1982 0.035,0.3114 0,0.9154 -0.7455,1.6585 -1.6585,1.6585 -0.3303,0 -0.6653,-0.125 -0.9555,-0.2878"
       style="fill:#ffffff;fill-opacity:1;fill-rule:nonzero;stroke:none"
       id="path3471"
       inkscape:connector-curvature="0" /></g></svg>