<?xml version="1.0" encoding="UTF-8" standalone="no"?>
<!-- Created with Inkscape (http://www.inkscape.org/) -->

<svg
   xmlns:dc="http://purl.org/dc/elements/1.1/"
   xmlns:cc="http://creativecommons.org/ns#"
   xmlns:rdf="http://www.w3.org/1999/02/22-rdf-syntax-ns#"
   xmlns:svg="http://www.w3.org/2000/svg"
   xmlns="http://www.w3.org/2000/svg"
   xmlns:sodipodi="http://sodipodi.sourceforge.net/DTD/sodipodi-0.dtd"
   xmlns:inkscape="http://www.inkscape.org/namespaces/inkscape"
   id="svg17624"
   version="1.1"
   inkscape:version="0.48.2 r9819"
   width="167.85156"
   height="90.664062"
   xml:space="preserve"
   sodipodi:docname="MUTCD D1-1d.svg"><metadata
     id="metadata17630"><rdf:RDF><cc:Work
         rdf:about=""><dc:format>image/svg+xml</dc:format><dc:type
           rdf:resource="http://purl.org/dc/dcmitype/StillImage" /><dc:title></dc:title></cc:Work></rdf:RDF></metadata><defs
     id="defs17628"><inkscape:perspective
       sodipodi:type="inkscape:persp3d"
       inkscape:vp_x="0 : 0.5 : 1"
       inkscape:vp_y="0 : 1000 : 0"
       inkscape:vp_z="1 : 0.5 : 1"
       inkscape:persp3d-origin="0.5 : 0.33333333 : 1"
       id="perspective17632" /><clipPath
       clipPathUnits="userSpaceOnUse"
       id="clipPath17642"><path
         d="m -2,710 501,0 0,-711 -501,0 0,711 z"
         id="path17644"
         inkscape:connector-curvature="0" /></clipPath><clipPath
       clipPathUnits="userSpaceOnUse"
       id="clipPath17648"><path
         d="m 0,708.06 498,0 0,-708 -498,0 0,708 z"
         id="path17650"
         inkscape:connector-curvature="0" /></clipPath><clipPath
       clipPathUnits="userSpaceOnUse"
       id="clipPath17798"><path
         d="m -2,710 501,0 0,-711 -501,0 0,711 z"
         id="path17800"
         inkscape:connector-curvature="0" /></clipPath><clipPath
       clipPathUnits="userSpaceOnUse"
       id="clipPath17804"><path
         d="m 0,708.06 498,0 0,-708 -498,0 0,708 z"
         id="path17806"
         inkscape:connector-curvature="0" /></clipPath><clipPath
       id="Clip0"><path
         inkscape:connector-curvature="0"
         d="m 0,0 212.597,0 0,269.292 L 0,269.292 0,0 z"
         transform="translate(0.923828,0.879883)"
         id="path7" /></clipPath><clipPath
       id="Clip0-8"><path
         inkscape:connector-curvature="0"
         d="m 0,0 170.079,0 0,113.386 L 0,113.386 0,0 z"
         transform="translate(0.0986328,0.822266)"
         id="path7-8" /></clipPath><clipPath
       id="Clip0-1"><path
         inkscape:connector-curvature="0"
         d="m 0,0 287.009,0 0,159.449 L 0,159.449 0,0 z"
         transform="translate(0.396484,0.267578)"
         id="path7-7" /></clipPath><clipPath
       id="Clip0-9"><path
         inkscape:connector-curvature="0"
         d="m 0,0 170.079,0 0,170.079 L 0,170.079 0,0 z"
         transform="translate(0.460938,0.775391)"
         id="path7-4" /></clipPath><clipPath
       id="Clip0-4"><path
         inkscape:connector-curvature="0"
         d="m 0,0 340.157,0 0,226.771 L 0,226.771 0,0 z"
         transform="translate(0.921875,0.25293)"
         id="path7-5" /></clipPath><clipPath
       id="Clip0-5"><path
         inkscape:connector-curvature="0"
         d="m 0,0 255.119,0 0,170.079 L 0,170.079 0,0 z"
         transform="translate(0.147461,0.0595703)"
         id="path7-1" /></clipPath><clipPath
       id="Clip0-0"><path
         inkscape:connector-curvature="0"
         d="m 0,0 170.079,0 0,113.386 L 0,113.386 0,0 z"
         transform="translate(0.0673828,0.207031)"
         id="path7-9" /></clipPath></defs><sodipodi:namedview
     pagecolor="#ffffff"
     bordercolor="#666666"
     borderopacity="1"
     objecttolerance="10"
     gridtolerance="10"
     guidetolerance="10"
     inkscape:pageopacity="0"
     inkscape:pageshadow="2"
     inkscape:window-width="1280"
     inkscape:window-height="1004"
     id="namedview17626"
     showgrid="false"
     inkscape:zoom="4"
     inkscape:cx="79.517001"
     inkscape:cy="43.825501"
     inkscape:window-x="-8"
     inkscape:window-y="-8"
     inkscape:window-maximized="1"
     inkscape:current-layer="g17634"
     fit-margin-top="0"
     fit-margin-left="0"
     fit-margin-right="0"
     fit-margin-bottom="0"
     showguides="true"
     inkscape:guide-bbox="true" /><g
     id="g17634"
     inkscape:groupmode="layer"
     inkscape:label="GG1999P002"
     transform="matrix(1.25,0,0,-1.25,-3550.8203,-1355.1172)"><path
       inkscape:connector-curvature="0"
       d="m 2974.6911,-1151.2376 c 0,-2.83 -2.315,-5.146 -5.146,-5.146 l -123.512,0 c -2.83,0 -5.147,2.316 -5.147,5.146 l 0,61.757 c 0,2.83 2.317,5.146 5.147,5.146 l 123.512,0 c 2.831,0 5.146,-2.316 5.146,-5.146 l 0,-61.757 z"
       style="fill:#ffffff;fill-opacity:1;fill-rule:nonzero;stroke:#000000;stroke-width:0.48;stroke-miterlimit:4;stroke-opacity:1;stroke-dasharray:none"
       id="path3651" /><path
       inkscape:connector-curvature="0"
       d="m 2846.0331,-1154.2396 c -0.797,0 -1.549,0.314 -2.118,0.884 -0.571,0.57 -0.884,1.322 -0.884,2.118 l 0,61.757 c 0,0.796 0.313,1.548 0.884,2.118 0.569,0.57 1.321,0.884 2.118,0.884 l 123.512,0 c 0.796,0 1.548,-0.314 2.118,-0.884 0.57,-0.57 0.884,-1.322 0.884,-2.118 l 0,-61.757 c 0,-0.796 -0.314,-1.548 -0.884,-2.118 -0.57,-0.57 -1.322,-0.884 -2.118,-0.884 l -123.512,0 z"
       style="fill:#00674c;fill-opacity:1;fill-rule:nonzero;stroke:none"
       id="path3659" /><path
       inkscape:connector-curvature="0"
       d="m 2902.8311,-1106.2928 -3.937,6.97 0,-6.97 -1.625,0 0,10.2929 1.625,0 3.756,-6.573 0,6.573 1.625,0 0,-10.2929 -1.444,0 z"
       style="fill:#ffffff;fill-opacity:1;fill-rule:nonzero;stroke:none"
       id="path3663" /><path
       inkscape:connector-curvature="0"
       d="m 2909.5761,-1100.9574 c -0.217,0.361 -0.484,0.506 -0.893,0.529 -0.531,0.025 -0.869,-0.24 -1.11,-0.8421 -0.169,-0.409 -0.266,-1.035 -0.266,-1.613 0,-0.723 0.145,-1.469 0.41,-1.903 0.218,-0.36 0.507,-0.529 0.942,-0.529 0.507,0 0.82,0.265 1.062,0.867 0.144,0.361 0.265,1.035 0.265,1.565 0,0.77 -0.146,1.469 -0.41,1.926 m 0.748,-4.695 c -0.387,-0.53 -0.942,-0.77 -1.665,-0.77 -0.966,0 -1.569,0.385 -1.98,1.228 -0.289,0.577 -0.482,1.492 -0.482,2.311 0,1.132 0.289,2.142 0.748,2.793 0.41,0.529 0.966,0.77 1.763,0.77 0.868,0 1.471,-0.385 1.905,-1.228 0.29,-0.602 0.459,-1.469 0.459,-2.335 0,-1.084 -0.266,-2.167 -0.748,-2.769"
       style="fill:#ffffff;fill-opacity:1;fill-rule:nonzero;stroke:none"
       id="path3667" /><path
       inkscape:connector-curvature="0"
       d="m 2920.4621,-1100.3954 0,-5.899 -1.088,0 0,5.899 -1.573,0 0,0.963 4.257,0 0,-0.963 -1.596,0 z"
       style="fill:#ffffff;fill-opacity:1;fill-rule:nonzero;stroke:none"
       id="path3671" /><path
       inkscape:connector-curvature="0"
       d="m 2915.5911,-1100.6361 c -0.169,0.097 -0.263,0.1199 -0.626,0.1199 l -1.3,0 0,-1.6849 1.3,0 c 0.338,0 0.457,0.024 0.626,0.121 0.266,0.144 0.434,0.433 0.434,0.721 0,0.289 -0.168,0.578 -0.434,0.723 m 0.482,-5.658 -1.108,2.986 -1.3,0 0,-2.986 -1.083,0 0,6.862 2.263,0 c 0.53,0 0.891,-0.048 1.228,-0.217 0.602,-0.289 1.035,-1.011 1.035,-1.71 0,-0.721 -0.433,-1.444 -1.06,-1.733 l 1.205,-3.202 -1.18,0 z"
       style="fill:#ffffff;fill-opacity:1;fill-rule:nonzero;stroke:none"
       id="path3675" /><path
       inkscape:connector-curvature="0"
       d="m 2926.6741,-1106.2943 0,2.986 -2.503,0 0,-2.986 -1.085,0 0,6.862 1.085,0 0,-2.769 2.503,0 0,2.769 1.085,0 0,-6.862 -1.085,0 z"
       style="fill:#ffffff;fill-opacity:1;fill-rule:nonzero;stroke:none"
       id="path3679" /><path
       inkscape:connector-curvature="0"
       d="m 2922.6321,-1140.9647 c 0.037,-1.048 0.361,-2.422 1.481,-2.4581 0.577,-0.036 0.974,0.109 1.373,0.5061 l 0,3.796 c -0.435,0.47 -0.796,0.5419 -1.265,0.5419 -1.264,-0.036 -1.625,-1.3009 -1.589,-2.3859 m -1.663,0 c 0.036,1.988 0.687,4.122 3.144,3.904 0.505,-0.036 1.227,-0.252 1.409,-0.433 l 0,2.422 1.625,0.795 0,-10.483 -1.625,0 0,0.217 c -0.506,-0.29 -0.867,-0.398 -1.445,-0.398 -2.276,0 -3.144,1.844 -3.108,3.976"
       style="fill:#ffffff;fill-opacity:1;fill-rule:nonzero;stroke:none"
       id="path3683" /><path
       inkscape:connector-curvature="0"
       d="m 2911.7051,-1138.5785 c -1.258,0 -1.437,-0.831 -1.437,-1.59 l 2.801,0 c 0,0.722 -0.144,1.59 -1.364,1.59 m -1.401,-3.108 c 0.071,-0.832 0.394,-1.7 1.401,-1.7 0.681,0 1.22,0.398 1.4,1.048 l 1.329,-0.83 c -0.431,-0.977 -1.222,-1.736 -2.729,-1.736 -2.586,0 -3.09,1.988 -3.09,3.94 0,1.664 0.504,3.904 3.09,3.904 2.944,0 3.016,-2.783 2.98,-4.626 l -4.381,0 z"
       style="fill:#ffffff;fill-opacity:1;fill-rule:nonzero;stroke:none"
       id="path3687" /><path
       inkscape:connector-curvature="0"
       d="m 2893.7291,-1143.4226 c 0.575,-0.036 0.971,0.109 1.367,0.506 l 0,3.796 c -0.431,0.434 -0.792,0.542 -1.259,0.542 -1.259,-0.036 -1.62,-1.301 -1.584,-2.386 0.037,-1.048 0.361,-2.422 1.476,-2.458 m -3.13,2.458 c 0.036,1.988 0.683,4.122 3.13,3.904 0.504,-0.036 1.223,-0.252 1.402,-0.433 l 0,0.253 1.621,0 0,-6.542 c 0,-0.977 0.539,-4.339 -3.418,-4.737 l -0.792,1.229 c 0.935,0.217 2.589,0.579 2.589,1.843 l 0,0.905 c -0.466,-0.29 -0.862,-0.398 -1.438,-0.398 -2.267,0 -3.13,1.844 -3.094,3.976"
       style="fill:#ffffff;fill-opacity:1;fill-rule:nonzero;stroke:none"
       id="path3691" /><path
       inkscape:connector-curvature="0"
       d="m 2877.472,-1137.2402 1.647,0 0,-7.519 -1.647,0 0,7.519 z m 0.823,1.265 c -0.47,0 -0.868,0.361 -0.868,0.831 0,0.47 0.398,0.868 0.868,0.868 0.47,0 0.868,-0.398 0.868,-0.868 0,-0.47 -0.398,-0.831 -0.868,-0.831"
       style="fill:#ffffff;fill-opacity:1;fill-rule:nonzero;stroke:none"
       id="path3693" /><path
       inkscape:connector-curvature="0"
       d="m 2904.498,-1137.2402 1.647,0 0,-7.519 -1.647,0 0,7.519 z m 0.823,1.265 c -0.47,0 -0.867,0.361 -0.867,0.831 0,0.47 0.397,0.868 0.867,0.868 0.471,0 0.868,-0.398 0.868,-0.868 0,-0.47 -0.397,-0.831 -0.868,-0.831"
       style="fill:#ffffff;fill-opacity:1;fill-rule:nonzero;stroke:none"
       id="path3695" /><path
       inkscape:connector-curvature="0"
       d="m 2916.8511,-1144.7596 0,9.688 1.648,0.795 0,-10.483 -1.648,0 z"
       style="fill:#ffffff;fill-opacity:1;fill-rule:nonzero;stroke:none"
       id="path3699" /><path
       inkscape:connector-curvature="0"
       d="m 2886.6551,-1144.7596 0,4.989 c 0,0.976 -0.652,1.192 -1.52,1.192 -0.65,-0.036 -1.265,-0.398 -1.265,-1.264 l 0,-4.917 -1.663,0 0,7.519 1.627,0 0,-0.253 c 1.7,1.085 4.448,0.217 4.448,-2.097 l 0,-5.169 -1.627,0 z"
       style="fill:#ffffff;fill-opacity:1;fill-rule:nonzero;stroke:none"
       id="path3703" /><path
       inkscape:connector-curvature="0"
       d="m 2875.4021,-1139.0126 c -0.326,0.2539 -0.58,0.4339 -0.979,0.4339 -0.942,0 -1.05,-0.5419 -1.05,-1.4819 l 0,-4.6991 -1.667,0 0,7.519 1.667,0 0,-0.362 c 0.398,0.362 0.58,0.542 1.159,0.542 0.58,0 0.834,-0.216 1.088,-0.506 l -0.218,-1.446 z"
       style="fill:#ffffff;fill-opacity:1;fill-rule:nonzero;stroke:none"
       id="path3707" /><path
       inkscape:connector-curvature="0"
       d="m 2866.0031,-1138.5785 c -0.467,0 -0.863,-0.072 -1.257,-0.542 l 0,-3.796 c 0.394,-0.397 0.79,-0.542 1.364,-0.506 1.114,0.036 1.436,1.41 1.473,2.458 0.036,1.085 -0.324,2.35 -1.58,2.386 m 0.143,-6.362 c -0.574,0 -0.934,0.108 -1.436,0.398 l 0,-2.386 -1.653,-0.723 0,10.411 1.653,0 0,-0.253 c 0.179,0.181 0.862,0.397 1.364,0.433 2.443,0.218 3.126,-1.916 3.161,-3.904 0,-2.132 -0.861,-3.976 -3.089,-3.976"
       style="fill:#ffffff;fill-opacity:1;fill-rule:nonzero;stroke:none"
       id="path3711" /><path
       inkscape:connector-curvature="0"
       d="m 2859.7301,-1144.1336 c -0.578,-0.505 -1.373,-0.794 -2.239,-0.794 -1.77,0 -3.071,1.046 -3.756,2.5999 l 1.553,0.578 c 0.433,-0.9749 1.228,-1.517 2.203,-1.517 0.938,0 1.589,0.65 1.589,1.517 0,1.373 -1.589,1.589 -2.925,2.1311 -0.614,0.2529 -1.986,0.8669 -1.986,2.564 0,2.022 1.372,2.781 3.213,2.781 1.445,0 2.42,-0.831 2.926,-2.0941 l -1.444,-0.4339 c 0,0 -0.361,0.866 -1.518,0.902 -0.759,0.037 -1.662,-0.252 -1.589,-1.191 0.145,-1.915 4.984,-0.6501 4.984,-4.695 0,-0.939 -0.362,-1.77 -1.011,-2.348"
       style="fill:#ffffff;fill-opacity:1;fill-rule:nonzero;stroke:none"
       id="path3715" /><path
       inkscape:connector-curvature="0"
       d="m 2901.5651,-1138.7225 0,-6.037 -1.656,0 0,6.037 -0.972,0 0,1.482 0.972,0 0,1.302 c 0,0.758 0.324,1.662 1.476,1.662 0.504,0 0.756,-0.072 1.26,-0.18 l 0,-1.4101 c -0.359,0.072 -1.08,0.3621 -1.08,-0.29 l 0,-1.084 1.08,0 0,-1.482 -1.08,0 z"
       style="fill:#ffffff;fill-opacity:1;fill-rule:nonzero;stroke:none"
       id="path3719" /><path
       inkscape:connector-curvature="0"
       d="m 2886.9831,-1111.4129 c 0,-8.526 -6.913,-15.438 -15.439,-15.438 -8.528,0 -15.44,6.912 -15.44,15.438 0,8.527 6.912,15.439 15.44,15.439 8.526,0 15.439,-6.912 15.439,-15.439"
       style="fill:#ffffff;fill-opacity:1;fill-rule:nonzero;stroke:none"
       id="path3723" /><path
       inkscape:connector-curvature="0"
       d="m 2875.4371,-1107.9725 c -1.361,-2.275 -2.395,-4.876 -2.886,-7.368 -0.217,-1.3 -0.327,-2.275 -0.327,-3.792 l -2.505,0 c 0.055,3.576 0.708,6.556 2.233,9.806 0.545,1.191 1.198,2.329 1.743,3.195 l -7.406,0 0,2.438 10.51,0 0,-2.438 c -0.546,-0.703 -0.872,-1.028 -1.362,-1.841"
       style="fill:#000000;fill-opacity:1;fill-rule:nonzero;stroke:none"
       id="path3727" /><path
       inkscape:connector-curvature="0"
       d="m 2959.6431,-1121.9759 0.022,0.074 2.178,11.586 -11.713,-2.181 -0.056,-0.015 c -0.155,-0.044 -0.308,-0.1401 -0.432,-0.2651 -0.384,-0.384 -0.401,-0.9939 0,-1.396 0.069,-0.07 0.14,-0.104 0.227,-0.1569 l 2.863,-1.466 -10.694,-10.937 3.614,-3.614 10.693,10.937 1.449,-2.845 0.059,-0.098 c 0.03,-0.051 0.067,-0.099 0.115,-0.147 0.384,-0.384 1.012,-0.384 1.396,0 0.139,0.14 0.227,0.332 0.279,0.524"
       style="fill:#ffffff;fill-opacity:1;fill-rule:nonzero;stroke:none"
       id="path3731" /></g></svg>