<?xml version="1.0" encoding="UTF-8" standalone="no"?>
<!-- Created with Inkscape (http://www.inkscape.org/) -->

<svg
   xmlns:dc="http://purl.org/dc/elements/1.1/"
   xmlns:cc="http://creativecommons.org/ns#"
   xmlns:rdf="http://www.w3.org/1999/02/22-rdf-syntax-ns#"
   xmlns:svg="http://www.w3.org/2000/svg"
   xmlns="http://www.w3.org/2000/svg"
   xmlns:sodipodi="http://sodipodi.sourceforge.net/DTD/sodipodi-0.dtd"
   xmlns:inkscape="http://www.inkscape.org/namespaces/inkscape"
   id="svg17624"
   version="1.1"
   inkscape:version="0.48.2 r9819"
   width="320.35156"
   height="86.09375"
   xml:space="preserve"
   sodipodi:docname="MUTCD D1-3.svg"><metadata
     id="metadata17630"><rdf:RDF><cc:Work
         rdf:about=""><dc:format>image/svg+xml</dc:format><dc:type
           rdf:resource="http://purl.org/dc/dcmitype/StillImage" /><dc:title></dc:title></cc:Work></rdf:RDF></metadata><defs
     id="defs17628"><inkscape:perspective
       sodipodi:type="inkscape:persp3d"
       inkscape:vp_x="0 : 0.5 : 1"
       inkscape:vp_y="0 : 1000 : 0"
       inkscape:vp_z="1 : 0.5 : 1"
       inkscape:persp3d-origin="0.5 : 0.33333333 : 1"
       id="perspective17632" /><clipPath
       clipPathUnits="userSpaceOnUse"
       id="clipPath17642"><path
         d="m -2,710 501,0 0,-711 -501,0 0,711 z"
         id="path17644"
         inkscape:connector-curvature="0" /></clipPath><clipPath
       clipPathUnits="userSpaceOnUse"
       id="clipPath17648"><path
         d="m 0,708.06 498,0 0,-708 -498,0 0,708 z"
         id="path17650"
         inkscape:connector-curvature="0" /></clipPath><clipPath
       clipPathUnits="userSpaceOnUse"
       id="clipPath17798"><path
         d="m -2,710 501,0 0,-711 -501,0 0,711 z"
         id="path17800"
         inkscape:connector-curvature="0" /></clipPath><clipPath
       clipPathUnits="userSpaceOnUse"
       id="clipPath17804"><path
         d="m 0,708.06 498,0 0,-708 -498,0 0,708 z"
         id="path17806"
         inkscape:connector-curvature="0" /></clipPath><clipPath
       id="Clip0"><path
         inkscape:connector-curvature="0"
         d="m 0,0 212.597,0 0,269.292 L 0,269.292 0,0 z"
         transform="translate(0.923828,0.879883)"
         id="path7" /></clipPath><clipPath
       id="Clip0-8"><path
         inkscape:connector-curvature="0"
         d="m 0,0 170.079,0 0,113.386 L 0,113.386 0,0 z"
         transform="translate(0.0986328,0.822266)"
         id="path7-8" /></clipPath><clipPath
       id="Clip0-1"><path
         inkscape:connector-curvature="0"
         d="m 0,0 287.009,0 0,159.449 L 0,159.449 0,0 z"
         transform="translate(0.396484,0.267578)"
         id="path7-7" /></clipPath><clipPath
       id="Clip0-9"><path
         inkscape:connector-curvature="0"
         d="m 0,0 170.079,0 0,170.079 L 0,170.079 0,0 z"
         transform="translate(0.460938,0.775391)"
         id="path7-4" /></clipPath><clipPath
       id="Clip0-4"><path
         inkscape:connector-curvature="0"
         d="m 0,0 340.157,0 0,226.771 L 0,226.771 0,0 z"
         transform="translate(0.921875,0.25293)"
         id="path7-5" /></clipPath><clipPath
       id="Clip0-5"><path
         inkscape:connector-curvature="0"
         d="m 0,0 255.119,0 0,170.079 L 0,170.079 0,0 z"
         transform="translate(0.147461,0.0595703)"
         id="path7-1" /></clipPath><clipPath
       id="Clip0-0"><path
         inkscape:connector-curvature="0"
         d="m 0,0 170.079,0 0,113.386 L 0,113.386 0,0 z"
         transform="translate(0.0673828,0.207031)"
         id="path7-9" /></clipPath></defs><sodipodi:namedview
     pagecolor="#ffffff"
     bordercolor="#666666"
     borderopacity="1"
     objecttolerance="10"
     gridtolerance="10"
     guidetolerance="10"
     inkscape:pageopacity="0"
     inkscape:pageshadow="2"
     inkscape:window-width="1280"
     inkscape:window-height="1004"
     id="namedview17626"
     showgrid="false"
     inkscape:zoom="1.2265625"
     inkscape:cx="87.221381"
     inkscape:cy="134.18098"
     inkscape:window-x="-8"
     inkscape:window-y="-8"
     inkscape:window-maximized="1"
     inkscape:current-layer="g17634"
     fit-margin-top="0"
     fit-margin-left="0"
     fit-margin-right="0"
     fit-margin-bottom="0"
     showguides="true"
     inkscape:guide-bbox="true" /><g
     id="g17634"
     inkscape:groupmode="layer"
     inkscape:label="GG1999P002"
     transform="matrix(1.25,0,0,-1.25,-2914.8047,-2664.4922)"><path
       d="m 2343.5572,-2132.0599 232.8617,0 c 6.1834,0 11.2203,-5.0392 11.2203,-11.2178 l 0,-45.4919 c 0,-6.1787 -5.0369,-11.2202 -11.2203,-11.2202 l -232.8617,0 c -6.1787,0 -11.2202,5.0415 -11.2202,11.2202 l 0,45.4919 c 0,6.1031 5.1147,11.2178 11.2202,11.2178"
       style="fill:#ffffff;fill-opacity:1;fill-rule:nonzero;stroke:#000000;stroke-width:0.95999998;stroke-miterlimit:4;stroke-opacity:1;stroke-dasharray:none"
       id="path3701"
       inkscape:connector-curvature="0" /><path
       d="m 2576.3554,-2136.8708 c 3.6025,-0.087 6.3863,-2.8617 6.4689,-6.4688 l 0,-45.7608 c -0.2713,-3.3831 -3.0268,-6.082 -6.4641,-6.0796 l -233.1354,0.01 c -3.3759,0.2642 -6.0866,3.0245 -6.0772,6.4618 l 0.01,45.7608 c 0.2618,3.383 3.0221,6.0819 6.4594,6.0772 l 232.7437,0"
       style="fill:#00674c;fill-opacity:1;fill-rule:evenodd;stroke:none"
       id="path3725"
       inkscape:connector-curvature="0" /><path
       d="m 2366.3354,-2175.4361 -14.8887,10.0123 14.8887,10.0312 c 0.6582,0.4411 1.5547,0.2736 2.003,-0.3775 0.2972,-0.4388 0.2429,-0.8871 0.1061,-1.4249 l -1.3117,-4.3456 16.25,0 0,-7.7546 -16.25,0 1.281,-4.2748 c 0.1652,-0.5922 0.2336,-1.0286 -0.076,-1.4839 -0.4482,-0.6512 -1.3447,-0.821 -2.0029,-0.3822"
       style="fill:#ffffff;fill-opacity:1;fill-rule:evenodd;stroke:none"
       id="path3729"
       inkscape:connector-curvature="0" /><path
       d="m 2440.2828,-2172.289 c 0,-1.6585 -0.9625,-2.4913 -2.8074,-2.4913 l -5.4567,0 0,5.8861 4.5744,0 c 0.8021,0 1.0428,0 1.524,-0.1486 1.2834,-0.4553 2.1657,-1.8142 2.1657,-3.2462 m 3.6898,0.076 c 0,2.3379 -1.3636,4.1521 -3.77,5.209 2.1681,1.1324 3.2109,2.7178 3.2109,4.8316 0,3.0929 -2.7296,5.4332 -6.3391,5.4332 l -8.6652,0 0,-21.5133 8.6652,0 c 1.0427,0 2.4063,0.2265 3.2084,0.5285 2.1681,0.8304 3.6898,3.1707 3.6898,5.511 m -4.171,9.8896 c 0,-0.9814 -0.4813,-1.8897 -1.2834,-2.4912 -0.6417,-0.453 -1.123,-0.604 -2.1657,-0.604 l -4.3338,0 0,5.2845 5.2963,0 c 1.6042,0 2.4866,-0.7549 2.4866,-2.1893"
       style="fill:#ffffff;fill-opacity:1;fill-rule:nonzero;stroke:none"
       id="path3733"
       inkscape:connector-curvature="0" /><path
       d="m 2457.0528,-2178.253 0,0.5285 c -4.414,-2.4158 -9.8708,-0.453 -9.8708,4.3786 l 0,10.7955 3.6119,0 0,-10.418 c 0,-2.0407 1.4438,-2.4913 3.3689,-2.4913 1.4461,0.073 2.8097,0.6794 2.8097,2.4913 l 0,10.418 3.6096,0 0,-15.7026 -3.5293,0 z"
       style="fill:#ffffff;fill-opacity:1;fill-rule:nonzero;stroke:none"
       id="path3737"
       inkscape:connector-curvature="0" /><path
       d="m 2469.6481,-2165.6456 0,-12.6074 -3.6897,0 0,12.6074 -2.1657,0 0,3.0952 2.1657,0 0,2.7178 c 0,1.5854 0.7219,3.4727 3.2887,3.4727 1.1253,0 1.6844,-0.1533 2.8074,-0.3798 l 0,-2.9443 c -0.7998,0.1534 -2.4064,0.7573 -2.4064,-0.6016 l 0,-2.2648 2.4064,0 0,-3.0952 -2.4064,0 z"
       style="fill:#ffffff;fill-opacity:1;fill-rule:nonzero;stroke:none"
       id="path3741"
       inkscape:connector-curvature="0" /><path
       d="m 2479.2759,-2165.6456 0,-12.6074 -3.6897,0 0,12.6074 -2.1658,0 0,3.0952 2.1658,0 0,2.7178 c 0,1.5854 0.7219,3.4727 3.2886,3.4727 1.1254,0 1.6868,-0.1533 2.8074,-0.3798 l 0,-2.9443 c -0.7997,0.1534 -2.4063,0.7573 -2.4063,-0.6016 l 0,-2.2648 2.4063,0 0,-3.0952 -2.4063,0 z"
       style="fill:#ffffff;fill-opacity:1;fill-rule:nonzero;stroke:none"
       id="path3745"
       inkscape:connector-curvature="0" /><path
       d="m 2496.3662,-2178.253 0,10.4936 c 0,6.1126 -7.7829,6.9454 -11.9539,3.7723 l 1.0427,-3.3193 c 0.4813,0.6794 2.3262,2.2648 4.6547,1.9628 2.5667,-0.2289 2.4865,-2.7178 2.4865,-2.7178 -3.6921,1.4344 -9.3069,-0.151 -9.3069,-4.6074 0,-3.7723 2.8876,-5.8107 6.2565,-5.8107 1.2834,0 2.7296,0.2265 3.2911,0.6795 l 0,-0.453 3.5293,0 z m -3.6898,3.4727 c -1.3659,-0.6794 -5.7776,-1.8142 -5.7776,2.0383 0,3.1708 4.2536,2.2625 5.7776,1.5854 l 0,-3.6237 z"
       style="fill:#ffffff;fill-opacity:1;fill-rule:nonzero;stroke:none"
       id="path3749"
       inkscape:connector-curvature="0" /><path
       d="m 2500.6191,-2178.253 0,20.2299 3.6921,1.6632 0,-21.8931 -3.6921,0 z"
       style="fill:#ffffff;fill-opacity:1;fill-rule:nonzero;stroke:none"
       id="path3753"
       inkscape:connector-curvature="0" /><path
       d="m 2521.8032,-2170.3262 c 0,3.7723 -1.2055,8.1533 -6.9006,8.1533 -5.7776,0 -6.9807,-4.6806 -6.9807,-8.1533 0,-4.079 1.2031,-8.2311 6.9807,-8.2311 5.6951,0 6.9006,4.4565 6.9006,8.2311 m -3.6897,0 c 0,-1.5853 -0.4011,-5.1335 -3.2109,-5.1335 -2.8074,0 -3.2886,3.4727 -3.2886,5.058 0,1.5854 0.4812,5.0581 3.2886,5.0581 2.7272,0 3.2109,-3.4727 3.2109,-4.9826"
       style="fill:#ffffff;fill-opacity:1;fill-rule:nonzero;stroke:none"
       id="path3757"
       inkscape:connector-curvature="0" /><path
       d="m 2542.1003,-2178.253 0,17.439 -2.0855,0 0,2.7154 0.2406,0 c 0.9626,0 2.0053,0.5308 2.6494,1.3589 l 2.8876,0 0,-21.5133 -3.6921,0 z"
       style="fill:#ffffff;fill-opacity:1;fill-rule:nonzero;stroke:none"
       id="path3761"
       inkscape:connector-curvature="0" /><path
       d="m 2566.0907,-2172.893 0,3.0953 -2.1657,0 0,13.058 -3.6095,0 -11.3146,-14.1173 0,-2.036 11.3146,0 0,-5.36 3.6095,0 0,5.36 2.1657,0 z m -5.7752,3.0953 -6.4995,0 6.4995,8.0778 0,-8.0778 z"
       style="fill:#ffffff;fill-opacity:1;fill-rule:nonzero;stroke:none"
       id="path3765"
       inkscape:connector-curvature="0" /></g></svg>