<?xml version="1.0" encoding="UTF-8" standalone="no"?>
<!-- Created with Inkscape (http://www.inkscape.org/) -->

<svg
   xmlns:dc="http://purl.org/dc/elements/1.1/"
   xmlns:cc="http://creativecommons.org/ns#"
   xmlns:rdf="http://www.w3.org/1999/02/22-rdf-syntax-ns#"
   xmlns:svg="http://www.w3.org/2000/svg"
   xmlns="http://www.w3.org/2000/svg"
   xmlns:sodipodi="http://sodipodi.sourceforge.net/DTD/sodipodi-0.dtd"
   xmlns:inkscape="http://www.inkscape.org/namespaces/inkscape"
   id="svg17624"
   version="1.1"
   inkscape:version="0.48.2 r9819"
   width="296.71875"
   height="134.14062"
   xml:space="preserve"
   sodipodi:docname="MUTCD D1-1.svg"><metadata
     id="metadata17630"><rdf:RDF><cc:Work
         rdf:about=""><dc:format>image/svg+xml</dc:format><dc:type
           rdf:resource="http://purl.org/dc/dcmitype/StillImage" /><dc:title></dc:title></cc:Work></rdf:RDF></metadata><defs
     id="defs17628"><inkscape:perspective
       sodipodi:type="inkscape:persp3d"
       inkscape:vp_x="0 : 0.5 : 1"
       inkscape:vp_y="0 : 1000 : 0"
       inkscape:vp_z="1 : 0.5 : 1"
       inkscape:persp3d-origin="0.5 : 0.33333333 : 1"
       id="perspective17632" /><clipPath
       clipPathUnits="userSpaceOnUse"
       id="clipPath17642"><path
         d="m -2,710 501,0 0,-711 -501,0 0,711 z"
         id="path17644"
         inkscape:connector-curvature="0" /></clipPath><clipPath
       clipPathUnits="userSpaceOnUse"
       id="clipPath17648"><path
         d="m 0,708.06 498,0 0,-708 -498,0 0,708 z"
         id="path17650"
         inkscape:connector-curvature="0" /></clipPath><clipPath
       clipPathUnits="userSpaceOnUse"
       id="clipPath17798"><path
         d="m -2,710 501,0 0,-711 -501,0 0,711 z"
         id="path17800"
         inkscape:connector-curvature="0" /></clipPath><clipPath
       clipPathUnits="userSpaceOnUse"
       id="clipPath17804"><path
         d="m 0,708.06 498,0 0,-708 -498,0 0,708 z"
         id="path17806"
         inkscape:connector-curvature="0" /></clipPath><clipPath
       id="Clip0"><path
         inkscape:connector-curvature="0"
         d="m 0,0 212.597,0 0,269.292 L 0,269.292 0,0 z"
         transform="translate(0.923828,0.879883)"
         id="path7" /></clipPath><clipPath
       id="Clip0-8"><path
         inkscape:connector-curvature="0"
         d="m 0,0 170.079,0 0,113.386 L 0,113.386 0,0 z"
         transform="translate(0.0986328,0.822266)"
         id="path7-8" /></clipPath><clipPath
       id="Clip0-1"><path
         inkscape:connector-curvature="0"
         d="m 0,0 287.009,0 0,159.449 L 0,159.449 0,0 z"
         transform="translate(0.396484,0.267578)"
         id="path7-7" /></clipPath><clipPath
       id="Clip0-9"><path
         inkscape:connector-curvature="0"
         d="m 0,0 170.079,0 0,170.079 L 0,170.079 0,0 z"
         transform="translate(0.460938,0.775391)"
         id="path7-4" /></clipPath><clipPath
       id="Clip0-4"><path
         inkscape:connector-curvature="0"
         d="m 0,0 340.157,0 0,226.771 L 0,226.771 0,0 z"
         transform="translate(0.921875,0.25293)"
         id="path7-5" /></clipPath><clipPath
       id="Clip0-5"><path
         inkscape:connector-curvature="0"
         d="m 0,0 255.119,0 0,170.079 L 0,170.079 0,0 z"
         transform="translate(0.147461,0.0595703)"
         id="path7-1" /></clipPath><clipPath
       id="Clip0-0"><path
         inkscape:connector-curvature="0"
         d="m 0,0 170.079,0 0,113.386 L 0,113.386 0,0 z"
         transform="translate(0.0673828,0.207031)"
         id="path7-9" /></clipPath></defs><sodipodi:namedview
     pagecolor="#ffffff"
     bordercolor="#666666"
     borderopacity="1"
     objecttolerance="10"
     gridtolerance="10"
     guidetolerance="10"
     inkscape:pageopacity="0"
     inkscape:pageshadow="2"
     inkscape:window-width="1280"
     inkscape:window-height="1004"
     id="namedview17626"
     showgrid="false"
     inkscape:zoom="2"
     inkscape:cx="159.46599"
     inkscape:cy="90.657547"
     inkscape:window-x="-8"
     inkscape:window-y="-8"
     inkscape:window-maximized="1"
     inkscape:current-layer="g17634"
     fit-margin-top="0"
     fit-margin-left="0"
     fit-margin-right="0"
     fit-margin-bottom="0"
     showguides="true"
     inkscape:guide-bbox="true" /><g
     id="g17634"
     inkscape:groupmode="layer"
     inkscape:label="GG1999P002"
     transform="matrix(1.25,0,0,-1.25,-2200.3516,-2292.3047)"><path
       d="m 1771.9806,-1834.328 213.9625,0 c 6.1833,0 11.2202,-5.0415 11.2202,-11.2202 l 0,-83.9015 c 0,-6.1786 -5.0369,-11.2202 -11.2202,-11.2202 l -213.9625,0 c -6.181,0 -11.2202,5.0416 -11.2202,11.2202 l 0,83.9015 c 0,6.1056 5.1147,11.2202 11.2202,11.2202"
       style="fill:#ffffff;fill-opacity:1;fill-rule:nonzero;stroke:#000000;stroke-width:0.95999998;stroke-linecap:butt;stroke-linejoin:miter;stroke-miterlimit:4;stroke-opacity:1;stroke-dasharray:none"
       id="path3487"
       inkscape:connector-curvature="0" /><path
       d="m 1985.877,-1839.1388 c 3.6048,-0.087 6.3886,-2.8617 6.4712,-6.4688 l 0,-84.1752 c -0.2737,-3.3807 -3.0268,-6.0819 -6.4665,-6.0772 l -214.2336,0.01 c -3.3784,0.2618 -6.0867,3.022 -6.0773,6.4594 l 0.01,84.1751 c 0.2618,3.3807 3.0221,6.0819 6.4594,6.0772 l 213.8421,0"
       style="fill:#00674c;fill-opacity:1;fill-rule:evenodd;stroke:none"
       id="path3491"
       inkscape:connector-curvature="0" /><path
       d="m 1796.884,-1872.3544 -14.8581,10.0501 14.8581,10.0618 c 0.6558,0.4483 1.5523,0.2784 1.9958,-0.3774 0.2996,-0.4388 0.2454,-0.8918 0.1109,-1.4273 l -1.314,-4.3645 16.2192,0 0,-7.7829 -16.2192,0 1.2786,-4.289 c 0.1699,-0.5921 0.2407,-1.0356 -0.075,-1.491 -0.4435,-0.6535 -1.34,-0.8233 -1.9958,-0.3798"
       style="fill:#ffffff;fill-opacity:1;fill-rule:evenodd;stroke:none"
       id="path3495"
       inkscape:connector-curvature="0" /><path
       d="m 1852.1216,-1867.089 c 0,-1.6608 -0.9626,-2.4912 -2.8075,-2.4912 l -5.4567,0 0,5.8884 4.5744,0 c 0.8021,0 1.0404,0 1.5217,-0.1509 1.2857,-0.453 2.1681,-1.8119 2.1681,-3.2463 m 3.6921,0.075 c 0,2.3403 -1.3636,4.1522 -3.7724,5.2091 2.1658,1.1324 3.2085,2.7177 3.2085,4.8316 0,3.0952 -2.7272,5.4355 -6.3367,5.4355 l -8.6676,0 0,-21.5156 8.6676,0 c 1.0404,0 2.404,0.2264 3.2085,0.5284 2.1657,0.8304 3.6921,3.1707 3.6921,5.511 m -4.1734,9.8897 c 0,-0.9814 -0.4813,-1.8874 -1.2834,-2.4913 -0.6417,-0.453 -1.123,-0.604 -2.1681,-0.604 l -4.3314,0 0,5.2846 5.294,0 c 1.6066,0 2.4889,-0.755 2.4889,-2.1893"
       style="fill:#ffffff;fill-opacity:1;fill-rule:nonzero;stroke:none"
       id="path3499"
       inkscape:connector-curvature="0" /><path
       d="m 1867.3665,-1861.0493 c -0.7219,0.5285 -1.2858,0.906 -2.1681,0.906 -2.0855,0 -2.3261,-1.1324 -2.3261,-3.0953 l 0,-9.8141 -3.6921,0 0,15.7026 3.6921,0 0,-0.7549 c 0.8823,0.7549 1.2857,1.1324 2.5691,1.1324 1.2834,0 1.8449,-0.453 2.4064,-1.0569 l -0.4813,-3.0198 z"
       style="fill:#ffffff;fill-opacity:1;fill-rule:nonzero;stroke:none"
       id="path3503"
       inkscape:connector-curvature="0" /><path
       d="m 1883.5716,-1865.1261 c 0,3.7746 -1.2008,8.1533 -6.9005,8.1533 -5.7753,0 -6.9785,-4.6806 -6.9785,-8.1533 0,-4.0767 1.2032,-8.2288 6.9785,-8.2288 5.6997,0 6.9005,4.4541 6.9005,8.2288 m -3.6897,0 c 0,-1.5854 -0.4011,-5.1336 -3.2108,-5.1336 -2.8051,0 -3.2864,3.4727 -3.2864,5.0581 0,1.5853 0.4813,5.058 3.2864,5.058 2.7295,0 3.2108,-3.4727 3.2108,-4.9825"
       style="fill:#ffffff;fill-opacity:1;fill-rule:nonzero;stroke:none"
       id="path3507"
       inkscape:connector-curvature="0" /><path
       d="m 1900.1802,-1865.1261 c 0,3.7746 -1.2008,8.1533 -6.8982,8.1533 -5.78,0 -6.9808,-4.6806 -6.9808,-8.1533 0,-4.0767 1.2008,-8.2288 6.9808,-8.2288 5.6974,0 6.8982,4.4541 6.8982,8.2288 m -3.6898,0 c 0,-1.5854 -0.401,-5.1336 -3.2084,-5.1336 -2.8098,0 -3.2911,3.4727 -3.2911,5.0581 0,1.5853 0.4813,5.058 3.2911,5.058 2.7272,0 3.2084,-3.4727 3.2084,-4.9825"
       style="fill:#ffffff;fill-opacity:1;fill-rule:nonzero;stroke:none"
       id="path3511"
       inkscape:connector-curvature="0" /><path
       d="m 1914.3824,-1873.0525 -4.8151,8.8328 -2.0855,-2.0384 0,-6.7944 -3.6897,0 0,20.2323 3.6897,1.6608 0,-10.72 4.5744,4.5296 4.6523,0 -4.4116,-4.3032 6.2565,-11.3995 -4.171,0 z"
       style="fill:#ffffff;fill-opacity:1;fill-rule:nonzero;stroke:none"
       id="path3515"
       inkscape:connector-curvature="0" /><path
       d="m 1925.6969,-1860.4458 0,-12.6074 -3.6921,0 0,12.6074 -2.168,0 0,3.0953 2.168,0 0,2.7177 c 0,1.5854 0.7219,3.4727 3.2911,3.4727 1.1206,0 1.6844,-0.151 2.805,-0.3775 l 0,-2.9442 c -0.8021,0.151 -2.404,0.7549 -2.404,-0.6039 l 0,-2.2648 2.404,0 0,-3.0953 -2.404,0 z"
       style="fill:#ffffff;fill-opacity:1;fill-rule:nonzero;stroke:none"
       id="path3519"
       inkscape:connector-curvature="0" /><path
       d="m 1930.9897,-1857.3506 3.6096,0 0,-15.7026 -3.6096,0 0,15.7026 z m 1.7647,2.6423 c -1.038,0 -1.9227,0.7549 -1.9227,1.7364 0,0.9814 0.8847,1.8118 1.9227,1.8118 1.0428,0 1.9251,-0.8304 1.9251,-1.8118 0,-0.9815 -0.8823,-1.7364 -1.9251,-1.7364"
       style="fill:#ffffff;fill-opacity:1;fill-rule:nonzero;stroke:none"
       id="path3521"
       inkscape:connector-curvature="0" /><path
       d="m 1951.853,-1866.6351 c 0.08,3.8502 -0.082,9.6632 -6.6623,9.6632 -5.7752,0 -6.8982,-4.6806 -6.8982,-8.1533 0,-4.0766 1.123,-8.2288 6.8982,-8.2288 3.3713,0 5.136,1.5854 6.0985,3.6237 l -2.9678,1.7364 c -0.4011,-1.3589 -1.6043,-2.1893 -3.1307,-2.1893 -2.2459,0 -2.9654,1.8118 -3.1282,3.5481 l 9.7905,0 z m -3.6118,3.1708 -6.2589,0 c 0,1.5853 0.401,3.3217 3.2084,3.3217 2.7296,0 3.0505,-1.8119 3.0505,-3.3217"
       style="fill:#ffffff;fill-opacity:1;fill-rule:nonzero;stroke:none"
       id="path3525"
       inkscape:connector-curvature="0" /><path
       d="m 1954.9813,-1873.0525 0,20.2323 3.6897,1.6608 0,-21.8931 -3.6897,0 z"
       style="fill:#ffffff;fill-opacity:1;fill-rule:nonzero;stroke:none"
       id="path3529"
       inkscape:connector-curvature="0" /><path
       d="m 1965.9727,-1865.1261 c 0.08,-2.1893 0.8021,-5.0581 3.291,-5.1336 1.2834,-0.075 2.1657,0.2265 3.0481,1.0569 l 0,7.9268 c -0.9649,0.9814 -1.7647,1.1324 -2.8098,1.1324 -2.8074,-0.075 -3.6095,-2.7177 -3.5293,-4.9825 m -3.6898,0 c 0.078,4.1521 1.5217,8.6062 6.9808,8.1533 1.1206,-0.075 2.7272,-0.5285 3.1283,-0.906 l 0,5.0581 3.6095,1.6608 0,-21.893 -3.6095,0 0,0.4529 c -1.1254,-0.6039 -1.9275,-0.8304 -3.2109,-0.8304 -5.0533,0 -6.9807,3.8502 -6.8982,8.3043"
       style="fill:#ffffff;fill-opacity:1;fill-rule:nonzero;stroke:none"
       id="path3533"
       inkscape:connector-curvature="0" /><path
       d="m 1961.0184,-1921.662 14.8581,10.0454 -14.8581,10.0689 c -0.6558,0.4435 -1.55,0.2737 -1.9982,-0.3798 -0.2925,-0.4388 -0.243,-0.8918 -0.1062,-1.432 l 1.3117,-4.3598 -16.2193,0 0,-7.7829 16.2193,0 -1.281,-4.2913 c -0.1675,-0.5921 -0.2359,-1.0333 0.076,-1.4886 0.4483,-0.6559 1.3424,-0.8281 1.9982,-0.3799"
       style="fill:#ffffff;fill-opacity:1;fill-rule:evenodd;stroke:none"
       id="path3537"
       inkscape:connector-curvature="0" /><path
       d="m 1800.4817,-1911.3465 c 0,2.7178 -0.5615,5.4355 -1.524,7.3229 -1.4438,2.6422 -3.4515,3.8501 -6.3391,3.8501 -2.647,0 -4.4942,-0.7549 -5.8578,-2.4158 -1.524,-2.0383 -2.4889,-5.209 -2.4889,-8.7572 0,-2.5668 0.644,-5.4355 1.6066,-7.2474 1.3636,-2.6422 3.3712,-3.8501 6.5797,-3.8501 2.4087,0 4.2536,0.7549 5.5369,2.4158 1.6043,1.8873 2.4866,5.2845 2.4866,8.6817 m -3.6119,0 c 0,-1.6608 -0.401,-3.7747 -0.8823,-4.9071 -0.8021,-1.8873 -1.8449,-2.7177 -3.5293,-2.7177 -1.4438,0 -2.4064,0.5284 -3.1283,1.6608 -0.8847,1.3589 -1.3659,3.6992 -1.3659,5.964 0,1.8119 0.3232,3.7747 0.8846,5.0581 0.8022,1.8873 1.9228,2.7177 3.6898,2.6422 1.3659,-0.076 2.2483,-0.5284 2.9678,-1.6608 0.8823,-1.4344 1.3636,-3.6237 1.3636,-6.0395"
       style="fill:#ffffff;fill-opacity:1;fill-rule:nonzero;stroke:none"
       id="path3541"
       inkscape:connector-curvature="0" /><path
       d="m 1814.9245,-1922.0663 0,10.4181 c 0,2.0383 -1.4461,2.4913 -3.3712,2.4913 -1.4438,-0.076 -2.8074,-0.8305 -2.8074,-2.6423 l 0,-10.2671 -3.6921,0 0,15.7026 3.6095,0 0,-0.5284 c 3.7723,2.2648 9.8708,0.4529 9.8708,-4.3787 l 0,-10.7955 -3.6096,0 z"
       style="fill:#ffffff;fill-opacity:1;fill-rule:nonzero;stroke:none"
       id="path3545"
       inkscape:connector-curvature="0" /><path
       d="m 1835.8645,-1914.1397 c 0,3.7746 -1.2032,8.1532 -6.9005,8.1532 -5.7753,0 -6.9808,-4.6805 -6.9808,-8.1532 0,-4.0767 1.2055,-8.2288 6.9808,-8.2288 5.6973,0 6.9005,4.4541 6.9005,8.2288 m -3.6921,0 c 0,-1.5854 -0.401,-5.1336 -3.2084,-5.1336 -2.8098,0 -3.2911,3.4727 -3.2911,5.0581 0,1.5853 0.4813,5.058 3.2911,5.058 2.7272,0 3.2084,-3.4727 3.2084,-4.9825"
       style="fill:#ffffff;fill-opacity:1;fill-rule:nonzero;stroke:none"
       id="path3549"
       inkscape:connector-curvature="0" /><path
       d="m 1849.3448,-1922.0663 0,10.4181 c 0,2.0383 -1.4462,2.4913 -3.3712,2.4913 -1.4462,-0.076 -2.8098,-0.8305 -2.8098,-2.6423 l 0,-10.2671 -3.6898,0 0,15.7026 3.6096,0 0,-0.5284 c 3.7723,2.2648 9.8707,0.4529 9.8707,-4.3787 l 0,-10.7955 -3.6095,0 z"
       style="fill:#ffffff;fill-opacity:1;fill-rule:nonzero;stroke:none"
       id="path3553"
       inkscape:connector-curvature="0" /><path
       d="m 1860.0932,-1914.1397 c 0.08,-2.1894 0.8045,-5.0581 3.291,-5.1336 1.2834,-0.075 2.1657,0.2265 3.0504,1.0569 l 0,7.9268 c -0.9649,0.9814 -1.767,1.1324 -2.8097,1.1324 -2.8075,-0.075 -3.6119,-2.7177 -3.5317,-4.9825 m -3.6898,0 c 0.08,4.1521 1.5241,8.6062 6.9808,8.1532 1.123,-0.075 2.7272,-0.5284 3.1283,-0.9059 l 0,5.0581 3.6119,1.6608 0,-21.8931 -3.6119,0 0,0.453 c -1.123,-0.6039 -1.9251,-0.8304 -3.2109,-0.8304 -5.0533,0 -6.9784,3.8501 -6.8982,8.3043"
       style="fill:#ffffff;fill-opacity:1;fill-rule:nonzero;stroke:none"
       id="path3557"
       inkscape:connector-curvature="0" /><path
       d="m 1886.6527,-1922.0663 0,10.4936 c 0,6.1149 -7.7853,6.9454 -11.9563,3.7746 l 1.0428,-3.3217 c 0.4813,0.6795 2.3261,2.2648 4.6546,1.9629 2.5692,-0.2265 2.4866,-2.7178 2.4866,-2.7178 -3.6898,1.4344 -9.3069,-0.151 -9.3069,-4.6051 0,-3.7747 2.89,-5.813 6.2565,-5.813 1.2857,0 2.7295,0.2265 3.291,0.6794 l 0,-0.4529 3.5317,0 z m -3.6897,3.4727 c -1.366,-0.6795 -5.78,-1.8119 -5.78,2.0383 0,3.1707 4.2536,2.2648 5.78,1.5854 l 0,-3.6237 z"
       style="fill:#ffffff;fill-opacity:1;fill-rule:nonzero;stroke:none"
       id="path3561"
       inkscape:connector-curvature="0" /><path
       d="m 1896.9198,-1922.4443 c 1.2857,0 2.1681,0.2265 3.2132,0.8305 l 0,-1.8874 c 0,-2.6422 -3.6945,-3.3972 -5.7776,-3.8501 l 1.7646,-2.5668 c 8.8257,0.8304 7.6225,7.8513 7.6225,9.8896 l 0,13.6643 -3.6095,0 0,-0.5284 c -0.4034,0.3775 -2.0077,0.8304 -3.1306,0.9059 -5.4568,0.453 -6.9006,-4.0011 -6.9808,-8.1533 -0.08,-4.4541 1.8449,-8.3043 6.8982,-8.3043 m -3.2085,8.3043 c -0.078,2.2648 0.7243,4.9071 3.5317,4.9826 1.0451,0 1.8449,-0.2265 2.8098,-1.1324 l 0,-7.9268 c -0.8823,-0.8305 -1.7647,-1.1324 -3.0504,-1.0569 -2.4866,0.075 -3.2109,2.9442 -3.2911,5.1335"
       style="fill:#ffffff;fill-opacity:1;fill-rule:nonzero;stroke:none"
       id="path3565"
       inkscape:connector-curvature="0" /><path
       d="m 1920.3511,-1922.0663 0,10.4936 c 0,6.1149 -7.7853,6.9454 -11.9563,3.7746 l 1.0428,-3.3217 c 0.4812,0.6795 2.3261,2.2648 4.6546,1.9629 2.5691,-0.2265 2.4889,-2.7178 2.4889,-2.7178 -3.6921,1.4344 -9.3093,-0.151 -9.3093,-4.6051 0,-3.7747 2.89,-5.813 6.2589,-5.813 1.2834,0 2.7272,0.2265 3.2887,0.6794 l 0,-0.4529 3.5317,0 z m -3.6898,3.4727 c -1.3659,-0.6795 -5.7799,-1.8119 -5.7799,2.0383 0,3.1707 4.2535,2.2648 5.7799,1.5854 l 0,-3.6237 z"
       style="fill:#ffffff;fill-opacity:1;fill-rule:nonzero;stroke:none"
       id="path3569"
       inkscape:connector-curvature="0" /><path
       d="m 1993.2836,-1889.7986 -228.6884,0 0,4.6004 228.6884,0 0,-4.6004 z"
       style="fill:#ffffff;fill-opacity:1;fill-rule:evenodd;stroke:none"
       id="path3571"
       inkscape:connector-curvature="0" /></g></svg>