<?xml version="1.0" encoding="UTF-8" standalone="no"?>
<!-- Created with Inkscape (http://www.inkscape.org/) -->

<svg
   xmlns:dc="http://purl.org/dc/elements/1.1/"
   xmlns:cc="http://creativecommons.org/ns#"
   xmlns:rdf="http://www.w3.org/1999/02/22-rdf-syntax-ns#"
   xmlns:svg="http://www.w3.org/2000/svg"
   xmlns="http://www.w3.org/2000/svg"
   xmlns:sodipodi="http://sodipodi.sourceforge.net/DTD/sodipodi-0.dtd"
   xmlns:inkscape="http://www.inkscape.org/namespaces/inkscape"
   id="svg17624"
   version="1.1"
   inkscape:version="0.48.2 r9819"
   width="150.35156"
   height="72.617188"
   xml:space="preserve"
   sodipodi:docname="MUTCD D1-1e.svg"><metadata
     id="metadata17630"><rdf:RDF><cc:Work
         rdf:about=""><dc:format>image/svg+xml</dc:format><dc:type
           rdf:resource="http://purl.org/dc/dcmitype/StillImage" /><dc:title></dc:title></cc:Work></rdf:RDF></metadata><defs
     id="defs17628"><inkscape:perspective
       sodipodi:type="inkscape:persp3d"
       inkscape:vp_x="0 : 0.5 : 1"
       inkscape:vp_y="0 : 1000 : 0"
       inkscape:vp_z="1 : 0.5 : 1"
       inkscape:persp3d-origin="0.5 : 0.33333333 : 1"
       id="perspective17632" /><clipPath
       clipPathUnits="userSpaceOnUse"
       id="clipPath17642"><path
         d="m -2,710 501,0 0,-711 -501,0 0,711 z"
         id="path17644"
         inkscape:connector-curvature="0" /></clipPath><clipPath
       clipPathUnits="userSpaceOnUse"
       id="clipPath17648"><path
         d="m 0,708.06 498,0 0,-708 -498,0 0,708 z"
         id="path17650"
         inkscape:connector-curvature="0" /></clipPath><clipPath
       clipPathUnits="userSpaceOnUse"
       id="clipPath17798"><path
         d="m -2,710 501,0 0,-711 -501,0 0,711 z"
         id="path17800"
         inkscape:connector-curvature="0" /></clipPath><clipPath
       clipPathUnits="userSpaceOnUse"
       id="clipPath17804"><path
         d="m 0,708.06 498,0 0,-708 -498,0 0,708 z"
         id="path17806"
         inkscape:connector-curvature="0" /></clipPath><clipPath
       id="Clip0"><path
         inkscape:connector-curvature="0"
         d="m 0,0 212.597,0 0,269.292 L 0,269.292 0,0 z"
         transform="translate(0.923828,0.879883)"
         id="path7" /></clipPath><clipPath
       id="Clip0-8"><path
         inkscape:connector-curvature="0"
         d="m 0,0 170.079,0 0,113.386 L 0,113.386 0,0 z"
         transform="translate(0.0986328,0.822266)"
         id="path7-8" /></clipPath><clipPath
       id="Clip0-1"><path
         inkscape:connector-curvature="0"
         d="m 0,0 287.009,0 0,159.449 L 0,159.449 0,0 z"
         transform="translate(0.396484,0.267578)"
         id="path7-7" /></clipPath><clipPath
       id="Clip0-9"><path
         inkscape:connector-curvature="0"
         d="m 0,0 170.079,0 0,170.079 L 0,170.079 0,0 z"
         transform="translate(0.460938,0.775391)"
         id="path7-4" /></clipPath><clipPath
       id="Clip0-4"><path
         inkscape:connector-curvature="0"
         d="m 0,0 340.157,0 0,226.771 L 0,226.771 0,0 z"
         transform="translate(0.921875,0.25293)"
         id="path7-5" /></clipPath><clipPath
       id="Clip0-5"><path
         inkscape:connector-curvature="0"
         d="m 0,0 255.119,0 0,170.079 L 0,170.079 0,0 z"
         transform="translate(0.147461,0.0595703)"
         id="path7-1" /></clipPath><clipPath
       id="Clip0-0"><path
         inkscape:connector-curvature="0"
         d="m 0,0 170.079,0 0,113.386 L 0,113.386 0,0 z"
         transform="translate(0.0673828,0.207031)"
         id="path7-9" /></clipPath></defs><sodipodi:namedview
     pagecolor="#ffffff"
     bordercolor="#666666"
     borderopacity="1"
     objecttolerance="10"
     gridtolerance="10"
     guidetolerance="10"
     inkscape:pageopacity="0"
     inkscape:pageshadow="2"
     inkscape:window-width="1280"
     inkscape:window-height="1004"
     id="namedview17626"
     showgrid="false"
     inkscape:zoom="4"
     inkscape:cx="59.400277"
     inkscape:cy="5.1401871"
     inkscape:window-x="-8"
     inkscape:window-y="-8"
     inkscape:window-maximized="1"
     inkscape:current-layer="g17634"
     fit-margin-top="0"
     fit-margin-left="0"
     fit-margin-right="0"
     fit-margin-bottom="0"
     showguides="true"
     inkscape:guide-bbox="true" /><g
     id="g17634"
     inkscape:groupmode="layer"
     inkscape:label="GG1999P002"
     transform="matrix(1.25,0,0,-1.25,-3921.6406,-590.625)"><path
       inkscape:connector-curvature="0"
       d="m 3257.3642,-524.3524 c 0,-3.315 -2.6859,-6 -6,-6 l -107.8069,0 c -3.3131,0 -6,2.685 -6,6 l 0,45.6 c 0,3.312 2.6869,6 6,6 l 107.8069,0 c 3.3141,0 6,-2.688 6,-6 l 0,-45.6 z"
       style="fill:#ffffff;stroke:#000000;stroke-width:0.48;stroke-linecap:butt;stroke-linejoin:miter;stroke-miterlimit:4;stroke-opacity:1;stroke-dasharray:none"
       id="path3367" /><path
       id="path5068"
       style="fill:#00674c;fill-opacity:1;fill-rule:evenodd;stroke:none"
       d="m 3254.6743,-523.9074 c 0,-2.209 -1.791,-4 -4,-4 l -106.428,0 c -2.209,0 -4,1.791 -4,4 l 0,44.707 c 0,2.209 1.791,4 4,4 l 106.428,0 c 2.209,0 4,-1.791 4,-4 l 0,-44.707 z"
       inkscape:connector-curvature="0" /><path
       id="path5070"
       style="fill:#ffffff;fill-opacity:1;fill-rule:nonzero;stroke:none"
       d="m 3256.5901,-502.776 -117.67,0 0,2.4001 117.67,0 0,-2.4001 z"
       inkscape:connector-curvature="0" /><path
       id="path5072"
       style="fill:#ffffff;fill-opacity:1;fill-rule:nonzero;stroke:none"
       d="m 3158.1592,-511.7781 -2.301,0 0,-8.3981 -1.602,0 0,8.3981 -2.297,0 0,1.6019 6.2,0 0,-1.6019 z"
       inkscape:connector-curvature="0" /><path
       id="path5074"
       style="fill:#ffffff;fill-opacity:1;fill-rule:nonzero;stroke:none"
       d="m 3165.0942,-512.8798 1.8521,-4.867 1.379,4.867 1.64,0 -2.06,-7.297 -1.731,0 -1.8591,4.86 -1.8599,-4.86 -1.73,0 -2.061,7.297 1.641,0 1.379,-4.867 1.851,4.867 1.5589,0 z"
       inkscape:connector-curvature="0" /><path
       id="path5076"
       style="fill:#ffffff;fill-opacity:1;fill-rule:nonzero;stroke:none"
       d="m 3172.7561,-520.176 -1.594,0 0,7.3001 1.594,0 0,-7.3001 z m -0.797,8.398 c -0.234,0 -0.435,0.084 -0.601,0.251 -0.168,0.167 -0.25,0.367 -0.25,0.6 0,0.235 0.082,0.435 0.25,0.602 0.166,0.167 0.367,0.25 0.601,0.25 0.233,0 0.434,-0.083 0.6,-0.25 0.168,-0.167 0.252,-0.367 0.252,-0.602 0,-0.233 -0.084,-0.433 -0.252,-0.6 -0.166,-0.167 -0.367,-0.251 -0.6,-0.251"
       inkscape:connector-curvature="0" /><path
       id="path5078"
       style="fill:#ffffff;fill-opacity:1;fill-rule:nonzero;stroke:none"
       d="m 3180.6603,-520.1764 -1.601,0 0,4.699 c 0,0.4131 -0.15,0.726 -0.449,0.939 -0.246,0.174 -0.549,0.26 -0.909,0.26 -0.347,0 -0.642,-0.09 -0.888,-0.269 -0.301,-0.22 -0.449,-0.53 -0.449,-0.93 l 0,-4.699 -1.602,0 0,7.3 1.602,0 0,-0.29 c 0.445,0.259 0.988,0.388 1.628,0.388 0.706,0 1.313,-0.196 1.819,-0.59 0.566,-0.439 0.849,-1.043 0.849,-1.808 l 0,-5 z"
       inkscape:connector-curvature="0" /><path
       id="path5080"
       style="fill:#ffffff;fill-opacity:1;fill-rule:nonzero;stroke:none"
       d="m 3189.7563,-520.1764 0,10 6.201,0 0,-1.602 -4.599,0 0,-2.398 2.998,0 0,-1.602 -2.998,0 0,-4.398 -1.602,0 z"
       inkscape:connector-curvature="0" /><path
       id="path5082"
       style="fill:#ffffff;fill-opacity:1;fill-rule:nonzero;stroke:none"
       d="m 3200.8712,-518.4594 0,1.441 c -0.627,0.207 -1.179,0.311 -1.66,0.311 -0.56,0 -0.84,-0.371 -0.84,-1.112 0,-0.7739 0.34,-1.162 1.02,-1.162 0.473,0 0.967,0.174 1.48,0.522 m 1.602,-1.717 -1.602,0 0,0.301 c -0.339,-0.268 -0.894,-0.403 -1.662,-0.403 -0.726,0 -1.322,0.254 -1.789,0.76 -0.433,0.474 -0.65,1.0401 -0.65,1.7 0,0.673 0.207,1.246 0.619,1.72 0.453,0.526 1.061,0.789 1.82,0.789 0.649,0 1.201,-0.143 1.662,-0.427 l 0,0.34 c 0,0.353 -0.144,0.632 -0.431,0.839 -0.266,0.186 -0.614,0.279 -1.039,0.279 -0.621,0 -1.192,-0.303 -1.711,-0.908 l -0.43,1.4391 c 0.74,0.6469 1.49,0.9689 2.25,0.9689 0.774,0 1.469,-0.256 2.082,-0.769 0.586,-0.487 0.881,-1.013 0.881,-1.58 l 0,-5.049 z"
       inkscape:connector-curvature="0" /><path
       id="path5084"
       style="fill:#ffffff;fill-opacity:1;fill-rule:nonzero;stroke:none"
       d="m 3205.9632,-520.1764 -1.601,0 0,9.242 1.601,0.859 0,-10.101 z"
       inkscape:connector-curvature="0" /><path
       id="path5086"
       style="fill:#ffffff;fill-opacity:1;fill-rule:nonzero;stroke:none"
       d="m 3209.5632,-520.1764 -1.602,0 0,9.242 1.602,0.859 0,-10.101 z"
       inkscape:connector-curvature="0" /><path
       id="path5088"
       style="fill:#ffffff;fill-opacity:1;fill-rule:nonzero;stroke:none"
       d="m 3215.6623,-518.1744 c 0,-0.547 -0.181,-1.016 -0.5411,-1.409 -0.4469,-0.474 -1.0929,-0.71 -1.9409,-0.71 -1,0 -1.7401,0.376 -2.221,1.128 l 1.17,0.989 c 0.268,-0.396 0.6169,-0.594 1.051,-0.594 0.5859,0 0.881,0.184 0.881,0.55 0,0.305 -0.24,0.642 -0.721,1.009 -0.441,0.333 -0.885,0.6661 -1.332,0.998 -0.48,0.439 -0.721,0.906 -0.721,1.398 0,0.42 0.114,0.813 0.34,1.179 0.354,0.5721 0.924,0.858 1.711,0.858 0.7069,0 1.3969,-0.379 2.0709,-1.138 l -1.1389,-0.95 c -0.315,0.393 -0.623,0.588 -0.93,0.588 -0.281,0 -0.4201,-0.1419 -0.4201,-0.429 0,-0.166 0.2371,-0.42 0.7111,-0.759 0.647,-0.453 1.0859,-0.803 1.32,-1.0499 0.473,-0.5131 0.711,-1.0661 0.711,-1.6581"
       inkscape:connector-curvature="0" /><path
       id="path5090"
       style="fill:#ffffff;fill-opacity:1;fill-rule:nonzero;stroke:none"
       d="m 3235.0842,-513.577 -0.679,2.111 c 0,0 -0.151,0.422 0.181,0.77 0.406,0.422 0.936,0.09 0.936,0.09 l 6.945,-4.785 -7.035,-4.818 c 0,0 -0.453,-0.211 -0.846,0.152 -0.318,0.301 -0.181,0.724 -0.181,0.724 l 0.687,2.154 -7.025,0 0,3.606 7.017,0 z"
       inkscape:connector-curvature="0" /><path
       id="path5092"
       style="fill:#ffffff;fill-opacity:1;fill-rule:nonzero;stroke:none"
       d="m 3185.8192,-487.952 -1.049,3.051 -1.041,-3.051 2.09,0 z m 3.201,-4.398 -1.692,0 -0.959,2.796 -3.21,0 -0.94,-2.796 -1.699,0 3.439,10 1.619,0 3.442,-10 z"
       inkscape:connector-curvature="0" /><path
       id="path5094"
       style="fill:#ffffff;fill-opacity:1;fill-rule:nonzero;stroke:none"
       d="m 3195.4832,-485.7216 c 0.599,0.513 1.289,0.769 2.068,0.769 0.707,0 1.311,-0.197 1.811,-0.589 0.572,-0.441 0.859,-1.044 0.859,-1.811 l 0,-4.998 -1.602,0 0,4.698 c 0,0.413 -0.154,0.727 -0.46,0.941 -0.239,0.173 -0.54,0.259 -0.899,0.259 -0.326,0 -0.6,-0.093 -0.818,-0.28 -0.246,-0.214 -0.369,-0.52 -0.369,-0.92 l 0,-4.698 -1.602,0 0,4.698 c 0,0.8 -0.404,1.2 -1.209,1.2 -0.346,0 -0.643,-0.089 -0.889,-0.27 -0.3,-0.22 -0.449,-0.53 -0.449,-0.93 l 0,-4.698 -1.601,0 0,7.3 1.601,0 0,-0.29 c 0.445,0.259 0.988,0.388 1.629,0.388 0.859,0 1.502,-0.256 1.93,-0.769"
       inkscape:connector-curvature="0" /><path
       id="path5096"
       style="fill:#ffffff;fill-opacity:1;fill-rule:nonzero;stroke:none"
       d="m 3203.7151,-492.35 -1.594,0 0,7.3 1.594,0 0,-7.3 z m -0.797,8.398 c -0.232,0 -0.433,0.083 -0.601,0.25 -0.166,0.167 -0.25,0.367 -0.25,0.602 0,0.233 0.084,0.433 0.25,0.6 0.168,0.167 0.369,0.251 0.601,0.251 0.235,0 0.434,-0.084 0.602,-0.251 0.166,-0.167 0.25,-0.367 0.25,-0.6 0,-0.235 -0.084,-0.435 -0.25,-0.602 -0.168,-0.167 -0.367,-0.25 -0.602,-0.25"
       inkscape:connector-curvature="0" /><path
       id="path5098"
       style="fill:#ffffff;fill-opacity:1;fill-rule:nonzero;stroke:none"
       d="m 3208.8233,-490.7508 -0.141,-1.371 c -0.406,-0.221 -0.8201,-0.33 -1.24,-0.33 -0.9751,0 -1.463,0.533 -1.463,1.599 l 0,4.401 -1.156,0 0,1.398 1.156,0 0,1.944 1.601,0.861 0,-2.805 1.243,0 0,-1.398 -1.243,0 0,-4.082 c 0,-0.347 0.141,-0.52 0.422,-0.52 0.2659,0 0.5409,0.101 0.821,0.303"
       inkscape:connector-curvature="0" /><path
       id="path5100"
       style="fill:#ffffff;fill-opacity:1;fill-rule:nonzero;stroke:none"
       d="m 3216.6172,-485.0536 -4.14,-10.203 -1.721,0.01 1.24,3.0781 -2.879,7.1149 1.719,0 2.031,-4.997 2.03,4.997 1.72,0 z"
       inkscape:connector-curvature="0" /><path
       id="path5102"
       style="fill:#ffffff;fill-opacity:1;fill-rule:nonzero;stroke:none"
       d="m 3164.9052,-485.491 c -1.641,1.611 -4.389,1.564 -6.397,1.531 l -0.125,0 0,0.266 0.598,1.877 c 0,0 0.119,0.367 -0.158,0.631 -0.342,0.316 -0.737,0.132 -0.737,0.132 l -6.127,-4.197 6.049,-4.168 c 0,0 0.461,-0.289 0.815,0.079 0.289,0.303 0.158,0.67 0.158,0.67 l -0.592,1.839 0,0.172 0.166,0 c 1.443,0.023 3.623,0.061 4.457,-0.758 0.174,-0.172 0.408,-0.486 0.408,-1.222 0,-0.446 -0.678,-1.345 -1.22,-2.067 -0.954,-1.267 -2.034,-2.704 -2.034,-4.408 l 0,-1.389 2.7,0 0,1.389 c 0,0.802 0.793,1.855 1.492,2.785 0.865,1.15 1.761,2.342 1.761,3.69 0,1.294 -0.408,2.355 -1.214,3.148"
       inkscape:connector-curvature="0" /></g></svg>