<?xml version="1.0" encoding="UTF-8" standalone="no"?>
<!-- Created with Inkscape (http://www.inkscape.org/) -->

<svg
   xmlns:dc="http://purl.org/dc/elements/1.1/"
   xmlns:cc="http://creativecommons.org/ns#"
   xmlns:rdf="http://www.w3.org/1999/02/22-rdf-syntax-ns#"
   xmlns:svg="http://www.w3.org/2000/svg"
   xmlns="http://www.w3.org/2000/svg"
   xmlns:sodipodi="http://sodipodi.sourceforge.net/DTD/sodipodi-0.dtd"
   xmlns:inkscape="http://www.inkscape.org/namespaces/inkscape"
   id="svg17624"
   version="1.1"
   inkscape:version="0.48.2 r9819"
   width="320.27344"
   height="211.52344"
   xml:space="preserve"
   sodipodi:docname="MUTCD D1-2.svg"><metadata
     id="metadata17630"><rdf:RDF><cc:Work
         rdf:about=""><dc:format>image/svg+xml</dc:format><dc:type
           rdf:resource="http://purl.org/dc/dcmitype/StillImage" /><dc:title></dc:title></cc:Work></rdf:RDF></metadata><defs
     id="defs17628"><inkscape:perspective
       sodipodi:type="inkscape:persp3d"
       inkscape:vp_x="0 : 0.5 : 1"
       inkscape:vp_y="0 : 1000 : 0"
       inkscape:vp_z="1 : 0.5 : 1"
       inkscape:persp3d-origin="0.5 : 0.33333333 : 1"
       id="perspective17632" /><clipPath
       clipPathUnits="userSpaceOnUse"
       id="clipPath17642"><path
         d="m -2,710 501,0 0,-711 -501,0 0,711 z"
         id="path17644"
         inkscape:connector-curvature="0" /></clipPath><clipPath
       clipPathUnits="userSpaceOnUse"
       id="clipPath17648"><path
         d="m 0,708.06 498,0 0,-708 -498,0 0,708 z"
         id="path17650"
         inkscape:connector-curvature="0" /></clipPath><clipPath
       clipPathUnits="userSpaceOnUse"
       id="clipPath17798"><path
         d="m -2,710 501,0 0,-711 -501,0 0,711 z"
         id="path17800"
         inkscape:connector-curvature="0" /></clipPath><clipPath
       clipPathUnits="userSpaceOnUse"
       id="clipPath17804"><path
         d="m 0,708.06 498,0 0,-708 -498,0 0,708 z"
         id="path17806"
         inkscape:connector-curvature="0" /></clipPath><clipPath
       id="Clip0"><path
         inkscape:connector-curvature="0"
         d="m 0,0 212.597,0 0,269.292 L 0,269.292 0,0 z"
         transform="translate(0.923828,0.879883)"
         id="path7" /></clipPath><clipPath
       id="Clip0-8"><path
         inkscape:connector-curvature="0"
         d="m 0,0 170.079,0 0,113.386 L 0,113.386 0,0 z"
         transform="translate(0.0986328,0.822266)"
         id="path7-8" /></clipPath><clipPath
       id="Clip0-1"><path
         inkscape:connector-curvature="0"
         d="m 0,0 287.009,0 0,159.449 L 0,159.449 0,0 z"
         transform="translate(0.396484,0.267578)"
         id="path7-7" /></clipPath><clipPath
       id="Clip0-9"><path
         inkscape:connector-curvature="0"
         d="m 0,0 170.079,0 0,170.079 L 0,170.079 0,0 z"
         transform="translate(0.460938,0.775391)"
         id="path7-4" /></clipPath><clipPath
       id="Clip0-4"><path
         inkscape:connector-curvature="0"
         d="m 0,0 340.157,0 0,226.771 L 0,226.771 0,0 z"
         transform="translate(0.921875,0.25293)"
         id="path7-5" /></clipPath><clipPath
       id="Clip0-5"><path
         inkscape:connector-curvature="0"
         d="m 0,0 255.119,0 0,170.079 L 0,170.079 0,0 z"
         transform="translate(0.147461,0.0595703)"
         id="path7-1" /></clipPath><clipPath
       id="Clip0-0"><path
         inkscape:connector-curvature="0"
         d="m 0,0 170.079,0 0,113.386 L 0,113.386 0,0 z"
         transform="translate(0.0673828,0.207031)"
         id="path7-9" /></clipPath></defs><sodipodi:namedview
     pagecolor="#ffffff"
     bordercolor="#666666"
     borderopacity="1"
     objecttolerance="10"
     gridtolerance="10"
     guidetolerance="10"
     inkscape:pageopacity="0"
     inkscape:pageshadow="2"
     inkscape:window-width="1280"
     inkscape:window-height="1004"
     id="namedview17626"
     showgrid="false"
     inkscape:zoom="1.2265625"
     inkscape:cx="65.932306"
     inkscape:cy="103.85605"
     inkscape:window-x="-8"
     inkscape:window-y="-8"
     inkscape:window-maximized="1"
     inkscape:current-layer="g17634"
     fit-margin-top="0"
     fit-margin-left="0"
     fit-margin-right="0"
     fit-margin-bottom="0"
     showguides="true"
     inkscape:guide-bbox="true" /><g
     id="g17634"
     inkscape:groupmode="layer"
     inkscape:label="GG1999P002"
     transform="matrix(1.25,0,0,-1.25,-2936.0938,-2215.2344)"><path
       d="m 2360.5811,-1772.6623 232.8264,0 c 6.1834,0 11.2202,-5.0369 11.2202,-11.2179 l 0,-145.8226 c 0,-6.1786 -5.0368,-11.2178 -11.2202,-11.2178 l -232.8264,0 c -6.1786,0 -11.2202,5.0392 -11.2202,11.2178 l 0,145.8226 c 0,6.1032 5.1147,11.2179 11.2202,11.2179"
       style="fill:#ffffff;fill-opacity:1;fill-rule:nonzero;stroke:#000000;stroke-width:0.95999998;stroke-linecap:butt;stroke-linejoin:miter;stroke-miterlimit:4;stroke-opacity:1;stroke-dasharray:none"
       id="path3587"
       inkscape:connector-curvature="0" /><path
       d="m 2593.3413,-1777.4699 c 3.6048,-0.09 6.3863,-2.864 6.4712,-6.4712 l 0,-146.0938 c -0.2737,-3.3807 -3.0292,-6.082 -6.4665,-6.0772 l -233.0952,0.01 c -3.3783,0.2619 -6.0867,3.0221 -6.0772,6.4594 l 0.01,146.0939 c 0.2642,3.3807 3.0244,6.0819 6.4617,6.0795 l 232.7037,0"
       style="fill:#00674c;fill-opacity:1;fill-rule:evenodd;stroke:none"
       id="path3591"
       inkscape:connector-curvature="0" /><path
       d="m 2381.4078,-1802.1035 10.0147,14.8674 10.0312,-14.8674 c 0.4435,-0.6559 0.2737,-1.5547 -0.3798,-2.0006 -0.4341,-0.2949 -0.8871,-0.2406 -1.425,-0.1062 l -4.3479,1.3141 0,-16.2736 -7.757,0 0,16.2736 -4.2771,-1.2834 c -0.5898,-0.1651 -1.0239,-0.2336 -1.4839,0.075 -0.6512,0.4459 -0.8234,1.3447 -0.3752,2.0006"
       style="fill:#ffffff;fill-opacity:1;fill-rule:evenodd;stroke:none"
       id="path3595"
       inkscape:connector-curvature="0" /><path
       d="m 2440.8707,-1815.1759 0,9.3612 -8.3467,0 0,-9.3612 -3.6119,0 0,21.5156 3.6119,0 0,-8.6817 8.3467,0 0,8.6817 3.6095,0 0,-21.5156 -3.6095,0 z"
       style="fill:#ffffff;fill-opacity:1;fill-rule:nonzero;stroke:none"
       id="path3599"
       inkscape:connector-curvature="0" /><path
       d="m 2462.4524,-1807.2493 c 0,3.7746 -1.2032,8.1532 -6.9006,8.1532 -5.7776,0 -6.9808,-4.6806 -6.9808,-8.1532 0,-4.0767 1.2032,-8.2288 6.9808,-8.2288 5.6974,0 6.9006,4.4541 6.9006,8.2288 m -3.6898,0 c 0,-1.5854 -0.401,-5.1336 -3.2108,-5.1336 -2.8074,0 -3.2887,3.4727 -3.2887,5.0581 0,1.5853 0.4813,5.058 3.2887,5.058 2.7272,0 3.2108,-3.4727 3.2108,-4.9825"
       style="fill:#ffffff;fill-opacity:1;fill-rule:nonzero;stroke:none"
       id="path3603"
       inkscape:connector-curvature="0" /><path
       d="m 2474.2459,-1803.1727 c -0.722,0.5284 -1.2834,0.9059 -2.1658,0.9059 -2.0878,0 -2.3261,-1.1324 -2.3261,-3.0952 l 0,-9.8142 -3.6921,0 0,15.7027 3.6921,0 0,-0.755 c 0.8823,0.755 1.2834,1.1324 2.5668,1.1324 1.2857,0 1.8448,-0.4529 2.4063,-1.0569 l -0.4812,-3.0197 z"
       style="fill:#ffffff;fill-opacity:1;fill-rule:nonzero;stroke:none"
       id="path3607"
       inkscape:connector-curvature="0" /><path
       d="m 2484.034,-1814.798 c -1.2008,-0.5284 -1.8448,-0.6794 -2.7272,-0.6794 -2.6469,-0.151 -3.4514,1.8118 -3.4514,4.0766 l 0,8.7573 -2.404,0 0,3.1707 2.404,0 0,4.5272 3.5317,1.6632 0,-6.1904 2.8899,0 0,-3.0953 -2.8899,0 0,-8.3042 c 0,-1.0569 0.1604,-1.5099 1.2031,-1.5099 0.8022,0 1.2056,0.2265 1.9275,0.7549 l -0.4837,-3.1707 z"
       style="fill:#ffffff;fill-opacity:1;fill-rule:nonzero;stroke:none"
       id="path3611"
       inkscape:connector-curvature="0" /><path
       d="m 2500.0009,-1807.2493 c 0,3.7746 -1.2032,8.1532 -6.9006,8.1532 -5.7752,0 -6.9808,-4.6806 -6.9808,-8.1532 0,-4.0767 1.2056,-8.2288 6.9808,-8.2288 5.6974,0 6.9006,4.4541 6.9006,8.2288 m -3.6897,0 c 0,-1.5854 -0.4011,-5.1336 -3.2109,-5.1336 -2.8074,0 -3.2887,3.4727 -3.2887,5.0581 0,1.5853 0.4813,5.058 3.2887,5.058 2.7272,0 3.2109,-3.4727 3.2109,-4.9825"
       style="fill:#ffffff;fill-opacity:1;fill-rule:nonzero;stroke:none"
       id="path3615"
       inkscape:connector-curvature="0" /><path
       d="m 2513.4812,-1815.1759 0,10.4181 c 0,2.0383 -1.4438,2.4913 -3.3713,2.4913 -1.4438,-0.075 -2.8074,-0.8305 -2.8074,-2.6423 l 0,-10.2671 -3.6921,0 0,15.7026 3.6119,0 0,-0.5284 c 3.77,2.2648 9.8684,0.4529 9.8684,-4.3787 l 0,-10.7955 -3.6095,0 z"
       style="fill:#ffffff;fill-opacity:1;fill-rule:nonzero;stroke:none"
       id="path3619"
       inkscape:connector-curvature="0" /><path
       d="m 2440.8707,-1867.8573 0,9.3611 -8.3467,0 0,-9.3611 -3.6119,0 0,21.5156 3.6119,0 0,-8.6818 8.3467,0 0,8.6818 3.6095,0 0,-21.5156 -3.6095,0 z"
       style="fill:#ffffff;fill-opacity:1;fill-rule:nonzero;stroke:none"
       id="path3623"
       inkscape:connector-curvature="0" /><path
       d="m 2461.4096,-1867.8573 0,10.4935 c 0,6.115 -7.7829,6.9454 -11.9563,3.7747 l 1.0452,-3.3217 c 0.4812,0.6794 2.3261,2.2648 4.6522,1.9628 2.5668,-0.2264 2.4866,-2.7177 2.4866,-2.7177 -3.6897,1.4343 -9.3069,-0.151 -9.3069,-4.6051 0,-3.7747 2.8876,-5.813 6.2589,-5.813 1.2833,0 2.7272,0.2265 3.291,0.6794 l 0,-0.4529 3.5293,0 z m -3.6921,3.4727 c -1.3636,-0.6795 -5.7752,-1.8119 -5.7752,2.0383 0,3.1707 4.2535,2.2648 5.7752,1.5853 l 0,-3.6236 z"
       style="fill:#ffffff;fill-opacity:1;fill-rule:nonzero;stroke:none"
       id="path3627"
       inkscape:connector-curvature="0" /><path
       d="m 2475.5316,-1867.8573 0,10.4181 c 0,2.0383 -1.4438,2.4912 -3.3713,2.4912 -1.4438,-0.076 -2.8074,-0.8304 -2.8074,-2.6422 l 0,-10.2671 -3.6921,0 0,15.7026 3.6119,0 0,-0.5285 c 3.77,2.2648 9.8684,0.453 9.8684,-4.3786 l 0,-10.7955 -3.6095,0 z"
       style="fill:#ffffff;fill-opacity:1;fill-rule:nonzero;stroke:none"
       id="path3631"
       inkscape:connector-curvature="0" /><path
       d="m 2496.4716,-1859.931 c 0,3.7747 -1.2032,8.1533 -6.9006,8.1533 -5.7776,0 -6.9808,-4.6806 -6.9808,-8.1533 0,-4.0766 1.2032,-8.2288 6.9808,-8.2288 5.6974,0 6.9006,4.4541 6.9006,8.2288 m -3.6921,0 c 0,-1.5854 -0.3987,-5.1336 -3.2085,-5.1336 -2.8074,0 -3.2887,3.4727 -3.2887,5.0581 0,1.5854 0.4813,5.0581 3.2887,5.0581 2.7272,0 3.2085,-3.4727 3.2085,-4.9826"
       style="fill:#ffffff;fill-opacity:1;fill-rule:nonzero;stroke:none"
       id="path3635"
       inkscape:connector-curvature="0" /><path
       d="m 2507.9442,-1867.8573 -3.2085,0 -6.4193,15.7026 3.8502,0 4.1734,-10.5691 4.0129,10.5691 4.0908,0 -6.4995,-15.7026 z"
       style="fill:#ffffff;fill-opacity:1;fill-rule:nonzero;stroke:none"
       id="path3639"
       inkscape:connector-curvature="0" /><path
       d="m 2529.8491,-1861.4411 c 0.083,3.8502 -0.08,9.6632 -6.6599,9.6632 -5.7753,0 -6.9006,-4.6806 -6.9006,-8.1533 0,-4.0767 1.1253,-8.2288 6.9006,-8.2288 3.3712,0 5.1359,1.5853 6.0984,3.6237 l -2.9702,1.7363 c -0.401,-1.3589 -1.6019,-2.1893 -3.1282,-2.1893 -2.246,0 -2.9702,1.8118 -3.1283,3.5482 l 9.7882,0 z m -3.6095,3.1707 -6.2589,0 c 0,1.5854 0.4011,3.3217 3.2085,3.3217 2.7272,0 3.0504,-1.8118 3.0504,-3.3217"
       style="fill:#ffffff;fill-opacity:1;fill-rule:nonzero;stroke:none"
       id="path3643"
       inkscape:connector-curvature="0" /><path
       d="m 2541.1613,-1855.8541 c -0.7195,0.5284 -1.2834,0.9059 -2.1657,0.9059 -2.0855,0 -2.3261,-1.1324 -2.3261,-3.0952 l 0,-9.8142 -3.6898,0 0,15.7027 3.6898,0 0,-0.755 c 0.8823,0.755 1.2833,1.1324 2.5667,1.1324 1.2834,0 1.8449,-0.4529 2.4064,-1.0569 l -0.4813,-3.0197 z"
       style="fill:#ffffff;fill-opacity:1;fill-rule:nonzero;stroke:none"
       id="path3647"
       inkscape:connector-curvature="0" /><path
       d="m 2563.6584,-1902.8648 14.8674,-10.017 -14.8674,-10.0265 c -0.6559,-0.4459 -1.5524,-0.276 -1.9983,0.3751 -0.2972,0.4365 -0.2453,0.8918 -0.1061,1.4249 l 1.3117,4.348 -16.2712,0 0,7.7522 16.2712,0 -1.2811,4.2796 c -0.1651,0.5874 -0.2335,1.0262 0.076,1.4815 0.4458,0.6511 1.3423,0.8257 1.9982,0.3822"
       style="fill:#ffffff;fill-opacity:1;fill-rule:evenodd;stroke:none"
       id="path3651"
       inkscape:connector-curvature="0" /><path
       d="m 2373.4339,-1922.5941 0,21.5157 3.6095,0 0,-18.3449 10.5927,0 0,-3.1708 -14.2022,0 z"
       style="fill:#ffffff;fill-opacity:1;fill-rule:nonzero;stroke:none"
       id="path3655"
       inkscape:connector-curvature="0" /><path
       d="m 2390.6829,-1906.8907 3.6096,0 0,-15.7027 -3.6096,0 0,15.7027 z m 1.7647,2.6422 c -1.0428,0 -1.9251,0.7526 -1.9251,1.734 0,0.9814 0.8823,1.8142 1.9251,1.8142 1.0451,0 1.9298,-0.8328 1.9298,-1.8142 0,-0.9814 -0.8847,-1.734 -1.9298,-1.734"
       style="fill:#ffffff;fill-opacity:1;fill-rule:nonzero;stroke:none"
       id="path3657"
       inkscape:connector-curvature="0" /><path
       d="m 2412.6668,-1914.6675 c -0.08,4.1522 -1.6018,8.6063 -7.061,8.1533 -1.1206,-0.075 -2.647,-0.5285 -3.048,-0.9059 l 0,6.7189 -3.6898,-1.6609 0,-20.2322 3.6898,0 0,0.453 c 1.123,-0.604 1.9274,-0.8305 3.2108,-0.8305 5.0534,0 6.8982,3.8502 6.8982,8.3043 m -3.6897,0 c -0.08,-2.1893 -0.8021,-5.058 -3.2911,-5.1335 -1.281,-0.076 -2.1633,0.2264 -3.0456,1.0569 l 0,7.9268 c 0.8823,0.9814 1.7646,1.1324 2.8074,1.1324 2.8074,-0.075 3.6095,-2.7178 3.5293,-4.9826"
       style="fill:#ffffff;fill-opacity:1;fill-rule:nonzero;stroke:none"
       id="path3661"
       inkscape:connector-curvature="0" /><path
       d="m 2428.9569,-1916.1778 c 0.08,3.8501 -0.08,9.6631 -6.6599,9.6631 -5.7776,0 -6.9006,-4.6806 -6.9006,-8.1533 0,-4.0766 1.123,-8.2287 6.9006,-8.2287 3.3689,0 5.1335,1.5853 6.0961,3.626 l -2.9679,1.734 c -0.401,-1.3589 -1.6042,-2.1893 -3.1282,-2.1893 -2.2483,0 -2.9679,1.8118 -3.1307,3.5482 l 9.7906,0 z m -3.6095,3.1707 -6.2613,0 c 0,1.5854 0.4011,3.3241 3.2109,3.3241 2.7272,0 3.0504,-1.8142 3.0504,-3.3241"
       style="fill:#ffffff;fill-opacity:1;fill-rule:nonzero;stroke:none"
       id="path3665"
       inkscape:connector-curvature="0" /><path
       d="m 2440.2691,-1910.5908 c -0.7219,0.5284 -1.2834,0.9059 -2.1657,0.9059 -2.0879,0 -2.3285,-1.1324 -2.3285,-3.0953 l 0,-9.8141 -3.6897,0 0,15.7026 3.6897,0 0,-0.7549 c 0.8823,0.7549 1.2834,1.1324 2.5668,1.1324 1.2857,0 1.8472,-0.453 2.4087,-1.0569 l -0.4813,-3.0197 z"
       style="fill:#ffffff;fill-opacity:1;fill-rule:nonzero;stroke:none"
       id="path3669"
       inkscape:connector-curvature="0" /><path
       d="m 2450.0573,-1922.2161 c -1.2032,-0.5285 -1.8449,-0.6795 -2.7272,-0.6795 -2.647,-0.1509 -3.4515,1.8119 -3.4515,4.0767 l 0,8.7572 -2.4063,0 0,3.1707 2.4063,0 0,4.5296 3.5317,1.6609 0,-6.1905 2.89,0 0,-3.0952 -2.89,0 0,-8.3043 c 0,-1.0569 0.1581,-1.5098 1.2032,-1.5098 0.8021,0 1.2055,0.2264 1.9251,0.7549 l -0.4813,-3.1707 z"
       style="fill:#ffffff;fill-opacity:1;fill-rule:nonzero;stroke:none"
       id="path3673"
       inkscape:connector-curvature="0" /><path
       d="m 2459.2038,-1928.6335 -4.0106,0 2.4866,6.0394 -6.4193,15.7027 3.9327,0 4.5721,-11.0221 4.4116,11.0221 4.0932,0 -9.0663,-21.7421 z"
       style="fill:#ffffff;fill-opacity:1;fill-rule:nonzero;stroke:none"
       id="path3677"
       inkscape:connector-curvature="0" /><path
       d="m 2601.9182,-1832.0839 -249.8902,0 0,4.6004 249.8902,0 0,-4.6004 z"
       style="fill:#ffffff;fill-opacity:1;fill-rule:evenodd;stroke:none"
       id="path3679"
       inkscape:connector-curvature="0" /><path
       d="m 2601.9182,-1886.3117 -249.8902,0 0,4.6004 249.8902,0 0,-4.6004 z"
       style="fill:#ffffff;fill-opacity:1;fill-rule:evenodd;stroke:none"
       id="path3681"
       inkscape:connector-curvature="0" /><path
       d="m 2390.3302,-1867.2699 -14.8675,10.0123 14.8675,10.0312 c 0.6559,0.4388 1.5524,0.2689 1.9982,-0.3798 0.2973,-0.4365 0.2454,-0.8871 0.1062,-1.425 l -1.3093,-4.3432 16.2688,0 0,-7.7593 -16.2688,0 1.281,-4.2748 c 0.1675,-0.5922 0.2312,-1.0286 -0.078,-1.4839 -0.4459,-0.6535 -1.3423,-0.821 -1.9982,-0.3775"
       style="fill:#ffffff;fill-opacity:1;fill-rule:evenodd;stroke:none"
       id="path3685"
       inkscape:connector-curvature="0" /></g></svg>