<?xml version="1.0" encoding="UTF-8" standalone="no"?>
<!-- Created with Inkscape (http://www.inkscape.org/) -->

<svg
   xmlns:dc="http://purl.org/dc/elements/1.1/"
   xmlns:cc="http://creativecommons.org/ns#"
   xmlns:rdf="http://www.w3.org/1999/02/22-rdf-syntax-ns#"
   xmlns:svg="http://www.w3.org/2000/svg"
   xmlns="http://www.w3.org/2000/svg"
   xmlns:sodipodi="http://sodipodi.sourceforge.net/DTD/sodipodi-0.dtd"
   xmlns:inkscape="http://www.inkscape.org/namespaces/inkscape"
   id="svg17624"
   version="1.1"
   inkscape:version="0.48.2 r9819"
   width="334.92188"
   height="186.5625"
   xml:space="preserve"
   sodipodi:docname="MUTCD D1-2a.svg"><metadata
     id="metadata17630"><rdf:RDF><cc:Work
         rdf:about=""><dc:format>image/svg+xml</dc:format><dc:type
           rdf:resource="http://purl.org/dc/dcmitype/StillImage" /><dc:title></dc:title></cc:Work></rdf:RDF></metadata><defs
     id="defs17628"><inkscape:perspective
       sodipodi:type="inkscape:persp3d"
       inkscape:vp_x="0 : 0.5 : 1"
       inkscape:vp_y="0 : 1000 : 0"
       inkscape:vp_z="1 : 0.5 : 1"
       inkscape:persp3d-origin="0.5 : 0.33333333 : 1"
       id="perspective17632" /><clipPath
       clipPathUnits="userSpaceOnUse"
       id="clipPath17642"><path
         d="m -2,710 501,0 0,-711 -501,0 0,711 z"
         id="path17644"
         inkscape:connector-curvature="0" /></clipPath><clipPath
       clipPathUnits="userSpaceOnUse"
       id="clipPath17648"><path
         d="m 0,708.06 498,0 0,-708 -498,0 0,708 z"
         id="path17650"
         inkscape:connector-curvature="0" /></clipPath><clipPath
       clipPathUnits="userSpaceOnUse"
       id="clipPath17798"><path
         d="m -2,710 501,0 0,-711 -501,0 0,711 z"
         id="path17800"
         inkscape:connector-curvature="0" /></clipPath><clipPath
       clipPathUnits="userSpaceOnUse"
       id="clipPath17804"><path
         d="m 0,708.06 498,0 0,-708 -498,0 0,708 z"
         id="path17806"
         inkscape:connector-curvature="0" /></clipPath><clipPath
       id="Clip0"><path
         inkscape:connector-curvature="0"
         d="m 0,0 212.597,0 0,269.292 L 0,269.292 0,0 z"
         transform="translate(0.923828,0.879883)"
         id="path7" /></clipPath><clipPath
       id="Clip0-8"><path
         inkscape:connector-curvature="0"
         d="m 0,0 170.079,0 0,113.386 L 0,113.386 0,0 z"
         transform="translate(0.0986328,0.822266)"
         id="path7-8" /></clipPath><clipPath
       id="Clip0-1"><path
         inkscape:connector-curvature="0"
         d="m 0,0 287.009,0 0,159.449 L 0,159.449 0,0 z"
         transform="translate(0.396484,0.267578)"
         id="path7-7" /></clipPath><clipPath
       id="Clip0-9"><path
         inkscape:connector-curvature="0"
         d="m 0,0 170.079,0 0,170.079 L 0,170.079 0,0 z"
         transform="translate(0.460938,0.775391)"
         id="path7-4" /></clipPath><clipPath
       id="Clip0-4"><path
         inkscape:connector-curvature="0"
         d="m 0,0 340.157,0 0,226.771 L 0,226.771 0,0 z"
         transform="translate(0.921875,0.25293)"
         id="path7-5" /></clipPath><clipPath
       id="Clip0-5"><path
         inkscape:connector-curvature="0"
         d="m 0,0 255.119,0 0,170.079 L 0,170.079 0,0 z"
         transform="translate(0.147461,0.0595703)"
         id="path7-1" /></clipPath><clipPath
       id="Clip0-0"><path
         inkscape:connector-curvature="0"
         d="m 0,0 170.079,0 0,113.386 L 0,113.386 0,0 z"
         transform="translate(0.0673828,0.207031)"
         id="path7-9" /></clipPath></defs><sodipodi:namedview
     pagecolor="#ffffff"
     bordercolor="#666666"
     borderopacity="1"
     objecttolerance="10"
     gridtolerance="10"
     guidetolerance="10"
     inkscape:pageopacity="0"
     inkscape:pageshadow="2"
     inkscape:window-width="1280"
     inkscape:window-height="1004"
     id="namedview17626"
     showgrid="false"
     inkscape:zoom="1.7346213"
     inkscape:cx="143.49492"
     inkscape:cy="153.60504"
     inkscape:window-x="-8"
     inkscape:window-y="-8"
     inkscape:window-maximized="1"
     inkscape:current-layer="g17634"
     fit-margin-top="0"
     fit-margin-left="0"
     fit-margin-right="0"
     fit-margin-bottom="0"
     showguides="true"
     inkscape:guide-bbox="true" /><g
     id="g17634"
     inkscape:groupmode="layer"
     inkscape:label="GG1999P002"
     transform="matrix(1.25,0,0,-1.25,-3989.5313,-3211.6797)"><path
       d="m 3203.3171,-2569.8198 244.542,0 c 6.1834,0 11.2202,-5.0392 11.2202,-11.2178 l 0,-125.864 c 0,-6.1787 -5.0368,-11.2179 -11.2202,-11.2179 l -244.542,0 c -6.1787,0 -11.2202,5.0392 -11.2202,11.2179 l 0,125.864 c 0,6.1031 5.1147,11.2178 11.2202,11.2178"
       style="fill:#ffffff;fill-opacity:1;fill-rule:nonzero;stroke:#000000;stroke-width:0.95999998;stroke-linecap:butt;stroke-linejoin:miter;stroke-miterlimit:4;stroke-opacity:1;stroke-dasharray:none"
       id="path3895"
       inkscape:connector-curvature="0" /><path
       d="m 3447.7953,-2574.6307 c 3.6024,-0.09 6.3863,-2.864 6.4688,-6.4688 l 0,-126.1354 c -0.2713,-3.383 -3.0268,-6.0819 -6.4641,-6.0772 l -244.8156,0.01 c -3.3759,0.2642 -6.0866,3.0245 -6.0772,6.4618 l 0.01,126.1353 c 0.2618,3.3783 3.0221,6.0819 6.4594,6.0772 l 244.424,0"
       style="fill:#00674c;fill-opacity:1;fill-rule:evenodd;stroke:none"
       id="path3899"
       inkscape:connector-curvature="0" /><path
       d="m 3219.1683,-2594.676 10.0123,14.8014 10.0312,-14.8014 c 0.4412,-0.6535 0.2713,-1.5453 -0.3822,-1.9912 -0.434,-0.2925 -0.8846,-0.243 -1.4249,-0.1038 l -4.3456,1.3047 0,-16.1981 -7.7546,0 0,16.1981 -4.2701,-1.2716 c -0.5945,-0.1675 -1.0333,-0.236 -1.4839,0.071 -0.6582,0.4459 -0.8257,1.3377 -0.3822,1.9912"
       style="fill:#ffffff;fill-opacity:1;fill-rule:evenodd;stroke:none"
       id="path3903"
       inkscape:connector-curvature="0" /><path
       d="m 3228.0978,-2654.4597 -14.8062,10.0123 14.8062,10.0265 c 0.6488,0.4458 1.5429,0.276 1.9911,-0.3728 0.2902,-0.4388 0.2383,-0.8894 0.1062,-1.4296 l -1.3094,-4.3385 16.2005,0 0,-7.7617 -16.2005,0 1.2716,-4.2748 c 0.1652,-0.5851 0.236,-1.0286 -0.068,-1.4839 -0.4482,-0.6488 -1.3423,-0.821 -1.9911,-0.3775"
       style="fill:#ffffff;fill-opacity:1;fill-rule:evenodd;stroke:none"
       id="path3907"
       inkscape:connector-curvature="0" /><path
       d="m 3423.1538,-2682.2578 14.8038,-10.01 -14.8038,-10.0288 c -0.6511,-0.4435 -1.5452,-0.2736 -1.9864,0.3775 -0.2996,0.4341 -0.2454,0.887 -0.1062,1.4226 l 1.3047,4.3456 -16.1981,0 0,7.7545 16.1981,0 -1.2764,4.2772 c -0.1675,0.5922 -0.2359,1.0263 0.078,1.4839 0.4411,0.6512 1.3353,0.821 1.9864,0.3775"
       style="fill:#ffffff;fill-opacity:1;fill-rule:evenodd;stroke:none"
       id="path3911"
       inkscape:connector-curvature="0" /><path
       d="m 3275.4274,-2589.4481 0,-18.4959 -3.6071,0 0,18.4959 -5.2162,0 0,3.0197 14.122,0 0,-3.0197 -5.2987,0 z"
       style="fill:#ffffff;fill-opacity:1;fill-rule:nonzero;stroke:none"
       id="path3915"
       inkscape:connector-curvature="0" /><path
       d="m 3291.8001,-2595.9405 c -0.7243,0.5284 -1.2858,0.9059 -2.1658,0.9059 -2.0878,0 -2.3261,-1.1324 -2.3261,-3.0952 l 0,-9.8142 -3.6921,0 0,15.7026 3.6921,0 0,-0.7549 c 0.88,0.7549 1.2787,1.1324 2.5644,1.1324 1.281,0 1.8449,-0.453 2.4064,-1.0569 l -0.4789,-3.0197 z"
       style="fill:#ffffff;fill-opacity:1;fill-rule:nonzero;stroke:none"
       id="path3919"
       inkscape:connector-curvature="0" /><path
       d="m 3308.0052,-2600.0172 c 0,3.7747 -1.2032,8.1533 -6.8982,8.1533 -5.7776,0 -6.9808,-4.6806 -6.9808,-8.1533 0,-4.0766 1.2032,-8.2264 6.9808,-8.2264 5.695,0 6.8982,4.4494 6.8982,8.2264 m -3.6898,0 c 0,-1.5853 -0.401,-5.1335 -3.2084,-5.1335 -2.8098,0 -3.2887,3.4727 -3.2887,5.058 0,1.5854 0.4789,5.0581 3.2887,5.0581 2.7272,0 3.2084,-3.4727 3.2084,-4.9826"
       style="fill:#ffffff;fill-opacity:1;fill-rule:nonzero;stroke:none"
       id="path3923"
       inkscape:connector-curvature="0" /><path
       d="m 3317.791,-2613.9835 -4.0082,0 2.4889,6.0395 -6.4193,15.7026 3.9304,0 4.5721,-11.022 4.414,11.022 4.0908,0 -9.0687,-21.7421 z"
       style="fill:#ffffff;fill-opacity:1;fill-rule:nonzero;stroke:none"
       id="path3927"
       inkscape:connector-curvature="0" /><path
       d="m 3410.2752,-2608.3403 c -3.6308,0 -6.5538,2.2294 -7.5022,5.6455 l 3.4751,0.9649 c 0.552,-2.0761 2.0548,-3.192 4.1875,-3.192 2.3686,0 4.0271,1.5594 4.0271,3.7133 0,1.1159 -0.4742,2.1563 -1.2622,2.6777 -0.5544,0.3704 -0.6369,0.3704 -2.2907,0.4435 l -0.3963,0 0,3.4208 0,-0.078 0.078,0 0.08,0 0.7078,0 c 1.4249,0 2.2128,0.7455 2.2128,2.0807 0,1.6373 -1.4202,2.824 -3.2344,2.824 -1.5028,0 -2.6092,-0.6677 -3.4019,-2.0785 l -3.3123,1.1891 c 1.1843,2.6729 3.7086,4.3102 6.6317,4.3102 3.7911,0 6.8746,-2.8995 6.8746,-6.4665 0,-1.2645 -0.3185,-2.1563 -1.2669,-3.4916 1.6585,-1.4131 2.1327,-2.5267 2.1327,-4.6074 0,-4.3102 -3.1566,-7.3559 -7.7404,-7.3559"
       style="fill:#ffffff;fill-opacity:1;fill-rule:nonzero;stroke:none"
       id="path3931"
       inkscape:connector-curvature="0" /><path
       d="m 3428.0468,-2608.3403 c -1.9723,0 -3.9493,0.4459 -5.5299,1.189 l 1.7363,2.9702 c 0.9508,-0.4459 2.6093,-0.7408 4.2678,-0.7408 3.2391,0 5.7634,2.0053 5.7634,4.7561 0,2.0784 -1.8142,3.7133 -4.0271,3.7133 -1.5806,0 -2.2884,-0.4459 -3.6307,-2.2294 l -3.5577,0.9673 0.5544,10.9229 12.9519,0 0,-3.3429 -9.4792,0 -0.2335,-3.494 c 1.6585,0.4459 2.3686,0.5946 3.4727,0.5946 4.112,0 7.5068,-3.2698 7.5068,-7.1318 0,-4.683 -4.1096,-8.1745 -9.7952,-8.1745"
       style="fill:#ffffff;fill-opacity:1;fill-rule:nonzero;stroke:none"
       id="path3935"
       inkscape:connector-curvature="0" /><path
       d="m 3231.7781,-2702.7849 -7.8655,21.5132 -3.6119,0 -7.8607,-21.5132 3.8525,0 2.2436,6.0371 7.1412,0 2.2506,-6.0371 3.8502,0 z m -7.3795,9.5098 -4.5768,0 2.3262,6.0395 2.2506,-6.0395 z"
       style="fill:#ffffff;fill-opacity:1;fill-rule:nonzero;stroke:none"
       id="path3939"
       inkscape:connector-curvature="0" /><path
       d="m 3234.7459,-2702.7849 0,20.2299 3.6921,1.6608 0,-21.8907 -3.6921,0 z"
       style="fill:#ffffff;fill-opacity:1;fill-rule:nonzero;stroke:none"
       id="path3943"
       inkscape:connector-curvature="0" /><path
       d="m 3256.731,-2694.8605 c -0.085,4.1522 -1.6042,8.6063 -7.061,8.1533 -1.1229,-0.075 -2.6493,-0.5284 -3.0504,-0.9059 l 0,6.7189 -3.6897,-1.6608 0,-20.2299 3.6897,0 0,0.4506 c 1.1253,-0.604 1.9275,-0.8304 3.2085,-0.8304 5.0533,0 6.9029,3.8501 6.9029,8.3042 m -3.6921,0 c -0.083,-2.1893 -0.8021,-5.0604 -3.2887,-5.1335 -1.2857,-0.075 -2.1657,0.2265 -3.0504,1.0545 l 0,7.9292 c 0.8847,0.9814 1.7647,1.1324 2.8098,1.1324 2.8051,-0.075 3.6072,-2.7178 3.5293,-4.9826"
       style="fill:#ffffff;fill-opacity:1;fill-rule:nonzero;stroke:none"
       id="path3947"
       inkscape:connector-curvature="0" /><path
       d="m 3272.2944,-2702.7849 0,10.4912 c 0,6.115 -7.7828,6.9454 -11.9562,3.7723 l 1.0451,-3.3193 c 0.4789,0.6794 2.3285,2.2648 4.6546,1.9628 2.5668,-0.2265 2.489,-2.7178 2.489,-2.7178 -3.6921,1.4344 -9.3093,-0.151 -9.3093,-4.6051 0,-3.7746 2.89,-5.813 6.2589,-5.813 1.2857,0 2.7271,0.2289 3.2886,0.6795 l 0,-0.4506 3.5293,0 z m -3.6897,3.4703 c -1.3636,-0.6794 -5.7776,-1.8118 -5.7776,2.0383 0,3.1708 4.2512,2.2625 5.7776,1.5854 l 0,-3.6237 z"
       style="fill:#ffffff;fill-opacity:1;fill-rule:nonzero;stroke:none"
       id="path3951"
       inkscape:connector-curvature="0" /><path
       d="m 3286.4188,-2702.7849 0,10.4181 c 0,2.0359 -1.4485,2.4889 -3.3736,2.4889 -1.4415,-0.075 -2.8074,-0.8304 -2.8074,-2.6423 l 0,-10.2647 -3.6898,0 0,15.7002 3.6119,0 0,-0.5284 c 3.77,2.2648 9.8661,0.453 9.8661,-4.3763 l 0,-10.7955 -3.6072,0 z"
       style="fill:#ffffff;fill-opacity:1;fill-rule:nonzero;stroke:none"
       id="path3955"
       inkscape:connector-curvature="0" /><path
       d="m 3300.5361,-2708.8268 -4.0083,0 2.4866,6.0419 -6.4217,15.7002 3.9351,0 4.5697,-11.022 4.414,11.022 4.0932,0 -9.0686,-21.7421 z"
       style="fill:#ffffff;fill-opacity:1;fill-rule:nonzero;stroke:none"
       id="path3959"
       inkscape:connector-curvature="0" /><path
       d="m 3356.9108,-2702.8085 c -3.6355,0 -6.5562,2.2294 -7.5046,5.6455 l 3.4775,0.9649 c 0.5544,-2.0761 2.0524,-3.192 4.1851,-3.192 2.3686,0 4.0271,1.5594 4.0271,3.7134 0,1.1158 -0.4695,2.1562 -1.2621,2.6776 -0.5544,0.3704 -0.6323,0.3704 -2.2908,0.4435 l -0.3963,0 0,3.4208 0,-0.078 0.078,0 0.083,0 0.7101,0 c 1.4202,0 2.2129,0.7455 2.2129,2.0831 0,1.6373 -1.425,2.824 -3.2392,2.824 -1.5027,0 -2.6092,-0.67 -3.3972,-2.0808 l -3.3169,1.189 c 1.1843,2.6753 3.7133,4.3102 6.6339,4.3102 3.7936,0 6.8723,-2.8994 6.8723,-6.4665 0,-1.2645 -0.3138,-2.1539 -1.2645,-3.4916 1.6608,-1.4131 2.135,-2.5266 2.135,-4.6074 0,-4.3102 -3.1613,-7.3559 -7.7428,-7.3559"
       style="fill:#ffffff;fill-opacity:1;fill-rule:nonzero;stroke:none"
       id="path3963"
       inkscape:connector-curvature="0" /><path
       d="m 3380.2123,-2685.9405 c -0.7125,1.1159 -1.5807,1.5595 -2.9254,1.6349 -1.7364,0.076 -2.8428,-0.7431 -3.6308,-2.6021 -0.552,-1.2622 -0.8705,-3.1943 -0.8705,-4.9755 0,-2.2318 0.4742,-4.5343 1.3447,-5.8743 0.7101,-1.1112 1.6585,-1.6326 3.0787,-1.6326 1.6585,0 2.6871,0.8163 3.4751,2.673 0.4742,1.1135 0.8705,3.1966 0.8705,4.8339 0,2.3757 -0.4742,4.5296 -1.3423,5.9427 m 2.4464,-14.49 c -1.2621,-1.6372 -3.0811,-2.378 -5.4497,-2.378 -3.1565,0 -5.1335,1.189 -6.4735,3.7888 -0.9508,1.7835 -1.5807,4.6051 -1.5807,7.1365 0,3.4916 0.9437,6.6104 2.4465,8.618 1.3447,1.6326 3.1613,2.3781 5.7634,2.3781 2.8476,0 4.8198,-1.189 6.2448,-3.7912 0.9436,-1.8567 1.498,-4.5343 1.498,-7.2049 0,-3.3453 -0.8681,-6.6906 -2.4488,-8.5473"
       style="fill:#ffffff;fill-opacity:1;fill-rule:nonzero;stroke:none"
       id="path3967"
       inkscape:connector-curvature="0" /><path
       d="m 3281.1272,-2651.9354 c -1.2056,-2.1138 -3.9351,-3.626 -6.7402,-3.626 -2.8097,0 -5.5393,1.5122 -6.7401,3.626 -0.6417,1.281 -1.0428,2.7933 -1.0428,4.4541 l 0,13.8153 3.6072,0 0,-13.8153 c 0,-2.7956 1.6868,-4.6051 4.1757,-4.6051 2.489,0 4.171,1.8095 4.171,4.6051 l 0,13.8153 3.6119,0 0,-13.8153 c 0,-1.6608 -0.401,-3.1731 -1.0427,-4.4541"
       style="fill:#ffffff;fill-opacity:1;fill-rule:nonzero;stroke:none"
       id="path3971"
       inkscape:connector-curvature="0" /><path
       d="m 3293.7251,-2654.8065 c -1.2055,-0.5261 -1.8472,-0.6771 -2.7319,-0.6771 -2.6446,-0.151 -3.4467,1.8118 -3.4467,4.0766 l 0,8.7573 -2.4087,0 0,3.1683 2.4087,0 0,4.5297 3.5293,1.6632 0,-6.1929 2.89,0 0,-3.0952 -2.89,0 0,-8.3043 c 0,-1.0545 0.1628,-1.5075 1.2032,-1.5075 0.8021,0 1.2031,0.2265 1.925,0.7526 l -0.4789,-3.1707 z"
       style="fill:#ffffff;fill-opacity:1;fill-rule:nonzero;stroke:none"
       id="path3975"
       inkscape:connector-curvature="0" /><path
       d="m 3296.8475,-2639.4807 3.6143,0 0,-15.7026 -3.6143,0 0,15.7026 z m 1.7694,2.6447 c -1.0451,0 -1.9251,0.7525 -1.9251,1.734 0,0.9814 0.88,1.8142 1.9251,1.8142 1.0451,0 1.9227,-0.8328 1.9227,-1.8142 0,-0.9815 -0.8776,-1.734 -1.9227,-1.734"
       style="fill:#ffffff;fill-opacity:1;fill-rule:nonzero;stroke:none"
       id="path3977"
       inkscape:connector-curvature="0" /><path
       d="m 3311.1335,-2655.4836 c -5.7777,0 -6.9808,4.1521 -6.9808,8.2288 0,3.4703 1.2031,8.1533 6.9808,8.1533 3.6071,0 5.5346,-1.6609 6.3414,-3.9257 l -3.6921,-1.2079 c -0.4058,1.2834 -1.2079,1.9629 -2.6493,1.9629 -2.8098,0 -3.2887,-3.3996 -3.2887,-4.9826 0,-1.5854 0.4789,-5.0581 3.2887,-5.0581 1.8425,0 2.6493,1.3589 2.8899,2.9443 l 3.6898,-0.9083 c -0.6441,-2.7909 -2.4087,-5.2067 -6.5797,-5.2067"
       style="fill:#ffffff;fill-opacity:1;fill-rule:nonzero;stroke:none"
       id="path3981"
       inkscape:connector-curvature="0" /><path
       d="m 3332.6373,-2655.184 0,10.4936 c 0,6.1173 -7.7853,6.9478 -11.9563,3.777 l 1.0404,-3.3217 c 0.4836,0.6771 2.3285,2.2648 4.6546,1.9629 2.5715,-0.2265 2.489,-2.7178 2.489,-2.7178 -3.6921,1.432 -9.3093,-0.1534 -9.3093,-4.6051 0,-3.7747 2.89,-5.813 6.2588,-5.813 1.2858,0 2.732,0.2241 3.2887,0.6794 l 0,-0.4553 3.5341,0 z m -3.6898,3.4751 c -1.3636,-0.6795 -5.7776,-1.8119 -5.7776,2.0359 0,3.1731 4.2512,2.2672 5.7776,1.5854 l 0,-3.6213 z"
       style="fill:#ffffff;fill-opacity:1;fill-rule:nonzero;stroke:none"
       id="path3985"
       inkscape:connector-curvature="0" /><path
       d="m 3414.2173,-2655.2076 0,17.1701 -2.0501,0 0,2.6753 0.2359,0 c 0.9484,0 1.977,0.5166 2.6069,1.3376 l 2.8428,0 0,-21.183 -3.6355,0 z"
       style="fill:#ffffff;fill-opacity:1;fill-rule:nonzero;stroke:none"
       id="path3989"
       inkscape:connector-curvature="0" /><path
       d="m 3428.2756,-2655.578 c -1.9723,0 -3.9469,0.4483 -5.5276,1.1914 l 1.7411,2.9726 c 0.9437,-0.4483 2.6022,-0.7455 4.263,-0.7455 3.2392,0 5.7635,2.0076 5.7635,4.7584 0,2.0784 -1.8166,3.7133 -4.0271,3.7133 -1.5807,0 -2.2908,-0.4458 -3.6308,-2.2294 l -3.5576,0.9673 0.552,10.9253 12.959,0 0,-3.3453 -9.4792,0 -0.2406,-3.4916 c 1.6608,0.4459 2.3686,0.5945 3.475,0.5945 4.1097,0 7.5069,-3.2721 7.5069,-7.1341 0,-4.6829 -4.1097,-8.1769 -9.7976,-8.1769"
       style="fill:#ffffff;fill-opacity:1;fill-rule:nonzero;stroke:none"
       id="path3993"
       inkscape:connector-curvature="0" /><path
       d="m 3456.3084,-2622.3201 -261.7049,0 0,4.5981 261.7049,0 0,-4.5981 z"
       style="fill:#ffffff;fill-opacity:1;fill-rule:evenodd;stroke:none"
       id="path3995"
       inkscape:connector-curvature="0" /><path
       d="m 3456.3084,-2670.0791 -261.7049,0 0,4.6004 261.7049,0 0,-4.6004 z"
       style="fill:#ffffff;fill-opacity:1;fill-rule:evenodd;stroke:none"
       id="path3997"
       inkscape:connector-curvature="0" /></g></svg>