<?xml version="1.0" encoding="UTF-8" standalone="no"?>
<!-- Created with Inkscape (http://www.inkscape.org/) -->

<svg
   xmlns:dc="http://purl.org/dc/elements/1.1/"
   xmlns:cc="http://creativecommons.org/ns#"
   xmlns:rdf="http://www.w3.org/1999/02/22-rdf-syntax-ns#"
   xmlns:svg="http://www.w3.org/2000/svg"
   xmlns="http://www.w3.org/2000/svg"
   xmlns:sodipodi="http://sodipodi.sourceforge.net/DTD/sodipodi-0.dtd"
   xmlns:inkscape="http://www.inkscape.org/namespaces/inkscape"
   id="svg17624"
   version="1.1"
   inkscape:version="0.48.2 r9819"
   width="129.76562"
   height="108.71094"
   xml:space="preserve"
   sodipodi:docname="MUTCD D1-2d.svg"><metadata
     id="metadata17630"><rdf:RDF><cc:Work
         rdf:about=""><dc:format>image/svg+xml</dc:format><dc:type
           rdf:resource="http://purl.org/dc/dcmitype/StillImage" /><dc:title></dc:title></cc:Work></rdf:RDF></metadata><defs
     id="defs17628"><inkscape:perspective
       sodipodi:type="inkscape:persp3d"
       inkscape:vp_x="0 : 0.5 : 1"
       inkscape:vp_y="0 : 1000 : 0"
       inkscape:vp_z="1 : 0.5 : 1"
       inkscape:persp3d-origin="0.5 : 0.33333333 : 1"
       id="perspective17632" /><clipPath
       clipPathUnits="userSpaceOnUse"
       id="clipPath17642"><path
         d="m -2,710 501,0 0,-711 -501,0 0,711 z"
         id="path17644"
         inkscape:connector-curvature="0" /></clipPath><clipPath
       clipPathUnits="userSpaceOnUse"
       id="clipPath17648"><path
         d="m 0,708.06 498,0 0,-708 -498,0 0,708 z"
         id="path17650"
         inkscape:connector-curvature="0" /></clipPath><clipPath
       clipPathUnits="userSpaceOnUse"
       id="clipPath17798"><path
         d="m -2,710 501,0 0,-711 -501,0 0,711 z"
         id="path17800"
         inkscape:connector-curvature="0" /></clipPath><clipPath
       clipPathUnits="userSpaceOnUse"
       id="clipPath17804"><path
         d="m 0,708.06 498,0 0,-708 -498,0 0,708 z"
         id="path17806"
         inkscape:connector-curvature="0" /></clipPath><clipPath
       id="Clip0"><path
         inkscape:connector-curvature="0"
         d="m 0,0 212.597,0 0,269.292 L 0,269.292 0,0 z"
         transform="translate(0.923828,0.879883)"
         id="path7" /></clipPath><clipPath
       id="Clip0-8"><path
         inkscape:connector-curvature="0"
         d="m 0,0 170.079,0 0,113.386 L 0,113.386 0,0 z"
         transform="translate(0.0986328,0.822266)"
         id="path7-8" /></clipPath><clipPath
       id="Clip0-1"><path
         inkscape:connector-curvature="0"
         d="m 0,0 287.009,0 0,159.449 L 0,159.449 0,0 z"
         transform="translate(0.396484,0.267578)"
         id="path7-7" /></clipPath><clipPath
       id="Clip0-9"><path
         inkscape:connector-curvature="0"
         d="m 0,0 170.079,0 0,170.079 L 0,170.079 0,0 z"
         transform="translate(0.460938,0.775391)"
         id="path7-4" /></clipPath><clipPath
       id="Clip0-4"><path
         inkscape:connector-curvature="0"
         d="m 0,0 340.157,0 0,226.771 L 0,226.771 0,0 z"
         transform="translate(0.921875,0.25293)"
         id="path7-5" /></clipPath><clipPath
       id="Clip0-5"><path
         inkscape:connector-curvature="0"
         d="m 0,0 255.119,0 0,170.079 L 0,170.079 0,0 z"
         transform="translate(0.147461,0.0595703)"
         id="path7-1" /></clipPath><clipPath
       id="Clip0-0"><path
         inkscape:connector-curvature="0"
         d="m 0,0 170.079,0 0,113.386 L 0,113.386 0,0 z"
         transform="translate(0.0673828,0.207031)"
         id="path7-9" /></clipPath></defs><sodipodi:namedview
     pagecolor="#ffffff"
     bordercolor="#666666"
     borderopacity="1"
     objecttolerance="10"
     gridtolerance="10"
     guidetolerance="10"
     inkscape:pageopacity="0"
     inkscape:pageshadow="2"
     inkscape:window-width="1280"
     inkscape:window-height="1004"
     id="namedview17626"
     showgrid="false"
     inkscape:zoom="4"
     inkscape:cx="76.908967"
     inkscape:cy="47.945284"
     inkscape:window-x="-8"
     inkscape:window-y="-8"
     inkscape:window-maximized="1"
     inkscape:current-layer="g17634"
     fit-margin-top="0"
     fit-margin-left="0"
     fit-margin-right="0"
     fit-margin-bottom="0"
     showguides="true"
     inkscape:guide-bbox="true" /><g
     id="g17634"
     inkscape:groupmode="layer"
     inkscape:label="GG1999P002"
     transform="matrix(1.25,0,0,-1.25,-4461.4062,230.27344)"><path
       inkscape:connector-curvature="0"
       d="m 3672.6846,103.49185 c 0,-3.314 -2.688,-6 -6,-6 l -91.33,0 c -3.315,0 -6,2.686 -6,6 l 0,74.5 c 0,3.314 2.685,6 6,6 l 91.33,0 c 3.312,0 6,-2.686 6,-6 l 0,-74.5 z"
       style="fill:#ffffff;stroke:#000000;stroke-width:0.47999999;stroke-linecap:butt;stroke-linejoin:miter;stroke-miterlimit:4;stroke-opacity:1;stroke-dasharray:none"
       id="path3475" /><path
       id="path5306"
       style="fill:#00674c;fill-opacity:1;fill-rule:evenodd;stroke:none"
       d="m 3670.2366,103.95785 c 0,-2.209 -1.791,-4 -4,-4 l -90.435,0 c -2.209,0 -4,1.791 -4,4 l 0,73.569 c 0,2.209 1.791,4 4,4 l 90.435,0 c 2.209,0 4,-1.791 4,-4 l 0,-73.569 z"
       inkscape:connector-curvature="0" /><path
       id="path5308"
       style="fill:#ffffff;fill-opacity:1;fill-rule:nonzero;stroke:none"
       d="m 3672.0575,153.92625 -101.264,0 0,2.399 101.264,0 0,-2.399 z"
       inkscape:connector-curvature="0" /><path
       id="path5310"
       style="fill:#ffffff;fill-opacity:1;fill-rule:nonzero;stroke:none"
       d="m 3671.9085,125.12625 -101.115,0 0,2.4 101.115,0 0,-2.4 z"
       inkscape:connector-curvature="0" /><path
       id="path5312"
       style="fill:#ffffff;fill-opacity:1;fill-rule:nonzero;stroke:none"
       d="m 3592.6016,168.74275 2.109,-0.68 c 0,0 0.422,-0.151 0.77,0.182 0.421,0.407 0.089,0.936 0.089,0.936 l -4.785,6.946 -4.818,-7.037 c 0,0 -0.211,-0.453 0.152,-0.845 0.301,-0.317 0.725,-0.182 0.725,-0.182 l 2.154,0.689 0,-7.026 3.606,0 0,7.017 z"
       inkscape:connector-curvature="0" /><path
       id="path5314"
       style="fill:#ffffff;fill-opacity:1;fill-rule:nonzero;stroke:none"
       d="m 3654.3076,114.32575 -0.68,2.11 c 0,0 -0.152,0.423 0.18,0.771 0.408,0.422 0.937,0.09 0.937,0.09 l 6.946,-4.786 -7.038,-4.818 c 0,0 -0.453,-0.211 -0.845,0.151 -0.317,0.302 -0.18,0.725 -0.18,0.725 l 0.688,2.155 -7.026,0 0,3.605 7.018,-0.003 z"
       inkscape:connector-curvature="0" /><path
       id="path5316"
       style="fill:#ffffff;fill-opacity:1;fill-rule:nonzero;stroke:none"
       d="m 3605.0876,110.72615 c 0,0.434 -0.15,0.779 -0.45,1.039 -0.274,0.24 -0.59,0.359 -0.95,0.359 l -2.202,0 0,-2.796 2.202,0 c 0.933,0 1.4,0.466 1.4,1.398 m -0.203,4.219 c 0,0.414 -0.147,0.722 -0.44,0.929 -0.233,0.167 -0.52,0.25 -0.86,0.25 l -2.099,0 0,-2.398 2.219,0 c 0.267,0 0.514,0.086 0.74,0.26 0.293,0.233 0.44,0.553 0.44,0.959 m -5,-2.299 0,0.01 0,-0.01 c 0,-0.006 0,-0.01 0,-0.01 l 0,0.01 z m 6.805,-1.92 c 0,-0.853 -0.284,-1.566 -0.851,-2.14 -0.567,-0.573 -1.284,-0.86 -2.151,-0.86 l -3.803,0 0,10 3.741,0 c 0.82,0 1.502,-0.262 2.045,-0.785 0.544,-0.524 0.815,-1.188 0.815,-1.994 0,-0.874 -0.412,-1.547 -1.237,-2.022 0.96,-0.42 1.441,-1.152 1.441,-2.199"
       inkscape:connector-curvature="0" /><path
       id="path5318"
       style="fill:#ffffff;fill-opacity:1;fill-rule:nonzero;stroke:none"
       d="m 3608.0956,115.02305 1.601,0 0,-4.699 c 0,-0.412 0.154,-0.727 0.459,-0.94 0.24,-0.174 0.539,-0.259 0.899,-0.259 0.346,0 0.642,0.089 0.888,0.269 0.3,0.221 0.45,0.53 0.45,0.93 l 0,4.699 1.601,0 0,-7.297 -1.601,0 0,0.29 c -0.447,-0.26 -0.99,-0.391 -1.629,-0.391 -0.706,0 -1.313,0.193 -1.819,0.58 -0.566,0.446 -0.849,1.052 -0.849,1.819 l 0,4.999 z"
       inkscape:connector-curvature="0" /><path
       id="path5320"
       style="fill:#ffffff;fill-opacity:1;fill-rule:nonzero;stroke:none"
       d="m 3619.7886,114.82475 -0.24,-1.599 c 0,0.034 -0.09,0.104 -0.27,0.209 -0.213,0.127 -0.423,0.19 -0.629,0.19 -0.707,0 -1.06,-0.397 -1.06,-1.19 l 0,-4.709 -1.601,0 0,7.301 1.601,0 0,-0.47 c 0.293,0.378 0.723,0.568 1.289,0.568 0.174,0 0.477,-0.1 0.91,-0.3"
       inkscape:connector-curvature="0" /><path
       id="path5322"
       style="fill:#ffffff;fill-opacity:1;fill-rule:nonzero;stroke:none"
       d="m 3626.8867,107.72585 -1.602,0 0,4.7 c 0,0.412 -0.148,0.726 -0.449,0.939 -0.246,0.174 -0.549,0.26 -0.908,0.26 -0.346,0 -0.643,-0.09 -0.889,-0.27 -0.299,-0.22 -0.449,-0.53 -0.449,-0.929 l 0,-4.7 -1.602,0 0,7.301 1.602,0 0,-0.291 c 0.447,0.26 0.99,0.389 1.629,0.389 0.707,0 1.312,-0.197 1.818,-0.59 0.567,-0.439 0.85,-1.043 0.85,-1.81 l 0,-4.999 z"
       inkscape:connector-curvature="0" /><path
       id="path5324"
       style="fill:#ffffff;fill-opacity:1;fill-rule:nonzero;stroke:none"
       d="m 3632.8907,109.72815 c 0,-0.547 -0.182,-1.017 -0.541,-1.41 -0.448,-0.473 -1.094,-0.709 -1.942,-0.709 -1,0 -1.74,0.376 -2.22,1.129 l 1.17,0.988 c 0.267,-0.396 0.617,-0.594 1.05,-0.594 0.586,0 0.881,0.184 0.881,0.549 0,0.307 -0.24,0.643 -0.721,1.01 -0.441,0.332 -0.884,0.665 -1.332,0.998 -0.48,0.439 -0.72,0.906 -0.72,1.398 0,0.42 0.113,0.813 0.34,1.178 0.353,0.572 0.923,0.859 1.71,0.859 0.708,0 1.397,-0.379 2.071,-1.138 l -1.139,-0.949 c -0.314,0.391 -0.623,0.587 -0.93,0.587 -0.281,0 -0.419,-0.142 -0.419,-0.429 0,-0.166 0.236,-0.42 0.71,-0.76 0.647,-0.453 1.086,-0.803 1.321,-1.049 0.472,-0.513 0.711,-1.066 0.711,-1.658"
       inkscape:connector-curvature="0" /><path
       id="path5326"
       style="fill:#ffffff;fill-opacity:1;fill-rule:nonzero;stroke:none"
       d="m 3611.5807,139.15195 c 0,0.433 -0.15,0.778 -0.45,1.038 -0.273,0.24 -0.59,0.36 -0.95,0.36 l -2.201,0 0,-2.796 2.201,0 c 0.933,0 1.4,0.465 1.4,1.398 m -0.203,4.22 c 0,0.412 -0.146,0.722 -0.439,0.928 -0.234,0.167 -0.521,0.25 -0.861,0.25 l -2.098,0 0,-2.398 2.218,0 c 0.267,0 0.514,0.087 0.741,0.26 0.293,0.233 0.439,0.553 0.439,0.96 m -5,-2.3 0,0.01 0,-0.01 c 0,-0.007 0,-0.01 0,-0.01 l 0,0.01 z m 6.805,-1.92 c 0,-0.854 -0.284,-1.567 -0.851,-2.14 -0.567,-0.574 -1.284,-0.86 -2.151,-0.86 l -3.803,0 0,10 3.741,0 c 0.821,0 1.502,-0.262 2.045,-0.785 0.544,-0.523 0.816,-1.189 0.816,-1.995 0,-0.873 -0.413,-1.547 -1.238,-2.02 0.96,-0.42 1.441,-1.154 1.441,-2.2"
       inkscape:connector-curvature="0" /><path
       id="path5328"
       style="fill:#ffffff;fill-opacity:1;fill-rule:nonzero;stroke:none"
       d="m 3618.5807,140.55035 c 0,0.44 -0.111,0.8 -0.335,1.08 -0.222,0.28 -0.527,0.42 -0.914,0.42 -0.365,0 -0.679,-0.148 -0.938,-0.444 -0.26,-0.297 -0.407,-0.649 -0.44,-1.056 l 2.627,0 z m 1.394,-2.899 c -0.207,-0.481 -0.534,-0.864 -0.981,-1.151 -0.473,-0.301 -1.026,-0.45 -1.66,-0.45 -0.96,0 -1.708,0.327 -2.245,0.979 -0.536,0.655 -0.805,1.578 -0.805,2.771 0,1.06 0.22,1.917 0.66,2.569 0.527,0.788 1.323,1.181 2.389,1.181 1.9,0 2.85,-1.25 2.85,-3.75 0,-0.374 -0.01,-0.624 -0.021,-0.75 l -4.208,0 c 0.06,-0.433 0.203,-0.784 0.431,-1.05 0.253,-0.301 0.569,-0.45 0.949,-0.45 0.607,0 1.03,0.347 1.271,1.042 l 1.37,-0.941 z"
       inkscape:connector-curvature="0" /><path
       id="path5330"
       style="fill:#ffffff;fill-opacity:1;fill-rule:nonzero;stroke:none"
       d="m 3627.4807,136.15195 -1.602,0 0,4.698 c 0,0.414 -0.149,0.727 -0.449,0.941 -0.246,0.172 -0.549,0.259 -0.908,0.259 -0.347,0 -0.643,-0.089 -0.889,-0.27 -0.3,-0.219 -0.449,-0.529 -0.449,-0.93 l 0,-4.698 -1.602,0 0,7.3 1.602,0 0,-0.289 c 0.446,0.257 0.989,0.387 1.629,0.387 0.706,0 1.312,-0.196 1.818,-0.589 0.566,-0.441 0.85,-1.044 0.85,-1.81 l 0,-4.999 z"
       inkscape:connector-curvature="0" /><path
       id="path5332"
       style="fill:#ffffff;fill-opacity:1;fill-rule:nonzero;stroke:none"
       d="m 3633.3896,138.11775 0,3.234 c -0.234,0.465 -0.716,0.699 -1.449,0.699 -0.439,0 -0.779,-0.224 -1.019,-0.669 -0.219,-0.4 -0.329,-0.926 -0.329,-1.577 0,-1.497 0.449,-2.247 1.348,-2.247 0.667,0 1.149,0.187 1.449,0.56 m 1.601,-1.966 -1.601,0 0,0.239 c -0.493,-0.237 -0.977,-0.356 -1.449,-0.356 -1.966,0 -2.95,1.256 -2.95,3.769 0,2.498 0.984,3.747 2.95,3.747 0.499,0 0.982,-0.157 1.449,-0.468 l 0,2.31 1.601,0.861 0,-10.102 z"
       inkscape:connector-curvature="0" /><path
       id="path5334"
       style="fill:#ffffff;fill-opacity:1;fill-rule:nonzero;stroke:none"
       d="m 3611.4476,171.34535 c 0,0.334 -0.111,0.613 -0.336,0.84 -0.222,0.226 -0.502,0.34 -0.834,0.34 l -2.298,0 0,-2.399 2.298,0 c 0.332,0 0.612,0.118 0.834,0.356 0.225,0.236 0.336,0.523 0.336,0.863 m 1.729,-7.219 -1.69,0 -1.609,4.399 -1.898,0 0,-4.399 -1.602,0 0,10 3.891,0 c 0.767,0 1.422,-0.271 1.964,-0.814 0.545,-0.544 0.817,-1.199 0.817,-1.965 0,-1.121 -0.531,-1.961 -1.592,-2.522 l 1.719,-4.699 z"
       inkscape:connector-curvature="0" /><path
       id="path5336"
       style="fill:#ffffff;fill-opacity:1;fill-rule:nonzero;stroke:none"
       d="m 3618.5807,168.52495 c 0,0.44 -0.111,0.8 -0.336,1.08 -0.222,0.279 -0.527,0.42 -0.914,0.42 -0.365,0 -0.678,-0.148 -0.937,-0.445 -0.26,-0.297 -0.407,-0.649 -0.44,-1.055 l 2.627,0 z m 1.393,-2.898 c -0.207,-0.481 -0.533,-0.866 -0.981,-1.152 -0.472,-0.3 -1.025,-0.45 -1.66,-0.45 -0.959,0 -1.707,0.326 -2.244,0.981 -0.537,0.652 -0.805,1.576 -0.805,2.769 0,1.061 0.219,1.916 0.66,2.57 0.526,0.787 1.323,1.18 2.389,1.18 1.899,0 2.85,-1.25 2.85,-3.75 0,-0.373 -0.01,-0.623 -0.022,-0.75 l -4.207,0 c 0.059,-0.434 0.203,-0.783 0.43,-1.051 0.254,-0.299 0.57,-0.449 0.949,-0.449 0.608,0 1.031,0.348 1.272,1.041 l 1.369,-0.939 z"
       inkscape:connector-curvature="0" /><path
       id="path5338"
       style="fill:#ffffff;fill-opacity:1;fill-rule:nonzero;stroke:none"
       d="m 3625.5886,166.09135 0,3.234 c -0.232,0.467 -0.715,0.7 -1.447,0.7 -0.44,0 -0.78,-0.223 -1.02,-0.669 -0.221,-0.4 -0.33,-0.925 -0.33,-1.577 0,-1.498 0.449,-2.247 1.35,-2.247 0.666,0 1.148,0.186 1.447,0.559 m 1.602,-1.965 -1.602,0 0,0.24 c -0.492,-0.238 -0.977,-0.357 -1.449,-0.357 -1.967,0 -2.949,1.256 -2.949,3.768 0,2.498 0.982,3.748 2.949,3.748 0.5,0 0.982,-0.157 1.449,-0.469 l 0,2.311 1.602,0.861 0,-10.102 z"
       inkscape:connector-curvature="0" /><path
       id="path5340"
       style="fill:#ffffff;fill-opacity:1;fill-rule:nonzero;stroke:none"
       d="m 3634.3427,170.75645 c 0.599,0.513 1.289,0.768 2.068,0.768 0.707,0 1.311,-0.197 1.811,-0.589 0.572,-0.44 0.859,-1.043 0.859,-1.81 l 0,-4.999 -1.601,0 0,4.699 c 0,0.412 -0.155,0.727 -0.461,0.94 -0.239,0.174 -0.539,0.259 -0.899,0.259 -0.326,0 -0.599,-0.093 -0.818,-0.279 -0.246,-0.214 -0.369,-0.52 -0.369,-0.92 l 0,-4.699 -1.602,0 0,4.699 c 0,0.799 -0.404,1.199 -1.209,1.199 -0.346,0 -0.642,-0.089 -0.889,-0.269 -0.3,-0.221 -0.449,-0.53 -0.449,-0.93 l 0,-4.699 -1.601,0 0,7.301 1.601,0 0,-0.291 c 0.446,0.26 0.989,0.388 1.629,0.388 0.86,0 1.502,-0.255 1.93,-0.768"
       inkscape:connector-curvature="0" /><path
       id="path5342"
       style="fill:#ffffff;fill-opacity:1;fill-rule:nonzero;stroke:none"
       d="m 3645.0826,167.77495 c 0,0.62 -0.105,1.13 -0.32,1.529 -0.252,0.481 -0.629,0.721 -1.129,0.721 -0.479,0 -0.846,-0.221 -1.1,-0.66 -0.232,-0.4 -0.349,-0.93 -0.349,-1.59 0,-0.62 0.107,-1.131 0.32,-1.529 0.254,-0.481 0.629,-0.721 1.129,-0.721 0.5,0 0.877,0.24 1.129,0.721 0.215,0.398 0.32,0.909 0.32,1.529 m 1.602,0 c 0,-1.086 -0.231,-1.96 -0.69,-2.62 -0.533,-0.753 -1.32,-1.13 -2.361,-1.13 -0.959,0 -1.709,0.326 -2.246,0.981 -0.535,0.652 -0.805,1.576 -0.805,2.769 0,1.061 0.221,1.916 0.66,2.57 0.528,0.787 1.324,1.18 2.391,1.18 1.055,0 1.848,-0.391 2.381,-1.17 0.447,-0.66 0.67,-1.519 0.67,-2.58"
       inkscape:connector-curvature="0" /><path
       id="path5344"
       style="fill:#ffffff;fill-opacity:1;fill-rule:nonzero;stroke:none"
       d="m 3654.1807,164.12655 -1.602,0 0,4.699 c 0,0.412 -0.15,0.727 -0.449,0.94 -0.246,0.174 -0.549,0.259 -0.908,0.259 -0.348,0 -0.643,-0.089 -0.889,-0.269 -0.301,-0.221 -0.449,-0.53 -0.449,-0.93 l 0,-4.699 -1.602,0 0,7.301 1.602,0 0,-0.291 c 0.445,0.259 0.988,0.388 1.629,0.388 0.705,0 1.312,-0.197 1.818,-0.589 0.567,-0.44 0.85,-1.043 0.85,-1.81 l 0,-4.999 z"
       inkscape:connector-curvature="0" /><path
       id="path5346"
       style="fill:#ffffff;fill-opacity:1;fill-rule:nonzero;stroke:none"
       d="m 3660.0886,166.09135 0,3.234 c -0.232,0.467 -0.715,0.7 -1.447,0.7 -0.44,0 -0.78,-0.223 -1.02,-0.669 -0.221,-0.4 -0.33,-0.925 -0.33,-1.577 0,-1.498 0.449,-2.247 1.35,-2.247 0.666,0 1.148,0.186 1.447,0.559 m 1.602,-1.965 -1.602,0 0,0.24 c -0.492,-0.238 -0.977,-0.357 -1.449,-0.357 -1.967,0 -2.949,1.256 -2.949,3.768 0,2.498 0.982,3.748 2.949,3.748 0.5,0 0.982,-0.157 1.449,-0.469 l 0,2.311 1.602,0.861 0,-10.102 z"
       inkscape:connector-curvature="0" /><path
       id="path5348"
       style="fill:#ffffff;fill-opacity:1;fill-rule:nonzero;stroke:none"
       d="m 3596.6626,144.40585 c -1.639,1.611 -4.387,1.564 -6.394,1.531 l -0.125,-0.002 0,0.266 0.597,1.877 c 0,0 0.119,0.367 -0.158,0.631 -0.342,0.316 -0.736,0.132 -0.736,0.132 l -6.127,-4.197 6.049,-4.168 c 0,0 0.461,-0.289 0.814,0.08 0.289,0.303 0.158,0.67 0.158,0.67 l -0.592,1.838 0,0.172 0.167,0.002 c 1.441,0.023 3.623,0.061 4.455,-0.758 0.175,-0.172 0.408,-0.486 0.408,-1.222 0,-0.446 -0.676,-1.344 -1.219,-2.067 -0.953,-1.267 -2.033,-2.703 -2.033,-4.408 l 0,-1.389 2.699,0 0,1.389 c 0,0.803 0.793,1.855 1.492,2.785 0.865,1.15 1.762,2.342 1.762,3.69 0,1.294 -0.41,2.355 -1.217,3.148"
       inkscape:connector-curvature="0" /></g></svg>