<?xml version="1.0" encoding="UTF-8" standalone="no"?>
<svg
   xmlns:dc="http://purl.org/dc/elements/1.1/"
   xmlns:cc="http://creativecommons.org/ns#"
   xmlns:rdf="http://www.w3.org/1999/02/22-rdf-syntax-ns#"
   xmlns:svg="http://www.w3.org/2000/svg"
   xmlns="http://www.w3.org/2000/svg"
   xmlns:sodipodi="http://sodipodi.sourceforge.net/DTD/sodipodi-0.dtd"
   xmlns:inkscape="http://www.inkscape.org/namespaces/inkscape"
   width="65.595474"
   height="260.00122"
   viewBox="0 0 185.12501 733.7812"
   version="1.1"
   id="svg2"
   inkscape:version="0.48.2 r9819"
   sodipodi:docname="MUTCD D10-1a.svg">
  <metadata
     id="metadata62">
    <rdf:RDF>
      <cc:Work
         rdf:about="">
        <dc:format>image/svg+xml</dc:format>
        <dc:type
           rdf:resource="http://purl.org/dc/dcmitype/StillImage" />
        <dc:title></dc:title>
      </cc:Work>
    </rdf:RDF>
  </metadata>
  <defs
     id="defs60" />
  <sodipodi:namedview
     pagecolor="#ffffff"
     bordercolor="#666666"
     borderopacity="1"
     objecttolerance="10"
     gridtolerance="10"
     guidetolerance="10"
     inkscape:pageopacity="0"
     inkscape:pageshadow="2"
     inkscape:window-width="1280"
     inkscape:window-height="1004"
     id="namedview58"
     showgrid="false"
     fit-margin-top="0"
     fit-margin-left="0"
     fit-margin-right="0"
     fit-margin-bottom="0"
     inkscape:zoom="2.0980331"
     inkscape:cx="64.541796"
     inkscape:cy="119.62251"
     inkscape:window-x="-8"
     inkscape:window-y="-8"
     inkscape:window-maximized="1"
     inkscape:current-layer="svg2"
     showguides="true"
     inkscape:guide-bbox="true" />
  <polygon
     points="395,375 315,545 235,375 315,205 "
     id="polygon10"
     style="fill:none;stroke:#ffffff;stroke-width:40"
     transform="translate(-10336.594,21250.562)" />
  <!-- draw the bicycle -->
  <!-- RIGHT -->
  <!-- LANE -->
  <!-- ONLY -->
  <path
     inkscape:connector-curvature="0"
     d="m 25.5128,1.1361948 134.1155,0 c 13.4267,0 24.3805,10.9502202 24.3805,24.3840002 l 0,682.755555 c 0,13.42319 -10.9538,24.37694 -24.3805,24.37694 l -134.1155,0 c -13.4303,0 -24.3805,-10.95375 -24.3805,-24.37694 l 0,-682.755555 c 0,-13.25739 11.1195,-24.3840002 24.3805,-24.3840002"
     style="fill:#ffffff;fill-opacity:1;fill-rule:nonzero;stroke:#000000;stroke-width:2.25777793;stroke-linecap:butt;stroke-linejoin:miter;stroke-miterlimit:4;stroke-opacity:1;stroke-dasharray:none"
     id="path3458" />
  <path
     inkscape:connector-curvature="0"
     d="m 159.5528,7.2339748 c 9.7331,0.24694 17.5895,7.5282802 18.3339,17.3425502 l 0.028,683.619855 c -0.2505,9.73314 -7.5248,17.58597 -17.3497,18.33739 l -134.9692,0.0317 C 15.8556,726.31505 8.0028,719.04077 7.2549,709.21238 L 7.2269,25.596055 C 7.4738,15.859395 14.7552,8.0171448 24.573,7.2586648 l 134.9798,-0.0247"
     style="fill:#00674c;fill-opacity:1;fill-rule:evenodd;stroke:none"
     id="path3462" />
  <path
     inkscape:connector-curvature="0"
     d="m 4.9557,513.00583 175.2318,0"
     style="fill:#ffffff;fill-opacity:1;fill-rule:evenodd;stroke:#ffffff;stroke-width:5.29166698;stroke-linecap:butt;stroke-linejoin:miter;stroke-miterlimit:4;stroke-opacity:1;stroke-dasharray:none"
     id="path3466" />
  <path
     inkscape:connector-curvature="0"
     d="m 165.1334,112.47991 0,-9.51088 -18.7501,0 0,-25.696335 11.7968,0 0,-9.6908 -11.7968,0 0,-18.75014 17.7412,0 0,-9.50736 -26.9734,0 0,73.155515 27.9823,0 z m -37.9448,0 0,-8.50547 -18.7501,0 0,-64.650045 -9.144,0 0,73.155515 27.8941,0 z m -43.8009,-73.155515 -9.2357,0 0,73.155515 9.2357,0 0,-73.155515 z m -25.146,73.155515 0,-73.155515 -9.2357,0 -8.6854,25.87977 -9.0558,-25.87977 -9.2357,0 0,73.155515 9.2357,0 0,-43.437515 9.0558,27.52725 8.6854,-27.52725 0,43.437515 9.2357,0 z"
     style="fill:#ffffff;fill-opacity:1;fill-rule:evenodd;stroke:none"
     id="path3470" />
  <path
     inkscape:connector-curvature="0"
     d="m 98.566,253.67217 -31.182,0 31.182,-41.14801 0,41.14801 z m 27.6119,15.81855 0,-15.81855 -10.4175,0 0,-66.56917 -17.1944,0 -54.222,71.96314 0,10.42458 54.222,0 0,27.34028 17.1944,0 0,-27.34028 10.4175,0 z"
     style="fill:#ffffff;fill-opacity:1;fill-rule:evenodd;stroke:none"
     id="path3474" />
  <path
     inkscape:connector-curvature="0"
     d="m 100.7571,428.29717 -31.1785,0 31.1785,-41.148 0,41.148 z m 27.6154,15.73036 0,-15.73036 -10.4246,0 0,-66.56564 -17.1908,0 -54.3137,71.95961 0,10.33639 54.3137,0 0,27.34028 17.1908,0 0,-27.34028 10.4246,0 z"
     style="fill:#ffffff;fill-opacity:1;fill-rule:evenodd;stroke:none"
     id="path3478" />
  <path
     inkscape:connector-curvature="0"
     d="m 55.4061,662.45343 c 0,-5.29873 -4.2051,-9.59909 -9.6026,-9.59909 -5.394,0 -10.0542,4.30036 -10.0542,9.59909 0,5.39398 4.6602,10.15648 10.0542,10.15648 5.3975,0 9.6026,-4.7625 9.6026,-10.15648"
     style="fill:#ffffff;fill-opacity:1;fill-rule:evenodd;stroke:none"
     id="path3482" />
  <path
     inkscape:connector-curvature="0"
     d="m 127.8769,635.1449 c 0,10.3893 -8.8547,18.85597 -20.0096,18.85597 -10.7773,0 -19.6215,-8.46667 -19.6215,-18.85597 0,-9.23572 8.8442,-16.54881 19.6215,-16.54881 10.7774,0 20.0096,7.31309 20.0096,16.54881 m 17.3143,-0.38806 c 0,-10.00478 -4.2298,-18.85244 -12.6965,-25.39294 5.387,-5.77498 8.4667,-12.31195 8.4667,-20.00956 0,-16.9298 -15.3917,-31.16792 -33.0941,-31.16792 -17.6953,0 -32.7025,14.23812 -32.7025,31.16792 0,7.69761 2.6917,14.23458 8.0786,20.00956 -8.0786,6.5405 -12.6964,15.00716 -12.6964,25.39294 0,20.00956 17.3143,36.93937 37.3203,36.93937 20.0096,0 37.3239,-16.92981 37.3239,-36.93937 M 123.259,588.96981 c 0,6.5405 -6.9215,11.93095 -15.3917,11.93095 -8.4666,0 -15.3881,-5.39045 -15.3881,-11.93095 0,-7.30955 6.9215,-13.081 15.3881,-13.081 8.4702,0 15.3917,5.77145 15.3917,13.081"
     style="fill:#ffffff;fill-opacity:1;fill-rule:nonzero;stroke:none"
     id="path3486" />
</svg>
