<?xml version="1.0" encoding="UTF-8" standalone="no"?>
<svg
   xmlns:dc="http://purl.org/dc/elements/1.1/"
   xmlns:cc="http://creativecommons.org/ns#"
   xmlns:rdf="http://www.w3.org/1999/02/22-rdf-syntax-ns#"
   xmlns:svg="http://www.w3.org/2000/svg"
   xmlns="http://www.w3.org/2000/svg"
   xmlns:sodipodi="http://sodipodi.sourceforge.net/DTD/sodipodi-0.dtd"
   xmlns:inkscape="http://www.inkscape.org/namespaces/inkscape"
   width="65.595474"
   height="195.24734"
   viewBox="0 0 185.12501 551.03138"
   version="1.1"
   id="svg2"
   inkscape:version="0.48.2 r9819"
   sodipodi:docname="MUTCD D10-3.svg">
  <metadata
     id="metadata62">
    <rdf:RDF>
      <cc:Work
         rdf:about="">
        <dc:format>image/svg+xml</dc:format>
        <dc:type
           rdf:resource="http://purl.org/dc/dcmitype/StillImage" />
        <dc:title></dc:title>
      </cc:Work>
    </rdf:RDF>
  </metadata>
  <defs
     id="defs60" />
  <sodipodi:namedview
     pagecolor="#ffffff"
     bordercolor="#666666"
     borderopacity="1"
     objecttolerance="10"
     gridtolerance="10"
     guidetolerance="10"
     inkscape:pageopacity="0"
     inkscape:pageshadow="2"
     inkscape:window-width="1280"
     inkscape:window-height="1004"
     id="namedview58"
     showgrid="false"
     fit-margin-top="0"
     fit-margin-left="0"
     fit-margin-right="0"
     fit-margin-bottom="0"
     inkscape:zoom="2.9670668"
     inkscape:cx="-13.582175"
     inkscape:cy="60.448606"
     inkscape:window-x="-8"
     inkscape:window-y="-8"
     inkscape:window-maximized="1"
     inkscape:current-layer="svg2"
     showguides="true"
     inkscape:guide-bbox="true" />
  <polygon
     points="315,545 235,375 315,205 395,375 "
     id="polygon10"
     style="fill:none;stroke:#ffffff;stroke-width:40"
     transform="translate(-8780.2812,20485.125)" />
  <!-- draw the bicycle -->
  <!-- RIGHT -->
  <!-- LANE -->
  <!-- ONLY -->
  <path
     inkscape:connector-curvature="0"
     d="m 1.1255,25.501429 c 0,-13.26445 11.1196,-24.384001 24.3805,-24.384001 l 134.1155,0 c 13.2645,0 24.384,11.119551 24.384,24.384001 l 0,500.016631 c 0,13.30325 -11.183,24.43339 -24.4792,24.384 l -133.9215,0 c -13.2997,0.0494 -24.4793,-11.08075 -24.4793,-24.384 l 0,-500.016631"
     style="fill:#ffffff;fill-opacity:1;fill-rule:nonzero;stroke:#000000;stroke-width:2.25777793;stroke-miterlimit:4;stroke-opacity:1;stroke-dasharray:none"
     id="path3502" />
  <path
     inkscape:connector-curvature="0"
     d="M 7.3164,23.628209 C 8.5229,14.279599 16.1288,7.453338 25.5903,7.209928 l 134.9693,0.0282 c 9.7437,0.74083 17.1026,8.533701 17.3496,18.337391 l -0.028,500.877411 c -0.7232,9.75783 -8.5443,17.08856 -18.3339,17.35667 L 24.571,543.7849 C 14.8202,543.02643 7.4754,535.25474 7.2214,525.44046 L 7.2464,24.555989 c 0.025,-0.30691 0.049,-0.61736 0.071,-0.9278"
     style="fill:#00674c;fill-opacity:1;fill-rule:evenodd;stroke:none"
     id="path3526" />
  <path
     inkscape:connector-curvature="0"
     d="m 4.9496,340.90981 175.2318,0"
     style="fill:none;stroke:#ffffff;stroke-width:5.29166698;stroke-linecap:butt;stroke-linejoin:miter;stroke-miterlimit:4;stroke-opacity:1;stroke-dasharray:none"
     id="path3542" />
  <path
     inkscape:connector-curvature="0"
     d="m 164.4253,130.60486 0,-9.51089 -18.7501,0 0,-25.692781 11.7969,0 0,-9.69434 -11.7969,0 0,-18.74308 17.7447,0 0,-9.51089 -26.9769,0 0,73.151981 27.9823,0 z m -37.9483,0 0,-8.50547 -18.7431,0 0,-64.646511 -9.144,0 0,73.151981 27.8871,0 z m -43.7973,-73.151981 -9.2393,0 0,73.151981 9.2393,0 0,-73.151981 z m -25.1496,73.151981 0,-73.151981 -9.2322,0 -8.6854,25.96797 -9.0558,-25.96797 -9.2357,0 0,73.151981 9.2357,0 0,-43.342261 9.0558,27.431981 8.6854,-27.431981 0,43.342261 9.2322,0 z"
     style="fill:#ffffff;fill-opacity:1;fill-rule:evenodd;stroke:none"
     id="path3554" />
  <path
     inkscape:connector-curvature="0"
     d="m 98.6788,257.59039 -31.1785,0 31.1785,-41.15153 0,41.15153 z m 27.5273,15.72683 0,-15.72683 -10.3364,0 0,-66.5727 -17.1909,0 -54.3172,71.87142 0,10.42811 54.3172,0 0,27.34028 17.1909,0 0,-27.34028 10.3364,0 z"
     style="fill:#ffffff;fill-opacity:1;fill-rule:evenodd;stroke:none"
     id="path3558" />
  <path
     inkscape:connector-curvature="0"
     d="m 49.3933,483.23412 c 0,-5.39398 -4.2086,-9.60262 -9.6026,-9.60262 -5.394,0 -10.0577,4.20864 -10.0577,9.60262 0,5.39397 4.6637,10.06122 10.0577,10.06122 5.394,0 9.6026,-4.66725 9.6026,-10.06122"
     style="fill:#ffffff;fill-opacity:1;fill-rule:evenodd;stroke:none"
     id="path3562" />
  <path
     inkscape:connector-curvature="0"
     d="m 101.6034,492.14212 c -17.6989,0 -31.937,-11.54289 -36.5549,-29.24528 l 16.9298,-5.00239 c 2.6953,10.77737 10.0048,16.54528 20.3941,16.54528 11.5429,0 19.625,-8.07861 19.625,-19.23697 0,-5.77145 -2.3071,-11.15836 -6.1559,-13.85358 -2.6953,-1.92264 -3.0798,-1.92264 -11.1584,-2.30717 l -1.9262,0 0,-17.69886 0,0.38453 0.3846,0 0.3845,0 3.4643,0 c 6.925,0 10.7738,-3.84881 10.7738,-10.77384 0,-8.46667 -6.925,-14.62264 -15.7762,-14.62264 -7.3096,0 -12.6965,3.46428 -16.5453,10.77384 l -16.1607,-6.15598 c 5.7714,-13.85358 18.0833,-22.31672 32.3215,-22.31672 18.4679,0 33.475,15.00717 33.475,33.47508 0,6.54051 -1.5381,11.15837 -6.1559,18.08339 8.0821,7.31309 10.3893,13.08453 10.3893,23.85837 0,22.31672 -15.3917,38.09294 -37.7084,38.09294"
     style="fill:#ffffff;fill-opacity:1;fill-rule:nonzero;stroke:none"
     id="path3566" />
</svg>
