<?xml version="1.0" encoding="UTF-8" standalone="no"?>
<svg
   xmlns:dc="http://purl.org/dc/elements/1.1/"
   xmlns:cc="http://creativecommons.org/ns#"
   xmlns:rdf="http://www.w3.org/1999/02/22-rdf-syntax-ns#"
   xmlns:svg="http://www.w3.org/2000/svg"
   xmlns="http://www.w3.org/2000/svg"
   xmlns:sodipodi="http://sodipodi.sourceforge.net/DTD/sodipodi-0.dtd"
   xmlns:inkscape="http://www.inkscape.org/namespaces/inkscape"
   width="90.797241"
   height="270.79724"
   viewBox="0 0 256.24999 764.24997"
   version="1.1"
   id="svg2"
   inkscape:version="0.48.2 r9819"
   sodipodi:docname="MUTCD D10-3a.svg">
  <metadata
     id="metadata62">
    <rdf:RDF>
      <cc:Work
         rdf:about="">
        <dc:format>image/svg+xml</dc:format>
        <dc:type
           rdf:resource="http://purl.org/dc/dcmitype/StillImage" />
        <dc:title></dc:title>
      </cc:Work>
    </rdf:RDF>
  </metadata>
  <defs
     id="defs60" />
  <sodipodi:namedview
     pagecolor="#ffffff"
     bordercolor="#666666"
     borderopacity="1"
     objecttolerance="10"
     gridtolerance="10"
     guidetolerance="10"
     inkscape:pageopacity="0"
     inkscape:pageshadow="2"
     inkscape:window-width="1280"
     inkscape:window-height="1004"
     id="namedview58"
     showgrid="false"
     fit-margin-top="0"
     fit-margin-left="0"
     fit-margin-right="0"
     fit-margin-bottom="0"
     inkscape:zoom="2.9670668"
     inkscape:cx="64.324349"
     inkscape:cy="141.99466"
     inkscape:window-x="-8"
     inkscape:window-y="-8"
     inkscape:window-maximized="1"
     inkscape:current-layer="svg2"
     showguides="true"
     inkscape:guide-bbox="true" />
  <polygon
     points="235,375 315,205 395,375 315,545 "
     id="polygon10"
     style="fill:none;stroke:#ffffff;stroke-width:40"
     transform="translate(-13322.375,22611.562)" />
  <!-- draw the bicycle -->
  <!-- RIGHT -->
  <!-- LANE -->
  <!-- ONLY -->
  <path
     inkscape:connector-curvature="0"
     d="m 23.70865,1.1330216 208.8444,0 c 12.4319,0 22.5778,10.1423604 22.5778,22.5777804 l 0,716.833868 c 0,12.43189 -10.1459,22.57778 -22.5778,22.57778 l -208.8444,0 c -12.4319,0 -22.5743,-10.14589 -22.5743,-22.57778 l 0,-716.833868 c 0,-12.43542 10.1424,-22.5777804 22.5743,-22.5777804"
     style="fill:#ffffff;fill-opacity:1;fill-rule:nonzero;stroke:#000000;stroke-width:2.25777769;stroke-miterlimit:4;stroke-opacity:1;stroke-dasharray:none"
     id="path5067" />
  <path
     inkscape:connector-curvature="0"
     d="m 23.78095,6.7795816 124.5729,0 71.0353,0 c 10.4281,0 22.9447,-1.72156 28.4233,9.6167204 2.4165,5.00592 1.6686,11.33475 1.6686,16.75694 l 0,34.1242 0,124.731638 0,167.99279 0,172.80467 0,139.14614 0,67.056 c 0,9.8425 -6.6357,18.46792 -17.0779,18.46792 l -43.3776,0 -153.9311,0 c -10.5127,0 -22.8211,1.04775 -27.2873,-11.12662 -1.7851,-4.86833 -1.0266,-11.06311 -1.0266,-16.15722 l 0,-90.30758 0,-152.02253 0,-175.29175 0,-160.10821 0,-106.457748 0,-20.75392 c 0,-9.76841 6.5864,-18.4926104 17.0004,-18.4714404"
     style="fill:#00674c;fill-opacity:1;fill-rule:evenodd;stroke:none"
     id="path5091" />
  <path
     inkscape:connector-curvature="0"
     d="m 230.09695,523.14641 -43.053,0 0,-84.61375 39.7863,0 0,11.87803 -27.6084,0 0,21.37833 17.5119,0 0,11.58169 -17.5119,0 0,27.90826 30.8751,0 0,11.86744 z m -54.9239,0 -43.0495,0 0,-84.61375 12.1708,0 0,73.33544 30.8787,0 0,11.27831 z m -61.7079,0 -11.871,0 0,-84.61375 11.871,0 0,84.61375 z m -30.3319,0 -12.1708,0 0,-47.498 -15.7374,47.498 -15.7339,-47.498 0,47.498 -12.1708,0 0,-84.61375 12.1708,0 15.7339,47.51211 15.7374,-47.51211 12.1708,0 0,84.61375 z"
     style="fill:#ffffff;fill-opacity:1;fill-rule:evenodd;stroke:none"
     id="path5095" />
  <path
     inkscape:connector-curvature="0"
     d="m 201.35475,635.76366 c 0,8.30792 1.5805,43.54336 -11.0878,43.54336 -13.0633,0 -11.8745,-35.62703 -11.8745,-43.54336 0,-7.92339 -1.1888,-43.14825 11.8745,-43.54689 13.0634,0.39864 11.0878,35.6235 11.0878,43.54689 m 15.0389,0 c 0,-19.79789 1.584,-58.19422 -26.1267,-58.19422 -26.1267,0 -26.5218,38.39633 -26.5218,58.19422 0,19.00061 -1.584,58.25772 26.5218,58.25772 27.7107,0 25.7316,-39.25711 26.1267,-58.25772 m -85.1076,21.76639 c 0,7.12964 -1.1889,15.04597 -2.3742,17.81528 -1.584,2.77636 -3.9582,4.3568 -7.1296,4.3568 -2.3742,0 -4.7484,-1.58044 -6.3324,-3.55952 -2.3777,-2.77284 -3.1644,-8.3185 -3.1644,-16.62995 0,-13.462 2.7693,-19.39572 9.4968,-19.39572 6.3359,0 9.5038,5.53861 9.5038,17.41311 m 14.6438,1.98261 c 0,-10.29405 -2.7693,-20.193 -6.3324,-25.72808 -4.3532,-7.12964 -11.8745,-10.6927 -20.5845,-7.91281 5.9407,-14.65791 14.2522,-25.73866 26.9169,-36.03272 l -7.9128,-12.26961 c -26.9205,21.37833 -40.3789,49.48414 -40.3789,83.12855 0,21.77345 8.3149,33.72203 23.7525,33.72203 5.9372,0 11.4794,-1.98261 15.4375,-5.61622 5.9373,-5.14703 9.1017,-15.82914 9.1017,-29.29114 m -57.3934,-55.8165 c 0,-15.44108 -9.899,-26.12672 -24.1512,-26.12672 -13.8571,0 -23.7525,9.89894 -24.5427,23.749 l 14.6438,0 c 0.3951,-5.53861 4.3568,-9.50031 9.8989,-9.50031 5.9373,0 9.5003,4.36034 9.5003,11.87803 0,5.54567 -2.3777,10.68564 -9.8954,20.9797 -18.2104,24.15116 -23.7525,39.98383 -24.1476,67.76155 l 46.7077,0 0,-14.71436 -30.48,0 c 0.3987,-5.54567 1.1889,-9.50031 3.168,-13.86064 3.563,-8.70303 10.294,-20.57753 17.025,-31.27022 10.287,-15.03539 12.2732,-20.18242 12.2732,-28.89603"
     style="fill:#ffffff;fill-opacity:1;fill-rule:evenodd;stroke:none"
     id="path5099" />
  <path
     inkscape:connector-curvature="0"
     d="m 126.92325,381.7178 c -8.2056,-9.83192 -20.5352,-15.82561 -33.3657,-15.82561 l -3.3161,0 -4.5614,0 c -27.8483,0 -50.5531,-22.71184 -50.5531,-50.55659 0,-17.2085 10.9855,-29.845 10.9855,-47.63912 0,-12.1038 -4.1099,-24.66269 -11.1866,-34.25119 l 36.4279,-35.00967 c 7.4965,6.32884 17.5824,10.33639 27.5801,10.33639 10.1635,0 20.4929,-3.83117 27.9894,-10.49514 7.5001,6.66397 17.8294,10.49514 27.9965,10.49514 9.9941,0 20.0801,-4.00755 27.5766,-10.33639 l 36.4278,35.00967 c -7.0767,9.5885 -11.1866,22.14739 -11.1866,34.25119 0,17.79412 10.9891,30.43062 10.9891,47.63912 0,27.84475 -22.7083,50.55659 -50.5531,50.55659 l -4.5649,0 -3.3161,0 c -12.8306,0 -25.1602,5.99369 -33.3693,15.82561"
     style="fill:#ffffff;fill-opacity:1;fill-rule:evenodd;stroke:none"
     id="path5103" />
  <path
     inkscape:connector-curvature="0"
     d="m 96.67715,56.423172 -9.7966,84.613758 -9.2075,0 -8.0116,-47.498008 -7.7223,47.498008 -9.2005,0 -9.8001,-84.613758 10.9855,0 4.4556,39.18656 6.8227,-39.18656 9.2075,0 6.8227,39.18656 4.4591,-39.18656 10.9855,0 z"
     style="fill:#ffffff;fill-opacity:1;fill-rule:evenodd;stroke:none"
     id="path5111" />
  <path
     inkscape:connector-curvature="0"
     d="m 134.60605,139.80328 -26.9699,0 0,-70.527338 25.9786,0 0,9.15458 -17.0744,0 0,18.06575 11.3841,0 0,9.405058 -11.3841,0 0,24.74384 18.0657,0 0,9.15811 z"
     style="fill:#ffffff;fill-opacity:1;fill-rule:evenodd;stroke:none"
     id="path5115" />
  <path
     inkscape:connector-curvature="0"
     d="m 171.97155,124.70684 c 0,5.44337 -1.8944,9.81781 -5.6903,13.11628 -2.3142,2.14842 -5.3622,3.21381 -9.1546,3.21381 -10.0647,0 -15.2611,-6.26886 -15.5927,-18.80306 l 9.1545,0 c 0,2.14136 0.254,3.8735 0.7444,5.19642 0.8255,2.96686 2.7234,4.45205 5.6938,4.45205 3.7924,0 5.6903,-2.39183 5.6903,-7.1755 0,-5.77497 -2.5541,-11.71222 -7.6729,-17.81527 l -6.1877,-7.422448 c -3.7888,-4.62139 -5.6868,-9.48972 -5.6868,-14.605 0,-4.94947 1.3582,-8.94997 4.0817,-12.0015 2.7199,-3.05153 6.1418,-4.57553 10.2658,-4.57553 8.576,0 13.3632,5.5245 14.3545,16.57703 l -9.1546,0 c -0.1658,-5.11175 -1.8168,-7.66939 -4.9494,-7.66939 -3.6301,0 -5.4434,2.55764 -5.4434,7.66939 0,2.97391 1.6475,6.18772 4.9495,9.652 5.7749,6.434658 9.4826,11.384138 11.1301,14.844888 2.3142,4.953 3.4678,10.06828 3.4678,15.34583"
     style="fill:#ffffff;fill-opacity:1;fill-rule:evenodd;stroke:none"
     id="path5119" />
  <path
     inkscape:connector-curvature="0"
     d="m 204.39155,78.430522 -9.1617,0 0,61.372758 -8.9076,0 0,-61.372758 -8.6607,0 0,-9.15458 26.73,0 0,9.15458 z"
     style="fill:#ffffff;fill-opacity:1;fill-rule:evenodd;stroke:none"
     id="path5123" />
  <path
     inkscape:connector-curvature="0"
     d="m 181.40765,334.31857 -64.4842,0 c 0.2187,-10.41753 2.8786,-20.05542 7.9727,-28.91014 3.9935,-7.09789 9.5321,-13.19389 16.6229,-18.29153 1.1113,-0.65969 2.5506,-1.66158 4.3216,-2.98802 l 4.9847,-2.65995 4.6532,-2.65289 4.6566,-2.667 c 4.2087,-2.43064 6.3147,-5.86316 6.3147,-10.30464 0,-3.54189 -1.718,-6.53344 -5.1505,-8.97114 -3.4361,-2.43769 -7.4789,-3.65477 -12.1356,-3.65477 -9.973,0 -15.7303,4.43441 -17.2826,13.29266 l -14.9577,-3.31964 c 3.5489,-16.84513 14.291,-25.26241 32.2403,-25.26241 8.8653,0 16.4536,2.7693 22.7683,8.30791 6.3147,5.54214 9.4756,12.18848 9.4756,19.94606 0,9.74725 -4.5438,17.39194 -13.6278,22.93408 l -4.6567,2.99156 -4.9847,2.65642 -4.6531,2.65641 c -8.1986,4.87892 -14.404,12.08264 -18.6091,21.61117 l 46.5314,0 0,15.28586 z m -85.0371,0 -15.2894,0 0,-76.78208 -8.643,0 0,-11.9627 0.9948,0 c 4.4344,0 8.0892,-1.99319 10.9714,-5.98664 l 11.9662,0 0,94.73142 z"
     style="fill:#000000;fill-opacity:1;fill-rule:evenodd;stroke:none"
     id="path5107" />
</svg>
