<?xml version="1.0" encoding="UTF-8" standalone="no"?>
<svg
   xmlns:dc="http://purl.org/dc/elements/1.1/"
   xmlns:cc="http://creativecommons.org/ns#"
   xmlns:rdf="http://www.w3.org/1999/02/22-rdf-syntax-ns#"
   xmlns:svg="http://www.w3.org/2000/svg"
   xmlns="http://www.w3.org/2000/svg"
   xmlns:sodipodi="http://sodipodi.sourceforge.net/DTD/sodipodi-0.dtd"
   xmlns:inkscape="http://www.inkscape.org/namespaces/inkscape"
   width="65.595474"
   height="260.00122"
   viewBox="0 0 185.12501 733.7812"
   version="1.1"
   id="svg2"
   inkscape:version="0.48.2 r9819"
   sodipodi:docname="MUTCD D10-2.svg">
  <metadata
     id="metadata62">
    <rdf:RDF>
      <cc:Work
         rdf:about="">
        <dc:format>image/svg+xml</dc:format>
        <dc:type
           rdf:resource="http://purl.org/dc/dcmitype/StillImage" />
        <dc:title></dc:title>
      </cc:Work>
    </rdf:RDF>
  </metadata>
  <defs
     id="defs60" />
  <sodipodi:namedview
     pagecolor="#ffffff"
     bordercolor="#666666"
     borderopacity="1"
     objecttolerance="10"
     gridtolerance="10"
     guidetolerance="10"
     inkscape:pageopacity="0"
     inkscape:pageshadow="2"
     inkscape:window-width="1280"
     inkscape:window-height="1004"
     id="namedview58"
     showgrid="false"
     fit-margin-top="0"
     fit-margin-left="0"
     fit-margin-right="0"
     fit-margin-bottom="0"
     inkscape:zoom="1.9352079"
     inkscape:cx="41.121673"
     inkscape:cy="144.66761"
     inkscape:window-x="-8"
     inkscape:window-y="-8"
     inkscape:window-maximized="1"
     inkscape:current-layer="svg2"
     showguides="true"
     inkscape:guide-bbox="true" />
  <polygon
     points="235,375 315,205 395,375 315,545 "
     id="polygon10"
     style="fill:none;stroke:#ffffff;stroke-width:40"
     transform="translate(-7470.3437,20085.188)" />
  <!-- draw the bicycle -->
  <!-- RIGHT -->
  <!-- LANE -->
  <!-- ONLY -->
  <path
     inkscape:connector-curvature="0"
     d="m 25.49725,1.1237827 134.1155,0 c 13.4303,0 24.384,10.9537003 24.384,24.3840003 l 0,682.755497 c 0,13.4268 -10.9537,24.3805 -24.384,24.3805 l -134.1155,0 c -13.4267,0 -24.3805,-10.9537 -24.3805,-24.3805 l 0,-682.755497 c 0,-13.2574 11.1231,-24.3840003 24.3805,-24.3840003"
     style="fill:#ffffff;fill-opacity:1;fill-rule:nonzero;stroke:#000000;stroke-width:2.25777793;stroke-miterlimit:4;stroke-opacity:1;stroke-dasharray:none"
     id="path3306" />
  <path
     inkscape:connector-curvature="0"
     d="m 159.53515,7.2214827 c 9.7367,0.247 17.593,7.5283003 18.3409,17.3426003 l 0.025,683.619897 c -0.2504,9.7331 -7.5247,17.593 -17.346,18.3444 l -134.9728,0.025 c -9.7402,-0.2512 -17.5966,-7.5219 -18.341,-17.3468 L 7.21325,25.583183 c 0.247,-9.7366 7.5283,-17.5789003 17.3461,-18.3374003 l 134.9763,-0.025"
     style="fill:#00674c;fill-opacity:1;fill-rule:evenodd;stroke:none"
     id="path3330" />
  <path
     inkscape:connector-curvature="0"
     d="m 152.19705,107.69088 0,-7.905797 -15.5999,0 0,-21.3818 9.832,0 0,-8.121 -9.832,0 0,-15.6033 14.7497,0 0,-7.9164 -22.4473,0 0,60.928297 23.2975,0 z m -31.6301,0 0,-7.0556 -15.6104,0 0,-53.872697 -7.6976,0 0,60.928297 23.308,0 z m -36.5619,-60.928297 -7.6941,0 0,60.928297 7.6941,0 0,-60.928297 z m -20.9515,60.928297 0,-60.928297 -7.694,0 -7.2673,21.5971 -7.4824,-21.5971 -7.6941,0 0,60.928297 7.6941,0 0,-36.124497 7.4824,22.8741 7.2673,-22.8741 0,36.124497 7.694,0 z"
     style="fill:#ffffff;fill-opacity:1;fill-rule:evenodd;stroke:none"
     id="path3334" />
  <path
     inkscape:connector-curvature="0"
     d="m 111.01375,379.90588 -43.3317,57.0759 43.3317,0 0,-57.0759 z m 24.0665,78.9411 0,37.8707 -24.0665,0 0,-37.8707 -75.4239,0 0,-14.4004 75.4239,-99.7479 24.0665,0 0,92.2831 14.4462,0 0,21.8652 -14.4462,0 z"
     style="fill:#ffffff;fill-opacity:1;fill-rule:nonzero;stroke:none"
     id="path3338" />
  <path
     inkscape:connector-curvature="0"
     d="m 111.01375,189.06398 -43.3317,57.0759 43.3317,0 0,-57.0759 z m 24.0665,78.9482 0,37.8671 -24.0665,0 0,-37.8671 -75.4239,0 0,-14.4075 75.4239,-99.7444 24.0665,0 0,92.2796 14.4462,0 0,21.8723 -14.4462,0 z"
     style="fill:#ffffff;fill-opacity:1;fill-rule:nonzero;stroke:none"
     id="path3342" />
  <path
     inkscape:connector-curvature="0"
     d="m 111.01375,570.33528 -43.3317,57.0724 43.3317,0 0,-57.0724 z m 24.0665,78.9411 0,37.8742 -24.0665,0 0,-37.8742 -75.4239,0 0,-14.3968 75.4239,-99.7444 24.0665,0 0,92.2725 14.4462,0 0,21.8687 -14.4462,0 z"
     style="fill:#ffffff;fill-opacity:1;fill-rule:nonzero;stroke:none"
     id="path3346" />
</svg>
