<?xml version="1.0" encoding="UTF-8" standalone="no"?>
<svg
   xmlns:dc="http://purl.org/dc/elements/1.1/"
   xmlns:cc="http://creativecommons.org/ns#"
   xmlns:rdf="http://www.w3.org/1999/02/22-rdf-syntax-ns#"
   xmlns:svg="http://www.w3.org/2000/svg"
   xmlns="http://www.w3.org/2000/svg"
   xmlns:sodipodi="http://sodipodi.sourceforge.net/DTD/sodipodi-0.dtd"
   xmlns:inkscape="http://www.inkscape.org/namespaces/inkscape"
   width="90.797241"
   height="300.79355"
   viewBox="0 0 256.24999 848.90621"
   version="1.1"
   id="svg2"
   inkscape:version="0.48.2 r9819"
   sodipodi:docname="MUTCD D10-4.svg">
  <metadata
     id="metadata62">
    <rdf:RDF>
      <cc:Work
         rdf:about="">
        <dc:format>image/svg+xml</dc:format>
        <dc:type
           rdf:resource="http://purl.org/dc/dcmitype/StillImage" />
        <dc:title></dc:title>
      </cc:Work>
    </rdf:RDF>
  </metadata>
  <defs
     id="defs60" />
  <sodipodi:namedview
     pagecolor="#ffffff"
     bordercolor="#666666"
     borderopacity="1"
     objecttolerance="10"
     gridtolerance="10"
     guidetolerance="10"
     inkscape:pageopacity="0"
     inkscape:pageshadow="2"
     inkscape:window-width="1280"
     inkscape:window-height="1004"
     id="namedview58"
     showgrid="false"
     fit-margin-top="0"
     fit-margin-left="0"
     fit-margin-right="0"
     fit-margin-bottom="0"
     inkscape:zoom="2.0980331"
     inkscape:cx="28.135448"
     inkscape:cy="92.8629"
     inkscape:window-x="-8"
     inkscape:window-y="-8"
     inkscape:window-maximized="1"
     inkscape:current-layer="svg2"
     showguides="true"
     inkscape:guide-bbox="true" />
  <polygon
     points="315,545 235,375 315,205 395,375 "
     id="polygon10"
     style="fill:none;stroke:#ffffff;stroke-width:40"
     transform="translate(-14936.313,23440.749)" />
  <!-- draw the bicycle -->
  <!-- RIGHT -->
  <!-- LANE -->
  <!-- ONLY -->
  <path
     inkscape:connector-curvature="0"
     d="m 23.7352,1.1174618 208.7845,0 c 12.4425,0 22.606,10.1635302 22.606,22.6060002 l 0,801.599298 c 0,12.44247 -10.1635,22.46136 -22.606,22.46136 l -208.7845,0 c -12.446,0 -22.6095,-10.01889 -22.6095,-22.46136 l 0,-801.599298 c 0,-12.44247 10.1635,-22.6060002 22.6095,-22.6060002"
     style="fill:#ffffff;fill-opacity:1;fill-rule:evenodd;stroke:#000000;stroke-width:2.25777769;stroke-miterlimit:4;stroke-opacity:1;stroke-dasharray:none"
     id="path5127" />
  <path
     inkscape:connector-curvature="0"
     d="m 23.8869,6.8794018 208.4811,0 c 9.4051,0 17.145,7.5882502 17.145,16.9933002 l 0,644.405048 -242.7746,0 0,-644.405048 c 0,-9.40505 7.74,-16.9933002 17.1485,-16.9933002"
     style="fill:#00674c;fill-opacity:1;fill-rule:evenodd;stroke:none"
     id="path5151" />
  <path
     inkscape:connector-curvature="0"
     d="m 249.513,674.04036 0,151.13001 c 0,9.26041 -7.7399,16.99683 -17.145,16.99683 l -208.4811,0 c -9.4085,0 -17.1485,-7.73642 -17.1485,-16.99683 l 0,-151.13001 242.7746,0 z"
     style="fill:#00674c;fill-opacity:1;fill-rule:evenodd;stroke:none"
     id="path5167" />
  <path
     inkscape:connector-curvature="0"
     d="m 70.9475,499.0908 0,-47.48741 -15.7304,47.48741 -15.7303,-47.48741 0,47.48741 -12.1673,0 0,-84.58905 12.1673,0 15.7303,47.48742 15.7304,-47.48742 12.1708,0 0,84.58905 -12.1708,0 z"
     style="fill:#ffffff;fill-opacity:1;fill-rule:evenodd;stroke:none"
     id="path5171" />
  <path
     inkscape:connector-curvature="0"
     d="m 101.515,414.5 11.8745,0 0,84.58905 -11.8745,0 0,-84.58905 z"
     style="fill:#ffffff;fill-opacity:1;fill-rule:evenodd;stroke:none"
     id="path5173" />
  <path
     inkscape:connector-curvature="0"
     d="m 132.0874,499.0908 0,-84.58905 12.1673,0 0,73.31075 30.8681,0 0,11.2783 -43.0354,0 z"
     style="fill:#ffffff;fill-opacity:1;fill-rule:evenodd;stroke:none"
     id="path5177" />
  <path
     inkscape:connector-curvature="0"
     d="m 186.9937,499.0908 0,-84.58905 39.7687,0 0,11.8745 -27.6013,0 0,21.36775 17.5118,0 0,11.57464 -17.5118,0 0,27.90119 30.8645,0 0,11.87097 -43.0319,0 z"
     style="fill:#ffffff;fill-opacity:1;fill-rule:evenodd;stroke:none"
     id="path5181" />
  <path
     inkscape:connector-curvature="0"
     d="m 79.5271,816.3439 c -4.752,0 -9.1052,-4.35328 -9.1052,-9.10167 0,-4.75192 4.3532,-9.10872 9.1052,-9.10872 4.7519,0 9.1051,4.3568 9.1051,9.10872 0,4.74839 -4.3532,9.10167 -9.1051,9.10167"
     style="fill:#ffffff;fill-opacity:1;fill-rule:evenodd;stroke:none"
     id="path5185" />
  <path
     inkscape:connector-curvature="0"
     d="m 99.7169,815.1582 c 0.7867,-15.44109 1.9755,-20.98323 5.5386,-30.87864 4.7519,-11.87803 10.6891,-20.98322 18.2104,-28.10934 2.7728,-2.37419 5.147,-4.35327 14.2522,-10.68563 7.5212,-5.14703 9.5038,-7.91987 9.5038,-13.462 0,-8.7101 -7.1296,-15.83621 -15.8397,-15.83621 -8.7066,0 -15.8327,7.12611 -15.8327,15.83621 l -15.8326,0 c 0.3915,-17.81529 13.85,-31.66888 31.6653,-31.66888 17.4202,0 31.2773,14.25223 31.2773,31.66888 0,9.10519 -3.168,16.2313 -9.5039,22.16855 -1.1853,0.79375 -2.3742,1.58397 -3.563,2.77283 l -3.9582,2.76931 -3.9581,2.77283 -4.3533,3.16442 c -7.1261,5.14703 -14.6474,15.44108 -17.8153,24.94139 -1.1889,2.77283 -1.584,4.75192 -2.3742,8.71008 l 45.526,0 0,15.8362 -62.9426,0 z"
     style="fill:#ffffff;fill-opacity:1;fill-rule:evenodd;stroke:none"
     id="path5189" />
  <path
     inkscape:connector-curvature="0"
     d="m 73.6462,580.62128 c -6.6886,10.62919 -13.3808,22.43666 -16.9227,31.09736 -1.9685,4.32858 -2.7552,8.26205 -3.1468,13.77597 l 30.3036,0 0,14.56267 -46.4432,0 c 0.3951,-27.55195 5.902,-43.29642 24.0101,-67.30648 7.4789,-10.23408 9.839,-15.34936 9.839,-20.85975 0,-7.47888 -3.5419,-11.80747 -9.4474,-11.80747 -5.5069,0 -9.4439,3.93347 -9.839,9.44386 l -14.5627,0 c 0.7867,-13.77597 10.6257,-23.61494 24.4017,-23.61494 14.1711,0 24.01,10.62567 24.01,25.97855 0,8.65717 -1.9685,13.77598 -12.2026,28.73023"
     style="fill:#ffffff;fill-opacity:1;fill-rule:evenodd;stroke:none"
     id="path5193" />
  <path
     inkscape:connector-curvature="0"
     d="m 142.9177,607.38655 c 0,-10.23055 -2.7552,-20.07305 -6.2971,-25.58344 -4.3321,-7.08378 -11.811,-10.62919 -20.4682,-7.87047 5.9055,-14.56267 14.1711,-25.58345 26.7653,-35.82106 l -7.874,-12.19905 c -26.7653,21.25486 -40.1461,49.20191 -40.1461,82.65583 0,21.64997 8.2656,33.45744 23.6149,33.45744 5.9055,0 11.4159,-1.9685 15.3494,-5.51038 5.9055,-5.11881 9.0558,-15.74448 9.0558,-29.12887 m -14.5627,-1.96497 c 0,7.08378 -1.1818,14.95425 -2.3636,17.70945 -1.5734,2.75519 -3.9335,4.33211 -7.0838,4.33211 -2.3636,0 -4.7237,-1.57692 -6.297,-3.54189 -2.3637,-2.75872 -3.1504,-8.26911 -3.1504,-16.5347 0,-13.38086 2.7552,-19.28636 9.4474,-19.28636 6.2971,0 9.4474,5.51039 9.4474,17.32139"
     style="fill:#ffffff;fill-opacity:1;fill-rule:evenodd;stroke:none"
     id="path5197" />
  <path
     inkscape:connector-curvature="0"
     d="m 213.3674,583.77158 c 0,-19.67794 1.5734,-57.85908 -25.9785,-57.85908 -25.9786,0 -26.3702,38.18114 -26.3702,57.85908 0,18.89125 -1.5769,57.85908 26.3702,57.85908 27.5519,0 25.5834,-38.96783 25.9785,-57.85908 m -14.9578,0 c 0,8.26559 1.577,43.29642 -11.0207,43.29642 -12.9858,0 -11.8075,-35.42595 -11.8075,-43.29642 0,-7.874 -1.1783,-42.9013 11.8075,-43.29641 12.9892,0.39511 11.0207,35.42241 11.0207,43.29641"
     style="fill:#ffffff;fill-opacity:1;fill-rule:evenodd;stroke:none"
     id="path5201" />
  <path
     inkscape:connector-curvature="0"
     d="M 128.4291,381.70047 C 120.22,371.87208 107.8939,365.87839 95.0634,365.87839 l -3.3161,0 -4.565,0 c -27.8447,0 -50.5495,-22.71536 -50.5495,-50.55658 0,-17.2085 10.9855,-29.845 10.9855,-47.63911 0,-12.10734 -4.1099,-24.6627 -11.1901,-34.2512 L 72.856,198.42183 c 7.5001,6.32884 17.5895,10.33639 27.5802,10.33639 10.167,0 20.4964,-3.83116 27.9929,-10.49866 7.5001,6.6675 17.8294,10.49866 27.9965,10.49866 9.9906,0 20.0765,-4.00755 27.5731,-10.33639 L 220.43,233.4315 c -7.0767,9.5885 -11.183,22.14386 -11.183,34.2512 0,17.79411 10.9819,30.43061 10.9819,47.63911 0,27.84122 -22.7047,50.55658 -50.5495,50.55658 l -4.5614,0 -3.3232,0 c -12.827,0 -25.153,5.99369 -33.3657,15.82208"
     style="fill:#ffffff;fill-opacity:1;fill-rule:evenodd;stroke:none"
     id="path5205" />
  <path
     inkscape:connector-curvature="0"
     d="m 101.7203,54.528382 -9.7966,84.613748 -9.2075,0 -8.0116,-47.501518 -7.7188,47.501518 -9.204,0 -9.7966,-84.613748 10.982,0 4.4591,39.18656 6.8192,-39.18656 9.2075,0 6.8262,39.18656 4.4591,-39.18656 10.982,0 z"
     style="fill:#ffffff;fill-opacity:1;fill-rule:evenodd;stroke:none"
     id="path5213" />
  <path
     inkscape:connector-curvature="0"
     d="m 139.651,137.90848 -26.9699,0 0,-70.527328 25.9786,0 0,9.15458 -17.0745,0 0,18.06575 11.3842,0 0,9.405058 -11.3842,0 0,24.74383 18.0658,0 0,9.15811 z"
     style="fill:#ffffff;fill-opacity:1;fill-rule:evenodd;stroke:none"
     id="path5217" />
  <path
     inkscape:connector-curvature="0"
     d="m 177.0172,122.81205 c 0,5.44336 -1.8944,9.8178 -5.6903,13.11627 -2.3142,2.14842 -5.3622,3.21381 -9.1546,3.21381 -10.0647,0 -15.2612,-6.26533 -15.5928,-18.80306 l 9.1546,0 c 0,2.14137 0.254,3.8735 0.7444,5.19642 0.8255,2.96686 2.7234,4.45206 5.6938,4.45206 3.7924,0 5.6903,-2.39184 5.6903,-7.1755 0,-5.77498 -2.5541,-11.71223 -7.6729,-17.81528 l -6.1877,-7.422438 c -3.7889,-4.62139 -5.6903,-9.48972 -5.6903,-14.60147 0,-4.953 1.3617,-8.9535 4.0816,-12.00503 2.7234,-3.05153 6.1454,-4.57553 10.2694,-4.57553 8.576,0 13.3632,5.5245 14.3545,16.58056 l -9.1546,0 c -0.1693,-5.11528 -1.8168,-7.67292 -4.9495,-7.67292 -3.6336,0 -5.4433,2.55764 -5.4433,7.67292 0,2.97039 1.6474,6.18419 4.9459,9.64847 5.7785,6.43467 9.4862,11.384138 11.1337,14.844878 2.3142,4.953 3.4678,10.06828 3.4678,15.34584"
     style="fill:#ffffff;fill-opacity:1;fill-rule:evenodd;stroke:none"
     id="path5221" />
  <path
     inkscape:connector-curvature="0"
     d="m 209.4339,76.535712 -9.1545,0 0,61.372738 -8.9112,0 0,-61.372738 -8.6607,0 0,-9.15459 26.7264,0 0,9.15459 z"
     style="fill:#ffffff;fill-opacity:1;fill-rule:evenodd;stroke:none"
     id="path5225" />
  <path
     inkscape:connector-curvature="0"
     d="m 182.9124,334.30128 -64.4842,0 c 0.2222,-10.41752 2.8822,-20.05189 7.9763,-28.91014 3.9899,-7.09788 9.525,-13.19036 16.6194,-18.288 1.1112,-0.66322 2.5541,-1.66158 4.325,-2.98802 l 4.9848,-2.66348 4.6531,-2.65288 4.6531,-2.667 c 4.2122,-2.42712 6.3148,-5.86317 6.3148,-10.30464 0,-3.54189 -1.7216,-6.52992 -5.1506,-8.97114 -3.436,-2.43417 -7.4789,-3.65478 -12.132,-3.65478 -9.973,0 -15.7374,4.43442 -17.2826,13.29619 l -14.9613,-3.32316 c 3.5489,-16.84161 14.2946,-25.26242 32.2439,-25.26242 8.8653,0 16.4535,2.76931 22.7647,8.31145 6.3183,5.53861 9.4756,12.18847 9.4756,19.94252 0,9.75078 -4.5473,17.39548 -13.6313,22.93409 l -4.6496,2.99508 -4.9883,2.65642 -4.6531,2.65289 c -8.1986,4.87891 -14.4039,12.08263 -18.6161,21.61116 l 46.5384,0 0,15.28586 z m -85.037,0 -15.2859,0 0,-76.77855 -8.6431,0 0,-11.96622 0.9949,0 c 4.4309,0 8.0892,-1.98967 10.9714,-5.98312 l 11.9627,0 0,94.72789 z"
     style="fill:#000000;fill-opacity:1;fill-rule:evenodd;stroke:none"
     id="path5209" />
</svg>
