<?xml version="1.0" encoding="UTF-8" standalone="no"?>
<svg
   xmlns:dc="http://purl.org/dc/elements/1.1/"
   xmlns:cc="http://creativecommons.org/ns#"
   xmlns:rdf="http://www.w3.org/1999/02/22-rdf-syntax-ns#"
   xmlns:svg="http://www.w3.org/2000/svg"
   xmlns="http://www.w3.org/2000/svg"
   xmlns:sodipodi="http://sodipodi.sourceforge.net/DTD/sodipodi-0.dtd"
   xmlns:inkscape="http://www.inkscape.org/namespaces/inkscape"
   width="65.595474"
   height="195.25842"
   viewBox="0 0 185.12501 551.06264"
   version="1.1"
   id="svg2"
   inkscape:version="0.48.2 r9819"
   sodipodi:docname="MUTCD D10-1.svg">
  <metadata
     id="metadata62">
    <rdf:RDF>
      <cc:Work
         rdf:about="">
        <dc:format>image/svg+xml</dc:format>
        <dc:type
           rdf:resource="http://purl.org/dc/dcmitype/StillImage" />
        <dc:title></dc:title>
      </cc:Work>
    </rdf:RDF>
  </metadata>
  <defs
     id="defs60" />
  <sodipodi:namedview
     pagecolor="#ffffff"
     bordercolor="#666666"
     borderopacity="1"
     objecttolerance="10"
     gridtolerance="10"
     guidetolerance="10"
     inkscape:pageopacity="0"
     inkscape:pageshadow="2"
     inkscape:window-width="1280"
     inkscape:window-height="1004"
     id="namedview58"
     showgrid="false"
     fit-margin-top="0"
     fit-margin-left="0"
     fit-margin-right="0"
     fit-margin-bottom="0"
     inkscape:zoom="1.9352079"
     inkscape:cx="5.8093133"
     inkscape:cy="88.078817"
     inkscape:window-x="-8"
     inkscape:window-y="-8"
     inkscape:window-maximized="1"
     inkscape:current-layer="svg2"
     showguides="true"
     inkscape:guide-bbox="true" />
  <polygon
     points="315,205 395,375 315,545 235,375 "
     id="polygon10"
     style="fill:none;stroke:#ffffff;stroke-width:40"
     transform="translate(-5665.875,18211.438)" />
  <!-- draw the bicycle -->
  <!-- RIGHT -->
  <!-- LANE -->
  <!-- ONLY -->
  <path
     inkscape:connector-curvature="0"
     d="m 1.11415,25.528442 c 0,-13.2609 11.1196,-24.3840001 24.3805,-24.3840001 l 134.1156,0 c 13.2609,0 24.3804,11.1231001 24.3804,24.3840001 l 0,500.016598 c 0,13.3103 -11.1795,24.4334 -24.4792,24.3875 l -133.918,0 c -13.2997,0.046 -24.4793,-11.0772 -24.4793,-24.3875 l 0,-500.016598"
     style="fill:#ffffff;fill-opacity:1;fill-rule:nonzero;stroke:#000000;stroke-width:2.25777769;stroke-linecap:butt;stroke-linejoin:miter;stroke-miterlimit:4;stroke-opacity:1;stroke-dasharray:none"
     id="path3226" />
  <path
     inkscape:connector-curvature="0"
     d="m 7.30505,23.658042 c 1.2065,-9.3486 8.8124,-16.1749001 18.2739,-16.4183001 l 134.9693,0.028 c 9.7402,0.7373 17.0991,8.5337001 17.3496,18.3374001 l -0.028,500.880998 c -0.7232,9.7543 -8.5443,17.085 -18.3374,17.3531 l -134.9728,-0.025 c -9.7508,-0.7585 -17.0956,-8.5337 -17.3496,-18.3444 l 0.028,-500.884498 c 0.021,-0.3069 0.046,-0.6174 0.067,-0.9278"
     style="fill:#00674c;fill-opacity:1;fill-rule:evenodd;stroke:none"
     id="path3230" />
  <path
     inkscape:connector-curvature="0"
     d="m 152.19195,107.70694 0,-7.909298 -15.6033,0 0,-21.3783 9.8354,0 0,-8.1245 -9.8354,0 0,-15.6033 14.7461,0 0,-7.9093 -22.4402,0 0,60.924698 23.2974,0 z m -31.6371,0 0,-7.0591 -15.6033,0 0,-53.865598 -7.6976,0 0,60.924698 23.3009,0 z m -36.5548,-60.924698 -7.6976,0 0,60.924698 7.6976,0 0,-60.924698 z m -20.948,60.924698 0,-60.924698 -7.694,0 -7.2708,21.59 -7.4789,-21.59 -7.6941,0 0,60.924698 7.6941,0 0,-36.127998 7.4789,22.8706 7.2708,-22.8706 0,36.127998 7.694,0 z"
     style="fill:#ffffff;fill-opacity:1;fill-rule:evenodd;stroke:none"
     id="path3234" />
  <path
     inkscape:connector-curvature="0"
     d="m 111.00875,188.99044 -43.3282,57.0724 43.3282,0 0,-57.0724 z m 24.0665,78.9447 0,37.8707 -24.0665,0 0,-37.8707 -75.4239,0 0,-14.4004 75.4239,-99.748 24.0665,0 0,92.2761 14.4462,0 0,21.8723 -14.4462,0 z"
     style="fill:#ffffff;fill-opacity:1;fill-rule:nonzero;stroke:none"
     id="path3238" />
  <path
     inkscape:connector-curvature="0"
     d="m 111.00875,387.24104 -43.3282,57.0759 43.3282,0 0,-57.0759 z m 24.0665,78.9446 0,37.8707 -24.0665,0 0,-37.8707 -75.4239,0 0,-14.4004 75.4239,-99.7444 24.0665,0 0,92.2761 14.4462,0 0,21.8687 -14.4462,0 z"
     style="fill:#ffffff;fill-opacity:1;fill-rule:nonzero;stroke:none"
     id="path3242" />
</svg>
