<?xml version="1.0" encoding="UTF-8" standalone="no"?>
<svg
   xmlns:dc="http://purl.org/dc/elements/1.1/"
   xmlns:cc="http://creativecommons.org/ns#"
   xmlns:rdf="http://www.w3.org/1999/02/22-rdf-syntax-ns#"
   xmlns:svg="http://www.w3.org/2000/svg"
   xmlns="http://www.w3.org/2000/svg"
   xmlns:sodipodi="http://sodipodi.sourceforge.net/DTD/sodipodi-0.dtd"
   xmlns:inkscape="http://www.inkscape.org/namespaces/inkscape"
   width="65.606544"
   height="311.811"
   viewBox="0 0 185.15625 879.99992"
   version="1.1"
   id="svg2"
   inkscape:version="0.48.2 r9819"
   sodipodi:docname="MUTCD D10-2a.svg">
  <metadata
     id="metadata62">
    <rdf:RDF>
      <cc:Work
         rdf:about="">
        <dc:format>image/svg+xml</dc:format>
        <dc:type
           rdf:resource="http://purl.org/dc/dcmitype/StillImage" />
        <dc:title></dc:title>
      </cc:Work>
    </rdf:RDF>
  </metadata>
  <defs
     id="defs60" />
  <sodipodi:namedview
     pagecolor="#ffffff"
     bordercolor="#666666"
     borderopacity="1"
     objecttolerance="10"
     gridtolerance="10"
     guidetolerance="10"
     inkscape:pageopacity="0"
     inkscape:pageshadow="2"
     inkscape:window-width="1280"
     inkscape:window-height="1004"
     id="namedview58"
     showgrid="false"
     fit-margin-top="0"
     fit-margin-left="0"
     fit-margin-right="0"
     fit-margin-bottom="0"
     inkscape:zoom="1.4835334"
     inkscape:cx="31.713672"
     inkscape:cy="202.63533"
     inkscape:window-x="-8"
     inkscape:window-y="-8"
     inkscape:window-maximized="1"
     inkscape:current-layer="svg2"
     showguides="true"
     inkscape:guide-bbox="true" />
  <polygon
     points="315,205 395,375 315,545 235,375 "
     id="polygon10"
     style="fill:none;stroke:#ffffff;stroke-width:40"
     transform="translate(-12139.281,21979.468)" />
  <!-- draw the bicycle -->
  <!-- RIGHT -->
  <!-- LANE -->
  <!-- ONLY -->
  <path
     inkscape:connector-curvature="0"
     d="m 25.5195,1.1399988 134.112,0 c 13.4303,0 24.384,10.9502202 24.384,24.3840002 l 0,828.967831 c 0,13.42672 -10.9537,24.38047 -24.384,24.38047 l -134.112,0 c -13.4267,0 -24.384,-10.95375 -24.384,-24.38047 l 0,-828.967831 c 0,-13.25739 11.1231,-24.3840002 24.384,-24.3840002"
     style="fill:#ffffff;fill-opacity:1;fill-rule:nonzero;stroke:#000000;stroke-width:2.25777793;stroke-miterlimit:4;stroke-opacity:1;stroke-dasharray:none"
     id="path3370" />
  <path
     inkscape:connector-curvature="0"
     d="m 159.5543,7.2374388 c 9.7366,0.24694 17.6001,7.5282802 18.3444,17.3425602 l 0.021,829.828601 c -0.2505,9.73667 -7.5177,17.59303 -17.3461,18.34445 l -134.9692,0.0254 C 15.8606,872.5308 8.0043,865.25652 7.2634,855.43166 L 7.2354,25.599519 C 7.4824,15.862859 14.7602,8.0206088 24.578,7.2621288 l 134.9763,-0.0247"
     style="fill:#00674c;fill-opacity:1;fill-rule:evenodd;stroke:none"
     id="path3394" />
  <path
     inkscape:connector-curvature="0"
     d="m 4.748,659.79625 175.2282,0"
     style="fill:none;stroke:#ffffff;stroke-width:5.29166698;stroke-linecap:butt;stroke-linejoin:miter;stroke-miterlimit:4;stroke-opacity:1;stroke-dasharray:none"
     id="path3410" />
  <path
     inkscape:connector-curvature="0"
     d="m 164.1224,129.56452 0,-9.41564 -18.7396,0 0,-25.696331 11.7969,0 0,-9.78959 -11.7969,0 0,-18.65136 17.646,0 0,-9.50736 -26.8852,0 0,73.060281 27.9788,0 z m -38.04,0 0,-8.41022 -18.6514,0 0,-64.650061 -9.2322,0 0,73.060281 27.8836,0 z m -43.7057,-73.060281 -9.2322,0 0,73.060281 9.2322,0 0,-73.060281 z m -25.146,73.060281 0,-73.060281 -9.2357,0 -8.7771,25.87978 -8.9641,-25.87978 -9.2322,0 0,73.060281 9.2322,0 0,-43.342281 8.9641,27.428471 8.7771,-27.428471 0,43.342281 9.2357,0 z"
     style="fill:#ffffff;fill-opacity:1;fill-rule:evenodd;stroke:none"
     id="path3422" />
  <path
     inkscape:connector-curvature="0"
     d="m 97.0068,232.70723 -31.0903,0 31.0903,-41.148 0,41.148 z m 27.7036,15.82209 0,-15.82209 -10.4246,0 0,-66.56564 -17.279,0 -54.1303,71.95962 0,10.42811 54.1303,0 0,27.24855 17.279,0 0,-27.24855 10.4246,0 z"
     style="fill:#ffffff;fill-opacity:1;fill-rule:evenodd;stroke:none"
     id="path3426" />
  <path
     inkscape:connector-curvature="0"
     d="m 97.0068,396.93413 -31.0903,0 31.0903,-41.148 0,41.148 z m 27.7036,15.81855 0,-15.81855 -10.4246,0 0,-66.56564 -17.279,0 -54.1303,71.95961 0,10.42458 54.1303,0 0,27.25209 17.279,0 0,-27.25209 10.4246,0 z"
     style="fill:#ffffff;fill-opacity:1;fill-rule:evenodd;stroke:none"
     id="path3430" />
  <path
     inkscape:connector-curvature="0"
     d="m 97.0068,562.16816 -31.0903,0 31.0903,-41.148 0,41.148 z m 27.7036,15.81855 0,-15.81855 -10.4246,0 0,-66.56917 -17.279,0 -54.1303,71.96314 0,10.42458 54.1303,0 0,27.34028 17.279,0 0,-27.34028 10.4246,0 z"
     style="fill:#ffffff;fill-opacity:1;fill-rule:evenodd;stroke:none"
     id="path3434" />
  <path
     inkscape:connector-curvature="0"
     d="m 47.7198,815.45945 c 0,-5.39397 -4.2968,-9.69433 -9.6943,-9.69433 -5.394,0 -9.9625,4.30036 -9.9625,9.69433 0,5.39397 4.5685,10.05064 9.9625,10.05064 5.3975,0 9.6943,-4.65667 9.6943,-10.05064"
     style="fill:#ffffff;fill-opacity:1;fill-rule:evenodd;stroke:none"
     id="path3438" />
  <path
     inkscape:connector-curvature="0"
     d="m 137.2302,747.39803 c 0,-20.00956 -16.1643,-35.01672 -37.3239,-35.01672 -20.7786,0 -37.3239,14.62264 -37.3239,33.47508 0,18.47145 16.9298,33.47861 37.3239,33.47861 4.2298,0 6.925,-0.38805 13.0845,-1.54164 -6.544,14.23812 -13.4691,23.08931 -26.5536,33.47509 l 8.4667,14.62264 c 25.3965,-17.31434 42.3263,-48.47873 42.3263,-78.49306 m -17.3144,-1.54164 c 0,8.8512 -8.8547,15.77622 -20.0095,15.77622 -10.7739,0 -19.6215,-6.92502 -19.6215,-15.77622 0,-8.84767 8.8476,-15.77269 19.6215,-15.77269 10.7703,0 20.0095,7.30955 20.0095,15.77269"
     style="fill:#ffffff;fill-opacity:1;fill-rule:nonzero;stroke:none"
     id="path3442" />
</svg>
