<?xml version="1.0" encoding="UTF-8" standalone="no"?>
<svg xmlns="http://www.w3.org/2000/svg" width="1630.0071" height="1630.0071">
  <path fill="#fff" stroke="#000" stroke-width="10.00000208" d="M1624.9952031 1490.0118878c0 74.56246404-60.4375077 134.99997175-134.99997173 134.99997175H139.99519874c-74.55813122 0-135.00000407-60.43750771-135.00000407-134.99997174V140.01189559c0-74.55813122 60.44187285-135.00002832 135.00000407-135.00002832h1350.00003263c74.56246403 0 134.99997174 60.4418971 134.99997174 135.00002832v1349.99999222z"/>
  <path fill="#006649" d="M139.99519874 1580.01188244c-49.62650334 0-90.00000271-40.37498676-90.00000271-89.99995421V140.01189559c0-49.62650333 40.37349937-90.0000108 90.00000271-90.0000108h1349.9999518c49.62496745 0 90.00003505 40.37350747 90.00003505 90.0000108v1350.00003264c0 49.62496745-40.3750676 89.99995421-90.00003505 89.99995421H139.99519874z"/>
  <path fill="#fff" fill-rule="evenodd" d="M765.83270622 252.5118909c45.3387203 0 82.31875743 36.9774989 82.31875743 82.3174964 0 45.33875263-36.98003714 82.31750448-82.31875743 82.31750448-45.33750776 0-82.31503898-36.97875185-82.31503898-82.31750448 0-45.3399975 36.97753122-82.3174964 82.31503898-82.3174964zM516.59519397 771.56689173l172.67872278-115.11750486c7.97875403-33.73874864 41.09006186-183.52249805 107.51250408-218.18749773 65.79006232-43.49749486 308.35500069 135.19000097 309.74756217 136.65750549v260.67249603l-52.58881878-9.14750492-20.58124545-208.07749331c-19.81750708-3.98500379-39.63493333-7.97125245-59.44872196-11.95875407 43.30246188 111.95250128 59.20750739 219.84125482 34.2962825 290.92248491l105.18370025 429.8812324-70.88369928 50.30002875L889.3102361 979.64566387l-70.8850735 75.45748003-98.32250367 299.54622279-93.75122884-34.30000096 84.60504154-315.5512624 98.32371622-176.06621286-37.69123212-129.94249918-40.05374456 52.19749986-187.50001643 61.73874716-27.44000077-41.15874658z"/>
</svg>