<?xml version="1.0" encoding="UTF-8" standalone="no"?>
<!-- Created with Inkscape (http://www.inkscape.org/) -->

<svg
   xmlns:dc="http://purl.org/dc/elements/1.1/"
   xmlns:cc="http://creativecommons.org/ns#"
   xmlns:rdf="http://www.w3.org/1999/02/22-rdf-syntax-ns#"
   xmlns:svg="http://www.w3.org/2000/svg"
   xmlns="http://www.w3.org/2000/svg"
   xmlns:sodipodi="http://sodipodi.sourceforge.net/DTD/sodipodi-0.dtd"
   xmlns:inkscape="http://www.inkscape.org/namespaces/inkscape"
   width="1630.0071"
   height="1630.0071"
   id="svg2934"
   version="1.1"
   inkscape:version="0.48.2 r9819"
   sodipodi:docname="AJAX1.svg">
  <defs
     id="defs2936">
    <inkscape:perspective
       sodipodi:type="inkscape:persp3d"
       inkscape:vp_x="0 : 526.18109 : 1"
       inkscape:vp_y="0 : 1000 : 0"
       inkscape:vp_z="744.09448 : 526.18109 : 1"
       inkscape:persp3d-origin="372.04724 : 350.78739 : 1"
       id="perspective2942" />
    <inkscape:perspective
       id="perspective2924"
       inkscape:persp3d-origin="0.5 : 0.33333333 : 1"
       inkscape:vp_z="1 : 0.5 : 1"
       inkscape:vp_y="0 : 1000 : 0"
       inkscape:vp_x="0 : 0.5 : 1"
       sodipodi:type="inkscape:persp3d" />
  </defs>
  <sodipodi:namedview
     id="base"
     pagecolor="#ffffff"
     bordercolor="#666666"
     borderopacity="1.0"
     inkscape:pageopacity="0.0"
     inkscape:pageshadow="2"
     inkscape:zoom="0.24573703"
     inkscape:cx="662.42096"
     inkscape:cy="353.38357"
     inkscape:document-units="px"
     inkscape:current-layer="g2909"
     showgrid="false"
     inkscape:window-width="1280"
     inkscape:window-height="1004"
     inkscape:window-x="-8"
     inkscape:window-y="-8"
     inkscape:window-maximized="1"
     fit-margin-top="0"
     fit-margin-left="0"
     fit-margin-right="0"
     fit-margin-bottom="0" />
  <metadata
     id="metadata2939">
    <rdf:RDF>
      <cc:Work
         rdf:about="">
        <dc:format>image/svg+xml</dc:format>
        <dc:type
           rdf:resource="http://purl.org/dc/dcmitype/StillImage" />
        <dc:title />
      </cc:Work>
    </rdf:RDF>
  </metadata>
  <g
     inkscape:label="Ebene 1"
     inkscape:groupmode="layer"
     id="layer1"
     transform="translate(-54.776455,1049.9849)">
    <g
       id="g3018"
       transform="translate(2,-2)">
      <g
         id="g2909"
         transform="matrix(0.80835983,0,0,0.80835983,-165.10178,-177.02766)">
        <path
           inkscape:connector-curvature="0"
           style="fill:#ffffff;fill-rule:nonzero;stroke:#000000;stroke-width:12.37072849;stroke-linecap:butt;stroke-linejoin:miter;stroke-miterlimit:4;stroke-opacity:1;stroke-dasharray:none"
           d="m 2279.7687,765.81577 c 0,92.2392 -74.7656,167.0048 -167.0048,167.0048 l -1670.04839,0 c -92.23384,0 -167.00484,-74.7656 -167.00484,-167.0048 l 0,-1670.04839 c 0,-92.23384 74.771,-167.00488 167.00484,-167.00488 l 1670.04839,0 c 92.2392,0 167.0048,74.77104 167.0048,167.00488 l 0,1670.04839 z"
           id="path11" />
        <path
           inkscape:connector-curvature="0"
           style="fill:#006649;fill-rule:nonzero;stroke:none"
           d="m 442.71551,877.15232 c -61.3916,0 -111.33656,-49.9469 -111.33656,-111.3366 l 0,-1670.04834 c 0,-61.3916 49.94496,-111.33658 111.33656,-111.33658 l 1670.04829,0 c 61.3897,0 111.3366,49.94498 111.3366,111.33658 l 0,1670.04834 c 0,61.3897 -49.9469,111.3366 -111.3366,111.3366 l -1670.04829,0 z"
           id="path13" />
        <path
           inkscape:connector-curvature="0"
           style="fill:#ffffff;fill-rule:evenodd;stroke:none"
           d="m 1515.2963,96.843835 201.1543,-32.79325 -126.7582,-164.737895 c -65.7381,57.313585 -73.9383,126.184515 -74.3961,197.531145 z m -55.3713,12.050645 c -0.3047,-7.09307 -1.4876,-18.608675 -1.4876,-26.617175 0,-81.53082969 26.3867,-160.73133 97.9282,-226.551335 l -74.5491,-89.19759 -115.3199,351.90084 93.4284,-9.53474 z m -442.7345,-350.14419 6.4049,-19.59988 410.8165,-0.57369 -109.2877,331.306665 -4.7318,-34.54835 12.5841,0 -1.5247,-22.04 -55.0296,0 1.6036,20.47664 14.1088,0 3.1653,37.6766 c 0,0 -276.5476,-311.173295 -278.1094,-312.697985 z M 835.21398,77.018205 c 55.17964,-43.93465 98.15709,-85.6502897 129.11948,-169.24085 48.85354,44.31195 76.72794,108.48974 76.72794,174.49995 0,131.104985 -106.92798,237.958705 -237.95719,237.958705 -131.06478,0 -237.95406,-106.85372 -237.95406,-237.958705 0,-131.06632 106.88928,-237.992705 237.95406,-237.992705 41.79451,0 84.58331,12.08929 119.09455,32.45151 -23.33738,73.828505 -46.02839,111.771075 -117.87294,169.618145 -17.38861,0.68658 -30.69796,14.71962 -30.69796,31.42474 0,17.27418 14.14902,31.421665 31.46185,31.421665 17.31129,0 30.12427,-14.147485 30.12427,-32.182455 z M 1523.7224,147.4494 c 26.8862,100.21527 122.6387,172.78661 228.611,172.78661 131.0617,0 237.9603,-106.85372 237.9603,-237.958705 0,-131.06632 -106.8986,-237.992705 -237.9603,-237.992705 -41.8332,0 -90.2615,9.87648 -125.535,30.54642 L 1755.958,46.354255 c 15.7882,0.19175 29.5166,14.30056 29.5166,31.42474 0,17.27418 -14.1103,31.421665 -31.3845,31.421665 -4.8045,0 -9.8379,-1.25563 -14.1104,-3.27825 l -216.2573,41.52699 z m -584.55564,-325.77849 84.31424,-232.54032 -26.73005,-45.56913 53.42455,-58.11614 114.706,0 1.5634,32.98501 -100.5972,0 -20.438,21.96577 23.6064,42.40376 -29.6341,105.09863 411.6221,0 6.2905,-19.18082 c -33.0654,-4.3112 -90.1486,-24.75074 -103.7625,-36.57252 -13.6125,-11.82023 -1.7196,-22.72657 13.8057,-23.22295 81.2246,-3.43287 201.9166,-10.25842 224.9107,-10.37131 22.9198,-0.0773 25.2455,11.43984 9.9166,28.14187 -15.3706,16.81645 -28.7913,32.034 -86.9445,41.03061 l -15.714,42.40686 97.3963,120.65481 c 45.948,-27.91455 101.4338,-42.32799 155.4305,-42.32799 161.803,0 293.8605,131.943085 293.8605,293.820255 0,161.840065 -132.0575,293.860475 -293.8605,293.860475 -133.1987,0 -250.2706,-91.86348 -284.6659,-218.69902 l -89.5409,16.05721 c -3.7731,10.56306 -12.7341,18.64733 -23.4147,24.97496 l 15.9799,75.65782 20.4364,0 1.5309,20.44109 -64.3726,3.16536 0,-22.00289 15.7124,0 -19.4886,-75.61917 c -28.9042,-4.80294 -44.1186,-29.55831 -35.5009,-54.18998 l -292.33576,-330.65875 -13.11761,35.42668 c 71.00647,55.941975 113.41017,142.0515253 113.41017,231.586215 0,161.840065 -131.98328,293.860475 -293.86199,293.860475 -161.83851,0 -293.81872,-132.02041 -293.81872,-293.860475 0,-161.87717 131.98021,-293.820255 293.81872,-293.820255 47.0598,0 95.29945,11.40271 136.06255,33.21386 z"
           id="path15" />
      </g>
    </g>
  </g>
</svg>
