<?xml version="1.0" encoding="UTF-8" standalone="no"?>
<svg xmlns="http://www.w3.org/2000/svg" width="144.79944" height="108.80166" viewBox="0 0 408.65624 307.06245">
  <path fill="#fff" stroke="#000" stroke-width="2.25777804" d="M28.15465 1.1359711h352.35801c14.86253 0 27.02278 12.1602499 27.02278 27.0227799V278.9097c0 14.86253-12.16025 27.02278-27.02278 27.02278H28.15465c-14.86253 0-27.02278-12.16025-27.02278-27.02278V28.158751c0-14.86253 12.16025-27.0227799 27.02278-27.0227799"/>
  <path fill="#006649" fill-rule="evenodd" d="M31.24146 7.9086111h346.1844c12.83758 0 23.33625 10.5021999 23.33625 23.3362499V275.82221c0 12.83759-10.49867 23.33626-23.33625 23.33626H31.24146c-12.83759 0-23.33626-10.49867-23.33626-23.33626V31.244861c0-12.83405 10.49867-23.3362499 23.33626-23.3362499"/>
  <path fill="#fff" fill-rule="evenodd" d="M372.40546 285.79347v-7.44715h-19.36747v-17.50837h10.98547v-7.25664h-10.98547v-13.40555h17.31786v-7.45773H345.4074v53.07544h26.99806m-34.27586-45.99871v-7.07673h-26.99103v7.07673h9.68022v45.99871h7.63764v-45.99871h9.67317zm-34.2512 30.18014v-37.25687h-7.64117v38.18115c0 5.02355-2.97744 8.382-7.06967 8.382-4.48027 0-7.45773-3.35845-7.45773-8.382v-38.18115h-7.63059v37.25687c0 4.27567.55034 6.50875 2.03553 9.30628 2.61408 4.46618 7.82815 7.4789 13.05279 7.4789 5.02003 0 10.05064-3.19969 12.65767-7.4789 1.49225-2.79753 2.05317-5.03061 2.05317-9.30628m-47.68146-10.80559c0 6.14187-.37748 9.30981-1.67217 13.58901-1.30881 4.46969-3.3655 6.52286-6.51934 6.52286-3.35491 0-5.40455-2.05317-6.70277-6.52286-1.12537-4.2792-1.68628-7.62706-1.68628-13.40909 0-5.95489.37394-9.49325 1.68628-13.59253 1.29822-4.47322 3.34786-6.52639 6.70277-6.52639 3.15384 0 5.21053 2.05317 6.51934 6.70984 1.1183 3.91583 1.67217 7.26369 1.67217 13.22916m7.25663 0c0-8.01158-.74083-13.04219-2.97391-18.25272-2.60703-6.52286-6.33236-9.12989-12.47423-9.12989-6.1595 0-9.87072 2.60703-12.67177 8.93939-2.23662 5.03061-2.97745 10.43164-2.97745 18.44322 0 8.18798.74083 13.21859 2.97745 18.43265 2.60702 6.33943 6.33588 9.15812 12.67177 9.15812 5.95842 0 9.8672-2.81869 12.47423-9.15812 2.23308-5.02709 2.97391-10.24467 2.97391-18.43265m-46.36206-12.29783c0 4.28625-2.42358 6.70983-6.89327 6.70983h-7.82462v-13.40555h7.82462c4.09575 0 6.89327 2.6035 6.89327 6.69572m7.43656 38.92199-7.63764-26.06324c5.03767-1.87325 7.63764-6.52639 7.63764-12.85875 0-8.56897-5.58094-14.15345-13.95942-14.15345h-15.82914v53.07544h7.63411v-24.95552h7.26017l7.07672 24.95552h7.81756zm-65.16865 0v-7.44715h-19.37808v-17.50837h10.99256v-7.25664h-10.99256v-13.40555h17.32139v-7.45773h-24.9555v53.07544h27.01219zm-35.76108 0-12.29078-34.45229 10.99255-18.62315h-8.76652l-12.10028 21.23017v-21.23017h-7.637644v53.07544h7.637644v-16.94746l4.84364-8.93586 9.3098 25.88332h8.01159zm-41.35262-53.07544h-7.44008v53.07544h7.44008v-53.07544zm-23.6467 37.9977c0 4.6602-2.79047 7.63059-7.07672 7.63059h-7.63764v-16.5735h7.63764c3.91231 0 7.07672 3.90877 7.07672 8.94291m-.93486-24.21114c0 4.83659-2.22955 7.82109-5.76439 7.82109h-8.01511v-14.14992h8.01511c4.0887 0 5.76439 1.85561 5.76439 6.32883m8.38553 24.75795c0-5.38692-2.413-9.86014-6.52286-13.208 4.28978-4.47323 5.588-6.71336 5.588-11.54995 0-8.20208-5.02356-13.78656-12.10381-13.78656H36.25408v53.07544h15.64569c7.81756 0 14.14992-6.51229 14.14992-14.53093m187.70743-123.36217 41.98411-6.85095-26.45483-34.36761c-13.71953 11.94858-15.4305 26.31017-15.52928 41.21856m-11.54994 2.5153c-.0635-1.48872-.29986-3.89466-.29986-5.56683 0-17.00389 5.4998-33.53506 20.42936-47.268709l-15.56103-18.62314-24.05239 73.437769 19.48392-1.97909zm-92.38546-73.077929 1.3335-4.09222 85.72501-.10231-22.79297 69.123299-.98072-7.21431h2.61055l-.32103-4.58258h-11.47233l.32455 4.25803h2.95628l.64559 7.86341s-57.70387-64.928759-58.02843-65.253319m-37.97653 66.410429c11.52172-9.15105 20.4717-17.86819 26.95223-35.306 10.19528 9.26395 16.00553 22.63422 16.00553 36.40667 0 27.34734-22.29203 49.65701-49.65701 49.65701-27.33675 0-49.63937-22.30967-49.63937-49.65701 0-27.34028 22.30262-49.649959 49.63937-49.649959 8.73478 0 17.66006 2.51883 24.84967 6.759229-4.86833 15.39876-9.59908 23.3292-24.58509 35.39773-3.64066.14817-6.406443 3.06211-6.406443 6.55461 0 3.61245 2.952753 6.55814 6.558143 6.55814 3.61244 0 6.28297-2.94569 6.28297-6.72042m143.66877 14.6932c5.62328 20.92678 25.60108 36.06448 47.70263 36.06448 27.35086 0 49.66053-22.30967 49.66053-49.65701 0-27.34028-22.30967-49.649959-49.66053-49.649959-8.73125 0-18.8207 2.06022-26.18671 6.371179l26.93812 35.78578c3.30201.0494 6.17362 2.98803 6.17362 6.55461 0 3.61245-2.94923 6.55814-6.55109 6.55814-1.00894 0-2.05669-.26105-2.94569-.68086l-45.13088 8.65364zM133.54103 90.478711l17.5895-48.53517-5.57742-9.50736 11.15836-12.12145h23.9254l.33161 6.8827h-20.97617l-4.26861 4.58964 4.91419 8.85119-6.17361 21.92162h85.88729l1.30175-4.00403c-6.90386-.9137-18.80306-5.16114-21.64645-7.63059-2.84339-2.46591-.35631-4.74486 2.88572-4.84011 16.9545-.72672 42.13226-2.15194 46.92298-2.16958 4.78014-.0282 5.2705 2.38125 2.07081 5.88081-3.1997 3.51366-6.00781 6.6675-18.13631 8.5478l-3.27731 8.8512 20.32706 25.1707c9.58145-5.81378 21.15963-8.84062 32.41677-8.84062 33.77495 0 61.32687 27.551959 61.32687 61.323379 0 33.77495-27.55192 61.32337-61.32687 61.32337-27.78832 0-52.21819-19.16289-59.39722-45.64945l-18.66547 3.35139c-.80434 2.20133-2.67406 3.89114-4.89656 5.22111l3.33375 15.79739h4.26156l.32103 4.25097-13.44437.6597v-4.59317h3.29142l-4.064-15.77975c-6.03956-.99483-9.20397-6.15597-7.41539-11.303l-61.00587-68.992769-2.73403 7.40128c14.80962 11.669899 23.67492 29.633349 23.67492 48.312929 0 33.77495-27.54136 61.32337-61.33042 61.32337-33.76789 0-61.31279-27.54842-61.31279-61.32337 0-33.77142 27.5449-61.323379 61.31279-61.323379 9.82486 0 19.89667 2.39889 28.39509 6.95325"/>
</svg>