<?xml version="1.0" encoding="UTF-8" standalone="no"?>
<svg
   xmlns:dc="http://purl.org/dc/elements/1.1/"
   xmlns:cc="http://creativecommons.org/ns#"
   xmlns:rdf="http://www.w3.org/1999/02/22-rdf-syntax-ns#"
   xmlns:svg="http://www.w3.org/2000/svg"
   xmlns="http://www.w3.org/2000/svg"
   xmlns:sodipodi="http://sodipodi.sourceforge.net/DTD/sodipodi-0.dtd"
   xmlns:inkscape="http://www.inkscape.org/namespaces/inkscape"
   width="109.20028"
   height="109.20028"
   viewBox="0 0 308.18749 308.18745"
   version="1.1"
   id="svg2"
   inkscape:version="0.48.2 r9819"
   sodipodi:docname="AJAX1.svg">
  <metadata
     id="metadata62">
    <rdf:RDF>
      <cc:Work
         rdf:about="">
        <dc:format>image/svg+xml</dc:format>
        <dc:type
           rdf:resource="http://purl.org/dc/dcmitype/StillImage" />
        <dc:title></dc:title>
      </cc:Work>
    </rdf:RDF>
  </metadata>
  <defs
     id="defs60" />
  <sodipodi:namedview
     pagecolor="#ffffff"
     bordercolor="#666666"
     borderopacity="1"
     objecttolerance="10"
     gridtolerance="10"
     guidetolerance="10"
     inkscape:pageopacity="0"
     inkscape:pageshadow="2"
     inkscape:window-width="1280"
     inkscape:window-height="1004"
     id="namedview58"
     showgrid="false"
     fit-margin-top="0"
     fit-margin-left="0"
     fit-margin-right="0"
     fit-margin-bottom="0"
     inkscape:zoom="4.6745195"
     inkscape:cx="53.000602"
     inkscape:cy="64.596708"
     inkscape:window-x="-8"
     inkscape:window-y="-8"
     inkscape:window-maximized="1"
     inkscape:current-layer="svg2"
     showguides="true"
     inkscape:guide-bbox="true" />
  <!-- draw the bicycle -->
  <!-- RIGHT -->
  <!-- LANE -->
  <!-- ONLY -->
  <path
     inkscape:connector-curvature="0"
     d="m 18.529868,0.84275795 271.123862,0 c 9.76489,0 17.68122,7.91281005 17.68122,17.68123005 l 0,271.120342 c 0,9.77194 -7.91633,17.68827 -17.68122,17.68827 l -271.123862,0 c -9.76842,0 -17.68476,-7.91633 -17.68476,-17.68827 l 0,-271.120342 c 0,-9.76842 7.91634,-17.68123005 17.68476,-17.68123005"
     style="fill:#ffffff;fill-opacity:1;fill-rule:nonzero;stroke:#000000;stroke-width:1.69333353;stroke-miterlimit:4;stroke-opacity:1;stroke-dasharray:none"
     id="path9935" />
  <path
     inkscape:connector-curvature="0"
     d="m 18.529868,6.734148 271.123862,0 c 6.50875,0 11.7863,5.27756 11.7863,11.78984 l 0,271.120342 c 0,6.51228 -5.27755,11.78983 -11.7863,11.78983 l -271.123862,0 c -6.51228,0 -11.78984,-5.27755 -11.78984,-11.78983 l 0,-271.120342 c 0,-6.51228 5.27756,-11.78984 11.78984,-11.78984"
     style="fill:#006649;fill-opacity:1;fill-rule:nonzero;stroke:none"
     id="path9943" />
  <path
     inkscape:connector-curvature="0"
     d="m 164.60494,134.58437 -40.73173,-29.80974 c -0.1658,-0.14817 -0.27164,-0.36336 -0.27164,-0.59972 0,-0.4445 0.35278,-0.80433 0.79728,-0.80433 l 39.31356,0 c 1.77095,0 3.22086,-1.43581 3.22086,-3.21028 l -0.0178,-3.210282 c 0,-1.77447 -1.41816,-3.20675 -3.19264,-3.20675 l -57.77442,0 c -1.72508,0 -3.29494,0.67734 -4.445,1.78506 L 85.34974,111.67145 c -1.16064,1.16064 -1.8662,2.76225 -1.8662,4.53672 l 0,12.84111 c 0,1.77095 -1.45344,3.21028 -3.22791,3.21028 l -12.823482,0 c -1.77094,0 -3.22439,1.43228 -3.22439,3.20675 l 0.0178,3.20675 c 0,1.778 1.41817,3.21381 3.18911,3.21381 l 25.682232,0 c 1.77447,0 3.22086,-1.43581 3.22086,-3.21381 l 0,-14.53092 c 0,-0.44097 0.36336,-0.79727 0.80433,-0.79727 0.17639,0 0.32456,0.0529 0.45509,0.14816 l 26.02441,17.50484 c 0.35984,0.2928 0.59267,0.74083 0.59267,1.24178 0,0.47977 -0.26458,0.95955 -0.59267,1.25236 l -19.75555,19.70617 c -0.58209,0.58561 -0.93134,1.38288 -0.93134,2.27188 0,0.22931 0.0248,0.44803 0.0706,0.66323 l 2.64936,27.69658 c 0.27517,1.48873 1.59456,2.61761 3.16442,2.61761 l 12.12144,0 c 1.38642,0 2.57528,-0.87488 3.02331,-2.10608 l 5.81378,-25.58345 c 0.1905,-0.8008 0.68439,-1.48519 1.35819,-1.92264 l 32.80834,-22.43666 c 1.59808,-1.1677 2.64936,-3.05506 2.64936,-5.18584 0,-1.82033 -0.75494,-3.46075 -1.9685,-4.62844 m 4.39914,13.77597 c -0.56092,-0.47978 -1.28058,-0.76906 -2.07081,-0.76906 -0.77611,0 -1.48519,0.27517 -2.03905,0.73025 l -12.14967,8.3432 c -0.37747,0.28928 -0.61031,0.75142 -0.61031,1.26647 0,0.49036 0.2152,0.92781 0.55739,1.22061 l 55.80945,36.07154 c 0.50448,0.32455 1.11478,0.51505 1.76037,0.51505 0.65969,0 1.27,-0.19755 1.78152,-0.53622 l 9.17223,-5.49981 c 0.38452,-0.28927 0.635,-0.75494 0.635,-1.27352 0,-0.4692 -0.19403,-0.88901 -0.51153,-1.18181 l -52.33459,-38.8867 z M 69.037448,93.252908 c -0.007,0.15875 0,0.32456 0,0.49036 0,7.090842 5.750282,12.837592 12.841112,12.837592 7.08731,0 12.83406,-5.74675 12.83406,-12.837592 l -0.35278,-4.45911 c 0,-0.889 1.06186,-1.96144 1.94734,-1.96144 l 4.01461,0 c 0.44097,0 0.81491,-0.35984 0.81491,-0.80081 0,-0.23283 -0.1023,-0.44803 -0.26105,-0.59267 -4.05695,-3.44663 -9.24631,-5.37986 -14.98953,-5.37986 -7.00264,0 -13.42672,3.00214 -17.695332,7.89517 -0.47978,0.56444 -0.75848,1.29117 -0.75848,2.08844 0,1.19945 0.63148,2.16959 1.60514,2.71992 M 109.14829,218.91943 c 0,2.65642 2.16605,4.81542 4.82247,4.81542 2.65994,0 4.81542,-2.159 4.81542,-4.81542 l 1.59455,0 c 0,2.65642 2.16606,4.81542 4.826,4.81542 2.65995,0 4.81542,-2.159 4.81542,-4.81542 0,-1.55222 -0.73378,-2.93158 -1.86972,-3.81353 l -0.85725,-0.74789 c -0.29986,-0.28927 -0.48331,-1.0548 -0.48331,-1.50283 0,-0.18697 0.0212,-0.35983 0.0776,-0.52564 l 0.87489,-2.12019 c 0.18345,-0.26106 0.29281,-0.57856 0.29281,-0.91722 0,-0.35278 -0.10936,-0.68087 -0.30339,-0.94545 l -4.94947,-8.69244 c -0.55386,-0.95956 -1.58398,-1.60162 -2.76931,-1.60162 l -9.63436,0 c -0.9772,0 -1.84856,0.44098 -2.4377,1.13242 l -5.22111,5.29167 -11.98739,4.51203 c -0.29986,0.11641 -0.49741,0.40569 -0.49741,0.74436 0,0.12347 0.0246,0.23989 0.0741,0.34572 l 1.03011,2.11314 c 0.0917,0.20108 0.14464,0.42686 0.14464,0.66322 0,0.67381 -0.42334,1.25236 -1.01953,1.49578 l -1.78506,0.64558 c -1.22061,0.87489 -2.01083,2.3107 -2.01083,3.92289 0,2.65642 2.15547,4.81542 4.81542,4.81542 2.65994,0 4.81189,-2.159 4.81189,-4.81542 l 1.59455,0 c 0,2.65642 2.16959,4.81542 4.82953,4.81542 2.65642,0 4.81189,-2.159 4.81189,-4.81542 l 1.59456,0 z m 116.0921,-4.94947 c 1.32997,2.30717 4.28272,3.08681 6.58636,1.75683 2.30364,-1.32997 3.09034,-4.27214 1.76036,-6.57225 l 1.38289,-0.8008 c 1.32998,2.30364 4.28273,3.0868 6.58637,1.75683 2.30363,-1.32997 3.09033,-4.26861 1.76036,-6.57225 -0.77259,-1.34408 -2.0955,-2.16958 -3.52425,-2.37067 l -1.11831,-0.21872 c -0.40217,-0.10583 -0.94544,-0.67028 -1.16769,-1.06186 -0.0952,-0.15875 -0.16228,-0.32456 -0.19756,-0.49036 l -0.29986,-2.27895 c 0.0282,-0.3175 -0.0353,-0.64911 -0.20461,-0.93839 -0.17639,-0.31044 -0.43392,-0.52916 -0.73378,-0.66675 l -8.636,-5.05177 c -0.95603,-0.55034 -2.16958,-0.59267 -3.19617,0 l -8.34319,4.81541 c -0.84667,0.49036 -1.38289,1.30528 -1.5487,2.19781 l -1.8803,7.19314 -8.12095,9.90247 c -0.19755,0.24695 -0.22578,0.59972 -0.0564,0.89606 0.06,0.1023 0.14111,0.19402 0.23636,0.254 l 1.94733,1.32291 c 0.18345,0.12348 0.33867,0.29634 0.45861,0.50448 0.33514,0.58561 0.25753,1.29469 -0.13405,1.79916 l -1.22414,1.4605 c -0.62089,1.36173 -0.58914,2.99509 0.21872,4.39561 1.32645,2.30012 4.27214,3.09387 6.57931,1.76389 2.30011,-1.32997 3.09033,-4.27214 1.76036,-6.5793 l 1.37936,-0.79375 c 1.32997,2.30011 4.28272,3.0868 6.58989,1.75683 2.30011,-1.32997 3.09033,-4.27919 1.76036,-6.57931 l 1.37936,-0.8008 z"
     style="fill:#ffffff;fill-opacity:1;fill-rule:evenodd;stroke:none"
     id="path9951" />
</svg>
