<?xml version="1.0" encoding="UTF-8" standalone="no"?>
<!-- Created with Inkscape (http://www.inkscape.org/) -->

<svg
   xmlns:dc="http://purl.org/dc/elements/1.1/"
   xmlns:cc="http://creativecommons.org/ns#"
   xmlns:rdf="http://www.w3.org/1999/02/22-rdf-syntax-ns#"
   xmlns:svg="http://www.w3.org/2000/svg"
   xmlns="http://www.w3.org/2000/svg"
   xmlns:sodipodi="http://sodipodi.sourceforge.net/DTD/sodipodi-0.dtd"
   xmlns:inkscape="http://www.inkscape.org/namespaces/inkscape"
   width="1630.0071"
   height="1630.0071"
   id="svg2934"
   version="1.1"
   inkscape:version="0.48.2 r9819"
   sodipodi:docname="AJAX3.svg">
  <defs
     id="defs2936">
    <inkscape:perspective
       sodipodi:type="inkscape:persp3d"
       inkscape:vp_x="0 : 526.18109 : 1"
       inkscape:vp_y="0 : 1000 : 0"
       inkscape:vp_z="744.09448 : 526.18109 : 1"
       inkscape:persp3d-origin="372.04724 : 350.78739 : 1"
       id="perspective2942" />
    <inkscape:perspective
       id="perspective2924"
       inkscape:persp3d-origin="0.5 : 0.33333333 : 1"
       inkscape:vp_z="1 : 0.5 : 1"
       inkscape:vp_y="0 : 1000 : 0"
       inkscape:vp_x="0 : 0.5 : 1"
       sodipodi:type="inkscape:persp3d" />
  </defs>
  <sodipodi:namedview
     id="base"
     pagecolor="#ffffff"
     bordercolor="#666666"
     borderopacity="1.0"
     inkscape:pageopacity="0.0"
     inkscape:pageshadow="2"
     inkscape:zoom="0.24573703"
     inkscape:cx="675.53154"
     inkscape:cy="366.49425"
     inkscape:document-units="px"
     inkscape:current-layer="g2909"
     showgrid="false"
     inkscape:window-width="1280"
     inkscape:window-height="1004"
     inkscape:window-x="-8"
     inkscape:window-y="-8"
     inkscape:window-maximized="1"
     fit-margin-top="0"
     fit-margin-left="0"
     fit-margin-right="0"
     fit-margin-bottom="0" />
  <metadata
     id="metadata2939">
    <rdf:RDF>
      <cc:Work
         rdf:about="">
        <dc:format>image/svg+xml</dc:format>
        <dc:type
           rdf:resource="http://purl.org/dc/dcmitype/StillImage" />
        <dc:title></dc:title>
      </cc:Work>
    </rdf:RDF>
  </metadata>
  <g
     inkscape:label="Ebene 1"
     inkscape:groupmode="layer"
     id="layer1"
     transform="translate(-41.665869,1036.8743)">
    <g
       id="g3018"
       transform="translate(2,-2)">
      <g
         id="g2909"
         transform="matrix(0.80835983,0,0,0.80835983,-165.10178,-177.02766)">
        <path
           inkscape:connector-curvature="0"
           style="fill:#ffffff;fill-rule:nonzero;stroke:#000000;stroke-width:12.37072849;stroke-linecap:butt;stroke-linejoin:miter;stroke-miterlimit:4;stroke-opacity:1;stroke-dasharray:none"
           d="m 2263.5499,782.03448 c 0,92.23924 -74.7656,167.00483 -167.0048,167.00483 l -1670.04834,0 c -92.23384,0 -167.00484,-74.76559 -167.00484,-167.00483 l 0,-1670.04835 c 0,-92.23384 74.771,-167.00483 167.00484,-167.00483 l 1670.04834,0 c 92.2392,0 167.0048,74.77099 167.0048,167.00483 l 0,1670.04835 z"
           id="path11" />
        <path
           inkscape:connector-curvature="0"
           style="fill:#006649;fill-rule:nonzero;stroke:none"
           d="m 426.49676,893.37105 c -61.3916,0 -111.33656,-49.94681 -111.33656,-111.33655 l 0,-1670.04835 c 0,-61.39156 49.94496,-111.33656 111.33656,-111.33656 l 1670.04834,0 c 61.3897,0 111.3365,49.945 111.3365,111.33656 l 0,1670.04835 c 0,61.38974 -49.9468,111.33655 -111.3365,111.33655 l -1670.04834,0 z"
           id="path13" />
        <path
           inkscape:connector-curvature="0"
           style="fill:#ffffff;fill-rule:evenodd;stroke:none"
           d="m 1284.8846,-581.01566 c 38.5534,0 69.9967,-31.4433 69.9967,-69.99822 0,-38.55183 -31.4433,-69.99513 -69.9967,-69.99513 -38.5549,0 -69.9982,31.4433 -69.9982,69.99513 0,38.55492 31.4433,69.99822 69.9982,69.99822 z"
           id="path15" />
        <path
           inkscape:connector-curvature="0"
           style="fill:#ffffff;fill-rule:evenodd;stroke:none"
           d="m 672.61549,41.451556 c -7.98067,3.02619 -16.13916,4.98695 -25.544,-0.53348 -14.28201,-4.43336 -19.60297,-14.01449 -19.68956,-25.54092 8.33632,2.12777 12.94906,6.91524 21.28693,9.04764 15.60876,7.22451 31.21752,5.18488 46.82938,-3.19474 45.21347,-23.9651895 86.26573,-52.09314 127.18192,-80.35716 4.43336,2.13086 8.86826,4.25863 13.30317,6.38794 -54.4544,31.4 -108.91344,62.79227 -163.36784,94.19072 z m -10.64347,-77.16087 c 29.80109,-9.04764 56.05487,-26.60789 78.7567,-52.68539 26.78417,0.35721 50.73081,8.51416 71.83991,24.48168 -31.59638,23.19047 -63.8345,45.09903 -96.84888,65.4519705 C 692.34371,13.280316 669.01406,24.263976 647.07149,11.650476 641.75053,8.8144865 638.55733,4.5574065 637.49345,-1.1223035 645.65349,-12.651824 653.81199,-24.179794 661.97202,-35.709314 z M 1956.2301,525.01716 c -25.963,-70.48223 -41.7202,-147.34312 -42.5707,-233.52689 -4.0514,-10.54914 -8.1029,-21.089 -12.1697,-31.6304 -26.659,-30.02685 -51.3695,-64.95715 -71.7503,-110.68864 3.6339,-5.67662 7.2988,-11.3486 10.9327,-17.02831 35.7978,59.92381 75.9099,78.81855 117.9858,79.06597 -31.4526,-59.05013 -45.648,-125.949484 -42.5708,-200.699614 14.7521,-142.878816 -64.7143,-216.671756 -238.3948,-221.372636 -87.5074,5.86527 -177.2215,19.9478 -250.566,-26.75634 4.3746,-134.91053 -2.8514,-263.72692 -76.632,-357.60374 -23.0699,14.07479 -46.7474,23.88787 -71.7626,24.32549 -10.1332,51.49006 -20.2741,102.98167 -30.4088,154.47329 -1.2989,9.41103 -4.5416,15.89947 -9.7327,19.46379 -51.0849,39.32655 -102.1698,78.65619 -153.2547,117.98118 15.4046,10.94965 30.8108,21.89465 46.2186,32.84429 31.6242,-19.46225 63.2499,-38.92295 94.8742,-58.38675 -2.0273,11.75838 -4.0545,23.51676 -6.0818,35.27514 -3.2937,12.41402 -8.16,20.1148 -14.5959,23.11161 -21.8946,13.37894 -43.7877,26.75788 -65.6824,40.13992 -13.7856,-4.86788 -27.5697,-9.73112 -41.3569,-14.59746 5.273,-5.67662 10.5445,-11.35324 15.8129,-17.02676 -12.162,-8.92239 -24.3239,-17.84323 -36.489,-26.76253 -12.1635,10.9481 -24.327,21.89465 -36.489,32.84274 -121.76046,-32.40357 -241.69004,-59.32847 -357.60376,-74.19808 -9.15898,-13.37894 -20.75345,-26.75789 -37.70598,-40.13838 -3.24577,3.24423 -6.48845,6.48845 -9.73112,9.72958 -6.4869,-4.0545 -12.9738,-8.10746 -19.46225,-12.16197 -0.80874,5.67662 -1.62211,11.35169 -2.4324,17.02831 5.67662,16.21802 11.35324,32.4345 17.02831,48.65407 -37.45856,86.84097 -75.19392,173.89997 -94.87421,246.916646 -4.08388,9.32598 0.38813,16.94945 6.08176,24.32549 15.80051,18.2684805 35.02463,29.69439 54.73584,40.13838 4.46119,-0.81338 8.91929,-1.61902 13.38049,-2.43085 8.90847,13.39595 21.23744,21.66115 34.05661,29.19337 11.11046,4.86943 21.24672,4.86943 30.40725,0 56.76308,-34.05661 113.52463,-68.11478 170.28771,-102.17139 13.38049,13.37894 26.76098,26.75479 40.13993,40.1383705 9.52855,9.73113 17.23242,19.4576095 23.11006,29.1871895 8.92084,30.00675 17.83859,60.00731 26.75789,90.014064 4.31893,11.35014 5.43075,22.70029 6.0833,34.05507 -7.70387,51.8983 -15.40619,103.79505 -23.11161,155.69335 -2.21591,6.89359 -3.71431,14.02686 -6.74514,20.48283 -27.43673,58.41613 -50.44628,114.07822 -75.85576,166.71258 -17.19995,35.63543 -52.69312,62.2325 -75.52175,93.77785 -1.83242,7.39152 1.91746,9.15434 7.29873,10.9481 28.38,0 56.76154,0 85.14308,0 3.64782,-2.84527 7.29719,-5.67507 10.94655,-8.52034 -0.0294,-22.43741 14.02068,-38.38018 37.70598,-49.8695 5.13076,-1.84014 7.04823,-8.47395 8.51416,-15.81907 14.76601,-68.02354 41.1636,-135.0899 99.73903,-199.46872 5.474,-6.69102 9.1234,-15.20517 10.9481,-25.54556 3.8937,-17.75199 -10.2167,-20.43335 65.6839,-98.52047 50.2545,100.97297 106.7517,198.85945 197.044,287.05657 4.2215,9.9739 12.2053,16.17472 21.9009,20.67458 3.7421,3.13907 6.5812,7.19048 8.5079,12.1697 2.8391,20.27253 5.6797,40.5296 8.5157,60.81759 0.6077,6.16991 3.0417,7.79356 7.2988,4.85552 21.8915,-18.24683 43.7846,-36.49365 65.6808,-54.72501 1.4211,-4.46893 1.0129,-8.92239 -1.217,-13.39132 -8.511,-8.50487 -17.0252,-17.02521 -25.5393,-25.53937 -3.6525,-4.05296 -7.3003,-8.10746 -10.9481,-12.16352 -3.2458,-6.48535 -6.4885,-12.9738 -9.7312,-19.4607 -3.2442,-4.0545 -6.4869,-8.10592 -9.7295,-12.16197 -36.3344,-28.69855 -60.9785,-65.57414 -79.066,-107.03773 -7.5013,-14.59437 -13.1764,-29.19183 -17.0267,-43.7862 -3.8566,-34.4633 -8.9085,-68.92969 -18.2484,-103.39145 128.8272,-0.58606 237.4592,-12.04909 301.6524,-47.43401 14.2944,96.85198 7.608,195.6709 -36.4874,298.00157 -8.6039,25.52545 -21.1957,50.48958 -42.5692,74.19499 -19.4576,18.24683 -42.6821,35.55038 -53.522,55.94662 -4.2153,5.92249 1.2989,9.41722 4.8663,13.39131 32.8412,0.40205 65.6809,0.8041 98.5252,1.20615 -2.8886,-10.87078 2.2375,-20.14882 8.5157,-29.19492 8.1059,-4.85551 16.2133,-9.72648 24.3239,-14.582 2.1262,-0.51029 3.3416,-3.7576 3.6463,-9.74194 10.5924,-62.67475 40.4121,-112.52879 72.9842,-160.55041 5.2715,-6.08331 10.5383,-12.16816 15.8098,-18.24683 8.4956,-15.25156 11.5759,-31.58247 10.9465,-48.65407 0.4052,-10.94501 0.8119,-21.89155 1.217,-32.83965 9.1466,-40.67495 21.2606,-72.44917 37.706,-91.22639 49.8695,46.21859 99.739,92.44181 149.6116,138.6604 17.8448,14.19077 23.5199,40.54661 31.6227,64.46851 6.0771,34.05352 12.1697,68.11633 18.2468,102.17139 -0.1856,9.98628 4.4225,16.77471 9.7265,23.11471 9.4481,16.20566 19.2519,32.42677 23.1178,48.64789 4.0514,3.64937 8.1028,7.29873 12.1542,10.9481 19.8705,17.69014 39.741,32.19482 59.6115,46.22013 4.0514,-23.9219 8.1028,-47.84379 12.1542,-71.76569 -10.546,-6.07712 -21.0766,-12.15424 -31.6227,-18.24682 z"
           id="path17" />
      </g>
    </g>
  </g>
</svg>
