<?xml version="1.0" encoding="UTF-8" standalone="no"?>
<!-- Created with Inkscape (http://www.inkscape.org/) -->

<svg
   xmlns:dc="http://purl.org/dc/elements/1.1/"
   xmlns:cc="http://creativecommons.org/ns#"
   xmlns:rdf="http://www.w3.org/1999/02/22-rdf-syntax-ns#"
   xmlns:svg="http://www.w3.org/2000/svg"
   xmlns="http://www.w3.org/2000/svg"
   xmlns:sodipodi="http://sodipodi.sourceforge.net/DTD/sodipodi-0.dtd"
   xmlns:inkscape="http://www.inkscape.org/namespaces/inkscape"
   width="1630.0071"
   height="549.98779"
   id="svg2934"
   version="1.1"
   inkscape:version="0.48.2 r9819"
   sodipodi:docname="AJAX1.svg">
  <defs
     id="defs2936">
    <inkscape:perspective
       sodipodi:type="inkscape:persp3d"
       inkscape:vp_x="0 : 526.18109 : 1"
       inkscape:vp_y="0 : 1000 : 0"
       inkscape:vp_z="744.09448 : 526.18109 : 1"
       inkscape:persp3d-origin="372.04724 : 350.78739 : 1"
       id="perspective2942" />
    <inkscape:perspective
       id="perspective2924"
       inkscape:persp3d-origin="0.5 : 0.33333333 : 1"
       inkscape:vp_z="1 : 0.5 : 1"
       inkscape:vp_y="0 : 1000 : 0"
       inkscape:vp_x="0 : 0.5 : 1"
       sodipodi:type="inkscape:persp3d" />
  </defs>
  <sodipodi:namedview
     id="base"
     pagecolor="#ffffff"
     bordercolor="#666666"
     borderopacity="1.0"
     inkscape:pageopacity="0.0"
     inkscape:pageshadow="2"
     inkscape:zoom="0.24573703"
     inkscape:cx="666.79115"
     inkscape:cy="357.75384"
     inkscape:document-units="px"
     inkscape:current-layer="g2909"
     showgrid="false"
     inkscape:window-width="1280"
     inkscape:window-height="1004"
     inkscape:window-x="-8"
     inkscape:window-y="-8"
     inkscape:window-maximized="1"
     fit-margin-top="0"
     fit-margin-left="0"
     fit-margin-right="0"
     fit-margin-bottom="0" />
  <metadata
     id="metadata2939">
    <rdf:RDF>
      <cc:Work
         rdf:about="">
        <dc:format>image/svg+xml</dc:format>
        <dc:type
           rdf:resource="http://purl.org/dc/dcmitype/StillImage" />
        <dc:title></dc:title>
      </cc:Work>
    </rdf:RDF>
  </metadata>
  <g
     inkscape:label="Ebene 1"
     inkscape:groupmode="layer"
     id="layer1"
     transform="translate(-50.40626,-34.404596)">
    <g
       id="g3018"
       transform="translate(2,-2)">
      <g
         id="g2909"
         transform="matrix(0.80835983,0,0,0.80835983,-165.10178,-177.02766)">
        <path
           inkscape:connector-curvature="0"
           style="fill:#ffffff;fill-rule:nonzero;stroke:#000000;stroke-width:12.37072849;stroke-linecap:butt;stroke-linejoin:miter;stroke-miterlimit:4;stroke-opacity:1;stroke-dasharray:none"
           d="m 2274.3624,771.22198 c 0,92.23305 -74.7656,167.00483 -167.0048,167.00483 l -1670.04834,0 c -92.23384,0 -167.00484,-74.77178 -167.00484,-167.00483 l 0,-334.00967 c 0,-92.23381 74.771,-167.00481 167.00484,-167.00481 l 1670.04834,0 c 92.2392,0 167.0048,74.771 167.0048,167.00481 l 0,334.00967 z"
           id="path11" />
        <path
           inkscape:connector-curvature="0"
           style="fill:#006649;fill-rule:nonzero;stroke:none"
           d="m 437.30926,882.55855 c -61.3916,0 -111.33656,-49.94527 -111.33656,-111.33655 l 0,-334.00967 c 0,-61.39156 49.94496,-111.33656 111.33656,-111.33656 l 1670.04834,0 c 61.3897,0 111.3365,49.945 111.3365,111.33656 l 0,334.00967 c 0,61.39128 -49.9468,111.33655 -111.3365,111.33655 l -1670.04834,0 z"
           id="path13" />
        <path
           inkscape:connector-curvature="0"
           style="fill:#ffffff;fill-rule:nonzero;stroke:none"
           d="m 1512.3039,542.1037 c -7.0498,-11.7197 -15.6645,-16.4066 -28.98,-17.1875 -17.2309,-0.7825 -28.196,7.8121 -36.0282,27.3439 -5.4818,13.2831 -8.6147,33.59736 -8.6147,52.34829 0,23.43944 4.6978,47.65978 13.314,61.72375 7.0498,11.71972 16.4469,17.18913 30.5449,17.18913 16.4484,0 26.6295,-8.59456 34.4633,-28.1264 4.6993,-11.71972 8.6147,-33.59735 8.6147,-50.78648 0,-25.00124 -4.6994,-47.65819 -13.314,-62.50469 z m 24.2791,152.35484 c -12.5331,17.19067 -30.5465,25.00279 -54.0431,25.00279 -31.3273,0 -50.9086,-12.50217 -64.2242,-39.84612 -9.3971,-18.75248 -15.6629,-48.44068 -15.6629,-75.00682 0,-36.72096 9.3987,-69.53589 24.2822,-90.63109 13.3125,-17.1906 31.3258,-25.0012 57.1713,-25.0012 28.1976,0 47.7773,12.5006 61.8753,39.8461 9.3971,19.5319 14.8805,47.65825 14.8805,75.78619 0,35.15916 -8.6147,70.31832 -24.2791,89.85015 z"
           id="path15" />
        <path
           inkscape:connector-curvature="0"
           style="fill:#ffffff;fill-rule:nonzero;stroke:none"
           d="m 629.6447,715.55527 0,-222.67467 35.6277,0 0,222.67467 -35.6277,0 z"
           id="path17" />
        <path
           inkscape:connector-curvature="0"
           style="fill:#ffffff;fill-rule:nonzero;stroke:none"
           d="M 833.93646,715.55527 777.5012,610.0778 l -23.51521,28.9073 0,76.57017 -35.27359,0 0,-222.67467 35.27359,0 0,88.2899 70.54408,-88.2899 45.46552,0 -68.97918,86.72655 73.6816,135.94812 -40.76155,0 z"
           id="path19" />
        <path
           inkscape:connector-curvature="0"
           style="fill:#ffffff;fill-rule:nonzero;stroke:none"
           d="m 1751.277,681.95792 c -11.7227,21.87763 -38.2874,37.50341 -65.636,37.50341 -27.347,0 -53.9147,-15.62578 -65.6344,-37.50341 -6.2503,-13.27998 -10.1579,-28.9073 -10.1579,-46.09643 l 0,-142.97929 35.1607,0 0,142.97929 c 0,28.90885 16.4082,47.65978 40.6316,47.65978 24.2219,0 40.6317,-18.75093 40.6317,-47.65978 l 0,-142.97929 35.1607,0 0,142.97929 c 0,17.18913 -3.9061,32.81645 -10.1564,46.09643 z"
           id="path21" />
        <path
           inkscape:connector-curvature="0"
           style="fill:#ffffff;fill-rule:nonzero;stroke:none"
           d="m 1881.1588,524.1337 0,191.42002 -35.3184,0 0,-191.42002 -51.0046,0 0,-31.2531 138.1099,0 0,31.2531 -51.7869,0 z"
           id="path23" />
        <path
           inkscape:connector-curvature="0"
           style="fill:#ffffff;fill-rule:nonzero;stroke:none"
           d="m 1315.3371,531.9489 c -5.4694,-3.1267 -8.5945,-3.9076 -20.3158,-3.9076 l -42.1919,0 0,54.69101 42.1919,0 c 10.9404,0 14.8464,-0.77936 20.3158,-3.90452 8.5961,-4.6885 14.0655,-14.06549 14.0655,-23.43939 0,-9.3771 -5.4694,-18.7525 -14.0655,-23.4395 z m 15.6273,183.60637 -35.9431,-96.88291 -42.1919,0 0,96.88291 -35.1623,0 0,-222.67307 73.4481,0 c 17.1907,0 28.9104,1.5633 39.8492,7.0327 19.535,9.3755 33.5989,32.8149 33.5989,55.4735 0,23.43939 -14.0639,46.87729 -34.3798,56.2543 l 39.0699,103.91257 -38.289,0 z"
           id="path25" />
        <path
           inkscape:connector-curvature="0"
           style="fill:#ffffff;fill-rule:nonzero;stroke:none"
           d="m 912.54935,715.55527 0,-222.67467 131.08955,0 0,35.1592 -95.97678,0 0,54.69251 64.76698,0 0,35.9416 -64.76698,0 0,60.9413 103.00018,0 0,35.94006 -138.11295,0 z"
           id="path27" />
        <path
           inkscape:connector-curvature="0"
           style="fill:#ffffff;fill-rule:nonzero;stroke:none"
           d="m 1966.3467,715.55527 0,-222.67467 131.0833,0 0,35.1592 -95.9659,0 0,54.69251 64.7608,0 0,35.9416 -64.7608,0 0,60.9413 103.0018,0 0,35.94006 -138.1192,0 z"
           id="path29" />
        <path
           inkscape:connector-curvature="0"
           style="fill:#ffffff;fill-rule:nonzero;stroke:none"
           d="m 534.75194,620.23417 c -4.68851,-1.56026 -7.03276,-1.56026 -14.84642,-1.56026 l -44.53772,0 0,60.9413 53.13383,0 c 17.97157,0 27.34704,-8.59611 27.34704,-25.78369 0,-14.84642 -8.59456,-28.9073 -21.09673,-33.59735 z m -7.81366,-92.19597 -51.57048,0 0,54.69256 42.19347,0 c 10.15791,0 14.84642,-1.56181 21.09673,-6.25031 7.8152,-6.25031 12.50216,-15.62575 12.50216,-25.78215 0,-14.8449 -8.59456,-22.6601 -24.22188,-22.6601 z m 28.91039,182.04921 c -7.81366,3.12361 -21.09673,5.46786 -31.25465,5.46786 l -84.38692,0 0,-222.67467 84.38692,0 c 35.16225,0 61.72685,24.2204 61.72685,56.2544 0,21.87604 -10.15637,38.28581 -31.25465,50.00553 23.44253,10.93882 36.72406,29.6882 36.72406,53.91009 0,24.22034 -14.84488,48.44068 -35.94161,57.03679 z"
           id="path31" />
      </g>
    </g>
  </g>
</svg>
