<?xml version="1.0" encoding="UTF-8" standalone="no"?>
<svg
   xmlns:dc="http://purl.org/dc/elements/1.1/"
   xmlns:cc="http://creativecommons.org/ns#"
   xmlns:rdf="http://www.w3.org/1999/02/22-rdf-syntax-ns#"
   xmlns:svg="http://www.w3.org/2000/svg"
   xmlns="http://www.w3.org/2000/svg"
   xmlns:sodipodi="http://sodipodi.sourceforge.net/DTD/sodipodi-0.dtd"
   xmlns:inkscape="http://www.inkscape.org/namespaces/inkscape"
   width="256.71259"
   height="147.21333"
   viewBox="0 0 724.49997 415.46874"
   version="1.1"
   id="svg2"
   inkscape:version="0.48.2 r9819"
   sodipodi:docname="MUTCD D12-2.svg">
  <metadata
     id="metadata62">
    <rdf:RDF>
      <cc:Work
         rdf:about="">
        <dc:format>image/svg+xml</dc:format>
        <dc:type
           rdf:resource="http://purl.org/dc/dcmitype/StillImage" />
        <dc:title></dc:title>
      </cc:Work>
    </rdf:RDF>
  </metadata>
  <defs
     id="defs60">
    <clipPath
       clipPathUnits="userSpaceOnUse"
       id="clipPath3564">
      <path
         inkscape:connector-curvature="0"
         d="m 63,43 512.622,0 0,313.129 L 63,356.129 63,43 z"
         id="path3566" />
    </clipPath>
  </defs>
  <sodipodi:namedview
     pagecolor="#ffffff"
     bordercolor="#666666"
     borderopacity="1"
     objecttolerance="10"
     gridtolerance="10"
     guidetolerance="10"
     inkscape:pageopacity="0"
     inkscape:pageshadow="2"
     inkscape:window-width="1280"
     inkscape:window-height="1004"
     id="namedview58"
     showgrid="false"
     fit-margin-top="0"
     fit-margin-left="0"
     fit-margin-right="0"
     fit-margin-bottom="0"
     inkscape:zoom="2.4413476"
     inkscape:cx="113.58584"
     inkscape:cy="27.761892"
     inkscape:window-x="-8"
     inkscape:window-y="-8"
     inkscape:window-maximized="1"
     inkscape:current-layer="svg2"
     showguides="true"
     inkscape:guide-bbox="true" />
  <polygon
     points="235,375 315,205 395,375 315,545 "
     id="polygon10"
     style="fill:none;stroke:#ffffff;stroke-width:40"
     transform="translate(19007.538,11169.368)" />
  <!-- draw the bicycle -->
  <!-- RIGHT -->
  <!-- LANE -->
  <!-- ONLY -->
  <path
     inkscape:connector-curvature="0"
     d="m 25.19603,1.6919874 674.10892,0 c 12.9329,0 23.5091,10.5762796 23.5091,23.5091096 l 0,365.061503 c 0,12.92578 -10.5762,23.50912 -23.5091,23.50912 l -674.10892,0 c -12.92931,0 -23.50911,-10.58334 -23.50911,-23.50912 l 0,-365.061503 c 0,-12.93283 10.5798,-23.5091096 23.50911,-23.5091096"
     style="fill:#ffffff;fill-opacity:1;fill-rule:nonzero;stroke:#000000;stroke-width:3.3866667;stroke-miterlimit:4;stroke-opacity:1;stroke-dasharray:none"
     id="path5153" />
  <path
     inkscape:connector-curvature="0"
     d="m 25.19603,12.000157 674.10892,0 c 7.2673,0 13.2151,5.94078 13.2151,13.20094 l 0,365.061503 c 0,7.25664 -5.9478,13.20095 -13.2151,13.20095 l -674.10892,0 c -7.2637,0 -13.208,-5.94431 -13.208,-13.20095 l 0,-365.061503 c 0,-7.26016 5.9443,-13.20094 13.208,-13.20094"
     style="fill:#155196;fill-opacity:1;fill-rule:evenodd;stroke:none"
     id="path5161" />
  <path
     inkscape:connector-curvature="0"
     d="m 543.77268,104.68546 0,-51.484383 -8.86177,0 0,33.9725 -23.65023,-33.9725 -9.03816,0 0,51.484383 9.03816,0 0,-35.408303 24.56745,35.408303 7.94455,0 z m -69.19383,-21.318363 -14.43567,0 7.22136,-17.3355 7.21431,17.3355 z m 18.97592,21.318363 -21.49828,-51.484383 -9.39447,0 -21.67467,51.484383 10.11061,0 5.06236,-12.096743 22.39786,0 5.05531,12.096743 9.94128,0 z m -77.6852,-25.650473 0,9.21103 8.48783,0 c -1.24177,4.699 -5.76438,8.12447 -10.8338,8.12447 -9.56028,0 -12.09675,-9.19691 -12.09675,-17.51541 0,-10.11061 4.87892,-17.33903 12.09675,-17.33903 4.52614,0 7.76111,2.52589 9.76842,6.858 l 9.38388,-3.24908 c -3.61597,-7.94456 -9.93775,-12.82348 -19.1523,-12.82348 -12.82347,0 -21.31131,10.83028 -21.31131,26.55359 0,13.3738 6.14186,26.761713 21.31131,26.761713 11.39119,0 20.40819,-8.699493 20.40819,-19.900193 l 0,-6.68161 -18.06222,0 z m -35.21428,-25.83391 -9.2075,0 0,51.484383 9.2075,0 0,-51.484383 z m -22.58483,51.484383 0,-51.484383 -9.21456,0 0,19.87197 -23.11752,0 0,-19.87197 -9.21103,0 0,51.484383 9.21103,0 0,-22.397863 23.11752,-0.18697 0,22.584833 9.21456,0 z m -53.29061,-10.477493 -8.12095,-4.3427 c -4.51555,4.88597 -7.0485,6.50522 -11.7475,6.50522 -7.76464,0 -12.46364,-6.50522 -12.46364,-17.70239 0,-7.94455 3.0727,-17.15205 12.46364,-17.15205 2.71286,0 6.14539,1.08655 8.13153,2.7058 1.44286,0.90312 2.16253,1.62631 3.61597,3.79589 l 8.12095,-4.33564 c -3.97228,-7.22841 -11.55348,-11.38061 -19.86845,-11.38061 -13.54314,0 -21.84753,10.30111 -21.84753,26.55359 0,16.07961 8.30439,26.761713 21.84753,26.761713 8.31497,0 16.07961,-4.18746 19.86845,-11.408823 m -53.28356,-41.00689 -9.21456,0 0,51.484383 9.21456,0 0,-51.484383 z m -22.57778,51.484383 0,-51.484383 -9.03816,0 -15.16592,30.53997 -14.98953,-30.53997 -9.04169,0 0,51.484383 9.04169,0 0,-31.432493 14.98953,31.432493 15.16592,-31.432493 0,31.432493 9.03816,0 z"
     style="fill:#ffffff;fill-opacity:1;fill-rule:evenodd;stroke:none"
     id="path5165" />
  <path
     inkscape:connector-curvature="0"
     d="m 315.66902,190.53749 0,-9.21808 -29.08652,0 0,-14.08642 15.34936,0 0,-9.398 -15.34936,0 0,-9.57086 28.17989,0 0,-9.20045 -37.57084,0 0,51.47381 38.47747,0 z m -47.15227,-42.44975 0,-9.02406 -38.65387,0 0,9.02406 14.81314,0 0,42.44975 9.03111,0 0,-42.44975 14.80962,0 z m -61.595,21.13844 -14.45684,0 7.23547,-17.34255 7.22137,17.34255 z m 18.96886,21.31131 -21.49828,-51.47381 -9.39447,0 -21.67467,51.47381 10.11414,0 5.06589,-12.10733 22.3908,0 5.05531,12.10733 9.94128,0 z m -56.54323,-42.44975 0,-9.02406 -38.65386,0 0,9.02406 14.81314,0 0,42.44975 9.03111,0 0,-42.44975 14.80961,0 z m -44.25244,27.44964 c 0,-5.59506 -2.88925,-10.47397 -7.40481,-12.81642 -2.88925,-1.45344 -7.40833,-2.89983 -14.27691,-4.33211 -6.31826,-1.45697 -8.12448,-2.71639 -8.12448,-5.61622 0,-3.24556 3.06564,-5.22464 8.31145,-5.22464 4.87539,0 9.03111,1.61925 12.27667,5.05178 l 6.86858,-6.13128 c -5.24228,-5.42219 -11.56406,-7.96219 -19.14525,-7.96219 -10.48103,0 -17.70239,5.7785 -17.70239,14.26633 0,3.26672 1.0795,6.3253 3.24908,8.68186 2.16605,2.52942 4.87186,3.78178 10.11414,5.05531 l 2.53295,0.72319 2.34597,0.53975 2.35303,0.72319 c 2.3495,0.52917 4.33563,1.25942 6.13833,1.98262 2.16958,1.09008 3.24556,2.70933 3.24556,4.699 0,3.79236 -4.69548,6.69219 -11.19364,6.69219 -5.78204,0 -9.93776,-1.99319 -13.72659,-6.50522 l -7.40481,5.78203 c 5.7785,6.67455 12.45659,9.95539 21.30426,9.95539 4.699,0 9.40153,-1.2947 13.00691,-3.45723 4.88245,-2.8963 7.23195,-6.86505 7.23195,-12.10733"
     style="fill:#ffffff;fill-opacity:1;fill-rule:evenodd;stroke:none"
     id="path5169" />
  <path
     inkscape:connector-curvature="0"
     d="m 640.93475,190.53749 0,-9.21808 -29.0936,0 0,-14.08642 15.3599,0 0,-9.398 -15.3599,0 0,-9.57086 28.194,0 0,-9.20045 -37.5779,0 0,51.47381 38.4775,0 z m -50.2144,-10.48103 -8.14564,-4.33211 c -4.50144,4.87186 -7.03439,6.49464 -11.73691,6.49464 -7.76112,0 -12.45659,-6.49464 -12.45659,-17.69181 0,-7.95161 3.07622,-17.16969 12.45659,-17.16969 2.71991,0 6.14538,1.08656 8.13505,2.71286 1.44286,0.89606 2.16958,1.61925 3.60186,3.78883 l 8.14564,-4.33211 c -3.97228,-7.22136 -11.56405,-11.37708 -19.88255,-11.37708 -13.53962,0 -21.84753,10.29406 -21.84753,26.55006 0,16.07961 8.30791,26.76172 21.84753,26.76172 8.3185,0 16.08313,-4.17689 19.88255,-11.40531 m -53.29414,-40.99278 -9.2075,0 0,51.47381 9.2075,0 0,-51.47381 z m -17.88936,51.47381 0,-7.95867 -29.25233,0 0,-43.51514 -9.21456,0 0,51.47381 38.46689,0 z m -59.42542,-25.83744 c 0,7.95866 -2.34597,17.51894 -12.10028,17.51894 -7.76111,0 -12.46363,-6.49464 -12.46363,-17.51894 0,-10.84087 4.70252,-17.34256 12.46363,-17.34256 7.76464,0 12.10028,6.50169 12.10028,17.34256 m 9.21809,-0.17287 c 0,-15.71625 -8.68539,-26.37719 -21.31837,-26.37719 -13.55019,0 -21.86516,10.11414 -21.86516,26.55006 0,13.01397 6.69219,26.76172 21.86516,26.76172 13.00692,0 21.31837,-10.86556 21.31837,-26.93459 m -59.2455,-9.76488 c 0,3.79588 -3.0727,6.3253 -7.59531,6.3253 l -14.99658,0 0,-12.82347 14.99658,0 c 4.52261,0 7.59531,2.52942 7.59531,6.49817 m 9.21102,0 c 0,-5.7785 -3.07269,-10.83734 -7.94808,-13.53962 -2.88925,-1.62983 -5.23875,-2.159 -9.21456,-2.159 l -24.03827,0 0,51.47381 9.398,0 0,-20.22828 14.64027,0 c 3.97581,0 6.32531,-0.36689 9.21456,-1.99319 4.87539,-2.71286 7.94808,-8.13859 7.94808,-13.55372"
     style="fill:#ffffff;fill-opacity:1;fill-rule:evenodd;stroke:none"
     id="path5173" />
  <path
     inkscape:connector-curvature="0"
     d="m 551.81249,261.3823 c 0,-5.588 -2.88925,-10.47398 -7.39775,-12.82348 -2.89631,-1.43933 -7.41186,-2.89277 -14.28045,-4.32505 -6.32177,-1.44992 -8.11388,-2.70933 -8.11388,-5.60917 0,-3.24555 3.06563,-5.23169 8.29733,-5.23169 4.87892,0 9.03111,1.6263 12.28372,5.05883 l 6.858,-6.14539 c -5.23522,-5.41514 -11.56053,-7.94455 -19.14172,-7.94455 -10.47397,0 -17.69886,5.77144 -17.69886,14.2628 0,3.25967 1.0795,6.33236 3.25261,8.67481 2.17311,2.52941 4.87892,3.78178 10.12119,5.06236 l 2.52236,0.72319 2.34598,0.5327 2.34244,0.73025 c 2.34597,0.53622 4.33917,1.25941 6.14539,1.97555 2.16958,1.08303 3.25261,2.71639 3.25261,4.699 0,3.79236 -4.70253,6.69925 -11.19364,6.69925 -5.78555,0 -9.94128,-2.00025 -13.73364,-6.51227 l -7.4048,5.78202 c 5.78203,6.68161 12.47069,9.9695 21.31836,9.9695 4.68842,0 9.38036,-1.30175 13.00339,-3.46075 4.86833,-2.89277 7.22136,-6.87564 7.22136,-12.11791 m -59.05853,-20.76803 c 0,3.78883 -2.89278,6.3253 -7.42244,6.3253 l -14.62617,0 0,-12.82347 14.62617,0 c 4.52966,0 7.42244,2.52236 7.42244,6.49817 m 10.29053,35.76814 -9.39447,-22.0345 c 5.23875,-2.89631 8.31497,-7.95161 8.31497,-13.73364 0,-5.78556 -3.07622,-10.83733 -7.94808,-13.54667 -2.71639,-1.6263 -5.06237,-2.16253 -8.85825,-2.16253 l -23.65728,0 0,51.47734 9.20397,0 0,-20.23181 13.73364,0 8.31497,20.23181 10.29053,0 z m -62.50517,-25.83039 c 0,7.95161 -2.34244,17.51189 -12.09322,17.51189 -7.77522,0 -12.47775,-6.49464 -12.47775,-17.51189 0,-10.84086 4.70253,-17.34256 12.47775,-17.34256 7.76464,0 12.09322,6.5017 12.09322,17.34256 m 9.21456,-0.17992 c 0,-15.7233 -8.67128,-26.38425 -21.30778,-26.38425 -13.54667,0 -21.86517,10.12825 -21.86517,26.56417 0,13.01397 6.69572,26.76172 21.86517,26.76172 12.98928,0 21.30778,-10.86908 21.30778,-26.94164 m -50.21086,-16.43944 0,-9.02759 -38.65387,0 0,9.02759 14.79903,0 0,42.44975 9.04522,0 0,-42.44975 14.80962,0 z m -47.14876,-9.02759 -9.21455,0 0,51.47734 9.21455,0 0,-51.47734 z m -22.58836,51.47734 0,-51.47734 -8.85119,0 0,33.95487 -23.65728,-33.95487 -9.03464,0 0,51.47734 9.03464,0 0,-35.40831 24.57097,35.40831 7.9375,0 z m -62.48753,-25.83039 c 0,7.95161 -2.3495,17.51189 -12.10733,17.51189 -7.77522,0 -12.46364,-6.49464 -12.46364,-17.51189 0,-10.84086 4.68842,-17.34256 12.46364,-17.34256 7.76111,0 12.10733,6.5017 12.10733,17.34256 m 9.20398,-0.17992 c 0,-15.7233 -8.66423,-26.38425 -21.31131,-26.38425 -13.55019,0 -21.85811,10.12825 -21.85811,26.56417 0,13.01397 6.67455,26.76172 21.85811,26.76172 13.00692,0 21.31131,-10.86908 21.31131,-26.94164 m -54.90634,26.01031 0,-51.47734 -9.03464,0 -15.18002,30.52234 -14.986,-30.52234 -9.02759,0 0,51.47734 9.02759,0 0,-31.42545 14.986,31.42545 15.18002,-31.42545 0,31.42545 9.03464,0 z"
     style="fill:#ffffff;fill-opacity:1;fill-rule:evenodd;stroke:none"
     id="path5177" />
  <path
     inkscape:connector-curvature="0"
     d="m 161.32874,346.68396 c 0,3.76062 -3.41488,6.46995 -8.27263,6.46995 l -14.58384,0 0,-13.50081 14.58384,0 c 4.67077,0 8.27263,3.05506 8.27263,7.03086 m -1.61572,-21.43125 c 0,3.05506 -2.7058,5.22464 -6.65691,5.22464 l -14.58384,0 0,-10.25877 14.58384,0 c 4.13808,0 6.65691,1.96144 6.65691,5.03413 m 10.795,21.96042 c 0,-4.85775 -2.16605,-8.83355 -6.64633,-12.05794 3.41489,-2.86456 5.03767,-6.46995 5.03767,-10.62567 0,-4.85069 -2.70581,-9.16869 -7.02734,-11.69106 -2.69875,-1.45344 -4.32153,-1.80269 -8.81591,-1.80269 l -23.93598,0 0,51.30094 23.20925,0 2.52589,0 c 2.69522,0 5.40456,-0.73025 7.91634,-2.16252 4.67783,-2.52236 7.73641,-7.74348 7.73641,-12.96106 m -53.07894,4.66372 -8.10684,-4.29683 c -4.49439,4.85069 -7.01322,6.46642 -11.69458,6.46642 -7.73289,0 -12.42131,-6.46642 -12.42131,-17.63889 0,-7.92339 3.06211,-17.09914 12.42131,-17.09914 2.70227,0 6.11717,1.08655 8.09978,2.69875 1.43933,0.90311 2.159,1.6263 3.5948,3.77119 l 8.10684,-4.30036 c -3.96523,-7.19666 -11.52173,-11.33828 -19.80142,-11.33828 -13.49728,0 -21.77345,10.25525 -21.77345,26.4407 0,16.02669 8.27617,26.67353 21.77345,26.67353 8.27969,0 16.01258,-4.17689 19.80142,-11.37709"
     style="fill:#ffffff;fill-opacity:1;fill-rule:evenodd;stroke:none"
     id="path5181" />
  <path
     inkscape:connector-curvature="0"
     d="m 574.24563,362.33671 0,-7.9375 -29.15356,0 0,-43.36344 -9.19339,0 0,51.30094 38.34695,0 z m -48.59514,0 0,-9.1828 -28.97011,0 0,-14.05114 15.29997,0 0,-9.34156 -15.29997,0 0,-9.54263 28.07053,0 0,-9.18281 -37.42973,0 0,51.30094 38.32931,0 z m -51.63961,0 0,-51.30094 -8.8265,0 0,33.83492 -23.57261,-33.83492 -8.99584,0 0,51.30094 8.99584,0 0,-35.27777 24.47572,35.27777 7.92339,0 z m -54.71584,0 0,-51.30094 -8.81944,0 0,33.83492 -23.57614,-33.83492 -8.99936,0 0,51.30094 8.99936,0 0,-35.27777 24.47925,35.27777 7.91633,0 z m -68.92219,-21.25486 -14.39686,0 7.19666,-17.26847 7.2002,17.26847 z m 18.89478,21.25486 -21.41714,-51.30094 -9.35567,0 -21.59353,51.30094 10.07534,0 5.03413,-12.065 22.32378,0 5.03414,12.065 9.89895,0 z m -61.01292,0 0,-51.30094 -9.1687,0 0,19.79789 -23.03991,0 0,-19.79789 -9.17575,0 0,51.30094 9.17575,0 0,-22.33083 23.03991,-0.173 0,22.50369 9.1687,0 z m -53.086,-10.45986 -8.09625,-4.29683 c -4.49439,4.85069 -7.02028,6.46642 -11.69811,6.46642 -7.73289,0 -12.41778,-6.46642 -12.41778,-17.63889 0,-7.92339 3.06211,-17.09914 12.41778,-17.09914 2.70227,0 6.11363,1.08655 8.09977,2.69875 1.43934,0.90311 2.16253,1.6263 3.59834,3.77119 l 8.09625,-4.30036 c -3.9617,-7.19666 -11.51467,-11.33828 -19.79436,-11.33828 -13.49728,0 -21.77698,10.25525 -21.77698,26.4407 0,16.02669 8.2797,26.67353 21.77698,26.67353 8.27969,0 16.01258,-4.17689 19.79436,-11.37709"
     style="fill:#ffffff;fill-opacity:1;fill-rule:evenodd;stroke:none"
     id="path5185" />
  <path
     inkscape:connector-curvature="0"
     d="m 637.02245,325.77835 c 0,3.80295 -4.3286,6.51228 -10.4528,6.51228 -6.6464,0 -10.9644,-2.70933 -10.9644,-6.51228 0,-3.94758 4.318,-6.46994 10.788,-6.46994 6.3006,0 10.6292,2.69875 10.6292,6.46994 m 10.7985,5.40103 c 0,-6.82272 -1.7992,-11.87097 -6.1207,-15.64569 -3.9723,-3.42548 -9.3627,-5.39398 -15.6633,-5.39398 -11.5147,0 -19.6109,6.47348 -19.6109,15.63864 0,8.99936 8.0962,15.67392 19.251,15.67392 4.1452,0 7.0168,-0.37042 11.5182,-1.79917 -2.5223,5.57389 -5.2211,8.62189 -9.8989,11.3277 -3.5983,2.00025 -7.3731,2.88925 -12.5942,2.88925 l -0.9031,0 0,9.38389 c 8.8195,0 14.7567,-1.64748 20.5211,-5.78203 8.8159,-5.94431 13.5008,-15.494 13.5008,-26.29253"
     style="fill:#ffffff;fill-opacity:1;fill-rule:evenodd;stroke:none"
     id="path5189" />
</svg>
