<?xml version="1.0" encoding="UTF-8" standalone="no"?>
<svg
   xmlns:dc="http://purl.org/dc/elements/1.1/"
   xmlns:cc="http://creativecommons.org/ns#"
   xmlns:rdf="http://www.w3.org/1999/02/22-rdf-syntax-ns#"
   xmlns:svg="http://www.w3.org/2000/svg"
   xmlns="http://www.w3.org/2000/svg"
   xmlns:sodipodi="http://sodipodi.sourceforge.net/DTD/sodipodi-0.dtd"
   xmlns:inkscape="http://www.inkscape.org/namespaces/inkscape"
   width="127.51476"
   height="127.51476"
   viewBox="0 0 359.875 359.87498"
   version="1.1"
   id="svg2"
   inkscape:version="0.48.2 r9819"
   sodipodi:docname="MUTCD D12-5.svg">
  <metadata
     id="metadata62">
    <rdf:RDF>
      <cc:Work
         rdf:about="">
        <dc:format>image/svg+xml</dc:format>
        <dc:type
           rdf:resource="http://purl.org/dc/dcmitype/StillImage" />
        <dc:title></dc:title>
      </cc:Work>
    </rdf:RDF>
  </metadata>
  <defs
     id="defs60">
    <clipPath
       clipPathUnits="userSpaceOnUse"
       id="clipPath3564">
      <path
         inkscape:connector-curvature="0"
         d="m 63,43 512.622,0 0,313.129 L 63,356.129 63,43 z"
         id="path3566" />
    </clipPath>
  </defs>
  <sodipodi:namedview
     pagecolor="#ffffff"
     bordercolor="#666666"
     borderopacity="1"
     objecttolerance="10"
     gridtolerance="10"
     guidetolerance="10"
     inkscape:pageopacity="0"
     inkscape:pageshadow="2"
     inkscape:window-width="1280"
     inkscape:window-height="1004"
     id="namedview58"
     showgrid="false"
     fit-margin-top="0"
     fit-margin-left="0"
     fit-margin-right="0"
     fit-margin-bottom="0"
     inkscape:zoom="2.4413476"
     inkscape:cx="16.617858"
     inkscape:cy="39.490763"
     inkscape:window-x="-8"
     inkscape:window-y="-8"
     inkscape:window-maximized="1"
     inkscape:current-layer="svg2"
     showguides="true"
     inkscape:guide-bbox="true" />
  <polygon
     points="395,375 315,545 235,375 315,205 "
     id="polygon10"
     style="fill:none;stroke:#ffffff;stroke-width:40"
     transform="translate(15553.726,12281.274)" />
  <!-- draw the bicycle -->
  <!-- RIGHT -->
  <!-- LANE -->
  <!-- ONLY -->
  <path
     inkscape:connector-curvature="0"
     d="m 23.3229,1.7046385 313.2279,0 c 11.9133,0 21.6288,9.7155015 21.6288,21.6358635 l 0,313.210248 c 0,11.92036 -9.7155,21.63586 -21.6288,21.63586 l -313.2279,0 c -11.9133,0 -21.6288,-9.7155 -21.6288,-21.63586 l 0,-313.210248 c 0,-11.920362 9.7155,-21.6358635 21.6288,-21.6358635"
     style="fill:#ffffff;fill-opacity:1;fill-rule:nonzero;stroke:#000000;stroke-width:3.38666669;stroke-linecap:butt;stroke-linejoin:miter;stroke-miterlimit:4;stroke-opacity:1;stroke-dasharray:none"
     id="path5621" />
  <path
     inkscape:connector-curvature="0"
     d="m 336.4203,10.975668 c 7.0414,0.162278 12.2237,5.5245 12.4918,12.488334 l -0.028,313.735888 c -0.5256,6.60753 -5.8102,11.63814 -12.4636,11.72633 L 22.674,348.89092 C 16.1159,348.37586 10.983,343.09125 10.9618,336.43433 L 10.9828,22.7055 c 0.4868,-6.57225 5.8349,-11.705168 12.4566,-11.729862 l 312.9809,0"
     style="fill:#155196;fill-opacity:1;fill-rule:evenodd;stroke:none"
     id="path5625" />
  <path
     inkscape:connector-curvature="0"
     d="m 57.112,288.73175 c -11.43,0 -18.4397,-8.98878 -18.4397,-22.54956 0,-13.71953 7.0097,-22.40139 18.4397,-22.40139 7.0132,0 13.4161,3.49956 16.764,9.59908 l -6.858,3.65831 c -1.2171,-1.82739 -1.8309,-2.4377 -3.0516,-3.19617 -1.6721,-1.37936 -4.5684,-2.28953 -6.8544,-2.28953 -7.9234,0 -10.5163,7.77523 -10.5163,14.47801 0,9.44739 3.9617,14.92955 10.5163,14.92955 3.9617,0 6.096,-1.36878 9.906,-5.48216 l 6.858,3.6583 c -3.1962,6.096 -9.7508,9.59556 -16.764,9.59556"
     style="fill:#ffffff;fill-opacity:1;fill-rule:nonzero;stroke:none"
     id="path5629" />
  <path
     inkscape:connector-curvature="0"
     d="m 102.07,255.36249 -6.096,14.6297 12.1885,0 -6.0925,-14.6297 z m 13.7125,32.61431 -4.2651,-10.21291 -18.9019,0 -4.2651,10.21291 -8.5301,0 18.288,-43.43753 7.9234,0 18.1363,43.43753 -8.3855,0 z"
     style="fill:#ffffff;fill-opacity:1;fill-rule:nonzero;stroke:none"
     id="path5633" />
  <path
     inkscape:connector-curvature="0"
     d="m 131.6292,287.97677 0,-43.43753 7.7717,0 0,36.73123 24.6874,0 0,6.7063 -32.4591,0 z"
     style="fill:#ffffff;fill-opacity:1;fill-rule:nonzero;stroke:none"
     id="path5637" />
  <path
     inkscape:connector-curvature="0"
     d="m 171.5566,287.97677 0,-43.43753 7.7717,0 0,36.73123 24.6874,0 0,6.7063 -32.4591,0 z"
     style="fill:#ffffff;fill-opacity:1;fill-rule:nonzero;stroke:none"
     id="path5641" />
  <path
     inkscape:connector-curvature="0"
     d="m 259.483,288.73175 c -5.9443,0 -11.2783,-1.52047 -16.764,-4.86834 l 4.1134,-6.55461 c 3.81,2.28247 8.2338,3.49956 12.6506,3.49956 6.5546,0 10.5163,-2.89278 10.5163,-7.7717 0,-2.27894 -1.0689,-4.56847 -2.7446,-5.93725 -1.5205,-1.22061 -3.81,-1.83444 -7.0062,-1.83444 -2.8998,0 -5.1823,0.46214 -8.3855,1.68275 l -7.7717,-1.98614 1.3723,-20.42231 28.9524,0 -0.1516,7.62 -21.4842,0 -0.4622,6.25123 c 3.5067,-0.76553 5.641,-1.06892 8.3856,-1.06892 9.906,0 17.0674,6.70278 17.0674,15.69508 0,9.144 -7.62,15.69509 -18.288,15.69509"
     style="fill:#ffffff;fill-opacity:1;fill-rule:nonzero;stroke:none"
     id="path5645" />
  <path
     inkscape:connector-curvature="0"
     d="m 290.5733,287.97677 0.1515,-32.46261 -5.4857,0 -0.1515,-6.24769 c 3.3478,-0.76553 5.1823,-1.98614 6.8544,-4.72723 l 6.2513,0 0,43.43753 -7.62,0 z"
     style="fill:#ffffff;fill-opacity:1;fill-rule:nonzero;stroke:none"
     id="path5649" />
  <path
     inkscape:connector-curvature="0"
     d="m 313.5779,287.97677 0.1516,-32.46261 -5.4857,0 -0.1519,-6.24769 c 3.3514,-0.76553 5.1823,-1.98614 6.858,-4.72723 l 6.2477,0 0,43.43753 -7.62,0 z"
     style="fill:#ffffff;fill-opacity:1;fill-rule:nonzero;stroke:none"
     id="path5653" />
  <path
     inkscape:connector-curvature="0"
     d="m 109.8346,158.09353 7.7717,0 0,43.43753 -7.7717,0 0,-43.43753 z"
     style="fill:#ffffff;fill-opacity:1;fill-rule:nonzero;stroke:none"
     id="path5655" />
  <path
     inkscape:connector-curvature="0"
     d="m 157.0751,201.5321 -20.7257,-29.8697 0,29.8697 -7.6129,0 0,-43.43753 7.6129,0 19.9672,28.64909 0,-28.64909 7.4683,0 0,43.43753 -6.7098,0 z"
     style="fill:#ffffff;fill-opacity:1;fill-rule:nonzero;stroke:none"
     id="path5659" />
  <path
     inkscape:connector-curvature="0"
     d="m 182.9831,165.86627 0,8.84061 13.5643,0 0,7.92339 -13.5643,0 0,18.90183 -7.9269,0 0,-43.43753 32.4626,0 0,7.7717 -24.5357,0 z"
     style="fill:#ffffff;fill-opacity:1;fill-rule:nonzero;stroke:none"
     id="path5663" />
  <path
     inkscape:connector-curvature="0"
     d="m 232.0545,165.10779 c -6.5546,0 -10.5163,5.4857 -10.5163,14.6297 0,9.29569 3.9617,14.77786 10.5163,14.77786 8.2268,0 10.2094,-8.07508 10.2094,-14.77786 0,-9.144 -3.6583,-14.6297 -10.2094,-14.6297 m 0,37.18278 c -12.8023,0 -18.4397,-11.58522 -18.4397,-22.55308 0,-13.87122 7.0062,-22.40139 18.4397,-22.40139 10.6645,0 17.9811,8.9923 17.9811,22.24969 0,13.56078 -7.0132,22.70478 -17.9811,22.70478"
     style="fill:#ffffff;fill-opacity:1;fill-rule:nonzero;stroke:none"
     id="path5667" />
  <path
     inkscape:connector-curvature="0"
     d="m 75.5552,78.790117 0,35.814003 -7.62,0 0,-35.814003 -12.4989,0 0,-7.623528 32.6108,0 0,7.623528 -12.4919,0 z"
     style="fill:#ffffff;fill-opacity:1;fill-rule:nonzero;stroke:none"
     id="path5671" />
  <path
     inkscape:connector-curvature="0"
     d="m 115.4791,78.941812 -12.3402,0 0,10.823223 12.3402,0 c 3.81,0 6.2477,-2.134306 6.2477,-5.341056 0,-3.347861 -2.4377,-5.482167 -6.2477,-5.482167 m 6.2477,35.662308 -7.0133,-17.06739 -11.5746,0 0,17.06739 -7.7717,0 0,-43.437531 19.9602,0 c 3.1961,0 5.1823,0.458611 7.4683,1.830917 4.1134,2.282472 6.7028,6.558139 6.7028,11.426473 0,4.878917 -2.5894,9.144001 -7.0133,11.585223 l 7.9305,18.594918 -8.6889,0 z"
     style="fill:#ffffff;fill-opacity:1;fill-rule:nonzero;stroke:none"
     id="path5675" />
  <path
     inkscape:connector-curvature="0"
     d="m 157.3855,81.99334 -6.0995,14.626168 12.1955,0 -6.096,-14.626168 z m 13.716,32.61078 -4.2721,-10.20939 -18.8913,0 -4.265,10.20939 -8.5373,0 18.288,-43.437531 7.9234,0 18.1328,43.437531 -8.3785,0 z"
     style="fill:#ffffff;fill-opacity:1;fill-rule:nonzero;stroke:none"
     id="path5679" />
  <path
     inkscape:connector-curvature="0"
     d="m 207.3671,114.60415 -8.3785,0 -15.9984,-43.437533 8.3784,0 11.8851,31.704143 11.8851,-31.704143 8.3855,0 -16.1572,43.437533 z"
     style="fill:#ffffff;fill-opacity:1;fill-rule:nonzero;stroke:none"
     id="path5683" />
  <path
     inkscape:connector-curvature="0"
     d="m 230.8335,114.60415 0,-43.437533 31.6936,0 0,7.775223 -23.7702,0 0,8.075084 12.954,0 0,7.930445 -12.954,0 0,11.885091 24.5357,0 0,7.77169 -32.4591,0 z"
     style="fill:#ffffff;fill-opacity:1;fill-rule:nonzero;stroke:none"
     id="path5687" />
  <path
     inkscape:connector-curvature="0"
     d="m 271.9815,114.60415 0,-43.437533 7.7717,0 0,36.727703 24.6874,0 0,6.70983 -32.4591,0 z"
     style="fill:#ffffff;fill-opacity:1;fill-rule:nonzero;stroke:none"
     id="path5691" />
</svg>
