<?xml version="1.0" encoding="UTF-8" standalone="no"?>
<svg
   xmlns:dc="http://purl.org/dc/elements/1.1/"
   xmlns:cc="http://creativecommons.org/ns#"
   xmlns:rdf="http://www.w3.org/1999/02/22-rdf-syntax-ns#"
   xmlns:svg="http://www.w3.org/2000/svg"
   xmlns="http://www.w3.org/2000/svg"
   xmlns:sodipodi="http://sodipodi.sourceforge.net/DTD/sodipodi-0.dtd"
   xmlns:inkscape="http://www.inkscape.org/namespaces/inkscape"
   width="186.38902"
   height="128.9653"
   viewBox="0 0 526.03125 363.96874"
   version="1.1"
   id="svg2"
   inkscape:version="0.48.2 r9819"
   sodipodi:docname="MUTCD D12-1.svg">
  <metadata
     id="metadata62">
    <rdf:RDF>
      <cc:Work
         rdf:about="">
        <dc:format>image/svg+xml</dc:format>
        <dc:type
           rdf:resource="http://purl.org/dc/dcmitype/StillImage" />
        <dc:title></dc:title>
      </cc:Work>
    </rdf:RDF>
  </metadata>
  <defs
     id="defs60">
    <clipPath
       clipPathUnits="userSpaceOnUse"
       id="clipPath3564">
      <path
         inkscape:connector-curvature="0"
         d="m 63,43 512.622,0 0,313.129 L 63,356.129 63,43 z"
         id="path3566" />
    </clipPath>
  </defs>
  <sodipodi:namedview
     pagecolor="#ffffff"
     bordercolor="#666666"
     borderopacity="1"
     objecttolerance="10"
     gridtolerance="10"
     guidetolerance="10"
     inkscape:pageopacity="0"
     inkscape:pageshadow="2"
     inkscape:window-width="1280"
     inkscape:window-height="1004"
     id="namedview58"
     showgrid="false"
     fit-margin-top="0"
     fit-margin-left="0"
     fit-margin-right="0"
     fit-margin-bottom="0"
     inkscape:zoom="2.4413476"
     inkscape:cx="97.985521"
     inkscape:cy="46.543017"
     inkscape:window-x="-8"
     inkscape:window-y="-8"
     inkscape:window-maximized="1"
     inkscape:current-layer="svg2"
     showguides="true"
     inkscape:guide-bbox="true" />
  <polygon
     points="315,205 395,375 315,545 235,375 "
     id="polygon10"
     style="fill:none;stroke:#ffffff;stroke-width:40"
     transform="translate(19408.444,10361.306)" />
  <!-- draw the bicycle -->
  <!-- RIGHT -->
  <!-- LANE -->
  <!-- ONLY -->
  <path
     inkscape:connector-curvature="0"
     d="m 25.7131,1.6983973 474.5955,0 c 13.2221,0 24.0206,10.8090997 24.0206,24.0205997 l 0,312.539993 c 0,13.208 -10.7985,24.02064 -24.0206,24.02064 l -474.5955,0 c -13.2221,0 -24.0242,-10.81264 -24.0242,-24.02064 l 0,-312.539993 c 0,-13.0598 10.9679,-24.0205997 24.0242,-24.0205997"
     style="fill:#ffffff;fill-opacity:1;fill-rule:nonzero;stroke:#000000;stroke-width:3.38666672;stroke-miterlimit:4;stroke-opacity:1;stroke-dasharray:none"
     id="path5389" />
  <path
     inkscape:connector-curvature="0"
     d="m 500.1851,11.992397 c 7.7047,0.2223 13.6913,6.1031 13.8501,13.8571 l -0.035,313.115023 c -0.501,7.28838 -6.4911,12.96458 -13.8148,13.01397 L 24.9972,351.95589 C 17.7265,351.44083 12.015,345.44361 11.9903,338.127 l 0.025,-313.113603 c 0.5398,-7.2742 6.4841,-12.9857 13.8148,-13.021 l 474.3556,0"
     style="fill:#155196;fill-opacity:1;fill-rule:evenodd;stroke:none"
     id="path5413" />
  <path
     inkscape:connector-curvature="0"
     d="m 104.8764,93.961797 c -2.1978,3.3372 -4.9847,6.0183 -8.3467,8.046803 -3.6442,2.1661 -7.4683,3.2491 -11.4829,3.2491 -6.4311,0 -11.7369,-2.6811 -15.9244,-8.043303 -3.9828,-5.0518 -5.976,-11.1337 -5.976,-18.2492 0,-6.8369 1.8203,-12.7671 5.4645,-17.7836 4.1557,-5.6726 9.6485,-8.509 16.4818,-8.509 4.0534,0 7.9869,1.1184 11.7969,3.355 3.6724,2.166 6.3323,4.8119 7.9868,7.9445 l -8.4419,4.5897 c -2.9845,-4.3921 -6.8157,-6.5864 -11.4794,-6.5864 -4.2863,0 -7.5107,1.7498 -9.6732,5.2493 -1.8873,2.9881 -2.8328,6.9004 -2.8328,11.7405 0,4.7378 1.0125,8.6501 3.041,11.7404 2.293,3.4996 5.468,5.2494 9.5214,5.2494 3.7324,0 7.4966,-2.159 11.2642,-6.4806 l 8.6007,4.4874 z"
     style="fill:#ffffff;fill-opacity:1;fill-rule:nonzero;stroke:none"
     id="path5429" />
  <path
     inkscape:connector-curvature="0"
     d="m 145.714,83.616197 -7.366,-17.6812 -7.4224,17.6812 14.7884,0 z m 18.9054,21.103203 -10.0471,0 -4.946,-11.804003 -22.5566,0 -4.9495,11.804003 -10.0436,0 21.5301,-51.509103 9.4262,0 21.5865,51.509103 z"
     style="fill:#ffffff;fill-opacity:1;fill-rule:nonzero;stroke:none"
     id="path5433" />
  <path
     inkscape:connector-curvature="0"
     d="m 205.3405,69.053497 c 0,-1.6827 -0.7091,-3.1926 -2.1272,-4.5332 -1.4217,-1.3405 -2.9916,-2.0108 -4.699,-2.0108 l -15.8292,0 0,12.8799 15.9315,0 c 1.7074,0 3.2596,-0.635 4.6425,-1.9085 1.3935,-1.27 2.0814,-2.7446 2.0814,-4.4274 m 0.5997,13.9312 9.1722,21.734703 -10.0894,0 -8.4878,-20.030803 -13.8501,0 0,20.030803 -9.2992,0 0,-51.509103 25.3894,0 c 4.3251,0 8.0469,1.5275 11.176,4.5861 3.1221,3.055 4.6708,6.798 4.6355,11.2289 -0.035,3.1574 -0.8325,5.9655 -2.3954,8.4208 -1.5592,2.4553 -3.6406,4.3004 -6.2512,5.5386"
     style="fill:#ffffff;fill-opacity:1;fill-rule:nonzero;stroke:none"
     id="path5437" />
  <path
     inkscape:connector-curvature="0"
     d="m 299.1159,69.053497 c 0,-1.6827 -0.7091,-3.1926 -2.1343,-4.5332 -1.4217,-1.3405 -2.9916,-2.0108 -4.7061,-2.0108 l -16.3512,0 0,12.8799 16.4535,0 c 1.7145,0 3.2668,-0.635 4.6567,-1.9085 1.3864,-1.27 2.0814,-2.7446 2.0814,-4.4274 m 9.2392,0 c -0.032,4.5403 -1.598,8.2833 -4.6848,11.2254 -3.0868,2.9422 -6.7945,4.4097 -11.1196,4.4097 l -16.6264,0 0,20.030803 -9.3028,0 0,-51.509103 25.9151,0 c 4.325,0 8.0539,1.531 11.183,4.5931 3.1292,3.0622 4.6708,6.8122 4.6355,11.2501"
     style="fill:#ffffff;fill-opacity:1;fill-rule:nonzero;stroke:none"
     id="path5441" />
  <path
     inkscape:connector-curvature="0"
     d="m 349.8348,78.961697 c 0,-4.6002 -1.0478,-8.5478 -3.1468,-11.8428 -2.3707,-3.7077 -5.5422,-5.5633 -9.4968,-5.5633 -3.9194,0 -7.0626,1.8556 -9.4403,5.5633 -2.1273,3.295 -3.1962,7.2426 -3.1962,11.8428 0,4.5649 1.0689,8.4949 3.1962,11.7933 2.3777,3.7077 5.5209,5.5598 9.4403,5.5598 3.9546,0 7.1261,-1.8521 9.4968,-5.5598 2.099,-3.2984 3.1468,-7.2284 3.1468,-11.7933 m 8.9993,0 c 0,7.0379 -1.9367,13.1127 -5.8243,18.2245 -4.1522,5.457403 -9.4227,8.187903 -15.8186,8.187903 -6.3853,0 -11.6593,-2.7305 -15.8115,-8.187903 -3.8876,-5.1118 -5.8314,-11.1866 -5.8314,-18.2245 0,-7.0344 1.9438,-13.1092 5.8314,-18.2245 4.1522,-5.4575 9.4262,-8.1845 15.8115,-8.1845 6.3959,0 11.6664,2.727 15.8186,8.1845 3.8876,5.1153 5.8243,11.1901 5.8243,18.2245"
     style="fill:#ffffff;fill-opacity:1;fill-rule:nonzero;stroke:none"
     id="path5445" />
  <path
     inkscape:connector-curvature="0"
     d="m 403.4076,78.961697 c 0,-4.6002 -1.0478,-8.5478 -3.1503,-11.8428 -2.3707,-3.7077 -5.5316,-5.5633 -9.4933,-5.5633 -3.9229,0 -7.0626,1.8556 -9.4403,5.5633 -2.1308,3.295 -3.1962,7.2426 -3.1962,11.8428 0,4.5649 1.0654,8.4949 3.1962,11.7933 2.3777,3.7077 5.5174,5.5598 9.4403,5.5598 3.9617,0 7.1226,-1.8521 9.4933,-5.5598 2.1025,-3.2984 3.1503,-7.2284 3.1503,-11.7933 m 8.9958,0 c 0,7.0379 -1.9332,13.1127 -5.8208,18.2245 -4.1557,5.457403 -9.4262,8.187903 -15.8186,8.187903 -6.3888,0 -11.6593,-2.7305 -15.815,-8.187903 -3.8841,-5.1118 -5.8279,-11.1866 -5.8279,-18.2245 0,-7.0344 1.9438,-13.1092 5.8279,-18.2245 4.1557,-5.4575 9.4262,-8.1845 15.815,-8.1845 6.3924,0 11.6629,2.727 15.8186,8.1845 3.8876,5.1153 5.8208,11.1901 5.8208,18.2245"
     style="fill:#ffffff;fill-opacity:1;fill-rule:nonzero;stroke:none"
     id="path5449" />
  <path
     inkscape:connector-curvature="0"
     d="m 462.8753,104.7208 -38.6327,0 0,-51.512603 9.3028,0 0,42.2134 29.3299,0 0,9.299203 z"
     style="fill:#ffffff;fill-opacity:1;fill-rule:nonzero;stroke:none"
     id="path5453" />
  <path
     inkscape:connector-curvature="0"
     d="m 188.8658,207.74284 -9.3028,0 0,-51.51264 9.3028,0 0,51.51264 z"
     style="fill:#ffffff;fill-opacity:1;fill-rule:nonzero;stroke:none"
     id="path5455" />
  <path
     inkscape:connector-curvature="0"
     d="m 243.9591,207.74458 -9.2992,0 c -4.184,-6.25118 -11.8922,-17.80468 -23.1317,-34.66748 l 0,34.66748 -9.3027,0 0,-51.51258 9.2745,0 23.181,34.7698 -0.021,-34.7698 9.2993,0 0,51.51258 z"
     style="fill:#ffffff;fill-opacity:1;fill-rule:nonzero;stroke:none"
     id="path5459" />
  <path
     inkscape:connector-curvature="0"
     d="m 295.9762,165.5337 -29.3335,0 0,10.2552 16.4536,0 0,9.2993 -16.4536,0 0,22.65534 -9.3027,0 0,-51.51264 38.6362,0 0,9.3028 z"
     style="fill:#ffffff;fill-opacity:1;fill-rule:nonzero;stroke:none"
     id="path5463" />
  <path
     inkscape:connector-curvature="0"
     d="m 337.4664,181.9837 c 0,-4.6002 -1.0548,-8.5478 -3.1468,-11.8427 -2.3777,-3.7077 -5.5421,-5.5633 -9.4968,-5.5633 -3.9193,0 -7.0697,1.8556 -9.4403,5.5633 -2.1343,3.2949 -3.1962,7.2425 -3.1962,11.8427 0,4.565 1.0619,8.4949 3.1962,11.7934 2.3706,3.7077 5.521,5.5598 9.4403,5.5598 3.9547,0 7.1191,-1.8521 9.4968,-5.5598 2.092,-3.2985 3.1468,-7.2284 3.1468,-11.7934 m 8.9993,0 c 0,7.0379 -1.9438,13.1128 -5.8208,18.228 -4.1557,5.45399 -9.4333,8.18449 -15.8221,8.18449 -6.3853,0 -11.6558,-2.7305 -15.8185,-8.18449 -3.8806,-5.1152 -5.8244,-11.1901 -5.8244,-18.228 0,-7.0344 1.9438,-13.1092 5.8244,-18.2245 4.1627,-5.4575 9.4332,-8.1844 15.8185,-8.1844 6.3888,0 11.6664,2.7269 15.8221,8.1844 3.877,5.1153 5.8208,11.1901 5.8208,18.2245"
     style="fill:#ffffff;fill-opacity:1;fill-rule:nonzero;stroke:none"
     id="path5467" />
  <path
     inkscape:connector-curvature="0"
     d="m 73.4298,300.00588 c -2.2013,3.33728 -4.9847,6.01839 -8.3467,8.04686 -3.6442,2.16959 -7.4683,3.24909 -11.4864,3.24909 -6.4206,0 -11.7264,-2.68111 -15.9138,-8.04334 -3.99,-5.04825 -5.9832,-11.13366 -5.9832,-18.24566 0,-6.84037 1.8204,-12.77056 5.4646,-17.78706 4.1557,-5.67267 9.6485,-8.509 16.4818,-8.509 4.0534,0 7.9868,1.11831 11.7968,3.35492 3.6725,2.16605 6.3395,4.81189 7.9869,7.94455 l -8.4419,4.58964 c -2.9845,-4.39208 -6.8157,-6.58636 -11.4794,-6.58636 -4.2863,0 -7.5107,1.74978 -9.6732,5.24933 -1.8874,2.98803 -2.8328,6.90034 -2.8328,11.74398 0,4.73427 1.0125,8.65011 3.0374,11.73691 2.3037,3.50309 5.4716,5.25286 9.525,5.25286 3.7324,0 7.4965,-2.16252 11.2713,-6.48405 l 8.5936,4.48733 z"
     style="fill:#ffffff;fill-opacity:1;fill-rule:nonzero;stroke:none"
     id="path5471" />
  <path
     inkscape:connector-curvature="0"
     d="m 114.2674,289.65891 -7.366,-17.68122 -7.4225,17.68122 14.7885,0 z m 18.9054,21.10669 -10.0472,0 -4.9459,-11.80394 -22.5566,0 -4.9495,11.80394 -10.0436,0 21.5301,-51.50908 9.4262,0 21.5865,51.50908 z"
     style="fill:#ffffff;fill-opacity:1;fill-rule:nonzero;stroke:none"
     id="path5475" />
  <path
     inkscape:connector-curvature="0"
     d="m 180.579,310.7656 -38.6362,0 0,-51.50908 9.2957,0 0,42.20986 29.3405,0 0,9.29922 z"
     style="fill:#ffffff;fill-opacity:1;fill-rule:nonzero;stroke:none"
     id="path5479" />
  <path
     inkscape:connector-curvature="0"
     d="m 227.9677,310.7656 -38.6327,0 0,-51.50908 9.2957,0 0,42.20986 29.337,0 0,9.29922 z"
     style="fill:#ffffff;fill-opacity:1;fill-rule:nonzero;stroke:none"
     id="path5483" />
  <path
     inkscape:connector-curvature="0"
     d="m 384.0856,300.00588 c -2.1978,3.33728 -4.9812,6.01839 -8.3432,8.04686 -3.6371,2.16959 -7.4683,3.24909 -11.4865,3.24909 -6.4205,0 -11.7263,-2.68111 -15.9173,-8.04334 -3.9828,-5.04825 -5.9725,-11.13366 -5.9725,-18.24566 0,-6.84037 1.8203,-12.77056 5.4575,-17.78706 4.1557,-5.67267 9.6449,-8.509 16.4817,-8.509 4.0499,0 7.9834,1.11831 11.7934,3.35492 3.6724,2.16605 6.3394,4.81189 7.9869,7.94455 l -8.4385,4.58964 c -2.9845,-4.39208 -6.8086,-6.58636 -11.4793,-6.58636 -4.2863,0 -7.5107,1.74978 -9.6767,5.24933 -1.8874,2.98803 -2.8293,6.90034 -2.8293,11.74398 0,4.73427 1.0125,8.65011 3.0374,11.73691 2.3001,3.50309 5.4716,5.25286 9.5215,5.25286 3.7429,0 7.4965,-2.16252 11.2747,-6.48405 l 8.5902,4.48733 z"
     style="fill:#ffffff;fill-opacity:1;fill-rule:nonzero;stroke:none"
     id="path5487" />
  <path
     inkscape:connector-curvature="0"
     d="m 424.9235,289.65891 -7.366,-17.68122 -7.4189,17.68122 14.7849,0 z m 18.9089,21.10669 -10.0471,0 -4.946,-11.80394 -22.5601,0 -4.9459,11.80394 -10.0472,0 21.5336,-51.50908 9.4227,0 21.59,51.50908 z"
     style="fill:#ffffff;fill-opacity:1;fill-rule:nonzero;stroke:none"
     id="path5491" />
  <path
     inkscape:connector-curvature="0"
     d="m 484.5606,275.09621 c 0,-1.68275 -0.7197,-3.19263 -2.1378,-4.53319 -1.4182,-1.33703 -2.9916,-2.00731 -4.699,-2.00731 l -15.8186,0 0,12.87639 15.9209,0 c 1.7109,0 3.2596,-0.635 4.6531,-1.905 1.3829,-1.27 2.0814,-2.74461 2.0814,-4.43089 m 0.5962,13.9312 9.1652,21.73817 -10.086,0 -8.4878,-20.03073 -13.843,0 0,20.03073 -9.3027,0 0,-51.50909 25.3823,0 c 4.3286,0 8.0539,1.52753 11.176,4.58259 3.1292,3.05858 4.6708,6.80155 4.639,11.22891 -0.035,3.16089 -0.836,5.969 -2.3918,8.42434 -1.5628,2.45533 -3.6442,4.30036 -6.2512,5.53508"
     style="fill:#ffffff;fill-opacity:1;fill-rule:nonzero;stroke:none"
     id="path5495" />
  <path
     inkscape:connector-curvature="0"
     d="m 332.0583,280.35969 -18.2386,0 9.1228,-15.79386 -8.0539,-4.64962 -9.1228,15.79387 -9.1158,-15.79387 -8.0539,4.64962 9.1157,15.79386 -18.2315,0 0,9.29922 18.2315,0 -9.1157,15.79386 8.0539,4.65314 9.1158,-15.79386 9.1228,15.79386 8.0539,-4.65314 -9.1228,-15.79386 18.2386,0 0,-9.29922 z"
     style="fill:#ffffff;fill-opacity:1;fill-rule:nonzero;stroke:none"
     id="path5499" />
</svg>
