<?xml version="1.0" encoding="UTF-8" standalone="no"?>
<svg
   xmlns:dc="http://purl.org/dc/elements/1.1/"
   xmlns:cc="http://creativecommons.org/ns#"
   xmlns:rdf="http://www.w3.org/1999/02/22-rdf-syntax-ns#"
   xmlns:svg="http://www.w3.org/2000/svg"
   xmlns="http://www.w3.org/2000/svg"
   xmlns:sodipodi="http://sodipodi.sourceforge.net/DTD/sodipodi-0.dtd"
   xmlns:inkscape="http://www.inkscape.org/namespaces/inkscape"
   width="127.50368"
   height="165.49458"
   viewBox="0 0 359.84374 467.0625"
   version="1.1"
   id="svg2"
   inkscape:version="0.48.2 r9819"
   sodipodi:docname="MUTCD D12-4.svg">
  <metadata
     id="metadata62">
    <rdf:RDF>
      <cc:Work
         rdf:about="">
        <dc:format>image/svg+xml</dc:format>
        <dc:type
           rdf:resource="http://purl.org/dc/dcmitype/StillImage" />
        <dc:title></dc:title>
      </cc:Work>
    </rdf:RDF>
  </metadata>
  <defs
     id="defs60">
    <clipPath
       clipPathUnits="userSpaceOnUse"
       id="clipPath3564">
      <path
         inkscape:connector-curvature="0"
         d="m 63,43 512.622,0 0,313.129 L 63,356.129 63,43 z"
         id="path3566" />
    </clipPath>
  </defs>
  <sodipodi:namedview
     pagecolor="#ffffff"
     bordercolor="#666666"
     borderopacity="1"
     objecttolerance="10"
     gridtolerance="10"
     guidetolerance="10"
     inkscape:pageopacity="0"
     inkscape:pageshadow="2"
     inkscape:window-width="1280"
     inkscape:window-height="1004"
     id="namedview58"
     showgrid="false"
     fit-margin-top="0"
     fit-margin-left="0"
     fit-margin-right="0"
     fit-margin-bottom="0"
     inkscape:zoom="3.4525869"
     inkscape:cx="67.467593"
     inkscape:cy="52.724939"
     inkscape:window-x="-8"
     inkscape:window-y="-8"
     inkscape:window-maximized="1"
     inkscape:current-layer="svg2"
     showguides="true"
     inkscape:guide-bbox="true" />
  <polygon
     points="315,545 235,375 315,205 395,375 "
     id="polygon10"
     style="fill:none;stroke:#ffffff;stroke-width:40"
     transform="translate(16897.851,12182.993)" />
  <!-- draw the bicycle -->
  <!-- RIGHT -->
  <!-- LANE -->
  <!-- ONLY -->
  <path
     inkscape:connector-curvature="0"
     d="m 23.31668,1.6936195 313.22437,0 c 11.9133,0 21.6217,9.7154995 21.6217,21.6358595 l 0,420.408811 c 0,11.92036 -9.7084,21.63586 -21.6217,21.63586 l -313.22437,0 c -11.9133,0 -21.62527,-9.7155 -21.62527,-21.63586 l 0,-420.408811 c 0,-11.92036 9.71197,-21.6358595 21.62527,-21.6358595"
     style="fill:#ffffff;fill-opacity:1;fill-rule:nonzero;stroke:#000000;stroke-width:3.38666693;stroke-linecap:butt;stroke-linejoin:miter;stroke-miterlimit:4;stroke-opacity:1;stroke-dasharray:none"
     id="path5515" />
  <path
     inkscape:connector-curvature="0"
     d="m 336.41045,10.964619 c 7.0415,0.16227 12.2238,5.5245 12.4849,12.48833 l -0.028,420.934451 c -0.5151,6.60753 -5.7997,11.63814 -12.4566,11.72633 l -313.73943,-0.0353 c -6.56167,-0.51506 -11.69458,-5.79967 -11.71575,-12.45659 l 0.0212,-420.923861 c 0.49036,-6.57578 5.83847,-11.7087 12.46011,-11.73339 l 312.97387,0"
     style="fill:#155196;fill-opacity:1;fill-rule:evenodd;stroke:none"
     id="path5519" />
  <path
     inkscape:connector-curvature="0"
     d="m 57.10221,419.84462 c -11.43353,0 -18.43969,-8.9923 -18.43969,-22.55661 0,-13.716 7.00616,-22.39786 18.43969,-22.39786 7.01322,0 13.41261,3.50308 16.764,9.59908 l -6.858,3.65478 c -1.22061,-1.82386 -1.83092,-2.43417 -3.05153,-3.19617 -1.67569,-1.37583 -4.56847,-2.286 -6.85447,-2.286 -7.92692,0 -10.5163,7.7717 -10.5163,14.47447 0,9.45092 3.96169,14.93662 10.5163,14.93662 3.9617,0 6.096,-1.37231 9.906,-5.4857 l 6.858,3.65478 c -3.19969,6.09953 -9.75078,9.60261 -16.764,9.60261"
     style="fill:#ffffff;fill-opacity:1;fill-rule:nonzero;stroke:none"
     id="path5523" />
  <path
     inkscape:connector-curvature="0"
     d="m 102.06025,386.47184 -6.0996,14.62617 12.1885,0 -6.0889,-14.62617 z m 13.7089,32.61078 -4.2651,-10.21292 -18.8983,0 -4.2651,10.21292 -8.5301,0 18.288,-43.434 7.9234,0 18.1327,43.434 -8.3855,0 z"
     style="fill:#ffffff;fill-opacity:1;fill-rule:nonzero;stroke:none"
     id="path5527" />
  <path
     inkscape:connector-curvature="0"
     d="m 131.61945,419.08265 0,-43.434 7.7717,0 0,36.72769 24.6874,0 0,6.70631 -32.4591,0 z"
     style="fill:#ffffff;fill-opacity:1;fill-rule:nonzero;stroke:none"
     id="path5531" />
  <path
     inkscape:connector-curvature="0"
     d="m 171.54685,419.08265 0,-43.434 7.7752,0 0,36.72769 24.6874,0 0,6.70631 -32.4626,0 z"
     style="fill:#ffffff;fill-opacity:1;fill-rule:nonzero;stroke:none"
     id="path5535" />
  <path
     inkscape:connector-curvature="0"
     d="m 259.47315,419.84462 c -5.9443,0 -11.2783,-1.524 -16.764,-4.87539 l 4.1134,-6.55461 c 3.81,2.286 8.2339,3.50661 12.6506,3.50661 6.5547,0 10.5163,-2.8963 10.5163,-7.77522 0,-2.28247 -1.0689,-4.56847 -2.7446,-5.94078 -1.5204,-1.22061 -3.81,-1.83092 -7.0061,-1.83092 -2.8999,0 -5.1823,0.45862 -8.3856,1.67923 l -7.7717,-1.98261 1.3724,-20.42231 28.9524,0 -0.1517,7.62353 -21.4841,0 -0.4622,6.24769 c 3.5066,-0.76553 5.6445,-1.06891 8.3856,-1.06891 9.9095,0 17.0673,6.7063 17.0673,15.69508 0,9.144 -7.62,15.69861 -18.288,15.69861"
     style="fill:#ffffff;fill-opacity:1;fill-rule:nonzero;stroke:none"
     id="path5539" />
  <path
     inkscape:connector-curvature="0"
     d="m 290.56345,419.08265 0.1516,-32.45908 -5.4857,0 -0.1518,-6.25123 c 3.3478,-0.762 5.1823,-1.97908 6.8544,-4.72369 l 6.2513,0 0,43.434 -7.62,0 z"
     style="fill:#ffffff;fill-opacity:1;fill-rule:nonzero;stroke:none"
     id="path5543" />
  <path
     inkscape:connector-curvature="0"
     d="m 313.56815,419.08265 0.1518,-32.45908 -5.4821,0 -0.1519,-6.25123 c 3.3479,-0.762 5.1788,-1.97908 6.8545,-4.72369 l 6.2477,0 0,43.434 -7.62,0 z"
     style="fill:#ffffff;fill-opacity:1;fill-rule:nonzero;stroke:none"
     id="path5547" />
  <path
     inkscape:connector-curvature="0"
     d="m 109.82485,289.20291 7.7717,0 0,43.434 -7.7717,0 0,-43.434 z"
     style="fill:#ffffff;fill-opacity:1;fill-rule:nonzero;stroke:none"
     id="path5549" />
  <path
     inkscape:connector-curvature="0"
     d="m 157.06535,332.63798 -20.7257,-29.86969 0,29.86969 -7.6165,0 0,-43.434 7.6165,0 19.9672,28.65261 0,-28.65261 7.4683,0 0,43.434 -6.7098,0 z"
     style="fill:#ffffff;fill-opacity:1;fill-rule:nonzero;stroke:none"
     id="path5553" />
  <path
     inkscape:connector-curvature="0"
     d="m 182.97335,296.9792 0,8.83709 13.5643,0 0,7.92691 -13.5643,0 0,18.89478 -7.9269,0 0,-43.434 32.4626,0 0,7.77522 -24.5357,0 z"
     style="fill:#ffffff;fill-opacity:1;fill-rule:nonzero;stroke:none"
     id="path5557" />
  <path
     inkscape:connector-curvature="0"
     d="m 232.04475,296.21717 c -6.5546,0 -10.5163,5.4857 -10.5163,14.6297 0,9.29569 3.9617,14.78139 10.5163,14.78139 8.2267,0 10.2094,-8.07509 10.2094,-14.78139 0,-9.144 -3.6583,-14.6297 -10.2094,-14.6297 m 0,37.18278 c -12.8023,0 -18.4397,-11.58169 -18.4397,-22.55308 0,-13.8677 7.0097,-22.40139 18.4397,-22.40139 10.6644,0 17.9846,8.98878 17.9846,22.24617 0,13.5643 -7.0168,22.7083 -17.9846,22.7083"
     style="fill:#ffffff;fill-opacity:1;fill-rule:nonzero;stroke:none"
     id="path5561" />
  <path
     inkscape:connector-curvature="0"
     d="m 75.54543,209.89951 0,35.81047 -7.62,0 0,-35.81047 -12.49891,0 0,-7.62 32.61073,0 0,7.62 -12.49182,0 z"
     style="fill:#ffffff;fill-opacity:1;fill-rule:nonzero;stroke:none"
     id="path5565" />
  <path
     inkscape:connector-curvature="0"
     d="m 115.46575,210.0512 -12.3401,0 0,10.8197 12.3401,0 c 3.8136,0 6.2512,-2.13078 6.2512,-5.334 0,-3.35139 -2.4376,-5.4857 -6.2512,-5.4857 m 6.2512,35.65878 -7.0132,-17.06739 -11.5781,0 0,17.06739 -7.7717,0 0,-43.43047 19.9637,0 c 3.1961,0 5.1787,0.45861 7.4683,1.82738 4.1134,2.286 6.7027,6.55462 6.7027,11.43001 0,4.87538 -2.5893,9.14047 -7.0132,11.58169 l 7.9305,18.59139 -8.689,0 z"
     style="fill:#ffffff;fill-opacity:1;fill-rule:nonzero;stroke:none"
     id="path5569" />
  <path
     inkscape:connector-curvature="0"
     d="m 157.37225,213.0992 -6.096,14.63322 12.1955,0 -6.0995,-14.63322 z m 13.7195,32.61078 -4.2721,-10.20586 -18.8913,0 -4.265,10.20586 -8.5373,0 18.2845,-43.43047 7.9234,0 18.1398,43.43047 -8.382,0 z"
     style="fill:#ffffff;fill-opacity:1;fill-rule:nonzero;stroke:none"
     id="path5573" />
  <path
     inkscape:connector-curvature="0"
     d="m 207.35735,245.71001 -8.3785,0 -15.9985,-43.43048 8.3785,0 11.8851,31.69709 11.8851,-31.69709 8.3855,0 -16.1572,43.43048 z"
     style="fill:#ffffff;fill-opacity:1;fill-rule:nonzero;stroke:none"
     id="path5577" />
  <path
     inkscape:connector-curvature="0"
     d="m 230.82415,245.71001 0,-43.43048 31.697,0 0,7.7717 -23.7737,0 0,8.07508 12.954,0 0,7.92692 -12.954,0 0,11.88508 24.5357,0 0,7.7717 -32.459,0 z"
     style="fill:#ffffff;fill-opacity:1;fill-rule:nonzero;stroke:none"
     id="path5581" />
  <path
     inkscape:connector-curvature="0"
     d="m 271.97215,245.71001 0,-43.43048 7.7717,0 0,36.72417 24.6873,0 0,6.70631 -32.459,0 z"
     style="fill:#ffffff;fill-opacity:1;fill-rule:nonzero;stroke:none"
     id="path5585" />
  <path
     inkscape:connector-curvature="0"
     d="m 97.40705,74.461059 c -5.02,0 -15.8115,12.23081 -19.3675,20.0025 -2.66698,5.813781 2.8399,30.896281 10.4811,44.037251 11.0243,18.96886 29.1853,31.57714 33.7185,32.07456 5.9972,0.65264 14.298,-2.55764 20.4187,-5.78909 3.1115,-1.61925 8.3009,-3.67947 8.0046,-7.18608 -0.6738,-8.128 -9.3028,-14.29103 -13.4691,-14.95072 -7.7787,-1.23825 -10.1282,3.64772 -15.4905,4.64608 -7.2072,1.34761 -24.7085,-18.59492 -24.7085,-34.55811 0,-3.15736 0.642,-7.52475 3.817,-10.29406 3.0586,-2.652881 6.8757,-4.882441 7.1403,-8.971131 0.515,-7.98336 -4.5403,-19.0112 -10.5446,-19.0112"
     style="fill:#ffffff;fill-opacity:1;fill-rule:nonzero;stroke:none"
     id="path5589" />
  <path
     inkscape:connector-curvature="0"
     d="m 117.15555,109.38253 19.237,0 c 1.6334,-3.8488 5.6374,-5.0553 8.6607,-5.0553 6.1666,0 8.9782,5.36575 7.5247,11.50055 -1.0759,4.58259 -2.7199,11.04195 -10.9537,10.90436 -3.7148,-0.0564 -7.2496,-2.667 -7.7823,-7.90927 0.028,-0.17992 0.099,-3.8735 0.1341,-4.05342 l -18.4821,0 c -1.7921,11.29947 3.803,22.09447 24.8603,23.00111 21.5935,0.92428 29.1394,-3.60539 32.5014,-20.93736 2.4342,-12.5342 -1.1289,-23.131641 -20.0095,-23.131641 -3.1221,0 -6.1102,-0.13405 -12.8412,0.88195 l 1.7569,-7.05909 29.0759,0 2.219,-11.811 -48.4752,0 -7.426,33.669111"
     style="fill:#ffffff;fill-opacity:1;fill-rule:nonzero;stroke:none"
     id="path5593" />
  <path
     inkscape:connector-curvature="0"
     d="m 207.86535,76.020339 -10.4175,61.577361 -19.8085,0.0178 6.4558,-40.505941 -5.8279,0 2.0673,-11.49703 c 7.2143,-0.31045 8.2938,-2.06728 10.354,-9.59203 l 17.1768,0"
     style="fill:#ffffff;fill-opacity:1;fill-rule:nonzero;stroke:none"
     id="path5597" />
  <path
     inkscape:connector-curvature="0"
     d="m 258.69705,60.441699 c 6.3042,5.06942 11.5464,10.81264 15.487,17.05681 l -24.2606,0 c -2.8292,-4.07811 -6.2688,-7.88811 -10.2235,-11.37356 l 18.9971,-5.68325 z m 19.5721,25.68928 c 2.7447,6.31825 4.2263,13.03161 4.2263,19.988391 0,37.46852 -42.933,67.84269 -95.892,67.84269 -21.1879,0 -40.7635,-4.86128 -56.6315,-13.08805 l 3.1539,-2.00025 c 12.4036,5.334 26.8464,8.38905 42.2733,8.38905 46.1363,0 83.5519,-27.37555 83.5519,-61.14344 0,-7.002641 -1.6051,-13.726591 -4.5684,-19.988391 l 9.7225,0 c 2.9704,6.34294 4.5755,13.11628 4.5755,20.157721 0,35.51414 -40.841,64.30433 -91.2283,64.30433 -4.639,0 -9.2004,-0.24694 -13.649,-0.71614 6.2054,0.95956 12.6436,1.47462 19.2582,1.47462 50.1685,0 90.8403,-29.29114 90.8403,-65.42264 0,-6.900341 -1.4817,-13.550201 -4.2299,-19.797891 l 8.5972,0 z m -49.1666,-40.84461 c 6.4982,2.27541 12.5871,5.06236 18.1469,8.27969 l -17.265,6.26534 c -4.512,-2.85398 -9.4473,-5.3587 -14.7249,-7.45773 l 13.843,-7.0873 z m -28.3527,-6.27592 c 5.1681,0.53975 10.2023,1.37231 15.0671,2.4765 l -11.8428,7.15786 c -3.9405,-1.04775 -8.0221,-1.88736 -12.2096,-2.49767 l 8.9853,-7.13669 z m -28.8255,0.0564 c 4.7836,-0.51858 9.6837,-0.79022 14.6791,-0.79022 0.709,0 1.4181,0.007 2.1237,0.0141 l -7.1543,6.85447 c -2.0391,-0.10936 -4.0993,-0.16933 -6.1737,-0.16933 -2.5576,0 -5.087,0.0847 -7.5812,0.25047 l 4.1064,-6.1595 z m -23.3433,4.74839 c 4.0322,-1.23119 8.1915,-2.27189 12.4848,-3.10797 l -2.6529,5.53155 c -3.9688,0.59973 -7.8317,1.40759 -11.5746,2.39889 l 1.7427,-4.82247 z m -20.38,8.48783 c 3.3196,-1.80622 6.8016,-3.45722 10.4458,-4.94594 l -0.4057,3.98286 c -3.5631,1.29469 -6.9886,2.77283 -10.2341,4.41325 l 0.194,-3.45017 z m -16.4324,11.38415 c 2.7693,-2.44123 5.7715,-4.74134 8.9888,-6.88975 l 0.092,3.00214 c -3.2244,2.03905 -6.2371,4.25097 -9.0064,6.62516 l -0.074,-2.73755"
     style="fill:#ffffff;fill-opacity:1;fill-rule:nonzero;stroke:none"
     id="path5601" />
  <path
     inkscape:connector-curvature="0"
     d="m 240.89235,76.172059 -10.4175,61.577361 -19.812,0.0212 6.4629,-40.509471 -5.8279,0 2.0602,-11.49703 c 7.2214,-0.31044 8.3044,-2.06728 10.3646,-9.59203 l 17.1697,0"
     style="fill:#ffffff;fill-opacity:1;fill-rule:nonzero;stroke:none"
     id="path5605" />
</svg>
