<?xml version="1.0" encoding="UTF-8" standalone="no"?>
<svg
   xmlns:dc="http://purl.org/dc/elements/1.1/"
   xmlns:cc="http://creativecommons.org/ns#"
   xmlns:rdf="http://www.w3.org/1999/02/22-rdf-syntax-ns#"
   xmlns:svg="http://www.w3.org/2000/svg"
   xmlns="http://www.w3.org/2000/svg"
   xmlns:sodipodi="http://sodipodi.sourceforge.net/DTD/sodipodi-0.dtd"
   xmlns:inkscape="http://www.inkscape.org/namespaces/inkscape"
   width="414.63336"
   height="208.55684"
   viewBox="0 0 1170.1875 588.59375"
   version="1.1"
   id="svg2"
   inkscape:version="0.48.2 r9819"
   sodipodi:docname="AJAX1.svg">
  <metadata
     id="metadata62">
    <rdf:RDF>
      <cc:Work
         rdf:about="">
        <dc:format>image/svg+xml</dc:format>
        <dc:type
           rdf:resource="http://purl.org/dc/dcmitype/StillImage" />
        <dc:title />
      </cc:Work>
    </rdf:RDF>
  </metadata>
  <defs
     id="defs60">
    <clipPath
       clipPathUnits="userSpaceOnUse"
       id="clipPath3564">
      <path
         inkscape:connector-curvature="0"
         d="m 63,43 512.622,0 0,313.129 L 63,356.129 63,43 z"
         id="path3566" />
    </clipPath>
  </defs>
  <sodipodi:namedview
     pagecolor="#ffffff"
     bordercolor="#666666"
     borderopacity="1"
     objecttolerance="10"
     gridtolerance="10"
     guidetolerance="10"
     inkscape:pageopacity="0"
     inkscape:pageshadow="2"
     inkscape:window-width="1280"
     inkscape:window-height="1004"
     id="namedview58"
     showgrid="false"
     fit-margin-top="0"
     fit-margin-left="0"
     fit-margin-right="0"
     fit-margin-bottom="0"
     inkscape:zoom="1.7262935"
     inkscape:cx="152.49068"
     inkscape:cy="95.043893"
     inkscape:window-x="-8"
     inkscape:window-y="-8"
     inkscape:window-maximized="1"
     inkscape:current-layer="svg2"
     showguides="true"
     inkscape:guide-bbox="true" />
  <polygon
     points="235,375 315,205 395,375 315,545 "
     id="polygon10"
     style="fill:none;stroke:#ffffff;stroke-width:40"
     transform="translate(17821.726,11771.086)" />
  <!-- draw the bicycle -->
  <!-- RIGHT -->
  <!-- LANE -->
  <!-- ONLY -->
  <path
     inkscape:connector-curvature="0"
     d="m 57.788396,3.5200666 1054.634704,0 c 29.8572,0 54.2417,24.4083694 54.2417,54.2337484 l 0,473.087565 c 0,29.82538 -24.3844,54.23378 -54.2417,54.23378 l -1054.634704,0 c -29.857218,0 -54.2497627,-24.4084 -54.2497627,-54.23378 l 0,-473.087565 c 0,-29.482843 24.7669427,-54.2337484 54.2497627,-54.2337484"
     style="fill:#ffffff;fill-opacity:1;fill-rule:nonzero;stroke:#000000;stroke-width:7.05555582;stroke-linecap:butt;stroke-linejoin:miter;stroke-miterlimit:4;stroke-opacity:1;stroke-dasharray:none"
     id="path5209" />
  <path
     inkscape:connector-curvature="0"
     d="m 1112.1443,26.765364 c 17.398,0.493921 30.9167,13.781502 31.2751,31.283205 l -0.079,474.378091 c -1.139,16.45813 -14.6577,29.28367 -31.1954,29.38723 L 56.171801,561.76602 C 39.76152,560.60295 26.864211,547.06842 26.800532,530.53859 L 26.86376,56.16845 C 28.074795,39.742181 41.497796,26.836969 58.059372,26.765274 l 1054.085128,0"
     style="fill:#155196;fill-opacity:1;fill-rule:evenodd;stroke:none"
     id="path5213" />
  <path
     inkscape:connector-curvature="0"
     d="m 140.22233,246.84707 0,-116.64881 68.77202,0 0,18.4178 -50.33033,0 0,28.64639 33.95979,0 0,18.83206 -33.95979,0 0,31.9205 54.01876,0 0,18.83206 -72.46045,0 z"
     style="fill:#ffffff;fill-opacity:1;fill-rule:nonzero;stroke:none"
     id="path5217" />
  <path
     inkscape:connector-curvature="0"
     d="m 304.7718,246.84707 0,-67.53731 -27.00543,67.53731 -27.02913,-67.53731 0,67.53731 -18.40196,0 0,-116.64881 18.40196,0 27.02913,65.48202 27.00543,-65.48202 18.40985,0 0,116.64881 -18.40985,0 z"
     style="fill:#ffffff;fill-opacity:1;fill-rule:nonzero;stroke:none"
     id="path5221" />
  <path
     inkscape:connector-curvature="0"
     d="m 351.01536,246.84707 0,-116.64881 68.75622,0 0,18.4178 -50.33033,0 0,28.64639 33.95979,0 0,18.83206 -33.95979,0 0,31.9205 54.01876,0 0,18.83206 -72.44465,0 z"
     style="fill:#ffffff;fill-opacity:1;fill-rule:nonzero;stroke:none"
     id="path5225" />
  <path
     inkscape:connector-curvature="0"
     d="m 522.50339,246.84707 -20.47311,-54.4409 c 10.64279,-4.90716 18.01965,-17.19103 18.01965,-29.4669 0,-11.86961 -7.37686,-24.14551 -17.59738,-29.05267 -5.74355,-2.86783 -11.86963,-3.68834 -20.87935,-3.68834 l -38.47672,0 0,116.64881 18.41798,0 0,-50.75256 22.10597,0 18.83212,50.75256 20.05084,0 z m -20.87935,-83.9078 c 0,4.91513 -2.85992,9.8223 -7.3606,12.27587 -2.87595,1.64105 -4.91527,2.04731 -10.64301,2.04731 l -22.10597,0 0,-28.64639 22.10597,0 c 6.13398,0 7.76706,0.40629 10.64301,2.04731 4.50068,2.4536 7.3606,7.36873 7.3606,12.2759"
     style="fill:#ffffff;fill-opacity:1;fill-rule:nonzero;stroke:none"
     id="path5229" />
  <path
     inkscape:connector-curvature="0"
     d="m 582.24989,248.89436 c -17.59738,0 -27.83393,-6.54819 -34.7883,-21.28563 -4.91527,-10.23656 -7.77519,-24.55975 -7.77519,-38.88293 0,-18.82408 5.32151,-37.24986 13.09648,-47.47844 6.95459,-8.59551 16.77677,-13.09641 29.87325,-13.09641 18.01942,0 28.66222,7.36873 36.42138,25.78653 l -17.59738,6.95448 c -4.89924,-10.22859 -9.81429,-13.90895 -18.824,-13.90895 -9.41618,0 -15.54203,4.08665 -19.6367,14.31523 -2.87573,6.96242 -4.50881,17.60526 -4.50881,27.42756 0,12.27587 2.05513,24.55972 5.72775,31.92844 3.6882,6.54024 9.00158,9.40809 15.96408,9.40809 11.86963,0 20.4731,-7.36875 20.4731,-18.01156 l 0,-4.90716 -21.28558,0 0,-18.41781 39.68754,0 0,23.32497 c 0,21.28564 -15.54203,36.84359 -36.82762,36.84359"
     style="fill:#ffffff;fill-opacity:1;fill-rule:nonzero;stroke:none"
     id="path5233" />
  <path
     inkscape:connector-curvature="0"
     d="m 644.45776,246.84707 0,-116.64881 68.77202,0 0,18.4178 -50.35427,0 0,28.64639 33.9677,0 0,18.83206 -33.9677,0 0,31.9205 54.02666,0 0,18.83206 -72.44441,0 z"
     style="fill:#ffffff;fill-opacity:1;fill-rule:nonzero;stroke:none"
     id="path5237" />
  <path
     inkscape:connector-curvature="0"
     d="m 799.58315,246.84707 -44.61071,-78.99267 0,78.99267 -18.42567,0 0,-116.64881 18.42567,0 42.55536,74.49175 0,-74.49175 18.41776,0 0,116.64881 -16.36241,0 z"
     style="fill:#ffffff;fill-opacity:1;fill-rule:nonzero;stroke:none"
     id="path5241" />
  <path
     inkscape:connector-curvature="0"
     d="m 885.53028,248.89436 c -17.19905,0 -28.24017,-6.54819 -35.61681,-20.87935 -5.3215,-10.22859 -8.58766,-24.96603 -8.58766,-39.69549 0,-18.4178 4.91527,-36.84358 13.09647,-47.07216 6.95459,-8.59551 16.77678,-13.09641 29.87325,-13.09641 17.59716,0 28.64641,7.36873 36.42928,23.73922 l -17.19904,7.36873 c -6.54813,-9.8223 -10.22052,-12.27589 -19.23024,-12.27589 -9.40804,0 -15.55806,4.08665 -19.6446,14.31523 -2.86782,6.96242 -4.5009,17.19898 -4.5009,27.02128 0,12.68215 2.85992,25.37228 7.36082,32.74101 4.09445,6.13395 9.41595,9.0018 17.61319,9.0018 7.75894,0 13.50271,-4.08668 18.00339,-13.51068 l 17.59738,6.55617 c -6.95436,17.18307 -18.42566,25.78654 -35.19453,25.78654"
     style="fill:#ffffff;fill-opacity:1;fill-rule:nonzero;stroke:none"
     id="path5245" />
  <path
     inkscape:connector-curvature="0"
     d="m 997.25599,196.09451 0,50.75256 -18.41798,0 0,-50.75256 -40.92205,-65.89625 22.09015,0 27.83371,45.01688 28.24008,-45.01688 21.6919,0 -40.51581,65.89625 z"
     style="fill:#ffffff;fill-opacity:1;fill-rule:nonzero;stroke:none"
     id="path5249" />
  <path
     inkscape:connector-curvature="0"
     d="m 330.16808,459.96623 c -16.5539,0 -27.19669,-6.50041 -34.29444,-20.72004 -5.11444,-10.15688 -8.27695,-24.78279 -8.27695,-39.4087 0,-18.28238 4.73191,-36.56477 12.61843,-46.72165 6.70755,-8.53178 16.14743,-13.0008 28.76586,-13.0008 16.94411,0 27.5869,7.31295 35.07508,23.56397 l -16.55367,7.31295 c -6.30131,-9.7506 -9.85425,-12.19623 -18.52141,-12.19623 -9.06548,0 -14.97636,4.07071 -18.91974,14.2276 -2.74814,6.90667 -4.32544,17.06356 -4.32544,26.81416 0,12.59454 2.75627,25.18906 7.08194,32.50201 3.95105,6.08618 9.07339,8.93806 16.95991,8.93806 7.48028,0 12.99283,-4.06276 17.33431,-13.41505 l 16.9441,6.50838 c -6.69151,17.05559 -17.74054,25.59534 -33.88798,25.59534"
     style="fill:#ffffff;fill-opacity:1;fill-rule:nonzero;stroke:none"
     id="path5253" />
  <path
     inkscape:connector-curvature="0"
     d="m 428.68577,374.24222 -11.43946,32.50201 22.47268,0 -11.03322,-32.50201 z m 28.38356,83.69268 -11.04925,-32.502 -35.07508,0 -11.02509,32.502 -18.91974,0 38.61198,-115.78843 17.74078,0 38.62011,115.78843 -18.90371,0 z"
     style="fill:#ffffff;fill-opacity:1;fill-rule:nonzero;stroke:none"
     id="path5257" />
  <path
     inkscape:connector-curvature="0"
     d="m 495.27509,457.9349 0,-115.78843 17.74054,0 0,98.72488 52.02731,0 0,17.06355 -69.76785,0 z"
     style="fill:#ffffff;fill-opacity:1;fill-rule:nonzero;stroke:none"
     id="path5261" />
  <path
     inkscape:connector-curvature="0"
     d="m 583.94665,457.9349 0,-115.78843 17.74055,0 0,98.72488 52.01127,0 0,17.06355 -69.75182,0 z"
     style="fill:#ffffff;fill-opacity:1;fill-rule:nonzero;stroke:none"
     id="path5265" />
  <path
     inkscape:connector-curvature="0"
     d="m 793.20212,374.65639 c 0,-21.27766 -17.19091,-37.24189 -39.69544,-37.24189 -22.10618,0 -39.70334,15.55 -39.70334,35.60883 0,19.6446 18.00362,35.60883 39.70334,35.60883 4.50091,0 7.36083,-0.41425 13.90896,-1.63308 -6.95437,15.13575 -14.3231,24.55177 -28.23205,35.60086 l 9.00181,15.55796 c 27.01333,-18.42578 45.01672,-51.57305 45.01672,-83.50151 m -18.42566,-1.63306 c 0,9.41602 -9.40804,16.77677 -21.26978,16.77677 -11.46317,0 -20.87934,-7.36075 -20.87934,-16.77677 0,-9.41602 9.41617,-16.77678 20.87934,-16.77678 11.4555,0 21.26978,7.76702 21.26978,16.77678"
     style="fill:#ffffff;fill-opacity:1;fill-rule:nonzero;stroke:none"
     id="path5269" />
  <path
     inkscape:connector-curvature="0"
     d="m 826.7638,456.11058 0,-94.55058 -10.64279,0 0,-14.73744 1.22662,0 c 4.91527,0 10.23655,-2.85985 13.50271,-7.36075 l 14.73746,0 0,116.64877 -18.824,0 z"
     style="fill:#ffffff;fill-opacity:1;fill-rule:nonzero;stroke:none"
     id="path5273" />
  <path
     inkscape:connector-curvature="0"
     d="m 881.60294,456.11058 0,-94.55058 -10.63489,0 0,-14.73744 1.22684,0 c 4.89924,0 10.22052,-2.85985 13.50272,-7.36075 l 14.73745,0 0,116.64877 -18.83212,0 z"
     style="fill:#ffffff;fill-opacity:1;fill-rule:nonzero;stroke:none"
     id="path5277" />
</svg>
