<?xml version="1.0" encoding="UTF-8" standalone="no"?>
<svg
   xmlns:dc="http://purl.org/dc/elements/1.1/"
   xmlns:cc="http://creativecommons.org/ns#"
   xmlns:rdf="http://www.w3.org/1999/02/22-rdf-syntax-ns#"
   xmlns:svg="http://www.w3.org/2000/svg"
   xmlns="http://www.w3.org/2000/svg"
   xmlns:sodipodi="http://sodipodi.sourceforge.net/DTD/sodipodi-0.dtd"
   xmlns:inkscape="http://www.inkscape.org/namespaces/inkscape"
   width="4330"
   height="2710"
   id="svg2"
   version="1.1"
   inkscape:version="0.48.2 r9819"
   sodipodi:docname="MUTCD D12-04.svg">
  <metadata
     id="metadata16">
    <rdf:RDF>
      <cc:Work
         rdf:about="">
        <dc:format>image/svg+xml</dc:format>
        <dc:type
           rdf:resource="http://purl.org/dc/dcmitype/StillImage" />
        <dc:title></dc:title>
      </cc:Work>
    </rdf:RDF>
  </metadata>
  <defs
     id="defs14" />
  <sodipodi:namedview
     pagecolor="#ffffff"
     bordercolor="#666666"
     borderopacity="1"
     objecttolerance="10"
     gridtolerance="10"
     guidetolerance="10"
     inkscape:pageopacity="0"
     inkscape:pageshadow="2"
     inkscape:window-width="1280"
     inkscape:window-height="1004"
     id="namedview12"
     showgrid="false"
     inkscape:zoom="0.11871136"
     inkscape:cx="2779.3094"
     inkscape:cy="1137.392"
     inkscape:window-x="-8"
     inkscape:window-y="-8"
     inkscape:window-maximized="1"
     inkscape:current-layer="svg2"
     fit-margin-top="0"
     fit-margin-left="0"
     fit-margin-right="0"
     fit-margin-bottom="0" />
  <path
     inkscape:connector-curvature="0"
     style="fill:#ffffff;fill-rule:nonzero;stroke:#000000;stroke-width:10;stroke-linecap:butt;stroke-linejoin:miter;stroke-miterlimit:4;stroke-opacity:1;stroke-dasharray:none"
     d="m 4325,2435 c 0,149.1125 -120.8875,270 -270,270 l -3780,0 C 125.88263,2705 5,2584.1125 5,2435 L 5,275 C 5,125.88263 125.88263,5 275,5 l 3780,0 c 149.1125,0 270,120.88263 270,270 l 0,2160 z"
     id="path11" />
  <path
     inkscape:connector-curvature="0"
     style="fill:#006649;fill-rule:nonzero;stroke:none"
     d="M 275,2615 C 175.7475,2615 95,2534.25 95,2435 L 95,275 C 95,175.7475 175.7475,95 275,95 l 3780,0 c 99.25,0 180,80.7475 180,180 l 0,2160 c 0,99.25 -80.75,180 -180,180 l -3780,0 z"
     id="path13" />
  <path
     inkscape:connector-curvature="0"
     style="fill:#ffffff;fill-rule:nonzero;stroke:none"
     d="m 1108.4988,2165 -206.5438,-365.6875 0,365.6875 -85.2675,0 0,-540 85.2675,0 197.0662,344.85 0,-344.85 85.2688,0 0,540 -75.7913,0 z"
     id="path15" />
  <path
     inkscape:connector-curvature="0"
     style="fill:#ffffff;fill-rule:nonzero;stroke:none"
     d="m 2924.1125,2165 -206.5374,-365.6875 0,365.6875 -85.2751,0 0,-540 85.2751,0 197.0625,344.85 0,-344.85 85.275,0 0,540 -75.8001,0 z"
     id="path17" />
  <path
     inkscape:connector-curvature="0"
     style="fill:#ffffff;fill-rule:nonzero;stroke:none"
     d="m 1474.6251,1700.7875 0,464.2125 -85.6251,0 0,-464.2125 -123.7125,0 0,-75.7875 334.9375,0 0,75.7875 -125.6,0 z"
     id="path19" />
  <path
     inkscape:connector-curvature="0"
     style="fill:#ffffff;fill-rule:nonzero;stroke:none"
     d="m 1918.075,1719.7375 c -13.25,-7.5875 -20.8374,-9.475 -49.2625,-9.475 l -102.3125,0 0,132.625 102.3125,0 c 26.5374,0 36.0125,-1.8875 49.2625,-9.4625 20.8501,-11.375 34.1125,-34.1125 34.1125,-56.85 0,-22.7375 -13.2625,-45.475 -34.1125,-56.8375 z m 37.9,445.2625 -87.1624,-234.95 -102.3125,0 0,234.95 -85.2751,0 0,-540 178.1125,0 c 41.6875,0 70.1125,3.7875 96.6375,17.05 47.375,22.7375 81.4875,79.575 81.4875,134.525 0,56.85 -34.1125,113.6875 -83.375,136.425 l 94.75,252 -92.8625,0 z"
     id="path21" />
  <path
     inkscape:connector-curvature="0"
     style="fill:#ffffff;fill-rule:nonzero;stroke:none"
     d="m 3605.1125,2165 0,-540 317.9001,0 0,85.2625 -232.75,0 0,132.6375 157.0625,0 0,87.15 -157.0625,0 0,147.7875 249.7874,0 0,87.1625 -334.9375,0 z"
     id="path23" />
  <path
     inkscape:connector-curvature="0"
     style="fill:#ffffff;fill-rule:nonzero;stroke:none"
     d="m 389.94875,2165 0,-540 317.90375,0 0,85.2625 -232.7525,0 0,132.6375 157.06375,0 0,87.15 -157.06375,0 0,147.7875 249.785,0 0,87.1625 -334.93625,0 z"
     id="path25" />
  <path
     inkscape:connector-curvature="0"
     style="fill:#ffffff;fill-rule:nonzero;stroke:none"
     d="m 2322.6251,1774.6875 -55.2752,151.575 108.625,0 -53.3498,-151.575 z M 2459.825,2165 l -53.35,-151.575 -169.6124,0 -53.3625,151.575 -91.4626,0 186.75,-540 85.7626,0 186.7499,540 -91.475,0 z"
     id="path27" />
  <path
     inkscape:connector-curvature="0"
     style="fill:#ffffff;fill-rule:nonzero;stroke:none"
     d="m 3323.3499,2174.475 c -79.5749,0 -130.7374,-30.3125 -164.8499,-96.6375 -24.625,-47.3625 -39.7875,-115.575 -39.7875,-183.7875 0,-85.2625 22.7376,-170.525 60.6374,-217.8875 32.2126,-39.8 77.6875,-60.6375 138.3251,-60.6375 81.475,0 132.6375,34.1125 168.6375,109.9 l -79.5876,34.1 c -30.3125,-45.475 -47.3624,-56.8375 -89.0499,-56.8375 -43.5875,0 -72.0126,18.9375 -90.9501,66.3125 -13.2748,32.2125 -20.8499,79.575 -20.8499,125.05 0,58.7375 13.2625,117.475 34.1125,151.5875 18.9375,28.4125 43.575,41.675 81.475,41.675 36,0 62.525,-18.9375 83.375,-62.525 l 81.475,30.3125 c -32.2126,79.5875 -85.2625,119.375 -162.9626,119.375 z"
     id="path29" />
  <path
     inkscape:connector-curvature="0"
     style="fill:#ffffff;fill-rule:nonzero;stroke:none"
     d="m 1242.8787,639.7375 c -13.2599,-7.58 -20.8399,-9.47375 -49.2637,-9.47375 l -102.3237,0 0,132.63 102.3237,0 c 26.5288,0 36.0038,-1.8925 49.2637,-9.47 20.8463,-11.37 34.1088,-34.10875 34.1088,-56.8425 0,-22.73875 -13.2625,-45.47625 -34.1088,-56.84375 z M 1280.775,1085 l -87.16,-234.94875 -102.3237,0 0,234.94875 -85.2663,0 0,-540.00125 178.1138,0 c 41.6887,0 70.1124,3.79 96.6362,17.055 47.375,22.7375 81.4875,79.5775 81.4875,134.5275 0,56.8425 -34.1125,113.6825 -83.375,136.42 L 1373.625,1085 l -92.85,0 z"
     id="path31" />
  <path
     inkscape:connector-curvature="0"
     style="fill:#ffffff;fill-rule:nonzero;stroke:none"
     d="m 2671.3376,1085 -76.025,0 -85.525,-346.73875 -83.6375,346.73875 -76.0251,0 -79.825,-540.0025 87.4251,0 41.8125,284.2125 68.425,-284.2125 83.6375,0 70.3249,284.2125 41.8125,-284.2125 87.4251,0 -79.825,540.0025 z"
     id="path33" />
  <path
     inkscape:connector-curvature="0"
     style="fill:#ffffff;fill-rule:nonzero;stroke:none"
     d="m 3551.3751,850.05125 0,234.94875 -85.7,0 0,-234.94875 -190.4376,-305.05375 102.8376,0 129.5,208.42125 131.4,-208.42125 100.9375,0 -188.5375,305.05375 z"
     id="path35" />
  <path
     inkscape:connector-curvature="0"
     style="fill:#ffffff;fill-rule:nonzero;stroke:none"
     d="m 1465.4251,1085.0012 0,-540.0012 317.9124,0 0,85.2625 -232.7624,0 0,132.63375 157.0625,0 0,87.1575 -157.0625,0 0,147.78875 249.7874,0 0,87.1587 -334.9375,0 z"
     id="path37" />
  <path
     inkscape:connector-curvature="0"
     style="fill:#ffffff;fill-rule:nonzero;stroke:none"
     d="m 1892.1625,1085.0012 0,-540.0012 317.9001,0 0,85.2625 -232.75,0 0,132.63375 157.0625,0 0,87.1575 -157.0625,0 0,147.78875 249.7873,0 0,87.1587 -334.9374,0 z"
     id="path39" />
  <path
     inkscape:connector-curvature="0"
     style="fill:#ffffff;fill-rule:nonzero;stroke:none"
     d="m 3014.1624,694.685 -55.2624,151.58 108.6125,0 -53.35,-151.58 z m 137.2,390.3163 -53.35,-151.5788 -169.6125,0 -53.3625,151.5788 -91.4625,0 186.75,-540.0013 85.7625,0 186.75,540.0013 -91.475,0 z"
     id="path41" />
  <path
     inkscape:connector-curvature="0"
     style="fill:#ffffff;fill-rule:nonzero;stroke:none"
     d="m 675.2425,630.2625 0,132.63375 157.0575,0 0,87.1575 -157.0575,0 0,234.94745 -85.155,0 0,-540.0012 334.93875,0 0,85.2625 -249.78375,0 z"
     id="path43" />
</svg>
