<?xml version="1.0" encoding="UTF-8" standalone="no"?>
<!-- Created with Inkscape (http://www.inkscape.org/) -->

<svg
   xmlns:dc="http://purl.org/dc/elements/1.1/"
   xmlns:cc="http://creativecommons.org/ns#"
   xmlns:rdf="http://www.w3.org/1999/02/22-rdf-syntax-ns#"
   xmlns:svg="http://www.w3.org/2000/svg"
   xmlns="http://www.w3.org/2000/svg"
   xmlns:sodipodi="http://sodipodi.sourceforge.net/DTD/sodipodi-0.dtd"
   xmlns:inkscape="http://www.inkscape.org/namespaces/inkscape"
   id="svg17624"
   version="1.1"
   inkscape:version="0.48.2 r9819"
   width="183.47656"
   height="92.226562"
   xml:space="preserve"
   sodipodi:docname="MUTCD D13-1.svg"><metadata
     id="metadata17630"><rdf:RDF><cc:Work
         rdf:about=""><dc:format>image/svg+xml</dc:format><dc:type
           rdf:resource="http://purl.org/dc/dcmitype/StillImage" /><dc:title></dc:title></cc:Work></rdf:RDF></metadata><defs
     id="defs17628"><inkscape:perspective
       sodipodi:type="inkscape:persp3d"
       inkscape:vp_x="0 : 0.5 : 1"
       inkscape:vp_y="0 : 1000 : 0"
       inkscape:vp_z="1 : 0.5 : 1"
       inkscape:persp3d-origin="0.5 : 0.33333333 : 1"
       id="perspective17632" /><clipPath
       clipPathUnits="userSpaceOnUse"
       id="clipPath17642"><path
         d="m -2,710 501,0 0,-711 -501,0 0,711 z"
         id="path17644"
         inkscape:connector-curvature="0" /></clipPath><clipPath
       clipPathUnits="userSpaceOnUse"
       id="clipPath17648"><path
         d="m 0,708.06 498,0 0,-708 -498,0 0,708 z"
         id="path17650"
         inkscape:connector-curvature="0" /></clipPath><clipPath
       clipPathUnits="userSpaceOnUse"
       id="clipPath17798"><path
         d="m -2,710 501,0 0,-711 -501,0 0,711 z"
         id="path17800"
         inkscape:connector-curvature="0" /></clipPath><clipPath
       clipPathUnits="userSpaceOnUse"
       id="clipPath17804"><path
         d="m 0,708.06 498,0 0,-708 -498,0 0,708 z"
         id="path17806"
         inkscape:connector-curvature="0" /></clipPath><clipPath
       id="Clip0"><path
         inkscape:connector-curvature="0"
         d="m 0,0 212.597,0 0,269.292 L 0,269.292 0,0 z"
         transform="translate(0.923828,0.879883)"
         id="path7" /></clipPath><clipPath
       id="Clip0-8"><path
         inkscape:connector-curvature="0"
         d="m 0,0 170.079,0 0,113.386 L 0,113.386 0,0 z"
         transform="translate(0.0986328,0.822266)"
         id="path7-8" /></clipPath><clipPath
       id="Clip0-1"><path
         inkscape:connector-curvature="0"
         d="m 0,0 287.009,0 0,159.449 L 0,159.449 0,0 z"
         transform="translate(0.396484,0.267578)"
         id="path7-7" /></clipPath><clipPath
       id="Clip0-9"><path
         inkscape:connector-curvature="0"
         d="m 0,0 170.079,0 0,170.079 L 0,170.079 0,0 z"
         transform="translate(0.460938,0.775391)"
         id="path7-4" /></clipPath><clipPath
       id="Clip0-4"><path
         inkscape:connector-curvature="0"
         d="m 0,0 340.157,0 0,226.771 L 0,226.771 0,0 z"
         transform="translate(0.921875,0.25293)"
         id="path7-5" /></clipPath><clipPath
       id="Clip0-5"><path
         inkscape:connector-curvature="0"
         d="m 0,0 255.119,0 0,170.079 L 0,170.079 0,0 z"
         transform="translate(0.147461,0.0595703)"
         id="path7-1" /></clipPath><clipPath
       id="Clip0-0"><path
         inkscape:connector-curvature="0"
         d="m 0,0 170.079,0 0,113.386 L 0,113.386 0,0 z"
         transform="translate(0.0673828,0.207031)"
         id="path7-9" /></clipPath></defs><sodipodi:namedview
     pagecolor="#ffffff"
     bordercolor="#666666"
     borderopacity="1"
     objecttolerance="10"
     gridtolerance="10"
     guidetolerance="10"
     inkscape:pageopacity="0"
     inkscape:pageshadow="2"
     inkscape:window-width="1280"
     inkscape:window-height="1004"
     id="namedview17626"
     showgrid="false"
     inkscape:zoom="4"
     inkscape:cx="83.659637"
     inkscape:cy="17.475209"
     inkscape:window-x="-8"
     inkscape:window-y="-8"
     inkscape:window-maximized="1"
     inkscape:current-layer="g17634"
     fit-margin-top="0"
     fit-margin-left="0"
     fit-margin-right="0"
     fit-margin-bottom="0"
     showguides="true"
     inkscape:guide-bbox="true" /><g
     id="g17634"
     inkscape:groupmode="layer"
     inkscape:label="GG1999P002"
     transform="matrix(1.25,0,0,-1.25,-6977.1875,4504.1797)"><path
       inkscape:connector-curvature="0"
       d="m 5723.5813,3602.9566 -136.877,0 c -2.52,0 -4.563,-2.043 -4.563,-4.563 l 0,-63.874 c 0,-2.52 2.043,-4.563 4.563,-4.563 l 136.877,0 c 2.52,0 4.562,2.043 4.562,4.563 l 0,63.874 c 0,2.52 -2.042,4.563 -4.562,4.563"
       style="fill:#ffffff;fill-opacity:1;fill-rule:nonzero;stroke:#000000;stroke-width:0.80000001;stroke-miterlimit:4;stroke-opacity:1;stroke-dasharray:none"
       id="path5681" /><path
       inkscape:connector-curvature="0"
       d="m 5725.7113,3534.5191 c 0,-1.174 -0.956,-2.129 -2.13,-2.129 l -136.877,0 c -1.174,0 -2.129,0.955 -2.129,2.129 l 0,63.875 c 0,1.174 0.955,2.129 2.129,2.129 l 136.877,0 c 1.174,0 2.13,-0.955 2.13,-2.129 l 0,-63.875 z"
       style="fill:#00674c;fill-opacity:1;fill-rule:nonzero;stroke:none"
       id="path5689" /><path
       inkscape:connector-curvature="0"
       d="m 5610.8783,3576.7769 c -0.886,-2.115 -2.429,-3.173 -4.628,-3.173 -1.899,0 -3.3,0.843 -4.205,2.527 -0.711,1.306 -1.066,2.948 -1.066,4.925 0,1.988 0.35,3.629 1.051,4.924 0.915,1.686 2.321,2.529 4.22,2.529 2.141,0 3.693,-1.029 4.657,-3.085 l -2.206,-0.908 c -0.438,1.107 -1.256,1.66 -2.454,1.66 -1.013,0 -1.773,-0.511 -2.278,-1.536 -0.439,-0.878 -0.658,-2.072 -0.658,-3.584 0,-1.511 0.219,-2.706 0.658,-3.584 0.496,-1.024 1.255,-1.536 2.278,-1.536 1.12,0 1.947,0.569 2.483,1.704 l 2.148,-0.863 z"
       style="fill:#ffffff;fill-opacity:1;fill-rule:nonzero;stroke:none"
       id="path5693" /><path
       inkscape:connector-curvature="0"
       d="m 5621.5162,3584.2965 c 0,0.487 -0.164,0.897 -0.49,1.23 -0.326,0.332 -0.733,0.498 -1.219,0.498 l -3.361,0 0,-3.515 3.361,0 c 0.486,0 0.893,0.173 1.219,0.52 0.326,0.346 0.49,0.769 0.49,1.267 m 2.526,-10.54 -2.469,0 -2.351,6.421 -2.776,0 0,-6.421 -2.332,0 0,14.6 5.677,0 c 1.118,0 2.074,-0.397 2.867,-1.19 0.793,-0.793 1.19,-1.75 1.19,-2.869 0,-1.636 -0.773,-2.861 -2.317,-3.68 l 2.511,-6.861 z"
       style="fill:#ffffff;fill-opacity:1;fill-rule:nonzero;stroke:none"
       id="path5697" /><path
       inkscape:connector-curvature="0"
       d="m 5634.2643,3581.0562 c 0,1.492 -0.219,2.687 -0.658,3.584 -0.496,1.024 -1.226,1.536 -2.189,1.536 -0.974,0 -1.704,-0.512 -2.191,-1.536 -0.438,-0.888 -0.657,-2.082 -0.657,-3.584 0,-1.492 0.219,-2.686 0.657,-3.584 0.497,-1.024 1.227,-1.536 2.191,-1.536 0.963,0 1.693,0.512 2.189,1.536 0.439,0.898 0.658,2.092 0.658,3.584 m 2.332,0 c 0,-1.968 -0.35,-3.609 -1.05,-4.925 -0.905,-1.684 -2.281,-2.527 -4.129,-2.527 -1.859,0 -3.235,0.843 -4.13,2.527 -0.7,1.306 -1.05,2.948 -1.05,4.925 0,1.978 0.35,3.619 1.05,4.924 0.895,1.685 2.271,2.528 4.13,2.528 1.848,0 3.224,-0.843 4.129,-2.528 0.7,-1.315 1.05,-2.956 1.05,-4.924"
       style="fill:#ffffff;fill-opacity:1;fill-rule:nonzero;stroke:none"
       id="path5701" /><path
       inkscape:connector-curvature="0"
       d="m 5648.7322,3578.0925 c 0,-1.316 -0.472,-2.394 -1.417,-3.232 -0.944,-0.837 -2.108,-1.256 -3.492,-1.256 -1.753,0 -3.117,0.633 -4.091,1.9 -0.41,0.526 -0.721,1.16 -0.935,1.901 l 2.164,0.687 c 0.4,-1.438 1.365,-2.156 2.895,-2.156 0.654,0 1.229,0.189 1.726,0.57 0.546,0.419 0.818,0.945 0.818,1.578 0,0.829 -0.619,1.486 -1.856,1.975 -1.151,0.448 -2.301,0.895 -3.451,1.343 -1.238,0.722 -1.857,1.775 -1.857,3.159 0,1.179 0.34,2.11 1.022,2.792 0.778,0.77 1.951,1.155 3.517,1.155 2.044,0 3.514,-0.984 4.409,-2.954 l -2.176,-0.688 c -0.418,0.873 -1.159,1.31 -2.22,1.31 -1.481,0 -2.22,-0.536 -2.22,-1.608 0,-0.692 0.619,-1.248 1.857,-1.667 1.94,-0.663 3.091,-1.106 3.451,-1.331 1.237,-0.779 1.856,-1.938 1.856,-3.478"
       style="fill:#ffffff;fill-opacity:1;fill-rule:nonzero;stroke:none"
       id="path5705" /><path
       inkscape:connector-curvature="0"
       d="m 5660.1213,3578.0925 c 0,-1.316 -0.473,-2.394 -1.418,-3.232 -0.944,-0.837 -2.109,-1.256 -3.492,-1.256 -1.754,0 -3.117,0.633 -4.091,1.9 -0.409,0.526 -0.722,1.16 -0.936,1.901 l 2.165,0.687 c 0.399,-1.438 1.365,-2.156 2.895,-2.156 0.653,0 1.229,0.189 1.726,0.57 0.546,0.419 0.819,0.945 0.819,1.578 0,0.829 -0.619,1.486 -1.857,1.975 -1.151,0.448 -2.301,0.895 -3.452,1.343 -1.237,0.722 -1.856,1.775 -1.856,3.159 0,1.179 0.341,2.11 1.021,2.792 0.779,0.77 1.953,1.155 3.519,1.155 2.043,0 3.514,-0.984 4.408,-2.954 l -2.176,-0.688 c -0.419,0.873 -1.159,1.31 -2.22,1.31 -1.481,0 -2.22,-0.536 -2.22,-1.608 0,-0.692 0.618,-1.248 1.856,-1.667 1.941,-0.663 3.091,-1.106 3.452,-1.331 1.238,-0.779 1.857,-1.938 1.857,-3.478"
       style="fill:#ffffff;fill-opacity:1;fill-rule:nonzero;stroke:none"
       id="path5709" /><path
       inkscape:connector-curvature="0"
       d="m 5670.3263,3581.0562 c 0,1.492 -0.22,2.687 -0.657,3.584 -0.497,1.024 -1.227,1.536 -2.191,1.536 -0.973,0 -1.703,-0.512 -2.19,-1.536 -0.439,-0.888 -0.657,-2.082 -0.657,-3.584 0,-1.492 0.218,-2.686 0.657,-3.584 0.497,-1.024 1.227,-1.536 2.19,-1.536 0.964,0 1.694,0.512 2.191,1.536 0.437,0.898 0.657,2.092 0.657,3.584 m 2.332,0 c 0,-1.968 -0.351,-3.609 -1.051,-4.925 -0.904,-1.684 -2.281,-2.527 -4.129,-2.527 -1.857,0 -3.234,0.843 -4.129,2.527 -0.7,1.306 -1.05,2.948 -1.05,4.925 0,1.978 0.35,3.619 1.05,4.924 0.895,1.685 2.272,2.528 4.129,2.528 1.848,0 3.225,-0.843 4.129,-2.528 0.7,-1.315 1.051,-2.956 1.051,-4.924"
       style="fill:#ffffff;fill-opacity:1;fill-rule:nonzero;stroke:none"
       id="path5713" /><path
       inkscape:connector-curvature="0"
       d="m 5685.6683,3588.356 -4.6,-14.6 -1.898,0 -4.599,14.6 2.453,0 3.095,-9.884 3.096,9.884 2.453,0 z"
       style="fill:#ffffff;fill-opacity:1;fill-rule:nonzero;stroke:none"
       id="path5717" /><path
       inkscape:connector-curvature="0"
       d="m 5696.8963,3573.7564 -9.052,0 0,14.6 8.76,0 0,-2.332 -6.428,0 0,-3.515 4.443,0 0,-2.332 -4.443,0 0,-4.089 6.72,0 0,-2.332 z"
       style="fill:#ffffff;fill-opacity:1;fill-rule:nonzero;stroke:none"
       id="path5721" /><path
       inkscape:connector-curvature="0"
       d="m 5706.7793,3584.2965 c 0,0.487 -0.162,0.897 -0.489,1.23 -0.326,0.332 -0.733,0.498 -1.22,0.498 l -3.36,0 0,-3.515 3.36,0 c 0.487,0 0.894,0.173 1.22,0.52 0.327,0.346 0.489,0.769 0.489,1.267 m 2.528,-10.54 -2.469,0 -2.352,6.421 -2.776,0 0,-6.421 -2.331,0 0,14.6 5.676,0 c 1.119,0 2.074,-0.397 2.867,-1.19 0.793,-0.793 1.189,-1.75 1.189,-2.869 0,-1.636 -0.771,-2.861 -2.316,-3.68 l 2.512,-6.861 z"
       style="fill:#ffffff;fill-opacity:1;fill-rule:nonzero;stroke:none"
       id="path5725" /><path
       inkscape:connector-curvature="0"
       d="m 5618.6713,3548.2066 -2.332,0 0,11.828 -1.318,0 0,1.91 c 0.35,0 0.689,0.082 1.015,0.248 0.325,0.166 0.547,0.371 0.664,0.614 l 1.971,0 0,-14.6 z"
       style="fill:#ffffff;fill-opacity:1;fill-rule:nonzero;stroke:none"
       id="path5729" /><path
       inkscape:connector-curvature="0"
       d="m 5633.7183,3562.8062 -12.66,-21.9 -2.335,0 12.585,21.9 2.41,0 z"
       style="fill:#ffffff;fill-opacity:1;fill-rule:nonzero;stroke:none"
       id="path5733" /><path
       inkscape:connector-curvature="0"
       d="m 5635.8193,3546.8375 0,5.246 -3.948,-5.246 3.948,0 z m 3.82,-2.299 -1.455,0 0,-3.633 -2.365,0 0,3.633 -7.131,0 0,1.537 7.072,9.432 2.424,0 0,-8.637 1.455,0 0,-2.332 z"
       style="fill:#ffffff;fill-opacity:1;fill-rule:nonzero;stroke:none"
       id="path5737" /><path
       inkscape:connector-curvature="0"
       d="m 5659.9353,3550.8062 3.361,8.35 2.332,0 0,-14.6 -2.332,0 0,8.365 -3.36,-8.365 -3.361,8.365 0,-8.365 -2.332,0 0,14.6 2.338,0 3.359,-8.35 z"
       style="fill:#ffffff;fill-opacity:1;fill-rule:nonzero;stroke:none"
       id="path5741" /><path
       inkscape:connector-curvature="0"
       d="m 5671.4797,3544.5565 -2.332,0 0,14.6 2.332,0 0,-14.6 z"
       style="fill:#ffffff;fill-opacity:1;fill-rule:nonzero;stroke:none"
       id="path5743" /><path
       inkscape:connector-curvature="0"
       d="m 5684.0223,3544.5562 -9.051,0 0,14.6 2.332,0 0,-12.268 6.719,0 0,-2.332 z"
       style="fill:#ffffff;fill-opacity:1;fill-rule:nonzero;stroke:none"
       id="path5747" /><path
       inkscape:connector-curvature="0"
       d="m 5695.2652,3544.5562 -9.052,0 0,14.6 8.76,0 0,-2.332 -6.428,0 0,-3.514 4.441,0 0,-2.332 -4.441,0 0,-4.09 6.72,0 0,-2.332 z"
       style="fill:#ffffff;fill-opacity:1;fill-rule:nonzero;stroke:none"
       id="path5751" /></g></svg>