<?xml version="1.0" encoding="UTF-8" standalone="no"?>
<!-- Created with Inkscape (http://www.inkscape.org/) -->

<svg
   xmlns:dc="http://purl.org/dc/elements/1.1/"
   xmlns:cc="http://creativecommons.org/ns#"
   xmlns:rdf="http://www.w3.org/1999/02/22-rdf-syntax-ns#"
   xmlns:svg="http://www.w3.org/2000/svg"
   xmlns="http://www.w3.org/2000/svg"
   xmlns:sodipodi="http://sodipodi.sourceforge.net/DTD/sodipodi-0.dtd"
   xmlns:inkscape="http://www.inkscape.org/namespaces/inkscape"
   id="svg17624"
   version="1.1"
   inkscape:version="0.48.2 r9819"
   width="229.375"
   height="343.47656"
   xml:space="preserve"
   sodipodi:docname="MUTCD D2-3.svg"><metadata
     id="metadata17630"><rdf:RDF><cc:Work
         rdf:about=""><dc:format>image/svg+xml</dc:format><dc:type
           rdf:resource="http://purl.org/dc/dcmitype/StillImage" /><dc:title></dc:title></cc:Work></rdf:RDF></metadata><defs
     id="defs17628"><inkscape:perspective
       sodipodi:type="inkscape:persp3d"
       inkscape:vp_x="0 : 0.5 : 1"
       inkscape:vp_y="0 : 1000 : 0"
       inkscape:vp_z="1 : 0.5 : 1"
       inkscape:persp3d-origin="0.5 : 0.33333333 : 1"
       id="perspective17632" /><clipPath
       clipPathUnits="userSpaceOnUse"
       id="clipPath17642"><path
         d="m -2,710 501,0 0,-711 -501,0 0,711 z"
         id="path17644"
         inkscape:connector-curvature="0" /></clipPath><clipPath
       clipPathUnits="userSpaceOnUse"
       id="clipPath17648"><path
         d="m 0,708.06 498,0 0,-708 -498,0 0,708 z"
         id="path17650"
         inkscape:connector-curvature="0" /></clipPath><clipPath
       clipPathUnits="userSpaceOnUse"
       id="clipPath17798"><path
         d="m -2,710 501,0 0,-711 -501,0 0,711 z"
         id="path17800"
         inkscape:connector-curvature="0" /></clipPath><clipPath
       clipPathUnits="userSpaceOnUse"
       id="clipPath17804"><path
         d="m 0,708.06 498,0 0,-708 -498,0 0,708 z"
         id="path17806"
         inkscape:connector-curvature="0" /></clipPath><clipPath
       id="Clip0"><path
         inkscape:connector-curvature="0"
         d="m 0,0 212.597,0 0,269.292 L 0,269.292 0,0 z"
         transform="translate(0.923828,0.879883)"
         id="path7" /></clipPath><clipPath
       id="Clip0-8"><path
         inkscape:connector-curvature="0"
         d="m 0,0 170.079,0 0,113.386 L 0,113.386 0,0 z"
         transform="translate(0.0986328,0.822266)"
         id="path7-8" /></clipPath><clipPath
       id="Clip0-1"><path
         inkscape:connector-curvature="0"
         d="m 0,0 287.009,0 0,159.449 L 0,159.449 0,0 z"
         transform="translate(0.396484,0.267578)"
         id="path7-7" /></clipPath><clipPath
       id="Clip0-9"><path
         inkscape:connector-curvature="0"
         d="m 0,0 170.079,0 0,170.079 L 0,170.079 0,0 z"
         transform="translate(0.460938,0.775391)"
         id="path7-4" /></clipPath><clipPath
       id="Clip0-4"><path
         inkscape:connector-curvature="0"
         d="m 0,0 340.157,0 0,226.771 L 0,226.771 0,0 z"
         transform="translate(0.921875,0.25293)"
         id="path7-5" /></clipPath><clipPath
       id="Clip0-5"><path
         inkscape:connector-curvature="0"
         d="m 0,0 255.119,0 0,170.079 L 0,170.079 0,0 z"
         transform="translate(0.147461,0.0595703)"
         id="path7-1" /></clipPath><clipPath
       id="Clip0-0"><path
         inkscape:connector-curvature="0"
         d="m 0,0 170.079,0 0,113.386 L 0,113.386 0,0 z"
         transform="translate(0.0673828,0.207031)"
         id="path7-9" /></clipPath></defs><sodipodi:namedview
     pagecolor="#ffffff"
     bordercolor="#666666"
     borderopacity="1"
     objecttolerance="10"
     gridtolerance="10"
     guidetolerance="10"
     inkscape:pageopacity="0"
     inkscape:pageshadow="2"
     inkscape:window-width="1280"
     inkscape:window-height="1004"
     id="namedview17626"
     showgrid="false"
     inkscape:zoom="1.7346213"
     inkscape:cx="117.44881"
     inkscape:cy="184.13567"
     inkscape:window-x="-8"
     inkscape:window-y="-8"
     inkscape:window-maximized="1"
     inkscape:current-layer="g17634"
     fit-margin-top="0"
     fit-margin-left="0"
     fit-margin-right="0"
     fit-margin-bottom="0"
     showguides="true"
     inkscape:guide-bbox="true" /><g
     id="g17634"
     inkscape:groupmode="layer"
     inkscape:label="GG1999P002"
     transform="matrix(1.25,0,0,-1.25,-6335.1562,-5146.1719)"><path
       d="m 5251.1391,-4383.6295 c 0,-4.2017 -3.4067,-7.6083 -7.6036,-7.6083 l -167.3311,0 c -4.2017,0 -7.606,3.4066 -7.606,7.6083 l 0,258.6003 c 0,4.2017 3.4043,7.6083 7.606,7.6083 l 167.3311,0 c 4.1969,0 7.6036,-3.4066 7.6036,-7.6083 l 0,-258.6003 z"
       style="fill:#ffffff;fill-opacity:1;fill-rule:nonzero;stroke:#000000;stroke-width:0.95999998;stroke-miterlimit:4;stroke-opacity:1;stroke-dasharray:none"
       id="path3255"
       inkscape:connector-curvature="0" /><path
       d="m 5072.399,-4383.6295 0,258.6003 c 0,2.0973 1.7057,3.8077 3.8053,3.8077 l 167.3311,0 c 2.0973,0 3.803,-1.7104 3.803,-3.8077 l 0,-258.6003 c 0,-2.0973 -1.7057,-3.8006 -3.803,-3.8006 l -167.3311,0 c -2.0996,0 -3.8053,1.7033 -3.8053,3.8006"
       style="fill:#00674c;fill-opacity:1;fill-rule:nonzero;stroke:none"
       id="path3279"
       inkscape:connector-curvature="0" /><path
       d="m 5159.8676,-4227.6339 c -3.737,4.4777 -9.3494,7.2072 -15.1907,7.2072 l -1.5123,0 -2.0784,0 c -12.6758,0 -23.0137,10.3403 -23.0137,23.0137 0,7.8348 5.0038,13.5841 5.0038,21.6902 0,5.511 -1.8708,11.2297 -5.0934,15.5918 l 16.5849,15.9385 c 3.4137,-2.8805 8.0023,-4.7042 12.5555,-4.7042 4.6264,0 9.3305,1.7458 12.7443,4.7773 3.416,-3.0315 8.1202,-4.7773 12.7465,-4.7773 4.5462,0 9.1418,1.8237 12.5555,4.7042 l 16.5826,-15.9385 c -3.2202,-4.3621 -5.0958,-10.0808 -5.0958,-15.5918 0,-8.1061 5.0085,-13.8554 5.0085,-21.6902 0,-12.6734 -10.3402,-23.0137 -23.016,-23.0137 l -2.0784,0 -1.5099,0 c -5.8437,0 -11.4561,-2.7295 -15.193,-7.2072"
       style="fill:#ffffff;fill-opacity:1;fill-rule:evenodd;stroke:none"
       id="path3283"
       inkscape:connector-curvature="0" /><path
       d="m 5186.906,-4194.896 c 0,-3.4798 -3.6354,-6.3532 -7.8702,-6.3532 -4.2394,0 -7.7168,2.8734 -7.7168,6.3532 0,3.3264 3.4774,6.2023 7.7168,6.2023 4.3928,0 7.8702,-2.8759 7.8702,-6.2023 m 6.811,-0.151 c 0,7.2616 -6.6576,13.1689 -14.6812,13.1689 -1.6632,0 -2.7224,0 -5.1453,-0.4577 2.5739,5.4474 5.2987,8.9295 10.5927,13.0179 l -3.4798,5.7446 c -9.9887,-6.6576 -16.6463,-18.9135 -16.6463,-30.8721 0,-7.7121 6.358,-13.7893 14.6787,-13.7893 8.3232,0 14.6812,5.7729 14.6812,13.1877 m -36.3218,3.4774 c 0,7.8702 -6.5066,14.5278 -14.3768,14.5278 -2.1162,0 -3.4798,-0.2996 -6.6599,-1.2055 l 0.4529,7.1129 18.1633,0 0,6.8062 -24.8208,0 -1.0569,-22.247 6.8109,-1.9628 c 2.5715,3.626 3.9304,4.5343 6.9572,4.5343 4.2394,0 7.7192,-3.3264 7.7192,-7.5659 0,-5.5983 -4.8387,-9.6796 -11.0457,-9.6796 -3.1801,0 -6.3532,0.6016 -8.1745,1.5098 l -3.3264,-6.0489 c 3.0221,-1.5122 6.8109,-2.4464 10.5927,-2.4464 10.8946,0 18.7648,7.1365 18.7648,16.6651"
       style="fill:#000000;fill-opacity:1;fill-rule:evenodd;stroke:none"
       id="path3287"
       inkscape:connector-curvature="0" /><path
       d="m 5205.5033,-4362.7107 c 0,-3.1519 -2.5526,-5.7092 -5.7045,-5.7092 l -79.8602,0 c -3.1518,0 -5.7044,2.5573 -5.7044,5.7092 l 0,102.6804 c 0,3.1472 2.5526,5.7045 5.7044,5.7045 l 79.8602,0 c 3.1519,0 5.7045,-2.5573 5.7045,-5.7045 l 0,-102.6804 z"
       style="fill:#ffffff;fill-opacity:1;fill-rule:nonzero;stroke:none"
       id="path3291"
       inkscape:connector-curvature="0" /><path
       d="m 5201.7027,-4362.7107 c 0,-1.0498 -0.854,-1.9015 -1.9039,-1.9015 l -79.8602,0 c -1.0522,0 -1.9038,0.8517 -1.9038,1.9015 l 0,102.6804 c 0,1.0451 0.8516,1.8968 1.9038,1.8968 l 79.8602,0 c 1.0499,0 1.9039,-0.8517 1.9039,-1.8968 l 0,-102.6804 z m -1.9039,106.9553 -79.8602,0 c -2.3592,0 -4.2772,-1.9157 -4.2772,-4.2749 l 0,-102.6804 c 0,-2.3639 1.918,-4.2795 4.2772,-4.2795 l 79.8602,0 c 2.3592,0 4.2819,1.9156 4.2819,4.2795 l 0,102.6804 c 0,2.3592 -1.9227,4.2749 -4.2819,4.2749"
       style="fill:#000000;fill-opacity:1;fill-rule:nonzero;stroke:none"
       id="path3295"
       inkscape:connector-curvature="0" /><path
       d="m 5139.6967,-4339.1096 c -0.5733,0.9531 -1.2693,1.3329 -2.3474,1.3966 -1.3943,0.064 -2.279,-0.6369 -2.9159,-2.2199 -0.4412,-1.0758 -0.696,-2.7249 -0.696,-4.2442 0,-1.9038 0.3775,-3.8667 1.0734,-5.0085 0.571,-0.9508 1.333,-1.3966 2.4748,-1.3966 1.3329,0 2.1563,0.7006 2.7885,2.286 0.3822,0.9484 0.7007,2.7225 0.7007,4.1191 0,2.0265 -0.3845,3.8643 -1.0781,5.0675 m 1.9628,-12.3573 c -1.0144,-1.3967 -2.47,-2.0289 -4.3739,-2.0289 -2.5337,0 -4.1191,1.0144 -5.1972,3.2321 -0.7597,1.5193 -1.2669,3.9303 -1.2669,6.0866 0,2.9749 0.7596,5.6384 1.9628,7.3488 1.0781,1.3966 2.5385,2.0313 4.6263,2.0313 2.2861,0 3.8691,-1.0121 5.0086,-3.2345 0.7596,-1.5853 1.2078,-3.8666 1.2078,-6.1456 0,-2.8522 -0.7006,-5.7045 -1.9675,-7.2898"
       style="fill:#000000;fill-opacity:1;fill-rule:nonzero;stroke:none"
       id="path3299"
       inkscape:connector-curvature="0" /><path
       d="m 5157.376,-4353.1773 -6.9076,12.2299 0,-12.2299 -2.8522,0 0,18.0618 2.8522,0 6.5939,-11.5364 0,11.5364 2.8522,0 0,-18.0618 -2.5385,0 z"
       style="fill:#000000;fill-opacity:1;fill-rule:nonzero;stroke:none"
       id="path3303"
       inkscape:connector-curvature="0" /><path
       d="m 5164.2226,-4353.1773 0,18.0618 2.8522,0 0,-15.403 8.368,0 0,-2.6588 -11.2202,0 z"
       style="fill:#000000;fill-opacity:1;fill-rule:nonzero;stroke:none"
       id="path3307"
       inkscape:connector-curvature="0" /><path
       d="m 5182.0956,-4345.3213 0,-7.856 -2.8522,0 0,7.856 -6.3344,10.2058 3.4232,0 4.3078,-6.9714 4.3739,6.9714 3.3571,0 -6.2754,-10.2058 z"
       style="fill:#000000;fill-opacity:1;fill-rule:nonzero;stroke:none"
       id="path3311"
       inkscape:connector-curvature="0" /><path
       d="m 5136.7642,-4311.4767 0.087,-15.9928 11.3358,0 0,15.9928 c 0,4.0649 1.0828,8.1061 3.1235,11.6213 2.3828,4.0955 6.0419,7.422 10.3308,9.4414 1.8307,0.8564 3.7511,1.3306 5.7139,1.7835 l -0.04,-6.8109 c 0,-0.158 0.016,-0.3232 0.05,-0.4789 0.092,-0.5261 0.3916,-1.0475 0.7974,-1.3825 0.46,-0.3774 1.064,-0.5756 1.6585,-0.5119 0.5119,0.054 1.0923,0.2666 1.4296,0.6818 l 16.7619,20.9423 -25.3941,7.9575 c -0.4223,0.1345 -0.9295,0.125 -1.3541,0 -1.0357,-0.2996 -1.7175,-1.3919 -1.6113,-2.4512 0.04,-0.4341 0.2288,-0.8304 0.4741,-1.1843 l 3.9304,-5.754 c -1.5712,-0.4529 -3.1377,-0.946 -4.6876,-1.4745 -2.0454,-0.6912 -4.0389,-1.5405 -5.8744,-2.6871 -5.636,-3.501 -10.2553,-8.5661 -13.2184,-14.5041 -1.55,-3.1023 -2.6375,-6.4335 -3.0339,-9.8802 -0.1958,-1.7694 -0.3586,-3.5388 -0.4789,-5.3082"
       style="fill:#000000;fill-opacity:1;fill-rule:evenodd;stroke:none"
       id="path3315"
       inkscape:connector-curvature="0" /></g></svg>