<?xml version="1.0" encoding="UTF-8" standalone="no"?>
<!-- Created with Inkscape (http://www.inkscape.org/) -->

<svg
   xmlns:dc="http://purl.org/dc/elements/1.1/"
   xmlns:cc="http://creativecommons.org/ns#"
   xmlns:rdf="http://www.w3.org/1999/02/22-rdf-syntax-ns#"
   xmlns:svg="http://www.w3.org/2000/svg"
   xmlns="http://www.w3.org/2000/svg"
   xmlns:sodipodi="http://sodipodi.sourceforge.net/DTD/sodipodi-0.dtd"
   xmlns:inkscape="http://www.inkscape.org/namespaces/inkscape"
   id="svg17624"
   version="1.1"
   inkscape:version="0.48.2 r9819"
   width="229.375"
   height="343.47656"
   xml:space="preserve"
   sodipodi:docname="MUTCD D15-1 (route shield).svg"><metadata
     id="metadata17630"><rdf:RDF><cc:Work
         rdf:about=""><dc:format>image/svg+xml</dc:format><dc:type
           rdf:resource="http://purl.org/dc/dcmitype/StillImage" /><dc:title></dc:title></cc:Work></rdf:RDF></metadata><defs
     id="defs17628"><inkscape:perspective
       sodipodi:type="inkscape:persp3d"
       inkscape:vp_x="0 : 0.5 : 1"
       inkscape:vp_y="0 : 1000 : 0"
       inkscape:vp_z="1 : 0.5 : 1"
       inkscape:persp3d-origin="0.5 : 0.33333333 : 1"
       id="perspective17632" /><clipPath
       clipPathUnits="userSpaceOnUse"
       id="clipPath17642"><path
         d="m -2,710 501,0 0,-711 -501,0 0,711 z"
         id="path17644"
         inkscape:connector-curvature="0" /></clipPath><clipPath
       clipPathUnits="userSpaceOnUse"
       id="clipPath17648"><path
         d="m 0,708.06 498,0 0,-708 -498,0 0,708 z"
         id="path17650"
         inkscape:connector-curvature="0" /></clipPath><clipPath
       clipPathUnits="userSpaceOnUse"
       id="clipPath17798"><path
         d="m -2,710 501,0 0,-711 -501,0 0,711 z"
         id="path17800"
         inkscape:connector-curvature="0" /></clipPath><clipPath
       clipPathUnits="userSpaceOnUse"
       id="clipPath17804"><path
         d="m 0,708.06 498,0 0,-708 -498,0 0,708 z"
         id="path17806"
         inkscape:connector-curvature="0" /></clipPath><clipPath
       id="Clip0"><path
         inkscape:connector-curvature="0"
         d="m 0,0 212.597,0 0,269.292 L 0,269.292 0,0 z"
         transform="translate(0.923828,0.879883)"
         id="path7" /></clipPath><clipPath
       id="Clip0-8"><path
         inkscape:connector-curvature="0"
         d="m 0,0 170.079,0 0,113.386 L 0,113.386 0,0 z"
         transform="translate(0.0986328,0.822266)"
         id="path7-8" /></clipPath><clipPath
       id="Clip0-1"><path
         inkscape:connector-curvature="0"
         d="m 0,0 287.009,0 0,159.449 L 0,159.449 0,0 z"
         transform="translate(0.396484,0.267578)"
         id="path7-7" /></clipPath><clipPath
       id="Clip0-9"><path
         inkscape:connector-curvature="0"
         d="m 0,0 170.079,0 0,170.079 L 0,170.079 0,0 z"
         transform="translate(0.460938,0.775391)"
         id="path7-4" /></clipPath><clipPath
       id="Clip0-4"><path
         inkscape:connector-curvature="0"
         d="m 0,0 340.157,0 0,226.771 L 0,226.771 0,0 z"
         transform="translate(0.921875,0.25293)"
         id="path7-5" /></clipPath><clipPath
       id="Clip0-5"><path
         inkscape:connector-curvature="0"
         d="m 0,0 255.119,0 0,170.079 L 0,170.079 0,0 z"
         transform="translate(0.147461,0.0595703)"
         id="path7-1" /></clipPath><clipPath
       id="Clip0-0"><path
         inkscape:connector-curvature="0"
         d="m 0,0 170.079,0 0,113.386 L 0,113.386 0,0 z"
         transform="translate(0.0673828,0.207031)"
         id="path7-9" /></clipPath></defs><sodipodi:namedview
     pagecolor="#ffffff"
     bordercolor="#666666"
     borderopacity="1"
     objecttolerance="10"
     gridtolerance="10"
     guidetolerance="10"
     inkscape:pageopacity="0"
     inkscape:pageshadow="2"
     inkscape:window-width="1280"
     inkscape:window-height="1004"
     id="namedview17626"
     showgrid="false"
     inkscape:zoom="1.7346213"
     inkscape:cx="141.21008"
     inkscape:cy="127.62751"
     inkscape:window-x="-8"
     inkscape:window-y="-8"
     inkscape:window-maximized="1"
     inkscape:current-layer="g17634"
     fit-margin-top="0"
     fit-margin-left="0"
     fit-margin-right="0"
     fit-margin-bottom="0"
     showguides="true"
     inkscape:guide-bbox="true" /><g
     id="g17634"
     inkscape:groupmode="layer"
     inkscape:label="GG1999P002"
     transform="matrix(1.25,0,0,-1.25,-7572.8125,-5738.5547)"><path
       d="m 6241.264,-4857.5294 c 0,-4.204 -3.4066,-7.6083 -7.6036,-7.6083 l -167.3311,0 c -4.2017,0 -7.6059,3.4043 -7.6059,7.6083 l 0,258.605 c 0,4.197 3.4042,7.6013 7.6059,7.6013 l 167.3311,0 c 4.197,0 7.6036,-3.4043 7.6036,-7.6013 l 0,-258.605 z"
       style="fill:#ffffff;fill-opacity:1;fill-rule:nonzero;stroke:#000000;stroke-width:0.96;stroke-miterlimit:4;stroke-opacity:1;stroke-dasharray:none"
       id="path3333"
       inkscape:connector-curvature="0" /><path
       d="m 6062.524,-4857.5294 0,258.605 c 0,2.095 1.7056,3.8007 3.8053,3.8007 l 167.3311,0 c 2.0973,0 3.803,-1.7057 3.803,-3.8007 l 0,-258.605 c 0,-2.0972 -1.7057,-3.8029 -3.803,-3.8029 l -167.3311,0 c -2.0997,0 -3.8053,1.7057 -3.8053,3.8029"
       style="fill:#00674c;fill-opacity:1;fill-rule:nonzero;stroke:none"
       id="path3357"
       inkscape:connector-curvature="0" /><path
       d="m 6195.6283,-4836.6153 c 0,-3.1472 -2.5526,-5.7045 -5.7045,-5.7045 l -79.8602,0 c -3.1519,0 -5.7045,2.5573 -5.7045,5.7045 l 0,102.6828 c 0,3.1471 2.5526,5.7045 5.7045,5.7045 l 79.8602,0 c 3.1519,0 5.7045,-2.5574 5.7045,-5.7045 l 0,-102.6828 z"
       style="fill:#ffffff;fill-opacity:1;fill-rule:nonzero;stroke:none"
       id="path3361"
       inkscape:connector-curvature="0" /><path
       d="m 6191.8276,-4836.6153 c 0,-1.0475 -0.854,-1.8992 -1.9038,-1.8992 l -79.8602,0 c -1.0522,0 -1.9039,0.8517 -1.9039,1.8992 l 0,102.6828 c 0,1.0475 0.8517,1.8991 1.9039,1.8991 l 79.8602,0 c 1.0498,0 1.9038,-0.8516 1.9038,-1.8991 l 0,-102.6828 z m -1.9038,106.96 -79.8602,0 c -2.3592,0 -4.2772,-1.918 -4.2772,-4.2772 l 0,-102.6828 c 0,-2.3592 1.918,-4.2772 4.2772,-4.2772 l 79.8602,0 c 2.3592,0 4.2819,1.918 4.2819,4.2772 l 0,102.6828 c 0,2.3592 -1.9227,4.2772 -4.2819,4.2772"
       style="fill:#000000;fill-opacity:1;fill-rule:nonzero;stroke:none"
       id="path3365"
       inkscape:connector-curvature="0" /><path
       d="m 6129.8216,-4813.0095 c -0.5732,0.9531 -1.2692,1.3306 -2.3473,1.3943 -1.3943,0.066 -2.279,-0.6346 -2.916,-2.22 -0.4411,-1.0734 -0.6959,-2.7225 -0.6959,-4.2441 0,-1.9015 0.3774,-3.8644 1.0781,-5.0086 0.5662,-0.9483 1.3329,-1.3966 2.4701,-1.3966 1.3329,0 2.1562,0.7007 2.7885,2.2861 0.3822,0.9483 0.7007,2.7224 0.7007,4.1191 0,2.0288 -0.3846,3.8666 -1.0782,5.0698 m 1.9629,-12.3597 c -1.0145,-1.3942 -2.4701,-2.0265 -4.3739,-2.0265 -2.5338,0 -4.1191,1.0144 -5.1973,3.2297 -0.7596,1.5217 -1.2669,3.9304 -1.2669,6.0867 0,2.9772 0.7597,5.6407 1.9629,7.3488 1.0781,1.3966 2.5384,2.0336 4.631,2.0336 2.2813,0 3.8643,-1.0145 5.0038,-3.2344 0.7597,-1.5854 1.2079,-3.8667 1.2079,-6.148 0,-2.8523 -0.7007,-5.7045 -1.9675,-7.2899"
       style="fill:#000000;fill-opacity:1;fill-rule:nonzero;stroke:none"
       id="path3369"
       inkscape:connector-curvature="0" /><path
       d="m 6147.506,-4827.0819 -6.9124,12.2323 0,-12.2323 -2.8522,0 0,18.0665 2.8522,0 6.5939,-11.5387 0,11.5387 2.8522,0 0,-18.0665 -2.5337,0 z"
       style="fill:#000000;fill-opacity:1;fill-rule:nonzero;stroke:none"
       id="path3373"
       inkscape:connector-curvature="0" /><path
       d="m 6154.3476,-4827.0819 0,18.0665 2.8522,0 0,-15.403 8.368,0 0,-2.6635 -11.2202,0 z"
       style="fill:#000000;fill-opacity:1;fill-rule:nonzero;stroke:none"
       id="path3377"
       inkscape:connector-curvature="0" /><path
       d="m 6172.2206,-4819.2212 0,-7.8607 -2.8522,0 0,7.8607 -6.3344,10.2058 3.4231,0 4.3079,-6.9714 4.3739,6.9714 3.3571,0 -6.2754,-10.2058 z"
       style="fill:#000000;fill-opacity:1;fill-rule:nonzero;stroke:none"
       id="path3381"
       inkscape:connector-curvature="0" /><path
       d="m 6135.8514,-4761.3295 14.1314,20.8904 14.1503,-20.8904 c 0.6275,-0.9225 0.3893,-2.1846 -0.5332,-2.8074 -0.6133,-0.4176 -1.2527,-0.3445 -2.01,-0.151 l -6.1315,1.8425 0,-38.9523 -10.9441,0 0,38.9523 -6.0324,-1.8001 c -0.8328,-0.2312 -1.4509,-0.3279 -2.095,0.1086 -0.9224,0.6228 -1.1607,1.8849 -0.5355,2.8074"
       style="fill:#000000;fill-opacity:1;fill-rule:evenodd;stroke:none"
       id="path3385"
       inkscape:connector-curvature="0" /><path
       d="m 6098.197,-4640.7595 c 0,-1.8236 -0.4978,-3.4916 -1.4886,-4.9991 -1.3353,-2.0548 -3.317,-3.0811 -5.9334,-3.0811 -2.9088,0 -5.0651,1.3165 -6.4641,3.9469 -1.097,2.0431 -1.6467,4.6098 -1.6467,7.6956 0,3.0929 0.5497,5.6597 1.6467,7.7004 1.399,2.6304 3.5506,3.9492 6.4547,3.9492 3.4703,0 5.7965,-1.7434 6.9855,-5.235 l -3.3359,-1.3447 c -0.762,1.9581 -1.9769,2.9348 -3.6543,2.9348 -1.5217,0 -2.6635,-0.8021 -3.4232,-2.4016 -0.6818,-1.3872 -1.0286,-3.2533 -1.0286,-5.6031 0,-2.3308 0.3468,-4.1969 1.0334,-5.5983 0.7738,-1.6042 1.9156,-2.4016 3.4278,-2.4016 1.4132,0 2.4748,0.6417 3.1755,1.9274 0.427,0.7927 0.6535,1.6043 0.6865,2.4323 l -4.1474,0 0,3.6402 7.7121,0 0,-3.5623 z"
       style="fill:#ffffff;fill-opacity:1;fill-rule:nonzero;stroke:none"
       id="path3389"
       inkscape:connector-curvature="0" /><path
       d="m 6106.3904,-4648.6061 -3.645,0 0,21.0957 3.645,1.9628 0,-23.0585 z"
       style="fill:#ffffff;fill-opacity:1;fill-rule:nonzero;stroke:none"
       id="path3393"
       inkscape:connector-curvature="0" /><path
       d="m 6119.8872,-4638.5702 c 0,1.0003 -0.2548,1.8213 -0.7668,2.4559 -0.5096,0.637 -1.2055,0.9531 -2.0902,0.9531 -0.8399,0 -1.5571,-0.335 -2.1516,-1.0121 -0.5945,-0.6723 -0.9318,-1.4697 -1.005,-2.3969 l 6.0136,0 z m 3.1589,-6.6127 c -0.4742,-1.0994 -1.215,-1.977 -2.2389,-2.6305 -1.0781,-0.6865 -2.3403,-1.0263 -3.7864,-1.0263 -2.1893,0 -3.8997,0.7455 -5.1194,2.2342 -1.2268,1.4933 -1.8378,3.5977 -1.8378,6.3225 0,2.4182 0.5001,4.3716 1.5051,5.8649 1.2032,1.793 3.0221,2.6895 5.4568,2.6895 4.3361,0 6.5066,-2.8522 6.5066,-8.5591 0,-0.854 -0.014,-1.4249 -0.047,-1.7151 l -9.6113,0 c 0.1369,-0.9814 0.4648,-1.7788 0.9814,-2.3827 0.5757,-0.6818 1.2999,-1.0216 2.1658,-1.0216 1.3872,0 2.3497,0.7927 2.897,2.3734 l 3.1283,-2.1492 z"
       style="fill:#ffffff;fill-opacity:1;fill-rule:nonzero;stroke:none"
       id="path3397"
       inkscape:connector-curvature="0" /><path
       d="m 6140.1736,-4648.6061 -3.6449,0 0,10.7083 c 0,0.946 -0.3444,1.6585 -1.0309,2.1421 -0.5615,0.3963 -1.2575,0.5945 -2.0832,0.5945 -0.7927,0 -1.4697,-0.2052 -2.0359,-0.6157 -0.6866,-0.5025 -1.0286,-1.2079 -1.0286,-2.1209 l 0,-10.7083 -3.645,0 0,16.6581 3.645,0 0,-0.6606 c 1.0191,0.5851 2.2577,0.88 3.7227,0.88 1.6137,0 3.0009,-0.4459 4.1569,-1.3447 1.2952,-1.005 1.9439,-2.3828 1.9439,-4.1286 l 0,-11.4042 z"
       style="fill:#ffffff;fill-opacity:1;fill-rule:nonzero;stroke:none"
       id="path3401"
       inkscape:connector-curvature="0" /><path
       d="m 6157.3508,-4631.9386 4.2229,-11.1187 3.1471,11.1187 3.744,0 -4.7042,-16.6675 -3.9445,0 -4.2418,11.0905 -4.2441,-11.0905 -3.9493,0 -4.6995,16.6675 3.7417,0 3.1471,-11.1187 4.2206,11.1187 3.56,0 z"
       style="fill:#ffffff;fill-opacity:1;fill-rule:nonzero;stroke:none"
       id="path3405"
       inkscape:connector-curvature="0" /><path
       d="m 6180.5744,-4640.283 c 0,1.4085 -0.243,2.5692 -0.7313,3.4822 -0.5804,1.0923 -1.4438,1.6396 -2.5857,1.6396 -1.097,0 -1.9345,-0.5001 -2.5101,-1.5004 -0.5355,-0.913 -0.8021,-2.1209 -0.8021,-3.6214 0,-1.4155 0.243,-2.5762 0.7313,-3.4844 0.5804,-1.0923 1.4391,-1.6397 2.5809,-1.6397 1.1419,0 2.0053,0.5474 2.5857,1.6397 0.4883,0.9082 0.7313,2.0689 0.7313,3.4844 m 3.645,0 c 0,-2.4794 -0.5261,-4.4753 -1.576,-5.9828 -1.2149,-1.7175 -3.0126,-2.5739 -5.386,-2.5739 -2.1893,0 -3.8926,0.7455 -5.1194,2.2342 -1.2244,1.4933 -1.8377,3.5977 -1.8377,6.3225 0,2.4182 0.5025,4.3716 1.5051,5.8649 1.2032,1.793 3.0197,2.6895 5.452,2.6895 2.4064,0 4.2159,-0.8871 5.4332,-2.6706 1.0168,-1.5028 1.5288,-3.4656 1.5288,-5.8838"
       style="fill:#ffffff;fill-opacity:1;fill-rule:nonzero;stroke:none"
       id="path3409"
       inkscape:connector-curvature="0" /><path
       d="m 6197.2325,-4640.283 c 0,1.4085 -0.2453,2.5692 -0.7337,3.4822 -0.5803,1.0923 -1.4414,1.6396 -2.5833,1.6396 -1.097,0 -1.9369,-0.5001 -2.5125,-1.5004 -0.5332,-0.913 -0.8021,-2.1209 -0.8021,-3.6214 0,-1.4155 0.2453,-2.5762 0.7337,-3.4844 0.5803,-1.0923 1.4367,-1.6397 2.5809,-1.6397 1.1419,0 2.003,0.5474 2.5833,1.6397 0.4884,0.9082 0.7337,2.0689 0.7337,3.4844 m 3.6449,0 c 0,-2.4794 -0.5261,-4.4753 -1.5759,-5.9828 -1.2173,-1.7175 -3.015,-2.5739 -5.386,-2.5739 -2.1893,0 -3.895,0.7455 -5.1194,2.2342 -1.2267,1.4933 -1.8401,3.5977 -1.8401,6.3225 0,2.4182 0.5025,4.3716 1.5075,5.8649 1.2032,1.793 3.0174,2.6895 5.452,2.6895 2.404,0 4.2159,-0.8871 5.4308,-2.6706 1.0192,-1.5028 1.5311,-3.4656 1.5311,-5.8838"
       style="fill:#ffffff;fill-opacity:1;fill-rule:nonzero;stroke:none"
       id="path3413"
       inkscape:connector-curvature="0" /><path
       d="m 6213.676,-4644.1305 0,7.3771 c -0.5332,1.0593 -1.635,1.5924 -3.3076,1.5924 -1.005,0 -1.7835,-0.5095 -2.3309,-1.524 -0.5025,-0.913 -0.7525,-2.1114 -0.7525,-3.5977 0,-3.4161 1.0286,-5.1241 3.0834,-5.1241 1.5217,0 2.621,0.4223 3.3076,1.2763 m 3.6449,-4.4754 -3.6449,0 0,0.5497 c -1.123,-0.5402 -2.2295,-0.8115 -3.3076,-0.8115 -4.4824,0 -6.726,2.8664 -6.726,8.5921 0,5.6997 2.2436,8.5472 6.726,8.5472 1.1442,0 2.2436,-0.3538 3.3076,-1.064 l 0,5.2822 3.6449,1.9629 0,-23.0586 z"
       style="fill:#ffffff;fill-opacity:1;fill-rule:nonzero;stroke:none"
       id="path3417"
       inkscape:connector-curvature="0" /><path
       d="m 6135.9578,-4678.5015 -2.3969,6.9666 -2.371,-6.9666 4.7679,0 z m 7.304,-10.0359 -3.8573,0 -2.194,6.391 -7.3205,0 -2.1468,-6.391 -3.8809,0 7.8513,22.8179 3.6969,0 7.8513,-22.8179 z"
       style="fill:#ffffff;fill-opacity:1;fill-rule:nonzero;stroke:none"
       id="path3421"
       inkscape:connector-curvature="0" /><path
       d="m 6160.5923,-4671.8699 -6.3415,-16.6675 -3.4915,0 -6.3698,16.6675 3.9257,0 4.1757,-11.0078 4.2205,11.0078 3.8809,0 z"
       style="fill:#ffffff;fill-opacity:1;fill-rule:nonzero;stroke:none"
       id="path3425"
       inkscape:connector-curvature="0" /><path
       d="m 6172.2536,-4678.5015 c 0,1.0003 -0.2548,1.8213 -0.7643,2.4559 -0.512,0.637 -1.2127,0.9555 -2.0926,0.9555 -0.8399,0 -1.5571,-0.3374 -2.1516,-1.0145 -0.5945,-0.6723 -0.9319,-1.4697 -1.005,-2.3969 l 6.0135,0 z m 3.1613,-6.6151 c -0.4742,-1.097 -1.222,-1.9723 -2.2388,-2.6281 -1.0805,-0.6865 -2.3427,-1.0262 -3.7889,-1.0262 -2.1893,0 -3.8973,0.7455 -5.1241,2.2341 -1.2197,1.4933 -1.833,3.5977 -1.833,6.3226 0,2.4181 0.5025,4.3715 1.5051,5.8601 1.2032,1.7977 3.0197,2.6966 5.4568,2.6966 4.3361,0 6.5066,-2.857 6.5066,-8.5615 0,-0.854 -0.014,-1.4249 -0.047,-1.7151 l -9.6113,0 c 0.1392,-0.9814 0.46,-1.7788 0.9814,-2.3827 0.5756,-0.6818 1.2999,-1.0216 2.1657,-1.0216 1.3872,0 2.3498,0.788 2.8994,2.3734 l 3.1283,-2.1516 z"
       style="fill:#ffffff;fill-opacity:1;fill-rule:nonzero;stroke:none"
       id="path3429"
       inkscape:connector-curvature="0" /></g></svg>