<?xml version="1.0" encoding="UTF-8" standalone="no"?>
<!-- Created with Inkscape (http://www.inkscape.org/) -->

<svg
   xmlns:dc="http://purl.org/dc/elements/1.1/"
   xmlns:cc="http://creativecommons.org/ns#"
   xmlns:rdf="http://www.w3.org/1999/02/22-rdf-syntax-ns#"
   xmlns:svg="http://www.w3.org/2000/svg"
   xmlns="http://www.w3.org/2000/svg"
   xmlns:sodipodi="http://sodipodi.sourceforge.net/DTD/sodipodi-0.dtd"
   xmlns:inkscape="http://www.inkscape.org/namespaces/inkscape"
   id="svg17624"
   version="1.1"
   inkscape:version="0.48.2 r9819"
   width="220.03906"
   height="128.75"
   xml:space="preserve"
   sodipodi:docname="MUTCD D17-2.svg"><metadata
     id="metadata17630"><rdf:RDF><cc:Work
         rdf:about=""><dc:format>image/svg+xml</dc:format><dc:type
           rdf:resource="http://purl.org/dc/dcmitype/StillImage" /><dc:title></dc:title></cc:Work></rdf:RDF></metadata><defs
     id="defs17628"><inkscape:perspective
       sodipodi:type="inkscape:persp3d"
       inkscape:vp_x="0 : 0.5 : 1"
       inkscape:vp_y="0 : 1000 : 0"
       inkscape:vp_z="1 : 0.5 : 1"
       inkscape:persp3d-origin="0.5 : 0.33333333 : 1"
       id="perspective17632" /><clipPath
       clipPathUnits="userSpaceOnUse"
       id="clipPath17642"><path
         d="m -2,710 501,0 0,-711 -501,0 0,711 z"
         id="path17644"
         inkscape:connector-curvature="0" /></clipPath><clipPath
       clipPathUnits="userSpaceOnUse"
       id="clipPath17648"><path
         d="m 0,708.06 498,0 0,-708 -498,0 0,708 z"
         id="path17650"
         inkscape:connector-curvature="0" /></clipPath><clipPath
       clipPathUnits="userSpaceOnUse"
       id="clipPath17798"><path
         d="m -2,710 501,0 0,-711 -501,0 0,711 z"
         id="path17800"
         inkscape:connector-curvature="0" /></clipPath><clipPath
       clipPathUnits="userSpaceOnUse"
       id="clipPath17804"><path
         d="m 0,708.06 498,0 0,-708 -498,0 0,708 z"
         id="path17806"
         inkscape:connector-curvature="0" /></clipPath><clipPath
       id="Clip0"><path
         inkscape:connector-curvature="0"
         d="m 0,0 212.597,0 0,269.292 L 0,269.292 0,0 z"
         transform="translate(0.923828,0.879883)"
         id="path7" /></clipPath><clipPath
       id="Clip0-8"><path
         inkscape:connector-curvature="0"
         d="m 0,0 170.079,0 0,113.386 L 0,113.386 0,0 z"
         transform="translate(0.0986328,0.822266)"
         id="path7-8" /></clipPath><clipPath
       id="Clip0-1"><path
         inkscape:connector-curvature="0"
         d="m 0,0 287.009,0 0,159.449 L 0,159.449 0,0 z"
         transform="translate(0.396484,0.267578)"
         id="path7-7" /></clipPath><clipPath
       id="Clip0-9"><path
         inkscape:connector-curvature="0"
         d="m 0,0 170.079,0 0,170.079 L 0,170.079 0,0 z"
         transform="translate(0.460938,0.775391)"
         id="path7-4" /></clipPath><clipPath
       id="Clip0-4"><path
         inkscape:connector-curvature="0"
         d="m 0,0 340.157,0 0,226.771 L 0,226.771 0,0 z"
         transform="translate(0.921875,0.25293)"
         id="path7-5" /></clipPath><clipPath
       id="Clip0-5"><path
         inkscape:connector-curvature="0"
         d="m 0,0 255.119,0 0,170.079 L 0,170.079 0,0 z"
         transform="translate(0.147461,0.0595703)"
         id="path7-1" /></clipPath><clipPath
       id="Clip0-0"><path
         inkscape:connector-curvature="0"
         d="m 0,0 170.079,0 0,113.386 L 0,113.386 0,0 z"
         transform="translate(0.0673828,0.207031)"
         id="path7-9" /></clipPath></defs><sodipodi:namedview
     pagecolor="#ffffff"
     bordercolor="#666666"
     borderopacity="1"
     objecttolerance="10"
     gridtolerance="10"
     guidetolerance="10"
     inkscape:pageopacity="0"
     inkscape:pageshadow="2"
     inkscape:window-width="1280"
     inkscape:window-height="1004"
     id="namedview17626"
     showgrid="false"
     inkscape:zoom="4"
     inkscape:cx="85.951472"
     inkscape:cy="59.298546"
     inkscape:window-x="-8"
     inkscape:window-y="-8"
     inkscape:window-maximized="1"
     inkscape:current-layer="g17634"
     fit-margin-top="0"
     fit-margin-left="0"
     fit-margin-right="0"
     fit-margin-bottom="0"
     showguides="true"
     inkscape:guide-bbox="true" /><g
     id="g17634"
     inkscape:groupmode="layer"
     inkscape:label="GG1999P002"
     transform="matrix(1.25,0,0,-1.25,-7710.5078,4827.6953)"><path
       inkscape:connector-curvature="0"
       d="m 6344.0248,3765.946 c 0,-3.528 -2.861,-6.388 -6.389,-6.388 l -162.429,0 c -3.527,0 -6.387,2.86 -6.387,6.388 l 0,89.428 c 0,3.527 2.86,6.387 6.387,6.387 l 162.429,0 c 3.528,0 6.389,-2.86 6.389,-6.387 l 0,-89.428 z"
       style="fill:#ffffff;fill-opacity:1;fill-rule:nonzero;stroke:#000000;stroke-width:0.80000001;stroke-miterlimit:4;stroke-opacity:1;stroke-dasharray:none"
       id="path5555" /><path
       inkscape:connector-curvature="0"
       d="m 6170.9488,3765.946 0,89.428 c 0,2.347 1.911,4.257 4.258,4.257 l 162.429,0 c 2.349,0 4.259,-1.91 4.259,-4.257 l 0,-89.428 c 0,-2.349 -1.91,-4.259 -4.259,-4.259 l -162.429,0 c -2.347,0 -4.258,1.91 -4.258,4.259"
       style="fill:#00674c;fill-opacity:1;fill-rule:nonzero;stroke:none"
       id="path5579" /><path
       inkscape:connector-curvature="0"
       d="m 6191.7088,3838.443 c 0,-1.535 -0.551,-2.792 -1.654,-3.77 -1.101,-0.978 -2.46,-1.466 -4.074,-1.466 -2.046,0 -3.637,0.739 -4.774,2.216 -0.477,0.615 -0.84,1.354 -1.09,2.218 l 2.525,0.802 c 0.466,-1.678 1.592,-2.516 3.378,-2.516 0.7621,0 1.433,0.222 2.013,0.665 0.6371,0.49 0.956,1.103 0.956,1.842 0,0.967 -0.723,1.735 -2.1669,2.303 -1.3421,0.523 -2.6841,1.046 -4.0261,1.569 -1.445,0.842 -2.167,2.07 -2.167,3.684 0,1.376 0.398,2.462 1.1931,3.258 0.9079,0.898 2.2759,1.347 4.1039,1.347 2.384,0 4.099,-1.149 5.144,-3.447 l -2.539,-0.802 c -0.49,1.019 -1.353,1.529 -2.591,1.529 -1.727,0 -2.59,-0.625 -2.59,-1.876 0,-0.808 0.7221,-1.456 2.166,-1.945 2.264,-0.773 3.6051,-1.291 4.026,-1.552 1.4451,-0.91 2.167,-2.262 2.167,-4.059"
       style="fill:#ffffff;fill-opacity:1;fill-rule:nonzero;stroke:none"
       id="path5583" /><path
       inkscape:connector-curvature="0"
       d="m 6204.1238,3833.384 -10.56,0 0,17.034 2.721,0 0,-14.313 7.839,0 0,-2.721 z"
       style="fill:#ffffff;fill-opacity:1;fill-rule:nonzero;stroke:none"
       id="path5587" /><path
       inkscape:connector-curvature="0"
       d="m 6214.6868,3841.9011 c 0,1.741 -0.256,3.135 -0.7669,4.182 -0.5791,1.194 -1.4301,1.792 -2.5551,1.792 -1.136,0 -1.988,-0.598 -2.555,-1.792 -0.512,-1.037 -0.767,-2.43 -0.767,-4.182 0,-1.741 0.255,-3.135 0.767,-4.182 0.5791,-1.194 1.431,-1.792 2.555,-1.792 1.125,0 1.976,0.598 2.5551,1.792 0.5109,1.047 0.7669,2.441 0.7669,4.182 m 2.721,0 c 0,-2.296 -0.409,-4.211 -1.226,-5.745 -1.056,-1.967 -2.661,-2.949 -4.817,-2.949 -2.167,0 -3.774,0.982 -4.818,2.949 -0.816,1.523 -1.224,3.437 -1.224,5.745 0,2.307 0.408,4.222 1.224,5.745 1.044,1.966 2.651,2.949 4.818,2.949 2.156,0 3.761,-0.983 4.817,-2.949 0.817,-1.534 1.226,-3.449 1.226,-5.745"
       style="fill:#ffffff;fill-opacity:1;fill-rule:nonzero;stroke:none"
       id="path5591" /><path
       inkscape:connector-curvature="0"
       d="m 6226.1978,3844.388 -2.759,-11.004 -2.5899,0 -2.2311,17.034 2.759,0 1.193,-9.199 2.316,9.199 2.623,0 2.317,-9.199 1.192,9.199 2.76,0 -2.232,-17.034 -2.589,0 -2.759,11.004 z"
       style="fill:#ffffff;fill-opacity:1;fill-rule:nonzero;stroke:none"
       id="path5595" /><path
       inkscape:connector-curvature="0"
       d="m 6261.7118,3850.418 -5.365,-17.034 -2.215,0 -5.365,17.034 2.862,0 3.611,-11.532 3.611,11.532 2.861,0 z"
       style="fill:#ffffff;fill-opacity:1;fill-rule:nonzero;stroke:none"
       id="path5599" /><path
       inkscape:connector-curvature="0"
       d="m 6273.7909,3833.384 -10.5601,0 0,17.034 10.22,0 0,-2.721 -7.499,0 0,-4.101 5.182,0 0,-2.72 -5.182,0 0,-4.771 7.8391,0 0,-2.721 z"
       style="fill:#ffffff;fill-opacity:1;fill-rule:nonzero;stroke:none"
       id="path5603" /><path
       inkscape:connector-curvature="0"
       d="m 6287.2568,3833.384 -2.72,0 0,7.492 -6.151,0 0,-7.492 -2.721,0 0,17.034 2.721,0 0,-6.822 6.151,0 0,6.822 2.72,0 0,-17.034 z"
       style="fill:#ffffff;fill-opacity:1;fill-rule:nonzero;stroke:none"
       id="path5607" /><path
       inkscape:connector-curvature="0"
       d="m 6293.0542,3833.384 -2.721,0 0,17.034 2.721,0 0,-17.034 z"
       style="fill:#ffffff;fill-opacity:1;fill-rule:nonzero;stroke:none"
       id="path5609" /><path
       inkscape:connector-curvature="0"
       d="m 6307.3188,3836.9091 c -1.033,-2.468 -2.833,-3.702 -5.4,-3.702 -2.215,0 -3.849,0.982 -4.9049,2.949 -0.8291,1.523 -1.2431,3.437 -1.2431,5.745 0,2.318 0.4081,4.233 1.2251,5.745 1.0679,1.966 2.7079,2.949 4.9229,2.949 2.498,0 4.31,-1.2 5.4341,-3.599 l -2.5731,-1.058 c -0.511,1.291 -1.466,1.937 -2.864,1.937 -1.181,0 -2.067,-0.598 -2.658,-1.792 -0.5119,-1.025 -0.766,-2.418 -0.766,-4.182 0,-1.764 0.2541,-3.157 0.766,-4.182 0.579,-1.194 1.4661,-1.792 2.658,-1.792 1.307,0 2.273,0.662 2.898,1.989 l 2.505,-1.007 z"
       style="fill:#ffffff;fill-opacity:1;fill-rule:nonzero;stroke:none"
       id="path5613" /><path
       inkscape:connector-curvature="0"
       d="m 6320.6338,3833.384 -10.561,0 0,17.034 2.72,0 0,-14.313 7.841,0 0,-2.721 z"
       style="fill:#ffffff;fill-opacity:1;fill-rule:nonzero;stroke:none"
       id="path5617" /><path
       inkscape:connector-curvature="0"
       d="m 6332.7279,3833.384 -10.562,0 0,17.034 10.2209,0 0,-2.721 -7.5,0 0,-4.101 5.183,0 0,-2.72 -5.183,0 0,-4.771 7.8411,0 0,-2.721 z"
       style="fill:#ffffff;fill-opacity:1;fill-rule:nonzero;stroke:none"
       id="path5621" /><path
       inkscape:connector-curvature="0"
       d="m 6273.0212,3792.016 2.724,0 0,-17.034 -2.724,0 0,17.034 z"
       style="fill:#ffffff;fill-opacity:1;fill-rule:nonzero;stroke:none"
       id="path5623" /><path
       inkscape:connector-curvature="0"
       d="m 6279.8328,3774.982 0,17.034 2.687,0 0,-14.523 7.879,0 0,-2.511 -10.566,0 z"
       style="fill:#ffffff;fill-opacity:1;fill-rule:nonzero;stroke:none"
       id="path5627" /><path
       inkscape:connector-curvature="0"
       d="m 6266.2378,3774.982 0,9.862 -3.953,-9.862 -3.953,9.862 0,-9.862 -2.695,0 0,17.034 2.695,0 3.953,-9.562 3.953,9.562 2.694,0 0,-17.034 -2.694,0 z"
       style="fill:#ffffff;fill-opacity:1;fill-rule:nonzero;stroke:none"
       id="path5631" /><path
       inkscape:connector-curvature="0"
       d="m 6292.9538,3774.982 0,17.034 10.028,0 0,-2.689 -7.342,0 0,-4.184 4.955,0 0,-2.749 -4.955,0 0,-4.662 7.879,0 0,-2.75 -10.565,0 z"
       style="fill:#ffffff;fill-opacity:1;fill-rule:nonzero;stroke:none"
       id="path5635" /><path
       inkscape:connector-curvature="0"
       d="m 6210.8628,3779.241 0,13.806 -1.538,0 0,2.152 0.177,0 c 0.71,0 1.479,0.418 1.952,1.076 l 2.129,0 0,-17.034 -2.72,0 z"
       style="fill:#ffffff;fill-opacity:1;fill-rule:nonzero;stroke:none"
       id="path5639" /><path
       inkscape:connector-curvature="0"
       d="m 6235.9128,3778.699 c -2.293,-1.426 -4.403,-2.057 -5.677,-5.226 l 8.368,0 0,-2.749 -11.596,0 c 0.06,1.972 0.471,3.59 1.4351,5.199 2.988,4.997 7.47,4.445 7.47,7.113 0,1.256 -1.434,2.271 -3.107,2.271 -1.733,0 -2.8099,-0.837 -3.108,-2.39 l -2.69,0.597 c 0.598,2.81 2.809,4.542 5.798,4.542 3.228,0 5.798,-2.27 5.798,-5.08 0,-2.037 -1.172,-3.334 -2.691,-4.277"
       style="fill:#ffffff;fill-opacity:1;fill-rule:nonzero;stroke:none"
       id="path5643" /><path
       inkscape:connector-curvature="0"
       d="m 6215.6628,3770.724 -2.812,0 14.745,25.551 2.813,0 -14.746,-25.551 z"
       style="fill:#ffffff;fill-opacity:1;fill-rule:nonzero;stroke:none"
       id="path5647" /><path
       inkscape:connector-curvature="0"
       d="m 6255.8258,3804.183 -6.515,11.535 0,-11.535 -2.6899,0 0,17.034 2.6899,0 6.216,-10.878 0,10.878 2.69,0 0,-17.034 -2.391,0 z"
       style="fill:#ffffff;fill-opacity:1;fill-rule:nonzero;stroke:none"
       id="path5651" /><path
       inkscape:connector-curvature="0"
       d="m 6277.3399,3817.43 c -0.5391,0.898 -1.1981,1.256 -2.2171,1.316 -1.317,0.059 -2.157,-0.598 -2.755,-2.092 -0.419,-1.017 -0.66,-2.57 -0.66,-4.005 0,-1.793 0.36,-3.646 1.019,-4.722 0.54,-0.896 1.259,-1.314 2.337,-1.314 1.2581,0 2.037,0.657 2.637,2.151 0.359,0.897 0.658,2.571 0.658,3.885 0,1.913 -0.36,3.646 -1.0189,4.781 m 1.8579,-11.654 c -0.958,-1.315 -2.337,-1.913 -4.134,-1.913 -2.397,0 -3.895,0.957 -4.913,3.049 -0.719,1.434 -1.198,3.705 -1.198,5.737 0,2.81 0.718,5.319 1.857,6.934 1.019,1.314 2.3961,1.912 4.374,1.912 2.1561,0 3.654,-0.956 4.733,-3.048 0.719,-1.494 1.138,-3.647 1.138,-5.798 0,-2.689 -0.659,-5.379 -1.857,-6.873"
       style="fill:#ffffff;fill-opacity:1;fill-rule:nonzero;stroke:none"
       id="path5655" /><path
       inkscape:connector-curvature="0"
       d="m 6227.2648,3806.753 c -0.896,-1.673 -2.929,-2.869 -5.021,-2.869 -2.092,0 -4.124,1.196 -5.021,2.869 -0.478,1.016 -0.777,2.211 -0.777,3.527 l 0,10.936 2.69,0 0,-10.936 c 0,-2.212 1.255,-3.647 3.108,-3.647 1.853,0 3.108,1.435 3.108,3.647 l 0,10.936 2.6891,0 0,-10.936 c 0,-1.316 -0.2981,-2.511 -0.7761,-3.527"
       style="fill:#ffffff;fill-opacity:1;fill-rule:nonzero;stroke:none"
       id="path5659" /><path
       inkscape:connector-curvature="0"
       d="m 6295.6209,3806.753 c -0.897,-1.673 -2.9281,-2.869 -5.0201,-2.869 -2.093,0 -4.125,1.196 -5.022,2.869 -0.478,1.016 -0.777,2.211 -0.777,3.527 l 0,10.936 2.691,0 0,-10.936 c 0,-2.212 1.254,-3.647 3.108,-3.647 1.853,0 3.107,1.435 3.107,3.647 l 0,10.936 2.6901,0 0,-10.936 c 0,-1.316 -0.299,-2.511 -0.777,-3.527"
       style="fill:#ffffff;fill-opacity:1;fill-rule:nonzero;stroke:none"
       id="path5663" /><path
       inkscape:connector-curvature="0"
       d="m 6209.9289,3818.826 0,-14.643 -2.701,0 0,14.643 -3.9021,0 0,2.391 10.565,0 0,-2.391 -3.9619,0 z"
       style="fill:#ffffff;fill-opacity:1;fill-rule:nonzero;stroke:none"
       id="path5667" /><path
       inkscape:connector-curvature="0"
       d="m 6305.5558,3818.826 0,-14.643 -2.701,0 0,14.643 -3.901,0 0,2.391 10.565,0 0,-2.391 -3.963,0 z"
       style="fill:#ffffff;fill-opacity:1;fill-rule:nonzero;stroke:none"
       id="path5671" /><path
       inkscape:connector-curvature="0"
       d="m 6239.6008,3818.228 c -0.418,0.239 -0.657,0.299 -1.554,0.299 l -3.227,0 0,-4.184 3.227,0 c 0.837,0 1.136,0.061 1.554,0.299 0.658,0.36 1.076,1.076 1.076,1.793 0,0.718 -0.418,1.435 -1.076,1.793 m 1.195,-14.045 -2.749,7.411 -3.227,0 0,-7.411 -2.6899,0 0,17.034 5.6179,0 c 1.3151,0 2.212,-0.12 3.048,-0.538 1.494,-0.717 2.571,-2.51 2.571,-4.244 0,-1.793 -1.077,-3.586 -2.6299,-4.303 l 2.9889,-7.949 -2.93,0 z"
       style="fill:#ffffff;fill-opacity:1;fill-rule:nonzero;stroke:none"
       id="path5675" /><path
       inkscape:connector-curvature="0"
       d="m 6260.7722,3813.925 5.966,0 0,-2.689 -5.966,0 0,2.689 z"
       style="fill:#ffffff;fill-opacity:1;fill-rule:nonzero;stroke:none"
       id="path5677" /></g></svg>