<?xml version="1.0" encoding="UTF-8" standalone="no"?>
<svg
   xmlns:dc="http://purl.org/dc/elements/1.1/"
   xmlns:cc="http://creativecommons.org/ns#"
   xmlns:rdf="http://www.w3.org/1999/02/22-rdf-syntax-ns#"
   xmlns:svg="http://www.w3.org/2000/svg"
   xmlns="http://www.w3.org/2000/svg"
   xmlns:sodipodi="http://sodipodi.sourceforge.net/DTD/sodipodi-0.dtd"
   xmlns:inkscape="http://www.inkscape.org/namespaces/inkscape"
   width="3790"
   height="3790"
   id="svg2"
   version="1.1"
   inkscape:version="0.48.2 r9819"
   sodipodi:docname="MUTCD D17-1.svg">
  <metadata
     id="metadata16">
    <rdf:RDF>
      <cc:Work
         rdf:about="">
        <dc:format>image/svg+xml</dc:format>
        <dc:type
           rdf:resource="http://purl.org/dc/dcmitype/StillImage" />
        <dc:title></dc:title>
      </cc:Work>
    </rdf:RDF>
  </metadata>
  <defs
     id="defs14" />
  <sodipodi:namedview
     pagecolor="#ffffff"
     bordercolor="#666666"
     borderopacity="1"
     objecttolerance="10"
     gridtolerance="10"
     guidetolerance="10"
     inkscape:pageopacity="0"
     inkscape:pageshadow="2"
     inkscape:window-width="1280"
     inkscape:window-height="1004"
     id="namedview12"
     showgrid="false"
     inkscape:zoom="0.11871136"
     inkscape:cx="1208.6446"
     inkscape:cy="2327.3173"
     inkscape:window-x="-8"
     inkscape:window-y="-8"
     inkscape:window-maximized="1"
     inkscape:current-layer="svg2"
     fit-margin-top="0"
     fit-margin-left="0"
     fit-margin-right="0"
     fit-margin-bottom="0" />
  <path
     inkscape:connector-curvature="0"
     style="fill:#ffffff;fill-rule:nonzero;stroke:#000000;stroke-width:10;stroke-linecap:butt;stroke-linejoin:miter;stroke-miterlimit:4;stroke-opacity:1;stroke-dasharray:none"
     d="m 3785,3582.5 c 0,111.8375 -90.6625,202.5 -202.5,202.5 l -3375,0 C 95.662875,3785 5,3694.3375 5,3582.5 L 5,207.5 C 5,95.66287 95.662875,5 207.5,5 l 3375,0 C 3694.3375,5 3785,95.66287 3785,207.5 l 0,3375 z"
     id="path11" />
  <path
     inkscape:connector-curvature="0"
     style="fill:#006649;fill-rule:nonzero;stroke:none"
     d="m 207.5,3706.25 c -68.23625,0 -123.75,-55.5125 -123.75,-123.75 l 0,-3375 c 0,-68.23625 55.51375,-123.75 123.75,-123.75 l 3375,0 c 68.2375,0 123.75,55.51375 123.75,123.75 l 0,3375 c 0,68.2375 -55.5125,123.75 -123.75,123.75 l -3375,0 z"
     id="path13" />
  <path
     inkscape:connector-curvature="0"
     style="fill:#ffffff;fill-rule:nonzero;stroke:none"
     d="M 2224.5375,2165 2018,1799.3125 2018,2165 l -85.2625,0 0,-540 85.2625,0 197.0625,344.85 0,-344.85 85.275,0 0,540 -75.8,0 z"
     id="path15" />
  <path
     inkscape:connector-curvature="0"
     style="fill:#ffffff;fill-rule:nonzero;stroke:none"
     d="m 1025.1275,2165 0,-540 85.1513,0 0,460.425 249.7837,0 0,79.575 -334.935,0 z"
     id="path17" />
  <path
     inkscape:connector-curvature="0"
     style="fill:#ffffff;fill-rule:nonzero;stroke:none"
     d="m 2429.9375,2165 0,-540 317.9,0 0,85.2625 -232.75,0 0,132.6375 157.0625,0 0,87.15 -157.0625,0 0,147.8 249.7875,0 0,87.15 -334.9375,0 z"
     id="path19" />
  <path
     inkscape:connector-curvature="0"
     style="fill:#ffffff;fill-rule:nonzero;stroke:none"
     d="m 1623.05,1774.6875 -55.2625,151.575 108.625,0 -53.3625,-151.575 z M 1760.2625,2165 1706.9,2013.425 l -169.6125,0 -53.35,151.575 -91.475,0 186.75,-540 85.7625,0 186.75,540 -91.4625,0 z"
     id="path21" />
  <path
     inkscape:connector-curvature="0"
     style="fill:#ffffff;fill-rule:nonzero;stroke:none"
     d="M 2909.3625,1175.0013 2772.5,919.2125 l -57.025,70.1038 0,185.685 -85.5375,0 0,-540.0013 85.5375,0 0,214.1075 L 2886.55,635 l 110.25,0 -167.2625,210.3163 178.675,329.685 -98.85,0 z"
     id="path23" />
  <path
     inkscape:connector-curvature="0"
     style="fill:#ffffff;fill-rule:nonzero;stroke:none"
     d="m 2000.1,1093.5275 c -28.425,53.0525 -92.85,90.9488 -159.1625,90.9488 -66.325,0 -130.75,-37.8963 -159.175,-90.9488 -15.1625,-32.2087 -24.6375,-70.1037 -24.6375,-111.79 l 0,-346.7362 85.275,0 0,346.7362 c 0,70.1075 39.7875,115.58 98.5375,115.58 58.7375,0 98.525,-45.4725 98.525,-115.58 l 0,-346.7362 85.275,0 0,346.7362 c 0,41.6863 -9.475,79.5813 -24.6375,111.79 z"
     id="path25" />
  <path
     inkscape:connector-curvature="0"
     style="fill:#ffffff;fill-rule:nonzero;stroke:none"
     d="m 991.12125,710.7888 0,464.2112 -85.62625,0 0,-464.2112 -123.70375,0 0,-75.79 334.93375,0 0,75.79 -125.60375,0 z"
     id="path27" />
  <path
     inkscape:connector-curvature="0"
     style="fill:#ffffff;fill-rule:nonzero;stroke:none"
     d="m 1434.5751,729.7375 c -13.25,-7.58 -20.8375,-9.4737 -49.2625,-9.4737 l -102.325,0 0,132.63 102.325,0 c 26.5375,0 36.0125,-1.8925 49.2625,-9.47 20.85,-11.37 34.1125,-34.1088 34.1125,-56.8425 0,-22.7388 -13.2625,-45.4763 -34.1125,-56.8438 z m 37.9,445.2638 -87.1625,-234.95 -102.325,0 0,234.95 -85.2613,0 0,-540.0025 178.1113,0 c 41.6875,0 70.1125,3.79 96.6375,17.055 47.375,22.7375 81.4875,79.5775 81.4875,134.5275 0,56.8425 -34.1125,113.6825 -83.375,136.42 l 94.75,252 -92.8625,0 z"
     id="path29" />
  <path
     inkscape:connector-curvature="0"
     style="fill:#ffffff;fill-rule:nonzero;stroke:none"
     d="m 2348.175,1184.4775 c -79.575,0 -130.7375,-30.3187 -164.85,-96.6337 -24.6375,-47.3675 -39.7875,-115.58 -39.7875,-183.79 0,-85.2638 22.7375,-170.5263 60.625,-217.8963 32.2125,-39.7887 77.7,-60.63 138.325,-60.63 81.4875,0 132.65,34.1075 168.65,109.895 l -79.5875,34.105 c -30.3125,-45.4737 -47.3625,-56.8437 -89.0625,-56.8437 -43.575,0 -72,18.9487 -90.95,66.3175 -13.2625,32.21 -20.8375,79.58 -20.8375,125.0525 0,58.7375 13.2625,117.475 34.1,151.58 18.95,28.42 43.5875,41.685 81.4875,41.685 36,0 62.525,-18.9488 83.375,-62.5263 l 81.475,30.315 c -32.2125,79.58 -85.275,119.37 -162.9625,119.37 z"
     id="path31" />
  <path
     inkscape:connector-curvature="0"
     style="fill:#ffffff;fill-rule:nonzero;stroke:none"
     d="m 2429.6,3155 0,-540 86.4,0 0,540 -86.4,0 z"
     id="path33" />
  <path
     inkscape:connector-curvature="0"
     style="fill:#ffffff;fill-rule:nonzero;stroke:none"
     d="m 2214.5625,3155 0,-312.625 -125.3,312.625 -125.3,-312.625 0,312.625 -85.4375,0 0,-540 85.4375,0 125.3,303.1625 125.3,-303.1625 85.4375,0 0,540 -85.4375,0 z"
     id="path35" />
  <path
     inkscape:connector-curvature="0"
     style="fill:#ffffff;fill-rule:nonzero;stroke:none"
     d="m 2645.6,3155 0,-540 85.15,0 0,460.425 249.7875,0 0,79.575 -334.9375,0 z"
     id="path37" />
  <path
     inkscape:connector-curvature="0"
     style="fill:#ffffff;fill-rule:nonzero;stroke:none"
     d="m 3061.5375,3155 0,-540 317.9,0 0,85.2625 -232.75,0 0,132.6375 157.0625,0 0,87.1625 -157.0625,0 0,147.7875 249.7875,0 0,87.15 -334.9375,0 z"
     id="path39" />
  <path
     inkscape:connector-curvature="0"
     style="fill:#ffffff;fill-rule:nonzero;stroke:none"
     d="m 442.2775,3020 0,-437.675 -48.75,0 0,-68.2125 5.625,0 c 22.5,0 46.875,-13.2625 61.875,-34.1125 l 67.5,0 0,540 -86.25,0 z"
     id="path41" />
  <path
     inkscape:connector-curvature="0"
     style="fill:#ffffff;fill-rule:nonzero;stroke:none"
     d="m 969.18125,2480 -467.6525,810 99.765,0 467.65255,-810 -99.76505,0 z"
     id="path43" />
  <path
     inkscape:connector-curvature="0"
     style="fill:#ffffff;fill-rule:nonzero;stroke:none"
     d="m 1253.245,3037.2 c -72.7175,45.2 -139.5975,65.2 -180,165.65 l 265.28,0 0,87.15 -367.605,0 c 1.89625,-62.525 14.9475,-113.8 45.4762,-164.8375 94.7525,-158.3875 236.8601,-140.8875 236.8601,-225.475 0,-39.7875 -45.475,-72 -98.5326,-72 -54.9512,0 -89.0587,26.525 -98.5349,75.8 l -85.2688,-18.95 c 18.95,-89.0625 89.0588,-144 183.8038,-144 102.3262,0 183.8012,72 183.8012,161.05 0,64.5625 -37.1375,105.6875 -85.28,135.6125 z"
     id="path45" />
</svg>
