<?xml version="1.0" encoding="UTF-8" standalone="no"?>
<svg
   xmlns:dc="http://purl.org/dc/elements/1.1/"
   xmlns:cc="http://creativecommons.org/ns#"
   xmlns:rdf="http://www.w3.org/1999/02/22-rdf-syntax-ns#"
   xmlns:svg="http://www.w3.org/2000/svg"
   xmlns="http://www.w3.org/2000/svg"
   xmlns:sodipodi="http://sodipodi.sourceforge.net/DTD/sodipodi-0.dtd"
   xmlns:inkscape="http://www.inkscape.org/namespaces/inkscape"
   width="3790"
   height="4330"
   id="svg2"
   version="1.1"
   inkscape:version="0.48.2 r9819"
   sodipodi:docname="MUTCD D17-01.svg">
  <metadata
     id="metadata16">
    <rdf:RDF>
      <cc:Work
         rdf:about="">
        <dc:format>image/svg+xml</dc:format>
        <dc:type
           rdf:resource="http://purl.org/dc/dcmitype/StillImage" />
        <dc:title></dc:title>
      </cc:Work>
    </rdf:RDF>
  </metadata>
  <defs
     id="defs14" />
  <sodipodi:namedview
     pagecolor="#ffffff"
     bordercolor="#666666"
     borderopacity="1"
     objecttolerance="10"
     gridtolerance="10"
     guidetolerance="10"
     inkscape:pageopacity="0"
     inkscape:pageshadow="2"
     inkscape:window-width="1280"
     inkscape:window-height="1004"
     id="namedview12"
     showgrid="false"
     inkscape:zoom="0.11871136"
     inkscape:cx="1203.9571"
     inkscape:cy="2322.6298"
     inkscape:window-x="-8"
     inkscape:window-y="-8"
     inkscape:window-maximized="1"
     inkscape:current-layer="svg2"
     fit-margin-top="0"
     fit-margin-left="0"
     fit-margin-right="0"
     fit-margin-bottom="0" />
  <path
     inkscape:connector-curvature="0"
     style="fill:#ffffff;fill-rule:nonzero;stroke:#000000;stroke-width:10;stroke-linecap:butt;stroke-linejoin:miter;stroke-miterlimit:4;stroke-opacity:1;stroke-dasharray:none"
     d="m 3785,4122.5 c 0,111.8375 -90.6625,202.5 -202.5,202.5 l -3375,0 C 95.662875,4325 5,4234.3375 5,4122.5 L 5,207.5 C 5,95.6629 95.662875,5 207.5,5 l 3375,0 C 3694.3375,5 3785,95.6629 3785,207.5 l 0,3915 z"
     id="path11" />
  <path
     inkscape:connector-curvature="0"
     style="fill:#006649;fill-rule:nonzero;stroke:none"
     d="m 207.5,4246.25 c -68.23625,0 -123.75,-55.5125 -123.75,-123.75 l 0,-3915 c 0,-68.2363 55.51375,-123.75 123.75,-123.75 l 3375,0 c 68.2375,0 123.75,55.5137 123.75,123.75 l 0,3915 c 0,68.2375 -55.5125,123.75 -123.75,123.75 l -3375,0 z"
     id="path13" />
  <path
     inkscape:connector-curvature="0"
     style="fill:#ffffff;fill-rule:nonzero;stroke:none"
     d="m 1370.8751,1017.5037 -206.5425,-365.685 0,365.685 -85.2688,0 0,-540.0025 85.2688,0 197.0675,344.845 0,-344.845 85.2624,0 0,540.0025 -75.7875,0 z"
     id="path15" />
  <path
     inkscape:connector-curvature="0"
     style="fill:#ffffff;fill-rule:nonzero;stroke:none"
     d="m 2585.3375,553.2913 0,464.21 -85.6375,0 0,-464.21 -123.7,0 0,-75.7913 334.9375,0 0,75.7913 -125.6,0 z"
     id="path17" />
  <path
     inkscape:connector-curvature="0"
     style="fill:#ffffff;fill-rule:nonzero;stroke:none"
     d="m 2236.175,1017.5013 -87.175,-180 -87.1625,180 -96.6375,0 L 2099.7375,738.975 1974.675,477.5 l 96.6375,0 L 2149,638.5562 2226.7,477.5 l 96.6375,0 -126.9625,261.475 136.4375,278.5263 -96.6375,0 z"
     id="path19" />
  <path
     inkscape:connector-curvature="0"
     style="fill:#ffffff;fill-rule:nonzero;stroke:none"
     d="m 1576.2625,1017.5037 0,-540.0025 317.9125,0 0,85.2638 -232.75,0 0,132.6325 157.0625,0 0,87.1587 -157.0625,0 0,147.7888 249.775,0 0,87.1587 -334.9375,0 z"
     id="path21" />
  <path
     inkscape:connector-curvature="0"
     style="fill:#ffffff;fill-rule:nonzero;stroke:none"
     d="M 2224.5375,2907.5 2018,2541.825 l 0,365.675 -85.275,0 0,-540 85.275,0 197.0625,344.85 0,-344.85 85.275,0 0,540 -75.8,0 z"
     id="path23" />
  <path
     inkscape:connector-curvature="0"
     style="fill:#ffffff;fill-rule:nonzero;stroke:none"
     d="m 1025.1275,2907.5 0,-540 85.1513,0 0,460.425 249.7837,0 0,79.575 -334.935,0 z"
     id="path25" />
  <path
     inkscape:connector-curvature="0"
     style="fill:#ffffff;fill-rule:nonzero;stroke:none"
     d="m 2429.9375,2907.5 0,-540 317.9,0 0,85.2625 -232.75,0 0,132.6375 157.0625,0 0,87.1625 -157.0625,0 0,147.7875 249.7875,0 0,87.15 -334.9375,0 z"
     id="path27" />
  <path
     inkscape:connector-curvature="0"
     style="fill:#ffffff;fill-rule:nonzero;stroke:none"
     d="m 1623.05,2517.1875 -55.2625,151.575 108.625,0 -53.3625,-151.575 z M 1760.2625,2907.5 1706.9,2755.925 l -169.6125,0 -53.35,151.575 -91.475,0 186.75,-540 85.7625,0 186.75,540 -91.4625,0 z"
     id="path29" />
  <path
     inkscape:connector-curvature="0"
     style="fill:#ffffff;fill-rule:nonzero;stroke:none"
     d="M 2909.3625,1962.5 2772.5,1706.7125 l -57.025,70.1 0,185.6875 -85.5375,0 0,-540 85.5375,0 0,214.1125 171.075,-214.1125 110.25,0 -167.2625,210.3125 178.675,329.6875 -98.85,0 z"
     id="path31" />
  <path
     inkscape:connector-curvature="0"
     style="fill:#ffffff;fill-rule:nonzero;stroke:none"
     d="m 2000.1,1881.025 c -28.425,53.0625 -92.85,90.95 -159.1625,90.95 -66.325,0 -130.75,-37.8875 -159.175,-90.95 -15.1625,-32.2 -24.6375,-70.1 -24.6375,-111.7875 l 0,-346.7375 85.275,0 0,346.7375 c 0,70.1125 39.7875,115.5875 98.5375,115.5875 58.7375,0 98.525,-45.475 98.525,-115.5875 l 0,-346.7375 85.275,0 0,346.7375 c 0,41.6875 -9.475,79.5875 -24.6375,111.7875 z"
     id="path33" />
  <path
     inkscape:connector-curvature="0"
     style="fill:#ffffff;fill-rule:nonzero;stroke:none"
     d="m 991.12125,1498.2875 0,464.2125 -85.62875,0 0,-464.2125 -123.7025,0 0,-75.7875 334.935,0 0,75.7875 -125.60375,0 z"
     id="path35" />
  <path
     inkscape:connector-curvature="0"
     style="fill:#ffffff;fill-rule:nonzero;stroke:none"
     d="m 1434.575,1517.2375 c -13.2625,-7.575 -20.8375,-9.475 -49.2625,-9.475 l -102.325,0 0,132.6375 102.325,0 c 26.5375,0 36,-1.9 49.2625,-9.475 20.85,-11.375 34.1125,-34.1125 34.1125,-56.8375 0,-22.7375 -13.2625,-45.475 -34.1125,-56.85 z m 37.9,445.2625 -87.1625,-234.95 -102.325,0 0,234.95 -85.2625,0 0,-540 178.1125,0 c 41.6875,0 70.1125,3.7875 96.6375,17.05 47.375,22.7375 81.4875,79.5875 81.4875,134.5375 0,56.8375 -34.1125,113.675 -83.375,136.4125 l 94.7375,252 -92.85,0 z"
     id="path37" />
  <path
     inkscape:connector-curvature="0"
     style="fill:#ffffff;fill-rule:nonzero;stroke:none"
     d="m 2348.175,1971.975 c -79.575,0 -130.7375,-30.3125 -164.85,-96.625 -24.6375,-47.375 -39.7875,-115.5875 -39.7875,-183.8 0,-85.2625 22.7375,-170.525 60.625,-217.8875 32.2125,-39.7875 77.7,-60.6375 138.325,-60.6375 81.4875,0 132.65,34.1125 168.65,109.9 l -79.5875,34.1 c -30.3125,-45.475 -47.375,-56.8375 -89.0625,-56.8375 -43.575,0 -72,18.95 -90.95,66.3125 -13.2625,32.2125 -20.8375,79.5875 -20.8375,125.05 0,58.7375 13.2625,117.475 34.1,151.5875 18.95,28.4125 43.5875,41.6875 81.4875,41.6875 36,0 62.525,-18.95 83.375,-62.5375 l 81.475,30.325 c -32.2125,79.575 -85.2625,119.3625 -162.9625,119.3625 z"
     id="path39" />
  <path
     inkscape:connector-curvature="0"
     style="fill:#ffffff;fill-rule:nonzero;stroke:none"
     d="m 1976.05,3852.5 0,-540 86.4,0 0,540 -86.4,0 z"
     id="path41" />
  <path
     inkscape:connector-curvature="0"
     style="fill:#ffffff;fill-rule:nonzero;stroke:none"
     d="m 2192.05,3852.5 0,-540 85.15,0 0,460.425 249.7875,0 0,79.575 -334.9375,0 z"
     id="path43" />
  <path
     inkscape:connector-curvature="0"
     style="fill:#ffffff;fill-rule:nonzero;stroke:none"
     d="m 1761.0125,3852.5 0,-312.625 -125.3,312.625 -125.3,-312.625 0,312.625 -85.4375,0 0,-540 85.4375,0 125.3,303.1625 125.3,-303.1625 85.4375,0 0,540 -85.4375,0 z"
     id="path45" />
  <path
     inkscape:connector-curvature="0"
     style="fill:#ffffff;fill-rule:nonzero;stroke:none"
     d="m 3311.475,3820.3 c -30.325,26.525 -72.0125,41.675 -117.4875,41.675 -92.85,0 -161.0625,-54.9375 -197.0625,-136.4125 l 81.475,-30.325 c 22.7375,51.1625 64.425,79.5875 115.5875,79.5875 49.275,0 83.375,-34.1125 83.375,-79.5875 0,-72 -83.375,-83.3625 -153.4875,-111.7875 -32.2,-13.2625 -104.2125,-45.475 -104.2125,-134.525 0,-106.1 72.0125,-145.9 168.65,-145.9 75.7875,0 126.95,43.5875 153.475,109.9 L 3266,3435.6625 c 0,0 -18.95,-45.475 -79.5875,-47.3625 -39.8,-1.9 -87.1625,13.2625 -83.375,62.525 7.575,100.4125 261.4875,34.1 261.4875,246.3125 0,49.2625 -18.95,92.8375 -53.05,123.1625 z"
     id="path47" />
  <path
     inkscape:connector-curvature="0"
     style="fill:#ffffff;fill-rule:nonzero;stroke:none"
     d="m 2607.9875,3852.5 0,-540 317.9,0 0,85.2625 -232.75,0 0,132.6375 157.0625,0 0,87.1625 -157.0625,0 0,147.7875 249.7875,0 0,87.15 -334.9375,0 z"
     id="path49" />
  <path
     inkscape:connector-curvature="0"
     style="fill:#ffffff;fill-rule:nonzero;stroke:none"
     d="m 778.37375,3604 c -90.89625,56.5 -174.49375,81.5 -225,207.0625 l 331.60375,0 0,108.9375 -459.5075,0 c 2.36875,-78.15 18.68375,-142.25 56.84625,-206.05 C 600.755,3515.975 778.39,3537.85 778.39,3432.1125 c 0,-49.7375 -56.845,-90 -123.16625,-90 -68.68875,0 -111.32375,33.15 -123.1675,94.7375 L 425.47,3413.1625 c 23.685,-111.3125 111.325,-180 229.75375,-180 127.90375,0 229.75375,90 229.75375,201.3125 0,80.7125 -46.43,132.125 -106.60375,169.525 z"
     id="path51" />
</svg>
