<?xml version="1.0" encoding="UTF-8" standalone="no"?>
<!-- Created with Inkscape (http://www.inkscape.org/) -->

<svg
   xmlns:dc="http://purl.org/dc/elements/1.1/"
   xmlns:cc="http://creativecommons.org/ns#"
   xmlns:rdf="http://www.w3.org/1999/02/22-rdf-syntax-ns#"
   xmlns:svg="http://www.w3.org/2000/svg"
   xmlns="http://www.w3.org/2000/svg"
   xmlns:sodipodi="http://sodipodi.sourceforge.net/DTD/sodipodi-0.dtd"
   xmlns:inkscape="http://www.inkscape.org/namespaces/inkscape"
   id="svg17624"
   version="1.1"
   inkscape:version="0.48.2 r9819"
   width="261.36719"
   height="86.054688"
   xml:space="preserve"
   sodipodi:docname="MUTCD D1-3a.svg"><metadata
     id="metadata17630"><rdf:RDF><cc:Work
         rdf:about=""><dc:format>image/svg+xml</dc:format><dc:type
           rdf:resource="http://purl.org/dc/dcmitype/StillImage" /><dc:title></dc:title></cc:Work></rdf:RDF></metadata><defs
     id="defs17628"><inkscape:perspective
       sodipodi:type="inkscape:persp3d"
       inkscape:vp_x="0 : 0.5 : 1"
       inkscape:vp_y="0 : 1000 : 0"
       inkscape:vp_z="1 : 0.5 : 1"
       inkscape:persp3d-origin="0.5 : 0.33333333 : 1"
       id="perspective17632" /><clipPath
       clipPathUnits="userSpaceOnUse"
       id="clipPath17642"><path
         d="m -2,710 501,0 0,-711 -501,0 0,711 z"
         id="path17644"
         inkscape:connector-curvature="0" /></clipPath><clipPath
       clipPathUnits="userSpaceOnUse"
       id="clipPath17648"><path
         d="m 0,708.06 498,0 0,-708 -498,0 0,708 z"
         id="path17650"
         inkscape:connector-curvature="0" /></clipPath><clipPath
       clipPathUnits="userSpaceOnUse"
       id="clipPath17798"><path
         d="m -2,710 501,0 0,-711 -501,0 0,711 z"
         id="path17800"
         inkscape:connector-curvature="0" /></clipPath><clipPath
       clipPathUnits="userSpaceOnUse"
       id="clipPath17804"><path
         d="m 0,708.06 498,0 0,-708 -498,0 0,708 z"
         id="path17806"
         inkscape:connector-curvature="0" /></clipPath><clipPath
       id="Clip0"><path
         inkscape:connector-curvature="0"
         d="m 0,0 212.597,0 0,269.292 L 0,269.292 0,0 z"
         transform="translate(0.923828,0.879883)"
         id="path7" /></clipPath><clipPath
       id="Clip0-8"><path
         inkscape:connector-curvature="0"
         d="m 0,0 170.079,0 0,113.386 L 0,113.386 0,0 z"
         transform="translate(0.0986328,0.822266)"
         id="path7-8" /></clipPath><clipPath
       id="Clip0-1"><path
         inkscape:connector-curvature="0"
         d="m 0,0 287.009,0 0,159.449 L 0,159.449 0,0 z"
         transform="translate(0.396484,0.267578)"
         id="path7-7" /></clipPath><clipPath
       id="Clip0-9"><path
         inkscape:connector-curvature="0"
         d="m 0,0 170.079,0 0,170.079 L 0,170.079 0,0 z"
         transform="translate(0.460938,0.775391)"
         id="path7-4" /></clipPath><clipPath
       id="Clip0-4"><path
         inkscape:connector-curvature="0"
         d="m 0,0 340.157,0 0,226.771 L 0,226.771 0,0 z"
         transform="translate(0.921875,0.25293)"
         id="path7-5" /></clipPath><clipPath
       id="Clip0-5"><path
         inkscape:connector-curvature="0"
         d="m 0,0 255.119,0 0,170.079 L 0,170.079 0,0 z"
         transform="translate(0.147461,0.0595703)"
         id="path7-1" /></clipPath><clipPath
       id="Clip0-0"><path
         inkscape:connector-curvature="0"
         d="m 0,0 170.079,0 0,113.386 L 0,113.386 0,0 z"
         transform="translate(0.0673828,0.207031)"
         id="path7-9" /></clipPath></defs><sodipodi:namedview
     pagecolor="#ffffff"
     bordercolor="#666666"
     borderopacity="1"
     objecttolerance="10"
     gridtolerance="10"
     guidetolerance="10"
     inkscape:pageopacity="0"
     inkscape:pageshadow="2"
     inkscape:window-width="1280"
     inkscape:window-height="1004"
     id="namedview17626"
     showgrid="false"
     inkscape:zoom="1.7346213"
     inkscape:cx="124.34583"
     inkscape:cy="72.527266"
     inkscape:window-x="-8"
     inkscape:window-y="-8"
     inkscape:window-maximized="1"
     inkscape:current-layer="g17634"
     fit-margin-top="0"
     fit-margin-left="0"
     fit-margin-right="0"
     fit-margin-bottom="0"
     showguides="true"
     inkscape:guide-bbox="true" /><g
     id="g17634"
     inkscape:groupmode="layer"
     inkscape:label="GG1999P002"
     transform="matrix(1.25,0,0,-1.25,-3997.7344,-3947.7734)"><path
       d="m 3211.8031,-3158.6917 181.8706,0 c 7.2332,0 13.1312,-5.9002 13.1312,-13.1311 l 0,-41.644 c 0,-7.2332 -5.898,-13.1312 -13.1312,-13.1312 l -181.8706,0 c -7.2309,0 -13.1312,5.898 -13.1312,13.1312 l 0,41.644 c 0,7.1436 5.9876,13.1311 13.1312,13.1311"
       style="fill:#ffffff;fill-opacity:1;fill-rule:nonzero;stroke:#000000;stroke-width:0.96;stroke-linecap:butt;stroke-linejoin:miter;stroke-miterlimit:4;stroke-opacity:1;stroke-dasharray:none"
       id="path4013"
       inkscape:connector-curvature="0" /><path
       d="m 3393.6018,-3164.3183 c 4.2536,-0.1297 7.4455,-3.324 7.5776,-7.5776 l -0.014,-41.9578 c -0.3114,-3.9682 -3.5317,-7.1224 -7.5635,-7.1176 l -182.1868,0.012 c -3.9634,0.309 -7.1271,3.5363 -7.1153,7.5658 l 0.012,41.9602 c 0.3091,3.9657 3.5364,7.12 7.5635,7.1152 l 181.7268,0"
       style="fill:#00674c;fill-opacity:1;fill-rule:evenodd;stroke:none"
       id="path4017"
       inkscape:connector-curvature="0" /><path
       d="m 3245.6906,-3194.0792 c 0,4.2277 -1.3636,7.6225 -3.7699,9.5853 -1.2032,0.9083 -2.0855,1.1348 -4.414,1.1348 l -7.3819,0 0,-21.5156 6.9808,0 1.2834,0 c 1.2055,0.075 2.4087,0.4529 3.291,1.2102 2.5692,1.8826 4.0106,5.2822 4.0106,9.5853 m -3.6897,0 c 0,-2.8687 -0.7219,-5.209 -2.0855,-6.4924 -0.6441,-0.6063 -1.3636,-0.8304 -2.5691,-0.8304 l -3.6096,0 0,14.6457 4.0908,0 c 0.9626,0 1.767,-0.3775 2.3262,-0.9059 1.1253,-1.1348 1.8472,-3.5482 1.8472,-6.417"
       style="fill:#ffffff;fill-opacity:1;fill-rule:nonzero;stroke:none"
       id="path4021"
       inkscape:connector-curvature="0" /><path
       d="m 3262.8616,-3198.4578 c 0.08,3.8502 -0.078,9.6608 -6.6576,9.6608 -5.7776,0 -6.9005,-4.6782 -6.9005,-8.1509 0,-4.0767 1.1229,-8.2288 6.9005,-8.2288 3.3666,0 5.1359,1.5854 6.0985,3.6237 l -2.9702,1.734 c -0.4011,-1.3589 -1.6066,-2.187 -3.1283,-2.187 -2.2459,0 -2.9702,1.8095 -3.1306,3.5482 l 9.7882,0 z m -3.6095,3.1684 -6.2589,0 c 0,1.5853 0.4011,3.324 3.2108,3.324 2.7272,0 3.0481,-1.8118 3.0481,-3.324"
       style="fill:#ffffff;fill-opacity:1;fill-rule:nonzero;stroke:none"
       id="path4025"
       inkscape:connector-curvature="0" /><path
       d="m 3275.8599,-3204.8747 0,10.418 c 0,2.0384 -1.4438,2.4913 -3.3712,2.4913 -1.4415,-0.075 -2.8074,-0.8304 -2.8074,-2.6422 l 0,-10.2671 -3.6921,0 0,15.7002 3.6142,0 0,-0.5261 c 3.7676,2.2625 9.866,0.453 9.866,-4.3786 l 0,-10.7955 -3.6095,0 z"
       style="fill:#ffffff;fill-opacity:1;fill-rule:nonzero;stroke:none"
       id="path4029"
       inkscape:connector-curvature="0" /><path
       d="m 3291.6668,-3204.8747 -3.2084,0 -6.4217,15.7002 3.8525,0 4.171,-10.5667 4.013,10.5667 4.0931,0 -6.4995,-15.7002 z"
       style="fill:#ffffff;fill-opacity:1;fill-rule:nonzero;stroke:none"
       id="path4033"
       inkscape:connector-curvature="0" /><path
       d="m 3313.5698,-3198.4578 c 0.08,3.8502 -0.078,9.6608 -6.6576,9.6608 -5.7776,0 -6.9005,-4.6782 -6.9005,-8.1509 0,-4.0767 1.1229,-8.2288 6.9005,-8.2288 3.3666,0 5.1359,1.5854 6.0985,3.6237 l -2.9702,1.734 c -0.4011,-1.3589 -1.6066,-2.187 -3.1283,-2.187 -2.2459,0 -2.9702,1.8095 -3.1306,3.5482 l 9.7882,0 z m -3.6095,3.1684 -6.2589,0 c 0,1.5853 0.4011,3.324 3.2108,3.324 2.7272,0 3.0481,-1.8118 3.0481,-3.324"
       style="fill:#ffffff;fill-opacity:1;fill-rule:nonzero;stroke:none"
       id="path4037"
       inkscape:connector-curvature="0" /><path
       d="m 3324.8841,-3192.8713 c -0.7242,0.5261 -1.2857,0.9059 -2.168,0.9059 -2.0855,0 -2.3262,-1.1324 -2.3262,-3.0952 l 0,-9.8141 -3.6921,0 0,15.7002 3.6921,0 0,-0.7525 c 0.8824,0.7525 1.2858,1.13 2.5692,1.13 1.281,0 1.8448,-0.4506 2.4063,-1.0545 l -0.4813,-3.0198 z"
       style="fill:#ffffff;fill-opacity:1;fill-rule:nonzero;stroke:none"
       id="path4041"
       inkscape:connector-curvature="0" /><path
       d="m 3339.4862,-3204.8747 c 0.08,2.4889 0.6417,4.5296 1.9251,6.5679 0.9649,1.6585 2.4087,3.0174 4.013,4.1521 0.401,0.2241 0.7219,0.4506 1.0427,0.6795 l 1.2055,0.6039 1.123,0.604 1.123,0.6039 c 0.8823,0.5261 1.524,1.4344 1.524,2.3403 0,1.5854 -1.9251,2.8664 -4.171,2.8664 -2.3309,0 -3.7723,-1.0546 -4.1758,-3.0174 l -3.6095,0.7549 c 0.8021,3.5482 3.7723,5.7375 7.7853,5.7375 4.3338,0 7.7829,-2.8711 7.7829,-6.4193 0,-1.6584 -0.8021,-3.3217 -2.3285,-4.6027 -0.3209,-0.2265 -0.6394,-0.453 -0.9626,-0.6039 l -1.1229,-0.6818 -1.2032,-0.604 -1.123,-0.6016 c -2.168,-1.2079 -3.3736,-2.4913 -4.4942,-4.907 l 11.2344,0 0,-3.4727 -15.5682,0 z"
       style="fill:#ffffff;fill-opacity:1;fill-rule:nonzero;stroke:none"
       id="path4045"
       inkscape:connector-curvature="0" /><path
       d="m 3375.7561,-3194.1547 c 0,2.7178 -0.5615,5.4355 -1.5264,7.3205 -1.4438,2.6447 -3.4491,3.8525 -6.3367,3.8525 -2.6494,0 -4.4942,-0.7549 -5.8578,-2.4157 -1.5264,-2.0407 -2.4866,-5.2091 -2.4866,-8.7573 0,-2.5668 0.6393,-5.4379 1.6042,-7.2473 1.3636,-2.6423 3.3689,-3.8502 6.5797,-3.8502 2.4064,0 4.2513,0.7549 5.5347,2.4158 1.6065,1.8873 2.4889,5.2845 2.4889,8.6817 m -3.6119,0 c 0,-1.6608 -0.4011,-3.7746 -0.8823,-4.907 -0.8022,-1.8874 -1.8473,-2.7202 -3.5294,-2.7202 -1.4461,0 -2.4087,0.5308 -3.1306,1.6632 -0.8823,1.3589 -1.3636,3.6992 -1.3636,5.964 0,1.8095 0.3209,3.7723 0.8824,5.0581 0.8021,1.885 1.9274,2.7177 3.6921,2.6399 1.3636,-0.073 2.2459,-0.5261 2.9678,-1.6585 0.8823,-1.4344 1.3636,-3.626 1.3636,-6.0395"
       style="fill:#ffffff;fill-opacity:1;fill-rule:nonzero;stroke:none"
       id="path4049"
       inkscape:connector-curvature="0" /></g></svg>