<?xml version="1.0" encoding="UTF-8" standalone="no"?>
<!-- Created with Inkscape (http://www.inkscape.org/) -->

<svg
   xmlns:dc="http://purl.org/dc/elements/1.1/"
   xmlns:cc="http://creativecommons.org/ns#"
   xmlns:rdf="http://www.w3.org/1999/02/22-rdf-syntax-ns#"
   xmlns:svg="http://www.w3.org/2000/svg"
   xmlns="http://www.w3.org/2000/svg"
   xmlns:sodipodi="http://sodipodi.sourceforge.net/DTD/sodipodi-0.dtd"
   xmlns:inkscape="http://www.inkscape.org/namespaces/inkscape"
   id="svg17624"
   version="1.1"
   inkscape:version="0.48.2 r9819"
   width="299.60938"
   height="129.0625"
   xml:space="preserve"
   sodipodi:docname="MUTCD D2-1.svg"><metadata
     id="metadata17630"><rdf:RDF><cc:Work
         rdf:about=""><dc:format>image/svg+xml</dc:format><dc:type
           rdf:resource="http://purl.org/dc/dcmitype/StillImage" /><dc:title></dc:title></cc:Work></rdf:RDF></metadata><defs
     id="defs17628"><inkscape:perspective
       sodipodi:type="inkscape:persp3d"
       inkscape:vp_x="0 : 0.5 : 1"
       inkscape:vp_y="0 : 1000 : 0"
       inkscape:vp_z="1 : 0.5 : 1"
       inkscape:persp3d-origin="0.5 : 0.33333333 : 1"
       id="perspective17632" /><clipPath
       clipPathUnits="userSpaceOnUse"
       id="clipPath17642"><path
         d="m -2,710 501,0 0,-711 -501,0 0,711 z"
         id="path17644"
         inkscape:connector-curvature="0" /></clipPath><clipPath
       clipPathUnits="userSpaceOnUse"
       id="clipPath17648"><path
         d="m 0,708.06 498,0 0,-708 -498,0 0,708 z"
         id="path17650"
         inkscape:connector-curvature="0" /></clipPath><clipPath
       clipPathUnits="userSpaceOnUse"
       id="clipPath17798"><path
         d="m -2,710 501,0 0,-711 -501,0 0,711 z"
         id="path17800"
         inkscape:connector-curvature="0" /></clipPath><clipPath
       clipPathUnits="userSpaceOnUse"
       id="clipPath17804"><path
         d="m 0,708.06 498,0 0,-708 -498,0 0,708 z"
         id="path17806"
         inkscape:connector-curvature="0" /></clipPath><clipPath
       id="Clip0"><path
         inkscape:connector-curvature="0"
         d="m 0,0 212.597,0 0,269.292 L 0,269.292 0,0 z"
         transform="translate(0.923828,0.879883)"
         id="path7" /></clipPath><clipPath
       id="Clip0-8"><path
         inkscape:connector-curvature="0"
         d="m 0,0 170.079,0 0,113.386 L 0,113.386 0,0 z"
         transform="translate(0.0986328,0.822266)"
         id="path7-8" /></clipPath><clipPath
       id="Clip0-1"><path
         inkscape:connector-curvature="0"
         d="m 0,0 287.009,0 0,159.449 L 0,159.449 0,0 z"
         transform="translate(0.396484,0.267578)"
         id="path7-7" /></clipPath><clipPath
       id="Clip0-9"><path
         inkscape:connector-curvature="0"
         d="m 0,0 170.079,0 0,170.079 L 0,170.079 0,0 z"
         transform="translate(0.460938,0.775391)"
         id="path7-4" /></clipPath><clipPath
       id="Clip0-4"><path
         inkscape:connector-curvature="0"
         d="m 0,0 340.157,0 0,226.771 L 0,226.771 0,0 z"
         transform="translate(0.921875,0.25293)"
         id="path7-5" /></clipPath><clipPath
       id="Clip0-5"><path
         inkscape:connector-curvature="0"
         d="m 0,0 255.119,0 0,170.079 L 0,170.079 0,0 z"
         transform="translate(0.147461,0.0595703)"
         id="path7-1" /></clipPath><clipPath
       id="Clip0-0"><path
         inkscape:connector-curvature="0"
         d="m 0,0 170.079,0 0,113.386 L 0,113.386 0,0 z"
         transform="translate(0.0673828,0.207031)"
         id="path7-9" /></clipPath></defs><sodipodi:namedview
     pagecolor="#ffffff"
     bordercolor="#666666"
     borderopacity="1"
     objecttolerance="10"
     gridtolerance="10"
     guidetolerance="10"
     inkscape:pageopacity="0"
     inkscape:pageshadow="2"
     inkscape:window-width="1280"
     inkscape:window-height="1004"
     id="namedview17626"
     showgrid="false"
     inkscape:zoom="1.7346213"
     inkscape:cx="86.111511"
     inkscape:cy="70.169433"
     inkscape:window-x="-8"
     inkscape:window-y="-8"
     inkscape:window-maximized="1"
     inkscape:current-layer="g17634"
     fit-margin-top="0"
     fit-margin-left="0"
     fit-margin-right="0"
     fit-margin-bottom="0"
     showguides="true"
     inkscape:guide-bbox="true" /><g
     id="g17634"
     inkscape:groupmode="layer"
     inkscape:label="GG1999P002"
     transform="matrix(1.25,0,0,-1.25,-4354.2969,-4540.3516)"><path
       d="m 3722.659,-3726.5383 c 0,-4.69 -3.8384,-8.5284 -8.5237,-8.5284 l -221.6887,0 c -4.6853,0 -8.5237,3.8384 -8.5237,8.5284 l 0,85.2627 c 0,4.69 3.8384,8.5237 8.5237,8.5237 l 221.6887,0 c 4.6853,0 8.5237,-3.8337 8.5237,-8.5237 l 0,-85.2627 z"
       style="fill:#ffffff;fill-opacity:1;fill-rule:nonzero;stroke:#000000;stroke-width:0.96;stroke-miterlimit:4;stroke-opacity:1;stroke-dasharray:none"
       id="path4065"
       inkscape:connector-curvature="0" /><path
       inkscape:connector-curvature="0"
       id="path6172"
       style="fill:#00674c;fill-opacity:1;fill-rule:nonzero;stroke:none"
       d="m 3492.4466,-3731.5114 c -1.3164,0 -2.5621,0.519 -3.5057,1.465 -0.9437,0.939 -1.4651,2.1893 -1.4651,3.5081 l 0,85.2627 c 0,1.3164 0.5214,2.5668 1.4651,3.5105 0.9436,0.9436 2.1893,1.4603 3.5057,1.4603 l 221.6887,0 c 1.3188,0 2.5621,-0.5167 3.5057,-1.4603 0.9461,-0.9437 1.4651,-2.1941 1.4651,-3.5105 l 0,-85.2627 c 0,-1.3188 -0.519,-2.5691 -1.4651,-3.5081 -0.9436,-0.946 -2.1869,-1.465 -3.5057,-1.465 l -221.6887,0 z" /><path
       inkscape:connector-curvature="0"
       id="path6174"
       style="fill:#ffffff;fill-opacity:1;fill-rule:nonzero;stroke:none"
       d="m 3528.3237,-3698.841 3.6354,0 0,-16.6109 -3.6354,0 0,16.6109 z m 1.8189,2.7933 c -1.0381,0 -1.9157,0.7997 -1.9157,1.8378 0,1.038 0.8776,1.918 1.9157,1.918 1.0356,0 1.9109,-0.88 1.9109,-1.918 0,-1.0381 -0.8753,-1.8378 -1.9109,-1.8378" /><path
       inkscape:connector-curvature="0"
       id="path6176"
       style="fill:#ffffff;fill-opacity:1;fill-rule:nonzero;stroke:none"
       d="m 3557.7106,-3715.4526 0,10.7838 c 0,2.1539 -1.1135,2.8735 -3.0315,2.8735 -1.4367,0 -2.6399,-0.9602 -2.6399,-2.8735 l 0,-10.7838 -3.8337,0 0,10.7838 c 0,2.1539 -1.1158,2.8735 -3.1141,2.8735 -1.439,-0.083 -2.5573,-0.9602 -2.5573,-2.8735 l 0,-10.7838 -3.7558,0 0,16.6109 3.678,0 0,-0.7172 c 2.3945,1.8331 6.1503,1.5146 8.1462,-0.8021 2.7956,3.6709 10.7082,2.0785 10.7082,-3.8313 l 0,-11.2603 -3.6001,0 z" /><path
       inkscape:connector-curvature="0"
       id="path6178"
       style="fill:#ffffff;fill-opacity:1;fill-rule:nonzero;stroke:none"
       d="m 3595.5824,-3715.4526 0,11.0221 c 0,2.1515 -1.4368,2.6352 -3.3548,2.6352 -1.4414,-0.083 -2.7956,-0.88 -2.7956,-2.798 l 0,-10.8593 -3.6779,0 0,16.6109 3.593,0 0,-0.5591 c 3.7558,2.3946 9.8283,0.4766 9.8283,-4.6334 l 0,-11.4184 -3.593,0 z" /><path
       inkscape:connector-curvature="0"
       id="path6180"
       style="fill:#ffffff;fill-opacity:1;fill-rule:nonzero;stroke:none"
       d="m 3573.4015,-3701.7953 c -2.8074,0 -3.2911,-3.6709 -3.2911,-5.3483 0,-1.6821 0.4837,-5.3529 3.2911,-5.3529 2.805,0 3.2061,3.751 3.2061,5.4284 0,1.6019 -0.4789,5.2728 -3.2061,5.2728 m 0,-13.9781 c -5.7753,0 -6.9761,4.3951 -6.9761,8.7053 0,3.6756 1.2008,8.6275 6.9761,8.6275 5.695,0 6.8982,-4.6358 6.8982,-8.6275 0,-3.9917 -1.2032,-8.7053 -6.8982,-8.7053" /><path
       inkscape:connector-curvature="0"
       id="path6182"
       style="fill:#ffffff;fill-opacity:1;fill-rule:nonzero;stroke:none"
       d="m 3509.7865,-3715.4526 0,22.7353 3.5836,0 0,-19.3853 10.5195,0 0,-3.35 -14.1031,0 z" /><path
       inkscape:connector-curvature="0"
       id="path6184"
       style="fill:#ffffff;fill-opacity:1;fill-rule:nonzero;stroke:none"
       d="m 3559.4894,-3668.3612 c -1.5098,0.7195 -5.728,1.6774 -5.728,-1.6774 0,-4.0719 4.3786,-2.8711 5.728,-2.1563 l 0,3.8337 z m 0.1628,-7.5045 0,0.4789 c -0.5638,-0.4789 -1.9911,-0.7196 -3.2627,-0.7196 -3.3406,0 -6.207,2.1563 -6.207,6.1457 0,4.716 5.57,6.391 9.2291,4.8764 0,0 0.078,2.6352 -2.4701,2.8758 -2.3025,0.3161 -4.1332,-1.3612 -4.6121,-2.0784 l -1.031,3.5128 c 4.1356,3.3571 11.8501,2.4771 11.8501,-3.9917 l 0,-11.0999 -3.4963,0 z" /><path
       inkscape:connector-curvature="0"
       id="path6186"
       style="fill:#ffffff;fill-opacity:1;fill-rule:nonzero;stroke:none"
       d="m 3616.9847,-3675.8657 0,11.0197 c 0,2.1586 -1.4367,2.6375 -3.35,2.6375 -1.4414,-0.085 -2.7956,-0.88 -2.7956,-2.7956 l 0,-10.8616 -3.6779,0 0,16.6109 3.5953,0 0,-0.5615 c 3.7535,2.3993 9.8283,0.4813 9.8283,-4.6287 l 0,-11.4207 -3.6001,0 z" /><path
       inkscape:connector-curvature="0"
       id="path6188"
       style="fill:#ffffff;fill-opacity:1;fill-rule:nonzero;stroke:none"
       d="m 3594.8086,-3662.2085 c -2.8074,0 -3.2911,-3.6732 -3.2911,-5.3506 0,-1.6774 0.4837,-5.3506 3.2911,-5.3506 2.805,0 3.2061,3.7511 3.2061,5.4285 0,1.5995 -0.4789,5.2727 -3.2061,5.2727 m 0,-13.9757 c -5.7776,0 -6.9808,4.3904 -6.9808,8.703 0,3.6732 1.2032,8.6274 6.9808,8.6274 5.695,0 6.8982,-4.6357 6.8982,-8.6274 0,-3.9894 -1.2032,-8.703 -6.8982,-8.703" /><path
       inkscape:connector-curvature="0"
       id="path6190"
       style="fill:#ffffff;fill-opacity:1;fill-rule:nonzero;stroke:none"
       d="m 3547.3161,-3663.1687 c -0.7195,0.5591 -1.281,0.9602 -2.161,0.9602 -2.0831,0 -2.3214,-1.1985 -2.3214,-3.2769 l 0,-10.3803 -3.6826,0 0,16.6109 3.6826,0 0,-0.7974 c 0.88,0.7974 1.281,1.1984 2.5621,1.1984 1.281,0 1.8425,-0.4812 2.3992,-1.1206 l -0.4789,-3.1943 z" /><path
       inkscape:connector-curvature="0"
       id="path6192"
       style="fill:#ffffff;fill-opacity:1;fill-rule:nonzero;stroke:none"
       d="m 3534.9164,-3675.467 c -1.2103,-0.5591 -1.852,-0.7172 -2.7414,-0.7172 -2.6541,-0.1628 -3.4609,1.9156 -3.4609,4.3102 l 0,9.2644 -2.4134,0 0,3.3548 2.4134,0 0,4.7915 3.5435,1.7552 0,-6.5467 2.8994,0 0,-3.2745 -2.8994,0 0,-8.7856 c 0,-1.1182 0.1628,-1.5948 1.2079,-1.5948 0.8068,0 1.2079,0.2383 1.9345,0.7974 l -0.4836,-3.3547 z" /><path
       inkscape:connector-curvature="0"
       id="path6194"
       style="fill:#ffffff;fill-opacity:1;fill-rule:nonzero;stroke:none"
       d="m 3575.1803,-3675.467 c -1.2126,-0.5591 -1.859,-0.7172 -2.7437,-0.7172 -2.6565,-0.1628 -3.4586,1.9156 -3.4586,4.3102 l 0,9.2644 -2.4205,0 0,3.3548 2.4205,0 0,4.7915 3.5435,1.7552 0,-6.5467 2.8971,0 0,-3.2745 -2.8971,0 0,-8.7856 c 0,-1.1182 0.1557,-1.5948 1.2055,-1.5948 0.8069,0 1.2079,0.2383 1.9322,0.7974 l -0.4789,-3.3547 z" /><path
       inkscape:connector-curvature="0"
       id="path6196"
       style="fill:#ffffff;fill-opacity:1;fill-rule:nonzero;stroke:none"
       d="m 3584.9567,-3675.467 c -1.2079,-0.5591 -1.852,-0.7172 -2.7367,-0.7172 -2.654,-0.1628 -3.4609,1.9156 -3.4609,4.3102 l 0,9.2644 -2.4181,0 0,3.3548 2.4181,0 0,4.7915 3.5435,1.7552 0,-6.5467 2.8994,0 0,-3.2745 -2.8994,0 0,-8.7856 c 0,-1.1182 0.1604,-1.5948 1.2079,-1.5948 0.8068,0 1.2079,0.2383 1.9298,0.7974 l -0.4836,-3.3547 z" /><path
       inkscape:connector-curvature="0"
       id="path6198"
       style="fill:#ffffff;fill-opacity:1;fill-rule:nonzero;stroke:none"
       d="m 3522.0188,-3674.4833 c -1.2763,-1.1158 -3.0363,-1.7552 -4.9472,-1.7552 -3.9091,0 -6.7826,2.3144 -8.2996,5.7446 l 3.4326,1.2763 c 0.9579,-2.1516 2.7154,-3.35 4.867,-3.35 2.0784,0 3.5104,1.4367 3.5104,3.35 0,3.0339 -3.5104,3.5105 -6.4594,4.7066 -1.3588,0.5591 -4.3927,1.9156 -4.3927,5.6643 0,4.4706 3.0339,6.1433 7.1011,6.1433 3.1943,0 5.3458,-1.8331 6.4641,-4.6263 l -3.192,-0.9579 c 0,0 -0.7974,1.9133 -3.35,1.9935 -1.6774,0.085 -3.6685,-0.5567 -3.5104,-2.6304 0.3161,-4.23 11.0078,-1.4368 11.0078,-10.3709 0,-2.0738 -0.7974,-3.9092 -2.2317,-5.1879" /><path
       inkscape:connector-curvature="0"
       id="path6200"
       style="fill:#ffffff;fill-opacity:1;fill-rule:nonzero;stroke:none"
       d="m 3670.2878,-3675.7784 0,18.4251 -2.0501,0 0,2.8711 0.2359,0 c 0.9437,0 1.9699,0.5615 2.6069,1.4367 l 2.8381,0 0,-22.7329 -3.6308,0 z" /><path
       inkscape:connector-curvature="0"
       id="path6202"
       style="fill:#ffffff;fill-opacity:1;fill-rule:nonzero;stroke:none"
       d="m 3689.1612,-3665.8864 c -2.2342,0 -4.0696,-1.517 -4.0696,-3.2746 0,-1.8354 1.8354,-3.35 4.0696,-3.35 2.2341,0 4.1521,1.5146 4.1521,3.35 0,1.7576 -1.8378,3.2746 -4.1521,3.2746 m 0,-10.2931 c -4.3857,0 -7.7358,3.192 -7.7358,7.2592 0,6.3013 3.5058,12.7654 8.7738,16.2735 l 1.8331,-3.0292 c -2.7886,-2.1562 -4.2253,-3.9893 -5.5795,-6.8604 1.2716,0.2406 1.8331,0.2406 2.7084,0.2406 4.2299,0 7.7404,-3.1141 7.7404,-6.943 0,-3.9092 -3.35,-6.9407 -7.7404,-6.9407" /><path
       inkscape:connector-curvature="0"
       id="path6204"
       style="fill:#ffffff;fill-opacity:1;fill-rule:nonzero;stroke:none"
       d="m 3689.055,-3705.3506 c -2.2294,0 -4.0672,-1.517 -4.0672,-3.2745 0,-1.8355 1.8378,-3.3501 4.0672,-3.3501 2.2341,0 4.1521,1.5146 4.1521,3.3501 0,1.7575 -1.8378,3.2745 -4.1521,3.2745 m 0,-10.2954 c -4.3857,0 -7.7357,3.1943 -7.7357,7.2568 0,6.3037 3.5104,12.7702 8.7784,16.2782 l 1.8331,-3.0291 c -2.7932,-2.1563 -4.23,-3.9917 -5.5841,-6.8629 1.2763,0.2383 1.833,0.2383 2.7083,0.2383 4.23,0 7.7404,-3.1094 7.7404,-6.9359 0,-3.9115 -3.35,-6.9454 -7.7404,-6.9454" /><path
       inkscape:connector-curvature="0"
       id="path6206"
       style="fill:#ffffff;fill-opacity:1;fill-rule:nonzero;stroke:none"
       d="m 3673.5128,-3698.811 c -2.003,-3.35 -3.5246,-7.1813 -4.2489,-10.8522 -0.3161,-1.9109 -0.4836,-3.3524 -0.4836,-5.5818 l -3.685,0 c 0.078,5.2681 1.0404,9.6538 3.2839,14.4405 0.8069,1.7529 1.7694,3.4302 2.5715,4.7042 l -10.9111,0 0,3.5906 15.4832,0 0,-3.5906 c -0.8021,-1.0357 -1.2858,-1.5146 -2.01,-2.7107" /></g></svg>