<?xml version="1.0" encoding="UTF-8" standalone="no"?>
<!-- Created with Inkscape (http://www.inkscape.org/) -->

<svg
   xmlns:dc="http://purl.org/dc/elements/1.1/"
   xmlns:cc="http://creativecommons.org/ns#"
   xmlns:rdf="http://www.w3.org/1999/02/22-rdf-syntax-ns#"
   xmlns:svg="http://www.w3.org/2000/svg"
   xmlns="http://www.w3.org/2000/svg"
   xmlns:sodipodi="http://sodipodi.sourceforge.net/DTD/sodipodi-0.dtd"
   xmlns:inkscape="http://www.inkscape.org/namespaces/inkscape"
   id="svg17624"
   version="1.1"
   inkscape:version="0.48.2 r9819"
   width="93.242188"
   height="32.929688"
   xml:space="preserve"
   sodipodi:docname="AJAX1.svg"><metadata
     id="metadata17630"><rdf:RDF><cc:Work
         rdf:about=""><dc:format>image/svg+xml</dc:format><dc:type
           rdf:resource="http://purl.org/dc/dcmitype/StillImage" /><dc:title></dc:title></cc:Work></rdf:RDF></metadata><defs
     id="defs17628"><inkscape:perspective
       sodipodi:type="inkscape:persp3d"
       inkscape:vp_x="0 : 0.5 : 1"
       inkscape:vp_y="0 : 1000 : 0"
       inkscape:vp_z="1 : 0.5 : 1"
       inkscape:persp3d-origin="0.5 : 0.33333333 : 1"
       id="perspective17632" /><clipPath
       clipPathUnits="userSpaceOnUse"
       id="clipPath17642"><path
         d="m -2,710 501,0 0,-711 -501,0 0,711 z"
         id="path17644"
         inkscape:connector-curvature="0" /></clipPath><clipPath
       clipPathUnits="userSpaceOnUse"
       id="clipPath17648"><path
         d="m 0,708.06 498,0 0,-708 -498,0 0,708 z"
         id="path17650"
         inkscape:connector-curvature="0" /></clipPath><clipPath
       clipPathUnits="userSpaceOnUse"
       id="clipPath17798"><path
         d="m -2,710 501,0 0,-711 -501,0 0,711 z"
         id="path17800"
         inkscape:connector-curvature="0" /></clipPath><clipPath
       clipPathUnits="userSpaceOnUse"
       id="clipPath17804"><path
         d="m 0,708.06 498,0 0,-708 -498,0 0,708 z"
         id="path17806"
         inkscape:connector-curvature="0" /></clipPath><clipPath
       id="Clip0"><path
         inkscape:connector-curvature="0"
         d="m 0,0 212.597,0 0,269.292 L 0,269.292 0,0 z"
         transform="translate(0.923828,0.879883)"
         id="path7" /></clipPath><clipPath
       id="Clip0-8"><path
         inkscape:connector-curvature="0"
         d="m 0,0 170.079,0 0,113.386 L 0,113.386 0,0 z"
         transform="translate(0.0986328,0.822266)"
         id="path7-8" /></clipPath><clipPath
       id="Clip0-1"><path
         inkscape:connector-curvature="0"
         d="m 0,0 287.009,0 0,159.449 L 0,159.449 0,0 z"
         transform="translate(0.396484,0.267578)"
         id="path7-7" /></clipPath><clipPath
       id="Clip0-9"><path
         inkscape:connector-curvature="0"
         d="m 0,0 170.079,0 0,170.079 L 0,170.079 0,0 z"
         transform="translate(0.460938,0.775391)"
         id="path7-4" /></clipPath><clipPath
       id="Clip0-4"><path
         inkscape:connector-curvature="0"
         d="m 0,0 340.157,0 0,226.771 L 0,226.771 0,0 z"
         transform="translate(0.921875,0.25293)"
         id="path7-5" /></clipPath><clipPath
       id="Clip0-5"><path
         inkscape:connector-curvature="0"
         d="m 0,0 255.119,0 0,170.079 L 0,170.079 0,0 z"
         transform="translate(0.147461,0.0595703)"
         id="path7-1" /></clipPath><clipPath
       id="Clip0-0"><path
         inkscape:connector-curvature="0"
         d="m 0,0 170.079,0 0,113.386 L 0,113.386 0,0 z"
         transform="translate(0.0673828,0.207031)"
         id="path7-9" /></clipPath></defs><sodipodi:namedview
     pagecolor="#ffffff"
     bordercolor="#666666"
     borderopacity="1"
     objecttolerance="10"
     gridtolerance="10"
     guidetolerance="10"
     inkscape:pageopacity="0"
     inkscape:pageshadow="2"
     inkscape:window-width="1280"
     inkscape:window-height="1004"
     id="namedview17626"
     showgrid="false"
     inkscape:zoom="4"
     inkscape:cx="64.318692"
     inkscape:cy="-8.1952149"
     inkscape:window-x="-8"
     inkscape:window-y="-8"
     inkscape:window-maximized="1"
     inkscape:current-layer="g17634"
     fit-margin-top="0"
     fit-margin-left="0"
     fit-margin-right="0"
     fit-margin-bottom="0"
     showguides="true"
     inkscape:guide-bbox="true" /><g
     id="g17634"
     inkscape:groupmode="layer"
     inkscape:label="GG1999P002"
     transform="matrix(1.25,0,0,-1.25,-3478.2422,-2118.125)"><path
       inkscape:connector-curvature="0"
       d="m 2788.0176,-1694.7457 63.768,0 c 2.849,0 5.173,-2.324 5.173,-5.174 l 0,-15.521 c 0,-2.85 -2.324,-5.174 -5.173,-5.174 l -63.768,0 c -2.85,0 -5.174,2.324 -5.174,5.174 l 0,15.521 c 0,2.815 2.361,5.174 5.174,5.174"
       style="fill:#ffffff;fill-opacity:1;fill-rule:nonzero;stroke:#000000;stroke-width:0.48;stroke-linecap:butt;stroke-linejoin:miter;stroke-miterlimit:4;stroke-opacity:1;stroke-dasharray:none"
       id="path3971" /><path
       inkscape:connector-curvature="0"
       d="m 2851.7621,-1696.6851 c 1.783,-0.012 3.254,-1.471 3.257,-3.26 l 0,-15.664 c -0.098,-1.654 -1.432,-2.941 -3.063,-3.06 l -63.91,-0.01 c -1.783,0.01 -3.254,1.472 -3.26,3.258 l 0.01,15.664 c 0.098,1.658 1.428,2.939 3.062,3.062 l 63.911,0.01"
       style="fill:#00674c;fill-opacity:1;fill-rule:evenodd;stroke:none"
       id="path3975" /><path
       inkscape:connector-curvature="0"
       d="m 2789.8692,-1714.1744 0,9.618 4.523,0 0,-1.349 -3.139,0 0,-2.43 1.991,0 0,-1.317 -1.991,0 0,-3.172 3.51,0 0,-1.35 -4.894,0 z"
       style="fill:#ffffff;fill-opacity:1;fill-rule:nonzero;stroke:none"
       id="path3991" /><path
       inkscape:connector-curvature="0"
       d="m 2809.7361,-1714.1744 0,7.2 -2.384,-7.2 -2.385,7.2 0,-7.2 -1.845,0 0,12.825 1.845,0 2.385,-7.2 2.384,7.2 1.846,0 0,-12.825 -1.846,0 z"
       style="fill:#ffffff;fill-opacity:1;fill-rule:nonzero;stroke:none"
       id="path3995" /><path
       inkscape:connector-curvature="0"
       d="m 2817.8821,-1710.0347 c -0.946,0.855 -2.611,0.631 -2.611,-1.034 0,-1.171 0.63,-1.665 1.531,-1.665 0.63,0 1.08,0.269 1.08,0.854 l 0,1.845 z m 0.09,-4.14 0,0.27 c -0.315,-0.27 -0.991,-0.404 -1.576,-0.404 -1.574,0 -2.924,1.394 -2.924,3.285 0,2.654 2.25,3.824 4.41,2.79 -0.045,1.125 -0.045,1.979 -1.486,1.979 -0.809,0 -1.62,-0.675 -1.934,-1.17 l -0.45,1.755 c 0.764,0.72 1.71,1.08 2.61,1.08 2.475,0 3.015,-1.799 3.015,-3.33 l 0,-6.255 -1.665,0 z"
       style="fill:#ffffff;fill-opacity:1;fill-rule:nonzero;stroke:none"
       id="path3999" /><path
       inkscape:connector-curvature="0"
       d="m 2821.797,-1704.8142 1.8,0 0,-9.36 -1.8,0 0,9.36 z m 0.899,1.8 c -0.494,0 -0.899,0.405 -0.899,0.899 0,0.54 0.405,0.946 0.899,0.946 0.54,0 0.946,-0.406 0.946,-0.946 0,-0.494 -0.406,-0.899 -0.946,-0.899"
       style="fill:#ffffff;fill-opacity:1;fill-rule:nonzero;stroke:none"
       id="path4001" /><path
       inkscape:connector-curvature="0"
       d="m 2830.6161,-1714.1744 0,6.39 c 0,1.215 -0.675,1.485 -1.575,1.485 -0.675,-0.045 -1.305,-0.405 -1.305,-1.485 l 0,-6.39 -1.8,0 0,9.36 1.755,0 0,-0.405 c 0.81,1.035 4.725,1.125 4.725,-2.52 l 0,-6.435 -1.8,0 z"
       style="fill:#ffffff;fill-opacity:1;fill-rule:nonzero;stroke:none"
       id="path4005" /><path
       inkscape:connector-curvature="0"
       d="m 2843.1151,-1714.3433 c -1.687,0 -2.7,1.418 -2.7,3.004 l 1.35,0 c 0,-0.81 0.405,-1.653 1.35,-1.653 0.742,0 1.35,0.674 1.35,1.451 0,0.54 -0.202,0.944 -0.777,1.384 -0.202,0.202 0.338,-0.169 -1.62,1.147 -0.776,0.54 -1.18,1.282 -1.18,2.126 0,1.384 1.079,2.497 2.463,2.497 1.35,0 2.396,-1.046 2.43,-2.497 l -1.316,0 c -0.034,0.675 -0.506,1.113 -1.114,1.113 -0.641,0 -1.148,-0.472 -1.148,-1.113 0,-0.473 0.203,-0.742 0.912,-1.147 1.856,-1.081 2.666,-2.126 2.666,-3.51 0,-1.553 -1.181,-2.802 -2.666,-2.802"
       style="fill:#ffffff;fill-opacity:1;fill-rule:nonzero;stroke:none"
       id="path4009" /><path
       inkscape:connector-curvature="0"
       d="m 2849.7291,-1714.0054 c -0.438,-0.236 -0.709,-0.304 -1.045,-0.304 -1.013,-0.067 -1.317,0.81 -1.317,1.823 l 0,4.049 -0.911,0 0,1.283 0.911,0 0,2.025 1.35,0.742 0,-2.767 1.114,0 0,-1.283 -1.114,0 0,-3.915 c 0,-0.472 0.068,-0.674 0.472,-0.674 0.304,0 0.44,0.101 0.744,0.337 l -0.204,-1.316 z"
       style="fill:#ffffff;fill-opacity:1;fill-rule:nonzero;stroke:none"
       id="path4013" /></g></svg>