<?xml version="1.0" encoding="UTF-8" standalone="no"?>
<!-- Created with Inkscape (http://www.inkscape.org/) -->

<svg
   xmlns:dc="http://purl.org/dc/elements/1.1/"
   xmlns:cc="http://creativecommons.org/ns#"
   xmlns:rdf="http://www.w3.org/1999/02/22-rdf-syntax-ns#"
   xmlns:svg="http://www.w3.org/2000/svg"
   xmlns="http://www.w3.org/2000/svg"
   xmlns:sodipodi="http://sodipodi.sourceforge.net/DTD/sodipodi-0.dtd"
   xmlns:inkscape="http://www.inkscape.org/namespaces/inkscape"
   id="svg17624"
   version="1.1"
   inkscape:version="0.48.2 r9819"
   width="219.29688"
   height="40.351562"
   xml:space="preserve"
   sodipodi:docname="MUTCD D3-1.svg"><metadata
     id="metadata17630"><rdf:RDF><cc:Work
         rdf:about=""><dc:format>image/svg+xml</dc:format><dc:type
           rdf:resource="http://purl.org/dc/dcmitype/StillImage" /><dc:title></dc:title></cc:Work></rdf:RDF></metadata><defs
     id="defs17628"><inkscape:perspective
       sodipodi:type="inkscape:persp3d"
       inkscape:vp_x="0 : 0.5 : 1"
       inkscape:vp_y="0 : 1000 : 0"
       inkscape:vp_z="1 : 0.5 : 1"
       inkscape:persp3d-origin="0.5 : 0.33333333 : 1"
       id="perspective17632" /><clipPath
       clipPathUnits="userSpaceOnUse"
       id="clipPath17642"><path
         d="m -2,710 501,0 0,-711 -501,0 0,711 z"
         id="path17644"
         inkscape:connector-curvature="0" /></clipPath><clipPath
       clipPathUnits="userSpaceOnUse"
       id="clipPath17648"><path
         d="m 0,708.06 498,0 0,-708 -498,0 0,708 z"
         id="path17650"
         inkscape:connector-curvature="0" /></clipPath><clipPath
       clipPathUnits="userSpaceOnUse"
       id="clipPath17798"><path
         d="m -2,710 501,0 0,-711 -501,0 0,711 z"
         id="path17800"
         inkscape:connector-curvature="0" /></clipPath><clipPath
       clipPathUnits="userSpaceOnUse"
       id="clipPath17804"><path
         d="m 0,708.06 498,0 0,-708 -498,0 0,708 z"
         id="path17806"
         inkscape:connector-curvature="0" /></clipPath><clipPath
       id="Clip0"><path
         inkscape:connector-curvature="0"
         d="m 0,0 212.597,0 0,269.292 L 0,269.292 0,0 z"
         transform="translate(0.923828,0.879883)"
         id="path7" /></clipPath><clipPath
       id="Clip0-8"><path
         inkscape:connector-curvature="0"
         d="m 0,0 170.079,0 0,113.386 L 0,113.386 0,0 z"
         transform="translate(0.0986328,0.822266)"
         id="path7-8" /></clipPath><clipPath
       id="Clip0-1"><path
         inkscape:connector-curvature="0"
         d="m 0,0 287.009,0 0,159.449 L 0,159.449 0,0 z"
         transform="translate(0.396484,0.267578)"
         id="path7-7" /></clipPath><clipPath
       id="Clip0-9"><path
         inkscape:connector-curvature="0"
         d="m 0,0 170.079,0 0,170.079 L 0,170.079 0,0 z"
         transform="translate(0.460938,0.775391)"
         id="path7-4" /></clipPath><clipPath
       id="Clip0-4"><path
         inkscape:connector-curvature="0"
         d="m 0,0 340.157,0 0,226.771 L 0,226.771 0,0 z"
         transform="translate(0.921875,0.25293)"
         id="path7-5" /></clipPath><clipPath
       id="Clip0-5"><path
         inkscape:connector-curvature="0"
         d="m 0,0 255.119,0 0,170.079 L 0,170.079 0,0 z"
         transform="translate(0.147461,0.0595703)"
         id="path7-1" /></clipPath><clipPath
       id="Clip0-0"><path
         inkscape:connector-curvature="0"
         d="m 0,0 170.079,0 0,113.386 L 0,113.386 0,0 z"
         transform="translate(0.0673828,0.207031)"
         id="path7-9" /></clipPath></defs><sodipodi:namedview
     pagecolor="#ffffff"
     bordercolor="#666666"
     borderopacity="1"
     objecttolerance="10"
     gridtolerance="10"
     guidetolerance="10"
     inkscape:pageopacity="0"
     inkscape:pageshadow="2"
     inkscape:window-width="1280"
     inkscape:window-height="1004"
     id="namedview17626"
     showgrid="false"
     inkscape:zoom="2.8284271"
     inkscape:cx="74.921298"
     inkscape:cy="-35.605675"
     inkscape:window-x="-8"
     inkscape:window-y="-8"
     inkscape:window-maximized="1"
     inkscape:current-layer="g17634"
     fit-margin-top="0"
     fit-margin-left="0"
     fit-margin-right="0"
     fit-margin-bottom="0"
     showguides="true"
     inkscape:guide-bbox="true" /><g
     id="g17634"
     inkscape:groupmode="layer"
     inkscape:label="GG1999P002"
     transform="matrix(1.25,0,0,-1.25,-3789.2969,-1251.1719)"><path
       inkscape:connector-curvature="0"
       d="m 3206.6298,-1029.0094 c 0,-2.195 -1.781,-3.975 -3.976,-3.975 l -166.995,0 c -2.196,0 -3.976,1.78 -3.976,3.975 l 0,23.857 c 0,2.196 1.78,3.976 3.976,3.976 l 166.995,0 c 2.195,0 3.976,-1.78 3.976,-3.976 l 0,-23.857 z"
       style="fill:#ffffff;fill-opacity:1;fill-rule:nonzero;stroke:#000000;stroke-width:0.47999999;stroke-miterlimit:4;stroke-opacity:1;stroke-dasharray:none"
       id="path3901" /><path
       inkscape:connector-curvature="0"
       d="m 3033.0079,-1029.0094 0,23.857 c 0,1.462 1.189,2.651 2.651,2.651 l 166.995,0 c 1.46,0 2.649,-1.189 2.649,-2.651 l 0,-23.857 c 0,-1.461 -1.189,-2.65 -2.649,-2.65 l -166.995,0 c -1.462,0 -2.651,1.189 -2.651,2.65"
       style="fill:#00674c;fill-opacity:1;fill-rule:nonzero;stroke:none"
       id="path3909" /><path
       inkscape:connector-curvature="0"
       d="m 3073.3419,-1025.0422 -5.406,0.01 0,10.603 5.406,0 0,-1.482 -3.926,0 0,-2.761 2.336,0 0,-1.481 -2.336,0 0,-3.396 3.926,0 0,-1.492 z"
       style="fill:#ffffff;fill-opacity:1;fill-rule:nonzero;stroke:none"
       id="path3913" /><path
       inkscape:connector-curvature="0"
       d="m 3097.1539,-1009.1286 -2.784,-15.904 -1.765,0 -1.495,8.429 -1.495,-8.429 -1.765,0 -2.783,15.904 2.226,0 1.447,-8.222 1.448,8.222 1.844,0 1.448,-8.222 1.447,8.222 2.227,0 z"
       style="fill:#ffffff;fill-opacity:1;fill-rule:nonzero;stroke:none"
       id="path3917" /><path
       inkscape:connector-curvature="0"
       d="m 3101.2918,-1025.0328 -2.227,0 0,11.61 2.227,0 0,-11.61 z m -2.227,14.791 c 0,0.307 0.109,0.57 0.326,0.787 0.218,0.2171 0.479,0.326 0.787,0.326 0.297,0 0.558,-0.112 0.78,-0.334 0.223,-0.222 0.334,-0.482 0.334,-0.779 0,-0.308 -0.108,-0.57 -0.326,-0.788 -0.218,-0.217 -0.479,-0.326 -0.788,-0.326 -0.308,0 -0.569,0.109 -0.787,0.326 -0.217,0.218 -0.326,0.48 -0.326,0.788"
       style="fill:#ffffff;fill-opacity:1;fill-rule:nonzero;stroke:none"
       id="path3919" /><path
       inkscape:connector-curvature="0"
       d="m 3112.2718,-1025.0329 -2.227,0 0,7.942 c 0,1.271 -0.648,1.907 -1.943,1.907 -1.147,0 -1.721,-0.636 -1.721,-1.907 l 0,-7.942 -2.226,0 0,11.61 2.226,0 0,-0.462 c 0.531,0.41 1.258,0.615 2.182,0.615 1.018,0 1.867,-0.313 2.547,-0.938 0.775,-0.689 1.162,-1.648 1.162,-2.877 l 0,-7.948 z"
       style="fill:#ffffff;fill-opacity:1;fill-rule:nonzero;stroke:none"
       id="path3923" /><path
       inkscape:connector-curvature="0"
       d="m 3120.1349,-1017.1125 c -0.327,1.077 -0.857,1.615 -1.589,1.615 -0.645,0 -1.134,-0.434 -1.463,-1.304 -0.244,-0.657 -0.366,-1.415 -0.366,-2.273 0,-1.0719 0.128,-1.951 0.383,-2.64 0.328,-0.838 0.809,-1.256 1.446,-1.256 0.87,0 1.452,0.754 1.749,2.264 l 2.115,-0.764 c -0.573,-2.486 -1.861,-3.728 -3.865,-3.728 -1.304,0 -2.316,0.583 -3.037,1.75 -0.678,1.102 -1.018,2.56 -1.018,4.374 0,1.653 0.34,3.01 1.018,4.071 0.742,1.155 1.755,1.733 3.037,1.733 1.738,0 2.953,-0.968 3.642,-2.905 l -2.052,-0.937 z"
       style="fill:#ffffff;fill-opacity:1;fill-rule:nonzero;stroke:none"
       id="path3927" /><path
       inkscape:connector-curvature="0"
       d="m 3132.4698,-1025.0329 -2.229,0 0,7.942 c 0,0.615 -0.19,1.096 -0.573,1.446 -0.328,0.307 -0.748,0.461 -1.258,0.461 -0.509,0 -0.934,-0.154 -1.273,-0.461 -0.372,-0.35 -0.558,-0.831 -0.558,-1.446 l 0,-7.942 -2.226,0 0,14.877 2.226,1.193 0,-4.922 c 0.532,0.41 1.258,0.615 2.181,0.615 1.02,0 1.867,-0.313 2.547,-0.938 0.775,-0.689 1.163,-1.648 1.163,-2.877 l 0,-7.948 z"
       style="fill:#ffffff;fill-opacity:1;fill-rule:nonzero;stroke:none"
       id="path3931" /><path
       inkscape:connector-curvature="0"
       d="m 3140.5249,-1018.1852 c -0.234,1.792 -0.828,2.688 -1.782,2.688 -0.986,0 -1.58,-0.896 -1.781,-2.688 l 3.563,0 z m 1.86,-4.305 c -0.699,-1.806 -1.914,-2.708 -3.642,-2.708 -1.304,0 -2.317,0.583 -3.038,1.75 -0.677,1.101 -1.016,2.56 -1.016,4.373 0,1.654 0.339,3.011 1.016,4.072 0.742,1.155 1.755,1.733 3.038,1.733 1.272,0 2.28,-0.572 3.022,-1.716 0.689,-1.058 1.034,-2.418 1.034,-4.081 0,-0.36 -0.017,-0.704 -0.048,-1.033 l -5.789,0 c 0.201,-1.914 0.795,-2.871 1.781,-2.871 0.827,0 1.405,0.606 1.735,1.819 l 1.907,-1.338 z"
       style="fill:#ffffff;fill-opacity:1;fill-rule:nonzero;stroke:none"
       id="path3935" /><path
       inkscape:connector-curvature="0"
       d="m 3150.7589,-1022.05 c 0,-0.848 -0.299,-1.563 -0.893,-2.147 -0.657,-0.668 -1.571,-1.001 -2.739,-1.001 -1.539,0 -2.612,0.594 -3.217,1.7841 l 1.785,1.403 c 0.424,-0.641 0.918,-0.96 1.483,-0.96 0.901,0 1.352,0.292 1.352,0.875 0,0.508 -0.385,1.091 -1.161,1.749 -0.711,0.593 -1.422,1.193 -2.132,1.797 -0.774,0.773 -1.161,1.569 -1.161,2.385 0,0.626 0.181,1.193 0.54,1.702 0.55,0.795 1.43,1.193 2.638,1.193 1.175,0 2.17,-0.588 2.986,-1.762 l -1.714,-1.285 c -0.36,0.546 -0.809,0.819 -1.348,0.819 -0.583,0 -0.874,-0.233 -0.874,-0.6991 0,-0.3079 0.388,-0.758 1.161,-1.352 1.081,-0.837 1.792,-1.448 2.131,-1.829 0.775,-0.8579 1.163,-1.749 1.163,-2.672"
       style="fill:#ffffff;fill-opacity:1;fill-rule:nonzero;stroke:none"
       id="path3939" /><path
       inkscape:connector-curvature="0"
       d="m 3157.0959,-1015.4797 -1.969,0 0,-6.809 c 0,-0.553 0.28,-0.83 0.843,-0.83 0.401,0 0.778,0.195 1.126,0.583 l -0.348,-2.185 c -0.434,-0.318 -0.933,-0.478 -1.496,-0.478 -0.709,0 -1.287,0.266 -1.732,0.797 -0.412,0.5 -0.62,1.089 -0.62,1.7691 l 0,7.153 -1.527,0 0,2.0619 1.527,0 0,3.2461 2.227,1.209 0,-4.455 1.969,0 0,-2.062 z"
       style="fill:#ffffff;fill-opacity:1;fill-rule:nonzero;stroke:none"
       id="path3943" /><path
       inkscape:connector-curvature="0"
       d="m 3164.0619,-1018.1852 c -0.233,1.792 -0.826,2.688 -1.782,2.688 -0.985,0 -1.579,-0.896 -1.781,-2.688 l 3.563,0 z m 1.861,-4.305 c -0.7,-1.806 -1.914,-2.708 -3.643,-2.708 -1.302,0 -2.317,0.583 -3.037,1.75 -0.678,1.101 -1.017,2.56 -1.017,4.373 0,1.654 0.339,3.011 1.017,4.072 0.743,1.155 1.755,1.733 3.037,1.733 1.273,0 2.281,-0.572 3.023,-1.716 0.688,-1.058 1.034,-2.418 1.034,-4.081 0,-0.36 -0.017,-0.704 -0.049,-1.033 l -5.789,0 c 0.202,-1.914 0.796,-2.871 1.781,-2.871 0.828,0 1.406,0.606 1.735,1.819 l 1.908,-1.338 z"
       style="fill:#ffffff;fill-opacity:1;fill-rule:nonzero;stroke:none"
       id="path3947" /><path
       inkscape:connector-curvature="0"
       d="m 3173.6549,-1013.9997 -0.43,-2.111 c -0.392,0.408 -0.891,0.613 -1.496,0.613 -0.731,0 -1.097,-0.541 -1.097,-1.621 l 0,-7.914 -2.227,0 0,11.61 2.227,0 0,-0.557 c 0.234,0.473 0.731,0.71 1.495,0.71 0.562,0 1.071,-0.244 1.528,-0.73"
       style="fill:#ffffff;fill-opacity:1;fill-rule:nonzero;stroke:none"
       id="path3951" /><path
       inkscape:connector-curvature="0"
       d="m 3191.1428,-1022.1388 c 0,-0.75 -0.196,-1.3979 -0.583,-1.942 -0.502,-0.708 -1.244,-1.063 -2.227,-1.063 -1.103,0 -1.927,0.355 -2.47,1.063 -0.438,0.559 -0.657,1.262 -0.657,2.1121 l 1.482,0 c 0,-0.617 0.193,-1.0751 0.583,-1.3731 0.29,-0.213 0.643,-0.3189 1.06,-0.3189 0.851,0 1.274,0.505 1.274,1.517 0,0.7929 -0.342,1.441 -1.027,1.943 -0.634,0.3959 -1.271,0.79 -1.914,1.178 -0.684,0.531 -1.026,1.225 -1.026,2.081 0,0.559 0.156,1.073 0.466,1.54 0.479,0.721 1.25,1.082 2.307,1.082 1.116,0 1.905,-0.418 2.372,-1.253 0.189,-0.347 0.309,-0.769 0.36,-1.264 l -1.482,0 c 0,0.177 -0.061,0.356 -0.181,0.534 -0.211,0.334 -0.569,0.501 -1.069,0.501 -0.854,0 -1.281,-0.378 -1.281,-1.135 0,-0.418 0.345,-0.835 1.037,-1.253 1.03,-0.609 1.677,-1.04 1.938,-1.295 0.692,-0.687 1.038,-1.571 1.038,-2.654"
       style="fill:#ffffff;fill-opacity:1;fill-rule:nonzero;stroke:none"
       id="path3955" /><path
       inkscape:connector-curvature="0"
       d="m 3195.7009,-1018.6735 -1.316,0 0,-4.528 c 0,-0.368 0.187,-0.552 0.562,-0.552 0.269,0 0.52,0.129 0.754,0.385 l -0.23,-1.455 c -0.289,-0.213 -0.622,-0.32 -0.997,-0.32 -0.474,0 -0.86,0.177 -1.156,0.53 -0.277,0.333 -0.414,0.725 -0.414,1.1781 l 0,4.762 -1.023,0 0,1.381 1.023,0 0,2.166 1.481,0.807 0,-2.973 1.316,0 0,-1.381 z"
       style="fill:#ffffff;fill-opacity:1;fill-rule:nonzero;stroke:none"
       id="path3959" /><path
       inkscape:connector-curvature="0"
       d="m 3047.6309,-1027.7311 c -0.952,1.14 -2.382,1.835 -3.87,1.835 l -0.384,0 -0.529,0 c -3.229,0 -5.862,2.633 -5.862,5.8621 0,1.9949 1.273,3.46 1.273,5.5229 0,1.404 -0.476,2.8611 -1.296,3.972 l 4.224,4.059 c 0.869,-0.733 2.038,-1.198 3.198,-1.198 1.179,0 2.376,0.444 3.246,1.218 0.869,-0.774 2.067,-1.218 3.246,-1.218 1.158,0 2.329,0.465 3.198,1.198 l 4.225,-4.059 c -0.822,-1.111 -1.299,-2.568 -1.299,-3.972 0,-2.063 1.275,-3.528 1.275,-5.5229 0,-3.2291 -2.634,-5.8621 -5.862,-5.8621 l -0.529,0 -0.385,0 c -1.488,0 -2.918,-0.695 -3.869,-1.835"
       style="fill:#ffffff;fill-opacity:1;fill-rule:evenodd;stroke:none"
       id="path3963" /><path
       inkscape:connector-curvature="0"
       d="m 3054.5169,-1019.3937 c 0,-0.886 -0.925,-1.619 -2.004,-1.619 -1.08,0 -1.966,0.733 -1.966,1.619 0,0.848 0.886,1.58 1.966,1.58 1.118,0 2.004,-0.732 2.004,-1.58 m 1.735,-0.038 c 0,1.849 -1.696,3.353 -3.739,3.353 -0.424,0 -0.694,0 -1.311,-0.116 0.656,1.388 1.35,2.275 2.698,3.315 l -0.886,1.464 c -2.544,-1.696 -4.24,-4.818 -4.24,-7.862 0,-1.965 1.619,-3.513 3.739,-3.513 2.119,0 3.739,1.47 3.739,3.359 m -9.251,0.886 c 0,2.004 -1.658,3.7 -3.662,3.7 -0.539,0 -0.886,-0.078 -1.696,-0.309 l 0.116,1.813 4.625,0 0,1.733 -6.321,0 -0.27,-5.665 1.736,-0.501 c 0.654,0.924 1.001,1.155 1.772,1.155 1.079,0 1.966,-0.847 1.966,-1.926 0,-1.4259 -1.233,-2.467 -2.814,-2.467 -0.81,0 -1.618,0.154 -2.082,0.386 l -0.847,-1.542 c 0.77,-0.385 1.734,-0.622 2.698,-0.622 2.774,0 4.779,1.817 4.779,4.245"
       style="fill:#000000;fill-opacity:1;fill-rule:evenodd;stroke:none"
       id="path3967" /></g></svg>