<?xml version="1.0" encoding="UTF-8" standalone="no"?>
<!-- Created with Inkscape (http://www.inkscape.org/) -->

<svg
   xmlns:dc="http://purl.org/dc/elements/1.1/"
   xmlns:cc="http://creativecommons.org/ns#"
   xmlns:rdf="http://www.w3.org/1999/02/22-rdf-syntax-ns#"
   xmlns:svg="http://www.w3.org/2000/svg"
   xmlns="http://www.w3.org/2000/svg"
   xmlns:sodipodi="http://sodipodi.sourceforge.net/DTD/sodipodi-0.dtd"
   xmlns:inkscape="http://www.inkscape.org/namespaces/inkscape"
   id="svg17624"
   version="1.1"
   inkscape:version="0.48.2 r9819"
   width="162.1875"
   height="79.609375"
   xml:space="preserve"
   sodipodi:docname="MUTCD D3-1a.svg"><metadata
     id="metadata17630"><rdf:RDF><cc:Work
         rdf:about=""><dc:format>image/svg+xml</dc:format><dc:type
           rdf:resource="http://purl.org/dc/dcmitype/StillImage" /><dc:title></dc:title></cc:Work></rdf:RDF></metadata><defs
     id="defs17628"><inkscape:perspective
       sodipodi:type="inkscape:persp3d"
       inkscape:vp_x="0 : 0.5 : 1"
       inkscape:vp_y="0 : 1000 : 0"
       inkscape:vp_z="1 : 0.5 : 1"
       inkscape:persp3d-origin="0.5 : 0.33333333 : 1"
       id="perspective17632" /><clipPath
       clipPathUnits="userSpaceOnUse"
       id="clipPath17642"><path
         d="m -2,710 501,0 0,-711 -501,0 0,711 z"
         id="path17644"
         inkscape:connector-curvature="0" /></clipPath><clipPath
       clipPathUnits="userSpaceOnUse"
       id="clipPath17648"><path
         d="m 0,708.06 498,0 0,-708 -498,0 0,708 z"
         id="path17650"
         inkscape:connector-curvature="0" /></clipPath><clipPath
       clipPathUnits="userSpaceOnUse"
       id="clipPath17798"><path
         d="m -2,710 501,0 0,-711 -501,0 0,711 z"
         id="path17800"
         inkscape:connector-curvature="0" /></clipPath><clipPath
       clipPathUnits="userSpaceOnUse"
       id="clipPath17804"><path
         d="m 0,708.06 498,0 0,-708 -498,0 0,708 z"
         id="path17806"
         inkscape:connector-curvature="0" /></clipPath><clipPath
       id="Clip0"><path
         inkscape:connector-curvature="0"
         d="m 0,0 212.597,0 0,269.292 L 0,269.292 0,0 z"
         transform="translate(0.923828,0.879883)"
         id="path7" /></clipPath><clipPath
       id="Clip0-8"><path
         inkscape:connector-curvature="0"
         d="m 0,0 170.079,0 0,113.386 L 0,113.386 0,0 z"
         transform="translate(0.0986328,0.822266)"
         id="path7-8" /></clipPath><clipPath
       id="Clip0-1"><path
         inkscape:connector-curvature="0"
         d="m 0,0 287.009,0 0,159.449 L 0,159.449 0,0 z"
         transform="translate(0.396484,0.267578)"
         id="path7-7" /></clipPath><clipPath
       id="Clip0-9"><path
         inkscape:connector-curvature="0"
         d="m 0,0 170.079,0 0,170.079 L 0,170.079 0,0 z"
         transform="translate(0.460938,0.775391)"
         id="path7-4" /></clipPath><clipPath
       id="Clip0-4"><path
         inkscape:connector-curvature="0"
         d="m 0,0 340.157,0 0,226.771 L 0,226.771 0,0 z"
         transform="translate(0.921875,0.25293)"
         id="path7-5" /></clipPath><clipPath
       id="Clip0-5"><path
         inkscape:connector-curvature="0"
         d="m 0,0 255.119,0 0,170.079 L 0,170.079 0,0 z"
         transform="translate(0.147461,0.0595703)"
         id="path7-1" /></clipPath><clipPath
       id="Clip0-0"><path
         inkscape:connector-curvature="0"
         d="m 0,0 170.079,0 0,113.386 L 0,113.386 0,0 z"
         transform="translate(0.0673828,0.207031)"
         id="path7-9" /></clipPath></defs><sodipodi:namedview
     pagecolor="#ffffff"
     bordercolor="#666666"
     borderopacity="1"
     objecttolerance="10"
     gridtolerance="10"
     guidetolerance="10"
     inkscape:pageopacity="0"
     inkscape:pageshadow="2"
     inkscape:window-width="1280"
     inkscape:window-height="1004"
     id="namedview17626"
     showgrid="false"
     inkscape:zoom="4"
     inkscape:cx="77.878184"
     inkscape:cy="1.0599283"
     inkscape:window-x="-8"
     inkscape:window-y="-8"
     inkscape:window-maximized="1"
     inkscape:current-layer="g17634"
     fit-margin-top="0"
     fit-margin-left="0"
     fit-margin-right="0"
     fit-margin-bottom="0"
     showguides="true"
     inkscape:guide-bbox="true" /><g
     id="g17634"
     inkscape:groupmode="layer"
     inkscape:label="GG1999P002"
     transform="matrix(1.25,0,0,-1.25,-3828.3203,-598.71094)"><path
       inkscape:connector-curvature="0"
       d="m 3069.312,-479.35857 116.449,0 c 3.442,0 6.25,-2.808 6.25,-6.251 l 0,-50.408 c 0,-3.44 -2.808,-6.252 -6.25,-6.252 l -116.449,0 c -3.443,0 -6.251,2.812 -6.251,6.252 l 0,50.408 c 0,3.401 2.851,6.251 6.251,6.251"
       style="fill:#ffffff;fill-opacity:1;fill-rule:nonzero;stroke:#000000;stroke-width:0.80000001;stroke-miterlimit:4;stroke-opacity:1;stroke-dasharray:none"
       id="path3241" /><path
       inkscape:connector-curvature="0"
       d="m 3185.7266,-482.03747 c 2.019,-0.045 3.551,-1.594 3.606,-3.607 l -0.01,-50.555 c -0.147,-1.901 -1.683,-3.379 -3.6,-3.388 l -116.598,0.01 c -1.9,0.126 -3.38,1.693 -3.388,3.598 l 0.01,50.556 c 0.146,1.898 1.684,3.38 3.601,3.388 l 116.38,0"
       style="fill:#00674c;fill-opacity:1;fill-rule:evenodd;stroke:none"
       id="path3265" /><path
       inkscape:connector-curvature="0"
       d="m 3076.5092,-507.61647 c -1.217,0 -2.434,0.514 -3.324,1.357 -0.281,0.28 -0.467,0.515 -0.796,1.077 l 1.92,0.889 c 0.655,-0.842 1.311,-1.17 2.2,-1.17 1.451,0 2.248,0.936 2.248,2.528 l 0,8.895 2.152,0 0,-9.317 c 0,-2.528 -1.778,-4.259 -4.4,-4.259"
       style="fill:#ffffff;fill-opacity:1;fill-rule:nonzero;stroke:none"
       id="path3269" /><path
       inkscape:connector-curvature="0"
       d="m 3091.3965,-502.46747 c 0,2.341 -0.702,5.057 -4.026,5.057 -3.371,0 -4.073,-2.904 -4.073,-5.057 0,-2.528 0.702,-5.102 4.073,-5.102 3.324,0 4.026,2.761 4.026,5.102 m -2.154,0 c 0,-0.983 -0.234,-3.184 -1.872,-3.184 -1.638,0 -1.92,2.154 -1.92,3.137 0,0.984 0.282,3.137 1.92,3.137 1.592,0 1.872,-2.153 1.872,-3.09"
       style="fill:#ffffff;fill-opacity:1;fill-rule:nonzero;stroke:none"
       id="path3273" /><path
       inkscape:connector-curvature="0"
       d="m 3099.2608,-507.38347 0,6.461 c 0,1.264 -0.843,1.545 -1.966,1.545 -0.844,-0.047 -1.639,-0.515 -1.639,-1.639 l 0,-6.367 -2.154,0 0,12.547 2.107,1.03 0,-4.167 c 2.2,1.404 5.758,0.281 5.758,-2.715 l 0,-6.695 -2.106,0 z"
       style="fill:#ffffff;fill-opacity:1;fill-rule:nonzero;stroke:none"
       id="path3277" /><path
       inkscape:connector-curvature="0"
       d="m 3109.6539,-507.38347 0,6.461 c 0,1.264 -0.844,1.545 -1.967,1.545 -0.843,-0.047 -1.638,-0.515 -1.638,-1.639 l 0,-6.367 -2.155,0 0,9.738 2.108,0 0,-0.328 c 2.2,1.404 5.758,0.281 5.758,-2.715 l 0,-6.695 -2.106,0 z"
       style="fill:#ffffff;fill-opacity:1;fill-rule:nonzero;stroke:none"
       id="path3281" /><path
       inkscape:connector-curvature="0"
       d="m 3116.3472,-507.56947 c -1.404,0 -2.247,0.608 -2.856,1.544 l 1.499,1.264 c 0.468,-0.608 1.076,-1.03 1.685,-0.843 0.889,0.235 0.983,1.077 0.28,1.826 -1.264,1.452 -3.276,2.06 -3.417,3.558 -0.094,1.311 0.608,2.388 2.014,2.716 1.123,0.28 2.527,0 3.652,-1.358 l -1.499,-1.217 c 0,0 -1.03,1.217 -1.733,0.514 -1.17,-1.123 3.98,-2.387 3.746,-5.29 -0.094,-1.451 -1.264,-2.714 -3.371,-2.714"
       style="fill:#ffffff;fill-opacity:1;fill-rule:nonzero;stroke:none"
       id="path3285" /><path
       inkscape:connector-curvature="0"
       d="m 3129.0342,-502.46747 c 0,2.341 -0.703,5.057 -4.026,5.057 -3.37,0 -4.073,-2.904 -4.073,-5.057 0,-2.528 0.703,-5.102 4.073,-5.102 3.323,0 4.026,2.761 4.026,5.102 m -2.154,0 c 0,-0.983 -0.233,-3.184 -1.872,-3.184 -1.639,0 -1.92,2.154 -1.92,3.137 0,0.984 0.281,3.137 1.92,3.137 1.592,0 1.872,-2.153 1.872,-3.09"
       style="fill:#ffffff;fill-opacity:1;fill-rule:nonzero;stroke:none"
       id="path3289" /><path
       inkscape:connector-curvature="0"
       d="m 3136.898,-507.38347 0,6.461 c 0,1.264 -0.842,1.545 -1.965,1.545 -0.843,-0.047 -1.64,-0.515 -1.64,-1.639 l 0,-6.367 -2.153,0 0,9.738 2.107,0 0,-0.328 c 2.2,1.404 5.757,0.281 5.757,-2.715 l 0,-6.695 -2.106,0 z"
       style="fill:#ffffff;fill-opacity:1;fill-rule:nonzero;stroke:none"
       id="path3293" /><path
       inkscape:connector-curvature="0"
       d="m 3155.3887,-503.68447 c 0,-1.03 -0.561,-1.545 -1.637,-1.545 l -3.185,0 0,3.652 2.669,0 c 0.469,0 0.61,0 0.891,-0.094 0.748,-0.281 1.262,-1.124 1.262,-2.013 m 2.155,0.047 c 0,1.451 -0.797,2.574 -2.2,3.23 1.262,0.702 1.872,1.685 1.872,2.997 0,1.919 -1.593,3.37 -3.699,3.37 l -5.056,0 0,-13.343 5.056,0 c 0.61,0 1.405,0.141 1.872,0.328 1.264,0.515 2.155,1.967 2.155,3.418 m -2.435,6.133 c 0,-0.609 -0.281,-1.171 -0.75,-1.545 -0.373,-0.281 -0.654,-0.375 -1.263,-0.375 l -2.529,0 0,3.277 3.091,0 c 0.936,0 1.451,-0.468 1.451,-1.357"
       style="fill:#ffffff;fill-opacity:1;fill-rule:nonzero;stroke:none"
       id="path3297" /><path
       inkscape:connector-curvature="0"
       d="m 3159.5093,-507.38347 0,12.547 2.153,1.03 0,-13.577 -2.153,0 z"
       style="fill:#ffffff;fill-opacity:1;fill-rule:nonzero;stroke:none"
       id="path3301" /><path
       inkscape:connector-curvature="0"
       d="m 3168.8716,-507.38347 -1.873,0 -3.746,9.738 2.249,0 2.434,-6.554 2.341,6.554 2.387,0 -3.792,-9.738 z"
       style="fill:#ffffff;fill-opacity:1;fill-rule:nonzero;stroke:none"
       id="path3305" /><path
       inkscape:connector-curvature="0"
       d="m 3175.8936,-502.46747 c 0.047,-1.357 0.469,-3.137 1.92,-3.184 0.748,-0.046 1.264,0.141 1.778,0.656 l 0,4.916 c -0.561,0.608 -1.03,0.702 -1.639,0.702 -1.637,-0.047 -2.106,-1.686 -2.059,-3.09 m -2.153,0 c 0.047,2.575 0.889,5.337 4.073,5.057 0.655,-0.047 1.591,-0.328 1.825,-0.563 l 0,3.137 2.107,1.03 0,-13.577 -2.107,0 0,0.281 c -0.655,-0.375 -1.123,-0.514 -1.871,-0.514 -2.951,0 -4.074,2.387 -4.027,5.149"
       style="fill:#ffffff;fill-opacity:1;fill-rule:nonzero;stroke:none"
       id="path3309" /><path
       inkscape:connector-curvature="0"
       d="m 3089.0801,-529.73847 -3.821,6.766 0,-6.766 -1.577,0 0,9.991 1.577,0 3.646,-6.38 0,6.38 1.577,0 0,-9.991 -1.402,0 z"
       style="fill:#ffffff;fill-opacity:1;fill-rule:nonzero;stroke:none"
       id="path3313" /><path
       inkscape:connector-curvature="0"
       d="m 3093.5669,-529.73847 0,9.991 5.89,0 0,-1.577 -4.312,0 0,-2.454 2.909,0 0,-1.613 -2.909,0 0,-2.734 4.628,0 0,-1.613 -6.206,0 z"
       style="fill:#ffffff;fill-opacity:1;fill-rule:nonzero;stroke:none"
       id="path3317" /><path
       inkscape:connector-curvature="0"
       d="m 3106.4678,-529.73847 -1.613,3.331 -1.612,-3.331 -1.788,0 2.489,5.153 -2.314,4.838 1.788,0 1.437,-2.98 1.437,2.98 1.788,0 -2.348,-4.838 2.524,-5.153 -1.788,0 z"
       style="fill:#ffffff;fill-opacity:1;fill-rule:nonzero;stroke:none"
       id="path3321" /><path
       inkscape:connector-curvature="0"
       d="m 3113.6192,-521.15057 0,-8.588 -1.578,0 0,8.588 -2.278,0 0,1.403 6.17,0 0,-1.403 -2.314,0 z"
       style="fill:#ffffff;fill-opacity:1;fill-rule:nonzero;stroke:none"
       id="path3325" /><path
       inkscape:connector-curvature="0"
       d="m 3128.9029,-529.14247 c -0.561,-0.491 -1.332,-0.771 -2.173,-0.771 -1.719,0 -2.979,1.016 -3.646,2.524 l 1.508,0.561 c 0.419,-0.947 1.191,-1.473 2.138,-1.473 0.911,0 1.543,0.631 1.543,1.473 0,1.332 -1.543,1.543 -2.841,2.068 -0.595,0.245 -1.926,0.842 -1.926,2.489 0,1.963 1.331,2.7 3.118,2.7 1.403,0 2.349,-0.807 2.84,-2.034 l -1.402,-0.421 c 0,0 -0.35,0.842 -1.472,0.876 -0.736,0.036 -1.613,-0.245 -1.542,-1.156 0.139,-1.858 4.836,-0.632 4.836,-4.557 0,-0.912 -0.35,-1.718 -0.981,-2.279"
       style="fill:#ffffff;fill-opacity:1;fill-rule:nonzero;stroke:none"
       id="path3329" /><path
       inkscape:connector-curvature="0"
       d="m 3132.2685,-519.74777 1.612,0 0,-9.991 -1.612,0 0,9.991 z"
       style="fill:#ffffff;fill-opacity:1;fill-rule:nonzero;stroke:none"
       id="path3331" /><path
       inkscape:connector-curvature="0"
       d="m 3140.4014,-529.91347 c -1.508,0 -2.384,0.56 -2.98,1.823 -0.42,0.876 -0.666,2.104 -0.666,3.33 0,1.612 0.455,3.19 1.123,4.066 0.595,0.737 1.436,1.123 2.557,1.123 1.544,0 2.455,-0.632 3.121,-2.209 l -1.508,-0.596 c -0.42,0.876 -0.841,1.192 -1.613,1.192 -0.806,0 -1.331,-0.351 -1.682,-1.227 -0.246,-0.596 -0.385,-1.507 -0.385,-2.349 0,-1.052 0.175,-2.103 0.491,-2.734 0.315,-0.561 0.77,-0.807 1.367,-0.807 1.015,0 1.753,0.631 1.753,1.543 l 0,0.42 -1.824,0 0,1.578 3.401,0 0,-1.998 c 0,-1.823 -1.332,-3.155 -3.155,-3.155"
       style="fill:#ffffff;fill-opacity:1;fill-rule:nonzero;stroke:none"
       id="path3335" /><path
       inkscape:connector-curvature="0"
       d="m 3151.8296,-529.73847 -3.82,6.766 0,-6.766 -1.578,0 0,9.991 1.578,0 3.645,-6.38 0,6.38 1.576,0 0,-9.991 -1.401,0 z"
       style="fill:#ffffff;fill-opacity:1;fill-rule:nonzero;stroke:none"
       id="path3339" /><path
       inkscape:connector-curvature="0"
       d="m 3163.8886,-529.73847 -3.436,9.991 -1.576,0 -3.436,-9.991 1.682,0 0.982,2.804 3.12,0 0.982,-2.804 1.682,0 z m -3.225,4.418 -1.998,0 1.017,2.803 0.981,-2.803 z"
       style="fill:#ffffff;fill-opacity:1;fill-rule:nonzero;stroke:none"
       id="path3343" /><path
       inkscape:connector-curvature="0"
       d="m 3166.0966,-529.73847 0,9.991 1.578,0 0,-8.519 4.627,0 0,-1.472 -6.205,0 z"
       style="fill:#ffffff;fill-opacity:1;fill-rule:nonzero;stroke:none"
       id="path3347" /></g></svg>