<?xml version="1.0" encoding="UTF-8" standalone="no"?>
<!-- Created with Inkscape (http://www.inkscape.org/) -->

<svg
   xmlns:dc="http://purl.org/dc/elements/1.1/"
   xmlns:cc="http://creativecommons.org/ns#"
   xmlns:rdf="http://www.w3.org/1999/02/22-rdf-syntax-ns#"
   xmlns:svg="http://www.w3.org/2000/svg"
   xmlns="http://www.w3.org/2000/svg"
   xmlns:sodipodi="http://sodipodi.sourceforge.net/DTD/sodipodi-0.dtd"
   xmlns:inkscape="http://www.inkscape.org/namespaces/inkscape"
   id="svg17624"
   version="1.1"
   inkscape:version="0.48.2 r9819"
   width="193.125"
   height="127.03125"
   xml:space="preserve"
   sodipodi:docname="MUTCD D3-2.svg"><metadata
     id="metadata17630"><rdf:RDF><cc:Work
         rdf:about=""><dc:format>image/svg+xml</dc:format><dc:type
           rdf:resource="http://purl.org/dc/dcmitype/StillImage" /><dc:title></dc:title></cc:Work></rdf:RDF></metadata><defs
     id="defs17628"><inkscape:perspective
       sodipodi:type="inkscape:persp3d"
       inkscape:vp_x="0 : 0.5 : 1"
       inkscape:vp_y="0 : 1000 : 0"
       inkscape:vp_z="1 : 0.5 : 1"
       inkscape:persp3d-origin="0.5 : 0.33333333 : 1"
       id="perspective17632" /><clipPath
       clipPathUnits="userSpaceOnUse"
       id="clipPath17642"><path
         d="m -2,710 501,0 0,-711 -501,0 0,711 z"
         id="path17644"
         inkscape:connector-curvature="0" /></clipPath><clipPath
       clipPathUnits="userSpaceOnUse"
       id="clipPath17648"><path
         d="m 0,708.06 498,0 0,-708 -498,0 0,708 z"
         id="path17650"
         inkscape:connector-curvature="0" /></clipPath><clipPath
       clipPathUnits="userSpaceOnUse"
       id="clipPath17798"><path
         d="m -2,710 501,0 0,-711 -501,0 0,711 z"
         id="path17800"
         inkscape:connector-curvature="0" /></clipPath><clipPath
       clipPathUnits="userSpaceOnUse"
       id="clipPath17804"><path
         d="m 0,708.06 498,0 0,-708 -498,0 0,708 z"
         id="path17806"
         inkscape:connector-curvature="0" /></clipPath><clipPath
       id="Clip0"><path
         inkscape:connector-curvature="0"
         d="m 0,0 212.597,0 0,269.292 L 0,269.292 0,0 z"
         transform="translate(0.923828,0.879883)"
         id="path7" /></clipPath><clipPath
       id="Clip0-8"><path
         inkscape:connector-curvature="0"
         d="m 0,0 170.079,0 0,113.386 L 0,113.386 0,0 z"
         transform="translate(0.0986328,0.822266)"
         id="path7-8" /></clipPath><clipPath
       id="Clip0-1"><path
         inkscape:connector-curvature="0"
         d="m 0,0 287.009,0 0,159.449 L 0,159.449 0,0 z"
         transform="translate(0.396484,0.267578)"
         id="path7-7" /></clipPath><clipPath
       id="Clip0-9"><path
         inkscape:connector-curvature="0"
         d="m 0,0 170.079,0 0,170.079 L 0,170.079 0,0 z"
         transform="translate(0.460938,0.775391)"
         id="path7-4" /></clipPath><clipPath
       id="Clip0-4"><path
         inkscape:connector-curvature="0"
         d="m 0,0 340.157,0 0,226.771 L 0,226.771 0,0 z"
         transform="translate(0.921875,0.25293)"
         id="path7-5" /></clipPath><clipPath
       id="Clip0-5"><path
         inkscape:connector-curvature="0"
         d="m 0,0 255.119,0 0,170.079 L 0,170.079 0,0 z"
         transform="translate(0.147461,0.0595703)"
         id="path7-1" /></clipPath><clipPath
       id="Clip0-0"><path
         inkscape:connector-curvature="0"
         d="m 0,0 170.079,0 0,113.386 L 0,113.386 0,0 z"
         transform="translate(0.0673828,0.207031)"
         id="path7-9" /></clipPath></defs><sodipodi:namedview
     pagecolor="#ffffff"
     bordercolor="#666666"
     borderopacity="1"
     objecttolerance="10"
     gridtolerance="10"
     guidetolerance="10"
     inkscape:pageopacity="0"
     inkscape:pageshadow="2"
     inkscape:window-width="1280"
     inkscape:window-height="1004"
     id="namedview17626"
     showgrid="false"
     inkscape:zoom="2.8284271"
     inkscape:cx="99.076361"
     inkscape:cy="15.568671"
     inkscape:window-x="-8"
     inkscape:window-y="-8"
     inkscape:window-maximized="1"
     inkscape:current-layer="g17634"
     fit-margin-top="0"
     fit-margin-left="0"
     fit-margin-right="0"
     fit-margin-bottom="0"
     showguides="true"
     inkscape:guide-bbox="true" /><g
     id="g17634"
     inkscape:groupmode="layer"
     inkscape:label="GG1999P002"
     transform="matrix(1.25,0,0,-1.25,-3867.3438,156.25)"><path
       inkscape:connector-curvature="0"
       d="m 3100.5312,124.61215 141.182,0 c 3.442,0 6.25,-2.808 6.25,-6.251 l 0,-88.349 c 0,-3.44 -2.808,-6.252 -6.25,-6.252 l -141.182,0 c -3.444,0 -6.252,2.812 -6.252,6.252 l 0,88.349 c 0,3.401 2.851,6.251 6.252,6.251"
       style="fill:#ffffff;fill-opacity:1;fill-rule:nonzero;stroke:#000000;stroke-width:0.80000001;stroke-miterlimit:4;stroke-opacity:1;stroke-dasharray:none"
       id="path3581" /><path
       inkscape:connector-curvature="0"
       d="m 3241.6782,121.93245 c 2.019,-0.045 3.552,-1.594 3.607,-3.606 l -0.01,-88.497 c -0.146,-1.9 -1.683,-3.378 -3.6,-3.387 l -141.331,0.008 c -1.9,0.126 -3.38,1.693 -3.388,3.598 l 0.01,88.496 c 0.145,1.899 1.684,3.38 3.601,3.388 l 141.113,0"
       style="fill:#00674c;fill-opacity:1;fill-rule:evenodd;stroke:none"
       id="path3605" /><path
       inkscape:connector-curvature="0"
       d="m 3107.5493,83.95005 127.0759,0"
       style="fill:none;stroke:#ffffff;stroke-width:3;stroke-linecap:butt;stroke-linejoin:miter;stroke-miterlimit:4;stroke-opacity:1;stroke-dasharray:none"
       id="path3609" /><path
       inkscape:connector-curvature="0"
       d="m 3126.7891,109.20885 c -2.188,2.15 -5.853,2.087 -8.531,2.044 l -0.168,-0.003 0,0.355 0.798,2.502 c 0,0 0.1589,0.491 -0.211,0.843 -0.4561,0.422 -0.982,0.177 -0.982,0.177 l -8.174,-5.599 8.069,-5.56 c 0,0 0.615,-0.385 1.087,0.107 0.385,0.403 0.211,0.893 0.211,0.893 l -0.79,2.452 0,0.23 0.222,9.6e-4 c 1.924,0.032 4.8319,0.081 5.944,-1.011 0.233,-0.228 0.545,-0.648 0.545,-1.629 0,-0.595 -0.903,-1.794 -1.6281,-2.758 -1.2709,-1.691 -2.712,-3.605 -2.712,-5.88 l 0,-1.852 3.6011,0 0,1.852 c 0,1.07 1.058,2.475 1.99,3.716 1.155,1.534 2.35,3.123 2.35,4.922 0,1.726 -0.5461,3.14 -1.621,4.198"
       style="fill:#ffffff;fill-opacity:1;fill-rule:nonzero;stroke:none"
       id="path3613" /><path
       inkscape:connector-curvature="0"
       d="m 3150.7938,100.96035 c -0.809,-1.933 -2.219,-2.898 -4.228,-2.898 -1.734,0 -3.015,0.77 -3.841,2.309 -0.65,1.193 -0.975,2.691 -0.975,4.497 0,1.816 0.32,3.314 0.961,4.498 0.836,1.539 2.121,2.308 3.855,2.308 1.957,0 3.374,-0.939 4.254,-2.816 l -2.012,-0.828 c -0.401,1.005 -1.147,1.507 -2.241,1.507 -0.923,0 -1.617,-0.468 -2.079,-1.4 -0.4,-0.8 -0.6,-1.891 -0.6,-3.269 0,-1.378 0.2,-2.467 0.6,-3.267 0.454,-0.934 1.147,-1.402 2.079,-1.402 1.023,0 1.779,0.516 2.267,1.549 l 1.96,-0.788 z"
       style="fill:#ffffff;fill-opacity:1;fill-rule:nonzero;stroke:none"
       id="path3617" /><path
       inkscape:connector-curvature="0"
       d="m 3158.7012,104.07455 c 0,0.587 -0.149,1.067 -0.447,1.44 -0.298,0.374 -0.705,0.56 -1.221,0.56 -0.49,0 -0.908,-0.197 -1.2551,-0.594 -0.3469,-0.395 -0.5429,-0.864 -0.587,-1.406 l 3.5101,0 z m 1.853,-3.875 c -0.2761,-0.642 -0.7111,-1.153 -1.308,-1.536 -0.6311,-0.402 -1.369,-0.602 -2.214,-0.602 -1.28,0 -2.2779,0.436 -2.994,1.308 -0.717,0.874 -1.074,2.106 -1.074,3.699 0,1.415 0.2939,2.559 0.8809,3.431 0.7021,1.05 1.7651,1.575 3.19,1.575 2.5351,0 3.8051,-1.667 3.8051,-5 0,-0.497 -0.01,-0.831 -0.028,-1 l -5.6211,0 c 0.08,-0.581 0.2721,-1.05 0.574,-1.408 0.337,-0.403 0.7601,-0.605 1.2671,-0.605 0.8089,0 1.374,0.465 1.694,1.393 l 1.828,-1.255 z"
       style="fill:#ffffff;fill-opacity:1;fill-rule:nonzero;stroke:none"
       id="path3621" /><path
       inkscape:connector-curvature="0"
       d="m 3170.5674,98.19955 -2.138,0 0,6.273 c 0,0.552 -0.199,0.971 -0.5991,1.255 -0.3299,0.231 -0.7329,0.347 -1.2139,0.347 -0.461,0 -0.859,-0.12 -1.187,-0.359 -0.399,-0.294 -0.5991,-0.708 -0.5991,-1.243 l 0,-6.273 -2.1379,0 0,9.737 2.1379,0 0,-0.385 c 0.5951,0.348 1.3201,0.523 2.174,0.523 0.9431,0 1.752,-0.263 2.4291,-0.788 0.7559,-0.587 1.134,-1.392 1.134,-2.415 l 0,-6.672 z"
       style="fill:#ffffff;fill-opacity:1;fill-rule:nonzero;stroke:none"
       id="path3625" /><path
       inkscape:connector-curvature="0"
       d="m 3177.2343,100.33385 -0.1879,-1.831 c -0.541,-0.294 -1.093,-0.441 -1.652,-0.441 -1.299,0 -1.947,0.713 -1.947,2.138 l 0,5.875 -1.5501,0 0,1.862 1.5501,0 0,2.591 2.138,1.147 0,-3.738 1.6489,0 0,-1.862 -1.6489,0 0,-5.455 c 0,-0.464 0.185,-0.695 0.557,-0.695 0.357,0 0.7189,0.136 1.0919,0.409"
       style="fill:#ffffff;fill-opacity:1;fill-rule:nonzero;stroke:none"
       id="path3629" /><path
       inkscape:connector-curvature="0"
       d="m 3178.5858,107.93685 2.137,0 0,-6.273 c 0,-0.552 0.204,-0.969 0.613,-1.255 0.32,-0.231 0.721,-0.347 1.2,-0.347 0.463,0 0.859,0.121 1.188,0.361 0.4,0.294 0.6,0.708 0.6,1.241 l 0,6.273 2.137,0 0,-9.737 -2.137,0 0,0.387 c -0.597,-0.35 -1.322,-0.525 -2.175,-0.525 -0.944,0 -1.753,0.258 -2.428,0.775 -0.756,0.596 -1.135,1.405 -1.135,2.428 l 0,6.672 z"
       style="fill:#ffffff;fill-opacity:1;fill-rule:nonzero;stroke:none"
       id="path3633" /><path
       inkscape:connector-curvature="0"
       d="m 3194.1712,107.67465 -0.32,-2.138 c 0,0.044 -0.12,0.14 -0.359,0.282 -0.284,0.171 -0.564,0.256 -0.84,0.256 -0.941,0 -1.413,-0.53 -1.413,-1.588 l 0,-6.287 -2.138,0 0,9.737 2.138,0 0,-0.626 c 0.393,0.509 0.964,0.764 1.719,0.764 0.231,0 0.636,-0.133 1.213,-0.4"
       style="fill:#ffffff;fill-opacity:1;fill-rule:nonzero;stroke:none"
       id="path3637" /><path
       inkscape:connector-curvature="0"
       d="m 3204.7152,107.93685 -5.524,-13.625 -2.294,0.014 1.654,4.11 -3.841,9.501 2.294,0 2.707,-6.668 2.708,6.668 2.296,0 z"
       style="fill:#ffffff;fill-opacity:1;fill-rule:nonzero;stroke:none"
       id="path3641" /><path
       inkscape:connector-curvature="0"
       d="m 3222.8592,104.86855 c 0,1.972 -0.378,3.301 -1.133,3.984 -0.399,0.366 -0.987,0.547 -1.76,0.547 l -1.907,0 0,-9.062 1.854,0 c 0.782,0 1.378,0.182 1.787,0.547 0.773,0.684 1.159,2.012 1.159,3.984 m 2.138,0 c 0,-2.828 -0.742,-4.775 -2.228,-5.842 -0.775,-0.551 -1.726,-0.827 -2.856,-0.827 l -3.991,0 0,13.337 3.991,0 c 1.13,0 2.081,-0.279 2.856,-0.84 1.486,-1.058 2.228,-3 2.228,-5.828"
       style="fill:#ffffff;fill-opacity:1;fill-rule:nonzero;stroke:none"
       id="path3645" /><path
       inkscape:connector-curvature="0"
       d="m 3232.7202,107.67465 -0.318,-2.138 c 0,0.044 -0.121,0.14 -0.361,0.282 -0.284,0.171 -0.565,0.256 -0.839,0.256 -0.943,0 -1.413,-0.53 -1.413,-1.588 l 0,-6.287 -2.137,0 0,9.737 2.137,0 0,-0.626 c 0.39,0.509 0.965,0.764 1.719,0.764 0.231,0 0.636,-0.133 1.212,-0.4"
       style="fill:#ffffff;fill-opacity:1;fill-rule:nonzero;stroke:none"
       id="path3649" /><path
       inkscape:connector-curvature="0"
       d="m 3206.4212,69.68905 -0.907,2.815 c 0,0 -0.203,0.563 0.24,1.027 0.543,0.562 1.25,0.12 1.25,0.12 l 9.265,-6.383 -9.387,-6.428 c 0,0 -0.605,-0.281 -1.128,0.203 -0.422,0.402 -0.24,0.968 -0.24,0.968 l 0.915,2.873 -9.37,0 0,4.809 9.362,-0.004 z"
       style="fill:#ffffff;fill-opacity:1;fill-rule:nonzero;stroke:none"
       id="path3653" /><path
       inkscape:connector-curvature="0"
       d="m 3129.3105,60.88595 -2.1379,0 0,10.799 -1.2,0 0,1.75 c 0.3199,0 0.63,0.076 0.929,0.227 0.298,0.152 0.5,0.337 0.6061,0.561 l 1.8029,0 0,-13.337 z"
       style="fill:#ffffff;fill-opacity:1;fill-rule:nonzero;stroke:none"
       id="path3657" /><path
       inkscape:connector-curvature="0"
       d="m 3137.9551,66.36105 0,4.782 -3.604,-4.782 3.604,0 z m 3.491,-2.1 -1.329,0 0,-3.338 -2.162,0 0,3.338 -6.5131,0 0,1.399 6.46,8.601 2.2151,0 0,-7.863 1.329,0 0,-2.137 z"
       style="fill:#ffffff;fill-opacity:1;fill-rule:nonzero;stroke:none"
       id="path3661" /><path
       inkscape:connector-curvature="0"
       d="m 3147.9727,63.02005 -0.188,-1.831 c -0.542,-0.294 -1.093,-0.441 -1.654,-0.441 -1.298,0 -1.946,0.711 -1.946,2.136 l 0,5.877 -1.55,0 0,1.862 1.55,0 0,2.589 2.138,1.149 0,-3.738 1.65,0 0,-1.862 -1.65,0 0,-5.455 c 0,-0.464 0.185,-0.695 0.558,-0.695 0.355,0 0.719,0.135 1.092,0.409"
       style="fill:#ffffff;fill-opacity:1;fill-rule:nonzero;stroke:none"
       id="path3665" /><path
       inkscape:connector-curvature="0"
       d="m 3157.3125,60.88595 -2.138,0 0,6.273 c 0,0.551 -0.1999,0.969 -0.6,1.254 -0.328,0.232 -0.734,0.348 -1.213,0.348 -0.463,0 -0.858,-0.121 -1.187,-0.361 -0.4,-0.294 -0.6,-0.708 -0.6,-1.241 l 0,-6.273 -2.137,0 0,12.326 2.137,1.149 0,-4.125 c 0.595,0.349 1.3201,0.525 2.1751,0.525 0.942,0 1.752,-0.263 2.4279,-0.788 0.756,-0.587 1.1351,-1.392 1.1351,-2.416 l 0,-6.671 z"
       style="fill:#ffffff;fill-opacity:1;fill-rule:nonzero;stroke:none"
       id="path3669" /><path
       inkscape:connector-curvature="0"
       d="m 3177.5908,64.84305 c 0,-1.2 -0.433,-2.183 -1.295,-2.948 -0.8621,-0.766 -1.9271,-1.147 -3.189,-1.147 -1.602,0 -2.8471,0.578 -3.7381,1.736 -0.3729,0.48 -0.658,1.059 -0.8529,1.736 l 1.973,0.627 c 0.3669,-1.309 1.246,-1.961 2.643,-1.961 0.595,0 1.12,0.173 1.575,0.52 0.496,0.381 0.746,0.862 0.746,1.441 0,0.756 -0.565,1.355 -1.695,1.801 -1.048,0.409 -2.098,0.819 -3.1481,1.226 -1.129,0.66 -1.694,1.621 -1.694,2.883 0,1.077 0.3111,1.927 0.933,2.549 0.7131,0.703 1.7831,1.055 3.2161,1.055 1.8669,0 3.209,-0.901 4.028,-2.698 l -1.986,-0.628 c -0.3831,0.792 -1.058,1.188 -2.027,1.188 -1.351,0 -2.026,-0.489 -2.026,-1.469 0,-0.631 0.5629,-1.137 1.6931,-1.52 1.771,-0.605 2.8209,-1.01 3.1489,-1.214 1.1301,-0.713 1.6951,-1.771 1.6951,-3.177"
       style="fill:#ffffff;fill-opacity:1;fill-rule:nonzero;stroke:none"
       id="path3673" /><path
       inkscape:connector-curvature="0"
       d="m 3183.7206,63.02005 -0.188,-1.831 c -0.543,-0.294 -1.095,-0.441 -1.654,-0.441 -1.299,0 -1.947,0.711 -1.947,2.136 l 0,5.877 -1.55,0 0,1.862 1.55,0 0,2.589 2.138,1.149 0,-3.738 1.651,0 0,-1.862 -1.651,0 0,-5.455 c 0,-0.464 0.185,-0.695 0.559,-0.695 0.355,0 0.719,0.135 1.092,0.409"
       style="fill:#ffffff;fill-opacity:1;fill-rule:nonzero;stroke:none"
       id="path3677" /><path
       inkscape:connector-curvature="0"
       d="m 3115.5009,37.57005 -1.529,0 -3.6489,6.625 0,-6.625 -1.6011,0 0,9.992 1.5481,0 3.629,-6.584 0,6.584 1.6019,0 0,-9.992 z"
       style="fill:#ffffff;fill-opacity:1;fill-rule:nonzero;stroke:none"
       id="path3681" /><path
       inkscape:connector-curvature="0"
       d="m 3124.1016,37.57005 -6.1951,0 0,9.992 5.9951,0 0,-1.602 -4.395,0 0,-2.396 3.035,0 0,-1.602 -3.035,0 0,-2.791 4.595,0 0,-1.601 z"
       style="fill:#ffffff;fill-opacity:1;fill-rule:nonzero;stroke:none"
       id="path3685" /><path
       inkscape:connector-curvature="0"
       d="m 3131.8916,37.57005 -1.798,0 -1.5981,3.317 -1.6,-3.317 -1.7979,0 2.498,5.195 -2.299,4.797 1.799,0 1.3999,-2.917 1.4081,2.917 1.7891,0 -2.298,-4.797 2.497,-5.195 z"
       style="fill:#ffffff;fill-opacity:1;fill-rule:nonzero;stroke:none"
       id="path3689" /><path
       inkscape:connector-curvature="0"
       d="m 3138.8905,45.96005 -2.301,0 0,-8.39 -1.6009,0 0,8.39 -2.293,0 0,1.602 6.1949,0 0,-1.602 z"
       style="fill:#ffffff;fill-opacity:1;fill-rule:nonzero;stroke:none"
       id="path3693" /><path
       inkscape:connector-curvature="0"
       d="m 3152.4492,44.78305 c 0,0.332 -0.11,0.612 -0.3341,0.838 -0.2219,0.227 -0.5,0.339 -0.8329,0.339 l -2.2979,0 0,-2.396 2.2979,0 c 0.3329,0 0.611,0.118 0.8329,0.354 0.2241,0.236 0.3341,0.525 0.3341,0.865 m 1.7309,-7.213 -1.6879,0 -1.6091,4.392 -1.8989,0 0,-4.392 -1.6,0 0,9.992 3.889,0 c 0.766,0 1.42,-0.272 1.964,-0.814 0.542,-0.544 0.814,-1.198 0.814,-1.964 0,-1.119 -0.53,-1.958 -1.5901,-2.517 l 1.719,-4.697 z"
       style="fill:#ffffff;fill-opacity:1;fill-rule:nonzero;stroke:none"
       id="path3697" /><path
       inkscape:connector-curvature="0"
       d="m 3161.168,42.56705 c 0,1.017 -0.1491,1.834 -0.4481,2.446 -0.3409,0.701 -0.8389,1.051 -1.498,1.051 -0.667,0 -1.1659,-0.35 -1.4989,-1.051 -0.3001,-0.605 -0.45,-1.421 -0.45,-2.446 0,-1.021 0.1499,-1.836 0.45,-2.45 0.34,-0.699 0.84,-1.049 1.4989,-1.049 0.6591,0 1.1571,0.35 1.498,1.049 0.299,0.614 0.4481,1.429 0.4481,2.45 m 1.602,0 c 0,-1.349 -0.2401,-2.47 -0.721,-3.37 -0.618,-1.154 -1.562,-1.73 -2.8271,-1.73 -1.2739,0 -2.2179,0.576 -2.83,1.73 -0.48,0.893 -0.7199,2.017 -0.7199,3.37 0,1.353 0.2399,2.475 0.7199,3.368 0.6121,1.154 1.5561,1.73 2.83,1.73 1.2651,0 2.2091,-0.576 2.8271,-1.73 0.4809,-0.9 0.721,-2.023 0.721,-3.368"
       style="fill:#ffffff;fill-opacity:1;fill-rule:nonzero;stroke:none"
       id="path3701" /><path
       inkscape:connector-curvature="0"
       d="m 3171.7694,40.79505 c 0,-0.853 -0.309,-1.61 -0.93,-2.269 -0.668,-0.706 -1.491,-1.059 -2.47,-1.059 -0.987,0 -1.81,0.35 -2.469,1.05 -0.62,0.653 -0.93,1.412 -0.93,2.278 l 0,6.767 1.602,0 0,-6.766 c 0,-0.486 0.177,-0.895 0.528,-1.229 0.353,-0.331 0.776,-0.499 1.269,-0.499 0.5,0 0.924,0.168 1.273,0.499 0.35,0.334 0.525,0.743 0.525,1.229 l 0,6.766 1.602,0 0,-6.767 z"
       style="fill:#ffffff;fill-opacity:1;fill-rule:nonzero;stroke:none"
       id="path3705" /><path
       inkscape:connector-curvature="0"
       d="m 3180.953,37.57005 -1.529,0 -3.649,6.625 0,-6.625 -1.601,0 0,9.992 1.549,0 3.628,-6.584 0,6.584 1.602,0 0,-9.992 z"
       style="fill:#ffffff;fill-opacity:1;fill-rule:nonzero;stroke:none"
       id="path3709" /><path
       inkscape:connector-curvature="0"
       d="m 3188.5546,42.56705 c 0,1.476 -0.282,2.471 -0.848,2.984 -0.3,0.274 -0.741,0.409 -1.319,0.409 l -1.428,0 0,-6.789 1.388,0 c 0.586,0 1.032,0.136 1.339,0.41 0.579,0.512 0.868,1.508 0.868,2.986 m 1.602,0 c 0,-2.119 -0.556,-3.578 -1.67,-4.377 -0.58,-0.414 -1.292,-0.62 -2.139,-0.62 l -2.989,0 0,9.992 2.989,0 c 0.847,0 1.559,-0.211 2.139,-0.63 1.114,-0.792 1.67,-2.248 1.67,-4.365"
       style="fill:#ffffff;fill-opacity:1;fill-rule:nonzero;stroke:none"
       id="path3713" /><path
       inkscape:connector-curvature="0"
       d="m 3196.7492,41.97205 -1.049,3.043 -1.039,-3.043 2.088,0 z m 3.198,-4.402 -1.689,0 -0.959,2.8 -3.208,0 -0.939,-2.8 -1.699,0 3.436,9.992 1.619,0 3.439,-9.992 z"
       style="fill:#ffffff;fill-opacity:1;fill-rule:nonzero;stroke:none"
       id="path3717" /><path
       inkscape:connector-curvature="0"
       d="m 3206.6422,40.56705 c 0,0.432 -0.15,0.778 -0.45,1.036 -0.273,0.239 -0.589,0.359 -0.948,0.359 l -2.198,0 0,-2.791 2.198,0 c 0.932,0 1.398,0.466 1.398,1.396 m -0.206,4.216 c 0,0.412 -0.147,0.721 -0.439,0.927 -0.233,0.168 -0.5189,0.25 -0.8569,0.25 l -2.0941,0 0,-2.396 2.2131,0 c 0.266,0 0.511,0.086 0.7379,0.259 0.292,0.233 0.439,0.553 0.439,0.96 m -4.991,-2.296 0,0.009 0,-0.009 0,-0.011 0,0.011 z m 6.799,-1.92 c 0,-0.852 -0.284,-1.564 -0.85,-2.138 -0.567,-0.573 -1.2829,-0.859 -2.15,-0.859 l -3.799,0 0,9.992 3.734,0 c 0.82,0 1.5,-0.262 2.044,-0.784 0.542,-0.524 0.815,-1.188 0.815,-1.994 0,-0.874 -0.413,-1.545 -1.237,-2.019 0.961,-0.418 1.443,-1.151 1.443,-2.198"
       style="fill:#ffffff;fill-opacity:1;fill-rule:nonzero;stroke:none"
       id="path3721" /><path
       inkscape:connector-curvature="0"
       d="m 3215.2302,42.56705 c 0,1.017 -0.15,1.834 -0.45,2.446 -0.3409,0.701 -0.839,1.051 -1.4989,1.051 -0.665,0 -1.165,-0.35 -1.498,-1.051 -0.3001,-0.605 -0.448,-1.421 -0.448,-2.446 0,-1.021 0.148,-1.836 0.448,-2.45 0.3409,-0.699 0.8389,-1.049 1.498,-1.049 0.6599,0 1.158,0.35 1.4989,1.049 0.3001,0.614 0.45,1.429 0.45,2.45 m 1.602,0 c 0,-1.349 -0.241,-2.47 -0.721,-3.37 -0.62,-1.154 -1.564,-1.73 -2.83,-1.73 -1.273,0 -2.215,0.576 -2.828,1.73 -0.481,0.893 -0.72,2.017 -0.72,3.37 0,1.353 0.239,2.475 0.72,3.368 0.613,1.154 1.555,1.73 2.828,1.73 1.266,0 2.21,-0.576 2.83,-1.73 0.48,-0.9 0.721,-2.023 0.721,-3.368"
       style="fill:#ffffff;fill-opacity:1;fill-rule:nonzero;stroke:none"
       id="path3725" /><path
       inkscape:connector-curvature="0"
       d="m 3225.8282,40.79505 c 0,-0.853 -0.309,-1.61 -0.93,-2.269 -0.665,-0.706 -1.487,-1.059 -2.467,-1.059 -0.987,0 -1.809,0.35 -2.47,1.05 -0.619,0.653 -0.9299,1.412 -0.9299,2.278 l 0,6.767 1.6019,0 0,-6.766 c 0,-0.486 0.176,-0.895 0.5301,-1.229 0.352,-0.331 0.774,-0.499 1.268,-0.499 0.498,0 0.924,0.168 1.274,0.499 0.348,0.334 0.523,0.743 0.523,1.229 l 0,6.766 1.6,0 0,-6.767 z"
       style="fill:#ffffff;fill-opacity:1;fill-rule:nonzero;stroke:none"
       id="path3729" /><path
       inkscape:connector-curvature="0"
       d="m 3233.5202,45.96005 -2.3,0 0,-8.39 -1.601,0 0,8.39 -2.294,0 0,1.602 6.195,0 0,-1.602 z"
       style="fill:#ffffff;fill-opacity:1;fill-rule:nonzero;stroke:none"
       id="path3733" /></g></svg>