<?xml version="1.0" encoding="UTF-8" standalone="no"?>
<!-- Created with Inkscape (http://www.inkscape.org/) -->

<svg
   xmlns:dc="http://purl.org/dc/elements/1.1/"
   xmlns:cc="http://creativecommons.org/ns#"
   xmlns:rdf="http://www.w3.org/1999/02/22-rdf-syntax-ns#"
   xmlns:svg="http://www.w3.org/2000/svg"
   xmlns="http://www.w3.org/2000/svg"
   xmlns:sodipodi="http://sodipodi.sourceforge.net/DTD/sodipodi-0.dtd"
   xmlns:inkscape="http://www.inkscape.org/namespaces/inkscape"
   id="svg17624"
   version="1.1"
   inkscape:version="0.48.2 r9819"
   width="194.21875"
   height="149.96094"
   xml:space="preserve"
   sodipodi:docname="MUTCD D3-2a.svg"><metadata
     id="metadata17630"><rdf:RDF><cc:Work
         rdf:about=""><dc:format>image/svg+xml</dc:format><dc:type
           rdf:resource="http://purl.org/dc/dcmitype/StillImage" /><dc:title></dc:title></cc:Work></rdf:RDF></metadata><defs
     id="defs17628"><inkscape:perspective
       sodipodi:type="inkscape:persp3d"
       inkscape:vp_x="0 : 0.5 : 1"
       inkscape:vp_y="0 : 1000 : 0"
       inkscape:vp_z="1 : 0.5 : 1"
       inkscape:persp3d-origin="0.5 : 0.33333333 : 1"
       id="perspective17632" /><clipPath
       clipPathUnits="userSpaceOnUse"
       id="clipPath17642"><path
         d="m -2,710 501,0 0,-711 -501,0 0,711 z"
         id="path17644"
         inkscape:connector-curvature="0" /></clipPath><clipPath
       clipPathUnits="userSpaceOnUse"
       id="clipPath17648"><path
         d="m 0,708.06 498,0 0,-708 -498,0 0,708 z"
         id="path17650"
         inkscape:connector-curvature="0" /></clipPath><clipPath
       clipPathUnits="userSpaceOnUse"
       id="clipPath17798"><path
         d="m -2,710 501,0 0,-711 -501,0 0,711 z"
         id="path17800"
         inkscape:connector-curvature="0" /></clipPath><clipPath
       clipPathUnits="userSpaceOnUse"
       id="clipPath17804"><path
         d="m 0,708.06 498,0 0,-708 -498,0 0,708 z"
         id="path17806"
         inkscape:connector-curvature="0" /></clipPath><clipPath
       id="Clip0"><path
         inkscape:connector-curvature="0"
         d="m 0,0 212.597,0 0,269.292 L 0,269.292 0,0 z"
         transform="translate(0.923828,0.879883)"
         id="path7" /></clipPath><clipPath
       id="Clip0-8"><path
         inkscape:connector-curvature="0"
         d="m 0,0 170.079,0 0,113.386 L 0,113.386 0,0 z"
         transform="translate(0.0986328,0.822266)"
         id="path7-8" /></clipPath><clipPath
       id="Clip0-1"><path
         inkscape:connector-curvature="0"
         d="m 0,0 287.009,0 0,159.449 L 0,159.449 0,0 z"
         transform="translate(0.396484,0.267578)"
         id="path7-7" /></clipPath><clipPath
       id="Clip0-9"><path
         inkscape:connector-curvature="0"
         d="m 0,0 170.079,0 0,170.079 L 0,170.079 0,0 z"
         transform="translate(0.460938,0.775391)"
         id="path7-4" /></clipPath><clipPath
       id="Clip0-4"><path
         inkscape:connector-curvature="0"
         d="m 0,0 340.157,0 0,226.771 L 0,226.771 0,0 z"
         transform="translate(0.921875,0.25293)"
         id="path7-5" /></clipPath><clipPath
       id="Clip0-5"><path
         inkscape:connector-curvature="0"
         d="m 0,0 255.119,0 0,170.079 L 0,170.079 0,0 z"
         transform="translate(0.147461,0.0595703)"
         id="path7-1" /></clipPath><clipPath
       id="Clip0-0"><path
         inkscape:connector-curvature="0"
         d="m 0,0 170.079,0 0,113.386 L 0,113.386 0,0 z"
         transform="translate(0.0673828,0.207031)"
         id="path7-9" /></clipPath></defs><sodipodi:namedview
     pagecolor="#ffffff"
     bordercolor="#666666"
     borderopacity="1"
     objecttolerance="10"
     gridtolerance="10"
     guidetolerance="10"
     inkscape:pageopacity="0"
     inkscape:pageshadow="2"
     inkscape:window-width="1280"
     inkscape:window-height="1004"
     id="namedview17626"
     showgrid="false"
     inkscape:zoom="2"
     inkscape:cx="70.581324"
     inkscape:cy="16.002254"
     inkscape:window-x="-8"
     inkscape:window-y="-8"
     inkscape:window-maximized="1"
     inkscape:current-layer="g17634"
     fit-margin-top="0"
     fit-margin-left="0"
     fit-margin-right="0"
     fit-margin-bottom="0"
     showguides="true"
     inkscape:guide-bbox="true" /><g
     id="g17634"
     inkscape:groupmode="layer"
     inkscape:label="GG1999P002"
     transform="matrix(1.25,0,0,-1.25,-4125.1953,863.78906)"><path
       inkscape:connector-curvature="0"
       d="m 3306.8181,690.6434 142.049,0 c 3.442,0 6.25,-2.808 6.25,-6.25 l 0,-106.691 c 0,-3.441 -2.808,-6.251 -6.25,-6.251 l -142.049,0 c -3.443,0 -6.252,2.81 -6.252,6.251 l 0,106.691 c 0,3.4 2.852,6.25 6.252,6.25"
       style="fill:#ffffff;fill-opacity:1;fill-rule:nonzero;stroke:#000000;stroke-width:0.80000001;stroke-linecap:butt;stroke-linejoin:miter;stroke-miterlimit:4;stroke-opacity:1;stroke-dasharray:none"
       id="path3351" /><path
       inkscape:connector-curvature="0"
       d="m 3448.8321,687.9652 c 2.02,-0.045 3.553,-1.595 3.607,-3.608 l -0.01,-106.838 c -0.147,-1.9 -1.682,-3.378 -3.6,-3.388 l -142.197,0.008 c -1.901,0.127 -3.38,1.694 -3.389,3.599 l 0.01,106.838 c 0.145,1.898 1.685,3.381 3.601,3.389 l 141.98,0"
       style="fill:#00674c;fill-opacity:1;fill-rule:evenodd;stroke:none"
       id="path3355" /><g
       id="g3357"
       transform="translate(3320.1661,665.2806)"><path
         inkscape:connector-curvature="0"
         d="m 0,0 c -0.748,-0.655 -1.778,-1.03 -2.902,-1.03 -2.294,0 -3.979,1.358 -4.87,3.372 l 2.014,0.749 c 0.562,-1.264 1.592,-1.966 2.856,-1.966 1.217,0 2.06,0.842 2.06,1.966 0,1.78 -2.06,2.059 -3.793,2.762 -0.795,0.327 -2.574,1.124 -2.574,3.324 0,2.621 1.779,3.604 4.166,3.604 1.873,0 3.137,-1.076 3.793,-2.715 L -1.123,9.505 c 0,0 -0.469,1.123 -1.967,1.17 C -4.072,10.722 -5.243,10.347 -5.149,9.13 -4.962,6.648 1.311,8.288 1.311,3.044 1.311,1.827 0.843,0.75 0,0"
         style="fill:#ffffff;fill-opacity:1;fill-rule:nonzero;stroke:none"
         id="path3359" /></g><g
       id="g3361"
       transform="translate(3329.2011,664.4852)"><path
         inkscape:connector-curvature="0"
         d="M 0,0 0,6.461 C 0,7.725 -0.842,8.006 -1.967,8.006 -2.808,7.96 -3.605,7.491 -3.605,6.367 l 0,-6.367 -2.153,0 0,12.547 2.106,1.03 0,-4.167 c 2.201,1.405 5.76,0.281 5.76,-2.715 L 2.108,0 0,0 z"
         style="fill:#ffffff;fill-opacity:1;fill-rule:nonzero;stroke:none"
         id="path3363" /></g><g
       id="g3365"
       transform="translate(3340.8111,664.4852)"><path
         inkscape:connector-curvature="0"
         d="m 0,0 0,6.508 c 0,3.792 -4.542,4.307 -6.975,2.341 l 0.607,-2.06 c 0.282,0.421 1.359,1.403 2.715,1.217 1.499,-0.14 1.452,-1.686 1.452,-1.686 -2.153,0.89 -5.43,-0.093 -5.43,-2.856 0,-2.34 1.685,-3.605 3.652,-3.605 0.748,0 1.591,0.141 1.919,0.422 L -2.06,0 0,0 z M -2.154,2.153 C -2.95,1.733 -5.525,1.03 -5.525,3.418 c 0,1.967 2.482,1.404 3.371,0.984 l 0,-2.249 z"
         style="fill:#ffffff;fill-opacity:1;fill-rule:nonzero;stroke:none"
         id="path3367" /></g><g
       id="g3369"
       transform="translate(3344.9311,669.4012)"><path
         inkscape:connector-curvature="0"
         d="m 0,0 c 0.046,-1.358 0.467,-3.136 1.919,-3.183 0.749,-0.047 1.263,0.141 1.779,0.655 l 0,4.915 C 3.135,2.997 2.668,3.09 2.059,3.09 0.421,3.044 -0.047,1.404 0,0 M -2.154,0 C -2.107,2.575 -1.265,5.337 1.919,5.056 2.574,5.009 3.51,4.728 3.745,4.494 l 0,3.137 2.106,1.03 0,-13.577 -2.106,0 0,0.281 C 3.088,-5.01 2.621,-5.15 1.872,-5.15 c -2.95,0 -4.073,2.387 -4.026,5.15"
         style="fill:#ffffff;fill-opacity:1;fill-rule:nonzero;stroke:none"
         id="path3371" /></g><g
       id="g3377"
       transform="translate(3375.454,664.2509)"><path
         inkscape:connector-curvature="0"
         d="m 0,0 c -2.013,0 -3.184,0.75 -3.979,2.435 -0.563,1.17 -0.889,2.809 -0.889,4.448 0,2.153 0.607,4.26 1.497,5.43 0.796,0.982 1.919,1.498 3.418,1.498 2.06,0 3.276,-0.842 4.167,-2.95 L 2.2,10.066 c -0.56,1.17 -1.123,1.592 -2.153,1.592 -1.077,0 -1.78,-0.469 -2.247,-1.639 -0.328,-0.795 -0.516,-2.013 -0.516,-3.136 0,-1.404 0.235,-2.809 0.656,-3.652 0.42,-0.75 1.03,-1.076 1.826,-1.076 1.358,0 2.341,0.842 2.341,2.059 l 0,0.561 -2.435,0 0,2.108 4.542,0 0,-2.669 C 4.214,1.78 2.435,0 0,0"
         style="fill:#ffffff;fill-opacity:1;fill-rule:nonzero;stroke:none"
         id="path3379" /></g><g
       id="g3381"
       transform="translate(3387.0641,671.9291)"><path
         inkscape:connector-curvature="0"
         d="m 0,0 c -0.421,0.328 -0.75,0.563 -1.263,0.563 -1.217,0 -1.358,-0.704 -1.358,-1.921 l 0,-6.086 -2.154,0 0,9.738 2.154,0 0,-0.467 c 0.514,0.467 0.748,0.701 1.496,0.701 0.75,0 1.079,-0.281 1.406,-0.654 L 0,0 z"
         style="fill:#ffffff;fill-opacity:1;fill-rule:nonzero;stroke:none"
         id="path3383" /></g><g
       id="g3385"
       transform="translate(3396.5201,669.4012)"><path
         inkscape:connector-curvature="0"
         d="m 0,0 c 0,2.34 -0.702,5.056 -4.024,5.056 -3.373,0 -4.074,-2.903 -4.074,-5.056 0,-2.528 0.701,-5.104 4.074,-5.104 C -0.702,-5.104 0,-2.341 0,0 m -2.153,0 c 0,-0.983 -0.234,-3.183 -1.871,-3.183 -1.64,0 -1.921,2.153 -1.921,3.136 0,0.983 0.281,3.137 1.921,3.137 1.59,0 1.871,-2.154 1.871,-3.09"
         style="fill:#ffffff;fill-opacity:1;fill-rule:nonzero;stroke:none"
         id="path3387" /></g><g
       id="g3389"
       transform="translate(3403.2171,664.4852)"><path
         inkscape:connector-curvature="0"
         d="m 0,0 -1.875,0 -3.744,9.738 2.246,0 2.434,-6.553 2.341,6.553 2.387,0 L 0,0 z"
         style="fill:#ffffff;fill-opacity:1;fill-rule:nonzero;stroke:none"
         id="path3391" /></g><g
       id="g3393"
       transform="translate(3415.9961,668.4652)"><path
         inkscape:connector-curvature="0"
         d="m 0,0 c 0.047,2.387 -0.047,5.992 -3.887,5.992 -3.369,0 -4.025,-2.903 -4.025,-5.056 0,-2.528 0.656,-5.104 4.025,-5.104 1.967,0 2.998,0.983 3.559,2.248 L -2.06,-0.842 C -2.295,-1.686 -2.998,-2.2 -3.887,-2.2 c -1.31,0 -1.73,1.123 -1.824,2.2 L 0,0 z m -2.107,1.965 -3.651,0 c 0,0.983 0.235,2.061 1.871,2.061 1.592,0 1.78,-1.123 1.78,-2.061"
         style="fill:#ffffff;fill-opacity:1;fill-rule:nonzero;stroke:none"
         id="path3395" /></g><g
       id="g3397"
       transform="translate(3433.8321,664.4852)"><path
         inkscape:connector-curvature="0"
         d="m 0,0 -2.342,6.227 c 1.219,0.562 2.061,1.965 2.061,3.37 0,1.358 -0.842,2.762 -2.012,3.325 -0.656,0.327 -1.359,0.42 -2.389,0.42 l -4.4,0 0,-13.342 2.107,0 0,5.805 2.528,0 L -2.293,0 0,0 z M -2.389,9.597 C -2.389,9.036 -2.717,8.474 -3.23,8.192 -3.559,8.006 -3.793,7.96 -4.447,7.96 l -2.528,0 0,3.276 2.528,0 c 0.701,0 0.888,-0.046 1.217,-0.234 0.513,-0.281 0.841,-0.842 0.841,-1.405"
         style="fill:#ffffff;fill-opacity:1;fill-rule:nonzero;stroke:none"
         id="path3399" /></g><g
       id="g3401"
       transform="translate(3437.4371,669.4012)"><path
         inkscape:connector-curvature="0"
         d="m 0,0 c 0.047,-1.358 0.467,-3.136 1.918,-3.183 0.75,-0.047 1.264,0.141 1.78,0.655 l 0,4.915 C 3.135,2.997 2.668,3.09 2.059,3.09 0.422,3.044 -0.046,1.404 0,0 M -2.154,0 C -2.107,2.575 -1.263,5.337 1.918,5.056 2.575,5.009 3.51,4.728 3.745,4.494 l 0,3.137 2.107,1.03 0,-13.577 -2.107,0 0,0.281 C 3.088,-5.01 2.622,-5.15 1.872,-5.15 c -2.948,0 -4.073,2.387 -4.026,5.15"
         style="fill:#ffffff;fill-opacity:1;fill-rule:nonzero;stroke:none"
         id="path3403" /></g><g
       id="g3405"
       transform="translate(3321.2461,643.8492)"><path
         inkscape:connector-curvature="0"
         d="m 0,0 -3.822,6.766 0,-6.766 -1.578,0 0,9.991 1.578,0 3.646,-6.38 0,6.38 1.578,0 L 1.402,0 0,0 z"
         style="fill:#ffffff;fill-opacity:1;fill-rule:nonzero;stroke:none"
         id="path3407" /></g><g
       id="g3409"
       transform="translate(3325.0311,643.8492)"><path
         inkscape:connector-curvature="0"
         d="m 0,0 0,9.991 5.889,0 0,-1.578 -4.311,0 0,-2.453 2.909,0 0,-1.613 -2.909,0 0,-2.735 4.627,0 L 6.205,0 0,0 z"
         style="fill:#ffffff;fill-opacity:1;fill-rule:nonzero;stroke:none"
         id="path3411" /></g><g
       id="g3413"
       transform="translate(3337.2301,643.8492)"><path
         inkscape:connector-curvature="0"
         d="M 0,0 -1.612,3.33 -3.225,0 l -1.788,0 2.49,5.154 -2.314,4.837 1.788,0 1.437,-2.98 1.437,2.98 1.789,0 L -0.736,5.154 1.788,0 0,0 z"
         style="fill:#ffffff;fill-opacity:1;fill-rule:nonzero;stroke:none"
         id="path3415" /></g><g
       id="g3417"
       transform="translate(3343.6801,652.4373)"><path
         inkscape:connector-curvature="0"
         d="m 0,0 0,-8.588 -1.578,0 0,8.588 -2.278,0 0,1.403 6.17,0 L 2.314,0 0,0 z"
         style="fill:#ffffff;fill-opacity:1;fill-rule:nonzero;stroke:none"
         id="path3419" /></g><path
       inkscape:connector-curvature="0"
       d="m 3352.443,653.84 1.614,0 0,-9.991 -1.614,0 0,9.991 z"
       style="fill:#ffffff;fill-opacity:1;fill-rule:nonzero;stroke:none"
       id="path3421" /><g
       id="g3423"
       transform="translate(3361.8401,643.8492)"><path
         inkscape:connector-curvature="0"
         d="m 0,0 -3.822,6.766 0,-6.766 -1.579,0 0,9.991 1.579,0 3.646,-6.38 0,6.38 1.578,0 L 1.402,0 0,0 z"
         style="fill:#ffffff;fill-opacity:1;fill-rule:nonzero;stroke:none"
         id="path3425" /></g><g
       id="g3427"
       transform="translate(3368.605,652.4373)"><path
         inkscape:connector-curvature="0"
         d="m 0,0 0,-8.588 -1.578,0 0,8.588 -2.279,0 0,1.403 6.171,0 L 2.314,0 0,0 z"
         style="fill:#ffffff;fill-opacity:1;fill-rule:nonzero;stroke:none"
         id="path3429" /></g><g
       id="g3431"
       transform="translate(3372.3911,643.8492)"><path
         inkscape:connector-curvature="0"
         d="m 0,0 0,9.991 5.888,0 0,-1.578 -4.31,0 0,-2.453 2.91,0 0,-1.613 -2.91,0 0,-2.735 4.627,0 L 6.205,0 0,0 z"
         style="fill:#ffffff;fill-opacity:1;fill-rule:nonzero;stroke:none"
         id="path3433" /></g><g
       id="g3435"
       transform="translate(3387.079,643.8492)"><path
         inkscape:connector-curvature="0"
         d="m 0,0 -1.753,4.663 c 0.912,0.42 1.543,1.471 1.543,2.523 0,1.017 -0.631,2.069 -1.508,2.489 -0.49,0.246 -1.016,0.316 -1.787,0.316 l -3.295,0 0,-9.991 1.576,0 0,4.347 1.895,0 L -1.718,0 0,0 z m -1.788,7.186 c 0,-0.42 -0.244,-0.841 -0.631,-1.052 -0.245,-0.14 -0.42,-0.174 -0.91,-0.174 l -1.895,0 0,2.453 1.895,0 c 0.524,0 0.665,-0.035 0.91,-0.176 0.387,-0.21 0.631,-0.63 0.631,-1.051"
         style="fill:#ffffff;fill-opacity:1;fill-rule:nonzero;stroke:none"
         id="path3437" /></g><g
       id="g3439"
       transform="translate(3393.8791,644.4443)"><path
         inkscape:connector-curvature="0"
         d="m 0,0 c -0.561,-0.49 -1.331,-0.772 -2.174,-0.772 -1.717,0 -2.978,1.018 -3.644,2.526 l 1.507,0.56 c 0.42,-0.946 1.192,-1.471 2.137,-1.471 0.913,0 1.545,0.63 1.545,1.471 0,1.332 -1.545,1.543 -2.842,2.069 -0.595,0.246 -1.928,0.841 -1.928,2.489 0,1.963 1.333,2.699 3.122,2.699 1.402,0 2.347,-0.806 2.837,-2.033 l -1.4,-0.42 c 0,0 -0.351,0.84 -1.473,0.875 C -3.049,8.029 -3.925,7.747 -3.856,6.836 -3.715,4.978 0.982,6.205 0.982,2.279 0.982,1.368 0.631,0.561 0,0"
         style="fill:#ffffff;fill-opacity:1;fill-rule:nonzero;stroke:none"
         id="path3441" /></g><g
       id="g3443"
       transform="translate(3396.5431,643.8492)"><path
         inkscape:connector-curvature="0"
         d="m 0,0 0,9.991 5.891,0 0,-1.578 -4.313,0 0,-2.453 2.91,0 0,-1.613 -2.91,0 0,-2.735 4.627,0 L 6.205,0 0,0 z"
         style="fill:#ffffff;fill-opacity:1;fill-rule:nonzero;stroke:none"
         id="path3445" /></g><g
       id="g3447"
       transform="translate(3408.0081,643.6722)"><path
         inkscape:connector-curvature="0"
         d="m 0,0 c -1.475,0 -2.42,0.561 -3.051,1.789 -0.455,0.877 -0.736,2.138 -0.736,3.401 0,1.578 0.422,3.154 1.121,4.031 0.597,0.736 1.437,1.122 2.558,1.122 1.508,0 2.455,-0.632 3.121,-2.033 L 1.541,7.679 C 0.98,8.519 0.666,8.73 -0.108,8.73 -0.912,8.73 -1.438,8.38 -1.789,7.504 -2.035,6.907 -2.174,6.03 -2.174,5.19 c 0,-1.088 0.246,-2.174 0.629,-2.805 0.351,-0.525 0.806,-0.77 1.508,-0.77 0.666,0 1.158,0.35 1.543,1.156 L 3.013,2.21 C 2.418,0.738 1.435,0 0,0"
         style="fill:#ffffff;fill-opacity:1;fill-rule:nonzero;stroke:none"
         id="path3449" /></g><g
       id="g3451"
       transform="translate(3416.1741,652.4373)"><path
         inkscape:connector-curvature="0"
         d="m 0,0 0,-8.588 -1.576,0 0,8.588 -2.28,0 0,1.403 6.17,0 L 2.314,0 0,0 z"
         style="fill:#ffffff;fill-opacity:1;fill-rule:nonzero;stroke:none"
         id="path3453" /></g><path
       inkscape:connector-curvature="0"
       d="m 3419.961,653.84 1.611,0 0,-9.991 -1.611,0 0,9.991 z"
       style="fill:#ffffff;fill-opacity:1;fill-rule:nonzero;stroke:none"
       id="path3455" /><g
       id="g3457"
       transform="translate(3430.828,648.8273)"><path
         inkscape:connector-curvature="0"
         d="m 0,0 c 0,1.261 -0.246,2.524 -0.666,3.4 -0.631,1.227 -1.508,1.788 -2.769,1.788 -1.157,0 -1.963,-0.35 -2.559,-1.122 C -6.662,3.119 -7.082,1.647 -7.082,0 c 0,-1.192 0.281,-2.525 0.701,-3.366 0.596,-1.228 1.473,-1.789 2.875,-1.789 1.053,0 1.86,0.352 2.42,1.122 C -0.387,-3.156 0,-1.578 0,0 m -1.576,0 c 0,-0.772 -0.178,-1.753 -0.387,-2.28 -0.351,-0.876 -0.806,-1.26 -1.543,-1.26 -0.631,0 -1.051,0.245 -1.367,0.77 -0.385,0.631 -0.596,1.717 -0.596,2.77 0,0.841 0.141,1.752 0.385,2.349 0.352,0.876 0.844,1.261 1.613,1.226 C -2.873,3.541 -2.49,3.33 -2.174,2.803 -1.787,2.138 -1.576,1.121 -1.576,0"
         style="fill:#ffffff;fill-opacity:1;fill-rule:nonzero;stroke:none"
         id="path3459" /></g><g
       id="g3461"
       transform="translate(3438.4361,643.8492)"><path
         inkscape:connector-curvature="0"
         d="m 0,0 -3.823,6.766 0,-6.766 -1.578,0 0,9.991 1.578,0 3.647,-6.38 0,6.38 1.578,0 L 1.402,0 0,0 z"
         style="fill:#ffffff;fill-opacity:1;fill-rule:nonzero;stroke:none"
         id="path3463" /></g><g
       id="g3465"
       transform="translate(3338.2601,614.9373)"><path
         inkscape:connector-curvature="0"
         d="m 0,0 c 0,1.357 -0.889,2.762 -2.06,3.325 -0.655,0.326 -1.358,0.42 -2.434,0.42 l -4.588,0 0,-13.342 2.107,0 0,5.806 2.481,0 c 1.029,0 1.826,0.186 2.434,0.467 C -0.889,-2.808 0,-1.403 0,0 m -2.154,0 c 0,-0.561 -0.327,-1.171 -0.795,-1.403 -0.375,-0.188 -0.61,-0.235 -1.264,-0.235 l -2.762,0 0,3.277 2.762,0 c 0.654,0 0.889,-0.047 1.264,-0.235 C -2.481,1.125 -2.154,0.562 -2.154,0"
         style="fill:#ffffff;fill-opacity:1;fill-rule:nonzero;stroke:none"
         id="path3467" /></g><g
       id="g3469"
       transform="translate(3340.8811,605.3403)"><path
         inkscape:connector-curvature="0"
         d="M 0,0 0,12.547 2.154,13.577 2.154,0 0,0 z"
         style="fill:#ffffff;fill-opacity:1;fill-rule:nonzero;stroke:none"
         id="path3471" /></g><g
       id="g3473"
       transform="translate(3353.9891,609.3193)"><path
         inkscape:connector-curvature="0"
         d="m 0,0 c 0.047,2.388 -0.047,5.993 -3.886,5.993 -3.371,0 -4.025,-2.903 -4.025,-5.057 0,-2.528 0.654,-5.103 4.025,-5.103 1.967,0 2.997,0.985 3.558,2.249 l -1.731,1.076 c -0.235,-0.844 -0.937,-1.357 -1.827,-1.357 -1.31,0 -1.732,1.123 -1.826,2.199 L 0,0 z m -2.106,1.966 -3.653,0 c 0,0.985 0.235,2.061 1.873,2.061 1.592,0 1.78,-1.123 1.78,-2.061"
         style="fill:#ffffff;fill-opacity:1;fill-rule:nonzero;stroke:none"
         id="path3475" /></g><g
       id="g3477"
       transform="translate(3363.7271,605.3403)"><path
         inkscape:connector-curvature="0"
         d="m 0,0 0,6.508 c 0,3.792 -4.541,4.306 -6.976,2.34 l 0.608,-2.059 c 0.282,0.42 1.358,1.405 2.716,1.217 1.497,-0.14 1.45,-1.686 1.45,-1.686 -2.152,0.889 -5.429,-0.094 -5.429,-2.856 0,-2.341 1.685,-3.605 3.651,-3.605 0.749,0 1.591,0.141 1.919,0.422 L -2.061,0 0,0 z M -2.155,2.153 C -2.95,1.733 -5.524,1.03 -5.524,3.417 c 0,1.967 2.481,1.405 3.369,0.984 l 0,-2.248 z"
         style="fill:#ffffff;fill-opacity:1;fill-rule:nonzero;stroke:none"
         id="path3479" /></g><g
       id="g3481"
       transform="translate(3369.2031,605.1522)"><path
         inkscape:connector-curvature="0"
         d="m 0,0 c -1.404,0 -2.246,0.61 -2.855,1.546 l 1.498,1.263 C -0.889,2.202 -0.28,1.78 0.328,1.968 c 0.889,0.234 0.983,1.076 0.281,1.824 -1.264,1.452 -3.277,2.061 -3.418,3.559 -0.093,1.31 0.61,2.387 2.014,2.715 1.123,0.281 2.528,0 3.652,-1.358 L 1.358,7.491 c 0,0 -1.03,1.217 -1.732,0.516 C -1.545,6.883 3.606,5.619 3.371,2.716 3.277,1.265 2.108,0 0,0"
         style="fill:#ffffff;fill-opacity:1;fill-rule:nonzero;stroke:none"
         id="path3483" /></g><g
       id="g3485"
       transform="translate(3382.2191,605.3403)"><path
         inkscape:connector-curvature="0"
         d="m 0,0 0,6.508 c 0,3.792 -4.541,4.306 -6.976,2.34 l 0.609,-2.059 c 0.281,0.42 1.357,1.405 2.714,1.217 1.498,-0.14 1.452,-1.686 1.452,-1.686 -2.153,0.889 -5.43,-0.094 -5.43,-2.856 0,-2.341 1.685,-3.605 3.651,-3.605 0.749,0 1.591,0.141 1.919,0.422 L -2.061,0 0,0 z M -2.155,2.153 C -2.95,1.733 -5.524,1.03 -5.524,3.417 c 0,1.967 2.481,1.405 3.369,0.984 l 0,-2.248 z"
         style="fill:#ffffff;fill-opacity:1;fill-rule:nonzero;stroke:none"
         id="path3487" /></g><g
       id="g3489"
       transform="translate(3391.3941,605.3403)"><path
         inkscape:connector-curvature="0"
         d="M 0,0 0,6.461 C 0,7.725 -0.843,8.006 -1.966,8.006 -2.808,7.959 -3.604,7.491 -3.604,6.367 l 0,-6.367 -2.155,0 0,9.737 2.108,0 0,-0.326 c 2.2,1.403 5.758,0.279 5.758,-2.716 L 2.107,0 0,0 z"
         style="fill:#ffffff;fill-opacity:1;fill-rule:nonzero;stroke:none"
         id="path3491" /></g><g
       id="g3493"
       transform="translate(3400.8031,605.5742)"><path
         inkscape:connector-curvature="0"
         d="m 0,0 c -0.701,-0.328 -1.076,-0.422 -1.59,-0.422 -1.545,-0.093 -2.014,1.124 -2.014,2.528 l 0,5.432 -1.405,0 0,1.965 1.405,0 0,2.81 2.061,1.03 0,-3.84 1.683,0 0,-1.918 -1.683,0 0,-5.151 c 0,-0.654 0.092,-0.935 0.701,-0.935 0.469,0 0.701,0.14 1.123,0.467 L 0,0 z"
         style="fill:#ffffff;fill-opacity:1;fill-rule:nonzero;stroke:none"
         id="path3495" /></g><g
       id="g3497"
       transform="translate(3418.1721,606.1373)"><path
         inkscape:connector-curvature="0"
         d="m 0,0 c -0.75,-0.656 -1.779,-1.031 -2.903,-1.031 -2.294,0 -3.98,1.357 -4.869,3.371 l 2.012,0.749 c 0.563,-1.265 1.594,-1.966 2.857,-1.966 1.217,0 2.059,0.842 2.059,1.966 0,1.779 -2.059,2.059 -3.791,2.762 -0.797,0.328 -2.574,1.124 -2.574,3.324 0,2.622 1.777,3.605 4.166,3.605 1.873,0 3.137,-1.077 3.791,-2.716 L -1.123,9.503 c 0,0 -0.469,1.123 -1.967,1.17 C -4.072,10.72 -5.244,10.345 -5.151,9.128 -4.963,6.647 1.31,8.285 1.31,3.042 1.31,1.824 0.842,0.748 0,0"
         style="fill:#ffffff;fill-opacity:1;fill-rule:nonzero;stroke:none"
         id="path3499" /></g><g
       id="g3501"
       transform="translate(3426.2251,605.5742)"><path
         inkscape:connector-curvature="0"
         d="m 0,0 c -0.704,-0.328 -1.079,-0.422 -1.594,-0.422 -1.545,-0.093 -2.012,1.124 -2.012,2.528 l 0,5.432 -1.404,0 0,1.965 1.404,0 0,2.81 2.059,1.03 0,-3.84 1.687,0 0,-1.918 -1.687,0 0,-5.151 c 0,-0.654 0.093,-0.935 0.703,-0.935 0.469,0 0.703,0.14 1.125,0.467 L 0,0 z"
         style="fill:#ffffff;fill-opacity:1;fill-rule:nonzero;stroke:none"
         id="path3503" /></g><g
       id="g3505"
       transform="translate(3312.3811,584.7043)"><path
         inkscape:connector-curvature="0"
         d="m 0,0 c 0.035,1.158 0.281,2.103 0.842,3.05 0.42,0.772 1.051,1.403 1.752,1.928 0.175,0.105 0.316,0.211 0.457,0.316 l 0.525,0.281 0.49,0.28 0.491,0.281 C 4.943,6.381 5.224,6.801 5.224,7.222 5.224,7.958 4.383,8.554 3.4,8.554 2.385,8.554 1.753,8.064 1.578,7.152 L 0,7.503 c 0.35,1.647 1.648,2.664 3.4,2.664 1.893,0 3.401,-1.333 3.401,-2.98 C 6.801,6.416 6.451,5.644 5.785,5.049 5.644,4.944 5.504,4.838 5.363,4.769 L 4.873,4.453 4.347,4.172 3.857,3.892 C 2.91,3.331 2.385,2.734 1.893,1.612 l 4.908,0 L 6.801,0 0,0 z"
         style="fill:#ffffff;fill-opacity:1;fill-rule:nonzero;stroke:none"
         id="path3507" /></g><g
       id="g3509"
       transform="translate(3326.9141,584.7043)"><path
         inkscape:connector-curvature="0"
         d="m 0,0 -3.822,6.767 0,-6.767 -1.576,0 0,9.994 1.576,0 3.647,-6.383 0,6.383 1.577,0 L 1.402,0 0,0 z"
         style="fill:#ffffff;fill-opacity:1;fill-rule:nonzero;stroke:none"
         id="path3511" /></g><g
       id="g3513"
       transform="translate(3338.2041,589.7183)"><path
         inkscape:connector-curvature="0"
         d="M 0,0 C 0,1.962 -0.597,3.542 -1.647,4.453 -2.173,4.873 -2.56,4.98 -3.575,4.98 l -3.227,0 0,-9.994 3.051,0 0.561,0 c 0.526,0.034 1.052,0.209 1.437,0.562 C -0.63,-3.575 0,-2 0,0 m -1.613,0 c 0,-1.331 -0.316,-2.421 -0.911,-3.017 C -2.805,-3.297 -3.12,-3.4 -3.645,-3.4 l -1.579,0 0,6.802 1.789,0 c 0.419,0 0.771,-0.176 1.016,-0.422 0.49,-0.527 0.806,-1.647 0.806,-2.98"
         style="fill:#ffffff;fill-opacity:1;fill-rule:nonzero;stroke:none"
         id="path3515" /></g><path
       inkscape:connector-curvature="0"
       d="m 3348.197,594.696 1.614,0 0,-9.992 -1.614,0 0,9.992 z"
       style="fill:#ffffff;fill-opacity:1;fill-rule:nonzero;stroke:none"
       id="path3517" /><g
       id="g3519"
       transform="translate(3358.2941,584.7043)"><path
         inkscape:connector-curvature="0"
         d="m 0,0 -3.821,6.765 0,-6.765 -1.578,0 0,9.992 1.578,0 3.645,-6.381 0,6.381 1.578,0 L 1.402,0 0,0 z"
         style="fill:#ffffff;fill-opacity:1;fill-rule:nonzero;stroke:none"
         id="path3521" /></g><g
       id="g3523"
       transform="translate(3365.7621,593.2933)"><path
         inkscape:connector-curvature="0"
         d="m 0,0 0,-8.589 -1.578,0 0,8.589 -2.28,0 0,1.403 6.17,0 L 2.312,0 0,0 z"
         style="fill:#ffffff;fill-opacity:1;fill-rule:nonzero;stroke:none"
         id="path3525" /></g><g
       id="g3527"
       transform="translate(3370.2481,584.7043)"><path
         inkscape:connector-curvature="0"
         d="m 0,0 0,9.992 5.89,0 0,-1.578 -4.313,0 0,-2.455 2.909,0 0,-1.612 -2.909,0 0,-2.735 4.628,0 L 6.205,0 0,0 z"
         style="fill:#ffffff;fill-opacity:1;fill-rule:nonzero;stroke:none"
         id="path3529" /></g><g
       id="g3531"
       transform="translate(3385.6371,584.7043)"><path
         inkscape:connector-curvature="0"
         d="m 0,0 -1.753,4.662 c 0.913,0.421 1.544,1.474 1.544,2.525 0,1.016 -0.631,2.068 -1.51,2.489 -0.49,0.246 -1.015,0.316 -1.787,0.316 l -3.295,0 0,-9.992 1.578,0 0,4.347 1.893,0 L -1.719,0 0,0 z M -1.787,7.187 C -1.787,6.765 -2.034,6.345 -2.418,6.136 -2.663,5.995 -2.84,5.959 -3.33,5.959 l -1.893,0 0,2.455 1.893,0 c 0.526,0 0.667,-0.036 0.912,-0.175 0.384,-0.211 0.631,-0.631 0.631,-1.052"
         style="fill:#ffffff;fill-opacity:1;fill-rule:nonzero;stroke:none"
         id="path3533" /></g><g
       id="g3535"
       transform="translate(3393.1391,585.3003)"><path
         inkscape:connector-curvature="0"
         d="m 0,0 c -0.561,-0.49 -1.332,-0.772 -2.174,-0.772 -1.717,0 -2.98,1.018 -3.645,2.524 l 1.508,0.561 c 0.42,-0.945 1.191,-1.472 2.137,-1.472 0.912,0 1.544,0.632 1.544,1.472 0,1.333 -1.544,1.544 -2.841,2.069 -0.596,0.245 -1.928,0.842 -1.928,2.489 0,1.964 1.332,2.7 3.12,2.7 1.402,0 2.349,-0.806 2.839,-2.035 L -0.841,7.117 c 0,0 -0.351,0.841 -1.472,0.876 C -3.051,8.029 -3.926,7.747 -3.857,6.837 -3.716,4.979 0.982,6.205 0.982,2.279 0.982,1.368 0.63,0.562 0,0"
         style="fill:#ffffff;fill-opacity:1;fill-rule:nonzero;stroke:none"
         id="path3537" /></g><g
       id="g3539"
       transform="translate(3396.5041,584.7043)"><path
         inkscape:connector-curvature="0"
         d="m 0,0 0,9.992 5.889,0 0,-1.578 -4.311,0 0,-2.455 2.91,0 0,-1.612 -2.91,0 0,-2.735 4.627,0 L 6.205,0 0,0 z"
         style="fill:#ffffff;fill-opacity:1;fill-rule:nonzero;stroke:none"
         id="path3541" /></g><g
       id="g3543"
       transform="translate(3408.6681,584.5283)"><path
         inkscape:connector-curvature="0"
         d="m 0,0 c -1.471,0 -2.418,0.561 -3.049,1.788 -0.457,0.877 -0.736,2.14 -0.736,3.402 0,1.576 0.42,3.155 1.121,4.031 0.596,0.736 1.437,1.122 2.56,1.122 1.506,0 2.454,-0.631 3.12,-2.035 L 1.543,7.679 C 0.982,8.519 0.666,8.73 -0.104,8.73 -0.91,8.73 -1.438,8.379 -1.787,7.502 -2.033,6.907 -2.174,6.031 -2.174,5.19 c 0,-1.088 0.246,-2.174 0.633,-2.805 0.35,-0.526 0.805,-0.772 1.508,-0.772 0.664,0 1.156,0.35 1.541,1.158 L 3.016,2.21 C 2.42,0.736 1.437,0 0,0"
         style="fill:#ffffff;fill-opacity:1;fill-rule:nonzero;stroke:none"
         id="path3545" /></g><g
       id="g3547"
       transform="translate(3417.5371,593.2933)"><path
         inkscape:connector-curvature="0"
         d="m 0,0 0,-8.589 -1.576,0 0,8.589 -2.279,0 0,1.403 6.17,0 L 2.315,0 0,0 z"
         style="fill:#ffffff;fill-opacity:1;fill-rule:nonzero;stroke:none"
         id="path3549" /></g><path
       inkscape:connector-curvature="0"
       d="m 3422.025,594.696 1.612,0 0,-9.992 -1.612,0 0,9.992 z"
       style="fill:#ffffff;fill-opacity:1;fill-rule:nonzero;stroke:none"
       id="path3551" /><g
       id="g3553"
       transform="translate(3433.5941,589.6823)"><path
         inkscape:connector-curvature="0"
         d="m 0,0 c 0,1.262 -0.246,2.525 -0.666,3.4 -0.631,1.228 -1.508,1.789 -2.77,1.789 -1.156,0 -1.963,-0.351 -2.56,-1.122 C -6.662,3.12 -7.082,1.649 -7.082,0 c 0,-1.192 0.279,-2.523 0.701,-3.366 0.596,-1.227 1.473,-1.788 2.875,-1.788 1.051,0 1.857,0.35 2.418,1.123 C -0.387,-3.155 0,-1.576 0,0 m -1.578,0 c 0,-0.77 -0.176,-1.753 -0.387,-2.278 -0.35,-0.877 -0.807,-1.263 -1.541,-1.263 -0.633,0 -1.053,0.246 -1.367,0.772 -0.387,0.631 -0.596,1.717 -0.596,2.769 0,0.842 0.141,1.753 0.385,2.348 0.351,0.877 0.842,1.263 1.613,1.228 0.596,-0.035 0.98,-0.245 1.297,-0.771 C -1.787,2.139 -1.578,1.122 -1.578,0"
         style="fill:#ffffff;fill-opacity:1;fill-rule:nonzero;stroke:none"
         id="path3555" /></g><g
       id="g3557"
       transform="translate(3441.9001,584.7043)"><path
         inkscape:connector-curvature="0"
         d="m 0,0 -3.822,6.765 0,-6.765 -1.576,0 0,9.992 1.576,0 3.647,-6.381 0,6.381 1.578,0 L 1.403,0 0,0 z"
         style="fill:#ffffff;fill-opacity:1;fill-rule:nonzero;stroke:none"
         id="path3559" /></g><path
       inkscape:connector-curvature="0"
       d="m 3302.2121,632.1123 151.286,0"
       style="fill:none;stroke:#ffffff;stroke-width:3;stroke-linecap:butt;stroke-linejoin:miter;stroke-miterlimit:4;stroke-opacity:1;stroke-dasharray:none"
       id="path3563" /></g></svg>