<?xml version="1.0" encoding="UTF-8" standalone="no"?>
<!-- Created with Inkscape (http://www.inkscape.org/) -->

<svg
   xmlns:dc="http://purl.org/dc/elements/1.1/"
   xmlns:cc="http://creativecommons.org/ns#"
   xmlns:rdf="http://www.w3.org/1999/02/22-rdf-syntax-ns#"
   xmlns:svg="http://www.w3.org/2000/svg"
   xmlns="http://www.w3.org/2000/svg"
   xmlns:sodipodi="http://sodipodi.sourceforge.net/DTD/sodipodi-0.dtd"
   xmlns:inkscape="http://www.inkscape.org/namespaces/inkscape"
   id="svg17624"
   version="1.1"
   inkscape:version="0.48.2 r9819"
   width="193.04688"
   height="154.76562"
   xml:space="preserve"
   sodipodi:docname="AJAX1.svg"><metadata
     id="metadata17630"><rdf:RDF><cc:Work
         rdf:about=""><dc:format>image/svg+xml</dc:format><dc:type
           rdf:resource="http://purl.org/dc/dcmitype/StillImage" /><dc:title /></cc:Work></rdf:RDF></metadata><defs
     id="defs17628"><inkscape:perspective
       sodipodi:type="inkscape:persp3d"
       inkscape:vp_x="0 : 0.5 : 1"
       inkscape:vp_y="0 : 1000 : 0"
       inkscape:vp_z="1 : 0.5 : 1"
       inkscape:persp3d-origin="0.5 : 0.33333333 : 1"
       id="perspective17632" /><clipPath
       clipPathUnits="userSpaceOnUse"
       id="clipPath17642"><path
         d="m -2,710 501,0 0,-711 -501,0 0,711 z"
         id="path17644"
         inkscape:connector-curvature="0" /></clipPath><clipPath
       clipPathUnits="userSpaceOnUse"
       id="clipPath17648"><path
         d="m 0,708.06 498,0 0,-708 -498,0 0,708 z"
         id="path17650"
         inkscape:connector-curvature="0" /></clipPath><clipPath
       clipPathUnits="userSpaceOnUse"
       id="clipPath17798"><path
         d="m -2,710 501,0 0,-711 -501,0 0,711 z"
         id="path17800"
         inkscape:connector-curvature="0" /></clipPath><clipPath
       clipPathUnits="userSpaceOnUse"
       id="clipPath17804"><path
         d="m 0,708.06 498,0 0,-708 -498,0 0,708 z"
         id="path17806"
         inkscape:connector-curvature="0" /></clipPath><clipPath
       id="Clip0"><path
         inkscape:connector-curvature="0"
         d="m 0,0 212.597,0 0,269.292 L 0,269.292 0,0 z"
         transform="translate(0.923828,0.879883)"
         id="path7" /></clipPath><clipPath
       id="Clip0-8"><path
         inkscape:connector-curvature="0"
         d="m 0,0 170.079,0 0,113.386 L 0,113.386 0,0 z"
         transform="translate(0.0986328,0.822266)"
         id="path7-8" /></clipPath><clipPath
       id="Clip0-1"><path
         inkscape:connector-curvature="0"
         d="m 0,0 287.009,0 0,159.449 L 0,159.449 0,0 z"
         transform="translate(0.396484,0.267578)"
         id="path7-7" /></clipPath><clipPath
       id="Clip0-9"><path
         inkscape:connector-curvature="0"
         d="m 0,0 170.079,0 0,170.079 L 0,170.079 0,0 z"
         transform="translate(0.460938,0.775391)"
         id="path7-4" /></clipPath><clipPath
       id="Clip0-4"><path
         inkscape:connector-curvature="0"
         d="m 0,0 340.157,0 0,226.771 L 0,226.771 0,0 z"
         transform="translate(0.921875,0.25293)"
         id="path7-5" /></clipPath><clipPath
       id="Clip0-5"><path
         inkscape:connector-curvature="0"
         d="m 0,0 255.119,0 0,170.079 L 0,170.079 0,0 z"
         transform="translate(0.147461,0.0595703)"
         id="path7-1" /></clipPath><clipPath
       id="Clip0-0"><path
         inkscape:connector-curvature="0"
         d="m 0,0 170.079,0 0,113.386 L 0,113.386 0,0 z"
         transform="translate(0.0673828,0.207031)"
         id="path7-9" /></clipPath></defs><sodipodi:namedview
     pagecolor="#ffffff"
     bordercolor="#666666"
     borderopacity="1"
     objecttolerance="10"
     gridtolerance="10"
     guidetolerance="10"
     inkscape:pageopacity="0"
     inkscape:pageshadow="2"
     inkscape:window-width="1280"
     inkscape:window-height="1004"
     id="namedview17626"
     showgrid="false"
     inkscape:zoom="2.8284271"
     inkscape:cx="63.235134"
     inkscape:cy="50.89451"
     inkscape:window-x="-8"
     inkscape:window-y="-8"
     inkscape:window-maximized="1"
     inkscape:current-layer="g17634"
     fit-margin-top="0"
     fit-margin-left="0"
     fit-margin-right="0"
     fit-margin-bottom="0"
     showguides="true"
     inkscape:guide-bbox="true" /><g
     id="g17634"
     inkscape:groupmode="layer"
     inkscape:label="GG1999P002"
     transform="matrix(1.25,0,0,-1.25,-5077.6953,2116.9922)"><path
       inkscape:connector-curvature="0"
       d="m 4074.1279,1692.9959 130.4965,0 c 6.267,0 11.3792,-5.1146 11.3792,-11.3839 l 0,-99.8446 c 0,-6.2693 -5.1122,-11.3815 -11.3792,-11.3815 l -130.4965,0 c -6.2693,0 -11.3815,5.1122 -11.3815,11.3815 l 0,99.8446 c 0,6.1911 5.1904,11.3839 11.3815,11.3839"
       style="fill:#ffffff;fill-opacity:1;fill-rule:nonzero;stroke:#000000;stroke-width:1.20000005;stroke-linecap:butt;stroke-linejoin:miter;stroke-miterlimit:4;stroke-opacity:1;stroke-dasharray:none"
       id="path4017" /><path
       inkscape:connector-curvature="0"
       d="m 4074.1232,1690.0344 130.5036,0 c 4.638,0 8.4176,-3.782 8.4176,-8.4176 l 0,-99.8541 c 0,-4.6356 -3.7796,-8.4176 -8.4176,-8.4176 l -130.5036,0 c -4.638,0 -8.4176,3.782 -8.4176,8.4176 l 0,99.8541 c 0,4.5787 3.8389,8.4176 8.4176,8.4176"
       style="fill:#00674c;fill-opacity:1;fill-rule:evenodd;stroke:none"
       id="path4021" /><path
       inkscape:connector-curvature="0"
       d="m 4204.5699,1685.4839 c 2.07,0 3.763,-1.6172 3.9171,-3.6682 l 0,-99.9916 c 0,-2.0748 -1.6076,-3.7654 -3.6634,-3.9195 l -130.6483,0 c -2.07,0 -3.7606,1.6147 -3.9147,3.6658 l 0,99.9963 c 0,2.07 1.6147,3.7607 3.6634,3.9148 l 130.6483,0"
       style="fill:#ffffff;fill-opacity:1;fill-rule:evenodd;stroke:none"
       id="path4025" /><path
       inkscape:connector-curvature="0"
       d="m 4133.5204,1646.7608 c 0,-5.6434 -4.5645,-9.404 -11.282,-9.404 l -22.3054,0 0,19.0807 22.3054,0 c 6.7175,0 11.282,-3.7654 11.282,-9.6767 m 13.7076,0 c 0,8.6002 -4.5668,16.1215 -11.8249,20.1548 -4.2989,2.4186 -7.794,3.2248 -13.7053,3.2248 l -35.7404,0 0,-76.586 13.9756,0 0,30.0971 21.7648,0 c 5.9113,0 9.4064,0.5382 13.7053,2.9545 7.2581,4.0357 11.8249,12.0928 11.8249,20.1548"
       style="fill:#00674c;fill-opacity:1;fill-rule:evenodd;stroke:none"
       id="path4029" /><path
       inkscape:connector-curvature="0"
       d="m 4187.4215,1601.1492 0,-2.741 2.5229,0 c -0.3747,-1.399 -1.7167,-2.4186 -3.2224,-2.4186 -2.8478,0 -3.6042,2.7434 -3.6042,5.2165 0,3.009 1.4535,5.1573 3.6042,5.1573 1.3444,0 2.3095,-0.754 2.9023,-2.0416 l 2.7956,0.9627 c -1.0765,2.3664 -2.9569,3.8176 -5.6979,3.8176 -3.8176,0 -6.3405,-3.2248 -6.3405,-7.896 0,-3.9788 1.8258,-7.967 6.3405,-7.967 3.386,0 6.0701,2.5893 6.0701,5.9231 l 0,1.987 -5.3706,0 z m -10.5351,-7.6327 0,15.32 -2.6343,0 0,-10.1035 -7.04,10.1035 -2.6865,0 0,-15.32 2.6865,0 0,10.5374 7.3103,-10.5374 2.364,0 z m -16.2851,15.32 -2.741,0 0,-15.32 2.741,0 0,15.32 z m -5.1596,-15.32 -5.0506,10.3193 4.0832,5.0007 -3.5473,0 -5.4276,-6.6629 0,6.6629 -2.741,0 0,-15.32 2.741,0 0,4.2989 2.9023,3.6587 3.9243,-7.9576 3.1157,0 z m -18.8104,10.6441 c 0,-1.131 -0.8607,-1.8851 -2.2051,-1.8851 l -4.3535,0 0,3.82 4.3535,0 c 1.3444,0 2.2051,-0.7541 2.2051,-1.9349 m 3.0659,-10.6441 -2.7979,6.5586 c 1.5578,0.856 2.4731,2.3617 2.4731,4.0855 0,1.7167 -0.9153,3.2224 -2.3664,4.0286 -0.8062,0.4861 -1.5057,0.6473 -2.632,0.6473 l -7.0423,0 0,-15.32 2.741,0 0,6.0203 4.0855,0 2.4731,-6.0203 3.0659,0 z m -20.5863,6.3405 -4.2989,0 2.1482,5.1596 2.1507,-5.1596 z m 5.6409,-6.3405 -6.3926,15.32 -2.7956,0 -6.4519,-15.32 3.0114,0 1.5057,3.5994 6.6629,0 1.5057,-3.5994 2.9544,0 z"
       style="fill:#00674c;fill-opacity:1;fill-rule:evenodd;stroke:none"
       id="path4033" /><path
       inkscape:connector-curvature="0"
       d="m 4167.5775,1655.2827 24.5557,2.9971 -4.5147,-24.2355 c -0.249,-1.0173 -1.2804,-1.6432 -2.2953,-1.3943 -0.6757,0.1684 -1.029,0.6592 -1.3658,1.3065 l -2.575,5.4371 -23.0358,-21.5254 -8.7946,9.4017 23.1164,21.6225 -5.4703,2.7221 c -0.6876,0.4363 -1.1429,0.8062 -1.2425,1.5294 -0.1446,1.0362 0.5857,1.9965 1.6219,2.1388"
       style="fill:#00674c;fill-opacity:1;fill-rule:evenodd;stroke:none"
       id="path4037" /></g></svg>