<?xml version="1.0" encoding="UTF-8" standalone="no"?>
<svg xmlns="http://www.w3.org/2000/svg" width="2170" height="2710">
  <path fill="#fff" stroke="#000" stroke-width="10" d="M2165 2570c0 74.5625-60.4375 135-135 135H140c-74.559375 0-135-60.4375-135-135V140C5 65.4419 65.440625 5 140 5h1890c74.5625 0 135 60.4419 135 135v2430z"/>
  <path fill="#006649" d="M140 2648.75c-43.422875 0-78.75-35.325-78.75-78.75V140c0-43.4229 35.327125-78.75 78.75-78.75h1890c43.425 0 78.75 35.3271 78.75 78.75v2430c0 43.425-35.325 78.75-78.75 78.75H140z"/>
  <path fill="#fff" fill-rule="evenodd" d="M896.82375 783.4375V860H784.29v-76.5625h-86.70125v-190.01l.0312-.031c.9975-34.6975 29.60125-62.6913 64.53625-62.6913.61375 0 1.22875.01 1.83375.031l33.21625-.031s.40625-208.4324.0375-233.8437c-.0225-.76-.0375-1.5313-.0375-2.2938.00005-35.5613 29.00255-64.5675 64.56755-64.5675h446.43875c35.575 0 64.575 29.0062 64.575 64.5675 0 .7625-.025 1.5337-.038 2.2937-.375 25.4113.038 233.8438.038 233.8438l33.2.031c.625-.023 1.2375-.031 1.8625-.031 34.925 0 63.5375 27.9937 64.525 62.6912l.038.031v190.0099h-86.7125v76.5625H1273.163v-76.5625H896.82425z"/>
  <path fill="#fff" d="M879.30625 2030v-360H936.905v360h-57.59875zM715.64 1733.1625c-8.84125-5.0625-13.895-6.325-32.8425-6.325h-68.21625v88.425h68.21625c17.68625 0 24.00125-1.2625 32.8425-6.3125 13.89875-7.575 22.74125-22.7375 22.74125-37.9 0-15.15-8.8425-30.3125-22.74125-37.8875zM740.90625 2030l-58.10875-156.625h-68.21625V2030h-56.845v-360H676.48c27.7925 0 46.7425 2.525 64.42625 11.375 31.58125 15.15 54.31875 53.05 54.31875 89.675 0 37.9-22.7375 75.7875-55.58125 90.95l63.16375 168h-61.90125zm461.90125-288c-8.84-8.8375-21.4725-15.1625-36.6337-15.1625h-64.4263V1971.9h56.8488c18.95 0 30.3175-3.7875 40.4225-13.9 21.4762-21.475 32.8437-60.6375 32.8437-108.6375 0-47.9875-11.3675-88.4125-29.055-107.3625zm24.0038 267.7875c-13.8963 12.6375-32.8438 18.95-51.7913 20.2125h-130.1175v-360H1161.12c36.6363 0 50.5325 3.7875 69.48 18.95 37.9 32.8375 59.375 89.6875 59.375 160.4125 0 72.0125-22.7375 128.85-63.1637 160.425zM1388.975 2030v-360h211.9375v56.8375h-155.175v88.425H1550.45v58.1125h-104.7125v98.525h166.525v58.1H1388.975zm-905.73875-881.8437c-10.105-5.0513-16.42125-6.315-34.10625-6.315h-74.53125v88.4225H449.13c17.685 0 24.00125-1.265 34.10625-6.3163 12.63125-6.3162 21.4775-22.7363 21.4775-37.895 0-15.1587-8.84625-30.315-21.4775-37.8962zM507.24 1275.7375c-16.42375 7.575-37.8975 12.6375-65.69125 12.6375h-66.95V1445H317.7525v-360h123.79625c29.055 0 48.00375 2.5263 65.69125 11.3675 31.58 15.1587 55.58125 53.0537 55.58125 89.685 0 37.895-24.00125 75.785-55.58125 89.685zM1471.35 1445l-91.2375-170.525-38.025 46.7375V1445h-57.025v-360h57.025v142.7375L1456.15 1085h73.5l-111.525 140.2113L1537.25 1445h-65.9zm-349.9475-296.8424c-8.8425-5.0538-13.8962-6.3151-32.8437-6.3151h-68.2151v88.4201h68.2151c17.6875 0 24.0012-1.2625 32.8437-6.3138 13.8963-7.58 22.7388-22.7387 22.7388-37.895 0-15.1587-8.8425-30.3175-22.7388-37.8962zm25.2638 296.8425-58.1075-156.6375h-68.2151v156.6375h-56.84495v-360.0013h118.74255c27.7937 0 46.7437 2.5275 64.425 11.37 31.585 15.1588 54.3212 53.0513 54.3212 89.685 0 37.895-22.7363 75.7838-55.5812 90.9463l63.1637 168h-61.9037zM743.54375 1184.79l-36.84125 101.0475h72.415L743.54375 1184.79zm91.475 260.21L799.445 1343.95h-113.07L650.8025 1445H589.82l124.50375-360H771.495L896 1445h-60.98125zM1672.25 1295.95v-56.845h180v56.845h-180zm-308.4625 873.55c-4.0875-2.8375-9.0625-4.5-14.4125-4.5-13.9875 0-25.3375 11.35-25.3375 25.3375 0 2.4625.3625 4.8375 1.0125 7.0875l24.275 82.9125H545v135h804.325l-24.275 82.9125c-.65 2.25-1.0125 4.625-1.0125 7.0875 0 13.9875 11.35 25.3375 25.3375 25.3375 5.35 0 10.325-1.675 14.4125-4.5L1625 2347.8375 1363.7875 2169.5z"/>
  <path fill="#006649" fill-rule="evenodd" d="m1413.1375 723.3137.2625-125.3887c0-9.5938-7.825-17.4063-17.4125-17.4063h-71.15V307.365c0-9.59-7.8125-17.41-17.4-17.41H862.54875c-9.58625 0-17.40625 7.82-17.40625 17.41v273.1537h-71.13625c-9.58625 0-17.415 7.8125-17.415 17.4063v125.3887h656.54625z"/>
  <path fill="#fff" fill-rule="evenodd" d="M865.74125 307.3875H1304.025c1.85 0 3.375 1.5087 3.375 3.3625v220.9762H862.38V310.75c0-1.8538 1.5125-3.3625 3.36125-3.3625zM844.9275 591.4387c27.83625 0 50.5375 22.695 50.5375 50.5313 0 27.835-22.70125 50.5375-50.5375 50.5375s-50.545-22.7025-50.545-50.5375c0-27.8363 22.70875-50.5313 50.545-50.5313m476.685 0c27.8375 0 50.5375 22.695 50.5375 50.5313 0 27.835-22.7 50.5375-50.5375 50.5375-27.825 0-50.5375-22.7025-50.5375-50.5375 0-27.8363 22.7125-50.5313 50.5375-50.5313z"/>
  <path fill="#006649" fill-rule="evenodd" d="M925.205 411.6838c-13.47625-7.4913-22.64-21.9438-22.64-38.47 0-24.3175 19.83125-44.145 44.13625-44.145 24.32125 0 44.145 19.8275 44.145 44.145 0 6.65-1.47375 12.9587-4.105 18.4912-5.14375-1.8575-11.39-2.7125-16.985-2.7125-17.445 0-34.45875 8.615-44.55125 22.6913"/>
  <path fill="#006649" fill-rule="evenodd" d="M971.53625 393.11c28.235 0 51.26755 23.0275 51.26755 51.2675 0 28.235-23.03255 51.2625-51.26755 51.2625-28.2275 0-51.25875-23.0275-51.25875-51.2625 0-28.24 23.03125-51.2675 51.25875-51.2675m-106.9775 62.4113c17.83-10.7763 35.6575-21.5425 53.4925-32.3175-3.90625 10.0287-5.20375 20.8012-3.90625 32.3175h-49.58625"/>
  <path fill="#006649" fill-rule="evenodd" d="m1005.7438 489.3963 27.92 29.31H908.98125l28.035-29.4163c9.74625 7.5288 22.125 11.7338 34.52 11.7338 12.1725 0 24.7825-4.205 34.20755-11.6275m239.0887-77.7125c13.48-7.4913 22.63-21.9438 22.63-38.47 0-24.3175-19.8287-44.145-44.1425-44.145-24.3037 0-44.135 19.8275-44.135 44.145 0 6.65 1.4813 12.9587 4.1063 18.4912 5.15-1.8575 11.3875-2.7125 16.9912-2.7125 17.4425 0 34.46 8.615 44.55 22.6913"/>
  <path fill="#006649" fill-rule="evenodd" d="M1198.4951 393.11c-28.2363 0-51.2613 23.0275-51.2613 51.2675 0 28.235 23.025 51.2625 51.2613 51.2625 28.235 0 51.265-23.0275 51.265-51.2625 0-28.24-23.03-51.2675-51.265-51.2675m106.9799 62.4113c-17.825-10.7763-35.6625-21.5425-53.4875-32.3175 3.9 10.0287 5.2 20.8012 3.9 32.3175h49.5875"/>
  <path fill="#006649" fill-rule="evenodd" d="m1164.2975 489.3963-27.93 29.31H1261.05l-28.0275-29.4163c-9.7462 7.5288-22.1425 11.7338-34.5275 11.7338-12.1737 0-24.7825-4.205-34.1975-11.6275m-79.5824-161.7013c24.1687 0 43.8775 19.7088 43.8775 43.8763 0 24.1637-19.7088 43.8687-43.8775 43.8687-24.1675 0-43.8763-19.705-43.8763-43.8687 0-24.1675 19.7088-43.8763 43.8763-43.8763"/>
  <path fill="#006649" fill-rule="evenodd" d="M1084.715 454.845c-19.845.085-39.3713.1687-58.5338.2575 1.3575-7.8512 1.5888-16.205-1.145-24.5512 9.525-6.1713 19.05-12.3301 28.5663-18.5 8.78 6.7775 19.9462 10.5725 31.1125 10.5725 11.1675 0 22.3337-3.795 31.1075-10.5725 9.5237 6.1699 19.0475 12.3287 28.5737 18.5-2.7337 8.3462-2.5025 16.7-1.1437 24.5512-19.1638-.089-38.6888-.1725-58.5375-.2575"/>
</svg>