<?xml version="1.0" encoding="UTF-8" standalone="no"?>
<svg
   xmlns:dc="http://purl.org/dc/elements/1.1/"
   xmlns:cc="http://creativecommons.org/ns#"
   xmlns:rdf="http://www.w3.org/1999/02/22-rdf-syntax-ns#"
   xmlns:svg="http://www.w3.org/2000/svg"
   xmlns="http://www.w3.org/2000/svg"
   xmlns:sodipodi="http://sodipodi.sourceforge.net/DTD/sodipodi-0.dtd"
   xmlns:inkscape="http://www.inkscape.org/namespaces/inkscape"
   width="72.604568"
   height="108.60235"
   viewBox="0 0 204.90625 306.49995"
   version="1.1"
   id="svg2"
   inkscape:version="0.48.2 r9819"
   sodipodi:docname="MUTCD W8-10P.svg">
  <metadata
     id="metadata62">
    <rdf:RDF>
      <cc:Work
         rdf:about="">
        <dc:format>image/svg+xml</dc:format>
        <dc:type
           rdf:resource="http://purl.org/dc/dcmitype/StillImage" />
        <dc:title></dc:title>
      </cc:Work>
    </rdf:RDF>
  </metadata>
  <defs
     id="defs60" />
  <sodipodi:namedview
     pagecolor="#ffffff"
     bordercolor="#666666"
     borderopacity="1"
     objecttolerance="10"
     gridtolerance="10"
     guidetolerance="10"
     inkscape:pageopacity="0"
     inkscape:pageshadow="2"
     inkscape:window-width="1280"
     inkscape:window-height="1004"
     id="namedview58"
     showgrid="false"
     fit-margin-top="0"
     fit-margin-left="0"
     fit-margin-right="0"
     fit-margin-bottom="0"
     inkscape:zoom="4.6745195"
     inkscape:cx="50.708587"
     inkscape:cy="41.465647"
     inkscape:window-x="-8"
     inkscape:window-y="-8"
     inkscape:window-maximized="1"
     inkscape:current-layer="svg2"
     showguides="true"
     inkscape:guide-bbox="true" />
  <!-- draw the bicycle -->
  <!-- RIGHT -->
  <!-- LANE -->
  <!-- ONLY -->
  <path
     inkscape:connector-curvature="0"
     d="m 27.93851,0.83894298 149.0204,0 c 14.90487,0 27.09334,12.18848002 27.09334,27.09334002 l 0,250.620417 c 0,14.90134 -12.18847,27.08981 -27.09334,27.08981 l -149.0204,0 c -14.89428,0 -27.08275,-12.18847 -27.08275,-27.08981 l 0,-250.620417 c 0,-14.90486 12.18847,-27.09334002 27.08275,-27.09334002 z"
     style="fill:#ffffff;stroke:#000000;stroke-width:1.69333353;stroke-linecap:butt;stroke-linejoin:miter;stroke-miterlimit:4;stroke-opacity:1;stroke-dasharray:none"
     id="path8433" />
  <path
     inkscape:connector-curvature="0"
     d="m 29.51227,7.612283 145.87715,0 c 12.03678,0 21.88986,9.85308 21.88986,21.88986 l 0,247.477167 c 0,12.04031 -9.85308,21.89339 -21.88986,21.89339 l -145.87715,0 c -12.04031,0 -21.88634,-9.85308 -21.88634,-21.89339 l 0,-247.477167 c 0,-12.03678 9.84603,-21.88986 21.88634,-21.88986"
     style="fill:#00674c;fill-opacity:1;fill-rule:evenodd;stroke:none"
     id="path8445" />
  <path
     inkscape:connector-curvature="0"
     d="m 30.13668,17.775783 144.63185,0 c 6.78744,0 12.35428,5.55272 12.35428,12.34722 l 0,246.231867 c 0,6.79803 -5.56684,12.35428 -12.35428,12.35428 l -144.63185,0 c -6.79097,0 -12.35428,-5.55625 -12.35428,-12.35428 l 0,-246.231867 c 0,-6.7945 5.56331,-12.34722 12.35428,-12.34722"
     style="fill:#ffffff;fill-opacity:1;fill-rule:evenodd;stroke:none"
     id="path8449" />
  <path
     inkscape:connector-curvature="0"
     d="m 179.22059,188.23097 0,-10.40342 -7.55298,0 0,5.2705 2.42711,0 0,5.41514 c 0,2.70933 -0.99836,4.41678 -2.84691,4.41678 -1.85209,0 -2.85045,-1.42522 -3.42195,-4.13456 -0.42686,-3.41489 -0.71261,-6.12422 -0.71261,-11.684 0,-5.55272 0.28575,-8.26206 0.85725,-11.54289 0.42686,-2.7058 1.70745,-3.98639 3.55247,-3.98639 1.43581,0 2.28953,0.85372 2.57175,2.56117 l 5.12587,0 c -0.56445,-4.98828 -3.27378,-7.8352 -7.8352,-7.8352 -3.98639,0 -6.4135,1.56634 -7.69408,5.27403 -1.42875,3.84175 -1.85562,7.40481 -1.85562,15.52928 0,8.26911 0.42687,11.97328 1.71803,15.67392 1.27353,3.85233 3.70064,5.44336 7.83167,5.44336 3.7077,0 6.41703,-1.87325 7.27075,-4.72722 0.28222,-1.28058 0.56445,-3.41489 0.56445,-5.2705 m -24.93434,9.26042 0,-40.61531 -5.13292,0 0,20.23533 -7.26369,-20.23533 -5.13292,0 0,40.61531 5.13292,0 0,-24.08062 7.97983,24.08062 4.41678,0 z m -26.36309,-40.61531 -5.13291,0 0,40.61531 5.13291,0 0,-40.61531 z m -11.54641,40.61531 -7.27076,-26.64884 6.69926,-13.96647 -5.98312,0 -6.4135,12.96458 0,-12.96458 -5.132911,0 0,40.61531 5.132911,0 0,-15.24706 1.99673,-3.98992 5.41513,19.23698 5.55626,0 z M 86.732828,168.13322 c 0,3.85233 -0.853722,5.13291 -3.704167,5.13291 l -3.418417,0 0,-11.1125 2.561167,0 c 3.563056,0 4.561417,1.41817 4.561417,5.97959 m 5.277557,0.14463 c 0,-7.55297 -3.277306,-11.40177 -9.556752,-11.40177 l -7.96925,0 0,40.61531 5.125861,0 0,-18.95476 2.423584,0 4.554362,18.95476 5.277556,0 -4.134556,-20.23534 c 2.991556,-1.85208 4.279195,-4.41678 4.279195,-8.9782 m -31.926393,13.11276 -4.416778,0 2.278945,-10.68917 2.137833,10.68917 z m 8.837084,16.10078 -8.403167,-40.61531 -5.277556,0 -8.269112,40.61531 5.277556,0 2.278945,-10.83028 6.69925,0 2.278945,10.83028 5.415139,0 z M 39.28068,168.70472 c 0,4.27919 -1.143,5.842 -4.27919,5.842 l -2.84339,0 0,-12.39309 2.84339,0 c 2.85397,0 4.27919,1.98967 4.27919,6.55109 m 5.270505,0 c 0,-4.41678 -1.562806,-8.26912 -3.852335,-10.1212 -1.28058,-1.13594 -3.41489,-1.70744 -5.69736,-1.70744 l -7.97631,0 0,40.61531 5.13292,0 0,-17.67417 2.84339,0 c 5.69736,0 9.549695,-4.41325 9.549695,-11.1125"
     style="fill:#00674c;fill-opacity:1;fill-rule:evenodd;stroke:none"
     id="path8453" />
  <path
     inkscape:connector-curvature="0"
     d="m 124.51143,90.716123 18.89478,-3.08681 -11.90625,-15.46225 c -6.16655,5.37986 -6.93914,11.8357 -6.98853,18.54906 m -5.18583,1.12889 c -0.0353,-0.66675 -0.13758,-1.74978 -0.13758,-2.5012 0,-7.65528 2.47297,-15.0883 9.18986,-21.26897 l -6.99911,-8.37847 -10.82675,33.03764 8.77358,-0.889 z m -41.571334,-32.87889 0.599722,-1.8415 38.572722,-0.0494 -10.25878,31.10442 -0.44097,-3.24556 1.17828,0 -0.1517,-2.06022 -5.16114,0 0.14464,1.91558 1.32998,0 0.29633,3.54189 c 0,0 -25.964445,-29.21353 -26.109084,-29.36523 m -17.077974,29.87323 c 5.171723,-4.10633 9.211029,-8.03275 12.117918,-15.875 4.582584,4.16278 7.200195,10.1847 7.200195,16.37947 0,12.297837 -10.033001,22.337897 -22.337891,22.337897 -12.297835,0 -22.337894,-10.04006 -22.337894,-22.337897 0,-12.30489 10.040059,-22.33789 22.337894,-22.33789 3.926417,0 7.944556,1.12889 11.183057,3.03742 -2.190751,6.92503 -4.328584,10.50219 -11.06664,15.92439 -1.640417,0.067 -2.878667,1.38642 -2.878667,2.94922 0,1.62631 1.322916,2.95628 2.949222,2.95628 1.626306,0 2.832806,-1.32997 2.832806,-3.03389 m 64.628898,6.61459 c 2.52941,9.419167 11.52172,16.227777 21.47005,16.227777 12.29784,0 22.33789,-10.04006 22.33789,-22.337897 0,-12.30489 -10.04005,-22.33789 -22.33789,-22.33789 -3.93347,0 -8.47725,0.92428 -11.78983,2.86456 l 12.12144,16.09725 c 1.4852,0.0282 2.78342,1.35114 2.78342,2.94922 0,1.62631 -1.32997,2.95628 -2.95628,2.95628 -0.44802,0 -0.92427,-0.11642 -1.31586,-0.30339 l -20.31294,3.88409 z m -54.874591,-30.57879 7.909278,-21.82636 -2.50825,-4.27919 5.016501,-5.45748 10.777362,0 0.137583,3.09386 -9.433279,0 -1.922639,2.06728 2.211917,3.98286 -2.776361,9.86014 38.639749,0 0.59267,-1.79916 c -3.10797,-0.4057 -8.45961,-2.32128 -9.7402,-3.43253 -1.28411,-1.11478 -0.15875,-2.13431 1.2947,-2.1837 7.62705,-0.32102 18.96181,-0.96308 21.11022,-0.97013 2.15547,-0.007 2.37772,1.07597 0.93134,2.64583 -1.43934,1.57692 -2.70228,2.99861 -8.15976,3.84528 l -1.47461,3.98286 9.144,11.32769 c 4.31448,-2.62113 9.52148,-3.9758 14.59442,-3.9758 15.18709,0 27.58723,12.39308 27.58723,27.58722 0,15.194147 -12.40014,27.587227 -27.58723,27.587227 -12.50597,0 -23.495,-8.62541 -26.72644,-20.538727 l -8.4067,1.51695 c -0.35983,0.98425 -1.19239,1.74272 -2.19781,2.342447 l 1.50284,7.10142 1.91558,0 0.1517,1.92263 -6.05014,0.28928 0,-2.06728 1.47461,0 -1.82739,-7.09436 c -2.71992,-0.448027 -4.14867,-2.769307 -3.33375,-5.087057 l -27.453169,-31.03739 -1.231194,3.32669 c 6.671028,5.24934 10.650362,13.33148 10.650362,21.73817 0,15.194147 -12.386029,27.587227 -27.587225,27.587227 -15.194141,0 -27.587224,-12.39308 -27.587224,-27.587227 0,-15.19414 12.393083,-27.58722 27.587224,-27.58722 4.423834,0 8.949973,1.07244 12.774085,3.11855"
     style="fill:#00674c;fill-opacity:1;fill-rule:evenodd;stroke:none"
     id="path8457" />
  <path
     inkscape:connector-curvature="0"
     d="M 63.858715,252.15431 38.08829,234.72708 63.858715,217.26811 c 1.135944,-0.77258 2.688167,-0.47625 3.464278,0.65969 0.511528,0.75848 0.416278,1.54517 0.179917,2.47298 l -2.27189,7.56708 101.55415,0 0,13.50081 -101.55415,0 2.222501,7.44008 c 0.28575,1.03364 0.409222,1.79211 -0.130528,2.58234 -0.776111,1.13947 -2.328334,1.4358 -3.464278,0.66322"
     style="fill:#00674c;fill-opacity:1;fill-rule:evenodd;stroke:none"
     id="path8461" />
</svg>
