<?xml version="1.0" encoding="UTF-8" standalone="no"?>
<svg
   xmlns:dc="http://purl.org/dc/elements/1.1/"
   xmlns:cc="http://creativecommons.org/ns#"
   xmlns:rdf="http://www.w3.org/1999/02/22-rdf-syntax-ns#"
   xmlns:svg="http://www.w3.org/2000/svg"
   xmlns="http://www.w3.org/2000/svg"
   xmlns:sodipodi="http://sodipodi.sourceforge.net/DTD/sodipodi-0.dtd"
   xmlns:inkscape="http://www.inkscape.org/namespaces/inkscape"
   width="173.24556"
   height="83.721695"
   viewBox="0 0 488.9375 236.28123"
   version="1.1"
   id="svg2"
   inkscape:version="0.48.2 r9819"
   sodipodi:docname="MUTCD D5-6.svg">
  <metadata
     id="metadata62">
    <rdf:RDF>
      <cc:Work
         rdf:about="">
        <dc:format>image/svg+xml</dc:format>
        <dc:type
           rdf:resource="http://purl.org/dc/dcmitype/StillImage" />
        <dc:title></dc:title>
      </cc:Work>
    </rdf:RDF>
  </metadata>
  <defs
     id="defs60">
    <clipPath
       clipPathUnits="userSpaceOnUse"
       id="clipPath3564">
      <path
         inkscape:connector-curvature="0"
         d="m 63,43 512.622,0 0,313.129 L 63,356.129 63,43 z"
         id="path3566" />
    </clipPath>
  </defs>
  <sodipodi:namedview
     pagecolor="#ffffff"
     bordercolor="#666666"
     borderopacity="1"
     objecttolerance="10"
     gridtolerance="10"
     guidetolerance="10"
     inkscape:pageopacity="0"
     inkscape:pageshadow="2"
     inkscape:window-width="1280"
     inkscape:window-height="1004"
     id="namedview58"
     showgrid="false"
     fit-margin-top="0"
     fit-margin-left="0"
     fit-margin-right="0"
     fit-margin-bottom="0"
     inkscape:zoom="3.4525869"
     inkscape:cx="75.631068"
     inkscape:cy="17.445808"
     inkscape:window-x="-8"
     inkscape:window-y="-8"
     inkscape:window-maximized="1"
     inkscape:current-layer="svg2"
     showguides="true"
     inkscape:guide-bbox="true" />
  <polygon
     points="315,545 235,375 315,205 395,375 "
     id="polygon10"
     style="fill:none;stroke:#ffffff;stroke-width:40"
     transform="translate(18757.661,9963.9)" />
  <!-- draw the bicycle -->
  <!-- RIGHT -->
  <!-- LANE -->
  <!-- ONLY -->
  <path
     inkscape:connector-curvature="0"
     d="m 488.07955,208.37889 c 0,14.88723 -12.18142,27.06864 -27.07217,27.06864 l -433.08766,0 c -14.8837,0 -27.06865,-12.18141 -27.06865,-27.06864 l 0,-180.452887 c 0,-14.88723 12.18495,-27.06863849 27.06865,-27.06863849 l 433.08766,0 c 14.89075,0 27.07217,12.18140849 27.07217,27.06863849 l 0,180.452887 z"
     style="fill:#ffffff;fill-opacity:1;fill-rule:nonzero;stroke:#000000;stroke-width:1.69333344;stroke-miterlimit:4;stroke-opacity:1;stroke-dasharray:none"
     id="path5405" />
  <path
     inkscape:connector-curvature="0"
     d="m 27.92077,229.43233 c -2.82575,0 -5.57036,-0.55739 -8.15975,-1.65452 -2.50472,-1.06892 -4.75897,-2.59292 -6.70278,-4.53673 -1.9438,-1.94028 -3.4678,-4.19453 -4.53319,-6.70278 -1.10067,-2.58938 -1.65806,-5.33752 -1.65806,-8.15975 l 0,-180.452887 c 0,-2.82575 0.55739,-5.57036 1.65806,-8.15623 1.06539,-2.50825 2.58939,-4.76602 4.53319,-6.7063 1.94381,-1.94381 4.19806,-3.4678085 6.70278,-4.5331985 2.58939,-1.09713 5.334,-1.65805 8.15975,-1.65805 l 433.08765,0 c 2.82931,0 5.57036,0.56092 8.15625,1.65805 2.50823,1.06539 4.766,2.5893885 6.70984,4.5331985 1.9438,1.94028 3.46425,4.19805 4.53316,6.7063 1.1007,2.58587 1.65456,5.33048 1.65456,8.15623 l 0,180.452887 c 0,2.82223 -0.55389,5.57037 -1.65456,8.15975 -1.06888,2.50825 -2.58936,4.7625 -4.53316,6.70278 -1.94384,1.94381 -4.20161,3.46781 -6.70984,4.53673 -2.58589,1.09713 -5.32697,1.65452 -8.15625,1.65452 l -433.08765,0 z"
     style="fill:#155196;fill-opacity:1;fill-rule:nonzero;stroke:none"
     id="path5429" />
  <path
     inkscape:connector-curvature="0"
     d="m 138.39455,46.070433 -5.06589,12.15672 10.13178,0 -5.06589,-12.15672 z m 11.39119,27.10039 -3.54189,-8.4843 -15.69861,0 -3.54189,8.4843 -7.09083,0 15.18708,-36.08917 6.58989,0 15.06362,36.08917 -6.96737,0 z"
     style="fill:#ffffff;fill-opacity:1;fill-rule:nonzero;stroke:none"
     id="path5433" />
  <path
     inkscape:connector-curvature="0"
     d="m 67.13626,57.215023 -10.30464,0 0,9.49678 10.30464,0 c 3.43606,0 5.84906,-1.90147 5.84906,-4.55789 0,-2.78695 -2.54,-4.93889 -5.84906,-4.93889 m 0,-13.6772 -10.30464,0 0,7.21784 10.30464,0 c 2.79753,0 4.70606,-1.52047 4.70606,-3.67242 0,-2.15194 -1.78153,-3.54542 -4.70606,-3.54542 m 6.86506,28.11287 c -1.778,1.01247 -3.68653,1.52047 -5.59506,1.52047 l -1.78153,0 -16.40417,0 0,-36.08917 16.9157,0 c 3.17853,0 4.32506,0.25047 6.23358,1.26295 3.05153,1.77447 4.95653,4.81188 4.95653,8.23383 0,2.91042 -1.143,5.44336 -3.55953,7.46831 3.17853,2.28247 4.70606,5.06941 4.70606,8.48783 0,3.66889 -2.16253,7.34131 -5.47158,9.11578"
     style="fill:#ffffff;fill-opacity:1;fill-rule:nonzero;stroke:none"
     id="path5437" />
  <path
     inkscape:connector-curvature="0"
     d="m 277.11453,73.805093 c -9.49325,0 -15.32114,-7.47184 -15.32114,-18.74309 0,-11.39825 5.82789,-18.61608 15.32114,-18.61608 5.82436,0 11.14425,2.91394 13.92767,7.97983 l -5.69384,3.03742 c -1.016,-1.51695 -1.524,-2.02495 -2.53647,-2.65642 -1.38995,-1.143 -3.79942,-1.90147 -5.69736,-1.90147 -6.58284,0 -8.73478,6.45936 -8.73478,12.02972 0,7.84931 3.28789,12.41073 8.73478,12.41073 3.29141,0 5.06941,-1.13948 8.23383,-4.56142 l 5.69384,3.04094 c -2.65642,5.06589 -8.10331,7.97984 -13.92767,7.97984"
     style="fill:#ffffff;fill-opacity:1;fill-rule:nonzero;stroke:none"
     id="path5441" />
  <path
     inkscape:connector-curvature="0"
     d="m 386.50776,73.805093 c -9.5003,0 -15.32114,-7.47184 -15.32114,-18.74309 0,-11.39825 5.82084,-18.61608 15.32114,-18.61608 5.82436,0 11.14073,2.91394 13.92767,7.97983 l -5.69736,3.03742 c -1.01247,-1.51695 -1.52047,-2.02495 -2.53295,-2.65642 -1.38994,-1.143 -3.79941,-1.90147 -5.69736,-1.90147 -6.58636,0 -8.74183,6.45936 -8.74183,12.02972 0,7.84931 3.29494,12.41073 8.74183,12.41073 3.29142,0 5.06236,-1.13948 8.23031,-4.56142 l 5.69736,3.04094 c -2.65994,5.06589 -8.10331,7.97984 -13.92767,7.97984"
     style="fill:#ffffff;fill-opacity:1;fill-rule:nonzero;stroke:none"
     id="path5445" />
  <path
     inkscape:connector-curvature="0"
     d="m 198.63171,73.171163 0,-36.08917 26.43364,0 0,6.45583 -19.82258,0 0,6.70984 10.80205,0 0,6.58636 -10.80205,0 0,9.87778 20.45758,0 0,6.45936 -27.06864,0 z"
     style="fill:#ffffff;fill-opacity:1;fill-rule:nonzero;stroke:none"
     id="path5449" />
  <path
     inkscape:connector-curvature="0"
     d="m 337.97894,73.171163 0,-36.08917 26.43364,0 0,6.45583 -19.82611,0 0,6.70984 10.80206,0 0,6.58636 -10.80206,0 0,9.87778 20.46111,0 0,6.45936 -27.06864,0 z"
     style="fill:#ffffff;fill-opacity:1;fill-rule:nonzero;stroke:none"
     id="path5453" />
  <path
     inkscape:connector-curvature="0"
     d="m 322.111,73.171163 0,-15.70567 -16.2807,0 0,15.70567 -6.48405,0 0,-36.08917 6.48405,0 0,13.92767 16.2807,0 0,-13.92767 6.48758,0 0,36.08917 -6.48758,0 z"
     style="fill:#ffffff;fill-opacity:1;fill-rule:nonzero;stroke:none"
     id="path5457" />
  <path
     inkscape:connector-curvature="0"
     d="m 185.49215,73.171163 -9.271,-18.74308 -6.858,8.6113 0,10.13178 -6.477,0 0,-36.08917 6.477,0 0,15.70214 12.83053,-15.70214 8.382,0 -9.65553,11.7722 11.938,24.31697 -7.366,0 z"
     style="fill:#ffffff;fill-opacity:1;fill-rule:nonzero;stroke:none"
     id="path5461" />
  <path
     inkscape:connector-curvature="0"
     d="m 431.34193,73.171163 -9.271,-18.74308 -6.85448,8.6113 0,10.13178 -6.477,0 0,-36.08917 6.477,0 0,15.70214 12.82348,-15.70214 8.382,0 -9.64848,11.7722 11.93448,24.31697 -7.366,0 z"
     style="fill:#ffffff;fill-opacity:1;fill-rule:nonzero;stroke:none"
     id="path5465" />
  <path
     inkscape:connector-curvature="0"
     d="m 103.54045,43.538163 -10.39635,0 0,8.99231 10.39635,0 c 3.16442,0 5.18937,-1.77447 5.18937,-4.43442 0,-2.78694 -2.02495,-4.55789 -5.18937,-4.55789 m 5.18937,29.63334 -5.82437,-14.1852 -9.76135,0 0,14.1852 -6.45231,0 0,-36.0927 16.72166,0 c 2.65642,0 4.30389,0.381 6.20184,1.52047 3.41489,1.89795 5.56683,5.44337 5.56683,9.49678 0,4.05342 -2.15194,7.59884 -5.82436,9.62731 l 6.58283,15.44814 -7.21077,0 z"
     style="fill:#ffffff;fill-opacity:1;fill-rule:nonzero;stroke:none"
     id="path5469" />
  <path
     inkscape:connector-curvature="0"
     d="m 299.76992,109.36191 -5.06589,12.15673 10.12825,0 -5.06236,-12.15673 z m 11.39119,27.1004 -3.54189,-8.48431 -15.69861,0 -3.54542,8.48431 -7.0873,0 15.18708,-36.0927 6.58989,0 15.06009,36.0927 -6.96384,0 z"
     style="fill:#ffffff;fill-opacity:1;fill-rule:nonzero;stroke:none"
     id="path5473" />
  <path
     inkscape:connector-curvature="0"
     d="m 189.28558,109.36191 -5.06236,12.15673 10.12825,0 -5.06589,-12.15673 z m 11.39473,27.1004 -3.54189,-8.48431 -15.70214,0 -3.54542,8.48431 -7.08731,0 15.19062,-36.0927 6.58636,0 15.06361,36.0927 -6.96383,0 z"
     style="fill:#ffffff;fill-opacity:1;fill-rule:nonzero;stroke:none"
     id="path5477" />
  <path
     inkscape:connector-curvature="0"
     d="m 250.25016,136.46089 0,-36.08916 26.43011,0 0,6.45583 -19.82258,0 0,6.71336 10.80205,0 0,6.58636 -10.80205,0 0,9.87425 20.46111,0 0,6.45936 -27.06864,0 z"
     style="fill:#ffffff;fill-opacity:1;fill-rule:nonzero;stroke:none"
     id="path5481" />
  <path
     inkscape:connector-curvature="0"
     d="m 230.62654,106.82793 -10.39283,0 0,8.98877 10.39283,0 c 3.16442,0 5.18936,-1.76741 5.18936,-4.43088 0,-2.78342 -2.02494,-4.55789 -5.18936,-4.55789 m 5.18936,29.63333 -5.82436,-14.18519 -9.75783,0 0,14.18519 -6.45231,0 0,-36.09269 16.71814,0 c 2.65995,0 4.30389,0.381 6.20183,1.52047 3.41489,1.90147 5.57037,5.44689 5.57037,9.49678 0,4.05341 -2.15548,7.60236 -5.82437,9.62377 l 6.58284,15.45167 -7.21431,0 z"
     style="fill:#ffffff;fill-opacity:1;fill-rule:nonzero;stroke:none"
     id="path5485" />
  <path
     inkscape:connector-curvature="0"
     d="m 323.57889,200.81215 0,-30.07431 22.02745,0 0,5.37986 -16.52059,0 0,5.59506 8.99936,0 0,5.48569 -8.99936,0 0,8.23384 17.04975,0 0,5.37986 -22.55661,0 z"
     style="fill:#ffffff;fill-opacity:1;fill-rule:nonzero;stroke:none"
     id="path5489" />
  <path
     inkscape:connector-curvature="0"
     d="m 282.67397,170.7375 5.41514,0 0,30.07431 -5.41514,0 0,-30.07431 z"
     style="fill:#ffffff;fill-opacity:1;fill-rule:nonzero;stroke:none"
     id="path5491" />
  <path
     inkscape:connector-curvature="0"
     d="m 295.91123,200.81215 0,-30.07431 5.40103,0 0,25.43175 17.15911,0 0,4.64256 -22.56014,0 z"
     style="fill:#ffffff;fill-opacity:1;fill-rule:nonzero;stroke:none"
     id="path5495" />
  <path
     inkscape:connector-curvature="0"
     d="m 269.55944,200.81215 0,-18.36209 -8.89706,18.36209 -8.79475,-18.36209 0,18.36209 -5.29872,0 0,-30.07431 5.29872,0 8.79475,17.83292 8.89706,-17.83292 5.29872,0 0,30.07431 -5.29872,0 z"
     style="fill:#ffffff;fill-opacity:1;fill-rule:nonzero;stroke:none"
     id="path5499" />
  <path
     inkscape:connector-curvature="0"
     d="m 146.56982,193.29307 0.10231,-22.47547 -3.77473,0 -0.1023,-4.32859 c 2.30717,-0.52564 3.56305,-1.3723 4.72017,-3.27025 l 4.30036,0 0,30.07431 -5.24581,0 z"
     style="fill:#ffffff;fill-opacity:1;fill-rule:nonzero;stroke:none"
     id="path5503" />
  <path
     inkscape:connector-curvature="0"
     d="m 177.08263,208.33303 c 0,-3.59128 0.74084,-6.23005 2.4377,-9.1828 2.64936,-4.43089 6.46641,-7.17551 11.9768,-8.65364 3.3902,-0.94898 4.55789,-2.00378 4.55789,-3.79942 0,-2.21545 -2.12372,-3.48192 -5.93725,-3.48192 -3.92289,0 -6.78039,0.9525 -9.32744,3.27378 l -3.7077,-4.11692 c 3.49603,-3.05858 7.84225,-4.64255 12.71764,-4.64255 7.10142,0 11.65931,3.48191 11.65931,8.96761 0,2.53294 -1.06186,4.85422 -3.07622,6.54403 -0.9525,0.7373 -2.32834,1.47814 -4.45206,2.10961 -4.02519,1.16064 -5.18936,1.6898 -6.99206,3.27378 -1.37936,1.16064 -2.22602,2.32127 -3.28789,4.32505 l 17.80823,0 0,5.38339 -24.37695,0 z"
     style="fill:#ffffff;fill-opacity:1;fill-rule:nonzero;stroke:none"
     id="path5507" />
  <path
     inkscape:connector-curvature="0"
     d="m 154.8033,208.33303 -5.3728,0 26.22903,-45.11675 5.37633,0 -26.23256,45.11675 z"
     style="fill:#ffffff;fill-opacity:1;fill-rule:nonzero;stroke:none"
     id="path5511" />
</svg>
