<?xml version="1.0" encoding="UTF-8" standalone="no"?>
<svg
   xmlns:dc="http://purl.org/dc/elements/1.1/"
   xmlns:cc="http://creativecommons.org/ns#"
   xmlns:rdf="http://www.w3.org/1999/02/22-rdf-syntax-ns#"
   xmlns:svg="http://www.w3.org/2000/svg"
   xmlns="http://www.w3.org/2000/svg"
   xmlns:sodipodi="http://sodipodi.sourceforge.net/DTD/sodipodi-0.dtd"
   xmlns:inkscape="http://www.inkscape.org/namespaces/inkscape"
   width="134.87819"
   height="83.721695"
   viewBox="0 0 380.65625 236.28123"
   version="1.1"
   id="svg2"
   inkscape:version="0.48.2 r9819"
   sodipodi:docname="MUTCD D5-14.svg">
  <metadata
     id="metadata62">
    <rdf:RDF>
      <cc:Work
         rdf:about="">
        <dc:format>image/svg+xml</dc:format>
        <dc:type
           rdf:resource="http://purl.org/dc/dcmitype/StillImage" />
        <dc:title></dc:title>
      </cc:Work>
    </rdf:RDF>
  </metadata>
  <defs
     id="defs60">
    <clipPath
       clipPathUnits="userSpaceOnUse"
       id="clipPath3564">
      <path
         inkscape:connector-curvature="0"
         d="m 63,43 512.622,0 0,313.129 L 63,356.129 63,43 z"
         id="path3566" />
    </clipPath>
  </defs>
  <sodipodi:namedview
     pagecolor="#ffffff"
     bordercolor="#666666"
     borderopacity="1"
     objecttolerance="10"
     gridtolerance="10"
     guidetolerance="10"
     inkscape:pageopacity="0"
     inkscape:pageshadow="2"
     inkscape:window-width="1280"
     inkscape:window-height="1004"
     id="namedview58"
     showgrid="false"
     fit-margin-top="0"
     fit-margin-left="0"
     fit-margin-right="0"
     fit-margin-bottom="0"
     inkscape:zoom="4.8826952"
     inkscape:cx="53.12682"
     inkscape:cy="32.835553"
     inkscape:window-x="-8"
     inkscape:window-y="-8"
     inkscape:window-maximized="1"
     inkscape:current-layer="svg2"
     showguides="true"
     inkscape:guide-bbox="true" />
  <polygon
     points="315,205 395,375 315,545 235,375 "
     id="polygon10"
     style="fill:none;stroke:#ffffff;stroke-width:40"
     transform="translate(17031.223,10605.65)" />
  <!-- draw the bicycle -->
  <!-- RIGHT -->
  <!-- LANE -->
  <!-- ONLY -->
  <path
     inkscape:connector-curvature="0"
     d="m 379.79755,208.37893 c 0,14.88723 -12.1779,27.06864 -27.0615,27.06864 l -324.8202,0 c -14.8872,0 -27.0651,-12.18141 -27.0651,-27.06864 l 0,-180.45289 c 0,-14.88723 12.1779,-27.06865015 27.0651,-27.06865015 l 324.8202,0 c 14.8836,0 27.0615,12.18142015 27.0615,27.06865015 l 0,180.45289 z"
     style="fill:#ffffff;fill-opacity:1;fill-rule:nonzero;stroke:#000000;stroke-width:1.69333346;stroke-miterlimit:4;stroke-opacity:1;stroke-dasharray:none"
     id="path5251" />
  <path
     inkscape:connector-curvature="0"
     d="m 27.91625,229.43237 c -2.8223,0 -5.5704,-0.55739 -8.1563,-1.65452 -2.5047,-1.06892 -4.7625,-2.59292 -6.7063,-4.53673 -1.9403,-1.94027 -3.4678,-4.19453 -4.5332,-6.70278 -1.0971,-2.58938 -1.6545,-5.33752 -1.6545,-8.15975 l 0,-180.45289 c 0,-2.82575 0.5574,-5.57036 1.6545,-8.15623 1.0654,-2.50825 2.5929,-4.76602 4.5332,-6.7063 1.9438,-1.94381 4.2016,-3.4678102 6.7063,-4.5332002 2.5859,-1.09714 5.334,-1.65805 8.1563,-1.65805 l 324.8201,0 c 2.8187,0 5.5669,0.56091 8.1562,1.65805 2.5048,1.06539 4.7625,2.5893902 6.7028,4.5332002 1.9438,1.94028 3.4678,4.19805 4.5367,6.7063 1.0937,2.58587 1.6546,5.33048 1.6546,8.15623 l 0,180.45289 c 0,2.82223 -0.5609,5.57037 -1.6546,8.15975 -1.0689,2.50825 -2.5929,4.76251 -4.5367,6.70278 -1.9403,1.94381 -4.198,3.46781 -6.7028,4.53673 -2.5893,1.09713 -5.3375,1.65452 -8.1562,1.65452 l -324.8201,0 z"
     style="fill:#155196;fill-opacity:1;fill-rule:nonzero;stroke:none"
     id="path5259" />
  <path
     inkscape:connector-curvature="0"
     d="m 245.62945,109.36196 -5.0623,12.15673 10.1282,0 -5.0659,-12.15673 z m 11.3948,27.1004 -3.5454,-8.48431 -15.6951,0 -3.5454,8.48431 -7.0909,0 15.1906,-36.0927 6.5864,0 15.0601,36.0927 -6.9603,0 z"
     style="fill:#ffffff;fill-opacity:1;fill-rule:nonzero;stroke:none"
     id="path5263" />
  <path
     inkscape:connector-curvature="0"
     d="m 135.14615,109.36196 -5.0623,12.15673 10.1282,0 -5.0659,-12.15673 z m 11.3912,27.1004 -3.5454,-8.48431 -15.6951,0 -3.5419,8.48431 -7.0873,0 15.1836,-36.0927 6.5863,0 15.0637,36.0927 -6.9639,0 z"
     style="fill:#ffffff;fill-opacity:1;fill-rule:nonzero;stroke:none"
     id="path5267" />
  <path
     inkscape:connector-curvature="0"
     d="m 196.11005,136.46094 0,-36.08916 26.4301,0 0,6.45583 -19.8225,0 0,6.71336 10.7985,0 0,6.58636 -10.7985,0 0,9.87425 20.4575,0 0,6.45936 -27.0651,0 z"
     style="fill:#ffffff;fill-opacity:1;fill-rule:nonzero;stroke:none"
     id="path5271" />
  <path
     inkscape:connector-curvature="0"
     d="m 176.48475,106.82798 -10.3893,0 0,8.98877 10.3893,0 c 3.1679,0 5.1893,-1.76741 5.1893,-4.43089 0,-2.78341 -2.0214,-4.55788 -5.1893,-4.55788 m 5.1893,29.63333 -5.8208,-14.18519 -9.7578,0 0,14.18519 -6.4559,0 0,-36.09269 16.7182,0 c 2.6599,0 4.3074,0.381 6.2018,1.52047 3.4184,1.90147 5.5704,5.44689 5.5704,9.49677 0,4.05342 -2.152,7.60237 -5.8209,9.62378 l 6.5793,15.45167 -7.2143,0 z"
     style="fill:#ffffff;fill-opacity:1;fill-rule:nonzero;stroke:none"
     id="path5275" />
  <path
     inkscape:connector-curvature="0"
     d="m 269.43845,200.81219 0,-30.07431 22.031,0 0,5.37986 -16.5206,0 0,5.59506 9.0064,0 0,5.48569 -9.0064,0 0,8.23384 17.0533,0 0,5.37986 -22.5637,0 z"
     style="fill:#ffffff;fill-opacity:1;fill-rule:nonzero;stroke:none"
     id="path5279" />
  <path
     inkscape:connector-curvature="0"
     d="m 228.53675,170.73754 5.4151,0 0,30.07431 -5.4151,0 0,-30.07431 z"
     style="fill:#ffffff;fill-opacity:1;fill-rule:nonzero;stroke:none"
     id="path5281" />
  <path
     inkscape:connector-curvature="0"
     d="m 241.76975,200.81219 0,-30.07431 5.401,0 0,25.43175 17.1592,0 0,4.64256 -22.5602,0 z"
     style="fill:#ffffff;fill-opacity:1;fill-rule:nonzero;stroke:none"
     id="path5285" />
  <path
     inkscape:connector-curvature="0"
     d="m 215.42115,200.81219 0,-18.36209 -8.9006,18.36209 -8.7912,-18.36209 0,18.36209 -5.2987,0 0,-30.07431 5.2987,0 8.7912,17.83292 8.9006,-17.83292 5.2987,0 0,30.07431 -5.2987,0 z"
     style="fill:#ffffff;fill-opacity:1;fill-rule:nonzero;stroke:none"
     id="path5289" />
  <path
     inkscape:connector-curvature="0"
     d="m 92.42835,193.29311 0.1058,-22.47547 -3.7783,0 -0.1023,-4.32859 c 2.3037,-0.52564 3.5666,-1.3723 4.7202,-3.27025 l 4.3004,0 0,30.07431 -5.2458,0 z"
     style="fill:#ffffff;fill-opacity:1;fill-rule:nonzero;stroke:none"
     id="path5293" />
  <path
     inkscape:connector-curvature="0"
     d="m 122.94395,208.33307 c 0,-3.59128 0.7408,-6.23005 2.4342,-9.1828 2.6493,-4.43089 6.4664,-7.17551 11.9803,-8.65364 3.3902,-0.94898 4.5544,-2.00378 4.5544,-3.79942 0,-2.21545 -2.1202,-3.48192 -5.9337,-3.48192 -3.9229,0 -6.7875,0.9525 -9.324,3.27378 l -3.7112,-4.11692 c 3.496,-3.05858 7.8458,-4.64255 12.7177,-4.64255 7.1014,0 11.6593,3.48191 11.6593,8.96761 0,2.53294 -1.0654,4.85422 -3.0763,6.54403 -0.956,0.7373 -2.3318,1.47814 -4.452,2.10961 -4.0252,1.16064 -5.1894,1.6898 -6.9921,3.27378 -1.3793,1.16064 -2.226,2.32127 -3.2879,4.32505 l 17.8083,0 0,5.38339 -24.377,0 z"
     style="fill:#ffffff;fill-opacity:1;fill-rule:nonzero;stroke:none"
     id="path5297" />
  <path
     inkscape:connector-curvature="0"
     d="m 100.66215,208.33307 -5.3693,0 26.2291,-45.11675 5.3728,0 -26.2326,45.11675 z"
     style="fill:#ffffff;fill-opacity:1;fill-rule:nonzero;stroke:none"
     id="path5301" />
  <path
     inkscape:connector-curvature="0"
     d="m 140.06035,46.46521 -5.0588,12.15673 10.1282,0 -5.0694,-12.15673 z m 11.3947,27.1004 -3.5454,-8.48431 -15.6951,0 -3.5454,8.48431 -7.0908,0 15.1906,-36.08917 6.5864,0 15.0636,36.08917 -6.9639,0 z"
     style="fill:#ffffff;fill-opacity:1;fill-rule:nonzero;stroke:none"
     id="path5305" />
  <path
     inkscape:connector-curvature="0"
     d="m 63.96275,74.19778 c -9.4968,0 -15.3212,-7.47183 -15.3212,-18.74308 0,-11.39472 5.8244,-18.61256 15.3212,-18.61256 5.8278,0 11.1407,2.91042 13.9276,7.97631 l -5.6973,3.04094 c -1.0125,-1.52047 -1.5205,-2.02847 -2.533,-2.65994 -1.3935,-1.13947 -3.7959,-1.90147 -5.6973,-1.90147 -6.5829,0 -8.7348,6.45936 -8.7348,12.03325 0,7.8493 3.2879,12.40719 8.7348,12.40719 3.2914,0 5.0658,-1.13594 8.2303,-4.55789 l 5.6973,3.03742 c -2.6599,5.06589 -8.0998,7.97983 -13.9276,7.97983"
     style="fill:#ffffff;fill-opacity:1;fill-rule:nonzero;stroke:none"
     id="path5309" />
  <path
     inkscape:connector-curvature="0"
     d="m 108.95595,73.56383 0,-15.70214 -16.2736,0 0,15.70214 -6.4911,0 0,-36.08917 6.4911,0 0,13.92767 16.2736,0 0,-13.92767 6.4876,0 0,36.08917 -6.4876,0 z"
     style="fill:#ffffff;fill-opacity:1;fill-rule:nonzero;stroke:none"
     id="path5313" />
  <path
     inkscape:connector-curvature="0"
     d="m 164.55335,37.47573 6.4982,0 0,36.08917 -6.4982,0 0,-36.08917 z"
     style="fill:#ffffff;fill-opacity:1;fill-rule:nonzero;stroke:none"
     id="path5315" />
  <path
     inkscape:connector-curvature="0"
     d="m 204.09305,73.56383 -17.2967,-24.82145 0,24.82145 -6.3606,0 0,-36.08917 6.3606,0 16.6547,23.80544 0,-23.80544 6.2371,0 0,36.08917 -5.5951,0 z"
     style="fill:#ffffff;fill-opacity:1;fill-rule:nonzero;stroke:none"
     id="path5319" />
  <path
     inkscape:connector-curvature="0"
     d="m 320.24205,43.93475 -10.9009,0 0,8.98878 10.9009,0 c 3.1573,0 5.3128,-1.77447 5.3128,-4.43089 0,-2.78694 -2.1555,-4.55789 -5.3128,-4.55789 m 6.1983,14.05467 c -2.025,1.13947 -3.6725,1.39347 -6.4559,1.39347 l -10.6433,0 0,14.18167 -6.5828,0 0,-36.08917 17.2261,0 c 2.7834,0 4.4309,0.37747 6.4559,1.52047 3.4184,1.89795 5.5703,5.44337 5.5703,9.49678 0,3.79942 -2.1519,7.59884 -5.5703,9.49678"
     style="fill:#ffffff;fill-opacity:1;fill-rule:nonzero;stroke:none"
     id="path5323" />
  <path
     inkscape:connector-curvature="0"
     d="m 278.75185,74.19778 c -8.5232,0 -14.6297,-6.32883 -14.6297,-15.19414 l 0,-21.53003 6.4875,0 0,21.53003 c 0,2.15195 0.2576,3.29142 1.1466,4.68489 1.397,2.40595 4.0675,3.92642 6.9956,3.92642 2.921,0 5.595,-1.52047 6.9885,-3.92642 0.8925,-1.39347 1.15,-2.65994 1.15,-4.68489 l 0,-21.53003 6.4806,0 0,21.53003 c 0,8.86531 -6.0996,15.19414 -14.6191,15.19414"
     style="fill:#ffffff;fill-opacity:1;fill-rule:nonzero;stroke:none"
     id="path5327" />
  <path
     inkscape:connector-curvature="0"
     d="m 230.15945,52.86037 18.0481,0 0,6.72747 -18.0481,0 0,-6.72747 z"
     style="fill:#ffffff;fill-opacity:1;fill-rule:nonzero;stroke:none"
     id="path5329" />
</svg>
