<?xml version="1.0" encoding="UTF-8" standalone="no"?>
<svg
   xmlns:dc="http://purl.org/dc/elements/1.1/"
   xmlns:cc="http://creativecommons.org/ns#"
   xmlns:rdf="http://www.w3.org/1999/02/22-rdf-syntax-ns#"
   xmlns:svg="http://www.w3.org/2000/svg"
   xmlns="http://www.w3.org/2000/svg"
   xmlns:sodipodi="http://sodipodi.sourceforge.net/DTD/sodipodi-0.dtd"
   xmlns:inkscape="http://www.inkscape.org/namespaces/inkscape"
   width="134.86711"
   height="90.110725"
   viewBox="0 0 380.62499 254.31249"
   version="1.1"
   id="svg2"
   inkscape:version="0.48.2 r9819"
   sodipodi:docname="MUTCD D5-15.svg">
  <metadata
     id="metadata62">
    <rdf:RDF>
      <cc:Work
         rdf:about="">
        <dc:format>image/svg+xml</dc:format>
        <dc:type
           rdf:resource="http://purl.org/dc/dcmitype/StillImage" />
        <dc:title></dc:title>
      </cc:Work>
    </rdf:RDF>
  </metadata>
  <defs
     id="defs60">
    <clipPath
       clipPathUnits="userSpaceOnUse"
       id="clipPath3564">
      <path
         inkscape:connector-curvature="0"
         d="m 63,43 512.622,0 0,313.129 L 63,356.129 63,43 z"
         id="path3566" />
    </clipPath>
  </defs>
  <sodipodi:namedview
     pagecolor="#ffffff"
     bordercolor="#666666"
     borderopacity="1"
     objecttolerance="10"
     gridtolerance="10"
     guidetolerance="10"
     inkscape:pageopacity="0"
     inkscape:pageshadow="2"
     inkscape:window-width="1280"
     inkscape:window-height="1004"
     id="namedview58"
     showgrid="false"
     fit-margin-top="0"
     fit-margin-left="0"
     fit-margin-right="0"
     fit-margin-bottom="0"
     inkscape:zoom="4"
     inkscape:cx="59.966146"
     inkscape:cy="42.866"
     inkscape:window-x="-8"
     inkscape:window-y="-8"
     inkscape:window-maximized="1"
     inkscape:current-layer="svg2"
     showguides="true"
     inkscape:guide-bbox="true" />
  <polygon
     points="235,375 315,205 395,375 315,545 "
     id="polygon10"
     style="fill:none;stroke:#ffffff;stroke-width:40"
     transform="translate(15522.879,10944.556)" />
  <!-- draw the bicycle -->
  <!-- RIGHT -->
  <!-- LANE -->
  <!-- ONLY -->
  <path
     inkscape:connector-curvature="0"
     d="m 379.79045,226.41017 c 0,14.88723 -12.1814,27.06865 -27.0686,27.06865 l -324.8131,0 c -14.8908,0 -27.0687,-12.18142 -27.0687,-27.06865 l 0,-198.501008 c 0,-14.88722 12.1779,-27.0651095 27.0687,-27.0651095 l 324.8131,0 c 14.8872,0 27.0686,12.1778895 27.0686,27.0651095 l 0,198.501008 z"
     style="fill:#ffffff;fill-opacity:1;fill-rule:nonzero;stroke:#000000;stroke-width:1.69333347;stroke-miterlimit:4;stroke-opacity:1;stroke-dasharray:none"
     id="path5175" />
  <path
     inkscape:connector-curvature="0"
     d="m 27.90865,247.46362 c -2.8293,0 -5.5739,-0.56092 -8.1597,-1.65806 -2.5048,-1.06538 -4.7625,-2.58938 -6.7063,-4.53319 -1.9403,-1.94028 -3.4678,-4.19807 -4.5297,-6.70632 -1.1042,-2.58586 -1.6581,-5.334 -1.6581,-8.15622 l 0,-198.497478 c 0,-2.82928 0.5539,-5.57036 1.6581,-8.15975 1.0619,-2.50472 2.5894,-4.7625 4.5297,-6.70631 1.9438,-1.9438 4.2015,-3.4642795 6.7063,-4.5296595 2.5858,-1.10067 5.3304,-1.65806 8.1597,-1.65806 l 324.8131,0 c 2.8293,0 5.5704,0.55739 8.1598,1.65806 2.5047,1.06538 4.7589,2.5858595 6.7063,4.5296595 1.9438,1.94381 3.4678,4.20159 4.5296,6.70631 1.1007,2.58939 1.6581,5.33047 1.6581,8.15975 l 0,198.497478 c 0,2.82222 -0.5574,5.57036 -1.6581,8.15622 -1.0618,2.50825 -2.5858,4.76604 -4.5296,6.70632 -1.9474,1.94381 -4.2016,3.46781 -6.7063,4.53319 -2.5894,1.09714 -5.3305,1.65806 -8.1598,1.65806 l -324.8131,0 z"
     style="fill:#155196;fill-opacity:1;fill-rule:nonzero;stroke:none"
     id="path5199" />
  <path
     inkscape:connector-curvature="0"
     d="m 245.61885,109.34438 -5.0624,12.16025 10.1282,0 -5.0658,-12.16025 z m 11.3911,27.10392 -3.5454,-8.4843 -15.6951,0 -3.5454,8.4843 -7.0873,0 15.1906,-36.09269 6.5793,0 15.0672,36.09269 -6.9639,0 z"
     style="fill:#ffffff;fill-opacity:1;fill-rule:nonzero;stroke:none"
     id="path5203" />
  <path
     inkscape:connector-curvature="0"
     d="m 135.13555,109.34438 -5.0624,12.16025 10.1282,0 -5.0658,-12.16025 z m 11.3947,27.10392 -3.5454,-8.4843 -15.6986,0 -3.5455,8.4843 -7.0908,0 15.1977,-36.09269 6.5793,0 15.0671,36.09269 -6.9638,0 z"
     style="fill:#ffffff;fill-opacity:1;fill-rule:nonzero;stroke:none"
     id="path5207" />
  <path
     inkscape:connector-curvature="0"
     d="m 196.09935,136.44689 0,-36.09269 26.4337,0 0,6.45936 -19.8226,0 0,6.71336 10.795,0 0,6.58636 -10.795,0 0,9.87425 20.4576,0 0,6.45936 -27.0687,0 z"
     style="fill:#ffffff;fill-opacity:1;fill-rule:nonzero;stroke:none"
     id="path5211" />
  <path
     inkscape:connector-curvature="0"
     d="m 176.47785,106.81392 -10.3928,0 0,8.99231 10.3928,0 c 3.1644,0 5.1894,-1.77447 5.1894,-4.43089 0,-2.79047 -2.025,-4.56142 -5.1894,-4.56142 m 5.1894,29.63334 -5.8208,-14.18167 -9.7614,0 0,14.18167 -6.4558,0 0,-36.09269 16.7216,0 c 2.6564,0 4.3004,0.381 6.2019,1.52399 3.4184,1.89442 5.5703,5.43983 5.5703,9.49678 0,4.04989 -2.1519,7.59531 -5.8208,9.62378 l 6.5793,15.44814 -7.2143,0 z"
     style="fill:#ffffff;fill-opacity:1;fill-rule:nonzero;stroke:none"
     id="path5215" />
  <path
     inkscape:connector-curvature="0"
     d="m 140.05325,46.450462 -5.0624,12.15672 10.1282,0 -5.0658,-12.15672 z m 11.3947,27.10039 -3.5454,-8.48431 -15.7022,0 -3.5419,8.48431 -7.0873,0 15.1906,-36.0927 6.5829,0 15.0636,36.0927 -6.9603,0 z"
     style="fill:#ffffff;fill-opacity:1;fill-rule:nonzero;stroke:none"
     id="path5219" />
  <path
     inkscape:connector-curvature="0"
     d="m 63.95235,74.183732 c -9.5003,0 -15.3211,-7.47183 -15.3211,-18.73956 0,-11.40178 5.8208,-18.61961 15.3211,-18.61961 5.8279,0 11.1478,2.91395 13.9312,7.97983 l -5.6974,3.04095 c -1.016,-1.52047 -1.524,-2.02847 -2.5329,-2.65995 -1.397,-1.143 -3.7994,-1.90147 -5.7009,-1.90147 -6.5828,0 -8.7348,6.45936 -8.7348,12.02973 0,7.85283 3.2914,12.41072 8.7348,12.41072 3.2914,0 5.0659,-1.13947 8.2338,-4.55789 l 5.6974,3.03742 c -2.66,5.06589 -8.1033,7.97983 -13.9312,7.97983"
     style="fill:#ffffff;fill-opacity:1;fill-rule:nonzero;stroke:none"
     id="path5223" />
  <path
     inkscape:connector-curvature="0"
     d="m 108.95265,73.549772 0,-15.70214 -16.2842,0 0,15.70214 -6.484,0 0,-36.08917 6.484,0 0,13.92767 16.2842,0 0,-13.92767 6.4841,0 0,36.08917 -6.4841,0 z"
     style="fill:#ffffff;fill-opacity:1;fill-rule:nonzero;stroke:none"
     id="path5227" />
  <path
     inkscape:connector-curvature="0"
     d="m 164.54265,37.458862 6.4982,0 0,36.08916 -6.4982,0 0,-36.08916 z"
     style="fill:#ffffff;fill-opacity:1;fill-rule:nonzero;stroke:none"
     id="path5229" />
  <path
     inkscape:connector-curvature="0"
     d="m 204.07885,73.549772 -17.2967,-24.81791 0,24.81791 -6.3606,0 0,-36.08917 6.3606,0 16.6617,23.80545 0,-23.80545 6.2301,0 0,36.08917 -5.5951,0 z"
     style="fill:#ffffff;fill-opacity:1;fill-rule:nonzero;stroke:none"
     id="path5233" />
  <path
     inkscape:connector-curvature="0"
     d="m 320.22425,43.918922 -10.8973,0 0,8.99231 10.8973,0 c 3.1715,0 5.3164,-1.778 5.3164,-4.43442 0,-2.78694 -2.1449,-4.55789 -5.3164,-4.55789 m 6.2089,14.05467 c -2.025,1.143 -3.6724,1.39347 -6.4558,1.39347 l -10.6504,0 0,14.18167 -6.5793,0 0,-36.08917 17.2297,0 c 2.7834,0 4.4308,0.381 6.4558,1.52047 3.4114,1.89795 5.5668,5.44336 5.5668,9.49678 0,3.79942 -2.1554,7.59884 -5.5668,9.49678"
     style="fill:#ffffff;fill-opacity:1;fill-rule:nonzero;stroke:none"
     id="path5237" />
  <path
     inkscape:connector-curvature="0"
     d="m 278.73755,74.183732 c -8.5196,0 -14.6226,-6.33236 -14.6226,-15.19767 l 0,-21.5265 6.484,0 0,21.5265 c 0,2.15547 0.254,3.29495 1.143,4.68842 1.4006,2.40594 4.0711,3.92289 6.9956,3.92289 2.9281,0 5.5951,-1.51695 6.9956,-3.92289 0.889,-1.39347 1.1465,-2.65995 1.1465,-4.68842 l 0,-21.5265 6.4876,0 0,21.5265 c 0,8.86531 -6.103,15.19767 -14.6297,15.19767"
     style="fill:#ffffff;fill-opacity:1;fill-rule:nonzero;stroke:none"
     id="path5241" />
  <path
     inkscape:connector-curvature="0"
     d="m 230.14875,52.847022 18.0446,0 0,6.72748 -18.0446,0 0,-6.72748 z"
     style="fill:#ffffff;fill-opacity:1;fill-rule:nonzero;stroke:none"
     id="path5243" />
  <path
     inkscape:connector-curvature="0"
     d="m 215.89725,210.7126 c 0.018,-0.0248 0.035,-0.0494 0.049,-0.0741 0.088,-0.16228 0.1553,-0.33161 0.2011,-0.50095 0,-0.0141 0.014,-0.0282 0.017,-0.0459 l 0,0 c 0.014,-0.0564 0.032,-0.11641 0.046,-0.17639 l 0.078,-0.57502 8.1845,-42.2134 0.1093,-0.79727 c 0.1094,-0.79375 -0.1552,-1.58398 -0.6808,-2.11314 -0.6033,-0.59972 -1.397,-0.86431 -2.152,-0.71614 l -0.5256,0.1023 -42.3439,8.25148 -0.7409,0.11994 c -0.4903,0.11289 -0.8678,0.33867 -1.2453,0.71614 -0.9419,0.94192 -0.9772,2.48708 0,3.46781 0.1164,0.11288 0.2999,0.2293 0.4516,0.30338 l 0.4551,0.24695 15.0706,9.26747 -36.8406,33.81728 12.3296,12.32959 33.8208,-36.76298 0,-0.0705 9.1229,14.84136 0.3774,0.53975 c 0.1165,0.1905 0.2293,0.37747 0.381,0.52564 0.942,0.94544 2.5259,0.94544 3.4678,0.003 0.1517,-0.15169 0.2682,-0.3175 0.3705,-0.48683"
     style="fill:#ffffff;fill-opacity:1;fill-rule:nonzero;stroke:none"
     id="path5247" />
</svg>
