<?xml version="1.0" encoding="UTF-8" standalone="no"?>
<svg
   xmlns:dc="http://purl.org/dc/elements/1.1/"
   xmlns:cc="http://creativecommons.org/ns#"
   xmlns:rdf="http://www.w3.org/1999/02/22-rdf-syntax-ns#"
   xmlns:svg="http://www.w3.org/2000/svg"
   xmlns="http://www.w3.org/2000/svg"
   xmlns:sodipodi="http://sodipodi.sourceforge.net/DTD/sodipodi-0.dtd"
   xmlns:inkscape="http://www.inkscape.org/namespaces/inkscape"
   width="151.1774"
   height="75.605309"
   viewBox="0 0 426.65624 213.37498"
   version="1.1"
   id="svg2"
   inkscape:version="0.48.2 r9819"
   sodipodi:docname="MUTCD D5-1.svg">
  <metadata
     id="metadata62">
    <rdf:RDF>
      <cc:Work
         rdf:about="">
        <dc:format>image/svg+xml</dc:format>
        <dc:type
           rdf:resource="http://purl.org/dc/dcmitype/StillImage" />
        <dc:title></dc:title>
      </cc:Work>
    </rdf:RDF>
  </metadata>
  <defs
     id="defs60">
    <clipPath
       clipPathUnits="userSpaceOnUse"
       id="clipPath3564">
      <path
         inkscape:connector-curvature="0"
         d="m 63,43 512.622,0 0,313.129 L 63,356.129 63,43 z"
         id="path3566" />
    </clipPath>
  </defs>
  <sodipodi:namedview
     pagecolor="#ffffff"
     bordercolor="#666666"
     borderopacity="1"
     objecttolerance="10"
     gridtolerance="10"
     guidetolerance="10"
     inkscape:pageopacity="0"
     inkscape:pageshadow="2"
     inkscape:window-width="1280"
     inkscape:window-height="1004"
     id="namedview58"
     showgrid="false"
     fit-margin-top="0"
     fit-margin-left="0"
     fit-margin-right="0"
     fit-margin-bottom="0"
     inkscape:zoom="4.8826952"
     inkscape:cx="86.486957"
     inkscape:cy="29.784329"
     inkscape:window-x="-8"
     inkscape:window-y="-8"
     inkscape:window-maximized="1"
     inkscape:current-layer="svg2"
     showguides="true"
     inkscape:guide-bbox="true" />
  <polygon
     points="395,375 315,545 235,375 315,205 "
     id="polygon10"
     style="fill:none;stroke:#ffffff;stroke-width:40"
     transform="translate(22723.069,7989.6189)" />
  <!-- draw the bicycle -->
  <!-- RIGHT -->
  <!-- LANE -->
  <!-- ONLY -->
  <path
     inkscape:connector-curvature="0"
     d="m 29.35346,0.84671408 367.97544,0 c 15.6704,0 28.4868,12.82347192 28.4868,28.49386192 l 0,154.682474 c 0,15.67039 -12.8164,28.49739 -28.4868,28.49739 l -367.97544,0 c -15.67039,0 -28.49387,-12.827 -28.49387,-28.49739 l 0,-154.682474 c 0,-15.67039 12.82348,-28.49386192 28.49387,-28.49386192"
     style="fill:#ffffff;fill-opacity:1;fill-rule:evenodd;stroke:#000000;stroke-width:1.69333344;stroke-miterlimit:4;stroke-opacity:1;stroke-dasharray:none"
     id="path3302" />
  <path
     inkscape:connector-curvature="0"
     d="m 29.35346,6.7500742 367.97544,0 c 12.4249,0 22.5884,10.1670518 22.5884,22.5918918 l 0,154.682464 c 0,12.42483 -10.1635,22.58836 -22.5884,22.58836 l -367.97544,0 c -12.43189,0 -22.59542,-10.16353 -22.59542,-22.58836 l 0,-154.682464 c 0,-12.42484 10.16353,-22.5918918 22.59542,-22.5918918"
     style="fill:#155196;fill-opacity:1;fill-rule:evenodd;stroke:none"
     id="path3310" />
  <path
     inkscape:connector-curvature="0"
     d="m 84.16451,86.326526 -7.28133,-19.36397 c 3.78178,-1.74625 6.40644,-6.11717 6.40644,-10.48103 0,-4.22275 -2.62466,-8.59014 -6.2618,-10.33992 -2.03906,-1.01953 -4.22275,-1.3088 -7.42245,-1.3088 l -13.68778,0 0,41.49372 6.55109,0 0,-18.05517 7.86342,0 6.69572,18.05517 7.13669,0 z m -7.4295,-29.845 c 0,1.74625 -1.01953,3.4925 -2.61761,4.36386 -1.01953,0.58208 -1.74978,0.73025 -3.7853,0.73025 l -7.86342,0 0,-10.19175 7.86342,0 c 2.18369,0 2.76577,0.14464 3.7853,0.72672 1.59808,0.87489 2.61761,2.62114 2.61761,4.37092"
     style="fill:#ffffff;fill-opacity:1;fill-rule:evenodd;stroke:none"
     id="path3314" />
  <path
     inkscape:connector-curvature="0"
     d="m 91.00137,86.326526 0,-41.49372 24.46161,0 0,6.55108 -17.90699,0 0,10.19175 12.08263,0 0,6.69572 -12.08263,0 0,11.35945 19.21933,0 0,6.69572 -25.77395,0 z"
     style="fill:#ffffff;fill-opacity:1;fill-rule:evenodd;stroke:none"
     id="path3318" />
  <path
     inkscape:connector-curvature="0"
     d="m 144.87404,83.851096 c -2.33186,2.03906 -5.53508,3.20323 -9.02758,3.20323 -7.13317,0 -12.37898,-4.22275 -15.14475,-10.48103 l 6.2618,-2.33186 c 1.74978,3.93347 4.953,6.11716 8.88295,6.11716 3.78178,0 6.40291,-2.62114 6.40291,-6.11716 0,-5.53156 -6.40291,-6.40292 -11.78983,-8.59014 -2.47297,-1.01953 -8.00806,-3.4925 -8.00806,-10.33639 0,-8.1527 5.53509,-11.21128 12.95753,-11.21128 5.82084,0 9.75431,3.34786 11.79336,8.4455 l -5.82436,1.74625 c 0,0 -1.45697,-3.49603 -6.11364,-3.64067 -3.05858,-0.14464 -6.69572,1.01953 -6.40644,4.80484 0.58208,7.71877 20.09069,2.62114 20.09069,18.92652 0,3.78884 -1.45344,7.1367 -4.07458,9.46503"
     style="fill:#ffffff;fill-opacity:1;fill-rule:evenodd;stroke:none"
     id="path3322" />
  <path
     inkscape:connector-curvature="0"
     d="m 168.16443,50.656096 0,35.66936 -6.55108,0 0,-35.66936 -9.46503,0 0,-5.82437 25.62578,0 0,5.82437 -9.60967,0 z"
     style="fill:#ffffff;fill-opacity:1;fill-rule:evenodd;stroke:none"
     id="path3326" />
  <path
     inkscape:connector-curvature="0"
     d="m 267.15038,86.326526 -14.26633,-41.49372 -6.55461,0 -14.26987,41.49372 6.99206,0 4.07458,-11.64872 12.96106,0 4.07458,11.64872 6.98853,0 z m -13.39497,-18.34444 -8.30086,0 4.22627,-11.64873 4.07459,11.64873 z"
     style="fill:#ffffff;fill-opacity:1;fill-rule:evenodd;stroke:none"
     id="path3330" />
  <path
     inkscape:connector-curvature="0"
     d="m 301.5109,86.326526 -7.2778,-19.36397 c 3.7818,-1.74625 6.4029,-6.11717 6.4029,-10.48103 0,-4.22275 -2.6211,-8.59014 -6.2583,-10.33992 -2.0425,-1.01953 -4.2262,-1.3088 -7.4295,-1.3088 l -13.6842,0 0,41.49372 6.5546,0 0,-18.05517 7.8599,0 6.6992,18.05517 7.1332,0 z m -7.426,-29.845 c 0,1.74625 -1.023,3.4925 -2.6211,4.36386 -1.0195,0.58208 -1.7498,0.73025 -3.7853,0.73025 l -7.8599,0 0,-10.19175 7.8599,0 c 2.1837,0 2.7658,0.14464 3.7853,0.72672 1.5981,0.87489 2.6211,2.62114 2.6211,4.37092"
     style="fill:#ffffff;fill-opacity:1;fill-rule:evenodd;stroke:none"
     id="path3334" />
  <path
     inkscape:connector-curvature="0"
     d="m 308.3477,86.326526 0,-41.49372 24.4617,0 0,6.55108 -17.907,0 0,10.19175 12.0861,0 0,6.69572 -12.0861,0 0,11.35945 19.2193,0 0,6.69572 -25.774,0 z"
     style="fill:#ffffff;fill-opacity:1;fill-rule:evenodd;stroke:none"
     id="path3338" />
  <path
     inkscape:connector-curvature="0"
     d="m 372.4122,86.326526 -14.2699,-41.49372 -6.551,0 -14.2699,41.49372 6.992,0 4.0746,-11.64872 12.9576,0 4.0781,11.64872 6.9885,0 z m -13.395,-18.34444 -8.3008,0 4.2262,-11.64873 4.0746,11.64873 z"
     style="fill:#ffffff;fill-opacity:1;fill-rule:evenodd;stroke:none"
     id="path3342" />
  <path
     inkscape:connector-curvature="0"
     d="m 257.00446,170.17827 -7.28133,-19.36398 c 3.78531,-1.74625 6.40644,-6.11716 6.40644,-10.48102 0,-4.22628 -2.62113,-8.59014 -6.2618,-10.33992 -2.03906,-1.01953 -4.22275,-1.30881 -7.42245,-1.30881 l -13.68777,0 0,41.49373 6.55108,0 0,-18.05517 7.86342,0 6.69572,18.05517 7.13669,0 z m -7.4295,-29.845 c 0,1.74625 -1.01952,3.4925 -2.61761,4.36386 -1.01953,0.58208 -1.74978,0.73025 -3.7853,0.73025 l -7.86342,0 0,-10.19175 7.86342,0 c 2.18369,0 2.76577,0.14464 3.7853,0.72672 1.59809,0.87489 2.61761,2.62114 2.61761,4.37092"
     style="fill:#ffffff;fill-opacity:1;fill-rule:evenodd;stroke:none"
     id="path3346" />
  <path
     inkscape:connector-curvature="0"
     d="m 263.84308,128.68454 6.70282,0 0,41.49373 -6.70282,0 0,-41.49373 z"
     style="fill:#ffffff;fill-opacity:1;fill-rule:evenodd;stroke:none"
     id="path3348" />
  <path
     inkscape:connector-curvature="0"
     d="m 294.5647,170.90711 c -6.2618,0 -9.8989,-2.33186 -12.379,-7.57414 -1.7462,-3.63714 -2.7657,-8.73478 -2.7657,-13.82889 0,-6.69572 1.8944,-13.25034 4.6637,-16.891 2.473,-3.05506 5.9655,-4.65667 10.6257,-4.65667 6.4064,0 10.1917,2.62114 12.9575,9.17222 l -6.2583,2.47297 c -1.7462,-3.63713 -3.496,-4.94947 -6.6992,-4.94947 -3.3479,0 -5.5316,1.45697 -6.9886,5.09764 -1.0195,2.47297 -1.6016,6.25828 -1.6016,9.75431 0,4.36739 0.7303,8.73478 2.0391,11.35591 1.3088,2.32834 3.2032,3.35139 5.6762,3.35139 4.2227,0 7.2813,-2.62466 7.2813,-6.40997 l 0,-1.74625 -7.5706,0 0,-6.55108 14.1217,0 0,8.29733 c 0,7.57414 -5.5316,13.1057 -13.1022,13.1057"
     style="fill:#ffffff;fill-opacity:1;fill-rule:evenodd;stroke:none"
     id="path3352" />
  <path
     inkscape:connector-curvature="0"
     d="m 338.2422,170.17827 0,-18.05517 -15.1413,0 0,18.05517 -6.551,0 0,-41.49373 6.551,0 0,16.74284 15.1413,0 0,-16.74284 6.5546,0 0,41.49373 -6.5546,0 z"
     style="fill:#ffffff;fill-opacity:1;fill-rule:evenodd;stroke:none"
     id="path3356" />
  <path
     inkscape:connector-curvature="0"
     d="m 366.923,134.50786 0,35.66936 -6.5511,0 0,-35.66936 -9.465,0 0,-5.82436 25.6293,0 0,5.82436 -9.6132,0 z"
     style="fill:#ffffff;fill-opacity:1;fill-rule:evenodd;stroke:none"
     id="path3360" />
  <path
     inkscape:connector-curvature="0"
     d="m 73.30601,170.18532 -15.86794,-28.09875 0,28.09875 -6.55109,0 0,-41.49372 6.55109,0 15.14122,26.49714 0,-26.49714 6.55461,0 0,41.49372 -5.82789,0 z"
     style="fill:#ffffff;fill-opacity:1;fill-rule:evenodd;stroke:none"
     id="path3364" />
  <path
     inkscape:connector-curvature="0"
     d="m 88.88821,170.18532 0,-41.49372 24.45808,0 0,6.55108 -17.907,0 0,10.19175 12.08264,0 0,6.69573 -12.08264,0 0,11.35944 19.21581,0 0,6.69572 -25.76689,0 z"
     style="fill:#ffffff;fill-opacity:1;fill-rule:evenodd;stroke:none"
     id="path3368" />
  <path
     inkscape:connector-curvature="0"
     d="m 139.40601,170.18532 -6.69925,-13.83241 -6.69572,13.83241 -7.42597,0 10.33639,-21.40303 -9.60614,-20.09069 7.42244,0 5.969,12.37544 5.97253,-12.37544 7.42245,0 -9.75078,20.09069 10.48103,21.40303 -7.42598,0 z"
     style="fill:#ffffff;fill-opacity:1;fill-rule:evenodd;stroke:none"
     id="path3372" />
  <path
     inkscape:connector-curvature="0"
     d="m 166.04779,134.51492 0,35.66936 -6.55108,0 0,-35.66936 -9.4615,0 0,-5.82437 25.62225,0 0,5.82437 -9.60967,0 z"
     style="fill:#ffffff;fill-opacity:1;fill-rule:evenodd;stroke:none"
     id="path3376" />
</svg>
