<?xml version="1.0" encoding="UTF-8" standalone="no"?>
<svg
   xmlns:dc="http://purl.org/dc/elements/1.1/"
   xmlns:cc="http://creativecommons.org/ns#"
   xmlns:rdf="http://www.w3.org/1999/02/22-rdf-syntax-ns#"
   xmlns:svg="http://www.w3.org/2000/svg"
   xmlns="http://www.w3.org/2000/svg"
   xmlns:sodipodi="http://sodipodi.sourceforge.net/DTD/sodipodi-0.dtd"
   xmlns:inkscape="http://www.inkscape.org/namespaces/inkscape"
   width="295.54501"
   height="163.70078"
   viewBox="0 0 834.09375 461.99996"
   version="1.1"
   id="svg2"
   inkscape:version="0.48.2 r9819"
   sodipodi:docname="MUTCD D5-1.svg">
  <metadata
     id="metadata62">
    <rdf:RDF>
      <cc:Work
         rdf:about="">
        <dc:format>image/svg+xml</dc:format>
        <dc:type
           rdf:resource="http://purl.org/dc/dcmitype/StillImage" />
        <dc:title />
      </cc:Work>
    </rdf:RDF>
  </metadata>
  <defs
     id="defs60">
    <clipPath
       clipPathUnits="userSpaceOnUse"
       id="clipPath3564">
      <path
         inkscape:connector-curvature="0"
         d="m 63,43 512.622,0 0,313.129 L 63,356.129 63,43 z"
         id="path3566" />
    </clipPath>
  </defs>
  <sodipodi:namedview
     pagecolor="#ffffff"
     bordercolor="#666666"
     borderopacity="1"
     objecttolerance="10"
     gridtolerance="10"
     guidetolerance="10"
     inkscape:pageopacity="0"
     inkscape:pageshadow="2"
     inkscape:window-width="1280"
     inkscape:window-height="1004"
     id="namedview58"
     showgrid="false"
     fit-margin-top="0"
     fit-margin-left="0"
     fit-margin-right="0"
     fit-margin-bottom="0"
     inkscape:zoom="2.4413476"
     inkscape:cx="205.37499"
     inkscape:cy="38.368864"
     inkscape:window-x="-8"
     inkscape:window-y="-8"
     inkscape:window-maximized="1"
     inkscape:current-layer="svg2"
     showguides="true"
     inkscape:guide-bbox="true" />
  <polygon
     points="315,205 395,375 315,545 235,375 "
     id="polygon10"
     style="fill:none;stroke:#ffffff;stroke-width:40"
     transform="translate(23453.007,7386.2751)" />
  <!-- draw the bicycle -->
  <!-- RIGHT -->
  <!-- LANE -->
  <!-- ONLY -->
  <path
     inkscape:connector-curvature="0"
     d="m 70.927988,1.6822774 692.243632,0 c 38.11828,0 69.21979,31.0938656 69.21979,69.2274106 l 0,320.156742 c 0,38.13355 -31.10151,69.22741 -69.21979,69.22741 l -692.243632,0 c -38.125919,0 -69.2274103,-31.09386 -69.2274103,-69.22741 l 0,-320.156742 c 0,-37.659651 31.5677593,-69.2274106 69.2274103,-69.2274106"
     style="fill:#ffffff;fill-opacity:1;fill-rule:nonzero;stroke:#000000;stroke-width:3.38666677;stroke-miterlimit:4;stroke-opacity:1;stroke-dasharray:none"
     id="path3254" />
  <path
     inkscape:connector-curvature="0"
     d="m 71.05411,12.061401 691.97614,0 c 32.17161,0.236947 58.92394,26.668249 58.96981,58.969793 l 0,319.904496 c -0.0489,32.28627 -26.79057,58.74814 -58.96981,58.95452 l -691.97614,0 C 38.744916,449.68383 12.313615,423.20667 12.084295,390.93569 l 0,-319.904496 C 12.305967,38.72965 38.752566,12.298348 71.05411,12.061401"
     style="fill:#155196;fill-opacity:1;fill-rule:evenodd;stroke:none"
     id="path3278" />
  <path
     inkscape:connector-curvature="0"
     d="m 614.81231,373.76302 0,-16.85398 -48.34532,0 0,-28.56386 30.3983,0 0,-16.84633 -30.3983,0 0,-25.64404 45.05095,0 0,-16.48707 -61.53803,0 0,104.39528 64.8324,0 z m -80.21119,0 0,-15.40171 -48.35293,0 0,-88.99357 -16.4718,0 0,104.39528 64.82473,0 z m -89.37574,-104.39528 -16.84635,0 0,104.39528 16.84635,0 0,-104.39528 z m -41.75658,104.39528 0,-104.39528 -16.47944,0 -24.19178,58.60291 -24.16118,-58.60291 -16.48709,0 0,104.39528 16.48709,0 0,-60.43737 24.16118,60.43737 24.19178,-60.43737 0,60.43737 16.47944,0 z m -153.33681,17.08328 0,-138.83702 -17.54188,0 c -3.90584,5.35047 -10.23467,8.76712 -16.07435,8.76712 l -1.45228,0 0,17.52661 12.65006,0 0,112.54329 22.41845,0 z"
     style="fill:#ffffff;fill-opacity:1;fill-rule:evenodd;stroke:none"
     id="path3282" />
  <path
     inkscape:connector-curvature="0"
     d="m 742.4982,145.89801 -20.86682,0 10.6245,-29.30528 10.24232,29.30528 z m 33.7003,46.1516 -35.89398,-104.395276 -16.4718,0 -35.91693,104.395276 17.59538,0 10.25762,-29.3129 32.592,0 10.25763,29.3129 17.58008,0 z m -96.3237,0 0,-16.85397 -48.35296,0 0,-28.5715 30.39831,0 0,-16.84632 -30.39831,0 0,-25.64404 45.04331,0 0,-16.479446 -61.53039,0 0,104.395276 64.84004,0 z M 579.15605,116.96726 c 0,4.37975 -2.56824,8.79007 -6.60401,10.97611 -2.56824,1.46755 -4.39503,1.83445 -9.51621,1.83445 l -19.78142,0 0,-25.64404 19.78142,0 c 5.48807,0 6.94797,0.3669 9.51621,1.83445 4.03577,2.20134 6.60401,6.59636 6.60401,10.99903 m 18.67313,75.08235 -18.30625,-48.71983 c 9.51618,-4.40266 16.09727,-15.38641 16.09727,-26.36252 0,-10.63214 -6.58109,-21.615879 -15.73802,-26.003275 -5.12116,-2.568217 -10.6245,-3.309651 -18.69607,-3.309651 l -34.41114,0 0,104.395276 16.47944,0 0,-45.42547 19.78142,0 16.84635,45.42547 17.947,0 z m -120.50784,-46.1516 -20.87448,0 10.63215,-29.30528 10.24233,29.30528 z m 33.70032,46.1516 -35.89402,-104.395276 -16.47944,0 -35.90928,104.395276 17.58011,0 10.27288,-29.3129 32.58437,0 10.26526,29.3129 17.58012,0 z m -146.50348,-89.75026 0,-14.645016 -64.46551,0 0,14.645016 23.8096,0 0,89.75026 16.47944,0 0,-89.75026 24.17647,0 z m -72.52178,59.70357 c 0,-41.01516 -49.08673,-28.19696 -50.56193,-47.61152 -0.71849,-9.51619 8.43081,-12.44366 16.12783,-12.09205 11.71752,0.38216 15.37114,9.17222 15.37114,9.17222 l 14.64498,-4.41032 C 282.47257,94.250713 272.5742,85.827528 257.92918,85.827528 c -18.67312,0 -32.59962,7.6894 -32.59962,28.212262 0,17.20558 13.9265,23.42741 20.14833,25.99564 13.54433,5.49569 29.66454,7.68938 29.66454,21.60824 0,8.78242 -6.59637,15.37877 -16.12021,15.37877 -9.89073,0 -17.95463,-5.48804 -22.33438,-15.37877 l -15.76095,5.85495 c 6.97089,15.76094 20.1407,26.44659 38.09533,26.44659 8.79005,0 16.8387,-2.99627 22.70128,-8.1327 6.61164,-5.85494 10.2729,-14.27811 10.2729,-23.80959 m -80.9526,30.04669 0,-16.85397 -48.34532,0 0,-28.5715 30.40594,0 0,-16.84632 -30.40594,0 0,-25.64404 45.05097,0 0,-16.479446 -61.53804,0 0,104.395276 64.83239,0 z M 110.3174,116.96726 c 0,4.37975 -2.56057,8.79007 -6.58871,10.97611 -2.56059,1.46755 -4.395023,1.83445 -9.53148,1.83445 l -19.773801,0 0,-25.64404 19.773801,0 c 5.49569,0 6.97089,0.3669 9.53148,1.83445 4.02814,2.20134 6.58871,6.59636 6.58871,10.99903 m 18.68078,75.08235 -18.31388,-48.71983 c 9.52383,-4.40266 16.12019,-15.38641 16.12019,-26.36252 0,-10.63214 -6.59636,-21.615879 -15.7533,-26.003275 -5.12881,-2.568217 -10.61686,-3.309651 -18.680786,-3.309651 l -34.42644,0 0,104.395276 16.479445,0 0,-45.42547 19.773801,0 16.85398,45.42547 17.94699,0 z"
     style="fill:#ffffff;fill-opacity:1;fill-rule:evenodd;stroke:none"
     id="path3286" />
</svg>
