<?xml version="1.0" encoding="UTF-8" standalone="no"?>
<svg
   xmlns:dc="http://purl.org/dc/elements/1.1/"
   xmlns:cc="http://creativecommons.org/ns#"
   xmlns:rdf="http://www.w3.org/1999/02/22-rdf-syntax-ns#"
   xmlns:svg="http://www.w3.org/2000/svg"
   xmlns="http://www.w3.org/2000/svg"
   xmlns:sodipodi="http://sodipodi.sourceforge.net/DTD/sodipodi-0.dtd"
   xmlns:inkscape="http://www.inkscape.org/namespaces/inkscape"
   width="173.23448"
   height="90.110725"
   viewBox="0 0 488.90624 254.31249"
   version="1.1"
   id="svg2"
   inkscape:version="0.48.2 r9819"
   sodipodi:docname="MUTCD D5-13.svg">
  <metadata
     id="metadata62">
    <rdf:RDF>
      <cc:Work
         rdf:about="">
        <dc:format>image/svg+xml</dc:format>
        <dc:type
           rdf:resource="http://purl.org/dc/dcmitype/StillImage" />
        <dc:title></dc:title>
      </cc:Work>
    </rdf:RDF>
  </metadata>
  <defs
     id="defs60">
    <clipPath
       clipPathUnits="userSpaceOnUse"
       id="clipPath3564">
      <path
         inkscape:connector-curvature="0"
         d="m 63,43 512.622,0 0,313.129 L 63,356.129 63,43 z"
         id="path3566" />
    </clipPath>
  </defs>
  <sodipodi:namedview
     pagecolor="#ffffff"
     bordercolor="#666666"
     borderopacity="1"
     objecttolerance="10"
     gridtolerance="10"
     guidetolerance="10"
     inkscape:pageopacity="0"
     inkscape:pageshadow="2"
     inkscape:window-width="1280"
     inkscape:window-height="1004"
     id="namedview58"
     showgrid="false"
     fit-margin-top="0"
     fit-margin-left="0"
     fit-margin-right="0"
     fit-margin-bottom="0"
     inkscape:zoom="3.4525869"
     inkscape:cx="91.302541"
     inkscape:cy="-3.0481137"
     inkscape:window-x="-8"
     inkscape:window-y="-8"
     inkscape:window-maximized="1"
     inkscape:current-layer="svg2"
     showguides="true"
     inkscape:guide-bbox="true" />
  <polygon
     points="395,375 315,545 235,375 315,205 "
     id="polygon10"
     style="fill:none;stroke:#ffffff;stroke-width:40"
     transform="translate(18145.567,10302.806)" />
  <!-- draw the bicycle -->
  <!-- RIGHT -->
  <!-- LANE -->
  <!-- ONLY -->
  <path
     inkscape:connector-curvature="0"
     d="m 488.06215,226.41018 c 0,14.88722 -12.1814,27.06864 -27.0722,27.06864 l -433.08762,0 c -14.8837,0 -27.06864,-12.18142 -27.06864,-27.06864 l 0,-198.501017 c 0,-14.88722 12.18494,-27.0651096 27.06864,-27.0651096 l 433.08762,0 c 14.8908,0 27.0722,12.1778896 27.0722,27.0651096 l 0,198.501017 z"
     style="fill:#ffffff;fill-opacity:1;fill-rule:nonzero;stroke:#000000;stroke-width:1.69333346;stroke-miterlimit:4;stroke-opacity:1;stroke-dasharray:none"
     id="path5333" />
  <path
     inkscape:connector-curvature="0"
     d="m 27.90196,247.46362 c -2.82222,0 -5.57036,-0.56092 -8.15622,-1.65806 -2.50825,-1.06539 -4.76603,-2.58939 -6.70631,-4.53319 -1.9438,-1.94028 -3.4678,-4.19806 -4.53319,-6.70631 -1.09714,-2.58586 -1.65453,-5.334 -1.65453,-8.15622 l 0,-198.497487 c 0,-2.82928 0.55739,-5.57036 1.65453,-8.15975 1.06539,-2.50472 2.58939,-4.7625 4.53319,-6.7063 1.94028,-1.94381 4.19806,-3.4642796 6.70631,-4.5296696 2.58586,-1.10067 5.334,-1.65806 8.15622,-1.65806 l 433.08769,0 c 2.8293,0 5.5703,0.55739 8.1562,1.65806 2.5047,1.06539 4.7625,2.5858596 6.7098,4.5296696 1.9403,1.9438 3.4643,4.20158 4.5297,6.7063 1.1007,2.58939 1.6581,5.33047 1.6581,8.15975 l 0,198.497487 c 0,2.82222 -0.5574,5.57036 -1.6581,8.15622 -1.0654,2.50825 -2.5894,4.76603 -4.5297,6.70631 -1.9473,1.9438 -4.2051,3.4678 -6.7098,4.53319 -2.5859,1.09714 -5.3269,1.65806 -8.1562,1.65806 l -433.08769,0 z"
     style="fill:#155196;fill-opacity:1;fill-rule:nonzero;stroke:none"
     id="path5341" />
  <path
     inkscape:connector-curvature="0"
     d="m 138.37786,46.056053 -5.06589,12.15673 10.12825,0 -5.06236,-12.15673 z m 11.39119,27.10039 -3.54188,-8.4843 -15.69862,0 -3.54541,8.4843 -7.08731,0 15.18709,-36.09269 6.58283,0 15.06714,36.09269 -6.96384,0 z"
     style="fill:#ffffff;fill-opacity:1;fill-rule:nonzero;stroke:none"
     id="path5345" />
  <path
     inkscape:connector-curvature="0"
     d="m 67.12027,57.201013 -10.30464,0 0,9.49678 10.30464,0 c 3.43253,0 5.84906,-1.90147 5.84906,-4.56142 0,-2.78342 -2.54706,-4.93536 -5.84906,-4.93536 m 0,-13.6772 -10.30464,0 0,7.21784 10.30464,0 c 2.79753,0 4.70606,-1.51695 4.70606,-3.67242 0,-2.15194 -1.78153,-3.54542 -4.70606,-3.54542 m 6.86506,28.10934 c -1.78153,1.016 -3.69006,1.524 -5.59859,1.524 l -1.778,0 -16.40416,0 0,-36.0927 16.91569,0 c 3.175,0 4.32153,0.254 6.22653,1.26648 3.05506,1.77447 4.96006,4.81188 4.96006,8.23383 0,2.91042 -1.143,5.44336 -3.55953,7.46831 3.17853,2.28247 4.70958,5.06588 4.70958,8.4843 0,3.67242 -2.16605,7.34484 -5.47158,9.11578"
     style="fill:#ffffff;fill-opacity:1;fill-rule:nonzero;stroke:none"
     id="path5349" />
  <path
     inkscape:connector-curvature="0"
     d="m 277.09717,73.787923 c -9.49325,0 -15.32114,-7.46831 -15.32114,-18.73956 0,-11.39825 5.82789,-18.61608 15.32114,-18.61608 5.82437,0 11.14426,2.91394 13.92767,7.9763 l -5.69383,3.04095 c -1.016,-1.52048 -1.524,-2.02848 -2.53647,-2.65995 -1.39348,-1.13947 -3.79942,-1.89794 -5.69737,-1.89794 -6.58283,0 -8.7383,6.45936 -8.7383,12.02972 0,7.84931 3.29142,12.41072 8.7383,12.41072 3.29142,0 5.06942,-1.13947 8.23384,-4.56141 l 5.69383,3.04094 c -2.65641,5.06589 -8.1033,7.97631 -13.92767,7.97631"
     style="fill:#ffffff;fill-opacity:1;fill-rule:nonzero;stroke:none"
     id="path5353" />
  <path
     inkscape:connector-curvature="0"
     d="m 386.48685,73.787923 c -9.49677,0 -15.32114,-7.46831 -15.32114,-18.73956 0,-11.39825 5.82437,-18.61608 15.32114,-18.61608 5.8244,0 11.1442,2.91394 13.9312,7.9763 l -5.7009,3.04095 c -1.0089,-1.52048 -1.5205,-2.02848 -2.5329,-2.65995 -1.3865,-1.13947 -3.7959,-1.89794 -5.6974,-1.89794 -6.58283,0 -8.7383,6.45936 -8.7383,12.02972 0,7.84931 3.29141,12.41072 8.7383,12.41072 3.2914,0 5.0659,-1.13947 8.2303,-4.56141 l 5.7009,3.04094 c -2.66,5.06589 -8.1068,7.97631 -13.9312,7.97631"
     style="fill:#ffffff;fill-opacity:1;fill-rule:nonzero;stroke:none"
     id="path5357" />
  <path
     inkscape:connector-curvature="0"
     d="m 198.61504,73.157153 0,-36.0927 26.43364,0 0,6.45936 -19.82259,0 0,6.70984 10.80206,0 0,6.58636 -10.80206,0 0,9.87778 20.45759,0 0,6.45936 -27.06864,0 z"
     style="fill:#ffffff;fill-opacity:1;fill-rule:nonzero;stroke:none"
     id="path5361" />
  <path
     inkscape:connector-curvature="0"
     d="m 337.96227,73.157153 0,-36.0927 26.43011,0 0,6.45936 -19.82258,0 0,6.70984 10.80205,0 0,6.58636 -10.80205,0 0,9.87778 20.46111,0 0,6.45936 -27.06864,0 z"
     style="fill:#ffffff;fill-opacity:1;fill-rule:nonzero;stroke:none"
     id="path5365" />
  <path
     inkscape:connector-curvature="0"
     d="m 322.09079,73.157153 0,-15.70567 -16.27716,0 0,15.70567 -6.48759,0 0,-36.0927 6.48759,0 0,13.9312 16.27716,0 0,-13.9312 6.48759,0 0,36.0927 -6.48759,0 z"
     style="fill:#ffffff;fill-opacity:1;fill-rule:nonzero;stroke:none"
     id="path5369" />
  <path
     inkscape:connector-curvature="0"
     d="m 185.47406,73.157153 -9.271,-18.74308 -6.858,8.6113 0,10.13178 -6.477,0 0,-36.0927 6.477,0 0,15.70567 12.83053,-15.70567 8.382,0 -9.65553,11.77573 11.938,24.31697 -7.366,0 z"
     style="fill:#ffffff;fill-opacity:1;fill-rule:nonzero;stroke:none"
     id="path5373" />
  <path
     inkscape:connector-curvature="0"
     d="m 431.32805,73.157153 -9.2745,-18.74308 -6.8545,8.6113 0,10.13178 -6.477,0 0,-36.0927 6.477,0 0,15.70567 12.82,-15.70567 8.3855,0 -9.6485,11.77573 11.9345,24.31697 -7.3625,0 z"
     style="fill:#ffffff;fill-opacity:1;fill-rule:nonzero;stroke:none"
     id="path5377" />
  <path
     inkscape:connector-curvature="0"
     d="m 103.52378,43.523813 -10.39636,0 0,8.98878 10.39636,0 c 3.15736,0 5.18936,-1.77094 5.18936,-4.43089 0,-2.78694 -2.032,-4.55789 -5.18936,-4.55789 m 5.18936,29.63334 -5.82789,-14.1852 -9.75783,0 0,14.1852 -6.45231,0 0,-36.0927 16.72167,0 c 2.65289,0 4.30036,0.37748 6.20183,1.52048 3.41489,1.89794 5.56684,5.44688 5.56684,9.49677 0,4.05342 -2.15195,7.59884 -5.82436,9.62378 l 6.58283,15.45167 -7.21078,0 z"
     style="fill:#ffffff;fill-opacity:1;fill-rule:nonzero;stroke:none"
     id="path5381" />
  <path
     inkscape:connector-curvature="0"
     d="m 299.74938,109.34755 -5.06237,12.15673 10.12826,0 -5.06589,-12.15673 z m 11.39119,27.1004 -3.54189,-8.48784 -15.69861,0 -3.54542,8.48784 -7.0873,0 15.19061,-36.0927 6.58636,0 15.06008,36.0927 -6.96383,0 z"
     style="fill:#ffffff;fill-opacity:1;fill-rule:nonzero;stroke:none"
     id="path5385" />
  <path
     inkscape:connector-curvature="0"
     d="m 189.26961,109.34755 -5.06589,12.15673 10.12825,0 -5.06236,-12.15673 z m 11.3912,27.1004 -3.54542,-8.48784 -15.69508,0 -3.54895,8.48784 -7.0873,0 15.19414,-36.0927 6.5793,0 15.06714,36.0927 -6.96383,0 z"
     style="fill:#ffffff;fill-opacity:1;fill-rule:nonzero;stroke:none"
     id="path5389" />
  <path
     inkscape:connector-curvature="0"
     d="m 250.23312,136.4469 0,-36.08917 26.43011,0 0,6.45584 -19.82258,0 0,6.70983 10.80205,0 0,6.58989 -10.80205,0 0,9.87425 20.45758,0 0,6.45936 -27.06511,0 z"
     style="fill:#ffffff;fill-opacity:1;fill-rule:nonzero;stroke:none"
     id="path5393" />
  <path
     inkscape:connector-curvature="0"
     d="m 230.60845,106.81393 -10.39283,0 0,8.99231 10.39283,0 c 3.16442,0 5.18937,-1.77447 5.18937,-4.43089 0,-2.79047 -2.02495,-4.56142 -5.18937,-4.56142 m 5.18937,29.63334 -5.82437,-14.1852 -9.75783,0 0,14.1852 -6.45583,0 0,-36.0927 16.72166,0 c 2.65642,0 4.30389,0.381 6.20184,1.52047 3.41842,1.90148 5.57036,5.44336 5.57036,9.50031 0,4.04989 -2.15194,7.59531 -5.82083,9.62378 l 6.5793,15.44814 -7.2143,0 z"
     style="fill:#ffffff;fill-opacity:1;fill-rule:nonzero;stroke:none"
     id="path5397" />
  <path
     inkscape:connector-curvature="0"
     d="m 270.02748,210.71261 c 0.0178,-0.0248 0.0318,-0.0494 0.0494,-0.0741 0.0882,-0.16228 0.15522,-0.33161 0.20461,-0.50095 0,-0.0141 0.0104,-0.0282 0.0141,-0.0459 l -0.004,0 c 0.0107,-0.0564 0.0317,-0.11641 0.0459,-0.17639 l 0.0776,-0.57502 8.18445,-42.2134 0.10936,-0.79727 c 0.10936,-0.79375 -0.15522,-1.58398 -0.68086,-2.11314 -0.60325,-0.59973 -1.397,-0.86431 -2.15195,-0.71614 l -0.52563,0.1023 -42.3404,8.25148 -0.74436,0.11994 c -0.49036,0.11289 -0.8643,0.33867 -1.2453,0.71614 -0.94192,0.94192 -0.9772,2.48708 0,3.46781 0.11641,0.11288 0.29986,0.2293 0.45155,0.30338 l 0.45509,0.24695 15.07066,9.26747 -36.83705,33.81728 12.32958,12.32959 33.81728,-36.76298 0,-0.0705 9.12283,14.84136 0.38453,0.53975 c 0.10936,0.1905 0.22225,0.37747 0.37395,0.52564 0.94191,0.94544 2.52588,0.94544 3.47133,0.003 0.14817,-0.15169 0.26458,-0.3175 0.36689,-0.48683"
     style="fill:#ffffff;fill-opacity:1;fill-rule:nonzero;stroke:none"
     id="path5401" />
</svg>
