<?xml version="1.0" encoding="UTF-8" standalone="no"?>
<svg
   xmlns:dc="http://purl.org/dc/elements/1.1/"
   xmlns:cc="http://creativecommons.org/ns#"
   xmlns:rdf="http://www.w3.org/1999/02/22-rdf-syntax-ns#"
   xmlns:svg="http://www.w3.org/2000/svg"
   xmlns="http://www.w3.org/2000/svg"
   xmlns:sodipodi="http://sodipodi.sourceforge.net/DTD/sodipodi-0.dtd"
   xmlns:inkscape="http://www.inkscape.org/namespaces/inkscape"
   width="459.77731"
   height="194.74901"
   viewBox="0 0 1297.5938 549.62498"
   version="1.1"
   id="svg2"
   inkscape:version="0.48.2 r9819"
   sodipodi:docname="AJAX1.svg">
  <metadata
     id="metadata62">
    <rdf:RDF>
      <cc:Work
         rdf:about="">
        <dc:format>image/svg+xml</dc:format>
        <dc:type
           rdf:resource="http://purl.org/dc/dcmitype/StillImage" />
        <dc:title />
      </cc:Work>
    </rdf:RDF>
  </metadata>
  <defs
     id="defs60">
    <clipPath
       clipPathUnits="userSpaceOnUse"
       id="clipPath3564">
      <path
         inkscape:connector-curvature="0"
         d="m 63,43 512.622,0 0,313.129 L 63,356.129 63,43 z"
         id="path3566" />
    </clipPath>
  </defs>
  <sodipodi:namedview
     pagecolor="#ffffff"
     bordercolor="#666666"
     borderopacity="1"
     objecttolerance="10"
     gridtolerance="10"
     guidetolerance="10"
     inkscape:pageopacity="0"
     inkscape:pageshadow="2"
     inkscape:window-width="1280"
     inkscape:window-height="1004"
     id="namedview58"
     showgrid="false"
     fit-margin-top="0"
     fit-margin-left="0"
     fit-margin-right="0"
     fit-margin-bottom="0"
     inkscape:zoom="1.2206738"
     inkscape:cx="243.54381"
     inkscape:cy="56.305914"
     inkscape:window-x="-8"
     inkscape:window-y="-8"
     inkscape:window-maximized="1"
     inkscape:current-layer="svg2"
     showguides="true"
     inkscape:guide-bbox="true" />
  <polygon
     points="395,375 315,545 235,375 315,205 "
     id="polygon10"
     style="fill:none;stroke:#ffffff;stroke-width:40"
     transform="translate(23687.32,7119.4939)" />
  <!-- draw the bicycle -->
  <!-- RIGHT -->
  <!-- LANE -->
  <!-- ONLY -->
  <path
     inkscape:connector-curvature="0"
     d="m 1294.7759,478.8294 c 0,37.39205 -30.5811,67.98556 -67.9732,67.98556 l -1155.95425,0 c -37.392,0 -68.0107,-30.59351 -68.0107,-67.98556 l 0,-407.98834 c 0,-37.404568 30.6187,-68.0105403 68.0107,-68.0105403 l 1155.95425,0 c 37.392,0 67.9732,30.6059723 67.9732,68.0105403 l 0,407.98834 z"
     style="fill:#ffffff;fill-opacity:1;fill-rule:nonzero;stroke:#000000;stroke-width:5.64444447;stroke-miterlimit:4;stroke-opacity:1;stroke-dasharray:none"
     id="path3190" />
  <path
     inkscape:connector-curvature="0"
     d="m 70.84845,524.15727 c -12.0351,0 -23.4078,-4.7365 -32.0059,-13.34717 -8.5858,-8.59817 -13.347,-19.95826 -13.347,-31.9807 l 0,-407.98834 c 0,-12.047423 4.7612,-23.39504 13.347,-31.99321 8.5981,-8.610674 19.9708,-13.347141 32.0059,-13.347141 l 1155.95425,0 c 12.0351,0 23.3826,4.736467 31.9932,13.347141 8.5981,8.59817 13.3349,19.945787 13.3349,31.99321 l 0,407.98834 c 0,12.02244 -4.7368,23.38253 -13.3349,31.9807 -8.6106,8.61067 -19.9581,13.34717 -31.9932,13.34717 l -1155.95425,0 z"
     style="fill:#155196;fill-opacity:1;fill-rule:nonzero;stroke:none"
     id="path3214" />
  <path
     inkscape:connector-curvature="0"
     d="m 573.61665,349.59435 -15.8841,38.16689 31.8057,0 -15.9216,-38.16689 z m 35.7674,85.09443 -11.1102,-26.65683 -49.3021,0 -11.1353,26.65683 -22.2575,0 47.7147,-113.33843 20.6456,0 47.3275,113.33843 -21.8827,0 z"
     style="fill:#ffffff;fill-opacity:1;fill-rule:nonzero;stroke:none"
     id="path3218" />
  <path
     inkscape:connector-curvature="0"
     d="m 758.24715,321.35165 20.3707,0 0,113.33844 -20.3707,0 0,-113.33844 z"
     style="fill:#ffffff;fill-opacity:1;fill-rule:nonzero;stroke:none"
     id="path3220" />
  <path
     inkscape:connector-curvature="0"
     d="m 452.69225,339.64647 c -17.1339,0 -27.5069,14.30946 -27.5069,38.16688 0,24.25736 10.373,38.57931 27.5069,38.57931 21.5079,0 26.7066,-21.07051 26.7066,-38.57931 0,-23.85742 -9.5855,-38.16688 -26.7066,-38.16688 m 0,97.0294 c -33.4803,0 -48.2273,-30.23109 -48.2273,-58.86252 0,-36.17981 18.3335,-58.45008 48.2273,-58.45008 27.8817,0 47.0398,23.45752 47.0398,58.05017 0,35.40499 -18.3586,59.26243 -47.0398,59.26243"
     style="fill:#ffffff;fill-opacity:1;fill-rule:nonzero;stroke:none"
     id="path3224" />
  <path
     inkscape:connector-curvature="0"
     d="m 843.58305,383.82468 c -5.0616,-1.3997 -17.7464,-4.43655 -22.0205,-6.94851 -8.5482,-4.99893 -15.0591,-13.18471 -15.0591,-25.30714 0,-18.68353 15.984,-31.40583 39.1289,-31.40583 16.7715,0 30.7562,5.56132 42.3414,17.49629 l -15.1721,13.50963 c -7.1857,-7.5484 -16.3839,-11.13514 -27.1693,-11.13514 -11.5724,0 -18.3586,4.37407 -18.3586,11.53505 0,6.36114 3.9745,9.14806 17.9714,12.33487 15.1717,3.17434 25.1571,6.36116 31.5557,9.548 9.9854,5.1739 16.3592,15.89661 16.3592,28.219 0,11.53505 -5.1863,20.28318 -15.9717,26.64433 -7.9732,4.77398 -18.3713,7.5484 -28.7563,7.5484 -19.5708,0 -34.3429,-7.14848 -47.1025,-21.85787 l 16.3464,-12.72228 c 8.3983,9.93538 17.5838,14.30945 30.3686,14.30945 14.3593,0 24.7571,-6.36116 24.7571,-14.70936 0,-10.64775 -11.5725,-12.18494 -29.2186,-17.05889"
     style="fill:#ffffff;fill-opacity:1;fill-rule:nonzero;stroke:none"
     id="path3228" />
  <path
     inkscape:connector-curvature="0"
     d="m 685.99245,383.82468 c -5.0488,-1.3997 -17.746,-4.43655 -22.0077,-6.94851 -8.5482,-4.99893 -15.0591,-13.18471 -15.0591,-25.30714 0,-18.68353 15.9589,-31.40583 39.1417,-31.40583 16.7712,0 30.731,5.56132 42.3282,17.49629 l -15.1841,13.50963 c -7.1984,-7.5484 -16.3715,-11.13514 -27.1441,-11.13514 -11.5852,0 -18.3713,4.37407 -18.3713,11.53505 0,6.36114 3.9744,9.14806 17.9586,12.33487 15.1844,3.17434 25.1698,6.36116 31.5436,9.548 9.9978,5.1739 16.3712,15.89661 16.3712,28.219 0,11.53505 -5.1739,20.28318 -15.9588,26.64433 -7.986,4.77398 -18.3838,7.5484 -28.7564,7.5484 -19.5712,0 -34.3429,-7.14848 -47.1276,-21.85787 l 16.3715,-12.72228 c 8.3984,9.93538 17.5711,14.30945 30.3686,14.30945 14.3718,0 24.7447,-6.36116 24.7447,-14.70936 0,-10.64775 -11.5724,-12.18494 -29.219,-17.05889"
     style="fill:#ffffff;fill-opacity:1;fill-rule:nonzero;stroke:none"
     id="path3232" />
  <path
     inkscape:connector-curvature="0"
     d="m 889.37445,145.60028 -15.9217,38.16689 31.8058,0 -15.8841,-38.16689 z m 35.755,85.09443 -11.1226,-26.65684 -49.3148,0 -11.0974,26.65684 -22.2703,0 47.7023,-113.33843 20.6704,0 47.2775,113.33843 -21.8451,0 z"
     style="fill:#ffffff;fill-opacity:1;fill-rule:nonzero;stroke:none"
     id="path3236" />
  <path
     inkscape:connector-curvature="0"
     d="m 417.54835,230.69471 0,-113.33843 83.0074,0 0,20.28319 -62.2619,0 0,21.07053 33.9303,0 0,20.6831 -33.9303,0 0,31.01841 64.2489,0 0,20.2832 -84.9944,0 z"
     style="fill:#ffffff;fill-opacity:1;fill-rule:nonzero;stroke:none"
     id="path3240" />
  <path
     inkscape:connector-curvature="0"
     d="m 1060.3382,230.69471 0,-113.33843 82.9822,0 0,20.28319 -62.2367,0 0,21.07053 33.9054,0 0,20.6831 -33.9054,0 0,31.01841 64.2365,0 0,20.2832 -84.982,0 z"
     style="fill:#ffffff;fill-opacity:1;fill-rule:nonzero;stroke:none"
     id="path3244" />
  <path
     inkscape:connector-curvature="0"
     d="m 152.28855,117.35748 20.408,0 0,113.33843 -20.408,0 0,-113.33843 z"
     style="fill:#ffffff;fill-opacity:1;fill-rule:nonzero;stroke:none"
     id="path3246" />
  <path
     inkscape:connector-curvature="0"
     d="m 276.44205,230.69471 -54.2883,-77.94595 0,77.94595 -19.9831,0 0,-113.33843 19.9831,0 52.2889,74.75912 0,-74.75912 19.5708,0 0,113.33843 -17.5714,0 z"
     style="fill:#ffffff;fill-opacity:1;fill-rule:nonzero;stroke:none"
     id="path3250" />
  <path
     inkscape:connector-curvature="0"
     d="m 578.11565,137.63937 -32.6432,0 0,28.2315 32.6432,0 c 9.9227,0 16.2965,-5.56131 16.2965,-13.92204 0,-8.74814 -6.3738,-14.30946 -16.2965,-14.30946 m 16.2965,93.05524 -18.2838,-44.54054 -30.6559,0 0,44.54054 -20.2581,0 0,-113.33843 52.5014,0 c 8.348,0 13.5219,1.19974 19.4833,4.77398 10.735,5.96124 17.4712,17.09637 17.4712,29.81867 0,12.73479 -6.7362,23.86993 -18.2587,30.23108 l 20.658,48.5147 -22.6574,0 z"
     style="fill:#ffffff;fill-opacity:1;fill-rule:nonzero;stroke:none"
     id="path3254" />
  <path
     inkscape:connector-curvature="0"
     d="m 675.18235,179.84291 c -5.0488,-1.39971 -17.7212,-4.43656 -21.9953,-6.96102 -8.5355,-4.99894 -15.0591,-13.17221 -15.0591,-25.30713 0,-18.68353 15.9964,-31.40583 39.1289,-31.40583 16.7715,0 30.7562,5.57382 42.3286,17.48379 l -15.1841,13.53462 c -7.1485,-7.54839 -16.3591,-11.13513 -27.1445,-11.13513 -11.5724,0 -18.3833,4.37407 -18.3833,11.52255 0,6.37364 4.0116,9.16056 17.9961,12.33488 15.1842,3.17433 25.1695,6.36115 31.5309,9.54797 10.0102,5.1739 16.384,15.90912 16.384,28.2315 0,11.52256 -5.1991,20.2707 -15.9592,26.64435 -8.0108,4.76149 -18.3837,7.5484 -28.7815,7.5484 -19.5585,0 -34.3178,-7.16098 -47.1149,-21.87036 l 16.3839,-12.7223 c 8.3732,9.94789 17.5714,14.32196 30.3438,14.32196 14.3717,0 24.7447,-6.36115 24.7447,-14.72188 0,-10.63524 -11.5728,-12.18491 -29.219,-17.04637"
     style="fill:#ffffff;fill-opacity:1;fill-rule:nonzero;stroke:none"
     id="path3258" />
  <path
     inkscape:connector-curvature="0"
     d="m 365.72185,137.23946 0,93.45515 -19.8582,0 0,-93.45515 -32.5681,0 0,-19.88328 84.9944,0 0,19.88328 -32.5681,0 z"
     style="fill:#ffffff;fill-opacity:1;fill-rule:nonzero;stroke:none"
     id="path3262" />
  <path
     inkscape:connector-curvature="0"
     d="m 789.68305,137.23946 0,93.45515 -19.8706,0 0,-93.45515 -32.5556,0 0,-19.88328 84.9943,0 0,19.88328 -32.5681,0 z"
     style="fill:#ffffff;fill-opacity:1;fill-rule:nonzero;stroke:none"
     id="path3266" />
  <path
     inkscape:connector-curvature="0"
     d="m 1008.4868,137.23946 0,93.45515 -19.87085,0 0,-93.45515 -32.5558,0 0,-19.88328 84.99435,0 0,19.88328 -32.5677,0 z"
     style="fill:#ffffff;fill-opacity:1;fill-rule:nonzero;stroke:none"
     id="path3270" />
</svg>
