<?xml version="1.0" encoding="UTF-8" standalone="no"?>
<svg
   xmlns:dc="http://purl.org/dc/elements/1.1/"
   xmlns:cc="http://creativecommons.org/ns#"
   xmlns:rdf="http://www.w3.org/1999/02/22-rdf-syntax-ns#"
   xmlns:svg="http://www.w3.org/2000/svg"
   xmlns="http://www.w3.org/2000/svg"
   xmlns:sodipodi="http://sodipodi.sourceforge.net/DTD/sodipodi-0.dtd"
   xmlns:inkscape="http://www.inkscape.org/namespaces/inkscape"
   width="177.6304"
   height="89.213829"
   viewBox="0 0 501.31248 251.78125"
   version="1.1"
   id="svg2"
   inkscape:version="0.48.2 r9819"
   sodipodi:docname="AJAX1.svg">
  <metadata
     id="metadata62">
    <rdf:RDF>
      <cc:Work
         rdf:about="">
        <dc:format>image/svg+xml</dc:format>
        <dc:type
           rdf:resource="http://purl.org/dc/dcmitype/StillImage" />
        <dc:title />
      </cc:Work>
    </rdf:RDF>
  </metadata>
  <defs
     id="defs60">
    <clipPath
       clipPathUnits="userSpaceOnUse"
       id="clipPath3564">
      <path
         inkscape:connector-curvature="0"
         d="m 63,43 512.622,0 0,313.129 L 63,356.129 63,43 z"
         id="path3566" />
    </clipPath>
  </defs>
  <sodipodi:namedview
     pagecolor="#ffffff"
     bordercolor="#666666"
     borderopacity="1"
     objecttolerance="10"
     gridtolerance="10"
     guidetolerance="10"
     inkscape:pageopacity="0"
     inkscape:pageshadow="2"
     inkscape:window-width="1280"
     inkscape:window-height="1004"
     id="namedview58"
     showgrid="false"
     fit-margin-top="0"
     fit-margin-left="0"
     fit-margin-right="0"
     fit-margin-bottom="0"
     inkscape:zoom="4.8826952"
     inkscape:cx="63.960076"
     inkscape:cy="33.338558"
     inkscape:window-x="-8"
     inkscape:window-y="-8"
     inkscape:window-maximized="1"
     inkscape:current-layer="svg2"
     showguides="true"
     inkscape:guide-bbox="true" />
  <polygon
     points="315,205 395,375 315,545 235,375 "
     id="polygon10"
     style="fill:none;stroke:#ffffff;stroke-width:40"
     transform="translate(24742.476,6996.6814)" />
  <!-- draw the bicycle -->
  <!-- RIGHT -->
  <!-- LANE -->
  <!-- ONLY -->
  <path
     inkscape:connector-curvature="0"
     d="m 500.17008,221.87381 c 0,15.8362 -12.96105,28.79373 -28.79372,28.79373 l -441.46965,0 c -15.8362,0 -28.7902,-12.95753 -28.7902,-28.79373 l 0,-191.939362 c 0,-15.83972 12.954,-28.7937181 28.7902,-28.7937181 l 441.46965,0 c 15.83267,0 28.79372,12.9539981 28.79372,28.7937181 l 0,191.939362 z"
     style="fill:#ffffff;fill-opacity:1;fill-rule:nonzero;stroke:#000000;stroke-width:2.25777784;stroke-miterlimit:4;stroke-opacity:1;stroke-dasharray:none"
     id="path3404" />
  <path
     inkscape:connector-curvature="0"
     d="m 29.90778,244.26812 c -3.00567,0 -5.92667,-0.59267 -8.67834,-1.76036 -2.667,-1.13595 -5.06588,-2.7552 -7.13316,-4.826 -2.06375,-2.06375 -3.68653,-4.46264 -4.81895,-7.12964 -1.17122,-2.75167 -1.76389,-5.66914 -1.76389,-8.67834 l 0,-191.939352 c 0,-3.00567 0.59267,-5.92667 1.76389,-8.67834 1.13242,-2.667 2.7552,-5.06941 4.81895,-7.13316 2.06728,-2.06728 4.46616,-3.69006 7.13316,-4.8224781 2.75167,-1.16769 5.67267,-1.76036 8.67834,-1.76036 l 441.46965,0 c 3.00567,0 5.92667,0.59267 8.67834,1.76036 2.667,1.1324181 5.06589,2.7551981 7.12611,4.8224781 2.0708,2.06375 3.69358,4.46616 4.826,7.13316 1.17122,2.75167 1.76389,5.67267 1.76389,8.67834 l 0,191.939352 c 0,3.0092 -0.59267,5.92667 -1.76389,8.67834 -1.13242,2.667 -2.7552,5.06589 -4.826,7.12964 -2.06022,2.0708 -4.45911,3.69005 -7.12611,4.826 -2.75167,1.16769 -5.67267,1.76036 -8.67834,1.76036 l -441.46965,0 z"
     style="fill:#155196;fill-opacity:1;fill-rule:nonzero;stroke:none"
     id="path3412" />
  <path
     inkscape:connector-curvature="0"
     d="m 135.15477,130.7026 c 0,0.86783 -0.73025,1.60161 -1.59808,1.60161 l -86.37764,0 c -0.86784,0 -1.59809,-0.73378 -1.59809,-1.60161 l 0,-86.374132 c 0,-0.86784 0.73025,-1.60162 1.59809,-1.60162 l 86.37764,0 c 0.86783,0 1.59808,0.73378 1.59808,1.60162 l 0,86.374132 z m -1.59808,-91.171912 -86.37764,0 c -2.63525,0 -4.79425,2.159 -4.79425,4.79778 l 0,86.374132 c 0,2.63877 2.159,4.79777 4.79425,4.79777 l 86.37764,0 c 2.63877,0 4.79777,-2.159 4.79777,-4.79777 l 0,-86.374132 c 0,-2.63878 -2.159,-4.79778 -4.79777,-4.79778"
     style="fill:#ffffff;fill-opacity:1;fill-rule:nonzero;stroke:none"
     id="path3416" />
  <path
     inkscape:connector-curvature="0"
     d="m 289.27351,108.28039 -4.49086,10.77736 8.97819,0 -4.48733,-10.77736 z m 10.10355,24.02064 -3.14677,-7.5177 -13.91003,0 -3.14678,7.5177 -6.28297,0 13.46553,-31.98989 5.83494,0 13.35617,31.98989 -6.17009,0 z"
     style="fill:#ffffff;fill-opacity:1;fill-rule:nonzero;stroke:none"
     id="path3420" />
  <path
     inkscape:connector-curvature="0"
     d="m 341.39044,100.31043 5.75734,0 0,31.98989 -5.75734,0 0,-31.98989 z"
     style="fill:#ffffff;fill-opacity:1;fill-rule:nonzero;stroke:none"
     id="path3422" />
  <path
     inkscape:connector-curvature="0"
     d="m 255.13594,105.47441 c -4.84012,0 -7.76112,4.04284 -7.76112,10.77384 0,6.85094 2.921,10.89377 7.76112,10.89377 6.07483,0 7.53886,-5.95488 7.53886,-10.89377 0,-6.731 -2.70228,-10.77384 -7.53886,-10.77384 m 0,27.38967 c -9.45092,0 -13.61017,-8.53017 -13.61017,-16.61583 0,-10.21292 5.17172,-16.499442 13.61017,-16.499442 7.874,0 13.27855,6.625192 13.27855,16.390082 0,9.99066 -5.17878,16.72519 -13.27855,16.72519"
     style="fill:#ffffff;fill-opacity:1;fill-rule:nonzero;stroke:none"
     id="path3426" />
  <path
     inkscape:connector-curvature="0"
     d="m 365.476,117.94545 c -1.42523,-0.39159 -5.00592,-1.25236 -6.21242,-1.96145 -2.40947,-1.41111 -4.24745,-3.71828 -4.24745,-7.14375 0,-5.27403 4.50498,-8.865322 11.04548,-8.865322 4.73075,0 8.67833,1.573402 11.94858,4.938912 l -4.28625,3.81705 c -2.02494,-2.1343 -4.62139,-3.14325 -7.66233,-3.14325 -3.27025,0 -5.18584,1.2312 -5.18584,3.25261 0,1.79917 1.12536,2.58234 5.07295,3.48192 4.28272,0.89958 7.10141,1.79564 8.90411,2.69522 2.81869,1.45697 4.62139,4.48733 4.62139,7.96925 0,3.25614 -1.46403,5.72206 -4.5085,7.52122 -2.25425,1.34409 -5.18231,2.13078 -8.11742,2.13078 -5.52097,0 -9.69433,-2.02142 -13.30325,-6.17361 l 4.62492,-3.59128 c 2.36714,2.80459 4.96005,4.03931 8.56544,4.03931 4.05695,0 6.98853,-1.79564 6.98853,-4.1522 0,-3.00214 -3.26319,-3.43958 -8.24794,-4.81541"
     style="fill:#ffffff;fill-opacity:1;fill-rule:nonzero;stroke:none"
     id="path3430" />
  <path
     inkscape:connector-curvature="0"
     d="m 320.99035,117.94545 c -1.4217,-0.39159 -5.00239,-1.25236 -6.21242,-1.96145 -2.40947,-1.41111 -4.24744,-3.71828 -4.24744,-7.14375 0,-5.27403 4.50497,-8.865322 11.04547,-8.865322 4.73781,0 8.68186,1.573402 11.94858,4.938912 l -4.27919,3.81705 c -2.032,-2.1343 -4.62492,-3.14325 -7.66939,-3.14325 -3.26672,0 -5.18583,1.2312 -5.18583,3.25261 0,1.79917 1.12889,2.58234 5.07294,3.48192 4.28625,0.89958 7.10495,1.79564 8.90764,2.69522 2.8187,1.45697 4.62492,4.48733 4.62492,7.96925 0,3.25614 -1.47109,5.72206 -4.51556,7.52122 -2.25072,1.34409 -5.1823,2.13078 -8.11036,2.13078 -5.52803,0 -9.69786,-2.02142 -13.30678,-6.17361 l 4.62492,-3.59128 c 2.36714,2.80459 4.95653,4.03931 8.56544,4.03931 4.06048,0 6.99206,-1.79564 6.99206,-4.1522 0,-3.00214 -3.27025,-3.43958 -8.255,-4.81541"
     style="fill:#ffffff;fill-opacity:1;fill-rule:nonzero;stroke:none"
     id="path3434" />
  <path
     inkscape:connector-curvature="0"
     d="m 378.40143,50.697178 -4.49086,10.77736 8.9782,0 -4.48734,-10.77736 z m 10.09651,24.02416 -3.14325,-7.52122 -13.91356,0 -3.14325,7.52122 -6.28297,0 13.46552,-31.99341 5.83495,0 13.35617,31.99341 -6.17361,0 z"
     style="fill:#ffffff;fill-opacity:1;fill-rule:nonzero;stroke:none"
     id="path3438" />
  <path
     inkscape:connector-curvature="0"
     d="m 245.22074,74.721708 0,-31.99342 23.42797,0 0,5.72559 -17.57186,0 0,5.94783 9.57439,0 0,5.83847 -9.57439,0 0,8.75242 18.1363,0 0,5.72911 -23.99241,0 z"
     style="fill:#ffffff;fill-opacity:1;fill-rule:nonzero;stroke:none"
     id="path3442" />
  <path
     inkscape:connector-curvature="0"
     d="m 426.66178,74.721708 0,-31.99342 23.42797,0 0,5.72559 -17.57186,0 0,5.94783 9.57439,0 0,5.83847 -9.57439,0 0,8.75242 18.13278,0 0,5.72911 -23.98889,0 z"
     style="fill:#ffffff;fill-opacity:1;fill-rule:nonzero;stroke:none"
     id="path3446" />
  <path
     inkscape:connector-curvature="0"
     d="m 170.3426,42.730038 5.76087,0 0,31.99342 -5.76087,0 0,-31.99342 z"
     style="fill:#ffffff;fill-opacity:1;fill-rule:nonzero;stroke:none"
     id="path3448" />
  <path
     inkscape:connector-curvature="0"
     d="m 205.38859,74.721708 -15.33172,-22.00275 0,22.00275 -5.63386,0 0,-31.99342 5.63386,0 14.76728,21.10317 0,-21.10317 5.5245,0 0,31.99342 -4.96006,0 z"
     style="fill:#ffffff;fill-opacity:1;fill-rule:nonzero;stroke:none"
     id="path3452" />
  <path
     inkscape:connector-curvature="0"
     d="m 290.54458,48.452798 -9.21455,0 0,7.96925 9.21455,0 c 2.80106,0 4.60022,-1.56986 4.60022,-3.92994 0,-2.46944 -1.79916,-4.03931 -4.60022,-4.03931 m 4.60022,26.26784 -5.16466,-12.573 -8.65011,0 0,12.573 -5.71853,0 0,-31.99342 14.82019,0 c 2.35656,0 3.81353,0.33867 5.49628,1.34761 3.03036,1.68275 4.93536,4.82953 4.93536,8.41728 0,3.59481 -1.905,6.73806 -5.15761,8.5337 l 5.83142,13.69483 -6.39234,0 z"
     style="fill:#ffffff;fill-opacity:1;fill-rule:nonzero;stroke:none"
     id="path3456" />
  <path
     inkscape:connector-curvature="0"
     d="m 317.94235,60.362948 c -1.4217,-0.39158 -5.00239,-1.25236 -6.21242,-1.96144 -2.40594,-1.41112 -4.24744,-3.71828 -4.24744,-7.14376 0,-5.27402 4.51203,-8.8653 11.049,-8.8653 4.73428,0 8.67833,1.56986 11.94858,4.93889 l -4.28272,3.81705 c -2.02847,-2.1343 -4.62139,-3.14325 -7.66586,-3.14325 -3.27025,0 -5.18936,1.23473 -5.18936,3.25261 0,1.79917 1.12889,2.58234 5.07647,3.48192 4.28272,0.89959 7.10142,1.79564 8.90411,2.69522 2.81869,1.45698 4.62139,4.48734 4.62139,7.96925 0,3.25262 -1.46403,5.72559 -4.50497,7.5177 -2.25778,1.34761 -5.18936,2.13078 -8.12095,2.13078 -5.5245,0 -9.69433,-2.01789 -13.30325,-6.17009 l 4.62139,-3.5948 c 2.36714,2.80811 4.96358,4.04283 8.56897,4.04283 4.06048,0 6.99206,-1.79564 6.99206,-4.15219 0,-3.00214 -3.26672,-3.43959 -8.255,-4.81542"
     style="fill:#ffffff;fill-opacity:1;fill-rule:nonzero;stroke:none"
     id="path3460" />
  <path
     inkscape:connector-curvature="0"
     d="m 230.58788,48.340618 0,26.38072 -5.60564,0 0,-26.38072 -9.19339,0 0,-5.61269 23.98889,0 0,5.61269 -9.18986,0 z"
     style="fill:#ffffff;fill-opacity:1;fill-rule:nonzero;stroke:none"
     id="path3464" />
  <path
     inkscape:connector-curvature="0"
     d="m 350.26422,48.340618 0,26.38072 -5.60564,0 0,-26.38072 -9.19339,0 0,-5.61269 23.99242,0 0,5.61269 -9.19339,0 z"
     style="fill:#ffffff;fill-opacity:1;fill-rule:nonzero;stroke:none"
     id="path3468" />
  <path
     inkscape:connector-curvature="0"
     d="m 412.03171,48.340618 0,26.38072 -5.60916,0 0,-26.38072 -9.19339,0 0,-5.61269 23.99241,0 0,5.61269 -9.18986,0 z"
     style="fill:#ffffff;fill-opacity:1;fill-rule:nonzero;stroke:none"
     id="path3472" />
  <path
     inkscape:connector-curvature="0"
     d="m 136.74156,210.68012 0,-31.99341 23.43151,0 0,5.72558 -17.57539,0 0,5.94783 9.57791,0 0,5.83848 -9.57791,0 0,8.75594 18.1363,0 0,5.72558 -23.99242,0 z"
     style="fill:#ffffff;fill-opacity:1;fill-rule:nonzero;stroke:none"
     id="path3476" />
  <path
     inkscape:connector-curvature="0"
     d="m 199.45736,178.68707 5.76086,0 0,31.99342 -5.76086,0 0,-31.99342 z"
     style="fill:#ffffff;fill-opacity:1;fill-rule:nonzero;stroke:none"
     id="path3478" />
  <path
     inkscape:connector-curvature="0"
     d="m 225.45426,184.29977 0,26.38072 -5.60564,0 0,-26.38072 -9.19339,0 0,-5.6127 23.99242,0 0,5.6127 -9.19339,0 z"
     style="fill:#ffffff;fill-opacity:1;fill-rule:nonzero;stroke:none"
     id="path3482" />
  <path
     inkscape:connector-curvature="0"
     d="m 186.29767,210.68012 -7.21783,-11.33827 -7.10142,11.33827 -6.76628,0 10.48456,-16.83808 -9.58497,-15.15533 6.87916,0 6.08895,9.76841 6.08894,-9.76841 6.87564,0 -9.46855,15.15533 10.48455,16.83808 -6.76275,0 z"
     style="fill:#ffffff;fill-opacity:1;fill-rule:nonzero;stroke:none"
     id="path3486" />
  <path
     inkscape:connector-curvature="0"
     d="m 299.82368,219.1648 c -5.91961,0 -11.83569,-2.01789 -16.0655,-5.89139 -1.1818,-1.01247 -2.02847,-1.85209 -3.71828,-3.8735 l 6.93209,-5.21759 c 3.37961,4.37445 7.77875,6.22653 13.35969,6.22653 5.91609,0 9.97303,-2.69169 9.97303,-6.731 0,-2.36008 -1.51694,-5.05178 -3.71828,-6.23358 -1.35114,-0.67028 -2.87161,-1.00895 -4.73428,-1.00895 l -2.36714,0 0,-8.58661 2.02848,0 c 3.7218,0 6.42761,-2.02141 6.42761,-4.71664 0,-2.86102 -3.38667,-5.05177 -8.45609,-5.05177 -4.06047,0 -7.77875,1.68627 -10.65388,4.71663 l -6.42409,-5.89138 c 4.73428,-4.88245 10.65036,-7.40834 17.58597,-7.40834 9.63789,0 16.73931,5.72206 16.73931,13.46906 0,3.19969 -1.01247,5.38691 -3.89114,9.09108 4.73781,4.20864 6.08895,6.73453 6.08895,11.28184 0,8.92175 -8.28675,15.82561 -19.10645,15.82561"
     style="fill:#ffffff;fill-opacity:1;fill-rule:nonzero;stroke:none"
     id="path3490" />
  <path
     inkscape:connector-curvature="0"
     d="m 345.09213,178.08134 c -5.91609,0 -9.2957,1.68628 -9.2957,4.37797 0,2.86456 3.37961,4.54731 9.2957,4.54731 5.92314,0 9.30275,-1.68275 9.30275,-4.54731 0,-2.69169 -3.37961,-4.37797 -9.30275,-4.37797 m 0,17.51189 c -6.92856,0 -10.8197,2.69169 -10.8197,7.41186 0,2.35303 1.35114,4.71311 3.55248,6.06072 1.35113,0.83609 4.39561,1.34409 7.26722,1.34409 4.06047,0 6.59694,-0.508 8.29028,-2.01789 1.6898,-1.51695 2.53647,-3.36903 2.53647,-5.38692 0,-4.72017 -3.89114,-7.41186 -10.82675,-7.41186 m 0,23.57261 c -11.83217,0 -19.44511,-6.39939 -19.44511,-16.16075 0,-4.55083 1.86266,-8.42081 5.41161,-11.6205 -3.04448,-3.53483 -3.89114,-5.55625 -3.89114,-8.75594 0,-7.91634 7.27428,-13.13392 17.92464,-13.13392 10.82675,0 17.92816,5.21758 17.92816,13.13392 0,3.19969 -0.84666,5.22111 -3.7218,8.75594 3.55247,3.19969 5.24581,7.06967 5.24581,11.6205 0,11.44764 -9.47209,16.16075 -19.45217,16.16075"
     style="fill:#ffffff;fill-opacity:1;fill-rule:nonzero;stroke:none"
     id="path3494" />
  <path
     inkscape:connector-curvature="0"
     d="m 92.60802,70.901128 -0.0459,0 0,0 0.0459,0 z m 12.76703,42.633212 c -1.65453,0.11995 -1.7392,0.51506 -3.71123,0.63853 -2.73755,0.16933 -5.65149,-1.89089 -7.51063,-2.02495 -1.36173,-0.0988 -2.76931,-0.0459 -4.03225,-0.52916 -0.1905,-0.0706 -0.37042,-0.17639 -0.53623,-0.29634 -0.70202,-1.64041 -1.524,-3.82411 -1.98614,-5.97252 0.0178,-0.0353 0.0212,-0.0741 0.0178,-0.13053 -0.0847,-0.39511 -0.15169,-0.75142 -0.20108,-1.02306 l 0,-0.007 -0.003,0 c -0.0529,-0.29634 -0.0847,-0.48331 -0.0847,-0.48331 -0.89958,-5.344602 -0.6738,-6.921522 -0.6738,-6.921522 -0.0141,0 -0.0317,0 -0.0529,0 0.0388,-0.14816 0.067,-0.31044 0.0917,-0.49388 0,0 -0.06,-5.8667 0.51505,-7.03087 0.65264,-3.79588 1.07245,-5.27755 1.25589,-5.80672 l 0.0353,0.007 c 1.08303,-3.35139 1.95086,-5.09411 1.95086,-5.09411 0.003,-0.0141 0.003,-0.0282 0.003,-0.0388 0.15875,-0.46567 0.97367,-2.79047 2.23661,-4.572 l 0.31045,-0.51506 -0.0317,0 c 0.30677,-0.29633 1.48505,-1.98966 1.48505,-1.98966 l 0.44097,-0.55034 0.14464,-0.33161 0.46919,-0.52916 0.31045,-0.64912 c 0,0 -0.2787,-0.56797 -0.35983,-1.10772 l -0.18345,-1.13241 c 0,0 -0.39864,0.40216 -1.05128,1.13241 0,0 -1.524,1.18534 -2.06375,1.68275 0,0 -0.0564,0.0353 -0.23636,0.16934 0,0 -0.0317,0.0353 -0.0776,0.0952 l 0,0 -0.0245,0.0317 c -0.0282,0.0353 -0.0529,0.0776 -0.0811,0.11994 l -0.31397,0.45508 -0.0705,0.16581 c -0.14817,0.35278 -0.89606,1.54517 -1.16417,1.9685 -0.004,-0.003 -0.0107,-0.003 -0.0107,-0.003 0,0 -1.73919,2.97039 -2.28247,4.23686 l -0.28222,0.58914 c -1.64747,3.12914 -1.75684,4.12397 -1.75684,4.12397 -0.0423,0.15875 -0.067,0.27517 -0.0776,0.37395 l -0.1023,0.15875 c -0.61383,0.82902 -1.8415,5.11175 -1.8415,5.11175 -0.0459,0.18344 -0.0564,0.34572 -0.0459,0.48683 -0.0245,-0.0212 -0.0459,-0.0353 -0.0635,-0.0529 0,0 -1.04775,2.18722 -1.51695,7.56708 0,0 -0.007,0.23989 0.0141,0.53975 l -0.0529,0.12348 c -0.32102,0.8255 -0.43391,6.667522 -0.43391,6.667522 0.0353,0.067 0.0317,0.32456 0.0953,0.57856 -0.007,-0.007 -0.0178,-0.0105 -0.0248,-0.0105 0,0 -0.17992,3.05153 0.32808,6.23712 0,0 0.0353,0.27869 0.0882,0.68791 l -1.84136,1.25208 c 0,0 -4.07811,1.99672 -5.84905,2.03906 -0.57503,0.0107 -2.44475,-0.55386 -4.28273,-0.635 -1.80622,-0.0776 -2.66347,0.0847 -3.81,0.59619 -1.143,0.51153 -4.21569,2.04611 -4.21569,2.04611 0,0 12.3825,7.09789 21.99217,7.41186 3.55247,0.11289 8.59366,-0.31397 12.89755,-1.71097 7.57061,-2.45533 12.28019,-6.75922 12.28019,-6.75922 0,0 -2.53294,-0.99836 -4.02166,-0.89253"
     style="fill:#ffffff;fill-opacity:1;fill-rule:nonzero;stroke:none"
     id="path3498" />
  <path
     inkscape:connector-curvature="0"
     d="m 104.36294,64.759938 c 0.003,0.0212 0.0178,0.0494 0.0282,0.0741 -0.15522,-0.1023 -0.3175,-0.20108 -0.4833,-0.29986 l -0.40922,-2.76225 c 0,0 0.79022,2.45886 0.8643,2.98803 m -3.53836,-3.45369 c 0,0 0.90311,1.34761 1.06539,2.33891 -0.11289,-0.0282 -0.25753,-0.0565 -0.43745,-0.0917 l -0.62794,-2.24719 z m -2.50119,1.8803 c 0.0988,-0.36689 0.41627,-1.52047 0.51152,-1.36878 0.10937,0.17286 0.79375,1.10773 1.06187,1.47109 -0.52564,-0.067 -1.07598,-0.10936 -1.57339,-0.10231 m -7.8352,-1.81328 c 0,0 -1.08655,2.69523 -1.3088,3.7077 -0.35278,0.19755 -0.7232,0.4198 -1.1042,0.66675 0.15522,-0.38806 1.397,-3.43959 2.413,-4.37445 m 28.02467,5.09411 c 0,0 -0.56797,-4.1028 -2.159,-5.82788 0,0 -2.53295,-3.59128 -6.31472,-4.91067 -4.75192,-1.65806 -8.6995,-0.80433 -10.32228,-0.21167 -2.17311,0.7867 -3.60539,1.89089 -4.3815,2.74814 -0.50447,-2.36361 -2.76225,-8.62894 -12.24845,-5.08706 0,0 -7.98689,3.6442 -11.16541,14.53092 0,0 0.94544,-1.09008 1.62983,-1.52753 0,0 2.19075,-4.87538 3.12914,-5.47158 0,0 -1.98967,3.03742 -2.27895,4.76603 0,0 2.7552,-2.46592 4.37445,-3.24203 0,0 1.34408,-4.36386 2.78694,-5.82083 0,0 -1.26294,2.77636 -1.97202,5.19994 0,0 4.07458,-2.54705 6.84036,-2.65289 2.07786,-0.0811 2.17311,-0.0141 2.89983,0.0917 0,0 1.95086,-2.06022 2.3107,-2.06022 0,0 -1.37937,1.64394 -1.57692,2.21544 0,0 0.77611,0.20109 1.42169,0.762 0,0 2.25425,-2.6423 2.46945,-2.5788 l -2.19075,2.7305 1.82739,1.33703 0.80433,-1.70745 c 0,0 -0.29633,2.02142 -0.51153,2.28953 -0.007,0.007 -0.0104,0.0107 -0.0104,0.0178 -1.31586,-1.143 -4.82247,-3.46781 -10.39989,-1.87678 0,0 -4.84364,0.86078 -7.87753,9.95539 0,0 -1.8803,7.366 -1.8803,8.43139 l 2.17311,-2.667 c 0,0 1.00542,-1.91206 1.51342,-5.89844 l -0.36336,4.78013 1.87677,-1.96144 c 0,0 2.02848,-1.75683 2.68111,-2.85044 0,0 0.83609,-6.03956 1.58398,-6.20537 0,0 -1.16064,4.26862 -0.73025,5.59859 0,0 4.27566,-8.1915 4.78366,-7.99042 0,0 -3.12914,6.00428 -3.20322,6.73453 0,0 2.19075,-1.2065 3.43253,-1.94733 -1.79564,1.24177 -3.78883,3.02683 -5.48217,5.51391 -0.9278,1.37231 -1.70039,3.32317 -1.94733,4.92125 -0.24695,1.59456 -0.20108,2.70228 -0.13053,4.22981 0,0 1.44639,4.19453 1.73567,4.72722 0,0 1.18533,-6.985 1.40053,-6.985 0,0 -0.2152,3.05153 -0.2152,3.5172 0,0 1.59103,-7.03439 2.09903,-6.76981 0,0 -0.94192,2.58939 -0.79728,4.18394 0,0 7.36953,-8.6995 8.74536,-14.14286 0,0 -0.37394,2.81164 -1.02305,4.13809 0,0 3.02683,-1.93675 3.51719,-3.42195 0,0 0.22225,1.55575 0.49389,2.55411 0.11642,0.42686 1.18181,1.86267 1.68628,2.19428 0,0 -0.1905,-3.12208 0.45861,-5.19994 0,0 -0.44097,3.54894 0.0635,4.36033 0,0 3.61597,3.11503 4.24744,3.71475 0,0 0.87842,-0.889 1.82386,-6.00075 0,0 -0.067,2.83986 -1.22414,6.49111 0,0 3.01625,3.17853 3.30906,5.26345 0,0 1.67569,-2.7552 2.4765,-5.54214 0,0 0.70203,0.59972 -2.11667,6.17714 0,0 2.54353,5.84552 2.54353,6.46994 0,0 1.51695,-3.89467 1.8027,-4.826 l -1.29823,6.56167 c 0,0 1.5875,-1.99673 2.21192,-3.3902 0.62089,-1.397 0.86431,-3.40078 0.50447,-5.59153 0,0 -0.82903,-3.86291 -4.37091,-10.63272 0,0 -0.508,-1.02305 -1.61573,-2.19075 0.56798,0.4057 1.07245,0.77258 1.21003,0.94897 0,0 0.30339,-3.49602 0.81492,-3.70064 0,0 -0.80786,3.66889 -0.23284,4.52967 0,0 1.41464,1.41111 1.70392,2.14136 0,0 1.44286,-4.71664 1.73214,-4.71664 l -1.41111,5.18231 c 0,0 0.47978,0.87842 0.91369,1.27705 0,0 0.93486,-1.80975 0.13759,0.64559 l 1.30175,1.98261 2.52941,-5.30578 c 0,0 -1.66158,4.8507 -1.95086,5.64445 -0.28928,0.8008 0.53622,2.61408 0.53622,2.61408 l 1.41464,-3.27731 c 0,0 -0.28927,2.50473 -0.50447,3.302 -0.21872,0.79375 -0.6738,2.36009 -0.6738,2.36009 0,0 1.82738,-2.74109 2.40594,-4.79778 0,0 0.70908,-6.46642 -1.95439,-9.24278 -1.95086,-2.032 -6.56167,-4.76955 -11.13719,-5.42219 l 1.43933,-0.0175 0.37747,-1.11478 0.067,1.09714 c 0,0 2.54706,0.27164 2.95275,0.46214 0,0 0.0423,-1.32645 -0.17639,-2.65289 l 0.88547,2.90336 2.794,1.53811 c 0,0 -0.14111,-0.21167 -0.51152,-3.24556 l 1.17827,3.63362 1.93675,1.19591 -0.45155,-2.01436 -0.2787,-1.85914 1.54517,4.28272 c 0,0 2.17664,0.96309 2.159,1.37584 0.0494,-1.40053 0.127,-2.43417 -0.50447,-3.88056 0.47978,1.016 1.53811,3.24556 1.90147,4.11339"
     style="fill:#ffffff;fill-opacity:1;fill-rule:nonzero;stroke:none"
     id="path3506" />
  <path
     inkscape:connector-curvature="0"
     d="m 95.5643,77.972208 c 0.34572,-0.60325 1.28058,-1.905 1.76741,-3.05859 0.48684,-1.15005 0.51153,-2.1343 0.58209,-2.51178 0.10936,-0.53269 0.0564,-1.69686 -0.16228,-2.56116 l -0.0212,1.397 c 0,0 -0.73025,-0.43392 -0.93133,-0.68439 -0.10936,-0.13758 -0.71261,-0.98778 -0.71261,-0.98778 0,0 -1.38642,1.67922 -1.34056,2.07081 0,0 -0.71967,1.48872 -0.50094,1.88736 0,0 0.43391,-1.06186 0.72319,-0.99836 0,0 -1.15711,2.52589 -1.01247,3.05505 0,0 -0.28928,0.99484 -0.2152,1.52753 l 1.22767,-2.19075 -1.17828,4.826 c 0,0 1.42522,-1.16417 1.77447,-1.77094"
     style="fill:#ffffff;fill-opacity:1;fill-rule:nonzero;stroke:none"
     id="path3510" />
</svg>
