<?xml version="1.0" encoding="UTF-8" standalone="no"?>
<svg
   xmlns:dc="http://purl.org/dc/elements/1.1/"
   xmlns:cc="http://creativecommons.org/ns#"
   xmlns:rdf="http://www.w3.org/1999/02/22-rdf-syntax-ns#"
   xmlns:svg="http://www.w3.org/2000/svg"
   xmlns="http://www.w3.org/2000/svg"
   xmlns:sodipodi="http://sodipodi.sourceforge.net/DTD/sodipodi-0.dtd"
   xmlns:inkscape="http://www.inkscape.org/namespaces/inkscape"
   width="74.963089"
   height="75.129181"
   viewBox="0 0 211.56251 212.03124"
   version="1.1"
   id="svg2"
   inkscape:version="0.48.2 r9819"
   sodipodi:docname="MUTCD D5-2.svg">
  <metadata
     id="metadata62">
    <rdf:RDF>
      <cc:Work
         rdf:about="">
        <dc:format>image/svg+xml</dc:format>
        <dc:type
           rdf:resource="http://purl.org/dc/dcmitype/StillImage" />
        <dc:title></dc:title>
      </cc:Work>
    </rdf:RDF>
  </metadata>
  <defs
     id="defs60">
    <clipPath
       clipPathUnits="userSpaceOnUse"
       id="clipPath3564">
      <path
         inkscape:connector-curvature="0"
         d="m 63,43 512.622,0 0,313.129 L 63,356.129 63,43 z"
         id="path3566" />
    </clipPath>
  </defs>
  <sodipodi:namedview
     pagecolor="#ffffff"
     bordercolor="#666666"
     borderopacity="1"
     objecttolerance="10"
     gridtolerance="10"
     guidetolerance="10"
     inkscape:pageopacity="0"
     inkscape:pageshadow="2"
     inkscape:window-width="1280"
     inkscape:window-height="1004"
     id="namedview58"
     showgrid="false"
     fit-margin-top="0"
     fit-margin-left="0"
     fit-margin-right="0"
     fit-margin-bottom="0"
     inkscape:zoom="4.8826952"
     inkscape:cx="53.031772"
     inkscape:cy="17.581783"
     inkscape:window-x="-8"
     inkscape:window-y="-8"
     inkscape:window-maximized="1"
     inkscape:current-layer="svg2"
     showguides="true"
     inkscape:guide-bbox="true" />
  <polygon
     points="235,375 315,205 395,375 315,545 "
     id="polygon10"
     style="fill:none;stroke:#ffffff;stroke-width:40"
     transform="translate(19653.225,9194.9001)" />
  <!-- draw the bicycle -->
  <!-- RIGHT -->
  <!-- LANE -->
  <!-- ONLY -->
  <path
     inkscape:connector-curvature="0"
     d="m 28.0875,0.85542258 155.4021,0 c 14.9789,0 27.2309,12.25550042 27.2309,27.23092042 l 0,155.871337 c 0,14.97895 -12.252,27.23445 -27.2309,27.23445 l -155.4021,0 c -14.979,0 -27.2345,-12.2555 -27.2345,-27.23445 l 0,-155.871337 c 0,-14.97542 12.2555,-27.23092042 27.2345,-27.23092042"
     style="fill:#ffffff;fill-opacity:1;fill-rule:nonzero;stroke:#000000;stroke-width:1.69333345;stroke-miterlimit:4;stroke-opacity:1;stroke-dasharray:none"
     id="path3586" />
  <path
     inkscape:connector-curvature="0"
     d="m 28.0875,5.3169826 155.4021,0 c 12.5271,0 22.7718,10.2446704 22.7718,22.7682804 l 0,155.874877 c 0,12.52361 -10.2447,22.7718 -22.7718,22.7718 l -155.4021,0 c -12.5237,0 -22.7719,-10.24819 -22.7719,-22.7718 l 0,-155.874877 c 0,-12.52361 10.2482,-22.7682804 22.7719,-22.7682804"
     style="fill:#155196;fill-opacity:1;fill-rule:evenodd;stroke:none"
     id="path3610" />
  <path
     inkscape:connector-curvature="0"
     d="m 72.1106,32.846723 c -0.7938,-0.45508 -1.2489,-0.56797 -2.9493,-0.56797 l -6.1383,0 0,7.95161 6.1383,0 c 1.584,0 2.1555,-0.11289 2.9493,-0.56445 1.2523,-0.68438 2.0461,-2.04963 2.0461,-3.41136 0,-1.36172 -0.7938,-2.72697 -2.0461,-3.40783 m 2.2719,26.6947 -5.2212,-14.08642 -6.1383,0 0,14.08642 -5.1117,0 0,-32.37442 10.6785,0 c 2.5012,0 4.2016,0.22578 5.7927,1.02305 2.8398,1.36173 4.8859,4.76956 4.8859,8.0645 0,3.41136 -2.0461,6.81567 -5.0024,8.17739 l 5.6868,15.10948 -5.5703,0 z"
     style="fill:#ffffff;fill-opacity:1;fill-rule:nonzero;stroke:none"
     id="path3614" />
  <path
     inkscape:connector-curvature="0"
     d="m 85.4033,59.542833 0,-32.37795 19.0852,0 0,5.11175 -13.9735,0 0,7.95161 9.4262,0 0,5.22817 -9.4262,0 0,8.85825 14.9931,0 0,5.22817 -20.1048,0 z"
     style="fill:#ffffff;fill-opacity:1;fill-rule:nonzero;stroke:none"
     id="path3618" />
  <path
     inkscape:connector-curvature="0"
     d="m 127.5496,57.613473 c -1.8203,1.5875 -4.3215,2.49767 -7.0414,2.49767 -5.5669,0 -9.6626,-3.29847 -11.8181,-8.17739 l 4.886,-1.82034 c 1.3652,3.06564 3.8594,4.77309 6.9321,4.77309 2.9492,0 4.9953,-2.04259 4.9953,-4.77309 0,-4.318 -4.9953,-4.99886 -9.2004,-6.69925 -1.9368,-0.79727 -6.2477,-2.7305 -6.2477,-8.07155 0,-6.35706 4.3109,-8.74536 10.1071,-8.74536 4.5473,0 7.6129,2.61408 9.2039,6.58989 l -4.5473,1.36525 c 0,0 -1.1359,-2.7305 -4.766,-2.84339 -2.3918,-0.11289 -5.2317,0.79728 -5.0024,3.75003 0.4551,6.02191 15.6739,2.04611 15.6739,14.76727 0,2.95275 -1.1289,5.56684 -3.175,7.38717"
     style="fill:#ffffff;fill-opacity:1;fill-rule:nonzero;stroke:none"
     id="path3622" />
  <path
     inkscape:connector-curvature="0"
     d="m 145.8341,31.709703 0,27.83417 -5.1118,0 0,-27.83417 -7.3871,0 0,-4.54378 19.9954,0 0,4.54378 -7.4965,0 z"
     style="fill:#ffffff;fill-opacity:1;fill-rule:nonzero;stroke:none"
     id="path3626" />
  <path
     inkscape:connector-curvature="0"
     d="m 65.4325,90.603843 -3.2914,9.08756 6.477,0 -3.1856,-9.08756 z m 8.1809,23.403277 -3.1785,-9.08755 -10.1142,0 -3.175,9.08755 -5.4574,0 11.1336,-32.377947 5.1118,0 11.1372,32.377947 -5.4575,0 z"
     style="fill:#ffffff;fill-opacity:1;fill-rule:nonzero;stroke:none"
     id="path3630" />
  <path
     inkscape:connector-curvature="0"
     d="m 98.1491,87.310313 c -0.7938,-0.45509 -1.2488,-0.56798 -2.9492,-0.56798 l -6.1313,0 0,7.95161 6.1313,0 c 1.591,0 2.1554,-0.11288 2.9492,-0.56797 1.2524,-0.68439 2.0461,-2.04611 2.0461,-3.40783 0,-1.36525 -0.7937,-2.72697 -2.0461,-3.40783 m 2.2719,26.694697 -5.2211,-14.086427 -6.1313,0 0,14.086427 -5.1153,0 0,-32.374427 10.6751,0 c 2.5012,0 4.2016,0.22578 5.7926,1.02306 2.8398,1.35819 4.886,4.76955 4.886,8.0645 0,3.40783 -2.0462,6.81214 -4.9954,8.17739 l 5.6762,15.109477 -5.5668,0 z"
     style="fill:#ffffff;fill-opacity:1;fill-rule:nonzero;stroke:none"
     id="path3634" />
  <path
     inkscape:connector-curvature="0"
     d="m 111.4383,114.00642 0,-32.377947 19.0888,0 0,5.11175 -13.9736,0 0,7.95161 9.4298,0 0,5.22817 -9.4298,0 0,8.861777 15.0002,0 0,5.22464 -20.1154,0 z"
     style="fill:#ffffff;fill-opacity:1;fill-rule:nonzero;stroke:none"
     id="path3638" />
  <path
     inkscape:connector-curvature="0"
     d="m 147.9084,90.603843 -3.2914,9.08756 6.4699,0 -3.1785,-9.08756 z m 8.1809,23.403277 -3.1856,-9.08755 -10.107,0 -3.1821,9.08755 -5.4504,0 11.1266,-32.377947 5.1117,0 11.1372,32.377947 -5.4504,0 z"
     style="fill:#ffffff;fill-opacity:1;fill-rule:nonzero;stroke:none"
     id="path3642" />
  <path
     inkscape:connector-curvature="0"
     d="m 140.5918,131.90354 c -0.4974,-0.71967 -1.3653,-1.12889 -2.1908,-1.06892 l -36.9675,-0.0141 c -0.501,-0.007 -1.0055,0.13759 -1.4253,0.42686 -1.1218,0.75848 -1.4111,2.29659 -0.6526,3.41489 0.1693,0.25753 0.4057,0.47978 0.6526,0.64911 l 12.2661,9.59909 -45.4907,27.85533 8.2197,11.91331 43.1271,-31.53834 4.3674,15.27881 c 0.063,0.27164 0.187,0.56444 0.3598,0.81139 0.7585,1.1183 2.2931,1.41111 3.4114,0.65264 0.3775,-0.25753 0.6668,-0.60678 0.8678,-1.02659 l 13.6631,-34.51225 c 0.3352,-0.85019 0.3105,-1.67569 -0.2081,-2.44122"
     style="fill:#ffffff;fill-opacity:1;fill-rule:evenodd;stroke:none"
     id="path3646" />
</svg>
