<?xml version="1.0" encoding="UTF-8" standalone="no"?>
<svg
   xmlns:dc="http://purl.org/dc/elements/1.1/"
   xmlns:cc="http://creativecommons.org/ns#"
   xmlns:rdf="http://www.w3.org/1999/02/22-rdf-syntax-ns#"
   xmlns:svg="http://www.w3.org/2000/svg"
   xmlns="http://www.w3.org/2000/svg"
   xmlns:sodipodi="http://sodipodi.sourceforge.net/DTD/sodipodi-0.dtd"
   xmlns:inkscape="http://www.inkscape.org/namespaces/inkscape"
   width="150.22514"
   height="75.129181"
   viewBox="0 0 423.96876 212.03124"
   version="1.1"
   id="svg2"
   inkscape:version="0.48.2 r9819"
   sodipodi:docname="MUTCD D5-1a.svg">
  <metadata
     id="metadata62">
    <rdf:RDF>
      <cc:Work
         rdf:about="">
        <dc:format>image/svg+xml</dc:format>
        <dc:type
           rdf:resource="http://purl.org/dc/dcmitype/StillImage" />
        <dc:title></dc:title>
      </cc:Work>
    </rdf:RDF>
  </metadata>
  <defs
     id="defs60">
    <clipPath
       clipPathUnits="userSpaceOnUse"
       id="clipPath3564">
      <path
         inkscape:connector-curvature="0"
         d="m 63,43 512.622,0 0,313.129 L 63,356.129 63,43 z"
         id="path3566" />
    </clipPath>
  </defs>
  <sodipodi:namedview
     pagecolor="#ffffff"
     bordercolor="#666666"
     borderopacity="1"
     objecttolerance="10"
     gridtolerance="10"
     guidetolerance="10"
     inkscape:pageopacity="0"
     inkscape:pageshadow="2"
     inkscape:window-width="1280"
     inkscape:window-height="1004"
     id="namedview58"
     showgrid="false"
     fit-margin-top="0"
     fit-margin-left="0"
     fit-margin-right="0"
     fit-margin-bottom="0"
     inkscape:zoom="4.8826952"
     inkscape:cx="67.685961"
     inkscape:cy="16.074813"
     inkscape:window-x="-8"
     inkscape:window-y="-8"
     inkscape:window-maximized="1"
     inkscape:current-layer="svg2"
     showguides="true"
     inkscape:guide-bbox="true" />
  <polygon
     points="315,205 395,375 315,545 235,375 "
     id="polygon10"
     style="fill:none;stroke:#ffffff;stroke-width:40"
     transform="translate(21455.538,8591.4626)" />
  <!-- draw the bicycle -->
  <!-- RIGHT -->
  <!-- LANE -->
  <!-- ONLY -->
  <path
     inkscape:connector-curvature="0"
     d="m 29.16175,0.84142258 365.6577,0 c 15.5751,0 28.314,12.74234042 28.314,28.31395042 l 0,153.708807 c 0,15.57162 -12.7389,28.31042 -28.314,28.31042 l -365.6577,0 c -15.5716,0 -28.3104,-12.7388 -28.3104,-28.31042 l 0,-153.708807 c 0,-15.57161 12.7388,-28.31395042 28.3104,-28.31395042"
     style="fill:#ffffff;fill-opacity:1;fill-rule:nonzero;stroke:#000000;stroke-width:1.69333342;stroke-miterlimit:4;stroke-opacity:1;stroke-dasharray:none"
     id="path3392" />
  <path
     inkscape:connector-curvature="0"
     d="m 29.16175,6.7084626 365.6577,0 c 12.3472,0 22.4473,10.1000204 22.4473,22.4472504 l 0,153.708807 c 0,12.3437 -10.1001,22.44725 -22.4473,22.44725 l -365.6577,0 c -12.3472,0 -22.4473,-10.10355 -22.4473,-22.44725 l 0,-153.708807 c 0,-12.34723 10.1001,-22.4472504 22.4473,-22.4472504"
     style="fill:#155196;fill-opacity:1;fill-rule:evenodd;stroke:none"
     id="path3400" />
  <path
     inkscape:connector-curvature="0"
     d="m 73.65055,51.787483 c -1.0125,-0.57856 -1.591,-0.7232 -3.7641,-0.7232 l -7.8141,0 0,10.12472 7.8141,0 c 2.0284,0 2.7516,-0.14111 3.7641,-0.72319 1.5875,-0.86783 2.6,-2.6035 2.6,-4.33917 0,-1.73566 -1.0125,-3.47133 -2.6,-4.33916 m 2.8928,33.99719 -6.6569,-17.93875 -7.8141,0 0,17.93875 -6.5087,0 0,-41.23267 13.5996,0 c 3.1856,0 5.3551,0.28928 7.3801,1.30175 3.6124,1.7392 6.2195,6.07836 6.2195,10.27289 0,4.33917 -2.6071,8.68186 -6.3677,10.41753 l 7.2355,19.2405 -7.0873,0 z"
     style="fill:#ffffff;fill-opacity:1;fill-rule:nonzero;stroke:none"
     id="path3404" />
  <path
     inkscape:connector-curvature="0"
     d="m 90.57685,85.783943 0,-41.23267 24.3029,0 0,6.51228 -17.7941,0 0,10.12472 12.0085,0 0,6.65692 -12.0085,0 0,11.28536 19.0958,0 0,6.65339 -25.6046,0 z"
     style="fill:#ffffff;fill-opacity:1;fill-rule:nonzero;stroke:none"
     id="path3408" />
  <path
     inkscape:connector-curvature="0"
     d="m 144.24845,83.324033 c -2.3142,2.02495 -5.4963,3.18206 -8.9711,3.18206 -7.0874,0 -12.2979,-4.19453 -15.046,-10.414 l 6.2195,-2.31422 c 1.7391,3.90172 4.9212,6.07483 8.8265,6.07483 3.7641,0 6.3676,-2.6035 6.3676,-6.07483 0,-5.49981 -6.3676,-6.36764 -11.7193,-8.53723 -2.4588,-1.01247 -7.9587,-3.47133 -7.9587,-10.26936 0,-8.10331 5.4999,-11.14072 12.8764,-11.14072 5.7891,0 9.6944,3.32669 11.7228,8.39258 l -5.789,1.73567 c 0,0 -1.4464,-3.47486 -6.0784,-3.6195 -3.0374,-0.14464 -6.6534,1.01247 -6.3641,4.77661 0.5785,7.66586 19.9672,2.6035 19.9672,18.80658 0,3.75709 -1.4464,7.08731 -4.0534,9.40153"
     style="fill:#ffffff;fill-opacity:1;fill-rule:nonzero;stroke:none"
     id="path3412" />
  <path
     inkscape:connector-curvature="0"
     d="m 167.53885,50.340723 0,35.44358 -6.5088,0 0,-35.44358 -9.405,0 0,-5.78908 25.4635,0 0,5.78908 -9.5497,0 z"
     style="fill:#ffffff;fill-opacity:1;fill-rule:nonzero;stroke:none"
     id="path3416" />
  <path
     inkscape:connector-curvature="0"
     d="m 248.05335,55.980233 -4.1945,11.57463 8.2479,0 -4.0534,-11.57463 z m 10.4175,29.80266 -4.0499,-11.57111 -12.8799,0 -4.0463,11.57111 -6.9462,0 14.1816,-41.22914 6.5088,0 14.1781,41.22914 -6.9462,0 z"
     style="fill:#ffffff;fill-opacity:1;fill-rule:nonzero;stroke:none"
     id="path3420" />
  <path
     inkscape:connector-curvature="0"
     d="m 289.72345,51.787483 c -1.0125,-0.57856 -1.5911,-0.7232 -3.7642,-0.7232 l -7.814,0 0,10.12472 7.814,0 c 2.0285,0 2.7517,-0.14111 3.7642,-0.72319 1.591,-0.86783 2.6035,-2.6035 2.6035,-4.33917 0,-1.73566 -1.0125,-3.47133 -2.6035,-4.33916 m 2.8892,33.99719 -6.6534,-17.93875 -7.814,0 0,17.93875 -6.5087,0 0,-41.23267 13.5995,0 c 3.1856,0 5.3552,0.28928 7.3766,1.30175 3.616,1.7392 6.223,6.07836 6.223,10.27289 0,4.33917 -2.607,8.68186 -6.3641,10.41753 l 7.232,19.2405 -7.0909,0 z"
     style="fill:#ffffff;fill-opacity:1;fill-rule:nonzero;stroke:none"
     id="path3424" />
  <path
     inkscape:connector-curvature="0"
     d="m 306.64615,85.783943 0,-41.23267 24.3064,0 0,6.51228 -17.7976,0 0,10.12472 12.0121,0 0,6.65692 -12.0121,0 0,11.28536 19.0994,0 0,6.65339 -25.6082,0 z"
     style="fill:#ffffff;fill-opacity:1;fill-rule:nonzero;stroke:none"
     id="path3428" />
  <path
     inkscape:connector-curvature="0"
     d="m 353.08585,55.980233 -4.1945,11.57463 8.2444,0 -4.0499,-11.57463 z m 10.4175,29.80266 -4.0534,-11.57111 -12.8729,0 -4.0534,11.57111 -6.9426,0 14.1781,-41.22914 6.5088,0 14.1816,41.22914 -6.9462,0 z"
     style="fill:#ffffff;fill-opacity:1;fill-rule:nonzero;stroke:none"
     id="path3432" />
  <path
     inkscape:connector-curvature="0"
     d="m 259.00005,112.71395 c -0.6774,-1.03717 -1.898,-1.64394 -3.0727,-1.58044 l -52.384,-1.11831 c -0.7126,-0.0175 -1.4323,0.17286 -2.0355,0.56445 -1.6122,1.04775 -2.0708,3.2138 -1.0266,4.82247 0.2363,0.36336 0.5644,0.68791 0.9031,0.93839 l 17.0991,13.96294 -56.4233,33.44334 9.9695,15.3423 54.5077,-36.94994 5.7397,21.78403 c 0.078,0.381 0.254,0.80433 0.4833,1.16064 1.0443,1.60866 3.2103,2.06727 4.819,1.02305 0.5397,-0.34925 0.9666,-0.83608 1.2629,-1.42522 l 20.38,-48.50342 c 0.501,-1.19239 0.4868,-2.36714 -0.2222,-3.46428"
     style="fill:#ffffff;fill-opacity:1;fill-rule:evenodd;stroke:none"
     id="path3436" />
</svg>
