<?xml version="1.0" encoding="UTF-8" standalone="no"?>
<svg
   xmlns:dc="http://purl.org/dc/elements/1.1/"
   xmlns:cc="http://creativecommons.org/ns#"
   xmlns:rdf="http://www.w3.org/1999/02/22-rdf-syntax-ns#"
   xmlns:svg="http://www.w3.org/2000/svg"
   xmlns="http://www.w3.org/2000/svg"
   xmlns:sodipodi="http://sodipodi.sourceforge.net/DTD/sodipodi-0.dtd"
   xmlns:inkscape="http://www.inkscape.org/namespaces/inkscape"
   width="74.176918"
   height="74.187988"
   viewBox="0 0 209.34376 209.37499"
   version="1.1"
   id="svg2"
   inkscape:version="0.48.2 r9819"
   sodipodi:docname="MUTCD D5-2a.svg">
  <metadata
     id="metadata62">
    <rdf:RDF>
      <cc:Work
         rdf:about="">
        <dc:format>image/svg+xml</dc:format>
        <dc:type
           rdf:resource="http://purl.org/dc/dcmitype/StillImage" />
        <dc:title></dc:title>
      </cc:Work>
    </rdf:RDF>
  </metadata>
  <defs
     id="defs60">
    <clipPath
       clipPathUnits="userSpaceOnUse"
       id="clipPath3564">
      <path
         inkscape:connector-curvature="0"
         d="m 63,43 512.622,0 0,313.129 L 63,356.129 63,43 z"
         id="path3566" />
    </clipPath>
  </defs>
  <sodipodi:namedview
     pagecolor="#ffffff"
     bordercolor="#666666"
     borderopacity="1"
     objecttolerance="10"
     gridtolerance="10"
     guidetolerance="10"
     inkscape:pageopacity="0"
     inkscape:pageshadow="2"
     inkscape:window-width="1280"
     inkscape:window-height="1004"
     id="namedview58"
     showgrid="false"
     fit-margin-top="0"
     fit-margin-left="0"
     fit-margin-right="0"
     fit-margin-bottom="0"
     inkscape:zoom="6.9051738"
     inkscape:cx="33.094992"
     inkscape:cy="30.321991"
     inkscape:window-x="-8"
     inkscape:window-y="-8"
     inkscape:window-maximized="1"
     inkscape:current-layer="svg2"
     showguides="true"
     inkscape:guide-bbox="true" />
  <polygon
     points="235,375 315,205 395,375 315,545 "
     id="polygon10"
     style="fill:none;stroke:#ffffff;stroke-width:40"
     transform="translate(19419.037,9404.1813)" />
  <!-- draw the bicycle -->
  <!-- RIGHT -->
  <!-- LANE -->
  <!-- ONLY -->
  <path
     inkscape:connector-curvature="0"
     d="m 23.92061,0.84366175 161.51579,0 c 12.71412,0 23.0752,10.36461125 23.0752,23.07167125 l 0,161.522827 c 0,12.71059 -10.36108,23.0752 -23.0752,23.0752 l -161.51579,0 c -12.71058,0 -23.07519,-10.36461 -23.07519,-23.0752 l 0,-161.522827 c 0,-12.54478 10.52336,-23.07167125 23.07519,-23.07167125"
     style="fill:#ffffff;fill-opacity:1;fill-rule:nonzero;stroke:#000000;stroke-width:1.69333344;stroke-miterlimit:4;stroke-opacity:1;stroke-dasharray:none"
     id="path3546" />
  <path
     inkscape:connector-curvature="0"
     d="m 23.96542,4.3008916 161.43112,0 c 10.71386,0.0811 19.62856,8.8935214 19.65678,19.6567714 l 0,161.438167 c -0.0282,10.72445 -8.93586,19.63208 -19.65678,19.65325 l -161.43112,0 c -10.77384,-0.0212 -19.5827,-8.9288 -19.65678,-19.65325 l 0,-161.438167 C 4.38274,13.194413 13.19158,4.3820216 23.96542,4.3008916"
     style="fill:#155196;fill-opacity:1;fill-rule:evenodd;stroke:none"
     id="path3570" />
  <path
     inkscape:connector-curvature="0"
     d="m 152.07456,106.29246 -6.91797,0 3.52072,-9.711957 3.39725,9.711957 z m 11.16895,15.29292 -11.8992,-34.593377 -5.45747,0 -11.8992,34.593377 5.82789,0 3.3902,-9.71197 10.81264,0 3.39725,9.71197 5.82789,0 z m -31.92287,0 0,-5.58447 -16.03375,0 0,-9.46503 10.08945,0 0,-5.58447 -10.08945,0 0,-8.498407 14.94014,0 0,-5.461 -20.39056,0 0,34.593377 21.48417,0 z M 97.93728,96.700453 c 0,1.45697 -0.85372,2.91747 -2.1837,3.644177 -0.85372,0.48331 -1.45344,0.60678 -3.15383,0.60678 l -6.55461,0 0,-8.498407 6.55461,0 c 1.81681,0 2.30011,0.11995 3.15383,0.60678 1.32998,0.72672 2.1837,2.18369 2.1837,3.64067 m 6.19478,24.884927 -6.06778,-16.14311 c 3.15383,-1.4605 5.33753,-5.09764 5.33753,-8.741817 0,-3.5172 -2.1837,-7.16492 -5.22112,-8.61484 -1.69686,-0.85372 -3.52072,-1.09361 -6.18772,-1.09361 l -11.41236,0 0,34.593377 5.46453,0 0,-15.0495 6.55461,0 5.58094,15.0495 5.95137,0 z m -39.93798,-15.29292 -6.91797,0 3.52425,-9.711957 3.39372,9.711957 z m 11.17247,15.29292 -11.89919,-34.593377 -5.461,0 -11.8992,34.593377 5.82789,0 3.39725,-9.71197 10.80911,0 3.39725,9.71197 5.82789,0 z"
     style="fill:#ffffff;fill-opacity:1;fill-rule:evenodd;stroke:none"
     id="path3574" />
  <path
     inkscape:connector-curvature="0"
     d="m 151.68896,142.30755 30.46236,20.58811 -30.44825,20.6375 c -1.34408,0.91723 -3.17853,0.56092 -4.09222,-0.77258 -0.60678,-0.90311 -0.50447,-1.82739 -0.2152,-2.93158 l 2.68112,-8.94292 -122.89721,0.0212 0,-15.94909 122.89015,-0.0212 -2.62467,-8.79475 c -0.33866,-1.21708 -0.47625,-2.12019 0.1517,-3.05505 0.91722,-1.33703 2.75519,-1.69334 4.09222,-0.77964"
     style="fill:#ffffff;fill-opacity:1;fill-rule:evenodd;stroke:none"
     id="path3578" />
  <path
     inkscape:connector-curvature="0"
     d="m 155.66443,29.393973 0,-4.86833 -21.44184,0 0,4.86833 7.91634,0 0,29.85206 5.48569,0 0,-29.85206 8.03981,0 z m -24.12295,19.85786 c 0,-13.63839 -16.33008,-9.37683 -16.81692,-15.83267 -0.24341,-3.16794 2.80106,-4.14161 5.36575,-4.02519 3.89467,0.127 5.11175,3.05153 5.11175,3.05153 l 4.87187,-1.46403 c -1.69334,-4.26508 -4.99534,-7.06614 -9.8672,-7.06614 -6.20536,0 -10.83733,2.55764 -10.83733,9.38389 0,5.72206 4.63197,7.79639 6.69572,8.64658 4.5085,1.83092 9.86719,2.55764 9.86719,7.18962 0,2.921 -2.19075,5.11527 -5.35869,5.11527 -3.28789,0 -5.969,-1.82739 -7.4295,-5.11527 l -5.24228,1.94733 c 2.32128,5.24228 6.70278,8.79475 12.67178,8.79475 2.92806,0 5.60211,-0.99836 7.54944,-2.70228 2.19781,-1.95086 3.41842,-4.75192 3.41842,-7.92339 m -26.92753,9.9942 0,-5.60564 -16.07961,0 0,-9.50031 10.11414,0 0,-5.60211 -10.11414,0 0,-8.53369 14.986,0 0,-5.47864 -20.4717,0 0,34.72039 21.56531,0 z M 71.11064,34.272893 c 0,1.45697 -0.85019,2.92452 -2.19075,3.65125 -0.85019,0.49036 -1.4605,0.61383 -3.16794,0.61383 l -6.57931,0 0,-8.53369 6.57931,0 c 1.82386,0 2.31775,0.12347 3.16794,0.6103 1.34056,0.73378 2.19075,2.19428 2.19075,3.65831 m 6.21242,24.97314 -6.08895,-16.20309 c 3.16795,-1.46402 5.3587,-5.1188 5.3587,-8.77005 0,-3.53484 -2.19075,-7.18961 -5.23522,-8.65011 -1.70745,-0.85373 -3.53131,-1.09714 -6.21242,-1.09714 l -11.45117,0 0,34.72039 5.47864,0 0,-15.10595 6.57931,0 5.60564,15.10595 5.96547,0 z"
     style="fill:#ffffff;fill-opacity:1;fill-rule:evenodd;stroke:none"
     id="path3582" />
</svg>
