<?xml version="1.0" encoding="UTF-8" standalone="no"?>
<svg
   xmlns:dc="http://purl.org/dc/elements/1.1/"
   xmlns:cc="http://creativecommons.org/ns#"
   xmlns:rdf="http://www.w3.org/1999/02/22-rdf-syntax-ns#"
   xmlns:svg="http://www.w3.org/2000/svg"
   xmlns="http://www.w3.org/2000/svg"
   xmlns:sodipodi="http://sodipodi.sourceforge.net/DTD/sodipodi-0.dtd"
   xmlns:inkscape="http://www.inkscape.org/namespaces/inkscape"
   width="136.64984"
   height="116.53051"
   viewBox="0 0 385.65623 328.87499"
   version="1.1"
   id="svg2"
   inkscape:version="0.48.2 r9819"
   sodipodi:docname="MUTCD D5-7.svg">
  <metadata
     id="metadata62">
    <rdf:RDF>
      <cc:Work
         rdf:about="">
        <dc:format>image/svg+xml</dc:format>
        <dc:type
           rdf:resource="http://purl.org/dc/dcmitype/StillImage" />
        <dc:title></dc:title>
      </cc:Work>
    </rdf:RDF>
  </metadata>
  <defs
     id="defs60">
    <clipPath
       clipPathUnits="userSpaceOnUse"
       id="clipPath3564">
      <path
         inkscape:connector-curvature="0"
         d="m 63,43 512.622,0 0,313.129 L 63,356.129 63,43 z"
         id="path3566" />
    </clipPath>
  </defs>
  <sodipodi:namedview
     pagecolor="#ffffff"
     bordercolor="#666666"
     borderopacity="1"
     objecttolerance="10"
     gridtolerance="10"
     guidetolerance="10"
     inkscape:pageopacity="0"
     inkscape:pageshadow="2"
     inkscape:window-width="1280"
     inkscape:window-height="1004"
     id="namedview58"
     showgrid="false"
     fit-margin-top="0"
     fit-margin-left="0"
     fit-margin-right="0"
     fit-margin-bottom="0"
     inkscape:zoom="3.4525869"
     inkscape:cx="75.36309"
     inkscape:cy="69.342517"
     inkscape:window-x="-8"
     inkscape:window-y="-8"
     inkscape:window-maximized="1"
     inkscape:current-layer="svg2"
     showguides="true"
     inkscape:guide-bbox="true" />
  <polygon
     points="235,375 315,205 395,375 315,545 "
     id="polygon10"
     style="fill:none;stroke:#ffffff;stroke-width:40"
     transform="translate(22450.632,7509.8376)" />
  <!-- draw the bicycle -->
  <!-- RIGHT -->
  <!-- LANE -->
  <!-- ONLY -->
  <path
     inkscape:connector-curvature="0"
     d="m 34.01311,1.1396234 317.63409,0 c 18.0798,0 32.8789,14.7990296 32.8789,32.8859396 l 0,260.829797 c 0,18.08691 -14.7991,32.88241 -32.8789,32.88241 l -317.63409,0 c -18.08691,0 -32.88594,-14.7955 -32.88594,-32.88241 l 0,-260.829797 c 0,-18.08691 14.79903,-32.8859396 32.88594,-32.8859396"
     style="fill:#ffffff;fill-opacity:1;fill-rule:nonzero;stroke:#000000;stroke-width:2.25777784;stroke-miterlimit:4;stroke-opacity:1;stroke-dasharray:none"
     id="path3340" />
  <path
     inkscape:connector-curvature="0"
     d="m 34.01311,6.9206034 317.63409,0 c 14.9013,0 27.0968,12.1990596 27.0968,27.1074496 l 0,62.77328 -371.8348,0 0,-62.77328 c 0,-14.90839 12.19552,-27.1074496 27.10391,-27.1074496"
     style="fill:#155196;fill-opacity:1;fill-rule:evenodd;stroke:none"
     id="path3348" />
  <path
     inkscape:connector-curvature="0"
     d="m 34.01311,321.76175 317.63409,0 c 14.9013,0 27.0968,-12.19906 27.0968,-27.10745 l 0,-192.06987 -371.8348,0 0,192.06987 c 0,14.90839 12.19552,27.10745 27.10391,27.10745"
     style="fill:#155196;fill-opacity:1;fill-rule:evenodd;stroke:none"
     id="path3352" />
  <path
     inkscape:connector-curvature="0"
     d="m 73.30903,72.136153 -6.81566,-18.13278 c 3.54188,-1.63336 5.99722,-5.72558 5.99722,-9.81428 0,-3.95111 -2.45534,-8.04333 -5.86317,-9.67669 -1.90853,-0.9525 -3.95111,-1.2312 -6.94972,-1.2312 l -12.81289,0 0,38.85495 6.13128,0 0,-16.90511 7.36247,0 6.26886,16.90511 6.68161,0 z m -6.95325,-27.94706 c 0,1.63689 -0.9525,3.27378 -2.4518,4.0887 -0.95956,0.5468 -1.63689,0.68439 -3.54542,0.68439 l -7.36247,0 0,-9.54264 7.36247,0 c 2.04258,0 2.58586,0.13758 3.54542,0.68086 1.4993,0.81491 2.4518,2.4518 2.4518,4.08869"
     style="fill:#ffffff;fill-opacity:1;fill-rule:nonzero;stroke:none"
     id="path3356" />
  <path
     inkscape:connector-curvature="0"
     d="m 79.71548,72.136153 0,-38.85495 22.90582,0 0,6.13834 -16.77102,0 0,9.54264 11.31362,0 0,6.26886 -11.31362,0 0,10.63625 17.99522,0 0,6.26886 -24.13002,0 z"
     style="fill:#ffffff;fill-opacity:1;fill-rule:nonzero;stroke:none"
     id="path3360" />
  <path
     inkscape:connector-curvature="0"
     d="m 130.1521,69.817693 c -2.1802,1.90853 -5.1823,3.00214 -8.449,3.00214 -6.6816,0 -11.5852,-3.95816 -14.1782,-9.8178 l 5.8597,-2.18017 c 1.6369,3.67947 4.6355,5.72558 8.3185,5.72558 3.5454,0 5.9972,-2.45533 5.9972,-5.72558 0,-5.18231 -5.9972,-5.99722 -11.0419,-8.04333 -2.3178,-0.95603 -7.5001,-3.27378 -7.5001,-9.6767 0,-7.63411 5.1823,-10.49867 12.132,-10.49867 5.454,0 9.137,3.1362 11.0455,7.90575 l -5.4575,1.63689 c 0,0 -1.3582,-3.27377 -5.7255,-3.41136 -2.8575,-0.13405 -6.2689,0.95603 -5.9937,4.50145 0.5468,7.22489 18.8101,2.4518 18.8101,17.72003 0,3.54541 -1.3618,6.68161 -3.8171,8.86177"
     style="fill:#ffffff;fill-opacity:1;fill-rule:nonzero;stroke:none"
     id="path3364" />
  <path
     inkscape:connector-curvature="0"
     d="m 151.9644,38.735853 0,33.401 -6.1348,0 0,-33.401 -8.8618,0 0,-5.45394 23.9924,0 0,5.45394 -8.9958,0 z"
     style="fill:#ffffff;fill-opacity:1;fill-rule:nonzero;stroke:none"
     id="path3368" />
  <path
     inkscape:connector-curvature="0"
     d="m 240.053,72.136153 -13.3597,-38.85495 -6.1313,0 -13.3632,38.85495 6.5475,0 3.8171,-10.90789 12.132,0 3.8206,10.90789 6.537,0 z m -12.5413,-17.17675 -7.7717,0 3.9547,-10.90436 3.817,10.90436 z"
     style="fill:#ffffff;fill-opacity:1;fill-rule:nonzero;stroke:none"
     id="path3372" />
  <path
     inkscape:connector-curvature="0"
     d="m 272.2298,72.136153 -6.8192,-18.13278 c 3.5455,-1.63336 6.0008,-5.72558 6.0008,-9.81428 0,-3.95111 -2.4553,-8.04333 -5.8632,-9.67669 -1.9085,-0.9525 -3.9546,-1.2312 -6.9532,-1.2312 l -12.8164,0 0,38.85495 6.1383,0 0,-16.90511 7.3589,0 6.2724,16.90511 6.6816,0 z m -6.9603,-27.94706 c 0,1.63689 -0.9489,3.27378 -2.4518,4.0887 -0.9489,0.5468 -1.6333,0.68439 -3.5419,0.68439 l -7.3589,0 0,-9.54264 7.3589,0 c 2.0462,0 2.593,0.13758 3.5419,0.68086 1.5029,0.81491 2.4518,2.4518 2.4518,4.08869"
     style="fill:#ffffff;fill-opacity:1;fill-rule:nonzero;stroke:none"
     id="path3376" />
  <path
     inkscape:connector-curvature="0"
     d="m 278.6328,72.136153 0,-38.85495 22.9023,0 0,6.13834 -16.764,0 0,9.54264 11.3136,0 0,6.26886 -11.3136,0 0,10.63625 17.9881,0 0,6.26886 -24.1264,0 z"
     style="fill:#ffffff;fill-opacity:1;fill-rule:nonzero;stroke:none"
     id="path3380" />
  <path
     inkscape:connector-curvature="0"
     d="m 338.6156,72.136153 -13.3597,-38.85495 -6.1384,0 -13.3597,38.85495 6.5476,0 3.8171,-10.90789 12.132,0 3.817,10.90789 6.5441,0 z m -12.5448,-17.17675 -7.7647,0 3.9476,-10.90436 3.8171,10.90436 z"
     style="fill:#ffffff;fill-opacity:1;fill-rule:nonzero;stroke:none"
     id="path3384" />
  <path
     inkscape:connector-curvature="0"
     d="m 57.18709,133.65532 0,33.401 -6.13834,0 0,-33.401 -8.85825,0 0,-5.45394 23.98889,0 0,5.45394 -8.9923,0 z"
     style="fill:#ffffff;fill-opacity:1;fill-rule:nonzero;stroke:none"
     id="path3388" />
  <path
     inkscape:connector-curvature="0"
     d="m 98.4903,147.69766 c 0,-4.91067 -0.9525,-9.81428 -2.5929,-13.22211 -2.4518,-4.77309 -5.8596,-6.95325 -10.76678,-6.95325 -4.49792,0 -7.63764,1.36172 -9.95187,4.36033 -2.58938,3.67947 -4.22275,9.40858 -4.22275,15.81503 0,4.63197 1.09009,9.81428 2.71992,13.08805 2.32481,4.77309 5.72558,6.95325 11.18306,6.95325 4.08872,0 7.22132,-1.36525 9.40502,-4.36386 2.727,-3.41136 4.2263,-9.54264 4.2263,-15.67744 m -6.1348,0 c 0,2.99861 -0.6809,6.81919 -1.4993,8.86178 -1.3617,3.4043 -3.1362,4.90713 -5.99722,4.90713 -2.45534,0 -4.09223,-0.9525 -5.31636,-2.99861 -1.49931,-2.45533 -2.31775,-6.68161 -2.31775,-10.7703 0,-3.27378 0.5468,-6.81567 1.4993,-9.13342 1.36172,-3.40783 3.27025,-4.90714 6.26886,-4.77308 2.32127,0.13758 3.81707,0.95602 5.04477,2.99861 1.4993,2.58939 2.3177,6.54755 2.3177,10.90789"
     style="fill:#ffffff;fill-opacity:1;fill-rule:nonzero;stroke:none"
     id="path3392" />
  <path
     inkscape:connector-curvature="0"
     d="m 131.6161,161.19175 c -2.0461,3.81705 -6.6816,6.54755 -11.4511,6.54755 -4.7696,0 -9.4051,-2.7305 -11.4512,-6.54755 -1.0901,-2.31423 -1.7709,-5.04473 -1.7709,-8.03981 l 0,-24.94844 6.1312,0 0,24.94844 c 0,5.0412 2.8646,8.31497 7.0909,8.31497 4.2227,0 7.0908,-3.27377 7.0908,-8.31497 l 0,-24.94844 6.1313,0 0,24.94844 c 0,2.99508 -0.6809,5.72558 -1.771,8.03981"
     style="fill:#ffffff;fill-opacity:1;fill-rule:nonzero;stroke:none"
     id="path3396" />
  <path
     inkscape:connector-curvature="0"
     d="m 168.9683,167.05562 -6.8157,-18.13278 c 3.5419,-1.63689 5.9972,-5.72558 5.9972,-9.81428 0,-3.95111 -2.4553,-8.04333 -5.8561,-9.67669 -1.9156,-0.95603 -3.9582,-1.2312 -6.9603,-1.2312 l -12.8129,0 0,38.85495 6.1348,0 0,-16.90511 7.359,0 6.2794,16.90511 6.6746,0 z m -6.9533,-27.94706 c 0,1.63689 -0.956,3.27378 -2.4518,4.0887 -0.956,0.5468 -1.6404,0.68439 -3.5489,0.68439 l -7.359,0 0,-9.54617 7.359,0 c 2.0461,0 2.5929,0.14111 3.5489,0.68439 1.4958,0.81491 2.4518,2.4518 2.4518,4.08869"
     style="fill:#ffffff;fill-opacity:1;fill-rule:nonzero;stroke:none"
     id="path3400" />
  <path
     inkscape:connector-curvature="0"
     d="m 175.3768,128.20138 6.2689,0 0,38.85494 -6.2689,0 0,-38.85494 z"
     style="fill:#ffffff;fill-opacity:1;fill-rule:nonzero;stroke:none"
     id="path3402" />
  <path
     inkscape:connector-curvature="0"
     d="m 210.6807,164.7368 c -2.1766,1.90852 -5.1788,3.00214 -8.4526,3.00214 -6.678,0 -11.5816,-3.95464 -14.1746,-9.81781 l 5.8632,-2.18017 c 1.6334,3.67948 4.632,5.72559 8.3114,5.72559 3.549,0 6.0008,-2.45534 6.0008,-5.72559 0,-5.17878 -6.0008,-5.99722 -11.0455,-8.04333 -2.3142,-0.95603 -7.4965,-3.27378 -7.4965,-9.6767 0,-7.63411 5.1823,-10.49866 12.1356,-10.49866 5.4504,0 9.1334,3.13619 11.0454,7.90575 l -5.4574,1.63689 c 0,0 -1.3653,-3.27378 -5.7256,-3.40784 -2.8611,-0.13758 -6.2724,0.9525 -5.9973,4.49792 0.5469,7.22489 18.8137,2.45181 18.8137,17.72003 0,3.54542 -1.3653,6.68161 -3.8206,8.86178"
     style="fill:#ffffff;fill-opacity:1;fill-rule:nonzero;stroke:none"
     id="path3406" />
  <path
     inkscape:connector-curvature="0"
     d="m 232.4894,133.65532 0,33.401 -6.1313,0 0,-33.401 -8.8617,0 0,-5.45394 23.9924,0 0,5.45394 -8.9994,0 z"
     style="fill:#ffffff;fill-opacity:1;fill-rule:nonzero;stroke:none"
     id="path3410" />
  <path
     inkscape:connector-curvature="0"
     d="m 88.1278,193.22185 6.2689,0 0,38.85495 -6.2689,0 0,-38.85495 z"
     style="fill:#ffffff;fill-opacity:1;fill-rule:nonzero;stroke:none"
     id="path3412" />
  <path
     inkscape:connector-curvature="0"
     d="m 124.5253,232.07468 -14.8555,-26.31017 0,26.31017 -6.1383,0 0,-38.85494 6.1383,0 14.1746,24.81439 0,-24.81439 6.1349,0 0,38.85494 -5.454,0 z"
     style="fill:#ffffff;fill-opacity:1;fill-rule:nonzero;stroke:none"
     id="path3416" />
  <path
     inkscape:connector-curvature="0"
     d="m 145.2475,199.35666 0,9.54264 11.3171,0 0,6.26886 -11.3171,0 0,16.90511 -6.1384,0 0,-38.85142 24.13,0 0,6.13481 -17.9916,0 z"
     style="fill:#ffffff;fill-opacity:1;fill-rule:nonzero;stroke:none"
     id="path3420" />
  <path
     inkscape:connector-curvature="0"
     d="m 195.5465,212.71669 c 0,-4.91066 -0.9489,-9.81428 -2.5894,-13.22211 -2.4518,-4.77308 -5.8596,-6.95325 -10.7703,-6.95325 -4.4944,0 -7.6341,1.36172 -9.9483,4.36386 -2.5894,3.67947 -4.2227,9.40506 -4.2227,15.8115 0,4.6355 1.0865,9.81428 2.7199,13.08806 2.3212,4.77308 5.7256,6.95325 11.183,6.95325 4.0852,0 7.2214,-1.36525 9.4051,-4.36386 2.727,-3.40784 4.2227,-9.54264 4.2227,-15.67745 m -6.1312,0 c 0,3.00214 -0.6809,6.8192 -1.5029,8.86178 -1.3582,3.40783 -3.1326,4.90714 -5.9937,4.90714 -2.4553,0 -4.0922,-0.9525 -5.3199,-2.99861 -1.4993,-2.45533 -2.3142,-6.68161 -2.3142,-10.77031 0,-3.27378 0.5433,-6.81919 1.4993,-9.13341 1.3617,-3.40784 3.2703,-4.90714 6.2689,-4.76956 2.3177,0.13406 3.817,0.9525 5.0447,2.99508 1.4993,2.59292 2.3178,6.54756 2.3178,10.90789"
     style="fill:#ffffff;fill-opacity:1;fill-rule:nonzero;stroke:none"
     id="path3424" />
  <path
     inkscape:connector-curvature="0"
     d="m 64.54603,296.29116 c -5.72558,0 -9.40858,-2.18016 -11.86392,-6.95325 -1.77447,-3.40783 -2.86102,-8.31497 -2.86102,-13.22564 0,-6.13128 1.63689,-12.26608 4.36033,-15.67391 2.31775,-2.86456 5.588,-4.36034 9.95186,-4.36034 5.85964,0 9.54264,2.45181 12.13203,7.90575 l -5.72558,2.45181 c -2.17664,-3.27378 -3.40431,-4.0887 -6.40645,-4.0887 -3.13619,0 -5.17878,1.36525 -6.5405,4.76956 -0.95955,2.31775 -1.50283,5.72911 -1.50283,8.99583 0,4.22981 0.95603,8.45609 2.4518,10.90789 1.36525,2.04611 3.1362,3.00214 5.86317,3.00214 2.59292,0 4.50145,-1.36525 6.00075,-4.50144 l 5.85964,2.18016 c -2.31422,5.72911 -6.13128,8.59014 -11.71928,8.59014"
     style="fill:#ffffff;fill-opacity:1;fill-rule:nonzero;stroke:none"
     id="path3428" />
  <path
     inkscape:connector-curvature="0"
     d="m 84.58028,295.61033 0,-38.85495 22.90232,0 0,6.13481 -16.7675,0 0,9.54264 11.3206,0 0,6.27239 -11.3206,0 0,10.63272 17.9952,0 0,6.27239 -24.13002,0 z"
     style="fill:#ffffff;fill-opacity:1;fill-rule:nonzero;stroke:none"
     id="path3432" />
  <path
     inkscape:connector-curvature="0"
     d="m 136.1141,295.61033 -14.8626,-26.31017 0,26.31017 -6.1348,0 0,-38.85495 6.1348,0 14.1782,24.81087 0,-24.81087 6.1348,0 0,38.85495 -5.4504,0 z"
     style="fill:#ffffff;fill-opacity:1;fill-rule:nonzero;stroke:none"
     id="path3436" />
  <path
     inkscape:connector-curvature="0"
     d="m 162.2866,262.20862 0,33.401 -6.1383,0 0,-33.401 -8.8582,0 0,-5.45394 23.9924,0 0,5.45394 -8.9959,0 z"
     style="fill:#ffffff;fill-opacity:1;fill-rule:nonzero;stroke:none"
     id="path3440" />
  <path
     inkscape:connector-curvature="0"
     d="m 176.8705,295.61033 0,-38.85495 22.9023,0 0,6.13481 -16.764,0 0,9.54264 11.3136,0 0,6.27239 -11.3136,0 0,10.63272 17.9882,0 0,6.27239 -24.1265,0 z"
     style="fill:#ffffff;fill-opacity:1;fill-rule:nonzero;stroke:none"
     id="path3444" />
  <path
     inkscape:connector-curvature="0"
     d="m 233.8582,295.61033 -6.8192,-18.13278 c 3.5454,-1.63689 6.0008,-5.72558 6.0008,-9.81428 0,-3.95111 -2.4554,-8.04333 -5.8632,-9.67669 -1.9085,-0.95603 -3.9546,-1.2312 -6.9533,-1.2312 l -12.8164,0 0,38.85495 6.1313,0 0,-16.90511 7.366,0 6.2724,16.90511 6.6816,0 z m -6.9532,-27.94706 c 0,1.63689 -0.9561,3.27378 -2.4519,4.0887 -0.956,0.54328 -1.6404,0.68086 -3.5489,0.68086 l -7.366,0 0,-9.54264 7.366,0 c 2.0461,0 2.5929,0.13758 3.5489,0.68439 1.4958,0.81492 2.4519,2.4518 2.4519,4.08869"
     style="fill:#ffffff;fill-opacity:1;fill-rule:nonzero;stroke:none"
     id="path3448" />
  <path
     inkscape:connector-curvature="0"
     d="m 295.1463,188.12529 c -0.3563,-0.16228 -0.7162,-0.39511 -0.9913,-0.68086 -1.2524,-1.27706 -1.2418,-3.33023 0.028,-4.58259 0.4833,-0.46919 1.0936,-0.77258 1.7568,-0.89253 l 47.8508,-8.74183 c 1.0619,-0.27517 2.2825,0.0459 3.0939,0.86783 0.8537,0.86784 1.083,1.93323 0.8466,3.10445 l -9.5073,47.92486 c -0.1516,0.58914 -0.4551,1.11831 -0.8749,1.53458 -1.2665,1.24531 -3.3267,1.23473 -4.5826,-0.0353 -0.2681,-0.28223 -0.508,-0.635 -0.6526,-0.96661 l -9.2746,-18.74309 -42.7073,43.76561 -11.9238,-12.09675 45.0955,-40.93986 -18.1574,-9.51794"
     style="fill:#ffffff;fill-opacity:1;fill-rule:evenodd;stroke:none"
     id="path3452" />
</svg>
