<?xml version="1.0" encoding="UTF-8" standalone="no"?>
<!-- Created with Inkscape (http://www.inkscape.org/) -->

<svg
   xmlns:dc="http://purl.org/dc/elements/1.1/"
   xmlns:cc="http://creativecommons.org/ns#"
   xmlns:rdf="http://www.w3.org/1999/02/22-rdf-syntax-ns#"
   xmlns:svg="http://www.w3.org/2000/svg"
   xmlns="http://www.w3.org/2000/svg"
   xmlns:sodipodi="http://sodipodi.sourceforge.net/DTD/sodipodi-0.dtd"
   xmlns:inkscape="http://www.inkscape.org/namespaces/inkscape"
   id="svg17624"
   version="1.1"
   inkscape:version="0.48.2 r9819"
   width="181.01562"
   height="145"
   xml:space="preserve"
   sodipodi:docname="MUTCD R13-1.svg"><metadata
     id="metadata17630"><rdf:RDF><cc:Work
         rdf:about=""><dc:format>image/svg+xml</dc:format><dc:type
           rdf:resource="http://purl.org/dc/dcmitype/StillImage" /><dc:title></dc:title></cc:Work></rdf:RDF></metadata><defs
     id="defs17628"><inkscape:perspective
       sodipodi:type="inkscape:persp3d"
       inkscape:vp_x="0 : 0.5 : 1"
       inkscape:vp_y="0 : 1000 : 0"
       inkscape:vp_z="1 : 0.5 : 1"
       inkscape:persp3d-origin="0.5 : 0.33333333 : 1"
       id="perspective17632" /><clipPath
       clipPathUnits="userSpaceOnUse"
       id="clipPath17642"><path
         d="m -2,710 501,0 0,-711 -501,0 0,711 z"
         id="path17644"
         inkscape:connector-curvature="0" /></clipPath><clipPath
       clipPathUnits="userSpaceOnUse"
       id="clipPath17648"><path
         d="m 0,708.06 498,0 0,-708 -498,0 0,708 z"
         id="path17650"
         inkscape:connector-curvature="0" /></clipPath><clipPath
       clipPathUnits="userSpaceOnUse"
       id="clipPath17798"><path
         d="m -2,710 501,0 0,-711 -501,0 0,711 z"
         id="path17800"
         inkscape:connector-curvature="0" /></clipPath><clipPath
       clipPathUnits="userSpaceOnUse"
       id="clipPath17804"><path
         d="m 0,708.06 498,0 0,-708 -498,0 0,708 z"
         id="path17806"
         inkscape:connector-curvature="0" /></clipPath><clipPath
       id="Clip0"><path
         inkscape:connector-curvature="0"
         d="m 0,0 212.597,0 0,269.292 L 0,269.292 0,0 z"
         transform="translate(0.923828,0.879883)"
         id="path7" /></clipPath><clipPath
       id="Clip0-8"><path
         inkscape:connector-curvature="0"
         d="m 0,0 170.079,0 0,113.386 L 0,113.386 0,0 z"
         transform="translate(0.0986328,0.822266)"
         id="path7-8" /></clipPath><clipPath
       id="Clip0-1"><path
         inkscape:connector-curvature="0"
         d="m 0,0 287.009,0 0,159.449 L 0,159.449 0,0 z"
         transform="translate(0.396484,0.267578)"
         id="path7-7" /></clipPath><clipPath
       id="Clip0-9"><path
         inkscape:connector-curvature="0"
         d="m 0,0 170.079,0 0,170.079 L 0,170.079 0,0 z"
         transform="translate(0.460938,0.775391)"
         id="path7-4" /></clipPath><clipPath
       id="Clip0-4"><path
         inkscape:connector-curvature="0"
         d="m 0,0 340.157,0 0,226.771 L 0,226.771 0,0 z"
         transform="translate(0.921875,0.25293)"
         id="path7-5" /></clipPath><clipPath
       id="Clip0-5"><path
         inkscape:connector-curvature="0"
         d="m 0,0 255.119,0 0,170.079 L 0,170.079 0,0 z"
         transform="translate(0.147461,0.0595703)"
         id="path7-1" /></clipPath><clipPath
       id="Clip0-0"><path
         inkscape:connector-curvature="0"
         d="m 0,0 170.079,0 0,113.386 L 0,113.386 0,0 z"
         transform="translate(0.0673828,0.207031)"
         id="path7-9" /></clipPath></defs><sodipodi:namedview
     pagecolor="#ffffff"
     bordercolor="#666666"
     borderopacity="1"
     objecttolerance="10"
     gridtolerance="10"
     guidetolerance="10"
     inkscape:pageopacity="0"
     inkscape:pageshadow="2"
     inkscape:window-width="1280"
     inkscape:window-height="1004"
     id="namedview17626"
     showgrid="false"
     inkscape:zoom="2.8284271"
     inkscape:cx="54.942113"
     inkscape:cy="26.667895"
     inkscape:window-x="-8"
     inkscape:window-y="-8"
     inkscape:window-maximized="1"
     inkscape:current-layer="g17634"
     fit-margin-top="0"
     fit-margin-left="0"
     fit-margin-right="0"
     fit-margin-bottom="0"
     showguides="true"
     inkscape:guide-bbox="true" /><g
     id="g17634"
     inkscape:groupmode="layer"
     inkscape:label="GG1999P002"
     transform="matrix(1.25,0,0,-1.25,-6451.7578,4007.5781)"><path
       inkscape:connector-curvature="0"
       d="m 5168.536,3205.6698 130.563,0 c 3.6991,0 6.719,-3.0189 6.719,-6.721 l 0,-101.759 c 0,-3.703 -3.0199,-6.719 -6.719,-6.719 l -130.563,0 c -3.699,0 -6.718,3.016 -6.718,6.719 l 0,101.759 c 0,3.6551 3.064,6.721 6.718,6.721"
       style="fill:#ffffff;fill-opacity:1;fill-rule:nonzero;stroke:#000000;stroke-width:0.80000001;stroke-linecap:butt;stroke-linejoin:miter;stroke-miterlimit:4;stroke-opacity:1;stroke-dasharray:none"
       id="path3687" /><path
       inkscape:connector-curvature="0"
       d="m 5299.0601,3202.7908 c 2.187,-0.062 3.799,-1.7069 3.879,-3.8789 l -0.01,-101.922 c -0.162,-2.0352 -1.805,-3.6402 -3.871,-3.6402 l -130.721,0 c -2.039,0.1641 -3.635,1.808 -3.642,3.8709 l 0.01,101.922 c 0.153,2.0451 1.813,3.6291 3.871,3.6441 l 130.485,0"
       style="fill:#00674c;fill-opacity:1;fill-rule:evenodd;stroke:none"
       id="path3691" /><path
       inkscape:connector-curvature="0"
       d="m 5276.132,3172.0797 0,19.1881 -3.434,0 0,-7.406 -8.617,0 0,7.406 -3.4349,0 0,-19.1881 3.4349,0 0,8.348 8.617,0.068 0,-8.4161 3.434,0 z m -26.596,9.5631 0,-3.434 3.166,0 c -0.47,-1.7541 -2.154,-3.0311 -4.041,-3.0311 -3.566,0 -4.509,3.4341 -4.509,6.5311 0,3.77 1.818,6.463 4.509,6.463 1.684,0 2.897,-0.943 3.637,-2.558 l 3.5,1.212 c -1.346,2.961 -3.703,4.7801 -7.137,4.7801 -4.779,0 -7.943,-4.0411 -7.943,-9.897 0,-4.9842 2.289,-9.9761 7.943,-9.9761 4.243,0 7.6101,3.2419 7.6101,7.4181 l 0,2.492 -6.7351,0 z m -13.127,9.625 -3.435,0 0,-19.1881 3.435,0 0,19.1881 z m -7.271,-19.1881 0,3.4341 -10.84,0 0,5.252 5.7231,0 0,3.502 -5.7231,0 0,3.566 10.5041,0 0,3.434 -14.0061,0 0,-19.1881 14.342,0 z m -17.574,19.1881 -3.5,0 -1.953,-12.3871 -2.961,12.3871 -3.434,0 -2.828,-12.3871 -2.088,12.3871 -3.568,0 3.5,-19.1881 3.636,0 3.03,12.8601 3.097,-12.8601 3.635,0 3.434,19.1881 z"
       style="fill:#ffffff;fill-opacity:1;fill-rule:evenodd;stroke:none"
       id="path3695" /><path
       inkscape:connector-curvature="0"
       d="m 5291.866,3138.4788 0,19.191 -3.298,0 0,-12.66 -8.821,12.66 -3.367,0 0,-19.191 3.367,0 0,13.1989 9.157,-13.1989 2.962,0 z m -23.294,9.629 c 0,-2.9611 -0.875,-6.532 -4.512,-6.532 -2.895,0 -4.645,2.4259 -4.645,6.532 0,4.0389 1.75,6.4649 4.645,6.4649 2.8941,0 4.512,-2.426 4.512,-6.4649 m 3.433,0.068 c 0,5.857 -3.232,9.83 -7.945,9.83 -5.049,0 -8.147,-3.7689 -8.147,-9.8979 0,-4.848 2.491,-9.9771 8.147,-9.9771 4.847,0 7.945,4.0511 7.945,10.045 m -20.4,9.4941 -3.434,0 0,-19.191 3.434,0 0,19.191 z m -6.666,-3.3671 0,3.3671 -14.4089,0 0,-3.3671 5.522,0 0,-15.8239 3.3669,0 0,15.8239 5.52,0 z m -22.959,-7.877 -5.385,0 2.691,6.4631 2.694,-6.4631 z m 7.068,-7.9469 -8.012,19.191 -3.5,0 -8.078,-19.191 3.77,0 1.885,4.511 8.349,0 1.8851,-4.511 3.7009,0 z m -21.0719,15.8239 0,3.3671 -14.4081,0 0,-3.3671 5.521,0 0,-15.8239 3.3651,0 0,15.8239 5.522,0 z m -16.4941,-10.234 c 0,2.087 -1.078,3.906 -2.762,4.781 -1.078,0.5391 -2.76,1.078 -5.318,1.6151 -2.358,0.5369 -3.03,1.0099 -3.03,2.0879 0,1.2111 1.145,1.953 3.098,1.953 1.816,0 3.365,-0.607 4.578,-1.8869 l 2.559,2.2889 c -1.953,2.02 -4.311,2.9631 -7.137,2.9631 -3.906,0 -6.6,-2.154 -6.6,-5.3181 0,-1.2109 0.405,-2.355 1.213,-3.232 0.809,-0.944 1.817,-1.415 3.77,-1.8849 l 0.941,-0.27 0.875,-0.203 0.877,-0.2691 c 0.875,-0.2019 1.615,-0.469 2.289,-0.739 0.807,-0.4059 1.213,-1.011 1.213,-1.7539 0,-1.41 -1.752,-2.488 -4.176,-2.488 -2.154,0 -3.703,0.738 -5.117,2.422 l -2.76,-2.152 c 2.155,-2.493 4.647,-3.715 7.944,-3.715 1.752,0 3.502,0.48 4.847,1.289 1.821,1.078 2.696,2.558 2.696,4.5119"
       style="fill:#ffffff;fill-opacity:1;fill-rule:evenodd;stroke:none"
       id="path3699" /><path
       inkscape:connector-curvature="0"
       d="m 5205.9232,3104.8807 0,19.1881 -2.76,0 c -0.74,-1.211 -1.549,-1.75 -3.029,-2.086 l 0.066,-2.762 2.426,0 -0.068,-14.3401 3.365,0 z"
       style="fill:#ffffff;fill-opacity:1;fill-rule:evenodd;stroke:none"
       id="path3703" /><path
       inkscape:connector-curvature="0"
       d="m 5267.3292,3107.2757 0,2.5782 -8.129,0 0,3.9369 4.293,0 0,2.625 -4.293,0 0,2.676 7.879,0 0,2.578 -10.504,0 0,-14.3941 10.754,0 z m -13.179,0 0,2.2221 -8.18,0 0,12.172 -2.574,0 0,-14.3941 10.754,0 z m -14.442,14.3941 -2.574,0 0,-14.3941 2.574,0 0,14.3941 z m -6.312,-14.3941 0,14.3941 -2.524,0 -4.242,-8.5349 -4.191,8.5349 -2.526,0 0,-14.3941 2.526,0 0,8.7891 4.191,-8.7891 4.242,8.7891 0,-8.7891 2.524,0 z"
       style="fill:#ffffff;fill-opacity:1;fill-rule:evenodd;stroke:none"
       id="path3707" /></g></svg>