<?xml version="1.0" encoding="UTF-8" standalone="no"?>
<!-- Created with Inkscape (http://www.inkscape.org/) -->

<svg
   xmlns:dc="http://purl.org/dc/elements/1.1/"
   xmlns:cc="http://creativecommons.org/ns#"
   xmlns:rdf="http://www.w3.org/1999/02/22-rdf-syntax-ns#"
   xmlns:svg="http://www.w3.org/2000/svg"
   xmlns="http://www.w3.org/2000/svg"
   xmlns:sodipodi="http://sodipodi.sourceforge.net/DTD/sodipodi-0.dtd"
   xmlns:inkscape="http://www.inkscape.org/namespaces/inkscape"
   id="svg17624"
   version="1.1"
   inkscape:version="0.48.2 r9819"
   width="180.97656"
   height="100.66406"
   xml:space="preserve"
   sodipodi:docname="MUTCD D8-3.svg"><metadata
     id="metadata17630"><rdf:RDF><cc:Work
         rdf:about=""><dc:format>image/svg+xml</dc:format><dc:type
           rdf:resource="http://purl.org/dc/dcmitype/StillImage" /><dc:title></dc:title></cc:Work></rdf:RDF></metadata><defs
     id="defs17628"><inkscape:perspective
       sodipodi:type="inkscape:persp3d"
       inkscape:vp_x="0 : 0.5 : 1"
       inkscape:vp_y="0 : 1000 : 0"
       inkscape:vp_z="1 : 0.5 : 1"
       inkscape:persp3d-origin="0.5 : 0.33333333 : 1"
       id="perspective17632" /><clipPath
       clipPathUnits="userSpaceOnUse"
       id="clipPath17642"><path
         d="m -2,710 501,0 0,-711 -501,0 0,711 z"
         id="path17644"
         inkscape:connector-curvature="0" /></clipPath><clipPath
       clipPathUnits="userSpaceOnUse"
       id="clipPath17648"><path
         d="m 0,708.06 498,0 0,-708 -498,0 0,708 z"
         id="path17650"
         inkscape:connector-curvature="0" /></clipPath><clipPath
       clipPathUnits="userSpaceOnUse"
       id="clipPath17798"><path
         d="m -2,710 501,0 0,-711 -501,0 0,711 z"
         id="path17800"
         inkscape:connector-curvature="0" /></clipPath><clipPath
       clipPathUnits="userSpaceOnUse"
       id="clipPath17804"><path
         d="m 0,708.06 498,0 0,-708 -498,0 0,708 z"
         id="path17806"
         inkscape:connector-curvature="0" /></clipPath><clipPath
       id="Clip0"><path
         inkscape:connector-curvature="0"
         d="m 0,0 212.597,0 0,269.292 L 0,269.292 0,0 z"
         transform="translate(0.923828,0.879883)"
         id="path7" /></clipPath><clipPath
       id="Clip0-8"><path
         inkscape:connector-curvature="0"
         d="m 0,0 170.079,0 0,113.386 L 0,113.386 0,0 z"
         transform="translate(0.0986328,0.822266)"
         id="path7-8" /></clipPath><clipPath
       id="Clip0-1"><path
         inkscape:connector-curvature="0"
         d="m 0,0 287.009,0 0,159.449 L 0,159.449 0,0 z"
         transform="translate(0.396484,0.267578)"
         id="path7-7" /></clipPath><clipPath
       id="Clip0-9"><path
         inkscape:connector-curvature="0"
         d="m 0,0 170.079,0 0,170.079 L 0,170.079 0,0 z"
         transform="translate(0.460938,0.775391)"
         id="path7-4" /></clipPath><clipPath
       id="Clip0-4"><path
         inkscape:connector-curvature="0"
         d="m 0,0 340.157,0 0,226.771 L 0,226.771 0,0 z"
         transform="translate(0.921875,0.25293)"
         id="path7-5" /></clipPath><clipPath
       id="Clip0-5"><path
         inkscape:connector-curvature="0"
         d="m 0,0 255.119,0 0,170.079 L 0,170.079 0,0 z"
         transform="translate(0.147461,0.0595703)"
         id="path7-1" /></clipPath><clipPath
       id="Clip0-0"><path
         inkscape:connector-curvature="0"
         d="m 0,0 170.079,0 0,113.386 L 0,113.386 0,0 z"
         transform="translate(0.0673828,0.207031)"
         id="path7-9" /></clipPath></defs><sodipodi:namedview
     pagecolor="#ffffff"
     bordercolor="#666666"
     borderopacity="1"
     objecttolerance="10"
     gridtolerance="10"
     guidetolerance="10"
     inkscape:pageopacity="0"
     inkscape:pageshadow="2"
     inkscape:window-width="1280"
     inkscape:window-height="1004"
     id="namedview17626"
     showgrid="false"
     inkscape:zoom="2.8284271"
     inkscape:cx="88.992665"
     inkscape:cy="29.442994"
     inkscape:window-x="-8"
     inkscape:window-y="-8"
     inkscape:window-maximized="1"
     inkscape:current-layer="g17634"
     fit-margin-top="0"
     fit-margin-left="0"
     fit-margin-right="0"
     fit-margin-bottom="0"
     showguides="true"
     inkscape:guide-bbox="true" /><g
     id="g17634"
     inkscape:groupmode="layer"
     inkscape:label="GG1999P002"
     transform="matrix(1.25,0,0,-1.25,-5764.5703,3374.7266)"><path
       inkscape:connector-curvature="0"
       d="m 4756.0469,2625.7661 c 0,-3.366 -2.754,-6.119 -6.12,-6.119 l -131.761,0 c -3.366,0 -6.12,2.753 -6.12,6.119 l 0,67.499 c 0,3.365 2.754,6.119 6.12,6.119 l 131.761,0 c 3.366,0 6.12,-2.754 6.12,-6.119 l 0,-67.499 z"
       style="fill:#ffffff;stroke:#000000;stroke-width:0.80000001;stroke-linecap:butt;stroke-linejoin:miter;stroke-miterlimit:10;stroke-opacity:1;stroke-dasharray:none"
       id="path3601" /><path
       id="path4635"
       style="fill:#00674c;fill-opacity:1;fill-rule:evenodd;stroke:none"
       d="m 4749.894,2696.7661 c 0.192,-0.01 0.373,-0.017 0.564,-0.041 0.172,-0.031 0.334,-0.068 0.502,-0.117 0.164,-0.055 0.317,-0.115 0.474,-0.188 0.153,-0.078 0.296,-0.16 0.44,-0.254 0.141,-0.099 0.27,-0.201 0.401,-0.314 0.168,-0.159 0.313,-0.32 0.456,-0.502 0.1,-0.14 0.189,-0.278 0.275,-0.428 0.078,-0.153 0.147,-0.302 0.21,-0.463 0.056,-0.165 0.102,-0.324 0.141,-0.494 0.031,-0.174 0.052,-0.342 0.066,-0.52 l 0.01,-67.763 c 0,-0.191 -0.018,-0.373 -0.041,-0.563 -0.031,-0.173 -0.069,-0.335 -0.117,-0.503 -0.056,-0.164 -0.116,-0.317 -0.188,-0.474 -0.078,-0.153 -0.161,-0.296 -0.254,-0.44 -0.099,-0.141 -0.202,-0.27 -0.314,-0.401 -0.16,-0.167 -0.32,-0.313 -0.502,-0.456 -0.141,-0.1 -0.279,-0.189 -0.428,-0.275 -0.153,-0.079 -0.304,-0.147 -0.464,-0.21 -0.164,-0.057 -0.323,-0.102 -0.493,-0.141 -0.175,-0.031 -0.344,-0.053 -0.52,-0.066 l -131.9086,-0.01 c -0.192,0.01 -0.373,0.017 -0.564,0.042 -0.172,0.03 -0.334,0.067 -0.502,0.116 -0.163,0.056 -0.316,0.116 -0.474,0.188 -0.153,0.079 -0.296,0.161 -0.44,0.254 -0.141,0.099 -0.271,0.202 -0.4,0.314 -0.168,0.16 -0.314,0.32 -0.456,0.502 -0.101,0.141 -0.189,0.279 -0.275,0.428 -0.079,0.154 -0.147,0.303 -0.211,0.464 -0.055,0.165 -0.101,0.324 -0.14,0.493 -0.032,0.176 -0.053,0.343 -0.067,0.521 l -0.01,67.762 c 0.01,0.192 0.018,0.374 0.041,0.564 0.032,0.172 0.07,0.334 0.117,0.502 0.056,0.164 0.117,0.318 0.188,0.475 0.078,0.152 0.16,0.295 0.254,0.44 0.099,0.14 0.202,0.27 0.314,0.4 0.16,0.168 0.321,0.313 0.502,0.457 0.141,0.099 0.28,0.188 0.428,0.274 0.153,0.079 0.304,0.148 0.463,0.21 0.165,0.057 0.324,0.102 0.494,0.141 0.175,0.032 0.344,0.054 0.521,0.067 l 131.908,0.01 z"
       inkscape:connector-curvature="0" /><path
       id="path4637"
       style="fill:#ffffff;fill-opacity:1;fill-rule:nonzero;stroke:none"
       d="m 4666.7509,2675.3851 -2.479,0 -2.112,8.769 -2.066,-8.769 -2.48,0 -2.387,13.085 2.433,0 1.423,-8.448 1.929,8.448 2.342,0 2.0201,-8.448 1.3309,8.448 2.388,0 -2.342,-13.085 z"
       inkscape:connector-curvature="0" /><path
       id="path4639"
       style="fill:#ffffff;fill-opacity:1;fill-rule:nonzero;stroke:none"
       d="m 4671.294,2675.3851 0,13.085 9.55,0 0,-2.341 -7.163,0 0,-2.434 3.903,0 0,-2.387 -3.903,0 0,-3.581 7.392,0 0,-2.342 -9.779,0 z"
       inkscape:connector-curvature="0" /><path
       id="path4641"
       style="fill:#ffffff;fill-opacity:1;fill-rule:nonzero;stroke:none"
       d="m 4683.6892,2688.4705 2.341,0 0,-13.085 -2.341,0 0,13.085 z"
       inkscape:connector-curvature="0" /><path
       id="path4643"
       style="fill:#ffffff;fill-opacity:1;fill-rule:nonzero;stroke:none"
       d="m 4699.5729,2681.9041 0,-1.698 c 0,-2.847 -2.295,-5.051 -5.188,-5.051 -3.856,0 -5.418,3.398 -5.418,6.795 0,3.995 2.158,6.75 5.418,6.75 2.342,0 3.949,-1.24 4.867,-3.261 l -2.388,-0.826 c -0.504,1.103 -1.331,1.745 -2.479,1.745 -1.836,0 -3.076,-1.837 -3.076,-4.408 0,-2.111 0.642,-4.453 3.076,-4.453 1.286,0 2.434,0.872 2.755,2.065 l -2.158,0 0,2.342 4.591,0 z"
       inkscape:connector-curvature="0" /><path
       id="path4645"
       style="fill:#ffffff;fill-opacity:1;fill-rule:nonzero;stroke:none"
       d="m 4710.7739,2675.3851 0,5.739 -5.877,-0.046 0,-5.693 -2.341,0 0,13.085 2.341,0 0,-5.05 5.877,0 0,5.05 2.3411,0 0,-13.085 -2.3411,0 z"
       inkscape:connector-curvature="0" /><path
       id="path4647"
       style="fill:#ffffff;fill-opacity:1;fill-rule:nonzero;stroke:none"
       d="m 4653.4099,2654.3011 c -0.918,-0.551 -2.111,-0.872 -3.305,-0.872 -2.25,0 -3.949,0.826 -5.418,2.525 l 1.883,1.469 c 0.963,-1.148 2.02,-1.653 3.489,-1.653 1.653,0 2.846,0.735 2.846,1.699 0,0.505 -0.275,0.919 -0.826,1.194 -0.459,0.184 -0.965,0.367 -1.561,0.505 l -0.597,0.184 -0.597,0.137 -0.642,0.184 c -1.332,0.321 -2.021,0.642 -2.571,1.286 -0.551,0.597 -0.827,1.377 -0.827,2.203 0,2.158 1.836,3.628 4.499,3.628 1.929,0 3.536,-0.644 4.868,-2.02 l -1.746,-1.562 c -0.826,0.873 -1.882,1.286 -3.122,1.286 -1.331,0 -2.112,-0.505 -2.112,-1.332 0,-0.734 0.459,-1.056 2.067,-1.423 1.745,-0.367 2.892,-0.734 3.626,-1.102 1.149,-0.597 1.883,-1.836 1.883,-3.26 0,-1.331 -0.596,-2.341 -1.837,-3.076"
       inkscape:connector-curvature="0" /><path
       id="path4649"
       style="fill:#ffffff;fill-opacity:1;fill-rule:nonzero;stroke:none"
       d="m 4662.729,2664.3561 0,-10.79 -2.296,0 0,10.79 -3.765,0 0,2.295 9.826,0 0,-2.295 -3.765,0 z"
       inkscape:connector-curvature="0" /><path
       id="path4651"
       style="fill:#ffffff;fill-opacity:1;fill-rule:nonzero;stroke:none"
       d="m 4674.2049,2663.3921 -1.836,-4.408 3.673,0 -1.837,4.408 z m 4.133,-9.826 -1.286,3.077 -5.693,0 -1.286,-3.077 -2.571,0 5.51,13.085 2.388,0 5.463,-13.085 -2.525,0 z"
       inkscape:connector-curvature="0" /><path
       id="path4653"
       style="fill:#ffffff;fill-opacity:1;fill-rule:nonzero;stroke:none"
       d="m 4687.9769,2664.3561 0,-10.79 -2.296,0 0,10.79 -3.765,0 0,2.295 9.826,0 0,-2.295 -3.765,0 z"
       inkscape:connector-curvature="0" /><path
       id="path4655"
       style="fill:#ffffff;fill-opacity:1;fill-rule:nonzero;stroke:none"
       d="m 4693.9452,2666.6515 2.34,0 0,-13.085 -2.34,0 0,13.085 z"
       inkscape:connector-curvature="0" /><path
       id="path4657"
       style="fill:#ffffff;fill-opacity:1;fill-rule:nonzero;stroke:none"
       d="m 4704.7789,2664.5401 c -1.974,0 -3.168,-1.653 -3.168,-4.408 0,-2.801 1.194,-4.453 3.168,-4.453 2.479,0 3.076,2.433 3.076,4.453 0,2.755 -1.102,4.408 -3.076,4.408 m 0,-11.203 c -3.857,0 -5.556,3.489 -5.556,6.795 0,4.179 2.112,6.75 5.556,6.75 3.213,0 5.418,-2.709 5.418,-6.704 0,-4.086 -2.113,-6.841 -5.418,-6.841"
       inkscape:connector-curvature="0" /><path
       id="path4659"
       style="fill:#ffffff;fill-opacity:1;fill-rule:nonzero;stroke:none"
       d="m 4721.764,2653.5661 -6.244,8.999 0,-8.999 -2.295,0 0,13.085 2.295,0 6.014,-8.631 0,8.631 2.25,0 0,-13.085 -2.02,0 z"
       inkscape:connector-curvature="0" /><path
       id="path4661"
       style="fill:#ffffff;fill-opacity:1;fill-rule:nonzero;stroke:none"
       d="m 4634.8859,2631.7481 -6.244,8.999 0,-8.999 -2.295,0 0,13.085 2.295,0 6.014,-8.631 0,8.631 2.25,0 0,-13.085 -2.02,0 z"
       inkscape:connector-curvature="0" /><path
       id="path4663"
       style="fill:#ffffff;fill-opacity:1;fill-rule:nonzero;stroke:none"
       d="m 4640.302,2631.7481 0,13.085 9.55,0 0,-2.341 -7.163,0 0,-2.433 3.903,0 0,-2.388 -3.903,0 0,-3.581 7.392,0 0,-2.342 -9.779,0 z"
       inkscape:connector-curvature="0" /><path
       id="path4665"
       style="fill:#ffffff;fill-opacity:1;fill-rule:nonzero;stroke:none"
       d="m 4660.5009,2631.7481 -2.938,4.638 -2.893,-4.638 -2.755,0 4.271,6.887 -3.904,6.198 2.801,0 2.48,-3.994 2.479,3.994 2.801,0 -3.856,-6.198 4.269,-6.887 -2.755,0 z"
       inkscape:connector-curvature="0" /><path
       id="path4667"
       style="fill:#ffffff;fill-opacity:1;fill-rule:nonzero;stroke:none"
       d="m 4670.7379,2642.5381 0,-10.79 -2.296,0 0,10.79 -3.765,0 0,2.295 9.826,0 0,-2.295 -3.765,0 z"
       inkscape:connector-curvature="0" /><path
       id="path4669"
       style="fill:#ffffff;fill-opacity:1;fill-rule:nonzero;stroke:none"
       d="m 4693.1539,2642.4921 -3.72,0 0,-3.26 3.72,0 c 1.147,0 1.881,0.643 1.881,1.607 0,1.01 -0.734,1.653 -1.881,1.653 m 1.881,-10.744 -2.111,5.143 -3.49,0 0,-5.143 -2.341,0 0,13.085 6.015,0 c 0.964,0 1.56,-0.138 2.249,-0.551 1.24,-0.688 2.02,-1.973 2.02,-3.443 0,-1.469 -0.78,-2.755 -2.112,-3.489 l 2.388,-5.602 -2.618,0 z"
       inkscape:connector-curvature="0" /><path
       id="path4671"
       style="fill:#ffffff;fill-opacity:1;fill-rule:nonzero;stroke:none"
       d="m 4700.2682,2644.8335 2.341,0 0,-13.085 -2.341,0 0,13.085 z"
       inkscape:connector-curvature="0" /><path
       id="path4673"
       style="fill:#ffffff;fill-opacity:1;fill-rule:nonzero;stroke:none"
       d="m 4716.1529,2638.2681 0,-1.699 c 0,-2.846 -2.296,-5.05 -5.189,-5.05 -3.856,0 -5.418,3.397 -5.418,6.794 0,3.996 2.158,6.75 5.418,6.75 2.342,0 3.949,-1.24 4.867,-3.26 l -2.387,-0.826 c -0.505,1.102 -1.331,1.745 -2.48,1.745 -1.836,0 -3.076,-1.837 -3.076,-4.409 0,-2.111 0.642,-4.453 3.076,-4.453 1.286,0 2.434,0.872 2.755,2.066 l -2.158,0 0,2.342 4.592,0 z"
       inkscape:connector-curvature="0" /><path
       id="path4675"
       style="fill:#ffffff;fill-opacity:1;fill-rule:nonzero;stroke:none"
       d="m 4727.3529,2631.7481 0,5.739 -5.877,-0.046 0,-5.693 -2.341,0 0,13.085 2.341,0 0,-5.05 5.877,0 0,5.05 2.342,0 0,-13.085 -2.342,0 z"
       inkscape:connector-curvature="0" /><path
       id="path4677"
       style="fill:#ffffff;fill-opacity:1;fill-rule:nonzero;stroke:none"
       d="m 4737.9559,2642.5381 0,-10.79 -2.296,0 0,10.79 -3.764,0 0,2.295 9.826,0 0,-2.295 -3.766,0 z"
       inkscape:connector-curvature="0" /></g></svg>