<?xml version="1.0" encoding="UTF-8" standalone="no"?>
<!-- Created with Inkscape (http://www.inkscape.org/) -->

<svg
   xmlns:dc="http://purl.org/dc/elements/1.1/"
   xmlns:cc="http://creativecommons.org/ns#"
   xmlns:rdf="http://www.w3.org/1999/02/22-rdf-syntax-ns#"
   xmlns:svg="http://www.w3.org/2000/svg"
   xmlns="http://www.w3.org/2000/svg"
   xmlns:sodipodi="http://sodipodi.sourceforge.net/DTD/sodipodi-0.dtd"
   xmlns:inkscape="http://www.inkscape.org/namespaces/inkscape"
   id="svg17624"
   version="1.1"
   inkscape:version="0.48.2 r9819"
   width="180.97656"
   height="158.51562"
   xml:space="preserve"
   sodipodi:docname="AJAX1.svg"><metadata
     id="metadata17630"><rdf:RDF><cc:Work
         rdf:about=""><dc:format>image/svg+xml</dc:format><dc:type
           rdf:resource="http://purl.org/dc/dcmitype/StillImage" /><dc:title></dc:title></cc:Work></rdf:RDF></metadata><defs
     id="defs17628"><inkscape:perspective
       sodipodi:type="inkscape:persp3d"
       inkscape:vp_x="0 : 0.5 : 1"
       inkscape:vp_y="0 : 1000 : 0"
       inkscape:vp_z="1 : 0.5 : 1"
       inkscape:persp3d-origin="0.5 : 0.33333333 : 1"
       id="perspective17632" /><clipPath
       clipPathUnits="userSpaceOnUse"
       id="clipPath17642"><path
         d="m -2,710 501,0 0,-711 -501,0 0,711 z"
         id="path17644"
         inkscape:connector-curvature="0" /></clipPath><clipPath
       clipPathUnits="userSpaceOnUse"
       id="clipPath17648"><path
         d="m 0,708.06 498,0 0,-708 -498,0 0,708 z"
         id="path17650"
         inkscape:connector-curvature="0" /></clipPath><clipPath
       clipPathUnits="userSpaceOnUse"
       id="clipPath17798"><path
         d="m -2,710 501,0 0,-711 -501,0 0,711 z"
         id="path17800"
         inkscape:connector-curvature="0" /></clipPath><clipPath
       clipPathUnits="userSpaceOnUse"
       id="clipPath17804"><path
         d="m 0,708.06 498,0 0,-708 -498,0 0,708 z"
         id="path17806"
         inkscape:connector-curvature="0" /></clipPath><clipPath
       id="Clip0"><path
         inkscape:connector-curvature="0"
         d="m 0,0 212.597,0 0,269.292 L 0,269.292 0,0 z"
         transform="translate(0.923828,0.879883)"
         id="path7" /></clipPath><clipPath
       id="Clip0-8"><path
         inkscape:connector-curvature="0"
         d="m 0,0 170.079,0 0,113.386 L 0,113.386 0,0 z"
         transform="translate(0.0986328,0.822266)"
         id="path7-8" /></clipPath><clipPath
       id="Clip0-1"><path
         inkscape:connector-curvature="0"
         d="m 0,0 287.009,0 0,159.449 L 0,159.449 0,0 z"
         transform="translate(0.396484,0.267578)"
         id="path7-7" /></clipPath><clipPath
       id="Clip0-9"><path
         inkscape:connector-curvature="0"
         d="m 0,0 170.079,0 0,170.079 L 0,170.079 0,0 z"
         transform="translate(0.460938,0.775391)"
         id="path7-4" /></clipPath><clipPath
       id="Clip0-4"><path
         inkscape:connector-curvature="0"
         d="m 0,0 340.157,0 0,226.771 L 0,226.771 0,0 z"
         transform="translate(0.921875,0.25293)"
         id="path7-5" /></clipPath><clipPath
       id="Clip0-5"><path
         inkscape:connector-curvature="0"
         d="m 0,0 255.119,0 0,170.079 L 0,170.079 0,0 z"
         transform="translate(0.147461,0.0595703)"
         id="path7-1" /></clipPath><clipPath
       id="Clip0-0"><path
         inkscape:connector-curvature="0"
         d="m 0,0 170.079,0 0,113.386 L 0,113.386 0,0 z"
         transform="translate(0.0673828,0.207031)"
         id="path7-9" /></clipPath></defs><sodipodi:namedview
     pagecolor="#ffffff"
     bordercolor="#666666"
     borderopacity="1"
     objecttolerance="10"
     gridtolerance="10"
     guidetolerance="10"
     inkscape:pageopacity="0"
     inkscape:pageshadow="2"
     inkscape:window-width="1280"
     inkscape:window-height="1004"
     id="namedview17626"
     showgrid="false"
     inkscape:zoom="2.8284271"
     inkscape:cx="66.895331"
     inkscape:cy="39.814555"
     inkscape:window-x="-8"
     inkscape:window-y="-8"
     inkscape:window-maximized="1"
     inkscape:current-layer="g17634"
     fit-margin-top="0"
     fit-margin-left="0"
     fit-margin-right="0"
     fit-margin-bottom="0"
     showguides="true"
     inkscape:guide-bbox="true" /><g
     id="g17634"
     inkscape:groupmode="layer"
     inkscape:label="GG1999P002"
     transform="matrix(1.25,0,0,-1.25,-5421.1328,2857.3438)"><path
       inkscape:connector-curvature="0"
       d="m 4345.6959,2285.4621 127.2,0 c 4.627,0 8.4,-3.773 8.4,-8.399 l 0,-109.2 c 0,-4.627 -3.773,-8.401 -8.4,-8.401 l -127.2,0 c -4.625,0 -8.399,3.774 -8.399,8.401 l 0,109.2 c 0,4.569 3.832,8.399 8.399,8.399"
       style="fill:#ffffff;fill-opacity:1;fill-rule:nonzero;stroke:#000000;stroke-width:0.80000001;stroke-linecap:butt;stroke-linejoin:miter;stroke-miterlimit:4;stroke-opacity:1;stroke-dasharray:none"
       id="path3291" /><path
       inkscape:connector-curvature="0"
       d="m 4472.8509,2281.8624 c 2.703,-0.07 4.785,-2.139 4.846,-4.846 l -0.01,-109.402 c -0.184,-2.551 -2.274,-4.539 -4.838,-4.55 l -127.402,0.01 c -2.554,0.203 -4.535,2.257 -4.552,4.836 l 0.01,109.403 c 0.193,2.549 2.265,4.543 4.837,4.553 l 127.109,0"
       style="fill:#00674c;fill-opacity:1;fill-rule:evenodd;stroke:none"
       id="path3295" /><path
       inkscape:connector-curvature="0"
       d="m 4449.2509,2255.4739 0,17.988 -3.221,0 0,-6.943 -8.078,0 0,6.943 -3.218,0 0,-17.988 3.218,0 0,7.826 8.078,0.063 0,-7.889 3.221,0 z m -24.933,8.963 0,-3.219 2.966,0 c -0.441,-1.643 -2.019,-2.842 -3.787,-2.842 -3.345,0 -4.228,3.221 -4.228,6.123 0,3.535 1.703,6.061 4.228,6.061 1.578,0 2.715,-0.885 3.408,-2.399 l 3.284,1.135 c -1.264,2.778 -3.471,4.483 -6.692,4.483 -4.482,0 -7.447,-3.788 -7.447,-9.28 0,-4.67 2.145,-9.351 7.447,-9.351 3.977,0 7.133,3.039 7.133,6.953 l 0,2.336 -6.312,0 z m -12.309,9.025 -3.219,0 0,-17.988 3.219,0 0,17.988 z m -6.816,-17.988 0,3.219 -10.163,0 0,4.923 5.364,0 0,3.282 -5.364,0 0,3.345 9.846,0 0,3.219 -13.129,0 0,-17.988 13.446,0 z m -16.475,17.988 -3.281,0 -1.832,-11.613 -2.778,11.613 -3.218,0 -2.653,-11.613 -1.957,11.613 -3.344,0 3.282,-17.988 3.41,0 2.84,12.055 2.902,-12.055 3.41,0 3.219,17.988 z"
       style="fill:#ffffff;fill-opacity:1;fill-rule:evenodd;stroke:none"
       id="path3299" /><path
       inkscape:connector-curvature="0"
       d="m 4463.6629,2225.4738 0,17.988 -3.093,0 0,-11.865 -8.268,11.865 -3.156,0 0,-17.988 3.156,0 0,12.371 8.584,-12.371 2.777,0 z m -21.84,9.025 c 0,-2.777 -0.82,-6.123 -4.228,-6.123 -2.715,0 -4.356,2.274 -4.356,6.123 0,3.788 1.641,6.061 4.356,6.061 2.713,0 4.228,-2.273 4.228,-6.061 m 3.219,0.065 c 0,5.49 -3.029,9.215 -7.447,9.215 -4.734,0 -7.639,-3.535 -7.639,-9.28 0,-4.545 2.336,-9.351 7.639,-9.351 4.545,0 7.447,3.797 7.447,9.416 m -19.125,8.898 -3.219,0 0,-17.988 3.219,0 0,17.988 z m -6.25,-3.156 0,3.156 -13.508,0 0,-3.156 5.176,0 0,-14.832 3.156,0 0,14.832 5.176,0 z m -21.523,-7.385 -5.051,0 2.527,6.061 2.524,-6.061 z m 6.629,-7.447 -7.512,17.988 -3.283,0 -7.574,-17.988 3.535,0 1.767,4.229 7.826,0 1.768,-4.229 3.473,0 z m -19.758,14.832 0,3.156 -13.508,0 0,-3.156 5.176,0 0,-14.832 3.156,0 0,14.832 5.176,0 z m -15.465,-9.594 c 0,1.957 -1.01,3.662 -2.588,4.483 -1.009,0.504 -2.587,1.009 -4.985,1.513 -2.209,0.506 -2.84,0.948 -2.84,1.957 0,1.137 1.072,1.831 2.902,1.831 1.705,0 3.157,-0.569 4.292,-1.768 l 2.399,2.146 c -1.83,1.895 -4.038,2.778 -6.691,2.778 -3.66,0 -6.185,-2.02 -6.185,-4.987 0,-1.136 0.379,-2.209 1.136,-3.029 0.756,-0.885 1.706,-1.326 3.534,-1.767 l 0.884,-0.252 0.823,-0.19 0.82,-0.252 c 0.82,-0.189 1.514,-0.443 2.145,-0.695 0.757,-0.379 1.135,-0.947 1.135,-1.641 0,-1.326 -1.639,-2.336 -3.913,-2.336 -2.019,0 -3.472,0.694 -4.797,2.272 l -2.588,-2.02 c 2.02,-2.336 4.356,-3.482 7.448,-3.482 1.642,0 3.283,0.453 4.546,1.211 1.703,1.01 2.523,2.398 2.523,4.228"
       style="fill:#ffffff;fill-opacity:1;fill-rule:evenodd;stroke:none"
       id="path3303" /><path
       inkscape:connector-curvature="0"
       d="m 4399.5729,2204.6829 c -0.207,0.096 -0.418,0.232 -0.584,0.4 -0.736,0.739 -0.732,1.944 0.01,2.68 0.278,0.275 0.639,0.457 1.022,0.523 l 28,5.233 c 0.619,0.164 1.336,-0.022 1.81,-0.498 0.5,-0.504 0.639,-1.129 0.504,-1.821 l -5.453,-28.078 c -0.09,-0.345 -0.264,-0.652 -0.512,-0.898 -0.738,-0.736 -1.943,-0.733 -2.679,0.01 -0.161,0.164 -0.301,0.367 -0.385,0.562 l -5.106,10.342 -18.736,-21.652 -8.976,9.021 21.369,19.016 -10.284,5.162 z"
       style="fill:#ffffff;fill-opacity:1;fill-rule:evenodd;stroke:none"
       id="path3307" /></g></svg>