<?xml version="1.0" encoding="UTF-8" standalone="no"?>
<svg
   xmlns:dc="http://purl.org/dc/elements/1.1/"
   xmlns:cc="http://creativecommons.org/ns#"
   xmlns:rdf="http://www.w3.org/1999/02/22-rdf-syntax-ns#"
   xmlns:svg="http://www.w3.org/2000/svg"
   xmlns="http://www.w3.org/2000/svg"
   xmlns:sodipodi="http://sodipodi.sourceforge.net/DTD/sodipodi-0.dtd"
   xmlns:inkscape="http://www.inkscape.org/namespaces/inkscape"
   width="81.595718"
   height="81.595718"
   viewBox="0 0 230.28125 230.28124"
   version="1.1"
   id="svg2"
   inkscape:version="0.48.2 r9819"
   sodipodi:docname="MUTCD D9-11b.svg">
  <metadata
     id="metadata62">
    <rdf:RDF>
      <cc:Work
         rdf:about="">
        <dc:format>image/svg+xml</dc:format>
        <dc:type
           rdf:resource="http://purl.org/dc/dcmitype/StillImage" />
        <dc:title></dc:title>
      </cc:Work>
    </rdf:RDF>
  </metadata>
  <defs
     id="defs60" />
  <sodipodi:namedview
     pagecolor="#ffffff"
     bordercolor="#666666"
     borderopacity="1"
     objecttolerance="10"
     gridtolerance="10"
     guidetolerance="10"
     inkscape:pageopacity="0"
     inkscape:pageshadow="2"
     inkscape:window-width="1280"
     inkscape:window-height="1004"
     id="namedview58"
     showgrid="false"
     fit-margin-top="0"
     fit-margin-left="0"
     fit-margin-right="0"
     fit-margin-bottom="0"
     inkscape:zoom="3.8704158"
     inkscape:cx="30.16135"
     inkscape:cy="19.412365"
     inkscape:window-x="-8"
     inkscape:window-y="-8"
     inkscape:window-maximized="1"
     inkscape:current-layer="svg2"
     showguides="true"
     inkscape:guide-bbox="true" />
  <polygon
     points="315,205 395,375 315,545 235,375 "
     id="polygon10"
     style="fill:none;stroke:#ffffff;stroke-width:40"
     transform="translate(-3032.9376,16738.813)" />
  <!-- draw the bicycle -->
  <!-- RIGHT -->
  <!-- LANE -->
  <!-- ONLY -->
  <path
     inkscape:connector-curvature="0"
     d="m 21.17474,0.84536805 187.92119,0 c 11.18659,0 20.34117,9.15450005 20.34117,20.33759995 l 0,187.924702 c 0,11.1866 -9.15458,20.33771 -20.34117,20.33771 l -187.92119,0 c -11.18658,0 -20.33764,-9.15111 -20.33764,-20.33772 l 0,-187.924692 C 0.8371,9.9998681 9.98816,0.84536805 21.17474,0.84536805"
     style="fill:#ffffff;fill-opacity:1;fill-rule:nonzero;stroke:#000000;stroke-width:1.69333334;stroke-miterlimit:4;stroke-opacity:1;stroke-dasharray:none"
     id="path3924" />
  <path
     inkscape:connector-curvature="0"
     d="m 21.17474,5.9249681 187.9212,0 c 8.39611,0 15.26469,6.8685999 15.26469,15.2575999 l 0,187.924802 c 0,8.39608 -6.86858,15.2611 -15.26469,15.2611 l -187.9212,0 c -8.38905,0 -15.25411,-6.86502 -15.25411,-15.2611 l 0,-187.924802 c 0,-8.389 6.86506,-15.2575999 15.25411,-15.2575999"
     style="fill:#155196;fill-opacity:1;fill-rule:evenodd;stroke:none"
     id="path3948" />
  <path
     d="m 25.864792,88.791764 21.649972,-37.510862 45.956361,26.532417 0,-53.068361 43.314055,0 0,53.068361 45.9493,-26.532417 21.66409,37.510862 -45.95989,26.525366 45.95989,26.53946 -21.66409,37.50381 -45.9493,-26.52889 0,53.06483 -43.314055,0 0,-53.06483 L 47.514764,179.3604 25.864792,141.85659 71.817625,115.31713 25.864792,88.791764 z"
     style="fill:#ffffff;fill-opacity:1;fill-rule:evenodd;stroke:none"
     id="path3360"
     inkscape:connector-curvature="0" />
  <path
     d="m 110.93715,60.80943 c 1.96497,0.938389 5.70089,1.576917 7.5812,0.07761 0.91016,-0.73025 0.97014,-2.102555 -0.10231,-2.709333 1.78153,-1.393472 5.19289,-0.719667 3.76767,-4.148667 -0.71614,-1.732139 -2.61056,-1.901472 -4.14867,-2.451805 -1.52753,-0.543278 -1.00542,-1.248834 -2.27894,-2.144889 -1.96498,-1.382889 -5.3975,1.372305 -5.38339,-1.164167 0.0212,-2.060222 0.0353,-4.1275 0.0494,-6.187722 0.0282,-3.443111 2.30716,-5.559778 6.30414,-5.379861 3.99697,0.179917 6.80861,1.93675 6.49816,5.549194 -0.37394,17.451917 -0.19402,35.044945 -0.56444,52.496862 -0.60678,5.418668 -4.81895,9.877778 -9.88131,14.044088 l -1.8415,-47.981311"
     style="fill:#155196;fill-opacity:1;fill-rule:evenodd;stroke:none"
     id="path3364"
     inkscape:connector-curvature="0" />
  <path
     d="m 98.046653,55.503652 c 0.536222,-3.944055 3.577167,-5.49275 7.277807,-5.178777 1.778,0.155222 3.50661,0.405694 5.29166,0.211666 0.52212,-0.05644 3.12562,-0.694972 3.54542,-0.278694 1.44286,-0.08819 1.24883,1.615722 2.33892,2.123722 1.32291,0.620889 3.09386,0.677333 4.19453,1.654528 1.43227,1.262944 -0.0811,1.802694 -0.99837,2.081389 -1.47461,0.437444 -2.79047,1.418166 -3.6583,2.645833 0.37042,0.01411 1.72155,0.144639 1.85208,0.659695 0.23636,0.924277 -3.62303,1.04775 -4.24391,0.973666 -1.79917,-0.218722 -3.2385,-1.449916 -5.11175,-0.687916 -1.55223,0.631472 -2.19781,2.494138 -2.15195,4.071055 0.16581,5.485695 3.29495,9.140472 3.85233,13.772445 0.33867,2.797527 0.15875,7.609416 0.34573,11.211277 -7.62,-5.796138 -13.779502,-12.297833 -12.534197,-33.259889"
     style="fill:#155196;fill-opacity:1;fill-rule:evenodd;stroke:none"
     id="path3368"
     inkscape:connector-curvature="0" />
  <path
     d="m 113.99221,170.86904 c -2.39184,-6.15597 1.78858,-12.79878 7.85989,-18.29858 7.09083,-6.42056 9.28158,-15.53634 -0.17286,-20.57048 2.38477,6.16656 -1.78859,12.80936 -7.85989,18.29859 -7.09084,6.42761 -9.28159,15.54339 0.17286,20.57047"
     style="fill:#155196;fill-opacity:1;fill-rule:evenodd;stroke:none"
     id="path3372"
     inkscape:connector-curvature="0" />
  <path
     d="m 114.30301,147.56454 c -0.22931,-7.71878 -1.905,-15.08125 1.80269,-22.36611 1.38642,-2.68817 3.05858,-4.72722 5.55978,-6.6675 -0.32103,9.47208 0.14464,19.19464 -3.33375,24.31697 -1.34409,1.56633 -2.68817,3.14678 -4.02872,4.71664"
     style="fill:#155196;fill-opacity:1;fill-rule:evenodd;stroke:none"
     id="path3376"
     inkscape:connector-curvature="0" />
  <path
     d="m 117.44237,183.14923 c 0.82903,-1.18886 2.39184,-4.14866 2.5012,-6.56519 0.0353,-0.41981 0.0706,-0.84667 0.10936,-1.26647 1.40053,1.2065 1.60161,2.87866 0.98778,4.87186 -1.13242,2.47297 -3.65125,2.88572 -3.59834,2.9598"
     style="fill:#155196;fill-opacity:1;fill-rule:evenodd;stroke:none"
     id="path3380"
     inkscape:connector-curvature="0" />
  <path
     d="m 119.94392,155.92537 c -4.64255,5.42572 -5.06236,7.58825 -4.87891,9.29217 0.25047,7.1508 0.50447,14.31572 0.75141,21.47358 0.57856,0.65617 1.15711,1.31234 1.74272,1.9685 0.57856,-0.69144 1.15712,-1.38641 1.74273,-2.09197 -0.0178,-0.92075 -0.0388,-1.85208 -0.06,-2.78342 -0.81492,0.10231 -1.60514,0.13759 -2.26836,-0.22577 -0.90664,-0.58914 -0.53623,-1.71098 0.41627,-3.07623 0.94192,-1.16064 1.8662,-2.40241 2.02495,-6.21241 0.17991,-6.11717 0.34925,-12.23081 0.52916,-18.34445"
     style="fill:#155196;fill-opacity:1;fill-rule:evenodd;stroke:none"
     id="path3384"
     inkscape:connector-curvature="0" />
  <path
     d="m 112.74337,52.025264 c 0.20109,0.419805 -0.1023,0.948972 -0.59972,0.948972 -1.23825,0 0.13053,-0.744361 -1.70744,-0.744361 1.64041,-0.709084 1.8803,-0.783167 3.47839,0 -0.39864,-0.0247 -0.79023,-0.09525 -1.17123,-0.204611"
     style="fill:#ffffff;fill-opacity:1;fill-rule:evenodd;stroke:none"
     id="path3388"
     inkscape:connector-curvature="0" />
  <path
     d="m 113.14201,137.12584 c -2.94922,-7.62352 2.21192,-15.83971 9.72256,-22.64127 8.78064,-7.94456 12.46011,-18.933584 0.77258,-25.160112 2.94217,7.62 -2.21897,15.278802 -10.42458,21.942782 -9.18633,7.45772 -11.75456,19.62855 -0.0706,25.8586"
     style="fill:#155196;fill-opacity:1;fill-rule:evenodd;stroke:none"
     id="path3392"
     inkscape:connector-curvature="0" />
</svg>
