<?xml version="1.0" encoding="UTF-8" standalone="no"?>
<svg
   xmlns:dc="http://purl.org/dc/elements/1.1/"
   xmlns:cc="http://creativecommons.org/ns#"
   xmlns:rdf="http://www.w3.org/1999/02/22-rdf-syntax-ns#"
   xmlns:svg="http://www.w3.org/2000/svg"
   xmlns="http://www.w3.org/2000/svg"
   xmlns:sodipodi="http://sodipodi.sourceforge.net/DTD/sodipodi-0.dtd"
   xmlns:inkscape="http://www.inkscape.org/namespaces/inkscape"
   width="192.15797"
   height="131.53421"
   viewBox="0 0 542.31251 371.21874"
   version="1.1"
   id="svg2"
   inkscape:version="0.48.2 r9819"
   sodipodi:docname="MUTCD E1-5P.svg">
  <metadata
     id="metadata62">
    <rdf:RDF>
      <cc:Work
         rdf:about="">
        <dc:format>image/svg+xml</dc:format>
        <dc:type
           rdf:resource="http://purl.org/dc/dcmitype/StillImage" />
        <dc:title></dc:title>
      </cc:Work>
    </rdf:RDF>
  </metadata>
  <defs
     id="defs60">
    <clipPath
       clipPathUnits="userSpaceOnUse"
       id="clipPath3564">
      <path
         inkscape:connector-curvature="0"
         d="m 63,43 512.622,0 0,313.129 L 63,356.129 63,43 z"
         id="path3566" />
    </clipPath>
  </defs>
  <sodipodi:namedview
     pagecolor="#ffffff"
     bordercolor="#666666"
     borderopacity="1"
     objecttolerance="10"
     gridtolerance="10"
     guidetolerance="10"
     inkscape:pageopacity="0"
     inkscape:pageshadow="2"
     inkscape:window-width="1280"
     inkscape:window-height="1004"
     id="namedview58"
     showgrid="false"
     fit-margin-top="0"
     fit-margin-left="0"
     fit-margin-right="0"
     fit-margin-bottom="0"
     inkscape:zoom="2.7367973"
     inkscape:cx="112.32221"
     inkscape:cy="38.363387"
     inkscape:window-x="-8"
     inkscape:window-y="-8"
     inkscape:window-maximized="1"
     inkscape:current-layer="svg2"
     showguides="true"
     inkscape:guide-bbox="true" />
  <polygon
     points="315,545 235,375 315,205 395,375 "
     id="polygon10"
     style="fill:none;stroke:#ffffff;stroke-width:40"
     transform="translate(27057.584,9066.0851)" />
  <!-- draw the bicycle -->
  <!-- RIGHT -->
  <!-- LANE -->
  <!-- ONLY -->
  <path
     inkscape:connector-curvature="0"
     d="m 38.96545,369.8 c -20.701,0 -37.54261,-16.8416 -37.54261,-37.5462 l 0,-293.299405 c 0,-20.701 16.84161,-37.5461997 37.54261,-37.5461997 l 464.39667,0 c 20.701,0 37.54261,16.8451997 37.54261,37.5461997 l 0,293.299405 c 0,20.7046 -16.84161,37.5462 -37.54261,37.5462 l -464.39667,0 z"
     style="fill:#ffffff;fill-opacity:1;fill-rule:nonzero;stroke:#000000;stroke-width:2.82222223;stroke-miterlimit:4;stroke-opacity:1;stroke-dasharray:none"
     id="path4746" />
  <path
     inkscape:connector-curvature="0"
     d="m 38.96545,360.7688 c -3.82764,0 -7.54239,-0.7514 -11.049,-2.2401 -3.39725,-1.4464 -6.4523,-3.5101 -9.08403,-6.1383 -2.63172,-2.6353 -4.69547,-5.6903 -6.13833,-9.0876 -1.49225,-3.4995 -2.24367,-7.2214 -2.24367,-11.049 l 0,-293.299405 c 0,-3.8312 0.75142,-7.5495 2.24367,-11.0526 1.44286,-3.3972 3.50661,-6.4487 6.13833,-9.0805 2.63173,-2.6317 5.68678,-4.699 9.08403,-6.1383 3.50661,-1.4887 7.22136,-2.2472 11.049,-2.2472 l 464.39667,0 c 3.82411,0 7.54239,0.7585 11.049,2.2472 3.39372,1.4393 6.4523,3.5066 9.0805,6.1383 2.63525,2.6318 4.699,5.6833 6.13833,9.0805 1.48872,3.5031 2.2472,7.2214 2.2472,11.0526 l 0,293.299405 c 0,3.8276 -0.75848,7.5495 -2.2472,11.049 -1.43933,3.3973 -3.50308,6.4523 -6.13833,9.0876 -2.6282,2.6282 -5.68678,4.6919 -9.0805,6.1383 -3.50661,1.4887 -7.22489,2.2401 -11.049,2.2401 l -464.39667,0 z"
     style="fill:#155196;fill-opacity:1;fill-rule:nonzero;stroke:none"
     id="path4754" />
  <path
     inkscape:connector-curvature="0"
     d="m 70.1189,157.7734 24.56745,0 0,-102.933505 0.0317,0 c 0,-2.3001 1.91911,-4.1557 4.21216,-4.1557 0.0212,0 0.0178,-0.032 0.0212,-0.032 l 36.97817,-0.014 c 2.286,0 4.18747,1.9261 4.21217,4.2157 l 0,7.1155 9.99419,8.2126 c 1.85561,1.4006 3.06917,3.616 3.19264,5.9232 -0.007,14.4321 0,27.407305 0,38.784405 0,13.0104 7.71878,22.8318 7.71878,32.7095 0,4.9636 -4.07106,8.9994 -9.00995,8.9994 -4.1663,0 -8.0398,-3.2738 -9.15458,-7.3413 -1.77095,-6.417 -0.81492,-40.2167 -0.88195,-47.6744 l -1.88383,0 0,56.194 22.48253,0 0,8.1033 -92.48069,0 0,-8.1033 z"
     style="fill:#ffffff;fill-opacity:1;fill-rule:evenodd;stroke:none"
     id="path4788" />
  <path
     inkscape:connector-curvature="0"
     d="m 146.75354,98.746995 c 0,-1.8979 -1.53811,-3.429 -3.39372,-3.429 l -3.3267,-0.134 0,-26.8852 1.94381,1.5028 0,10.7139 6.57225,-0.01 c 0.0988,12.192 0.19755,24.387505 0.28928,36.579505 0.0318,12.1391 6.99911,22.8671 7.19666,29.8556 0.0706,2.3283 -1.89794,4.2298 -4.21216,4.2298 -1.18534,0 -2.77989,-0.6068 -3.78178,-2.2754 -2.82575,-4.699 -1.24178,-44.069 -1.28764,-50.150905"
     style="fill:#155196;fill-opacity:1;fill-rule:evenodd;stroke:none"
     id="path4792" />
  <path
     inkscape:connector-curvature="0"
     d="m 103.5432,56.463095 27.61897,0 c 1.48873,0 2.71286,1.2135 2.71286,2.6987 l 0,21.1032 c 0,1.4923 -1.22413,2.7093 -2.71286,2.7093 l -27.61897,0 c -1.49225,0 -2.70933,-1.217 -2.70933,-2.7093 l 0,-21.1032 c 0,-1.4852 1.21708,-2.6987 2.70933,-2.6987"
     style="fill:#155196;fill-opacity:1;fill-rule:evenodd;stroke:none"
     id="path4796" />
  <path
     inkscape:connector-curvature="0"
     d="m 124.63753,205.2362 c -2.10608,0.1129 -4.17336,0.3386 -6.21241,0.8749 -2.34597,0.6244 -4.572,1.5487 -6.62164,2.8469 -1.70392,1.0724 -3.23497,2.3036 -4.66725,3.6689 l -5.46806,21.9992 c -2.05316,8.315 -3.34433,16.8063 -3.70064,25.3753 -0.13405,3.3443 -0.11288,6.6851 0.0423,10.0224 0.17992,4.3886 0.5327,8.763 1.07598,13.1057 0.17639,1.4005 0.4445,2.794 0.81491,4.1663 l 7.39423,27.4496 c 1.70039,1.1219 3.43958,2.1344 5.29872,2.9916 2.14136,0.9807 4.39208,1.7639 6.69925,2.3001 1.9297,0.4269 3.85586,0.695 5.82083,0.8255 l -7.06261,-30.8469 c -1.24883,-0.2751 -2.4518,-0.7655 -3.46427,-1.5734 -0.82903,-0.6667 -2.31423,-2.2013 -2.31423,-3.3902 l 0,-41.1197 c 0,-2.1978 1.34056,-4.0817 3.05506,-5.3623 1.05128,-0.7867 2.24719,-1.2664 3.52778,-1.5416 l 5.78202,-31.7923 z"
     style="fill:#ffffff;fill-opacity:1;fill-rule:evenodd;stroke:none"
     id="path4800" />
  <path
     inkscape:connector-curvature="0"
     d="m 133.08374,319.2681 c 0.61736,-0.201 1.03011,-0.635 1.37583,-1.1712 0.25753,-0.4022 0.381,-0.8361 0.381,-1.3159 -0.0141,-0.3916 -0.0564,-0.8149 -0.15522,-1.1889 l -6.25122,-25.9503 c -0.18697,-0.7796 -0.19756,-1.1395 -0.9525,-1.6087 -0.46214,-0.2857 -1.06186,-0.4762 -1.60161,-0.3175 l -4.96006,1.45 7.0485,31.2137 5.11528,-1.1112 z"
     style="fill:#ffffff;fill-opacity:1;fill-rule:evenodd;stroke:none"
     id="path4804" />
  <path
     inkscape:connector-curvature="0"
     d="m 121.8901,237.0461 4.49086,0.9702 c 0.26811,0.035 0.5327,0.053 0.79375,0.071 0.38453,0.046 0.77611,0 1.10772,-0.2293 0.59267,-0.3951 0.84314,-0.9278 0.99131,-1.6087 l 5.45042,-26.3102 c 0.0882,-0.4127 0.10583,-0.8114 -0.0565,-1.21 -0.14111,-0.3739 -0.34925,-0.7479 -0.61383,-1.0689 -0.38453,-0.4621 -0.97367,-0.8361 -1.57339,-0.9384 l -4.82247,-0.7973 -5.76792,31.1221 z"
     style="fill:#ffffff;fill-opacity:1;fill-rule:evenodd;stroke:none"
     id="path4808" />
  <path
     inkscape:connector-curvature="0"
     d="m 271.14366,50.448595 c 31.84172,0 57.82381,25.9679 57.82381,57.806105 0,31.8453 -25.98209,57.8097 -57.82381,57.8097 -31.82761,0 -57.80616,-25.9644 -57.80616,-57.8097 0,-31.838205 25.97855,-57.806105 57.80616,-57.806105"
     style="fill:#ffffff;fill-opacity:1;fill-rule:evenodd;stroke:none"
     id="path4812" />
  <path
     inkscape:connector-curvature="0"
     d="m 263.59916,157.2545 c 0.007,2.7517 -1.00542,3.4008 -2.89631,3.4149 -1.88383,0 -3.22439,-0.6667 -3.23144,-3.4149 -0.0353,-21.4947 0,-43.0036 0,-64.512505 -4.99534,-3.877 -6.67809,-9.3627 -5.61975,-16.1678 1.08302,-6.2441 2.15547,-12.4918 3.2385,-18.7289 0.24341,-0.025 0.49741,-0.046 0.74789,-0.074 0.0141,7.6447 0.0459,15.3035 0.0741,22.9447 l 1.28058,0 c 0.47625,-7.6412 0.9525,-15.3 1.43581,-22.9447 l 0.72672,0 c 0.15522,7.68 0.31397,15.3458 0.47272,23.0258 0.45156,-0.025 0.90311,-0.049 1.36878,-0.081 0.35631,-7.6412 0.74083,-15.3 1.10419,-22.9447 l 0.73025,0 c 0.28575,7.627 0.57856,15.2435 0.86784,22.8635 l 1.68628,0 c -0.0248,-7.62 -0.0529,-15.2365 -0.0776,-22.8635 l 0.7867,0 c 1.04422,6.2689 2.08844,12.5236 3.12561,18.7889 0.49036,7.4895 -0.97014,13.3315 -5.91256,16.2243 0.0246,21.491205 0.0529,42.986005 0.0917,64.470105"
     style="fill:#155196;fill-opacity:1;fill-rule:evenodd;stroke:none"
     id="path4816" />
  <path
     inkscape:connector-curvature="0"
     d="m 285.96809,57.760595 0,99.546805 c -0.44097,2.0285 -1.30175,2.6353 -3.21028,2.7094 -1.91558,0.056 -3.175,-0.5504 -3.25614,-2.6988 l 0,-49.6887 c 0.16934,-3.1644 -0.0245,-6.2901 -2.86455,-9.200505 -1.36525,-0.9066 -2.09197,-2.6917 -2.20839,-5.3551 0.0847,-9.7967 0.1658,-19.5933 0.24342,-29.39 -0.06,-6.6569 6.69572,-6.3394 11.29594,-5.9231"
     style="fill:#155196;fill-opacity:1;fill-rule:evenodd;stroke:none"
     id="path4820" />
  <path
     inkscape:connector-curvature="0"
     d="m 317.62848,320.6757 0,-115.2561 -22.63775,0 0,41.6278 -47.68497,0 0,-41.6278 -22.63422,0 0,115.2561 22.63422,0 0,-50.5884 47.68497,0 0,50.5884 22.63775,0 z"
     style="fill:#ffffff;fill-opacity:1;fill-rule:evenodd;stroke:none"
     id="path4824" />
  <path
     inkscape:connector-curvature="0"
     d="m 378.97019,100.6178 c 0,-4.191005 3.42547,-7.623505 7.63411,-7.623505 4.19806,0 7.63058,3.4325 7.63058,7.623505 0,4.2087 -3.43252,7.6447 -7.63058,7.6447 -4.20864,0 -7.63411,-3.436 -7.63411,-7.6447"
     style="fill:#ffffff;fill-opacity:1;fill-rule:evenodd;stroke:none"
     id="path4828" />
  <path
     inkscape:connector-curvature="0"
     d="m 375.35069,135.4285 -9.57792,0 0,-54.345405 9.57792,0 0,30.536405 101.18372,0 0,-17.596505 9.57439,0 0,41.405505 -9.57439,0 0,-10.6045 -101.18372,0 0,10.6045 z"
     style="fill:#ffffff;fill-opacity:1;fill-rule:evenodd;stroke:none"
     id="path4832" />
  <path
     inkscape:connector-curvature="0"
     d="m 398.38355,108.2618 c 0.58914,-7.6835 3.61245,-13.553705 15.27175,-12.939905 14.40039,-0.081 28.80078,-0.1658 43.21528,-0.2575 11.66283,0.063 14.25222,6.198305 15.52575,13.197405 l -74.01278,0 z"
     style="fill:#ffffff;fill-opacity:1;fill-rule:evenodd;stroke:none"
     id="path4836" />
  <path
     inkscape:connector-curvature="0"
     d="m 399.36817,209.3178 22.34847,0 c 6.731,0 11.31006,3.7924 11.31006,9.7085 0,5.6444 -4.57906,9.4121 -11.31006,9.4121 l -22.34847,0 0,-19.1206 z m 66.56564,89.9901 -14.605,-22.8811 c 0,0 -0.25062,-0.3952 -0.59267,-0.9349 l 11.75456,-18.9406 -9.77195,0 -6.97794,11.2606 c -2.42711,-3.5031 -12.14614,-17.5154 -18.08692,-26.0844 2.54353,-0.3986 4.78367,-1.1218 7.26722,-2.5117 7.2637,-4.0252 11.83922,-12.125 11.83922,-20.1895 0,-8.629 -4.57552,-16.1714 -11.83922,-20.2036 -4.32858,-2.4095 -7.81403,-3.2314 -13.74069,-3.2314 l -35.81047,0 0,76.7397 13.99822,0 0,-30.1625 13.03866,0 c 8.56192,12.4354 25.24831,36.6818 25.28359,36.7418 0.0141,0.01 0.254,0.3951 0.55386,0.889 l -12.50245,19.4875 9.92364,0 7.41186,-11.7793 c 1.85562,2.861 7.65881,11.8004 7.65881,11.8004 l 15.19767,0 z"
     style="fill:#ffffff;fill-opacity:1;fill-rule:nonzero;stroke:none"
     id="path4840" />
  <path
     inkscape:connector-curvature="0"
     d="m 385.44366,326.2883 c 0.12362,-1.7109 0.25062,-2.5894 0.6985,-3.7994 0.75847,-2.2119 2.21545,-4.0993 4.10634,-5.3728 0.69144,-0.4974 1.58397,-0.8819 2.46944,-1.2594 l 0.69497,-0.321 0.63147,-0.1869 0.635,-0.254 c 1.00542,-0.4409 1.63689,-1.0689 1.63689,-1.7039 0,-1.0689 -1.44991,-1.838 -3.53836,-1.838 -1.83797,0 -3.03389,0.441 -4.8013,1.838 l -2.53295,-2.6599 c 1.20297,-0.882 1.76389,-1.263 2.58586,-1.6404 1.4605,-0.755 3.10798,-1.1395 4.87539,-1.1395 2.27895,0 4.29684,0.6279 5.49981,1.7709 0.9525,0.882 1.45697,2.0214 1.45697,3.5384 0,2.6635 -1.64042,4.4909 -5.12586,5.6974 -2.01789,0.7514 -2.52942,1.0054 -3.47133,1.9579 -0.57503,0.5609 -0.95603,1.0689 -1.32998,1.7674 l 10.11767,0 0,3.6054 -14.60853,0 z"
     style="fill:#ffffff;fill-opacity:1;fill-rule:nonzero;stroke:none"
     id="path4844" />
  <path
     inkscape:connector-curvature="0"
     d="m 419.39852,322.3019 0,-3.3443 -2.71991,0 0,-10.7527 -3.53836,0 -10.56923,10.7527 0,3.3443 10.56923,0 0,3.9864 3.53836,0 0,-3.9864 2.71991,0 z m -6.25827,-3.3443 -5.87728,0 5.87728,-5.8843 0,5.8843 z"
     style="fill:#ffffff;fill-opacity:1;fill-rule:nonzero;stroke:none"
     id="path4848" />
  <path
     inkscape:connector-curvature="0"
     d="m 443.36625,326.2883 0,-7.8987 -7.46478,0 0,7.8987 -3.54189,0 0,-18.0163 3.54189,0 0,6.5087 7.46478,0 0,-6.5087 3.53836,0 0,18.0163 -3.53836,0 z"
     style="fill:#ffffff;fill-opacity:1;fill-rule:nonzero;stroke:none"
     id="path4852" />
  <path
     inkscape:connector-curvature="0"
     d="m 466.50847,326.2883 -2.84339,-7.6482 c 1.64042,-1.083 2.59292,-2.8504 2.59292,-4.8048 0,-2.025 -1.0795,-3.8594 -2.84692,-4.8684 -1.00895,-0.575 -1.76742,-0.762 -3.28789,-0.762 l -8.16328,0 0,18.0834 3.54895,0 0,-6.7662 4.7378,0 2.47297,6.7662 3.78884,0 z m -3.78884,-12.453 c 0,1.2594 -0.94897,2.0884 -2.27894,2.0884 l -4.93183,0 0,-4.1134 4.93183,0 c 1.32997,0 2.27894,0.8785 2.27894,2.025"
     style="fill:#ffffff;fill-opacity:1;fill-rule:nonzero;stroke:none"
     id="path4856" />
</svg>
