<?xml version="1.0" encoding="UTF-8" standalone="no"?>
<svg
   xmlns:dc="http://purl.org/dc/elements/1.1/"
   xmlns:cc="http://creativecommons.org/ns#"
   xmlns:rdf="http://www.w3.org/1999/02/22-rdf-syntax-ns#"
   xmlns:svg="http://www.w3.org/2000/svg"
   xmlns="http://www.w3.org/2000/svg"
   xmlns:sodipodi="http://sodipodi.sourceforge.net/DTD/sodipodi-0.dtd"
   xmlns:inkscape="http://www.inkscape.org/namespaces/inkscape"
   width="192.15797"
   height="166.17003"
   viewBox="0 0 542.31251 468.96874"
   version="1.1"
   id="svg2"
   inkscape:version="0.48.2 r9819"
   sodipodi:docname="MUTCD D9-18b.svg">
  <metadata
     id="metadata62">
    <rdf:RDF>
      <cc:Work
         rdf:about="">
        <dc:format>image/svg+xml</dc:format>
        <dc:type
           rdf:resource="http://purl.org/dc/dcmitype/StillImage" />
        <dc:title></dc:title>
      </cc:Work>
    </rdf:RDF>
  </metadata>
  <defs
     id="defs60">
    <clipPath
       clipPathUnits="userSpaceOnUse"
       id="clipPath3564">
      <path
         inkscape:connector-curvature="0"
         d="m 63,43 512.622,0 0,313.129 L 63,356.129 63,43 z"
         id="path3566" />
    </clipPath>
  </defs>
  <sodipodi:namedview
     pagecolor="#ffffff"
     bordercolor="#666666"
     borderopacity="1"
     objecttolerance="10"
     gridtolerance="10"
     guidetolerance="10"
     inkscape:pageopacity="0"
     inkscape:pageshadow="2"
     inkscape:window-width="1280"
     inkscape:window-height="1004"
     id="namedview58"
     showgrid="false"
     fit-margin-top="0"
     fit-margin-left="0"
     fit-margin-right="0"
     fit-margin-bottom="0"
     inkscape:zoom="2.7367973"
     inkscape:cx="80.729029"
     inkscape:cy="63.727022"
     inkscape:window-x="-8"
     inkscape:window-y="-8"
     inkscape:window-maximized="1"
     inkscape:current-layer="svg2"
     showguides="true"
     inkscape:guide-bbox="true" />
  <polygon
     points="315,205 395,375 315,545 235,375 "
     id="polygon10"
     style="fill:none;stroke:#ffffff;stroke-width:40"
     transform="translate(25739.834,12669.46)" />
  <!-- draw the bicycle -->
  <!-- RIGHT -->
  <!-- LANE -->
  <!-- ONLY -->
  <path
     inkscape:connector-curvature="0"
     d="m 38.96545,467.54925 c -20.701,0 -37.54261,-16.8416 -37.54261,-37.539 l 0,-391.071803 c 0,-20.701 16.84161,-37.5427001 37.54261,-37.5427001 l 464.39667,0 c 20.701,0 37.54261,16.8417001 37.54261,37.5427001 l 0,391.071803 c 0,20.6974 -16.84161,37.539 -37.54261,37.539 l -464.39667,0 z"
     style="fill:#ffffff;fill-opacity:1;fill-rule:nonzero;stroke:#000000;stroke-width:2.82222223;stroke-miterlimit:4;stroke-opacity:1;stroke-dasharray:none"
     id="path4656" />
  <path
     inkscape:connector-curvature="0"
     d="m 38.96545,458.52525 c -3.82764,0 -7.54239,-0.7514 -11.049,-2.2472 -3.39725,-1.4393 -6.4523,-3.5066 -9.08403,-6.1383 -2.63172,-2.6318 -4.69547,-5.6833 -6.13833,-9.0805 -1.49225,-3.5102 -2.24719,-7.2214 -2.24719,-11.049 l 0,-391.071803 c 0,-3.8277 0.75494,-7.5424 2.24719,-11.049 1.44286,-3.3938 3.50661,-6.4523 6.13833,-9.0841 2.63173,-2.6282 5.68678,-4.6954 9.08403,-6.1383 3.50661,-1.4887 7.22136,-2.2437 11.049,-2.2437 l 464.39667,0 c 3.82059,0 7.54239,0.755 11.049,2.2437 3.39372,1.4429 6.44878,3.5101 9.0805,6.1383 2.6282,2.6318 4.699,5.6903 6.13834,9.0841 1.49225,3.5066 2.24719,7.2213 2.24719,11.049 l 0,391.071803 c 0,3.8276 -0.75494,7.5388 -2.24719,11.049 -1.43934,3.3972 -3.51014,6.4487 -6.13834,9.0805 -2.63172,2.6317 -5.68678,4.699 -9.0805,6.1383 -3.50661,1.4958 -7.22841,2.2472 -11.049,2.2472 l -464.39667,0 z"
     style="fill:#155196;fill-opacity:1;fill-rule:nonzero;stroke:none"
     id="path4664" />
  <path
     inkscape:connector-curvature="0"
     d="m 125.98656,415.92735 0,-40.7388 29.83089,0 0,7.2919 -22.37317,0 0,7.5742 12.18847,0 0,7.4295 -12.18847,0 0,11.1477 23.09283,0 0,7.2955 -30.55055,0 z"
     style="fill:#ffffff;fill-opacity:1;fill-rule:nonzero;stroke:none"
     id="path4668" />
  <path
     inkscape:connector-curvature="0"
     d="m 205.84839,375.18825 7.33425,0 0,40.7387 -7.33425,0 0,-40.7387 z"
     style="fill:#ffffff;fill-opacity:1;fill-rule:nonzero;stroke:none"
     id="path4670" />
  <path
     inkscape:connector-curvature="0"
     d="m 238.94953,382.33585 0,33.5915 -7.14022,0 0,-33.5915 -11.70517,0 0,-7.1473 30.55409,0 0,7.1473 -11.7087,0 z"
     style="fill:#ffffff;fill-opacity:1;fill-rule:nonzero;stroke:none"
     id="path4674" />
  <path
     inkscape:connector-curvature="0"
     d="m 189.08688,415.92735 -9.18634,-14.4392 -9.04875,14.4392 -8.61483,0 13.35617,-21.4454 -12.20612,-19.2934 8.75595,0 7.75758,12.4354 7.75053,-12.4354 8.75594,0 -12.05794,19.2934 13.34911,21.4454 -8.6113,0 z"
     style="fill:#ffffff;fill-opacity:1;fill-rule:nonzero;stroke:none"
     id="path4678" />
  <path
     inkscape:connector-curvature="0"
     d="m 336.95365,427.18095 c -7.53533,0 -15.07066,-2.5753 -20.45052,-7.5036 -1.51342,-1.2806 -2.58587,-2.3566 -4.74134,-4.9283 l 8.83003,-6.6499 c 4.30389,5.5739 9.90247,7.934 17.01095,7.934 7.53533,0 12.70352,-3.4325 12.70352,-8.5795 0,-2.9916 -1.94027,-6.4312 -4.7378,-7.9305 -1.72156,-0.8572 -3.66184,-1.2841 -6.02897,-1.2841 l -3.01625,0 0,-10.9361 2.58586,0 c 4.7378,0 8.18091,-2.5718 8.18091,-6.0043 0,-3.6442 -4.30389,-6.4276 -10.76677,-6.4276 -5.16467,0 -9.90601,2.1378 -13.56431,6.0007 l -8.18445,-7.5071 c 6.02898,-6.2159 13.56784,-9.4332 22.39434,-9.4332 12.27314,0 21.31836,7.2919 21.31836,17.1555 0,4.0746 -1.29117,6.858 -4.953,11.5747 6.02897,5.3587 7.75053,8.5725 7.75053,14.3651 0,11.37 -10.54806,20.1542 -24.33109,20.1542"
     style="fill:#ffffff;fill-opacity:1;fill-rule:nonzero;stroke:none"
     id="path4682" />
  <path
     inkscape:connector-curvature="0"
     d="m 394.60533,374.87105 c -7.53886,0 -11.84275,2.1378 -11.84275,5.5704 0,3.6442 4.30389,5.789 11.84275,5.789 7.53886,0 11.84275,-2.1448 11.84275,-5.789 0,-3.4326 -4.30389,-5.5704 -11.84275,-5.5704 m 0,22.292 c -8.83003,0 -13.78303,3.4326 -13.78303,9.4368 0,3.0022 1.72156,6.0008 4.52614,7.7188 1.71803,1.0725 5.59506,1.7145 9.25689,1.7145 5.1682,0 8.39611,-0.642 10.54806,-2.5788 2.159,-1.9262 3.23144,-4.2827 3.23144,-6.8545 0,-6.0042 -4.953,-9.4368 -13.7795,-9.4368 m 0,30.0179 c -15.07066,0 -24.76147,-8.1492 -24.76147,-20.5811 0,-5.7961 2.36361,-10.7209 6.88975,-14.7955 -3.8735,-4.5014 -4.95653,-7.0732 -4.95653,-11.1513 0,-10.0753 9.26395,-16.7216 22.82825,-16.7216 13.7795,0 22.82473,6.6463 22.82473,16.7216 0,4.0781 -1.07598,6.6499 -4.73781,11.1513 4.51908,4.0746 6.67808,8.9994 6.67808,14.7955 0,14.5803 -12.05794,20.5811 -24.765,20.5811"
     style="fill:#ffffff;fill-opacity:1;fill-rule:nonzero;stroke:none"
     id="path4686" />
  <path
     inkscape:connector-curvature="0"
     d="m 503.40587,307.08835 -15.90675,0 15.90675,0 z m -77.29362,-41.2256 -25.53758,41.2256 25.53758,0 25.54112,0 -25.54112,-41.2256 z m 0,51.0822 -77.6358,0 0,-9.8566 16.24894,0 61.38686,-98.1251 61.38687,98.1251 15.90675,0 0,9.8566 -77.29362,0 z m -77.6358,-9.8566 16.24894,0 -16.24894,0 z"
     style="fill:#ffffff;fill-opacity:1;fill-rule:evenodd;stroke:none"
     id="path4690" />
  <path
     inkscape:connector-curvature="0"
     d="m 70.12067,157.67635 24.56744,0 0,-102.930003 0.0317,0 c 0,-2.3036 1.91911,-4.1592 4.21217,-4.1592 0.0212,0 0.0178,-0.028 0.0212,-0.028 l 36.97816,-0.011 c 2.286,0 4.18748,1.9191 4.21217,4.2122 l 0,7.1191 9.99419,8.2056 c 1.85209,1.404 3.06917,3.6195 3.18912,5.9266 -0.003,14.4322 0,27.407303 0,38.784403 0,13.0105 7.7223,22.8318 7.7223,32.7096 0,4.96 -4.07105,8.9958 -9.00994,8.9958 -4.16631,0 -8.03981,-3.2667 -9.15811,-7.3378 -1.76742,-6.4205 -0.81139,-40.2166 -0.87842,-47.6744 l -1.88383,0 0,56.1905 22.48252,0 0,8.1033 -92.48069,0 0,-8.1033 z"
     style="fill:#ffffff;fill-opacity:1;fill-rule:evenodd;stroke:none"
     id="path4694" />
  <path
     inkscape:connector-curvature="0"
     d="m 146.75529,98.653147 c 0,-1.8945 -1.53811,-3.429 -3.39372,-3.429 l -3.3267,-0.1341 0,-26.8887 1.94381,1.5028 0,10.7174 6.57225,0 c 0.0988,12.192 0.19756,24.384003 0.28928,36.576003 0.0317,12.1391 6.99911,22.8635 7.19666,29.8521 0.0706,2.3318 -1.89794,4.2298 -4.21216,4.2298 -1.18534,0 -2.77989,-0.6068 -3.78178,-2.2719 -2.82575,-4.7026 -1.24178,-44.069 -1.28764,-50.150903"
     style="fill:#155196;fill-opacity:1;fill-rule:evenodd;stroke:none"
     id="path4698" />
  <path
     inkscape:connector-curvature="0"
     d="m 103.54529,56.369147 27.61897,0 c 1.48873,0 2.71286,1.2136 2.71286,2.6952 l 0,21.1067 c 0,1.4923 -1.22413,2.7058 -2.71286,2.7058 l -27.61897,0 c -1.49225,0 -2.70933,-1.2135 -2.70933,-2.7058 l 0,-21.1067 c 0,-1.4816 1.21708,-2.6952 2.70933,-2.6952"
     style="fill:#155196;fill-opacity:1;fill-rule:evenodd;stroke:none"
     id="path4702" />
  <path
     inkscape:connector-curvature="0"
     d="m 124.63929,205.13905 c -2.10609,0.1164 -4.17337,0.3387 -6.21242,0.8749 -2.34597,0.628 -4.572,1.5522 -6.62164,2.8505 -1.70392,1.0689 -3.23497,2.3001 -4.66725,3.6653 l -5.46806,22.0028 c -2.05316,8.3114 -3.34433,16.8028 -3.70063,25.3717 -0.13406,3.3444 -0.11289,6.6852 0.0423,10.026 0.17991,4.3885 0.53269,8.763 1.07597,13.1057 0.17639,1.404 0.4445,2.794 0.81491,4.1663 l 7.3907,27.4496 c 1.70392,1.1254 3.44311,2.1379 5.30225,2.9881 2.14136,0.9842 4.39209,1.7709 6.69925,2.3036 1.9297,0.4304 3.85586,0.695 5.82084,0.8255 l -7.06262,-30.8434 c -1.24883,-0.2785 -2.4518,-0.769 -3.46427,-1.5769 -0.82903,-0.6667 -2.31423,-2.2084 -2.31423,-3.3866 l 0,-41.1234 c 0,-2.1978 1.34056,-4.0781 3.05506,-5.3622 1.05128,-0.7867 2.24719,-1.2665 3.52778,-1.5416 l 5.78203,-31.7959 z"
     style="fill:#ffffff;fill-opacity:1;fill-rule:evenodd;stroke:none"
     id="path4706" />
  <path
     inkscape:connector-curvature="0"
     d="m 133.08515,319.17445 c 0.61736,-0.2009 1.03011,-0.6385 1.37584,-1.1712 0.25752,-0.4057 0.381,-0.8396 0.381,-1.3158 -0.0141,-0.3881 -0.0565,-0.8185 -0.15523,-1.1924 l -6.25122,-25.9468 c -0.18697,-0.7797 -0.19755,-1.143 -0.9525,-1.6052 -0.46214,-0.2928 -1.06186,-0.4833 -1.60161,-0.3281 l -4.96006,1.4605 7.0485,31.2103 5.11528,-1.1113 z"
     style="fill:#ffffff;fill-opacity:1;fill-rule:evenodd;stroke:none"
     id="path4710" />
  <path
     inkscape:connector-curvature="0"
     d="m 121.89188,236.95255 4.49086,0.9737 c 0.26811,0.032 0.5327,0.049 0.79375,0.063 0.38453,0.049 0.77611,0 1.10772,-0.2258 0.59267,-0.3916 0.84314,-0.9313 0.99131,-1.6087 l 5.45042,-26.3101 c 0.0882,-0.4128 0.10583,-0.8114 -0.0565,-1.2101 -0.14111,-0.3739 -0.34925,-0.7478 -0.61383,-1.0689 -0.38453,-0.4621 -0.97367,-0.8361 -1.56986,-0.9384 l -4.826,-0.7972 -5.76792,31.122 z"
     style="fill:#ffffff;fill-opacity:1;fill-rule:evenodd;stroke:none"
     id="path4714" />
  <path
     inkscape:connector-curvature="0"
     d="m 271.14544,50.354347 c 31.84172,0 57.82381,25.9644 57.82381,57.806103 0,31.8453 -25.98209,57.8097 -57.82381,57.8097 -31.82761,0 -57.80616,-25.9644 -57.80616,-57.8097 0,-31.841703 25.97855,-57.806103 57.80616,-57.806103"
     style="fill:#ffffff;fill-opacity:1;fill-rule:evenodd;stroke:none"
     id="path4718" />
  <path
     inkscape:connector-curvature="0"
     d="m 263.60094,157.16125 c 0.007,2.7482 -1.00542,3.3973 -2.89631,3.4149 -1.88383,0.01 -3.22439,-0.6702 -3.23144,-3.4149 -0.0353,-21.4947 0,-43.0071 0,-64.516003 -4.99534,-3.877 -6.67809,-9.3591 -5.61975,-16.1642 1.08302,-6.2442 2.15547,-12.4919 3.2385,-18.729 0.24341,-0.028 0.49741,-0.042 0.74789,-0.074 0.0141,7.6447 0.0459,15.3 0.0741,22.9447 l 1.28411,0 c 0.47272,-7.6447 0.9525,-15.3 1.43228,-22.9447 l 0.72672,0 c 0.15522,7.6765 0.31397,15.3458 0.47272,23.0258 0.45156,-0.024 0.90311,-0.049 1.36878,-0.081 0.35631,-7.6447 0.74083,-15.3 1.10419,-22.9447 l 0.73025,0 c 0.28575,7.6235 0.57856,15.2435 0.86784,22.8635 l 1.68628,0 c -0.0248,-7.62 -0.0529,-15.24 -0.0776,-22.8635 l 0.7867,0 c 1.04422,6.2689 2.08844,12.5236 3.12561,18.7854 0.49036,7.493 -0.97014,13.335 -5.91256,16.2313 0.0246,21.487703 0.0529,42.982503 0.0917,64.466603"
     style="fill:#155196;fill-opacity:1;fill-rule:evenodd;stroke:none"
     id="path4722" />
  <path
     inkscape:connector-curvature="0"
     d="m 285.96987,57.667347 0,99.543303 c -0.44097,2.032 -1.30175,2.6353 -3.21028,2.7164 -1.91558,0.049 -3.175,-0.5538 -3.25614,-2.7058 l 0,-49.6852 c 0.16934,-3.1644 -0.0245,-6.29 -2.86455,-9.200403 -1.36525,-0.9102 -2.09197,-2.6953 -2.20839,-5.3587 0.0847,-9.7932 0.1658,-19.5933 0.24342,-29.39 -0.06,-6.6569 6.69572,-6.3358 11.29594,-5.9196"
     style="fill:#155196;fill-opacity:1;fill-rule:evenodd;stroke:none"
     id="path4726" />
  <path
     inkscape:connector-curvature="0"
     d="m 317.63027,320.57855 0,-115.2525 -22.63776,0 0,41.6278 -47.68497,0 0,-41.6278 -22.63422,0 0,115.2525 22.63422,0 0,-50.5848 47.68497,0 0,50.5848 22.63776,0 z"
     style="fill:#ffffff;fill-opacity:1;fill-rule:evenodd;stroke:none"
     id="path4730" />
  <path
     inkscape:connector-curvature="0"
     d="m 378.97372,100.52635 c 0,-4.198003 3.42195,-7.627003 7.63411,-7.627003 4.19806,0 7.62706,3.429 7.62706,7.627003 0,4.2087 -3.429,7.6447 -7.62706,7.6447 -4.21216,0 -7.63411,-3.436 -7.63411,-7.6447"
     style="fill:#ffffff;fill-opacity:1;fill-rule:evenodd;stroke:none"
     id="path4734" />
  <path
     inkscape:connector-curvature="0"
     d="m 375.35069,135.33495 -9.57439,0 0,-54.345403 9.57439,0 0,30.532903 101.18373,0 0,-17.596603 9.57439,0 0,41.409103 -9.57439,0 0,-10.6045 -101.18373,0 0,10.6045 z"
     style="fill:#ffffff;fill-opacity:1;fill-rule:evenodd;stroke:none"
     id="path4738" />
  <path
     inkscape:connector-curvature="0"
     d="m 398.38355,108.17105 c 0.58914,-7.687 3.61245,-13.557203 15.27175,-12.939903 14.40039,-0.088 28.80431,-0.1728 43.21528,-0.261 11.66636,0.067 14.25223,6.194803 15.52575,13.200903 l -74.01278,0 z"
     style="fill:#ffffff;fill-opacity:1;fill-rule:evenodd;stroke:none"
     id="path4742" />
</svg>
