<?xml version="1.0" encoding="UTF-8" standalone="no"?>
<svg
   xmlns:dc="http://purl.org/dc/elements/1.1/"
   xmlns:cc="http://creativecommons.org/ns#"
   xmlns:rdf="http://www.w3.org/1999/02/22-rdf-syntax-ns#"
   xmlns:svg="http://www.w3.org/2000/svg"
   xmlns="http://www.w3.org/2000/svg"
   xmlns:sodipodi="http://sodipodi.sourceforge.net/DTD/sodipodi-0.dtd"
   xmlns:inkscape="http://www.inkscape.org/namespaces/inkscape"
   width="264.38608"
   height="77.886322"
   viewBox="0 0 746.15626 219.8125"
   version="1.1"
   id="svg2"
   inkscape:version="0.48.2 r9819"
   sodipodi:docname="AJAX1.svg">
  <metadata
     id="metadata62">
    <rdf:RDF>
      <cc:Work
         rdf:about="">
        <dc:format>image/svg+xml</dc:format>
        <dc:type
           rdf:resource="http://purl.org/dc/dcmitype/StillImage" />
        <dc:title></dc:title>
      </cc:Work>
    </rdf:RDF>
  </metadata>
  <defs
     id="defs60">
    <clipPath
       clipPathUnits="userSpaceOnUse"
       id="clipPath3564">
      <path
         inkscape:connector-curvature="0"
         d="m 63,43 512.622,0 0,313.129 L 63,356.129 63,43 z"
         id="path3566" />
    </clipPath>
  </defs>
  <sodipodi:namedview
     pagecolor="#ffffff"
     bordercolor="#666666"
     borderopacity="1"
     objecttolerance="10"
     gridtolerance="10"
     guidetolerance="10"
     inkscape:pageopacity="0"
     inkscape:pageshadow="2"
     inkscape:window-width="1280"
     inkscape:window-height="1004"
     id="namedview58"
     showgrid="false"
     fit-margin-top="0"
     fit-margin-left="0"
     fit-margin-right="0"
     fit-margin-bottom="0"
     inkscape:zoom="2.7367973"
     inkscape:cx="118.76211"
     inkscape:cy="44.62285"
     inkscape:window-x="-8"
     inkscape:window-y="-8"
     inkscape:window-maximized="1"
     inkscape:current-layer="svg2"
     showguides="true"
     inkscape:guide-bbox="true" />
  <polygon
     points="315,205 395,375 315,545 235,375 "
     id="polygon10"
     style="fill:none;stroke:#ffffff;stroke-width:40"
     transform="translate(27495.678,4521.1476)" />
  <!-- draw the bicycle -->
  <!-- RIGHT -->
  <!-- LANE -->
  <!-- ONLY -->
  <path
     inkscape:connector-curvature="0"
     d="m 22.8099,1.1161927 700.5215,0 c 11.9344,0 21.6993,9.7649003 21.6993,21.6958003 l 0,174.166397 c 0,11.931 -9.7649,21.6959 -21.6993,21.6959 l -700.5215,0 c -11.9309,0 -21.6923,-9.7649 -21.6923,-21.6959 l 0,-174.166397 c 0,-11.9309 9.7614,-21.6958003 21.6923,-21.6958003"
     style="fill:#ffffff;fill-opacity:1;fill-rule:nonzero;stroke:#000000;stroke-width:2.25777776;stroke-miterlimit:4;stroke-opacity:1;stroke-dasharray:none"
     id="path3264" />
  <path
     inkscape:connector-curvature="0"
     d="m 22.8099,6.5316927 700.5215,0 c 8.9499,0 16.2842,7.3236003 16.2842,16.2807003 l 0,174.162797 c 0,8.9571 -7.3343,16.2843 -16.2842,16.2843 l -700.5215,0 c -8.9535,0 -16.2771,-7.3272 -16.2771,-16.2843 l 0,-174.162797 c 0,-8.9571 7.3236,-16.2807003 16.2771,-16.2807003"
     style="fill:#155196;fill-opacity:1;fill-rule:evenodd;stroke:none"
     id="path3272" />
  <path
     inkscape:connector-curvature="0"
     d="m 87.2677,94.925793 0,-58.3212 -10.0294,0 0,38.4704 -26.8076,-38.4704 -10.2341,0 0,58.3212 10.2341,0 0,-40.1108 27.8306,40.1108 9.0064,0 z m 58.734,0 0,-10.4387 -32.9494,0 0,-15.9526 17.399,0 0,-10.6504 -17.399,0 0,-10.8408 31.9228,0 0,-10.4387 -42.5661,0 0,58.3212 43.5927,0 z m 58.7305,0 -19.0324,-30.6987 17.1909,-27.6225 -12.4813,0 -11.0525,17.8082 -11.049,-17.8082 -12.4813,0 17.3919,27.6225 -19.0323,30.6987 12.2802,0 12.8905,-20.6657 13.0986,20.6657 12.2767,0 z m 50.1403,-48.0942 0,-10.227 -43.7939,0 0,10.227 16.7817,0 0,48.0942 10.2305,0 0,-48.0942 16.7817,0 z m 84.1128,31.108 c 0,-6.343 -3.2773,-11.871 -8.3891,-14.531 -3.2773,-1.6298 -8.3961,-3.2702 -16.1713,-4.9106 -7.1614,-1.6299 -9.2075,-3.0692 -9.2075,-6.3394 0,-3.6866 3.4784,-5.9338 9.4121,-5.9338 5.528,0 10.2306,1.838 13.9136,5.7292 l 7.7787,-6.9533 c -5.9302,-6.1419 -13.0986,-9.0099 -21.6923,-9.0099 -11.8674,0 -20.0519,6.551 -20.0519,16.1678 0,3.683 1.2277,7.1649 3.683,9.8213 2.4553,2.861 5.5245,4.3004 11.4582,5.7291 l 2.8646,0.8255 2.6635,0.6033 2.6599,0.8255 c 2.6529,0.6138 4.9107,1.4287 6.9533,2.2472 2.4588,1.2241 3.683,3.0691 3.683,5.3198 0,4.3004 -5.3199,7.5742 -12.6859,7.5742 -6.5441,0 -11.2501,-2.2472 -15.554,-7.3695 l -8.3891,6.551 c 6.5511,7.5706 14.1217,11.2854 24.1512,11.2854 5.3199,0 10.6398,-1.4605 14.7285,-3.9264 5.528,-3.2703 8.1915,-7.7717 8.1915,-13.7054 m 55.2556,16.9862 0,-10.4387 -32.9495,0 0,-15.9526 17.3955,0 0,-10.6504 -17.3955,0 0,-10.8408 31.9264,0 0,-10.4387 -42.5697,0 0,58.3212 43.5928,0 z m 58.7304,0 -10.6398,-24.9625 c 5.9373,-3.2809 9.4086,-9.01 9.4086,-15.5505 0,-6.5546 -3.4713,-12.2837 -9.0029,-15.3529 -3.0621,-1.8379 -5.7256,-2.4553 -10.0224,-2.4553 l -26.8076,0 0,58.3212 10.4352,0 0,-22.92 15.554,0 9.4156,22.92 11.6593,0 z m -11.6593,-40.513 c 0,4.2863 -3.2773,7.1579 -8.3961,7.1579 l -16.5735,0 0,-14.5274 16.5735,0 c 5.1188,0 8.3961,2.8575 8.3961,7.3695 m 72.4394,-17.8082 -11.2536,0 -15.9667,42.5591 -15.9562,-42.5591 -11.2571,0 21.4841,58.3212 11.2607,0 21.6888,-58.3212 z m 20.0589,0 -10.4387,0 0,58.3212 10.4387,0 0,-58.3212 z m 60.3674,46.4467 -9.2075,-4.9071 c -5.1188,5.528 -7.9799,7.3695 -13.3033,7.3695 -8.8018,0 -14.1217,-7.3695 -14.1217,-20.0589 0,-8.9994 3.4819,-19.4381 14.1217,-19.4381 3.0727,0 6.9603,1.2277 9.211,3.0692 1.6369,1.0266 2.4554,1.8415 4.0923,4.3003 l 9.2075,-4.9142 c -4.4944,-8.1809 -13.0952,-12.8905 -22.5108,-12.8905 -15.3529,0 -24.7579,11.6629 -24.7579,30.0814 0,18.2104 9.405,30.3212 24.7579,30.3212 9.4156,0 18.2069,-4.7413 22.5108,-12.9328 m 56.8995,11.8745 0,-10.4387 -32.953,0 0,-15.9526 17.392,0 0,-10.6504 -17.392,0 0,-10.8408 31.9264,0 0,-10.4387 -42.5732,0 0,58.3212 43.5998,0 z m 55.245,-16.9862 c 0,-6.343 -3.2632,-11.871 -8.3855,-14.531 -3.2844,-1.6298 -8.3856,-3.2702 -16.1749,-4.9106 -7.1543,-1.6299 -9.204,-3.0692 -9.204,-6.3394 0,-3.6866 3.4819,-5.9338 9.4157,-5.9338 5.5245,0 10.234,1.838 13.91,5.7292 l 7.7893,-6.9533 c -5.9408,-6.1419 -13.1057,-9.0099 -21.6993,-9.0099 -11.8781,0 -20.0519,6.551 -20.0519,16.1678 0,3.683 1.2276,7.1649 3.683,9.8213 2.4553,2.861 5.5245,4.3004 11.4582,5.7291 l 2.8681,0.8255 2.6564,0.6033 2.6635,0.8255 c 2.6529,0.6138 4.9142,1.4287 6.9567,2.2472 2.4448,1.2241 3.676,3.0691 3.676,5.3198 0,4.3004 -5.3164,7.5742 -12.6824,7.5742 -6.544,0 -11.2536,-2.2472 -15.5504,-7.3695 l -8.3961,6.551 c 6.5546,7.5706 14.1217,11.2854 24.1582,11.2854 5.3164,0 10.6327,-1.4605 14.7355,-3.9264 5.5245,-3.2703 8.1739,-7.7717 8.1739,-13.7054"
     style="fill:#ffffff;fill-opacity:1;fill-rule:evenodd;stroke:none"
     id="path3276" />
  <path
     inkscape:connector-curvature="0"
     d="m 206.2477,182.52439 c 0,-6.9568 1.4322,-12.072 4.706,-17.8012 5.1153,-8.5901 12.4813,-13.9135 23.1211,-16.7781 6.5475,-1.8415 8.7947,-3.8841 8.7947,-7.366 0,-4.2933 -4.0887,-6.7521 -11.4547,-6.7521 -7.5706,0 -13.0951,1.845 -18.0057,6.3429 l -7.1614,-7.9798 c 6.7521,-5.9302 15.1412,-8.9994 24.5498,-8.9994 13.7124,0 22.5072,6.7522 22.5072,17.3884 0,4.9107 -2.0426,9.4121 -5.9302,12.6859 -1.8415,1.4323 -4.505,2.8681 -8.5937,4.0922 -7.7752,2.2508 -10.0259,3.2738 -13.5043,6.343 -2.6599,2.2507 -4.2968,4.5014 -6.3429,8.389 l 34.3711,0 0,10.4352 -47.057,0 z"
     style="fill:#ffffff;fill-opacity:1;fill-rule:nonzero;stroke:none"
     id="path3280" />
  <path
     inkscape:connector-curvature="0"
     d="m 285.4318,183.54749 c -7.1578,0 -14.3227,-2.4554 -19.4345,-7.1614 -1.4358,-1.2277 -2.4589,-2.2507 -4.5014,-4.7061 l 8.389,-6.3429 c 4.0887,5.3199 9.4121,7.5706 16.1608,7.5706 7.1614,0 12.072,-3.2738 12.072,-8.1845 0,-2.861 -1.8415,-6.1383 -4.5014,-7.567 -1.6369,-0.822 -3.4784,-1.2312 -5.7291,-1.2312 l -2.8646,0 0,-10.4352 2.4553,0 c 4.5015,0 7.7788,-2.4518 7.7788,-5.7291 0,-3.4749 -4.0958,-6.1348 -10.2341,-6.1348 -4.9071,0 -9.4086,2.0461 -12.8905,5.7291 l -7.7717,-7.1649 c 5.7256,-5.9302 12.8905,-8.9994 21.276,-8.9994 11.6629,0 20.2565,6.9533 20.2565,16.3654 0,3.8876 -1.2241,6.5475 -4.706,11.049 5.7291,5.1153 7.366,8.1879 7.366,13.7089 0,10.8444 -10.026,19.2335 -23.1211,19.2335"
     style="fill:#ffffff;fill-opacity:1;fill-rule:nonzero;stroke:none"
     id="path3284" />
  <path
     inkscape:connector-curvature="0"
     d="m 388.704,174.91779 0,-26.7017 -12.8905,26.7017 -12.7388,-26.7017 0,26.7017 -7.6765,0 0,-43.7409 7.6765,0 12.7388,25.9397 12.8905,-25.9397 7.6729,0 0,43.7409 -7.6729,0 z"
     style="fill:#ffffff;fill-opacity:1;fill-rule:nonzero;stroke:none"
     id="path3288" />
  <path
     inkscape:connector-curvature="0"
     d="m 407.7293,131.17969 7.8281,0 0,43.7409 -7.8281,0 0,-43.7409 z"
     style="fill:#ffffff;fill-opacity:1;fill-rule:nonzero;stroke:none"
     id="path3290" />
  <path
     inkscape:connector-curvature="0"
     d="m 426.7617,174.91779 0,-43.7409 7.8281,0 0,36.9887 24.8603,0 0,6.7522 -32.6884,0 z"
     style="fill:#ffffff;fill-opacity:1;fill-rule:nonzero;stroke:none"
     id="path3294" />
  <path
     inkscape:connector-curvature="0"
     d="m 466.9713,174.91779 0,-43.7409 31.9228,0 0,7.8281 -23.9395,0 0,8.1351 13.0422,0 0,7.9798 -13.0422,0 0,11.9698 24.7086,0 0,7.8281 -32.6919,0 z"
     style="fill:#ffffff;fill-opacity:1;fill-rule:nonzero;stroke:none"
     id="path3298" />
  <path
     inkscape:connector-curvature="0"
     d="m 534.9586,172.46139 c -3.0692,1.8415 -7.0591,2.9175 -11.0525,2.9175 -7.5177,0 -13.1974,-2.7623 -18.1081,-8.442 l 6.29,-4.9107 c 3.2244,3.8383 6.7522,5.5245 11.6664,5.5245 5.5245,0 9.5144,-2.4553 9.5144,-5.6762 0,-1.6898 -0.9172,-3.0691 -2.7623,-3.9934 -1.531,-0.6138 -3.2243,-1.2241 -5.2175,-1.6863 l -1.9968,-0.6138 -1.9932,-0.4621 -2.1484,-0.6139 c -4.4485,-1.076 -6.7557,-2.1449 -8.5936,-4.2968 -1.8451,-1.9932 -2.7623,-4.6002 -2.7623,-7.366 0,-7.2108 6.1383,-12.1215 15.0389,-12.1215 6.4453,0 11.8181,2.1449 16.2701,6.7522 l -5.8349,5.2141 c -2.7623,-2.914 -6.2936,-4.2933 -10.4352,-4.2933 -4.4485,0 -7.0626,1.6862 -7.0626,4.4485 0,2.4553 1.5381,3.5278 6.9074,4.759 5.835,1.2276 9.6732,2.4518 12.125,3.683 3.8382,1.9932 6.2935,6.1383 6.2935,10.8973 0,4.4485 -1.9932,7.8281 -6.1383,10.2799"
     style="fill:#ffffff;fill-opacity:1;fill-rule:nonzero;stroke:none"
     id="path3302" />
</svg>
