<?xml version="1.0" encoding="UTF-8" standalone="no"?>
<svg
   xmlns:dc="http://purl.org/dc/elements/1.1/"
   xmlns:cc="http://creativecommons.org/ns#"
   xmlns:rdf="http://www.w3.org/1999/02/22-rdf-syntax-ns#"
   xmlns:svg="http://www.w3.org/2000/svg"
   xmlns="http://www.w3.org/2000/svg"
   xmlns:sodipodi="http://sodipodi.sourceforge.net/DTD/sodipodi-0.dtd"
   xmlns:inkscape="http://www.inkscape.org/namespaces/inkscape"
   width="81.595718"
   height="81.595718"
   viewBox="0 0 230.28125 230.28124"
   version="1.1"
   id="svg2"
   inkscape:version="0.48.2 r9819"
   sodipodi:docname="MUTCD D9-11.svg">
  <metadata
     id="metadata62">
    <rdf:RDF>
      <cc:Work
         rdf:about="">
        <dc:format>image/svg+xml</dc:format>
        <dc:type
           rdf:resource="http://purl.org/dc/dcmitype/StillImage" />
        <dc:title></dc:title>
      </cc:Work>
    </rdf:RDF>
  </metadata>
  <defs
     id="defs60" />
  <sodipodi:namedview
     pagecolor="#ffffff"
     bordercolor="#666666"
     borderopacity="1"
     objecttolerance="10"
     gridtolerance="10"
     guidetolerance="10"
     inkscape:pageopacity="0"
     inkscape:pageshadow="2"
     inkscape:window-width="1280"
     inkscape:window-height="1004"
     id="namedview58"
     showgrid="false"
     fit-margin-top="0"
     fit-margin-left="0"
     fit-margin-right="0"
     fit-margin-bottom="0"
     inkscape:zoom="3.8704158"
     inkscape:cx="30.16135"
     inkscape:cy="19.412365"
     inkscape:window-x="-8"
     inkscape:window-y="-8"
     inkscape:window-maximized="1"
     inkscape:current-layer="svg2"
     showguides="true"
     inkscape:guide-bbox="true" />
  <polygon
     points="315,205 395,375 315,545 235,375 "
     id="polygon10"
     style="fill:none;stroke:#ffffff;stroke-width:40"
     transform="translate(-3032.9376,16738.813)" />
  <!-- draw the bicycle -->
  <!-- RIGHT -->
  <!-- LANE -->
  <!-- ONLY -->
  <path
     inkscape:connector-curvature="0"
     d="m 21.17474,0.84536805 187.92119,0 c 11.18659,0 20.34117,9.15450005 20.34117,20.33759995 l 0,187.924702 c 0,11.1866 -9.15458,20.33771 -20.34117,20.33771 l -187.92119,0 c -11.18658,0 -20.33764,-9.15111 -20.33764,-20.33772 l 0,-187.924692 C 0.8371,9.9998681 9.98816,0.84536805 21.17474,0.84536805"
     style="fill:#ffffff;fill-opacity:1;fill-rule:nonzero;stroke:#000000;stroke-width:1.69333334;stroke-miterlimit:4;stroke-opacity:1;stroke-dasharray:none"
     id="path3924" />
  <path
     inkscape:connector-curvature="0"
     d="m 21.17474,5.9249681 187.9212,0 c 8.39611,0 15.26469,6.8685999 15.26469,15.2575999 l 0,187.924802 c 0,8.39608 -6.86858,15.2611 -15.26469,15.2611 l -187.9212,0 c -8.38905,0 -15.25411,-6.86502 -15.25411,-15.2611 l 0,-187.924802 c 0,-8.389 6.86506,-15.2575999 15.25411,-15.2575999"
     style="fill:#155196;fill-opacity:1;fill-rule:evenodd;stroke:none"
     id="path3948" />
  <path
     d="m 36.996864,197.34502 40.611778,0 0,-170.134141 0.05292,-0.0071 c 0,-3.806472 3.164416,-6.875638 6.970888,-6.875638 0.02455,0 0.01778,-0.03528 0.03175,-0.03528 l 61.12934,-0.03881 c 3.78177,0 6.91091,3.182056 6.95325,6.960306 l 0,11.786305 16.52764,13.553722 c 3.06563,2.310695 5.07294,5.983112 5.26697,9.800167 -0.0104,23.847778 0,45.286083 0,64.106773 0,21.50181 12.75291,37.73664 12.75291,54.0632 0,8.20208 -6.73452,14.88722 -14.88369,14.88722 -6.87564,0 -13.29619,-5.40456 -15.14475,-12.14261 -2.9069,-10.61507 -1.32998,-66.46333 -1.45345,-78.8035 l -3.10798,0 0,92.87934 37.16514,0 0,13.40909 -152.872716,0 0,-13.40909 z"
     style="fill:#ffffff;fill-opacity:1;fill-rule:evenodd;stroke:none"
     id="path3218"
     inkscape:connector-curvature="0" />
  <path
     d="m 163.66948,99.780797 c 0,-3.122084 -2.54705,-5.669139 -5.60564,-5.669139 l -5.51039,-0.22225 0,-44.446473 3.23145,2.483556 0,17.723556 10.86555,-0.0071 c 0.15875,20.154194 0.32456,40.308393 0.47978,60.462583 0.0317,20.06247 11.54995,37.79661 11.89214,49.35361 0.11289,3.83822 -3.13267,6.97089 -6.97794,6.97089 -1.96145,0 -4.58964,-0.99836 -6.2477,-3.7465 -4.67078,-7.76464 -2.04964,-72.84156 -2.12725,-82.902777"
     style="fill:#155196;fill-opacity:1;fill-rule:evenodd;stroke:none"
     id="path3222"
     inkscape:connector-curvature="0" />
  <path
     d="m 92.249272,29.884935 45.660028,0 c 2.46239,0 4.46616,2.014361 4.46616,4.473223 l 0,34.872083 c 0,2.458861 -2.00377,4.469694 -4.46616,4.469694 l -45.660028,0 c -2.458861,0 -4.473222,-2.010833 -4.473222,-4.469694 l 0,-34.872083 c 0,-2.458862 2.014361,-4.473223 4.473222,-4.473223"
     style="fill:#155196;fill-opacity:1;fill-rule:evenodd;stroke:none"
     id="path3226"
     inkscape:connector-curvature="0" />
  <path
     d="m 129.97991,109.01299 -6.68514,-3.60539 c -1.73566,2.93864 -4.54025,4.4062 -7.61294,4.4062 -5.47511,0 -8.94997,-4.67431 -8.94997,-12.156726 0,-7.348361 3.47486,-12.022666 8.94997,-12.022666 3.07269,0 5.87728,1.337027 7.61294,4.272139 l 6.68514,-3.605389 c -2.67405,-5.210528 -8.01511,-8.283223 -14.0335,-8.283223 -10.01536,0 -16.831024,7.881056 -16.831024,19.639139 0,10.018886 5.478634,19.797886 16.566444,19.797886 6.54756,0 10.95728,-3.09739 14.29808,-8.44197"
     style="fill:#155196;fill-opacity:1;fill-rule:evenodd;stroke:none"
     id="path3230"
     inkscape:connector-curvature="0" />
  <path
     d="m 130.71369,159.90472 0,-38.21289 -7.48242,0 0,23.38564 -15.76916,-23.38564 -7.47889,0 0,38.21289 7.47889,0 0,-24.45103 16.70403,24.45103 6.54755,0 z"
     style="fill:#155196;fill-opacity:1;fill-rule:evenodd;stroke:none"
     id="path3234"
     inkscape:connector-curvature="0" />
  <path
     d="m 129.97991,183.90419 -13.09511,0 0,7.61294 4.54378,0 c -1.33703,2.94217 -3.74297,4.54378 -6.68161,4.54378 -6.54756,0 -7.88458,-6.68161 -7.88458,-12.15672 0,-5.34811 1.33702,-12.0262 7.88458,-12.0262 3.07269,0 5.47864,1.60162 6.68161,4.54378 l 7.08025,-2.67405 c -2.40242,-5.74323 -7.21783,-9.48267 -13.76186,-9.48267 -11.08781,0 -15.631584,9.75078 -15.631584,19.63914 0,9.88483 4.543774,19.79436 15.631584,19.79436 11.75455,0 14.69672,-10.17764 15.23294,-19.79436"
     style="fill:#155196;fill-opacity:1;fill-rule:evenodd;stroke:none"
     id="path3238"
     inkscape:connector-curvature="0" />
</svg>
