<?xml version="1.0" encoding="UTF-8" standalone="no"?>
<svg
   xmlns:dc="http://purl.org/dc/elements/1.1/"
   xmlns:cc="http://creativecommons.org/ns#"
   xmlns:rdf="http://www.w3.org/1999/02/22-rdf-syntax-ns#"
   xmlns:svg="http://www.w3.org/2000/svg"
   xmlns="http://www.w3.org/2000/svg"
   xmlns:sodipodi="http://sodipodi.sourceforge.net/DTD/sodipodi-0.dtd"
   xmlns:inkscape="http://www.inkscape.org/namespaces/inkscape"
   width="81.595718"
   height="81.595718"
   viewBox="0 0 230.28125 230.28124"
   version="1.1"
   id="svg2"
   inkscape:version="0.48.2 r9819"
   sodipodi:docname="AJAX1.svg">
  <metadata
     id="metadata62">
    <rdf:RDF>
      <cc:Work
         rdf:about="">
        <dc:format>image/svg+xml</dc:format>
        <dc:type
           rdf:resource="http://purl.org/dc/dcmitype/StillImage" />
        <dc:title />
      </cc:Work>
    </rdf:RDF>
  </metadata>
  <defs
     id="defs60">
    <clipPath
       clipPathUnits="userSpaceOnUse"
       id="clipPath3564">
      <path
         inkscape:connector-curvature="0"
         d="m 63,43 512.622,0 0,313.129 L 63,356.129 63,43 z"
         id="path3566" />
    </clipPath>
  </defs>
  <sodipodi:namedview
     pagecolor="#ffffff"
     bordercolor="#666666"
     borderopacity="1"
     objecttolerance="10"
     gridtolerance="10"
     guidetolerance="10"
     inkscape:pageopacity="0"
     inkscape:pageshadow="2"
     inkscape:window-width="1280"
     inkscape:window-height="1004"
     id="namedview58"
     showgrid="false"
     fit-margin-top="0"
     fit-margin-left="0"
     fit-margin-right="0"
     fit-margin-bottom="0"
     inkscape:zoom="3.8704159"
     inkscape:cx="82.893678"
     inkscape:cy="21.245461"
     inkscape:window-x="-8"
     inkscape:window-y="-8"
     inkscape:window-maximized="1"
     inkscape:current-layer="svg2"
     showguides="true"
     inkscape:guide-bbox="true" />
  <polygon
     points="315,205 395,375 315,545 235,375 "
     id="polygon10"
     style="fill:none;stroke:#ffffff;stroke-width:40"
     transform="translate(28002.865,4907.8663)" />
  <!-- draw the bicycle -->
  <!-- RIGHT -->
  <!-- LANE -->
  <!-- ONLY -->
  <path
     inkscape:connector-curvature="0"
     d="m 21.10525,0.8444427 188.087,0 c 11.14072,0 20.2565,9.1157 20.2565,20.2565003 l 0,188.086997 c 0,11.1442 -9.11578,20.26 -20.2565,20.26 l -188.087,0 c -11.14072,0 -20.2565,-9.1158 -20.2565,-20.26 l 0,-188.086997 c 0,-11.1408003 9.11578,-20.2565003 20.2565,-20.2565003"
     style="fill:#ffffff;fill-opacity:1;fill-rule:nonzero;stroke:#000000;stroke-width:1.69333339;stroke-miterlimit:4;stroke-opacity:1;stroke-dasharray:none"
     id="path3070" />
  <path
     inkscape:connector-curvature="0"
     d="m 21.10525,6.6331427 188.087,0 c 7.95867,0 14.46742,6.5088003 14.46742,14.4674003 l 0,188.086997 c 0,7.9622 -6.50875,14.471 -14.46742,14.471 l -188.087,0 c -7.95866,0 -14.47094,-6.5088 -14.47094,-14.471 l 0,-188.086997 c 0,-7.9586 6.51228,-14.4674003 14.47094,-14.4674003"
     style="fill:#155196;fill-opacity:1;fill-rule:evenodd;stroke:none"
     id="path3078" />
  <path
     inkscape:connector-curvature="0"
     style="fill:#ffffff;fill-opacity:1;fill-rule:evenodd;stroke:none"
     d="m 131.32153,17.490098 c -3.65465,0.0094 -7.15213,0.02778 -10.31875,0.08819 -25.336502,0.47625 -62.988474,0.01764 -63.147224,13.846528 -0.183445,16.136054 0,42.104027 0,63.147221 l -16.845139,0 0,4.7625 60.765973,0 c 1.13594,-9.736667 5.99369,-16.305389 17.63889,-17.286111 12.83759,0.41275 17.04975,7.859889 18.87361,17.286111 l 24.42986,0 0,47.977778 -5.90902,0 8.20208,12.7 7.76111,-12.7882 -5.73264,0.0882 0,-47.977778 17.90347,0 c 4.55437,0.373945 6.17009,-1.608667 6.4382,-4.7625 0,-21.582944 0.0776,-47.356889 0,-64.822916 -0.0494,-10.698868 -34.47789,-12.324478 -60.06042,-12.259028 z m -58.561113,19.667362 25.840972,0 0,23.459721 -25.840972,0 0,-23.459721 z m 51.329173,0 50.97639,0 0,23.459721 -50.97639,0 0,-23.459721 z"
     id="path3310" />
  <path
     inkscape:connector-curvature="0"
     style="fill:#ffffff;fill-opacity:1;fill-rule:evenodd;stroke:none"
     d="m 120.03264,85.928987 c -7.57061,0 -13.75833,6.184194 -13.75833,13.758333 0,7.56355 6.18772,13.75833 13.75833,13.75833 7.56356,0 13.67014,-6.19478 13.67014,-13.75833 0,-7.574139 -6.10658,-13.758333 -13.67014,-13.758333 z m 0,7.14375 c 3.63714,0 6.61459,2.973916 6.61459,6.614583 0,3.64067 -2.97745,6.61458 -6.61459,6.61458 -3.64419,0 -6.61458,-2.97391 -6.61458,-6.61458 0,-3.640667 2.97039,-6.614583 6.61458,-6.614583 z"
     id="path3314" />
  <path
     d="m 53.616042,107.40699 c 0,-2.72698 -2.226028,-4.94595 -4.949473,-4.94595 -2.726972,0 -4.949472,2.21897 -4.949472,4.94595 0,2.72697 2.2225,4.94947 4.949472,4.94947 2.723445,0 4.949473,-2.2225 4.949473,-4.94947"
     style="fill:#ffffff;fill-opacity:1;fill-rule:evenodd;stroke:none"
     id="path3326"
     inkscape:connector-curvature="0" />
  <path
     d="m 157.12457,114.81179 -133.014862,0 c -2.162528,0 -3.933472,1.76742 -3.933472,3.92994 l 0,87.884 c 0,2.16606 1.770944,3.93348 3.933472,3.93348 l 183.141062,0 c 2.16605,0 3.93347,-1.76742 3.93347,-3.93348 l 0,-87.884 c 0,-2.16252 -1.76742,-3.92994 -3.93347,-3.92994 l -34.39584,0 0,21.95336 22.60248,0 c 1.80269,0 3.2773,1.47814 3.2773,3.27378 l 0,27.52019 c 0,1.80622 -1.47461,3.28084 -3.2773,3.28084 l -61.27045,0 c -1.79564,0 -3.27025,-1.47462 -3.27025,-3.28084 l 0,-27.52019 c 0,-1.79564 1.47461,-3.27378 3.27025,-3.27378 l 22.90586,0 0.0317,-21.95336 z"
     style="fill:#ffffff;fill-opacity:1;fill-rule:evenodd;stroke:none"
     id="path3330"
     inkscape:connector-curvature="0" />
</svg>
