<?xml version="1.0" encoding="UTF-8" standalone="no"?>
<svg
   xmlns:dc="http://purl.org/dc/elements/1.1/"
   xmlns:cc="http://creativecommons.org/ns#"
   xmlns:rdf="http://www.w3.org/1999/02/22-rdf-syntax-ns#"
   xmlns:svg="http://www.w3.org/2000/svg"
   xmlns="http://www.w3.org/2000/svg"
   xmlns:sodipodi="http://sodipodi.sourceforge.net/DTD/sodipodi-0.dtd"
   xmlns:inkscape="http://www.inkscape.org/namespaces/inkscape"
   width="192.15797"
   height="166.17003"
   viewBox="0 0 542.31251 468.96874"
   version="1.1"
   id="svg2"
   inkscape:version="0.48.2 r9819"
   sodipodi:docname="MUTCD D9-18b (exit number).svg">
  <metadata
     id="metadata62">
    <rdf:RDF>
      <cc:Work
         rdf:about="">
        <dc:format>image/svg+xml</dc:format>
        <dc:type
           rdf:resource="http://purl.org/dc/dcmitype/StillImage" />
        <dc:title></dc:title>
      </cc:Work>
    </rdf:RDF>
  </metadata>
  <defs
     id="defs60">
    <clipPath
       clipPathUnits="userSpaceOnUse"
       id="clipPath3564">
      <path
         inkscape:connector-curvature="0"
         d="m 63,43 512.622,0 0,313.129 L 63,356.129 63,43 z"
         id="path3566" />
    </clipPath>
  </defs>
  <sodipodi:namedview
     pagecolor="#ffffff"
     bordercolor="#666666"
     borderopacity="1"
     objecttolerance="10"
     gridtolerance="10"
     guidetolerance="10"
     inkscape:pageopacity="0"
     inkscape:pageshadow="2"
     inkscape:window-width="1280"
     inkscape:window-height="1004"
     id="namedview58"
     showgrid="false"
     fit-margin-top="0"
     fit-margin-left="0"
     fit-margin-right="0"
     fit-margin-bottom="0"
     inkscape:zoom="2.7367973"
     inkscape:cx="123.2036"
     inkscape:cy="127.78032"
     inkscape:window-x="-8"
     inkscape:window-y="-8"
     inkscape:window-maximized="1"
     inkscape:current-layer="svg2"
     showguides="true"
     inkscape:guide-bbox="true" />
  <polygon
     points="235,375 315,205 395,375 315,545 "
     id="polygon10"
     style="fill:none;stroke:#ffffff;stroke-width:40"
     transform="translate(25557.553,13558.397)" />
  <!-- draw the bicycle -->
  <!-- RIGHT -->
  <!-- LANE -->
  <!-- ONLY -->
  <path
     inkscape:connector-curvature="0"
     d="m 38.96686,467.56957 c -20.70453,0 -37.54614,-16.83809 -37.54614,-37.53909 l 0,-391.071806 c 0,-20.71158 16.84161,-37.5602499 37.54614,-37.5602499 l 464.39667,0 c 20.701,0 37.54261,16.8486699 37.54261,37.5602499 l 0,391.071806 c 0,20.701 -16.84161,37.53909 -37.54261,37.53909 l -464.39667,0 z"
     style="fill:#ffffff;fill-opacity:1;fill-rule:nonzero;stroke:#000000;stroke-width:2.82222223;stroke-miterlimit:4;stroke-opacity:1;stroke-dasharray:none"
     id="path4860" />
  <path
     inkscape:connector-curvature="0"
     d="m 38.96686,458.53843 c -3.82764,0 -7.54591,-0.75142 -11.049,-2.2472 -3.39725,-1.43933 -6.4523,-3.49955 -9.08755,-6.13833 -2.6282,-2.62819 -4.69548,-5.67972 -6.13481,-9.08403 -1.49225,-3.49955 -2.24719,-7.21783 -2.24719,-11.03841 l 0,-391.071806 c 0,-3.83117 0.75494,-7.55298 2.24719,-11.05253 1.43933,-3.40431 3.50661,-6.46289 6.13481,-9.0805 2.63525,-2.63172 5.6903,-4.70606 9.08755,-6.13834 3.50309,-1.4993 7.22136,-2.25072 11.049,-2.25072 l 464.39667,0 c 3.82411,0 7.54239,0.75142 11.05253,2.25072 3.39372,1.43228 6.44878,3.50662 9.07697,6.13834 2.63525,2.61761 4.699,5.67619 6.14186,9.0805 1.48872,3.49955 2.24014,7.22136 2.24014,11.05253 l 0,391.071806 c 0,3.82058 -0.75142,7.53886 -2.24014,11.03841 -1.44286,3.40431 -3.50661,6.45584 -6.14186,9.08403 -2.62819,2.63878 -5.68325,4.699 -9.07697,6.13833 -3.51014,1.49578 -7.22842,2.2472 -11.05253,2.2472 l -464.39667,0 z"
     style="fill:#155196;fill-opacity:1;fill-rule:nonzero;stroke:none"
     id="path4868" />
  <path
     inkscape:connector-curvature="0"
     d="m 133.84997,413.72862 0,-40.73172 29.83442,0 0,7.28839 -22.37317,0 0,7.57767 12.192,0 0,7.4295 -12.192,0 0,11.14777 23.09283,0 0,7.28839 -30.55408,0 z"
     style="fill:#ffffff;fill-opacity:1;fill-rule:nonzero;stroke:none"
     id="path4872" />
  <path
     inkscape:connector-curvature="0"
     d="m 372.21839,393.43682 0,5.28108 c 0,8.86531 -7.14375,15.73389 -16.15017,15.73389 -12.00855,0 -16.8663,-10.58686 -16.8663,-21.15961 0,-12.43542 6.72041,-21.02203 16.8663,-21.02203 7.29192,0 12.29431,3.8735 15.15181,10.14942 l -7.43303,2.58586 c -1.57339,-3.43253 -4.14161,-5.43631 -7.71878,-5.43631 -5.715,0 -9.57439,5.71147 -9.57439,13.72306 0,6.57578 1.99673,13.85711 9.57439,13.85711 4.00403,0 7.57767,-2.70581 8.5725,-6.43467 l -6.71336,0 0,-7.2778 14.29103,0 z"
     style="fill:#ffffff;fill-opacity:1;fill-rule:nonzero;stroke:none"
     id="path4876" />
  <path
     inkscape:connector-curvature="0"
     d="m 407.28413,413.72862 0,-17.72708 -18.37266,0 0,17.72708 -7.32014,0 0,-40.73172 7.32014,0 0,15.71625 18.37266,0 0,-15.71625 7.32367,0 0,40.73172 -7.32367,0 z"
     style="fill:#ffffff;fill-opacity:1;fill-rule:nonzero;stroke:none"
     id="path4880" />
  <path
     inkscape:connector-curvature="0"
     d="m 322.50142,372.99653 7.33778,0 0,40.73173 -7.33778,0 0,-40.73173 z"
     style="fill:#ffffff;fill-opacity:1;fill-rule:nonzero;stroke:none"
     id="path4882" />
  <path
     inkscape:connector-curvature="0"
     d="m 116.94311,413.72862 -19.52625,-28.00703 0,28.00703 -7.17197,0 0,-40.73172 7.17197,0 18.81011,26.87108 0,-26.87108 7.03439,0 0,40.73172 -6.31825,0 z"
     style="fill:#ffffff;fill-opacity:1;fill-rule:nonzero;stroke:none"
     id="path4886" />
  <path
     inkscape:connector-curvature="0"
     d="m 300.35473,380.28529 -11.73339,0 0,10.14942 11.73339,0 c 3.57011,0 5.85611,-2.00378 5.85611,-5.00945 0,-3.14325 -2.286,-5.13997 -5.85611,-5.13997 m 5.85611,33.44333 -6.57225,-16.01258 -11.01725,0 0,16.01258 -7.28486,0 0,-40.73172 18.87361,0 c 3.00567,0 4.85775,0.41981 6.99912,1.7145 3.86291,2.14136 6.2865,6.14539 6.2865,10.71386 0,4.57553 -2.42359,8.57956 -6.57225,10.87261 l 7.4295,17.43075 -8.14212,0 z"
     style="fill:#ffffff;fill-opacity:1;fill-rule:nonzero;stroke:none"
     id="path4890" />
  <path
     inkscape:connector-curvature="0"
     d="m 228.89324,380.14062 0,33.58797 -7.13669,0 0,-33.58797 -11.70869,0 0,-7.14375 30.55408,0 0,7.14375 -11.7087,0 z"
     style="fill:#ffffff;fill-opacity:1;fill-rule:nonzero;stroke:none"
     id="path4894" />
  <path
     inkscape:connector-curvature="0"
     d="m 440.37822,380.14062 0,33.58797 -7.1367,0 0,-33.58797 -11.70869,0 0,-7.14375 30.55408,0 0,7.14375 -11.70869,0 z"
     style="fill:#ffffff;fill-opacity:1;fill-rule:nonzero;stroke:none"
     id="path4898" />
  <path
     inkscape:connector-curvature="0"
     d="m 196.95416,413.72862 -9.18987,-14.43214 -9.04522,14.43214 -8.6113,0 13.34911,-21.44183 -12.19906,-19.28989 8.75947,0 7.747,12.42836 7.75406,-12.42836 8.75594,0 -12.05794,19.28989 13.34911,21.44183 -8.6113,0 z"
     style="fill:#ffffff;fill-opacity:1;fill-rule:nonzero;stroke:none"
     id="path4902" />
  <path
     inkscape:connector-curvature="0"
     d="m 70.13266,157.34737 24.56745,0 0,-102.933496 0.0317,0 c 0,-2.30011 1.91911,-4.15925 4.21216,-4.15925 0.0212,0 0.0178,-0.0282 0.0212,-0.0282 l 36.97817,-0.0141 c 2.286,0 4.18748,1.92969 4.21217,4.21569 l 0,7.11906 9.9942,8.20914 c 1.85561,1.40052 3.06916,3.6195 3.19263,5.92666 -0.007,14.42862 0,27.403776 0,38.777336 0,13.01397 7.71878,22.8353 7.71878,32.72366 0,4.94947 -4.07105,8.99231 -9.00994,8.99231 -4.16631,0 -8.03981,-3.27378 -9.15811,-7.34484 -1.76742,-6.42055 -0.81139,-40.21313 -0.87842,-47.67438 l -1.88383,0 0,56.19044 22.48252,0 0,8.09978 -92.48069,0 0,-8.09978 z"
     style="fill:#ffffff;fill-opacity:1;fill-rule:evenodd;stroke:none"
     id="path4906" />
  <path
     inkscape:connector-curvature="0"
     d="m 146.76728,98.324094 c 0,-1.89442 -1.53811,-3.429 -3.39372,-3.429 l -3.32669,-0.127 0,-26.89225 1.9438,1.50636 0,10.70681 6.57225,0 c 0.0988,12.18847 0.19756,24.380466 0.28928,36.572466 0.0318,12.13908 6.99911,22.87058 7.19667,29.85206 0.0705,2.33891 -1.89795,4.24038 -4.2157,4.24038 -1.1818,0 -2.77636,-0.60677 -3.77825,-2.27541 -2.82575,-4.70253 -1.24178,-44.07253 -1.28764,-50.154416"
     style="fill:#155196;fill-opacity:1;fill-rule:evenodd;stroke:none"
     id="path4910" />
  <path
     inkscape:connector-curvature="0"
     d="m 103.55694,56.040174 27.61898,0 c 1.48872,0 2.71286,1.22062 2.71286,2.6917 l 0,21.11375 c 0,1.48872 -1.22414,2.70933 -2.71286,2.70933 l -27.61898,0 c -1.49225,0 -2.70933,-1.22061 -2.70933,-2.70933 l 0,-21.11375 c 0,-1.47108 1.21708,-2.6917 2.70933,-2.6917"
     style="fill:#155196;fill-opacity:1;fill-rule:evenodd;stroke:none"
     id="path4914" />
  <path
     inkscape:connector-curvature="0"
     d="m 124.65128,204.81009 c -2.10609,0.11995 -4.17336,0.34572 -6.21242,0.87842 -2.34597,0.62442 -4.572,1.54869 -6.62164,2.85044 -1.70392,1.06892 -3.23497,2.29306 -4.66725,3.66184 l -5.46805,22.00628 c -2.05317,8.31144 -3.34433,16.8028 -3.70064,25.36472 -0.13406,3.34786 -0.11289,6.68514 0.0423,10.033 0.17992,4.38503 0.53269,8.75241 1.07597,13.10216 0.17639,1.397 0.4445,2.79048 0.81492,4.15925 l 7.39422,27.46375 c 1.70039,1.11831 3.43958,2.12725 5.29872,2.97745 2.14136,0.98778 4.39209,1.77447 6.69925,2.30717 1.9297,0.42686 3.85586,0.69144 5.82084,0.82902 l -7.06261,-30.84689 c -1.24884,-0.27516 -2.45181,-0.77258 -3.46428,-1.56986 -0.82903,-0.67733 -2.31422,-2.20133 -2.31422,-3.39725 l 0,-41.1233 c 0,-2.19781 1.34055,-4.08517 3.05505,-5.35517 1.05128,-0.79022 2.2472,-1.27 3.52778,-1.54164 l 5.78203,-31.79939 z"
     style="fill:#ffffff;fill-opacity:1;fill-rule:evenodd;stroke:none"
     id="path4918" />
  <path
     inkscape:connector-curvature="0"
     d="m 133.09714,318.84548 c 0.61736,-0.20122 1.03011,-0.64205 1.37584,-1.17122 0.25752,-0.39511 0.38452,-0.84667 0.38452,-1.31586 -0.0175,-0.39511 -0.06,-0.82197 -0.15875,-1.19239 l -6.25122,-25.95386 c -0.18697,-0.77964 -0.19755,-1.143 -0.9525,-1.60161 -0.46214,-0.28575 -1.06186,-0.47978 -1.60161,-0.31397 l -4.96005,1.45344 7.0485,31.20672 5.11527,-1.11125 z"
     style="fill:#ffffff;fill-opacity:1;fill-rule:evenodd;stroke:none"
     id="path4922" />
  <path
     inkscape:connector-curvature="0"
     d="m 121.90387,236.61654 4.49086,0.98072 c 0.26811,0.0318 0.5327,0.0423 0.79375,0.06 0.38453,0.06 0.77611,0 1.10772,-0.22225 0.59267,-0.39158 0.84314,-0.93486 0.99131,-1.60514 l 5.45042,-26.31722 c 0.0882,-0.40922 0.10583,-0.81139 -0.0564,-1.21003 -0.14111,-0.37041 -0.34925,-0.74436 -0.61383,-1.06539 -0.38453,-0.45861 -0.97367,-0.83255 -1.56986,-0.93839 l -4.826,-0.79727 -5.76792,31.115 z"
     style="fill:#ffffff;fill-opacity:1;fill-rule:evenodd;stroke:none"
     id="path4926" />
  <path
     inkscape:connector-curvature="0"
     d="m 271.15743,50.028844 c 31.84173,0 57.82381,25.9715 57.82381,57.802636 0,31.84878 -25.98208,57.8097 -57.82381,57.8097 -31.82761,0 -57.80616,-25.96092 -57.80616,-57.8097 0,-31.831136 25.97855,-57.802636 57.80616,-57.802636"
     style="fill:#ffffff;fill-opacity:1;fill-rule:evenodd;stroke:none"
     id="path4930" />
  <path
     inkscape:connector-curvature="0"
     d="m 263.61293,156.83581 c 0.007,2.74814 -1.00542,3.39373 -2.89631,3.41137 -1.88383,0.007 -3.22439,-0.66323 -3.23144,-3.41137 -0.0353,-21.49827 0,-43.00714 0,-64.512466 -4.99534,-3.88761 -6.67809,-9.36625 -5.61975,-16.16781 1.08303,-6.24063 2.15547,-12.49186 3.2385,-18.72544 0.24341,-0.0317 0.49741,-0.0529 0.74789,-0.0811 0.0141,7.64822 0.0459,15.3035 0.0741,22.94467 l 1.28411,0 c 0.47272,-7.64117 0.9525,-15.29645 1.43228,-22.94467 l 0.72672,0 c 0.15522,7.6835 0.31397,15.34936 0.47272,23.02581 0.45156,-0.0212 0.90311,-0.0388 1.36878,-0.0811 0.35631,-7.64117 0.74083,-15.29645 1.1042,-22.94467 l 0.73025,0 c 0.28575,7.62 0.57855,15.24353 0.86783,22.87411 l 1.68628,0 c -0.0246,-7.63058 -0.0529,-15.25411 -0.0776,-22.87411 l 0.78669,0 c 1.04422,6.26886 2.08844,12.52714 3.12561,18.78894 0.49036,7.49653 -0.96661,13.33148 -5.91255,16.23131 0.0248,21.484166 0.0529,42.982446 0.0917,64.466606"
     style="fill:#155196;fill-opacity:1;fill-rule:evenodd;stroke:none"
     id="path4934" />
  <path
     inkscape:connector-curvature="0"
     d="m 285.9822,57.341904 0,99.543296 c -0.44097,2.02495 -1.30175,2.63173 -3.21028,2.70581 -1.91558,0.06 -3.175,-0.54328 -3.25614,-2.68817 l 0,-49.6958 c 0.16934,-3.16442 -0.0248,-6.29003 -2.86455,-9.193386 -1.36525,-0.91723 -2.09197,-2.68817 -2.21192,-5.3587 0.0882,-9.79311 0.16933,-19.5968 0.24695,-29.38992 -0.06,-6.66044 6.69572,-6.34294 11.29594,-5.92313"
     style="fill:#155196;fill-opacity:1;fill-rule:evenodd;stroke:none"
     id="path4938" />
  <path
     inkscape:connector-curvature="0"
     d="m 317.64226,320.24957 0,-115.25603 -22.63775,0 0,41.62778 -47.68498,0 0,-41.62778 -22.63422,0 0,115.25603 22.63422,0 0,-50.58834 47.68498,0 0,50.58834 22.63775,0 z"
     style="fill:#ffffff;fill-opacity:1;fill-rule:evenodd;stroke:none"
     id="path4942" />
  <path
     inkscape:connector-curvature="0"
     d="m 378.9843,100.20087 c 0,-4.198056 3.42547,-7.623526 7.63411,-7.623526 4.19806,0 7.63059,3.42547 7.63059,7.623526 0,4.20511 -3.43253,7.64117 -7.63059,7.64117 -4.20864,0 -7.63411,-3.43606 -7.63411,-7.64117"
     style="fill:#ffffff;fill-opacity:1;fill-rule:evenodd;stroke:none"
     id="path4946" />
  <path
     inkscape:connector-curvature="0"
     d="m 375.3648,135.00592 -9.57792,0 0,-54.341886 9.57792,0 0,30.532916 101.18372,0 0,-17.593026 9.57439,0 0,41.401996 -9.57439,0 0,-10.60097 -101.18372,0 0,10.60097 z"
     style="fill:#ffffff;fill-opacity:1;fill-rule:evenodd;stroke:none"
     id="path4950" />
  <path
     inkscape:connector-curvature="0"
     d="m 398.39766,107.84206 c 0.58914,-7.67644 3.61245,-13.553716 15.26822,-12.943406 14.40039,-0.0811 28.80431,-0.16228 43.21528,-0.254 11.66636,0.0706 14.25223,6.191246 15.52928,13.197406 l -74.01278,0 z"
     style="fill:#ffffff;fill-opacity:1;fill-rule:evenodd;stroke:none"
     id="path4954" />
  <path
     inkscape:connector-curvature="0"
     d="m 399.38191,211.00837 22.34847,0 c 6.731,0 11.31006,3.78883 11.31006,9.70492 0,5.64444 -4.57906,9.41211 -11.31006,9.41211 l -22.34847,0 0,-19.11703 z m 66.56564,89.98303 -14.605,-22.87764 c 0,0 -0.25061,-0.39511 -0.59267,-0.93486 l 11.75456,-18.94417 -9.77194,0 -6.97795,11.2642 c -2.42711,-3.50309 -12.14614,-17.51542 -18.08692,-26.08087 2.54353,-0.39863 4.78367,-1.12183 7.26723,-2.5153 7.26369,-4.02167 11.83922,-12.12145 11.83922,-20.18947 0,-8.62895 -4.57553,-16.16781 -11.83922,-20.20359 -4.32859,-2.40947 -7.81403,-3.23144 -13.7407,-3.23144 l -35.81047,0 0,76.73975 13.99822,0 0,-30.15897 13.03867,0 c 8.56192,12.43189 25.2483,36.6783 25.28005,36.73828 0.0169,0.0141 0.25767,0.39511 0.55739,0.889 l -12.50597,19.48744 9.92717,0 7.41186,-11.77572 c 1.85561,2.8575 7.6588,11.79336 7.6588,11.79336 l 15.19767,0 z"
     style="fill:#ffffff;fill-opacity:1;fill-rule:nonzero;stroke:none"
     id="path4958" />
  <path
     inkscape:connector-curvature="0"
     d="m 385.45777,327.9754 c 0.12333,-1.71097 0.25062,-2.59292 0.6985,-3.79589 0.75495,-2.21192 2.21545,-4.09928 4.10634,-5.37633 0.69144,-0.49742 1.58397,-0.88195 2.46944,-1.25942 l 0.69497,-0.32456 0.63148,-0.18683 0.635,-0.24694 c 1.00541,-0.4445 1.63688,-1.07245 1.63688,-1.70392 0,-1.07244 -1.44991,-1.83797 -3.53836,-1.83797 -1.83797,0 -3.03389,0.44097 -4.8013,1.83797 l -2.53295,-2.66347 c 1.20298,-0.87842 1.76389,-1.26294 2.58586,-1.64042 1.4605,-0.75141 3.10798,-1.13947 4.87539,-1.13947 2.27895,0 4.29684,0.62795 5.49981,1.76742 0.9525,0.88547 1.45697,2.02847 1.45697,3.53836 0,2.65994 -1.64042,4.49439 -5.12586,5.70089 -2.01789,0.75141 -2.52942,1.00541 -3.47133,1.95439 -0.57503,0.56797 -0.95603,1.06891 -1.32998,1.76741 l 10.11767,0 0,3.60892 -14.60853,0 z"
     style="fill:#ffffff;fill-opacity:1;fill-rule:nonzero;stroke:none"
     id="path4962" />
  <path
     inkscape:connector-curvature="0"
     d="m 419.41263,323.98545 0,-3.3408 -2.71991,0 0,-10.74914 -3.54189,0 -10.5657,10.74914 0,3.3408 10.5657,0 0,3.98992 3.54189,0 0,-3.98992 2.71991,0 z m -6.2618,-3.3408 -5.87728,0 5.87728,-5.88433 0,5.88433 z"
     style="fill:#ffffff;fill-opacity:1;fill-rule:nonzero;stroke:none"
     id="path4966" />
  <path
     inkscape:connector-curvature="0"
     d="m 443.38036,327.9754 0,-7.89517 -7.46478,0 0,7.89517 -3.54189,0 0,-18.01636 3.54189,0 0,6.50875 7.46478,0 0,-6.50875 3.53836,0 0,18.01636 -3.53836,0 z"
     style="fill:#ffffff;fill-opacity:1;fill-rule:nonzero;stroke:none"
     id="path4970" />
  <path
     inkscape:connector-curvature="0"
     d="m 466.52261,327.9754 -2.84339,-7.64822 c 1.64042,-1.08303 2.59292,-2.84692 2.59292,-4.80484 0,-2.02847 -1.0795,-3.85939 -2.85045,-4.86833 -1.00542,-0.5715 -1.76742,-0.75847 -3.28436,-0.75847 l -8.16328,0 0,18.07986 3.54895,0 0,-6.76628 4.7378,0 2.47297,6.76628 3.78884,0 z m -3.78884,-12.45306 c 0,1.26295 -0.94897,2.08139 -2.27894,2.08139 l -4.93183,0 0,-4.10986 4.93183,0 c 1.32997,0 2.27894,0.88195 2.27894,2.02847"
     style="fill:#ffffff;fill-opacity:1;fill-rule:nonzero;stroke:none"
     id="path4974" />
</svg>
