<?xml version="1.0" encoding="UTF-8" standalone="no"?>
<svg
   xmlns:dc="http://purl.org/dc/elements/1.1/"
   xmlns:cc="http://creativecommons.org/ns#"
   xmlns:rdf="http://www.w3.org/1999/02/22-rdf-syntax-ns#"
   xmlns:svg="http://www.w3.org/2000/svg"
   xmlns="http://www.w3.org/2000/svg"
   xmlns:sodipodi="http://sodipodi.sourceforge.net/DTD/sodipodi-0.dtd"
   xmlns:inkscape="http://www.inkscape.org/namespaces/inkscape"
   width="81.595718"
   height="81.595718"
   viewBox="0 0 230.28125 230.28124"
   version="1.1"
   id="svg2"
   inkscape:version="0.48.2 r9819"
   sodipodi:docname="AJAX1.svg">
  <metadata
     id="metadata62">
    <rdf:RDF>
      <cc:Work
         rdf:about="">
        <dc:format>image/svg+xml</dc:format>
        <dc:type
           rdf:resource="http://purl.org/dc/dcmitype/StillImage" />
        <dc:title></dc:title>
      </cc:Work>
    </rdf:RDF>
  </metadata>
  <defs
     id="defs60" />
  <sodipodi:namedview
     pagecolor="#ffffff"
     bordercolor="#666666"
     borderopacity="1"
     objecttolerance="10"
     gridtolerance="10"
     guidetolerance="10"
     inkscape:pageopacity="0"
     inkscape:pageshadow="2"
     inkscape:window-width="1280"
     inkscape:window-height="1004"
     id="namedview58"
     showgrid="false"
     fit-margin-top="0"
     fit-margin-left="0"
     fit-margin-right="0"
     fit-margin-bottom="0"
     inkscape:zoom="3.8704158"
     inkscape:cx="30.16135"
     inkscape:cy="19.412365"
     inkscape:window-x="-8"
     inkscape:window-y="-8"
     inkscape:window-maximized="1"
     inkscape:current-layer="svg2"
     showguides="true"
     inkscape:guide-bbox="true" />
  <polygon
     points="315,205 395,375 315,545 235,375 "
     id="polygon10"
     style="fill:none;stroke:#ffffff;stroke-width:40"
     transform="translate(-3032.9376,16738.813)" />
  <!-- draw the bicycle -->
  <!-- RIGHT -->
  <!-- LANE -->
  <!-- ONLY -->
  <path
     inkscape:connector-curvature="0"
     d="m 21.17474,0.84536805 187.92119,0 c 11.18659,0 20.34117,9.15450005 20.34117,20.33759995 l 0,187.924702 c 0,11.1866 -9.15458,20.33771 -20.34117,20.33771 l -187.92119,0 c -11.18658,0 -20.33764,-9.15111 -20.33764,-20.33772 l 0,-187.924692 C 0.8371,9.9998681 9.98816,0.84536805 21.17474,0.84536805"
     style="fill:#ffffff;fill-opacity:1;fill-rule:nonzero;stroke:#000000;stroke-width:1.69333334;stroke-miterlimit:4;stroke-opacity:1;stroke-dasharray:none"
     id="path3924" />
  <path
     inkscape:connector-curvature="0"
     d="m 21.17474,5.9249681 187.9212,0 c 8.39611,0 15.26469,6.8685999 15.26469,15.2575999 l 0,187.924802 c 0,8.39608 -6.86858,15.2611 -15.26469,15.2611 l -187.9212,0 c -8.38905,0 -15.25411,-6.86502 -15.25411,-15.2611 l 0,-187.924802 c 0,-8.389 6.86506,-15.2575999 15.25411,-15.2575999"
     style="fill:#155196;fill-opacity:1;fill-rule:evenodd;stroke:none"
     id="path3948" />
  <path
     inkscape:connector-curvature="0"
     d="m 128.96141,19.812068 c -3.47134,0.1693 -6.8827,0.5715 -10.25173,1.4534 -3.88761,1.0196 -7.5565,2.5471 -10.95727,4.6849 -2.80106,1.7569 -5.31989,3.7924 -7.70114,6.0643 l -9.02406,36.3502 c -3.40077,13.7301 -5.52802,27.7671 -6.11011,41.910022 -0.22225,5.521 -0.18344,11.0525 0.06,16.5806 0.31045,7.2354 0.87842,14.4533 1.78153,21.63937 0.29281,2.32123 0.73731,4.6213 1.34761,6.8791 l 12.20611,45.3567 c 2.81164,1.83788 5.69384,3.5207 8.74889,4.9318 3.54895,1.6369 7.26017,2.921 11.08428,3.78881 3.17853,0.73028 6.37822,1.15011 9.61672,1.36529 l -11.66636,-50.9411 c -2.07433,-0.4657 -4.05694,-1.26652 -5.72911,-2.61062 -1.36525,-1.10068 -3.82411,-3.62648 -3.82411,-5.6021 l 0,-67.920272 c 0,-3.6477 2.2225,-6.7486 5.06236,-8.8688 1.73567,-1.2877 3.69711,-2.092 5.80672,-2.533 l 9.5497,-52.5286 z"
     style="fill:#ffffff;fill-opacity:1;fill-rule:evenodd;stroke:none"
     id="path3952" />
  <path
     inkscape:connector-curvature="0"
     d="m 142.93493,208.18835 c 0.99836,-0.31746 1.70392,-1.0548 2.25778,-1.92966 0.43039,-0.6668 0.64206,-1.38293 0.62795,-2.16964 -0.0141,-0.6526 -0.0952,-1.3476 -0.25048,-1.97909 l -10.31875,-42.86251 c -0.31044,-1.27699 -0.33161,-1.8768 -1.58397,-2.6458 -0.76553,-0.4833 -1.75683,-0.8008 -2.64583,-0.5362 l -8.1915,2.3812 11.63814,51.5832 8.46666,-1.8415 z"
     style="fill:#ffffff;fill-opacity:1;fill-rule:evenodd;stroke:none"
     id="path3956" />
  <path
     inkscape:connector-curvature="0"
     d="m 124.42432,72.370668 7.4295,1.5804 c 0.43744,0.056 0.87136,0.099 1.3088,0.1376 0.62795,0.064 1.29117,-0.021 1.83445,-0.381 0.97719,-0.6562 1.397,-1.5346 1.6263,-2.6564 l 9.00995,-43.4799 c 0.14111,-0.6702 0.17991,-1.3335 -0.0741,-1.979 -0.24694,-0.6315 -0.59266,-1.2559 -1.03364,-1.7745 -0.63852,-0.7726 -1.60513,-1.3794 -2.59644,-1.5452 l -7.96219,-1.3158 -9.54264,51.4138 z"
     style="fill:#ffffff;fill-opacity:1;fill-rule:evenodd;stroke:none"
     id="path3960" />
</svg>
