<?xml version="1.0" encoding="UTF-8" standalone="no"?>
<svg
   xmlns:dc="http://purl.org/dc/elements/1.1/"
   xmlns:cc="http://creativecommons.org/ns#"
   xmlns:rdf="http://www.w3.org/1999/02/22-rdf-syntax-ns#"
   xmlns:svg="http://www.w3.org/2000/svg"
   xmlns="http://www.w3.org/2000/svg"
   xmlns:sodipodi="http://sodipodi.sourceforge.net/DTD/sodipodi-0.dtd"
   xmlns:inkscape="http://www.inkscape.org/namespaces/inkscape"
   width="192.15797"
   height="122.87524"
   viewBox="0 0 542.31251 346.78122"
   version="1.1"
   id="svg2"
   inkscape:version="0.48.2 r9819"
   sodipodi:docname="MUTCD D9-18.svg">
  <metadata
     id="metadata62">
    <rdf:RDF>
      <cc:Work
         rdf:about="">
        <dc:format>image/svg+xml</dc:format>
        <dc:type
           rdf:resource="http://purl.org/dc/dcmitype/StillImage" />
        <dc:title></dc:title>
      </cc:Work>
    </rdf:RDF>
  </metadata>
  <defs
     id="defs60">
    <clipPath
       clipPathUnits="userSpaceOnUse"
       id="clipPath3564">
      <path
         inkscape:connector-curvature="0"
         d="m 63,43 512.622,0 0,313.129 L 63,356.129 63,43 z"
         id="path3566" />
    </clipPath>
  </defs>
  <sodipodi:namedview
     pagecolor="#ffffff"
     bordercolor="#666666"
     borderopacity="1"
     objecttolerance="10"
     gridtolerance="10"
     guidetolerance="10"
     inkscape:pageopacity="0"
     inkscape:pageshadow="2"
     inkscape:window-width="1280"
     inkscape:window-height="1004"
     id="namedview58"
     showgrid="false"
     fit-margin-top="0"
     fit-margin-left="0"
     fit-margin-right="0"
     fit-margin-bottom="0"
     inkscape:zoom="1.9352079"
     inkscape:cx="12.48751"
     inkscape:cy="38.676281"
     inkscape:window-x="-8"
     inkscape:window-y="-8"
     inkscape:window-maximized="1"
     inkscape:current-layer="svg2"
     showguides="true"
     inkscape:guide-bbox="true" />
  <polygon
     points="395,375 315,545 235,375 315,205 "
     id="polygon10"
     style="fill:none;stroke:#ffffff;stroke-width:40"
     transform="translate(25922.115,11075.429)" />
  <!-- draw the bicycle -->
  <!-- RIGHT -->
  <!-- LANE -->
  <!-- ONLY -->
  <path
     inkscape:connector-curvature="0"
     d="m 38.96345,345.37373 c -20.7046,0 -37.5497,-16.8416 -37.5497,-37.5426 l 0,-268.866097 c 0,-20.701 16.8451,-37.5461002 37.5497,-37.5461002 l 464.3931,0 c 20.7045,0 37.5462,16.8451002 37.5462,37.5461002 l 0,268.866097 c 0,20.701 -16.8417,37.5426 -37.5462,37.5426 l -464.3931,0 z"
     style="fill:#ffffff;fill-opacity:1;fill-rule:nonzero;stroke:#000000;stroke-width:2.82222223;stroke-miterlimit:4;stroke-opacity:1;stroke-dasharray:none"
     id="path4978" />
  <path
     id="path5557"
     style="fill:#155196;fill-opacity:1;fill-rule:nonzero;stroke:none"
     d="m 38.96345,338.37813 c -4.1064,0 -8.0963,-0.8079 -11.8498,-2.4024 -3.6372,-1.5487 -6.9039,-3.7606 -9.7261,-6.5793 -2.8187,-2.8117 -5.0271,-6.0854 -6.5793,-9.7226 -1.5946,-3.7606 -2.4024,-7.7434 -2.4024,-11.8427 l 0,-268.866097 c 0,-4.1028 0.8078,-8.0892 2.4024,-11.8463 1.5522,-3.6371 3.7606,-6.9073 6.5793,-9.7225 2.8222,-2.8187 6.0889,-5.0306 9.7261,-6.5793 3.7535,-1.5946002 7.7434,-2.4024002 11.8498,-2.4024002 l 464.3931,0 c 4.0993,0 8.0857,0.8078 11.8428,2.4024002 3.6442,1.5487 6.9144,3.7606 9.7296,6.5793 2.8151,2.8152 5.0306,6.0854 6.5687,9.7225 1.5946,3.7571 2.4024,7.7435 2.4024,11.8463 l 0,268.866097 c 0,4.0993 -0.8078,8.0821 -2.4024,11.8427 -1.5381,3.6372 -3.7536,6.9109 -6.5687,9.7226 -2.8152,2.8187 -6.0854,5.0306 -9.7296,6.5793 -3.7571,1.5945 -7.7435,2.4024 -11.8428,2.4024 l -464.3931,0 z"
     inkscape:connector-curvature="0" />
  <path
     id="path5559"
     style="fill:#ffffff;fill-opacity:1;fill-rule:nonzero;stroke:none"
     d="m 196.04155,273.82333 -5.722,13.7266 11.4335,0 -5.7115,-13.7266 z m 12.8553,30.5894 -4.0041,-9.578 -17.7165,0 -4.0005,9.578 -8.001,0 17.145,-40.7388 7.426,0 17.0039,40.7388 -7.8528,0 z"
     inkscape:connector-curvature="0" />
  <path
     id="path5561"
     style="fill:#ffffff;fill-opacity:1;fill-rule:nonzero;stroke:none"
     d="m 153.74705,305.12523 c -10.7174,0 -17.2932,-8.4313 -17.2932,-21.1525 0,-12.8623 6.5758,-21.0115 17.2932,-21.0115 6.5758,0 12.5801,3.2879 15.7233,9.0029 l -6.4346,3.4326 c -1.136,-1.7181 -1.7145,-2.286 -2.854,-3.0022 -1.5699,-1.2841 -4.2898,-2.1449 -6.4347,-2.1449 -7.4295,0 -9.8672,7.292 -9.8672,13.5785 0,8.8617 3.7289,14.0123 9.8672,14.0123 3.7218,0 5.7185,-1.2912 9.2887,-5.1506 l 6.4346,3.4326 c -3.0021,5.715 -9.1475,9.0028 -15.7233,9.0028"
     inkscape:connector-curvature="0" />
  <path
     id="path5563"
     style="fill:#ffffff;fill-opacity:1;fill-rule:nonzero;stroke:none"
     d="m 405.85265,284.11733 0,5.2846 c 0,8.8653 -7.1438,15.7233 -16.1502,15.7233 -12.005,0 -16.8627,-10.5762 -16.8627,-21.1525 0,-12.4354 6.7204,-21.0115 16.8627,-21.0115 7.2919,0 12.2979,3.8559 15.1518,10.1495 l -7.4295,2.5717 c -1.5698,-3.4325 -4.1451,-5.4328 -7.7223,-5.4328 -5.7185,0 -9.5708,5.7186 -9.5708,13.7231 0,6.5793 1.9967,13.8677 9.5708,13.8677 4.0111,0 7.5742,-2.7164 8.5761,-6.4347 l -6.7169,0 0,-7.2884 14.291,0 z"
     inkscape:connector-curvature="0" />
  <path
     id="path5565"
     style="fill:#ffffff;fill-opacity:1;fill-rule:nonzero;stroke:none"
     d="m 312.52525,263.67353 7.3378,0 0,40.7388 -7.3378,0 0,-40.7388 z"
     inkscape:connector-curvature="0" />
  <path
     id="path5567"
     style="fill:#ffffff;fill-opacity:1;fill-rule:nonzero;stroke:none"
     d="m 254.81085,304.41263 0,-24.8708 -12.0438,24.8708 -11.9133,-24.8708 0,24.8708 -7.172,0 0,-40.7387 7.172,0 11.9133,24.1582 12.0438,-24.1582 7.1861,0 0,40.7387 -7.1861,0 z"
     inkscape:connector-curvature="0" />
  <path
     id="path5569"
     style="fill:#ffffff;fill-opacity:1;fill-rule:nonzero;stroke:none"
     d="m 357.15135,304.41263 -19.5192,-28.014 0,28.014 -7.1791,0 0,-40.7387 7.1791,0 18.803,26.8781 0,-26.8781 7.0344,0 0,40.7387 -6.3182,0 z"
     inkscape:connector-curvature="0" />
  <path
     id="path5571"
     style="fill:#ffffff;fill-opacity:1;fill-rule:nonzero;stroke:none"
     d="m 292.31465,270.96223 -12.3014,0 0,10.1495 12.3014,0 c 3.5736,0 6.0007,-2.0003 6.0007,-5.0024 0,-3.1468 -2.4271,-5.1471 -6.0007,-5.1471 m 7.0026,15.868 c -2.286,1.2876 -4.138,1.5734 -7.2848,1.5734 l -12.0192,0 0,16.009 -7.4295,0 0,-40.7387 19.4487,0 c 3.1468,0 4.9988,0.4303 7.2848,1.718 3.8559,2.1413 6.283,6.1454 6.283,10.7174 0,4.2898 -2.4271,8.5795 -6.283,10.7209"
     inkscape:connector-curvature="0" />
  <path
     id="path5573"
     style="fill:#ffffff;fill-opacity:1;fill-rule:nonzero;stroke:none"
     d="m 358.85555,200.56903 -5.7185,13.723 11.43,0 -5.7115,-13.723 z m 12.8553,30.5893 -3.997,-9.5779 -17.72,0 -4.0041,9.5779 -8.0045,0 17.1521,-40.7387 7.4295,0 17.0039,40.7387 -7.8599,0 z"
     inkscape:connector-curvature="0" />
  <path
     id="path5575"
     style="fill:#ffffff;fill-opacity:1;fill-rule:nonzero;stroke:none"
     d="m 150.95625,231.15833 0,-17.7235 -18.3692,0 0,17.7235 -7.3236,0 0,-40.7387 7.3236,0 0,15.7233 18.3692,0 0,-15.7233 7.3236,0 0,40.7387 -7.3236,0 z"
     inkscape:connector-curvature="0" />
  <path
     id="path5577"
     style="fill:#ffffff;fill-opacity:1;fill-rule:nonzero;stroke:none"
     d="m 289.91925,190.41923 7.3343,0 0,40.7388 -7.3343,0 0,-40.7388 z"
     inkscape:connector-curvature="0" />
  <path
     id="path5579"
     style="fill:#ffffff;fill-opacity:1;fill-rule:nonzero;stroke:none"
     d="m 386.49925,231.15833 0,-40.7387 7.3096,0 0,34.4487 23.2445,0 0,6.29 -30.5541,0 z"
     inkscape:connector-curvature="0" />
  <path
     id="path5581"
     style="fill:#ffffff;fill-opacity:1;fill-rule:nonzero;stroke:none"
     d="m 184.98515,196.99543 c -6.1665,0 -9.8848,5.1505 -9.8848,13.723 0,8.7207 3.7183,13.8642 9.8848,13.8642 7.74,0 9.592,-7.5777 9.592,-13.8642 0,-8.5725 -3.4325,-13.723 -9.592,-13.723 m 0,34.8756 c -12.0403,0 -17.339,-10.8621 -17.339,-21.1526 0,-13.0069 6.6005,-21.0114 17.339,-21.0114 10.026,0 16.9051,8.4314 16.9051,20.8668 0,12.7211 -6.5934,21.2972 -16.9051,21.2972"
     inkscape:connector-curvature="0" />
  <path
     id="path5583"
     style="fill:#ffffff;fill-opacity:1;fill-rule:nonzero;stroke:none"
     d="m 269.70825,197.71153 -12.3013,0 0,10.1494 12.3013,0 c 3.5772,0 6.0008,-2.0038 6.0008,-5.0059 0,-3.1433 -2.4236,-5.1435 -6.0008,-5.1435 m 6.9991,15.8679 c -2.286,1.2841 -4.1416,1.5699 -7.2813,1.5699 l -12.0191,0 0,16.009 -7.4366,0 0,-40.7387 19.4557,0 c 3.1397,0 4.9953,0.4268 7.2813,1.718 3.8559,2.1413 6.2901,6.1454 6.2901,10.7174 0,4.2897 -2.4342,8.576 -6.2901,10.7244"
     inkscape:connector-curvature="0" />
  <path
     id="path5585"
     style="fill:#ffffff;fill-opacity:1;fill-rule:nonzero;stroke:none"
     d="m 223.99885,212.87743 c -1.8097,-0.501 -6.3747,-1.5981 -7.9092,-2.4942 -3.0657,-1.7991 -5.4081,-4.7413 -5.4081,-9.0981 0,-6.7204 5.7467,-11.2924 14.0688,-11.2924 6.0289,0 11.049,2.0002 15.2117,6.29 l -5.4539,4.8578 c -2.5859,-2.7164 -5.8843,-3.997 -9.7578,-3.997 -4.1628,0 -6.6076,1.5663 -6.6076,4.1416 0,2.286 1.4323,3.2879 6.4664,4.4309 5.4505,1.143 9.0417,2.286 11.3313,3.429 3.5877,1.8556 5.8914,5.7185 5.8914,10.1459 0,4.1487 -1.8698,7.2954 -5.7468,9.5814 -2.8681,1.7145 -6.6005,2.7129 -10.3293,2.7129 -7.0379,0 -12.3543,-2.5718 -16.9439,-7.8634 l 5.8843,-4.572 c 3.0198,3.5771 6.3182,5.147 10.9079,5.147 5.1752,0 8.9041,-2.2895 8.9041,-5.2881 0,-3.8241 -4.1557,-4.3745 -10.5093,-6.1313"
     inkscape:connector-curvature="0" />
  <path
     id="path5587"
     style="fill:#ffffff;fill-opacity:1;fill-rule:nonzero;stroke:none"
     d="m 323.02005,197.57043 0,33.5879 -7.1367,0 0,-33.5879 -11.7087,0 0,-7.1508 30.5576,0 0,7.1508 -11.7122,0 z"
     inkscape:connector-curvature="0" />
  <path
     id="path5589"
     style="fill:#ffffff;fill-opacity:1;fill-rule:nonzero;stroke:none"
     d="m 330.77805,125.86443 c -1.8557,-1.0019 -3.997,-1.5699 -6.1348,-1.5699 l -6.1807,0 0,26.155 6.1807,0 c 2.1378,0 4.138,-0.5715 5.8525,-1.5734 4.2828,-2.286 6.276,-6.0007 6.276,-11.5746 0,-5.4328 -1.9932,-9.1476 -5.9937,-11.4371 m 3.4219,29.4428 c -2.8434,1.577 -6.2689,2.4307 -9.5567,2.4307 l -13.5996,0 0,-40.7353 13.5996,0 c 3.4254,0 6.7133,0.8573 9.7084,2.5753 6.283,3.5736 9.7084,9.7155 9.7084,17.7236 0,8.1456 -3.4254,14.4356 -9.8601,18.0057"
     inkscape:connector-curvature="0" />
  <path
     id="path5591"
     style="fill:#ffffff;fill-opacity:1;fill-rule:nonzero;stroke:none"
     d="m 385.21865,137.44293 0,5.2882 c 0,8.8653 -7.1473,15.7233 -16.1537,15.7233 -12.005,0 -16.8592,-10.5763 -16.8592,-21.1526 0,-12.4389 6.7133,-21.015 16.8592,-21.015 7.299,0 12.2943,3.8594 15.1554,10.1494 l -7.4331,2.5753 c -1.5769,-3.429 -4.1451,-5.4328 -7.7223,-5.4328 -5.7114,0 -9.5779,5.715 -9.5779,13.7231 0,6.5758 2.0073,13.8606 9.5779,13.8606 4.0041,0 7.5812,-2.7128 8.5796,-6.4311 l -6.7134,0 0,-7.2884 14.2875,0 z"
     inkscape:connector-curvature="0" />
  <path
     id="path5593"
     style="fill:#ffffff;fill-opacity:1;fill-rule:nonzero;stroke:none"
     d="m 487.91545,137.44293 0,5.2882 c 0,8.8653 -7.1473,15.7233 -16.1502,15.7233 -12.005,0 -16.8698,-10.5763 -16.8698,-21.1526 0,-12.4389 6.7239,-21.015 16.8698,-21.015 7.2955,0 12.2908,3.8594 15.1518,10.1494 l -7.4295,2.5753 c -1.5698,-3.429 -4.1486,-5.4328 -7.7223,-5.4328 -5.7185,0 -9.5708,5.715 -9.5708,13.7231 0,6.5758 1.9932,13.8606 9.5708,13.8606 4.0005,0 7.5706,-2.7128 8.5761,-6.4311 l -6.7169,0 0,-7.2884 14.291,0 z"
     inkscape:connector-curvature="0" />
  <path
     id="path5595"
     style="fill:#ffffff;fill-opacity:1;fill-rule:nonzero;stroke:none"
     d="m 394.58845,117.00263 7.3307,0 0,40.7353 -7.3307,0 0,-40.7353 z"
     inkscape:connector-curvature="0" />
  <path
     id="path5597"
     style="fill:#ffffff;fill-opacity:1;fill-rule:nonzero;stroke:none"
     d="m 231.17435,157.73823 0,-40.7352 7.3166,0 0,34.4487 23.2375,0 0,6.2865 -30.5541,0 z"
     inkscape:connector-curvature="0" />
  <path
     id="path5599"
     style="fill:#ffffff;fill-opacity:1;fill-rule:nonzero;stroke:none"
     d="m 439.21445,157.73823 -19.5192,-28.014 0,28.014 -7.179,0 0,-40.7352 7.179,0 18.8031,26.8746 0,-26.8746 7.0344,0 0,40.7352 -6.3183,0 z"
     inkscape:connector-curvature="0" />
  <path
     id="path5601"
     style="fill:#ffffff;fill-opacity:1;fill-rule:nonzero;stroke:none"
     d="m 284.76485,123.57733 c -6.1525,0 -9.8813,5.1471 -9.8813,13.7231 0,8.7171 3.7288,13.8606 9.8813,13.8606 7.7364,0 9.5991,-7.5706 9.5991,-13.8606 0,-8.576 -3.4431,-13.7231 -9.5991,-13.7231 m 0,34.8756 c -12.0297,0 -17.3355,-10.862 -17.3355,-21.1525 0,-13.0069 6.5934,-21.0115 17.3355,-21.0115 10.0224,0 16.9016,8.4314 16.9016,20.8669 0,12.7211 -6.5864,21.2971 -16.9016,21.2971"
     inkscape:connector-curvature="0" />
  <path
     id="path5603"
     style="fill:#ffffff;fill-opacity:1;fill-rule:nonzero;stroke:none"
     d="m 113.98155,127.15173 -5.7255,13.723 11.4335,0 -5.708,-13.723 z m 12.8517,30.5858 -4.004,-9.5779 -17.713,0 -3.9969,9.5779 -8.0081,0 17.1485,-40.7352 7.4331,0 17.0109,40.7352 -7.8705,0 z"
     inkscape:connector-curvature="0" />
  <path
     id="path5605"
     style="fill:#ffffff;fill-opacity:1;fill-rule:nonzero;stroke:none"
     d="m 87.41425,137.44293 0,5.2882 c 0,8.8653 -7.1508,15.7233 -16.1607,15.7233 -11.9945,0 -16.8628,-10.5763 -16.8628,-21.1526 0,-12.4389 6.7239,-21.015 16.8628,-21.015 7.2954,0 12.2978,3.8594 15.1553,10.1494 l -7.426,2.5753 c -1.5734,-3.429 -4.1557,-5.4328 -7.7293,-5.4328 -5.7115,0 -9.5744,5.715 -9.5744,13.7231 0,6.5758 2.0108,13.8606 9.5744,13.8606 4.0075,0 7.5847,-2.7128 8.5795,-6.4311 l -6.7133,0 0,-7.2884 14.2945,0 z"
     inkscape:connector-curvature="0" />
  <path
     id="path5607"
     style="fill:#ffffff;fill-opacity:1;fill-rule:nonzero;stroke:none"
     d="m 154.36055,139.46083 c -1.8098,-0.5009 -6.3712,-1.5981 -7.9022,-2.4977 -3.0727,-1.7991 -5.4187,-4.7378 -5.4187,-9.0946 0,-6.7169 5.7467,-11.2924 14.0723,-11.2924 6.029,0 11.0525,2.0003 15.2118,6.29 l -5.4504,4.8578 c -2.5824,-2.7164 -5.8914,-4.0005 -9.7614,-4.0005 -4.1628,0 -6.6075,1.5698 -6.6075,4.1451 0,2.286 1.4393,3.2879 6.4629,4.4274 5.4574,1.1465 9.0452,2.2895 11.3418,3.4325 3.5877,1.8556 5.8843,5.7185 5.8843,10.1494 0,4.1452 -1.8697,7.2884 -5.7397,9.5779 -2.8681,1.7145 -6.604,2.7164 -10.3329,2.7164 -7.0414,0 -12.3472,-2.5788 -16.9403,-7.8634 l 5.8772,-4.5755 c 3.0198,3.5736 6.3183,5.147 10.915,5.147 5.1682,0 8.9006,-2.2895 8.9006,-5.2881 0,-3.8277 -4.1628,-4.378 -10.5128,-6.1313"
     inkscape:connector-curvature="0" />
  <path
     id="path5609"
     style="fill:#ffffff;fill-opacity:1;fill-rule:nonzero;stroke:none"
     d="m 190.43595,133.72783 20.3694,0 0,7.2884 -20.3694,0 0,-7.2884 z"
     inkscape:connector-curvature="0" />
  <path
     id="path5611"
     style="fill:#ffffff;fill-opacity:1;fill-rule:nonzero;stroke:none"
     d="m 204.94185,52.536033 c -1.8592,-0.9983 -3.9935,-1.5698 -6.1383,-1.5698 l -6.1807,0 0,26.1549 6.1807,0 c 2.1448,0 4.1345,-0.568 5.8561,-1.5734 4.2792,-2.2825 6.2759,-6.0007 6.2759,-11.5746 0,-5.4293 -1.9967,-9.1476 -5.9937,-11.4371 m 3.4184,29.4464 c -2.8469,1.5734 -6.2724,2.4306 -9.5567,2.4306 l -13.6067,0 0,-40.7352 13.6067,0 c 3.429,0 6.7098,0.8572 9.7049,2.5717 6.2794,3.5737 9.7049,9.719 9.7049,17.7236 0,8.1456 -3.4255,14.4392 -9.8531,18.0093"
     inkscape:connector-curvature="0" />
  <path
     id="path5613"
     style="fill:#ffffff;fill-opacity:1;fill-rule:nonzero;stroke:none"
     d="m 70.40335,50.965133 0,8.2903 12.767,0 0,7.433 -12.767,0 0,17.7236 -7.4542,0 0,-40.7317 30.5505,0 0,7.2848 -23.0963,0 z"
     inkscape:connector-curvature="0" />
  <path
     id="path5615"
     style="fill:#ffffff;fill-opacity:1;fill-rule:nonzero;stroke:none"
     d="m 116.53955,50.252133 c -6.1665,0 -9.8848,5.1435 -9.8848,13.7196 0,8.7171 3.7183,13.8641 9.8848,13.8641 7.74,0 9.5991,-7.5776 9.5991,-13.8641 0,-8.5761 -3.4396,-13.7196 -9.5991,-13.7196 m 0,34.8756 c -12.0297,0 -17.3355,-10.862 -17.3355,-21.156 0,-13.007 6.5935,-21.0115 17.3355,-21.0115 10.026,0 16.9016,8.4349 16.9016,20.8704 0,12.7246 -6.5863,21.2971 -16.9016,21.2971"
     inkscape:connector-curvature="0" />
  <path
     id="path5617"
     style="fill:#ffffff;fill-opacity:1;fill-rule:nonzero;stroke:none"
     d="m 158.92195,50.252133 c -6.1559,0 -9.8848,5.1435 -9.8848,13.7196 0,8.7171 3.7289,13.8641 9.8848,13.8641 7.7364,0 9.6026,-7.5776 9.6026,-13.8641 0,-8.5761 -3.436,-13.7196 -9.6026,-13.7196 m 0,34.8756 c -12.0297,0 -17.3284,-10.862 -17.3284,-21.156 0,-13.007 6.5863,-21.0115 17.3284,-21.0115 10.0366,0 16.9016,8.4349 16.9016,20.8704 0,12.7246 -6.5793,21.2971 -16.9016,21.2971"
     inkscape:connector-curvature="0" />
  <path
     id="path5619"
     style="fill:#ffffff;fill-opacity:1;fill-rule:nonzero;stroke:none"
     d="m 448.86295,84.413033 0,-40.7352 29.838,0 0,7.2884 -22.3767,0 0,7.5776 12.1955,0 0,7.4331 -12.1955,0 0,11.1442 23.0928,0 0,7.2919 -30.5541,0 z"
     inkscape:connector-curvature="0" />
  <path
     id="path5621"
     style="fill:#ffffff;fill-opacity:1;fill-rule:nonzero;stroke:none"
     d="m 344.95585,84.413033 0,-17.7235 -18.3727,0 0,17.7235 -7.3237,0 0,-40.7352 7.3237,0 0,15.7197 18.3727,0 0,-15.7197 7.3236,0 0,40.7352 -7.3236,0 z"
     inkscape:connector-curvature="0" />
  <path
     id="path5623"
     style="fill:#ffffff;fill-opacity:1;fill-rule:nonzero;stroke:none"
     d="m 431.95785,84.413033 -19.5227,-28.0176 0,28.0176 -7.1755,0 0,-40.7352 7.1755,0 18.7995,26.8711 0,-26.8711 7.0379,0 0,40.7352 -6.3147,0 z"
     inkscape:connector-curvature="0" />
  <path
     id="path5625"
     style="fill:#ffffff;fill-opacity:1;fill-rule:nonzero;stroke:none"
     d="m 378.98475,50.252133 c -6.163,0 -9.8848,5.1435 -9.8848,13.7196 0,8.7171 3.7218,13.8641 9.8848,13.8641 7.7329,0 9.5991,-7.5776 9.5991,-13.8641 0,-8.5761 -3.4361,-13.7196 -9.5991,-13.7196 m 0,34.8756 c -12.0332,0 -17.332,-10.862 -17.332,-21.156 0,-13.007 6.5864,-21.0115 17.332,-21.0115 10.0259,0 16.9051,8.4349 16.9051,20.8704 0,12.7246 -6.5934,21.2971 -16.9051,21.2971"
     inkscape:connector-curvature="0" />
  <path
     id="path5627"
     style="fill:#ffffff;fill-opacity:1;fill-rule:nonzero;stroke:none"
     d="m 299.05235,50.965133 -12.3049,0 0,10.1459 12.3049,0 c 3.5701,0 6.0043,-1.9967 6.0043,-4.9989 0,-3.1432 -2.4342,-5.147 -6.0043,-5.147 m 6.9991,15.8644 c -2.286,1.2877 -4.1487,1.5734 -7.2849,1.5734 l -12.0191,0 0,16.0091 -7.426,0 0,-40.7317 19.4451,0 c 3.1362,0 4.9989,0.4268 7.2849,1.7109 3.8629,2.1414 6.2865,6.1489 6.2865,10.7209 0,4.2863 -2.4236,8.5761 -6.2865,10.7174"
     inkscape:connector-curvature="0" />
  <path
     id="path5629"
     style="fill:#ffffff;fill-opacity:1;fill-rule:nonzero;stroke:none"
     d="m 238.59015,60.399433 20.3623,0 0,7.2884 -20.3623,0 0,-7.2884 z"
     inkscape:connector-curvature="0" />
</svg>
