<?xml version="1.0" encoding="UTF-8" standalone="no"?>
<svg
   xmlns:dc="http://purl.org/dc/elements/1.1/"
   xmlns:cc="http://creativecommons.org/ns#"
   xmlns:rdf="http://www.w3.org/1999/02/22-rdf-syntax-ns#"
   xmlns:svg="http://www.w3.org/2000/svg"
   xmlns="http://www.w3.org/2000/svg"
   xmlns:sodipodi="http://sodipodi.sourceforge.net/DTD/sodipodi-0.dtd"
   xmlns:inkscape="http://www.inkscape.org/namespaces/inkscape"
   width="81.595718"
   height="81.595718"
   viewBox="0 0 230.28125 230.28124"
   version="1.1"
   id="svg2"
   inkscape:version="0.48.2 r9819"
   sodipodi:docname="MUTCD D9-9.svg">
  <metadata
     id="metadata62">
    <rdf:RDF>
      <cc:Work
         rdf:about="">
        <dc:format>image/svg+xml</dc:format>
        <dc:type
           rdf:resource="http://purl.org/dc/dcmitype/StillImage" />
        <dc:title></dc:title>
      </cc:Work>
    </rdf:RDF>
  </metadata>
  <defs
     id="defs60" />
  <sodipodi:namedview
     pagecolor="#ffffff"
     bordercolor="#666666"
     borderopacity="1"
     objecttolerance="10"
     gridtolerance="10"
     guidetolerance="10"
     inkscape:pageopacity="0"
     inkscape:pageshadow="2"
     inkscape:window-width="1280"
     inkscape:window-height="1004"
     id="namedview58"
     showgrid="false"
     fit-margin-top="0"
     fit-margin-left="0"
     fit-margin-right="0"
     fit-margin-bottom="0"
     inkscape:zoom="3.8704158"
     inkscape:cx="30.16135"
     inkscape:cy="19.412365"
     inkscape:window-x="-8"
     inkscape:window-y="-8"
     inkscape:window-maximized="1"
     inkscape:current-layer="svg2"
     showguides="true"
     inkscape:guide-bbox="true" />
  <polygon
     points="315,205 395,375 315,545 235,375 "
     id="polygon10"
     style="fill:none;stroke:#ffffff;stroke-width:40"
     transform="translate(-3032.9376,16738.813)" />
  <!-- draw the bicycle -->
  <!-- RIGHT -->
  <!-- LANE -->
  <!-- ONLY -->
  <path
     inkscape:connector-curvature="0"
     d="m 21.17474,0.84536805 187.92119,0 c 11.18659,0 20.34117,9.15450005 20.34117,20.33759995 l 0,187.924702 c 0,11.1866 -9.15458,20.33771 -20.34117,20.33771 l -187.92119,0 c -11.18658,0 -20.33764,-9.15111 -20.33764,-20.33772 l 0,-187.924692 C 0.8371,9.9998681 9.98816,0.84536805 21.17474,0.84536805"
     style="fill:#ffffff;fill-opacity:1;fill-rule:nonzero;stroke:#000000;stroke-width:1.69333334;stroke-miterlimit:4;stroke-opacity:1;stroke-dasharray:none"
     id="path3924" />
  <path
     inkscape:connector-curvature="0"
     d="m 21.17474,5.9249681 187.9212,0 c 8.39611,0 15.26469,6.8685999 15.26469,15.2575999 l 0,187.924802 c 0,8.39608 -6.86858,15.2611 -15.26469,15.2611 l -187.9212,0 c -8.38905,0 -15.25411,-6.86502 -15.25411,-15.2611 l 0,-187.924802 c 0,-8.389 6.86506,-15.2575999 15.25411,-15.2575999"
     style="fill:#155196;fill-opacity:1;fill-rule:evenodd;stroke:none"
     id="path3948" />
  <path
     d="m 42.470104,192.98469 38.611528,0 0,-161.776835 0.05644,-0.0071 c 0,-3.623028 3.005667,-6.533445 6.621639,-6.533445 0.02822,0 0.02117,-0.04233 0.03528,-0.04233 l 58.116609,-0.03528 c 3.59833,0 6.57578,3.030361 6.61458,6.625167 l 0.007,11.204222 15.71272,12.886972 c 2.91395,2.201333 4.82247,5.690306 5.01297,9.316861 -0.0141,22.680084 0,43.067109 0,60.959999 0,20.447 12.12145,35.88455 12.12145,51.40678 0,7.80344 -6.40292,14.15697 -14.1605,14.15697 -6.52992,0 -12.6365,-5.13997 -14.39334,-11.54642 -2.76225,-10.08944 -1.26647,-63.20013 -1.38288,-74.93352 l -2.95628,0 0,88.31791 35.3448,0 0,12.75292 -145.362078,0 0,-12.75292 z"
     style="fill:#ffffff;fill-opacity:1;fill-rule:evenodd;stroke:none"
     id="path3156"
     inkscape:connector-curvature="0" />
  <path
     d="m 95.002243,33.75491 43.412837,0 c 2.34244,0 4.25802,1.908527 4.25802,4.247444 l 0,33.164639 c 0,2.335389 -1.91558,4.247445 -4.25802,4.247445 l -43.412837,0 c -2.335389,0 -4.250972,-1.912056 -4.250972,-4.247445 l 0,-33.164639 c 0,-2.338917 1.915583,-4.247444 4.250972,-4.247444"
     style="fill:#155196;fill-opacity:1;fill-rule:evenodd;stroke:none"
     id="path3164"
     inkscape:connector-curvature="0" />
  <path
     d="m 129.81083,140.49488 c 0,9.15106 -5.24934,14.57325 -13.89239,14.57325 l -6.096,0 0,-29.13944 6.096,0 c 8.64305,0 13.89239,5.41867 13.89239,14.56619 m 9.48619,0 c 0,-14.56619 -9.32039,-24.22172 -23.88658,-24.22172 l -15.0742,0 0,48.44697 15.0742,0 c 14.40039,0 23.88658,-9.48619 23.88658,-24.22525"
     style="fill:#155196;fill-opacity:1;fill-rule:evenodd;stroke:none"
     id="path3168"
     inkscape:connector-curvature="0" />
  <path
     d="m 162.9119,100.2073 c 0,-2.966858 -2.42005,-5.383386 -5.32694,-5.386913 l -5.23522,-0.211667 0,-42.262778 3.06564,2.367139 0,16.852194 10.33286,-0.01411 c 0.15169,19.162889 0.30339,38.329305 0.45508,57.499245 0.0353,19.07823 10.9855,35.94101 11.30653,46.92298 0.11289,3.65125 -2.97392,6.63575 -6.62517,6.63575 -1.86972,0 -4.37092,-0.9525 -5.94078,-3.56658 -4.445,-7.38011 -1.95791,-69.26087 -2.032,-78.83526"
     style="fill:#155196;fill-opacity:1;fill-rule:evenodd;stroke:none"
     id="path3160"
     inkscape:connector-curvature="0" />
</svg>
