<?xml version="1.0" encoding="UTF-8" standalone="no"?>
<svg
   xmlns:dc="http://purl.org/dc/elements/1.1/"
   xmlns:cc="http://creativecommons.org/ns#"
   xmlns:rdf="http://www.w3.org/1999/02/22-rdf-syntax-ns#"
   xmlns:svg="http://www.w3.org/2000/svg"
   xmlns="http://www.w3.org/2000/svg"
   xmlns:sodipodi="http://sodipodi.sourceforge.net/DTD/sodipodi-0.dtd"
   xmlns:inkscape="http://www.inkscape.org/namespaces/inkscape"
   width="81.595718"
   height="41.102364"
   viewBox="0 0 230.28125 115.99999"
   version="1.1"
   id="svg2"
   inkscape:version="0.48.2 r9819"
   sodipodi:docname="MUTCD D9-13aP.svg">
  <metadata
     id="metadata62">
    <rdf:RDF>
      <cc:Work
         rdf:about="">
        <dc:format>image/svg+xml</dc:format>
        <dc:type
           rdf:resource="http://purl.org/dc/dcmitype/StillImage" />
        <dc:title></dc:title>
      </cc:Work>
    </rdf:RDF>
  </metadata>
  <defs
     id="defs60" />
  <sodipodi:namedview
     pagecolor="#ffffff"
     bordercolor="#666666"
     borderopacity="1"
     objecttolerance="10"
     gridtolerance="10"
     guidetolerance="10"
     inkscape:pageopacity="0"
     inkscape:pageshadow="2"
     inkscape:window-width="1280"
     inkscape:window-height="1004"
     id="namedview58"
     showgrid="false"
     fit-margin-top="0"
     fit-margin-left="0"
     fit-margin-right="0"
     fit-margin-bottom="0"
     inkscape:zoom="5.9341336"
     inkscape:cx="48.097208"
     inkscape:cy="2.4367676"
     inkscape:window-x="-8"
     inkscape:window-y="-8"
     inkscape:window-maximized="1"
     inkscape:current-layer="svg2"
     showguides="true"
     inkscape:guide-bbox="true" />
  <polygon
     points="315,205 395,375 315,545 235,375 "
     id="polygon10"
     style="fill:none;stroke:#ffffff;stroke-width:40"
     transform="translate(195.3124,19958.781)" />
  <!-- draw the bicycle -->
  <!-- RIGHT -->
  <!-- LANE -->
  <!-- ONLY -->
  <path
     d="m 21.17136,0.85258403 187.92472,0 c 11.18658,0 20.33764,9.15104997 20.33764,20.33410997 l 0,73.62825 c 0,11.183056 -9.15106,20.337636 -20.33764,20.337636 l -187.92472,0 c -11.18305,0 -20.33411,-9.15458 -20.33411,-20.337636 l 0,-73.62825 c 0,-11.18306 9.15106,-20.33410997 20.33411,-20.33410997"
     style="fill:#ffffff;fill-opacity:1;fill-rule:nonzero;stroke:#000000;stroke-width:1.69333315;stroke-miterlimit:4;stroke-opacity:1;stroke-dasharray:none"
     id="path3496"
     inkscape:connector-curvature="0" />
  <path
     d="m 21.17136,5.929054 187.92472,0 c 8.39611,0 15.26116,6.86506 15.26116,15.25764 l 0,73.62825 c 0,8.392576 -6.86505,15.261166 -15.26116,15.261166 l -187.92472,0 c -8.38905,0 -15.25411,-6.86859 -15.25411,-15.261166 l 0,-73.62825 c 0,-8.39258 6.86506,-15.25764 15.25411,-15.25764"
     style="fill:#155196;fill-opacity:1;fill-rule:evenodd;stroke:none"
     id="path3504"
     inkscape:connector-curvature="0" />
  <path
     d="m 30.97613,28.242244 -2.00731,8.21973 4.11339,0 -2.10608,-8.21973 z m 5.11528,20.05542 -2.00731,-7.82461 -6.11717,0 -1.905,7.82461 -4.11338,0 7.12258,-28.57853 4.01108,0 7.11906,28.57853 -4.10986,0 z"
     style="fill:#ffffff;fill-opacity:1;fill-rule:nonzero;stroke:none"
     id="path3508"
     inkscape:connector-curvature="0" />
  <path
     d="m 58.85861,48.297664 0,-16.04786 -5.31636,16.04786 -5.31636,-16.04786 0,16.04786 -4.10986,0 0,-28.57853 4.10986,0 5.31636,16.04081 5.31636,-16.04081 4.10986,0 0,28.57853 -4.10986,0 z"
     style="fill:#ffffff;fill-opacity:1;fill-rule:nonzero;stroke:none"
     id="path3512"
     inkscape:connector-curvature="0" />
  <path
     d="m 77.41472,35.357774 -4.11339,0 0,8.92528 4.11339,0 c 2.30717,0 3.81,-1.60161 3.81,-4.10986 0,-2.70581 -1.70391,-4.81542 -3.81,-4.81542 m 0.19756,-11.63108 -4.31095,0 0,7.62 4.31095,0 c 1.90853,0 3.1115,-1.60514 3.1115,-4.20864 0,-2.40947 -0.90311,-3.41136 -3.1115,-3.41136 m 0,24.57097 -8.42081,0 0,-28.57853 9.02406,0 c 3.81,0 6.51933,3.00214 6.51933,7.41892 0,2.6035 -0.70203,3.81 -3.00919,6.21594 2.20839,1.80623 3.51014,4.21217 3.51014,7.11906 0,4.31094 -3.41137,7.82461 -7.62353,7.82461"
     style="fill:#ffffff;fill-opacity:1;fill-rule:nonzero;stroke:none"
     id="path3516"
     inkscape:connector-curvature="0" />
  <path
     d="m 104.99488,44.783994 c -1.40405,2.30717 -4.11339,4.01462 -6.81919,4.01462 -2.80811,0 -5.61622,-1.60162 -7.02027,-4.01462 -0.80434,-1.50283 -1.1042,-2.70933 -1.1042,-5.01297 l 0,-20.05189 4.11339,0 0,20.55636 c 0,2.70228 1.60161,4.5085 4.01108,4.5085 2.20486,0 3.81,-1.80622 3.81,-4.5085 l 0,-20.55636 4.11339,0 0,20.05189 c 0,2.30364 -0.30339,3.51014 -1.1042,5.01297"
     style="fill:#ffffff;fill-opacity:1;fill-rule:nonzero;stroke:none"
     id="path3520"
     inkscape:connector-curvature="0" />
  <path
     d="m 112.31855,48.297664 0,-28.57853 4.10986,0 0,24.76853 10.43164,0 0,3.81 -14.5415,0 z"
     style="fill:#ffffff;fill-opacity:1;fill-rule:nonzero;stroke:none"
     id="path3524"
     inkscape:connector-curvature="0" />
  <path
     d="m 137.69386,28.242244 -2.00731,8.21973 4.10986,0 -2.10255,-8.21973 z m 5.11175,20.05542 -2.00378,-7.82461 -6.11717,0 -1.905,7.82461 -4.11339,0 7.11906,-28.57853 4.01108,0 7.12258,28.57853 -4.11338,0 z"
     style="fill:#ffffff;fill-opacity:1;fill-rule:nonzero;stroke:none"
     id="path3528"
     inkscape:connector-curvature="0" />
  <path
     d="m 163.76766,48.297664 -8.82297,-19.15583 0,19.15583 -4.11339,0 0,-28.57853 4.11339,0 7.82108,17.145 0,-17.145 4.11339,0 0,28.57853 -3.1115,0 z"
     style="fill:#ffffff;fill-opacity:1;fill-rule:nonzero;stroke:none"
     id="path3532"
     inkscape:connector-curvature="0" />
  <path
     d="m 184.42985,27.339134 c -0.39863,-2.81164 -1.50283,-4.11339 -3.40783,-4.11339 -3.30905,0 -4.51555,2.60703 -4.51555,10.02595 0,8.22678 1.40405,11.5323 4.91419,11.5323 2.40594,0 3.00919,-2.00377 3.00919,-4.10986 l 4.10987,0 c -0.0988,4.71664 -3.10798,8.12448 -7.11906,8.12448 -6.11717,0 -8.82297,-4.91773 -8.82297,-15.44462 0,-9.22513 2.90689,-14.13933 8.52311,-14.13933 2.30717,0 4.31094,1.00189 5.61622,2.90689 1.1042,1.40758 1.50283,2.60703 1.8027,5.21758 l -4.10987,0 z"
     style="fill:#ffffff;fill-opacity:1;fill-rule:nonzero;stroke:none"
     id="path3536"
     inkscape:connector-curvature="0" />
  <path
     d="m 194.26177,48.297664 0,-28.57853 13.43731,0 0,4.00756 -9.32745,0 0,7.22136 5.91961,0 0,3.91231 -5.91961,0 0,9.42269 10.43164,0 0,4.01461 -14.5415,0 z"
     style="fill:#ffffff;fill-opacity:1;fill-rule:nonzero;stroke:none"
     id="path3540"
     inkscape:connector-curvature="0" />
  <path
     d="m 61.65261,96.405974 c -5.01297,0 -8.02217,-4.21217 -8.02217,-8.92528 l 4.01109,0 c 0,2.40594 1.20297,4.91066 4.01108,4.91066 2.20839,0 4.01108,-2.00377 4.01108,-4.31094 0,-1.60514 -0.59972,-2.80811 -2.30716,-4.11339 -0.59972,-0.59619 1.00541,0.50447 -4.81189,-3.40783 -2.30717,-1.60514 -3.51014,-3.81 -3.51014,-6.31825 0,-4.10986 3.21028,-7.42245 7.32014,-7.42245 4.01461,0 7.11905,3.10798 7.22136,7.42245 l -3.91231,0 c -0.0988,-2.00731 -1.50283,-3.30906 -3.30905,-3.30906 -1.905,0 -3.40783,1.40759 -3.40783,3.30906 0,1.40405 0.59972,2.20839 2.7058,3.40783 5.51745,3.21381 7.92339,6.31825 7.92339,10.43164 0,4.61081 -3.51014,8.32556 -7.92339,8.32556"
     style="fill:#ffffff;fill-opacity:1;fill-rule:nonzero;stroke:none"
     id="path3544"
     inkscape:connector-curvature="0" />
  <path
     d="m 81.51047,71.132974 0,24.76852 -4.10986,0 0,-24.76852 -5.21405,0 0,-3.81 14.5415,0 0,3.81 -5.21759,0 z"
     style="fill:#ffffff;fill-opacity:1;fill-rule:nonzero;stroke:none"
     id="path3548"
     inkscape:connector-curvature="0" />
  <path
     d="m 97.45956,75.846084 -2.00731,8.22325 4.11339,0 -2.10608,-8.22325 z m 5.11527,20.05541 -2.00731,-7.82108 -6.11716,0 -1.905,7.82108 -4.11339,0 7.12259,-28.57852 4.01108,0 7.11905,28.57852 -4.10986,0 z"
     style="fill:#ffffff;fill-opacity:1;fill-rule:nonzero;stroke:none"
     id="path3552"
     inkscape:connector-curvature="0" />
  <path
     d="m 117.71958,71.132974 0,24.76852 -4.11339,0 0,-24.76852 -5.21406,0 0,-3.81 14.5415,0 0,3.81 -5.21405,0 z"
     style="fill:#ffffff;fill-opacity:1;fill-rule:nonzero;stroke:none"
     id="path3556"
     inkscape:connector-curvature="0" />
  <path
     d="m 126.84735,67.321204 4.01108,0 0,28.57853 -4.01108,0 0,-28.57853 z"
     style="fill:#ffffff;fill-opacity:1;fill-rule:nonzero;stroke:none"
     id="path3558"
     inkscape:connector-curvature="0" />
  <path
     d="m 148.6088,74.438494 c -0.70203,-2.50472 -1.80622,-3.60891 -3.51014,-3.60891 -1.80622,0 -2.90689,1.10419 -3.61244,3.51366 -0.6985,2.20486 -0.89959,4.10986 -0.89959,7.31661 0,3.1115 0.29986,4.91773 0.89959,7.22137 0.70555,2.40947 1.80622,3.51013 3.61244,3.51013 1.70392,0 2.80811,-1.10066 3.51014,-3.51013 0.70203,-2.30364 0.90311,-4.01109 0.90311,-7.31662 0,-3.21027 -0.30339,-5.0165 -0.90311,-7.12611 m 3.21028,17.04975 c -1.40406,3.41136 -3.51014,4.91773 -6.72042,4.91773 -3.40783,0 -5.41514,-1.50637 -6.81919,-4.91773 -1.20298,-2.80811 -1.60514,-5.51391 -1.60514,-9.92364 0,-4.31447 0.40216,-7.22136 1.60514,-9.93069 1.50283,-3.40783 3.51014,-4.81542 6.81919,-4.81542 3.30906,0 5.31636,1.40759 6.72042,4.9142 1.19944,2.81164 1.60161,5.51744 1.60161,9.83191 0,4.40973 -0.40217,7.21784 -1.60161,9.92364"
     style="fill:#ffffff;fill-opacity:1;fill-rule:nonzero;stroke:none"
     id="path3562"
     inkscape:connector-curvature="0" />
  <path
     d="m 172.0791,95.901494 -8.82649,-19.1523 0,19.1523 -4.10987,0 0,-28.57852 4.10987,0 7.82461,17.14852 0,-17.14852 4.10986,0 0,28.57852 -3.10798,0 z"
     style="fill:#ffffff;fill-opacity:1;fill-rule:nonzero;stroke:none"
     id="path3566"
     inkscape:connector-curvature="0" />
</svg>
