<?xml version="1.0" encoding="UTF-8" standalone="no"?>
<svg
   xmlns:dc="http://purl.org/dc/elements/1.1/"
   xmlns:cc="http://creativecommons.org/ns#"
   xmlns:rdf="http://www.w3.org/1999/02/22-rdf-syntax-ns#"
   xmlns:svg="http://www.w3.org/2000/svg"
   xmlns="http://www.w3.org/2000/svg"
   xmlns:sodipodi="http://sodipodi.sourceforge.net/DTD/sodipodi-0.dtd"
   xmlns:inkscape="http://www.inkscape.org/namespaces/inkscape"
   width="81.595718"
   height="81.595718"
   viewBox="0 0 230.28125 230.28124"
   version="1.1"
   id="svg2"
   inkscape:version="0.48.2 r9819"
   sodipodi:docname="AJAX1.svg">
  <metadata
     id="metadata62">
    <rdf:RDF>
      <cc:Work
         rdf:about="">
        <dc:format>image/svg+xml</dc:format>
        <dc:type
           rdf:resource="http://purl.org/dc/dcmitype/StillImage" />
        <dc:title />
      </cc:Work>
    </rdf:RDF>
  </metadata>
  <defs
     id="defs60">
    <clipPath
       clipPathUnits="userSpaceOnUse"
       id="clipPath3564">
      <path
         inkscape:connector-curvature="0"
         d="m 63,43 512.622,0 0,313.129 L 63,356.129 63,43 z"
         id="path3566" />
    </clipPath>
  </defs>
  <sodipodi:namedview
     pagecolor="#ffffff"
     bordercolor="#666666"
     borderopacity="1"
     objecttolerance="10"
     gridtolerance="10"
     guidetolerance="10"
     inkscape:pageopacity="0"
     inkscape:pageshadow="2"
     inkscape:window-width="1280"
     inkscape:window-height="1004"
     id="namedview58"
     showgrid="false"
     fit-margin-top="0"
     fit-margin-left="0"
     fit-margin-right="0"
     fit-margin-bottom="0"
     inkscape:zoom="3.8704159"
     inkscape:cx="82.893678"
     inkscape:cy="21.245461"
     inkscape:window-x="-8"
     inkscape:window-y="-8"
     inkscape:window-maximized="1"
     inkscape:current-layer="svg2"
     showguides="true"
     inkscape:guide-bbox="true" />
  <polygon
     points="315,205 395,375 315,545 235,375 "
     id="polygon10"
     style="fill:none;stroke:#ffffff;stroke-width:40"
     transform="translate(28002.865,4907.8663)" />
  <!-- draw the bicycle -->
  <!-- RIGHT -->
  <!-- LANE -->
  <!-- ONLY -->
  <path
     inkscape:connector-curvature="0"
     d="m 21.10525,0.8444427 188.087,0 c 11.14072,0 20.2565,9.1157 20.2565,20.2565003 l 0,188.086997 c 0,11.1442 -9.11578,20.26 -20.2565,20.26 l -188.087,0 c -11.14072,0 -20.2565,-9.1158 -20.2565,-20.26 l 0,-188.086997 c 0,-11.1408003 9.11578,-20.2565003 20.2565,-20.2565003"
     style="fill:#ffffff;fill-opacity:1;fill-rule:nonzero;stroke:#000000;stroke-width:1.69333339;stroke-miterlimit:4;stroke-opacity:1;stroke-dasharray:none"
     id="path3070" />
  <path
     inkscape:connector-curvature="0"
     d="m 21.10525,6.6331427 188.087,0 c 7.95867,0 14.46742,6.5088003 14.46742,14.4674003 l 0,188.086997 c 0,7.9622 -6.50875,14.471 -14.46742,14.471 l -188.087,0 c -7.95866,0 -14.47094,-6.5088 -14.47094,-14.471 l 0,-188.086997 c 0,-7.9586 6.51228,-14.4674003 14.47094,-14.4674003"
     style="fill:#155196;fill-opacity:1;fill-rule:evenodd;stroke:none"
     id="path3078" />
  <path
     d="m 40.674036,165.96722 -13.229167,0 0,-101.599994 13.229167,0 0,101.599994 z"
     style="fill:#ffffff;fill-opacity:1;fill-rule:nonzero;stroke:none"
     id="path4064"
     inkscape:connector-curvature="0" />
  <path
     d="m 99.127902,165.96546 -12.174361,0 -18.252722,-58.21539 0,58.21539 -13.229167,0 0,-101.599998 13.183306,0 17.243778,54.662918 0,-54.662918 13.229166,0 0,101.599998 z"
     style="fill:#ffffff;fill-opacity:1;fill-rule:nonzero;stroke:none"
     id="path4068"
     inkscape:connector-curvature="0" />
  <path
     d="m 113.79993,165.96546 0,-101.599998 38.61153,0 0,13.229166 -25.40353,0 0,27.432002 15.28233,0 0,13.22917 -15.28233,0 0,47.70966 -13.208,0 z"
     style="fill:#ffffff;fill-opacity:1;fill-rule:nonzero;stroke:none"
     id="path4072"
     inkscape:connector-curvature="0" />
  <path
     d="m 179.38485,76.536295 c -3.98639,0 -6.75922,3.559527 -8.31497,10.675055 -1.22062,5.760861 -1.82739,15.07772 -1.82739,27.95764 0,11.31711 0.23636,18.90536 0.71261,22.76828 1.41816,10.57275 4.56141,15.85736 9.42975,15.85736 4.73428,0 7.80697,-5.28461 9.23572,-15.85736 0.60678,-4.47322 0.90664,-12.06147 0.90664,-22.76828 0,-12.87992 -0.60325,-22.196779 -1.82386,-27.95764 -1.55928,-7.115528 -4.32859,-10.675055 -8.3185,-10.675055 m 0,-13.229167 c 9.41916,0 15.85736,4.780139 19.30753,14.336889 2.70933,7.46125 4.064,19.967222 4.064,37.524973 0,17.14853 -1.21709,29.35111 -3.65831,36.60422 -3.45017,10.16706 -10.02242,15.25058 -19.71322,15.25058 -9.89189,0 -16.52764,-5.28461 -19.91784,-15.86088 -2.30011,-7.11906 -3.45369,-19.11703 -3.45369,-35.99392 0,-17.219084 1.45697,-29.725056 4.37092,-37.524973 3.58775,-9.55675 9.92011,-14.336889 19.00061,-14.336889"
     style="fill:#ffffff;fill-opacity:1;fill-rule:nonzero;stroke:none"
     id="path4076"
     inkscape:connector-curvature="0" />
</svg>
