<?xml version="1.0" encoding="UTF-8" standalone="no"?>
<svg
   xmlns:dc="http://purl.org/dc/elements/1.1/"
   xmlns:cc="http://creativecommons.org/ns#"
   xmlns:rdf="http://www.w3.org/1999/02/22-rdf-syntax-ns#"
   xmlns:svg="http://www.w3.org/2000/svg"
   xmlns="http://www.w3.org/2000/svg"
   xmlns:sodipodi="http://sodipodi.sourceforge.net/DTD/sodipodi-0.dtd"
   xmlns:inkscape="http://www.inkscape.org/namespaces/inkscape"
   width="252.78174"
   height="157.52214"
   viewBox="0 0 713.40624 444.56248"
   version="1.1"
   id="svg2"
   inkscape:version="0.48.2 r9819"
   sodipodi:docname="MUTCD D9-18c.svg">
  <metadata
     id="metadata62">
    <rdf:RDF>
      <cc:Work
         rdf:about="">
        <dc:format>image/svg+xml</dc:format>
        <dc:type
           rdf:resource="http://purl.org/dc/dcmitype/StillImage" />
        <dc:title></dc:title>
      </cc:Work>
    </rdf:RDF>
  </metadata>
  <defs
     id="defs60">
    <clipPath
       clipPathUnits="userSpaceOnUse"
       id="clipPath3564">
      <path
         inkscape:connector-curvature="0"
         d="m 63,43 512.622,0 0,313.129 L 63,356.129 63,43 z"
         id="path3566" />
    </clipPath>
  </defs>
  <sodipodi:namedview
     pagecolor="#ffffff"
     bordercolor="#666666"
     borderopacity="1"
     objecttolerance="10"
     gridtolerance="10"
     guidetolerance="10"
     inkscape:pageopacity="0"
     inkscape:pageshadow="2"
     inkscape:window-width="1280"
     inkscape:window-height="1004"
     id="namedview58"
     showgrid="false"
     fit-margin-top="0"
     fit-margin-left="0"
     fit-margin-right="0"
     fit-margin-bottom="0"
     inkscape:zoom="2.7367973"
     inkscape:cx="146.60615"
     inkscape:cy="45.065483"
     inkscape:window-x="-8"
     inkscape:window-y="-8"
     inkscape:window-maximized="1"
     inkscape:current-layer="svg2"
     showguides="true"
     inkscape:guide-bbox="true" />
  <polygon
     points="395,375 315,545 235,375 315,205 "
     id="polygon10"
     style="fill:none;stroke:#ffffff;stroke-width:40"
     transform="translate(23482.147,15998.053)" />
  <!-- draw the bicycle -->
  <!-- RIGHT -->
  <!-- LANE -->
  <!-- ONLY -->
  <path
     inkscape:connector-curvature="0"
     d="m 38.9635,443.13825 c -20.70103,0 -37.54617,-16.8416 -37.54617,-37.5426 l 0,-366.627803 c 0,-20.701 16.84514,-37.5425997 37.54617,-37.5425997 l 635.4903,0 c 20.701,0 37.5426,16.8415997 37.5426,37.5425997 l 0,366.627803 c 0,20.701 -16.8416,37.5426 -37.5426,37.5426 l -635.4903,0 z"
     style="fill:#ffffff;fill-opacity:1;fill-rule:nonzero;stroke:#000000;stroke-width:2.82222223;stroke-miterlimit:4;stroke-opacity:1;stroke-dasharray:none"
     id="path4448" />
  <path
     inkscape:connector-curvature="0"
     d="m 38.9635,434.11425 c -3.8312,0 -7.54242,-0.7585 -11.04903,-2.2437 -3.39372,-1.4464 -6.45231,-3.5101 -9.08403,-6.1418 -2.62467,-2.6353 -4.699,-5.6868 -6.13833,-9.0805 -1.48872,-3.5102 -2.24367,-7.2214 -2.24367,-11.0526 l 0,-366.627803 c 0,-3.8241 0.75495,-7.5424 2.24367,-11.049 1.43933,-3.3973 3.51366,-6.4488 6.13833,-9.0805 2.63172,-2.6353 5.69031,-4.699 9.08403,-6.1383 3.50661,-1.4888 7.21783,-2.2472 11.04903,-2.2472 l 635.4903,0 c 3.8241,0 7.5424,0.7584 11.049,2.2472 3.3938,1.4393 6.4523,3.503 9.0841,6.1383 2.6317,2.6317 4.6954,5.6832 6.1383,9.0805 1.4887,3.5066 2.2401,7.2249 2.2401,11.049 l 0,366.627803 c 0,3.8312 -0.7514,7.5424 -2.2401,11.0526 -1.4429,3.3937 -3.5066,6.4452 -6.1383,9.0805 -2.6318,2.6317 -5.6903,4.6954 -9.0841,6.1418 -3.5066,1.4852 -7.2249,2.2437 -11.049,2.2437 l -635.4903,0 z"
     style="fill:#155196;fill-opacity:1;fill-rule:nonzero;stroke:none"
     id="path4456" />
  <g
     id="g4458"
     transform="matrix(3.5277778,0,0,-3.5277778,444.4039,281.74915)"
     style="fill:#ffffff;stroke:none">
    <path
       inkscape:connector-curvature="0"
       d="m 0,0 -1.621,-3.89 3.241,0 L 0,0 z m 3.644,-8.671 -1.135,2.715 -5.021,0 -1.135,-2.715 -2.267,0 4.86,11.548 2.104,0 4.822,-11.548 -2.228,0 z"
       style="fill:#ffffff;fill-opacity:1;fill-rule:nonzero;stroke:none"
       id="path4460" />
  </g>
  <g
     id="g4462"
     transform="matrix(3.5277778,0,0,-3.5277778,236.5119,312.33885)"
     style="fill:#ffffff;stroke:none">
    <path
       inkscape:connector-curvature="0"
       d="m 0,0 0,5.024 -5.208,0 0,-5.024 -2.076,0 0,11.548 2.076,0 0,-4.456 5.208,0 0,4.456 2.076,0 L 2.076,0 0,0 z"
       style="fill:#ffffff;fill-opacity:1;fill-rule:nonzero;stroke:none"
       id="path4464" />
  </g>
  <path
     inkscape:connector-curvature="0"
     d="m 375.475,271.59975 7.3237,0 0,40.7388 -7.3237,0 0,-40.7388 z"
     style="fill:#ffffff;fill-opacity:1;fill-rule:nonzero;stroke:none"
     id="path4466" />
  <g
     id="g4468"
     transform="matrix(3.5277778,0,0,-3.5277778,472.0476,312.33885)"
     style="fill:#ffffff;stroke:none">
    <path
       inkscape:connector-curvature="0"
       d="m 0,0 0,11.548 2.074,0 0,-9.764 6.588,0 L 8.662,0 0,0 z"
       style="fill:#ffffff;fill-opacity:1;fill-rule:nonzero;stroke:none"
       id="path4470" />
  </g>
  <g
     id="g4472"
     transform="matrix(3.5277778,0,0,-3.5277778,270.5342,278.17555)"
     style="fill:#ffffff;stroke:none">
    <path
       inkscape:connector-curvature="0"
       d="m 0,0 c -1.746,0 -2.802,-1.458 -2.802,-3.889 0,-2.472 1.056,-3.931 2.802,-3.931 2.194,0 2.721,2.148 2.721,3.931 C 2.721,-1.458 1.748,0 0,0 m 0,-9.886 c -3.411,0 -4.913,3.079 -4.913,5.997 0,3.687 1.869,5.956 4.913,5.956 2.844,0 4.791,-2.39 4.791,-5.916 0,-3.607 -1.867,-6.037 -4.791,-6.037"
       style="fill:#ffffff;fill-opacity:1;fill-rule:nonzero;stroke:none"
       id="path4474" />
  </g>
  <g
     id="g4476"
     transform="matrix(3.5277778,0,0,-3.5277778,355.264,278.88845)"
     style="fill:#ffffff;stroke:none">
    <path
       inkscape:connector-curvature="0"
       d="m 0,0 -3.489,0 0,-2.877 3.489,0 c 1.012,0 1.699,0.567 1.699,1.418 C 1.699,-0.568 1.012,0 0,0 M 1.982,-4.497 C 1.336,-4.862 0.809,-4.943 -0.082,-4.943 l -3.407,0 0,-4.539 -2.106,0 0,11.548 5.513,0 c 0.891,0 1.418,-0.122 2.064,-0.486 1.094,-0.608 1.784,-1.742 1.784,-3.039 0,-1.216 -0.69,-2.431 -1.784,-3.038"
       style="fill:#ffffff;fill-opacity:1;fill-rule:nonzero;stroke:none"
       id="path4478" />
  </g>
  <g
     id="g4480"
     transform="matrix(3.5277778,0,0,-3.5277778,309.5549,294.05795)"
     style="fill:#ffffff;stroke:none">
    <path
       inkscape:connector-curvature="0"
       d="m 0,0 c -0.515,0.143 -1.807,0.452 -2.244,0.709 -0.867,0.509 -1.533,1.343 -1.533,2.577 0,1.904 1.629,3.202 3.988,3.202 1.711,0 3.134,-0.568 4.312,-1.783 L 2.977,3.327 c -0.731,0.77 -1.666,1.136 -2.766,1.136 -1.18,0 -1.871,-0.447 -1.871,-1.177 0,-0.648 0.405,-0.931 1.831,-1.255 1.547,-0.325 2.563,-0.648 3.214,-0.973 1.017,-0.527 1.67,-1.62 1.67,-2.877 0,-1.174 -0.532,-2.066 -1.63,-2.714 -0.814,-0.486 -1.87,-0.77 -2.929,-0.77 -1.994,0 -3.5,0.73 -4.801,2.228 l 1.668,1.298 c 0.856,-1.014 1.789,-1.459 3.092,-1.459 1.467,0 2.522,0.647 2.522,1.499 C 2.977,-0.652 1.799,-0.496 0,0"
       style="fill:#ffffff;fill-opacity:1;fill-rule:nonzero;stroke:none"
       id="path4482" />
  </g>
  <g
     id="g4484"
     transform="matrix(3.5277778,0,0,-3.5277778,408.5722,278.74385)"
     style="fill:#ffffff;stroke:none">
    <path
       inkscape:connector-curvature="0"
       d="m 0,0 0,-9.523 -2.023,0 0,9.523 -3.318,0 0,2.025 8.66,0 L 3.319,0 0,0 z"
       style="fill:#ffffff;fill-opacity:1;fill-rule:nonzero;stroke:none"
       id="path4486" />
  </g>
  <g
     id="g4488"
     transform="matrix(3.5277778,0,0,-3.5277778,416.3337,133.62165)"
     style="fill:#ffffff;stroke:none">
    <path
       inkscape:connector-curvature="0"
       d="m 0,0 c -0.526,0.283 -1.133,0.446 -1.741,0.446 l -1.752,0 0,-7.415 1.752,0 c 0.608,0 1.173,0.162 1.66,0.445 1.213,0.649 1.78,1.702 1.78,3.282 C 1.699,-1.703 1.132,-0.65 0,0 M 0.97,-8.346 C 0.162,-8.792 -0.809,-9.035 -1.741,-9.035 l -3.855,0 0,11.547 3.855,0 c 0.971,0 1.903,-0.244 2.752,-0.73 1.78,-1.013 2.752,-2.755 2.752,-5.024 0,-2.31 -0.972,-4.092 -2.793,-5.104"
       style="fill:#ffffff;fill-opacity:1;fill-rule:nonzero;stroke:none"
       id="path4490" />
  </g>
  <g
     id="g4492"
     transform="matrix(3.5277778,0,0,-3.5277778,470.7673,145.19985)"
     style="fill:#ffffff;stroke:none">
    <path
       inkscape:connector-curvature="0"
       d="m 0,0 0,-1.499 c 0,-2.513 -2.024,-4.456 -4.577,-4.456 -3.403,0 -4.781,2.997 -4.781,5.995 0,3.525 1.904,5.957 4.781,5.957 2.067,0 3.484,-1.094 4.293,-2.877 L -2.388,2.39 c -0.447,0.972 -1.175,1.54 -2.189,1.54 -1.621,0 -2.715,-1.621 -2.715,-3.89 0,-1.865 0.569,-3.929 2.715,-3.929 1.135,0 2.149,0.769 2.431,1.822 l -1.905,0 0,2.067 L 0,0 z"
       style="fill:#ffffff;fill-opacity:1;fill-rule:nonzero;stroke:none"
       id="path4494" />
  </g>
  <g
     id="g4496"
     transform="matrix(3.5277778,0,0,-3.5277778,573.4712,145.19985)"
     style="fill:#ffffff;stroke:none">
    <path
       inkscape:connector-curvature="0"
       d="m 0,0 0,-1.499 c 0,-2.513 -2.026,-4.456 -4.579,-4.456 -3.404,0 -4.781,2.997 -4.781,5.995 0,3.525 1.905,5.957 4.781,5.957 2.067,0 3.484,-1.094 4.296,-2.877 L -2.391,2.39 c -0.445,0.972 -1.176,1.54 -2.188,1.54 -1.621,0 -2.714,-1.621 -2.714,-3.89 0,-1.865 0.567,-3.929 2.714,-3.929 1.135,0 2.147,0.769 2.432,1.822 l -1.906,0 0,2.067 L 0,0 z"
       style="fill:#ffffff;fill-opacity:1;fill-rule:nonzero;stroke:none"
       id="path4498" />
  </g>
  <path
     inkscape:connector-curvature="0"
     d="m 480.1406,124.75955 7.3343,0 0,40.7352 -7.3343,0 0,-40.7352 z"
     style="fill:#ffffff;fill-opacity:1;fill-rule:nonzero;stroke:none"
     id="path4500" />
  <g
     id="g4502"
     transform="matrix(3.5277778,0,0,-3.5277778,316.723,165.49515)"
     style="fill:#ffffff;stroke:none">
    <path
       inkscape:connector-curvature="0"
       d="m 0,0 0,11.547 2.074,0 0,-9.765 6.587,0 L 8.661,0 0,0 z"
       style="fill:#ffffff;fill-opacity:1;fill-rule:nonzero;stroke:none"
       id="path4504" />
  </g>
  <g
     id="g4506"
     transform="matrix(3.5277778,0,0,-3.5277778,524.7702,165.49515)"
     style="fill:#ffffff;stroke:none">
    <path
       inkscape:connector-curvature="0"
       d="m 0,0 -5.536,7.941 0,-7.941 -2.034,0 0,11.547 2.034,0 5.333,-7.619 0,7.619 1.992,0 L 1.789,0 0,0 z"
       style="fill:#ffffff;fill-opacity:1;fill-rule:nonzero;stroke:none"
       id="path4508" />
  </g>
  <g
     id="g4510"
     transform="matrix(3.5277778,0,0,-3.5277778,370.3139,131.33565)"
     style="fill:#ffffff;stroke:none">
    <path
       inkscape:connector-curvature="0"
       d="m 0,0 c -1.744,0 -2.801,-1.459 -2.801,-3.89 0,-2.471 1.057,-3.929 2.801,-3.929 2.193,0 2.721,2.146 2.721,3.929 C 2.721,-1.459 1.747,0 0,0 m 0,-9.885 c -3.41,0 -4.912,3.078 -4.912,5.995 0,3.688 1.867,5.957 4.912,5.957 2.843,0 4.793,-2.391 4.793,-5.916 0,-3.606 -1.868,-6.036 -4.793,-6.036"
       style="fill:#ffffff;fill-opacity:1;fill-rule:nonzero;stroke:none"
       id="path4512" />
  </g>
  <g
     id="g4514"
     transform="matrix(3.5277778,0,0,-3.5277778,199.5306,134.90925)"
     style="fill:#ffffff;stroke:none">
    <path
       inkscape:connector-curvature="0"
       d="m 0,0 -1.621,-3.89 3.241,0 L 0,0 z m 3.645,-8.67 -1.135,2.715 -5.021,0 -1.135,-2.715 -2.269,0 4.862,11.547 2.105,0 4.821,-11.547 -2.228,0 z"
       style="fill:#ffffff;fill-opacity:1;fill-rule:nonzero;stroke:none"
       id="path4516" />
  </g>
  <g
     id="g4518"
     transform="matrix(3.5277778,0,0,-3.5277778,172.9629,145.19985)"
     style="fill:#ffffff;stroke:none">
    <path
       inkscape:connector-curvature="0"
       d="m 0,0 0,-1.499 c 0,-2.513 -2.025,-4.456 -4.579,-4.456 -3.403,0 -4.78,2.997 -4.78,5.995 0,3.525 1.904,5.957 4.78,5.957 2.066,0 3.486,-1.094 4.294,-2.877 L -2.39,2.39 c -0.446,0.972 -1.176,1.54 -2.189,1.54 -1.619,0 -2.714,-1.621 -2.714,-3.89 0,-1.865 0.568,-3.929 2.714,-3.929 1.136,0 2.15,0.769 2.431,1.822 l -1.903,0 0,2.067 L 0,0 z"
       style="fill:#ffffff;fill-opacity:1;fill-rule:nonzero;stroke:none"
       id="path4520" />
  </g>
  <g
     id="g4522"
     transform="matrix(3.5277778,0,0,-3.5277778,239.9162,147.21775)"
     style="fill:#ffffff;stroke:none">
    <path
       inkscape:connector-curvature="0"
       d="m 0,0 c -0.515,0.142 -1.806,0.453 -2.242,0.707 -0.87,0.51 -1.534,1.344 -1.534,2.58 0,1.903 1.627,3.201 3.987,3.201 1.709,0 3.134,-0.569 4.314,-1.783 L 2.978,3.327 C 2.245,4.096 1.31,4.46 0.211,4.46 -0.969,4.46 -1.66,4.015 -1.66,3.287 -1.66,2.638 -1.252,2.354 0.172,2.03 1.717,1.706 2.734,1.382 3.385,1.058 4.402,0.532 5.054,-0.563 5.054,-1.819 5.054,-2.994 4.525,-3.885 3.428,-4.533 2.612,-5.019 1.554,-5.304 0.496,-5.304 c -1.993,0 -3.5,0.73 -4.801,2.229 l 1.666,1.297 c 0.856,-1.013 1.793,-1.458 3.094,-1.458 1.465,0 2.523,0.648 2.523,1.498 C 2.978,-0.654 1.799,-0.497 0,0"
       style="fill:#ffffff;fill-opacity:1;fill-rule:nonzero;stroke:none"
       id="path4524" />
  </g>
  <path
     inkscape:connector-curvature="0"
     d="m 275.9917,141.48475 20.3694,0 0,7.2919 -20.3694,0 0,-7.2919 z"
     style="fill:#ffffff;fill-opacity:1;fill-rule:nonzero;stroke:none"
     id="path4526" />
  <g
     id="g4528"
     transform="matrix(3.5277778,0,0,-3.5277778,290.4658,60.296747)"
     style="fill:#ffffff;stroke:none">
    <path
       inkscape:connector-curvature="0"
       d="m 0,0 c -0.526,0.283 -1.134,0.446 -1.74,0.446 l -1.751,0 0,-7.415 1.751,0 c 0.606,0 1.174,0.162 1.659,0.447 1.213,0.647 1.78,1.701 1.78,3.281 C 1.699,-1.701 1.132,-0.648 0,0 M 0.972,-8.346 C 0.161,-8.792 -0.81,-9.035 -1.74,-9.035 l -3.856,0 0,11.548 3.856,0 c 0.971,0 1.901,-0.244 2.752,-0.73 1.778,-1.012 2.749,-2.756 2.749,-5.024 0,-2.31 -0.971,-4.092 -2.789,-5.105"
       style="fill:#ffffff;fill-opacity:1;fill-rule:nonzero;stroke:none"
       id="path4530" />
  </g>
  <g
     id="g4532"
     transform="matrix(3.5277778,0,0,-3.5277778,155.934,58.723447)"
     style="fill:#ffffff;stroke:none">
    <path
       inkscape:connector-curvature="0"
       d="m 0,0 0,-2.35 3.618,0 0,-2.107 -3.618,0 0,-5.024 -2.114,0 0,11.548 8.66,0 L 6.546,0 0,0 z"
       style="fill:#ffffff;fill-opacity:1;fill-rule:nonzero;stroke:none"
       id="path4534" />
  </g>
  <g
     id="g4536"
     transform="matrix(3.5277778,0,0,-3.5277778,202.0597,58.010747)"
     style="fill:#ffffff;stroke:none">
    <path
       inkscape:connector-curvature="0"
       d="m 0,0 c -1.746,0 -2.801,-1.458 -2.801,-3.889 0,-2.471 1.055,-3.93 2.801,-3.93 2.194,0 2.721,2.147 2.721,3.93 C 2.721,-1.458 1.746,0 0,0 m 0,-9.885 c -3.412,0 -4.914,3.078 -4.914,5.996 0,3.687 1.869,5.956 4.914,5.956 2.843,0 4.792,-2.39 4.792,-5.916 0,-3.606 -1.868,-6.036 -4.792,-6.036"
       style="fill:#ffffff;fill-opacity:1;fill-rule:nonzero;stroke:none"
       id="path4538" />
  </g>
  <g
     id="g4540"
     transform="matrix(3.5277778,0,0,-3.5277778,244.4494,58.010747)"
     style="fill:#ffffff;stroke:none">
    <path
       inkscape:connector-curvature="0"
       d="m 0,0 c -1.746,0 -2.802,-1.458 -2.802,-3.889 0,-2.471 1.056,-3.93 2.802,-3.93 2.193,0 2.723,2.147 2.723,3.93 C 2.723,-1.458 1.746,0 0,0 m 0,-9.885 c -3.41,0 -4.914,3.078 -4.914,5.996 0,3.687 1.869,5.956 4.914,5.956 2.844,0 4.793,-2.39 4.793,-5.916 0,-3.606 -1.869,-6.036 -4.793,-6.036"
       style="fill:#ffffff;fill-opacity:1;fill-rule:nonzero;stroke:none"
       id="path4542" />
  </g>
  <g
     id="g4544"
     transform="matrix(3.5277778,0,0,-3.5277778,534.3869,92.170247)"
     style="fill:#ffffff;stroke:none">
    <path
       inkscape:connector-curvature="0"
       d="m 0,0 0,11.548 8.458,0 0,-2.067 -6.342,0 0,-2.147 3.455,0 0,-2.107 -3.455,0 0,-3.161 6.545,0 L 8.661,0 0,0 z"
       style="fill:#ffffff;fill-opacity:1;fill-rule:nonzero;stroke:none"
       id="path4546" />
  </g>
  <g
     id="g4548"
     transform="matrix(3.5277778,0,0,-3.5277778,430.4833,92.170247)"
     style="fill:#ffffff;stroke:none">
    <path
       inkscape:connector-curvature="0"
       d="m 0,0 0,5.024 -5.208,0 0,-5.024 -2.077,0 0,11.548 2.077,0 0,-4.457 5.208,0 0,4.457 2.076,0 L 2.076,0 0,0 z"
       style="fill:#ffffff;fill-opacity:1;fill-rule:nonzero;stroke:none"
       id="path4550" />
  </g>
  <g
     id="g4552"
     transform="matrix(3.5277778,0,0,-3.5277778,517.4783,92.170247)"
     style="fill:#ffffff;stroke:none">
    <path
       inkscape:connector-curvature="0"
       d="m 0,0 -5.533,7.941 0,-7.941 -2.035,0 0,11.548 2.035,0 5.33,-7.618 0,7.618 1.994,0 L 1.791,0 0,0 z"
       style="fill:#ffffff;fill-opacity:1;fill-rule:nonzero;stroke:none"
       id="path4554" />
  </g>
  <g
     id="g4556"
     transform="matrix(3.5277778,0,0,-3.5277778,464.5052,58.010747)"
     style="fill:#ffffff;stroke:none">
    <path
       inkscape:connector-curvature="0"
       d="m 0,0 c -1.745,0 -2.802,-1.458 -2.802,-3.889 0,-2.471 1.057,-3.93 2.802,-3.93 2.192,0 2.723,2.147 2.723,3.93 C 2.723,-1.458 1.747,0 0,0 m 0,-9.885 c -3.411,0 -4.913,3.078 -4.913,5.996 0,3.687 1.867,5.956 4.913,5.956 2.845,0 4.794,-2.39 4.794,-5.916 0,-3.606 -1.871,-6.036 -4.794,-6.036"
       style="fill:#ffffff;fill-opacity:1;fill-rule:nonzero;stroke:none"
       id="path4558" />
  </g>
  <g
     id="g4560"
     transform="matrix(3.5277778,0,0,-3.5277778,384.5731,58.723447)"
     style="fill:#ffffff;stroke:none">
    <path
       inkscape:connector-curvature="0"
       d="m 0,0 -3.486,0 0,-2.877 3.486,0 c 1.012,0 1.7,0.568 1.7,1.418 C 1.7,-0.568 1.012,0 0,0 M 1.984,-4.497 C 1.338,-4.862 0.811,-4.943 -0.079,-4.943 l -3.407,0 0,-4.538 -2.106,0 0,11.548 5.513,0 c 0.89,0 1.417,-0.122 2.063,-0.487 1.094,-0.608 1.782,-1.743 1.782,-3.039 0,-1.214 -0.688,-2.431 -1.782,-3.038"
       style="fill:#ffffff;fill-opacity:1;fill-rule:nonzero;stroke:none"
       id="path4562" />
  </g>
  <path
     inkscape:connector-curvature="0"
     d="m 324.1106,68.152847 20.3623,0 0,7.2954 -20.3623,0 0,-7.2954 z"
     style="fill:#ffffff;fill-opacity:1;fill-rule:nonzero;stroke:none"
     id="path4564" />
  <g
     id="g4566"
     transform="matrix(3.5277778,0,0,-3.5277778,221.4554,238.95405)"
     style="fill:#ffffff;stroke:none">
    <path
       inkscape:connector-curvature="0"
       d="m 0,0 0,5.024 -5.209,0 0,-5.024 -2.076,0 0,11.547 2.076,0 0,-4.457 5.209,0 0,4.457 2.075,0 L 2.075,0 0,0 z"
       style="fill:#ffffff;fill-opacity:1;fill-rule:nonzero;stroke:none"
       id="path4568" />
  </g>
  <g
     id="g4570"
     transform="matrix(3.5277778,0,0,-3.5277778,258.3877,205.50715)"
     style="fill:#ffffff;stroke:none">
    <path
       inkscape:connector-curvature="0"
       d="m 0,0 -3.326,0 0,-2.877 3.326,0 c 1.012,0 1.659,0.568 1.659,1.419 C 1.659,-0.567 1.012,0 0,0 m 1.659,-9.481 -1.863,4.538 -3.122,0 0,-4.538 -2.066,0 0,11.547 5.351,0 c 0.85,0 1.377,-0.121 1.984,-0.485 1.092,-0.609 1.781,-1.743 1.781,-3.039 0,-1.297 -0.689,-2.431 -1.863,-3.08 l 2.106,-4.943 -2.308,0 z"
       style="fill:#ffffff;fill-opacity:1;fill-rule:nonzero;stroke:none"
       id="path4572" />
  </g>
  <g
     id="g4574"
     transform="matrix(3.5277778,0,0,-3.5277778,412.9361,208.36475)"
     style="fill:#ffffff;stroke:none">
    <path
       inkscape:connector-curvature="0"
       d="m 0,0 -1.619,-3.89 3.24,0 L 0,0 z m 3.646,-8.671 -1.135,2.715 -5.022,0 -1.134,-2.715 -2.268,0 4.861,11.547 2.106,0 4.821,-11.547 -2.229,0 z"
       style="fill:#ffffff;fill-opacity:1;fill-rule:nonzero;stroke:none"
       id="path4576" />
  </g>
  <g
     id="g4578"
     transform="matrix(3.5277778,0,0,-3.5277778,547.8489,208.36475)"
     style="fill:#ffffff;stroke:none">
    <path
       inkscape:connector-curvature="0"
       d="m 0,0 -1.62,-3.89 3.24,0 L 0,0 z m 3.645,-8.671 -1.134,2.715 -5.023,0 -1.136,-2.715 -2.266,0 4.86,11.547 2.106,0 4.82,-11.547 -2.227,0 z"
       style="fill:#ffffff;fill-opacity:1;fill-rule:nonzero;stroke:none"
       id="path4580" />
  </g>
  <g
     id="g4582"
     transform="matrix(3.5277778,0,0,-3.5277778,591.5616,239.66665)"
     style="fill:#ffffff;stroke:none">
    <path
       inkscape:connector-curvature="0"
       d="m 0,0 c -3.039,0 -4.902,2.389 -4.902,5.995 0,3.648 1.863,5.957 4.902,5.957 1.864,0 3.567,-0.932 4.457,-2.553 L 2.635,8.427 C 2.309,8.913 2.147,9.076 1.825,9.278 1.379,9.643 0.608,9.885 0,9.885 c -2.105,0 -2.795,-2.065 -2.795,-3.849 0,-2.512 1.053,-3.97 2.795,-3.97 1.053,0 1.621,0.365 2.635,1.458 L 4.457,2.552 C 3.606,0.932 1.864,0 0,0"
       style="fill:#ffffff;fill-opacity:1;fill-rule:nonzero;stroke:none"
       id="path4584" />
  </g>
  <g
     id="g4586"
     transform="matrix(3.5277778,0,0,-3.5277778,377.8316,238.95405)"
     style="fill:#ffffff;stroke:none">
    <path
       inkscape:connector-curvature="0"
       d="m 0,0 0,5.024 -5.209,0 0,-5.024 -2.075,0 0,11.547 2.075,0 0,-4.457 5.209,0 0,4.457 2.076,0 L 2.076,0 0,0 z"
       style="fill:#ffffff;fill-opacity:1;fill-rule:nonzero;stroke:none"
       id="path4588" />
  </g>
  <g
     id="g4590"
     transform="matrix(3.5277778,0,0,-3.5277778,512.8816,238.95405)"
     style="fill:#ffffff;stroke:none">
    <path
       inkscape:connector-curvature="0"
       d="M 0,0 0,7.05 -3.415,0 l -3.377,7.05 0,-7.05 -2.033,0 0,11.547 2.033,0 L -3.415,4.7 0,11.547 l 2.035,0 L 2.035,0 0,0 z"
       style="fill:#ffffff;fill-opacity:1;fill-rule:nonzero;stroke:none"
       id="path4592" />
  </g>
  <g
     id="g4594"
     transform="matrix(3.5277778,0,0,-3.5277778,331.9207,205.50715)"
     style="fill:#ffffff;stroke:none">
    <path
       inkscape:connector-curvature="0"
       d="m 0,0 -3.486,0 0,-2.877 3.486,0 c 1.013,0 1.701,0.568 1.701,1.419 C 1.701,-0.567 1.013,0 0,0 M 1.985,-4.497 C 1.336,-4.863 0.811,-4.943 -0.08,-4.943 l -3.406,0 0,-4.538 -2.108,0 0,11.547 5.514,0 c 0.891,0 1.416,-0.121 2.065,-0.485 1.093,-0.609 1.782,-1.743 1.782,-3.039 0,-1.216 -0.689,-2.431 -1.782,-3.039"
       style="fill:#ffffff;fill-opacity:1;fill-rule:nonzero;stroke:none"
       id="path4596" />
  </g>
  <g
     id="g4598"
     transform="matrix(3.5277778,0,0,-3.5277778,459.598,205.50715)"
     style="fill:#ffffff;stroke:none">
    <path
       inkscape:connector-curvature="0"
       d="m 0,0 -3.325,0 0,-2.877 3.325,0 c 1.012,0 1.661,0.568 1.661,1.419 C 1.661,-0.567 1.012,0 0,0 m 1.661,-9.481 -1.863,4.538 -3.123,0 0,-4.538 -2.064,0 0,11.547 5.348,0 c 0.852,0 1.376,-0.121 1.984,-0.485 1.095,-0.609 1.781,-1.743 1.781,-3.039 0,-1.297 -0.686,-2.431 -1.861,-3.08 l 2.105,-4.943 -2.307,0 z"
       style="fill:#ffffff;fill-opacity:1;fill-rule:nonzero;stroke:none"
       id="path4600" />
  </g>
  <g
     id="g4602"
     transform="matrix(3.5277778,0,0,-3.5277778,637.4231,222.37355)"
     style="fill:#ffffff;stroke:none">
    <path
       inkscape:connector-curvature="0"
       d="m 0,0 0,-4.7 -2.066,0 0,4.7 -4.859,6.847 2.549,0 3.363,-4.7 3.322,4.7 2.552,0 L 0,0 z"
       style="fill:#ffffff;fill-opacity:1;fill-rule:nonzero;stroke:none"
       id="path4604" />
  </g>
  <g
     id="g4606"
     transform="matrix(3.5277778,0,0,-3.5277778,58.8428,238.95405)"
     style="fill:#ffffff;stroke:none">
    <path
       inkscape:connector-curvature="0"
       d="M 0,0 C 0,1.377 0.287,2.39 0.936,3.526 1.953,5.227 3.42,6.28 5.534,6.847 6.836,7.212 7.285,7.618 7.285,8.306 7.285,9.157 6.47,9.644 5.006,9.644 3.5,9.644 2.4,9.278 1.423,8.387 L 0,9.967 c 1.343,1.175 3.01,1.783 4.883,1.783 2.728,0 4.476,-1.336 4.476,-3.444 C 9.359,7.333 8.953,6.443 8.179,5.793 7.812,5.51 7.285,5.227 6.47,4.984 4.923,4.538 4.476,4.336 3.785,3.727 3.256,3.282 2.931,2.836 2.523,2.066 l 6.836,0 L 9.359,0 0,0 z"
       style="fill:#ffffff;fill-opacity:1;fill-rule:nonzero;stroke:none"
       id="path4608" />
  </g>
  <g
     id="g4610"
     transform="matrix(3.5277778,0,0,-3.5277778,121.5068,207.79325)"
     style="fill:#ffffff;stroke:none">
    <path
       inkscape:connector-curvature="0"
       d="M 0,0 -4.499,-4.619 0,-4.619 0,0 z m 2.024,-6.483 0,-2.35 -2.024,0 0,2.35 -7.134,0 0,1.864 7.134,7.333 2.024,0 0,-7.333 1.703,0 0,-1.864 -1.703,0 z"
       style="fill:#ffffff;fill-opacity:1;fill-rule:nonzero;stroke:none"
       id="path4612" />
  </g>
  <path
     inkscape:connector-curvature="0"
     d="m 155.0277,212.75285 20.3623,0 0,7.2884 -20.3623,0 0,-7.2884 z"
     style="fill:#ffffff;fill-opacity:1;fill-rule:nonzero;stroke:none"
     id="path4614" />
  <g
     id="g4616"
     transform="matrix(3.5277778,0,0,-3.5277778,162.5309,395.80605)"
     style="fill:#ffffff;stroke:none">
    <path
       inkscape:connector-curvature="0"
       d="m 0,0 0,11.547 8.458,0 0,-2.065 -6.343,0 0,-2.149 3.456,0 0,-2.107 -3.456,0 0,-3.16 6.547,0 L 8.662,0 0,0 z"
       style="fill:#ffffff;fill-opacity:1;fill-rule:nonzero;stroke:none"
       id="path4618" />
  </g>
  <path
     inkscape:connector-curvature="0"
     d="m 242.3966,355.07055 7.3343,0 0,40.7352 -7.3343,0 0,-40.7352 z"
     style="fill:#ffffff;fill-opacity:1;fill-rule:nonzero;stroke:none"
     id="path4620" />
  <g
     id="g4622"
     transform="matrix(3.5277778,0,0,-3.5277778,275.5009,362.21455)"
     style="fill:#ffffff;stroke:none">
    <path
       inkscape:connector-curvature="0"
       d="m 0,0 0,-9.522 -2.025,0 0,9.522 -3.316,0 0,2.025 8.659,0 L 3.318,0 0,0 z"
       style="fill:#ffffff;fill-opacity:1;fill-rule:nonzero;stroke:none"
       id="path4624" />
  </g>
  <g
     id="g4626"
     transform="matrix(3.5277778,0,0,-3.5277778,225.6358,395.80605)"
     style="fill:#ffffff;stroke:none">
    <path
       inkscape:connector-curvature="0"
       d="M 0,0 -2.605,4.091 -5.168,0 l -2.441,0 3.784,6.078 -3.459,5.469 2.482,0 2.197,-3.525 2.198,3.525 2.482,0 L -1.343,6.078 2.442,0 0,0 z"
       style="fill:#ffffff;fill-opacity:1;fill-rule:nonzero;stroke:none"
       id="path4628" />
  </g>
  <g
     id="g4630"
     transform="matrix(3.5277778,0,0,-3.5277778,519.8034,358.87735)"
     style="fill:#ffffff;stroke:none">
    <path
       inkscape:connector-curvature="0"
       d="m 0,0 -2.432,-5.835 4.861,0 L 0,0 z m 5.468,-13.007 -1.703,4.072 -7.533,0 -1.699,-4.072 -3.404,0 7.291,17.322 3.16,0 7.229,-17.322 -3.341,0 z"
       style="fill:#ffffff;fill-opacity:1;fill-rule:nonzero;stroke:none"
       id="path4632" />
  </g>
  <g
     id="g4634"
     transform="matrix(3.5277778,0,0,-3.5277778,406.3921,404.76315)"
     style="fill:#ffffff;stroke:none">
    <path
       inkscape:connector-curvature="0"
       d="m 0,0 c 0,2.066 0.427,3.586 1.402,5.288 1.527,2.553 3.724,4.133 6.9,4.984 1.953,0.547 2.623,1.155 2.623,2.187 0,1.277 -1.22,2.006 -3.417,2.006 -2.26,0 -3.907,-0.547 -5.371,-1.883 L 0,14.951 c 2.013,1.763 4.517,2.675 7.325,2.675 4.09,0 6.713,-2.006 6.713,-5.167 0,-1.458 -0.611,-2.795 -1.769,-3.768 C 11.719,8.266 10.925,7.841 9.705,7.475 7.386,6.807 6.714,6.503 5.677,5.592 4.882,4.924 4.395,4.255 3.784,3.1 l 10.254,0 0,-3.1 L 0,0 z"
       style="fill:#ffffff;fill-opacity:1;fill-rule:nonzero;stroke:none"
       id="path4636" />
  </g>
  <g
     id="g4638"
     transform="matrix(3.5277778,0,0,-3.5277778,373.0757,353.51505)"
     style="fill:#ffffff;stroke:none">
    <path
       inkscape:connector-curvature="0"
       d="m 0,0 c -2.137,0 -3.358,-0.609 -3.358,-1.582 0,-1.032 1.221,-1.64 3.358,-1.64 2.137,0 3.357,0.608 3.357,1.64 C 3.357,-0.609 2.137,0 0,0 m 0,-6.322 c -2.502,0 -3.906,-0.973 -3.906,-2.674 0,-0.851 0.488,-1.701 1.283,-2.188 0.486,-0.303 1.586,-0.486 2.623,-0.486 1.466,0 2.382,0.183 2.992,0.729 0.609,0.548 0.914,1.216 0.914,1.945 0,1.701 -1.403,2.674 -3.906,2.674 m 0,-8.509 c -4.275,0 -7.02,2.31 -7.02,5.835 0,1.641 0.672,3.039 1.954,4.194 -1.099,1.276 -1.404,2.006 -1.404,3.16 0,2.856 2.624,4.741 6.47,4.741 3.906,0 6.471,-1.885 6.471,-4.741 0,-1.154 -0.307,-1.884 -1.344,-3.16 1.281,-1.155 1.89,-2.553 1.89,-4.194 0,-4.133 -3.416,-5.835 -7.017,-5.835"
       style="fill:#ffffff;fill-opacity:1;fill-rule:nonzero;stroke:none"
       id="path4640" />
  </g>
</svg>
