<?xml version="1.0" encoding="UTF-8" standalone="no"?>
<svg
   xmlns:dc="http://purl.org/dc/elements/1.1/"
   xmlns:cc="http://creativecommons.org/ns#"
   xmlns:rdf="http://www.w3.org/1999/02/22-rdf-syntax-ns#"
   xmlns:svg="http://www.w3.org/2000/svg"
   xmlns="http://www.w3.org/2000/svg"
   xmlns:sodipodi="http://sodipodi.sourceforge.net/DTD/sodipodi-0.dtd"
   xmlns:inkscape="http://www.inkscape.org/namespaces/inkscape"
   width="200.81693"
   height="157.51108"
   viewBox="0 0 566.74999 444.53126"
   version="1.1"
   id="svg2"
   inkscape:version="0.48.2 r9819"
   sodipodi:docname="MUTCD D9-18b.svg">
  <metadata
     id="metadata62">
    <rdf:RDF>
      <cc:Work
         rdf:about="">
        <dc:format>image/svg+xml</dc:format>
        <dc:type
           rdf:resource="http://purl.org/dc/dcmitype/StillImage" />
        <dc:title></dc:title>
      </cc:Work>
    </rdf:RDF>
  </metadata>
  <defs
     id="defs60">
    <clipPath
       clipPathUnits="userSpaceOnUse"
       id="clipPath3564">
      <path
         inkscape:connector-curvature="0"
         d="m 63,43 512.622,0 0,313.129 L 63,356.129 63,43 z"
         id="path3566" />
    </clipPath>
  </defs>
  <sodipodi:namedview
     pagecolor="#ffffff"
     bordercolor="#666666"
     borderopacity="1"
     objecttolerance="10"
     gridtolerance="10"
     guidetolerance="10"
     inkscape:pageopacity="0"
     inkscape:pageshadow="2"
     inkscape:window-width="1280"
     inkscape:window-height="1004"
     id="namedview58"
     showgrid="false"
     fit-margin-top="0"
     fit-margin-left="0"
     fit-margin-right="0"
     fit-margin-bottom="0"
     inkscape:zoom="2.7367973"
     inkscape:cx="53.405145"
     inkscape:cy="50.426994"
     inkscape:window-x="-8"
     inkscape:window-y="-8"
     inkscape:window-maximized="1"
     inkscape:current-layer="svg2"
     showguides="true"
     inkscape:guide-bbox="true" />
  <polygon
     points="315,545 235,375 315,205 395,375 "
     id="polygon10"
     style="fill:none;stroke:#ffffff;stroke-width:40"
     transform="translate(24446.522,14484.647)" />
  <!-- draw the bicycle -->
  <!-- RIGHT -->
  <!-- LANE -->
  <!-- ONLY -->
  <path
     inkscape:connector-curvature="0"
     d="m 38.95725,443.13537 c -20.701,0 -37.5426,-16.84161 -37.5426,-37.54261 l 0,-366.624306 c 0,-20.70805 16.8416,-37.5531899 37.5426,-37.5531899 l 488.8407,0 c 20.701,0 37.5426,16.8451399 37.5426,37.5531899 l 0,366.624306 c 0,20.701 -16.8416,37.54261 -37.5426,37.54261 l -488.8407,0 z"
     style="fill:#ffffff;fill-opacity:1;fill-rule:nonzero;stroke:#000000;stroke-width:2.82222223;stroke-miterlimit:4;stroke-opacity:1;stroke-dasharray:none"
     id="path4260" />
  <path
     inkscape:connector-curvature="0"
     d="m 38.95725,434.10426 c -3.8276,0 -7.5424,-0.75142 -11.0525,-2.24014 -3.3902,-1.45345 -6.4488,-3.50661 -9.0805,-6.13833 -2.6317,-2.63173 -4.699,-5.68678 -6.1383,-9.08403 -1.4887,-3.50661 -2.2437,-7.21784 -2.2437,-11.049 l 0,-366.624306 c 0,-3.82411 0.755,-7.54592 2.2437,-11.05253 1.4393,-3.39725 3.5066,-6.45583 6.1383,-9.08755 2.6317,-2.62467 5.6903,-4.69195 9.0805,-6.12775 3.5101,-1.49225 7.2249,-2.25072 11.0525,-2.25072 l 488.8407,0 c 3.8241,0 7.5424,0.75847 11.049,2.25072 3.3972,1.4358 6.4523,3.50308 9.0805,6.12775 2.6317,2.63172 4.6955,5.6903 6.1383,9.08755 1.4923,3.50661 2.2437,7.22842 2.2437,11.05253 l 0,366.624306 c 0,3.83116 -0.7514,7.54239 -2.2437,11.049 -1.4428,3.39725 -3.5066,6.4523 -6.1383,9.08403 -2.6282,2.63172 -5.6833,4.68488 -9.0805,6.13833 -3.5066,1.48872 -7.2249,2.24014 -11.049,2.24014 l -488.8407,0 z"
     style="fill:#155196;fill-opacity:1;fill-rule:nonzero;stroke:none"
     id="path4268" />
  <path
     inkscape:connector-curvature="0"
     d="m 371.07605,208.41467 -5.715,13.72659 11.43,0 -5.715,-13.72659 z m 12.8517,30.58584 -3.9935,-9.57086 -17.7235,0 -3.997,9.57086 -8.0045,0 17.145,-40.73525 7.433,0 17.0039,40.73525 -7.8634,0 z"
     style="fill:#ffffff;fill-opacity:1;fill-rule:nonzero;stroke:none"
     id="path4272" />
  <path
     inkscape:connector-curvature="0"
     d="m 163.17705,239.00048 0,-17.72356 -18.3727,0 0,17.72356 -7.3166,0 0,-40.73525 7.3166,0 0,15.7233 18.3727,0 0,-15.7233 7.3272,0 0,40.73525 -7.3272,0 z"
     style="fill:#ffffff;fill-opacity:1;fill-rule:nonzero;stroke:none"
     id="path4276" />
  <path
     inkscape:connector-curvature="0"
     d="m 302.14005,198.26489 7.3343,0 0,40.73525 -7.3343,0 0,-40.73525 z"
     style="fill:#ffffff;fill-opacity:1;fill-rule:nonzero;stroke:none"
     id="path4278" />
  <path
     inkscape:connector-curvature="0"
     d="m 398.71655,239.00048 0,-40.73525 7.3166,0 0,34.45228 23.2375,0 0,6.28297 -30.5541,0 z"
     style="fill:#ffffff;fill-opacity:1;fill-rule:nonzero;stroke:none"
     id="path4282" />
  <path
     inkscape:connector-curvature="0"
     d="m 197.20605,204.83748 c -6.1595,0 -9.8884,5.14703 -9.8884,13.73364 0,8.70302 3.7289,13.85711 9.8884,13.85711 7.7399,0 9.599,-7.57414 9.599,-13.85711 0,-8.58661 -3.436,-13.73364 -9.599,-13.73364 m 0,34.88619 c -12.0368,0 -17.3355,-10.8585 -17.3355,-21.15255 0,-13.0175 6.5898,-21.01498 17.3355,-21.01498 10.0259,0 16.9086,8.42787 16.9086,20.87034 0,12.71058 -6.6005,21.29719 -16.9086,21.29719"
     style="fill:#ffffff;fill-opacity:1;fill-rule:nonzero;stroke:none"
     id="path4286" />
  <path
     inkscape:connector-curvature="0"
     d="m 281.92945,205.55364 -12.3049,0 0,10.14942 12.3049,0 c 3.5736,0 5.9972,-2.00378 5.9972,-5.00239 0,-3.13972 -2.4236,-5.14703 -5.9972,-5.14703 m 6.9991,15.875 c -2.286,1.27706 -4.1381,1.56634 -7.2848,1.56634 l -12.0192,0 0,16.00553 -7.4224,0 0,-40.73525 19.4416,0 c 3.1467,0 4.9988,0.42686 7.2848,1.70744 3.8629,2.159 6.29,6.15597 6.29,10.72797 0,4.28625 -2.4271,8.57956 -6.29,10.72797"
     style="fill:#ffffff;fill-opacity:1;fill-rule:nonzero;stroke:none"
     id="path4290" />
  <path
     inkscape:connector-curvature="0"
     d="m 236.21965,220.71956 c -1.8062,-0.49389 -6.3676,-1.58397 -7.9128,-2.49414 -3.0621,-1.80269 -5.4081,-4.7378 -5.4081,-9.10166 0,-6.70984 5.7468,-11.28537 14.0653,-11.28537 6.0395,0 11.056,2.00378 15.2188,6.29003 l -5.4504,4.85775 c -2.5859,-2.71286 -5.8843,-3.99697 -9.7684,-3.99697 -4.1557,0 -6.6005,1.57339 -6.6005,4.13456 0,2.29658 1.4358,3.28788 6.4594,4.43088 5.4574,1.15006 9.0452,2.29306 11.3453,3.43959 3.5878,1.85914 5.8843,5.71147 5.8843,10.14236 0,4.15219 -1.8697,7.28839 -5.7432,9.58144 -2.8716,1.71098 -6.6005,2.71639 -10.3364,2.71639 -7.0414,0 -12.3472,-2.57175 -16.9368,-7.86694 l 5.8843,-4.56847 c 3.0162,3.57364 6.3182,5.14702 10.9079,5.14702 5.1752,0 8.9041,-2.28952 8.9041,-5.29166 0,-3.81706 -4.1628,-4.37092 -10.5128,-6.13481"
     style="fill:#ffffff;fill-opacity:1;fill-rule:nonzero;stroke:none"
     id="path4294" />
  <path
     inkscape:connector-curvature="0"
     d="m 335.24475,205.41606 0,33.58445 -7.1402,0 0,-33.58445 -11.7052,0 0,-7.1508 30.5576,0 0,7.1508 -11.7122,0 z"
     style="fill:#ffffff;fill-opacity:1;fill-rule:nonzero;stroke:none"
     id="path4298" />
  <path
     inkscape:connector-curvature="0"
     d="m 343.00195,133.6152 c -1.8591,-0.99836 -3.9969,-1.56986 -6.1383,-1.56986 l -6.1736,0 0,26.162 6.1736,0 c 2.1414,0 4.1381,-0.58561 5.8561,-1.58045 4.2792,-2.29305 6.2795,-6.00075 6.2795,-11.57463 0,-5.42925 -2.0003,-9.144 -5.9973,-11.43706 m 3.422,29.44283 c -2.8505,1.57692 -6.2759,2.4377 -9.5603,2.4377 l -13.6066,0 0,-40.74231 13.6066,0 c 3.4219,0 6.7098,0.86078 9.712,2.57175 6.2724,3.56659 9.6978,9.72256 9.6978,17.72709 0,8.14563 -3.4254,14.43566 -9.8495,18.00577"
     style="fill:#ffffff;fill-opacity:1;fill-rule:nonzero;stroke:none"
     id="path4302" />
  <path
     inkscape:connector-curvature="0"
     d="m 397.43945,145.18981 0,5.29872 c 0,8.85473 -7.1402,15.71625 -16.1501,15.71625 -12.0086,0 -16.8663,-10.57627 -16.8663,-21.15255 0,-12.43542 6.7169,-21.01498 16.8663,-21.01498 7.2919,0 12.2943,3.85939 15.1518,10.14942 l -7.4331,2.57175 c -1.5733,-3.42547 -4.1451,-5.43278 -7.7187,-5.43278 -5.715,0 -9.5779,5.72206 -9.5779,13.72659 0,6.57225 2.0037,13.86416 9.5779,13.86416 4.004,0 7.5812,-2.72344 8.5795,-6.43466 l -6.7169,0 0,-7.29192 14.2875,0 z"
     style="fill:#ffffff;fill-opacity:1;fill-rule:nonzero;stroke:none"
     id="path4306" />
  <path
     inkscape:connector-curvature="0"
     d="m 500.13985,145.18981 0,5.29872 c 0,8.85473 -7.1473,15.71625 -16.1502,15.71625 -12.0121,0 -16.8698,-10.57627 -16.8698,-21.15255 0,-12.43542 6.7204,-21.01498 16.8698,-21.01498 7.2884,0 12.2872,3.85939 15.1518,10.14942 l -7.4366,2.57175 c -1.5733,-3.42547 -4.1486,-5.43278 -7.7152,-5.43278 -5.7185,0 -9.5779,5.72206 -9.5779,13.72659 0,6.57225 1.9967,13.86416 9.5779,13.86416 3.997,0 7.5741,-2.72344 8.576,-6.43466 l -6.7169,0 0,-7.29192 14.2911,0 z"
     style="fill:#ffffff;fill-opacity:1;fill-rule:nonzero;stroke:none"
     id="path4310" />
  <path
     inkscape:connector-curvature="0"
     d="m 406.81275,124.75305 7.3308,0 0,40.74231 -7.3308,0 0,-40.74231 z"
     style="fill:#ffffff;fill-opacity:1;fill-rule:nonzero;stroke:none"
     id="path4312" />
  <path
     inkscape:connector-curvature="0"
     d="m 243.39205,165.49573 0,-40.74231 7.3201,0 0,34.44522 23.2375,0 0,6.29709 -30.5576,0 z"
     style="fill:#ffffff;fill-opacity:1;fill-rule:nonzero;stroke:none"
     id="path4316" />
  <path
     inkscape:connector-curvature="0"
     d="m 451.43535,165.49573 -19.5228,-28.02114 0,28.02114 -7.179,0 0,-40.74231 7.179,0 18.8031,26.87109 0,-26.87109 7.0414,0 0,40.74231 -6.3217,0 z"
     style="fill:#ffffff;fill-opacity:1;fill-rule:nonzero;stroke:none"
     id="path4320" />
  <path
     inkscape:connector-curvature="0"
     d="m 296.98915,131.32564 c -6.163,0 -9.8883,5.14703 -9.8883,13.72659 0,8.72419 3.7253,13.86416 9.8883,13.86416 7.7364,0 9.5956,-7.58119 9.5956,-13.86416 0,-8.57956 -3.4396,-13.72659 -9.5956,-13.72659 m 0,34.87914 c -12.0297,0 -17.3355,-10.86555 -17.3355,-21.15255 0,-13.00692 6.5864,-21.01498 17.3355,-21.01498 10.026,0 16.9016,8.44198 16.9016,20.87034 0,12.71411 -6.5864,21.29719 -16.9016,21.29719"
     style="fill:#ffffff;fill-opacity:1;fill-rule:nonzero;stroke:none"
     id="path4324" />
  <path
     inkscape:connector-curvature="0"
     d="m 126.19575,134.90281 -5.7115,13.72658 11.4335,0 -5.722,-13.72658 z m 12.8622,30.59289 -4.004,-9.58497 -17.713,0 -4.004,9.58497 -8.0045,0 17.1485,-40.74231 7.4295,0 17.0109,40.74231 -7.8634,0 z"
     style="fill:#ffffff;fill-opacity:1;fill-rule:nonzero;stroke:none"
     id="path4328" />
  <path
     inkscape:connector-curvature="0"
     d="m 99.63115,145.18981 0,5.29872 c 0,8.85473 -7.1437,15.71625 -16.1501,15.71625 -12.0086,0 -16.8664,-10.57627 -16.8664,-21.15255 0,-12.43542 6.7169,-21.01498 16.8664,-21.01498 7.2848,0 12.2978,3.85939 15.1518,10.14942 l -7.4331,2.57175 c -1.5734,-3.42547 -4.1486,-5.43278 -7.7187,-5.43278 -5.7186,0 -9.578,5.72206 -9.578,13.72659 0,6.57225 2.0003,13.86416 9.578,13.86416 4.004,0 7.5776,-2.72344 8.576,-6.43466 l -6.7134,0 0,-7.29192 14.2875,0 z"
     style="fill:#ffffff;fill-opacity:1;fill-rule:nonzero;stroke:none"
     id="path4332" />
  <path
     inkscape:connector-curvature="0"
     d="m 166.58485,147.20773 c -1.8133,-0.50095 -6.3747,-1.59103 -7.9093,-2.49414 -3.0691,-1.78858 -5.408,-4.74486 -5.408,-9.10167 0,-6.70983 5.7396,-11.29241 14.0652,-11.29241 6.0254,0 11.049,2.00377 15.2153,6.29002 l -5.4575,4.87186 c -2.5752,-2.72697 -5.8843,-4.01108 -9.7578,-4.01108 -4.1663,0 -6.6005,1.58045 -6.6005,4.14161 0,2.28953 1.4358,3.28789 6.4594,4.43795 5.4504,1.13594 9.0382,2.28247 11.3347,3.43252 3.5913,1.85914 5.8879,5.71148 5.8879,10.14942 0,4.14161 -1.8662,7.27428 -5.7397,9.57086 -2.8716,1.7145 -6.604,2.71992 -10.3399,2.71992 -7.0273,0 -12.3437,-2.57528 -16.9369,-7.85989 l 5.8773,-4.57553 c 3.0268,3.57364 6.3253,5.13997 10.915,5.13997 5.1681,0 8.9005,-2.28952 8.9005,-5.28461 0,-3.83116 -4.1592,-4.38502 -10.5057,-6.1348"
     style="fill:#ffffff;fill-opacity:1;fill-rule:nonzero;stroke:none"
     id="path4336" />
  <path
     inkscape:connector-curvature="0"
     d="m 202.66385,141.48178 20.3658,0 0,7.2778 -20.3658,0 0,-7.2778 z"
     style="fill:#ffffff;fill-opacity:1;fill-rule:nonzero;stroke:none"
     id="path4338" />
  <path
     inkscape:connector-curvature="0"
     d="m 217.13475,60.286814 c -1.8556,-0.9913 -4.0005,-1.57339 -6.1383,-1.57339 l -6.1807,0 0,26.15848 6.1807,0 c 2.1378,0 4.1416,-0.5715 5.8526,-1.56281 4.2862,-2.29305 6.2759,-6.00428 6.2759,-11.58522 0,-5.43631 -1.9897,-9.144 -5.9902,-11.43706 m 3.429,29.44284 c -2.854,1.57339 -6.283,2.43416 -9.5673,2.43416 l -13.5996,0 0,-40.73878 13.5996,0 c 3.4254,0 6.7133,0.86078 9.7049,2.57881 6.283,3.56658 9.7084,9.72608 9.7084,17.72003 0,8.14211 -3.4254,14.43919 -9.846,18.00578"
     style="fill:#ffffff;fill-opacity:1;fill-rule:nonzero;stroke:none"
     id="path4342" />
  <path
     inkscape:connector-curvature="0"
     d="m 82.59905,58.713404 0,8.29733 12.7635,0 0,7.43303 -12.7635,0 0,17.72002 -7.4542,0 0,-40.73877 30.5471,0 0,7.28839 -23.0929,0 z"
     style="fill:#ffffff;fill-opacity:1;fill-rule:nonzero;stroke:none"
     id="path4346" />
  <path
     inkscape:connector-curvature="0"
     d="m 128.72835,58.004314 c -6.1525,0 -9.8778,5.13997 -9.8778,13.71953 0,8.72067 3.7253,13.86064 9.8778,13.86064 7.7399,0 9.599,-7.57061 9.599,-13.86064 0,-8.57956 -3.429,-13.71953 -9.599,-13.71953 m 0,34.87561 c -12.0298,0 -17.3355,-10.8585 -17.3355,-21.15608 0,-13.01044 6.5969,-21.00792 17.3355,-21.00792 10.04,0 16.9051,8.43139 16.9051,20.87034 0,12.71411 -6.5899,21.29366 -16.9051,21.29366"
     style="fill:#ffffff;fill-opacity:1;fill-rule:nonzero;stroke:none"
     id="path4350" />
  <path
     inkscape:connector-curvature="0"
     d="m 171.11805,58.004314 c -6.1595,0 -9.8884,5.13997 -9.8884,13.71953 0,8.72067 3.7289,13.86064 9.8884,13.86064 7.7364,0 9.5991,-7.57061 9.5991,-13.86064 0,-8.57956 -3.4396,-13.71953 -9.5991,-13.71953 m 0,34.87561 c -12.0332,0 -17.332,-10.8585 -17.332,-21.15608 0,-13.01044 6.5899,-21.00792 17.332,-21.00792 10.026,0 16.9016,8.43139 16.9016,20.87034 0,12.71411 -6.5864,21.29366 -16.9016,21.29366"
     style="fill:#ffffff;fill-opacity:1;fill-rule:nonzero;stroke:none"
     id="path4354" />
  <path
     inkscape:connector-curvature="0"
     d="m 461.05905,92.163814 0,-40.73878 29.8344,0 0,7.28839 -22.3767,0 0,7.57414 12.192,0 0,7.43303 -12.192,0 0,11.15131 23.0929,0 0,7.29191 -30.5506,0 z"
     style="fill:#ffffff;fill-opacity:1;fill-rule:nonzero;stroke:none"
     id="path4358" />
  <path
     inkscape:connector-curvature="0"
     d="m 357.15225,92.163814 0,-17.72002 -18.3762,0 0,17.72002 -7.3166,0 0,-40.73878 7.3166,0 0,15.72331 18.3762,0 0,-15.72331 7.3237,0 0,40.73878 -7.3237,0 z"
     style="fill:#ffffff;fill-opacity:1;fill-rule:nonzero;stroke:none"
     id="path4362" />
  <path
     inkscape:connector-curvature="0"
     d="m 444.14725,92.163814 -19.5227,-28.01408 0,28.01408 -7.1755,0 0,-40.73878 7.1755,0 18.8101,26.87109 0,-26.87109 7.0344,0 0,40.73878 -6.3218,0 z"
     style="fill:#ffffff;fill-opacity:1;fill-rule:nonzero;stroke:none"
     id="path4366" />
  <path
     inkscape:connector-curvature="0"
     d="m 391.17025,58.004314 c -6.1524,0 -9.8813,5.13997 -9.8813,13.71953 0,8.72067 3.7289,13.86064 9.8813,13.86064 7.7364,0 9.6097,-7.57061 9.6097,-13.86064 0,-8.57956 -3.4396,-13.71953 -9.6097,-13.71953 m 0,34.87561 c -12.0297,0 -17.3284,-10.8585 -17.3284,-21.15608 0,-13.01044 6.5863,-21.00792 17.3284,-21.00792 10.0365,0 16.9157,8.43139 16.9157,20.87034 0,12.71411 -6.5899,21.29366 -16.9157,21.29366"
     style="fill:#ffffff;fill-opacity:1;fill-rule:nonzero;stroke:none"
     id="path4370" />
  <path
     inkscape:connector-curvature="0"
     d="m 311.24525,58.713404 -12.3013,0 0,10.15647 12.3013,0 c 3.5702,0 6.0043,-2.00378 6.0043,-5.00945 0,-3.13972 -2.4341,-5.14702 -6.0043,-5.14702 m 6.9992,15.875 c -2.286,1.29116 -4.1417,1.56633 -7.2814,1.56633 l -12.0191,0 0,16.00905 -7.426,0 0,-40.73877 19.4451,0 c 3.1397,0 4.9954,0.43391 7.2814,1.70744 3.8593,2.159 6.2829,6.16303 6.2829,10.72797 0,4.29331 -2.4236,8.57956 -6.2829,10.72798"
     style="fill:#ffffff;fill-opacity:1;fill-rule:nonzero;stroke:none"
     id="path4374" />
  <path
     inkscape:connector-curvature="0"
     d="m 250.77565,68.153394 20.3729,0 0,7.29192 -20.3729,0 0,-7.29192 z"
     style="fill:#ffffff;fill-opacity:1;fill-rule:nonzero;stroke:none"
     id="path4376" />
  <path
     inkscape:connector-curvature="0"
     d="m 208.25855,281.71128 -5.715,13.73364 11.4335,0 -5.7185,-13.73364 z m 12.8622,30.59289 -4.004,-9.57791 -17.7165,0 -4.004,9.57791 -8.0081,0 17.1556,-40.72819 7.426,0 17.0074,40.72819 -7.8564,0 z"
     style="fill:#ffffff;fill-opacity:1;fill-rule:nonzero;stroke:none"
     id="path4380" />
  <path
     inkscape:connector-curvature="0"
     d="m 165.97105,313.02031 c -10.7209,0 -17.2932,-8.43139 -17.2932,-21.15255 0,-12.86228 6.5723,-21.01498 17.2932,-21.01498 6.5758,0 12.58,3.28789 15.7233,9.00642 l -6.4347,3.43958 c -1.1395,-1.72508 -1.7145,-2.29658 -2.854,-3.00566 -1.5769,-1.28764 -4.2897,-2.14136 -6.4346,-2.14136 -7.433,0 -9.8602,7.28133 -9.8602,13.57136 0,8.86178 3.7113,14.00175 9.8602,14.00175 3.7147,0 5.7185,-1.27353 9.2886,-5.13997 l 6.4347,3.43252 c -3.0022,5.71853 -9.1475,9.00289 -15.7233,9.00289"
     style="fill:#ffffff;fill-opacity:1;fill-rule:nonzero;stroke:none"
     id="path4384" />
  <path
     inkscape:connector-curvature="0"
     d="m 418.07665,292.00534 0,5.29167 c 0,8.86177 -7.1438,15.7233 -16.1537,15.7233 -11.998,0 -16.8592,-10.58333 -16.8592,-21.15255 0,-12.43542 6.7133,-21.01498 16.8592,-21.01498 7.2919,0 12.2943,3.86645 15.1553,10.14942 l -7.433,2.57881 c -1.5734,-3.43253 -4.1416,-5.42925 -7.7223,-5.42925 -5.715,0 -9.5673,5.71852 -9.5673,13.716 0,6.5793 1.9896,13.85711 9.5673,13.85711 4.0076,0 7.5812,-2.70228 8.5831,-6.42056 l -6.7204,0 0,-7.29897 14.291,0 z"
     style="fill:#ffffff;fill-opacity:1;fill-rule:nonzero;stroke:none"
     id="path4388" />
  <path
     inkscape:connector-curvature="0"
     d="m 324.74965,271.57564 7.3307,0 0,40.72819 -7.3307,0 0,-40.72819 z"
     style="fill:#ffffff;fill-opacity:1;fill-rule:nonzero;stroke:none"
     id="path4390" />
  <path
     inkscape:connector-curvature="0"
     d="m 267.04185,312.30417 0,-24.87436 -12.0508,24.87436 -11.9098,-24.87436 0,24.87436 -7.1755,0 0,-40.72819 7.1755,0 11.9098,24.14411 12.0508,-24.14411 7.1755,0 0,40.72819 -7.1755,0 z"
     style="fill:#ffffff;fill-opacity:1;fill-rule:nonzero;stroke:none"
     id="path4394" />
  <path
     inkscape:connector-curvature="0"
     d="m 369.37215,312.30417 -19.5228,-28.01408 0,28.01408 -7.1755,0 0,-40.72819 7.1755,0 18.8066,26.87108 0,-26.87108 7.0344,0 0,40.72819 -6.3182,0 z"
     style="fill:#ffffff;fill-opacity:1;fill-rule:nonzero;stroke:none"
     id="path4398" />
  <path
     inkscape:connector-curvature="0"
     d="m 304.53895,278.86084 -12.3049,0 0,10.14942 12.3049,0 c 3.5701,0 6.0043,-2.00731 6.0043,-5.00945 0,-3.13619 -2.4342,-5.13997 -6.0043,-5.13997 m 6.9991,15.86794 c -2.286,1.28764 -4.138,1.56281 -7.2883,1.56281 l -12.0157,0 0,16.01258 -7.4224,0 0,-40.72819 19.4381,0 c 3.1503,0 5.0023,0.4198 7.2883,1.71097 3.8559,2.14136 6.2865,6.14539 6.2865,10.71386 0,4.29331 -2.4306,8.58309 -6.2865,10.72797"
     style="fill:#ffffff;fill-opacity:1;fill-rule:nonzero;stroke:none"
     id="path4402" />
  <path
     inkscape:connector-curvature="0"
     d="m 153.55675,394.08512 c -10.7209,0 -17.3002,-8.42786 -17.3002,-21.1455 0,-12.87286 6.5793,-21.01497 17.3002,-21.01497 6.5723,0 12.5695,3.28436 15.7163,9.00288 l -6.4312,3.43253 c -1.143,-1.7145 -1.7145,-2.286 -2.8539,-3.00214 -1.5734,-1.29116 -4.2898,-2.13783 -6.4312,-2.13783 -7.4401,0 -9.8672,7.28486 -9.8672,13.57489 0,8.8653 3.7183,14.00528 9.8672,14.00528 3.7042,0 5.715,-1.28764 9.2851,-5.13998 l 6.4312,3.42548 c -3.0022,5.71852 -9.144,8.99936 -15.7163,8.99936"
     style="fill:#ffffff;fill-opacity:1;fill-rule:nonzero;stroke:none"
     id="path4406" />
  <path
     inkscape:connector-curvature="0"
     d="m 284.38085,361.50256 c -1.8556,-1.00894 -3.9969,-1.57339 -6.1418,-1.57339 l -6.1772,0 0,26.162 6.1772,0 c 2.1449,0 4.1416,-0.57855 5.8561,-1.57691 4.2792,-2.286 6.2794,-6.00781 6.2794,-11.57464 0,-5.43631 -2.0002,-9.15106 -5.9937,-11.43706 m 3.422,29.43931 c -2.8505,1.58044 -6.283,2.43416 -9.5638,2.43416 l -13.6031,0 0,-40.73525 13.6031,0 c 3.4255,0 6.7133,0.85373 9.712,2.56823 6.2759,3.57716 9.7049,9.7155 9.7049,17.73061 0,8.14211 -3.429,14.43566 -9.8531,18.00225"
     style="fill:#ffffff;fill-opacity:1;fill-rule:nonzero;stroke:none"
     id="path4410" />
  <path
     inkscape:connector-curvature="0"
     d="m 98.77745,393.37606 0,-40.73525 29.8344,0 0,7.28839 -22.3732,0 0,7.57414 12.192,0 0,7.43303 -12.192,0 0,11.15483 23.0894,0 0,7.28486 -30.5506,0 z"
     style="fill:#ffffff;fill-opacity:1;fill-rule:nonzero;stroke:none"
     id="path4414" />
  <path
     inkscape:connector-curvature="0"
     d="m 429.27375,373.07723 0,5.29167 c 0,8.86177 -7.1472,15.71625 -16.1501,15.71625 -12.0121,0 -16.8699,-10.56923 -16.8699,-21.1455 0,-12.446 6.7205,-21.01498 16.8699,-21.01498 7.2954,0 12.2943,3.85587 15.1518,10.14942 l -7.4366,2.56822 c -1.5698,-3.429 -4.1416,-5.42219 -7.7152,-5.42219 -5.715,0 -9.5779,5.70442 -9.5779,13.71953 0,6.57225 2.0002,13.86064 9.5779,13.86064 4.0005,0 7.5706,-2.71287 8.5725,-6.43467 l -6.7134,0 0,-7.28839 14.291,0 z"
     style="fill:#ffffff;fill-opacity:1;fill-rule:nonzero;stroke:none"
     id="path4418" />
  <path
     inkscape:connector-curvature="0"
     d="m 464.34345,393.37606 0,-17.72355 -18.3762,0 0,17.72355 -7.3237,0 0,-40.73525 7.3237,0 0,15.72331 18.3762,0 0,-15.72331 7.3131,0 0,40.73525 -7.3131,0 z"
     style="fill:#ffffff;fill-opacity:1;fill-rule:nonzero;stroke:none"
     id="path4422" />
  <path
     inkscape:connector-curvature="0"
     d="m 379.56075,352.64045 7.3307,0 0,40.73525 -7.3307,0 0,-40.73525 z"
     style="fill:#ffffff;fill-opacity:1;fill-rule:nonzero;stroke:none"
     id="path4424" />
  <path
     inkscape:connector-curvature="0"
     d="m 247.72765,393.37606 -19.5227,-28.01761 0,28.01761 -7.172,0 0,-40.73525 7.172,0 18.803,26.87109 0,-26.87109 7.0415,0 0,40.73525 -6.3218,0 z"
     style="fill:#ffffff;fill-opacity:1;fill-rule:nonzero;stroke:none"
     id="path4428" />
  <path
     inkscape:connector-curvature="0"
     d="m 194.75065,359.22009 c -6.156,0 -9.8778,5.13997 -9.8778,13.71953 0,8.72066 3.7218,13.86064 9.8778,13.86064 7.7399,0 9.6026,-7.57767 9.6026,-13.86064 0,-8.57956 -3.4396,-13.71953 -9.6026,-13.71953 m 0,34.86503 c -12.0297,0 -17.3285,-10.8585 -17.3285,-21.1455 0,-13.01045 6.5864,-21.01497 17.3285,-21.01497 10.0295,0 16.9086,8.43138 16.9086,20.87033 0,12.71764 -6.5863,21.29014 -16.9086,21.29014"
     style="fill:#ffffff;fill-opacity:1;fill-rule:nonzero;stroke:none"
     id="path4432" />
  <path
     inkscape:connector-curvature="0"
     d="m 357.40945,359.92917 -11.7334,0 0,10.14236 11.7334,0 c 3.5736,0 5.8561,-1.99672 5.8561,-5.00238 0,-3.13973 -2.2825,-5.13998 -5.8561,-5.13998 m 5.8561,33.44686 -6.5723,-16.00552 -11.0172,0 0,16.00552 -7.2849,0 0,-40.73525 18.8772,0 c 2.9986,0 4.8612,0.41981 6.9955,1.70745 3.8594,2.15194 6.2901,6.14539 6.2901,10.72092 0,4.56847 -2.4307,8.57955 -6.5758,10.86555 l 7.4295,17.44133 -8.1421,0 z"
     style="fill:#ffffff;fill-opacity:1;fill-rule:nonzero;stroke:none"
     id="path4436" />
  <path
     inkscape:connector-curvature="0"
     d="m 72.79535,375.09509 c -1.8062,-0.49742 -6.3641,-1.59808 -7.9022,-2.49414 -3.0656,-1.79917 -5.4081,-4.74839 -5.4081,-9.10167 0,-6.71688 5.7397,-11.28536 14.0618,-11.28536 6.0289,0 11.0595,1.98967 15.2188,6.28298 l -5.4575,4.85775 c -2.5788,-2.71639 -5.8808,-3.99698 -9.7613,-3.99698 -4.1628,0 -6.604,1.56986 -6.604,4.14161 0,2.29306 1.4358,3.28789 6.4593,4.43089 5.4645,1.15006 9.0452,2.286 11.3418,3.43606 3.5913,1.85561 5.8914,5.715 5.8914,10.14236 0,4.14867 -1.8697,7.29192 -5.7432,9.58497 -2.8716,1.71097 -6.604,2.71639 -10.3399,2.71639 -7.0344,0 -12.3402,-2.58586 -16.9369,-7.87047 l 5.8843,-4.58258 c 3.0128,3.59127 6.3148,5.15408 10.9079,5.15408 5.1682,0 8.9006,-2.286 8.9006,-5.28461 0,-3.83117 -4.1522,-4.3815 -10.5128,-6.13128"
     style="fill:#ffffff;fill-opacity:1;fill-rule:nonzero;stroke:none"
     id="path4440" />
  <path
     inkscape:connector-curvature="0"
     d="m 497.43085,359.78453 0,33.5915 -7.1367,0 0,-33.5915 -11.7087,0 0,-7.14375 30.5541,0 0,7.14375 -11.7087,0 z"
     style="fill:#ffffff;fill-opacity:1;fill-rule:nonzero;stroke:none"
     id="path4444" />
</svg>
