<?xml version="1.0" encoding="UTF-8" standalone="no"?>
<svg
   xmlns:dc="http://purl.org/dc/elements/1.1/"
   xmlns:cc="http://creativecommons.org/ns#"
   xmlns:rdf="http://www.w3.org/1999/02/22-rdf-syntax-ns#"
   xmlns:svg="http://www.w3.org/2000/svg"
   xmlns="http://www.w3.org/2000/svg"
   xmlns:sodipodi="http://sodipodi.sourceforge.net/DTD/sodipodi-0.dtd"
   xmlns:inkscape="http://www.inkscape.org/namespaces/inkscape"
   width="81.595718"
   height="81.595718"
   viewBox="0 0 230.28125 230.28124"
   version="1.1"
   id="svg2"
   inkscape:version="0.48.2 r9819"
   sodipodi:docname="AJAX1.svg">
  <metadata
     id="metadata62">
    <rdf:RDF>
      <cc:Work
         rdf:about="">
        <dc:format>image/svg+xml</dc:format>
        <dc:type
           rdf:resource="http://purl.org/dc/dcmitype/StillImage" />
        <dc:title />
      </cc:Work>
    </rdf:RDF>
  </metadata>
  <defs
     id="defs60">
    <clipPath
       clipPathUnits="userSpaceOnUse"
       id="clipPath3564">
      <path
         inkscape:connector-curvature="0"
         d="m 63,43 512.622,0 0,313.129 L 63,356.129 63,43 z"
         id="path3566" />
    </clipPath>
  </defs>
  <sodipodi:namedview
     pagecolor="#ffffff"
     bordercolor="#666666"
     borderopacity="1"
     objecttolerance="10"
     gridtolerance="10"
     guidetolerance="10"
     inkscape:pageopacity="0"
     inkscape:pageshadow="2"
     inkscape:window-width="1280"
     inkscape:window-height="1004"
     id="namedview58"
     showgrid="false"
     fit-margin-top="0"
     fit-margin-left="0"
     fit-margin-right="0"
     fit-margin-bottom="0"
     inkscape:zoom="3.8704159"
     inkscape:cx="82.893678"
     inkscape:cy="21.245461"
     inkscape:window-x="-8"
     inkscape:window-y="-8"
     inkscape:window-maximized="1"
     inkscape:current-layer="svg2"
     showguides="true"
     inkscape:guide-bbox="true" />
  <polygon
     points="315,205 395,375 315,545 235,375 "
     id="polygon10"
     style="fill:none;stroke:#ffffff;stroke-width:40"
     transform="translate(28002.865,4907.8663)" />
  <!-- draw the bicycle -->
  <!-- RIGHT -->
  <!-- LANE -->
  <!-- ONLY -->
  <path
     inkscape:connector-curvature="0"
     d="m 21.10525,0.8444427 188.087,0 c 11.14072,0 20.2565,9.1157 20.2565,20.2565003 l 0,188.086997 c 0,11.1442 -9.11578,20.26 -20.2565,20.26 l -188.087,0 c -11.14072,0 -20.2565,-9.1158 -20.2565,-20.26 l 0,-188.086997 c 0,-11.1408003 9.11578,-20.2565003 20.2565,-20.2565003"
     style="fill:#ffffff;fill-opacity:1;fill-rule:nonzero;stroke:#000000;stroke-width:1.69333339;stroke-miterlimit:4;stroke-opacity:1;stroke-dasharray:none"
     id="path3070" />
  <path
     inkscape:connector-curvature="0"
     d="m 21.10525,6.6331427 188.087,0 c 7.95867,0 14.46742,6.5088003 14.46742,14.4674003 l 0,188.086997 c 0,7.9622 -6.50875,14.471 -14.46742,14.471 l -188.087,0 c -7.95866,0 -14.47094,-6.5088 -14.47094,-14.471 l 0,-188.086997 c 0,-7.9586 6.51228,-14.4674003 14.47094,-14.4674003"
     style="fill:#155196;fill-opacity:1;fill-rule:evenodd;stroke:none"
     id="path3078" />
  <path
     d="m 36.999333,197.34502 40.611778,0 0,-170.134141 0.05644,-0.0071 c 0,-3.806472 3.160889,-6.875638 6.963834,-6.875638 0.02822,0 0.02117,-0.03528 0.03528,-0.03528 L 145.796,20.254097 c 3.78177,0 6.91091,3.182056 6.95325,6.960306 l 0,11.786305 16.52764,13.553722 c 3.06563,2.310695 5.07294,5.983112 5.26344,9.800167 -0.003,23.847778 0,45.286083 0,64.106773 0,21.50181 12.75644,37.73664 12.75644,54.0632 0,8.20208 -6.731,14.88722 -14.88369,14.88722 -6.87564,0 -13.29972,-5.40456 -15.14475,-12.14261 -2.90689,-10.61507 -1.32997,-66.46333 -1.45344,-78.8035 l -3.10798,0 0,92.87934 37.16514,0 0,13.40909 -152.872717,0 0,-13.40909 z"
     style="fill:#ffffff;fill-opacity:1;fill-rule:evenodd;stroke:none"
     id="path4392"
     inkscape:connector-curvature="0" />
  <path
     d="m 163.66772,99.780797 c 0,-3.122084 -2.54,-5.669139 -5.59858,-5.669139 l -5.51392,-0.22225 0,-44.446473 3.23144,2.483556 0,17.723556 10.86556,-0.0071 c 0.15875,20.154194 0.32455,40.308393 0.4833,60.462583 0.0282,20.06247 11.54642,37.79661 11.88509,49.35361 0.11641,3.83822 -3.12914,6.97089 -6.97442,6.97089 -1.96144,0 -4.58611,-0.99836 -6.24769,-3.7465 -4.67078,-7.76464 -2.04611,-72.84156 -2.13078,-82.902777"
     style="fill:#155196;fill-opacity:1;fill-rule:evenodd;stroke:none"
     id="path4396"
     inkscape:connector-curvature="0" />
  <path
     d="m 92.251389,29.884935 45.663551,0 c 2.45886,0 4.46264,2.014361 4.46264,4.473223 l 0,34.872083 c 0,2.458861 -2.00378,4.469694 -4.46264,4.469694 l -45.663551,0 c -2.458861,0 -4.469695,-2.010833 -4.469695,-4.469694 l 0,-34.872083 c 0,-2.458862 2.010834,-4.473223 4.469695,-4.473223"
     style="fill:#155196;fill-opacity:1;fill-rule:evenodd;stroke:none"
     id="path4400"
     inkscape:connector-curvature="0" />
  <path
     d="m 102.60189,117.72307 0,-37.337996 27.34733,0 0,6.681611 -20.51403,0 0,6.942667 11.176,0 0,6.812138 -11.176,0 0,10.21997 21.16667,0 0,6.68161 -27.99997,0 z"
     style="fill:#155196;fill-opacity:1;fill-rule:nonzero;stroke:none"
     id="path4404"
     inkscape:connector-curvature="0" />
  <path
     d="m 114.82564,205.57886 c -5.13292,0 -9.73667,-1.31234 -14.478,-4.19453 l 3.556,-5.63034 c 3.28789,1.96145 7.10494,3.0092 10.922,3.0092 5.65503,0 9.0805,-2.48708 9.0805,-6.68161 0,-1.96145 -0.92428,-3.92995 -2.37067,-5.10822 -1.31586,-1.04775 -3.29494,-1.56987 -6.05719,-1.56987 -2.49414,0 -4.4697,0.39159 -7.23195,1.43934 l -6.71336,-1.70392 1.18534,-17.55422 24.99783,0 -0.13053,6.55108 -18.54905,0 -0.39864,5.36928 c 3.03036,-0.65264 4.87186,-0.91722 7.24252,-0.91722 8.54781,0 14.72848,5.76791 14.72848,13.49375 0,7.86341 -6.57225,13.49728 -15.78328,13.49728"
     style="fill:#155196;fill-opacity:1;fill-rule:nonzero;stroke:none"
     id="path4408"
     inkscape:connector-curvature="0" />
  <path
     d="m 115.47828,130.01033 c -4.60022,0 -7.23195,1.31233 -7.23195,3.40783 0,2.22603 2.63173,3.53836 7.23195,3.53836 4.6108,0 7.24253,-1.31233 7.24253,-3.53836 0,-2.0955 -2.63173,-3.40783 -7.24253,-3.40783 m 0,13.62428 c -5.39397,0 -8.41728,2.09902 -8.41728,5.76791 0,1.83092 1.05128,3.66889 2.76225,4.71664 1.05481,0.65264 3.42194,1.04775 5.65503,1.04775 3.16441,0 5.13291,-0.39511 6.44878,-1.57339 1.31586,-1.1818 1.97202,-2.62114 1.97202,-4.191 0,-3.66889 -3.0233,-5.76791 -8.4208,-5.76791 m 0,18.34091 c -9.20397,0 -15.13064,-4.97769 -15.13064,-12.573 0,-3.53836 1.44639,-6.55461 4.21217,-9.04169 -2.36362,-2.75167 -3.02684,-4.32153 -3.02684,-6.81214 0,-6.15597 5.65856,-10.21997 13.94531,-10.21997 8.4208,0 13.95236,4.064 13.95236,10.21997 0,2.49061 -0.6597,4.06047 -2.89278,6.81214 2.7552,2.48708 4.07106,5.50333 4.07106,9.04169 0,8.90764 -7.366,12.573 -15.13064,12.573"
     style="fill:#155196;fill-opacity:1;fill-rule:nonzero;stroke:none"
     id="path4412"
     inkscape:connector-curvature="0" />
</svg>
