<?xml version="1.0" encoding="UTF-8" standalone="no"?>
<svg
   xmlns:dc="http://purl.org/dc/elements/1.1/"
   xmlns:cc="http://creativecommons.org/ns#"
   xmlns:rdf="http://www.w3.org/1999/02/22-rdf-syntax-ns#"
   xmlns:svg="http://www.w3.org/2000/svg"
   xmlns="http://www.w3.org/2000/svg"
   xmlns:sodipodi="http://sodipodi.sourceforge.net/DTD/sodipodi-0.dtd"
   xmlns:inkscape="http://www.inkscape.org/namespaces/inkscape"
   width="81.606789"
   height="41.102364"
   viewBox="0 0 230.31249 115.99999"
   version="1.1"
   id="svg2"
   inkscape:version="0.48.2 r9819"
   sodipodi:docname="MUTCD D9-13bP.svg">
  <metadata
     id="metadata62">
    <rdf:RDF>
      <cc:Work
         rdf:about="">
        <dc:format>image/svg+xml</dc:format>
        <dc:type
           rdf:resource="http://purl.org/dc/dcmitype/StillImage" />
        <dc:title></dc:title>
      </cc:Work>
    </rdf:RDF>
  </metadata>
  <defs
     id="defs60" />
  <sodipodi:namedview
     pagecolor="#ffffff"
     bordercolor="#666666"
     borderopacity="1"
     objecttolerance="10"
     gridtolerance="10"
     guidetolerance="10"
     inkscape:pageopacity="0"
     inkscape:pageshadow="2"
     inkscape:window-width="1280"
     inkscape:window-height="1004"
     id="namedview58"
     showgrid="false"
     fit-margin-top="0"
     fit-margin-left="0"
     fit-margin-right="0"
     fit-margin-bottom="0"
     inkscape:zoom="5.9341336"
     inkscape:cx="46.057449"
     inkscape:cy="1.2926126"
     inkscape:window-x="-8"
     inkscape:window-y="-8"
     inkscape:window-maximized="1"
     inkscape:current-layer="svg2"
     showguides="true"
     inkscape:guide-bbox="true" />
  <polygon
     points="235,375 315,205 395,375 315,545 "
     id="polygon10"
     style="fill:none;stroke:#ffffff;stroke-width:40"
     transform="translate(468.5624,20341.812)" />
  <!-- draw the bicycle -->
  <!-- RIGHT -->
  <!-- LANE -->
  <!-- ONLY -->
  <path
     d="m 21.19468,0.85257296 187.92119,0 c 11.19011,0 20.34117,9.15106004 20.34117,20.33411004 l 0,73.62825 c 0,11.183057 -9.15106,20.337637 -20.34117,20.337637 l -187.92119,0 c -11.18306,0 -20.33411,-9.15458 -20.33411,-20.337637 l 0,-73.62825 c 0,-11.18305 9.15105,-20.33411004 20.33411,-20.33411004"
     style="fill:#ffffff;fill-opacity:1;fill-rule:nonzero;stroke:#000000;stroke-width:1.69333327;stroke-miterlimit:4;stroke-opacity:1;stroke-dasharray:none"
     id="path3586"
     inkscape:connector-curvature="0" />
  <path
     d="m 21.19468,5.929043 187.92119,0 c 8.39964,0 15.2647,6.86506 15.2647,15.25764 l 0,73.62825 c 0,8.392577 -6.86506,15.261167 -15.2647,15.261167 l -187.92119,0 c -8.39258,0 -15.25411,-6.86859 -15.25411,-15.261167 l 0,-73.62825 c 0,-8.39258 6.86153,-15.25764 15.25411,-15.25764"
     style="fill:#155196;fill-opacity:1;fill-rule:evenodd;stroke:none"
     id="path3594"
     inkscape:connector-curvature="0" />
  <path
     d="m 63.19993,23.543243 0,24.76852 -4.11339,0 0,-24.76852 -5.21053,0 0,-3.81353 14.5415,0 0,3.81353 -5.21758,0 z"
     style="fill:#ffffff;fill-opacity:1;fill-rule:nonzero;stroke:none"
     id="path3598"
     inkscape:connector-curvature="0" />
  <path
     d="m 80.65185,23.740793 -4.21217,0 0,7.22136 4.21217,0 c 2.40594,0 3.70769,-1.30527 3.70769,-3.60891 0,-2.20839 -1.50283,-3.61245 -3.70769,-3.61245 m 3.51014,24.57097 -3.81353,-13.44083 -3.90878,0 0,13.44083 -4.10986,0 0,-28.58205 8.52311,0 c 4.51203,0 7.52122,3.00567 7.52122,7.62353 0,3.40783 -1.40405,5.91255 -4.10986,6.91797 l 4.10986,14.04055 -4.21216,0 z"
     style="fill:#ffffff;fill-opacity:1;fill-rule:nonzero;stroke:none"
     id="path3602"
     inkscape:connector-curvature="0" />
  <path
     d="m 100.00876,28.256353 -2.0073,8.21972 4.11338,0 -2.10608,-8.21972 z m 5.11528,20.05541 -2.00731,-7.82461 -6.11716,0 -1.905,7.82461 -4.11339,0 7.12258,-28.58205 4.01108,0 7.11906,28.58205 -4.10986,0 z"
     style="fill:#ffffff;fill-opacity:1;fill-rule:nonzero;stroke:none"
     id="path3606"
     inkscape:connector-curvature="0" />
  <path
     d="m 128.0934,44.798103 c -1.40758,2.30716 -4.11339,4.01461 -6.82272,4.01461 -2.80811,0 -5.61622,-1.60161 -7.02028,-4.01461 -0.80081,-1.50284 -1.10419,-2.70934 -1.10419,-5.01297 l 0,-20.05542 4.11338,0 0,20.55989 c 0,2.70228 1.60514,4.5085 4.01109,4.5085 2.20486,0 3.81,-1.80622 3.81,-4.5085 l 0,-20.55989 4.11339,0 0,20.05542 c 0,2.30363 -0.30339,3.51013 -1.10067,5.01297"
     style="fill:#ffffff;fill-opacity:1;fill-rule:nonzero;stroke:none"
     id="path3610"
     inkscape:connector-curvature="0" />
  <path
     d="m 150.15612,48.311763 0,-16.04786 -5.31283,16.04786 -5.31636,-16.04786 0,16.04786 -4.10986,0 0,-28.58205 4.10986,0 5.31636,16.04433 5.31283,-16.04433 4.11339,0 0,28.58205 -4.11339,0 z"
     style="fill:#ffffff;fill-opacity:1;fill-rule:nonzero;stroke:none"
     id="path3614"
     inkscape:connector-curvature="0" />
  <path
     d="m 167.31171,28.256353 -2.00731,8.21972 4.10986,0 -2.10255,-8.21972 z m 5.11175,20.05541 -2.00378,-7.82461 -6.1207,0 -1.905,7.82461 -4.10986,0 7.11906,-28.58205 4.01108,0 7.12258,28.58205 -4.11338,0 z"
     style="fill:#ffffff;fill-opacity:1;fill-rule:nonzero;stroke:none"
     id="path3618"
     inkscape:connector-curvature="0" />
  <path
     d="m 69.97326,74.957073 c -0.40216,-2.80811 -1.50989,-4.11339 -3.41136,-4.11339 -3.30905,0 -4.51203,2.61056 -4.51203,10.033 0,8.21972 1.40053,11.52878 4.9142,11.52878 2.40242,0 3.00919,-2.00378 3.00919,-4.10986 l 4.10634,0 c -0.0952,4.71311 -3.10798,8.12447 -7.11553,8.12447 -6.1207,0 -8.8265,-4.91772 -8.8265,-15.44814 0,-9.22514 2.90689,-14.13933 8.52311,-14.13933 2.30717,0 4.31094,1.00541 5.61622,2.90689 1.1042,1.40758 1.50636,2.61408 1.8027,5.21758 l -4.10634,0 z"
     style="fill:#ffffff;fill-opacity:1;fill-rule:nonzero;stroke:none"
     id="path3622"
     inkscape:connector-curvature="0" />
  <path
     d="m 79.80165,95.915603 0,-28.57853 13.44084,0 0,4.00756 -9.33098,0 0,7.22136 5.91961,0 0,3.91583 -5.91961,0 0,9.42269 10.43164,0 0,4.01109 -14.5415,0 z"
     style="fill:#ffffff;fill-opacity:1;fill-rule:nonzero;stroke:none"
     id="path3626"
     inkscape:connector-curvature="0" />
  <path
     d="m 112.09493,95.915603 -8.81945,-19.15231 0,19.15231 -4.11691,0 0,-28.57853 4.11691,0 7.81756,17.14853 0,-17.14853 4.11339,0 0,28.57853 -3.1115,0 z"
     style="fill:#ffffff;fill-opacity:1;fill-rule:nonzero;stroke:none"
     id="path3630"
     inkscape:connector-curvature="0" />
  <path
     d="m 128.54848,71.147073 0,24.76853 -4.11339,0 0,-24.76853 -5.21758,0 0,-3.81 14.54503,0 0,3.81 -5.21406,0 z"
     style="fill:#ffffff;fill-opacity:1;fill-rule:nonzero;stroke:none"
     id="path3634"
     inkscape:connector-curvature="0" />
  <path
     d="m 137.67132,95.915603 0,-28.57853 13.44083,0 0,4.00756 -9.32744,0 0,7.22136 5.91608,0 0,3.91583 -5.91608,0 0,9.42269 10.43163,0 0,4.01109 -14.54502,0 z"
     style="fill:#ffffff;fill-opacity:1;fill-rule:nonzero;stroke:none"
     id="path3638"
     inkscape:connector-curvature="0" />
  <path
     d="m 165.35379,71.344633 -4.20864,0 0,7.22136 4.20864,0 c 2.40594,0 3.71122,-1.30175 3.71122,-3.60892 0,-2.20486 -1.50636,-3.61244 -3.71122,-3.61244 m 3.51014,24.57097 -3.81353,-13.43378 -3.90525,0 0,13.43378 -4.11339,0 0,-28.57853 8.52311,0 c 4.51203,0 7.52475,3.00567 7.52475,7.62 0,3.41136 -1.40758,5.91961 -4.11339,6.91797 l 4.11339,14.04056 -4.21569,0 z"
     style="fill:#ffffff;fill-opacity:1;fill-rule:nonzero;stroke:none"
     id="path3642"
     inkscape:connector-curvature="0" />
</svg>
