<?xml version="1.0" encoding="UTF-8" standalone="no"?>
<svg
   xmlns:dc="http://purl.org/dc/elements/1.1/"
   xmlns:cc="http://creativecommons.org/ns#"
   xmlns:rdf="http://www.w3.org/1999/02/22-rdf-syntax-ns#"
   xmlns:svg="http://www.w3.org/2000/svg"
   xmlns="http://www.w3.org/2000/svg"
   xmlns:sodipodi="http://sodipodi.sourceforge.net/DTD/sodipodi-0.dtd"
   xmlns:inkscape="http://www.inkscape.org/namespaces/inkscape"
   width="81.606789"
   height="61.343502"
   viewBox="0 0 230.31249 173.12499"
   version="1.1"
   id="svg2"
   inkscape:version="0.48.2 r9819"
   sodipodi:docname="AJAX1.svg">
  <metadata
     id="metadata62">
    <rdf:RDF>
      <cc:Work
         rdf:about="">
        <dc:format>image/svg+xml</dc:format>
        <dc:type
           rdf:resource="http://purl.org/dc/dcmitype/StillImage" />
        <dc:title />
      </cc:Work>
    </rdf:RDF>
  </metadata>
  <defs
     id="defs60">
    <clipPath
       clipPathUnits="userSpaceOnUse"
       id="clipPath3564">
      <path
         inkscape:connector-curvature="0"
         d="m 63,43 512.622,0 0,313.129 L 63,356.129 63,43 z"
         id="path3566" />
    </clipPath>
  </defs>
  <sodipodi:namedview
     pagecolor="#ffffff"
     bordercolor="#666666"
     borderopacity="1"
     objecttolerance="10"
     gridtolerance="10"
     guidetolerance="10"
     inkscape:pageopacity="0"
     inkscape:pageshadow="2"
     inkscape:window-width="1280"
     inkscape:window-height="1004"
     id="namedview58"
     showgrid="false"
     fit-margin-top="0"
     fit-margin-left="0"
     fit-margin-right="0"
     fit-margin-bottom="0"
     inkscape:zoom="5.4735946"
     inkscape:cx="56.871521"
     inkscape:cy="28.440455"
     inkscape:window-x="-8"
     inkscape:window-y="-8"
     inkscape:window-maximized="1"
     inkscape:current-layer="svg2"
     showguides="true"
     inkscape:guide-bbox="true" />
  <polygon
     points="235,375 315,205 395,375 315,545 "
     id="polygon10"
     style="fill:none;stroke:#ffffff;stroke-width:40"
     transform="translate(28311.865,4468.085)" />
  <!-- draw the bicycle -->
  <!-- RIGHT -->
  <!-- LANE -->
  <!-- ONLY -->
  <path
     d="m 21.18272,0.832255 187.92825,0 c 11.18306,0 20.34117,9.14753 20.34117,20.33059 l 0,130.778255 c 0,11.19011 -9.15811,20.33763 -20.34117,20.33763 l -187.92825,0 c -11.18658,0 -20.33411,-9.14752 -20.33411,-20.33763 l 0,-130.778255 c 0,-11.18306 9.14753,-20.33059 20.33411,-20.33059"
     style="fill:#ffffff;fill-opacity:1;fill-rule:nonzero;stroke:#000000;stroke-width:1.69333339;stroke-miterlimit:4;stroke-opacity:1;stroke-dasharray:none"
     id="path3694"
     inkscape:connector-curvature="0" />
  <path
     d="m 21.18272,5.908735 187.92825,0 c 8.39258,0 15.2647,6.86858 15.2647,15.25411 l 0,130.778255 c 0,8.39963 -6.87212,15.26116 -15.2647,15.26116 l -187.92825,0 c -8.39258,0 -15.25411,-6.86153 -15.25411,-15.26116 l 0,-130.778255 c 0,-8.38553 6.86153,-15.25411 15.25411,-15.25411"
     style="fill:#155196;fill-opacity:1;fill-rule:evenodd;stroke:none"
     id="path3702"
     inkscape:connector-curvature="0" />
  <path
     d="m 24.01905,49.413315 0,-28.55383 13.4232,0 0,4.01108 -9.31686,0 0,7.21431 5.91255,0 0,3.90877 -5.91255,0 0,9.40859 10.41753,0 0,4.01108 -14.52387,0 z"
     style="fill:#ffffff;fill-opacity:1;fill-rule:nonzero;stroke:none"
     id="path3706"
     inkscape:connector-curvature="0" />
  <path
     d="m 58.07975,49.413315 0,-16.02669 -5.30931,16.02669 -5.3093,-16.02669 0,16.02669 -4.10633,0 0,-28.55383 4.10633,0 5.3093,16.02669 5.30931,-16.02669 4.10633,0 0,28.55383 -4.10633,0 z"
     style="fill:#ffffff;fill-opacity:1;fill-rule:nonzero;stroke:none"
     id="path3710"
     inkscape:connector-curvature="0" />
  <path
     d="m 68.3985,49.413315 0,-28.55383 13.42319,0 0,4.01108 -9.31686,0 0,7.21431 5.90903,0 0,3.90877 -5.90903,0 0,9.40859 10.41753,0 0,4.01108 -14.52386,0 z"
     style="fill:#ffffff;fill-opacity:1;fill-rule:nonzero;stroke:none"
     id="path3714"
     inkscape:connector-curvature="0" />
  <path
     d="m 96.04217,24.870535 -4.20511,0 0,7.21431 4.20511,0 c 2.40594,0 3.70769,-1.30175 3.70769,-3.60892 0,-2.20486 -1.50283,-3.60539 -3.70769,-3.60539 m 3.50661,24.54275 -3.80647,-13.41966 -3.90525,0 0,13.41966 -4.10634,0 0,-28.55383 8.51606,0 c 4.50497,0 7.51064,3.00567 7.51064,7.61647 0,3.40783 -1.40406,5.90903 -4.10634,6.91092 l 4.10634,14.02644 -4.20864,0 z"
     style="fill:#ffffff;fill-opacity:1;fill-rule:nonzero;stroke:none"
     id="path3718"
     inkscape:connector-curvature="0" />
  <path
     d="m 123.19194,45.906675 c -1.10066,2.5012 -3.4043,4.01108 -6.31119,4.01108 -3.40431,0 -5.90903,-1.71097 -7.31308,-4.91419 -0.90312,-2.10256 -1.50284,-6.11011 -1.50284,-9.81781 0,-4.00402 0.29986,-6.91091 1.30528,-9.61319 1.00189,-3.00919 3.90525,-5.207 7.21078,-5.207 4.10986,0 7.21078,3.00214 7.41186,7.20725 l -4.10633,0 c -0.0988,-1.90147 -1.40053,-3.20322 -3.40431,-3.20322 -1.40053,0 -2.50472,0.70203 -3.20675,2.09903 -0.80433,1.40758 -1.30175,4.6108 -1.30175,8.02216 0,2.39536 0.19756,4.90361 0.60325,7.10847 0.59972,2.80459 2.00025,4.30742 4.20511,4.30742 2.10256,0 3.10445,-1.40405 3.10445,-4.40972 l 0,-1.90147 -3.20323,0 0,-4.01109 7.30956,0 0,5.91256 c 0,2.00378 -0.20108,3.21028 -0.80081,4.40972"
     style="fill:#ffffff;fill-opacity:1;fill-rule:nonzero;stroke:none"
     id="path3722"
     inkscape:connector-curvature="0" />
  <path
     d="m 129.70069,49.413315 0,-28.55383 13.42673,0 0,4.01108 -9.31687,0 0,7.21431 5.90903,0 0,3.90877 -5.90903,0 0,9.40859 10.41753,0 0,4.01108 -14.52739,0 z"
     style="fill:#ffffff;fill-opacity:1;fill-rule:nonzero;stroke:none"
     id="path3726"
     inkscape:connector-curvature="0" />
  <path
     d="m 161.96222,49.413315 -8.81592,-19.13467 0,19.13467 -4.10986,0 0,-28.55383 4.10986,0 7.81403,17.13089 0,-17.13089 4.10634,0 0,28.55383 -3.10445,0 z"
     style="fill:#ffffff;fill-opacity:1;fill-rule:nonzero;stroke:none"
     id="path3730"
     inkscape:connector-curvature="0" />
  <path
     d="m 182.59267,28.475955 c -0.39864,-2.80458 -1.49931,-4.10633 -3.40078,-4.10633 -3.30906,0 -4.51203,2.6035 -4.51203,10.01536 0,8.21619 1.40406,11.52172 4.91067,11.52172 2.40241,0 3.00214,-2.00378 3.00214,-4.10633 l 4.10633,0 c -0.0988,4.70605 -3.10092,8.11741 -7.10847,8.11741 -6.11364,0 -8.81592,-4.91419 -8.81592,-15.42697 0,-9.22161 2.90336,-14.12522 8.51606,-14.12522 2.30011,0 4.30741,0.99836 5.60916,2.89983 1.10067,1.40758 1.49931,2.6035 1.79917,5.21053 l -4.10633,0 z"
     style="fill:#ffffff;fill-opacity:1;fill-rule:nonzero;stroke:none"
     id="path3734"
     inkscape:connector-curvature="0" />
  <path
     d="m 201.32517,36.487505 0,12.92578 -4.10634,0 0,-12.92578 -7.00969,-15.62805 4.30389,0 4.81189,10.32228 4.70605,-10.32228 4.40972,0 -7.11552,15.62805 z"
     style="fill:#ffffff;fill-opacity:1;fill-rule:nonzero;stroke:none"
     id="path3738"
     inkscape:connector-curvature="0" />
  <path
     d="m 64.60614,100.58018 0,-16.026695 -5.30931,16.026695 -5.31283,-16.026695 0,16.026695 -4.10633,0 0,-28.546785 4.10633,0 5.31283,16.0267 5.30931,-16.0267 4.10633,0 0,28.546785 -4.10633,0 z"
     style="fill:#ffffff;fill-opacity:1;fill-rule:nonzero;stroke:none"
     id="path3742"
     inkscape:connector-curvature="0" />
  <path
     d="m 74.92136,100.58018 0,-28.546785 13.42672,0 0,4.00403 -9.32039,0 0,7.21431 5.91256,0 0,3.90525 -5.91256,0 0,9.41916 10.42106,0 0,4.004035 -14.52739,0 z"
     style="fill:#ffffff;fill-opacity:1;fill-rule:nonzero;stroke:none"
     id="path3746"
     inkscape:connector-curvature="0" />
  <path
     d="m 105.47544,78.944315 c -0.6985,-2.00378 -1.90147,-2.90689 -3.70769,-2.90689 l -3.40431,0 0,20.53872 3.40431,0 c 2.40594,0 3.70769,-1.90147 4.10633,-4.10633 0.20461,-1.80269 0.4057,-3.81 0.4057,-6.01486 0,-3.20322 -0.29986,-6.3112 -0.80434,-7.51064 m 0.70203,20.33411 c -1.00189,0.903115 -2.40242,1.301755 -4.00755,1.301755 l -7.91634,0 0,-28.546785 7.31661,0 c 2.40242,0 3.60539,0.29634 4.60728,1.1042 1.70392,1.19944 2.90336,3.4043 3.40431,6.31119 0.40216,2.10256 0.70202,4.60375 0.70202,6.80861 0,6.61459 -1.30175,10.82323 -4.10633,13.02103"
     style="fill:#ffffff;fill-opacity:1;fill-rule:nonzero;stroke:none"
     id="path3750"
     inkscape:connector-curvature="0" />
  <path
     d="m 115.89085,72.031645 4.01109,0 0,28.546785 -4.01109,0 0,-28.546785 z"
     style="fill:#ffffff;fill-opacity:1;fill-rule:nonzero;stroke:none"
     id="path3752"
     inkscape:connector-curvature="0" />
  <path
     d="m 137.52883,79.649875 c -0.39864,-2.80459 -1.50283,-4.10987 -3.4043,-4.10987 -3.30553,0 -4.5085,2.60703 -4.5085,10.01889 0,8.21267 1.40052,11.52173 4.90714,11.52173 2.40594,0 3.00566,-2.00378 3.00566,-4.11339 l 4.10634,0 c -0.0988,4.71311 -3.10445,8.117415 -7.112,8.117415 -6.11012,0 -8.81592,-4.907145 -8.81592,-15.426975 0,-9.22161 2.90689,-14.12522 8.51605,-14.12522 2.30364,0 4.30742,0.99836 5.60917,2.90689 1.1042,1.397 1.50283,2.6035 1.8027,5.21053 l -4.10634,0 z"
     style="fill:#ffffff;fill-opacity:1;fill-rule:nonzero;stroke:none"
     id="path3756"
     inkscape:connector-curvature="0" />
  <path
     d="m 154.15878,80.549485 -2.00731,8.21266 4.10986,0 -2.10255,-8.21266 z m 5.10822,20.030715 -2.00378,-7.814025 -6.11364,0 -1.90147,7.814025 -4.10633,0 7.112,-28.546775 4.00755,0 7.112,28.546775 -4.10633,0 z"
     style="fill:#ffffff;fill-opacity:1;fill-rule:nonzero;stroke:none"
     id="path3760"
     inkscape:connector-curvature="0" />
  <path
     d="m 167.27858,100.58018 0,-28.546785 4.10986,0 0,24.74384 10.41753,0 0,3.802945 -14.52739,0 z"
     style="fill:#ffffff;fill-opacity:1;fill-rule:nonzero;stroke:none"
     id="path3764"
     inkscape:connector-curvature="0" />
  <path
     d="m 89.81211,131.31065 c -0.40217,-2.80458 -1.50636,-4.10633 -3.40783,-4.10633 -3.30553,0 -4.5085,2.6035 -4.5085,10.01889 0,8.21267 1.40053,11.51819 4.91066,11.51819 2.40242,0 3.00567,-2.00377 3.00567,-4.11338 l 4.10633,0 c -0.1023,4.71311 -3.10444,8.11741 -7.112,8.11741 -6.11363,0 -8.81591,-4.90361 -8.81591,-15.42697 0,-9.21808 2.90336,-14.12522 8.51253,-14.12522 2.30363,0 4.31094,0.99836 5.61269,2.90689 1.09714,1.40052 1.50283,2.60702 1.80269,5.21052 l -4.10633,0 z"
     style="fill:#ffffff;fill-opacity:1;fill-rule:nonzero;stroke:none"
     id="path3768"
     inkscape:connector-curvature="0" />
  <path
     d="m 106.43853,132.21376 -2.00378,8.21266 4.10633,0 -2.10255,-8.21266 z m 5.11175,20.03072 -2.00731,-7.81403 -6.11011,0 -1.90147,7.81403 -4.10633,0 7.10847,-28.54678 4.00755,0 7.11553,28.54678 -4.10633,0 z"
     style="fill:#ffffff;fill-opacity:1;fill-rule:nonzero;stroke:none"
     id="path3772"
     inkscape:connector-curvature="0" />
  <path
     d="m 127.87683,127.70173 -4.20864,0 0,7.2143 4.20864,0 c 2.40242,0 3.70417,-1.30526 3.70417,-3.60539 0,-2.20486 -1.49931,-3.60891 -3.70417,-3.60891 m 3.50661,24.54275 -3.80647,-13.4232 -3.90878,0 0,13.4232 -4.10986,0 0,-28.54678 8.51606,0 c 4.51203,0 7.51416,3.00214 7.51416,7.61294 0,3.40431 -1.40052,5.91256 -4.10633,6.91092 l 4.10633,14.02292 -4.20511,0 z"
     style="fill:#ffffff;fill-opacity:1;fill-rule:nonzero;stroke:none"
     id="path3776"
     inkscape:connector-curvature="0" />
  <path
     d="m 140.39339,152.24451 0,-28.54678 13.42672,0 0,4.00403 -9.31686,0 0,7.2143 5.90903,0 0,3.90525 -5.90903,0 0,9.41917 10.42105,0 0,4.00403 -14.53091,0 z"
     style="fill:#ffffff;fill-opacity:1;fill-rule:nonzero;stroke:none"
     id="path3780"
     inkscape:connector-curvature="0" />
</svg>
