<?xml version="1.0" encoding="UTF-8" standalone="no"?>
<svg
   xmlns:dc="http://purl.org/dc/elements/1.1/"
   xmlns:cc="http://creativecommons.org/ns#"
   xmlns:rdf="http://www.w3.org/1999/02/22-rdf-syntax-ns#"
   xmlns:svg="http://www.w3.org/2000/svg"
   xmlns="http://www.w3.org/2000/svg"
   xmlns:sodipodi="http://sodipodi.sourceforge.net/DTD/sodipodi-0.dtd"
   xmlns:inkscape="http://www.inkscape.org/namespaces/inkscape"
   width="81.595718"
   height="81.595718"
   viewBox="0 0 230.28125 230.28124"
   version="1.1"
   id="svg2"
   inkscape:version="0.48.2 r9819"
   sodipodi:docname="MUTCD D9-13.svg">
  <metadata
     id="metadata62">
    <rdf:RDF>
      <cc:Work
         rdf:about="">
        <dc:format>image/svg+xml</dc:format>
        <dc:type
           rdf:resource="http://purl.org/dc/dcmitype/StillImage" />
        <dc:title></dc:title>
      </cc:Work>
    </rdf:RDF>
  </metadata>
  <defs
     id="defs60" />
  <sodipodi:namedview
     pagecolor="#ffffff"
     bordercolor="#666666"
     borderopacity="1"
     objecttolerance="10"
     gridtolerance="10"
     guidetolerance="10"
     inkscape:pageopacity="0"
     inkscape:pageshadow="2"
     inkscape:window-width="1280"
     inkscape:window-height="1004"
     id="namedview58"
     showgrid="false"
     fit-margin-top="0"
     fit-margin-left="0"
     fit-margin-right="0"
     fit-margin-bottom="0"
     inkscape:zoom="3.8704158"
     inkscape:cx="30.16135"
     inkscape:cy="19.412365"
     inkscape:window-x="-8"
     inkscape:window-y="-8"
     inkscape:window-maximized="1"
     inkscape:current-layer="svg2"
     showguides="true"
     inkscape:guide-bbox="true" />
  <polygon
     points="315,205 395,375 315,545 235,375 "
     id="polygon10"
     style="fill:none;stroke:#ffffff;stroke-width:40"
     transform="translate(-3032.9376,16738.813)" />
  <!-- draw the bicycle -->
  <!-- RIGHT -->
  <!-- LANE -->
  <!-- ONLY -->
  <path
     inkscape:connector-curvature="0"
     d="m 21.17474,0.84536805 187.92119,0 c 11.18659,0 20.34117,9.15450005 20.34117,20.33759995 l 0,187.924702 c 0,11.1866 -9.15458,20.33771 -20.34117,20.33771 l -187.92119,0 c -11.18658,0 -20.33764,-9.15111 -20.33764,-20.33772 l 0,-187.924692 C 0.8371,9.9998681 9.98816,0.84536805 21.17474,0.84536805"
     style="fill:#ffffff;fill-opacity:1;fill-rule:nonzero;stroke:#000000;stroke-width:1.69333334;stroke-miterlimit:4;stroke-opacity:1;stroke-dasharray:none"
     id="path3924" />
  <path
     inkscape:connector-curvature="0"
     d="m 21.17474,5.9249681 187.9212,0 c 8.39611,0 15.26469,6.8685999 15.26469,15.2575999 l 0,187.924802 c 0,8.39608 -6.86858,15.2611 -15.26469,15.2611 l -187.9212,0 c -8.38905,0 -15.25411,-6.86502 -15.25411,-15.2611 l 0,-187.924802 c 0,-8.389 6.86506,-15.2575999 15.25411,-15.2575999"
     style="fill:#155196;fill-opacity:1;fill-rule:evenodd;stroke:none"
     id="path3948" />
  <path
     d="m 79.526695,19.834294 71.225835,0 0,34.611028 c 18.55964,0.384528 33.6303,15.688028 33.6303,34.339389 l 0,71.970199 c 0,18.65136 -15.07066,33.95486 -33.6303,34.33939 l 0,15.75152 -71.225835,0 0,-15.75152 C 60.967056,194.70977 45.896389,179.40627 45.896389,160.75491 l 0,-71.970199 c 0,-18.651361 15.070667,-33.954861 33.630306,-34.339389 l 0,-34.611028 z"
     style="fill:#ffffff;fill-opacity:1;fill-rule:evenodd;stroke:none"
     id="path3672"
     inkscape:connector-curvature="0" />
</svg>
