<?xml version="1.0" encoding="UTF-8" standalone="no"?>
<svg
   xmlns:dc="http://purl.org/dc/elements/1.1/"
   xmlns:cc="http://creativecommons.org/ns#"
   xmlns:rdf="http://www.w3.org/1999/02/22-rdf-syntax-ns#"
   xmlns:svg="http://www.w3.org/2000/svg"
   xmlns="http://www.w3.org/2000/svg"
   xmlns:sodipodi="http://sodipodi.sourceforge.net/DTD/sodipodi-0.dtd"
   xmlns:inkscape="http://www.inkscape.org/namespaces/inkscape"
   width="81.606796"
   height="41.102364"
   viewBox="0 0 230.31251 115.99999"
   version="1.1"
   id="svg2"
   inkscape:version="0.48.2 r9819"
   sodipodi:docname="MUTCD D9-6P.svg">
  <metadata
     id="metadata62">
    <rdf:RDF>
      <cc:Work
         rdf:about="">
        <dc:format>image/svg+xml</dc:format>
        <dc:type
           rdf:resource="http://purl.org/dc/dcmitype/StillImage" />
        <dc:title></dc:title>
      </cc:Work>
    </rdf:RDF>
  </metadata>
  <defs
     id="defs60" />
  <sodipodi:namedview
     pagecolor="#ffffff"
     bordercolor="#666666"
     borderopacity="1"
     objecttolerance="10"
     gridtolerance="10"
     guidetolerance="10"
     inkscape:pageopacity="0"
     inkscape:pageshadow="2"
     inkscape:window-width="1280"
     inkscape:window-height="1004"
     id="namedview58"
     showgrid="false"
     fit-margin-top="0"
     fit-margin-left="0"
     fit-margin-right="0"
     fit-margin-bottom="0"
     inkscape:zoom="4.1960661"
     inkscape:cx="32.023396"
     inkscape:cy="11.16076"
     inkscape:window-x="-8"
     inkscape:window-y="-8"
     inkscape:window-maximized="1"
     inkscape:current-layer="svg2"
     showguides="true"
     inkscape:guide-bbox="true" />
  <polygon
     points="395,375 315,545 235,375 315,205 "
     id="polygon10"
     style="fill:none;stroke:#ffffff;stroke-width:40"
     transform="translate(-695.8751,19575.75)" />
  <!-- draw the bicycle -->
  <!-- RIGHT -->
  <!-- LANE -->
  <!-- ONLY -->
  <path
     d="m 21.191,0.85258554 187.92468,0 c 11.18659,0 20.33764,9.15106046 20.33764,20.33411046 l 0,73.62825 c 0,11.183064 -9.15105,20.337644 -20.33764,20.337644 l -187.92468,0 c -11.1831,0 -20.3341,-9.15458 -20.3341,-20.337644 l 0,-73.62825 c 0,-11.18305 9.151,-20.33411046 20.3341,-20.33411046"
     style="fill:#ffffff;fill-opacity:1;fill-rule:nonzero;stroke:#000000;stroke-width:1.69333315;stroke-miterlimit:4;stroke-opacity:1;stroke-dasharray:none"
     id="path3396"
     inkscape:connector-curvature="0" />
  <path
     d="m 21.191,5.9290555 187.92468,0 c 8.39611,0 15.26117,6.8650605 15.26117,15.2576405 l 0,73.62825 c 0,8.392584 -6.86506,15.261174 -15.26117,15.261174 l -187.92468,0 c -8.3891,0 -15.2541,-6.86859 -15.2541,-15.261174 l 0,-73.62825 c 0,-8.39258 6.865,-15.2576405 15.2541,-15.2576405"
     style="fill:#155196;fill-opacity:1;fill-rule:evenodd;stroke:none"
     id="path3420"
     inkscape:connector-curvature="0" />
  <path
     d="m 211.28456,76.974976 0,-5.03061 -13.83596,0 0,-32.92122 -5.4857,0 0,37.95183 19.32166,0 z m -34.06426,-15.7727 -5.4856,0 2.741,-10.86555 2.7446,10.86555 z m 9.4862,15.7727 -9.4862,-37.95183 -5.3692,0 -9.4862,37.95183 5.4857,0 2.6246,-10.40342 8.1175,0 2.6317,10.40342 5.4821,0 z m -26.5183,-32.92122 0,-5.03061 -19.4274,0 0,5.03061 6.9673,0 0,32.92122 5.4892,0 0,-32.92122 6.9709,0 z m -24.8002,-5.03061 -5.2564,0 0,37.95183 5.2564,0 0,-37.95183 z m -15.8892,10.63272 c 0,3.54189 -1.7145,5.48569 -4.9141,5.48569 l -5.4893,0 0,-10.74208 5.4893,0 c 2.9739,0 4.9141,2.05317 4.9141,5.25639 m 5.3764,0 c 0,-6.40292 -4.004,-10.63272 -10.0612,-10.63272 l -11.2007,0 0,37.95183 5.4821,0 0,-16.68639 5.7186,0 c 6.4029,0 10.0612,-3.66183 10.0612,-10.63272 m -27.6649,16.91569 c 0,-5.48569 -3.1997,-9.48972 -10.5127,-13.82889 -2.8575,-1.59808 -3.6619,-2.63172 -3.6619,-4.57552 0,-2.51531 2.0638,-4.33917 4.572,-4.33917 2.4024,0 4.2334,1.7145 4.3427,4.33917 l 5.2599,0 c -0.1128,-5.71148 -4.3391,-9.82487 -9.6026,-9.82487 -5.4857,0 -9.8284,4.45206 -9.8284,9.82487 0,3.43252 1.5981,6.29002 4.6849,8.45961 7.7753,5.1435 5.6021,3.66183 6.4029,4.45911 2.2825,1.7145 3.0833,3.31611 3.0833,5.48569 0,3.08681 -2.4024,5.71853 -5.2528,5.71853 -3.7783,0 -5.3764,-3.31611 -5.3764,-6.51933 l -5.3692,0 c 0,6.29002 4.0005,11.88508 10.7456,11.88508 5.8279,0 10.5127,-4.91067 10.5127,-11.08428 m -32.2333,-8.5725 c 0,4.22981 -0.2257,6.51934 -1.143,9.59909 -0.9101,3.20322 -2.3989,4.69194 -4.6884,4.69194 -2.4024,0 -3.8841,-1.48872 -4.7978,-4.69194 -0.8008,-3.07975 -1.2558,-5.4857 -1.2558,-9.59909 0,-4.11339 0.3457,-6.74511 1.2558,-9.59908 0.9137,-3.20322 2.3954,-4.69195 4.7978,-4.69195 2.2895,0 3.7783,1.48873 4.6884,4.80484 0.8008,2.74108 1.143,5.14703 1.143,9.48619 m 5.26,0 c 0,-5.71853 -0.5715,-9.36978 -2.1732,-13.1445 -1.8309,-4.68841 -4.572,-6.51228 -8.9182,-6.51228 -4.452,0 -7.0802,1.82387 -9.1404,6.39939 -1.5981,3.65831 -2.0603,7.53886 -2.0603,13.25739 0,5.71853 0.4622,9.36978 2.0603,13.14803 1.9438,4.45558 4.5684,6.50875 9.1404,6.50875 4.2298,0 7.0873,-2.05317 8.9182,-6.50875 1.6017,-3.65831 2.1732,-7.4295 2.1732,-13.14803 m -29.8274,18.97592 0,-37.95183 -5.4928,0 0,15.43402 -10.3998,0 0,-15.43402 -5.4893,0 0,37.95183 5.4893,0 0,-17.26142 10.3998,0 0,17.26142 5.4928,0 z"
     style="fill:#ffffff;fill-opacity:1;fill-rule:evenodd;stroke:none"
     id="path3424"
     inkscape:connector-curvature="0" />
</svg>
