<?xml version="1.0" encoding="UTF-8" standalone="no"?>
<svg
   xmlns:dc="http://purl.org/dc/elements/1.1/"
   xmlns:cc="http://creativecommons.org/ns#"
   xmlns:rdf="http://www.w3.org/1999/02/22-rdf-syntax-ns#"
   xmlns:svg="http://www.w3.org/2000/svg"
   xmlns="http://www.w3.org/2000/svg"
   xmlns:sodipodi="http://sodipodi.sourceforge.net/DTD/sodipodi-0.dtd"
   xmlns:inkscape="http://www.inkscape.org/namespaces/inkscape"
   width="81.606789"
   height="81.606789"
   viewBox="0 0 230.31249 230.31249"
   version="1.1"
   id="svg2"
   inkscape:version="0.48.2 r9819"
   sodipodi:docname="AJAX1.svg">
  <metadata
     id="metadata62">
    <rdf:RDF>
      <cc:Work
         rdf:about="">
        <dc:format>image/svg+xml</dc:format>
        <dc:type
           rdf:resource="http://purl.org/dc/dcmitype/StillImage" />
        <dc:title />
      </cc:Work>
    </rdf:RDF>
  </metadata>
  <defs
     id="defs60">
    <clipPath
       clipPathUnits="userSpaceOnUse"
       id="clipPath3564">
      <path
         inkscape:connector-curvature="0"
         d="m 63,43 512.622,0 0,313.129 L 63,356.129 63,43 z"
         id="path3566" />
    </clipPath>
  </defs>
  <sodipodi:namedview
     pagecolor="#ffffff"
     bordercolor="#666666"
     borderopacity="1"
     objecttolerance="10"
     gridtolerance="10"
     guidetolerance="10"
     inkscape:pageopacity="0"
     inkscape:pageshadow="2"
     inkscape:window-width="1280"
     inkscape:window-height="1004"
     id="namedview58"
     showgrid="false"
     fit-margin-top="0"
     fit-margin-left="0"
     fit-margin-right="0"
     fit-margin-bottom="0"
     inkscape:zoom="5.4735946"
     inkscape:cx="56.771113"
     inkscape:cy="45.403816"
     inkscape:window-x="-8"
     inkscape:window-y="-8"
     inkscape:window-maximized="1"
     inkscape:current-layer="svg2"
     showguides="true"
     inkscape:guide-bbox="true" />
  <polygon
     points="315,545 235,375 315,205 395,375 "
     id="polygon10"
     style="fill:none;stroke:#ffffff;stroke-width:40"
     transform="translate(29238.834,3759.5537)" />
  <!-- draw the bicycle -->
  <!-- RIGHT -->
  <!-- LANE -->
  <!-- ONLY -->
  <path
     d="m 21.1977,0.86091856 187.9212,0 c 11.19011,0 20.34117,9.15105044 20.34117,20.33411044 l 0,187.924721 c 0,11.18658 -9.15106,20.33764 -20.34117,20.33764 l -187.9212,0 c -11.18305,0 -20.34116,-9.15106 -20.34116,-20.33764 l 0,-187.924721 c 0,-11.18306 9.15811,-20.33411044 20.34116,-20.33411044"
     style="fill:#ffffff;fill-opacity:1;fill-rule:nonzero;stroke:#000000;stroke-width:1.69333327;stroke-miterlimit:4;stroke-opacity:1;stroke-dasharray:none"
     id="path4320"
     inkscape:connector-curvature="0" />
  <path
     d="m 21.1977,5.9409186 187.9212,0 c 8.39258,0 15.26469,6.8615204 15.26469,15.2541104 l 0,187.924721 c 0,8.38906 -6.87211,15.25411 -15.26469,15.25411 l -187.9212,0 c -8.39258,0 -15.25411,-6.86505 -15.25411,-15.25411 l 0,-187.924721 c 0,-8.39259 6.86153,-15.2541104 15.25411,-15.2541104"
     style="fill:#155196;fill-opacity:1;fill-rule:evenodd;stroke:none"
     id="path4344"
     inkscape:connector-curvature="0" />
  <path
     d="m 200.70321,114.77072 0,-15.599834 c 0,-1.785055 -1.56281,-4.459111 -4.45911,-4.459111 l -15.60337,0 c -2.89277,0 -4.45911,2.674056 -4.45911,4.459111 l 0,15.599834 c 0,2.4518 2.23309,4.45558 4.45911,4.45558 l 15.82562,0 c 2.22955,0 4.23686,-2.00378 4.23686,-4.45558"
     style="fill:#ffffff;fill-opacity:1;fill-rule:nonzero;stroke:none"
     id="path4168"
     inkscape:connector-curvature="0" />
  <path
     d="m 196.91085,85.797081 c 16.49236,-8.247945 14.04055,-29.862639 -1.11125,-51.484389 -28.08112,-10.033 -53.48817,-14.262805 -80.68381,-14.262805 -27.414361,0 -52.821417,4.229805 -80.676749,14.262805 C 19.28018,55.934442 16.831903,77.549136 33.320735,85.797081 L 74.775651,70.645275 c 6.018389,-2.233083 4.681361,-4.684888 4.462639,-8.025694 L 79.008984,51.916303 c -0.440972,-9.803694 22.069776,-8.466666 36.106806,-8.466666 14.04056,0 36.55131,-1.337028 36.10681,8.466666 l -0.4445,10.703278 c 0,3.340806 -1.34056,5.792611 4.67783,8.025694 l 41.45492,15.151806 z"
     style="fill:#ffffff;fill-opacity:1;fill-rule:nonzero;stroke:none"
     id="path4172"
     inkscape:connector-curvature="0" />
  <path
     d="m 163.92965,114.77072 0,-15.599834 c 0,-1.785055 -1.5628,-4.459111 -4.46264,-4.459111 l -15.59983,0 c -2.89278,0 -4.45558,2.674056 -4.45558,4.459111 l 0,15.599834 c 0,2.4518 2.4518,4.45558 4.45558,4.45558 l 15.82914,0 c 2.2225,0 4.23333,-2.00378 4.23333,-4.45558"
     style="fill:#ffffff;fill-opacity:1;fill-rule:nonzero;stroke:none"
     id="path4176"
     inkscape:connector-curvature="0" />
  <path
     d="m 182.42579,147.08517 0,-15.59984 c 0,-1.78505 -1.78506,-4.45911 -4.45911,-4.45911 l -15.59983,0 c -3.11856,0 -4.45559,2.67406 -4.45559,4.45911 l 0,15.59984 c 0,2.68111 2.22956,4.45911 4.45559,4.45911 l 15.82561,0 c 2.22955,0 4.23333,-1.778 4.23333,-4.45911"
     style="fill:#ffffff;fill-opacity:1;fill-rule:nonzero;stroke:none"
     id="path4180"
     inkscape:connector-curvature="0" />
  <path
     d="m 200.70321,179.62892 0,-15.82914 c 0,-1.55575 -1.56281,-4.44853 -4.45911,-4.44853 l -15.60337,0 c -2.89277,0 -4.45911,2.89278 -4.45911,4.44853 l 0,15.82914 c 0,2.44475 2.23309,4.45558 4.45911,4.45558 l 15.82562,0 c 2.22955,0 4.23686,-2.01083 4.23686,-4.45558"
     style="fill:#ffffff;fill-opacity:1;fill-rule:nonzero;stroke:none"
     id="path4184"
     inkscape:connector-curvature="0" />
  <path
     d="m 127.37835,114.77072 0,-15.599834 c 0,-1.785055 -1.78153,-4.459111 -4.45559,-4.459111 l -15.60336,0 c -2.8963,0 -4.45911,2.674056 -4.45911,4.459111 l 0,15.599834 c 0,2.4518 2.22956,4.45558 4.45911,4.45558 l 15.82208,0 c 2.22956,0 4.23687,-2.00378 4.23687,-4.45558"
     style="fill:#ffffff;fill-opacity:1;fill-rule:nonzero;stroke:none"
     id="path4188"
     inkscape:connector-curvature="0" />
  <path
     d="m 145.87801,147.08517 0,-15.59984 c 0,-1.78505 -1.78153,-4.45911 -4.45911,-4.45911 l -15.82208,0 c -2.67406,0 -4.45911,2.67406 -4.45911,4.45911 l 0,15.59984 c 0,2.68111 2.4518,4.45911 4.45911,4.45911 l 16.04433,0 c 2.00731,0 4.23686,-1.778 4.23686,-4.45911"
     style="fill:#ffffff;fill-opacity:1;fill-rule:nonzero;stroke:none"
     id="path4192"
     inkscape:connector-curvature="0" />
  <path
     d="m 163.92965,179.62892 0,-15.82914 c 0,-1.55575 -1.5628,-4.44853 -4.46264,-4.44853 l -15.59983,0 c -2.89278,0 -4.45558,2.89278 -4.45558,4.44853 l 0,15.82914 c 0,2.44475 2.4518,4.45558 4.45558,4.45558 l 15.82914,0 c 2.2225,0 4.23333,-2.01083 4.23333,-4.45558"
     style="fill:#ffffff;fill-opacity:1;fill-rule:nonzero;stroke:none"
     id="path4196"
     inkscape:connector-curvature="0" />
  <path
     d="m 90.601262,114.77072 0,-15.599834 c 0,-1.785055 -1.562806,-4.459111 -4.452055,-4.459111 l -15.606889,0 c -2.899834,0 -4.455583,2.674056 -4.455583,4.459111 l 0,15.599834 c 0,2.4518 2.222499,4.45558 4.455583,4.45558 l 15.825611,0 c 2.226027,0 4.233333,-2.00378 4.233333,-4.45558"
     style="fill:#ffffff;fill-opacity:1;fill-rule:nonzero;stroke:none"
     id="path4200"
     inkscape:connector-curvature="0" />
  <path
     d="m 108.87162,147.08517 0,-15.59984 c 0,-1.78505 -1.32997,-4.45911 -4.44852,-4.45911 l -15.606894,0 c -2.666999,0 -4.452055,2.67406 -4.452055,4.45911 l 0,15.59984 c 0,2.68111 2.451806,4.45911 4.452055,4.45911 l 15.825614,0 c 2.4518,0 4.2298,-1.778 4.2298,-4.45911"
     style="fill:#ffffff;fill-opacity:1;fill-rule:nonzero;stroke:none"
     id="path4204"
     inkscape:connector-curvature="0" />
  <path
     d="m 127.37835,179.62892 0,-15.82914 c 0,-1.55575 -1.78153,-4.44853 -4.45559,-4.44853 l -15.60336,0 c -2.8963,0 -4.45911,2.89278 -4.45911,4.44853 l 0,15.82914 c 0,2.44475 2.22956,4.45558 4.45911,4.45558 l 15.82208,0 c 2.22956,0 4.23687,-2.01083 4.23687,-4.45558"
     style="fill:#ffffff;fill-opacity:1;fill-rule:nonzero;stroke:none"
     id="path4208"
     inkscape:connector-curvature="0" />
  <path
     d="m 53.601929,114.77072 0,-15.599834 c 0,-1.785055 -1.337028,-4.459111 -4.233333,-4.459111 l -15.599833,0 c -2.899833,0 -4.455583,2.674056 -4.455583,4.459111 l 0,15.599834 c 0,2.4518 2.2225,4.45558 4.455583,4.45558 l 15.599833,0 c 2.451805,0 4.233333,-2.00378 4.233333,-4.45558"
     style="fill:#ffffff;fill-opacity:1;fill-rule:nonzero;stroke:none"
     id="path4212"
     inkscape:connector-curvature="0" />
  <path
     d="m 72.101596,147.08517 0,-15.59984 c 0,-1.78505 -1.114778,-4.45911 -4.011084,-4.45911 l -15.825611,0 c -2.896305,0 -4.45911,2.67406 -4.45911,4.45911 l 0,15.59984 c 0,2.68111 2.007305,4.45911 4.45911,4.45911 l 15.377583,0 c 2.451806,0 4.459112,-1.778 4.459112,-4.45911"
     style="fill:#ffffff;fill-opacity:1;fill-rule:nonzero;stroke:none"
     id="path4216"
     inkscape:connector-curvature="0" />
  <path
     d="m 182.20354,206.14722 0,-8.46667 c 0,-1.55927 -1.56281,-4.2298 -4.23686,-4.2298 l -125.701779,0 c -2.896305,0 -4.233332,2.67053 -4.233332,4.2298 l 0,8.46667 c 0,2.45181 2.007305,4.23686 4.233332,4.23686 l 125.927559,0 c 2.22955,0 4.01108,-1.78505 4.01108,-4.23686"
     style="fill:#ffffff;fill-opacity:1;fill-rule:nonzero;stroke:none"
     id="path4220"
     inkscape:connector-curvature="0" />
  <path
     d="m 90.601262,179.62892 0,-15.82914 c 0,-1.55575 -1.562806,-4.44853 -4.452055,-4.44853 l -15.606889,0 c -2.899834,0 -4.455583,2.89278 -4.455583,4.44853 l 0,15.82914 c 0,2.44475 2.222499,4.45558 4.455583,4.45558 l 15.825611,0 c 2.226027,0 4.233333,-2.01083 4.233333,-4.45558"
     style="fill:#ffffff;fill-opacity:1;fill-rule:nonzero;stroke:none"
     id="path4224"
     inkscape:connector-curvature="0" />
  <path
     d="m 53.601929,179.62892 0,-15.82914 c 0,-1.55575 -0.892528,-4.44853 -4.011083,-4.44853 l -15.822083,0 c -2.899833,0 -4.455583,2.89278 -4.455583,4.44853 l 0,15.82914 c 0,2.44475 2.2225,4.45558 4.455583,4.45558 l 15.599833,0 c 2.451805,0 4.233333,-2.01083 4.233333,-4.45558"
     style="fill:#ffffff;fill-opacity:1;fill-rule:nonzero;stroke:none"
     id="path4228"
     inkscape:connector-curvature="0" />
</svg>
