<?xml version="1.0" encoding="UTF-8" standalone="no"?>
<svg
   xmlns:dc="http://purl.org/dc/elements/1.1/"
   xmlns:cc="http://creativecommons.org/ns#"
   xmlns:rdf="http://www.w3.org/1999/02/22-rdf-syntax-ns#"
   xmlns:svg="http://www.w3.org/2000/svg"
   xmlns="http://www.w3.org/2000/svg"
   xmlns:sodipodi="http://sodipodi.sourceforge.net/DTD/sodipodi-0.dtd"
   xmlns:inkscape="http://www.inkscape.org/namespaces/inkscape"
   width="81.595718"
   height="81.595718"
   viewBox="0 0 230.28125 230.28124"
   version="1.1"
   id="svg2"
   inkscape:version="0.48.2 r9819"
   sodipodi:docname="MUTCD D9-20.svg">
  <metadata
     id="metadata62">
    <rdf:RDF>
      <cc:Work
         rdf:about="">
        <dc:format>image/svg+xml</dc:format>
        <dc:type
           rdf:resource="http://purl.org/dc/dcmitype/StillImage" />
        <dc:title></dc:title>
      </cc:Work>
    </rdf:RDF>
  </metadata>
  <defs
     id="defs60" />
  <sodipodi:namedview
     pagecolor="#ffffff"
     bordercolor="#666666"
     borderopacity="1"
     objecttolerance="10"
     gridtolerance="10"
     guidetolerance="10"
     inkscape:pageopacity="0"
     inkscape:pageshadow="2"
     inkscape:window-width="1280"
     inkscape:window-height="1004"
     id="namedview58"
     showgrid="false"
     fit-margin-top="0"
     fit-margin-left="0"
     fit-margin-right="0"
     fit-margin-bottom="0"
     inkscape:zoom="3.8704158"
     inkscape:cx="30.16135"
     inkscape:cy="19.412365"
     inkscape:window-x="-8"
     inkscape:window-y="-8"
     inkscape:window-maximized="1"
     inkscape:current-layer="svg2"
     showguides="true"
     inkscape:guide-bbox="true" />
  <polygon
     points="315,205 395,375 315,545 235,375 "
     id="polygon10"
     style="fill:none;stroke:#ffffff;stroke-width:40"
     transform="translate(-3032.9376,16738.813)" />
  <!-- draw the bicycle -->
  <!-- RIGHT -->
  <!-- LANE -->
  <!-- ONLY -->
  <path
     inkscape:connector-curvature="0"
     d="m 21.17474,0.84536805 187.92119,0 c 11.18659,0 20.34117,9.15450005 20.34117,20.33759995 l 0,187.924702 c 0,11.1866 -9.15458,20.33771 -20.34117,20.33771 l -187.92119,0 c -11.18658,0 -20.33764,-9.15111 -20.33764,-20.33772 l 0,-187.924692 C 0.8371,9.9998681 9.98816,0.84536805 21.17474,0.84536805"
     style="fill:#ffffff;fill-opacity:1;fill-rule:nonzero;stroke:#000000;stroke-width:1.69333334;stroke-miterlimit:4;stroke-opacity:1;stroke-dasharray:none"
     id="path3924" />
  <path
     inkscape:connector-curvature="0"
     d="m 21.17474,5.9249681 187.9212,0 c 8.39611,0 15.26469,6.8685999 15.26469,15.2575999 l 0,187.924802 c 0,8.39608 -6.86858,15.2611 -15.26469,15.2611 l -187.9212,0 c -8.38905,0 -15.25411,-6.86502 -15.25411,-15.2611 l 0,-187.924802 c 0,-8.389 6.86506,-15.2575999 15.25411,-15.2575999"
     style="fill:#155196;fill-opacity:1;fill-rule:evenodd;stroke:none"
     id="path3948" />
  <path
     d="M 82.208681,77.112198 22.952597,94.88867 c -2.913944,1.005417 -3.735916,4.28625 -2.645833,7.65528 1.097139,3.37608 19.148778,57.16058 20.242389,59.80641 1.097139,2.64584 3.824112,3.91936 7.023806,2.37067 3.189111,-1.55222 49.388889,-26.28547 51.233917,-27.25914 1.728614,-0.91017 3.735914,-2.54706 2.825754,-6.56519 C 100.9694,128.00392 89.228959,82.947143 88.685682,81.031559 88.135348,79.115976 86.770098,75.835143 82.208681,77.112198"
     style="fill:#ffffff;fill-opacity:1;fill-rule:nonzero;stroke:none"
     id="path4256"
     inkscape:connector-curvature="0" />
  <path
     d="m 39.145097,162.93597 c -1.11125,-2.67405 -19.236972,-56.69844 -20.284722,-59.92283 -0.800806,-2.46944 -0.687917,-4.79072 0.194028,-6.575775 l -0.292806,0.09172 c -2.921,1.005419 -3.739444,4.286255 -2.645833,7.662335 1.097139,3.36903 19.141722,57.16058 20.238861,59.79936 1.040694,2.50825 3.548944,3.78178 6.522861,2.58939 -0.05292,-0.0212 -0.109361,-0.0353 -0.169333,-0.0565 -1.594556,-0.60325 -2.861028,-1.8803 -3.563056,-3.58775"
     style="fill:#ffffff;fill-opacity:1;fill-rule:nonzero;stroke:none"
     id="path4260"
     inkscape:connector-curvature="0" />
  <path
     d="M 25.686625,101.26654 84.124265,82.396456 97.346376,132.17693 44.835404,158.43065 25.686625,101.26654 z"
     style="fill:#155196;fill-opacity:1;fill-rule:nonzero;stroke:none"
     id="path4264"
     inkscape:connector-curvature="0" />
  <path
     d="m 43.512486,170.89464 c 0,0 59.111444,-32.79069 59.622974,-33.07292 0.50094,-0.28222 0.94897,-0.39511 2.01789,0.0529 1.07244,0.45508 38.08236,17.38489 39.48641,17.99872 1.40758,0.62089 4.56142,1.4605 5.34106,5.45747 0.20461,1.06892 0.13052,3.14678 0.11641,3.60187 -0.0141,0.34572 -0.32455,0.59972 -0.62089,0.84313 0,0 -53.833881,44.19953 -54.161964,44.48881 -0.250472,0.21167 -0.73025,0.17286 -0.73025,-0.39158 0,-0.56798 0,-1.17828 -0.05644,-2.4765 -0.0635,-1.2947 -0.673806,-2.13431 -1.351139,-2.86456 -0.673806,-0.7373 -49.258362,-31.97225 -49.664057,-32.2333 -0.41275,-0.26106 -0.522111,-1.10067 0,-1.40406"
     style="fill:#ffffff;fill-opacity:1;fill-rule:nonzero;stroke:none"
     id="path4268"
     inkscape:connector-curvature="0" />
  <path
     d="m 42.810458,173.40289 c 2.134307,1.37583 47.371001,30.46589 49.455918,32.0675 0.560917,0.61736 0.917222,1.17828 0.959556,1.98261 l 0.02822,2.90689 c 0,0.31044 -0.504472,0.889 -1.552222,0.11642 0,0 -48.651585,-33.13995 -48.947918,-33.3622 -0.303389,-0.21166 -0.377472,-0.47978 -0.377472,-1.01247 0,-0.34219 -0.0071,-2.03906 -0.01411,-2.23661 -0.0071,-0.2787 0.208138,-0.62089 0.448027,-0.46214"
     style="fill:#ffffff;fill-opacity:1;fill-rule:nonzero;stroke:none"
     id="path4272"
     inkscape:connector-curvature="0" />
  <path
     d="m 175.14446,57.557726 c 0,-4.981222 -4.03931,-9.020528 -9.02053,-9.020528 -4.97417,0 -9.01347,4.039306 -9.01347,9.020528 0,4.004028 2.61761,7.39775 6.23005,8.568972 l 0,72.195972 5.57389,0 0,-72.195972 c 3.61597,-1.171222 6.23006,-4.564944 6.23006,-8.568972"
     style="fill:#ffffff;fill-opacity:1;fill-rule:nonzero;stroke:none"
     id="path4276"
     inkscape:connector-curvature="0" />
  <path
     d="m 147.49373,57.557726 c 0,-4.804834 1.82386,-9.186334 4.81542,-12.491861 l -2.20486,-2.0955 c -3.50661,3.852333 -5.6515,8.971139 -5.6515,14.587361 0,6.028972 2.4765,11.486444 6.46289,15.419917 l 2.08844,-2.204862 c -3.39725,-3.376083 -5.51039,-8.053916 -5.51039,-13.215055"
     style="fill:#ffffff;fill-opacity:1;fill-rule:nonzero;stroke:none"
     id="path4280"
     inkscape:connector-curvature="0" />
  <path
     d="m 184.76118,57.557726 c 0,4.79425 -1.82386,9.17575 -4.81542,12.484805 l 2.20486,2.0955 c 3.50661,-3.852333 5.6515,-8.971138 5.6515,-14.580305 0,-6.036028 -2.4765,-11.4935 -6.46641,-15.426972 l -2.08492,2.204861 c 3.39725,3.383139 5.51039,8.053916 5.51039,13.222111"
     style="fill:#ffffff;fill-opacity:1;fill-rule:nonzero;stroke:none"
     id="path4284"
     inkscape:connector-curvature="0" />
  <path
     d="m 134.10582,57.557726 c 0,-8.364361 3.22439,-15.984361 8.48783,-21.699361 l -2.20486,-2.091973 c -5.78908,6.25475 -9.32745,14.612056 -9.32745,23.791334 0,9.846028 4.08517,18.760722 10.65037,25.135417 l 2.0955,-2.204862 C 137.82409,74.66392 134.10582,66.53592 134.10582,57.557726"
     style="fill:#ffffff;fill-opacity:1;fill-rule:nonzero;stroke:none"
     id="path4288"
     inkscape:connector-curvature="0" />
  <path
     d="m 198.15615,57.557726 c 0,8.357305 -3.23144,15.977305 -8.49489,21.688778 l 2.20486,2.0955 c 5.78556,-6.25475 9.32745,-14.615584 9.32745,-23.784278 0,-9.853084 -4.09223,-18.771306 -10.65036,-25.142473 l -2.0955,2.204862 c 5.97958,5.820833 9.70844,13.952361 9.70844,22.937611"
     style="fill:#ffffff;fill-opacity:1;fill-rule:nonzero;stroke:none"
     id="path4292"
     inkscape:connector-curvature="0" />
  <path
     d="m 120.71084,57.557726 c 0,-11.927417 4.62139,-22.792972 12.16731,-30.903334 l -2.21192,-2.0955 c -8.06097,8.660695 -12.99986,20.2565 -12.99986,32.998834 0,13.670139 5.69736,26.038528 14.83431,34.857972 l 2.09197,-2.204861 C 126.03779,81.941726 120.71084,70.360031 120.71084,57.557726"
     style="fill:#ffffff;fill-opacity:1;fill-rule:nonzero;stroke:none"
     id="path4296"
     inkscape:connector-curvature="0" />
  <path
     d="m 211.54407,57.557726 c 0,11.920361 -4.62492,22.785917 -12.16731,30.896278 l 2.21192,2.091972 c 8.06097,-8.660695 12.99986,-20.2565 12.99986,-32.98825 0,-13.677195 -5.69736,-26.045584 -14.83431,-34.865028 l -2.0955,2.204861 c 8.55839,8.269111 13.88534,19.850806 13.88534,32.660167"
     style="fill:#ffffff;fill-opacity:1;fill-rule:nonzero;stroke:none"
     id="path4300"
     inkscape:connector-curvature="0" />
</svg>
