<?xml version="1.0" encoding="UTF-8" standalone="no"?>
<svg
   xmlns:dc="http://purl.org/dc/elements/1.1/"
   xmlns:cc="http://creativecommons.org/ns#"
   xmlns:rdf="http://www.w3.org/1999/02/22-rdf-syntax-ns#"
   xmlns:svg="http://www.w3.org/2000/svg"
   xmlns="http://www.w3.org/2000/svg"
   xmlns:sodipodi="http://sodipodi.sourceforge.net/DTD/sodipodi-0.dtd"
   xmlns:inkscape="http://www.inkscape.org/namespaces/inkscape"
   width="81.595718"
   height="81.595718"
   viewBox="0 0 230.28125 230.28124"
   version="1.1"
   id="svg2"
   inkscape:version="0.48.2 r9819"
   sodipodi:docname="MUTCD D9-3.svg">
  <metadata
     id="metadata62">
    <rdf:RDF>
      <cc:Work
         rdf:about="">
        <dc:format>image/svg+xml</dc:format>
        <dc:type
           rdf:resource="http://purl.org/dc/dcmitype/StillImage" />
        <dc:title></dc:title>
      </cc:Work>
    </rdf:RDF>
  </metadata>
  <defs
     id="defs60" />
  <sodipodi:namedview
     pagecolor="#ffffff"
     bordercolor="#666666"
     borderopacity="1"
     objecttolerance="10"
     gridtolerance="10"
     guidetolerance="10"
     inkscape:pageopacity="0"
     inkscape:pageshadow="2"
     inkscape:window-width="1280"
     inkscape:window-height="1004"
     id="namedview58"
     showgrid="false"
     fit-margin-top="0"
     fit-margin-left="0"
     fit-margin-right="0"
     fit-margin-bottom="0"
     inkscape:zoom="3.8704158"
     inkscape:cx="30.16135"
     inkscape:cy="19.412365"
     inkscape:window-x="-8"
     inkscape:window-y="-8"
     inkscape:window-maximized="1"
     inkscape:current-layer="svg2"
     showguides="true"
     inkscape:guide-bbox="true" />
  <polygon
     points="315,205 395,375 315,545 235,375 "
     id="polygon10"
     style="fill:none;stroke:#ffffff;stroke-width:40"
     transform="translate(-3032.9376,16738.813)" />
  <!-- draw the bicycle -->
  <!-- RIGHT -->
  <!-- LANE -->
  <!-- ONLY -->
  <path
     inkscape:connector-curvature="0"
     d="m 21.17474,0.84536805 187.92119,0 c 11.18659,0 20.34117,9.15450005 20.34117,20.33759995 l 0,187.924702 c 0,11.1866 -9.15458,20.33771 -20.34117,20.33771 l -187.92119,0 c -11.18658,0 -20.33764,-9.15111 -20.33764,-20.33772 l 0,-187.924692 C 0.8371,9.9998681 9.98816,0.84536805 21.17474,0.84536805"
     style="fill:#ffffff;fill-opacity:1;fill-rule:nonzero;stroke:#000000;stroke-width:1.69333334;stroke-miterlimit:4;stroke-opacity:1;stroke-dasharray:none"
     id="path3924" />
  <path
     inkscape:connector-curvature="0"
     d="m 21.17474,5.9249681 187.9212,0 c 8.39611,0 15.26469,6.8685999 15.26469,15.2575999 l 0,187.924802 c 0,8.39608 -6.86858,15.2611 -15.26469,15.2611 l -187.9212,0 c -8.38905,0 -15.25411,-6.86502 -15.25411,-15.2611 l 0,-187.924802 c 0,-8.389 6.86506,-15.2575999 15.25411,-15.2575999"
     style="fill:#155196;fill-opacity:1;fill-rule:evenodd;stroke:none"
     id="path3948" />
  <path
     inkscape:connector-curvature="0"
     style="fill:#ffffff;fill-opacity:1;fill-rule:evenodd;stroke:none"
     d="m 133.26181,63.130724 c -4.39973,0.01072 -8.62321,0.104506 -12.43542,0.176388 -30.501167,0.578556 -75.744917,-0.07408 -75.935417,16.580556 -0.22225,19.420416 0,50.687112 0,76.023612 l -20.372917,0 0,5.82083 73.113195,0 c 1.368777,-11.71222 7.327189,-19.63914 21.343059,-20.81389 15.45872,0.49742 20.55636,9.46503 22.75417,20.81389 l 56.09166,0 c 5.48217,0.45861 7.43656,-2.01789 7.76111,-5.82083 0,-25.97856 0.0917,-56.857196 0,-77.875695 -0.0525,-12.881241 -41.52132,-14.979427 -72.31944,-14.904861 z m -70.555559,23.724305 31.132638,0 0,28.222221 -31.132638,0 0,-28.222221 z m 61.824309,0 61.29514,0 0,28.222221 -61.29514,0 0,-28.222221 z"
     id="path3860" />
  <path
     inkscape:connector-curvature="0"
     style="fill:#ffffff;fill-opacity:1;fill-rule:evenodd;stroke:none"
     d="m 119.59167,145.59253 c -9.10873,0 -16.49236,7.4683 -16.49236,16.58055 0,9.11225 7.38363,16.49236 16.49236,16.49236 9.10872,0 16.58056,-7.38011 16.58056,-16.49236 0,-9.11225 -7.47184,-16.58055 -16.58056,-16.58055 z m 0,8.55486 c 4.3815,0 8.0257,3.64067 8.0257,8.02569 0,4.38503 -3.6442,7.9375 -8.0257,7.9375 -4.38856,0 -7.9375,-3.55247 -7.9375,-7.9375 0,-4.38502 3.54894,-8.02569 7.9375,-8.02569 z"
     id="path3864" />
  <path
     d="m 39.704264,171.4268 c 0,-3.28436 -2.674055,-5.95842 -5.954889,-5.95842 -3.287889,0 -5.958417,2.67406 -5.958417,5.95842 0,3.28436 2.670528,5.95841 5.958417,5.95841 3.280834,0 5.954889,-2.67405 5.954889,-5.95841"
     style="fill:#ffffff;fill-opacity:1;fill-rule:evenodd;stroke:none"
     id="path3876"
     inkscape:connector-curvature="0" />
</svg>
