<svg xmlns="http://www.w3.org/2000/svg" width="105.701" height="52.828" viewBox="0 0 298.312 149.091">
    <path d="m286.657 149.087-275.001.004C5.236 149.091 0 143.86 0 137.435V11.652C-.004 5.24 5.235 0 11.656 0l275 .004c6.421 0 11.653 5.232 11.653 11.652l.003 125.776c-.006 6.347-5.313 11.663-11.656 11.656" style="fill:#dd7500;fill-opacity:1;fill-rule:nonzero;stroke:none"/>
    <path d="M286.615 145.856H11.692c-4.621-.007-8.445-3.838-8.456-8.46L3.24 11.695c-.004-4.622 3.835-8.442 8.456-8.457h274.916c4.629.011 8.453 3.828 8.456 8.464l.003 125.701c-.01 4.608-3.824 8.457-8.456 8.453" style="fill:#000;fill-opacity:1;fill-rule:evenodd;stroke:none"/>
    <path d="m286.557 141.33-274.803-.008c-2.191.046-4.022-1.796-3.987-3.983l.004-125.582c-.039-2.187 1.792-4.025 3.983-3.983h274.8c2.19-.042 4.029 1.796 3.983 3.983l.006 125.582c.039 2.184-1.8 4.025-3.987 3.99" style="fill:#dd7500;fill-opacity:1;fill-rule:evenodd;stroke:none"/>
    <path d="M106.09 93.174h86.063l-6.28 20.902c-.652 2.578-.91 4.752.515 6.847 2.135 3.136 6.432 3.955 9.571 1.824l71.201-48.242-71.2-48.158c-3.14-2.138-7.437-1.316-9.572 1.82-1.488 2.187-1.157 4.297-.363 7.14l6.128 20.56h-86.064l6.202-20.56c.79-2.843 1.122-4.953-.367-7.14-2.13-3.136-6.431-3.958-9.57-1.82L31.151 74.505l71.201 48.242c3.14 2.13 7.44 1.312 9.571-1.824 1.429-2.095 1.168-4.269.512-6.847l-6.347-20.902z" style="fill:#000;fill-opacity:1;fill-rule:evenodd;stroke:none"/>
</svg>
