<svg xmlns="http://www.w3.org/2000/svg" width="285.996" height="286.009" xml:space="preserve">
    <path d="M3.817 133.745 133.735 3.823c5.098-5.098 13.43-5.098 18.527 0L282.18 133.745c5.089 5.094 5.089 13.425 0 18.523L152.262 282.185c-5.097 5.098-13.43 5.098-18.527 0L3.817 152.268c-5.09-5.098-5.09-13.429 0-18.523z" style="fill:#dd7500;fill-opacity:1;stroke:none"/>
    <path clip-rule="evenodd" d="M6.293 136.215 136.21 6.298c3.73-3.733 9.845-3.733 13.577 0l129.918 129.917c3.73 3.736 3.73 9.841 0 13.577L149.788 279.714c-3.732 3.735-9.845 3.735-13.577 0L6.293 149.792c-3.732-3.735-3.732-9.84 0-13.577" style="fill:#000;fill-rule:evenodd;stroke:none"/>
    <path clip-rule="evenodd" d="m10.009 139.929 129.91-129.92c1.69-1.694 4.46-1.694 6.16 0l129.91 129.92a4.364 4.364 0 0 1 0 6.152L146.079 276c-1.7 1.691-4.47 1.691-6.16 0l-129.91-129.92a4.35 4.35 0 0 1 0-6.153" style="fill:#dd7500;fill-opacity:1;fill-rule:evenodd;stroke:none"/>
    <path clip-rule="evenodd" d="M183.155 106.126v4.933c0 13.167-6.176 26.17-16.711 34.149l-41.126 31.146c-3.305 2.506-5.275 6.33-5.275 10.466v30.138H89.739V186.82c0-7.902 2.142-15.781 6.3-22.508 2.56-4.158 5.779-8.084 9.689-11.052l41.84-31.735c1.986-1.51 3.623-3.5 4.516-5.846.574-1.506.884-3.124.884-4.745v-5.277l-20.063 5.773c-.313.084-.636.12-.946.164-1.42.191-2.785-.19-3.964-1.005a5.874 5.874 0 0 1-2.437-3.73c-.311-1.664-.008-3.222.962-4.579l41.475-58.302 37.759 58.442c.605.933.97 2.12.962 3.237 0 2.848-2.126 5.322-4.88 5.902-1.01.213-1.98.06-2.933-.25l-15.748-5.185" style="fill:#000;fill-rule:evenodd;stroke:none"/>
</svg>
