<svg xmlns="http://www.w3.org/2000/svg" width="285.995" height="286.005" xml:space="preserve">
    <path d="M282.172 133.739 152.262 3.825c-5.1-5.1-13.436-5.1-18.525 0L3.82 133.739c-5.093 5.098-5.093 13.43 0 18.527l129.917 129.922c5.089 5.09 13.425 5.09 18.526 0l129.909-129.921c5.097-5.098 5.097-13.43 0-18.528z" style="fill:#dd7500;fill-opacity:1;stroke:none"/>
    <path clip-rule="evenodd" d="M279.705 136.214 149.788 6.292c-3.735-3.731-9.845-3.731-13.576 0L6.295 136.214c-3.736 3.736-3.736 9.846 0 13.578l129.917 129.922c3.73 3.731 9.84 3.731 13.576 0l129.917-129.922c3.73-3.732 3.73-9.842 0-13.578" style="fill:#000;fill-rule:evenodd;stroke:none"/>
    <path clip-rule="evenodd" d="M275.988 139.927 146.072 10.004a4.372 4.372 0 0 0-6.152 0L10.003 139.927a4.37 4.37 0 0 0 0 6.156L139.92 275.998a4.352 4.352 0 0 0 6.152 0l129.916-129.915a4.367 4.367 0 0 0 0-6.156" style="fill:#dd7500;fill-opacity:1;fill-rule:evenodd;stroke:none"/>
    <path clip-rule="evenodd" d="m199.618 124.29.047 86.172h-30.656l-.004-73.564c0-4.694-4.02-7.65-7.646-7.65l-47.091.187 5.707 17.216c.504.9.718 1.979.81 3.018.3 3.359-2.738 6.099-6.093 6.099-1.57 0-3.118-.645-4.24-1.715l-52.564-40.305 52.565-38.827c1.12-1.074 2.669-1.719 4.239-1.719 3.355 0 6.544 2.964 6.094 6.099-.151 1.039-.306 2.118-.811 3.021l-5.707 16.63 59.78-.03c14.08 0 25.57 11.482 25.57 25.563v-.195" style="fill:#000;fill-rule:evenodd;stroke:none"/>
</svg>
