<svg xmlns="http://www.w3.org/2000/svg" width="285.996" height="286.009" xml:space="preserve">
    <path d="M282.18 133.745 152.262 3.823c-5.098-5.098-13.43-5.098-18.527 0L3.817 133.745c-5.09 5.094-5.09 13.425 0 18.523l129.918 129.917c5.097 5.098 13.429 5.098 18.527 0L282.18 152.268c5.089-5.098 5.089-13.429 0-18.523z" style="fill:#dd7500;stroke:none;fill-opacity:1"/>
    <path clip-rule="evenodd" d="M279.704 136.215 149.786 6.298c-3.731-3.733-9.845-3.733-13.577 0L6.29 136.215c-3.731 3.736-3.731 9.841 0 13.577l129.918 129.922c3.732 3.735 9.845 3.735 13.577 0l129.918-129.922c3.732-3.735 3.732-9.84 0-13.577" style="fill-rule:evenodd;stroke:none;fill:#000"/>
    <path clip-rule="evenodd" d="m275.988 139.929-129.91-129.92c-1.691-1.694-4.461-1.694-6.16 0l-129.91 129.92a4.364 4.364 0 0 0 0 6.152L139.918 276c1.699 1.691 4.469 1.691 6.16 0l129.91-129.92a4.35 4.35 0 0 0 0-6.153" style="fill:#dd7500;fill-rule:evenodd;stroke:none;fill-opacity:1"/>
    <path clip-rule="evenodd" d="M102.842 106.126v4.933c0 13.167 6.176 26.17 16.71 34.149l41.127 31.146c3.305 2.506 5.275 6.33 5.275 10.466v30.138h30.304V186.82c0-7.902-2.142-15.781-6.3-22.508-2.561-4.158-5.78-8.084-9.69-11.052l-41.84-31.735c-1.985-1.51-3.622-3.5-4.515-5.846a13.367 13.367 0 0 1-.884-4.745v-5.277l20.063 5.773c.313.084.636.12.946.164 1.42.191 2.785-.19 3.964-1.005a5.874 5.874 0 0 0 2.437-3.73c.31-1.664.008-3.222-.962-4.579L118.002 43.98l-37.76 58.442c-.604.933-.97 2.12-.961 3.237 0 2.848 2.126 5.322 4.88 5.902 1.009.213 1.979.06 2.933-.25l15.748-5.185" style="fill-rule:evenodd;stroke:none;fill:#000"/>
</svg>
