<svg xmlns="http://www.w3.org/2000/svg" width="285.995" height="286.005" xml:space="preserve">
    <path d="M3.823 133.739 133.732 3.825c5.1-5.1 13.437-5.1 18.526 0l129.917 129.914c5.093 5.098 5.093 13.43 0 18.527L152.258 282.188c-5.09 5.09-13.425 5.09-18.526 0L3.822 152.267c-5.096-5.098-5.096-13.43 0-18.528z" style="fill:#dd7500;fill-opacity:1;stroke:none"/>
    <path clip-rule="evenodd" d="M6.29 136.214 136.207 6.292c3.735-3.731 9.845-3.731 13.576 0L279.7 136.214c3.736 3.736 3.736 9.846 0 13.578L149.783 279.714c-3.731 3.731-9.841 3.731-13.576 0L6.29 149.792c-3.731-3.732-3.731-9.842 0-13.578" style="fill:#000;fill-rule:evenodd;stroke:none"/>
    <path clip-rule="evenodd" d="M10.007 139.927 139.923 10.004a4.372 4.372 0 0 1 6.152 0l129.917 129.923a4.37 4.37 0 0 1 0 6.156L146.075 275.998a4.352 4.352 0 0 1-6.152 0L10.007 146.083a4.367 4.367 0 0 1 0-6.156" style="fill:#dd7500;fill-opacity:1;fill-rule:evenodd;stroke:none"/>
    <path clip-rule="evenodd" d="m86.377 124.29-.047 86.172h30.656l.004-73.564c0-4.694 4.019-7.65 7.646-7.65l47.09.187-5.706 17.216c-.504.9-.718 1.979-.811 3.018-.3 3.359 2.739 6.099 6.094 6.099 1.57 0 3.118-.645 4.239-1.715l52.565-40.305-52.565-38.827c-1.121-1.074-2.67-1.719-4.24-1.719-3.354 0-6.543 2.964-6.093 6.099.15 1.039.306 2.118.81 3.021l5.708 16.63-59.78-.03c-14.08 0-25.57 11.482-25.57 25.563v-.195" style="fill:#000;fill-rule:evenodd;stroke:none"/>
</svg>
