<svg xmlns="http://www.w3.org/2000/svg" width="286.008" height="286.013" xml:space="preserve">
    <path d="M282.188 133.744 152.138 3.822c-5.091-5.096-13.418-5.096-18.503 0L3.823 133.744c-5.097 5.093-5.097 13.43 0 18.527l129.812 129.922c5.085 5.094 13.412 5.094 18.504 0l130.049-129.922c5.093-5.097 5.093-13.433 0-18.527z" style="fill:#dd7500;stroke:none;fill-opacity:1"/>
    <path clip-rule="evenodd" d="M279.723 136.219 149.667 6.293c-3.73-3.733-9.83-3.733-13.563 0L6.307 136.219c-3.74 3.733-3.74 9.843 0 13.578l129.797 129.926c3.732 3.728 9.833 3.728 13.563 0l130.057-129.926c3.728-3.734 3.728-9.844-.001-13.578" style="fill-rule:evenodd;stroke:none;fill:#000"/>
    <path clip-rule="evenodd" d="M276.01 139.93 145.96 10.004a4.353 4.353 0 0 0-6.146 0L10.012 139.93a4.368 4.368 0 0 0 0 6.152l129.8 129.92a4.343 4.343 0 0 0 6.147 0l130.05-129.92a4.364 4.364 0 0 0 0-6.152" style="fill:#dd7500;fill-rule:evenodd;stroke:none;fill-opacity:1"/>
    <path clip-rule="evenodd" d="m168.975 170.109.046 45.431 30.556.012-.031-61.952c0-11.373-9.472-20.712-20.89-20.712h-38.792c-4.085 0-7.418-3.336-7.418-7.425l.016-24.911 16.345 4.878c2.256.632 3.93.895 5.674-.291 2.488-1.695 3.14-5.115 1.442-7.611L117.65 40.886 79.312 97.527c-1.69 2.496-1.042 5.916 1.442 7.611 1.67 1.136 3.399.931 5.449.411l16.615-4.999.02 41.417.004-.089c0 11.37 9.166 20.712 20.533 20.797l38.168.008c4.084.001 7.432 3.337 7.432 7.426" style="fill-rule:evenodd;stroke:none;fill:#000"/>
</svg>
