<svg xmlns="http://www.w3.org/2000/svg" width="108.959" height="108.946" viewBox="0 0 307.508 307.47">
    <path d="M145.518 304.107 3.405 161.994c-4.54-4.54-4.54-11.938 0-16.478L145.511 3.41c4.54-4.544 11.945-4.547 16.485-.007l142.106 142.12c4.54 4.54 4.54 11.935 0 16.475l-142.106 142.11c-4.483 4.48-11.994 4.487-16.478 0" style="fill:#dd7500;fill-opacity:1;fill-rule:nonzero;stroke:none"/>
    <path d="M147.776 301.793 5.723 159.736c-3.267-3.273-3.26-8.688 0-11.962L147.769 5.728c3.274-3.274 8.682-3.267 11.97 0L301.78 147.78c3.263 3.274 3.27 8.678 0 11.955L159.74 301.793c-3.281 3.253-8.69 3.267-11.963 0" style="fill:#000;fill-opacity:1;fill-rule:evenodd;stroke:none"/>
    <path d="M150.94 298.548 8.968 156.572c-1.573-1.52-1.573-4.113 0-5.633L150.94 8.97c1.514-1.57 4.107-1.57 5.627 0L298.543 150.94c1.57 1.524 1.57 4.12-.006 5.64L156.574 298.548c-1.52 1.57-4.113 1.57-5.634 0" style="fill:#dd7500;fill-opacity:1;fill-rule:evenodd;stroke:none"/>
    <path d="M95.85 186.095v19.681H74.784V186.25c0 .155 0 0 0 0 0-11.226 5.993-21.834 15.68-27.52l31.525-21.372c2.61-2 4.297-5.228 4.297-8.611v-9.38L114.6 122.75c-1.69.462-2.762.769-4.142-.152-1.693-1.231-2.155-3.69-.931-5.38l27.368-40.59 27.21 40.59c1.242 1.69.773 4.149-1.076 5.38-1.072.77-2.3.614-3.835.307l-11.687-3.538v9.535c0 8.915-3.224 18.45-10.301 23.368l-35.973 24.755c-3.231 1.845-5.232 5.38-5.383 9.07z" style="fill:#000;stroke:none"/>
    <path d="M164.265 186.095v19.681h-21.057V186.25c0 .155 0 0 0 0 0-11.226 6.145-21.834 15.525-27.52l31.521-21.372c2.77-2 4.3-5.228 4.3-8.611v-9.38l-11.687 3.383c-1.535.462-2.77.769-3.994-.152-1.841-1.231-2.31-3.69-1.076-5.38l27.369-40.59 27.52 40.59c1.231 1.69.762 4.149-1.076 5.38-1.228.77-2.459.614-3.845.307l-11.988-3.538v9.535c0 8.915-3.08 18.45-10.3 23.368l-35.832 24.755c-3.225 1.845-5.38 5.38-5.38 9.07" style="fill:#000;fill-opacity:1;fill-rule:evenodd;stroke:none"/>
</svg>
