<svg xmlns="http://www.w3.org/2000/svg" width="105.7" height="52.826" viewBox="0 0 298.308 149.087">
    <path d="m11.652 149.084 275 .003c6.425 0 11.656-5.228 11.656-11.649V11.652C298.312 5.235 293.077 0 286.653 0L11.652.004C5.232.004.003 5.232.003 11.653L0 137.433c.003 6.346 5.31 11.658 11.652 11.651" style="fill:#dd7500;fill-opacity:1;fill-rule:nonzero;stroke:none"/>
    <path d="m11.694 145.856 274.923-.004c4.622-.003 8.446-3.834 8.456-8.456l-.004-125.701c.004-4.622-3.834-8.442-8.456-8.457l-274.916.004C7.07 3.25 3.241 7.067 3.237 11.7V137.4c.012 4.615 3.825 8.456 8.457 8.456" style="fill:#000;fill-opacity:1;fill-rule:evenodd;stroke:none"/>
    <path d="m11.754 141.326 274.803-.004c2.188.043 4.022-1.795 3.987-3.986l-.004-125.581c.039-2.184-1.796-4.026-3.983-3.983l-274.8.004C9.563 7.73 7.728 9.57 7.774 11.759L7.766 137.34c-.039 2.188 1.796 4.022 3.987 3.987" style="fill:#dd7500;fill-opacity:1;fill-rule:evenodd;stroke:none"/>
    <path d="M27.925 95.338h158.472l-7.758 24.511c-.25.787-.427 1.588-.44 2.42-.089 3.877 2.93 7.394 6.684 8.121a8.333 8.333 0 0 0 6.347-1.302l79.149-54.465-79.061-54.367c-1.408-.97-3.027-1.545-4.738-1.555-3.877-.04-7.394 2.818-8.124 6.621-.258 1.376-.244 2.752.183 4.078l7.758 24.508H27.925v41.43z" style="fill:#000;fill-opacity:1;fill-rule:evenodd;stroke:none"/>
</svg>
