<svg xmlns="http://www.w3.org/2000/svg" width="285.996" height="286.006" viewBox="-1 -1 285.996 286.006" xml:space="preserve">
    <path d="m2.817 132.744 129.92-129.92c5.094-5.099 13.426-5.099 18.52 0l129.92 129.92c5.091 5.095 5.091 13.427 0 18.525l-129.92 129.92c-5.093 5.09-13.425 5.09-18.519 0L2.818 151.268c-5.09-5.098-5.09-13.43 0-18.526z" style="fill:#dd7500;fill-opacity:1;stroke:none"/>
    <path clip-rule="evenodd" d="M5.292 135.219 135.212 5.293c3.73-3.734 9.84-3.734 13.574 0l129.916 129.924c3.737 3.735 3.737 9.842 0 13.577L148.786 278.717c-3.734 3.727-9.843 3.727-13.574 0L5.292 148.792c-3.732-3.734-3.732-9.84 0-13.575" style="fill:#000;fill-rule:evenodd;stroke:none"/>
    <path clip-rule="evenodd" d="M9.008 138.927 138.92 9.007c1.691-1.693 4.461-1.693 6.156 0l129.917 129.918a4.375 4.375 0 0 1 0 6.157L145.075 274.998a4.356 4.356 0 0 1-6.156 0L9.01 145.083a4.355 4.355 0 0 1 0-6.156" style="fill:#dd7500;fill-opacity:1;fill-rule:evenodd;stroke:none"/>
    <path clip-rule="evenodd" d="M151.495 127.853c1.357 4.505 2.708 9.01 4.063 13.514.535 1.769.933 3.748 1.87 5.35 2.035 3.5 6.936 4.144 9.768 1.188 1.562-1.629 2.411-4.028 3.39-6.019l6.03-12.228c8.306-16.846 16.612-33.689 24.91-50.535-18.797-.004-37.598-.008-56.402-.008-4.469 0-8.946 0-13.415-.004-2.354 0-5.016-.25-7.319.353-3.833 1.01-6.362 5.351-3.717 8.915 1.227 1.645 2.887 3.146 4.275 4.678 3.157 3.492 6.315 6.981 9.473 10.472-14.555 6.61-28.683 16.747-37.32 30.431-8.59 13.625-9.939 28.421-9.904 44.093.016 11.234.04 22.47.062 33.703 0 .225-.132 1.772.11 1.772H110.797c1.54 0 6.994 1.06 6.994-.888 0-4.566.008-9.132.008-13.697.008-9.524-.074-19.048.027-28.57.077-7.51 1.714-14.599 5.795-20.973 6.338-9.88 17.837-16.296 27.873-21.547" style="fill:#000;fill-rule:evenodd;stroke:none"/>
</svg>
