<svg xmlns="http://www.w3.org/2000/svg" width="286.008" height="286.013" xml:space="preserve">
    <path d="M3.82 133.744 133.869 3.822c5.092-5.096 13.419-5.096 18.504 0l129.812 129.922c5.097 5.093 5.097 13.43 0 18.527L152.373 282.193c-5.085 5.094-13.412 5.094-18.504 0L3.819 152.271c-5.092-5.097-5.092-13.433 0-18.527z" style="fill:#dd7500;fill-opacity:1;stroke:none"/>
    <path clip-rule="evenodd" d="M6.285 136.219 136.34 6.293c3.729-3.733 9.83-3.733 13.563 0L279.7 136.219c3.74 3.733 3.74 9.843 0 13.578L149.904 279.723c-3.732 3.728-9.833 3.728-13.563 0L6.284 149.797c-3.728-3.734-3.728-9.844 0-13.578" style="fill:#000;fill-rule:evenodd;stroke:none"/>
    <path clip-rule="evenodd" d="m9.998 139.93 130.05-129.926a4.353 4.353 0 0 1 6.146 0L275.996 139.93a4.368 4.368 0 0 1 0 6.152l-129.801 129.92a4.343 4.343 0 0 1-6.146 0L9.998 146.082a4.364 4.364 0 0 1 0-6.152" style="fill:#dd7500;fill-opacity:1;fill-rule:evenodd;stroke:none"/>
    <path clip-rule="evenodd" d="m117.033 170.109-.046 45.431-30.556.012.03-61.952c0-11.373 9.473-20.712 20.89-20.712h38.793c4.085 0 7.418-3.336 7.418-7.425l-.016-24.911-16.345 4.878c-2.256.632-3.93.895-5.674-.291-2.488-1.695-3.14-5.115-1.442-7.611l38.273-56.642 38.338 56.641c1.69 2.496 1.042 5.916-1.442 7.611-1.67 1.136-3.4.931-5.45.411l-16.614-4.999-.02 41.417-.004-.089c0 11.37-9.166 20.712-20.533 20.797l-38.168.008c-4.084.001-7.432 3.337-7.432 7.426" style="fill:#000;fill-rule:evenodd;stroke:none"/>
</svg>
