<svg xmlns="http://www.w3.org/2000/svg" width="89.985" height="90.001" viewBox="0 -0.321 89.985 90.001" xml:space="preserve">
    <path d="M1.191 41.76 42.065.885a4.139 4.139 0 0 1 5.84 0L88.779 41.76a4.135 4.135 0 0 1 0 5.838L47.905 88.473a4.137 4.137 0 0 1-5.84 0L1.19 47.598c-1.587-1.587-1.589-4.25 0-5.838" style="fill:#dd7500;fill-opacity:1;fill-rule:nonzero;stroke:none"/>
    <path d="M2.011 42.56 42.866 1.708c1.16-1.159 3.08-1.157 4.238 0L87.958 42.56c1.16 1.16 1.155 3.076 0 4.237L47.104 87.652c-1.161 1.156-3.076 1.159-4.238 0L2.011 46.798c-1.153-1.161-1.158-3.077 0-4.237" style="fill:#000;fill-opacity:1;fill-rule:evenodd;stroke:none"/>
    <path d="M3.161 43.681 43.986 2.856a1.402 1.402 0 0 1 1.998 0l40.824 40.825a1.4 1.4 0 0 1 0 1.996L45.984 86.501c-.54.559-1.459.56-1.998 0L3.161 45.677a1.403 1.403 0 0 1 0-1.996" style="fill:#dd7500;fill-opacity:1;fill-rule:evenodd;stroke:none"/>
    <path d="M65.15 56.19h6.308V33.405l-34.24-.06v3.978h-5.483c-2.232 0-3.625 0-4.552 3.084l-1.537 6.018h-3.558c-1.747 0-1.747 0-1.747 1.69v8.077h-1.868v1.868h6.694c.339 2.542 1.965 4.28 4.526 4.28 2.542 0 4.268-1.778 4.84-4.28h2.685v-1.868h17.844c-.041.24-.061.763-.061 1.023a5.135 5.135 0 0 0 5.125 5.125 5.134 5.134 0 0 0 5.124-5.125c0-.32-.042-.723-.1-1.023" style="fill:#000;fill-opacity:1;fill-rule:evenodd;stroke:none"/>
</svg>
