<svg xmlns="http://www.w3.org/2000/svg" width="286.001" height="286.014" xml:space="preserve">
    <path d="M4.093 133.084 133.077 4.094c5.463-5.459 14.39-5.459 19.845 0l128.99 128.99c5.454 5.458 5.454 14.388 0 19.846L152.92 281.918c-5.454 5.463-14.382 5.463-19.844 0L4.094 152.932c-5.458-5.459-5.458-14.389 0-19.847z" style="fill:#dd7500;stroke:none;fill-opacity:1"/>
    <path clip-rule="evenodd" d="M7.199 135.132 135.13 7.2c4.33-4.326 11.412-4.326 15.74 0L278.8 135.132c4.329 4.33 4.329 11.417 0 15.742L150.872 278.806c-4.33 4.33-11.41 4.33-15.741 0L7.198 150.875c-4.329-4.325-4.329-11.413 0-15.742" style="fill-rule:evenodd;stroke:none;fill:#000"/>
    <path clip-rule="evenodd" d="M11.204 139.073 139.067 11.2c2.16-2.165 5.707-2.165 7.864 0l127.865 127.873c2.165 2.161 2.165 5.706 0 7.867L146.933 274.81c-2.156 2.164-5.704 2.164-7.865 0L11.203 146.941c-2.164-2.162-2.164-5.707 0-7.868" style="fill:#dd7500;fill-rule:evenodd;stroke:none;fill-opacity:1"/>
    <path clip-rule="evenodd" d="M122.204 178.006v-9.846H93.911c.488-2.455.734-3.689 1.473-5.407 1.972-5.912 6.643-12.306 11.076-15.506l2.706-1.967 2.457-1.723 2.458-1.718c.74-.74 1.487-1.234 2.222-1.727 3.93-3.689 5.902-8.119 5.902-13.779 0-10.823-8.612-19.684-19.44-19.684-11.071 0-19.437 8.612-19.683 19.684h9.844c0-5.416 4.43-9.842 9.838-9.842 5.417 0 9.844 4.426 9.844 9.842 0 3.445-1.232 5.167-5.903 8.368-5.665 3.934-7.137 5.167-8.861 6.646-4.672 4.426-8.361 10.086-11.317 17.47-2.214 6.147-2.953 9.592-3.446 19.19h39.123m-50.931 0v-70.123h-6.644c-1.472 2.948-3.936 4.67-7.877 4.92v7.622h4.434v57.581h10.086z" style="fill-rule:evenodd;stroke:none;fill:#000"/>
    <path transform="translate(-1.004 -.993)" style="fill:#000;fill-rule:evenodd;stroke:none" d="M220.056 108.974h-7.758l1.265 16.091h5.228l1.265-16.091M231.639 108.974h-7.906l1.265 16.091h5.369l1.272-16.091M145.143 108.974h-7.766l1.272 16.091h5.224l1.27-16.091"/>
    <path clip-rule="evenodd" d="m160.594 100.968-35.06-.036.063-28.73-31.114 6.503c-1.005.208-1.41.33-1.745.33-2.08-.005-3.987-2.007-3.983-4.086 0-.83-.068-1.45.917-2.323l53.36-47.488 53.21 47.576c.838.757.908 1.502.908 2.333-.009 2.16-1.926 4.072-4.082 4.068-.334 0-.396-.077-1.164-.251l-31.25-7.096-.06 29.2M160.594 185.245l-35.06.038.063 28.73-31.114-6.498c-1.005-.212-1.41-.324-1.745-.324-2.08 0-3.987 2-3.983 4.077 0 .83-.068 1.45.917 2.327l53.36 47.482 53.21-47.571c.838-.757.908-1.498.908-2.328-.009-2.164-1.926-4.077-4.082-4.077-.334 0-.396.082-1.164.26l-31.25 7.088-.06-29.204" style="fill-rule:evenodd;stroke:none;fill:#000"/>
    <path style="fill:#000;stroke:none" d="M130.972 139.87h24.598v9.345h-24.598z"/>
    <path clip-rule="evenodd" d="M197.159 156.841c0 7.386-3.941 12.553-9.846 12.553s-9.838-5.659-9.838-13.534c0-6.646 3.934-11.809 9.838-11.809 5.904 0 9.846 5.416 9.846 12.79m9.837 0c0-13.283-7.627-22.388-19.684-22.388-1.226 0-2.708 0-4.43.248 2.467-6.645 8.86-15.009 14.764-19.439l-5.654-7.87c-15.253 11.808-24.113 29.524-24.113 46.5 0 15.99 6.64 25.386 19.435 25.386 12.056 0 19.682-9.143 19.682-22.437z" style="fill-rule:evenodd;stroke:none;fill:#000"/>
</svg>
