<svg xmlns="http://www.w3.org/2000/svg" width="285.308" height="285.308" viewBox="0 -1 285.308 285.308" xml:space="preserve">
    <path clip-rule="evenodd" d="M23.775 284.308h237.747c13.134 0 23.786-10.62 23.786-23.765V22.781C285.308 9.645 274.656-1 261.522-1H23.775C10.628-1 0 9.645 0 22.781v237.762c0 13.113 10.644 23.765 23.775 23.765z" style="fill:#dd7500;fill-opacity:1;fill-rule:evenodd;stroke:none"/>
    <path d="M23.775-2.346C9.924-2.346-1.346 8.927-1.346 22.781v237.762c0 13.849 11.27 25.111 25.121 25.111h237.747c13.86 0 25.132-11.262 25.132-25.111V22.781c0-13.854-11.272-25.127-25.132-25.127H23.775zM1.346 260.543V22.781C1.346 10.409 11.407.346 23.775.346h237.747c12.376 0 22.439 10.063 22.439 22.435v237.762c0 12.366-10.063 22.419-22.439 22.419H23.775c-12.369 0-22.429-10.053-22.429-22.419z" style="fill:none;stroke:none"/>
    <path clip-rule="evenodd" d="M23.846 279.356h237.602c10.495 0 19.002-8.497 19.002-19.002V22.55c0-10.5-8.507-19.012-19.002-19.012H23.846c-10.495 0-18.988 8.512-18.988 19.012v237.804c0 10.484 8.507 19.002 18.988 19.002" style="fill:#000;fill-rule:evenodd;stroke:none"/>
    <path clip-rule="evenodd" d="M23.867 272.258h237.57c6.552 0 11.862-5.321 11.862-11.872V23.165c0-6.569-5.311-11.877-11.862-11.877H23.867C17.31 11.288 12 16.596 12 23.165v237.221c.001 6.561 5.3 11.872 11.867 11.872" style="fill:#dd7500;fill-opacity:1;fill-rule:evenodd;stroke:none"/>
    <path clip-rule="evenodd" d="M146.651 252.215v-19.128c0-5.268-4.143-9.253-9.99-9.253-3.139 0-5.276.693-8.415 3.28-1.998-2.292-4.422-3.28-7.274-3.28-2.713 0-5.137 1.272-6.709 2.85v-2.282h-6.843v27.813h6.843v-16.698c0-2.85 1.858-4.984 4.566-4.984 2.713 0 4.995 2.135 4.995 5.131v16.552h6.559V235.37c0-2.565 2.143-4.837 4.711-4.837 3 0 4.85 1.998 4.85 5.131v16.552h6.707m-43.371-.001-7.558-18.822 7.274-8.865h-8.275l-7.418 9.569V213.55l-6.704 2.576v36.089h6.704v-8.139l3.714-5.143 5.56 13.281h6.703z" style="fill:#000;fill-rule:evenodd;stroke:none"/>
    <path transform="translate(-1.346 -2.346)" style="fill:#000;stroke:none" d="M180.232 215.623h-6.84l-22.682 38.938h6.698l22.824-38.938"/>
    <path clip-rule="evenodd" d="M204.57 252.215v-19.128c0-5.268-4.143-9.253-10.137-9.253-1.998 0-4.7.42-6.42 2.555V213.55l-6.703 2.576v36.089h6.703v-16.268c0-4.133 2.713-5.415 5.137-5.415 2.713 0 4.995 2.271 4.995 5.131v16.552h6.425M142.658 199.722c46.496 0 84.3-37.961 84.3-84.166 0-46.513-37.804-84.458-84.3-84.458-46.365 0-84.311 37.945-84.311 84.458 0 46.205 37.946 84.166 84.311 84.166" style="fill:#000;fill-rule:evenodd;stroke:none"/>
    <path clip-rule="evenodd" d="M142.658 192.003c42.08 0 76.603-34.521 76.603-76.447 0-42.23-34.522-76.608-76.603-76.608-42.085 0-76.474 34.377-76.474 76.608 0 41.926 34.388 76.447 76.474 76.447" style="fill:#dd7500;fill-opacity:1;fill-rule:evenodd;stroke:none"/>
    <path clip-rule="evenodd" d="M182.74 115.838c0 4.995-1.141 11.272-2.571 14.688-2.276 5.712-5.137 8.278-9.984 8.278-4.138 0-6.846-1.572-8.843-4.995-2.566-4.135-3.849-11.123-3.849-17.971 0-5.563.852-11.415 2.418-15.269 2.282-5.702 5.563-8.271 10.558-7.981 3.859.287 6.277 1.567 8.418 4.992 2.423 4.28 3.853 10.983 3.853 18.258m10.268 0c0-8.276-1.709-16.407-4.422-22.114-3.996-7.984-9.7-11.551-17.977-11.551-7.418 0-12.697 2.282-16.546 7.271-4.422 6.139-7.129 15.694-7.129 26.394 0 7.708 1.851 16.404 4.563 21.83 3.849 7.844 9.559 11.412 18.686 11.412 6.846 0 12.125-2.284 15.7-7.282 4.554-5.561 7.125-15.834 7.125-25.96zm-68.902 13.404c0 5.282-5.416 9.562-11.84 9.562-6.278 0-11.554-4.28-11.554-9.562 0-4.995 5.276-9.406 11.554-9.406 6.564 0 11.84 4.411 11.84 9.406zm10.271.144c0-10.841-9.981-19.682-22.111-19.682-2.416 0-4.14 0-7.697.57 3.849-8.133 7.984-13.412 15.973-19.548l-5.276-8.555c-14.977 9.984-25.105 28.389-25.105 46.355 0 11.559 9.551 20.552 22.106 20.552 12.554.001 22.11-8.561 22.11-19.692z" style="fill:#000;fill-rule:evenodd;stroke:none"/>
</svg>
