<svg xmlns="http://www.w3.org/2000/svg" width="285.308" height="285.308" viewBox="0 -1 285.308 285.308" xml:space="preserve">
    <path clip-rule="evenodd" d="M23.775 284.308h237.747c13.144 0 23.786-10.62 23.786-23.765V22.781C285.308 9.645 274.665-1 261.522-1H23.775C10.633-1 0 9.645 0 22.781v237.762c0 13.113 10.649 23.765 23.775 23.765z" style="fill:#dd7500;fill-rule:evenodd;stroke:none;fill-opacity:1"/>
    <path clip-rule="evenodd" d="M23.851 279.356h237.597c10.495 0 19.002-8.497 19.002-19.002V22.55c0-10.5-8.507-19.012-19.002-19.012H23.851C13.357 3.538 4.86 12.05 4.86 22.55v237.804c.001 10.484 8.507 19.002 18.991 19.002" style="fill-rule:evenodd;stroke:none;fill:#000"/>
    <path clip-rule="evenodd" d="M23.872 272.258h237.565c6.563 0 11.862-5.321 11.862-11.872V23.165c0-6.569-5.3-11.877-11.862-11.877H23.872c-6.559 0-11.867 5.308-11.867 11.877v237.221c.001 6.561 5.298 11.872 11.867 11.872" style="fill:#dd7500;fill-rule:evenodd;stroke:none;fill-opacity:1"/>
    <path clip-rule="evenodd" d="M253.835 122.675c0-26.241-20.926-45.803-49.812-45.803-8.002 0-14.237.889-24.448 3.113l1.325-18.229h62.693l.452-22.243h-84.492l-4.007 59.588 22.683 5.783c9.338-3.559 16.004-4.895 24.459-4.895 9.337 0 16.004 1.783 20.452 5.342 4.89 4.001 8.013 10.665 8.013 17.342 0 14.225-11.566 22.674-30.684 22.674-12.902 0-25.784-3.557-36.909-10.226l-11.999 19.12c15.984 9.779 31.558 14.301 48.908 14.301 31.125.001 53.366-19.2 53.366-45.867m-120.074 4.004c0-12.011-3.557-18.675-16.01-29.803 7.558-9.777 10.224-15.555 10.224-24.015 0-20.447-18.678-35.563-44.02-35.563-18.234 0-33.789 6.664-46.252 19.564l16.911 15.565c7.553-8.013 17.335-12.453 28.014-12.453 13.333 0 22.225 5.775 22.225 13.333 0 7.124-7.114 12.456-16.896 12.456h-5.329v22.682h6.228c4.89 0 8.883.889 12.442 2.666 5.784 3.11 9.782 10.224 9.782 16.452 0 10.67-10.665 17.787-26.241 17.787-14.672 0-26.236-4.892-35.119-16.451l-18.234 13.783c4.445 5.326 6.675 7.565 9.782 10.227 11.112 10.221 26.672 15.636 42.241 15.636 28.47-.002 50.252-18.299 50.252-41.866zM226.936 246.011v-47.53h-8.496v18.36h-21.357v-18.36h-8.507v47.53h8.507v-20.674l21.357-.168v20.842h8.496m-67.14-33.019c0 3.502-2.84 5.836-6.993 5.836h-13.849v-11.83h13.849c4.153 0 6.993 2.324 6.993 5.994zm8.506 0c0-5.331-2.829-10-7.329-12.503-2.682-1.504-4.848-2.009-8.518-2.009h-22.177v47.53h8.675v-18.676h13.502c3.67 0 5.836-.336 8.518-1.84 4.5-2.502 7.329-7.486 7.329-12.502zm-62.806 33.019v-47.53h-8.344l-14.004 28.192-13.836-28.192h-8.347v47.53h8.347v-29.012l13.836 29.012 14.004-29.012v29.012h8.344z" style="fill-rule:evenodd;stroke:none;fill:#000"/>
</svg>
