<svg xmlns="http://www.w3.org/2000/svg" width="79.473" height="79.47" viewBox="0 -0.321 79.473 79.47" xml:space="preserve">
    <path d="M75.344 79.149H4.13A4.137 4.137 0 0 1 0 75.02L.003 3.812A4.135 4.135 0 0 1 4.13-.321l71.214.004a4.134 4.134 0 0 1 4.129 4.127v71.21c-.002 2.247-1.882 4.13-4.129 4.13" style="fill:#dd7500;fill-opacity:1;fill-rule:nonzero;stroke:none"/>
    <path d="M75.329 78.003H4.145c-1.638-.001-2.993-1.361-2.998-2.998V3.825c0-1.64 1.358-2.995 2.998-2.997h71.184a3.018 3.018 0 0 1 2.996 2.997l.003 71.18c-.008 1.639-1.36 2.996-3 2.998" style="fill:#000;fill-opacity:1;fill-rule:evenodd;stroke:none"/>
    <path d="M75.31 76.397H4.165a1.4 1.4 0 0 1-1.411-1.412V3.844a1.403 1.403 0 0 1 1.411-1.411l71.143-.001c.776-.01 1.425.64 1.413 1.415v71.138a1.401 1.401 0 0 1-1.41 1.412" style="fill:#dd7500;fill-opacity:1;fill-rule:evenodd;stroke:none"/>
    <path d="M67.36 50.548c0 .741-.431 1.547-1.051 1.857-.496.247-.807.31-1.673.31h-3.655V48.38h3.655c.866 0 1.177.061 1.673.309a2.242 2.242 0 0 1 1.051 1.86m2.85 0c0-1.798-1.177-3.655-2.725-4.4-.869-.433-1.798-.555-3.22-.555h-6.07v17.651h2.786v-7.681h3.284c1.362 0 2.414-.248 3.22-.619 1.548-.681 2.725-2.539 2.725-4.396M53.981 63.244V45.593h-2.785l-4.09 9.909-4.086-9.91h-2.789v17.652h2.789V53.025l4.086 10.219 4.09-10.219v10.219h2.785zM31.872 55.44h-3.53l1.794-4.955 1.736 4.955zm5.698 7.804-6.071-17.651h-2.787l-6.07 17.651h2.973l1.734-4.955h5.512l1.735 4.955h2.974zM18.12 50.548c0 .741-.435 1.486-1.116 1.857-.433.247-.743.31-1.609.31H12.05V48.38h3.345c.927 0 1.176.061 1.609.309a2.169 2.169 0 0 1 1.116 1.86m3.159 12.696-3.098-8.237c1.611-.744 2.724-2.602 2.724-4.46 0-1.797-1.113-3.654-2.661-4.4-.867-.432-1.797-.554-3.159-.554H9.262v17.651h2.788v-7.681h3.345l2.849 7.681h3.035zM52.621 33.221V15.57h-2.787V26.84L43.393 15.57h-2.785V33.22h2.785V21.268l6.75 11.953h2.478zM33.98 24.426c0 1.363-.308 3.097-.681 4.027-.62 1.547-1.423 2.228-2.724 2.228-1.116 0-1.861-.435-2.415-1.362-.684-1.115-1.058-3.035-1.058-4.893 0-1.486.25-3.097.682-4.15.622-1.547 1.49-2.228 2.85-2.168 1.053.063 1.735.435 2.293 1.362.682 1.178 1.053 2.974 1.053 4.956m2.786 0c0-2.228-.432-4.46-1.177-6.007-1.113-2.169-2.662-3.16-4.893-3.16-2.042 0-3.469.62-4.521 1.982-1.176 1.673-1.919 4.275-1.919 7.185 0 2.107.493 4.46 1.238 5.945 1.052 2.168 2.6 3.17 5.08 3.17 1.858 0 3.282-.63 4.273-1.993 1.238-1.548 1.92-4.334 1.92-7.122" style="fill:#000;fill-opacity:1;fill-rule:evenodd;stroke:none"/>
</svg>
