<svg xmlns="http://www.w3.org/2000/svg" width="90" height="72.001" viewBox="0 0 254 203.204">
    <path d="M16.933 0h220.134C246.394 0 254 7.606 254 16.937v169.33c0 9.327-7.606 16.937-16.933 16.937H16.933C7.606 203.204 0 195.594 0 186.267V16.937C0 7.606 7.606 0 16.933 0" style="fill:#dd7500;fill-opacity:1;fill-rule:nonzero;stroke:none"/>
    <path d="M17.903 4.403h218.19c7.437 0 13.504 6.054 13.504 13.476v167.443c0 7.426-6.067 13.476-13.504 13.476H17.903c-7.433 0-13.5-6.05-13.5-13.476V17.879c0-7.422 6.067-13.476 13.5-13.476" style="fill:#000;fill-opacity:1;fill-rule:evenodd;stroke:none"/>
    <path d="M18.048 11.176h217.9c3.79 0 6.876 3.083 6.876 6.858v167.132c0 3.778-3.087 6.861-6.876 6.861h-217.9c-3.782 0-6.872-3.083-6.872-6.861V18.034c0-3.775 3.09-6.858 6.872-6.858" style="fill:#dd7500;fill-opacity:1;fill-rule:evenodd;stroke:none"/>
    <path d="M182.002 62.629c0 3.92-.893 8.907-1.962 11.581-1.778 4.452-4.096 6.41-7.839 6.41-3.206 0-5.34-1.245-6.946-3.919-1.958-3.203-3.027-8.724-3.027-14.072 0-4.276.71-8.908 1.958-11.935 1.785-4.455 4.276-6.41 8.195-6.233 3.03.176 4.985 1.245 6.59 3.919 1.962 3.383 3.03 8.551 3.03 14.249m8.016 0c0-6.41-1.246-12.824-3.383-17.28-3.207-6.233-7.663-9.083-14.076-9.083-5.878 0-9.973 1.781-13.004 5.697-3.383 4.812-5.52 12.294-5.52 20.666 0 6.06 1.421 12.827 3.562 17.106 3.027 6.23 7.483 9.112 14.605 9.112 5.345 0 9.444-1.813 12.295-5.729 3.563-4.456 5.52-12.474 5.52-20.49m-53.978 0c0 3.92-.889 8.908-1.954 11.582-1.785 4.452-4.096 6.41-7.839 6.41-3.21 0-5.348-1.245-6.953-3.919-1.955-3.203-3.023-8.724-3.023-14.072 0-4.276.709-8.908 1.957-11.935 1.782-4.455 4.276-6.41 8.195-6.233 3.027.176 4.989 1.245 6.594 3.919 1.958 3.383 3.023 8.551 3.023 14.249m8.022 0c0-6.41-1.248-12.824-3.386-17.28-3.207-6.233-7.66-9.083-14.073-9.083-5.88 0-9.98 1.781-13.007 5.697-3.383 4.812-5.52 12.294-5.52 20.666 0 6.06 1.425 12.827 3.559 17.106 3.03 6.23 7.486 9.112 14.612 9.112 5.345 0 9.44-1.813 12.287-5.729 3.563-4.456 5.528-12.474 5.528-20.49M98.1 69.223c0-9.264-7.662-17.103-16.926-17.103-2.49 0-4.096.357-7.839 1.426l.537-8.372h21.374v-8.018H66.033L64.784 63.34l8.019 2.318c3.027-4.276 4.632-5.345 8.195-5.345 4.988 0 9.08 3.92 9.08 8.908 0 6.59-5.697 11.398-13 11.398-3.743 0-7.486-.712-9.62-1.778l-3.92 7.123c3.56 1.781 8.016 2.882 12.472 2.882 12.823 0 22.09-8.403 22.09-19.625M200.025 122.377v-7.126H168.67v7.126h11.585v43.646h8.012v-43.646h11.758zm-35.27 43.646v-8.195h-23.513v-13.896h14.781v-8.195h-14.781v-12.468h21.91v-8.018h-29.929v50.772h31.531zm-39.903 0v-8.195h-23.517v-13.896h14.789v-8.195h-14.789v-12.468h21.911v-8.018h-29.93v50.772h31.536zm-39.014-42.754v-8.018H54.303v50.772h8.022v-22.091H77.11v-8.195H62.325v-12.468h23.513z" style="fill:#000;fill-opacity:1;fill-rule:evenodd;stroke:none"/>
</svg>
