<svg xmlns="http://www.w3.org/2000/svg" width="108.958" height="108.944" viewBox="0 -0.321 108.958 108.944" xml:space="preserve">
    <path d="M51.56 107.432 1.207 57.08a4.137 4.137 0 0 1 0-5.84L51.557.887A4.139 4.139 0 0 1 57.4.885l50.352 50.356a4.135 4.135 0 0 1 0 5.839L57.4 107.432c-1.588 1.587-4.25 1.59-5.84 0" style="fill:#dd7500;fill-opacity:1;fill-rule:nonzero;stroke:none"/>
    <path d="M52.362 106.612 2.027 56.278c-1.158-1.16-1.155-3.078 0-4.238L52.359 1.707c1.16-1.159 3.076-1.156 4.24 0l50.33 50.335a3.016 3.016 0 0 1 0 4.236L56.6 106.612c-1.161 1.153-3.079 1.156-4.237 0" style="fill:#000;fill-opacity:1;fill-rule:evenodd;stroke:none"/>
    <path d="M53.482 105.462 3.177 55.157a1.403 1.403 0 0 1 0-1.996L53.482 2.857a1.401 1.401 0 0 1 1.995 0l50.305 50.304c.556.54.556 1.459-.002 1.999l-50.3 50.302a1.404 1.404 0 0 1-1.998 0" style="fill:#dd7500;fill-opacity:1;fill-rule:evenodd;stroke:none"/>
    <path d="M84.067 46v-1.547H80.04v-3.638h2.283v-1.51H80.04v-2.787h3.602v-1.547h-5.188V46h5.613zm-7.972 0V34.97h-1.59v6.618l-3.017-6.617h-1.586V46h1.586v-7.393l3.406 7.393h1.201zm-10.45-4.565h-1.588l.773-3.174.814 3.174zM68.392 46l-2.749-11.03h-1.549L61.347 46h1.587l.736-3.019h2.362l.773 3.019h1.588zm-7.703 0V44.53h-4.026v-9.56h-1.587V46h5.613zm-12.966 0v-1.548H43.7v-3.638h2.283v-1.51H43.7v-2.787h3.6v-1.547h-5.187V46h5.611zm-7.971 0V34.97h-1.59v6.617l-3.018-6.617H33.56V46h1.586v-7.393l3.409 7.393h1.199zm-9.91-5.535c0 1.277-.076 1.935-.346 2.825-.272.93-.697 1.355-1.355 1.355-.697 0-1.122-.425-1.395-1.355-.232-.89-.347-1.585-.347-2.785 0-1.24.079-1.975.347-2.825.273-.93.698-1.355 1.395-1.355.658 0 1.083.425 1.355 1.392.233.813.346 1.509.346 2.748m1.509 0c0-1.664-.152-2.709-.618-3.793-.542-1.355-1.316-1.896-2.592-1.896-1.278 0-2.052.541-2.63 1.858-.467 1.046-.623 2.167-.623 3.83 0 1.705.156 2.75.623 3.833.542 1.315 1.313 1.902 2.63 1.902 1.24 0 2.05-.587 2.592-1.902.466-1.045.618-2.128.618-3.832M69.008 56.519c0 .85-.076 1.625-.156 2.32-.152.855-.654 1.59-1.585 1.59h-1.315v-7.935h1.315c.698 0 1.16.348 1.433 1.122.193.465.308 1.665.308 2.903m1.55-.078c0-.851-.118-1.819-.274-2.631-.192-1.123-.656-1.974-1.315-2.439-.386-.309-.852-.425-1.78-.425h-2.825v11.029h3.059c.619 0 1.16-.155 1.546-.501 1.084-.853 1.589-2.48 1.589-5.033m-10.451.968h-1.588l.774-3.174.814 3.174zm2.748 4.566-2.748-11.029h-1.548l-2.747 11.029h1.585l.737-3.018h2.36l.775 3.018h1.586zm-9.907-5.534c0 1.278-.078 1.935-.349 2.825-.271.929-.699 1.355-1.355 1.355-.696 0-1.12-.426-1.394-1.355-.232-.89-.35-1.585-.35-2.786 0-1.238.082-1.974.35-2.825.274-.929.698-1.355 1.394-1.355.656 0 1.084.426 1.355 1.392.233.814.349 1.509.349 2.749m1.509 0c0-1.665-.157-2.709-.62-3.792-.542-1.355-1.314-1.897-2.593-1.897-1.276 0-2.051.542-2.631 1.858-.465 1.045-.621 2.166-.621 3.831 0 1.703.156 2.749.62 3.833.542 1.315 1.318 1.9 2.632 1.9 1.238 0 2.051-.585 2.593-1.9.463-1.047.62-2.13.62-3.833m-9.637-2.555c0 .89-.505 1.395-1.432 1.395h-1.626v-2.787h1.626c.851 0 1.432.542 1.432 1.392m1.547 8.089-1.585-5.416c1.042-.388 1.585-1.358 1.585-2.673 0-1.779-1.16-2.94-2.904-2.94h-3.286v11.029h1.585V56.79h1.508l1.47 5.185h1.627z" style="fill:#000;fill-opacity:1;fill-rule:evenodd;stroke:none"/>
    <path d="M32.463 78.212v-9.127h-.704v-1.208c.625-.04 1.014-.313 1.248-.78h1.055v11.115h-1.6zM40.963 69.866c-.273-.975-.703-1.404-1.364-1.404-.704 0-1.131.429-1.404 1.365-.273.857-.352 1.599-.352 2.846 0 1.21.117 1.911.352 2.809.273.936.7 1.365 1.404 1.365.661 0 1.091-.429 1.364-1.365.274-.898.352-1.56.352-2.846 0-1.25-.117-1.952-.352-2.77m1.247 6.63c-.546 1.326-1.363 1.91-2.611 1.91-1.326 0-2.107-.584-2.651-1.91-.469-1.092-.625-2.145-.625-3.86 0-1.678.156-2.81.625-3.863.582-1.326 1.364-1.871 2.651-1.871 1.286 0 2.065.545 2.611 1.91.47 1.092.625 2.146.625 3.824 0 1.715-.156 2.806-.625 3.86M49.503 69.866c-.273-.975-.7-1.404-1.364-1.404-.704 0-1.131.429-1.404 1.365-.273.857-.352 1.599-.352 2.846 0 1.21.117 1.911.352 2.809.273.936.7 1.365 1.404 1.365.664 0 1.091-.429 1.364-1.365.274-.898.352-1.56.352-2.846 0-1.25-.117-1.952-.352-2.77m1.247 6.63c-.543 1.326-1.363 1.91-2.61 1.91-1.327 0-2.108-.584-2.652-1.91-.469-1.092-.625-2.145-.625-3.86 0-1.678.156-2.81.625-3.863.585-1.326 1.364-1.871 2.651-1.871 1.286 0 2.068.545 2.611 1.91.47 1.092.625 2.146.625 3.824 0 1.715-.156 2.806-.625 3.86M58.043 69.866c-.27-.975-.7-1.404-1.364-1.404-.701 0-1.131.429-1.404 1.365-.273.857-.35 1.599-.35 2.846 0 1.21.115 1.911.35 2.809.273.936.703 1.365 1.404 1.365.664 0 1.094-.429 1.364-1.365.274-.898.352-1.56.352-2.846 0-1.25-.117-1.952-.352-2.77m1.25 6.63c-.546 1.326-1.364 1.91-2.614 1.91-1.326 0-2.105-.584-2.651-1.91-.469-1.092-.623-2.145-.623-3.86 0-1.678.154-2.81.623-3.863.585-1.326 1.364-1.871 2.651-1.871 1.289 0 2.068.545 2.614 1.91.467 1.092.624 2.146.624 3.824 0 1.715-.157 2.806-.624 3.86M69.277 68.656v2.809h2.22v1.52h-2.22v5.227h-1.6V67.097h5.655v1.559h-4.055zM77.663 68.579v9.632H76.06V68.58h-2.027v-1.481h5.655v1.48h-2.026z" style="fill:#000;fill-opacity:1;fill-rule:nonzero;stroke:none"/>
</svg>
