<svg xmlns="http://www.w3.org/2000/svg" width="108.958" height="108.944" viewBox="0 -0.321 108.958 108.944" xml:space="preserve">
    <path d="M51.56 107.432 1.207 57.08a4.137 4.137 0 0 1 0-5.84L51.557.887A4.139 4.139 0 0 1 57.4.885l50.352 50.356a4.135 4.135 0 0 1 0 5.839L57.4 107.432c-1.588 1.587-4.25 1.59-5.84 0" style="fill:#dd7500;fill-opacity:1;fill-rule:nonzero;stroke:none"/>
    <path d="M52.362 106.612 2.027 56.278c-1.158-1.16-1.155-3.078 0-4.238L52.359 1.707c1.16-1.159 3.076-1.156 4.24 0l50.33 50.335a3.016 3.016 0 0 1 0 4.236L56.6 106.612c-1.161 1.153-3.079 1.156-4.237 0" style="fill:#000;fill-opacity:1;fill-rule:evenodd;stroke:none"/>
    <path d="M53.482 105.462 3.177 55.157a1.403 1.403 0 0 1 0-1.996L53.482 2.857a1.401 1.401 0 0 1 1.995 0l50.305 50.304c.556.54.556 1.459-.002 1.999l-50.3 50.302a1.404 1.404 0 0 1-1.998 0" style="fill:#dd7500;fill-opacity:1;fill-rule:evenodd;stroke:none"/>
    <path d="M38.136 57.54c-.141-.981-.527-1.438-1.197-1.438-1.163 0-1.585.913-1.585 3.508 0 2.876.492 4.034 1.726 4.034.845 0 1.056-.702 1.056-1.44h1.445c-.036 1.65-1.092 2.843-2.501 2.843-2.15 0-3.1-1.718-3.1-5.402 0-3.228 1.021-4.946 2.994-4.946.81 0 1.515.35 1.972 1.017.388.491.529.911.635 1.824h-1.445zM73.302 57.295c-.245-.702-.665-1.018-1.295-1.018h-1.19v7.191h1.19c.84 0 1.295-.666 1.435-1.437.07-.631.14-1.334.14-2.106 0-1.122-.105-2.21-.28-2.63m.245 7.12c-.35.316-.84.456-1.4.456h-2.765v-9.996h2.555c.84 0 1.26.105 1.61.386.595.421 1.015 1.192 1.19 2.209.14.736.245 1.613.245 2.385 0 2.316-.455 3.788-1.435 4.56M62.581 64.871v-9.996h4.714v1.402h-3.271v2.527H66.1v1.367h-2.076v3.298h3.659v1.402H62.58zM41.58 64.871v-9.996h1.442v8.664h3.66v1.332H41.58zM52.085 57.365c-.247-.878-.636-1.263-1.236-1.263-.636 0-1.025.385-1.273 1.228-.247.771-.317 1.437-.317 2.561 0 1.088.106 1.719.317 2.525.248.841.637 1.228 1.273 1.228.6 0 .989-.387 1.236-1.228.248-.806.318-1.404.318-2.561 0-1.121-.105-1.754-.318-2.49m1.131 5.964c-.495 1.192-1.237 1.718-2.367 1.718-1.201 0-1.909-.526-2.403-1.718-.423-.983-.566-1.93-.566-3.474 0-1.508.143-2.525.566-3.473.53-1.192 1.237-1.683 2.403-1.683s1.872.49 2.367 1.718c.424.984.565 1.93.565 3.438 0 1.545-.14 2.526-.565 3.474M58.128 60.255a37.47 37.47 0 0 1-1.12-.75c-.807-.568-1.234-1.333-1.234-2.21 0-1.439 1.127-2.596 2.571-2.596 1.41 0 2.501 1.088 2.538 2.596h-1.375c-.035-.701-.528-1.158-1.163-1.158-.669 0-1.197.49-1.197 1.158 0 .491.21.772.95 1.192 1.938 1.123 2.785 2.21 2.785 3.65 0 1.613-1.234 2.91-2.784 2.91-1.761 0-2.818-1.473-2.818-3.122h1.41c0 .842.422 1.719 1.408 1.719.775 0 1.409-.702 1.409-1.508 0-.626-.258-1.154-1.38-1.881M50.217 41.195l-.703 2.876h1.442l-.739-2.876zm1.794 7.015-.704-2.735h-2.145l-.667 2.735h-1.443l2.497-9.998h1.407l2.496 9.998h-1.44zM62.28 48.21v-9.998h4.713v1.404h-3.271v2.526h2.075v1.367h-2.075v3.298h3.658v1.403h-5.1zM41.582 48.21v-9.998h1.443v8.665h3.658v1.333h-5.1zM59.232 48.21l-3.08-6.7v6.7h-1.436v-9.998h1.436l2.73 5.999v-5.999h1.435v9.998h-1.085zM33.287 79.033v-8.207h-.641v-1.088c.57-.035.925-.28 1.138-.7h.962v9.995h-1.46zM45.329 79.612c-.64.446-1.265 1.235-1.635 2.245-.092.251-.14.421-.212.773h4.052v1.402h-5.602c.07-1.367.177-1.859.494-2.735.423-1.052.951-1.86 1.62-2.491.246-.21.458-.386 1.268-.946.67-.457.846-.703.846-1.194a1.41 1.41 0 0 0-2.819 0h-1.409c.037-1.579 1.234-2.805 2.82-2.805 1.548 0 2.782 1.261 2.782 2.805 0 1.595-.957 2.072-2.205 2.946M34.843 84.032h-1.33l8.877-14.995h1.328l-8.875 14.995zM70.629 81.533v-9.997h4.714v1.402H72.07v2.527h2.075v1.367h-2.075v3.298h3.66v1.403h-5.102zM60.91 71.535h1.4v9.998h-1.4v-9.998zM64.237 81.533v-9.997h1.442V80.2h3.659v1.332h-5.101zM57.54 81.533v-5.612l-1.86 5.612-1.862-5.612v5.612h-1.44v-9.997h1.44l1.861 5.612 1.861-5.612h1.44v9.997h-1.44zM55.27 30.321c-.388.878-1.198 1.404-2.22 1.404-1.197 0-2.078-.598-2.57-1.72-.318-.736-.53-2.139-.53-3.438 0-1.402.106-2.42.458-3.367a2.7 2.7 0 0 1 2.536-1.824c1.444 0 2.537 1.053 2.607 2.526h-1.444c-.035-.666-.494-1.123-1.198-1.123-.493 0-.88.246-1.127.736-.283.492-.458 1.614-.458 2.806 0 .843.07 1.719.212 2.491.21.983.703 1.509 1.478 1.509.74 0 1.093-.491 1.093-1.544v-.666h-1.128v-1.404h2.572v2.07c0 .703-.07 1.123-.282 1.544M61.3 31.549v-4.525H58.57v4.525h-1.434V21.55h1.434v4.07H61.3v-4.07h1.435v9.998H61.3zM46.967 21.55h1.4v9.998h-1.4V21.55zM42.93 22.955h-1.47v2.525h1.47c.84 0 1.294-.456 1.294-1.263 0-.771-.525-1.262-1.295-1.262m1.225 8.594-1.33-4.702h-1.365v4.702h-1.436V21.55H43c1.575 0 2.625 1.053 2.625 2.666 0 1.193-.49 2.07-1.435 2.42l1.435 4.912h-1.47zM67.109 22.883v8.665h-1.443v-8.665h-1.828v-1.332h5.1v1.332h-1.83z" style="fill:#000;fill-opacity:1;fill-rule:nonzero;stroke:none"/>
</svg>
