<svg xmlns="http://www.w3.org/2000/svg" width="108.958" height="108.944" viewBox="0 -0.321 108.958 108.944" xml:space="preserve">
    <path d="M51.56 107.432 1.207 57.08a4.137 4.137 0 0 1 0-5.84L51.557.887A4.139 4.139 0 0 1 57.4.885l50.352 50.356a4.135 4.135 0 0 1 0 5.839L57.4 107.432c-1.588 1.587-4.25 1.59-5.84 0" style="fill:#dd7500;fill-opacity:1;fill-rule:nonzero;stroke:none"/>
    <path d="M52.362 106.612 2.027 56.278c-1.158-1.16-1.155-3.078 0-4.238L52.359 1.707c1.16-1.159 3.076-1.156 4.24 0l50.33 50.335a3.016 3.016 0 0 1 0 4.236L56.6 106.612c-1.161 1.153-3.079 1.156-4.237 0" style="fill:#000;fill-opacity:1;fill-rule:evenodd;stroke:none"/>
    <path d="M53.482 105.462 3.177 55.157a1.403 1.403 0 0 1 0-1.996L53.482 2.857a1.401 1.401 0 0 1 1.995 0l50.305 50.304c.556.54.556 1.459-.002 1.999l-50.3 50.302a1.404 1.404 0 0 1-1.998 0" style="fill:#dd7500;fill-opacity:1;fill-rule:evenodd;stroke:none"/>
    <path d="M84.295 42.214c0 .556-.322 1.113-.835 1.39-.327.187-.556.236-1.208.236h-2.508v-3.253h2.508c.698 0 .88.047 1.208.233.513.277.835.835.835 1.394m2.368 9.518-2.321-6.176c1.208-.556 2.043-1.951 2.043-3.342 0-1.348-.835-2.742-1.997-3.3-.649-.323-1.345-.42-2.368-.42h-4.366v13.238h2.09v-5.758h2.508l2.136 5.758h2.275zm-12.121-4.736v-8.501h-2.09v8.501c0 1.719-.974 2.833-2.414 2.833-1.439 0-2.413-1.114-2.413-2.833v-8.501h-2.092v8.501c0 1.021.232 1.951.604 2.74.697 1.301 2.275 2.236 3.9 2.236 1.626 0 3.206-.935 3.902-2.236a6.428 6.428 0 0 0 .603-2.74M60.564 45.14c0 1.022-.232 2.32-.51 3.017-.466 1.163-1.07 1.673-2.046 1.673-.835 0-1.391-.325-1.809-1.022-.512-.837-.791-2.277-.791-3.668 0-1.117.185-2.323.512-3.113.462-1.16 1.114-1.67 2.134-1.626.791.049 1.301.326 1.719 1.022.512.882.791 2.23.791 3.717m2.089 0c0-1.673-.324-3.343-.883-4.505-.835-1.627-1.997-2.368-3.667-2.368-1.533 0-2.603.464-3.391 1.486-.884 1.253-1.44 3.204-1.44 5.387 0 1.58.37 3.345.927 4.457.791 1.626 1.951 2.376 3.809 2.376 1.394 0 2.461-.47 3.206-1.495.928-1.158 1.439-3.248 1.439-5.338m-11.054-4.783v-1.861h-8.174v1.861h3.02v11.376h2.088V40.356h3.066zm-9.194 11.376v-2.136h-6.133v-3.622h3.857V43.84h-3.857v-3.253h5.713v-2.092h-7.8v13.237h8.22zm-13.237-6.64c0 1.765-.418 3.203-1.206 3.994-.372.371-.792.51-1.487.51h-2.09v-9.009h2.368a1.88 1.88 0 0 1 1.345.558c.652.695 1.07 2.182 1.07 3.947m2.136 0c0-2.6-.789-4.692-2.182-5.898-.697-.557-1.207-.7-2.554-.7h-4.273v13.238h4.783c.696-.046 1.394-.277 1.904-.742 1.487-1.161 2.322-3.251 2.322-5.898" style="fill:#000;fill-opacity:1;fill-rule:evenodd;stroke:none"/>
    <path d="M26.325 72.692V61.813h-.837v-1.442c.745-.048 1.209-.371 1.49-.931h1.255v13.252h-1.908zM36.463 62.743c-.328-1.165-.838-1.675-1.629-1.675-.837 0-1.347.51-1.675 1.627-.325 1.022-.417 1.906-.417 3.396 0 1.44.14 2.277.417 3.346.328 1.116.838 1.629 1.675 1.629.791 0 1.301-.513 1.629-1.629.325-1.069.417-1.86.417-3.395 0-1.487-.14-2.325-.417-3.299m1.486 7.903c-.649 1.582-1.626 2.277-3.115 2.277-1.58 0-2.51-.695-3.161-2.277-.558-1.301-.745-2.556-.745-4.604 0-2 .187-3.347.745-4.602.697-1.58 1.627-2.232 3.161-2.232 1.536 0 2.466.652 3.115 2.278.559 1.301.745 2.556.745 4.556 0 2.048-.186 3.349-.745 4.604M46.645 62.743c-.325-1.165-.837-1.675-1.627-1.675-.835 0-1.349.51-1.673 1.627-.327 1.022-.42 1.906-.42 3.396 0 1.44.14 2.277.42 3.346.324 1.116.838 1.629 1.673 1.629.79 0 1.302-.513 1.627-1.629.325-1.069.418-1.86.418-3.395 0-1.487-.139-2.325-.418-3.299m1.488 7.903c-.65 1.582-1.626 2.277-3.115 2.277-1.58 0-2.51-.695-3.163-2.277-.558-1.301-.743-2.556-.743-4.604 0-2 .185-3.347.743-4.602.7-1.58 1.63-2.232 3.163-2.232 1.535 0 2.465.652 3.115 2.278.559 1.301.744 2.556.744 4.556 0 2.048-.185 3.349-.744 4.604M56.83 62.743c-.328-1.165-.838-1.675-1.63-1.675-.837 0-1.347.51-1.672 1.627-.328 1.022-.42 1.906-.42 3.396 0 1.44.14 2.277.42 3.346.325 1.116.835 1.629 1.672 1.629.792 0 1.302-.513 1.63-1.629.324-1.069.417-1.86.417-3.395 0-1.487-.14-2.325-.418-3.299m1.486 7.903c-.648 1.582-1.626 2.277-3.115 2.277-1.58 0-2.51-.695-3.16-2.277-.558-1.301-.746-2.556-.746-4.604 0-2 .188-3.347.745-4.602.698-1.58 1.628-2.232 3.161-2.232 1.537 0 2.467.652 3.115 2.278.56 1.301.745 2.556.745 4.556 0 2.048-.186 3.349-.745 4.604M70.22 61.3v3.348h2.652v1.814H70.22v6.23h-1.906V59.44h6.743v1.86H70.22zM80.218 61.208v11.485h-1.906V61.208h-2.418V59.44h6.741v1.768h-2.417z" style="fill:#000;fill-opacity:1;fill-rule:nonzero;stroke:none"/>
</svg>
