<svg xmlns="http://www.w3.org/2000/svg" width="108.958" height="108.945" viewBox="0 -0.321 108.958 108.945" xml:space="preserve">
    <path d="M51.56 107.433 1.207 57.078a4.137 4.137 0 0 1-.003-5.84L51.56.887A4.137 4.137 0 0 1 57.4.884l50.351 50.357a4.136 4.136 0 0 1 .002 5.84L57.4 107.433c-1.59 1.586-4.251 1.589-5.84 0" style="fill:#dd7500;fill-opacity:1;fill-rule:nonzero;stroke:none"/>
    <path d="M52.36 106.612 2.027 56.278c-1.156-1.16-1.153-3.079 0-4.239L52.36 1.707c1.16-1.16 3.076-1.157 4.239 0l50.33 50.335c1.158 1.16 1.16 3.076 0 4.236L56.6 106.612c-1.163 1.152-3.08 1.157-4.24 0" style="fill:#000;fill-opacity:1;fill-rule:evenodd;stroke:none"/>
    <path d="M53.483 105.462 3.178 55.157a1.4 1.4 0 0 1 0-1.997L53.48 2.857a1.404 1.404 0 0 1 1.998 0L105.78 53.16c.557.542.557 1.46 0 2l-50.302 50.302a1.399 1.399 0 0 1-1.995 0" style="fill:#dd7500;fill-opacity:1;fill-rule:evenodd;stroke:none"/>
    <path d="M70.482 33.84c0 1.41-.337 2.562-.966 3.194-.301.298-.635.408-1.192.408H66.65v-7.209h1.898c.445 0 .815.185 1.076.446.52.558.857 1.747.857 3.16m1.707 0c0-2.082-.633-3.755-1.745-4.72-.558-.446-.968-.558-2.047-.558H64.98v10.592h3.827c.557-.036 1.114-.224 1.524-.595 1.191-.927 1.858-2.602 1.858-4.719m-12.224.63h-2.119l1.074-2.972 1.045 2.971zm3.417 4.684-3.645-10.592h-1.67l-3.645 10.592h1.785l1.043-2.972h3.307l1.04 2.972h1.785zm-12.006-5.277c0 .817-.184 1.857-.405 2.416-.374.929-.857 1.339-1.636 1.339-.671 0-1.116-.262-1.45-.82-.41-.668-.633-1.82-.633-2.935 0-.892.15-1.858.41-2.49.372-.93.892-1.34 1.707-1.302.635.04 1.04.262 1.377.818.408.707.63 1.785.63 2.974m1.675 0c0-1.338-.261-2.677-.709-3.604-.666-1.301-1.596-1.898-2.933-1.898-1.23 0-2.08.372-2.713 1.193-.706 1-1.152 2.562-1.152 4.309 0 1.265.295 2.675.74 3.566.633 1.301 1.562 1.902 3.05 1.902 1.115 0 1.968-.378 2.565-1.193.743-.93 1.152-2.603 1.152-4.275m-10.926-2.342c0 .447-.261.892-.671 1.115-.26.15-.444.187-.964.187h-2.01v-2.603h2.01c.556 0 .705.039.964.185.41.225.67.671.67 1.116m1.896 7.62-1.86-4.945c.966-.446 1.637-1.56 1.637-2.675 0-1.078-.67-2.192-1.598-2.64-.523-.258-1.08-.333-1.898-.333H36.81v10.592h1.67v-4.609h2.01l1.709 4.61h1.82zM93.93 48.392h-1.968l-2.564 4.09-2.528-4.09h-2.008l3.716 5.984v4.61h1.673v-4.61l3.679-5.984zm-11.968 2.974c0 .446-.256.89-.666 1.116-.261.149-.448.185-.968.185h-2.006v-2.603h2.006c.56 0 .707.04.968.188.41.222.666.667.666 1.114m1.896 7.62-1.857-4.944c.966-.445 1.636-1.56 1.636-2.676 0-1.077-.67-2.193-1.597-2.64-.523-.258-1.08-.334-1.897-.334H76.65v10.594h1.672v-4.61h2.006l1.712 4.61h1.818zm-8.957 0v-1.71h-4.903v-2.9h3.084v-1.71h-3.084v-2.602h4.572v-1.672h-6.245v10.594H74.9zm-9.068 0V48.392h-1.67v6.765l-3.866-6.765h-1.672v10.594h1.672v-7.174l4.053 7.174h1.483zm-9.698-10.594h-1.707v10.594h1.707V48.392zm-4.198 10.594V48.392h-1.675v4.275h-3.861v-4.275h-1.675v10.594H46.4v-4.61h3.861v4.61h1.675zm-9.516-2.157-1.596-.595c-.41.857-.93 1.225-1.637 1.225-.742 0-1.225-.258-1.598-.815-.41-.67-.667-1.82-.667-2.973 0-.894.15-1.822.41-2.454.37-.928.928-1.301 1.78-1.301.818 0 1.154.225 1.75 1.115l1.558-.67c-.705-1.485-1.709-2.154-3.309-2.154-1.189 0-2.08.41-2.711 1.189-.743.93-1.19 2.602-1.19 4.275 0 1.337.299 2.675.781 3.606.67 1.299 1.673 1.901 3.233 1.901 1.526 0 2.566-.789 3.196-2.349m-12.003-2.526H28.3l1.078-2.974 1.04 2.974zm3.42 4.683-3.643-10.594h-1.673l-3.64 10.594h1.781l1.04-2.974h3.31l1.04 2.974h1.784zm-10.558 0V48.392h-1.67l-2.453 5.947-2.454-5.947h-1.672v10.594h1.672v-6.134l2.454 6.134 2.453-6.134v6.134h1.67zM75.546 73.504c0 1.414-.333 2.567-.966 3.197-.297.297-.63.41-1.19.41h-1.67V69.9h1.892c.449 0 .82.186 1.079.447.522.556.855 1.745.855 3.156m1.711 0c0-2.08-.632-3.752-1.747-4.718-.558-.445-.965-.558-2.044-.558h-3.418v10.594h3.825c.56-.039 1.117-.225 1.524-.596 1.189-.93 1.86-2.603 1.86-4.722m-12.229.633h-2.116l1.076-2.974 1.04 2.974zm3.42 4.685-3.642-10.594h-1.673l-3.642 10.594h1.785l1.04-2.974h3.307l1.042 2.974h1.783zm-9.772 0V77.11H53.77v-2.9h3.081v-1.71h-3.081v-2.6h4.57v-1.673h-6.243v10.594h6.578zm-9.068 0V68.228h-1.675v4.273h-3.862v-4.273h-1.675v10.594h1.675v-4.61h3.862v4.61h1.675zM37.38 74.137h-2.12l1.08-2.974 1.04 2.974zm3.417 4.685-3.64-10.594h-1.675l-3.64 10.594h1.785l1.04-2.974h3.305l1.04 2.974h1.785z" style="fill:#000;fill-opacity:1;fill-rule:evenodd;stroke:none"/>
</svg>
