<svg xmlns="http://www.w3.org/2000/svg" version="1.0" width="90.001" height="90.001">
    <path d="M1.29 41.878 41.877 1.289a4.426 4.426 0 0 1 6.245 0l40.591 40.589a4.43 4.43 0 0 1 0 6.245L48.123 88.714a4.43 4.43 0 0 1-6.245 0L1.289 48.123a4.426 4.426 0 0 1 0-6.245z" style="fill:#dd7500;fill-opacity:1;stroke:none"/>
    <path d="M2.265 42.525 42.525 2.27a3.513 3.513 0 0 1 4.953 0l40.256 40.256a3.513 3.513 0 0 1 0 4.954L47.478 87.735a3.513 3.513 0 0 1-4.954 0L2.265 47.48a3.513 3.513 0 0 1 0-4.954" style="fill:#000;fill-opacity:1;fill-rule:evenodd;stroke:none"/>
    <path d="M3.525 43.763 43.763 3.525a1.756 1.756 0 0 1 2.475 0l40.237 40.238c.68.681.68 1.796 0 2.475L46.238 86.475a1.754 1.754 0 0 1-2.475 0L3.525 46.238a1.754 1.754 0 0 1 0-2.475" style="fill:#dd7500;fill-opacity:1;fill-rule:evenodd;stroke:none"/>
    <path d="M68.856 33.747c0 .713-.404 1.115-1.148 1.115H66.41v-2.23h1.298c.684 0 1.148.433 1.148 1.115m1.237 6.472-1.27-4.336c.838-.309 1.27-1.084 1.27-2.136 0-1.424-.927-2.354-2.32-2.354H65.14v8.826h1.27V36.07h1.206l1.176 4.15h1.301zm-6.44 0v-1.237h-3.222V36.07h1.827v-1.208h-1.827v-2.23h2.88v-1.24h-4.15v8.827h4.492zm-7.466-4.366c0 .681-.061 1.301-.122 1.857-.124.683-.528 1.272-1.27 1.272h-1.054v-6.35h1.055c.556 0 .927.278 1.145.897.154.373.246 1.333.246 2.324m1.24-.063c0-.68-.092-1.455-.217-2.106-.154-.896-.528-1.579-1.052-1.95-.31-.247-.68-.341-1.426-.341h-2.261v8.826h2.446c.496 0 .931-.124 1.241-.402.867-.682 1.27-1.982 1.27-4.027m-6.165 4.43v-1.177h-3.22v-7.65h-1.27v8.826h4.49zm-6.38-2.632v-6.195h-1.27v6.35c0 .836-.495 1.392-1.176 1.392-.742 0-1.237-.556-1.237-1.392v-6.35h-1.27v6.195c0 .712.092 1.084.34 1.547a2.582 2.582 0 0 0 2.167 1.245c.838 0 1.673-.532 2.108-1.245.246-.463.338-.835.338-1.547m-7.927-1.798c0 1.023-.061 1.55-.278 2.262-.217.743-.56 1.083-1.085 1.083-.558 0-.897-.34-1.115-1.083-.186-.713-.278-1.27-.278-2.23 0-.992.06-1.58.278-2.26.218-.744.557-1.084 1.115-1.084.525 0 .868.34 1.085 1.114.185.65.278 1.207.278 2.198m1.209 0c0-1.33-.125-2.167-.495-3.035-.435-1.083-1.055-1.517-2.077-1.517s-1.642.434-2.106 1.487c-.371.837-.496 1.735-.496 3.065 0 1.364.125 2.2.496 3.067.434 1.053 1.053 1.523 2.106 1.523.992 0 1.642-.47 2.077-1.523.37-.837.495-1.703.495-3.067m-6.907 4.43v-8.827h-1.27v3.594h-2.417v-3.594h-1.269v8.826h1.269v-3.994h2.417v3.994h1.27zm-6.443-2.416c0-1.27-.742-2.23-2.447-3.221-.648-.373-.835-.619-.835-1.054 0-.587.464-1.021 1.053-1.021.556 0 .991.402 1.022 1.021h1.207c-.03-1.331-.992-2.291-2.23-2.291-1.268 0-2.26 1.022-2.26 2.291 0 .775.37 1.458 1.085 1.953 1.796 1.207 1.3.866 1.486 1.052.525.403.712.775.712 1.27 0 .713-.558 1.331-1.24 1.331-.866 0-1.237-.773-1.237-1.517h-1.24c0 1.456.93 2.762 2.477 2.762 1.363 0 2.447-1.152 2.447-2.576M58.367 19.323v-1.176h-4.49v1.176h1.611v7.649h1.27v-7.65h1.61zm-5.697 7.649v-8.825H51.4v3.592h-2.415v-3.592h-1.27v8.825h1.27v-3.994H51.4v3.994h1.27zm-6.69-2.447V22.7h-2.262v1.239h.992v.587c0 .93-.31 1.364-.96 1.364-.68 0-1.115-.465-1.3-1.331a12.536 12.536 0 0 1-.187-2.2c0-1.053.157-2.044.404-2.476.216-.434.556-.652.991-.652.62 0 1.023.403 1.052.992h1.27c-.062-1.302-1.02-2.23-2.29-2.23a2.376 2.376 0 0 0-2.232 1.61c-.31.836-.402 1.735-.402 2.973 0 1.147.187 2.385.466 3.035.431.992 1.205 1.523 2.26 1.523.899 0 1.609-.47 1.951-1.244.185-.372.247-.744.247-1.364m-6.69-6.378h-1.238v8.825h1.238v-8.825zM35.357 20.5c0 .713-.402 1.115-1.145 1.115h-1.301v-2.23h1.301c.681 0 1.145.434 1.145 1.115m1.24 6.472-1.27-4.334c.835-.31 1.27-1.085 1.27-2.138 0-1.425-.93-2.353-2.324-2.353h-2.632v8.825h1.27v-4.15h1.209l1.176 4.15h1.301zM61.802 49.09c0 .682-.064 1.302-.124 1.858-.125.681-.527 1.27-1.27 1.27h-1.052v-6.349h1.052c.557 0 .928.279 1.145.898.157.372.25 1.332.25 2.323m1.237-.062c0-.681-.093-1.455-.217-2.106-.153-.898-.525-1.58-1.052-1.952-.31-.246-.681-.34-1.426-.34h-2.26v8.827h2.448c.495 0 .928-.124 1.238-.403.866-.681 1.269-1.981 1.269-4.026m-6.44 4.429v-1.24h-3.223v-2.91h1.829v-1.208h-1.829v-2.23h2.881V44.63h-4.15v8.827H56.6zm-5.98-2.417c0-1.268-.742-2.228-2.445-3.22-.65-.372-.835-.62-.835-1.053 0-.588.463-1.022 1.052-1.022.556 0 .991.403 1.023 1.022h1.206c-.03-1.332-.991-2.292-2.229-2.292-1.27 0-2.261 1.023-2.261 2.292 0 .773.371 1.456 1.084 1.95 1.797 1.21 1.3.868 1.487 1.055.525.402.713.773.713 1.268 0 .714-.56 1.333-1.24 1.333-.868 0-1.238-.774-1.238-1.518h-1.241c0 1.457.931 2.762 2.479 2.762 1.362 0 2.446-1.152 2.446-2.577m-7.464-2.012c0 1.021-.061 1.549-.277 2.261-.218.743-.558 1.084-1.085 1.084-.557 0-.898-.341-1.115-1.084-.187-.712-.28-1.27-.28-2.23 0-.991.065-1.579.28-2.26.217-.744.558-1.084 1.115-1.084.527 0 .867.34 1.085 1.114.185.651.277 1.208.277 2.199m1.209 0c0-1.333-.125-2.168-.496-3.035-.434-1.084-1.052-1.518-2.075-1.518-1.023 0-1.64.434-2.107 1.487-.37.837-.496 1.733-.496 3.066 0 1.364.125 2.2.496 3.066.434 1.054 1.055 1.523 2.107 1.523.99 0 1.64-.47 2.075-1.523.37-.836.496-1.702.496-3.066m-6.226 4.429v-1.178h-3.22V44.63h-1.27v8.827h4.49zm-6.225-6.473c-.093-.805-.215-1.176-.557-1.611-.403-.589-1.023-.898-1.733-.898-1.737 0-2.634 1.518-2.634 4.367 0 3.252.836 4.775 2.726 4.775 1.238 0 2.169-1.06 2.198-2.514h-1.27c0 .651-.185 1.27-.928 1.27-1.084 0-1.519-1.023-1.519-3.561 0-2.293.372-3.097 1.395-3.097.588 0 .93.402 1.052 1.27h1.27zM64.043 59.063v-1.176h-4.49v1.176h1.61v7.65h1.27v-7.65h1.61zm-5.017.062v-1.238h-4.489v8.826h1.269v-4.15h1.765v-1.208h-1.765v-2.23h3.22zm-11.863 3.16c0 1.022-.06 1.548-.277 2.26-.215.744-.558 1.084-1.085 1.084-.556 0-.895-.34-1.113-1.084-.186-.712-.278-1.27-.278-2.23 0-.99.06-1.58.278-2.26.218-.745.557-1.085 1.113-1.085.527 0 .87.34 1.085 1.115.185.65.277 1.208.277 2.2m1.21 0c0-1.332-.126-2.168-.496-3.036-.432-1.085-1.052-1.517-2.076-1.517-1.02 0-1.64.432-2.104 1.486-.371.836-.496 1.735-.496 3.066 0 1.363.125 2.199.496 3.066.433 1.053 1.053 1.523 2.104 1.523.991 0 1.644-.47 2.076-1.523.37-.836.495-1.703.495-3.066m-7.991 0c0 1.023-.06 1.549-.278 2.261-.215.744-.557 1.084-1.083 1.084-.558 0-.9-.34-1.114-1.084-.185-.712-.281-1.27-.281-2.23 0-.99.063-1.58.28-2.26.216-.745.557-1.085 1.115-1.085.526 0 .868.34 1.083 1.115.185.65.278 1.208.278 2.2m1.209 0c0-1.332-.124-2.168-.495-3.036-.433-1.085-1.053-1.517-2.075-1.517-1.022 0-1.642.432-2.105 1.486-.374.836-.495 1.735-.495 3.066 0 1.363.12 2.199.495 3.066.432 1.053 1.052 1.523 2.105 1.523.99 0 1.642-.47 2.075-1.523.37-.836.495-1.703.495-3.066m-7.99 0c0 1.023-.062 1.549-.28 2.261-.217.744-.555 1.084-1.083 1.084-.556 0-.899-.34-1.114-1.084-.187-.712-.28-1.27-.28-2.23 0-.99.063-1.58.28-2.26.215-.745.558-1.085 1.114-1.085.528 0 .866.34 1.084 1.115.185.65.279 1.208.279 2.2m1.207 0c0-1.332-.124-2.168-.495-3.036-.432-1.085-1.052-1.517-2.075-1.517-1.021 0-1.641.432-2.105 1.486-.374.836-.495 1.735-.495 3.066 0 1.363.121 2.199.495 3.066.433 1.053 1.053 1.523 2.105 1.523.991 0 1.643-.47 2.075-1.523.371-.836.495-1.703.495-3.066m-6.935 4.429v-8.826h-.837c-.187.372-.497.588-.992.618v.96h.557v7.248h1.272z" style="fill:#000;fill-opacity:1;fill-rule:evenodd;stroke:none"/>
</svg>
