<svg xmlns="http://www.w3.org/2000/svg" version="1.0" width="335" height="167.484">
    <path d="m312.636 167.469-290.221.015C10.085 167.494.013 157.418 0 145.076V22.415C0 10.085 10.072.006 22.409 0l290.19.005c12.33 0 22.414 10.085 22.401 22.409v122.654c0 12.324-10.084 22.402-22.402 22.402z" style="fill:#dd7500;fill-opacity:1;stroke:none"/>
    <path d="m311.437 161.646-287.823.01c-9.774 0-17.779-7.998-17.791-17.778V23.608c0-9.78 8.004-17.778 17.778-17.778L311.4 5.825c9.787.01 17.779 8.01 17.779 17.785v120.263c0 9.774-7.992 17.772-17.766 17.772" style="fill:#000;fill-opacity:1;fill-rule:evenodd;stroke:none"/>
    <path d="m311.361 152.684-287.684.01c-4.883.016-8.886-3.995-8.886-8.886l.051-120.136c0-4.89 3.99-8.886 8.886-8.886h287.659c4.896 0 8.899 4.002 8.886 8.886v120.124c0 4.883-4.003 8.886-8.886 8.886" style="fill:#dd7500;fill-opacity:1;fill-rule:evenodd;stroke:none"/>
    <path d="M49.949 62.035c0 2.626-.68 4.89-2.043 6.806-1.757 2.486-4.37 3.723-7.826 3.723-3.87 0-6.768-1.237-8.671-3.73-1.554-1.966-2.322-4.433-2.322-7.42h5.208c0 2.169.678 3.78 2.055 4.826 1.015.749 2.264 1.123 3.73 1.123 2.98 0 4.47-1.776 4.47-5.322 0-2.784-1.204-5.055-3.595-6.818a710.775 710.775 0 0 0-6.723-4.129c-2.405-1.858-3.61-4.294-3.61-7.294 0-1.96.546-3.761 1.637-5.398 1.687-2.53 4.389-3.799 8.106-3.799 3.913 0 6.685 1.465 8.321 4.383.672 1.211 1.091 2.683 1.263 4.414h-5.201c0-.615-.208-1.23-.635-1.852-.742-1.154-2.004-1.738-3.761-1.738-3.013 0-4.522 1.326-4.522 3.984 0 1.465 1.224 2.93 3.653 4.389 3.628 2.137 5.899 3.647 6.825 4.541 2.429 2.41 3.64 5.512 3.64 9.311M74.653 72.164H55.676V34.952h5.2v32.011h13.777v5.201zM95.305 53.587c0-3.178-.325-5.943-.97-8.303-.964-3.653-2.563-5.474-4.802-5.474-2.233 0-3.831 1.82-4.808 5.474-.647 2.36-.97 5.125-.97 8.303 0 3.177.325 5.943.97 8.296.977 3.653 2.575 5.48 4.808 5.48 2.24 0 3.837-1.827 4.802-5.48.647-2.353.97-5.119.97-8.296m5.2 0c0 4.56-.52 8.347-1.56 11.347-1.782 5.086-4.915 7.63-9.412 7.63-4.484 0-7.624-2.544-9.419-7.63-1.04-3-1.56-6.787-1.56-11.347 0-12.654 3.666-18.984 10.979-18.984 7.32 0 10.973 6.33 10.973 18.984M132.701 34.952l-6.5 37.212h-4.143l-3.488-19.72-3.508 19.72h-4.122l-6.52-37.212h5.213l3.387 19.237 3.393-19.237h4.313l3.381 19.237 3.393-19.237h5.201zM184.064 72.164h-5.201V51.33l-7.091 20.835-7.085-20.835v20.835h-5.2V34.952h5.213l7.085 20.842 7.078-20.842h5.2v37.212zM207.684 53.587c0-3.178-.315-5.943-.964-8.303-.977-3.653-2.575-5.474-4.808-5.474-2.239 0-3.837 1.82-4.801 5.474-.647 2.36-.97 5.125-.97 8.303 0 3.177.324 5.943.97 8.296.964 3.653 2.562 5.48 4.801 5.48 2.233 0 3.831-1.827 4.808-5.48.647-2.353.964-5.119.964-8.296m5.208 0c0 4.56-.52 8.347-1.56 11.347-1.802 5.086-4.935 7.63-9.42 7.63-4.497 0-7.63-2.544-9.412-7.63-1.04-3-1.56-6.787-1.56-11.347 0-12.654 3.653-18.984 10.972-18.984 7.313 0 10.98 6.33 10.98 18.984M239.873 34.952l-9.044 37.212h-4.98l-9.044-37.212h5.315l6.216 25.681 6.222-25.681h5.315zM249.715 72.161h-5.2V34.95h5.2V72.16zM278.214 72.164h-5.207l-10.452-24.076v24.076h-5.201V34.952h5.213l10.415 24.039V34.95h5.207v37.213zM305.938 43.736h-5.575c-.869-2.62-2.302-3.926-4.313-3.926-2.252 0-3.863 1.871-4.833 5.62-.59 2.334-.888 5.049-.888 8.157 0 3.101.3 5.822.9 8.15.971 3.755 2.582 5.626 4.846 5.626 1.586 0 2.836-.913 3.73-2.734.621-1.268.926-2.512.926-3.704v-1.046h-4.656v-5.201h9.863v6.78c0 1.738-.477 3.602-1.414 5.594-1.706 3.672-4.522 5.512-8.436 5.512-4.484 0-7.617-2.544-9.4-7.63-1.046-3-1.566-6.787-1.566-11.347 0-12.654 3.66-18.984 10.953-18.984 3.483 0 6.185 1.529 8.087 4.567.78 1.262 1.376 2.784 1.776 4.566M108.903 94.94l-9.044 37.213H94.88l-9.039-37.212h5.31l6.221 25.675 6.216-25.675h5.315zM132.53 132.204l-18.977-.05V94.94h18.977v5.207h-13.776v9.66h8.2v5.2h-8.2v11.944h13.776v5.252zM159.163 132.153h-5.201V115.01h-10.46v17.144h-5.2V94.941h5.2v14.867h10.46V94.941h5.2v37.212zM171.974 132.15h-5.208V94.938h5.208v37.212zM199.699 122.366c-.35 1.992-.907 3.68-1.675 5.075-1.833 3.406-4.56 5.112-8.188 5.112-4.484 0-7.618-2.544-9.413-7.624-1.04-3.007-1.56-6.793-1.56-11.354 0-12.653 3.666-18.977 10.973-18.977 3.507 0 6.197 1.529 8.074 4.58.793 1.268 1.389 2.797 1.789 4.585h-5.576c-.856-2.644-2.283-3.964-4.287-3.964-2.233 0-3.837 1.827-4.808 5.468-.64 2.365-.964 5.13-.964 8.309 0 3.177.325 5.943.964 8.302.97 3.64 2.575 5.474 4.808 5.474 2.182 0 3.653-1.662 4.433-4.986h5.43zM225.564 132.153h-18.977V94.941h5.2v32.011h13.777v5.201zM249.184 132.204l-18.977-.05V94.94h18.977v5.207h-13.77v9.66h8.201v5.2h-8.201v11.944h13.77v5.252z" style="fill:#000;fill-opacity:1;fill-rule:nonzero;stroke:none"/>
</svg>
