<svg xmlns="http://www.w3.org/2000/svg" version="1.0" width="90" height="90.003">
    <path d="M1.287 41.878 41.878 1.289a4.426 4.426 0 0 1 6.245 0l40.588 40.589a4.426 4.426 0 0 1 0 6.245L48.123 88.714a4.426 4.426 0 0 1-6.245 0L1.288 48.123a4.43 4.43 0 0 1 0-6.245" style="fill:#dd7500;fill-opacity:1;fill-rule:nonzero;stroke:none"/>
    <path d="M2.266 42.525 42.522 2.27a3.516 3.516 0 0 1 4.957 0l40.253 40.256a3.513 3.513 0 0 1 0 4.954L47.48 87.735a3.518 3.518 0 0 1-4.957 0L2.266 47.48a3.513 3.513 0 0 1 0-4.954" style="fill:#000;fill-opacity:1;fill-rule:evenodd;stroke:none"/>
    <path d="M3.526 43.763 43.762 3.525a1.758 1.758 0 0 1 2.476 0l40.237 40.238a1.754 1.754 0 0 1 0 2.475l-40.237 40.24a1.756 1.756 0 0 1-2.476 0L3.526 46.238a1.754 1.754 0 0 1 0-2.475" style="fill:#dd7500;fill-opacity:1;fill-rule:evenodd;stroke:none"/>
    <path d="M65.372 26.422H63.73l-2.135 3.407-2.107-3.407h-1.673l3.1 4.985v3.84h1.393v-3.84l3.064-4.985zm-8.238 1.24v-1.24h-5.451v1.24h2.014v7.585h1.393v-7.585h2.044zm-6.75-1.24h-1.426v8.825h1.426v-8.825zm-2.727 8.825v-1.3H43.57v-7.525h-1.395v8.825h5.482zM40.1 26.422h-1.423v8.825H40.1v-8.825zm-2.723 1.24v-1.24h-5.453v1.24h2.015v7.585h1.394v-7.585h2.044zm-6.754 4.428v-5.668h-1.391v5.668c0 1.145-.653 1.888-1.612 1.888-.96 0-1.61-.743-1.61-1.888v-5.668h-1.393v5.668c0 .682.155 1.3.4 1.827.467.866 1.52 1.49 2.603 1.49 1.084 0 2.137-.624 2.603-1.49.246-.528.4-1.145.4-1.827M60.355 50.295l-2.91-5.387 2.725-3.438h-1.798l-2.785 3.502V41.47h-1.395v8.825h1.395v-3.033l.928-1.145 2.23 4.178h1.61zm-9.197-6.347c0 .371-.217.742-.56.93-.217.122-.37.155-.805.155h-1.672v-2.169h1.672c.467 0 .588.033.805.154.343.186.56.559.56.93m1.58 6.347-1.55-4.117c.805-.371 1.362-1.3 1.362-2.23 0-.898-.557-1.826-1.332-2.199-.433-.215-.897-.279-1.578-.279h-2.91v8.825h1.39v-3.84h1.673l1.425 3.84h1.52zM43.412 45.9c0 .681-.153 1.548-.338 2.014-.31.774-.714 1.114-1.363 1.114-.559 0-.93-.215-1.209-.682-.34-.556-.527-1.516-.527-2.446 0-.742.125-1.547.342-2.075.31-.774.742-1.114 1.423-1.084.527.032.87.217 1.147.68.34.59.525 1.488.525 2.48m1.394 0c0-1.117-.216-2.23-.587-3.003-.558-1.085-1.332-1.58-2.447-1.58-1.023 0-1.733.31-2.26.99-.59.836-.96 2.137-.96 3.592 0 1.053.247 2.229.618 2.974.527 1.084 1.301 1.584 2.541 1.584.928 0 1.64-.315 2.136-.997.62-.773.96-2.167.96-3.56m-7.37-4.43H36.01l-.681 4.647-1.145-4.647h-1.362l-1.116 4.647-.681-4.647h-1.424l1.299 8.825h1.241l1.361-5.666 1.395 5.666h1.238l1.301-8.825zM62.481 60.863c0 1.176-.279 2.139-.806 2.662-.246.25-.525.343-.989.343h-1.394v-6.009h1.58c.372 0 .682.154.9.371.43.464.71 1.455.71 2.633m1.425 0c0-1.734-.527-3.128-1.455-3.934-.467-.371-.806-.464-1.705-.464H57.9v8.827h3.188c.467-.03.93-.187 1.272-.497.988-.773 1.548-2.167 1.548-3.932m-10.19.526H51.95l.899-2.477.866 2.477zm2.85 3.903-3.036-8.827h-1.394l-3.035 8.827h1.487l.867-2.477h2.756l.87 2.477h1.484zm-8.146 0v-1.424h-4.087V61.45h2.57v-1.422h-2.57v-2.169h3.808v-1.394H42.94v8.827h5.481zm-7.556 0v-8.827H39.47v3.563h-3.22v-3.563h-1.395v8.827h1.395V61.45h3.22v3.842h1.394zm-10.19-3.903H28.91l.897-2.477.868 2.477zm2.849 3.903-3.035-8.827h-1.392l-3.037 8.827h1.487l.867-2.477h2.756l.87 2.477h1.484z" style="fill:#000;fill-opacity:1;fill-rule:evenodd;stroke:none"/>
</svg>
