<svg xmlns="http://www.w3.org/2000/svg" version="1.0" width="90.001" height="90.001">
    <path d="M1.29 41.878 41.877 1.289a4.426 4.426 0 0 1 6.245 0l40.591 40.589a4.43 4.43 0 0 1 0 6.245L48.123 88.714a4.43 4.43 0 0 1-6.245 0L1.289 48.123a4.426 4.426 0 0 1 0-6.245z" style="fill:#dd7500;fill-opacity:1;stroke:none"/>
    <path d="M2.265 42.525 42.525 2.27a3.513 3.513 0 0 1 4.953 0l40.256 40.256a3.513 3.513 0 0 1 0 4.954L47.478 87.735a3.513 3.513 0 0 1-4.954 0L2.265 47.48a3.513 3.513 0 0 1 0-4.954" style="fill:#000;fill-opacity:1;fill-rule:evenodd;stroke:none"/>
    <path d="M3.525 43.763 43.763 3.525a1.756 1.756 0 0 1 2.475 0l40.237 40.238c.68.681.68 1.796 0 2.475L46.238 86.475a1.754 1.754 0 0 1-2.475 0L3.525 46.238a1.754 1.754 0 0 1 0-2.475" style="fill:#dd7500;fill-opacity:1;fill-rule:evenodd;stroke:none"/>
    <path d="M74.798 40.607c0 .89-.504 1.393-1.434 1.393h-1.626v-2.788h1.626c.853 0 1.434.542 1.434 1.395m1.547 8.09-1.587-5.42c1.045-.388 1.587-1.355 1.587-2.67 0-1.783-1.162-2.943-2.902-2.943h-3.291v11.033h1.586v-5.188h1.511l1.47 5.188h1.626zm-8.05 0v-1.548h-4.027v-3.64h2.282V42h-2.282v-2.788h3.599v-1.548H62.68v11.033h5.614zm-9.332-5.46c0 .853-.076 1.627-.154 2.322-.154.853-.66 1.59-1.587 1.59h-1.317v-7.937h1.317c.696 0 1.162.35 1.433 1.123.193.464.308 1.665.308 2.903m1.55-.078c0-.85-.118-1.82-.271-2.632-.195-1.123-.66-1.975-1.317-2.439-.387-.31-.85-.425-1.78-.425h-2.826v11.033h3.056c.62 0 1.163-.157 1.55-.503 1.085-.852 1.588-2.479 1.588-5.034m-7.705 5.537v-1.473h-4.026v-9.56h-1.587v11.033h5.613zm-7.974-3.292v-7.74h-1.587v7.934c0 1.045-.62 1.743-1.472 1.743-.927 0-1.548-.698-1.548-1.743v-7.935H38.64v7.741c0 .892.118 1.355.425 1.937.542.927 1.627 1.555 2.71 1.555 1.048 0 2.093-.664 2.634-1.555.308-.582.425-1.045.425-1.937m-9.91-2.245c0 1.28-.077 1.935-.349 2.827-.27.927-.696 1.355-1.355 1.355-.696 0-1.122-.428-1.393-1.355-.233-.892-.35-1.587-.35-2.788 0-1.237.078-1.972.35-2.825.27-.93.697-1.355 1.393-1.355.66 0 1.084.425 1.355 1.394.233.814.35 1.509.35 2.747m1.508 0c0-1.663-.154-2.71-.62-3.795-.541-1.355-1.316-1.896-2.593-1.896-1.276 0-2.05.541-2.63 1.86-.468 1.045-.622 2.168-.622 3.831 0 1.704.154 2.75.621 3.833.541 1.316 1.315 1.904 2.631 1.904 1.238 0 2.052-.588 2.593-1.904.466-1.045.62-2.129.62-3.833M27.8 48.697V37.664h-1.586v4.49h-3.02v-4.49h-1.587v11.033h1.587v-4.995h3.02v4.995H27.8zm-8.05-3.02c0-1.587-.93-2.788-3.06-4.027-.813-.463-1.046-.773-1.046-1.315 0-.735.581-1.277 1.316-1.277.7 0 1.24.504 1.278 1.277h1.511c-.04-1.665-1.239-2.866-2.789-2.866-1.586 0-2.825 1.279-2.825 2.866 0 .967.465 1.82 1.355 2.44 2.244 1.508 1.627 1.083 1.86 1.315.655.503.888.967.888 1.587 0 .89-.696 1.665-1.549 1.665-1.084 0-1.547-.97-1.547-1.897h-1.548c0 1.82 1.16 3.452 3.095 3.452 1.705 0 3.06-1.44 3.06-3.22M61.317 66.364l-2.554-7.161 2.282-3.873h-1.818l-2.518 4.414V55.33h-1.587v11.034h1.587V62.84l1.006-1.858 1.937 5.382h1.665zm-9.562-8.092c0 .89-.505 1.395-1.432 1.395h-1.626v-2.79h1.626c.851 0 1.432.543 1.432 1.395m1.548 8.092-1.586-5.421c1.045-.386 1.586-1.355 1.586-2.671 0-1.78-1.161-2.942-2.903-2.942h-3.29v11.034h1.587v-5.189h1.508l1.473 5.19h1.625zm-9.909-5.536c0 1.277-.079 1.934-.35 2.825-.27.93-.695 1.355-1.355 1.355-.695 0-1.122-.425-1.394-1.355-.23-.891-.346-1.586-.346-2.788 0-1.238.075-1.973.346-2.825.272-.93.7-1.355 1.394-1.355.66 0 1.085.425 1.355 1.394.233.813.35 1.509.35 2.749m1.509 0c0-1.665-.154-2.71-.618-3.794-.545-1.355-1.318-1.896-2.596-1.896-1.276 0-2.05.541-2.631 1.857-.464 1.045-.62 2.168-.62 3.833 0 1.702.156 2.747.62 3.831.542 1.315 1.316 1.905 2.631 1.905 1.241 0 2.051-.59 2.596-1.905.464-1.045.618-2.129.618-3.831m-7.781-5.498h-1.548l-.97 5.884-1.045-5.884h-1.237l-1.084 5.884-.93-5.884H28.76l1.743 11.034h1.391l1.048-5.77 1.045 5.77h1.355l1.78-11.034z" style="fill:#000;fill-opacity:1;fill-rule:evenodd;stroke:none"/>
</svg>
