<svg xmlns="http://www.w3.org/2000/svg" version="1.0" width="90.001" height="90.001">
    <path d="M1.29 41.878 41.877 1.289a4.426 4.426 0 0 1 6.245 0l40.591 40.589a4.43 4.43 0 0 1 0 6.245L48.123 88.714a4.43 4.43 0 0 1-6.245 0L1.289 48.123a4.426 4.426 0 0 1 0-6.245z" style="fill:#dd7500;fill-opacity:1;stroke:none"/>
    <path d="M2.265 42.525 42.525 2.27a3.513 3.513 0 0 1 4.953 0l40.256 40.256a3.513 3.513 0 0 1 0 4.954L47.478 87.735a3.513 3.513 0 0 1-4.954 0L2.265 47.48a3.513 3.513 0 0 1 0-4.954" style="fill:#000;fill-opacity:1;fill-rule:evenodd;stroke:none"/>
    <path d="M3.525 43.763 43.763 3.525a1.756 1.756 0 0 1 2.475 0l40.237 40.238c.68.681.68 1.796 0 2.475L46.238 86.475a1.754 1.754 0 0 1-2.475 0L3.525 46.238a1.754 1.754 0 0 1 0-2.475" style="fill:#dd7500;fill-opacity:1;fill-rule:evenodd;stroke:none"/>
    <path d="M58.933 25.697V24.47h-4.675v1.227h1.677v7.966h1.32v-7.966h1.678zm-5.935 7.966V24.47h-1.321v3.744H49.16V24.47h-1.32v9.193h1.32v-4.16h2.517v4.16h1.32zm-6.965-2.546v-1.905h-2.354v1.292h1.03v.613c0 .966-.322 1.418-.999 1.418-.71 0-1.16-.483-1.355-1.387a13.194 13.194 0 0 1-.192-2.29c0-1.096.161-2.129.417-2.58.228-.453.582-.676 1.033-.676.645 0 1.065.417 1.096 1.03h1.324c-.066-1.353-1.065-2.323-2.388-2.323-1.065 0-2 .711-2.322 1.678-.323.872-.42 1.807-.42 3.096 0 1.194.195 2.485.486 3.161.451 1.033 1.258 1.585 2.354 1.585.935 0 1.676-.489 2.031-1.294.193-.388.259-.775.259-1.418m-6.969-6.647h-1.289v9.193h1.29V24.47zm-4.094 2.452c0 .742-.42 1.162-1.193 1.162h-1.355v-2.321h1.355c.71 0 1.193.451 1.193 1.159m1.29 6.74-1.32-4.513c.868-.322 1.32-1.131 1.32-2.227 0-1.482-.967-2.452-2.42-2.452H31.1v9.193h1.322v-4.321h1.257l1.225 4.32h1.355zM69.794 42.89c0 .742-.419 1.16-1.194 1.16h-1.355v-2.32H68.6c.712 0 1.194.448 1.194 1.16m1.29 6.74-1.321-4.515c.869-.325 1.321-1.13 1.321-2.226 0-1.485-.967-2.451-2.417-2.451h-2.742v9.191h1.32v-4.321h1.26l1.227 4.321h1.352zm-6.707 0v-1.29h-3.354v-3.032h1.901V44.05h-1.901v-2.32h2.997v-1.292H59.7v9.191h4.677zm-7.773-4.548c0 .71-.064 1.357-.13 1.935-.129.71-.546 1.323-1.32 1.323h-1.099v-6.61h1.1c.577 0 .965.287 1.19.934.162.386.26 1.386.26 2.418m1.288-.064c0-.71-.095-1.516-.225-2.193-.161-.935-.549-1.645-1.096-2.033-.322-.257-.71-.354-1.484-.354h-2.354v9.191h2.546c.518 0 .97-.129 1.292-.417.903-.71 1.32-2.065 1.32-4.194m-6.415 4.611v-1.225h-3.354v-7.966h-1.324v9.191h4.678zm-6.645-2.741v-6.45h-1.324v6.614c0 .868-.515 1.45-1.223 1.45-.776 0-1.292-.582-1.292-1.45v-6.614H39.67v6.45c0 .742.098 1.13.357 1.614a2.69 2.69 0 0 0 2.258 1.296c.87 0 1.74-.554 2.193-1.296.256-.484.354-.872.354-1.614m-8.258-1.87c0 1.064-.062 1.614-.29 2.356-.225.774-.579 1.128-1.127 1.128-.582 0-.937-.354-1.163-1.128-.192-.742-.289-1.324-.289-2.325 0-1.032.064-1.642.29-2.354.225-.773.58-1.13 1.162-1.13.548 0 .902.357 1.127 1.163.195.679.29 1.257.29 2.29m1.258 0c0-1.386-.127-2.259-.515-3.161-.452-1.13-1.097-1.58-2.16-1.58-1.065 0-1.71.45-2.193 1.547-.389.871-.517 1.808-.517 3.194 0 1.421.128 2.29.517 3.194.451 1.096 1.096 1.586 2.193 1.586 1.032 0 1.708-.49 2.16-1.586.388-.873.515-1.773.515-3.194m-7.19 4.611v-9.191h-1.323v3.742h-2.515v-3.742H25.48v9.191h1.324v-4.16h2.515v4.16h1.323zm-6.71-2.514c0-1.323-.773-2.325-2.548-3.355-.676-.388-.869-.645-.869-1.096 0-.612.483-1.064 1.097-1.064.58 0 1.032.417 1.063 1.064h1.258c-.031-1.386-1.033-2.387-2.321-2.387-1.324 0-2.357 1.063-2.357 2.387 0 .806.388 1.516 1.13 2.031 1.87 1.258 1.355.904 1.548 1.097.547.42.742.808.742 1.323 0 .742-.58 1.387-1.29 1.387-.905 0-1.29-.807-1.29-1.58h-1.29c0 1.516.968 2.876 2.58 2.876 1.42 0 2.548-1.199 2.548-2.683M62.5 61.05c0 .708-.063 1.353-.13 1.934-.13.71-.546 1.324-1.32 1.324h-1.1v-6.613h1.1c.578 0 .967.292 1.19.937.162.385.26 1.386.26 2.418m1.29-.066c0-.707-.096-1.516-.226-2.192-.161-.935-.549-1.645-1.096-2.032-.323-.258-.71-.356-1.484-.356H58.63v9.193h2.547c.517 0 .968-.13 1.29-.42.905-.71 1.322-2.064 1.322-4.193m-6.706 4.613v-1.29h-3.355v-3.032h1.901v-1.257h-1.901v-2.323h2.997v-1.29h-4.32v9.192h4.678zm-6.226-2.515c0-1.324-.774-2.322-2.547-3.355-.678-.388-.87-.644-.87-1.095 0-.614.482-1.065 1.095-1.065.58 0 1.033.42 1.064 1.065h1.258c-.032-1.388-1.033-2.39-2.322-2.39-1.323 0-2.356 1.066-2.356 2.39 0 .805.388 1.515 1.13 2.03 1.87 1.257 1.355.903 1.548 1.096.55.42.742.806.742 1.324 0 .742-.581 1.386-1.289 1.386-.903 0-1.29-.805-1.29-1.579h-1.29c0 1.514.967 2.874 2.58 2.874 1.42 0 2.547-1.199 2.547-2.681m-7.774-2.098c0 1.065-.063 1.614-.29 2.356-.225.774-.579 1.128-1.128 1.128-.58 0-.935-.354-1.16-1.128-.195-.742-.29-1.323-.29-2.323 0-1.032.063-1.644.29-2.354.225-.774.58-1.128 1.16-1.128.55 0 .903.354 1.128 1.16.195.678.29 1.257.29 2.29m1.26 0c0-1.387-.129-2.258-.518-3.16-.45-1.13-1.096-1.582-2.16-1.582-1.065 0-1.71.452-2.192 1.549-.389.87-.518 1.806-.518 3.192 0 1.419.13 2.29.518 3.194.451 1.096 1.096 1.585 2.192 1.585 1.033 0 1.71-.489 2.16-1.585.39-.871.518-1.775.518-3.194m-6.484 4.613V64.37h-3.355v-7.966h-1.321v9.193h4.676zm-6.482-6.742c-.098-.837-.228-1.225-.582-1.677-.42-.613-1.063-.935-1.806-.935-1.804 0-2.739 1.582-2.739 4.549 0 3.386.87 4.97 2.837 4.97 1.288 0 2.258-1.1 2.29-2.617h-1.324c0 .68-.193 1.323-.966 1.323-1.128 0-1.58-1.064-1.58-3.708 0-2.388.386-3.225 1.45-3.225.613 0 .97.418 1.096 1.32h1.324z" style="fill:#000;fill-opacity:1;fill-rule:evenodd;stroke:none"/>
</svg>
