<svg xmlns="http://www.w3.org/2000/svg" width="90" height="90" viewBox="0 -0.321 90 90" xml:space="preserve">
    <path d="M1.287 41.556 41.878.966a4.43 4.43 0 0 1 6.245 0l40.588 40.59a4.428 4.428 0 0 1 0 6.246L48.123 88.39a4.426 4.426 0 0 1-6.245 0L1.288 47.802a4.432 4.432 0 0 1 0-6.246" style="fill:#dd7500;fill-opacity:1;fill-rule:nonzero;stroke:none"/>
    <path d="M2.266 42.201 42.522 1.945a3.516 3.516 0 0 1 4.956 0L87.732 42.2a3.513 3.513 0 0 1 0 4.954L47.478 87.411a3.516 3.516 0 0 1-4.956 0L2.266 47.155a3.513 3.513 0 0 1 0-4.954" style="fill:#000;fill-opacity:1;fill-rule:evenodd;stroke:none"/>
    <path d="M3.526 43.441 43.762 3.205a1.756 1.756 0 0 1 2.476 0L86.475 43.44a1.756 1.756 0 0 1 0 2.476L46.238 86.154a1.756 1.756 0 0 1-2.476 0L3.526 45.917a1.756 1.756 0 0 1 0-2.476" style="fill:#dd7500;fill-opacity:1;fill-rule:evenodd;stroke:none"/>
    <path d="M70.56 44.635V31.394h-2.09v5.343h-4.832v-5.343h-2.09v13.24h2.09v-5.76h4.832v5.76h2.09zm-11.194-3.81c0-5.204-6.226-3.578-6.411-6.039-.093-1.207 1.066-1.579 2.043-1.532 1.487.046 1.95 1.16 1.95 1.16l1.86-.558c-.65-1.625-1.906-2.695-3.763-2.695-2.37 0-4.137.976-4.137 3.579 0 2.182 1.768 2.971 2.557 3.299 1.718.696 3.762.973 3.762 2.738 0 1.117-.835 1.952-2.044 1.952-1.255 0-2.275-.697-2.833-1.952l-1.998.745c.884 1.998 2.556 3.353 4.831 3.353 1.117 0 2.137-.379 2.882-1.03.835-.743 1.3-1.813 1.3-3.02m-10.268 3.81v-2.139h-6.13v-3.622h3.855v-2.137h-3.855v-3.252h5.713v-2.091h-7.805v13.24h8.222zM36.323 35.11c0 .558-.326 1.114-.837 1.394-.324.186-.556.232-1.208.232h-2.507v-3.252h2.507c.698 0 .884.047 1.208.232.511.28.837.835.837 1.394m2.37 9.524-2.323-6.179c1.206-.559 2.043-1.951 2.043-3.345 0-1.347-.837-2.741-1.997-3.297-.651-.325-1.348-.42-2.37-.42H29.68v13.24h2.09v-5.76h2.507l2.138 5.76h2.276zm-10.966-11.15v-2.091h-8.222v13.24h2.092v-5.76h3.855v-2.137h-3.855v-3.252h6.13zM57.886 66.76v-1.954h-6.13V53.52h-2.093v13.24h8.223zM46.55 53.52h-2.136v13.24h2.136V53.52zm-7.108 6.642c0 1.022-.23 2.323-.51 3.02-.463 1.16-1.068 1.67-2.043 1.67-.838 0-1.394-.325-1.812-1.02-.512-.837-.79-2.277-.79-3.67 0-1.115.185-2.323.51-3.112.467-1.163 1.115-1.673 2.138-1.626.789.046 1.301.325 1.719 1.02.51.885.788 2.232.788 3.718m2.093 0c0-1.672-.328-3.345-.884-4.506-.837-1.626-1.997-2.371-3.669-2.371-1.533 0-2.602.466-3.39 1.487-.885 1.255-1.442 3.205-1.442 5.39 0 1.58.371 3.345.929 4.46.79 1.624 1.952 2.377 3.81 2.377 1.395 0 2.46-.474 3.206-1.494.927-1.163 1.44-3.253 1.44-5.343" style="fill:#000;fill-opacity:1;fill-rule:evenodd;stroke:none"/>
</svg>
