<svg xmlns="http://www.w3.org/2000/svg" version="1.0" width="77.016" height="66.029">
    <path d="M.003 61.611 0 4.418A4.427 4.427 0 0 1 4.416 0L72.6.005a4.426 4.426 0 0 1 4.416 4.415v57.19c0 2.431-1.987 4.419-4.416 4.416l-68.181.003A4.432 4.432 0 0 1 .003 61.61" style="fill:#dd7500;fill-opacity:1;fill-rule:nonzero;stroke:none"/>
    <path d="M1.15 61.375 1.15 4.65A3.516 3.516 0 0 1 4.65 1.147l67.713.005a3.511 3.511 0 0 1 3.503 3.502l.003 56.72a3.519 3.519 0 0 1-3.506 3.505H4.654a3.512 3.512 0 0 1-3.503-3.504" style="fill:#000;fill-opacity:1;fill-rule:evenodd;stroke:none"/>
    <path d="M2.918 61.362 2.916 4.666a1.754 1.754 0 0 1 1.75-1.751l67.686.002c.964 0 1.75.79 1.75 1.752v56.694c0 .962-.788 1.753-1.75 1.75H4.67c-.962 0-1.75-.788-1.75-1.75" style="fill:#dd7500;fill-opacity:1;fill-rule:evenodd;stroke:none"/>
    <path d="M47.754 15.584c0 .825-.077 1.575-.152 2.248-.15.825-.637 1.538-1.538 1.538H44.79v-7.69h1.274c.676 0 1.125.34 1.388 1.089.187.452.302 1.613.302 2.815m1.499-.075c0-.827-.113-1.764-.262-2.552-.187-1.087-.637-1.915-1.277-2.363-.375-.3-.825-.413-1.725-.413H43.25v10.691h2.964c.599 0 1.124-.15 1.499-.488 1.05-.825 1.539-2.4 1.539-4.875m-8.29 5.363v-10.69h-1.537v6.413L36.5 10.18h-1.537v10.691H36.5v-7.166l3.3 7.166h1.165zm-7.802 0V19.37H29.26v-3.525h2.214v-1.463H29.26V11.68h3.489V10.18H27.72v10.691h5.44zM65.177 35.279v-2.214H62.44v1.501h1.201v.713c0 1.122-.376 1.65-1.165 1.65-.825 0-1.348-.564-1.575-1.614a15.43 15.43 0 0 1-.224-2.664c0-1.274.188-2.475.488-3 .261-.525.673-.789 1.198-.789.753 0 1.24.49 1.278 1.202h1.537c-.075-1.575-1.237-2.7-2.776-2.7a2.873 2.873 0 0 0-2.7 1.95c-.376 1.013-.487 2.1-.487 3.6 0 1.388.223 2.89.561 3.676.527 1.201 1.465 1.845 2.739 1.845 1.088 0 1.951-.569 2.363-1.506.225-.452.3-.9.3-1.65m-8.063 2.96V27.552h-1.539v6.414l-2.926-6.414h-1.537V38.24h1.537v-7.163l3.302 7.163h1.163zm-8.328-10.688h-1.501V38.24h1.501V27.55zm-2.964 1.426v-1.426h-5.437v1.426h1.951v9.263h1.535v-9.263h1.951zm-6.413 6.338c0-1.538-.902-2.7-2.962-3.901-.788-.45-1.013-.75-1.013-1.274 0-.714.561-1.239 1.275-1.239.676 0 1.201.489 1.237 1.239h1.463c-.037-1.614-1.202-2.776-2.7-2.776-1.539 0-2.74 1.237-2.74 2.776 0 .937.45 1.762 1.313 2.362 2.175 1.463 1.575 1.05 1.803 1.275.636.49.861.938.861 1.538 0 .862-.674 1.614-1.499 1.614-1.052 0-1.5-.94-1.5-1.838h-1.503c0 1.763 1.126 3.344 3.003 3.344 1.65 0 2.962-1.394 2.962-3.12m-9.565-1.499h-1.537l.75-3.076.787 3.076zm2.662 4.424L29.844 27.55h-1.5L25.68 38.24h1.539l.712-2.925h2.288l.752 2.925h1.535zm-7.462 0v-1.425h-3.902V27.55h-1.538V38.24h5.44zm-8.701-3.036c0 .937-.564 1.537-1.427 1.537H13.38v-3.337h1.537c.789 0 1.427.786 1.427 1.8m-.19-4.877c0 .974-.448 1.575-1.16 1.575h-1.614v-2.85h1.614c.825 0 1.16.374 1.16 1.275m1.688 4.988c0-1.086-.486-1.986-1.311-2.664.863-.9 1.124-1.35 1.124-2.324 0-1.65-1.011-2.776-2.438-2.776H11.84V38.24h3.153c1.573 0 2.848-1.311 2.848-2.925M53.328 55.657v-1.5h-3.902V50.63h2.214v-1.463h-2.214v-2.7h3.489v-1.5H47.89v10.69h5.438zm-7.726 0v-10.69h-1.538v6.413l-2.927-6.414H39.6v10.691h1.538v-7.166l3.3 7.166h1.165zm-9.604-5.363c0 1.237-.073 1.875-.337 2.736-.263.901-.676 1.314-1.313 1.314-.674 0-1.087-.413-1.35-1.314-.225-.861-.338-1.538-.338-2.7 0-1.201.076-1.914.338-2.739.263-.899.676-1.311 1.35-1.311.637 0 1.05.412 1.313 1.35.225.786.337 1.462.337 2.664m1.462 0c0-1.614-.149-2.628-.598-3.678-.527-1.312-1.277-1.837-2.514-1.837-1.238 0-1.988.525-2.552 1.798-.448 1.014-.597 2.103-.597 3.717 0 1.65.149 2.661.597 3.712.525 1.275 1.278 1.844 2.552 1.844 1.2 0 1.987-.569 2.515-1.844.448-1.012.597-2.062.597-3.712m-7.875 5.363v-1.465H25.27l4.315-8.288v-.974h-5.476v1.499h3.561l-3.974 7.577v1.651h5.889z" style="fill:#000;fill-opacity:1;fill-rule:evenodd;stroke:none"/>
</svg>
