<svg xmlns="http://www.w3.org/2000/svg" version="1.0" width="88.049" height="44.014">
    <path d="m83.632 44.011-79.216.003C1.987 44.016.003 42.029 0 39.597l.005-35.18C.002 1.986 1.99 0 4.421 0H83.63c2.431 0 4.419 1.988 4.416 4.416l.003 35.179c-.003 2.429-1.99 4.416-4.417 4.416" style="fill:#dd7500;fill-opacity:1;fill-rule:nonzero;stroke:none"/>
    <path d="m83.396 42.864-78.743.002a3.52 3.52 0 0 1-3.506-3.506l.005-34.707A3.513 3.513 0 0 1 4.656 1.15l78.74-.003a3.518 3.518 0 0 1 3.503 3.505V39.36a3.513 3.513 0 0 1-3.503 3.504" style="fill:#000;fill-opacity:1;fill-rule:evenodd;stroke:none"/>
    <path d="M83.383 41.096 4.665 41.1a1.755 1.755 0 0 1-1.75-1.751L2.92 4.665c0-.964.786-1.75 1.75-1.75h78.713c.963 0 1.753.789 1.75 1.75v34.68c0 .963-.787 1.751-1.75 1.751" style="fill:#dd7500;fill-opacity:1;fill-rule:evenodd;stroke:none"/>
    <path d="M79.328 11.594c-.095-.838-.225-1.223-.579-1.675-.42-.613-1.063-.935-1.803-.935-1.805 0-2.74 1.58-2.74 4.544 0 3.38.872 4.966 2.835 4.966 1.288 0 2.256-1.101 2.287-2.615h-1.321c0 .676-.193 1.321-.966 1.321-1.125 0-1.578-1.062-1.578-3.704 0-2.386.386-3.222 1.448-3.222.613 0 .967.42 1.096 1.32h1.321zm-6.957-2.446h-1.289v9.18h1.289v-9.18zm-2.545 1.286V9.148h-4.67v9.18h1.321V14.01h1.835v-1.257h-1.835v-2.32h3.349zm-5.928 0V9.148h-4.672v9.18h1.323V14.01h1.835v-1.257H60.55v-2.32h3.35zm-8.212 4.092h-1.324l.645-2.64.679 2.64zm2.285 3.802-2.285-9.18h-1.292l-2.287 9.18h1.322l.612-2.513h1.967l.641 2.513h1.322zm-7.957-6.734c0 .74-.42 1.16-1.19 1.16H47.47v-2.32h1.352c.708 0 1.191.452 1.191 1.16m1.29 6.734-1.32-4.51c.868-.322 1.32-1.128 1.32-2.224 0-1.481-.967-2.446-2.418-2.446h-2.737v9.18h1.322V14.01h1.257l1.22 4.317h1.355zm-6.412-7.957V9.148h-4.67v1.223h1.675v7.957h1.32V10.37h1.675zm-9.793-1.223h-1.288l-.807 4.895-.868-4.895h-1.03l-.904 4.895-.771-4.895h-1.289l1.45 9.18h1.16l.869-4.8.868 4.8h1.13l1.48-9.18zm-9.342 4.572c0 1.063-.064 1.611-.289 2.351-.226.774-.581 1.13-1.127 1.13-.582 0-.935-.356-1.16-1.13-.193-.74-.29-1.32-.29-2.318 0-1.03.065-1.644.29-2.352.225-.773.578-1.127 1.16-1.127.546 0 .901.354 1.127 1.159.193.676.289 1.257.289 2.287m1.257 0c0-1.386-.13-2.255-.516-3.156-.451-1.128-1.096-1.58-2.157-1.58-1.065 0-1.709.452-2.19 1.549-.389.868-.515 1.8-.515 3.187 0 1.419.126 2.288.515 3.189.451 1.096 1.093 1.585 2.19 1.585 1.03 0 1.706-.489 2.157-1.585.386-.869.516-1.77.516-3.189m-6.475 4.608v-1.224h-3.352V9.148h-1.319v9.18h4.671zm-6.218-2.513c0-1.32-.774-2.319-2.544-3.351-.676-.386-.869-.643-.869-1.094 0-.614.483-1.065 1.094-1.065.581 0 1.032.42 1.064 1.065h1.255c-.032-1.385-1.03-2.386-2.319-2.386-1.321 0-2.351 1.065-2.351 2.386 0 .805.385 1.513 1.127 2.029 1.868 1.256 1.353.902 1.545 1.096.55.418.743.805.743 1.32 0 .74-.582 1.385-1.289 1.385-.904 0-1.289-.806-1.289-1.577h-1.29c0 1.513.968 2.87 2.579 2.87 1.416 0 2.544-1.195 2.544-2.678M58.952 30.323c0 .707-.066 1.352-.13 1.93-.128.708-.546 1.32-1.32 1.32h-1.096v-6.6h1.096c.582 0 .967.287 1.192.932.163.389.258 1.384.258 2.418m1.29-.067c0-.708-.098-1.513-.227-2.19-.161-.935-.548-1.643-1.094-2.031-.322-.256-.711-.354-1.485-.354h-2.349v9.184h2.544c.515 0 .968-.129 1.29-.42.903-.71 1.32-2.063 1.32-4.189m-8.699.805h-1.32l.644-2.641.676 2.641zm2.288 3.804-2.288-9.184h-1.286l-2.287 9.184h1.32l.613-2.514h1.963l.645 2.514h1.32zm-6.699 0v-1.291H43.78v-3.028h1.902V29.29H43.78v-2.316h2.998V25.68H42.46v9.184h4.672zm-6.639 0v-9.184h-1.32v3.738H36.66V25.68h-1.321v9.184h1.32v-4.157h2.513v4.157h1.32zm-8.696-3.804h-1.32l.644-2.641.676 2.641zm2.288 3.804-2.288-9.184h-1.289l-2.287 9.184h1.321l.613-2.514h1.965l.645 2.514h1.32z" style="fill:#000;fill-opacity:1;fill-rule:evenodd;stroke:none"/>
</svg>
