<svg xmlns="http://www.w3.org/2000/svg" width="4414.298" height="4414.298">
    <path style="fill:#dd7500;fill-rule:nonzero;stroke:none;fill-opacity:1" d="M5338.234 3575.837c-97.837 97.822-256.445 97.822-354.267 0L2504.061 1095.94c-97.829-97.837-97.827-256.445 0-354.267l2479.906-2479.906c97.822-97.829 256.43-97.829 354.267 0L7818.132 741.672c97.822 97.822 97.822 256.43 0 354.267z" transform="matrix(.80836 0 0 .80836 -1964.872 1464.43)"/>
    <path style="fill:#000;fill-rule:nonzero;stroke:none" d="M2553.266 1046.73c-70.541-70.545-70.541-185.314 0-255.858l2479.9-2479.9c70.53-70.542 185.314-70.542 255.858 0l2479.898 2479.9c70.545 70.544 70.545 185.313 0 255.858L5289.024 3526.628c-70.544 70.544-185.329 70.544-255.857 0L2553.266 1046.73z" transform="matrix(.80836 0 0 .80836 -1964.872 1464.43)"/>
    <path style="fill:#dd7500;fill-rule:nonzero;stroke:none;fill-opacity:1" d="M2622.151 977.842c-32.556-32.55-32.556-85.528 0-118.079l2479.892-2479.907c32.566-32.557 85.544-32.557 118.094 0L7700.036 859.763c32.55 32.55 32.55 85.528 0 118.079L5220.137 3457.74c-32.55 32.55-85.528 32.55-118.094 0L2622.152 977.842z" transform="matrix(.80836 0 0 .80836 -1964.872 1464.43)"/>
    <path style="fill:#000;fill-rule:nonzero;stroke:none" d="m4362.796 1976.62-39.168 160.17h80.301l-41.133-160.17zm99.879 390.653-39.17-152.346h-119.454l-37.205 152.346h-80.301l139.046-556.683h78.338l139.032 556.683h-80.286zM5565.649 1976.62l-39.17 160.17h80.302l-41.132-160.17zm99.878 390.653-39.169-152.346h-119.455l-37.205 152.346h-80.301l139.047-556.683h78.337l139.032 556.683h-80.286zM6042.076 1945.369c-13.654-39.06-37.035-56.643-72.12-56.643h-66.277v400.425h66.276c46.777 0 72.121-37.112 79.915-80.085 3.897-35.163 7.793-74.224 7.793-117.197 0-62.503-5.845-123.058-15.587-146.5zm13.64 396.513c-19.485 17.582-46.778 25.39-77.967 25.39h-154V1810.59h142.31c46.776 0 70.172 5.86 89.656 21.494 33.138 23.427 56.534 66.4 66.276 123.058 7.794 41.009 13.639 89.842 13.639 132.815 0 128.918-25.329 210.952-79.915 253.925zM5055.248 2367.273V1810.59h262.507v78.136h-182.19v140.64h115.589v76.173h-115.59v183.612h203.731v78.122h-284.047zM4852.863 2367.273v-251.977h-152.036v251.977h-79.93V1810.59h79.93v226.585h152.036V1810.59h79.915v556.683h-79.915zM4869.594 195.236l-39.169 160.17h80.286l-41.117-160.17zm99.863 390.652-39.169-152.346h-119.455l-37.205 152.346h-80.286l139.032-556.683h78.337l139.047 556.683h-80.301zM6272.388 177.654c-7.84-54.694-29.426-80.085-66.693-80.085-64.73 0-88.265 50.781-88.265 195.333 0 160.17 27.463 224.622 96.12 224.622 47.07 0 58.838-39.06 58.838-80.085h80.426c-1.964 91.806-60.802 158.222-139.264 158.222-119.656 0-172.618-95.719-172.618-300.81 0-179.7 56.89-275.404 166.727-275.404 45.122 0 84.353 19.53 109.852 56.643 21.571 27.34 29.411 50.782 35.303 101.564h-80.426zM5208.011 107.342v140.64h111.661v76.172h-111.661v261.734h-80.317V29.205h284.047v78.137h-203.73zM5569.994 107.342v140.64h111.661v76.172h-111.661v261.734h-80.317V29.205h284.047v78.137h-203.73zM5851.66 585.888V29.205h77.936v556.683h-77.936zM4493.137 107.342h-81.863v140.64h81.863c46.793 0 72.137-25.407 72.137-70.328 0-42.973-29.241-70.312-72.137-70.312zm68.225 478.546-74.07-261.734h-76.018v261.734h-79.915V29.205h165.69c87.71 0 146.192 58.606 146.192 148.449 0 66.415-27.293 115.248-79.915 134.779l79.915 273.455h-81.879zM4151.55 103.43v482.458h-80.316V103.429h-101.862V29.205h284.052v74.224H4151.55zM4443.515 1085.928l-39.168 160.17h80.301l-41.133-160.17zm99.879 390.652-39.17-152.345H4384.77l-37.205 152.345h-80.301l139.046-556.683h78.338l139.032 556.683h-80.286zM5336.527 1476.58V919.897h262.492v78.137h-182.19v140.64h115.589v76.172h-115.59v183.613h203.731v78.121h-284.032zM6373.179 1476.58l-171.536-373.07v373.07h-79.915V919.897h79.915l152.037 334.01v-334.01h79.93v556.683h-60.431zM4050.374 998.034h-81.876v158.222h81.876c46.777 0 72.121-29.304 72.121-80.086 0-46.884-29.241-78.136-72.121-78.136zm3.897 234.394h-85.773v244.152h-79.916V919.897h165.689c87.708 0 146.19 62.503 146.19 156.274 0 101.563-52.637 156.257-146.19 156.257zM5876.989 998.034h-81.863v140.64h81.863c46.792 0 72.121-25.391 72.121-70.328 0-42.973-29.24-70.312-72.121-70.312zm68.225 478.546-74.07-261.734h-76.018v261.734h-79.915V919.897h165.675c87.724 0 146.206 58.607 146.206 148.45 0 66.414-27.293 115.248-79.93 134.778l79.93 273.455h-81.878zM4839.27 994.122v482.458h-80.317V994.122h-101.872v-74.225h284.047v74.225H4839.27zM5156.719 994.122v482.458h-80.317V994.122h-101.873v-74.225h284.047v74.225H5156.72zM4999.518-304.802v-556.682h262.491v78.132h-182.174v140.633h115.573v76.179h-115.573v183.608h203.73v78.13h-284.047zM4816.617-304.802 4645.08-677.877v373.075h-79.915v-556.682h79.915l152.036 334.01v-334.01h79.93v556.682h-60.43zM5666.857-304.802h-68.596l-52.916-291.037-52.916 291.037h-70.574l-88.188-556.682h78.4l47.039 296.897 54.88-296.897h62.72l52.915 296.897 49.003-296.897h78.4l-90.167 556.682z" transform="matrix(.80836 0 0 .80836 -1964.872 1464.43)"/>
</svg>
