<svg xmlns="http://www.w3.org/2000/svg" version="1.0" width="44.434" height="33.325">
    <path d="M44.434 30.546a2.775 2.775 0 0 1-2.776 2.779H2.777A2.776 2.776 0 0 1 0 30.546V2.775A2.771 2.771 0 0 1 2.777 0h38.88c.768 0 1.46.31 1.964.813.503.502.813 1.196.813 1.962v27.771z" style="fill:#dd7500;fill-opacity:1;fill-rule:nonzero;stroke:none"/>
    <path d="M42.583 30.546c0 .51-.415.925-.925.925H2.778a.926.926 0 0 1-.927-.925V2.775c0-.51.415-.925.927-.925h38.88c.51 0 .925.415.925.925v27.771zM41.658.692H2.778c-1.15 0-2.084.935-2.084 2.083v27.771c0 1.15.934 2.083 2.084 2.083h38.88a2.084 2.084 0 0 0 2.082-2.083V2.775A2.086 2.086 0 0 0 41.658.692" style="fill:#000;fill-opacity:1;fill-rule:nonzero;stroke:none"/>
    <path d="M20.411 14.348V5.09h1.46v7.893h4.282v1.364H20.41zM27.541 14.348V5.09h1.46v7.893h4.283v1.364H27.54zM15.102 7.656l-.947 2.6h1.863l-.916-2.6zm2.352 6.691-.914-2.597h-2.908l-.915 2.597H11.15L14.35 5.09h1.47l3.201 9.257h-1.568zM15.054 21.738l-.651 2.66h1.335l-.684-2.66zm1.661 6.495-.652-2.533h-1.987l-.617 2.533h-1.335l2.311-9.257h1.302l2.313 9.257h-1.335zM26.567 28.233v-9.257h4.367v1.299h-3.03v2.339h1.922v1.267h-1.922v3.053h3.388v1.299h-4.725zM6.844 28.233v-9.257H8.18V27h3.386v1.234H6.844zM23.527 28.233l-2.852-6.204v6.204h-1.33v-9.257h1.33l2.527 5.555v-5.555h1.33v9.257h-1.005zM35.039 23.957c-.4-.258-.789-.52-1.038-.693-.747-.525-1.141-1.235-1.141-2.047 0-1.332 1.044-2.405 2.381-2.405 1.304 0 2.315 1.01 2.349 2.405h-1.272c-.034-.648-.49-1.07-1.077-1.07-.62 0-1.108.453-1.108 1.07 0 .455.194.714.878 1.104 1.795 1.04 2.579 2.046 2.579 3.379 0 1.495-1.143 2.695-2.579 2.695-1.63 0-2.609-1.364-2.609-2.89h1.305c0 .779.392 1.591 1.304 1.591.719 0 1.306-.649 1.306-1.396 0-.581-.238-1.069-1.278-1.742" style="fill:#000;fill-opacity:1;fill-rule:nonzero;stroke:none"/>
</svg>
