<svg xmlns="http://www.w3.org/2000/svg" version="1.0" width="89.999" height="90">
    <path d="m1.289 41.877 20.295-20.296L41.877 1.286A4.392 4.392 0 0 1 45 0c1.131 0 2.265.426 3.123 1.286l20.294 20.295L88.71 41.878a4.389 4.389 0 0 1 1.289 3.12 4.404 4.404 0 0 1-1.289 3.124L68.417 68.415 48.123 88.71A4.398 4.398 0 0 1 45 90a4.396 4.396 0 0 1-3.123-1.29L21.584 68.415 1.289 48.122A4.41 4.41 0 0 1 0 44.998c0-1.132.43-2.264 1.289-3.12" style="fill:#dd7500;fill-opacity:1;fill-rule:nonzero;stroke:none"/>
    <path d="M2.265 42.521 42.523 2.265a3.514 3.514 0 0 1 4.954 0L87.734 42.52a3.516 3.516 0 0 1 0 4.956L47.478 87.731a3.51 3.51 0 0 1-4.956 0L2.266 47.477a3.518 3.518 0 0 1 0-4.956" style="fill:#000;fill-opacity:1;fill-rule:evenodd;stroke:none"/>
    <path d="M3.525 43.761 43.763 3.522a1.759 1.759 0 0 1 2.475 0l40.236 40.24a1.756 1.756 0 0 1 0 2.475L46.237 86.474a1.754 1.754 0 0 1-2.475 0L3.525 46.237a1.756 1.756 0 0 1 0-2.476" style="fill:#dd7500;fill-opacity:1;fill-rule:evenodd;stroke:none"/>
    <path d="M50.11 52.263c-.005.935-.535 1.805-1.34 2.268l-8.963 6.192c-1.79 1.235-2.576 3.63-2.576 5.835l-.008 6.13h5.301l.001-6.1c0-.84.407-1.634 1.078-2.13l7.885-5.364c2.39-1.397 3.911-4.065 3.911-6.858 0 0 0-.032 0 0-.002-3.286-.002-6.57 0-9.856v.002c0-2.792-1.521-5.464-3.911-6.86l-7.885-5.364a2.664 2.664 0 0 1-1.077-2.131l-.001-2.374 2.918.872c.407.112.704.16 1.017-.052a.983.983 0 0 0 .258-1.36L39.875 15l-6.85 10.113a.978.978 0 0 0 .258 1.36c.295.203.605.167.972.074l2.968-.894.008 2.405c0 2.205.787 4.6 2.577 5.835l8.962 6.191c.805.467 1.335 1.335 1.34 2.27.005 3.302.005 6.605 0 9.908" style="fill:#000;fill-opacity:1;fill-rule:evenodd;stroke:none"/>
</svg>
