<svg xmlns="http://www.w3.org/2000/svg" version="1.0" width="90" height="90.001">
    <path d="M88.71 41.878 48.124 1.288c-1.718-1.717-4.53-1.717-6.246 0l-40.59 40.59a4.43 4.43 0 0 0 0 6.245l40.59 40.59a4.428 4.428 0 0 0 6.246 0l40.588-40.59a4.426 4.426 0 0 0 0-6.245" style="fill:#dd7500;fill-opacity:1;fill-rule:nonzero;stroke:none"/>
    <path d="M87.732 42.522 47.478 2.266a3.516 3.516 0 0 0-4.956 0L2.266 42.522a3.516 3.516 0 0 0 0 4.956l40.256 40.257a3.516 3.516 0 0 0 4.956 0l40.254-40.257a3.511 3.511 0 0 0 0-4.956" style="fill:#000;fill-opacity:1;fill-rule:evenodd;stroke:none"/>
    <path d="M86.475 43.763 46.238 3.526a1.756 1.756 0 0 0-2.476 0L3.526 43.763a1.754 1.754 0 0 0 0 2.475l40.236 40.237a1.756 1.756 0 0 0 2.476 0l40.237-40.237a1.754 1.754 0 0 0 0-2.475" style="fill:#dd7500;fill-opacity:1;fill-rule:evenodd;stroke:none"/>
    <path d="M25.895 50.4c.005.662.38 1.28.953 1.61l6.352 4.387c1.27.876 1.827 2.575 1.827 4.138l.005 4.343h-3.758l-.002-4.32c0-.596-.287-1.16-.762-1.512l-5.59-3.804c-1.696-.989-2.775-2.881-2.775-4.861 0 0 0-.021 0 0 .003-2.329.003-4.658 0-6.986v.002c0-1.98 1.08-3.872 2.774-4.864l5.591-3.8a1.89 1.89 0 0 0 .762-1.512l.002-1.683-2.07.618c-.286.081-.499.112-.721-.036a.697.697 0 0 1-.183-.964l4.852-7.171 4.858 7.17a.695.695 0 0 1-.186.965c-.21.143-.43.117-.689.05l-2.103-.632-.005 1.705c0 1.563-.557 3.26-1.827 4.135l-6.352 4.39a1.889 1.889 0 0 0-.953 1.61c-.002 2.34-.002 4.682 0 7.023" style="fill:#000;fill-opacity:1;fill-rule:evenodd;stroke:none"/>
    <path d="M39.272 50.4c.002.662.376 1.28.95 1.61l6.352 4.387c1.27.876 1.826 2.575 1.826 4.138l.005 4.343h-3.757l-.003-4.32c0-.596-.285-1.16-.76-1.512l-5.592-3.804c-1.694-.989-2.774-2.881-2.774-4.861 0 0 0-.021 0 0 .003-2.329.003-4.658 0-6.986v.002c0-1.98 1.08-3.872 2.774-4.864l5.591-3.8c.476-.352.761-.918.761-1.512l.003-1.683-2.07.618c-.286.081-.499.112-.72-.036a.696.696 0 0 1-.184-.964l4.851-7.171 4.86 7.17a.694.694 0 0 1-.187.965c-.21.143-.429.117-.688.05l-2.105-.632-.005 1.705c0 1.563-.556 3.26-1.826 4.135l-6.352 4.39a1.881 1.881 0 0 0-.95 1.61c-.005 2.34-.005 4.682 0 7.023" style="fill:#000;fill-opacity:1;fill-rule:evenodd;stroke:none"/>
    <path d="M52.64 50.4a1.89 1.89 0 0 0 .95 1.61l6.353 4.387c1.27.876 1.826 2.575 1.826 4.138l.005 4.343h-3.757l-.003-4.32c0-.596-.285-1.16-.761-1.512l-5.591-3.804c-1.694-.989-2.773-2.881-2.773-4.861 0 0 0-.021 0 0 .003-2.329.003-4.658 0-6.986v.002c0-1.98 1.079-3.872 2.773-4.864l5.59-3.8c.477-.352.762-.918.762-1.512l.003-1.683-2.07.618c-.285.081-.498.112-.72-.036a.696.696 0 0 1-.183-.964l4.85-7.171 4.859 7.17a.694.694 0 0 1-.185.965c-.21.143-.43.117-.689.05l-2.105-.632-.005 1.705c0 1.563-.556 3.26-1.826 4.135l-6.353 4.39a1.888 1.888 0 0 0-.95 1.61c-.003 2.34-.003 4.682 0 7.023" style="fill:#000;fill-opacity:1;fill-rule:evenodd;stroke:none"/>
</svg>
