<svg xmlns="http://www.w3.org/2000/svg" version="1.0" width="89.999" height="90">
    <path d="M88.71 41.877 68.415 21.581 48.121 1.286A4.392 4.392 0 0 0 45 0a4.394 4.394 0 0 0-3.123 1.286L21.581 21.581 1.29 41.877A4.389 4.389 0 0 0 0 44.997c0 1.133.429 2.266 1.289 3.126L21.58 68.415 41.876 88.71A4.398 4.398 0 0 0 45 90c1.132 0 2.265-.43 3.122-1.29l20.294-20.295L88.71 48.122a4.41 4.41 0 0 0 1.289-3.124c0-1.132-.43-2.264-1.289-3.12" style="fill:#dd7500;fill-opacity:1;fill-rule:nonzero;stroke:none"/>
    <path d="M87.734 42.521 47.476 2.265a3.514 3.514 0 0 0-4.955 0L2.265 42.52a3.516 3.516 0 0 0 0 4.956l40.256 40.254a3.51 3.51 0 0 0 4.955 0l40.258-40.254a3.518 3.518 0 0 0 0-4.956" style="fill:#000;fill-opacity:1;fill-rule:evenodd;stroke:none"/>
    <path d="M86.474 43.761 46.236 3.522a1.759 1.759 0 0 0-2.475 0L3.525 43.762a1.756 1.756 0 0 0 0 2.475l40.236 40.237a1.754 1.754 0 0 0 2.475 0l40.238-40.237a1.756 1.756 0 0 0 0-2.476" style="fill:#dd7500;fill-opacity:1;fill-rule:evenodd;stroke:none"/>
    <path d="M39.889 52.263c.005.935.535 1.805 1.34 2.268l8.962 6.192c1.79 1.235 2.576 3.63 2.576 5.835l.008 6.13h-5.3l-.002-6.1c0-.84-.406-1.634-1.077-2.13l-7.885-5.364c-2.39-1.397-3.911-4.065-3.911-6.858 0 0 0-.032 0 0 .002-3.286.002-6.57 0-9.856v.002c0-2.792 1.52-5.464 3.91-6.86l7.886-5.364a2.664 2.664 0 0 0 1.077-2.131l.001-2.374-2.919.871c-.406.113-.703.162-1.016-.05a.983.983 0 0 1-.259-1.36L50.124 15l6.85 10.113a.978.978 0 0 1-.259 1.36c-.295.203-.605.167-.97.074l-2.97-.894-.008 2.405c0 2.205-.786 4.6-2.576 5.835l-8.962 6.191c-.805.467-1.335 1.335-1.34 2.27-.005 3.302-.005 6.605 0 9.908" style="fill:#000;fill-opacity:1;fill-rule:evenodd;stroke:none"/>
</svg>
