<svg xmlns="http://www.w3.org/2000/svg" version="1.0" width="90" height="90.001">
    <path d="M88.71 41.878 48.124 1.288c-1.718-1.717-4.53-1.717-6.246 0l-40.59 40.59a4.43 4.43 0 0 0 0 6.245l40.59 40.59a4.428 4.428 0 0 0 6.246 0l40.588-40.59a4.426 4.426 0 0 0 0-6.245" style="fill:#dd7500;fill-opacity:1;fill-rule:nonzero;stroke:none"/>
    <path d="M87.732 42.522 47.478 2.266a3.516 3.516 0 0 0-4.956 0L2.266 42.522a3.516 3.516 0 0 0 0 4.956l40.256 40.257a3.516 3.516 0 0 0 4.956 0l40.254-40.257a3.511 3.511 0 0 0 0-4.956" style="fill:#000;fill-opacity:1;fill-rule:evenodd;stroke:none"/>
    <path d="M86.475 43.763 46.238 3.526a1.756 1.756 0 0 0-2.476 0L3.526 43.763a1.754 1.754 0 0 0 0 2.475l40.236 40.237a1.756 1.756 0 0 0 2.476 0l40.237-40.237a1.754 1.754 0 0 0 0-2.475" style="fill:#dd7500;fill-opacity:1;fill-rule:evenodd;stroke:none"/>
    <path d="M59.88 50.887a2.228 2.228 0 0 1-1.118 1.891l-7.475 5.162c-1.492 1.032-2.149 3.03-2.149 4.868l-.005 5.113h4.42l.004-5.089c0-.697.335-1.361.896-1.776l6.578-4.474c1.994-1.164 3.261-3.391 3.261-5.72v.003a4504.56 4504.56 0 0 1 0-8.22c0 .026 0 0 0 0 0-2.33-1.267-4.557-3.261-5.72l-6.578-4.473a2.22 2.22 0 0 1-.896-1.777l-.005-1.98 2.436.727c.338.093.587.131.848-.044a.817.817 0 0 0 .215-1.133l-5.705-8.438-5.716 8.438a.817.817 0 0 0 .215 1.133c.248.168.506.14.813.062l2.475-.745.005 2.006c0 1.836.657 3.834 2.15 4.866l7.474 5.164a2.225 2.225 0 0 1 1.119 1.891c.002 2.755.002 5.509 0 8.265" style="fill:#000;fill-opacity:1;fill-rule:evenodd;stroke:none"/>
    <path d="M44.146 50.887a2.228 2.228 0 0 1-1.119 1.891l-7.475 5.162c-1.491 1.032-2.149 3.03-2.149 4.868l-.005 5.113h4.42l.004-5.089c0-.697.335-1.361.896-1.776l6.578-4.474c1.994-1.164 3.261-3.391 3.261-5.72v.003-8.22c0 .026 0 0 0 0 0-2.33-1.267-4.557-3.261-5.72l-6.578-4.473a2.22 2.22 0 0 1-.896-1.777l-.005-1.98 2.438.727c.336.093.585.131.846-.044a.817.817 0 0 0 .215-1.133l-5.705-8.438-5.716 8.438a.817.817 0 0 0 .215 1.133c.25.168.506.14.813.062l2.475-.745.005 2.006c0 1.836.658 3.834 2.15 4.866l7.474 5.164a2.225 2.225 0 0 1 1.119 1.891c.002 2.755.002 5.509 0 8.265" style="fill:#000;fill-opacity:1;fill-rule:evenodd;stroke:none"/>
</svg>
