<svg xmlns="http://www.w3.org/2000/svg" width="467.669" height="467.608">
    <path style="fill:#dd7500;fill-opacity:1;fill-rule:nonzero;stroke:none" d="M286.04 564.952 69.913 348.822c-6.906-6.903-6.906-18.156 0-25.065l216.116-216.114c6.906-6.911 18.17-6.915 25.076-.01L527.22 323.767c6.909 6.906 6.909 18.16 0 25.065l-216.116 216.12c-6.819 6.81-18.24 6.825-25.065 0" transform="translate(-64.734 -102.457)"/>
    <path style="fill:#000;fill-rule:evenodd;stroke:none" d="M289.475 561.43 73.433 345.393c-4.967-4.981-4.957-13.218 0-18.191l216.032-216.036c4.984-4.978 13.203-4.963 18.201 0l216.022 216.043c4.967 4.98 4.978 13.199 0 18.184L307.666 561.431c-4.987 4.945-13.21 4.967-18.19 0" transform="translate(-64.734 -102.457)"/>
    <path style="fill:#dd7500;fill-opacity:1;fill-rule:evenodd;stroke:none" d="M294.286 556.491 78.369 340.578c-2.39-2.313-2.39-6.253 0-8.572L294.286 116.1c2.305-2.389 6.245-2.389 8.561 0l215.916 215.906c2.39 2.323 2.39 6.267-.01 8.587L302.857 556.49c-2.315 2.397-6.255 2.397-8.571 0" transform="translate(-64.734 -102.457)"/>
    <path style="fill:#000;fill-rule:evenodd;stroke:none" d="M157.935 347.67c0-7.246-4.209-12.393-13.794-18.003-3.737-2.11-4.918-3.512-4.918-6.078 0-3.277 2.808-5.855 6.084-5.855 3.04 0 5.618 2.344 5.618 5.855h7.01c-.23-7.49-5.614-12.862-12.628-12.862-7.25 0-12.856 5.61-12.856 12.862 0 4.431 2.1 8.184 6.078 10.989 10.286 6.782 7.485 4.676 8.413 5.846 3.04 2.33 3.983 4.436 3.983 7.245 0 3.981-3.05 7.483-6.784 7.483-4.918 0-7.021-4.437-7.021-8.647h-7.013c0 8.184 5.151 15.66 14.034 15.66 7.486 0 13.794-6.543 13.794-14.496zm36.246-22.21c0-8.42-5.148-14.033-13.099-14.033h-14.725v49.808h7.013v-21.98h7.712c8.419 0 13.099-4.677 13.099-13.795zm-6.783 0c0 4.674-2.341 7.245-6.553 7.245h-7.475v-14.262h7.475c3.744 0 6.553 2.805 6.553 7.017zm39.051 35.775v-7.017h-18.237V337.85h10.517v-6.772h-10.517v-12.635h16.365v-7.016h-23.381v49.808h25.253zm33.903 0v-7.017h-18.24V337.85h10.296v-6.772h-10.296v-12.635h16.375v-7.016h-23.62v49.808h25.485zm36.48-24.786c0-3.981-.705-8.187-1.404-11.924-.702-5.15-2.801-8.89-5.847-10.996-1.865-1.397-3.972-2.102-8.184-2.102h-12.628v49.808h13.798c2.801 0 5.149-.705 7.014-2.343 4.911-3.74 7.251-11.223 7.251-22.443zm-7.014 0c0 3.975-.475 7.483-.709 10.518-.69 3.978-3.035 7.25-7.24 7.25h-5.847v-35.774h5.846c3.039 0 5.145 1.635 6.55 5.146.691 2.106 1.4 7.489 1.4 12.86zm66.401 24.786v-6.783h-20.105l20.105-38.575v-4.45h-25.485v7.016h16.607l-18.705 35.066v7.726h27.583zm36.715-24.786c0-7.481-.696-12.39-2.797-17.296-2.348-6.085-5.855-8.426-11.703-8.426-5.84 0-9.35 2.341-11.925 8.426-2.1 4.672-2.8 9.815-2.8 17.296 0 7.483.7 12.153 2.8 17.06 2.574 5.854 6.084 8.655 11.925 8.655 5.617 0 9.355-2.801 11.703-8.655 2.101-4.666 2.797-9.577 2.797-17.06zm-6.78 0c0 5.61-.237 8.411-1.628 12.394-1.18 4.201-3.045 6.309-6.092 6.309-3.032 0-5.137-2.108-6.308-6.31-.937-3.982-1.638-7.01-1.638-12.393 0-5.371.461-8.892 1.638-12.624 1.171-4.212 3.276-6.09 6.308-6.09 3.047 0 4.912 1.878 6.092 6.324 1.156 3.498 1.628 6.774 1.628 12.39zm44.902 24.786v-49.808H423.8v29.933l-13.556-29.933h-7.254v49.808h7.254V328.02l15.428 33.215h5.383zm36.006 0v-7.017h-18.245V337.85h10.29v-6.772h-10.29v-12.635h16.375v-7.016h-23.389v49.808h25.259zM222.006 266.528v-6.539h-3.042v-31.346h-7.248l-20.58 32.74v5.145h20.58v12.162h7.248v-12.162h3.042zm-10.29-6.539h-11.93l11.93-18.946v18.946zm45.366 1.163c0-9.588-5.616-15.897-13.566-15.897-1.873 0-3.27 0-5.603.933l.461-10.52h16.843v-7.025h-23.385l-1.405 25.03 7.021.699c1.631-1.404 3.496-2.337 5.838-2.337 4.205 0 6.778 3.28 6.778 8.653 0 7.01-3.747 11.684-9.12 11.684-2.57 0-4.442-.7-7.016-2.33l-4.671 5.145c3.739 2.805 7.95 4.44 12.386 4.44 8.886 0 15.439-7.954 15.439-18.475zm57.285 17.538v-50.047h-7.251l-8.88 28.066-9.354-28.066h-7.251v50.047h7.25v-28.062l9.355 28.062 8.88-28.062v28.062h7.25zm38.814-36.012c0-8.411-5.143-14.035-13.093-14.035h-14.964v50.047h7.245v-21.98h7.72c8.418 0 13.092-4.916 13.092-14.032zm-7.008 0c0 4.68-2.102 7.255-6.315 7.255h-7.489v-14.265h7.49c3.74 0 6.314 2.801 6.314 7.01zm41.853 36.012v-50.047h-7.017v20.35h-13.793v-20.35h-7.25v50.047h7.25v-22.676h13.793v22.676h7.017zM243.286 443.773l-12.397-49.809h-7.01l-12.387 49.809h7.237l3.277-13.559h10.758l3.508 13.559h7.014zM230.889 423.2h-7.01l3.507-14.272 3.503 14.272zm47.473 20.573v-49.809h-7.253v20.343h-13.792v-20.343h-7.019v49.809h7.019v-22.444h13.792v22.444h7.253zm35.774 0v-7.013h-18.01V420.4h10.06v-6.79h-10.06v-12.625h16.138v-7.02h-23.382v49.808h25.254zm36.48 0-12.634-49.809h-7.016l-12.387 49.809h7.248l3.272-13.559h10.76l3.507 13.559h7.25zM337.983 423.2h-7.016l3.517-14.272 3.499 14.272zm47.472-4.45c0-3.733-.697-8.18-1.403-11.917-.705-4.915-2.81-8.894-5.847-10.993-1.872-1.4-3.975-1.876-7.947-1.876h-12.864v49.809h13.796c2.802 0 5.143-.698 7.015-2.101 4.91-3.98 7.25-11.232 7.25-22.922zm-7.02.47c0 3.743-.465 7.258-.698 10.52-.707 3.75-3.032 7.02-7.248 7.02h-5.837v-35.775h5.837c3.038 0 5.145 1.642 6.541 5.145.707 2.107 1.405 7.48 1.405 13.09z" transform="translate(-64.734 -102.457)"/>
</svg>
