<svg xmlns="http://www.w3.org/2000/svg" width="701.421" height="701.422">
    <path style="fill:none;stroke:none" d="M75.708 194.085 392.035-122.26c13.392-13.383 35.298-13.383 48.677 0l316.343 316.344c13.383 13.383 13.383 35.286 0 48.668l-316.343 316.34c-13.38 13.378-35.284 13.378-48.677 0L75.708 242.753c-13.383-13.382-13.383-35.285 0-48.668z" transform="translate(-65.67 132.296)"/>
    <path style="fill:#dd7500;fill-opacity:1;fill-rule:nonzero;stroke:none" d="M75.708 194.085 392.035-122.26c13.392-13.383 35.298-13.383 48.677 0l316.343 316.344c13.383 13.383 13.383 35.286 0 48.668l-316.343 316.34c-13.38 13.378-35.284 13.378-48.677 0L75.708 242.753c-13.383-13.382-13.383-35.285 0-48.668z" transform="translate(-65.67 132.296)"/>
    <path style="fill:#000;fill-rule:evenodd;stroke:none" d="M83.331 199.114 397.08-114.627c10.625-10.617 27.983-10.617 38.6 0l313.748 313.74c10.622 10.622 10.622 27.988 0 38.606L435.68 551.468c-10.617 10.61-27.974 10.61-38.6 0L83.33 237.718c-10.609-10.617-10.609-27.983 0-38.604" transform="translate(-65.67 132.296)"/>
    <path style="fill:#dd7500;fill-opacity:1;fill-rule:evenodd;stroke:none" d="m93.144 208.775 313.581-313.6c5.324-5.303 14.004-5.303 19.298 0l313.595 313.6c5.307 5.297 5.307 13.987 0 19.29L426.023 541.649c-5.294 5.316-13.974 5.316-19.298 0L93.145 228.065c-5.299-5.303-5.299-13.993 0-19.29" transform="translate(-65.67 132.296)"/>
    <path style="fill:#000;fill-rule:evenodd;stroke:none" d="M205.432 236.31c0-10.879-6.317-18.592-20.693-27.01-5.616-3.156-7.366-5.26-7.366-9.117 0-4.91 4.203-8.77 9.112-8.77 4.562 0 8.422 3.51 8.422 8.77h10.525c-.356-11.223-8.422-19.29-18.947-19.29-10.871 0-19.285 8.418-19.285 19.29 0 6.663 3.15 12.275 9.124 16.478 15.433 10.174 11.222 7.018 12.617 8.77 4.559 3.508 5.966 6.664 5.966 10.88 0 5.96-4.562 11.212-10.168 11.212-7.366 0-10.529-6.66-10.529-12.97h-10.52c0 12.272 7.721 23.493 21.049 23.493 11.213 0 20.693-9.812 20.693-21.736zm54.36-33.322c0-12.627-7.722-21.04-19.65-21.04H218.05v74.695h10.528v-32.964h11.565c12.63 0 19.65-7.018 19.65-20.691zm-10.183 0c0 7.013-3.5 10.873-9.818 10.873h-11.214v-21.393h11.214c5.615 0 9.818 4.21 9.818 10.52zm58.575 53.655v-10.515H280.83v-24.553h15.78v-10.171h-15.78v-18.936h24.551v-10.52h-35.075v74.695h37.878zm50.853 0v-10.515H331.69v-24.553h15.433v-10.171H331.69v-18.936h24.541v-10.52h-35.411v74.695h38.218zm54.71-37.174c0-5.961-1.052-12.271-2.1-17.885-1.057-7.713-4.205-13.329-8.77-16.483-2.808-2.1-5.962-3.153-12.27-3.153H371.66v74.695h20.697c4.212 0 7.712-1.053 10.52-3.5 7.365-5.62 10.87-16.833 10.87-33.674zm-10.523 0c0 5.962-.703 11.222-1.049 15.787-1.049 5.963-4.563 10.872-10.866 10.872h-8.767v-53.66h8.767c4.552 0 7.712 2.455 9.817 7.715 1.049 3.155 2.098 11.22 2.098 19.286zm99.602 37.174v-10.164h-30.149l30.15-57.869v-6.662H464.6v10.52h24.9l-28.054 52.6v11.575h41.38zm55.073-37.174c0-11.221-1.054-18.585-4.212-25.954-3.512-9.116-8.766-12.621-17.535-12.621-8.773 0-14.028 3.505-17.886 12.621-3.161 7.01-4.206 14.733-4.206 25.954 0 11.222 1.045 18.237 4.206 25.599 3.858 8.773 9.113 12.978 17.886 12.978 8.407 0 14.023-4.205 17.535-12.978 3.158-7.008 4.212-14.377 4.212-25.6zm-10.177 0c0 8.419-.348 12.626-2.457 18.591-1.755 6.305-4.555 9.463-9.113 9.463-4.566 0-7.72-3.158-9.48-9.463-1.393-5.965-2.45-10.524-2.45-18.591 0-8.065.7-13.325 2.45-18.944 1.76-6.304 4.914-9.111 9.48-9.111 4.558 0 7.358 2.807 9.113 9.47 1.75 5.26 2.457 10.17 2.457 18.585zm67.335 37.174v-74.695h-10.862v44.887l-20.343-44.887H572.97v74.695h10.883v-49.797l23.138 49.797h8.067zm54.013 0v-10.515h-27.353v-24.553h15.424v-10.171h-15.424v-18.936h24.54v-10.52h-35.07v74.695h37.883zM340.796 68.315v-10.52h-41.724v10.52h28.06c-7.367 11.923-11.23 20.693-14.382 32.968-2.815 9.823-4.566 22.093-4.566 29.81v1.755h10.528c.35-13.68 2.107-23.848 5.958-35.427 4.211-11.922 9.467-21.392 16.126-29.106zm57.175 27.006c0-11.577-1.056-18.592-4.21-25.953-3.51-9.12-8.762-12.977-17.54-12.977-8.769 0-14.025 3.857-17.885 12.618-3.155 7.374-4.202 14.735-4.202 26.312 0 11.573 1.047 18.583 4.202 25.953 3.505 8.766 8.778 12.972 17.885 12.972 8.415 0 14.03-4.206 17.54-12.972 3.154-7.014 4.21-14.38 4.21-25.953zm-10.176 0c0 8.414-.708 12.977-2.458 18.94-1.75 6.308-4.548 9.115-9.116 9.115-4.912 0-7.712-2.807-9.471-9.116-1.75-5.962-2.453-10.525-2.453-18.939 0-8.418.703-13.332 2.453-18.938 1.759-6.318 4.559-9.472 9.471-9.472 4.568 0 7.366 3.154 9.116 9.472 1.75 5.606 2.458 10.52 2.458 18.938zM454.792 132.848l-11.23-26.305 7.72-10.17h-8.076l-8.405 10.52V81.99l-7.02 3.86v46.999h7.02v-15.78l3.848-4.563 8.768 20.343h7.375zm47.344 0v-24.905c0-8.415-5.265-11.924-10.177-12.28-3.509-.342-7.365 0-9.814 4.212-2.11-2.799-4.568-4.211-7.718-4.211-1.75 0-4.206 0-7.373 2.812v-2.102h-7.012v36.474h7.012v-24.905c0-4.208 2.113-5.607 4.913-5.962 3.505 0 5.61 1.057 5.61 5.962v24.905h7.017v-24.905c0-4.208 2.105-5.962 4.566-5.962 3.846 0 5.599 1.057 5.599 5.962v24.905h7.377zM541.412 82.691h-7.72l-29.098 50.157h7.711l29.107-50.157M568.414 132.848v-24.905c0-11.222-9.818-15.08-18.239-10.867V81.99l-7.011 3.86v46.999h7.011v-24.905c0-4.208 2.451-5.607 5.266-5.962 3.503 0 5.963 1.057 5.963 5.962v24.905h7.01M333.431 380.448l-18.587-74.7h-10.512l-18.596 74.7h10.874l4.906-20.338h16.135l5.26 20.338h10.52zm-18.587-30.862h-10.512l5.252-21.39 5.26 21.39zm71.205 30.862v-74.7h-10.875v30.515H354.48v-30.515h-10.525v74.7h10.525v-33.665h20.694v33.665h10.875zm53.652 0v-10.52h-27.006v-24.553h15.086v-10.174h-15.086v-18.93h24.201v-10.523h-35.072v74.7H439.7zm54.719 0-18.948-74.7H464.95l-18.588 74.7h10.884l4.905-20.338h16.135l5.255 20.338h10.88zm-18.948-30.862H464.95l5.272-21.39 5.251 21.39zm71.193-6.66c0-5.618-1.045-12.278-2.106-17.895-1.049-7.36-4.203-13.322-8.76-16.48-2.802-2.106-5.963-2.803-11.924-2.803h-19.281v74.7h20.685c4.21 0 7.718-1.052 10.52-3.158 7.365-5.962 10.866-16.832 10.866-34.364zm-10.513.698c0 5.607-.702 10.872-1.056 15.78-1.057 5.612-4.557 10.524-10.875 10.524h-8.761V316.27h8.761c4.558 0 7.725 2.453 9.818 7.715 1.057 3.152 2.113 11.215 2.113 19.638z" transform="translate(-65.67 132.296)"/>
</svg>
