<svg xmlns="http://www.w3.org/2000/svg" width="681.62" height="681.62">
    <path style="fill:#dd7500;fill-opacity:1;fill-rule:nonzero;stroke:none" d="M582.907 444.71c12.205-12.205 12.205-31.991 0-44.195l-309.36-309.36c-12.203-12.204-31.99-12.204-44.194 0l-309.36 309.36c-12.203 12.204-12.203 31.99 0 44.194l309.36 309.36c12.205 12.204 31.99 12.204 44.195 0z" transform="translate(89.36 -81.802)"/>
    <path style="fill:#000;fill-rule:nonzero;stroke:none" d="M235.246 748.176c8.935 8.936 23.474 8.936 32.41 0l309.359-309.36c8.935-8.935 8.935-23.473 0-32.409l-309.36-309.36c-8.935-8.935-23.474-8.935-32.41 0l-309.359 309.36c-8.935 8.936-8.935 23.474 0 32.41z" transform="translate(89.36 -81.802)"/>
    <path style="fill:#dd7500;fill-opacity:1;fill-rule:nonzero;stroke:none" d="M244.085 739.34c4.061 4.061 10.67 4.06 14.731 0l309.362-309.362c4.062-4.062 4.062-10.67 0-14.732L258.816 105.884c-4.06-4.06-10.67-4.061-14.731 0L-65.277 415.246c-4.061 4.061-4.061 10.67 0 14.732z" transform="translate(89.36 -81.802)"/>
    <path style="fill:#000;fill-rule:nonzero;stroke:none" d="M122.098 251.95 251.45 130.001l129.353 121.947a5.24 5.24 0 0 1-4.225 9.013l-83.207-10.427v68.107h-83.84v-68.107l-83.206 10.427a5.24 5.24 0 0 1-4.227-9.013z" transform="translate(89.36 -81.802)"/>
    <path style="fill:#fff;fill-opacity:1;fill-rule:nonzero;stroke:none" d="M409.897 369.608c5.789 0 11.3 2.276 15.404 6.374 4.48 4.494 6.73 10.633 6.337 16.96-.215 3.269-1.342 6.319-2.96 9.144L269.89 677.13c-3.708 6.41-11.153 10.093-18.44 10.093-7.286 0-14.73-3.682-18.44-10.093L74.224 402.086c-1.618-2.825-2.745-5.875-2.96-9.144-.392-6.327 1.857-12.466 6.337-16.96a21.742 21.742 0 0 1 15.404-6.374z" transform="translate(89.36 -81.802)"/>
    <path style="fill:#af1e2d;fill-opacity:1;fill-rule:evenodd;stroke:none" d="M409.67 377.745c6.283.015 12.201 4.72 13.394 10.928.603 3.229.046 6.46-1.594 9.296L262.568 673.013c-1.4 2.421-3.715 4.238-6.337 5.198-1.506.552-3.138.836-4.78.873-1.643-.037-3.275-.321-4.781-.873-2.622-.96-4.937-2.777-6.337-5.198L81.431 397.969a13.446 13.446 0 0 1-1.594-9.296c1.193-6.207 7.11-10.913 13.394-10.928z" transform="translate(89.36 -81.802)"/>
    <path style="fill:#fff;fill-opacity:1;fill-rule:evenodd;stroke:none" d="M315.307 432.117c6.25 0 12.087 4.46 13.28 10.7.625 3.236.289 6.412-1.366 9.296l-63.933 110.98c-2.538 4.39-6.67 7.122-11.838 7.096-5.167.026-9.3-2.706-11.838-7.095L175.68 452.113c-1.655-2.884-1.992-6.06-1.366-9.296 1.193-6.24 7.03-10.7 13.28-10.7z" transform="translate(89.36 -81.802)"/>
</svg>
