<svg xmlns="http://www.w3.org/2000/svg" width="286.036" height="286.012" viewBox="-1 -1 286.036 286.012" xml:space="preserve">
    <path clip-rule="evenodd" d="M2.786 132.725 132.711 2.83c5.114-5.107 13.45-5.107 18.567 0L281.2 132.725c5.114 5.113 5.114 13.447 0 18.557L151.278 281.177c-5.118 5.113-13.453 5.113-18.567 0L2.786 151.282c-5.045-5.047-5.052-13.504 0-18.557" style="fill:#dd7500;fill-rule:evenodd;stroke:none;fill-opacity:1"/>
    <path clip-rule="evenodd" d="M5.137 135.014 135.001 5.184c3.845-3.819 10.135-3.803 13.984 0l129.863 129.83c3.826 3.814 3.818 10.167 0 13.983l-129.863 129.83c-3.818 3.81-10.174 3.825-13.984 0L5.137 148.997c-3.81-3.83-3.818-10.154 0-13.983" style="fill-rule:evenodd;stroke:none;fill:#000"/>
    <path clip-rule="evenodd" d="M9.048 138.832 138.82 9.095c1.715-1.77 4.633-1.77 6.348 0l129.767 129.737c1.773 1.716 1.773 4.632 0 6.35L145.167 274.91c-1.715 1.776-4.633 1.776-6.348 0L9.05 145.181c-1.77-1.718-1.77-4.633 0-6.349" style="fill:#dd7500;fill-rule:evenodd;stroke:none;fill-opacity:1"/>
    <path clip-rule="evenodd" d="M163.427 91.238v-4.906H150.66v-11.54h7.25v-4.784h-7.25v-8.833h11.416v-4.912h-16.444v34.975h17.795M134.954 81.3c0 3.066-1.847 5.033-4.664 5.033h-5.037V75.408h5.037c2.576 0 4.664 2.578 4.664 5.891zm-.613-15.954c0 3.193-1.475 5.156-3.81 5.156h-5.278v-9.326h5.277c2.701 0 3.811 1.226 3.811 4.17zm5.518 16.323c0-3.563-1.59-6.507-4.292-8.715 2.825-2.945 3.68-4.415 3.68-7.608 0-5.397-3.315-9.082-7.979-9.082h-11.043v34.975h10.306c5.16 0 9.328-4.295 9.328-9.57zM232.495 129.932c0 2.702-.248 5.153-.488 7.365-.497 2.698-2.084 5.026-5.037 5.026h-4.17V117.17h4.17c2.212 0 3.687 1.105 4.54 3.563.621 1.474.985 5.276.985 9.2m4.913-.246c0-2.696-.373-5.766-.86-8.34-.614-3.563-2.089-6.257-4.177-7.728-1.226-.985-2.7-1.35-5.642-1.35h-8.963v34.968h9.7c1.963 0 3.68-.492 4.904-1.6 3.44-2.696 5.038-7.85 5.038-15.95zm-25.536 17.55v-4.913h-12.766v-11.528h7.244v-4.787h-7.244v-8.839h11.42v-4.9h-16.453v34.967h17.8zm-28.477-25.64c0 2.812-1.599 4.413-4.54 4.413h-5.16v-8.839h5.16c2.7 0 4.54 1.724 4.54 4.426zm4.912 25.64-5.037-17.18c3.314-1.224 5.037-4.298 5.037-8.46 0-5.65-3.687-9.328-9.212-9.328h-10.43v34.968h5.028v-16.44h4.788l4.664 16.44h5.162zm-33.145-14.48h-5.028l2.452-10.06 2.576 10.06zm8.716 14.48-8.716-34.968h-4.912l-8.715 34.968h5.037l2.328-9.576h7.488l2.46 9.576h5.03zm-29.339-25.152c0 3.185-1.595 5.024-4.536 5.024h-5.16v-9.939h5.16c2.693 0 4.536 1.963 4.536 4.915zm4.908 0c0-5.893-3.679-9.816-9.208-9.816h-10.43v34.968h5.033v-15.34h5.397c5.894 0 9.208-3.438 9.208-9.812zm-25.53 25.152v-4.913H101.15v-11.528h7.248v-4.787h-7.248v-8.839h11.416v-4.9H96.121v34.967h17.795zm-28.474-25.64c0 2.812-1.599 4.413-4.544 4.413h-5.157v-8.839H80.9c2.704 0 4.544 1.724 4.544 4.426zm4.916 25.64-5.04-17.18c3.313-1.224 5.04-4.298 5.04-8.46 0-5.65-3.69-9.328-9.215-9.328h-10.43v34.968h5.03v-16.44h4.787l4.664 16.44h5.164zm-29.347-25.152c0 3.185-1.59 5.024-4.54 5.024H51.32v-9.939h5.153c2.701 0 4.54 1.963 4.54 4.915zm4.913 0c0-5.893-3.687-9.816-9.204-9.816H46.283v34.968h5.036v-15.34h5.401c5.891 0 9.205-3.438 9.205-9.812zM217.781 178.072c0 3.193-1.59 5.04-4.539 5.04h-5.16v-9.938h5.16c2.7 0 4.54 1.958 4.54 4.898m4.912 0c0-5.884-3.687-9.81-9.212-9.81h-10.43v34.965h5.028v-15.336h5.401c5.9 0 9.213-3.429 9.213-9.819zm-31.43 7.612c0 4.054-.24 6.13-1.103 8.954-.86 2.947-2.212 4.298-4.299 4.298-2.204 0-3.555-1.35-4.416-4.298-.737-2.825-1.102-5.024-1.102-8.83 0-3.934.24-6.262 1.102-8.957.861-2.945 2.212-4.299 4.416-4.299 2.087 0 3.438 1.354 4.3 4.423.737 2.572 1.102 4.787 1.102 8.71zm4.788 0c0-5.276-.489-8.589-1.964-12.02-1.715-4.3-4.175-6.019-8.226-6.019-4.044 0-6.504 1.72-8.343 5.893-1.475 3.313-1.964 6.87-1.964 12.146 0 5.403.49 8.717 1.964 12.146 1.715 4.174 4.175 6.031 8.343 6.031 3.935 0 6.511-1.857 8.226-6.03 1.475-3.314 1.964-6.743 1.964-12.147zm-24.67-12.762v-4.659h-17.8v4.66h6.384v30.305h5.036v-30.306h6.38zm-20.993 20.738c0-5.03-2.94-8.837-9.692-12.763-2.577-1.475-3.314-2.448-3.314-4.174 0-2.328 1.84-4.047 4.167-4.047 2.212 0 3.938 1.594 4.06 4.047h4.78c-.117-5.276-3.932-9.078-8.84-9.078-5.029 0-8.956 4.054-8.956 9.078 0 3.075 1.475 5.775 4.3 7.738 7.115 4.78 5.152 3.43 5.89 4.167 2.086 1.6 2.824 3.072 2.824 5.031 0 2.816-2.212 5.276-4.912 5.276-3.438 0-4.913-3.069-4.913-6.01h-4.912c0 5.766 3.69 10.936 9.825 10.936 5.402.001 9.693-4.558 9.693-10.2zm-47.012-7.976c0 4.054-.24 6.13-1.098 8.954-.865 2.947-2.215 4.298-4.303 4.298-2.204 0-3.555-1.35-4.416-4.298-.74-2.825-1.102-5.024-1.102-8.83 0-3.934.241-6.262 1.102-8.957.861-2.945 2.212-4.299 4.416-4.299 2.087 0 3.438 1.354 4.303 4.423.733 2.572 1.098 4.787 1.098 8.71zm4.788 0c0-5.276-.489-8.589-1.963-12.02-1.715-4.3-4.175-6.019-8.226-6.019-4.043 0-6.503 1.72-8.343 5.893-1.475 3.313-1.963 6.87-1.963 12.146 0 5.403.49 8.717 1.963 12.146 1.72 4.174 4.175 6.031 8.343 6.031 3.934 0 6.511-1.857 8.226-6.03 1.474-3.314 1.963-6.743 1.963-12.147zm-24.67-12.762v-4.659H65.7v4.66h6.38v30.305h5.036v-30.306h6.378z" style="fill-rule:evenodd;stroke:none;fill:#000"/>
</svg>
