<svg xmlns="http://www.w3.org/2000/svg" width="681.62" height="681.62">
    <path style="fill:#dd7500;fill-opacity:1;fill-rule:nonzero;stroke:none" d="M-80.006 444.71c-12.204-12.205-12.204-31.991 0-44.195l309.36-309.36c12.204-12.204 31.99-12.204 44.194 0l309.36 309.36c12.204 12.204 12.204 31.99 0 44.194l-309.36 309.36c-12.204 12.204-31.99 12.204-44.194 0z" transform="translate(89.36 -81.802)"/>
    <path style="fill:#000;fill-rule:nonzero;stroke:none" d="M267.655 748.176c-8.935 8.936-23.474 8.936-32.409 0l-309.36-309.36c-8.935-8.935-8.935-23.473 0-32.409l309.36-309.36c8.936-8.935 23.474-8.935 32.41 0l309.36 309.36c8.935 8.936 8.935 23.474 0 32.41z" transform="translate(89.36 -81.802)"/>
    <path style="fill:#dd7500;fill-opacity:1;fill-rule:nonzero;stroke:none" d="M258.816 739.34c-4.061 4.061-10.67 4.06-14.731 0L-65.277 429.978c-4.062-4.062-4.062-10.67 0-14.732l309.362-309.362c4.06-4.06 10.67-4.061 14.731 0L568.18 415.246c4.06 4.061 4.06 10.67 0 14.732z" transform="translate(89.36 -81.802)"/>
    <path style="fill:#000;fill-rule:nonzero;stroke:none" d="M380.803 251.95 251.45 130.001 122.098 251.949a5.24 5.24 0 0 0 4.225 9.013l83.208-10.427v68.107h83.84v-68.107l83.205 10.427a5.24 5.24 0 0 0 4.227-9.013z" transform="translate(89.36 -81.802)"/>
    <path d="m306.127 646.222 77.324-77.324V459.546l-77.324-77.324H196.774l-77.323 77.324v109.352l77.323 77.324z" style="fill:#fff;fill-opacity:1;stroke:none" transform="translate(89.36 -81.802)"/>
    <path style="fill:#af1e2d;fill-opacity:1;stroke:none" d="m303.227 639.222 73.224-73.223V462.445l-73.224-73.223H199.674l-73.223 73.223V566l73.223 73.223z" transform="translate(89.36 -81.802)"/>
</svg>
