<svg xmlns="http://www.w3.org/2000/svg" width="90.001" height="90" viewBox="0 0 254.004 254">
    <path d="M3.633 118.187 118.19 3.633c4.844-4.844 12.774-4.844 17.625 0l114.55 114.554c4.851 4.847 4.851 12.774 0 17.624l-114.55 114.551c-4.85 4.85-12.781 4.85-17.625 0L3.633 135.812c-4.844-4.851-4.844-12.778 0-17.625" style="fill:#dd7500;fill-opacity:1;fill-rule:nonzero;stroke:none"/>
    <path d="M6.395 120.006 120.007 6.394c3.845-3.842 10.135-3.842 13.988 0L247.6 120.006c3.845 3.845 3.845 10.135 0 13.987L133.995 247.605c-3.853 3.846-10.143 3.846-13.988 0L6.395 133.993c-3.842-3.852-3.842-10.142 0-13.987" style="fill:#000;fill-opacity:1;fill-rule:evenodd;stroke:none"/>
    <path d="M9.95 123.506 123.51 9.946a4.957 4.957 0 0 1 6.985 0l113.56 113.56c1.918 1.923 1.918 5.066 0 6.985l-113.56 113.56a4.95 4.95 0 0 1-6.985 0L9.95 130.49c-1.922-1.92-1.922-5.062 0-6.985" style="fill:#dd7500;fill-opacity:1;fill-rule:evenodd;stroke:none"/>
    <path d="m131.868 102.18 7.743-39.752-39.617 7.62a3.388 3.388 0 0 0-2.674 3.81c.254 1.143 1.143 1.778 2.163 2.413l9.013 4.826-53.971 53.975 12.442 12.446 53.979-53.975 4.822 8.89c.635 1.27 1.277 2.032 2.413 2.286 1.655.381 3.43-.889 3.687-2.54M161.586 145.36c-2.544 2.54-3.937 6.096-3.81 9.398v54.102h-17.653v-53.852c-.127-7.997 3.175-16.252 9.017-22.094l5.588-5.461-9.017-4.826c-1.147-.635-1.902-1.274-2.16-2.54-.384-1.778.76-3.43 2.537-3.81l39.758-7.62-7.623 39.75c-.385 1.779-2.032 2.918-3.81 2.54-1.143-.126-1.778-1.015-2.54-2.158l-4.7-8.89-5.587 5.46zM111.925 155.52l-.254 64.893h6.731l.13-64.894c-.253-13.97 5.335-27.94 15.237-37.973l.254-.254-4.699-4.699-64.766 64.897 4.575 4.569 45.717-45.463c-2.036 5.97-3.048 12.954-2.925 18.923M178.092 63.825l4.699 4.699-9.267 9.27-4.7-4.571 9.268-9.398zM161.84 80.08l4.698 4.7-9.274 9.27-4.699-4.698 9.274-9.271zM145.584 96.336l4.699 4.7-9.271 9.27-4.7-4.699 9.272-9.27z" style="fill:#000;fill-opacity:1;fill-rule:evenodd;stroke:none"/>
</svg>
