<svg xmlns="http://www.w3.org/2000/svg" width="90" height="90" viewBox="0 0 254.001 254.001">
    <path d="M3.62 118.223 118.222 3.619c4.83-4.826 12.725-4.826 17.554 0l114.607 114.604c4.823 4.83 4.823 12.725 0 17.558L135.777 250.384c-4.83 4.823-12.725 4.823-17.554 0L3.62 135.781c-4.826-4.833-4.826-12.729 0-17.558" style="fill:#dd7500;fill-opacity:1;fill-rule:nonzero;stroke:none"/>
    <path d="M6.953 119.298 119.299 6.956c4.236-4.237 11.168-4.237 15.405 0l112.342 112.342c4.24 4.237 4.24 11.169 0 15.406L134.704 247.049c-4.236 4.237-11.169 4.237-15.405 0L6.953 134.704c-4.237-4.237-4.237-11.17 0-15.406" style="fill:#000;fill-opacity:1;fill-rule:evenodd;stroke:none"/>
    <path d="m11.003 121.854 110.85-110.846c2.833-2.833 7.461-2.833 10.294 0l110.85 110.846c2.833 2.833 2.833 7.461 0 10.294l-110.85 110.85c-2.833 2.833-7.461 2.833-10.294 0l-110.85-110.85c-2.83-2.833-2.83-7.461 0-10.294" style="fill:#dd7500;fill-opacity:1;fill-rule:evenodd;stroke:none"/>
    <path d="M126.636 188.196c.89-19.685.254-45.974 21.336-67.945l7.49 13.59c1.146 1.904 2.035 3.174 3.944 3.559 2.79.504 5.457-1.274 6.096-4.068l12.065-62.738-62.742 12.065c-2.79.512-4.699 3.302-4.064 6.096.254 1.778 1.651 2.798 3.306 3.814l14.22 7.743-66.544 66.421 19.685 19.812 30.476-30.476c-2.032 9.775-3.178 21.59-3.556 31.873v32.131h18.288v-31.877z" style="fill:#000;fill-opacity:1;fill-rule:evenodd;stroke:none"/>
</svg>
