<svg xmlns="http://www.w3.org/2000/svg" width="90" height="89.992" viewBox="0 0 254 253.978">
    <path d="M118.773 250.564 3.433 135.227C1.266 133.06 0 130.062 0 126.993c0-3.076 1.266-6.068 3.433-8.244L118.773 3.41a11.652 11.652 0 0 1 16.475 0L250.596 118.75c2.159 2.162 3.404 5.189 3.404 8.244 0 3.051-1.245 6.075-3.404 8.234L135.248 250.564c-2.794 2.798-7 3.997-10.851 3.143-2.269-.518-3.846-1.704-5.624-3.143" style="fill:#dd7500;fill-opacity:1;fill-rule:nonzero;stroke:none"/>
    <path d="m133.18 248.518 115.363-115.362c1.605-1.605 2.533-3.884 2.533-6.163 0-2.272-.928-4.583-2.533-6.188L133.18 5.457a8.756 8.756 0 0 0-6.16-2.53c-2.31 0-4.568.91-6.198 2.53L5.486 120.805a8.84 8.84 0 0 0-2.554 6.188c0 2.293.934 4.543 2.554 6.163l115.337 115.362c1.616 1.605 3.923 2.529 6.198 2.529 2.269 0 4.548-.924 6.16-2.53" style="fill:#000;fill-opacity:1;fill-rule:evenodd;stroke:none"/>
    <path d="M129.756 245.073a4.034 4.034 0 0 1-2.745 1.129 3.941 3.941 0 0 1-2.737-1.129L8.915 129.733c-.73-.72-1.114-1.726-1.114-2.738 0-1.027.384-2.022 1.114-2.745L124.274 8.913a3.902 3.902 0 0 1 2.737-1.136c1.002 0 2.036.423 2.745 1.136L245.09 124.25a3.937 3.937 0 0 1 1.14 2.745 3.832 3.832 0 0 1-1.14 2.737L129.756 245.073z" style="fill:#dd7500;fill-opacity:1;fill-rule:evenodd;stroke:none"/>
    <path d="m42.558 152.008 15.1 15.128 30.045-30.043c4.272-4.28 7.525-9.567 9.275-15.363a36.863 36.863 0 0 0 1.552-10.605v-10.181l12.4 3.764c.31.092.614.11.924.141.932.102 1.8-.176 2.583-.688a4.051 4.051 0 0 0 1.739-2.61c.219-1.207-.014-2.28-.727-3.25L87.87 60.545 60.335 98.302c-.522.72-.812 1.527-.805 2.416.022 2.078 1.352 3.651 3.376 4.085.607.13 1.345.088 1.951-.095l12.333-3.764v10.075c0 2.314-.483 4.629-1.51 6.71-.649 1.302-1.432 2.596-2.465 3.63l-30.657 30.65zM154.837 101.06v91.455h21.322V101.06l12.393 3.767c.3.092.607.138.921.145.889.021 1.778-.145 2.53-.646a4.301 4.301 0 0 0 1.802-2.691c.222-1.14-.06-2.283-.744-3.214l-27.573-37.769-27.52 37.769c-.396.55-.667 1.118-.79 1.781-.198 1.052.06 2.082.659 2.964.585.875 1.489 1.53 2.53 1.718.68.12 1.453.148 2.13-.057l12.34-3.767zM74.887 184.771l5.588 5.595 26.892-26.87c1.358-1.366 2.724-2.731 4.089-4.1a14.7 14.7 0 0 0 .398-.416c2.378-2.561 4.52-5.352 6.463-8.245 1.669-2.49 3.087-5.073 4.491-7.711v77.032h7.768V111.457h-7.697c-.124 2.42-.29 4.833-.498 7.246-.11 1.2-.254 2.395-.44 3.584-1.193 7.469-4.001 14.725-7.868 21.213-1.57 2.625-3.383 5.126-5.485 7.352a323.31 323.31 0 0 1-6.675 6.882l-27.026 27.037zM130.577 29.615h-7.768v15.501h7.768V29.615zM130.577 56.779h-7.768v15.505h7.768V56.779zM130.577 83.918h-7.768v15.505h7.768V83.918z" style="fill:#000;fill-opacity:1;fill-rule:evenodd;stroke:none"/>
</svg>
