<svg xmlns="http://www.w3.org/2000/svg" width="1620" height="2160" viewBox="0 0 4572.001 6096">
    <defs>
        <clipPath id="a">
            <path d="M0 0v1728.5h1296.5V0H0z" transform="translate(0 .5)"/>
        </clipPath>
    </defs>
    <path style="fill:#dd7500;fill-opacity:1;fill-rule:nonzero;stroke:none" d="M4572.001 5715.002c0 210.431-170.568 381-381 381h-3810c-210.42 0-381.001-170.569-381.001-381V381C0 170.577 170.58 0 381 0h3810.001c210.432 0 381 170.577 381 381v5334.002z"/>
    <path style="fill:#000;fill-rule:nonzero;stroke:none" d="M381 6000.752c-157.565 0-285.75-128.2-285.75-285.75V381C95.25 223.435 223.435 95.25 381 95.25h3810.001c157.55 0 285.75 128.185 285.75 285.75v5334.002c0 157.55-128.2 285.75-285.75 285.75h-3810z"/>
    <path style="fill:#dd7500;fill-opacity:1;fill-rule:nonzero;stroke:none" d="M381 5842.002c-70.028 0-127-56.974-127-127V381c0-70.028 56.972-127 127-127h3810.001c70.027 0 127 56.972 127 127v5334.002c0 70.026-56.973 127-127 127h-3810z"/>
    <g clip-path="url(#a)" style="fill:#000;stroke:none" transform="matrix(3.52778 0 0 3.52778 -.882 -2.646)">
        <path style="fill:#000;fill-rule:nonzero;stroke:none" d="M130.09 288 41.347 94.989V288H0V0h41.347l78.658 172.8V0h41.347v288H130.09z" transform="translate(453.777 252.75)"/>
        <path style="fill:#000;fill-rule:nonzero;stroke:none" d="M121.131 76.8c-7.125-25.263-18.322-36.38-35.627-36.38-18.322 0-29.519 11.117-36.644 35.369-7.125 22.232-9.16 41.432-9.16 73.769 0 31.327 3.052 49.516 9.16 72.759 7.125 24.252 18.322 35.367 36.644 35.367 17.305 0 28.502-11.115 35.627-35.367 7.127-23.243 9.162-40.422 9.162-73.77 0-32.336-3.054-50.526-9.162-71.747zm32.575 171.79c-14.252 34.359-35.627 49.516-68.202 49.516-34.609 0-54.966-15.157-69.216-49.516C4.071 220.295 0 193.01 0 148.547c0-43.453 4.071-72.758 16.288-100.042C31.555 14.147 51.916 0 85.504 0c33.592 0 53.95 14.147 68.202 49.516 12.214 28.295 16.287 55.578 16.287 99.031 0 44.463-4.073 72.758-16.287 100.043z" transform="translate(672.73 247.697)"/>
        <path style="fill:#000;fill-rule:nonzero;stroke:none" d="M91.183 85.89 70.92 168.76h41.54L91.183 85.89zM142.853 288l-20.263-78.82H60.789L41.54 288H0L71.933 0h40.527l71.933 288h-41.54z" transform="translate(252.105 1188.75)"/>
        <path style="fill:#000;fill-rule:nonzero;stroke:none" d="M91.184 85.89 70.92 168.76h41.54L91.184 85.89zM142.858 288l-20.268-78.82H60.789L41.539 288H0L71.934 0h40.526l71.928 288h-41.53z" transform="translate(860.002 1188.75)"/>
        <path style="fill:#000;fill-rule:nonzero;stroke:none" d="M0 288V0h135.804v40.42H41.552v72.76h59.795v39.41H41.552v94.99h105.4V288H0z" transform="translate(687.13 1188.75)"/>
        <path style="fill:#000;fill-rule:nonzero;stroke:none" d="M83.703 40.42H41.347v72.76h42.356c24.202 0 37.311-13.14 37.311-36.38 0-22.23-15.127-36.38-37.311-36.38zM118.997 288 80.676 152.59H41.347V288H0V0h85.718c45.381 0 75.634 30.32 75.634 76.8 0 34.36-14.118 59.62-41.346 69.73L161.352 288h-42.355z" transform="translate(476.818 1188.75)"/>
        <path style="fill:#000;fill-rule:nonzero;stroke:none" d="M0 288V0h135.804v40.42H41.552v72.758h59.795v39.411H41.552v94.989h105.4V288H0z" transform="translate(400.499 720.75)"/>
        <path style="fill:#000;fill-rule:nonzero;stroke:none" d="M0 288V0h135.798v40.42h-94.25v72.758h59.8v39.411h-59.8v94.989h105.4V288H0z" transform="translate(989.962 720.75)"/>
        <path style="fill:#000;fill-rule:nonzero;stroke:none" d="M153.233 257.685c-11.162 25.265-34.502 40.419-63.932 40.419-34.502 0-59.871-17.177-74.078-49.514C6.088 227.368 0 186.95 0 149.558c0-40.421 3.045-69.726 13.192-97.01C23.34 22.232 52.77 0 86.258 0c41.606 0 73.066 30.316 75.094 72.758h-41.608c-1.013-19.2-14.205-32.337-34.502-32.337-14.207 0-25.371 7.074-32.472 21.221-8.119 14.148-13.194 46.485-13.194 80.843 0 24.253 2.03 49.516 6.088 71.747 6.09 28.295 20.297 43.453 42.623 43.453 21.311 0 31.457-14.147 31.457-44.463v-19.199H87.272v-40.422h74.08v59.621c0 20.211-2.028 32.337-8.119 44.463z" transform="translate(782.53 715.696)"/>
        <path style="fill:#000;fill-rule:nonzero;stroke:none" d="M148.739 288V126.315L95.111 288 41.484 126.315V288H0V0h41.484l53.627 161.685L148.739 0h41.485v288h-41.485z" transform="translate(159.587 720.75)"/>
        <path style="fill:#000;fill-rule:nonzero;stroke:none" d="M83.702 40.422H41.347v72.758h42.355c24.203 0 37.313-13.137 37.313-36.379 0-22.233-15.127-36.379-37.313-36.379zm35.295 247.579L80.675 152.59H41.347v135.411H0V0h85.718c45.381 0 75.635 30.316 75.635 76.801 0 34.357-14.118 59.621-41.348 69.726l41.348 141.474h-42.356z" transform="translate(586.619 720.749)"/>
    </g>
</svg>
