<svg xmlns="http://www.w3.org/2000/svg" width="286.662" height="286.663" viewBox="-1 0 286.662 286.663" xml:space="preserve">
    <path d="M3.099 133.387 132.379 4.105c5.472-5.473 14.422-5.473 19.897 0l129.283 129.282c5.47 5.47 5.47 14.423 0 19.89L152.275 282.56c-5.475 5.47-14.425 5.47-19.896 0L3.099 153.276c-5.465-5.466-5.465-14.42 0-19.89z" style="fill:#dd7500;stroke:none;fill-opacity:1"/>
    <path clip-rule="evenodd" d="M6.222 135.44 134.44 7.22c4.339-4.338 11.442-4.338 15.785 0L278.44 135.44c4.343 4.343 4.343 11.438 0 15.777L150.225 279.442c-4.343 4.335-11.446 4.335-15.785 0L6.222 151.217c-4.338-4.34-4.338-11.434 0-15.777" style="fill-rule:evenodd;stroke:none;fill:#000"/>
    <path clip-rule="evenodd" d="m10.225 139.39 128.16-128.16c2.163-2.17 5.725-2.17 7.89 0l128.16 128.16c2.165 2.166 2.165 5.716 0 7.883l-128.16 128.16c-2.165 2.168-5.727 2.168-7.89 0l-128.16-128.16c-2.166-2.167-2.166-5.717 0-7.883" style="fill:#dd7500;fill-rule:evenodd;stroke:none;fill-opacity:1"/>
    <path clip-rule="evenodd" d="M121.45 143.486v-4.905h-12.76V127.05h7.239v-4.788h-7.24v-8.835h11.415v-4.91h-16.446v34.969h17.793m-25.281 0v-34.968h-5.03v20.98l-9.574-20.98h-5.028v34.968h5.028v-23.433l10.802 23.433h3.802zM64.75 125.94c0 4.052-.241 6.137-1.103 8.958-.861 2.944-2.211 4.294-4.295 4.294-2.203 0-3.558-1.35-4.42-4.294-.736-2.82-1.101-5.027-1.101-8.833 0-3.926.24-6.257 1.102-8.955.86-2.946 2.216-4.298 4.419-4.298 2.084 0 3.434 1.352 4.295 4.418.738 2.577 1.103 4.786 1.103 8.71zm4.788 0c0-5.276-.493-8.59-1.96-12.024-1.72-4.294-4.18-6.011-8.226-6.011-4.051 0-6.507 1.716-8.346 5.89-1.475 3.314-1.963 6.869-1.963 12.145 0 5.402.488 8.715 1.963 12.148 1.719 4.174 4.175 6.035 8.346 6.035 3.927 0 6.507-1.861 8.226-6.035 1.467-3.313 1.96-6.746 1.96-12.148zM209.812 201.635v-4.911h-12.765v-11.531h7.24v-4.787h-7.24v-8.836h11.415v-4.908H192.01v34.974h17.8m-24.896-9.697V184.7h-8.96v4.908h3.928v2.33c0 3.682-1.226 5.398-3.802 5.398-2.701 0-4.424-1.842-5.161-5.276-.488-2.702-.732-5.765-.732-8.711 0-4.168.612-8.097 1.594-9.816.862-1.717 2.212-2.577 3.927-2.577 2.456 0 4.05 1.6 4.175 3.929h5.032c-.244-5.153-4.051-8.835-9.083-8.835-4.051 0-7.608 2.699-8.838 6.379-1.227 3.313-1.591 6.873-1.591 11.778 0 4.54.733 9.45 1.839 12.024 1.715 3.93 4.788 6.033 8.959 6.033 3.558 0 6.382-1.857 7.732-4.928.737-1.471.98-2.941.98-5.398zm-30.911-7.608c0 2.699-.244 5.15-.49 7.365-.491 2.699-2.086 5.027-5.031 5.027h-4.171v-25.154h4.17c2.209 0 3.684 1.106 4.54 3.56.616 1.472.982 5.276.982 9.202zm4.912-.246c0-2.698-.373-5.765-.861-8.343-.613-3.56-2.088-6.261-4.175-7.731-1.23-.981-2.696-1.35-5.642-1.35h-8.963v34.974h9.7c1.963 0 3.674-.493 4.904-1.6 3.438-2.698 5.037-7.852 5.037-15.95zm-32.382 17.55h4.9V166.66h-4.9v34.974zm-10.907-25.646c0 2.82-1.595 4.416-4.543 4.416h-5.152v-8.836h5.152c2.7 0 4.543 1.72 4.543 4.42zm4.904 25.646-5.024-17.178c3.313-1.228 5.024-4.298 5.024-8.468 0-5.645-3.678-9.328-9.2-9.328H100.9v34.974h5.032v-16.442h4.788l4.663 16.442h5.149zm-30.54-9.94c0 3.064-1.838 5.028-4.662 5.028H80.3v-10.92h5.028c2.58 0 4.663 2.579 4.663 5.893zm-.611-15.953c0 3.188-1.471 5.15-3.803 5.15H80.3v-9.323h5.276c2.7 0 3.803 1.225 3.803 4.173zm5.524 16.319c0-3.556-1.6-6.503-4.3-8.711 2.826-2.944 3.688-4.42 3.688-7.607 0-5.397-3.313-9.081-7.978-9.081h-11.05v34.974h10.313c5.152-.001 9.327-4.3 9.327-9.575zM231.276 143.315v-4.91H218.51v-11.532h7.244v-4.785h-7.244v-8.835h11.415v-4.905h-16.443v34.968h17.793m-25.281-.001v-34.968h-5.032v20.98l-9.576-20.98h-5.028v34.968h5.028v-23.437l10.806 23.437h3.802zm-33.131-14.48h-5.04l2.46-10.056 2.58 10.057zm8.71 14.48-8.71-34.968h-4.916l-8.714 34.968h5.032l2.33-9.57h7.489l2.452 9.57h5.037zm-24.428 0v-4.663h-12.761v-30.305h-5.032v34.968h17.793z" style="fill-rule:evenodd;stroke:none;fill:#000"/>
</svg>
