<svg xmlns="http://www.w3.org/2000/svg" width="108.958" height="108.945" viewBox="0 0 307.504 307.468">
    <path d="M145.515 304.105 3.405 161.995c-4.54-4.54-4.54-11.941 0-16.481L145.508 3.41c4.54-4.547 11.948-4.547 16.488-.007L304.1 145.521c4.54 4.54 4.54 11.934 0 16.475l-142.103 142.11c-4.487 4.48-11.997 4.486-16.481 0" style="fill:#dd7500;fill-opacity:1;fill-rule:nonzero;stroke:none"/>
    <path d="M147.776 301.79 5.72 159.739c-3.267-3.274-3.26-8.69 0-11.963L147.77 5.725c3.27-3.27 8.681-3.263 11.966 0l142.042 142.057c3.267 3.274 3.274 8.675 0 11.956L159.736 301.79c-3.278 3.252-8.69 3.267-11.96 0" style="fill:#000;fill-opacity:1;fill-rule:evenodd;stroke:none"/>
    <path d="M150.937 298.545 8.965 156.573c-1.57-1.524-1.57-4.113 0-5.637L150.937 8.971c1.517-1.57 4.106-1.57 5.63 0L298.54 150.936c1.57 1.524 1.57 4.12-.006 5.644L156.576 298.545c-1.524 1.574-4.114 1.574-5.638 0" style="fill:#dd7500;fill-opacity:1;fill-rule:evenodd;stroke:none"/>
    <path d="M212.557 99.211c0 1.58-.925 3.302-2.248 3.955-1.047.533-1.707.663-3.563.663h-7.778v-9.232h7.778c1.856 0 2.516.13 3.563.66 1.323.793 2.248 2.37 2.248 3.954m6.07 0c0-3.83-2.507-7.778-5.802-9.37-1.852-.917-3.831-1.185-6.869-1.185h-12.919v37.6h5.93V109.9h6.99c2.906 0 5.146-.532 6.868-1.315 3.295-1.454 5.803-5.419 5.803-9.374m-34.562 27.044V88.656h-5.933l-8.71 21.107-8.707-21.107h-5.94v37.6h5.94v-21.767l8.706 21.766 8.71-21.766v21.766h5.934zm-47.103-16.626h-7.517l3.83-10.548 3.687 10.548zm12.143 16.626L136.18 88.656h-5.94l-12.926 37.6h6.332l3.694-10.556h11.74l3.694 10.555h6.332zm-41.42-27.044c0 1.58-.92 3.165-2.374 3.955-.931.533-1.587.663-3.432.663h-7.12v-9.232h7.12c1.975 0 2.5.13 3.432.66 1.454.793 2.374 2.37 2.374 3.954m6.728 27.044-6.604-17.547c3.44-1.577 5.81-5.542 5.81-9.497 0-3.83-2.37-7.778-5.676-9.37-1.842-.917-3.817-1.185-6.72-1.185h-12.4v37.6h5.937V109.9h7.119l6.064 16.355h6.47zM266.109 172.441c0-14.77-17.675-10.156-18.2-17.141-.268-3.433 3.034-4.487 5.803-4.357 4.223.134 5.539 3.302 5.539 3.302l5.27-1.584c-1.838-4.618-5.4-7.655-10.678-7.655-6.724 0-11.74 2.77-11.74 10.156 0 6.21 5.016 8.446 7.256 9.37 4.882 1.98 10.685 2.77 10.685 7.779 0 3.171-2.377 5.545-5.803 5.545-3.56 0-6.47-1.982-8.054-5.545l-5.669 2.116c2.515 5.67 7.253 9.522 13.723 9.522 3.158 0 6.064-1.076 8.174-2.928 2.378-2.117 3.694-5.147 3.694-8.58m-28.494-26.776h-6.061l-2.91 19.791-4.876-19.79h-5.803l-4.748 19.79-2.907-19.79h-6.072l5.543 37.595h5.277l5.807-24.137 5.94 24.137h5.271l5.539-37.596zm-44.193 18.867c0 2.9-.66 6.593-1.446 8.573-1.323 3.298-3.03 4.751-5.803 4.751-2.374 0-3.962-.92-5.147-2.9-1.454-2.377-2.244-6.47-2.244-10.424 0-3.16.522-6.593 1.453-8.84 1.316-3.299 3.168-4.749 6.068-4.615 2.24.138 3.687.92 4.88 2.9 1.453 2.508 2.24 6.332 2.24 10.555m5.94 0c0-4.755-.931-9.493-2.501-12.795-2.378-4.618-5.68-6.731-10.432-6.731-4.357 0-7.38 1.323-9.627 4.223-2.508 3.563-4.085 9.101-4.085 15.303 0 4.484 1.055 9.493 2.639 12.665 2.24 4.614 5.531 6.752 10.816 6.752 3.954 0 6.988-1.344 9.101-4.251 2.636-3.295 4.09-9.232 4.09-15.166m-38.782-8.308c0 1.584-.928 3.168-2.374 3.955-.931.529-1.588.66-3.433.66h-7.126v-9.233h7.126c1.98 0 2.502.13 3.433.66 1.446.787 2.374 2.37 2.374 3.958m6.72 27.037-6.586-17.544c3.43-1.584 5.793-5.538 5.793-9.493 0-3.831-2.364-7.79-5.67-9.366-1.84-.928-3.816-1.193-6.727-1.193h-12.4v37.596h5.937v-16.358h7.126l6.065 16.358h6.463zm-38.516-27.037c0 1.584-.924 3.168-2.37 3.955-.932.529-1.584.66-3.433.66h-7.122v-9.233h7.122c1.98 0 2.501.13 3.433.66 1.446.787 2.37 2.37 2.37 3.958m6.731 27.037-6.6-17.544c3.432-1.584 5.807-5.538 5.807-9.493 0-3.831-2.375-7.79-5.677-9.366-1.838-.928-3.824-1.193-6.73-1.193H109.92v37.596h5.94v-16.358h7.123l6.064 16.358h6.47zm-43.402-16.62h-7.518l3.824-10.55 3.694 10.55zm12.136 16.62-12.926-37.596h-5.941l-12.926 37.596h6.333l3.693-10.552h11.74l3.701 10.552h6.326zm-37.331 0v-37.596h-5.934v24.007l-13.727-24.007h-5.937v37.596h5.937v-25.453l14.383 25.453h5.278z" style="fill:#000;fill-opacity:1;fill-rule:evenodd;stroke:none"/>
</svg>
