<svg xmlns="http://www.w3.org/2000/svg" width="286.03" height="286.01" viewBox="-1 0 286.03 286.01" xml:space="preserve">
    <path d="M2.786 133.725 132.71 3.832c5.114-5.11 13.448-5.11 18.563 0l129.924 129.893c5.11 5.109 5.11 13.447 0 18.56l-129.924 129.89c-5.114 5.113-13.449 5.113-18.563 0L2.786 152.286c-5.044-5.047-5.052-13.511 0-18.56" style="fill:#dd7500;stroke:none;fill-opacity:1"/>
    <path clip-rule="evenodd" d="M5.394 136.272 135.255 6.445c3.686-3.682 9.786-3.674 13.472 0l129.858 129.827c3.687 3.687 3.671 9.773 0 13.469L148.728 279.56c-3.694 3.678-9.778 3.686-13.472 0L5.394 149.74c-3.663-3.695-3.682-9.785 0-13.468" style="fill-rule:evenodd;stroke:none;fill:#000"/>
    <path clip-rule="evenodd" d="M9.049 139.83 138.817 10.096c1.715-1.771 4.637-1.771 6.348 0L274.93 139.83c1.773 1.712 1.773 4.63 0 6.346l-129.765 129.73c-1.711 1.777-4.637 1.78-6.348 0L9.049 146.176c-1.77-1.714-1.77-4.633 0-6.345" style="fill:#dd7500;fill-rule:evenodd;stroke:none;fill-opacity:1"/>
    <path clip-rule="evenodd" d="M209.789 121.754v19.559c0 9.583-2.23 19.037-6.27 27.715-1.347 2.894-2.899 5.702-4.695 8.344-3.313 4.876-6.949 9.57-9.417 14.954-2.483 5.428-3.9 11.335-3.9 17.313v15.07H161.24v-15.07c0-6.575.947-13.154 2.782-19.474 1.665-5.714 4.036-11.34 7.411-16.266 1.669-2.437 3.594-4.701 5.456-6.975 1.664-2.025 3.236-4.07 4.377-6.432 2.933-6.036 3.957-12.755 4.004-19.42l.132-19.32-14.085 4.625c-.45.187-.842.313-1.331.349-1.758.14-3.512-.743-4.466-2.225-.814-1.288-.993-2.948-.516-4.381.252-.747.659-1.137 1.09-1.76l31.313-45.153 31.806 45.276c.803 1.137 1.272 1.534 1.331 2.88.093 1.914-.532 3.507-2.174 4.604-1.035.702-2.273.888-3.491.702-.35-.056-.552-.182-.881-.293l-14.209-4.622M124.825 190.216l14.209-4.594c.621-.225.939-.372 1.583-.372 1.808 0 3.197.59 4.252 2.103.939 1.342 1.095 3.135.501 4.647-.261.667-.594.954-.986 1.505l-31.937 45.274-31.212-45.154c-.303-.438-.997-1.284-1.207-1.936a5.287 5.287 0 0 1-.252-1.474c-.016-2.037 1.312-3.752 3.112-4.563.78-.356 1.544-.473 2.367-.322.38.066.752.09 1.09.29l14.197 4.595-.108-19.3c-.023-4.52-.528-9.042-1.789-13.383-.986-3.41-2.41-6.785-4.575-9.628-1.917-2.527-3.993-4.937-5.94-7.442a43.814 43.814 0 0 1-4.326-6.812c-4.943-9.593-7.423-20.43-7.423-31.19V87.297h24.286v15.164c0 8.329 2.724 16.624 7.364 23.516 1.816 2.696 3.721 5.33 5.541 8.02a62.807 62.807 0 0 1 5.099 9.08c4.008 8.697 6.154 18.155 6.154 27.724v19.415M165.668 55.423c-.108 4.64-.225 9.283-.535 13.915A161.415 161.415 0 0 1 160.5 98.5c-1.983 7.749-4.032 15.615-7.442 22.887a15.528 15.528 0 0 1-1.172 2.062c-1.854 2.729-4.354 4.43-7.598 5.109-3.166.656-6.495-.211-9.118-2.07-1.847-1.307-3.163-3.264-4.02-5.34-2.673-6.485-4.656-13.25-6.363-20.043-2.65-10.511-4.757-21.151-5.572-31.972-.341-4.564-.446-9.135-.559-13.71h47.012" style="fill-rule:evenodd;stroke:none;fill:#000"/>
</svg>
