<svg xmlns="http://www.w3.org/2000/svg" width="26.49" height="39.735" viewBox="0 0 74.761 112.141">
    <path d="M.007 100.492 0 11.656C0 5.236 5.235-.004 11.656 0H63.1c6.424-.004 11.653 5.235 11.653 11.656l.007 88.836c0 6.417-5.235 11.649-11.66 11.649H11.656C5.32 112.134 0 106.828.007 100.492" style="fill:#dd7500;fill-opacity:1;fill-rule:nonzero;stroke:none"/>
    <path d="M3.239 100.45V11.695c.007-4.625 3.838-8.45 8.46-8.46l51.364.003c4.628-.003 8.445 3.835 8.46 8.46l-.008 88.745c-.007 4.628-3.824 8.452-8.452 8.46l-51.365.003c-4.621-.018-8.46-3.835-8.46-8.456" style="fill:#000;fill-opacity:1;fill-rule:evenodd;stroke:none"/>
    <path d="M7.772 100.39V11.751c-.043-2.19 1.799-4.015 3.983-3.983h51.251c2.184-.039 4.018 1.796 3.983 3.983v88.635c.035 2.191-1.8 4.026-3.99 3.983l-51.244.003c-2.191.04-4.019-1.795-3.983-3.983" style="fill:#dd7500;fill-opacity:1;fill-rule:evenodd;stroke:none"/>
    <path d="m39.18 77.357-13.656 20.2-13.688-20.2a1.957 1.957 0 0 1 .518-2.716c.593-.402 1.207-.332 1.944-.141l5.927 1.778v-61.69h10.583v61.69l5.828-1.74c.808-.222 1.408-.32 2.029.103a1.96 1.96 0 0 1 .515 2.716M35.585 34.865l13.663-20.2 13.677 20.2c.607.886.37 2.106-.519 2.713-.592.406-1.206.328-1.943.145l-5.923-1.778V97.3H43.956V35.945l-5.831 1.735c-.805.226-1.404.321-2.025-.102a1.962 1.962 0 0 1-.515-2.713" style="fill:#000;fill-opacity:1;fill-rule:evenodd;stroke:none"/>
</svg>
