<svg xmlns="http://www.w3.org/2000/svg" width="286.661" height="286.665" viewBox="-1 0 286.661 286.665" xml:space="preserve">
    <path d="M3.099 133.387 132.379 4.106c5.472-5.474 14.422-5.474 19.896 0l129.284 129.282c5.47 5.47 5.47 14.423 0 19.889L152.274 282.562c-5.474 5.47-14.424 5.47-19.895 0L3.099 153.275c-5.465-5.465-5.465-14.418 0-19.888z" style="fill:#dd7500;stroke:none;fill-opacity:1"/>
    <path clip-rule="evenodd" d="M6.222 135.44 134.44 7.22c4.339-4.339 11.442-4.339 15.785 0L278.44 135.44c4.343 4.343 4.343 11.438 0 15.777L150.225 279.441c-4.343 4.336-11.446 4.336-15.785 0L6.222 151.218c-4.34-4.34-4.34-11.435 0-15.777" style="fill-rule:evenodd;stroke:none;fill:#000"/>
    <path clip-rule="evenodd" d="M10.224 139.39 138.387 11.23c2.162-2.17 5.724-2.17 7.889 0l128.16 128.161c2.166 2.167 2.166 5.717 0 7.884l-128.161 128.16c-2.165 2.168-5.727 2.168-7.89 0L10.225 147.275c-2.165-2.167-2.165-5.717 0-7.883" style="fill:#dd7500;fill-rule:evenodd;stroke:none;fill-opacity:1"/>
    <path clip-rule="evenodd" d="M141.908 151.202c1.567-2.571 1.857-5.86.427-8.716-.858-1.857-2.575-3.284-4.428-4.001l43.447-22.437c-.436 1.862-.29 4.005.709 5.86 1.576 2.86 4.433 4.572 7.43 4.713l-47.585 24.58zM92.177 176.64c1.72-2.43 2.003-5.714.572-8.574 0-.143-.145-.287-.286-.429l24.007-12.43-2.29-4.578 12.29-6.286c-.426 2.003-.281 4.001.718 6.004 1.43 2.853 4.433 4.424 7.43 4.573l-42.441 21.72zm-23.431 3.147 8.575-4.439c.137.15.137.286.282.432 1.43 2.856 4.288 4.57 7.285 4.714L65.313 190.5l154.764.431-1.571-79.315-21.723 11.147c1.712-2.427 1.998-5.715.572-8.567-1.004-2.006-2.575-3.287-4.43-4.005l10.002-5.288-21.154-41.01-86.167 44.443 19.152 37.148-2.575 1.288-11.432-22.29-18.861 9.714v17.15l-19.434 10-1.431 3.715 7.72 14.725z" style="fill-rule:evenodd;stroke:none;fill:#000"/>
</svg>
