<svg xmlns="http://www.w3.org/2000/svg" width="48.092" height="36.069" viewBox="0 0 135.725 101.794">
    <path d="M11.628 0H124.912v.01c5.846.261 10.56 4.981 10.799 10.827l.014.01V90.59c-.049 5.718-4.388 10.449-9.941 11.126l-.078.078H11.018C5.094 101.642.275 96.901.014 91.002L0 90.992V11.848l.014-.01C0 11.666 0 11.489 0 11.313 0 5.083 5.08.003 11.314.003h.313z" style="fill:#dd7500;fill-opacity:1;fill-rule:nonzero;stroke:none"/>
    <path d="M12.45 2.26h110.836c5.606 0 10.181 4.572 10.181 10.181v76.916c0 5.602-4.575 10.178-10.18 10.178H12.45c-5.609 0-10.184-4.576-10.184-10.178V12.441C2.266 6.831 6.84 2.26 12.45 2.26" style="fill:#000;fill-opacity:1;fill-rule:evenodd;stroke:none"/>
    <path d="M12.546 5.622h110.641c3.825 0 6.947 3.119 6.947 6.943v76.704c0 3.824-3.122 6.94-6.947 6.94H12.546c-3.824 0-6.947-3.116-6.947-6.94V12.565c0-3.824 3.123-6.943 6.947-6.943" style="fill:#dd7500;fill-opacity:1;fill-rule:evenodd;stroke:none"/>
    <path d="M96.51 24.009v-3.013h-11.5v3.013h4.12v19.593h3.253V24.009h4.127zM83.66 43.602l-4.918-11.74 4.519-10.866h-3.411l-2.854 6.82-2.858-6.82h-3.411L75.33 31.86l-4.922 11.74h3.412l3.175-7.693 3.178 7.694h3.486zm-15.31 0v-3.175h-8.256v-7.454h4.689v-3.094h-4.689v-5.712h7.38v-3.171H56.844v22.606h11.504zm-16.345 0V20.996h-3.25v13.56l-6.187-13.56h-3.253v22.606h3.253V28.45l6.978 15.152h2.459zM116.975 74.393c0-3.253-1.905-5.711-6.265-8.251-1.67-.95-2.142-1.588-2.142-2.7 0-1.506 1.186-2.62 2.692-2.62 1.429 0 2.536 1.037 2.621 2.62h3.094c-.085-3.407-2.537-5.87-5.715-5.87-3.253 0-5.786 2.622-5.786 5.87 0 1.987.95 3.73 2.777 5 4.596 3.093 3.326 2.219 3.803 2.698 1.35 1.03 1.827 1.983 1.827 3.253 0 1.824-1.429 3.411-3.171 3.411-2.226 0-3.175-1.986-3.175-3.887h-3.172c0 3.725 2.378 7.073 6.347 7.073 3.485 0 6.265-2.95 6.265-6.597m-15.31 6.188v-3.175h-8.249v-7.458h4.678v-3.094h-4.678v-5.711h7.374V57.97H90.157v22.61h11.507zm-14.602 0v-3.013h-8.248V57.971h-3.253v22.61h11.5zM70.645 57.97h-3.172v22.61h3.172V57.97zm-8.09 22.61V57.97h-3.252l-4.212 12.69-4.202-12.69h-3.253v22.61h3.253V67.884l4.202 12.697 4.212-12.697v12.697h3.252zm-30.62-19.438V57.97H19.318v3.172h8.495c-2.226 3.57-3.419 6.269-4.367 9.92-.794 3.012-1.345 6.741-1.345 9.041v.477h3.168c.16-4.124.635-7.144 1.828-10.633 1.266-3.648 2.854-6.505 4.836-8.805" style="fill:#000;fill-opacity:1;fill-rule:evenodd;stroke:none"/>
</svg>
