<svg xmlns="http://www.w3.org/2000/svg" width="2160" height="1620" viewBox="-1 -0.876 2160 1620" xml:space="preserve">
    <path style="fill:#dd7500;fill-rule:nonzero;stroke:none;fill-opacity:1" d="M2159 1484.124c0 74.563-60.438 135-135 135H134c-74.56 0-135-60.438-135-135v-1350c0-74.56 60.44-135 135-135h1890c74.563 0 135 60.44 135 135v1350z"/>
    <path style="fill:#000;fill-rule:nonzero;stroke:none" d="M134 1585.374c-55.83 0-101.25-45.425-101.25-101.25v-1350c0-55.83 45.42-101.25 101.25-101.25h1890c55.825 0 101.25 45.42 101.25 101.25v1350c0 55.825-45.425 101.25-101.25 101.25H134z"/>
    <path style="fill:#dd7500;fill-rule:nonzero;stroke:none;fill-opacity:1" d="M134 1529.124c-24.813 0-45-20.188-45-45v-1350c0-24.813 20.187-45 45-45h1890c24.813 0 45 20.187 45 45v1350c0 24.813-20.188 45-45 45H134z"/>
    <path style="fill:#000;fill-rule:nonzero;stroke:none" d="M1471.938 435.387c-7.725-22.105-20.963-32.052-40.813-32.052h-37.5v226.58h37.5c26.475 0 40.813-21 45.225-45.317 2.2-19.895 4.412-42 4.412-66.315 0-35.369-3.312-69.633-8.825-82.896zm7.724 224.368c-11.037 9.948-26.475 14.37-44.125 14.37H1348.4v-315h80.525c26.475 0 39.7 3.314 50.737 12.157 18.75 13.262 31.988 37.58 37.5 69.63 4.413 23.212 7.725 50.843 7.725 75.16 0 72.948-14.35 119.368-45.225 143.683zM1587.888 674.124v-315h148.525v44.211h-103.088v79.58h65.4v43.104h-65.4v103.895h115.287v44.21h-160.724zM540.643 674.124V531.547H454.61v142.577h-45.223v-315h45.223v128.211h86.032v-128.21h45.222v315h-45.222zM1143.572 674.124v-315h45.45v273.001H1304.3v42h-160.727zM781.354 437.598c-7.794-27.631-20.04-39.79-38.968-39.79-20.04 0-32.286 12.159-40.078 38.685-7.795 24.315-10.02 45.316-10.02 80.684 0 34.263 3.34 54.158 10.02 79.58 7.792 26.526 20.038 38.683 40.078 38.683 18.928 0 31.174-12.157 38.968-38.683 7.793-25.422 10.02-44.212 10.02-80.685 0-35.368-3.34-55.264-10.02-78.474zm35.626 187.895c-15.586 37.58-38.966 54.157-74.594 54.157-37.853 0-60.12-16.577-75.706-54.157-13.361-30.948-17.814-60.79-17.814-109.421 0-47.527 4.453-79.58 17.814-109.422 16.7-37.578 38.966-53.052 75.706-53.052 36.744 0 59.008 15.474 74.594 54.157 13.361 30.95 17.815 60.79 17.815 108.317 0 48.63-4.454 79.578-17.815 109.42zM1893.713 403.334h-46.325v79.58h46.325c26.475 0 40.812-14.369 40.812-39.79 0-24.316-16.55-39.79-40.812-39.79zm38.6 270.79L1890.4 526.018h-43.012v148.106h-45.225v-315h93.75c49.637 0 82.725 33.158 82.725 84 0 37.579-15.438 65.211-45.213 76.263l45.213 154.737h-46.325zM269.054 528.653c-13.628-8.829-26.861-17.689-35.309-23.635-25.396-17.874-38.848-41.999-38.848-69.631 0-45.317 35.518-81.79 81.025-81.79 44.398 0 78.805 34.263 79.915 81.79H312.55c-1.11-22.105-16.649-36.473-36.627-36.473-21.09 0-37.738 15.473-37.738 36.473 0 15.473 6.66 24.316 29.968 37.58 61.046 35.368 87.685 69.63 87.685 114.947 0 50.843-38.848 91.736-87.685 91.736-55.497 0-88.794-46.42-88.794-98.368h44.397c0 26.526 13.319 54.158 44.397 54.158 24.418 0 44.397-22.105 44.397-47.526 0-19.739-8.158-36.364-43.496-59.261zM1062.141 635.44c-15.444 25.422-45.224 44.21-75.004 44.21-30.884 0-61.77-17.685-77.21-44.21-8.825-16.578-12.135-29.842-12.135-55.262V359.124h45.224v226.579c0 29.842 17.648 49.737 44.122 49.737 24.265 0 41.913-19.895 41.913-49.737V359.124h45.223v221.054c0 25.42-3.31 38.684-12.133 55.262zM304.736 1020.386c-7.721-22.104-20.957-32.05-40.811-32.05h-37.502v226.58h37.502c26.473 0 40.811-21.002 45.222-45.318 2.207-19.895 4.413-42 4.413-66.316 0-35.37-3.309-69.632-8.824-82.895zm7.72 224.37c-11.03 9.943-26.47 14.368-44.119 14.368h-87.136v-315h80.519c26.471 0 39.706 3.315 50.736 12.159 18.753 13.261 31.988 37.577 37.503 69.631 4.412 23.21 7.721 50.841 7.721 75.159 0 72.946-14.339 119.367-45.224 143.684zM1656.688 988.335v79.578h63.187v43.106h-63.188v148.105h-45.45v-315h160.738v44.211h-115.287zM1861.513 988.335v79.578h63.187v43.106h-63.187v148.105h-45.438v-315H1976.8v44.211h-115.287zM776.898 1022.598c-7.794-27.631-20.04-39.79-38.968-39.79-20.04 0-32.286 12.159-40.079 38.686-7.795 24.315-10.02 45.315-10.02 80.681 0 34.267 3.34 54.163 10.02 79.58 7.793 26.527 20.039 38.685 40.079 38.685 18.928 0 31.174-12.158 38.968-38.685 7.793-25.417 10.02-44.21 10.02-80.682 0-35.369-3.34-55.264-10.02-78.475zm35.626 187.896c-15.586 37.578-38.966 54.155-74.594 54.155-37.854 0-60.12-16.577-75.706-54.155-13.362-30.947-17.814-60.791-17.814-109.421 0-47.528 4.452-79.579 17.814-109.423 16.7-37.58 38.966-53.053 75.706-53.053 36.742 0 59.008 15.473 74.594 54.157 13.361 30.95 17.815 60.791 17.815 108.319 0 48.63-4.454 79.577-17.815 109.421zM1494.8 1022.598c-7.787-27.631-20.037-39.79-38.962-39.79-20.038 0-32.288 12.159-40.076 38.686-7.8 24.315-10.025 45.315-10.025 80.681 0 34.267 3.338 54.163 10.025 79.58 7.788 26.527 20.038 38.685 40.075 38.685 18.925 0 31.175-12.158 38.963-38.685 7.8-25.417 10.025-44.21 10.025-80.682 0-35.369-3.338-55.264-10.025-78.475zm35.625 187.896c-15.588 37.578-38.962 54.155-74.588 54.155-37.862 0-60.125-16.577-75.712-54.155-13.363-30.947-17.813-60.791-17.813-109.421 0-47.528 4.45-79.579 17.813-109.423 16.7-37.58 38.975-53.053 75.712-53.053 36.738 0 59 15.473 74.588 54.157 13.363 30.95 17.825 60.791 17.825 108.319 0 48.63-4.463 79.577-17.825 109.421zM984.885 988.335h-46.326v89.527h46.326c26.473 0 40.81-16.58 40.81-45.318 0-26.525-16.544-44.209-40.81-44.209zm2.206 132.633H938.56v138.156h-45.223v-315h93.755c49.635 0 82.723 35.369 82.723 88.42 0 57.476-29.78 88.424-82.723 88.424zM512.229 988.335h-46.327v79.578h46.327c26.472 0 40.81-14.368 40.81-39.788 0-24.316-16.544-39.79-40.81-39.79zm38.605 270.789-41.914-148.105h-43.017v148.105H420.68v-315h93.754c49.636 0 82.725 33.159 82.725 84.001 0 37.579-15.441 65.21-45.221 76.263l45.22 154.736h-46.324zM1137.314 1129.808v-42h157.498v42h-157.498z"/>
</svg>
