<svg xmlns="http://www.w3.org/2000/svg" width="2160" height="1620" viewBox="-1 -0.876 2160 1620" xml:space="preserve">
    <path style="fill:#dd7500;fill-rule:nonzero;stroke:none;fill-opacity:1" d="M2159 1484.124c0 74.563-60.438 135-135 135H134c-74.56 0-135-60.438-135-135v-1350c0-74.56 60.44-135 135-135h1890c74.563 0 135 60.44 135 135v1350z"/>
    <path style="fill:#000;fill-rule:nonzero;stroke:none" d="M2069 1484.124c0 24.813-20.188 45-45 45H134c-24.813 0-45-20.188-45-45v-1350c0-24.813 20.187-45 45-45h1890c24.813 0 45 20.187 45 45v1350zm-45-1451.25H134c-55.83 0-101.25 45.42-101.25 101.25v1350c0 55.825 45.42 101.25 101.25 101.25h1890c55.825 0 101.25-45.425 101.25-101.25v-1350c0-55.83-45.425-101.25-101.25-101.25z"/>
    <path style="fill:#000;fill-rule:evenodd;stroke:none" d="M1266.013 384.88c-22.368-.773-39.607-15.983-51.694-45.636-7.984-23.286-14.789-47.356-41.67-58.015-20.323-4.119-31.644-13.404-23.15-34.036 19.423-42.024 50.545-67.295 98.775-68.069 65.076 5.93 100.326 40.74 105.726 104.424-.525 54.406-29.85 88.184-87.987 101.332zM340.805 1150.294c0-116.88 95.101-212.213 211.705-212.213 35.859 0 69.684 9.03 99.331 24.923l-76.401 116.469a73.69 73.69 0 0 0-22.93-3.645c-40.919 0-74.287 33.455-74.287 74.466 0 41.013 33.368 74.465 74.287 74.465 40.913 0 74.286-33.453 74.286-74.465 0-19.688-7.693-37.635-20.217-50.972l74.954-117.06c50.225 38.865 82.68 99.765 82.68 168.032 0 116.88-95.1 212.218-211.703 212.218-116.604 0-211.705-95.338-211.705-212.218zm529.339-442.838c23.268-33.532 46.542-67.065 69.813-100.596 8.113-6.824 15.944-11.13 21.818 2.186 16.242 18.538 31.79 23.835 45.81 0 7.246-17.442 25.186-18.016 47.999-10.933 58.904 16.767 117.807 33.531 176.71 50.298 5.821.33 11.639-.176 17.456-6.56 17.45-11.665 34.9-23.326 52.35-34.99 29.825 45.923 59.638 91.848 89.45 137.77-2.175-8.168-202.889 34.127-202.889 39.365-17.568 4.285-30.553 2.44-41.45-2.185-37.091-20.417-74.175-40.825-111.261-61.237-57.631-33.979-112.624-34.87-165.806-13.117zm45.037 164.358 153.308 2.681c5.945-1.49 11.886.593 17.831 6.253 6.831 10.72 13.666 21.447 20.499 32.167 2.676 6.253.592 10.125-6.238 11.617-24.661-.598-49.321-1.194-73.982-1.788-31.491.294-45.16 12.508-41.003 36.631 3.567 36.932 7.129 73.863 10.695 110.792-1.183 8.637-5.94 8.935-14.262.893a2081547.02 2081547.02 0 0 0-78.44-180.486c-1.206-7.521-7.479-16.319 11.592-18.76zm270.076 215.33 4.46-41.995 27.632 44.679-32.091-2.684zm256.33-146.683 18.088 28.727c-65.85 53.512-102.612 137.729-97.075 222.402-5.787.889-11.588 1.775-17.387 2.662-1.938-107.96 26.362-195.174 96.374-253.79zm62.113 91.665 51.15 76.644c-13.688 15.454-22.512 35.329-24.025 57.165-30.938 4.718-61.875 9.442-92.738 14.075-2.312-54.772 23.775-112.763 65.613-147.883zm-56.838 198.84c31.025-4.737 62.663-9.593 94.313-14.447 15.962 31.119 48.337 52.48 85.537 52.48 52.95 0 96.138-43.281 96.138-96.353 0-53.078-43.188-96.363-96.138-96.363a95.33 95.33 0 0 0-31.2 5.226l-51.862-75.388c24.737-11.718 54.05-19.062 81.887-19.062 103.275 0 187.513 84.435 187.513 187.966 0 103.524-84.25 188.086-187.513 187.961-83.2-.1-155.475-58.3-178.675-132.02zM269 1150.775c0 155.735 126.707 282.748 282.065 282.748 155.357 0 282.069-127.013 282.069-282.748 0-91.596-43.848-173.24-111.561-224.967 14.458-20.223 4.795-4.426 49.33-69.554 63.998 51.063 97.672 114.065 102.246 194.075 1.581 27.641 26.161 52.044 28.276 39.253 12.729-76.717-11.37-156.267-104.416-239.868.727-34.162 13.055-45.066 36.984-32.71a20056161.11 20056161.11 0 0 1 178.38 407.773c5.078 12.356 15.956 18.9 32.632 19.627 100.067.725 200.134 1.453 300.207 2.18 8.426-1.291 16.838-2.586 25.363-3.831 29.837 112.608 132.938 196.22 254.963 196.37 145.1.187 263.462-118.638 263.462-264.099 0-145.461-118.35-264.104-263.462-264.104-43.238 0-86.463 11.345-125.05 31.077l-20.163-28.548a295.737 295.737 0 0 1 12.813-7.039c111.675-55.246 217.537-58.153 317.612-8.722 10.875-5.819 21.75-11.631 32.625-17.445-47.862-34.165-107.325-56.699-178.375-67.603a23141.172 23141.172 0 0 1-4.35-41.427c-3.763-13.811-11.738-18.896-23.938-15.264-29.737 7.265-59.462 14.536-89.187 21.801-5.013-159.386-35.45-307.318-156.625-414.313-12.25-8.453-21.675-8.453-28.288 0-23.2 15.988-46.412 31.982-69.612 47.971-20.737 15.996-26.65 31.985-30.462 47.974-15.22 34.167-30.447 68.33-45.677 102.492-77.589-11.632-155.177-17.441-232.767-17.446-38.489 2.139-56.595 19.602-71.787 39.252l-156.63 226.78c-81.937-55.968-185.64-77.113-298.028-28.342-21.181 9.188-3.344 35.763 23.93 26.163 88.504-31.148 171.132-30.53 256.699 23.987-45.517 68.154-31.668 47.693-48.23 72.626-41.06-23.447-88.505-36.862-138.983-36.862C395.707 868.033 269 995.049 269 1150.776z"/>
</svg>
