<svg xmlns="http://www.w3.org/2000/svg" width="74.43" height="74.431" viewBox="0 0 210.058 210.062">
    <path d="m206.65 96.806-93.38-93.37A11.698 11.698 0 0 0 105.036 0c-3.066 0-6.057 1.263-8.24 3.436L3.41 96.806A11.676 11.676 0 0 0 0 105.046c.021 3.066 1.249 6.065 3.411 8.234l93.384 93.367c2.163 2.162 5.193 3.411 8.248 3.415a11.773 11.773 0 0 0 8.234-3.415l93.373-93.363c2.798-2.798 3.99-7.01 3.136-10.862-.5-2.219-1.728-3.866-3.136-5.616" style="fill:#dd7500;fill-opacity:1;fill-rule:nonzero;stroke:none"/>
    <path d="m204.343 110.973-93.37 93.367a8.444 8.444 0 0 1-5.93 2.455 8.436 8.436 0 0 1-5.926-2.455L5.708 110.97c-1.552-1.552-2.434-3.73-2.434-5.927.007-2.198.889-4.378 2.437-5.93L99.11 5.718a8.513 8.513 0 0 1 5.927-2.43c2.198 0 4.382.885 5.937 2.43l93.37 93.398a8.418 8.418 0 0 1 2.452 5.927 8.42 8.42 0 0 1-2.452 5.93" style="fill:#000;fill-opacity:1;fill-rule:evenodd;stroke:none"/>
    <path d="M201.126 107.749a3.878 3.878 0 0 0 1.122-2.706c0-.98-.413-2.021-1.122-2.72L107.742 8.946a3.897 3.897 0 0 0-2.699-1.11c-.988 0-2.021.412-2.723 1.11L8.932 102.323c-.705.71-1.097 1.718-1.097 2.717.007.998.392 1.993 1.104 2.705l93.38 93.391c.703.699 1.743 1.112 2.724 1.112.991 0 2.004-.413 2.706-1.112l93.377-93.387z" style="fill:#dd7500;fill-opacity:1;fill-rule:evenodd;stroke:none"/>
    <path d="M159.73 99.893V74.016h-4.091V84.46h-9.44V74.016h-4.086v25.877h4.085V88.635h9.44v11.258h4.093zm-23.681-7.716v-5.175h-8.806v4.085h4.72v1.09c0 2.364-1.908 3.997-4.54 3.997-1.552 0-2.723-.631-3.549-2.088-.814-1.637-1.27-4.36-1.27-7.084 0-2.18.367-4.54.999-6.082.91-2.275 2.268-3.182 4.364-3.182 1.996 0 3.086.819 4.173 3.09l3.909-1.545c-1.729-4.088-4.085-5.722-8.082-5.722-2.907 0-5.094.999-6.629 2.907-1.729 2.265-2.907 6.357-2.907 10.534 0 3.179.632 6.354 1.722 8.629 1.548 3.263 3.817 4.73 7.715 4.73 4.727 0 8.18-3.464 8.18-8.184m-23.593-1.545V74.016h-4.085v16.616c0 3.362-1.909 5.542-4.72 5.542-2.819 0-4.72-2.18-4.72-5.542V74.016h-4.093v16.616c0 2 .455 3.814 1.186 5.359 1.358 2.54 4.445 4.37 7.627 4.37 3.171 0 6.265-1.83 7.62-4.37a12.509 12.509 0 0 0 1.185-5.359m-27.767-3.63c0 2-.455 4.54-.998 5.902-.91 2.272-2.089 3.27-3.997 3.27-1.634 0-2.72-.631-3.542-2-.999-1.633-1.542-4.449-1.542-7.172 0-2.18.363-4.54.998-6.082.91-2.275 2.177-3.274 4.177-3.182 1.542.095 2.54.639 3.362 1.997.999 1.728 1.542 4.36 1.542 7.267m4.085 0c0-3.274-.631-6.537-1.729-8.809-1.633-3.178-3.898-4.632-7.164-4.632-3 0-5.091.907-6.636 2.907-1.722 2.452-2.812 6.262-2.812 10.534 0 3.087.73 6.54 1.813 8.717 1.542 3.175 3.817 4.643 7.448 4.643 2.73 0 4.811-.921 6.265-2.921 1.817-2.265 2.815-6.354 2.815-10.439M61.641 81.28c0 1.094-.635 2.18-1.633 2.727-.635.36-1.087.452-2.364.452h-4.897V78.1h4.897c1.365 0 1.729.092 2.364.456.998.543 1.633 1.636 1.633 2.723m4.632 18.613-4.544-12.076c2.364-1.09 3.997-3.81 3.997-6.537 0-2.635-1.633-5.355-3.898-6.445-1.277-.639-2.639-.819-4.64-.819h-8.53v25.877h4.09V88.635h4.896l4.184 11.258h4.445zM145.13 134.38c0 3.45-.826 6.269-2.364 7.814-.73.723-1.542.999-2.907.999h-4.085v-17.618h4.628c1.09 0 2 .455 2.632 1.086 1.27 1.366 2.095 4.265 2.095 7.72m4.17 0c0-5.08-1.545-9.173-4.265-11.53-1.358-1.086-2.356-1.361-4.995-1.361h-8.35v25.88H141.036c1.365-.092 2.72-.547 3.722-1.458 2.907-2.264 4.54-6.35 4.54-11.532m-30.677 1.542h-5.172l2.639-7.26 2.533 7.26zm8.353 11.447-8.897-25.88h-4.085l-8.897 25.88h4.357l2.54-7.263h8.082l2.544 7.263h4.356zm-30.13-12.894c0 2-.455 4.54-1.002 5.899-.907 2.275-2.078 3.274-3.99 3.274-1.637 0-2.727-.635-3.539-2-1.001-1.63-1.545-4.45-1.545-7.173 0-2.183.36-4.54.999-6.082.903-2.275 2.173-3.273 4.17-3.185 1.548.099 2.55.642 3.361 2 .999 1.729 1.546 4.36 1.546 7.267m4.085 0c0-3.273-.635-6.537-1.725-8.812-1.63-3.175-3.906-4.628-7.172-4.628-2.995 0-5.084.906-6.629 2.906-1.729 2.452-2.815 6.262-2.815 10.534 0 3.087.73 6.54 1.817 8.718 1.545 3.175 3.81 4.642 7.447 4.642 2.723 0 4.812-.92 6.265-2.92 1.813-2.266 2.812-6.354 2.812-10.44m-27.492-5.718c0 1.09-.642 2.17-1.64 2.723-.636.364-1.09.448-2.357.448h-4.907v-6.353h4.907c1.358 0 1.721.088 2.356.455.999.543 1.64 1.633 1.64 2.727m4.622 18.612-4.54-12.079c2.364-1.09 3.997-3.81 3.997-6.533 0-2.639-1.633-5.359-3.905-6.449-1.27-.642-2.629-.818-4.625-.818h-8.537v25.88h4.085v-11.261h4.907l4.17 11.26h4.448z" style="fill:#000;fill-opacity:1;fill-rule:evenodd;stroke:none"/>
</svg>
