<svg xmlns="http://www.w3.org/2000/svg" width="90.002" height="89.999" viewBox="0 -0.321 90.002 89.999" xml:space="preserve">
    <path d="M88.792 41.759a4.128 4.128 0 0 1 0 5.84L47.919 88.47a4.129 4.129 0 0 1-5.837 0L1.21 47.599a4.128 4.128 0 0 1 0-5.84L42.082.887a4.13 4.13 0 0 1 5.837 0L88.792 41.76z" style="fill:#dd7500;fill-opacity:1;fill-rule:nonzero;stroke:none"/>
    <path d="m86.845 45.652-40.87 40.872a1.38 1.38 0 0 1-1.947 0L3.157 45.652a1.38 1.38 0 0 1 0-1.948l40.87-40.872a1.38 1.38 0 0 1 1.947 0l40.871 40.872a1.38 1.38 0 0 1 0 1.948m1.135-3.083L47.11 1.697a2.985 2.985 0 0 0-4.217 0L2.022 42.57a2.988 2.988 0 0 0 0 4.218l40.87 40.873a2.987 2.987 0 0 0 4.217 0L87.98 46.787a2.988 2.988 0 0 0 0-4.218" style="fill:#000;fill-opacity:1;fill-rule:nonzero;stroke:none"/>
    <path d="M34.433 23.926c0-.91-.379-1.389-1.135-1.432h-1.949v2.866h1.949c.756-.044 1.135-.52 1.135-1.434m1.541 8.035h-1.597l-1.453-5.059H31.35v5.06h-1.542V20.95h3.413c.588.051.918.086.99.1.51.117.904.36 1.193.727.38.492.571 1.207.571 2.147 0 1.357-.511 2.253-1.534 2.686l1.534 5.351zM42.585 26.456c0-.94-.097-1.759-.288-2.456-.285-1.081-.76-1.621-1.42-1.621-.663 0-1.137.54-1.422 1.62-.19.698-.286 1.517-.286 2.457s.095 1.76.286 2.458c.285 1.08.76 1.618 1.422 1.618.66 0 1.135-.538 1.42-1.618.19-.698.288-1.518.288-2.458m1.54 0c0 1.353-.153 2.473-.46 3.361-.53 1.507-1.458 2.26-2.788 2.26-1.33 0-2.26-.753-2.787-2.26-.31-.888-.463-2.008-.463-3.36 0-3.746 1.083-5.62 3.25-5.62 2.165 0 3.248 1.874 3.248 5.62M49.824 27.45l-.86-3.583-.869 3.583h1.73zm2.664 4.511h-1.575l-.715-2.969h-2.476l-.715 2.97h-1.565l2.663-11.012h1.72l2.663 11.011zM58.654 26.464c0-2.648-.625-3.97-1.872-3.97H55.57v7.938h1.212c1.247 0 1.872-1.322 1.872-3.968m1.541-.005c0 2.2-.432 3.76-1.298 4.677-.53.559-1.153.838-1.874.838h-2.995V20.95h2.874c.72 0 1.337.237 1.85.706.962.881 1.443 2.48 1.443 4.803M40.813 48.475h-1.541V42.31l-2.09 6.165-2.09-6.165v6.165H33.55V37.466h1.541l2.09 6.165 2.092-6.165h1.54v11.009zM46.74 43.965l-.857-3.581-.871 3.58h1.728zm2.667 4.51h-1.575l-.715-2.969h-2.48l-.714 2.969h-1.565l2.666-11.009h1.716l2.667 11.009zM57.112 37.466 54.36 43.4v5.076h-1.54v-5.076l-2.755-5.933h1.663l1.86 3.985 1.851-3.985h1.673zM31.9 55.524h-4.073v2.866h2.42v1.542h-2.42v5.06h-1.543V53.98H31.9v1.544zM39.054 64.991H33.44V53.98h1.544v9.467h4.071v1.544zM45.337 59.485c0-.939-.095-1.76-.287-2.458-.287-1.08-.76-1.618-1.422-1.618-.66 0-1.134.538-1.421 1.618-.19.698-.287 1.52-.287 2.458 0 .94.097 1.761.287 2.459.287 1.08.76 1.618 1.42 1.618.662 0 1.136-.538 1.423-1.618.192-.698.287-1.519.287-2.46m1.542 0c0 1.355-.156 2.475-.464 3.363-.53 1.504-1.457 2.26-2.787 2.26-1.329 0-2.256-.756-2.786-2.26-.308-.888-.462-2.008-.462-3.362 0-3.745 1.082-5.62 3.248-5.62 2.167 0 3.251 1.875 3.251 5.62M53.813 59.485c0-.939-.095-1.76-.285-2.458-.286-1.08-.76-1.618-1.421-1.618-.662 0-1.135.538-1.422 1.618-.19.698-.287 1.52-.287 2.458 0 .94.097 1.761.287 2.459.287 1.08.76 1.618 1.422 1.618.66 0 1.135-.538 1.42-1.618.19-.698.286-1.519.286-2.46m1.544 0c0 1.355-.155 2.475-.465 3.363-.527 1.504-1.458 2.26-2.785 2.26-1.332 0-2.26-.756-2.79-2.26-.307-.888-.46-2.008-.46-3.362 0-3.745 1.083-5.62 3.25-5.62 2.165 0 3.25 1.875 3.25 5.62M62.178 59.492c0-2.646-.625-3.968-1.874-3.968h-1.212v7.938h1.212c1.249 0 1.874-1.322 1.874-3.97m1.54-.007c0 2.205-.433 3.762-1.299 4.681-.53.559-1.152.838-1.872.838H57.55V53.98h2.874c.72 0 1.339.235 1.851.706.962.881 1.443 2.48 1.443 4.799" style="fill:#000;fill-opacity:1;fill-rule:nonzero;stroke:none"/>
</svg>
