<svg xmlns="http://www.w3.org/2000/svg" width="74.43" height="74.431" viewBox="0 0 210.058 210.062">
    <path d="m206.65 96.806-93.38-93.37A11.698 11.698 0 0 0 105.036 0c-3.066 0-6.057 1.263-8.24 3.436L3.41 96.806A11.676 11.676 0 0 0 0 105.046c.021 3.066 1.249 6.065 3.411 8.234l93.384 93.367c2.163 2.162 5.193 3.411 8.248 3.415a11.773 11.773 0 0 0 8.234-3.415l93.373-93.363c2.798-2.798 3.99-7.01 3.136-10.862-.5-2.219-1.728-3.866-3.136-5.616" style="fill:#dd7500;fill-opacity:1;fill-rule:nonzero;stroke:none"/>
    <path d="m204.343 110.973-93.37 93.367a8.444 8.444 0 0 1-5.93 2.455 8.436 8.436 0 0 1-5.926-2.455L5.708 110.97c-1.552-1.552-2.434-3.73-2.434-5.927.007-2.198.889-4.378 2.437-5.93L99.11 5.718a8.513 8.513 0 0 1 5.927-2.43c2.198 0 4.382.885 5.937 2.43l93.37 93.398a8.418 8.418 0 0 1 2.452 5.927 8.42 8.42 0 0 1-2.452 5.93" style="fill:#000;fill-opacity:1;fill-rule:evenodd;stroke:none"/>
    <path d="M201.126 107.749a3.878 3.878 0 0 0 1.122-2.706c0-.98-.413-2.021-1.122-2.72L107.742 8.946a3.897 3.897 0 0 0-2.699-1.11c-.988 0-2.021.412-2.723 1.11L8.932 102.323c-.705.71-1.097 1.718-1.097 2.717.007.998.392 1.993 1.104 2.705l93.38 93.391c.703.699 1.743 1.112 2.724 1.112.991 0 2.004-.413 2.706-1.112l93.377-93.387z" style="fill:#dd7500;fill-opacity:1;fill-rule:evenodd;stroke:none"/>
    <path d="M153.327 89.64v-4.173h-11.984v-7.083h7.532v-4.177h-7.532v-6.36h11.172V63.76h-15.257v25.88h16.069zm-19.093-7.44c0-10.173-12.167-6.995-12.534-11.81-.18-2.36 2.096-3.087 3.997-2.992 2.907.092 3.817 2.269 3.817 2.269l3.63-1.087c-1.273-3.182-3.725-5.27-7.351-5.27-4.629 0-8.083 1.904-8.083 6.992 0 4.268 3.454 5.813 4.989 6.448 3.365 1.362 7.359 1.909 7.359 5.355 0 2.184-1.64 3.818-3.994 3.818-2.455 0-4.452-1.366-5.542-3.818l-3.898 1.454c1.721 3.905 4.988 6.555 9.44 6.555 2.177 0 4.174-.741 5.627-2.015 1.633-1.45 2.544-3.542 2.544-5.898m-24.268-5.45c0 1.996-.455 4.54-.998 5.901-.91 2.269-2.089 3.27-3.997 3.27-1.634 0-2.72-.634-3.542-2-.999-1.633-1.542-4.452-1.542-7.172 0-2.18.363-4.54.998-6.085.91-2.268 2.177-3.267 4.174-3.175 1.545.088 2.543.635 3.365 1.997.999 1.725 1.542 4.356 1.542 7.263m4.085 0c0-3.27-.635-6.54-1.721-8.809-1.64-3.182-3.906-4.632-7.18-4.632-2.991 0-5.08.907-6.621 2.907-1.729 2.452-2.819 6.266-2.819 10.534 0 3.087.723 6.537 1.82 8.717 1.542 3.179 3.81 4.647 7.44 4.647 2.72 0 4.816-.925 6.27-2.921 1.813-2.272 2.811-6.358 2.811-10.443m-26.264 0c0 1.997-.455 4.54-.999 5.902-.91 2.269-2.088 3.27-3.997 3.27-1.633 0-2.723-.634-3.541-2-.999-1.633-1.546-4.452-1.546-7.172 0-2.18.367-4.54 1.002-6.085.907-2.268 2.177-3.267 4.174-3.175 1.545.088 2.543.635 3.355 1.997 1.001 1.725 1.552 4.356 1.552 7.263m4.085 0c0-3.27-.642-6.54-1.729-8.809-1.633-3.182-3.908-4.632-7.172-4.632-2.998 0-5.087.907-6.628 2.907-1.725 2.452-2.819 6.266-2.819 10.534 0 3.087.73 6.537 1.827 8.717 1.535 3.179 3.81 4.647 7.44 4.647 2.72 0 4.809-.925 6.262-2.921 1.82-2.272 2.819-6.358 2.819-10.443M71.507 89.64v-3.81H59.523V63.762h-4.085v25.88h16.07zM164.978 133.34v-3.81h-11.987v-22.07h-4.082v25.88h16.069zm-19.36 0v-4.177h-11.984v-7.08h7.539v-4.178h-7.54v-6.36h11.17v-4.085h-15.254v25.88h16.069zm-18.902-25.88h-4.36l-5.444 17.254-5.539-17.254h-4.265l8.17 25.88h3.176l8.262-25.88zm-28.614 14.435H92.92l2.638-7.263 2.544 7.263zm8.35 11.444-8.893-25.88H93.47l-8.9 25.88h4.353l2.55-7.263h8.082l2.537 7.263h4.36zM78.925 114.73c0 1.087-.639 2.177-1.637 2.72-.635.36-1.09.455-2.357.455h-4.907v-6.36h4.907c1.355 0 1.722.092 2.357.455.998.543 1.637 1.633 1.637 2.73m4.625 18.61-4.533-12.08c2.363-1.086 3.997-3.81 3.997-6.53 0-2.638-1.634-5.362-3.91-6.452-1.273-.638-2.63-.818-4.628-.818H65.94v25.88h4.085v-11.258h4.907l4.174 11.257h4.445zm-22.257-7.72v-5.171h-8.812v4.085h4.727v1.087c0 2.363-1.909 3.997-4.54 3.997-1.542 0-2.727-.632-3.542-2.089-.819-1.637-1.274-4.36-1.274-7.08 0-2.18.364-4.54.999-6.085.91-2.272 2.275-3.183 4.36-3.183 2 0 3.087.819 4.177 3.094l3.905-1.545c-1.729-4.092-4.085-5.725-8.082-5.725-2.907 0-5.084.998-6.629 2.906-1.728 2.269-2.907 6.361-2.907 10.538 0 3.175.635 6.35 1.725 8.625 1.542 3.267 3.817 4.742 7.723 4.742 4.72 0 8.17-3.475 8.17-8.195" style="fill:#000;fill-opacity:1;fill-rule:evenodd;stroke:none"/>
</svg>
