<svg xmlns="http://www.w3.org/2000/svg" width="3678.575" height="3678.575" viewBox="0 0 10381.759 10381.757">
    <path style="fill:#dd7500;fill-opacity:1;fill-rule:nonzero;stroke:none" d="M5527.641 10242.27c-185.984 185.984-487.539 185.984-673.523 0L139.49 5527.64c-185.987-185.984-185.987-487.539 0-673.523L4854.118 139.489c185.984-185.987 487.539-185.987 673.523 0l4714.63 4714.628c185.984 185.984 185.984 487.539 0 673.523l-4714.63 4714.63z"/>
    <path style="fill:#000;fill-rule:nonzero;stroke:none" d="M229.294 5437.848c-136.171-136.208-136.171-357.752 0-493.924l4714.63-4714.632c136.173-136.17 357.718-136.17 493.89 0l4714.665 4714.632c136.172 136.172 136.172 357.716 0 493.924l-4714.665 4714.629c-136.172 136.172-357.717 136.172-493.89 0l-4714.63-4714.63z"/>
    <path style="fill:#dd7500;fill-opacity:1;fill-rule:nonzero;stroke:none" d="M363.998 5303.151c-61.895-61.877-61.895-162.595 0-224.507L5078.645 363.998c61.912-61.897 162.63-61.897 224.508 0l4714.629 4714.646c61.913 61.912 61.913 162.63 0 224.507l-4714.63 4714.63c-61.877 61.912-162.595 61.912-224.507 0L363.998 5303.151z"/>
    <path style="fill:#000;fill-rule:nonzero;stroke:none" d="m3068.372 5633.156-89.355 365.408H3162.2l-93.828-365.408zm227.852 891.223-89.351-347.557h-272.528l-84.886 347.557h-183.176l317.204-1270H3162.2l317.2 1270h-183.176zM6353.422 6524.38V5254.378h598.84v178.258h-415.607v320.852h263.666v173.778h-263.666v418.889h464.785v178.223h-648.018zM4470.33 6524.38V5254.378h598.84v178.258h-415.608v320.852h263.666v173.778h-263.666v418.889h464.785v178.223h-648.018zM5946.952 6524.38v-712.965l-236.468 712.964-236.502-712.964v712.964h-182.915v-1270h182.915l236.502 713 236.467-713h182.951v1270h-182.95zM7747.812 6524.38l-391.337-851.113v851.112H7174.16v-1270h182.315l346.887 762v-762h182.316v1270h-137.866zM2201.943 5432.637h-186.775v360.927h186.775c106.729 0 164.539-66.816 164.539-182.668 0-106.962-66.704-178.259-164.54-178.259zm8.893 534.741h-195.668v557.001h-182.326v-1270h377.994c200.117 0 333.52 142.593 333.52 356.517 0 231.705-120.065 356.482-333.52 356.482zM8443.525 5423.712V6524.38h-183.233V5423.712h-232.374V5254.38h648.017v169.333h-232.41zM4001.346 6524.38H3862.6L3540.37 5254.378h183.48l210.362 824.406 210.361-824.406h183.515l-326.743 1270zM7999.872 3656.86c-31.115-89.112-84.49-129.223-164.536-129.223h-151.2v913.518h151.2c106.715 0 164.536-84.666 182.316-182.703 8.89-80.222 17.78-169.334 17.78-267.37 0-142.593-13.335-280.741-35.56-334.222zm31.115 904.593c-44.45 40.11-106.716 57.926-177.87 57.926H7501.82v-1269.99h324.626c106.715 0 160.09 13.367 204.54 49.015 75.601 53.474 128.976 151.493 151.201 280.751 17.816 93.557 31.15 204.964 31.15 303.001 0 294.111-57.82 481.26-182.35 579.297zM6681.082 4619.379v-1269.99h598.84v178.248h-415.607v320.852h263.666v173.778h-263.666v418.889H7329.1v178.223h-648.018zM2844.168 4463.416c-49.22 111.407-152.15 178.258-281.92 178.258-152.149 0-264.022-75.777-326.672-218.37-40.276-93.556-67.126-271.815-67.126-436.703 0-178.223 13.427-307.446 58.176-427.779 44.747-133.685 174.523-231.718 322.196-231.718 183.47 0 322.196 133.685 331.142 320.83h-183.473c-4.473-84.667-62.639-142.586-152.15-142.586-62.646 0-111.865 31.179-143.192 93.585-35.8 62.371-58.176 204.964-58.176 356.482 0 106.963 8.953 218.37 26.85 316.407 26.846 124.742 89.496 191.594 187.949 191.594 93.973 0 138.72-62.372 138.72-196.074v-84.667h-143.19V4004.45h326.662v262.89c0 89.148-8.946 142.593-35.796 196.075zM4481.23 3665.785c-31.397-111.408-80.786-160.437-157.092-160.437-80.786 0-130.175 49.03-161.608 155.956-31.397 98.037-40.393 182.704-40.393 325.297 0 138.148 13.476 218.37 40.393 320.851 31.433 106.963 80.822 155.963 161.608 155.963 76.306 0 125.695-49 157.092-155.963 31.432-102.482 40.428-178.258 40.428-325.296 0-142.593-13.476-222.815-40.428-316.371zm143.651 757.52c-62.83 151.518-157.092 218.37-300.743 218.37-152.612 0-242.394-66.852-305.223-218.37-53.87-124.743-71.826-245.075-71.826-441.15 0-191.628 17.956-320.85 71.826-441.148 67.31-151.521 157.092-213.903 305.223-213.903s237.913 62.382 300.743 218.348c53.87 124.778 71.826 245.075 71.826 436.704 0 196.074-17.957 320.851-71.826 441.149zM5413.728 3665.785c-31.397-111.408-80.786-160.437-157.092-160.437-80.786 0-130.175 49.03-161.608 155.956-31.397 98.037-40.393 182.704-40.393 325.297 0 138.148 13.476 218.37 40.393 320.851 31.433 106.963 80.822 155.963 161.608 155.963 76.306 0 125.695-49 157.092-155.963 31.432-102.482 40.393-178.258 40.393-325.296 0-142.593-13.441-222.815-40.393-316.371zm143.65 757.52c-62.864 151.518-157.091 218.37-300.742 218.37-152.612 0-242.394-66.852-305.224-218.37-53.869-124.743-71.825-245.075-71.825-441.15 0-191.628 17.956-320.85 71.825-441.148 67.31-151.521 157.092-213.903 305.224-213.903 148.131 0 237.878 62.382 300.743 218.348 53.869 124.778 71.825 245.075 71.825 436.704 0 196.074-17.956 320.851-71.825 441.149zM3452.272 3527.637h-186.778v320.851h186.778c106.726 0 164.546-57.961 164.546-160.443 0-98.037-66.71-160.408-164.546-160.408zm155.656 1091.742-169.005-597.112h-173.43v597.112h-182.322V3349.385h377.988c200.11 0 333.53 133.686 333.53 338.66 0 151.518-62.265 262.925-182.316 307.481l182.316 623.853h-186.76zM6212.1 4619.379h-138.748l-322.228-1269.99h183.48l210.362 824.396 210.361-824.396h183.515L6212.1 4619.379z"/>
</svg>
