<svg xmlns="http://www.w3.org/2000/svg" width="285.594" height="285.601" xml:space="preserve">
    <path d="M280.965 131.614 154.005 4.671C151.061 1.716 146.987 0 142.807 0c-4.167 0-8.244 1.716-11.215 4.671L4.637 131.614C1.683 134.577-.012 138.623 0 142.821c.025 4.17 1.696 8.25 4.637 11.194L131.6 280.96c2.934 2.936 7.06 4.631 11.215 4.641 4.147-.01 8.267-1.705 11.19-4.641l126.96-126.94c3.804-3.805 5.421-9.532 4.261-14.769-.677-3.016-2.348-5.255-4.26-7.637" style="fill:#dd7500;stroke:none;fill-opacity:1"/>
    <path clip-rule="evenodd" d="m277.825 150.878-126.95 126.94a11.454 11.454 0 0 1-8.06 3.339c-3.009 0-5.925-1.21-8.058-3.339L7.753 150.873c-2.106-2.109-3.303-5.068-3.303-8.058 0-2.984 1.202-5.951 3.31-8.06L134.752 7.776c2.118-2.102 5.072-3.307 8.055-3.307 2.991 0 5.954 1.205 8.067 3.307l126.961 126.979a11.48 11.48 0 0 1 3.332 8.06 11.43 11.43 0 0 1-3.342 8.063" style="fill:#000;fill-rule:evenodd;stroke:none"/>
    <path clip-rule="evenodd" d="M273.451 146.492c.963-.953 1.523-2.329 1.523-3.677 0-1.33-.56-2.75-1.523-3.697L146.491 12.161c-.954-.949-2.338-1.509-3.677-1.509-1.336 0-2.75.56-3.703 1.509L12.138 139.118c-.96.966-1.486 2.338-1.486 3.69.005 1.36.531 2.711 1.492 3.679l126.967 126.975c.961.955 2.367 1.51 3.703 1.51 1.347 0 2.728-.555 3.676-1.51l126.961-126.97" style="fill:#dd7500;fill-rule:evenodd;stroke:none;fill-opacity:1"/>
    <path clip-rule="evenodd" d="M240.135 129.404c0 2.471-1.44 5.147-3.494 6.173-1.65.829-2.674 1.035-5.554 1.035H218.94V122.21h12.148c2.88 0 3.902.204 5.554 1.025 2.054 1.233 3.494 3.704 3.494 6.169m9.46 0c0-5.963-3.896-12.143-9.042-14.608-2.89-1.438-5.967-1.849-10.709-1.849H209.68v58.645h9.26v-25.521h10.904c4.531 0 8.025-.821 10.71-2.051 5.145-2.269 9.041-8.444 9.041-14.616zm-54.599 42.187v-58.645h-9.249l-13.593 32.913-13.574-32.913h-9.264v58.645h9.264v-33.955l13.574 33.955 13.593-33.955v33.955h9.25zm-60.153-20.993v-37.652h-9.283v37.652c0 7.616-4.322 12.552-10.702 12.552-6.376 0-10.694-4.936-10.694-12.552v-37.652h-9.259v37.652c0 4.528 1.022 8.633 2.671 12.144 3.091 5.762 10.084 9.912 17.282 9.912 7.205 0 14.206-4.15 17.29-9.912a28.383 28.383 0 0 0 2.695-12.144zm-59.774 4.735c0 4.522-2.47 6.784-7.197 6.784h-14v-16.046h11.733c2.054 0 2.681 0 3.914.407 3.286 1.239 5.55 4.946 5.55 8.855zm-1.232-27.163c0 2.677-1.238 5.143-3.297 6.792-1.637 1.236-2.88 1.649-5.55 1.649H53.871v-14.402h13.581c4.12 0 6.384 2.052 6.384 5.961zm10.701 26.956c0-6.377-3.497-11.313-9.674-14.203 5.561-3.08 8.23-7.399 8.23-13.164 0-8.434-6.999-14.813-16.258-14.813h-22.22v58.645h22.221c2.683 0 6.18-.619 8.232-1.445 5.555-2.267 9.47-8.644 9.47-15.02z" style="fill:#000;fill-rule:evenodd;stroke:none"/>
</svg>
