<svg xmlns="http://www.w3.org/2000/svg" width="74.43" height="74.431" viewBox="0 0 210.058 210.062">
    <path d="m206.65 96.806-93.38-93.37A11.698 11.698 0 0 0 105.036 0c-3.066 0-6.057 1.263-8.24 3.436L3.41 96.806A11.676 11.676 0 0 0 0 105.046c.021 3.066 1.249 6.065 3.411 8.234l93.384 93.367c2.163 2.162 5.193 3.411 8.248 3.415a11.773 11.773 0 0 0 8.234-3.415l93.373-93.363c2.798-2.798 3.99-7.01 3.136-10.862-.5-2.219-1.728-3.866-3.136-5.616" style="fill:#dd7500;fill-opacity:1;fill-rule:nonzero;stroke:none"/>
    <path d="m204.343 110.973-93.37 93.366a8.444 8.444 0 0 1-5.93 2.456 8.436 8.436 0 0 1-5.927-2.456L5.708 110.97c-1.552-1.551-2.434-3.728-2.434-5.926.007-2.198.889-4.378 2.437-5.93L99.11 5.718a8.513 8.513 0 0 1 5.927-2.43c2.198 0 4.382.885 5.937 2.43l93.37 93.398a8.418 8.418 0 0 1 2.452 5.927 8.42 8.42 0 0 1-2.452 5.93" style="fill:#000;fill-opacity:1;fill-rule:evenodd;stroke:none"/>
    <path d="M201.126 107.749a3.878 3.878 0 0 0 1.122-2.706c0-.98-.413-2.021-1.122-2.72L107.742 8.946a3.897 3.897 0 0 0-2.699-1.11c-.988 0-2.021.412-2.723 1.11L8.932 102.323c-.705.71-1.097 1.718-1.097 2.717.007.998.392 1.993 1.104 2.705l93.38 93.391c.703.699 1.743 1.112 2.724 1.112.991 0 2.004-.413 2.706-1.112l93.377-93.387z" style="fill:#dd7500;fill-opacity:1;fill-rule:evenodd;stroke:none"/>
    <path d="M99.053 69.08c-.01-.507.067-1.019-.145-1.505-.222-.505-.43-.953-.889-1.292-.42-.307-.829-.571-1.358-.666-.522-.089-1.1-.187-1.527-.537-.396-.331-.727-.635-1.023-1.061-.276-.385.31-.847.56-1.07.297-.26.681-.708.752-1.107.046-.258.024-.505.123-.751.089-.23.23-.427.31-.664.17-.487.026-.984.149-1.46.113-.455.247-.882.201-1.369-.095-1.132-.663-1.82-1.5-2.515-1.51-1.263-4.5-.692-5.478 1.012-.554.95-.815 1.969-.825 3.073-.011 1.048.553 2.01.546 3.016-.003.173.057.554-.017.706-.12.233-.374.074-.593-.021-.367-.166-1.055-.173-1.44-.064-.447.138-.916.236-1.4.145-.469-.081-.91-.434-1.386-.448-1.916-.06-3.136 1.277-3.454 3.086l-4.067-.716 3.055-13.158 55.128 9.694-1.443 13.702-34.279-6.03zm39.289 33.05c-.035-.244-.106-.47-.159-.713-.035-.138.254-.55.314-.71.43-1.065.36-2.032 0-3.108-.13-.398.092-1.079.208-1.478.095-.352.148-.705.212-1.054.423-2.4.86-4.791 1.2-7.194.282-1.986.514-4.081-.156-6.004-.342-.998-.931-1.796-1.647-2.554-.216-.23-.36-.261-.346-.55l.042-.953c.13-2.833.254-5.669.381-8.502.12-2.674.244-5.348.364-8.025.028-.614.028-1.09-.152-1.69-.3-1.013-1.288-1.715-2.276-1.958-.687-.173-52.267-9.19-56.215-9.885-1.012-.18-2.085-.367-3.005.282-.628.434-1.076.963-1.302 1.7-.261.84-.522 1.683-.787 2.53-1.534 4.932-3.065 9.867-4.6 14.806-.06.187-.893.388-1.083.519-.406.289-.864.536-1.231.882-.787.737-1.26 1.619-1.74 2.568-.426.854-.666 1.937-.867 2.875-.226 1.058-.427 2.127-.653 3.196-.455 2.184-.755 4.396-1.143 6.587-.032.18-.01.455-.07.613-.075.205-.389.441-.52.635-.31.445-.493.921-.592 1.46a4.423 4.423 0 0 0 .021 1.613c.036.17-.247.378-.335.536-.134.247-.24.484-.331.759a3.072 3.072 0 0 0-.021 1.852c.088.296.225.49.18.808-.064.412-.128.818-.188 1.23l5.12.862-1.338 7.775c0 1.65 1.51 3.224 2.914 3.842.321.14.924.296 1.365.374.438.08 1.059.137 1.408.116 1.676-.116 3.725-.804 4.05-2.618l1.365-7.771 45.466 7.99-1.365 7.775c-.314 1.817 1.376 3.161 2.914 3.842.32.138.924.296 1.362.374.44.074 1.058.138 1.407.11 1.538-.103 3.49-1.062 4.054-2.618l1.386-7.726 5.147.903c.05-.261.095-.522.141-.783.046-.25.032-.593.212-.787.35-.363.6-.765.762-1.242.173-.508.208-.963.127-1.492M122.626 133.34v-16.172H25.404l20.715 20.712h119.44l4.54-4.54h-47.473z" style="fill:#000;fill-opacity:1;fill-rule:nonzero;stroke:none"/>
    <path d="m79.022 55.993-.391 1.68 3.56 4.927a3.593 3.593 0 0 1 1.297-.43l-4.466-6.177z" style="fill:#000;fill-opacity:1;fill-rule:nonzero;stroke:none"/>
</svg>
