<svg xmlns="http://www.w3.org/2000/svg" width="89.985" height="90.001" viewBox="0 0 253.958 254.003">
    <path d="M3.362 118.76 118.716 3.403c4.54-4.536 11.942-4.536 16.482 0l115.355 115.359c4.54 4.537 4.54 11.938 0 16.478L135.198 250.597c-4.54 4.54-11.941 4.54-16.482 0L3.362 135.24c-4.48-4.48-4.484-11.994 0-16.478" style="fill:#dd7500;fill-opacity:1;fill-rule:nonzero;stroke:none"/>
    <path d="M5.676 121.021 120.978 5.723c3.27-3.27 8.69-3.264 11.96 0L248.236 121.02c3.274 3.274 3.26 8.682 0 11.96L132.938 248.278c-3.278 3.263-8.682 3.27-11.96 0L5.676 132.98c-3.256-3.277-3.27-8.685 0-11.959" style="fill:#000;fill-opacity:1;fill-rule:evenodd;stroke:none"/>
    <path d="M8.922 124.184 124.139 8.966c1.524-1.573 4.114-1.573 5.638 0L244.99 124.184c1.574 1.52 1.574 4.113 0 5.634L129.777 245.03c-1.524 1.577-4.117 1.58-5.638 0L8.922 129.818c-1.57-1.52-1.57-4.114 0-5.634" style="fill:#dd7500;fill-opacity:1;fill-rule:evenodd;stroke:none"/>
    <path d="m180.66 109.008-7.193-20.158 6.427-10.897h-5.118l-7.084 12.421V77.953h-4.466v31.055h4.466v-9.917l2.833-5.228 5.45 15.145h4.685zm-23.537-22.775c-.332-2.833-.766-4.138-1.965-5.666-1.415-2.067-3.595-3.16-6.1-3.16-6.1 0-9.264 5.34-9.264 15.366 0 11.44 2.942 16.8 9.592 16.8 4.357 0 7.627-3.726 7.737-8.845h-4.47c0 2.286-.653 4.466-3.267 4.466-3.817 0-5.34-3.594-5.34-12.53 0-8.065 1.308-10.897 4.903-10.897 2.07 0 3.27 1.418 3.704 4.466h4.47zM133.69 99.748V77.953h-4.466v22.338c0 2.942-1.743 4.903-4.142 4.903-2.617 0-4.36-1.961-4.36-4.903V77.953h-4.466v21.795c0 2.504.324 3.813 1.2 5.446 1.523 2.615 4.575 4.378 7.626 4.378 2.942 0 5.885-1.873 7.412-4.378.872-1.633 1.196-2.942 1.196-5.446m-26.913-13.515c0 2.508-1.422 3.926-4.036 3.926h-4.58v-7.846h4.58c2.399 0 4.036 1.524 4.036 3.92m4.353 22.775-4.466-15.254c2.942-1.09 4.466-3.814 4.466-7.521 0-5.01-3.267-8.28-8.17-8.28H93.7v31.055h4.462V94.407h4.25l4.142 14.601h4.576zM89.449 82.095v-4.142h-15.8v4.142h5.661v26.913h4.47V82.095h5.67zM209.434 149.448v-6.427h-7.956v4.357h3.486v2.07c0 3.267-1.087 4.795-3.38 4.795-2.395 0-3.92-1.634-4.572-4.685-.434-2.396-.656-5.123-.656-7.737 0-3.707.543-7.193 1.418-8.717.762-1.527 1.962-2.29 3.49-2.29 2.176 0 3.594 1.415 3.7 3.486h4.47c-.216-4.575-3.595-7.846-8.065-7.846-3.595 0-6.756 2.4-7.846 5.666-1.086 2.942-1.418 6.103-1.418 10.463 0 4.033.653 8.39 1.637 10.679 1.524 3.485 4.247 5.359 7.955 5.359 3.161 0 5.666-1.655 6.865-4.378.656-1.31.872-2.618.872-4.795m-23.58 8.608v-31.055h-4.463v18.63l-8.502-18.63h-4.466v31.055h4.466v-20.814l9.589 20.814h3.376zm-24.335-31.055h-4.36v31.055h4.36v-31.055zm-9.736 22.557c0-4.47-2.618-7.846-8.612-11.335-2.29-1.309-2.942-2.177-2.942-3.704 0-2.067 1.633-3.599 3.708-3.599 1.958 0 3.485 1.419 3.595 3.599h4.25c-.109-4.685-3.488-8.065-7.845-8.065-4.47 0-7.959 3.599-7.959 8.065 0 2.723 1.309 5.122 3.817 6.865 6.318 4.247 4.576 3.051 5.228 3.704 1.856 1.418 2.509 2.727 2.509 4.47 0 2.504-1.962 4.685-4.36 4.685-3.052 0-4.361-2.724-4.361-5.338h-4.357c0 5.119 3.267 9.716 8.717 9.716 4.795 0 8.612-4.054 8.612-9.063m-21.181 0c0-4.47-2.618-7.846-8.611-11.335-2.29-1.309-2.943-2.177-2.943-3.704 0-2.067 1.637-3.599 3.708-3.599 1.961 0 3.485 1.419 3.595 3.599h4.25c-.109-4.685-3.485-8.065-7.845-8.065-4.47 0-7.955 3.599-7.955 8.065 0 2.723 1.305 5.122 3.813 6.865 6.319 4.247 4.576 3.051 5.229 3.704 1.855 1.418 2.508 2.727 2.508 4.47 0 2.504-1.962 4.685-4.36 4.685-3.048 0-4.354-2.724-4.354-5.338h-4.364c0 5.119 3.27 9.716 8.718 9.716 4.794 0 8.61-4.054 8.61-9.063m-26.408-7.084c0 3.595-.219 5.447-.98 7.952-.763 2.62-1.962 3.817-3.814 3.817-1.965 0-3.165-1.196-3.927-3.817-.652-2.505-.98-4.463-.98-7.843 0-3.489.222-5.556.98-7.955.762-2.614 1.962-3.813 3.927-3.813 1.852 0 3.051 1.199 3.813 3.923.65 2.289.98 4.25.98 7.736m4.248 0c0-4.685-.437-7.627-1.742-10.679-1.528-3.813-3.705-5.34-7.3-5.34-3.598 0-5.778 1.527-7.411 5.23-1.31 2.943-1.747 6.104-1.747 10.789 0 4.794.438 7.736 1.747 10.788 1.527 3.704 3.704 5.359 7.412 5.359 3.485 0 5.771-1.655 7.299-5.36 1.305-2.945 1.742-5.993 1.742-10.787m-27.28-7.193c0 2.508-1.418 3.923-4.032 3.923h-4.576v-7.843h4.576c2.399 0 4.032 1.524 4.032 3.92m4.36 22.775-4.473-15.258c2.942-1.086 4.473-3.81 4.473-7.517 0-5.013-3.273-8.28-8.174-8.28h-9.263v31.055h4.47v-14.601H76.8l4.141 14.601h4.58zm-23.689-22.775c-.324-2.83-.762-4.138-1.958-5.666-1.418-2.067-3.598-3.16-6.103-3.16-6.103 0-9.267 5.34-9.267 15.366 0 11.44 2.946 16.8 9.592 16.8 4.36 0 7.627-3.722 7.736-8.848H57.37c0 2.29-.657 4.47-3.274 4.47-3.81 0-5.341-3.595-5.341-12.531 0-8.065 1.309-10.897 4.907-10.897 2.07 0 3.27 1.414 3.708 4.466h4.462z" style="fill:#000;fill-opacity:1;fill-rule:evenodd;stroke:none"/>
</svg>
