<svg xmlns="http://www.w3.org/2000/svg" width="2942.863" height="2942.863" viewBox="0 -0.321 2942.864 2942.864" xml:space="preserve">
    <path style="fill:#dd7500;fill-opacity:1;fill-rule:nonzero;stroke:none" d="M1566.882 2902.999c-52.712 52.725-138.2 52.725-190.912 0L39.54 1566.574c-52.72-52.725-52.72-138.2 0-190.913L1375.97 39.221c52.712-52.723 138.2-52.723 190.912 0L2903.32 1375.66c52.725 52.713 52.725 138.188 0 190.913L1566.882 2902.999z"/>
    <path style="fill:#000;fill-rule:nonzero;stroke:none" d="M63.405 1542.708c-39.477-39.475-39.477-103.712 0-143.187L1399.841 63.085c39.475-39.477 103.712-39.477 143.187 0l1336.438 1336.436c39.475 39.475 39.475 103.712 0 143.187L1543.028 2879.146c-39.475 39.475-103.713 39.475-143.188 0L63.406 1542.708z"/>
    <path style="fill:#dd7500;fill-opacity:1;fill-rule:nonzero;stroke:none" d="M103.18 1502.927c-17.546-17.55-17.546-46.087 0-63.637L1439.61 102.86c17.55-17.546 46.1-17.546 63.637 0l1336.438 1336.43c17.537 17.55 17.537 46.087 0 63.637L1503.247 2839.365c-17.538 17.538-46.088 17.538-63.638 0L103.18 1502.927z"/>
    <path style="fill:#000;fill-rule:nonzero;stroke:none" d="M1390.962 1156.112 1280.025 914.85v241.263h-51.68v-360h51.68l98.325 216v-216h51.687v360h-39.075zM1653.45 885.796c-8.913-31.58-22.9-45.474-44.538-45.474-22.9 0-36.9 13.894-45.8 44.21-8.912 27.79-11.45 51.79-11.45 92.21 0 39.16 3.813 61.896 11.45 90.948 8.9 30.316 22.9 44.211 45.8 44.211 21.638 0 35.625-13.895 44.538-44.211 8.912-29.052 11.45-50.526 11.45-92.209 0-40.421-3.813-63.16-11.45-89.685zm40.712 214.736c-17.812 42.948-44.525 61.896-85.25 61.896-43.262 0-68.7-18.948-86.512-61.896-15.275-35.367-20.363-69.472-20.363-125.05 0-54.317 5.088-90.95 20.363-125.055 19.075-42.947 44.525-60.632 86.512-60.632 41.988 0 67.438 17.685 85.25 61.894 15.275 35.37 20.363 69.476 20.363 123.792 0 55.579-5.088 90.947-20.363 125.052zM1898 1513.267c-8.813-25.262-23.95-36.625-46.638-36.625h-42.85v258.95h42.85c30.263 0 46.638-24 51.688-51.8 2.525-22.737 5.037-48 5.037-75.787 0-40.413-3.775-79.575-10.087-94.737zm8.825 256.426c-12.6 11.362-30.25 16.425-50.413 16.425h-99.587v-360h92.025c30.25 0 45.375 3.787 57.975 13.887 21.437 15.162 36.562 42.95 42.862 79.575 5.05 26.538 8.825 58.112 8.825 85.9 0 83.375-16.387 136.425-51.687 164.213zM2030.512 1786.118v-360h169.75v50.525H2082.45v90.95h74.75v49.262h-74.75v118.738h131.75v50.525h-183.688zM833.672 1786.118v-162.95h-98.324v162.95h-51.683v-360h51.683v146.525h98.324v-146.525h51.681v360h-51.68zM1522.737 1786.118v-360h51.938v312h131.75v48h-183.688zM1108.768 1515.793c-8.906-31.575-22.903-45.475-44.533-45.475-22.904 0-36.9 13.9-45.807 44.212-8.907 27.788-11.45 51.788-11.45 92.213 0 39.162 3.817 61.9 11.45 90.95 8.907 30.312 22.903 44.212 45.807 44.212 21.63 0 35.627-13.9 44.533-44.212 8.908-29.05 11.452-50.525 11.452-92.213 0-40.412-3.818-63.162-11.452-89.687zm40.717 214.737c-17.814 42.95-44.534 61.9-85.25 61.9-43.263 0-68.71-18.95-86.523-61.9-15.27-35.362-20.359-69.475-20.359-125.05 0-54.313 5.09-90.95 20.36-125.05 19.084-42.95 44.533-60.638 86.522-60.638 41.988 0 67.436 17.688 85.25 61.9 15.27 35.363 20.358 69.476 20.358 123.788 0 55.575-5.088 90.95-20.358 125.05zM2380.025 1476.642h-52.938v90.95h52.938c30.262 0 46.65-16.425 46.65-45.475 0-27.8-18.913-45.474-46.65-45.474zm44.125 309.476-47.9-169.263h-49.163v169.263H2275.4v-360h107.15c56.725 0 94.55 37.887 94.55 96 0 42.937-17.65 74.525-51.688 87.15l51.688 176.85h-52.95zM523.283 1619.855c-15.575-10.088-30.699-20.212-40.352-27-29.024-20.438-44.399-48-44.399-79.588 0-51.787 40.592-93.475 92.601-93.475 50.739 0 90.063 39.163 91.331 93.476h-49.47c-1.268-25.263-19.028-41.676-41.86-41.676-24.102 0-43.13 17.675-43.13 41.675 0 17.688 7.612 27.788 34.25 42.95 69.767 40.425 100.21 79.575 100.21 131.375 0 58.1-44.397 104.838-100.21 104.838-63.426 0-101.48-53.05-101.48-112.425h50.74c0 30.313 15.222 61.9 50.74 61.9 27.907 0 50.74-25.262 50.74-54.312 0-22.563-9.322-41.563-49.71-67.738zM1429.675 1741.905c-17.65 29.05-51.688 50.525-85.725 50.525-35.3 0-70.588-20.212-88.238-50.525-10.09-18.95-13.87-34.112-13.87-63.163v-252.625h51.683v258.95c0 34.1 20.175 56.838 50.425 56.838 27.737 0 47.9-22.737 47.9-56.838v-258.95h51.687v252.625c0 29.05-3.787 44.213-13.862 63.163z"/>
</svg>
