<svg xmlns="http://www.w3.org/2000/svg" width="3678.575" height="3678.575" viewBox="0 0 10381.759 10381.757">
    <path style="fill:#dd7500;fill-opacity:1;fill-rule:nonzero;stroke:none" d="M5527.641 10242.27c-185.984 185.984-487.539 185.984-673.523 0L139.49 5527.64c-185.987-185.984-185.987-487.539 0-673.523L4854.118 139.489c185.984-185.987 487.539-185.987 673.523 0l4714.63 4714.628c185.984 185.984 185.984 487.539 0 673.523l-4714.63 4714.63z"/>
    <path style="fill:#000;fill-rule:nonzero;stroke:none" d="M229.294 5437.848c-136.171-136.208-136.171-357.752 0-493.924l4714.63-4714.632c136.173-136.17 357.718-136.17 493.89 0l4714.665 4714.632c136.172 136.172 136.172 357.716 0 493.924l-4714.665 4714.629c-136.172 136.172-357.717 136.172-493.89 0l-4714.63-4714.63z"/>
    <path style="fill:#dd7500;fill-opacity:1;fill-rule:nonzero;stroke:none" d="M363.998 5303.151c-61.895-61.877-61.895-162.595 0-224.507L5078.645 363.998c61.912-61.897 162.63-61.897 224.508 0l4714.629 4714.646c61.913 61.912 61.913 162.63 0 224.507l-4714.63 4714.63c-61.877 61.912-162.595 61.912-224.507 0L363.998 5303.151z"/>
    <path style="fill:#000;fill-rule:nonzero;stroke:none" d="m4854.05 3350.38-485.776-860.038v860.038h-200.519V2080.376h200.52l463.479 811.022v-811.022h200.52V3350.38h-178.225zM5937.078 2362.676c-40.217-66.845-89.323-93.578-165.277-98.034-98.283-4.455-160.831 44.556-205.493 155.963-31.256 75.756-49.106 191.619-49.106 298.56 0 133.688 26.775 271.826 75.917 352.037 40.217 66.844 93.804 98.04 174.202 98.04 93.84 0 151.906-49.025 196.568-160.422 26.811-66.844 49.142-191.615 49.142-289.655 0-142.593-26.811-271.819-75.953-356.49zm138.465 868.945c-71.472 98.04-174.202 142.603-308.222 142.603-178.682 0-290.336-71.303-366.289-227.263-53.587-106.955-89.323-276.281-89.323-427.796 0-209.438 53.586-396.59 138.465-516.912 75.953-98.037 178.682-142.596 326.107-142.596 160.797 0 272.486 71.297 352.885 227.267 53.587 111.4 84.878 271.822 84.878 432.24 0 200.53-49.142 401.053-138.5 512.457zM5641.768 7795.406l-485.776-860.073v860.073h-200.519V6525.37h200.52l463.479 811.037V6525.37h200.52v1270.036h-178.224zM4447.473 7795.406V6525.37h203.2v1270.036h-203.2zM3469.245 7795.406V6525.37h200.247v1082.852h587.481v187.184h-787.728zM6124.827 7795.406V6525.37h747.642v200.554h-547.406v311.927h369.394v204.964h-369.394v347.592h587.481v204.999h-787.717zM5000.24 5572.87l-485.74-860.037v860.037h-200.553v-1270H4514.5l463.444 811.036V4302.87H5178.5v1270h-178.26zM5861.337 4481.128V5572.87h-201.401V4481.128H5369V4302.87h787.718v178.258h-295.381zM7907.872 4525.684c-31.186-17.815-49.001-22.26-115.853-22.26h-240.665v311.926h240.665c62.407 0 84.667-4.48 115.853-22.296 49.036-26.74 80.257-80.221 80.257-133.667 0-53.481-31.221-106.962-80.257-133.703zm89.147 1047.186-205-552.556h-240.665v552.556h-200.519v-1270h418.889c98.072 0 164.923 8.925 227.295 40.11 111.407 53.481 191.629 187.149 191.629 316.407 0 133.667-80.222 267.37-196.075 320.852l222.815 592.631h-218.37zM3310.322 5572.87v-1270h747.649v200.554h-547.384v311.926h369.407v204.964h-369.407v347.592h587.46v204.964h-787.725zM6347.217 5572.87v-1270h747.678v200.554H6547.49v311.926h369.393v204.964H6547.49v347.592h587.445v204.964h-787.718zM2647.674 5595.166c-187.17 0-307.499-71.297-387.71-227.26-57.937-111.407-93.585-271.815-93.585-432.259 0-200.519 53.478-401.038 142.604-512.445 75.755-93.592 182.717-142.593 325.317-142.593 191.636 0 311.955 80.222 396.625 258.445l-187.166 80.222c-71.307-106.962-111.411-133.703-209.459-133.703-102.489 0-169.337 44.556-213.903 155.963-31.196 75.777-49.026 187.184-49.026 294.111 0 138.148 31.197 276.296 80.219 356.518 44.563 66.816 102.5 98.037 191.625 98.037 84.674 0 147.063-44.591 196.088-147.073l191.622 71.296c-75.755 187.149-200.54 280.74-383.25 280.74z"/>
</svg>
