<svg xmlns="http://www.w3.org/2000/svg" width="285.597" height="285.601" viewBox="-1 0 285.597 285.601" xml:space="preserve">
    <path d="M279.964 131.615 153.005 4.666C150.064 1.71 145.986 0 141.81 0c-4.169 0-8.247 1.71-11.216 4.666L3.64 131.615A15.854 15.854 0 0 0-1 142.819c.021 4.169 1.693 8.249 4.64 11.195l126.954 126.949c2.946 2.938 7.066 4.638 11.216 4.638 4.148 0 8.272-1.7 11.195-4.638l126.959-126.944c3.804-3.804 5.425-9.523 4.263-14.765-.684-3.02-2.352-5.259-4.263-7.639z" style="fill:#dd7500;stroke:none;fill-opacity:1"/>
    <path clip-rule="evenodd" d="m276.826 150.876-126.95 126.95a11.489 11.489 0 0 1-8.066 3.34 11.47 11.47 0 0 1-8.059-3.34L6.757 150.876c-2.105-2.117-3.305-5.072-3.305-8.061s1.199-5.949 3.305-8.062L133.751 7.771c2.12-2.103 5.071-3.307 8.059-3.307 2.986 0 5.949 1.204 8.066 3.307l126.959 126.987a11.482 11.482 0 0 1 3.326 8.057c0 3.012-1.209 5.925-3.335 8.061" style="fill-rule:evenodd;stroke:none;fill:#000"/>
    <path clip-rule="evenodd" d="M272.451 146.492a5.275 5.275 0 0 0 1.526-3.677c0-1.331-.562-2.745-1.526-3.696L145.492 12.16c-.953-.951-2.331-1.513-3.682-1.513-1.33 0-2.745.562-3.701 1.513L11.141 139.119c-.965.965-1.492 2.337-1.492 3.691.009 1.359.536 2.708 1.492 3.682L138.109 273.47a5.446 5.446 0 0 0 3.701 1.513c1.351 0 2.733-.566 3.682-1.513l126.959-126.978" style="fill:#dd7500;fill-rule:evenodd;stroke:none;fill-opacity:1"/>
    <path clip-rule="evenodd" d="M205.693 131.381c0 4.323-3.494 7.2-8.638 7.2h-17.078v-14.61h17.078c5.143 0 8.638 2.88 8.638 7.41m10.502 0c0-6.586-3.504-12.352-9.06-15.434-3.288-1.855-5.967-2.473-10.492-2.473h-27.364v58.649h10.698v-23.046h16.666c4.525 0 7.204-.416 10.492-2.267 5.556-3.081 9.06-9.255 9.06-15.429zm-80.472 40.742h10.49v-58.649h-10.49v58.649zm-31.913-29.425c0 8.019-2.883 13.374-9.055 16.667a16.731 16.731 0 0 1-8.434 2.262h-8.235v-37.656h8.235c3.08 0 6.174.824 8.846 2.262 5.76 3.293 8.643 8.642 8.643 16.465zm10.495 0c0-11.523-4.935-20.372-13.996-25.515-4.321-2.478-9.05-3.709-13.987-3.709H67.391v58.649h18.931c4.731 0 9.666-1.236 13.781-3.499 9.267-5.147 14.202-14.202 14.202-25.926z" style="fill-rule:evenodd;stroke:none;fill:#000"/>
</svg>
