<svg xmlns="http://www.w3.org/2000/svg" width="73.834" height="74.381" viewBox="0 -0.321 73.834 74.381" xml:space="preserve">
    <path d="M72.66 33.956 39.823.876c-1.58-1.599-4.221-1.594-5.804.001L1.188 33.954c-1.58 1.59-1.586 4.248-.003 5.838l32.836 33.08c1.575 1.58 4.226 1.59 5.801 0l32.839-33.08c1.702-1.712 1.419-4.088 0-5.836" style="fill:#dd7500;fill-opacity:1;fill-rule:nonzero;stroke:none"/>
    <path d="M71.928 39.052 39.088 72.13c-1.18 1.186-3.15 1.184-4.335 0L1.923 39.05c-1.178-1.19-1.188-3.167-.005-4.359L34.756 1.61C35.93.43 37.915.427 39.087 1.608l32.839 33.084c1.175 1.188 1.18 3.175.002 4.36" style="fill:#000;fill-opacity:1;fill-rule:evenodd;stroke:none"/>
    <path d="M70.711 37.822a1.388 1.388 0 0 0 0-1.91L37.866 2.84c-.513-.51-1.376-.523-1.889.001L3.14 35.913a1.378 1.378 0 0 0 .002 1.91L35.98 70.902a1.34 1.34 0 0 0 1.886 0L70.71 37.823" style="fill:#dd7500;fill-opacity:1;fill-rule:evenodd;stroke:none"/>
    <path d="M59.042 32.076c0-1.057-.62-1.859-2.037-2.684-.543-.31-.699-.516-.699-.877 0-.49.389-.851.879-.851.464 0 .825.335.852.85h1.005c-.026-1.11-.825-1.91-1.857-1.91-1.06 0-1.885.852-1.885 1.91 0 .647.31 1.213.904 1.626 1.496 1.009 1.083.724 1.237.879.44.336.596.645.596 1.057 0 .593-.463 1.11-1.032 1.11-.724 0-1.034-.644-1.034-1.264H54.94c0 1.212.773 2.3 2.066 2.3 1.135 0 2.037-.958 2.037-2.146m-6.217-1.625c0 .568-.054 1.083-.105 1.548-.103.567-.44 1.058-1.058 1.058h-.878v-5.29h.878c.464 0 .774.232.955.748.13.309.208 1.11.208 1.936m1.03-.052a9.69 9.69 0 0 0-.18-1.754c-.128-.749-.438-1.318-.878-1.628-.258-.205-.568-.283-1.188-.283h-1.883v7.356h2.039c.412 0 .774-.103 1.032-.338.723-.566 1.058-1.65 1.058-3.353m-5.703 3.69v-7.355h-1.06v4.415l-2.01-4.415h-1.058v7.356h1.057V29.16l2.27 4.929h.801zm-5.368 0v-1.032H40.1V30.63h1.521v-1.005H40.1v-1.859h2.4v-1.032h-3.458v7.356h3.742zm-8.645 0v-1.032h-2.687V30.63h1.524v-1.005h-1.524v-1.859h2.4v-1.032h-3.457v7.356h3.744zm-5.325 0v-7.355H27.75v4.415l-2.024-4.415H24.67v7.356h1.057V29.16l2.283 4.929h.804zm-6.983-3.045h-1.057l.515-2.115.542 2.115zm1.831 3.046-1.83-7.356h-1.033l-1.832 7.356h1.058l.49-2.014h1.575l.515 2.014h1.057zm-5.135 0v-.981h-2.685v-6.375h-1.057v7.356h3.742zM49.882 46.964V45.93H47.2v-2.426h1.524V42.5H47.2v-1.86h2.4v-1.033h-3.46v7.357h3.742zm-5.185-2.04v-1.522h-1.885v1.032h.823v.49c0 .775-.256 1.136-.798 1.136-.568 0-.928-.386-1.085-1.109a10.605 10.605 0 0 1-.156-1.832c0-.878.133-1.705.338-2.067.18-.36.466-.54.825-.54.517 0 .852.335.876.825h1.062c-.053-1.082-.855-1.858-1.91-1.858-.853 0-1.603.568-1.86 1.342-.258.698-.333 1.446-.333 2.478 0 .955.153 1.987.385 2.53.36.826 1.008 1.268 1.885 1.268.747 0 1.342-.392 1.626-1.037.154-.309.207-.619.207-1.135m-6.223-3.355c0 .594-.332.93-.954.93h-1.083v-1.86h1.083c.569 0 .954.361.954.93m1.036 5.394-1.06-3.614c.695-.259 1.06-.903 1.06-1.78 0-1.186-.778-1.963-1.936-1.963H35.38v7.357h1.056v-3.46h1.007l.978 3.46h1.088zm-5.371 0V45.93h-2.684v-2.426h1.524V42.5h-1.524v-1.86h2.4v-1.033h-3.458v7.357h3.742zm-5.35 0v-7.357h-1.062l-1.375 4.132-1.372-4.132h-1.056v7.357h1.056v-4.13l1.372 4.13 1.375-4.13v4.13h1.062zM45.761 53.462v-.98H42.02v.98h1.343v6.375h1.057v-6.375h1.342zm-4.181.052V52.48h-3.743v7.356h1.06V56.38h1.47V55.37h-1.47v-1.857h2.683zm-4.981 6.323v-1.032h-2.685v-2.426h1.526V55.37h-1.526v-1.857h2.402V52.48h-3.46v7.356H36.6zm-4.748 0v-.98H29.16v-6.376h-1.061v7.356h3.752z" style="fill:#000;fill-opacity:1;fill-rule:evenodd;stroke:none"/>
</svg>
