<svg xmlns="http://www.w3.org/2000/svg" width="108.958" height="108.945" viewBox="0 -0.321 108.958 108.945" xml:space="preserve">
    <path d="M51.56 107.434 1.207 57.079a4.135 4.135 0 0 1-.003-5.84L51.56.888A4.135 4.135 0 0 1 57.4.885l50.351 50.357a4.133 4.133 0 0 1 .002 5.838L57.4 107.434c-1.589 1.586-4.25 1.588-5.84 0" style="fill:#dd7500;fill-opacity:1;fill-rule:nonzero;stroke:none"/>
    <path d="M52.36 106.612 2.028 56.28c-1.158-1.16-1.155-3.08 0-4.24L52.36 1.71c1.16-1.16 3.076-1.158 4.238 0l50.332 50.333a3.016 3.016 0 0 1 0 4.237l-50.332 50.333c-1.162 1.153-3.078 1.158-4.238 0" style="fill:#000;fill-opacity:1;fill-rule:evenodd;stroke:none"/>
    <path d="M53.483 105.464 3.178 55.157a1.4 1.4 0 0 1 0-1.996L53.48 2.86a1.402 1.402 0 0 1 1.998 0L105.78 53.16c.556.54.556 1.46 0 1.999l-50.302 50.304a1.401 1.401 0 0 1-1.995 0" style="fill:#dd7500;fill-opacity:1;fill-rule:evenodd;stroke:none"/>
    <path d="M74.25 27.031c0 .856-.483 1.34-1.375 1.34h-1.562v-2.676h1.562c.818 0 1.375.52 1.375 1.336m1.487 7.769-1.524-5.204c1.004-.371 1.524-1.3 1.524-2.565 0-1.709-1.117-2.822-2.79-2.822H69.79v10.59h1.524v-4.98h1.45l1.414 4.98h1.56zm-7.733 0v-1.486h-3.861V29.82h2.191V28.37h-2.191v-2.676h3.456v-1.486h-4.98v10.59h5.385zm-6.835-9.18v-1.411H55.78v1.41h1.932v9.18h1.523v-9.18h1.934zM54.33 34.8V24.209h-1.523v6.353l-2.9-6.353h-1.524v10.59h1.524v-7.097l3.27 7.098h1.153zm-7.73 0v-1.486h-3.866V29.82h2.194V28.37h-2.194v-2.676h3.456v-1.486h-4.98v10.59h5.39zm-7.47-7.769c-.11-.965-.26-1.411-.668-1.932-.484-.705-1.227-1.078-2.083-1.078-2.08 0-3.157 1.821-3.157 5.241 0 3.902 1.003 5.73 3.268 5.73 1.488 0 2.604-1.27 2.64-3.018h-1.523c0 .78-.223 1.525-1.117 1.525-1.3 0-1.818-1.227-1.818-4.274 0-2.75.445-3.716 1.67-3.716.708 0 1.116.482 1.265 1.522h1.523zM68.415 51.325v-1.486h-3.867v-3.493h2.195v-1.451h-2.195V42.22h3.456v-1.487h-4.98v10.59h5.391zm-7.656 0V40.734h-1.524v6.355l-2.899-6.355h-1.522v10.59h1.522v-7.097l3.27 7.098h1.153zM50.724 46.94H49.2l.743-3.048.78 3.048zm2.64 4.385-2.64-10.591h-1.486l-2.64 10.59h1.523l.71-2.898h2.264l.745 2.899h1.524zm-7.398 0v-1.413h-3.865v-9.178h-1.523v10.59h5.388zM74.62 62.592c0 .818-.072 1.56-.148 2.23-.147.817-.63 1.524-1.524 1.524h-1.261v-7.619h1.26c.673 0 1.117.333 1.378 1.078.184.446.295 1.597.295 2.787m1.49-.075c0-.816-.112-1.746-.26-2.526-.187-1.079-.633-1.896-1.266-2.342-.371-.298-.817-.41-1.709-.41h-2.712v10.593h2.935c.595 0 1.115-.15 1.486-.483 1.043-.818 1.526-2.38 1.526-4.832m-7.732 5.315v-1.486h-3.865v-3.494h2.192v-1.45h-2.192v-2.675h3.455V57.24H62.99v10.592h5.388zm-7.173-2.898c0-1.524-.89-2.677-2.935-3.867-.783-.446-1.005-.742-1.005-1.262 0-.706.56-1.226 1.264-1.226.669 0 1.19.48 1.226 1.226h1.45c-.036-1.598-1.188-2.751-2.676-2.751-1.522 0-2.712 1.227-2.712 2.75 0 .93.447 1.747 1.3 2.34 2.155 1.45 1.56 1.043 1.783 1.266.633.484.855.929.855 1.524 0 .853-.666 1.597-1.485 1.597-1.042 0-1.488-.929-1.488-1.82h-1.485c0 1.745 1.113 3.313 2.973 3.313 1.634 0 2.935-1.382 2.935-3.09m-8.955-2.417c0 1.228-.076 1.858-.337 2.714-.259.891-.669 1.3-1.299 1.3-.671 0-1.076-.409-1.337-1.3-.223-.856-.335-1.524-.335-2.677 0-1.19.073-1.895.335-2.713.26-.891.666-1.301 1.337-1.301.63 0 1.04.41 1.299 1.34.225.779.337 1.449.337 2.637m1.448 0c0-1.597-.146-2.601-.594-3.641-.52-1.301-1.264-1.822-2.49-1.822-1.227 0-1.97.52-2.526 1.785-.448 1.002-.596 2.08-.596 3.678 0 1.635.148 2.638.596 3.68.52 1.263 1.262 1.827 2.526 1.827 1.189 0 1.97-.564 2.49-1.827.448-1.005.594-2.045.594-3.68m-7.469 5.315V66.42h-3.866v-9.18h-1.524v10.592h5.39zm-7.47-7.768c-.112-.965-.261-1.413-.669-1.933-.483-.705-1.228-1.077-2.082-1.077-2.08 0-3.16 1.822-3.16 5.24 0 3.903 1.004 5.73 3.272 5.73 1.487 0 2.6-1.27 2.64-3.017h-1.525c0 .78-.222 1.524-1.115 1.524-1.3 0-1.82-1.225-1.82-4.274 0-2.75.445-3.717 1.67-3.717.707 0 1.117.484 1.265 1.524h1.524zM71.444 79.174c0 .818-.072 1.56-.146 2.23-.149.817-.633 1.523-1.524 1.523H68.51V75.31h1.264c.67 0 1.114.333 1.375 1.078.185.445.295 1.598.295 2.787m1.49-.074c0-.818-.112-1.748-.261-2.528-.186-1.077-.633-1.895-1.265-2.342-.371-.296-.818-.408-1.709-.408h-2.712v10.593h2.935c.595 0 1.115-.15 1.486-.484 1.042-.817 1.526-2.379 1.526-4.831m-10.035.929h-1.525l.741-3.048.784 3.048zm2.638 4.386-2.638-10.593H61.41l-2.636 10.593h1.523l.706-2.9h2.267l.743 2.9h1.524zm-7.73 0v-1.488h-3.865v-3.493h2.192v-1.45h-2.192V75.31h3.455v-1.487h-4.978v10.593h5.388zm-7.654 0V73.822h-1.526v4.31h-2.898v-4.31h-1.524v10.593h1.524V79.62h2.898v4.795h1.526zm-10.036-4.386h-1.524l.742-3.048.782 3.048zm2.638 4.386-2.638-10.593h-1.488L35.99 84.415h1.524l.708-2.9h2.266l.744 2.9h1.523z" style="fill:#000;fill-opacity:1;fill-rule:evenodd;stroke:none"/>
</svg>
