<svg xmlns="http://www.w3.org/2000/svg" width="2160" height="1620">
    <path style="fill:#dd7500;fill-rule:nonzero;stroke:none" d="M2952.808 760.796c0 92.24-74.766 167.005-167.005 167.005H447.735c-92.234 0-167.005-74.766-167.005-167.005V-909.252c0-92.236 74.771-167.005 167.005-167.005h2338.068c92.24 0 167.005 74.77 167.005 167.005V760.796z" transform="matrix(.80836 0 0 .80836 -226.931 870.003)"/>
    <path style="fill:#000;fill-rule:nonzero;stroke:none" d="M447.735 886.05c-69.066 0-125.253-56.194-125.253-125.254V-909.252c0-69.066 56.187-125.254 125.253-125.254h2338.068c69.06 0 125.254 56.188 125.254 125.254V760.796c0 69.06-56.194 125.254-125.254 125.254H447.735z" transform="matrix(.80836 0 0 .80836 -226.931 870.003)"/>
    <path style="fill:#dd7500;fill-rule:nonzero;stroke:none" d="M447.735 816.464c-30.696 0-55.668-24.973-55.668-55.668V-909.252c0-30.696 24.972-55.669 55.668-55.669h2338.068c30.695 0 55.668 24.973 55.668 55.669V760.796c0 30.695-24.973 55.668-55.668 55.668H447.735z" transform="matrix(.80836 0 0 .80836 -226.931 870.003)"/>
    <path style="fill:#000;fill-rule:nonzero;stroke:none" d="M1510.688-588.132c-14.098-23.439-31.327-32.814-57.956-34.376-34.464-1.564-56.394 15.624-72.057 54.69-10.966 26.565-17.23 67.194-17.23 104.696 0 46.877 9.396 95.318 26.626 123.446 14.102 23.44 32.897 34.378 61.093 34.378 32.897 0 53.259-17.19 68.926-56.254 9.397-23.44 17.228-67.194 17.228-101.57 0-50.003-9.399-95.318-26.63-125.01zm48.56 304.71c-25.064 34.378-61.093 50.006-108.084 50.006-62.657 0-101.82-25.005-128.449-79.694-18.794-37.505-31.325-96.883-31.325-150.012 0-73.442 18.794-139.072 48.558-181.264 26.63-34.378 62.657-50.004 114.348-50.004 56.392 0 95.554 25.003 123.75 79.694 18.794 39.065 29.76 95.32 29.76 151.574 0 70.317-17.227 140.633-48.558 179.7zM2315.112-241.23l-112.883-210.955-47.024 57.816v153.139h-70.544v-445.348h70.544V-510l141.088-176.577h90.925l-137.95 173.452L2396.62-241.23h-81.508zM1901.11-608.446c-10.932-6.252-17.18-7.812-40.622-7.812H1776.1v109.382h84.387c21.88 0 29.69-1.562 40.622-7.81 17.196-9.378 28.144-28.13 28.144-46.88 0-18.752-10.948-37.504-28.144-46.88zm31.267 367.214-71.89-193.767h-84.386v193.767h-70.32v-445.346h146.898c34.375 0 57.818 3.125 79.698 14.066 39.06 18.752 67.189 65.628 67.189 110.947 0 46.878-28.128 93.756-68.75 112.508l78.136 207.825h-76.575zM1167.654-241.233h-62.695l-70.54-285.959-68.972 285.959h-62.7L836.915-686.58h72.104l34.483 234.394 56.431-234.394h68.971l57.997 234.394 34.489-234.394h72.104l-65.839 445.346zM1906.476 538.123l-170.343-301.585v301.585h-70.322V92.777h70.322l162.519 284.396V92.777h70.327v445.346h-62.503zM1470.719 191.221c-14.098-23.44-31.33-32.813-57.959-34.376-34.463-1.564-56.392 15.624-72.055 54.69-10.966 26.565-17.23 67.194-17.23 104.696 0 46.877 9.395 95.318 26.626 123.446 14.101 23.439 32.895 34.38 61.093 34.38 32.895 0 53.257-17.193 68.923-56.257 9.399-23.439 17.23-67.193 17.23-101.57 0-50.002-9.399-95.317-26.628-125.009zm48.558 304.702c-25.065 34.39-61.093 50.009-108.083 50.009-62.658 0-101.82-25.005-128.45-79.69-18.794-37.504-31.326-96.882-31.326-150.011 0-73.442 18.796-139.072 48.56-181.264 26.628-34.378 62.656-50.004 114.347-50.004 56.394 0 95.553 25.003 123.75 79.695 18.795 39.064 29.76 95.32 29.76 151.573 0 70.318-17.23 140.633-48.558 179.692zM881.448 538.123v-59.38l203.154-315.651H898.636V92.775h285.979v42.189L978.335 466.24h206.28v71.883H881.448zM2075.862 538.123V92.777h262.182v70.318h-191.962V272.48h129.537v71.879h-129.537v121.884h206.003v71.88h-276.223z" transform="matrix(.80836 0 0 .80836 -226.931 870.003)"/>
</svg>
