<svg xmlns="http://www.w3.org/2000/svg" width="66.028" height="33.007">
    <path d="M-1292.941-3634.823h-70.758c-3.006 0-5.46-2.455-5.463-5.463l.01-29.906c0-3.004 2.454-5.46 5.463-5.463h70.749c3.004 0 5.463 2.458 5.46 5.46v29.903c0 3.005-2.459 5.463-5.46 5.463" style="fill:#dd7500;fill-opacity:1;fill-rule:nonzero;stroke:none" transform="matrix(.80836 0 0 .80836 1106.776 2971.252)"/>
    <path d="M-1293.235-3636.242h-70.171c-2.383 0-4.333-1.951-4.338-4.334l.01-29.322a4.348 4.348 0 0 1 4.334-4.334h70.166a4.346 4.346 0 0 1 4.334 4.334v29.319a4.346 4.346 0 0 1-4.331 4.334" style="fill:#000;fill-opacity:1;fill-rule:evenodd;stroke:none" transform="matrix(.80836 0 0 .80836 1106.776 2971.252)"/>
    <path d="M-1293.254-3638.428h-70.137a2.17 2.17 0 0 1-2.165-2.165v-29.291c0-1.19.973-2.165 2.167-2.165h70.13a2.17 2.17 0 0 1 2.167 2.165v29.288c0 1.189-.975 2.164-2.166 2.164" style="fill:#dd7500;fill-opacity:1;fill-rule:evenodd;stroke:none" transform="matrix(.80836 0 0 .80836 1106.776 2971.252)"/>
    <path d="M-1320.441-3662.62c0 .7-.063 1.338-.127 1.908-.13.7-.54 1.308-1.304 1.308h-1.085v-6.527h1.085c.57 0 .954.286 1.174.925.16.38.257 1.367.257 2.386m1.272-.063c0-.702-.094-1.495-.224-2.163-.156-.925-.54-1.625-1.08-2.006-.318-.253-.701-.35-1.465-.35h-2.323v9.07h2.516c.507 0 .954-.127 1.271-.414.89-.7 1.305-2.035 1.305-4.137m-7.03 4.551v-9.07h-1.304v5.442l-2.484-5.441h-1.305v9.069h1.305v-6.077l2.8 6.077h.987zm-6.62 0v-1.271h-3.311v-2.994h1.878v-1.242h-1.878v-2.291h2.96v-1.271h-4.264v9.069h4.614zM-1299.646-3643.44l-2.103-5.89 1.879-3.181h-1.496l-2.069 3.626v-3.626h-1.303v9.072h1.303v-2.9l.83-1.524 1.59 4.424h1.369zm-7.862-6.653c0 .731-.414 1.144-1.178 1.144h-1.335v-2.288h1.335c.7 0 1.178.444 1.178 1.144m1.275 6.654-1.309-4.458c.862-.317 1.309-1.115 1.309-2.196 0-1.464-.958-2.418-2.39-2.418h-2.703v9.072h1.306v-4.268h1.24l1.209 4.268h1.338zm-8.15-4.554c0 1.05-.063 1.591-.286 2.324-.22.762-.57 1.112-1.115 1.112-.57 0-.921-.35-1.144-1.112-.19-.733-.288-1.307-.288-2.292 0-1.017.067-1.622.288-2.322.223-.764.574-1.115 1.144-1.115.545 0 .894.35 1.115 1.146.19.67.286 1.24.286 2.259m1.242 0c0-1.369-.127-2.227-.51-3.118-.444-1.114-1.081-1.561-2.133-1.561-1.048 0-1.685.447-2.161 1.527-.384.862-.508 1.783-.508 3.152 0 1.4.124 2.258.508 3.153.446 1.08 1.08 1.563 2.161 1.563 1.02 0 1.689-.482 2.133-1.563.383-.861.51-1.752.51-3.153m-6.397-4.519h-1.271l-.797 4.839-.858-4.839h-1.017l-.893 4.839-.763-4.839h-1.273l1.43 9.073h1.148l.858-4.744.86 4.744h1.115l1.46-9.073zm-13.747 4.582c0 .7-.063 1.338-.127 1.912-.127.7-.54 1.305-1.304 1.305h-1.082v-6.524h1.082c.574 0 .954.286 1.177.921.161.384.254 1.367.254 2.386m1.276-.063c0-.699-.098-1.495-.225-2.163-.16-.925-.54-1.622-1.08-2.006-.32-.253-.701-.35-1.467-.35h-2.32v9.073h2.512c.51 0 .954-.13 1.274-.417.891-.7 1.306-2.035 1.306-4.137m-8.593.797h-1.309l.637-2.609.671 2.609zm2.259 3.757-2.26-9.072h-1.274l-2.259 9.072h1.304l.604-2.486h1.942l.638 2.486h1.305zm-8.15-4.554c0 1.05-.063 1.591-.286 2.324-.22.763-.57 1.112-1.111 1.112-.574 0-.925-.35-1.148-1.112-.19-.733-.287-1.306-.287-2.291 0-1.018.066-1.622.287-2.323.223-.764.574-1.115 1.148-1.115.54 0 .89.351 1.111 1.146.19.67.286 1.24.286 2.26m1.242 0c0-1.37-.127-2.227-.507-3.118-.447-1.115-1.084-1.562-2.132-1.562-1.052 0-1.689.447-2.165 1.528-.382.861-.51 1.783-.51 3.151 0 1.401.128 2.258.51 3.153.447 1.081 1.08 1.564 2.165 1.564 1.017 0 1.685-.483 2.132-1.564.38-.861.507-1.752.507-3.153m-7.925-2.1c0 .732-.414 1.145-1.175 1.145h-1.338v-2.289h1.338c.7 0 1.175.444 1.175 1.144m1.274 6.654-1.305-4.458c.859-.317 1.305-1.115 1.305-2.196 0-1.464-.954-2.418-2.386-2.418h-2.706v9.072h1.305v-4.268h1.242l1.208 4.268h1.337z" style="fill:#000;fill-opacity:1;fill-rule:evenodd;stroke:none" transform="matrix(.80836 0 0 .80836 1106.776 2971.252)"/>
</svg>
