<svg xmlns="http://www.w3.org/2000/svg" width="66.028" height="33.007">
    <path d="M-1292.941-3634.823h-70.758c-3.006 0-5.46-2.455-5.463-5.463l.01-29.906c0-3.004 2.454-5.46 5.463-5.463h70.749c3.004 0 5.463 2.458 5.46 5.46v29.903c0 3.005-2.459 5.463-5.46 5.463" style="fill:#dd7500;fill-opacity:1;fill-rule:nonzero;stroke:none" transform="matrix(.80836 0 0 .80836 1106.776 2971.252)"/>
    <path d="M-1293.235-3636.242h-70.171c-2.383 0-4.333-1.951-4.338-4.334l.01-29.322a4.348 4.348 0 0 1 4.334-4.334h70.166a4.346 4.346 0 0 1 4.334 4.334v29.319a4.346 4.346 0 0 1-4.331 4.334" style="fill:#000;fill-opacity:1;fill-rule:evenodd;stroke:none" transform="matrix(.80836 0 0 .80836 1106.776 2971.252)"/>
    <path d="M-1293.254-3638.428h-70.137a2.17 2.17 0 0 1-2.165-2.165v-29.291c0-1.19.973-2.165 2.167-2.165h70.13a2.17 2.17 0 0 1 2.167 2.165v29.288c0 1.189-.975 2.164-2.166 2.164" style="fill:#dd7500;fill-opacity:1;fill-rule:evenodd;stroke:none" transform="matrix(.80836 0 0 .80836 1106.776 2971.252)"/>
    <path d="m-1299.75-3658.068-2.101-5.887 1.879-3.183h-1.499l-2.069 3.626v-3.626h-1.305v9.07h1.305v-2.897l.83-1.528 1.59 4.425h1.37zm-7.861-6.651c0 .731-.413 1.144-1.177 1.144h-1.34v-2.292h1.34c.7 0 1.177.447 1.177 1.148m1.274 6.65-1.307-4.454c.86-.32 1.307-1.115 1.307-2.196 0-1.465-.957-2.419-2.388-2.419h-2.706v9.07h1.304v-4.265h1.241l1.211 4.265h1.338zm-8.148-4.55c0 1.05-.063 1.59-.287 2.322-.223.764-.574 1.113-1.114 1.113-.57 0-.925-.349-1.144-1.113-.192-.731-.288-1.302-.288-2.293 0-1.014.063-1.622.288-2.32.22-.767.574-1.115 1.144-1.115.54 0 .89.349 1.114 1.146.19.667.287 1.24.287 2.26m1.242 0c0-1.369-.127-2.227-.51-3.12-.444-1.113-1.083-1.56-2.133-1.56-1.051 0-1.685.447-2.166 1.53-.38.86-.507 1.781-.507 3.15 0 1.4.126 2.262.507 3.15.447 1.083 1.085 1.566 2.166 1.566 1.018 0 1.689-.483 2.133-1.567.383-.858.51-1.748.51-3.15m-6.397-4.518h-1.271l-.798 4.839-.858-4.839h-1.021l-.89 4.839-.765-4.839h-1.27l1.43 9.07h1.145l.86-4.742.858 4.741h1.115l1.465-9.069zm-13.749 4.582c0 .7-.063 1.338-.127 1.908-.13.7-.54 1.305-1.303 1.305h-1.086v-6.524h1.086c.57 0 .954.288 1.174.925.16.384.256 1.367.256 2.386m1.273-.063c0-.702-.094-1.495-.221-2.166-.16-.92-.543-1.623-1.084-2.006-.317-.25-.698-.346-1.462-.346h-2.325v9.069h2.516c.507 0 .954-.127 1.27-.415.891-.7 1.306-2.034 1.306-4.136m-8.593.796h-1.305l.637-2.611.668 2.611zm2.259 3.755-2.26-9.07h-1.27l-2.26 9.07h1.306l.603-2.482h1.939l.637 2.482h1.305zm-8.146-4.551c0 1.05-.063 1.591-.286 2.323-.224.764-.57 1.113-1.115 1.113-.57 0-.922-.35-1.144-1.113-.19-.732-.288-1.302-.288-2.294 0-1.014.063-1.622.288-2.32.222-.766.573-1.114 1.144-1.114.544 0 .89.348 1.115 1.146.19.666.286 1.24.286 2.259m1.242 0c0-1.368-.127-2.227-.51-3.12-.444-1.112-1.082-1.56-2.133-1.56-1.048 0-1.686.448-2.162 1.53-.383.86-.51 1.782-.51 3.15 0 1.401.127 2.262.51 3.15.444 1.084 1.081 1.566 2.162 1.566 1.017 0 1.689-.482 2.132-1.566.384-.858.51-1.749.51-3.15m-7.924-2.1c0 .732-.413 1.144-1.179 1.144h-1.334v-2.291h1.334c.702 0 1.179.447 1.179 1.147m1.274 6.65-1.304-4.454c.857-.32 1.304-1.115 1.304-2.196 0-1.464-.954-2.418-2.39-2.418h-2.702v9.069h1.305v-4.265h1.242l1.207 4.265h1.338zM-1294.733-3645.818c0-1.305-.761-2.29-2.513-3.308-.667-.384-.857-.637-.857-1.084 0-.605.473-1.048 1.081-1.048.574 0 1.017.414 1.051 1.048h1.238c-.03-1.365-1.015-2.355-2.289-2.355-1.305 0-2.323 1.05-2.323 2.355 0 .798.38 1.495 1.115 2.006 1.845 1.241 1.335.89 1.525 1.08.541.415.734.798.734 1.306 0 .733-.573 1.371-1.275 1.371-.89 0-1.271-.798-1.271-1.562h-1.274c0 1.496.954 2.84 2.545 2.84 1.402 0 2.513-1.185 2.513-2.65m-6.14 2.482v-1.27h-3.31v-2.993h1.879v-1.238h-1.88v-2.294h2.96v-1.274h-4.264v9.07h4.616zm-5.855 0v-1.207h-3.311v-7.862h-1.305v9.07h4.616zm-6.588-9.069h-1.274v9.07h1.274v-9.07zm-3.247 9.07v-9.07h-1.305l-1.684 5.092-1.689-5.092h-1.305v9.07h1.305v-5.093l1.689 5.093 1.684-5.093v5.093h1.305zm-12.03-3.18c0-1.72-1.017-2.896-2.482-2.896-.347 0-.571.033-1.018.19l.097-1.91h3.056v-1.274h-4.268l-.22 4.522 1.242.156c.317-.286.666-.447 1.08-.447.765 0 1.242.608 1.242 1.593 0 1.243-.702 2.135-1.688 2.135-.444 0-.795-.13-1.242-.447l-.858.92c.668.51 1.432.805 2.23.805 1.622 0 2.83-1.439 2.83-3.347m-10.375-4.68v-1.21h-4.616v1.21h1.656v7.86h1.306v-7.86h1.654zm-5.155 7.86-1.973-4.71 1.812-4.36h-1.367l-1.146 2.737-1.144-2.737h-1.369l1.847 4.36-1.974 4.71h1.369l1.271-3.087 1.276 3.087h1.398zm-6.14 0v-1.272h-3.31v-2.992h1.874v-1.238h-1.874v-2.294h2.96v-1.274h-4.265v9.07h4.614zm-6.557 0v-9.07h-1.305v5.443l-2.482-5.443h-1.305v9.07h1.305v-6.076l2.799 6.075h.988z" style="fill:#000;fill-opacity:1;fill-rule:evenodd;stroke:none" transform="matrix(.80836 0 0 .80836 1106.776 2971.252)"/>
</svg>
