<svg xmlns="http://www.w3.org/2000/svg" width="66.028" height="33.007">
    <path d="M-1292.941-3634.823h-70.758c-3.006 0-5.46-2.455-5.463-5.463l.01-29.906c0-3.004 2.454-5.46 5.463-5.463h70.749c3.004 0 5.463 2.458 5.46 5.46v29.903c0 3.005-2.459 5.463-5.46 5.463" style="fill:#dd7500;fill-opacity:1;fill-rule:nonzero;stroke:none" transform="matrix(.80836 0 0 .80836 1106.776 2971.252)"/>
    <path d="M-1293.235-3636.242h-70.171c-2.383 0-4.333-1.951-4.338-4.334l.01-29.322a4.348 4.348 0 0 1 4.334-4.334h70.166a4.346 4.346 0 0 1 4.334 4.334v29.319a4.346 4.346 0 0 1-4.331 4.334" style="fill:#000;fill-opacity:1;fill-rule:evenodd;stroke:none" transform="matrix(.80836 0 0 .80836 1106.776 2971.252)"/>
    <path d="M-1293.254-3638.428h-70.137a2.17 2.17 0 0 1-2.165-2.165v-29.291c0-1.19.973-2.165 2.167-2.165h70.13a2.17 2.17 0 0 1 2.167 2.165v29.288c0 1.189-.975 2.164-2.166 2.164" style="fill:#dd7500;fill-opacity:1;fill-rule:evenodd;stroke:none" transform="matrix(.80836 0 0 .80836 1106.776 2971.252)"/>
    <path d="M-1304.494-3664.71c0 .734-.411 1.147-1.178 1.147h-1.335v-2.295h1.335c.7 0 1.178.45 1.178 1.148m1.274 6.65-1.305-4.454c.858-.317 1.305-1.115 1.305-2.196 0-1.465-.954-2.419-2.386-2.419h-2.706v9.07h1.305v-4.262h1.242l1.208 4.262h1.337zm-8.591-3.754h-1.305l.634-2.609.67 2.61zm2.257 3.755-2.257-9.07h-1.276l-2.26 9.07h1.306l.608-2.484h1.939l.637 2.484h1.303zm-6.873-6.651c-.096-.828-.223-1.208-.574-1.655-.414-.604-1.051-.925-1.781-.925-1.783 0-2.703 1.562-2.703 4.488 0 3.342.857 4.908 2.799 4.908 1.27 0 2.227-1.087 2.259-2.582h-1.305c0 .668-.193 1.305-.954 1.305-1.114 0-1.562-1.052-1.562-3.66 0-2.357.383-3.184 1.432-3.184.608 0 .957.414 1.084 1.305h1.305zm-10.66-1.208v-1.21h-4.616v1.21h1.656v7.859h1.303v-7.859h1.656zm-6.968 3.306c0 1.052-.067 1.596-.291 2.326-.22.764-.57 1.115-1.11 1.115-.576 0-.925-.351-1.146-1.115-.193-.73-.29-1.304-.29-2.292 0-1.017.067-1.625.29-2.322.221-.764.57-1.115 1.146-1.115.54 0 .89.35 1.11 1.147.19.665.29 1.239.29 2.256m1.24 0c0-1.364-.127-2.225-.51-3.116-.446-1.115-1.08-1.562-2.13-1.562-1.052 0-1.689.447-2.167 1.531-.38.859-.51 1.783-.51 3.147 0 1.403.13 2.26.51 3.152.447 1.084 1.081 1.566 2.167 1.566 1.017 0 1.684-.482 2.13-1.566.383-.859.51-1.75.51-3.152m-6.398 4.553v-1.208h-3.31v-7.862h-1.306v9.07h4.616zm-6.587-9.07h-1.275v9.07h1.275v-9.07zm-3.787 2.546c0 .827-.415 1.305-1.179 1.305h-1.334v-2.58h1.334c.7 0 1.179.51 1.179 1.275m1.274 0c0-1.525-.957-2.546-2.39-2.546h-2.702v9.07h1.305v-3.978h1.398c1.527 0 2.389-.892 2.389-2.546M-1300.317-3643.349v-1.274h-3.311v-2.99h1.879v-1.24h-1.879v-2.294h2.961v-1.274h-4.265v9.072h4.615zm-6.588 0v-9.072h-1.303l-1.689 5.092-1.685-5.092h-1.305v9.072h1.305v-5.092l1.685 5.092 1.689-5.092v5.092h1.303zm-11.744-9.072h-1.273l-.793 4.841-.861-4.841h-1.018l-.89 4.841-.764-4.841h-1.273l1.432 9.072h1.144l.861-4.741.859 4.741h1.113l1.463-9.072zm-9.227 4.521c0 1.052-.063 1.591-.288 2.323-.223.764-.574 1.115-1.113 1.115-.572 0-.922-.351-1.146-1.115-.19-.732-.286-1.305-.286-2.292 0-1.019.063-1.622.286-2.323.224-.763.574-1.114 1.146-1.114.54 0 .89.35 1.113 1.147.19.668.288 1.239.288 2.26m1.242 0c0-1.372-.127-2.226-.51-3.12-.45-1.112-1.083-1.559-2.133-1.559-1.052 0-1.686.447-2.163 1.528-.384.858-.51 1.779-.51 3.15 0 1.401.126 2.26.51 3.15.446 1.081 1.08 1.565 2.163 1.565 1.02 0 1.684-.484 2.134-1.565.382-.86.509-1.749.509-3.15m-6.398 4.551v-1.21h-3.31v-7.862h-1.305v9.072h4.615zm-5.856 0v-1.21h-3.31v-7.862h-1.305v9.072h4.615zm-7.671-4.55c0 1.05-.06 1.59-.285 2.322-.222.764-.573 1.115-1.113 1.115-.575 0-.925-.351-1.149-1.115-.19-.732-.283-1.305-.283-2.292 0-1.019.063-1.622.283-2.323.224-.763.574-1.114 1.149-1.114.54 0 .89.35 1.113 1.147.19.668.285 1.239.285 2.26m1.245 0c0-1.372-.13-2.226-.512-3.12-.444-1.112-1.084-1.559-2.131-1.559-1.048 0-1.689.447-2.163 1.528-.384.858-.51 1.779-.51 3.15 0 1.401.126 2.26.51 3.15.443 1.081 1.08 1.565 2.163 1.565 1.018 0 1.687-.484 2.13-1.565.383-.86.513-1.749.513-3.15m-6.397-3.247v-1.274h-4.616v9.072h1.305v-4.263h1.815v-1.242h-1.815v-2.293h3.31z" style="fill:#000;fill-opacity:1;fill-rule:evenodd;stroke:none" transform="matrix(.80836 0 0 .80836 1106.776 2971.252)"/>
</svg>
