<?xml version="1.0" encoding="utf-8"?>
<!-- Generator: Adobe Illustrator 27.7.0, SVG Export Plug-In . SVG Version: 6.00 Build 0)  -->
<svg version="1.1" id="For_Sheets" xmlns="http://www.w3.org/2000/svg" xmlns:xlink="http://www.w3.org/1999/xlink" x="0px" y="0px"
	 viewBox="0 0 173.3 130.1" style="enable-background:new 0 0 173.3 130.1;" xml:space="preserve">
<style type="text/css">
	.st0{fill:#FFFFFF;}
</style>
<g>
	<g>
		<path class="st0" d="M11.1,130c-6,0-10.9-4.9-10.9-10.9v-108C0.1,5,5,0.1,11.1,0.1h151.2c6,0,10.9,4.9,10.9,10.9v108
			c0,6-4.9,10.9-10.9,10.9H11.1z"/>
		<path d="M162.2,0.2c6,0,10.8,4.8,10.8,10.8v108c0,6-4.8,10.8-10.8,10.8H11c-6,0-10.8-4.8-10.8-10.8V11c0-6,4.8-10.8,10.8-10.8
			H162.2 M162.2,0H11C5,0,0,5,0,11v108c0,6.1,5,11.1,11,11.1h151.2c6.1,0,11-5,11-11.1V11C173.3,5,168.3,0,162.2,0L162.2,0z"/>
	</g>
	<path d="M11,127.2c-4.5,0-8.1-3.6-8.1-8.1v-108C2.9,6.6,6.6,3,11,3h151.2c4.5,0,8.1,3.6,8.1,8.1v108c0,4.5-3.6,8.1-8.1,8.1H11z
		 M162.2,122.7c2,0,3.6-1.6,3.6-3.6v-108c0-2-1.6-3.6-3.6-3.6H11c-2,0-3.6,1.6-3.6,3.6v108c0,2,1.6,3.6,3.6,3.6H162.2z"/>
	<g>
		<path d="M59.3,111.8h-3.4V93.3h-4.9v-3h13.4v3h-5V111.8z"/>
		<path d="M67.6,104.1V90.2H71v13.9c0,2.8,1.6,4.6,3.9,4.6c2.3,0,3.9-1.8,3.9-4.6V90.2h3.4v13.9c0,6.8-5.2,8.1-7.4,8.1
			C73,112.2,67.6,111.1,67.6,104.1z"/>
		<path d="M90.9,102.4v9.4h-3.4V90.2h7.8c5,0,6.4,4,6.4,6.1c0,0.8-0.3,4-3.4,5.4l3.8,10.1h-3.7l-3.5-9.4H90.9z M95.2,99
			c2.7,0,3.1-2,3.1-2.7c0-0.9-0.7-2.7-3-2.7h-4.5V99H95.2z"/>
		<path d="M109.3,97.2v14.6h-3.4V90.2h3.4l7.9,13.8V90.2h3.4v21.6h-3L109.3,97.2z"/>
	</g>
	<g>
		<path d="M36.9,18.3h12.7v3.4h-9.3V27h6.3v3.5h-6.3v5.9h10v3.5H36.9V18.3z"/>
		<path d="M59.8,32.6l-3.5,7.2h-3.9l5.4-11.1l-5-10.5h3.9l3.1,6.4l3.1-6.4h3.9l-5.1,10.5l5.5,11.1h-3.9L59.8,32.6z"/>
		<path d="M70.4,29c0-3,0.6-11.1,8-11.1c3.1,0,5.3,1.3,6.7,4.4L82,23.6c-1.1-1.6-1.7-2.3-3.6-2.3c-4.5,0-4.5,6.3-4.5,7.7
			c0,1.3-0.1,7.7,4.6,7.7c1.6,0,2.6-1,3.3-2.5l3.3,1.2c-1.2,3-3.3,4.8-6.5,4.8C70.8,40.2,70.4,31.6,70.4,29z"/>
		<path d="M89.9,18.3h12.7v3.4h-9.3V27h6.3v3.5h-6.3v5.9h10v3.5H89.9V18.3z"/>
		<path d="M114.4,30.5h-4v9.4H107V18.3h8.2c5.1,0,6.5,4.1,6.5,6.1C121.7,25.7,120.9,30.5,114.4,30.5z M110.4,27h4.8c2.7,0,3-2,3-2.7
			c0-1-0.8-2.7-2.9-2.7h-4.9V27z"/>
		<path d="M131.3,39.8h-3.4V21.3H123v-3h13.4v3h-5V39.8z"/>
	</g>
	<g>
		<path d="M51.4,66.4v9.4H48V54.3h7.8c5,0,6.4,4,6.4,6.1c0,0.8-0.3,4-3.4,5.4l3.8,10.1h-3.7l-3.5-9.4H51.4z M55.7,63
			c2.7,0,3.1-2,3.1-2.7c0-0.9-0.7-2.7-3-2.7h-4.5V63H55.7z"/>
		<path d="M66.3,54.3h3.5v21.6h-3.5V54.3z"/>
		<path d="M82.4,53.9c3.5,0,5.4,1.3,6.9,4.8L86,59.9c-0.9-1.9-1.8-2.6-3.5-2.6c-4.7,0-4.5,7.2-4.5,7.7c0,0.8-0.2,7.7,4,7.7
			c2.2,0,3.8-1.4,3.8-3.3v-0.9h-3.9v-3.4h7.3v4.3c0,3.9-2.9,6.8-6.8,6.8c-0.8,0-7.9,0.6-7.9-11.2C74.5,63.4,74.6,53.9,82.4,53.9z"/>
		<path d="M105.3,66.5h-7.9v9.4H94V54.3h3.4V63h7.9v-8.7h3.4v21.6h-3.4V66.5z"/>
		<path d="M120.3,75.8h-3.4V57.3h-4.9v-3h13.4v3h-5V75.8z"/>
	</g>
</g>
</svg>
