<?xml version="1.0" encoding="utf-8"?>
<!-- Generator: Adobe Illustrator 27.7.0, SVG Export Plug-In . SVG Version: 6.00 Build 0)  -->
<svg version="1.1" id="For_Sheets" xmlns="http://www.w3.org/2000/svg" xmlns:xlink="http://www.w3.org/1999/xlink" x="0px" y="0px"
	 viewBox="0 0 259.7 216.5" style="enable-background:new 0 0 259.7 216.5;" xml:space="preserve">
<style type="text/css">
	.st0{fill:#FFFFFF;}
</style>
<g>
	<g>
		<path class="st0" d="M16.4,216.4c-9,0-16.3-7.3-16.3-16.3V16.5c0-9,7.3-16.3,16.3-16.3h226.8c9,0,16.3,7.3,16.3,16.3V200
			c0,9-7.3,16.3-16.3,16.3H16.4z"/>
		<path d="M243.2,0.2c8.9,0,16.2,7.3,16.2,16.2v183.6c0,8.9-7.3,16.2-16.2,16.2H16.5c-8.9,0-16.2-7.3-16.2-16.2V16.5
			c0-8.9,7.3-16.2,16.2-16.2H243.2 M243.2,0H16.5C7.4,0,0,7.4,0,16.5v183.6c0,9.1,7.4,16.4,16.5,16.4h226.8
			c9.1,0,16.5-7.4,16.5-16.4V16.5C259.7,7.4,252.3,0,243.2,0L243.2,0z"/>
	</g>
	<path d="M243.2,211.8H16.5c-6.4,0-11.7-5.3-11.7-11.7V16.5C4.8,10,10,4.8,16.5,4.8h226.8c6.4,0,11.7,5.3,11.7,11.7v183.6
		C254.9,206.5,249.7,211.8,243.2,211.8z M248.7,200.1V16.5c0-3-2.4-5.4-5.4-5.4H16.5c-3,0-5.4,2.4-5.4,5.4v183.6
		c0,3,2.4,5.4,5.4,5.4h226.8C246.2,205.5,248.7,203,248.7,200.1z"/>
	<g>
		<path d="M59.3,178.4h-5.1v-27.9h-7.4V146h20.1v4.5h-7.5V178.4z"/>
		<path d="M76.8,164.3v14.1h-5.1V146h11.7c7.4,0,9.7,5.9,9.7,9.1c0,1.2-0.4,5.9-5,8.1l5.7,15.2h-5.6l-5.2-14.1H76.8z M83.2,159.1
			c4.1,0,4.7-2.9,4.7-4c0-1.4-1.1-4-4.5-4h-6.7v8H83.2z"/>
		<path d="M115.2,169.4H105l-3.2,9.1h-5.5l11.2-32.4h5.1l11.2,32.4h-5.5L115.2,169.4z M106.8,164.1h6.5l-3.2-9.1L106.8,164.1z"/>
		<path d="M133.8,159.1h9.4v5.2h-9.4v14.1h-5.1V146h20.1v5.1h-15V159.1z"/>
		<path d="M158.8,159.1h9.4v5.2h-9.4v14.1h-5.1V146h20.1v5.1h-15V159.1z"/>
		<path d="M178.6,146h5.2v32.4h-5.2V146z"/>
		<path d="M190.9,162.2c0-4.6,0.9-16.7,11.9-16.7c4.7,0,7.9,1.9,10.1,6.6l-4.8,2c-1.7-2.4-2.5-3.4-5.3-3.4c-6.8,0-6.7,9.4-6.7,11.5
			c0,2-0.1,11.6,6.9,11.6c2.5,0,3.9-1.5,5-3.8l4.9,1.8c-1.8,4.5-4.9,7.2-9.8,7.2C191.6,179,190.9,166.1,190.9,162.2z"/>
	</g>
	<g>
		<path d="M118.7,70.5h-5.1V42.6h-7.4v-4.5h20.1v4.5h-7.5V70.5z"/>
		<g>
			<path d="M153.5,54.3c0,1.2,0.2,16.8-11.5,16.8c-11.8,0-11.5-15.6-11.5-16.8c0-1.2-0.2-16.8,11.5-16.8
				C153.8,37.5,153.5,53.1,153.5,54.3z M142.1,65.8c3.5,0,6.3-3.3,6.3-11.5c0-8.2-2.8-11.5-6.3-11.5c-3.5,0-6.3,3.3-6.3,11.5
				C135.7,62.5,138.6,65.8,142.1,65.8z"/>
		</g>
	</g>
	<g>
		<path d="M57.5,102.5v21.9h-5.1V92.1h5.1l11.8,20.7V92.1h5.1v32.4h-4.5L57.5,102.5z"/>
		<path d="M81.5,108.2c0-4.6,0.9-16.7,11.9-16.7c4.7,0,7.9,1.9,10.1,6.6l-4.8,2c-1.7-2.4-2.5-3.4-5.3-3.4c-6.8,0-6.7,9.4-6.7,11.5
			c0,2-0.1,11.6,6.9,11.6c2.5,0,3.9-1.5,5-3.8l4.9,1.8c-1.8,4.5-4.9,7.2-9.8,7.2C82.2,125,81.5,112.1,81.5,108.2z"/>
		<path d="M160.4,105.7l-7.5,18.8l-7.5-18.8v18.8h-5.1V92.1h5.1l7.5,18.2l7.5-18.2h5.1v32.4h-5.1V105.7z"/>
		<path d="M173.3,92.1h5.2v32.4h-5.2V92.1z"/>
		<path d="M191.4,102.5v21.9h-5.1V92.1h5.1l11.8,20.7V92.1h5.1v32.4h-4.5L191.4,102.5z"/>
		<path d="M227.2,91.5c5.2,0,8.1,2,10.3,7.2l-4.9,1.9c-1.4-2.8-2.7-3.9-5.2-3.9c-7.1,0-6.7,10.8-6.7,11.6c0,1.2-0.3,11.5,6,11.5
			c3.3,0,5.7-2,5.7-5v-1.4h-5.9v-5.1h11v6.5c0,5.9-4.3,10.2-10.2,10.2c-1.2,0-11.8,1-11.8-16.8C215.4,105.8,215.6,91.5,227.2,91.5z"
			/>
		<g>
			<path d="M45.2,108.3c0,1.2,0.2,16.8-11.5,16.8s-11.5-15.6-11.5-16.8c0-1.2-0.2-16.8,11.5-16.8S45.2,107.1,45.2,108.3z
				 M33.8,119.8c3.5,0,6.3-3.3,6.3-11.5c0-8.2-2.8-11.5-6.3-11.5c-3.5,0-6.3,3.3-6.3,11.5C27.5,116.5,30.3,119.8,33.8,119.8z"/>
		</g>
		<g>
			<path d="M133.1,108.3c0,1.2,0.2,16.8-11.5,16.8s-11.5-15.6-11.5-16.8c0-1.2-0.2-16.8,11.5-16.8S133.1,107.1,133.1,108.3z
				 M121.6,119.8c3.5,0,6.3-3.3,6.3-11.5c0-8.2-2.8-11.5-6.3-11.5c-3.5,0-6.3,3.3-6.3,11.5C115.3,116.5,118.2,119.8,121.6,119.8z"/>
		</g>
	</g>
</g>
</svg>
