<svg fill="#fff" version="1.1" viewBox="0.95 0.95 12.1 6.1" xmlns="http://www.w3.org/2000/svg">
 <rect x="1" y="1" width="12" height="6" ry="1.5" stroke="#000" stroke-width=".1"/>
 <rect x="1.5" y="1.5" width="11" height="5" ry="1" fill="#a6192e"/>
 <path d="m4.25 3.8125h1.063v0.375h-1.063"/>
 <path transform="matrix(.003 0 0 -.003 9.868 5.5)" d="m669 1e3 -249-548v-452h-144v452l-246 548h151l169-361 165 361zm-699-1e3h-144l-70 274h-214l-67-274h-144l250 1e3h140zm-249 415-73 287-71-287zm-450 585-161-1e3h-124l-94 522-96-522h-125l-159 1e3h140l86-534 98 534h111l96-534 87 534zm-1234-758h-60v-242h-144v242h-414v102l414 656h144v-625h60zm-204 133v375l-238-375z"/>
</svg>
