<?xml version="1.0" encoding="UTF-8" standalone="no"?>
<!-- Generator: Adobe Illustrator 12.0.1, SVG Export Plug-In  -->

<svg
   xmlns:dc="http://purl.org/dc/elements/1.1/"
   xmlns:cc="http://creativecommons.org/ns#"
   xmlns:rdf="http://www.w3.org/1999/02/22-rdf-syntax-ns#"
   xmlns:svg="http://www.w3.org/2000/svg"
   xmlns="http://www.w3.org/2000/svg"
   xmlns:sodipodi="http://sodipodi.sourceforge.net/DTD/sodipodi-0.dtd"
   xmlns:inkscape="http://www.inkscape.org/namespaces/inkscape"
   version="1.1"
   width="280.5"
   height="280.5"
   viewBox="-1 0 280.5 280.5"
   enable-background="new -1 0 289 288"
   xml:space="preserve"
   id="svg2"
   inkscape:version="0.48.2 r9819"
   sodipodi:docname="AJAX1.svg"><metadata
   id="metadata22"><rdf:RDF><cc:Work
       rdf:about=""><dc:format>image/svg+xml</dc:format><dc:type
         rdf:resource="http://purl.org/dc/dcmitype/StillImage" /><dc:title /></cc:Work></rdf:RDF></metadata><sodipodi:namedview
   pagecolor="#ffffff"
   bordercolor="#666666"
   borderopacity="1"
   objecttolerance="10"
   gridtolerance="10"
   guidetolerance="10"
   inkscape:pageopacity="0"
   inkscape:pageshadow="2"
   inkscape:window-width="1280"
   inkscape:window-height="1004"
   id="namedview20"
   showgrid="false"
   fit-margin-top="0"
   fit-margin-left="0"
   fit-margin-right="0"
   fit-margin-bottom="0"
   inkscape:zoom="1.1588695"
   inkscape:cx="-40.106521"
   inkscape:cy="76.56904"
   inkscape:window-x="-8"
   inkscape:window-y="-8"
   inkscape:window-maximized="1"
   inkscape:current-layer="svg2"
   showguides="true"
   inkscape:guide-bbox="true" />
<defs
   id="defs4">
</defs>







<path
   inkscape:connector-curvature="0"
   d="m 278.75938,256.50463 c 0,12.7875 -10.4625,23.25 -23.25,23.25 l -232.4975,0 c -12.7875,0 -23.25,-10.4625 -23.25,-23.25 l 0,-232.4975 c 0,-12.7875 10.4625,-23.25 23.25,-23.25 l 232.4975,0 c 12.7875,0 23.25,10.4625 23.25,23.25 l 0,232.4975 z"
   style="fill:#ffffff;fill-opacity:1;fill-rule:nonzero;stroke:#000000;stroke-width:1.5;stroke-miterlimit:4;stroke-opacity:1;stroke-dasharray:none"
   id="path4642" /><path
   inkscape:connector-curvature="0"
   d="m 255.5095,6.56925 -232.49875,0 c -9.59,0 -17.43625,7.84625 -17.43625,17.4375 l 0,232.4975 c 0,9.59125 7.84625,17.4375 17.43625,17.4375 l 232.49875,0 c 9.59,0 17.4375,-7.84625 17.4375,-17.4375 l 0,-232.4975 c 0,-9.59125 -7.8475,-17.4375 -17.4375,-17.4375 m 7.75,249.935 c 0,4.2625 -3.4875,7.75 -7.75,7.75 l -232.4975,0 c -4.2625,0 -7.75,-3.4875 -7.75,-7.75 l 0,-232.4975 c 0,-4.2625 3.4875,-7.75 7.75,-7.75 l 232.4975,0 c 4.2625,0 7.75,3.4875 7.75,7.75 l 0,232.4975 z"
   style="fill:#000000;fill-opacity:1;fill-rule:nonzero;stroke:none"
   id="path4650" /><path
   inkscape:connector-curvature="0"
   d="m 200.02512,32.77186 c -1.27375,-5.03125 -5.91125,-7.25875 -10.67125,-7.25875 -20.475,-0.005 -40.945,-0.008 -61.42,-0.0163 -10.5575,0 -21.115,-0.005 -31.6725,-0.007 l -7.625,0 c -7.42125,-0.002 -12.87875,7.22125 -9.29625,14.23625 2.7,4.67125 5.40125,9.335 8.09875,14.00125 11.84625,20.48375 23.69125,40.9675 35.53375,61.45 2.73625,4.7275 5.37,9.52875 8.20875,14.1925 3.77625,6.19375 13.0925,5.95625 16.6725,-0.275 1.04,-1.80625 2.07375,-3.605 3.11125,-5.40625 11.29625,-19.65875 22.59625,-39.31625 33.895,-58.97625 4.315,-7.5075 8.62875,-15.01625 12.9425,-22.52375 1.7125,-2.98125 3.085,-5.72875 2.2225,-9.41625 m -27.435,17.56125 -28.825,50.135 c -0.845,1.565 -2.54125,2.5825 -4.335,2.5825 -1.79625,0 -3.49375,-1.0175 -4.34125,-2.5825 l -29.025,-50.1525 c -0.44125,-0.755 -0.69375,-1.65875 -0.69375,-2.5475 0,-2.7175 2.2175,-4.93375 4.94,-4.93375 l 57.3125,0 c 3.46375,0 5.68125,2.21625 5.68125,4.93375 0,0.88875 -0.27,1.81375 -0.71375,2.565"
   style="fill:#af1e2d;fill-opacity:1;fill-rule:nonzero;stroke:none"
   id="path4654" /><path
   inkscape:connector-curvature="0"
   d="m 128.61038,51.48324 -1.9175,0 -2.04875,4.48375 -2.09125,-4.48375 -1.86875,0 3.0475,6.79375 0,5.61625 1.78625,0 0,-5.61625 3.0925,-6.79375 z m 1.6925,12.41 1.74375,0 0,-12.41 -1.74375,0 0,12.41 z m 10.7575,0 0,-1.74125 -4.52875,0 0,-4.095 2.56875,0 0,-1.69375 -2.56875,0 0,-3.13875 4.04625,0 0,-1.74125 -5.8325,0 0,12.41 6.315,0 z m 8.40125,0 0,-1.6525 -4.52625,0 0,-10.7575 -1.78875,0 0,12.41 6.315,0 z m 8.665,-6.225 c 0,-0.95875 -0.13125,-2.04875 -0.3025,-2.96375 -0.2225,-1.25875 -0.74125,-2.21625 -1.48125,-2.74125 -0.43625,-0.34625 -0.96125,-0.48 -2.005,-0.48 l -3.17375,0 0,12.41 3.43625,0 c 0.69625,0 1.30625,-0.17625 1.7425,-0.5625 1.21875,-0.95875 1.78375,-2.79125 1.78375,-5.6625 m -1.74,0.0863 c 0,0.95875 -0.0862,1.82625 -0.175,2.61 -0.17625,0.95625 -0.73875,1.7875 -1.78875,1.7875 l -1.4775,0 0,-8.9275 1.4775,0 c 0.7875,0 1.3125,0.39125 1.6125,1.26625 0.2175,0.5175 0.35125,1.8725 0.35125,3.26375"
   style="fill:#af1e2d;fill-opacity:1;fill-rule:evenodd;stroke:none"
   id="path4658" /><path
   d="m 35.135263,249.97668 7.525,5.3475 16.265,-42.2475 7.53,8.01125 10.43875,31.79875 9.95,-3.6375 -8.98125,-33.5025 -10.435,-18.69625 3.9975,-13.79375 4.2525,5.54125 19.91125,6.5525 2.90875,-4.36625 -18.32875,-12.22875 c -0.85,-3.57875 -4.3675,-19.4825 -11.42,-23.16375 -6.985,-4.61375 -32.73625,14.35625 -32.88625,14.51375 l 0,27.6725 5.58375,-0.96875 2.185,-22.09125 c 2.10375,-0.42375 4.21,-0.8525 6.31375,-1.27125 -4.60125,11.88625 -6.28625,23.3425 -3.64375,30.88875 l -11.16625,45.64125 z m 45.64125,-105.365 c 0,-4.8125 -3.9275,-8.7375 -8.73875,-8.7375 -4.8125,0 -8.74,3.925 -8.74,8.7375 0,4.81375 3.9275,8.73625 8.74,8.73625 4.81125,0 8.73875,-3.9225 8.73875,-8.73625"
   style="fill:#000000;fill-opacity:1;fill-rule:evenodd;stroke:none"
   id="path4602"
   inkscape:connector-curvature="0" /><path
   d="m 213.0845,213.76482 -16.42375,6.385 c -1.60125,0.585 -2.6575,2.1525 -2.57,3.85625 0.1025,2.0075 1.7425,3.62 3.74125,3.66625 l 45.21125,6.23 0.085,-0.0925 -8.0775,-44.915 c -0.13,-1.99625 -1.8125,-3.57125 -3.82125,-3.58875 -1.70875,-0.015 -3.22875,1.10625 -3.74125,2.7275 l -5.5225,16.04 C 201.6545,185.94232 175.382,176.03732 148.252,176.04232 c -8.1875,0 -17.2275,1.29375 -24.915,3.08 l 0.40875,24.53375 c 10.58875,-4.22 23.405,-6.8575 35.09375,-6.8575 19.2225,0 38.44875,6.41375 54.245,16.96625"
   style="fill:#000000;fill-opacity:1;fill-rule:evenodd;stroke:none"
   id="path4606"
   inkscape:connector-curvature="0" /><path
   d="m 173.22111,166.5007 0,-13.8825 -8.3925,0 0,13.8825 -4.40125,0 0,-30.6225 4.40125,0 0,12.47625 8.3925,0 0,-12.47625 4.4,0 0,30.6225 -4.4,0 z"
   style="fill:#000000;fill-opacity:1;fill-rule:nonzero;stroke:none"
   id="path4610"
   inkscape:connector-curvature="0" /><path
   d="m 184.3355,166.5007 0,-30.6225 14.42625,0 0,4.31 -10.02625,0 0,7.7125 6.35125,0 0,4.21875 -6.35125,0 0,10.07125 11.20625,0 0,4.31 -15.60625,0 z"
   style="fill:#000000;fill-opacity:1;fill-rule:nonzero;stroke:none"
   id="path4614"
   inkscape:connector-curvature="0" /><path
   d="m 214.05012,140.18845 -4.53625,0 0,7.7125 4.53625,0 c 2.58625,0 3.9475,-1.40625 3.9475,-3.85625 0,-2.35875 -1.58875,-3.85625 -3.9475,-3.85625 m 3.765,26.3125 -4.0825,-14.38125 -4.21875,0 0,14.38125 -4.40125,0 0,-30.6225 9.165,0 c 4.80875,0 8.02875,3.22125 8.02875,8.16625 0,3.675 -1.4975,6.35125 -4.4,7.395 l 4.4,15.06125 -4.49125,0"
   style="fill:#000000;fill-opacity:1;fill-rule:nonzero;stroke:none"
   id="path4618"
   inkscape:connector-curvature="0" /><path
   d="m 227.52386,166.5007 0,-30.6225 14.42625,0 0,4.31 -10.02625,0 0,7.7125 6.35125,0 0,4.21875 -6.35125,0 0,10.07125 11.205,0 0,4.31 -15.605,0 z"
   style="fill:#000000;fill-opacity:1;fill-rule:nonzero;stroke:none"
   id="path4622"
   inkscape:connector-curvature="0" /><path
   d="m 133.12637,216.5757 0,26.54 -4.44625,0 0,-26.54 -5.58,0 0,-4.08375 15.60625,0 0,4.08375 -5.58,0 z"
   style="fill:#000000;fill-opacity:1;fill-rule:nonzero;stroke:none"
   id="path4626"
   inkscape:connector-curvature="0" /><path
   d="m 155.17375,220.11333 c -0.77125,-2.675 -1.95125,-3.855 -3.765,-3.855 -1.95125,0 -3.085,1.18 -3.90125,3.76625 -0.68125,2.3575 -0.9525,4.4 -0.9525,7.8475 0,3.31125 0.27125,5.2625 0.9525,7.7125 0.725,2.58625 1.95,3.76375 3.90125,3.76375 1.81375,0 2.99375,-1.1775 3.765,-3.76375 0.72625,-2.45 0.9525,-4.31 0.9525,-7.84875 0,-3.4025 -0.3175,-5.35375 -0.9525,-7.6225 m 3.4025,18.2825 c -1.5425,3.63125 -3.765,5.26375 -7.1675,5.26375 -3.675,0 -5.8075,-1.6325 -7.30375,-5.26375 -1.27,-3.03875 -1.725,-5.8975 -1.725,-10.66 0,-4.6275 0.40875,-7.71125 1.725,-10.615 1.5875,-3.67625 3.765,-5.1725 7.30375,-5.1725 3.53875,0 5.625,1.5425 7.1675,5.26125 1.27,3.04 1.72375,5.89875 1.72375,10.52625 0,4.7625 -0.45375,7.7125 -1.72375,10.66"
   style="fill:#000000;fill-opacity:1;fill-rule:nonzero;stroke:none"
   id="path4630"
   inkscape:connector-curvature="0" /></svg>