<?xml version="1.0" encoding="UTF-8" standalone="no"?>
<svg xmlns="http://www.w3.org/2000/svg" xml:space="preserve" width="90.001244" height="270.01001" viewBox="0 -.321 90.001247 270.01005">
  <path fill="#cdff00" fill-rule="evenodd" d="M11.251245-.321h67.50001c6.19625 0 11.25 5.055 11.25 11.25v247.51004c0 6.19625-5.05375 11.25-11.25 11.25h-67.50001c-6.1962501 0-11.25125-5.05375-11.25125-11.25V10.929c0-6.195 5.0549999-11.25 11.25125-11.25"/>
  <path fill-rule="evenodd" d="M15.001245 48.47038h60.00001c4.13125 0 7.5 3.36875 7.5 7.5v165.00753c0 4.13125-3.36875 7.5-7.5 7.5h-60.00001c-4.13125 0-7.5000001-3.36875-7.5000001-7.5V55.97038c0-4.13125 3.3687501-7.5 7.5000001-7.5m57.67451-26.26h-9.21625V7.21913h8.74875v2.36625h-6.405v3.6825h4.32125v2.41875h-4.32125v4.10375h6.8725v2.42zm-11.4025-12.88875h-3.43625v12.88875h-2.34375V9.32163h-3.38375v-2.1025h9.16375v2.1025zm-14.8925 6.26-1.45875-4.20625-1.50875 4.20625h2.9675zm4.79125 6.62875h-2.5l-1.4575-4.20875h-4.635l-1.45875 4.20875h-2.49876l5.10376-14.99125h2.3425l5.10375 14.99125zM37.736995 9.32163h-3.4375v12.88875h-2.3425V9.32163h-3.385v-2.1025h9.165v2.1025zm-10.3625 8.575c0 1.4375-.46 2.56125-1.38 3.36625-.92.80625-2.0225 1.21125-3.30625 1.21125-2.53375 0-4.34-1.26375-5.415-3.78875l2.23875-.84c.65875 1.47125 1.71875 2.2075 3.17625 2.2075 1.5275 0 2.29125-.73625 2.29125-2.2075 0-.8425-.45125-1.50875-1.35375-2-.9375-.35125-1.8925-.71875-2.86375-1.105-1.91-.80625-2.86375-2.05125-2.86375-3.73375 0-2.7 1.54375-4.05 4.63375-4.05 2.01375 0 3.41875 1.015 4.2175 3.05-.8325.28-1.5275.49125-2.0825.63125-.45125-.87625-1.18125-1.31625-2.18625-1.31625-1.59875 0-2.36125.57875-2.2925 1.73625.07.7375.7125 1.31625 1.9275 1.73625 1.87375.59625 3.02 1.035 3.43625 1.315 1.215.80625 1.8225 2.06875 1.8225 3.7875m53.30176 244.36504h-1.69625l-1.97375-5.48251-1.025 1.89375v3.58876h-1.61875v-11.24251h1.61875v4.4975l2.565-4.4975h1.85375l-2.3275 3.94625 2.60375 7.29626zm-7.89125 0h-5.7225v-11.24251h1.6175v9.74376h4.105v1.49875zm-10.0625-4.65501-.83-3.235-.78875 3.235h1.61875zm2.80125 4.65501h-1.6175l-.79-3.07625h-2.4075l-.74875 3.07625h-1.6175l2.8-11.24251h1.58l2.80125 11.24251zm-7.8525-11.24251-1.81625 11.24251h-1.38l-1.06625-5.87876-1.065 5.87876h-1.42125l-1.77625-11.24251h1.57875l.9475 5.99625 1.105-5.99625h1.2625l1.065 5.99625.98625-5.99625h1.58zm-9.55125 8.16626c0 .89375-.3025 1.66375-.9075 2.3075-.605.645-1.34125.9675-2.21.9675-.94625 0-1.70875-.3425-2.2875-1.02625-.57875-.68375-.86875-1.51375-.86875-2.485h1.57875c0 1.28875.525 1.93125 1.5775 1.93125.4225 0 .79-.17125 1.10625-.5125.315-.3425.47375-.735.47375-1.1825 0-.57751-.30375-1.11751-.90875-1.61751.1325.0775-.49875-.36875-1.895-1.34125-.92-.65875-1.38-1.48625-1.38-2.485 0-.815.27625-1.50625.82875-2.0725.55125-.56375 1.23625-.8475 2.0525-.8475.78875 0 1.45375.27625 1.9925.8275.53875.555.8225 1.25.8475 2.0925h-1.5375c-.0538-.86875-.4875-1.30375-1.3025-1.30375-.36875 0-.685.1275-.9475.37625-.2625.24875-.395.55875-.395.9275 0 .4975.35625.945 1.065 1.34 2.07875 1.21125 3.1175 2.57875 3.1175 4.10376m-7.61625 0c0 .89375-.3025 1.66375-.90625 2.3075-.60625.645-1.34376.9675-2.21126.9675-.94625 0-1.71-.3425-2.28875-1.02625-.57875-.68375-.8675-1.51375-.8675-2.485h1.5775c0 1.28875.52625 1.93125 1.57875 1.93125.42125 0 .79-.17125 1.105-.5125.31625-.3425.47376-.735.47376-1.1825 0-.57751-.30251-1.11751-.90751-1.61751.1325.0775-.5-.36875-1.89375-1.34125-.92125-.65875-1.38125-1.48625-1.38125-2.485 0-.815.27625-1.50625.8275-2.0725.55375-.56375 1.2375-.8475 2.05375-.8475.78875 0 1.45251.27625 1.99251.8275.53875.555.8225 1.25.8475 2.0925h-1.53875c-.0525-.86875-.48626-1.30375-1.30126-1.30375-.36875 0-.685.1275-.9475.37625-.26375.24875-.395.55875-.395.9275 0 .4975.35625.945 1.065 1.34 2.07876 1.21125 3.11751 2.57875 3.11751 4.10376m-9.51001-2.56501c0-1.13125-.11875-2.06375-.355-2.8-.29-.9475-.75-1.42125-1.38125-1.42125-.68375 0-1.1575.46125-1.42 1.38125-.2375.7625-.35625 1.72125-.35625 2.87875 0 1.07875.11875 2.02625.35625 2.84126.2625.92125.73625 1.38 1.42 1.38.65875 0 1.11875-.45875 1.38125-1.38.23625-.78751.355-1.75001.355-2.88001m1.53875 0c0 1.60375-.21 2.90751-.63125 3.90626-.525 1.28875-1.4075 1.93375-2.64375 1.93375-1.2625 0-2.15625-.645-2.6825-1.93375-.42125-.99875-.6325-2.30251-.6325-3.90626 0-1.63125.21125-2.9325.6325-3.90375.55125-1.265 1.44625-1.895 2.6825-1.895s2.11875.645 2.64375 1.93375c.42125.99875.63125 2.2875.63125 3.865m-9.865-2.6025c0-.9475-.4875-1.42125-1.46-1.42125h-1.6575v2.84125h1.6575c.9725 0 1.46-.4725 1.46-1.42m1.57875 8.24376h-1.65875l-1.49875-5.28501h-1.53875v5.28501h-1.6175v-11.24251h3.35375c.89375 0 1.61125.26875 2.15125.80875.54.53875.80875 1.26875.80875 2.19 0 1.39375-.54 2.3-1.6175 2.72125l1.6175 5.52251zm-8.56375-8.24376h-1.6175c-.13125-1.08-.57875-1.61875-1.3425-1.61875-.6575 0-1.1175.29-1.38125.86875-.2625.57875-.39375 1.60375-.39375 3.07625 0 3.02501.64375 4.53626 1.93375 4.53626.78875 0 1.18375-.5375 1.18375-1.61625h1.6175c-.0262.9475-.3025 1.71625-.82875 2.3075-.52625.5925-1.18375.88875-1.9725.88875-2.31625 0-3.4737501-2.02625-3.4737501-6.07751 0-3.70875 1.1187501-5.56125 3.3550001-5.56125.9475 0 1.68375.38125 2.21 1.145.3675.47125.605 1.1575.71 2.05125m48.03213-226.19253-2.20875 14.99h-2.10375l-2.3675-9.625-2.31375 9.625h-2.10375l-2.20875-14.99h2.41875l1.1575 7.89125 1.89375-7.89125h2.31375l1.94625 7.89125 1.1575-7.89125h2.41875zm-19.0925 8.36375-1.4725-4.20875-1.52625 4.20875h2.99875zm4.83875 6.62625h-2.525l-1.4725-4.20625h-4.68125l-1.4725 4.20625h-2.52501l5.15501-14.99h2.3675l5.15375 14.99zm-13.57126 0h-9.30875v-14.99h2.3675v12.78125h6.94125v2.20875zm28.99326 202.56503h-1.2225l-3.47125-7.535v7.535h-1.6175v-11.24375h1.6175l3.0775 6.74625v-6.74625h1.61625v11.24375zm-8.78875 0h-1.5775v-11.24375h1.5775v11.24375zm-4.02875 0h-1.6175v-5.09125h-3.07625v5.09125h-1.6175v-11.24375h1.6175v4.57625h3.07625v-4.57625h1.6175v11.24375zm-7.84875-9.74375h-2.05125v9.74375h-1.6175v-9.74375h-2.05001v-1.5h5.71876v1.5zm-7.32876 9.74375h-1.5775v-11.24375h1.5775v11.24375zm-3.12375-11.24375-1.81375 11.24375h-1.38l-1.065-5.88-1.065 5.88h-1.42l-1.775-11.24375h1.57875l.94625 5.99625 1.10375-5.99625h1.2625l1.065 5.99625.98625-5.99625h1.57625z"/>
  <path fill="#fff" fill-rule="evenodd" d="M15.024495 50.34538h55.51251c3.2175 0 7.03875-.5975 9.12625 2.4875 1.1975 1.7675.9625 3.905.9625 5.9275V220.8554c0 3.61625-2.91125 5.7475-6.2925 5.7475h-57.44626c-1.175 0-2.41625.1-3.55375-.25375-2.23625-.69875-3.8050001-2.75625-3.9487501-5.08125-.0987-1.60375-.009-3.23875-.009-4.84375V56.09163c0-3.12625 2.4887501-5.73625 5.6487501-5.74625"/>
  <path fill-rule="evenodd" d="M51.406265 136.60777c0-1.34-.2225-2.3925-.66875-3.15625-.31625-.55125-.80375-.84-1.46-.86625-.8425-.0537-1.445.4075-1.81375 1.37875-.29.7375-.435 1.61875-.435 2.64375 0 1.345.225 2.38375.67125 3.11875.3425.5775.855.86625 1.53875.86625.7875 0 1.36625-.47375 1.735-1.41875.28875-.70875.4325-1.56375.4325-2.56625m1.775 0c0 1.94875-.4075 3.46-1.2225 4.53625-.60375.84251-1.5125 1.26251-2.72 1.26251-1.5 0-2.5775-.66875-3.235-2.01126-.525-1.05-.78875-2.3125-.78875-3.7875 0-1.945.4075-3.47125 1.2225-4.575.63-.8425 1.59125-1.26375 2.87875-1.26375 1.39375 0 2.43125.67125 3.11625 2.01375.5 1.05.74875 2.32625.74875 3.825m-9.39251-4.0625h-2.60375v9.66626h-1.775v-9.66626h-2.5625v-1.57875h6.94125v1.57875zm-2.02113 19.00013c2.4925 0 4.52626 2.03375 4.52626 4.52875 0 2.4925-2.03376 4.52625-4.52626 4.52625-2.49375 0-4.5275-2.03375-4.5275-4.52625 0-2.495 2.03375-4.52875 4.5275-4.52875m-13.7085 28.5525 9.4975-6.33375c.43875-1.8575 2.26-10.095 5.9125-12.00125 3.61876-2.39375 16.96001 7.43375 17.03626 7.51375v14.34375l-2.8925-.5025-1.13125-11.45125c-1.09125-.21875-2.18-.43625-3.27-.65625 2.38125 6.1625 3.25625 12.095 1.88625 16.00625l5.78625 23.64375-3.89875 2.76625-8.4275-21.8825-3.89876 4.15125-5.4075 16.47375-5.15625-1.8875 4.65375-17.3525 5.4075-9.68625-2.0725-7.1475-2.20375 2.8725-10.3125 3.395-1.50875-2.265z"/>
  <path fill="#af1e2d" fill-rule="evenodd" d="M12.966375 71.08288c-1.5225-2.97875.0788-6.72625 3.4-7.49125.62625-.145 1.2425-.1375 1.87625-.1375 1.99.001 3.98.001 5.97125.001 7.4825.002 14.9675.005 22.45.006 7.12126.001 14.24126.004 21.36376.005 1.5375.001 3.07625.001 4.6125.001 3.95375 0 6.36375 4.45125 4.43375 7.81-6.38375 11.10875-12.76875 22.21625-19.1525 33.32501-2.66625 4.63875-5.33125 9.275-7.99751 13.9125-1.53375 2.67125-4.72125 4.0175-7.525 2.255-1.46125-.91875-2.2275-2.645-3.06875-4.0975-7.1575-12.37625-14.31375-24.75376-21.47125-37.12876-1.63125-2.82-3.26125-5.64125-4.8925-8.46125"/>
  <path fill="#fff" fill-rule="evenodd" d="M47.480505 103.62414c-.45375.835-1.36375 1.38375-2.32375 1.38375-.96125 0-1.87001-.54875-2.32501-1.38375l-15.55-26.87c-.2375-.40375-.37125-.88875-.37125-1.36375 0-1.45625 1.1875-2.645 2.64375-2.645h30.70751c1.8525 0 3.04125 1.18875 3.04125 2.645 0 .475-.145.97-.3825 1.3725l-15.44 26.86125z"/>
  <path fill="#af1e2d" fill-rule="evenodd" d="M54.240755 80.74026c0 .5125-.0475.97875-.0937 1.39875-.0937.5125-.3975.9575-.95625.9575h-.79375v-4.7825h.79375c.42 0 .7.21.8625.67625.11625.28.1875 1.0025.1875 1.75m.9325-.0475c0-.51375-.0713-1.09625-.16375-1.58625-.1175-.67625-.39625-1.18875-.79375-1.46875-.23125-.1875-.5125-.25625-1.07125-.25625h-1.70375v6.6475h1.8425c.37375 0 .70125-.0937.9325-.30375.655-.51375.9575-1.49375.9575-3.0325m-4.64125 3.33625v-.88625h-2.42625v-5.76125h-.9575v6.6475h3.38375zm-4.50125 0v-.9325h-2.4275v-2.19375h1.3775v-.91h-1.3775v-1.67875h2.17125v-.9325h-3.12625v6.6475h3.3825zm-4.83001-6.6475h-.9325v6.6475h.9325v-6.6475zm-1.8425 0h-1.02625l-1.095 2.40125-1.12125-2.40125h-1.0025l1.6325 3.6375v3.01h.95625v-3.01l1.65625-3.6375z"/>
</svg>