<?xml version="1.0" encoding="utf-8"?>
<!-- Generator: Adobe Illustrator 27.7.0, SVG Export Plug-In . SVG Version: 6.00 Build 0)  -->
<svg version="1.1" id="For_Sheets" xmlns="http://www.w3.org/2000/svg" xmlns:xlink="http://www.w3.org/1999/xlink" x="0px" y="0px"
	 viewBox="0 0 86.9 259.7" style="enable-background:new 0 0 86.9 259.7;" xml:space="preserve">
<style type="text/css">
	.st0{fill:#BED73D;}
	.st1{fill:#FFFFFF;}
	.st2{fill:#BF311A;}
</style>
<g>
	<g>
		<path class="st0" d="M11,259.6c-6,0-10.9-4.9-10.9-10.9V11.1C0.1,5,5,0.1,11,0.1h64.8c6,0,10.9,4.9,10.9,10.9v237.6
			c0,6-4.9,10.9-10.9,10.9H11z"/>
		<path d="M75.9,0.2c6,0,10.8,4.8,10.8,10.8v237.6c0,6-4.8,10.8-10.8,10.8H11.1c-6,0-10.8-4.8-10.8-10.8V11c0-6,4.8-10.8,10.8-10.8
			H75.9 M75.9,0H11.1C5,0,0,5,0,11v237.6c0,6.1,5,11.1,11.1,11.1h64.8c6.1,0,11.1-5,11.1-11.1V11C86.9,5,81.9,0,75.9,0L75.9,0z"/>
	</g>
	<path d="M79.5,212.6c0,4-3.2,7.2-7.2,7.2H14.7c-4,0-7.2-3.2-7.2-7.2V54.2c0-4,3.2-7.2,7.2-7.2h57.6c4,0,7.2,3.2,7.2,7.2V212.6z"/>
	<path class="st1" d="M14.7,218c-3,0-5.4-2.4-5.4-5.4V54.2c0-3,2.4-5.4,5.4-5.4h57.6c3,0,5.4,2.4,5.4,5.4v158.4c0,3-2.4,5.4-5.4,5.4
		H14.7z"/>
	<g>
		<path class="st2" d="M39.2,114.7L12.7,69c-2-3.4,0.5-7.6,4.4-7.6l52.7,0c3.9,0,6.3,4.2,4.4,7.6l-26.2,45.7
			C46,118.1,41.1,118.1,39.2,114.7z M26.1,74.2l15.2,26.3c1,1.7,3.4,1.7,4.3,0l15.1-26.3c1-1.7-0.2-3.7-2.2-3.7l-30.4,0
			C26.4,70.4,25.2,72.5,26.1,74.2z"/>
		<g>
			<path class="st2" d="M36.4,81.2h-0.9v-2.9l-1.6-3.4h1l1.1,2.3l1-2.3h1l-1.6,3.4V81.2z"/>
			<path class="st2" d="M38.8,74.9h0.9v6.3h-0.9V74.9z"/>
			<path class="st2" d="M41.1,74.9h3v0.9H42v1.6h1.3v0.9H42v2.1h2.3v0.9h-3.2V74.9z"/>
			<path class="st2" d="M45.4,74.9h0.9v5.5h2.3v0.8h-3.2V74.9z"/>
			<path class="st2" d="M49.5,81.2v-6.3h1.8c0.4,0,1.7,0,1.7,3.1c0,2.9-1.2,3.2-1.7,3.2H49.5z M51.1,75.8h-0.7v4.5H51
				c0.7,0,1.1-0.3,1.1-2.2C52.1,75.9,51.6,75.8,51.1,75.8z"/>
		</g>
	</g>
	<g>
		<g>
			<g>
				<g>
					<path d="M25.6,41.7V27.2h2.3v12.3h6.7v2.1H25.6z"/>
				</g>
			</g>
			<g>
				<g>
					<path d="M59.2,41.7h-2l-2.3-9.2l-2.2,9.2h-2l-2.1-14.4h2.3l1.1,7.6l1.8-7.6H56l1.9,7.6l1.1-7.6h2.3L59.2,41.7z"/>
				</g>
			</g>
			<g>
				<g>
					<path d="M45.2,41.7l-1.4-4h-4.5l-1.4,4h-2.4l5-14.4h2.3l5,14.4H45.2z M41.5,31.2l-1.5,4H43L41.5,31.2z"/>
				</g>
			</g>
		</g>
		<g>
			<g>
				<g>
					<path d="M38.5,236v-10.8H40V236H38.5z"/>
				</g>
			</g>
			<g>
				<g>
					<path d="M47.2,236l-3.3-7.2v7.2h-1.6v-10.8h1.6l2.9,6.5v-6.5h1.6V236H47.2z"/>
				</g>
			</g>
		</g>
		<g>
			<path d="M16.5,18.5l2.2-0.8c0.6,1.4,1.7,2.1,3.1,2.1c1.3,0,2.2-0.9,2.2-2.1c0-1.9-2.2-2.2-4.1-3c-0.9-0.4-2.8-1.2-2.8-3.6
				c0-2.8,1.9-3.9,4.5-3.9c2,0,3.4,1.2,4.1,2.9l-2,0.6c-0.2-0.6-1-1.3-2.1-1.3c-2.1,0-2.2,1.1-2.2,1.5c0,1.3,1.2,1.6,3,2.2
				c1.9,0.6,3.9,1.5,3.9,4.6c0,3.1-2.5,4.4-4.5,4.4C19.3,22.1,17.5,20.6,16.5,18.5z"/>
			<path d="M33,21.8h-2.3V9.5h-3.3v-2h8.9v2H33V21.8z"/>
			<path d="M45.6,17.8h-4.5l-1.4,4h-2.4l5-14.4h2.3l5,14.4h-2.4L45.6,17.8z M41.9,15.5h2.9l-1.4-4L41.9,15.5z"/>
			<path d="M56,21.8h-2.3V9.5h-3.3v-2h8.9v2H56V21.8z"/>
			<path d="M61.5,7.4h8.5v2.3h-6.2v3.5h4.2v2.3h-4.2v3.9h6.7v2.3h-8.9V7.4z"/>
		</g>
		<g>
			<path d="M13.6,244.3c-0.1-1.1-0.6-1.6-1.3-1.6c-1.3,0-1.7,1-1.7,3.8c0,3.1,0.5,4.4,1.9,4.4c0.9,0,1.1-0.8,1.1-1.6h1.6
				c0,1.8-1.2,3.1-2.7,3.1c-2.3,0-3.3-1.9-3.3-5.8c0-3.5,1.1-5.3,3.2-5.3c2,0,2.8,1.8,2.8,3.1H13.6z"/>
			<path d="M20.4,247.2h-1.5v5.1h-1.5v-10.8h3.2c1.7,0,2.8,1.1,2.8,2.9c0,1.3-0.5,2.2-1.6,2.6l1.5,5.3h-1.6L20.4,247.2z M18.9,243
				v2.7h1.6c0.9,0,1.4-0.5,1.4-1.4c0-0.8-0.6-1.4-1.4-1.4H18.9z"/>
			<path d="M25,246.8c0-5.7,2.6-5.6,3.2-5.6c0.6,0,3.2-0.1,3.2,5.6c0,5.7-2.6,5.6-3.2,5.6C27.7,252.4,25,252.5,25,246.8z
				 M28.2,242.8c-0.3,0-1.7-0.1-1.7,4.1c0,4.2,1.4,4.1,1.7,4.1c0.3,0,1.7,0.1,1.7-4.1C29.9,242.7,28.5,242.8,28.2,242.8z"/>
			<path d="M36.1,245.4c1.2,0.7,3,1.8,3,3.9c0,1.7-1.3,3.1-3,3.1c-1.9,0-3-1.6-3-3.4h1.5c0,0.9,0.5,1.9,1.5,1.9
				c0.8,0,1.5-0.8,1.5-1.6c0-2.3-4-2.2-4-5.2c0-1.6,1.2-2.8,2.8-2.8c1.5,0,2.7,1.2,2.7,2.8h-1.5c0-0.8-0.6-1.3-1.3-1.3
				c-0.7,0-1.3,0.5-1.3,1.2C35,244.8,35.4,244.9,36.1,245.4z"/>
			<path d="M43.5,245.4c1.2,0.7,3,1.8,3,3.9c0,1.7-1.3,3.1-3,3.1c-1.9,0-3-1.6-3-3.4h1.5c0,0.9,0.5,1.9,1.5,1.9
				c0.8,0,1.5-0.8,1.5-1.6c0-2.3-4-2.2-4-5.2c0-1.6,1.2-2.8,2.8-2.8c1.5,0,2.7,1.2,2.7,2.8h-1.5c0-0.8-0.6-1.3-1.3-1.3
				c-0.7,0-1.3,0.5-1.3,1.2C42.4,244.8,42.8,244.9,43.5,245.4z"/>
			<path d="M52.5,252.2l-1-5.6l-1,5.6h-1.4l-1.7-10.8h1.5l0.9,5.8l1.1-5.8h1.2l1,5.8l1-5.8h1.5l-1.7,10.8H52.5z"/>
			<path d="M60.9,249.3h-2.3l-0.7,3h-1.6l2.7-10.8h1.5l2.7,10.8h-1.6L60.9,249.3z M58.9,247.8h1.6l-0.8-3.1L58.9,247.8z"/>
			<path d="M64.7,241.4h1.6v9.4h4v1.4h-5.5V241.4z"/>
			<path d="M74.2,247l-1,1.8v3.5h-1.5v-10.8h1.5v4.3l2.5-4.3h1.8l-2.2,3.8l2.5,7h-1.6L74.2,247z"/>
		</g>
	</g>
	<g>
		<path d="M39.7,137H38v-9.3h-2.5v-1.5h6.7v1.5h-2.5V137z"/>
		<path d="M51.3,131.6c0,0.4,0.1,5.6-3.8,5.6s-3.8-5.2-3.8-5.6s-0.1-5.6,3.8-5.6S51.3,131.3,51.3,131.6z M47.5,135.5
			c1.2,0,2.1-1.1,2.1-3.8s-0.9-3.8-2.1-3.8c-1.2,0-2.1,1.1-2.1,3.8C45.4,134.4,46.4,135.5,47.5,135.5z"/>
	</g>
	<path d="M36.5,158.6c0,2.3-1.9,4.2-4.2,4.2c-2.3,0-4.2-1.9-4.2-4.2c0-2.3,1.9-4.2,4.2-4.2C34.6,154.4,36.5,156.3,36.5,158.6z
		 M50.6,146c-2.4,0-4.4,2-4.4,4.4s2,4.4,4.4,4.4c2.4,0,4.4-2,4.4-4.4S53.1,146,50.6,146z M34.5,162.8c-0.7,0.4-1.4,0.6-2.3,0.6
		c-0.4,0-0.8,0-1.1-0.1l-2.5,2.7l-2.6,8.2l-4.9,4.6l1.4,1.3l5.8-3.8l0.7-3l0.9,2.8l-3.7,11.4l1.3,0.4l-3.9,14.6l2.1,0.7l5.5-14.6
		l2.2,0.2l6.1,14.2l2.1-0.7l-4.4-13.8c0.4-0.1,0.9-0.2,1.3-0.3c0.4-0.1,0.8-0.2,1.2-0.3l-2.2-6.8l5.5-1.3l-1.2-5.6h-1.3l0.9-1.4
		l-0.2-0.3l4.8-1.3l1.2-2.1l1.8,7.6l-3.5,11.2l-1,17.1l3.9,0.3l1.4-14.2l2.4-5.3l1.8,7.2l6.8,12.6l3.5-1.7l-6.3-13.1l0.7-11.3l6.8-2
		l-1.8-6.6l-1.7,0.2l0.6-3.5L57.2,157l-3-1.3l-0.5-1.2c-0.8,0.7-1.9,1-3.1,1c-0.2,0-0.3,0-0.5,0l-0.2,1l-2.3,2.1l-2.9,9.7l-4.2,1.7
		l-2.4-5.3L34.5,162.8z M37.5,174.6l-0.9,0.2l0.8-3.7l0.7,1.6L37.5,174.6z M56.8,164.5l3,4.5l-0.7,2.8l-1,0.2L56.8,164.5z"/>
</g>
</svg>
