<?xml version="1.0" encoding="utf-8"?>
<!-- Generator: Adobe Illustrator 27.7.0, SVG Export Plug-In . SVG Version: 6.00 Build 0)  -->
<svg version="1.1" id="For_Sheets" xmlns="http://www.w3.org/2000/svg" xmlns:xlink="http://www.w3.org/1999/xlink" x="0px" y="0px"
	 viewBox="0 0 173.3 216.5" style="enable-background:new 0 0 173.3 216.5;" xml:space="preserve">
<style type="text/css">
	.st0{fill:#FFFFFF;}
</style>
<g>
	<g>
		<path class="st0" d="M11.1,216.4c-6,0-10.9-4.9-10.9-10.9V11C0.1,5,5,0.1,11.1,0.1h151.2c6,0,10.9,4.9,10.9,10.9v194.4
			c0,6-4.9,10.9-10.9,10.9H11.1z"/>
		<path d="M162.2,0.2c5.9,0,10.8,4.9,10.8,10.8v194.4c0,5.9-4.9,10.8-10.8,10.8H11c-5.9,0-10.8-4.9-10.8-10.8V11.1
			C0.2,5.1,5.1,0.2,11,0.2H162.2 M162.2,0H11C5,0,0,5,0,11.1v194.4c0,6.1,5,11,11,11h151.2c6.1,0,11-5,11-11V11.1
			C173.3,5,168.3,0,162.2,0L162.2,0z"/>
	</g>
	<path d="M11,213.6c-4.5,0-8.1-3.6-8.1-8.1V11.1C2.9,6.6,6.6,3,11,3h151.2c4.5,0,8.1,3.6,8.1,8.1v194.4c0,4.5-3.6,8.1-8.1,8.1H11z"
		/>
	<path class="st0" d="M11,209.1c-2,0-3.6-1.6-3.6-3.6V11.1c0-2,1.6-3.6,3.6-3.6h151.2c2,0,3.6,1.6,3.6,3.6v194.4
		c0,2-1.6,3.6-3.6,3.6H11z"/>
	<g>
		<path d="M55.5,68.7l-4.1-22.6l-4.1,22.6h-5.5L35,25.5h6.1l3.7,23l4.3-23h4.9l4.1,23l3.8-23h6.1l-7,43.2H55.5z"/>
		<path d="M88.8,56.8h-9.3l-2.9,11.8h-6.2l10.8-43.2h6.1l10.8,43.2h-6.2L88.8,56.8z M81.1,50.8h6.2l-3.2-12.4L81.1,50.8z"/>
		<path d="M104.2,25.5h6v43.2h-6V25.5z"/>
		<path d="M130.4,68.7h-6.2V31.2h-7.9v-5.8h22v5.8h-7.9V68.7z"/>
	</g>
	<g>
		<path d="M57.5,108.2c0-22.6,10.5-22.3,12.8-22.3c2.3,0,12.7-0.3,12.7,22.3c0,22.8-10.4,22.4-12.7,22.4
			C68,130.6,57.5,131,57.5,108.2z M70.2,92c-1.2,0-6.8-0.3-6.8,16.2c0,16.6,5.6,16.4,6.8,16.4c1.2,0,6.8,0.3,6.8-16.4
			C77,91.7,71.5,92,70.2,92z"/>
		<path d="M97.8,100.9v28.9h-6.2V86.7h6.2l11.8,25.9V86.7h6.2v43.2h-4.7L97.8,100.9z"/>
	</g>
	<g>
		<path d="M42.2,163.6c4.7,3,11.8,7.1,11.8,15.6c0,7-5.3,12.6-12,12.6c-7.6,0-12.2-6.4-12.2-13.5h6.1c0,3.7,1.8,7.4,6.1,7.4
			c3.3,0,6.1-3,6.1-6.5c0-9.4-16.1-8.9-16.1-20.9c0-6.2,4.9-11.2,11.1-11.2c6.1,0,10.8,4.7,11,11.2h-5.9c-0.2-3-2.3-5-5-5
			c-2.9,0-5.2,2.1-5.2,5C37.9,161.1,39.4,161.8,42.2,163.6z"/>
		<path d="M72,191h-6.2v-37.4h-7.9v-5.8h22v5.8H72V191z"/>
		<path d="M85.1,169.4c0-22.6,10.5-22.3,12.8-22.3c2.3,0,12.7-0.3,12.7,22.3c0,22.8-10.4,22.4-12.7,22.4
			C95.6,191.8,85.1,192.2,85.1,169.4z M97.9,153.2c-1.2,0-6.8-0.3-6.8,16.2c0,16.6,5.6,16.4,6.8,16.4c1.2,0,6.8,0.3,6.8-16.4
			C104.7,152.9,99.1,153.2,97.9,153.2z"/>
		<path d="M125.5,172.1V191h-6.2v-43.2h12.9c6.8,0,11.3,4.9,11.3,12.1c0,7.9-4.1,12.1-11.3,12.1H125.5z M125.5,166.2h6.4
			c3.6,0,5.6-2.3,5.6-6.2c0-3.6-2.3-6.1-5.6-6.1h-6.4V166.2z"/>
	</g>
</g>
</svg>
