<?xml version="1.0" encoding="utf-8"?>
<!-- Generator: Adobe Illustrator 27.7.0, SVG Export Plug-In . SVG Version: 6.00 Build 0)  -->
<svg version="1.1" id="For_Sheets" xmlns="http://www.w3.org/2000/svg" xmlns:xlink="http://www.w3.org/1999/xlink" x="0px" y="0px"
	 viewBox="0 0 173.3 216.5" style="enable-background:new 0 0 173.3 216.5;" xml:space="preserve">
<style type="text/css">
	.st0{fill:#FFFFFF;}
</style>
<g>
	<g>
		<path class="st0" d="M11.1,216.4c-6,0-10.9-4.9-10.9-10.9V11C0.1,5,5,0.1,11.1,0.1h151.2c6,0,10.9,4.9,10.9,10.9v194.4
			c0,6-4.9,10.9-10.9,10.9H11.1z"/>
		<path d="M162.2,0.2c6,0,10.8,4.8,10.8,10.8v194.4c0,6-4.8,10.8-10.8,10.8H11c-6,0-10.8-4.8-10.8-10.8V11.1c0-6,4.8-10.8,10.8-10.8
			H162.2 M162.2,0H11C5,0,0,5,0,11.1v194.4c0,6.1,5,11,11,11h151.2c6.1,0,11-5,11-11V11.1C173.3,5,168.3,0,162.2,0L162.2,0z"/>
	</g>
	<path d="M170.3,11.1v194.4c0,4.5-3.6,8.1-8.1,8.1H11c-4.5,0-8.1-3.6-8.1-8.1V11.1C2.9,6.6,6.6,3,11,3h151.2
		C166.7,3,170.3,6.6,170.3,11.1z M165.8,11.1c0-2-1.6-3.6-3.6-3.6H11c-2,0-3.6,1.6-3.6,3.6v194.4c0,2,1.6,3.6,3.6,3.6h151.2
		c2,0,3.6-1.6,3.6-3.6V11.1z"/>
	<g>
		<path d="M71.3,69.4c-3.9,0-13.4-0.7-13.4-22.3s9-22.4,12.9-22.4c6.2,0,11,4.5,11.3,10.9h-6.2c-0.2-2.9-2.1-4.9-5.2-4.9
			c-2.1,0-6.8,0.7-6.8,16.4s5.2,16.2,7.3,16.2c3.2,0,4.7-2.1,4.7-6.7v-2.9H71v-6.1h11.1v8.9C82.1,67.5,75,69.4,71.3,69.4z"/>
		<path d="M89.9,47c0-22.6,10.5-22.3,12.8-22.3c2.3,0,12.7-0.3,12.7,22.3c0,22.8-10.4,22.4-12.7,22.4C100.4,69.4,89.9,69.8,89.9,47z
			 M102.6,30.8c-1.2,0-6.8-0.3-6.8,16.2c0,16.6,5.6,16.4,6.8,16.4c1.2,0,6.8,0.3,6.8-16.4C109.4,30.5,103.9,30.8,102.6,30.8z"/>
	</g>
	<g>
		<path d="M57.5,108.2c0-22.6,10.5-22.3,12.8-22.3c2.3,0,12.7-0.3,12.7,22.3c0,22.8-10.4,22.4-12.7,22.4
			C68,130.6,57.5,131,57.5,108.2z M70.2,92c-1.2,0-6.8-0.3-6.8,16.2c0,16.6,5.6,16.4,6.8,16.4c1.2,0,6.8,0.3,6.8-16.4
			C77,91.7,71.5,92,70.2,92z"/>
		<path d="M97.8,100.9v28.9h-6.2V86.7h6.2l11.8,25.9V86.7h6.2v43.2h-4.7L97.8,100.9z"/>
	</g>
	<g>
		<path d="M37.9,163.6c4.7,3,11.8,7.1,11.8,15.6c0,7-5.3,12.6-12,12.6c-7.6,0-12.2-6.4-12.2-13.5h6.1c0,3.7,1.8,7.4,6.1,7.4
			c3.3,0,6.1-3,6.1-6.5c0-9.4-16.1-8.9-16.1-20.9c0-6.2,4.9-11.2,11.1-11.2c6.1,0,10.8,4.7,11,11.2h-5.9c-0.2-3-2.3-5-5-5
			c-2.9,0-5.2,2.1-5.2,5C33.6,161.1,35.1,161.8,37.9,163.6z"/>
		<path d="M57,147.9h6.2v37.4h15.8v5.8H57V147.9z"/>
		<path d="M84.3,169.4c0-22.6,10.5-22.3,12.8-22.3c2.3,0,12.7-0.3,12.7,22.3c0,22.8-10.4,22.4-12.7,22.4
			C94.8,191.8,84.3,192.2,84.3,169.4z M97,153.2c-1.2,0-6.8-0.3-6.8,16.2c0,16.6,5.6,16.4,6.8,16.4c1.2,0,6.8,0.3,6.8-16.4
			C103.8,152.9,98.2,153.2,97,153.2z"/>
		<path d="M135.5,191l-4.1-22.6l-4.1,22.6h-5.5l-6.8-43.2h6.1l3.7,23l4.3-23h4.9l4.1,23l3.8-23h6.1l-7,43.2H135.5z"/>
	</g>
</g>
</svg>
