<?xml version="1.0" encoding="UTF-8" standalone="no"?>
<!-- Generator: Adobe Illustrator 12.0.1, SVG Export Plug-In  -->

<svg
   xmlns:dc="http://purl.org/dc/elements/1.1/"
   xmlns:cc="http://creativecommons.org/ns#"
   xmlns:rdf="http://www.w3.org/1999/02/22-rdf-syntax-ns#"
   xmlns:svg="http://www.w3.org/2000/svg"
   xmlns="http://www.w3.org/2000/svg"
   xmlns:sodipodi="http://sodipodi.sourceforge.net/DTD/sodipodi-0.dtd"
   xmlns:inkscape="http://www.inkscape.org/namespaces/inkscape"
   version="1.1"
   width="208.21875"
   height="277.125"
   viewBox="-1 0 208.21875 277.125"
   enable-background="new -1 0 289 288"
   xml:space="preserve"
   id="svg2"
   inkscape:version="0.48.2 r9819"
   sodipodi:docname="AJAX1.svg"><metadata
   id="metadata22"><rdf:RDF><cc:Work
       rdf:about=""><dc:format>image/svg+xml</dc:format><dc:type
         rdf:resource="http://purl.org/dc/dcmitype/StillImage" /><dc:title></dc:title></cc:Work></rdf:RDF></metadata><sodipodi:namedview
   pagecolor="#ffffff"
   bordercolor="#666666"
   borderopacity="1"
   objecttolerance="10"
   gridtolerance="10"
   guidetolerance="10"
   inkscape:pageopacity="0"
   inkscape:pageshadow="2"
   inkscape:window-width="1280"
   inkscape:window-height="1004"
   id="namedview20"
   showgrid="false"
   fit-margin-top="0"
   fit-margin-left="0"
   fit-margin-right="0"
   fit-margin-bottom="0"
   inkscape:zoom="1.638889"
   inkscape:cx="48.069183"
   inkscape:cy="151.29114"
   inkscape:window-x="-8"
   inkscape:window-y="-8"
   inkscape:window-maximized="1"
   inkscape:current-layer="svg2"
   showguides="true"
   inkscape:guide-bbox="true" />
<defs
   id="defs4">
</defs>







<path
   inkscape:connector-curvature="0"
   d="m 206.46362,241.91624 c 0,18.94875 -15.5025,34.45125 -34.45125,34.45125 l -137.80625,0 c -18.94875,0 -34.45125,-15.5025 -34.45125,-34.45125 l 0,-206.70875 c 0,-18.94875 15.5025,-34.45125 34.45125,-34.45125 l 137.80625,0 c 18.94875,0 34.45125,15.5025 34.45125,34.45125 l 0,206.70875 z"
   style="fill:#ffffff;fill-opacity:1;fill-rule:nonzero;stroke:#000000;stroke-width:1.5;stroke-miterlimit:4;stroke-opacity:1;stroke-dasharray:none"
   id="path9318" /><path
   inkscape:connector-curvature="0"
   d="m 172.01211,9.36864 -137.80625,0 c -14.21125,0 -25.83875,11.6275 -25.83875,25.83875 l 0,206.70875 c 0,14.21125 11.6275,25.83875 25.83875,25.83875 l 137.80625,0 c 14.21125,0 25.83875,-11.6275 25.83875,-25.83875 l 0,-206.70875 c 0,-14.21125 -11.6275,-25.83875 -25.83875,-25.83875 m 17.22625,232.5475 c 0,9.47375 -7.7525,17.22625 -17.22625,17.22625 l -137.80625,0 c -9.47375,0 -17.225,-7.7525 -17.225,-17.22625 l 0,-206.70875 c 0,-9.475 7.75125,-17.22625 17.225,-17.22625 l 137.80625,0 c 9.47375,0 17.22625,7.75125 17.22625,17.22625 l 0,206.70875 z"
   style="fill:#000000;fill-opacity:1;fill-rule:nonzero;stroke:none"
   id="path9326" /><path
   inkscape:connector-curvature="0"
   d="m 57.18,132.8175 91.87,0 0,68.91 -91.87,0 0,-68.91 z"
   style="fill:#000000;fill-opacity:1;fill-rule:evenodd;stroke:none"
   id="path9328" /><path
   inkscape:connector-curvature="0"
   d="m 57.17387,239.04537 56.98875,0 -3.0575,10.18875 c -0.0975,0.31875 -0.15,0.6575 -0.15,1.0075 0,1.9025 1.5425,3.44625 3.445,3.44625 0.72125,0 1.39,-0.22125 1.9425,-0.6 l 32.7025,-22.655 -32.7025,-22.65625 c -0.5525,-0.3775 -1.22125,-0.59875 -1.9425,-0.59875 -1.9025,0 -3.445,1.5425 -3.445,3.445 0,0.35125 0.0525,0.68875 0.15,1.00875 l 3.0575,10.1875 -56.98875,0 0,17.22625 z"
   style="fill:#000000;fill-opacity:1;fill-rule:nonzero;stroke:none"
   id="path9336" /><path
   inkscape:connector-curvature="0"
   d="m 74.3485,42.42862 -4.4925,0 0,10.0075 -3.6425,0 0,-22.975 8.71375,0 c 5.34375,0 6.91,4.3225 6.91,6.4325 0,1.77 -1.09,6.535 -7.48875,6.535 m 0.74875,-9.32625 -5.24125,0 0,5.61625 5.24125,0 c 1.80375,0 3.06375,-1.19125 3.06375,-2.825 0,-1.36125 -1.055,-2.79125 -3.06375,-2.79125"
   style="fill:#000000;fill-opacity:1;fill-rule:nonzero;stroke:none"
   id="path9340" /><path
   inkscape:connector-curvature="0"
   d="m 99.90988,48.96387 c -1.19125,2.28 -3.94875,3.88 -6.77375,3.88 -2.825,0 -5.61625,-1.6 -6.7725,-3.88 -0.68125,-1.3275 -1.055,-2.96125 -1.055,-4.765 l 0,-14.73875 3.64125,0 0,14.73875 c 0,2.995 1.6675,4.935 4.18625,4.935 2.485,0 4.18625,-1.94 4.18625,-4.935 l 0,-14.73875 3.60875,0 0,14.73875 c 0,1.80375 -0.34,3.4375 -1.02125,4.765"
   style="fill:#000000;fill-opacity:1;fill-rule:nonzero;stroke:none"
   id="path9344" /><path
   inkscape:connector-curvature="0"
   d="m 113.218,52.84388 c -3.94875,0 -6.84125,-2.34875 -8.37375,-5.82 l 3.4725,-1.29375 c 0.9525,2.17875 2.7225,3.40375 4.90125,3.40375 2.11,0 3.54,-1.46375 3.54,-3.40375 0,-3.06375 -3.54,-3.54 -6.535,-4.73125 -1.3625,-0.57875 -4.425,-1.94 -4.425,-5.7175 0,-4.5275 3.0625,-6.23 7.18125,-6.23 3.23375,0 5.4125,1.8725 6.535,4.6975 l -3.2325,0.95375 c -0.34125,-1.02125 -1.805,-2.00875 -3.43875,-2.00875 -1.735,0 -3.64125,0.545 -3.505,2.655 0.34,4.255 11.13,1.46375 11.13,10.48375 0,4.18625 -3.13125,7.01125 -7.25,7.01125"
   style="fill:#000000;fill-opacity:1;fill-rule:nonzero;stroke:none"
   id="path9348" /><path
   inkscape:connector-curvature="0"
   d="m 136.3965,52.4355 0,-10.0075 -8.3725,0 0,10.0075 -3.6425,0 0,-22.975 3.6425,0 0,9.25875 8.3725,0 0,-9.25875 3.6075,0 0,22.975 -3.6075,0 z"
   style="fill:#000000;fill-opacity:1;fill-rule:nonzero;stroke:none"
   id="path9352" /><path
   inkscape:connector-curvature="0"
   d="m 60.92162,86.31786 c -0.8175,0.34125 -2.17875,0.57875 -3.23375,0.57875 l -8.71375,0 0,-22.975 8.71375,0 c 3.60875,0 6.365,2.485 6.365,5.82 0,2.2475 -1.055,3.94875 -3.23375,5.14 2.41625,1.1225 3.77875,3.06375 3.77875,5.5825 0,2.48375 -1.49875,4.96875 -3.67625,5.85375 m -2.995,-18.75375 -5.31,0 0,5.61625 4.62875,0 c 1.80375,0 3.16625,-1.49875 3.16625,-3.3025 0,-1.53125 -0.885,-2.31375 -2.485,-2.31375 m -0.1025,9.32625 -5.2075,0 0,6.29625 5.48,0 c 1.8375,0 2.825,-0.885 2.825,-2.655 0,-2.11 -1.4975,-3.64125 -3.0975,-3.64125"
   style="fill:#000000;fill-opacity:1;fill-rule:nonzero;stroke:none"
   id="path9356" /><path
   inkscape:connector-curvature="0"
   d="m 83.11338,83.42513 c -1.19125,2.28 -3.94875,3.88 -6.77375,3.88 -2.825,0 -5.61625,-1.6 -6.7725,-3.88 -0.68125,-1.3275 -1.05625,-2.96125 -1.05625,-4.76625 l 0,-14.7375 3.6425,0 0,14.7375 c 0,2.99625 1.6675,4.93625 4.18625,4.93625 2.485,0 4.1875,-1.94 4.1875,-4.93625 l 0,-14.7375 3.6075,0 0,14.7375 c 0,1.805 -0.34,3.43875 -1.02125,4.76625"
   style="fill:#000000;fill-opacity:1;fill-rule:nonzero;stroke:none"
   id="path9360" /><path
   inkscape:connector-curvature="0"
   d="m 96.45514,67.155 0,19.74125 -3.6425,0 0,-19.74125 -5.24125,0 0,-3.23375 14.19375,0 0,3.23375 -5.31,0 z"
   style="fill:#000000;fill-opacity:1;fill-rule:nonzero;stroke:none"
   id="path9364" /><path
   inkscape:connector-curvature="0"
   d="m 112.0095,67.155 0,19.74125 -3.6425,0 0,-19.74125 -5.24125,0 0,-3.23375 14.19375,0 0,3.23375 -5.31,0 z"
   style="fill:#000000;fill-opacity:1;fill-rule:nonzero;stroke:none"
   id="path9368" /><path
   inkscape:connector-curvature="0"
   d="m 134.06475,84.7185 c -1.3275,1.73625 -3.13125,2.58625 -5.5475,2.58625 -3.23375,0 -5.2075,-1.2925 -6.60375,-4.11875 -0.9525,-1.94 -1.63375,-5.00375 -1.63375,-7.72625 0,-3.8125 0.95375,-7.215 2.51875,-9.36 1.3275,-1.80375 3.23375,-2.58625 5.88875,-2.58625 6.365,0 7.89625,6.8075 7.89625,11.94625 0,3.60875 -0.91875,7.21625 -2.51875,9.25875 m -5.3775,-17.495 c -2.0425,0 -2.995,0.81625 -3.8125,2.825 -0.54375,1.36125 -0.885,3.47125 -0.885,5.41125 0,2.4175 0.51125,4.90125 1.39625,6.365 0.71375,1.19125 1.6675,1.77 3.13125,1.77 1.70125,0 2.75625,-0.885 3.54,-2.8925 0.47625,-1.22625 0.885,-3.4725 0.885,-5.2425 0,-2.65375 -0.57875,-8.23625 -4.255,-8.23625"
   style="fill:#000000;fill-opacity:1;fill-rule:nonzero;stroke:none"
   id="path9372" /><path
   inkscape:connector-curvature="0"
   d="m 154.04437,86.89664 -8.78125,-15.555 0,15.555 -3.6425,0 0,-22.975 3.6425,0 8.3725,14.67 0,-14.67 3.6075,0 0,22.975 -3.19875,0 z"
   style="fill:#000000;fill-opacity:1;fill-rule:nonzero;stroke:none"
   id="path9376" /><path
   inkscape:connector-curvature="0"
   d="m 79.65812,102.00662 0,5.61625 6.67125,0 0,3.71 -6.67125,0 0,10.00625 -3.6425,0 0,-22.97375 14.26125,0 0,3.64125 -10.61875,0 z"
   style="fill:#000000;fill-opacity:1;fill-rule:nonzero;stroke:none"
   id="path9380" /><path
   inkscape:connector-curvature="0"
   d="m 107.02337,119.16125 c -1.3275,1.73625 -3.13125,2.5875 -5.5475,2.5875 -3.23375,0 -5.20875,-1.29375 -6.60375,-4.11875 -0.9525,-1.94 -1.63375,-5.00375 -1.63375,-7.7275 0,-3.81125 0.9525,-7.215 2.51875,-9.36 1.3275,-1.80375 3.23375,-2.58625 5.88875,-2.58625 6.365,0 7.89625,6.8075 7.89625,11.94625 0,3.60875 -0.91875,7.21625 -2.51875,9.25875 m -5.3775,-17.495 c -2.0425,0 -2.99625,0.8175 -3.8125,2.825 -0.545,1.36125 -0.885,3.47125 -0.885,5.41125 0,2.4175 0.51,4.90125 1.395,6.365 0.715,1.19125 1.66875,1.77 3.1325,1.77 1.70125,0 2.75625,-0.88375 3.54,-2.8925 0.47625,-1.225 0.88375,-3.4725 0.88375,-5.2425 0,-2.65375 -0.57875,-8.23625 -4.25375,-8.23625"
   style="fill:#000000;fill-opacity:1;fill-rule:nonzero;stroke:none"
   id="path9384" /><path
   inkscape:connector-curvature="0"
   d="m 126.25411,121.33939 -3.71,-10.00625 -4.3225,0 0,10.00625 -3.6425,0 0,-22.975 8.33875,0 c 5.27625,0 6.8075,4.22125 6.8075,6.43375 0,2.45 -1.42875,4.86625 -3.54,5.82 l 4.0175,10.72125 -3.94875,0 z m -3.2,-19.3325 -4.8325,0 0,5.61625 4.79875,0 c 1.77,0 3.0975,-1.26 3.0975,-2.825 0,-1.49875 -1.29375,-2.79125 -3.06375,-2.79125"
   style="fill:#000000;fill-opacity:1;fill-rule:nonzero;stroke:none"
   id="path9388" /><path
   inkscape:connector-curvature="0"
   d="m 107.86424,147.63975 c 2.19625,0 3.99,-1.79125 3.99,-3.9875 0,-2.2025 -1.79375,-3.99375 -3.99,-3.99375 -2.19625,0 -3.99,1.79125 -3.99,3.99375 0,2.19625 1.79375,3.9875 3.99,3.9875 m 1.66,16.19 9.09625,2.99375 1.3275,-1.99375 -8.37375,-5.5825 c -0.38625,-1.63625 -1.9875,-8.9 -5.215,-10.58 -3.18375,-2.10875 -14.94625,6.555 -15.015,6.62 l 0,12.645 2.55125,-0.4425 1,-10.09625 c 0.96,-0.18375 1.91625,-0.38625 2.88125,-0.57375 -2.105,5.43 -2.87125,10.66125 -1.66625,14.10625 l -5.1025,20.84375 3.445,2.43625 7.42,-19.28875 3.44,3.66 4.76625,14.5225 4.5475,-1.66875 -4.105,-15.29625 -4.76625,-8.53625 1.82875,-6.30125 1.94,2.5325 z"
   style="fill:#ffffff;fill-opacity:1;fill-rule:evenodd;stroke:none"
   id="path9332" /></svg>