<?xml version="1.0" encoding="UTF-8" standalone="no"?>
<!-- Generator: Adobe Illustrator 12.0.1, SVG Export Plug-In  -->

<svg
   xmlns:dc="http://purl.org/dc/elements/1.1/"
   xmlns:cc="http://creativecommons.org/ns#"
   xmlns:rdf="http://www.w3.org/1999/02/22-rdf-syntax-ns#"
   xmlns:svg="http://www.w3.org/2000/svg"
   xmlns="http://www.w3.org/2000/svg"
   xmlns:sodipodi="http://sodipodi.sourceforge.net/DTD/sodipodi-0.dtd"
   xmlns:inkscape="http://www.inkscape.org/namespaces/inkscape"
   version="1.1"
   width="208.21875"
   height="277.09375"
   viewBox="-1 0 208.21875 277.09375"
   enable-background="new -1 0 289 288"
   xml:space="preserve"
   id="svg2"
   inkscape:version="0.48.2 r9819"
   sodipodi:docname="AJAX1.svg"><metadata
   id="metadata22"><rdf:RDF><cc:Work
       rdf:about=""><dc:format>image/svg+xml</dc:format><dc:type
         rdf:resource="http://purl.org/dc/dcmitype/StillImage" /><dc:title></dc:title></cc:Work></rdf:RDF></metadata><sodipodi:namedview
   pagecolor="#ffffff"
   bordercolor="#666666"
   borderopacity="1"
   objecttolerance="10"
   gridtolerance="10"
   guidetolerance="10"
   inkscape:pageopacity="0"
   inkscape:pageshadow="2"
   inkscape:window-width="1280"
   inkscape:window-height="1004"
   id="namedview20"
   showgrid="false"
   fit-margin-top="0"
   fit-margin-left="0"
   fit-margin-right="0"
   fit-margin-bottom="0"
   inkscape:zoom="2.3177391"
   inkscape:cx="94.276749"
   inkscape:cy="149.97113"
   inkscape:window-x="-8"
   inkscape:window-y="-8"
   inkscape:window-maximized="1"
   inkscape:current-layer="svg2"
   showguides="true"
   inkscape:guide-bbox="true" />
<defs
   id="defs4">
</defs>







<path
   inkscape:connector-curvature="0"
   d="m 206.45926,241.90013 c 0,18.94875 -15.5025,34.45125 -34.45125,34.45125 l -137.80625,0 c -18.948748,0 -34.451248,-15.5025 -34.451248,-34.45125 l 0,-206.70875 c 0,-18.94875 15.5025,-34.45125 34.451248,-34.45125 l 137.80625,0 c 18.94875,0 34.45125,15.5025 34.45125,34.45125 l 0,206.70875 z"
   style="fill:#ffffff;fill-opacity:1;fill-rule:nonzero;stroke:#000000;stroke-width:1.5;stroke-miterlimit:4;stroke-opacity:1;stroke-dasharray:none"
   id="path5585" /><path
   inkscape:connector-curvature="0"
   d="m 172.00775,9.3525 -137.80625,0 C 19.99025,9.3525 8.36275,20.98 8.36275,35.19125 l 0,206.70875 c 0,14.21125 11.6275,25.83875 25.83875,25.83875 l 137.80625,0 c 14.21125,0 25.83875,-11.6275 25.83875,-25.83875 l 0,-206.70875 C 197.8465,20.98 186.219,9.3525 172.00775,9.3525 M 189.234,241.9 c 0,9.47375 -7.7525,17.22625 -17.22625,17.22625 l -137.80625,0 c -9.47375,0 -17.225,-7.7525 -17.225,-17.22625 l 0,-206.70875 c 0,-9.475 7.75125,-17.22625 17.225,-17.22625 l 137.80625,0 c 9.47375,0 17.22625,7.75125 17.22625,17.22625 l 0,206.70875 z"
   style="fill:#000000;fill-opacity:1;fill-rule:nonzero;stroke:none"
   id="path5593" /><path
   inkscape:connector-curvature="0"
   d="m 55.735,129.93125 94.74125,0 0,86.12875 -94.74125,0 0,-86.12875 z"
   style="fill:#000000;fill-opacity:1;fill-rule:evenodd;stroke:none"
   id="path5595" /><path
   inkscape:connector-curvature="0"
   d="m 65.29037,52.829 c -3.37,0 -5.5475,-1.29375 -7.01125,-4.11875 -1.02125,-2.0075 -1.7025,-4.90125 -1.7025,-7.8275 0,-3.60875 0.9875,-7.25 2.5875,-9.25875 1.36125,-1.7025 3.30125,-2.5875 5.88875,-2.5875 3.47125,0 5.65,1.46375 7.18125,4.6975 l -3.40375,1.43 c -1.25875,-1.94 -2.00875,-2.41625 -3.7775,-2.41625 -1.83875,0 -3.06375,0.81625 -3.88125,2.825 -0.54375,1.36125 -0.885,3.36875 -0.885,5.31 0,2.5175 0.545,5.03625 1.46375,6.46625 0.7825,1.225 1.8725,1.77 3.4725,1.77 1.53125,0 2.65375,-0.81625 3.54,-2.655 l 3.47125,1.29375 c -1.36125,3.37 -3.6425,5.07125 -6.94375,5.07125"
   style="fill:#000000;fill-opacity:1;fill-rule:nonzero;stroke:none"
   id="path5603" /><path
   inkscape:connector-curvature="0"
   d="m 88.946,52.42062 -3.71,-10.0075 -4.3225,0 0,10.0075 -3.6425,0 0,-22.975 8.34,0 c 5.275,0 6.80625,4.22125 6.80625,6.4325 0,2.45125 -1.42875,4.8675 -3.53875,5.82125 l 4.01625,10.72125 -3.94875,0 z m -3.19875,-19.3325 -4.83375,0 0,5.615 4.79875,0 c 1.77,0 3.0975,-1.25875 3.0975,-2.825 0,-1.4975 -1.29375,-2.79 -3.0625,-2.79"
   style="fill:#000000;fill-opacity:1;fill-rule:nonzero;stroke:none"
   id="path5607" /><path
   inkscape:connector-curvature="0"
   d="m 110.1165,50.24238 c -1.3275,1.73625 -3.13125,2.58625 -5.5475,2.58625 -3.23375,0 -5.2075,-1.2925 -6.60375,-4.1175 -0.9525,-1.94125 -1.63375,-5.00375 -1.63375,-7.7275 0,-3.81125 0.95375,-7.215 2.51875,-9.36 1.3275,-1.80375 3.23375,-2.58625 5.88875,-2.58625 6.365,0 7.89625,6.8075 7.89625,11.94625 0,3.60875 -0.91875,7.21625 -2.51875,9.25875 m -5.3775,-17.495 c -2.0425,0 -2.995,0.81625 -3.8125,2.825 -0.545,1.36125 -0.885,3.47125 -0.885,5.41125 0,2.4175 0.51125,4.90125 1.39625,6.365 0.71375,1.19125 1.6675,1.77 3.13125,1.77 1.70125,0 2.75625,-0.885 3.54,-2.8925 0.47625,-1.225 0.885,-3.4725 0.885,-5.2425 0,-2.655 -0.57875,-8.23625 -4.255,-8.23625"
   style="fill:#000000;fill-opacity:1;fill-rule:nonzero;stroke:none"
   id="path5611" /><path
   inkscape:connector-curvature="0"
   d="m 124.44575,52.829 c -3.94875,0 -6.84125,-2.34875 -8.3725,-5.82 l 3.47125,-1.29375 c 0.9525,2.17875 2.7225,3.40375 4.90125,3.40375 2.11,0 3.54,-1.46375 3.54,-3.40375 0,-3.06375 -3.54,-3.54 -6.535,-4.73125 -1.36125,-0.57875 -4.425,-1.94 -4.425,-5.7175 0,-4.5275 3.06375,-6.23 7.18125,-6.23 3.23375,0 5.4125,1.8725 6.535,4.6975 l -3.2325,0.95375 c -0.34125,-1.02125 -1.80375,-2.00875 -3.43875,-2.00875 -1.735,0 -3.64125,0.545 -3.505,2.655 0.34,4.255 11.13,1.46375 11.13,10.48375 0,4.18625 -3.13125,7.01125 -7.25,7.01125"
   style="fill:#000000;fill-opacity:1;fill-rule:nonzero;stroke:none"
   id="path5615" /><path
   inkscape:connector-curvature="0"
   d="m 142.38301,52.829 c -3.94875,0 -6.84125,-2.34875 -8.37375,-5.82 l 3.4725,-1.29375 c 0.9525,2.17875 2.7225,3.40375 4.90125,3.40375 2.11,0 3.54,-1.46375 3.54,-3.40375 0,-3.06375 -3.54,-3.54 -6.535,-4.73125 -1.3625,-0.57875 -4.425,-1.94 -4.425,-5.7175 0,-4.5275 3.0625,-6.23 7.18125,-6.23 3.23375,0 5.4125,1.8725 6.535,4.6975 l -3.2325,0.95375 c -0.34125,-1.02125 -1.805,-2.00875 -3.43875,-2.00875 -1.735,0 -3.64125,0.545 -3.505,2.655 0.34,4.255 11.13,1.46375 11.13,10.48375 0,4.18625 -3.13125,7.01125 -7.25,7.01125"
   style="fill:#000000;fill-opacity:1;fill-rule:nonzero;stroke:none"
   id="path5619" /><path
   inkscape:connector-curvature="0"
   d="m 78.00326,84.69388 c -1.3275,1.73625 -3.13125,2.58625 -5.5475,2.58625 -3.23375,0 -5.2075,-1.2925 -6.60375,-4.1175 -0.9525,-1.94125 -1.63375,-5.00375 -1.63375,-7.7275 0,-3.81125 0.95375,-7.215 2.51875,-9.36 1.3275,-1.80375 3.23375,-2.58625 5.88875,-2.58625 6.365,0 7.89625,6.8075 7.89625,11.94625 0,3.60875 -0.91875,7.21625 -2.51875,9.25875 m -5.3775,-17.495 c -2.0425,0 -2.995,0.81625 -3.8125,2.825 -0.545,1.36125 -0.885,3.47125 -0.885,5.41125 0,2.4175 0.51125,4.90125 1.395,6.365 0.715,1.19125 1.66875,1.77 3.1325,1.77 1.70125,0 2.75625,-0.885 3.54,-2.8925 0.47625,-1.225 0.885,-3.4725 0.885,-5.2425 0,-2.655 -0.57875,-8.23625 -4.255,-8.23625"
   style="fill:#000000;fill-opacity:1;fill-rule:nonzero;stroke:none"
   id="path5623" /><path
   inkscape:connector-curvature="0"
   d="m 97.9825,86.87212 -8.78125,-15.555 0,15.555 -3.6425,0 0,-22.975 3.6425,0 8.3725,14.67 0,-14.67 3.60875,0 0,22.975 -3.2,0 z"
   style="fill:#000000;fill-opacity:1;fill-rule:nonzero;stroke:none"
   id="path5627" /><path
   inkscape:connector-curvature="0"
   d="m 106.69561,86.87212 0,-22.975 3.64125,0 0,19.605 10.62,0 0,3.37 -14.26125,0 z"
   style="fill:#000000;fill-opacity:1;fill-rule:nonzero;stroke:none"
   id="path5631" /><path
   inkscape:connector-curvature="0"
   d="m 134.02712,76.86526 0,10.0075 -3.6425,0 0,-10.0075 -8.06625,-12.9675 4.35625,0 5.48,8.84875 5.5825,-8.84875 4.25375,0 -7.96375,12.9675 z"
   style="fill:#000000;fill-opacity:1;fill-rule:nonzero;stroke:none"
   id="path5635" /><path
   inkscape:connector-curvature="0"
   d="m 98.408,119.14512 c -1.3275,1.73625 -3.13125,2.5875 -5.54875,2.5875 -3.2325,0 -5.2075,-1.29375 -6.6025,-4.11875 -0.9525,-1.94125 -1.63375,-5.00375 -1.63375,-7.72625 0,-3.8125 0.9525,-7.21625 2.51875,-9.36125 1.3275,-1.80375 3.23375,-2.58625 5.88875,-2.58625 6.365,0 7.89625,6.8075 7.89625,11.9475 0,3.6075 -0.91875,7.215 -2.51875,9.2575 m -5.3775,-17.495 c -2.0425,0 -2.99625,0.8175 -3.8125,2.825 -0.545,1.36125 -0.885,3.47125 -0.885,5.4125 0,2.41625 0.51,4.9 1.395,6.36375 0.715,1.1925 1.66875,1.77 3.13125,1.77 1.7025,0 2.7575,-0.885 3.54,-2.8925 0.4775,-1.22625 0.885,-3.4725 0.885,-5.24125 0,-2.655 -0.5775,-8.2375 -4.25375,-8.2375"
   style="fill:#000000;fill-opacity:1;fill-rule:nonzero;stroke:none"
   id="path5639" /><path
   inkscape:connector-curvature="0"
   d="m 118.38725,121.32325 -8.78125,-15.555 0,15.555 -3.6425,0 0,-22.975 3.6425,0 8.3725,14.67 0,-14.67 3.6075,0 0,22.975 -3.19875,0 z"
   style="fill:#000000;fill-opacity:1;fill-rule:nonzero;stroke:none"
   id="path5643" /><path
   inkscape:connector-curvature="0"
   d="m 58.89149,248.05424 c -3.94875,0 -6.84125,-2.34875 -8.3725,-5.82 l 3.47125,-1.29375 c 0.9525,2.17875 2.7225,3.40375 4.90125,3.40375 2.11,0 3.54,-1.46375 3.54,-3.40375 0,-3.06375 -3.54,-3.54 -6.535,-4.73125 -1.3625,-0.57875 -4.425,-1.94 -4.425,-5.71875 0,-4.52625 3.0625,-6.22875 7.18125,-6.22875 3.23375,0 5.4125,1.8725 6.535,4.6975 l -3.2325,0.9525 c -0.34125,-1.02 -1.80375,-2.0075 -3.43875,-2.0075 -1.735,0 -3.64125,0.545 -3.505,2.655 0.34,4.255 11.13,1.46375 11.13,10.48375 0,4.18625 -3.13125,7.01125 -7.25,7.01125"
   style="fill:#000000;fill-opacity:1;fill-rule:nonzero;stroke:none"
   id="path5647" /><path
   inkscape:connector-curvature="0"
   d="m 70.055,224.67125 3.71,0 0,22.975 -3.71,0 0,-22.975 z"
   style="fill:#000000;fill-opacity:1;fill-rule:nonzero;stroke:none"
   id="path5649" /><path
   inkscape:connector-curvature="0"
   d="m 87.20987,248.05424 c -3.4725,0 -5.48,-1.29375 -6.875,-4.18625 -0.95375,-2.0425 -1.5325,-4.83375 -1.5325,-7.65875 0,-3.71 1.02125,-7.38625 2.5875,-9.36 1.36125,-1.7025 3.30125,-2.5875 5.8875,-2.5875 3.54,0 5.65125,1.46375 7.1825,5.0725 l -3.4725,1.395 c -0.9525,-2.0425 -1.94,-2.7575 -3.71,-2.7575 -1.8375,0 -3.0625,0.8175 -3.88,2.825 -0.545,1.3625 -0.885,3.4725 -0.885,5.4125 0,2.41625 0.375,4.83375 1.1575,6.2625 0.68125,1.3275 1.77,1.8725 3.13125,1.8725 2.34875,0 4.01625,-1.46375 4.01625,-3.54 l 0,-0.9875 -4.18625,0 0,-3.6075 7.82875,0 0,4.595 c 0,4.18625 -3.06375,7.25 -7.25,7.25"
   style="fill:#000000;fill-opacity:1;fill-rule:nonzero;stroke:none"
   id="path5653" /><path
   inkscape:connector-curvature="0"
   d="m 111.92074,247.6455 -8.7825,-15.555 0,15.555 -3.64125,0 0,-22.975 3.64125,0 8.37375,14.67 0,-14.67 3.6075,0 0,22.975 -3.19875,0 z"
   style="fill:#000000;fill-opacity:1;fill-rule:nonzero;stroke:none"
   id="path5657" /><path
   inkscape:connector-curvature="0"
   d="m 134.11214,247.6455 -2.24625,-6.4325 -7.1825,0 -2.24625,6.4325 -3.88,0 7.89625,-22.975 3.6425,0 7.89625,22.975 -3.88,0 z m -5.78625,-16.61 -2.34875,6.4675 4.595,0 -2.24625,-6.4675 z"
   style="fill:#000000;fill-opacity:1;fill-rule:nonzero;stroke:none"
   id="path5661" /><path
   inkscape:connector-curvature="0"
   d="m 141.42975,247.6455 0,-22.975 3.64125,0 0,19.60625 10.62,0 0,3.36875 -14.26125,0 z"
   style="fill:#000000;fill-opacity:1;fill-rule:nonzero;stroke:none"
   id="path5665" /><path
   inkscape:connector-curvature="0"
   d="m 110.732,148.82824 c 2.75375,0 4.99625,-2.2525 4.99625,-5.0025 0,-2.75125 -2.2425,-5.00625 -4.99625,-5.00625 -2.75375,0 -5.0025,2.255 -5.0025,5.00625 0,2.75 2.24875,5.0025 5.0025,5.0025 m 2.0875,20.28 11.38875,3.75 1.6675,-2.50125 -10.49,-6.99 c -0.485,-2.05625 -2.495,-11.1525 -6.535,-13.2525 -3.9975,-2.65375 -18.7325,8.205 -18.81875,8.29875 l 0,15.8375 3.19875,-0.5575 1.24625,-12.63875 c 1.2025,-0.245 2.41125,-0.485 3.61375,-0.72875 -2.6325,6.7975 -3.595,13.35875 -2.0875,17.6725 l -6.38875,26.12 4.3075,3.05375 9.30875,-24.17125 4.31125,4.5825 5.97125,18.19875 5.69875,-2.08375 -5.14625,-19.17375 -5.975,-10.69375 2.2925,-7.89375 2.43625,3.17125 z"
   style="fill:#ffffff;fill-opacity:1;fill-rule:evenodd;stroke:none"
   id="path5599" /></svg>