<?xml version="1.0" encoding="UTF-8" standalone="no"?>
<!-- Generator: Adobe Illustrator 12.0.1, SVG Export Plug-In  -->

<svg
   xmlns:dc="http://purl.org/dc/elements/1.1/"
   xmlns:cc="http://creativecommons.org/ns#"
   xmlns:rdf="http://www.w3.org/1999/02/22-rdf-syntax-ns#"
   xmlns:svg="http://www.w3.org/2000/svg"
   xmlns="http://www.w3.org/2000/svg"
   xmlns:sodipodi="http://sodipodi.sourceforge.net/DTD/sodipodi-0.dtd"
   xmlns:inkscape="http://www.inkscape.org/namespaces/inkscape"
   version="1.1"
   width="185.125"
   height="276.90625"
   viewBox="-1 0 185.125 276.90625"
   enable-background="new -1 0 289 288"
   xml:space="preserve"
   id="svg2"
   inkscape:version="0.48.2 r9819"
   sodipodi:docname="MUTCD R10-20a.svg"><metadata
   id="metadata22"><rdf:RDF><cc:Work
       rdf:about=""><dc:format>image/svg+xml</dc:format><dc:type
         rdf:resource="http://purl.org/dc/dcmitype/StillImage" /><dc:title></dc:title></cc:Work></rdf:RDF></metadata><sodipodi:namedview
   pagecolor="#ffffff"
   bordercolor="#666666"
   borderopacity="1"
   objecttolerance="10"
   gridtolerance="10"
   guidetolerance="10"
   inkscape:pageopacity="0"
   inkscape:pageshadow="2"
   inkscape:window-width="1280"
   inkscape:window-height="1004"
   id="namedview20"
   showgrid="false"
   fit-margin-top="0"
   fit-margin-left="0"
   fit-margin-right="0"
   fit-margin-bottom="0"
   inkscape:zoom="2.317739"
   inkscape:cx="102.60935"
   inkscape:cy="150.6752"
   inkscape:window-x="-8"
   inkscape:window-y="-8"
   inkscape:window-maximized="1"
   inkscape:current-layer="svg2"
   showguides="true"
   inkscape:guide-bbox="true" />
<defs
   id="defs4">
</defs>







<path
   inkscape:connector-curvature="0"
   d="m 183.36639,253.20514 c 0,12.6225 -10.3275,22.95125 -22.95125,22.95125 l -137.70625,0 c -12.6225,0 -22.95125,-10.32875 -22.95125,-22.95125 l 0,-229.51 c 0,-12.62375 10.32875,-22.95125 22.95125,-22.95125 l 137.70625,0 c 12.62375,0 22.95125,10.3275 22.95125,22.95125 l 0,229.51"
   style="fill:#ffffff;fill-opacity:1;fill-rule:nonzero;stroke:#000000;stroke-width:1.5;stroke-miterlimit:4;stroke-opacity:1;stroke-dasharray:none"
   id="path9423" /><path
   inkscape:connector-curvature="0"
   d="m 170.92714,253.20514 c 0,5.7825 -4.73,10.51125 -10.51125,10.51125 l -137.70625,0 c -5.78125,0 -10.5125,-4.72875 -10.5125,-10.51125 l 0,-229.51 c 0,-5.78125 4.73125,-10.5125 10.5125,-10.5125 l 137.70625,0 c 5.78125,0 10.51125,4.73125 10.51125,10.5125 l 0,229.51 z M 160.41589,6.48139 l -137.70625,0 c -9.4675,0 -17.21375,7.74625 -17.21375,17.21375 l 0,229.51 c 0,9.4675 7.74625,17.21375 17.21375,17.21375 l 137.70625,0 c 9.4675,0 17.2125,-7.74625 17.2125,-17.21375 l 0,-229.51 c 0,-9.4675 -7.745,-17.21375 -17.2125,-17.21375"
   style="fill:#000000;fill-opacity:1;fill-rule:nonzero;stroke:none"
   id="path9447" /><path
   inkscape:connector-curvature="0"
   d="m 126.312,163.436 -7.14,4.705 -11.54375,10.33 3.345,4.40375 11.23625,-9.265 4.7075,6.6825 -12.91,4.40625 3.03375,11.08875 5.31875,-1.67 -1.67,-5.92375 8.2025,-2.73625 -10.3275,19.59875 5.4625,3.03625 14.8875,-27.04125 -12.6025,-17.615 z m -27.11625,50.04 c -6.015,0 -10.92875,-4.90875 -10.92875,-10.92875 0,-6.02125 4.91375,-10.93 10.92875,-10.93 6.02125,0 10.9275,4.90875 10.9275,10.93 0,6.02 -4.90625,10.92875 -10.9275,10.92875 m 0,-26.3475 c -8.49375,0 -15.415,6.93 -15.415,15.41875 0,8.49125 6.92125,15.4175 15.415,15.4175 8.4925,0 15.41875,-6.92625 15.41875,-15.4175 0,-8.48875 -6.92625,-15.41875 -15.41875,-15.41875 m 20.505,-22.8425 c 2.9725,0 5.3925,-2.4175 5.3925,-5.39 0,-2.965 -2.42,-5.3825 -5.3925,-5.3825 -2.96625,0 -5.38625,2.4175 -5.38625,5.3825 0,2.9725 2.42,5.39 5.38625,5.39 m 27.4925,49.19 c -6.015,0 -10.92625,-4.90875 -10.92625,-10.92875 0,-6.02125 4.91125,-10.93 10.92625,-10.93 6.01875,0 10.9275,4.90875 10.9275,10.93 0,6.02 -4.90875,10.92875 -10.9275,10.92875 m 0,-26.3475 c -8.49375,0 -15.4125,6.93 -15.4125,15.41875 0,8.49125 6.91875,15.4175 15.4125,15.4175 8.495,0 15.41375,-6.92625 15.41375,-15.4175 0,-8.48875 -6.91875,-15.41875 -15.41375,-15.41875"
   style="fill:#000000;fill-opacity:1;fill-rule:evenodd;stroke:none"
   id="path9451" /><path
   inkscape:connector-curvature="0"
   d="m 116.815,243.64625 4.59,0 0,-27.72 -4.59,0 0,27.72 z m 0,-94.685 4.59,0 0,-27.72 -4.59,0 0,27.72 z"
   style="fill:#000000;fill-opacity:1;fill-rule:evenodd;stroke:none"
   id="path9453" /><path
   inkscape:connector-curvature="0"
   d="m 27.46075,36.03438 0,23.28625 -3.3725,0 0,-23.28625 -3.29125,0 0,-3.49125 10.155,0 0,3.49125 -3.49125,0 z"
   style="fill:#000000;fill-opacity:1;fill-rule:nonzero;stroke:none"
   id="path9457" /><path
   inkscape:connector-curvature="0"
   d="m 40.07513,35.63775 c -3.09375,0 -2.6975,8.37 -2.6975,10.235 0,1.785 -0.39625,10.4325 2.6975,10.4325 3.015,0 2.6575,-8.6475 2.6575,-10.4325 0,-2.1425 -0.11875,-10.235 -2.6575,-10.235 m 0,24.15875 c -6.665,0 -6.18875,-9.48125 -6.18875,-13.92375 0,-4.6025 -0.35625,-13.68625 6.18875,-13.68625 6.585,0 6.2275,9.20375 6.2275,13.68625 0,4.4425 0.3575,13.92375 -6.2275,13.92375"
   style="fill:#000000;fill-opacity:1;fill-rule:nonzero;stroke:none"
   id="path9461" /><path
   inkscape:connector-curvature="0"
   d="m 66.33087,36.03438 -1.66625,0 0,7.29875 2.22125,0 c 1.90375,0 2.46,-0.8325 2.46,-3.37125 0,-3.015 -0.675,-3.9275 -3.015,-3.9275 m 3.68875,9.9575 2.6975,13.32875 -3.45125,0 -3.015,-12.49625 -1.58625,0 0,12.49625 -3.41125,0 0,-26.7775 5.27625,0 c 4.125,0 6.30625,2.53875 6.30625,7.4975 0,3.015 -0.8725,4.72125 -2.81625,5.95125"
   style="fill:#000000;fill-opacity:1;fill-rule:nonzero;stroke:none"
   id="path9465" /><path
   inkscape:connector-curvature="0"
   d="m 77.0805,59.32012 0,-26.77625 9.8775,0 0,3.49 -6.46625,0 0,6.86375 4.285,0 0,3.57 -4.285,0 0,9.36125 6.82375,0 0,3.49125 -10.235,0 z"
   style="fill:#000000;fill-opacity:1;fill-rule:nonzero;stroke:none"
   id="path9469" /><path
   inkscape:connector-curvature="0"
   d="m 96.91487,35.63775 c -2.89625,0 -2.7375,8.29125 -2.7375,10.235 0,1.9825 -0.555,10.63125 2.8175,10.4325 l -1.19125,-1.785 2.1425,-1.38875 0.83375,1.19 c 0.1975,-0.555 0.2775,-1.03125 0.39625,-1.86375 0.15875,-1.5075 0.35625,-4.8 0.35625,-6.585 0,-1.865 0.12,-10.235 -2.6175,-10.235 m 4.04625,21.97625 1.38875,2.06375 -2.1425,1.4275 -1.15,-1.785 c -0.83375,0.2775 -1.46875,0.3575 -2.1425,0.3575 -2.7375,0 -4.32375,-1.31 -5.27625,-4.48375 -0.555,-1.90375 -0.8325,-5.83125 -0.8325,-9.32125 0,-4.325 -0.19875,-13.68625 6.10875,-13.68625 6.18875,0 6.10875,9.2825 6.10875,13.68625 0,3.2125 -0.39625,10.075 -2.0625,11.74125"
   style="fill:#000000;fill-opacity:1;fill-rule:nonzero;stroke:none"
   id="path9473" /><path
   inkscape:connector-curvature="0"
   d="m 118.81164,56.97951 c -1.03125,1.94375 -2.53875,2.81625 -4.87875,2.81625 -2.7375,0 -4.44375,-1.23 -5.35625,-3.68875 -0.3175,-0.8325 -0.47625,-1.785 -0.47625,-3.3725 l 0,-20.19125 3.4125,0 0,20.6675 c 0,1.98375 0.8325,3.095 2.42,3.095 1.50625,0 2.34,-1.11125 2.34,-3.095 l 0,-20.6675 3.41125,0 0,20.19125 c 0,1.905 -0.3175,3.21375 -0.8725,4.245"
   style="fill:#000000;fill-opacity:1;fill-rule:nonzero;stroke:none"
   id="path9477" /><path
   inkscape:connector-curvature="0"
   d="m 125.55501,59.32012 0,-26.77625 9.8775,0 0,3.49 -6.46625,0 0,6.86375 4.285,0 0,3.57 -4.285,0 0,9.36125 6.82375,0 0,3.49125 -10.235,0 z"
   style="fill:#000000;fill-opacity:1;fill-rule:nonzero;stroke:none"
   id="path9481" /><path
   inkscape:connector-curvature="0"
   d="m 144.39763,59.79612 c -4.32375,0 -5.75125,-3.2925 -5.91,-7.14 l 3.45125,0 c 0,1.58625 0.475,3.64875 2.45875,3.64875 1.5475,0 2.1425,-1.34875 2.1425,-2.6975 0,-2.85625 -1.07125,-4.60125 -3.13375,-7.06125 -2.1025,-2.49875 -4.285,-4.60125 -4.285,-8.0925 0,-3.2125 1.94375,-6.2675 5.475,-6.2675 3.8875,0 5.1175,2.89625 5.435,6.2675 l -3.49125,0 c -0.04,-1.26875 -0.27875,-2.895 -1.865,-2.895 -1.58625,0 -2.0625,1.58625 -2.0625,2.895 0,1.78625 1.4675,3.25375 3.53,5.55375 3.17375,3.49125 3.88875,6.86375 3.88875,9.6 0,3.25375 -2.2225,6.18875 -5.63375,6.18875"
   style="fill:#000000;fill-opacity:1;fill-rule:nonzero;stroke:none"
   id="path9485" /><path
   inkscape:connector-curvature="0"
   d="m 158.837,36.03438 0,23.28625 -3.3725,0 0,-23.28625 -3.29125,0 0,-3.49125 10.155,0 0,3.49125 -3.49125,0 z"
   style="fill:#000000;fill-opacity:1;fill-rule:nonzero;stroke:none"
   id="path9489" /><path
   inkscape:connector-curvature="0"
   d="m 66.135,103.25836 c -0.51625,1.865 -2.34,3.09375 -4.76,3.09375 -2.7375,0 -4.32375,-1.03125 -5.1975,-3.57 -0.8325,-2.45875 -1.11,-4.87875 -1.11,-10.35375 0,-5.355 0.3175,-7.695 1.23,-10.23375 0.8725,-2.42 2.41875,-3.45125 5.0775,-3.45125 2.975,0 4.76,1.86375 5.15625,5.15625 l -3.37125,0 c -0.19875,-1.15 -0.75375,-1.705 -1.70625,-1.705 -1.23,0 -2.0625,0.8725 -2.34,2.6175 -0.3575,2.1825 -0.555,3.9675 -0.555,7.61625 0,3.69 0.0788,5.475 0.43625,7.73625 0.31625,1.785 1.07,2.6975 2.26125,2.6975 1.22875,0 1.90375,-1.11125 1.90375,-2.89625 l 0,-3.57 -1.62625,0 0,-3.49125 4.9975,0 0,6.8625 c 0,1.23 -0.15875,2.65875 -0.39625,3.49125"
   style="fill:#000000;fill-opacity:1;fill-rule:nonzero;stroke:none"
   id="path9493" /><path
   inkscape:connector-curvature="0"
   d="m 76.6865,82.591 -1.66625,0 0,7.29875 2.22125,0 c 1.90375,0 2.46,-0.8325 2.46,-3.37125 0,-3.015 -0.675,-3.9275 -3.015,-3.9275 m 3.68875,9.9575 2.6975,13.32875 -3.45125,0 -3.015,-12.49625 -1.58625,0 0,12.49625 -3.41125,0 0,-26.7775 5.27625,0 c 4.125,0 6.30625,2.53875 6.30625,7.4975 0,3.015 -0.8725,4.72125 -2.81625,5.95125"
   style="fill:#000000;fill-opacity:1;fill-rule:nonzero;stroke:none"
   id="path9497" /><path
   inkscape:connector-curvature="0"
   d="m 87.43625,105.87675 0,-26.77625 9.8775,0 0,3.49 -6.46625,0 0,6.8625 4.285,0 0,3.57125 -4.285,0 0,9.36125 6.82375,0 0,3.49125 -10.235,0 z"
   style="fill:#000000;fill-opacity:1;fill-rule:nonzero;stroke:none"
   id="path9501" /><path
   inkscape:connector-curvature="0"
   d="m 101.955,105.87675 0,-26.77625 9.8775,0 0,3.49 -6.46625,0 0,6.8625 4.285,0 0,3.57125 -4.285,0 0,9.36125 6.82375,0 0,3.49125 -10.235,0 z"
   style="fill:#000000;fill-opacity:1;fill-rule:nonzero;stroke:none"
   id="path9505" /><path
   inkscape:connector-curvature="0"
   d="m 125.12175,105.87675 -5.23625,-15.8675 0,15.8675 -3.41125,0 0,-26.77625 3.41125,0 4.76,13.32875 0,-13.32875 3.41125,0 0,26.77625 -2.935,0 z"
   style="fill:#000000;fill-opacity:1;fill-rule:nonzero;stroke:none"
   id="path9509" /><path
   inkscape:connector-curvature="0"
   d="m 39.3105,170.964 -2.935,0 -2.54,-15.03375 -2.41875,15.03375 -2.93625,0 -3.09375,-26.77625 3.49125,0 1.3875,12.41625 2.1825,-12.41625 2.895,0 2.1825,12.41625 1.3875,-12.41625 3.49125,0 -3.09375,26.77625 z"
   style="fill:#000000;fill-opacity:1;fill-rule:nonzero;stroke:none"
   id="path9513" /><path
   inkscape:connector-curvature="0"
   d="m 51.25061,153.31161 -1.5075,7.02125 2.89625,0 -1.38875,-7.02125 z m 3.65,17.6525 -1.5075,-7.14 -4.40375,0 -1.5075,7.14 -3.49,0 5.47375,-26.77625 3.45125,0 5.55375,26.77625 -3.57,0 z"
   style="fill:#000000;fill-opacity:1;fill-rule:nonzero;stroke:none"
   id="path9517" /><path
   inkscape:connector-curvature="0"
   d="m 62.2,144.1875 3.41125,0 0,26.77625 -3.41125,0 0,-26.77625 z"
   style="fill:#000000;fill-opacity:1;fill-rule:nonzero;stroke:none"
   id="path9519" /><path
   inkscape:connector-curvature="0"
   d="m 76.00389,147.67837 0,23.285 -3.3725,0 0,-23.285 -3.29125,0 0,-3.49125 10.155,0 0,3.49125 -3.49125,0 z"
   style="fill:#000000;fill-opacity:1;fill-rule:nonzero;stroke:none"
   id="path9523" /><path
   inkscape:connector-curvature="0"
   d="m 44.198,193.12424 c -3.09375,0 -2.6975,8.37 -2.6975,10.235 0,1.785 -0.39625,10.43125 2.6975,10.43125 3.015,0 2.6575,-8.64625 2.6575,-10.43125 0,-2.1425 -0.11875,-10.235 -2.6575,-10.235 m 0,24.15875 c -6.66375,0 -6.18875,-9.48125 -6.18875,-13.92375 0,-4.6025 -0.35625,-13.68625 6.18875,-13.68625 6.585,0 6.22875,9.20375 6.22875,13.68625 0,4.4425 0.35625,13.92375 -6.22875,13.92375"
   style="fill:#000000;fill-opacity:1;fill-rule:nonzero;stroke:none"
   id="path9527" /><path
   inkscape:connector-curvature="0"
   d="m 64.15138,216.80649 -5.23625,-15.8675 0,15.8675 -3.41125,0 0,-26.77625 3.41125,0 4.76,13.32875 0,-13.32875 3.41125,0 0,26.77625 -2.935,0 z"
   style="fill:#000000;fill-opacity:1;fill-rule:nonzero;stroke:none"
   id="path9531" /></svg>