<?xml version="1.0" encoding="UTF-8" standalone="no"?>
<!-- Generator: Adobe Illustrator 12.0.1, SVG Export Plug-In  -->

<svg
   xmlns:dc="http://purl.org/dc/elements/1.1/"
   xmlns:cc="http://creativecommons.org/ns#"
   xmlns:rdf="http://www.w3.org/1999/02/22-rdf-syntax-ns#"
   xmlns:svg="http://www.w3.org/2000/svg"
   xmlns="http://www.w3.org/2000/svg"
   xmlns:sodipodi="http://sodipodi.sourceforge.net/DTD/sodipodi-0.dtd"
   xmlns:inkscape="http://www.inkscape.org/namespaces/inkscape"
   version="1.1"
   width="298.875"
   height="199.75"
   viewBox="-1 0 298.875 199.75"
   enable-background="new -1 0 289 288"
   xml:space="preserve"
   id="svg2"
   inkscape:version="0.48.2 r9819"
   sodipodi:docname="AJAX1.svg"><metadata
   id="metadata22"><rdf:RDF><cc:Work
       rdf:about=""><dc:format>image/svg+xml</dc:format><dc:type
         rdf:resource="http://purl.org/dc/dcmitype/StillImage" /><dc:title></dc:title></cc:Work></rdf:RDF></metadata><sodipodi:namedview
   pagecolor="#ffffff"
   bordercolor="#666666"
   borderopacity="1"
   objecttolerance="10"
   gridtolerance="10"
   guidetolerance="10"
   inkscape:pageopacity="0"
   inkscape:pageshadow="2"
   inkscape:window-width="1280"
   inkscape:window-height="1004"
   id="namedview20"
   showgrid="false"
   fit-margin-top="0"
   fit-margin-left="0"
   fit-margin-right="0"
   fit-margin-bottom="0"
   inkscape:zoom="2.317739"
   inkscape:cx="115.30212"
   inkscape:cy="97.482778"
   inkscape:window-x="-8"
   inkscape:window-y="-8"
   inkscape:window-maximized="1"
   inkscape:current-layer="svg2"
   showguides="true"
   inkscape:guide-bbox="true" />
<defs
   id="defs4">
</defs>







<path
   inkscape:connector-curvature="0"
   d="m 12.107506,0.76112 272.658754,0 c 6.7975,0 12.3575,5.56 12.3575,12.35625 l 0,173.5125 c 0,6.79625 -5.56,12.3575 -12.3575,12.3575 l -272.658754,0 c -6.79625,0 -12.35625,-5.56125 -12.35625,-12.3575 l 0,-173.5125 c 0,-6.79625 5.56,-12.35625 12.35625,-12.35625"
   style="fill:#ffffff;fill-opacity:1;fill-rule:nonzero;stroke:#000000;stroke-width:1.5;stroke-miterlimit:4;stroke-opacity:1;stroke-dasharray:none"
   id="path4921" /><path
   inkscape:connector-curvature="0"
   d="m 12.107506,4.20275 272.658754,0 c 4.90375,0 8.91625,4.01125 8.91625,8.915 l 0,173.5125 c 0,4.90375 -4.0125,8.915 -8.91625,8.915 l -272.658754,0 c -4.90375,0 -8.915,-4.01125 -8.915,-8.915 l 0,-173.5125 c 0,-4.90375 4.01125,-8.915 8.915,-8.915"
   style="fill:#000000;fill-opacity:1;fill-rule:evenodd;stroke:none"
   id="path4945" /><path
   inkscape:connector-curvature="0"
   d="m 12.107506,9.02036 272.658754,0 c 2.25375,0 4.0975,1.84375 4.0975,4.0975 l 0,173.5125 c 0,2.25125 -1.84375,4.09625 -4.0975,4.09625 l -272.658754,0 c -2.2525,0 -4.0975,-1.845 -4.0975,-4.09625 l 0,-173.5125 c 0,-2.25375 1.845,-4.0975 4.0975,-4.0975"
   style="fill:#ffffff;fill-opacity:1;fill-rule:evenodd;stroke:none"
   id="path4949" /><path
   inkscape:connector-curvature="0"
   d="m 274.75961,47.274 -6.055,0 -6.4575,14.17 -6.60875,-14.17 -5.90875,0 9.62375,21.46125 0,17.74375 5.64125,0 0,-17.74375 9.765,-21.46125 z m -29.70875,10.4525 c -0.41375,-3.575 -0.9625,-5.22625 -2.47875,-7.15125 -1.78,-2.6125 -4.53375,-3.99 -7.69875,-3.99 -7.70125,0 -11.69125,6.7375 -11.69125,19.39625 0,14.44375 3.715,21.2075 12.10875,21.2075 5.50125,0 9.62,-4.7 9.76,-11.16875 l -5.64125,0 c 0,2.8925 -0.8225,5.64125 -4.11875,5.64125 -4.81875,0 -6.7425,-4.53875 -6.7425,-15.82 0,-10.17875 1.65,-13.75 6.18875,-13.75 2.61375,0 4.125,1.78625 4.6725,5.635 l 5.64125,0 z m -29.56875,28.7525 0,-39.205 -5.64125,0 0,23.52 -10.7275,-23.52 -5.635,0 0,39.205 5.635,0 0,-26.2725 12.11,26.2725 4.25875,0 z m -28.6075,0 0,-5.50125 -14.30375,0 0,-12.93125 8.115,0 0,-5.36625 -8.115,0 0,-9.905 12.79375,0 0,-5.50125 -18.43375,0 0,39.205 19.94375,0 z m -27.64375,-10.8675 0,-8.115 -10.03875,0 0,5.5025 4.3975,0 0,2.6125 c 0,4.125 -1.37125,6.05 -4.26125,6.05 -3.02375,0 -4.95,-2.06625 -5.775,-5.91375 -0.55125,-3.02375 -0.82625,-6.465 -0.82625,-9.76625 0,-4.67875 0.68375,-9.0775 1.79,-11.0025 0.96,-1.93 2.475,-2.8875 4.40125,-2.8875 2.75,0 4.53625,1.78625 4.67125,4.39875 l 5.64125,0 c -0.275,-5.78 -4.53875,-9.905 -10.17625,-9.905 -4.5375,0 -8.53125,3.0275 -9.9025,7.1525 -1.37625,3.715 -1.79,7.70625 -1.79,13.21125 0,5.0875 0.82875,10.58875 2.065,13.47625 1.92375,4.3975 5.36625,6.76375 10.04375,6.76375 3.98375,0 7.145,-2.08625 8.66375,-5.5275 0.82125,-1.645 1.09625,-3.2975 1.09625,-6.05 m -33.145,-17.885 c 0,3.1625 -1.79125,4.95375 -5.0875,4.95375 l -5.775,0 0,-9.905 5.775,0 c 3.0225,0 5.0875,1.93 5.0875,4.95125 m 5.5,28.7525 -5.635,-19.25625 c 3.71,-1.38125 5.635,-4.81625 5.635,-9.49625 0,-6.32875 -4.12375,-10.4525 -10.3125,-10.4525 l -11.69,0 0,39.205 5.64,0 0,-18.4325 5.36125,0 5.2275,18.4325 5.77375,0 z m -28.605,0 0,-5.50125 -14.30375,0 0,-12.93125 8.11375,0 0,-5.36625 -8.11375,0 0,-9.905 12.79125,0 0,-5.50125 -18.4275,0 0,39.205 19.94,0 z m -28.46875,0 0,-39.205 -5.64,0 -7.28625,22.00875 -7.29125,-22.00875 -5.64125,0 0,39.205 5.64125,0 0,-22.00875 7.29125,22.00875 7.28625,-22.00875 0,22.00875 5.64,0 z m -32.45875,0 0,-5.50125 -14.30625,0 0,-12.93125 8.11375,0 0,-5.36625 -8.11375,0 0,-9.905 12.7925,0 0,-5.50125 -18.4275,0 0,39.205 19.94125,0"
   style="fill:#000000;fill-opacity:1;fill-rule:evenodd;stroke:none"
   id="path4953" /><path
   inkscape:connector-curvature="0"
   d="m 222.01975,152.44687 0,-5.2275 -14.3025,0 0,-33.9725 -5.63875,0 0,39.2 19.94125,0 z m -35.06875,-16.22875 -5.63625,0 2.745,-11.28125 2.89125,11.28125 z m 9.75875,16.22875 -9.75875,-39.2 -5.50125,0 -9.765,39.2 5.635,0 2.6125,-10.7275 8.38875,0 2.75375,10.7275 5.635,0 z m -30.39125,0 0,-39.2 -5.6375,0 0,23.52 -10.72625,-23.52 -5.64125,0 0,39.2 5.64125,0 0,-26.2725 12.1025,26.2725 4.26125,0 z m -29.705,-10.86875 0,-8.1125 -10.04375,0 0,5.49875 4.40375,0 0,2.61375 c 0,4.13 -1.3775,6.05625 -4.26375,6.05625 -3.0275,0 -4.95,-2.06 -5.775,-5.915 -0.55,-3.0275 -0.82375,-6.47 -0.82375,-9.77 0,-4.67375 0.6825,-9.0775 1.78625,-11.0025 0.9625,-1.925 2.4725,-2.8875 4.3975,-2.8875 2.75375,0 4.54375,1.78625 4.67875,4.39875 l 5.64,0 c -0.27375,-5.775 -4.5425,-9.905 -10.17875,-9.905 -4.5375,0 -8.52875,3.0325 -9.9025,7.15625 -1.3725,3.71625 -1.7875,7.70125 -1.7875,13.20625 0,5.09375 0.82375,10.59375 2.06125,13.48125 1.92375,4.405 5.365,6.76 10.0375,6.76 3.995,0 7.15875,-2.08125 8.6675,-5.5225 0.82875,-1.65125 1.1025,-3.3025 1.1025,-6.05625 m -29.70875,-28.33125 -5.50125,0 0,39.2 5.50125,0 0,-39.2 z M 94.801,141.71937 c 0,-5.64 -3.30125,-9.905 -10.8675,-14.30875 -2.88625,-1.645 -3.71,-2.75375 -3.71,-4.67875 0,-2.61375 2.065,-4.5325 4.6775,-4.5325 2.47375,0 4.39875,1.785 4.53375,4.5325 l 5.36625,0 c -0.14,-5.91375 -4.39875,-10.17875 -9.9,-10.17875 -5.64,0 -10.03875,4.53875 -10.03875,10.17875 0,3.4425 1.6475,6.46875 4.8125,8.6675 7.98,5.3675 5.77625,3.85 6.5975,4.68 2.34,1.78375 3.1625,3.435 3.1625,5.64 0,3.1625 -2.47125,5.915 -5.50125,5.915 -3.84375,0 -5.5,-3.4425 -5.5,-6.7375 l -5.5025,0 c 0,6.46375 4.13,12.26 11.0025,12.26 6.05375,0 10.8675,-5.1075 10.8675,-11.4375"
   style="fill:#000000;fill-opacity:1;fill-rule:evenodd;stroke:none"
   id="path4957" /></svg>