<?xml version="1.0" encoding="UTF-8" standalone="no"?>
<!-- Created with Inkscape (http://www.inkscape.org/) -->

<svg
   xmlns:dc="http://purl.org/dc/elements/1.1/"
   xmlns:cc="http://creativecommons.org/ns#"
   xmlns:rdf="http://www.w3.org/1999/02/22-rdf-syntax-ns#"
   xmlns:svg="http://www.w3.org/2000/svg"
   xmlns="http://www.w3.org/2000/svg"
   xmlns:sodipodi="http://sodipodi.sourceforge.net/DTD/sodipodi-0.dtd"
   xmlns:inkscape="http://www.inkscape.org/namespaces/inkscape"
   width="820"
   height="1360"
   id="svg2"
   version="1.1"
   inkscape:version="0.48.2 r9819"
   sodipodi:docname="AJAX2.svg">
  <defs
     id="defs4" />
  <sodipodi:namedview
     id="base"
     pagecolor="#ffffff"
     bordercolor="#666666"
     borderopacity="1.0"
     inkscape:pageopacity="0.0"
     inkscape:pageshadow="2"
     inkscape:zoom="0.28868013"
     inkscape:cx="561.05523"
     inkscape:cy="350.62953"
     inkscape:document-units="px"
     inkscape:current-layer="g4166"
     showgrid="false"
     fit-margin-top="0"
     fit-margin-left="0"
     fit-margin-right="0"
     fit-margin-bottom="0"
     inkscape:window-width="1280"
     inkscape:window-height="1004"
     inkscape:window-x="-8"
     inkscape:window-y="-8"
     inkscape:window-maximized="1" />
  <metadata
     id="metadata7">
    <rdf:RDF>
      <cc:Work
         rdf:about="">
        <dc:format>image/svg+xml</dc:format>
        <dc:type
           rdf:resource="http://purl.org/dc/dcmitype/StillImage" />
        <dc:title></dc:title>
      </cc:Work>
    </rdf:RDF>
  </metadata>
  <g
     inkscape:label="Layer 1"
     inkscape:groupmode="layer"
     id="layer1"
     transform="translate(-166.6875,742.5625)">
    <g
       id="g4166">
      <g
         id="text3008"
         style="font-size:78.91298676px;font-style:normal;font-weight:normal;line-height:125%;letter-spacing:0px;word-spacing:0px;fill:#000000;fill-opacity:1;stroke:none;font-family:Sans"
         transform="scale(0.98847113,1.0116633)">
        <g
           id="text3015"
           style="font-size:78.54236603px;line-height:125%;fill:#000000;font-family:Sans"
           transform="scale(0.98353261,1.0167431)">
          <text
             transform="scale(1.0286017,0.97219363)"
             sodipodi:linespacing="125%"
             id="text3273"
             y="587.81366"
             x="428.17328"
             style="font-size:40px;font-style:normal;font-weight:normal;line-height:125%;letter-spacing:0px;word-spacing:0px;fill:#000000;fill-opacity:1;stroke:none;font-family:Sans"
             xml:space="preserve"><tspan
               id="tspan3275"
               sodipodi:role="line"
               x="428.17328"
               y="587.81366" /></text>
        </g>
      </g>
      <path
         inkscape:connector-curvature="0"
         style="fill:#ffffff;fill-rule:nonzero;stroke:#000000;stroke-width:10;stroke-linecap:butt;stroke-linejoin:miter;stroke-miterlimit:4;stroke-opacity:1;stroke-dasharray:none"
         d="m 981.6875,477.4375 c 0,74.5625 -60.4425,135 -135,135 l -540,0 c -74.55938,0 -135,-60.4375 -135,-135 l 0,-1080 c 0,-74.55937 60.44062,-135 135,-135 l 540,0 c 74.5575,0 135,60.44063 135,135 l 0,1080 z"
         id="path11" />
      <path
         inkscape:connector-curvature="0"
         style="fill:#000000;fill-rule:nonzero;stroke:none"
         d="m 914.1875,477.4375 c 0,37.225 -30.28125,67.5 -67.5,67.5 l -540,0 c -37.2205,0 -67.5,-30.275 -67.5,-67.5 l 0,-1080 c 0,-37.2205 30.2795,-67.5 67.5,-67.5 l 540,0 c 37.21875,0 67.5,30.2795 67.5,67.5 l 0,1080 z m -67.5,-1181.25 -540,0 c -55.83013,0 -101.25,45.41988 -101.25,101.25 l 0,1080 c 0,55.825 45.41987,101.25 101.25,101.25 l 540,0 c 55.83,0 101.25,-45.425 101.25,-101.25 l 0,-1080 c 0,-55.83012 -45.42,-101.25 -101.25,-101.25 z"
         id="path13" />
      <path
         inkscape:connector-curvature="0"
         style="fill:#000000;fill-rule:evenodd;stroke:none"
         d="m 620.035,364.585 -29.9925,-9.8837 -6.41125,-8.3475 -6.025,20.7837 15.73875,28.1588 13.53125,50.5012 L 591.88,451.2763 576.14875,403.355 564.81,391.2875 540.2925,454.9388 528.945,446.8913 545.7775,378.11 c -3.98875,-11.3612 -1.44375,-28.6325 5.48,-46.535 -3.15625,0.6425 -6.34,1.2725 -9.49625,1.915 l -3.30125,33.2875 -8.41875,1.4675 0,-41.7112 c 0.23625,-0.2425 39.035,-28.8288 49.54625,-21.8525 10.65125,5.5312 15.94875,29.485 17.215,34.9 l 27.6275,18.4062 -4.395,6.5975 z m -35.47125,-89.64625 c 7.2525,0 13.15625,5.94 13.15625,13.18375 0,7.24 -5.90375,13.1725 -13.15625,13.1725 -7.2525,0 -13.19125,-5.9325 -13.19125,-13.1725 0,-7.24375 5.93875,-13.18375 13.19125,-13.18375 z m -131.62625,-22.5 0,225.00005 247.5,0 0,-225.00005 -247.5,0 z"
         id="path15" />
      <path
         inkscape:connector-curvature="0"
         style="fill:#000000;fill-rule:nonzero;stroke:none"
         d="m 325.32375,-310.0625 0,-184.8075 41.57625,0 0,-59.475 12.9125,-2.8375 0,-15.58125 -14.34125,-5.65625 0,-8.49375 -40.1475,0 0,-26.89875 -18.63625,0 0,303.75 18.63625,0 z"
         id="path17" />
      <path
         inkscape:connector-curvature="0"
         style="fill:#000000;fill-rule:nonzero;stroke:none"
         d="m 846.6875,-574.37625 c 0,0 -83.41,7.05375 -156.73125,-45.78762 -4.54875,-0.72988 -9.3675,-3.1555 -13.2175,-3.39963 -39.17875,8.52538 -71.16375,-12.6635 -92.54125,-23.85738 -19.22625,-2.92599 -14.67125,40.40713 8.39875,46.25963 -22.8175,2.4425 -181.46375,18.01875 -181.46375,18.01875 0,0 -14.92375,1.94375 -14.4325,13.635 0.2975,7.31 1.91875,16.0775 12.2475,16.0775 l 125.25625,0 c 0,0 0.24,11.68 10.3325,20.7025 12.0225,6.32625 29.31375,13.62063 30.0475,31.39563 9.61375,9.01125 37.01375,19.47625 41.8175,38.48125 8.66625,13.87875 37.7425,15.57499 48.55375,17.78875 8.17375,-1.4725 15.63375,-2.56876 25.9625,-3.65376 62.74875,-26.2975 155.77,-30.21374 155.77,-30.21374 l 0,-95.44688 z"
         id="path19" />
      <path
         inkscape:connector-curvature="0"
         style="fill:#000000;fill-rule:nonzero;stroke:none"
         d="m 606.63375,-340.615 -9.69,0 0,21.07875 9.69,0 c 5.4375,0 8.9825,-3.79 8.9825,-9.71 0,-6.395 -4.01875,-11.36875 -8.9825,-11.36875 z m 0.47375,-27.47375 -10.16375,0 0,18 10.16375,0 c 4.49,0 7.32625,-3.79 7.32625,-9.9475 0,-5.68375 -2.12625,-8.0525 -7.32625,-8.0525 z m 0,58.02625 -19.85625,0 0,-67.5 21.2725,0 c 8.98125,0 15.36375,7.105 15.36375,17.52625 0,6.1575 -1.6525,9 -7.09,14.685 5.2,4.2625 8.27125,9.9475 8.27125,16.815 0,10.185 -8.035,18.47375 -17.96125,18.47375 z"
         id="path21" />
      <path
         inkscape:connector-curvature="0"
         style="fill:#000000;fill-rule:nonzero;stroke:none"
         d="m 532.56125,-310.0625 0,-30.5525 -18.435,0 0,30.5525 -9.6925,0 0,-67.5 9.6925,0 0,27.47375 18.435,0 0,-27.47375 9.69,0 0,67.5 -9.69,0 z"
         id="path23" />
      <path
         inkscape:connector-curvature="0"
         style="fill:#000000;fill-rule:nonzero;stroke:none"
         d="m 839.36125,-310.0625 -20.79875,-45.23625 0,45.23625 -9.69,0 0,-67.5 9.69,0 18.435,40.5 0,-40.5 9.69,0 0,67.5 -7.32625,0 z"
         id="path25" />
      <path
         inkscape:connector-curvature="0"
         style="fill:#000000;fill-rule:nonzero;stroke:none"
         d="m 786.62125,-360.74625 c -1.67,-5.92125 -4.29375,-8.5275 -8.35125,-8.5275 -4.295,0 -6.9175,2.60625 -8.5875,8.29 -1.66875,5.21125 -2.1475,9.71125 -2.1475,17.29 0,7.34125 0.715,11.605 2.1475,17.0525 1.67,5.68375 4.2925,8.29 8.5875,8.29 4.0575,0 6.68125,-2.60625 8.35125,-8.29 1.67,-5.4475 2.14625,-9.47375 2.14625,-17.29 0,-7.57875 -0.715,-11.84125 -2.14625,-16.815 z m 7.635,40.2625 c -3.34,8.0525 -8.35,11.60625 -15.98625,11.60625 -8.11125,0 -12.88125,-3.55375 -16.22125,-11.60625 C 759.185,-327.115 758.23,-333.51 758.23,-343.93125 c 0,-10.18375 0.955,-17.0525 3.81875,-23.4475 3.57625,-8.0525 8.35,-11.3675 16.22125,-11.3675 7.8725,0 12.64625,3.315 15.98625,11.605 2.86125,6.63125 3.815,13.02625 3.815,23.21 0,10.42125 -0.95375,17.0525 -3.815,23.4475 z"
         id="path27" />
      <path
         inkscape:connector-curvature="0"
         style="fill:#000000;fill-rule:nonzero;stroke:none"
         d="m 381.4425,-368.08875 -9.9275,0 0,19.18375 9.9275,0 c 5.6725,0 8.745,-3.5525 8.745,-9.71 0,-5.685 -3.54625,-9.47375 -8.745,-9.47375 z m 0.4725,28.42125 -10.4,0 0,29.605 -9.69125,0 0,-67.5 20.09125,0 c 10.635,0 17.72625,7.57875 17.72625,18.9475 0,12.315 -6.38125,18.9475 -17.72625,18.9475 z"
         id="path29" />
      <path
         inkscape:connector-curvature="0"
         style="fill:#000000;fill-rule:nonzero;stroke:none"
         d="m 476.65875,-341.23375 c -2.92,-1.89375 -5.755,-3.79125 -7.56625,-5.06625 -5.4425,-3.83 -8.32375,-8.99875 -8.32375,-14.92 0,-9.71125 7.61125,-17.52625 17.36125,-17.52625 9.515,0 16.8875,7.34125 17.125,17.52625 l -9.275,0 c -0.2375,-4.7375 -3.5675,-7.81625 -7.85,-7.81625 -4.51875,0 -8.085,3.31625 -8.085,7.81625 0,3.315 1.425,5.21 6.42,8.0525 13.08125,7.57875 18.79,14.92125 18.79,24.63125 0,10.89625 -8.32375,19.65875 -18.79,19.65875 -11.89125,0 -19.025,-9.9475 -19.025,-21.08 l 9.51125,0 c 0,5.68375 2.855,11.60625 9.51375,11.60625 5.23375,0 9.515,-4.7375 9.515,-10.185 0,-4.23 -1.74875,-7.7925 -9.32125,-12.6975 z"
         id="path31" />
      <path
         inkscape:connector-curvature="0"
         style="fill:#000000;fill-rule:nonzero;stroke:none"
         d="m 701.71625,-368.5625 0,58.5 -9.73875,0 0,-58.5 -12.35,0 0,-9 34.44,0 0,9 -12.35125,0 z"
         id="path33" />
      <path
         inkscape:connector-curvature="0"
         style="fill:#000000;fill-rule:nonzero;stroke:none"
         d="m 739.4,-368.5625 0,58.5 -9.73875,0 0,-58.5 -12.35375,0 0,-9 34.44375,0 0,9 -12.35125,0 z"
         id="path35" />
      <path
         inkscape:connector-curvature="0"
         style="fill:#000000;fill-rule:nonzero;stroke:none"
         d="m 445.65875,-318.35125 c -3.31,5.4475 -9.69125,9.47375 -16.07375,9.47375 -6.61625,0 -13.235,-3.79 -16.54375,-9.47375 -1.89125,-3.55375 -2.6,-6.39625 -2.6,-11.8425 l 0,-47.36875 9.69125,0 0,48.5525 c 0,6.395 3.78125,10.65875 9.4525,10.65875 5.20125,0 8.9825,-4.26375 8.9825,-10.65875 l 0,-48.5525 9.69125,0 0,47.36875 c 0,5.44625 -0.71,8.28875 -2.6,11.8425 z"
         id="path37" />
      <path
         inkscape:connector-curvature="0"
         style="fill:#000000;fill-rule:nonzero;stroke:none"
         d="m 669.46625,-318.35125 c -3.30875,5.4475 -9.69,9.47375 -16.0725,9.47375 -6.61875,0 -13.2375,-3.79 -16.545,-9.47375 -1.8925,-3.55375 -2.6,-6.39625 -2.6,-11.8425 l 0,-47.36875 9.69,0 0,48.5525 c 0,6.395 3.78125,10.65875 9.455,10.65875 5.2,0 8.9825,-4.26375 8.9825,-10.65875 l 0,-48.5525 9.69,0 0,47.36875 c 0,5.44625 -0.71125,8.28875 -2.6,11.8425 z"
         id="path39" />
      <path
         inkscape:connector-curvature="0"
         style="fill:#000000;fill-rule:nonzero;stroke:none"
         d="m 705.16875,-200.0575 c -2.84875,-4.73625 -6.33125,-6.63125 -11.71375,-6.9475 -6.96375,-0.31625 -11.39625,3.15875 -14.56,11.0525 -2.2175,5.36875 -3.48375,13.57875 -3.48375,21.15875 0,9.47375 1.89875,19.2625 5.38125,24.9475 2.85,4.73625 6.64875,6.94625 12.34625,6.94625 6.6475,0 10.7625,-3.47375 13.93,-11.3675 1.89875,-4.73625 3.48125,-13.58 3.48125,-20.52625 0,-10.105 -1.9,-19.2625 -5.38125,-25.26375 z m 9.8125,61.58 c -5.065,6.94625 -12.34625,10.105 -21.8425,10.105 -12.6625,0 -20.5775,-5.0525 -25.9575,-16.105 -3.8,-7.58 -6.33125,-19.57875 -6.33125,-30.31625 0,-14.8425 3.79875,-28.10625 9.81375,-36.6325 5.38125,-6.94625 12.6625,-10.105 23.10875,-10.105 11.39625,0 19.30875,5.0525 25.0075,16.10625 3.79875,7.89375 6.015,19.2625 6.015,30.63125 0,14.21 -3.4825,28.42 -9.81375,36.31625 z"
         id="path41" />
      <path
         inkscape:connector-curvature="0"
         style="fill:#000000;fill-rule:nonzero;stroke:none"
         d="m 395.38875,-200.0575 c -2.84875,-4.73625 -6.33125,-6.63125 -11.71375,-6.9475 -6.96375,-0.31625 -11.39625,3.15875 -14.56125,11.0525 -2.21625,5.36875 -3.4825,13.57875 -3.4825,21.15875 0,9.47375 1.89875,19.2625 5.38125,24.9475 2.85,4.73625 6.6475,6.94625 12.34625,6.94625 6.6475,0 10.7625,-3.47375 13.92875,-11.3675 1.9,-4.73625 3.4825,-13.58 3.4825,-20.52625 0,-10.105 -1.9,-19.2625 -5.38125,-25.26375 z m 9.8125,61.58 c -5.065,6.94625 -12.34625,10.105 -21.8425,10.105 -12.6625,0 -20.5775,-5.0525 -25.95875,-16.105 -3.79875,-7.58 -6.33,-19.57875 -6.33,-30.31625 0,-14.8425 3.79875,-28.10625 9.8125,-36.6325 5.3825,-6.94625 12.6625,-10.105 23.11,-10.105 11.39625,0 19.30875,5.0525 25.0075,16.10625 3.79875,7.89375 6.015,19.2625 6.015,30.63125 0,14.21 -3.4825,28.42 -9.81375,36.31625 z"
         id="path43" />
      <path
         inkscape:connector-curvature="0"
         style="fill:#000000;fill-rule:nonzero;stroke:none"
         d="m 318.435,-207.4325 0,77.36875 -14.27126,0 0,-77.36875 -20.61587,0 0,-12.63125 55.82212,0 0,12.63125 -20.93499,0 z"
         id="path45" />
      <path
         inkscape:connector-curvature="0"
         style="fill:#000000;fill-rule:nonzero;stroke:none"
         d="m 625.55875,-204.27375 c -2.21,-1.2625 -3.475,-1.5775 -8.21125,-1.5775 l -17.05375,0 0,22.105 17.05375,0 c 4.42125,0 6.00125,-0.315 8.21125,-1.58 3.47375,-1.895 5.68625,-5.68375 5.68625,-9.4725 0,-3.78875 -2.2125,-7.58125 -5.68625,-9.475 z m 6.315,74.21125 -14.52625,-39.1575 -17.05375,0 0,39.1575 -14.21,0 0,-90 29.685,0 c 6.9475,0 11.685,0.6325 16.105,2.84125 7.89625,3.79 13.58125,13.265 13.58125,22.4225 0,9.4725 -5.685,18.9475 -13.89625,22.73625 l 15.79125,42 -15.47625,0 z"
         id="path47" />
      <path
         inkscape:connector-curvature="0"
         style="fill:#000000;fill-rule:nonzero;stroke:none"
         d="m 790.71875,-135.5425 c -5.0525,4.42125 -12,6.94875 -19.58,6.94875 -15.47375,0 -26.84375,-9.1575 -32.845,-22.7375 l 13.58,-5.0525 c 3.79125,8.5275 10.7375,13.26375 19.265,13.26375 8.21125,0 13.89625,-5.68375 13.89625,-13.26375 0,-12 -13.89625,-13.895 -25.58125,-18.63125 -5.36875,-2.21 -17.37,-7.57875 -17.37,-22.42125 0,-17.68375 12.00125,-24.31625 28.1075,-24.31625 12.63125,0 21.15875,7.26375 25.58125,18.31625 l -12.6325,3.78875 c 0,0 -3.15875,-7.5775 -13.26375,-7.89375 -6.63375,-0.315 -14.52875,2.21 -13.89625,10.42125 1.2625,16.73625 43.58125,5.68375 43.58125,41.0525 0,8.21125 -3.15875,15.47375 -8.8425,20.525 z"
         id="path49" />
      <path
         inkscape:connector-curvature="0"
         style="fill:#000000;fill-rule:nonzero;stroke:none"
         d="m 860.985,-135.5425 c -5.0525,4.42125 -12,6.94875 -19.58125,6.94875 -15.47125,0 -26.8425,-9.1575 -32.84375,-22.7375 l 13.58,-5.0525 c 3.7925,8.5275 10.7375,13.26375 19.26375,13.26375 8.2125,0 13.8975,-5.68375 13.8975,-13.26375 0,-12 -13.8975,-13.895 -25.58125,-18.63125 -5.36875,-2.21 -17.37,-7.57875 -17.37,-22.42125 0,-17.68375 12.00125,-24.31625 28.1075,-24.31625 12.63125,0 21.15875,7.26375 25.58,18.31625 l -12.63125,3.78875 c 0,0 -3.15875,-7.5775 -13.26375,-7.89375 -6.63375,-0.315 -14.52875,2.21 -13.8975,10.42125 1.26375,16.73625 43.5825,5.68375 43.5825,41.0525 0,8.21125 -3.15875,15.47375 -8.8425,20.525 z"
         id="path51" />
      <path
         inkscape:connector-curvature="0"
         style="fill:#000000;fill-rule:nonzero;stroke:none"
         d="m 539.1225,-128.48375 c -13.26375,0 -21.79,-5.0525 -27.475,-16.105 -4.105,-7.895 -6.6325,-19.26375 -6.6325,-30.6325 0,-14.21 3.79,-28.42 10.10625,-36.315 5.36875,-6.63125 12.9475,-10.10625 23.05375,-10.10625 13.58125,0 22.1075,5.685 28.1075,18.3175 l -13.265,5.685 c -5.0525,-7.58 -7.89375,-9.47625 -14.8425,-9.47625 -7.2625,0 -12,3.15875 -15.15875,11.05375 -2.21,5.3675 -3.47375,13.26375 -3.47375,20.84125 0,9.79 2.21125,19.58 5.685,25.26375 3.1575,4.73625 7.26375,6.9475 13.57875,6.9475 6.00125,0 10.4225,-3.15875 13.8975,-10.42 l 13.57875,5.0525 c -5.36875,13.2625 -14.21125,19.89375 -27.16,19.89375 z"
         id="path53" />
      <path
         inkscape:connector-curvature="0"
         style="fill:#000000;fill-rule:nonzero;stroke:none"
         d="m 756.91625,114.945 c -2.85,-4.73875 -6.33125,-6.63375 -11.7125,-6.94875 -6.965,-0.315 -11.39625,3.1575 -14.5625,11.0525 -2.215,5.36875 -3.48125,13.57875 -3.48125,21.1575 0,9.475 1.89875,19.265 5.38125,24.94875 2.84875,4.73625 6.6475,6.9475 12.34625,6.9475 6.6475,0 10.7625,-3.47375 13.9275,-11.36875 1.9,-4.73625 3.4825,-13.58 3.4825,-20.5275 0,-10.105 -1.89875,-19.2625 -5.38125,-25.26125 z m 9.81375,61.5775 c -5.06625,6.9475 -12.34625,10.1075 -21.8425,10.1075 -12.6625,0 -20.57625,-5.05375 -25.95875,-16.10625 -3.7975,-7.58125 -6.33,-19.58 -6.33,-30.3175 0,-14.84125 3.7975,-28.10375 9.8125,-36.63125 5.38125,-6.9475 12.6625,-10.105 23.1075,-10.105 11.3975,0 19.3125,5.05375 25.01,16.10625 3.7975,7.8925 6.01375,19.2625 6.01375,30.63 0,14.21125 -3.48125,28.4225 -9.8125,36.31625 z"
         id="path55" />
      <path
         inkscape:connector-curvature="0"
         style="fill:#000000;fill-rule:nonzero;stroke:none"
         d="m 471.35375,184.94 0,-90.0025 14.40125,0 0,90.0025 -14.40125,0 z"
         id="path57" />
      <path
         inkscape:connector-curvature="0"
         style="fill:#000000;fill-rule:nonzero;stroke:none"
         d="m 534.1425,107.56875 0,77.36875 -14.2725,0 0,-77.36875 -20.61625,0 0,-12.63125 55.82125,0 0,12.63125 -20.9325,0 z"
         id="path59" />
      <path
         inkscape:connector-curvature="0"
         style="fill:#000000;fill-rule:nonzero;stroke:none"
         d="m 835.81875,110.72875 c -2.21125,-1.265 -3.475,-1.58 -8.21125,-1.58 l -17.055,0 0,22.105 17.055,0 c 4.42125,0 6,-0.315 8.21125,-1.5775 3.47375,-1.895 5.68625,-5.68625 5.68625,-9.475 0,-3.78875 -2.2125,-7.57875 -5.68625,-9.4725 z m 6.315,74.20875 -14.52625,-39.1575 -17.055,0 0,39.1575 -14.21,0 0,-90 29.68625,0 c 6.9475,0 11.68375,0.6325 16.105,2.84375 7.89625,3.79 13.58,13.2625 13.58,22.42 0,9.475 -5.68375,18.9475 -13.895,22.73625 l 15.79125,42 -15.47625,0 z"
         id="path61" />
      <path
         inkscape:connector-curvature="0"
         style="fill:#000000;fill-rule:nonzero;stroke:none"
         d="m 362.6025,184.9375 -12.66875,0 -14.25625,-57.78625 -13.93875,57.78625 -12.67125,0 -13.30287,-90 14.57037,0 6.97,47.37 11.40375,-47.37 13.93875,0 11.72125,47.37 6.96875,-47.37 14.57126,0 -13.30626,90 z"
         id="path63" />
      <path
         inkscape:connector-curvature="0"
         style="fill:#000000;fill-rule:nonzero;stroke:none"
         d="m 419.74,119.88625 -9.21,25.26375 18.105,0 -8.895,-25.26375 z m 22.86875,65.05375 -8.8925,-25.26375 -28.2675,0 -8.89375,25.26375 -15.24625,0 31.1275,-90.0025 14.29125,0 31.1275,90.0025 -15.24625,0 z"
         id="path65" />
      <path
         inkscape:connector-curvature="0"
         style="fill:#000000;fill-rule:nonzero;stroke:none"
         d="m 659.26625,109.14875 0,22.105 26.1775,0 0,14.52625 -26.1775,0 0,39.16 -14.19125,0 0,-90.0025 55.8225,0 0,14.21125 -41.63125,0 z"
         id="path67" />
      <path
         inkscape:connector-curvature="0"
         style="fill:#000000;fill-rule:nonzero;stroke:none"
         d="m 579.47,-49.9325 0,77.37 -14.27125,0 0,-77.37 -20.61875,0 0,-12.63125 55.82375,0 0,12.63125 -20.93375,0 z"
         id="path69" />
      <path
         inkscape:connector-curvature="0"
         style="fill:#000000;fill-rule:nonzero;stroke:none"
         d="m 859.505,-49.9325 0,77.37 -14.2725,0 0,-77.37 -20.61625,0 0,-12.63125 55.82125,0 0,12.63125 -20.9325,0 z"
         id="path71" />
      <path
         inkscape:connector-curvature="0"
         style="fill:#000000;fill-rule:nonzero;stroke:none"
         d="m 653.38,-46.77375 c -2.21125,-1.2625 -3.475,-1.58 -8.21125,-1.58 l -17.05375,0 0,22.1075 17.05375,0 c 4.42125,0 6,-0.3175 8.21125,-1.58 3.47375,-1.895 5.68375,-5.68375 5.68375,-9.4725 0,-3.79125 -2.21,-7.58125 -5.68375,-9.475 z m 6.315,74.21125 -14.52625,-39.16 -17.05375,0 0,39.16 -14.2125,0 0,-90 29.68625,0 c 6.94875,0 11.685,0.63 16.10625,2.84125 7.89625,3.79 13.58,13.2625 13.58,22.4225 0,9.4725 -5.68375,18.945 -13.895,22.73625 l 15.79125,42 -15.47625,0 z"
         id="path73" />
      <path
         inkscape:connector-curvature="0"
         style="fill:#000000;fill-rule:nonzero;stroke:none"
         d="m 528.53875,21.95875 c -5.05375,4.42125 -12,6.94625 -19.58,6.94625 -15.47375,0 -26.84375,-9.1575 -32.845,-22.7375 l 13.58,-5.05125 c 3.79125,8.52625 10.7375,13.2625 19.265,13.2625 8.21125,0 13.89625,-5.68375 13.89625,-13.2625 0,-11.99875 -13.89625,-13.89375 -25.58125,-18.6325 -5.36875,-2.2075 -17.37,-7.5775 -17.37,-22.42 0,-17.685 12.00125,-24.31625 28.10875,-24.31625 12.63125,0 21.1575,7.26375 25.57875,18.31625 L 520.96,-42.1475 c 0,0 -3.1575,-7.57625 -13.26375,-7.89375 -6.6325,-0.31625 -14.5275,2.21 -13.8975,10.42125 1.26375,16.735 43.58375,5.6825 43.58375,41.05125 0,8.21125 -3.16,15.47375 -8.84375,20.5275 z"
         id="path75" />
      <path
         inkscape:connector-curvature="0"
         style="fill:#000000;fill-rule:nonzero;stroke:none"
         d="m 690.47125,27.4375 0,-90 52.98375,0 0,14.20875 -38.79125,0 0,22.1075 26.17625,0 0,14.52625 -26.17625,0 0,24.63125 41.63125,0 0,14.52625 -55.82375,0 z"
         id="path77" />
      <path
         inkscape:connector-curvature="0"
         style="fill:#000000;fill-rule:nonzero;stroke:none"
         d="m 761.595,27.4375 0,-90 52.98375,0 0,14.20875 -38.7925,0 0,22.1075 26.1775,0 0,14.52625 -26.1775,0 0,24.63125 41.63125,0 0,14.52625 -55.8225,0 z"
         id="path79" />
      <path
         inkscape:connector-curvature="0"
         style="fill:#000000;fill-rule:nonzero;stroke:none"
         d="m 388.33375,56.11875 c 1.685,1.14 3.72,1.8075 5.90875,1.8075 5.825,0 10.54625,-4.72 10.54625,-10.5475 0,-1.165 -0.19125,-2.2825 -0.54,-3.33 L 394.01,10.4525 l 58.9275,0 0,-56.25 -58.9275,0 10.23875,-33.5975 c 0.34875,-1.04625 0.54,-2.165 0.54,-3.33 0,-5.82625 -4.72125,-10.5475 -10.54625,-10.5475 -2.18875,0 -4.22375,0.66625 -5.90875,1.8075 L 272.9375,-17.6725 388.33375,56.11875 z"
         id="path81" />
    </g>
  </g>
</svg>
