<?xml version="1.0" encoding="UTF-8" standalone="no"?>
<!-- Generator: Adobe Illustrator 12.0.1, SVG Export Plug-In  -->

<svg
   xmlns:dc="http://purl.org/dc/elements/1.1/"
   xmlns:cc="http://creativecommons.org/ns#"
   xmlns:rdf="http://www.w3.org/1999/02/22-rdf-syntax-ns#"
   xmlns:svg="http://www.w3.org/2000/svg"
   xmlns="http://www.w3.org/2000/svg"
   xmlns:sodipodi="http://sodipodi.sourceforge.net/DTD/sodipodi-0.dtd"
   xmlns:inkscape="http://www.inkscape.org/namespaces/inkscape"
   version="1.1"
   width="169.71875"
   height="281.875"
   viewBox="-1 0 169.71875 281.875"
   enable-background="new -1 0 289 288"
   xml:space="preserve"
   id="svg2"
   inkscape:version="0.48.2 r9819"
   sodipodi:docname="MUTCD R10-3d.svg"><metadata
   id="metadata22"><rdf:RDF><cc:Work
       rdf:about=""><dc:format>image/svg+xml</dc:format><dc:type
         rdf:resource="http://purl.org/dc/dcmitype/StillImage" /><dc:title></dc:title></cc:Work></rdf:RDF></metadata><sodipodi:namedview
   pagecolor="#ffffff"
   bordercolor="#666666"
   borderopacity="1"
   objecttolerance="10"
   gridtolerance="10"
   guidetolerance="10"
   inkscape:pageopacity="0"
   inkscape:pageshadow="2"
   inkscape:window-width="1280"
   inkscape:window-height="1004"
   id="namedview20"
   showgrid="false"
   fit-margin-top="0"
   fit-margin-left="0"
   fit-margin-right="0"
   fit-margin-bottom="0"
   inkscape:zoom="2.3177391"
   inkscape:cx="66.737096"
   inkscape:cy="132.89183"
   inkscape:window-x="-8"
   inkscape:window-y="-8"
   inkscape:window-maximized="1"
   inkscape:current-layer="svg2"
   showguides="true"
   inkscape:guide-bbox="true" />
<defs
   id="defs4">
</defs>







<path
   inkscape:connector-curvature="0"
   d="m 167.9645,253.0795 c 0,15.42 -12.61625,28.035 -28.035,28.035 l -112.14125,0 c -15.41875,0 -28.035,-12.615 -28.035,-28.035 l 0,-224.28125 c 0,-15.42 12.61625,-28.035 28.035,-28.035 l 112.14125,0 c 15.41875,0 28.035,12.615 28.035,28.035 l 0,224.28125 z"
   style="fill:#ffffff;fill-opacity:1;fill-rule:nonzero;stroke:#000000;stroke-width:1.5;stroke-miterlimit:4;stroke-opacity:1;stroke-dasharray:none"
   id="path9756" /><g
   id="g9494"
   transform="matrix(1.25,0,0,-1.25,116.11313,-4.84725)"
   style="fill:#000000;stroke:none"><path
     inkscape:connector-curvature="0"
     d="M 0,0 15.84,0"
     style="fill:#000000;stroke:none"
     id="path9496" /></g><path
   inkscape:connector-curvature="0"
   d="m 60.49875,34.92 83.45125,0 0,1.4875 -83.45125,0 0,-1.4875 z"
   style="fill:#000000;fill-opacity:1;fill-rule:evenodd;stroke:none"
   id="path9788" /><g
   id="g9790"
   transform="matrix(1.25,0,0,-1.25,63.15825,33.44325)"
   style="fill:#000000;stroke:none"><path
     inkscape:connector-curvature="0"
     d="m 0,0 c -1.448,0 -1.927,1.103 -1.98,2.392 l 1.156,0 c 0,-0.531 0.16,-1.222 0.824,-1.222 0.518,0 0.718,0.451 0.718,0.903 0,0.957 -0.359,1.542 -1.05,2.366 -0.704,0.837 -1.435,1.542 -1.435,2.711 0,1.077 0.651,2.1 1.834,2.1 1.302,0 1.714,-0.97 1.82,-2.1 l -1.169,0 C 0.705,7.576 0.625,8.121 0.093,8.121 -0.438,8.121 -0.598,7.589 -0.598,7.15 -0.598,6.552 -0.106,6.06 0.585,5.29 1.648,4.12 1.887,2.99 1.887,2.073 1.887,0.984 1.143,0 0,0"
     style="fill:#000000;fill-opacity:1;fill-rule:nonzero;stroke:none"
     id="path9792" /></g><g
   id="g9794"
   transform="matrix(1.25,0,0,-1.25,69.20562,23.492)"
   style="fill:#000000;stroke:none"><path
     inkscape:connector-curvature="0"
     d="m 0,0 0,-7.802 -1.13,0 0,7.802 -1.103,0 0,1.17 3.403,0 L 1.17,0 0,0 z"
     style="fill:#000000;fill-opacity:1;fill-rule:nonzero;stroke:none"
     id="path9796" /></g><g
   id="g9798"
   transform="matrix(1.25,0,0,-1.25,74.37236,25.85101)"
   style="fill:#000000;stroke:none"><path
     inkscape:connector-curvature="0"
     d="m 0,0 -0.505,-2.352 0.97,0 L 0,0 z m 1.223,-5.914 -0.505,2.392 -1.476,0 -0.505,-2.392 -1.169,0 1.834,8.971 1.156,0 1.861,-8.971 -1.196,0 z"
     style="fill:#000000;fill-opacity:1;fill-rule:nonzero;stroke:none"
     id="path9800" /></g><g
   id="g9802"
   transform="matrix(1.25,0,0,-1.25,81.08425,23.492)"
   style="fill:#000000;stroke:none"><path
     inkscape:connector-curvature="0"
     d="m 0,0 -0.558,0 0,-2.445 0.744,0 c 0.638,0 0.824,0.279 0.824,1.129 C 1.01,-0.306 0.784,0 0,0 m 1.236,-3.336 0.904,-4.466 -1.157,0 -1.01,4.187 -0.531,0 0,-4.187 -1.143,0 0,8.972 1.767,0 c 1.383,0 2.113,-0.851 2.113,-2.512 0,-1.01 -0.292,-1.582 -0.943,-1.994"
     style="fill:#000000;fill-opacity:1;fill-rule:nonzero;stroke:none"
     id="path9804" /></g><g
   id="g9806"
   transform="matrix(1.25,0,0,-1.25,87.47987,23.492)"
   style="fill:#000000;stroke:none"><path
     inkscape:connector-curvature="0"
     d="m 0,0 0,-7.802 -1.13,0 0,7.802 -1.103,0 0,1.17 3.403,0 L 1.17,0 0,0 z"
     style="fill:#000000;fill-opacity:1;fill-rule:nonzero;stroke:none"
     id="path9808" /></g><g
   id="g9810"
   transform="matrix(1.25,0,0,-1.25,100.21612,32.34675)"
   style="fill:#000000;stroke:none"><path
     inkscape:connector-curvature="0"
     d="m 0,0 c -0.226,-0.478 -0.691,-0.877 -1.568,-0.877 -0.824,0 -1.422,0.372 -1.702,1.196 -0.252,0.758 -0.372,1.98 -0.372,3.429 0,0.824 0.093,2.02 0.226,2.711 0.253,1.382 0.784,1.914 1.848,1.914 1.01,0 1.674,-0.625 1.767,-1.728 l -1.169,0 c -0.027,0.386 -0.253,0.572 -0.559,0.572 -0.411,0 -0.637,-0.293 -0.757,-0.877 -0.16,-0.731 -0.186,-1.396 -0.186,-2.592 0,-1.249 0.026,-1.794 0.186,-2.552 0.12,-0.598 0.346,-0.904 0.718,-0.904 0.411,0 0.598,0.306 0.598,1.104 l 1.169,0 C 0.199,1.396 0.226,0.452 0,0"
     style="fill:#000000;fill-opacity:1;fill-rule:nonzero;stroke:none"
     id="path9812" /></g><g
   id="g9814"
   transform="matrix(1.25,0,0,-1.25,104.71814,23.492)"
   style="fill:#000000;stroke:none"><path
     inkscape:connector-curvature="0"
     d="m 0,0 -0.558,0 0,-2.445 0.744,0 c 0.638,0 0.824,0.279 0.824,1.129 C 1.01,-0.306 0.784,0 0,0 m 1.236,-3.336 0.904,-4.466 -1.156,0 -1.01,4.187 -0.532,0 0,-4.187 -1.143,0 0,8.972 1.767,0 c 1.383,0 2.114,-0.851 2.114,-2.512 0,-1.01 -0.293,-1.582 -0.944,-1.994"
     style="fill:#000000;fill-opacity:1;fill-rule:nonzero;stroke:none"
     id="path9816" /></g><g
   id="g9818"
   transform="matrix(1.25,0,0,-1.25,111.47962,23.32575)"
   style="fill:#000000;stroke:none"><path
     inkscape:connector-curvature="0"
     d="m 0,0 c -1.037,0 -0.904,-2.804 -0.904,-3.429 0,-0.598 -0.133,-3.495 0.904,-3.495 1.01,0 0.89,2.897 0.89,3.495 C 0.89,-2.711 0.851,0 0,0 m 0,-8.094 c -2.233,0 -2.073,3.176 -2.073,4.665 0,1.542 -0.12,4.585 2.073,4.585 2.206,0 2.087,-3.083 2.087,-4.585 0,-1.489 0.119,-4.665 -2.087,-4.665"
     style="fill:#000000;fill-opacity:1;fill-rule:nonzero;stroke:none"
     id="path9820" /></g><g
   id="g9822"
   transform="matrix(1.25,0,0,-1.25,118.025,33.44325)"
   style="fill:#000000;stroke:none"><path
     inkscape:connector-curvature="0"
     d="m 0,0 c -1.448,0 -1.927,1.103 -1.98,2.392 l 1.156,0 c 0,-0.531 0.16,-1.222 0.824,-1.222 0.518,0 0.718,0.451 0.718,0.903 0,0.957 -0.359,1.542 -1.05,2.366 -0.704,0.837 -1.436,1.542 -1.436,2.711 0,1.077 0.652,2.1 1.834,2.1 1.303,0 1.715,-0.97 1.821,-2.1 l -1.169,0 C 0.705,7.576 0.625,8.121 0.093,8.121 -0.438,8.121 -0.598,7.589 -0.598,7.15 -0.598,6.552 -0.106,6.06 0.585,5.29 1.648,4.12 1.887,2.99 1.887,2.073 1.887,0.984 1.143,0 0,0"
     style="fill:#000000;fill-opacity:1;fill-rule:nonzero;stroke:none"
     id="path9824" /></g><g
   id="g9826"
   transform="matrix(1.25,0,0,-1.25,123.98926,33.44325)"
   style="fill:#000000;stroke:none"><path
     inkscape:connector-curvature="0"
     d="m 0,0 c -1.449,0 -1.927,1.103 -1.98,2.392 l 1.156,0 c 0,-0.531 0.16,-1.222 0.824,-1.222 0.518,0 0.718,0.451 0.718,0.903 0,0.957 -0.359,1.542 -1.05,2.366 -0.704,0.837 -1.436,1.542 -1.436,2.711 0,1.077 0.652,2.1 1.834,2.1 1.303,0 1.715,-0.97 1.821,-2.1 l -1.169,0 C 0.704,7.576 0.625,8.121 0.093,8.121 -0.439,8.121 -0.598,7.589 -0.598,7.15 -0.598,6.552 -0.106,6.06 0.585,5.29 1.648,4.12 1.887,2.99 1.887,2.073 1.887,0.984 1.143,0 0,0"
     style="fill:#000000;fill-opacity:1;fill-rule:nonzero;stroke:none"
     id="path9828" /></g><path
   inkscape:connector-curvature="0"
   d="m 128.1425,22.03 1.42875,0 0,11.21375 -1.42875,0 0,-11.21375 z"
   style="fill:#000000;fill-opacity:1;fill-rule:nonzero;stroke:none"
   id="path9830" /><g
   id="g9832"
   transform="matrix(1.25,0,0,-1.25,135.65162,33.24387)"
   style="fill:#000000;stroke:none"><path
     inkscape:connector-curvature="0"
     d="m 0,0 -1.754,5.316 0,-5.316 -1.143,0 0,8.971 1.143,0 1.594,-4.465 0,4.465 1.144,0 L 0.984,0 0,0 z"
     style="fill:#000000;fill-opacity:1;fill-rule:nonzero;stroke:none"
     id="path9834" /></g><g
   id="g9836"
   transform="matrix(1.25,0,0,-1.25,143.64261,32.14737)"
   style="fill:#000000;stroke:none"><path
     inkscape:connector-curvature="0"
     d="m 0,0 c -0.173,-0.625 -0.784,-1.037 -1.595,-1.037 -0.917,0 -1.449,0.346 -1.741,1.196 -0.279,0.825 -0.372,1.635 -0.372,3.469 0,1.794 0.106,2.579 0.412,3.429 0.292,0.811 0.811,1.157 1.701,1.157 0.997,0 1.595,-0.625 1.728,-1.728 l -1.13,0 C -1.063,6.871 -1.25,7.057 -1.568,7.057 -1.98,7.057 -2.259,6.765 -2.352,6.18 -2.472,5.449 -2.539,4.851 -2.539,3.628 c 0,-1.236 0.027,-1.834 0.146,-2.591 0.107,-0.598 0.36,-0.904 0.758,-0.904 0.412,0 0.638,0.372 0.638,0.97 l 0,1.196 -0.545,0 0,1.17 1.675,0 0,-2.299 C 0.133,0.758 0.08,0.279 0,0"
     style="fill:#000000;fill-opacity:1;fill-rule:nonzero;stroke:none"
     id="path9838" /></g><g
   id="g9840"
   transform="matrix(1.25,0,0,-1.25,83.70937,49.68988)"
   style="fill:#000000;stroke:none"><path
     inkscape:connector-curvature="0"
     d="M 0,0 -0.984,0 -1.834,5.037 -2.645,0 l -0.983,0 -1.037,8.971 1.17,0 0.465,-4.16 0.731,4.16 0.97,0 0.731,-4.16 0.465,4.16 1.17,0 L 0,0 z"
     style="fill:#000000;fill-opacity:1;fill-rule:nonzero;stroke:none"
     id="path9842" /></g><g
   id="g9844"
   transform="matrix(1.25,0,0,-1.25,88.39437,45.95211)"
   style="fill:#000000;stroke:none"><path
     inkscape:connector-curvature="0"
     d="m 0,0 c 0,0.16 -0.386,0.226 -0.505,0.226 -0.492,0 -0.532,-0.704 -0.532,-1.05 0,-0.439 -0.026,-1.196 0.598,-1.196 0.386,0 0.439,0.266 0.439,0.598 L 0,0 z m 0.093,-2.99 0,0.186 c -0.186,-0.213 -0.479,-0.279 -0.758,-0.279 -1.063,0 -1.515,1.276 -1.515,2.299 0,0.917 0.452,2.233 1.555,2.233 0.213,0 0.426,-0.053 0.625,-0.12 l 0,0.465 c 0,0.386 -0.053,0.691 -0.505,0.691 -0.479,0 -0.904,-0.571 -1.103,-0.943 l -0.279,1.422 c 0.345,0.399 0.784,0.757 1.342,0.757 1.356,0 1.675,-1.222 1.675,-2.339 l 0,-4.372 -1.037,0 z"
     style="fill:#000000;fill-opacity:1;fill-rule:nonzero;stroke:none"
     id="path9846" /></g><g
   id="g9848"
   transform="matrix(1.25,0,0,-1.25,93.77688,49.29113)"
   style="fill:#000000;stroke:none"><path
     inkscape:connector-curvature="0"
     d="m 0,0 c -0.226,-0.292 -0.412,-0.412 -0.665,-0.412 -0.69,0 -1.196,0.717 -1.196,1.661 l 0,3.947 -0.691,0 0,1.037 0.691,0 0,1.887 1.17,0.691 0,-2.578 0.784,0 0,-1.023 -0.784,0 0,-3.961 c 0,-0.305 0.159,-0.531 0.372,-0.531 0.186,0 0.279,0.132 0.439,0.345 L 0,0 z"
     style="fill:#000000;fill-opacity:1;fill-rule:nonzero;stroke:none"
     id="path9850" /></g><g
   id="g9852"
   transform="matrix(1.25,0,0,-1.25,96.56799,49.83961)"
   style="fill:#000000;stroke:none"><path
     inkscape:connector-curvature="0"
     d="m 0,0 c -1.356,0 -1.661,1.595 -1.661,3.27 0,1.82 0.159,3.561 1.661,3.561 0.89,0 1.329,-0.704 1.515,-1.701 L 0.478,4.625 C 0.438,5.157 0.319,5.595 0,5.595 -0.651,5.595 -0.532,3.735 -0.532,3.296 -0.532,2.884 -0.558,1.064 0.04,1.064 0.292,1.09 0.412,1.595 0.478,2.1 L 1.515,1.728 C 1.289,0.718 0.89,0 0,0"
     style="fill:#000000;fill-opacity:1;fill-rule:nonzero;stroke:none"
     id="path9854" /></g><g
   id="g9856"
   transform="matrix(1.25,0,0,-1.25,102.13325,49.68988)"
   style="fill:#000000;stroke:none"><path
     inkscape:connector-curvature="0"
     d="m 0,0 0,4.505 c 0,0.346 0.04,1.037 -0.478,1.037 -0.466,0 -0.439,-0.731 -0.439,-1.037 l 0,-4.505 -1.13,0 0,8.439 1.13,0.691 0,-2.671 c 0.186,0.173 0.465,0.266 0.718,0.266 0.584,0 1.329,-0.598 1.329,-2.193 L 1.13,0 0,0 z"
     style="fill:#000000;fill-opacity:1;fill-rule:nonzero;stroke:none"
     id="path9858" /></g><g
   id="g9860"
   transform="matrix(1.25,0,0,-1.25,112.44962,39.938)"
   style="fill:#000000;stroke:none"><path
     inkscape:connector-curvature="0"
     d="m 0,0 0,-2.299 1.316,0 0,-1.196 -1.316,0 0,-4.307 -1.143,0 0,8.972 3.429,0 L 2.286,0 0,0 z"
     style="fill:#000000;fill-opacity:1;fill-rule:nonzero;stroke:none"
     id="path9862" /></g><g
   id="g9864"
   transform="matrix(1.25,0,0,-1.25,118.34712,42.81212)"
   style="fill:#000000;stroke:none"><path
     inkscape:connector-curvature="0"
     d="m 0,0 c -0.691,0 -0.545,-1.754 -0.545,-2.193 0,-0.412 -0.027,-2.286 0.545,-2.272 0.505,0.013 0.465,1.833 0.465,2.272 C 0.465,-1.754 0.598,0 0,0 m 0,-5.622 c -1.355,0 -1.701,1.728 -1.701,3.389 0,1.834 0.159,3.429 1.701,3.429 1.342,0 1.595,-1.542 1.595,-3.389 0,-1.674 -0.346,-3.429 -1.595,-3.429"
     style="fill:#000000;fill-opacity:1;fill-rule:nonzero;stroke:none"
     id="path9866" /></g><g
   id="g9868"
   transform="matrix(1.25,0,0,-1.25,124.59375,43.3105)"
   style="fill:#000000;stroke:none"><path
     inkscape:connector-curvature="0"
     d="m 0,0 c -0.16,0.213 -0.279,0.372 -0.465,0.372 -0.452,0 -0.638,-0.465 -0.638,-1.289 l 0,-4.187 -1.13,0 0,6.553 1.13,0 0,-0.319 c 0.186,0.319 0.319,0.478 0.598,0.478 0.292,0 0.505,-0.199 0.638,-0.452 L 0,0 z"
     style="fill:#000000;fill-opacity:1;fill-rule:nonzero;stroke:none"
     id="path9870" /></g><g
   id="g9872"
   transform="matrix(1.25,0,0,-1.25,87.07676,63.891)"
   style="fill:#000000;stroke:none"><path
     inkscape:connector-curvature="0"
     d="m 0,0 -0.97,0 -1.609,8.971 1.17,0 0.944,-5.103 0.917,5.103 1.156,0 L 0,0 z"
     style="fill:#000000;fill-opacity:1;fill-rule:nonzero;stroke:none"
     id="path9874" /></g><g
   id="g9876"
   transform="matrix(1.25,0,0,-1.25,92.02725,57.04625)"
   style="fill:#000000;stroke:none"><path
     inkscape:connector-curvature="0"
     d="m 0,0 c -0.386,0 -0.532,-0.412 -0.532,-1.701 l 1.104,0 C 0.572,-0.372 0.372,0 0,0 m -0.532,-2.857 c 0.027,-1.263 0.186,-1.582 0.598,-1.582 0.253,0 0.439,0.186 0.625,0.85 L 1.409,-4.625 C 1.196,-5.223 0.758,-5.596 0.213,-5.596 c -1.436,0 -1.848,1.316 -1.848,3.363 0,2.074 0.372,3.456 1.662,3.456 1.634,0 1.608,-2.858 1.581,-4.08 l -2.14,0 z"
     style="fill:#000000;fill-opacity:1;fill-rule:nonzero;stroke:none"
     id="path9878" /></g><g
   id="g9880"
   transform="matrix(1.25,0,0,-1.25,97.84176,63.891)"
   style="fill:#000000;stroke:none"><path
     inkscape:connector-curvature="0"
     d="m 0,0 0,4.506 c 0,0.345 0.04,1.036 -0.478,1.036 -0.466,0 -0.439,-0.731 -0.439,-1.036 l 0,-4.506 -1.13,0 0,8.439 1.13,0.691 0,-2.671 c 0.186,0.173 0.465,0.266 0.718,0.266 0.585,0 1.329,-0.598 1.329,-2.193 L 1.13,0 0,0 z"
     style="fill:#000000;fill-opacity:1;fill-rule:nonzero;stroke:none"
     id="path9882" /></g><path
   inkscape:connector-curvature="0"
   d="m 100.94875,55.70125 1.4125,0 0,8.19 -1.4125,0 0,-8.19 z m 0.71375,-1.72875 c -0.39875,0 -0.73,-0.315 -0.73,-0.73125 0,-0.3975 0.33125,-0.71375 0.73,-0.71375 0.39875,0 0.73125,0.31625 0.73125,0.71375 0,0.41625 -0.3325,0.73125 -0.73125,0.73125"
   style="fill:#000000;fill-opacity:1;fill-rule:nonzero;stroke:none"
   id="path9884" /><g
   id="g9886"
   transform="matrix(1.25,0,0,-1.25,105.9325,64.04075)"
   style="fill:#000000;stroke:none"><path
     inkscape:connector-curvature="0"
     d="m 0,0 c -1.355,0 -1.661,1.595 -1.661,3.27 0,1.821 0.159,3.562 1.661,3.562 0.89,0 1.329,-0.705 1.515,-1.702 L 0.478,4.625 C 0.439,5.157 0.319,5.596 0,5.596 c -0.651,0 -0.531,-1.861 -0.531,-2.3 0,-0.412 -0.027,-2.233 0.571,-2.233 C 0.292,1.09 0.412,1.595 0.478,2.1 L 1.515,1.728 C 1.289,0.718 0.89,0 0,0"
     style="fill:#000000;fill-opacity:1;fill-rule:nonzero;stroke:none"
     id="path9888" /></g><g
   id="g9890"
   transform="matrix(1.25,0,0,-1.25,108.9395,63.891)"
   style="fill:#000000;stroke:none"><path
     inkscape:connector-curvature="0"
     d="M 0,0 0,8.439 1.13,9.13 1.13,0 0,0 z"
     style="fill:#000000;fill-opacity:1;fill-rule:nonzero;stroke:none"
     id="path9892" /></g><g
   id="g9894"
   transform="matrix(1.25,0,0,-1.25,113.85711,57.04625)"
   style="fill:#000000;stroke:none"><path
     inkscape:connector-curvature="0"
     d="m 0,0 c -0.385,0 -0.532,-0.412 -0.532,-1.701 l 1.103,0 C 0.571,-0.372 0.372,0 0,0 m -0.532,-2.857 c 0.027,-1.263 0.186,-1.582 0.598,-1.582 0.253,0 0.439,0.186 0.625,0.85 L 1.409,-4.625 C 1.196,-5.223 0.758,-5.596 0.213,-5.596 c -1.436,0 -1.848,1.316 -1.848,3.363 0,2.074 0.372,3.456 1.661,3.456 1.635,0 1.609,-2.858 1.582,-4.08 l -2.14,0 z"
     style="fill:#000000;fill-opacity:1;fill-rule:nonzero;stroke:none"
     id="path9896" /></g><g
   id="g9898"
   transform="matrix(1.25,0,0,-1.25,118.14312,64.04075)"
   style="fill:#000000;stroke:none"><path
     inkscape:connector-curvature="0"
     d="m 0,0 c -0.465,0 -0.89,0.12 -1.276,0.691 l 0.319,1.316 c 0.319,-0.691 0.598,-0.944 0.917,-0.944 0.399,0 0.558,0.28 0.558,0.825 0,0.252 -0.186,0.903 -0.784,1.382 -0.664,0.531 -1.01,0.97 -1.01,1.913 0,0.878 0.452,1.649 1.343,1.649 0.491,0 0.89,-0.253 1.342,-0.798 L 1.063,4.838 C 0.651,5.569 0.465,5.782 0.173,5.782 -0.04,5.782 -0.173,5.502 -0.173,5.224 -0.173,4.638 0.439,4.147 0.811,3.775 1.342,3.217 1.621,2.579 1.621,1.848 1.621,0.691 0.944,0 0,0"
     style="fill:#000000;fill-opacity:1;fill-rule:nonzero;stroke:none"
     id="path9900" /></g><g
   id="g9902"
   transform="matrix(1.25,0,0,-1.25,74.42249,181.83487)"
   style="fill:#000000;stroke:none"><path
     inkscape:connector-curvature="0"
     d="m 0,0 c -0.08,0.984 -0.279,1.289 -0.758,1.289 l -0.717,0 0,-6.632 0.717,0 c 0.412,0 0.625,0.279 0.758,0.944 0.027,0.305 0.093,1.316 0.093,2.1 C 0.093,-1.635 0.053,-0.625 0,0 M 0.439,-6.074 C 0.186,-6.353 -0.253,-6.512 -0.758,-6.512 l -1.86,0 0,8.971 1.86,0 c 0.625,0 1.077,-0.226 1.356,-0.665 0.213,-0.346 0.386,-0.943 0.465,-1.502 0.107,-0.731 0.2,-1.541 0.2,-2.299 0,-2.113 -0.293,-3.469 -0.824,-4.067"
     style="fill:#000000;fill-opacity:1;fill-rule:nonzero;stroke:none"
     id="path9904" /></g><g
   id="g9906"
   transform="matrix(1.25,0,0,-1.25,80.38675,180.05725)"
   style="fill:#000000;stroke:none"><path
     inkscape:connector-curvature="0"
     d="m 0,0 c -1.037,0 -0.904,-2.804 -0.904,-3.429 0,-0.598 -0.133,-3.495 0.904,-3.495 1.01,0 0.89,2.897 0.89,3.495 C 0.89,-2.712 0.851,0 0,0 m 0,-8.094 c -2.233,0 -2.073,3.176 -2.073,4.665 0,1.542 -0.12,4.585 2.073,4.585 2.206,0 2.087,-3.083 2.087,-4.585 0,-1.489 0.119,-4.665 -2.087,-4.665"
     style="fill:#000000;fill-opacity:1;fill-rule:nonzero;stroke:none"
     id="path9908" /></g><g
   id="g9910"
   transform="matrix(1.25,0,0,-1.25,88.743,189.97511)"
   style="fill:#000000;stroke:none"><path
     inkscape:connector-curvature="0"
     d="m 0,0 -1.754,5.316 0,-5.316 -1.143,0 0,8.971 1.143,0 1.594,-4.466 0,4.466 1.144,0 L 0.984,0 0,0 z"
     style="fill:#000000;fill-opacity:1;fill-rule:nonzero;stroke:none"
     id="path9912" /></g><g
   id="g9914"
   transform="matrix(1.25,0,0,-1.25,92.84624,181.66663)"
   style="fill:#000000;stroke:none"><path
     inkscape:connector-curvature="0"
     d="M 0,0 -0.345,0.279 C -0.119,0.465 0.093,0.758 0.16,0.97 l -0.094,0 c -0.385,0 -0.664,0.253 -0.664,0.665 0,0.345 0.279,0.664 0.664,0.664 0.413,0 0.692,-0.319 0.692,-0.757 C 0.758,0.97 0.479,0.372 0,0"
     style="fill:#000000;fill-opacity:1;fill-rule:nonzero;stroke:none"
     id="path9916" /></g><g
   id="g9918"
   transform="matrix(1.25,0,0,-1.25,97.81362,180.22363)"
   style="fill:#000000;stroke:none"><path
     inkscape:connector-curvature="0"
     d="m 0,0 0,-7.801 -1.13,0 0,7.801 -1.103,0 0,1.17 3.403,0 L 1.17,0 0,0 z"
     style="fill:#000000;fill-opacity:1;fill-rule:nonzero;stroke:none"
     id="path9920" /></g><g
   id="g9922"
   transform="matrix(1.25,0,0,-1.25,110.55626,189.07824)"
   style="fill:#000000;stroke:none"><path
     inkscape:connector-curvature="0"
     d="m 0,0 c -0.226,-0.479 -0.691,-0.877 -1.568,-0.877 -0.824,0 -1.422,0.372 -1.702,1.196 -0.252,0.757 -0.372,1.98 -0.372,3.429 0,0.824 0.093,2.02 0.226,2.711 0.253,1.382 0.784,1.914 1.848,1.914 1.01,0 1.674,-0.625 1.767,-1.728 l -1.169,0 c -0.027,0.386 -0.253,0.572 -0.559,0.572 -0.411,0 -0.637,-0.293 -0.757,-0.878 -0.16,-0.73 -0.186,-1.395 -0.186,-2.591 0,-1.25 0.026,-1.794 0.186,-2.552 0.12,-0.598 0.346,-0.904 0.718,-0.904 0.411,0 0.598,0.306 0.598,1.104 l 1.169,0 C 0.199,1.396 0.226,0.452 0,0"
     style="fill:#000000;fill-opacity:1;fill-rule:nonzero;stroke:none"
     id="path9924" /></g><g
   id="g9926"
   transform="matrix(1.25,0,0,-1.25,115.05825,180.22363)"
   style="fill:#000000;stroke:none"><path
     inkscape:connector-curvature="0"
     d="m 0,0 -0.558,0 0,-2.445 0.744,0 c 0.638,0 0.824,0.279 0.824,1.129 C 1.01,-0.306 0.784,0 0,0 m 1.236,-3.336 0.904,-4.465 -1.157,0 -1.009,4.186 -0.532,0 0,-4.186 -1.143,0 0,8.97 1.767,0 c 1.383,0 2.114,-0.85 2.114,-2.512 0,-1.009 -0.293,-1.581 -0.944,-1.993"
     style="fill:#000000;fill-opacity:1;fill-rule:nonzero;stroke:none"
     id="path9928" /></g><g
   id="g9930"
   transform="matrix(1.25,0,0,-1.25,121.81963,180.05725)"
   style="fill:#000000;stroke:none"><path
     inkscape:connector-curvature="0"
     d="m 0,0 c -1.037,0 -0.904,-2.804 -0.904,-3.429 0,-0.598 -0.133,-3.495 0.904,-3.495 1.01,0 0.89,2.897 0.89,3.495 C 0.89,-2.712 0.851,0 0,0 m 0,-8.094 c -2.233,0 -2.073,3.176 -2.073,4.665 0,1.542 -0.12,4.585 2.073,4.585 2.206,0 2.087,-3.084 2.087,-4.585 0,-1.489 0.119,-4.665 -2.087,-4.665"
     style="fill:#000000;fill-opacity:1;fill-rule:nonzero;stroke:none"
     id="path9932" /></g><g
   id="g9934"
   transform="matrix(1.25,0,0,-1.25,128.365,190.17512)"
   style="fill:#000000;stroke:none"><path
     inkscape:connector-curvature="0"
     d="m 0,0 c -1.448,0 -1.927,1.103 -1.98,2.393 l 1.156,0 c 0,-0.532 0.16,-1.223 0.824,-1.223 0.518,0 0.718,0.452 0.718,0.904 0,0.956 -0.359,1.541 -1.05,2.365 -0.704,0.837 -1.436,1.542 -1.436,2.711 0,1.077 0.652,2.1 1.834,2.1 1.303,0 1.715,-0.97 1.821,-2.1 l -1.169,0 C 0.705,7.576 0.625,8.121 0.093,8.121 -0.438,8.121 -0.598,7.589 -0.598,7.15 -0.598,6.553 -0.106,6.061 0.585,5.29 1.648,4.12 1.887,2.991 1.887,2.074 1.887,0.984 1.143,0 0,0"
     style="fill:#000000;fill-opacity:1;fill-rule:nonzero;stroke:none"
     id="path9936" /></g><g
   id="g9938"
   transform="matrix(1.25,0,0,-1.25,134.32924,190.17512)"
   style="fill:#000000;stroke:none"><path
     inkscape:connector-curvature="0"
     d="m 0,0 c -1.449,0 -1.927,1.103 -1.98,2.393 l 1.156,0 c 0,-0.532 0.16,-1.223 0.824,-1.223 0.518,0 0.718,0.452 0.718,0.904 0,0.956 -0.359,1.541 -1.05,2.365 -0.704,0.837 -1.436,1.542 -1.436,2.711 0,1.077 0.652,2.1 1.834,2.1 1.303,0 1.715,-0.97 1.821,-2.1 l -1.169,0 C 0.704,7.576 0.625,8.121 0.093,8.121 -0.439,8.121 -0.598,7.589 -0.598,7.15 -0.598,6.553 -0.106,6.061 0.585,5.29 1.648,4.12 1.887,2.991 1.887,2.074 1.887,0.984 1.143,0 0,0"
     style="fill:#000000;fill-opacity:1;fill-rule:nonzero;stroke:none"
     id="path9940" /></g><g
   id="g9950"
   transform="matrix(1.25,0,0,-1.25,65.6815,224.10174)"
   style="fill:#000000;stroke:none"><path
     inkscape:connector-curvature="0"
     d="m 0,0 c -0.226,0.784 -0.572,1.129 -1.103,1.129 -0.571,0 -0.904,-0.345 -1.143,-1.103 -0.199,-0.69 -0.279,-1.289 -0.279,-2.299 0,-0.97 0.08,-1.541 0.279,-2.259 0.213,-0.758 0.572,-1.104 1.143,-1.104 0.531,0 0.877,0.346 1.103,1.104 0.213,0.718 0.279,1.262 0.279,2.299 C 0.279,-1.236 0.186,-0.664 0,0 m 0.997,-5.356 c -0.452,-1.063 -1.103,-1.542 -2.1,-1.542 -1.077,0 -1.701,0.479 -2.14,1.542 -0.372,0.89 -0.505,1.727 -0.505,3.123 0,1.356 0.12,2.259 0.505,3.11 0.465,1.077 1.103,1.515 2.14,1.515 1.037,0 1.648,-0.452 2.1,-1.541 0.372,-0.891 0.505,-1.728 0.505,-3.084 0,-1.396 -0.133,-2.259 -0.505,-3.123"
     style="fill:#000000;fill-opacity:1;fill-rule:nonzero;stroke:none"
     id="path9952" /></g><g
   id="g9954"
   transform="matrix(1.25,0,0,-1.25,78.48914,232.72388)"
   style="fill:#000000;stroke:none"><path
     inkscape:connector-curvature="0"
     d="m 0,0 c -1.914,0 -2.764,1.542 -2.764,4.851 0,2.897 0.904,4.439 2.671,4.439 1.489,0 2.26,-1.329 2.326,-2.552 l -1.289,0 c -0.12,0.877 -0.465,1.289 -1.063,1.289 -1.037,0 -1.423,-0.811 -1.423,-3.15 0,-2.578 0.439,-3.615 1.542,-3.615 0.758,0 0.944,0.625 0.944,1.29 l 1.289,0 C 2.206,1.077 1.263,0 0,0"
     style="fill:#000000;fill-opacity:1;fill-rule:nonzero;stroke:none"
     id="path9956" /></g><g
   id="g9958"
   transform="matrix(1.25,0,0,-1.25,86.79589,222.88899)"
   style="fill:#000000;stroke:none"><path
     inkscape:connector-curvature="0"
     d="m 0,0 -1.329,0 0,-2.26 1.329,0 c 0.757,0 1.156,0.412 1.156,1.13 C 1.156,-0.439 0.691,0 0,0 m 1.103,-7.708 -1.196,4.213 -1.236,0 0,-4.213 -1.289,0 0,8.971 2.684,0 c 1.409,0 2.353,-0.944 2.353,-2.393 0,-1.076 -0.439,-1.861 -1.289,-2.166 l 1.289,-4.412 -1.316,0 z"
     style="fill:#000000;fill-opacity:1;fill-rule:nonzero;stroke:none"
     id="path9960" /></g><g
   id="g9962"
   transform="matrix(1.25,0,0,-1.25,96.19875,224.10174)"
   style="fill:#000000;stroke:none"><path
     inkscape:connector-curvature="0"
     d="m 0,0 c -0.226,0.784 -0.572,1.129 -1.103,1.129 -0.572,0 -0.904,-0.345 -1.143,-1.103 -0.199,-0.69 -0.279,-1.289 -0.279,-2.299 0,-0.97 0.08,-1.541 0.279,-2.259 0.212,-0.758 0.571,-1.104 1.143,-1.104 0.531,0 0.877,0.346 1.103,1.104 0.213,0.718 0.279,1.262 0.279,2.299 C 0.279,-1.236 0.186,-0.664 0,0 m 0.997,-5.356 c -0.452,-1.063 -1.103,-1.542 -2.1,-1.542 -1.077,0 -1.701,0.479 -2.14,1.542 -0.372,0.89 -0.505,1.727 -0.505,3.123 0,1.356 0.119,2.259 0.505,3.11 0.465,1.077 1.103,1.515 2.14,1.515 1.037,0 1.648,-0.452 2.1,-1.541 0.372,-0.891 0.505,-1.728 0.505,-3.084 0,-1.396 -0.133,-2.259 -0.505,-3.123"
     style="fill:#000000;fill-opacity:1;fill-rule:nonzero;stroke:none"
     id="path9964" /></g><g
   id="g9966"
   transform="matrix(1.25,0,0,-1.25,102.91064,232.72388)"
   style="fill:#000000;stroke:none"><path
     inkscape:connector-curvature="0"
     d="m 0,0 c -1.569,0 -2.525,1.329 -2.525,2.804 l 1.262,0 c 0,-0.757 0.386,-1.542 1.263,-1.542 0.691,0 1.263,0.625 1.263,1.356 0,1.063 -0.917,1.422 -2.233,2.353 -0.798,0.571 -1.104,1.196 -1.104,1.993 0,1.289 0.997,2.326 2.3,2.326 1.249,0 2.233,-0.984 2.259,-2.326 l -1.222,0 C 1.223,7.589 0.784,8.001 0.226,8.001 -0.372,8.001 -0.851,7.562 -0.851,6.964 -0.851,6.512 -0.665,6.273 0,5.888 1.728,4.891 2.485,3.907 2.485,2.618 2.485,1.169 1.382,0 0,0"
     style="fill:#000000;fill-opacity:1;fill-rule:nonzero;stroke:none"
     id="path9968" /></g><g
   id="g9970"
   transform="matrix(1.25,0,0,-1.25,110.51962,232.72388)"
   style="fill:#000000;stroke:none"><path
     inkscape:connector-curvature="0"
     d="m 0,0 c -1.569,0 -2.525,1.329 -2.525,2.804 l 1.262,0 c 0,-0.757 0.386,-1.542 1.263,-1.542 0.691,0 1.262,0.625 1.262,1.356 0,1.063 -0.916,1.422 -2.232,2.353 -0.798,0.571 -1.103,1.196 -1.103,1.993 0,1.289 0.996,2.326 2.299,2.326 1.249,0 2.233,-0.984 2.259,-2.326 l -1.223,0 C 1.223,7.589 0.784,8.001 0.226,8.001 -0.372,8.001 -0.851,7.562 -0.851,6.964 -0.851,6.512 -0.665,6.273 0,5.888 1.727,4.891 2.485,3.907 2.485,2.618 2.485,1.169 1.382,0 0,0"
     style="fill:#000000;fill-opacity:1;fill-rule:nonzero;stroke:none"
     id="path9972" /></g><g
   id="g9982"
   transform="matrix(1.25,0,0,-1.25,62.60775,257.01224)"
   style="fill:#000000;stroke:none"><path
     inkscape:connector-curvature="0"
     d="m 0,0 c -1.568,0 -2.525,1.329 -2.525,2.804 l 1.262,0 c 0,-0.757 0.386,-1.541 1.263,-1.541 0.691,0 1.263,0.624 1.263,1.355 0,1.064 -0.917,1.423 -2.233,2.353 -0.797,0.571 -1.103,1.196 -1.103,1.993 0,1.29 0.997,2.326 2.299,2.326 1.249,0 2.233,-0.983 2.259,-2.326 l -1.222,0 C 1.223,7.589 0.784,8.001 0.226,8.001 -0.372,8.001 -0.85,7.562 -0.85,6.964 -0.85,6.512 -0.665,6.273 0,5.888 1.728,4.891 2.485,3.907 2.485,2.618 2.485,1.17 1.382,0 0,0"
     style="fill:#000000;fill-opacity:1;fill-rule:nonzero;stroke:none"
     id="path9984" /></g><g
   id="g9986"
   transform="matrix(1.25,0,0,-1.25,72.31001,256.81314)"
   style="fill:#000000;stroke:none"><path
     inkscape:connector-curvature="0"
     d="m 0,0 0,4.067 -2.459,0 0,-4.067 -1.289,0 0,8.971 1.289,0 0,-3.655 2.459,0 0,3.655 1.289,0 L 1.289,0 0,0 z"
     style="fill:#000000;fill-opacity:1;fill-rule:nonzero;stroke:none"
     id="path9988" /></g><g
   id="g9990"
   transform="matrix(1.25,0,0,-1.25,84.61713,251.7295)"
   style="fill:#000000;stroke:none"><path
     inkscape:connector-curvature="0"
     d="m 0,0 -1.289,0 0,-2.804 1.289,0 c 0.731,0 1.196,0.505 1.196,1.289 C 1.196,-0.664 0.665,0 0,0 m 0.066,3.642 -1.355,0 0,-2.393 1.355,0 c 0.599,0 0.984,0.506 0.984,1.329 0,0.758 -0.293,1.064 -0.984,1.064 m 0,-7.709 -2.644,0 0,8.971 2.831,0 c 1.195,0 2.046,-0.943 2.046,-2.326 0,-0.823 -0.212,-1.196 -0.943,-1.953 0.691,-0.572 1.103,-1.329 1.103,-2.233 0,-1.356 -1.063,-2.459 -2.393,-2.459"
     style="fill:#000000;fill-opacity:1;fill-rule:nonzero;stroke:none"
     id="path9992" /></g><g
   id="g9994"
   transform="matrix(1.25,0,0,-1.25,95.46575,255.434)"
   style="fill:#000000;stroke:none"><path
     inkscape:connector-curvature="0"
     d="m 0,0 c -0.426,-0.731 -1.289,-1.263 -2.14,-1.263 -0.877,0 -1.768,0.505 -2.206,1.263 -0.253,0.465 -0.346,0.85 -0.346,1.568 l 0,6.3 1.289,0 0,-6.446 C -3.403,0.572 -2.898,0 -2.14,0 c 0.691,0 1.196,0.572 1.196,1.422 l 0,6.446 1.289,0 0,-6.3 C 0.345,0.85 0.266,0.465 0,0"
     style="fill:#000000;fill-opacity:1;fill-rule:nonzero;stroke:none"
     id="path9996" /></g><g
   id="g9998"
   transform="matrix(1.25,0,0,-1.25,101.13038,247.09438)"
   style="fill:#000000;stroke:none"><path
     inkscape:connector-curvature="0"
     d="m 0,0 0,-7.775 -1.302,0 0,7.775 -1.635,0 0,1.196 4.572,0 L 1.635,0 0,0 z"
     style="fill:#000000;fill-opacity:1;fill-rule:nonzero;stroke:none"
     id="path10000" /></g><g
   id="g10002"
   transform="matrix(1.25,0,0,-1.25,107.51,247.09438)"
   style="fill:#000000;stroke:none"><path
     inkscape:connector-curvature="0"
     d="m 0,0 0,-7.775 -1.302,0 0,7.775 -1.635,0 0,1.196 4.572,0 L 1.635,0 0,0 z"
     style="fill:#000000;fill-opacity:1;fill-rule:nonzero;stroke:none"
     id="path10004" /></g><g
   id="g10006"
   transform="matrix(1.25,0,0,-1.25,115.58412,248.38987)"
   style="fill:#000000;stroke:none"><path
     inkscape:connector-curvature="0"
     d="m 0,0 c -0.226,0.784 -0.571,1.13 -1.103,1.13 -0.572,0 -0.904,-0.346 -1.143,-1.104 -0.2,-0.691 -0.279,-1.289 -0.279,-2.299 0,-0.97 0.079,-1.542 0.279,-2.259 0.212,-0.758 0.571,-1.103 1.143,-1.103 0.532,0 0.877,0.345 1.103,1.103 0.212,0.717 0.279,1.262 0.279,2.299 C 0.279,-1.236 0.186,-0.665 0,0 m 0.997,-5.356 c -0.452,-1.063 -1.104,-1.542 -2.1,-1.542 -1.077,0 -1.701,0.479 -2.14,1.542 -0.372,0.89 -0.505,1.728 -0.505,3.123 0,1.356 0.119,2.259 0.505,3.11 0.465,1.077 1.103,1.515 2.14,1.515 1.037,0 1.648,-0.452 2.1,-1.541 0.372,-0.891 0.504,-1.728 0.504,-3.084 0,-1.395 -0.132,-2.259 -0.504,-3.123"
     style="fill:#000000;fill-opacity:1;fill-rule:nonzero;stroke:none"
     id="path10008" /></g><g
   id="g10010"
   transform="matrix(1.25,0,0,-1.25,124.78775,256.81314)"
   style="fill:#000000;stroke:none"><path
     inkscape:connector-curvature="0"
     d="m 0,0 -2.778,6.007 0,-6.007 -1.289,0 0,8.971 1.289,0 2.459,-5.382 0,5.382 1.289,0 L 0.97,0 0,0 z"
     style="fill:#000000;fill-opacity:1;fill-rule:nonzero;stroke:none"
     id="path10012" /></g><g
   id="g10082"
   transform="matrix(1.25,0,0,-1.25,68.84275,97.37412)"
   style="fill:#000000;stroke:none"><path
     inkscape:connector-curvature="0"
     d="m 0,0 0,-2.3 1.316,0 0,-1.195 -1.316,0 0,-4.307 -1.143,0 0,8.971 3.429,0 L 2.286,0 0,0 z"
     style="fill:#000000;fill-opacity:1;fill-rule:nonzero;stroke:none"
     id="path10084" /></g><path
   inkscape:connector-curvature="0"
   d="m 72.9625,98.93625 1.4125,0 0,8.19125 -1.4125,0 0,-8.19125 z m 0.715,-1.7275 c -0.39875,0 -0.73125,-0.31625 -0.73125,-0.73125 0,-0.39875 0.3325,-0.715 0.73125,-0.715 0.39875,0 0.73,0.31625 0.73,0.715 0,0.415 -0.33125,0.73125 -0.73,0.73125"
   style="fill:#000000;fill-opacity:1;fill-rule:nonzero;stroke:none"
   id="path10086" /><g
   id="g10088"
   transform="matrix(1.25,0,0,-1.25,78.76087,107.12638)"
   style="fill:#000000;stroke:none"><path
     inkscape:connector-curvature="0"
     d="m 0,0 0,4.506 c 0,0.345 0.04,1.036 -0.478,1.036 -0.466,0 -0.439,-0.731 -0.439,-1.036 l 0,-4.506 -1.13,0 0,6.553 1.13,0 0,-0.293 c 0.159,0.266 0.465,0.465 0.771,0.465 0.319,0 0.624,-0.066 0.903,-0.465 C 1.13,5.689 1.13,3.934 1.13,3.336 L 1.13,0 0,0 z"
     style="fill:#000000;fill-opacity:1;fill-rule:nonzero;stroke:none"
     id="path10090" /></g><path
   inkscape:connector-curvature="0"
   d="m 81.8675,98.93625 1.4125,0 0,8.19125 -1.4125,0 0,-8.19125 z m 0.715,-1.7275 c -0.4,0 -0.73125,-0.31625 -0.73125,-0.73125 0,-0.39875 0.33125,-0.715 0.73125,-0.715 0.39875,0 0.73,0.31625 0.73,0.715 0,0.415 -0.33125,0.73125 -0.73,0.73125"
   style="fill:#000000;fill-opacity:1;fill-rule:nonzero;stroke:none"
   id="path10092" /><g
   id="g10094"
   transform="matrix(1.25,0,0,-1.25,86.13701,107.27601)"
   style="fill:#000000;stroke:none"><path
     inkscape:connector-curvature="0"
     d="m 0,0 c -0.465,0 -0.89,0.12 -1.276,0.691 l 0.319,1.316 c 0.319,-0.691 0.598,-0.944 0.917,-0.944 0.399,0 0.558,0.28 0.558,0.824 0,0.253 -0.186,0.904 -0.784,1.383 -0.664,0.531 -1.01,0.97 -1.01,1.914 0,0.877 0.452,1.648 1.342,1.648 0.492,0 0.891,-0.253 1.343,-0.798 L 1.063,4.838 C 0.651,5.569 0.465,5.781 0.173,5.781 -0.04,5.781 -0.173,5.502 -0.173,5.223 -0.173,4.638 0.439,4.147 0.811,3.775 1.342,3.216 1.621,2.578 1.621,1.848 1.621,0.691 0.944,0 0,0"
     style="fill:#000000;fill-opacity:1;fill-rule:nonzero;stroke:none"
     id="path10096" /></g><g
   id="g10098"
   transform="matrix(1.25,0,0,-1.25,91.852,107.12638)"
   style="fill:#000000;stroke:none"><path
     inkscape:connector-curvature="0"
     d="m 0,0 0,4.506 c 0,0.345 0.04,1.036 -0.478,1.036 -0.466,0 -0.439,-0.731 -0.439,-1.036 l 0,-4.506 -1.13,0 0,8.44 1.13,0.691 0,-2.672 c 0.186,0.173 0.465,0.266 0.718,0.266 0.584,0 1.329,-0.598 1.329,-2.193 L 1.13,0 0,0 z"
     style="fill:#000000;fill-opacity:1;fill-rule:nonzero;stroke:none"
     id="path10100" /></g><g
   id="g10102"
   transform="matrix(1.25,0,0,-1.25,105.29389,106.22913)"
   style="fill:#000000;stroke:none"><path
     inkscape:connector-curvature="0"
     d="m 0,0 c -0.226,-0.479 -0.691,-0.877 -1.568,-0.877 -0.824,0 -1.422,0.372 -1.702,1.196 -0.252,0.758 -0.372,1.98 -0.372,3.429 0,0.824 0.093,2.02 0.226,2.711 0.253,1.382 0.784,1.914 1.848,1.914 1.01,0 1.674,-0.625 1.767,-1.728 l -1.169,0 C -0.997,7.031 -1.223,7.217 -1.528,7.217 -1.94,7.217 -2.166,6.924 -2.286,6.34 -2.445,5.608 -2.472,4.944 -2.472,3.748 c 0,-1.249 0.027,-1.794 0.186,-2.552 0.12,-0.598 0.346,-0.903 0.718,-0.903 0.412,0 0.598,0.305 0.598,1.102 l 1.169,0 C 0.199,1.395 0.226,0.452 0,0"
     style="fill:#000000;fill-opacity:1;fill-rule:nonzero;stroke:none"
     id="path10104" /></g><g
   id="g10106"
   transform="matrix(1.25,0,0,-1.25,110.12811,100.74662)"
   style="fill:#000000;stroke:none"><path
     inkscape:connector-curvature="0"
     d="m 0,0 c -0.159,0.212 -0.279,0.372 -0.465,0.372 -0.452,0 -0.638,-0.465 -0.638,-1.289 l 0,-4.187 -1.13,0 0,6.553 1.13,0 0,-0.319 c 0.186,0.319 0.319,0.478 0.598,0.478 0.293,0 0.505,-0.199 0.638,-0.452 L 0,0 z"
     style="fill:#000000;fill-opacity:1;fill-rule:nonzero;stroke:none"
     id="path10108" /></g><g
   id="g10110"
   transform="matrix(1.25,0,0,-1.25,113.20161,100.2485)"
   style="fill:#000000;stroke:none"><path
     inkscape:connector-curvature="0"
     d="m 0,0 c -0.691,0 -0.545,-1.754 -0.545,-2.193 0,-0.412 -0.027,-2.286 0.545,-2.272 0.505,0.013 0.465,1.834 0.465,2.272 C 0.465,-1.754 0.598,0 0,0 m 0,-5.622 c -1.355,0 -1.701,1.728 -1.701,3.389 0,1.835 0.159,3.429 1.701,3.429 1.342,0 1.595,-1.542 1.595,-3.389 0,-1.674 -0.346,-3.429 -1.595,-3.429"
     style="fill:#000000;fill-opacity:1;fill-rule:nonzero;stroke:none"
     id="path10112" /></g><g
   id="g10114"
   transform="matrix(1.25,0,0,-1.25,117.68725,107.27601)"
   style="fill:#000000;stroke:none"><path
     inkscape:connector-curvature="0"
     d="m 0,0 c -0.465,0 -0.89,0.12 -1.276,0.691 l 0.319,1.316 c 0.319,-0.691 0.598,-0.944 0.917,-0.944 0.399,0 0.558,0.28 0.558,0.824 0,0.253 -0.186,0.904 -0.784,1.383 -0.664,0.531 -1.01,0.97 -1.01,1.914 0,0.877 0.452,1.648 1.342,1.648 0.492,0 0.891,-0.253 1.343,-0.798 L 1.063,4.838 C 0.651,5.569 0.465,5.781 0.173,5.781 -0.04,5.781 -0.173,5.502 -0.173,5.223 -0.173,4.638 0.439,4.147 0.811,3.775 1.342,3.216 1.621,2.578 1.621,1.848 1.621,0.691 0.944,0 0,0"
     style="fill:#000000;fill-opacity:1;fill-rule:nonzero;stroke:none"
     id="path10116" /></g><g
   id="g10118"
   transform="matrix(1.25,0,0,-1.25,121.87387,107.27601)"
   style="fill:#000000;stroke:none"><path
     inkscape:connector-curvature="0"
     d="m 0,0 c -0.465,0 -0.89,0.12 -1.276,0.691 l 0.319,1.316 c 0.319,-0.691 0.598,-0.944 0.917,-0.944 0.399,0 0.558,0.28 0.558,0.824 0,0.253 -0.186,0.904 -0.784,1.383 -0.664,0.531 -1.01,0.97 -1.01,1.914 0,0.877 0.452,1.648 1.342,1.648 0.492,0 0.891,-0.253 1.343,-0.798 L 1.063,4.838 C 0.651,5.569 0.465,5.781 0.173,5.781 -0.04,5.781 -0.173,5.502 -0.173,5.223 -0.173,4.638 0.439,4.147 0.811,3.775 1.342,3.216 1.621,2.578 1.621,1.848 1.621,0.691 0.944,0 0,0"
     style="fill:#000000;fill-opacity:1;fill-rule:nonzero;stroke:none"
     id="path10120" /></g><path
   inkscape:connector-curvature="0"
   d="m 125.0475,98.93625 1.4125,0 0,8.19125 -1.4125,0 0,-8.19125 z m 0.71375,-1.7275 c -0.39875,0 -0.73125,-0.31625 -0.73125,-0.73125 0,-0.39875 0.3325,-0.715 0.73125,-0.715 0.39875,0 0.73125,0.31625 0.73125,0.715 0,0.415 -0.3325,0.73125 -0.73125,0.73125"
   style="fill:#000000;fill-opacity:1;fill-rule:nonzero;stroke:none"
   id="path10122" /><g
   id="g10124"
   transform="matrix(1.25,0,0,-1.25,130.84512,107.12638)"
   style="fill:#000000;stroke:none"><path
     inkscape:connector-curvature="0"
     d="m 0,0 0,4.506 c 0,0.345 0.04,1.036 -0.478,1.036 -0.466,0 -0.439,-0.731 -0.439,-1.036 l 0,-4.506 -1.13,0 0,6.553 1.13,0 0,-0.293 c 0.159,0.266 0.465,0.465 0.771,0.465 0.319,0 0.624,-0.066 0.903,-0.465 C 1.13,5.689 1.13,3.934 1.13,3.336 L 1.13,0 0,0 z"
     style="fill:#000000;fill-opacity:1;fill-rule:nonzero;stroke:none"
     id="path10126" /></g><g
   id="g10128"
   transform="matrix(1.25,0,0,-1.25,136.311,101.262)"
   style="fill:#000000;stroke:none"><path
     inkscape:connector-curvature="0"
     d="m 0,0 c 0,0.279 -0.067,0.784 -0.465,0.784 -0.479,0 -0.598,-0.917 -0.598,-2.299 0,-0.385 -0.04,-2.206 0.624,-2.206 C -0.159,-3.681 0,-3.083 0,-2.525 L 0,0 z m 0.572,-7.084 c -0.32,-0.438 -0.599,-0.664 -1.104,-0.85 l -0.412,1.076 c 0.532,0.253 0.917,0.625 0.917,1.223 l 0,1.103 c -0.132,-0.186 -0.319,-0.319 -0.438,-0.319 -1.422,0 -1.701,1.887 -1.701,3.336 0,1.834 0.279,3.495 1.661,3.522 0.186,0.013 0.346,-0.093 0.638,-0.306 l 0,0.186 0.97,0 0,-6.671 c 0,-1.223 -0.133,-1.728 -0.531,-2.3"
     style="fill:#000000;fill-opacity:1;fill-rule:nonzero;stroke:none"
     id="path10130" /></g><path
   inkscape:connector-curvature="0"
   d="m 80.12625,110.12125 1.42875,0 0,11.21375 -1.42875,0 0,-11.21375 z"
   style="fill:#000000;fill-opacity:1;fill-rule:nonzero;stroke:none"
   id="path10132" /><g
   id="g10134"
   transform="matrix(1.25,0,0,-1.25,85.094,114.45764)"
   style="fill:#000000;stroke:none"><path
     inkscape:connector-curvature="0"
     d="m 0,0 0,-5.502 -1.143,0 0,5.502 -0.439,0 0,1.05 0.439,0 0,1.448 c 0,0.652 0.346,1.13 0.89,1.13 0.213,0 0.465,0 0.718,-0.159 l 0,-1.037 C 0.346,2.645 0,2.645 0,2.086 L 0,1.05 0.505,1.05 0.505,0 0,0 z"
     style="fill:#000000;fill-opacity:1;fill-rule:nonzero;stroke:none"
     id="path10136" /></g><g
   id="g10138"
   transform="matrix(1.25,0,0,-1.25,94.18136,121.53475)"
   style="fill:#000000;stroke:none"><path
     inkscape:connector-curvature="0"
     d="m 0,0 c -1.449,0 -1.927,1.103 -1.98,2.392 l 1.156,0 c 0,-0.532 0.159,-1.223 0.824,-1.223 0.518,0 0.718,0.452 0.718,0.904 0,0.957 -0.359,1.542 -1.05,2.366 -0.705,0.837 -1.436,1.541 -1.436,2.711 0,1.077 0.652,2.1 1.834,2.1 1.303,0 1.715,-0.97 1.821,-2.1 l -1.169,0 C 0.704,7.575 0.625,8.12 0.093,8.12 -0.439,8.12 -0.598,7.589 -0.598,7.15 -0.598,6.552 -0.106,6.06 0.585,5.289 1.648,4.12 1.887,2.99 1.887,2.073 1.887,0.983 1.143,0 0,0"
     style="fill:#000000;fill-opacity:1;fill-rule:nonzero;stroke:none"
     id="path10140" /></g><g
   id="g10142"
   transform="matrix(1.25,0,0,-1.25,100.29474,120.93712)"
   style="fill:#000000;stroke:none"><path
     inkscape:connector-curvature="0"
     d="m 0,0 c -0.226,-0.292 -0.412,-0.412 -0.665,-0.412 -0.69,0 -1.196,0.718 -1.196,1.661 l 0,3.948 -0.691,0 0,1.036 0.691,0 0,1.888 1.17,0.691 0,-2.579 0.784,0 0,-1.023 -0.784,0 0,-3.961 c 0,-0.305 0.16,-0.531 0.372,-0.531 0.186,0 0.279,0.133 0.439,0.345 L 0,0 z"
     style="fill:#000000;fill-opacity:1;fill-rule:nonzero;stroke:none"
     id="path10144" /></g><g
   id="g10146"
   transform="matrix(1.25,0,0,-1.25,103.50124,117.59762)"
   style="fill:#000000;stroke:none"><path
     inkscape:connector-curvature="0"
     d="m 0,0 c 0,0.159 -0.385,0.226 -0.505,0.226 -0.492,0 -0.532,-0.704 -0.532,-1.05 0,-0.439 -0.026,-1.196 0.598,-1.196 0.386,0 0.439,0.265 0.439,0.598 L 0,0 z m 0.093,-2.99 0,0.186 c -0.186,-0.213 -0.478,-0.279 -0.758,-0.279 -1.063,0 -1.515,1.275 -1.515,2.299 0,0.917 0.452,2.232 1.555,2.232 0.213,0 0.426,-0.053 0.625,-0.119 l 0,0.465 c 0,0.385 -0.053,0.691 -0.505,0.691 -0.479,0 -0.904,-0.571 -1.103,-0.943 l -0.279,1.422 c 0.345,0.399 0.784,0.757 1.342,0.757 1.356,0 1.675,-1.222 1.675,-2.339 l 0,-4.372 -1.037,0 z"
     style="fill:#000000;fill-opacity:1;fill-rule:nonzero;stroke:none"
     id="path10148" /></g><g
   id="g10150"
   transform="matrix(1.25,0,0,-1.25,109.38214,114.95612)"
   style="fill:#000000;stroke:none"><path
     inkscape:connector-curvature="0"
     d="m 0,0 c -0.159,0.213 -0.279,0.372 -0.465,0.372 -0.452,0 -0.638,-0.465 -0.638,-1.289 l 0,-4.187 -1.13,0 0,6.553 1.13,0 0,-0.319 c 0.186,0.319 0.319,0.478 0.598,0.478 0.293,0 0.505,-0.199 0.638,-0.452 L 0,0 z"
     style="fill:#000000;fill-opacity:1;fill-rule:nonzero;stroke:none"
     id="path10152" /></g><g
   id="g10154"
   transform="matrix(1.25,0,0,-1.25,112.95401,120.93712)"
   style="fill:#000000;stroke:none"><path
     inkscape:connector-curvature="0"
     d="m 0,0 c -0.226,-0.292 -0.412,-0.412 -0.665,-0.412 -0.69,0 -1.196,0.718 -1.196,1.661 l 0,3.948 -0.691,0 0,1.036 0.691,0 0,1.888 1.17,0.691 0,-2.579 0.784,0 0,-1.023 -0.784,0 0,-3.961 c 0,-0.305 0.159,-0.531 0.372,-0.531 0.186,0 0.279,0.133 0.439,0.345 L 0,0 z"
     style="fill:#000000;fill-opacity:1;fill-rule:nonzero;stroke:none"
     id="path10156" /></g><g
   id="g10158"
   transform="matrix(1.25,0,0,-1.25,115.71188,114.49112)"
   style="fill:#000000;stroke:none"><path
     inkscape:connector-curvature="0"
     d="m 0,0 c -0.385,0 -0.532,-0.412 -0.532,-1.701 l 1.103,0 C 0.571,-0.372 0.372,0 0,0 m -0.532,-2.857 c 0.027,-1.263 0.186,-1.582 0.598,-1.582 0.253,0 0.439,0.186 0.625,0.851 l 0.718,-1.037 c -0.213,-0.598 -0.652,-0.97 -1.197,-0.97 -1.435,0 -1.847,1.316 -1.847,3.362 0,2.074 0.372,3.456 1.662,3.456 1.634,0 1.608,-2.858 1.581,-4.08 l -2.14,0 z"
     style="fill:#000000;fill-opacity:1;fill-rule:nonzero;stroke:none"
     id="path10160" /></g><g
   id="g10162"
   transform="matrix(1.25,0,0,-1.25,121.3435,115.47113)"
   style="fill:#000000;stroke:none"><path
     inkscape:connector-curvature="0"
     d="m 0,0 c 0,0.305 -0.027,0.824 -0.439,0.824 -0.133,0 -0.185,-0.027 -0.305,-0.133 -0.279,-0.239 -0.266,-1.701 -0.266,-2.046 0,-0.346 -0.04,-1.675 0.226,-2.074 0.08,-0.12 0.173,-0.186 0.345,-0.186 0.452,0 0.439,0.718 0.439,1.037 L 0,0 z m 0.04,-4.692 0,0.253 c -0.146,-0.199 -0.306,-0.412 -0.705,-0.412 -1.435,0 -1.501,2.512 -1.501,3.496 0,0.97 0.106,3.348 1.475,3.348 0.239,0 0.478,-0.066 0.691,-0.172 l 0,1.927 1.13,0.691 0,-9.131 -1.09,0 z"
     style="fill:#000000;fill-opacity:1;fill-rule:nonzero;stroke:none"
     id="path10164" /></g><g
   id="g10166"
   transform="matrix(1.25,0,0,-1.25,74.42487,82.54399)"
   style="fill:#000000;stroke:none"><path
     inkscape:connector-curvature="0"
     d="m 0,0 c -0.08,0.984 -0.279,1.289 -0.758,1.289 l -0.717,0 0,-6.632 0.717,0 c 0.412,0 0.625,0.279 0.758,0.944 0.027,0.305 0.093,1.316 0.093,2.1 C 0.093,-1.635 0.053,-0.625 0,0 M 0.439,-6.074 C 0.186,-6.353 -0.253,-6.513 -0.758,-6.513 l -1.86,0 0,8.972 1.86,0 c 0.625,0 1.077,-0.226 1.356,-0.665 C 0.811,1.449 0.984,0.851 1.063,0.292 1.17,-0.439 1.262,-1.249 1.262,-2.007 1.262,-4.12 0.97,-5.476 0.439,-6.074"
     style="fill:#000000;fill-opacity:1;fill-rule:nonzero;stroke:none"
     id="path10168" /></g><g
   id="g10170"
   transform="matrix(1.25,0,0,-1.25,80.389,80.76638)"
   style="fill:#000000;stroke:none"><path
     inkscape:connector-curvature="0"
     d="m 0,0 c -1.037,0 -0.904,-2.804 -0.904,-3.429 0,-0.598 -0.133,-3.495 0.904,-3.495 1.01,0 0.89,2.897 0.89,3.495 C 0.89,-2.711 0.851,0 0,0 m 0,-8.094 c -2.233,0 -2.074,3.176 -2.074,4.665 0,1.542 -0.119,4.585 2.074,4.585 2.206,0 2.087,-3.083 2.087,-4.585 0,-1.489 0.119,-4.665 -2.087,-4.665"
     style="fill:#000000;fill-opacity:1;fill-rule:nonzero;stroke:none"
     id="path10172" /></g><g
   id="g10174"
   transform="matrix(1.25,0,0,-1.25,88.74539,90.68464)"
   style="fill:#000000;stroke:none"><path
     inkscape:connector-curvature="0"
     d="m 0,0 -1.754,5.316 0,-5.316 -1.143,0 0,8.971 1.143,0 1.595,-4.465 0,4.465 1.143,0 L 0.984,0 0,0 z"
     style="fill:#000000;fill-opacity:1;fill-rule:nonzero;stroke:none"
     id="path10176" /></g><g
   id="g10178"
   transform="matrix(1.25,0,0,-1.25,92.84862,82.3755)"
   style="fill:#000000;stroke:none"><path
     inkscape:connector-curvature="0"
     d="m 0,0 -0.345,0.279 c 0.226,0.186 0.438,0.478 0.504,0.691 l -0.093,0 c -0.385,0 -0.664,0.253 -0.664,0.665 0,0.345 0.279,0.664 0.664,0.664 0.413,0 0.692,-0.319 0.692,-0.757 C 0.758,0.97 0.479,0.372 0,0"
     style="fill:#000000;fill-opacity:1;fill-rule:nonzero;stroke:none"
     id="path10180" /></g><g
   id="g10182"
   transform="matrix(1.25,0,0,-1.25,97.81601,80.93249)"
   style="fill:#000000;stroke:none"><path
     inkscape:connector-curvature="0"
     d="m 0,0 0,-7.802 -1.13,0 0,7.802 -1.103,0 0,1.169 3.402,0 L 1.169,0 0,0 z"
     style="fill:#000000;fill-opacity:1;fill-rule:nonzero;stroke:none"
     id="path10184" /></g><g
   id="g10186"
   transform="matrix(1.25,0,0,-1.25,107.73399,90.88401)"
   style="fill:#000000;stroke:none"><path
     inkscape:connector-curvature="0"
     d="m 0,0 c -1.449,0 -1.927,1.103 -1.98,2.392 l 1.156,0 C -0.824,1.861 -0.665,1.17 0,1.17 c 0.518,0 0.718,0.452 0.718,0.903 0,0.957 -0.359,1.542 -1.05,2.366 -0.705,0.837 -1.436,1.542 -1.436,2.711 0,1.077 0.652,2.1 1.834,2.1 1.303,0 1.715,-0.97 1.821,-2.1 l -1.169,0 C 0.704,7.576 0.625,8.121 0.093,8.121 -0.439,8.121 -0.598,7.589 -0.598,7.15 -0.598,6.552 -0.106,6.061 0.585,5.29 1.648,4.12 1.887,2.99 1.887,2.073 1.887,0.984 1.143,0 0,0"
     style="fill:#000000;fill-opacity:1;fill-rule:nonzero;stroke:none"
     id="path10188" /></g><g
   id="g10190"
   transform="matrix(1.25,0,0,-1.25,113.78124,80.93249)"
   style="fill:#000000;stroke:none"><path
     inkscape:connector-curvature="0"
     d="m 0,0 0,-7.802 -1.13,0 0,7.802 -1.103,0 0,1.169 3.402,0 L 1.169,0 0,0 z"
     style="fill:#000000;fill-opacity:1;fill-rule:nonzero;stroke:none"
     id="path10192" /></g><g
   id="g10194"
   transform="matrix(1.25,0,0,-1.25,118.94786,83.29164)"
   style="fill:#000000;stroke:none"><path
     inkscape:connector-curvature="0"
     d="m 0,0 -0.505,-2.352 0.97,0 L 0,0 z m 1.223,-5.914 -0.505,2.392 -1.476,0 -0.505,-2.392 -1.169,0 1.834,8.971 1.156,0 1.861,-8.971 -1.196,0 z"
     style="fill:#000000;fill-opacity:1;fill-rule:nonzero;stroke:none"
     id="path10196" /></g><g
   id="g10198"
   transform="matrix(1.25,0,0,-1.25,125.65961,80.93249)"
   style="fill:#000000;stroke:none"><path
     inkscape:connector-curvature="0"
     d="m 0,0 -0.558,0 0,-2.445 0.744,0 c 0.638,0 0.824,0.279 0.824,1.129 C 1.01,-0.306 0.784,0 0,0 m 1.236,-3.336 0.904,-4.466 -1.156,0 -1.011,4.187 -0.531,0 0,-4.187 -1.143,0 0,8.971 1.767,0 c 1.383,0 2.113,-0.85 2.113,-2.511 0,-1.01 -0.292,-1.582 -0.943,-1.994"
     style="fill:#000000;fill-opacity:1;fill-rule:nonzero;stroke:none"
     id="path10200" /></g><g
   id="g10202"
   transform="matrix(1.25,0,0,-1.25,132.05562,80.93249)"
   style="fill:#000000;stroke:none"><path
     inkscape:connector-curvature="0"
     d="m 0,0 0,-7.802 -1.13,0 0,7.802 -1.103,0 0,1.169 3.403,0 L 1.17,0 0,0 z"
     style="fill:#000000;fill-opacity:1;fill-rule:nonzero;stroke:none"
     id="path10204" /></g><path
   inkscape:connector-curvature="0"
   d="m 133.5175,92.36375 -62.6425,0 0,1.495 62.6425,0 0,-1.495 z"
   style="fill:#000000;fill-opacity:1;fill-rule:nonzero;stroke:none"
   id="path10206" /><path
   inkscape:connector-curvature="0"
   d="m 72.18,124.51 60.7425,0 0,-1.495 -60.7425,0 0,1.495 z"
   style="fill:#000000;fill-opacity:1;fill-rule:evenodd;stroke:none"
   id="path10208" /><g
   id="g10210"
   transform="matrix(1.25,0,0,-1.25,63.52563,128.03739)"
   style="fill:#000000;stroke:none"><path
     inkscape:connector-curvature="0"
     d="m 0,0 0,-7.801 -1.13,0 0,7.801 -1.103,0 0,1.17 3.403,0 L 1.17,0 0,0 z"
     style="fill:#000000;fill-opacity:1;fill-rule:nonzero;stroke:none"
     id="path10212" /></g><path
   inkscape:connector-curvature="0"
   d="m 66.54875,126.575 1.42875,0 0,11.21375 -1.42875,0 0,-11.21375 z"
   style="fill:#000000;fill-opacity:1;fill-rule:nonzero;stroke:none"
   id="path10214" /><g
   id="g10216"
   transform="matrix(1.25,0,0,-1.25,74.57325,137.78926)"
   style="fill:#000000;stroke:none"><path
     inkscape:connector-curvature="0"
     d="m 0,0 0,5.316 -1.077,-3.362 -1.089,3.362 0,-5.316 -1.143,0 0,8.971 1.143,0 L -1.077,5.795 0,8.971 1.13,8.971 1.13,0 0,0 z"
     style="fill:#000000;fill-opacity:1;fill-rule:nonzero;stroke:none"
     id="path10218" /></g><g
   id="g10220"
   transform="matrix(1.25,0,0,-1.25,78.44425,137.78926)"
   style="fill:#000000;stroke:none"><path
     inkscape:connector-curvature="0"
     d="m 0,0 0,8.971 3.309,0 0,-1.17 -2.166,0 0,-2.299 1.435,0 0,-1.196 -1.435,0 0,-3.136 2.286,0 L 3.429,0 0,0 z"
     style="fill:#000000;fill-opacity:1;fill-rule:nonzero;stroke:none"
     id="path10222" /></g><g
   id="g10224"
   transform="matrix(1.25,0,0,-1.25,92.18688,128.03739)"
   style="fill:#000000;stroke:none"><path
     inkscape:connector-curvature="0"
     d="m 0,0 -0.558,0 0,-2.445 0.744,0 c 0.638,0 0.824,0.279 0.824,1.129 C 1.01,-0.305 0.784,0 0,0 m 1.236,-3.336 0.904,-4.465 -1.156,0 -1.011,4.186 -0.531,0 0,-4.186 -1.143,0 0,8.971 1.767,0 c 1.383,0 2.114,-0.851 2.114,-2.512 0,-1.01 -0.293,-1.582 -0.944,-1.994"
     style="fill:#000000;fill-opacity:1;fill-rule:nonzero;stroke:none"
     id="path10226" /></g><g
   id="g10228"
   transform="matrix(1.25,0,0,-1.25,96.68913,137.78926)"
   style="fill:#000000;stroke:none"><path
     inkscape:connector-curvature="0"
     d="m 0,0 0,8.971 3.309,0 0,-1.17 -2.166,0 0,-2.299 1.435,0 0,-1.196 -1.435,0 0,-3.136 2.286,0 L 3.429,0 0,0 z"
     style="fill:#000000;fill-opacity:1;fill-rule:nonzero;stroke:none"
     id="path10230" /></g><g
   id="g10232"
   transform="matrix(1.25,0,0,-1.25,106.90612,137.78926)"
   style="fill:#000000;stroke:none"><path
     inkscape:connector-curvature="0"
     d="m 0,0 0,5.316 -1.076,-3.362 -1.09,3.362 0,-5.316 -1.143,0 0,8.971 1.143,0 1.09,-3.176 L 0,8.971 1.13,8.971 1.13,0 0,0 z"
     style="fill:#000000;fill-opacity:1;fill-rule:nonzero;stroke:none"
     id="path10234" /></g><g
   id="g10236"
   transform="matrix(1.25,0,0,-1.25,112.92025,130.39651)"
   style="fill:#000000;stroke:none"><path
     inkscape:connector-curvature="0"
     d="m 0,0 -0.505,-2.352 0.97,0 L 0,0 z m 1.223,-5.914 -0.505,2.392 -1.476,0 -0.505,-2.392 -1.169,0 1.834,8.971 1.156,0 1.861,-8.971 -1.196,0 z"
     style="fill:#000000;fill-opacity:1;fill-rule:nonzero;stroke:none"
     id="path10238" /></g><path
   inkscape:connector-curvature="0"
   d="m 117.505,126.575 1.42875,0 0,11.21375 -1.42875,0 0,-11.21375 z"
   style="fill:#000000;fill-opacity:1;fill-rule:nonzero;stroke:none"
   id="path10240" /><g
   id="g10242"
   transform="matrix(1.25,0,0,-1.25,125.01462,137.78926)"
   style="fill:#000000;stroke:none"><path
     inkscape:connector-curvature="0"
     d="m 0,0 -1.754,5.316 0,-5.316 -1.143,0 0,8.971 1.143,0 1.594,-4.465 0,4.465 1.144,0 L 0.984,0 0,0 z"
     style="fill:#000000;fill-opacity:1;fill-rule:nonzero;stroke:none"
     id="path10244" /></g><path
   inkscape:connector-curvature="0"
   d="m 128.7025,126.575 1.42875,0 0,11.21375 -1.42875,0 0,-11.21375 z"
   style="fill:#000000;fill-opacity:1;fill-rule:nonzero;stroke:none"
   id="path10246" /><g
   id="g10248"
   transform="matrix(1.25,0,0,-1.25,136.21176,137.78926)"
   style="fill:#000000;stroke:none"><path
     inkscape:connector-curvature="0"
     d="m 0,0 -1.754,5.316 0,-5.316 -1.143,0 0,8.971 1.143,0 1.595,-4.465 0,4.465 1.143,0 L 0.984,0 0,0 z"
     style="fill:#000000;fill-opacity:1;fill-rule:nonzero;stroke:none"
     id="path10250" /></g><g
   id="g10252"
   transform="matrix(1.25,0,0,-1.25,144.20264,136.69274)"
   style="fill:#000000;stroke:none"><path
     inkscape:connector-curvature="0"
     d="m 0,0 c -0.173,-0.625 -0.784,-1.037 -1.595,-1.037 -0.917,0 -1.448,0.346 -1.741,1.196 -0.279,0.825 -0.372,1.635 -0.372,3.469 0,1.794 0.106,2.579 0.412,3.429 0.292,0.811 0.811,1.157 1.701,1.157 0.997,0 1.595,-0.625 1.728,-1.728 l -1.13,0 c -0.066,0.385 -0.252,0.571 -0.571,0.571 -0.412,0 -0.691,-0.292 -0.784,-0.877 -0.12,-0.731 -0.187,-1.329 -0.187,-2.552 0,-1.236 0.027,-1.834 0.147,-2.591 0.106,-0.598 0.359,-0.904 0.757,-0.904 0.412,0 0.638,0.372 0.638,0.97 l 0,1.196 -0.545,0 0,1.17 1.675,0 0,-2.299 C 0.133,0.758 0.08,0.279 0,0"
     style="fill:#000000;fill-opacity:1;fill-rule:nonzero;stroke:none"
     id="path10254" /></g><g
   id="g10256"
   transform="matrix(1.25,0,0,-1.25,61.84812,142.24387)"
   style="fill:#000000;stroke:none"><path
     inkscape:connector-curvature="0"
     d="m 0,0 0,-7.802 -1.13,0 0,7.802 -1.103,0 0,1.169 3.403,0 L 1.17,0 0,0 z"
     style="fill:#000000;fill-opacity:1;fill-rule:nonzero;stroke:none"
     id="path10258" /></g><g
   id="g10260"
   transform="matrix(1.25,0,0,-1.25,66.3335,145.11812)"
   style="fill:#000000;stroke:none"><path
     inkscape:connector-curvature="0"
     d="m 0,0 c -0.691,0 -0.545,-1.755 -0.545,-2.193 0,-0.412 -0.027,-2.286 0.545,-2.273 0.505,0.014 0.465,1.835 0.465,2.273 C 0.465,-1.755 0.598,0 0,0 m 0,-5.622 c -1.355,0 -1.701,1.728 -1.701,3.389 0,1.834 0.159,3.429 1.701,3.429 1.342,0 1.595,-1.542 1.595,-3.389 C 1.595,-3.868 1.25,-5.622 0,-5.622"
     style="fill:#000000;fill-opacity:1;fill-rule:nonzero;stroke:none"
     id="path10262" /></g><g
   id="g10264"
   transform="matrix(1.25,0,0,-1.25,77.22187,142.24387)"
   style="fill:#000000;stroke:none"><path
     inkscape:connector-curvature="0"
     d="m 0,0 0,-2.299 1.316,0 0,-1.196 -1.316,0 0,-4.307 -1.143,0 0,8.971 3.429,0 L 2.286,0 0,0 z"
     style="fill:#000000;fill-opacity:1;fill-rule:nonzero;stroke:none"
     id="path10266" /></g><path
   inkscape:connector-curvature="0"
   d="m 81.34125,143.80625 1.4125,0 0,8.19 -1.4125,0 0,-8.19 z m 0.715,-1.72875 c -0.39875,0 -0.73125,-0.315 -0.73125,-0.73 0,-0.39875 0.3325,-0.715 0.73125,-0.715 0.39875,0 0.73125,0.31625 0.73125,0.715 0,0.415 -0.3325,0.73 -0.73125,0.73"
   style="fill:#000000;fill-opacity:1;fill-rule:nonzero;stroke:none"
   id="path10268" /><g
   id="g10270"
   transform="matrix(1.25,0,0,-1.25,87.13949,151.99599)"
   style="fill:#000000;stroke:none"><path
     inkscape:connector-curvature="0"
     d="m 0,0 0,4.506 c 0,0.345 0.04,1.036 -0.478,1.036 -0.466,0 -0.439,-0.731 -0.439,-1.036 l 0,-4.506 -1.13,0 0,6.552 1.13,0 0,-0.292 c 0.159,0.266 0.465,0.465 0.771,0.465 0.319,0 0.624,-0.066 0.904,-0.465 C 1.13,5.689 1.13,3.934 1.13,3.336 L 1.13,0 0,0 z"
     style="fill:#000000;fill-opacity:1;fill-rule:nonzero;stroke:none"
     id="path10272" /></g><path
   inkscape:connector-curvature="0"
   d="m 90.24625,143.80625 1.4125,0 0,8.19 -1.4125,0 0,-8.19 z M 90.96,142.0775 c -0.3975,0 -0.73,-0.315 -0.73,-0.73 0,-0.39875 0.3325,-0.715 0.73,-0.715 0.39875,0 0.73125,0.31625 0.73125,0.715 0,0.415 -0.3325,0.73 -0.73125,0.73"
   style="fill:#000000;fill-opacity:1;fill-rule:nonzero;stroke:none"
   id="path10274" /><g
   id="g10276"
   transform="matrix(1.25,0,0,-1.25,94.51587,152.14551)"
   style="fill:#000000;stroke:none"><path
     inkscape:connector-curvature="0"
     d="m 0,0 c -0.465,0 -0.89,0.12 -1.276,0.691 l 0.319,1.316 c 0.319,-0.691 0.598,-0.944 0.917,-0.944 0.399,0 0.558,0.28 0.558,0.824 0,0.253 -0.186,0.904 -0.784,1.383 -0.664,0.531 -1.01,0.97 -1.01,1.913 0,0.878 0.452,1.648 1.342,1.648 0.492,0 0.891,-0.252 1.343,-0.797 L 1.063,4.838 C 0.651,5.569 0.465,5.781 0.173,5.781 -0.04,5.781 -0.173,5.502 -0.173,5.223 -0.173,4.638 0.439,4.147 0.811,3.775 1.342,3.216 1.621,2.578 1.621,1.848 1.621,0.691 0.944,0 0,0"
     style="fill:#000000;fill-opacity:1;fill-rule:nonzero;stroke:none"
     id="path10278" /></g><g
   id="g10280"
   transform="matrix(1.25,0,0,-1.25,100.23061,151.99599)"
   style="fill:#000000;stroke:none"><path
     inkscape:connector-curvature="0"
     d="m 0,0 0,4.506 c 0,0.345 0.04,1.036 -0.478,1.036 -0.466,0 -0.439,-0.731 -0.439,-1.036 l 0,-4.506 -1.13,0 0,8.439 1.13,0.691 0,-2.671 c 0.186,0.173 0.465,0.266 0.718,0.266 0.585,0 1.329,-0.598 1.329,-2.193 L 1.13,0 0,0 z"
     style="fill:#000000;fill-opacity:1;fill-rule:nonzero;stroke:none"
     id="path10282" /></g><g
   id="g10284"
   transform="matrix(1.25,0,0,-1.25,113.65074,151.09911)"
   style="fill:#000000;stroke:none"><path
     inkscape:connector-curvature="0"
     d="m 0,0 c -0.226,-0.478 -0.691,-0.877 -1.569,-0.877 -0.824,0 -1.422,0.372 -1.701,1.196 -0.252,0.758 -0.372,1.98 -0.372,3.429 0,0.824 0.093,2.02 0.226,2.711 0.253,1.382 0.784,1.914 1.847,1.914 1.011,0 1.675,-0.625 1.768,-1.728 l -1.169,0 c -0.027,0.386 -0.253,0.572 -0.559,0.572 -0.412,0 -0.638,-0.293 -0.757,-0.877 -0.16,-0.731 -0.186,-1.396 -0.186,-2.592 0,-1.249 0.026,-1.794 0.186,-2.551 0.119,-0.599 0.345,-0.904 0.717,-0.904 0.412,0 0.599,0.305 0.599,1.103 l 1.169,0 C 0.199,1.396 0.226,0.452 0,0"
     style="fill:#000000;fill-opacity:1;fill-rule:nonzero;stroke:none"
     id="path10286" /></g><g
   id="g10288"
   transform="matrix(1.25,0,0,-1.25,118.48499,145.6165)"
   style="fill:#000000;stroke:none"><path
     inkscape:connector-curvature="0"
     d="m 0,0 c -0.16,0.213 -0.279,0.372 -0.465,0.372 -0.452,0 -0.638,-0.465 -0.638,-1.289 l 0,-4.187 -1.13,0 0,6.552 1.13,0 0,-0.318 c 0.186,0.318 0.319,0.478 0.598,0.478 0.292,0 0.505,-0.199 0.638,-0.451 L 0,0 z"
     style="fill:#000000;fill-opacity:1;fill-rule:nonzero;stroke:none"
     id="path10290" /></g><g
   id="g10292"
   transform="matrix(1.25,0,0,-1.25,121.55825,145.11812)"
   style="fill:#000000;stroke:none"><path
     inkscape:connector-curvature="0"
     d="m 0,0 c -0.691,0 -0.545,-1.755 -0.545,-2.193 0,-0.412 -0.026,-2.286 0.545,-2.273 0.505,0.014 0.465,1.835 0.465,2.273 C 0.465,-1.755 0.598,0 0,0 m 0,-5.622 c -1.356,0 -1.701,1.728 -1.701,3.389 0,1.834 0.159,3.429 1.701,3.429 1.342,0 1.595,-1.542 1.595,-3.389 0,-1.675 -0.346,-3.429 -1.595,-3.429"
     style="fill:#000000;fill-opacity:1;fill-rule:nonzero;stroke:none"
     id="path10294" /></g><g
   id="g10296"
   transform="matrix(1.25,0,0,-1.25,126.04388,152.14551)"
   style="fill:#000000;stroke:none"><path
     inkscape:connector-curvature="0"
     d="m 0,0 c -0.465,0 -0.89,0.12 -1.276,0.691 l 0.319,1.316 c 0.319,-0.691 0.598,-0.944 0.917,-0.944 0.399,0 0.558,0.28 0.558,0.824 0,0.253 -0.186,0.904 -0.784,1.383 -0.664,0.531 -1.01,0.97 -1.01,1.913 0,0.878 0.452,1.648 1.342,1.648 0.492,0 0.891,-0.252 1.343,-0.797 L 1.063,4.838 C 0.651,5.569 0.465,5.781 0.173,5.781 -0.04,5.781 -0.173,5.502 -0.173,5.223 -0.173,4.638 0.439,4.147 0.811,3.775 1.342,3.216 1.621,2.578 1.621,1.848 1.621,0.691 0.944,0 0,0"
     style="fill:#000000;fill-opacity:1;fill-rule:nonzero;stroke:none"
     id="path10298" /></g><g
   id="g10300"
   transform="matrix(1.25,0,0,-1.25,130.23037,152.14551)"
   style="fill:#000000;stroke:none"><path
     inkscape:connector-curvature="0"
     d="m 0,0 c -0.465,0 -0.89,0.12 -1.276,0.691 l 0.319,1.316 c 0.319,-0.691 0.598,-0.944 0.917,-0.944 0.399,0 0.558,0.28 0.558,0.824 0,0.253 -0.186,0.904 -0.784,1.383 -0.664,0.531 -1.01,0.97 -1.01,1.913 0,0.878 0.452,1.648 1.342,1.648 0.492,0 0.891,-0.252 1.343,-0.797 L 1.063,4.838 C 0.651,5.569 0.465,5.781 0.173,5.781 -0.04,5.781 -0.173,5.502 -0.173,5.223 -0.173,4.638 0.439,4.147 0.811,3.775 1.342,3.216 1.621,2.578 1.621,1.848 1.621,0.691 0.944,0 0,0"
     style="fill:#000000;fill-opacity:1;fill-rule:nonzero;stroke:none"
     id="path10302" /></g><path
   inkscape:connector-curvature="0"
   d="m 133.40375,143.80625 1.4125,0 0,8.19 -1.4125,0 0,-8.19 z m 0.71375,-1.72875 c -0.39875,0 -0.73,-0.315 -0.73,-0.73 0,-0.39875 0.33125,-0.715 0.73,-0.715 0.39875,0 0.73125,0.31625 0.73125,0.715 0,0.415 -0.3325,0.73 -0.73125,0.73"
   style="fill:#000000;fill-opacity:1;fill-rule:nonzero;stroke:none"
   id="path10304" /><g
   id="g10306"
   transform="matrix(1.25,0,0,-1.25,139.20137,151.99599)"
   style="fill:#000000;stroke:none"><path
     inkscape:connector-curvature="0"
     d="m 0,0 0,4.506 c 0,0.345 0.04,1.036 -0.478,1.036 -0.466,0 -0.439,-0.731 -0.439,-1.036 l 0,-4.506 -1.13,0 0,6.552 1.13,0 0,-0.292 c 0.16,0.266 0.465,0.465 0.771,0.465 0.319,0 0.625,-0.066 0.904,-0.465 C 1.13,5.689 1.13,3.934 1.13,3.336 L 1.13,0 0,0 z"
     style="fill:#000000;fill-opacity:1;fill-rule:nonzero;stroke:none"
     id="path10308" /></g><g
   id="g10310"
   transform="matrix(1.25,0,0,-1.25,144.66725,146.1315)"
   style="fill:#000000;stroke:none"><path
     inkscape:connector-curvature="0"
     d="m 0,0 c 0,0.279 -0.066,0.784 -0.465,0.784 -0.479,0 -0.598,-0.917 -0.598,-2.299 0,-0.386 -0.04,-2.206 0.625,-2.206 C -0.159,-3.682 0,-3.083 0,-2.525 L 0,0 z m 0.572,-7.084 c -0.319,-0.438 -0.599,-0.664 -1.104,-0.85 l -0.412,1.076 c 0.532,0.252 0.917,0.625 0.917,1.223 l 0,1.103 c -0.132,-0.186 -0.319,-0.319 -0.438,-0.319 -1.422,0 -1.701,1.887 -1.701,3.336 0,1.834 0.279,3.495 1.661,3.522 0.186,0.013 0.346,-0.094 0.638,-0.306 l 0,0.186 0.97,0 0,-6.671 c 0,-1.223 -0.133,-1.728 -0.531,-2.3"
     style="fill:#000000;fill-opacity:1;fill-rule:nonzero;stroke:none"
     id="path10312" /></g><g
   id="g9778"
   transform="matrix(1.25,0,0,-1.25,139.92938,267.09711)"
   style="fill:#000000;stroke:none"><path
     inkscape:connector-curvature="0"
     d="m 0,0 -89.713,0 c -6.167,0 -11.214,5.046 -11.214,11.214 l 0,33.642 112.141,0 0,-33.642 C 11.214,5.046 6.168,0 0,0 m 11.214,48.594 -112.141,0 0,35.137 112.141,0 0,-35.137 z m -112.141,104.665 112.141,0 0,-65.789 -112.141,0 0,65.789 z m 0,37.38 c 0,6.168 5.047,11.214 11.214,11.214 l 89.713,0 c 6.168,0 11.214,-5.046 11.214,-11.214 l 0,-33.642 -112.141,0 0,33.642 z M 0,207.461 l -89.713,0 c -9.251,0 -16.821,-7.57 -16.821,-16.822 l 0,-179.425 c 0,-9.252 7.57,-16.821 16.821,-16.821 l 89.713,0 c 9.252,0 16.821,7.569 16.821,16.821 l 0,179.425 c 0,9.252 -7.569,16.822 -16.821,16.822"
     style="fill:#000000;fill-opacity:1;fill-rule:nonzero;stroke:none"
     id="path9780" /></g><path
   inkscape:connector-curvature="0"
   d="m 27.78876,28.9425 23.17625,0 0,28.035 -23.17625,0 0,-28.035 z"
   style="fill:#000000;fill-opacity:1;fill-rule:evenodd;stroke:none"
   id="path9782" /><g
   id="g9942"
   transform="matrix(1.25,0,0,-1.25,130.47551,232.66689)"
   style="fill:#000000;stroke:none"><path
     inkscape:connector-curvature="0"
     d="M 0,0 7.563,-5.113 0,-10.234 c -0.33,-0.223 -0.791,-0.141 -1.016,0.193 -0.154,0.221 -0.123,0.456 -0.053,0.729 l 0.667,2.216 -80.611,0 0,3.962 80.611,0 -0.653,2.184 c -0.084,0.303 -0.119,0.524 0.039,0.757 C -0.791,0.139 -0.33,0.229 0,0"
     style="fill:#000000;fill-opacity:1;fill-rule:evenodd;stroke:none"
     id="path9944" /></g><g
   id="g9946"
   transform="matrix(1.25,0,0,-1.25,57.60765,222.80588)"
   style="fill:#000000;stroke:none"><path
     inkscape:connector-curvature="0"
     d="m 0,0 0,-7.775 -1.302,0 0,7.775 -1.635,0 0,1.196 4.572,0 L 1.635,0 0,0 z"
     style="fill:#000000;fill-opacity:1;fill-rule:nonzero;stroke:none"
     id="path9948" /></g><g
   id="g9974"
   transform="matrix(1.25,0,0,-1.25,45.9945,247.17714)"
   style="fill:#000000;stroke:none"><path
     inkscape:connector-curvature="0"
     d="m 0,0 -1.329,0 0,-2.552 1.329,0 c 0.758,0 1.157,0.479 1.157,1.302 C 1.157,-0.505 0.691,0 0,0 m 0.067,-3.775 -1.396,0 0,-3.934 -1.289,0 0,8.972 2.685,0 c 1.408,0 2.352,-1.011 2.352,-2.513 0,-1.648 -0.851,-2.525 -2.352,-2.525"
     style="fill:#000000;fill-opacity:1;fill-rule:nonzero;stroke:none"
     id="path9976" /></g><g
   id="g9978"
   transform="matrix(1.25,0,0,-1.25,57.12526,255.434)"
   style="fill:#000000;stroke:none"><path
     inkscape:connector-curvature="0"
     d="m 0,0 c -0.425,-0.731 -1.289,-1.263 -2.14,-1.263 -0.877,0 -1.767,0.505 -2.206,1.263 -0.252,0.465 -0.345,0.85 -0.345,1.568 l 0,6.3 1.289,0 0,-6.446 C -3.402,0.572 -2.897,0 -2.14,0 c 0.691,0 1.197,0.572 1.197,1.422 l 0,6.446 1.289,0 0,-6.3 C 0.346,0.85 0.266,0.465 0,0"
     style="fill:#000000;fill-opacity:1;fill-rule:nonzero;stroke:none"
     id="path9980" /></g><path
   inkscape:connector-curvature="0"
   d="m 27.77876,83.86 23.1775,0 0,28.0325 -23.1775,0 0,-28.0325 z"
   style="fill:#000000;fill-opacity:1;fill-rule:evenodd;stroke:none"
   id="path10014" /><path
   inkscape:connector-curvature="0"
   d="m 26.33501,97.11875 -4.845,0 0,0.8525 4.845,0 0,-0.8525 z m 18.185,-14.685 0.80125,0.35875 2.045,-4.24875 -0.8,-0.36375 -2.04625,4.25375 z m -13.21625,-3.89 2.0475,4.24875 0.79875,-0.35875 -2.05125,-4.25375 -0.795,0.36375 z m 21.13625,19.4275 4.85,0 0,-0.8525 -4.85,0 0,0.8525 z m 0.045,7.35 4.3875,1.9825 0.37875,-0.77 -4.39625,-1.985 -0.37,0.7725 z m -0.81125,7.96125 3.49,3.26125 0.61375,-0.6175 -3.4875,-3.25625 -0.61625,0.6125 z m -12.7825,-30.4475 0.88625,0 0,-4.69125 -0.88625,0 0,4.69125 z m -12.4875,7.5725 -4.39375,-1.985 -0.37,0.7725 4.39375,1.9825 0.37,-0.77 z M 55.77751,79.87 l -0.61375,-0.61375 -3.49,3.25625 0.61625,0.61375 3.4875,-3.25625 z m -2.9225,11.3075 4.39625,-1.9825 -0.37875,-0.7725 -4.3875,1.985 0.37,0.77 z M 23.23876,79.905 l 3.4275,3.32 0.62125,-0.6025 -3.425,-3.32125 -0.62375,0.60375 z m 2.795,24.64375 -4.39375,1.985 0.37,0.77 4.39375,-1.9825 -0.37,-0.7725 z m -2.795,11.34375 0.62375,0.60375 3.425,-3.325 -0.62125,-0.59625 -3.4275,3.3175 z"
   style="fill:#000000;fill-opacity:1;fill-rule:evenodd;stroke:none"
   id="path10020" /><path
   inkscape:connector-curvature="0"
   d="m 27.77876,172.37125 23.1775,0 0,28.0325 -23.1775,0 0,-28.0325 z"
   style="fill:#000000;fill-opacity:1;fill-rule:evenodd;stroke:none"
   id="path10052" /><path
   inkscape:connector-curvature="0"
   d="m 27.78876,149.3025 23.17625,0 0,-28.03625 -23.17625,0 0,28.03625 z"
   style="fill:#000000;fill-opacity:1;fill-rule:evenodd;stroke:none"
   id="path10332" /><path
   inkscape:connector-curvature="0"
   d="m 29.0325,113.70488 0,1.34125 0.7675,0 0,0.6975 -0.7675,0 0,2.5125 -0.6675,0 0,-5.23375 2.00125,0 0,0.6825 -1.33375,0 z"
   style="fill:#000000;fill-opacity:1;fill-rule:nonzero;stroke:none"
   id="path10024" /><path
   inkscape:connector-curvature="0"
   d="m 31.10263,118.25636 0,-5.23375 0.66625,0 0,4.62875 1.33375,0 0,0.605 -2,0 z"
   style="fill:#000000;fill-opacity:1;fill-rule:nonzero;stroke:none"
   id="path10028" /><path
   inkscape:connector-curvature="0"
   d="m 34.83987,114.80599 -0.295,1.3725 0.56625,0 -0.27125,-1.3725 z m 0.71375,3.45 -0.295,-1.395 -0.86125,0 -0.29375,1.395 -0.6825,0 1.07,-5.23375 0.67375,0 1.08625,5.23375 -0.6975,0 z"
   style="fill:#000000;fill-opacity:1;fill-rule:nonzero;stroke:none"
   id="path10032" /><path
   inkscape:connector-curvature="0"
   d="m 37.82512,118.34937 c -0.845,0 -1.12375,-0.64375 -1.155,-1.395 l 0.67375,0 c 0,0.31 0.0937,0.7125 0.48125,0.7125 0.3025,0 0.41875,-0.26375 0.41875,-0.5275 0,-0.5575 -0.21,-0.89875 -0.6125,-1.38 -0.41125,-0.48875 -0.8375,-0.89875 -0.8375,-1.58125 0,-0.62875 0.38,-1.225 1.07,-1.225 0.76,0 1,0.56625 1.0625,1.225 l -0.6825,0 c -0.007,-0.24875 -0.0537,-0.56625 -0.365,-0.56625 -0.31,0 -0.4025,0.31 -0.4025,0.56625 0,0.34875 0.28625,0.63625 0.69,1.085 0.62,0.6825 0.76,1.34125 0.76,1.87625 0,0.63625 -0.435,1.21 -1.10125,1.21"
   style="fill:#000000;fill-opacity:1;fill-rule:nonzero;stroke:none"
   id="path10036" /><path
   inkscape:connector-curvature="0"
   d="m 41.36087,118.25636 0,-2.4425 -0.93,0 0,2.4425 -0.6675,0 0,-5.23375 0.6675,0 0,2.10875 0.93,0 0,-2.10875 0.66625,0 0,5.23375 -0.66625,0 z"
   style="fill:#000000;fill-opacity:1;fill-rule:nonzero;stroke:none"
   id="path10040" /><path
   inkscape:connector-curvature="0"
   d="m 43.175,113.0225 0.66625,0 0,5.23375 -0.66625,0 0,-5.23375 z"
   style="fill:#000000;fill-opacity:1;fill-rule:nonzero;stroke:none"
   id="path10042" /><path
   inkscape:connector-curvature="0"
   d="m 46.67987,118.25636 -1.02375,-3.10125 0,3.10125 -0.66625,0 0,-5.23375 0.66625,0 0.93,2.605 0,-2.605 0.6675,0 0,5.23375 -0.57375,0 z"
   style="fill:#000000;fill-opacity:1;fill-rule:nonzero;stroke:none"
   id="path10046" /><path
   inkscape:connector-curvature="0"
   d="m 50.40924,117.74476 c -0.10125,0.365 -0.4575,0.605 -0.93,0.605 -0.535,0 -0.84625,-0.20125 -1.01625,-0.69875 -0.1625,-0.48 -0.2175,-0.95375 -0.2175,-2.02375 0,-1.04625 0.0625,-1.50375 0.24125,-2 0.17,-0.4725 0.4725,-0.675 0.9925,-0.675 0.58125,0 0.93,0.365 1.0075,1.00875 l -0.65875,0 c -0.0387,-0.225 -0.1475,-0.33375 -0.33375,-0.33375 -0.24,0 -0.40375,0.17125 -0.4575,0.51125 -0.07,0.4275 -0.10875,0.77625 -0.10875,1.48875 0,0.72125 0.0163,1.07 0.085,1.5125 0.0625,0.34875 0.21,0.5275 0.4425,0.5275 0.24,0 0.3725,-0.2175 0.3725,-0.56625 l 0,-0.6975 -0.31875,0 0,-0.6825 0.9775,0 0,1.34125 c 0,0.24 -0.0312,0.52 -0.0775,0.6825"
   style="fill:#000000;fill-opacity:1;fill-rule:nonzero;stroke:none"
   id="path10050" /><path
   inkscape:connector-curvature="0"
   d="m 32.01349,171.33587 c -0.845,0 -1.12375,-0.64375 -1.155,-1.39625 l 0.67375,0 c 0,0.31125 0.0937,0.71375 0.48125,0.71375 0.3025,0 0.41875,-0.26375 0.41875,-0.5275 0,-0.5575 -0.20875,-0.89875 -0.6125,-1.38 -0.41125,-0.48875 -0.8375,-0.89875 -0.8375,-1.58125 0,-0.62875 0.38,-1.225 1.07,-1.225 0.76,0 1,0.565 1.0625,1.225 l -0.6825,0 c -0.007,-0.24875 -0.0538,-0.56625 -0.365,-0.56625 -0.31,0 -0.4025,0.31 -0.4025,0.56625 0,0.34875 0.28625,0.635 0.69,1.085 0.62,0.6825 0.76,1.34125 0.76,1.87625 0,0.63625 -0.43375,1.21 -1.10125,1.21"
   style="fill:#000000;fill-opacity:1;fill-rule:nonzero;stroke:none"
   id="path10060" /><path
   inkscape:connector-curvature="0"
   d="m 34.83576,166.69113 0,4.55125 -0.65875,0 0,-4.55125 -0.64375,0 0,-0.6825 1.985,0 0,0.6825 -0.6825,0 z"
   style="fill:#000000;fill-opacity:1;fill-rule:nonzero;stroke:none"
   id="path10064" /><path
   inkscape:connector-curvature="0"
   d="m 36.24687,171.24274 0,-5.23375 1.93125,0 0,0.6825 -1.265,0 0,1.34125 0.8375,0 0,0.6975 -0.8375,0 0,1.83 1.33375,0 0,0.6825 -2,0 z"
   style="fill:#000000;fill-opacity:1;fill-rule:nonzero;stroke:none"
   id="path10068" /><path
   inkscape:connector-curvature="0"
   d="m 40.08499,167.79236 -0.295,1.3725 0.56625,0 -0.27125,-1.3725 z m 0.71375,3.45 -0.295,-1.395 -0.86125,0 -0.29375,1.395 -0.6825,0 1.07,-5.23375 0.675,0 1.085,5.23375 -0.6975,0 z"
   style="fill:#000000;fill-opacity:1;fill-rule:nonzero;stroke:none"
   id="path10072" /><path
   inkscape:connector-curvature="0"
   d="m 43.75275,167.44338 c -0.0462,-0.57375 -0.1625,-0.7525 -0.4425,-0.7525 l -0.41875,0 0,3.86875 0.41875,0 c 0.24125,0 0.365,-0.1625 0.4425,-0.55 0.015,-0.1775 0.0538,-0.7675 0.0538,-1.225 0,-0.3875 -0.0225,-0.97625 -0.0538,-1.34125 m 0.25625,3.54375 c -0.1475,0.1625 -0.40375,0.255 -0.69875,0.255 l -1.085,0 0,-5.23375 1.085,0 c 0.365,0 0.62875,0.1325 0.79125,0.3875 0.12375,0.2025 0.225,0.55125 0.27125,0.8775 0.0625,0.42625 0.11625,0.89875 0.11625,1.34125 0,1.2325 -0.17,2.02375 -0.48,2.3725"
   style="fill:#000000;fill-opacity:1;fill-rule:nonzero;stroke:none"
   id="path10076" /><path
   inkscape:connector-curvature="0"
   d="m 46.80775,168.87 0,2.3725 -0.675,0 0,-2.3725 -1.07,-2.86125 0.72125,0 0.6975,1.8375 0.675,-1.8375 0.72125,0 -1.07,2.86125 z"
   style="fill:#000000;fill-opacity:1;fill-rule:nonzero;stroke:none"
   id="path10080" /><path
   inkscape:connector-curvature="0"
   d="m 34.69475,151.09813 0,-0.68 -1.97875,0 0,0.68 0.64,0 0,4.5475 0.65875,0 0,-4.5475 0.68,0 z"
   style="fill:#000000;fill-opacity:1;fill-rule:evenodd;stroke:none"
   id="path10316" /><path
   inkscape:connector-curvature="0"
   d="m 35.425,150.41875 0.6625,0 0,5.225 -0.6625,0 0,-5.225 z"
   style="fill:#000000;fill-opacity:1;fill-rule:nonzero;stroke:none"
   id="path10318" /><path
   inkscape:connector-curvature="0"
   d="m 39.16514,155.64525 0,-3.09875 -0.6225,1.96375 -0.64125,-1.96375 0,3.09875 -0.66,0 0,-5.2275 0.66,0 0.64125,1.85375 0.6225,-1.85375 0.65875,0 0,5.2275 -0.65875,0 z"
   style="fill:#000000;fill-opacity:1;fill-rule:evenodd;stroke:none"
   id="path10322" /><path
   inkscape:connector-curvature="0"
   d="m 42.96076,155.64525 0,-0.6775 -1.33875,0 0,-1.835 0.845,0 0,-0.695 -0.845,0 0,-1.34 1.26625,0 0,-0.68 -1.92625,0 0,5.2275 1.99875,0 z"
   style="fill:#000000;fill-opacity:1;fill-rule:evenodd;stroke:none"
   id="path10326" /><path
   inkscape:connector-curvature="0"
   d="m 44.7755,151.09813 -0.33,0 0,1.43 0.44125,0 c 0.36375,0 0.4725,-0.16375 0.4725,-0.66 0,-0.58875 -0.125,-0.77 -0.58375,-0.77 m 0.7125,1.94375 0.53375,2.60375 -0.68,0 -0.58375,-2.44 -0.3125,0 0,2.44 -0.65875,0 0,-5.2275 1.02375,0 c 0.8075,0 1.22625,0.49625 1.22625,1.4675 0,0.5875 -0.16125,0.9175 -0.54875,1.15625"
   style="fill:#000000;fill-opacity:1;fill-rule:evenodd;stroke:none"
   id="path10330" /><path
   inkscape:connector-curvature="0"
   d="m 34.39936,110.6285 c 0.23,-0.2775 0.49625,-0.5825 0.52,-1.08625 l 0,-3.64 c 0,-1.58875 -0.5325,-1.86125 -1.055,-2.34375 -0.865,-0.80375 -0.73625,-1.94625 -0.68375,-3.4125 0.1325,-4.0775 0.285,-6.53125 0.29875,-10.3375 0.005,-0.485 0.4,-0.88625 0.88125,-0.88625 0.4875,0 0.8825,0.40125 0.8825,0.88625 l 0.30375,6.17875 0.4,-0.01 c 0.0663,-2.8225 0.195,-5.67 0.195,-8.49375 0,-0.48625 0.39125,-0.88125 0.87875,-0.88125 0.485,0 0.88,0.395 0.88,0.88125 l 0,0.0225 0.1275,8.47625 0.40375,0 c 0.1175,-3.19625 0.3425,-6.46375 0.3425,-9.6575 0,-0.485 0.4,-0.88 0.88125,-0.88 0.4875,0 0.885,0.395 0.885,0.88 l 0,0.009 0.19,9.64875 0.53,0 c 0.0325,-2.8475 0.0637,-5.69375 0.095,-8.54625 0.0212,-0.465 0.41375,-0.83375 0.87875,-0.83375 0.47625,0 0.875,0.3825 0.885,0.8625 l 0.435,11.365 c -0.005,0.20875 0.1825,0.36625 0.39125,0.36625 0.12125,0 0.395,-0.0863 0.60375,-0.41 l 1.99125,-2.885 c 0.75625,-1.06 1.76125,-1.26875 2.9375,-0.8225 -0.72375,1.37375 -2.2375,4.76375 -3.76875,6.66875 -0.80375,1.26 -3.5125,2.52375 -3.5125,4.15 l 0,3.32 c 0,0.6825 0.67,1.45625 0.64625,1.41125 l -8.44375,0"
   style="fill:#f48412;fill-opacity:1;fill-rule:evenodd;stroke:none"
   id="path10018" /><path
   inkscape:connector-curvature="0"
   d="m 34.39936,199.13951 c 0.23,-0.2775 0.49625,-0.5825 0.52,-1.08625 l 0,-3.64 c 0,-1.58875 -0.5325,-1.86125 -1.055,-2.34375 -0.865,-0.8025 -0.73625,-1.94625 -0.68375,-3.4125 0.1325,-4.0775 0.285,-6.53125 0.29875,-10.3375 0.005,-0.485 0.4,-0.88625 0.88125,-0.88625 0.4875,0 0.8825,0.40125 0.8825,0.88625 l 0.30375,6.17875 0.4,-0.01 c 0.0663,-2.8225 0.195,-5.67 0.195,-8.4925 0,-0.4875 0.39125,-0.8825 0.87875,-0.8825 0.485,0 0.88,0.395 0.88,0.8825 l 0,0.0213 0.1275,8.47625 0.40375,0 c 0.1175,-3.19625 0.3425,-6.46375 0.3425,-9.65875 0,-0.48375 0.4,-0.87875 0.88125,-0.87875 0.4875,0 0.885,0.395 0.885,0.87875 l 0,0.01 0.19,9.64875 0.53,0 c 0.0325,-2.8475 0.0637,-5.69375 0.095,-8.54625 0.0212,-0.465 0.41375,-0.83375 0.87875,-0.83375 0.47625,0 0.875,0.3825 0.885,0.8625 l 0.435,11.365 c -0.005,0.20875 0.1825,0.36625 0.39125,0.36625 0.12125,0 0.395,-0.0862 0.60375,-0.40875 l 1.99125,-2.885 c 0.75625,-1.06 1.76125,-1.27 2.9375,-0.8225 -0.72375,1.37375 -2.2375,4.7625 -3.76875,6.6675 -0.80375,1.26 -3.5125,2.52375 -3.5125,4.15 l 0,3.32 c 0,0.6825 0.67,1.45625 0.64625,1.41125 l -8.44375,0"
   style="fill:#f48412;fill-opacity:1;fill-rule:evenodd;stroke:none"
   id="path10056" /><path
   inkscape:connector-curvature="0"
   d="m 30.16813,124.89662 c -0.58875,0 -1.095,0.58875 -1.095,1.2625 l 0,17.92 c 0,0.76 0.50625,1.34875 1.095,1.34875 l 7.065,0 c 0.67375,0 1.17375,-0.58875 1.17375,-1.34875 l 0,-17.92 c 0,-0.67375 -0.5,-1.2625 -1.17375,-1.2625 l -7.065,0 z m 0.34,1.43 6.38875,0 0,17.5825 -6.38875,0 0,-17.5825 z"
   style="fill:#f48412;fill-opacity:1;stroke:none"
   id="path10340" /><path
   inkscape:connector-curvature="0"
   d="m 41.85999,134.49 6.305,0 0,-8.16375 -6.305,0 0,8.16375 z m 0,9.6725 6.305,0 0,-8.33125 -6.305,0 0,8.33125 z m 0.33375,-19.26625 5.63875,0 c 1.00875,0 1.8475,0.505 1.8475,1.09125 l 0,8.5025 c 0,0.335 -0.17,0.58625 -0.4175,0.7525 0.2475,0.25375 0.4175,0.5075 0.4175,0.76125 l 0,8.49375 c 0,0.67625 -0.83875,1.17625 -1.8475,1.17625 l -5.63875,0 c -1.00875,0 -1.85,-0.5 -1.85,-1.17625 l 0,-8.49375 c 0,-0.25375 0.17,-0.5075 0.50625,-0.76125 -0.33625,-0.16625 -0.50625,-0.4175 -0.50625,-0.7525 l 0,-8.5025 c 0,-0.58625 0.84125,-1.09125 1.85,-1.09125 z"
   style="fill:#f48412;fill-opacity:1;stroke:none"
   id="path10344" /><path
   inkscape:connector-curvature="0"
   d="m 46.04363,42.03774 -3.67125,-2.44625 c -0.16875,-0.715 -0.87625,-3.90375 -2.28375,-4.63875 -1.40375,-0.9275 -6.56,2.8725 -6.59375,2.905 l 0,5.54125 1.12125,-0.1925 0.435,-4.42125 c 0.42625,-0.0937 0.845,-0.1725 1.265,-0.25875 -0.9175,2.3825 -1.25875,4.675 -0.7275,6.19125 l -2.2375,9.135 1.5075,1.0675 3.26,-8.45375 1.50625,1.60125 2.08875,6.36875 1.995,-0.73125 -1.7975,-6.70625 -2.09125,-3.7425 0.79625,-2.7625 0.85625,1.1075 3.98875,1.30875 0.5825,-0.8725 m -5.30125,-11.0375 c -0.9625,0 -1.75125,0.78875 -1.75125,1.7525 0,0.96 0.78875,1.74875 1.75125,1.74875 0.96125,0 1.7525,-0.78875 1.7525,-1.74875 0,-0.96375 -0.79125,-1.7525 -1.7525,-1.7525"
   style="fill:#ffffff;fill-opacity:1;fill-rule:evenodd;stroke:none"
   id="path9786" /></svg>