<?xml version="1.0" encoding="UTF-8" standalone="no"?>
<!-- Created with Inkscape (http://www.inkscape.org/) -->

<svg
   xmlns:dc="http://purl.org/dc/elements/1.1/"
   xmlns:cc="http://creativecommons.org/ns#"
   xmlns:rdf="http://www.w3.org/1999/02/22-rdf-syntax-ns#"
   xmlns:svg="http://www.w3.org/2000/svg"
   xmlns="http://www.w3.org/2000/svg"
   xmlns:sodipodi="http://sodipodi.sourceforge.net/DTD/sodipodi-0.dtd"
   xmlns:inkscape="http://www.inkscape.org/namespaces/inkscape"
   id="svg2"
   inkscape:version="0.48.2 r9819"
   height="2710"
   width="2170"
   version="1.1"
   sodipodi:docname="AJAX5.svg">
  <defs
     id="defs19" />
  <sodipodi:namedview
     id="base"
     fit-margin-left="0"
     inkscape:zoom="0.16367188"
     borderopacity="1.0"
     inkscape:current-layer="g3763"
     inkscape:cx="108.59094"
     inkscape:cy="1978.896"
     inkscape:window-maximized="1"
     showgrid="false"
     fit-margin-right="0"
     inkscape:document-units="px"
     bordercolor="#666666"
     inkscape:window-x="-8"
     inkscape:guide-bbox="true"
     inkscape:window-y="-8"
     fit-margin-bottom="0"
     inkscape:window-width="1280"
     inkscape:pageopacity="0.0"
     inkscape:pageshadow="2"
     pagecolor="#ffffff"
     showguides="true"
     inkscape:window-height="1004"
     fit-margin-top="0" />
  <metadata
     id="metadata7">
    <rdf:RDF>
      <cc:Work
         rdf:about="">
        <dc:format>image/svg+xml</dc:format>
        <dc:type
           rdf:resource="http://purl.org/dc/dcmitype/StillImage" />
        <dc:title></dc:title>
      </cc:Work>
    </rdf:RDF>
  </metadata>
  <g
     id="layer1"
     inkscape:label="Layer 1"
     inkscape:groupmode="layer"
     transform="translate(177.2422,2368.7982)">
    <g
       id="g3012"
       transform="translate(109.60155,-54.548234)"
       stroke-miterlimit="4"
       style="fill:#0dadea;stroke-miterlimit:4;stroke-dasharray:none">
      <g
         id="g3763">
        <path
           inkscape:connector-curvature="0"
           style="fill:#ffffff;fill-rule:nonzero;stroke:#000000;stroke-width:10;stroke-linecap:butt;stroke-linejoin:miter;stroke-miterlimit:4;stroke-opacity:1;stroke-dasharray:none"
           d="m 1878.1563,255.75006 c 0,74.5625 -60.4375,135 -135,135 l -1890.00005,0 c -74.55937,0 -135,-60.4375 -135,-135 l 0,-2430.00006 c 0,-74.5625 60.44063,-135 135,-135 l 1890.00005,0 c 74.5625,0 135,60.4375 135,135 l 0,2430.00006 z"
           id="path11" />
        <path
           inkscape:connector-curvature="0"
           style="fill:#000000;fill-rule:nonzero;stroke:none"
           d="m -146.84375,357.00006 c -55.83012,0 -101.25,-45.425 -101.25,-101.25 l 0,-2430.00006 c 0,-55.825 45.41988,-101.25 101.25,-101.25 l 1890.00005,0 c 55.825,0 101.25,45.425 101.25,101.25 l 0,2430.00006 c 0,55.825 -45.425,101.25 -101.25,101.25 l -1890.00005,0 z"
           id="path13" />
        <path
           inkscape:connector-curvature="0"
           style="fill:#ffffff;fill-rule:nonzero;stroke:none"
           d="m -146.84375,300.75006 c -24.81325,0 -45,-20.1875 -45,-45 l 0,-2430.00006 c 0,-24.8125 20.18675,-45 45,-45 l 1890.00005,0 c 24.8125,0 45,20.1875 45,45 l 0,2430.00006 c 0,24.8125 -20.1875,45 -45,45 l -1890.00005,0 z"
           id="path15" />
        <path
           inkscape:connector-curvature="0"
           style="fill:#000000;fill-rule:nonzero;stroke:none"
           d="M 882.80625,-1656.75 745.11,-1900.5375 l 0,243.7875 -56.845,0 0,-360 56.845,0 131.3775,229.9 0,-229.9 56.84625,0 0,360 -50.5275,0 z"
           id="path17" />
        <path
           inkscape:connector-curvature="0"
           style="fill:#000000;fill-rule:nonzero;stroke:none"
           d="m 530.56,-1937.175 c -11.39625,-18.9375 -25.325,-26.525 -46.85125,-27.7875 -27.85875,-1.2625 -45.585,12.6375 -58.24625,44.2125 -8.865,21.475 -13.92875,54.3125 -13.92875,84.6375 0,37.8875 7.595,77.05 21.52375,99.7875 11.39875,18.95 26.59125,27.7875 49.385,27.7875 26.59125,0 43.05125,-13.9 55.715,-45.475 7.5975,-18.95 13.92875,-54.3125 13.92875,-82.1 0,-40.425 -7.59875,-77.05 -21.52625,-101.0625 z m 39.2525,246.325 c -20.26125,27.7875 -49.385,40.4125 -87.37,40.4125 -50.65,0 -82.3075,-20.2125 -103.83375,-64.4125 -15.1925,-30.325 -25.3225,-78.3125 -25.3225,-121.2625 0,-59.375 15.19375,-112.425 39.25375,-146.525 21.5275,-27.8 50.64875,-40.425 92.43375,-40.425 45.58625,0 77.24125,20.2125 100.03375,64.425 15.19375,31.575 24.06,77.05 24.06,122.525 0,56.8375 -13.93,113.675 -39.255,145.2625 z"
           id="path19" />
        <path
           inkscape:connector-curvature="0"
           style="fill:#000000;fill-rule:nonzero;stroke:none"
           d="m 1019.7312,-1656.75 0,-360 211.9375,0 0,56.8375 -155.1624,0 0,88.425 104.7,0 0,58.1125 -104.7,0 0,98.525 166.525,0 0,58.1 -223.3001,0 z"
           id="path21" />
        <path
           inkscape:connector-curvature="0"
           style="fill:#000000;fill-rule:nonzero;stroke:none"
           d="m 549.32625,-783.59997 c -10.105,-5.05 -16.42125,-6.3125 -34.1075,-6.3125 l -74.53125,0 0,88.425 74.53125,0 c 17.68625,0 24.0025,-1.2625 34.1075,-6.3125 12.63125,-6.325 21.47625,-22.7375 21.47625,-37.9 0,-15.1625 -8.845,-30.3125 -21.47625,-37.9 z m 24.00375,127.5875 c -16.42375,7.575 -37.89875,12.625 -65.69125,12.625 l -66.95125,0 0,156.6375 -56.845,0 0,-360 123.79625,0 c 29.055,0 48.0025,2.525 65.69125,11.3625 31.57875,15.1625 55.58125,53.0625 55.58125,89.6875 0,37.9 -24.0025,75.7875 -55.58125,89.6875 z"
           id="path23" />
        <path
           inkscape:connector-curvature="0"
           style="fill:#000000;fill-rule:nonzero;stroke:none"
           d="m 1125.3063,-783.58747 c -8.85,-5.0625 -13.9,-6.325 -32.85,-6.325 l -68.2125,0 0,88.425 68.2125,0 c 17.6875,0 24,-1.2625 32.85,-6.3125 13.9,-7.5875 22.7374,-22.7375 22.7374,-37.9 0,-15.15 -8.8374,-30.3125 -22.7374,-37.8875 z m 25.2625,296.8375 -58.1125,-156.6375 -68.2125,0 0,156.6375 -56.84255,0 0,-360 118.74255,0 c 27.7875,0 46.7375,2.525 64.425,11.3625 31.5875,15.1625 54.3125,53.0625 54.3125,89.6875 0,37.9 -22.725,75.7875 -55.575,90.95 l 63.1625,168 -61.9,0 z"
           id="path25" />
        <path
           inkscape:connector-curvature="0"
           style="fill:#000000;fill-rule:nonzero;stroke:none"
           d="m 682.9075,-486.74997 0,-360 211.93625,0 0,56.8375 -155.16875,0 0,88.425 104.70875,0 0,58.1 -104.70875,0 0,98.5375 166.52375,0 0,58.1 -223.29125,0 z"
           id="path27" />
        <path
           inkscape:connector-curvature="0"
           style="fill:#000000;fill-rule:nonzero;stroke:none"
           d="m 1469.9187,98.250064 -137.6875,-243.787504 0,243.787504 -56.85,0 0,-360.000034 56.85,0 131.375,229.900034 0,-229.900034 56.8376,0 0,360.000034 -50.5251,0 z"
           id="path29" />
        <path
           inkscape:connector-curvature="0"
           style="fill:#000000;fill-rule:nonzero;stroke:none"
           d="m 558.03375,-198.58747 c -8.84,-5.0625 -13.89375,-6.325 -32.8425,-6.325 l -68.215,0 0,88.42503 68.215,0 c 17.68625,0 24.0025,-1.2625 32.8425,-6.3125 13.89875,-7.575 22.7425,-22.7375 22.7425,-37.9 0,-15.15003 -8.84375,-30.31253 -22.7425,-37.88753 z M 583.3,98.250064 l -58.10875,-156.6375 -68.215,0 0,156.6375 -56.845,0 0,-360.000034 118.7425,0 c 27.79375,0 46.7425,2.525 64.42625,11.375 31.5825,15.15 54.32,53.05 54.32,89.67503 0,37.9 -22.7375,75.787504 -55.5825,90.950004 l 63.165,168 -61.9025,0 z"
           id="path31" />
        <path
           inkscape:connector-curvature="0"
           style="fill:#000000;fill-rule:nonzero;stroke:none"
           d="m 706.4,98.250064 0,-360.000034 211.93625,0 0,56.8375 -155.16875,0 0,88.42503 104.70875,0 0,58.100004 -104.70875,0 0,98.5375 166.525,0 0,58.1 -223.2925,0 z"
           id="path33" />
        <path
           inkscape:connector-curvature="0"
           style="fill:#000000;fill-rule:nonzero;stroke:none"
           d="m 990.89375,98.250064 0,-360.000034 211.93755,0 0,56.8375 -155.175,0 0,88.42503 104.7125,0 0,58.100004 -104.7125,0 0,98.5375 166.525,0 0,58.1 -223.28755,0 z"
           id="path35" />
        <path
           inkscape:connector-curvature="0"
           style="fill:#000000;fill-rule:nonzero;stroke:none"
           d="m 207.24,104.56256 c -54.3175,0 -85.90125,-20.212496 -107.37625,-65.674996 -15.15875,-31.5875 -24.00125,-75.8 -24.00125,-120 0,-58.112504 16.42125,-114.950034 40.4225,-146.537534 21.4775,-26.525 51.79375,-40.4125 92.21875,-40.4125 55.58375,0 88.42875,22.7375 112.4275,79.575 l -54.31875,21.475 c -15.15875,-31.575 -30.3175,-42.95 -58.10875,-42.95 -29.055,0 -48.005,12.6375 -60.63625,44.2125 -8.84375,21.47503 -13.8975,54.31253 -13.8975,84.637534 0,37.8875 6.31625,75.7875 17.68625,98.525 11.37,20.2 27.7925,29.05 49.2675,29.05 36.63375,0 63.16375,-22.7375 63.16375,-55.575 l 0,-15.1625 -65.69125,0 0,-56.8375 122.535,0 0,72 c 0,65.675 -48.00125,113.674996 -113.69125,113.674996 z"
           id="path37" />
        <path
           inkscape:connector-curvature="0"
           style="fill:#000000;fill-rule:nonzero;stroke:none"
           d="m 1063.0437,-1335.75 c -5.0749,-35.3625 -19.0374,-51.7875 -43.1375,-51.7875 -41.86245,0 -57.07745,32.8375 -57.07745,126.3125 0,103.5875 17.7525,145.2625 62.15245,145.2625 30.4501,0 38.0625,-25.2625 38.0625,-51.7875 l 52,0 c -1.2624,59.375 -39.3249,102.3125 -90.0625,102.3125 -77.3737,0 -111.62495,-61.8875 -111.62495,-194.525 0,-116.2125 36.7875,-178.1 107.82495,-178.1 29.175,0 54.5376,12.625 71.0376,36.625 13.95,17.6875 19.025,32.85 22.825,65.6875 l -52,0 z"
           id="path53" />
        <path
           inkscape:connector-curvature="0"
           style="fill:#000000;fill-rule:nonzero;stroke:none"
           d="m 265.17625,-1071.75 0,-360 169.755,0 0,50.525 -117.815,0 0,90.95 74.74375,0 0,49.2625 -74.74375,0 0,118.7375 131.75,0 0,50.525 -183.69,0 z"
           id="path55" />
        <path
           inkscape:connector-curvature="0"
           style="fill:#000000;fill-rule:nonzero;stroke:none"
           d="m 1421.1313,-1071.75 0,-360 169.7625,0 0,50.525 -117.8125,0 0,90.95 74.7375,0 0,49.2625 -74.7375,0 0,118.7375 131.75,0 0,50.525 -183.7,0 z"
           id="path57" />
        <path
           inkscape:connector-curvature="0"
           style="fill:#000000;fill-rule:nonzero;stroke:none"
           d="m 660.07375,-1071.75 0,-162.95 -98.3225,0 0,162.95 -51.685,0 0,-360 51.685,0 0,146.525 98.3225,0 0,-146.525 51.6825,0 0,360 -51.6825,0 z"
           id="path59" />
        <path
           inkscape:connector-curvature="0"
           style="fill:#000000;fill-rule:nonzero;stroke:none"
           d="m 790.95505,-1071.75 0,-360 50.4025,0 0,360 -50.4025,0 z"
           id="path61" />
        <path
           inkscape:connector-curvature="0"
           style="fill:#000000;fill-rule:nonzero;stroke:none"
           d="m 1187.0437,-1071.75 0,-360 51.9375,0 0,312 131.75,0 0,48 -183.6875,0 z"
           id="path63" />
        <path
           inkscape:connector-curvature="0"
           style="fill:#000000;fill-rule:nonzero;stroke:none"
           d="m 122.16125,-1071.75 -39.32875,0 -91.34625,-360 52.01625,0 59.62875,233.6875 59.62875,-233.6875 52.01625,0 -92.615,360 z"
           id="path65" />
      </g>
    </g>
  </g>
</svg>
