<?xml version="1.0" encoding="UTF-8" standalone="no"?>
<!-- Created with Inkscape (http://www.inkscape.org/) -->

<svg
   xmlns:dc="http://purl.org/dc/elements/1.1/"
   xmlns:cc="http://creativecommons.org/ns#"
   xmlns:rdf="http://www.w3.org/1999/02/22-rdf-syntax-ns#"
   xmlns:svg="http://www.w3.org/2000/svg"
   xmlns="http://www.w3.org/2000/svg"
   xmlns:sodipodi="http://sodipodi.sourceforge.net/DTD/sodipodi-0.dtd"
   xmlns:inkscape="http://www.inkscape.org/namespaces/inkscape"
   width="87.125"
   height="108.75"
   id="svg2"
   sodipodi:version="0.32"
   inkscape:version="0.48.2 r9819"
   version="1.0"
   sodipodi:docname="MUTCD R10-8.svg"
   inkscape:output_extension="org.inkscape.output.svg.inkscape">
  <defs
     id="defs4">
    <inkscape:perspective
       sodipodi:type="inkscape:persp3d"
       inkscape:vp_x="0 : 300.5 : 1"
       inkscape:vp_y="0 : 1000 : 0"
       inkscape:vp_z="601 : 300.5 : 1"
       inkscape:persp3d-origin="300.5 : 200.33333 : 1"
       id="perspective3380" />
    <inkscape:perspective
       id="perspective3990"
       inkscape:persp3d-origin="375 : 250 : 1"
       inkscape:vp_z="750 : 375 : 1"
       inkscape:vp_y="0 : 1000 : 0"
       inkscape:vp_x="0 : 375 : 1"
       sodipodi:type="inkscape:persp3d" />
  </defs>
  <sodipodi:namedview
     id="base"
     pagecolor="#ffffff"
     bordercolor="#666666"
     borderopacity="1.0"
     gridtolerance="10000"
     guidetolerance="10"
     objecttolerance="10"
     inkscape:pageopacity="0.0"
     inkscape:pageshadow="2"
     inkscape:zoom="3.639243"
     inkscape:cx="25.998518"
     inkscape:cy="54.96296"
     inkscape:document-units="px"
     inkscape:current-layer="layer1"
     width="601px"
     height="601px"
     inkscape:window-width="1280"
     inkscape:window-height="1004"
     inkscape:window-x="-8"
     inkscape:window-y="-8"
     showgrid="false"
     fit-margin-top="0"
     fit-margin-left="0"
     fit-margin-right="0"
     fit-margin-bottom="0"
     inkscape:window-maximized="1" />
  <metadata
     id="metadata7">
    <rdf:RDF>
      <cc:Work
         rdf:about="">
        <dc:format>image/svg+xml</dc:format>
        <dc:type
           rdf:resource="http://purl.org/dc/dcmitype/StillImage" />
        <dc:title></dc:title>
      </cc:Work>
    </rdf:RDF>
  </metadata>
  <g
     inkscape:label="Layer 1"
     inkscape:groupmode="layer"
     id="layer1"
     transform="translate(-3145.9688,7937.0312)">
    <rect
       style="color:#000000;fill:#000000;fill-opacity:1;fill-rule:nonzero;stroke:none;stroke-width:0.8735441;marker:none;visibility:visible;display:inline;overflow:visible"
       id="rect3653"
       width="0"
       height="27.202072"
       x="578.73834"
       y="298.1684"
       rx="249.48199"
       ry="27.202072" />
    <path
       inkscape:connector-curvature="0"
       d="m 3151.7196,-7936.6695 75.6225,0 c 2.975,0 5.4025,2.4262 5.4025,5.4012 l 0,97.2225 c 0,2.9738 -2.4275,5.4 -5.4025,5.4 l -75.6225,0 c -2.975,0 -5.4012,-2.4262 -5.4012,-5.4 l 0,-97.2225 c 0,-2.9375 2.4637,-5.4012 5.4012,-5.4012"
       style="fill:#ffffff;fill-opacity:1;fill-rule:nonzero;stroke:#000000;stroke-width:0.69999999;stroke-linecap:butt;stroke-linejoin:miter;stroke-miterlimit:4;stroke-opacity:1;stroke-dasharray:none"
       id="path13040" />
    <path
       inkscape:connector-curvature="0"
       style="fill:#000000;fill-opacity:1;fill-rule:evenodd;stroke:none"
       d="m 3151.75,-7935.3125 c -2.2213,0 -4.0913,1.8387 -4.0938,4.0625 l 0,97.1875 c 0.01,2.2262 1.8725,4.055 4.0938,4.0625 l 75.5625,0 c 2.2237,-0.01 4.085,-1.8363 4.0937,-4.0625 l 0,-97.1875 c -0.01,-2.2238 -1.87,-4.0588 -4.0937,-4.0625 l -75.5625,0 z m 0,2.25 75.5312,0 c 1.015,-0.015 1.8913,0.8275 1.875,1.8437 l 0,97.125 c 0.016,1.0138 -0.86,1.8613 -1.875,1.8438 l -75.5312,0 c -1.0138,0.018 -1.8588,-0.83 -1.8438,-1.8438 l 0,-97.125 c -0.015,-1.0175 0.83,-1.8588 1.8438,-1.8437 z"
       id="path13044" />
    <path
       inkscape:connector-curvature="0"
       d="m 3183.6521,-7907.427 -9.1763,-13.2225 0,13.2225 -3.3712,0 0,-19.2263 3.3712,0 8.8401,12.6838 0,-12.6838 3.3037,0 0,19.2263 -2.9675,0 z"
       style="fill:#000000;fill-opacity:1;fill-rule:nonzero;stroke:none"
       id="path13052" />
    <path
       inkscape:connector-curvature="0"
       d="m 3207.1271,-7917.1408 c 0,-5.87 -3.2375,-9.8487 -7.96,-9.8487 -5.06,0 -8.1625,3.7775 -8.1625,9.9162 0,4.8563 2.4962,9.985 8.1625,9.985 4.8575,0 7.96,-4.0487 7.96,-10.0525 m -3.4413,0.067 c 0,2.9675 -0.8762,6.5438 -4.5187,6.5438 -2.9,0 -4.6537,-2.4288 -4.6537,-6.5438 0,-4.0487 1.7537,-6.4762 4.6537,-6.4762 2.9013,0 4.5187,2.4275 4.5187,6.4762"
       style="fill:#000000;fill-opacity:1;fill-rule:nonzero;stroke:none"
       id="path13056" />
    <path
       inkscape:connector-curvature="0"
       d="m 3170.6309,-7897.1495 0,12.4487 -2.285,0 0,-12.4487 -3.3038,0 0,-2.0325 8.9425,0 0,2.0325 -3.3537,0 z"
       style="fill:#000000;fill-opacity:1;fill-rule:nonzero;stroke:none"
       id="path13060" />
    <path
       inkscape:connector-curvature="0"
       d="m 3185.2646,-7886.8858 c -0.7638,1.4225 -2.4887,2.4388 -4.2688,2.4388 -1.7787,0 -3.5074,-1.0163 -4.2687,-2.4388 -0.405,-0.8637 -0.6587,-1.88 -0.6587,-2.9975 l 0,-9.2987 2.2862,0 0,9.2987 c 0,1.88 1.0663,3.0988 2.6412,3.0988 1.5763,0 2.6426,-1.2188 2.6426,-3.0988 l 0,-9.2987 2.285,0 0,9.2987 c 0,1.1175 -0.2525,2.1338 -0.6588,2.9975"
       style="fill:#000000;fill-opacity:1;fill-rule:nonzero;stroke:none"
       id="path13064" />
    <path
       inkscape:connector-curvature="0"
       d="m 3199.1858,-7884.7008 -2.5387,-6.7587 c 1.3188,-0.6088 2.2338,-2.1338 2.2338,-3.6575 0,-1.4738 -0.915,-2.9975 -2.185,-3.6075 -0.7113,-0.3563 -1.4725,-0.4575 -2.5913,-0.4575 l -4.7775,0 0,14.4812 2.2888,0 0,-6.3 2.7425,0 2.3375,6.3 2.4899,0 z m -2.5899,-10.4162 c 0,0.6087 -0.3575,1.2187 -0.915,1.5237 -0.3563,0.2038 -0.6088,0.255 -1.3225,0.255 l -2.7425,0 0,-3.5575 2.7425,0 c 0.7624,0 0.9662,0.05 1.3225,0.2538 0.5575,0.305 0.915,0.915 0.915,1.525"
       style="fill:#000000;fill-opacity:1;fill-rule:nonzero;stroke:none"
       id="path13068" />
    <path
       inkscape:connector-curvature="0"
       d="m 3209.3996,-7884.7008 -5.54,-9.8075 0,9.8075 -2.285,0 0,-14.4812 2.285,0 5.285,9.2475 0,-9.2475 2.2875,0 0,14.4812 -2.0325,0 z"
       style="fill:#000000;fill-opacity:1;fill-rule:nonzero;stroke:none"
       id="path13072" />
    <path
       inkscape:connector-curvature="0"
       d="m 3187.3471,-7868.7908 c 0,-1.83 -0.3537,-3.6587 -0.9637,-4.9287 -0.9175,-1.7788 -2.1838,-2.5913 -4.015,-2.5913 -1.6763,0 -2.8476,0.5075 -3.7088,1.625 -0.9675,1.3725 -1.5763,3.5063 -1.5763,5.895 0,1.7275 0.4076,3.6575 1.0175,4.8775 0.8626,1.7775 2.1338,2.5913 4.1663,2.5913 1.5225,0 2.6938,-0.5075 3.5037,-1.625 1.0188,-1.2713 1.5763,-3.5575 1.5763,-5.8438 m -2.2863,0 c 0,1.1175 -0.2525,2.54 -0.5574,3.3025 -0.5088,1.27 -1.1701,1.8288 -2.2363,1.8288 -0.915,0 -1.5237,-0.355 -1.9812,-1.1175 -0.5613,-0.9138 -0.865,-2.49 -0.865,-4.0138 0,-1.22 0.2037,-2.5413 0.5612,-3.405 0.505,-1.27 1.2175,-1.8287 2.3363,-1.7775 0.8625,0.051 1.42,0.355 1.8812,1.1175 0.5575,0.965 0.8612,2.4387 0.8612,4.065"
       style="fill:#000000;fill-opacity:1;fill-rule:nonzero;stroke:none"
       id="path13076" />
    <path
       inkscape:connector-curvature="0"
       d="m 3198.3221,-7861.5758 -5.5387,-9.8075 0,9.8075 -2.2851,0 0,-14.4812 2.2851,0 5.2837,9.2475 0,-9.2475 2.2875,0 0,14.4812 -2.0325,0 z"
       style="fill:#000000;fill-opacity:1;fill-rule:nonzero;stroke:none"
       id="path13080" />
    <path
       inkscape:connector-curvature="0"
       d="m 3182.1396,-7838.9583 -2.54,-6.7575 c 1.3213,-0.61 2.2363,-2.1337 2.2363,-3.6587 0,-1.4738 -0.915,-2.9975 -2.185,-3.6075 -0.71,-0.3563 -1.475,-0.4576 -2.5901,-0.4576 l -4.7774,0 0,14.4813 2.2862,0 0,-6.3 2.7437,0 2.3376,6.3 2.4887,0 z m -2.59,-10.4162 c 0,0.61 -0.3562,1.22 -0.9175,1.525 -0.3537,0.2025 -0.6087,0.2537 -1.3188,0.2537 l -2.7437,0 0,-3.5562 2.7437,0 c 0.7613,0 0.9651,0.05 1.3188,0.2537 0.5613,0.3038 0.9175,0.915 0.9175,1.5238"
       style="fill:#000000;fill-opacity:1;fill-rule:nonzero;stroke:none"
       id="path13084" />
    <path
       inkscape:connector-curvature="0"
       d="m 3184.5259,-7838.9583 0,-14.4813 8.5387,0 0,2.2876 -6.25,0 0,3.5562 4.2175,0 0,2.3375 -4.2175,0 0,3.9625 6.7075,0 0,2.3375 -8.9962,0 z"
       style="fill:#000000;fill-opacity:1;fill-rule:nonzero;stroke:none"
       id="path13088" />
    <path
       inkscape:connector-curvature="0"
       d="m 3205.7659,-7846.2245 c 0,-2.845 -0.8625,-5.1313 -2.3863,-6.4525 -0.765,-0.61 -1.3225,-0.7626 -2.7975,-0.7626 l -4.6737,0 0,14.4813 4.4212,0 0.8125,0 c 0.7638,-0.051 1.525,-0.305 2.0825,-0.8125 1.6275,-1.2713 2.5413,-3.5575 2.5413,-6.4537 m -2.3375,0 c 0,1.9312 -0.4575,3.5062 -1.3188,4.3699 -0.4075,0.4063 -0.8662,0.5588 -1.6275,0.5588 l -2.2862,0 0,-9.8562 2.5912,0 c 0.6087,0 1.1188,0.2537 1.4738,0.6087 0.71,0.7625 1.1675,2.3888 1.1675,4.3188"
       style="fill:#000000;fill-opacity:1;fill-rule:nonzero;stroke:none"
       id="path13092" />
  </g>
</svg>
