<?xml version="1.0" encoding="UTF-8" standalone="no"?>
<!-- Created with Inkscape (http://www.inkscape.org/) -->

<svg
   xmlns:dc="http://purl.org/dc/elements/1.1/"
   xmlns:cc="http://creativecommons.org/ns#"
   xmlns:rdf="http://www.w3.org/1999/02/22-rdf-syntax-ns#"
   xmlns:svg="http://www.w3.org/2000/svg"
   xmlns="http://www.w3.org/2000/svg"
   xmlns:sodipodi="http://sodipodi.sourceforge.net/DTD/sodipodi-0.dtd"
   xmlns:inkscape="http://www.inkscape.org/namespaces/inkscape"
   id="svg2"
   inkscape:version="0.48.2 r9819"
   height="820"
   width="2170"
   version="1.1"
   sodipodi:docname="AJAX8.svg">
  <defs
     id="defs19" />
  <sodipodi:namedview
     id="base"
     fit-margin-left="0"
     inkscape:zoom="0.16367188"
     borderopacity="1.0"
     inkscape:current-layer="g3763"
     inkscape:cx="1933.8219"
     inkscape:cy="1767.9556"
     inkscape:window-maximized="1"
     showgrid="false"
     fit-margin-right="0"
     inkscape:document-units="px"
     bordercolor="#666666"
     inkscape:window-x="-8"
     inkscape:guide-bbox="true"
     inkscape:window-y="-8"
     fit-margin-bottom="0"
     inkscape:window-width="1280"
     inkscape:pageopacity="0.0"
     inkscape:pageshadow="2"
     pagecolor="#ffffff"
     showguides="true"
     inkscape:window-height="1004"
     fit-margin-top="0" />
  <metadata
     id="metadata7">
    <rdf:RDF>
      <cc:Work
         rdf:about="">
        <dc:format>image/svg+xml</dc:format>
        <dc:type
           rdf:resource="http://purl.org/dc/dcmitype/StillImage" />
        <dc:title></dc:title>
      </cc:Work>
    </rdf:RDF>
  </metadata>
  <g
     id="layer1"
     inkscape:label="Layer 1"
     inkscape:groupmode="layer"
     transform="translate(190.9922,465.04823)">
    <g
       id="g3012"
       transform="translate(109.60155,-54.548234)"
       stroke-miterlimit="4"
       style="fill:#0dadea;stroke-miterlimit:4;stroke-dasharray:none">
      <g
         id="g3763">
        <path
           inkscape:connector-curvature="0"
           style="fill:#ffffff;fill-rule:nonzero;stroke:#000000;stroke-width:10;stroke-linecap:butt;stroke-linejoin:miter;stroke-miterlimit:4;stroke-opacity:1;stroke-dasharray:none"
           d="m 1864.4063,269.5 c 0,74.5575 -60.4375,135 -135,135 l -1890.00005,0 c -74.55813,0 -135,-60.4425 -135,-135 l 0,-540 c 0,-74.5581 60.44188,-135 135,-135 l 1890.00005,0 c 74.5625,0 135,60.4419 135,135 l 0,540 z"
           id="path11" />
        <path
           inkscape:connector-curvature="0"
           style="fill:#000000;fill-rule:nonzero;stroke:none"
           d="m -160.59375,370.75 c -55.83012,0 -101.25,-45.42 -101.25,-101.25 l 0,-540 c 0,-55.8301 45.41988,-101.25 101.25,-101.25 l 1890.00005,0 c 55.825,0 101.25,45.4199 101.25,101.25 l 0,540 c 0,55.83 -45.425,101.25 -101.25,101.25 l -1890.00005,0 z"
           id="path13" />
        <path
           inkscape:connector-curvature="0"
           style="fill:#ffffff;fill-rule:nonzero;stroke:none"
           d="m -160.59375,314.5 c -24.81325,0 -45,-20.1862 -45,-45 l 0,-540 c 0,-24.8133 20.18675,-45 45,-45 l 1890.00005,0 c 24.8125,0 45,20.1867 45,45 l 0,540 c 0,24.8138 -20.1875,45 -45,45 l -1890.00005,0 z"
           id="path15" />
        <path
           inkscape:connector-curvature="0"
           style="fill:#000000;fill-rule:nonzero;stroke:none"
           d="m 23.635,-57.9737 -20.2075,94.7362 39.15125,0 L 23.635,-57.9737 z m 49.25375,237.4724 -20.20625,-96 -59.3575,0 -20.20625,96 -46.72875,0 73.25,-360 46.7275,0 74.5125,360 -47.99125,0 z"
           id="path17" />
        <path
           inkscape:connector-curvature="0"
           style="fill:#000000;fill-rule:nonzero;stroke:none"
           d="m 1357.8813,-57.9737 -20.2002,94.7362 39.1502,0 -18.95,-94.7362 z m 49.2625,237.4724 -20.2127,-96 -59.3498,0 -20.2127,96 -46.7248,0 73.25,-360 46.7248,0 74.5127,360 -47.9875,0 z"
           id="path19" />
        <path
           inkscape:connector-curvature="0"
           style="fill:#000000;fill-rule:nonzero;stroke:none"
           d="m 981.8688,144.1313 c -8.275,25.0549 -31.7363,41.6849 -64.7463,41.6849 -36.81625,0 -58.40125,-13.8937 -69.825,-48.0012 C 835.87,104.9737 832.06125,72.13 832.06125,-1.1313 c 0,-72 3.80875,-103.58 16.50375,-137.685 11.42625,-32.8424 33.01,-46.7362 68.5575,-46.7362 40.6213,0 64.7463,25.2625 69.8338,69.4725 l -45.7101,0 c -2.54,-15.1575 -10.1562,-22.7363 -22.85495,-22.7363 -16.50375,0 -27.92875,11.3688 -31.7375,35.3688 -5.07875,29.0525 -7.6175,53.0525 -7.6175,102.3162 0,49.2626 2.53875,73.2613 6.3475,103.5788 5.07875,24 13.965,36.6312 30.47125,36.6312 16.5037,0 25.3912,-15.1587 25.3912,-39.1574 l 0,-47.9988 -21.58495,0 0,-46.7388 67.29505,0 0,92.21 c 0,16.4213 -1.4375,35.7088 -5.0875,46.7376 z"
           id="path21" />
        <path
           inkscape:connector-curvature="0"
           style="fill:#000000;fill-rule:nonzero;stroke:none"
           d="m 716.85995,179.5 0,-360 46.8,0 0,360 -46.8,0 z"
           id="path23" />
        <path
           inkscape:connector-curvature="0"
           style="fill:#000000;fill-rule:nonzero;stroke:none"
           d="m 1505.5314,179.5 0,-360 45.2125,0 0,318.315 91.675,0 0,41.685 -136.8875,0 z"
           id="path25" />
        <path
           inkscape:connector-curvature="0"
           style="fill:#000000;fill-rule:nonzero;stroke:none"
           d="m 1171.2062,179.5 -70.5249,-213.4737 0,213.4737 -45.325,0 0,-360 45.325,0 64.225,179.3687 0,-179.3687 45.3375,0 0,360 -39.0376,0 z"
           id="path27" />
        <path
           inkscape:connector-curvature="0"
           style="fill:#000000;fill-rule:nonzero;stroke:none"
           d="m 641.56,24.1325 c 10.39,22.305 17.70125,53.0512 17.70125,78.315 0,25.2637 -11.38,51.79 -29.08,66.9487 -11.38,10.105 -27.50375,16.4213 -46.46875,16.4213 -50.57375,0 -76.81375,-32.8425 -79.34125,-96.0013 l 46.78,0 c 0,13.8938 1.26375,18.9475 3.79375,26.5263 3.7925,13.8963 14.85875,22.7362 28.7675,22.7362 17.7,0 28.76625,-13.8937 28.76625,-36.6312 0,-31.5788 -11.06625,-58.105 -38.88,-90.9463 -16.43875,-18.9487 -27.505,-32.8425 -31.2975,-37.895 -20.23,-24 -29.08,-49.2637 -29.08,-74.5262 0,-49.2638 30.03125,-84.6325 73.01875,-84.6325 44.25375,0 67.96375,27.7888 73.02125,84.6325 l -46.7825,0 c -1.26375,-27.79 -8.5375,-39.1587 -24.97375,-39.1587 -17.70125,0 -27.5025,15.1587 -27.5025,39.1587 0,16.4212 6.00875,29.0525 24.975,49.2625 39.195,44.21 45.84625,52.7437 56.5825,75.79 z"
           id="path29" />
        <path
           inkscape:connector-curvature="0"
           style="fill:#000000;fill-rule:nonzero;stroke:none"
           d="m 232.375,-133.7625 0,313.2637 -45.42125,0 0,-313.2637 -44.47375,0 0,-46.7375 136.89125,0 0,46.7375 -46.99625,0 z"
           id="path31" />
      </g>
    </g>
  </g>
</svg>
