<?xml version="1.0" encoding="UTF-8" standalone="no"?>
<!-- Created with Inkscape (http://www.inkscape.org/) -->

<svg
   xmlns:dc="http://purl.org/dc/elements/1.1/"
   xmlns:cc="http://creativecommons.org/ns#"
   xmlns:rdf="http://www.w3.org/1999/02/22-rdf-syntax-ns#"
   xmlns:svg="http://www.w3.org/2000/svg"
   xmlns="http://www.w3.org/2000/svg"
   xmlns:sodipodi="http://sodipodi.sourceforge.net/DTD/sodipodi-0.dtd"
   xmlns:inkscape="http://www.inkscape.org/namespaces/inkscape"
   width="1090"
   height="1630"
   id="svg2"
   version="1.1"
   inkscape:version="0.48.2 r9819"
   sodipodi:docname="AJAX1.svg">
  <defs
     id="defs4" />
  <sodipodi:namedview
     id="base"
     pagecolor="#ffffff"
     bordercolor="#666666"
     borderopacity="1.0"
     inkscape:pageopacity="0.0"
     inkscape:pageshadow="2"
     inkscape:zoom="0.28868013"
     inkscape:cx="551.68023"
     inkscape:cy="341.25453"
     inkscape:document-units="px"
     inkscape:current-layer="g4166"
     showgrid="false"
     fit-margin-top="0"
     fit-margin-left="0"
     fit-margin-right="0"
     fit-margin-bottom="0"
     inkscape:window-width="1280"
     inkscape:window-height="1004"
     inkscape:window-x="-8"
     inkscape:window-y="-8"
     inkscape:window-maximized="1" />
  <metadata
     id="metadata7">
    <rdf:RDF>
      <cc:Work
         rdf:about="">
        <dc:format>image/svg+xml</dc:format>
        <dc:type
           rdf:resource="http://purl.org/dc/dcmitype/StillImage" />
        <dc:title />
      </cc:Work>
    </rdf:RDF>
  </metadata>
  <g
     inkscape:label="Layer 1"
     inkscape:groupmode="layer"
     id="layer1"
     transform="translate(-176.0625,1021.9375)">
    <g
       id="g4166">
      <g
         id="text3008"
         style="font-size:78.91298676px;font-style:normal;font-weight:normal;line-height:125%;letter-spacing:0px;word-spacing:0px;fill:#000000;fill-opacity:1;stroke:none;font-family:Sans"
         transform="scale(0.98847113,1.0116633)">
        <g
           id="text3015"
           style="font-size:78.54236603px;line-height:125%;fill:#000000;font-family:Sans"
           transform="scale(0.98353261,1.0167431)">
          <text
             transform="scale(1.0286017,0.97219363)"
             sodipodi:linespacing="125%"
             id="text3273"
             y="587.81366"
             x="428.17328"
             style="font-size:40px;font-style:normal;font-weight:normal;line-height:125%;letter-spacing:0px;word-spacing:0px;fill:#000000;fill-opacity:1;stroke:none;font-family:Sans"
             xml:space="preserve"><tspan
               id="tspan3275"
               sodipodi:role="line"
               x="428.17328"
               y="587.81366" /></text>
        </g>
      </g>
      <path
         inkscape:connector-curvature="0"
         style="fill:#ffffff;fill-rule:nonzero;stroke:#000000;stroke-width:10;stroke-linecap:butt;stroke-linejoin:miter;stroke-miterlimit:4;stroke-opacity:1;stroke-dasharray:none"
         d="m 1261.053,468.07616 c 0,74.5625 -60.4425,135 -135,135 l -810.00004,0 c -74.55812,0 -135,-60.4375 -135,-135 l 0,-1350 c 0,-74.55813 60.44188,-134.99996 135,-134.99996 l 810.00004,0 c 74.5575,0 135,60.44183 135,134.99996 l 0,1350 z"
         id="path11" />
      <path
         inkscape:connector-curvature="0"
         style="fill:#000000;fill-rule:nonzero;stroke:none"
         d="m 316.05296,569.32616 c -55.83013,0 -101.25,-45.425 -101.25,-101.25 l 0,-1350 c 0,-55.83013 45.41987,-101.25 101.25,-101.25 l 810.00004,0 c 55.83,0 101.25,45.41987 101.25,101.25 l 0,1350 c 0,55.825 -45.42,101.25 -101.25,101.25 l -810.00004,0 z"
         id="path13" />
      <path
         inkscape:connector-curvature="0"
         style="fill:#ffffff;fill-rule:nonzero;stroke:none"
         d="m 316.05296,535.57616 c -37.2205,0 -67.5,-30.275 -67.5,-67.5 l 0,-1350 c 0,-37.2205 30.2795,-67.5 67.5,-67.5 l 810.00004,0 c 37.2187,0 67.5,30.2795 67.5,67.5 l 0,1350 c 0,37.225 -30.2813,67.5 -67.5,67.5 l -810.00004,0 z"
         id="path15" />
      <path
         inkscape:connector-curvature="0"
         style="fill:#006649;fill-rule:nonzero;stroke:none"
         d="m 856.05296,333.07616 c 0,74.5625 -60.4425,135 -135.00125,135 -74.5575,0 -134.99875,-60.4375 -134.99875,-135 0,-74.5625 60.44125,-134.99875 134.99875,-134.99875 74.55875,0 135.00125,60.43625 135.00125,134.99875 z"
         id="path17" />
      <path
         inkscape:connector-curvature="0"
         style="fill:#000000;fill-rule:nonzero;stroke:none"
         d="m 840.80171,-139.42384 -68.8475,-121.895 0,121.895 -28.42375,0 0,-180.00005 28.42375,0 65.6875,114.94875 0,-114.94875 28.42375,0 0,180.00005 -25.26375,0 z"
         id="path19" />
      <path
         inkscape:connector-curvature="0"
         style="fill:#000000;fill-rule:nonzero;stroke:none"
         d="m 664.67671,-279.41394 c -5.6975,-9.4725 -12.66125,-13.2612 -23.425,-13.8937 -13.92875,-0.6325 -22.7925,6.3162 -29.12375,22.1038 -4.4325,10.7375 -6.96375,27.1587 -6.96375,42.3175 0,18.9475 3.7975,38.525 10.76125,49.895 5.7,9.4724 13.29625,13.8937 24.6925,13.8937 13.29625,0 21.52625,-6.9487 27.8575,-22.7375 3.8,-9.4725 6.965,-27.1575 6.965,-41.0512 0,-20.21 -3.79875,-38.5263 -10.76375,-50.5276 z m 19.6275,123.1588 c -10.13125,13.8937 -24.6925,20.21 -43.68625,20.21 -25.32375,0 -41.15375,-10.105 -51.91625,-32.2087 -7.59625,-15.1588 -12.66125,-39.1588 -12.66125,-60.6325 0,-29.685 7.59625,-56.2113 19.62625,-73.2638 10.76375,-13.89375 25.325,-20.21 46.2175,-20.21 22.7925,0 38.6225,10.105 50.0175,32.2112 7.59625,15.7888 12.02875,38.525 12.02875,61.2626 0,28.42 -6.965,56.84 -19.62625,72.6312 z"
         id="path21" />
      <path
         inkscape:connector-curvature="0"
         style="fill:#000000;fill-rule:nonzero;stroke:none"
         d="m 680.53171,-409.42264 -68.8475,-121.89625 0,121.89625 -28.4225,0 0,-180.00125 28.4225,0 65.68875,114.94875 0,-114.94875 28.4225,0 0,180.00125 -25.26375,0 z"
         id="path23" />
      <path
         inkscape:connector-curvature="0"
         style="fill:#000000;fill-rule:nonzero;stroke:none"
         d="m 504.40921,-549.41264 c -5.69875,-9.47375 -12.6625,-13.2625 -23.42625,-13.89375 -13.92875,-0.6325 -22.7925,6.31375 -29.1225,22.10375 -4.4325,10.7375 -6.965,27.15875 -6.965,42.31625 0,18.9475 3.7975,38.52625 10.7625,49.895 5.69875,9.47375 13.295,13.895 24.6925,13.895 13.295,0 21.525,-6.94875 27.8575,-22.7375 3.79875,-9.47375 6.96375,-27.1575 6.96375,-41.0525 0,-20.21 -3.79875,-38.52625 -10.7625,-50.52625 z m 19.62625,123.1575 c -10.13125,13.895 -24.6925,20.21125 -43.685,20.21125 -25.325,0 -41.15375,-10.10625 -51.9175,-32.21 -7.59625,-15.15875 -12.66125,-39.15875 -12.66125,-60.6325 0,-29.68375 7.5975,-56.21 19.6275,-73.26375 10.7625,-13.895 25.32375,-20.21 46.21625,-20.21 22.79375,0 38.62125,10.105 50.0175,32.21125 7.59625,15.78875 12.02875,38.52625 12.02875,61.2625 0,28.42125 -6.96375,56.84125 -19.62625,72.63125 z"
         id="path25" />
      <path
         inkscape:connector-curvature="0"
         style="fill:#000000;fill-rule:nonzero;stroke:none"
         d="m 748.99671,-409.42264 0,-180.0025 28.385,0 0,153.47625 83.26125,0 0,26.52625 -111.64625,0 z"
         id="path27" />
      <path
         inkscape:connector-curvature="0"
         style="fill:#000000;fill-rule:nonzero;stroke:none"
         d="m 963.48671,-487.73889 0,78.315 -28.56375,0 0,-78.315 -63.47875,-101.685 34.27625,0 43.1675,69.47375 43.80125,-69.47375 33.64499,0 -62.84749,101.685 z"
         id="path29" />
      <path
         inkscape:connector-curvature="0"
         style="fill:#000000;fill-rule:nonzero;stroke:none"
         d="m 756.54671,-819.41389 c -5.69875,-9.47375 -12.66375,-13.2625 -23.42625,-13.89375 -13.92875,-0.6325 -22.7925,6.315 -29.12375,22.105 -4.43125,10.7375 -6.96375,27.1575 -6.96375,42.315 0,18.9475 3.7975,38.52625 10.7625,49.895 5.69875,9.47375 13.29375,13.895 24.69,13.895 13.29625,0 21.52625,-6.9475 27.86,-22.73625 3.79875,-9.47375 6.9625,-27.15875 6.9625,-41.05375 0,-20.21 -3.79875,-38.525 -10.76125,-50.52625 z m 19.62625,123.15875 c -10.1325,13.895 -24.6925,20.21125 -43.6875,20.21125 -25.3225,0 -41.15125,-10.10625 -51.915,-32.21125 -7.59625,-15.15875 -12.66125,-39.1575 -12.66125,-60.6325 0,-29.68375 7.5975,-56.21 19.62875,-73.2625 10.76125,-13.895 25.3225,-20.21 46.215,-20.21 22.79375,0 38.62125,10.105 50.0175,32.21 7.595,15.78875 12.02875,38.52625 12.02875,61.2625 0,28.4225 -6.965,56.8425 -19.62625,72.6325 z"
         id="path31" />
      <path
         inkscape:connector-curvature="0"
         style="fill:#000000;fill-rule:nonzero;stroke:none"
         d="m 597.32546,-827.84389 c -4.42125,-2.5275 -6.9475,-3.15875 -16.42125,-3.15875 l -34.1075,0 0,44.21 34.1075,0 c 8.8425,0 12,-0.63 16.42125,-3.15625 6.94875,-3.79 11.37,-11.37 11.37,-18.9475 0,-7.58 -4.42125,-15.15875 -11.37,-18.9475 z m 12.6325,148.42 -29.05375,-78.31625 -34.1075,0 0,78.31625 -28.42375,0 0,-180 59.3725,0 c 13.89625,0 23.37125,1.26375 32.2125,5.685 15.79125,7.57875 27.16125,26.52625 27.16125,44.8425 0,18.9475 -11.37,37.89375 -27.7925,45.47375 l 31.5825,83.99875 -30.95125,0 z"
         id="path33" />
      <path
         inkscape:connector-curvature="0"
         style="fill:#000000;fill-rule:nonzero;stroke:none"
         d="m 927.64671,-690.38139 c -10.105,8.8425 -24.00125,13.895 -39.16,13.895 -30.94875,0 -53.68625,-18.315 -65.68875,-45.47375 l 27.16125,-10.105 c 7.57875,17.0525 21.475,26.52625 38.5275,26.52625 16.42375,0 27.79125,-11.36875 27.79125,-26.52625 0,-24 -27.79125,-27.78875 -51.1625,-37.2625 -10.735,-4.42125 -34.73625,-15.1575 -34.73625,-44.8425 0,-35.36875 24.00125,-48.6325 56.21375,-48.6325 25.26375,0 42.31875,14.52625 51.15875,36.6325 l -25.26375,7.57875 c 0,0 -6.315,-15.1575 -26.5275,-15.78875 -13.265,-0.6325 -29.055,4.42 -27.79125,20.84125 2.5275,33.47375 87.16375,11.36875 87.16375,82.105 0,16.42125 -6.31625,30.9475 -17.68625,41.0525 z"
         id="path35" />
      <path
         inkscape:connector-curvature="0"
         style="fill:#000000;fill-rule:nonzero;stroke:none"
         d="m 1068.1817,-690.38139 c -10.105,8.8425 -24.0012,13.895 -39.16,13.895 -30.94999,0 -53.68624,-18.315 -65.68874,-45.47375 l 27.16125,-10.105 c 7.5775,17.0525 21.47379,26.52625 38.52749,26.52625 16.4238,0 27.79,-11.36875 27.79,-26.52625 0,-24 -27.79,-27.78875 -51.1612,-37.2625 -10.73504,-4.42125 -34.73629,-15.1575 -34.73629,-44.8425 0,-35.36875 24.00125,-48.6325 56.21249,-48.6325 25.2638,0 42.32,14.52625 51.16,36.6325 l -25.2637,7.57875 c 0,0 -6.3163,-15.1575 -26.5275,-15.78875 -13.265,-0.6325 -29.05629,4.42 -27.79129,20.84125 2.52749,33.47375 87.16379,11.36875 87.16379,82.105 0,16.42125 -6.3163,30.9475 -17.6863,41.0525 z"
         id="path37" />
      <path
         inkscape:connector-curvature="0"
         style="fill:#000000;fill-rule:nonzero;stroke:none"
         d="m 424.45421,-676.26514 c -26.52875,0 -43.5825,-10.10625 -54.95125,-32.21125 -8.21125,-15.79 -13.265,-38.52625 -13.265,-61.2625 0,-28.4225 7.58,-56.84375 20.2125,-72.6325 10.7375,-13.2625 25.89625,-20.21 46.10875,-20.21 27.16,0 44.21375,11.36875 56.215,36.63125 l -26.52875,11.36875 c -10.10625,-15.1575 -15.79125,-18.94875 -29.68625,-18.94875 -14.5275,0 -24.00125,6.31625 -30.3175,22.10625 -4.42125,10.7375 -6.9475,26.5275 -6.9475,41.685 0,19.57875 4.42125,39.1575 11.36875,50.525 6.31625,9.475 14.52625,13.89625 27.16,13.89625 12,0 20.84375,-6.31625 27.79125,-20.8425 l 27.16,10.105 c -10.7375,26.5275 -28.42375,39.79 -54.32,39.79 z"
         id="path39" />
      <path
         inkscape:connector-curvature="0"
         style="fill:#000000;fill-rule:nonzero;stroke:none"
         d="M 1056.9367,130.57616 988.08921,8.6811567 l 0,121.8950033 -28.4225,0 0,-180.000003 28.4225,0 65.68879,114.9487 0,-114.9487 28.4225,0 0,180.000003 -25.2638,0 z"
         id="path41" />
      <path
         inkscape:connector-curvature="0"
         style="fill:#000000;fill-rule:nonzero;stroke:none"
         d="m 600.99171,-17.843843 c -4.42,-2.5276 -6.94625,-3.1575 -16.4225,-3.1575 l -34.1075,0 0,44.2087 34.1075,0 c 8.845,0 12.0025,-0.6287 16.4225,-3.1562 6.95,-3.7888 11.37125,-11.3700003 11.37125,-18.9475003 0,-7.5788 -4.42125,-15.1587997 -11.37125,-18.9474997 z m 12.63375,148.420003 -29.05625,-78.315003 -34.1075,0 0,78.315003 -28.42125,0 0,-180.000003 59.37125,0 c 13.89625,0 23.37,1.265 32.21375,5.6862 15.79,7.5775 27.15875,26.5275 27.15875,44.8412997 0,18.9475003 -11.36875,37.8950003 -27.79,45.4737003 l 31.58125,83.998803 -30.95,0 z"
         id="path43" />
      <path
         inkscape:connector-curvature="0"
         style="fill:#000000;fill-rule:nonzero;stroke:none"
         d="m 817.42046,130.57616 0,-180.000003 105.96625,0 0,28.42 -77.5825,0 0,44.2112 52.35375,0 0,29.0538 -52.35375,0 0,49.262403 83.26125,0 0,29.0526 -111.645,0 z"
         id="path45" />
      <path
         inkscape:connector-curvature="0"
         style="fill:#000000;fill-rule:nonzero;stroke:none"
         d="m 675.17421,130.57616 0,-180.000003 105.96875,0 0,28.42 -77.585,0 0,44.2112 52.35625,0 0,29.0538 -52.35625,0 0,49.262403 83.26125,0 0,29.0526 -111.645,0 z"
         id="path47" />
      <path
         inkscape:connector-curvature="0"
         style="fill:#000000;fill-rule:nonzero;stroke:none"
         d="m 425.59421,133.73486 c -27.16125,0 -42.9525,-10.1075 -53.68875,-32.8437 -7.57875,-15.788803 -12,-37.892503 -12,-60.000003 0,-29.0525 8.21,-57.4738 20.21,-73.2613 10.74,-13.265 25.89875,-20.21 46.11125,-20.21 27.79,0 44.21375,11.3663 56.2125,39.79 l -27.16,10.7362997 c -7.57875,-15.7899997 -15.15875,-21.4762997 -29.0525,-21.4762997 -14.52875,0 -24.00375,6.3163 -30.32,22.1062997 -4.42125,10.7374 -6.94875,27.1587003 -6.94875,42.3150003 0,18.9475 3.16,37.895 8.8425,49.265 5.68625,10.105003 13.8975,14.526203 24.63375,14.526203 18.31875,0 31.5825,-11.370003 31.5825,-27.790003 l 0,-7.5788 -32.84375,0 0,-28.4224 61.26625,0 0,36.0012 c 0,32.841303 -24.00125,56.842503 -56.845,56.842503 z"
         id="path49" />
    </g>
  </g>
</svg>
