<?xml version="1.0" encoding="UTF-8" standalone="no"?>
<!-- Created with Inkscape (http://www.inkscape.org/) -->

<svg
   xmlns:dc="http://purl.org/dc/elements/1.1/"
   xmlns:cc="http://creativecommons.org/ns#"
   xmlns:rdf="http://www.w3.org/1999/02/22-rdf-syntax-ns#"
   xmlns:svg="http://www.w3.org/2000/svg"
   xmlns="http://www.w3.org/2000/svg"
   xmlns:sodipodi="http://sodipodi.sourceforge.net/DTD/sodipodi-0.dtd"
   xmlns:inkscape="http://www.inkscape.org/namespaces/inkscape"
   width="820"
   height="1090"
   id="svg2"
   version="1.1"
   inkscape:version="0.48.2 r9819"
   sodipodi:docname="AJAX3.svg">
  <defs
     id="defs4" />
  <sodipodi:namedview
     id="base"
     pagecolor="#ffffff"
     bordercolor="#666666"
     borderopacity="1.0"
     inkscape:pageopacity="0.0"
     inkscape:pageshadow="2"
     inkscape:zoom="0.28868013"
     inkscape:cx="25.508479"
     inkscape:cy="355.47328"
     inkscape:document-units="px"
     inkscape:current-layer="g4166"
     showgrid="false"
     fit-margin-top="0"
     fit-margin-left="0"
     fit-margin-right="0"
     fit-margin-bottom="0"
     inkscape:window-width="1280"
     inkscape:window-height="1004"
     inkscape:window-x="-8"
     inkscape:window-y="-8"
     inkscape:window-maximized="1" />
  <metadata
     id="metadata7">
    <rdf:RDF>
      <cc:Work
         rdf:about="">
        <dc:format>image/svg+xml</dc:format>
        <dc:type
           rdf:resource="http://purl.org/dc/dcmitype/StillImage" />
        <dc:title></dc:title>
      </cc:Work>
    </rdf:RDF>
  </metadata>
  <g
     inkscape:label="Layer 1"
     inkscape:groupmode="layer"
     id="layer1"
     transform="translate(-161.84375,467.71875)">
    <g
       id="g4166">
      <g
         id="text3008"
         style="font-size:78.91298676px;font-style:normal;font-weight:normal;line-height:125%;letter-spacing:0px;word-spacing:0px;fill:#000000;fill-opacity:1;stroke:none;font-family:Sans"
         transform="scale(0.98847113,1.0116633)">
        <g
           id="text3015"
           style="font-size:78.54236603px;line-height:125%;fill:#000000;font-family:Sans"
           transform="scale(0.98353261,1.0167431)">
          <text
             transform="scale(1.0286017,0.97219363)"
             sodipodi:linespacing="125%"
             id="text3273"
             y="587.81366"
             x="428.17328"
             style="font-size:40px;font-style:normal;font-weight:normal;line-height:125%;letter-spacing:0px;word-spacing:0px;fill:#000000;fill-opacity:1;stroke:none;font-family:Sans"
             xml:space="preserve"><tspan
               id="tspan3275"
               sodipodi:role="line"
               x="428.17328"
               y="587.81366" /></text>
        </g>
      </g>
      <path
         inkscape:connector-curvature="0"
         style="fill:#ffffff;fill-rule:nonzero;stroke:#000000;stroke-width:10;stroke-linecap:butt;stroke-linejoin:miter;stroke-miterlimit:4;stroke-opacity:1;stroke-dasharray:none"
         d="m 976.84375,482.28125 c 0,74.55745 -60.4425,135.00005 -135,135.00005 l -540,0 c -74.55938,0 -135,-60.4426 -135,-135.00005 l 0,-810 c 0,-74.55937 60.44062,-135 135,-135 l 540,0 c 74.5575,0 135,60.44063 135,135 l 0,810 z"
         id="path11" />
      <path
         inkscape:connector-curvature="0"
         style="fill:#006649;fill-rule:nonzero;stroke:none"
         d="m 661.84375,358.53125 c 0,49.705 -40.295,90 -90,90 -49.705,0 -90,-40.295 -90,-90 0,-49.705 40.295,-90 90,-90 49.705,0 90,40.295 90,90 z"
         id="path55" />
      <path
         inkscape:connector-curvature="0"
         style="fill:#000000;fill-rule:nonzero;stroke:none"
         d="m 909.34375,482.2813 c 0,37.21875 -30.28125,67.5 -67.5,67.5 l -540,0 c -37.2205,0 -67.5,-30.28125 -67.5,-67.5 l 0,-810 c 0,-37.2205 30.2795,-67.5 67.5,-67.5 l 540,0 c 37.21875,0 67.5,30.2795 67.5,67.5 l 0,810 z m -67.5,-911.25 -540,0 c -55.83013,0 -101.25,45.41988 -101.25,101.25 l 0,810 c 0,55.83 45.41987,101.25 101.25,101.25 l 540,0 c 55.83,0 101.25,-45.42 101.25,-101.25 l 0,-810 c 0,-55.83012 -45.42,-101.25 -101.25,-101.25 z"
         id="path13" />
      <path
         inkscape:connector-curvature="0"
         style="fill:#000000;fill-rule:nonzero;stroke:none"
         d="m 320.48,-35.2187 0,-184.8075 41.57625,0 0,-59.475 12.9125,-2.8375 0,-15.58125 -14.34125,-5.65625 0,-8.49375 -40.1475,0 0,-26.89875 -18.63625,0 0,303.75 18.63625,0 z"
         id="path15" />
      <path
         inkscape:connector-curvature="0"
         style="fill:#000000;fill-rule:nonzero;stroke:none"
         d="m 841.84375,-299.53245 c 0,0 -83.41,7.05375 -156.73125,-45.78762 -4.54875,-0.72988 -9.3675,-3.15551 -13.2175,-3.39963 -39.17875,8.52537 -71.16375,-12.6635 -92.54125,-23.85738 -19.22625,-2.92599 -14.67125,40.40713 8.39875,46.25963 -22.8175,2.4425 -181.46375,18.01875 -181.46375,18.01875 0,0 -14.92375,1.94375 -14.4325,13.635 0.2975,7.31 1.91875,16.0775 12.2475,16.0775 l 125.25625,0 c 0,0 0.24,11.68 10.3325,20.7025 12.0225,6.32625 29.31375,13.62063 30.0475,31.39563 9.61375,9.01125 37.01375,19.47625 41.8175,38.48125 8.66625,13.87875 37.7425,15.57499 48.55375,17.78875 8.17375,-1.4725 15.63375,-2.56876 25.9625,-3.65376 62.74875,-26.2975 155.77,-30.21374 155.77,-30.21374 l 0,-95.44688 z"
         id="path17" />
      <path
         inkscape:connector-curvature="0"
         style="fill:#000000;fill-rule:nonzero;stroke:none"
         d="m 601.79,-65.7712 -9.69,0 0,21.07875 9.69,0 c 5.4375,0 8.9825,-3.79 8.9825,-9.71 0,-6.395 -4.01875,-11.36875 -8.9825,-11.36875 z m 0.47375,-27.47375 -10.16375,0 0,18 10.16375,0 c 4.49,0 7.32625,-3.79 7.32625,-9.9475 0,-5.68375 -2.12625,-8.0525 -7.32625,-8.0525 z m 0,58.02625 -19.85625,0 0,-67.5 21.2725,0 c 8.98125,0 15.36375,7.105 15.36375,17.52625 0,6.1575 -1.6525,9 -7.09,14.685 5.2,4.2625 8.27125,9.9475 8.27125,16.815 0,10.185 -8.035,18.47375 -17.96125,18.47375 z"
         id="path19" />
      <path
         inkscape:connector-curvature="0"
         style="fill:#000000;fill-rule:nonzero;stroke:none"
         d="m 527.7175,-35.2187 0,-30.5525 -18.435,0 0,30.5525 -9.6925,0 0,-67.5 9.6925,0 0,27.47375 18.435,0 0,-27.47375 9.69,0 0,67.5 -9.69,0 z"
         id="path21" />
      <path
         inkscape:connector-curvature="0"
         style="fill:#000000;fill-rule:nonzero;stroke:none"
         d="m 834.5175,-35.2187 -20.79875,-45.23625 0,45.23625 -9.69,0 0,-67.5 9.69,0 18.435,40.5 0,-40.5 9.69,0 0,67.5 -7.32625,0 z"
         id="path23" />
      <path
         inkscape:connector-curvature="0"
         style="fill:#000000;fill-rule:nonzero;stroke:none"
         d="m 781.7775,-85.90245 c -1.67,-5.92125 -4.29375,-8.5275 -8.35125,-8.5275 -4.295,0 -6.9175,2.60625 -8.5875,8.29 -1.66875,5.21125 -2.1475,9.71125 -2.1475,17.29 0,7.34125 0.715,11.605 2.1475,17.0525 1.67,5.68375 4.2925,8.29 8.5875,8.29 4.0575,0 6.68125,-2.60625 8.35125,-8.29 1.67,-5.4475 2.14625,-9.47375 2.14625,-17.29 0,-7.57875 -0.715,-11.84125 -2.14625,-16.815 z m 7.635,40.2625 c -3.34,8.0525 -8.35,11.60625 -15.98625,11.60625 -8.11125,0 -12.88125,-3.55375 -16.22125,-11.60625 -2.86375,-6.63125 -3.81875,-13.02625 -3.81875,-23.4475 0,-10.18375 0.955,-17.0525 3.81875,-23.4475 3.57625,-8.0525 8.35,-11.3675 16.22125,-11.3675 7.8725,0 12.64625,3.315 15.98625,11.605 2.86125,6.63125 3.815,13.02625 3.815,23.21 0,10.42125 -0.95375,17.0525 -3.815,23.4475 z"
         id="path25" />
      <path
         inkscape:connector-curvature="0"
         style="fill:#000000;fill-rule:nonzero;stroke:none"
         d="m 376.59875,-93.24495 -9.9275,0 0,19.18375 9.9275,0 c 5.6725,0 8.745,-3.5525 8.745,-9.71 0,-5.685 -3.54625,-9.47375 -8.745,-9.47375 z m 0.4725,28.42125 -10.4,0 0,29.605 -9.69125,0 0,-67.5 20.09125,0 c 10.635,0 17.72625,7.57875 17.72625,18.9475 0,12.315 -6.38125,18.9475 -17.72625,18.9475 z"
         id="path27" />
      <path
         inkscape:connector-curvature="0"
         style="fill:#000000;fill-rule:nonzero;stroke:none"
         d="m 471.815,-66.38995 c -2.92,-1.89375 -5.755,-3.79125 -7.56625,-5.06625 -5.4425,-3.83 -8.32375,-8.99875 -8.32375,-14.92 0,-9.71125 7.61125,-17.52625 17.36125,-17.52625 9.515,0 16.8875,7.34125 17.125,17.52625 l -9.275,0 c -0.2375,-4.7375 -3.5675,-7.81625 -7.85,-7.81625 -4.51875,0 -8.085,3.31625 -8.085,7.81625 0,3.315 1.425,5.21 6.42,8.0525 13.08125,7.57875 18.79,14.92125 18.79,24.63125 0,10.89625 -8.32375,19.65875 -18.79,19.65875 -11.89125,0 -19.025,-9.9475 -19.025,-21.08 l 9.51125,0 c 0,5.68375 2.855,11.60625 9.51375,11.60625 5.23375,0 9.515,-4.7375 9.515,-10.185 0,-4.23 -1.74875,-7.7925 -9.32125,-12.6975 z"
         id="path29" />
      <path
         inkscape:connector-curvature="0"
         style="fill:#000000;fill-rule:nonzero;stroke:none"
         d="m 696.8725,-93.7187 0,58.5 -9.73875,0 0,-58.5 -12.35,0 0,-9 34.44,0 0,9 -12.35125,0 z"
         id="path31" />
      <path
         inkscape:connector-curvature="0"
         style="fill:#000000;fill-rule:nonzero;stroke:none"
         d="m 734.55625,-93.7187 0,58.5 -9.73875,0 0,-58.5 -12.35375,0 0,-9 34.44375,0 0,9 -12.35125,0 z"
         id="path33" />
      <path
         inkscape:connector-curvature="0"
         style="fill:#000000;fill-rule:nonzero;stroke:none"
         d="m 440.815,-43.50745 c -3.31,5.4475 -9.69125,9.47375 -16.07375,9.47375 -6.61625,0 -13.235,-3.79 -16.54375,-9.47375 -1.89125,-3.55375 -2.6,-6.39625 -2.6,-11.8425 l 0,-47.36875 9.69125,0 0,48.5525 c 0,6.395 3.78125,10.65875 9.4525,10.65875 5.20125,0 8.9825,-4.26375 8.9825,-10.65875 l 0,-48.5525 9.69125,0 0,47.36875 c 0,5.44625 -0.71,8.28875 -2.6,11.8425 z"
         id="path35" />
      <path
         inkscape:connector-curvature="0"
         style="fill:#000000;fill-rule:nonzero;stroke:none"
         d="m 664.6225,-43.50745 c -3.30875,5.4475 -9.69,9.47375 -16.0725,9.47375 -6.61875,0 -13.2375,-3.79 -16.545,-9.47375 -1.8925,-3.55375 -2.6,-6.39625 -2.6,-11.8425 l 0,-47.36875 9.69,0 0,48.5525 c 0,6.395 3.78125,10.65875 9.455,10.65875 5.2,0 8.9825,-4.26375 8.9825,-10.65875 l 0,-48.5525 9.69,0 0,47.36875 c 0,5.44625 -0.71125,8.28875 -2.6,11.8425 z"
         id="path37" />
      <path
         inkscape:connector-curvature="0"
         style="fill:#000000;fill-rule:nonzero;stroke:none"
         d="m 577.41875,29.7863 c -2.84875,-4.73625 -6.3325,-6.63125 -11.71375,-6.94625 -6.965,-0.3175 -11.39625,3.1575 -14.56125,11.0525 -2.21625,5.36875 -3.48375,13.57875 -3.48375,21.1575 0,9.47375 1.9,19.2625 5.38125,24.9475 2.85125,4.7375 6.6475,6.94625 12.34625,6.94625 6.6475,0 10.76375,-3.47375 13.93,-11.36625 1.9,-4.7375 3.4825,-13.58 3.4825,-20.5275 0,-10.105 -1.9,-19.2625 -5.38125,-25.26375 z m 9.8125,61.58 c -5.06625,6.9475 -12.34625,10.105 -21.84375,10.105 -12.66125,0 -20.57625,-5.0525 -25.9575,-16.105 -3.79875,-7.58 -6.33,-19.57875 -6.33,-30.31625 0,-14.84125 3.79875,-28.10625 9.81125,-36.63125 5.38375,-6.9475 12.66375,-10.105 23.11125,-10.105 11.39625,0 19.30875,5.05125 25.0075,16.105 3.79875,7.89375 6.015,19.26375 6.015,30.63125 0,14.21125 -3.48375,28.42 -9.81375,36.31625 z"
         id="path39" />
      <path
         inkscape:connector-curvature="0"
         style="fill:#000000;fill-rule:nonzero;stroke:none"
         d="m 656.32,25.5713 c -2.21,-1.26375 -3.47375,-1.57875 -8.21,-1.57875 l -17.055,0 0,22.105 17.055,0 c 4.42125,0 6,-0.315 8.21,-1.57875 3.47375,-1.89625 5.68625,-5.685 5.68625,-9.47375 0,-3.78875 -2.2125,-7.58 -5.68625,-9.47375 z m 6.31625,74.21 -14.52625,-39.1575 -17.055,0 0,39.1575 -14.21,0 0,-90 29.685,0 c 6.94875,0 11.685,0.6325 16.10625,2.84125 7.895,3.79125 13.57875,13.265 13.57875,22.4225 0,9.47375 -5.68375,18.9475 -13.89375,22.73625 l 15.79125,42 -15.47625,0 z"
         id="path41" />
      <path
         inkscape:connector-curvature="0"
         style="fill:#000000;fill-rule:nonzero;stroke:none"
         d="m 479.76875,23.99255 0,22.105 26.175,0 0,14.52625 -26.175,0 0,39.1575 -14.19375,0 0,-90 55.82375,0 0,14.21125 -41.63,0 z"
         id="path43" />
      <path
         inkscape:connector-curvature="0"
         style="fill:#000000;fill-rule:nonzero;stroke:none"
         d="M 739.78625,234.7813 705.36,173.8338 l 0,60.9475 -14.21125,0 0,-90 14.21125,0 32.84625,57.47375 0,-57.47375 14.21125,0 0,90 -12.63125,0 z"
         id="path45" />
      <path
         inkscape:connector-curvature="0"
         style="fill:#000000;fill-rule:nonzero;stroke:none"
         d="m 511.81375,160.57255 c -2.21,-1.265 -3.47375,-1.58 -8.21125,-1.58 l -17.05375,0 0,22.105 17.05375,0 c 4.42125,0 6.00125,-0.315 8.21125,-1.5775 3.47375,-1.89625 5.685,-5.68625 5.685,-9.475 0,-3.78875 -2.21125,-7.57875 -5.685,-9.4725 z m 6.31625,74.20875 -14.5275,-39.1575 -17.05375,0 0,39.1575 -14.21125,0 0,-90 29.68625,0 c 6.9475,0 11.685,0.6325 16.10625,2.8425 7.895,3.79125 13.58,13.26375 13.58,22.42125 0,9.475 -5.685,18.9475 -13.89625,22.73625 l 15.79125,42 -15.475,0 z"
         id="path47" />
      <path
         inkscape:connector-curvature="0"
         style="fill:#000000;fill-rule:nonzero;stroke:none"
         d="m 548.90375,234.7813 0,-90 52.98375,0 0,14.21125 -38.79125,0 0,22.105 26.17625,0 0,14.52625 -26.17625,0 0,24.63125 41.63125,0 0,14.52625 -55.82375,0 z"
         id="path49" />
      <path
         inkscape:connector-curvature="0"
         style="fill:#000000;fill-rule:nonzero;stroke:none"
         d="m 620.0275,234.7813 0,-90 52.98375,0 0,14.21125 -38.7925,0 0,22.105 26.1775,0 0,14.52625 -26.1775,0 0,24.63125 41.63,0 0,14.52625 -55.82125,0 z"
         id="path51" />
      <path
         inkscape:connector-curvature="0"
         style="fill:#000000;fill-rule:nonzero;stroke:none"
         d="m 424.11375,236.3613 c -13.58,0 -21.475,-5.05375 -26.84375,-16.42125 -3.78875,-7.895 -6,-18.9475 -6,-30 0,-14.52625 4.105,-28.7375 10.105,-36.6325 5.37,-6.63125 12.94875,-10.10625 23.055,-10.10625 13.89625,0 22.1075,5.68625 28.1075,19.895 l -13.58125,5.36875 c -3.78875,-7.89375 -7.57875,-10.7375 -14.52625,-10.7375 -7.26375,0 -12.00125,3.16 -15.16,11.05375 -2.21,5.36875 -3.47375,13.57875 -3.47375,21.15875 0,9.4725 1.58,18.9475 4.42125,24.63125 2.84375,5.0525 6.94875,7.26375 12.3175,7.26375 9.15875,0 15.79125,-5.68375 15.79125,-13.895 l 0,-3.79 -16.4225,0 0,-14.21 30.63375,0 0,18 c 0,16.42125 -12.00125,28.42125 -28.42375,28.42125 z"
         id="path53" />
      <path
         inkscape:connector-curvature="0"
         style="fill:#000000;fill-rule:nonzero;stroke:none"
         d="m 371.0825,443.99005 c 1.01,-0.68375 2.23125,-1.08375 3.545,-1.08375 3.49375,0 6.3275,2.8325 6.3275,6.32875 0,0.6975 -0.115,1.36875 -0.325,1.9975 l -6.1425,19.79875 467.35625,0 0,33.75 -467.35625,0 6.1425,19.79875 c 0.21,0.6275 0.325,1.29875 0.325,1.99875 0,3.49375 -2.83375,6.3275 -6.3275,6.3275 -1.31375,0 -2.535,-0.4 -3.545,-1.085 l -69.23875,-43.915 69.23875,-43.91625 z"
         id="path57" />
    </g>
  </g>
</svg>
