<?xml version="1.0" encoding="UTF-8" standalone="no"?>
<!-- Created with Inkscape (http://www.inkscape.org/) -->

<svg
   xmlns:dc="http://purl.org/dc/elements/1.1/"
   xmlns:cc="http://creativecommons.org/ns#"
   xmlns:rdf="http://www.w3.org/1999/02/22-rdf-syntax-ns#"
   xmlns:svg="http://www.w3.org/2000/svg"
   xmlns="http://www.w3.org/2000/svg"
   xmlns:sodipodi="http://sodipodi.sourceforge.net/DTD/sodipodi-0.dtd"
   xmlns:inkscape="http://www.inkscape.org/namespaces/inkscape"
   width="2710"
   height="3790"
   id="svg2"
   sodipodi:version="0.32"
   inkscape:version="0.48.2 r9819"
   version="1.0"
   sodipodi:docname="AJAX1.svg">
  <defs
     id="defs4" />
  <sodipodi:namedview
     id="base"
     pagecolor="#ffffff"
     bordercolor="#666666"
     borderopacity="1.0"
     gridtolerance="10000"
     guidetolerance="10"
     objecttolerance="10"
     inkscape:pageopacity="0.0"
     inkscape:pageshadow="2"
     inkscape:zoom="0.087182787"
     inkscape:cx="-1243.2463"
     inkscape:cy="1602.0219"
     inkscape:document-units="px"
     inkscape:current-layer="layer1"
     width="601px"
     height="601px"
     inkscape:window-width="1280"
     inkscape:window-height="1004"
     inkscape:window-x="-8"
     inkscape:window-y="-8"
     showgrid="false"
     fit-margin-top="0"
     fit-margin-left="0"
     fit-margin-right="0"
     fit-margin-bottom="0"
     inkscape:window-maximized="1"
     showguides="true"
     inkscape:guide-bbox="true" />
  <metadata
     id="metadata7">
    <rdf:RDF>
      <cc:Work
         rdf:about="">
        <dc:format>image/svg+xml</dc:format>
        <dc:type
           rdf:resource="http://purl.org/dc/dcmitype/StillImage" />
        <dc:title></dc:title>
      </cc:Work>
    </rdf:RDF>
  </metadata>
  <g
     inkscape:label="Layer 1"
     inkscape:groupmode="layer"
     id="layer1"
     transform="translate(2467.8438,2604.5938)">
    <path
       inkscape:connector-curvature="0"
       style="fill:#ffffff;fill-rule:nonzero;stroke:#000000;stroke-width:10;stroke-linecap:butt;stroke-linejoin:miter;stroke-miterlimit:4;stroke-opacity:1;stroke-dasharray:none"
       d="m 237.1562,1011.6562 c 0,93.2001 -75.55,168.7501 -168.75,168.7501 l -2362.5,0 c -93.1983,0 -168.75,-75.55 -168.75,-168.7501 l 0,-3442.5 c 0,-93.1983 75.5517,-168.75 168.75,-168.75 l 2362.5,0 c 93.2,0 168.75,75.5517 168.75,168.75 l 0,3442.5 z"
       id="path11" />
    <path
       inkscape:connector-curvature="0"
       style="fill:#000000;fill-rule:nonzero;stroke:none"
       d="m -2294.0938,1135.4063 c -68.2361,0 -123.75,-55.5125 -123.75,-123.7501 l 0,-3442.5 c 0,-68.2361 55.5139,-123.75 123.75,-123.75 l 2362.5,0 c 68.2375,0 123.75,55.5139 123.75,123.75 l 0,3442.5 c 0,68.2376 -55.5125,123.7501 -123.75,123.7501 l -2362.5,0 z"
       id="path13" />
    <path
       inkscape:connector-curvature="0"
       style="fill:#ffffff;fill-rule:nonzero;stroke:none"
       d="m -2294.0938,1067.9063 c -31.0163,0 -56.25,-25.2375 -56.25,-56.2501 l 0,-3442.5 c 0,-31.0163 25.2337,-56.25 56.25,-56.25 l 2362.5,0 c 31.0125,0 56.25,25.2337 56.25,56.25 l 0,3442.5 c 0,31.0126 -25.2375,56.2501 -56.25,56.2501 l -2362.5,0 z"
       id="path15" />
    <path
       inkscape:connector-curvature="0"
       style="fill:#000000;fill-rule:nonzero;stroke:none"
       d="m -623.8313,522.78125 -25.3375,103.575 51.925,0 -26.5875,-103.575 z m 64.5875,252.625 -25.3375,-98.525 -77.25,0 -24.0625,98.525 -51.925,0 89.925,-360 50.65,0 89.925,360 -51.925,0 z"
       id="path17" />
    <path
       inkscape:connector-curvature="0"
       style="fill:#000000;fill-rule:nonzero;stroke:none"
       d="m -201.9563,775.40625 0,-360 169.7625,0 0,50.5251 -117.825,0 0,90.9499 74.75,0 0,49.2626 -74.75,0 0,118.7374 131.75,0 0,50.525 -183.6875,0 z"
       id="path19" />
    <path
       inkscape:connector-curvature="0"
       style="fill:#000000;fill-rule:nonzero;stroke:none"
       d="m -1657.2326,731.19375 c -13.9525,31.5751 -43.1287,50.525 -79.9137,50.525 -43.1288,0 -74.84,-21.4749 -92.5988,-61.8874 -11.4175,-26.525 -19.0287,-77.0625 -19.0287,-123.8001 0,-50.525 3.8062,-87.15 16.49,-121.25 12.685,-37.9 49.4712,-65.6875 91.3325,-65.6875 52.0062,0 91.33,37.8875 93.8662,90.9375 l -52.0075,0 c -1.2687,-24 -17.7575,-40.4124 -43.1287,-40.4124 -17.7588,0 -31.7125,8.8375 -40.5913,26.525 -10.1475,17.6875 -16.49,58.1 -16.49,101.0499 0,30.3125 2.5363,61.9 7.61,89.6875 7.6113,35.3626 25.37,54.3125 53.2775,54.3125 26.6388,0 39.3225,-17.6875 39.3225,-55.5749 l 0,-24 -40.5912,0 0,-50.5251 92.5987,0 0,74.5251 c 0,25.2624 -2.5362,40.4124 -10.1475,55.5749 z"
       id="path21" />
    <path
       inkscape:connector-curvature="0"
       style="fill:#000000;fill-rule:nonzero;stroke:none"
       d="m -1439.4776,775.40625 0,-162.9499 -98.3237,0 0,162.9499 -51.6825,0 0,-360 51.6825,0 0,146.5251 98.3237,0 0,-146.5251 51.6825,0 0,360 -51.6825,0 z"
       id="path23" />
    <path
       inkscape:connector-curvature="0"
       style="fill:#000000;fill-rule:nonzero;stroke:none"
       d="m -1956.7738,775.40625 0,-360 50.4,0 0,360 -50.4,0 z"
       id="path25" />
    <path
       inkscape:connector-curvature="0"
       style="fill:#000000;fill-rule:nonzero;stroke:none"
       d="m -938.7813,775.40625 0,-360 51.9375,0 0,312 131.75,0 0,48 -183.6875,0 z"
       id="path27" />
    <path
       inkscape:connector-curvature="0"
       style="fill:#000000;fill-rule:nonzero;stroke:none"
       d="m -304.3938,775.40625 -110.925,-241.2624 0,241.2624 -51.6875,0 0,-360 51.6875,0 98.325,216 0,-216 51.675,0 0,360 -39.075,0 z"
       id="path29" />
    <path
       inkscape:connector-curvature="0"
       style="fill:#000000;fill-rule:nonzero;stroke:none"
       d="m -2102.7963,465.93135 -52.9438,0 0,90.9499 52.9438,0 c 30.2537,0 46.6412,-16.4249 46.6412,-45.475 0,-27.7874 -18.9087,-45.4749 -46.6412,-45.4749 z m 44.1187,309.4749 -47.9012,-169.2624 -49.1613,0 0,169.2624 -51.6837,0 0,-360 107.1475,0 c 56.7275,0 94.5425,37.9001 94.5425,96 0,42.95 -17.6475,74.5251 -51.6825,87.1625 l 51.6825,176.8375 -52.9438,0 z"
       id="path31" />
    <path
       inkscape:connector-curvature="0"
       style="fill:#000000;fill-rule:nonzero;stroke:none"
       d="m -1229.6601,463.40625 0,312 -51.94,0 0,-312 -65.875,0 0,-48 183.6938,0 0,48 -65.8788,0 z"
       id="path33" />
    <path
       inkscape:connector-curvature="0"
       style="fill:#000000;fill-rule:nonzero;stroke:none"
       d="m -1200.7687,-793.59375 c -5.075,-35.3624 -19.0276,-51.7874 -43.1288,-51.7874 -41.86,0 -57.0813,32.8374 -57.0813,126.3125 0,103.5874 17.7575,145.2624 62.1563,145.2624 30.4412,0 38.0538,-25.2624 38.0538,-51.7875 l 52.0125,0 c -1.275,59.375 -39.325,102.3125 -90.0663,102.3125 -77.3788,0 -111.6275,-61.8875 -111.6275,-194.525 0,-116.2124 36.7862,-178.1 107.8212,-178.1 29.175,0 54.5476,12.625 71.0351,36.625 13.95,17.6875 19.025,32.85 22.8375,65.6875 l -52.0125,0 z"
       id="path35" />
    <path
       inkscape:connector-curvature="0"
       style="fill:#000000;fill-rule:nonzero;stroke:none"
       d="m -1822.4001,-529.59375 0,-360 169.755,0 0,50.5251 -117.815,0 0,90.9499 74.7438,0 0,49.2625 -74.7438,0 0,118.7375 131.7513,0 0,50.525 -183.6913,0 z"
       id="path37" />
    <path
       inkscape:connector-curvature="0"
       style="fill:#000000;fill-rule:nonzero;stroke:none"
       d="m -1076.7563,-529.59375 0,-360 169.75,0 0,50.5251 -117.8125,0 0,90.9499 74.7375,0 0,49.2625 -74.7375,0 0,118.7375 131.75,0 0,50.525 -183.6875,0 z"
       id="path39" />
    <path
       inkscape:connector-curvature="0"
       style="fill:#000000;fill-rule:nonzero;stroke:none"
       d="m -727.2438,-839.06865 -52.95,0 0,102.3125 52.95,0 c 30.25,0 46.6375,-18.9375 46.6375,-51.7876 0,-30.3125 -18.9,-50.5249 -46.6375,-50.5249 z m 2.525,151.5874 -55.475,0 0,157.8875 -51.675,0 0,-360 107.15,0 c 56.725,0 94.5375,40.425 94.5375,101.05 0,65.6875 -34.0375,101.0625 -94.5375,101.0625 z"
       id="path41" />
    <path
       inkscape:connector-curvature="0"
       style="fill:#000000;fill-rule:nonzero;stroke:none"
       d="m -469.1688,-841.59375 0,312 -51.9375,0 0,-312 -65.875,0 0,-48 183.6875,0 0,48 -65.875,0 z"
       id="path43" />
    <path
       inkscape:connector-curvature="0"
       style="fill:#000000;fill-rule:nonzero;stroke:none"
       d="m -1449.6351,-529.59375 -50.895,-122.525 -50.895,122.525 -54.715,0 78.8888,-186.95 -73.7988,-173.05 54.7138,0 45.8062,108.6376 45.8063,-108.6376 54.7137,0 -72.5275,173.05 78.8875,186.95 -55.985,0 z"
       id="path45" />
    <path
       inkscape:connector-curvature="0"
       style="fill:#000000;fill-rule:nonzero;stroke:none"
       d="m -1818.1038,-1834.5938 -110.9288,-241.2637 0,241.2637 -51.6824,0 0,-360 51.6824,0 98.3238,216 0,-216 51.6825,0 0,360 -39.0775,0 z"
       id="path47" />
    <path
       inkscape:connector-curvature="0"
       style="fill:#000000;fill-rule:nonzero;stroke:none"
       d="m -284.0438,-1834.5938 -110.9375,-241.2637 0,241.2637 -51.675,0 0,-360 51.675,0 98.325,216 0,-216 51.6875,0 0,360 -39.075,0 z"
       id="path49" />
    <path
       inkscape:connector-curvature="0"
       style="fill:#000000;fill-rule:nonzero;stroke:none"
       d="m -1555.6101,-2104.91 c -8.9062,-31.5788 -22.9037,-45.4738 -44.5337,-45.4738 -22.9038,0 -36.9,13.895 -45.8063,44.21 -8.9075,27.79 -11.4512,51.79 -11.4512,92.2113 0,39.1587 3.8175,61.895 11.4512,90.9487 8.9063,30.315 22.9025,44.21 45.8063,44.21 21.63,0 35.6275,-13.895 44.5337,-44.21 8.9075,-29.0537 11.4513,-50.5275 11.4513,-92.2112 0,-40.4213 -3.8175,-63.1588 -11.4513,-89.685 z m 40.7163,214.7375 c -17.8138,42.9487 -44.5338,61.895 -85.25,61.895 -43.2625,0 -68.7088,-18.9463 -86.5225,-61.895 -15.27,-35.3688 -20.3588,-69.4738 -20.3588,-125.0525 0,-54.3163 5.0888,-90.9488 20.3588,-125.0538 19.085,-42.9462 44.5337,-60.6312 86.5225,-60.6312 41.9887,0 67.4362,17.685 85.25,61.895 15.27,35.3687 20.3587,69.4737 20.3587,123.79 0,55.5787 -5.0887,90.9475 -20.3587,125.0525 z"
       id="path51" />
    <path
       inkscape:connector-curvature="0"
       style="fill:#000000;fill-rule:nonzero;stroke:none"
       d="m -604.9313,-2144.0675 -52.9375,0 0,90.9475 52.9375,0 c 30.2625,0 46.65,-16.4213 46.65,-45.4725 0,-27.7913 -18.9125,-45.475 -46.65,-45.475 z m 44.125,309.4737 -47.9,-169.2637 -49.1625,0 0,169.2637 -51.6875,0 0,-360 107.15,0 c 56.725,0 94.5375,37.895 94.5375,96.0013 0,42.9462 -17.6375,74.525 -51.675,87.1575 l 51.675,176.8412 -52.9375,0 z"
       id="path53" />
    <path
       inkscape:connector-curvature="0"
       style="fill:#000000;fill-rule:nonzero;stroke:none"
       d="m -1106.7187,-2146.5938 0,312 -51.9375,0 0,-312 -65.8788,0 0,-48 183.6913,0 0,48 -65.875,0 z"
       id="path55" />
    <path
       inkscape:connector-curvature="0"
       style="fill:#000000;fill-rule:nonzero;stroke:none"
       d="m -802.6188,-1878.8038 c -17.65,29.0525 -51.6875,50.5263 -85.725,50.5263 -35.2875,0 -70.5875,-20.2113 -88.2375,-50.5263 -10.0875,-18.9475 -13.8625,-34.105 -13.8625,-63.1587 l 0,-252.6313 51.6875,0 0,258.9475 c 0,34.105 20.1625,56.8425 50.4125,56.8425 27.7375,0 47.9125,-22.7375 47.9125,-56.8425 l 0,-258.9475 51.675,0 0,252.6313 c 0,29.0537 -3.775,44.2112 -13.8625,63.1587 z"
       id="path57" />
    <path
       inkscape:connector-curvature="0"
       style="fill:#000000;fill-rule:nonzero;stroke:none"
       d="m -440.5188,-1454.9362 c -8.825,-25.2626 -23.95,-36.6313 -46.65,-36.6313 l -42.85,0 0,258.9487 42.85,0 c 30.2625,0 46.65,-24 51.6875,-51.7875 2.525,-22.7374 5.0375,-48 5.0375,-75.7925 0,-40.4212 -3.775,-79.5775 -10.075,-94.7374 z m 8.8125,256.4174 c -12.6,11.375 -30.25,16.425 -50.4125,16.425 l -99.5875,0 0,-360 92.025,0 c 30.25,0 45.375,3.7888 57.975,13.895 21.4375,15.1575 36.5625,42.9475 42.8625,79.5788 5.05,26.5262 8.825,58.105 8.825,85.895 0,83.3687 -16.3875,136.4187 -51.6875,164.2062 z"
       id="path59" />
    <path
       inkscape:connector-curvature="0"
       style="fill:#000000;fill-rule:nonzero;stroke:none"
       d="m -826.5938,-1182.0938 0,-360 169.75,0 0,50.525 -117.8125,0 0,90.9488 74.7375,0 0,49.2637 -74.7375,0 0,118.7375 131.75,0 0,50.525 -183.6875,0 z"
       id="path61" />
    <path
       inkscape:connector-curvature="0"
       style="fill:#000000;fill-rule:nonzero;stroke:none"
       d="m -1398.5663,-1182.0938 -110.9288,-241.2625 0,241.2625 -51.6837,0 0,-360 51.6837,0 98.3225,216 0,-216 51.6838,0 0,360 -39.0775,0 z"
       id="path63" />
    <path
       inkscape:connector-curvature="0"
       style="fill:#000000;fill-rule:nonzero;stroke:none"
       d="m -1694.2538,-1452.4087 c -8.9063,-31.58 -22.9025,-45.475 -44.5338,-45.475 -22.9025,0 -36.8987,13.895 -45.805,44.2112 -8.9075,27.7888 -11.4525,51.7888 -11.4525,92.21 0,39.1563 3.8175,61.8938 11.4525,90.9438 8.9063,30.325 22.9025,44.2125 45.805,44.2125 21.6313,0 35.6275,-13.8875 44.5338,-44.2125 8.9075,-29.05 11.4512,-50.525 11.4512,-92.2063 0,-40.42 -3.8175,-63.1587 -11.4512,-89.6837 z m 40.7162,214.74 c -17.8137,42.95 -44.5337,61.8875 -85.25,61.8875 -43.2612,0 -68.7087,-18.9375 -86.5225,-61.8875 -15.2675,-35.375 -20.3587,-69.475 -20.3587,-125.0563 0,-54.3162 5.0912,-90.9475 20.3587,-125.0525 19.0863,-42.9475 44.5338,-60.6325 86.5225,-60.6325 41.99,0 67.4363,17.685 85.25,61.895 15.27,35.3688 20.3588,69.4738 20.3588,123.79 0,55.5813 -5.0888,90.9438 -20.3588,125.0563 z"
       id="path65" />
    <path
       inkscape:connector-curvature="0"
       style="fill:#000000;fill-rule:nonzero;stroke:none"
       d="m -984.8563,-1491.5675 -52.95,0 0,90.9475 52.95,0 c 30.25,0 46.6375,-16.4213 46.6375,-45.4738 0,-27.79 -18.9125,-45.4737 -46.6375,-45.4737 z m 44.1125,309.4737 -47.9,-169.2637 -49.1625,0 0,169.2637 -51.6875,0 0,-360 107.15,0 c 56.725,0 94.55,37.895 94.55,96 0,42.9475 -17.65,74.5263 -51.6875,87.1588 l 51.6875,176.8412 -52.95,0 z"
       id="path67" />
    <path
       inkscape:connector-curvature="0"
       style="fill:#000000;fill-rule:nonzero;stroke:none"
       d="m -1566.9276,-186.56865 0,90.9499 72.2088,0 0,49.2626 -72.2088,0 0,169.2624 -51.9412,0 0,-360 183.69,0 0,50.5251 -131.7488,0 z"
       id="path69" />
    <path
       inkscape:connector-curvature="0"
       style="fill:#000000;fill-rule:nonzero;stroke:none"
       d="m -658.6813,122.90625 0,-202.0999 -67.025,202.0999 -67.0375,-202.0999 0,202.0999 -51.85,0 0,-360 51.85,0 67.0375,202.1126 67.025,-202.1126 51.8625,0 0,360 -51.8625,0 z"
       id="path71" />
    <path
       inkscape:connector-curvature="0"
       style="fill:#000000;fill-rule:nonzero;stroke:none"
       d="m -977.6688,-147.40625 c -8.9125,-31.5875 -22.9125,-45.4749 -44.5375,-45.4749 -22.9,0 -36.9,13.8874 -45.8,44.2125 -8.9125,27.7875 -11.4625,51.7875 -11.4625,92.2124 0,39.15 3.825,61.8876 11.4625,90.9375 8.9,30.3251 22.9,44.2125 45.8,44.2125 21.625,0 35.625,-13.8874 44.5375,-44.2125 8.9,-29.0499 11.45,-50.5249 11.45,-92.2124 0,-40.4126 -3.825,-63.15 -11.45,-89.6751 z m 40.7125,214.7376 c -17.8125,42.9499 -44.5375,61.8874 -85.25,61.8874 -43.2625,0 -68.7125,-18.9375 -86.525,-61.8874 -15.2625,-35.375 -20.3625,-69.4751 -20.3625,-125.0625 0,-54.3125 5.1,-90.9375 20.3625,-125.0501 19.0875,-42.95 44.5375,-60.625 86.525,-60.625 41.9875,0 67.4375,17.675 85.25,61.8876 15.275,35.3749 20.3625,69.475 20.3625,123.7875 0,55.5874 -5.0875,90.9499 -20.3625,125.0625 z"
       id="path73" />
    <path
       inkscape:connector-curvature="0"
       style="fill:#000000;fill-rule:nonzero;stroke:none"
       d="m -1280.1501,-186.56865 -52.9438,0 0,90.9499 52.9438,0 c 30.2537,0 46.64,-16.4249 46.64,-45.475 0,-27.7874 -18.9088,-45.4749 -46.64,-45.4749 z m 44.1187,309.4749 -47.9012,-169.2624 -49.1613,0 0,169.2624 -51.6837,0 0,-360 107.1475,0 c 56.7262,0 94.5488,37.9001 94.5488,96 0,42.95 -17.6501,74.5251 -51.6888,87.1625 l 51.6888,176.8375 -52.9501,0 z"
       id="path75" />
  </g>
</svg>
