<?xml version="1.0" encoding="UTF-8" standalone="no"?>
<!-- Created with Inkscape (http://www.inkscape.org/) -->

<svg
   xmlns:dc="http://purl.org/dc/elements/1.1/"
   xmlns:cc="http://creativecommons.org/ns#"
   xmlns:rdf="http://www.w3.org/1999/02/22-rdf-syntax-ns#"
   xmlns:svg="http://www.w3.org/2000/svg"
   xmlns="http://www.w3.org/2000/svg"
   xmlns:sodipodi="http://sodipodi.sourceforge.net/DTD/sodipodi-0.dtd"
   xmlns:inkscape="http://www.inkscape.org/namespaces/inkscape"
   id="svg2"
   inkscape:version="0.48.2 r9819"
   height="3250"
   width="2710"
   version="1.1"
   sodipodi:docname="AJAX7.svg">
  <defs
     id="defs19" />
  <sodipodi:namedview
     id="base"
     fit-margin-left="0"
     inkscape:zoom="0.16367188"
     borderopacity="1.0"
     inkscape:current-layer="g3763"
     inkscape:cx="1929.4469"
     inkscape:cy="1763.5806"
     inkscape:window-maximized="1"
     showgrid="false"
     fit-margin-right="0"
     inkscape:document-units="px"
     bordercolor="#666666"
     inkscape:window-x="-8"
     inkscape:guide-bbox="true"
     inkscape:window-y="-8"
     fit-margin-bottom="0"
     inkscape:window-width="1280"
     inkscape:pageopacity="0.0"
     inkscape:pageshadow="2"
     pagecolor="#ffffff"
     showguides="true"
     inkscape:window-height="1004"
     fit-margin-top="0" />
  <metadata
     id="metadata7">
    <rdf:RDF>
      <cc:Work
         rdf:about="">
        <dc:format>image/svg+xml</dc:format>
        <dc:type
           rdf:resource="http://purl.org/dc/dcmitype/StillImage" />
        <dc:title></dc:title>
      </cc:Work>
    </rdf:RDF>
  </metadata>
  <g
     id="layer1"
     inkscape:label="Layer 1"
     inkscape:groupmode="layer"
     transform="translate(186.6172,2899.4232)">
    <g
       id="g3012"
       transform="translate(109.60155,-54.548234)"
       stroke-miterlimit="4"
       style="fill:#0dadea;stroke-miterlimit:4;stroke-dasharray:none">
      <g
         id="g3763">
        <path
           inkscape:connector-curvature="0"
           style="fill:#ffffff;fill-rule:nonzero;stroke:#000000;stroke-width:10;stroke-linecap:butt;stroke-linejoin:miter;stroke-miterlimit:4;stroke-opacity:1;stroke-dasharray:none"
           d="m 2408.7813,231.375 c 0,93.2 -75.5501,168.75 -168.75,168.75 l -2362.50005,0 c -93.19825,0 -168.75,-75.55 -168.75,-168.75 l 0,-2902.5 c 0,-93.1983 75.55175,-168.75 168.75,-168.75 l 2362.50005,0 c 93.1999,0 168.75,75.5517 168.75,168.75 l 0,2902.5 z"
           id="path11" />
        <path
           inkscape:connector-curvature="0"
           style="fill:#000000;fill-rule:nonzero;stroke:none"
           d="m -122.46875,355.125 c -68.23613,0 -123.75,-55.5125 -123.75,-123.75 l 0,-2902.5 c 0,-68.2361 55.51387,-123.75 123.75,-123.75 l 2362.50005,0 c 68.2375,0 123.75,55.5139 123.75,123.75 l 0,2902.5 c 0,68.2375 -55.5125,123.75 -123.75,123.75 l -2362.50005,0 z"
           id="path13" />
        <path
           inkscape:connector-curvature="0"
           style="fill:#ffffff;fill-rule:nonzero;stroke:none"
           d="m -122.46875,287.625 c -31.01625,0 -56.25,-25.2375 -56.25,-56.25 l 0,-2902.5 c 0,-31.0163 25.23375,-56.25 56.25,-56.25 l 2362.50005,0 c 31.0124,0 56.25,25.2337 56.25,56.25 l 0,2902.5 c 0,31.0125 -25.2376,56.25 -56.25,56.25 l -2362.50005,0 z"
           id="path15" />
        <path
           inkscape:connector-curvature="0"
           style="fill:#000000;fill-rule:nonzero;stroke:none"
           d="m 784.9925,-1062.375 0,-176.8375 -58.655,176.8375 -58.655,-176.8375 0,176.8375 -45.37375,0 0,-315 45.37375,0 58.655,176.8375 58.655,-176.8375 45.37375,0 0,315 -45.37375,0 z"
           id="path17" />
        <path
           inkscape:connector-curvature="0"
           style="fill:#000000;fill-rule:nonzero;stroke:none"
           d="m 1219.3938,-1207.85 c -13.625,-8.825 -26.8625,-17.6875 -35.3125,-23.625 -25.4,-17.875 -38.85,-42 -38.85,-69.6375 0,-45.3125 35.525,-81.7875 81.025,-81.7875 44.4,0 78.8125,34.2625 79.9125,81.7875 l -43.275,0 c -1.1125,-22.1 -16.6625,-36.475 -36.6375,-36.475 -21.0875,0 -37.7375,15.475 -37.7375,36.475 0,15.475 6.6625,24.3125 29.975,37.575 61.0375,35.375 87.675,69.6375 87.675,114.95 0,50.85 -38.8375,91.7375 -87.675,91.7375 -55.5,0 -88.8,-46.4125 -88.8,-98.3625 l 44.4,0 c 0,26.525 13.325,54.15 44.4,54.15 24.4125,0 44.4,-22.1 44.4,-47.525 0,-19.7375 -8.1625,-36.3625 -43.5,-59.2625 z"
           id="path19" />
        <path
           inkscape:connector-curvature="0"
           style="fill:#000000;fill-rule:nonzero;stroke:none"
           d="m 1437.6064,-1335.375 0,273 -45.4375,0 0,-273 -57.6502,0 0,-42 160.7376,0 0,42 -57.65,0 z"
           id="path21" />
        <path
           inkscape:connector-curvature="0"
           style="fill:#000000;fill-rule:nonzero;stroke:none"
           d="m 1064.0188,-1101.0625 c -15.45,25.425 -45.225,44.2125 -75.0125,44.2125 -30.88125,0 -61.765,-17.675 -77.2075,-44.2125 -8.825,-16.575 -12.13375,-29.8375 -12.13375,-55.2625 l 0,-221.05 45.22375,0 0,226.575 c 0,29.85 17.6425,49.7375 44.1175,49.7375 24.275,0 41.9125,-19.8875 41.9125,-49.7375 l 0,-226.575 45.225,0 0,221.05 c 0,25.425 -3.3,38.6875 -12.125,55.2625 z"
           id="path23" />
        <path
           inkscape:connector-curvature="0"
           style="fill:#000000;fill-rule:nonzero;stroke:none"
           d="m 1172.8688,-738.6125 c -7.725,-22.1 -20.9625,-32.05 -40.8125,-32.05 l -37.5,0 0,226.575 37.5,0 c 26.475,0 40.8125,-21 45.225,-45.3125 2.2,-19.9 4.4125,-42 4.4125,-66.3125 0,-35.375 -3.3125,-69.6375 -8.825,-82.9 z m 7.725,224.375 c -11.0375,9.9375 -26.475,14.3625 -44.125,14.3625 l -87.1376,0 0,-315 80.5251,0 c 26.4625,0 39.7,3.3125 50.7375,12.1625 18.75,13.2625 31.9874,37.575 37.5,69.625 4.4125,23.2125 7.725,50.85 7.725,75.1625 0,72.95 -14.35,119.3625 -45.225,143.6875 z"
           id="path25" />
        <path
           inkscape:connector-curvature="0"
           style="fill:#000000;fill-rule:nonzero;stroke:none"
           d="m 630.2225,-499.875 0,-315 148.53375,0 0,44.2125 -103.0875,0 0,79.575 65.40125,0 0,43.1125 -65.40125,0 0,103.8875 115.28125,0 0,44.2125 -160.7275,0 z"
           id="path27" />
        <path
           inkscape:connector-curvature="0"
           style="fill:#000000;fill-rule:nonzero;stroke:none"
           d="m 516.8225,-499.875 0,-315 44.1,0 0,315 -44.1,0 z"
           id="path29" />
        <path
           inkscape:connector-curvature="0"
           style="fill:#000000;fill-rule:nonzero;stroke:none"
           d="m 844.50255,-499.875 0,-315 45.44875,0 0,273 115.28,0 0,42 -160.72875,0 z"
           id="path31" />
        <path
           inkscape:connector-curvature="0"
           style="fill:#000000;fill-rule:nonzero;stroke:none"
           d="m 1793.0814,-736.4 c -7.8,-27.6375 -20.0375,-39.7875 -38.975,-39.7875 -20.0375,0 -32.275,12.15 -40.075,38.675 -7.8,24.325 -10.025,45.325 -10.025,80.6875 0,34.2625 3.3498,54.1625 10.025,79.5875 7.8,26.525 20.0375,38.675 40.075,38.675 18.9375,0 31.175,-12.15 38.975,-38.675 7.7874,-25.425 10.0125,-44.2125 10.0125,-80.6875 0,-35.375 -3.3375,-55.2625 -10.0125,-78.475 z m 35.625,187.9 c -15.5876,37.575 -38.9626,54.15 -74.6,54.15 -37.85,0 -60.1125,-16.575 -75.7,-54.15 -13.3625,-30.95 -17.8125,-60.8 -17.8125,-109.425 0,-47.525 4.45,-79.5875 17.8125,-109.425 16.7,-37.575 38.9625,-53.05 75.7,-53.05 36.75,0 59.0125,15.475 74.6,54.1625 13.3625,30.9375 17.8125,60.7875 17.8125,108.3125 0,48.625 -4.45,79.575 -17.8125,109.425 z"
           id="path33" />
        <path
           inkscape:connector-curvature="0"
           style="fill:#000000;fill-rule:nonzero;stroke:none"
           d="m 1565.1439,-772.875 0,273 -45.4375,0 0,-273 -57.6375,0 0,-42 160.7248,0 0,42 -57.65,0 z"
           id="path35" />
        <path
           inkscape:connector-curvature="0"
           style="fill:#000000;fill-rule:nonzero;stroke:none"
           d="m 394.0475,-642.45 0,142.575 -45.4325,0 0,-142.575 -77.57,-172.425 47.65,0 53.19,113.8375 52.08125,-113.8375 48.75625,0 -78.675,172.425 z"
           id="path37" />
        <path
           inkscape:connector-curvature="0"
           style="fill:#000000;fill-rule:nonzero;stroke:none"
           d="m 537.87,-2226.0588 c -12.21,27.6313 -37.73875,44.21 -69.92625,44.21 -37.7375,0 -65.48625,-18.7887 -81.02375,-54.1575 -9.99,-23.2112 -16.65125,-67.4212 -16.65125,-108.3162 0,-44.21 3.33125,-76.2625 14.43,-106.105 11.09875,-33.1575 43.2875,-57.4725 79.915,-57.4725 45.50625,0 79.915,33.1562 82.13375,79.5787 l -45.50625,0 c -1.11,-21.0012 -15.53875,-35.37 -37.73875,-35.37 -15.5375,0 -27.7475,7.7375 -35.51625,23.2113 -8.87875,15.4737 -14.43,50.8412 -14.43,88.4212 0,26.5275 2.22125,54.1588 6.65875,78.4738 6.66125,30.9475 22.19875,47.5262 46.61875,47.5262 23.30875,0 34.4075,-15.4737 34.4075,-48.6312 l 0,-21 -35.5175,0 0,-44.2113 81.02375,0 0,65.2113 c 0,22.105 -2.21875,35.3688 -8.8775,48.6312 z"
           id="path39" />
        <path
           inkscape:connector-curvature="0"
           style="fill:#000000;fill-rule:nonzero;stroke:none"
           d="m 741.00375,-2187.375 0,-142.5775 -86.0325,0 0,142.5775 -45.22375,0 0,-315 45.22375,0 0,128.2112 86.0325,0 0,-128.2112 45.2225,0 0,315 -45.2225,0 z"
           id="path41" />
        <path
           inkscape:connector-curvature="0"
           style="fill:#000000;fill-rule:nonzero;stroke:none"
           d="m 263.17,-2187.375 0,-315 44.09875,0 0,315 -44.09875,0 z"
           id="path43" />
        <path
           inkscape:connector-curvature="0"
           style="fill:#000000;fill-rule:nonzero;stroke:none"
           d="m 2050.2314,-2187.3738 -97.0625,-211.105 0,211.105 -45.225,0 0,-315.0012 45.225,0 86.025,189.0012 0,-189.0012 45.225,0 0,315.0012 -34.1875,0 z"
           id="path45" />
        <path
           inkscape:connector-curvature="0"
           style="fill:#000000;fill-rule:nonzero;stroke:none"
           d="m 124.69,-2458.165 -46.32625,0 0,79.58 46.32625,0 c 26.47125,0 40.81,-14.3675 40.81,-39.7888 0,-24.3162 -16.545,-39.7912 -40.81,-39.7912 z m 38.6025,270.7912 -41.9125,-148.1062 -43.01625,0 0,148.1062 -45.22375,0 0,-315.0012 93.75375,0 c 49.63625,0 82.72625,33.1587 82.72625,84.0012 0,37.5788 -15.4425,65.21 -45.22375,76.2625 l 45.22375,154.7375 -46.3275,0 z"
           id="path47" />
        <path
           inkscape:connector-curvature="0"
           style="fill:#000000;fill-rule:nonzero;stroke:none"
           d="m 1769.4563,-2458.1638 -46.3249,0 0,79.5788 46.3249,0 c 26.4751,0 40.8125,-14.3688 40.8125,-39.79 0,-24.315 -16.5374,-39.7888 -40.8125,-39.7888 z m 38.6126,270.7888 -41.9125,-148.105 -43.025,0 0,148.105 -45.2127,0 0,-315 93.75,0 c 49.6376,0 82.725,33.1575 82.725,84 0,37.5787 -15.4375,65.2112 -45.225,76.2637 l 45.225,154.7363 -46.3249,0 z"
           id="path49" />
        <path
           inkscape:connector-curvature="0"
           style="fill:#000000;fill-rule:nonzero;stroke:none"
           d="m 933.41255,-2460.3738 0,273 -45.445,0 0,-273 -57.6425,0 0,-42.0012 160.73125,0 0,42.0012 -57.64375,0 z"
           id="path51" />
        <path
           inkscape:connector-curvature="0"
           style="fill:#000000;fill-rule:nonzero;stroke:none"
           d="m 1330.3938,-2460.3738 0,272.9988 -45.45,0 0,-272.9988 -57.6375,0 0,-42.0012 160.725,0 0,42.0012 -57.6376,0 z"
           id="path53" />
        <path
           inkscape:connector-curvature="0"
           style="fill:#000000;fill-rule:nonzero;stroke:none"
           d="m 1596.4814,-2226.0575 c -15.4501,25.4212 -45.225,44.21 -75,44.21 -30.8876,0 -61.775,-17.685 -77.2125,-44.21 -8.8251,-16.5788 -12.1376,-29.8425 -12.1376,-55.2638 l 0,-221.0537 45.2249,0 0,226.58 c 0,29.8425 17.6501,49.7375 44.125,49.7375 24.2625,0 41.9125,-19.895 41.9125,-49.7375 l 0,-226.58 45.225,0 0,221.0537 c 0,25.4213 -3.3125,38.685 -12.1375,55.2638 z"
           id="path55" />
        <path
           inkscape:connector-curvature="0"
           style="fill:#000000;fill-rule:nonzero;stroke:none"
           d="m 1647.0561,-1863.6125 c -7.7122,-22.105 -20.9499,-32.0525 -40.8125,-32.0525 l -37.5,0 0,226.58 37.5,0 c 26.4753,0 40.8125,-21 45.2252,-45.3163 2.2123,-19.895 4.4124,-41.9999 4.4124,-66.3149 0,-35.3688 -3.3,-69.6325 -8.8251,-82.8963 z m 7.7253,224.37 c -11.0251,9.9475 -26.4626,14.3675 -44.1125,14.3675 l -87.1501,0 0,-315 80.5251,0 c 26.4749,0 39.7124,3.315 50.7375,12.1575 18.75,13.2625 31.9874,37.5787 37.5,69.6325 4.4124,23.21 7.7249,50.8412 7.7249,75.1575 0,72.9487 -14.3374,119.3687 -45.2249,143.685 z"
           id="path57" />
        <path
           inkscape:connector-curvature="0"
           style="fill:#000000;fill-rule:nonzero;stroke:none"
           d="m 1309.2438,-1624.875 0,-315 148.5375,0 0,44.21 -103.0875,0 0,79.58 65.4,0 0,43.1062 -65.4,0 0,103.8938 115.2874,0 0,44.21 -160.7374,0 z"
           id="path59" />
        <path
           inkscape:connector-curvature="0"
           style="fill:#000000;fill-rule:nonzero;stroke:none"
           d="m 808.7725,-1624.875 -97.0625,-211.105 0,211.105 -45.2225,0 0,-315 45.2225,0 86.03125,189 0,-189 45.22625,0 0,315 -34.195,0 z"
           id="path61" />
        <path
           inkscape:connector-curvature="0"
           style="fill:#000000;fill-rule:nonzero;stroke:none"
           d="m 550.04625,-1861.4013 c -7.79375,-27.6312 -20.04125,-39.7887 -38.9675,-39.7887 -20.04,0 -32.28625,12.1575 -40.08,38.685 -7.79375,24.3137 -10.02,45.3137 -10.02,80.6825 0,34.265 3.34,54.1587 10.02,79.58 7.79375,26.5262 20.04,38.6837 40.08,38.6837 18.92625,0 31.17375,-12.1575 38.9675,-38.6837 7.79375,-25.4213 10.01875,-44.2112 10.01875,-80.6837 0,-35.3688 -3.34,-55.2651 -10.01875,-78.4751 z m 35.62625,187.895 c -15.58625,37.5788 -38.96625,54.1575 -74.59375,54.1575 -37.85375,0 -60.12,-16.5787 -75.7075,-54.1575 -13.36,-30.9475 -17.81375,-60.7887 -17.81375,-109.4199 0,-47.5276 4.45375,-79.5788 17.81375,-109.4226 16.70125,-37.5787 38.9675,-53.0512 75.7075,-53.0512 36.74,0 59.0075,15.4725 74.59375,54.1575 13.36125,30.9475 17.815,60.7887 17.815,108.3163 0,48.6312 -4.45375,79.5787 -17.815,109.4199 z"
           id="path63" />
        <path
           inkscape:connector-curvature="0"
           style="fill:#000000;fill-rule:nonzero;stroke:none"
           d="m 1170.7688,-1895.6638 -46.325,0 0,79.5788 46.325,0 c 26.475,0 40.8125,-14.3688 40.8125,-39.79 0,-24.315 -16.55,-39.7888 -40.8125,-39.7888 z m 38.6,270.7888 -41.9125,-148.105 -43.0125,0 0,148.105 -45.225,0 0,-315 93.75,0 c 49.6375,0 82.725,33.1575 82.725,84 0,37.5788 -15.4375,65.2113 -45.225,76.2638 l 45.225,154.7362 -46.325,0 z"
           id="path65" />
        <path
           inkscape:connector-curvature="0"
           style="fill:#000000;fill-rule:nonzero;stroke:none"
           d="m 1678.4936,62.625 -97.0625,-211.1 0,211.1 -45.2248,0 0,-315 45.2248,0 86.0252,189 0,-189 45.2248,0 0,315 -34.1875,0 z"
           id="path67" />
        <path
           inkscape:connector-curvature="0"
           style="fill:#000000;fill-rule:nonzero;stroke:none"
           d="m 1397.7189,-208.1625 -46.325,0 0,79.575 46.325,0 c 26.475,0 40.8125,-14.3625 40.8125,-39.7875 0,-24.3125 -16.5375,-39.7875 -40.8125,-39.7875 z m 38.6125,270.7875 -41.9125,-148.1 -43.025,0 0,148.1 -45.2126,0 0,-315 93.75,0 c 49.6376,0 82.725,33.1625 82.725,84 0,37.575 -15.4375,65.2125 -45.225,76.2625 l 45.225,154.7375 -46.3251,0 z"
           id="path69" />
        <path
           inkscape:connector-curvature="0"
           style="fill:#000000;fill-rule:nonzero;stroke:none"
           d="m 958.6563,-210.375 0,273 -45.45,0 0,-273 -57.64125,0 0,-42 160.72875,0 0,42 -57.6375,0 z"
           id="path71" />
        <path
           inkscape:connector-curvature="0"
           style="fill:#000000;fill-rule:nonzero;stroke:none"
           d="m 1224.7437,23.9375 c -15.4375,25.425 -45.225,44.2125 -75,44.2125 -30.8874,0 -61.7749,-17.675 -77.2124,-44.2125 -8.8251,-16.575 -12.1376,-29.8375 -12.1376,-55.2625 l 0,-221.05 45.225,0 0,226.5875 c 0,29.8375 17.65,49.725 44.125,49.725 24.2625,0 41.9126,-19.8875 41.9126,-49.725 l 0,-226.5875 45.2249,0 0,221.05 c 0,25.425 -3.3125,38.6875 -12.1375,55.2625 z"
           id="path73" />
        <path
           inkscape:connector-curvature="0"
           style="fill:#000000;fill-rule:nonzero;stroke:none"
           d="m 604.9475,15.1 c -16.5825,30.95 -54.16125,53.05 -92.84875,53.05 -38.6875,0 -76.27,-22.1 -92.84875,-53.05 -8.84125,-18.7875 -14.37125,-40.9 -14.37125,-65.2125 l 0,-202.2625 49.74125,0 0,202.2625 c 0,40.9 23.21125,67.425 57.47875,67.425 34.26375,0 57.4775,-26.525 57.4775,-67.425 l 0,-202.2625 49.73875,0 0,202.2625 c 0,24.3125 -5.52625,46.425 -14.3675,65.2125 z"
           id="path75" />
      </g>
    </g>
  </g>
</svg>
