<?xml version="1.0" encoding="UTF-8" standalone="no"?>
<!-- Created with Inkscape (http://www.inkscape.org/) -->

<svg
   xmlns:dc="http://purl.org/dc/elements/1.1/"
   xmlns:cc="http://creativecommons.org/ns#"
   xmlns:rdf="http://www.w3.org/1999/02/22-rdf-syntax-ns#"
   xmlns:svg="http://www.w3.org/2000/svg"
   xmlns="http://www.w3.org/2000/svg"
   xmlns:sodipodi="http://sodipodi.sourceforge.net/DTD/sodipodi-0.dtd"
   xmlns:inkscape="http://www.inkscape.org/namespaces/inkscape"
   width="3250"
   height="2170"
   id="svg2"
   sodipodi:version="0.32"
   inkscape:version="0.48.2 r9819"
   version="1.0"
   sodipodi:docname="AJAX7.svg">
  <defs
     id="defs4">
    <clipPath
       id="Clip0">
      <path
         inkscape:connector-curvature="0"
         d="m 0,0 0,3024.5 2160.5,0 L 2160.5,0 0,0 z"
         transform="translate(0,0.5)"
         id="path7" />
    </clipPath>
    <clipPath
       id="Clip0-1">
      <path
         inkscape:connector-curvature="0"
         d="m 0,0 0,3024.5 2592.5,0 L 2592.5,0 0,0 z"
         transform="translate(0,0.5)"
         id="path7-7" />
    </clipPath>
    <clipPath
       id="Clip0-4">
      <path
         inkscape:connector-curvature="0"
         d="m 0,0 0,1728.5 4320.5,0 L 4320.5,0 0,0 z"
         transform="translate(0,0.5)"
         id="path7-0" />
    </clipPath>
  </defs>
  <sodipodi:namedview
     id="base"
     pagecolor="#ffffff"
     bordercolor="#666666"
     borderopacity="1.0"
     gridtolerance="10000"
     guidetolerance="10"
     objecttolerance="10"
     inkscape:pageopacity="0.0"
     inkscape:pageshadow="2"
     inkscape:zoom="0.17436557"
     inkscape:cx="940.60585"
     inkscape:cy="1640.8497"
     inkscape:document-units="px"
     inkscape:current-layer="layer1"
     width="601px"
     height="601px"
     inkscape:window-width="1280"
     inkscape:window-height="1004"
     inkscape:window-x="-8"
     inkscape:window-y="-8"
     showgrid="false"
     fit-margin-top="0"
     fit-margin-left="0"
     fit-margin-right="0"
     fit-margin-bottom="0"
     inkscape:window-maximized="1"
     showguides="true"
     inkscape:guide-bbox="true" />
  <metadata
     id="metadata7">
    <rdf:RDF>
      <cc:Work
         rdf:about="">
        <dc:format>image/svg+xml</dc:format>
        <dc:type
           rdf:resource="http://purl.org/dc/dcmitype/StillImage" />
        <dc:title></dc:title>
      </cc:Work>
    </rdf:RDF>
  </metadata>
  <g
     inkscape:label="Layer 1"
     inkscape:groupmode="layer"
     id="layer1"
     transform="translate(2185.0938,951.78125)">
    <path
       inkscape:connector-curvature="0"
       style="fill:#ffffff;fill-rule:nonzero;stroke:#000000;stroke-width:10;stroke-linecap:butt;stroke-linejoin:miter;stroke-miterlimit:4;stroke-opacity:1;stroke-dasharray:none"
       d="m 1059.9064,1078.2188 c 0,74.5625 -60.4376,135 -135.0001,135 l -2970.0001,0 c -74.5592,0 -135,-60.4375 -135,-135 l 0,-1890.00005 c 0,-74.5581 60.4408,-135 135,-135 l 2970.0001,0 c 74.5625,0 135.0001,60.4419 135.0001,135 l 0,1890.00005 z"
       id="path11" />
    <path
       inkscape:connector-curvature="0"
       style="fill:#000000;fill-rule:nonzero;stroke:none"
       d="m 969.9063,1078.2188 c 0,24.8125 -20.1875,45 -45,45 l -2970.0001,0 c -24.8132,0 -45,-20.1875 -45,-45 l 0,-1890.00005 c 0,-24.8132 20.1868,-45 45,-45 l 2970.0001,0 c 24.8125,0 45,20.1868 45,45 l 0,1890.00005 z m -45,-1991.25005 -2970.0001,0 c -55.8301,0 -101.25,45.4199 -101.25,101.25 l 0,1890.00005 c 0,55.825 45.4199,101.25 101.25,101.25 l 2970.0001,0 c 55.825,0 101.25,-45.425 101.25,-101.25 l 0,-1890.00005 c 0,-55.8301 -45.425,-101.25 -101.25,-101.25 z"
       id="path13" />
    <path
       inkscape:connector-curvature="0"
       style="fill:#000000;fill-rule:nonzero;stroke:none"
       d="m -1153.4463,303.7438 -18.9962,77.6875 38.9437,0 -19.9475,-77.6875 z m 48.4412,189.475 -18.9962,-73.9 -57.9387,0 -18.0463,73.9 -38.9425,0 67.4363,-270 37.9937,0 67.4375,270 -38.9438,0 z"
       id="path15" />
    <path
       inkscape:connector-curvature="0"
       style="fill:#000000;fill-rule:nonzero;stroke:none"
       d="m -14.6062,303.7438 -19,77.6875 38.95,0 -19.95,-77.6875 z m 48.4375,189.475 -19,-73.9 -57.9375,0 -18.0375,73.9 -38.95,0 67.4375,-270 38,0 67.425,270 -38.9375,0 z"
       id="path17" />
    <path
       inkscape:connector-curvature="0"
       style="fill:#000000;fill-rule:nonzero;stroke:none"
       d="m -473.0687,295.2188 c -3.8,-26.5262 -14.2625,-38.8437 -32.35,-38.8437 -31.3875,0 -42.8,24.6312 -42.8,94.7437 0,77.675 13.3125,108.9375 46.6125,108.9375 22.825,0 28.5375,-18.9375 28.5375,-38.8375 l 39.0125,0 c -0.95,44.525 -29.5,76.7375 -67.55,76.7375 -58.0375,0 -83.725,-46.425 -83.725,-145.9 0,-87.1537 27.5875,-133.575 80.875,-133.575 21.875,0 40.9,9.4738 53.275,27.4738 10.4625,13.2625 14.2625,24.6337 17.125,49.2637 l -39.0125,0 z"
       id="path19" />
    <path
       inkscape:connector-curvature="0"
       style="fill:#000000;fill-rule:nonzero;stroke:none"
       d="m -989.30625,261.1113 0,68.2075 54.15755,0 0,36.95 -54.15755,0 0,126.95 -38.95495,0 0,-270 137.7675,0 0,37.8925 -98.81255,0 z"
       id="path21" />
    <path
       inkscape:connector-curvature="0"
       style="fill:#000000;fill-rule:nonzero;stroke:none"
       d="m -813.7437,261.1113 0,68.2075 54.1625,0 0,36.95 -54.1625,0 0,126.95 -38.95,0 0,-270 137.7625,0 0,37.8925 -98.8125,0 z"
       id="path23" />
    <path
       inkscape:connector-curvature="0"
       style="fill:#000000;fill-rule:nonzero;stroke:none"
       d="m -677.1312,493.2188 0,-270 37.8,0 0,270 -37.8,0 z"
       id="path25" />
    <path
       inkscape:connector-curvature="0"
       style="fill:#000000;fill-rule:nonzero;stroke:none"
       d="m -254.0562,493.2188 0,-270 38.95,0 0,234 98.8125,0 0,36 -137.7625,0 z"
       id="path27" />
    <path
       inkscape:connector-curvature="0"
       style="fill:#000000;fill-rule:nonzero;stroke:none"
       d="m -1336.0262,261.1113 -39.7088,0 0,68.2075 39.7088,0 c 22.69,0 34.98,-12.3125 34.98,-34.1 0,-20.8425 -14.1801,-34.1075 -34.98,-34.1075 z m 33.0899,232.1075 -35.9275,-126.95 -36.8712,0 0,126.95 -38.76,0 0,-270 80.3587,0 c 42.545,0 70.9075,28.42 70.9075,72 0,32.2125 -13.2362,55.9 -38.7625,65.3625 l 38.7625,132.6375 -39.7075,0 z"
       id="path29" />
    <path
       inkscape:connector-curvature="0"
       style="fill:#000000;fill-rule:nonzero;stroke:none"
       d="m 395.4938,368.5313 c -11.6875,-7.575 -23.025,-15.1624 -30.2625,-20.2625 -21.775,-15.325 -33.3,-36 -33.3,-59.6824 0,-38.8413 30.4375,-70.1063 69.45,-70.1063 38.05,0 67.5375,29.37 68.5,70.1063 l -37.1125,0 c -0.95,-18.9463 -14.2625,-31.2638 -31.3875,-31.2638 -18.075,0 -32.35,13.2663 -32.35,31.2638 0,13.2625 5.7125,20.845 25.6875,32.2075 52.325,30.325 75.1625,59.6875 75.1625,98.5249 0,43.5875 -33.3,78.6375 -75.1625,78.6375 -47.575,0 -76.1125,-39.7874 -76.1125,-84.3125 l 38.0625,0 c 0,22.7375 11.4125,46.4126 38.05,46.4126 20.925,0 38.05,-18.9375 38.05,-40.7376 0,-16.9125 -6.9875,-31.1625 -37.275,-50.7875 z"
       id="path31" />
    <path
       inkscape:connector-curvature="0"
       style="fill:#000000;fill-rule:nonzero;stroke:none"
       d="m -1501.7025,259.2176 0,234.0012 -38.955,0 0,-234.0012 -49.4075,0 0,-35.9988 137.7675,0 0,35.9988 -49.405,0 z"
       id="path33" />
    <path
       inkscape:connector-curvature="0"
       style="fill:#000000;fill-rule:nonzero;stroke:none"
       d="m 250.5813,493.2188 -33.275,0 -25.6625,-141.1625 -25.6625,141.1625 -34.225,0 -42.775,-270 38.0125,0 22.825,144 26.6125,-144 30.425,0 25.6625,144 23.7625,-144 38.025,0 -43.725,270 z"
       id="path35" />
    <path
       inkscape:connector-curvature="0"
       style="fill:#000000;fill-rule:nonzero;stroke:none"
       d="m -1553.1624,943.2188 0,-122.2125 -73.7425,0 0,122.2125 -38.7626,0 0,-270 38.7626,0 0,109.9 73.7425,0 0,-109.9 38.7625,0 0,270 -38.7625,0 z"
       id="path37" />
    <path
       inkscape:connector-curvature="0"
       style="fill:#000000;fill-rule:nonzero;stroke:none"
       d="m -1346.8387,740.4813 c -6.6801,-23.6875 -17.1763,-34.1 -33.4001,-34.1 -17.1762,0 -27.675,10.4125 -34.355,33.15 -6.6799,20.85 -8.5887,38.85 -8.5887,69.1625 0,29.3625 2.8625,46.425 8.5887,68.2125 6.68,22.7375 17.1788,33.15 34.355,33.15 16.2238,0 26.72,-10.4125 33.4001,-33.15 6.6812,-21.7875 8.5887,-37.9 8.5887,-69.1625 0,-30.3125 -2.8613,-47.3625 -8.5887,-67.2625 z m 30.5362,161.05 c -13.3587,32.2125 -33.3987,46.425 -63.9363,46.425 -32.4462,0 -51.5325,-14.2125 -64.8925,-46.425 -11.4511,-26.525 -15.2687,-52.1 -15.2687,-93.7875 0,-40.7375 3.8176,-68.2125 15.2687,-93.7875 14.3152,-32.2125 33.4013,-45.475 64.8925,-45.475 31.4925,0 50.5776,13.2625 63.9363,46.425 11.4526,26.525 15.2712,52.1 15.2712,92.8375 0,41.6875 -3.8187,68.2125 -15.2712,93.7875 z"
       id="path39" />
    <path
       inkscape:connector-curvature="0"
       style="fill:#000000;fill-rule:nonzero;stroke:none"
       d="m -984.90355,740.4813 c -6.6788,-23.6875 -17.17505,-34.1 -33.39885,-34.1 -17.1776,0 -27.6749,10.4125 -34.3551,33.15 -6.68,20.85 -8.5887,38.85 -8.5887,69.1625 0,29.3625 2.8639,46.425 8.5887,68.2125 6.6802,22.7375 17.1775,33.15 34.3551,33.15 16.2238,0 26.72005,-10.4125 33.39885,-33.15 6.6824,-21.7875 8.5887,-37.9 8.5887,-69.1625 0,-30.3125 -2.8612,-47.3625 -8.5887,-67.2625 z m 30.53745,161.05 c -13.35755,32.2125 -33.39875,46.425 -63.9363,46.425 -32.4463,0 -51.5326,-14.2125 -64.8901,-46.425 -11.455,-26.525 -15.27,-52.1 -15.27,-93.7875 0,-40.7375 3.815,-68.2125 15.27,-93.7875 14.3125,-32.2125 33.3988,-45.475 64.8901,-45.475 31.49245,0 50.57875,13.2625 63.9363,46.425 11.4525,26.525 15.2712,52.1 15.2712,92.8375 0,41.6875 -3.8187,68.2125 -15.2712,93.7875 z"
       id="path41" />
    <path
       inkscape:connector-curvature="0"
       style="fill:#000000;fill-rule:nonzero;stroke:none"
       d="m -1792.4663,711.1188 -39.7086,0 0,76.7375 39.7086,0 c 22.6901,0 34.98,-14.2125 34.98,-38.85 0,-22.7375 -14.1824,-37.8875 -34.98,-37.8875 z m 1.8913,113.675 -41.5999,0 0,118.425 -38.7613,0 0,-270 80.3613,0 c 42.5412,0 70.9062,30.3125 70.9062,75.7875 0,49.2625 -25.5275,75.7875 -70.9062,75.7875 z"
       id="path43" />
    <path
       inkscape:connector-curvature="0"
       style="fill:#000000;fill-rule:nonzero;stroke:none"
       d="m -1180.2699,709.2188 0,234 -38.955,0 0,-234 -49.4064,0 0,-36 137.7675,0 0,36 -49.4061,0 z"
       id="path45" />
    <path
       inkscape:connector-curvature="0"
       style="fill:#000000;fill-rule:nonzero;stroke:none"
       d="m 322.8063,745.2188 c -3.8125,-26.525 -14.275,-38.8375 -32.35,-38.8375 -31.4,0 -42.8125,24.625 -42.8125,94.7375 0,77.675 13.325,108.9375 46.625,108.9375 22.825,0 28.5375,-18.9375 28.5375,-38.8375 l 39,0 c -0.95,44.525 -29.4875,76.7375 -67.5375,76.7375 -58.0375,0 -83.725,-46.425 -83.725,-145.9 0,-87.15 27.5875,-133.575 80.8625,-133.575 21.8875,0 40.9125,9.475 53.275,27.475 10.475,13.2625 14.275,24.625 17.125,49.2625 l -39,0 z"
       id="path47" />
    <path
       inkscape:connector-curvature="0"
       style="fill:#000000;fill-rule:nonzero;stroke:none"
       d="m 705.3688,738.5813 c -6.6125,-18.9375 -17.9625,-27.475 -34.9875,-27.475 l -32.1375,0 0,194.2125 32.1375,0 c 22.7,0 34.9875,-18 38.7625,-38.8375 1.9,-17.05 3.7875,-36 3.7875,-56.8375 0,-30.325 -2.8375,-59.6875 -7.5625,-71.0625 z m 6.6125,192.325 c -9.45,8.525 -22.6875,12.3125 -37.8125,12.3125 l -74.6875,0 0,-270 69.0125,0 c 22.6875,0 34.0375,2.8375 43.4875,10.425 16.075,11.3625 27.425,32.2 32.15,59.675 3.775,19.9 6.6125,43.5875 6.6125,64.425 0,62.525 -12.2875,102.3125 -38.7625,123.1625 z"
       id="path49" />
    <path
       inkscape:connector-curvature="0"
       style="fill:#000000;fill-rule:nonzero;stroke:none"
       d="m -759.0937,943.2188 0,-270 127.3125,0 0,37.8875 -88.3625,0 0,68.2125 56.0625,0 0,36.95 -56.0625,0 0,89.05 98.8125,0 0,37.9 -137.7625,0 z"
       id="path51" />
    <path
       inkscape:connector-curvature="0"
       style="fill:#000000;fill-rule:nonzero;stroke:none"
       d="m 415.8063,943.2188 0,-270 127.325,0 0,37.8875 -88.3625,0 0,68.2125 56.05,0 0,36.95 -56.05,0 0,89.05 98.8125,0 0,37.9 -137.775,0 z"
       id="path53" />
    <path
       inkscape:connector-curvature="0"
       style="fill:#000000;fill-rule:nonzero;stroke:none"
       d="m -325.8062,711.1063 0,68.2125 54.1625,0 0,36.95 -54.1625,0 0,126.95 -38.95,0 0,-270 137.7625,0 0,37.8875 -98.8125,0 z"
       id="path55" />
    <path
       inkscape:connector-curvature="0"
       style="fill:#000000;fill-rule:nonzero;stroke:none"
       d="m -453.4687,943.2188 -83.2,-180.95 0,180.95 -38.7625,0 0,-270 38.7625,0 73.75,162 0,-162 38.7625,0 0,270 -29.3125,0 z"
       id="path57" />
    <path
       inkscape:connector-curvature="0"
       style="fill:#000000;fill-rule:nonzero;stroke:none"
       d="m -81.0312,740.4813 c -6.675,-23.6875 -17.175,-34.1 -33.4,-34.1 -17.175,0 -27.675,10.4125 -34.35,33.15 -6.6875,20.85 -8.5875,38.85 -8.5875,69.1625 0,29.3625 2.8625,46.425 8.5875,68.2125 6.675,22.7375 17.175,33.15 34.35,33.15 16.225,0 26.725,-10.4125 33.4,-33.15 6.6875,-21.7875 8.5875,-37.9 8.5875,-69.1625 0,-30.3125 -2.8625,-47.3625 -8.5875,-67.2625 z m 30.5375,161.05 c -13.3625,32.2125 -33.4,46.425 -63.9375,46.425 -32.45,0 -51.525,-14.2125 -64.8875,-46.425 -11.45,-26.525 -15.275,-52.1 -15.275,-93.7875 0,-40.7375 3.825,-68.2125 15.275,-93.7875 14.3125,-32.2125 33.4,-45.475 64.8875,-45.475 31.4875,0 50.575,13.2625 63.9375,46.425 11.45,26.525 15.275,52.1 15.275,92.8375 0,41.6875 -3.825,68.2125 -15.275,93.7875 z"
       id="path59" />
    <path
       inkscape:connector-curvature="0"
       style="fill:#000000;fill-rule:nonzero;stroke:none"
       d="m 97.2438,711.1063 -39.7,0 0,68.2125 39.7,0 c 22.7,0 34.9875,-12.3125 34.9875,-34.1 0,-20.8375 -14.1875,-34.1125 -34.9875,-34.1125 z m 33.0875,232.1125 -35.925,-126.95 -36.8625,0 0,126.95 -38.7625,0 0,-270 80.35,0 c 42.55,0 70.9125,28.425 70.9125,72 0,32.2125 -13.2375,55.9 -38.7625,65.3625 l 38.7625,132.6375 -39.7125,0 z"
       id="path61" />
    <path
       inkscape:connector-curvature="0"
       style="fill:#000000;fill-rule:nonzero;stroke:none"
       d="m -560.0937,-41.1562 c -77.6625,0 -140.625,-62.95875 -140.625,-140.625 0,-77.66625 62.9625,-140.625 140.625,-140.625 77.6625,0 140.625,62.95875 140.625,140.625 0,77.66625 -62.9625,140.625 -140.625,140.625 z m 337.5,-331.875 -675,0 c -12.425,0 -22.5,10.07375 -22.5,22.5 l 0,337.5 c 0,12.42625 10.075,22.5 22.5,22.5 l 675,0 c 12.425,0 22.5,-10.07375 22.5,-22.5 l 0,-337.5 c 0,-12.42625 -10.075,-22.5 -22.5,-22.5 z"
       id="path63" />
    <path
       inkscape:connector-curvature="0"
       style="fill:#000000;fill-rule:nonzero;stroke:none"
       d="m -666.9687,-395.5312 213.75,0 c 12.425,0 22.5,-10.07375 22.5,-22.49995 l 0,-90.0001 c 0,-12.4262 -10.075,-22.5 -22.5,-22.5 l -213.75,0 c -12.425,0 -22.5,10.0738 -22.5,22.5 l 0,90.0001 c 0,12.4262 10.075,22.49995 22.5,22.49995 z"
       id="path65" />
    <path
       inkscape:connector-curvature="0"
       style="fill:#000000;fill-rule:nonzero;stroke:none"
       d="m -723.4187,-451.78125 8.7375,-32.6 -195.6,-52.4125 -8.7375,32.6 195.6,52.4125 z"
       id="path67" />
    <path
       inkscape:connector-curvature="0"
       style="fill:#000000;fill-rule:nonzero;stroke:none"
       d="m -688.5062,-553.03125 23.8625,-23.8662 -143.1875,-143.1888 -23.8625,23.865 143.1875,143.19 z"
       id="path69" />
    <path
       inkscape:connector-curvature="0"
       style="fill:#000000;fill-rule:nonzero;stroke:none"
       d="m -396.7687,-451.78125 -8.7375,-32.6 195.6,-52.4125 8.7375,32.6 -195.6,52.4125 z"
       id="path71" />
    <path
       inkscape:connector-curvature="0"
       style="fill:#000000;fill-rule:nonzero;stroke:none"
       d="m -431.6812,-553.03125 -23.8625,-23.8662 143.1875,-143.1888 23.8625,23.865 -143.1875,143.19 z"
       id="path73" />
    <path
       inkscape:connector-curvature="0"
       style="fill:#000000;fill-rule:nonzero;stroke:none"
       d="m -576.9687,-564.28125 33.75,0 0,-202.5 -33.75,0 0,202.5 z"
       id="path75" />
  </g>
</svg>
