<?xml version="1.0" encoding="UTF-8" standalone="no"?>
<!-- Generator: Adobe Illustrator 12.0.1, SVG Export Plug-In  -->

<svg
   xmlns:dc="http://purl.org/dc/elements/1.1/"
   xmlns:cc="http://creativecommons.org/ns#"
   xmlns:rdf="http://www.w3.org/1999/02/22-rdf-syntax-ns#"
   xmlns:svg="http://www.w3.org/2000/svg"
   xmlns="http://www.w3.org/2000/svg"
   xmlns:sodipodi="http://sodipodi.sourceforge.net/DTD/sodipodi-0.dtd"
   xmlns:inkscape="http://www.inkscape.org/namespaces/inkscape"
   version="1.1"
   width="224.71875"
   height="280.5"
   viewBox="-1 0 224.71875 280.5"
   enable-background="new -1 0 289 288"
   xml:space="preserve"
   id="svg2"
   inkscape:version="0.48.2 r9819"
   sodipodi:docname="MUTCD R10-10R.svg"><metadata
   id="metadata22"><rdf:RDF><cc:Work
       rdf:about=""><dc:format>image/svg+xml</dc:format><dc:type
         rdf:resource="http://purl.org/dc/dcmitype/StillImage" /><dc:title></dc:title></cc:Work></rdf:RDF></metadata><sodipodi:namedview
   pagecolor="#ffffff"
   bordercolor="#666666"
   borderopacity="1"
   objecttolerance="10"
   gridtolerance="10"
   guidetolerance="10"
   inkscape:pageopacity="0"
   inkscape:pageshadow="2"
   inkscape:window-width="1280"
   inkscape:window-height="1004"
   id="namedview20"
   showgrid="false"
   fit-margin-top="0"
   fit-margin-left="0"
   fit-margin-right="0"
   fit-margin-bottom="0"
   inkscape:zoom="1.638889"
   inkscape:cx="66.073709"
   inkscape:cy="64.569882"
   inkscape:window-x="-8"
   inkscape:window-y="-8"
   inkscape:window-maximized="1"
   inkscape:current-layer="svg2"
   showguides="true"
   inkscape:guide-bbox="true" />
<defs
   id="defs4">
</defs>







<path
   inkscape:connector-curvature="0"
   d="m 13.70861,0.73862 195.29875,0 c 7.68375,0 13.95,6.26625 13.95,13.95 l 0,251.1 c 0,7.68375 -6.26625,13.95 -13.95,13.95 l -195.29875,0 c -7.68375,0 -13.95,-6.26625 -13.95,-13.95 l 0,-251.1 c 0,-7.58625 6.36375,-13.95 13.95,-13.95"
   style="fill:#ffffff;fill-opacity:1;fill-rule:nonzero;stroke:#000000;stroke-width:1.5;stroke-miterlimit:4;stroke-opacity:1;stroke-dasharray:none"
   id="path16006" /><path
   inkscape:connector-curvature="0"
   d="m 13.75086,4.226 195.215,0 c 5.74875,0.01 10.4825,4.765 10.50375,10.5075 l 0,251.01375 c -0.0213,5.745 -4.755,10.48125 -10.50375,10.50375 l -195.215,0 c -5.74,-0.0225 -10.4925,-4.75875 -10.505,-10.50375 l 0,-251.01375 C 3.25586,8.991 8.01086,4.236 13.75086,4.226"
   style="fill:#000000;fill-opacity:1;fill-rule:evenodd;stroke:none"
   id="path16014" /><path
   inkscape:connector-curvature="0"
   d="m 13.82676,10.03874 195.06375,0 c 2.6175,-0.04 4.8125,2.14375 4.76625,4.7675 l 0,250.86125 c 0.0463,2.6225 -2.14875,4.81375 -4.76625,4.77125 l -195.06375,0 c -2.625,0.0425 -4.805,-2.14875 -4.7675,-4.77125 l 0,-250.86125 c -0.0375,-2.6275 2.1425,-4.8075 4.7675,-4.7675"
   style="fill:#ffffff;fill-opacity:1;fill-rule:evenodd;stroke:none"
   id="path16018" /><path
   inkscape:connector-curvature="0"
   d="m 169.3925,44.13539 0,-6.19375 -23.64375,0 0,6.19375 8.47875,0 0,40.275 6.6875,0 0,-40.275 8.4775,0 z m -27.125,0.3275 0,-6.52125 -23.64375,0 0,46.46875 6.68375,0 0,-21.85 9.295,0 0,-6.3575 -9.295,0 0,-11.74 16.96,0 z m -32.18125,39.9475 0,-6.52 -16.96,0 0,-15.33 9.62125,0 0,-6.3575 -9.62125,0 0,-11.74 15.1675,0 0,-6.52125 -21.85,0 0,46.46875 23.6425,0 z m -30.7125,0 0,-6.19625 -16.95625,0 0,-40.2725 -6.6875,0 0,46.46875 23.64375,0 z"
   style="fill:#000000;fill-opacity:1;fill-rule:evenodd;stroke:none"
   id="path16022" /><path
   inkscape:connector-curvature="0"
   d="m 173.72212,163.45925 0,-46.4675 -6.685,0 0,27.88 -12.71875,-27.88 -6.68375,0 0,46.4675 6.68375,0 0,-31.14375 14.35,31.14375 5.05375,0 z M 133.13087,129.383 c 0,3.75 -2.11875,5.87 -6.03125,5.87 l -6.8475,0 0,-11.74125 6.8475,0 c 3.585,0 6.03125,2.2825 6.03125,5.87125 m 6.52375,34.07625 -6.6875,-22.82625 c 4.405,-1.63 6.6875,-5.7075 6.6875,-11.25 0,-7.5 -4.89125,-12.39125 -12.2275,-12.39125 l -13.86125,0 0,46.4675 6.68625,0 0,-21.85125 6.3575,0 6.19375,21.85125 6.85125,0 z m -36.3525,-13.85875 0,-32.60875 -6.6875,0 0,33.42625 c 0,4.40125 -2.60625,7.3375 -6.19375,7.3375 -3.91125,0 -6.52,-2.93625 -6.52,-7.3375 l 0,-33.42625 -6.6875,0 0,32.60875 c 0,3.75375 0.49,5.70875 1.79375,8.155 2.28375,3.9125 6.84875,6.5525 11.41375,6.5525 4.40125,0 8.80375,-2.805 11.08625,-6.5525 1.3075,-2.44625 1.795,-4.40125 1.795,-8.155 m -32.76375,-26.41625 0,-6.1925 -23.64375,0 0,6.1925 8.47875,0 0,40.275 6.6875,0 0,-40.275 8.4775,0"
   style="fill:#000000;fill-opacity:1;fill-rule:evenodd;stroke:none"
   id="path16026" /><path
   inkscape:connector-curvature="0"
   d="m 203.23525,242.50849 0,-6.19375 -16.95625,0 0,-40.275 -6.685,0 0,46.46875 23.64125,0 z m -42.29625,-19.235 -6.68375,0 3.26,-13.375 3.42375,13.375 z m 11.5775,19.235 -11.5775,-46.46875 -6.52,0 -11.5775,46.46875 6.68625,0 3.09625,-12.71375 9.945,0 3.2625,12.71375 6.685,0 z m -36.7525,0 0,-46.46875 -6.68375,0 0,27.88125 -12.72125,-27.88125 -6.685,0 0,46.46875 6.685,0 0,-31.13875 14.35,31.13875 5.055,0 z m -35.9375,-12.8775 0,-9.62125 -11.9,0 0,6.52125 5.21625,0 0,3.1 c 0,4.8925 -1.63125,7.175 -5.055,7.175 -3.5875,0 -5.87,-2.4475 -6.84875,-7.01125 -0.65,-3.59125 -0.9775,-7.66625 -0.9775,-11.5775 0,-5.54625 0.815,-10.765 2.12,-13.0475 1.14,-2.2825 2.935,-3.42125 5.2175,-3.42125 3.26125,0 5.38,2.12 5.54375,5.22 l 6.68375,0 c -0.32375,-6.84875 -5.37875,-11.74 -12.06375,-11.74 -5.38125,0 -10.11125,3.58375 -11.73875,8.47625 -1.6325,4.40125 -2.1225,9.13125 -2.1225,15.65125 0,6.03625 0.9775,12.5575 2.445,15.9775 2.28375,5.21875 6.36125,8.02375 11.90375,8.02375 4.72875,0 8.47875,-2.4775 10.2725,-6.55125 0.98,-1.95625 1.30375,-3.9175 1.30375,-7.175 m -35.9375,-33.59125 -6.52,0 0,46.46875 6.52,0 0,-46.46875 z m -15.06375,33.755 c 0,-6.685 -3.91125,-11.74 -12.88125,-16.95875 -3.42375,-1.9575 -4.40125,-3.26375 -4.40125,-5.54625 0,-3.095 2.4425,-5.37875 5.5425,-5.37875 2.93625,0 5.21875,2.12125 5.3825,5.37875 l 6.3575,0 c -0.1625,-7.0125 -5.21875,-12.06125 -11.74,-12.06125 -6.68375,0 -11.9025,5.37625 -11.9025,12.06125 0,4.08 1.955,7.66375 5.70875,10.27375 9.4575,6.3575 6.8475,4.565 7.82625,5.54625 2.77,2.12 3.75,4.075 3.75,6.685 0,3.74625 -2.93625,7.01125 -6.52375,7.01125 -4.565,0 -6.52375,-4.07625 -6.52375,-7.9925 l -6.52125,0 c 0,7.665 4.8925,14.54375 13.045,14.54375 7.175,0 12.88125,-6.06125 12.88125,-13.5625"
   style="fill:#000000;fill-opacity:1;fill-rule:evenodd;stroke:none"
   id="path16030" /></svg>