<?xml version="1.0" encoding="UTF-8" standalone="no"?>
<!-- Created with Inkscape (http://www.inkscape.org/) -->

<svg
   xmlns:dc="http://purl.org/dc/elements/1.1/"
   xmlns:cc="http://creativecommons.org/ns#"
   xmlns:rdf="http://www.w3.org/1999/02/22-rdf-syntax-ns#"
   xmlns:svg="http://www.w3.org/2000/svg"
   xmlns="http://www.w3.org/2000/svg"
   xmlns:sodipodi="http://sodipodi.sourceforge.net/DTD/sodipodi-0.dtd"
   xmlns:inkscape="http://www.inkscape.org/namespaces/inkscape"
   width="2170"
   height="3250"
   id="svg2"
   sodipodi:version="0.32"
   inkscape:version="0.48.2 r9819"
   version="1.0"
   sodipodi:docname="AJAX4.svg">
  <defs
     id="defs4">
    <clipPath
       id="Clip0">
      <path
         inkscape:connector-curvature="0"
         d="m 0,0 0,3024.5 2160.5,0 L 2160.5,0 0,0 z"
         transform="translate(0,0.5)"
         id="path7" />
    </clipPath>
    <clipPath
       id="Clip0-1">
      <path
         inkscape:connector-curvature="0"
         d="m 0,0 0,3024.5 2592.5,0 L 2592.5,0 0,0 z"
         transform="translate(0,0.5)"
         id="path7-7" />
    </clipPath>
    <clipPath
       id="Clip0-4">
      <path
         inkscape:connector-curvature="0"
         d="m 0,0 0,1728.5 4320.5,0 L 4320.5,0 0,0 z"
         transform="translate(0,0.5)"
         id="path7-0" />
    </clipPath>
  </defs>
  <sodipodi:namedview
     id="base"
     pagecolor="#ffffff"
     bordercolor="#666666"
     borderopacity="1.0"
     gridtolerance="10000"
     guidetolerance="10"
     objecttolerance="10"
     inkscape:pageopacity="0.0"
     inkscape:pageshadow="2"
     inkscape:zoom="0.087182787"
     inkscape:cx="4413.026"
     inkscape:cy="1620.7721"
     inkscape:document-units="px"
     inkscape:current-layer="layer1"
     width="601px"
     height="601px"
     inkscape:window-width="1280"
     inkscape:window-height="1004"
     inkscape:window-x="-8"
     inkscape:window-y="-8"
     showgrid="false"
     fit-margin-top="0"
     fit-margin-left="0"
     fit-margin-right="0"
     fit-margin-bottom="0"
     inkscape:window-maximized="1"
     showguides="true"
     inkscape:guide-bbox="true" />
  <metadata
     id="metadata7">
    <rdf:RDF>
      <cc:Work
         rdf:about="">
        <dc:format>image/svg+xml</dc:format>
        <dc:type
           rdf:resource="http://purl.org/dc/dcmitype/StillImage" />
        <dc:title></dc:title>
      </cc:Work>
    </rdf:RDF>
  </metadata>
  <g
     inkscape:label="Layer 1"
     inkscape:groupmode="layer"
     id="layer1"
     transform="translate(2486.5938,2045.8438)">
    <path
       inkscape:connector-curvature="0"
       style="fill:#ffffff;fill-opacity:1;fill-rule:nonzero;stroke:#000000;stroke-width:10;stroke-linecap:butt;stroke-linejoin:miter;stroke-miterlimit:4;stroke-opacity:1;stroke-dasharray:none"
       d="m -321.5937,1064.1563 c 0,74.5625 -60.4375,135 -135,135 l -1890.0001,0 c -74.5592,0 -135,-60.4375 -135,-135 l 0,-2970.0001 c 0,-74.5593 60.4408,-135 135,-135 l 1890.0001,0 c 74.5625,0 135,60.4407 135,135 l 0,2970.0001 z"
       id="path11" />
    <path
       inkscape:connector-curvature="0"
       style="fill:#000000;fill-rule:nonzero;stroke:none"
       d="m -2346.5938,1165.4063 c -55.8301,0 -101.25,-45.4251 -101.25,-101.25 l 0,-2970.0001 c 0,-55.8301 45.4199,-101.25 101.25,-101.25 l 1890.0001,0 c 55.825,0 101.25,45.4199 101.25,101.25 l 0,2970.0001 c 0,55.8249 -45.425,101.25 -101.25,101.25 l -1890.0001,0 z"
       id="path13" />
    <path
       inkscape:connector-curvature="0"
       style="fill:#ffffff;fill-rule:nonzero;stroke:none"
       d="m -2346.5938,1109.1563 c -24.8132,0 -45,-20.1875 -45,-45 l 0,-2970.0001 c 0,-24.8132 20.1868,-45 45,-45 l 1890.0001,0 c 24.8125,0 45,20.1868 45,45 l 0,2970.0001 c 0,24.8125 -20.1875,45 -45,45 l -1890.0001,0 z"
       id="path15" />
    <path
       inkscape:connector-curvature="0"
       style="fill:#000000;fill-rule:nonzero;stroke:none"
       d="m -1202.5562,-1693.315 c -14.25,-23.6862 -31.6575,-33.1587 -58.5637,-34.7374 -34.8225,-1.5788 -56.9825,15.7875 -72.81,55.2625 -11.075,26.8425 -17.4088,67.895 -17.4088,105.7887 0,47.3688 9.4925,96.3175 26.9063,124.7363 14.2462,23.685 33.2362,34.7412 61.7262,34.7412 33.2375,0 53.8251,-17.3712 69.65,-56.8425 9.5,-23.6875 17.4125,-67.8962 17.4125,-102.635 0,-50.5237 -9.5,-96.3137 -26.9125,-126.3137 z m 49.0625,307.8938 c -25.325,34.7363 -61.725,50.5288 -109.2125,50.5288 -63.3062,0 -102.88,-25.2688 -129.7887,-80.53 -18.99,-37.8938 -31.6525,-97.8926 -31.6525,-151.5788 0,-74.21 18.99,-140.5225 49.065,-183.1562 26.9075,-34.7401 63.3137,-50.5275 115.5462,-50.5275 56.98,0 96.5425,25.2649 125.0425,80.5275 18.9875,39.4725 30.075,96.3162 30.075,153.1562 0,71.0538 -17.4125,142.1063 -49.075,181.58 z"
       id="path17" />
    <path
       inkscape:connector-curvature="0"
       style="fill:#000000;fill-rule:nonzero;stroke:none"
       d="m -798.5688,-1714.3962 c -12.6374,-6.3162 -20.5249,-7.8963 -42.6374,-7.8963 l -93.1625,0 0,110.5288 93.1626,0 c 22.1125,0 30,-1.58 42.6375,-7.8937 15.7875,-7.895 26.85,-28.4238 26.85,-47.3713 0,-18.9475 -11.0625,-37.8937 -26.85,-47.3675 z m 30,159.4725 c -20.5249,9.4725 -47.375,15.7925 -82.1125,15.7925 l -83.6875,0 0,195.7913 -71.0499,0 0,-450.0038 154.7374,0 c 36.3251,0 60.0126,3.1575 82.1126,14.2088 39.47505,18.95 69.47505,66.3162 69.47505,112.1062 0,47.3713 -30,94.7388 -69.47505,112.105 z"
       id="path19" />
    <path
       inkscape:connector-curvature="0"
       style="fill:#000000;fill-rule:nonzero;stroke:none"
       d="m -1587.3212,-1730.1862 0,386.8413 -71.3575,0 0,-386.8413 -103.0863,0 0,-63.1587 279.1138,0 0,63.1587 -104.67,0 z"
       id="path21" />
    <path
       inkscape:connector-curvature="0"
       style="fill:#000000;fill-rule:nonzero;stroke:none"
       d="m -1841.9775,-1370.7387 c -25.2612,22.1088 -60.0025,34.7387 -97.9,34.7387 -77.37,0 -134.2187,-45.7887 -164.2212,-113.6849 l 67.9,-25.26 c 18.9512,42.6262 53.6875,66.3112 96.3212,66.3112 41.0575,0 69.48,-28.4212 69.48,-66.3112 0,-60.0025 -69.48,-69.4738 -127.9049,-93.1613 -26.8438,-11.05 -86.8463,-37.8938 -86.8463,-112.1038 0,-88.4237 60.0025,-121.5774 140.535,-121.5774 63.1612,0 105.7962,36.3137 127.9025,91.575 l -63.1588,18.9462 c 0,0 -15.7912,-37.89 -66.3237,-39.4712 -33.1588,-1.5813 -72.6388,11.0525 -69.4775,52.105 6.3187,83.685 217.91,28.4224 217.91,205.2625 0,41.0512 -15.79,77.3675 -44.2163,102.6312 z"
       id="path23" />
    <path
       inkscape:connector-curvature="0"
       style="fill:#000000;fill-rule:nonzero;stroke:none"
       d="m -854.6062,-443.34365 -103.275,-182.85 0,182.85 -42.625,0 0,-270 42.625,0 98.5375,172.4124 0,-172.4124 42.6375,0 0,270 -37.9,0 z"
       id="path25" />
    <path
       inkscape:connector-curvature="0"
       style="fill:#000000;fill-rule:nonzero;stroke:none"
       d="m -1108.5062,-443.34365 0,-270 43.2,0 0,270 -43.2,0 z"
       id="path27" />
    <path
       inkscape:connector-curvature="0"
       style="fill:#000000;fill-rule:nonzero;stroke:none"
       d="m -2021.7162,-443.34365 0,-270.0126 42.5762,0 0,230.225 124.8913,0 0,39.7876 -167.4675,0 z"
       id="path29" />
    <path
       inkscape:connector-curvature="0"
       style="fill:#000000;fill-rule:nonzero;stroke:none"
       d="m -1429.54,-459.78115 c -15.1575,13.2625 -36.0012,20.8374 -58.74,20.8374 -46.4225,0 -80.5312,-27.475 -98.5337,-68.2124 l 40.74,-15.1501 c 11.3712,25.575 32.2125,39.7875 57.7937,39.7875 24.6325,0 41.6863,-17.05 41.6863,-39.7875 0,-36 -41.6863,-41.6875 -76.7425,-55.8999 -16.105,-6.625 -52.1075,-22.7376 -52.1075,-67.2625 0,-53.05 36.0025,-72.9501 84.3225,-72.9501 37.895,0 63.4762,21.7875 76.7412,54.9501 l -37.8962,11.3624 c 0,0 -9.475,-22.7249 -39.7938,-23.6749 -19.8962,-0.9501 -43.5825,6.625 -41.685,31.2625 3.7888,50.2124 130.7425,17.05 130.7425,123.1499 0,24.6375 -9.4737,46.425 -26.5275,61.5876 z"
       id="path31" />
    <path
       inkscape:connector-curvature="0"
       style="fill:#000000;fill-rule:nonzero;stroke:none"
       d="m -1215.9436,-443.34365 0,-117.475 -98.5339,0 0,117.475 -42.6337,0 0,-270 42.6337,0 0,108.9375 98.5339,0 0,-108.9375 42.6374,0 0,270 -42.6375,0 z"
       id="path33" />
    <path
       inkscape:connector-curvature="0"
       style="fill:#000000;fill-rule:nonzero;stroke:none"
       d="m -1722.755,-638.50615 -27.6312,75.7875 54.3113,0 -26.6801,-75.7875 z m 68.605,195.1625 -26.68,-75.7875 -84.8025,0 -26.6787,75.7875 -45.7375,0 93.3787,-270 42.8788,0 93.3775,270 -45.7363,0 z"
       id="path35" />
    <path
       inkscape:connector-curvature="0"
       style="fill:#000000;fill-rule:nonzero;stroke:none"
       d="m -2187.1062,-670.71865 0,66.325 78.5275,0 0,43.575 -78.5275,0 0,117.475 -42.5788,0 0,-270 167.4688,0 0,42.625 -124.89,0 z"
       id="path37" />
    <path
       inkscape:connector-curvature="0"
       style="fill:#000000;fill-rule:nonzero;stroke:none"
       d="m -658.76875,-438.60625 c -40.7375,0 -64.425,-15.1624 -80.5375,-49.2624 -11.36235,-23.6875 -18.00005,-56.85 -18.00005,-90 0,-43.5875 12.31255,-86.2125 30.32515,-109.9 16.0999,-19.9001 38.8374,-30.3125 69.1624,-30.3125 41.6875,0 66.3125,17.05 84.3125,59.6875 l -40.7375,16.0999 c -11.3624,-23.6875 -22.7374,-32.2124 -43.575,-32.2124 -21.8,0 -36.0125,9.475 -45.4875,33.1625 -6.625,16.1 -10.4124,40.7374 -10.4124,63.475 0,28.4125 4.7375,56.8375 13.2624,73.8874 8.525,15.1626 20.8375,21.8001 36.95,21.8001 27.4751,0 47.375,-17.0625 47.375,-41.6875 l 0,-11.375 -49.2749,0 0,-42.625 91.8999,0 0,54 c 0,49.2624 -36,85.2624 -85.2625,85.2624 z"
       id="path39" />
    <path
       inkscape:connector-curvature="0"
       style="fill:#000000;fill-rule:nonzero;stroke:none"
       d="m -1673.8449,-200.19365 c -8.8401,-5.0501 -13.8938,-6.3125 -32.8426,-6.3125 l -68.2137,0 0,88.425 68.2137,0 c 17.6863,0 24.0025,-1.2625 32.8426,-6.3125 13.8987,-7.5876 22.7424,-22.75 22.7424,-37.9001 0,-15.1624 -8.8437,-30.3125 -22.7424,-37.8999 z m 25.2662,296.85 -58.1088,-156.6376 -68.2137,0 0,156.6376 -56.8463,0 0,-360 118.7425,0 c 27.7925,0 46.7426,2.525 64.4263,11.3624 31.5825,15.1626 54.32,53.05 54.32,89.6875 0,37.9001 -22.7375,75.7876 -55.5825,90.9501 l 63.165,168 -61.9025,0 z"
       id="path41" />
    <path
       inkscape:connector-curvature="0"
       style="fill:#000000;fill-rule:nonzero;stroke:none"
       d="m -1058.6062,-191.34365 c -8.8375,-8.85 -21.475,-15.1625 -36.6375,-15.1625 l -64.425,0 0,245.05 56.85,0 c 18.95,0 30.325,-3.7876 40.425,-13.8875 21.475,-21.4751 32.8375,-60.6376 32.8375,-108.6376 0,-48 -11.3625,-88.4249 -29.05,-107.3624 z m 24,267.7874 c -13.8875,12.6375 -32.8375,18.95 -51.7875,20.2126 -3.7874,0 -11.375,0 -20.2125,0 l -109.8999,0 0,-360 116.2124,0 c 36.6375,0 50.5375,3.7874 69.4875,18.9375 37.8875,32.8499 59.3625,89.6875 59.3625,160.4249 0,72 -22.7375,128.8501 -63.1625,160.4251 z"
       id="path43" />
    <path
       inkscape:connector-curvature="0"
       style="fill:#000000;fill-rule:nonzero;stroke:none"
       d="m -1513.2387,96.65635 0,-360 211.935,0 0,56.8375 -155.1675,0 0,88.425 104.7075,0 0,58.0999 -104.7075,0 0,98.5251 166.5225,0 0,58.1125 -223.29,0 z"
       id="path45" />
    <path
       inkscape:connector-curvature="0"
       style="fill:#000000;fill-rule:nonzero;stroke:none"
       d="m -1460.55,1012.0063 c 8.815,0.725 17.9275,-1.125 26.1675,-5.875 21.5225,-12.425 28.8963,-39.9499 16.4688,-61.4749 -2.1825,-3.7751 -4.8413,-7.1126 -7.8413,-10 l -105.7087,-99.8125 729.3575,-421.0876 -118.1375,-204.5999 -729.345,421.0875 -33.5875,-141.4501 c -0.9925,-4.0375 -2.5513,-8 -4.735,-11.7875 -12.4263,-21.525 -39.9463,-28.9 -61.4688,-16.4749 -8.24,4.7624 -14.395,11.7375 -18.1725,19.7249 l -233.5262,489.3251 540.5287,42.4249 z"
       id="path47" />
    <path
       inkscape:connector-curvature="0"
       style="fill:#000000;fill-rule:nonzero;stroke:none"
       d="m -657.40615,-893.34495 -103.26245,-182.84255 0,182.84255 -42.6377,0 0,-270.00125 42.6377,0 98.52485,172.4225 0,-172.4225 42.6375,0 0,270.00125 -37.8999,0 z"
       id="path49" />
    <path
       inkscape:connector-curvature="0"
       style="fill:#000000;fill-rule:nonzero;stroke:none"
       d="m -921.5812,-1103.6612 c -8.55,-14.2112 -19,-19.8937 -35.1375,-20.8425 -20.9001,-0.9475 -34.2,9.4725 -43.6875,33.1575 -6.6501,16.1063 -10.45,40.7375 -10.45,63.4738 0,28.4212 5.7,57.78995 16.1375,74.84245 8.55,14.21125 19.95,20.8425 37.05,20.8425 19.9375,0 32.2874,-10.4225 41.775,-34.105 5.7,-14.21125 10.45,-40.73745 10.45,-61.57995 0,-30.315 -5.7,-57.7888 -16.1375,-75.7888 z m 29.4375,184.73625 c -15.2,20.8425 -37.0375,30.3175 -65.525,30.3175 -37.9875,0 -61.7375,-15.16 -77.8876,-48.31625 -11.3875,-22.73875 -18.9874,-58.7375 -18.9874,-90.9487 0,-44.5263 11.4,-84.3151 29.4375,-109.895 16.15,-20.8425 37.9874,-30.315 69.325,-30.315 34.2,0 57.9375,15.1575 75.0249,48.3162 11.4001,23.6838 18.0501,57.7888 18.0501,91.8938 0,42.63245 -10.45,85.26245 -29.4375,108.94745 z"
       id="path51" />
    <path
       inkscape:connector-curvature="0"
       style="fill:#000000;fill-rule:nonzero;stroke:none"
       d="m -1603.285,-1115.9774 c -6.6287,-3.7913 -10.42,-4.7363 -24.6325,-4.7363 l -51.16,0 0,66.3138 51.16,0 c 13.2663,0 18.0038,-0.9463 24.6325,-4.735 10.4238,-5.685 17.0575,-17.0538 17.0575,-28.4213 0,-11.3687 -6.6337,-22.7387 -17.0575,-28.4212 z m 18.95,222.6312 -43.5825,-117.4737 -51.16,0 0,117.4737 -42.6337,0 0,-270.0012 89.0563,0 c 20.8449,0 35.0562,1.8962 48.32,8.5275 23.6862,11.3687 40.74,39.7887 40.74,67.2637 0,28.4213 -17.0538,56.8425 -41.6863,68.21 l 47.3725,126 -46.4262,0 z"
       id="path53" />
    <path
       inkscape:connector-curvature="0"
       style="fill:#000000;fill-rule:nonzero;stroke:none"
       d="m -2042.5112,-893.34495 0,-117.47495 -98.535,0 0,117.47495 -42.635,0 0,-270.00125 42.635,0 0,108.9463 98.535,0 0,-108.9463 42.6337,0 0,270.00125 -42.6337,0 z"
       id="path55" />
    <path
       inkscape:connector-curvature="0"
       style="fill:#000000;fill-rule:nonzero;stroke:none"
       d="m -1935.08,-893.34495 0,-270.00125 158.9525,0 0,42.6325 -116.3775,0 0,66.315 78.5338,0 0,43.5813 -78.5338,0 0,73.89245 124.8938,0 0,43.58 -167.4688,0 z"
       id="path57" />
    <path
       inkscape:connector-curvature="0"
       style="fill:#000000;fill-rule:nonzero;stroke:none"
       d="m -1492.01,-893.34495 0,-270.00125 158.9525,0 0,42.6325 -116.375,0 0,66.315 78.5313,0 0,43.5813 -78.5313,0 0,73.89245 124.8913,0 0,43.58 -167.4688,0 z"
       id="path59" />
  </g>
</svg>
