<?xml version="1.0" encoding="UTF-8" standalone="no"?>
<!-- Created with Inkscape (http://www.inkscape.org/) -->

<svg
   xmlns:dc="http://purl.org/dc/elements/1.1/"
   xmlns:cc="http://creativecommons.org/ns#"
   xmlns:rdf="http://www.w3.org/1999/02/22-rdf-syntax-ns#"
   xmlns:svg="http://www.w3.org/2000/svg"
   xmlns="http://www.w3.org/2000/svg"
   xmlns:sodipodi="http://sodipodi.sourceforge.net/DTD/sodipodi-0.dtd"
   xmlns:inkscape="http://www.inkscape.org/namespaces/inkscape"
   width="820"
   height="1360"
   id="svg2"
   version="1.1"
   inkscape:version="0.48.2 r9819"
   sodipodi:docname="AJAX4.svg">
  <defs
     id="defs4" />
  <sodipodi:namedview
     id="base"
     pagecolor="#ffffff"
     bordercolor="#666666"
     borderopacity="1.0"
     inkscape:pageopacity="0.0"
     inkscape:pageshadow="2"
     inkscape:zoom="0.28868013"
     inkscape:cx="30.352229"
     inkscape:cy="360.31703"
     inkscape:document-units="px"
     inkscape:current-layer="g4166"
     showgrid="false"
     fit-margin-top="0"
     fit-margin-left="0"
     fit-margin-right="0"
     fit-margin-bottom="0"
     inkscape:window-width="1280"
     inkscape:window-height="1004"
     inkscape:window-x="-8"
     inkscape:window-y="-8"
     inkscape:window-maximized="1" />
  <metadata
     id="metadata7">
    <rdf:RDF>
      <cc:Work
         rdf:about="">
        <dc:format>image/svg+xml</dc:format>
        <dc:type
           rdf:resource="http://purl.org/dc/dcmitype/StillImage" />
        <dc:title></dc:title>
      </cc:Work>
    </rdf:RDF>
  </metadata>
  <g
     inkscape:label="Layer 1"
     inkscape:groupmode="layer"
     id="layer1"
     transform="translate(-157,732.875)">
    <g
       id="g4166">
      <g
         id="text3008"
         style="font-size:78.91298676px;font-style:normal;font-weight:normal;line-height:125%;letter-spacing:0px;word-spacing:0px;fill:#000000;fill-opacity:1;stroke:none;font-family:Sans"
         transform="scale(0.98847113,1.0116633)">
        <g
           id="text3015"
           style="font-size:78.54236603px;line-height:125%;fill:#000000;font-family:Sans"
           transform="scale(0.98353261,1.0167431)">
          <text
             transform="scale(1.0286017,0.97219363)"
             sodipodi:linespacing="125%"
             id="text3273"
             y="587.81366"
             x="428.17328"
             style="font-size:40px;font-style:normal;font-weight:normal;line-height:125%;letter-spacing:0px;word-spacing:0px;fill:#000000;fill-opacity:1;stroke:none;font-family:Sans"
             xml:space="preserve"><tspan
               id="tspan3275"
               sodipodi:role="line"
               x="428.17328"
               y="587.81366" /></text>
        </g>
      </g>
      <path
         inkscape:connector-curvature="0"
         style="fill:#ffffff;fill-rule:nonzero;stroke:#000000;stroke-width:10;stroke-linecap:butt;stroke-linejoin:miter;stroke-miterlimit:4;stroke-opacity:1;stroke-dasharray:none"
         d="m 972,487.12505 c 0,74.55 -60.4425,135.0125 -135,135.0125 l -540,0 c -74.55938,0 -135,-60.4625 -135,-135.0125 L 162,-592.875 c 0,-74.55937 60.44062,-135 135,-135 l 540,0 c 74.5575,0 135,60.44063 135,135 l 0,1080.00005 z"
         id="path11" />
      <path
         inkscape:connector-curvature="0"
         style="fill:#006649;fill-rule:nonzero;stroke:none"
         d="m 667.11375,430.875 c 0,49.705 -40.29625,90 -90,90 -49.705,0 -90,-40.295 -90,-90 0,-49.705 40.295,-90 90,-90 49.70375,0 90,40.295 90,90 z"
         id="path89" />
      <path
         inkscape:connector-curvature="0"
         style="fill:#000000;fill-rule:nonzero;stroke:none"
         d="m 904.5,487.12505 c 0,37.2188 -30.28125,67.5063 -67.5,67.5063 l -540,0 c -37.2205,0 -67.5,-30.2875 -67.5,-67.5063 l 0,-1080 c 0,-37.2205 30.2795,-67.5 67.5,-67.5 l 540,0 c 37.21875,0 67.5,30.2795 67.5,67.5 l 0,1080 z m -67.5,-1181.25 -540,0 c -55.83013,0 -101.25,45.41988 -101.25,101.25 l 0,1080 c 0,55.8313 45.41987,101.2625 101.25,101.2625 l 540,0 c 55.83,0 101.25,-45.4312 101.25,-101.2625 l 0,-1080 c 0,-55.83012 -45.42,-101.25 -101.25,-101.25 z"
         id="path13" />
      <path
         inkscape:connector-curvature="0"
         style="fill:#000000;fill-rule:nonzero;stroke:none"
         d="m 818.36375,-300.37495 0,-184.8075 -41.57625,0 0,-59.475 -12.9125,-2.8375 0,-15.58125 14.34125,-5.65625 0,-8.49375 40.1475,0 0,-26.89875 18.63625,0 0,303.75 -18.63625,0 z"
         id="path15" />
      <path
         inkscape:connector-curvature="0"
         style="fill:#000000;fill-rule:nonzero;stroke:none"
         d="m 297,-564.6887 c 0,0 83.41,7.05375 156.73,-45.78762 4.55125,-0.72988 9.36875,-3.1555 13.2175,-3.39963 39.18,8.52538 71.165,-12.6635 92.54375,-23.85738 19.225,-2.92599 14.67,40.40713 -8.39875,46.25963 22.81625,2.4425 181.4625,18.01875 181.4625,18.01875 0,0 14.925,1.94375 14.4325,13.635 -0.29625,7.31 -1.91875,16.0775 -12.24875,16.0775 l -125.255,0 c 0,0 -0.24,11.68 -10.3325,20.7025 -12.0225,6.32625 -29.31375,13.62063 -30.04625,31.39563 -9.61375,9.01125 -37.015,19.47625 -41.8175,38.48125 -8.6675,13.87875 -37.74375,15.57499 -48.55625,17.78875 -8.1725,-1.4725 -15.6325,-2.56876 -25.96125,-3.65376 C 390.02125,-465.32557 297,-469.24182 297,-469.24182 l 0,-95.44688 z"
         id="path17" />
      <path
         inkscape:connector-curvature="0"
         style="fill:#000000;fill-rule:nonzero;stroke:none"
         d="m 759.13,-124.3612 c -1.63,-1.10375 -3.5975,-1.74875 -5.715,-1.74875 -5.63375,0 -10.20125,4.56625 -10.20125,10.20125 0,1.12875 0.185,2.21 0.52375,3.22125 l 9.62125,31.5775 -62.60875,0 0,56.25 62.60875,0 -9.62125,31.5775 c -0.33875,1.0125 -0.52375,2.095 -0.52375,3.22 0,5.6375 4.5675,10.2025 10.20125,10.2025 2.1175,0 4.085,-0.645 5.715,-1.7475 L 870.75,-52.9837 759.13,-124.3612 z"
         id="path93" />
      <path
         inkscape:connector-curvature="0"
         style="fill:#000000;fill-rule:nonzero;stroke:none"
         d="m 541.81,-330.9275 -9.69,0 0,21.07875 9.69,0 c 5.43625,0 8.98125,-3.79 8.98125,-9.71 0,-6.395 -4.01875,-11.36875 -8.98125,-11.36875 z m 0.47375,-27.47375 -10.16375,0 0,18 10.16375,0 c 4.48875,0 7.32625,-3.79 7.32625,-9.9475 0,-5.68375 -2.12625,-8.0525 -7.32625,-8.0525 z m 0,58.02625 -19.85625,0 0,-67.5 21.27125,0 c 8.9825,0 15.36375,7.105 15.36375,17.52625 0,6.1575 -1.6525,9 -7.08875,14.685 5.2,4.2625 8.27125,9.9475 8.27125,16.815 0,10.185 -8.035,18.47375 -17.96125,18.47375 z"
         id="path19" />
      <path
         inkscape:connector-curvature="0"
         style="fill:#000000;fill-rule:nonzero;stroke:none"
         d="m 467.7375,-300.375 0,-30.5525 -18.435,0 0,30.5525 -9.6925,0 0,-67.5 9.6925,0 0,27.47375 18.435,0 0,-27.47375 9.69,0 0,67.5 -9.69,0 z"
         id="path21" />
      <path
         inkscape:connector-curvature="0"
         style="fill:#000000;fill-rule:nonzero;stroke:none"
         d="m 774.53625,-300.375 -20.7975,-45.23625 0,45.23625 -9.69,0 0,-67.5 9.69,0 18.435,40.5 0,-40.5 9.69,0 0,67.5 -7.3275,0 z"
         id="path23" />
      <path
         inkscape:connector-curvature="0"
         style="fill:#000000;fill-rule:nonzero;stroke:none"
         d="m 721.7975,-351.05875 c -1.67,-5.92125 -4.295,-8.5275 -8.3525,-8.5275 -4.29375,0 -6.91625,2.60625 -8.58625,8.29 -1.67,5.21125 -2.14875,9.71125 -2.14875,17.29 0,7.34125 0.71625,11.605 2.14875,17.0525 1.67,5.68375 4.2925,8.29 8.58625,8.29 4.0575,0 6.6825,-2.60625 8.3525,-8.29 1.67,-5.4475 2.14625,-9.47375 2.14625,-17.29 0,-7.57875 -0.71625,-11.84125 -2.14625,-16.815 z m 7.63375,40.2625 c -3.34,8.0525 -8.34875,11.60625 -15.98625,11.60625 -8.11,0 -12.88,-3.55375 -16.22,-11.60625 -2.86375,-6.63125 -3.81875,-13.02625 -3.81875,-23.4475 0,-10.18375 0.955,-17.0525 3.81875,-23.4475 3.57625,-8.0525 8.34875,-11.3675 16.22,-11.3675 7.87375,0 12.64625,3.315 15.98625,11.605 2.86125,6.63125 3.81625,13.02625 3.81625,23.21 0,10.42125 -0.955,17.0525 -3.81625,23.4475 z"
         id="path25" />
      <path
         inkscape:connector-curvature="0"
         style="fill:#000000;fill-rule:nonzero;stroke:none"
         d="m 316.6175,-358.40125 -9.92625,0 0,19.18375 9.92625,0 c 5.6725,0 8.745,-3.5525 8.745,-9.71 0,-5.685 -3.545,-9.47375 -8.745,-9.47375 z m 0.4725,28.42125 -10.39875,0 0,29.605 -9.69125,0 0,-67.5 20.09,0 c 10.63625,0 17.7275,7.57875 17.7275,18.9475 0,12.315 -6.3825,18.9475 -17.7275,18.9475 z"
         id="path27" />
      <path
         inkscape:connector-curvature="0"
         style="fill:#000000;fill-rule:nonzero;stroke:none"
         d="m 411.83375,-331.54625 c -2.92,-1.89375 -5.75375,-3.79125 -7.56625,-5.06625 -5.44125,-3.83 -8.32375,-8.99875 -8.32375,-14.92 0,-9.71125 7.61125,-17.52625 17.3625,-17.52625 9.51375,0 16.8875,7.34125 17.12375,17.52625 l -9.275,0 c -0.23625,-4.7375 -3.56625,-7.81625 -7.84875,-7.81625 -4.51875,0 -8.08625,3.31625 -8.08625,7.81625 0,3.315 1.42625,5.21 6.42125,8.0525 13.08125,7.57875 18.78875,14.92125 18.78875,24.63125 0,10.89625 -8.3225,19.65875 -18.78875,19.65875 -11.8925,0 -19.02625,-9.9475 -19.02625,-21.08 l 9.5125,0 c 0,5.68375 2.855,11.60625 9.51375,11.60625 5.2325,0 9.51375,-4.7375 9.51375,-10.185 0,-4.23 -1.7475,-7.7925 -9.32125,-12.6975 z"
         id="path29" />
      <path
         inkscape:connector-curvature="0"
         style="fill:#000000;fill-rule:nonzero;stroke:none"
         d="m 636.8925,-358.875 0,58.5 -9.73875,0 0,-58.5 -12.35125,0 0,-9 34.44125,0 0,9 -12.35125,0 z"
         id="path31" />
      <path
         inkscape:connector-curvature="0"
         style="fill:#000000;fill-rule:nonzero;stroke:none"
         d="m 674.57625,-358.875 0,58.5 -9.73875,0 0,-58.5 -12.35375,0 0,-9 34.4425,0 0,9 -12.35,0 z"
         id="path33" />
      <path
         inkscape:connector-curvature="0"
         style="fill:#000000;fill-rule:nonzero;stroke:none"
         d="m 380.83375,-308.66375 c -3.30875,5.4475 -9.69125,9.47375 -16.0725,9.47375 -6.61625,0 -13.235,-3.79 -16.54375,-9.47375 -1.89125,-3.55375 -2.6,-6.39625 -2.6,-11.8425 l 0,-47.36875 9.69,0 0,48.5525 c 0,6.395 3.7825,10.65875 9.45375,10.65875 5.2,0 8.9825,-4.26375 8.9825,-10.65875 l 0,-48.5525 9.69,0 0,47.36875 c 0,5.44625 -0.70875,8.28875 -2.6,11.8425 z"
         id="path35" />
      <path
         inkscape:connector-curvature="0"
         style="fill:#000000;fill-rule:nonzero;stroke:none"
         d="m 604.64125,-308.66375 c -3.3075,5.4475 -9.69,9.47375 -16.07125,9.47375 -6.61875,0 -13.2375,-3.79 -16.545,-9.47375 -1.8925,-3.55375 -2.60125,-6.39625 -2.60125,-11.8425 l 0,-47.36875 9.69,0 0,48.5525 c 0,6.395 3.7825,10.65875 9.45625,10.65875 5.2,0 8.98125,-4.26375 8.98125,-10.65875 l 0,-48.5525 9.69,0 0,47.36875 c 0,5.44625 -0.71,8.28875 -2.6,11.8425 z"
         id="path37" />
      <path
         inkscape:connector-curvature="0"
         style="fill:#000000;fill-rule:nonzero;stroke:none"
         d="m 695.48125,-224.11875 c -2.84875,-4.73625 -6.33125,-6.63125 -11.71375,-6.9475 -6.96375,-0.31625 -11.39625,3.15875 -14.56,11.0525 -2.2175,5.36875 -3.48375,13.57875 -3.48375,21.15875 0,9.47375 1.89875,19.2625 5.38125,24.9475 2.85,4.73625 6.64875,6.94625 12.34625,6.94625 6.6475,0 10.7625,-3.47375 13.93,-11.3675 1.89875,-4.73625 3.48125,-13.58 3.48125,-20.52625 0,-10.105 -1.9,-19.2625 -5.38125,-25.26375 z m 9.8125,61.58 c -5.065,6.94625 -12.34625,10.105 -21.8425,10.105 -12.6625,0 -20.5775,-5.0525 -25.9575,-16.105 -3.8,-7.58 -6.33125,-19.57875 -6.33125,-30.31625 0,-14.8425 3.79875,-28.10625 9.81375,-36.6325 5.38125,-6.94625 12.6625,-10.105 23.10875,-10.105 11.39625,0 19.30875,5.0525 25.0075,16.10625 3.79875,7.89375 6.015,19.2625 6.015,30.63125 0,14.21 -3.4825,28.42 -9.81375,36.31625 z"
         id="path39" />
      <path
         inkscape:connector-curvature="0"
         style="fill:#000000;fill-rule:nonzero;stroke:none"
         d="m 385.70125,-224.11875 c -2.84875,-4.73625 -6.33125,-6.63125 -11.71375,-6.9475 -6.96375,-0.31625 -11.39625,3.15875 -14.56125,11.0525 -2.21625,5.36875 -3.4825,13.57875 -3.4825,21.15875 0,9.47375 1.89875,19.2625 5.38125,24.9475 2.85,4.73625 6.6475,6.94625 12.34625,6.94625 6.6475,0 10.7625,-3.47375 13.92875,-11.3675 1.9,-4.73625 3.4825,-13.58 3.4825,-20.52625 0,-10.105 -1.9,-19.2625 -5.38125,-25.26375 z m 9.8125,61.58 c -5.065,6.94625 -12.34625,10.105 -21.8425,10.105 -12.6625,0 -20.5775,-5.0525 -25.95875,-16.105 -3.79875,-7.58 -6.33,-19.57875 -6.33,-30.31625 0,-14.8425 3.79875,-28.10625 9.8125,-36.6325 5.3825,-6.94625 12.6625,-10.105 23.11,-10.105 11.39625,0 19.30875,5.0525 25.0075,16.10625 3.79875,7.89375 6.015,19.2625 6.015,30.63125 0,14.21 -3.4825,28.42 -9.81375,36.31625 z"
         id="path41" />
      <path
         inkscape:connector-curvature="0"
         style="fill:#000000;fill-rule:nonzero;stroke:none"
         d="m 308.7475,-231.49375 0,77.36875 -14.27126,0 0,-77.36875 -20.61587,0 0,-12.63125 55.82213,0 0,12.63125 -20.935,0 z"
         id="path43" />
      <path
         inkscape:connector-curvature="0"
         style="fill:#000000;fill-rule:nonzero;stroke:none"
         d="m 615.87125,-228.335 c -2.21,-1.2625 -3.475,-1.5775 -8.21125,-1.5775 l -17.05375,0 0,22.105 17.05375,0 c 4.42125,0 6.00125,-0.315 8.21125,-1.58 3.47375,-1.895 5.68625,-5.68375 5.68625,-9.4725 0,-3.78875 -2.2125,-7.58125 -5.68625,-9.475 z m 6.315,74.21125 -14.52625,-39.1575 -17.05375,0 0,39.1575 -14.21,0 0,-90 29.685,0 c 6.9475,0 11.685,0.6325 16.105,2.84125 7.89625,3.79 13.58125,13.265 13.58125,22.4225 0,9.4725 -5.685,18.9475 -13.89625,22.73625 l 15.79125,42 -15.47625,0 z"
         id="path45" />
      <path
         inkscape:connector-curvature="0"
         style="fill:#000000;fill-rule:nonzero;stroke:none"
         d="m 781.03125,-159.60375 c -5.0525,4.42125 -12,6.94875 -19.58,6.94875 -15.47375,0 -26.84375,-9.1575 -32.845,-22.7375 l 13.58,-5.0525 c 3.79125,8.5275 10.7375,13.26375 19.265,13.26375 8.21125,0 13.89625,-5.68375 13.89625,-13.26375 0,-12 -13.89625,-13.895 -25.58125,-18.63125 -5.36875,-2.21 -17.37,-7.57875 -17.37,-22.42125 0,-17.68375 12.00125,-24.31625 28.1075,-24.31625 12.63125,0 21.15875,7.26375 25.58125,18.31625 l -12.6325,3.78875 c 0,0 -3.15875,-7.5775 -13.26375,-7.89375 -6.63375,-0.315 -14.52875,2.21 -13.89625,10.42 1.2625,16.7375 43.58125,5.685 43.58125,41.05375 0,8.21125 -3.15875,15.47375 -8.8425,20.525 z"
         id="path47" />
      <path
         inkscape:connector-curvature="0"
         style="fill:#000000;fill-rule:nonzero;stroke:none"
         d="m 851.2975,-159.60375 c -5.0525,4.42125 -12,6.94875 -19.58125,6.94875 -15.47125,0 -26.8425,-9.1575 -32.84375,-22.7375 l 13.58,-5.0525 c 3.7925,8.5275 10.7375,13.26375 19.26375,13.26375 8.2125,0 13.8975,-5.68375 13.8975,-13.26375 0,-12 -13.8975,-13.895 -25.58125,-18.63125 -5.36875,-2.21 -17.37,-7.57875 -17.37,-22.42125 0,-17.68375 12.00125,-24.31625 28.1075,-24.31625 12.63125,0 21.15875,7.26375 25.58,18.31625 l -12.63125,3.78875 c 0,0 -3.15875,-7.5775 -13.26375,-7.89375 -6.63375,-0.315 -14.52875,2.21 -13.8975,10.42 1.26375,16.7375 43.5825,5.685 43.5825,41.05375 0,8.21125 -3.15875,15.47375 -8.8425,20.525 z"
         id="path49" />
      <path
         inkscape:connector-curvature="0"
         style="fill:#000000;fill-rule:nonzero;stroke:none"
         d="m 529.435,-152.545 c -13.26375,0 -21.79,-5.0525 -27.475,-16.105 -4.105,-7.895 -6.6325,-19.26375 -6.6325,-30.6325 0,-14.21 3.79,-28.42 10.10625,-36.315 5.36875,-6.63125 12.9475,-10.10625 23.05375,-10.10625 13.58125,0 22.1075,5.685 28.1075,18.3175 l -13.265,5.68375 c -5.0525,-7.57875 -7.89375,-9.475 -14.8425,-9.475 -7.2625,0 -12,3.15875 -15.15875,11.05375 -2.21,5.3675 -3.47375,13.265 -3.47375,20.84125 0,9.79 2.21125,19.58 5.685,25.26375 3.1575,4.73625 7.26375,6.9475 13.57875,6.9475 6.00125,0 10.4225,-3.15875 13.8975,-10.42 l 13.57875,5.0525 c -5.36875,13.2625 -14.21125,19.89375 -27.16,19.89375 z"
         id="path51" />
      <path
         inkscape:connector-curvature="0"
         style="fill:#000000;fill-rule:nonzero;stroke:none"
         d="m 747.22875,68.38375 c -2.85,-4.73875 -6.33125,-6.63375 -11.7125,-6.94875 -6.965,-0.315 -11.39625,3.1575 -14.5625,11.0525 -2.215,5.36875 -3.48125,13.57875 -3.48125,21.1575 0,9.475 1.89875,19.265 5.38125,24.94875 2.84875,4.73625 6.6475,6.9475 12.34625,6.9475 6.6475,0 10.7625,-3.47375 13.9275,-11.36875 1.9,-4.73625 3.4825,-13.58 3.4825,-20.5275 0,-10.105 -1.89875,-19.2625 -5.38125,-25.26125 z m 9.81375,61.5775 c -5.06625,6.9475 -12.34625,10.10625 -21.8425,10.10625 -12.6625,0 -20.57625,-5.05125 -25.95875,-16.105 -3.7975,-7.58125 -6.33,-19.58 -6.33,-30.3175 0,-14.84125 3.7975,-28.10375 9.8125,-36.63125 5.38125,-6.94625 12.6625,-10.105 23.1075,-10.105 11.3975,0 19.3125,5.05375 25.01,16.10625 3.7975,7.8925 6.01375,19.2625 6.01375,30.63 0,14.21125 -3.48125,28.4225 -9.8125,36.31625 z"
         id="path53" />
      <path
         inkscape:connector-curvature="0"
         style="fill:#000000;fill-rule:nonzero;stroke:none"
         d="m 461.66625,138.37875 0,-90.0025 14.40125,0 0,90.0025 -14.40125,0 z"
         id="path55" />
      <path
         inkscape:connector-curvature="0"
         style="fill:#000000;fill-rule:nonzero;stroke:none"
         d="m 524.455,61.0075 0,77.36875 -14.2725,0 0,-77.36875 -20.61625,0 0,-12.63125 55.82125,0 0,12.63125 -20.9325,0 z"
         id="path57" />
      <path
         inkscape:connector-curvature="0"
         style="fill:#000000;fill-rule:nonzero;stroke:none"
         d="m 826.13125,64.1675 c -2.21125,-1.265 -3.475,-1.58 -8.21125,-1.58 l -17.055,0 0,22.105 17.055,0 c 4.42125,0 6,-0.315 8.21125,-1.5775 3.47375,-1.895 5.68625,-5.68625 5.68625,-9.475 0,-3.78875 -2.2125,-7.57875 -5.68625,-9.4725 z m 6.315,74.20875 -14.52625,-39.1575 -17.055,0 0,39.1575 -14.21,0 0,-90 29.68625,0 c 6.9475,0 11.68375,0.6325 16.105,2.84375 7.89625,3.79 13.58,13.2625 13.58,22.42 0,9.475 -5.68375,18.9475 -13.895,22.73625 l 15.79125,42 -15.47625,0 z"
         id="path59" />
      <path
         inkscape:connector-curvature="0"
         style="fill:#000000;fill-rule:nonzero;stroke:none"
         d="m 352.915,138.37625 -12.66875,0 -14.25625,-57.7875 -13.93875,57.7875 -12.67125,0 -13.30287,-90 14.57037,0 6.97,47.37 11.40375,-47.37 13.93875,0 11.72125,47.37 6.96875,-47.37 14.57126,0 -13.30626,90 z"
         id="path61" />
      <path
         inkscape:connector-curvature="0"
         style="fill:#000000;fill-rule:nonzero;stroke:none"
         d="m 410.0525,73.325 -9.21,25.26375 18.105,0 -8.895,-25.26375 z m 22.86875,65.05375 -8.8925,-25.26375 -28.2675,0 -8.89375,25.26375 -15.24625,0 31.1275,-90.0025 14.29125,0 31.1275,90.0025 -15.24625,0 z"
         id="path63" />
      <path
         inkscape:connector-curvature="0"
         style="fill:#000000;fill-rule:nonzero;stroke:none"
         d="m 649.57875,62.5875 0,22.105 26.1775,0 0,14.52625 -26.1775,0 0,39.16 -14.19125,0 0,-90.0025 55.8225,0 0,14.21125 -41.63125,0 z"
         id="path65" />
      <path
         inkscape:connector-curvature="0"
         style="fill:#000000;fill-rule:nonzero;stroke:none"
         d="m 366.60625,-85.24375 0,77.37 -14.27125,0 0,-77.37 -20.61875,0 0,-12.63125 55.82375,0 0,12.63125 -20.93375,0 z"
         id="path67" />
      <path
         inkscape:connector-curvature="0"
         style="fill:#000000;fill-rule:nonzero;stroke:none"
         d="m 646.64125,-85.24375 0,77.37 -14.2725,0 0,-77.37 -20.61625,0 0,-12.63125 55.82125,0 0,12.63125 -20.9325,0 z"
         id="path69" />
      <path
         inkscape:connector-curvature="0"
         style="fill:#000000;fill-rule:nonzero;stroke:none"
         d="m 440.51625,-82.085 c -2.21125,-1.2625 -3.475,-1.58 -8.21125,-1.58 l -17.05375,0 0,22.1075 17.05375,0 c 4.42125,0 6,-0.3175 8.21125,-1.58 3.47375,-1.895 5.68375,-5.68375 5.68375,-9.4725 0,-3.79125 -2.21,-7.58125 -5.68375,-9.475 z m 6.315,74.21125 -14.52625,-39.16 -17.05375,0 0,39.16 -14.2125,0 0,-90 29.68625,0 c 6.94875,0 11.685,0.63 16.10625,2.84125 7.89625,3.79 13.58,13.2625 13.58,22.4225 0,9.4725 -5.68375,18.945 -13.895,22.73625 l 15.79125,42 -15.47625,0 z"
         id="path71" />
      <path
         inkscape:connector-curvature="0"
         style="fill:#000000;fill-rule:nonzero;stroke:none"
         d="m 315.675,-13.3525 c -5.05375,4.42125 -12,6.94625 -19.58,6.94625 -15.47438,0 -26.844,-9.1575 -32.845,-22.7375 l 13.58037,-5.05125 c 3.79025,8.52625 10.73713,13.2625 19.26463,13.2625 8.21125,0 13.89625,-5.68375 13.89625,-13.2625 0,-11.99875 -13.89625,-13.89375 -25.58163,-18.6325 -5.36862,-2.20875 -17.36937,-7.5775 -17.36937,-22.42 0,-17.685 12.00075,-24.31625 28.1085,-24.31625 12.63125,0 21.1575,7.26375 25.57875,18.31625 l -12.63125,3.78875 c 0,0 -3.1575,-7.5775 -13.26375,-7.89375 -6.6325,-0.31625 -14.528,2.21 -13.897,10.42 1.2635,16.73625 43.58325,5.68375 43.58325,41.0525 0,8.21125 -3.16,15.47375 -8.84375,20.5275 z"
         id="path73" />
      <path
         inkscape:connector-curvature="0"
         style="fill:#000000;fill-rule:nonzero;stroke:none"
         d="m 477.6075,-7.87375 0,-90 52.98375,0 0,14.20875 -38.79125,0 0,22.1075 26.17625,0 0,14.52625 -26.17625,0 0,24.63125 41.63125,0 0,14.52625 -55.82375,0 z"
         id="path75" />
      <path
         inkscape:connector-curvature="0"
         style="fill:#000000;fill-rule:nonzero;stroke:none"
         d="m 548.73125,-7.87375 0,-90 52.9825,0 0,14.20875 -38.79125,0 0,22.1075 26.1775,0 0,14.52625 -26.1775,0 0,24.63125 41.63125,0 0,14.52625 -55.8225,0 z"
         id="path77" />
      <path
         inkscape:connector-curvature="0"
         style="fill:#000000;fill-rule:nonzero;stroke:none"
         d="m 745.055,284.62625 -34.42375,-60.9475 0,60.9475 -14.21125,0 0,-90 14.21125,0 32.845,57.47375 0,-57.47375 14.21125,0 0,90 -12.6325,0 z"
         id="path79" />
      <path
         inkscape:connector-curvature="0"
         style="fill:#000000;fill-rule:nonzero;stroke:none"
         d="m 517.08375,210.4175 c -2.21,-1.265 -3.47375,-1.58 -8.21,-1.58 l -17.05625,0 0,22.105 17.05625,0 c 4.42125,0 6,-0.315 8.21,-1.5775 3.475,-1.89625 5.685,-5.68625 5.685,-9.475 0,-3.78875 -2.21,-7.57875 -5.685,-9.4725 z m 6.31625,74.20875 -14.52625,-39.1575 -17.05625,0 0,39.1575 -14.21,0 0,-90 29.68625,0 c 6.94875,0 11.685,0.6325 16.10625,2.8425 7.8975,3.79125 13.57875,13.26375 13.57875,22.42125 0,9.475 -5.68125,18.9475 -13.89375,22.73625 l 15.79125,42 -15.47625,0 z"
         id="path81" />
      <path
         inkscape:connector-curvature="0"
         style="fill:#000000;fill-rule:nonzero;stroke:none"
         d="m 554.17375,284.62625 0,-90 52.98375,0 0,14.21125 -38.79125,0 0,22.105 26.17625,0 0,14.52625 -26.17625,0 0,24.63125 41.63,0 0,14.52625 -55.8225,0 z"
         id="path83" />
      <path
         inkscape:connector-curvature="0"
         style="fill:#000000;fill-rule:nonzero;stroke:none"
         d="m 625.2975,284.62625 0,-90 52.9825,0 0,14.21125 -38.79125,0 0,22.105 26.1775,0 0,14.52625 -26.1775,0 0,24.63125 41.63125,0 0,14.52625 -55.8225,0 z"
         id="path85" />
      <path
         inkscape:connector-curvature="0"
         style="fill:#000000;fill-rule:nonzero;stroke:none"
         d="m 429.385,286.20625 c -13.58125,0 -21.47625,-5.05375 -26.845,-16.42125 -3.78875,-7.89375 -6,-18.9475 -6,-30 0,-14.52625 4.10625,-28.7375 10.105,-36.6325 5.37,-6.63125 12.95,-10.10625 23.05625,-10.10625 13.895,0 22.10625,5.68625 28.10625,19.895 l -13.58,5.36875 c -3.79,-7.89375 -7.58,-10.7375 -14.52625,-10.7375 -7.265,0 -12.0025,3.16 -15.16,11.05375 -2.21125,5.36875 -3.475,13.57875 -3.475,21.15875 0,9.4725 1.58,18.9475 4.4225,24.63125 2.8425,5.0525 6.9475,7.26375 12.31625,7.26375 9.15875,0 15.79125,-5.68375 15.79125,-13.895 l 0,-3.79 -16.4225,0 0,-14.21 30.63375,0 0,18 c 0,16.42125 -12.00125,28.42125 -28.4225,28.42125 z"
         id="path87" />
    </g>
  </g>
</svg>
