<?xml version="1.0" encoding="UTF-8" standalone="no"?>
<!-- Created with Inkscape (http://www.inkscape.org/) -->

<svg
   xmlns:dc="http://purl.org/dc/elements/1.1/"
   xmlns:cc="http://creativecommons.org/ns#"
   xmlns:rdf="http://www.w3.org/1999/02/22-rdf-syntax-ns#"
   xmlns:svg="http://www.w3.org/2000/svg"
   xmlns="http://www.w3.org/2000/svg"
   xmlns:sodipodi="http://sodipodi.sourceforge.net/DTD/sodipodi-0.dtd"
   xmlns:inkscape="http://www.inkscape.org/namespaces/inkscape"
   id="svg2"
   inkscape:version="0.48.2 r9819"
   height="1090"
   width="820"
   version="1.1"
   sodipodi:docname="AJAX2.svg">
  <defs
     id="defs19" />
  <sodipodi:namedview
     id="base"
     fit-margin-left="0"
     inkscape:zoom="0.1767767"
     borderopacity="1.0"
     inkscape:current-layer="g3763"
     inkscape:cx="696.52029"
     inkscape:cy="719.5771"
     inkscape:window-maximized="1"
     showgrid="false"
     fit-margin-right="0"
     inkscape:document-units="px"
     bordercolor="#666666"
     inkscape:window-x="-8"
     inkscape:guide-bbox="true"
     inkscape:window-y="-8"
     fit-margin-bottom="0"
     inkscape:window-width="1280"
     inkscape:pageopacity="0.0"
     inkscape:pageshadow="2"
     pagecolor="#ffffff"
     showguides="true"
     inkscape:window-height="1004"
     fit-margin-top="0" />
  <metadata
     id="metadata7">
    <rdf:RDF>
      <cc:Work
         rdf:about="">
        <dc:format>image/svg+xml</dc:format>
        <dc:type
           rdf:resource="http://purl.org/dc/dcmitype/StillImage" />
        <dc:title></dc:title>
      </cc:Work>
    </rdf:RDF>
  </metadata>
  <g
     id="layer1"
     inkscape:label="Layer 1"
     inkscape:groupmode="layer"
     transform="translate(163.1797,762.86073)">
    <g
       id="g3012"
       transform="translate(109.60155,-54.548234)"
       stroke-miterlimit="4"
       style="fill:#0dadea;stroke-miterlimit:4;stroke-dasharray:none">
      <g
         id="g3763">
        <path
           inkscape:connector-curvature="0"
           style="fill:#ffffff;fill-rule:nonzero;stroke:#000000;stroke-width:10;stroke-linecap:butt;stroke-linejoin:miter;stroke-miterlimit:4;stroke-opacity:1;stroke-dasharray:none"
           d="m 542.21875,241.6875 c 0,74.55745 -60.4425,135.00005 -135,135.00005 l -540,0 c -74.55937,0 -135,-60.4426 -135,-135.00005 l 0,-810 c 0,-74.55937 60.44063,-135 135,-135 l 540,0 c 74.5575,0 135,60.44063 135,135 l 0,810 z"
           id="path11" />
        <path
           inkscape:connector-curvature="0"
           style="fill:#000000;fill-rule:nonzero;stroke:none"
           d="m -132.78125,342.93755 c -55.83012,0 -101.25,-45.42 -101.25,-101.25 l 0,-810 c 0,-55.83012 45.41988,-101.25 101.25,-101.25 l 540,0 c 55.83,0 101.25,45.41988 101.25,101.25 l 0,810 c 0,55.83 -45.42,101.25 -101.25,101.25 l -540,0 z"
           id="path13" />
        <path
           inkscape:connector-curvature="0"
           style="fill:#ffffff;fill-rule:nonzero;stroke:none"
           d="m -132.78125,309.18755 c -37.2205,0 -67.5,-30.28125 -67.5,-67.5 l 0,-810 c 0,-37.2205 30.2795,-67.5 67.5,-67.5 l 540,0 c 37.21875,0 67.5,30.2795 67.5,67.5 l 0,810 c 0,37.21875 -30.28125,67.5 -67.5,67.5 l -540,0 z"
           id="path15" />
        <path
           inkscape:connector-curvature="0"
           style="fill:#000000;fill-rule:nonzero;stroke:none"
           d="m -114.145,-275.8125 0,-184.8075 41.57625,0 0,-59.475 12.9125,-2.8375 0,-15.58125 -14.34125,-5.65625 0,-8.49375 -40.1475,0 0,-26.89875 -18.63625,0 0,303.75 18.63625,0 z"
           id="path17" />
        <path
           inkscape:connector-curvature="0"
           style="fill:#000000;fill-rule:nonzero;stroke:none"
           d="m 407.21875,-540.12625 c 0,0 -83.41,7.05375 -156.73125,-45.78762 -4.54875,-0.72988 -9.3675,-3.1555 -13.2175,-3.39963 -39.17875,8.52538 -71.16375,-12.6635 -92.54125,-23.85737 -19.22625,-2.926 -14.67125,40.40712 8.39875,46.25962 -22.8175,2.4425 -181.46375,18.01875 -181.46375,18.01875 0,0 -14.92375,1.94375 -14.4325,13.635 0.2975,7.31 1.91875,16.0775 12.2475,16.0775 l 125.25625,0 c 0,0 0.24,11.68 10.3325,20.7025 12.0225,6.32625 29.31375,13.62063 30.0475,31.39563 9.61375,9.01125 37.01375,19.47625 41.8175,38.48125 8.66625,13.87875 37.7425,15.575 48.55375,17.78875 8.17375,-1.4725 15.63375,-2.56875 25.9625,-3.65375 62.74875,-26.2975 155.77,-30.21375 155.77,-30.21375 l 0,-95.44688 z"
           id="path19" />
        <path
           inkscape:connector-curvature="0"
           style="fill:#000000;fill-rule:nonzero;stroke:none"
           d="m 249.4425,-275.8125 0,-40.7375 -24.5825,0 0,40.7375 -12.92,0 0,-90 12.92,0 0,36.63125 24.5825,0 0,-36.63125 12.92,0 0,90 -12.92,0 z"
           id="path21" />
        <path
           inkscape:connector-curvature="0"
           style="fill:#000000;fill-rule:nonzero;stroke:none"
           d="m 38.23125,-353.1825 -13.23625,0 0,25.58 13.23625,0 c 7.5625,0 11.66,-4.7375 11.66,-12.9475 0,-7.58 -4.72875,-12.6325 -11.66,-12.6325 z m 0.63,37.895 -13.86625,0 0,39.475 -12.92,0 0,-90.00125 26.78625,0 c 14.18,0 23.63625,10.105 23.63625,25.26375 0,16.42125 -8.51,25.2625 -23.63625,25.2625 z"
           id="path23" />
        <path
           inkscape:connector-curvature="0"
           style="fill:#000000;fill-rule:nonzero;stroke:none"
           d="m 171.845,-317.3775 c -3.89125,-2.5225 -7.6725,-5.05375 -10.0875,-6.75125 -7.25625,-5.1075 -11.09875,-12.00125 -11.09875,-19.895 0,-12.94875 10.14875,-23.36875 23.14875,-23.36875 12.68625,0 22.5175,9.78875 22.835,23.36875 l -12.3675,0 c -0.3175,-6.31625 -4.75875,-10.42125 -10.4675,-10.42125 -6.025,0 -10.78125,4.42125 -10.78125,10.42125 0,4.42125 1.9025,6.94625 8.5625,10.7375 17.44125,10.10375 25.05375,19.89375 25.05375,32.84125 0,14.52625 -11.10125,26.21125 -25.05375,26.21125 -15.85625,0 -25.36875,-13.26375 -25.36875,-28.10625 l 12.68375,0 c 0,7.58 3.80625,15.47375 12.685,15.47375 6.9775,0 12.68625,-6.31625 12.68625,-13.57875 0,-5.64 -2.3325,-10.39 -12.43,-16.9325 z"
           id="path25" />
        <path
           inkscape:connector-curvature="0"
           style="fill:#000000;fill-rule:nonzero;stroke:none"
           d="m 127.45375,-286.86625 c -4.4125,7.26375 -12.92,12.6325 -21.43,12.6325 -8.82375,0 -17.6475,-5.0525 -22.06,-12.6325 -2.52125,-4.7375 -3.46625,-8.52625 -3.46625,-15.79 l 0,-63.1575 12.92125,0 0,64.7375 c 0,8.525 5.04125,14.21 12.605,14.21 6.93375,0 11.97625,-5.685 11.97625,-14.21 l 0,-64.7375 12.92,0 0,63.1575 c 0,7.26375 -0.945,11.0525 -3.46625,15.79 z"
           id="path27" />
        <path
           inkscape:connector-curvature="0"
           style="fill:#000000;fill-rule:nonzero;stroke:none"
           d="m -116.03,-181.55 -12.92125,0 0,28.10625 12.92125,0 c 7.24875,0 11.975,-5.05375 11.975,-12.94875 0,-8.52625 -5.3575,-15.1575 -11.975,-15.1575 z m 0.63,-36.6325 -13.55125,0 0,24.00125 13.55125,0 c 5.9875,0 9.77,-5.05375 9.77,-13.265 0,-7.5775 -2.83625,-10.73625 -9.77,-10.73625 z m 0,77.37 -26.47,0 0,-90 28.36125,0 c 11.97625,0 20.485,9.4725 20.485,23.36625 0,8.21125 -2.20625,12.00125 -9.455,19.58 6.93375,5.68375 11.03,13.26375 11.03,22.42125 0,13.57875 -10.715,24.6325 -23.95125,24.6325 z"
           id="path29" />
        <path
           inkscape:connector-curvature="0"
           style="fill:#000000;fill-rule:nonzero;stroke:none"
           d="m 206.69625,-140.8125 -27.73375,-60.31625 0,60.31625 -12.92,0 0,-90 12.92,0 24.5825,53.99875 0,-53.99875 12.91875,0 0,90 -9.7675,0 z"
           id="path31" />
        <path
           inkscape:connector-curvature="0"
           style="fill:#000000;fill-rule:nonzero;stroke:none"
           d="m 132.7725,-208.39 c -2.22625,-7.89625 -5.72625,-11.37 -11.13375,-11.37 -5.725,0 -9.22375,3.47375 -11.45,11.0525 -2.2275,6.94625 -2.86375,12.94625 -2.86375,23.0525 0,9.78875 0.955,15.47375 2.86375,22.73625 2.22625,7.58 5.725,11.0525 11.45,11.0525 5.4075,0 8.9075,-3.4725 11.13375,-11.0525 2.2275,-7.2625 2.8625,-12.63125 2.8625,-23.0525 0,-10.105 -0.95375,-15.79 -2.8625,-22.41875 z m 10.17875,53.6825 c -4.45375,10.73625 -11.1325,15.47375 -21.3125,15.47375 -10.815,0 -17.17625,-4.7375 -21.63,-15.47375 -3.81625,-8.84125 -5.09,-17.37 -5.09,-31.26375 0,-13.57875 1.27375,-22.73625 5.09,-31.26375 4.7725,-10.73625 11.13375,-15.1575 21.63,-15.1575 10.49875,0 16.85875,4.42125 21.3125,15.47375 3.81875,8.8425 5.09,17.36875 5.09,30.9475 0,13.89375 -1.27125,22.7375 -5.09,31.26375 z"
           id="path33" />
        <path
           inkscape:connector-curvature="0"
           style="fill:#000000;fill-rule:nonzero;stroke:none"
           d="m 16.3275,-218.8125 0,78 -12.985,0 0,-78 -16.4675,0 0,-12 45.9225,0 0,12 -16.47,0 z"
           id="path35" />
        <path
           inkscape:connector-curvature="0"
           style="fill:#000000;fill-rule:nonzero;stroke:none"
           d="m 67.65,-218.8125 0,78 -12.985,0 0,-78 -16.46875,0 0,-12 45.92375,0 0,12 -16.47,0 z"
           id="path37" />
        <path
           inkscape:connector-curvature="0"
           style="fill:#000000;fill-rule:nonzero;stroke:none"
           d="m 401.04,-208.39 c -2.2275,-7.89625 -5.725,-11.37 -11.13375,-11.37 -5.725,0 -9.22375,3.47375 -11.45,11.0525 -2.2275,6.94625 -2.86375,12.94625 -2.86375,23.0525 0,9.78875 0.955,15.47375 2.86375,22.73625 2.22625,7.58 5.725,11.0525 11.45,11.0525 5.40875,0 8.90625,-3.4725 11.13375,-11.0525 2.22625,-7.2625 2.86375,-12.63125 2.86375,-23.0525 0,-10.105 -0.955,-15.79 -2.86375,-22.41875 z m 10.18,53.6825 c -4.4525,10.73625 -11.135,15.47375 -21.31375,15.47375 -10.815,0 -17.17625,-4.7375 -21.62875,-15.47375 -3.8175,-8.84125 -5.09125,-17.37 -5.09125,-31.26375 0,-13.57875 1.27375,-22.73625 5.09125,-31.26375 4.77125,-10.73625 11.1325,-15.1575 21.62875,-15.1575 10.49875,0 16.86125,4.42125 21.31375,15.47375 3.81625,8.8425 5.0875,17.36875 5.0875,30.9475 0,13.89375 -1.27125,22.7375 -5.0875,31.26375 z"
           id="path39" />
        <path
           inkscape:connector-curvature="0"
           style="fill:#000000;fill-rule:nonzero;stroke:none"
           d="m 335.9175,-218.8125 0,78 -12.985,0 0,-78 -16.46875,0 0,-12 45.92375,0 0,12 -16.47,0 z"
           id="path41" />
        <path
           inkscape:connector-curvature="0"
           style="fill:#000000;fill-rule:nonzero;stroke:none"
           d="m -29.1925,-151.865 c -4.4125,7.26375 -12.92125,12.6325 -21.42875,12.6325 -8.825,0 -17.64875,-5.05375 -22.06125,-12.6325 -2.52,-4.73875 -3.46625,-8.5275 -3.46625,-15.79125 l 0,-63.15625 12.92125,0 0,64.73625 c 0,8.525 5.0425,14.21125 12.60625,14.21125 6.9325,0 11.975,-5.68625 11.975,-14.21125 l 0,-64.73625 12.92,0 0,63.15625 c 0,7.26375 -0.945,11.0525 -3.46625,15.79125 z"
           id="path43" />
        <path
           inkscape:connector-curvature="0"
           style="fill:#000000;fill-rule:nonzero;stroke:none"
           d="m 144.1225,-5.812503 -27.7325,-60.31625 0,60.31625 -12.92125,0 0,-90 12.92125,0 24.58125,53.99875 0,-53.99875 12.92,0 0,90 -9.76875,0 z"
           id="path45" />
        <path
           inkscape:connector-curvature="0"
           style="fill:#000000;fill-rule:nonzero;stroke:none"
           d="m 355.66875,-5.812503 -27.73375,-60.31625 0,60.31625 -12.92125,0 0,-90 12.92125,0 24.58125,53.99875 0,-53.99875 12.92,0 0,90 -9.7675,0 z"
           id="path47" />
        <path
           inkscape:connector-curvature="0"
           style="fill:#000000;fill-rule:nonzero;stroke:none"
           d="m 281.745,-73.390003 c -2.22625,-7.89625 -5.72625,-11.37 -11.13375,-11.37 -5.725,0 -9.22375,3.47375 -11.45,11.0525 -2.22875,6.94625 -2.86375,12.94625 -2.86375,23.0525 0,9.78875 0.95375,15.47375 2.86375,22.73625 2.22625,7.58 5.725,11.0525 11.45,11.0525 5.4075,0 8.9075,-3.4725 11.13375,-11.0525 2.22625,-7.2625 2.8625,-12.63125 2.8625,-23.0525 0,-10.105 -0.955,-15.79 -2.8625,-22.41875 z m 10.18,53.6825 c -4.45375,10.73625 -11.135,15.47375 -21.31375,15.47375 -10.81375,0 -17.17625,-4.7375 -21.63,-15.47375 -3.8175,-8.84125 -5.09,-17.37 -5.09,-31.26375 0,-13.57875 1.2725,-22.73625 5.09,-31.26375 4.7725,-10.73625 11.1325,-15.1575 21.63,-15.1575 10.4975,0 16.86,4.42125 21.31375,15.47375 3.81625,8.8425 5.08875,17.36875 5.08875,30.9475 0,13.89375 -1.2725,22.7375 -5.08875,31.26375 z"
           id="path49" />
        <path
           inkscape:connector-curvature="0"
           style="fill:#000000;fill-rule:nonzero;stroke:none"
           d="m 63.9025,-83.182503 -13.235,0 0,22.7375 13.235,0 c 7.56375,0 11.66,-4.10375 11.66,-11.3675 0,-6.9475 -4.72625,-11.37 -11.66,-11.37 z m 11.03,77.37125 -11.975,-42.3175 -12.29,0 0,42.3175 -12.92125,0 0,-90.0025 26.7875,0 c 14.18125,0 23.635,9.475 23.635,24.00125 0,10.7375 -4.4125,18.63 -12.92125,21.79 l 12.92125,44.21125 -13.23625,0 z"
           id="path51" />
        <path
           inkscape:connector-curvature="0"
           style="fill:#000000;fill-rule:nonzero;stroke:none"
           d="m -61.54625,-83.811253 0,78 -12.98375,0 0,-78 -16.46875,0 0,-12.0025 45.9225,0 0,12.0025 -16.47,0 z"
           id="path53" />
        <path
           inkscape:connector-curvature="0"
           style="fill:#000000;fill-rule:nonzero;stroke:none"
           d="m 14.48,-16.866253 c -4.4125,7.26375 -12.92125,12.6325 -21.43,12.6325 -8.82375,0 -17.6475,-5.05125 -22.06,-12.6325 -2.52125,-4.73625 -3.46625,-8.525 -3.46625,-15.78875 l 0,-63.15875 12.92125,0 0,64.73875 c 0,8.525 5.04125,14.20875 12.605,14.20875 6.93375,0 11.97625,-5.68375 11.97625,-14.20875 l 0,-64.73875 12.92,0 0,63.15875 c 0,7.26375 -0.945,11.0525 -3.46625,15.78875 z"
           id="path55" />
        <path
           inkscape:connector-curvature="0"
           style="fill:#000000;fill-rule:nonzero;stroke:none"
           d="m 111.7225,253.135 c -3.4875,7.89625 -10.7825,12.6325 -19.97875,12.6325 -10.7825,0 -18.71125,-5.36875 -23.15,-15.47375 -2.855,-6.63125 -4.7575,-19.2625 -4.7575,-30.9475 0,-12.6325 0.9525,-21.79 4.12375,-30.31625 3.17,-9.47375 12.36625,-16.42125 22.83125,-16.42125 13.0025,0 22.83375,9.47375 23.4675,22.7375 l -13.0025,0 c -0.31625,-6 -4.43875,-10.105 -10.7825,-10.105 -4.43875,0 -7.92625,2.21 -10.1475,6.63125 -2.53625,4.42125 -4.1225,14.52875 -4.1225,25.2625 0,7.58 0.635,15.47375 1.9025,22.42125 1.9025,8.8425 6.3425,13.57875 13.32,13.57875 6.65875,0 9.83,-4.42125 9.83,-13.89375 l 0,-6 -10.1475,0 0,-12.63125 23.15,0 0,18.63125 c 0,6.31625 -0.63375,10.105 -2.53625,13.89375 z"
           id="path57" />
        <path
           inkscape:connector-curvature="0"
           style="fill:#000000;fill-rule:nonzero;stroke:none"
           d="m 169.7575,264.18875 0,-40.7375 -24.5825,0 0,40.7375 -12.9175,0 0,-90 12.9175,0 0,36.63125 24.5825,0 0,-36.63125 12.92,0 0,90 -12.92,0 z"
           id="path59" />
        <path
           inkscape:connector-curvature="0"
           style="fill:#000000;fill-rule:nonzero;stroke:none"
           d="m 33.23625,264.18875 0,-90 12.60125,0 0,90 -12.60125,0 z"
           id="path61" />
        <path
           inkscape:connector-curvature="0"
           style="fill:#000000;fill-rule:nonzero;stroke:none"
           d="m -25.28625,264.18875 0,-90 12.98625,0 0,77.99875 32.93625,0 0,12.00125 -45.9225,0 z"
           id="path63" />
        <path
           inkscape:connector-curvature="0"
           style="fill:#000000;fill-rule:nonzero;stroke:none"
           d="m 274.92875,222.62375 c -3.89375,-2.5225 -7.67375,-5.05375 -10.0875,-6.75 -7.25625,-5.1075 -11.09875,-12.0025 -11.09875,-19.895 0,-12.95 10.14625,-23.37 23.14875,-23.37 12.68625,0 22.515,9.79 22.8325,23.37 l -12.36875,0 c -0.315,-6.31625 -4.755,-10.4225 -10.46375,-10.4225 -6.025,0 -10.78125,4.42125 -10.78125,10.4225 0,4.42125 1.9025,6.945 8.5625,10.73625 17.44125,10.105 25.05125,19.895 25.05125,32.8425 0,14.52625 -11.09875,26.21125 -25.05125,26.21125 -15.8575,0 -25.37125,-13.265 -25.37125,-28.10625 l 12.685,0 c 0,7.57875 3.80625,15.47375 12.68625,15.47375 6.975,0 12.6825,-6.31625 12.6825,-13.57875 0,-5.64 -2.32875,-10.39125 -12.42625,-16.93375 z"
           id="path65" />
        <path
           inkscape:connector-curvature="0"
           style="fill:#000000;fill-rule:nonzero;stroke:none"
           d="m 224.73375,186.18875 0,78 -12.98625,0 0,-78 -16.4675,0 0,-12 45.92375,0 0,12 -16.47,0 z"
           id="path67" />
        <path
           inkscape:connector-curvature="0"
           style="fill:#000000;fill-rule:nonzero;stroke:none"
           d="m 23.93,66.032497 -6.3325,25.8925 12.98125,0 -6.64875,-25.8925 z m 16.14625,63.156253 -6.3325,-24.63125 -19.3125,0 -6.015,24.63125 -12.98125,0 22.47875,-90.000003 12.665,0 22.47875,90.000003 -12.98125,0 z"
           id="path69" />
        <path
           inkscape:connector-curvature="0"
           style="fill:#000000;fill-rule:nonzero;stroke:none"
           d="m 350.31125,118.135 c -3.48875,7.89625 -10.7825,12.6325 -19.97875,12.6325 -10.7825,0 -18.71125,-5.36875 -23.15,-15.47375 -2.85375,-6.63125 -4.7575,-19.262503 -4.7575,-30.947503 0,-12.6325 0.9525,-21.79 4.12375,-30.31625 3.17,-9.47375 12.36625,-16.42125 22.83125,-16.42125 13.0025,0 22.83375,9.47375 23.4675,22.7375 l -13.00125,0 c -0.3175,-6 -4.44,-10.105 -10.7825,-10.105 -4.44,0 -7.9275,2.21 -10.14875,6.63125 -2.53625,4.42125 -4.12125,14.52875 -4.12125,25.2625 0,7.58 0.63375,15.47375 1.90125,22.421253 1.90375,8.8425 6.3425,13.57875 13.32,13.57875 6.65875,0 9.83125,-4.42125 9.83125,-13.89375 l 0,-6.000003 -10.14875,0 0,-12.63125 23.15,0 0,18.631253 c 0,6.31625 -0.63375,10.105 -2.53625,13.89375 z"
           id="path71" />
        <path
           inkscape:connector-curvature="0"
           style="fill:#000000;fill-rule:nonzero;stroke:none"
           d="m 201.60375,129.18875 0,-90.000003 12.6,0 0,90.000003 -12.6,0 z"
           id="path73" />
        <path
           inkscape:connector-curvature="0"
           style="fill:#000000;fill-rule:nonzero;stroke:none"
           d="m 172.035,129.18875 -27.73375,-60.316253 0,60.316253 -12.92125,0 0,-90.000003 12.92125,0 24.58125,53.99875 0,-53.99875 12.92,0 0,90.000003 -9.7675,0 z"
           id="path75" />
        <path
           inkscape:connector-curvature="0"
           style="fill:#000000;fill-rule:nonzero;stroke:none"
           d="m 274.6575,129.18875 -27.73375,-60.316253 0,60.316253 -12.92,0 0,-90.000003 12.92,0 24.5825,53.99875 0,-53.99875 12.92,0 0,90.000003 -9.76875,0 z"
           id="path77" />
        <path
           inkscape:connector-curvature="0"
           style="fill:#000000;fill-rule:nonzero;stroke:none"
           d="m 91.81375,51.819997 -13.235,0 0,22.7375 13.235,0 c 7.56375,0 11.66,-4.10625 11.66,-11.37 0,-6.945 -4.72625,-11.3675 -11.66,-11.3675 z m 11.03,77.368753 -11.975,-42.317503 -12.29,0 0,42.317503 -12.92125,0 0,-90.000003 26.7875,0 c 14.18125,0 23.635,9.4725 23.635,23.99875 0,10.7375 -4.41125,18.6325 -12.92125,21.79 l 12.92125,44.211253 -13.23625,0 z"
           id="path79" />
        <path
           inkscape:connector-curvature="0"
           style="fill:#000000;fill-rule:nonzero;stroke:none"
           d="m -24.54125,129.18875 -11.09,0 -8.55625,-47.053753 -8.555,47.053753 -11.4075,0 -14.26,-90.000003 12.675,0 7.60625,48 8.87125,-48 10.14125,0 8.555,48 7.92125,-48 12.67625,0 -14.5775,90.000003 z"
           id="path81" />
      </g>
    </g>
  </g>
</svg>
