<?xml version="1.0" encoding="UTF-8" standalone="no"?>
<!-- Created with Inkscape (http://www.inkscape.org/) -->

<svg
   xmlns:dc="http://purl.org/dc/elements/1.1/"
   xmlns:cc="http://creativecommons.org/ns#"
   xmlns:rdf="http://www.w3.org/1999/02/22-rdf-syntax-ns#"
   xmlns:svg="http://www.w3.org/2000/svg"
   xmlns="http://www.w3.org/2000/svg"
   xmlns:sodipodi="http://sodipodi.sourceforge.net/DTD/sodipodi-0.dtd"
   xmlns:inkscape="http://www.inkscape.org/namespaces/inkscape"
   id="svg2"
   inkscape:version="0.48.2 r9819"
   height="2710"
   width="2170"
   version="1.1"
   sodipodi:docname="AJAX1.svg">
  <defs
     id="defs19" />
  <sodipodi:namedview
     id="base"
     fit-margin-left="0"
     inkscape:zoom="0.1767767"
     borderopacity="1.0"
     inkscape:current-layer="g3763"
     inkscape:cx="686.98904"
     inkscape:cy="710.04583"
     inkscape:window-maximized="1"
     showgrid="false"
     fit-margin-right="0"
     inkscape:document-units="px"
     bordercolor="#666666"
     inkscape:window-x="-8"
     inkscape:guide-bbox="true"
     inkscape:window-y="-8"
     fit-margin-bottom="0"
     inkscape:window-width="1280"
     inkscape:pageopacity="0.0"
     inkscape:pageshadow="2"
     pagecolor="#ffffff"
     showguides="true"
     inkscape:window-height="1004"
     fit-margin-top="0" />
  <metadata
     id="metadata7">
    <rdf:RDF>
      <cc:Work
         rdf:about="">
        <dc:format>image/svg+xml</dc:format>
        <dc:type
           rdf:resource="http://purl.org/dc/dcmitype/StillImage" />
        <dc:title />
      </cc:Work>
    </rdf:RDF>
  </metadata>
  <g
     id="layer1"
     inkscape:label="Layer 1"
     inkscape:groupmode="layer"
     transform="translate(153.64845,2392.392)">
    <g
       id="g3012"
       transform="translate(109.60155,-54.548234)"
       stroke-miterlimit="4"
       style="fill:#0dadea;stroke-miterlimit:4;stroke-dasharray:none">
      <g
         id="g3763">
        <path
           inkscape:connector-curvature="0"
           style="fill:#ffffff;fill-rule:nonzero;stroke:#000000;stroke-width:10;stroke-linecap:butt;stroke-linejoin:miter;stroke-miterlimit:4;stroke-opacity:1;stroke-dasharray:none"
           d="m 1901.7488,232.16723 c 0,74.5625 -60.4375,135 -135,135 l -1890.00005,0 c -74.55938,0 -135,-60.4375 -135,-135 l 0,-2430.00003 c 0,-74.5594 60.44062,-135 135,-135 l 1890.00005,0 c 74.5625,0 135,60.4406 135,135 l 0,2430.00003 z"
           id="path11" />
        <path
           inkscape:connector-curvature="0"
           style="fill:#000000;fill-rule:nonzero;stroke:none"
           d="m -123.25125,333.41723 c -55.83013,0 -101.25,-45.425 -101.25,-101.25 l 0,-2430.00003 c 0,-55.8301 45.41987,-101.25 101.25,-101.25 l 1890.00005,0 c 55.825,0 101.25,45.4199 101.25,101.25 l 0,2430.00003 c 0,55.825 -45.425,101.25 -101.25,101.25 l -1890.00005,0 z"
           id="path13" />
        <path
           inkscape:connector-curvature="0"
           style="fill:#ffffff;fill-rule:nonzero;stroke:none"
           d="m 1811.7488,-2197.8328 c 0,-24.8133 -20.1875,-45 -45,-45 l -1890.00005,0 c -24.81325,0 -45,20.1867 -45,45 l 0,540.0012 1980.00005,0 0,-540.0012 z"
           id="path15" />
        <path
           inkscape:connector-curvature="0"
           style="fill:#ffffff;fill-rule:nonzero;stroke:none"
           d="m -168.25125,232.16853 c 0,24.8125 20.18675,45 45,45 l 1890.00005,0 c 24.8125,0 45,-20.1875 45,-45 l 0,-1833.75013 -1980.00005,0 0,1833.75013 z"
           id="path17" />
        <path
           inkscape:connector-curvature="0"
           style="fill:#c0111e;fill-rule:evenodd;stroke:none;fill-opacity:1"
           d="m 821.74875,-364.08282 c 148.71125,0 270.00005,121.3 270.00005,270.012501 0,148.7 -121.2888,269.987499 -270.00005,269.987499 -148.7125,0 -270,-121.287499 -270,-269.987499 0,-148.712501 121.2875,-270.012501 270,-270.012501"
           id="path19" />
        <path
           inkscape:connector-curvature="0"
           style="fill:#000000;fill-rule:nonzero;stroke:none"
           d="m 1255.7238,-2007.8066 -20.2001,94.7363 39.1501,0 -18.95,-94.7363 z m 49.2625,237.4738 -20.2126,-96 -59.3624,0 -20.2001,96 -46.725,0 73.2501,-360 46.7249,0 74.5126,360 -47.9875,0 z"
           id="path21" />
        <path
           inkscape:connector-curvature="0"
           style="fill:#000000;fill-rule:nonzero;stroke:none"
           d="m 44.1525,-1806.9641 c -7.87375,26.1138 -31.74,42.9475 -63.47875,42.9475 -36.8175,0 -59.67125,-15.1575 -71.0975,-48 -10.15625,-30.3162 -15.235,-79.5787 -15.235,-137.685 0,-32.8425 3.80875,-80.8412 8.8875,-108.6312 10.15625,-55.5788 31.73875,-77.0525 74.905,-77.0525 40.62625,0 67.2875,25.2625 71.0975,69.4737 l -46.975,0 c -1.27,-15.1575 -10.1575,-22.7375 -22.8525,-22.7375 -16.505,0 -25.39125,11.3688 -30.47,35.3688 -6.34875,29.0525 -7.6175,55.5787 -7.6175,103.5787 0,50.5275 1.26875,72 7.6175,102.3163 5.07875,24 13.965,36.6325 29.2,36.6325 16.505,0 24.1225,-12.6325 24.1225,-44.2113 l 46.975,0 c 0,27.79 -1.27,35.3688 -5.07875,48 z"
           id="path23" />
        <path
           inkscape:connector-curvature="0"
           style="fill:#000000;fill-rule:nonzero;stroke:none"
           d="m 1699.9113,-1770.3328 -47.9875,-170.5263 -15.8,35.3688 0,135.1575 -45.4625,0 0,-360 45.4625,0 0,114.9475 54.95,-114.9475 53.025,0 -59.3375,123.79 64.4,236.21 -49.25,0 z"
           id="path25" />
        <path
           inkscape:connector-curvature="0"
           style="fill:#000000;fill-rule:nonzero;stroke:none"
           d="m 1403.3738,-1770.3328 0,-360 45.2125,0 0,318.3162 91.675,0 0,41.6838 -136.8875,0 z"
           id="path27" />
        <path
           inkscape:connector-curvature="0"
           style="fill:#000000;fill-rule:nonzero;stroke:none"
           d="m 402.1925,-2088.6491 c -41.685,0 -36.00625,112.4213 -36.00625,137.685 0,24 -5.67875,140.2113 36.00625,140.2113 40.4225,0 34.745,-116.2113 34.745,-140.2113 0,-29.0525 -0.63875,-137.685 -34.745,-137.685 z m 0,324.6325 c -89.68625,0 -82.745,-127.5787 -82.745,-186.9475 0,-61.895 -5.67875,-184.4212 82.745,-184.4212 88.425,0 82.74625,123.79 82.74625,184.4212 0,59.3688 5.67875,186.9475 -82.74625,186.9475 z"
           id="path29" />
        <path
           inkscape:connector-curvature="0"
           style="fill:#000000;fill-rule:nonzero;stroke:none"
           d="m 185.28125,-2083.5953 -22.1325,0 0,98.5262 29.71875,0 c 25.28625,0 32.8725,-11.3687 32.8725,-45.4737 0,-40.4213 -8.85,-53.0525 -40.45875,-53.0525 z m 49.30875,133.895 36.66625,179.3687 -46.78,0 -40.46,-168 -20.8675,0 0,168 -45.5175,0 0,-360.0012 70.17875,0 c 55.63125,0 84.71125,34.105 84.71125,101.0537 0,40.4213 -11.37875,63.1575 -37.93125,79.5788 z"
           id="path31" />
        <path
           inkscape:connector-curvature="0"
           style="fill:#000000;fill-rule:nonzero;stroke:none"
           d="m 669.00125,-1925.7003 c 10.39,22.305 17.70125,53.0525 17.70125,78.315 0,25.2637 -11.38,51.79 -29.08,66.9487 -11.37875,10.105 -27.50375,16.4213 -46.46875,16.4213 -50.57375,0 -76.81375,-32.8425 -79.34125,-96 l 46.78125,0 c 0,13.8937 1.2625,18.9462 3.7925,26.5262 3.7925,13.895 14.85875,22.7363 28.7675,22.7363 17.70125,0 28.7675,-13.895 28.7675,-36.6325 0,-31.5775 -11.06625,-58.105 -38.88125,-90.9463 -16.43875,-18.9487 -27.50375,-32.8425 -31.29625,-37.895 -20.23,-24 -29.08125,-49.2637 -29.08125,-74.5262 0,-49.2638 30.03125,-84.6325 73.02,-84.6325 44.2525,0 67.9625,27.7887 73.02,84.6325 l -46.78125,0 c -1.265,-27.79 -8.53875,-39.1588 -24.97375,-39.1588 -17.7025,0 -27.50375,15.1588 -27.50375,39.1588 0,16.4212 6.00875,29.0525 24.975,49.2625 39.195,44.21 45.84625,52.7437 56.5825,75.79 z"
           id="path33" />
        <path
           inkscape:connector-curvature="0"
           style="fill:#000000;fill-rule:nonzero;stroke:none"
           d="m 859.8925,-1925.7003 c 10.39,22.305 17.7,53.0525 17.7,78.315 0,25.2637 -11.38,51.79 -29.08,66.9487 -11.37875,10.105 -27.50375,16.4213 -46.46875,16.4213 -50.57375,0 -76.81375,-32.8425 -79.34125,-96 l 46.78125,0 c 0,13.8937 1.2625,18.9462 3.7925,26.5262 3.7925,13.895 14.85875,22.7363 28.7675,22.7363 17.7,0 28.7675,-13.895 28.7675,-36.6325 0,-31.5775 -11.0675,-58.105 -38.88,-90.9463 -16.44,-18.9487 -27.505,-32.8425 -31.29875,-37.895 -20.22875,-24 -29.08,-49.2637 -29.08,-74.5262 0,-49.2638 30.03125,-84.6325 73.02,-84.6325 44.2525,0 67.96375,27.7887 73.02,84.6325 l -46.78125,0 c -1.265,-27.79 -8.5375,-39.1588 -24.97375,-39.1588 -17.7025,0 -27.50375,15.1588 -27.50375,39.1588 0,16.4212 6.00875,29.0525 24.975,49.2625 39.195,44.21 45.84625,52.7437 56.58375,75.79 z"
           id="path35" />
        <path
           inkscape:connector-curvature="0"
           style="fill:#000000;fill-rule:nonzero;stroke:none"
           d="m 1094.6613,-1770.3316 -39.375,0 -34.2875,-202.1062 -33.01745,202.1062 -39.3675,0 -42.2213,-360.0012 46.9875,0 19.3625,166.7375 29.20625,-166.7375 39.375,0 29.2125,166.7375 19.3625,-166.7375 46.9875,0 -42.225,360.0012 z"
           id="path37" />
        <path
           inkscape:connector-curvature="0"
           style="fill:#000000;fill-rule:nonzero;stroke:none"
           d="m 508.33125,-476.58277 -137.69625,-243.7875 0,243.7875 -56.845,0 0,-360 56.845,0 131.3775,229.9 0,-229.9 56.84625,0 0,360 -50.5275,0 z"
           id="path39" />
        <path
           inkscape:connector-curvature="0"
           style="fill:#000000;fill-rule:nonzero;stroke:none"
           d="m 156.085,-756.55777 c -11.39625,-18.95 -25.325,-26.525 -46.85125,-27.7875 -27.85875,-1.2625 -45.585,12.625 -58.24625,44.2125 -8.865,21.475 -13.92875,54.3125 -13.92875,84.625 0,37.9 7.595,77.05 21.52375,99.7875 11.39875,18.95 26.59125,27.8 49.385,27.8 26.59125,0 43.05125,-13.9 55.715,-45.475 7.5975,-18.95 13.9275,-54.325 13.9275,-82.1125 0,-40.4125 -7.5975,-77.05 -21.525,-101.05 z m 39.2525,246.3125 c -20.26125,27.8 -49.385,40.425 -87.37,40.425 -50.65,0 -82.3075,-20.2125 -103.83375,-64.425 -15.1925,-30.3125 -25.3225,-78.3125 -25.3225,-121.2625 0,-59.3625 15.19375,-112.4125 39.25375,-146.525 21.525,-27.7875 50.64875,-40.4125 92.43375,-40.4125 45.58625,0 77.24125,20.2 100.03375,64.4125 15.19375,31.575 24.0575,77.05 24.0575,122.525 0,56.85 -13.9275,113.6875 -39.2525,145.2625 z"
           id="path41" />
        <path
           inkscape:connector-curvature="0"
           style="fill:#000000;fill-rule:nonzero;stroke:none"
           d="m 986.76125,-773.42027 c -8.84,-5.05 -13.8925,-6.3125 -32.845,-6.3125 l -68.215,0 0,88.4125 68.215,0 c 17.6887,0 24.005,-1.2625 32.845,-6.3125 13.89995,-7.575 22.73745,-22.7375 22.73745,-37.8875 0,-15.1625 -8.8375,-30.325 -22.73745,-37.9 z m 25.26255,296.8375 -58.10755,-156.625 -68.215,0 0,156.625 -56.8425,0 0,-360 118.7425,0 c 27.7925,0 46.735,2.525 64.42255,11.375 31.5875,15.1625 54.325,53.05 54.325,89.6875 0,37.8875 -22.7375,75.7875 -55.5875,90.9375 l 63.1625,168 -61.9,0 z"
           id="path43" />
        <path
           inkscape:connector-curvature="0"
           style="fill:#000000;fill-rule:nonzero;stroke:none"
           d="m 1577.5237,-764.58277 c -8.8499,-8.8375 -21.4749,-15.15 -36.6375,-15.15 l -64.425,0 0,245.05 56.85,0 c 18.95,0 30.3125,-3.7875 40.425,-13.8875 21.475,-21.475 32.8375,-60.6375 32.8375,-108.6375 0,-48 -11.3625,-88.425 -29.05,-107.375 z m 24,267.8 c -13.9,12.625 -32.8499,18.95 -51.7874,20.2 -3.7875,0 -11.375,0 -20.2126,0 l -109.9124,0 0,-360 116.2249,0 c 36.6376,0 50.5251,3.7875 69.475,18.95 37.9,32.8375 59.375,89.6875 59.375,160.425 0,72 -22.7375,128.8375 -63.1625,160.425 z"
           id="path45" />
        <path
           inkscape:connector-curvature="0"
           style="fill:#000000;fill-rule:nonzero;stroke:none"
           d="m 1135.1238,-476.58277 0,-360 211.9375,0 0,56.85 -155.1625,0 0,88.4125 104.7,0 0,58.1125 -104.7,0 0,98.525 166.5125,0 0,58.1 -223.2875,0 z"
           id="path47" />
        <path
           inkscape:connector-curvature="0"
           style="fill:#000000;fill-rule:nonzero;stroke:none"
           d="m 1019.6612,-1344.6053 c -14.25,-23.685 -31.65745,-33.1575 -58.56365,-34.7375 -34.8251,-1.5788 -56.9826,15.79 -72.8088,55.2625 -11.08125,26.8437 -17.41125,67.8962 -17.41125,105.79 0,47.3687 9.49375,96.3175 26.90375,124.7375 14.2512,23.6825 33.24,34.7325 61.7312,34.7325 33.2363,0 53.81125,-17.3625 69.64875,-56.8362 9.5,-23.6851 17.4126,-67.8963 17.4126,-102.6338 0,-50.525 -9.5,-96.3138 -26.9126,-126.315 z m 49.0626,307.8975 c -25.3251,34.7375 -61.7251,50.52503 -109.21135,50.52503 -63.31,0 -102.8837,-25.26253 -129.78995,-80.52503 -18.99125,-37.8987 -31.65375,-97.8963 -31.65375,-151.5825 0,-74.21 18.99125,-140.5238 49.06625,-183.1575 26.90875,-34.7388 63.31245,-50.525 115.54375,-50.525 56.98245,0 96.54505,25.2625 125.04505,80.525 18.9874,39.475 30.075,96.315 30.075,153.1575 0,71.0537 -17.4125,142.1075 -49.075,181.5825 z"
           id="path49" />
        <path
           inkscape:connector-curvature="0"
           style="fill:#000000;fill-rule:nonzero;stroke:none"
           d="m 1473.1487,-1365.1341 c -12.6375,-6.315 -20.525,-7.895 -42.6375,-7.895 l -93.1624,0 0,110.5288 93.1624,0 c 22.1125,0 30,-1.5813 42.6375,-7.895 15.7875,-7.895 26.8376,-28.4213 26.8376,-47.3688 0,-18.9487 -11.05,-37.895 -26.8376,-47.37 z m 30,159.475 c -20.525,9.4725 -47.375,15.79 -82.1124,15.79 l -83.6875,0 0,195.78633 -71.0625,0 0,-449.99753 154.75,0 c 36.325,0 60,3.1587 82.1124,14.2087 39.475,18.9488 69.475,66.3188 69.475,112.1075 0,47.3688 -30,94.7388 -69.475,112.105 z"
           id="path51" />
        <path
           inkscape:connector-curvature="0"
           style="fill:#000000;fill-rule:nonzero;stroke:none"
           d="m 605.64625,-1380.9228 0,386.84003 -71.35875,0 0,-386.84003 -103.085,0 0,-63.1588 279.11375,0 0,63.1588 -104.67,0 z"
           id="path53" />
        <path
           inkscape:connector-curvature="0"
           style="fill:#000000;fill-rule:nonzero;stroke:none"
           d="m 332.99375,-1020.9203 c -25.265,22.10003 -60.0025,34.73753 -97.9,34.73753 -77.37375,0 -134.21875,-45.78753 -164.22375,-113.68503 l 67.90125,-25.2625 c 18.94875,42.635 53.68625,66.31 96.3225,66.31 41.05625,0 69.4775,-28.4162 69.4775,-66.31 0,-60.0013 -69.4775,-69.4738 -127.905,-93.1588 -26.84125,-11.0537 -86.845,-37.8937 -86.845,-112.1062 0,-88.42 60.00375,-121.5775 140.53625,-121.5775 63.15875,0 105.795,36.315 127.9,91.5787 l -63.15875,18.945 c 0,0 -15.79125,-37.8937 -66.32125,-39.4712 -33.16125,-1.5788 -72.63875,11.0512 -69.48,52.1062 6.3175,83.6825 217.91,28.4213 217.91,205.2613 0,41.0575 -15.7925,77.37 -44.21375,102.6325 z"
           id="path55" />
      </g>
    </g>
  </g>
</svg>
