<?xml version="1.0" encoding="UTF-8" standalone="no"?>
<!-- Created with Inkscape (http://www.inkscape.org/) -->

<svg
   xmlns:dc="http://purl.org/dc/elements/1.1/"
   xmlns:cc="http://creativecommons.org/ns#"
   xmlns:rdf="http://www.w3.org/1999/02/22-rdf-syntax-ns#"
   xmlns:svg="http://www.w3.org/2000/svg"
   xmlns="http://www.w3.org/2000/svg"
   xmlns:sodipodi="http://sodipodi.sourceforge.net/DTD/sodipodi-0.dtd"
   xmlns:inkscape="http://www.inkscape.org/namespaces/inkscape"
   width="2170"
   height="1090"
   id="svg2"
   sodipodi:version="0.32"
   inkscape:version="0.48.2 r9819"
   version="1.0"
   sodipodi:docname="AJAX8.svg">
  <defs
     id="defs4">
    <clipPath
       id="Clip0">
      <path
         inkscape:connector-curvature="0"
         d="m 0,0 0,3024.5 2160.5,0 L 2160.5,0 0,0 z"
         transform="translate(0,0.5)"
         id="path7" />
    </clipPath>
    <clipPath
       id="Clip0-1">
      <path
         inkscape:connector-curvature="0"
         d="m 0,0 0,3024.5 2592.5,0 L 2592.5,0 0,0 z"
         transform="translate(0,0.5)"
         id="path7-7" />
    </clipPath>
    <clipPath
       id="Clip0-4">
      <path
         inkscape:connector-curvature="0"
         d="m 0,0 0,1728.5 4320.5,0 L 4320.5,0 0,0 z"
         transform="translate(0,0.5)"
         id="path7-0" />
    </clipPath>
  </defs>
  <sodipodi:namedview
     id="base"
     pagecolor="#ffffff"
     bordercolor="#666666"
     borderopacity="1.0"
     gridtolerance="10000"
     guidetolerance="10"
     objecttolerance="10"
     inkscape:pageopacity="0.0"
     inkscape:pageshadow="2"
     inkscape:zoom="0.17436557"
     inkscape:cx="1381.0655"
     inkscape:cy="186.48743"
     inkscape:document-units="px"
     inkscape:current-layer="layer1"
     width="601px"
     height="601px"
     inkscape:window-width="1280"
     inkscape:window-height="1004"
     inkscape:window-x="-8"
     inkscape:window-y="-8"
     showgrid="false"
     fit-margin-top="0"
     fit-margin-left="0"
     fit-margin-right="0"
     fit-margin-bottom="0"
     inkscape:window-maximized="1"
     showguides="true"
     inkscape:guide-bbox="true" />
  <metadata
     id="metadata7">
    <rdf:RDF>
      <cc:Work
         rdf:about="">
        <dc:format>image/svg+xml</dc:format>
        <dc:type
           rdf:resource="http://purl.org/dc/dcmitype/StillImage" />
        <dc:title></dc:title>
      </cc:Work>
    </rdf:RDF>
  </metadata>
  <g
     inkscape:label="Layer 1"
     inkscape:groupmode="layer"
     id="layer1"
     transform="translate(2189.7813,-132.90625)">
    <path
       inkscape:connector-curvature="0"
       style="fill:#ffffff;fill-rule:nonzero;stroke:#000000;stroke-width:10;stroke-linecap:butt;stroke-linejoin:miter;stroke-miterlimit:4;stroke-opacity:1;stroke-dasharray:none"
       d="m -24.7812,1082.9063 c 0,74.5574 -60.4375,135 -135,135 l -1890.0001,0 c -74.5592,0 -135,-60.4426 -135,-135 l 0,-810.00005 c 0,-74.55938 60.4408,-135 135,-135 l 1890.0001,0 c 74.5625,0 135,60.44062 135,135 l 0,810.00005 z"
       id="path11" />
    <path
       inkscape:connector-curvature="0"
       style="fill:#000000;fill-rule:nonzero;stroke:none"
       d="m -114.7812,1082.9063 c 0,24.8137 -20.1875,45 -45,45 l -1890.0001,0 c -24.8132,0 -45,-20.1863 -45,-45 l 0,-810.00005 c 0,-24.81325 20.1868,-45 45,-45 l 1890.0001,0 c 24.8125,0 45,20.18675 45,45 l 0,810.00005 z m -45,-911.25005 -1890.0001,0 c -55.8301,0 -101.25,45.41988 -101.25,101.25 l 0,810.00005 c 0,55.8287 45.4199,101.25 101.25,101.25 l 1890.0001,0 c 55.825,0 101.25,-45.4213 101.25,-101.25 l 0,-810.00005 c 0,-55.83012 -45.425,-101.25 -101.25,-101.25 z"
       id="path13" />
    <path
       inkscape:connector-curvature="0"
       style="fill:#000000;fill-rule:nonzero;stroke:none"
       d="m -1104.7813,1021.0312 c -77.665,0 -140.625,-62.9587 -140.625,-140.62495 0,-77.66625 62.96,-140.625 140.625,-140.625 77.665,0 140.6251,62.95875 140.6251,140.625 0,77.66625 -62.9601,140.62495 -140.6251,140.62495 z m 337.5001,-331.87495 -675.0001,0 c -12.4262,0 -22.5,10.07375 -22.5,22.5 l 0,337.50005 c 0,12.4262 10.0738,22.5 22.5,22.5 l 675.0001,0 c 12.425,0 22.5,-10.0738 22.5,-22.5 l 0,-337.50005 c 0,-12.42625 -10.075,-22.5 -22.5,-22.5 z"
       id="path15" />
    <path
       inkscape:connector-curvature="0"
       style="fill:#000000;fill-rule:nonzero;stroke:none"
       d="m -997.90625,531.65625 -213.75005,0 c -12.4262,0 -22.5,10.07375 -22.5,22.5 l 0,90 c 0,12.42625 10.0738,22.5 22.5,22.5 l 213.75005,0 c 12.4264,0 22.5001,-10.07375 22.5001,-22.5 l 0,-90 c 0,-12.42625 -10.0737,-22.5 -22.5001,-22.5 z"
       id="path17" />
    <path
       inkscape:connector-curvature="0"
       style="fill:#000000;fill-rule:nonzero;stroke:none"
       d="m -1259.3687,577.80625 -195.6,-52.4125 -8.735,32.6 195.6,52.4125 8.735,-32.6 z"
       id="path19" />
    <path
       inkscape:connector-curvature="0"
       style="fill:#000000;fill-rule:nonzero;stroke:none"
       d="m -1209.3262,485.29 -143.1887,-143.18875 -23.865,23.865 143.1888,143.19 23.8649,-23.86625 z"
       id="path21" />
    <path
       inkscape:connector-curvature="0"
       style="fill:#000000;fill-rule:nonzero;stroke:none"
       d="m -941.4587,610.40625 195.6025,-52.4125 -8.7375,-32.6 -195.6,52.4125 8.735,32.6 z"
       id="path23" />
    <path
       inkscape:connector-curvature="0"
       style="fill:#000000;fill-rule:nonzero;stroke:none"
       d="m -833.1812,365.96625 -23.8625,-23.865 -143.1925,143.18875 23.86625,23.86625 143.18875,-143.19 z"
       id="path25" />
    <path
       inkscape:connector-curvature="0"
       style="fill:#000000;fill-rule:nonzero;stroke:none"
       d="m -1087.9063,295.40625 -33.75,0 0,202.5 33.75,0 0,-202.5 z"
       id="path27" />
  </g>
</svg>
