<?xml version="1.0" encoding="UTF-8" standalone="no"?>
<!-- Generator: Adobe Illustrator 12.0.1, SVG Export Plug-In  -->

<svg
   xmlns:dc="http://purl.org/dc/elements/1.1/"
   xmlns:cc="http://creativecommons.org/ns#"
   xmlns:rdf="http://www.w3.org/1999/02/22-rdf-syntax-ns#"
   xmlns:svg="http://www.w3.org/2000/svg"
   xmlns="http://www.w3.org/2000/svg"
   xmlns:sodipodi="http://sodipodi.sourceforge.net/DTD/sodipodi-0.dtd"
   xmlns:inkscape="http://www.inkscape.org/namespaces/inkscape"
   version="1.1"
   width="237.34375"
   height="284.5"
   viewBox="-1 0 237.34375 284.5"
   enable-background="new -1 0 289 288"
   xml:space="preserve"
   id="svg2"
   inkscape:version="0.48.2 r9819"
   sodipodi:docname="MUTCD R10-13.svg"><metadata
   id="metadata22"><rdf:RDF><cc:Work
       rdf:about=""><dc:format>image/svg+xml</dc:format><dc:type
         rdf:resource="http://purl.org/dc/dcmitype/StillImage" /><dc:title></dc:title></cc:Work></rdf:RDF></metadata><sodipodi:namedview
   pagecolor="#ffffff"
   bordercolor="#666666"
   borderopacity="1"
   objecttolerance="10"
   gridtolerance="10"
   guidetolerance="10"
   inkscape:pageopacity="0"
   inkscape:pageshadow="2"
   inkscape:window-width="1280"
   inkscape:window-height="1004"
   id="namedview20"
   showgrid="false"
   fit-margin-top="0"
   fit-margin-left="0"
   fit-margin-right="0"
   fit-margin-bottom="0"
   inkscape:zoom="1.1588695"
   inkscape:cx="44.582012"
   inkscape:cy="-21.308191"
   inkscape:window-x="-8"
   inkscape:window-y="-8"
   inkscape:window-maximized="1"
   inkscape:current-layer="svg2"
   showguides="true"
   inkscape:guide-bbox="true" />
<defs
   id="defs4">
</defs>







<path
   inkscape:connector-curvature="0"
   d="m 235.5875,269.019 c 0,8.1075 -6.6325,14.74 -14.74,14.74 l -206.36375,0 c -8.1075,0 -14.74,-6.6325 -14.74,-14.74 l 0,-253.5325 c 0,-8.1075 6.6325,-14.74 14.74,-14.74 l 206.36375,0 c 8.1075,0 14.74,6.6325 14.74,14.74 l 0,253.5325 z"
   style="fill:#ffffff;fill-opacity:1;fill-rule:nonzero;stroke:#000000;stroke-width:1.5;stroke-miterlimit:4;stroke-opacity:1;stroke-dasharray:none"
   id="path3901" /><path
   inkscape:connector-curvature="0"
   d="m 220.84725,4.67686 -206.36375,0 c -5.945,0 -10.80875,4.86375 -10.80875,10.81 l 0,253.5325 c 0,5.945 4.86375,10.80875 10.80875,10.80875 l 206.36375,0 c 5.945,0 10.81,-4.86375 10.81,-10.80875 l 0,-253.5325 c 0,-5.94625 -4.865,-10.81 -10.81,-10.81 m 4.91375,264.3425 c 0,2.7025 -2.21125,4.9125 -4.91375,4.9125 l -206.36375,0 c -2.7025,0 -4.91375,-2.21 -4.91375,-4.9125 l 0,-253.5325 c 0,-2.7025 2.21125,-4.91375 4.91375,-4.91375 l 206.36375,0 c 2.7025,0 4.91375,2.21125 4.91375,4.91375 l 0,253.5325 z"
   style="fill:#000000;fill-opacity:1;fill-rule:nonzero;stroke:none"
   id="path3909" /><path
   inkscape:connector-curvature="0"
   d="m 67.55912,51.01811 c -1.63125,3.12125 -5.405,5.31125 -9.27125,5.31125 -3.8675,0 -7.6875,-2.19 -9.27125,-5.31125 -0.9325,-1.8175 -1.445,-4.05375 -1.445,-6.5225 l 0,-20.17375 4.985,0 0,20.17375 c 0,4.1 2.28375,6.755 5.73125,6.755 3.40125,0 5.73,-2.655 5.73,-6.755 l 0,-20.17375 4.93875,0 0,20.17375 c 0,2.46875 -0.46625,4.705 -1.3975,6.5225"
   style="fill:#000000;fill-opacity:1;fill-rule:nonzero;stroke:none"
   id="path3913" /><path
   inkscape:connector-curvature="0"
   d="m 73.6625,37.6 11.04125,0 0,4.985 -11.04125,0 0,-4.985 z"
   style="fill:#000000;fill-opacity:1;fill-rule:nonzero;stroke:none"
   id="path3915" /><path
   inkscape:connector-curvature="0"
   d="m 98.72701,28.74826 0,27.0225 -4.985,0 0,-27.0225 -7.175,0 0,-4.42625 19.4275,0 0,4.42625 -7.2675,0 z"
   style="fill:#000000;fill-opacity:1;fill-rule:nonzero;stroke:none"
   id="path3919" /><path
   inkscape:connector-curvature="0"
   d="m 130.68714,51.01811 c -1.63125,3.12125 -5.405,5.31125 -9.27125,5.31125 -3.8675,0 -7.6875,-2.19 -9.27125,-5.31125 -0.9325,-1.8175 -1.445,-4.05375 -1.445,-6.5225 l 0,-20.17375 4.985,0 0,20.17375 c 0,4.1 2.28375,6.755 5.73125,6.755 3.40125,0 5.73,-2.655 5.73,-6.755 l 0,-20.17375 4.93875,0 0,20.17375 c 0,2.46875 -0.46625,4.705 -1.3975,6.5225"
   style="fill:#000000;fill-opacity:1;fill-rule:nonzero;stroke:none"
   id="path3923" /><path
   inkscape:connector-curvature="0"
   d="m 155.61225,55.77025 -5.07875,-13.6975 -5.91625,0 0,13.6975 -4.985,0 0,-31.44875 11.41375,0 c 7.22125,0 9.31875,5.7775 9.31875,8.80625 0,3.35375 -1.9575,6.6625 -4.84625,7.96625 l 5.4975,14.67625 -5.40375,0 z m -4.38,-26.4625 -6.615,0 0,7.68625 6.56875,0 c 2.4225,0 4.24,-1.72375 4.24,-3.86625 0,-2.05 -1.77,-3.82 -4.19375,-3.82"
   style="fill:#000000;fill-opacity:1;fill-rule:nonzero;stroke:none"
   id="path3927" /><path
   inkscape:connector-curvature="0"
   d="m 183.37951,55.77025 -12.02,-21.29125 0,21.29125 -4.985,0 0,-31.44875 4.985,0 11.46125,20.08125 0,-20.08125 4.93875,0 0,31.44875 -4.38,0 z"
   style="fill:#000000;fill-opacity:1;fill-rule:nonzero;stroke:none"
   id="path3931" /><path
   inkscape:connector-curvature="0"
   d="m 76.31725,93.17575 0,13.6975 -4.985,0 0,-13.6975 -11.0425,-17.75125 5.96375,0 7.50125,12.11375 7.64125,-12.11375 5.82375,0 -10.9025,17.75125 z"
   style="fill:#000000;fill-opacity:1;fill-rule:nonzero;stroke:none"
   id="path3935" /><path
   inkscape:connector-curvature="0"
   d="m 91.925,75.425 5.07875,0 0,31.4475 -5.07875,0 0,-31.4475 z"
   style="fill:#000000;fill-opacity:1;fill-rule:nonzero;stroke:none"
   id="path3937" /><path
   inkscape:connector-curvature="0"
   d="m 104.55063,106.87313 0,-31.4475 18.5425,0 0,4.985 -13.5575,0 0,7.68625 9.13125,0 0,5.07875 -9.13125,0 0,8.61875 14.53625,0 0,5.07875 -19.52125,0 z"
   style="fill:#000000;fill-opacity:1;fill-rule:nonzero;stroke:none"
   id="path3941" /><path
   inkscape:connector-curvature="0"
   d="m 129.42963,106.87313 0,-31.4475 4.985,0 0,26.835 14.53625,0 0,4.6125 -19.52125,0 z"
   style="fill:#000000;fill-opacity:1;fill-rule:nonzero;stroke:none"
   id="path3945" /><path
   inkscape:connector-curvature="0"
   d="m 164.74438,106.87313 -11.08875,0 0,-31.4475 10.1575,0 c 3.21375,0 4.425,0.27875 6.05625,1.63 3.35375,2.8425 5.17125,7.87375 5.17125,14.02375 0,9.3175 -4.79875,15.79375 -10.29625,15.79375 m -0.5125,-26.4625 -5.59125,0 0,21.38375 5.4975,0 c 4.52,0 5.87125,-6.3825 5.87125,-10.715 0,-3.63375 -0.74625,-10.66875 -5.7775,-10.66875"
   style="fill:#000000;fill-opacity:1;fill-rule:nonzero;stroke:none"
   id="path3949" /><path
   inkscape:connector-curvature="0"
   d="m 106.92687,130.95387 0,27.0225 -4.985,0 0,-27.0225 -7.175,0 0,-4.42625 19.4275,0 0,4.42625 -7.2675,0 z"
   style="fill:#000000;fill-opacity:1;fill-rule:nonzero;stroke:none"
   id="path3953" /><path
   inkscape:connector-curvature="0"
   d="m 137.1165,154.99411 c -1.8175,2.37625 -4.28625,3.54125 -7.59375,3.54125 -4.42625,0 -7.12875,-1.77125 -9.03875,-5.6375 -1.305,-2.65625 -2.23625,-6.84875 -2.23625,-10.57625 0,-5.2175 1.30375,-9.87625 3.4475,-12.8125 1.8175,-2.46875 4.42625,-3.54 8.06,-3.54 8.7125,0 10.80875,9.3175 10.80875,16.3525 0,4.93875 -1.2575,9.8775 -3.4475,12.6725 m -7.36125,-23.9475 c -2.795,0 -4.1,1.11875 -5.2175,3.8675 -0.74625,1.86375 -1.2125,4.7525 -1.2125,7.4075 0,3.3075 0.7,6.70875 1.91125,8.7125 0.9775,1.63 2.2825,2.4225 4.28625,2.4225 2.32875,0 3.77375,-1.21125 4.845,-3.96 0.6525,-1.6775 1.21125,-4.7525 1.21125,-7.175 0,-3.63375 -0.7925,-11.275 -5.82375,-11.275"
   style="fill:#000000;fill-opacity:1;fill-rule:nonzero;stroke:none"
   id="path3957" /><path
   inkscape:connector-curvature="0"
   d="m 77.36575,209.07874 -5.07875,-13.6975 -5.91625,0 0,13.6975 -4.985,0 0,-31.44875 11.41375,0 c 7.22125,0 9.31875,5.7775 9.31875,8.80625 0,3.35375 -1.9575,6.6625 -4.84625,7.96625 l 5.49875,14.67625 -5.405,0 z m -4.38,-26.4625 -6.615,0 0,7.68625 6.56875,0 c 2.4225,0 4.24,-1.72375 4.24,-3.86625 0,-2.05 -1.77,-3.82 -4.19375,-3.82"
   style="fill:#000000;fill-opacity:1;fill-rule:nonzero;stroke:none"
   id="path3961" /><path
   inkscape:connector-curvature="0"
   d="m 88.1275,177.63 5.07875,0 0,31.44875 -5.07875,0 0,-31.44875 z"
   style="fill:#000000;fill-opacity:1;fill-rule:nonzero;stroke:none"
   id="path3963" /><path
   inkscape:connector-curvature="0"
   d="m 111.60887,209.63775 c -4.7525,0 -7.50125,-1.77 -9.41125,-5.73 -1.305,-2.79625 -2.09625,-6.61625 -2.09625,-10.48375 0,-5.0775 1.3975,-10.10875 3.54,-12.81125 1.86375,-2.33 4.52,-3.54125 8.06,-3.54125 4.84625,0 7.735,2.00375 9.83125,6.9425 l -4.7525,1.91 c -1.305,-2.79625 -2.655,-3.77375 -5.07875,-3.77375 -2.515,0 -4.1925,1.1175 -5.31,3.86625 -0.74625,1.86375 -1.2125,4.7525 -1.2125,7.4075 0,3.30875 0.5125,6.61625 1.585,8.57375 0.93125,1.81625 2.4225,2.56125 4.28625,2.56125 3.21375,0 5.4975,-2.0025 5.4975,-4.845 l 0,-1.35125 -5.73125,0 0,-4.93875 10.71625,0 0,6.29 c 0,5.73125 -4.19375,9.92375 -9.92375,9.92375"
   style="fill:#000000;fill-opacity:1;fill-rule:nonzero;stroke:none"
   id="path3967" /><path
   inkscape:connector-curvature="0"
   d="m 144.87387,209.07874 0,-13.6975 -11.46125,0 0,13.6975 -4.985,0 0,-31.44875 4.985,0 0,12.6725 11.46125,0 0,-12.6725 4.93875,0 0,31.44875 -4.93875,0 z"
   style="fill:#000000;fill-opacity:1;fill-rule:nonzero;stroke:none"
   id="path3971" /><path
   inkscape:connector-curvature="0"
   d="m 166.6775,182.05662 0,27.0225 -4.985,0 0,-27.0225 -7.175,0 0,-4.42625 19.4275,0 0,4.42625 -7.2675,0 z"
   style="fill:#000000;fill-opacity:1;fill-rule:nonzero;stroke:none"
   id="path3975" /><path
   inkscape:connector-curvature="0"
   d="m 79.2295,233.1595 0,27.0225 -4.985,0 0,-27.0225 -7.175,0 0,-4.42625 19.4275,0 0,4.42625 -7.2675,0 z"
   style="fill:#000000;fill-opacity:1;fill-rule:nonzero;stroke:none"
   id="path3979" /><path
   inkscape:connector-curvature="0"
   d="m 111.18962,255.42937 c -1.63125,3.12125 -5.405,5.31125 -9.27125,5.31125 -3.8675,0 -7.6875,-2.19 -9.27125,-5.31125 -0.9325,-1.8175 -1.445,-4.0525 -1.445,-6.5225 l 0,-20.17375 4.985,0 0,20.17375 c 0,4.1 2.28375,6.755 5.73125,6.755 3.40125,0 5.73,-2.655 5.73,-6.755 l 0,-20.17375 4.93875,0 0,20.17375 c 0,2.47 -0.46625,4.705 -1.3975,6.5225"
   style="fill:#000000;fill-opacity:1;fill-rule:nonzero;stroke:none"
   id="path3983" /><path
   inkscape:connector-curvature="0"
   d="m 136.11474,260.1815 -5.07875,-13.6975 -5.91625,0 0,13.6975 -4.985,0 0,-31.4475 11.41375,0 c 7.22125,0 9.31875,5.77625 9.31875,8.805 0,3.35375 -1.9575,6.6625 -4.84625,7.9675 l 5.4975,14.675 -5.40375,0 z m -4.38,-26.4625 -6.615,0 0,7.68625 6.56875,0 c 2.4225,0 4.24,-1.72375 4.24,-3.86625 0,-2.05 -1.77,-3.82 -4.19375,-3.82"
   style="fill:#000000;fill-opacity:1;fill-rule:nonzero;stroke:none"
   id="path3987" /><path
   inkscape:connector-curvature="0"
   d="m 163.88186,260.1815 -12.02,-21.29125 0,21.29125 -4.985,0 0,-31.4475 4.985,0 11.46125,20.08 0,-20.08 4.93875,0 0,31.4475 -4.38,0 z"
   style="fill:#000000;fill-opacity:1;fill-rule:nonzero;stroke:none"
   id="path3991" /></svg>