<?xml version="1.0" encoding="UTF-8" standalone="no"?>
<!-- Generator: Adobe Illustrator 12.0.1, SVG Export Plug-In  -->

<svg
   xmlns:dc="http://purl.org/dc/elements/1.1/"
   xmlns:cc="http://creativecommons.org/ns#"
   xmlns:rdf="http://www.w3.org/1999/02/22-rdf-syntax-ns#"
   xmlns:svg="http://www.w3.org/2000/svg"
   xmlns="http://www.w3.org/2000/svg"
   xmlns:sodipodi="http://sodipodi.sourceforge.net/DTD/sodipodi-0.dtd"
   xmlns:inkscape="http://www.inkscape.org/namespaces/inkscape"
   version="1.1"
   width="226"
   height="282.09375"
   viewBox="-1 0 226 282.09375"
   enable-background="new -1 0 289 288"
   xml:space="preserve"
   id="svg2"
   inkscape:version="0.48.2 r9819"
   sodipodi:docname="AJAX1.svg"><metadata
   id="metadata22"><rdf:RDF><cc:Work
       rdf:about=""><dc:format>image/svg+xml</dc:format><dc:type
         rdf:resource="http://purl.org/dc/dcmitype/StillImage" /><dc:title></dc:title></cc:Work></rdf:RDF></metadata><sodipodi:namedview
   pagecolor="#ffffff"
   bordercolor="#666666"
   borderopacity="1"
   objecttolerance="10"
   gridtolerance="10"
   guidetolerance="10"
   inkscape:pageopacity="0"
   inkscape:pageshadow="2"
   inkscape:window-width="1280"
   inkscape:window-height="1004"
   id="namedview20"
   showgrid="false"
   fit-margin-top="0"
   fit-margin-left="0"
   fit-margin-right="0"
   fit-margin-bottom="0"
   inkscape:zoom="1.1588695"
   inkscape:cx="98.910663"
   inkscape:cy="35.088303"
   inkscape:window-x="-8"
   inkscape:window-y="-8"
   inkscape:window-maximized="1"
   inkscape:current-layer="svg2"
   showguides="true"
   inkscape:guide-bbox="true" />
<defs
   id="defs4">
</defs>







<path
   inkscape:connector-curvature="0"
   d="m 224.25099,267.32636 c 0,7.7175 -6.31375,14.03 -14.03,14.03 l -196.428752,0 c -7.71625,0 -14.03,-6.3125 -14.03,-14.03 l 0,-252.55 c 0,-7.7175 6.31375,-14.03125 14.03,-14.03125 l 196.428752,0 c 7.71625,0 14.03,6.31375 14.03,14.03125 l 0,252.55 z"
   style="fill:#ffffff;fill-opacity:1;fill-rule:nonzero;stroke:#000000;stroke-width:1.5;stroke-miterlimit:4;stroke-opacity:1;stroke-dasharray:none"
   id="path13862" /><path
   inkscape:connector-curvature="0"
   d="m 210.22039,4.25325 -196.427503,0 c -5.7875,0 -10.52375,4.735 -10.52375,10.5225 l 0,252.55 c 0,5.78875 4.73625,10.52375 10.52375,10.52375 l 196.427503,0 c 5.7875,0 10.5225,-4.735 10.5225,-10.52375 l 0,-252.55 c 0,-5.7875 -4.735,-10.5225 -10.5225,-10.5225 m 4.6775,263.0725 c 0,2.5725 -2.105,4.6775 -4.6775,4.6775 l -196.427503,0 c -2.5725,0 -4.6775,-2.105 -4.6775,-4.6775 l 0,-252.55 c 0,-2.57125 2.105,-4.67625 4.6775,-4.67625 l 196.427503,0 c 2.5725,0 4.6775,2.105 4.6775,4.67625 l 0,252.55 z"
   style="fill:#000000;fill-opacity:1;fill-rule:nonzero;stroke:none"
   id="path13870" /><path
   inkscape:connector-curvature="0"
   d="m 56.20037,76.405 c -8.03625,0 -13.925,-4.78 -17.04375,-11.8475 l 7.0675,-2.6325 c 1.94,4.43375 5.5425,6.92875 9.97625,6.92875 4.295,0 7.205,-2.98 7.205,-6.92875 0,-6.235 -7.205,-7.205 -13.30125,-9.63 -2.77125,-1.1775 -9.0075,-3.94875 -9.0075,-11.63875 0,-9.215 6.23625,-12.67875 14.61875,-12.67875 6.58125,0 11.01625,3.81 13.3025,9.56 l -6.5825,1.94 c -0.6925,-2.07875 -3.67125,-4.0875 -6.9975,-4.0875 -3.5325,0 -7.4125,1.10875 -7.135,5.40375 0.6925,8.66 22.655,2.98 22.655,21.33875 0,8.5225 -6.37375,14.2725 -14.7575,14.2725"
   style="fill:#000000;fill-opacity:1;fill-rule:nonzero;stroke:none"
   id="path13874" /><path
   inkscape:connector-curvature="0"
   d="m 92.78114,35.39025 0,40.18375 -7.4125,0 0,-40.18375 -10.67,0 0,-6.58125 28.89,0 0,6.58125 -10.8075,0 z"
   style="fill:#000000;fill-opacity:1;fill-rule:nonzero;stroke:none"
   id="path13878" /><path
   inkscape:connector-curvature="0"
   d="m 137.67512,71.13964 c -2.7025,3.53375 -6.37375,5.265 -11.2925,5.265 -6.5825,0 -10.6,-2.6325 -13.44125,-8.3825 -1.94,-3.94875 -3.325,-10.185 -3.325,-15.7275 0,-7.75875 1.94,-14.6875 5.12625,-19.0525 2.7025,-3.67125 6.5825,-5.265 11.98625,-5.265 12.955,0 16.0725,13.85625 16.0725,24.3175 0,7.34375 -1.87,14.6875 -5.12625,18.845 M 126.72887,35.52839 c -4.1575,0 -6.0975,1.66375 -7.76,5.75125 -1.10875,2.77125 -1.80125,7.06625 -1.80125,11.015 0,4.91875 1.03875,9.9775 2.84125,12.95625 1.45375,2.425 3.39375,3.6025 6.37375,3.6025 3.46375,0 5.61125,-1.80125 7.205,-5.88875 0.97,-2.495 1.80125,-7.0675 1.80125,-10.67 0,-5.40375 -1.1775,-16.76625 -8.66,-16.76625"
   style="fill:#000000;fill-opacity:1;fill-rule:nonzero;stroke:none"
   id="path13882" /><path
   inkscape:connector-curvature="0"
   d="m 169.61375,55.20475 -9.145,0 0,20.36875 -7.41375,0 0,-46.765 17.73625,0 c 10.8775,0 14.065,8.79875 14.065,13.09375 0,3.6025 -2.2175,13.3025 -15.2425,13.3025 m 1.52375,-18.9825 -10.66875,0 0,11.43125 10.66875,0 c 3.6725,0 6.23625,-2.425 6.23625,-5.75125 0,-2.77125 -2.1475,-5.68 -6.23625,-5.68"
   style="fill:#000000;fill-opacity:1;fill-rule:nonzero;stroke:none"
   id="path13886" /><path
   inkscape:connector-curvature="0"
   d="m 84.75249,117.667 0,-12.2225 -10.22625,0 0,12.2225 -4.44875,0 0,-28.06125 4.44875,0 0,11.3075 10.22625,0 0,-11.3075 4.40625,0 0,28.06125 -4.40625,0 z"
   style="fill:#000000;fill-opacity:1;fill-rule:nonzero;stroke:none"
   id="path13890" /><path
   inkscape:connector-curvature="0"
   d="m 95.89326,117.667 0,-28.06125 16.54625,0 0,4.44875 -12.0975,0 0,6.85875 8.1475,0 0,4.53125 -8.1475,0 0,7.69125 12.97,0 0,4.53125 -17.41875,0 z"
   style="fill:#000000;fill-opacity:1;fill-rule:nonzero;stroke:none"
   id="path13894" /><path
   inkscape:connector-curvature="0"
   d="m 132.352,117.667 -4.53125,-12.2225 -5.28,0 0,12.2225 -4.4475,0 0,-28.06125 10.185,0 c 6.44375,0 8.31375,5.155 8.31375,7.8575 0,2.9925 -1.74625,5.945 -4.32375,7.10875 l 4.90625,13.095 -4.8225,0 z m -3.9075,-23.6125 -5.90375,0 0,6.85875 5.86125,0 c 2.1625,0 3.78375,-1.5375 3.78375,-3.45 0,-1.82875 -1.58,-3.40875 -3.74125,-3.40875"
   style="fill:#000000;fill-opacity:1;fill-rule:nonzero;stroke:none"
   id="path13898" /><path
   inkscape:connector-curvature="0"
   d="m 141.95463,117.667 0,-28.06125 16.545,0 0,4.44875 -12.09625,0 0,6.85875 8.1475,0 0,4.53125 -8.1475,0 0,7.69125 12.97,0 0,4.53125 -17.41875,0 z"
   style="fill:#000000;fill-opacity:1;fill-rule:nonzero;stroke:none"
   id="path13902" /><path
   inkscape:connector-curvature="0"
   d="m 128.84312,189.84238 c -1.62125,2.12 -3.825,3.16 -6.77625,3.16 -3.95,0 -6.36,-1.58 -8.065,-5.03125 -1.16375,-2.36875 -1.995,-6.11 -1.995,-9.43625 0,-4.65625 1.16375,-8.81375 3.07625,-11.4325 1.62125,-2.20375 3.94875,-3.15875 7.19125,-3.15875 7.77375,0 9.645,8.31375 9.645,14.59125 0,4.40625 -1.1225,8.81375 -3.07625,11.3075 m -6.56875,-21.3675 c -2.49375,0 -3.6575,0.9975 -4.65625,3.45 -0.665,1.6625 -1.08,4.24 -1.08,6.61 0,2.95125 0.62375,5.98625 1.70375,7.77375 0.87375,1.455 2.0375,2.16125 3.825,2.16125 2.07875,0 3.3675,-1.08 4.32375,-3.5325 0.58125,-1.4975 1.08,-4.24125 1.08,-6.4025 0,-3.2425 -0.70625,-10.06 -5.19625,-10.06"
   style="fill:#000000;fill-opacity:1;fill-rule:nonzero;stroke:none"
   id="path13906" /><path
   inkscape:connector-curvature="0"
   d="m 153.24562,192.503 -10.72625,-18.99875 0,18.99875 -4.4475,0 0,-28.06125 4.4475,0 10.2275,17.9175 0,-17.9175 4.40625,0 0,28.06125 -3.9075,0 z"
   style="fill:#000000;fill-opacity:1;fill-rule:nonzero;stroke:none"
   id="path13910" /><path
   inkscape:connector-curvature="0"
   d="m 109.05101,253.296 -7.55125,-20.36875 -8.79875,0 0,20.36875 -7.41375,0 0,-46.765 16.97375,0 c 10.73875,0 13.85625,8.59125 13.85625,13.09375 0,4.98875 -2.91,9.9075 -7.205,11.8475 l 8.175,21.82375 -8.03625,0 z m -6.5125,-39.3525 -9.8375,0 0,11.43125 9.76875,0 c 3.6025,0 6.30375,-2.5625 6.30375,-5.75 0,-3.04875 -2.6325,-5.68125 -6.235,-5.68125"
   style="fill:#000000;fill-opacity:1;fill-rule:nonzero;stroke:none"
   id="path13914" /><path
   inkscape:connector-curvature="0"
   d="m 125.05475,253.296 0,-46.765 27.57375,0 0,7.4125 -20.16125,0 0,11.43125 13.58,0 0,7.5525 -13.58,0 0,12.8175 21.61625,0 0,7.55125 -29.02875,0 z"
   style="fill:#000000;fill-opacity:1;fill-rule:nonzero;stroke:none"
   id="path13918" /><path
   inkscape:connector-curvature="0"
   d="m 178.54037,253.296 -16.48875,0 0,-46.765 15.1025,0 c 4.78125,0 6.5825,0.415 9.0075,2.425 4.98875,4.22625 7.69,11.70875 7.69,20.85375 0,13.85625 -7.13625,23.48625 -15.31125,23.48625 m -0.7625,-39.3525 -8.31375,0 0,31.80125 8.17625,0 c 6.72,0 8.72875,-9.4925 8.72875,-15.935 0,-5.40375 -1.10875,-15.86625 -8.59125,-15.86625"
   style="fill:#000000;fill-opacity:1;fill-rule:nonzero;stroke:none"
   id="path13922" /><path
   inkscape:connector-curvature="0"
   d="m 60.44288,171.50025 19.745,7.67875 c 1.92375,0.6925 3.19125,2.5825 3.09375,4.6275 -0.1225,2.42 -2.095,4.3525 -4.4975,4.415 l -54.365003,7.49 -0.10375,-0.11 9.713753,-54.0075 c 0.15875,-2.4025 2.1775,-4.29 4.5925,-4.3125 2.05875,-0.0188 3.885,1.32875 4.50625,3.2775 l 6.6325,19.28875 c 24.4225,-21.8025 56.0125,-33.7125 88.6375,-33.70625 9.8425,0 20.495,1.07 29.73125,3.2175 l 0,30.4 c -12.735,-5.07625 -28.41,-8.6625 -42.46625,-8.6625 -23.1125,0 -46.2275,7.71 -65.22,20.40375"
   style="fill:#000000;fill-opacity:1;fill-rule:evenodd;stroke:none"
   id="path13926" /></svg>