<?xml version="1.0" encoding="UTF-8" standalone="no"?>
<!-- Created with Inkscape (http://www.inkscape.org/) -->

<svg
   xmlns:dc="http://purl.org/dc/elements/1.1/"
   xmlns:cc="http://creativecommons.org/ns#"
   xmlns:rdf="http://www.w3.org/1999/02/22-rdf-syntax-ns#"
   xmlns:svg="http://www.w3.org/2000/svg"
   xmlns="http://www.w3.org/2000/svg"
   xmlns:sodipodi="http://sodipodi.sourceforge.net/DTD/sodipodi-0.dtd"
   xmlns:inkscape="http://www.inkscape.org/namespaces/inkscape"
   id="svg2"
   inkscape:version="0.48.2 r9819"
   height="3250"
   width="2710"
   version="1.1"
   sodipodi:docname="AJAX4.svg">
  <defs
     id="defs19" />
  <sodipodi:namedview
     id="base"
     fit-margin-left="0"
     inkscape:zoom="0.16367188"
     borderopacity="1.0"
     inkscape:current-layer="g3763"
     inkscape:cx="1057.0299"
     inkscape:cy="1974.2086"
     inkscape:window-maximized="1"
     showgrid="false"
     fit-margin-right="0"
     inkscape:document-units="px"
     bordercolor="#666666"
     inkscape:window-x="-8"
     inkscape:guide-bbox="true"
     inkscape:window-y="-8"
     fit-margin-bottom="0"
     inkscape:window-width="1280"
     inkscape:pageopacity="0.0"
     inkscape:pageshadow="2"
     pagecolor="#ffffff"
     showguides="true"
     inkscape:window-height="1004"
     fit-margin-top="0" />
  <metadata
     id="metadata7">
    <rdf:RDF>
      <cc:Work
         rdf:about="">
        <dc:format>image/svg+xml</dc:format>
        <dc:type
           rdf:resource="http://purl.org/dc/dcmitype/StillImage" />
        <dc:title></dc:title>
      </cc:Work>
    </rdf:RDF>
  </metadata>
  <g
     id="layer1"
     inkscape:label="Layer 1"
     inkscape:groupmode="layer"
     transform="translate(172.5547,2913.4857)">
    <g
       id="g3012"
       transform="translate(109.60155,-54.548234)"
       stroke-miterlimit="4"
       style="fill:#0dadea;stroke-miterlimit:4;stroke-dasharray:none">
      <g
         id="g3763">
        <path
           inkscape:connector-curvature="0"
           style="fill:#ffffff;fill-rule:nonzero;stroke:#000000;stroke-width:10;stroke-linecap:butt;stroke-linejoin:miter;stroke-miterlimit:4;stroke-opacity:1;stroke-dasharray:none"
           d="m 2422.8438,217.3125 c 0,93.2 -75.5501,168.75 -168.75,168.75 l -2362.50005,0 c -93.19825,0 -168.75,-75.55 -168.75,-168.75 l 0,-2902.5 c 0,-93.1982 75.55175,-168.75 168.75,-168.75 l 2362.50005,0 c 93.1999,0 168.75,75.5518 168.75,168.75 l 0,2902.5 z"
           id="path11" />
        <path
           inkscape:connector-curvature="0"
           style="fill:#000000;fill-rule:nonzero;stroke:none"
           d="m -108.40625,341.0625 c -68.23613,0 -123.75,-55.5125 -123.75,-123.75 l 0,-2902.5 c 0,-68.2361 55.51387,-123.75 123.75,-123.75 l 2362.50005,0 c 68.2375,0 123.75,55.5139 123.75,123.75 l 0,2902.5 c 0,68.2375 -55.5125,123.75 -123.75,123.75 l -2362.50005,0 z"
           id="path13" />
        <path
           inkscape:connector-curvature="0"
           style="fill:#ffffff;fill-rule:nonzero;stroke:none"
           d="m -108.40625,273.5625 c -31.01625,0 -56.25,-25.2375 -56.25,-56.25 l 0,-2902.5 c 0,-31.0162 25.23375,-56.25 56.25,-56.25 l 2362.50005,0 c 31.0124,0 56.25,25.2338 56.25,56.25 l 0,2902.5 c 0,31.0125 -25.2376,56.25 -56.25,56.25 l -2362.50005,0 z"
           id="path15" />
        <path
           inkscape:connector-curvature="0"
           style="fill:#000000;fill-rule:nonzero;stroke:none"
           d="m 467.84625,-1076.4375 0,-315 45.4475,0 0,273 115.28125,0 0,42 -160.72875,0 z"
           id="path17" />
        <path
           inkscape:connector-curvature="0"
           style="fill:#000000;fill-rule:nonzero;stroke:none"
           d="m 747.20625,-1297.4875 -22.1625,90.625 45.43375,0 -23.27125,-90.625 z m 56.51375,221.05 -22.16125,-86.2125 -67.595,0 -21.055,86.2125 -45.43375,0 78.67625,-315 44.32625,0 78.67625,315 -45.43375,0 z"
           id="path19" />
        <path
           inkscape:connector-curvature="0"
           style="fill:#000000;fill-rule:nonzero;stroke:none"
           d="m 308.46375,-1347.225 0,79.575 63.18375,0 0,43.1125 -63.18375,0 0,148.1 -45.44625,0 0,-315 160.7275,0 0,44.2125 -115.28125,0 z"
           id="path21" />
        <path
           inkscape:connector-curvature="0"
           style="fill:#000000;fill-rule:nonzero;stroke:none"
           d="m 1873.7938,-1115.125 c -12.2126,27.6375 -37.7375,44.2125 -69.925,44.2125 -37.7375,0 -65.4875,-18.7875 -81.0251,-54.1625 -9.9874,-23.2 -16.65,-67.4125 -16.65,-108.3125 0,-44.2125 3.325,-76.2625 14.425,-106.1 11.1,-33.1625 43.2875,-57.475 79.9125,-57.475 45.5125,0 79.925,33.15 82.1375,79.575 l -45.5,0 c -1.1125,-21 -15.5375,-35.3625 -37.7375,-35.3625 -15.55,0 -27.75,7.7375 -35.525,23.2125 -8.875,15.475 -14.425,50.8375 -14.425,88.4125 0,26.525 2.2125,54.1625 6.65,78.475 6.6625,30.95 22.2,47.525 46.625,47.525 23.3125,0 34.4125,-15.475 34.4125,-48.625 l 0,-21 -35.525,0 0,-44.2125 81.025,0 0,65.2125 c 0,22.1 -2.2125,35.3625 -8.875,48.625 z"
           id="path23" />
        <path
           inkscape:connector-curvature="0"
           style="fill:#000000;fill-rule:nonzero;stroke:none"
           d="m 1238.7938,-1076.4375 0,-142.575 -86.0375,0 0,142.575 -45.225,0 0,-315 45.225,0 0,128.2125 86.0375,0 0,-128.2125 45.2125,0 0,315 -45.2125,0 z"
           id="path25" />
        <path
           inkscape:connector-curvature="0"
           style="fill:#000000;fill-rule:nonzero;stroke:none"
           d="m 1353.3063,-1076.4375 0,-315 44.0999,0 0,315 -44.0999,0 z"
           id="path27" />
        <path
           inkscape:connector-curvature="0"
           style="fill:#000000;fill-rule:nonzero;stroke:none"
           d="m 1608.9938,-1076.4375 -97.0625,-211.1 0,211.1 -45.225,0 0,-315 45.225,0 86.0374,189 0,-189 45.225,0 0,315 -34.2,0 z"
           id="path29" />
        <path
           inkscape:connector-curvature="0"
           style="fill:#000000;fill-rule:nonzero;stroke:none"
           d="m 967.1988,-1221.9125 c -13.62875,-8.825 -26.86125,-17.6875 -35.30875,-23.6375 -25.395,-17.875 -38.84875,-41.9875 -38.84875,-69.625 0,-45.3125 35.51875,-81.7875 81.0275,-81.7875 44.4,0 78.8,34.2625 79.9126,81.7875 l -43.2876,0 c -1.1125,-22.1 -16.65,-36.475 -36.625,-36.475 -21.09,0 -37.73875,15.475 -37.73875,36.475 0,15.475 6.65875,24.3125 29.96875,37.575 61.045,35.375 87.6826,69.6375 87.6826,114.95 0,50.85 -38.8501,91.7375 -87.6826,91.7375 -55.4975,0 -88.79375,-46.425 -88.79375,-98.375 l 44.395,0 c 0,26.5375 13.31875,54.1625 44.39875,54.1625 24.42,0 44.395,-22.1 44.395,-47.525 0,-19.7375 -8.15,-36.3625 -43.495,-59.2625 z"
           id="path31" />
        <path
           inkscape:connector-curvature="0"
           style="fill:#000000;fill-rule:nonzero;stroke:none"
           d="m 351.255,-2201.4375 0,-315 148.53625,0 0,44.21 -103.0875,0 0,79.5788 65.4,0 0,43.1062 -65.4,0 0,103.895 115.28125,0 0,44.21 -160.73,0 z"
           id="path33" />
        <path
           inkscape:connector-curvature="0"
           style="fill:#000000;fill-rule:nonzero;stroke:none"
           d="m 610.98375,-2472.2275 0,79.5788 63.18375,0 0,43.1062 -63.18375,0 0,148.105 -45.4475,0 0,-315 160.7275,0 0,44.21 -115.28,0 z"
           id="path35" />
        <path
           inkscape:connector-curvature="0"
           style="fill:#000000;fill-rule:nonzero;stroke:none"
           d="m 146.42625,-2201.4375 0,-315 45.44875,0 0,273 115.28,0 0,42 -160.72875,0 z"
           id="path37" />
        <path
           inkscape:connector-curvature="0"
           style="fill:#000000;fill-rule:nonzero;stroke:none"
           d="m 1965.0688,-2201.4375 -97.0625,-211.105 0,211.105 -45.225,0 0,-315 45.225,0 86.025,189 0,-189 45.225,0 0,315 -34.1875,0 z"
           id="path39" />
        <path
           inkscape:connector-curvature="0"
           style="fill:#000000;fill-rule:nonzero;stroke:none"
           d="m 1684.3063,-2472.2275 -46.3376,0 0,79.58 46.3376,0 c 26.4625,0 40.8,-14.3687 40.8,-39.79 0,-24.3162 -16.5375,-39.79 -40.8,-39.79 z m 38.5999,270.79 -41.9124,-148.105 -43.0251,0 0,148.105 -45.2125,0 0,-315 93.75,0 c 49.6375,0 82.725,33.1575 82.725,84 0,37.5788 -15.4375,65.2113 -45.225,76.2638 l 45.2251,154.7362 -46.3251,0 z"
           id="path41" />
        <path
           inkscape:connector-curvature="0"
           style="fill:#000000;fill-rule:nonzero;stroke:none"
           d="m 848.2525,-2474.4375 0,273 -45.44625,0 0,-273 -57.6425,0 0,-42 160.73,0 0,42 -57.64125,0 z"
           id="path43" />
        <path
           inkscape:connector-curvature="0"
           style="fill:#000000;fill-rule:nonzero;stroke:none"
           d="m 1245.2313,-2474.4375 0,273 -45.45,0 0,-273 -57.6375,0 0,-42 160.725,0 0,42 -57.6376,0 z"
           id="path45" />
        <path
           inkscape:connector-curvature="0"
           style="fill:#000000;fill-rule:nonzero;stroke:none"
           d="m 1511.3188,-2240.1212 c -15.4375,25.4212 -45.225,44.21 -75,44.21 -30.8875,0 -61.775,-17.685 -77.2125,-44.21 -8.8251,-16.5788 -12.1376,-29.8413 -12.1376,-55.2625 l 1e-4,-221.0538 45.225,0 0,226.58 c 0,29.8413 17.65,49.7363 44.125,49.7363 24.2625,0 41.9125,-19.895 41.9125,-49.7363 l 0,-226.58 45.2249,0 0,221.0538 c 0,25.4212 -3.3125,38.6837 -12.1375,55.2625 z"
           id="path47" />
        <path
           inkscape:connector-curvature="0"
           style="fill:#000000;fill-rule:nonzero;stroke:none"
           d="m 1019.6812,-734.98747 -22.16245,90.625 45.43755,0 -23.2751,-90.625 z m 56.5126,221.04997 -22.1625,-86.21247 -67.58755,0 -21.05875,86.21247 -45.43125,0 78.6775,-314.99997 44.32505,0 78.675,314.99997 -45.4375,0 z"
           id="path49" />
        <path
           inkscape:connector-curvature="0"
           style="fill:#000000;fill-rule:nonzero;stroke:none"
           d="m 630.7575,-752.67497 c -7.72125,-22.1 -20.9575,-32.05 -40.81,-32.05 l -37.50125,0 0,226.575 37.50125,0 c 26.47125,0 40.81,-21 45.2225,-45.3125 2.20625,-19.9 4.4125,-42 4.4125,-66.3125 0,-35.375 -3.31,-69.6375 -8.825,-82.9 z m 7.72125,224.36247 c -11.02875,9.95 -26.47125,14.375 -44.11875,14.375 l -87.1375,0 0,-314.99997 80.51875,0 c 26.4725,0 39.70875,3.3125 50.7375,12.1625 18.75125,13.2625 31.9875,37.575 37.5025,69.625 4.41125,23.2125 7.7225,50.8375 7.7225,75.1625 0,72.95 -14.34125,119.3625 -45.225,143.67497 z"
           id="path51" />
        <path
           inkscape:connector-curvature="0"
           style="fill:#000000;fill-rule:nonzero;stroke:none"
           d="m 292.9425,-513.9375 0,-314.99997 148.535,0 0,44.2125 -103.08625,0 0,79.575 65.4,0 0,43.1125 -65.4,0 0,103.8875 115.28,0 0,44.21247 -160.72875,0 z"
           id="path53" />
        <path
           inkscape:connector-curvature="0"
           style="fill:#000000;fill-rule:nonzero;stroke:none"
           d="m 1751.9813,-750.46247 c -7.8,-27.6375 -20.05,-39.7875 -38.975,-39.7875 -20.0375,0 -32.2875,12.15 -40.075,38.675 -7.8,24.325 -10.0251,45.325 -10.0251,80.6875 0,34.2625 3.3376,54.1625 10.0251,79.5875 7.7874,26.525 20.0374,38.675 40.075,38.675 18.925,0 31.175,-12.15 38.975,-38.675 7.7874,-25.425 10.0125,-44.2125 10.0125,-80.6875 0,-35.375 -3.3376,-55.2625 -10.0125,-78.475 z m 35.625,187.8875 c -15.5876,37.58747 -38.975,54.16247 -74.6,54.16247 -37.85,0 -60.1125,-16.575 -75.7,-54.16247 -13.3625,-30.9375 -17.8125,-60.7875 -17.8125,-109.4125 0,-47.525 4.45,-79.5875 17.8125,-109.425 16.7,-37.575 38.9625,-53.05 75.7,-53.05 36.75,0 59.0125,15.475 74.6,54.15 13.3624,30.95 17.8125,60.8 17.8125,108.325 0,48.625 -4.4501,79.575 -17.8125,109.4125 z"
           id="path55" />
        <path
           inkscape:connector-curvature="0"
           style="fill:#000000;fill-rule:nonzero;stroke:none"
           d="m 154.4625,-784.72497 -46.32625,0 0,79.575 46.32625,0 c 26.4725,0 40.81,-14.3625 40.81,-39.7875 0,-24.3125 -16.545,-39.7875 -40.81,-39.7875 z m 38.605,270.78747 -41.915,-148.09997 -43.01625,0 0,148.09997 -45.22125,0 0,-314.99997 93.7525,0 c 49.63625,0 82.725,33.1625 82.725,84 0,37.575 -15.44125,65.2125 -45.22,76.2625 l 45.22,154.73747 -46.325,0 z"
           id="path57" />
        <path
           inkscape:connector-curvature="0"
           style="fill:#000000;fill-rule:nonzero;stroke:none"
           d="m 1487.3063,-784.72497 -46.325,0 0,79.575 46.325,0 c 26.4749,0 40.8125,-14.3625 40.8125,-39.7875 0,-24.3125 -16.55,-39.7875 -40.8125,-39.7875 z m 38.6125,270.78747 -41.925,-148.09997 -43.0125,0 0,148.09997 -45.225,0 0,-314.99997 93.75,0 c 49.6375,0 82.7375,33.1625 82.7375,84 0,37.575 -15.45,65.2125 -45.225,76.2625 l 45.225,154.73747 -46.325,0 z"
           id="path59" />
        <path
           inkscape:connector-curvature="0"
           style="fill:#000000;fill-rule:nonzero;stroke:none"
           d="m 1257.2813,-784.72497 -46.325,0 0,79.575 46.325,0 c 26.4625,0 40.8125,-14.3625 40.8125,-39.7875 0,-24.3125 -16.55,-39.7875 -40.8125,-39.7875 z m 38.6,270.78747 -41.9125,-148.09997 -43.0125,0 0,148.09997 -45.2251,0 0,-314.99997 93.75,0 c 49.6376,0 82.7251,33.1625 82.7251,84 0,37.575 -15.4375,65.2125 -45.2251,76.2625 l 45.2251,154.73747 -46.325,0 z"
           id="path61" />
        <path
           inkscape:connector-curvature="0"
           style="fill:#000000;fill-rule:nonzero;stroke:none"
           d="m 2031.7563,-513.9375 -38.8125,0 -29.95,-164.68747 -29.95,164.68747 -39.925,0 -49.9001,-314.99997 44.3625,0 26.6125,168 31.05,-168 35.5,0 29.9375,168 27.7375,-168 44.35,0 -51.0125,314.99997 z"
           id="path63" />
        <path
           inkscape:connector-curvature="0"
           style="fill:#000000;fill-rule:nonzero;stroke:none"
           d="m 129.57,-172.4875 -22.16375,90.625004 45.435,0 L 129.57,-172.4875 z m 56.51375,221.050004 -22.16375,-86.2125 -67.595,0 -21.05375,86.2125 -45.4325,0 78.67625,-315.000004 44.32625,0 78.675,315.000004 -45.4325,0 z"
           id="path65" />
        <path
           inkscape:connector-curvature="0"
           style="fill:#000000;fill-rule:nonzero;stroke:none"
           d="m 660.075,48.562504 0,-315.000004 148.535,0 0,44.2125 -103.0875,0 0,79.575 65.4,0 0,43.112504 -65.4,0 0,103.8875 115.28125,0 0,44.2125 -160.72875,0 z"
           id="path67" />
        <path
           inkscape:connector-curvature="0"
           style="fill:#000000;fill-rule:nonzero;stroke:none"
           d="m 321.06375,-222.225 0,79.575 63.18375,0 0,43.112504 -63.18375,0 0,148.1 -45.44625,0 0,-315.000004 160.7275,0 0,44.2125 -115.28125,0 z"
           id="path69" />
        <path
           inkscape:connector-curvature="0"
           style="fill:#000000;fill-rule:nonzero;stroke:none"
           d="m 1822.9313,-187.9625 c -7.7875,-27.6375 -20.0375,-39.7875 -38.9626,-39.7875 -20.0499,0 -32.2874,12.15 -40.0875,38.675 -7.7875,24.325 -10.0125,45.325 -10.0125,80.6875 0,34.262504 3.3375,54.162504 10.0125,79.587504 7.8,26.525 20.0375,38.675 40.0875,38.675 18.925,0 31.175,-12.15 38.9626,-38.675 7.7874,-25.425 10.025,-44.2125 10.025,-80.687504 0,-35.375 -3.35,-55.2625 -10.025,-78.475 z m 35.625,187.887504 c -15.5876,37.5875 -38.9626,54.1625 -74.5876,54.1625 -37.8624,0 -60.125,-16.575 -75.7125,-54.1625 -13.3625,-30.9375 -17.8125,-60.7875 -17.8125,-109.412504 0,-47.525 4.45,-79.5875 17.8125,-109.425 16.7,-37.575 38.9625,-53.05 75.7125,-53.05 36.7375,0 59,15.475 74.5876,54.1625 13.3625,30.9375 17.8125,60.7875 17.8125,108.3125 0,48.625004 -4.45,79.575004 -17.8125,109.412504 z"
           id="path71" />
        <path
           inkscape:connector-curvature="0"
           style="fill:#000000;fill-rule:nonzero;stroke:none"
           d="m 2030.9188,-222.225 -46.3251,0 0,89.525 46.3251,0 c 26.4749,0 40.8125,-16.575 40.8125,-45.3125 0,-26.525 -16.55,-44.2125 -40.8125,-44.2125 z m 2.2,132.625004 -48.5251,0 0,138.1625 -45.2249,0 0,-315.000004 93.75,0 c 49.6375,0 82.725,35.3625 82.725,88.425 0,57.475 -29.775,88.412504 -82.725,88.412504 z"
           id="path73" />
        <path
           inkscape:connector-curvature="0"
           style="fill:#000000;fill-rule:nonzero;stroke:none"
           d="m 965.90255,-222.225 -46.325,0 0,79.575 46.325,0 c 26.47875,0 40.81625,-14.3625 40.81625,-39.7875 0,-24.3125 -16.55,-39.7875 -40.81625,-39.7875 z m 38.60375,270.787504 -41.91125,-148.1 -43.0175,0 0,148.1 -45.2225,0 0,-315.000004 93.7525,0 c 49.63625,0 82.72375,33.1625 82.72375,84 0,37.575 -15.4375,65.2125 -45.225,76.2625 l 45.225,154.737504 -46.325,0 z"
           id="path75" />
        <path
           inkscape:connector-curvature="0"
           style="fill:#000000;fill-rule:nonzero;stroke:none"
           d="M 1376.7813,-96.912496 C 1363.1563,-105.7375 1349.9188,-114.6 1341.4688,-120.55 c -25.3875,-17.8625 -38.85,-41.9875 -38.85,-69.625 0,-45.3125 35.525,-81.7875 81.025,-81.7875 44.4,0 78.8125,34.2625 79.925,81.7875 l -43.2875,0 c -1.1125,-22.1 -16.65,-36.475 -36.6375,-36.475 -21.0875,0 -37.7375,15.475 -37.7375,36.475 0,15.475 6.6625,24.3125 29.975,37.575 61.0375,35.375 87.6875,69.637504 87.6875,114.950004 0,50.85 -38.85,91.7375 -87.6875,91.7375 -55.5,0 -88.8001,-46.425 -88.8001,-98.3625 l 44.4001,0 c 0,26.525 13.3125,54.15 44.4,54.15 24.4125,0 44.4,-22.1 44.4,-47.525 0,-19.7375 -8.1625,-36.3625 -43.5,-59.2625 z"
           id="path77" />
        <path
           inkscape:connector-curvature="0"
           style="fill:#000000;fill-rule:nonzero;stroke:none"
           d="m 558.33375,-224.4375 0,273.000004 -45.4475,0 0,-273.000004 -57.64125,0 0,-42 160.72875,0 0,42 -57.64,0 z"
           id="path79" />
        <path
           inkscape:connector-curvature="0"
           style="fill:#000000;fill-rule:nonzero;stroke:none"
           d="m 1594.9938,-224.4375 0,273.000004 -45.4375,0 0,-273.000004 -57.6501,0 0,-42 160.7375,0 0,42 -57.65,0 z"
           id="path81" />
        <path
           inkscape:connector-curvature="0"
           style="fill:#000000;fill-rule:nonzero;stroke:none"
           d="m 1166.4563,-1877.675 c -7.7251,-22.1037 -20.9625,-32.0512 -40.8125,-32.0512 l -37.5,0 0,226.5787 37.5,0 c 26.475,0 40.8125,-21 45.225,-45.3162 2.2,-19.895 4.4125,-42 4.4125,-66.315 0,-35.3688 -3.3125,-69.6325 -8.825,-82.8963 z m 7.725,224.3688 c -11.0375,9.9487 -26.475,14.3687 -44.125,14.3687 l -87.1376,0 0,-315 80.5251,0 c 26.4625,0 39.7,3.3163 50.7374,12.1588 18.75,13.2612 31.9875,37.5787 37.5,69.6312 4.4126,23.21 7.7251,50.8413 7.7251,75.1575 0,72.9488 -14.3501,119.3688 -45.2251,143.6838 z"
           id="path83" />
        <path
           inkscape:connector-curvature="0"
           style="fill:#000000;fill-rule:nonzero;stroke:none"
           d="m 623.81,-1638.9375 0,-315 148.53625,0 0,44.2113 -103.0875,0 0,79.5787 65.4,0 0,43.1063 -65.4,0 0,103.8937 115.28,0 0,44.21 -160.72875,0 z"
           id="path85" />
        <path
           inkscape:connector-curvature="0"
           style="fill:#000000;fill-rule:nonzero;stroke:none"
           d="m 510.41125,-1638.9375 0,-315 44.09875,0 0,315 -44.09875,0 z"
           id="path87" />
        <path
           inkscape:connector-curvature="0"
           style="fill:#000000;fill-rule:nonzero;stroke:none"
           d="m 838.09005,-1638.9375 0,-315 45.44875,0 0,273.0013 115.28,0 0,41.9987 -160.72875,0 z"
           id="path89" />
        <path
           inkscape:connector-curvature="0"
           style="fill:#000000;fill-rule:nonzero;stroke:none"
           d="m 1846.8688,-1638.9375 -97.0625,-211.105 0,211.105 -45.225,0 0,-315 45.225,0 86.025,189.0013 0,-189.0013 45.225,0 0,315 -34.1875,0 z"
           id="path91" />
        <path
           inkscape:connector-curvature="0"
           style="fill:#000000;fill-rule:nonzero;stroke:none"
           d="m 1588.1438,-1875.4637 c -7.8,-27.6313 -20.05,-39.79 -38.975,-39.79 -20.0375,0 -32.2875,12.1587 -40.075,38.6862 -7.8,24.315 -10.025,45.315 -10.025,80.6825 0,34.265 3.3375,54.1588 10.025,79.58 7.7875,26.5263 20.0375,38.6838 40.075,38.6838 18.925,0 31.175,-12.1575 38.975,-38.6838 7.7875,-25.4212 10.0125,-44.21 10.0125,-80.6837 0,-35.3688 -3.3375,-55.2638 -10.0125,-78.475 z m 35.625,187.895 c -15.5875,37.58 -38.975,54.1575 -74.6,54.1575 -37.85,0 -60.1125,-16.5775 -75.7,-54.1575 -13.3625,-30.9475 -17.8125,-60.79 -17.8125,-109.42 0,-47.5275 4.45,-79.5788 17.8125,-109.4225 16.7,-37.5788 38.9625,-53.0525 75.7,-53.0525 36.7375,0 59.0125,15.4737 74.6,54.1575 13.35,30.9487 17.8125,60.79 17.8125,108.3175 0,48.63 -4.4625,79.5787 -17.8125,109.42 z"
           id="path93" />
        <path
           inkscape:connector-curvature="0"
           style="fill:#000000;fill-rule:nonzero;stroke:none"
           d="m 387.635,-1781.515 0,142.5775 -45.4325,0 0,-142.5775 -77.57,-172.4225 47.65,0 53.19125,113.8425 52.08,-113.8425 48.75625,0 -78.675,172.4225 z"
           id="path95" />
      </g>
    </g>
  </g>
</svg>
