<?xml version="1.0" encoding="UTF-8" standalone="no"?>
<!-- Created with Inkscape (http://www.inkscape.org/) -->

<svg
   xmlns:dc="http://purl.org/dc/elements/1.1/"
   xmlns:cc="http://creativecommons.org/ns#"
   xmlns:rdf="http://www.w3.org/1999/02/22-rdf-syntax-ns#"
   xmlns:svg="http://www.w3.org/2000/svg"
   xmlns="http://www.w3.org/2000/svg"
   xmlns:sodipodi="http://sodipodi.sourceforge.net/DTD/sodipodi-0.dtd"
   xmlns:inkscape="http://www.inkscape.org/namespaces/inkscape"
   width="820"
   height="1090"
   id="svg2"
   version="1.1"
   inkscape:version="0.48.2 r9819"
   sodipodi:docname="AJAX1.svg">
  <defs
     id="defs4" />
  <sodipodi:namedview
     id="base"
     pagecolor="#ffffff"
     bordercolor="#666666"
     borderopacity="1.0"
     inkscape:pageopacity="0.0"
     inkscape:pageshadow="2"
     inkscape:zoom="0.28868013"
     inkscape:cx="556.36773"
     inkscape:cy="345.94203"
     inkscape:document-units="px"
     inkscape:current-layer="g4166"
     showgrid="false"
     fit-margin-top="0"
     fit-margin-left="0"
     fit-margin-right="0"
     fit-margin-bottom="0"
     inkscape:window-width="1280"
     inkscape:window-height="1004"
     inkscape:window-x="-8"
     inkscape:window-y="-8"
     inkscape:window-maximized="1" />
  <metadata
     id="metadata7">
    <rdf:RDF>
      <cc:Work
         rdf:about="">
        <dc:format>image/svg+xml</dc:format>
        <dc:type
           rdf:resource="http://purl.org/dc/dcmitype/StillImage" />
        <dc:title></dc:title>
      </cc:Work>
    </rdf:RDF>
  </metadata>
  <g
     inkscape:label="Layer 1"
     inkscape:groupmode="layer"
     id="layer1"
     transform="translate(-171.375,477.25)">
    <g
       id="g4166">
      <g
         id="text3008"
         style="font-size:78.91298676px;font-style:normal;font-weight:normal;line-height:125%;letter-spacing:0px;word-spacing:0px;fill:#000000;fill-opacity:1;stroke:none;font-family:Sans"
         transform="scale(0.98847113,1.0116633)">
        <g
           id="text3015"
           style="font-size:78.54236603px;line-height:125%;fill:#000000;font-family:Sans"
           transform="scale(0.98353261,1.0167431)">
          <text
             transform="scale(1.0286017,0.97219363)"
             sodipodi:linespacing="125%"
             id="text3273"
             y="587.81366"
             x="428.17328"
             style="font-size:40px;font-style:normal;font-weight:normal;line-height:125%;letter-spacing:0px;word-spacing:0px;fill:#000000;fill-opacity:1;stroke:none;font-family:Sans"
             xml:space="preserve"><tspan
               id="tspan3275"
               sodipodi:role="line"
               x="428.17328"
               y="587.81366" /></text>
        </g>
      </g>
      <path
         inkscape:connector-curvature="0"
         style="fill:#ffffff;fill-opacity:1;fill-rule:nonzero;stroke:#000000;stroke-width:10;stroke-linecap:butt;stroke-linejoin:miter;stroke-miterlimit:4;stroke-opacity:1;stroke-dasharray:none"
         d="m 986.375,472.75 c 0,74.5575 -60.4425,135 -135,135 l -540,0 c -74.55938,0 -135,-60.4425 -135,-135 l 0,-810 c 0,-74.55938 60.44062,-135 135,-135 l 540,0 c 74.5575,0 135,60.44062 135,135 l 0,810 z"
         id="path11" />
      <path
         inkscape:connector-curvature="0"
         style="fill:#000000;fill-rule:nonzero;stroke:none"
         d="m 918.875,472.75 c 0,37.21875 -30.28125,67.5 -67.5,67.5 l -540,0 c -37.2205,0 -67.5,-30.28125 -67.5,-67.5 l 0,-810 c 0,-37.2205 30.2795,-67.5 67.5,-67.5 l 540,0 c 37.21875,0 67.5,30.2795 67.5,67.5 l 0,810 z m -67.5,-911.25 -540,0 c -55.83013,0 -101.25,45.41988 -101.25,101.25 l 0,810 c 0,55.83 45.41987,101.25 101.25,101.25 l 540,0 c 55.83,0 101.25,-45.42 101.25,-101.25 l 0,-810 c 0,-55.83012 -45.42,-101.25 -101.25,-101.25 z"
         id="path13" />
      <path
         inkscape:connector-curvature="0"
         style="fill:#000000;fill-rule:evenodd;stroke:none"
         d="m 624.7225,269.89623 -29.9925,-9.88375 -6.41125,-8.3475 -6.025,20.78375 15.73875,28.15875 13.53125,50.5025 -14.99625,5.4775 -15.73125,-47.92125 -11.33875,-12.0675 -24.5175,63.65125 -11.3475,-8.04625 16.8325,-68.7825 c -3.98875,-11.36125 -1.44375,-28.6325 5.48,-46.535 -3.15625,0.6425 -6.34,1.2725 -9.49625,1.915 l -3.30125,33.2875 -8.41875,1.46875 0,-41.7125 c 0.23625,-0.2425 39.035,-28.82875 49.54625,-21.8525 10.65125,5.53125 15.94875,29.485 17.215,34.9 l 27.6275,18.40625 -4.395,6.5975 z m -35.47125,-89.64625 c 7.2525,0 13.15625,5.94 13.15625,13.18375 0,7.24 -5.90375,13.1725 -13.15625,13.1725 -7.2525,0 -13.19125,-5.9325 -13.19125,-13.1725 0,-7.24375 5.93875,-13.18375 13.19125,-13.18375 z m -131.62625,-22.5 0,225 247.5,0 0,-225 -247.5,0 z"
         id="path15" />
      <path
         inkscape:connector-curvature="0"
         style="fill:#000000;fill-rule:nonzero;stroke:none"
         d="m 832.73875,-44.750023 0,-184.807497 -41.57625,0 0,-59.475 -12.9125,-2.8375 0,-15.58125 14.34125,-5.65625 0,-8.49375 40.1475,0 0,-26.89875 18.63625,0 0,303.749997 -18.63625,0 z"
         id="path17" />
      <path
         inkscape:connector-curvature="0"
         style="fill:#000000;fill-rule:nonzero;stroke:none"
         d="m 311.375,-309.06377 c 0,0 83.41,7.05375 156.73125,-45.78762 4.54875,-0.72988 9.36875,-3.1555 13.21625,-3.39963 39.18,8.52538 71.16625,-12.66345 92.5425,-23.85735 19.22625,-2.926 14.67125,40.4071 -8.39875,46.2596 22.8175,2.4425 181.46375,18.01875 181.46375,18.01875 0,0 14.925,1.94375 14.4325,13.635 -0.29625,7.31 -1.91875,16.0775 -12.24875,16.0775 l -125.255,0 c 0,0 -0.24,11.68 -10.3325,20.7025 -12.0225,6.32625 -29.31375,13.62063 -30.04625,31.39563 -9.615,9.01125 -37.015,19.47625 -41.8175,38.48125 -8.6675,13.87875 -37.74375,15.575 -48.555,17.78875 -8.17375,-1.4725 -15.6325,-2.56875 -25.9625,-3.65375 -62.74875,-26.2975 -155.77,-30.21375 -155.77,-30.21375 l 0,-95.44688 z"
         id="path19" />
      <path
         inkscape:connector-curvature="0"
         style="fill:#000000;fill-rule:nonzero;stroke:none"
         d="m 556.185,-75.302523 -9.69,0 0,21.07875 9.69,0 c 5.43625,0 8.98125,-3.79 8.98125,-9.71 0,-6.395 -4.01875,-11.36875 -8.98125,-11.36875 z m 0.47375,-27.473747 -10.16375,0 0,17.999997 10.16375,0 c 4.48875,0 7.32625,-3.79 7.32625,-9.9475 0,-5.683747 -2.12625,-8.052497 -7.32625,-8.052497 z m 0,58.026247 -19.85625,0 0,-67.499997 21.27125,0 c 8.9825,0 15.36375,7.105 15.36375,17.526247 0,6.1575 -1.6525,9 -7.08875,14.685 5.2,4.2625 8.27125,9.9475 8.27125,16.815 0,10.185 -8.035,18.47375 -17.96125,18.47375 z"
         id="path21" />
      <path
         inkscape:connector-curvature="0"
         style="fill:#000000;fill-rule:nonzero;stroke:none"
         d="m 482.1125,-44.750023 0,-30.5525 -18.435,0 0,30.5525 -9.6925,0 0,-67.499997 9.6925,0 0,27.473747 18.435,0 0,-27.473747 9.69,0 0,67.499997 -9.69,0 z"
         id="path23" />
      <path
         inkscape:connector-curvature="0"
         style="fill:#000000;fill-rule:nonzero;stroke:none"
         d="m 788.91125,-44.750023 -20.7975,-45.23625 0,45.23625 -9.69,0 0,-67.499997 9.69,0 18.435,40.499997 0,-40.499997 9.69,0 0,67.499997 -7.3275,0 z"
         id="path25" />
      <path
         inkscape:connector-curvature="0"
         style="fill:#000000;fill-rule:nonzero;stroke:none"
         d="m 736.1725,-95.433773 c -1.67,-5.921247 -4.295,-8.527497 -8.3525,-8.527497 -4.29375,0 -6.91625,2.60625 -8.58625,8.289997 -1.67,5.21125 -2.14875,9.71125 -2.14875,17.29 0,7.34125 0.71625,11.605 2.14875,17.0525 1.67,5.68375 4.2925,8.29 8.58625,8.29 4.0575,0 6.6825,-2.60625 8.3525,-8.29 1.67,-5.4475 2.14625,-9.47375 2.14625,-17.29 0,-7.57875 -0.71625,-11.84125 -2.14625,-16.815 z m 7.63375,40.2625 c -3.34,8.0525 -8.34875,11.60625 -15.98625,11.60625 -8.11,0 -12.88,-3.55375 -16.22,-11.60625 -2.86375,-6.63125 -3.81875,-13.02625 -3.81875,-23.4475 0,-10.18375 0.955,-17.0525 3.81875,-23.447497 3.57625,-8.0525 8.34875,-11.3675 16.22,-11.3675 7.87375,0 12.64625,3.315 15.98625,11.605 2.86125,6.631247 3.81625,13.026247 3.81625,23.209997 0,10.42125 -0.955,17.0525 -3.81625,23.4475 z"
         id="path27" />
      <path
         inkscape:connector-curvature="0"
         style="fill:#000000;fill-rule:nonzero;stroke:none"
         d="m 330.9925,-102.77627 -9.92625,0 0,19.183747 9.92625,0 c 5.6725,0 8.745,-3.5525 8.745,-9.71 0,-5.685 -3.545,-9.473747 -8.745,-9.473747 z m 0.4725,28.421247 -10.39875,0 0,29.605 -9.69125,0 0,-67.499997 20.09,0 c 10.63625,0 17.7275,7.57875 17.7275,18.947497 0,12.315 -6.3825,18.9475 -17.7275,18.9475 z"
         id="path29" />
      <path
         inkscape:connector-curvature="0"
         style="fill:#000000;fill-rule:nonzero;stroke:none"
         d="m 426.20875,-75.921273 c -2.92,-1.89375 -5.75375,-3.79125 -7.56625,-5.06625 -5.44125,-3.83 -8.32375,-8.99875 -8.32375,-14.92 0,-9.711247 7.61125,-17.526247 17.3625,-17.526247 9.51375,0 16.8875,7.34125 17.12375,17.526247 l -9.275,0 c -0.23625,-4.737497 -3.56625,-7.816247 -7.84875,-7.816247 -4.51875,0 -8.08625,3.31625 -8.08625,7.816247 0,3.315 1.42625,5.21 6.42125,8.0525 13.08125,7.57875 18.78875,14.92125 18.78875,24.63125 0,10.89625 -8.3225,19.65875 -18.78875,19.65875 -11.8925,0 -19.02625,-9.9475 -19.02625,-21.08 l 9.5125,0 c 0,5.68375 2.855,11.60625 9.51375,11.60625 5.2325,0 9.51375,-4.7375 9.51375,-10.185 0,-4.23 -1.7475,-7.7925 -9.32125,-12.6975 z"
         id="path31" />
      <path
         inkscape:connector-curvature="0"
         style="fill:#000000;fill-rule:nonzero;stroke:none"
         d="m 651.2675,-103.25002 0,58.499997 -9.73875,0 0,-58.499997 -12.35125,0 0,-9 34.44125,0 0,9 -12.35125,0 z"
         id="path33" />
      <path
         inkscape:connector-curvature="0"
         style="fill:#000000;fill-rule:nonzero;stroke:none"
         d="m 688.95125,-103.25002 0,58.499997 -9.73875,0 0,-58.499997 -12.35375,0 0,-9 34.4425,0 0,9 -12.35,0 z"
         id="path35" />
      <path
         inkscape:connector-curvature="0"
         style="fill:#000000;fill-rule:nonzero;stroke:none"
         d="m 395.20875,-53.038773 c -3.30875,5.4475 -9.69125,9.47375 -16.0725,9.47375 -6.61625,0 -13.235,-3.79 -16.54375,-9.47375 -1.89125,-3.55375 -2.6,-6.39625 -2.6,-11.8425 l 0,-47.368747 9.69,0 0,48.552497 c 0,6.395 3.7825,10.65875 9.45375,10.65875 5.2,0 8.9825,-4.26375 8.9825,-10.65875 l 0,-48.552497 9.69,0 0,47.368747 c 0,5.44625 -0.70875,8.28875 -2.6,11.8425 z"
         id="path37" />
      <path
         inkscape:connector-curvature="0"
         style="fill:#000000;fill-rule:nonzero;stroke:none"
         d="m 619.01625,-53.038773 c -3.3075,5.4475 -9.69,9.47375 -16.07125,9.47375 -6.61875,0 -13.2375,-3.79 -16.545,-9.47375 -1.8925,-3.55375 -2.60125,-6.39625 -2.60125,-11.8425 l 0,-47.368747 9.69,0 0,48.552497 c 0,6.395 3.7825,10.65875 9.45625,10.65875 5.2,0 8.98125,-4.26375 8.98125,-10.65875 l 0,-48.552497 9.69,0 0,47.368747 c 0,5.44625 -0.71,8.28875 -2.6,11.8425 z"
         id="path39" />
      <path
         inkscape:connector-curvature="0"
         style="fill:#000000;fill-rule:nonzero;stroke:none"
         d="m 586.95,42.754977 c -2.84875,-4.73625 -6.3325,-6.63 -11.71375,-6.94625 -6.965,-0.31625 -11.39625,3.1575 -14.56125,11.0525 -2.21625,5.3675 -3.48375,13.57875 -3.48375,21.1575 0,9.47375 1.9,19.2625 5.38125,24.9475 2.85125,4.7375 6.6475,6.94625 12.34625,6.94625 6.6475,0 10.76375,-3.47375 13.93,-11.36625 1.9,-4.7375 3.4825,-13.58 3.4825,-20.5275 0,-10.105 -1.9,-19.2625 -5.38125,-25.26375 z m 9.8125,61.580003 c -5.06625,6.9475 -12.34625,10.105 -21.84375,10.105 -12.66125,0 -20.57625,-5.0525 -25.9575,-16.105003 -3.79875,-7.58 -6.33,-19.57875 -6.33,-30.31625 0,-14.8425 3.79875,-28.105 9.81125,-36.63125 5.38375,-6.9475 12.66375,-10.105 23.11125,-10.105 11.39625,0 19.30875,5.0525 25.0075,16.105 3.79875,7.89375 6.015,19.26375 6.015,30.63125 0,14.21125 -3.48375,28.42 -9.81375,36.316253 z"
         id="path41" />
      <path
         inkscape:connector-curvature="0"
         style="fill:#000000;fill-rule:nonzero;stroke:none"
         d="m 665.85125,38.539977 c -2.21,-1.26375 -3.47375,-1.57875 -8.21,-1.57875 l -17.055,0 0,22.105 17.055,0 c 4.42125,0 6,-0.31625 8.21,-1.57875 3.47375,-1.895 5.68625,-5.685 5.68625,-9.47375 0,-3.79 -2.2125,-7.58 -5.68625,-9.47375 z m 6.31625,74.210003 -14.52625,-39.157503 -17.055,0 0,39.157503 -14.21,0 0,-90.000003 29.685,0 c 6.94875,0 11.685,0.63125 16.10625,2.8425 7.895,3.79 13.57875,13.2625 13.57875,22.42125 0,9.47375 -5.68375,18.9475 -13.89375,22.73625 l 15.79125,42.000003 -15.47625,0 z"
         id="path43" />
      <path
         inkscape:connector-curvature="0"
         style="fill:#000000;fill-rule:nonzero;stroke:none"
         d="m 489.3,36.961227 0,22.105 26.175,0 0,14.52625 -26.175,0 0,39.157503 -14.19375,0 0,-90.000003 55.82375,0 0,14.21125 -41.63,0 z"
         id="path45" />
      <path
         inkscape:connector-curvature="0"
         style="fill:#000000;fill-rule:nonzero;stroke:none"
         d="m 782.13625,411.59998 c -1.01,-0.68375 -2.23125,-1.08375 -3.545,-1.08375 -3.49375,0 -6.3275,2.8325 -6.3275,6.3275 0,0.69875 0.115,1.37 0.325,1.99875 l 6.1425,20.1575 -467.35625,0 0,33.75 467.35625,0 -6.1425,20.15875 c -0.21,0.6275 -0.325,1.29875 -0.325,1.99875 0,3.49375 2.83375,6.3275 6.3275,6.3275 1.31375,0 2.535,-0.4 3.545,-1.085 l 69.23875,-44.275 -69.23875,-44.275 z"
         id="path47" />
    </g>
  </g>
</svg>
