<?xml version="1.0" encoding="UTF-8" standalone="no"?>
<!-- Generator: Adobe Illustrator 12.0.1, SVG Export Plug-In  -->

<svg
   xmlns:dc="http://purl.org/dc/elements/1.1/"
   xmlns:cc="http://creativecommons.org/ns#"
   xmlns:rdf="http://www.w3.org/1999/02/22-rdf-syntax-ns#"
   xmlns:svg="http://www.w3.org/2000/svg"
   xmlns="http://www.w3.org/2000/svg"
   xmlns:sodipodi="http://sodipodi.sourceforge.net/DTD/sodipodi-0.dtd"
   xmlns:inkscape="http://www.inkscape.org/namespaces/inkscape"
   version="1.1"
   width="208.21875"
   height="277.09375"
   viewBox="-1 0 208.21875 277.09375"
   enable-background="new -1 0 289 288"
   xml:space="preserve"
   id="svg2"
   inkscape:version="0.48.2 r9819"
   sodipodi:docname="AJAX1.svg"><metadata
   id="metadata22"><rdf:RDF><cc:Work
       rdf:about=""><dc:format>image/svg+xml</dc:format><dc:type
         rdf:resource="http://purl.org/dc/dcmitype/StillImage" /><dc:title /></cc:Work></rdf:RDF></metadata><sodipodi:namedview
   pagecolor="#ffffff"
   bordercolor="#666666"
   borderopacity="1"
   objecttolerance="10"
   gridtolerance="10"
   guidetolerance="10"
   inkscape:pageopacity="0"
   inkscape:pageshadow="2"
   inkscape:window-width="1280"
   inkscape:window-height="1004"
   id="namedview20"
   showgrid="false"
   fit-margin-top="0"
   fit-margin-left="0"
   fit-margin-right="0"
   fit-margin-bottom="0"
   inkscape:zoom="1.638889"
   inkscape:cx="91.83196"
   inkscape:cy="107.0266"
   inkscape:window-x="-8"
   inkscape:window-y="-8"
   inkscape:window-maximized="1"
   inkscape:current-layer="svg2"
   showguides="true"
   inkscape:guide-bbox="true" />
<defs
   id="defs4">
</defs>







<path
   inkscape:connector-curvature="0"
   d="m 206.45926,241.90014 c 0,18.94875 -15.5025,34.45125 -34.45125,34.45125 l -137.80625,0 c -18.948748,0 -34.451248,-15.5025 -34.451248,-34.45125 l 0,-206.708755 c 0,-18.948745 15.5025,-34.451245 34.451248,-34.451245 l 137.80625,0 c 18.94875,0 34.45125,15.5025 34.45125,34.451245 l 0,206.708755 z"
   style="fill:#ffffff;stroke:#000000;stroke-width:1.5;stroke-linecap:butt;stroke-linejoin:miter;stroke-miterlimit:4;stroke-opacity:1;stroke-dasharray:none"
   id="path4263" /><path
   inkscape:connector-curvature="0"
   d="m 172.00775,9.3525 -137.80625,0 C 19.99025,9.3525 8.362749,20.98 8.362749,35.191245 l 0,206.708755 c 0,14.21125 11.627501,25.83875 25.838751,25.83875 l 137.80625,0 c 14.21125,0 25.83875,-11.6275 25.83875,-25.83875 l 0,-206.708755 C 197.8465,20.98 186.219,9.3525 172.00775,9.3525 M 16.9765,35.191245 C 16.9765,25.71625 24.72775,17.965 34.2015,17.965 l 137.80625,0 c 9.47375,0 17.22625,7.75125 17.22625,17.226245 l 0,40.193749 -172.2575,0 0,-40.193749 z m 0,45.934999 172.2575,0 0,54.548756 -172.2575,0 0,-54.548756 z M 189.234,195.965 l -172.2575,0 0,-54.54876 172.2575,0 0,54.54876 z m -17.22625,63.16125 -137.80625,0 c -9.47375,0 -17.225,-7.7525 -17.225,-17.22625 l 0,-40.19376 172.2575,0 0,40.19376 c 0,9.47375 -7.7525,17.22625 -17.22625,17.22625"
   style="fill:#000000;fill-opacity:1;fill-rule:nonzero;stroke:none"
   id="path4267" /><path
   inkscape:connector-curvature="0"
   d="m 160.39037,222.55763 11.6175,7.85376 -11.6175,7.86625 c -0.50625,0.34375 -1.215,0.2175 -1.56125,-0.29625 -0.23625,-0.33875 -0.18875,-0.70125 -0.0813,-1.12 l 1.02625,-3.40375 -123.82625,0 0,-6.08501 123.82625,0 -1.00375,-3.355 c -0.13,-0.46625 -0.1825,-0.805 0.0588,-1.16375 0.34625,-0.51 1.055,-0.64875 1.56125,-0.29625"
   style="fill:#000000;fill-opacity:1;fill-rule:evenodd;stroke:none"
   id="path4277" /><path
   inkscape:connector-curvature="0"
   d="m 96.83726,116.632 0,-6.92124 c 0,-0.53001 0.0613,-1.59251 -0.735,-1.59251 -0.715,0 -0.67375,1.12375 -0.67375,1.59251 l 0,6.92124 -1.735,0 0,-10.065 1.735,0 0,0.44875 c 0.245,-0.4075 0.715,-0.71375 1.18375,-0.71375 0.49,0 0.96,0.10125 1.38875,0.71375 0.57125,0.87875 0.57125,3.57251 0.57125,4.49125 l 0,5.125 -1.735,0 z"
   style="fill:#000000;fill-opacity:1;fill-rule:nonzero;stroke:none"
   id="path4405" /><path
   inkscape:connector-curvature="0"
   d="m 101.53275,104.44387 c -0.49,0 -0.89875,-0.3875 -0.89875,-0.8975 0,-0.49125 0.40875,-0.87875 0.89875,-0.87875 0.49,0 0.8975,0.3875 0.8975,0.87875 0,0.51 -0.4075,0.8975 -0.8975,0.8975 m -0.8775,2.1225 1.735,0 0,10.06501 -1.735,0 0,-10.06501 z"
   style="fill:#000000;fill-opacity:1;fill-rule:nonzero;stroke:none"
   id="path4409" /><path
   inkscape:connector-curvature="0"
   d="m 105.90162,116.81588 c -0.715,0 -1.3675,-0.18375 -1.96,-1.06125 l 0.49,-2.02126 c 0.49,1.06125 0.91875,1.44876 1.40875,1.44876 0.6125,0 0.8575,-0.42875 0.8575,-1.265 0,-0.38876 -0.28625,-1.38876 -1.205,-2.12376 -1.02,-0.81624 -1.55125,-1.48999 -1.55125,-2.94 0,-1.3475 0.69375,-2.53125 2.06125,-2.53125 0.75625,0 1.36875,0.3875 2.0625,1.225 l -0.53125,1.83751 c -0.6325,-1.12251 -0.91875,-1.45001 -1.3675,-1.45001 -0.32625,0 -0.53,0.42875 -0.53,0.8575 0,0.89876 0.93875,1.65376 1.51,2.22626 0.8175,0.85625 1.245,1.83625 1.245,2.96 0,1.77625 -1.04,2.8375 -2.49,2.8375"
   style="fill:#000000;fill-opacity:1;fill-rule:nonzero;stroke:none"
   id="path4413" /><path
   inkscape:connector-curvature="0"
   d="m 112.9245,116.632 0,-6.92124 c 0,-0.53001 0.0613,-1.59251 -0.735,-1.59251 -0.715,0 -0.67375,1.12375 -0.67375,1.59251 l 0,6.92124 -1.735,0 0,-12.96375 1.735,-1.06125 0,4.1025 c 0.28625,-0.265 0.715,-0.4075 1.1025,-0.4075 0.89875,0 2.04125,0.91875 2.04125,3.36876 l 0,6.96124 -1.735,0 z"
   style="fill:#000000;fill-opacity:1;fill-rule:nonzero;stroke:none"
   id="path4417" /><path
   inkscape:connector-curvature="0"
   d="m 129.44275,115.52926 c -0.3475,0.73499 -1.06125,1.3475 -2.40875,1.3475 -1.26625,0 -2.185,-0.57126 -2.61375,-1.83751 -0.3875,-1.16374 -0.57125,-3.04124 -0.57125,-5.26625 0,-1.26625 0.1425,-3.10375 0.34625,-4.16625 0.38875,-2.1225 1.205,-2.93875 2.83875,-2.93875 1.55125,0 2.5725,0.95875 2.715,2.65375 l -1.79625,0 c -0.0413,-0.5925 -0.38875,-0.8775 -0.8575,-0.8775 -0.6325,0 -0.98,0.44875 -1.16375,1.3475 -0.245,1.1225 -0.28625,2.14375 -0.28625,3.98125 0,1.91876 0.0413,2.755 0.28625,3.91876 0.18375,0.91874 0.53125,1.38875 1.1025,1.38875 0.6325,0 0.91875,-0.47001 0.91875,-1.69501 l 1.79625,0 c 0,0 0.0412,1.45 -0.30625,2.14375"
   style="fill:#000000;fill-opacity:1;fill-rule:nonzero;stroke:none"
   id="path4421" /><path
   inkscape:connector-curvature="0"
   d="m 139.16025,116.81588 c -2.0825,0 -2.6125,-2.65375 -2.6125,-5.20626 0,-2.8175 0.24375,-5.2675 2.6125,-5.2675 2.0625,0 2.45,2.36875 2.45,5.20625 0,2.5725 -0.53125,5.26751 -2.45,5.26751 m 0,-8.63626 c -1.06125,0 -0.8375,2.69501 -0.8375,3.36875 0,0.63251 -0.04,3.51125 0.8375,3.49126 0.77625,-0.02 0.715,-2.8175 0.715,-3.49126 0,-0.67374 0.20375,-3.36875 -0.715,-3.36875"
   style="fill:#000000;fill-opacity:1;fill-rule:nonzero;stroke:none"
   id="path4429" /><path
   inkscape:connector-curvature="0"
   d="m 154.5945,104.44387 c -0.49,0 -0.89875,-0.3875 -0.89875,-0.8975 0,-0.49125 0.40875,-0.87875 0.89875,-0.87875 0.49,0 0.8975,0.3875 0.8975,0.87875 0,0.51 -0.4075,0.8975 -0.8975,0.8975 m -0.8775,2.1225 1.735,0 0,10.06501 -1.735,0 0,-10.06501 z"
   style="fill:#000000;fill-opacity:1;fill-rule:nonzero;stroke:none"
   id="path4441" /><path
   inkscape:connector-curvature="0"
   d="m 160.84175,116.632 0,-6.92124 c 0,-0.53001 0.0612,-1.59251 -0.735,-1.59251 -0.715,0 -0.67375,1.12375 -0.67375,1.59251 l 0,6.92124 -1.735,0 0,-10.065 1.735,0 0,0.44875 c 0.245,-0.4075 0.715,-0.71375 1.18375,-0.71375 0.49,0 0.96,0.10125 1.38875,0.71375 0.57125,0.87875 0.57125,3.57251 0.57125,4.49125 l 0,5.125 -1.735,0 z"
   style="fill:#000000;fill-opacity:1;fill-rule:nonzero;stroke:none"
   id="path4445" /><path
   inkscape:connector-curvature="0"
   d="m 168.43625,120.30663 c -0.49,0.67375 -0.91875,1.02 -1.69375,1.30625 l -0.63375,-1.65375 c 0.81625,-0.3875 1.40875,-0.95876 1.40875,-1.8775 l 0,-1.69501 c -0.20375,0.28626 -0.49,0.49001 -0.67375,0.49001 -2.18375,0 -2.6125,-2.89876 -2.6125,-5.12375 0,-2.81751 0.42875,-5.37001 2.55125,-5.41001 0.28625,-0.0213 0.53125,0.1425 0.98,0.46875 l 0,-0.285 1.49,0 0,10.2475 c 0,1.87875 -0.20375,2.65501 -0.81625,3.53251 m -0.8775,-10.88125 c 0,-0.42876 -0.1025,-1.20501 -0.715,-1.20501 -0.735,0 -0.91875,1.40875 -0.91875,3.5325 0,0.59125 -0.0613,3.38875 0.96,3.38875 0.42875,-0.0613 0.67375,-0.97999 0.67375,-1.83749 l 0,-3.87875 z"
   style="fill:#000000;fill-opacity:1;fill-rule:nonzero;stroke:none"
   id="path4449" /><path
   inkscape:connector-curvature="0"
   d="m 98.51625,120.31251 1.75625,0 0,13.78 -1.75625,0 0,-13.78 z"
   style="fill:#000000;fill-opacity:1;fill-rule:nonzero;stroke:none"
   id="path4451" /><path
   inkscape:connector-curvature="0"
   d="m 104.61975,125.64112 0,8.4525 -1.755,0 0,-8.4525 -0.67375,0 0,-1.6125 0.67375,0 0,-2.225 c 0,-1.00125 0.53,-1.735 1.3675,-1.735 0.32625,0 0.71375,0 1.1025,0.24375 l 0,1.5925 c -0.18375,-0.32625 -0.715,-0.32625 -0.715,0.53125 l 0,1.5925 0.77625,0 0,1.6125 -0.77625,0 z"
   style="fill:#000000;fill-opacity:1;fill-rule:nonzero;stroke:none"
   id="path4455" /><path
   inkscape:connector-curvature="0"
   d="m 115.78675,134.33814 c -2.225,0 -2.96,-1.69375 -3.04125,-3.675 l 1.775,0 c 0,0.8175 0.24625,1.87875 1.26625,1.87875 0.79625,0 1.1025,-0.69375 1.1025,-1.38875 0,-1.47 -0.55125,-2.3675 -1.6125,-3.63375 -1.0825,-1.28625 -2.205,-2.3675 -2.205,-4.165 0,-1.65375 1,-3.225 2.8175,-3.225 2,0 2.63375,1.49 2.79625,3.225 l -1.79625,0 c -0.02,-0.6525 -0.1425,-1.49 -0.96,-1.49 -0.81625,0 -1.06125,0.81625 -1.06125,1.49 0,0.91875 0.755,1.67375 1.8175,2.85875 1.6325,1.79625 2,3.5325 2,4.94 0,1.675 -1.1425,3.185 -2.89875,3.185"
   style="fill:#000000;fill-opacity:1;fill-rule:nonzero;stroke:none"
   id="path4459" /><path
   inkscape:connector-curvature="0"
   d="m 123.29962,133.60363 c -0.3475,0.44875 -0.6325,0.6325 -1.02125,0.6325 -1.06125,0 -1.8375,-1.1025 -1.8375,-2.55125 l 0,-6.06375 -1.06125,0 0,-1.5925 1.06125,0 0,-2.89875 1.7975,-1.06125 0,3.96 1.20375,0 0,1.5725 -1.20375,0 0,6.08375 c 0,0.46875 0.245,0.81625 0.57125,0.81625 0.28625,0 0.42875,-0.20375 0.67375,-0.53125 l -0.18375,1.63375 z"
   style="fill:#000000;fill-opacity:1;fill-rule:nonzero;stroke:none"
   id="path4463" /><path
   inkscape:connector-curvature="0"
   d="m 127.38276,134.09326 0,-0.28625 c -0.28625,0.3275 -0.735,0.42875 -1.16375,0.42875 -1.63375,0 -2.3275,-1.95875 -2.3275,-3.53125 0,-1.40875 0.69375,-3.43 2.38875,-3.43 0.32625,0 0.65375,0.0812 0.96,0.18375 l 0,-0.71375 c 0,-0.5925 -0.0825,-1.0625 -0.77625,-1.0625 -0.735,0 -1.38875,0.8775 -1.695,1.45 l -0.42875,-2.185 c 0.53125,-0.6125 1.205,-1.16375 2.0625,-1.16375 2.0825,0 2.5725,1.87875 2.5725,3.59375 l 0,6.71625 -1.5925,0 z m -0.1425,-4.59375 c 0,-0.245 -0.5925,-0.3475 -0.77625,-0.3475 -0.755,0 -0.81625,1.0825 -0.81625,1.61375 0,0.67375 -0.0413,1.8375 0.91875,1.8375 0.59125,0 0.67375,-0.40875 0.67375,-0.91875 l 0,-2.185 z"
   style="fill:#000000;fill-opacity:1;fill-rule:nonzero;stroke:none"
   id="path4467" /><path
   inkscape:connector-curvature="0"
   d="m 134.46664,126.25363 c -0.245,-0.32625 -0.42875,-0.57125 -0.71375,-0.57125 -0.695,0 -0.98,0.715 -0.98,1.98 l 0,6.43125 -1.73625,0 0,-10.065 1.73625,0 0,0.49 c 0.285,-0.49 0.49,-0.735 0.9175,-0.735 0.45,0 0.77625,0.30625 0.98,0.69375 l -0.20375,1.77625 z"
   style="fill:#000000;fill-opacity:1;fill-rule:nonzero;stroke:none"
   id="path4471" /><path
   inkscape:connector-curvature="0"
   d="m 138.856,133.60363 c -0.3475,0.44875 -0.6325,0.6325 -1.02125,0.6325 -1.06125,0 -1.8375,-1.1025 -1.8375,-2.55125 l 0,-6.06375 -1.06125,0 0,-1.5925 1.06125,0 0,-2.89875 1.7975,-1.06125 0,3.96 1.20375,0 0,1.5725 -1.20375,0 0,6.08375 c 0,0.46875 0.245,0.81625 0.57125,0.81625 0.28625,0 0.42875,-0.20375 0.67375,-0.53125 l -0.18375,1.63375 z"
   style="fill:#000000;fill-opacity:1;fill-rule:nonzero;stroke:none"
   id="path4475" /><path
   inkscape:connector-curvature="0"
   d="m 141.42812,130.07163 c 0.0412,1.94 0.28625,2.42875 0.91875,2.42875 0.3875,0 0.67375,-0.285 0.96,-1.30625 l 1.10125,1.5925 c -0.32625,0.91875 -1,1.49 -1.83625,1.49 -2.205,0 -2.8375,-2.02125 -2.8375,-5.165 0,-3.185 0.57125,-5.3075 2.55125,-5.3075 2.51125,0 2.47,4.38875 2.42875,6.2675 l -3.28625,0 z m 0.81625,-4.38875 c -0.59125,0 -0.81625,0.6325 -0.81625,2.6125 l 1.695,0 c 0,-2.04125 -0.30625,-2.6125 -0.87875,-2.6125"
   style="fill:#000000;fill-opacity:1;fill-rule:nonzero;stroke:none"
   id="path4479" /><path
   inkscape:connector-curvature="0"
   d="m 149.22699,134.09326 0,-0.3875 c -0.225,0.30625 -0.47,0.6325 -1.0825,0.6325 -2.205,0 -2.30625,-3.85875 -2.30625,-5.37 0,-1.49 0.1625,-5.14375 2.26625,-5.14375 0.3675,0 0.73375,0.1025 1.06125,0.265 l 0,-2.96 1.735,-1.06125 0,14.025 -1.67375,0 z m -0.0613,-7.20625 c 0,-0.47 -0.0412,-1.26625 -0.67375,-1.26625 -0.20375,0 -0.28625,0.0413 -0.47,0.20375 -0.42875,0.3675 -0.4075,2.61375 -0.4075,3.14375 0,0.53125 -0.0613,2.5725 0.34625,3.185 0.1225,0.18375 0.26625,0.28625 0.53125,0.28625 0.69375,0 0.67375,-1.1025 0.67375,-1.5925 l 0,-3.96 z"
   style="fill:#000000;fill-opacity:1;fill-rule:nonzero;stroke:none"
   id="path4483" /><path
   inkscape:connector-curvature="0"
   d="m 92.18237,174.87689 c -0.3875,0.42874 -1.06125,0.67374 -1.8375,0.67374 l -2.8575,0 0,-13.78 2.8575,0 c 0.96,0 1.65375,0.34625 2.0825,1.02 0.32625,0.53125 0.5925,1.45 0.715,2.30751 0.1625,1.1225 0.30625,2.36749 0.30625,3.53125 0,3.24624 -0.45,5.32874 -1.26625,6.2475 m -0.67375,-9.33001 c -0.1225,-1.51124 -0.42875,-1.97999 -1.16375,-1.97999 l -1.1025,0 0,10.1875 1.1025,0 c 0.63375,0 0.96,-0.42876 1.16375,-1.45001 0.0412,-0.47 0.1425,-2.02124 0.1425,-3.225 0,-1.02125 -0.0613,-2.5725 -0.1425,-3.5325"
   style="fill:#000000;fill-opacity:1;fill-rule:nonzero;stroke:none"
   id="path4529" /><path
   inkscape:connector-curvature="0"
   d="m 98.83787,175.7955 c -3.43,0 -3.185,-4.87875 -3.185,-7.16625 0,-2.3675 -0.18375,-7.0425 3.185,-7.0425 3.38875,0 3.205,4.73625 3.205,7.0425 0,2.2875 0.18375,7.16625 -3.205,7.16625 m 0,-12.4325 c -1.5925,0 -1.38875,4.3075 -1.38875,5.26625 0,0.91875 -0.20375,5.37 1.38875,5.37 1.55125,0 1.3675,-4.45125 1.3675,-5.37 0,-1.1025 -0.0613,-5.26625 -1.3675,-5.26625"
   style="fill:#000000;fill-opacity:1;fill-rule:nonzero;stroke:none"
   id="path4533" /><path
   inkscape:connector-curvature="0"
   d="m 109.10675,175.55036 -2.695,-8.16625 0,8.16625 -1.75625,0 0,-13.78 1.75625,0 2.45,6.85876 0,-6.85876 1.755,0 0,13.78 -1.51,0 z"
   style="fill:#000000;fill-opacity:1;fill-rule:nonzero;stroke:none"
   id="path4537" /><path
   inkscape:connector-curvature="0"
   d="m 114.14911,165.34 -0.53,-0.42875 c 0.34625,-0.28625 0.6725,-0.735 0.775,-1.06125 l -0.1425,0 c -0.5925,0 -1.02125,-0.38875 -1.02125,-1.02125 0,-0.53 0.42875,-1.02125 1.02125,-1.02125 0.6325,0 1.06125,0.49125 1.06125,1.16375 0,0.87875 -0.42875,1.7975 -1.16375,2.36875"
   style="fill:#000000;fill-opacity:1;fill-rule:nonzero;stroke:none"
   id="path4541" /><path
   inkscape:connector-curvature="0"
   d="m 120.25324,163.56689 0,11.98374 -1.735,0 0,-11.98374 -1.695,0 0,-1.79626 5.22625,0 0,1.79626 -1.79625,0 z"
   style="fill:#000000;fill-opacity:1;fill-rule:nonzero;stroke:none"
   id="path4545" /><path
   inkscape:connector-curvature="0"
   d="m 135.91211,174.44824 c -0.3475,0.735 -1.06125,1.3475 -2.40875,1.3475 -1.26625,0 -2.185,-0.57125 -2.61375,-1.8375 -0.3875,-1.16375 -0.57125,-3.04249 -0.57125,-5.2675 0,-1.26625 0.1425,-3.1025 0.34625,-4.165 0.38875,-2.1225 1.205,-2.93875 2.83875,-2.93875 1.55125,0 2.5725,0.95875 2.715,2.65375 l -1.79625,0 c -0.0413,-0.5925 -0.38875,-0.87875 -0.8575,-0.87875 -0.6325,0 -0.98,0.45001 -1.16375,1.3475 -0.245,1.12375 -0.28625,2.14376 -0.28625,3.98125 0,1.91875 0.0413,2.75626 0.28625,3.92 0.18375,0.91875 0.53125,1.38876 1.1025,1.38876 0.6325,0 0.91875,-0.47001 0.91875,-1.69501 l 1.79625,0 c 0,0 0.0413,1.45001 -0.30625,2.14376"
   style="fill:#000000;fill-opacity:1;fill-rule:nonzero;stroke:none"
   id="path4549" /><path
   inkscape:connector-curvature="0"
   d="m 143.343,168.691 1.38875,6.85875 -1.77625,0 -1.55125,-6.43 -0.8175,0 0,6.43 -1.755,0 0,-13.78 2.715,0 c 2.1225,0 3.24625,1.3075 3.24625,3.85875 0,1.55125 -0.45,2.43 -1.45,3.0625 m -1.89875,-5.125 -0.8575,0 0,3.7575 1.14375,0 c 0.98,0 1.265,-0.42875 1.265,-1.73625 0,-1.55125 -0.34625,-2.02125 -1.55125,-2.02125"
   style="fill:#000000;fill-opacity:1;fill-rule:nonzero;stroke:none"
   id="path4553" /><path
   inkscape:connector-curvature="0"
   d="m 149.7535,175.7955 c -3.43,0 -3.185,-4.87875 -3.185,-7.16625 0,-2.3675 -0.18375,-7.0425 3.185,-7.0425 3.38875,0 3.205,4.73625 3.205,7.0425 0,2.2875 0.18375,7.16625 -3.205,7.16625 m 0,-12.4325 c -1.5925,0 -1.38875,4.3075 -1.38875,5.26625 0,0.91875 -0.20375,5.37 1.38875,5.37 1.55125,0 1.3675,-4.45125 1.3675,-5.37 0,-1.1025 -0.0613,-5.26625 -1.3675,-5.26625"
   style="fill:#000000;fill-opacity:1;fill-rule:nonzero;stroke:none"
   id="path4557" /><path
   inkscape:connector-curvature="0"
   d="m 157.79689,175.7955 c -2.225,0 -2.96,-1.69375 -3.04125,-3.675 l 1.775,0 c 0,0.81625 0.24625,1.87875 1.26625,1.87875 0.79625,0 1.1025,-0.69375 1.1025,-1.38875 0,-1.47 -0.55125,-2.36875 -1.6125,-3.63375 -1.0825,-1.28625 -2.205,-2.36875 -2.205,-4.165 0,-1.65375 1,-3.225 2.8175,-3.225 2,0 2.63375,1.49 2.79625,3.225 l -1.79625,0 c -0.02,-0.6525 -0.1425,-1.49 -0.96,-1.49 -0.81625,0 -1.06125,0.81625 -1.06125,1.49 0,0.91875 0.755,1.67375 1.8175,2.85875 1.6325,1.79625 2,3.53125 2,4.94 0,1.675 -1.1425,3.185 -2.89875,3.185"
   style="fill:#000000;fill-opacity:1;fill-rule:nonzero;stroke:none"
   id="path4561" /><path
   inkscape:connector-curvature="0"
   d="m 165.126,175.7955 c -2.225,0 -2.96,-1.69375 -3.04125,-3.675 l 1.775,0 c 0,0.81625 0.24625,1.87875 1.26625,1.87875 0.79625,0 1.1025,-0.69375 1.1025,-1.38875 0,-1.47 -0.55125,-2.36875 -1.6125,-3.63375 -1.0825,-1.28625 -2.205,-2.36875 -2.205,-4.165 0,-1.65375 1,-3.225 2.8175,-3.225 2,0 2.63375,1.49 2.79625,3.225 l -1.79625,0 c -0.02,-0.6525 -0.1425,-1.49 -0.96,-1.49 -0.81625,0 -1.06125,0.81625 -1.06125,1.49 0,0.91875 0.755,1.67375 1.8175,2.85875 1.6325,1.79625 2,3.53125 2,4.94 0,1.675 -1.1425,3.185 -2.89875,3.185"
   style="fill:#000000;fill-opacity:1;fill-rule:nonzero;stroke:none"
   id="path4565" /><path
   inkscape:connector-curvature="0"
   d="m 70.84525,210.43987 0,11.9425 -2,0 0,-11.9425 -2.51125,0 0,-1.8375 7.0225,0 0,1.8375 -2.51125,0 z"
   style="fill:#000000;fill-opacity:1;fill-rule:nonzero;stroke:none"
   id="path4569" /><path
   inkscape:connector-curvature="0"
   d="m 82.29825,220.25963 c -0.69375,1.63376 -1.69375,2.36875 -3.225,2.36875 -1.65375,0 -2.61375,-0.73499 -3.2875,-2.36875 -0.57125,-1.3675 -0.77625,-2.65375 -0.77625,-4.7975 0,-2.0825 0.18375,-3.46999 0.77625,-4.77749 0.715,-1.65376 1.695,-2.32751 3.2875,-2.32751 1.59125,0 2.53125,0.695 3.225,2.36875 0.57125,1.3675 0.77625,2.65375 0.77625,4.73625 0,2.14375 -0.205,3.47125 -0.77625,4.7975 m -1.53125,-8.2275 c -0.3475,-1.20374 -0.8775,-1.73499 -1.69375,-1.73499 -0.87875,0 -1.38875,0.53125 -1.75625,1.695 -0.30625,1.06124 -0.42875,1.97999 -0.42875,3.53125 0,1.48999 0.1225,2.3675 0.42875,3.47125 0.32625,1.16374 0.8775,1.69374 1.75625,1.69374 0.81625,0 1.34625,-0.53 1.69375,-1.69374 0.3275,-1.10376 0.42875,-1.94 0.42875,-3.53251 0,-1.53125 -0.1425,-2.40875 -0.42875,-3.43"
   style="fill:#000000;fill-opacity:1;fill-rule:nonzero;stroke:none"
   id="path4573" /><path
   inkscape:connector-curvature="0"
   d="m 96.50601,222.62775 c -2.94,0 -4.24625,-2.36875 -4.24625,-7.45125 0,-4.45125 1.38875,-6.81875 4.10375,-6.81875 2.28625,0 3.47,2.04125 3.5725,3.92001 l -1.98,0 c -0.18375,-1.34751 -0.715,-1.98001 -1.63375,-1.98001 -1.5925,0 -2.185,1.245 -2.185,4.8375 0,3.96125 0.675,5.55375 2.36875,5.55375 1.16375,0 1.45,-0.96 1.45,-1.98125 l 1.98,0 c -0.0413,2.26625 -1.49,3.92 -3.43,3.92"
   style="fill:#000000;fill-opacity:1;fill-rule:nonzero;stroke:none"
   id="path4577" /><path
   inkscape:connector-curvature="0"
   d="m 108.40812,222.38288 -1.8375,-6.47125 -1.89875,0 0,6.47125 -1.98,0 0,-13.78001 4.12375,0 c 2.165,0 3.61375,1.45 3.61375,3.67375 0,1.65375 -0.67375,2.85875 -1.98,3.32875 l 1.98,6.77751 -2.02125,0 z m -1.69375,-11.84126 -2.0425,0 0,3.47125 2.0425,0 c 1.1625,0 1.775,-0.63249 1.775,-1.73625 0,-1.06125 -0.71375,-1.735 -1.775,-1.735"
   style="fill:#000000;fill-opacity:1;fill-rule:nonzero;stroke:none"
   id="path4581" /><path
   inkscape:connector-curvature="0"
   d="m 119.79975,220.25963 c -0.69375,1.63376 -1.69375,2.36875 -3.225,2.36875 -1.65375,0 -2.61375,-0.73499 -3.2875,-2.36875 -0.57125,-1.3675 -0.77625,-2.65375 -0.77625,-4.7975 0,-2.0825 0.18375,-3.46999 0.77625,-4.77749 0.715,-1.65376 1.695,-2.32751 3.2875,-2.32751 1.5925,0 2.53125,0.695 3.225,2.36875 0.5725,1.3675 0.77625,2.65375 0.77625,4.73625 0,2.14375 -0.20375,3.47125 -0.77625,4.7975 m -1.53125,-8.2275 c -0.34625,-1.20374 -0.8775,-1.73499 -1.69375,-1.73499 -0.87875,0 -1.38875,0.53125 -1.75625,1.695 -0.30625,1.06124 -0.42875,1.97999 -0.42875,3.53125 0,1.48999 0.1225,2.3675 0.42875,3.47125 0.32625,1.16374 0.8775,1.69374 1.75625,1.69374 0.81625,0 1.3475,-0.53 1.69375,-1.69374 0.3275,-1.10376 0.42875,-1.94 0.42875,-3.53251 0,-1.53125 -0.1425,-2.40875 -0.42875,-3.43"
   style="fill:#000000;fill-opacity:1;fill-rule:nonzero;stroke:none"
   id="path4585" /><path
   inkscape:connector-curvature="0"
   d="m 126.51675,222.62775 c -2.40875,0 -3.87875,-2.04125 -3.87875,-4.3075 l 1.93875,0 c 0,1.16375 0.5925,2.36875 1.94,2.36875 1.06125,0 1.94,-0.96 1.94,-2.0825 0,-1.63375 -1.40875,-2.185 -3.43,-3.61375 -1.225,-0.87874 -1.695,-1.8375 -1.695,-3.0625 0,-1.98 1.53125,-3.5725 3.5325,-3.5725 1.91875,0 3.42875,1.51126 3.47,3.5725 l -1.8775,0 c -0.0613,-0.96 -0.73625,-1.59249 -1.5925,-1.59249 -0.91875,0 -1.65375,0.67374 -1.65375,1.59249 0,0.69375 0.28625,1.06126 1.30625,1.65375 2.65375,1.53125 3.8175,3.0425 3.8175,5.0225 0,2.225 -1.69375,4.02125 -3.8175,4.02125"
   style="fill:#000000;fill-opacity:1;fill-rule:nonzero;stroke:none"
   id="path4589" /><path
   inkscape:connector-curvature="0"
   d="m 135.86725,222.62775 c -2.40875,0 -3.87875,-2.04125 -3.87875,-4.3075 l 1.93875,0 c 0,1.16375 0.5925,2.36875 1.94,2.36875 1.06125,0 1.93875,-0.96 1.93875,-2.0825 0,-1.63375 -1.4075,-2.185 -3.42875,-3.61375 -1.22625,-0.87874 -1.695,-1.8375 -1.695,-3.0625 0,-1.98 1.53125,-3.5725 3.5325,-3.5725 1.91875,0 3.42875,1.51126 3.47,3.5725 l -1.87875,0 c -0.0613,-0.96 -0.735,-1.59249 -1.59125,-1.59249 -0.92,0 -1.655,0.67374 -1.655,1.59249 0,0.69375 0.28625,1.06126 1.3075,1.65375 2.65375,1.53125 3.8175,3.0425 3.8175,5.0225 0,2.225 -1.695,4.02125 -3.8175,4.02125"
   style="fill:#000000;fill-opacity:1;fill-rule:nonzero;stroke:none"
   id="path4593" /><path
   inkscape:connector-curvature="0"
   d="m 56.67675,246.18663 -2.14375,0 0,6.04375 -1.98,0 0,-13.78125 4.12375,0 c 2.16375,0 3.61375,1.5525 3.61375,3.85875 0,2.53125 -1.3075,3.87875 -3.61375,3.87875 m -0.1025,-5.7975 -2.04125,0 0,3.92 2.04125,0 c 1.16375,0 1.77625,-0.735 1.77625,-2.00125 0,-1.1425 -0.71375,-1.91875 -1.77625,-1.91875"
   style="fill:#000000;fill-opacity:1;fill-rule:nonzero;stroke:none"
   id="path4597" /><path
   inkscape:connector-curvature="0"
   d="m 70.25275,250.53552 c -0.65375,1.1225 -1.98,1.94 -3.2875,1.94 -1.34625,0 -2.715,-0.77625 -3.3875,-1.94 -0.38875,-0.715 -0.53125,-1.30625 -0.53125,-2.40875 l 0,-9.6775 1.98,0 0,9.9025 c 0,1.30625 0.77625,2.18375 1.93875,2.18375 1.0625,0 1.83875,-0.8775 1.83875,-2.18375 l 0,-9.9025 1.98,0 0,9.6775 c 0,1.1025 -0.1225,1.69375 -0.53125,2.40875"
   style="fill:#000000;fill-opacity:1;fill-rule:nonzero;stroke:none"
   id="path4601" /><path
   inkscape:connector-curvature="0"
   d="m 76.99,252.47501 c -2.40875,0 -3.87875,-2.04125 -3.87875,-4.3075 l 1.93875,0 c 0,1.16375 0.5925,2.3675 1.94,2.3675 1.06125,0 1.94,-0.95875 1.94,-2.08125 0,-1.63375 -1.40875,-2.185 -3.43,-3.61375 -1.225,-0.87875 -1.695,-1.8375 -1.695,-3.0625 0,-1.98125 1.53125,-3.57375 3.5325,-3.57375 1.91875,0 3.42875,1.51125 3.47,3.57375 l -1.8775,0 c -0.0613,-0.96 -0.735,-1.5925 -1.5925,-1.5925 -0.91875,0 -1.65375,0.67375 -1.65375,1.5925 0,0.69375 0.285,1.06125 1.30625,1.65375 2.65375,1.53 3.8175,3.04125 3.8175,5.0225 0,2.225 -1.69375,4.02125 -3.8175,4.02125"
   style="fill:#000000;fill-opacity:1;fill-rule:nonzero;stroke:none"
   id="path4605" /><path
   inkscape:connector-curvature="0"
   d="m 88.91276,252.23013 0,-6.2475 -3.77625,0 0,6.2475 -1.98125,0 0,-13.78125 1.98125,0 0,5.615 3.77625,0 0,-5.615 1.98,0 0,13.78125 -1.98,0 z"
   style="fill:#000000;fill-opacity:1;fill-rule:nonzero;stroke:none"
   id="path4609" /><path
   inkscape:connector-curvature="0"
   d="m 104.13837,252.23013 -4.0625,0 0,-13.78125 4.34875,0 c 1.8375,0 3.14375,1.45 3.14375,3.57375 0,1.265 -0.32625,1.8375 -1.44875,3.00125 1.06125,0.8775 1.69375,2.04125 1.69375,3.43 0,2.08125 -1.63375,3.77625 -3.675,3.77625 m 0,-11.84125 -2.0825,0 0,3.675 2.0825,0 c 0.91875,0 1.51125,-0.77625 1.51125,-2.04125 0,-1.16375 -0.45,-1.63375 -1.51125,-1.63375 m -0.10125,5.59375 -1.98125,0 0,4.3075 1.98125,0 c 1.1225,0 1.8375,-0.775 1.8375,-1.98 0,-1.30625 -0.8175,-2.3275 -1.8375,-2.3275"
   style="fill:#000000;fill-opacity:1;fill-rule:nonzero;stroke:none"
   id="path4613" /><path
   inkscape:connector-curvature="0"
   d="m 117.368,250.53552 c -0.65375,1.1225 -1.98125,1.94 -3.2875,1.94 -1.3475,0 -2.715,-0.77625 -3.38875,-1.94 -0.3875,-0.715 -0.53,-1.30625 -0.53,-2.40875 l 0,-9.6775 1.98,0 0,9.9025 c 0,1.30625 0.775,2.18375 1.93875,2.18375 1.0625,0 1.8375,-0.8775 1.8375,-2.18375 l 0,-9.9025 1.98,0 0,9.6775 c 0,1.1025 -0.1225,1.69375 -0.53,2.40875"
   style="fill:#000000;fill-opacity:1;fill-rule:nonzero;stroke:none"
   id="path4617" /><path
   inkscape:connector-curvature="0"
   d="m 124.32925,240.28715 0,11.9425 -2,0 0,-11.9425 -2.51125,0 0,-1.8375 7.0225,0 0,1.8375 -2.51125,0 z"
   style="fill:#000000;fill-opacity:1;fill-rule:nonzero;stroke:none"
   id="path4621" /><path
   inkscape:connector-curvature="0"
   d="m 132.16888,240.28715 0,11.9425 -2,0 0,-11.9425 -2.5125,0 0,-1.8375 7.02375,0 0,1.8375 -2.51125,0 z"
   style="fill:#000000;fill-opacity:1;fill-rule:nonzero;stroke:none"
   id="path4625" /><path
   inkscape:connector-curvature="0"
   d="m 143.62163,250.10688 c -0.69375,1.6325 -1.695,2.36875 -3.225,2.36875 -1.65375,0 -2.61375,-0.73625 -3.2875,-2.36875 -0.57125,-1.36875 -0.77625,-2.65375 -0.77625,-4.7975 0,-2.0825 0.18375,-3.47125 0.77625,-4.7775 0.715,-1.65375 1.695,-2.3275 3.2875,-2.3275 1.5925,0 2.53125,0.69375 3.225,2.36875 0.5725,1.3675 0.77625,2.65375 0.77625,4.73625 0,2.14375 -0.20375,3.47 -0.77625,4.7975 m -1.53125,-8.2275 c -0.3475,-1.205 -0.8775,-1.735 -1.69375,-1.735 -0.87875,0 -1.38875,0.53 -1.75625,1.69375 -0.30625,1.0625 -0.42875,1.98 -0.42875,3.5325 0,1.49 0.1225,2.3675 0.42875,3.47 0.32625,1.16375 0.8775,1.695 1.75625,1.695 0.81625,0 1.34625,-0.53125 1.69375,-1.695 0.3275,-1.1025 0.42875,-1.93875 0.42875,-3.53125 0,-1.53125 -0.1425,-2.40875 -0.42875,-3.43"
   style="fill:#000000;fill-opacity:1;fill-rule:nonzero;stroke:none"
   id="path4629" /><path
   inkscape:connector-curvature="0"
   d="m 153.40075,252.23013 -4.26625,-9.2275 0,9.2275 -1.98125,0 0,-13.78125 1.98125,0 3.77625,8.26875 0,-8.26875 1.98,0 0,13.78125 -1.49,0 z"
   style="fill:#000000;fill-opacity:1;fill-rule:nonzero;stroke:none"
   id="path4633" /><path
   inkscape:connector-curvature="0"
   d="m 34.19,154.20375 28.4825,0 0,34.44875 -28.4825,0 0,-34.44875 z"
   style="fill:#000000;fill-opacity:1;fill-rule:evenodd;stroke:none"
   id="path4675" /><path
   inkscape:connector-curvature="0"
   d="m 39.39387,152.93188 c -1.03875,0 -1.38125,-0.79125 -1.42,-1.715 l 0.82875,0 c 0,0.38126 0.115,0.87625 0.59125,0.87625 0.37125,0 0.515,-0.32375 0.515,-0.6475 0,-0.68625 -0.2575,-1.105 -0.75375,-1.69625 -0.505,-0.6 -1.02875,-1.105 -1.02875,-1.94375 0,-0.77125 0.4675,-1.505 1.315,-1.505 0.93375,0 1.22875,0.695 1.305,1.505 l -0.8375,0 c -0.01,-0.305 -0.0675,-0.69625 -0.44875,-0.69625 -0.38125,0 -0.495,0.38125 -0.495,0.69625 0,0.42875 0.3525,0.78125 0.8475,1.33375 0.7625,0.83875 0.93375,1.64875 0.93375,2.30625 0,0.78125 -0.5325,1.48625 -1.3525,1.48625"
   style="fill:#000000;fill-opacity:1;fill-rule:nonzero;stroke:none"
   id="path4683" /><path
   inkscape:connector-curvature="0"
   d="m 42.862,147.22425 0,5.59375 -0.81,0 0,-5.59375 -0.79125,0 0,-0.83875 2.44,0 0,0.83875 -0.83875,0 z"
   style="fill:#000000;fill-opacity:1;fill-rule:nonzero;stroke:none"
   id="path4687" /><path
   inkscape:connector-curvature="0"
   d="m 44.59612,152.81763 0,-6.43125 2.3725,0 0,0.8375 -1.5525,0 0,1.64875 1.02875,0 0,0.8575 -1.02875,0 0,2.24875 1.63875,0 0,0.83875 -2.45875,0 z"
   style="fill:#000000;fill-opacity:1;fill-rule:nonzero;stroke:none"
   id="path4691" /><path
   inkscape:connector-curvature="0"
   d="m 50.18925,152.81763 -0.3625,-1.715 -1.0575,0 -0.36125,1.715 -0.83875,0 1.315,-6.43125 0.82875,0 1.33375,6.43125 -0.8575,0 z m -0.87625,-4.24 -0.3625,1.68626 0.695,0 -0.3325,-1.68626 z"
   style="fill:#000000;fill-opacity:1;fill-rule:nonzero;stroke:none"
   id="path4695" /><path
   inkscape:connector-curvature="0"
   d="m 54.13399,152.50324 c -0.18125,0.2 -0.495,0.31375 -0.8575,0.31375 l -1.33375,0 0,-6.43125 1.33375,0 c 0.4475,0 0.77125,0.1625 0.97125,0.47625 0.1525,0.2475 0.2775,0.6775 0.33375,1.0775 0.0762,0.52375 0.14375,1.105 0.14375,1.6475 0,1.515 -0.21,2.48751 -0.59125,2.91625 m -0.315,-4.355 c -0.0563,-0.705 -0.2,-0.92375 -0.5425,-0.92375 l -0.515,0 0,4.755 0.515,0 c 0.295,0 0.4475,-0.2 0.5425,-0.67625 0.02,-0.22 0.0675,-0.94375 0.0675,-1.50625 0,-0.47625 -0.0288,-1.2 -0.0675,-1.64875"
   style="fill:#000000;fill-opacity:1;fill-rule:nonzero;stroke:none"
   id="path4699" /><path
   inkscape:connector-curvature="0"
   d="m 57.57387,149.90175 0,2.91625 -0.82875,0 0,-2.91625 -1.315,-3.51625 0.88625,0 0.8575,2.25875 0.82875,-2.25875 0.88625,0 -1.315,3.51625 z"
   style="fill:#000000;fill-opacity:1;fill-rule:nonzero;stroke:none"
   id="path4703" /><path
   inkscape:connector-curvature="0"
   d="m 34.20125,29.448755 28.48,0 0,34.451249 -28.48,0 0,-34.451249 z"
   style="fill:#000000;fill-opacity:1;fill-rule:evenodd;stroke:none"
   id="path4269" /><path
   inkscape:connector-curvature="0"
   d="m 74.39875,36.795005 102.55125,0 0,1.82875 -102.55125,0 0,-1.82875 z"
   style="fill:#000000;fill-opacity:1;fill-rule:evenodd;stroke:none"
   id="path4279" /><path
   inkscape:connector-curvature="0"
   d="m 77.66662,34.979505 c -2.225,0 -2.96,-1.695 -3.04125,-3.675 l 1.775,0 c 0,0.81625 0.24625,1.87875 1.26625,1.87875 0.79625,0 1.1025,-0.695 1.1025,-1.38875 0,-1.47 -0.55125,-2.3675 -1.6125,-3.633755 -1.0825,-1.28625 -2.205,-2.36875 -2.205,-4.16499 0,-1.65375 1,-3.225 2.8175,-3.225 2,0 2.63375,1.49 2.79625,3.225 l -1.79625,0 c -0.02,-0.6525 -0.1425,-1.49 -0.96,-1.49 -0.81625,0 -1.06125,0.81625 -1.06125,1.49 0,0.91874 0.755,1.67374 1.8175,2.85874 1.6325,1.79625 2,3.531255 2,4.940005 0,1.67375 -1.1425,3.185 -2.89875,3.185"
   style="fill:#000000;fill-opacity:1;fill-rule:nonzero;stroke:none"
   id="path4283" /><path
   inkscape:connector-curvature="0"
   d="m 85.09787,22.75064 0,11.983745 -1.735,0 0,-11.983745 -1.695,0 0,-1.79625 5.22625,0 0,1.79625 -1.79625,0 z"
   style="fill:#000000;fill-opacity:1;fill-rule:nonzero;stroke:none"
   id="path4287" /><path
   inkscape:connector-curvature="0"
   d="m 93.32513,34.734505 -0.77625,-3.675 -2.265,0 -0.77625,3.675 -1.79625,0 2.8175,-13.779995 1.77625,0 2.8575,13.779995 -1.8375,0 z m -1.87875,-9.085005 -0.775,3.61375 1.49,0 -0.715,-3.61375 z"
   style="fill:#000000;fill-opacity:1;fill-rule:nonzero;stroke:none"
   id="path4291" /><path
   inkscape:connector-curvature="0"
   d="m 101.5935,27.87487 1.38875,6.860005 -1.77625,0 -1.55125,-6.431255 -0.8175,0 0,6.431255 -1.755,0 0,-13.781245 2.715,0 c 2.1225,0 3.24625,1.3075 3.24625,3.85874 0,1.55125 -0.45,2.43 -1.45,3.0625 m -1.89875,-5.12374 -0.8575,0 0,3.75624 1.14375,0 c 0.98,0 1.265,-0.42875 1.265,-1.735 0,-1.55249 -0.34625,-2.02124 -1.55125,-2.02124"
   style="fill:#000000;fill-opacity:1;fill-rule:nonzero;stroke:none"
   id="path4295" /><path
   inkscape:connector-curvature="0"
   d="m 107.5545,22.75064 0,11.983745 -1.735,0 0,-11.983745 -1.695,0 0,-1.79625 5.22625,0 0,1.79625 -1.79625,0 z"
   style="fill:#000000;fill-opacity:1;fill-rule:nonzero;stroke:none"
   id="path4299" /><path
   inkscape:connector-curvature="0"
   d="m 123.2055,33.631995 c -0.3475,0.735 -1.06125,1.3475 -2.40875,1.3475 -1.26625,0 -2.185,-0.57125 -2.61375,-1.8375 -0.3875,-1.16375 -0.57125,-3.0425 -0.57125,-5.267505 0,-1.265 0.1425,-3.1025 0.34625,-4.16499 0.38875,-2.1225 1.205,-2.93875 2.83875,-2.93875 1.55125,0 2.5725,0.95875 2.715,2.65375 l -1.79625,0 c -0.0412,-0.5925 -0.38875,-0.8775 -0.8575,-0.8775 -0.63375,0 -0.98,0.44875 -1.16375,1.3475 -0.245,1.12249 -0.28625,2.14249 -0.28625,3.97999 0,1.920005 0.0413,2.756255 0.28625,3.920005 0.18375,0.91875 0.53,1.38875 1.1025,1.38875 0.6325,0 0.91875,-0.47 0.91875,-1.695 l 1.79625,0 c 0,0 0.0412,1.45 -0.30625,2.14375"
   style="fill:#000000;fill-opacity:1;fill-rule:nonzero;stroke:none"
   id="path4303" /><path
   inkscape:connector-curvature="0"
   d="m 130.6365,27.87487 1.38875,6.860005 -1.77625,0 -1.55125,-6.431255 -0.8175,0 0,6.431255 -1.755,0 0,-13.781245 2.715,0 c 2.1225,0 3.24625,1.3075 3.24625,3.85874 0,1.55125 -0.45,2.43 -1.45,3.0625 m -1.89875,-5.12374 -0.8575,0 0,3.75624 1.14375,0 c 0.98,0 1.265,-0.42875 1.265,-1.735 0,-1.55249 -0.34625,-2.02124 -1.55125,-2.02124"
   style="fill:#000000;fill-opacity:1;fill-rule:nonzero;stroke:none"
   id="path4307" /><path
   inkscape:connector-curvature="0"
   d="m 137.04701,34.979505 c -3.43,0 -3.185,-4.87875 -3.185,-7.166255 0,-2.3675 -0.18375,-7.04249 3.185,-7.04249 3.38875,0 3.205,4.73624 3.205,7.04249 0,2.287505 0.18375,7.166255 -3.205,7.166255 m 0,-12.432495 c -1.5925,0 -1.38875,4.30749 -1.38875,5.26624 0,0.91875 -0.20375,5.370005 1.38875,5.370005 1.55125,0 1.3675,-4.451255 1.3675,-5.370005 0,-1.1025 -0.0613,-5.26624 -1.3675,-5.26624"
   style="fill:#000000;fill-opacity:1;fill-rule:nonzero;stroke:none"
   id="path4311" /><path
   inkscape:connector-curvature="0"
   d="m 145.09037,34.979505 c -2.225,0 -2.96,-1.695 -3.04125,-3.675 l 1.775,0 c 0,0.81625 0.24625,1.87875 1.26625,1.87875 0.79625,0 1.1025,-0.695 1.1025,-1.38875 0,-1.47 -0.55125,-2.3675 -1.6125,-3.633755 -1.0825,-1.28625 -2.205,-2.36875 -2.205,-4.16499 0,-1.65375 1,-3.225 2.8175,-3.225 2,0 2.63375,1.49 2.79625,3.225 l -1.79625,0 c -0.02,-0.6525 -0.1425,-1.49 -0.96,-1.49 -0.81625,0 -1.06125,0.81625 -1.06125,1.49 0,0.91874 0.755,1.67374 1.8175,2.85874 1.6325,1.79625 2,3.531255 2,4.940005 0,1.67375 -1.1425,3.185 -2.89875,3.185"
   style="fill:#000000;fill-opacity:1;fill-rule:nonzero;stroke:none"
   id="path4315" /><path
   inkscape:connector-curvature="0"
   d="m 152.4195,34.979505 c -2.225,0 -2.96,-1.695 -3.04125,-3.675 l 1.775,0 c 0,0.81625 0.24625,1.87875 1.26625,1.87875 0.79625,0 1.1025,-0.695 1.1025,-1.38875 0,-1.47 -0.55125,-2.3675 -1.6125,-3.633755 -1.0825,-1.28625 -2.205,-2.36875 -2.205,-4.16499 0,-1.65375 1,-3.225 2.8175,-3.225 2,0 2.63375,1.49 2.79625,3.225 l -1.79625,0 c -0.02,-0.6525 -0.1425,-1.49 -0.96,-1.49 -0.81625,0 -1.06125,0.81625 -1.06125,1.49 0,0.91874 0.755,1.67374 1.8175,2.85874 1.6325,1.79625 2,3.531255 2,4.940005 0,1.67375 -1.1425,3.185 -2.89875,3.185"
   style="fill:#000000;fill-opacity:1;fill-rule:nonzero;stroke:none"
   id="path4319" /><path
   inkscape:connector-curvature="0"
   d="m 157.52375,20.95376 1.75625,0 0,13.779995 -1.75625,0 0,-13.779995 z"
   style="fill:#000000;fill-opacity:1;fill-rule:nonzero;stroke:none"
   id="path4321" /><path
   inkscape:connector-curvature="0"
   d="m 166.75125,34.734505 -2.695,-8.166255 0,8.166255 -1.75625,0 0,-13.779995 1.75625,0 2.45,6.85874 0,-6.85874 1.755,0 0,13.779995 -1.51,0 z"
   style="fill:#000000;fill-opacity:1;fill-rule:nonzero;stroke:none"
   id="path4325" /><path
   inkscape:connector-curvature="0"
   d="m 176.57087,33.386995 c -0.265,0.96 -1.205,1.5925 -2.45,1.5925 -1.40875,0 -2.225,-0.53125 -2.675,-1.8375 -0.42875,-1.26625 -0.57125,-2.51125 -0.57125,-5.328755 0,-2.755 0.16375,-3.95999 0.63375,-5.26624 0.44875,-1.24625 1.245,-1.77625 2.6125,-1.77625 1.53125,0 2.45,0.95875 2.65375,2.65375 l -1.735,0 c -0.1025,-0.5925 -0.3875,-0.8775 -0.8775,-0.8775 -0.63375,0 -1.0625,0.44875 -1.205,1.3475 -0.18375,1.12249 -0.28625,2.04124 -0.28625,3.91874 0,1.898755 0.0412,2.817505 0.225,3.981255 0.16375,0.91875 0.55125,1.38875 1.16375,1.38875 0.6325,0 0.98,-0.5725 0.98,-1.49125 l 0,-1.83625 -0.8375,0 0,-1.797505 2.5725,0 0,3.532505 c 0,0.6325 -0.0813,1.3675 -0.20375,1.79625"
   style="fill:#000000;fill-opacity:1;fill-rule:nonzero;stroke:none"
   id="path4329" /><path
   inkscape:connector-curvature="0"
   d="m 102.92099,54.944625 -1.51125,0 -1.30625,-7.7375 -1.245,7.7375 -1.51125,0 -1.5925,-13.78 1.7975,0 0.71375,6.39 1.1225,-6.39 1.49125,0 1.1225,6.39 0.715,-6.39 1.79625,0 -1.5925,13.78 z"
   style="fill:#000000;fill-opacity:1;fill-rule:nonzero;stroke:none"
   id="path4333" /><path
   inkscape:connector-curvature="0"
   d="m 108.82112,54.944625 0,-0.28625 c -0.28625,0.3275 -0.735,0.42875 -1.16375,0.42875 -1.63375,0 -2.3275,-1.95875 -2.3275,-3.53125 0,-1.40875 0.69375,-3.43 2.38875,-3.43 0.32625,0 0.65375,0.08125 0.96,0.18375 l 0,-0.71375 c 0,-0.5925 -0.0825,-1.0625 -0.77625,-1.0625 -0.735,0 -1.38875,0.8775 -1.695,1.45 l -0.42875,-2.185 c 0.53125,-0.6125 1.205,-1.16375 2.0625,-1.16375 2.0825,0 2.5725,1.87875 2.5725,3.59375 l 0,6.71625 -1.5925,0 z m -0.1425,-4.59375 c 0,-0.245 -0.5925,-0.34625 -0.77625,-0.34625 -0.755,0 -0.81625,1.08125 -0.81625,1.6125 0,0.67375 -0.0412,1.8375 0.91875,1.8375 0.59125,0 0.67375,-0.40875 0.67375,-0.91875 l 0,-2.185 z"
   style="fill:#000000;fill-opacity:1;fill-rule:nonzero;stroke:none"
   id="path4337" /><path
   inkscape:connector-curvature="0"
   d="m 115.29262,54.454505 c -0.3475,0.44875 -0.6325,0.6325 -1.02125,0.6325 -1.06125,0 -1.8375,-1.1025 -1.8375,-2.55125 l 0,-6.06375 -1.06125,0 0,-1.5925 1.06125,0 0,-2.89875 1.7975,-1.06125 0,3.96 1.20375,0 0,1.5725 -1.20375,0 0,6.08375 c 0,0.46875 0.245,0.81625 0.57125,0.81625 0.28625,0 0.42875,-0.20375 0.67375,-0.53 l -0.18375,1.6325 z"
   style="fill:#000000;fill-opacity:1;fill-rule:nonzero;stroke:none"
   id="path4341" /><path
   inkscape:connector-curvature="0"
   d="m 118.7225,55.128395 c -2.0825,0 -2.5525,-2.45 -2.5525,-5.0225 0,-2.79625 0.245,-5.47125 2.5525,-5.47125 1.3675,0 2.04125,1.0825 2.3275,2.61375 l -1.5925,0.775 c -0.0613,-0.81625 -0.245,-1.49 -0.735,-1.49 -1,0 -0.81625,2.85875 -0.81625,3.53125 0,0.63375 -0.0412,3.43 0.8775,3.43 0.3875,-0.04 0.57125,-0.81625 0.67375,-1.5925 l 1.5925,0.5725 c -0.3475,1.55125 -0.96,2.65375 -2.3275,2.65375"
   style="fill:#000000;fill-opacity:1;fill-rule:nonzero;stroke:none"
   id="path4345" /><path
   inkscape:connector-curvature="0"
   d="m 125.56151,54.944625 0,-6.92125 c 0,-0.53 0.0613,-1.5925 -0.735,-1.5925 -0.715,0 -0.67375,1.12375 -0.67375,1.5925 l 0,6.92125 -1.735,0 0,-12.96375 1.735,-1.06125 0,4.1025 c 0.28625,-0.265 0.715,-0.4075 1.1025,-0.4075 0.89875,0 2.04125,0.91875 2.04125,3.36875 l 0,6.96125 -1.735,0 z"
   style="fill:#000000;fill-opacity:1;fill-rule:nonzero;stroke:none"
   id="path4349" /><path
   inkscape:connector-curvature="0"
   d="m 138.23887,42.960765 0,3.5325 2.02125,0 0,1.83625 -2.02125,0 0,6.615 -1.75625,0 0,-13.78 5.2675,0 0,1.79625 -3.51125,0 z"
   style="fill:#000000;fill-opacity:1;fill-rule:nonzero;stroke:none"
   id="path4353" /><path
   inkscape:connector-curvature="0"
   d="m 145.48637,55.128395 c -2.0825,0 -2.6125,-2.65375 -2.6125,-5.20625 0,-2.8175 0.24375,-5.26625 2.6125,-5.26625 2.0625,0 2.45,2.3675 2.45,5.205 0,2.5725 -0.53125,5.2675 -2.45,5.2675 m 0,-8.63625 c -1.06125,0 -0.8375,2.695 -0.8375,3.36875 0,0.63375 -0.04,3.51125 0.8375,3.49125 0.77625,-0.02 0.715,-2.8175 0.715,-3.49125 0,-0.67375 0.20375,-3.36875 -0.715,-3.36875"
   style="fill:#000000;fill-opacity:1;fill-rule:nonzero;stroke:none"
   id="path4357" /><path
   inkscape:connector-curvature="0"
   d="m 153.1625,47.105255 c -0.245,-0.32625 -0.42875,-0.57125 -0.71375,-0.57125 -0.695,0 -0.98,0.71375 -0.98,1.98 l 0,6.43125 -1.73625,0 0,-10.065 1.73625,0 0,0.49 c 0.285,-0.49 0.49,-0.735 0.9175,-0.735 0.45,0 0.77625,0.30625 0.98,0.69375 l -0.20375,1.77625 z"
   style="fill:#000000;fill-opacity:1;fill-rule:nonzero;stroke:none"
   id="path4361" /><path
   inkscape:connector-curvature="0"
   d="m 107.05887,72.395874 -1.49,0 -2.47125,-13.781249 1.7975,0 1.44875,7.839999 1.40875,-7.839999 1.77625,0 -2.47,13.781249 z"
   style="fill:#000000;fill-opacity:1;fill-rule:nonzero;stroke:none"
   id="path4365" /><path
   inkscape:connector-curvature="0"
   d="m 112.326,68.373884 c 0.0413,1.94 0.28625,2.43 0.91875,2.43 0.3875,0 0.67375,-0.28625 0.96,-1.3075 l 1.1025,1.5925 c -0.3275,0.91875 -1.00125,1.49125 -1.8375,1.49125 -2.205,0 -2.83875,-2.0225 -2.83875,-5.16625 0,-3.185 0.5725,-5.3075 2.5525,-5.3075 2.51125,0 2.47,4.38875 2.42875,6.2675 l -3.28625,0 z m 0.81625,-4.38875 c -0.5925,0 -0.81625,0.6325 -0.81625,2.6125 l 1.69375,0 c 0,-2.04125 -0.305,-2.6125 -0.8775,-2.6125"
   style="fill:#000000;fill-opacity:1;fill-rule:nonzero;stroke:none"
   id="path4369" /><path
   inkscape:connector-curvature="0"
   d="m 120.28788,72.395874 0,-6.92125 c 0,-0.53 0.0613,-1.5925 -0.735,-1.5925 -0.715,0 -0.67375,1.12375 -0.67375,1.5925 l 0,6.92125 -1.735,0 0,-12.96375 1.735,-1.061249 0,4.102499 c 0.28625,-0.265 0.715,-0.4075 1.1025,-0.4075 0.89875,0 2.04125,0.91875 2.04125,3.36875 l 0,6.96125 -1.735,0 z"
   style="fill:#000000;fill-opacity:1;fill-rule:nonzero;stroke:none"
   id="path4373" /><path
   inkscape:connector-curvature="0"
   d="m 124.98337,60.207754 c -0.49,0 -0.8975,-0.3875 -0.8975,-0.89875 0,-0.489999 0.4075,-0.877499 0.8975,-0.877499 0.49,0 0.89875,0.3875 0.89875,0.877499 0,0.51125 -0.40875,0.89875 -0.89875,0.89875 m -0.8775,2.12375 1.735,0 0,10.065 -1.735,0 0,-10.065 z"
   style="fill:#000000;fill-opacity:1;fill-rule:nonzero;stroke:none"
   id="path4377" /><path
   inkscape:connector-curvature="0"
   d="m 130.23037,72.579644 c -2.0825,0 -2.5525,-2.45 -2.5525,-5.0225 0,-2.7975 0.24625,-5.47125 2.5525,-5.47125 1.3675,0 2.04125,1.0825 2.3275,2.61375 l -1.5925,0.775 c -0.0613,-0.81625 -0.245,-1.49 -0.735,-1.49 -1,0 -0.81625,2.8575 -0.81625,3.5325 0,0.6325 -0.0413,3.42875 0.8775,3.42875 0.3875,-0.04125 0.57125,-0.81625 0.67375,-1.5925 l 1.5925,0.5725 c -0.3475,1.55125 -0.96,2.65375 -2.3275,2.65375"
   style="fill:#000000;fill-opacity:1;fill-rule:nonzero;stroke:none"
   id="path4381" /><path
   inkscape:connector-curvature="0"
   d="m 133.9255,72.395874 0,-12.96375 1.735,-1.061249 0,14.024999 -1.735,0 z"
   style="fill:#000000;fill-opacity:1;fill-rule:nonzero;stroke:none"
   id="path4385" /><path
   inkscape:connector-curvature="0"
   d="m 139.15189,68.373884 c 0.0413,1.94 0.28625,2.43 0.91875,2.43 0.3875,0 0.67375,-0.28625 0.96,-1.3075 l 1.10125,1.5925 c -0.32625,0.91875 -1,1.49125 -1.83625,1.49125 -2.205,0 -2.83875,-2.0225 -2.83875,-5.16625 0,-3.185 0.5725,-5.3075 2.5525,-5.3075 2.51125,0 2.47,4.38875 2.42875,6.2675 l -3.28625,0 z m 0.81625,-4.38875 c -0.59125,0 -0.81625,0.6325 -0.81625,2.6125 l 1.69375,0 c 0,-2.04125 -0.30625,-2.6125 -0.8775,-2.6125"
   style="fill:#000000;fill-opacity:1;fill-rule:nonzero;stroke:none"
   id="path4389" /><path
   inkscape:connector-curvature="0"
   d="m 145.2355,72.579644 c -0.715,0 -1.3675,-0.18375 -1.96,-1.0625 l 0.49,-2.02 c 0.49,1.06125 0.91875,1.44875 1.40875,1.44875 0.6125,0 0.8575,-0.42875 0.8575,-1.265 0,-0.38875 -0.28625,-1.38875 -1.205,-2.12375 -1.02,-0.81625 -1.55125,-1.49 -1.55125,-2.94 0,-1.3475 0.69375,-2.53125 2.0625,-2.53125 0.755,0 1.3675,0.3875 2.06125,1.225 l -0.53,1.8375 c -0.63375,-1.1225 -0.91875,-1.45 -1.36875,-1.45 -0.32625,0 -0.53,0.42875 -0.53,0.8575 0,0.89875 0.93875,1.65375 1.51,2.225 0.8175,0.8575 1.24625,1.8375 1.24625,2.96125 0,1.775 -1.04125,2.8375 -2.49125,2.8375"
   style="fill:#000000;fill-opacity:1;fill-rule:nonzero;stroke:none"
   id="path4393" /><path
   inkscape:connector-curvature="0"
   d="m 84.649,104.64789 0,3.5325 2.02125,0 0,1.83625 -2.02125,0 0,6.615 -1.75625,0 0,-13.78 5.2675,0 0,1.79625 -3.51125,0 z"
   style="fill:#000000;fill-opacity:1;fill-rule:nonzero;stroke:none"
   id="path4397" /><path
   inkscape:connector-curvature="0"
   d="m 90.59,104.44387 c -0.49,0 -0.89875,-0.3875 -0.89875,-0.8975 0,-0.49125 0.40875,-0.87875 0.89875,-0.87875 0.49,0 0.8975,0.3875 0.8975,0.87875 0,0.51 -0.4075,0.8975 -0.8975,0.8975 m -0.8775,2.1225 1.735,0 0,10.065 -1.735,0 0,-10.065 z"
   style="fill:#000000;fill-opacity:1;fill-rule:nonzero;stroke:none"
   id="path4401" /><path
   inkscape:connector-curvature="0"
   d="m 135.3835,108.79239 c -0.245,-0.32625 -0.42875,-0.57125 -0.71375,-0.57125 -0.695,0 -0.98,0.71375 -0.98,1.98 l 0,6.43125 -1.73625,0 0,-10.065 1.73625,0 0,0.49 c 0.285,-0.49 0.49,-0.735 0.9175,-0.735 0.45,0 0.77625,0.30625 0.98,0.69375 l -0.20375,1.77625 z"
   style="fill:#000000;fill-opacity:1;fill-rule:nonzero;stroke:none"
   id="path4425" /><path
   inkscape:connector-curvature="0"
   d="m 144.67262,116.81587 c -0.715,0 -1.3675,-0.18375 -1.96,-1.06125 l 0.49,-2.02125 c 0.49,1.06125 0.91875,1.44875 1.40875,1.44875 0.6125,0 0.8575,-0.42875 0.8575,-1.265 0,-0.38875 -0.28625,-1.38875 -1.205,-2.12375 -1.02,-0.81625 -1.55125,-1.49 -1.55125,-2.94 0,-1.3475 0.69375,-2.53125 2.06125,-2.53125 0.75625,0 1.36875,0.3875 2.0625,1.225 l -0.53125,1.8375 c -0.6325,-1.1225 -0.91875,-1.45 -1.3675,-1.45 -0.32625,0 -0.53,0.42875 -0.53,0.8575 0,0.89875 0.93875,1.65375 1.51,2.22625 0.8175,0.85625 1.245,1.83625 1.245,2.96 0,1.77625 -1.04,2.8375 -2.49,2.8375"
   style="fill:#000000;fill-opacity:1;fill-rule:nonzero;stroke:none"
   id="path4433" /><path
   inkscape:connector-curvature="0"
   d="m 149.81737,116.81587 c -0.715,0 -1.3675,-0.18375 -1.96,-1.06125 l 0.49,-2.02125 c 0.49,1.06125 0.91875,1.44875 1.40875,1.44875 0.6125,0 0.8575,-0.42875 0.8575,-1.265 0,-0.38875 -0.28625,-1.38875 -1.205,-2.12375 -1.02,-0.81625 -1.55125,-1.49 -1.55125,-2.94 0,-1.3475 0.69375,-2.53125 2.0625,-2.53125 0.755,0 1.3675,0.3875 2.06125,1.225 l -0.53125,1.8375 c -0.6325,-1.1225 -0.91875,-1.45 -1.3675,-1.45 -0.32625,0 -0.53,0.42875 -0.53,0.8575 0,0.89875 0.93875,1.65375 1.51,2.22625 0.8175,0.85625 1.245,1.83625 1.245,2.96 0,1.77625 -1.04,2.8375 -2.49,2.8375"
   style="fill:#000000;fill-opacity:1;fill-rule:nonzero;stroke:none"
   id="path4437" /><path
   inkscape:connector-curvature="0"
   d="m 92.18237,95.753504 c -0.3875,0.42875 -1.06125,0.67375 -1.8375,0.67375 l -2.8575,0 0,-13.78 2.8575,0 c 0.96,0 1.65375,0.34625 2.0825,1.02 0.32625,0.53125 0.5925,1.45 0.715,2.3075 0.1625,1.1225 0.30625,2.3675 0.30625,3.53125 0,3.24625 -0.45,5.32875 -1.26625,6.2475 m -0.67375,-9.33 c -0.1225,-1.51125 -0.42875,-1.98 -1.16375,-1.98 l -1.1025,0 0,10.1875 1.1025,0 c 0.63375,0 0.96,-0.42875 1.16375,-1.45 0.0412,-0.47 0.1425,-2.02125 0.1425,-3.225 0,-1.02125 -0.0613,-2.5725 -0.1425,-3.5325"
   style="fill:#000000;fill-opacity:1;fill-rule:nonzero;stroke:none"
   id="path4487" /><path
   inkscape:connector-curvature="0"
   d="m 98.83787,96.672254 c -3.43,0 -3.185,-4.87875 -3.185,-7.16625 0,-2.3675 -0.18375,-7.0425 3.185,-7.0425 3.38875,0 3.205,4.73625 3.205,7.0425 0,2.2875 0.18375,7.16625 -3.205,7.16625 m 0,-12.4325 c -1.5925,0 -1.38875,4.3075 -1.38875,5.26625 0,0.91875 -0.20375,5.37 1.38875,5.37 1.55125,0 1.3675,-4.45125 1.3675,-5.37 0,-1.1025 -0.0613,-5.26625 -1.3675,-5.26625"
   style="fill:#000000;fill-opacity:1;fill-rule:nonzero;stroke:none"
   id="path4491" /><path
   inkscape:connector-curvature="0"
   d="m 109.10675,96.427254 -2.695,-8.16625 0,8.16625 -1.75625,0 0,-13.78 1.75625,0 2.45,6.85875 0,-6.85875 1.755,0 0,13.78 -1.51,0 z"
   style="fill:#000000;fill-opacity:1;fill-rule:nonzero;stroke:none"
   id="path4495" /><path
   inkscape:connector-curvature="0"
   d="m 114.14911,86.216754 -0.53,-0.42875 c 0.34625,-0.28625 0.6725,-0.735 0.775,-1.06125 l -0.1425,0 c -0.5925,0 -1.02125,-0.38875 -1.02125,-1.02125 0,-0.53 0.42875,-1.02 1.02125,-1.02 0.6325,0 1.06125,0.49 1.06125,1.1625 0,0.87875 -0.42875,1.7975 -1.16375,2.36875"
   style="fill:#000000;fill-opacity:1;fill-rule:nonzero;stroke:none"
   id="path4499" /><path
   inkscape:connector-curvature="0"
   d="m 120.25324,84.443374 0,11.98375 -1.735,0 0,-11.98375 -1.695,0 0,-1.79625 5.22625,0 0,1.79625 -1.79625,0 z"
   style="fill:#000000;fill-opacity:1;fill-rule:nonzero;stroke:none"
   id="path4503" /><path
   inkscape:connector-curvature="0"
   d="m 132.44112,96.672254 c -2.225,0 -2.96,-1.695 -3.04125,-3.675 l 1.775,0 c 0,0.81625 0.24625,1.87875 1.26625,1.87875 0.79625,0 1.1025,-0.695 1.1025,-1.38875 0,-1.47 -0.55125,-2.3675 -1.6125,-3.63375 -1.0825,-1.28625 -2.205,-2.36875 -2.205,-4.165 0,-1.65375 1,-3.225 2.8175,-3.225 2,0 2.63375,1.49 2.79625,3.225 l -1.79625,0 c -0.02,-0.6525 -0.1425,-1.49 -0.96,-1.49 -0.81625,0 -1.06125,0.81625 -1.06125,1.49 0,0.91875 0.755,1.67375 1.8175,2.85875 1.6325,1.79625 2,3.53125 2,4.94 0,1.67375 -1.1425,3.185 -2.89875,3.185"
   style="fill:#000000;fill-opacity:1;fill-rule:nonzero;stroke:none"
   id="path4507" /><path
   inkscape:connector-curvature="0"
   d="m 139.87239,84.443374 0,11.98375 -1.735,0 0,-11.98375 -1.695,0 0,-1.79625 5.22625,0 0,1.79625 -1.79625,0 z"
   style="fill:#000000;fill-opacity:1;fill-rule:nonzero;stroke:none"
   id="path4511" /><path
   inkscape:connector-curvature="0"
   d="m 148.09961,96.427254 -0.77625,-3.675 -2.265,0 -0.77625,3.675 -1.79625,0 2.8175,-13.78 1.77625,0 2.8575,13.78 -1.8375,0 z m -1.87875,-9.085 -0.775,3.61375 1.49,0 -0.715,-3.61375 z"
   style="fill:#000000;fill-opacity:1;fill-rule:nonzero;stroke:none"
   id="path4515" /><path
   inkscape:connector-curvature="0"
   d="m 156.36799,89.567514 1.38875,6.86 -1.77625,0 -1.55125,-6.43125 -0.8175,0 0,6.43125 -1.755,0 0,-13.78125 2.715,0 c 2.1225,0 3.24625,1.3075 3.24625,3.85875 0,1.55125 -0.45,2.43 -1.45,3.0625 m -1.89875,-5.12375 -0.8575,0 0,3.75625 1.14375,0 c 0.98,0 1.265,-0.42875 1.265,-1.735 0,-1.5525 -0.34625,-2.02125 -1.55125,-2.02125"
   style="fill:#000000;fill-opacity:1;fill-rule:nonzero;stroke:none"
   id="path4519" /><path
   inkscape:connector-curvature="0"
   d="m 162.32926,84.443374 0,11.98375 -1.735,0 0,-11.98375 -1.695,0 0,-1.79625 5.22625,0 0,1.79625 -1.79625,0 z"
   style="fill:#000000;fill-opacity:1;fill-rule:nonzero;stroke:none"
   id="path4523" /><path
   inkscape:connector-curvature="0"
   d="m 164.12625,98.490004 -76.98,0 0,1.837496 76.98,0 0,-1.837496 z"
   style="fill:#000000;fill-opacity:1;fill-rule:nonzero;stroke:none"
   id="path4525" /><path
   inkscape:connector-curvature="0"
   d="m 34.19,90.797504 28.4825,0 0,34.448756 -28.4825,0 0,-34.448756 z"
   style="fill:#000000;fill-opacity:1;fill-rule:evenodd;stroke:none"
   id="path4635" /><path
   inkscape:connector-curvature="0"
   d="m 28.6105,130.16101 0.76625,0.74125 4.21,-4.085 -0.76375,-0.73375 -4.2125,4.0775 z m 3.43375,-13.93876 -5.39875,2.43875 0.45625,0.94625 5.39875,-2.43625 -0.45625,-0.94875 z m -3.43375,-30.284996 4.2125,4.08 0.76375,-0.74125 -4.21,-4.08 -0.76625,0.74125 z m 36.395,13.8525 5.4025,-2.43625 -0.465,-0.94875 -5.39375,2.43875 0.45625,0.94625 z m 3.59125,-13.89625 -0.755,-0.75375 -4.2875,4.00125 0.7575,0.75375 4.285,-4.00125 z m -36.09625,12.95 -5.39875,-2.43875 -0.45625,0.94875 5.39875,2.43625 0.45625,-0.94625 z m 15.34625,-9.305 1.09,0 0,-5.765 -1.09,0 0,5.765 z m 15.7075,37.416256 4.2875,4.00625 0.755,-0.75875 -4.285,-4.00125 -0.7575,0.75375 z m 0.995,-9.78376 5.39375,2.43625 0.465,-0.94625 -5.4025,-2.43875 -0.45625,0.94875 z m -0.0538,-9.0325 5.96,0 0,-1.0475 -5.96,0 0,1.0475 z m -25.975,-23.873746 2.5175,5.22125 0.98,-0.44125 -2.51875,-5.2275 -0.97875,0.4475 z m 16.2425,4.78 0.98375,0.44125 2.51375,-5.22125 -0.98375,-0.4475 -2.51375,5.2275 z m -22.3475,18.044996 -5.955,0 0,1.0475 5.955,0 0,-1.0475 z"
   style="fill:#000000;fill-opacity:1;fill-rule:evenodd;stroke:none"
   id="path4643" /><path
   inkscape:connector-curvature="0"
   d="m 35.73025,127.47276 0,1.64875 0.94375,0 0,0.8575 -0.94375,0 0,3.0875 -0.82,0 0,-6.4325 2.45875,0 0,0.83875 -1.63875,0 z"
   style="fill:#000000;fill-opacity:1;fill-rule:nonzero;stroke:none"
   id="path4647" /><path
   inkscape:connector-curvature="0"
   d="m 38.27425,133.06588 0,-6.43125 0.82,0 0,5.6875 1.63875,0 0,0.74375 -2.45875,0 z"
   style="fill:#000000;fill-opacity:1;fill-rule:nonzero;stroke:none"
   id="path4651" /><path
   inkscape:connector-curvature="0"
   d="m 43.74364,133.06588 -0.3625,-1.715 -1.0575,0 -0.3625,1.715 -0.8375,0 1.315,-6.43125 0.82875,0 1.33375,6.43125 -0.8575,0 z m -0.87625,-4.24 -0.3625,1.68625 0.695,0 -0.3325,-1.68625 z"
   style="fill:#000000;fill-opacity:1;fill-rule:nonzero;stroke:none"
   id="path4655" /><path
   inkscape:connector-curvature="0"
   d="m 46.5355,133.18026 c -1.03875,0 -1.38125,-0.79125 -1.42,-1.715 l 0.82875,0 c 0,0.38125 0.115,0.87625 0.59125,0.87625 0.37125,0 0.515,-0.32375 0.515,-0.6475 0,-0.68625 -0.2575,-1.105 -0.75375,-1.69625 -0.505,-0.6 -1.02875,-1.105 -1.02875,-1.94375 0,-0.7725 0.4675,-1.505 1.315,-1.505 0.93375,0 1.22875,0.695 1.305,1.505 l -0.8375,0 c -0.01,-0.305 -0.0675,-0.695 -0.44875,-0.695 -0.38125,0 -0.495,0.38 -0.495,0.695 0,0.42875 0.3525,0.78125 0.8475,1.33375 0.7625,0.83875 0.93375,1.64875 0.93375,2.30625 0,0.78125 -0.5325,1.48625 -1.3525,1.48625"
   style="fill:#000000;fill-opacity:1;fill-rule:nonzero;stroke:none"
   id="path4659" /><path
   inkscape:connector-curvature="0"
   d="m 50.88038,133.06588 0,-3.00125 -1.14375,0 0,3.00125 -0.81875,0 0,-6.43125 0.81875,0 0,2.59125 1.14375,0 0,-2.59125 0.81875,0 0,6.43125 -0.81875,0 z"
   style="fill:#000000;fill-opacity:1;fill-rule:nonzero;stroke:none"
   id="path4663" /><path
   inkscape:connector-curvature="0"
   d="m 53.11,126.63376 0.82,0 0,6.43125 -0.82,0 0,-6.43125 z"
   style="fill:#000000;fill-opacity:1;fill-rule:nonzero;stroke:none"
   id="path4665" /><path
   inkscape:connector-curvature="0"
   d="m 57.41664,133.06588 -1.2575,-3.81125 0,3.81125 -0.82,0 0,-6.43125 0.82,0 1.1425,3.20125 0,-3.20125 0.82,0 0,6.43125 -0.705,0 z"
   style="fill:#000000;fill-opacity:1;fill-rule:nonzero;stroke:none"
   id="path4669" /><path
   inkscape:connector-curvature="0"
   d="m 61.99962,132.43715 c -0.12375,0.4475 -0.5625,0.74375 -1.14375,0.74375 -0.6575,0 -1.03875,-0.24875 -1.2475,-0.85875 -0.2,-0.59 -0.2675,-1.17125 -0.2675,-2.48625 0,-1.28625 0.0763,-1.84875 0.29625,-2.45875 0.20875,-0.58125 0.58125,-0.82875 1.21875,-0.82875 0.715,0 1.14375,0.4475 1.23875,1.23875 l -0.81,0 c -0.0475,-0.27625 -0.18125,-0.41 -0.40875,-0.41 -0.29625,0 -0.49625,0.21 -0.5625,0.62875 -0.0862,0.525 -0.13375,0.95375 -0.13375,1.83 0,0.88625 0.0188,1.315 0.105,1.8575 0.0763,0.42875 0.2575,0.64875 0.5425,0.64875 0.29625,0 0.4575,-0.2675 0.4575,-0.69625 l 0,-0.8575 -0.39,0 0,-0.83875 1.2,0 0,1.64875 c 0,0.295 -0.0375,0.63875 -0.095,0.83875"
   style="fill:#000000;fill-opacity:1;fill-rule:nonzero;stroke:none"
   id="path4673" /><path
   inkscape:connector-curvature="0"
   d="m 50.12086,31.978135 c -1.18375,0 -2.1525,0.96875 -2.1525,2.1525 0,1.18 0.96875,2.14875 2.1525,2.14875 1.18125,0 2.1525,-0.96875 2.1525,-2.14875 0,-1.18375 -0.97125,-2.1525 -2.1525,-2.1525 m 6.51375,13.5625 -4.51125,-3.00625 c -0.20875,-0.8775 -1.0775,-4.79625 -2.80625,-5.7 -1.72625,-1.14 -8.0625,3.53 -8.1025,3.57 l 0,6.81 1.37625,-0.2375 0.53625,-5.4325 c 0.52375,-0.115 1.0375,-0.21125 1.555,-0.3175 -1.1275,2.9275 -1.54875,5.74375 -0.895,7.6075 l -2.75,11.22625 1.85375,1.31125 4.00625,-10.38875 1.85,1.96875 2.56625,7.825 2.4525,-0.8975 -2.20875,-8.2425 -2.57,-4.5975 0.9775,-3.395 1.05375,1.36125 4.9,1.6075 0.71625,-1.0725"
   style="fill:#ffffff;fill-opacity:1;fill-rule:evenodd;stroke:none"
   id="path4273" /><path
   inkscape:connector-curvature="0"
   d="m 42.32563,123.69215 c 0.28375,-0.34125 0.61,-0.715 0.64,-1.335 l 0,-4.47375 c 0,-1.95125 -0.655,-2.28625 -1.2975,-2.87875 -1.0625,-0.9875 -0.905,-2.3925 -0.84125,-4.19375 0.16375,-5.01125 0.35125,-8.02625 0.36875,-12.703746 0.005,-0.59625 0.49,-1.09 1.08375,-1.09 0.59875,0 1.0825,0.49375 1.0825,1.09 l 0.37375,7.592496 0.49125,-0.0113 c 0.0813,-3.47 0.24,-6.968746 0.24,-10.437496 0,-0.59875 0.48125,-1.08375 1.08,-1.08375 0.59625,0 1.08125,0.485 1.08125,1.08375 l 0,0.02625 0.1575,10.416246 0.49625,0 c 0.1425,-3.9275 0.42,-7.942496 0.42,-11.867496 0,-0.59625 0.49125,-1.08125 1.08375,-1.08125 0.59875,0 1.08625,0.485 1.08625,1.08125 l 0,0.01125 0.23375,11.856246 0.65125,0 c 0.0412,-3.4975 0.0788,-6.996246 0.1175,-10.501246 0.0263,-0.5725 0.5075,-1.025 1.08,-1.025 0.58375,0 1.075,0.47 1.08625,1.06 l 0.535,13.964996 c -0.006,0.2575 0.225,0.45 0.48125,0.45 0.14875,0 0.485,-0.105 0.7425,-0.5025 l 2.4475,-3.545 c 0.92875,-1.3025 2.16375,-1.56 3.60875,-1.01 -0.89,1.6875 -2.75125,5.8525 -4.63125,8.19375 -0.9875,1.54875 -4.31625,3.10125 -4.31625,5.1 l 0,4.07875 c 0,0.83875 0.82375,1.79 0.79375,1.735 l -10.37625,0"
   style="fill:#f48412;fill-opacity:1;fill-rule:evenodd;stroke:none"
   id="path4639" /><path
   inkscape:connector-curvature="0"
   d="m 42.32563,187.09901 c 0.28375,-0.34125 0.61,-0.715 0.64,-1.33375 l 0,-4.475 c 0,-1.95125 -0.655,-2.28625 -1.2975,-2.87875 -1.0625,-0.9875 -0.905,-2.3925 -0.84125,-4.19375 0.16375,-5.01125 0.35125,-8.02625 0.36875,-12.70375 0.005,-0.59625 0.49,-1.09 1.08375,-1.09 0.59875,0 1.0825,0.49375 1.0825,1.09 l 0.37375,7.5925 0.49125,-0.0112 c 0.0813,-3.47 0.24,-6.96875 0.24,-10.4375 0,-0.59875 0.48125,-1.08375 1.08,-1.08375 0.59625,0 1.08125,0.485 1.08125,1.08375 l 0,0.0262 0.1575,10.4175 0.49625,0 c 0.1425,-3.92875 0.42,-7.94375 0.42,-11.86875 0,-0.59625 0.49125,-1.08125 1.08375,-1.08125 0.59875,0 1.08625,0.485 1.08625,1.08125 l 0,0.0112 0.23375,11.8575 0.65125,0 c 0.0412,-3.5 0.0788,-6.9975 0.1175,-10.5025 0.0263,-0.5725 0.5075,-1.025 1.08,-1.025 0.58375,0 1.075,0.47 1.08625,1.06 l 0.535,13.965 c -0.006,0.2575 0.225,0.45 0.48125,0.45 0.14875,0 0.485,-0.105 0.7425,-0.5025 l 2.4475,-3.545 c 0.92875,-1.3025 2.16375,-1.56 3.60875,-1.01 -0.89,1.6875 -2.75125,5.8525 -4.63125,8.19375 -0.9875,1.54875 -4.31625,3.10125 -4.31625,5.09875 l 0,4.08 c 0,0.83875 0.82375,1.79 0.79375,1.735 l -10.37625,0"
   style="fill:#f48412;fill-opacity:1;fill-rule:evenodd;stroke:none"
   id="path4679" /></svg>