<?xml version="1.0" encoding="UTF-8" standalone="no"?>
<!-- Generator: Adobe Illustrator 12.0.1, SVG Export Plug-In  -->

<svg
   xmlns:dc="http://purl.org/dc/elements/1.1/"
   xmlns:cc="http://creativecommons.org/ns#"
   xmlns:rdf="http://www.w3.org/1999/02/22-rdf-syntax-ns#"
   xmlns:svg="http://www.w3.org/2000/svg"
   xmlns="http://www.w3.org/2000/svg"
   xmlns:sodipodi="http://sodipodi.sourceforge.net/DTD/sodipodi-0.dtd"
   xmlns:inkscape="http://www.inkscape.org/namespaces/inkscape"
   version="1.1"
   width="208.46875"
   height="277.4375"
   viewBox="-1 0 208.46875 277.4375"
   enable-background="new -1 0 289 288"
   xml:space="preserve"
   id="svg2"
   inkscape:version="0.48.2 r9819"
   sodipodi:docname="MUTCD R10-4b.svg"><metadata
   id="metadata22"><rdf:RDF><cc:Work
       rdf:about=""><dc:format>image/svg+xml</dc:format><dc:type
         rdf:resource="http://purl.org/dc/dcmitype/StillImage" /><dc:title></dc:title></cc:Work></rdf:RDF></metadata><sodipodi:namedview
   pagecolor="#ffffff"
   bordercolor="#666666"
   borderopacity="1"
   objecttolerance="10"
   gridtolerance="10"
   guidetolerance="10"
   inkscape:pageopacity="0"
   inkscape:pageshadow="2"
   inkscape:window-width="1280"
   inkscape:window-height="1004"
   id="namedview20"
   showgrid="false"
   fit-margin-top="0"
   fit-margin-left="0"
   fit-margin-right="0"
   fit-margin-bottom="0"
   inkscape:zoom="1.638889"
   inkscape:cx="62.31543"
   inkscape:cy="103.55101"
   inkscape:window-x="-8"
   inkscape:window-y="-8"
   inkscape:window-maximized="1"
   inkscape:current-layer="svg2"
   showguides="true"
   inkscape:guide-bbox="true" />
<defs
   id="defs4">
</defs>







<path
   inkscape:connector-curvature="0"
   d="m 206.70763,259.43036 c 0,9.485 -7.76,17.24625 -17.24625,17.24625 l -172.45625,0 c -9.485,0 -17.245,-7.76125 -17.245,-17.24625 l 0,-241.43875 c 0,-9.485 7.76,-17.24625 17.245,-17.24625 l 172.45625,0 c 9.48625,0 17.24625,7.76125 17.24625,17.24625 l 0,241.43875 z"
   style="fill:#ffffff;fill-opacity:1;fill-rule:nonzero;stroke:#000000;stroke-width:1.5;stroke-miterlimit:4;stroke-opacity:1;stroke-dasharray:none"
   id="path8838" /><path
   inkscape:connector-curvature="0"
   d="m 189.46201,5.05676 -172.45625,0 c -7.11375,0 -12.935,5.82 -12.935,12.93375 l 0,241.44 c 0,7.11375 5.82125,12.93375 12.935,12.93375 l 172.45625,0 c 7.11375,0 12.93375,-5.82 12.93375,-12.93375 l 0,-241.44 c 0,-7.11375 -5.82,-12.93375 -12.93375,-12.93375 m 5.74875,254.37375 c 0,3.16125 -2.5875,5.74875 -5.74875,5.74875 l -172.45625,0 c -3.1625,0 -5.74875,-2.5875 -5.74875,-5.74875 l 0,-241.44 c 0,-3.16125 2.58625,-5.7475 5.74875,-5.7475 l 172.45625,0 c 3.16125,0 5.74875,2.58625 5.74875,5.7475 l 0,241.44 z"
   style="fill:#000000;fill-opacity:1;fill-rule:nonzero;stroke:none"
   id="path8846" /><path
   inkscape:connector-curvature="0"
   d="m 26.70602,69.72925 0,-34.49375 4.95625,0 0,29.895 12.6225,0 0,4.59875 -17.57875,0 z"
   style="fill:#000000;fill-opacity:1;fill-rule:nonzero;stroke:none"
   id="path8850" /><path
   inkscape:connector-curvature="0"
   d="m 49.08812,69.72925 0,-34.49375 16.25,0 0,4.855 -11.2925,0 0,8.6875 7.15375,0 0,4.7525 -7.15375,0 0,11.34375 12.62125,0 0,4.855 -17.57875,0 z"
   style="fill:#000000;fill-opacity:1;fill-rule:nonzero;stroke:none"
   id="path8854" /><path
   inkscape:connector-curvature="0"
   d="m 77.44963,40.09011 0,8.6875 6.89875,0 0,4.7525 -6.89875,0 0,16.19875 -4.9575,0 0,-34.49375 17.58,0 0,4.855 -12.6225,0 z"
   style="fill:#000000;fill-opacity:1;fill-rule:nonzero;stroke:none"
   id="path8858" /><path
   inkscape:connector-curvature="0"
   d="m 103.40901,39.83474 0,29.895 -5.0075,0 0,-29.895 -6.28625,0 0,-4.59875 17.57875,0 0,4.59875 -6.285,0 z"
   style="fill:#000000;fill-opacity:1;fill-rule:nonzero;stroke:none"
   id="path8862" /><path
   inkscape:connector-curvature="0"
   d="m 151.55312,64.41475 c -1.7375,4.08875 -4.24125,5.9275 -8.07375,5.9275 -4.14,0 -6.54125,-1.83875 -8.2275,-5.9275 -1.43125,-3.42375 -1.9425,-6.64375 -1.9425,-12.00875 0,-5.2125 0.46,-8.6875 1.9425,-11.9575 1.78875,-4.14 4.24125,-5.82625 8.2275,-5.82625 3.985,0 6.33625,1.7375 8.07375,5.9275 1.43125,3.42375 1.94125,6.64375 1.94125,11.85625 0,5.365 -0.51,8.6875 -1.94125,12.00875 M 147.72062,43.821 c -0.86875,-3.015 -2.1975,-4.34375 -4.24125,-4.34375 -2.1975,0 -3.475,1.32875 -4.395,4.24125 -0.76625,2.6575 -1.07375,4.9575 -1.07375,8.84125 0,3.73 0.3075,5.9275 1.07375,8.68625 0.8175,2.91375 2.1975,4.2425 4.395,4.2425 2.04375,0 3.3725,-1.32875 4.24125,-4.2425 0.8175,-2.75875 1.0725,-4.85375 1.0725,-8.84 0,-3.8325 -0.3575,-6.03 -1.0725,-8.585"
   style="fill:#000000;fill-opacity:1;fill-rule:nonzero;stroke:none"
   id="path8866" /><path
   inkscape:connector-curvature="0"
   d="m 176.0309,69.72925 -10.68,-23.0975 0,23.0975 -4.9575,0 0,-34.49375 4.9575,0 9.45375,20.69625 0,-20.69625 4.95625,0 0,34.49375 -3.73,0 z"
   style="fill:#000000;fill-opacity:1;fill-rule:nonzero;stroke:none"
   id="path8870" /><path
   inkscape:connector-curvature="0"
   d="m 62.71051,122.97338 c -1.38,3.015 -4.08875,4.855 -7.61375,4.855 -4.08875,0 -7.155,-2.04375 -8.84125,-5.92875 -1.0725,-2.555 -1.78875,-7.40875 -1.78875,-11.855 0,-4.855 0.40875,-8.33 1.585,-11.65125 1.22625,-3.5775 4.70125,-6.285 8.68625,-6.285 4.9575,0 8.73875,3.6275 8.94375,8.7375 l -4.9575,0 c -0.1025,-2.29875 -1.68625,-3.88375 -4.0875,-3.88375 -1.68625,0 -3.015,0.86875 -3.88375,2.555 -0.92,1.68625 -1.585,5.57 -1.585,9.65875 0,2.9125 0.205,5.9275 0.71625,8.585 0.715,3.42375 2.4525,5.2125 5.11,5.2125 2.555,0 3.73,-1.68625 3.73,-5.315 l 0,-2.29875 -3.88375,0 0,-4.855 8.84125,0 0,7.15375 c 0,2.4025 -0.25625,3.8325 -0.97125,5.315"
   style="fill:#000000;fill-opacity:1;fill-rule:nonzero;stroke:none"
   id="path8874" /><path
   inkscape:connector-curvature="0"
   d="m 84.88826,127.21475 -4.59875,-16.19875 -4.7525,0 0,16.19875 -4.9575,0 0,-34.49375 10.3225,0 c 5.4175,0 9.045,3.62875 9.045,9.19875 0,4.13875 -1.68625,7.15375 -4.95625,8.32875 l 4.95625,16.96625 -5.05875,0 z M 80.64701,97.576 l -5.11,0 0,8.6875 5.11,0 c 2.9125,0 4.445,-1.585 4.445,-4.34375 0,-2.6575 -1.7875,-4.34375 -4.445,-4.34375"
   style="fill:#000000;fill-opacity:1;fill-rule:nonzero;stroke:none"
   id="path8878" /><path
   inkscape:connector-curvature="0"
   d="m 95.82363,127.21475 0,-34.49375 16.25,0 0,4.855 -11.2925,0 0,8.6875 7.15375,0 0,4.7525 -7.15375,0 0,11.34375 12.62125,0 0,4.855 -17.57875,0 z"
   style="fill:#000000;fill-opacity:1;fill-rule:nonzero;stroke:none"
   id="path8882" /><path
   inkscape:connector-curvature="0"
   d="m 119.22801,127.21475 0,-34.49375 16.25,0 0,4.855 -11.29375,0 0,8.6875 7.155,0 0,4.7525 -7.155,0 0,11.34375 12.6225,0 0,4.855 -17.57875,0 z"
   style="fill:#000000;fill-opacity:1;fill-rule:nonzero;stroke:none"
   id="path8886" /><path
   inkscape:connector-curvature="0"
   d="m 158.26976,127.21475 -10.68,-23.0975 0,23.0975 -4.9575,0 0,-34.49375 4.9575,0 9.45375,20.69625 0,-20.69625 4.95625,0 0,34.49375 -3.73,0 z"
   style="fill:#000000;fill-opacity:1;fill-rule:nonzero;stroke:none"
   id="path8890" /><path
   inkscape:connector-curvature="0"
   d="m 56.70602,184.70037 -2.40125,-9.45375 -7.41,0 -2.3,9.45375 -4.95625,0 8.585,-34.49375 4.85375,0 8.58625,34.49375 -4.9575,0 z m -6.18375,-24.2225 -2.40125,9.965 4.95625,0 -2.555,-9.965 z"
   style="fill:#000000;fill-opacity:1;fill-rule:nonzero;stroke:none"
   id="path8894" /><path
   inkscape:connector-curvature="0"
   d="m 80.82551,184.70037 -4.59875,-16.2 -4.7525,0 0,16.2 -4.9575,0 0,-34.49375 10.3225,0 c 5.4175,0 9.045,3.62875 9.045,9.19875 0,4.13875 -1.68625,7.15375 -4.95625,8.32875 l 4.95625,16.96625 -5.05875,0 z m -4.24125,-29.63875 -5.11,0 0,8.6875 5.11,0 c 2.9125,0 4.44625,-1.585 4.44625,-4.34375 0,-2.6575 -1.78875,-4.34375 -4.44625,-4.34375"
   style="fill:#000000;fill-opacity:1;fill-rule:nonzero;stroke:none"
   id="path8898" /><path
   inkscape:connector-curvature="0"
   d="m 106.06938,184.70037 -4.59875,-16.2 -4.7525,0 0,16.2 -4.9575,0 0,-34.49375 10.3225,0 c 5.4175,0 9.045,3.62875 9.045,9.19875 0,4.13875 -1.68625,7.15375 -4.95625,8.32875 l 4.95625,16.96625 -5.05875,0 z m -4.24125,-29.63875 -5.11,0 0,8.6875 5.11,0 c 2.9125,0 4.44625,-1.585 4.44625,-4.34375 0,-2.6575 -1.78875,-4.34375 -4.44625,-4.34375"
   style="fill:#000000;fill-opacity:1;fill-rule:nonzero;stroke:none"
   id="path8902" /><path
   inkscape:connector-curvature="0"
   d="m 134.58389,179.38562 c -1.7375,4.08875 -4.24125,5.9275 -8.07375,5.9275 -4.14,0 -6.54125,-1.83875 -8.2275,-5.9275 -1.43125,-3.42375 -1.9425,-6.64375 -1.9425,-12.00875 0,-5.2125 0.46,-8.6875 1.9425,-11.9575 1.78875,-4.14 4.24125,-5.82625 8.2275,-5.82625 3.98625,0 6.33625,1.7375 8.07375,5.9275 1.43125,3.425 1.9425,6.64375 1.9425,11.85625 0,5.365 -0.51125,8.6875 -1.9425,12.00875 m -3.8325,-20.59375 c -0.86875,-3.015 -2.1975,-4.34375 -4.24125,-4.34375 -2.1975,0 -3.475,1.32875 -4.395,4.24125 -0.76625,2.6575 -1.07375,4.9575 -1.07375,8.84 0,3.73125 0.3075,5.92875 1.07375,8.6875 0.8175,2.91375 2.1975,4.2425 4.395,4.2425 2.04375,0 3.3725,-1.32875 4.24125,-4.2425 0.8175,-2.75875 1.0725,-4.85375 1.0725,-8.84 0,-3.8325 -0.3575,-6.03 -1.0725,-8.585"
   style="fill:#000000;fill-opacity:1;fill-rule:nonzero;stroke:none"
   id="path8906" /><path
   inkscape:connector-curvature="0"
   d="m 161.25926,184.70037 -4.24125,0 -3.27125,-18.03875 -3.27,18.03875 -4.34375,0 -5.4675,-34.49375 4.85375,0 2.91375,18.39625 3.3725,-18.39625 3.88375,0 3.27,18.39625 3.015,-18.39625 4.855,0 -5.57,34.49375 z"
   style="fill:#000000;fill-opacity:1;fill-rule:nonzero;stroke:none"
   id="path8910" /><path
   inkscape:connector-curvature="0"
   d="m 73.64588,236.8715 c -1.7375,4.0875 -4.24125,5.9275 -8.07375,5.9275 -4.14,0 -6.54125,-1.84 -8.2275,-5.9275 -1.43125,-3.42375 -1.9425,-6.64375 -1.9425,-12.00875 0,-5.2125 0.46,-8.6875 1.9425,-11.95875 1.78875,-4.13875 4.24125,-5.825 8.2275,-5.825 3.98625,0 6.33625,1.7375 8.07375,5.9275 1.43125,3.42375 1.94125,6.64375 1.94125,11.85625 0,5.365 -0.51,8.6875 -1.94125,12.00875 m -3.8325,-20.59375 c -0.86875,-3.015 -2.1975,-4.34375 -4.24125,-4.34375 -2.1975,0 -3.475,1.32875 -4.395,4.24125 -0.76625,2.6575 -1.07375,4.95625 -1.07375,8.84 0,3.73125 0.3075,5.92875 1.07375,8.6875 0.8175,2.9125 2.1975,4.24125 4.395,4.24125 2.04375,0 3.3725,-1.32875 4.24125,-4.24125 0.8175,-2.75875 1.0725,-4.85375 1.0725,-8.84 0,-3.83375 -0.3575,-6.03 -1.0725,-8.585"
   style="fill:#000000;fill-opacity:1;fill-rule:nonzero;stroke:none"
   id="path8914" /><path
   inkscape:connector-curvature="0"
   d="m 98.12388,242.18587 -10.68,-23.0975 0,23.0975 -4.9575,0 0,-34.49375 4.9575,0 9.45375,20.69625 0,-20.69625 4.95625,0 0,34.49375 -3.73,0 z"
   style="fill:#000000;fill-opacity:1;fill-rule:nonzero;stroke:none"
   id="path8918" /><path
   inkscape:connector-curvature="0"
   d="m 109.41715,242.18587 0,-34.49375 4.95625,0 0,29.895 12.6225,0 0,4.59875 -17.57875,0 z"
   style="fill:#000000;fill-opacity:1;fill-rule:nonzero;stroke:none"
   id="path8922" /><path
   inkscape:connector-curvature="0"
   d="m 142.47963,226.54887 0,15.6375 -4.95625,0 0,-15.6375 -8.48375,-18.85625 5.2125,0 5.82625,12.46875 5.6725,-12.46875 5.31375,0 -8.585,18.85625 z"
   style="fill:#000000;fill-opacity:1;fill-rule:nonzero;stroke:none"
   id="path8926" /></svg>