<?xml version="1.0" encoding="UTF-8" standalone="no"?>
<!-- Generator: Adobe Illustrator 12.0.1, SVG Export Plug-In  -->

<svg
   xmlns:dc="http://purl.org/dc/elements/1.1/"
   xmlns:cc="http://creativecommons.org/ns#"
   xmlns:rdf="http://www.w3.org/1999/02/22-rdf-syntax-ns#"
   xmlns:svg="http://www.w3.org/2000/svg"
   xmlns="http://www.w3.org/2000/svg"
   xmlns:sodipodi="http://sodipodi.sourceforge.net/DTD/sodipodi-0.dtd"
   xmlns:inkscape="http://www.inkscape.org/namespaces/inkscape"
   version="1.1"
   width="224.6875"
   height="280.5"
   viewBox="-1 0 224.6875 280.5"
   enable-background="new -1 0 289 288"
   xml:space="preserve"
   id="svg2"
   inkscape:version="0.48.2 r9819"
   sodipodi:docname="MUTCD R10-7.svg"><metadata
   id="metadata22"><rdf:RDF><cc:Work
       rdf:about=""><dc:format>image/svg+xml</dc:format><dc:type
         rdf:resource="http://purl.org/dc/dcmitype/StillImage" /><dc:title></dc:title></cc:Work></rdf:RDF></metadata><sodipodi:namedview
   pagecolor="#ffffff"
   bordercolor="#666666"
   borderopacity="1"
   objecttolerance="10"
   gridtolerance="10"
   guidetolerance="10"
   inkscape:pageopacity="0"
   inkscape:pageshadow="2"
   inkscape:window-width="1280"
   inkscape:window-height="1004"
   id="namedview20"
   showgrid="false"
   fit-margin-top="0"
   fit-margin-left="0"
   fit-margin-right="0"
   fit-margin-bottom="0"
   inkscape:zoom="2.3177391"
   inkscape:cx="120.12712"
   inkscape:cy="169.69189"
   inkscape:window-x="-8"
   inkscape:window-y="-8"
   inkscape:window-maximized="1"
   inkscape:current-layer="svg2"
   showguides="true"
   inkscape:guide-bbox="true" />
<defs
   id="defs4">
</defs>







<path
   inkscape:connector-curvature="0"
   d="m 13.68462,0.751 195.29875,0 c 7.68375,0 13.95,6.26625 13.95,13.95 l 0,251.09875 c 0,7.6825 -6.26625,13.95 -13.95,13.95 l -195.29875,0 c -7.68375,0 -13.95,-6.2675 -13.95,-13.95 l 0,-251.09875 c 0,-7.58625 6.36375,-13.95 13.95,-13.95"
   style="fill:#ffffff;fill-opacity:1;fill-rule:nonzero;stroke:#000000;stroke-width:1.5;stroke-miterlimit:4;stroke-opacity:1;stroke-dasharray:none"
   id="path12526" /><path
   inkscape:connector-curvature="0"
   d="m 13.72686,4.23862 195.215,0 c 5.7475,0.009 10.4825,4.765 10.50375,10.5075 l 0,251.01125 c -0.0213,5.7475 -4.75625,10.48375 -10.50375,10.505 l -195.215,0 c -5.74,-0.0213 -10.4925,-4.7575 -10.505,-10.505 l 0,-251.01125 c 0.009,-5.7425 4.765,-10.49875 10.505,-10.5075"
   style="fill:#000000;fill-opacity:1;fill-rule:evenodd;stroke:none"
   id="path12534" /><path
   inkscape:connector-curvature="0"
   d="m 13.80237,10.05114 195.0625,0 c 2.61875,-0.04 4.81375,2.14375 4.76875,4.7675 l 0,250.8625 c 0.045,2.61875 -2.15,4.81375 -4.76875,4.76875 l -195.0625,0 c -2.625,0.045 -4.80375,-2.15 -4.7675,-4.76875 l 0,-250.8625 c -0.0362,-2.6275 2.1425,-4.8075 4.7675,-4.7675"
   style="fill:#ffffff;fill-opacity:1;fill-rule:evenodd;stroke:none"
   id="path12538" /><path
   inkscape:connector-curvature="0"
   d="m 174.80525,163.47375 0,-46.47 -6.68375,0 0,27.88 -12.71875,-27.88 -6.685,0 0,46.47 6.685,0 0,-31.14625 14.35,31.14625 5.0525,0 z M 134.214,129.395 c 0,3.75 -2.11875,5.86875 -6.03,5.86875 l -6.8475,0 0,-11.73875 6.8475,0 c 3.585,0 6.03,2.2825 6.03,5.87 m 6.525,34.07875 -6.68875,-22.82625 c 4.40625,-1.6325 6.68875,-5.71 6.68875,-11.2525 0,-7.49875 -4.8925,-12.39125 -12.2275,-12.39125 l -13.8625,0 0,46.47 6.6875,0 0,-21.8525 6.3575,0 6.1925,21.8525 6.8525,0 z m -36.3525,-13.86 0,-32.61 -6.6875,0 0,33.425 c 0,4.40125 -2.60625,7.3375 -6.195,7.3375 -3.91,0 -6.52,-2.93625 -6.52,-7.3375 l 0,-33.425 -6.6875,0 0,32.61 c 0,3.75125 0.49,5.70625 1.795,8.1525 2.28375,3.91125 6.8475,6.55125 11.4125,6.55125 4.4025,0 8.805,-2.80375 11.08625,-6.55125 1.30875,-2.44625 1.79625,-4.40125 1.79625,-8.1525 m -32.765,-26.41625 0,-6.19375 -23.64375,0 0,6.19375 8.48,0 0,40.27625 6.6875,0 0,-40.27625 8.47625,0"
   style="fill:#000000;fill-opacity:1;fill-rule:evenodd;stroke:none"
   id="path12542" /><path
   inkscape:connector-curvature="0"
   d="m 201.55737,242.52289 0,-6.1975 -16.95625,0 0,-40.275 -6.685,0 0,46.4725 23.64125,0 z m -42.295,-19.24 -6.68375,0 3.26,-13.37 3.42375,13.37 z m 11.5775,19.24 -11.5775,-46.4725 -6.52,0 -11.5775,46.4725 6.685,0 3.09625,-12.7175 9.945,0 3.26375,12.7175 6.685,0 z m -36.7525,0 0,-46.4725 -6.68375,0 0,27.88375 -12.72,-27.88375 -6.68375,0 0,46.4725 6.68375,0 0,-31.1425 14.34875,31.1425 5.055,0 z m -35.93625,-12.88125 0,-9.62125 -11.9,0 0,6.52 5.21625,0 0,3.10125 c 0,4.89125 -1.6325,7.17375 -5.05625,7.17375 -3.58625,0 -5.86875,-2.445 -6.8475,-7.01 -0.65,-3.5875 -0.9775,-7.665 -0.9775,-11.5775 0,-5.54625 0.81375,-10.7625 2.11875,-13.04375 1.14125,-2.28375 2.93625,-3.425 5.21875,-3.425 3.26125,0 5.38,2.12 5.54375,5.22 l 6.68375,0 c -0.32375,-6.8475 -5.37875,-11.74 -12.06375,-11.74 -5.3825,0 -10.11125,3.585 -11.74,8.475 -1.63125,4.4025 -2.12125,9.13125 -2.12125,15.65625 0,6.0325 0.9775,12.55375 2.445,15.9775 2.2825,5.21625 6.36125,8.02 11.90375,8.02 4.72875,0 8.48,-2.47625 10.2725,-6.5525 0.98,-1.955 1.30375,-3.91375 1.30375,-7.17375 m -35.9375,-33.59125 -6.52125,0 0,46.4725 6.52125,0 0,-46.4725 z m -15.06375,33.755 c 0,-6.685 -3.91125,-11.74 -12.88125,-16.96 -3.42375,-1.955 -4.40125,-3.26 -4.40125,-5.5425 0,-3.0975 2.4425,-5.38 5.5425,-5.38 2.93625,0 5.21875,2.12 5.3825,5.38 l 6.3575,0 c -0.1625,-7.01125 -5.21875,-12.06375 -11.74,-12.06375 -6.68375,0 -11.9025,5.37875 -11.9025,12.06375 0,4.0775 1.955,7.66125 5.70875,10.27125 9.4575,6.36 6.8475,4.56625 7.82625,5.54625 2.76875,2.11875 3.75,4.07375 3.75,6.685 0,3.7475 -2.93625,7.01 -6.52375,7.01 -4.565,0 -6.52375,-4.075 -6.52375,-7.99125 l -6.52125,0 c 0,7.665 4.8925,14.54375 13.045,14.54375 7.175,0 12.88125,-6.06125 12.88125,-13.5625"
   style="fill:#000000;fill-opacity:1;fill-rule:evenodd;stroke:none"
   id="path12546" /><path
   inkscape:connector-curvature="0"
   d="m 194.18274,43.117 0,-6.5575 -28.735,0 0,6.5575 10.60125,0 0,39.89375 7.39625,0 0,-39.89375 10.7375,0 z m -35.57125,39.89375 0,-46.45125 -7.25375,0 0,18.83 -17.01875,0 0,-18.83 -7.3925,0 0,46.45125 7.3925,0 0,-20.2275 17.01875,0 0,20.2275 7.25375,0 z m -41.71,-13.81 0,-9.34875 -15.62375,0 0,7.39875 8.23375,0 0,1.95 c 0,4.18375 -3.20875,7.11375 -7.95625,7.11375 -2.78875,0 -4.88125,-1.11375 -6.41375,-3.62625 -1.39625,-2.93 -2.2325,-7.95 -2.2325,-12.83625 0,-3.905 0.695,-8.08875 1.8125,-10.88 1.67375,-4.045 4.045,-5.715 7.8125,-5.715 3.62625,0 5.44,1.53125 7.395,5.57625 l 6.9725,-2.79125 c -3.07,-7.3925 -7.39,-10.32375 -14.3675,-10.32375 -5.16125,0 -9.0675,1.81625 -11.85875,5.30375 -3.20875,4.045 -5.3,11.4375 -5.3,18.83 0,5.72125 1.115,11.44375 3.0675,15.4875 2.7925,6.00125 6.97625,8.5075 13.95375,8.5075 8.36875,0 14.505,-6.14 14.505,-14.64625 M 75.47024,36.5595 l -7.53375,0 0,46.45125 7.53375,0 0,-46.45125 z M 52.03649,49.66825 c 0,1.955 -1.25625,3.91125 -2.92875,4.88625 -1.25625,0.69625 -1.95625,0.835 -4.32625,0.835 l -8.78875,0 0,-11.4375 8.78875,0 c 2.51125,0 3.07,0.14 4.32625,0.83625 1.6725,0.975 2.92875,2.93 2.92875,4.88 m 8.23,33.3425 -8.09125,-21.62125 c 4.185,-1.955 7.11375,-6.835 7.11375,-11.72125 0,-4.74125 -2.92875,-9.62125 -6.97625,-11.57625 -2.22875,-1.115 -4.7425,-1.5325 -8.3675,-1.5325 l -15.345,0 0,46.45125 7.3925,0 0,-20.2275 8.78875,0 7.53125,20.2275 7.95375,0"
   style="fill:#000000;fill-opacity:1;fill-rule:evenodd;stroke:none"
   id="path12550" /></svg>