<?xml version="1.0" encoding="UTF-8" standalone="no"?>
<!-- Created with Inkscape (http://www.inkscape.org/) -->

<svg
   xmlns:dc="http://purl.org/dc/elements/1.1/"
   xmlns:cc="http://creativecommons.org/ns#"
   xmlns:rdf="http://www.w3.org/1999/02/22-rdf-syntax-ns#"
   xmlns:svg="http://www.w3.org/2000/svg"
   xmlns="http://www.w3.org/2000/svg"
   xmlns:sodipodi="http://sodipodi.sourceforge.net/DTD/sodipodi-0.dtd"
   xmlns:inkscape="http://www.inkscape.org/namespaces/inkscape"
   width="2170"
   height="1630"
   id="svg2"
   sodipodi:version="0.32"
   inkscape:version="0.48.2 r9819"
   version="1.0"
   sodipodi:docname="AJAX9.svg">
  <defs
     id="defs4">
    <clipPath
       id="Clip0">
      <path
         inkscape:connector-curvature="0"
         d="m 0,0 0,3024.5 2160.5,0 L 2160.5,0 0,0 z"
         transform="translate(0,0.5)"
         id="path7" />
    </clipPath>
    <clipPath
       id="Clip0-1">
      <path
         inkscape:connector-curvature="0"
         d="m 0,0 0,3024.5 2592.5,0 L 2592.5,0 0,0 z"
         transform="translate(0,0.5)"
         id="path7-7" />
    </clipPath>
    <clipPath
       id="Clip0-4">
      <path
         inkscape:connector-curvature="0"
         d="m 0,0 0,1728.5 4320.5,0 L 4320.5,0 0,0 z"
         transform="translate(0,0.5)"
         id="path7-0" />
    </clipPath>
  </defs>
  <sodipodi:namedview
     id="base"
     pagecolor="#ffffff"
     bordercolor="#666666"
     borderopacity="1.0"
     gridtolerance="10000"
     guidetolerance="10"
     objecttolerance="10"
     inkscape:pageopacity="0.0"
     inkscape:pageshadow="2"
     inkscape:zoom="0.17436557"
     inkscape:cx="1385.7529"
     inkscape:cy="191.17493"
     inkscape:document-units="px"
     inkscape:current-layer="layer1"
     width="601px"
     height="601px"
     inkscape:window-width="1280"
     inkscape:window-height="1004"
     inkscape:window-x="-8"
     inkscape:window-y="-8"
     showgrid="false"
     fit-margin-top="0"
     fit-margin-left="0"
     fit-margin-right="0"
     fit-margin-bottom="0"
     inkscape:window-maximized="1"
     showguides="true"
     inkscape:guide-bbox="true" />
  <metadata
     id="metadata7">
    <rdf:RDF>
      <cc:Work
         rdf:about="">
        <dc:format>image/svg+xml</dc:format>
        <dc:type
           rdf:resource="http://purl.org/dc/dcmitype/StillImage" />
        <dc:title></dc:title>
      </cc:Work>
    </rdf:RDF>
  </metadata>
  <g
     inkscape:label="Layer 1"
     inkscape:groupmode="layer"
     id="layer1"
     transform="translate(2194.4688,402.40625)">
    <path
       inkscape:connector-curvature="0"
       style="fill:#ffffff;fill-rule:nonzero;stroke:#000000;stroke-width:10;stroke-linecap:butt;stroke-linejoin:miter;stroke-miterlimit:4;stroke-opacity:1;stroke-dasharray:none"
       d="m -29.4687,1087.5938 c 0,74.5625 -60.4375,135 -135,135 l -1890.0001,0 c -74.5592,0 -135,-60.4375 -135,-135 l 0,-1350.00005 c 0,-74.55938 60.4408,-135 135,-135 l 1890.0001,0 c 74.5625,0 135,60.44062 135,135 l 0,1350.00005 z"
       id="path11" />
    <path
       inkscape:connector-curvature="0"
       style="fill:#000000;fill-rule:nonzero;stroke:none"
       d="m -119.4687,1087.5938 c 0,24.8125 -20.1875,45 -45,45 l -1890.0001,0 c -24.8132,0 -45,-20.1875 -45,-45 l 0,-1350.00005 c 0,-24.81325 20.1868,-45 45,-45 l 1890.0001,0 c 24.8125,0 45,20.18675 45,45 l 0,1350.00005 z m -45,-1451.25005 -1890.0001,0 c -55.8301,0 -101.25,45.41987 -101.25,101.25 l 0,1350.00005 c 0,55.825 45.4199,101.25 101.25,101.25 l 1890.0001,0 c 55.825,0 101.25,-45.425 101.25,-101.25 l 0,-1350.00005 c 0,-55.83013 -45.425,-101.25 -101.25,-101.25 z"
       id="path13" />
    <path
       inkscape:connector-curvature="0"
       style="fill:#000000;fill-rule:nonzero;stroke:none"
       d="m -1053.4312,67.61125 c -8.5475,-14.21 -18.9912,-19.89375 -35.1363,-20.8425 -20.8949,-0.94625 -34.1912,9.47375 -43.6875,33.15875 -6.6487,16.105 -10.445,40.7375 -10.445,63.47375 0,28.42125 5.6963,57.78875 16.1425,74.8425 8.5488,14.21 19.9451,20.8425 37.0401,20.8425 19.9437,0 32.2874,-10.4225 41.785,-34.105 5.6975,-14.21125 10.4463,-40.7375 10.4463,-61.58 0,-30.315 -5.6975,-57.78875 -16.145,-75.79 z m 29.4413,184.7375 c -15.195,20.84375 -37.0389,30.31625 -65.5275,30.31625 -37.99,0 -61.7326,-15.15875 -77.8775,-48.31625 -11.3939,-22.7375 -18.9913,-58.73625 -18.9913,-90.9475 0,-44.52625 11.395,-84.315 29.4413,-109.895 C -1140.8012,12.66375 -1118.96,3.19 -1087.62,3.19 c 34.1888,0 57.9313,15.15875 75.0263,48.31625 11.3938,23.68375 18.04495,57.78875 18.04495,91.895 0,42.63125 -10.44745,85.2625 -29.44115,108.9475 z"
       id="path15" />
    <path
       inkscape:connector-curvature="0"
       style="fill:#000000;fill-rule:nonzero;stroke:none"
       d="m -623.9312,67.61125 c -8.55,-14.21 -18.9875,-19.89375 -35.1375,-20.8425 -20.8875,-0.94625 -34.1875,9.47375 -43.6875,33.15875 -6.65,16.105 -10.4375,40.7375 -10.4375,63.47375 0,28.42125 5.6875,57.78875 16.1375,74.8425 8.55,14.21 19.9375,20.8425 37.0375,20.8425 19.95,0 32.2875,-10.4225 41.7875,-34.105 5.7,-14.21125 10.45,-40.7375 10.45,-61.58 0,-30.315 -5.7,-57.78875 -16.15,-75.79 z m 29.4375,184.7375 c -15.1875,20.84375 -37.0375,30.31625 -65.525,30.31625 -37.9875,0 -61.725,-15.15875 -77.875,-48.31625 -11.4,-22.7375 -18.9875,-58.73625 -18.9875,-90.9475 0,-44.52625 11.3875,-84.315 29.4375,-109.895 16.15,-20.8425 37.9875,-30.31625 69.325,-30.31625 34.1875,0 57.925,15.15875 75.025,48.31625 11.3875,23.68375 18.05,57.78875 18.05,91.895 0,42.63125 -10.45,85.2625 -29.45,108.9475 z"
       id="path17" />
    <path
       inkscape:connector-curvature="0"
       style="fill:#000000;fill-rule:nonzero;stroke:none"
       d="m -1529.7762,54.9625 c -7.5788,-3.78875 -12.3151,-4.7375 -25.5788,-4.7375 l -55.8986,0 0,66.3175 55.8986,0 c 13.2637,0 18,-0.94875 25.5788,-4.73625 9.4749,-4.7375 16.1087,-17.0525 16.1087,-28.4225 0,-11.36875 -6.6338,-22.73625 -16.1087,-28.42125 z m 18.0026,95.685 c -12.3163,5.68375 -28.4227,9.47375 -49.2676,9.47375 l -50.2124,0 0,117.47375 -42.6338,0 0,-270 92.8462,0 c 21.7925,0 36.0025,1.895 49.2676,8.525 23.6849,11.37 41.6875,39.79125 41.6875,67.26375 0,28.4225 -18.0026,56.84375 -41.6875,67.26375 z"
       id="path19" />
    <path
       inkscape:connector-curvature="0"
       style="fill:#000000;fill-rule:nonzero;stroke:none"
       d="m -854.7812,45.48875 0,232.10625 -42.825,0 0,-232.10625 -61.8475,0 0,-37.895 167.4725,0 0,37.895 -62.8,0 z"
       id="path21" />
    <path
       inkscape:connector-curvature="0"
       style="fill:#000000;fill-rule:nonzero;stroke:none"
       d="m -1288.4187,277.595 0,-117.475 -98.5351,0 0,117.475 -42.6349,0 0,-270 42.6349,0 0,108.94625 98.5351,0 0,-108.94625 42.6338,0 0,270 -42.6338,0 z"
       id="path23" />
    <path
       inkscape:connector-curvature="0"
       style="fill:#000000;fill-rule:nonzero;stroke:none"
       d="m -1640.4175,817.5963 -103.2712,-182.8413 0,182.8413 -42.635,0 0,-270 42.635,0 98.5325,172.4213 0,-172.4213 42.6338,0 0,270 -37.895,0 z"
       id="path25" />
    <path
       inkscape:connector-curvature="0"
       style="fill:#000000;fill-rule:nonzero;stroke:none"
       d="m -1202.1963,607.6138 c -8.5474,-14.2126 -18.9925,-19.895 -35.1375,-20.8425 -20.8937,-0.9475 -34.19,9.4725 -43.6862,33.1562 -6.6487,16.1063 -10.445,40.7376 -10.445,63.4738 0,28.4213 5.695,57.7913 16.1425,74.8437 8.5488,14.2101 19.9438,20.8426 37.0387,20.8426 19.9438,0 32.2875,-10.4225 41.785,-34.1063 5.6988,-14.2112 10.4463,-40.7375 10.4463,-61.58 0,-30.3125 -5.6987,-57.7875 -16.1438,-75.7875 z m 29.44,184.7363 c -15.1962,20.8425 -37.0387,30.3175 -65.5274,30.3175 -37.9888,0 -61.7312,-15.1613 -77.8762,-48.3188 -11.3938,-22.7362 -18.9912,-58.735 -18.9912,-90.9475 0,-44.5263 11.3949,-84.3138 29.44,-109.895 16.1437,-20.8413 37.9874,-30.3138 69.3249,-30.3138 34.19,0 57.9313,15.1575 75.0263,48.315 11.3937,23.6838 18.0425,57.7875 18.0425,91.8938 0,42.6325 -10.4449,85.2638 -29.4388,108.9488 z"
       id="path27" />
    <path
       inkscape:connector-curvature="0"
       style="fill:#000000;fill-rule:nonzero;stroke:none"
       d="m -284.6187,601.595 c -6.625,-6.6313 -16.1,-11.37 -27.475,-11.37 l -48.325,0 0,183.7926 42.6375,0 c 14.2125,0 22.7375,-2.8425 30.325,-10.42 16.1,-16.1063 24.625,-45.4763 24.625,-81.4775 0,-35.9988 -8.525,-66.3138 -21.7875,-80.5251 z m 18,200.8451 c -10.4125,9.4725 -24.625,14.2086 -38.8375,15.1561 -2.85,0 -8.5375,0 -15.1625,0 l -82.425,0 0,-270 87.1625,0 c 27.475,0 37.9,2.8413 52.1125,14.2113 28.4125,24.6312 44.525,67.2637 44.525,120.3125 0,54.0012 -17.05,96.6362 -47.375,120.32 z"
       id="path29" />
    <path
       inkscape:connector-curvature="0"
       style="fill:#000000;fill-rule:nonzero;stroke:none"
       d="m -1999.6938,817.5963 0,-270 158.9525,0 0,42.6312 -116.3762,0 0,66.3163 78.5325,0 0,43.5788 -78.5325,0 0,73.895 124.8925,0 0,43.5787 -167.4688,0 z"
       id="path31" />
    <path
       inkscape:connector-curvature="0"
       style="fill:#000000;fill-rule:nonzero;stroke:none"
       d="m -616.4187,817.5963 0,-270 158.9625,0 0,42.6312 -116.3875,0 0,66.3163 78.5375,0 0,43.5788 -78.5375,0 0,73.895 124.9,0 0,43.5787 -167.475,0 z"
       id="path33" />
    <path
       inkscape:connector-curvature="0"
       style="fill:#000000;fill-rule:nonzero;stroke:none"
       d="m -757.2937,822.3351 c -39.7875,0 -65.375,-15.1588 -82.425,-48.3176 -12.3125,-23.685 -19.9,-57.7913 -19.9,-91.895 0,-42.6313 11.375,-85.2638 30.325,-108.9475 16.1,-19.895 38.8375,-30.315 69.1625,-30.315 40.7375,0 66.3125,17.0525 84.3125,54.9462 l -39.7875,17.0538 c -15.1625,-22.7375 -23.6875,-28.4213 -44.525,-28.4213 -21.8,0 -36.0125,9.4725 -45.4875,33.1575 -6.625,16.105 -10.4125,39.79 -10.4125,62.5263 0,29.3675 6.625,58.7375 17.05,75.7912 9.475,14.2088 21.7875,20.8425 40.7375,20.8425 18,0 31.2625,-9.475 41.6875,-31.265 l 40.7375,15.1588 c -16.1,39.79 -42.625,59.685 -81.475,59.685 z"
       id="path35" />
    <path
       inkscape:connector-curvature="0"
       style="fill:#000000;fill-rule:nonzero;stroke:none"
       d="m -1495.1438,590.2275 0,66.3162 78.53,0 0,43.5789 -78.53,0 0,117.4737 -42.5762,0 0,-270 167.4688,0 0,42.6312 -124.8926,0 z"
       id="path37" />
    <path
       inkscape:connector-curvature="0"
       style="fill:#000000;fill-rule:nonzero;stroke:none"
       d="m -965.4924,594.9637 c -6.63115,-3.7912 -10.42005,-4.7362 -24.63125,-4.7362 l -51.16245,0 0,66.3138 51.16245,0 c 13.2637,0 18.0001,-0.945 24.63125,-4.7338 10.425,-5.6862 17.055,-17.055 17.055,-28.4225 0,-11.3675 -6.63,-22.7375 -17.055,-28.4213 z m 18.95,222.6326 -43.58125,-117.4762 -51.16245,0 0,117.4762 -42.6338,0 0,-270.0025 89.05745,0 c 20.8439,0 35.05505,1.8975 48.32005,8.5275 23.6863,11.37 40.7363,39.79 40.7363,67.2637 0,28.4225 -17.05,56.8426 -41.6838,68.2101 l 47.3713,126.0011 -46.4238,0 z"
       id="path39" />
  </g>
</svg>
