<?xml version="1.0" encoding="UTF-8" standalone="no"?>
<!-- Generator: Adobe Illustrator 12.0.1, SVG Export Plug-In  -->

<svg
   xmlns:dc="http://purl.org/dc/elements/1.1/"
   xmlns:cc="http://creativecommons.org/ns#"
   xmlns:rdf="http://www.w3.org/1999/02/22-rdf-syntax-ns#"
   xmlns:svg="http://www.w3.org/2000/svg"
   xmlns="http://www.w3.org/2000/svg"
   xmlns:sodipodi="http://sodipodi.sourceforge.net/DTD/sodipodi-0.dtd"
   xmlns:inkscape="http://www.inkscape.org/namespaces/inkscape"
   version="1.1"
   width="282.0625"
   height="282.03125"
   viewBox="-1 0 282.0625 282.03125"
   enable-background="new -1 0 289 288"
   xml:space="preserve"
   id="svg2"
   inkscape:version="0.48.2 r9819"
   sodipodi:docname="MUTCD R10-20a.svg"><metadata
   id="metadata22"><rdf:RDF><cc:Work
       rdf:about=""><dc:format>image/svg+xml</dc:format><dc:type
         rdf:resource="http://purl.org/dc/dcmitype/StillImage" /><dc:title /></cc:Work></rdf:RDF></metadata><sodipodi:namedview
   pagecolor="#ffffff"
   bordercolor="#666666"
   borderopacity="1"
   objecttolerance="10"
   gridtolerance="10"
   guidetolerance="10"
   inkscape:pageopacity="0"
   inkscape:pageshadow="2"
   inkscape:window-width="1280"
   inkscape:window-height="1004"
   id="namedview20"
   showgrid="false"
   fit-margin-top="0"
   fit-margin-left="0"
   fit-margin-right="0"
   fit-margin-bottom="0"
   inkscape:zoom="1.638889"
   inkscape:cx="172.34"
   inkscape:cy="116.8417"
   inkscape:window-x="-8"
   inkscape:window-y="-8"
   inkscape:window-maximized="1"
   inkscape:current-layer="svg2"
   showguides="true"
   inkscape:guide-bbox="true" />
<defs
   id="defs4">
</defs>







<path
   inkscape:connector-curvature="0"
   d="m 280.30675,263.75836 c 0,9.64375 -7.89,17.53375 -17.53375,17.53375 l -245.47875,0 c -9.64375,0 -17.53375,-7.89 -17.53375,-17.53375 l 0,-245.47875 c 0,-9.6425 7.89,-17.53375 17.53375,-17.53375 l 245.47875,0 c 9.64375,0 17.53375,7.89125 17.53375,17.53375 l 0,245.47875 z"
   style="fill:#ffffff;fill-opacity:1;fill-rule:nonzero;stroke:#000000;stroke-width:1.5;stroke-miterlimit:4;stroke-opacity:1;stroke-dasharray:none"
   id="path6296" /><path
   inkscape:connector-curvature="0"
   d="m 262.77262,5.12961 -245.4775,0 c -7.23375,0 -13.15125,5.9175 -13.15125,13.15 l 0,245.47875 c 0,7.2325 5.9175,13.15125 13.15125,13.15125 l 245.4775,0 c 7.2325,0 13.15125,-5.91875 13.15125,-13.15125 l 0,-245.47875 c 0,-7.2325 -5.91875,-13.15 -13.15125,-13.15 m 5.845,258.62875 c 0,3.215 -2.63,5.845 -5.845,5.845 l -245.47875,0 c -3.21375,0 -5.84375,-2.63 -5.84375,-5.845 l 0,-245.47875 c 0,-3.21375 2.63,-5.84375 5.84375,-5.84375 l 245.47875,0 c 3.215,0 5.845,2.63 5.845,5.84375 l 0,245.47875 z"
   style="fill:#000000;fill-opacity:1;fill-rule:nonzero;stroke:none"
   id="path6304" /><path
   inkscape:connector-curvature="0"
   d="m 62.238,88.4185 0,-26.255 -8.66,26.255 -8.72875,-26.255 0,26.255 -6.71875,0 0,-46.76125 6.71875,0 8.72875,26.25625 8.66,-26.25625 6.78875,0 0,46.76125 -6.78875,0 z"
   style="fill:#000000;fill-opacity:1;fill-rule:nonzero;stroke:none"
   id="path6308" /><path
   inkscape:connector-curvature="0"
   d="m 103.11037,81.21386 c -2.355,5.5425 -5.75,8.03625 -10.945,8.03625 -5.61125,0 -8.8675,-2.49375 -11.15375,-8.03625 -1.94,-4.64125 -2.6325,-9.00625 -2.6325,-16.28 0,-7.06625 0.62375,-11.77625 2.6325,-16.21 2.425,-5.61125 5.75,-7.8975 11.15375,-7.8975 5.4025,0 8.59,2.355 10.945,8.03625 1.94,4.64125 2.6325,9.005 2.6325,16.07125 0,7.27375 -0.6925,11.7775 -2.6325,16.28 m -5.195,-27.91875 c -1.17875,-4.08625 -2.98,-5.8875 -5.75,-5.8875 -2.97875,0 -4.71125,1.80125 -5.9575,5.75 -1.04,3.6025 -1.455,6.72 -1.455,11.98375 0,5.0575 0.415,8.03625 1.455,11.7775 1.1075,3.94875 2.97875,5.75 5.9575,5.75 2.77,0 4.57125,-1.80125 5.75,-5.75 1.1075,-3.74125 1.45375,-6.58125 1.45375,-11.985 0,-5.195 -0.485,-8.17375 -1.45375,-11.63875"
   style="fill:#000000;fill-opacity:1;fill-rule:nonzero;stroke:none"
   id="path6312" /><path
   inkscape:connector-curvature="0"
   d="m 136.29363,88.4185 -14.47875,-31.3125 0,31.3125 -6.72,0 0,-46.76125 6.72,0 12.81625,28.05625 0,-28.05625 6.72,0 0,46.76125 -5.0575,0 z"
   style="fill:#000000;fill-opacity:1;fill-rule:nonzero;stroke:none"
   id="path6316" /><path
   inkscape:connector-curvature="0"
   d="m 147.8625,61.40125 16.41875,0 0,6.235 -16.41875,0 0,-6.235 z"
   style="fill:#000000;fill-opacity:1;fill-rule:nonzero;stroke:none"
   id="path6318" /><path
   inkscape:connector-curvature="0"
   d="m 177.51212,48.23864 0,11.7775 9.3525,0 0,6.4425 -9.3525,0 0,21.96 -6.72,0 0,-46.76125 23.83125,0 0,6.58125 -17.11125,0 z"
   style="fill:#000000;fill-opacity:1;fill-rule:nonzero;stroke:none"
   id="path6322" /><path
   inkscape:connector-curvature="0"
   d="m 220.53163,88.4185 -6.235,-21.96 -6.4425,0 0,21.96 -6.72,0 0,-46.76125 13.99375,0 c 7.34375,0 12.2625,4.91875 12.2625,12.47 0,5.61125 -2.28625,9.69875 -6.72,11.29125 l 6.72,23 -6.85875,0 z m -5.75,-40.18 -6.9275,0 0,11.7775 6.9275,0 c 3.94875,0 6.0275,-2.1475 6.0275,-5.88875 0,-3.6025 -2.425,-5.88875 -6.0275,-5.88875"
   style="fill:#000000;fill-opacity:1;fill-rule:nonzero;stroke:none"
   id="path6326" /><path
   inkscape:connector-curvature="0"
   d="m 235.35625,41.6575 6.58125,0 0,46.76125 -6.58125,0 0,-46.76125 z"
   style="fill:#000000;fill-opacity:1;fill-rule:nonzero;stroke:none"
   id="path6328" /><path
   inkscape:connector-curvature="0"
   d="m 69.54538,142.43788 c -2.425,7.205 -3.395,13.44 -3.74125,21.96 l -6.58125,0 0,-0.97 c 0,-4.78 1.1775,-12.46875 2.77125,-18.70375 2.00875,-7.55125 4.43375,-13.1625 9.075,-20.50625 l -17.59625,0 0,-6.58125 26.1175,0 0,6.58125 c -4.0875,4.71125 -7.4125,10.66875 -10.045,18.22"
   style="fill:#000000;fill-opacity:1;fill-rule:nonzero;stroke:none"
   id="path6332" /><path
   inkscape:connector-curvature="0"
   d="m 85.20125,137.38125 16.41875,0 0,6.235 -16.41875,0 0,-6.235 z"
   style="fill:#000000;fill-opacity:1;fill-rule:nonzero;stroke:none"
   id="path6334" /><path
   inkscape:connector-curvature="0"
   d="m 115.82087,164.39812 -3.81,-5.265 c 3.94875,-2.91 8.24375,-8.65875 9.90625,-13.0925 -1.1775,0.1375 -2.00875,0.1375 -2.97875,0.1375 -8.03625,0 -13.1625,-5.74875 -13.1625,-14.755 0,-8.8675 5.12625,-14.6175 13.1625,-14.6175 8.52125,0 12.955,5.75 12.955,16.765 0,11.43 -5.88875,22.79125 -16.0725,30.8275 m 3.6025,-41.01125 c -4.0875,0 -6.58125,3.1175 -6.58125,8.03625 0,5.0575 2.49375,8.175 6.58125,8.175 3.94875,0 6.58125,-2.91 6.58125,-7.55125 0,-5.19625 -2.6325,-8.66 -6.58125,-8.66"
   style="fill:#000000;fill-opacity:1;fill-rule:nonzero;stroke:none"
   id="path6338" /><path
   inkscape:connector-curvature="0"
   d="m 182.39712,164.39812 -3.25625,-12.81625 -10.045,0 -3.1175,12.81625 -6.72,0 11.63875,-46.76125 6.58125,0 11.63875,46.76125 -6.72,0 z m -8.3825,-32.83625 -3.25625,13.50875 6.72,0 -3.46375,-13.50875 z"
   style="fill:#000000;fill-opacity:1;fill-rule:nonzero;stroke:none"
   id="path6342" /><path
   inkscape:connector-curvature="0"
   d="m 219.805,164.39812 0,-26.255 -8.65875,26.255 -8.72875,-26.255 0,26.255 -6.72,0 0,-46.76125 6.72,0 8.72875,26.25625 8.65875,-26.25625 6.78875,0 0,46.76125 -6.78875,0 z"
   style="fill:#000000;fill-opacity:1;fill-rule:nonzero;stroke:none"
   id="path6346" /><path
   inkscape:connector-curvature="0"
   d="m 78.47987,229.08764 0,11.2925 -6.72,0 0,-11.2925 -19.3975,0 0,-4.78 19.3975,-30.68875 6.72,0 0,29.23375 2.77125,0 0,6.235 -2.77125,0 z m -6.72,-23.83125 -11.1525,17.59625 11.1525,0 0,-17.59625 z"
   style="fill:#000000;fill-opacity:1;fill-rule:nonzero;stroke:none"
   id="path6350" /><path
   inkscape:connector-curvature="0"
   d="m 86.86125,213.3625 16.41875,0 0,6.235 -16.41875,0 0,-6.235 z"
   style="fill:#000000;fill-opacity:1;fill-rule:nonzero;stroke:none"
   id="path6352" /><path
   inkscape:connector-curvature="0"
   d="m 122.1225,218.41899 c -2.425,7.205 -3.395,13.44 -3.74125,21.96 l -6.58125,0 0,-0.97 c 0,-4.78 1.1775,-12.46875 2.77125,-18.70375 2.00875,-7.55125 4.43375,-13.1625 9.075,-20.50625 l -17.59625,0 0,-6.58 26.1175,0 0,6.58 c -4.0875,4.71125 -7.4125,10.66875 -10.045,18.22"
   style="fill:#000000;fill-opacity:1;fill-rule:nonzero;stroke:none"
   id="path6356" /><path
   inkscape:connector-curvature="0"
   d="m 175.19362,219.87387 -7.27375,0 0,20.50625 -6.72,0 0,-46.76125 13.99375,0 c 7.34375,0 12.26125,5.265 12.26125,13.0925 0,8.59 -4.4325,13.1625 -12.26125,13.1625 m -0.34625,-19.67375 -6.9275,0 0,13.3 6.9275,0 c 3.94875,0 6.02625,-2.49375 6.02625,-6.78875 0,-3.87875 -2.42375,-6.51125 -6.02625,-6.51125"
   style="fill:#000000;fill-opacity:1;fill-rule:nonzero;stroke:none"
   id="path6360" /><path
   inkscape:connector-curvature="0"
   d="m 220.91539,240.3795 0,-26.255 -8.66,26.255 -8.72875,-26.255 0,26.255 -6.72,0 0,-46.76125 6.72,0 8.72875,26.255 8.66,-26.255 6.78875,0 0,46.76125 -6.78875,0 z"
   style="fill:#000000;fill-opacity:1;fill-rule:nonzero;stroke:none"
   id="path6364" /></svg>