<?xml version="1.0" encoding="UTF-8" standalone="no"?>
<!-- Created with Inkscape (http://www.inkscape.org/) -->

<svg
   xmlns:dc="http://purl.org/dc/elements/1.1/"
   xmlns:cc="http://creativecommons.org/ns#"
   xmlns:rdf="http://www.w3.org/1999/02/22-rdf-syntax-ns#"
   xmlns:svg="http://www.w3.org/2000/svg"
   xmlns="http://www.w3.org/2000/svg"
   xmlns:sodipodi="http://sodipodi.sourceforge.net/DTD/sodipodi-0.dtd"
   xmlns:inkscape="http://www.inkscape.org/namespaces/inkscape"
   width="87.125"
   height="87.125"
   id="svg2"
   sodipodi:version="0.32"
   inkscape:version="0.48.2 r9819"
   version="1.0"
   sodipodi:docname="MUTCD R10-11a.svg"
   inkscape:output_extension="org.inkscape.output.svg.inkscape">
  <defs
     id="defs4">
    <inkscape:perspective
       sodipodi:type="inkscape:persp3d"
       inkscape:vp_x="0 : 300.5 : 1"
       inkscape:vp_y="0 : 1000 : 0"
       inkscape:vp_z="601 : 300.5 : 1"
       inkscape:persp3d-origin="300.5 : 200.33333 : 1"
       id="perspective3380" />
    <inkscape:perspective
       id="perspective3990"
       inkscape:persp3d-origin="375 : 250 : 1"
       inkscape:vp_z="750 : 375 : 1"
       inkscape:vp_y="0 : 1000 : 0"
       inkscape:vp_x="0 : 375 : 1"
       sodipodi:type="inkscape:persp3d" />
  </defs>
  <sodipodi:namedview
     id="base"
     pagecolor="#ffffff"
     bordercolor="#666666"
     borderopacity="1.0"
     gridtolerance="10000"
     guidetolerance="10"
     objecttolerance="10"
     inkscape:pageopacity="0.0"
     inkscape:pageshadow="2"
     inkscape:zoom="3.639243"
     inkscape:cx="50.164865"
     inkscape:cy="46.503074"
     inkscape:document-units="px"
     inkscape:current-layer="layer1"
     width="601px"
     height="601px"
     inkscape:window-width="1280"
     inkscape:window-height="1004"
     inkscape:window-x="-8"
     inkscape:window-y="-8"
     showgrid="false"
     fit-margin-top="0"
     fit-margin-left="0"
     fit-margin-right="0"
     fit-margin-bottom="0"
     inkscape:window-maximized="1" />
  <metadata
     id="metadata7">
    <rdf:RDF>
      <cc:Work
         rdf:about="">
        <dc:format>image/svg+xml</dc:format>
        <dc:type
           rdf:resource="http://purl.org/dc/dcmitype/StillImage" />
        <dc:title></dc:title>
      </cc:Work>
    </rdf:RDF>
  </metadata>
  <g
     inkscape:label="Layer 1"
     inkscape:groupmode="layer"
     id="layer1"
     transform="translate(-3435,8518.8125)">
    <rect
       style="color:#000000;fill:#000000;fill-opacity:1;fill-rule:nonzero;stroke:none;stroke-width:0.8735441;marker:none;visibility:visible;display:inline;overflow:visible"
       id="rect3653"
       width="0"
       height="27.202072"
       x="578.73834"
       y="298.1684"
       rx="249.48199"
       ry="27.202072" />
    <path
       inkscape:connector-curvature="0"
       d="m 3440.7547,-8518.4708 75.6175,0 c 2.975,0 5.4013,2.4263 5.4013,5.4012 l 0,75.6175 c 0,2.9738 -2.4263,5.4001 -5.4013,5.4001 l -75.6175,0 c -2.975,0 -5.4012,-2.4263 -5.4012,-5.4001 l 0,-75.6175 c 0,-2.9375 2.4637,-5.4012 5.4012,-5.4012"
       style="fill:#ffffff;fill-opacity:1;fill-rule:nonzero;stroke:#000000;stroke-width:0.69999999;stroke-linecap:butt;stroke-linejoin:miter;stroke-miterlimit:4;stroke-opacity:1;stroke-dasharray:none"
       id="path13108" />
    <path
       inkscape:connector-curvature="0"
       style="fill:#000000;fill-opacity:1;fill-rule:evenodd;stroke:none"
       d="m 3440.7813,-8517.125 c -2.2225,0 -4.0588,1.84 -4.0625,4.0625 l 0,75.5937 c 0,2.2263 1.84,4.055 4.0625,4.0625 l 75.5625,0 c 2.2275,-0.01 4.0875,-1.8362 4.0937,-4.0625 l 0,-75.5937 c -0.01,-2.2225 -1.8662,-4.0588 -4.0937,-4.0625 l -75.5625,0 z m 0.031,2.25 75.5,0 c 1.0137,-0.015 1.8924,0.8275 1.875,1.8437 l 0,75.5313 c 0.017,1.0137 -0.8613,1.8612 -1.875,1.8437 l -75.5,0 c -1.0163,0.017 -1.8576,-0.83 -1.8439,-1.8437 l 2e-4,-75.5313 c -0.014,-1.0162 0.8274,-1.8587 1.8437,-1.8437 z"
       id="path13112" />
    <path
       inkscape:connector-curvature="0"
       d="m 3474.6008,-8491.6258 -6.8688,-9.8975 0,9.8975 -2.5237,0 0,-14.3912 2.5237,0 6.6163,9.4924 0,-9.4924 2.4737,0 0,14.3912 -2.2212,0 z"
       style="fill:#000000;fill-opacity:1;fill-rule:nonzero;stroke:none"
       id="path13120" />
    <path
       inkscape:connector-curvature="0"
       d="m 3492.172,-8498.897 c 0,-4.3938 -2.425,-7.3725 -5.96,-7.3725 -3.785,0 -6.1075,2.8275 -6.1075,7.4225 0,3.6362 1.8675,7.4737 6.1075,7.4737 3.6363,0 5.96,-3.03 5.96,-7.5237 m -2.5775,0.05 c 0,2.2212 -0.655,4.8987 -3.3825,4.8987 -2.17,0 -3.4837,-1.8187 -3.4837,-4.8987 0,-3.0288 1.3137,-4.8475 3.4837,-4.8475 2.1725,0 3.3825,1.8187 3.3825,4.8475"
       style="fill:#000000;fill-opacity:1;fill-rule:nonzero;stroke:none"
       id="path13124" />
    <path
       inkscape:connector-curvature="0"
       d="m 3461.0259,-8481.057 0,12.3712 -2.2713,0 0,-12.3712 -3.2812,0 0,-2.0188 8.8862,0 0,2.0188 -3.3337,0 z"
       style="fill:#000000;fill-opacity:1;fill-rule:nonzero;stroke:none"
       id="path13128" />
    <path
       inkscape:connector-curvature="0"
       d="m 3475.5684,-8470.857 c -0.7588,1.4137 -2.475,2.4237 -4.2425,2.4237 -1.7675,0 -3.4825,-1.01 -4.24,-2.4237 -0.4063,-0.8575 -0.6588,-1.8688 -0.6588,-2.9788 l 0,-9.24 2.275,0 0,9.24 c 0,1.8688 1.0588,3.08 2.6238,3.08 1.5662,0 2.6262,-1.2112 2.6262,-3.08 l 0,-9.24 2.2713,0 0,9.24 c 0,1.11 -0.2525,2.1213 -0.655,2.9788"
       style="fill:#000000;fill-opacity:1;fill-rule:nonzero;stroke:none"
       id="path13132" />
    <path
       inkscape:connector-curvature="0"
       d="m 3489.4034,-8468.6858 -2.5238,-6.715 c 1.3113,-0.6062 2.2213,-2.1212 2.2213,-3.635 0,-1.465 -0.91,-2.98 -2.1725,-3.5862 -0.7063,-0.3538 -1.4625,-0.4538 -2.575,-0.4538 l -4.7475,0 0,14.39 2.2725,0 0,-6.2612 2.7287,0 2.3213,6.2612 2.475,0 z m -2.5764,-10.35 c 0,0.6038 -0.3524,1.21 -0.9074,1.5138 -0.3537,0.2025 -0.6062,0.2525 -1.3125,0.2525 l -2.7287,0 0,-3.535 2.7287,0 c 0.7575,0 0.9588,0.05 1.3125,0.2525 0.555,0.3037 0.9074,0.91 0.9074,1.5162"
       style="fill:#000000;fill-opacity:1;fill-rule:nonzero;stroke:none"
       id="path13136" />
    <path
       inkscape:connector-curvature="0"
       d="m 3499.552,-8468.6858 -5.505,-9.7462 0,9.7462 -2.2712,0 0,-14.39 2.2712,0 5.2513,9.19 0,-9.19 2.2737,0 0,14.39 -2.02,0 z"
       style="fill:#000000;fill-opacity:1;fill-rule:nonzero;stroke:none"
       id="path13140" />
    <path
       inkscape:connector-curvature="0"
       d="m 3455.4733,-8452.7795 c 0,-1.8175 -0.3538,-3.635 -0.96,-4.8975 -0.91,-1.7675 -2.17,-2.5763 -3.9899,-2.5763 -1.665,0 -2.8275,0.5063 -3.685,1.6163 -0.9588,1.3637 -1.5663,3.4837 -1.5663,5.8575 0,1.7175 0.4063,3.6362 1.01,4.8475 0.8575,1.7675 2.1213,2.575 4.14,2.575 1.5163,0 2.6775,-0.5038 3.4875,-1.615 1.0063,-1.2625 1.5638,-3.535 1.5638,-5.8075 m -2.2725,0 c 0,1.1112 -0.2538,2.525 -0.5563,3.2825 -0.5038,1.2625 -1.16,1.8175 -2.2225,1.8175 -0.9062,0 -1.5137,-0.3538 -1.9687,-1.1113 -0.555,-0.9087 -0.8575,-2.4737 -0.8575,-3.9887 0,-1.2113 0.2012,-2.5238 0.555,-3.3825 0.5037,-1.2625 1.2125,-1.8188 2.3225,-1.7675 0.8587,0.05 1.4137,0.3525 1.87,1.11 0.555,0.96 0.8575,2.4237 0.8575,4.04"
       style="fill:#000000;fill-opacity:1;fill-rule:nonzero;stroke:none"
       id="path13144" />
    <path
       inkscape:connector-curvature="0"
       d="m 3466.3796,-8445.6083 -5.5037,-9.7463 0,9.7463 -2.2751,0 0,-14.3912 2.2751,0 5.2512,9.19 0,-9.19 2.2713,0 0,14.3912 -2.0188,0 z"
       style="fill:#000000;fill-opacity:1;fill-rule:nonzero;stroke:none"
       id="path13148" />
    <path
       inkscape:connector-curvature="0"
       d="m 3488.7683,-8445.6083 -2.525,-6.7162 c 1.3137,-0.6063 2.2225,-2.1213 2.2225,-3.6363 0,-1.4637 -0.9088,-2.9788 -2.1713,-3.585 -0.7075,-0.3525 -1.465,-0.4537 -2.5762,-0.4537 l -4.745,0 0,14.3912 2.2725,0 0,-6.2625 2.725,0 2.3237,6.2625 2.4738,0 z m -2.5738,-10.3525 c 0,0.6062 -0.355,1.2125 -0.91,1.515 -0.3537,0.2025 -0.605,0.2525 -1.3137,0.2525 l -2.725,0 0,-3.535 2.725,0 c 0.7587,0 0.96,0.051 1.3137,0.2538 0.555,0.3025 0.91,0.9087 0.91,1.5137"
       style="fill:#000000;fill-opacity:1;fill-rule:nonzero;stroke:none"
       id="path13152" />
    <path
       inkscape:connector-curvature="0"
       d="m 3491.1408,-8445.6083 0,-14.3912 8.4838,0 0,2.2712 -6.21,0 0,3.535 4.1925,0 0,2.3225 -4.1925,0 0,3.9388 6.665,0 0,2.3237 -8.9388,0 z"
       style="fill:#000000;fill-opacity:1;fill-rule:nonzero;stroke:none"
       id="path13156" />
    <path
       inkscape:connector-curvature="0"
       d="m 3512.2483,-8452.8295 c 0,-2.8275 -0.8575,-5.1 -2.375,-6.4138 -0.7563,-0.605 -1.3125,-0.7562 -2.7763,-0.7562 l -4.645,0 0,14.3912 4.3925,0 0.81,0 c 0.7563,-0.051 1.5139,-0.3037 2.0688,-0.8088 1.6162,-1.2624 2.525,-3.5349 2.525,-6.4124 m -2.3225,0 c 0,1.9187 -0.455,3.4837 -1.3138,4.3425 -0.4025,0.4037 -0.8575,0.555 -1.6149,0.555 l -2.2738,0 0,-9.7963 2.5762,0 c 0.605,0 1.1113,0.2538 1.465,0.6063 0.7063,0.7575 1.1614,2.3737 1.1614,4.2925"
       style="fill:#000000;fill-opacity:1;fill-rule:nonzero;stroke:none"
       id="path13160" />
  </g>
</svg>
