<?xml version="1.0" encoding="UTF-8" standalone="no"?>
<!-- Created with Inkscape (http://www.inkscape.org/) -->

<svg
   xmlns:dc="http://purl.org/dc/elements/1.1/"
   xmlns:cc="http://creativecommons.org/ns#"
   xmlns:rdf="http://www.w3.org/1999/02/22-rdf-syntax-ns#"
   xmlns:svg="http://www.w3.org/2000/svg"
   xmlns="http://www.w3.org/2000/svg"
   xmlns:sodipodi="http://sodipodi.sourceforge.net/DTD/sodipodi-0.dtd"
   xmlns:inkscape="http://www.inkscape.org/namespaces/inkscape"
   width="5410"
   height="2170"
   id="svg2"
   sodipodi:version="0.32"
   inkscape:version="0.48.2 r9819"
   version="1.0"
   sodipodi:docname="AJAX3.svg">
  <defs
     id="defs4">
    <clipPath
       id="Clip0">
      <path
         inkscape:connector-curvature="0"
         d="m 0,0 0,3024.5 2160.5,0 L 2160.5,0 0,0 z"
         transform="translate(0,0.5)"
         id="path7" />
    </clipPath>
    <clipPath
       id="Clip0-1">
      <path
         inkscape:connector-curvature="0"
         d="m 0,0 0,3024.5 2592.5,0 L 2592.5,0 0,0 z"
         transform="translate(0,0.5)"
         id="path7-7" />
    </clipPath>
    <clipPath
       id="Clip0-4">
      <path
         inkscape:connector-curvature="0"
         d="m 0,0 0,1728.5 4320.5,0 L 4320.5,0 0,0 z"
         transform="translate(0,0.5)"
         id="path7-0" />
    </clipPath>
  </defs>
  <sodipodi:namedview
     id="base"
     pagecolor="#ffffff"
     bordercolor="#666666"
     borderopacity="1.0"
     gridtolerance="10000"
     guidetolerance="10"
     objecttolerance="10"
     inkscape:pageopacity="0.0"
     inkscape:pageshadow="2"
     inkscape:zoom="0.087182787"
     inkscape:cx="-1229.1839"
     inkscape:cy="1616.0846"
     inkscape:document-units="px"
     inkscape:current-layer="layer1"
     width="601px"
     height="601px"
     inkscape:window-width="1280"
     inkscape:window-height="1004"
     inkscape:window-x="-8"
     inkscape:window-y="-8"
     showgrid="false"
     fit-margin-top="0"
     fit-margin-left="0"
     fit-margin-right="0"
     fit-margin-bottom="0"
     inkscape:window-maximized="1"
     showguides="true"
     inkscape:guide-bbox="true" />
  <metadata
     id="metadata7">
    <rdf:RDF>
      <cc:Work
         rdf:about="">
        <dc:format>image/svg+xml</dc:format>
        <dc:type
           rdf:resource="http://purl.org/dc/dcmitype/StillImage" />
        <dc:title></dc:title>
      </cc:Work>
    </rdf:RDF>
  </metadata>
  <g
     inkscape:label="Layer 1"
     inkscape:groupmode="layer"
     id="layer1"
     transform="translate(2481.9063,970.53125)">
    <path
       inkscape:connector-curvature="0"
       style="fill:#ffffff;fill-rule:nonzero;stroke:#000000;stroke-width:10;stroke-linecap:butt;stroke-linejoin:miter;stroke-miterlimit:4;stroke-opacity:1;stroke-dasharray:none"
       d="m 2923.0939,1025.7188 c 0,93.2 -75.5501,168.75 -168.75,168.75 l -5062.5002,0 c -93.1981,0 -168.75,-75.55 -168.75,-168.75 l 0,-1822.50005 c 0,-93.1982 75.5519,-168.75 168.75,-168.75 l 5062.5002,0 c 93.1999,0 168.75,75.5518 168.75,168.75 l 0,1822.50005 z"
       id="path11" />
    <path
       inkscape:connector-curvature="0"
       style="fill:#000000;fill-rule:nonzero;stroke:none"
       d="m -2308.1563,1149.4688 c -68.2361,0 -123.75,-55.5125 -123.75,-123.75 l 0,-1822.50005 c 0,-68.2361 55.5139,-123.75 123.75,-123.75 l 5062.5002,0 c 68.2375,0 123.75,55.5139 123.75,123.75 l 0,1822.50005 c 0,68.2375 -55.5125,123.75 -123.75,123.75 l -5062.5002,0 z"
       id="path13" />
    <path
       inkscape:connector-curvature="0"
       style="fill:#ffffff;fill-rule:nonzero;stroke:none"
       d="m 2810.5939,-200.53125 0,-596.25 c 0,-31.0162 -25.2376,-56.25 -56.25,-56.25 l -5062.5002,0 c -31.0162,0 -56.25,25.2338 -56.25,56.25 l 0,596.25 5175.0002,0 z"
       id="path15" />
    <path
       inkscape:connector-curvature="0"
       style="fill:#ffffff;fill-rule:nonzero;stroke:none"
       d="m -2364.4063,-133.03125 0,1158.75005 c 0,31.0125 25.2338,56.25 56.25,56.25 l 5062.5002,0 c 31.0124,0 56.25,-25.2375 56.25,-56.25 l 0,-1158.75005 -5175.0002,0 z"
       id="path17" />
    <g
       transform="matrix(1.25,0,0,1.25,-2477.2188,-966.4687)"
       id="Background"
       style="fill:#000000;stroke:none">
      <g
         id="Group1"
         clip-path="url(#Clip0-4)"
         style="fill:#000000;stroke:none">
        <path
           inkscape:connector-curvature="0"
           style="fill:#000000;fill-rule:nonzero;stroke:none"
           d="m 179.22,288.003 0,-166.738 -66.829,166.738 -66.827,-166.738 0,166.738 L 0,288.003 0,0 45.564,0 112.391,161.687 179.22,0 l 45.563,0 0,288.003 -45.563,0 z"
           transform="translate(475.843,207.749)"
           id="path19" />
        <path
           inkscape:connector-curvature="0"
           style="fill:#000000;fill-rule:nonzero;stroke:none"
           d="M 0,288.003 0,0 l 169.549,0 0,45.475 -124.135,0 0,70.737 83.768,0 0,46.486 -83.768,0 0,78.821 133.219,0 0,46.484 -178.633,0 z"
           transform="translate(248.249,207.749)"
           id="path21" />
        <path
           inkscape:connector-curvature="0"
           style="fill:#000000;fill-rule:nonzero;stroke:none"
           d="M 155.63,288.002 45.47,92.969 l 0,195.033 -45.47,0 L 0,0 45.47,0 150.57,183.918 150.57,0 l 45.48,0 0,288.002 -40.42,0 z"
           transform="translate(1723.61,207.75)"
           id="path23" />
        <path
           inkscape:connector-curvature="0"
           style="fill:#000000;fill-rule:nonzero;stroke:none"
           d="m 126.318,50.527 c -7.07,-4.043 -11.11,-5.053 -26.27,-5.053 l -54.57,0 0,70.736 54.57,0 c 14.15,0 19.2,-1.009 26.27,-5.05 11.12,-6.065 18.2,-18.191 18.2,-30.317 0,-12.126 -7.08,-24.254 -18.2,-30.316 z m 20.22,237.473 -46.49,-125.306 -54.57,0 0,125.306 L 0,288 0,0 94.998,0 c 22.23,0 37.39,2.021 51.54,9.095 25.26,12.127 43.45,42.442 43.45,71.748 0,30.317 -18.19,60.631 -44.46,72.759 l 50.53,134.398 -49.52,0 z"
           transform="translate(997.342,207.75)"
           id="path25" />
        <path
           inkscape:connector-curvature="0"
           style="fill:#000000;fill-rule:nonzero;stroke:none"
           d="m 147.27,162.696 0,125.305 -45.7,0 0,-125.305 L 0,0 54.85,0 123.91,111.158 193.99,0 247.82,0 147.27,162.696 z"
           transform="translate(2216.52,207.749)"
           id="path27" />
        <path
           inkscape:connector-curvature="0"
           style="fill:#000000;fill-rule:nonzero;stroke:none"
           d="M 0,288.002 0,0 l 169.549,0 0,45.474 -124.135,0 0,70.737 83.768,0 0,46.485 -83.768,0 0,78.822 133.219,0 0,46.484 -178.633,0 z"
           transform="translate(769.749,207.75)"
           id="path29" />
        <path
           inkscape:connector-curvature="0"
           style="fill:#000000;fill-rule:nonzero;stroke:none"
           d="M 0,288.002 0,0 l 169.55,0 0,45.474 -124.13,0 0,70.737 83.76,0 0,46.485 -83.76,0 0,78.822 133.22,0 0,46.484 -178.64,0 z"
           transform="translate(1496.01,207.75)"
           id="path31" />
        <path
           inkscape:connector-curvature="0"
           style="fill:#000000;fill-rule:nonzero;stroke:none"
           d="M 109.15,298.106 C 66.7,298.106 39.42,281.937 21.23,246.57 8.09,221.305 0,184.927 0,148.547 0,103.073 12.13,57.599 32.34,32.336 49.52,11.115 73.78,0 106.12,0 c 43.45,0 70.74,18.19 89.94,58.611 L 153.61,76.8 C 137.44,52.547 128.35,46.484 106.12,46.484 c -23.25,0 -38.41,10.105 -48.51,35.369 -7.08,17.178 -11.12,42.442 -11.12,66.694 0,31.327 7.07,62.653 18.19,80.842 10.11,15.159 23.24,22.233 43.46,22.233 19.2,0 33.35,-10.106 44.46,-33.348 l 43.46,16.168 c -17.18,42.444 -45.48,63.664 -86.91,63.664 z"
           transform="translate(1983.02,202.698)"
           id="path33" />
        <path
           inkscape:connector-curvature="0"
           style="fill:#000000;fill-rule:nonzero;stroke:none"
           d="m 105.1,298.106 c -43.45,0 -68.72,-16.169 -85.9,-52.549 C 7.07,220.296 0,184.927 0,149.558 0,103.073 13.14,57.599 32.34,32.336 49.52,11.115 73.77,0 106.11,0 c 44.47,0 70.74,18.19 89.94,63.664 L 152.6,80.842 C 140.47,55.578 128.34,46.484 106.11,46.484 c -23.24,0 -38.4,10.105 -48.51,35.369 -7.07,17.178 -11.12,43.452 -11.12,67.705 0,30.316 5.06,60.632 14.15,78.822 9.1,16.168 22.24,23.242 39.42,23.242 29.3,0 50.53,-18.19 50.53,-44.463 l 0,-12.127 -52.55,0 0,-45.474 98.02,0 0,57.601 c 0,52.547 -38.4,90.947 -90.95,90.947 z"
           transform="translate(1236.6,202.698)"
           id="path35" />
        <path
           inkscape:connector-curvature="0"
           style="fill:#000000;fill-rule:nonzero;stroke:none"
           d="M 155.63,288.002 45.47,92.969 l 0,195.033 -45.47,0 L 0,0 45.47,0 150.58,183.918 150.58,0 l 45.47,0 0,288.002 -40.42,0 z"
           transform="translate(3366.22,207.75)"
           id="path37" />
        <path
           inkscape:connector-curvature="0"
           style="fill:#000000;fill-rule:nonzero;stroke:none"
           d="M 0,288.002 0,0 l 46.08,0 0,288.002 -46.08,0 z"
           transform="translate(2997.36,207.75)"
           id="path39" />
        <path
           inkscape:connector-curvature="0"
           style="fill:#000000;fill-rule:nonzero;stroke:none"
           d="M 0,288.003 0,0 l 45.41,0 0,245.562 133.22,0 0,42.441 -178.63,0 z"
           transform="translate(3893.62,207.749)"
           id="path41" />
        <path
           inkscape:connector-curvature="0"
           style="fill:#000000;fill-rule:nonzero;stroke:none"
           d="m 167.76,275.874 c -16.17,14.148 -38.4,22.232 -62.65,22.232 -49.52,0 -85.9,-29.305 -105.11,-72.758 L 43.46,209.18 c 12.13,27.284 34.36,42.442 61.65,42.442 26.27,0 44.46,-18.19 44.46,-42.442 0,-38.4 -44.46,-44.462 -81.86,-59.621 C 50.54,142.485 12.13,125.307 12.13,77.811 12.13,21.222 50.54,0 102.08,0 c 40.42,0 67.71,23.242 81.85,58.612 l -40.42,12.125 c 0,0 -10.11,-24.252 -42.45,-25.262 -21.22,-1.011 -46.48,7.072 -44.46,33.347 4.04,53.558 139.46,18.19 139.46,131.368 0,26.274 -10.11,49.516 -28.3,65.684 z"
           transform="translate(2752.34,202.345)"
           id="path43" />
        <path
           inkscape:connector-curvature="0"
           style="fill:#000000;fill-rule:nonzero;stroke:none"
           d="m 122.98,79.833 -29.47,80.843 57.93,0 -28.46,-80.843 z m 73.18,208.169 -28.46,-80.842 -90.45,0 -28.46,80.842 -48.79,0 L 99.61,0 l 45.73,0 99.61,288.002 -48.79,0 z"
           transform="translate(3605.47,207.75)"
           id="path45" />
        <path
           inkscape:connector-curvature="0"
           style="fill:#000000;fill-rule:nonzero;stroke:none"
           d="m 105.1,298.107 c -43.45,0 -68.72,-16.17 -85.9,-52.549 C 7.07,220.296 0,184.927 0,149.558 0,103.074 13.14,57.6 32.34,32.337 49.52,11.116 73.77,0 106.11,0 c 44.47,0 70.75,18.191 89.94,63.664 L 152.6,80.843 C 140.47,55.579 128.35,46.484 106.11,46.484 c -23.24,0 -38.4,10.106 -48.51,35.369 -7.07,17.179 -11.11,43.453 -11.11,67.705 0,30.316 5.05,60.633 14.14,78.822 9.1,16.168 22.24,23.242 39.42,23.242 29.31,0 50.53,-18.189 50.53,-44.463 l 0,-12.127 -52.55,0 0,-45.474 98.02,0 0,57.601 c 0,52.547 -38.4,90.948 -90.95,90.948 z"
           transform="translate(3106.8,202.698)"
           id="path47" />
        <path
           inkscape:connector-curvature="0"
           style="fill:#000000;fill-rule:nonzero;stroke:none"
           d="M 155.63,288.001 45.47,92.969 l 0,195.032 -45.47,0 L 0,0 45.47,0 150.57,183.917 150.57,0 l 45.48,0 0,288.001 -40.42,0 z"
           transform="translate(2789.82,792.749)"
           id="path49" />
        <path
           inkscape:connector-curvature="0"
           style="fill:#000000;fill-rule:nonzero;stroke:none"
           d="M 141.82,68.716 C 132.71,53.557 121.56,47.496 104.34,46.484 82.05,45.473 67.87,56.589 57.74,81.852 50.65,99.032 46.6,125.305 46.6,149.556 c 0,30.317 6.08,61.643 17.22,79.833 9.12,15.16 21.27,22.23 39.51,22.23 21.27,0 34.44,-11.12 44.57,-36.38 6.08,-15.155 11.14,-43.45 11.14,-65.683 0,-32.335 -6.08,-61.639 -17.22,-80.84 z m 31.4,197.053 c -16.2,22.23 -39.5,32.34 -69.89,32.34 -40.52,0 -65.85,-16.17 -83.07,-51.54 C 8.11,222.319 0,183.916 0,149.556 0,102.063 12.16,59.622 31.41,32.337 48.63,10.104 71.93,0 105.35,0 c 36.47,0 61.8,16.169 80.03,51.537 12.16,25.263 19.25,61.642 19.25,98.019 0,45.475 -11.15,90.943 -31.41,116.213 z"
           transform="translate(2521.83,788.051)"
           id="path51" />
        <path
           inkscape:connector-curvature="0"
           style="fill:#000000;fill-rule:nonzero;stroke:none"
           d="M 141.81,68.716 C 132.7,53.557 121.55,47.496 104.33,46.484 82.05,45.473 67.87,56.589 57.74,81.852 c -7.1,17.18 -11.15,43.453 -11.15,67.704 0,30.317 6.08,61.643 17.22,79.833 9.12,15.16 21.28,22.23 39.51,22.23 21.27,0 34.44,-11.12 44.57,-36.38 6.08,-15.155 11.14,-43.45 11.14,-65.683 0,-32.335 -6.07,-61.639 -17.22,-80.84 z m 31.41,197.053 c -16.21,22.23 -39.51,32.34 -69.9,32.34 -40.52,0 -65.85,-16.17 -83.07,-51.54 C 8.1,222.319 0,183.916 0,149.556 0,102.063 12.15,59.622 31.4,32.337 48.62,10.104 71.92,0 105.35,0 c 36.46,0 61.79,16.169 80.02,51.537 12.16,25.263 19.25,61.642 19.25,98.019 0,45.475 -11.14,90.943 -31.4,116.213 z"
           transform="translate(1769.8,788.051)"
           id="path53" />
        <path
           inkscape:connector-curvature="0"
           style="fill:#000000;fill-rule:nonzero;stroke:none"
           d="M 132.39,50.525 C 124.3,46.484 119.25,45.473 105.1,45.473 l -59.63,0 0,70.738 59.63,0 c 14.15,0 19.2,-1.012 27.29,-5.053 10.1,-5.053 17.18,-18.189 17.18,-30.316 0,-12.127 -7.08,-24.252 -17.18,-30.317 z m 19.2,102.064 c -13.14,6.062 -30.32,10.105 -52.55,10.105 l -53.57,0 0,125.307 -45.47,0 L 0,0 99.04,0 c 23.24,0 38.4,2.022 52.55,9.094 25.26,12.127 44.46,42.443 44.46,71.748 0,30.316 -19.2,60.633 -44.46,71.747 z"
           transform="translate(2037.78,792.749)"
           id="path55" />
        <path
           inkscape:connector-curvature="0"
           style="fill:#000000;fill-rule:nonzero;stroke:none"
           d="m 111.65,40.422 0,247.58 -45.67,0 0,-247.58 L 0,40.422 0,0 l 178.63,0 0,40.422 -66.98,0 z"
           transform="translate(1553.72,792.748)"
           id="path57" />
        <path
           inkscape:connector-curvature="0"
           style="fill:#000000;fill-rule:nonzero;stroke:none"
           d="m 167.76,275.876 c -16.17,14.15 -38.4,22.23 -62.66,22.23 -49.52,0 -85.9,-29.31 -105.1,-72.76 l 43.45,-16.167 c 12.13,27.287 34.36,42.437 61.65,42.437 26.28,0 44.47,-18.18 44.47,-42.437 0,-38.4 -44.47,-44.462 -81.86,-59.621 C 50.53,142.484 12.13,125.306 12.13,77.81 12.13,21.22 50.53,0 102.07,0 c 40.42,0 67.71,23.242 81.86,58.611 L 143.5,70.736 c 0,0 -10.1,-24.252 -42.44,-25.262 -21.22,-1.011 -46.49,7.073 -44.47,33.348 4.05,53.557 139.46,18.189 139.46,131.367 0,26.277 -10.1,49.517 -28.29,65.687 z"
           transform="translate(1334.63,787.344)"
           id="path59" />
        <path
           inkscape:connector-curvature="0"
           style="fill:#000000;fill-rule:nonzero;stroke:none"
           d="M 155.63,288 45.48,92.97 45.48,288 0,288 0,0 l 45.48,0 105.1,183.92 0,-183.92 45.48,0 0,288 -40.43,0 z"
           transform="translate(2109.74,1224.75)"
           id="path61" />
        <path
           inkscape:connector-curvature="0"
           style="fill:#000000;fill-rule:nonzero;stroke:none"
           d="M 0,288 0,0 46.08,0 46.08,288 0,288 z"
           transform="translate(1994.54,1224.75)"
           id="path63" />
        <path
           inkscape:connector-curvature="0"
           style="fill:#000000;fill-rule:nonzero;stroke:none"
           d="M 0,288 0,0 l 45.41,0 0,245.56 133.22,0 0,42.44 L 0,288 z"
           transform="translate(1020.46,1224.75)"
           id="path65" />
        <path
           inkscape:connector-curvature="0"
           style="fill:#000000;fill-rule:nonzero;stroke:none"
           d="m 167.76,275.88 c -16.17,14.15 -38.4,22.23 -62.66,22.23 C 55.58,298.11 19.2,268.8 0,225.35 l 43.46,-16.17 c 12.12,27.29 34.36,42.44 61.64,42.44 26.28,0 44.47,-18.18 44.47,-42.44 0,-38.4 -44.47,-44.46 -81.86,-59.62 C 50.53,142.49 12.13,125.31 12.13,77.81 12.13,21.22 50.53,0 102.07,0 c 40.42,0 67.71,23.25 81.86,58.62 l -40.42,12.12 c 0,0 -10.11,-24.25 -42.45,-25.26 -21.22,-1.01 -46.49,7.07 -44.47,33.35 4.05,53.55 139.47,18.19 139.47,131.36 0,26.28 -10.11,49.52 -28.3,65.69 z"
           transform="translate(1484.35,1219.34)"
           id="path67" />
        <path
           inkscape:connector-curvature="0"
           style="fill:#000000;fill-rule:nonzero;stroke:none"
           d="m 150.58,288 0,-125.31 -105.11,0 0,125.31 L 0,288 0,0 l 45.47,0 0,116.21 105.11,0 0,-116.21 45.47,0 0,288 -45.47,0 z"
           transform="translate(1729.37,1224.75)"
           id="path69" />
        <path
           inkscape:connector-curvature="0"
           style="fill:#000000;fill-rule:nonzero;stroke:none"
           d="m 122.98,79.83 -29.48,80.84 57.94,0 -28.46,-80.84 z M 196.16,288 167.7,207.16 77.24,207.16 48.78,288 0,288 99.6,0 l 45.74,0 99.6,288 -48.78,0 z"
           transform="translate(1216.37,1224.75)"
           id="path71" />
        <path
           inkscape:connector-curvature="0"
           style="fill:#000000;fill-rule:nonzero;stroke:none"
           d="m 45.416,45.47 0,70.74 83.764,0 0,46.48 -83.764,0 0,125.31 L 0,288 0,0 l 178.633,0 0,45.47 -133.217,0 z"
           transform="translate(798.622,1224.75)"
           id="path73" />
        <path
           inkscape:connector-curvature="0"
           style="fill:#000000;fill-rule:nonzero;stroke:none"
           d="M 105.1,298.1 C 61.65,298.1 36.38,281.93 19.2,245.55 7.07,220.29 0,184.92 0,149.55 0,103.07 13.14,57.6 32.34,32.33 49.52,11.11 73.77,0 106.11,0 c 44.47,0 70.74,18.19 89.94,63.66 L 152.6,80.84 C 140.47,55.58 128.34,46.48 106.11,46.48 c -23.24,0 -38.4,10.11 -48.51,35.37 -7.07,17.18 -11.11,43.45 -11.11,67.7 0,30.32 5.05,60.64 14.14,78.83 9.1,16.16 22.24,23.24 39.42,23.24 29.3,0 50.53,-18.19 50.53,-44.46 l 0,-12.13 -52.55,0 0,-45.48 98.02,0 0,57.61 c 0,52.54 -38.4,90.94 -90.95,90.94 z"
           transform="translate(2369.16,1219.7)"
           id="path75" />
        <path
           inkscape:connector-curvature="0"
           style="fill:#000000;fill-rule:nonzero;stroke:none"
           d="m 126.33,50.53 c -7.08,-4.05 -11.12,-5.06 -26.28,-5.06 l -54.57,0 0,70.74 54.57,0 c 14.15,0 19.2,-1.01 26.28,-5.05 11.12,-6.06 18.19,-18.19 18.19,-30.32 0,-12.12 -7.07,-24.25 -18.19,-30.31 z M 146.54,288 100.05,162.69 l -54.57,0 0,125.31 L 0,288 0,0 95,0 c 22.23,0 37.39,2.02 51.54,9.1 25.26,12.12 43.46,42.44 43.46,71.74 0,30.32 -18.2,60.63 -44.47,72.76 l 50.53,134.4 -49.52,0 z"
           transform="translate(2853.21,1224.75)"
           id="path77" />
        <path
           inkscape:connector-curvature="0"
           style="fill:#000000;fill-rule:nonzero;stroke:none"
           d="M 126.33,57.6 C 119.25,50.53 109.15,45.47 97.02,45.47 l -51.54,0 0,196.05 45.48,0 c 15.16,0 24.25,-3.03 32.33,-11.12 17.19,-17.18 26.28,-48.51 26.28,-86.91 0,-38.4 -9.09,-70.73 -23.24,-85.89 z m 19.2,214.23 c -11.12,10.11 -26.28,15.16 -41.44,16.17 -3.03,0 -9.09,0 -16.16,0 L 0,288 0,0 92.98,0 c 29.3,0 40.42,3.03 55.58,15.16 30.32,26.27 47.5,71.75 47.5,128.33 0,57.6 -18.19,103.08 -50.53,128.34 z"
           transform="translate(3325.82,1224.75)"
           id="path79" />
        <path
           inkscape:connector-curvature="0"
           style="fill:#000000;fill-rule:nonzero;stroke:none"
           d="M 0,288 0,0 l 169.55,0 0,45.47 -124.14,0 0,70.74 83.77,0 0,46.49 -83.77,0 0,78.82 133.22,0 0,46.48 L 0,288 z"
           transform="translate(3098.23,1224.75)"
           id="path81" />
      </g>
    </g>
  </g>
</svg>
