<?xml version="1.0" encoding="UTF-8" standalone="no"?>
<!-- Generator: Adobe Illustrator 12.0.1, SVG Export Plug-In  -->

<svg
   xmlns:dc="http://purl.org/dc/elements/1.1/"
   xmlns:cc="http://creativecommons.org/ns#"
   xmlns:rdf="http://www.w3.org/1999/02/22-rdf-syntax-ns#"
   xmlns:svg="http://www.w3.org/2000/svg"
   xmlns="http://www.w3.org/2000/svg"
   xmlns:sodipodi="http://sodipodi.sourceforge.net/DTD/sodipodi-0.dtd"
   xmlns:inkscape="http://www.inkscape.org/namespaces/inkscape"
   version="1.1"
   width="226"
   height="282.09375"
   viewBox="-1 0 226 282.09375"
   enable-background="new -1 0 289 288"
   xml:space="preserve"
   id="svg2"
   inkscape:version="0.48.2 r9819"
   sodipodi:docname="MUTCD R10-6a.svg"><metadata
   id="metadata22"><rdf:RDF><cc:Work
       rdf:about=""><dc:format>image/svg+xml</dc:format><dc:type
         rdf:resource="http://purl.org/dc/dcmitype/StillImage" /><dc:title></dc:title></cc:Work></rdf:RDF></metadata><sodipodi:namedview
   pagecolor="#ffffff"
   bordercolor="#666666"
   borderopacity="1"
   objecttolerance="10"
   gridtolerance="10"
   guidetolerance="10"
   inkscape:pageopacity="0"
   inkscape:pageshadow="2"
   inkscape:window-width="1280"
   inkscape:window-height="1004"
   id="namedview20"
   showgrid="false"
   fit-margin-top="0"
   fit-margin-left="0"
   fit-margin-right="0"
   fit-margin-bottom="0"
   inkscape:zoom="1.638889"
   inkscape:cx="78.427246"
   inkscape:cy="77.629072"
   inkscape:window-x="-8"
   inkscape:window-y="-8"
   inkscape:window-maximized="1"
   inkscape:current-layer="svg2"
   showguides="true"
   inkscape:guide-bbox="true" />
<defs
   id="defs4">
</defs>







<path
   inkscape:connector-curvature="0"
   d="m 224.23464,267.3265 c 0,7.7175 -6.31375,14.03 -14.03,14.03 l -196.42875,0 c -7.71625,0 -14.03,-6.3125 -14.03,-14.03 l 0,-252.55 c 0,-7.7175 6.31375,-14.03125 14.03,-14.03125 l 196.42875,0 c 7.71625,0 14.03,6.31375 14.03,14.03125 l 0,252.55 z"
   style="fill:#ffffff;fill-opacity:1;fill-rule:nonzero;stroke:#000000;stroke-width:1.5;stroke-miterlimit:4;stroke-opacity:1;stroke-dasharray:none"
   id="path13388" /><path
   inkscape:connector-curvature="0"
   d="m 210.204,4.25325 -196.4275,0 c -5.7875,0 -10.52375,4.735 -10.52375,10.5225 l 0,252.55125 c 0,5.7875 4.73625,10.5225 10.52375,10.5225 l 196.4275,0 c 5.7875,0 10.5225,-4.735 10.5225,-10.5225 l 0,-252.55125 c 0,-5.7875 -4.735,-10.5225 -10.5225,-10.5225 m 4.6775,263.07375 c 0,2.57125 -2.105,4.67625 -4.6775,4.67625 l -196.4275,0 c -2.5725,0 -4.6775,-2.105 -4.6775,-4.67625 l 0,-252.55125 c 0,-2.57125 2.105,-4.67625 4.6775,-4.67625 l 196.4275,0 c 2.5725,0 4.6775,2.105 4.6775,4.67625 l 0,252.55125 z"
   style="fill:#000000;fill-opacity:1;fill-rule:nonzero;stroke:none"
   id="path13396" /><path
   inkscape:connector-curvature="0"
   d="m 41.89963,96.38214 c -2.07875,1.6625 -4.73875,2.5775 -7.89875,2.5775 l -15.5475,0 0,-56.1225 14.38375,0 c 4.73875,0 7.0675,0.665 9.0625,2.1625 3.32625,2.41125 5.65375,6.73375 6.735,12.3875 0.7475,4.1575 1.33,9.0625 1.33,13.38625 0,13.05375 -2.66,21.2025 -8.065,25.60875 m -1.33,-39.9925 c -1.4975,-3.9075 -3.74125,-5.65375 -7.3175,-5.65375 l -6.73375,0 0,40.325 6.73375,0 c 4.74,0 7.4,-3.65875 8.065,-8.065 0.49875,-3.4925 0.74875,-7.4825 0.74875,-11.80625 0,-6.31875 -0.665,-12.38875 -1.49625,-14.8"
   style="fill:#000000;fill-opacity:1;fill-rule:nonzero;stroke:none"
   id="path13400" /><path
   inkscape:connector-curvature="0"
   d="m 83.96987,90.31249 c -2.82625,6.65125 -6.90125,9.645 -13.13625,9.645 -6.735,0 -10.6425,-2.99375 -13.38625,-9.645 -2.32875,-5.57125 -3.16,-10.80875 -3.16,-19.53875 0,-8.48125 0.74875,-14.135 3.16,-19.45625 2.91,-6.73375 6.9,-9.4775 13.38625,-9.4775 6.485,0 10.31,2.82625 13.13625,9.64375 2.3275,5.57125 3.16,10.80875 3.16,19.29 0,8.73 -0.8325,14.135 -3.16,19.53875 m -6.23625,-33.5075 c -1.4125,-4.905 -3.575,-7.06625 -6.9,-7.06625 -3.57625,0 -5.65375,2.16125 -7.15125,6.9 -1.24625,4.32375 -1.74625,8.065 -1.74625,14.38375 0,6.07 0.5,9.645 1.74625,14.135 1.33125,4.73875 3.575,6.90125 7.15125,6.90125 3.325,0 5.4875,-2.1625 6.9,-6.90125 1.33125,-4.49 1.74625,-7.89875 1.74625,-14.38375 0,-6.23625 -0.58125,-9.81125 -1.74625,-13.96875"
   style="fill:#000000;fill-opacity:1;fill-rule:nonzero;stroke:none"
   id="path13404" /><path
   inkscape:connector-curvature="0"
   d="m 134.0345,98.9595 -17.3775,-37.58125 0,37.58125 -8.065,0 0,-56.1225 8.065,0 15.3825,33.67375 0,-33.67375 8.065,0 0,56.1225 -6.07,0 z"
   style="fill:#000000;fill-opacity:1;fill-rule:nonzero;stroke:none"
   id="path13408" /><path
   inkscape:connector-curvature="0"
   d="m 175.19012,90.31249 c -2.8275,6.65125 -6.90125,9.645 -13.13625,9.645 -6.735,0 -10.6425,-2.99375 -13.38625,-9.645 -2.32875,-5.57125 -3.16,-10.80875 -3.16,-19.53875 0,-8.48125 0.74875,-14.135 3.16,-19.45625 2.91,-6.73375 6.9,-9.4775 13.38625,-9.4775 6.485,0 10.30875,2.82625 13.13625,9.64375 2.32875,5.57125 3.16,10.80875 3.16,19.29 0,8.73 -0.83125,14.135 -3.16,19.53875 m -6.23625,-33.5075 c -1.4125,-4.905 -3.575,-7.06625 -6.9,-7.06625 -3.57625,0 -5.65375,2.16125 -7.15125,6.9 -1.24625,4.32375 -1.74625,8.065 -1.74625,14.38375 0,6.07 0.5,9.645 1.74625,14.135 1.33125,4.73875 3.575,6.90125 7.15125,6.90125 3.325,0 5.4875,-2.1625 6.9,-6.90125 1.33125,-4.49 1.74625,-7.89875 1.74625,-14.38375 0,-6.23625 -0.58125,-9.81125 -1.74625,-13.96875"
   style="fill:#000000;fill-opacity:1;fill-rule:nonzero;stroke:none"
   id="path13412" /><path
   inkscape:connector-curvature="0"
   d="m 197.639,50.32025 0,48.63875 -8.14875,0 0,-48.63875 -10.22625,0 0,-7.4825 28.60125,0 0,7.4825 -10.22625,0 z"
   style="fill:#000000;fill-opacity:1;fill-rule:nonzero;stroke:none"
   id="path13416" /><path
   inkscape:connector-curvature="0"
   d="m 34.34725,187.81987 -16.54625,0 0,-56.1225 17.71,0 c 7.48375,0 12.805,5.90375 12.805,14.55 0,5.155 -1.33125,7.48375 -5.90375,12.2225 4.32375,3.575 6.90125,8.315 6.90125,13.96875 0,8.48 -6.65125,15.38125 -14.96625,15.38125 m 0,-48.22375 -8.48125,0 0,14.96625 8.48125,0 c 3.74125,0 6.1525,-3.16 6.1525,-8.315 0,-4.73875 -1.82875,-6.65125 -6.1525,-6.65125 m -0.41625,22.78125 -8.065,0 0,17.54375 8.065,0 c 4.57375,0 7.48375,-3.16 7.48375,-8.065 0,-5.32125 -3.32625,-9.47875 -7.48375,-9.47875"
   style="fill:#000000;fill-opacity:1;fill-rule:nonzero;stroke:none"
   id="path13420" /><path
   inkscape:connector-curvature="0"
   d="m 58.04237,187.81987 0,-56.1225 8.065,0 0,48.64 20.53625,0 0,7.4825 -28.60125,0 z"
   style="fill:#000000;fill-opacity:1;fill-rule:nonzero;stroke:none"
   id="path13424" /><path
   inkscape:connector-curvature="0"
   d="m 122.22861,179.17287 c -2.8275,6.65125 -6.90125,9.645 -13.13625,9.645 -6.735,0 -10.6425,-2.99375 -13.38625,-9.645 -2.32875,-5.57 -3.16,-10.80875 -3.16,-19.53875 0,-8.48125 0.74875,-14.135 3.16,-19.45625 2.91,-6.73375 6.9,-9.4775 13.38625,-9.4775 6.485,0 10.30875,2.82625 13.13625,9.64375 2.3275,5.57125 3.16,10.80875 3.16,19.29 0,8.73 -0.8325,14.135 -3.16,19.53875 m -6.23625,-33.5075 c -1.41375,-4.905 -3.575,-7.06625 -6.9,-7.06625 -3.57625,0 -5.65375,2.16125 -7.15125,6.9 -1.2475,4.32375 -1.74625,8.065 -1.74625,14.38375 0,6.07 0.49875,9.645 1.74625,14.135 1.33125,4.73875 3.575,6.90125 7.15125,6.90125 3.325,0 5.48625,-2.1625 6.9,-6.90125 1.33125,-4.49 1.74625,-7.89875 1.74625,-14.38375 0,-6.23625 -0.5825,-9.81125 -1.74625,-13.96875"
   style="fill:#000000;fill-opacity:1;fill-rule:nonzero;stroke:none"
   id="path13428" /><path
   inkscape:connector-curvature="0"
   d="m 151.99412,188.81749 c -11.9725,0 -17.29375,-9.645 -17.29375,-30.3475 0,-18.125 5.65375,-27.77 16.71125,-27.77 9.3125,0 14.135,8.31375 14.55125,15.96375 l -8.065,0 c -0.74875,-5.4875 -2.91125,-8.065 -6.6525,-8.065 -6.485,0 -8.89625,5.07125 -8.89625,19.705 0,16.13 2.74375,22.615 9.645,22.615 4.73875,0 5.90375,-3.9075 5.90375,-8.065 l 8.065,0 c -0.16625,9.22875 -6.07,15.96375 -13.96875,15.96375"
   style="fill:#000000;fill-opacity:1;fill-rule:nonzero;stroke:none"
   id="path13432" /><path
   inkscape:connector-curvature="0"
   d="m 199.38513,187.81987 -9.81125,-27.35375 -5.155,9.395 0,17.95875 -8.065,0 0,-56.1225 8.065,0 0,22.44875 12.805,-22.44875 9.31125,0 -11.64,19.705 12.97,36.4175 -8.48,0 z"
   style="fill:#000000;fill-opacity:1;fill-rule:nonzero;stroke:none"
   id="path13436" /><path
   inkscape:connector-curvature="0"
   d="m 14.8175,211.20375 4.7675,0 0,37.4175 -4.7675,0 0,-37.4175 z"
   style="fill:#000000;fill-opacity:1;fill-rule:nonzero;stroke:none"
   id="path13438" /><path
   inkscape:connector-curvature="0"
   d="m 36.87963,248.62137 -7.3175,-22.17375 0,22.17375 -4.7675,0 0,-37.4175 4.7675,0 6.6525,18.625 0,-18.625 4.7675,0 0,37.4175 -4.1025,0 z"
   style="fill:#000000;fill-opacity:1;fill-rule:nonzero;stroke:none"
   id="path13442" /><path
   inkscape:connector-curvature="0"
   d="m 52.51125,216.08199 0,32.53875 -4.71125,0 0,-32.53875 -4.60125,0 0,-4.8775 14.19125,0 0,4.8775 -4.87875,0 z"
   style="fill:#000000;fill-opacity:1;fill-rule:nonzero;stroke:none"
   id="path13446" /><path
   inkscape:connector-curvature="0"
   d="m 59.60624,248.62137 0,-37.4175 13.8025,0 0,4.87875 -9.035,0 0,9.59 5.98625,0 0,4.98875 -5.98625,0 0,13.0825 9.53375,0 0,4.8775 -14.30125,0 z"
   style="fill:#000000;fill-opacity:1;fill-rule:nonzero;stroke:none"
   id="path13450" /><path
   inkscape:connector-curvature="0"
   d="m 89.15225,229.99588 3.77,18.625 -4.82375,0 -4.2125,-17.46125 -2.2175,0 0,17.46125 -4.7675,0 0,-37.4175 7.37375,0 c 5.765,0 8.81375,3.54875 8.81375,10.4775 0,4.2125 -1.22,6.59625 -3.93625,8.315 m -5.155,-13.91375 -2.32875,0 0,10.2 3.105,0 c 2.66,0 3.43625,-1.165 3.43625,-4.7125 0,-4.2125 -0.9425,-5.4875 -4.2125,-5.4875"
   style="fill:#000000;fill-opacity:1;fill-rule:nonzero;stroke:none"
   id="path13454" /><path
   inkscape:connector-curvature="0"
   d="m 102.0675,249.28662 c -6.0425,0 -8.0375,-4.60125 -8.26,-9.97875 l 4.82375,0 c 0,2.2175 0.665,5.10125 3.43625,5.10125 2.1625,0 2.99375,-1.885 2.99375,-3.77 0,-3.99125 -1.4975,-6.43 -4.38,-9.8675 -2.9375,-3.4925 -5.98625,-6.43 -5.98625,-11.3075 0,-4.49125 2.71625,-8.75875 7.65,-8.75875 5.4325,0 7.15125,4.04625 7.59375,8.75875 l -4.8775,0 c -0.0562,-1.775 -0.38875,-4.0475 -2.60625,-4.0475 -2.21625,0 -2.8825,2.2175 -2.8825,4.0475 0,2.49375 2.05125,4.545 4.93375,7.76 4.435,4.87875 5.4325,9.59 5.4325,13.415 0,4.545 -3.10375,8.6475 -7.87125,8.6475"
   style="fill:#000000;fill-opacity:1;fill-rule:nonzero;stroke:none"
   id="path13458" /><path
   inkscape:connector-curvature="0"
   d="m 112.93237,248.62137 0,-37.4175 13.8025,0 0,4.87875 -9.035,0 0,9.59 5.98625,0 0,4.98875 -5.98625,0 0,13.0825 9.53375,0 0,4.8775 -14.30125,0 z"
   style="fill:#000000;fill-opacity:1;fill-rule:nonzero;stroke:none"
   id="path13462" /><path
   inkscape:connector-curvature="0"
   d="m 144.30763,245.628 c -0.9425,1.995 -2.8825,3.65875 -6.54125,3.65875 -3.43625,0 -5.93125,-1.5525 -7.095,-4.98875 -1.05375,-3.16 -1.5525,-8.26 -1.5525,-14.3025 0,-3.43625 0.3875,-8.42625 0.9425,-11.30875 1.0525,-5.765 3.27,-7.98125 7.705,-7.98125 4.2125,0 6.985,2.605 7.3725,7.20625 l -4.8775,0 c -0.11125,-1.6075 -1.05375,-2.38375 -2.32875,-2.38375 -1.71875,0 -2.66,1.21875 -3.16,3.65875 -0.665,3.04875 -0.775,5.82 -0.775,10.80875 0,5.21125 0.11,7.48375 0.775,10.64375 0.5,2.49375 1.44125,3.76875 2.99375,3.76875 1.71875,0 2.495,-1.275 2.495,-4.6 l 4.8775,0 c 0,0 0.11125,3.935 -0.83125,5.82"
   style="fill:#000000;fill-opacity:1;fill-rule:nonzero;stroke:none"
   id="path13466" /><path
   inkscape:connector-curvature="0"
   d="m 155.56,216.08199 0,32.53875 -4.7125,0 0,-32.53875 -4.6,0 0,-4.8775 14.19,0 0,4.8775 -4.8775,0 z"
   style="fill:#000000;fill-opacity:1;fill-rule:nonzero;stroke:none"
   id="path13470" /><path
   inkscape:connector-curvature="0"
   d="m 162.655,211.20375 4.7675,0 0,37.4175 -4.7675,0 0,-37.4175 z"
   style="fill:#000000;fill-opacity:1;fill-rule:nonzero;stroke:none"
   id="path13472" /><path
   inkscape:connector-curvature="0"
   d="m 180.17163,249.28662 c -9.3125,0 -8.6475,-13.24875 -8.6475,-19.4575 0,-6.43 -0.49875,-19.12375 8.6475,-19.12375 9.2025,0 8.70375,12.86 8.70375,19.12375 0,6.20875 0.49875,19.4575 -8.70375,19.4575 m 0,-33.75875 c -4.32375,0 -3.76875,11.69625 -3.76875,14.30125 0,2.495 -0.555,14.58 3.76875,14.58 4.2125,0 3.71375,-12.085 3.71375,-14.58 0,-2.9925 -0.16625,-14.30125 -3.71375,-14.30125"
   style="fill:#000000;fill-opacity:1;fill-rule:nonzero;stroke:none"
   id="path13476" /><path
   inkscape:connector-curvature="0"
   d="m 205.06087,248.62137 -7.3175,-22.17375 0,22.17375 -4.7675,0 0,-37.4175 4.7675,0 6.6525,18.625 0,-18.625 4.7675,0 0,37.4175 -4.1025,0 z"
   style="fill:#000000;fill-opacity:1;fill-rule:nonzero;stroke:none"
   id="path13480" /></svg>