<?xml version="1.0" encoding="UTF-8" standalone="no"?>
<!-- Created with Inkscape (http://www.inkscape.org/) -->

<svg
   xmlns:dc="http://purl.org/dc/elements/1.1/"
   xmlns:cc="http://creativecommons.org/ns#"
   xmlns:rdf="http://www.w3.org/1999/02/22-rdf-syntax-ns#"
   xmlns:svg="http://www.w3.org/2000/svg"
   xmlns="http://www.w3.org/2000/svg"
   xmlns:sodipodi="http://sodipodi.sourceforge.net/DTD/sodipodi-0.dtd"
   xmlns:inkscape="http://www.inkscape.org/namespaces/inkscape"
   id="svg2"
   inkscape:version="0.48.2 r9819"
   height="1360"
   width="820"
   version="1.1"
   sodipodi:docname="AJAX3.svg">
  <defs
     id="defs19" />
  <sodipodi:namedview
     id="base"
     fit-margin-left="0"
     inkscape:zoom="0.1767767"
     borderopacity="1.0"
     inkscape:current-layer="g3763"
     inkscape:cx="701.20779"
     inkscape:cy="724.26456"
     inkscape:window-maximized="1"
     showgrid="false"
     fit-margin-right="0"
     inkscape:document-units="px"
     bordercolor="#666666"
     inkscape:window-x="-8"
     inkscape:guide-bbox="true"
     inkscape:window-y="-8"
     fit-margin-bottom="0"
     inkscape:window-width="1280"
     inkscape:pageopacity="0.0"
     inkscape:pageshadow="2"
     pagecolor="#ffffff"
     showguides="true"
     inkscape:window-height="1004"
     fit-margin-top="0" />
  <metadata
     id="metadata7">
    <rdf:RDF>
      <cc:Work
         rdf:about="">
        <dc:format>image/svg+xml</dc:format>
        <dc:type
           rdf:resource="http://purl.org/dc/dcmitype/StillImage" />
        <dc:title></dc:title>
      </cc:Work>
    </rdf:RDF>
  </metadata>
  <g
     id="layer1"
     inkscape:label="Layer 1"
     inkscape:groupmode="layer"
     transform="translate(167.8672,1028.1732)">
    <g
       id="g3012"
       transform="translate(109.60155,-54.548234)"
       stroke-miterlimit="4"
       style="fill:#0dadea;stroke-miterlimit:4;stroke-dasharray:none">
      <g
         id="g3763">
        <path
           inkscape:connector-curvature="0"
           style="fill:#ffffff;fill-rule:nonzero;stroke:#000000;stroke-width:10;stroke-linecap:butt;stroke-linejoin:miter;stroke-miterlimit:4;stroke-opacity:1;stroke-dasharray:none"
           d="m 537.53125,246.375 c 0,74.5625 -60.4425,135 -135,135 l -540,0 c -74.55937,0 -135,-60.4375 -135,-135 l 0,-1080 c 0,-74.55938 60.44063,-135 135,-135 l 540,0 c 74.5575,0 135,60.44062 135,135 l 0,1080 z"
           id="path11" />
        <path
           inkscape:connector-curvature="0"
           style="fill:#000000;fill-rule:nonzero;stroke:none"
           d="m 470.03125,246.375 c 0,37.225 -30.28125,67.5 -67.5,67.5 l -540,0 c -37.2205,0 -67.5,-30.275 -67.5,-67.5 l 0,-1080 c 0,-37.2205 30.2795,-67.5 67.5,-67.5 l 540,0 c 37.21875,0 67.5,30.2795 67.5,67.5 l 0,1080 z m -67.5,-1181.25 -540,0 c -55.83012,0 -101.25,45.41988 -101.25,101.25 l 0,1080 c 0,55.825 45.41988,101.25 101.25,101.25 l 540,0 c 55.83,0 101.25,-45.425 101.25,-101.25 l 0,-1080 c 0,-55.83012 -45.42,-101.25 -101.25,-101.25 z"
           id="path13" />
        <path
           inkscape:connector-curvature="0"
           style="fill:#000000;fill-rule:nonzero;stroke:none"
           d="m -118.8325,-214.875 0,-184.8075 41.57625,0 0,-59.475 12.9125,-2.83625 0,-15.58125 -14.34125,-5.6575 0,-8.4925 -40.1475,0 0,-26.9 -18.63625,0 0,303.75 18.63625,0 z"
           id="path15" />
        <path
           inkscape:connector-curvature="0"
           style="fill:#000000;fill-rule:nonzero;stroke:none"
           d="m 402.53125,-479.1875 c 0,0 -83.41,7.05375 -156.73125,-45.7875 -4.54875,-0.73 -9.3675,-3.15625 -13.2175,-3.40125 -39.17875,8.52625 -71.16375,-12.66375 -92.54125,-23.8575 -19.22625,-2.925 -14.67125,40.4075 8.39875,46.26 -22.8175,2.44375 -181.46375,18.02 -181.46375,18.02 0,0 -14.92375,1.94375 -14.4325,13.635 0.2975,7.31 1.91875,16.0775 12.2475,16.0775 l 125.25625,0 c 0,0 0.24,11.67875 10.3325,20.7025 12.0225,6.32625 29.31375,13.62125 30.0475,31.39375 9.61375,9.01125 37.01375,19.4775 41.8175,38.4825 8.66625,13.8775 37.7425,15.575 48.55375,17.7875 8.17375,-1.47 15.63375,-2.56625 25.9625,-3.6525 62.74875,-26.29875 155.77,-30.215 155.77,-30.215 l 0,-95.445 z"
           id="path17" />
        <path
           inkscape:connector-curvature="0"
           style="fill:#000000;fill-rule:nonzero;stroke:none"
           d="m 244.755,-214.875 0,-40.7375 -24.5825,0 0,40.7375 -12.92,0 0,-90 12.92,0 0,36.63125 24.5825,0 0,-36.63125 12.92,0 0,90 -12.92,0 z"
           id="path19" />
        <path
           inkscape:connector-curvature="0"
           style="fill:#000000;fill-rule:nonzero;stroke:none"
           d="m 33.54375,-292.24375 -13.23625,0 0,25.57875 13.23625,0 c 7.5625,0 11.66,-4.73625 11.66,-12.94625 0,-7.58125 -4.72875,-12.6325 -11.66,-12.6325 z m 0.63,37.89375 -13.86625,0 0,39.475 -12.92,0 0,-90 26.78625,0 c 14.18,0 23.63625,10.10375 23.63625,25.26375 0,16.42125 -8.51,25.26125 -23.63625,25.26125 z"
           id="path21" />
        <path
           inkscape:connector-curvature="0"
           style="fill:#000000;fill-rule:nonzero;stroke:none"
           d="m 167.1575,-256.44 c -3.89125,-2.5225 -7.6725,-5.05375 -10.0875,-6.75 -7.25625,-5.1075 -11.09875,-12.0025 -11.09875,-19.895 0,-12.95 10.14875,-23.37 23.14875,-23.37 12.68625,0 22.5175,9.79 22.835,23.37 l -12.3675,0 c -0.3175,-6.31625 -4.75875,-10.4225 -10.4675,-10.4225 -6.025,0 -10.78125,4.42125 -10.78125,10.4225 0,4.42125 1.9025,6.945 8.5625,10.73625 17.44125,10.105 25.05375,19.89375 25.05375,32.8425 0,14.52625 -11.10125,26.21125 -25.05375,26.21125 -15.85625,0 -25.36875,-13.265 -25.36875,-28.10625 l 12.68375,0 c 0,7.57875 3.80625,15.47375 12.685,15.47375 6.9775,0 12.68625,-6.31625 12.68625,-13.57875 0,-5.64 -2.3325,-10.39125 -12.43,-16.93375 z"
           id="path23" />
        <path
           inkscape:connector-curvature="0"
           style="fill:#000000;fill-rule:nonzero;stroke:none"
           d="m 122.76625,-225.9275 c -4.4125,7.26375 -12.92,12.6325 -21.43,12.6325 -8.82375,0 -17.6475,-5.05375 -22.06,-12.6325 C 76.755,-230.66625 75.81,-234.455 75.81,-241.71875 l 0,-63.15625 12.92125,0 0,64.73625 c 0,8.525 5.04125,14.21125 12.605,14.21125 6.93375,0 11.97625,-5.68625 11.97625,-14.21125 l 0,-64.73625 12.92,0 0,63.15625 c 0,7.26375 -0.945,11.0525 -3.46625,15.79125 z"
           id="path25" />
        <path
           inkscape:connector-curvature="0"
           style="fill:#000000;fill-rule:nonzero;stroke:none"
           d="m -20.795,-120.6125 -12.92125,0 0,28.1075 12.92125,0 c 7.24875,0 11.975,-5.055 11.975,-12.94875 0,-8.5275 -5.3575,-15.15875 -11.975,-15.15875 z m 0.63,-36.63125 -13.55125,0 0,24 13.55125,0 c 5.9875,0 9.76875,-5.05375 9.76875,-13.265 0,-7.5775 -2.835,-10.735 -9.76875,-10.735 z m 0,77.36875 -26.47125,0 0,-90 28.36125,0 c 11.9775,0 20.485,9.4725 20.485,23.36625 0,8.21125 -2.205,12.0025 -9.45375,19.58 6.93375,5.68375 11.03,13.265 11.03,22.4225 0,13.57875 -10.715,24.63125 -23.95125,24.63125 z"
           id="path27" />
        <path
           inkscape:connector-curvature="0"
           style="fill:#000000;fill-rule:nonzero;stroke:none"
           d="m 301.93125,-79.875 -27.735,-60.315 0,60.315 -12.92,0 0,-90 12.92,0 24.5825,53.99875 0,-53.99875 12.92,0 0,90 -9.7675,0 z"
           id="path29" />
        <path
           inkscape:connector-curvature="0"
           style="fill:#000000;fill-rule:nonzero;stroke:none"
           d="m 228.0075,-147.4525 c -2.22625,-7.89625 -5.7275,-11.37 -11.135,-11.37 -5.725,0 -9.22375,3.47375 -11.45,11.0525 -2.2275,6.9475 -2.865,12.94625 -2.865,23.05375 0,9.7875 0.955,15.47375 2.865,22.73625 2.22625,7.57875 5.725,11.0525 11.45,11.0525 5.4075,0 8.90875,-3.47375 11.135,-11.0525 2.22625,-7.2625 2.86125,-12.63125 2.86125,-23.05375 0,-10.105 -0.955,-15.78875 -2.86125,-22.41875 z m 10.1775,53.68375 c -4.4525,10.735 -11.1325,15.47375 -21.3125,15.47375 -10.81625,0 -17.17625,-4.73875 -21.62875,-15.47375 -3.81875,-8.8425 -5.09,-17.37125 -5.09,-31.265 0,-13.57875 1.27125,-22.73625 5.09,-31.2625 4.77,-10.7375 11.1325,-15.15875 21.62875,-15.15875 10.4975,0 16.86,4.42125 21.3125,15.47375 3.81875,8.8425 5.09125,17.36875 5.09125,30.9475 0,13.89375 -1.2725,22.7375 -5.09125,31.265 z"
           id="path31" />
        <path
           inkscape:connector-curvature="0"
           style="fill:#000000;fill-rule:nonzero;stroke:none"
           d="m 111.5625,-157.875 0,78 -12.985,0 0,-78 -16.46875,0 0,-12 45.9225,0 0,12 -16.46875,0 z"
           id="path33" />
        <path
           inkscape:connector-curvature="0"
           style="fill:#000000;fill-rule:nonzero;stroke:none"
           d="m 162.8825,-157.875 0,78 -12.9825,0 0,-78 -16.46875,0 0,-12 45.92125,0 0,12 -16.47,0 z"
           id="path35" />
        <path
           inkscape:connector-curvature="0"
           style="fill:#000000;fill-rule:nonzero;stroke:none"
           d="m 66.0425,-90.9275 c -4.41375,7.26375 -12.92125,12.6325 -21.43,12.6325 -8.825,0 -17.6475,-5.05375 -22.06,-12.6325 -2.52125,-4.73875 -3.4675,-8.5275 -3.4675,-15.79125 l 0,-63.15625 12.92125,0 0,64.73625 c 0,8.525 5.0425,14.21125 12.60625,14.21125 6.93375,0 11.975,-5.68625 11.975,-14.21125 l 0,-64.73625 12.92,0 0,63.15625 c 0,7.26375 -0.945,11.0525 -3.465,15.79125 z"
           id="path37" />
        <path
           inkscape:connector-curvature="0"
           style="fill:#000000;fill-rule:nonzero;stroke:none"
           d="m 136.295,179.07 c -3.48875,7.8963 -10.7825,12.6325 -19.97875,12.6325 -10.7825,0 -18.71,-5.3687 -23.15,-15.4737 -2.85375,-6.6313 -4.7575,-19.2625 -4.7575,-30.9475 0,-12.63005 0.9525,-21.79005 4.12375,-30.31505 3.17,-9.475 12.3675,-16.42125 22.8325,-16.42125 13.00125,0 22.8325,9.4725 23.46625,22.7375 l -13.00125,0 c -0.3175,-6.00125 -4.44,-10.105 -10.7825,-10.105 -4.44,0 -7.9275,2.20875 -10.1475,6.63 -2.5375,4.4225 -4.1225,14.5275 -4.1225,25.26375 0,7.57875 0.63375,15.47375 1.90125,22.42005 1.90375,8.8425 6.3425,13.5787 13.32,13.5787 6.66,0 9.83125,-4.4212 9.83125,-13.8937 l 0,-5.9988 -10.1475,0 0,-12.6312 23.14875,0 0,18.63 c 0,6.3162 -0.63375,10.105 -2.53625,13.8937 z"
           id="path39" />
        <path
           inkscape:connector-curvature="0"
           style="fill:#000000;fill-rule:nonzero;stroke:none"
           d="m 194.33,190.125 0,-40.7375 -24.5825,0 0,40.7375 -12.9175,0 0,-90 12.9175,0 0,36.63125 24.5825,0 0,-36.63125 12.92,0 0,90 -12.92,0 z"
           id="path41" />
        <path
           inkscape:connector-curvature="0"
           style="fill:#000000;fill-rule:nonzero;stroke:none"
           d="m 57.81,190.125 0,-90 12.6,0 0,90 -12.6,0 z"
           id="path43" />
        <path
           inkscape:connector-curvature="0"
           style="fill:#000000;fill-rule:nonzero;stroke:none"
           d="m -0.71375,190.125 0,-90 12.98625,0 0,77.9975 32.9375,0 0,12.0025 -45.92375,0 z"
           id="path45" />
        <path
           inkscape:connector-curvature="0"
           style="fill:#000000;fill-rule:nonzero;stroke:none"
           d="m 249.30625,112.125 0,78 -12.98625,0 0,-78 -16.4675,0 0,-12 45.92375,0 0,12 -16.47,0 z"
           id="path47" />
        <path
           inkscape:connector-curvature="0"
           style="fill:#000000;fill-rule:nonzero;stroke:none"
           d="m 247.3025,55.125 0,-90 42.44,0 0,12.63125 -29.455,0 0,22.7375 18.685,0 0,12.31375 -18.685,0 0,29.6875 32.93875,0 0,12.63 -45.92375,0 z"
           id="path49" />
        <path
           inkscape:connector-curvature="0"
           style="fill:#000000;fill-rule:nonzero;stroke:none"
           d="m 308.52625,55.125 0,-90 42.43875,0 0,12.63125 -29.45375,0 0,22.7375 18.685,0 0,12.31375 -18.685,0 0,29.6875 32.9375,0 0,12.63 -45.9225,0 z"
           id="path51" />
        <path
           inkscape:connector-curvature="0"
           style="fill:#000000;fill-rule:nonzero;stroke:none"
           d="m -142.125,-22.24375 0,22.7375 18.0525,0 0,12.31375 -18.0525,0 0,42.3175 -12.98537,0 0,-90 45.92288,0 0,12.63125 -32.93751,0 z"
           id="path53" />
        <path
           inkscape:connector-curvature="0"
           style="fill:#000000;fill-rule:nonzero;stroke:none"
           d="m 161.04375,44.0725 c -3.48875,7.89375 -10.7825,12.63 -19.97875,12.63 -10.7825,0 -18.71125,-5.36625 -23.15,-15.47375 -2.855,-6.63125 -4.7575,-19.2625 -4.7575,-30.9475 0,-12.63 0.9525,-21.79 4.12375,-30.315 3.17,-9.4725 12.36625,-16.42125 22.83125,-16.42125 13.0025,0 22.83375,9.4725 23.4675,22.7375 l -13.00125,0 c -0.3175,-6.00125 -4.44,-10.105 -10.78125,-10.105 -4.44125,0 -7.92875,2.20875 -10.15,6.63 -2.53625,4.4225 -4.12125,14.5275 -4.12125,25.26375 0,7.57875 0.63375,15.47375 1.90125,22.4225 1.9025,8.84 6.3425,13.57875 13.32,13.57875 6.65875,0 9.83125,-4.42125 9.83125,-13.89625 l 0,-5.99875 -10.14875,0 0,-12.63125 23.15,0 0,18.63 c 0,6.31625 -0.63375,10.105 -2.53625,13.89625 z"
           id="path55" />
        <path
           inkscape:connector-curvature="0"
           style="fill:#000000;fill-rule:nonzero;stroke:none"
           d="m 410.40375,55.125 -27.7325,-60.315 0,60.315 -12.92125,0 0,-90 12.92125,0 24.58,53.99875 0,-53.99875 12.92125,0 0,90 -9.76875,0 z"
           id="path57" />
        <path
           inkscape:connector-curvature="0"
           style="fill:#000000;fill-rule:nonzero;stroke:none"
           d="m -60.53375,-12.4525 c -2.22625,-7.89625 -5.725,-11.37 -11.1325,-11.37 -5.72625,0 -9.22625,3.47375 -11.45375,11.0525 -2.22625,6.9475 -2.8625,12.94625 -2.8625,23.05375 0,9.7875 0.955,15.47375 2.8625,22.73625 2.2275,7.57875 5.7275,11.0525 11.45375,11.0525 5.4075,0 8.90625,-3.47375 11.1325,-11.0525 2.22625,-7.2625 2.8625,-12.63125 2.8625,-23.05375 0,-10.105 -0.95375,-15.78875 -2.8625,-22.41875 z M -50.355,41.23125 c -4.45375,10.735 -11.13375,15.47375 -21.31125,15.47375 -10.81625,0 -17.17875,-4.73875 -21.63125,-15.47375 -3.81875,-8.8425 -5.09,-17.37125 -5.09,-31.265 0,-13.57875 1.27125,-22.73625 5.09,-31.2625 4.77,-10.7375 11.1325,-15.15875 21.63125,-15.15875 10.49625,0 16.8575,4.42125 21.31125,15.47375 3.8175,8.8425 5.09,17.36875 5.09,30.9475 0,13.89375 -1.2725,22.7375 -5.09,31.265 z"
           id="path59" />
        <path
           inkscape:connector-curvature="0"
           style="fill:#000000;fill-rule:nonzero;stroke:none"
           d="m -1.1075,-22.24375 -13.23625,0 0,22.7375 13.23625,0 c 7.56375,0 11.66,-4.10625 11.66,-11.37 0,-6.945 -4.7275,-11.3675 -11.66,-11.3675 z M 9.92125,55.125 l -11.975,-42.3175 -12.29,0 0,42.3175 -12.92125,0 0,-90 26.7875,0 c 14.18125,0 23.635,9.4725 23.635,23.99875 0,10.7375 -4.41125,18.6325 -12.92125,21.79 L 23.1575,55.125 l -13.23625,0 z"
           id="path61" />
        <path
           inkscape:connector-curvature="0"
           style="fill:#000000;fill-rule:nonzero;stroke:none"
           d="m 207.7375,-22.24375 -13.23625,0 0,22.7375 13.23625,0 c 7.56375,0 11.66,-4.10625 11.66,-11.37 0,-6.945 -4.7275,-11.3675 -11.66,-11.3675 z m 11.02875,77.36875 -11.975,-42.3175 -12.29,0 0,42.3175 -12.92125,0 0,-90 26.7875,0 c 14.18125,0 23.635,9.4725 23.635,23.99875 0,10.7375 -4.41125,18.6325 -12.92125,21.79 l 12.92125,44.21125 -13.23625,0 z"
           id="path63" />
        <path
           inkscape:connector-curvature="0"
           style="fill:#000000;fill-rule:nonzero;stroke:none"
           d="M -68.23,208.0838 C -67.22,207.4 -65.99875,207 -64.685,207 c 3.49375,0 6.3275,2.8325 6.3275,6.3288 0,0.6974 -0.115,1.3687 -0.325,1.9975 l -6.1425,19.7987 467.35625,0 0,33.75 -467.35625,0 6.1425,19.8 c 0.21,0.625 0.325,1.3 0.325,2 0,3.4875 -2.83375,6.325 -6.3275,6.325 -1.31375,0 -2.535,-0.4 -3.545,-1.0875 L -137.46875,252 -68.23,208.0838 z"
           id="path65" />
        <path
           inkscape:connector-curvature="0"
           style="fill:#000000;fill-rule:nonzero;stroke:none"
           d="m 279.3425,-603 c -32.34125,0 -59.73625,-21.16 -69.1075,-50.39 l 64.51,-13.89375 c 1.3625,0.75875 2.92875,1.19125 4.5975,1.19125 5.2325,0 9.47,-4.23875 9.47,-9.47125 0,-4.56375 -3.22875,-8.37375 -7.52875,-9.27 L 241.62,-737.5575 c 10.99125,-6.70375 23.90625,-10.5675 37.7225,-10.5675 40.07625,0 72.56375,32.4875 72.56375,72.56125 0,40.07625 -32.4875,72.56375 -72.56375,72.56375 z M 206.78,-675.56375 c 0,-21.13375 9.04,-40.15625 23.45875,-53.4175 l 36.7125,48.79875 -59.7025,12.85875 c -0.305,-2.705 -0.46875,-5.45125 -0.46875,-8.24 z m -16.0975,11.8075 -28.385,6.11375 32.95375,-117.84625 24.80375,32.97125 c -18.49,16.385 -30.15,40.30625 -30.15,66.95375 0,4.00375 0.27,7.945 0.7775,11.8075 z m -40.41375,-3.78625 -4.4025,-16.7425 6.87625,0 0,-6.75125 -21.73,0 0,6.75125 8.64875,0 4.36875,16.60875 -93.48875,-101.75625 c 1.5175,-4.8425 3.07,-9.83625 4.6075,-14.80875 l 127.75125,0 -32.63125,116.69875 z m -91.9875,-8.02125 c 0,40.07625 -32.4875,72.56375 -72.5625,72.56375 -40.075,0 -72.5625,-32.4875 -72.5625,-72.56375 0,-40.07375 32.4875,-72.56125 72.5625,-72.56125 14.24625,0 27.53125,4.10875 38.74125,11.20125 -8.9125,19.33125 -26.2925,40.155 -38.81375,51.8925 -5.1975,0.0387 -9.39875,4.2625 -9.39875,9.4675 0,5.2325 4.24125,9.47125 9.47125,9.47125 4.835,0 8.82,-3.6225 9.39625,-8.3025 6.1275,-5.73875 14.125,-14.1825 22.035,-24.3025 5.885,-7.52625 13.2175,-17.93125 18.8075,-29.22125 13.7575,13.2075 22.32375,31.78 22.32375,52.355 z M 279.3425,-765 c -17.62375,0 -34.0575,5.10125 -47.9075,13.90375 l -31.3525,-41.6725 4.11125,-14.70875 c 19.655,-1.69125 30.525,-9.16125 29.85875,-16.39 -0.6475,-7.0075 -20.145,-1.7575 -41.83125,-1.48125 -5.9475,0.0762 -37.5,-0.065 -37.315,5.72375 0.1875,5.9325 20.36125,10.76875 34.4975,12.1225 l -2.52,9.0125 -127.35,0 c 2.7125,-8.8575 5.19625,-17.03 7.11375,-23.365 1.63875,-5.415 2.8675,-9.49 3.4725,-11.50625 l -9.26125,-7.08375 4.37625,-4.43 34.1075,0 0,-11.25 -38.80875,0 -16.6525,16.85875 10.67625,8.165 C 49.6125,-814.7275 37.9325,-776.26 30.3725,-753.07 17.2325,-760.6575 1.98375,-765 -14.28125,-765 c -49.39375,0 -89.4375,40.0425 -89.4375,89.43625 0,49.39625 40.04375,89.43875 89.4375,89.43875 49.395,0 89.4375,-40.0425 89.4375,-89.43875 0,-27.7925 -12.67875,-52.625 -32.5675,-69.02875 0.92375,-2.79375 1.92875,-5.87875 2.98875,-9.18 l 96.23875,104.7475 c -0.0225,0.275 -0.0362,0.5525 -0.0362,0.83375 0,5.66875 4.5025,10.28375 10.1275,10.47 l 6.74,25.62375 -6.8725,0 0,6.75 21.725,0 0,-6.75 -8.64875,0 -7.1375,-27.1475 c 1.45875,-0.89125 2.67875,-2.12875 3.5525,-3.59875 l 32.40625,-6.97875 c 11.055,36.8475 45.22625,63.6975 85.67,63.6975 49.39625,0 89.43875,-40.0425 89.43875,-89.43875 C 368.7813,-724.9575 328.7388,-765 279.34255,-765 z"
           id="path67" />
      </g>
    </g>
  </g>
</svg>
