<?xml version="1.0" encoding="UTF-8" standalone="no"?>
<!-- Created with Inkscape (http://www.inkscape.org/) -->

<svg
   xmlns:dc="http://purl.org/dc/elements/1.1/"
   xmlns:cc="http://creativecommons.org/ns#"
   xmlns:rdf="http://www.w3.org/1999/02/22-rdf-syntax-ns#"
   xmlns:svg="http://www.w3.org/2000/svg"
   xmlns="http://www.w3.org/2000/svg"
   xmlns:sodipodi="http://sodipodi.sourceforge.net/DTD/sodipodi-0.dtd"
   xmlns:inkscape="http://www.inkscape.org/namespaces/inkscape"
   width="3250"
   height="3790"
   id="svg2"
   sodipodi:version="0.32"
   inkscape:version="0.48.2 r9819"
   version="1.0"
   sodipodi:docname="AJAX2.svg">
  <defs
     id="defs4">
    <clipPath
       id="Clip0">
      <path
         inkscape:connector-curvature="0"
         d="m 0,0 0,3024.5 2160.5,0 L 2160.5,0 0,0 z"
         transform="translate(0,0.5)"
         id="path7" />
    </clipPath>
    <clipPath
       id="Clip0-1">
      <path
         inkscape:connector-curvature="0"
         d="m 0,0 0,3024.5 2592.5,0 L 2592.5,0 0,0 z"
         transform="translate(0,0.5)"
         id="path7-7" />
    </clipPath>
  </defs>
  <sodipodi:namedview
     id="base"
     pagecolor="#ffffff"
     bordercolor="#666666"
     borderopacity="1.0"
     gridtolerance="10000"
     guidetolerance="10"
     objecttolerance="10"
     inkscape:pageopacity="0.0"
     inkscape:pageshadow="2"
     inkscape:zoom="0.087182787"
     inkscape:cx="-1233.8714"
     inkscape:cy="1611.3971"
     inkscape:document-units="px"
     inkscape:current-layer="layer1"
     width="601px"
     height="601px"
     inkscape:window-width="1280"
     inkscape:window-height="1004"
     inkscape:window-x="-8"
     inkscape:window-y="-8"
     showgrid="false"
     fit-margin-top="0"
     fit-margin-left="0"
     fit-margin-right="0"
     fit-margin-bottom="0"
     inkscape:window-maximized="1"
     showguides="true"
     inkscape:guide-bbox="true" />
  <metadata
     id="metadata7">
    <rdf:RDF>
      <cc:Work
         rdf:about="">
        <dc:format>image/svg+xml</dc:format>
        <dc:type
           rdf:resource="http://purl.org/dc/dcmitype/StillImage" />
        <dc:title></dc:title>
      </cc:Work>
    </rdf:RDF>
  </metadata>
  <g
     inkscape:label="Layer 1"
     inkscape:groupmode="layer"
     id="layer1"
     transform="translate(2477.2188,2595.2188)">
    <path
       inkscape:connector-curvature="0"
       style="fill:#ffffff;fill-rule:nonzero;stroke:#000000;stroke-width:10;stroke-linecap:butt;stroke-linejoin:miter;stroke-miterlimit:4;stroke-opacity:1;stroke-dasharray:none"
       d="m 767.7813,987.2813 c 0,111.8376 -90.6625,202.5001 -202.5,202.5001 l -2835.0001,0 c -111.8371,0 -202.5,-90.6625 -202.5,-202.5001 l 0,-3375.0001 c 0,-111.8371 90.6629,-202.5 202.5013,-202.5 l 2834.9988,0 c 111.8375,0 202.5,90.6629 202.5,202.5 l 0,3375.0001 z"
       id="path11" />
    <path
       inkscape:connector-curvature="0"
       style="fill:#000000;fill-rule:nonzero;stroke:none"
       d="m -2269.7175,1133.5314 c -80.6421,0 -146.25,-65.6126 -146.25,-146.2501 l 0,-3375.0001 c 0,-80.6421 65.6079,-146.2487 146.25,-146.25 l 2835.00005,0 c 80.6375,0 146.25,65.6079 146.25,146.25 l 0,3375.0001 c 0,80.6375 -65.6125,146.2501 -146.25,146.2501 l -2835.00005,0 z"
       id="path13" />
    <path
       inkscape:connector-curvature="0"
       style="fill:#ffffff;fill-rule:nonzero;stroke:none"
       d="m -2337.2175,987.28 c 0,37.2125 30.2813,67.5 67.5,67.5 l 2835.00005,0 c 37.225,0 67.5,-30.2875 67.5,-67.5 l 0,-1946.25005 -2970.00005,0 0,1946.25005 z"
       id="path15" />
    <path
       inkscape:connector-curvature="0"
       style="fill:#ffffff;fill-rule:nonzero;stroke:none"
       d="m 632.78255,-2387.7187 c 0,-37.2188 -30.275,-67.5013 -67.5,-67.5 l -2835.00005,0 c -37.2187,0 -67.5,30.2801 -67.5,67.5 l 0,1350 2970.00005,0 0,-1349.9987 z"
       id="path17" />
    <g
       transform="matrix(1.25,0,0,1.25,-2472.5313,-2591.1563)"
       id="Background"
       style="fill:#000000;stroke:none">
      <g
         id="Group1"
         clip-path="url(#Clip0-1)"
         style="fill:#000000;stroke:none">
        <path
           inkscape:connector-curvature="0"
           style="fill:#000000;fill-rule:nonzero;stroke:none"
           d="m 179.22,288.003 0,-166.738 -66.829,166.738 -66.827,-166.738 0,166.738 L 0,288.003 0,0 45.564,0 112.391,161.687 179.22,0 l 45.563,0 0,288.003 -45.563,0 z"
           transform="translate(415.797,297.749)"
           id="path19" />
        <path
           inkscape:connector-curvature="0"
           style="fill:#000000;fill-rule:nonzero;stroke:none"
           d="M 0,288.003 0,0 l 169.549,0 0,45.475 -124.135,0 0,70.737 83.768,0 0,46.486 -83.768,0 0,78.821 133.219,0 0,46.484 -178.633,0 z"
           transform="translate(188.203,297.749)"
           id="path21" />
        <path
           inkscape:connector-curvature="0"
           style="fill:#000000;fill-rule:nonzero;stroke:none"
           d="M 155.63,288.002 45.48,92.969 l 0,195.033 -45.48,0 L 0,0 45.48,0 150.58,183.918 150.58,0 l 45.48,0 0,288.002 -40.43,0 z"
           transform="translate(1663.56,297.75)"
           id="path23" />
        <path
           inkscape:connector-curvature="0"
           style="fill:#000000;fill-rule:nonzero;stroke:none"
           d="m 126.324,50.527 c -7.07,-4.043 -11.12,-5.053 -26.28,-5.053 l -54.569,0 0,70.736 54.569,0 c 14.15,0 19.21,-1.009 26.28,-5.05 11.12,-6.065 18.19,-18.191 18.19,-30.317 0,-12.126 -7.07,-24.254 -18.19,-30.316 z m 20.21,237.473 -46.49,-125.306 -54.569,0 0,125.306 L 0,288 0,0 94.994,0 c 22.23,0 37.39,2.021 51.54,9.095 25.27,12.127 43.46,42.442 43.46,71.748 0,30.317 -18.19,60.631 -44.47,72.759 l 50.53,134.398 -49.52,0 z"
           transform="translate(937.296,297.75)"
           id="path25" />
        <path
           inkscape:connector-curvature="0"
           style="fill:#000000;fill-rule:nonzero;stroke:none"
           d="m 147.28,162.696 0,125.305 -45.71,0 0,-125.305 L 0,0 54.85,0 123.92,111.158 194,0 247.83,0 147.28,162.696 z"
           transform="translate(2156.47,297.749)"
           id="path27" />
        <path
           inkscape:connector-curvature="0"
           style="fill:#000000;fill-rule:nonzero;stroke:none"
           d="M 0,288.002 0,0 l 169.549,0 0,45.474 -124.135,0 0,70.737 83.768,0 0,46.485 -83.768,0 0,78.822 133.219,0 0,46.484 -178.633,0 z"
           transform="translate(709.703,297.75)"
           id="path29" />
        <path
           inkscape:connector-curvature="0"
           style="fill:#000000;fill-rule:nonzero;stroke:none"
           d="M 0,288.002 0,0 l 169.55,0 0,45.474 -124.14,0 0,70.737 83.77,0 0,46.485 -83.77,0 0,78.822 133.22,0 0,46.484 -178.63,0 z"
           transform="translate(1435.97,297.75)"
           id="path31" />
        <path
           inkscape:connector-curvature="0"
           style="fill:#000000;fill-rule:nonzero;stroke:none"
           d="M 109.14,298.106 C 66.7,298.106 39.41,281.937 21.22,246.57 8.08,221.305 0,184.927 0,148.547 0,103.073 12.12,57.599 32.34,32.336 49.52,11.115 73.77,0 106.11,0 c 43.45,0 70.74,18.19 89.94,58.611 L 153.61,76.8 c -16.17,-24.253 -25.27,-30.316 -47.5,-30.316 -23.24,0 -38.4,10.105 -48.51,35.369 -7.07,17.178 -11.12,42.442 -11.12,66.694 0,31.327 7.08,62.653 18.2,80.842 10.1,15.159 23.24,22.233 43.45,22.233 19.2,0 33.35,-10.106 44.47,-33.348 l 43.45,16.168 c -17.18,42.444 -45.47,63.664 -86.91,63.664 z"
           transform="translate(1922.98,292.698)"
           id="path33" />
        <path
           inkscape:connector-curvature="0"
           style="fill:#000000;fill-rule:nonzero;stroke:none"
           d="m 105.1,298.106 c -43.45,0 -68.72,-16.169 -85.9,-52.549 C 7.08,220.296 0,184.927 0,149.558 0,103.073 13.14,57.599 32.34,32.336 49.52,11.115 73.78,0 106.12,0 c 44.46,0 70.74,18.19 89.94,63.664 L 152.6,80.842 C 140.48,55.578 128.35,46.484 106.12,46.484 c -23.25,0 -38.41,10.105 -48.51,35.369 -7.08,17.178 -11.12,43.452 -11.12,67.705 0,30.316 5.05,60.632 14.15,78.822 9.09,16.168 22.23,23.242 39.41,23.242 29.31,0 50.53,-18.19 50.53,-44.463 l 0,-12.127 -52.55,0 0,-45.474 98.03,0 0,57.601 c 0,52.547 -38.4,90.947 -90.96,90.947 z"
           transform="translate(1176.55,292.698)"
           id="path35" />
        <path
           inkscape:connector-curvature="0"
           style="fill:#000000;fill-rule:nonzero;stroke:none"
           d="M 155.63,288 45.48,92.969 45.48,288 0,288 0,0 45.48,0 150.58,183.917 150.58,0 l 45.48,0 0,288 -40.43,0 z"
           transform="translate(1250.17,774.75)"
           id="path37" />
        <path
           inkscape:connector-curvature="0"
           style="fill:#000000;fill-rule:nonzero;stroke:none"
           d="M 0,288 0,0 46.08,0 46.08,288 0,288 z"
           transform="translate(881.313,774.75)"
           id="path39" />
        <path
           inkscape:connector-curvature="0"
           style="fill:#000000;fill-rule:nonzero;stroke:none"
           d="M 0,288.001 0,0 l 45.42,0 0,245.561 133.21,0 0,42.44 -178.63,0 z"
           transform="translate(1777.57,774.749)"
           id="path41" />
        <path
           inkscape:connector-curvature="0"
           style="fill:#000000;fill-rule:nonzero;stroke:none"
           d="m 167.759,275.875 c -16.169,14.15 -38.403,22.23 -62.657,22.23 -49.518,0 -85.9,-29.3 -105.102,-72.757 L 43.456,209.18 c 12.128,27.285 34.359,42.445 61.646,42.445 26.276,0 44.466,-18.19 44.466,-42.445 0,-38.4 -44.466,-44.462 -81.859,-59.621 C 50.53,142.485 12.128,125.307 12.128,77.811 12.128,21.222 50.53,0 102.071,0 c 40.422,0 67.709,23.242 81.857,58.612 l -40.422,12.125 c 0,0 -10.107,-24.252 -42.447,-25.262 -21.222,-1.011 -46.488,7.072 -44.465,33.347 4.043,53.557 139.462,18.19 139.462,131.368 0,26.275 -10.107,49.515 -28.297,65.685 z"
           transform="translate(636.298,769.345)"
           id="path43" />
        <path
           inkscape:connector-curvature="0"
           style="fill:#000000;fill-rule:nonzero;stroke:none"
           d="m 122.98,79.833 -29.48,80.842 57.94,0 -28.46,-80.842 z M 196.15,288 167.7,207.16 77.24,207.16 48.78,288 0,288 99.6,0 l 45.74,0 99.6,288 -48.79,0 z"
           transform="translate(1489.43,774.75)"
           id="path45" />
        <path
           inkscape:connector-curvature="0"
           style="fill:#000000;fill-rule:nonzero;stroke:none"
           d="m 105.097,298.102 c -43.45,0 -68.72,-16.16 -85.9,-52.54 C 7.074,220.296 0,184.927 0,149.558 0,103.074 13.137,57.6 32.337,32.337 49.517,11.116 73.777,0 106.117,0 c 44.46,0 70.74,18.191 89.94,63.664 l -43.46,17.179 c -12.12,-25.264 -24.25,-34.359 -46.48,-34.359 -23.25,0 -38.41,10.106 -48.51,35.369 -7.08,17.179 -11.12,43.453 -11.12,67.705 0,30.316 5.05,60.632 14.15,78.822 9.09,16.172 22.23,23.242 39.41,23.242 29.31,0 50.53,-18.19 50.53,-44.463 l 0,-12.127 -52.55,0 0,-45.474 98.03,0 0,57.601 c 0,52.543 -38.4,90.943 -90.96,90.943 z"
           transform="translate(990.753,769.698)"
           id="path47" />
        <path
           inkscape:connector-curvature="0"
           style="fill:#000000;fill-rule:nonzero;stroke:none"
           d="M 155.63,288 45.47,92.97 45.47,288 0,288 0,0 45.47,0 150.58,183.92 150.58,0 l 45.47,0 0,288 -40.42,0 z"
           transform="translate(1925.82,1485.75)"
           id="path49" />
        <path
           inkscape:connector-curvature="0"
           style="fill:#000000;fill-rule:nonzero;stroke:none"
           d="M 141.82,68.72 C 132.71,53.56 121.56,47.5 104.34,46.49 82.06,45.47 67.87,56.59 57.75,81.85 50.65,99.03 46.6,125.31 46.6,149.56 c 0,30.31 6.08,61.64 17.22,79.83 9.12,15.16 21.27,22.23 39.51,22.23 21.27,0 34.44,-11.12 44.57,-36.38 6.08,-15.16 11.14,-43.45 11.14,-65.68 0,-32.34 -6.07,-61.64 -17.22,-80.84 z m 31.41,197.05 c -16.21,22.23 -39.51,32.34 -69.9,32.34 -40.52,0 -65.85,-16.17 -83.07,-51.54 C 8.11,222.32 0,183.92 0,149.56 0,102.06 12.16,59.62 31.41,32.34 48.63,10.11 71.93,0 105.35,0 c 36.47,0 61.8,16.17 80.03,51.54 12.16,25.26 19.25,61.64 19.25,98.02 0,45.47 -11.14,90.94 -31.4,116.21 z"
           transform="translate(1657.83,1481.05)"
           id="path51" />
        <path
           inkscape:connector-curvature="0"
           style="fill:#000000;fill-rule:nonzero;stroke:none"
           d="M 141.823,68.72 C 132.703,53.56 121.563,47.5 104.333,46.49 82.051,45.47 67.869,56.59 57.74,81.85 c -7.092,17.18 -11.141,43.46 -11.141,67.71 0,30.31 6.075,61.64 17.217,79.83 9.119,15.16 21.274,22.23 39.507,22.23 21.27,0 34.44,-11.12 44.57,-36.38 6.08,-15.16 11.15,-43.45 11.15,-65.68 0,-32.34 -6.08,-61.64 -17.22,-80.84 z m 31.4,197.05 c -16.21,22.23 -39.51,32.34 -69.9,32.34 -40.518,0 -65.845,-16.17 -83.065,-51.54 C 8.103,222.32 0,183.92 0,149.56 0,102.06 12.154,59.62 31.402,32.34 48.623,10.11 71.922,0 105.353,0 c 36.47,0 61.79,16.17 80.02,51.54 12.16,25.26 19.25,61.64 19.25,98.02 0,45.47 -11.14,90.94 -31.4,116.21 z"
           transform="translate(905.797,1481.05)"
           id="path53" />
        <path
           inkscape:connector-curvature="0"
           style="fill:#000000;fill-rule:nonzero;stroke:none"
           d="M 132.39,50.52 C 124.3,46.48 119.25,45.47 105.1,45.47 l -59.62,0 0,70.74 59.62,0 c 14.15,0 19.2,-1.01 27.29,-5.05 10.1,-5.06 17.18,-18.19 17.18,-30.32 0,-12.13 -7.08,-24.25 -17.18,-30.32 z m 19.2,102.07 c -13.14,6.06 -30.32,10.1 -52.55,10.1 l -53.56,0 0,125.31 L 0,288 0,0 99.04,0 c 23.24,0 38.4,2.02 52.55,9.09 25.26,12.13 44.46,42.45 44.46,71.75 0,30.32 -19.2,60.63 -44.46,71.75 z"
           transform="translate(1173.78,1485.75)"
           id="path55" />
        <path
           inkscape:connector-curvature="0"
           style="fill:#000000;fill-rule:nonzero;stroke:none"
           d="m 111.643,40.42 0,247.58 -45.669,0 0,-247.58 L 0,40.42 0,0 l 178.631,0 0,40.42 -66.988,0 z"
           transform="translate(689.724,1485.75)"
           id="path57" />
        <path
           inkscape:connector-curvature="0"
           style="fill:#000000;fill-rule:nonzero;stroke:none"
           d="M 167.759,275.88 C 151.59,290.03 129.356,298.11 105.102,298.11 55.584,298.11 19.202,268.8 0,225.35 l 43.456,-16.17 c 12.128,27.29 34.359,42.44 61.646,42.44 26.276,0 44.466,-18.18 44.466,-42.44 0,-38.4 -44.466,-44.46 -81.859,-59.62 C 50.53,142.49 12.128,125.31 12.128,77.81 12.128,21.22 50.53,0 102.071,0 c 40.422,0 67.709,23.25 81.857,58.62 l -40.422,12.12 c 0,0 -10.107,-24.25 -42.447,-25.26 -21.222,-1.01 -46.488,7.07 -44.465,33.35 4.043,53.55 139.462,18.19 139.462,131.36 0,26.28 -10.107,49.52 -28.297,65.69 z"
           transform="translate(470.63,1480.34)"
           id="path59" />
        <path
           inkscape:connector-curvature="0"
           style="fill:#000000;fill-rule:nonzero;stroke:none"
           d="m 126.321,50.53 c -7.07,-4.05 -11.11,-5.06 -26.27,-5.06 l -54.58,0 0,70.74 54.58,0 c 14.15,0 19.2,-1.01 26.27,-5.05 11.12,-6.07 18.19,-18.19 18.19,-30.32 0,-12.12 -7.07,-24.25 -18.19,-30.31 z m 20.21,237.47 -46.48,-125.31 -54.58,0 0,125.31 L 0,288 0,0 94.991,0 c 22.24,0 37.4,2.02 51.54,9.09 25.27,12.13 43.46,42.45 43.46,71.75 0,30.32 -18.19,60.63 -44.47,72.76 l 50.54,134.4 -49.53,0 z"
           transform="translate(961.919,2439.75)"
           id="path61" />
        <path
           inkscape:connector-curvature="0"
           style="fill:#000000;fill-rule:nonzero;stroke:none"
           d="M 126.32,57.6 C 119.25,50.52 109.14,45.47 97.01,45.47 l -51.54,0 0,196.05 45.48,0 c 15.16,0 24.26,-3.04 32.34,-11.12 17.18,-17.18 26.27,-48.51 26.27,-86.91 0,-38.4 -9.09,-70.73 -23.24,-85.89 z m 19.2,214.23 c -11.11,10.11 -26.27,15.16 -41.43,16.17 -3.03,0 -9.1,0 -16.17,0 L 0,288 0,0 92.97,0 c 29.31,0 40.43,3.03 55.58,15.16 30.32,26.27 47.5,71.74 47.5,128.33 0,57.6 -18.19,103.08 -50.53,128.34 z"
           transform="translate(1434.53,2439.75)"
           id="path63" />
        <path
           inkscape:connector-curvature="0"
           style="fill:#000000;fill-rule:nonzero;stroke:none"
           d="M 0,288 0,0 l 169.55,0 0,45.47 -124.13,0 0,70.74 83.76,0 0,46.49 -83.76,0 0,78.82 133.22,0 0,46.48 L 0,288 z"
           transform="translate(1206.93,2439.75)"
           id="path65" />
        <path
           inkscape:connector-curvature="0"
           style="fill:#000000;fill-rule:nonzero;stroke:none"
           d="M 155.64,288 45.48,92.97 45.48,288 0,288 0,0 l 45.48,0 105.1,183.92 0,-183.92 45.48,0 0,288 -40.42,0 z"
           transform="translate(1724.07,1962.75)"
           id="path67" />
        <path
           inkscape:connector-curvature="0"
           style="fill:#000000;fill-rule:nonzero;stroke:none"
           d="M 0,288 0,0 46.08,0 46.08,288 0,288 z"
           transform="translate(1608.88,1962.75)"
           id="path69" />
        <path
           inkscape:connector-curvature="0"
           style="fill:#000000;fill-rule:nonzero;stroke:none"
           d="M 0,288 0,0 l 45.414,0 0,245.56 133.218,0 0,42.44 L 0,288 z"
           transform="translate(634.789,1962.75)"
           id="path71" />
        <path
           inkscape:connector-curvature="0"
           style="fill:#000000;fill-rule:nonzero;stroke:none"
           d="m 167.76,275.88 c -16.17,14.15 -38.4,22.23 -62.65,22.23 C 55.59,298.11 19.21,268.8 0,225.35 l 43.46,-16.17 c 12.13,27.29 34.36,42.44 61.65,42.44 26.27,0 44.46,-18.18 44.46,-42.44 0,-38.4 -44.46,-44.46 -81.86,-59.62 C 50.53,142.49 12.13,125.31 12.13,77.81 12.13,21.22 50.53,0 102.08,0 c 40.42,0 67.7,23.25 81.85,58.62 l -40.42,12.12 c 0,0 -10.11,-24.25 -42.45,-25.26 -21.22,-1.01 -46.48,7.07 -44.46,33.35 4.04,53.55 139.46,18.19 139.46,131.36 0,26.28 -10.11,49.52 -28.3,65.69 z"
           transform="translate(1098.68,1957.34)"
           id="path73" />
        <path
           inkscape:connector-curvature="0"
           style="fill:#000000;fill-rule:nonzero;stroke:none"
           d="m 150.58,288 0,-125.31 -105.1,0 0,125.31 L 0,288 0,0 l 45.48,0 0,116.21 105.1,0 0,-116.21 45.48,0 0,288 -45.48,0 z"
           transform="translate(1343.7,1962.75)"
           id="path75" />
        <path
           inkscape:connector-curvature="0"
           style="fill:#000000;fill-rule:nonzero;stroke:none"
           d="m 122.98,79.83 -29.475,80.84 57.934,0 L 122.98,79.83 z M 196.16,288 167.7,207.16 77.243,207.16 48.785,288 0,288 99.603,0 l 45.737,0 99.6,288 -48.78,0 z"
           transform="translate(830.7,1962.75)"
           id="path77" />
        <path
           inkscape:connector-curvature="0"
           style="fill:#000000;fill-rule:nonzero;stroke:none"
           d="m 45.416,45.47 0,70.74 83.764,0 0,46.48 -83.764,0 0,125.31 L 0,288 0,0 l 178.633,0 0,45.47 -133.217,0 z"
           transform="translate(412.955,1962.75)"
           id="path79" />
        <path
           inkscape:connector-curvature="0"
           style="fill:#000000;fill-rule:nonzero;stroke:none"
           d="M 105.1,298.1 C 61.65,298.1 36.38,281.93 19.2,245.55 7.08,220.29 0,184.92 0,149.55 0,103.07 13.14,57.6 32.34,32.33 49.52,11.11 73.78,0 106.12,0 c 44.46,0 70.74,18.19 89.94,63.66 L 152.6,80.84 C 140.47,55.58 128.35,46.48 106.12,46.48 c -23.25,0 -38.41,10.11 -48.51,35.37 -7.08,17.18 -11.12,43.45 -11.12,67.7 0,30.32 5.05,60.64 14.15,78.83 9.09,16.16 22.23,23.24 39.41,23.24 29.31,0 50.53,-18.19 50.53,-44.46 l 0,-12.13 -52.55,0 0,-45.48 98.03,0 0,57.61 c 0,52.54 -38.4,90.94 -90.96,90.94 z"
           transform="translate(1983.49,1957.7)"
           id="path81" />
      </g>
    </g>
  </g>
</svg>
