<?xml version="1.0" encoding="UTF-8" standalone="no"?>
<!-- Created with Inkscape (http://www.inkscape.org/) -->

<svg
   xmlns:dc="http://purl.org/dc/elements/1.1/"
   xmlns:cc="http://creativecommons.org/ns#"
   xmlns:rdf="http://www.w3.org/1999/02/22-rdf-syntax-ns#"
   xmlns:svg="http://www.w3.org/2000/svg"
   xmlns="http://www.w3.org/2000/svg"
   xmlns:sodipodi="http://sodipodi.sourceforge.net/DTD/sodipodi-0.dtd"
   xmlns:inkscape="http://www.inkscape.org/namespaces/inkscape"
   width="108.71875"
   height="130.375"
   id="svg2"
   sodipodi:version="0.32"
   inkscape:version="0.48.2 r9819"
   version="1.0"
   sodipodi:docname="MUTCD R10-11b.svg"
   inkscape:output_extension="org.inkscape.output.svg.inkscape">
  <defs
     id="defs4">
    <inkscape:perspective
       sodipodi:type="inkscape:persp3d"
       inkscape:vp_x="0 : 300.5 : 1"
       inkscape:vp_y="0 : 1000 : 0"
       inkscape:vp_z="601 : 300.5 : 1"
       inkscape:persp3d-origin="300.5 : 200.33333 : 1"
       id="perspective3380" />
    <inkscape:perspective
       id="perspective3990"
       inkscape:persp3d-origin="375 : 250 : 1"
       inkscape:vp_z="750 : 375 : 1"
       inkscape:vp_y="0 : 1000 : 0"
       inkscape:vp_x="0 : 375 : 1"
       sodipodi:type="inkscape:persp3d" />
  </defs>
  <sodipodi:namedview
     id="base"
     pagecolor="#ffffff"
     bordercolor="#666666"
     borderopacity="1.0"
     gridtolerance="10000"
     guidetolerance="10"
     objecttolerance="10"
     inkscape:pageopacity="0.0"
     inkscape:pageshadow="2"
     inkscape:zoom="3.639243"
     inkscape:cx="14.553341"
     inkscape:cy="60.991363"
     inkscape:document-units="px"
     inkscape:current-layer="layer1"
     width="601px"
     height="601px"
     inkscape:window-width="1280"
     inkscape:window-height="1004"
     inkscape:window-x="-8"
     inkscape:window-y="-8"
     showgrid="false"
     fit-margin-top="0"
     fit-margin-left="0"
     fit-margin-right="0"
     fit-margin-bottom="0"
     inkscape:window-maximized="1" />
  <metadata
     id="metadata7">
    <rdf:RDF>
      <cc:Work
         rdf:about="">
        <dc:format>image/svg+xml</dc:format>
        <dc:type
           rdf:resource="http://purl.org/dc/dcmitype/StillImage" />
        <dc:title></dc:title>
      </cc:Work>
    </rdf:RDF>
  </metadata>
  <g
     inkscape:label="Layer 1"
     inkscape:groupmode="layer"
     id="layer1"
     transform="translate(-3764.3438,8822.5625)">
    <rect
       style="color:#000000;fill:#000000;fill-opacity:1;fill-rule:nonzero;stroke:none;stroke-width:0.8735441;marker:none;visibility:visible;display:inline;overflow:visible"
       id="rect3653"
       width="0"
       height="27.202072"
       x="578.73834"
       y="298.1684"
       rx="249.48199"
       ry="27.202072" />
    <path
       inkscape:connector-curvature="0"
       d="m 3764.6821,-8697.9382 0,-118.8726 c 0,-2.9637 2.4238,-5.3875 5.3863,-5.3875 l 97.2487,0 c 2.965,0 5.3887,2.4237 5.3887,5.3875 l 0,118.8726 c 0,2.9624 -2.4237,5.3862 -5.3887,5.3862 l -97.2487,0 c -2.9625,0 -5.3863,-2.4237 -5.3863,-5.3862"
       style="fill:#ffffff;fill-opacity:1;fill-rule:nonzero;stroke:#000000;stroke-width:0.7;stroke-miterlimit:4;stroke-opacity:1;stroke-dasharray:none"
       id="path12826" />
    <path
       inkscape:connector-curvature="0"
       style="fill:#000000;fill-opacity:1;fill-rule:evenodd;stroke:none"
       d="m 3770.0625,-8820.6875 c -2.1375,0 -3.875,1.7362 -3.875,3.875 l 0,118.875 c 0,2.1375 1.7375,3.875 3.875,3.875 l 97.25,0 c 2.1388,0 3.9063,-1.7375 3.9063,-3.875 l 0,-118.875 c 0,-2.1388 -1.7675,-3.875 -3.9063,-3.875 l -97.25,0 z m 0,2.0937 97.25,0 c 0.9837,0 1.7813,0.7988 1.7813,1.7813 l 0,118.875 c 0,0.9813 -0.7976,1.7812 -1.7813,1.7812 l -97.25,0 c -0.9812,0 -1.7812,-0.7999 -1.7812,-1.7812 l 0,-118.875 c 0,-0.9825 0.8,-1.7813 1.7812,-1.7813 z"
       id="path12834" />
    <path
       inkscape:connector-curvature="0"
       d="m 3798.9709,-8807.7183 c -0.3588,-0.205 -0.565,-0.2562 -1.3338,-0.2562 l -2.7675,0 0,3.5887 2.7675,0 c 0.7175,0 0.975,-0.049 1.3338,-0.255 0.5637,-0.3062 0.9225,-0.9224 0.9225,-1.5387 0,-0.6162 -0.3588,-1.23 -0.9225,-1.5388 m 1.0262,12.055 -2.36,-6.3625 -2.7675,0 0,6.3625 -2.31,0 0,-14.6212 4.8213,0 c 1.1275,0 1.8975,0.1037 2.6162,0.4612 1.2825,0.6176 2.2063,2.1563 2.2063,3.6438 0,1.5387 -0.9238,3.0775 -2.2588,3.6925 l 2.5663,6.8237 -2.5138,0 z"
       style="fill:#000000;fill-opacity:1;fill-rule:nonzero;stroke:none"
       id="path12842" />
    <path
       inkscape:connector-curvature="0"
       d="m 3804.9725,-8810.285 2.36,0 0,14.6212 -2.36,0 0,-14.6212 z"
       style="fill:#000000;fill-opacity:1;fill-rule:nonzero;stroke:none"
       id="path12844" />
    <path
       inkscape:connector-curvature="0"
       d="m 3815.8471,-8795.407 c -2.2062,0 -3.4875,-0.82 -4.3612,-2.6675 -0.6163,-1.2825 -0.975,-3.0787 -0.975,-4.8738 0,-2.3587 0.6687,-4.6675 1.6412,-5.95 0.875,-1.0787 2.105,-1.6412 3.7475,-1.6412 2.255,0 3.5913,0.9212 4.5625,3.2337 l -2.205,0.8713 c -0.615,-1.2838 -1.2312,-1.7438 -2.3575,-1.7438 -1.18,0 -1.9512,0.5113 -2.465,1.7925 -0.3587,0.8713 -0.5625,2.2063 -0.5625,3.4375 0,1.54 0.2563,3.0775 0.7175,4.0013 0.4613,0.8213 1.13,1.18 2.0025,1.18 1.4863,0 2.5625,-0.9225 2.5625,-2.2563 l 0,-0.6162 -2.6662,0 0,-2.3088 4.9737,0 0,2.925 c 0,2.6663 -1.9475,4.6163 -4.615,4.6163"
       style="fill:#000000;fill-opacity:1;fill-rule:nonzero;stroke:none"
       id="path12848" />
    <path
       inkscape:connector-curvature="0"
       d="m 3831.2859,-8795.6633 0,-6.3625 -5.3325,0 0,6.3625 -2.31,0 0,-14.6212 2.31,0 0,5.8987 5.3325,0 0,-5.8987 2.3087,0 0,14.6212 -2.3087,0 z"
       style="fill:#000000;fill-opacity:1;fill-rule:nonzero;stroke:none"
       id="path12852" />
    <path
       inkscape:connector-curvature="0"
       d="m 3841.4434,-8808.232 0,12.5687 -2.3088,0 0,-12.5687 -3.3325,0 0,-2.0525 9.0275,0 0,2.0525 -3.3862,0 z"
       style="fill:#000000;fill-opacity:1;fill-rule:nonzero;stroke:none"
       id="path12856" />
    <path
       inkscape:connector-curvature="0"
       d="m 3791.7635,-8784.1882 c -0.46,-0.7675 -1.025,-1.0751 -1.8963,-1.1263 -1.1287,-0.052 -1.8474,0.5137 -2.3612,1.795 -0.3587,0.8712 -0.5625,2.2063 -0.5625,3.4375 0,1.5375 0.3063,3.1275 0.8713,4.0525 0.4625,0.77 1.0762,1.1287 2,1.1287 1.0787,0 1.7437,-0.5662 2.2575,-1.8487 0.3062,-0.7687 0.5625,-2.205 0.5625,-3.3325 0,-1.6438 -0.3076,-3.13 -0.8713,-4.1062 m 1.5925,10.0037 c -0.8225,1.13 -2,1.6437 -3.5412,1.6437 -2.0513,0 -3.3338,-0.8225 -4.205,-2.6162 -0.6176,-1.2338 -1.0275,-3.1813 -1.0275,-4.925 0,-2.4125 0.6162,-4.5675 1.5912,-5.95 0.8725,-1.13 2.0525,-1.6438 3.745,-1.6438 1.845,0 3.1288,0.82 4.05,2.6163 0.6175,1.2837 0.9763,3.13 0.9763,4.9775 0,2.3087 -0.5638,4.615 -1.5888,5.8975"
       style="fill:#000000;fill-opacity:1;fill-rule:nonzero;stroke:none"
       id="path12860" />
    <path
       inkscape:connector-curvature="0"
       d="m 3806.0746,-8772.7995 -5.5925,-9.9 0,9.9 -2.305,0 0,-14.6188 2.305,0 5.3363,9.3363 0,-9.3363 2.3087,0 0,14.6188 -2.0525,0 z"
       style="fill:#000000;fill-opacity:1;fill-rule:nonzero;stroke:none"
       id="path12864" />
    <path
       inkscape:connector-curvature="0"
       d="m 3825.3109,-8784.8545 c -0.3588,-0.205 -0.565,-0.2563 -1.3338,-0.2563 l -2.7712,0 0,3.5913 2.7712,0 c 0.7175,0 0.975,-0.051 1.3338,-0.255 0.5637,-0.3088 0.9225,-0.925 0.9225,-1.5413 0,-0.6137 -0.3588,-1.2299 -0.9225,-1.5387 m 1.0262,12.055 -2.36,-6.36 -2.7712,0 0,6.36 -2.3063,0 0,-14.6188 4.8225,0 c 1.1275,0 1.8963,0.1013 2.615,0.4613 1.2838,0.615 2.2063,2.1562 2.2063,3.6412 0,1.5413 -0.9225,3.0775 -2.2575,3.695 l 2.565,6.8213 -2.5138,0 z"
       style="fill:#000000;fill-opacity:1;fill-rule:nonzero;stroke:none"
       id="path12868" />
    <path
       inkscape:connector-curvature="0"
       d="m 3831.3121,-8772.7995 0,-14.6188 8.6175,0 0,2.3075 -6.3087,0 0,3.5913 4.2587,0 0,2.36 -4.2587,0 0,4.0025 6.77,0 0,2.3575 -9.0788,0 z"
       style="fill:#000000;fill-opacity:1;fill-rule:nonzero;stroke:none"
       id="path12872" />
    <path
       inkscape:connector-curvature="0"
       d="m 3849.2646,-8784.4945 c -0.3587,-0.36 -0.8725,-0.6163 -1.485,-0.6163 l -2.6175,0 0,9.9538 2.31,0 c 0.7688,0 1.23,-0.1538 1.64,-0.5662 0.8713,-0.8713 1.3338,-2.4601 1.3338,-4.4113 0,-1.9488 -0.4625,-3.5913 -1.1813,-4.36 m 0.975,10.875 c -0.565,0.51 -1.3337,0.7687 -2.1025,0.82 l -0.82,0 -4.465,0 0,-14.6188 4.72,0 c 1.4888,0 2.05,0.1525 2.8213,0.7688 1.5387,1.335 2.4112,3.64 2.4112,6.515 0,2.9237 -0.9237,5.2337 -2.565,6.515"
       style="fill:#000000;fill-opacity:1;fill-rule:nonzero;stroke:none"
       id="path12876" />
    <path
       inkscape:connector-curvature="0"
       d="m 3792.7148,-8760.5007 -1.4888,4.1024 2.9225,0 -1.4337,-4.1024 z m 3.6925,10.5649 -1.4375,-4.1012 -4.5638,0 -1.4375,4.1012 -2.4612,0 5.0287,-14.6187 2.3063,0 5.0274,14.6187 -2.4624,0 z"
       style="fill:#000000;fill-opacity:1;fill-rule:nonzero;stroke:none"
       id="path12880" />
    <path
       inkscape:connector-curvature="0"
       d="m 3807.4846,-8761.9883 c -0.3562,-0.2075 -0.5625,-0.2562 -1.3312,-0.2562 l -2.7713,0 0,3.5913 2.7713,0 c 0.7175,0 0.975,-0.054 1.3312,-0.2575 0.565,-0.3088 0.925,-0.9251 0.925,-1.5413 0,-0.6138 -0.36,-1.23 -0.925,-1.5363 m 1.0275,12.0525 -2.3587,-6.3599 -2.7713,0 0,6.3599 -2.31,0 0,-14.6187 4.8238,0 c 1.1287,0 1.8975,0.1037 2.6162,0.4612 1.2813,0.615 2.205,2.1563 2.205,3.6413 0,1.5413 -0.9237,3.08 -2.2537,3.695 l 2.5625,6.8212 -2.5138,0 z"
       style="fill:#000000;fill-opacity:1;fill-rule:nonzero;stroke:none"
       id="path12884" />
    <path
       inkscape:connector-curvature="0"
       d="m 3819.9009,-8761.9883 c -0.3588,-0.2075 -0.5663,-0.2562 -1.3338,-0.2562 l -2.7712,0 0,3.5913 2.7712,0 c 0.7163,0 0.975,-0.054 1.3338,-0.2575 0.5612,-0.3088 0.92,-0.9251 0.92,-1.5413 0,-0.6138 -0.3588,-1.23 -0.92,-1.5363 m 1.025,12.0525 -2.3588,-6.3599 -2.7712,0 0,6.3599 -2.3075,0 0,-14.6187 4.82,0 c 1.13,0 1.8987,0.1037 2.6175,0.4612 1.2812,0.615 2.205,2.1563 2.205,3.6413 0,1.5413 -0.9238,3.08 -2.2563,3.695 l 2.5663,6.8212 -2.515,0 z"
       style="fill:#000000;fill-opacity:1;fill-rule:nonzero;stroke:none"
       id="path12888" />
    <path
       inkscape:connector-curvature="0"
       d="m 3832.7746,-8761.3233 c -0.4612,-0.7687 -1.0262,-1.075 -1.8987,-1.1275 -1.1275,-0.051 -1.8463,0.5138 -2.3588,1.795 -0.36,0.8713 -0.565,2.2063 -0.565,3.4375 0,1.54 0.3075,3.1288 0.8725,4.0525 0.4625,0.77 1.0763,1.1288 2.0013,1.1288 1.0762,0 1.7437,-0.565 2.2562,-1.8463 0.31,-0.7712 0.565,-2.2074 0.565,-3.335 0,-1.6412 -0.3062,-3.1299 -0.8725,-4.105 m 1.5888,10.0038 c -0.82,1.1287 -1.9988,1.6425 -3.5375,1.6425 -2.0525,0 -3.335,-0.82 -4.2063,-2.6163 -0.615,-1.2312 -1.0275,-3.1812 -1.0275,-4.925 0,-2.4112 0.6175,-4.565 1.5913,-5.95 0.8712,-1.1274 2.0512,-1.6412 3.7437,-1.6412 1.8475,0 3.13,0.82 4.0538,2.6137 0.615,1.2838 0.975,3.13 0.975,4.9775 0,2.3088 -0.565,4.6163 -1.5925,5.8988"
       style="fill:#000000;fill-opacity:1;fill-rule:nonzero;stroke:none"
       id="path12892" />
    <path
       inkscape:connector-curvature="0"
       d="m 3848.7271,-8749.9358 -2.0512,0 -2.3088,-9.385 -2.2575,9.385 -2.05,0 -2.1562,-14.6187 2.3587,0 1.13,7.695 1.8463,-7.695 2.2562,0 1.8988,7.695 1.1275,-7.695 2.3612,0 -2.155,14.6187 z"
       style="fill:#000000;fill-opacity:1;fill-rule:nonzero;stroke:none"
       id="path12896" />
    <path
       inkscape:connector-curvature="0"
       d="m 3796.3059,-8737.7458 -1.4888,4.1063 2.9225,0 -1.4337,-4.1063 z m 3.6912,10.5688 -1.4375,-4.105 -4.5625,0 -1.4375,4.105 -2.4612,0 5.0275,-14.6213 2.3075,0 5.0262,14.6213 -2.4625,0 z"
       style="fill:#000000;fill-opacity:1;fill-rule:nonzero;stroke:none"
       id="path12900" />
    <path
       inkscape:connector-curvature="0"
       d="m 3806.9734,-8739.4883 0,3.5913 4.2575,0 0,2.3587 -4.2575,0 0,6.3613 -2.31,0 0,-14.6213 9.08,0 0,2.31 -6.77,0 z"
       style="fill:#000000;fill-opacity:1;fill-rule:nonzero;stroke:none"
       id="path12904" />
    <path
       inkscape:connector-curvature="0"
       d="m 3820.2596,-8739.7445 0,12.5675 -2.31,0 0,-12.5675 -3.3337,0 0,-2.0538 9.0275,0 0,2.0538 -3.3838,0 z"
       style="fill:#000000;fill-opacity:1;fill-rule:nonzero;stroke:none"
       id="path12908" />
    <path
       inkscape:connector-curvature="0"
       d="m 3825.7996,-8727.177 0,-14.6213 8.6163,0 0,2.31 -6.3088,0 0,3.5913 4.2575,0 0,2.3587 -4.2575,0 0,4.0013 6.77,0 0,2.36 -9.0775,0 z"
       style="fill:#000000;fill-opacity:1;fill-rule:nonzero;stroke:none"
       id="path12912" />
    <path
       inkscape:connector-curvature="0"
       d="m 3843.7534,-8739.2308 c -0.3613,-0.2062 -0.565,-0.2575 -1.3338,-0.2575 l -2.77,0 0,3.5913 2.77,0 c 0.7175,0 0.9725,-0.051 1.3338,-0.2588 0.5625,-0.3062 0.92,-0.9225 0.92,-1.5375 0,-0.6162 -0.3575,-1.2312 -0.92,-1.5375 m 1.0237,12.0538 -2.3575,-6.3613 -2.77,0 0,6.3613 -2.31,0 0,-14.6213 4.8213,0 c 1.1312,0 1.9,0.1025 2.6162,0.4613 1.2838,0.6175 2.2063,2.1562 2.2063,3.6437 0,1.5375 -0.9225,3.0775 -2.2575,3.695 l 2.565,6.8213 -2.5138,0 z"
       style="fill:#000000;fill-opacity:1;fill-rule:nonzero;stroke:none"
       id="path12916" />
    <path
       inkscape:connector-curvature="0"
       d="m 3804.4346,-8705.1844 c -0.8225,0.7188 -1.9512,1.1288 -3.1812,1.1288 -2.5138,0 -4.3575,-1.4875 -5.335,-3.695 l 2.2075,-0.82 c 0.6137,1.3875 1.7437,2.1562 3.1275,2.1562 1.3337,0 2.2562,-0.925 2.2562,-2.1562 0,-1.95 -2.2562,-2.2563 -4.155,-3.0263 -0.8712,-0.3575 -2.8187,-1.23 -2.8187,-3.6437 0,-2.8713 1.9475,-3.9488 4.5637,-3.9488 2.0525,0 3.4363,1.18 4.155,2.9775 l -2.0525,0.6138 c 0,0 -0.5112,-1.2313 -2.1537,-1.2825 -1.0763,-0.051 -2.36,0.3587 -2.2563,1.6925 0.2038,2.7187 7.0775,0.9237 7.0775,6.6687 0,1.3363 -0.5137,2.515 -1.435,3.335"
       style="fill:#000000;fill-opacity:1;fill-rule:nonzero;stroke:none"
       id="path12920" />
    <path
       inkscape:connector-curvature="0"
       d="m 3812.6909,-8716.8808 0,12.5676 -2.3088,0 0,-12.5676 -3.3325,0 0,-2.0512 9.0288,0 0,2.0512 -3.3875,0 z"
       style="fill:#000000;fill-opacity:1;fill-rule:nonzero;stroke:none"
       id="path12924" />
    <path
       inkscape:connector-curvature="0"
       d="m 3825.1073,-8715.6995 c -0.4651,-0.7713 -1.0263,-1.0775 -1.9,-1.13 -1.1288,-0.051 -1.8463,0.515 -2.3588,1.7938 -0.3587,0.8724 -0.5638,2.2087 -0.5638,3.4387 0,1.5387 0.3076,3.13 0.8726,4.0513 0.4587,0.7699 1.075,1.1312 1.9987,1.1312 1.0763,0 1.745,-0.5663 2.2575,-1.8488 0.3075,-0.7687 0.565,-2.2024 0.565,-3.3337 0,-1.64 -0.3087,-3.1288 -0.8712,-4.1025 m 1.5887,10.0037 c -0.8225,1.1263 -2.0012,1.64 -3.54,1.64 -2.0512,0 -3.3337,-0.8225 -4.205,-2.6175 -0.6175,-1.2312 -1.0275,-3.1787 -1.0275,-4.9237 0,-2.4113 0.6175,-4.5663 1.5887,-5.9513 0.8738,-1.1275 2.0526,-1.6412 3.7476,-1.6412 1.8475,0 3.1274,0.82 4.0512,2.6162 0.6163,1.2813 0.975,3.13 0.975,4.9763 0,2.3075 -0.5625,4.6162 -1.59,5.9012"
       style="fill:#000000;fill-opacity:1;fill-rule:nonzero;stroke:none"
       id="path12928" />
    <path
       inkscape:connector-curvature="0"
       d="m 3838.2371,-8716.367 c -0.41,-0.2063 -0.665,-0.255 -1.3862,-0.255 l -3.025,0 0,3.5887 3.025,0 c 0.7212,0 0.9762,-0.049 1.3862,-0.2562 0.5138,-0.2562 0.8725,-0.9238 0.8725,-1.5388 0,-0.615 -0.3587,-1.2325 -0.8725,-1.5387 m 0.975,5.18 c -0.6687,0.3075 -1.54,0.515 -2.6687,0.515 l -2.7175,0 0,6.3588 -2.3088,0 0,-14.6188 5.0263,0 c 1.18,0 1.9487,0.1025 2.6687,0.4612 1.2825,0.615 2.2588,2.1563 2.2588,3.6425 0,1.5388 -0.9763,3.0763 -2.2588,3.6413"
       style="fill:#000000;fill-opacity:1;fill-rule:nonzero;stroke:none"
       id="path12932" />
  </g>
</svg>
