<?xml version="1.0" encoding="UTF-8" standalone="no"?>
<!-- Created with Inkscape (http://www.inkscape.org/) -->

<svg
   xmlns:dc="http://purl.org/dc/elements/1.1/"
   xmlns:cc="http://creativecommons.org/ns#"
   xmlns:rdf="http://www.w3.org/1999/02/22-rdf-syntax-ns#"
   xmlns:svg="http://www.w3.org/2000/svg"
   xmlns="http://www.w3.org/2000/svg"
   xmlns:sodipodi="http://sodipodi.sourceforge.net/DTD/sodipodi-0.dtd"
   xmlns:inkscape="http://www.inkscape.org/namespaces/inkscape"
   id="svg2"
   inkscape:version="0.48.2 r9819"
   height="1090"
   width="820"
   version="1.1"
   sodipodi:docname="AJAX9.svg">
  <defs
     id="defs19" />
  <sodipodi:namedview
     id="base"
     fit-margin-left="0"
     inkscape:zoom="0.16367188"
     borderopacity="1.0"
     inkscape:current-layer="g3763"
     inkscape:cx="1938.6657"
     inkscape:cy="1772.7994"
     inkscape:window-maximized="1"
     showgrid="false"
     fit-margin-right="0"
     inkscape:document-units="px"
     bordercolor="#666666"
     inkscape:window-x="-8"
     inkscape:guide-bbox="true"
     inkscape:window-y="-8"
     fit-margin-bottom="0"
     inkscape:window-width="1280"
     inkscape:pageopacity="0.0"
     inkscape:pageshadow="2"
     pagecolor="#ffffff"
     showguides="true"
     inkscape:window-height="1004"
     fit-margin-top="0" />
  <metadata
     id="metadata7">
    <rdf:RDF>
      <cc:Work
         rdf:about="">
        <dc:format>image/svg+xml</dc:format>
        <dc:type
           rdf:resource="http://purl.org/dc/dcmitype/StillImage" />
        <dc:title></dc:title>
      </cc:Work>
    </rdf:RDF>
  </metadata>
  <g
     id="layer1"
     inkscape:label="Layer 1"
     inkscape:groupmode="layer"
     transform="translate(195.83595,730.20448)">
    <g
       id="g3012"
       transform="translate(109.60155,-54.548234)"
       stroke-miterlimit="4"
       style="fill:#0dadea;stroke-miterlimit:4;stroke-dasharray:none">
      <g
         id="g3763">
        <path
           inkscape:connector-curvature="0"
           style="fill:#ffffff;fill-rule:nonzero;stroke:#000000;stroke-width:10;stroke-linecap:butt;stroke-linejoin:miter;stroke-miterlimit:4;stroke-opacity:1;stroke-dasharray:none"
           d="m 509.5625,274.34375 c 0,74.55875 -60.4425,135.00005 -135,135.00005 l -540,0 c -74.55937,0 -135,-60.4413 -135,-135.00005 l 0,-810 c 0,-74.55937 60.44063,-135 135,-135 l 540,0 c 74.5575,0 135,60.44063 135,135 l 0,810 z"
           id="path11" />
        <path
           inkscape:connector-curvature="0"
           style="fill:#000000;fill-rule:nonzero;stroke:none"
           d="m -165.4375,375.5938 c -55.83012,0 -101.25,-45.42 -101.25,-101.25 l 0,-810 c 0,-55.83012 45.41988,-101.25 101.25,-101.25 l 540,0 c 55.82875,0 101.25,45.41988 101.25,101.25 l 0,810 c 0,55.83 -45.42125,101.25 -101.25,101.25 l -540,0 z"
           id="path13" />
        <path
           inkscape:connector-curvature="0"
           style="fill:#ffffff;fill-rule:nonzero;stroke:none"
           d="m -165.4375,341.8438 c -37.2205,0 -67.5,-30.28 -67.5,-67.5 l 0,-810 c 0,-37.2205 30.2795,-67.5 67.5,-67.5 l 540,0 c 37.21875,0 67.5,30.2795 67.5,67.5 l 0,810 c 0,37.22 -30.28125,67.5 -67.5,67.5 l -540,0 z"
           id="path15" />
        <path
           inkscape:connector-curvature="0"
           style="fill:#000000;fill-rule:nonzero;stroke:none"
           d="m -96.595,67.72 c -1.26625,-8.84375 -4.755,-12.94875 -10.78125,-12.94875 -10.465,0 -14.27,8.2125 -14.27,31.57875 0,25.89625 4.43875,36.31625 15.53875,36.31625 7.61125,0 9.5125,-6.31625 9.5125,-12.9475 l 13.00375,0 c -0.3175,14.8425 -9.8325,25.57875 -22.51625,25.57875 -19.345,0 -27.90625,-15.47375 -27.90625,-48.63 0,-29.0525 9.19625,-44.52625 26.955,-44.52625 7.2925,0 13.635,3.15625 17.75875,9.1575 3.4875,4.42125 4.75625,8.21 5.70875,16.42125 l -13.00375,0 z"
           id="path17" />
        <path
           inkscape:connector-curvature="0"
           style="fill:#000000;fill-rule:nonzero;stroke:none"
           d="m 340.6025,122.66625 c -3.48875,7.895 -10.78375,12.63125 -19.98,12.63125 -10.78,0 -18.70875,-5.36875 -23.14875,-15.47375 -2.85375,-6.63 -4.7575,-19.2625 -4.7575,-30.9475 0,-12.63125 0.9525,-21.78875 4.1225,-30.31375 3.17125,-9.47625 12.36875,-16.42125 22.83375,-16.42125 13,0 22.8325,9.4725 23.46625,22.73625 l -13.0025,0 c -0.3175,-6.00125 -4.43875,-10.10625 -10.78125,-10.10625 -4.44,0 -7.92875,2.21125 -10.1475,6.6325 -2.535,4.42125 -4.1225,14.52625 -4.1225,25.26375 0,7.5775 0.63375,15.47375 1.9025,22.41875 1.9025,8.84375 6.3425,13.58 13.32,13.58 6.6575,0 9.82875,-4.42 9.82875,-13.895 l 0,-5.99875 -10.14625,0 0,-12.6325 23.14875,0 0,18.63125 c 0,6.31625 -0.63375,10.105 -2.53625,13.895 z"
           id="path19" />
        <path
           inkscape:connector-curvature="0"
           style="fill:#000000;fill-rule:nonzero;stroke:none"
           d="m 191.895,133.71875 0,-90 12.6,0 0,90 -12.6,0 z"
           id="path21" />
        <path
           inkscape:connector-curvature="0"
           style="fill:#000000;fill-rule:nonzero;stroke:none"
           d="m 264.94875,133.71875 -27.73375,-60.315 0,60.315 -12.92,0 0,-90 12.92,0 24.58125,54.00125 0,-54.00125 12.92125,0 0,90 -9.76875,0 z"
           id="path23" />
        <path
           inkscape:connector-curvature="0"
           style="fill:#000000;fill-rule:nonzero;stroke:none"
           d="m -39.43625,56.35125 -13.23625,0 0,22.73625 13.23625,0 c 7.56375,0 11.66,-4.105 11.66,-11.3675 0,-6.94875 -4.7275,-11.36875 -11.66,-11.36875 z m 11.02875,77.3675 -11.975,-42.315 -12.29,0 0,42.315 -12.92,0 0,-90 26.7875,0 c 14.18,0 23.635,9.475 23.635,24.00125 0,10.7375 -4.41125,18.63125 -12.92125,21.78875 l 12.92125,44.21 -13.2375,0 z"
           id="path25" />
        <path
           inkscape:connector-curvature="0"
           style="fill:#000000;fill-rule:nonzero;stroke:none"
           d="M 36.1825,66.14125 C 33.95625,58.245 30.4575,54.7725 25.05,54.7725 19.325,54.7725 15.82625,58.245 13.59875,65.825 11.37,72.77125 10.735,78.77125 10.735,88.87625 c 0,9.79 0.955,15.47375 2.86375,22.7375 2.2275,7.5775 5.72625,11.0525 11.45125,11.0525 5.4075,0 8.90625,-3.475 11.1325,-11.0525 2.22625,-7.26375 2.86375,-12.6325 2.86375,-23.05125 0,-10.105 -0.955,-15.79125 -2.86375,-22.42125 z m 10.18,53.6825 C 41.91,130.56125 35.2275,135.2975 25.05,135.2975 c -10.81625,0 -17.17875,-4.73625 -21.63125,-15.47375 -3.81625,-8.8425 -5.09,-17.3675 -5.09,-31.26125 0,-13.58 1.27375,-22.7375 5.09,-31.265 4.7725,-10.735 11.1325,-15.15625 21.63125,-15.15625 10.4975,0 16.86,4.42125 21.3125,15.47375 3.81625,8.84 5.08875,17.3675 5.08875,30.9475 0,13.89375 -1.2725,22.73625 -5.08875,31.26125 z"
           id="path27" />
        <path
           inkscape:connector-curvature="0"
           style="fill:#000000;fill-rule:nonzero;stroke:none"
           d="m 151.8,92.15625 c -3.8925,-2.5225 -7.675,-5.05375 -10.0875,-6.75375 -7.25625,-5.10625 -11.1,-11.99875 -11.1,-19.89375 0,-12.9475 10.14875,-23.3675 23.15,-23.3675 12.68625,0 22.51625,9.78875 22.83375,23.3675 l -12.36875,0 c -0.31625,-6.31625 -4.75625,-10.42125 -10.465,-10.42125 -6.025,0 -10.7825,4.42125 -10.7825,10.42125 0,4.42 1.90375,6.9475 8.56375,10.73625 17.44125,10.10625 25.0525,19.89625 25.0525,32.8425 0,14.5275 -11.1,26.21 -25.0525,26.21 -15.8575,0 -25.37,-13.26125 -25.37,-28.105 l 12.68625,0 c 0,7.58 3.8025,15.475 12.68375,15.475 6.97625,0 12.68375,-6.31625 12.68375,-13.58 0,-5.63875 -2.33,-10.38875 -12.4275,-16.93125 z"
           id="path29" />
        <path
           inkscape:connector-curvature="0"
           style="fill:#000000;fill-rule:nonzero;stroke:none"
           d="M 90.57875,92.15625 C 86.685,89.63375 82.90375,87.1025 80.49,85.4025 73.235,80.29625 69.39,73.40375 69.39,65.50875 c 0,-12.9475 10.14875,-23.3675 23.15125,-23.3675 12.685,0 22.51625,9.78875 22.8325,23.3675 l -12.3675,0 c -0.3175,-6.31625 -4.7575,-10.42125 -10.465,-10.42125 -6.025,0 -10.7825,4.42125 -10.7825,10.42125 0,4.42 1.9025,6.9475 8.5625,10.73625 17.4425,10.10625 25.0525,19.89625 25.0525,32.8425 0,14.5275 -11.09875,26.21 -25.0525,26.21 -15.85625,0 -25.3675,-13.26125 -25.3675,-28.105 l 12.6825,0 c 0,7.58 3.805,15.475 12.685,15.475 6.97625,0 12.685,-6.31625 12.685,-13.58 0,-5.63875 -2.33,-10.38875 -12.4275,-16.93125 z"
           id="path31" />
        <path
           inkscape:connector-curvature="0"
           style="fill:#000000;fill-rule:nonzero;stroke:none"
           d="m 166.68375,279.96875 0,-90 42.43875,0 0,12.63125 -29.4525,0 0,22.73625 18.68625,0 0,12.3175 -18.68625,0 0,29.685 32.9375,0 0,12.63 -45.92375,0 z"
           id="path33" />
        <path
           inkscape:connector-curvature="0"
           style="fill:#000000;fill-rule:nonzero;stroke:none"
           d="m 55.04,279.96875 0,-90 12.6,0 0,90 -12.6,0 z"
           id="path35" />
        <path
           inkscape:connector-curvature="0"
           style="fill:#000000;fill-rule:nonzero;stroke:none"
           d="m 133.92,279.96875 0,-50.525 -16.7575,50.525 -16.75875,-50.525 0,50.525 -12.96375,0 0,-90 12.96375,0 16.75875,50.52625 16.7575,-50.52625 12.96375,0 0,90 -12.96375,0 z"
           id="path37" />
        <path
           inkscape:connector-curvature="0"
           style="fill:#000000;fill-rule:nonzero;stroke:none"
           d="m 25.97125,201.97 0,77.99875 -12.985,0 0,-77.99875 -16.46875,0 0,-12.00125 45.92375,0 0,12.00125 -16.47,0 z"
           id="path39" />
        <path
           inkscape:connector-curvature="0"
           style="fill:#000000;fill-rule:nonzero;stroke:none"
           d="m 216.7875,-451.28125 0,-40.73625 -24.58125,0 0,40.73625 -12.9225,0 0,-90 12.9225,0 0,36.63125 24.58125,0 0,-36.63125 12.92,0 0,90 -12.92,0 z"
           id="path41" />
        <path
           inkscape:connector-curvature="0"
           style="fill:#000000;fill-rule:nonzero;stroke:none"
           d="m 5.575,-528.64875 -13.23625,0 0,25.57875 13.23625,0 c 7.5625,0 11.66,-4.73625 11.66,-12.9475 0,-7.57875 -4.7275,-12.63125 -11.66,-12.63125 z m 0.62875,37.89375 -13.865,0 0,39.47375 -12.92125,0 0,-90 26.78625,0 c 14.1825,0 23.63625,10.105 23.63625,25.26375 0,16.42125 -8.50875,25.2625 -23.63625,25.2625 z"
           id="path43" />
        <path
           inkscape:connector-curvature="0"
           style="fill:#000000;fill-rule:nonzero;stroke:none"
           d="m 139.19,-492.84375 c -3.89375,-2.5225 -7.67375,-5.05375 -10.08875,-6.75375 -7.25625,-5.10625 -11.09875,-11.99875 -11.09875,-19.89375 0,-12.9475 10.1475,-23.36875 23.14875,-23.36875 12.68625,0 22.51625,9.79 22.83375,23.36875 l -12.3675,0 c -0.31625,-6.31625 -4.75625,-10.42125 -10.46625,-10.42125 -6.025,0 -10.78125,4.42125 -10.78125,10.42125 0,4.42 1.9025,6.9475 8.5625,10.73625 17.44125,10.10625 25.0525,19.895 25.0525,32.8425 0,14.5275 -11.1,26.21 -25.0525,26.21 -15.85625,0 -25.37,-13.2625 -25.37,-28.105 l 12.685,0 c 0,7.57875 3.80625,15.475 12.685,15.475 6.97625,0 12.685,-6.31625 12.685,-13.58 0,-5.63875 -2.33125,-10.39 -12.4275,-16.93125 z"
           id="path45" />
        <path
           inkscape:connector-curvature="0"
           style="fill:#000000;fill-rule:nonzero;stroke:none"
           d="m 94.7975,-462.3325 c -4.41375,7.2625 -12.92125,12.63 -21.43125,12.63 -8.825,0 -17.6475,-5.0525 -22.05875,-12.63 -2.5225,-4.7375 -3.4675,-8.5275 -3.4675,-15.79 l 0,-63.15875 12.92,0 0,64.7375 c 0,8.52625 5.0425,14.21125 12.60625,14.21125 6.93375,0 11.97625,-5.685 11.97625,-14.21125 l 0,-64.7375 12.92,0 0,63.15875 c 0,7.2625 -0.945,11.0525 -3.465,15.79 z"
           id="path47" />
        <path
           inkscape:connector-curvature="0"
           style="fill:#000000;fill-rule:nonzero;stroke:none"
           d="m 102.35875,-224.78125 c -1.26625,-8.8425 -4.755,-12.9475 -10.78125,-12.9475 -10.465,0 -14.27,8.21125 -14.27,31.57875 0,25.895 4.43875,36.31625 15.53875,36.31625 7.61125,0 9.5125,-6.31625 9.5125,-12.9475 l 13.00375,0 c -0.3175,14.8425 -9.8325,25.57875 -22.51625,25.57875 -19.345,0 -27.90625,-15.47375 -27.90625,-48.63125 0,-29.0525 9.19625,-44.52625 26.955,-44.52625 7.2925,0 13.635,3.1575 17.75875,9.1575 3.4875,4.42125 4.75625,8.21 5.70875,16.42125 l -13.00375,0 z"
           id="path49" />
        <path
           inkscape:connector-curvature="0"
           style="fill:#000000;fill-rule:nonzero;stroke:none"
           d="m 308.20125,-226.9925 c -2.20625,-6.315 -5.98875,-9.1575 -11.66,-9.1575 l -10.715,0 0,64.7375 10.715,0 c 7.56375,0 11.66,-6 12.92,-12.9475 0.6325,-5.68375 1.2625,-11.99875 1.2625,-18.9475 0,-10.10625 -0.9475,-19.895 -2.5225,-23.685 z m 2.2075,64.10625 c -3.1525,2.8425 -7.56375,4.105 -12.6075,4.105 l -24.895,0 0,-90 23.005,0 c 7.56375,0 11.345,0.9475 14.4975,3.47375 5.35625,3.78875 9.1375,10.7375 10.7125,19.895 1.2625,6.63125 2.2075,14.52625 2.2075,21.47375 0,20.84125 -4.0975,34.105 -12.92,41.0525 z"
           id="path51" />
        <path
           inkscape:connector-curvature="0"
           style="fill:#000000;fill-rule:nonzero;stroke:none"
           d="m 5.5175,-158.78125 0,-90 42.43875,0 0,12.63125 -29.455,0 0,22.73625 18.6875,0 0,12.3175 -18.6875,0 0,29.68375 32.93875,0 0,12.63125 -45.9225,0 z"
           id="path53" />
        <path
           inkscape:connector-curvature="0"
           style="fill:#000000;fill-rule:nonzero;stroke:none"
           d="m 243.33625,-158.78125 -27.7325,-60.315 0,60.315 -12.92125,0 0,-90 12.92125,0 24.58,54.00125 0,-54.00125 12.9225,0 0,90 -9.77,0 z"
           id="path55" />
        <path
           inkscape:connector-curvature="0"
           style="fill:#000000;fill-rule:nonzero;stroke:none"
           d="m 169.41375,-226.35875 c -2.225,-7.895 -5.725,-11.37 -11.1325,-11.37 -5.725,0 -9.22375,3.475 -11.45125,11.05375 -2.2275,6.9475 -2.86375,12.94625 -2.86375,23.05125 0,9.79 0.955,15.47375 2.86375,22.7375 2.2275,7.57875 5.72625,11.05375 11.45125,11.05375 5.4075,0 8.9075,-3.475 11.1325,-11.05375 2.22625,-7.26375 2.86375,-12.63125 2.86375,-23.05125 0,-10.105 -0.955,-15.79 -2.86375,-22.42125 z m 10.18,53.6825 c -4.4525,10.7375 -11.135,15.475 -21.3125,15.475 -10.81625,0 -17.1775,-4.7375 -21.63,-15.475 -3.8175,-8.84125 -5.09,-17.3675 -5.09,-31.26125 0,-13.58 1.2725,-22.7375 5.09,-31.26375 4.77125,-10.7375 11.1325,-15.15875 21.63,-15.15875 10.4975,0 16.86,4.42125 21.3125,15.47375 3.81625,8.8425 5.08875,17.36875 5.08875,30.94875 0,13.89375 -1.2725,22.73625 -5.08875,31.26125 z"
           id="path57" />
        <path
           inkscape:connector-curvature="0"
           style="fill:#000000;fill-rule:nonzero;stroke:none"
           d="m -34.5775,-200.34375 c -3.89375,-2.5225 -7.675,-5.05375 -10.08875,-6.75375 -7.255,-5.10625 -11.09875,-11.99875 -11.09875,-19.89375 0,-12.9475 10.1475,-23.36875 23.15,-23.36875 12.685,0 22.51625,9.79 22.8325,23.36875 l -12.3675,0 c -0.3175,-6.31625 -4.75625,-10.42125 -10.465,-10.42125 -6.025,0 -10.7825,4.42125 -10.7825,10.42125 0,4.42 1.9025,6.9475 8.5625,10.73625 17.4425,10.10625 25.0525,19.89625 25.0525,32.8425 0,14.5275 -11.09875,26.21 -25.0525,26.21 -15.85625,0 -25.36875,-13.2625 -25.36875,-28.105 l 12.68375,0 c 0,7.57875 3.805,15.475 12.685,15.475 6.97625,0 12.685,-6.31625 12.685,-13.58 0,-5.63875 -2.33,-10.39 -12.4275,-16.93125 z"
           id="path59" />
        <path
           inkscape:connector-curvature="0"
           style="fill:#000000;fill-rule:nonzero;stroke:none"
           d="m 362.45625,-200.34375 c -3.89375,-2.5225 -7.675,-5.05375 -10.0875,-6.75375 -7.25625,-5.10625 -11.10125,-11.99875 -11.10125,-19.89375 0,-12.9475 10.14875,-23.36875 23.1525,-23.36875 12.685,0 22.51375,9.79 22.83125,23.36875 l -12.3675,0 c -0.3175,-6.31625 -4.75625,-10.42125 -10.46375,-10.42125 -6.02625,0 -10.78375,4.42125 -10.78375,10.42125 0,4.42 1.90375,6.9475 8.56375,10.73625 17.44125,10.10625 25.05125,19.89625 25.05125,32.8425 0,14.5275 -11.09875,26.21 -25.05125,26.21 -15.85625,0 -25.37125,-13.2625 -25.37125,-28.105 l 12.68625,0 c 0,7.57875 3.80375,15.475 12.685,15.475 6.975,0 12.68375,-6.31625 12.68375,-13.58 0,-5.63875 -2.32875,-10.39 -12.4275,-16.93125 z"
           id="path61" />
        <path
           inkscape:connector-curvature="0"
           style="fill:#000000;fill-rule:nonzero;stroke:none"
           d="m -147.55375,-198.5775 c -5.7475,4.015 -11.39125,11.125 -14.7175,20.2175 -0.82625,2.26 -1.2675,3.79 -1.9025,6.9475 l 36.47,0 0,12.63125 -50.423,0 c 0.63363,-12.315 1.58575,-16.73625 4.43925,-24.63125 3.805,-9.47375 8.5625,-16.73625 14.5875,-22.42125 2.22,-1.895 4.1225,-3.4725 11.4175,-8.52625 6.02375,-4.10625 7.61,-6.315 7.61,-10.73625 0,-6.9475 -5.7075,-12.6325 -12.68375,-12.6325 -6.9775,0 -12.68625,5.685 -12.68625,12.6325 l -12.68425,0 c 0.31737,-14.21 11.09925,-25.26375 25.3705,-25.26375 13.9525,0 25.0525,11.36875 25.0525,25.26375 0,14.3625 -8.605,18.65875 -19.85,26.51875 z"
           id="path63" />
        <path
           inkscape:connector-curvature="0"
           style="fill:#000000;fill-rule:nonzero;stroke:none"
           d="m -171.64625,-345.7675 -12.92087,0 0,28.105 12.92087,0 c 7.24875,0 11.975,-5.0525 11.975,-12.9475 0,-8.52625 -5.3575,-15.1575 -11.975,-15.1575 z m 0.63,-36.6325 -13.55087,0 0,24 13.55087,0 c 5.9875,0 9.77,-5.0525 9.77,-13.2625 0,-7.58 -2.83625,-10.7375 -9.77,-10.7375 z m 0,77.36875 -26.47075,0 0,-90 28.362,0 c 11.97625,0 20.485,9.47375 20.485,23.36875 0,8.21 -2.20625,11.99875 -9.455,19.57875 6.93375,5.685 11.03,13.2625 11.03,22.42 0,13.58 -10.715,24.6325 -23.95125,24.6325 z"
           id="path65" />
        <path
           inkscape:connector-curvature="0"
           style="fill:#000000;fill-rule:nonzero;stroke:none"
           d="m 241.33125,-382.4 0,22.73625 18.05125,0 0,12.3175 -18.05125,0 0,42.315 -12.98625,0 0,-90 45.92375,0 0,12.63125 -32.9375,0 z"
           id="path67" />
        <path
           inkscape:connector-curvature="0"
           style="fill:#000000;fill-rule:nonzero;stroke:none"
           d="m 151.07625,-305.03125 -27.73375,-60.315 0,60.315 -12.92,0 0,-90 12.92,0 24.58125,54.00125 0,-54.00125 12.92125,0 0,90 -9.76875,0 z"
           id="path69" />
        <path
           inkscape:connector-curvature="0"
           style="fill:#000000;fill-rule:nonzero;stroke:none"
           d="m 77.155,-372.61 c -2.22625,-7.89375 -5.72625,-11.36875 -11.13375,-11.36875 -5.725,0 -9.22375,3.475 -11.45,11.05375 -2.2275,6.9475 -2.86375,12.94625 -2.86375,23.05125 0,9.79 0.95375,15.47375 2.86375,22.7375 2.22625,7.57875 5.725,11.05375 11.45,11.05375 5.4075,0 8.9075,-3.475 11.13375,-11.05375 2.22625,-7.26375 2.8625,-12.63125 2.8625,-23.05125 0,-10.105 -0.95375,-15.79 -2.8625,-22.4225 z m 10.18,53.68375 c -4.45375,10.7375 -11.13375,15.475 -21.31375,15.475 -10.815,0 -17.17625,-4.7375 -21.63,-15.475 -3.81625,-8.84125 -5.09,-17.3675 -5.09,-31.26125 0,-13.58 1.27375,-22.7375 5.09,-31.26375 4.7725,-10.7375 11.13375,-15.15875 21.63,-15.15875 10.4975,0 16.86,4.42125 21.31375,15.47375 3.81625,8.8425 5.08875,17.36875 5.08875,30.94875 0,13.89375 -1.2725,22.73625 -5.08875,31.26125 z"
           id="path71" />
        <path
           inkscape:connector-curvature="0"
           style="fill:#000000;fill-rule:nonzero;stroke:none"
           d="m 322.9225,-372.61 c -2.22875,-7.89375 -5.7275,-11.36875 -11.135,-11.36875 -5.725,0 -9.22375,3.475 -11.45,11.05375 -2.22875,6.9475 -2.86375,12.94625 -2.86375,23.05125 0,9.79 0.955,15.47375 2.86375,22.7375 2.22625,7.57875 5.725,11.05375 11.45,11.05375 5.4075,0 8.90625,-3.475 11.135,-11.05375 2.225,-7.26375 2.8625,-12.63125 2.8625,-23.05125 0,-10.105 -0.955,-15.79 -2.8625,-22.4225 z m 10.17875,53.68375 c -4.4525,10.7375 -11.135,15.475 -21.31375,15.475 -10.815,0 -17.1775,-4.7375 -21.63,-15.475 -3.81625,-8.84125 -5.09125,-17.3675 -5.09125,-31.26125 0,-13.58 1.275,-22.7375 5.09125,-31.26375 4.7725,-10.7375 11.1325,-15.15875 21.63,-15.15875 10.49875,0 16.86125,4.42125 21.31375,15.47375 3.81625,8.8425 5.0875,17.36875 5.0875,30.94875 0,13.89375 -1.27125,22.73625 -5.0875,31.26125 z"
           id="path73" />
        <path
           inkscape:connector-curvature="0"
           style="fill:#000000;fill-rule:nonzero;stroke:none"
           d="m 382.345,-382.39875 -13.235,0 0,22.73625 13.235,0 c 7.5625,0 11.66,-4.105 11.66,-11.3675 0,-6.94875 -4.7275,-11.36875 -11.66,-11.36875 z m 11.03,77.3675 -11.975,-42.315 -12.29,0 0,42.315 -12.92,0 0,-90 26.78625,0 c 14.18,0 23.63625,9.475 23.63625,24.00125 0,10.73625 -4.4125,18.63125 -12.9225,21.78875 l 12.9225,44.21 -13.2375,0 z"
           id="path75" />
        <path
           inkscape:connector-curvature="0"
           style="fill:#000000;fill-rule:nonzero;stroke:none"
           d="m -39.28875,-383.03125 0,78 -12.985,0 0,-78 -16.46875,0 0,-12 45.92375,0 0,12 -16.47,0 z"
           id="path77" />
        <path
           inkscape:connector-curvature="0"
           style="fill:#000000;fill-rule:nonzero;stroke:none"
           d="m 12.03375,-383.03125 0,78 -12.985,0 0,-78 -16.46875,0 0,-12 45.9225,0 0,12 -16.46875,0 z"
           id="path79" />
        <path
           inkscape:connector-curvature="0"
           style="fill:#000000;fill-rule:nonzero;stroke:none"
           d="m -84.80875,-316.0825 c -4.41125,7.2625 -12.92,12.63 -21.43,12.63 -8.82375,0 -17.6475,-5.0525 -22.05875,-12.63 -2.5225,-4.7375 -3.4675,-8.5275 -3.4675,-15.79 l 0,-63.15875 12.92,0 0,64.7375 c 0,8.52625 5.04375,14.21125 12.60625,14.21125 6.93375,0 11.97625,-5.685 11.97625,-14.21125 l 0,-64.7375 12.92,0 0,63.15875 c 0,7.2625 -0.94375,11.0525 -3.46625,15.79 z"
           id="path81" />
        <path
           inkscape:connector-curvature="0"
           style="fill:#000000;fill-rule:nonzero;stroke:none"
           d="m 341.925,-75.68875 -6.33375,25.895 12.98125,0 -6.6475,-25.895 z m 16.14625,63.1575 -6.3325,-24.6325 -19.31375,0 -6.015,24.6325 -12.98125,0 22.48,-90 12.66375,0 22.47875,90 -12.98,0 z"
           id="path83" />
        <path
           inkscape:connector-curvature="0"
           style="fill:#000000;fill-rule:nonzero;stroke:none"
           d="m 83.84,-12.53125 0,-90 42.4375,0 0,12.63125 -29.4525,0 0,22.73625 18.68625,0 0,12.3175 -18.68625,0 0,29.685 32.93625,0 0,12.63 -45.92125,0 z"
           id="path85" />
        <path
           inkscape:connector-curvature="0"
           style="fill:#000000;fill-rule:nonzero;stroke:none"
           d="m 281.0625,-89.89875 -13.23625,0 0,22.73625 13.23625,0 c 7.56375,0 11.66,-4.105 11.66,-11.3675 0,-6.94875 -4.7275,-11.36875 -11.66,-11.36875 z m 11.02875,77.3675 -11.975,-42.315 -12.29,0 0,42.315 -12.92,0 0,-90 26.7875,0 c 14.18125,0 23.635,9.475 23.635,24.00125 0,10.7375 -4.41125,18.63125 -12.92125,21.78875 l 12.92125,44.21 -13.2375,0 z"
           id="path87" />
        <path
           inkscape:connector-curvature="0"
           style="fill:#000000;fill-rule:nonzero;stroke:none"
           d="m -148.94125,-89.9 0,22.73625 18.0525,0 0,12.3175 -18.0525,0 0,42.315 -12.985,0 0,-90 45.9225,0 0,12.63125 -32.9375,0 z"
           id="path89" />
        <path
           inkscape:connector-curvature="0"
           style="fill:#000000;fill-rule:nonzero;stroke:none"
           d="m -67.35125,-80.10875 c -2.22625,-7.895 -5.725,-11.37 -11.1325,-11.37 -5.72625,0 -9.22375,3.475 -11.45125,11.05375 -2.22875,6.9475 -2.86375,12.94625 -2.86375,23.05125 0,9.79 0.955,15.47375 2.86375,22.7375 2.2275,7.57875 5.725,11.05375 11.45125,11.05375 5.4075,0 8.90625,-3.475 11.1325,-11.05375 2.22625,-7.26375 2.86375,-12.63125 2.86375,-23.05125 0,-10.105 -0.955,-15.79 -2.86375,-22.42125 z m 10.18,53.6825 c -4.4525,10.7375 -11.135,15.475 -21.3125,15.475 -10.81625,0 -17.17875,-4.7375 -21.63125,-15.475 -3.81625,-8.84125 -5.09,-17.3675 -5.09,-31.26125 0,-13.58 1.27375,-22.7375 5.09,-31.26375 4.7725,-10.7375 11.1325,-15.15875 21.63125,-15.15875 10.4975,0 16.86,4.42125 21.3125,15.47375 3.81625,8.8425 5.08875,17.36875 5.08875,30.94875 0,13.89375 -1.2725,22.73625 -5.08875,31.26125 z"
           id="path91" />
        <path
           inkscape:connector-curvature="0"
           style="fill:#000000;fill-rule:nonzero;stroke:none"
           d="m -7.92625,-89.89875 -13.23625,0 0,22.73625 13.23625,0 c 7.56375,0 11.66,-4.105 11.66,-11.3675 0,-6.94875 -4.7275,-11.36875 -11.66,-11.36875 z m 11.02875,77.3675 -11.975,-42.315 -12.29,0 0,42.315 -12.92,0 0,-90 26.7875,0 c 14.18,0 23.635,9.475 23.635,24.00125 0,10.7375 -4.41125,18.63125 -12.92125,21.78875 l 12.92125,44.21 -13.2375,0 z"
           id="path93" />
        <path
           inkscape:connector-curvature="0"
           style="fill:#000000;fill-rule:nonzero;stroke:none"
           d="m 225.83875,-90.53 0,77.99875 -12.985,0 0,-77.99875 -16.46875,0 0,-12.00125 45.9225,0 0,12.00125 -16.46875,0 z"
           id="path95" />
        <path
           inkscape:connector-curvature="0"
           style="fill:#000000;fill-rule:nonzero;stroke:none"
           d="m 176.98875,-12.53125 -12.72375,-30.63 -12.72375,30.63 -13.67875,0 19.7225,-46.73625 -18.45,-43.26375 13.67875,0 11.45125,27.15875 11.45125,-27.15875 13.6775,0 -18.13125,43.26375 19.7225,46.73625 -13.99625,0 z"
           id="path97" />
      </g>
    </g>
  </g>
</svg>
