<?xml version="1.0" encoding="UTF-8" standalone="no"?>
<!-- Created with Inkscape (http://www.inkscape.org/) -->

<svg
   xmlns:dc="http://purl.org/dc/elements/1.1/"
   xmlns:cc="http://creativecommons.org/ns#"
   xmlns:rdf="http://www.w3.org/1999/02/22-rdf-syntax-ns#"
   xmlns:svg="http://www.w3.org/2000/svg"
   xmlns="http://www.w3.org/2000/svg"
   xmlns:sodipodi="http://sodipodi.sourceforge.net/DTD/sodipodi-0.dtd"
   xmlns:inkscape="http://www.inkscape.org/namespaces/inkscape"
   width="2710"
   height="3790"
   id="svg2"
   sodipodi:version="0.32"
   inkscape:version="0.48.2 r9819"
   version="1.0"
   sodipodi:docname="AJAX1.svg">
  <defs
     id="defs4">
    <clipPath
       id="Clip0">
      <path
         inkscape:connector-curvature="0"
         d="m 0,0 0,3024.5 2160.5,0 L 2160.5,0 0,0 z"
         transform="translate(0,0.5)"
         id="path7" />
    </clipPath>
  </defs>
  <sodipodi:namedview
     id="base"
     pagecolor="#ffffff"
     bordercolor="#666666"
     borderopacity="1.0"
     gridtolerance="10000"
     guidetolerance="10"
     objecttolerance="10"
     inkscape:pageopacity="0.0"
     inkscape:pageshadow="2"
     inkscape:zoom="0.087182787"
     inkscape:cx="-1238.5588"
     inkscape:cy="1606.7095"
     inkscape:document-units="px"
     inkscape:current-layer="layer1"
     width="601px"
     height="601px"
     inkscape:window-width="1280"
     inkscape:window-height="1004"
     inkscape:window-x="-8"
     inkscape:window-y="-8"
     showgrid="false"
     fit-margin-top="0"
     fit-margin-left="0"
     fit-margin-right="0"
     fit-margin-bottom="0"
     inkscape:window-maximized="1"
     showguides="true"
     inkscape:guide-bbox="true" />
  <metadata
     id="metadata7">
    <rdf:RDF>
      <cc:Work
         rdf:about="">
        <dc:format>image/svg+xml</dc:format>
        <dc:type
           rdf:resource="http://purl.org/dc/dcmitype/StillImage" />
        <dc:title></dc:title>
      </cc:Work>
    </rdf:RDF>
  </metadata>
  <g
     inkscape:label="Layer 1"
     inkscape:groupmode="layer"
     id="layer1"
     transform="translate(2472.5313,2599.9063)">
    <path
       inkscape:connector-curvature="0"
       style="fill:#ffffff;fill-rule:nonzero;stroke:#000000;stroke-width:10;stroke-linecap:butt;stroke-linejoin:miter;stroke-miterlimit:4;stroke-opacity:1;stroke-dasharray:none"
       d="m 232.4688,1016.3437 c 0,93.2 -75.55,168.7501 -168.75,168.7501 l -2362.5001,0 c -93.1981,0 -168.75,-75.5501 -168.75,-168.7501 l 0,-3442.5 c 0,-93.1981 75.5519,-168.75 168.75,-168.75 l 2362.5001,0 c 93.2,0 168.75,75.5519 168.75,168.75 l 0,3442.5 z"
       id="path11" />
    <path
       inkscape:connector-curvature="0"
       style="fill:#000000;fill-rule:nonzero;stroke:none"
       d="m -2298.7813,1140.0939 c -68.2361,0 -123.75,-55.5125 -123.75,-123.7501 l 0,-3442.5001 c 0,-68.2361 55.5139,-123.75 123.75,-123.75 l 2362.5001,0 c 68.2375,0 123.75,55.5139 123.75,123.75 l 0,3442.5001 c 0,68.2376 -55.5125,123.7501 -123.75,123.7501 l -2362.5001,0 z"
       id="path13" />
    <path
       inkscape:connector-curvature="0"
       style="fill:#ffffff;fill-rule:nonzero;stroke:none"
       d="m -2298.7813,1072.5938 c -31.0162,0 -56.25,-25.2375 -56.25,-56.25 l 0,-3442.5001 c 0,-31.0162 25.2338,-56.25 56.25,-56.25 l 2362.5001,0 c 31.0125,0 56.25,25.2338 56.25,56.25 l 0,3442.5001 c 0,31.0125 -25.2375,56.25 -56.25,56.25 l -2362.5001,0 z"
       id="path15" />
    <g
       transform="matrix(1.25,0,0,1.25,-2467.8438,-2595.8437)"
       id="Background"
       style="fill:#000000;stroke:none">
      <g
         id="Group1"
         clip-path="url(#Clip0)"
         style="fill:#000000;stroke:none">
        <path
           inkscape:connector-curvature="0"
           style="fill:#000000;fill-rule:nonzero;stroke:none"
           d="M 130.09,288 41.347,94.989 41.347,288 0,288 0,0 l 41.347,0 78.658,172.8 0,-172.8 41.347,0 0,288 -31.262,0 z"
           transform="translate(385.953,306.75)"
           id="path17" />
        <path
           inkscape:connector-curvature="0"
           style="fill:#000000;fill-rule:nonzero;stroke:none"
           d="M 130.09,288 41.34,94.989 41.34,288 0,288 0,0 41.34,0 120,172.8 120,0 l 41.35,0 0,288 -31.26,0 z"
           transform="translate(1613.2,306.75)"
           id="path19" />
        <path
           inkscape:connector-curvature="0"
           style="fill:#000000;fill-rule:nonzero;stroke:none"
           d="M 121.132,76.8 C 114.007,51.537 102.81,40.421 85.505,40.421 c -18.322,0 -29.519,11.116 -36.644,35.368 -7.126,22.232 -9.162,41.432 -9.162,73.769 0,31.327 3.054,49.516 9.162,72.759 7.125,24.252 18.322,35.368 36.644,35.368 17.305,0 28.502,-11.116 35.627,-35.368 7.126,-23.243 9.161,-40.422 9.161,-73.769 0,-32.337 -3.052,-50.527 -9.161,-71.748 z m 32.573,171.79 c -14.251,34.359 -35.627,49.516 -68.2,49.516 -34.609,0 -54.967,-15.157 -69.218,-49.516 C 4.072,220.295 0,193.011 0,148.548 0,105.095 4.072,75.789 16.287,48.505 31.556,14.148 51.914,0 85.505,0 c 33.592,0 53.949,14.148 68.2,49.516 12.216,28.295 16.287,55.579 16.287,99.032 0,44.463 -4.071,72.758 -16.287,100.042 z"
           transform="translate(604.905,301.697)"
           id="path21" />
        <path
           inkscape:connector-curvature="0"
           style="fill:#000000;fill-rule:nonzero;stroke:none"
           d="m 83.7,40.421 -42.35,0 0,72.758 42.35,0 c 24.21,0 37.32,-13.137 37.32,-36.378 0,-22.233 -15.13,-36.38 -37.32,-36.38 z M 119,288 80.68,152.589 l -39.33,0 L 41.35,288 0,288 0,0 85.72,0 c 45.38,0 75.63,30.316 75.63,76.801 0,34.357 -14.11,59.62 -41.34,69.726 L 161.35,288 119,288 z"
           transform="translate(1402.88,306.75)"
           id="path23" />
        <path
           inkscape:connector-curvature="0"
           style="fill:#000000;fill-rule:nonzero;stroke:none"
           d="m 94.253,38.4 0,249.6 -41.55,0 0,-249.6 L 0,38.4 0,0 l 146.953,0 0,38.4 -52.7,0 z"
           transform="translate(990.897,306.75)"
           id="path25" />
        <path
           inkscape:connector-curvature="0"
           style="fill:#000000;fill-rule:nonzero;stroke:none"
           d="m 150.26,252.632 c -14.12,23.242 -41.35,40.421 -68.58,40.421 -28.23,0 -56.47,-16.169 -70.59,-40.421 C 3.02,237.474 0,225.348 0,202.105 L 0,0 l 41.35,0 0,207.158 c 0,27.284 16.13,45.474 40.33,45.474 22.19,0 38.33,-18.19 38.33,-45.474 l 0,-207.158 41.34,0 0,202.105 c 0,23.243 -3.02,35.369 -11.09,50.527 z"
           transform="translate(1178.17,306.75)"
           id="path27" />
        <path
           inkscape:connector-curvature="0"
           style="fill:#000000;fill-rule:nonzero;stroke:none"
           d="M 112.95,69.726 C 105.89,49.516 93.79,40.421 75.63,40.421 l -34.28,0 0,207.159 34.28,0 c 24.21,0 37.32,-19.2 41.35,-41.43 2.02,-18.192 4.03,-38.402 4.03,-60.634 0,-32.337 -3.02,-63.662 -8.06,-75.79 z M 120,274.86 C 109.92,283.96 95.8,288 79.67,288 L 0,288 0,0 73.62,0 c 24.2,0 36.3,3.031 46.38,11.116 17.15,12.126 29.25,34.358 34.29,63.663 4.04,21.221 7.06,46.484 7.06,68.716 0,66.695 -13.11,109.135 -41.35,131.365 z"
           transform="translate(1505.16,810.75)"
           id="path29" />
        <path
           inkscape:connector-curvature="0"
           style="fill:#000000;fill-rule:nonzero;stroke:none"
           d="M 0,288 0,0 l 135.8,0 0,40.42 -94.25,0 0,72.759 59.79,0 0,39.411 -59.79,0 0,94.99 105.4,0 0,40.42 L 0,288 z"
           transform="translate(1309.25,810.75)"
           id="path31" />
        <path
           inkscape:connector-curvature="0"
           style="fill:#000000;fill-rule:nonzero;stroke:none"
           d="M 130.09,288 41.347,94.99 41.347,288 0,288 0,0 l 41.347,0 78.658,172.8 0,-172.8 41.347,0 0,288 -31.262,0 z"
           transform="translate(721.582,810.75)"
           id="path33" />
        <path
           inkscape:connector-curvature="0"
           style="fill:#000000;fill-rule:nonzero;stroke:none"
           d="m 121.132,76.801 c -7.125,-25.264 -18.322,-36.38 -35.627,-36.38 -18.322,0 -29.519,11.116 -36.644,35.369 -7.126,22.231 -9.162,41.431 -9.162,73.768 0,31.327 3.054,49.515 9.162,72.755 7.125,24.26 18.322,35.37 36.644,35.37 17.305,0 28.502,-11.11 35.627,-35.37 7.126,-23.24 9.161,-40.418 9.161,-73.765 0,-32.336 -3.054,-50.527 -9.161,-71.747 z m 32.573,171.792 c -14.251,34.36 -35.627,49.51 -68.2,49.51 -34.609,0 -54.967,-15.15 -69.218,-49.51 C 4.073,220.293 0,193.011 0,148.548 0,105.095 4.073,75.79 16.287,48.506 31.556,14.148 51.914,0 85.505,0 c 33.592,0 53.949,14.148 68.2,49.516 12.216,28.295 16.287,55.579 16.287,99.032 0,44.463 -4.071,72.755 -16.287,100.045 z"
           transform="translate(493.99,805.697)"
           id="path35" />
        <path
           inkscape:connector-curvature="0"
           style="fill:#000000;fill-rule:nonzero;stroke:none"
           d="m 83.71,40.421 -42.36,0 0,72.758 42.36,0 c 24.2,0 37.31,-13.137 37.31,-36.379 0,-22.232 -15.13,-36.379 -37.31,-36.379 z M 119,288 80.68,152.589 l -39.33,0 L 41.35,288 0,288 0,0 85.72,0 c 45.38,0 75.64,30.316 75.64,76.8 0,34.358 -14.12,59.621 -41.35,69.727 L 161.36,288 119,288 z"
           transform="translate(1098.93,810.75)"
           id="path37" />
        <path
           inkscape:connector-curvature="0"
           style="fill:#000000;fill-rule:nonzero;stroke:none"
           d="m 41.552,40.42 0,72.76 57.768,0 0,39.41 -57.768,0 0,135.41 L 0,288 0,0 l 146.952,0 0,40.42 -105.4,0 z"
           transform="translate(675.431,1314.75)"
           id="path39" />
        <path
           inkscape:connector-curvature="0"
           style="fill:#000000;fill-rule:nonzero;stroke:none"
           d="m 148.73,288 0,-161.68 L 95.11,288 41.48,126.32 41.48,288 0,288 0,0 41.48,0 95.11,161.69 148.73,0 l 41.49,0 0,288 -41.49,0 z"
           transform="translate(1294.85,1314.75)"
           id="path41" />
        <path
           inkscape:connector-curvature="0"
           style="fill:#000000;fill-rule:nonzero;stroke:none"
           d="M 121.14,76.8 C 114.01,51.53 102.81,40.42 85.51,40.42 c -18.32,0 -29.52,11.11 -36.64,35.37 -7.13,22.23 -9.17,41.43 -9.17,73.77 0,31.32 3.06,49.51 9.17,72.75 7.12,24.26 18.32,35.37 36.64,35.37 17.3,0 28.5,-11.11 35.63,-35.37 7.12,-23.24 9.16,-40.42 9.16,-73.77 0,-32.33 -3.06,-50.52 -9.16,-71.74 z m 32.57,171.79 C 139.46,282.95 118.08,298.1 85.51,298.1 50.9,298.1 30.54,282.95 16.29,248.59 4.08,220.29 0,193.01 0,148.54 0,105.09 4.08,75.79 16.29,48.5 31.56,14.14 51.92,0 85.51,0 c 33.59,0 53.95,14.14 68.2,49.51 12.22,28.3 16.29,55.58 16.29,99.03 0,44.47 -4.07,72.76 -16.29,100.05 z"
           transform="translate(1067.25,1309.7)"
           id="path43" />
        <path
           inkscape:connector-curvature="0"
           style="fill:#000000;fill-rule:nonzero;stroke:none"
           d="m 83.702,40.42 -42.355,0 0,72.76 42.355,0 c 24.203,0 37.313,-13.14 37.313,-36.38 0,-22.23 -15.127,-36.38 -37.313,-36.38 z M 118.997,288 80.676,152.59 l -39.329,0 0,135.41 L 0,288 0,0 85.718,0 c 45.382,0 75.639,30.32 75.639,76.8 0,34.36 -14.12,59.62 -41.351,69.73 l 41.351,141.47 -42.36,0 z"
           transform="translate(862.703,1314.75)"
           id="path45" />
        <path
           inkscape:connector-curvature="0"
           style="fill:#000000;fill-rule:nonzero;stroke:none"
           d="m 91.18,85.9 -20.26,82.86 41.53,0 L 91.18,85.9 z m 51.67,202.1 -20.26,-78.82 -61.81,0 L 41.53,288 0,288 71.93,0 l 40.52,0 71.94,288 -41.54,0 z"
           transform="translate(1303.49,1818.75)"
           id="path47" />
        <path
           inkscape:connector-curvature="0"
           style="fill:#000000;fill-rule:nonzero;stroke:none"
           d="M 0,288 0,0 l 135.8,0 0,40.42 -94.25,0 0,72.76 59.8,0 0,39.41 -59.8,0 0,94.99 105.4,0 0,40.42 L 0,288 z"
           transform="translate(1752.91,1818.75)"
           id="path49" />
        <path
           inkscape:connector-curvature="0"
           style="fill:#000000;fill-rule:nonzero;stroke:none"
           d="m 120.006,288 0,-130.36 -78.659,0 0,130.36 L 0,288 0,0 l 41.347,0 0,117.22 78.659,0 0,-117.22 41.345,0 0,288 -41.345,0 z"
           transform="translate(447.91,1818.75)"
           id="path51" />
        <path
           inkscape:connector-curvature="0"
           style="fill:#000000;fill-rule:nonzero;stroke:none"
           d="M 0,288 0,0 40.32,0 40.32,288 0,288 z"
           transform="translate(672.621,1818.75)"
           id="path53" />
        <path
           inkscape:connector-curvature="0"
           style="fill:#000000;fill-rule:nonzero;stroke:none"
           d="M 0,288 0,0 l 41.56,0 0,249.6 105.4,0 0,38.4 L 0,288 z"
           transform="translate(1139.25,1818.75)"
           id="path55" />
        <path
           inkscape:connector-curvature="0"
           style="fill:#000000;fill-rule:nonzero;stroke:none"
           d="M 130.09,288 41.34,94.99 41.34,288 0,288 0,0 41.34,0 120,172.8 120,0 l 41.35,0 0,288 -31.26,0 z"
           transform="translate(1528.2,1818.75)"
           id="path57" />
        <path
           inkscape:connector-curvature="0"
           style="fill:#000000;fill-rule:nonzero;stroke:none"
           d="M 82.007,160.05 C 69.546,151.98 57.449,143.88 49.724,138.44 26.505,122.1 14.206,100.04 14.206,74.78 14.206,33.34 46.68,0 88.287,0 c 40.591,0 72.05,31.32 73.065,74.78 l -39.577,0 C 120.761,54.57 106.553,41.43 88.287,41.43 c -19.282,0 -34.503,14.15 -34.503,33.35 0,14.14 6.088,22.23 27.399,34.35 55.813,32.34 80.169,63.67 80.169,105.1 0,46.48 -35.519,83.87 -80.169,83.87 C 30.443,298.1 0,255.66 0,208.17 l 40.591,0 c 0,24.25 12.178,49.51 40.592,49.51 22.326,0 40.592,-20.21 40.592,-43.45 0,-18.05 -7.457,-33.25 -39.768,-54.18 z"
           transform="translate(761.901,1813.7)"
           id="path59" />
        <path
           inkscape:connector-curvature="0"
           style="fill:#000000;fill-rule:nonzero;stroke:none"
           d="m 94.252,38.4 0,249.6 L 52.7,288 52.7,38.4 0,38.4 0,0 l 146.952,0 0,38.4 -52.7,0 z"
           transform="translate(260.638,1818.75)"
           id="path61" />
        <path
           inkscape:connector-curvature="0"
           style="fill:#000000;fill-rule:nonzero;stroke:none"
           d="m 519.75,0 0,243 310.79,-80.22 c 2.07,-0.5 4.23,-0.78 6.46,-0.78 14.91,0 27,12.09 27,27 0,7.48 -3.05,14.26 -7.97,19.15 L 432,594 7.967,208.15 C 3.047,203.26 0,196.48 0,189 c 0,-14.91 12.088,-27 27,-27 2.229,0 4.39,0.28 6.461,0.78 L 344.25,243 l 0,-243 175.5,0 z"
           transform="translate(648.25,2250.75)"
           id="path63" />
      </g>
    </g>
  </g>
</svg>
