<?xml version="1.0" encoding="UTF-8" standalone="no"?>
<!-- Created with Inkscape (http://www.inkscape.org/) -->

<svg
   xmlns:dc="http://purl.org/dc/elements/1.1/"
   xmlns:cc="http://creativecommons.org/ns#"
   xmlns:rdf="http://www.w3.org/1999/02/22-rdf-syntax-ns#"
   xmlns:svg="http://www.w3.org/2000/svg"
   xmlns="http://www.w3.org/2000/svg"
   xmlns:sodipodi="http://sodipodi.sourceforge.net/DTD/sodipodi-0.dtd"
   xmlns:inkscape="http://www.inkscape.org/namespaces/inkscape"
   width="81.90625"
   height="102.21875"
   id="svg2"
   sodipodi:version="0.32"
   inkscape:version="0.48.2 r9819"
   version="1.0"
   sodipodi:docname="AJAX1.svg"
   inkscape:output_extension="org.inkscape.output.svg.inkscape">
  <defs
     id="defs4">
    <inkscape:perspective
       sodipodi:type="inkscape:persp3d"
       inkscape:vp_x="0 : 300.5 : 1"
       inkscape:vp_y="0 : 1000 : 0"
       inkscape:vp_z="601 : 300.5 : 1"
       inkscape:persp3d-origin="300.5 : 200.33333 : 1"
       id="perspective3380" />
    <inkscape:perspective
       id="perspective3990"
       inkscape:persp3d-origin="375 : 250 : 1"
       inkscape:vp_z="750 : 375 : 1"
       inkscape:vp_y="0 : 1000 : 0"
       inkscape:vp_x="0 : 375 : 1"
       sodipodi:type="inkscape:persp3d" />
  </defs>
  <sodipodi:namedview
     id="base"
     pagecolor="#ffffff"
     bordercolor="#666666"
     borderopacity="1.0"
     gridtolerance="10000"
     guidetolerance="10"
     objecttolerance="10"
     inkscape:pageopacity="0.0"
     inkscape:pageshadow="2"
     inkscape:zoom="3.639243"
     inkscape:cx="24.198801"
     inkscape:cy="47.181491"
     inkscape:document-units="px"
     inkscape:current-layer="layer1"
     width="601px"
     height="601px"
     inkscape:window-width="1280"
     inkscape:window-height="1004"
     inkscape:window-x="-8"
     inkscape:window-y="-8"
     showgrid="false"
     fit-margin-top="0"
     fit-margin-left="0"
     fit-margin-right="0"
     fit-margin-bottom="0"
     inkscape:window-maximized="1" />
  <metadata
     id="metadata7">
    <rdf:RDF>
      <cc:Work
         rdf:about="">
        <dc:format>image/svg+xml</dc:format>
        <dc:type
           rdf:resource="http://purl.org/dc/dcmitype/StillImage" />
        <dc:title></dc:title>
      </cc:Work>
    </rdf:RDF>
  </metadata>
  <g
     inkscape:label="Layer 1"
     inkscape:groupmode="layer"
     id="layer1"
     transform="translate(-3841.375,9584.9375)">
    <rect
       style="color:#000000;fill:#000000;fill-opacity:1;fill-rule:nonzero;stroke:none;stroke-width:0.8735441;marker:none;visibility:visible;display:inline;overflow:visible"
       id="rect3653"
       width="0"
       height="27.202072"
       x="578.73834"
       y="298.1684"
       rx="249.48199"
       ry="27.202072" />
    <path
       inkscape:connector-curvature="0"
       d="m 3846.7899,-9584.6003 71.0713,0 c 2.7975,0 5.0775,2.2801 5.0775,5.0775 l 0,91.3763 c 0,2.7974 -2.28,5.0774 -5.0775,5.0774 l -71.0713,0 c -2.7962,0 -5.0774,-2.28 -5.0774,-5.0774 l 0,-91.3763 c 0,-2.7613 2.3162,-5.0775 5.0774,-5.0775"
       style="fill:#ffffff;fill-opacity:1;fill-rule:nonzero;stroke:#000000;stroke-width:0.69999999;stroke-linecap:butt;stroke-linejoin:miter;stroke-miterlimit:4;stroke-opacity:1;stroke-dasharray:none"
       id="path15311" />
    <path
       inkscape:connector-curvature="0"
       style="fill:#000000;fill-opacity:1;fill-rule:evenodd;stroke:none"
       d="m 3846.8125,-9583.1875 c -2.015,0 -3.6838,1.6737 -3.6875,3.6875 l 0,91.3437 c 0,2.02 1.6725,3.6775 3.6875,3.6875 l 71.0312,0 c 2.0125,-0.01 3.685,-1.6675 3.6875,-3.6875 l 0,-91.3437 c 0,-2.0125 -1.6737,-3.685 -3.6875,-3.6875 l -71.0312,0 z m 0.031,1.9687 70.9688,0 c 0.955,-0.014 1.7637,0.7938 1.75,1.75 l 0,91.2813 c 0.014,0.955 -0.795,1.7637 -1.75,1.75 l -70.9688,0 c -0.9563,0.014 -1.7637,-0.7938 -1.75,-1.75 l 0,-91.2813 c -0.014,-0.9562 0.7937,-1.7637 1.75,-1.75 z"
       id="path15315" />
    <path
       inkscape:connector-curvature="0"
       d="m 3906.7033,-9567.6409 c 0,1.645 -0.8225,2.595 -2.3425,2.595 l -2.6587,0 0,-5.1262 2.6587,0 c 1.3938,0 2.3425,1.0112 2.3425,2.5312 m 2.5325,0 c 0,-3.0387 -1.8987,-5.0637 -4.7487,-5.0637 l -5.38,0 0,18.0387 2.595,0 0,-7.9125 2.785,0 c 3.0387,0 4.7487,-1.7712 4.7487,-5.0625 m -14.3325,12.975 0,-2.5325 -6.5837,0 0,-5.9487 3.7337,0 0,-2.47 -3.7337,0 0,-4.555 5.8875,0 0,-2.5325 -8.4838,0 0,18.0387 9.18,0 z m -13.385,0 0,-2.5325 -6.5837,0 0,-5.9487 3.735,0 0,-2.47 -3.735,0 0,-4.555 5.8875,0 0,-2.5325 -8.4825,0 0,18.0387 9.1787,0 z m -13.3212,0 -4.1763,-11.7087 3.7338,-6.33 -2.975,0 -4.115,7.2162 0,-7.2162 -2.595,0 0,18.0387 2.595,0 0,-5.7587 1.6462,-3.0388 3.165,8.7975 2.7213,0 z"
       style="fill:#000000;fill-opacity:1;fill-rule:evenodd;stroke:none"
       id="path15323" />
    <path
       inkscape:connector-curvature="0"
       d="m 3902.4138,-9540.3669 0,-2.5312 -9.1787,0 0,18.0375 2.595,0 0,-8.4813 3.6075,0 0,-2.4675 -3.6075,0 0,-4.5575 6.5837,0 z m -13.5075,0 0,-2.5312 -9.18,0 0,18.0375 2.5963,0 0,-8.4813 3.6075,0 0,-2.4675 -3.6075,0 0,-4.5575 6.5837,0 z m -17.115,6.4563 c 0,2.0875 -0.1275,3.1637 -0.57,4.62 -0.4437,1.52 -1.1387,2.2162 -2.2162,2.2162 -1.14,0 -1.835,-0.6962 -2.2788,-2.2162 -0.38,-1.4563 -0.57,-2.595 -0.57,-4.5563 0,-2.0262 0.1275,-3.23 0.57,-4.6212 0.4438,-1.5188 1.1388,-2.215 2.2788,-2.215 1.0775,0 1.7725,0.6962 2.2162,2.2775 0.38,1.3287 0.57,2.47 0.57,4.495 m 2.47,0 c 0,-2.7238 -0.255,-4.4313 -1.0137,-6.205 -0.8875,-2.2138 -2.1538,-3.0988 -4.2425,-3.0988 -2.0888,0 -3.355,0.885 -4.3038,3.0375 -0.76,1.7088 -1.0125,3.5425 -1.0125,6.2663 0,2.785 0.2525,4.495 1.0125,6.2662 0.885,2.1513 2.1525,3.1138 4.3038,3.1138 2.0275,0 3.355,-0.9625 4.2425,-3.1138 0.7587,-1.7087 1.0137,-3.4812 1.0137,-6.2662"
       style="fill:#000000;fill-opacity:1;fill-rule:evenodd;stroke:none"
       id="path15327" />
    <path
       inkscape:connector-curvature="0"
       d="m 3916.0857,-9494.9639 0,-18.04 -2.595,0 0,10.8238 -4.9375,-10.8238 -2.5963,0 0,18.04 2.5963,0 0,-12.0912 5.57,12.0912 1.9625,0 z m -16.4325,-7.4687 -2.595,0 1.2663,-5.19 1.3287,5.19 z m 4.495,7.4687 -4.495,-18.04 -2.5313,0 -4.4949,18.04 2.595,0 1.2025,-4.9362 3.8612,0 1.2675,4.9362 2.595,0 z m -13.395,-18.04 -2.53,0 0,18.04 2.53,0 0,-18.04 z m -7.95,9.115 c 0,1.3938 -0.1262,2.6575 -0.2525,3.7975 -0.2525,1.3925 -1.0775,2.5963 -2.5963,2.5963 l -2.1524,0 0,-12.9763 2.1524,0 c 1.1401,0 1.8988,0.57 2.3438,1.835 0.3163,0.76 0.505,2.7225 0.505,4.7475 m 2.5325,-0.1275 c 0,-1.3925 -0.1887,-2.9737 -0.4425,-4.3025 -0.3175,-1.835 -1.0775,-3.2287 -2.1537,-3.9887 -0.6325,-0.5063 -1.3913,-0.6963 -2.9113,-0.6963 l -4.6213,0 0,18.04 5.0013,0 c 1.0125,0 1.8988,-0.2537 2.5313,-0.8225 1.7725,-1.3925 2.5962,-4.0512 2.5962,-8.23 m -12.5088,9.0525 0,-2.5312 -6.5825,0 0,-5.95 3.7351,0 0,-2.4688 -3.7351,0 0,-4.5575 5.8876,0 0,-2.5325 -8.4825,0 0,18.04 9.1774,0 z m -12.4437,0 0,-18.04 -2.595,0 -3.355,10.1275 -3.355,-10.1275 -2.5962,0 0,18.04 2.5962,0 0,-10.1275 3.355,10.1275 3.355,-10.1275 0,10.1275 2.595,0 z"
       style="fill:#000000;fill-opacity:1;fill-rule:evenodd;stroke:none"
       id="path15331" />
  </g>
</svg>
