<?xml version="1.0" encoding="UTF-8" standalone="no"?>
<!-- Generator: Adobe Illustrator 12.0.1, SVG Export Plug-In  -->

<svg
   xmlns:dc="http://purl.org/dc/elements/1.1/"
   xmlns:cc="http://creativecommons.org/ns#"
   xmlns:rdf="http://www.w3.org/1999/02/22-rdf-syntax-ns#"
   xmlns:svg="http://www.w3.org/2000/svg"
   xmlns="http://www.w3.org/2000/svg"
   xmlns:sodipodi="http://sodipodi.sourceforge.net/DTD/sodipodi-0.dtd"
   xmlns:inkscape="http://www.inkscape.org/namespaces/inkscape"
   version="1.1"
   width="309.78125"
   height="155.625"
   viewBox="-1 0 309.78125 155.625"
   enable-background="new -1 0 289 288"
   xml:space="preserve"
   id="svg2"
   inkscape:version="0.48.2 r9819"
   sodipodi:docname="MUTCD R11-3a.svg"><metadata
   id="metadata22"><rdf:RDF><cc:Work
       rdf:about=""><dc:format>image/svg+xml</dc:format><dc:type
         rdf:resource="http://purl.org/dc/dcmitype/StillImage" /><dc:title></dc:title></cc:Work></rdf:RDF></metadata><sodipodi:namedview
   pagecolor="#ffffff"
   bordercolor="#666666"
   borderopacity="1"
   objecttolerance="10"
   gridtolerance="10"
   guidetolerance="10"
   inkscape:pageopacity="0"
   inkscape:pageshadow="2"
   inkscape:window-width="1280"
   inkscape:window-height="1004"
   id="namedview20"
   showgrid="false"
   fit-margin-top="0"
   fit-margin-left="0"
   fit-margin-right="0"
   fit-margin-bottom="0"
   inkscape:zoom="1.638889"
   inkscape:cx="144.80313"
   inkscape:cy="100.65996"
   inkscape:window-x="-8"
   inkscape:window-y="-8"
   inkscape:window-maximized="1"
   inkscape:current-layer="svg2"
   showguides="true"
   inkscape:guide-bbox="true" />
<defs
   id="defs4">
</defs>







<path
   inkscape:connector-curvature="0"
   d="m 308.03836,145.25011 c 0,5.29875 -4.335,9.63375 -9.63375,9.63375 l -289.026247,0 c -5.29875,0 -9.635,-4.335 -9.635,-9.63375 l 0,-134.87875 c 0,-5.29875 4.33625,-9.635 9.635,-9.635 l 289.026247,0 c 5.29875,0 9.63375,4.33625 9.63375,9.635 l 0,134.87875"
   style="fill:#ffffff;fill-opacity:1;fill-rule:nonzero;stroke:#000000;stroke-width:1.5;stroke-miterlimit:4;stroke-opacity:1;stroke-dasharray:none"
   id="path12276" /><path
   inkscape:connector-curvature="0"
   d="m 301.6155,145.25011 c 0,1.76625 -1.445,3.21125 -3.21125,3.21125 l -289.026247,0 c -1.76625,0 -3.21125,-1.445 -3.21125,-3.21125 l 0,-134.87875 c 0,-1.76625 1.445,-3.21125 3.21125,-3.21125 l 289.026247,0 c 1.76625,0 3.21125,1.445 3.21125,3.21125 l 0,134.87875 z m -3.21125,-141.94375 -289.026247,0 c -3.88625,0 -7.065,3.17875 -7.065,7.065 l 0,134.87875 c 0,3.88625 3.17875,7.065 7.065,7.065 l 289.026247,0 c 3.88625,0 7.065,-3.17875 7.065,-7.065 l 0,-134.87875 c 0,-3.88625 -3.17875,-7.065 -7.065,-7.065"
   style="fill:#000000;fill-opacity:1;fill-rule:nonzero;stroke:none"
   id="path12284" /><path
   inkscape:connector-curvature="0"
   d="m 29.50001,133.04749 0,-20.555 2.95375,0 0,17.815 7.52125,0 0,2.74 -10.475,0 z"
   style="fill:#000000;fill-opacity:1;fill-rule:nonzero;stroke:none"
   id="path12288" /><path
   inkscape:connector-curvature="0"
   d="m 51.02875,117.60924 c -0.5175,-1.7975 -1.31,-2.58875 -2.5275,-2.58875 -1.31,0 -2.07125,0.79125 -2.61875,2.5275 -0.45625,1.58375 -0.64,2.95375 -0.64,5.2675 0,2.22375 0.18375,3.5325 0.64,5.1775 0.4875,1.735 1.30875,2.52625 2.61875,2.52625 1.2175,0 2.01,-0.79125 2.5275,-2.52625 0.4875,-1.645 0.64,-2.89375 0.64,-5.26875 0,-2.28375 -0.21375,-3.5925 -0.64,-5.115 m 2.28375,12.27125 c -1.035,2.43625 -2.5275,3.5325 -4.81125,3.5325 -2.46625,0 -3.8975,-1.09625 -4.9025,-3.5325 -0.8525,-2.04 -1.1575,-3.95875 -1.1575,-7.15625 0,-3.105 0.27375,-5.17625 1.1575,-7.125 1.06625,-2.46625 2.5275,-3.47125 4.9025,-3.47125 2.375,0 3.77625,1.035 4.81125,3.5325 0.8525,2.04 1.1575,3.95875 1.1575,7.06375 0,3.1975 -0.305,5.1775 -1.1575,7.15625"
   style="fill:#000000;fill-opacity:1;fill-rule:nonzero;stroke:none"
   id="path12292" /><path
   inkscape:connector-curvature="0"
   d="m 64.51851,133.41289 c -4.385,0 -6.33375,-3.5325 -6.33375,-11.11375 0,-6.63875 2.07125,-10.17125 6.12,-10.17125 3.41125,0 5.1775,3.045 5.33,5.84625 l -2.95375,0 c -0.275,-2.01 -1.06625,-2.95375 -2.43625,-2.95375 -2.375,0 -3.25875,1.8575 -3.25875,7.21625 0,5.90875 1.005,8.2825 3.5325,8.2825 1.73625,0 2.1625,-1.43 2.1625,-2.9525 l 2.95375,0 c -0.0613,3.38 -2.22375,5.84625 -5.11625,5.84625"
   style="fill:#000000;fill-opacity:1;fill-rule:nonzero;stroke:none"
   id="path12296" /><path
   inkscape:connector-curvature="0"
   d="m 78.58636,118.614 -1.43125,5.9375 2.95375,0 -1.5225,-5.9375 z m 3.685,14.43375 -1.43125,-5.63375 -4.415,0 -1.37,5.63375 -2.95375,0 5.115,-20.555 2.8925,0 5.11625,20.555 -2.95375,0 z"
   style="fill:#000000;fill-opacity:1;fill-rule:nonzero;stroke:none"
   id="path12300" /><path
   inkscape:connector-curvature="0"
   d="m 88.11712,133.04749 0,-20.555 2.95375,0 0,17.815 7.52125,0 0,2.74 -10.475,0 z"
   style="fill:#000000;fill-opacity:1;fill-rule:nonzero;stroke:none"
   id="path12304" /><path
   inkscape:connector-curvature="0"
   d="m 121.81612,115.2335 0,17.81375 -2.98375,0 0,-17.81375 -3.74625,0 0,-2.74 10.47625,0 0,2.74 -3.74625,0 z"
   style="fill:#000000;fill-opacity:1;fill-rule:nonzero;stroke:none"
   id="path12308" /><path
   inkscape:connector-curvature="0"
   d="m 134.42274,115.38625 -3.045,0 0,5.17625 3.045,0 c 1.735,0 2.64875,-0.94375 2.64875,-2.58875 0,-1.5825 -1.065,-2.5875 -2.64875,-2.5875 m 2.5275,17.66125 -2.74125,-9.6525 -2.83125,0 0,9.6525 -2.95375,0 0,-20.555 6.15125,0 c 3.2275,0 5.39,2.1625 5.39,5.48125 0,2.4675 -1.005,4.26375 -2.95375,4.96375 l 2.95375,10.11 -3.015,0"
   style="fill:#000000;fill-opacity:1;fill-rule:nonzero;stroke:none"
   id="path12312" /><path
   inkscape:connector-curvature="0"
   d="m 148.30813,118.614 -1.43125,5.9375 2.95375,0 -1.5225,-5.9375 z m 3.685,14.43375 -1.43125,-5.63375 -4.415,0 -1.37125,5.63375 -2.95375,0 5.11625,-20.555 2.8925,0 5.115,20.555 -2.9525,0 z"
   style="fill:#000000;fill-opacity:1;fill-rule:nonzero;stroke:none"
   id="path12316" /><path
   inkscape:connector-curvature="0"
   d="m 160.79187,115.38625 0,5.17625 4.11125,0 0,2.8325 -4.11125,0 0,9.6525 -2.95375,0 0,-20.555 10.475,0 0,2.89375 -7.52125,0 z"
   style="fill:#000000;fill-opacity:1;fill-rule:nonzero;stroke:none"
   id="path12320" /><path
   inkscape:connector-curvature="0"
   d="m 174.12926,115.38625 0,5.17625 4.11125,0 0,2.8325 -4.11125,0 0,9.6525 -2.95375,0 0,-20.555 10.475,0 0,2.89375 -7.52125,0 z"
   style="fill:#000000;fill-opacity:1;fill-rule:nonzero;stroke:none"
   id="path12324" /><path
   inkscape:connector-curvature="0"
   d="m 184.5125,112.4925 2.8925,0 0,20.555 -2.8925,0 0,-20.555 z"
   style="fill:#000000;fill-opacity:1;fill-rule:nonzero;stroke:none"
   id="path12326" /><path
   inkscape:connector-curvature="0"
   d="m 197.85074,133.41289 c -4.385,0 -6.33375,-3.5325 -6.33375,-11.11375 0,-6.63875 2.07,-10.17125 6.12,-10.17125 3.41125,0 5.1775,3.045 5.32875,5.84625 l -2.95375,0 c -0.27375,-2.01 -1.065,-2.95375 -2.435,-2.95375 -2.37625,0 -3.25875,1.8575 -3.25875,7.21625 0,5.90875 1.005,8.2825 3.5325,8.2825 1.735,0 2.16125,-1.43 2.16125,-2.9525 l 2.95375,0 c -0.06,3.38 -2.2225,5.84625 -5.115,5.84625"
   style="fill:#000000;fill-opacity:1;fill-rule:nonzero;stroke:none"
   id="path12330" /><path
   inkscape:connector-curvature="0"
   d="m 230.92962,117.60924 c -0.5175,-1.7975 -1.30875,-2.58875 -2.5275,-2.58875 -1.30875,0 -2.07,0.79125 -2.61875,2.5275 -0.45625,1.58375 -0.63875,2.95375 -0.63875,5.2675 0,2.22375 0.1825,3.5325 0.63875,5.1775 0.4875,1.735 1.31,2.52625 2.61875,2.52625 1.21875,0 2.01,-0.79125 2.5275,-2.52625 0.4875,-1.645 0.64,-2.89375 0.64,-5.26875 0,-2.28375 -0.21375,-3.5925 -0.64,-5.115 m 2.28375,12.27125 c -1.035,2.43625 -2.5275,3.5325 -4.81125,3.5325 -2.46625,0 -3.8975,-1.09625 -4.9025,-3.5325 -0.8525,-2.04 -1.1575,-3.95875 -1.1575,-7.15625 0,-3.105 0.275,-5.17625 1.1575,-7.125 1.06625,-2.46625 2.5275,-3.47125 4.9025,-3.47125 2.375,0 3.77625,1.035 4.81125,3.5325 0.8525,2.04 1.1575,3.95875 1.1575,7.06375 0,3.1975 -0.305,5.1775 -1.1575,7.15625"
   style="fill:#000000;fill-opacity:1;fill-rule:nonzero;stroke:none"
   id="path12334" /><path
   inkscape:connector-curvature="0"
   d="m 247.80025,133.04749 -6.36375,-13.76375 0,13.76375 -2.955,0 0,-20.555 2.955,0 5.6325,12.3325 0,-12.3325 2.95375,0 0,20.555 -2.2225,0 z"
   style="fill:#000000;fill-opacity:1;fill-rule:nonzero;stroke:none"
   id="path12338" /><path
   inkscape:connector-curvature="0"
   d="m 254.52925,133.04749 0,-20.555 2.95375,0 0,17.815 7.52125,0 0,2.74 -10.475,0 z"
   style="fill:#000000;fill-opacity:1;fill-rule:nonzero;stroke:none"
   id="path12342" /><path
   inkscape:connector-curvature="0"
   d="m 274.23075,123.7295 0,9.3175 -2.95375,0 0,-9.3175 -5.055,-11.23625 3.10625,0 3.47125,7.43 3.38,-7.43 3.1675,0 -5.11625,11.23625 z"
   style="fill:#000000;fill-opacity:1;fill-rule:nonzero;stroke:none"
   id="path12346" /><path
   inkscape:connector-curvature="0"
   d="m 100.34901,95.15151 0,-14.42375 -4.7575,14.42375 -4.795,-14.42375 0,14.42375 -3.6925,0 0,-25.69 3.6925,0 4.795,14.425 4.7575,-14.425 3.73,0 0,25.69 -3.73,0 z"
   style="fill:#000000;fill-opacity:1;fill-rule:nonzero;stroke:none"
   id="path12350" /><path
   inkscape:connector-curvature="0"
   d="m 109.71125,69.4625 3.615,0 0,25.69 -3.615,0 0,-25.69 z"
   style="fill:#000000;fill-opacity:1;fill-rule:nonzero;stroke:none"
   id="path12352" /><path
   inkscape:connector-curvature="0"
   d="m 118.9595,95.15151 0,-25.69 3.69125,0 0,22.265 9.4,0 0,3.425 -13.09125,0 z"
   style="fill:#000000;fill-opacity:1;fill-rule:nonzero;stroke:none"
   id="path12356" /><path
   inkscape:connector-curvature="0"
   d="m 135.62876,95.15151 0,-25.69 12.1025,0 0,3.61625 -8.41125,0 0,6.47 5.32875,0 0,3.53875 -5.32875,0 0,8.44875 9.4,0 0,3.61625 -13.09125,0 z"
   style="fill:#000000;fill-opacity:1;fill-rule:nonzero;stroke:none"
   id="path12360" /><path
   inkscape:connector-curvature="0"
   d="m 158.99562,95.60824 c -4.49125,0 -7.23125,-3.80625 -7.23125,-8.03 l 3.61625,0 c 0,2.16875 1.1025,4.41375 3.615,4.41375 1.97875,0 3.615,-1.78875 3.615,-3.88125 0,-3.045 -2.625,-4.0725 -6.39375,-6.7375 -2.2825,-1.63625 -3.1575,-3.42375 -3.1575,-5.7075 0,-3.6925 2.85375,-6.66 6.58375,-6.66 3.5775,0 6.39375,2.81625 6.47,6.66 l -3.5025,0 c -0.11375,-1.78875 -1.37,-2.96875 -2.9675,-2.96875 -1.7125,0 -3.08375,1.25625 -3.08375,2.96875 0,1.29375 0.53375,1.97875 2.43625,3.0825 4.9475,2.85375 7.1175,5.67125 7.1175,9.3625 0,4.14875 -3.16,7.4975 -7.1175,7.4975"
   style="fill:#000000;fill-opacity:1;fill-rule:nonzero;stroke:none"
   id="path12364" /><path
   inkscape:connector-curvature="0"
   d="m 188.395,77.112 -1.78875,7.42125 3.6925,0 L 188.395,77.112 z m 4.605,18.04 -1.78875,-7.04125 -5.51875,0 -1.7125,7.04125 -3.69125,0 6.39375,-25.69 3.61625,0 6.3925,25.69 -3.69125,0 z"
   style="fill:#000000;fill-opacity:1;fill-rule:nonzero;stroke:none"
   id="path12368" /><path
   inkscape:connector-curvature="0"
   d="m 211.03962,95.15151 0,-11.64625 -7.04125,0 0,11.64625 -3.69125,0 0,-25.69 3.69125,0 0,10.46625 7.04125,0 0,-10.46625 3.69125,0 0,25.69 -3.69125,0 z"
   style="fill:#000000;fill-opacity:1;fill-rule:nonzero;stroke:none"
   id="path12372" /><path
   inkscape:connector-curvature="0"
   d="m 220.3635,95.15151 0,-25.69 12.1025,0 0,3.61625 -8.41125,0 0,6.47 5.32875,0 0,3.53875 -5.32875,0 0,8.44875 9.40125,0 0,3.61625 -13.0925,0 z"
   style="fill:#000000;fill-opacity:1;fill-rule:nonzero;stroke:none"
   id="path12376" /><path
   inkscape:connector-curvature="0"
   d="m 243.84525,77.112 -1.78875,7.42125 3.6925,0 -1.90375,-7.42125 z m 4.605,18.04 -1.78875,-7.04125 -5.5175,0 -1.71375,7.04125 -3.69125,0 6.39375,-25.69 3.61625,0 6.3925,25.69 -3.69125,0 z"
   style="fill:#000000;fill-opacity:1;fill-rule:nonzero;stroke:none"
   id="path12380" /><path
   inkscape:connector-curvature="0"
   d="m 265.88125,75.66536 c -0.685,-1.78875 -1.7125,-2.5875 -3.34875,-2.5875 l -3.08375,0 0,18.4575 3.08375,0 c 2.16875,0 3.38625,-1.67375 3.69125,-3.69125 0.22875,-1.59875 0.3425,-3.425 0.3425,-5.40375 0,-2.8925 -0.305,-5.67125 -0.685,-6.775 M 266.49,93.97161 c -0.95125,0.76125 -2.17,1.18 -3.615,1.18 l -7.1175,0 0,-25.69 6.58375,0 c 2.17,0 3.235,0.305 4.14875,0.99 1.5225,1.10375 2.5875,3.0825 3.0825,5.67 0.3425,1.9025 0.60875,4.14875 0.60875,6.1275 0,5.97625 -1.2175,9.705 -3.69125,11.7225"
   style="fill:#000000;fill-opacity:1;fill-rule:nonzero;stroke:none"
   id="path12384" /><path
   inkscape:connector-curvature="0"
   d="m 51.21562,94.288 -4.0325,-8.34375 -4.0325,8.34375 -4.485,0 6.2225,-12.9325 -5.77125,-12.09875 4.485,0 3.58125,7.47375 3.615,-7.47375 4.485,0 -5.875,12.09875 6.2925,12.9325 -4.485,0 z"
   style="fill:#000000;fill-opacity:1;fill-rule:nonzero;stroke:none"
   id="path12388" /><path
   inkscape:connector-curvature="0"
   d="m 70.78825,94.288 -4.0325,-8.34375 -4.0325,8.34375 -4.485,0 6.2225,-12.9325 -5.77125,-12.09875 4.485,0 3.58125,7.47375 3.615,-7.47375 4.485,0 -5.875,12.09875 6.2925,12.9325 -4.485,0 z"
   style="fill:#000000;fill-opacity:1;fill-rule:nonzero;stroke:none"
   id="path12392" /><path
   inkscape:connector-curvature="0"
   d="m 63.44975,43.76975 c 0,-0.79125 -0.11125,-1.525 -0.3325,-2.205 C 62.896,40.886 62.5885,40.301 62.19725,39.8085 61.806,39.31475 61.34475,38.92725 60.81225,38.6435 60.281,38.361 59.71225,38.21725 59.106,38.21725 l -4.72,0 0,10.2775 4.72,0 c 1.34375,0 2.40375,-0.425 3.18,-1.27625 0.77625,-0.85125 1.16375,-2 1.16375,-3.44875 M 62.8785,28.7535 c 0,-1.37625 -0.27625,-2.38 -0.8275,-3.00875 C 61.49975,25.116 60.5985,24.801 59.34975,24.801 l -4.96375,0 0,8.85 4.96375,0 c 1.0875,0 1.9475,-0.4375 2.58,-1.31375 C 62.56225,31.461 62.8785,30.266 62.8785,28.7535 m 5.21,15.33875 c 0,1.24625 -0.22875,2.41125 -0.68625,3.49375 -0.45625,1.085 -1.08,2.03375 -1.87,2.85 -0.78875,0.81625 -1.71,1.4575 -2.765,1.925 -1.055,0.4675 -2.17875,0.7 -3.3725,0.7 l -9.6475,0 0,-32.8275 10.31625,0 c 1.09375,0 2.09625,0.20875 3.00625,0.62375 0.91,0.41625 1.69375,0.9975 2.35125,1.7475 0.6575,0.74875 1.17125,1.64625 1.54125,2.6925 0.37,1.04625 0.555,2.2 0.555,3.46 0,0.7425 -0.055,1.4025 -0.1675,1.98125 -0.11125,0.57875 -0.2975,1.13625 -0.5575,1.67 -0.25875,0.53375 -0.60875,1.07875 -1.045,1.635 -0.43875,0.5575 -0.99125,1.18375 -1.65875,1.88 1.26125,1.025 2.24375,2.21625 2.94625,3.57375 0.7025,1.3575 1.05375,2.88875 1.05375,4.595"
   style="fill:#000000;fill-opacity:1;fill-rule:nonzero;stroke:none"
   id="path12396" /><path
   inkscape:connector-curvature="0"
   d="m 87.62687,28.98713 c 0,-1.2975 -0.3875,-2.31875 -1.16,-3.06625 -0.7725,-0.74625 -1.81125,-1.12 -3.11625,-1.12 l -4.93,0 0,8.35 4.93,0 c 1.395,0 2.45625,-0.35375 3.18375,-1.0625 0.7275,-0.70875 1.0925,-1.7425 1.0925,-3.10125 m -0.21375,24.075 -4.44,-15.415 -4.5525,0 0,15.415 -4.63875,0 0,-32.82875 9.81125,0 c 1.30625,0 2.49125,0.20875 3.555,0.62375 1.0625,0.41625 1.9725,1.00625 2.73125,1.77 0.7575,0.765 1.34375,1.6875 1.76125,2.77 0.41625,1.085 0.625,2.285 0.625,3.60625 0,1.9725 -0.395,3.64625 -1.18375,5.01875 -0.78875,1.3725 -1.96375,2.355 -3.52625,2.9475 l 4.71,16.0925 -4.8525,0"
   style="fill:#000000;fill-opacity:1;fill-rule:nonzero;stroke:none"
   id="path12400" /><path
   inkscape:connector-curvature="0"
   d="m 97.745,20.23375 4.63875,0 0,32.8275 -4.63875,0 0,-32.8275 z"
   style="fill:#000000;fill-opacity:1;fill-rule:nonzero;stroke:none"
   id="path12402" /><path
   inkscape:connector-curvature="0"
   d="m 123.39476,36.83724 c 0,-0.9225 -0.0225,-1.83 -0.0662,-2.72375 -0.045,-0.89375 -0.10875,-1.72 -0.19,-2.47875 -0.0825,-0.75875 -0.18,-1.43625 -0.29125,-2.0325 -0.11125,-0.595 -0.23375,-1.06375 -0.3675,-1.40625 -0.4025,-1.17625 -0.95375,-2.035 -1.65375,-2.58 -0.7,-0.5425 -1.56375,-0.815 -2.59,-0.815 l -3.97625,0 0,23.69375 3.97625,0 c 0.68375,0 1.29875,-0.12625 1.8425,-0.38 0.5425,-0.2525 1.0125,-0.595 1.40625,-1.02625 0.395,-0.4325 0.715,-0.935 0.96,-1.5075 0.24625,-0.57375 0.41375,-1.1725 0.50375,-1.79875 0.1625,-1.05625 0.27875,-2.15375 0.34625,-3.2925 0.0662,-1.13875 0.1,-2.35625 0.1,-3.6525 m 4.63875,-0.2225 c 0,3.78375 -0.39125,6.9 -1.17125,9.3475 -0.7825,2.44875 -1.96125,4.31 -3.53875,5.58625 -0.6225,0.475 -1.31375,0.845 -2.07,1.1125 -0.755,0.2675 -1.615,0.4 -2.57875,0.4 l -9.05375,0 0,-32.8275 8.43125,0 c 0.68125,0 1.28625,0.0275 1.8125,0.0788 0.52625,0.0525 0.99625,0.13375 1.4125,0.245 0.41375,0.11125 0.785,0.24375 1.1125,0.4 0.325,0.15625 0.6375,0.345 0.93375,0.5675 0.95875,0.7425 1.74375,1.71125 2.355,2.905 0.61125,1.19375 1.09,2.48875 1.4375,3.8825 0.34625,1.395 0.585,2.81625 0.71875,4.2625 0.1325,1.4475 0.19875,2.7925 0.19875,4.04"
   style="fill:#000000;fill-opacity:1;fill-rule:nonzero;stroke:none"
   id="path12406" /><path
   inkscape:connector-curvature="0"
   d="m 152.18462,45.53711 c -0.0375,0.475 -0.0937,0.915 -0.1675,1.32375 -0.0725,0.4075 -0.17,0.78875 -0.28875,1.145 -0.1175,0.35625 -0.26625,0.71125 -0.44375,1.0675 -0.6375,1.42375 -1.58625,2.54 -2.84625,3.3475 -1.26,0.8075 -2.72,1.21125 -4.37875,1.21125 -1.9425,0 -3.625,-0.47625 -5.04625,-1.42625 -1.42375,-0.95125 -2.53375,-2.3475 -3.335,-4.19 -0.2675,-0.60875 -0.50875,-1.34125 -0.7225,-2.195 -0.215,-0.855 -0.4,-1.78 -0.55625,-2.77625 -0.15625,-0.99375 -0.2775,-2.035 -0.3675,-3.12 -0.0888,-1.085 -0.13125,-2.16125 -0.13125,-3.2325 0,-2.3025 0.12125,-4.33375 0.36625,-6.09625 0.24375,-1.76 0.64125,-3.41375 1.19,-4.96 0.295,-0.86 0.71375,-1.655 1.255,-2.38375 0.54125,-0.7275 1.17125,-1.35875 1.89,-1.89375 0.71875,-0.53625 1.5075,-0.95125 2.3675,-1.24875 0.85875,-0.2975 1.7625,-0.44625 2.7125,-0.44625 1.185,0 2.285,0.205 3.30125,0.61375 1.01375,0.41 1.90375,0.97875 2.6675,1.7075 0.7625,0.72875 1.37,1.59875 1.8225,2.61 0.45125,1.01125 0.7075,2.12625 0.7675,3.34625 l -4.71,0 c -0.075,-1.1175 -0.45875,-2.01625 -1.15125,-2.69375 -0.6925,-0.6775 -1.61875,-1.01625 -2.78,-1.01625 -0.805,0 -1.52,0.2075 -2.14375,0.62375 -0.62625,0.4175 -1.14625,1.01125 -1.56375,1.7825 -0.2225,0.4175 -0.42875,0.9525 -0.615,1.60625 -0.185,0.65375 -0.34625,1.38125 -0.48,2.185 -0.13375,0.8025 -0.23375,1.66875 -0.30125,2.5975 -0.0662,0.92875 -0.1,1.89125 -0.1,2.88625 0,1.3825 0.0512,2.77625 0.15625,4.18 0.10375,1.405 0.2825,2.73875 0.53625,4.0025 0.3425,1.62 0.91875,2.8525 1.73125,3.7 0.81125,0.8475 1.84875,1.27125 3.115,1.27125 1.235,0 2.14375,-0.41375 2.725,-1.2425 0.58,-0.82875 0.87125,-2.11625 0.87125,-3.8625 l 0,-2.175 -3.71125,0 0,-4.5675 8.42125,0 0,6.74 c 0,0.5775 -0.0188,1.10375 -0.0563,1.57875"
   style="fill:#000000;fill-opacity:1;fill-rule:nonzero;stroke:none"
   id="path12410" /><path
   inkscape:connector-curvature="0"
   d="m 158.82574,53.06163 0,-32.8275 15.39375,0 0,4.5675 -10.755,0 0,8.34875 6.83625,0 0,4.49625 -6.83625,0 0,10.8475 11.98,0 0,4.5675 -16.61875,0 z"
   style="fill:#000000;fill-opacity:1;fill-rule:nonzero;stroke:none"
   id="path12414" /><path
   inkscape:connector-curvature="0"
   d="m 208.3235,36.60314 c 0,-0.93625 -0.0225,-1.77625 -0.0675,-2.51875 -0.045,-0.7425 -0.11125,-1.43375 -0.2,-2.07375 -0.0887,-0.63875 -0.19375,-1.24875 -0.3125,-1.8275 -0.11875,-0.58 -0.26125,-1.1675 -0.42375,-1.76125 -0.41625,-1.4725 -0.955,-2.5375 -1.61625,-3.19875 -0.6625,-0.66125 -1.4825,-0.9925 -2.4625,-0.9925 -1.055,0 -1.90625,0.3275 -2.5525,0.98125 -0.64625,0.6525 -1.17875,1.67875 -1.59375,3.07625 -0.19375,0.62375 -0.3575,1.24125 -0.49,1.85 -0.135,0.61 -0.2425,1.245 -0.32375,1.90625 -0.0825,0.66125 -0.1425,1.37125 -0.17875,2.12875 -0.0375,0.75875 -0.055,1.5975 -0.055,2.51875 0,0.9075 0.0175,1.72875 0.055,2.465 0.0362,0.73625 0.1,1.42625 0.19,2.0725 0.0888,0.6475 0.20125,1.275 0.33375,1.88375 0.135,0.61 0.29,1.24125 0.46875,1.89375 0.38625,1.39875 0.90875,2.425 1.57125,3.0775 0.66125,0.65375 1.52,0.98125 2.575,0.98125 0.98,0 1.8,-0.3275 2.4625,-0.98125 0.66125,-0.6525 1.2,-1.67875 1.61625,-3.0775 0.1925,-0.6675 0.3525,-1.29875 0.47875,-1.89375 0.12625,-0.595 0.23,-1.215 0.3125,-1.86125 0.0825,-0.64625 0.1375,-1.345 0.1675,-2.095 0.0287,-0.75125 0.045,-1.60125 0.045,-2.55375 m 4.49625,0 c 0,1.24875 -0.0337,2.40125 -0.10125,3.455 -0.0662,1.055 -0.1775,2.04 -0.33375,2.95375 -0.1575,0.91375 -0.34875,1.77875 -0.5775,2.59625 -0.23,0.8175 -0.51625,1.62 -0.85625,2.4075 -0.8175,1.9475 -1.84,3.37 -3.07125,4.26875 -1.23125,0.8975 -2.775,1.3475 -4.6275,1.3475 -0.98,0 -1.8625,-0.11125 -2.64875,-0.33375 -0.78625,-0.22375 -1.49125,-0.565 -2.11375,-1.025 -0.6225,-0.46 -1.1825,-1.04375 -1.68,-1.75 -0.4975,-0.705 -0.945,-1.54125 -1.345,-2.5075 -0.34125,-0.8175 -0.6325,-1.635 -0.86875,-2.45125 -0.2375,-0.8175 -0.43375,-1.68375 -0.58875,-2.5975 -0.15625,-0.91375 -0.27125,-1.89 -0.345,-2.93 -0.075,-1.04125 -0.11125,-2.185 -0.11125,-3.43375 0,-1.23375 0.0325,-2.3775 0.1,-3.4325 0.0675,-1.055 0.1775,-2.0475 0.33375,-2.97625 0.15625,-0.9275 0.3525,-1.80375 0.59,-2.62875 0.23625,-0.825 0.5325,-1.63125 0.89,-2.42 0.43,-0.965 0.8975,-1.7925 1.40125,-2.48375 0.50375,-0.69125 1.07125,-1.26 1.7025,-1.705 0.63,-0.44625 1.33,-0.7725 2.1025,-0.98125 0.77125,-0.2075 1.63125,-0.3125 2.58125,-0.3125 0.94875,0 1.805,0.105 2.56875,0.3125 0.76375,0.20875 1.4575,0.53875 2.08125,0.9925 0.62125,0.4525 1.185,1.0325 1.69,1.7375 0.50375,0.70625 0.95625,1.56375 1.35875,2.57375 0.34,0.8025 0.62625,1.61375 0.85625,2.43125 0.22875,0.8175 0.42,1.67875 0.5775,2.585 0.15625,0.90625 0.2675,1.87625 0.33375,2.90875 0.0675,1.0325 0.10125,2.165 0.10125,3.39875"
   style="fill:#000000;fill-opacity:1;fill-rule:nonzero;stroke:none"
   id="path12418" /><path
   inkscape:connector-curvature="0"
   d="m 237.735,45.07086 c -0.0437,0.5275 -0.115,1.01375 -0.21,1.45875 -0.0962,0.44625 -0.23,0.865 -0.40125,1.25875 -0.17,0.39375 -0.38125,0.805 -0.6325,1.235 -0.385,0.66875 -0.8625,1.28375 -1.4325,1.84875 -0.57125,0.56375 -1.19625,1.05 -1.87625,1.4575 -0.68125,0.40875 -1.4025,0.72875 -2.16625,0.95875 -0.76125,0.2275 -1.52875,0.34375 -2.2975,0.34375 -0.815,0 -1.61875,-0.1075 -2.41,-0.3225 -0.7925,-0.21625 -1.54375,-0.51875 -2.25375,-0.9125 -0.7125,-0.3925 -1.36,-0.8725 -1.94375,-1.43625 -0.58625,-0.565 -1.07,-1.195 -1.455,-1.8925 -0.2525,-0.43 -0.45875,-0.85125 -0.62125,-1.25875 -0.16375,-0.40875 -0.29375,-0.83375 -0.39,-1.28 -0.095,-0.445 -0.1625,-0.93125 -0.19875,-1.45875 -0.0387,-0.52625 -0.0563,-1.12375 -0.0563,-1.79125 l 0,-23.04625 4.63875,0 0,23.5775 c 0,0.7875 0.115,1.5025 0.34625,2.14875 0.23125,0.64625 0.5525,1.19875 0.96375,1.6575 0.41,0.46125 0.90125,0.8175 1.475,1.07 0.575,0.2525 1.205,0.3775 1.89125,0.3775 0.64125,0 1.23,-0.125 1.7675,-0.3775 0.5375,-0.2525 1,-0.60875 1.38875,-1.07 0.3875,-0.45875 0.69,-1.01125 0.90625,-1.6575 0.21625,-0.64625 0.325,-1.36125 0.325,-2.14875 l 0,-23.5775 4.71,0 0,23.04625 c 0,0.6675 -0.0225,1.265 -0.0675,1.79125"
   style="fill:#000000;fill-opacity:1;fill-rule:nonzero;stroke:none"
   id="path12422" /><path
   inkscape:connector-curvature="0"
   d="m 253.06549,24.58712 0,28.475 -4.63875,0 0,-28.475 -6.01125,0 0,-4.35375 16.68375,0 0,4.35375 -6.03375,0 z"
   style="fill:#000000;fill-opacity:1;fill-rule:nonzero;stroke:none"
   id="path12426" /></svg>