<svg width="48in" height="30in" viewBox="0 0 3456 2160" version="1.1" xmlns="http://www.w3.org/2000/svg" xmlns:svg="http://www.w3.org/2000/svg">
  <defs/>
  <rect class="a" width="3456" height="2160" rx="135" fill="#fff" x="0" y="0"/>
  <path d="M 3321,36 H 135 a 99.111,99.111 0 0 0 -99,99 v 1890 a 99.111,99.111 0 0 0 99,99 h 3186 a 99.111,99.111 0 0 0 99,-99 V 135 a 99.11,99.11 0 0 0 -99,-99 z m 45,1989 a 45.055,45.055 0 0 1 -45,45 H 135 A 45.055,45.055 0 0 1 90,2025 V 135 a 45.055,45.055 0 0 1 45,-45 h 3186 a 45.055,45.055 0 0 1 45,45 z" style="display:inline"/>
  <path d="M 3321,2.2536 A 132.746,132.746 0 0 1 3453.7463,135 V 2025 A 132.7456,132.7456 0 0 1 3321,2157.7463 H 135 A 132.746,132.746 0 0 1 2.2536,2025 V 135 A 132.7463,132.7463 0 0 1 135,2.2536 Z M 3321,0 H 135 A 135,135 0 0 0 0,135 v 1890 a 135,135 0 0 0 135,135 h 3186 a 135,135 0 0 0 135,-135 V 135 A 135,135 0 0 0 3321,0 Z" style="display:inline"/>
  <g style="display:inline">
    <path d="m 864.8,685.23 v 250.7 h -90.798 v -576 h 208.22 c 131.95,0 171.52,105.62 171.52,161.78 0,21.384 -7.9144,105.62 -89.359,144.22 l 101.45,270 h -99 l -92.884,-250.7 z m 114.32,-92.88 c 72.236,0 83.603,-52.128 83.603,-70.704 0,-25.128 -18.778,-70.776 -79.214,-70.776 h -118.71 v 141.48 z"/>
    <path d="m 1653.9,647.94 c 0,20.664 4.389,298.08 -204.48,298.08 -208.869,0 -204.48,-277.42 -204.48,-298.08 0,-20.66 -4.389,-298.01 204.48,-298.01 208.869,0 204.48,277.34 204.48,298.01 z m -203.47,205.2 c 62.019,0 112.38,-58.824 112.38,-205.2 0,-146.376 -50.363,-205.2 -112.38,-205.2 -62.017,0 -112.38,58.752 -112.38,205.2 0,146.38 50.363,205.2 112.38,205.2 z"/>
    <path d="m 2056.6,774.22 h -180.73 l -56.911,161.71 h -97.489 l 199.08,-576 h 91.446 l 199.01,576 h -97.489 z m -148.21,-92.952 h 115.76 l -56.911,-161.64 z"/>
    <path d="m 2290.2,935.94 v -576 h 207.64 c 145.26,0 184.19,191.45 184.19,275.04 0,216.07 -111.02,300.96 -183.83,300.96 z M 2484.03,450.88 H 2381 v 392.04 h 96.625 c 83.747,0 111.23,-101.52 111.23,-209.95 0,-51.552 -14.676,-182.09 -104.83,-182.09 z"/>
  </g>
  <g>
    <path d="m360 1511c0-81 16.287-297 212.38-297 83.597 0 140.53 33.984 180.09 117.22l-84.967 36.36c-29.475-42.336-44.177-60.624-95.056-60.624-120.64 0-119.34 167.98-119.34 204.12 0 35.712-2.2343 206.21 123.38 206.21 44.033 0 69.328-26.568 89.002-66.743l86.984 32.327c-32.43 80.136-86.912 127.22-174.04 127.22-207.48 0-218.43-228.96-218.43-299.09z"/>
    <path d="m869.21 1224h90.948v491.11h266.65v84.888h-357.59z"/>
    <path d="m1701.3 1512c0 20.663 4.3962 298.08-204.81 298.08s-204.81-277.42-204.81-298.08-4.3963-298.01 204.81-298.01 204.81 277.34 204.81 298.01zm-203.8 205.2c62.121 0 112.57-58.824 112.57-205.2s-50.447-205.2-112.57-205.2-112.57 58.752-112.57 205.2c0 146.37 50.446 205.2 112.57 205.2z"/>
    <path d="m1777.6 1664.9 86.913-32.256c24.286 54.504 68.896 84.743 123.45 84.743 52.536 0 89.146-36.288 89.146-84.743 0-76.968-89.146-88.776-163.88-119.09-34.376-14.112-111.13-48.456-111.13-143.28 0-113.11 76.751-155.45 179.81-155.45 80.786 0 135.34 46.44 163.66 117.07l-80.858 24.192c-13.332-25.992-41.294-50.472-89.724-50.472-69.76 0-84.245 38.016-84.245 58.176 0 53.783 46.483 64.44 121.94 88.128 76.822 24.12 157.39 59.471 157.39 182.73-0.0723 124.27-101.04 175.54-182.11 175.54-99.019 0-171.95-58.464-210.36-145.3z"/>
    <path d="m2258 1224h339.43v90.936h-248.49v141.48h167.7v92.952h-167.7v157.68h266.65v92.952h-357.59z"/>
    <path d="m2703.5 1800v-576h207.98c145.5 0 184.49 191.45 184.49 275.04 0 216.07-111.2 300.96-184.13 300.96zm194.15-485.06h-103.2v392.04h96.785c83.886 0 111.41-101.52 111.41-209.95 0-51.552-14.701-182.09-105-182.09z"/>
  </g>
</svg>
