<?xml version="1.0" encoding="UTF-8" standalone="no"?>
<!-- Created with Inkscape (http://www.inkscape.org/) -->

<svg
   xmlns:dc="http://purl.org/dc/elements/1.1/"
   xmlns:cc="http://creativecommons.org/ns#"
   xmlns:rdf="http://www.w3.org/1999/02/22-rdf-syntax-ns#"
   xmlns:svg="http://www.w3.org/2000/svg"
   xmlns="http://www.w3.org/2000/svg"
   xmlns:sodipodi="http://sodipodi.sourceforge.net/DTD/sodipodi-0.dtd"
   xmlns:inkscape="http://www.inkscape.org/namespaces/inkscape"
   width="81.9375"
   height="102.21875"
   id="svg2"
   sodipodi:version="0.32"
   inkscape:version="0.48.2 r9819"
   version="1.0"
   sodipodi:docname="AJAX1.svg"
   inkscape:output_extension="org.inkscape.output.svg.inkscape">
  <defs
     id="defs4">
    <inkscape:perspective
       sodipodi:type="inkscape:persp3d"
       inkscape:vp_x="0 : 300.5 : 1"
       inkscape:vp_y="0 : 1000 : 0"
       inkscape:vp_z="601 : 300.5 : 1"
       inkscape:persp3d-origin="300.5 : 200.33333 : 1"
       id="perspective3380" />
    <inkscape:perspective
       id="perspective3990"
       inkscape:persp3d-origin="375 : 250 : 1"
       inkscape:vp_z="750 : 375 : 1"
       inkscape:vp_y="0 : 1000 : 0"
       inkscape:vp_x="0 : 375 : 1"
       sodipodi:type="inkscape:persp3d" />
  </defs>
  <sodipodi:namedview
     id="base"
     pagecolor="#ffffff"
     bordercolor="#666666"
     borderopacity="1.0"
     gridtolerance="10000"
     guidetolerance="10"
     objecttolerance="10"
     inkscape:pageopacity="0.0"
     inkscape:pageshadow="2"
     inkscape:zoom="3.639243"
     inkscape:cx="27.303117"
     inkscape:cy="17.797881"
     inkscape:document-units="px"
     inkscape:current-layer="layer1"
     width="601px"
     height="601px"
     inkscape:window-width="1280"
     inkscape:window-height="1004"
     inkscape:window-x="-8"
     inkscape:window-y="-8"
     showgrid="false"
     fit-margin-top="0"
     fit-margin-left="0"
     fit-margin-right="0"
     fit-margin-bottom="0"
     inkscape:window-maximized="1" />
  <metadata
     id="metadata7">
    <rdf:RDF>
      <cc:Work
         rdf:about="">
        <dc:format>image/svg+xml</dc:format>
        <dc:type
           rdf:resource="http://purl.org/dc/dcmitype/StillImage" />
        <dc:title></dc:title>
      </cc:Work>
    </rdf:RDF>
  </metadata>
  <g
     inkscape:label="Layer 1"
     inkscape:groupmode="layer"
     id="layer1"
     transform="translate(-4046.7813,10598.5)">
    <rect
       style="color:#000000;fill:#000000;fill-opacity:1;fill-rule:nonzero;stroke:none;stroke-width:0.8735441;marker:none;visibility:visible;display:inline;overflow:visible"
       id="rect3653"
       width="0"
       height="27.202072"
       x="578.73834"
       y="298.1684"
       rx="249.48199"
       ry="27.202072" />
    <path
       inkscape:connector-curvature="0"
       d="m 4052.2113,-10598.159 71.0712,0 c 2.7963,0 5.0763,2.28 5.0763,5.075 l 0,91.379 c 0,2.797 -2.28,5.077 -5.0763,5.077 l -71.0712,0 c -2.7963,0 -5.0763,-2.28 -5.0763,-5.077 l 0,-91.379 c 0,-2.762 2.315,-5.075 5.0763,-5.075"
       style="fill:#ffffff;fill-opacity:1;fill-rule:nonzero;stroke:#000000;stroke-width:0.69999999;stroke-linecap:butt;stroke-linejoin:miter;stroke-miterlimit:4;stroke-opacity:1;stroke-dasharray:none"
       id="path15609" />
    <path
       inkscape:connector-curvature="0"
       style="fill:#000000;fill-opacity:1;fill-rule:evenodd;stroke:none"
       d="m 4052.2188,-10596.75 c -2.015,0 -3.6825,1.674 -3.6875,3.688 l 0,91.344 c 0.01,2.018 1.6738,3.677 3.6875,3.687 l 71.0624,0 c 2.0125,-0.01 3.6538,-1.669 3.6564,-3.687 l 0,-91.344 c 0,-2.011 -1.6425,-3.685 -3.6564,-3.688 l -71.0624,0 z m 0.031,1.969 70.9999,0 c 0.9563,-0.01 1.7325,0.794 1.7188,1.75 l 0,91.281 c 0.014,0.955 -0.7638,1.765 -1.7188,1.75 l -70.9999,0 c -0.9563,0.01 -1.7326,-0.792 -1.7187,-1.75 l 0,-91.281 c -0.014,-0.956 0.7624,-1.763 1.7187,-1.75 z"
       id="path15613" />
    <path
       inkscape:connector-curvature="0"
       d="m 4111.0725,-10573.748 0,-2.182 -6.2663,0 0,-3.704 3.9413,0 0,-2.185 -3.9413,0 0,-3.323 5.8388,0 0,-2.133 -7.9738,0 0,13.527 8.4013,0 z m -11.6563,0 0,-1.992 -6.2662,0 0,-11.535 -2.1363,0 0,13.527 8.4025,0 z m -11.895,0 -3.4175,-6.977 3.18,-6.55 -2.4212,0 -1.9463,4.032 -1.9463,-4.032 -2.4212,0 3.1337,6.55 -3.3699,6.977 2.42,0 2.1837,-4.509 2.1838,4.509 2.4212,0 z m -15.9287,-5.981 -2.7062,0 1.3775,-3.796 1.3287,3.796 z m 4.3662,5.981 -4.6513,-13.527 -2.1362,0 -4.6525,13.527 2.2788,0 1.3287,-3.798 4.225,0 1.33,3.798 2.2775,0 z"
       style="fill:#000000;fill-opacity:1;fill-rule:evenodd;stroke:none"
       id="path15621" />
    <path
       inkscape:connector-curvature="0"
       d="m 4119.96,-10565.139 0,-1.897 -8.3563,0 0,1.897 3.085,0 0,11.63 2.1362,0 0,-11.63 3.1351,0 z m -10.5926,11.63 0,-13.527 -2.1348,0 0,5.456 -4.9388,0 0,-5.456 -2.135,0 0,13.527 2.135,0 0,-5.886 4.9388,0 0,5.886 2.1348,0 z m -12.395,-4.035 0,-2.703 -4.6049,0 0,2.137 2.4688,0 0,0.566 c 0,1.238 -0.9962,2.09 -2.3737,2.09 -0.8063,0 -1.4238,-0.332 -1.85,-1.091 -0.4288,-0.855 -0.665,-2.278 -0.665,-3.702 0,-1.142 0.1912,-2.376 0.5212,-3.183 0.475,-1.186 1.1875,-1.66 2.28,-1.66 1.0438,0 1.6125,0.427 2.1837,1.614 l 2.04,-0.807 c -0.9012,-2.136 -2.1362,-2.99 -4.2237,-2.99 -1.52,0 -2.6587,0.523 -3.4663,1.516 -0.9024,1.189 -1.5187,3.326 -1.5187,5.51 0,1.66 0.3325,3.32 0.9013,4.507 0.8074,1.711 1.9949,2.476 4.0349,2.476 2.4688,0 4.2725,-1.809 4.2725,-4.28 m -12.3462,-9.492 -2.185,0 0,13.527 2.185,0 0,-13.527 z m -4.6563,13.527 0,-2.183 -6.2675,0 0,-3.703 3.9401,0 0,-2.185 -3.9401,0 0,-3.32 5.8388,0 0,-2.136 -7.975,0 0,13.527 8.4037,0 z m -10.6387,-13.527 -2.185,0 -1.0437,7.119 -1.7563,-7.119 -2.0887,0 -1.7088,7.119 -1.045,-7.119 -2.1825,0 1.9925,13.527 1.9,0 2.0875,-8.686 2.1375,8.686 1.8975,0 1.995,-13.527 z"
       style="fill:#000000;fill-opacity:1;fill-rule:evenodd;stroke:none"
       id="path15625" />
    <path
       inkscape:connector-curvature="0"
       d="m 4109.0012,-10544.831 0,-1.901 -8.3537,0 0,1.901 3.085,0 0,11.631 2.1362,0 0,-11.631 3.1325,0 z m -10.49,-1.901 -2.1837,0 0,13.532 2.1837,0 0,-13.532 z m -5.5524,13.532 0,-13.532 -2.1375,0 -3.1325,7.597 -3.1338,-7.597 -2.1362,0 0,13.532 2.1362,0 0,-7.835 3.1338,7.835 3.1325,-7.835 0,7.835 2.1375,0 z m -13.8613,-13.532 -2.1837,0 0,13.532 2.1837,0 0,-13.532 z m -4.3199,13.532 0,-1.995 -6.2651,0 0,-11.537 -2.1374,0 0,13.532 8.4025,0 z"
       style="fill:#000000;fill-opacity:1;fill-rule:evenodd;stroke:none"
       id="path15629" />
    <path
       inkscape:connector-curvature="0"
       d="m 4065.0313,-10514.05 c 0,-3.088 -2.5512,-5.699 -5.6375,-5.699 -0.8312,0 -1.365,0.12 -2.6113,0.476 l 0.1788,-2.79 7.1213,0 0,-2.669 -9.7325,0 -0.415,8.724 2.6687,0.769 c 1.01,-1.422 1.5438,-1.778 2.7313,-1.778 1.6625,0 3.0262,1.304 3.0262,2.967 0,2.195 -1.9001,3.796 -4.3325,3.796 -1.2463,0 -2.4925,-0.236 -3.2038,-0.593 l -1.3062,2.373 c 1.1863,0.596 2.67,0.963 4.1538,0.963 4.2737,0 7.3587,-2.801 7.3587,-6.539"
       style="fill:#000000;fill-opacity:1;fill-rule:evenodd;stroke:none"
       id="path15633" />
    <path
       inkscape:connector-curvature="0"
       d="m 4121.6076,-10512.688 c 0,-6.643 -7.9526,-4.567 -8.1914,-7.712 -0.1187,-1.544 1.3663,-2.019 2.6114,-1.959 1.8998,0.06 2.4949,1.485 2.4949,1.485 l 2.3737,-0.713 c -0.8312,-2.078 -2.4337,-3.442 -4.8087,-3.442 -3.0249,0 -5.2826,1.245 -5.2826,4.57 0,2.789 2.2577,3.798 3.2663,4.212 2.1951,0.89 4.805,1.248 4.805,3.503 0,1.424 -1.0675,2.49 -2.61,2.49 -1.6025,0 -2.9087,-0.89 -3.62,-2.49 l -2.5525,0.948 c 1.1287,2.551 3.2639,4.285 6.1726,4.285 1.4237,0 2.7299,-0.487 3.6787,-1.317 1.07,-0.95 1.6626,-2.316 1.6626,-3.86 m -12.7139,4.869 0,-16.913 -2.6713,0 0,10.799 -6.17,-10.799 -2.6724,0 0,16.913 2.6724,0 0,-11.454 6.4676,11.454 2.3737,0 z m -16.2724,-8.428 c 0,1.305 -0.2975,2.969 -0.6537,3.857 -0.5938,1.485 -1.365,2.136 -2.6113,2.136 -1.0687,0 -1.78,-0.415 -2.315,-1.304 -0.6525,-1.068 -1.0088,-2.907 -1.0088,-4.689 0,-1.423 0.2376,-2.967 0.6538,-3.976 0.5925,-1.483 1.4238,-2.136 2.7288,-2.077 1.01,0.06 1.6624,0.417 2.1975,1.306 0.6512,1.126 1.0087,2.85 1.0087,4.747 m 2.67,0 c 0,-2.135 -0.4162,-4.273 -1.1275,-5.754 -1.0688,-2.079 -2.5512,-3.028 -4.6887,-3.028 -1.9588,0 -3.3239,0.592 -4.3325,1.896 -1.1263,1.604 -1.8401,4.098 -1.8401,6.886 0,2.019 0.4751,4.273 1.1875,5.698 1.0088,2.075 2.4926,3.038 4.8663,3.038 1.78,0 3.1463,-0.604 4.0962,-1.912 1.1863,-1.482 1.8388,-4.154 1.8388,-6.824 m -12.535,-6.112 0,-2.373 -10.4462,0 0,2.373 3.8587,0 0,14.54 2.67,0 0,-14.54 3.9175,0 z"
       style="fill:#000000;fill-opacity:1;fill-rule:evenodd;stroke:none"
       id="path15637" />
  </g>
</svg>
