<?xml version="1.0" encoding="UTF-8" standalone="no"?>
<!-- Created with Inkscape (http://www.inkscape.org/) -->

<svg
   xmlns:dc="http://purl.org/dc/elements/1.1/"
   xmlns:cc="http://creativecommons.org/ns#"
   xmlns:rdf="http://www.w3.org/1999/02/22-rdf-syntax-ns#"
   xmlns:svg="http://www.w3.org/2000/svg"
   xmlns="http://www.w3.org/2000/svg"
   xmlns:sodipodi="http://sodipodi.sourceforge.net/DTD/sodipodi-0.dtd"
   xmlns:inkscape="http://www.inkscape.org/namespaces/inkscape"
   width="81.90625"
   height="122.53125"
   id="svg2"
   sodipodi:version="0.32"
   inkscape:version="0.48.2 r9819"
   version="1.0"
   sodipodi:docname="MUTCD R12-4.svg"
   inkscape:output_extension="org.inkscape.output.svg.inkscape">
  <defs
     id="defs4">
    <inkscape:perspective
       sodipodi:type="inkscape:persp3d"
       inkscape:vp_x="0 : 300.5 : 1"
       inkscape:vp_y="0 : 1000 : 0"
       inkscape:vp_z="601 : 300.5 : 1"
       inkscape:persp3d-origin="300.5 : 200.33333 : 1"
       id="perspective3380" />
    <inkscape:perspective
       id="perspective3990"
       inkscape:persp3d-origin="375 : 250 : 1"
       inkscape:vp_z="750 : 375 : 1"
       inkscape:vp_y="0 : 1000 : 0"
       inkscape:vp_x="0 : 375 : 1"
       sodipodi:type="inkscape:persp3d" />
  </defs>
  <sodipodi:namedview
     id="base"
     pagecolor="#ffffff"
     bordercolor="#666666"
     borderopacity="1.0"
     gridtolerance="10000"
     guidetolerance="10"
     objecttolerance="10"
     inkscape:pageopacity="0.0"
     inkscape:pageshadow="2"
     inkscape:zoom="3.639243"
     inkscape:cx="52.070953"
     inkscape:cy="77.854106"
     inkscape:document-units="px"
     inkscape:current-layer="layer1"
     width="601px"
     height="601px"
     inkscape:window-width="1280"
     inkscape:window-height="1004"
     inkscape:window-x="-8"
     inkscape:window-y="-8"
     showgrid="false"
     fit-margin-top="0"
     fit-margin-left="0"
     fit-margin-right="0"
     fit-margin-bottom="0"
     inkscape:window-maximized="1" />
  <metadata
     id="metadata7">
    <rdf:RDF>
      <cc:Work
         rdf:about="">
        <dc:format>image/svg+xml</dc:format>
        <dc:type
           rdf:resource="http://purl.org/dc/dcmitype/StillImage" />
        <dc:title></dc:title>
      </cc:Work>
    </rdf:RDF>
  </metadata>
  <g
     inkscape:label="Layer 1"
     inkscape:groupmode="layer"
     id="layer1"
     transform="translate(-5348.3125,12139.156)">
    <rect
       style="color:#000000;fill:#000000;fill-opacity:1;fill-rule:nonzero;stroke:none;stroke-width:0.8735441;marker:none;visibility:visible;display:inline;overflow:visible"
       id="rect3653"
       width="0"
       height="27.202072"
       x="578.73834"
       y="298.1684"
       rx="249.48199"
       ry="27.202072" />
    <path
       inkscape:connector-curvature="0"
       d="m 5353.725,-12138.808 71.0738,0 c 2.7962,0 5.0763,2.28 5.0763,5.076 l 0,111.684 c 0,2.796 -2.2801,5.076 -5.0763,5.076 l -71.0738,0 c -2.7925,0 -5.075,-2.28 -5.075,-5.076 l 0,-111.684 c 0,-2.761 2.3163,-5.076 5.075,-5.076"
       style="fill:#ffffff;fill-opacity:1;fill-rule:nonzero;stroke:#000000;stroke-width:0.7;stroke-miterlimit:4;stroke-opacity:1;stroke-dasharray:none"
       id="path15697" />
    <path
       inkscape:connector-curvature="0"
       style="fill:#000000;fill-opacity:1;fill-rule:evenodd;stroke:none"
       d="m 5353.75,-12137.531 c -2.0925,0 -3.8388,1.725 -3.8438,3.812 l 0,111.656 c 0,2.089 1.7513,3.803 3.8438,3.813 l 71.0312,0 c 2.095,-0.01 3.8063,-1.724 3.8125,-3.813 l 0,-111.656 c -0.01,-2.087 -1.7175,-3.81 -3.8125,-3.812 l -71.0312,0 z m 0.031,2.093 70.9688,0 c 0.9524,-0.01 1.7674,0.795 1.75,1.75 l 0,111.594 c 0.017,0.955 -0.7976,1.765 -1.75,1.75 l -70.9688,0 c -0.9538,0.01 -1.765,-0.795 -1.75,-1.75 l 0,-111.594 c -0.015,-0.955 0.7962,-1.764 1.75,-1.75 z"
       id="path15721" />
    <path
       inkscape:connector-curvature="0"
       d="m 5420.9075,-12118.781 0,-1.977 -8.4663,0 0,1.977 3.2413,0 0,9.297 1.98,0 0,-9.297 3.245,0 z m -10.5662,9.297 0,-11.274 -2.0188,0 0,4.352 -5.0613,0 0,-4.352 -2.0162,0 0,11.274 2.0162,0 0,-4.905 5.0613,-0.04 0,4.947 2.0188,0 z m -15.8251,-5.618 0,2.017 1.86,0 c -0.2762,1.029 -1.2662,1.782 -2.375,1.782 -2.095,0 -2.6487,-2.019 -2.6487,-3.837 0,-2.218 1.0662,-3.799 2.6487,-3.799 0.9913,0 1.7013,0.553 2.1388,1.504 l 2.0525,-0.714 c -0.7887,-1.738 -2.1725,-2.808 -4.1913,-2.808 -2.8074,0 -4.6687,2.374 -4.6687,5.817 0,2.926 1.3462,5.858 4.6687,5.858 2.4925,0 4.47,-1.903 4.47,-4.357 l 0,-1.463 -3.955,0 z m -7.915,-5.656 -2.0162,0 0,11.274 2.0162,0 0,-11.274 z m -4.4699,11.274 0,-2.017 -6.3701,0 0,-3.088 3.3638,0 0,-2.053 -3.3638,0 0,-2.1 6.17,0 0,-2.016 -8.2275,0 0,11.274 8.4276,0 z m -10.5276,-11.274 -2.0562,0 -1.1475,7.278 -1.74,-7.278 -2.0175,0 -1.66,7.278 -1.2275,-7.278 -2.0975,0 2.0588,11.274 2.1362,0 1.7788,-7.556 1.8199,7.556 2.1363,0 2.0162,-11.274 z"
       style="fill:#000000;fill-opacity:1;fill-rule:evenodd;stroke:none"
       id="path15729" />
    <path
       inkscape:connector-curvature="0"
       d="m 5409.755,-12100.168 0,-1.978 -8.4613,0 0,1.978 3.2425,0 0,9.297 1.9751,0 0,-9.297 3.2438,0 z m -10.3225,-1.978 -2.0188,0 0,11.275 2.0188,0 0,-11.275 z m -4.9463,11.275 0,-11.275 -1.9775,0 -3.3225,6.688 -3.2837,-6.688 -1.9775,0 0,11.275 1.9775,0 0,-6.884 3.2837,6.884 3.3225,-6.884 0,6.884 1.9775,0 z m -13.4462,-11.275 -2.02,0 0,11.275 2.02,0 0,-11.275 z m -3.9163,11.275 0,-1.738 -6.4087,0 0,-9.537 -2.0188,0 0,11.275 8.4275,0 z"
       style="fill:#000000;fill-opacity:1;fill-rule:evenodd;stroke:none"
       id="path15733" />
    <path
       inkscape:connector-curvature="0"
       d="m 5423.1074,-12081.948 0,-1.581 -6.9625,0 0,1.581 2.5725,0 0,9.693 1.78,0 0,-9.693 2.61,0 z m -10.9988,6.134 c 0,1.066 -0.9075,1.937 -2.055,1.937 -1.1062,0 -2.0175,-0.871 -2.0175,-1.937 0,-0.95 0.9113,-1.705 2.0175,-1.705 1.1075,0 2.055,0.755 2.055,1.705 m -0.4712,-4.749 c 0,0.671 -0.715,1.225 -1.5838,1.225 -0.87,0 -1.5825,-0.554 -1.5825,-1.225 0,-0.753 0.7125,-1.345 1.5825,-1.345 0.8688,0 1.5838,0.592 1.5838,1.345 m 2.2537,4.706 c 0,-1.027 -0.4375,-1.937 -1.3062,-2.609 0.5537,-0.596 0.8687,-1.267 0.8687,-2.058 0,-1.741 -1.5787,-3.203 -3.4,-3.203 -1.8187,0 -3.365,1.462 -3.365,3.203 0,0.791 0.2788,1.462 0.8326,2.058 -0.8326,0.672 -1.3038,1.541 -1.3038,2.609 0,2.059 1.78,3.804 3.8362,3.804 2.055,0 3.8375,-1.745 3.8375,-3.804"
       style="fill:#000000;fill-opacity:1;fill-rule:evenodd;stroke:none"
       id="path15737" />
    <path
       inkscape:connector-curvature="0"
       d="m 5423.1562,-12063.334 0,-1.583 -6.9624,0 0,1.583 2.5699,0 0,9.692 1.7825,0 0,-9.692 2.61,0 z m -9.2162,9.692 0,-1.818 -5.5375,0 c 0.5525,-1.268 1.145,-1.939 2.215,-2.574 l 0.5537,-0.315 0.5938,-0.318 0.5512,-0.356 c 0.1613,-0.08 0.32,-0.197 0.4788,-0.318 0.7525,-0.671 1.145,-1.539 1.145,-2.411 0,-1.861 -1.7012,-3.362 -3.835,-3.362 -1.9799,0 -3.4425,1.147 -3.8413,3.005 l 1.7825,0.396 c 0.1976,-1.027 0.9089,-1.583 2.0588,-1.583 1.105,0 2.0525,0.672 2.0525,1.504 0,0.476 -0.315,0.95 -0.7488,1.226 l -0.5525,0.318 -0.5562,0.315 -0.5938,0.318 c -0.1587,0.118 -0.3149,0.238 -0.5123,0.356 -0.7913,0.592 -1.5039,1.303 -1.9801,2.175 -0.63,1.069 -0.9075,2.136 -0.95,3.442 l 7.6763,0 z m -10.0874,0 0,-11.275 -1.4238,0 c -0.3175,0.435 -0.83,0.711 -1.3037,0.711 l -0.12,0 0,1.425 1.0287,0 0,9.139 1.8188,0 z"
       style="fill:#000000;fill-opacity:1;fill-rule:evenodd;stroke:none"
       id="path15741" />
    <path
       inkscape:connector-curvature="0"
       d="m 5423.1175,-12044.72 0,-1.583 -6.9637,0 0,1.583 2.5712,0 0,9.692 1.78,0 0,-9.692 2.6125,0 z m -10.2075,6.408 c 0,0.91 -0.9475,1.663 -2.0538,1.663 -1.1112,0 -2.0187,-0.753 -2.0187,-1.663 0,-0.87 0.9076,-1.621 2.0187,-1.621 1.145,0 2.0538,0.751 2.0538,1.621 m 1.7825,0.04 c 0,-1.9 -1.7438,-3.442 -3.8363,-3.442 -0.4362,0 -0.7125,0 -1.3475,0.118 0.6738,-1.424 1.3863,-2.336 2.7688,-3.402 l -0.9113,-1.504 c -2.6099,1.74 -4.35,4.947 -4.35,8.072 0,2.016 1.6601,3.606 3.84,3.606 2.1726,0 3.8363,-1.511 3.8363,-3.448 m -10.0888,3.243 0,-11.275 -1.4225,0 c -0.3174,0.435 -0.8312,0.712 -1.3037,0.712 l -0.12,0 0,1.424 1.0275,0 0,9.139 1.8187,0 z"
       style="fill:#000000;fill-opacity:1;fill-rule:evenodd;stroke:none"
       id="path15745" />
    <path
       inkscape:connector-curvature="0"
       d="m 5379.3813,-12074.613 0.017,0 2.41,0 0,-8.867 -15.3512,-0.02 0,1.546 -2.11,0 c -0.8587,0 -1.3963,0 -1.7525,1.202 l -0.5887,2.343 -1.3701,0 c -0.6712,0 -0.6712,0 -0.6712,0.654 l 0,3.145 -0.7175,0 0,0.725 2.5737,0 c 0.1313,0.991 0.7539,1.665 1.74,1.665 0.9763,0 1.6413,-0.691 1.8613,-1.665 l 1.035,0 0,-0.725 9.045,0 c -0.017,0.09 -0.025,0.295 -0.025,0.397 0,1.099 0.8863,1.993 1.9737,1.993 1.0838,0 1.9675,-0.894 1.9675,-1.993 0,-0.125 -0.015,-0.283 -0.037,-0.397"
       style="fill:#000000;fill-opacity:1;fill-rule:evenodd;stroke:none"
       id="path15749" />
    <path
       inkscape:connector-curvature="0"
       d="m 5367.6387,-12055.827 0.015,0 2.1412,0 -0.8964,-1.022 -6.145,0 0,-5.778 -2.9175,0 c -0.76,0 -1.2375,0 -1.5525,1.109 l -0.5275,2.17 -1.2137,0 c -0.5962,0 -0.5962,0 -0.5962,0.609 l 0,2.912 -0.6388,0 0,0.671 2.2876,0 c 0.115,0.916 0.6712,1.543 1.545,1.543 0.8688,0 1.46,-0.639 1.655,-1.543 l 0.9161,0 0,-0.671 2.4825,0 c -0.015,0.08 -0.019,0.277 -0.019,0.369 0,1.017 0.785,1.845 1.75,1.845 0.9612,0 1.7475,-0.828 1.7475,-1.845 0,-0.118 -0.011,-0.261 -0.031,-0.369"
       style="fill:#000000;fill-opacity:1;fill-rule:evenodd;stroke:none"
       id="path15753" />
    <path
       inkscape:connector-curvature="0"
       d="m 5384.3625,-12053.693 c 1.0325,0 1.875,-0.889 1.875,-1.98 0,-0.136 -0.012,-0.274 -0.041,-0.403 l 2.9513,0 0,-8.818 -25.7013,0 0,7.136 6.1288,0 1.455,1.682 11.4962,0 c -0.024,0.129 -0.036,0.267 -0.036,0.403 0,1.091 0.84,1.98 1.8725,1.98"
       style="fill:#000000;fill-opacity:1;fill-rule:evenodd;stroke:none"
       id="path15757" />
    <path
       inkscape:connector-curvature="0"
       d="m 5393.185,-12035.012 c 1.0987,0 1.995,-0.899 1.995,-2.001 0,-0.13 -0.013,-0.259 -0.039,-0.384 l 1.65,0 0,-8.835 -17.9125,0 0,8.09 -0.9587,0 0,-8.09 -15.33,0 0,1.542 -2.1213,0 c -0.8675,0 -1.4037,0 -1.7637,1.199 l -0.595,2.339 -1.3775,0 c -0.6763,0 -0.6763,0 -0.6763,0.656 l 0,3.138 -0.725,0 0,0.727 2.5925,0 c 0.1325,0.986 0.76,1.663 1.7538,1.663 0.9837,0 1.65,-0.691 1.8725,-1.663 l 1.04,0 0,-0.727 6.9087,0 c -0.016,0.09 -0.021,0.297 -0.021,0.4 0,1.096 0.8887,1.99 1.985,1.99 1.0912,0 1.9813,-0.894 1.9813,-1.99 0,-0.127 -0.016,-0.283 -0.039,-0.4 l 0.015,0 5.4588,0 2.0124,0 c -0.027,0.131 -0.043,0.267 -0.043,0.403 0,1.101 0.8963,2 1.9925,2 1.0987,0 1.9924,-0.899 1.9924,-2 0,-0.134 -0.015,-0.268 -0.039,-0.397 l 6.4375,-0.06 c -0.025,0.128 -0.039,0.256 -0.039,0.389 0,1.102 0.8949,2.001 1.9912,2.001"
       style="fill:#000000;fill-opacity:1;fill-rule:evenodd;stroke:none"
       id="path15761" />
  </g>
</svg>
