<?xml version="1.0" encoding="UTF-8" standalone="no"?>
<svg xmlns="http://www.w3.org/2000/svg" xmlns:sodipodi="http://sodipodi.sourceforge.net/DTD/sodipodi-0.dtd" xmlns:inkscape="http://www.inkscape.org/namespaces/inkscape" width="81.938" height="122.53" version="1.0">
 <metadata id="metadata7"/>
 <g inkscape:label="Layer 1" inkscape:groupmode="layer" id="layer1" transform="translate(-4340.0312,11125.594)">
  <path inkscape:connector-curvature="0" d="m 4345.47,-11125.247 71.0736,0 c 2.795,0 5.0751,2.281 5.0751,5.077 l 0,111.682 c 0,2.799 -2.2801,5.079 -5.0751,5.079 l -71.0736,0 c -2.7939,0 -5.0763,-2.28 -5.0763,-5.079 l 0,-111.682 c 0,-2.761 2.3163,-5.077 5.0763,-5.077" id="path15653" fill="#ffffff" stroke="#000000" stroke-width="0.7"/>
  <path inkscape:connector-curvature="0" d="m 4345.4999,-11123.969 c -2.0911,0 -3.8387,1.724 -3.8437,3.812 l 0,111.657 c 0.01,2.089 1.7526,3.802 3.8437,3.812 l 71.0313,0 c 2.0937,-0.01 3.8063,-1.723 3.8125,-3.812 l 0,-111.657 c -0.01,-2.088 -1.7188,-3.809 -3.8125,-3.812 l -71.0312,0 z m 0,2.094 71,0 c 0.9526,-0.02 1.7687,0.796 1.75,1.75 l 0,111.593 c 0.019,0.958 -0.7974,1.765 -1.75,1.75 l -71,0 c -0.955,0.01 -1.7337,-0.792 -1.7187,-1.75 l 0,-111.593 c -0.015,-0.955 0.7637,-1.767 1.7187,-1.75 z" id="path15657" fill-rule="evenodd"/>
  <path inkscape:connector-curvature="0" d="m 4394.5861,-11103.22 c 0,1.567 -0.355,3.559 -0.7825,4.629 -0.71,1.781 -1.635,2.564 -3.1325,2.564 -1.2812,0 -2.1387,-0.5 -2.775,-1.568 -0.7862,-1.283 -1.2137,-3.488 -1.2137,-5.625 0,-1.709 0.285,-3.561 0.7838,-4.771 0.7125,-1.78 1.7087,-2.563 3.275,-2.492 1.2124,0.07 1.9949,0.499 2.6349,1.567 0.7813,1.353 1.21,3.416 1.21,5.696 m 3.2063,0 c 0,-2.563 -0.5,-5.127 -1.3538,-6.907 -1.2825,-2.492 -3.0625,-3.632 -5.6237,-3.632 -2.3513,0 -3.9887,0.712 -5.2012,2.277 -1.3538,1.924 -2.205,4.915 -2.205,8.262 0,2.42 0.5687,5.127 1.4225,6.836 1.2112,2.493 2.99,3.643 5.8399,3.643 2.1338,0 3.775,-0.722 4.9126,-2.291 1.4249,-1.778 2.2088,-4.985 2.2088,-8.188 m -18.73,10.113 0,-20.295 -3.2026,0 0,12.957 -7.405,-12.957 -3.2049,0 0,20.295 3.2049,0 0,-13.745 7.7625,13.745 2.845,0 z" id="path15665" fill-rule="evenodd"/>
  <path inkscape:connector-curvature="0" d="m 4414.3774,-11072.353 c 0,-2.432 -1.425,-4.273 -4.69,-6.169 -1.2449,-0.714 -1.6013,-1.189 -1.6013,-2.02 0,-1.128 0.8901,-1.958 2.0188,-1.958 1.0687,0 1.8987,0.772 1.9587,1.958 l 2.3138,0 c -0.061,-2.551 -1.8988,-4.39 -4.2725,-4.39 -2.435,0 -4.3325,1.959 -4.3325,4.39 0,1.485 0.7125,2.791 2.0762,3.74 3.4413,2.312 2.4913,1.662 2.8475,2.017 1.0088,0.769 1.3675,1.482 1.3675,2.432 0,1.367 -1.07,2.551 -2.3762,2.551 -1.66,0 -2.3725,-1.481 -2.3725,-2.905 l -2.375,0 c 0,2.787 1.78,5.29 4.7475,5.29 2.6126,0 4.69,-2.205 4.69,-4.936 m -10.9013,4.628 -3.915,-10.976 3.5,-5.935 -2.7875,0 -3.86,6.765 0,-6.765 -2.4312,0 0,16.911 2.4312,0 0,-5.4 1.545,-2.846 2.9663,8.246 2.5512,0 z m -12.3224,-12.402 c -0.1763,-1.543 -0.415,-2.254 -1.0663,-3.084 -0.7738,-1.127 -1.96,-1.721 -3.3275,-1.721 -3.32,0 -5.0412,2.909 -5.0412,8.365 0,6.232 1.6012,9.15 5.2212,9.15 2.3737,0 4.1562,-2.028 4.2138,-4.816 l -2.4325,0 c 0,1.247 -0.3538,2.431 -1.7813,2.431 -2.0762,0 -2.9087,-1.956 -2.9087,-6.824 0,-4.392 0.715,-5.935 2.6725,-5.935 1.1262,0 1.7774,0.774 2.0175,2.434 l 2.4325,0 z m -12.2625,7.359 0,-11.868 -2.435,0 0,12.165 c 0,1.603 -0.9488,2.669 -2.2538,2.669 -1.4237,0 -2.3737,-1.066 -2.3737,-2.669 l 0,-12.165 -2.4338,0 0,11.868 c 0,1.365 0.1775,2.076 0.6538,2.966 0.8325,1.426 2.4925,2.385 4.1537,2.385 1.6025,0 3.205,-1.018 4.035,-2.385 0.4762,-0.89 0.6538,-1.601 0.6538,-2.966 m -14.165,-7.359 c 0,1.366 -0.7688,2.136 -2.1938,2.136 l -2.4937,0 0,-4.271 2.4937,0 c 1.3062,0 2.1938,0.831 2.1938,2.135 m 2.375,12.402 -2.4313,-8.306 c 1.6,-0.595 2.4313,-2.077 2.4313,-4.096 0,-2.726 -1.78,-4.509 -4.4513,-4.509 l -5.0425,0 0,16.911 2.4313,0 0,-7.951 2.3137,0 2.2575,7.951 2.4913,0 z m -11.315,-14.656 0,-2.255 -8.6038,0 0,2.255 3.085,0 0,14.656 2.4313,0 0,-14.656 3.0875,0 z" id="path15669" fill-rule="evenodd"/>
  <path inkscape:connector-curvature="0" d="m 4396.0137,-11054.712 c 0,0.427 -0.2513,0.854 -0.6401,1.068 -0.25,0.143 -0.4275,0.177 -0.9262,0.177 l -1.9237,0 0,-2.492 1.9237,0 c 0.5337,0 0.6762,0.04 0.9262,0.18 0.3888,0.215 0.6401,0.641 0.6401,1.067 m 1.8163,7.3 -1.7813,-4.736 c 0.925,-0.428 1.5663,-1.496 1.5663,-2.564 0,-1.032 -0.6413,-2.101 -1.5313,-2.528 -0.4975,-0.25 -1.0337,-0.32 -1.815,-0.32 l -3.3462,0 0,10.148 1.6012,0 0,-4.416 1.9238,0 1.6362,4.416 1.7463,0 z m -8.8976,0 0,-1.638 -4.6988,0 0,-2.778 2.9539,0 0,-1.639 -2.9539,0 0,-2.492 4.3789,0 0,-1.601 -5.9825,0 0,10.148 6.3024,0 z m -8.1136,-10.148 -1.7101,0 -2.1337,6.764 -2.17,-6.764 -1.675,0 3.2037,10.148 1.2476,0 3.2375,-10.148 z m -10.9263,5.092 c 0,0.783 -0.1751,1.78 -0.39,2.315 -0.3563,0.89 -0.8201,1.281 -1.5662,1.281 -0.6413,0 -1.0688,-0.249 -1.3889,-0.785 -0.3912,-0.64 -0.6049,-1.744 -0.6049,-2.811 0,-0.854 0.1425,-1.78 0.3937,-2.387 0.3537,-0.889 0.8537,-1.279 1.6351,-1.246 0.6062,0.04 0.9961,0.25 1.3186,0.784 0.3889,0.677 0.6025,1.706 0.6025,2.849 m 1.6025,0 c 0,-1.282 -0.25,-2.564 -0.6774,-3.454 -0.6362,-1.245 -1.5276,-1.818 -2.8112,-1.818 -1.1739,0 -1.9939,0.359 -2.5975,1.142 -0.6776,0.958 -1.1025,2.455 -1.1025,4.13 0,1.21 0.2837,2.562 0.7112,3.418 0.605,1.244 1.4962,1.822 2.9188,1.822 1.0648,0 1.8875,-0.363 2.4575,-1.145 0.7124,-0.89 1.1011,-2.493 1.1011,-4.095" id="path15673" fill-rule="evenodd"/>
  <path inkscape:connector-curvature="0" d="m 4412.8649,-11033.411 c 0,-3.989 -4.77,-2.741 -4.9113,-4.63 -0.072,-0.925 0.8189,-1.21 1.5676,-1.172 1.1387,0.03 1.4938,0.889 1.4938,0.889 l 1.4236,-0.428 c -0.4987,-1.245 -1.4599,-2.064 -2.8825,-2.064 -1.8161,0 -3.1687,0.745 -3.1687,2.74 0,1.675 1.3526,2.28 1.9563,2.529 1.3187,0.532 2.885,0.747 2.885,2.101 0,0.854 -0.6401,1.495 -1.5663,1.495 -0.9612,0 -1.7449,-0.533 -2.1713,-1.495 l -1.5299,0.57 c 0.6749,1.529 1.9563,2.569 3.7012,2.569 0.8526,0 1.6363,-0.291 2.2062,-0.79 0.6413,-0.57 0.9963,-1.387 0.9963,-2.314 m -9.5011,0.108 c 0,0.782 -0.4288,1.175 -1.2489,1.175 l -2.4211,0 0,-2.779 2.0298,0 c 0.3564,0 0.4614,0 0.6764,0.07 0.5687,0.213 0.9638,0.854 0.9638,1.531 m -0.2151,-4.699 c 0,0.464 -0.2137,0.889 -0.57,1.174 -0.285,0.215 -0.4987,0.283 -0.9625,0.283 l -1.9224,0 0,-2.492 2.3499,0 c 0.7126,0 1.105,0.359 1.105,1.035 m 1.85,4.66 c 0,-1.101 -0.6062,-1.954 -1.6738,-2.454 0.9638,-0.535 1.4251,-1.281 1.4251,-2.28 0,-1.457 -1.2113,-2.562 -2.8138,-2.562 l -3.8449,0 0,10.147 3.8449,0 c 0.4638,0 1.0688,-0.107 1.4276,-0.251 0.9598,-0.39 1.6349,-1.495 1.6349,-2.6 m -8.4012,2.851 0,-1.496 -4.6988,0 0,-8.651 -1.6026,0 0,10.147 6.3014,0 z m -15.1638,-5.056 c 0,0.784 -0.1787,1.781 -0.3925,2.315 -0.3575,0.891 -0.8187,1.281 -1.5662,1.281 -0.6413,0 -1.0675,-0.248 -1.3888,-0.783 -0.3912,-0.642 -0.605,-1.746 -0.605,-2.813 0,-0.854 0.1438,-1.779 0.3926,-2.385 0.3562,-0.89 0.8562,-1.281 1.6375,-1.247 0.605,0.04 0.9962,0.248 1.3162,0.783 0.3938,0.679 0.6062,1.71 0.6062,2.849 m 1.6013,0 c 0,-1.281 -0.25,-2.564 -0.6788,-3.454 -0.6375,-1.245 -1.5287,-1.815 -2.8101,-1.815 -1.1749,0 -1.9923,0.358 -2.5973,1.139 -0.6763,0.959 -1.1038,2.457 -1.1038,4.13 0,1.211 0.285,2.563 0.71,3.419 0.6063,1.245 1.4975,1.821 2.92,1.821 1.07,0 1.8875,-0.361 2.4574,-1.145 0.7114,-0.889 1.1026,-2.493 1.1026,-4.095 m -10.7862,0 c 0,0.784 -0.1788,1.781 -0.3902,2.315 -0.3575,0.891 -0.8211,1.281 -1.5674,1.281 -0.64,0 -1.0687,-0.248 -1.3874,-0.783 -0.3925,-0.642 -0.6076,-1.746 -0.6076,-2.813 0,-0.854 0.1438,-1.779 0.3925,-2.385 0.3575,-0.89 0.8538,-1.281 1.6376,-1.247 0.6062,0.04 0.9975,0.248 1.3199,0.783 0.3876,0.679 0.6026,1.71 0.6026,2.849 m 1.6012,0 c 0,-1.281 -0.2487,-2.564 -0.6762,-3.454 -0.6388,-1.245 -1.5276,-1.815 -2.8125,-1.815 -1.1738,0 -1.9913,0.358 -2.5975,1.139 -0.6751,0.959 -1.1038,2.457 -1.1038,4.13 0,1.211 0.285,2.563 0.7113,3.419 0.6075,1.245 1.495,1.821 2.92,1.821 1.0662,0 1.8862,-0.361 2.4562,-1.145 0.7125,-0.889 1.1025,-2.493 1.1025,-4.095 m -10.7863,0 c 0,0.784 -0.1774,1.781 -0.3912,2.315 -0.355,0.891 -0.8163,1.281 -1.5663,1.281 -0.6399,0 -1.0674,-0.248 -1.3887,-0.783 -0.3887,-0.642 -0.6037,-1.746 -0.6037,-2.813 0,-0.854 0.1412,-1.779 0.3912,-2.385 0.3563,-0.89 0.8537,-1.281 1.6388,-1.247 0.6037,0.04 0.995,0.248 1.3149,0.783 0.3926,0.679 0.605,1.71 0.605,2.849 m 1.6038,0 c 0,-1.281 -0.25,-2.564 -0.6775,-3.454 -0.64,-1.245 -1.5313,-1.815 -2.81,-1.815 -1.1763,0 -1.995,0.358 -2.6012,1.139 -0.6776,0.959 -1.1025,2.457 -1.1025,4.13 0,1.211 0.285,2.563 0.7124,3.419 0.6026,1.245 1.4938,1.821 2.9175,1.821 1.0663,0 1.8901,-0.361 2.4575,-1.145 0.7113,-0.889 1.1038,-2.493 1.1038,-4.095 m -8.9,-3.49 0,-1.601 -6.8713,0 0,1.601 4.8413,0 c -0.3537,0.572 -0.7825,1.32 -1.14,2.101 -0.9962,2.136 -1.4212,4.095 -1.4575,6.445 l 1.6375,0 c 0,-0.999 0.071,-1.637 0.2138,-2.493 0.32,-1.637 0.9962,-3.347 1.8874,-4.843 0.3188,-0.534 0.5313,-0.746 0.8888,-1.21" id="path15677" fill-rule="evenodd"/>
  <path inkscape:connector-curvature="0" d="m 4414.9849,-11022.292 0,-1.423 -6.2638,0 0,1.423 2.3125,0 0,8.724 1.6025,0 0,-8.724 2.3488,0 z m -6.87,-1.423 -1.6375,0 -0.7836,5.342 -1.3164,-5.342 -1.5675,0 -1.2812,5.342 -0.7813,-5.342 -1.6413,0 1.4975,10.147 1.4225,0 1.5675,-6.517 1.6013,6.517 1.4237,0 1.4963,-10.147 z m -17.7287,0 -1.8851,0 -2.4562,3.914 -2.4225,-3.914 -1.9212,0 3.56,5.73 0,4.417 1.6012,0 0,-4.417 3.5238,-5.73 z m -9.4676,1.423 0,-1.423 -6.2675,0 0,1.423 2.3151,0 0,8.724 1.6012,0 0,-8.724 2.3512,0 z m -8.5087,1.424 c 0,0.427 -0.2487,0.891 -0.6025,1.067 -0.2863,0.144 -0.465,0.178 -0.9625,0.178 l -2.1025,0 0,-2.49 2.1025,0 c 0.4975,0 0.6762,0.03 0.9625,0.178 0.3538,0.214 0.6025,0.639 0.6025,1.067 m 1.6375,0 c 0,-1.03 -0.6762,-2.1 -1.565,-2.527 -0.4975,-0.252 -1.0337,-0.32 -1.8512,-0.32 l -3.49,0 0,10.147 1.6012,0 0,-4.417 1.8889,0 c 0.7824,0 1.3874,-0.142 1.8511,-0.355 0.8888,-0.392 1.565,-1.461 1.565,-2.528 m -9.325,7.3 0,-10.147 -1.6025,0 -2.3512,5.695 -2.3476,-5.695 -1.6023,0 0,10.147 1.6023,0 0,-5.874 2.3476,5.874 2.3512,-5.874 0,5.874 1.6025,0 z m -9.5762,0 0,-1.639 -4.6988,0 0,-2.778 2.9537,0 0,-1.638 -2.9537,0 0,-2.49 4.3775,0 0,-1.602 -5.9799,0 0,10.147 6.3012,0 z" id="path15681" fill-rule="evenodd"/>
 </g>
</svg>
