<?xml version="1.0" encoding="UTF-8" standalone="no"?>
<!-- Created with Inkscape (http://www.inkscape.org/) -->

<svg
   xmlns:dc="http://purl.org/dc/elements/1.1/"
   xmlns:cc="http://creativecommons.org/ns#"
   xmlns:rdf="http://www.w3.org/1999/02/22-rdf-syntax-ns#"
   xmlns:svg="http://www.w3.org/2000/svg"
   xmlns="http://www.w3.org/2000/svg"
   xmlns:sodipodi="http://sodipodi.sourceforge.net/DTD/sodipodi-0.dtd"
   xmlns:inkscape="http://www.inkscape.org/namespaces/inkscape"
   width="122.53125"
   height="81.9375"
   id="svg2"
   sodipodi:version="0.32"
   inkscape:version="0.48.2 r9819"
   version="1.0"
   sodipodi:docname="MUTCD R12-3.svg"
   inkscape:output_extension="org.inkscape.output.svg.inkscape">
  <defs
     id="defs4">
    <inkscape:perspective
       sodipodi:type="inkscape:persp3d"
       inkscape:vp_x="0 : 300.5 : 1"
       inkscape:vp_y="0 : 1000 : 0"
       inkscape:vp_z="601 : 300.5 : 1"
       inkscape:persp3d-origin="300.5 : 200.33333 : 1"
       id="perspective3380" />
    <inkscape:perspective
       id="perspective3990"
       inkscape:persp3d-origin="375 : 250 : 1"
       inkscape:vp_z="750 : 375 : 1"
       inkscape:vp_y="0 : 1000 : 0"
       inkscape:vp_x="0 : 375 : 1"
       sodipodi:type="inkscape:persp3d" />
  </defs>
  <sodipodi:namedview
     id="base"
     pagecolor="#ffffff"
     bordercolor="#666666"
     borderopacity="1.0"
     gridtolerance="10000"
     guidetolerance="10"
     objecttolerance="10"
     inkscape:pageopacity="0.0"
     inkscape:pageshadow="2"
     inkscape:zoom="2.5733334"
     inkscape:cx="67.457838"
     inkscape:cy="13.629698"
     inkscape:document-units="px"
     inkscape:current-layer="layer1"
     width="601px"
     height="601px"
     inkscape:window-width="1280"
     inkscape:window-height="1004"
     inkscape:window-x="-8"
     inkscape:window-y="-8"
     showgrid="false"
     fit-margin-top="0"
     fit-margin-left="0"
     fit-margin-right="0"
     fit-margin-bottom="0"
     inkscape:window-maximized="1" />
  <metadata
     id="metadata7">
    <rdf:RDF>
      <cc:Work
         rdf:about="">
        <dc:format>image/svg+xml</dc:format>
        <dc:type
           rdf:resource="http://purl.org/dc/dcmitype/StillImage" />
        <dc:title></dc:title>
      </cc:Work>
    </rdf:RDF>
  </metadata>
  <g
     inkscape:label="Layer 1"
     inkscape:groupmode="layer"
     id="layer1"
     transform="translate(-4760.3437,11591.781)">
    <rect
       style="color:#000000;fill:#000000;fill-opacity:1;fill-rule:nonzero;stroke:none;stroke-width:0.8735441;marker:none;visibility:visible;display:inline;overflow:visible"
       id="rect3653"
       width="0"
       height="27.202072"
       x="578.73834"
       y="298.1684"
       rx="249.48199"
       ry="27.202072" />
    <path
       inkscape:connector-curvature="0"
       d="m 4882.5212,-11586.341 0,71.074 c 0,2.796 -2.2801,5.076 -5.0751,5.076 l -111.6849,0 c -2.795,0 -5.0762,-2.28 -5.0762,-5.076 l 0,-71.074 c 0,-2.793 2.2812,-5.076 5.0762,-5.076 l 111.6849,0 c 2.7613,0 5.0751,2.317 5.0751,5.076"
       style="fill:#ffffff;fill-opacity:1;fill-rule:nonzero;stroke:#000000;stroke-width:0.69999999;stroke-linecap:butt;stroke-linejoin:miter;stroke-miterlimit:4;stroke-opacity:1;stroke-dasharray:none"
       id="path15777" />
    <path
       inkscape:connector-curvature="0"
       style="fill:#000000;fill-opacity:1;fill-rule:evenodd;stroke:none"
       d="m 4765.7812,-11590.156 c -2.0901,0 -3.8338,1.751 -3.8437,3.843 l 0,71.032 c 0.01,2.093 1.7537,3.805 3.8437,3.813 l 111.6563,0 c 2.0874,0 3.81,-1.719 3.8125,-3.813 l 0,-71.032 c 0,-2.093 -1.7251,-3.839 -3.8125,-3.843 l -111.6563,0 z m 0.031,2.125 111.5937,0 c 0.955,-0.01 1.7337,0.795 1.7188,1.75 l 0,70.968 c 0.015,0.952 -0.7638,1.766 -1.7188,1.75 l -111.5937,0 c -0.955,0.02 -1.7638,-0.798 -1.75,-1.75 l 0,-70.968 c -0.014,-0.955 0.795,-1.764 1.75,-1.75 z"
       id="path15781" />
    <path
       inkscape:connector-curvature="0"
       d="m 4781.2824,-11563.286 -1.6675,0 -1.2837,-7.093 -1.285,7.093 -1.7138,0 -2.1425,-13.563 1.9038,0 1.1424,7.235 1.3326,-7.235 1.5237,0 1.2838,7.235 1.1912,-7.235 1.9025,0 -2.1875,13.563 z"
       style="fill:#000000;fill-opacity:1;fill-rule:nonzero;stroke:none"
       id="path15789" />
    <path
       inkscape:connector-curvature="0"
       d="m 4785.3249,-11563.286 0,-13.563 6.3775,0 0,1.904 -4.425,0 0,3.426 2.8088,0 0,1.856 -2.8088,0 0,4.473 4.95,0 0,1.904 -6.9025,0 z"
       style="fill:#000000;fill-opacity:1;fill-rule:nonzero;stroke:none"
       id="path15793" />
    <path
       inkscape:connector-curvature="0"
       d="m 4794.5124,-11576.847 1.9013,0 0,13.561 -1.9013,0 0,-13.561 z"
       style="fill:#000000;fill-opacity:1;fill-rule:nonzero;stroke:none"
       id="path15795" />
    <path
       inkscape:connector-curvature="0"
       d="m 4806.3599,-11564.951 c -0.5213,1.19 -1.615,1.905 -2.9975,1.905 -1.6162,0 -2.8075,-0.811 -3.4737,-2.334 -0.4275,-0.998 -0.7138,-2.903 -0.7138,-4.663 0,-1.904 0.1425,-3.283 0.6187,-4.568 0.4751,-1.429 1.8575,-2.475 3.4275,-2.475 1.9501,0 3.425,1.427 3.5201,3.425 l -1.95,0 c -0.046,-0.904 -0.6676,-1.522 -1.6188,-1.522 -0.665,0 -1.1887,0.333 -1.5213,1 -0.3812,0.667 -0.6199,2.188 -0.6199,3.805 0,1.144 0.095,2.335 0.2849,3.382 0.2863,1.331 0.9526,2.045 2,2.045 0.9988,0 1.4751,-0.666 1.4751,-2.094 l 0,-0.903 -1.5238,0 0,-1.905 3.4738,0 0,2.808 c 0,0.952 -0.095,1.524 -0.3813,2.094"
       style="fill:#000000;fill-opacity:1;fill-rule:nonzero;stroke:none"
       id="path15799" />
    <path
       inkscape:connector-curvature="0"
       d="m 4815.1174,-11563.286 0,-6.138 -3.71,0 0,6.138 -1.9538,0 0,-13.563 1.9538,0 0,5.521 3.71,0 0,-5.521 1.9513,0 0,13.563 -1.9513,0 z"
       style="fill:#000000;fill-opacity:1;fill-rule:nonzero;stroke:none"
       id="path15803" />
    <path
       inkscape:connector-curvature="0"
       d="m 4823.3987,-11575.04 0,11.754 -1.9501,0 0,-11.754 -2.4762,0 0,-1.809 6.9026,0 0,1.809 -2.4763,0 z"
       style="fill:#000000;fill-opacity:1;fill-rule:nonzero;stroke:none"
       id="path15807" />
    <path
       inkscape:connector-curvature="0"
       d="m 4834.4861,-11563.286 0,-13.563 1.9513,0 0,11.755 4.9513,0 0,1.808 -6.9026,0 z"
       style="fill:#000000;fill-opacity:1;fill-rule:nonzero;stroke:none"
       id="path15811" />
    <path
       inkscape:connector-curvature="0"
       d="m 4843.2899,-11576.847 1.905,0 0,13.561 -1.905,0 0,-13.561 z"
       style="fill:#000000;fill-opacity:1;fill-rule:nonzero;stroke:none"
       id="path15813" />
    <path
       inkscape:connector-curvature="0"
       d="m 4855.1899,-11563.286 0,-7.614 -2.5225,7.614 -2.5213,-7.614 0,7.614 -1.9537,0 0,-13.563 1.9537,0 2.5213,7.614 2.5225,-7.614 1.9513,0 0,13.563 -1.9513,0 z"
       style="fill:#000000;fill-opacity:1;fill-rule:nonzero;stroke:none"
       id="path15817" />
    <path
       inkscape:connector-curvature="0"
       d="m 4860.0924,-11576.847 1.9038,0 0,13.561 -1.9038,0 0,-13.561 z"
       style="fill:#000000;fill-opacity:1;fill-rule:nonzero;stroke:none"
       id="path15819" />
    <path
       inkscape:connector-curvature="0"
       d="m 4868.3737,-11575.04 0,11.754 -1.9537,0 0,-11.754 -2.4725,0 0,-1.809 6.8986,0 0,1.809 -2.4724,0 z"
       style="fill:#000000;fill-opacity:1;fill-rule:nonzero;stroke:none"
       id="path15823" />
    <path
       inkscape:connector-curvature="0"
       d="m 4769.7611,-11543.888 c 0.076,-1.485 0.1914,-2.017 0.5326,-2.969 0.4563,-1.142 1.0275,-2.018 1.75,-2.703 0.2675,-0.229 0.4962,-0.419 1.3725,-1.029 0.7225,-0.495 0.9125,-0.761 0.9125,-1.295 0,-0.838 -0.685,-1.523 -1.5226,-1.523 -0.8374,0 -1.5236,0.685 -1.5236,1.523 l -1.5214,0 c 0.036,-1.714 1.3313,-3.044 3.045,-3.044 1.6751,0 3.0076,1.37 3.0076,3.044 0,0.877 -0.3037,1.561 -0.9125,2.132 -0.1149,0.08 -0.23,0.153 -0.3438,0.268 l -0.38,0.266 -0.38,0.266 -0.42,0.305 c -0.6863,0.495 -1.4087,1.485 -1.7138,2.397 -0.1124,0.267 -0.1512,0.458 -0.2275,0.839 l 4.3776,0 0,1.523 -6.0526,0 z"
       style="fill:#000000;fill-opacity:1;fill-rule:nonzero;stroke:none"
       id="path15827" />
    <path
       inkscape:connector-curvature="0"
       d="m 4785.75,-11553.293 0,9.405 -1.5601,0 0,-9.405 -1.9799,0 0,-1.445 5.52,0 0,1.445 -1.98,0 z"
       style="fill:#000000;fill-opacity:1;fill-rule:nonzero;stroke:none"
       id="path15831" />
    <path
       inkscape:connector-curvature="0"
       d="m 4793.5549,-11552.036 c -0.2663,-0.951 -0.6837,-1.371 -1.3325,-1.371 -0.6838,0 -1.1038,0.42 -1.37,1.333 -0.2662,0.837 -0.3413,1.562 -0.3413,2.78 0,1.18 0.1125,1.866 0.3413,2.741 0.2662,0.914 0.6862,1.333 1.37,1.333 0.6488,0 1.0662,-0.419 1.3325,-1.333 0.2662,-0.875 0.345,-1.524 0.345,-2.78 0,-1.217 -0.115,-1.904 -0.345,-2.702 m 1.2188,6.472 c -0.5325,1.295 -1.3326,1.865 -2.5513,1.865 -1.2937,0 -2.0562,-0.57 -2.5875,-1.865 -0.4575,-1.066 -0.6112,-2.094 -0.6112,-3.77 0,-1.636 0.1537,-2.741 0.6112,-3.769 0.5713,-1.293 1.3325,-1.826 2.5875,-1.826 1.2575,0 2.0188,0.533 2.5513,1.865 0.4562,1.066 0.6099,2.094 0.6099,3.73 0,1.676 -0.1537,2.743 -0.6099,3.77"
       style="fill:#000000;fill-opacity:1;fill-rule:nonzero;stroke:none"
       id="path15835" />
    <path
       inkscape:connector-curvature="0"
       d="m 4802.4636,-11543.888 -3.3487,-7.273 0,7.273 -1.56,0 0,-10.85 1.56,0 2.9688,6.509 0,-6.509 1.5625,0 0,10.85 -1.1825,0 z"
       style="fill:#000000;fill-opacity:1;fill-rule:nonzero;stroke:none"
       id="path15839" />
    <path
       inkscape:connector-curvature="0"
       d="m 4821.92,-11553.216 -1.6001,0 0,3.084 1.6001,0 c 0.9125,0 1.4087,-0.57 1.4087,-1.561 0,-0.915 -0.5713,-1.523 -1.4087,-1.523 m 0.075,4.568 -1.675,0 0,4.759 -1.56,0 0,-10.85 3.235,0 c 1.7137,0 2.8562,1.218 2.8562,3.045 0,1.98 -1.0275,3.046 -2.8562,3.046"
       style="fill:#000000;fill-opacity:1;fill-rule:nonzero;stroke:none"
       id="path15847" />
    <path
       inkscape:connector-curvature="0"
       d="m 4826.3362,-11543.888 0,-10.85 5.1025,0 0,1.522 -3.5425,0 0,2.74 2.2462,0 0,1.487 -2.2462,0 0,3.578 3.96,0 0,1.523 -5.52,0 z"
       style="fill:#000000;fill-opacity:1;fill-rule:nonzero;stroke:none"
       id="path15851" />
    <path
       inkscape:connector-curvature="0"
       d="m 4836.8424,-11553.216 -1.5962,0 0,2.74 1.5962,0 c 0.9162,0 1.4088,-0.494 1.4088,-1.369 0,-0.838 -0.5712,-1.371 -1.4088,-1.371 m 1.3339,9.327 -1.4463,-5.101 -1.4837,0 0,5.101 -1.5625,0 0,-10.85 3.2375,0 c 1.7112,0 2.8537,1.14 2.8537,2.894 0,1.294 -0.5325,2.245 -1.56,2.626 l 1.56,5.33 -1.5987,0 z"
       style="fill:#000000;fill-opacity:1;fill-rule:nonzero;stroke:none"
       id="path15855" />
    <path
       inkscape:connector-curvature="0"
       d="m 4849.5987,-11551.504 -0.7613,3.123 1.5601,0 -0.7988,-3.123 z m 1.9412,7.615 -0.7611,-2.969 -2.3226,0 -0.725,2.969 -1.56,0 2.7025,-10.85 1.5238,0 2.7025,10.85 -1.5601,0 z"
       style="fill:#000000;fill-opacity:1;fill-rule:nonzero;stroke:none"
       id="path15859" />
    <path
       inkscape:connector-curvature="0"
       d="m 4858.4324,-11543.888 -1.5238,-3.692 -1.5236,3.692 -1.6375,0 2.36,-5.635 -2.2063,-5.215 1.6351,0 1.3724,3.272 1.3701,-3.272 1.6375,0 -2.17,5.215 2.3612,5.635 -1.675,0 z"
       style="fill:#000000;fill-opacity:1;fill-rule:nonzero;stroke:none"
       id="path15863" />
    <path
       inkscape:connector-curvature="0"
       d="m 4861.5913,-11543.888 0,-10.85 1.5599,0 0,9.404 3.96,0 0,1.446 -5.5199,0 z"
       style="fill:#000000;fill-opacity:1;fill-rule:nonzero;stroke:none"
       id="path15867" />
    <path
       inkscape:connector-curvature="0"
       d="m 4868.6349,-11543.888 0,-10.85 5.1025,0 0,1.522 -3.5425,0 0,2.74 2.2462,0 0,1.487 -2.2462,0 0,3.578 3.96,0 0,1.523 -5.52,0 z"
       style="fill:#000000;fill-opacity:1;fill-rule:nonzero;stroke:none"
       id="path15871" />
    <path
       inkscape:connector-curvature="0"
       d="m 4776.9387,-11524.394 0,-8.908 -0.685,0 0,-1.182 c 0.6101,-0.04 0.9899,-0.304 1.2174,-0.761 l 1.0276,0 0,10.851 -1.56,0 z"
       style="fill:#000000;fill-opacity:1;fill-rule:nonzero;stroke:none"
       id="path15875" />
    <path
       inkscape:connector-curvature="0"
       d="m 4785.2374,-11532.541 c -0.2663,-0.952 -0.6837,-1.371 -1.3312,-1.371 -0.6851,0 -1.1049,0.418 -1.3713,1.334 -0.2662,0.838 -0.3424,1.559 -0.3424,2.779 0,1.18 0.1136,1.866 0.3424,2.741 0.2664,0.913 0.6862,1.333 1.3713,1.333 0.6475,0 1.0649,-0.42 1.3312,-1.333 0.2675,-0.875 0.3438,-1.523 0.3438,-2.78 0,-1.219 -0.1138,-1.902 -0.3438,-2.703 m 1.2188,6.473 c -0.5326,1.294 -1.3326,1.865 -2.55,1.865 -1.2963,0 -2.0575,-0.571 -2.5901,-1.865 -0.4562,-1.067 -0.6087,-2.095 -0.6087,-3.77 0,-1.637 0.1525,-2.74 0.6087,-3.771 0.5713,-1.294 1.3338,-1.825 2.5901,-1.825 1.255,0 2.0174,0.531 2.55,1.865 0.4587,1.065 0.6099,2.094 0.6099,3.731 0,1.674 -0.1512,2.742 -0.6099,3.77"
       style="fill:#000000;fill-opacity:1;fill-rule:nonzero;stroke:none"
       id="path15879" />
    <path
       inkscape:connector-curvature="0"
       d="m 4797.3449,-11533.799 0,9.405 -1.56,0 0,-9.405 -1.98,0 0,-1.446 5.52,0 0,1.446 -1.9799,0 z"
       style="fill:#000000;fill-opacity:1;fill-rule:nonzero;stroke:none"
       id="path15883" />
    <path
       inkscape:connector-curvature="0"
       d="m 4805.1499,-11532.541 c -0.2663,-0.952 -0.6836,-1.371 -1.3338,-1.371 -0.6837,0 -1.1025,0.418 -1.3687,1.334 -0.2663,0.838 -0.3425,1.559 -0.3425,2.779 0,1.18 0.1125,1.866 0.3425,2.741 0.2662,0.913 0.685,1.333 1.3687,1.333 0.6501,0 1.0675,-0.42 1.3338,-1.333 0.2663,-0.875 0.3437,-1.523 0.3437,-2.78 0,-1.219 -0.1149,-1.902 -0.3437,-2.703 m 1.2175,6.473 c -0.5312,1.294 -1.3325,1.865 -2.5513,1.865 -1.2937,0 -2.055,-0.571 -2.5874,-1.865 -0.4563,-1.067 -0.6101,-2.095 -0.6101,-3.77 0,-1.637 0.1538,-2.74 0.6101,-3.771 0.5712,-1.294 1.3324,-1.825 2.5874,-1.825 1.2575,0 2.0201,0.531 2.5513,1.865 0.4575,1.065 0.6113,2.094 0.6113,3.731 0,1.674 -0.1538,2.742 -0.6113,3.77"
       style="fill:#000000;fill-opacity:1;fill-rule:nonzero;stroke:none"
       id="path15887" />
    <path
       inkscape:connector-curvature="0"
       d="m 4814.0587,-11524.394 -3.35,-7.272 0,7.272 -1.56,0 0,-10.851 1.56,0 2.9687,6.511 0,-6.511 1.5625,0 0,10.851 -1.1812,0 z"
       style="fill:#000000;fill-opacity:1;fill-rule:nonzero;stroke:none"
       id="path15891" />
    <path
       inkscape:connector-curvature="0"
       d="m 4820.1124,-11524.203 c -1.9038,0 -3.0463,-1.598 -3.0463,-3.389 l 1.5238,0 c 0,0.913 0.4563,1.866 1.5225,1.866 0.8375,0 1.5237,-0.761 1.5237,-1.636 0,-0.612 -0.2287,-1.068 -0.8762,-1.562 -0.23,-0.229 0.3812,0.19 -1.8288,-1.296 -0.8737,-0.609 -1.33,-1.446 -1.33,-2.397 0,-1.563 1.2176,-2.818 2.7775,-2.818 1.5238,0 2.7026,1.18 2.7426,2.818 l -1.4851,0 c -0.039,-0.763 -0.5712,-1.257 -1.2575,-1.257 -0.7224,0 -1.2937,0.532 -1.2937,1.257 0,0.532 0.2275,0.837 1.0275,1.295 2.095,1.217 3.0088,2.398 3.0088,3.96 0,1.75 -1.3338,3.158 -3.0088,3.158"
       style="fill:#000000;fill-opacity:1;fill-rule:nonzero;stroke:none"
       id="path15895" />
    <path
       inkscape:connector-curvature="0"
       d="m 4835.9124,-11525.726 c -0.42,0.951 -1.2938,1.523 -2.4,1.523 -1.2924,0 -2.245,-0.648 -2.7775,-1.865 -0.3437,-0.8 -0.5712,-2.322 -0.5712,-3.731 0,-1.523 0.1125,-2.627 0.4962,-3.655 0.3788,-1.145 1.4838,-1.98 2.74,-1.98 1.5601,0 2.7425,1.143 2.8175,2.741 l -1.5625,0 c -0.036,-0.723 -0.5325,-1.219 -1.2938,-1.219 -0.5325,0 -0.9525,0.267 -1.2174,0.8 -0.3051,0.533 -0.495,1.75 -0.495,3.045 0,0.914 0.075,1.866 0.2299,2.705 0.2263,1.065 0.7601,1.636 1.5975,1.636 0.7988,0 1.1788,-0.534 1.1788,-1.677 l 0,-0.722 -1.2175,0 0,-1.523 2.78,0 0,2.246 c 0,0.763 -0.075,1.219 -0.305,1.676"
       style="fill:#000000;fill-opacity:1;fill-rule:nonzero;stroke:none"
       id="path15899" />
    <path
       inkscape:connector-curvature="0"
       d="m 4841.5474,-11533.72 -1.5988,0 0,2.74 1.5988,0 c 0.9126,0 1.4088,-0.495 1.4088,-1.371 0,-0.838 -0.5712,-1.37 -1.4088,-1.37 m 1.3326,9.327 -1.4476,-5.102 -1.4838,0 0,5.102 -1.5599,0 0,-10.851 3.2337,0 c 1.715,0 2.8575,1.143 2.8575,2.894 0,1.294 -0.535,2.246 -1.5625,2.627 l 1.5625,5.33 -1.6,0 z"
       style="fill:#000000;fill-opacity:1;fill-rule:nonzero;stroke:none"
       id="path15903" />
    <path
       inkscape:connector-curvature="0"
       d="m 4850.6461,-11532.541 c -0.2662,-0.952 -0.6862,-1.371 -1.3324,-1.371 -0.6863,0 -1.1038,0.418 -1.37,1.334 -0.2663,0.838 -0.3438,1.559 -0.3438,2.779 0,1.18 0.1137,1.866 0.3438,2.741 0.2662,0.913 0.6837,1.333 1.37,1.333 0.6462,0 1.0662,-0.42 1.3324,-1.333 0.2663,-0.875 0.3426,-1.523 0.3426,-2.78 0,-1.219 -0.1125,-1.902 -0.3426,-2.703 m 1.2188,6.473 c -0.5325,1.294 -1.3337,1.865 -2.5512,1.865 -1.2938,0 -2.0563,-0.571 -2.5888,-1.865 -0.4562,-1.067 -0.61,-2.095 -0.61,-3.77 0,-1.637 0.1538,-2.74 0.61,-3.771 0.5725,-1.294 1.3338,-1.825 2.5888,-1.825 1.2574,0 2.0187,0.531 2.5512,1.865 0.4562,1.065 0.61,2.094 0.61,3.731 0,1.674 -0.1538,2.742 -0.61,3.77"
       style="fill:#000000;fill-opacity:1;fill-rule:nonzero;stroke:none"
       id="path15907" />
    <path
       inkscape:connector-curvature="0"
       d="m 4857.1574,-11524.203 c -1.9038,0 -3.0463,-1.598 -3.0463,-3.389 l 1.5225,0 c 0,0.913 0.4576,1.866 1.5238,1.866 0.8375,0 1.5237,-0.761 1.5237,-1.636 0,-0.612 -0.2299,-1.068 -0.8762,-1.562 -0.23,-0.229 0.38,0.19 -1.8288,-1.296 -0.8737,-0.609 -1.3312,-1.446 -1.3312,-2.397 0,-1.563 1.2162,-2.818 2.7787,-2.818 1.5238,0 2.7026,1.18 2.7413,2.818 l -1.4838,0 c -0.039,-0.763 -0.5712,-1.257 -1.2575,-1.257 -0.7224,0 -1.2937,0.532 -1.2937,1.257 0,0.532 0.2275,0.837 1.0275,1.295 2.0925,1.217 3.0075,2.398 3.0075,3.96 0,1.75 -1.3325,3.158 -3.0075,3.158"
       style="fill:#000000;fill-opacity:1;fill-rule:nonzero;stroke:none"
       id="path15911" />
    <path
       inkscape:connector-curvature="0"
       d="m 4864.5063,-11524.203 c -1.9039,0 -3.0463,-1.598 -3.0463,-3.389 l 1.5225,0 c 0,0.913 0.4575,1.866 1.5238,1.866 0.8374,0 1.5212,-0.761 1.5212,-1.636 0,-0.612 -0.2275,-1.068 -0.8737,-1.562 -0.2301,-0.229 0.3798,0.19 -1.8289,-1.296 -0.8763,-0.609 -1.3337,-1.446 -1.3337,-2.397 0,-1.563 1.2188,-2.818 2.7813,-2.818 1.5212,0 2.7025,1.18 2.7412,2.818 l -1.4862,0 c -0.036,-0.763 -0.5713,-1.257 -1.255,-1.257 -0.7251,0 -1.2938,0.532 -1.2938,1.257 0,0.532 0.2262,0.837 1.0276,1.295 2.0924,1.217 3.0074,2.398 3.0074,3.96 0,1.75 -1.3326,3.158 -3.0074,3.158"
       style="fill:#000000;fill-opacity:1;fill-rule:nonzero;stroke:none"
       id="path15915" />
  </g>
</svg>
