<?xml version="1.0" encoding="UTF-8" standalone="no"?>
<!-- Created with Inkscape (http://www.inkscape.org/) -->

<svg
   xmlns:dc="http://purl.org/dc/elements/1.1/"
   xmlns:cc="http://creativecommons.org/ns#"
   xmlns:rdf="http://www.w3.org/1999/02/22-rdf-syntax-ns#"
   xmlns:svg="http://www.w3.org/2000/svg"
   xmlns="http://www.w3.org/2000/svg"
   xmlns:sodipodi="http://sodipodi.sourceforge.net/DTD/sodipodi-0.dtd"
   xmlns:inkscape="http://www.inkscape.org/namespaces/inkscape"
   width="81.90625"
   height="102.21875"
   id="svg2"
   sodipodi:version="0.32"
   inkscape:version="0.48.2 r9819"
   version="1.0"
   sodipodi:docname="MUTCD R11-1.svg"
   inkscape:output_extension="org.inkscape.output.svg.inkscape">
  <defs
     id="defs4">
    <inkscape:perspective
       sodipodi:type="inkscape:persp3d"
       inkscape:vp_x="0 : 300.5 : 1"
       inkscape:vp_y="0 : 1000 : 0"
       inkscape:vp_z="601 : 300.5 : 1"
       inkscape:persp3d-origin="300.5 : 200.33333 : 1"
       id="perspective3380" />
    <inkscape:perspective
       id="perspective3990"
       inkscape:persp3d-origin="375 : 250 : 1"
       inkscape:vp_z="750 : 375 : 1"
       inkscape:vp_y="0 : 1000 : 0"
       inkscape:vp_x="0 : 375 : 1"
       sodipodi:type="inkscape:persp3d" />
  </defs>
  <sodipodi:namedview
     id="base"
     pagecolor="#ffffff"
     bordercolor="#666666"
     borderopacity="1.0"
     gridtolerance="10000"
     guidetolerance="10"
     objecttolerance="10"
     inkscape:pageopacity="0.0"
     inkscape:pageshadow="2"
     inkscape:zoom="2.5733334"
     inkscape:cx="16.490343"
     inkscape:cy="51.529636"
     inkscape:document-units="px"
     inkscape:current-layer="layer1"
     width="601px"
     height="601px"
     inkscape:window-width="1280"
     inkscape:window-height="1004"
     inkscape:window-x="-8"
     inkscape:window-y="-8"
     showgrid="false"
     fit-margin-top="0"
     fit-margin-left="0"
     fit-margin-right="0"
     fit-margin-bottom="0"
     inkscape:window-maximized="1" />
  <metadata
     id="metadata7">
    <rdf:RDF>
      <cc:Work
         rdf:about="">
        <dc:format>image/svg+xml</dc:format>
        <dc:type
           rdf:resource="http://purl.org/dc/dcmitype/StillImage" />
        <dc:title></dc:title>
      </cc:Work>
    </rdf:RDF>
  </metadata>
  <g
     inkscape:label="Layer 1"
     inkscape:groupmode="layer"
     id="layer1"
     transform="translate(-3880.5625,10091.719)">
    <rect
       style="color:#000000;fill:#000000;fill-opacity:1;fill-rule:nonzero;stroke:none;stroke-width:0.8735441;marker:none;visibility:visible;display:inline;overflow:visible"
       id="rect3653"
       width="0"
       height="27.202072"
       x="578.73834"
       y="298.1684"
       rx="249.48199"
       ry="27.202072" />
    <path
       inkscape:connector-curvature="0"
       d="m 3885.9826,-10091.378 71.0712,0 c 2.7975,0 5.0775,2.28 5.0775,5.076 l 0,91.379 c 0,2.7962 -2.2801,5.0762 -5.0775,5.0762 l -71.0712,0 c -2.7963,0 -5.0763,-2.28 -5.0763,-5.0762 l 0,-91.379 c 0,-2.761 2.3162,-5.076 5.0763,-5.076"
       style="fill:#ffffff;fill-opacity:1;fill-rule:nonzero;stroke:#000000;stroke-width:0.69999999;stroke-miterlimit:4;stroke-opacity:1;stroke-dasharray:none"
       id="path15549" />
    <path
       inkscape:connector-curvature="0"
       style="fill:#000000;fill-opacity:1;fill-rule:evenodd;stroke:none"
       d="m 3886,-10089.969 c -2.015,0 -3.6838,1.674 -3.6875,3.688 l 0,91.3434 c 0,2.0188 1.6725,3.6775 3.6875,3.6875 l 71.0313,0 c 2.0124,-0.01 3.685,-1.6687 3.6875,-3.6875 l 0,-91.3434 c 0,-2.013 -1.6738,-3.685 -3.6875,-3.688 l -71.0313,0 z m 0.031,1.969 70.9687,0 c 0.9563,-0.01 1.7638,0.795 1.75,1.75 l 0,91.2812 c 0.014,0.955 -0.795,1.765 -1.75,1.75 l -70.9687,0 c -0.9563,0.015 -1.7638,-0.7925 -1.75,-1.75 l 0,-91.2812 c -0.014,-0.955 0.7937,-1.764 1.75,-1.75 z"
       id="path15573" />
    <path
       inkscape:connector-curvature="0"
       d="m 3953.5424,-10082.189 0,-1.896 -8.355,0 0,1.896 3.0862,0 0,11.633 2.1363,0 0,-11.633 3.1325,0 z m -10.5563,11.633 0,-13.529 -2.1362,0 0,5.458 -4.9363,0 0,-5.458 -2.1375,0 0,13.529 2.1375,0 0,-5.887 4.9363,0 0,5.887 2.1362,0 z m -12.3612,-4.036 0,-2.706 -4.6038,0 0,2.135 2.4688,0 0,0.571 c 0,1.236 -0.9975,2.089 -2.3738,2.089 -0.8075,0 -1.425,-0.33 -1.8512,-1.091 -0.4275,-0.855 -0.6638,-2.279 -0.6638,-3.704 0,-1.139 0.1888,-2.373 0.5225,-3.18 0.4738,-1.187 1.185,-1.663 2.2775,-1.663 1.0438,0 1.6138,0.429 2.1838,1.614 l 2.04,-0.805 c -0.9013,-2.136 -2.135,-2.991 -4.2238,-2.991 -1.52,0 -2.6587,0.523 -3.465,1.519 -0.9025,1.187 -1.52,3.322 -1.52,5.506 0,1.662 0.3325,3.325 0.9025,4.511 0.8063,1.709 1.9938,2.475 4.0338,2.475 2.47,0 4.2725,-1.811 4.2725,-4.28 m -12.3125,-9.493 -2.1838,0 0,13.529 2.1838,0 0,-13.529 z m -4.6225,13.529 0,-2.182 -6.265,0 0,-3.705 3.94,0 0,-2.184 -3.94,0 0,-3.322 5.8375,0 0,-2.136 -7.9738,0 0,13.529 8.4013,0 z m -10.6025,-13.529 -2.1838,0 -1.0437,7.118 -1.7575,-7.118 -2.0888,0 -1.7087,7.118 -1.045,-7.118 -2.1838,0 1.995,13.529 1.8988,0 2.0887,-8.688 2.135,8.688 1.9,0 1.9938,-13.529 z"
       style="fill:#000000;fill-opacity:1;fill-rule:evenodd;stroke:none"
       id="path15581" />
    <path
       inkscape:connector-curvature="0"
       d="m 3942.8361,-10061.882 0,-1.897 -8.3537,0 0,1.897 3.085,0 0,11.631 2.1362,0 0,-11.631 3.1325,0 z m -10.495,-1.897 -2.185,0 0,13.528 2.185,0 0,-13.528 z m -5.56,13.528 0,-13.528 -2.1362,0 -3.1338,7.596 -3.1337,-7.596 -2.1363,0 0,13.528 2.1363,0 0,-7.832 3.1337,7.832 3.1338,-7.832 0,7.832 2.1362,0 z m -13.8675,-13.528 -2.1825,0 0,13.528 2.1825,0 0,-13.528 z m -4.325,13.528 0,-1.995 -6.265,0 0,-11.533 -2.1375,0 0,13.528 8.4025,0 z"
       style="fill:#000000;fill-opacity:1;fill-rule:evenodd;stroke:none"
       id="path15585" />
    <path
       inkscape:connector-curvature="0"
       d="m 3931.408,-10032.858 c 0,3.735 -1.6462,6.205 -4.305,6.205 -2.7225,0 -4.3687,-2.216 -4.3687,-6.205 0,-2.656 1.1399,-6.01 4.3687,-6.01 2.7225,0 4.305,2.277 4.305,6.075 l 0,-0.07 z m 3.2275,0 c 0,-4.556 -2.1512,-9.239 -7.5325,-9.239 -5.3162,0 -7.5975,4.556 -7.5975,9.304 0,4.749 2.2175,9.379 7.5975,9.379 5.4438,0 7.5325,-4.823 7.5325,-9.444 m -19.75,9.116 0,-18.04 -2.5938,0 c -0.6974,1.141 -1.4575,1.646 -2.8499,1.963 l 0.062,2.595 2.28,0 -0.064,13.482 3.165,0 z"
       style="fill:#000000;fill-opacity:1;fill-rule:evenodd;stroke:none"
       id="path15589" />
    <path
       inkscape:connector-curvature="0"
       d="m 3951.2492,-10002.421 c 0,-7.09 -8.4837,-4.875 -8.7362,-8.23 -0.1275,-1.646 1.455,-2.151 2.785,-2.087 2.025,0.06 2.6587,1.582 2.6587,1.582 l 2.5326,-0.759 c -0.8863,-2.214 -2.5963,-3.672 -5.1275,-3.672 -3.2288,0 -5.6351,1.33 -5.6351,4.873 0,2.976 2.4063,4.053 3.4813,4.495 2.3425,0.95 5.1275,1.328 5.1275,3.735 0,1.518 -1.1387,2.6584 -2.785,2.6584 -1.71,0 -3.1012,-0.9484 -3.8612,-2.6584 l -2.7225,1.013 c 1.2037,2.7229 3.4825,4.5679 6.5837,4.5679 1.52,0 2.9125,-0.5175 3.925,-1.4037 1.1388,-1.0125 1.7737,-2.4672 1.7737,-4.1142 m -15.9262,5.1917 0,-18.0417 -2.8487,0 0,11.52 -6.5838,-11.52 -2.8475,0 0,18.0417 2.8475,0 0,-12.2177 6.9,12.2177 2.5325,0 z m -19.7225,-8.9897 c 0,1.393 -0.3175,3.163 -0.6962,4.113 -0.6338,1.585 -1.4563,2.2804 -2.785,2.2804 -1.1401,0 -1.8988,-0.4434 -2.47,-1.3914 -0.6963,-1.14 -1.075,-3.102 -1.075,-5.002 0,-1.519 0.2525,-3.164 0.6962,-4.24 0.6325,-1.583 1.5188,-2.279 2.9113,-2.215 1.0762,0.06 1.7737,0.443 2.3425,1.391 0.6962,1.204 1.0762,3.04 1.0762,5.064 m 2.8475,0 c 0,-2.278 -0.4425,-4.555 -1.2012,-6.139 -1.14,-2.216 -2.7225,-3.229 -5.0025,-3.229 -2.0875,0 -3.5438,0.633 -4.6201,2.026 -1.2024,1.708 -1.9624,4.368 -1.9624,7.342 0,2.153 0.5062,4.558 1.2662,6.077 1.075,2.2139 2.6575,3.2389 5.1913,3.2389 1.8987,0 3.355,-0.6437 4.3675,-2.0362 1.265,-1.5817 1.9612,-4.4287 1.9612,-7.2797 m -15.7337,-6.519 0,-2.533 -11.1413,0 0,2.533 4.115,0 0,15.5087 2.8475,0 0,-15.5087 4.1788,0 z"
       style="fill:#000000;fill-opacity:1;fill-rule:evenodd;stroke:none"
       id="path15593" />
  </g>
</svg>
