<?xml version="1.0" encoding="UTF-8" standalone="no"?>
<svg
   xmlns:dc="http://purl.org/dc/elements/1.1/"
   xmlns:cc="http://creativecommons.org/ns#"
   xmlns:rdf="http://www.w3.org/1999/02/22-rdf-syntax-ns#"
   xmlns:svg="http://www.w3.org/2000/svg"
   xmlns="http://www.w3.org/2000/svg"
   xmlns:sodipodi="http://sodipodi.sourceforge.net/DTD/sodipodi-0.dtd"
   xmlns:inkscape="http://www.inkscape.org/namespaces/inkscape"
   width="533.01715"
   height="398.01718"
   viewBox="0 0 426.41372 318.41375"
   version="1.1"
   id="svg2"
   inkscape:version="0.48.4 r9939"
   sodipodi:docname="AJAX1.svg">
  <metadata
     id="metadata31">
    <rdf:RDF>
      <cc:Work
         rdf:about="">
        <dc:format>image/svg+xml</dc:format>
        <dc:type
           rdf:resource="http://purl.org/dc/dcmitype/StillImage" />
      </cc:Work>
    </rdf:RDF>
  </metadata>
  <defs
     id="defs29" />
  <sodipodi:namedview
     pagecolor="#ffffff"
     bordercolor="#666666"
     borderopacity="1"
     objecttolerance="10"
     gridtolerance="10"
     guidetolerance="10"
     inkscape:pageopacity="0"
     inkscape:pageshadow="2"
     inkscape:window-width="1280"
     inkscape:window-height="1004"
     id="namedview27"
     showgrid="false"
     fit-margin-top="0.2"
     fit-margin-left="0.2"
     fit-margin-right="0.2"
     fit-margin-bottom="0.2"
     inkscape:zoom="0.99532977"
     inkscape:cx="182.97334"
     inkscape:cy="183.14166"
     inkscape:window-x="-8"
     inkscape:window-y="-8"
     inkscape:window-maximized="1"
     inkscape:current-layer="svg2" />
  <path
     inkscape:connector-curvature="0"
     d="m 411.21483,0.949277 -396.000243,0 c -7.85699,0 -14.24997648,6.392 -14.24997648,14.25 l 0,288.000003 c 0,7.858 6.39298648,14.25 14.24997648,14.25 l 396.000243,0 c 7.857,0 14.25,-6.392 14.25,-14.25 l 0,-288.000003 c 0,-7.858 -6.393,-14.25 -14.25,-14.25"
     style="fill:#ffffff;fill-opacity:1;fill-rule:nonzero;stroke:#000000;stroke-width:1.60000002;stroke-miterlimit:4;stroke-opacity:1;stroke-dasharray:none"
     id="path3057"
     sodipodi:nodetypes="csssssssc" />
  <path
     id="path5473"
     style="fill:#000000;fill-opacity:1;fill-rule:nonzero;stroke:none"
     d="m 420.21483,303.19928 c 0,4.963 -4.037,9 -9,9 l -396.000243,0 c -4.962,0 -8.999976,-4.037 -8.999976,-9 l 0,-288.000003 c 0,-4.963 4.037976,-9 8.999976,-9 l 396.000243,0 c 4.963,0 9,4.037 9,9 z"
     inkscape:connector-curvature="0"
     sodipodi:nodetypes="sssssssss" />
  <path
     id="path5475"
     style="fill:#ffffff;fill-opacity:1;fill-rule:nonzero;stroke:none"
     d="m 89.555588,180.19928 0,-20.842 -8.353,20.842 -8.354,-20.842 0,20.842 -5.695,0 0,-36 5.695,0 8.354,20.211 8.353,-20.211 5.696,0 0,36 -5.696,0 z"
     inkscape:connector-curvature="0" />
  <path
     id="path5477"
     style="fill:#ffffff;fill-opacity:1;fill-rule:nonzero;stroke:none"
     d="m 126.75683,174.76728 c -1.895,3.537 -6.19,6.064 -10.611,6.064 -4.422,0 -8.717,-2.527 -10.612,-6.064 -1.01,-2.146 -1.642,-4.673 -1.642,-7.452 l 0,-23.116 5.684,0 0,23.116 c 0,4.674 2.654,7.705 6.57,7.705 3.916,0 6.569,-3.031 6.569,-7.705 l 0,-23.116 5.685,0 0,23.116 c 0,2.779 -0.632,5.306 -1.643,7.452"
     inkscape:connector-curvature="0" />
  <path
     id="path5479"
     style="fill:#ffffff;fill-opacity:1;fill-rule:nonzero;stroke:none"
     d="m 175.86183,149.25228 0,30.947 -5.709,0 0,-30.947 -8.248,0 0,-5.053 22.33,0 0,5.053 -8.373,0 z"
     inkscape:connector-curvature="0" />
  <path
     id="path5481"
     style="fill:#ffffff;fill-opacity:1;fill-rule:nonzero;stroke:none"
     d="m 155.48883,178.05128 c -2.021,1.769 -4.8,2.78 -7.832,2.78 -6.19,0 -10.737,-3.663 -13.138,-9.095 l 5.432,-2.022 c 1.516,3.412 4.295,5.306 7.706,5.306 3.285,0 5.558,-2.273 5.558,-5.306 0,-4.799 -5.558,-5.557 -10.232,-7.452 -2.148,-0.883 -6.948,-3.031 -6.948,-8.968 0,-7.074 4.8,-9.726 11.244,-9.726 5.052,0 8.462,2.904 10.231,7.326 l -5.053,1.516 c 0,0 -1.263,-3.031 -5.305,-3.158 -2.653,-0.126 -5.811,0.885 -5.559,4.169 0.506,6.694 17.434,2.273 17.434,16.421 0,3.284 -1.264,6.189 -3.538,8.209"
     inkscape:connector-curvature="0" />
  <path
     id="path5483"
     style="fill:#ffffff;fill-opacity:1;fill-rule:nonzero;stroke:none"
     d="m 268.13883,180.19928 -13.77,-24.379 0,24.379 -5.685,0 0,-36 5.685,0 13.137,22.99 0,-22.99 5.685,0 0,36 -5.052,0 z"
     inkscape:connector-curvature="0" />
  <path
     id="path5485"
     style="fill:#ffffff;fill-opacity:1;fill-rule:nonzero;stroke:none"
     d="m 292.54683,149.25228 0,30.947 -5.709,0 0,-30.947 -8.246,0 0,-5.053 22.328,0 0,5.053 -8.373,0 z"
     inkscape:connector-curvature="0" />
  <path
     id="path5487"
     style="fill:#ffffff;fill-opacity:1;fill-rule:nonzero;stroke:none"
     d="m 350.55983,150.51528 c -0.885,-0.506 -1.39,-0.632 -3.284,-0.632 l -6.823,0 0,8.842 6.823,0 c 1.769,0 2.399,-0.126 3.284,-0.631 1.389,-0.758 2.273,-2.274 2.273,-3.79 0,-1.515 -0.884,-3.03 -2.273,-3.789 m 2.526,29.684 -5.81,-15.663 -6.823,0 0,15.663 -5.684,0 0,-36 11.875,0 c 2.779,0 4.675,0.253 6.442,1.137 3.158,1.515 5.432,5.305 5.432,8.968 0,3.79 -2.274,7.579 -5.558,9.095 l 6.317,16.8 -6.191,0 z"
     inkscape:connector-curvature="0" />
  <path
     id="path5489"
     style="fill:#ffffff;fill-opacity:1;fill-rule:nonzero;stroke:none"
     d="m 220.23483,180.19928 0,-36 21.194,0 0,5.684 -15.518,0 0,8.842 10.472,0 0,5.811 -10.472,0 0,9.853 16.653,0 0,5.81 -22.329,0 z"
     inkscape:connector-curvature="0" />
  <path
     id="path5491"
     style="fill:#ffffff;fill-opacity:1;fill-rule:nonzero;stroke:none"
     d="m 306.31983,180.19928 0,-36 21.194,0 0,5.684 -15.517,0 0,8.842 10.471,0 0,5.811 -10.471,0 0,9.853 16.653,0 0,5.81 -22.33,0 z"
     inkscape:connector-curvature="0" />
  <path
     id="path5493"
     style="fill:#ffffff;fill-opacity:1;fill-rule:nonzero;stroke:none"
     d="m 350.60083,120.19928 -13.77,-24.379 0,24.379 -5.684,0 0,-36 5.684,0 13.138,22.99 0,-22.99 5.685,0 0,36 -5.053,0 z"
     inkscape:connector-curvature="0" />
  <path
     id="path5495"
     style="fill:#ffffff;fill-opacity:1;fill-rule:nonzero;stroke:none"
     d="m 315.37683,92.15728 c -1.14,-1.895 -2.534,-2.652 -4.686,-2.779 -2.787,-0.126 -4.559,1.263 -5.825,4.421 -0.887,2.147 -1.393,5.432 -1.393,8.463 0,3.789 0.76,7.705 2.152,9.979 1.141,1.894 2.659,2.779 4.939,2.779 2.659,0 4.305,-1.389 5.572,-4.547 0.76,-1.895 1.393,-5.432 1.393,-8.211 0,-4.042 -0.76,-7.705 -2.152,-10.105 m 3.924,24.631 c -2.025,2.779 -4.939,4.043 -8.737,4.043 -5.065,0 -8.23,-2.022 -10.383,-6.442 -1.52,-3.032 -2.532,-7.832 -2.532,-12.127 0,-5.937 1.519,-11.242 3.924,-14.652 2.154,-2.779 5.066,-4.043 9.246,-4.043 4.558,0 7.722,2.022 10.001,6.442 1.52,3.158 2.407,7.705 2.407,12.253 0,5.684 -1.393,11.369 -3.926,14.526"
     inkscape:connector-curvature="0" />
  <path
     id="path5497"
     style="fill:#ffffff;fill-opacity:1;fill-rule:nonzero;stroke:none"
     d="m 284.59483,89.25228 0,30.947 -5.709,0 0,-30.947 -8.247,0 0,-5.053 22.329,0 0,5.053 -8.373,0 z"
     inkscape:connector-curvature="0" />
  <path
     id="path5499"
     style="fill:#ffffff;fill-opacity:1;fill-rule:nonzero;stroke:none"
     d="m 382.74283,118.05128 c -2.021,1.769 -4.799,2.78 -7.832,2.78 -6.189,0 -10.737,-3.663 -13.137,-9.095 l 5.431,-2.021 c 1.517,3.411 4.295,5.305 7.706,5.305 3.284,0 5.559,-2.274 5.559,-5.305 0,-4.8 -5.559,-5.558 -10.233,-7.453 -2.147,-0.884 -6.948,-3.031 -6.948,-8.968 0,-7.074 4.801,-9.727 11.244,-9.727 5.052,0 8.463,2.906 10.232,7.327 l -5.052,1.515 c 0,0 -1.265,-3.031 -5.307,-3.157 -2.653,-0.126 -5.811,0.883 -5.558,4.169 0.506,6.694 17.431,2.273 17.431,16.419 0,3.286 -1.261,6.19 -3.536,8.211"
     inkscape:connector-curvature="0" />
  <path
     id="path5501"
     style="fill:#ffffff;fill-opacity:1;fill-rule:nonzero;stroke:none"
     d="m 57.876588,92.15728 c -1.14,-1.895 -2.532,-2.652 -4.685,-2.779 -2.786,-0.126 -4.559,1.263 -5.826,4.421 -0.885,2.147 -1.392,5.432 -1.392,8.463 0,3.789 0.76,7.705 2.153,9.979 1.139,1.894 2.659,2.779 4.939,2.779 2.658,0 4.304,-1.389 5.57,-4.547 0.76,-1.895 1.393,-5.432 1.393,-8.211 0,-4.042 -0.759,-7.705 -2.152,-10.105 m 3.925,24.631 c -2.026,2.779 -4.939,4.043 -8.736,4.043 -5.066,0 -8.232,-2.022 -10.384,-6.442 -1.52,-3.032 -2.532,-7.832 -2.532,-12.127 0,-5.937 1.519,-11.242 3.925,-14.652 2.153,-2.779 5.065,-4.043 9.243,-4.043 4.559,0 7.724,2.022 10.003,6.442 1.52,3.158 2.407,7.705 2.407,12.253 0,5.684 -1.393,11.369 -3.926,14.526"
     inkscape:connector-curvature="0" />
  <path
     id="path5503"
     style="fill:#ffffff;fill-opacity:1;fill-rule:nonzero;stroke:none"
     d="m 147.42483,90.51528 c -0.884,-0.506 -1.39,-0.632 -3.285,-0.632 l -6.821,0 0,8.842 6.821,0 c 1.769,0 2.401,-0.126 3.285,-0.631 1.39,-0.758 2.274,-2.274 2.274,-3.79 0,-1.516 -0.884,-3.032 -2.274,-3.789 m 2.526,29.684 -5.811,-15.663 -6.821,0 0,15.663 -5.685,0 0,-36 11.874,0 c 2.78,0 4.675,0.252 6.443,1.137 3.159,1.516 5.432,5.305 5.432,8.968 0,3.79 -2.273,7.579 -5.558,9.095 l 6.316,16.8 -6.19,0 z"
     inkscape:connector-curvature="0" />
  <path
     id="path5505"
     style="fill:#ffffff;fill-opacity:1;fill-rule:nonzero;stroke:none"
     d="m 86.250588,120.19928 -4.436,0 -11.408,-36 5.957,0 7.733,24 7.604,-24 6.084142,0 -11.534142,36 z"
     inkscape:connector-curvature="0" />
  <path
     id="path5507"
     style="fill:#ffffff;fill-opacity:1;fill-rule:nonzero;stroke:none"
     d="m 103.18483,120.19928 0,-36 21.194,0 0,5.684 -15.517,0 0,8.842 10.471,0 0,5.811 -10.471,0 0,9.853 16.652,0 0,5.81 -22.329,0 z"
     inkscape:connector-curvature="0" />
  <path
     id="path5509"
     style="fill:#ffffff;fill-opacity:1;fill-rule:nonzero;stroke:none"
     d="m 195.39183,120.19928 0,-29.179 -3.25,0 0,-4.548 0.375,0 c 1.5,0 3.125,-0.883 4.125,-2.273 l 4.5,0 0,36 -5.75,0 z"
     inkscape:connector-curvature="0" />
  <path
     id="path5511"
     style="fill:#ffffff;fill-opacity:1;fill-rule:nonzero;stroke:none"
     d="m 226.78683,92.15728 c -1.138,-1.895 -2.531,-2.652 -4.683,-2.779 -2.785,-0.126 -4.559,1.263 -5.825,4.421 -0.886,2.147 -1.393,5.432 -1.393,8.463 0,3.789 0.76,7.705 2.151,9.979 1.141,1.894 2.66,2.779 4.94,2.779 2.659,0 4.305,-1.389 5.571,-4.547 0.76,-1.895 1.394,-5.432 1.394,-8.211 0,-4.042 -0.76,-7.705 -2.155,-10.105 m 3.926,24.632 c -2.025,2.778 -4.937,4.042 -8.736,4.042 -5.065,0 -8.231,-2.021 -10.383,-6.442 -1.52,-3.032 -2.532,-7.832 -2.532,-12.127 0,-5.937 1.519,-11.242 3.925,-14.652 2.152,-2.779 5.066,-4.043 9.244,-4.043 4.556,0 7.723,2.022 10.003,6.442 1.519,3.159 2.405,7.706 2.405,12.253 0,5.684 -1.393,11.369 -3.926,14.527"
     inkscape:connector-curvature="0" />
  <path
     id="path5513"
     style="fill:#ffffff;fill-opacity:1;fill-rule:nonzero;stroke:none"
     d="m 266.78483,60.19928 -9.123,-17.052003 -3.802,4.673 0,12.379003 -5.702,0 0,-36.000003 5.702,0 0,14.274 11.405,-14.274 7.35,0 -11.152,14.021 11.912,21.979003 -6.59,0 z"
     inkscape:connector-curvature="0" />
  <path
     id="path5515"
     style="fill:#ffffff;fill-opacity:1;fill-rule:nonzero;stroke:none"
     d="m 206.16783,54.76728 c -1.894,3.537 -6.189,6.064 -10.611,6.064 -4.421,0 -8.717,-2.527 -10.612,-6.064 -1.01,-2.147 -1.642,-4.673 -1.642,-7.452003 l 0,-23.116 5.684,0 0,23.116 c 0,4.674003 2.654,7.705003 6.57,7.705003 3.916,0 6.569,-3.031 6.569,-7.705003 l 0,-23.116 5.685,0 0,23.116 c 0,2.779003 -0.632,5.305003 -1.643,7.452003"
     inkscape:connector-curvature="0" />
  <path
     id="path5517"
     style="fill:#ffffff;fill-opacity:1;fill-rule:nonzero;stroke:none"
     d="m 138.90283,29.252381 0,30.946999 -5.708,0 0,-30.946999 -8.248,0 0,-5.053 22.33,0 0,5.053 -8.374,0 z"
     inkscape:connector-curvature="0" />
  <path
     id="path5519"
     style="fill:#ffffff;fill-opacity:1;fill-rule:nonzero;stroke:none"
     d="m 168.46683,30.515077 c -0.885,-0.505 -1.39,-0.631 -3.284,-0.631 l -6.822,0 0,8.841 6.822,0 c 1.768,0 2.399,-0.126 3.284,-0.631 1.39,-0.758 2.273,-2.274 2.273,-3.79 0,-1.515 -0.883,-3.032 -2.273,-3.789 m 2.526,29.684003 -5.81,-15.663003 -6.822,0 0,15.663003 -5.685,0 0,-36.000003 11.875,0 c 2.779,0 4.674,0.253 6.442,1.137 3.159,1.516 5.432,5.306 5.432,8.968 0,3.79 -2.273,7.579 -5.558,9.095 l 6.317,16.800003 -6.191,0 z"
     inkscape:connector-curvature="0" />
  <path
     id="path5521"
     style="fill:#ffffff;fill-opacity:1;fill-rule:nonzero;stroke:none"
     d="m 297.94483,58.05228 c -2.021,1.768 -4.8,2.779 -7.832,2.779 -6.189,0 -10.736,-3.663 -13.137,-9.095 l 5.431,-2.021 c 1.517,3.411 4.295,5.305 7.706,5.305 3.284,0 5.559,-2.274 5.559,-5.305 0,-4.800003 -5.559,-5.558003 -10.232,-7.453003 -2.148,-0.884 -6.95,-3.031 -6.95,-8.968 0,-7.074 4.802,-9.727 11.245,-9.727 5.052,0 8.463,2.906 10.232,7.327 l -5.053,1.515 c 0,0 -1.263,-3.031 -5.306,-3.157 -2.653,-0.126 -5.811,0.883 -5.558,4.169 0.505,6.694 17.433,2.273 17.433,16.419003 0,3.286 -1.264,6.19 -3.538,8.212"
     inkscape:connector-curvature="0" />
  <path
     id="path5523"
     style="fill:#ffffff;fill-opacity:1;fill-rule:nonzero;stroke:none"
     d="m 229.37283,60.83128 c -5.305,0 -8.716,-2.021 -10.99,-6.442 -1.642,-3.158 -2.652,-7.705003 -2.652,-12.254003 0,-5.683 1.515,-11.368 4.042,-14.525 2.147,-2.653 5.179,-4.043 9.221,-4.043 5.432,0 8.843,2.275 11.243,7.327 l -5.305,2.274 c -2.022,-3.033 -3.158,-3.79 -5.938,-3.79 -2.905,0 -4.799,1.263 -6.063,4.421 -0.884,2.147 -1.39,5.305 -1.39,8.336 0,3.917 0.885,7.832003 2.275,10.106003 1.262,1.894 2.905,2.779 5.431,2.779 2.401,0 4.169,-1.263 5.559,-4.168 l 5.431,2.021 c -2.147,5.305 -5.684,7.958 -10.864,7.958"
     inkscape:connector-curvature="0" />
  <path
     id="path5525"
     style="fill:#ffffff;fill-opacity:1;fill-rule:nonzero;stroke:none"
     d="m 386.45483,240.19928 -13.769,-24.379 0,24.379 -5.684,0 0,-36 5.684,0 13.138,22.991 0,-22.991 5.685,0 0,36 -5.054,0 z"
     inkscape:connector-curvature="0" />
  <path
     id="path5527"
     style="fill:#ffffff;fill-opacity:1;fill-rule:nonzero;stroke:none"
     d="m 351.23183,212.15728 c -1.14,-1.895 -2.533,-2.652 -4.685,-2.779 -2.786,-0.126 -4.559,1.263 -5.825,4.421 -0.886,2.148 -1.392,5.432 -1.392,8.463 0,3.789 0.759,7.705 2.152,9.979 1.139,1.896 2.659,2.779 4.938,2.779 2.66,0 4.305,-1.389 5.57,-4.547 0.761,-1.894 1.395,-5.432 1.395,-8.211 0,-4.042 -0.76,-7.705 -2.153,-10.105 m 3.925,24.632 c -2.026,2.779 -4.938,4.042 -8.737,4.042 -5.064,0 -8.23,-2.022 -10.383,-6.442 -1.519,-3.031 -2.533,-7.832 -2.533,-12.127 0,-5.936 1.52,-11.242 3.926,-14.653 2.152,-2.778 5.064,-4.042 9.243,-4.042 4.559,0 7.725,2.022 10.004,6.442 1.518,3.159 2.405,7.705 2.405,12.253 0,5.685 -1.392,11.369 -3.925,14.527"
     inkscape:connector-curvature="0" />
  <path
     id="path5529"
     style="fill:#ffffff;fill-opacity:1;fill-rule:nonzero;stroke:none"
     d="m 319.82383,204.19928 5.76,0 0,36 -5.76,0 0,-36 z"
     inkscape:connector-curvature="0" />
  <path
     id="path5531"
     style="fill:#ffffff;fill-opacity:1;fill-rule:nonzero;stroke:none"
     d="m 248.78283,209.25228 0,30.947 -5.708,0 0,-30.947 -8.247,0 0,-5.053 22.33,0 0,5.053 -8.375,0 z"
     inkscape:connector-curvature="0" />
  <path
     id="path5533"
     style="fill:#ffffff;fill-opacity:1;fill-rule:nonzero;stroke:none"
     d="m 306.05083,209.25228 0,30.947 -5.709,0 0,-30.947 -8.246,0 0,-5.053 22.328,0 0,5.053 -8.373,0 z"
     inkscape:connector-curvature="0" />
  <path
     id="path5535"
     style="fill:#ffffff;fill-opacity:1;fill-rule:nonzero;stroke:none"
     d="m 228.41183,238.05128 c -2.021,1.769 -4.8,2.78 -7.833,2.78 -6.189,0 -10.737,-3.662 -13.137,-9.094 l 5.432,-2.022 c 1.516,3.411 4.295,5.305 7.705,5.305 3.286,0 5.56,-2.274 5.56,-5.305 0,-4.801 -5.56,-5.559 -10.234,-7.453 -2.147,-0.884 -6.947,-3.031 -6.947,-8.968 0,-7.074 4.8,-9.727 11.242,-9.727 5.052,0 8.464,2.905 10.232,7.327 l -5.052,1.516 c 0,0 -1.265,-3.032 -5.306,-3.158 -2.653,-0.126 -5.811,0.883 -5.558,4.169 0.506,6.694 17.432,2.273 17.432,16.421 0,3.284 -1.262,6.19 -3.536,8.209"
     inkscape:connector-curvature="0" />
  <path
     id="path5537"
     style="fill:#ffffff;fill-opacity:1;fill-rule:nonzero;stroke:none"
     d="m 274.68983,214.17728 -3.684,10.107 7.241,0 -3.557,-10.107 z m 9.147,26.022 -3.557,-10.105 -11.307,0 -3.557,10.105 -6.098,0 12.45,-36 5.718,0 12.45,36 -6.099,0 z"
     inkscape:connector-curvature="0" />
  <path
     id="path5539"
     style="fill:#ffffff;fill-opacity:1;fill-rule:nonzero;stroke:none"
     d="m 100.82683,204.19928 5.76,0 0,36 -5.76,0 0,-36 z"
     inkscape:connector-curvature="0" />
  <path
     id="path5541"
     style="fill:#ffffff;fill-opacity:1;fill-rule:nonzero;stroke:none"
     d="m 61.655588,240.19928 -5.067,0 -5.703,-23.115 -5.575,23.115 -5.069,0 -5.321001,-36 5.828001,0 2.788,18.947 4.561,-18.947 5.576,0 4.688,18.947 2.788,-18.947 5.829,0 -5.323,36 z"
     inkscape:connector-curvature="0" />
  <path
     id="path5543"
     style="fill:#ffffff;fill-opacity:1;fill-rule:nonzero;stroke:none"
     d="m 165.75683,240.19928 0,-15.663 -13.138,0 0,15.663 -5.684,0 0,-36 5.684,0 0,14.526 13.138,0 0,-14.526 5.685,0 0,36 -5.685,0 z"
     inkscape:connector-curvature="0" />
  <path
     id="path5545"
     style="fill:#ffffff;fill-opacity:1;fill-rule:nonzero;stroke:none"
     d="m 72.378588,240.19928 0,-36 21.193,0 0,5.684 -15.516,0 0,8.842 10.471,0 0,5.811 -10.471,0 0,9.853 16.652,0 0,5.81 -22.329,0 z"
     inkscape:connector-curvature="0" />
  <path
     id="path5547"
     style="fill:#ffffff;fill-opacity:1;fill-rule:nonzero;stroke:none"
     d="m 127.64583,240.83128 c -5.432,0 -8.591,-2.022 -10.738,-6.569 -1.516,-3.158 -2.4,-7.578 -2.4,-12 0,-5.81 1.642,-11.495 4.042,-14.653 2.147,-2.652 5.18,-4.042 9.222,-4.042 5.558,0 8.842,2.275 11.243,7.959 l -5.432,2.147 c -1.516,-3.158 -3.032,-4.295 -5.811,-4.295 -2.906,0 -4.801,1.263 -6.064,4.421 -0.884,2.148 -1.389,5.432 -1.389,8.463 0,3.789 0.631,7.58 1.768,9.853 1.137,2.022 2.779,2.905 4.927,2.905 3.663,0 6.316,-2.274 6.316,-5.556 l 0,-1.517 -6.569,0 0,-5.685 12.254,0 0,7.202 c 0,6.568 -4.801,11.367 -11.369,11.367"
     inkscape:connector-curvature="0" />
  <path
     id="path5549"
     style="fill:#ffffff;fill-opacity:1;fill-rule:nonzero;stroke:none"
     d="m 287.63883,279.25228 0,3.895 c 0,6.525 -5.265,11.578 -11.895,11.578 -8.843,0 -12.422,-7.789 -12.422,-15.578 0,-9.159 4.948,-15.475 12.422,-15.475 5.368,0 9.051,2.842 11.157,7.475 l -5.473,1.894 c -1.158,-2.527 -3.053,-4 -5.684,-4 -4.212,0 -7.053,4.211 -7.053,10.106 0,4.841 1.473,10.211 7.053,10.211 2.946,0 5.578,-2 6.315,-4.739 l -4.947,0 0,-5.367 10.527,0 z"
     inkscape:connector-curvature="0" />
  <path
     id="path5551"
     style="fill:#ffffff;fill-opacity:1;fill-rule:nonzero;stroke:none"
     d="m 313.46083,294.19928 0,-13.052 -13.532,0 0,13.052 -5.392,0 0,-30 5.392,0 0,11.578 13.532,0 0,-11.578 5.392,0 0,30 -5.392,0 z"
     inkscape:connector-curvature="0" />
  <path
     id="path5553"
     style="fill:#ffffff;fill-opacity:1;fill-rule:nonzero;stroke:none"
     d="m 251.02183,264.19928 5.401,0 0,30 -5.401,0 0,-30 z"
     inkscape:connector-curvature="0" />
  <path
     id="path5555"
     style="fill:#ffffff;fill-opacity:1;fill-rule:nonzero;stroke:none"
     d="m 234.71183,269.56728 -8.64,0 0,7.475 8.64,0 c 2.63,0 4.314,-1.475 4.314,-3.684 0,-2.316 -1.684,-3.791 -4.314,-3.791 m 4.314,24.632 -4.84,-11.789 -8.114,0 0,11.789 -5.365,0 0,-30 13.9,0 c 2.21,0 3.577,0.315 5.155,1.262 2.842,1.58 4.63,4.527 4.63,7.897 0,3.367 -1.788,6.315 -4.84,8 l 5.47,12.841 -5.996,0 z"
     inkscape:connector-curvature="0" />
  <path
     id="path5557"
     style="fill:#ffffff;fill-opacity:1;fill-rule:nonzero;stroke:none"
     d="m 337.83083,269.46128 0,24.738 -5.259,0 0,-24.738 -8.62,0 0,-5.262 22.5,0 0,5.262 -8.621,0 z"
     inkscape:connector-curvature="0" />
  <path
     id="path5559"
     style="fill:#ffffff;fill-opacity:1;fill-rule:nonzero;stroke:none"
     d="m 112.09283,294.19928 0,-30 21.972,0 0,5.368 -16.48,0 0,5.58 8.98,0 0,5.472 -8.98,0 0,8.212 17.008,0 0,5.368 -22.5,0 z"
     inkscape:connector-curvature="0" />
  <path
     id="path5561"
     style="fill:#ffffff;fill-opacity:1;fill-rule:nonzero;stroke:none"
     d="m 99.64173,294.19928 -14.379142,-20.632 0,20.632 -5.285,0 0,-30 5.285,0 13.849142,19.789 0,-19.789 5.1811,0 0,30 -4.6511,0 z"
     inkscape:connector-curvature="0" />
  <path
     id="path5563"
     style="fill:#ffffff;fill-opacity:1;fill-rule:nonzero;stroke:none"
     d="m 182.08583,269.46128 0,24.738 -5.257,0 0,-24.738 -8.622,0 0,-5.262 22.5,0 0,5.262 -8.621,0 z"
     inkscape:connector-curvature="0" />
  <path
     id="path5565"
     style="fill:#ffffff;fill-opacity:1;fill-rule:nonzero;stroke:none"
     d="m 158.56383,294.19928 -6.767,-10.632 -6.661,10.632 -6.343,0 9.832,-15.789 -8.987,-14.211 6.45,0 5.709,9.159 5.71,-9.159 6.449,0 -8.881,14.211 9.832,15.789 -6.343,0 z"
     inkscape:connector-curvature="0" />
</svg>
