<svg version="1.1" viewBox="0.95 0.95 24.1 24.1" xmlns="http://www.w3.org/2000/svg">
 <g fill="none" stroke="#000">
  <rect x="1" y="1" width="24" height="24" ry="1.5" fill="#fff" stroke-width=".1"/>
  <rect x="1.6875" y="1.6875" width="22.625" height="22.625" ry=".8125" stroke-width=".625"/>
  <circle cx="13" cy="13" r="9" stroke="#006747" stroke-width="2"/>
 </g>
 <path transform="matrix(.0210579711 0 0 -.0210579711 6.612113815 20.5389593)" d="m112.636719 642.9375h381.421875v-438.757812h-381.421875zm287.207031-454.652344h16.320312c8.71875 0 16.277344-5.234375 19.679688-12.722656 3.402344 7.488281 10.960938 12.722656 19.679688 12.722656h16.320312c11.882812 0 21.601562-9.71875 21.601562-21.597656v-72.003906c0-11.882813-9.71875-21.601563-21.601562-21.601563h-16.320312c-8.71875 0-16.277344 5.238281-19.679688 12.722657-3.402344-7.484376-10.960938-12.722657-19.679688-12.722657h-16.320312c-11.882812 0-21.601562 9.71875-21.601562 21.601563v72.003906c0 11.878906 9.71875 21.597656 21.601562 21.597656zm-265.082031 0h16.320312c8.71875 0 16.277344-5.234375 19.679688-12.722656 3.402343 7.488281 10.960937 12.722656 19.679687 12.722656h16.320313c11.882812 0 21.601562-9.71875 21.601562-21.597656v-72.003906c0-11.882813-9.71875-21.601563-21.601562-21.601563h-16.320313c-8.71875 0-16.277344 5.238281-19.679687 12.722657-3.402344-7.484376-10.960938-12.722657-19.679688-12.722657h-16.320312c-11.882813 0-21.601563 9.71875-21.601563 21.601563v72.003906c0 11.878906 9.71875 21.597656 21.601563 21.597656z"/>
</svg>
