<?xml version="1.0" encoding="UTF-8" standalone="no"?>
<!-- Generator: Adobe Illustrator 16.0.0, SVG Export Plug-In . SVG Version: 6.00 Build 0)  -->

<svg
   xmlns:dc="http://purl.org/dc/elements/1.1/"
   xmlns:cc="http://creativecommons.org/ns#"
   xmlns:rdf="http://www.w3.org/1999/02/22-rdf-syntax-ns#"
   xmlns:svg="http://www.w3.org/2000/svg"
   xmlns="http://www.w3.org/2000/svg"
   xmlns:sodipodi="http://sodipodi.sourceforge.net/DTD/sodipodi-0.dtd"
   xmlns:inkscape="http://www.inkscape.org/namespaces/inkscape"
   version="1.1"
   id="Layer_1"
   x="0px"
   y="0px"
   width="90.593773"
   height="45.594055"
   viewBox="0 0 90.593775 45.594055"
   enable-background="new 0 0 850.394 425.197"
   xml:space="preserve"
   inkscape:version="0.48.2 r9819"
   sodipodi:docname="MUTCD R8-10a.svg"><metadata
   id="metadata37"><rdf:RDF><cc:Work
       rdf:about=""><dc:format>image/svg+xml</dc:format><dc:type
         rdf:resource="http://purl.org/dc/dcmitype/StillImage" /><dc:title></dc:title></cc:Work></rdf:RDF></metadata><defs
   id="defs35" /><sodipodi:namedview
   pagecolor="#ffffff"
   bordercolor="#666666"
   borderopacity="1"
   objecttolerance="10"
   gridtolerance="10"
   guidetolerance="10"
   inkscape:pageopacity="0"
   inkscape:pageshadow="2"
   inkscape:window-width="1280"
   inkscape:window-height="1004"
   id="namedview33"
   showgrid="false"
   fit-margin-top="0"
   fit-margin-left="0"
   fit-margin-right="0"
   fit-margin-bottom="0"
   inkscape:zoom="6.6604422"
   inkscape:cx="29.127176"
   inkscape:cy="8.5831393"
   inkscape:window-x="-8"
   inkscape:window-y="-8"
   inkscape:window-maximized="1"
   inkscape:current-layer="Layer_1"
   showguides="true"
   inkscape:guide-bbox="true" />













<path
   d="m 6.000449,0.29890584 78.683752,0 c 3.055,0.0025 5.63,2.56624996 5.625,5.62500006 l 0,33.7500011 c 0.005,3.04875 -2.5725,5.635 -5.625,5.625 l -78.750002,0 c -3.04375,0.005 -5.64875002,-2.57375 -5.62500002,-5.625 l 0,-33.7500011 C 0.30169898,2.8351558 2.919199,0.26890584 6.000449,0.29890584"
   style="fill:#ffffff;fill-opacity:1;fill-rule:nonzero;stroke:#000000;stroke-width:0.60000001;stroke-linecap:butt;stroke-linejoin:miter;stroke-miterlimit:4;stroke-opacity:1;stroke-dasharray:none"
   id="path3527"
   inkscape:connector-curvature="0" /><path
   d="m 87.647826,2.9301558 c 0.78625,0.78625 1.22875,1.8337501 1.255,2.9450001 l 0,33.8475011 c -0.05375,2.25875 -1.875,4.09875 -4.1325,4.17 l -78.848752,0 c -2.2675,-0.025 -4.11375,-1.85125 -4.20625,-4.10625 l 0,-33.9112511 c 0.05625,-2.8150001 2.35625,-4.0875001 4.85375,-4.1700001 l 78.127502,0 c 1.10625,0.0125 2.1625,0.44875 2.95125,1.225"
   style="fill:#000000;fill-opacity:1;fill-rule:evenodd;stroke:none"
   id="path3531"
   inkscape:connector-curvature="0" /><path
   d="m 86.402951,5.1815359 c 0.1025,0.235 0.15375,0.48875 0.15625,0.745 l 0,33.7450011 c -0.005,1.01125 -0.845,1.86 -1.8575,1.8775 l -78.740002,0 c -1.01875,0.005 -1.875,-0.8225 -1.9025,-1.84125 l 0,-33.7812511 c 0.01,-2.0437501 2.0725,-1.7650001 3.455,-1.8775001 l 77.141252,0 c 0.74875,-0.005 1.445,0.4462501 1.7475,1.1325001"
   style="fill:#ffffff;fill-opacity:1;fill-rule:evenodd;stroke:none"
   id="path3535"
   inkscape:connector-curvature="0" /><path
   d="m 82.716701,17.415156 0,-2.10125 -9.255,0 0,2.10125 3.4175,0 0,12.88875 2.36625,0 0,-12.88875 3.47125,0 z m -13.21,2.105 c 0,0.6325 -0.36625,1.31625 -0.89375,1.58 -0.420001,0.21 -0.683751,0.26125 -1.421251,0.26125 l -3.1025,0 0,-3.6825 3.1025,0 c 0.7375,0 1.00125,0.05375 1.421251,0.26375 0.5275,0.315 0.89375,0.9475 0.89375,1.5775 m 2.41875,0 c 0,-1.52625 -0.99875,-3.10375 -2.31125,-3.7325 -0.7375,-0.36875 -1.526251,-0.47375 -2.737501,-0.47375 l -5.15375,0 0,14.99 2.36625,0 0,-6.52125 2.7875,0 c 1.1575,0 2.051251,-0.2125 2.737501,-0.5275 1.3125,-0.57875 2.31125,-2.155 2.31125,-3.735 m -14.418751,10.78375 0,-14.99 -2.36875,0 -3.47125,8.415 -3.47125,-8.415 -2.36625,0 0,14.99 2.36625,0 0,-8.68 3.47125,8.68 3.47125,-8.68 0,8.68 2.36875,0 z m -14.79,0 0,-2.42 -6.94375,0 0,-4.10125 4.365,0 0,-2.42125 -4.365,0 0,-3.6825 6.47,0 0,-2.365 -8.835,0 0,14.99 9.30875,0 z m -12.4225,0 -3.78625,-7.7325 3.525,-7.2575 -2.6825,0 -2.15875,4.47 -2.155,-4.47 -2.683751,0 3.472501,7.2575 -3.733751,7.7325 2.68125,0 2.418751,-4.9975 2.4225,4.9975 2.68,0 z m -12.262501,0 0,-2.42 -6.94375,0 0,-4.10125 4.365,0 0,-2.42125 -4.365,0 0,-3.6825 6.47,0 0,-2.365 -8.835,0 0,14.99 9.30875,0 z"
   style="fill:#000000;fill-opacity:1;fill-rule:evenodd;stroke:none"
   id="path3539"
   inkscape:connector-curvature="0" /></svg>