<?xml version="1.0" encoding="UTF-8" standalone="no"?>
<!-- Generator: Adobe Illustrator 16.0.0, SVG Export Plug-In . SVG Version: 6.00 Build 0)  -->

<svg
   xmlns:dc="http://purl.org/dc/elements/1.1/"
   xmlns:cc="http://creativecommons.org/ns#"
   xmlns:rdf="http://www.w3.org/1999/02/22-rdf-syntax-ns#"
   xmlns:svg="http://www.w3.org/2000/svg"
   xmlns="http://www.w3.org/2000/svg"
   xmlns:sodipodi="http://sodipodi.sourceforge.net/DTD/sodipodi-0.dtd"
   xmlns:inkscape="http://www.inkscape.org/namespaces/inkscape"
   version="1.1"
   id="Layer_1"
   x="0px"
   y="0px"
   width="90.59375"
   height="90.59375"
   viewBox="0 0 90.593752 90.59375"
   enable-background="new 0 0 850.394 425.197"
   xml:space="preserve"
   inkscape:version="0.48.2 r9819"
   sodipodi:docname="MUTCD R15-5a.svg"><metadata
   id="metadata37"><rdf:RDF><cc:Work
       rdf:about=""><dc:format>image/svg+xml</dc:format><dc:type
         rdf:resource="http://purl.org/dc/dcmitype/StillImage" /><dc:title></dc:title></cc:Work></rdf:RDF></metadata><defs
   id="defs35" /><sodipodi:namedview
   pagecolor="#ffffff"
   bordercolor="#666666"
   borderopacity="1"
   objecttolerance="10"
   gridtolerance="10"
   guidetolerance="10"
   inkscape:pageopacity="0"
   inkscape:pageshadow="2"
   inkscape:window-width="1280"
   inkscape:window-height="1004"
   id="namedview33"
   showgrid="false"
   fit-margin-top="0"
   fit-margin-left="0"
   fit-margin-right="0"
   fit-margin-bottom="0"
   inkscape:zoom="5.6568543"
   inkscape:cx="50.049465"
   inkscape:cy="49.599458"
   inkscape:window-x="-8"
   inkscape:window-y="-8"
   inkscape:window-maximized="1"
   inkscape:current-layer="Layer_1"
   showguides="true"
   inkscape:guide-bbox="true" />













<path
   d="m 5.923264,0.30926875 78.752506,0 c 3.09875,0 5.625,2.52625005 5.625,5.62500005 l 0,78.7500022 c 0,3.0975 -2.52625,5.625 -5.625,5.625 l -78.752506,0 c -3.0975,0 -5.625001,-2.5275 -5.625001,-5.625 l 0,-78.7500022 c 0,-3.06 2.566251,-5.62500005 5.625001,-5.62500005"
   style="fill:#ffffff;fill-opacity:1;fill-rule:nonzero;stroke:#000000;stroke-width:0.60000001;stroke-miterlimit:4;stroke-opacity:1;stroke-dasharray:none"
   id="path3999"
   inkscape:connector-curvature="0" /><path
   d="m 5.943134,1.7155188 78.716256,0 c 2.31625,0.005 4.22625,1.92125 4.235,4.2375 l 0,78.7137522 c -0.009,2.31875 -1.91875,4.22875 -4.235,4.23625 l -78.716256,0 c -2.3175,-0.0075 -4.233751,-1.9175 -4.238751,-4.23625 l 0,-78.7137522 c 0.005,-2.31625 1.921251,-4.2325 4.238751,-4.2375"
   style="fill:#000000;fill-opacity:1;fill-rule:evenodd;stroke:none"
   id="path4023"
   inkscape:connector-curvature="0" /><path
   d="m 5.972014,4.0592688 78.655006,0 c 1.0575,-0.015 1.94125,0.86375 1.92375,1.92375 l 0,78.6550022 c 0.0175,1.05375 -0.86625,1.94 -1.92375,1.92125 l -78.655006,0 c -1.05875,0.01875 -1.9375,-0.8675 -1.92375,-1.92125 l 0,-78.6550022 c -0.01375,-1.06 0.865,-1.93875 1.92375,-1.92375"
   style="fill:#ffffff;fill-opacity:1;fill-rule:evenodd;stroke:none"
   id="path4027"
   inkscape:connector-curvature="0" /><path
   d="m 51.957014,54.17552 0.0063,2.6425 -12.71375,0 0.0063,-2.6425 12.70125,0 z m -12.7075,8.9675 12.71375,0 0,-2.905 -12.71375,0 0,2.905 z m 0,5.98625 12.71375,0 0,-2.565 -12.71375,0 0,2.565 z m 21.6275,-28.80625 c -1.79625,0 -3.25875,1.465 -3.25875,3.26 0,1.79375 1.4625,3.25875 3.25875,3.25875 1.7975,0 3.26,-1.465 3.26,-3.25875 0,-1.795 -1.4625,-3.26 -3.26,-3.26 m -31.19125,0 c 1.7975,0 3.26,1.465 3.26,3.26 0,1.79375 -1.4625,3.25875 -3.26,3.25875 -1.79375,0 -3.25875,-1.465 -3.25875,-3.25875 0,-1.795 1.465,-3.26 3.25875,-3.26 m 15.59625,-3.3375 -14.63625,0 3.09,-8.261251 c 0.2025,-0.8325 0.8375,-1.2525 1.56,-1.2525 l 9.98625,0.005 9.985,-0.005 c 0.7225,0 1.355,0.42 1.56,1.2525 l 3.09125,8.261251 -14.63625,0 z m 8.38125,17.19 3.8575,0 -0.0025,5.28125 c 0,1.06875 0.87625,1.94375 1.9425,1.94375 l 2.74,0 c 1.06875,0 1.93875,-0.875 1.94375,-1.94375 l 0.01875,-5.28375 3.667496,0 0,-12.29875 c 0,-2.2075 -1.69,-4.52 -3.994996,-4.9075 l -4.2525,-10.105001 c -0.66125,-1.6625 -2.605,-2.705 -4.455,-2.705 l -1.465,0 -0.015,-2.7375 2.605,0 0,-3.42 -2.605,0 0,-1.50625 -1.685,0 0,1.50625 -12.71375,0 0,-1.50625 -1.685,0 0,1.50625 -3.36875,0 0,3.42 3.36875,0 0,2.7375 -2.12875,0 c -1.85375,0 -3.79375,1.0425 -4.45625,2.705 l -4.25,10.105001 c -2.305,0.3875 -3.993751,2.7 -3.993751,4.9075 l 0,12.29875 3.666251,0 0.02,5.28375 c 0.0025,1.06875 0.87375,1.94375 1.94125,1.94375 l 2.73875,0 c 1.06625,0 1.94125,-0.875 1.94125,-1.94375 l 0,-5.28125 4.53625,0 -0.015,2.6425 -3.36875,0 0,3.42 3.36875,0 0,2.905 -3.36875,0 0,3.42125 3.36875,0 0,2.565 -3.36875,0 0,3.42125 3.36875,0 0,1.5425 1.685,0 0,-1.5425 12.71375,0 0,1.5425 1.685,0 0,-1.5425 2.605,0 0,-3.42125 -2.605,0 0,-2.565 2.605,0 0,-3.42125 -2.605,0 0,-2.905 2.605,0 0,-3.42 -2.605,0 0.015,-2.6425 z m -1.70625,-30.018751 -12.70125,0 -0.0063,-2.7375 12.71375,0 -0.0063,2.7375 z"
   style="fill:#000000;fill-opacity:1;fill-rule:evenodd;stroke:none"
   id="path4031"
   inkscape:connector-curvature="0" /><path
   d="m 18.782013,18.793019 c 14.605001,-14.6050002 38.428751,-14.6050002 53.035007,0 14.605,14.60375 14.605,38.427501 0,53.032501 -14.606256,14.603751 -38.430006,14.603751 -53.035007,0 -14.603749,-14.605 -14.603749,-38.428751 0,-53.032501 M 63.697014,69.00802 21.599513,26.913019 c -9.19625,11.850001 -8.2025,28.921251 2.486251,39.608751 10.69,10.68875 27.75875,11.685 39.61125,2.48625 M 68.99952,63.70427 26.903264,21.610519 c 11.85,-9.1975 28.92,-8.20375 39.611246,2.485 10.68876,10.691251 11.68251,27.758751 2.48501,39.608751"
   style="fill:#c4122e;fill-opacity:1;fill-rule:evenodd;stroke:none"
   id="path4035"
   inkscape:connector-curvature="0" /></svg>