<?xml version="1.0" encoding="UTF-8" standalone="no"?>
<svg
   xmlns:dc="http://purl.org/dc/elements/1.1/"
   xmlns:cc="http://creativecommons.org/ns#"
   xmlns:rdf="http://www.w3.org/1999/02/22-rdf-syntax-ns#"
   xmlns:svg="http://www.w3.org/2000/svg"
   xmlns="http://www.w3.org/2000/svg"
   xmlns:sodipodi="http://sodipodi.sourceforge.net/DTD/sodipodi-0.dtd"
   xmlns:inkscape="http://www.inkscape.org/namespaces/inkscape"
   width="248.91733"
   height="166.79012"
   viewBox="0 0 702.49997 470.71877"
   version="1.1"
   id="svg2"
   inkscape:version="0.48.2 r9819"
   sodipodi:docname="AJAX1.svg">
  <metadata
     id="metadata62">
    <rdf:RDF>
      <cc:Work
         rdf:about="">
        <dc:format>image/svg+xml</dc:format>
        <dc:type
           rdf:resource="http://purl.org/dc/dcmitype/StillImage" />
        <dc:title></dc:title>
      </cc:Work>
    </rdf:RDF>
  </metadata>
  <defs
     id="defs60">
    <clipPath
       clipPathUnits="userSpaceOnUse"
       id="clipPath3564">
      <path
         inkscape:connector-curvature="0"
         d="m 63,43 512.622,0 0,313.129 L 63,356.129 63,43 z"
         id="path3566" />
    </clipPath>
  </defs>
  <sodipodi:namedview
     pagecolor="#ffffff"
     bordercolor="#666666"
     borderopacity="1"
     objecttolerance="10"
     gridtolerance="10"
     guidetolerance="10"
     inkscape:pageopacity="0"
     inkscape:pageshadow="2"
     inkscape:window-width="1280"
     inkscape:window-height="1004"
     id="namedview58"
     showgrid="false"
     fit-margin-top="0"
     fit-margin-left="0"
     fit-margin-right="0"
     fit-margin-bottom="0"
     inkscape:zoom="0.86314676"
     inkscape:cx="6.214493"
     inkscape:cy="22.943536"
     inkscape:window-x="-8"
     inkscape:window-y="-8"
     inkscape:window-maximized="1"
     inkscape:current-layer="svg2"
     showguides="true"
     inkscape:guide-bbox="true" />
  <polygon
     points="315,205 395,375 315,545 235,375 "
     id="polygon10"
     style="fill:none;stroke:#ffffff;stroke-width:40"
     transform="translate(20676.159,13504.111)" />
  <!-- draw the bicycle -->
  <!-- RIGHT -->
  <!-- LANE -->
  <!-- ONLY -->
  <path
     inkscape:connector-curvature="0"
     id="path3725"
     style="fill:#ffffff;fill-opacity:1;fill-rule:nonzero;stroke:#000000;stroke-width:7.05555534;stroke-linejoin:round;stroke-miterlimit:4;stroke-opacity:1;stroke-dasharray:none"
     d="m 3.5310865,467.20503 0,-231.82342 231.8234135,0 0,-231.838533 231.79316,0 0,231.838533 231.83853,0 0,231.82342 -695.4551035,0 z" />
  <path
     inkscape:connector-curvature="0"
     id="path3733"
     style="fill:#000000;fill-opacity:1;fill-rule:evenodd;stroke:none"
     d="m 397.78975,143.50559 c 0,-13.88943 -2.98064,-21.36371 -13.40528,-30.78976 5.96127,-8.94189 7.97357,-14.903145 7.97357,-23.345745 0,-23.84504 -19.38167,-43.24183 -43.25696,-43.24183 -18.3528,0 -34.25455,10.9542 -41.69856,28.83798 l 20.86441,7.92817 c 4.96268,-9.42605 11.9074,-13.90457 21.36371,-13.90457 11.4081,0 20.36513,7.95844 20.36513,18.88237 0,8.94189 -4.97781,13.904555 -13.91971,13.904555 l -4.46337,0 -0.51444,0 -0.49928,0 0,-0.48416 0,22.86159 2.48133,0 c 10.43977,0.49929 10.96933,0.49929 14.41899,2.98063 4.97781,3.46479 7.95844,10.42464 7.95844,17.88378 0,14.38873 -10.43977,24.8285 -25.35806,24.8285 -13.39015,0 -22.84646,-7.44401 -26.32637,-21.36371 l -21.84787,6.46055 c 5.94614,22.86159 24.3292,37.84039 47.17565,37.84039 28.83797,0 48.68867,-20.44077 48.68867,-49.27874" />
  <path
     inkscape:connector-curvature="0"
     id="path3737"
     style="fill:#000000;fill-opacity:1;fill-rule:evenodd;stroke:none"
     d="m 606.34305,373.11547 c 0,-40.45788 -48.38604,-27.82426 -49.85368,-46.96384 -0.71111,-9.41092 8.32158,-12.28564 15.88663,-11.93766 11.58965,0.36314 15.19061,9.04782 15.19061,9.04782 l 14.44924,-4.34236 c -5.05344,-12.64875 -14.79722,-20.95517 -29.24649,-20.95517 -18.41334,0 -32.15146,7.59531 -32.15146,27.80911 0,16.9911 13.73812,23.13392 19.85069,25.66066 13.39015,5.4317 29.26162,7.58018 29.26162,21.33343 0,8.65443 -6.47567,15.16039 -15.87147,15.16039 -9.74378,0 -17.70222,-5.41658 -22.04455,-15.16039 l -15.53862,5.76459 c 6.85394,15.56887 19.88095,26.06915 37.58317,26.06915 8.65443,0 16.64312,-2.93523 22.37743,-7.9887 6.52105,-5.79481 10.10688,-14.10123 10.10688,-23.49703 m -82.36825,29.63985 -33.98221,-62.88069 31.80346,-40.1099 -20.95517,0 -32.49947,40.82102 0,-40.82102 -16.29512,0 0,102.99059 16.29512,0 0,-35.41956 10.83315,-13.35987 25.97839,48.77943 18.82185,0 z m -96.51492,-20.95517 -15.53862,-5.80997 c -3.96409,8.32155 -9.04779,11.93767 -15.90172,11.93767 -7.20195,0 -11.90741,-2.51161 -15.50837,-7.94332 -3.99435,-6.52108 -6.50593,-17.71734 -6.50593,-28.89848 0,-8.66956 1.45249,-17.71735 3.96407,-23.8602 3.60099,-9.03266 9.04782,-12.64874 17.33911,-12.64874 7.95841,0 11.21139,2.1636 16.99111,10.86341 l 15.16035,-6.52109 c -6.85393,-14.44924 -16.59771,-20.95517 -32.15146,-20.95517 -11.54427,0 -20.21383,3.96407 -26.3869,11.5594 -7.20192,9.04779 -11.54427,25.29753 -11.54427,41.56239 0,13.01188 2.88984,26.02377 7.5953,35.02618 6.49083,12.64874 16.24974,18.48897 31.44035,18.48897 14.79725,0 24.90416,-7.64069 31.04698,-22.80105 m -118.87722,-24.58644 -20.59206,0 10.45489,-28.89848 10.13717,28.89848 z m 33.24084,45.54161 -35.43469,-102.99059 -16.24974,0 -35.40443,102.99059 17.35423,0 10.10691,-28.92874 32.15147,0 10.13717,28.92874 17.33908,0 z M 226.16901,328.69349 c 0,4.3272 -2.54186,8.6544 -6.50594,10.81803 -2.5116,1.45249 -4.34234,1.8156 -9.3958,1.8156 l -19.5027,0 0,-25.29753 19.5027,0 c 5.43171,0 6.8842,0.36314 9.3958,1.81562 3.96408,2.1636 6.50594,6.47567 6.50594,10.84828 m 18.3982,74.06183 -18.05021,-48.06831 c 9.3958,-4.34236 15.90174,-15.17549 15.90174,-25.99352 0,-10.5003 -6.50594,-21.36371 -15.50835,-25.64553 -5.08372,-2.54186 -10.50029,-3.28323 -18.4436,-3.28323 l -33.95194,0 0,102.99059 16.24972,0 0,-44.80021 19.5027,0 16.64312,44.80021 17.65682,0 z m -87.43685,-88.54135 0,-14.44924 -63.591825,0 0,14.44924 23.497055,0 0,88.54135 16.24973,0 0,-88.54135 23.84504,0 z" />
</svg>
