<?xml version="1.0" encoding="UTF-8" standalone="no"?>
<!-- Generator: Adobe Illustrator 16.0.0, SVG Export Plug-In . SVG Version: 6.00 Build 0)  -->

<svg
   xmlns:dc="http://purl.org/dc/elements/1.1/"
   xmlns:cc="http://creativecommons.org/ns#"
   xmlns:rdf="http://www.w3.org/1999/02/22-rdf-syntax-ns#"
   xmlns:svg="http://www.w3.org/2000/svg"
   xmlns="http://www.w3.org/2000/svg"
   xmlns:sodipodi="http://sodipodi.sourceforge.net/DTD/sodipodi-0.dtd"
   xmlns:inkscape="http://www.inkscape.org/namespaces/inkscape"
   version="1.1"
   id="Layer_1"
   x="0px"
   y="0px"
   width="90.625"
   height="113.125"
   viewBox="0 0 90.625002 113.125"
   enable-background="new 0 0 850.394 425.197"
   xml:space="preserve"
   inkscape:version="0.48.2 r9819"
   sodipodi:docname="MUTCD R15-4a.svg"><metadata
   id="metadata37"><rdf:RDF><cc:Work
       rdf:about=""><dc:format>image/svg+xml</dc:format><dc:type
         rdf:resource="http://purl.org/dc/dcmitype/StillImage" /><dc:title></dc:title></cc:Work></rdf:RDF></metadata><defs
   id="defs35" /><sodipodi:namedview
   pagecolor="#ffffff"
   bordercolor="#666666"
   borderopacity="1"
   objecttolerance="10"
   gridtolerance="10"
   guidetolerance="10"
   inkscape:pageopacity="0"
   inkscape:pageshadow="2"
   inkscape:window-width="1280"
   inkscape:window-height="1004"
   id="namedview33"
   showgrid="false"
   fit-margin-top="0"
   fit-margin-left="0"
   fit-margin-right="0"
   fit-margin-bottom="0"
   inkscape:zoom="3.3302211"
   inkscape:cx="25.320947"
   inkscape:cy="50.114417"
   inkscape:window-x="-8"
   inkscape:window-y="-8"
   inkscape:window-maximized="1"
   inkscape:current-layer="Layer_1"
   showguides="true"
   inkscape:guide-bbox="true" />













<path
   d="m 5.9375,0.31249537 78.7475,0 c 3.09875,0 5.625,2.52625013 5.625,5.62500013 l 0,101.2512545 c 0,3.0975 -2.52625,5.625 -5.625,5.625 l -78.7475,0 c -3.0975,0 -5.625,-2.5275 -5.625,-5.625 l 0,-101.2512545 c 0,-3.05875 2.56625,-5.62500013 5.625,-5.62500013"
   style="fill:#ffffff;fill-opacity:1;fill-rule:nonzero;stroke:#000000;stroke-width:0.60000001;stroke-miterlimit:4;stroke-opacity:1;stroke-dasharray:none"
   id="path3611"
   inkscape:connector-curvature="0" /><path
   d="m 5.95512,1.7187455 78.71375,0 c 2.31875,0.004 4.2275,1.92125 4.235,4.2375 l 0,101.2150045 c -0.007,2.3175 -1.91625,4.22625 -4.235,4.23625 l -78.71375,0 c -2.315,-0.01 -4.23125,-1.91875 -4.23625,-4.23625 l 0,-101.2150045 c 0.002,-2.31625 1.92125,-4.23375 4.23625,-4.2375"
   style="fill:#000000;fill-opacity:1;fill-rule:evenodd;stroke:none"
   id="path3635"
   inkscape:connector-curvature="0" /><path
   d="m 86.56012,40.626115 0,66.513755 c 0.02,1.05625 -0.86625,1.94125 -1.92125,1.92375 l -78.655,0 c -1.05625,0.0175 -1.935,-0.8675 -1.92125,-1.92375 l 0,-66.513755 82.4975,0"
   style="fill:#ffffff;fill-opacity:1;fill-rule:evenodd;stroke:none"
   id="path3639"
   inkscape:connector-curvature="0" /><path
   d="m 69.33875,36.868615 0,-2.13125 -6.985,0 0,-2.76125 3.945,0 0,-2.17 -3.945,0 0,-2.05125 6.82625,0 0,-2.12875 -8.955,0 0,11.2425 9.11375,0 z m -12.23125,0 0,-11.2425 -2.17125,0 0,7.84875 -6.3125,-7.84875 -2.09,0 0,11.2425 2.12875,0 0,-7.77125 6.31375,7.77125 2.13125,0 z m -17.12375,-4.61625 -3.70875,0 1.855,-3.90625 1.85375,3.90625 z m 4.5375,4.61625 -5.32625,-11.2425 -2.13125,0 -5.325,11.2425 2.365,0 1.185,-2.44625 5.7225,0 1.1425,2.44625 2.3675,0 z m -13.6125,0 0,-2.13125 -7.5325,0 0,-9.11125 -2.13125,0 0,11.2425 9.66375,0 z"
   style="fill:#ffffff;fill-opacity:1;fill-rule:evenodd;stroke:none"
   id="path3647"
   inkscape:connector-curvature="0" /><path
   d="m 69.1925,91.251115 -2.7225,0 -3.66875,4.61375 -3.67,-4.61375 -2.7225,0 5.3275,6.70625 0,4.536255 2.12875,0 0,-4.536255 5.3275,-6.70625 z m -10.06125,11.242505 0,-2.12875 -7.53375,0 0,-9.113755 -2.13125,0 0,11.242505 9.665,0 z m -12.78375,0 0,-11.242505 -2.1675,0 0,7.84875 -6.31375,-7.84875 -2.0925,0 0,11.242505 2.13125,0 0,-7.771255 6.31375,7.771255 2.12875,0 z M 31.00125,96.812365 c 0,2.05375 -1.69375,3.708755 -3.745,3.708755 -2.05375,0 -3.75,-1.655005 -3.75,-3.708755 0,-2.01125 1.69625,-3.58875 3.75,-3.58875 2.05125,0 3.745,1.61625 3.745,3.6275 l 0,-0.0387 z m 2.13125,0 c 0,-3.115 -2.76125,-5.75875 -5.87625,-5.75875 -3.315,0 -5.87875,2.52375 -5.87875,5.7975 0,3.196255 2.6825,5.847505 5.87875,5.847505 3.19625,0 5.87625,-2.65125 5.87625,-5.886255"
   style="fill:#000000;fill-opacity:1;fill-rule:evenodd;stroke:none"
   id="path3651"
   inkscape:connector-curvature="0" /><path
   inkscape:connector-curvature="0"
   style="fill:#000000;fill-opacity:1;fill-rule:evenodd;stroke:none"
   d="m 35.79332,45.187995 0,1.28125 0,0.5 c 0,0.26625 0.23125,0.46875 0.5,0.46875 l 0.21875,0 c 0.27125,0 0.5,-0.2025 0.5,-0.46875 l 0,-0.5 5.8125,0 c -0.0637,0.14125 -0.0937,0.28125 -0.0937,0.4375 0,0.59875 0.5125,1.15125 1.25,1.4375 l -6.5,0 c -0.75875,0 -1.54375,-0.02 -2.28125,0.1875 -0.7425,0.21 -1.395,0.6525 -1.9375,1.1875 -0.5825,0.575 -1.02,1.27375 -1.125,2.09375 l -1.75,13.875 0.625,5.65625 -0.4375,0.59375 0,3.21875 5.875,0 -0.53125,0.875 -1.8125,0 -0.96875,1.84375 1.78125,0 -0.78125,1.375 -1.78125,0 -1.09375,2.03125 1.8125,0 -0.9375,1.6875 -1.78125,0 -1.34375,2.25 1.90625,0 -0.65625,1.21875 1.78125,0 0.71875,-1.21875 24.96875,0 0.6875,1.21875 1.8125,0 -0.625,-1.21875 1.71875,0 -1.1875,-2.25 -1.78125,0 -0.9375,-1.6875 1.78125,0 -1.03125,-2.03125 -1.90625,0 -0.6875,-1.375 1.8125,0 -1.09375,-1.84375 -1.71875,0 -0.5625,-0.875 6.15625,0 -0.0312,-3.1875 -0.46875,-0.6875 0.59375,-4.96875 -1.8125,-13.9375 c -0.1175,-0.915 -0.34,-1.83875 -0.90625,-2.59375 -0.325,-0.435 -0.75,-0.81 -1.21875,-1.09375 -0.36625,-0.22 -0.755,-0.34375 -1.1875,-0.34375 l -8.625,0 c 0.7375,-0.28625 1.25,-0.83875 1.25,-1.4375 0,-0.15625 -0.0325,-0.29625 -0.0937,-0.4375 l 5.9375,0 0,0.5 c 0,0.26625 0.23125,0.46875 0.5,0.46875 l 0.21875,0 c 0.26875,0 0.5,-0.2025 0.5,-0.46875 l 0,-0.5 0,-1.28125 -19.03125,0 z m 9.46875,1.5 c 0.4025,0 0.75,0.20125 0.75,0.4375 0,0.2375 -0.3475,0.4375 -0.75,0.4375 -0.4025,0 -0.71875,-0.2 -0.71875,-0.4375 0,-0.23625 0.31625,-0.4375 0.71875,-0.4375 z m -7.34375,2.40625 14.625,0 0,3.3125 -14.625,0 0,-3.3125 z m 6.21875,4.15625 0,9.84375 -11.875,0 1.03125,-8.96875 10.84375,-0.875 z m 2.1875,0.0312 11.15625,0.75 0.90625,9.0625 -12.0625,0 0,-9.8125 z m 7.625,14.03125 c 0.1451,0.004 0.29781,0.0394 0.4375,0.0937 0.33,0.12875 0.51875,0.36375 0.6875,0.65625 0.15875,-0.2875 0.3725,-0.5325 0.6875,-0.65625 0.55625,-0.2175 1.19875,0.01 1.53125,0.5 0.24875,0.36375 0.305,0.81375 0.125,1.21875 -0.25625,0.57875 -0.8225,0.85 -1.4375,0.75 -0.4275,-0.0675 -0.71375,-0.3575 -0.90625,-0.71875 -0.15625,0.29 -0.365,0.53625 -0.6875,0.65625 -0.54875,0.2075 -1.22875,0.02 -1.5625,-0.46875 -0.3025,-0.44125 -0.295,-0.99 0,-1.4375 0.25125,-0.37687 0.68971,-0.60641 1.125,-0.59375 z m -19.53125,0.0313 c 0.1441,0.004 0.29781,0.0406 0.4375,0.0937 0.32,0.1225 0.52625,0.365 0.6875,0.65625 0.15875,-0.29375 0.39875,-0.53125 0.71875,-0.65625 0.5525,-0.21 1.19375,-0.015 1.53125,0.46875 0.305,0.435 0.2975,1.00125 0,1.4375 -0.3375,0.49125 -0.97375,0.7125 -1.53125,0.5 -0.32,-0.125 -0.55875,-0.3675 -0.71875,-0.65625 -0.16125,0.28875 -0.3675,0.53375 -0.6875,0.65625 -0.56375,0.2175 -1.1875,-0.004 -1.53125,-0.5 -0.29875,-0.43375 -0.30125,-1.0025 0,-1.4375 0.25406,-0.36656 0.66145,-0.57369 1.09375,-0.5625 z m -1.09375,4.34375 24.21875,0 0,0.875 -24.21875,0 0,-0.875 z m 4.90625,3.46875 14.09375,0 0.46875,0.875 -15.09375,0 0.53125,-0.875 z m -1.46875,2.8125 16.96875,0 0.75,1.3125 -18.5,0 0.78125,-1.3125 z m -1.84375,3.40625 20.65625,0 0.9375,1.6875 -22.53125,0 0.9375,-1.6875 z"
   id="path3655" /><path
   d="m 67.136377,9.105126 0,-2.13 -9.66625,0 0,2.13 3.86625,0 0,9.11375 2.13,0 0,-9.11375 3.67,0 z m -11.16625,0 0,-2.13 -9.11375,0 0,11.24375 2.13,0 0,-4.8925 4.1825,0 0,-2.17 -4.1825,0 0,-2.05125 6.98375,0 z m -11.7575,9.11375 0,-2.131249 -6.982501,0 0,-2.761251 3.945,0 0,-2.17 -3.945,0 0,-2.05125 6.825001,0 0,-2.13 -8.956251,0 0,11.24375 9.113751,0 z m -11.086251,0 0,-2.131249 -7.535,0 0,-9.112501 -2.13,0 0,11.24375 9.665,0 z"
   style="fill:#ffffff;fill-opacity:1;fill-rule:evenodd;stroke:none"
   id="path3783"
   inkscape:connector-curvature="0" /></svg>