<?xml version="1.0" encoding="UTF-8" standalone="no"?>
<!-- Generator: Adobe Illustrator 16.0.0, SVG Export Plug-In . SVG Version: 6.00 Build 0)  -->

<svg
   xmlns:dc="http://purl.org/dc/elements/1.1/"
   xmlns:cc="http://creativecommons.org/ns#"
   xmlns:rdf="http://www.w3.org/1999/02/22-rdf-syntax-ns#"
   xmlns:svg="http://www.w3.org/2000/svg"
   xmlns="http://www.w3.org/2000/svg"
   xmlns:sodipodi="http://sodipodi.sourceforge.net/DTD/sodipodi-0.dtd"
   xmlns:inkscape="http://www.inkscape.org/namespaces/inkscape"
   version="1.1"
   id="Layer_1"
   x="0px"
   y="0px"
   width="90.59375"
   height="113.09375"
   viewBox="0 0 90.593752 113.09375"
   enable-background="new 0 0 850.394 425.197"
   xml:space="preserve"
   inkscape:version="0.48.2 r9819"
   sodipodi:docname="MUTCD R15-5.svg"><metadata
   id="metadata37"><rdf:RDF><cc:Work
       rdf:about=""><dc:format>image/svg+xml</dc:format><dc:type
         rdf:resource="http://purl.org/dc/dcmitype/StillImage" /><dc:title></dc:title></cc:Work></rdf:RDF></metadata><defs
   id="defs35" /><sodipodi:namedview
   pagecolor="#ffffff"
   bordercolor="#666666"
   borderopacity="1"
   objecttolerance="10"
   gridtolerance="10"
   guidetolerance="10"
   inkscape:pageopacity="0"
   inkscape:pageshadow="2"
   inkscape:window-width="1280"
   inkscape:window-height="1004"
   id="namedview33"
   showgrid="false"
   fit-margin-top="0"
   fit-margin-left="0"
   fit-margin-right="0"
   fit-margin-bottom="0"
   inkscape:zoom="5.6568543"
   inkscape:cx="33.205962"
   inkscape:cy="46.37647"
   inkscape:window-x="-8"
   inkscape:window-y="-8"
   inkscape:window-maximized="1"
   inkscape:current-layer="Layer_1"
   showguides="true"
   inkscape:guide-bbox="true" />













<path
   d="m 5.93291,0.28972775 78.750001,0 c 3.09875,0 5.625,2.52625005 5.625,5.62500005 l 0,101.2487522 c 0,3.0975 -2.52625,5.625 -5.625,5.625 l -78.750001,0 c -3.09875,0 -5.625,-2.5275 -5.625,-5.625 l 0,-101.2487522 c 0,-3.06 2.56625,-5.62500005 5.625,-5.62500005"
   style="fill:#ffffff;fill-opacity:1;fill-rule:nonzero;stroke:#000000;stroke-width:0.60000001;stroke-linecap:butt;stroke-linejoin:miter;stroke-miterlimit:4;stroke-opacity:1;stroke-dasharray:none"
   id="path3955"
   inkscape:connector-curvature="0" /><path
   d="m 5.95153,1.6959778 78.713751,0 c 2.3175,0.005 4.22625,1.92125 4.23625,4.235 l 0,101.2150022 c -0.01,2.31875 -1.91875,4.22875 -4.23625,4.23625 l -78.713751,0 c -2.31625,-0.008 -4.23375,-1.9175 -4.2375,-4.23625 l 0,-101.2150022 c 0.004,-2.31375 1.92125,-4.2325 4.2375,-4.235"
   style="fill:#000000;fill-opacity:1;fill-rule:evenodd;stroke:none"
   id="path3959"
   inkscape:connector-curvature="0" /><path
   d="m 5.98041,4.0397278 78.653751,0 c 1.0575,-0.015 1.94125,0.86375 1.92375,1.92125 l 0,101.1562522 c 0.0175,1.05375 -0.86625,1.94 -1.92375,1.92125 l -78.653751,0 c -1.05875,0.0187 -1.93875,-0.8675 -1.9225,-1.92125 l 0,-101.1562522 c -0.015,-1.0575 0.8625,-1.93625 1.9225,-1.92125"
   style="fill:#ffffff;fill-opacity:1;fill-rule:evenodd;stroke:none"
   id="path3963"
   inkscape:connector-curvature="0" /><path
   d="m 32.81778,22.758478 c 0,1.73375 -0.105,2.63 -0.4725,3.83875 -0.36875,1.26125 -0.9475,1.84 -1.84125,1.84 -0.9475,0 -1.525,-0.57875 -1.89375,-1.84 -0.315,-1.20875 -0.47375,-2.15625 -0.47375,-3.7875 0,-1.68125 0.105,-2.6825 0.47375,-3.83875 0.36875,-1.2625 0.94625,-1.84125 1.89375,-1.84125 0.89375,0 1.4725,0.57875 1.84125,1.8925 0.315,1.105 0.4725,2.0525 0.4725,3.73625 m 2.05125,0 c 0,-2.2625 -0.21,-3.6825 -0.84125,-5.155 -0.73625,-1.84 -1.78875,-2.5775 -3.52375,-2.5775 -1.735,0 -2.7875,0.7375 -3.5775,2.52375 -0.63125,1.42125 -0.84125,2.94625 -0.84125,5.20875 0,2.3125 0.21,3.73375 0.84125,5.205 0.73625,1.79 1.78875,2.58875 3.5775,2.58875 1.6825,0 2.7875,-0.79875 3.52375,-2.58875 0.63125,-1.4175 0.84125,-2.8925 0.84125,-5.205 m -13.570001,0.105 c 0,1.1575 -0.10625,2.2075 -0.21125,3.155 -0.21,1.15625 -0.89375,2.1575 -2.15625,2.1575 l -1.7875,0 0,-10.7825 1.7875,0 c 0.9475,0 1.5775,0.47375 1.94625,1.52375 0.26375,0.63125 0.42125,2.2625 0.42125,3.94625 m 2.103751,-0.105 c 0,-1.1575 -0.1575,-2.4725 -0.36875,-3.5775 -0.26125,-1.52625 -0.893751,-2.68375 -1.787501,-3.3125 -0.52625,-0.4225 -1.1575,-0.57875 -2.42,-0.57875 l -3.84,0 0,14.98875 4.155,0 c 0.8425,0 1.57875,-0.21 2.105,-0.68375 1.472501,-1.1575 2.156251,-3.36625 2.156251,-6.83625"
   style="fill:#000000;fill-opacity:1;fill-rule:evenodd;stroke:none"
   id="path3967"
   inkscape:connector-curvature="0" /><path
   d="m 64.45653,48.677104 c 0,-2.15625 -1.26125,-3.7875 -4.15375,-5.47125 -1.10625,-0.63 -1.42125,-1.0525 -1.42125,-1.7875 0,-1.00125 0.78875,-1.73625 1.78875,-1.73625 0.94625,0 1.68375,0.68375 1.735,1.73625 l 2.05125,0 c -0.0525,-2.26375 -1.6825,-3.89375 -3.78625,-3.89375 -2.1575,0 -3.83875,1.735 -3.83875,3.89375 0,1.31375 0.63,2.47125 1.84,3.3125 3.05,2.05125 2.20875,1.4725 2.525,1.79 0.89375,0.68375 1.20875,1.31375 1.20875,2.15625 0,1.2075 -0.94625,2.26 -2.1025,2.26 -1.47375,0 -2.10375,-1.31375 -2.10375,-2.575 l -2.105,0 c 0,2.47 1.57875,4.69 4.20875,4.69 2.31375,0 4.15375,-1.95625 4.15375,-4.375 m -10.15125,0 c 0,-2.15625 -1.2625,-3.7875 -4.155,-5.47125 -1.105,-0.63 -1.42,-1.0525 -1.42,-1.7875 0,-1.00125 0.78875,-1.73625 1.7875,-1.73625 0.9475,0 1.685,0.68375 1.73625,1.73625 l 2.05125,0 c -0.0525,-2.26375 -1.6825,-3.89375 -3.7875,-3.89375 -2.15625,0 -3.83875,1.735 -3.83875,3.89375 0,1.31375 0.63125,2.47125 1.84125,3.3125 3.05,2.05125 2.20875,1.4725 2.525,1.79 0.89375,0.68375 1.20875,1.31375 1.20875,2.15625 0,1.2075 -0.94625,2.26 -2.10375,2.26 -1.47375,0 -2.10375,-1.31375 -2.10375,-2.575 l -2.10375,0 c 0,2.47 1.5775,4.69 4.2075,4.69 2.315,0 4.155,-1.95625 4.155,-4.375 m -13.4125,-2.105 -2.15625,0 1.0525,-4.31375 1.10375,4.31375 z m 3.735,6.20625 -3.735,-14.99 -2.10375,0 -3.73375,14.99 2.155,0 1,-4.10125 3.20875,0 1.05125,4.10125 2.1575,0 z M 32.05653,41.997104 c 0,1.3675 -0.6825,2.155 -1.94625,2.155 l -2.20875,0 0,-4.26 2.20875,0 c 1.1575,0 1.94625,0.8425 1.94625,2.105 m 2.10375,0 c 0,-2.5275 -1.57875,-4.20875 -3.94375,-4.20875 l -4.47125,0 0,14.99 2.15625,0 0,-6.575 2.315,0 c 2.52375,0 3.94375,-1.4725 3.94375,-4.20625"
   style="fill:#000000;fill-opacity:1;fill-rule:evenodd;stroke:none"
   id="path3971"
   inkscape:connector-curvature="0" /><path
   d="m 78.499041,67.863479 c 0,1.1575 -0.105,2.21 -0.21,3.155 -0.21,1.15625 -0.89375,2.1575 -2.15625,2.1575 l -1.78875,0 0,-10.78375 1.78875,0 c 0.9475,0 1.5775,0.47375 1.94625,1.52625 0.26375,0.63 0.42,2.26125 0.42,3.945 m 2.10375,-0.105 c 0,-1.1575 -0.15875,-2.4725 -0.36875,-3.57875 -0.26375,-1.52375 -0.8925,-2.68125 -1.78625,-3.3125 -0.5275,-0.42 -1.1575,-0.57875 -2.42,-0.57875 l -3.84,0 0,14.9925 4.155,0 c 0.8425,0 1.5775,-0.2125 2.105,-0.68625 1.47125,-1.1575 2.155,-3.36375 2.155,-6.83625 m -10.94,7.5225 0,-2.105 -5.471251,0 0,-4.94625 3.105,0 0,-2.05 -3.105,0 0,-3.7875 4.892501,0 0,-2.10375 -7.047501,0 0,14.9925 7.626251,0 z M 57.88154,64.497229 c 0,1.3675 -0.68375,2.155 -1.94625,2.155 l -2.21,0 0,-4.26 2.21,0 c 1.1575,0 1.94625,0.8425 1.94625,2.105 m 2.10375,0 c 0,-2.525 -1.5775,-4.20875 -3.945,-4.20875 l -4.47,0 0,14.9925 2.155,0 0,-6.5775 2.315,0 c 2.52375,0 3.945,-1.4725 3.945,-4.20625 m -12.57,0 c 0,1.3675 -0.685,2.155 -1.9475,2.155 l -2.21,0 0,-4.26 2.21,0 c 1.1575,0 1.9475,0.8425 1.9475,2.105 m 2.1025,0 c 0,-2.525 -1.57875,-4.20875 -3.945,-4.20875 l -4.47,0 0,14.9925 2.155,0 0,-6.5775 2.315,0 c 2.525,0 3.945,-1.4725 3.945,-4.20625 m -13.465,3.26125 c 0,1.73625 -0.105,2.63 -0.4725,3.83875 -0.36875,1.26125 -0.9475,1.84 -1.8425,1.84 -0.94625,0 -1.525,-0.57875 -1.8925,-1.84 -0.315,-1.20875 -0.47375,-2.15625 -0.47375,-3.7875 0,-1.68125 0.105,-2.6825 0.47375,-3.84 0.3675,-1.2625 0.94625,-1.84125 1.8925,-1.84125 0.895,0 1.47375,0.57875 1.8425,1.895 0.315,1.10375 0.4725,2.05125 0.4725,3.735 m 2.05125,0 c 0,-2.2625 -0.21125,-3.68375 -0.8425,-5.15625 -0.735,-1.84 -1.7875,-2.5775 -3.52375,-2.5775 -1.73625,0 -2.78625,0.7375 -3.57625,2.52625 -0.63125,1.41875 -0.84125,2.945 -0.84125,5.2075 0,2.315 0.21,3.73375 0.84125,5.2075 0.73625,1.7875 1.7875,2.58625 3.57625,2.58625 1.68375,0 2.78875,-0.79875 3.52375,-2.58625 0.63125,-1.42 0.8425,-2.8925 0.8425,-5.2075 m -10.57375,-5.47125 0,-1.99875 -7.625001,0 0,1.99875 2.735,0 0,12.99375 2.156251,0 0,-12.99375 2.73375,0 z m -8.993751,8.89 c 0,-2.15625 -1.2625,-3.7875 -4.155,-5.47125 -1.10375,-0.63 -1.42,-1.0525 -1.42,-1.7875 0,-1.00125 0.79,-1.73625 1.78875,-1.73625 0.9475,0 1.6825,0.68375 1.735,1.73625 l 2.05125,0 c -0.05125,-2.26375 -1.6825,-3.89375 -3.78625,-3.89375 -2.15625,0 -3.84125,1.735 -3.84125,3.89375 0,1.31375 0.6325,2.47125 1.8425,3.3125 3.05125,2.05125 2.20875,1.4725 2.525,1.79 0.89375,0.68375 1.20875,1.31375 1.20875,2.15625 0,1.21 -0.94625,2.26 -2.10375,2.26 -1.4725,0 -2.10375,-1.31375 -2.10375,-2.575 l -2.102499,0 c 0,2.47 1.576249,4.69 4.206249,4.69 2.31375,0 4.155,-1.95625 4.155,-4.375"
   style="fill:#000000;fill-opacity:1;fill-rule:evenodd;stroke:none"
   id="path3975"
   inkscape:connector-curvature="0" /><path
   d="m 67.73166,97.780855 0,-14.9925 -2.155,0 0,8.99375 -4.10375,-8.99375 -2.15625,0 0,14.9925 2.15625,0 0,-10.04875 4.62875,10.04875 1.63,0 z m -11.67625,-14.9925 -2.10375,0 0,14.9925 2.10375,0 0,-14.9925 z m -7.89,8.78375 -2.155,0 1.05,-4.31375 1.105,4.31375 z m 3.73375,6.20875 -3.73375,-14.9925 -2.10375,0 -3.735,14.9925 2.1575,0 0.99875,-4.10375 3.20875,0 1.0525,4.10375 2.155,0 z M 38.90791,86.787105 c 0,1.20875 -0.68375,1.8925 -1.94625,1.8925 l -2.20875,0 0,-3.7875 2.20875,0 c 1.1575,0 1.94625,0.7375 1.94625,1.895 m 2.10375,10.99375 -2.155,-7.36625 c 1.41875,-0.525 2.155,-1.84 2.155,-3.6275 0,-2.4225 -1.57625,-3.99875 -3.945,-3.99875 l -4.47,0 0,14.9925 2.15625,0 0,-7.05125 2.05,0 2,7.05125 2.20875,0 z m -10.46625,-12.99375 0,-1.99875 -7.62625,0 0,1.99875 2.73375,0 0,12.99375 2.15625,0 0,-12.99375 2.73625,0 z"
   style="fill:#000000;fill-opacity:1;fill-rule:evenodd;stroke:none"
   id="path3979"
   inkscape:connector-curvature="0" /><path
   d="m 75.574161,17.288353 0,-1.99875 -7.62625,0 0,1.99875 2.73625,0 0,12.99 2.155,0 0,-12.99 2.735,0 z m -11.518751,5.47 c 0,1.73375 -0.105,2.63 -0.47375,3.83875 -0.3675,1.26125 -0.94625,1.84 -1.84125,1.84 -0.94625,0 -1.525,-0.57875 -1.8925,-1.84 -0.31625,-1.20875 -0.4725,-2.15625 -0.4725,-3.7875 0,-1.68125 0.105,-2.6825 0.4725,-3.83875 0.3675,-1.2625 0.94625,-1.84125 1.8925,-1.84125 0.895,0 1.47375,0.57875 1.84125,1.8925 0.31625,1.105 0.47375,2.0525 0.47375,3.73625 m 2.05125,0 c 0,-2.2625 -0.21,-3.6825 -0.84,-5.155 -0.7375,-1.84 -1.79,-2.5775 -3.52625,-2.5775 -1.735,0 -2.7875,0.7375 -3.57625,2.52375 -0.63125,1.42125 -0.84125,2.94625 -0.84125,5.20875 0,2.3125 0.21,3.73375 0.84125,5.205 0.7375,1.79 1.79,2.58875 3.57625,2.58875 1.68375,0 2.78875,-0.79875 3.52625,-2.58875 0.63,-1.4175 0.84,-2.8925 0.84,-5.205 m -11.72875,7.52 0,-14.98875 -2.15625,0 0,8.9925 -4.10375,-8.9925 -2.15625,0 0,14.98875 2.15625,0 0,-10.04625 4.62875,10.04625 1.63125,0 z"
   style="fill:#000000;fill-opacity:1;fill-rule:evenodd;stroke:none"
   id="path3983"
   inkscape:connector-curvature="0" /></svg>