<?xml version="1.0" encoding="UTF-8" standalone="no"?>
<!-- Generator: Adobe Illustrator 16.0.0, SVG Export Plug-In . SVG Version: 6.00 Build 0)  -->

<svg
   xmlns:dc="http://purl.org/dc/elements/1.1/"
   xmlns:cc="http://creativecommons.org/ns#"
   xmlns:rdf="http://www.w3.org/1999/02/22-rdf-syntax-ns#"
   xmlns:svg="http://www.w3.org/2000/svg"
   xmlns="http://www.w3.org/2000/svg"
   xmlns:sodipodi="http://sodipodi.sourceforge.net/DTD/sodipodi-0.dtd"
   xmlns:inkscape="http://www.inkscape.org/namespaces/inkscape"
   version="1.1"
   id="Layer_1"
   x="0px"
   y="0px"
   width="90.625"
   height="90.625"
   viewBox="0 0 90.625002 90.625"
   enable-background="new 0 0 850.394 425.197"
   xml:space="preserve"
   inkscape:version="0.48.2 r9819"
   sodipodi:docname="AJAX1.svg"><metadata
   id="metadata37"><rdf:RDF><cc:Work
       rdf:about=""><dc:format>image/svg+xml</dc:format><dc:type
         rdf:resource="http://purl.org/dc/dcmitype/StillImage" /><dc:title></dc:title></cc:Work></rdf:RDF></metadata><defs
   id="defs35" /><sodipodi:namedview
   pagecolor="#ffffff"
   bordercolor="#666666"
   borderopacity="1"
   objecttolerance="10"
   gridtolerance="10"
   guidetolerance="10"
   inkscape:pageopacity="0"
   inkscape:pageshadow="2"
   inkscape:window-width="1280"
   inkscape:window-height="1004"
   id="namedview33"
   showgrid="false"
   fit-margin-top="0"
   fit-margin-left="0"
   fit-margin-right="0"
   fit-margin-bottom="0"
   inkscape:zoom="4"
   inkscape:cx="27.013306"
   inkscape:cy="37.174603"
   inkscape:window-x="-8"
   inkscape:window-y="-8"
   inkscape:window-maximized="1"
   inkscape:current-layer="Layer_1"
   showguides="true"
   inkscape:guide-bbox="true" />













<path
   d="m 5.9375,0.312497 78.750002,0 c 3.0975,0 5.625,2.5275 5.625,5.625 l 0,78.750002 c 0,3.09875 -2.5275,5.625 -5.625,5.625 l -78.750002,0 c -3.09875,0 -5.6250001,-2.52625 -5.6250001,-5.625 l 0,-78.750002 c 0,-3.05875 2.5662501,-5.625 5.6250001,-5.625"
   style="fill:#ffffff;fill-opacity:1;fill-rule:nonzero;stroke:#000000;stroke-width:0.60000001;stroke-linecap:butt;stroke-linejoin:miter;stroke-miterlimit:4;stroke-opacity:1;stroke-dasharray:none"
   id="path4129"
   inkscape:connector-curvature="0" /><path
   d="m 5.955,1.718747 78.715002,0 c 2.32,0.005 4.22875,1.92125 4.23625,4.23625 l 0,78.715002 c -0.0075,2.3175 -1.91625,4.22625 -4.23625,4.23625 l -78.715002,0 c -2.315,-0.01 -4.2325001,-1.91875 -4.2362501,-4.23625 l 0,-78.715002 C 1.7224999,3.639997 3.64,1.721247 5.955,1.718747"
   style="fill:#000000;fill-opacity:1;fill-rule:evenodd;stroke:none"
   id="path4133"
   inkscape:connector-curvature="0" /><path
   d="m 5.98625,4.062497 78.655002,0 c 1.05375,-0.015 1.94,0.86375 1.92125,1.92125 l 0,78.655002 c 0.01875,1.0575 -0.8675,1.94125 -1.92125,1.92375 l -78.655002,0 c -1.06,0.0175 -1.93875,-0.86625 -1.92375,-1.92375 l 0,-78.655002 c -0.015,-1.0575 0.86375,-1.93625 1.92375,-1.92125"
   style="fill:#ffffff;fill-opacity:1;fill-rule:evenodd;stroke:none"
   id="path4137"
   inkscape:connector-curvature="0" /><path
   d="m 65.214881,13.422377 c 0,1.02625 -0.36875,1.71 -1.1575,2.12875 -0.3175,0.18375 -0.68375,0.29125 -1.07875,0.29125 l -1.0525,0 0,-4.815 1.0525,0 c 0.395,0 0.78875,0.105 1.13,0.29125 0.7375,0.42 1.10625,1.10375 1.10625,2.10375 m 1.34,0 c 0,-1.47375 -0.63,-2.605 -1.7875,-3.26125 -0.55375,-0.3175 -1.15625,-0.47375 -1.78875,-0.47375 l -2.42,0 0,7.495 2.42,0 c 0.605,0 1.235,-0.15875 1.7625,-0.44625 1.18375,-0.6575 1.81375,-1.81375 1.81375,-3.31375 m -7.495,3.76 0,-1.34 -4.23625,0 0,-2.05375 2.23625,0 0,-1.36625 -2.23625,0 0,-1.395 4.10375,0 0,-1.34 -5.4725,0 0,7.495 5.605,0 z m -8.655,-3.76 c 0,1.02625 -0.36875,1.71 -1.16,2.12875 -0.315,0.18375 -0.68375,0.29125 -1.07625,0.29125 l -1.0525,0 0,-4.815 1.0525,0 c 0.3925,0 0.78875,0.105 1.13,0.29125 0.7375,0.42 1.10625,1.10375 1.10625,2.10375 m 1.34,0 c 0,-1.47375 -0.6325,-2.605 -1.78875,-3.26125 -0.5525,-0.3175 -1.1575,-0.47375 -1.7875,-0.47375 l -2.42,0 0,7.495 2.42,0 c 0.605,0 1.235,-0.15875 1.7625,-0.44625 1.18125,-0.6575 1.81375,-1.81375 1.81375,-3.31375 m -7.9175,-3.735 -1.3425,0 0,7.495 1.3425,0 0,-7.495 z m -2.5775,0 -1.4475,0 -2.05125,5.47125 -2.05125,-5.47125 -1.4475,0 2.76125,7.495 1.4475,0 2.78875,-7.495 z m -8.2325,0 -1.3425,0 0,7.495 1.3425,0 0,-7.495 z m -4.395,3.735 c 0,1.02625 -0.36875,1.71 -1.15625,2.12875 -0.315,0.18375 -0.68375,0.29125 -1.08,0.29125 l -1.0525,0 0,-4.815 1.0525,0 c 0.39625,0 0.78875,0.105 1.1325,0.29125 0.735,0.42 1.10375,1.10375 1.10375,2.10375 m 1.34375,0 c 0,-1.47375 -0.6325,-2.605 -1.79,-3.26125 -0.5525,-0.3175 -1.1575,-0.47375 -1.79,-0.47375 l -2.41875,0 0,7.495 2.41875,0 c 0.60625,0 1.2375,-0.15875 1.7625,-0.44625 1.185,-0.6575 1.8175,-1.81375 1.8175,-3.31375"
   style="fill:#000000;fill-opacity:1;fill-rule:evenodd;stroke:none"
   id="path4141"
   inkscape:connector-curvature="0" /><path
   d="m 69.992502,73.437499 -1.6575,0 -2.156251,3.05125 -2.1825,-3.05125 -1.6575,0 3.15625,4.44375 0,3.05125 1.34125,0 0,-3.05125 3.156251,-4.44375 z m -9.943751,4.3925 -2.105,0 1.0525,-2.525 1.0525,2.525 z m 2.76375,3.1025 -3.13,-7.495 -1.37,0 -3.15625,7.495 1.475,0 0.73375,-1.7625 3.2625,0 0.7375,1.7625 1.4475,0 z m -8.235,-7.495 -1.3675,0 -0.76375,4.83875 -1.1575,-4.83875 -1.34,0 -1.10625,4.83875 -0.815,-4.83875 -1.395,0 1.3675,7.495 1.42125,0 1.18375,-5.02125 1.21125,5.02125 1.42125,0 1.34,-7.495 z m -9.20625,7.495 0,-7.495 -1.34125,0 0,2.89375 -3.36875,0 0,-2.89375 -1.34,0 0,7.495 1.34,0 0,-3.26125 3.36875,-0.0275 0,3.28875 1.34125,0 z m -10.39125,-3.735 0,1.3425 1.23625,0 c -0.18375,0.68375 -0.84,1.18375 -1.5775,1.18375 -1.39375,0 -1.7625,-1.3425 -1.7625,-2.55125 0,-1.47375 0.71,-2.52625 1.7625,-2.52625 0.65625,0 1.13,0.36875 1.42125,1.00125 l 1.36625,-0.47375 c -0.525,-1.1575 -1.4475,-1.8675 -2.7875,-1.8675 -1.8675,0 -3.10625,1.57625 -3.10625,3.86625 0,1.94625 0.89625,3.8975 3.10625,3.8975 1.6575,0 2.97375,-1.2675 2.97375,-2.89875 l 0,-0.97375 -2.6325,0 z m -5.12875,-3.76 -1.34375,0 0,7.495 1.34375,0 0,-7.495 z m -3.28875,7.495 0,-7.495 -1.3425,0 0,2.89375 -3.367501,0 0,-2.89375 -1.34,0 0,7.495 1.34,0 0,-3.26125 3.367501,-0.0275 0,3.28875 1.3425,0 z"
   style="fill:#000000;fill-opacity:1;fill-rule:evenodd;stroke:none"
   id="path4145"
   inkscape:connector-curvature="0" /><path
   d="m 15.90075,39.300498 -2.545,0 0,2.98 2.545,0 0,-2.98 z m 5.6275,0 -2.5425,0 0,2.98 2.5425,0 0,-2.98 z m 5.626251,0 -2.54125,0 0,2.98 2.54125,0 0,-2.98 z m 5.6275,0 -2.54125,0 0,2.98 2.54125,0 0,-2.98 z m 5.6275,0 -2.54125,0 0,2.98 2.54125,0 0,-2.98 z m 4.0725,2.99 -0.98625,-0.01 0,-2.98 0.98625,0.0012 0,2.98875 z m -26.581251,6.7725 -2.545,0 0,2.97875 2.545,0 0,-2.97875 z m 5.6275,0 -2.5425,0 0,2.97875 2.5425,0 0,-2.97875 z m 5.626251,0 -2.54125,0 0,2.97875 2.54125,0 0,-2.97875 z m 5.6275,0 -2.54125,0 0,2.97875 2.54125,0 0,-2.97875 z m 5.6275,0 -2.54125,0 0,2.97875 2.54125,0 0,-2.97875 z m 4.0725,2.97375 -0.98625,0.005 0,-2.97875 0.98625,-0.0175 0,2.99125 z m 32.346251,-12.73625 2.54375,0 0,2.98 -2.54375,0 0,-2.98 z m -5.6275,0 2.54125,0 0,2.98 -2.54125,0 0,-2.98 z m -5.627501,0 2.54125,0 0,2.98 -2.54125,0 0,-2.98 z m -5.6275,0 2.54125,0 0,2.98 -2.54125,0 0,-2.98 z m -5.6275,0 2.5425,0 0,2.98 -2.5425,0 0,-2.98 z m -4.11625,2.99 1.03125,-0.01 0,-2.98 -1.03125,0.0012 0,2.98875 z m 26.626251,6.7725 2.54375,0 0,2.97875 -2.54375,0 0,-2.97875 z m -5.6275,0 2.54125,0 0,2.97875 -2.54125,0 0,-2.97875 z m -5.627501,0 2.54125,0 0,2.97875 -2.54125,0 0,-2.97875 z m -5.6275,0 2.54125,0 0,2.97875 -2.54125,0 0,-2.97875 z m -5.6275,0 2.5425,0 0,2.97875 -2.5425,0 0,-2.97875 z m -4.11625,2.97375 1.03125,0.005 0,-2.97875 -1.03125,-0.0175 0,2.99125 z m 0,-4.355 1.03125,-0.01125 0,-0.8175 3.085,0 0,0.8175 2.5425,0 0,-0.8175 3.085,0 0,0.8175 2.54125,0 0,-0.8175 3.08625,0 0,0.8175 2.54125,0 0,-0.8175 3.086251,0 0,0.8175 2.54125,0 0,-0.8175 3.08625,0 0,0.8175 2.54375,0 0,-0.8175 3.08625,0 0,0.8175 0.69625,0 0,1.3925 -0.69625,0 0,2.97875 0.69625,0 0,1.38875 -0.69625,0 0,0.82 -3.08625,0 0,-0.82 -2.54375,0 0,0.82 -3.08625,0 0,-0.82 -2.54125,0 0,0.82 -3.086251,0 0,-0.82 -2.54125,0 0,0.82 -3.08625,0 0,-0.82 -2.54125,0 0,0.82 -3.085,0 0,-0.82 -2.5425,0 0,0.82 -3.085,0 0,-0.82 -1.03125,0.01 -0.01625,7.3 20.820001,0 -0.9475,-3.30625 c -0.126251,-0.45625 -0.180001,-0.795 0.06125,-1.1475 0.34125,-0.505 1.0325,-0.63625 1.5375,-0.2925 l 11.45375,7.95875 -11.45375,7.228751 c -0.505,0.345 -1.19625,0.2125 -1.5375,-0.2925 -0.230001,-0.3375 -0.187501,-0.68625 -0.0825,-1.10125 l 1.0425,-3.353751 -17.376251,0 c -1.81875,0 -3.5175,1.650001 -3.5175,3.658751 l -5.69875,0 0,-3.658751 -15.89875,0 0,-5.68875 15.89875,-0.005 -0.005,-7.3 -0.98625,-0.01 0,0.82 -3.08625,0 0,-0.82 -2.54125,0 0,0.82 -3.08625,0 0,-0.82 -2.54125,0 0,0.82 -3.08625,0 0,-0.82 -2.54125,0 0,0.82 -3.085001,0 0,-0.82 -2.5425,0 0,0.82 -3.085,0 0,-0.82 -2.545,0 0,0.82 -3.085,0 0,-0.82 -0.69625,0 0,-1.38875 0.69625,0 0,-2.97875 -0.69625,0 0,-1.3925 0.69625,0 0,-0.8175 3.085,0 0,0.8175 2.545,0 0,-0.8175 3.085,0 0,0.8175 2.5425,0 0,-0.8175 3.085001,0 0,0.8175 2.54125,0 0,-0.8175 3.08625,0 0,0.8175 2.54125,0 0,-0.8175 3.08625,0 0,0.8175 2.54125,0 0,-0.8175 3.08625,0 0,0.8175 0.98625,0.01125 0,-4.02375 -0.9425,0 0,0.83 -3.13,0 0,-0.8175 -2.54125,0 0,0.8175 -3.08625,0 0,-0.8175 -2.54125,0 0,0.8175 -3.08625,0 0,-0.8175 -2.54125,0 0,0.8175 -3.085001,0 0,-0.8175 -2.5425,0 0,0.8175 -3.085,0 0,-0.8175 -2.545,0 0,0.8175 -3.085,0 0,-0.8175 -0.69625,0 0,-1.39 0.69625,0 0,-2.98 -0.69625,0 0,-1.39 0.69625,0 0,-0.82 3.085,0 0,0.82 2.545,0 0,-0.82 3.085,0 0,0.82 2.5425,0 0,-0.82 3.085001,0 0,0.82 2.54125,0 0,-0.82 3.08625,0 0,0.82 2.54125,0 0,-0.82 3.08625,0 0,0.82 2.54125,0 0,-0.82 3.08625,0 0,0.82 0.98625,-0.0125 0.005,-3.7375 c -0.04375,-1.995 -1.91125,-3.47625 -3.945,-3.47625 -5.17125,0 -11.30875,-0.005 -16.916251,0 l 0.94875,3.29375 c 0.105001,0.41375 0.147501,0.76375 -0.0825,1.10125 -0.34125,0.505 -1.0325,0.63625 -1.5375,0.2925 L 9.50075,27.720498 20.9545,20.184247 c 0.505,-0.3425 1.19625,-0.2125 1.5375,0.2925 0.241251,0.35375 0.187501,0.69125 0.06125,1.15 l -0.98875,3.230001 c 14.608751,-0.0075 27.927501,0 42.510001,0 l 0,5.77375 -15.88875,0 0.01625,7.2675 1.03125,0.0125 0,-0.82 3.085,0 0,0.82 2.5425,0 0,-0.82 3.085,0 0,0.82 2.54125,0 0,-0.82 3.08625,0 0,0.82 2.54125,0 0,-0.82 3.086251,0 0,0.82 2.54125,0 0,-0.82 3.08625,0 0,0.82 2.54375,0 0,-0.82 3.08625,0 0,0.82 0.69625,0 0,1.39 -0.69625,0 0,2.98 0.69625,0 0,1.39 -0.69625,0 0,0.8175 -3.08625,0 0,-0.8175 -2.54375,0 0,0.8175 -3.08625,0 0,-0.8175 -2.54125,0 0,0.8175 -3.086251,0 0,-0.8175 -2.54125,0 0,0.8175 -3.08625,0 0,-0.8175 -2.54125,0 0,0.8175 -3.085,0 0,-0.8175 -2.5425,0 0,0.8175 -3.085,0 0,-0.83 -1.03125,0 0,4.02375 z"
   style="fill:#000000;fill-opacity:1;fill-rule:evenodd;stroke:none"
   id="path4147"
   inkscape:connector-curvature="0" /></svg>