<?xml version="1.0" encoding="UTF-8" standalone="no"?>
<!-- Generator: Adobe Illustrator 16.0.0, SVG Export Plug-In . SVG Version: 6.00 Build 0)  -->

<svg
   xmlns:dc="http://purl.org/dc/elements/1.1/"
   xmlns:cc="http://creativecommons.org/ns#"
   xmlns:rdf="http://www.w3.org/1999/02/22-rdf-syntax-ns#"
   xmlns:svg="http://www.w3.org/2000/svg"
   xmlns="http://www.w3.org/2000/svg"
   xmlns:sodipodi="http://sodipodi.sourceforge.net/DTD/sodipodi-0.dtd"
   xmlns:inkscape="http://www.inkscape.org/namespaces/inkscape"
   version="1.1"
   id="Layer_1"
   x="0px"
   y="0px"
   width="90.59375"
   height="90.59375"
   viewBox="0 0 90.593752 90.59375"
   enable-background="new 0 0 850.394 425.197"
   xml:space="preserve"
   inkscape:version="0.48.2 r9819"
   sodipodi:docname="MUTCD R15-6a.svg"><metadata
   id="metadata37"><rdf:RDF><cc:Work
       rdf:about=""><dc:format>image/svg+xml</dc:format><dc:type
         rdf:resource="http://purl.org/dc/dcmitype/StillImage" /><dc:title></dc:title></cc:Work></rdf:RDF></metadata><defs
   id="defs35" /><sodipodi:namedview
   pagecolor="#ffffff"
   bordercolor="#666666"
   borderopacity="1"
   objecttolerance="10"
   gridtolerance="10"
   guidetolerance="10"
   inkscape:pageopacity="0"
   inkscape:pageshadow="2"
   inkscape:window-width="1280"
   inkscape:window-height="1004"
   id="namedview33"
   showgrid="false"
   fit-margin-top="0"
   fit-margin-left="0"
   fit-margin-right="0"
   fit-margin-bottom="0"
   inkscape:zoom="5.6568543"
   inkscape:cx="30.992911"
   inkscape:cy="59.93559"
   inkscape:window-x="-8"
   inkscape:window-y="-8"
   inkscape:window-maximized="1"
   inkscape:current-layer="Layer_1"
   showguides="true"
   inkscape:guide-bbox="true" />













<path
   d="m 5.925481,0.28655969 78.748752,0 c 3.09875,0 5.624997,2.52750011 5.624997,5.62500021 l 0,78.7500021 c 0,3.09875 -2.526247,5.625 -5.624997,5.625 l -78.748752,0 c -3.09875,0 -5.625,-2.52625 -5.625,-5.625 l 0,-78.7500021 c 0,-3.0587501 2.56625,-5.62500021 5.625,-5.62500021"
   style="fill:#ffffff;fill-opacity:1;fill-rule:nonzero;stroke:#000000;stroke-width:0.60000001;stroke-linecap:butt;stroke-linejoin:miter;stroke-miterlimit:4;stroke-opacity:1;stroke-dasharray:none"
   id="path4095"
   inkscape:connector-curvature="0" /><path
   d="m 5.942981,1.6928097 78.713752,0 c 2.32,0.005 4.22875,1.9212501 4.23625,4.2362502 l 0,78.7150021 c -0.0075,2.32 -1.91625,4.22875 -4.23625,4.23625 l -78.713752,0 c -2.315,-0.0075 -4.2325,-1.91625 -4.23625,-4.23625 l 0,-78.7150021 c 0.0038,-2.3150001 1.92125,-4.2312502 4.23625,-4.2362502"
   style="fill:#000000;fill-opacity:1;fill-rule:evenodd;stroke:none"
   id="path4099"
   inkscape:connector-curvature="0" /><path
   d="m 5.972981,4.0365598 78.655002,0 c 1.055,-0.015 1.94125,0.8637501 1.92125,1.9237501 l 0,78.6550021 c 0.02,1.055 -0.86625,1.94125 -1.92125,1.92125 l -78.655002,0 c -1.05875,0.02 -1.93875,-0.86625 -1.9225,-1.92125 l 0,-78.6550021 c -0.015,-1.06 0.8625,-1.9387501 1.9225,-1.9237501"
   style="fill:#ffffff;fill-opacity:1;fill-rule:evenodd;stroke:none"
   id="path4103"
   inkscape:connector-curvature="0" /><path
   d="m 65.202862,13.39644 c 0,1.02625 -0.36875,1.71 -1.1575,2.12875 -0.3175,0.18625 -0.68375,0.29125 -1.07875,0.29125 l -1.0525,0 0,-4.815 1.0525,0 c 0.395,0 0.78875,0.1075 1.13,0.29125 0.7375,0.42 1.10625,1.10375 1.10625,2.10375 m 1.34,0 c 0,-1.47125 -0.63,-2.605 -1.7875,-3.26125 -0.55375,-0.315 -1.15625,-0.47375 -1.78875,-0.47375 l -2.42,0 0,7.495 2.42,0 c 0.605,0 1.235,-0.15625 1.7625,-0.44625 1.18375,-0.6575 1.81375,-1.81375 1.81375,-3.31375 m -7.495,3.76 0,-1.34 -4.23625,0 0,-2.05125 2.23625,0 0,-1.36875 -2.23625,0 0,-1.395 4.105,0 0,-1.34 -5.47375,0 0,7.495 5.605,0 z m -8.655,-3.76 c 0,1.02625 -0.36875,1.71 -1.16,2.12875 -0.31375,0.18625 -0.6825,0.29125 -1.07625,0.29125 l -1.0525,0 0,-4.815 1.0525,0 c 0.39375,0 0.78875,0.1075 1.13,0.29125 0.7375,0.42 1.10625,1.10375 1.10625,2.10375 m 1.34,0 c 0,-1.47125 -0.63125,-2.605 -1.78875,-3.26125 -0.5525,-0.315 -1.1575,-0.47375 -1.7875,-0.47375 l -2.41875,0 0,7.495 2.41875,0 c 0.60625,0 1.235,-0.15625 1.7625,-0.44625 1.1825,-0.6575 1.81375,-1.81375 1.81375,-3.31375 m -7.9175,-3.735 -1.3425,0 0,7.495 1.3425,0 0,-7.495 z m -2.5775,0 -1.4475,0 -2.05125,5.47125 -2.05,-5.47125 -1.45,0 2.7625,7.495 1.44875,0 2.7875,-7.495 z m -8.23375,0 -1.3425,0 0,7.495 1.3425,0 0,-7.495 z m -4.395,3.735 c 0,1.02625 -0.3675,1.71 -1.15625,2.12875 -0.315,0.18625 -0.68375,0.29125 -1.08,0.29125 l -1.05125,0 0,-4.815 1.05125,0 c 0.39625,0 0.79,0.1075 1.13375,0.29125 0.735,0.42 1.1025,1.10375 1.1025,2.10375 m 1.34375,0 c 0,-1.47125 -0.6325,-2.605 -1.79,-3.26125 -0.55125,-0.315 -1.1575,-0.47375 -1.79,-0.47375 l -2.41875,0 0,7.495 2.41875,0 c 0.60625,0 1.23875,-0.15625 1.76375,-0.44625 1.18375,-0.6575 1.81625,-1.81375 1.81625,-3.31375"
   style="fill:#000000;fill-opacity:1;fill-rule:evenodd;stroke:none"
   id="path4107"
   inkscape:connector-curvature="0" /><path
   d="m 69.979233,73.411561 -1.65625,0 -2.156251,3.05125 -2.1825,-3.05125 -1.6575,0 3.15625,4.44625 0,3.048751 1.34125,0 0,-3.048751 3.155001,-4.44625 z m -9.942501,4.3925 -2.105,0 1.0525,-2.525 1.0525,2.525 z m 2.76375,3.102501 -3.13,-7.495001 -1.37,0 -3.15625,7.495001 1.475,0 0.735,-1.760001 3.26125,0 0.7375,1.760001 1.4475,0 z m -8.235,-7.495001 -1.3675,0 -0.76375,4.83875 -1.1575,-4.83875 -1.34,0 -1.10625,4.83875 -0.815,-4.83875 -1.39375,0 1.36625,7.495001 1.42125,0 1.18375,-5.021251 1.21125,5.021251 1.42125,0 1.34,-7.495001 z m -9.20625,7.495001 0,-7.495001 -1.34,0 0,2.89375 -3.37,0 0,-2.89375 -1.34,0 0,7.495001 1.34,0 0,-3.258751 3.37,-0.0275 0,3.286251 1.34,0 z m -10.39125,-3.732501 0,1.34 1.23625,0 c -0.18375,0.683751 -0.84,1.183751 -1.57875,1.183751 -1.39375,0 -1.7625,-1.342501 -1.7625,-2.551251 0,-1.47125 0.71,-2.52375 1.7625,-2.52375 0.6575,0 1.13125,0.36625 1.4225,0.99875 l 1.36625,-0.47375 c -0.525,-1.1575 -1.4475,-1.8675 -2.78875,-1.8675 -1.8675,0 -3.105,1.57875 -3.105,3.86625 0,1.94625 0.895,3.897501 3.105,3.897501 1.65875,0 2.975,-1.2675 2.975,-2.898751 l 0,-0.97125 -2.6325,0 z m -5.13,-3.7625 -1.3425,0 0,7.495001 1.3425,0 0,-7.495001 z m -3.28875,7.495001 0,-7.495001 -1.34125,0 0,2.89375 -3.367501,0 0,-2.89375 -1.34125,0 0,7.495001 1.34125,0 0,-3.258751 3.367501,-0.0275 0,3.286251 1.34125,0 z"
   style="fill:#000000;fill-opacity:1;fill-rule:evenodd;stroke:none"
   id="path4111"
   inkscape:connector-curvature="0" /><path
   d="m 15.887481,38.900811 -2.5425,0 0,2.97875 2.5425,0 0,-2.97875 z m 5.6275,0 -2.5425,0 0,2.97875 2.5425,0 0,-2.97875 z m 5.627501,0 -2.5425,0 0,2.97875 2.5425,0 0,-2.97875 z m 5.6275,0 -2.5425,0 0,2.97875 2.5425,0 0,-2.97875 z m 5.6275,0 -2.54125,0 0,2.97875 2.54125,0 0,-2.97875 z m 4.0725,2.99 -0.98625,-0.01125 0,-2.97875 0.98625,0 0,2.99 z m -26.582501,6.77 -2.5425,0 0,2.97875 2.5425,0 0,-2.97875 z m 5.6275,0 -2.5425,0 0,2.97875 2.5425,0 0,-2.97875 z m 5.627501,0 -2.5425,0 0,2.97875 2.5425,0 0,-2.97875 z m 5.6275,0 -2.5425,0 0,2.97875 2.5425,0 0,-2.97875 z m 5.6275,0 -2.54125,0 0,2.97875 2.54125,0 0,-2.97875 z m 4.0725,2.97625 -0.98625,0.0025 0,-2.97875 0.98625,-0.01375 0,2.99 z m 32.345001,-12.73625 2.54375,0 0,2.97875 -2.54375,0 0,-2.97875 z m -5.62625,0 2.54125,0 0,2.97875 -2.54125,0 0,-2.97875 z m -5.627501,0 2.5425,0 0,2.97875 -2.5425,0 0,-2.97875 z m -5.6275,0 2.5425,0 0,2.97875 -2.5425,0 0,-2.97875 z m -5.6275,0 2.5425,0 0,2.97875 -2.5425,0 0,-2.97875 z m -4.11625,2.99 1.03125,-0.01125 0,-2.97875 -1.03125,0 0,2.99 z m 26.625001,6.77 2.54375,0 0,2.97875 -2.54375,0 0,-2.97875 z m -5.62625,0 2.54125,0 0,2.97875 -2.54125,0 0,-2.97875 z m -5.627501,0 2.5425,0 0,2.97875 -2.5425,0 0,-2.97875 z m -5.6275,0 2.5425,0 0,2.97875 -2.5425,0 0,-2.97875 z m -5.6275,0 2.5425,0 0,2.97875 -2.5425,0 0,-2.97875 z m -4.11625,2.97625 1.03125,0.0025 0,-2.97875 -1.03125,-0.01375 0,2.99 z m 0,-4.355 1.03125,-0.01 0,-0.82 3.085,0 0,0.82 2.5425,0 0,-0.82 3.085,0 0,0.82 2.5425,0 0,-0.82 3.085,0 0,0.82 2.5425,0 0,-0.82 3.085001,0 0,0.82 2.54125,0 0,-0.82 3.085,0 0,0.82 2.54375,0 0,-0.82 3.08625,0 0,0.82 0.69625,0 0,1.38875 -0.69625,0 0,2.97875 0.69625,0 0,1.39125 -0.69625,0 0,0.8175 -3.08625,0 0,-0.8175 -2.54375,0 0,0.8175 -3.085,0 0,-0.8175 -2.54125,0 0,0.8175 -3.085001,0 0,-0.8175 -2.5425,0 0,0.8175 -3.085,0 0,-0.8175 -2.5425,0 0,0.8175 -3.085,0 0,-0.8175 -2.5425,0 0,0.8175 -3.085,0 0,-0.8175 -1.03125,0.0075 -0.01625,7.3 20.820001,0.0025 -0.9475,-3.305 c -0.126251,-0.4575 -0.180001,-0.79625 0.06125,-1.1475 0.3425,-0.50625 1.0325,-0.6375 1.5375,-0.295 l 11.4525,7.9575 -11.4525,7.2325 c -0.505,0.34125 -1.195,0.21 -1.5375,-0.29375 -0.230001,-0.33625 -0.187501,-0.68625 -0.0825,-1.10375 l 1.0425,-3.35375 -17.376251,0 c -1.81875,0 -3.5175,1.6525 -3.5175,3.66125 l -5.69875,-0.0012 0,-3.66 -15.89875,0 0,-5.68625 15.89875,-0.0075 -0.005,-7.3 -0.98625,-0.0075 0,0.8175 -3.08625,0 0,-0.8175 -2.54125,0 0,0.8175 -3.08625,0 0,-0.8175 -2.5425,0 0,0.8175 -3.085,0 0,-0.8175 -2.5425,0 0,0.8175 -3.085001,0 0,-0.8175 -2.5425,0 0,0.8175 -3.085,0 0,-0.8175 -2.5425,0 0,0.8175 -3.08625,0 0,-0.8175 -0.69625,0 0,-1.39125 0.69625,0 0,-2.97875 -0.69625,0 0,-1.38875 0.69625,0 0,-0.82 3.08625,0 0,0.82 2.5425,0 0,-0.82 3.085,0 0,0.82 2.5425,0 0,-0.82 3.085001,0 0,0.82 2.5425,0 0,-0.82 3.085,0 0,0.82 2.5425,0 0,-0.82 3.08625,0 0,0.82 2.54125,0 0,-0.82 3.08625,0 0,0.82 0.98625,0.01 0,-4.02625 -0.9425,0 0,0.8325 -3.13,0 0,-0.8175 -2.54125,0 0,0.8175 -3.08625,0 0,-0.8175 -2.5425,0 0,0.8175 -3.085,0 0,-0.8175 -2.5425,0 0,0.8175 -3.085001,0 0,-0.8175 -2.5425,0 0,0.8175 -3.085,0 0,-0.8175 -2.5425,0 0,0.8175 -3.08625,0 0,-0.8175 -0.69625,0 0,-1.39125 0.69625,0 0,-2.97875 -0.69625,0 0,-1.39 0.69625,0 0,-0.82 3.08625,0 0,0.82 2.5425,0 0,-0.82 3.085,0 0,0.82 2.5425,0 0,-0.82 3.085001,0 0,0.82 2.5425,0 0,-0.82 3.085,0 0,0.82 2.5425,0 0,-0.82 3.08625,0 0,0.82 2.54125,0 0,-0.82 3.08625,0 0,0.82 0.98625,-0.01125 0.005,-3.738751 c -0.04375,-1.99625 -1.91125,-3.47625 -3.945,-3.47625 -5.1725,0 -11.31,-0.0075 -16.917501,0 l 0.95,3.29375 c 0.106251,0.414951 0.147501,0.763701 -0.0825,1.101201 -0.3425,0.505 -1.03375,0.6375 -1.53875,0.2925 l -11.4525,-7.653751 11.4525,-7.535 c 0.505,-0.34375 1.19625,-0.2125 1.53875,0.29375 0.241251,0.35125 0.187501,0.69125 0.06,1.1475 l -0.9875,3.30875 c 6.612501,-0.0025 14.308751,-0.01125 20.922501,-0.01125 l 0,-3.57375 5.69875,0 0,3.57375 15.88875,0 0,5.70875 -15.88875,0 0.01625,7.268751 1.03125,0.01125 0,-0.82 3.085,0 0,0.82 2.5425,0 0,-0.82 3.085,0 0,0.82 2.5425,0 0,-0.82 3.085,0 0,0.82 2.5425,0 0,-0.82 3.085001,0 0,0.82 2.54125,0 0,-0.82 3.085,0 0,0.82 2.54375,0 0,-0.82 3.08625,0 0,0.82 0.69625,0 0,1.39 -0.69625,0 0,2.97875 0.69625,0 0,1.39125 -0.69625,0 0,0.8175 -3.08625,0 0,-0.8175 -2.54375,0 0,0.8175 -3.085,0 0,-0.8175 -2.54125,0 0,0.8175 -3.085001,0 0,-0.8175 -2.5425,0 0,0.8175 -3.085,0 0,-0.8175 -2.5425,0 0,0.8175 -3.085,0 0,-0.8175 -2.5425,0 0,0.8175 -3.085,0 0,-0.8325 -1.03125,0 0,4.02625 z"
   style="fill:#000000;fill-opacity:1;fill-rule:evenodd;stroke:none"
   id="path4113"
   inkscape:connector-curvature="0" /></svg>