<?xml version="1.0" encoding="UTF-8" standalone="no"?>
<!-- Generator: Adobe Illustrator 16.0.0, SVG Export Plug-In . SVG Version: 6.00 Build 0)  -->

<svg
   xmlns:dc="http://purl.org/dc/elements/1.1/"
   xmlns:cc="http://creativecommons.org/ns#"
   xmlns:rdf="http://www.w3.org/1999/02/22-rdf-syntax-ns#"
   xmlns:svg="http://www.w3.org/2000/svg"
   xmlns="http://www.w3.org/2000/svg"
   xmlns:sodipodi="http://sodipodi.sourceforge.net/DTD/sodipodi-0.dtd"
   xmlns:inkscape="http://www.inkscape.org/namespaces/inkscape"
   version="1.1"
   id="Layer_1"
   x="0px"
   y="0px"
   width="90.59375"
   height="113.125"
   viewBox="0 0 90.593752 113.125"
   enable-background="new 0 0 850.394 425.197"
   xml:space="preserve"
   inkscape:version="0.48.2 r9819"
   sodipodi:docname="MUTCD R15-4c.svg"><metadata
   id="metadata37"><rdf:RDF><cc:Work
       rdf:about=""><dc:format>image/svg+xml</dc:format><dc:type
         rdf:resource="http://purl.org/dc/dcmitype/StillImage" /><dc:title></dc:title></cc:Work></rdf:RDF></metadata><defs
   id="defs35" /><sodipodi:namedview
   pagecolor="#ffffff"
   bordercolor="#666666"
   borderopacity="1"
   objecttolerance="10"
   gridtolerance="10"
   guidetolerance="10"
   inkscape:pageopacity="0"
   inkscape:pageshadow="2"
   inkscape:window-width="1280"
   inkscape:window-height="1004"
   id="namedview33"
   showgrid="false"
   fit-margin-top="0"
   fit-margin-left="0"
   fit-margin-right="0"
   fit-margin-bottom="0"
   inkscape:zoom="3.3302211"
   inkscape:cx="-19.293454"
   inkscape:cy="50.426909"
   inkscape:window-x="-8"
   inkscape:window-y="-8"
   inkscape:window-maximized="1"
   inkscape:current-layer="Layer_1"
   showguides="true"
   inkscape:guide-bbox="true" />













<path
   d="m 5.93263,0.31374752 78.75125,0 c 3.0975,0 5.625,2.52625008 5.625,5.62500018 l 0,101.2487523 c 0,3.0975 -2.5275,5.625 -5.625,5.625 l -78.75125,0 c -3.0975,0 -5.625,-2.5275 -5.625,-5.625 l 0,-101.2487523 c 0,-3.0600001 2.56625,-5.62500018 5.625,-5.62500018"
   style="fill:#ffffff;fill-opacity:1;fill-rule:nonzero;stroke:#000000;stroke-width:0.60000002;stroke-miterlimit:4;stroke-opacity:1;stroke-dasharray:none"
   id="path3873"
   inkscape:connector-curvature="0" /><path
   d="m 5.95013,1.7199976 78.71625,0 c 2.31625,0.005 4.22625,1.92125 4.23625,4.2350001 l 0,101.2150023 c -0.01,2.31875 -1.92,4.22875 -4.23625,4.23625 l -78.71625,0 c -2.315,-0.008 -4.23125,-1.9175 -4.23625,-4.23625 l 0,-101.2150023 C 1.71588,3.6412476 3.63513,1.7224976 5.95013,1.7199976"
   style="fill:#000000;fill-opacity:1;fill-rule:evenodd;stroke:none"
   id="path3877"
   inkscape:connector-curvature="0" /><path
   d="m 5.97888,4.0637476 78.65625,0 c 1.05625,-0.015 1.94,0.8637501 1.92375,1.9212501 l 0,101.1562523 c 0.0163,1.05375 -0.8675,1.94 -1.92375,1.92125 l -78.65625,0 c -1.05625,0.0187 -1.93625,-0.8675 -1.92125,-1.92125 l 0,-101.1562523 c -0.015,-1.0575 0.865,-1.9362501 1.92125,-1.9212501"
   style="fill:#ffffff;fill-opacity:1;fill-rule:evenodd;stroke:none"
   id="path3881"
   inkscape:connector-curvature="0" /><path
   d="m 31.79513,75.333749 c 0,1.1575 -0.26375,2.63 -0.57875,3.42125 -0.5275,1.312501 -1.21125,1.891251 -2.315,1.891251 -0.9475,0 -1.58,-0.36875 -2.0525,-1.157501 -0.57875,-0.94625 -0.89375,-2.5775 -0.89375,-4.155 0,-1.2625 0.21,-2.62875 0.57875,-3.5225 0.5275,-1.31625 1.26125,-1.895 2.41875,-1.84375 0.89375,0.05375 1.4725,0.36875 1.94625,1.1575 0.57875,1.00125 0.89625,2.5275 0.89625,4.20875 m 2.365,0 c 0,-1.89125 -0.36875,-3.78625 -0.99875,-5.1025 -0.94625,-1.84 -2.2625,-2.6825 -4.155,-2.6825 -1.73625,0 -2.94625,0.5275 -3.84,1.68375 -0.99875,1.42125 -1.63125,3.63125 -1.63125,6.10125 0,1.79 0.42,3.7875 1.0525,5.048751 0.89375,1.84375 2.21,2.69375 4.31375,2.69375 1.5775,0 2.78625,-0.535 3.62875,-1.6925 1.05125,-1.31625 1.63,-3.681251 1.63,-6.050001 m -15.98875,-0.05125 c 0,1.9975 -0.47375,3.62875 -1.37,4.521251 -0.41875,0.4225 -0.8925,0.57875 -1.68125,0.57875 l -2.36625,0 0,-10.202501 2.68125,0 c 0.6325,0 1.1575,0.26125 1.525,0.63 0.7375,0.78875 1.21125,2.47375 1.21125,4.4725 m 2.42,0 c 0,-2.94625 -0.89625,-5.315 -2.47375,-6.68125 -0.78875,-0.63 -1.3675,-0.78875 -2.8925,-0.78875 l -4.83875,0 0,14.992501 4.5775,0 0.84,0 c 0.78875,-0.05375 1.57625,-0.3175 2.155,-0.8425 1.685,-1.31625 2.6325,-3.681251 2.6325,-6.680001"
   style="fill:#000000;fill-opacity:1;fill-rule:evenodd;stroke:none"
   id="path3885"
   inkscape:connector-curvature="0" /><path
   d="m 80.24763,69.916249 0,-2.10375 -9.255,0 0,2.10375 3.4175,0 0,12.888751 2.365,0 0,-12.888751 3.4725,0 z m -13.57,5.4175 c 0,1.1575 -0.26375,2.63 -0.57875,3.42125 -0.52625,1.312501 -1.21,1.891251 -2.31375,1.891251 -0.9475,0 -1.5775,-0.36875 -2.05125,-1.157501 -0.57875,-0.94625 -0.89375,-2.5775 -0.89375,-4.155 0,-1.2625 0.21,-2.62875 0.57625,-3.5225 0.5275,-1.31625 1.265,-1.895 2.4225,-1.84375 0.89375,0.05375 1.4725,0.36875 1.94625,1.1575 0.5775,1.00125 0.8925,2.5275 0.8925,4.20875 m 2.36625,0 c 0,-1.89125 -0.36625,-3.78625 -0.99875,-5.1025 -0.9475,-1.84 -2.26,-2.6825 -4.155,-2.6825 -1.73625,0 -2.945,0.5275 -3.84,1.68375 -0.99875,1.42125 -1.63125,3.63125 -1.63125,6.10125 0,1.79 0.4225,3.7875 1.0525,5.048751 0.89625,1.84375 2.20875,2.69375 4.31375,2.69375 1.5775,0 2.7875,-0.535 3.63,-1.6925 1.05,-1.31625 1.62875,-3.681251 1.62875,-6.050001 m -13.8325,7.471251 0,-14.992501 -2.36625,0 0,9.5725 -5.47125,-9.5725 -2.36875,0 0,14.992501 2.36875,0 0,-10.153751 5.7325,10.153751 2.105,0 z"
   style="fill:#000000;fill-opacity:1;fill-rule:evenodd;stroke:none"
   id="path3889"
   inkscape:connector-curvature="0" /><path
   d="m 68.72625,100.99113 c 0,-5.89125 -7.04625,-4.05125 -7.25875,-6.83875 -0.105,-1.3675 1.21125,-1.79 2.315,-1.73625 1.685,0.05125 2.21,1.31625 2.21,1.31625 l 2.10375,-0.6325 c -0.7375,-1.84125 -2.155,-3.05125 -4.26,-3.05125 -2.68375,0 -4.6825,1.105 -4.6825,4.05 0,2.4725 1.99875,3.36625 2.8925,3.735 1.94875,0.78875 4.26,1.10625 4.26,3.10375 0,1.26125 -0.94375,2.20875 -2.31125,2.20875 -1.42125,0 -2.57875,-0.78875 -3.21,-2.20875 l -2.26125,0.84125 c 0.99875,2.26125 2.8925,3.7975 5.47125,3.7975 1.2625,0 2.41875,-0.43 3.25875,-1.1675 0.9475,-0.84 1.4725,-2.05125 1.4725,-3.4175 m -11.62375,0 c 0,-5.89125 -7.0475,-4.05125 -7.2575,-6.83875 -0.105,-1.3675 1.21,-1.79 2.31375,-1.73625 1.6825,0.05125 2.21,1.31625 2.21,1.31625 l 2.10375,-0.6325 c -0.7375,-1.84125 -2.1575,-3.05125 -4.26,-3.05125 -2.6825,0 -4.6825,1.105 -4.6825,4.05 0,2.4725 2,3.36625 2.8925,3.735 1.94625,0.78875 4.26125,1.10625 4.26125,3.10375 0,1.26125 -0.9475,2.20875 -2.315,2.20875 -1.41875,0 -2.575,-0.78875 -3.2075,-2.20875 L 46.9,101.77863 c 0.99875,2.26125 2.89375,3.7975 5.46875,3.7975 1.2625,0 2.42,-0.43 3.26125,-1.1675 0.9475,-0.84 1.4725,-2.05125 1.4725,-3.4175 m -16.2525,-2.315 -2.99875,0 1.52375,-4.20875 1.475,4.20875 z m 4.83875,6.62875 -5.15625,-14.9925 -2.36625,0 -5.15375,14.9925 2.525,0 1.47125,-4.20875 4.68125,0 1.47375,4.20875 2.525,0 z M 29.6975,94.52113 c 0,0.63 -0.36875,1.31375 -0.89375,1.5775 -0.42,0.21 -0.68375,0.26375 -1.42125,0.26375 l -3.1025,0 0,-3.6825 3.1025,0 c 0.7375,0 1.00125,0.05125 1.42125,0.26125 0.525,0.3175 0.89375,0.9475 0.89375,1.58 m 2.41875,0 c 0,-1.52625 -0.9975,-3.10375 -2.31375,-3.735 -0.735,-0.36875 -1.52375,-0.47375 -2.735,-0.47375 l -5.15375,0 0,14.9925 2.36625,0 0,-6.52375 2.7875,0 c 1.1575,0 2.05125,-0.21 2.735,-0.525 1.31625,-0.57875 2.31375,-2.1575 2.31375,-3.735"
   style="fill:#000000;fill-opacity:1;fill-rule:evenodd;stroke:none"
   id="path3893"
   inkscape:connector-curvature="0" /><path
   d="m 69.62763,19.184873 c -1.135,0 -2.06375,0.9275 -2.06375,2.065 0,1.135 0.92875,2.0625 2.06375,2.0625 1.1375,0 2.0625,-0.9275 2.0625,-2.0625 0,-1.1375 -0.925,-2.065 -2.0625,-2.065"
   style="fill:#000000;fill-opacity:1;fill-rule:evenodd;stroke:none"
   id="path3897"
   inkscape:connector-curvature="0" /><path
   d="m 75.87513,32.196123 -4.32875,-2.885 c -0.2,-0.8475 -1.03,-4.6025 -2.695,-5.46875 -1.64875,-1.09125 -7.73,3.38875 -7.76375,3.425 l 0,6.53375 1.3175,-0.23 0.515,-5.215 c 0.49875,-0.1 0.99375,-0.2 1.4925,-0.3 -1.08625,2.805 -1.485,5.51 -0.86,7.292501 l -2.63625,10.77625 1.775,1.26 3.84,-9.97375 1.7775,1.8925 2.46625,7.5075 2.34875,-0.86 -2.12,-7.91 -2.465,-4.411251 0.94375,-3.25875 1.00375,1.3075 4.7,1.54875 0.68875,-1.03125 z"
   style="fill:#000000;fill-opacity:1;fill-rule:evenodd;stroke:none"
   id="path3901"
   inkscape:connector-curvature="0" /><path
   inkscape:connector-curvature="0"
   style="fill:#000000;fill-opacity:1;fill-rule:evenodd;stroke:none"
   d="m 18.43751,6.8449977 0,1.7500001 0,0.65625 c 0,0.36125 0.31875,0.65625 0.6875,0.65625 l 0.3125,0 c 0.36625,0 0.65625,-0.295 0.65625,-0.65625 l 0,-0.65625 7.9375,0 c -0.0838,0.19375 -0.125,0.415 -0.125,0.625 0,0.8200002 0.68125,1.5150002 1.6875,1.9062502 l -8.8125,0 c -1.035,0 -2.11875,0.0275 -3.125,0.3125 -1.01125,0.28625 -1.91375,0.8325 -2.65625,1.5625 -0.79375,0.78375 -1.3875,1.75875 -1.53125,2.875 l -2.40625,18.9375 0.84375,7.718751 -0.5625,0.78125 0,4.375 8,0 -0.71875,1.21875 -2.46875,0 -1.3125,2.53125 2.40625,0 -1.0625,1.875 -2.4375,0 -1.46875,2.75 2.46875,0 -1.28125,2.28125 -2.4375,0 -1.8125,3.09375 2.59375,0 -0.90625,1.65625 2.40625,0 1,-1.65625 34.0625,0 0.90625,1.65625 2.5,0 -0.84375,-1.65625 2.3125,0 -1.59375,-3.09375 -2.4375,0 -1.28125,-2.28125 2.40625,0 -1.375,-2.75 -2.625,0 -0.90625,-1.875 2.4375,0 -1.46875,-2.53125 -2.375,0 -0.75,-1.21875 8.40625,0 -0.0312,-4.3125 -0.65625,-0.9375 0.8125,-6.781251 -2.4688,-19.03125 c -0.16375,-1.2525 -0.47875,-2.47 -1.25,-3.5 -0.44125,-0.59375 -1.01625,-1.14625 -1.65625,-1.53125 -0.4975,-0.3 -1.0375,-0.46875 -1.625,-0.46875 l -11.71875,0 c 1.00875,-0.39125 1.65625,-1.08625 1.65625,-1.9062502 0,-0.21 -0.0425,-0.43125 -0.125,-0.625 l 8.125,0 0,0.65625 c 0,0.36125 0.2875,0.65625 0.65625,0.65625 l 0.3125,0 c 0.36625,0 0.6875,-0.295 0.6875,-0.65625 l 0,-0.65625 0,-1.7500001 -25.96875,0 z m 12.9375,2.0625001 c 0.54875,0 1,0.2375 1,0.5625 0,0.32125 -0.45125,0.5937502 -1,0.5937502 -0.55,0 -1,-0.2725002 -1,-0.5937502 0,-0.325 0.45,-0.5625 1,-0.5625 z m -10.03125,3.2500002 19.9375,0 0,4.5625 -19.9375,0 0,-4.5625 z m 8.46875,5.6875 0,13.40625 -16.1875,0 1.4375,-12.21875 14.75,-1.1875 z m 3,0.0625 15.1875,1 1.28125,12.34375 -16.46875,0 0,-13.34375 z m 10.375,19.125 c 0.19773,0.0056 0.40344,0.05125 0.59375,0.125 0.4525,0.17625 0.74,0.47375 0.96875,0.875 0.2175,-0.39375 0.5075,-0.70875 0.9375,-0.875 0.7575,-0.2975 1.64,-0.01 2.09375,0.65625 0.34,0.4975 0.4025,1.10375 0.15625,1.65625 -0.34875,0.79125 -1.12875,1.165 -1.96875,1.03125 -0.58125,-0.0975 -0.955,-0.47375 -1.21875,-0.96875 -0.215,0.3975 -0.52875,0.7425 -0.96875,0.90625 -0.74625,0.2775 -1.63875,0.0075 -2.09375,-0.65625 -0.4125,-0.60125 -0.4025,-1.35875 0,-1.96875 0.34219,-0.512813 0.9068,-0.798066 1.5,-0.78125 z m -26.59375,0.03125 c 0.19609,0.0053 0.40406,0.05219 0.59375,0.125 0.44,0.165 0.7175,0.47875 0.9375,0.875 0.2175,-0.39875 0.5025,-0.70625 0.9375,-0.875 0.75375,-0.28625 1.63375,0 2.09375,0.65625 0.415,0.59375 0.44,1.37125 0.0312,1.96875 -0.45625,0.6675 -1.36625,0.946251 -2.125,0.65625 -0.435,-0.16875 -0.7175,-0.48 -0.9375,-0.875 -0.22,0.395 -0.5,0.70625 -0.9375,0.875 -0.76625,0.297501 -1.65625,0.02 -2.125,-0.65625 -0.40625,-0.59 -0.3775,-1.3775 0.0312,-1.96875 0.34781,-0.501563 0.91172,-0.797187 1.5,-0.78125 z m -1.5,5.937501 33,0 0,1.1875 -33,0 0,-1.1875 z m 6.6875,4.71875 19.1875,0 0.65625,1.1875 -20.5625,0 0.71875,-1.1875 z m -2.03125,3.8125 23.1875,0 1,1.8125 -25.25,0 1.0625,-1.8125 z m -2.5,4.65625 28.1875,0 1.25,2.3125 -30.6875,0 1.25,-2.3125 z"
   id="path3905" /></svg>