<?xml version="1.0" encoding="UTF-8" standalone="no"?>
<!-- Generator: Adobe Illustrator 12.0.1, SVG Export Plug-In  -->

<svg
   xmlns:dc="http://purl.org/dc/elements/1.1/"
   xmlns:cc="http://creativecommons.org/ns#"
   xmlns:rdf="http://www.w3.org/1999/02/22-rdf-syntax-ns#"
   xmlns:svg="http://www.w3.org/2000/svg"
   xmlns="http://www.w3.org/2000/svg"
   xmlns:sodipodi="http://sodipodi.sourceforge.net/DTD/sodipodi-0.dtd"
   xmlns:inkscape="http://www.inkscape.org/namespaces/inkscape"
   version="1.1"
   width="299.1875"
   height="150.34375"
   viewBox="-1 0 299.1875 150.34375"
   enable-background="new -1 0 289 288"
   xml:space="preserve"
   id="svg2"
   inkscape:version="0.48.2 r9819"
   sodipodi:docname="MUTCD R14-1.svg"><metadata
   id="metadata22"><rdf:RDF><cc:Work
       rdf:about=""><dc:format>image/svg+xml</dc:format><dc:type
         rdf:resource="http://purl.org/dc/dcmitype/StillImage" /><dc:title></dc:title></cc:Work></rdf:RDF></metadata><sodipodi:namedview
   pagecolor="#ffffff"
   bordercolor="#666666"
   borderopacity="1"
   objecttolerance="10"
   gridtolerance="10"
   guidetolerance="10"
   inkscape:pageopacity="0"
   inkscape:pageshadow="2"
   inkscape:window-width="1280"
   inkscape:window-height="1004"
   id="namedview20"
   showgrid="false"
   fit-margin-top="0"
   fit-margin-left="0"
   fit-margin-right="0"
   fit-margin-bottom="0"
   inkscape:zoom="1.638889"
   inkscape:cx="95.164667"
   inkscape:cy="-88.239563"
   inkscape:window-x="-8"
   inkscape:window-y="-8"
   inkscape:window-maximized="1"
   inkscape:current-layer="svg2"
   showguides="true"
   inkscape:guide-bbox="true" />
<defs
   id="defs4">
</defs>







<path
   inkscape:connector-curvature="0"
   d="m 297.4285,130.981 c 0,10.2325 -8.3725,18.605 -18.605,18.605 l -260.46875,0 c -10.2325,0 -18.605,-8.3725 -18.605,-18.605 l 0,-111.63 c 0,-10.2325 8.3725,-18.605 18.605,-18.605 l 260.46875,0 c 10.2325,0 18.605,8.3725 18.605,18.605 l 0,111.63"
   style="fill:#ffffff;fill-opacity:1;fill-rule:nonzero;stroke:#000000;stroke-width:1.5;stroke-miterlimit:4;stroke-opacity:1;stroke-dasharray:none"
   id="path13590" /><path
   inkscape:connector-curvature="0"
   d="m 285.02512,130.981 c 0,3.41125 -2.79125,6.20125 -6.20125,6.20125 l -260.47,0 c -3.41,0 -6.20125,-2.79 -6.20125,-6.20125 l 0,-111.63 c 0,-3.41 2.79125,-6.20125 6.20125,-6.20125 l 260.47,0 c 3.41,0 6.20125,2.79125 6.20125,6.20125 l 0,111.63 z m -6.20125,-125.06625 -260.47,0 c -7.39,0 -13.43625,6.04625 -13.43625,13.43625 l 0,111.63 c 0,7.39 6.04625,13.4375 13.43625,13.4375 l 260.47,0 c 7.39,0 13.43625,-6.0475 13.43625,-13.4375 l 0,-111.63 c 0,-7.39 -6.04625,-13.43625 -13.43625,-13.43625"
   style="fill:#000000;fill-opacity:1;fill-rule:nonzero;stroke:none"
   id="path13614" /><path
   inkscape:connector-curvature="0"
   d="m 230.13263,28.572 c -0.46625,-0.27875 -1.01125,-0.43875 -1.59125,-0.43875 -1.7125,0 -3.10125,1.3875 -3.10125,3.1 0,0.32875 0.05,0.64625 0.14625,0.94375 l 3.1025,9.91375 -160.2,0 3.10375,-9.91375 c 0.095,-0.2975 0.145,-0.615 0.145,-0.94375 0.001,-1.7125 -1.3875,-3.1 -3.1,-3.1 -0.5825,0 -1.12625,0.16 -1.59125,0.43875 L 32.82513,50.3595 67.04638,72.147 c 0.465,0.27875 1.00875,0.44 1.59125,0.44 1.7125,0 3.1,-1.38875 3.1,-3.10125 0,-0.32875 -0.05,-0.64625 -0.145,-0.94375 l -3.10375,-9.91375 160.2,0 -3.1025,9.91375 c -0.0963,0.2975 -0.14625,0.615 -0.14625,0.94375 0,1.7125 1.3875,3.1 3.10125,3.1 0.58,0 1.125,-0.16 1.59125,-0.43875 l 34.22,-21.7875 -34.22,-21.7875"
   style="fill:#000000;fill-opacity:1;fill-rule:nonzero;stroke:none"
   id="path13618" /><path
   inkscape:connector-curvature="0"
   d="m 74.6665,114.44438 0,-33.0775 6.2725,0 0,26.805 22.19875,0 0,6.2725 -28.47125,0 z"
   style="fill:#000000;fill-opacity:1;fill-rule:nonzero;stroke:none"
   id="path13622" /><path
   inkscape:connector-curvature="0"
   d="m 125.04337,87.14914 c -5.88125,0 -11.02625,4.60625 -11.02625,10.585 0,6.07625 5.09625,10.9275 11.02625,10.9275 5.9775,0 11.025,-4.85125 11.025,-10.9275 0,-5.97875 -5.19375,-10.585 -11.025,-10.585 m 0,27.88375 c -9.31125,0 -17.29875,-7.89 -17.29875,-17.29875 0,-9.65375 7.7425,-16.955 17.29875,-16.955 9.35875,0 17.2975,7.79125 17.2975,16.955 0,9.4575 -7.88875,17.29875 -17.2975,17.29875"
   style="fill:#000000;fill-opacity:1;fill-rule:nonzero;stroke:none"
   id="path13626" /><path
   inkscape:connector-curvature="0"
   d="m 166.2545,87.14914 c -5.88,0 -11.025,4.60625 -11.025,10.585 0,6.07625 5.095,10.9275 11.025,10.9275 5.97875,0 11.02625,-4.85125 11.02625,-10.9275 0,-5.97875 -5.195,-10.585 -11.02625,-10.585 m 0,27.88375 c -9.31,0 -17.2975,-7.89 -17.2975,-17.29875 0,-9.65375 7.7425,-16.955 17.2975,-16.955 9.36,0 17.29875,7.79125 17.29875,16.955 0,9.4575 -7.89,17.29875 -17.29875,17.29875"
   style="fill:#000000;fill-opacity:1;fill-rule:nonzero;stroke:none"
   id="path13630" /><path
   inkscape:connector-curvature="0"
   d="m 215.30839,114.44438 -10.095,-16.955 -7.44875,7.69375 0,9.26125 -6.2725,0 0,-33.0775 6.2725,0 0,14.6025 13.81875,-14.6025 8.47875,0 -10.43875,11.36875 12.8875,21.70875 -7.2025,0 z"
   style="fill:#000000;fill-opacity:1;fill-rule:nonzero;stroke:none"
   id="path13634" /></svg>