<?xml version="1.0" encoding="UTF-8" standalone="no"?>
<!-- Generator: Adobe Illustrator 16.0.0, SVG Export Plug-In . SVG Version: 6.00 Build 0)  -->

<svg
   xmlns:dc="http://purl.org/dc/elements/1.1/"
   xmlns:cc="http://creativecommons.org/ns#"
   xmlns:rdf="http://www.w3.org/1999/02/22-rdf-syntax-ns#"
   xmlns:svg="http://www.w3.org/2000/svg"
   xmlns="http://www.w3.org/2000/svg"
   xmlns:sodipodi="http://sodipodi.sourceforge.net/DTD/sodipodi-0.dtd"
   xmlns:inkscape="http://www.inkscape.org/namespaces/inkscape"
   version="1.1"
   id="Layer_1"
   x="0px"
   y="0px"
   width="90.625"
   height="113.125"
   viewBox="0 0 90.625002 113.125"
   enable-background="new 0 0 850.394 425.197"
   xml:space="preserve"
   inkscape:version="0.48.2 r9819"
   sodipodi:docname="MUTCD R15-6.svg"><metadata
   id="metadata37"><rdf:RDF><cc:Work
       rdf:about=""><dc:format>image/svg+xml</dc:format><dc:type
         rdf:resource="http://purl.org/dc/dcmitype/StillImage" /><dc:title></dc:title></cc:Work></rdf:RDF></metadata><defs
   id="defs35" /><sodipodi:namedview
   pagecolor="#ffffff"
   bordercolor="#666666"
   borderopacity="1"
   objecttolerance="10"
   gridtolerance="10"
   guidetolerance="10"
   inkscape:pageopacity="0"
   inkscape:pageshadow="2"
   inkscape:window-width="1280"
   inkscape:window-height="1004"
   id="namedview33"
   showgrid="false"
   fit-margin-top="0"
   fit-margin-left="0"
   fit-margin-right="0"
   fit-margin-bottom="0"
   inkscape:zoom="5.6568543"
   inkscape:cx="66.549465"
   inkscape:cy="68.508729"
   inkscape:window-x="-8"
   inkscape:window-y="-8"
   inkscape:window-maximized="1"
   inkscape:current-layer="Layer_1"
   showguides="true"
   inkscape:guide-bbox="true" />













<path
   d="m 5.939601,0.313541 78.750002,0 c 3.0975,0 5.625,2.5275 5.625,5.625 l 0,101.247499 c 0,3.09875 -2.5275,5.625 -5.625,5.625 l -78.750002,0 c -3.0975,0 -5.625,-2.52625 -5.625,-5.625 l 0,-101.247499 c 0,-3.05875 2.56625,-5.625 5.625,-5.625"
   style="fill:#ffffff;fill-opacity:1;fill-rule:nonzero;stroke:#000000;stroke-width:0.60000001;stroke-linecap:butt;stroke-linejoin:miter;stroke-miterlimit:4;stroke-opacity:1;stroke-dasharray:none"
   id="path4051"
   inkscape:connector-curvature="0" /><path
   d="m 5.956726,1.719791 78.716252,0 c 2.31625,0.005 4.22625,1.92125 4.23625,4.23625 l 0,101.213749 c -0.01,2.31875 -1.92,4.2275 -4.23625,4.235 l -78.716252,0 c -2.315,-0.008 -4.23125,-1.91625 -4.23625,-4.235 l 0,-101.213749 c 0.0025,-2.315 1.92125,-4.23375 4.23625,-4.23625"
   style="fill:#000000;fill-opacity:1;fill-rule:evenodd;stroke:none"
   id="path4055"
   inkscape:connector-curvature="0" /><path
   d="m 5.986101,4.063541 78.655002,0 c 1.05625,-0.01375 1.94,0.865 1.92375,1.92125 l 0,101.154999 c 0.01625,1.055 -0.8675,1.94125 -1.92375,1.92125 l -78.655002,0 c -1.0575,0.02 -1.93625,-0.86625 -1.92125,-1.92125 l 0,-101.154999 c -0.015,-1.05625 0.86375,-1.935 1.92125,-1.92125"
   style="fill:#ffffff;fill-opacity:1;fill-rule:evenodd;stroke:none"
   id="path4059"
   inkscape:connector-curvature="0" /><path
   d="m 31.657477,22.833542 c 0,1.1575 -0.26125,2.62875 -0.57875,3.4175 -0.525,1.31625 -1.20875,1.895 -2.315,1.895 -0.94375,0 -1.57625,-0.36875 -2.05,-1.1575 -0.57875,-0.9475 -0.89375,-2.5775 -0.89375,-4.155 0,-1.262501 0.21,-2.630001 0.57875,-3.522501 0.525,-1.31375 1.2625,-1.8925 2.42,-1.84125 0.8925,0.05375 1.47125,0.36875 1.945,1.1575 0.57875,0.9975 0.89375,2.52375 0.89375,4.206251 m 2.36875,0 c 0,-1.895001 -0.36875,-3.786251 -0.99875,-5.100001 -0.9475,-1.84125 -2.26375,-2.68375 -4.15625,-2.68375 -1.735,0 -2.94625,0.5275 -3.84,1.685 -1.00125,1.41875 -1.63125,3.625 -1.63125,6.098751 0,1.79 0.42,3.78625 1.0525,5.04875 0.89375,1.84125 2.21,2.6925 4.31125,2.6925 1.58,0 2.78875,-0.535 3.63125,-1.69125 1.0525,-1.31625 1.63125,-3.6825 1.63125,-6.05 m -15.991251,-0.05125 c 0,1.9975 -0.47125,3.6275 -1.3675,4.52125 -0.42,0.4225 -0.89375,0.57875 -1.6825,0.57875 l -2.365,0 0,-10.202501 2.68,0 c 0.6325,0 1.1575,0.26375 1.52625,0.6325 0.7375,0.78875 1.20875,2.47 1.20875,4.470001 m 2.41875,0 c 0,-2.947501 -0.89375,-5.312501 -2.47125,-6.680001 -0.7875,-0.6325 -1.36625,-0.78875 -2.8925,-0.78875 l -4.83875,0 0,14.987501 4.575,0 0.8425,0 c 0.78875,-0.05125 1.5775,-0.31375 2.15625,-0.83875 1.68375,-1.31625 2.62875,-3.6825 2.62875,-6.68"
   style="fill:#000000;fill-opacity:1;fill-rule:evenodd;stroke:none"
   id="path4063"
   inkscape:connector-curvature="0" /><path
   d="m 72.160228,52.801042 0,-2.41875 -6.943751,0 0,-4.10125 4.365001,0 0,-2.42 -4.365001,0 0,-3.68125 6.470001,0 0,-2.36875 -8.837501,0 0,14.99 9.311251,0 z m -11.518751,-14.99 -2.52625,0 -3.155,9.995 -3.2075,-9.995 -2.47375,0 4.73375,14.99 1.84125,0 4.7875,-14.99 z m -13.57125,0 -2.42,0 0,14.99 2.42,0 0,-14.99 z m -7.57625,4.20875 c 0,0.63 -0.36625,1.2625 -0.945,1.5775 -0.36875,0.21 -0.63125,0.26375 -1.36625,0.26375 l -2.8425,0 0,-3.68125 2.8425,0 c 0.7875,0 0.9975,0.05125 1.36625,0.26125 0.57875,0.3175 0.945,0.9475 0.945,1.57875 m 2.68375,10.78125 -2.63,-6.99375 c 1.3675,-0.6325 2.315,-2.21 2.315,-3.7875 0,-1.525 -0.9475,-3.105 -2.26125,-3.735 -0.7375,-0.36875 -1.52625,-0.47375 -2.6825,-0.47375 l -4.94375,0 0,14.99 2.365,0 0,-6.52 2.8425,0 2.41875,6.52 2.57625,0 z m -15.88375,-7.51875 c 0,1.9975 -0.47375,3.6275 -1.3675,4.52125 -0.4225,0.4225 -0.89625,0.57875 -1.685,0.57875 l -2.365001,0 0,-10.2025 2.682501,0 c 0.63,0 1.1575,0.26125 1.52375,0.63 0.7375,0.78875 1.21125,2.4725 1.21125,4.4725 m 2.41875,0 c 0,-2.9475 -0.89375,-5.315 -2.4725,-6.6825 -0.78875,-0.63 -1.3675,-0.78875 -2.89375,-0.78875 l -4.838751,0 0,14.99 4.577501,0 0.84,0 c 0.79125,-0.05125 1.58,-0.31375 2.15875,-0.83875 1.68125,-1.31625 2.62875,-3.6825 2.62875,-6.68"
   style="fill:#000000;fill-opacity:1;fill-rule:evenodd;stroke:none"
   id="path4067"
   inkscape:connector-curvature="0" /><path
   d="m 57.448477,75.303663 0,-14.992501 -2.36875,0 0,9.572501 -5.46875,-9.572501 -2.3675,0 0,14.992501 2.3675,0 0,-10.153751 5.7325,10.153751 2.105,0 z m -15.8325,-7.470001 c 0,1.157501 -0.26375,2.628751 -0.57875,3.420001 -0.5275,1.31375 -1.21125,1.8925 -2.31375,1.8925 -0.9475,0 -1.5775,-0.36875 -2.05125,-1.1575 -0.57875,-0.9475 -0.89625,-2.5775 -0.89625,-4.155001 0,-1.2625 0.2125,-2.63 0.57875,-3.5225 0.5275,-1.31625 1.2625,-1.895 2.41875,-1.84375 0.89625,0.05375 1.475,0.36875 1.94875,1.1575 0.57875,1 0.89375,2.52625 0.89375,4.20875 m 2.36625,0 c 0,-1.895 -0.36875,-3.78625 -0.99875,-5.1025 -0.9475,-1.84125 -2.26125,-2.68375 -4.155,-2.68375 -1.73625,0 -2.9475,0.5275 -3.84125,1.685 -0.99875,1.42125 -1.63125,3.6275 -1.63125,6.10125 0,1.790001 0.4225,3.786251 1.0525,5.048751 0.89375,1.84375 2.21,2.6925 4.315,2.6925 1.57625,0 2.7875,-0.535 3.6275,-1.69125 1.0525,-1.31625 1.63125,-3.6825 1.63125,-6.050001"
   style="fill:#000000;fill-opacity:1;fill-rule:evenodd;stroke:none"
   id="path4071"
   inkscape:connector-curvature="0" /><path
   d="m 81.818853,93.489913 c 0,-5.89125 -7.04875,-4.05 -7.25875,-6.8375 -0.1075,-1.3675 1.20875,-1.79 2.315,-1.73625 1.68125,0.05125 2.20625,1.31625 2.20625,1.31625 l 2.105,-0.6325 c -0.7375,-1.84125 -2.15625,-3.0525 -4.26,-3.0525 -2.68375,0 -4.68,1.10625 -4.68,4.05125 0,2.4725 1.99625,3.36625 2.89,3.735 1.94875,0.78875 4.2625,1.10625 4.2625,3.1025 0,1.2625 -0.9475,2.21 -2.31375,2.21 -1.42125,0 -2.57875,-0.78875 -3.21125,-2.21 l -2.26,0.8425 c 0.9975,2.26125 2.8925,3.79625 5.47125,3.79625 1.26125,0 2.41875,-0.43 3.25875,-1.16625 0.9475,-0.84 1.475,-2.05125 1.475,-3.41875 m -11.6775,4.31375 -4.943751,-9.1525 4.628751,-5.84 -3.051251,0 -4.735,5.945 0,-5.945 -2.3675,0 0,14.9925 2.3675,0 0,-5.15625 1.5775,-1.945 3.78875,7.10125 2.735001,0 z m -13.727501,-3.05125 -2.26375,-0.8425 c -0.57875,1.21125 -1.31375,1.73625 -2.315,1.73625 -1.04875,0 -1.735,-0.36875 -2.26,-1.1575 -0.57875,-0.9475 -0.9475,-2.5775 -0.9475,-4.20625 0,-1.265 0.21,-2.57875 0.57875,-3.47125 0.5275,-1.31625 1.31625,-1.84375 2.52375,-1.84375 1.1575,0 1.63125,0.3175 2.47375,1.58 l 2.21,-0.9475 c -1.00125,-2.105 -2.42,-3.0525 -4.68375,-3.0525 -1.68125,0 -2.94375,0.57875 -3.8375,1.685 -1.0525,1.31375 -1.685,3.68125 -1.685,6.05 0,1.8925 0.4225,3.78625 1.10625,5.1 0.945,1.84375 2.36625,2.6925 4.575,2.6925 2.15625,0 3.63125,-1.1125 4.525,-3.3225 m -16.99,-3.57625 -2.99875,0 1.52375,-4.20875 1.475,4.20875 z m 4.83875,6.6275 -5.15625,-14.9925 -2.36625,0 -5.15375,14.9925 2.525,0 1.47125,-4.20875 4.68125,0 1.47375,4.20875 2.525,0 z m -16.51625,-10.78375 c 0,0.63 -0.36875,1.2625 -0.9475,1.5775 -0.36875,0.21 -0.6325,0.26375 -1.3675,0.26375 l -2.841251,0 0,-3.68125 2.841251,0 c 0.78875,0 0.99875,0.05125 1.3675,0.26125 0.57875,0.3175 0.9475,0.9475 0.9475,1.57875 m 2.6825,10.78375 -2.63125,-6.99625 c 1.37,-0.6325 2.31375,-2.21 2.31375,-3.7875 0,-1.525 -0.94375,-3.1025 -2.26,-3.735 -0.7375,-0.36875 -1.52625,-0.47375 -2.68375,-0.47375 l -4.943751,0 0,14.9925 2.36625,0 0,-6.5225 2.841251,0 2.42,6.5225 2.5775,0 z m -12.413751,-12.8875 0,-2.105 -9.2549999,0 0,2.105 3.4174999,0 0,12.8875 2.365,0 0,-12.8875 3.4725,0 z"
   style="fill:#000000;fill-opacity:1;fill-rule:evenodd;stroke:none"
   id="path4075"
   inkscape:connector-curvature="0" /><path
   d="m 80.366353,17.418661 0,-2.105 -9.25625,0 0,2.105 3.41875,0 0,12.882501 2.3675,0 0,-12.882501 3.47,0 z m -13.570001,5.415001 c 0,1.1575 -0.26375,2.62875 -0.57875,3.4175 -0.525,1.31625 -1.20875,1.895 -2.31375,1.895 -0.9475,0 -1.5775,-0.36875 -2.05125,-1.1575 -0.57875,-0.9475 -0.89375,-2.5775 -0.89375,-4.155 0,-1.262501 0.21,-2.630001 0.57875,-3.522501 0.525,-1.31375 1.2625,-1.8925 2.42,-1.84125 0.89375,0.05375 1.47125,0.36875 1.945,1.1575 0.57875,0.9975 0.89375,2.52375 0.89375,4.206251 m 2.368751,0 c 0,-1.895001 -0.36875,-3.786251 -1.00125,-5.100001 -0.947501,-1.84125 -2.261251,-2.68375 -4.155001,-2.68375 -1.73625,0 -2.945,0.5275 -3.84125,1.685 -0.9975,1.41875 -1.6275,3.625 -1.6275,6.098751 0,1.79 0.42,3.78625 1.05,5.04875 0.895,1.84125 2.20875,2.6925 4.31375,2.6925 1.57625,0 2.7875,-0.535 3.63,-1.69125 1.052501,-1.31625 1.631251,-3.6825 1.631251,-6.05 m -13.836251,7.4675 0,-14.987501 -2.365,0 0,9.570001 -5.47125,-9.570001 -2.36625,0 0,14.987501 2.36625,0 0,-10.151251 5.735,10.151251 2.10125,0 z"
   style="fill:#000000;fill-opacity:1;fill-rule:evenodd;stroke:none"
   id="path4079"
   inkscape:connector-curvature="0" /></svg>