<?xml version="1.0" encoding="UTF-8" standalone="no"?>
<!-- Created with Inkscape (http://www.inkscape.org/) -->

<svg
   xmlns:dc="http://purl.org/dc/elements/1.1/"
   xmlns:cc="http://creativecommons.org/ns#"
   xmlns:rdf="http://www.w3.org/1999/02/22-rdf-syntax-ns#"
   xmlns:svg="http://www.w3.org/2000/svg"
   xmlns="http://www.w3.org/2000/svg"
   xmlns:sodipodi="http://sodipodi.sourceforge.net/DTD/sodipodi-0.dtd"
   xmlns:inkscape="http://www.inkscape.org/namespaces/inkscape"
   id="svg2"
   inkscape:version="0.48.2 r9819"
   height="2710"
   width="2170"
   version="1.1"
   sodipodi:docname="AJAX2.svg">
  <defs
     id="defs19" />
  <sodipodi:namedview
     id="base"
     fit-margin-left="0"
     inkscape:zoom="0.25000001"
     borderopacity="1.0"
     inkscape:current-layer="g3763"
     inkscape:cx="1153.6479"
     inkscape:cy="140.20161"
     inkscape:window-maximized="1"
     showgrid="false"
     fit-margin-right="0"
     inkscape:document-units="px"
     bordercolor="#666666"
     inkscape:window-x="-8"
     inkscape:guide-bbox="true"
     inkscape:window-y="-8"
     fit-margin-bottom="0"
     inkscape:window-width="1280"
     inkscape:pageopacity="0.0"
     inkscape:pageshadow="2"
     pagecolor="#ffffff"
     showguides="true"
     inkscape:window-height="1004"
     fit-margin-top="0" />
  <metadata
     id="metadata7">
    <rdf:RDF>
      <cc:Work
         rdf:about="">
        <dc:format>image/svg+xml</dc:format>
        <dc:type
           rdf:resource="http://purl.org/dc/dcmitype/StillImage" />
        <dc:title></dc:title>
      </cc:Work>
    </rdf:RDF>
  </metadata>
  <g
     id="layer1"
     inkscape:label="Layer 1"
     inkscape:groupmode="layer"
     transform="translate(167.71095,2378.3295)">
    <g
       id="g3012"
       transform="translate(109.60155,-54.548234)"
       stroke-miterlimit="4"
       style="fill:#0dadea;stroke-miterlimit:4;stroke-dasharray:none">
      <g
         id="g3763">
        <path
           inkscape:connector-curvature="0"
           style="fill:#ffffff;fill-rule:nonzero;stroke:#000000;stroke-width:10;stroke-linecap:butt;stroke-linejoin:miter;stroke-miterlimit:4;stroke-opacity:1;stroke-dasharray:none"
           d="m 1887.6875,246.2188 c 0,74.5625 -60.4375,135 -135,135 l -1890,0 c -74.55937,0 -135,-60.4375 -135,-135 l 0,-2430.0001 c 0,-74.5592 60.44063,-135 135,-135 l 1890,0 c 74.5625,0 135,60.4408 135,135 l 0,2430.0001 z"
           id="path11" />
        <path
           inkscape:connector-curvature="0"
           style="fill:#000000;fill-rule:nonzero;stroke:none"
           d="m -137.3125,347.4688 c -55.83012,0 -101.25,-45.425 -101.25,-101.25 l 0,-2430.0001 c 0,-55.8301 45.41988,-101.25 101.25,-101.25 l 1890,0 c 55.825,0 101.25,45.4199 101.25,101.25 l 0,2430.0001 c 0,55.825 -45.425,101.25 -101.25,101.25 l -1890,0 z"
           id="path13" />
        <path
           inkscape:connector-curvature="0"
           style="fill:#ffffff;fill-rule:nonzero;stroke:none"
           d="m -137.3125,291.2188 c -24.81325,0 -45,-20.1875 -45,-45 l 0,-2430.0001 c 0,-24.8132 20.18675,-45 45,-45 l 1890,0 c 24.8125,0 45,20.1868 45,45 l 0,2430.0001 c 0,24.8125 -20.1875,45 -45,45 l -1890,0 z"
           id="path15" />
        <path
           inkscape:connector-curvature="0"
           style="fill:#000000;fill-rule:nonzero;stroke:none"
           d="m 705.695,-1710.4911 c -13.9525,31.58 -43.12875,50.5262 -79.91375,50.5262 -43.12875,0 -74.83875,-21.4737 -92.59875,-61.895 -11.4175,-26.5275 -19.02875,-77.0525 -19.02875,-123.7899 0,-50.5263 3.80625,-87.1589 16.49,-121.2639 12.685,-37.895 49.47125,-65.6837 91.3325,-65.6837 52.00625,0 91.33,37.895 93.86625,90.9476 l -52.0075,0 c -1.26875,-24 -17.7575,-40.4226 -43.12875,-40.4226 -17.75875,0 -31.7125,8.8425 -40.59125,26.5275 -10.1475,17.6838 -16.49,58.105 -16.49,101.0525 0,30.3163 2.53625,61.895 7.61,89.685 7.61125,35.3688 25.37,54.3163 53.2775,54.3163 26.63875,0 39.3225,-17.685 39.3225,-55.58 l 0,-23.9987 -40.59125,0 0,-50.5276 92.59875,0 0,74.5263 c 0,25.2637 -2.53625,40.4225 -10.1475,55.58 z"
           id="path17" />
        <path
           inkscape:connector-curvature="0"
           style="fill:#000000;fill-rule:nonzero;stroke:none"
           d="m 937.85,-1666.2811 0,-162.9475 -98.3225,0 0,162.9475 -51.685,0 0,-360 51.685,0 0,146.5263 98.3225,0 0,-146.5263 51.6875,0 0,360 -51.6875,0 z"
           id="path19" />
        <path
           inkscape:connector-curvature="0"
           style="fill:#000000;fill-rule:nonzero;stroke:none"
           d="m 391.75375,-1666.2811 0,-360 50.39875,0 0,360 -50.39875,0 z"
           id="path21" />
        <path
           inkscape:connector-curvature="0"
           style="fill:#000000;fill-rule:nonzero;stroke:none"
           d="m 157.6625,-1666.2811 0,-360 51.94,0 0,312.0013 131.75125,0 0,47.9987 -183.69125,0 z"
           id="path23" />
        <path
           inkscape:connector-curvature="0"
           style="fill:#000000;fill-rule:nonzero;stroke:none"
           d="m 1358.5251,-1832.5336 c -15.575,-10.0914 -30.6875,-20.2164 -40.3501,-27.0114 -29.0249,-20.4287 -44.3999,-47.9987 -44.3999,-79.5787 0,-51.79 40.6,-93.4738 92.5999,-93.4738 50.7375,0 90.0625,39.1575 91.3376,93.4738 l -49.475,0 c -1.2625,-25.2638 -19.025,-41.685 -41.8625,-41.685 -24.1,0 -43.125,17.685 -43.125,41.685 0,17.685 7.6125,27.79 34.25,42.9476 69.7625,40.4213 100.2125,79.58 100.2125,131.3687 0,58.1063 -44.4,104.8426 -100.2125,104.8426 -63.425,0 -101.475,-53.0526 -101.475,-112.4213 l 50.7375,0 c 0,30.3163 15.225,61.895 50.7375,61.895 27.9125,0 50.7375,-25.2638 50.7375,-54.3163 0,-22.5587 -9.325,-41.5587 -49.7125,-67.7262 z"
           id="path25" />
        <path
           inkscape:connector-curvature="0"
           style="fill:#000000;fill-rule:nonzero;stroke:none"
           d="m 1157.7501,-1978.2811 0,312 -51.9375,0 0,-312 -65.8876,0 0,-48 183.7001,0 0,48 -65.875,0 z"
           id="path27" />
        <path
           inkscape:connector-curvature="0"
           style="fill:#000000;fill-rule:nonzero;stroke:none"
           d="m 1011.7,-1081.2786 -110.92875,-241.2638 0,241.2638 -51.68375,0 0,-360.0013 51.68375,0 98.32875,216.0013 0,-216.0013 51.6751,0 0,360.0013 -39.0751,0 z"
           id="path29" />
        <path
           inkscape:connector-curvature="0"
           style="fill:#000000;fill-rule:nonzero;stroke:none"
           d="m 716.0125,-1351.5949 c -8.90625,-31.5799 -22.9025,-45.4749 -44.53375,-45.4749 -22.9025,0 -36.89875,13.895 -45.805,44.2112 -8.9075,27.79 -11.45,51.79 -11.45,92.2112 0,39.1575 3.815,61.8938 11.45,90.9475 8.90625,30.3163 22.9025,44.21 45.805,44.21 21.63125,0 35.6275,-13.8937 44.53375,-44.21 8.9075,-29.0537 11.45125,-50.5262 11.45125,-92.2112 0,-40.42 -3.81625,-63.1575 -11.45125,-89.6838 z m 40.71625,214.7363 c -17.81375,42.9475 -44.53375,61.8963 -85.25,61.8963 -43.26125,0 -68.70875,-18.9488 -86.5225,-61.8963 -15.26875,-35.3675 -20.35875,-69.4738 -20.35875,-125.0525 0,-54.3162 5.09,-90.9475 20.35875,-125.0525 19.08625,-42.9475 44.53375,-60.6325 86.5225,-60.6325 41.99,0 67.43625,17.685 85.25,61.895 15.27,35.37 20.36,69.4737 20.36,123.79 0,55.5787 -5.09,90.9475 -20.36,125.0525 z"
           id="path31" />
        <path
           inkscape:connector-curvature="0"
           style="fill:#000000;fill-rule:nonzero;stroke:none"
           d="m 886.9325,-496.2812 0,-360.00005 169.755,0 0,50.5251 -117.8175,0 0,90.95 74.7425,0 0,49.26245 -74.7425,0 0,118.7375 131.7551,0 0,50.525 -183.6926,0 z"
           id="path33" />
        <path
           inkscape:connector-curvature="0"
           style="fill:#000000;fill-rule:nonzero;stroke:none"
           d="m 756.04875,-496.2812 0,-162.95 -98.3225,0 0,162.95 -51.68375,0 0,-360.00005 51.68375,0 0,146.5252 98.3225,0 0,-146.5252 51.6825,0 0,360.00005 -51.6825,0 z"
           id="path35" />
        <path
           inkscape:connector-curvature="0"
           style="fill:#000000;fill-rule:nonzero;stroke:none"
           d="m 1294.4376,-496.2812 -110.925,-241.26255 0,241.26255 -51.6875,0 0,-360.00005 51.6875,0 98.3125,216.00005 0,-216.00005 51.6875,0 0,360.00005 -39.075,0 z"
           id="path37" />
        <path
           inkscape:connector-curvature="0"
           style="fill:#000000;fill-rule:nonzero;stroke:none"
           d="m 497.3375,-496.2812 -44.3625,0 -34.2225,-188.2125 -34.2225,188.2125 -45.63,0 -57.0375,-360.00005 50.69875,0 30.42125,192.00005 35.49,-192.00005 40.56,0 34.2225,192.00005 31.68875,-192.00005 50.69875,0 -58.305,360.00005 z"
           id="path39" />
        <path
           inkscape:connector-curvature="0"
           style="fill:#000000;fill-rule:nonzero;stroke:none"
           d="m 390.52875,-163.9062 -25.3275,103.5751 51.925,0 -26.5975,-103.5751 z m 64.58875,252.625 -25.3275,-98.525 -77.2525,0 -24.06125,98.525 -51.925,0 89.915,-360 50.66,0 89.915,360 -51.92375,0 z"
           id="path41" />
        <path
           inkscape:connector-curvature="0"
           style="fill:#000000;fill-rule:nonzero;stroke:none"
           d="m 1562.7625,44.5063 c -13.9499,31.5875 -43.125,50.525 -79.9125,50.525 -43.125,0 -74.8375,-21.4625 -92.5999,-61.8874 -11.4126,-26.525 -19.0251,-77.0501 -19.0251,-123.7875 0,-50.5251 3.8,-87.1626 16.4875,-121.2626 12.6875,-37.9 49.4751,-65.6875 91.3375,-65.6875 52,0 91.3251,37.8876 93.8625,90.9501 l -52.0125,0 c -1.2624,-24 -17.75,-40.425 -43.125,-40.425 -17.7624,0 -31.7124,8.8374 -40.5874,26.5249 -10.1501,17.6875 -16.4875,58.1125 -16.4875,101.05 0,30.325 2.5374,61.9 7.5999,89.6875 7.6125,35.375 25.375,54.3125 53.2875,54.3125 26.6375,0 39.3125,-17.6749 39.3125,-55.5749 l 0,-24 -40.5874,0 0,-50.5251 92.5999,0 0,74.5251 c 0,25.2625 -2.5374,40.4249 -10.1499,55.5749 z"
           id="path43" />
        <path
           inkscape:connector-curvature="0"
           style="fill:#000000;fill-rule:nonzero;stroke:none"
           d="m 557.4425,88.7188 0,-360 50.39875,0 0,360 -50.39875,0 z"
           id="path45" />
        <path
           inkscape:connector-curvature="0"
           style="fill:#000000;fill-rule:nonzero;stroke:none"
           d="m 967.9325,88.7188 0,-360 50.405,0 0,360 -50.405,0 z"
           id="path47" />
        <path
           inkscape:connector-curvature="0"
           style="fill:#000000;fill-rule:nonzero;stroke:none"
           d="m 849.655,88.7188 -110.92875,-241.2625 0,241.2625 -51.68375,0 0,-360 51.68375,0 98.3225,216 0,-216 51.68375,0 0,360 -39.0775,0 z"
           id="path49" />
        <path
           inkscape:connector-curvature="0"
           style="fill:#000000;fill-rule:nonzero;stroke:none"
           d="m 1260.15,88.7188 -110.9375,-241.2625 0,241.2625 -51.675,0 0,-360 51.675,0 98.325,216 0,-216 51.6875,0 0,360 -39.075,0 z"
           id="path51" />
        <path
           inkscape:connector-curvature="0"
           style="fill:#000000;fill-rule:nonzero;stroke:none"
           d="m 147.08875,-220.7561 -52.94375,0 0,90.9499 52.94375,0 c 30.25375,0 46.64,-16.425 46.64,-45.475 0,-27.7874 -18.9075,-45.4749 -46.64,-45.4749 z m 44.11875,309.4749 -47.90125,-169.2625 -49.16125,0 0,169.2625 -51.68375,0 0,-360 107.1475,0 c 56.72625,0 94.5425,37.9001 94.5425,96 0,42.9501 -17.6475,74.5251 -51.6825,87.1625 l 51.6825,176.8375 -52.94375,0 z"
           id="path53" />
      </g>
    </g>
  </g>
</svg>
