<?xml version="1.0" encoding="UTF-8" standalone="no"?>
<!-- Created with Inkscape (http://www.inkscape.org/) -->

<svg
   xmlns:dc="http://purl.org/dc/elements/1.1/"
   xmlns:cc="http://creativecommons.org/ns#"
   xmlns:rdf="http://www.w3.org/1999/02/22-rdf-syntax-ns#"
   xmlns:svg="http://www.w3.org/2000/svg"
   xmlns="http://www.w3.org/2000/svg"
   xmlns:sodipodi="http://sodipodi.sourceforge.net/DTD/sodipodi-0.dtd"
   xmlns:inkscape="http://www.inkscape.org/namespaces/inkscape"
   id="svg2"
   inkscape:version="0.48.2 r9819"
   height="2710"
   width="2170"
   version="1.1"
   sodipodi:docname="AJAX1.svg">
  <defs
     id="defs19" />
  <sodipodi:namedview
     id="base"
     fit-margin-left="0"
     inkscape:zoom="0.125"
     borderopacity="1.0"
     inkscape:current-layer="g3763"
     inkscape:cx="2499.4787"
     inkscape:cy="110.58086"
     inkscape:window-maximized="1"
     showgrid="false"
     fit-margin-right="0"
     inkscape:document-units="px"
     bordercolor="#666666"
     inkscape:window-x="-8"
     inkscape:guide-bbox="true"
     inkscape:window-y="-8"
     fit-margin-bottom="0"
     inkscape:window-width="1280"
     inkscape:pageopacity="0.0"
     inkscape:pageshadow="2"
     pagecolor="#ffffff"
     showguides="true"
     inkscape:window-height="1004"
     fit-margin-top="0" />
  <metadata
     id="metadata7">
    <rdf:RDF>
      <cc:Work
         rdf:about="">
        <dc:format>image/svg+xml</dc:format>
        <dc:type
           rdf:resource="http://purl.org/dc/dcmitype/StillImage" />
        <dc:title></dc:title>
      </cc:Work>
    </rdf:RDF>
  </metadata>
  <g
     id="layer1"
     inkscape:label="Layer 1"
     inkscape:groupmode="layer"
     transform="translate(163.02345,2383.017)">
    <g
       id="g3012"
       transform="translate(109.60155,-54.548234)"
       stroke-miterlimit="4"
       style="fill:#0dadea;stroke-miterlimit:4;stroke-dasharray:none">
      <g
         id="g3763">
        <path
           inkscape:connector-curvature="0"
           style="fill:#ffffff;fill-rule:nonzero;stroke:#000000;stroke-width:10;stroke-linecap:butt;stroke-linejoin:miter;stroke-miterlimit:4;stroke-opacity:1;stroke-dasharray:none"
           d="m 1892.375,241.5313 c 0,74.5625 -60.4375,135 -135,135 l -1890,0 c -74.55937,0 -135,-60.4375 -135,-135 l 0,-2430.0001 c 0,-74.5592 60.44063,-135 135,-135 l 1890,0 c 74.5625,0 135,60.4408 135,135 l 0,2430.0001 z"
           id="path11" />
        <path
           inkscape:connector-curvature="0"
           style="fill:#000000;fill-rule:nonzero;stroke:none"
           d="m -132.625,342.7813 c -55.83012,0 -101.25,-45.425 -101.25,-101.25 l 0,-2430.0001 c 0,-55.8301 45.41988,-101.25 101.25,-101.25 l 1890,0 c 55.825,0 101.25,45.4199 101.25,101.25 l 0,2430.0001 c 0,55.825 -45.425,101.25 -101.25,101.25 l -1890,0 z"
           id="path13" />
        <path
           inkscape:connector-curvature="0"
           style="fill:#ffffff;fill-rule:nonzero;stroke:none"
           d="m -132.625,286.5313 c -24.81325,0 -45,-20.1875 -45,-45 l 0,-2430.0001 c 0,-24.8132 20.18675,-45 45,-45 l 1890,0 c 24.8125,0 45,20.1868 45,45 l 0,2430.0001 c 0,24.8125 -20.1875,45 -45,45 l -1890,0 z"
           id="path15" />
        <path
           inkscape:connector-curvature="0"
           style="fill:#000000;fill-rule:nonzero;stroke:none"
           d="m 710.3825,-1715.1787 c -13.9525,31.58 -43.12875,50.5262 -79.91375,50.5262 -43.12875,0 -74.83875,-21.4737 -92.59875,-61.895 -11.4175,-26.5275 -19.02875,-77.0525 -19.02875,-123.79 0,-50.5262 3.80625,-87.1587 16.49,-121.2637 12.685,-37.895 49.47125,-65.6838 91.3325,-65.6838 52.00625,0 91.33,37.895 93.86625,90.9475 l -52.0075,0 c -1.26875,-24 -17.7575,-40.4225 -43.12875,-40.4225 -17.75875,0 -31.7125,8.8425 -40.59125,26.5275 -10.1475,17.6838 -16.49,58.105 -16.49,101.0525 0,30.3163 2.53625,61.895 7.61,89.685 7.61125,35.3688 25.37,54.3163 53.2775,54.3163 26.63875,0 39.3225,-17.685 39.3225,-55.58 l 0,-23.9987 -40.59125,0 0,-50.5276 92.59875,0 0,74.5263 c 0,25.2637 -2.53625,40.4225 -10.1475,55.58 z"
           id="path17" />
        <path
           inkscape:connector-curvature="0"
           style="fill:#000000;fill-rule:nonzero;stroke:none"
           d="m 942.5375,-1670.9687 0,-162.9475 -98.3225,0 0,162.9475 -51.685,0 0,-360 51.685,0 0,146.5262 98.3225,0 0,-146.5262 51.6875,0 0,360 -51.6875,0 z"
           id="path19" />
        <path
           inkscape:connector-curvature="0"
           style="fill:#000000;fill-rule:nonzero;stroke:none"
           d="m 396.44125,-1670.9687 0,-360 50.39875,0 0,360 -50.39875,0 z"
           id="path21" />
        <path
           inkscape:connector-curvature="0"
           style="fill:#000000;fill-rule:nonzero;stroke:none"
           d="m 162.35,-1670.9687 0,-360 51.94,0 0,312.0013 131.75125,0 0,47.9987 -183.69125,0 z"
           id="path23" />
        <path
           inkscape:connector-curvature="0"
           style="fill:#000000;fill-rule:nonzero;stroke:none"
           d="m 1363.2125,-1837.2212 c -15.575,-10.0913 -30.6875,-20.2163 -40.35,-27.0113 -29.025,-20.4287 -44.4,-47.9987 -44.4,-79.5787 0,-51.79 40.6,-93.4738 92.6,-93.4738 50.7375,0 90.0625,39.1575 91.3375,93.4738 l -49.475,0 c -1.2625,-25.2638 -19.025,-41.685 -41.8625,-41.685 -24.1,0 -43.125,17.685 -43.125,41.685 0,17.685 7.6125,27.79 34.25,42.9475 69.7625,40.4212 100.2125,79.58 100.2125,131.3687 0,58.1063 -44.4,104.8426 -100.2125,104.8426 -63.425,0 -101.475,-53.0526 -101.475,-112.4213 l 50.7375,0 c 0,30.3163 15.225,61.895 50.7375,61.895 27.9125,0 50.7375,-25.2638 50.7375,-54.3163 0,-22.5587 -9.325,-41.5587 -49.7125,-67.7262 z"
           id="path25" />
        <path
           inkscape:connector-curvature="0"
           style="fill:#000000;fill-rule:nonzero;stroke:none"
           d="m 1162.4375,-1982.9687 0,312 -51.9375,0 0,-312 -65.8875,0 0,-48 183.7,0 0,48 -65.875,0 z"
           id="path27" />
        <path
           inkscape:connector-curvature="0"
           style="fill:#000000;fill-rule:nonzero;stroke:none"
           d="m 1367.6125,-545.1812 c -13.95,31.5875 -43.1375,50.525 -79.9125,50.525 -43.1375,0 -74.85,-21.4625 -92.6,-61.8875 -11.425,-26.5249 -19.0375,-77.05 -19.0375,-123.7874 0,-50.5251 3.8125,-87.1626 16.5,-121.2626 12.675,-37.9 49.4625,-65.6875 91.325,-65.6875 52.0125,0 91.3375,37.8876 93.8625,90.9501 l -52,0 c -1.275,-24 -17.7625,-40.425 -43.125,-40.425 -17.7625,0 -31.7125,8.8374 -40.6,26.5249 -10.1375,17.6875 -16.4875,58.1001 -16.4875,101.05 0,30.325 2.5375,61.9 7.6125,89.6875 7.6125,35.3626 25.3625,54.3125 53.275,54.3125 26.6375,0 39.325,-17.675 39.325,-55.5749 l 0,-24 -40.5875,0 0,-50.5251 92.5875,0 0,74.5251 c 0,25.2625 -2.525,40.425 -10.1375,55.5749 z"
           id="path29" />
        <path
           inkscape:connector-curvature="0"
           style="fill:#000000;fill-rule:nonzero;stroke:none"
           d="m 772.7763,-500.9687 0,-360 50.4,0 0,360 -50.4,0 z"
           id="path31" />
        <path
           inkscape:connector-curvature="0"
           style="fill:#000000;fill-rule:nonzero;stroke:none"
           d="M 1064.9875,-500.9687 954.06,-742.2312 l 0,241.2625 -51.6825,0 0,-360 51.6825,0 98.3275,216 0,-216 51.675,0 0,360 -39.075,0 z"
           id="path33" />
        <path
           inkscape:connector-curvature="0"
           style="fill:#000000;fill-rule:nonzero;stroke:none"
           d="m 612.395,-667.2187 c -15.575,-10.0875 -30.69875,-20.2125 -40.35375,-27.0125 -29.0225,-20.425 -44.3975,-48 -44.3975,-79.575 0,-51.8 40.5925,-93.475 92.60125,-93.475 50.73875,0 90.0625,39.1625 91.33125,93.475 l -49.4725,0 c -1.265,-25.2624 -19.025,-41.6875 -41.85875,-41.6875 -24.10125,0 -43.12875,17.6875 -43.12875,41.6875 0,17.6875 7.61,27.7876 34.24875,42.95 69.7675,40.4126 100.21125,79.575 100.21125,131.3625 0,58.1001 -44.3975,104.8375 -100.21125,104.8375 -63.425,0 -101.47875,-53.0499 -101.47875,-112.4124 l 50.73875,0 c 0,30.3125 15.22125,61.8874 50.74,61.8874 27.9075,0 50.73875,-25.2624 50.73875,-54.3125 0,-22.5625 -9.32125,-41.5625 -49.70875,-67.725 z"
           id="path35" />
        <path
           inkscape:connector-curvature="0"
           style="fill:#000000;fill-rule:nonzero;stroke:none"
           d="m 434.82,-545.1812 c -17.64875,29.0625 -51.685,50.525 -85.71875,50.525 -35.29625,0 -70.59375,-20.2125 -88.24,-50.525 -10.085,-18.9499 -13.8675,-34.1 -13.8675,-63.1499 l 0,-252.6376 51.68375,0 0,258.9501 c 0,34.0999 20.17,56.8374 50.42375,56.8374 27.73125,0 47.90125,-22.7375 47.90125,-56.8374 l 0,-258.9501 51.68375,0 0,252.6376 c 0,29.0499 -3.7825,44.2 -13.86625,63.15 z"
           id="path37" />
        <path
           inkscape:connector-curvature="0"
           style="fill:#000000;fill-rule:nonzero;stroke:none"
           d="m 1247.2125,-1085.9662 0,-360 169.75,0 0,50.525 -117.8125,0 0,90.9487 74.7375,0 0,49.2638 -74.7375,0 0,118.7363 131.75,0 0,50.5262 -183.6875,0 z"
           id="path39" />
        <path
           inkscape:connector-curvature="0"
           style="fill:#000000;fill-rule:nonzero;stroke:none"
           d="m 1116.325,-1085.9662 0,-162.9475 -98.3249,0 0,162.9475 -51.6813,0 0,-360 51.6813,0 0,146.5262 98.3249,0 0,-146.5262 51.6875,0 0,360 -51.6875,0 z"
           id="path41" />
        <path
           inkscape:connector-curvature="0"
           style="fill:#000000;fill-rule:nonzero;stroke:none"
           d="m 378.0625,-1085.9662 -110.92875,-241.2638 0,241.2638 -51.68375,0 0,-360.0013 51.68375,0 98.3225,216.0013 0,-216.0013 51.685,0 0,360.0013 -39.07875,0 z"
           id="path43" />
        <path
           inkscape:connector-curvature="0"
           style="fill:#000000;fill-rule:nonzero;stroke:none"
           d="m 1654.7125,-1085.9662 -110.925,-241.2638 0,241.2638 -51.6875,0 0,-360.0012 51.6875,0 98.325,216.0012 0,-216.0012 51.675,0 0,360.0012 -39.075,0 z"
           id="path45" />
        <path
           inkscape:connector-curvature="0"
           style="fill:#000000;fill-rule:nonzero;stroke:none"
           d="m 82.375,-1356.2825 c -8.90625,-31.5799 -22.9025,-45.4749 -44.53375,-45.4749 -22.9025,0 -36.89875,13.895 -45.805,44.2112 -8.9075,27.79 -11.4525,51.79 -11.4525,92.2113 0,39.1575 3.8175,61.8937 11.4525,90.9475 8.90625,30.3162 22.9025,44.21 45.805,44.21 21.63125,0 35.6275,-13.8938 44.53375,-44.21 8.9075,-29.0538 11.45125,-50.5263 11.45125,-92.2113 0,-40.42 -3.8175,-63.1575 -11.45125,-89.6838 z m 40.71625,214.7363 c -17.81375,42.9475 -44.53375,61.8963 -85.25,61.8963 -43.26125,0 -68.70875,-18.9488 -86.5225,-61.8963 -15.27,-35.3675 -20.35875,-69.4737 -20.35875,-125.0525 0,-54.3163 5.08875,-90.9475 20.35875,-125.0525 19.08625,-42.9475 44.53375,-60.6325 86.5225,-60.6325 41.99,0 67.43625,17.685 85.25,61.895 15.27,35.37 20.35875,69.4737 20.35875,123.79 0,55.5788 -5.08875,90.9475 -20.35875,125.0525 z"
           id="path47" />
        <path
           inkscape:connector-curvature="0"
           style="fill:#000000;fill-rule:nonzero;stroke:none"
           d="m 857.61375,-1085.9662 -44.36125,0 -34.22375,-188.21 -34.2225,188.21 -45.63,0 -57.035,-360.0012 50.6975,0 30.42125,192.0012 35.49,-192.0012 40.56,0 34.2225,192.0012 31.6875,-192.0012 50.7,0 -58.30625,360.0012 z"
           id="path49" />
        <path
           inkscape:connector-curvature="0"
           style="fill:#000000;fill-rule:nonzero;stroke:none"
           d="m 830.375,84.0313 0,-360 169.75,0 0,50.5251 -117.81125,0 0,90.9499 74.74375,0 0,49.2625 -74.74375,0 0,118.7375 131.74875,0 0,50.525 -183.6875,0 z"
           id="path51" />
        <path
           inkscape:connector-curvature="0"
           style="fill:#000000;fill-rule:nonzero;stroke:none"
           d="m 427.08375,84.0313 0,-360 50.39875,0 0,360 -50.39875,0 z"
           id="path53" />
        <path
           inkscape:connector-curvature="0"
           style="fill:#000000;fill-rule:nonzero;stroke:none"
           d="m 661.30875,-225.4436 -52.94375,0 0,102.3249 52.94375,0 c 30.255,0 46.64125,-18.9499 46.64125,-51.8 0,-30.3125 -18.90875,-50.5249 -46.64125,-50.5249 z m 2.5225,151.5874 -55.46625,0 0,157.8875 -51.6825,0 0,-360 107.14875,0 c 56.72375,0 94.54125,40.425 94.54125,101.05 0,65.6875 -34.03625,101.0625 -94.54125,101.0625 z"
           id="path55" />
        <path
           inkscape:connector-curvature="0"
           style="fill:#000000;fill-rule:nonzero;stroke:none"
           d="m 1179.9,-225.4436 -52.95,0 0,90.9499 52.95,0 c 30.25,0 46.6375,-16.425 46.6375,-45.475 0,-27.7874 -18.9125,-45.4749 -46.6375,-45.4749 z m 44.1125,309.4749 -47.9,-169.2625 -49.1625,0 0,169.2625 -51.6875,0 0,-360 107.15,0 c 56.725,0 94.55,37.9001 94.55,96 0,42.9501 -17.65,74.5251 -51.6875,87.1625 l 51.6875,176.8375 -52.95,0 z"
           id="path57" />
        <path
           inkscape:connector-curvature="0"
           style="fill:#000000;fill-rule:nonzero;stroke:none"
           d="m 1422.6625,-82.2187 c -15.575,-10.0875 -30.7,-20.2125 -40.35,-27.0125 -29.025,-20.425 -44.4,-48 -44.4,-79.575 0,-51.8 40.6,-93.475 92.6,-93.475 50.7375,0 90.0625,39.1625 91.3375,93.475 l -49.475,0 c -1.2625,-25.2624 -19.025,-41.6875 -41.8625,-41.6875 -24.1,0 -43.125,17.6875 -43.125,41.6875 0,17.6875 7.6125,27.7876 34.25,42.95 69.7625,40.4126 100.2125,79.575 100.2125,131.3625 0,58.1 -44.4,104.8375 -100.2125,104.8375 -63.425,0 -101.4875,-53.05 -101.4875,-112.4124 l 50.75,0 c 0,30.3125 15.2125,61.8874 50.7375,61.8874 27.9,0 50.7375,-25.2624 50.7375,-54.3125 0,-22.5625 -9.325,-41.5625 -49.7125,-67.725 z"
           id="path59" />
        <path
           inkscape:connector-curvature="0"
           style="fill:#000000;fill-rule:nonzero;stroke:none"
           d="m 318.3775,84.0313 -44.36125,0 -34.22375,-188.2125 -34.2225,188.2125 -45.63,0 -57.0375,-360 50.7,0 30.42125,192 35.48875,-192 40.56125,0 34.2225,192 31.6875,-192 50.7,0 -58.30625,360 z"
           id="path61" />
      </g>
    </g>
  </g>
</svg>
