<?xml version="1.0" encoding="UTF-8" standalone="no"?>
<!-- Created with Inkscape (http://www.inkscape.org/) -->

<svg
   xmlns:dc="http://purl.org/dc/elements/1.1/"
   xmlns:cc="http://creativecommons.org/ns#"
   xmlns:rdf="http://www.w3.org/1999/02/22-rdf-syntax-ns#"
   xmlns:svg="http://www.w3.org/2000/svg"
   xmlns="http://www.w3.org/2000/svg"
   xmlns:sodipodi="http://sodipodi.sourceforge.net/DTD/sodipodi-0.dtd"
   xmlns:inkscape="http://www.inkscape.org/namespaces/inkscape"
   id="svg2"
   inkscape:version="0.48.2 r9819"
   height="1630"
   width="5410"
   version="1.1"
   sodipodi:docname="AJAX7.svg">
  <defs
     id="defs19">
    <clipPath
       id="Clip0">
      <path
         inkscape:connector-curvature="0"
         d="m 0,0 0,1296.5 4320.5,0 L 4320.5,0 0,0 z"
         transform="translate(0,0.5)"
         id="path7" />
    </clipPath>
    <clipPath
       id="Clip0-1">
      <path
         inkscape:connector-curvature="0"
         d="m 0,0 0,1296.5 3024.5,0 L 3024.5,0 0,0 z"
         transform="translate(0,0.5)"
         id="path7-7" />
    </clipPath>
    <clipPath
       id="Clip0-17">
      <path
         inkscape:connector-curvature="0"
         d="m 0,0 0,1296.5 4320.5,0 L 4320.5,0 0,0 z"
         transform="translate(0,0.5)"
         id="path7-4" />
    </clipPath>
  </defs>
  <sodipodi:namedview
     id="base"
     fit-margin-left="0"
     inkscape:zoom="0.125"
     borderopacity="1.0"
     inkscape:current-layer="g3763"
     inkscape:cx="2295.3521"
     inkscape:cy="889.62724"
     inkscape:window-maximized="1"
     showgrid="false"
     fit-margin-right="0"
     inkscape:document-units="px"
     bordercolor="#666666"
     inkscape:window-x="-8"
     inkscape:guide-bbox="true"
     inkscape:window-y="-8"
     fit-margin-bottom="0"
     inkscape:window-width="1280"
     inkscape:pageopacity="0.0"
     inkscape:pageshadow="2"
     pagecolor="#ffffff"
     showguides="true"
     inkscape:window-height="1004"
     fit-margin-top="0" />
  <metadata
     id="metadata7">
    <rdf:RDF>
      <cc:Work
         rdf:about="">
        <dc:format>image/svg+xml</dc:format>
        <dc:type
           rdf:resource="http://purl.org/dc/dcmitype/StillImage" />
        <dc:title></dc:title>
      </cc:Work>
    </rdf:RDF>
  </metadata>
  <g
     id="layer1"
     inkscape:label="Layer 1"
     inkscape:groupmode="layer"
     transform="translate(191.14845,1274.892)">
    <g
       id="g3012"
       transform="translate(109.60155,-54.548234)"
       stroke-miterlimit="4"
       style="fill:#0dadea;stroke-miterlimit:4;stroke-dasharray:none">
      <g
         id="g3763">
        <path
           inkscape:connector-curvature="0"
           style="fill:#ffffff;fill-rule:nonzero;stroke:#000000;stroke-width:10;stroke-linecap:butt;stroke-linejoin:miter;stroke-miterlimit:4;stroke-opacity:1;stroke-dasharray:none"
           d="m 5104.25,269.6563 c 0,74.5625 -60.4375,135 -135,135 l -5130,0 c -74.55813,0 -135,-60.4375 -135,-135 l 0,-1350.0001 c 0,-74.5581 60.44188,-135 135,-135 l 5130,0 c 74.5625,0 135,60.4419 135,135 l 0,1350.0001 z"
           id="path11" />
        <path
           inkscape:connector-curvature="0"
           style="fill:#000000;fill-rule:nonzero;stroke:none"
           d="m -160.75,370.9063 c -55.83012,0 -101.25,-45.425 -101.25,-101.25 l 0,-1350.0001 c 0,-55.8301 45.41988,-101.25 101.25,-101.25 l 5130,0 c 55.825,0 101.25,45.4199 101.25,101.25 l 0,1350.0001 c 0,55.825 -45.425,101.25 -101.25,101.25 l -5130,0 z"
           id="path13" />
        <path
           inkscape:connector-curvature="0"
           style="fill:#ffffff;fill-rule:nonzero;stroke:none"
           d="m -160.75,314.6563 c -24.81325,0 -45,-20.1875 -45,-45 l 0,-1350.0001 c 0,-24.8132 20.18675,-45 45,-45 l 5130,0 c 24.8125,0 45,20.1868 45,45 l 0,1350.0001 c 0,24.8125 -20.1875,45 -45,45 l -5130,0 z"
           id="path15" />
        <path
           inkscape:connector-curvature="0"
           style="fill:#000000;fill-rule:nonzero;stroke:none"
           d="m 4732.8625,89.6563 -137.6875,-243.78875 0,243.78875 -56.8501,0 0,-360 56.8501,0 131.375,229.8975 0,-229.8975 56.8499,0 0,360 -50.5374,0 z"
           id="path17" />
        <path
           inkscape:connector-curvature="0"
           style="fill:#000000;fill-rule:nonzero;stroke:none"
           d="m 4380.6125,-190.7637 c -11.3875,-18.9475 -25.3125,-26.52625 -46.8375,-27.7875 -27.8625,-1.265 -45.5875,12.62875 -58.25,44.20875 -8.875,21.47375 -13.925,54.31625 -13.925,84.63125 0,37.895 7.5874,77.0525 21.5125,99.79 11.4,18.9475 26.6,27.79 49.3874,27.79 26.6001,0 43.0501,-13.89625 55.7126,-45.47375 7.5999,-18.9475 13.9375,-54.31625 13.9375,-82.10625 0,-40.42 -7.6,-77.05125 -21.5375,-101.0525 z m 39.2624,246.32 c -20.2624,27.7875 -49.3874,40.4125 -87.375,40.4125 -50.6499,0 -82.2999,-20.2125 -103.8374,-64.415 -15.1875,-30.3175 -25.3125,-78.31625 -25.3125,-121.265 0,-59.3675 15.1875,-112.42 39.25,-146.52625 21.5249,-27.79 50.6499,-40.42 92.4375,-40.42 45.575,0 77.2375,20.21 100.0249,64.41875 15.2001,31.58 24.0625,77.05625 24.0625,122.5275 0,56.8425 -13.9249,113.68375 -39.25,145.2675 z"
           id="path19" />
        <path
           inkscape:connector-curvature="0"
           style="fill:#000000;fill-rule:nonzero;stroke:none"
           d="m 3123.525,68.1813 c -20.2124,17.6875 -48,27.7875 -78.3125,27.7875 -61.8999,0 -107.375,-36.625 -131.3874,-90.94375 l 54.3249,-20.2075 c 15.1626,34.10125 42.9501,53.05125 77.0625,53.05125 32.8375,0 55.5751,-22.73875 55.5751,-53.05125 0,-48.0025 -55.5751,-55.58125 -102.3251,-74.52625 -21.475,-8.8425 -69.475,-30.3175 -69.475,-89.6875 0,-70.735 48,-97.26125 112.4375,-97.26125 50.5251,0 84.625,29.0525 102.3125,73.2625 l -50.525,15.15625 c 0,0 -12.6374,-30.3125 -53.0625,-31.5775 -26.5249,-1.2625 -58.1,8.8425 -55.5749,41.68625 5.05,66.94375 174.3249,22.7375 174.3249,164.2075 0,32.84125 -12.6374,61.89125 -35.375,82.10375 z"
           id="path21" />
        <path
           inkscape:connector-curvature="0"
           style="fill:#000000;fill-rule:nonzero;stroke:none"
           d="m 3220.1001,89.6563 0,-360 211.9375,0 0,56.84375 -155.1751,0 0,88.42 104.7126,0 0,58.105 -104.7126,0 0,98.52625 166.5251,0 0,58.105 -223.2875,0 z"
           id="path23" />
        <path
           inkscape:connector-curvature="0"
           style="fill:#000000;fill-rule:nonzero;stroke:none"
           d="m 3633.8125,95.9688 c -53.05,0 -87.1625,-20.2 -109.8999,-64.4175 -16.4126,-31.5775 -26.5251,-77.05375 -26.5251,-122.525 0,-56.84375 15.1625,-113.68625 40.425,-145.26375 21.4751,-26.5275 51.7876,-40.42 92.2125,-40.42 54.3251,0 88.425,22.7375 112.4375,73.2625 L 3689.4,-180.6587 c -20.2125,-30.315 -31.575,-37.8925 -59.375,-37.8925 -29.0499,0 -48,12.62875 -60.6375,44.20875 -8.8375,21.47375 -13.8875,53.05125 -13.8875,83.36875 0,39.1575 8.8375,78.315 22.7375,101.055 12.625,18.945 29.0501,27.7875 54.3125,27.7875 24,0 41.6875,-12.63125 55.5876,-41.68375 l 54.3249,20.21 c -21.475,53.04875 -56.85,79.57375 -108.6499,79.57375 z"
           id="path25" />
        <path
           inkscape:connector-curvature="0"
           style="fill:#000000;fill-rule:nonzero;stroke:none"
           d="m 4066.55,89.6563 0,-360 57.6,0 0,360 -57.6,0 z"
           id="path27" />
        <path
           inkscape:connector-curvature="0"
           style="fill:#000000;fill-rule:nonzero;stroke:none"
           d="m 3928.8125,-219.8187 0,309.475 -57.0874,0 0,-309.475 -82.4626,0 0,-50.5275 223.2875,0 0,50.5275 -83.7375,0 z"
           id="path29" />
        <path
           inkscape:connector-curvature="0"
           style="fill:#000000;fill-rule:nonzero;stroke:none"
           d="m 213.33125,89.6563 0,-156.63125 -131.38,0 0,156.63125 -56.845,0 0,-360 56.845,0 0,145.26375 131.38,0 0,-145.26375 56.84625,0 0,360 -56.84625,0 z"
           id="path31" />
        <path
           inkscape:connector-curvature="0"
           style="fill:#000000;fill-rule:nonzero;stroke:none"
           d="m 1126.7501,-198.3437 c -8.85,-8.84125 -21.475,-15.15875 -36.6375,-15.15875 l -64.425,0 0,245.05375 56.85,0 c 18.95,0 30.3125,-3.79 40.425,-13.8925 21.475,-21.47375 32.8375,-60.6325 32.8375,-108.6375 0,-47.9975 -11.3625,-88.4175 -29.05,-107.365 z m 24,267.7875 c -13.9,12.6375 -32.85,18.95 -51.7875,20.2125 -3.8,0 -11.375,0 -20.2125,0 l -109.9126,0 0,-360 116.2251,0 c 36.6375,0 50.525,3.78875 69.475,18.95 37.9,32.8425 59.375,89.6825 59.375,160.415 0,72.0025 -22.7375,128.8475 -63.1625,160.4225 z"
           id="path33" />
        <path
           inkscape:connector-curvature="0"
           style="fill:#000000;fill-rule:nonzero;stroke:none"
           d="m 356.57125,89.6563 0,-360 211.93625,0 0,56.84375 -155.1675,0 0,88.42 104.70875,0 0,58.105 -104.70875,0 0,98.52625 166.52375,0 0,58.105 -223.2925,0 z"
           id="path35" />
        <path
           inkscape:connector-curvature="0"
           style="fill:#000000;fill-rule:nonzero;stroke:none"
           d="m 762.3875,-170.5537 -36.8425,101.055 72.415,0 -35.5725,-101.055 z m 91.47375,260.21 -35.57375,-101.05 -113.07,0 -35.57375,101.05 -60.98,0 124.5025,-360 57.1725,0 124.50375,360 -60.98125,0 z"
           id="path37" />
        <path
           inkscape:connector-curvature="0"
           style="fill:#000000;fill-rule:nonzero;stroke:none"
           d="m 1570.4001,89.6563 0,-360 57.5999,0 0,360 -57.5999,0 z"
           id="path39" />
        <path
           inkscape:connector-curvature="0"
           style="fill:#000000;fill-rule:nonzero;stroke:none"
           d="m 1293.1126,89.6563 0,-360.0025 56.7625,0 0,306.9525 166.5249,0 0,53.05 -223.2874,0 z"
           id="path41" />
        <path
           inkscape:connector-curvature="0"
           style="fill:#000000;fill-rule:nonzero;stroke:none"
           d="m 2470.1001,-219.8187 0,309.475 -57.0875,0 0,-309.475 -82.475,0 0,-50.5275 223.2875,0 0,50.5275 -83.725,0 z"
           id="path43" />
        <path
           inkscape:connector-curvature="0"
           style="fill:#000000;fill-rule:nonzero;stroke:none"
           d="m 2219.7001,89.6563 0,-156.63125 -131.3876,0 0,156.63125 -56.8375,0 0,-360 56.8375,0 0,145.26375 131.3876,0 0,-145.26375 56.8499,0 0,360 -56.8499,0 z"
           id="path45" />
        <path
           inkscape:connector-curvature="0"
           style="fill:#000000;fill-rule:nonzero;stroke:none"
           d="m 1838.5751,95.9688 c -54.3125,0 -85.9,-20.2 -107.375,-65.68 -15.15,-31.58 -24,-75.79125 -24,-120 0,-58.10625 16.425,-114.94875 40.425,-146.52625 21.475,-26.5275 51.7875,-40.42 92.225,-40.42 55.575,0 88.425,22.7375 112.425,79.58 l -54.325,21.47 c -15.1501,-31.5775 -30.3125,-42.94375 -58.1,-42.94375 -29.0625,0 -48.0125,12.62875 -60.6375,44.20875 -8.85,21.47375 -13.9001,54.31625 -13.9001,84.63125 0,37.895 6.3125,75.79125 17.6875,98.525 11.3625,20.2125 27.7875,29.055 49.2626,29.055 36.6375,0 63.1624,-22.73625 63.1624,-55.57875 l 0,-15.15875 -65.6875,0 0,-56.8425 122.5375,0 0,72.00125 c 0,65.67875 -48,113.67875 -113.7,113.67875 z"
           id="path47" />
        <path
           inkscape:connector-curvature="0"
           style="fill:#000000;fill-rule:nonzero;stroke:none"
           d="m 2837.0126,-696.97745 0,156.63375 -57.1375,0 0,-156.63375 -126.9625,-203.3675 68.5625,0 86.3375,138.9475 87.6,-138.9475 67.2875,0 -125.6875,203.3675 z"
           id="path49" />
        <path
           inkscape:connector-curvature="0"
           style="fill:#000000;fill-rule:nonzero;stroke:none"
           d="m 2191.175,-828.34495 c -8.8499,-8.8425 -21.4749,-15.1588 -36.6376,-15.1588 l -64.4249,0 0,245.0538 56.85,0 c 18.9499,0 30.3125,-3.78875 40.425,-13.8925 21.475,-21.475 32.8374,-60.63625 32.8374,-108.635 0,-47.9987 -11.3624,-88.42 -29.0499,-107.3675 z m 24,267.79125 c -13.9,12.63375 -32.8499,18.94875 -51.8,20.21 -3.7875,0 -11.3624,0 -20.2,0 l -109.9125,0 0,-360.00005 116.225,0 c 36.6375,0 50.5251,3.7888 69.475,18.9475 37.9,32.8413 59.375,89.6838 59.375,160.4188 0,72 -22.7376,128.845 -63.1625,160.42375 z"
           id="path51" />
        <path
           inkscape:connector-curvature="0"
           style="fill:#000000;fill-rule:nonzero;stroke:none"
           d="m 3772.9751,-540.3437 0,-360.00005 211.9375,0 0,56.8413 -155.1751,0 0,88.4212 104.7126,0 0,58.1063 -104.7126,0 0,98.525 166.5251,0 0,58.10625 -223.2875,0 z"
           id="path53" />
        <path
           inkscape:connector-curvature="0"
           style="fill:#000000;fill-rule:nonzero;stroke:none"
           d="m 2478.8625,-800.55375 -36.8499,101.0513 72.425,0 -35.575,-101.0513 z m 91.475,260.21005 -35.5749,-101.05125 -113.075,0 -35.5625,101.05125 -60.9875,0 124.5,-360.00005 57.175,0 124.5,360.00005 -60.9751,0 z"
           id="path55" />
        <path
           inkscape:connector-curvature="0"
           style="fill:#000000;fill-rule:nonzero;stroke:none"
           d="m 3261.5876,-540.3437 0,-360.00005 57.5999,0 0,360.00005 -57.5999,0 z"
           id="path57" />
        <path
           inkscape:connector-curvature="0"
           style="fill:#000000;fill-rule:nonzero;stroke:none"
           d="m 3123.8501,-849.81875 0,309.47505 -57.075,0 0,-309.47495 -82.475,0 0,-50.5263 223.2875,0 0,50.5263 -83.7375,0 z"
           id="path59" />
        <path
           inkscape:connector-curvature="0"
           style="fill:#000000;fill-rule:nonzero;stroke:none"
           d="m 3629.6125,-540.3437 0,-208.42125 -83.5374,208.42125 -83.5375,-208.42125 0,208.42125 -56.95,0 0,-360.00005 56.95,0 83.5375,202.105 83.5374,-202.105 56.95,0 0,360.00005 -56.95,0 z"
           id="path61" />
        <path
           inkscape:connector-curvature="0"
           style="fill:#000000;fill-rule:nonzero;stroke:none"
           d="m 1291.275,-540.3437 -137.7,-243.79255 0,243.79255 -56.8501,0 0,-360.00255 56.8501,0 131.375,229.89755 0,-229.89755 56.85,0 0,360.00255 -50.525,0 z"
           id="path63" />
        <path
           inkscape:connector-curvature="0"
           style="fill:#000000;fill-rule:nonzero;stroke:none"
           d="m 1586.1001,-828.34625 c -8.8375,-8.8425 -21.475,-15.1587 -36.6375,-15.1587 l -64.425,0 0,245.055 56.85,0 c 18.95,0 30.325,-3.78875 40.4249,-13.89375 21.475,-21.475 32.85,-60.635 32.85,-108.63505 0,-47.9987 -11.375,-88.42 -29.0625,-107.3675 z m 24.0125,267.79255 c -13.9,12.6325 -32.85,18.9475 -51.8,20.21 -3.7875,0 -11.375,0 -20.2125,0 l -109.9,0 0,-360.00125 116.2125,0 c 36.6375,0 50.5375,3.7887 69.4875,18.9475 37.9,32.8412 59.3625,89.6837 59.3625,160.4187 0,72.0013 -22.7375,128.84505 -63.1501,160.42505 z"
           id="path65" />
        <path
           inkscape:connector-curvature="0"
           style="fill:#000000;fill-rule:nonzero;stroke:none"
           d="m 812.2363,-540.3437 0,-360.00125 211.9388,0 0,56.8412 -155.1713,0 0,88.4213 104.70875,0 0,58.1062 -104.70875,0 0,98.5263 166.5213,0 0,58.10625 -223.2888,0 z"
           id="path67" />
      </g>
    </g>
  </g>
</svg>
