<?xml version="1.0" encoding="UTF-8" standalone="no"?>
<!-- Created with Inkscape (http://www.inkscape.org/) -->

<svg
   xmlns:dc="http://purl.org/dc/elements/1.1/"
   xmlns:cc="http://creativecommons.org/ns#"
   xmlns:rdf="http://www.w3.org/1999/02/22-rdf-syntax-ns#"
   xmlns:svg="http://www.w3.org/2000/svg"
   xmlns="http://www.w3.org/2000/svg"
   xmlns:sodipodi="http://sodipodi.sourceforge.net/DTD/sodipodi-0.dtd"
   xmlns:inkscape="http://www.inkscape.org/namespaces/inkscape"
   id="svg2"
   inkscape:version="0.48.2 r9819"
   height="1630"
   width="3790"
   version="1.1"
   sodipodi:docname="AJAX5.svg">
  <defs
     id="defs19">
    <clipPath
       id="Clip0">
      <path
         inkscape:connector-curvature="0"
         d="m 0,0 0,1296.5 4320.5,0 L 4320.5,0 0,0 z"
         transform="translate(0,0.5)"
         id="path7" />
    </clipPath>
    <clipPath
       id="Clip0-1">
      <path
         inkscape:connector-curvature="0"
         d="m 0,0 0,1296.5 3024.5,0 L 3024.5,0 0,0 z"
         transform="translate(0,0.5)"
         id="path7-7" />
    </clipPath>
  </defs>
  <sodipodi:namedview
     id="base"
     fit-margin-left="0"
     inkscape:zoom="0.125"
     borderopacity="1.0"
     inkscape:current-layer="g3763"
     inkscape:cx="-779.1733"
     inkscape:cy="880.25221"
     inkscape:window-maximized="1"
     showgrid="false"
     fit-margin-right="0"
     inkscape:document-units="px"
     bordercolor="#666666"
     inkscape:window-x="-8"
     inkscape:guide-bbox="true"
     inkscape:window-y="-8"
     fit-margin-bottom="0"
     inkscape:window-width="1280"
     inkscape:pageopacity="0.0"
     inkscape:pageshadow="2"
     pagecolor="#ffffff"
     showguides="true"
     inkscape:window-height="1004"
     fit-margin-top="0" />
  <metadata
     id="metadata7">
    <rdf:RDF>
      <cc:Work
         rdf:about="">
        <dc:format>image/svg+xml</dc:format>
        <dc:type
           rdf:resource="http://purl.org/dc/dcmitype/StillImage" />
        <dc:title></dc:title>
      </cc:Work>
    </rdf:RDF>
  </metadata>
  <g
     id="layer1"
     inkscape:label="Layer 1"
     inkscape:groupmode="layer"
     transform="translate(181.77345,1284.267)">
    <g
       id="g3012"
       transform="translate(109.60155,-54.548234)"
       stroke-miterlimit="4"
       style="fill:#0dadea;stroke-miterlimit:4;stroke-dasharray:none">
      <g
         id="g3763">
        <path
           inkscape:connector-curvature="0"
           style="fill:#ffffff;fill-rule:nonzero;stroke:#000000;stroke-width:10;stroke-linecap:butt;stroke-linejoin:miter;stroke-miterlimit:4;stroke-opacity:1;stroke-dasharray:none"
           d="m 3493.625,260.28126 c 0,74.5625 -60.4375,135 -135,135 l -3510,0 c -74.55813,0 -135,-60.4375 -135,-135 l 0,-1350.00006 c 0,-74.5593 60.44188,-135 135,-135 l 3510,0 c 74.5625,0 135,60.4407 135,135 l 0,1350.00006 z"
           id="path11" />
        <path
           inkscape:connector-curvature="0"
           style="fill:#000000;fill-rule:nonzero;stroke:none"
           d="m -151.375,361.53126 c -55.83012,0 -101.25,-45.425 -101.25,-101.25 l 0,-1350.00006 c 0,-55.8301 45.41988,-101.25 101.25,-101.25 l 3510,0 c 55.825,0 101.25,45.4199 101.25,101.25 l 0,1350.00006 c 0,55.825 -45.425,101.25 -101.25,101.25 l -3510,0 z"
           id="path13" />
        <path
           inkscape:connector-curvature="0"
           style="fill:#ffffff;fill-rule:nonzero;stroke:none"
           d="m -151.375,305.28126 c -24.81325,0 -45,-20.1875 -45,-45 l 0,-1350.00006 c 0,-24.8132 20.18675,-45 45,-45 l 3510,0 c 24.8125,0 45,20.1868 45,45 l 0,1350.00006 c 0,24.8125 -20.1875,45 -45,45 l -3510,0 z"
           id="path15" />
        <path
           inkscape:connector-curvature="0"
           style="fill:#000000;fill-rule:nonzero;stroke:none"
           d="m 1747.6251,80.281314 0,-360.000004 57.5999,0 0,360.000004 -57.5999,0 z"
           id="path17" />
        <path
           inkscape:connector-curvature="0"
           style="fill:#000000;fill-rule:nonzero;stroke:none"
           d="m 1470.3376,80.281314 0,-360.003754 56.7625,0 0,306.953754 166.525,0 0,53.05 -223.2875,0 z"
           id="path19" />
        <path
           inkscape:connector-curvature="0"
           style="fill:#000000;fill-rule:nonzero;stroke:none"
           d="m 2647.3126,-229.19369 0,309.475004 -57.0876,0 0,-309.475004 -82.4625,0 0,-50.5275 223.2875,0 0,50.5275 -83.7374,0 z"
           id="path21" />
        <path
           inkscape:connector-curvature="0"
           style="fill:#000000;fill-rule:nonzero;stroke:none"
           d="m 2969.55,58.806314 c -20.2124,17.6875 -48,27.78755 -78.3125,27.78755 -61.8999,0 -107.3875,-36.62505 -131.3875,-90.94505 l 54.325,-20.21 c 15.1626,34.1025 42.9501,53.055 77.0625,53.055 32.8375,0 55.5751,-22.74125 55.5751,-53.055 0,-48.00125 -55.5751,-55.58 -102.3251,-74.52625 -21.475,-8.842504 -69.475,-30.316254 -69.475,-89.686254 0,-70.735 48,-97.2625 112.4251,-97.2625 50.5374,0 84.6374,29.0525 102.3249,73.26375 l -50.525,15.15625 c 0,0 -12.6375,-30.31375 -53.0625,-31.5775 -26.5249,-1.2625 -58.1124,8.84125 -55.575,41.685 5.0501,66.94625 174.325,22.7375 174.325,164.208754 0,32.84125 -12.6375,61.89375 -35.375,82.10625 z"
           id="path23" />
        <path
           inkscape:connector-curvature="0"
           style="fill:#000000;fill-rule:nonzero;stroke:none"
           d="m 390.55125,80.281314 0,-156.63375 -131.37875,0 0,156.63375 -56.84625,0 0,-360.000004 56.84625,0 0,145.26125 131.37875,0 0,-145.26125 56.84625,0 0,360.000004 -56.84625,0 z"
           id="path25" />
        <path
           inkscape:connector-curvature="0"
           style="fill:#000000;fill-rule:nonzero;stroke:none"
           d="m 2396.925,80.281314 0,-156.63375 -131.3876,0 0,156.63375 -56.8374,0 0,-360.000004 56.8374,0 0,145.26125 131.3876,0 0,-145.26125 56.8375,0 0,360.000004 -56.8375,0 z"
           id="path27" />
        <path
           inkscape:connector-curvature="0"
           style="fill:#000000;fill-rule:nonzero;stroke:none"
           d="m 1303.975,-207.71994 c -8.8499,-8.8425 -21.4749,-15.1575 -36.6374,-15.1575 l -64.4251,0 0,245.053754 56.8376,0 c 18.95,0 30.325,-3.79 40.4249,-13.895 21.4751,-21.47375 32.8501,-60.63375 32.8501,-108.635004 0,-47.9975 -11.375,-88.4175 -29.0502,-107.36625 z m 24,267.788754 c -13.8999,12.6375 -32.8499,18.95 -51.8,20.2125 -3.7874,0 -11.3624,0 -20.2124,0 l -109.9001,0 0,-360.000004 116.2126,0 c 36.6374,0 50.5375,3.78875 69.4875,18.9475 37.8999,32.8425 59.375,89.685 59.375,160.4175 0,72.002504 -22.7375,128.847504 -63.1626,160.422504 z"
           id="path29" />
        <path
           inkscape:connector-curvature="0"
           style="fill:#000000;fill-rule:nonzero;stroke:none"
           d="m 533.79375,80.281314 0,-360.000004 211.93625,0 0,56.8425 -155.16875,0 0,88.42125 104.70875,0 0,58.105004 -104.70875,0 0,98.52625 166.52375,0 0,58.105 -223.29125,0 z"
           id="path31" />
        <path
           inkscape:connector-curvature="0"
           style="fill:#000000;fill-rule:nonzero;stroke:none"
           d="m 939.6088,-179.92869 -36.8425,101.052504 72.42125,0 -35.57875,-101.052504 z m 91.4788,260.210004 -35.57505,-101.0525 -113.0725,0 -35.5725,101.0525 -60.98375,0 124.505,-360.000004 57.17375,0 124.50005,360.000004 -60.975,0 z"
           id="path33" />
        <path
           inkscape:connector-curvature="0"
           style="fill:#000000;fill-rule:nonzero;stroke:none"
           d="m 2015.8001,86.593864 c -54.3125,0 -85.9,-20.21255 -107.375,-65.6813 -15.15,-31.57875 -24,-75.79 -24,-120 0,-58.105004 16.425,-114.947504 40.425,-146.527504 21.475,-26.525 51.7875,-40.42 92.2125,-40.42 55.5875,0 88.4375,22.73875 112.4375,79.58 l -54.3251,21.4725 c -15.1624,-31.58 -30.3124,-42.94625 -58.1124,-42.94625 -29.05,0 -48,12.63 -60.6375,44.21125 -8.8375,21.4725 -13.8875,54.31375 -13.8875,84.630004 0,37.895 6.3125,75.79125 17.6875,98.52625 11.3625,20.21 27.7875,29.055 49.2625,29.055 36.6375,0 63.1625,-22.7375 63.1625,-55.58 l 0,-15.15875 -65.6875,0 0,-56.8425 122.5374,0 0,72.00125 c 0,65.68 -48,113.68005 -113.7,113.68005 z"
           id="path35" />
        <path
           inkscape:connector-curvature="0"
           style="fill:#000000;fill-rule:nonzero;stroke:none"
           d="m 2292.4626,-549.71994 -91.2377,-170.52623 -38.0123,46.73623 0,123.79 -57.0251,0 0,-360.00123 57.0251,0 0,142.7375 114.0499,-142.7375 73.5,0 -111.5125,140.2112 119.1125,219.79003 -65.9,0 z"
           id="path37" />
        <path
           inkscape:connector-curvature="0"
           style="fill:#000000;fill-rule:nonzero;stroke:none"
           d="m 1361.3751,-549.71994 0,-156.63503 -131.375,0 0,156.63503 -56.8501,0 0,-360.00123 56.8501,0 0,145.2612 131.375,0 0,-145.2612 56.85,0 0,360.00123 -56.85,0 z"
           id="path39" />
        <path
           inkscape:connector-curvature="0"
           style="fill:#000000;fill-rule:nonzero;stroke:none"
           d="m 1504.6251,-549.71994 0,-360.00123 211.9375,0 0,56.8425 -155.175,0 0,88.4225 104.7124,0 0,58.105 -104.7124,0 0,98.52623 166.5249,0 0,58.105 -223.2874,0 z"
           id="path41" />
        <path
           inkscape:connector-curvature="0"
           style="fill:#000000;fill-rule:nonzero;stroke:none"
           d="m 985.31255,-543.40244 c -53.055,0 -87.16125,-20.2125 -109.9,-64.4225 -16.42125,-31.57875 -26.52875,-77.05503 -26.52875,-122.52873 0,-56.84 15.15875,-113.6825 40.4225,-145.2638 21.475,-26.5225 51.79375,-40.42 92.21875,-40.42 54.32505,0 88.42505,22.7388 112.42505,73.265 l -53.05,22.7363 c -20.2125,-30.3175 -31.5875,-37.895 -59.37505,-37.895 -29.055,0 -48.0025,12.6312 -60.63625,44.2112 -8.84125,21.4725 -13.8975,53.0525 -13.8975,83.3663 0,39.1587 8.8475,78.31748 22.7425,101.05498 12.62875,18.945 29.0525,27.79 54.31625,27.79 24.00005,0 41.68755,-12.63375 55.58755,-41.68375 l 54.3125,20.21 c -21.475,53.0525 -56.8375,79.58 -108.63755,79.58 z"
           id="path43" />
        <path
           inkscape:connector-curvature="0"
           style="fill:#000000;fill-rule:nonzero;stroke:none"
           d="m 1918.3375,-543.40244 c -53.05,0 -87.1625,-20.2125 -109.8999,-64.4225 -16.4126,-31.57875 -26.5251,-77.05503 -26.5251,-122.52873 0,-56.84 15.1625,-113.6825 40.425,-145.2638 21.4751,-26.5225 51.7876,-40.42 92.2125,-40.42 54.3251,0 88.4375,22.7388 112.4375,73.265 l -53.0625,22.7363 c -20.2125,-30.3175 -31.575,-37.895 -59.375,-37.895 -29.0499,0 -48,12.6312 -60.625,44.2112 -8.85,21.4725 -13.9,53.0525 -13.9,83.3663 0,39.1587 8.8375,78.31748 22.7376,101.05498 12.6374,18.945 29.0499,27.79 54.3125,27.79 24.0124,0 41.6874,-12.63375 55.5873,-41.68375 l 54.325,20.21 c -21.4748,53.0525 -56.8498,79.58 -108.65,79.58 z"
           id="path45" />
      </g>
    </g>
  </g>
</svg>
