<?xml version="1.0" encoding="UTF-8" standalone="no"?>
<!-- Created with Inkscape (http://www.inkscape.org/) -->

<svg
   xmlns:dc="http://purl.org/dc/elements/1.1/"
   xmlns:cc="http://creativecommons.org/ns#"
   xmlns:rdf="http://www.w3.org/1999/02/22-rdf-syntax-ns#"
   xmlns:svg="http://www.w3.org/2000/svg"
   xmlns="http://www.w3.org/2000/svg"
   xmlns:sodipodi="http://sodipodi.sourceforge.net/DTD/sodipodi-0.dtd"
   xmlns:inkscape="http://www.inkscape.org/namespaces/inkscape"
   id="svg2"
   inkscape:version="0.48.2 r9819"
   height="2170"
   width="4870"
   version="1.1"
   sodipodi:docname="AJAX1.svg">
  <defs
     id="defs19" />
  <sodipodi:namedview
     id="base"
     fit-margin-left="0"
     inkscape:zoom="0.125"
     borderopacity="1.0"
     inkscape:current-layer="g3763"
     inkscape:cx="1328.7481"
     inkscape:cy="105.89334"
     inkscape:window-maximized="1"
     showgrid="false"
     fit-margin-right="0"
     inkscape:document-units="px"
     bordercolor="#666666"
     inkscape:window-x="-8"
     inkscape:guide-bbox="true"
     inkscape:window-y="-8"
     fit-margin-bottom="0"
     inkscape:window-width="1280"
     inkscape:pageopacity="0.0"
     inkscape:pageshadow="2"
     pagecolor="#ffffff"
     showguides="true"
     inkscape:window-height="1004"
     fit-margin-top="0" />
  <metadata
     id="metadata7">
    <rdf:RDF>
      <cc:Work
         rdf:about="">
        <dc:format>image/svg+xml</dc:format>
        <dc:type
           rdf:resource="http://purl.org/dc/dcmitype/StillImage" />
        <dc:title />
      </cc:Work>
    </rdf:RDF>
  </metadata>
  <g
     id="layer1"
     inkscape:label="Layer 1"
     inkscape:groupmode="layer"
     transform="translate(158.33595,1847.7045)">
    <g
       id="g3012"
       transform="translate(109.60155,-54.548234)"
       stroke-miterlimit="4"
       style="fill:#0dadea;stroke-miterlimit:4;stroke-dasharray:none">
      <g
         id="g3763">
        <path
           inkscape:connector-curvature="0"
           style="fill:#ffffff;fill-rule:nonzero;stroke:#000000;stroke-width:10;stroke-linecap:butt;stroke-linejoin:miter;stroke-miterlimit:4;stroke-opacity:1;stroke-dasharray:none"
           d="m -262.9375,-1062.5313 0,1288.12503 c 0,85.81253 60.44063,146.25003 135,146.25003 l 4590,0 c 74.5625,0 135,-60.4375 135,-146.25003 l 0,-1288.12503"
           id="path11" />
        <path
           inkscape:connector-curvature="0"
           style="fill:#ffd033;fill-rule:nonzero;stroke:#000000;stroke-width:10;stroke-linecap:butt;stroke-linejoin:miter;stroke-miterlimit:4;stroke-opacity:1;stroke-dasharray:none"
           d="m 4597.0625,-1051.2813 0,-601.875 c 0,-74.5581 -60.4375,-135 -135,-135 l -4590,0 c -74.55937,0 -135,60.4419 -135,135 l 0,601.875"
           id="path13" />
        <path
           inkscape:connector-curvature="0"
           style="fill:#000000;fill-rule:nonzero;stroke:none"
           d="m 4462.0625,281.84371 -4590,0 c -24.81325,0 -45,-20.1875 -45,-45 l 0,-1260.00001 4680,0 0,1260.00001 c 0,24.8125 -20.1875,45 -45,45 z m -4590,-1980.00001 4590,0 c 24.8125,0 45,20.1867 45,45 l 0,573.75 -4680,0 0,-573.75 c 0,-24.8133 20.18675,-45 45,-45 z m 4590,-56.25 -4590,0 c -55.83012,0 -101.25,45.4211 -101.25,101.25 l 0,1890.00001 c 0,55.825 45.41988,101.25 101.25,101.25 l 4590,0 c 55.8249,0 101.25,-45.425 101.25,-101.25 l 0,-1890.00001 c 0,-55.8289 -45.4251,-101.25 -101.25,-101.25 z"
           id="path15" />
        <path
           inkscape:connector-curvature="0"
           style="fill:#000000;fill-rule:nonzero;stroke:none"
           d="m 981.81255,-1203.1538 -137.695,-243.79 0,243.79 -56.84625,0 0,-360.0012 56.84625,0 131.37625,229.8962 0,-229.8962 56.8438,0 0,360.0012 -50.52505,0 z"
           id="path17" />
        <path
           inkscape:connector-curvature="0"
           style="fill:#000000;fill-rule:nonzero;stroke:none"
           d="m 1885.4,-1499.9963 c -8.8375,-5.0537 -13.8875,-6.315 -32.8375,-6.315 l -68.2125,0 0,88.42 68.2125,0 c 17.6875,0 24,-1.2625 32.8375,-6.3137 13.9,-7.58 22.75,-22.7388 22.75,-37.895 0,-15.1588 -8.85,-30.3175 -22.75,-37.8963 z m 25.275,296.8425 -58.1125,-156.6337 -68.2125,0 0,156.6337 -56.85,0 0,-360.0012 118.75,0 c 27.7875,0 46.7375,2.5262 64.425,11.37 31.575,15.1587 54.3125,53.0512 54.3125,89.685 0,37.895 -22.7375,75.7887 -55.575,90.9475 l 63.1625,167.9987 -61.9,0 z"
           id="path19" />
        <path
           inkscape:connector-curvature="0"
           style="fill:#000000;fill-rule:nonzero;stroke:none"
           d="m 1276.65,-1491.155 c -8.85,-8.8438 -21.475,-15.1588 -36.6375,-15.1588 l -64.425,0 0,245.055 56.85,0 c 18.95,0 30.3125,-3.79 40.425,-13.895 21.475,-21.4725 32.8375,-60.6337 32.8375,-108.635 0,-47.9975 -11.3625,-88.4187 -29.05,-107.3662 z m 24,267.7912 c -13.9,12.6325 -32.85,18.9475 -51.7875,20.21 -3.8,0 -11.375,0 -20.2125,0 l -109.9125,0 0,-360.0012 116.225,0 c 36.6375,0 50.525,3.7887 69.475,18.9475 37.9,32.8425 59.375,89.685 59.375,160.4187 0,72.0025 -22.7375,128.8463 -63.1625,160.425 z"
           id="path21" />
        <path
           inkscape:connector-curvature="0"
           style="fill:#000000;fill-rule:nonzero;stroke:none"
           d="m 502.77875,-1203.1538 0,-360.0012 211.93625,0 0,56.8425 -155.16875,0 0,88.4225 104.71,0 0,58.105 -104.71,0 0,98.5262 166.52375,0 0,58.105 -223.29125,0 z"
           id="path23" />
        <path
           inkscape:connector-curvature="0"
           style="fill:#000000;fill-rule:nonzero;stroke:none"
           d="m 1443.0125,-1203.1538 0,-360.0012 211.9375,0 0,56.8425 -155.175,0 0,88.4212 104.7125,0 0,58.105 -104.7125,0 0,98.5275 166.525,0 0,58.105 -223.2875,0 z"
           id="path25" />
        <path
           inkscape:connector-curvature="0"
           style="fill:#000000;fill-rule:nonzero;stroke:none"
           d="m 3117.875,-1203.1538 -137.7,-243.79 0,243.79 -56.8375,0 0,-360.0012 56.8375,0 131.3875,229.8962 0,-229.8962 56.8375,0 0,360.0012 -50.525,0 z"
           id="path27" />
        <path
           inkscape:connector-curvature="0"
           style="fill:#000000;fill-rule:nonzero;stroke:none"
           d="m 4021.4625,-1499.9963 c -8.8375,-5.0537 -13.8875,-6.315 -32.8375,-6.315 l -68.2125,0 0,88.42 68.2125,0 c 17.6875,0 24,-1.2625 32.8375,-6.3137 13.9,-7.58 22.75,-22.7388 22.75,-37.895 0,-15.1588 -8.85,-30.3175 -22.75,-37.8963 z m 25.275,296.8425 -58.1125,-156.6337 -68.2125,0 0,156.6337 -56.85,0 0,-360.0012 118.75,0 c 27.7875,0 46.7375,2.5262 64.425,11.37 31.575,15.1587 54.3125,53.0512 54.3125,89.685 0,37.895 -22.7375,75.7887 -55.575,90.9475 l 63.1625,167.9987 -61.9,0 z"
           id="path29" />
        <path
           inkscape:connector-curvature="0"
           style="fill:#000000;fill-rule:nonzero;stroke:none"
           d="m 3412.7125,-1491.155 c -8.8375,-8.8438 -21.475,-15.1588 -36.6375,-15.1588 l -64.425,0 0,245.055 56.85,0 c 18.95,0 30.3125,-3.79 40.425,-13.895 21.475,-21.4725 32.8375,-60.6337 32.8375,-108.635 0,-47.9975 -11.3625,-88.4187 -29.05,-107.3662 z m 24,267.7912 c -13.9,12.6325 -32.8375,18.9475 -51.7875,20.21 -3.8,0 -11.375,0 -20.2125,0 l -109.9125,0 0,-360.0012 116.225,0 c 36.6375,0 50.525,3.7887 69.475,18.9475 37.9,32.8425 59.375,89.685 59.375,160.4187 0,72.0025 -22.7375,128.8463 -63.1625,160.425 z"
           id="path31" />
        <path
           inkscape:connector-curvature="0"
           style="fill:#000000;fill-rule:nonzero;stroke:none"
           d="m 2638.8375,-1203.1538 0,-360.0012 211.9375,0 0,56.8425 -155.1625,0 0,88.4225 104.7125,0 0,58.105 -104.7125,0 0,98.5262 166.525,0 0,58.105 -223.3,0 z"
           id="path33" />
        <path
           inkscape:connector-curvature="0"
           style="fill:#000000;fill-rule:nonzero;stroke:none"
           d="m 3579.075,-1203.1538 0,-360.0012 211.9375,0 0,56.8425 -155.175,0 0,88.4212 104.7125,0 0,58.105 -104.7125,0 0,98.5275 166.525,0 0,58.105 -223.2875,0 z"
           id="path35" />
        <path
           inkscape:connector-curvature="0"
           style="fill:#000000;fill-rule:nonzero;stroke:none"
           d="m 2485.425,-1357.2588 c -7.575,-2.5262 -11.3625,-2.5262 -24,-2.5262 l -72.0125,0 0,98.5262 85.9125,0 c 29.05,0 44.2125,-13.8962 44.2125,-41.685 0,-24 -13.9,-46.7362 -34.1125,-54.315 z m -12.625,-149.055 -83.3875,0 0,88.4213 68.225,0 c 16.425,0 24,-2.5263 34.1,-10.105 12.6375,-10.105 20.2125,-25.2638 20.2125,-41.685 0,-23.9988 -13.8875,-36.6313 -39.15,-36.6313 z m 46.7375,294.32 c -12.6375,5.0525 -34.1125,8.84 -50.5375,8.84 l -136.425,0 0,-360.0025 136.425,0 c 56.85,0 99.8,39.1588 99.8,90.9475 0,35.3688 -16.425,61.8963 -50.525,80.845 37.9,17.685 59.3625,47.9988 59.3625,87.1575 0,39.1575 -24,78.3163 -58.1,92.2125 z"
           id="path37" />
        <path
           inkscape:connector-curvature="0"
           style="fill:#000000;fill-rule:nonzero;stroke:none"
           d="m 282.25875,-1506.3125 0,88.4225 104.705,0 0,58.105 -104.705,0 0,156.6312 -56.77,0 0,-360.0012 223.29125,0 0,56.8425 -166.52125,0 z"
           id="path39" />
        <path
           inkscape:connector-curvature="0"
           style="fill:#000000;fill-rule:nonzero;stroke:none"
           d="m 3000.925,-735.90247 c -5.075,-35.3688 -19.025,-51.7925 -43.125,-51.7925 -41.8625,0 -57.0875,32.8462 -57.0875,126.3187 0,103.5787 17.7625,145.2575 62.1625,145.2575 30.4375,0 38.05,-25.2575 38.05,-51.7862 l 52.0125,0 c -1.275,59.3737 -39.325,102.3112 -90.0625,102.3112 -77.3875,0 -111.6375,-61.8875 -111.6375,-194.52 0,-116.2112 36.7875,-178.1062 107.825,-178.1062 29.175,0 54.55,12.6325 71.0375,36.6312 13.95,17.685 19.025,32.8438 22.8375,65.6863 l -52.0125,0 z"
           id="path41" />
        <path
           inkscape:connector-curvature="0"
           style="fill:#000000;fill-rule:nonzero;stroke:none"
           d="m 1385.6875,-471.90627 0,-359.9975 169.75,0 0,50.5275 -117.8125,0 0,90.9475 74.7375,0 0,49.2625 -74.7375,0 0,118.735 131.75,0 0,50.525 -183.6875,0 z"
           id="path43" />
        <path
           inkscape:connector-curvature="0"
           style="fill:#000000;fill-rule:nonzero;stroke:none"
           d="m 2203.0625,-471.90627 0,-359.9975 169.75,0 0,50.5263 -117.8125,0 0,90.9487 74.7375,0 0,49.2625 -74.7375,0 0,118.735 131.75,0 0,50.525 -183.6875,0 z"
           id="path45" />
        <path
           inkscape:connector-curvature="0"
           style="fill:#000000;fill-rule:nonzero;stroke:none"
           d="m 3359.025,-471.90627 0,-359.9975 169.75,0 0,50.5263 -117.8125,0 0,90.9487 74.7375,0 0,49.2625 -74.7375,0 0,118.735 131.75,0 0,50.525 -183.6875,0 z"
           id="path47" />
        <path
           inkscape:connector-curvature="0"
           style="fill:#000000;fill-rule:nonzero;stroke:none"
           d="m 2597.9625,-471.90627 0,-162.9425 -98.325,0 0,162.9425 -51.6875,0 0,-359.9975 51.6875,0 0,146.5263 98.325,0 0,-146.5263 51.675,0 0,359.9975 -51.675,0 z"
           id="path49" />
        <path
           inkscape:connector-curvature="0"
           style="fill:#000000;fill-rule:nonzero;stroke:none"
           d="m 2728.8375,-471.90627 0,-359.9975 50.4,0 0,359.9975 -50.4,0 z"
           id="path51" />
        <path
           inkscape:connector-curvature="0"
           style="fill:#000000;fill-rule:nonzero;stroke:none"
           d="m 3124.925,-471.90627 0,-359.9975 51.95,0 0,311.9975 131.75,0 0,48 -183.7,0 z"
           id="path53" />
        <path
           inkscape:connector-curvature="0"
           style="fill:#000000;fill-rule:nonzero;stroke:none"
           d="m 732.4475,-471.90627 0,-202.1025 -67.035,202.1025 -67.03375,-202.1025 0,202.1025 -51.85625,0 0,-359.9975 51.85625,0 67.03375,202.1075 67.035,-202.1075 51.855,0 0,359.9975 -51.855,0 z"
           id="path55" />
        <path
           inkscape:connector-curvature="0"
           style="fill:#000000;fill-rule:nonzero;stroke:none"
           d="m 1007.7125,-742.21877 c -8.9,-31.58 -22.89875,-45.475 -44.53,-45.475 -22.9025,0 -36.89875,13.895 -45.805,44.21 -8.9075,27.7913 -11.45125,51.79 -11.45125,92.2125 0,39.1575 3.81875,61.8938 11.45125,90.9475 8.90625,30.3175 22.9025,44.205 45.805,44.205 21.63125,0 35.63,-13.8875 44.53,-44.205 8.9125,-29.0537 11.45,-50.5275 11.45,-92.2112 0,-40.4213 -3.8125,-63.1575 -11.45,-89.6838 z m 40.725,214.7375 c -17.8125,42.95 -44.5375,61.8875 -85.255,61.8875 -43.26125,0 -68.7075,-18.9375 -86.52125,-61.8875 -15.27,-35.37 -20.35875,-69.475 -20.35875,-125.0537 0,-54.3163 5.08875,-90.9488 20.35875,-125.0525 19.085,-42.9475 44.53375,-60.6325 86.52125,-60.6325 41.9925,0 67.4425,17.685 85.255,61.895 15.2625,35.3687 20.35,69.4737 20.35,123.79 0,55.5787 -5.0875,90.9474 -20.35,125.0537 z"
           id="path57" />
        <path
           inkscape:connector-curvature="0"
           style="fill:#000000;fill-rule:nonzero;stroke:none"
           d="m 3688.425,-638.15627 c -15.575,-10.09 -30.7,-20.2175 -40.3625,-27.0112 -29.0125,-20.4275 -44.3875,-47.9988 -44.3875,-79.5775 0,-51.79 40.5875,-93.475 92.6,-93.475 50.7375,0 90.0625,39.1575 91.325,93.475 l -49.475,0 c -1.2625,-25.2638 -19.025,-41.685 -41.85,-41.685 -24.1,0 -43.1375,17.6837 -43.1375,41.685 0,17.6825 7.6125,27.7875 34.25,42.9462 69.775,40.4225 100.2125,79.58 100.2125,131.37 0,58.11 -44.4,104.835 -100.2125,104.835 -63.425,0 -101.475,-53.05 -101.475,-112.4162 l 50.7375,0 c 0,30.3174 15.225,61.8912 50.7375,61.8912 27.9125,0 50.7375,-25.2575 50.7375,-54.31 0,-22.5587 -9.3125,-41.56 -49.7,-67.7275 z"
           id="path59" />
        <path
           inkscape:connector-curvature="0"
           style="fill:#000000;fill-rule:nonzero;stroke:none"
           d="m 1242.6625,-471.90627 -39.325,0 -91.35,-359.9975 52.025,0 59.625,233.6838 59.625,-233.6838 52.025,0 -92.625,359.9975 z"
           id="path61" />
        <path
           inkscape:connector-curvature="0"
           style="fill:#000000;fill-rule:nonzero;stroke:none"
           d="m 2060.05,-471.90627 -39.3375,0 -91.3375,-359.9975 52.0125,0 59.625,233.685 59.625,-233.685 52.025,0 -92.6125,359.9975 z"
           id="path63" />
        <path
           inkscape:connector-curvature="0"
           style="fill:#000000;fill-rule:nonzero;stroke:none"
           d="m 1946.15,-162.03124 -25.3375,103.575004 51.9375,0 -26.6,-103.575004 z m 64.5875,252.625004 -25.325,-98.525 -77.2625,0 -24.05,98.525 -51.925,0 89.9125,-360.000034 50.6625,0 89.9125,360.000034 -51.925,0 z"
           id="path65" />
        <path
           inkscape:connector-curvature="0"
           style="fill:#000000;fill-rule:nonzero;stroke:none"
           d="m 3375.8,-162.03124 -25.325,103.575004 51.925,0 -26.6,-103.575004 z m 64.5875,252.625004 -25.325,-98.525 -77.25,0 -24.0625,98.525 -51.925,0 89.9125,-360.000034 50.6625,0 89.9125,360.000034 -51.925,0 z"
           id="path67" />
        <path
           inkscape:connector-curvature="0"
           style="fill:#000000;fill-rule:nonzero;stroke:none"
           d="m 2357.95,90.593764 0,-360.000034 169.7625,0 0,50.52503 -117.825,0 0,90.95 74.75,0 0,49.262504 -74.75,0 0,118.7375 131.75,0 0,50.525 -183.6875,0 z"
           id="path69" />
        <path
           inkscape:connector-curvature="0"
           style="fill:#000000;fill-rule:nonzero;stroke:none"
           d="m 133.88125,-218.88124 0,90.95 72.21,0 0,49.262504 -72.21,0 0,169.2625 -51.94125,0 0,-360.000034 183.69,0 0,50.52503 -131.74875,0 z"
           id="path71" />
        <path
           inkscape:connector-curvature="0"
           style="fill:#000000;fill-rule:nonzero;stroke:none"
           d="m 2602.8375,90.593764 0,-360.000034 51.95,0 0,312.000034 131.75,0 0,48 -183.7,0 z"
           id="path73" />
        <path
           inkscape:connector-curvature="0"
           style="fill:#000000;fill-rule:nonzero;stroke:none"
           d="m 3056.5375,90.593764 0,-360.000034 51.9375,0 0,312.000034 131.75,0 0,48 -183.6875,0 z"
           id="path75" />
        <path
           inkscape:connector-curvature="0"
           style="fill:#000000;fill-rule:nonzero;stroke:none"
           d="m 1042.1375,90.593764 0,-202.100004 L 975.1,90.593764 908.06625,-111.50624 l 0,202.100004 -51.85625,0 0,-360.000034 51.85625,0 67.03375,202.112534 67.0375,-202.112534 51.85,0 0,360.000034 -51.85,0 z"
           id="path77" />
        <path
           inkscape:connector-curvature="0"
           style="fill:#000000;fill-rule:nonzero;stroke:none"
           d="M 3705.325,90.593764 3594.4,-150.66874 l 0,241.262504 -51.6875,0 0,-360.000034 51.6875,0 98.325,216.000034 0,-216.000034 51.675,0 0,360.000034 -39.075,0 z"
           id="path79" />
        <path
           inkscape:connector-curvature="0"
           style="fill:#000000;fill-rule:nonzero;stroke:none"
           d="m 723.135,-179.71874 c -8.90625,-31.575 -22.9025,-45.475 -44.53375,-45.475 -22.9025,0 -36.89875,13.9 -45.805,44.2125 -8.9075,27.7875 -11.45125,51.7875 -11.45125,92.212504 0,39.15 3.81625,61.8875 11.45125,90.95 8.90625,30.3125 22.9025,44.2 45.805,44.2 21.63125,0 35.6275,-13.8875 44.53375,-44.2 8.9075,-29.0625 11.45375,-50.5375 11.45375,-92.2125 0,-40.425004 -3.81875,-63.162504 -11.45375,-89.687504 z m 40.7175,214.737504 c -17.81375,42.95 -44.53375,61.9 -85.25125,61.9 -43.26125,0 -68.7075,-18.95 -86.52125,-61.9 -15.27,-35.3625 -20.35875,-69.475 -20.35875,-125.05 0,-54.325004 5.08875,-90.950004 20.35875,-125.050004 19.085,-42.95003 44.53375,-60.63753 86.52125,-60.63753 41.99,0 67.4375,17.6875 85.25125,61.90003 15.26875,35.3625 20.35875,69.4625 20.35875,123.787504 0,55.575 -5.09,90.95 -20.35875,125.05 z"
           id="path81" />
        <path
           inkscape:connector-curvature="0"
           style="fill:#000000;fill-rule:nonzero;stroke:none"
           d="m 420.65875,-218.88124 -52.945,0 0,90.95 52.945,0 c 30.25375,0 46.64,-16.4125 46.64,-45.475 0,-27.7875 -18.9075,-45.475 -46.64,-45.475 z m 44.11875,309.475004 -47.90125,-169.2625 -49.1625,0 0,169.2625 -51.6825,0 0,-360.000034 107.1475,0 c 56.72625,0 94.5425,37.9 94.5425,96.00003 0,42.95 -17.6475,74.525004 -51.6825,87.162504 l 51.6825,176.8375 -52.94375,0 z"
           id="path83" />
        <path
           inkscape:connector-curvature="0"
           style="fill:#000000;fill-rule:nonzero;stroke:none"
           d="m 1702.7125,-218.88124 -52.95,0 0,90.95 52.95,0 c 30.25,0 46.6375,-16.4125 46.6375,-45.475 0,-27.7875 -18.9125,-45.475 -46.6375,-45.475 z m 44.1125,309.475004 -47.9,-169.2625 -49.1625,0 0,169.2625 -51.6875,0 0,-360.000034 107.15,0 c 56.725,0 94.55,37.9 94.55,96.00003 0,42.95 -17.65,74.525004 -51.6875,87.162504 l 51.6875,176.8375 -52.95,0 z"
           id="path85" />
        <path
           inkscape:connector-curvature="0"
           style="fill:#000000;fill-rule:nonzero;stroke:none"
           d="m 3823.6,90.593764 0,-360.000034 169.7625,0 0,50.52503 -117.825,0 0,90.95 74.75,0 0,49.262504 -74.75,0 0,118.7375 131.75,0 0,50.525 -183.6875,0 z"
           id="path87" />
        <path
           inkscape:connector-curvature="0"
           style="fill:#000000;fill-rule:nonzero;stroke:none"
           d="m 4153,-75.656236 c -15.575,-10.0875 -30.7,-20.2125 -40.35,-27.012504 -29.025,-20.425 -44.4,-48 -44.4,-79.575 0,-51.78753 40.6,-93.47503 92.6,-93.47503 50.7375,0 90.0625,39.1625 91.3375,93.47503 l -49.475,0 c -1.2625,-25.2625 -19.025,-41.6875 -41.8625,-41.6875 -24.1,0 -43.125,17.6875 -43.125,41.6875 0,17.6875 7.6125,27.7875 34.25,42.95 69.7625,40.412504 100.2125,79.575004 100.2125,131.362504 0,58.1125 -44.4,104.85 -100.2125,104.85 -63.425,0 -101.475,-53.0625 -101.475,-112.425 l 50.7375,0 c 0,30.3125 15.2125,61.9 50.7375,61.9 27.9,0 50.7375,-25.275 50.7375,-54.325 0,-22.55 -9.325,-41.55 -49.7125,-67.725 z"
           id="path89" />
        <path
           inkscape:connector-curvature="0"
           style="fill:#000000;fill-rule:nonzero;stroke:none"
           d="m 1481.8,-221.40624 0,312.000004 -51.9375,0 0,-312.000004 -65.875,0 0,-48.00003 183.6875,0 0,48.00003 -65.875,0 z"
           id="path91" />
        <path
           inkscape:connector-curvature="0"
           style="fill:#000000;fill-rule:nonzero;stroke:none"
           d="m 2214.9375,90.593764 -39.325,0 -91.35,-360.000034 52.0125,0 59.6375,233.687534 59.625,-233.687534 52.0125,0 -92.6125,360.000034 z"
           id="path93" />
      </g>
    </g>
  </g>
</svg>
