<svg xmlns="http://www.w3.org/2000/svg" width="1620" height="2160">
    <rect width="1620" height="2160" rx="135" style="fill:#fff"/>
    <path d="M1485 2.817c72.886 0 132.183 59.297 132.183 132.183v1890c0 72.886-59.297 132.183-132.183 132.183H135c-72.886 0-132.183-59.297-132.183-132.183V135C2.817 62.114 62.114 2.817 135 2.817h1350M1485 0H135A135 135 0 0 0 0 135v1890a135 135 0 0 0 135 135h1350a135 135 0 0 0 135-135V135A135 135 0 0 0 1485 0Z"/>
    <path d="M1485 33.75H135A101.37 101.37 0 0 0 33.75 135v1890A101.37 101.37 0 0 0 135 2126.25h1350A101.37 101.37 0 0 0 1586.25 2025V135A101.37 101.37 0 0 0 1485 33.75ZM1530 2025a45.052 45.052 0 0 1-45 45H135a45.052 45.052 0 0 1-45-45V135a45.052 45.052 0 0 1 45-45h1350a45.052 45.052 0 0 1 45 45Z"/>
    <path d="m1211.869 1319.925 27.14-90.113a76.949 76.949 0 0 0 3.866-24.062 72.127 72.127 0 0 0-3.58-20.687L1129.106 787.2c-4.611-9.137-9.73-19.163-18.778-23.875l-69.108-37.012 177.348-203.088-59.128-51.475-189.29 215.237-67.393-36.637a34.998 34.998 0 0 1-19.05-31.112l.124-43.475c0-14.326 7.704-27.425 19.958-32.825a176.265 176.265 0 0 0 87.797-152.725c0-97.463-78.8-176.463-175.695-176.463-96.881 0-175.421 79-175.421 176.463a176.292 176.292 0 0 0 87.798 152.725c12.265 5.4 19.97 18.5 19.97 32.825l.112 43.475a34.987 34.987 0 0 1-19.038 31.112L521.728 763.325c-9.047 4.713-14.155 14.738-18.778 23.875L392.76 1185.062c-1.951 6.438-3.567 13.588-3.567 20.688a77.304 77.304 0 0 0 3.852 24.062l27.017 89.463-164.821 185.212 55.76 55.888 124.818-144.838c3.84-1.212 8.053-3.412 11.968-4.675L609.35 1946.25H796.07l-95.788-430.45h231.505l-95.8 430.45h186.73l167.294-553.95c48.478 18.413 95.702 41.025 143.521 68.025l31.23-69.513c-51.971-28.012-101.717-51.562-152.892-70.887Zm-771.589-23.513-19.473-63.612a74.598 74.598 0 0 1-3.716-23.213 69.877 69.877 0 0 1 3.442-19.962L526.003 807.6c4.46-8.813 9.395-18.488 18.118-23.038l214.965-114.337a33.815 33.815 0 0 0 18.38-30.038l-.112-87.3c0-13.825-7.431-26.462-19.262-31.675-49.97-22.4-85.138-72.425-85.138-131 0-79.412 64-143.787 142.937-143.787 78.95 0 143.223 64.375 143.223 143.787 0 58.575-35.182 108.6-85.139 131-11.83 5.213-19.262 17.85-19.262 31.675l-.112 87.3a33.792 33.792 0 0 0 18.38 30.038l77.869 41.4Zm561.943 619.513H874.646l93.688-429.538H663.733l93.688 429.538H629.844l-156.682-512.25c104.488-33.612 175.944-73.688 342.865-73.688 134.288 0 245.35 17.663 349.091 53.6Zm183.81-605.237c-109.906-38.213-225.428-56.9-370.006-56.9-86.915 0-192.347 27.35-273.236 42.775l478.383-547.45 66.771 35.45c8.724 4.55 13.658 14.225 18.107 23.037l105.481 382.025a69.877 69.877 0 0 1 3.443 19.963 74.598 74.598 0 0 1-3.716 23.212Z" style="fill-rule:evenodd"/>
</svg>
