<?xml version="1.0" encoding="UTF-8" standalone="no"?>
<!-- Created with Inkscape (http://www.inkscape.org/) -->

<svg
   xmlns:dc="http://purl.org/dc/elements/1.1/"
   xmlns:cc="http://creativecommons.org/ns#"
   xmlns:rdf="http://www.w3.org/1999/02/22-rdf-syntax-ns#"
   xmlns:svg="http://www.w3.org/2000/svg"
   xmlns="http://www.w3.org/2000/svg"
   xmlns:sodipodi="http://sodipodi.sourceforge.net/DTD/sodipodi-0.dtd"
   xmlns:inkscape="http://www.inkscape.org/namespaces/inkscape"
   id="svg2"
   inkscape:version="0.48.2 r9819"
   height="1630"
   width="3790"
   version="1.1"
   sodipodi:docname="AJAX4.svg">
  <defs
     id="defs19">
    <clipPath
       id="Clip0">
      <path
         inkscape:connector-curvature="0"
         d="m 0,0 0,1296.5 4320.5,0 L 4320.5,0 0,0 z"
         transform="translate(0,0.5)"
         id="path7" />
    </clipPath>
    <clipPath
       id="Clip0-1">
      <path
         inkscape:connector-curvature="0"
         d="m 0,0 0,1296.5 3024.5,0 L 3024.5,0 0,0 z"
         transform="translate(0,0.5)"
         id="path7-7" />
    </clipPath>
  </defs>
  <sodipodi:namedview
     id="base"
     fit-margin-left="0"
     inkscape:zoom="0.125"
     borderopacity="1.0"
     inkscape:current-layer="g3763"
     inkscape:cx="464.1392"
     inkscape:cy="875.56468"
     inkscape:window-maximized="1"
     showgrid="false"
     fit-margin-right="0"
     inkscape:document-units="px"
     bordercolor="#666666"
     inkscape:window-x="-8"
     inkscape:guide-bbox="true"
     inkscape:window-y="-8"
     fit-margin-bottom="0"
     inkscape:window-width="1280"
     inkscape:pageopacity="0.0"
     inkscape:pageshadow="2"
     pagecolor="#ffffff"
     showguides="true"
     inkscape:window-height="1004"
     fit-margin-top="0" />
  <metadata
     id="metadata7">
    <rdf:RDF>
      <cc:Work
         rdf:about="">
        <dc:format>image/svg+xml</dc:format>
        <dc:type
           rdf:resource="http://purl.org/dc/dcmitype/StillImage" />
        <dc:title></dc:title>
      </cc:Work>
    </rdf:RDF>
  </metadata>
  <g
     id="layer1"
     inkscape:label="Layer 1"
     inkscape:groupmode="layer"
     transform="translate(177.08595,1288.9545)">
    <g
       id="g3012"
       transform="translate(109.60155,-54.548234)"
       stroke-miterlimit="4"
       style="fill:#0dadea;stroke-miterlimit:4;stroke-dasharray:none">
      <g
         id="g3763">
        <path
           inkscape:connector-curvature="0"
           style="fill:#ffffff;fill-rule:nonzero;stroke:#000000;stroke-width:10;stroke-linecap:butt;stroke-linejoin:miter;stroke-miterlimit:4;stroke-opacity:1;stroke-dasharray:none"
           d="m 3498.3125,255.59376 c 0,74.5625 -60.4375,135 -135,135 l -3510,0 c -74.55813,0 -135,-60.4375 -135,-135 l 0,-1350.00006 c 0,-74.5593 60.44188,-135 135,-135 l 3510,0 c 74.5625,0 135,60.4407 135,135 l 0,1350.00006 z"
           id="path11" />
        <path
           inkscape:connector-curvature="0"
           style="fill:#000000;fill-rule:nonzero;stroke:none"
           d="m -146.6875,356.84376 c -55.83012,0 -101.25,-45.425 -101.25,-101.25 l 0,-1350.00006 c 0,-55.8301 45.41988,-101.25 101.25,-101.25 l 3510,0 c 55.825,0 101.25,45.4199 101.25,101.25 l 0,1350.00006 c 0,55.825 -45.425,101.25 -101.25,101.25 l -3510,0 z"
           id="path13" />
        <path
           inkscape:connector-curvature="0"
           style="fill:#ffffff;fill-rule:nonzero;stroke:none"
           d="m -146.6875,300.59376 c -24.81325,0 -45,-20.1875 -45,-45 l 0,-1350.00006 c 0,-24.8132 20.18675,-45 45,-45 l 3510,0 c 24.8125,0 45,20.1868 45,45 l 0,1350.00006 c 0,24.8125 -20.1875,45 -45,45 l -3510,0 z"
           id="path15" />
        <g
           transform="matrix(1.25,0,0,1.25,-282,-1230.3437)"
           id="Background"
           style="fill:#000000;stroke:none">
          <g
             id="Group1"
             clip-path="url(#Clip0-1)"
             style="fill:#000000;stroke:none">
            <path
               inkscape:connector-curvature="0"
               style="fill:#000000;fill-rule:nonzero;stroke:none"
               d="M 0,288 0,0 46.08,0 46.08,288 0,288 z"
               transform="translate(1627.45,756.75)"
               id="path17" />
            <path
               inkscape:connector-curvature="0"
               style="fill:#000000;fill-rule:nonzero;stroke:none"
               d="M 0,288.002 0,0 l 45.41,0 0,245.562 133.22,0 0,42.44 -178.63,0 z"
               transform="translate(1405.62,756.748)"
               id="path19" />
            <path
               inkscape:connector-curvature="0"
               style="fill:#000000;fill-rule:nonzero;stroke:none"
               d="m 111.64,40.422 0,247.58 -45.67,0 0,-247.58 L 0,40.422 0,0 l 178.63,0 0,40.422 -66.99,0 z"
               transform="translate(2235.56,756.748)"
               id="path21" />
            <path
               inkscape:connector-curvature="0"
               style="fill:#000000;fill-rule:nonzero;stroke:none"
               d="m 167.76,275.873 c -16.17,14.15 -38.4,22.23 -62.65,22.23 -49.52,0 -85.9,-29.3 -105.11,-72.755 L 43.46,209.18 c 12.13,27.281 34.36,42.443 61.65,42.443 26.27,0 44.46,-18.193 44.46,-42.443 0,-38.402 -44.46,-44.465 -81.86,-59.621 C 50.53,142.485 12.13,125.305 12.13,77.809 12.13,21.221 50.53,0 102.07,0 c 40.43,0 67.71,23.242 81.86,58.61 l -40.42,12.125 c 0,0 -10.11,-24.25 -42.45,-25.262 -21.22,-1.01 -46.49,7.074 -44.46,33.348 4.04,53.558 139.46,18.191 139.46,131.367 0,26.273 -10.11,49.515 -28.3,65.685 z"
               transform="translate(2437.23,751.697)"
               id="path23" />
            <path
               inkscape:connector-curvature="0"
               style="fill:#000000;fill-rule:nonzero;stroke:none"
               d="m 150.58,288 0,-125.307 -105.103,0 0,125.307 L 0,288 0,0 l 45.477,0 0,116.209 105.103,0 0,-116.209 45.477,0 0,288 -45.477,0 z"
               transform="translate(391.211,756.75)"
               id="path25" />
            <path
               inkscape:connector-curvature="0"
               style="fill:#000000;fill-rule:nonzero;stroke:none"
               d="m 150.58,288 0,-125.307 -105.11,0 L 45.47,288 0,288 0,0 l 45.47,0 0,116.209 105.11,0 0,-116.209 45.48,0 0,288 -45.48,0 z"
               transform="translate(1996.31,756.75)"
               id="path27" />
            <path
               inkscape:connector-curvature="0"
               style="fill:#000000;fill-rule:nonzero;stroke:none"
               d="M 126.33,57.6 C 119.25,50.525 109.15,45.473 97.02,45.473 l -51.54,0 0,196.043 45.47,0 c 15.16,0 24.26,-3.032 32.34,-11.116 17.18,-17.179 26.28,-48.507 26.28,-86.908 0,-38.398 -9.1,-70.734 -23.24,-85.892 z m 19.2,214.23 c -11.12,10.11 -26.28,15.16 -41.44,16.17 -3.03,0 -9.09,0 -16.17,0 L 0,288 0,0 92.97,0 c 29.31,0 40.43,3.031 55.59,15.158 30.32,26.274 47.5,71.748 47.5,128.334 0,57.602 -18.19,103.078 -50.53,128.338 z"
               transform="translate(1146.2,756.75)"
               id="path29" />
            <path
               inkscape:connector-curvature="0"
               style="fill:#000000;fill-rule:nonzero;stroke:none"
               d="M 0,288 0,0 l 169.549,0 0,45.475 -124.135,0 0,70.736 83.767,0 0,46.484 -83.767,0 0,78.821 133.219,0 0,46.484 L 0,288 z"
               transform="translate(656.385,756.75)"
               id="path31" />
            <path
               inkscape:connector-curvature="0"
               style="fill:#000000;fill-rule:nonzero;stroke:none"
               d="m 122.98,79.832 -29.474,80.842 57.937,0 L 122.98,79.832 z M 196.163,288 l -28.46,-80.842 -90.458,0 L 48.787,288 0,288 99.604,0 l 45.739,0 99.6,288 -48.78,0 z"
               transform="translate(858.057,756.75)"
               id="path33" />
            <path
               inkscape:connector-curvature="0"
               style="fill:#000000;fill-rule:nonzero;stroke:none"
               d="m 105.1,298.103 c -43.45,0 -68.72,-16.17 -85.9,-52.544 C 7.08,220.295 0,184.926 0,149.559 0,103.074 13.14,57.6 32.34,32.336 49.52,11.116 73.77,0 106.12,0 c 44.46,0 70.74,18.192 89.94,63.664 L 152.6,80.842 C 140.48,55.578 128.35,46.485 106.12,46.485 c -23.25,0 -38.41,10.105 -48.52,35.369 -7.07,17.178 -11.11,43.451 -11.11,67.705 0,30.316 5.05,60.633 14.15,78.82 9.09,16.168 22.23,23.244 39.41,23.244 29.31,0 50.53,-18.189 50.53,-44.463 l 0,-12.128 -52.55,0 0,-45.473 98.03,0 0,57.601 c 0,52.543 -38.4,90.943 -90.96,90.943 z"
               transform="translate(1736.89,751.697)"
               id="path35" />
            <path
               inkscape:connector-curvature="0"
               style="fill:#000000;fill-rule:nonzero;stroke:none"
               d="M 155.63,288 45.47,92.969 45.47,288 0,288 0,0 45.47,0 150.57,183.916 150.57,0 l 45.48,0 0,288 -40.42,0 z"
               transform="translate(1404.22,252.75)"
               id="path37" />
            <path
               inkscape:connector-curvature="0"
               style="fill:#000000;fill-rule:nonzero;stroke:none"
               d="M 141.82,68.716 C 132.7,53.557 121.56,47.494 104.34,46.485 82.05,45.474 67.87,56.588 57.74,81.852 50.65,99.032 46.6,125.305 46.6,149.557 c 0,30.316 6.08,61.643 17.22,79.832 9.12,15.158 21.27,22.233 39.51,22.233 21.27,0 34.44,-11.117 44.57,-36.38 6.07,-15.158 11.14,-43.453 11.14,-65.685 0,-32.336 -6.08,-61.641 -17.22,-80.841 z m 31.4,197.052 C 157.01,288 133.71,298.107 103.33,298.107 62.81,298.107 37.48,281.936 20.26,246.569 8.11,222.315 0,183.916 0,149.557 0,102.063 12.15,59.622 31.4,32.336 48.62,10.104 71.92,0 105.35,0 c 36.47,0 61.79,16.169 80.03,51.536 12.15,25.263 19.24,61.644 19.24,98.021 0,45.475 -11.14,90.948 -31.4,116.211 z"
               transform="translate(1888.27,247.697)"
               id="path39" />
            <path
               inkscape:connector-curvature="0"
               style="fill:#000000;fill-rule:nonzero;stroke:none"
               d="m 182.915,244.547 c -15.16,28.295 -49.52,48.506 -84.887,48.506 -35.371,0 -69.731,-20.211 -84.89,-48.506 C 5.055,227.368 0,207.157 0,184.926 L 0,0 l 45.476,0 0,184.926 c 0,37.39 21.223,61.642 52.552,61.642 31.327,0 52.547,-24.252 52.547,-61.642 l 0,-184.926 45.48,0 0,184.926 c 0,22.231 -5.05,42.442 -13.14,59.621 z"
               transform="translate(894.025,252.75)"
               id="path41" />
            <path
               inkscape:connector-curvature="0"
               style="fill:#000000;fill-rule:nonzero;stroke:none"
               d="m 111.644,40.422 0,247.578 -45.669,0 0,-247.578 L 0,40.422 0,0 l 178.633,0 0,40.422 -66.989,0 z"
               transform="translate(672.193,252.748)"
               id="path43" />
            <path
               inkscape:connector-curvature="0"
               style="fill:#000000;fill-rule:nonzero;stroke:none"
               d="m 126.32,50.526 c -7.07,-4.042 -11.11,-5.052 -26.27,-5.052 l -54.57,0 0,70.737 54.57,0 c 14.15,0 19.2,-1.011 26.27,-5.052 11.12,-6.064 18.2,-18.19 18.2,-30.315 0,-12.128 -7.08,-24.255 -18.2,-30.318 z M 146.54,288 100.05,162.692 l -54.57,0 L 45.48,288 0,288 0,0 95,0 c 22.23,0 37.39,2.021 51.54,9.095 25.26,12.127 43.45,42.441 43.45,71.749 0,30.315 -18.19,60.63 -44.46,72.758 L 196.06,288 l -49.52,0 z"
               transform="translate(1159.2,252.749)"
               id="path45" />
            <path
               inkscape:connector-curvature="0"
               style="fill:#000000;fill-rule:nonzero;stroke:none"
               d="M 155.63,288 45.48,92.969 45.48,288 0,288 0,0 45.48,0 150.58,183.917 150.58,0 l 45.48,0 0,288 -40.43,0 z"
               transform="translate(2156.25,252.749)"
               id="path47" />
          </g>
        </g>
      </g>
    </g>
  </g>
</svg>
