<?xml version="1.0" encoding="utf-8"?>
<!-- Generator: Adobe Illustrator 27.7.0, SVG Export Plug-In . SVG Version: 6.00 Build 0)  -->
<svg version="1.1" id="For_Sheets" xmlns="http://www.w3.org/2000/svg" xmlns:xlink="http://www.w3.org/1999/xlink" x="0px" y="0px"
	 viewBox="0 0 173.3 216.5" style="enable-background:new 0 0 173.3 216.5;" xml:space="preserve">
<style type="text/css">
	.st0{fill:#FFFFFF;}
</style>
<g>
	<g>
		<path class="st0" d="M11.1,216.4c-6,0-10.9-4.9-10.9-10.9V11C0.1,5,5,0.1,11.1,0.1h151.2c6,0,10.9,4.9,10.9,10.9v194.4
			c0,6-4.9,10.9-10.9,10.9H11.1z"/>
		<path d="M162.2,0.2c5.9,0,10.8,4.9,10.8,10.8v194.4c0,5.9-4.9,10.8-10.8,10.8H11c-5.9,0-10.8-4.9-10.8-10.8V11.1
			C0.2,5.1,5.1,0.2,11,0.2H162.2 M162.2,0H11C5,0,0,5,0,11.1v194.4c0,6.1,5,11,11,11h151.2c6.1,0,11-5,11-11V11.1
			C173.3,5,168.3,0,162.2,0L162.2,0z"/>
	</g>
	<path d="M11,213.6c-4.5,0-8.1-3.6-8.1-8.1V11.1C2.9,6.6,6.6,3,11,3h151.2c4.5,0,8.1,3.6,8.1,8.1v194.4c0,4.5-3.6,8.1-8.1,8.1H11z"
		/>
	<path class="st0" d="M11,209.1c-2,0-3.6-1.6-3.6-3.6V11.1c0-2,1.6-3.6,3.6-3.6h151.2c2,0,3.6,1.6,3.6,3.6v194.4
		c0,2-1.6,3.6-3.6,3.6H11z"/>
	<g>
		<path d="M38.2,56.4c-2,1.2-4.7,1.9-7.3,1.9c-5,0-8.7-1.8-12-5.6l4.2-3.3c2.1,2.6,4.5,3.7,7.7,3.7c3.7,0,6.3-1.7,6.3-3.8
			c0-2.9-2.9-3.1-11-5.4c-4.1-1.1-5.9-4.2-5.9-7.3c0-4.8,4.1-8.1,9.9-8.1C34.5,28.5,38,30,41,33l-3.9,3.5c-1.8-1.9-4.2-2.9-6.9-2.9
			c-3.2,0-4.7,1.3-4.7,2.9c0,3.2,3.9,2.5,11.1,5c5.1,1.8,5.7,6.1,5.7,7.9C42.3,52.5,41,54.8,38.2,56.4z"/>
		<path d="M53.3,46.5v11.3h-5.3V29.1h14.1c6.1,0,9.3,4.6,9.3,8.7c0,3.8-2.9,8.7-9,8.7H53.3z M53.3,34.2v7.2H62
			c2.5,0,4.2-1.4,4.2-3.5c0-2.2-1.7-3.6-4.2-3.6H53.3z"/>
		<path d="M76.3,29.1h21.1v5.2H81.6v5.4h8.6v5.3h-8.6v7.9h16.3v5.2H76.3V29.1z"/>
		<path d="M103.6,29.1h21.1v5.2h-15.8v5.4h8.6v5.3h-8.6v7.9h16.3v5.2h-21.6V29.1z"/>
		<path d="M131,57.8V29.1h9.5c9.2,0,13.8,7,13.8,14.3c0,7.9-5.1,14.5-13.8,14.5H131z M140.3,34.2h-4v18.5h4c4.6,0,9-3,9-9.3
			C149.2,37.6,145.6,34.2,140.3,34.2z"/>
	</g>
	<g>
		<path d="M33.9,72.3h5.2v24.4h16.4v4.4H33.9V72.3z"/>
		<path d="M60.4,72.3h5.2v28.8h-5.2V72.3z"/>
		<path d="M95.1,83.5l-8.5,17.6l-8.4-17.6v17.6h-5.1V72.3h5.1l8.4,17.1l8.5-17.1h5.1v28.8h-5.1V83.5z"/>
		<path d="M107.7,72.3h5.2v28.8h-5.2V72.3z"/>
		<path d="M131.1,101.1h-5V77.3h-8.3v-5.1h21.6v5.1h-8.3V101.1z"/>
	</g>
	<g>
		<path d="M23.4,149.3l2.3-33.8h48.2l-0.3,12.6H37.8l-0.8,10.4c5.8-1.3,9.4-1.8,14-1.8c16.5,0,28.4,11.1,28.4,26
			c0,15.2-12.7,26-30.4,26c-9.9,0-18.8-2.5-27.9-8.1l6.8-10.9c8.1,4.7,15.6,5.8,21.6,5.8c11.1,0,16.9-5.4,16.9-12.6
			c0-6.2-3.5-13.1-15.4-13.1c-5.3,0-9,0.6-14.7,2.8L23.4,149.3z"/>
		<path d="M91.7,151.3c0-18.9,9.1-37.1,30.4-37.1c21.6,0,30.1,18.6,30.1,36.9c0,18.4-8.4,37.6-30.1,37.6
			C100.6,188.7,91.7,170.2,91.7,151.3z M122.1,127.1c-12.9,0-17.5,13.4-17.5,24c0,15.9,6.6,24.7,17.5,24.7c11.2,0,17.2-11,17.2-24.5
			C139.3,136.2,133,127.1,122.1,127.1z"/>
	</g>
</g>
</svg>
