<?xml version="1.0" encoding="utf-8"?>
<!-- Generator: Adobe Illustrator 27.7.0, SVG Export Plug-In . SVG Version: 6.00 Build 0)  -->
<svg version="1.1" id="For_Sheets" xmlns="http://www.w3.org/2000/svg" xmlns:xlink="http://www.w3.org/1999/xlink" x="0px" y="0px"
	 viewBox="0 0 173.3 216.5" style="enable-background:new 0 0 173.3 216.5;" xml:space="preserve">
<style type="text/css">
	.st0{fill:#FFFFFF;}
</style>
<g>
	<g>
		<path class="st0" d="M11.1,216.4c-6,0-10.9-4.9-10.9-10.9V11C0.1,5,5,0.1,11.1,0.1h151.2c6,0,10.9,4.9,10.9,10.9v194.4
			c0,6-4.9,10.9-10.9,10.9H11.1z"/>
		<path d="M162.2,0.2c6,0,10.8,4.8,10.8,10.8v194.4c0,6-4.8,10.8-10.8,10.8H11c-6,0-10.8-4.8-10.8-10.8V11.1c0-6,4.8-10.8,10.8-10.8
			H162.2 M162.2,0H11C5,0,0,5,0,11.1v194.4c0,6.1,5,11,11,11h151.2c6.1,0,11-5,11-11V11.1C173.3,5,168.3,0,162.2,0L162.2,0z"/>
	</g>
	<path d="M11,213.6c-4.5,0-8.1-3.6-8.1-8.1V11.1C2.9,6.6,6.6,3,11,3h151.2c4.5,0,8.1,3.6,8.1,8.1v194.4c0,4.5-3.6,8.1-8.1,8.1H11z"
		/>
	<path class="st0" d="M11,209.1c-2,0-3.6-1.6-3.6-3.6V11.1c0-2,1.6-3.6,3.6-3.6h151.2c2,0,3.6,1.6,3.6,3.6v194.4
		c0,2-1.6,3.6-3.6,3.6H11z"/>
	<g>
		<path d="M34.8,52.4V23.6h10.9c4.5,0,8,3.1,8,7.3c0,2.8-1.3,5-4,6.5c3,1.4,4.7,3.9,4.7,7c0,2.1-1.2,8.1-8.7,8.1H34.8z M46,28.2
			h-6.7v7.1h5.8c2.6,0,4-2.3,4-4.1C49.1,29.2,48.1,28.2,46,28.2z M39.3,39.9v7.9h6.9c2.3,0,3.5-1.1,3.5-3.3s-1.5-4.5-3.9-4.5H39.3z"
			/>
		<path d="M59.3,23.6h17v4.5H63.8v7.1h8.4v4.6h-8.4v7.9h13.3v4.6H59.3V23.6z"/>
		<path d="M91.9,23.1c4.6,0,7.2,1.7,9.2,6.4l-4.3,1.7c-1.2-2.5-2.4-3.4-4.6-3.4c-6.3,0-6,9.6-6,10.3c0,1.1-0.2,10.2,5.4,10.2
			c2.9,0,5.1-1.8,5.1-4.4v-1.2h-5.3v-4.6h9.8v5.8c0,5.3-3.8,9.1-9.1,9.1c-1,0-10.5,0.9-10.5-14.9C81.5,35.8,81.6,23.1,91.9,23.1z"/>
		<path d="M107.4,23.6h4.6v28.8h-4.6V23.6z"/>
		<path d="M123.5,32.9v19.5h-4.5V23.6h4.5L134,42V23.6h4.6v28.8h-4L123.5,32.9z"/>
	</g>
	<g>
		<path d="M35.6,86.7H25.1v12.5h-4.5V70.4h4.5v11.6h10.5V70.4h4.6v28.8h-4.5V86.7z"/>
		<path d="M47,70.4h4.6v28.8H47V70.4z"/>
		<path d="M68.4,69.9c4.6,0,7.2,1.7,9.2,6.4L73.2,78c-1.2-2.5-2.4-3.4-4.6-3.4c-6.3,0-6,9.6-6,10.3c0,1.1-0.2,10.2,5.4,10.2
			c2.9,0,5.1-1.8,5.1-4.4v-1.2h-5.3v-4.6h9.8v5.8c0,5.3-3.8,9.1-9.1,9.1c-1,0-10.5,0.9-10.5-14.9C58,82.6,58.1,69.9,68.4,69.9z"/>
		<path d="M99,86.7H88.5v12.5h-4.5V70.4h4.5v11.6H99V70.4h4.6v28.8H99V86.7z"/>
		<path d="M110.4,70.4h17V75H115v7.1h8.4v4.6H115v7.9h13.3v4.6h-17.9V70.4z"/>
		<path d="M137.7,86.7v12.5h-4.5V70.4h10.4c6.6,0,8.6,5.3,8.6,8.1c0,1.1-0.4,5.3-4.5,7.2l5.1,13.5h-5l-4.6-12.5H137.7z M143.5,82.1
			c3.6,0,4.2-2.6,4.2-3.5c0-1.3-0.9-3.5-4-3.5h-5.9v7.1H143.5z"/>
	</g>
	<g>
		<path d="M40.9,128.9h8.4v4.6h-8.4v12.5h-4.5v-28.8h17.9v4.5H40.9V128.9z"/>
		<path d="M58.5,117.3h4.6v28.8h-4.6V117.3z"/>
		<path d="M74.6,126.5v19.5h-4.5v-28.8h4.5l10.5,18.4v-18.4h4.6v28.8h-4L74.6,126.5z"/>
		<path d="M96.6,117.3h17v4.5h-12.4v7.1h8.4v4.6h-8.4v7.9h13.3v4.6H96.6V117.3z"/>
		<path d="M117.3,139.3l4.3-1.6c1.2,2.7,3.4,4.2,6.2,4.2c2.6,0,4.4-1.8,4.4-4.2c0-3.9-4.4-4.4-8.2-6c-1.7-0.7-5.6-2.4-5.6-7.2
			c0-5.7,3.8-7.8,9-7.8c4,0,6.8,2.3,8.2,5.9l-4,1.2c-0.5-1.1-2.1-2.5-4.2-2.5c-4.1,0-4.5,2.2-4.5,2.9c0,2.7,2.3,3.2,6.1,4.4
			c3.8,1.2,7.9,3,7.9,9.2c0,6.2-5,8.8-9.1,8.8C122.9,146.6,119.2,143.6,117.3,139.3z"/>
	</g>
	<g>
		<path d="M39.1,189l13.1-20.4h-12v-4.5h18.5v2.7l-13.3,21.4h13.3v4.6H39.1V189z"/>
		<path d="M94.4,173.3v19.5h-4.5v-28.8h4.5l10.5,18.4v-18.4h4.6v28.8h-4L94.4,173.3z"/>
		<path d="M116.3,164.1h17v4.5h-12.4v7.1h8.4v4.6h-8.4v7.9h13.3v4.6h-17.9V164.1z"/>
		<path d="M83.5,178.5c0,1,0.2,14.9-10.2,14.9S63,179.5,63,178.5c0-1-0.2-14.9,10.2-14.9S83.5,177.4,83.5,178.5z M73.3,188.7
			c3.1,0,5.6-2.9,5.6-10.3c0-7.3-2.5-10.3-5.6-10.3c-3.1,0-5.6,2.9-5.6,10.3C67.7,185.8,70.2,188.7,73.3,188.7z"/>
	</g>
</g>
</svg>
