<?xml version="1.0" encoding="UTF-8" standalone="no"?>
<!-- Generator: Adobe Illustrator 14.0.0, SVG Export Plug-In  -->

<svg
   xmlns:dc="http://purl.org/dc/elements/1.1/"
   xmlns:cc="http://creativecommons.org/ns#"
   xmlns:rdf="http://www.w3.org/1999/02/22-rdf-syntax-ns#"
   xmlns:svg="http://www.w3.org/2000/svg"
   xmlns="http://www.w3.org/2000/svg"
   xmlns:sodipodi="http://sodipodi.sourceforge.net/DTD/sodipodi-0.dtd"
   xmlns:inkscape="http://www.inkscape.org/namespaces/inkscape"
   version="1.1"
   x="0px"
   y="0px"
   width="277.96869"
   height="415.56241"
   viewBox="0 -0.321 277.9687 415.56251"
   enable-background="new 0 -0.321 144 120"
   xml:space="preserve"
   id="svg2"
   inkscape:version="0.48.2 r9819"
   sodipodi:docname="AJAX1.svg"><metadata
   id="metadata44"><rdf:RDF><cc:Work
       rdf:about=""><dc:format>image/svg+xml</dc:format><dc:type
         rdf:resource="http://purl.org/dc/dcmitype/StillImage" /><dc:title /></cc:Work></rdf:RDF></metadata><sodipodi:namedview
   pagecolor="#ffffff"
   bordercolor="#666666"
   borderopacity="1"
   objecttolerance="10"
   gridtolerance="10"
   guidetolerance="10"
   inkscape:pageopacity="0"
   inkscape:pageshadow="2"
   inkscape:window-width="1280"
   inkscape:window-height="1004"
   id="namedview42"
   showgrid="false"
   fit-margin-top="0"
   fit-margin-left="0"
   fit-margin-right="0"
   fit-margin-bottom="0"
   inkscape:zoom="1.8952344"
   inkscape:cx="194.91745"
   inkscape:cy="304.8536"
   inkscape:window-x="-8"
   inkscape:window-y="-8"
   inkscape:window-maximized="1"
   inkscape:current-layer="svg2" />
<defs
   id="defs4">
</defs>


















<path
   inkscape:connector-curvature="0"
   d="m 24.006185,414.25363 229.969455,0 c 12.69432,0 23.00112,-10.27755 23.00112,-22.98857 l 0,-367.579081 c 0,-12.698495 -10.3068,-23.00112586 -23.00112,-23.00112586 l -229.969455,0 c -12.711039,0 -22.9927976,10.30263086 -22.9927976,23.00112586 l 0,367.579081 c 0,12.69012 10.3026656,22.98857 22.9927976,22.98857 z"
   style="fill:#ffffff;fill-opacity:1;fill-rule:evenodd;stroke:#000000;stroke-width:2.00000048;stroke-linecap:butt;stroke-linejoin:miter;stroke-miterlimit:3.16779995;stroke-opacity:1;stroke-dasharray:none"
   id="path8491" /><path
   inkscape:connector-curvature="0"
   d="m 24.085628,409.46607 229.802212,0 c 10.16047,0 18.39337,-8.22033 18.39337,-18.38081 l 0,-367.620889 c 0,-10.156286 -8.2329,-18.3808296 -18.39337,-18.3808296 l -229.802212,0 c -10.160467,0 -18.3766829,8.2245436 -18.3766829,18.3808296 l 0,367.620889 c 0,10.14377 8.2287599,18.38081 18.3766829,18.38081"
   style="fill:#000000;fill-opacity:1;fill-rule:evenodd;stroke:none"
   id="path8493" /><path
   inkscape:connector-curvature="0"
   d="m 24.098174,402.59208 229.781306,0 c 6.35132,0 11.48593,-5.13877 11.48593,-11.47334 l 0,-367.637642 c 0,-6.351339 -5.13461,-11.481748 -11.48593,-11.481748 l -229.781306,0 c -6.338794,0 -11.477567,5.130409 -11.477567,11.481748 l 0,367.637642 c 0,6.34295 5.130411,11.47334 11.477567,11.47334"
   style="fill:#ffffff;fill-opacity:1;fill-rule:evenodd;stroke:none"
   id="path8495" /><path
   inkscape:connector-curvature="0"
   d="m 69.749192,74.542676 c -2.918522,1.747766 -6.702564,2.767996 -10.486606,2.767996 -7.137415,0 -12.527062,-2.621655 -17.189171,-8.0113 l 5.975024,-4.657927 c 3.056503,3.646062 6.405696,5.247483 11.067801,5.247483 5.243305,0 9.027346,-2.333145 9.027346,-5.393826 0,-1.597245 -0.873883,-2.910158 -2.617469,-3.788223 -1.455079,-0.577015 -3.060685,-1.162393 -4.950616,-1.597243 L 58.67721,58.524257 56.783098,58.089405 54.755183,57.50403 c -4.227255,-1.016048 -6.414056,-2.032096 -8.161823,-4.072549 -1.751949,-1.898293 -2.625832,-4.36942 -2.625832,-6.986892 0,-6.848906 5.83286,-11.511015 14.274829,-11.511015 6.117188,0 11.218326,2.044639 15.437224,6.405696 l -5.535995,4.958978 c -2.617469,-2.77218 -5.96666,-4.089277 -9.901229,-4.089277 -4.227255,0 -6.698382,1.609787 -6.698382,4.235618 0,2.324782 1.455081,3.34083 6.552038,4.511583 5.535993,1.162389 9.17369,2.324782 11.502652,3.495538 3.650243,1.88993 5.975025,5.820316 5.975025,10.336079 0,4.223075 -1.894109,7.421743 -5.824498,9.754887"
   style="fill:#000000;fill-opacity:1;fill-rule:nonzero;stroke:none"
   id="path8497" /><path
   inkscape:connector-curvature="0"
   d="m 110.6712,58.963289 c -2.32897,1.308737 -4.21889,1.597243 -7.43428,1.597243 l -11.791158,0 0,16.311108 -7.572268,0 0,-41.499033 19.363426,0 c 3.21539,0 5.10531,0.439032 7.43428,1.743586 3.93038,2.1868 6.40571,6.263533 6.40571,10.921459 0,4.373601 -2.47533,8.738838 -6.40571,10.925637 z m -7.13741,-16.16894 -12.088028,0 0,10.340261 12.088028,0 c 3.63769,0 6.11718,-2.036274 6.11718,-5.096958 0,-3.202846 -2.47949,-5.243303 -6.11718,-5.243303"
   style="fill:#000000;fill-opacity:1;fill-rule:nonzero;stroke:none"
   id="path8499" /><path
   inkscape:connector-curvature="0"
   d="m 124.06378,76.87164 0,-41.499033 30.29743,0 0,7.421742 -22.72097,0 0,7.718609 12.37653,0 0,7.576447 -12.37653,0 0,11.360492 23.44015,0 0,7.421743 -31.01661,0"
   style="fill:#000000;fill-opacity:1;fill-rule:nonzero;stroke:none"
   id="path8501" /><path
   inkscape:connector-curvature="0"
   d="m 163.39277,76.87164 0,-41.499033 30.28488,0 0,7.421742 -22.71679,0 0,7.718609 12.38072,0 0,7.576447 -12.38072,0 0,11.360492 23.44434,0 0,7.421743 -31.01243,0"
   style="fill:#000000;fill-opacity:1;fill-rule:nonzero;stroke:none"
   id="path8503" /><path
   inkscape:connector-curvature="0"
   d="m 225.86082,74.400512 c -2.91433,1.597243 -6.40987,2.471128 -9.75486,2.471128 l -13.39678,0 0,-41.499033 13.39678,0 c 3.48717,0 6.84053,0.873886 9.9054,2.621651 6.39733,3.641881 9.90122,9.897048 9.90122,18.054693 0,8.303987 -3.50389,14.705501 -10.05176,18.351561 z m -3.49554,-30.000558 c -1.89829,-1.020228 -4.07253,-1.605605 -6.25932,-1.605605 l -5.82869,0 0,26.655548 5.82869,0 c 2.18679,0 4.22725,-0.589556 5.97083,-1.609784 4.36522,-2.324784 6.40568,-6.11719 6.40568,-11.791162 0,-5.535993 -2.04046,-9.320035 -6.11719,-11.648997"
   style="fill:#000000;fill-opacity:1;fill-rule:nonzero;stroke:none"
   id="path8505" /><path
   inkscape:connector-curvature="0"
   d="m 63.31841,139.24357 0,-41.507428 7.425923,0 0,35.093368 23.594865,0 0,6.41406 -31.020788,0"
   style="fill:#000000;fill-opacity:1;fill-rule:nonzero;stroke:none"
   id="path8507" /><path
   inkscape:connector-curvature="0"
   d="m 101.47242,97.736142 7.42592,0 0,41.507428 -7.42592,0 0,-41.507428 z"
   style="fill:#000000;fill-opacity:1;fill-rule:nonzero;stroke:none"
   id="path8509" /><path
   inkscape:connector-curvature="0"
   d="m 151.2838,139.24357 0,-25.34264 -12.23856,25.34264 -12.08802,-25.34264 0,25.34264 -7.27958,0 0,-41.507428 7.27958,0 12.08802,24.610938 12.23856,-24.610938 7.27958,0 0,41.507428 -7.27958,0"
   style="fill:#000000;fill-opacity:1;fill-rule:nonzero;stroke:none"
   id="path8511" /><path
   inkscape:connector-curvature="0"
   d="m 169.33853,97.736142 7.42593,0 0,41.507428 -7.42593,0 0,-41.507428 z"
   style="fill:#000000;fill-opacity:1;fill-rule:nonzero;stroke:none"
   id="path8513" /><path
   inkscape:connector-curvature="0"
   d="m 202.98515,105.01993 0,34.22364 -7.28376,0 0,-34.22364 -11.94169,0 0,-7.283788 31.16297,0 0,7.283788 -11.93752,0"
   style="fill:#000000;fill-opacity:1;fill-rule:nonzero;stroke:none"
   id="path8515" /><path
   inkscape:connector-curvature="0"
   d="m 89.714721,381.40979 -5.824499,-14.06996 -3.97638,5.39802 0,8.67194 -7.246128,0 0,-38.51363 7.246128,-2.69271 0,21.88052 7.810598,-10.09355 8.956261,0 -7.814774,9.38693 8.094917,20.03244 -7.246123,0"
   style="fill:#000000;fill-opacity:1;fill-rule:nonzero;stroke:none"
   id="path8517" /><path
   inkscape:connector-curvature="0"
   d="m 136.1769,381.40979 0,-17.62404 c 0,-3.26975 -1.9861,-5.39799 -5.11368,-5.39799 -2.84744,0 -5.11786,2.41675 -5.11786,5.10949 l 0,17.91254 -6.96181,0 0,-17.62404 c 0,-3.12757 -2.41259,-5.39799 -5.39802,-5.39799 -2.84325,0 -4.82935,2.27042 -4.82935,5.26003 l 0,17.762 -7.24613,0 0,-29.56572 7.24613,0 0,2.41676 c 1.70596,-1.69759 4.26071,-3.11921 7.24613,-3.11921 2.98124,0 5.54017,1.13314 7.67262,3.55407 3.40772,-2.70527 5.67815,-3.55407 8.95208,-3.55407 6.25517,0 10.79602,4.26071 10.79602,9.93885 l 0,20.32932 -7.24613,0"
   style="fill:#000000;fill-opacity:1;fill-rule:nonzero;stroke:none"
   id="path8519" /><path
   inkscape:connector-curvature="0"
   d="m 177.70522,339.87729 -7.24611,0 -24.29736,41.5325 7.24613,0 24.29734,-41.5325"
   style="fill:#000000;fill-opacity:1;fill-rule:evenodd;stroke:none"
   id="path8521" /><path
   inkscape:connector-curvature="0"
   d="m 198.28541,381.40979 0,-17.62404 c 0,-2.98124 -2.42095,-5.39799 -5.40638,-5.39799 -2.55056,0 -5.39382,1.27945 -5.39382,5.67812 l 0,17.34391 -7.24613,0 0,-38.51363 7.24613,-2.69271 0,13.77726 c 1.8481,-2.41678 4.68719,-2.83909 6.81545,-2.83909 6.40151,0 10.80022,4.26071 10.80022,9.93885 l 0,20.32932 -6.81547,0"
   style="fill:#000000;fill-opacity:1;fill-rule:nonzero;stroke:none"
   id="path8523" /><path
   inkscape:connector-curvature="0"
   d="m 138.80691,153.20898 c 49.56889,0 89.9808,40.42444 89.9808,89.98075 0,49.56474 -40.41191,89.98502 -89.9808,89.98502 -49.552128,0 -89.976574,-40.42028 -89.976574,-89.98502 0,-49.55631 40.424446,-89.98075 89.976574,-89.98075"
   style="fill:#000000;fill-opacity:1;fill-rule:evenodd;stroke:none"
   id="path8525" /><path
   inkscape:connector-curvature="0"
   d="m 138.80691,161.8642 c 44.79808,0 81.32559,36.53168 81.32559,81.32553 0,44.78976 -36.52751,81.33398 -81.32559,81.33398 -44.789674,0 -81.329724,-36.54422 -81.329724,-81.33398 0,-44.79385 36.54005,-81.32553 81.329724,-81.32553"
   style="fill:#ffffff;fill-opacity:1;fill-rule:evenodd;stroke:none"
   id="path8527" /><path
   inkscape:connector-curvature="0"
   d="m 110.20708,279.09013 c -12.619046,0 -23.544681,-10.68315 -23.544681,-23.3064 0,-6.55204 2.914338,-11.88734 8.015485,-16.01844 -3.403553,-3.64186 -5.101147,-7.76461 -5.101147,-12.62323 0,-10.67058 9.466377,-19.66028 20.630343,-19.66028 11.16815,0 20.87705,8.9897 20.87705,19.66028 0,4.85862 -1.94429,8.98137 -5.34366,12.62323 5.34366,4.1311 8.01966,9.70475 8.01966,16.01844 0,12.62325 -10.92564,23.3064 -23.55305,23.3064 z m 0,-33.50448 c -6.79455,0 -12.380713,4.61612 -12.380713,10.43642 0,6.55623 5.586163,11.8957 12.380713,11.8957 7.03706,0 12.62741,-5.33947 12.62741,-11.8957 0,-5.8203 -5.8245,-10.43642 -12.62741,-10.43642 z m 0,-26.93991 c -5.33947,0 -9.70471,3.65025 -9.70471,8.258 0,4.12691 4.36524,7.51791 9.70471,7.51791 5.34366,0 9.71307,-3.391 9.71307,-7.51791 0,-4.60775 -4.36941,-8.258 -9.71307,-8.258"
   style="fill:#000000;fill-opacity:1;fill-rule:nonzero;stroke:none"
   id="path8529" /><path
   inkscape:connector-curvature="0"
   d="m 188.86084,271.31297 c -3.88858,5.33947 -9.47475,7.77716 -16.75432,7.77716 -9.70889,0 -15.78012,-3.88443 -19.90285,-12.3849 -2.91015,-5.82452 -4.85444,-15.04838 -4.85444,-23.29389 0,-11.41066 2.91016,-21.60039 7.52209,-28.16079 4.12691,-5.33947 9.70893,-7.76877 17.72443,-7.76877 8.73463,0 14.80583,3.88857 19.17524,12.38487 2.91015,6.06285 4.61195,14.79752 4.61195,23.54469 0,10.92152 -2.67183,21.8346 -7.5221,27.90163 z m -7.53046,-47.3194 c -2.1826,-3.64605 -4.85445,-5.10112 -8.98133,-5.34783 -5.33531,-0.2385 -8.73886,2.4293 -11.16402,8.49632 -1.70596,4.12691 -2.67182,10.43226 -2.67182,16.26928 0,7.27544 1.45508,14.80589 4.12275,19.16696 2.18262,3.64188 5.10114,5.33947 9.47056,5.33947 5.09697,0 8.2538,-2.67183 10.67895,-8.73883 1.45925,-3.64606 2.67182,-10.43642 2.67182,-15.7676 0,-7.77713 -1.45091,-14.8142 -4.12691,-19.41777"
   style="fill:#000000;fill-opacity:1;fill-rule:nonzero;stroke:none"
   id="path8531" /></svg>