<?xml version="1.0" encoding="utf-8"?>
<!-- Generator: Adobe Illustrator 27.7.0, SVG Export Plug-In . SVG Version: 6.00 Build 0)  -->
<svg version="1.1" id="For_Sheets" xmlns="http://www.w3.org/2000/svg" xmlns:xlink="http://www.w3.org/1999/xlink" x="0px" y="0px"
	 viewBox="0 0 173.3 173.3" style="enable-background:new 0 0 173.3 173.3;" xml:space="preserve">
<style type="text/css">
	.st0{fill:#FFFFFF;}
</style>
<g>
	<g>
		<path class="st0" d="M11.1,173.2c-6,0-10.9-4.9-10.9-10.9V11C0.1,5,5,0.1,11.1,0.1h151.2c6,0,10.9,4.9,10.9,10.9v151.2
			c0,6-4.9,10.9-10.9,10.9H11.1z"/>
		<path d="M162.2,0.2c5.9,0,10.8,4.9,10.8,10.8v151.2c0,5.9-4.9,10.8-10.8,10.8H11c-5.9,0-10.8-4.9-10.8-10.8V11.1
			C0.2,5.1,5.1,0.2,11,0.2H162.2 M162.2,0H11C5,0,0,5,0,11.1v151.2c0,6.1,5,11.1,11,11.1h151.2c6.1,0,11-5,11-11.1V11.1
			C173.3,5,168.3,0,162.2,0L162.2,0z"/>
	</g>
	<path d="M11,170.4c-4.5,0-8.1-3.6-8.1-8.1V11.1C2.9,6.6,6.6,3,11,3h151.2c4.5,0,8.1,3.6,8.1,8.1v151.2c0,4.5-3.6,8.1-8.1,8.1H11z
		 M162.2,165.9c2,0,3.6-1.6,3.6-3.6V11.1c0-2-1.6-3.6-3.6-3.6H11c-2,0-3.6,1.6-3.6,3.6v151.2c0,2,1.6,3.6,3.6,3.6H162.2z"/>
	<g>
		<path d="M30.9,57.8h-4.6V33.1h-6.6v-4h17.9v4h-6.7V57.8z"/>
		<path d="M45.2,45.3v12.5h-4.5V29.1h10.4c6.6,0,8.6,5.3,8.6,8.1c0,1.1-0.4,5.3-4.5,7.2l5.1,13.5h-5l-4.6-12.5H45.2z M50.9,40.7
			c3.6,0,4.2-2.6,4.2-3.5c0-1.3-0.9-3.5-4-3.5h-5.9v7.1H50.9z"/>
		<path d="M63.7,47.5V29.1h4.5v18.5c0,3.7,2.1,6.2,5.3,6.2c3.1,0,5.3-2.4,5.3-6.2V29.1h4.6v18.5c0,9.1-7,10.8-9.8,10.8
			C70.9,58.4,63.7,56.8,63.7,47.5z"/>
		<path d="M87.7,43.4c0-4,0.8-14.8,10.6-14.8c4.2,0,7,1.7,9,5.9l-4.2,1.8c-1.5-2.1-2.2-3-4.7-3c-6,0-6,8.4-6,10.2
			c0,1.8-0.1,10.3,6.2,10.3c2.2,0,3.5-1.3,4.4-3.3l4.3,1.6c-1.6,4-4.3,6.4-8.7,6.4C88.3,58.4,87.7,46.9,87.7,43.4z"/>
		<path d="M119.4,44.2l-3,3.7v9.9h-4.6V29.1h4.6v11.4l9.1-11.4h5.9l-8.9,11.2l9.5,17.6h-5.3L119.4,44.2z"/>
		<path d="M133.9,51.1l4.3-1.6c1.2,2.7,3.4,4.2,6.2,4.2c2.6,0,4.4-1.8,4.4-4.2c0-3.9-4.4-4.4-8.2-6c-1.7-0.7-5.6-2.4-5.6-7.2
			c0-5.7,3.8-7.8,9-7.8c4,0,6.8,2.3,8.2,5.9l-4,1.2c-0.5-1.1-2.1-2.5-4.2-2.5c-4.1,0-4.5,2.2-4.5,2.9c0,2.7,2.3,3.2,6.1,4.4
			c3.8,1.2,7.9,3,7.9,9.2c0,6.2-5,8.8-9.1,8.8C139.5,58.4,135.9,55.4,133.9,51.1z"/>
	</g>
	<g>
		<path d="M72.6,147.8H59.9v-14.7H15.5v-11.6l44.5-45.7h12.6v45.7h10.6v11.6H72.6V147.8z M31.9,121.6h28V92.8L31.9,121.6z"/>
		<path d="M97.6,111.7c0-18.9,9.1-37.1,30.4-37.1c21.6,0,30.1,18.6,30.1,36.9c0,18.4-8.4,37.6-30.1,37.6
			C106.5,149.1,97.6,130.6,97.6,111.7z M128,87.5c-12.9,0-17.5,13.4-17.5,24c0,15.9,6.6,24.7,17.5,24.7c11.2,0,17.2-11,17.2-24.5
			C145.2,96.6,138.9,87.5,128,87.5z"/>
	</g>
</g>
</svg>
