<?xml version="1.0" encoding="UTF-8" standalone="no"?>
<!-- Generator: Adobe Illustrator 14.0.0, SVG Export Plug-In  -->

<svg
   xmlns:dc="http://purl.org/dc/elements/1.1/"
   xmlns:cc="http://creativecommons.org/ns#"
   xmlns:rdf="http://www.w3.org/1999/02/22-rdf-syntax-ns#"
   xmlns:svg="http://www.w3.org/2000/svg"
   xmlns="http://www.w3.org/2000/svg"
   xmlns:sodipodi="http://sodipodi.sourceforge.net/DTD/sodipodi-0.dtd"
   xmlns:inkscape="http://www.inkscape.org/namespaces/inkscape"
   version="1.1"
   x="0px"
   y="0px"
   width="277.96872"
   height="346.96872"
   viewBox="0 -0.321 277.96874 346.96874"
   enable-background="new 0 -0.321 144 120"
   xml:space="preserve"
   id="svg2"
   inkscape:version="0.48.2 r9819"
   sodipodi:docname="AJAX1.svg"><metadata
   id="metadata44"><rdf:RDF><cc:Work
       rdf:about=""><dc:format>image/svg+xml</dc:format><dc:type
         rdf:resource="http://purl.org/dc/dcmitype/StillImage" /><dc:title /></cc:Work></rdf:RDF></metadata><sodipodi:namedview
   pagecolor="#ffffff"
   bordercolor="#666666"
   borderopacity="1"
   objecttolerance="10"
   gridtolerance="10"
   guidetolerance="10"
   inkscape:pageopacity="0"
   inkscape:pageshadow="2"
   inkscape:window-width="1280"
   inkscape:window-height="1004"
   id="namedview42"
   showgrid="false"
   fit-margin-top="0"
   fit-margin-left="0"
   fit-margin-right="0"
   fit-margin-bottom="0"
   inkscape:zoom="1.8952344"
   inkscape:cx="274.61406"
   inkscape:cy="146.1525"
   inkscape:window-x="-8"
   inkscape:window-y="-8"
   inkscape:window-maximized="1"
   inkscape:current-layer="svg2" />
<defs
   id="defs4">
</defs>


















<path
   inkscape:connector-curvature="0"
   d="m 18.25254,0.6776394 241.46801,0 c 9.49981,0 17.2477,7.7478798 17.2477,17.2477076 l 0,310.463023 c 0,9.49565 -7.74789,17.24777 -17.2477,17.24777 l -241.46801,0 c -9.49986,0 -17.24774,-7.75212 -17.24774,-17.24777 l 0,-310.463023 c 0,-9.4998278 7.74788,-17.2477076 17.24774,-17.2477076 z"
   style="fill:#ffffff;stroke:#000000;stroke-width:2.00000072;stroke-linecap:butt;stroke-linejoin:miter;stroke-miterlimit:3.16779995;stroke-opacity:1;stroke-dasharray:none"
   id="path5474" /><path
   inkscape:connector-curvature="0"
   d="m 18.31942,4.9884879 c 30.9748,0 181.57139,0 225.88024,0 6.88238,0 17.62407,-1.8773867 23.49456,2.7679961 6.10883,4.846084 4.96316,12.639991 4.96316,19.530715 0,38.220935 0,282.967041 0,296.196591 0,7.51792 -1.2293,15.49155 -10.02668,17.50277 -2.5924,0.59374 -5.44818,0.33865 -8.08657,0.33865 -6.07539,0 -12.15912,0 -18.24285,0 -20.96486,0 -153.46916,0 -198.74387,0 -5.36038,0 -10.72492,0 -16.08531,0 -3.03978,0 -5.97088,0.0796 -8.80159,-1.28367 -7.71027,-3.71297 -7.35484,-11.41483 -7.35484,-18.61495 0,-36.77839 0,-282.28969 0,-296.535255 0,-7.200172 -0.35543,-14.9062337 7.35484,-18.6233801 1.75611,-0.8487969 3.68787,-1.271104 5.64891,-1.279467"
   style="fill:#000000;fill-opacity:1;fill-rule:evenodd;stroke:none"
   id="path5476"
   sodipodi:nodetypes="cscsscsssscsscc" /><path
   inkscape:connector-curvature="0"
   d="m 18.40722,12.176079 c 31.06263,0 181.75958,0 226.04332,0 4.53672,0 9.06918,0 13.59751,0 1.92753,0 3.74221,0.02006 5.31019,1.317097 3.56243,2.926886 2.11152,10.281763 2.11152,14.195424 0,38.450903 0,283.07993 0,296.10461 0,4.02235 0.45996,9.26566 -4.73317,10.24826 -2.16171,0.40978 -4.62446,0.0965 -6.80709,0.0965 -6.24684,0 -12.49781,0 -18.75302,0 -21.199,0 -153.70745,0 -198.77311,0 -5.12204,0 -10.25243,0 -15.37867,0 -1.88156,0 -3.91788,0.23421 -5.60294,-0.76519 -4.1896,-2.46693 -2.9185,-8.789 -2.9185,-12.82396 0,-37.34703 0,-282.674338 0,-296.505961 0,-4.01405 -1.00351,-9.763286 3.79657,-11.515234 0.67317,-0.246862 1.38817,-0.359591 2.10739,-0.351227"
   style="fill:#ffffff;fill-opacity:1;fill-rule:evenodd;stroke:none"
   id="path5478"
   sodipodi:nodetypes="csscsscsssscsscc" /><path
   inkscape:connector-curvature="0"
   d="m 98.1356,302.60671 -4.84191,-11.68242 -3.3032,4.4823 0,7.20012 -6.01684,0 0,-31.98249 6.01684,-2.24533 0,18.17596 6.48932,-8.37926 7.43427,0 -6.48517,7.7897 6.72351,16.64142 -6.01682,0"
   style="fill:#000000;fill-opacity:1;fill-rule:nonzero;stroke:none"
   id="path5480" /><path
   inkscape:connector-curvature="0"
   d="m 136.72445,302.60671 0,-14.63441 c 0,-2.71367 -1.6516,-4.48649 -4.24817,-4.48649 -2.35822,0 -4.24813,2.00701 -4.24813,4.24815 l 0,14.87275 -5.7827,0 0,-14.63441 c 0,-2.59656 -2.00702,-4.48649 -4.48232,-4.48649 -2.36659,0 -4.01402,1.88993 -4.01402,4.36941 l 0,14.75149 -6.02101,0 0,-24.54818 6.02101,0 0,2.00699 c 1.41328,-1.41744 3.53735,-2.59658 6.01684,-2.59658 2.4795,0 4.60357,0.9408 6.37224,2.94783 2.83071,-2.24118 4.72065,-2.94783 7.43847,-2.94783 5.19312,0 8.96467,3.53736 8.96467,8.25802 l 0,16.87975 -6.01688,0"
   style="fill:#000000;fill-opacity:1;fill-rule:nonzero;stroke:none"
   id="path5482" /><path
   inkscape:connector-curvature="0"
   d="m 171.22407,268.11132 -6.021,0 -20.17878,34.49539 6.02521,0 20.17457,-34.49539"
   style="fill:#000000;fill-opacity:1;fill-rule:evenodd;stroke:none"
   id="path5484" /><path
   inkscape:connector-curvature="0"
   d="m 188.32543,302.60671 0,-14.63441 c 0,-2.47948 -2.00699,-4.48649 -4.4823,-4.48649 -2.12407,0 -4.48649,1.06201 -4.48649,4.72065 l 0,14.40025 -6.01685,0 0,-31.98249 6.01685,-2.24533 0,11.44829 c 1.53032,-2.00699 3.89275,-2.35824 5.66561,-2.35824 5.3102,0 8.9688,3.53736 8.9688,8.25802 l 0,16.87975 -5.66562,0"
   style="fill:#000000;fill-opacity:1;fill-rule:nonzero;stroke:none"
   id="path5486" /><path
   inkscape:connector-curvature="0"
   d="m 138.91543,101.2914 c 41.17295,0 74.74429,33.57138 74.74429,74.74011 0,41.16453 -33.57134,74.74427 -74.74429,74.74427 -41.16034,0 -74.73588,-33.57974 -74.73588,-74.74427 0,-41.16873 33.57554,-74.74011 74.73588,-74.74011"
   style="fill:#000000;fill-opacity:1;fill-rule:evenodd;stroke:none"
   id="path5488" /><path
   inkscape:connector-curvature="0"
   d="m 42.50805,50.923884 0,33.161605 -7.05795,0 0,-33.161605 -11.57372,0 0,-7.057973 30.20125,0 0,7.057973 -11.56958,0"
   style="fill:#000000;fill-opacity:1;fill-rule:nonzero;stroke:none"
   id="path5496" /><path
   inkscape:connector-curvature="0"
   d="m 85.26984,56.146282 c 0,2.964517 -2.25789,4.938075 -5.7827,4.938075 l -11.43576,0 0,-10.018309 11.43576,0 c 3.52481,0 5.7827,1.973556 5.7827,5.080234 z m 8.04891,27.939207 -7.3423,-17.214265 C 90.07412,64.613343 92.47,60.662047 92.47,56.146282 c 0,-4.515762 -2.39588,-8.467057 -6.20921,-10.586959 -2.11572,-1.266924 -3.95548,-1.693412 -6.91581,-1.693412 l -18.49371,0 0,40.219578 7.20011,0 0,-15.805176 10.72496,0 6.4935,15.805176 8.04891,0"
   style="fill:#000000;fill-opacity:1;fill-rule:nonzero;stroke:none"
   id="path5498" /><path
   inkscape:connector-curvature="0"
   d="m 117.59517,84.792122 c -9.45801,0 -16.23583,-7.053788 -16.23583,-16.934118 l 0,-23.992093 7.20013,0 0,23.992093 c 0,2.400043 0.27998,3.666966 1.26692,5.222397 1.55543,2.680193 4.51576,4.373602 7.76878,4.373602 3.24466,0 6.20502,-1.693409 7.76043,-4.373602 0.98678,-1.555431 1.27108,-2.964517 1.27108,-5.222397 l 0,-23.992093 7.20018,0 0,23.992093 c 0,9.88033 -6.77784,16.934118 -16.23169,16.934118"
   style="fill:#000000;fill-opacity:1;fill-rule:nonzero;stroke:none"
   id="path5500" /><path
   inkscape:connector-curvature="0"
   d="m 160.07265,84.792122 c -10.58278,0 -17.07627,-8.324894 -17.07627,-20.885411 0,-12.698501 6.49349,-20.743252 17.07627,-20.743252 6.49769,0 12.42251,3.244659 15.52922,8.889367 l -6.35553,3.386822 c -1.12475,-1.69341 -1.69341,-2.25788 -2.82233,-2.964514 -1.55126,-1.266924 -4.23145,-2.11572 -6.35136,-2.11572 -7.33811,0 -9.73817,7.195956 -9.73817,13.405133 0,8.751383 3.67114,13.831621 9.73817,13.831621 3.67114,0 5.64468,-1.271106 9.17369,-5.080238 l 6.35553,3.386827 c -2.96453,5.644701 -9.03153,8.889365 -15.52922,8.889365"
   style="fill:#000000;fill-opacity:1;fill-rule:nonzero;stroke:none"
   id="path5502" /><path
   inkscape:connector-curvature="0"
   d="m 209.89661,84.085489 -10.30268,-20.885412 -7.62242,9.595997 0,11.289415 -7.20014,0 0,-40.219578 7.20014,0 0,17.502774 14.25394,-17.502774 9.31586,0 -10.72916,13.124989 13.27132,27.094589 -8.18686,0"
   style="fill:#000000;fill-opacity:1;fill-rule:nonzero;stroke:none"
   id="path5504" /><path
   inkscape:connector-curvature="0"
   d="m 248.99143,81.827605 c -2.82242,1.693413 -6.48936,2.68019 -10.16051,2.68019 -6.91581,0 -12.14238,-2.538025 -16.65814,-7.760424 l 5.78688,-4.515767 c 2.9645,3.52899 6.21334,5.080237 10.72912,5.080237 5.08439,0 8.74717,-2.257879 8.74717,-5.218217 0,-1.555431 -0.84459,-2.826535 -2.53802,-3.671149 -1.40907,-0.564471 -2.96453,-1.128943 -4.79588,-1.551251 l -1.83561,-0.564468 -1.83556,-0.426491 -1.97773,-0.560289 c -4.09347,-0.990958 -6.2092,-1.977737 -7.9026,-3.951291 -1.69342,-1.835578 -2.54222,-4.235625 -2.54222,-6.773651 0,-6.635664 5.64474,-11.151431 13.83166,-11.151431 5.93318,0 10.87124,1.97774 14.96477,6.209177 l -5.36881,4.800089 c -2.53802,-2.68437 -5.78269,-3.951291 -9.59596,-3.951291 -4.09351,0 -6.48935,1.551248 -6.48935,4.093456 0,2.257882 1.41325,3.24048 6.34716,4.369419 5.36874,1.128943 8.89356,2.262068 11.15144,3.39101 3.52901,1.831394 5.78689,5.644702 5.78689,10.018305 0,4.09346 -1.83137,7.195957 -5.6447,9.453837"
   style="fill:#000000;fill-opacity:1;fill-rule:nonzero;stroke:none"
   id="path5506" /><path
   inkscape:connector-curvature="0"
   d="m 138.91543,108.47483 c 37.20907,0 67.56088,30.3476 67.56088,67.55668 0,37.20488 -30.35181,67.55666 -67.56088,67.55666 -37.20488,0 -67.55248,-30.35178 -67.55248,-67.55666 0,-37.20908 30.3476,-67.55668 67.55248,-67.55668"
   style="fill:#ffffff;fill-opacity:1;fill-rule:evenodd;stroke:none"
   id="path5490" /><path
   inkscape:connector-curvature="0"
   d="m 123.44477,188.1028 c 0,4.63704 -4.83773,8.46706 -10.48662,8.46706 -5.64052,0 -10.28172,-3.83002 -10.28172,-8.46706 0,-4.43213 4.6412,-8.26217 10.28172,-8.26217 5.84958,0 10.48662,3.83004 10.48662,8.26217 z m 9.07333,0.20507 c 0,-9.67962 -8.87262,-17.5404 -19.55995,-17.5404 -2.21606,0 -3.62518,0 -6.8531,0.6021 3.42864,-7.2545 7.05798,-11.89152 14.11596,-17.33552 l -4.6412,-7.66008 c -13.30479,8.86846 -22.17326,25.20048 -22.17326,41.12691 0,10.28173 8.46708,18.34321 19.5516,18.34321 11.09287,0 19.55995,-7.66007 19.55995,-17.53622"
   style="fill:#000000;fill-opacity:1;fill-rule:nonzero;stroke:none"
   id="path5492" /><path
   inkscape:connector-curvature="0"
   d="m 175.46807,176.2113 c 0,4.43214 -1.01185,10.08101 -2.22024,13.10407 -2.01541,5.03842 -4.63704,7.25449 -8.87265,7.25449 -3.62935,0 -6.04611,-1.40909 -7.86495,-4.43213 -2.21606,-3.62933 -3.42446,-9.88032 -3.42446,-15.92643 0,-4.8419 0.80281,-10.08103 2.21607,-13.50967 2.01954,-5.03842 4.83771,-7.25449 9.27403,-7.05379 3.42863,0.2007 5.64889,1.40909 7.45938,4.43632 2.21608,3.83003 3.43282,9.67544 3.43282,16.12714 z m 9.07335,0 c 0,-7.25868 -1.41328,-14.51735 -3.83423,-19.55578 -3.62935,-7.05796 -8.67194,-10.28172 -15.92644,-10.28172 -6.65657,0 -11.29359,2.01537 -14.72222,6.45168 -3.83004,5.43984 -6.25099,13.9069 -6.25099,23.38582 0,6.8531 1.61396,14.51317 4.03492,19.35089 3.42444,7.05798 8.46704,10.28173 16.53272,10.28173 6.0461,0 10.68729,-2.01539 13.91104,-6.4517 4.03494,-5.03843 6.2552,-14.11176 6.2552,-23.18092"
   style="fill:#000000;fill-opacity:1;fill-rule:nonzero;stroke:none"
   id="path5494" /></svg>