<?xml version="1.0" encoding="UTF-8" standalone="no"?>
<!-- Generator: Adobe Illustrator 14.0.0, SVG Export Plug-In  -->

<svg
   xmlns:dc="http://purl.org/dc/elements/1.1/"
   xmlns:cc="http://creativecommons.org/ns#"
   xmlns:rdf="http://www.w3.org/1999/02/22-rdf-syntax-ns#"
   xmlns:svg="http://www.w3.org/2000/svg"
   xmlns="http://www.w3.org/2000/svg"
   xmlns:sodipodi="http://sodipodi.sourceforge.net/DTD/sodipodi-0.dtd"
   xmlns:inkscape="http://www.inkscape.org/namespaces/inkscape"
   version="1.1"
   x="0px"
   y="0px"
   width="277.96872"
   height="346.96872"
   viewBox="0 -0.321 277.96874 346.96874"
   enable-background="new 0 -0.321 144 120"
   xml:space="preserve"
   id="svg2"
   inkscape:version="0.48.2 r9819"
   sodipodi:docname="AJAX1.svg"><metadata
   id="metadata44"><rdf:RDF><cc:Work
       rdf:about=""><dc:format>image/svg+xml</dc:format><dc:type
         rdf:resource="http://purl.org/dc/dcmitype/StillImage" /><dc:title /></cc:Work></rdf:RDF></metadata><sodipodi:namedview
   pagecolor="#ffffff"
   bordercolor="#666666"
   borderopacity="1"
   objecttolerance="10"
   gridtolerance="10"
   guidetolerance="10"
   inkscape:pageopacity="0"
   inkscape:pageshadow="2"
   inkscape:window-width="1280"
   inkscape:window-height="1004"
   id="namedview42"
   showgrid="false"
   fit-margin-top="0"
   fit-margin-left="0"
   fit-margin-right="0"
   fit-margin-bottom="0"
   inkscape:zoom="0.67006655"
   inkscape:cx="792.33424"
   inkscape:cy="-213.47585"
   inkscape:window-x="-8"
   inkscape:window-y="-8"
   inkscape:window-maximized="1"
   inkscape:current-layer="svg2" />
<defs
   id="defs4">
</defs>


















<path
   inkscape:connector-curvature="0"
   d="m 18.24597,0.66957471 241.46798,0 c 9.50401,0 17.24772,7.75625019 17.24772,17.24770829 l 0,310.467257 c 0,9.49565 -7.74371,17.24775 -17.24772,17.24775 l -241.46798,0 c -9.49563,0 -17.24776,-7.7521 -17.24776,-17.24775 l 0,-310.467257 c 0,-9.4914581 7.75213,-17.24770829 17.24776,-17.24770829 z"
   style="fill:#ffffff;stroke:#000000;stroke-width:2.00000072;stroke-linecap:butt;stroke-linejoin:miter;stroke-miterlimit:3.16779995;stroke-opacity:1;stroke-dasharray:none"
   id="path5642" /><path
   inkscape:connector-curvature="0"
   d="m 18.31707,6.4188149 c 9.28659,0 18.56896,0 27.85137,0 21.75513,0 43.506044,0 65.257,0 25.0667,0 50.1459,0 75.21257,0 19.22963,0 38.47179,0 57.69726,0 4.57847,0 9.14443,0 13.71871,0 4.08091,0 7.94441,0.92824 10.61623,4.3108781 2.37078,3.01469 2.54222,6.35552 2.54222,9.96395 0,5.16805 0,10.32354 0,15.491588 0,19.940443 0,39.885074 0,59.829699 0,25.12523 0,119.27057 0,144.39997 0,21.17394 0,42.3604 0,63.52597 0,6.24681 0,12.49361 0,18.73625 0,2.73453 0.28867,5.74087 -0.33016,8.43358 -1.22513,5.30183 -6.19663,8.77231 -11.50264,8.77231 -3.36591,0 -6.7193,0 -10.08521,0 -17.7453,0 -35.49894,0 -53.24004,0 -24.81581,0 -49.63157,0 -74.44741,0 -22.737705,0 -45.467067,0 -68.20894,0 -11.49847,0 -23.00114,0 -34.49961,0 -4.85862,0 -9.45382,-2.50037 -11.30194,-7.17085 -1.11639,-2.84329 -0.8488,-5.95412 -0.8488,-8.95208 0,-15.16547 0,-30.33091 0,-45.49636 0,-24.11337 0,-117.23012 0,-141.33511 0,-23.90429 0,-47.816943 0,-71.721229 0,-14.550799 0,-29.097416 0,-43.648218 0,-2.10735 -0.15049,-4.29415 0.33013,-6.36388 1.1833,-5.14295 6.0336,-8.7597381 11.23926,-8.7764681"
   style="fill:#000000;fill-opacity:1;fill-rule:evenodd;stroke:none"
   id="path5644" /><path
   inkscape:connector-curvature="0"
   d="m 77.782983,71.604713 0,-32.153917 -6.204983,0 0,22.491021 -18.0756,-22.491021 -5.93324,0 0,32.153917 6.07119,0 0,-22.223413 18.07143,22.223413 6.071203,0 z m 22.219247,0 c 0.13377,0 0,-32.153917 0,-32.153917 l -6.071216,0 0,32.153917 c 0,0 6.205006,0 6.071216,0 z m 44.84407,-13.940331 0,-3.587525 -13.52639,0 0,6.209175 7.17505,0 c -0.54776,1.379819 -0.96169,2.07391 -1.51362,2.759636 -1.52197,1.935925 -4.00147,3.035598 -6.62313,3.035598 -5.66145,0 -9.38278,-4.277433 -9.38278,-10.344447 0,-6.493502 3.8593,-10.624592 10.07271,-10.624592 3.7213,0 6.06698,1.241834 8.1409,4.407051 l 5.10532,-3.445364 c -1.93174,-2.483669 -2.90179,-3.58334 -4.55755,-4.687193 -2.34568,-1.655779 -5.24333,-2.492033 -8.55491,-2.492033 -9.65872,0 -16.28184,6.765285 -16.28184,16.704147 0,4.687197 1.3798,8.82665 4.00146,11.724266 2.90179,3.031416 7.17504,4.96734 11.45669,4.96734 8.13675,0 14.48809,-6.623124 14.48809,-14.626059 z m 44.97783,13.940331 0,-32.153917 -5.9332,0 0,12.004408 -18.07561,0 0,-12.004408 -6.07119,0 0,32.153917 6.07119,0 0,-13.940331 18.07561,0 0,13.940331 5.9332,0 z m 40.57081,-26.086905 0,-6.067012 -27.59635,0 0,6.067012 11.03853,0 0,26.086905 6.0712,0 0,-26.086905 10.48662,0"
   style="fill:#ffffff;fill-opacity:1;fill-rule:evenodd;stroke:none"
   id="path5646" /><path
   inkscape:connector-curvature="0"
   d="m 103.03781,320.79554 -10.348626,-19.87772 7.313046,-7.44684 -7.589006,0 -7.58898,7.86498 0,-18.62756 -5.933241,2.89761 0,35.18953 5.933241,0 0,-11.86642 3.44534,-3.59171 7.869121,15.45813 6.899105,0 z m 41.11857,0 0,-18.62752 c 0,-9.65876 -12.83647,-12.28038 -17.38987,-6.2134 -3.31158,-3.86345 -9.51656,-4.41121 -13.38007,-1.37141 l 0,-1.11223 -6.07539,0 0,27.32456 6.20917,0 0,-17.80381 c 0,-3.16522 1.79797,-4.55341 4.14364,-4.68721 3.31157,0 5.10116,1.24183 5.10116,4.68721 l 0,17.80381 6.35136,0 0,-17.80381 c 0,-3.16522 1.93176,-4.68721 4.27324,-4.68721 3.17359,0 4.96735,1.24183 4.96735,4.68721 l 0,17.80381 5.79941,0"
   style="fill:#ffffff;fill-opacity:1;fill-rule:evenodd;stroke:none"
   id="path5648" /><path
   inkscape:connector-curvature="0"
   d="m 174.92212,283.67845 -5.93322,0 -21.52094,37.11709 6.07115,0 21.38301,-37.11709"
   style="fill:#ffffff;fill-opacity:1;fill-rule:evenodd;stroke:none"
   id="path5650" /><path
   inkscape:connector-curvature="0"
   d="m 199.06892,320.79554 0,-18.7655 c 0,-8.4211 -10.07265,-11.58631 -16.14387,-7.72699 l 0,-11.59465 -5.93322,2.89761 0,35.18953 6.07122,0 0,-17.94181 c 0,-3.16937 2.2077,-4.41541 4.55756,-4.54921 3.17357,0 5.51508,0.82791 5.51508,4.27325 l 0,18.21777 5.93323,0"
   style="fill:#ffffff;fill-opacity:1;fill-rule:evenodd;stroke:none"
   id="path5652" /><path
   inkscape:connector-curvature="0"
   d="m 137.67125,106.78587 3.72132,0.13782 3.8635,0.27596 3.86764,0.40977 3.72552,0.69409 3.58752,0.82371 3.58334,1.11221 3.58752,1.24184 3.44955,1.24183 3.31573,1.64742 3.30736,1.65996 3.1778,1.79376 3.16937,1.92757 2.89763,2.21606 2.89761,2.20353 2.75965,2.48368 2.62166,2.47948 2.62161,2.62165 2.34987,2.76382 2.34151,2.89761 2.07392,3.03559 1.92758,3.03143 1.93172,3.17776 1.65579,3.31575 1.5178,3.30738 1.37982,3.44536 1.10804,3.59172 1.10385,3.58751 0.82788,3.72132 0.68572,3.73387 0.41814,3.72552 0.40975,3.8593 0,7.86496 -0.40975,3.86348 -0.41814,3.72552 -0.68572,3.72131 -0.82788,3.7255 -1.10385,3.59172 -1.10804,3.44955 -1.37982,3.45371 -1.5178,3.30738 -1.65579,3.30738 -1.93172,3.17773 -1.92758,3.03563 -2.07392,3.0314 -2.34151,2.89764 -2.34987,2.75961 -5.24327,5.24331 -2.75965,2.3457 -2.89761,2.21188 -2.89763,2.20352 -3.16937,1.93593 -3.1778,1.78959 -3.30736,1.79793 -3.31573,1.51781 -3.44955,1.37984 -7.17086,2.2035 -3.58752,0.83625 -3.72552,0.68573 -3.86764,0.41394 -3.8635,0.27196 -3.72132,0.13779 -4.00147,-0.13779 -3.7255,-0.27196 -3.86772,-0.41394 -3.72133,-0.68573 -3.7255,-0.83625 -3.58752,-1.09967 -3.4537,-1.10383 -3.44536,-1.37984 -3.44954,-1.51781 -3.31155,-1.79793 -3.177805,-1.78959 -3.031411,-1.93593 -3.03557,-2.20352 -2.89763,-2.21188 -2.75963,-2.3457 -2.62166,-2.62164 -2.48365,-2.62167 -2.483701,-2.75961 -2.2077,-2.89764 -2.06971,-3.0314 -2.06972,-3.03563 -1.793793,-3.17773 -1.65995,-3.30738 -1.51362,-3.30738 -1.38401,-3.45371 -1.23763,-3.44955 -0.96588,-3.59172 -0.97005,-3.7255 -1.09967,-7.44683 -0.27598,-3.86348 -0.14213,-3.86767 0.14213,-3.99729 0.27598,-3.8593 1.09967,-7.45939 0.97005,-3.72132 0.96588,-3.58751 1.23763,-3.59172 1.38401,-3.44536 1.51362,-3.30738 1.65995,-3.31575 1.793793,-3.17776 2.06972,-3.03143 2.06971,-3.03559 2.2077,-2.89761 2.483701,-2.76382 2.48365,-2.62165 2.62166,-2.47948 2.75963,-2.48368 2.89763,-2.20353 3.03557,-2.21606 3.031411,-1.92757 3.177805,-1.79376 3.31155,-1.65996 3.44954,-1.64742 3.44536,-1.24183 3.4537,-1.24184 3.58752,-1.11221 3.7255,-0.82371 3.72133,-0.69409 3.86772,-0.40977 3.7255,-0.27596 4.00147,-0.13782 z m 0,-6.7611 c -45.676156,0 -82.92704,37.25506 -82.92704,82.92283 0,45.39597 37.250884,82.65108 82.92704,82.65108 45.3918,0 82.64685,-37.25511 82.64685,-82.65108 0,-45.66777 -37.25505,-82.92283 -82.64685,-82.92283 z"
   style="fill:#ffffff;fill-opacity:1;fill-rule:evenodd;stroke:none"
   id="path5654" /><path
   inkscape:connector-curvature="0"
   d="m 130.49203,157.14921 0,-11.31033 -48.845576,0 0,11.31033 34.361656,0 c -2.48789,4.13946 -5.51926,9.38275 -8.14093,15.04 -7.04125,15.17379 -10.072675,29.11414 -10.352835,45.66777 l 11.728465,0 c 0,-7.17087 0.41811,-11.58628 1.51779,-17.65331 2.2119,-11.59884 7.03706,-23.73285 13.38421,-34.36581 2.21195,-3.86348 3.72555,-5.37292 6.34722,-8.68865 z m 63.1956,24.83251 c 0,-9.10679 -1.79379,-18.20939 -4.82936,-24.55655 -4.5534,-8.83502 -10.90055,-12.82813 -20.00735,-12.82813 -8.41688,0 -14.21212,2.47949 -18.48955,7.99459 -4.82933,6.89909 -7.86496,17.52367 -7.86496,29.39009 0,8.69703 2.06971,18.22195 5.10535,24.28898 4.27742,8.82663 10.62874,12.82811 20.70142,12.82811 7.58479,0 13.3842,-2.48367 17.51948,-8.14093 4.97152,-6.20917 7.86497,-17.51948 7.86497,-28.97616 z m -11.45248,0 c 0,5.66146 -1.24183,12.69852 -2.75546,16.56201 -2.62164,6.20498 -5.79944,9.10679 -11.17651,9.10679 -4.55758,0 -7.59319,-1.79797 -9.93469,-5.66143 -2.76379,-4.54921 -4.28161,-12.41418 -4.28161,-20.00737 0,-6.06702 1.10803,-12.69014 2.76382,-16.97175 2.62163,-6.34297 6.067,-9.1026 11.72424,-8.82664 4.27745,0.28031 7.04126,1.79795 9.38278,5.51926 2.7638,4.82937 4.27743,12.2762 4.27743,20.27913"
   style="fill:#ffffff;fill-opacity:1;fill-rule:evenodd;stroke:none"
   id="path5656" /></svg>