<?xml version="1.0" encoding="UTF-8" standalone="no"?>
<svg xmlns="http://www.w3.org/2000/svg" xml:space="preserve" width="180.93747" height="225.9062" viewBox="0 -.321 180.93748 225.90625">
  <path fill="#fff" stroke="#000" stroke-width=".99970567" d="M11.741647 225.09935H169.19277c2.97164 0 5.85828-1.17716 7.96516-3.28154 2.09938-2.09688 3.29153-4.99353 3.29153-7.96515V11.41727c0-2.97163-1.19215-5.85578-3.29153-7.96515-2.10688-2.09938-4.99352-3.28653-7.96516-3.28653H11.741647c-2.9741234 0-5.8632721 1.18715-7.9676521 3.28653C1.6771125 5.56149.49496087 8.44564.49496087 11.41727v202.43539c0 3.86636 2.01940533 7.50778 5.28594273 9.58718 1.8444565 1.17715 3.8163751 1.45457 5.9607434 1.65951"/>
  <path fill-rule="evenodd" d="M3.6340162 213.85266V11.42227c0-2.12187.8772415-4.23626 2.3668026-5.73831 1.5095552-1.49957 3.6164345-2.3693 5.7408082-2.3693H169.18776c2.11937 0 4.23626.86973 5.73581 2.3693 1.50205 1.50205 2.3718 3.61644 2.3718 5.73831v202.43039c0 2.12437-.86975 4.23625-2.3718 5.7408-1.49955 1.48958-3.61644 2.36681-5.73581 2.36681H11.741627c-2.1243737 0-4.231253-.87723-5.7408082-2.36681-1.4895611-1.50455-2.3668026-3.61643-2.3668026-5.7408"/>
  <path fill="#fff" fill-rule="evenodd" d="M8.0502349 213.84767c0 .9897.3823874 1.92443 1.0746834 2.62171.7022935.69231 1.6345187 1.0772 2.6217277 1.0772H169.19277c.97972 0 1.91694-.38489 2.61674-1.0772.69729-.69728 1.07717-1.63201 1.07717-2.62171V11.41977c0-.98722-.37988-1.91444-1.07717-2.61173-.6998-.6998-1.63702-1.07969-2.61674-1.07969H11.746646c-.987209 0-1.9194342.37989-2.6217277 1.07969-.692296.69729-1.0746834 1.62451-1.0746834 2.61173v202.4279z"/>
  <path fill-rule="evenodd" d="m67.672403 132.09075-33.80254 42.67493v9.80961h33.615095v17.49484h10.934278v-17.49484h6.810494v-9.80961h-6.872976l.06239-42.67493H67.672311zm-.187344 16.12025v26.55468H46.616207L67.485059 148.211zm55.171151-17.24492c-7.45531 0-13.86592 2.61923-17.93221 9.05983-3.31903 5.25096-5.023537 11.33166-5.935768 17.43237-.967214 6.36562-.962216 12.8812 0 19.24433.907232 6.06321 2.646728 12.14642 5.935768 17.36988 1.24962 1.97192 2.79417 3.7414 4.62363 5.18597 5.62835 4.45869 14.49823 4.77859 21.11878 2.81167 7.43782-2.21435 11.78654-9.28726 13.9959-16.30769 2.86165-9.09732 3.48397-18.88694 2.06189-28.30416-.94722-6.29065-2.76918-12.51381-6.18568-17.93222-3.7189-5.89076-10.96179-8.55998-17.68231-8.55998zm0 10.93428c4.60613-.004 7.95515 2.24434 9.99706 6.31064 1.92193 3.83137 2.79917 8.08512 3.31154 12.30888.78227 6.53557.38489 13.2286-1.18718 19.61921-1.02469 4.19127-3.30152 9.64966-7.7477 11.30917-3.81888 1.42458-8.76493 1.10218-11.74655-1.93693-2.47926-2.53425-3.91384-5.98073-4.74859-9.37224-2.09439-8.53748-2.0844-17.57982 0-26.1173.48735-2.00191 1.19464-3.90385 2.12437-5.74831 2.04938-4.0663 5.38341-6.37312 9.99705-6.37312zm32.13581-106.501378-5.4484 16.800051-5.55835-16.932511v16.932511h-4.19377V22.215367h4.3687l5.34593 16.307695 5.31094-16.307695h4.4087v29.983666h-4.23375V35.398982zm-118.12522 0-5.458393 16.800051-5.550865-16.932511v16.932511h-4.196263V22.215367h4.373711l5.343426 16.307695 5.305937-16.307695h4.413699v29.983666H36.6668V35.398982zm69.62949 0-5.45839 16.800051-5.548374-16.932511v16.932511h-4.203761V22.215367h4.37371l5.350925 16.307695 5.31094-16.307695h4.40621v29.983666h-4.23126V35.398982zm-48.508235 16.80103V22.21385h4.34372l7.820196 17.462352.03499-17.462352h4.206261v29.986162h-3.269037l-8.934867-19.891639v19.891639h-4.201263zm75.467775-7.696971c0 3.274035-2.02691 6.295644-5.03851 7.56777-1.98693.834754-4.28375.834754-6.26566 0-3.0616-1.289621-5.02852-4.253748-5.02852-7.56777V22.214604h4.18877v22.288437c0 1.317111.68729 2.571741 1.78197 3.304026 1.31711.869744 3.08409.859746 4.39121-.01001 1.09967-.732284 1.75198-1.986915 1.75198-3.294029V22.214591h4.21876v22.288437zM47.223428 22.215605h4.236252v29.986167h-4.236252V22.215605zm33.300189 0h4.236251v29.986167h-4.236251V22.215605zm56.163723 70.110343c0 2.314319-.20994 4.418699-.41988 6.310641-.42488 2.314321-1.79199 4.316231-4.31376 4.316231h-3.57394V81.391671h3.57394c1.89195 0 3.15657.94722 3.88888 3.046602.52734 1.264628.84476 4.523668.84476 7.887675m4.20875-.209937c0-2.314319-.31739-4.941044-.73727-7.150392-.52735-3.051602-1.78698-5.36592-3.57895-6.625549-1.0497-.844752-2.31434-1.157159-4.8361-1.157159h-7.68024v29.973669h8.30756c1.68451 0 3.15908-.41988 4.20878-1.3671 2.94913-2.31432 4.31622-6.733014 4.31622-13.673469m-22.28345 15.040569v-4.20376h-10.93928v-9.889588h6.20817v-4.101291h-6.20817v-7.57027h9.78212v-4.20876h-14.09335v29.973669h15.25051zm-20.703911 0v-4.20376H86.969456v-9.889588h6.205672v-4.101291h-6.205672v-7.57027h9.784619v-4.20876H82.655728v29.973669h15.253001zM73.945794 85.595433c0 2.736693-1.372095 4.313728-3.896351 4.313728h-4.418698v-8.51749h4.418698c2.314317 0 3.896351 1.679505 3.896351 4.203762m4.201263 0c0-5.048513-3.154071-8.412522-7.887676-8.412522h-8.937366v29.973669h4.30873V94.010453h4.628636c5.051011 0 7.887676-2.944133 7.887676-8.41502M55.86862 98.953996c0-4.313729-2.524256-7.570269-8.307552-10.939277-2.211848-1.259628-2.841662-2.10188-2.841662-3.576446 0-1.996911 1.577036-3.471476 3.578946-3.471476 1.889443 0 3.364008 1.372094 3.471477 3.471476h4.098791c-.107368-4.521167-3.369006-7.782707-7.570268-7.782707-4.316229 0-7.677738 3.471478-7.677738 7.782707 0 2.629226 1.257129 4.943544 3.678916 6.628047 6.098203 4.101292 4.418698 2.944133 5.048512 3.573947 1.786974 1.372096 2.421787 2.629226 2.421787 4.313729 0 2.416784-1.894442 4.521164-4.208761 4.521164-2.94913 0-4.208759-2.62672-4.208759-5.150979h-4.20626c0 4.941049 3.151571 9.377239 8.415019 9.377239 4.626138 0 8.307552-3.90885 8.307552-8.747424"/>
</svg>