<?xml version="1.0" encoding="UTF-8" standalone="no"?>
<!-- Generator: Adobe Illustrator 14.0.0, SVG Export Plug-In  -->

<svg
   xmlns:dc="http://purl.org/dc/elements/1.1/"
   xmlns:cc="http://creativecommons.org/ns#"
   xmlns:rdf="http://www.w3.org/1999/02/22-rdf-syntax-ns#"
   xmlns:svg="http://www.w3.org/2000/svg"
   xmlns="http://www.w3.org/2000/svg"
   xmlns:sodipodi="http://sodipodi.sourceforge.net/DTD/sodipodi-0.dtd"
   xmlns:inkscape="http://www.inkscape.org/namespaces/inkscape"
   version="1.1"
   x="0px"
   y="0px"
   width="378.93747"
   height="849.49994"
   viewBox="0 -0.321 378.9375 849.49997"
   enable-background="new 0 -0.321 144 120"
   xml:space="preserve"
   id="svg2"
   inkscape:version="0.48.2 r9819"
   sodipodi:docname="AJAX1.svg"><metadata
   id="metadata44"><rdf:RDF><cc:Work
       rdf:about=""><dc:format>image/svg+xml</dc:format><dc:type
         rdf:resource="http://purl.org/dc/dcmitype/StillImage" /><dc:title /></cc:Work></rdf:RDF></metadata><sodipodi:namedview
   pagecolor="#ffffff"
   bordercolor="#666666"
   borderopacity="1"
   objecttolerance="10"
   gridtolerance="10"
   guidetolerance="10"
   inkscape:pageopacity="0"
   inkscape:pageshadow="2"
   inkscape:window-width="1280"
   inkscape:window-height="1004"
   id="namedview42"
   showgrid="false"
   fit-margin-top="0"
   fit-margin-left="0"
   fit-margin-right="0"
   fit-margin-bottom="0"
   inkscape:zoom="0.67006655"
   inkscape:cx="905.86222"
   inkscape:cy="196.24421"
   inkscape:window-x="-8"
   inkscape:window-y="-8"
   inkscape:window-maximized="1"
   inkscape:current-layer="svg2" />
<defs
   id="defs4">
</defs>


















<path
   inkscape:connector-curvature="0"
   d="m 24.77024,0.93609276 329.38741,0 c 12.9559,0 23.52781,10.50901924 23.52781,23.39695924 l 0,800.202468 c 0,12.88797 -10.57191,23.39697 -23.52781,23.39697 l -329.38741,0 c -12.96111,0 -23.52761,-10.509 -23.52761,-23.39697 l 0,-800.202468 c 0,-12.88794 10.5665,-23.39695924 23.52761,-23.39695924 z"
   style="fill:#ffffff;fill-opacity:1;fill-rule:nonzero;stroke:#000000;stroke-width:2.50000095;stroke-linecap:butt;stroke-linejoin:miter;stroke-miterlimit:3.16779995;stroke-opacity:1;stroke-dasharray:none"
   id="path6367" /><path
   inkscape:connector-curvature="0"
   d="m 24.84874,7.6806827 c 42.266,0 84.5322,0 126.809,0 60.4346,0 120.87451,0 181.30941,0 9.2698,0 23.7106,-2.53575 31.6525,3.6180393 7.00601,5.4375 6.53031,13.34803 6.53031,21.16444 0,36.50976 0,171.401718 0,207.906228 0,62.80846 0,125.61164 0,188.42023 0,67.50873 0,135.00699 0,202.51054 0,50.60538 0,101.20036 0,151.80579 0,12.21345 0,24.43215 0,36.63516 0,8.75229 -1.6888,17.45755 -11.17311,20.91873 -3.6283,1.31756 -7.5498,1.02476 -11.3351,1.02476 -7.7485,0 -15.5126,0 -23.261,0 -28.0033,0 -56.0012,0 -84.0044,0 -62.40051,0 -124.80641,0 -187.20691,0 -7.8636,0 -15.727,0 -23.5905,0 -3.7382,0 -7.6491,0.3137 -11.24621,-0.89406 -9.6463,-3.23636 -11.5546,-12.0357 -11.5546,-20.85597 0,-33.8537 0,-67.71264 0,-101.56636 0,-61.67387 0,-123.3373 0,-185.01117 0,-67.87471 0,-135.75481 0,-203.63477 0,-52.48241 0,-104.97525 0,-157.46288 0,-13.71924 0,-125.825978 0,-139.550488 0,-7.76413 -0.5752,-15.60146 6.1955,-21.15922 3.0587,-2.5096193 6.912,-3.8585393 10.87511,-3.8689993"
   style="fill:#000000;fill-opacity:1;fill-rule:evenodd;stroke:none"
   id="path6369" /><path
   inkscape:connector-curvature="0"
   d="m 24.96364,16.532362 c 42.3864,0 84.7676,0 127.154,0 60.4035,0 120.80171,0 181.20501,0 6.1904,0 12.3651,0 18.5555,0 2.6141,0 5.0872,0.0251 7.2413,1.78287 4.0312,3.30956 2.8808,9.67772 2.8808,14.27346 0,36.74503 0,171.872288 0,208.622508 0,62.94961 0,125.89919 0,188.84892 0,67.49826 0,134.99129 0,202.49483 0,50.39105 0,100.77162 0,151.16266 0,12.01485 0,24.02439 0,36.03921 0,4.85191 0.2198,10.42533 -5.5368,12.22392 -2.6038,0.81038 -5.9028,0.35553 -8.5693,0.35553 -7.9941,0 -15.9884,0 -23.9879,0 -28.3168,0 -56.6336,0 -84.961,0 -62.13401,0 -124.28361,0 -186.43321,0 -7.555,0 -15.11,0 -22.6703,0 -2.5671,0 -5.6675,0.4078 -8.09341,-0.61174 -5.4376,-2.28478 -4.8207,-7.94708 -4.8207,-12.75199 0,-34.48111 0,-68.97271 0,-103.45378 0,-61.98762 0,-123.98043 0,-185.96797 0,-67.83291 0,-135.67114 0,-203.50403 0,-52.03276 0,-104.05506 0,-156.08257 0,-13.31668 0,-125.015588 0,-138.332298 0,-4.69507 -1.0561,-10.72338 3.4874,-13.77152 1.3435,-0.89928 2.93311,-1.35415 4.54861,-1.32801"
   style="fill:#ffffff;fill-opacity:1;fill-rule:evenodd;stroke:none"
   id="path6371" /><path
   inkscape:connector-curvature="0"
   d="m 79.88774,487.01799 0,-30.25137 -12.0985,30.25137 -12.0984,-30.25137 0,30.25137 -8.2556,0 0,-52.25756 8.2556,0 12.0984,29.3364 12.0985,-29.3364 8.2556,0 0,52.25756 -8.2556,0"
   style="fill:#000000;fill-opacity:1;fill-rule:nonzero;stroke:none"
   id="path6373" /><path
   inkscape:connector-curvature="0"
   d="m 100.60774,434.76043 8.4333,0 0,52.25756 -8.4333,0 0,-52.25756 z"
   style="fill:#000000;fill-opacity:1;fill-rule:nonzero;stroke:none"
   id="path6375" /><path
   inkscape:connector-curvature="0"
   d="m 149.74404,487.01799 -19.9828,-35.39086 0,35.39086 -8.2556,0 0,-52.25756 8.2556,0 19.0678,33.36748 0,-33.36748 8.2503,0 0,52.25756 -7.3353,0"
   style="fill:#000000;fill-opacity:1;fill-rule:nonzero;stroke:none"
   id="path6377" /><path
   inkscape:connector-curvature="0"
   d="m 169.54914,434.76043 8.4229,0 0,52.25756 -8.4229,0 0,-52.25756 z"
   style="fill:#000000;fill-opacity:1;fill-rule:nonzero;stroke:none"
   id="path6379" /><path
   inkscape:connector-curvature="0"
   d="m 222.89415,487.01799 0,-30.25137 -12.09841,30.25137 -12.1036,-30.25137 0,30.25137 -8.2505,0 0,-52.25756 8.2505,0 12.1036,29.3364 12.09841,-29.3364 8.2503,0 0,52.25756 -8.2503,0"
   style="fill:#000000;fill-opacity:1;fill-rule:nonzero;stroke:none"
   id="path6381" /><path
   inkscape:connector-curvature="0"
   d="m 276.80385,479.13361 c -2.7605,5.12906 -8.9875,8.79939 -15.4132,8.79939 -6.41,0 -12.6421,-3.67033 -15.3974,-8.79939 -1.4588,-3.12136 -2.3791,-6.78642 -2.3791,-10.81748 l 0,-33.5557 8.2503,0 0,33.5557 c 0,6.7812 3.8482,11.1835 9.5262,11.1835 5.6884,0 9.5417,-4.4023 9.5417,-11.1835 l 0,-33.5557 8.2504,0 0,33.5557 c 0,4.03106 -0.9201,7.69612 -2.3789,10.81748"
   style="fill:#000000;fill-opacity:1;fill-rule:nonzero;stroke:none"
   id="path6383" /><path
   inkscape:connector-curvature="0"
   d="m 324.09975,487.01799 0,-30.25137 -12.0984,30.25137 -12.0985,-30.25137 0,30.25137 -8.2556,0 0,-52.25756 8.2556,0 12.0985,29.3364 12.0984,-29.3364 8.2557,0 0,52.25756 -8.2557,0"
   style="fill:#000000;fill-opacity:1;fill-rule:nonzero;stroke:none"
   id="path6385" /><path
   inkscape:connector-curvature="0"
   d="m 102.54754,108.10726 c -3.6652,2.20115 -8.4334,3.48735 -13.1965,3.48735 -8.9822,0 -15.7741,-3.29912 -21.6351,-10.08554 l 7.5185,-5.866228 c 3.848,4.580038 8.0674,6.598188 13.9336,6.598188 6.6034,0 11.3665,-2.933098 11.3665,-6.781178 0,-2.01815 -1.098,-3.67032 -3.2991,-4.76827 -1.8352,-0.73721 -3.8481,-1.46917 -6.2375,-2.01815 l -2.3841,-0.73198 -2.384,-0.54897 -2.562,-0.7372 c -5.3172,-1.28096 -8.0674,-2.56714 -10.2686,-5.12904 -2.2011,-2.38937 -3.3042,-5.50548 -3.3042,-8.80458 0,-8.62158 7.3406,-14.48781 17.9751,-14.48781 7.7013,0 14.1114,2.57235 19.4338,8.06737 l -6.9694,6.23745 c -3.2991,-3.4821 -7.5184,-5.13426 -12.4644,-5.13426 -5.3225,0 -8.4333,2.01292 -8.4333,5.31725 0,2.93312 1.8298,4.2193 8.2503,5.68324 6.9641,1.46917 11.5494,2.93311 14.4774,4.40229 4.5852,2.38414 7.5184,7.33018 7.5184,13.01864 0,5.317248 -2.379,9.348318 -7.3354,12.281428"
   style="fill:#000000;fill-opacity:1;fill-rule:nonzero;stroke:none"
   id="path6387" /><path
   inkscape:connector-curvature="0"
   d="m 154.06794,88.490432 c -2.9331,1.64694 -5.3173,2.01815 -9.3483,2.01815 l -14.8539,0 0,20.531808 -9.5312,0 0,-52.252328 24.3851,0 c 4.031,0 6.4152,0.54897 9.3483,2.20114 4.9512,2.75012 8.0674,7.88438 8.0674,13.75061 0,5.50025 -3.1162,11.0005 -8.0674,13.75062 z m -8.9876,-20.35405 -15.2146,0 0,13.01864 15.2146,0 c 4.5852,0 7.7013,-2.56713 7.7013,-6.41521 0,-4.0363 -3.1161,-6.60343 -7.7013,-6.60343"
   style="fill:#000000;fill-opacity:1;fill-rule:nonzero;stroke:none"
   id="path6389" /><path
   inkscape:connector-curvature="0"
   d="m 170.93984,111.04039 0,-52.252328 38.1306,0 0,9.34832 -28.6046,0 0,9.71954 15.5806,0 0,9.53656 -15.5806,0 0,14.299578 29.5194,0 0,9.34833 -39.0454,0"
   style="fill:#000000;fill-opacity:1;fill-rule:nonzero;stroke:none"
   id="path6391" /><path
   inkscape:connector-curvature="0"
   d="m 220.43154,111.04039 0,-52.252328 38.14101,0 0,9.34832 -28.5992,0 0,9.71954 15.5806,0 0,9.53656 -15.5806,0 0,14.299578 29.509,0 0,9.34833 -39.05081,0"
   style="fill:#000000;fill-opacity:1;fill-rule:nonzero;stroke:none"
   id="path6393" /><path
   inkscape:connector-curvature="0"
   d="m 299.08205,107.92428 c -3.6652,2.01814 -8.0674,3.11611 -12.2815,3.11611 l -16.8615,0 0,-52.252328 16.8615,0 c 4.4023,0 8.6163,1.09795 12.4644,3.2991 8.0674,4.58528 12.4698,12.46966 12.4698,22.73296 0,10.45151 -4.4024,18.518878 -12.6527,23.104158 z m -4.3972,-37.769748 c -2.384,-1.28095 -5.1288,-2.01815 -7.8843,-2.01815 l -7.3354,0 0,33.555678 7.3354,0 c 2.7555,0 5.3172,-0.73198 7.5236,-2.018148 5.495,-2.93311 8.0569,-7.70139 8.0569,-14.85379 0,-6.9642 -2.5619,-11.73247 -7.6962,-14.66559"
   style="fill:#000000;fill-opacity:1;fill-rule:nonzero;stroke:none"
   id="path6395" /><path
   inkscape:connector-curvature="0"
   d="m 94.37034,184.35265 0,-52.2576 9.3483,0 0,44.19023 29.7025,0 0,8.06737 -39.0508,0"
   style="fill:#000000;fill-opacity:1;fill-rule:nonzero;stroke:none"
   id="path6397" /><path
   inkscape:connector-curvature="0"
   d="m 142.40854,132.09505 9.3432,0 0,52.2576 -9.3432,0 0,-52.2576 z"
   style="fill:#000000;fill-opacity:1;fill-rule:nonzero;stroke:none"
   id="path6399" /><path
   inkscape:connector-curvature="0"
   d="m 205.10714,184.35265 0,-31.90879 -15.3975,31.90879 -15.2198,-31.90879 0,31.90879 -9.1704,0 0,-52.2576 9.1704,0 15.2198,30.98859 15.3975,-30.98859 9.1706,0 0,52.2576 -9.1706,0"
   style="fill:#000000;fill-opacity:1;fill-rule:nonzero;stroke:none"
   id="path6401" /><path
   inkscape:connector-curvature="0"
   d="m 227.83495,132.09505 9.3535,0 0,52.2576 -9.3535,0 0,-52.2576 z"
   style="fill:#000000;fill-opacity:1;fill-rule:nonzero;stroke:none"
   id="path6403" /><path
   inkscape:connector-curvature="0"
   d="m 270.19525,141.26037 0,43.09228 -9.1706,0 0,-43.09228 -15.0314,0 0,-9.16532 39.2335,0 0,9.16532 -15.0315,0"
   style="fill:#000000;fill-opacity:1;fill-rule:nonzero;stroke:none"
   id="path6405" /><path
   inkscape:connector-curvature="0"
   d="m 140.17094,790.6034 -14.054,-27.20845 9.9131,-10.26852 -10.4515,0 -10.2634,10.81224 0,-25.58234 -8.2922,3.96307 0,48.284 8.2922,0 0,-16.21841 4.6794,-4.86234 10.8124,21.08075 9.364,0 z m 56.7434,0 0,-25.40992 c 0,-13.32711 -17.8391,-16.92948 -24.1394,-8.63729 -4.5015,-5.22834 -12.9663,-5.95507 -18.3724,-1.80898 l 0,-1.62078 -8.287,0 0,37.47697 8.4647,0 0,-24.32762 c 0,-4.31865 2.5201,-6.30021 5.767,-6.48321 4.5015,0 7.0269,1.62604 7.0269,6.48321 l 0,24.32762 8.6477,0 0,-24.32762 c 0,-4.31865 2.6978,-6.48321 5.9445,-6.48321 4.3188,0 6.844,1.62604 6.844,6.48321 l 0,24.32762 8.104,0"
   style="fill:#000000;fill-opacity:1;fill-rule:evenodd;stroke:none"
   id="path6407" /><path
   inkscape:connector-curvature="0"
   d="m 238.63155,738.34585 -8.2817,0 -30.18351,52.28371 8.2766,0 30.18861,-52.28371"
   style="fill:#000000;fill-opacity:1;fill-rule:evenodd;stroke:none"
   id="path6409" /><path
   inkscape:connector-curvature="0"
   d="m 271.45005,790.6034 0,-25.76543 c 0,-11.52856 -13.6931,-15.84719 -22.1578,-10.44628 l 0,-16.03536 -8.1093,3.96307 0,48.284 8.2922,0 0,-24.50016 c 0,-4.3291 3.0534,-6.12767 6.3003,-6.31067 4.3186,0 7.5653,1.08228 7.5653,5.94469 l 0,24.86614 8.1093,0"
   style="fill:#000000;fill-opacity:1;fill-rule:evenodd;stroke:none"
   id="path6411" /><path
   inkscape:connector-curvature="0"
   d="m 189.97114,210.21219 c 54.71491,0 99.33901,44.62413 99.33901,99.33906 0,54.71493 -44.6241,99.34432 -99.33901,99.34432 -54.7149,0 -99.3391,-44.62939 -99.3391,-99.34432 0,-54.71493 44.6242,-99.33906 99.3391,-99.33906"
   style="fill:#000000;fill-opacity:1;fill-rule:evenodd;stroke:none"
   id="path6413" /><path
   inkscape:connector-curvature="0"
   d="m 189.97114,513.80295 c 54.71491,0 99.33901,44.62939 99.33901,99.34435 0,54.71487 -44.6241,99.33902 -99.33901,99.33902 -54.7149,0 -99.3391,-44.62415 -99.3391,-99.33902 0,-54.71496 44.6242,-99.34435 99.3391,-99.34435"
   style="fill:#000000;fill-opacity:1;fill-rule:evenodd;stroke:none"
   id="path6421" /><path
   inkscape:connector-curvature="0"
   d="m 189.97114,219.36185 c 49.66951,0 90.18941,40.51464 90.18941,90.1894 0,49.67476 -40.5199,90.19464 -90.18941,90.19464 -49.6799,0 -90.1894,-40.51988 -90.1894,-90.19464 0,-49.67476 40.5095,-90.1894 90.1894,-90.1894"
   style="fill:#ffffff;fill-opacity:1;fill-rule:evenodd;stroke:none"
   id="path6415" /><path
   inkscape:connector-curvature="0"
   d="m 189.97114,522.95257 c 49.66951,0 90.18941,40.51465 90.18941,90.19469 0,49.66955 -40.5199,90.18941 -90.18941,90.18941 -49.6799,0 -90.1894,-40.51986 -90.1894,-90.18941 0,-49.68004 40.5095,-90.19469 90.1894,-90.19469"
   style="fill:#ffffff;fill-opacity:1;fill-rule:evenodd;stroke:none"
   id="path6423" /><path
   inkscape:connector-curvature="0"
   d="m 156.15924,347.17464 c -13.348,0 -24.8976,-11.2933 -24.8976,-24.64133 0,-6.93283 3.0797,-12.57945 8.4701,-16.93992 -3.5972,-3.85332 -5.3904,-8.2138 -5.3904,-13.34803 0,-11.29329 10.007,-20.79324 21.8179,-20.79324 11.8056,0 22.069,9.49995 22.069,20.79324 0,5.13423 -2.0497,9.49471 -5.6467,13.34803 5.6467,4.36047 8.4753,10.26851 8.4753,16.93992 0,13.34803 -11.5495,24.64133 -24.8976,24.64133 z m 0,-35.42225 c -7.1891,0 -13.0918,4.87807 -13.0918,11.03711 0,6.9328 5.9027,12.57945 13.0918,12.57945 7.4347,0 13.3481,-5.64665 13.3481,-12.57945 0,-6.15904 -6.1644,-11.03711 -13.3481,-11.03711 z m 0,-28.49464 c -5.6467,0 -10.2685,3.85332 -10.2685,8.72619 0,4.36567 4.6218,7.95756 10.2685,7.95756 5.6413,0 10.2632,-3.59189 10.2632,-7.95756 0,-4.87287 -4.6219,-8.72619 -10.2632,-8.72619"
   style="fill:#000000;fill-opacity:1;fill-rule:nonzero;stroke:none"
   id="path6417" /><path
   inkscape:connector-curvature="0"
   d="m 239.31645,338.96084 c -4.1042,5.64665 -10.0071,8.2138 -17.7085,8.2138 -10.27381,0 -16.68371,-4.10427 -21.04411,-13.08664 -3.0848,-6.16426 -5.1396,-15.92041 -5.1396,-24.64658 0,-12.06183 3.0848,-22.84272 7.9576,-29.77555 4.3605,-5.64663 10.2685,-8.21375 18.73851,-8.21375 9.2385,0 15.6538,4.10429 20.2809,13.09182 3.069,6.41523 4.8675,15.659 4.8675,24.89748 0,11.55474 -2.8181,23.1042 -7.9523,29.51942 z m -7.9576,-50.05121 c -2.3057,-3.85328 -5.1342,-5.39566 -9.4948,-5.65188 -5.64641,-0.25625 -9.24351,2.56715 -11.80551,8.98761 -1.7985,4.36042 -2.8286,11.03708 -2.8286,17.19606 0,7.70145 1.5424,15.65902 4.371,20.28088 2.3056,3.85331 5.3799,5.64665 10.00701,5.64665 5.3905,0 8.721,-2.82333 11.2933,-9.23852 1.5319,-3.85333 2.8182,-11.04231 2.8182,-16.68901 0,-8.21374 -1.5424,-15.65892 -4.3606,-20.53179"
   style="fill:#000000;fill-opacity:1;fill-rule:nonzero;stroke:none"
   id="path6419" /><path
   inkscape:connector-curvature="0"
   d="m 148.03434,651.50782 c -6.4204,0 -12.8356,-1.53716 -17.9699,-4.10953 l 5.6466,-10.26852 c 3.0795,1.5476 8.47,2.57238 13.8656,2.57238 10.5144,0 18.7387,-6.93285 18.7387,-16.43277 0,-7.18901 -5.9134,-12.83564 -13.092,-12.83564 -5.1394,0 -7.4453,1.54236 -11.8109,7.70659 l -11.5495,-3.34093 1.7986,-37.73317 42.0832,0 0,11.54946 -30.7952,0 -0.7685,12.06712 c 5.3956,-1.54239 7.7014,-2.05474 11.2985,-2.05474 13.3428,0 24.3851,11.29323 24.3851,24.64131 0,16.17133 -13.3479,28.23844 -31.8303,28.23844"
   style="fill:#000000;fill-opacity:1;fill-rule:nonzero;stroke:none"
   id="path6425" /><path
   inkscape:connector-curvature="0"
   d="m 238.11915,643.29406 c -4.1043,5.64663 -10.0071,8.21376 -17.70851,8.21376 -10.2685,0 -16.6837,-4.10953 -21.0441,-13.09184 -3.0848,-6.15906 -5.1343,-15.9152 -5.1343,-24.64133 0,-12.06709 3.0795,-22.84801 7.9523,-29.77561 4.3604,-5.65185 10.2738,-8.219 18.7386,-8.219 9.24361,0 15.65371,4.10951 20.28081,13.09184 3.0742,6.42046 4.8728,15.65901 4.8728,24.90277 0,11.54945 -2.818,23.10417 -7.9576,29.51941 z m -7.9524,-50.05648 c -2.3109,-3.84808 -5.1394,-5.39047 -9.50001,-5.64666 -5.6464,-0.25627 -9.2384,2.56713 -11.8055,8.98238 -1.7934,4.36571 -2.8286,11.03711 -2.8286,17.20135 0,7.69614 1.5424,15.65897 4.371,20.28084 2.3108,3.84806 5.3852,5.64666 10.007,5.64666 5.39581,0 8.72101,-2.82333 11.29851,-9.24373 1.5319,-3.84811 2.8181,-11.03712 2.8181,-16.68377 0,-8.21374 -1.5423,-15.65894 -4.3605,-20.53707"
   style="fill:#000000;fill-opacity:1;fill-rule:nonzero;stroke:none"
   id="path6427" /></svg>