<?xml version="1.0" encoding="UTF-8" standalone="no"?>
<!-- Generator: Adobe Illustrator 14.0.0, SVG Export Plug-In  -->

<svg
   xmlns:dc="http://purl.org/dc/elements/1.1/"
   xmlns:cc="http://creativecommons.org/ns#"
   xmlns:rdf="http://www.w3.org/1999/02/22-rdf-syntax-ns#"
   xmlns:svg="http://www.w3.org/2000/svg"
   xmlns="http://www.w3.org/2000/svg"
   xmlns:sodipodi="http://sodipodi.sourceforge.net/DTD/sodipodi-0.dtd"
   xmlns:inkscape="http://www.inkscape.org/namespaces/inkscape"
   version="1.1"
   x="0px"
   y="0px"
   width="90.687485"
   height="180.68747"
   viewBox="0 -0.321 90.687488 180.68751"
   enable-background="new 0 -0.321 144 120"
   xml:space="preserve"
   id="svg2"
   inkscape:version="0.48.2 r9819"
   sodipodi:docname="MUTCD R2-2.svg"><metadata
   id="metadata44"><rdf:RDF><cc:Work
       rdf:about=""><dc:format>image/svg+xml</dc:format><dc:type
         rdf:resource="http://purl.org/dc/dcmitype/StillImage" /><dc:title></dc:title></cc:Work></rdf:RDF></metadata><sodipodi:namedview
   pagecolor="#ffffff"
   bordercolor="#666666"
   borderopacity="1"
   objecttolerance="10"
   gridtolerance="10"
   guidetolerance="10"
   inkscape:pageopacity="0"
   inkscape:pageshadow="2"
   inkscape:window-width="1280"
   inkscape:window-height="1004"
   id="namedview42"
   showgrid="false"
   fit-margin-top="0"
   fit-margin-left="0"
   fit-margin-right="0"
   fit-margin-bottom="0"
   inkscape:zoom="2.6802662"
   inkscape:cx="64.902163"
   inkscape:cy="113.28376"
   inkscape:window-x="-8"
   inkscape:window-y="-8"
   inkscape:window-maximized="1"
   inkscape:current-layer="svg2" />
<defs
   id="defs4">
</defs>


















<path
   inkscape:connector-curvature="0"
   d="m 5.961431,180.02936 78.753768,0 c 1.4775,0 2.9275,-0.60125 3.9775,-1.64375 1.05,-1.04875 1.6475,-2.5 1.6475,-3.97625 l 0,-168.76004 c 0,-1.47875 -0.5975,-2.92875 -1.6475,-3.9775 -1.05,-1.04375 -2.5,-1.6425 -3.9775,-1.6425 l -78.753768,0 c -1.4775,0 -2.9275,0.59875 -3.9775,1.6425 -1.04500014,1.04875 -1.64375014,2.49875 -1.64375014,3.9775 l 0,168.76004 c 0,1.92125 1.02375014,3.745 2.64250014,4.7775 0.93,0.59375 1.90625,0.7325 2.97875,0.8425"
   style="fill:#ffffff;fill-opacity:1;fill-rule:nonzero;stroke:#000000;stroke-width:0.70000017;stroke-miterlimit:4;stroke-opacity:1;stroke-dasharray:none"
   id="path6528" /><path
   inkscape:connector-curvature="0"
   d="m 1.915181,174.40436 0,-168.75254 c 0,-1.06375 0.4275,-2.11 1.1825,-2.86 0.75125,-0.75125 1.80375,-1.1925 2.865,-1.1925 l 78.755018,0 c 1.0625,0 2.11,0.44125 2.86,1.1925 0.75625,0.75 1.18875,1.79625 1.18875,2.86 l 0,168.75254 c 0,1.06875 -0.4325,2.11125 -1.18875,2.86125 -0.755,0.75625 -1.7975,1.18875 -2.86,1.18875 l -78.755018,0 c -1.06625,0 -2.10875,-0.4325 -2.85875,-1.18875 -0.75625,-0.75 -1.18875,-1.7925 -1.18875,-2.86125"
   style="fill:#000000;fill-opacity:1;fill-rule:evenodd;stroke:none"
   id="path6536" /><path
   inkscape:connector-curvature="0"
   d="m 4.117681,174.40674 c 0,0.48875 0.2,0.9575 0.5425,1.29875 0.34375,0.34875 0.8175,0.54625 1.305,0.54625 l 78.750018,0 c 0.48625,0 0.96,-0.1975 1.30125,-0.54625 0.3425,-0.34125 0.5475,-0.81 0.5475,-1.29875 l 0,-168.75254 c 0,-0.485 -0.2,-0.96375 -0.5425,-1.3 -0.34125,-0.3425 -0.82,-0.54875 -1.30625,-0.54875 l -78.750018,0 c -0.4875,0 -0.96875,0.20625 -1.31,0.54875 -0.3425,0.34125 -0.5375,0.815 -0.5375,1.3 l 0,168.75254 z"
   style="fill:#ffffff;fill-opacity:1;fill-rule:evenodd;stroke:none"
   id="path6540" /><path
   inkscape:connector-curvature="0"
   d="m 49.681439,45.78971 -4.34125,9.23625 -4.345,-9.08125 0,9.08125 -2.57125,0 0,-15.00125 2.57125,0 4.345,9.0275 4.34125,-9.0275 2.57625,0 0,15.00125 -2.57625,0 0,-9.23625 z"
   style="fill:#000000;fill-opacity:1;fill-rule:evenodd;stroke:none"
   id="path6544" /><path
   inkscape:connector-curvature="0"
   style="fill:#000000;fill-opacity:1;fill-rule:evenodd;stroke:none"
   d="m 69.281319,15.01132 0,15 4.93751,0 c 0.755,0 1.50125,-0.10375 2.21875,-0.34375 2.3175,-0.775 4.00375,-2.58875 4.5625,-4.96875 0.6025,-2.555 0.17375,-5.6425 -1.75,-7.5625 -1.335,-1.3325 -3.14125,-2.125 -5.03125,-2.125 l -4.93751,0 z m 2.59376,2.71875 2.3125,0 c 1.205,0 2.38125,0.475 3.25,1.3125 1.2625,1.2225 1.43125,3.3425 1.0625,4.96875 -0.34375,1.5125 -1.435,2.62125 -2.90625,3.09375 -0.455,0.1475 -0.93125,0.21875 -1.40625,0.21875 l -2.3125,0 0,-9.59375 z"
   id="path6548" /><path
   inkscape:connector-curvature="0"
   style="fill:#000000;fill-opacity:1;fill-rule:evenodd;stroke:none"
   d="m 25.281319,15.01132 0,15 2.5625,0 0,-5.84375 4.8125,0 c 1.50875,0 2.98,-0.77125 3.8125,-2.03125 1.00375,-1.52 1.01125,-3.5425 0,-5.0625 -0.8375,-1.2575 -2.30125,-2.0625 -3.8125,-2.0625 l -7.375,0 z m 2.5625,2.59375 4.8125,0 c 0.55,0.03 1.00125,0.18875 1.40625,0.59375 0.56875,0.5625 0.745,1.41875 0.4375,2.15625 -0.305,0.7375 -1.0475,1.21875 -1.84375,1.21875 l -4.8125,0 0,-3.96875 z"
   id="path6552" /><path
   inkscape:connector-curvature="0"
   d="m 13.848939,20.41432 3.99125,0.835 c 1.66125,0.3475 3.0325,1.6375 3.42375,3.2975 0.36126,1.5375 -0.22,3.21 -1.40375,4.2425 -0.78125,0.6825 -1.81375,1.105 -2.82,1.31 -2.03625,0.42 -4.22375,0.015 -5.935,-1.1775 -0.6525,-0.4525 -1.132498,-1.0075 -1.631248,-1.6175 l 1.928748,-1.79 c 0.23875,0.325 0.47875,0.64 0.77625,0.9125 0.48625,0.445 1.065,0.79 1.69,1 1.24,0.42 2.7025,0.34 3.865,-0.2825 0.5725,-0.305 0.995,-0.795 1.07875,-1.445 0.12125,-0.9425 -0.58625,-1.765 -1.4875,-1.95 l -4.10125,-0.8525 c -1.47,-0.305 -2.6175,-1.4475 -2.95125,-2.9075 -0.371248,-1.6075 0.26125,-3.3175 1.62375,-4.2575 0.88125,-0.6075 2.04,-0.8575 3.1,-0.9125 1.41125,-0.0775 2.84,0.295 4.05,1.0225 0.60875,0.365 1.08375,0.815 1.5825,1.3125 l -1.8925,1.73 c -0.32,-0.315 -0.63,-0.605 -1.0175,-0.84 -0.445,-0.265 -0.935,-0.465 -1.44125,-0.57 -0.75375,-0.1575 -1.535,-0.115 -2.275,0.1025 -0.5025,0.1475 -0.97625,0.4025 -1.17875,0.9175 -0.18625,0.4725 -0.1025,1.035 0.2175,1.4275 0.21375,0.2625 0.4875,0.415 0.8075,0.4925"
   style="fill:#000000;fill-opacity:1;fill-rule:evenodd;stroke:none"
   id="path6556" /><path
   inkscape:connector-curvature="0"
   d="m 17.877679,55.02546 0,-15 2.565,0 0,12.42875 8.43751,0 0,2.57125 -11.00251,0 z"
   style="fill:#000000;fill-opacity:1;fill-rule:evenodd;stroke:none"
   id="path6560" /><path
   inkscape:connector-curvature="0"
   d="m 41.092689,30.02432 0,-15 10.77625,0 0,2.5875 -8.2075,0 0,3.0375 4.4575,0 0,2.5875 -4.4575,0 0,4.2175 8.4375,0 0,2.57 -11.00625,0 z"
   style="fill:#000000;fill-opacity:1;fill-rule:evenodd;stroke:none"
   id="path6564" /><path
   inkscape:connector-curvature="0"
   d="m 55.186439,30.02432 0,-15 10.78125,0 0,2.5875 -8.21,0 0,3.0375 4.46,0 0,2.5875 -4.46,0 0,4.2175 8.4375,0 0,2.57 -11.00875,0 z"
   style="fill:#000000;fill-opacity:1;fill-rule:evenodd;stroke:none"
   id="path6568" /><path
   inkscape:connector-curvature="0"
   d="m 68.585199,42.6122 0,12.41375 -2.57,0 0,-12.41375 -4.2175,0 0,-2.5875 11.00876,0 0,2.5875 -4.22126,0 z"
   style="fill:#000000;fill-opacity:1;fill-rule:evenodd;stroke:none"
   id="path6572" /><path
   inkscape:connector-curvature="0"
   d="m 18.475179,116.62296 -2.72625,8.40375 -2.77875,-8.47125 0,8.47125 -2.0975,0 0,-15 2.185,0 2.67375,8.15875 2.65625,-8.15875 2.205,0 0,15 -2.1175,0 0,-8.40375 z"
   style="fill:#000000;fill-opacity:1;fill-rule:evenodd;stroke:none"
   id="path6576" /><path
   inkscape:connector-curvature="0"
   d="m 77.555199,116.62296 -2.7275,8.40375 -2.775,-8.47125 0,8.47125 -2.1,0 0,-15 2.1875,0 2.67375,8.15875 2.65375,-8.15875 2.20625,0 0,15 -2.11875,0 0,-8.40375 z"
   style="fill:#000000;fill-opacity:1;fill-rule:evenodd;stroke:none"
   id="path6580" /><path
   inkscape:connector-curvature="0"
   d="m 53.297689,116.62296 -2.725,8.40375 -2.77625,-8.47125 0,8.47125 -2.10125,0 0,-15 2.185,0 2.675,8.15875 2.65625,-8.15875 2.205,0 0,15 -2.11875,0 0,-8.40375 z"
   style="fill:#000000;fill-opacity:1;fill-rule:evenodd;stroke:none"
   id="path6584" /><path
   inkscape:connector-curvature="0"
   d="m 29.038939,125.02684 0,-15 2.17625,0 3.91125,8.7325 0.0163,-8.7325 2.1025,0 0,15 -1.63375,0 -4.47,-9.94875 0,9.94875 -2.1025,0 z"
   style="fill:#000000;fill-opacity:1;fill-rule:evenodd;stroke:none"
   id="path6588" /><path
   inkscape:connector-curvature="0"
   d="m 66.783939,121.17671 c 0,1.63625 -1.01125,3.14875 -2.5175,3.78125 -0.99375,0.4175 -2.14625,0.42 -3.1375,0 -1.5275,-0.64125 -2.51125,-2.12375 -2.51125,-3.78125 l 0,-11.15 2.09125,0 0,11.15 c 0,0.65625 0.345,1.28625 0.89375,1.65 0.66,0.4375 1.54125,0.4325 2.1975,-0.005 0.54875,-0.36375 0.87375,-0.99125 0.87375,-1.645 l 0,-11.15 2.11,0 0,11.15 z"
   style="fill:#000000;fill-opacity:1;fill-rule:evenodd;stroke:none"
   id="path6592" /><path
   inkscape:connector-curvature="0"
   d="m 56.126319,40.02508 2.58125,0 0,15 -2.58125,0 0,-15 z"
   style="fill:#000000;fill-opacity:1;fill-rule:evenodd;stroke:none"
   id="path6602" /><path
   inkscape:connector-curvature="0"
   d="m 31.973819,40.02508 2.58125,0 0,15 -2.58125,0 0,-15 z"
   style="fill:#000000;fill-opacity:1;fill-rule:evenodd;stroke:none"
   id="path6604" /><path
   inkscape:connector-curvature="0"
   d="m 23.756319,110.02634 2.11875,0 0,15 -2.11875,0 0,-15 z"
   style="fill:#000000;fill-opacity:1;fill-rule:evenodd;stroke:none"
   id="path6606" /><path
   inkscape:connector-curvature="0"
   d="m 40.408819,110.02634 2.11875,0 0,15 -2.11875,0 0,-15 z"
   style="fill:#000000;fill-opacity:1;fill-rule:evenodd;stroke:none"
   id="path6608" /><path
   inkscape:connector-curvature="0"
   style="fill:#000000;fill-opacity:1;fill-rule:evenodd;stroke:none"
   d="m 63.500069,64.38633 c -10.31,0 -14.75,8.82625 -14.75,18.03126 0,9.20375 4.3175,18.1875 14.75,18.1875 10.55126,0 14.59376,-9.35375 14.59376,-18.3125 0,-8.83501 -4.16375,-17.90626 -14.59376,-17.90626 z m 0,6.25 c 5.27625,0 8.34376,4.4175 8.34376,11.78126 -0.0368,7.17083 -3.21991,11.90625 -8.34376,11.90625 -5.27875,0 -8.46875,-4.29875 -8.46875,-12.03125 0,-5.15376 2.20875,-11.65626 8.46875,-11.65626 z"
   id="path6612" /><path
   inkscape:connector-curvature="0"
   d="m 41.763939,87.94784 c 0,-7.24 -5.76875,-12.64001 -13.745,-12.64001 -2.21,0 -3.92875,0.245 -6.75001,0.85875 l 0.36876,-5.03125 17.30125,0 0.125,-6.135 -23.31751,0 -1.10375,16.44376 6.26,1.595 c 2.57501,-0.98125 4.41626,-1.35 6.74751,-1.35 2.57875,0 4.41875,0.49125 5.645,1.4725 1.35,1.105 2.20875,2.945 2.20875,4.78625 0,3.9275 -3.19,6.25875 -8.46625,6.25875 -3.56,0 -7.11876,-0.98125 -10.18626,-2.8225 l -3.3125,5.27625 c 4.41625,2.7 8.71126,3.9475 13.49876,3.9475 8.58875,0 14.72625,-5.2975 14.72625,-12.66"
   style="fill:#000000;fill-opacity:1;fill-rule:evenodd;stroke:none"
   id="path6616" /><path
   inkscape:connector-curvature="0"
   style="fill:#000000;fill-opacity:1;fill-rule:evenodd;stroke:none"
   d="m 58.281319,134.44884 c -3.47875,0 -5.89625,1.05626 -7.6875,3.37501 -2.005,2.8475 -3.28125,7.2625 -3.28125,12.21875 0,3.58625 0.8575,7.59625 2.125,10.125 1.7925,3.69125 4.40625,5.40625 8.625,5.40625 3.16375,0 5.595,-1.0875 7.28125,-3.40625 2.11,-2.6375 3.28125,-7.38 3.28125,-12.125 0,-3.79625 -0.735,-7.5825 -2,-10.21875 -1.8975,-3.69125 -4.5475,-5.37501 -8.34375,-5.37501 z m -0.0937,4.84376 c 1.7925,0.105 2.95625,0.73 3.90625,2.3125 1.16,2.00375 1.78125,5.0625 1.78125,8.4375 0,2.31875 -0.52375,5.26125 -1.15625,6.84375 -1.055,2.63375 -2.4425,3.8125 -4.65625,3.8125 -1.8975,0 -3.14625,-0.73125 -4.09375,-2.3125 -1.16,-1.8975 -1.8125,-5.18 -1.8125,-8.34375 0,-2.53 0.41875,-5.27 1.15625,-7.0625 1.055,-2.63625 2.55625,-3.7925 4.875,-3.6875 z"
   id="path6624" /><path
   inkscape:connector-curvature="0"
   d="m 41.412699,155.10685 c 0,-2.95125 -0.6325,-4.53375 -2.84625,-6.535 1.26375,-1.9 1.68625,-3.16375 1.68625,-4.95625 0,-5.06125 -4.11125,-9.17501 -9.1725,-9.17501 -3.90125,0 -7.275,2.32001 -8.8575,6.11626 l 4.42875,1.68625 c 1.055,-2.00125 2.5325,-2.95125 4.53375,-2.95125 2.425,0 4.32375,1.6875 4.32375,4.00625 0,1.9 -1.055,2.9525 -2.95125,2.9525 l -0.95,0 -0.105,0 -0.105,0 0,-0.105 0,4.85 0.525,0 c 2.215,0.105 2.32125,0.105 3.05875,0.6325 1.055,0.7375 1.6875,2.215 1.6875,3.79625 0,3.0575 -2.215,5.27125 -5.37875,5.27125 -2.84625,0 -4.84875,-1.58125 -5.5875,-4.53375 l -4.63876,1.3725 c 1.26376,4.84875 5.16501,8.03 10.01626,8.03 6.11625,0 10.3325,-4.34125 10.3325,-10.4575"
   style="fill:#000000;fill-opacity:1;fill-rule:evenodd;stroke:none"
   id="path6628" /></svg>