<?xml version="1.0" encoding="UTF-8" standalone="no"?>
<!-- Generator: Adobe Illustrator 14.0.0, SVG Export Plug-In  -->

<svg
   xmlns:dc="http://purl.org/dc/elements/1.1/"
   xmlns:cc="http://creativecommons.org/ns#"
   xmlns:rdf="http://www.w3.org/1999/02/22-rdf-syntax-ns#"
   xmlns:svg="http://www.w3.org/2000/svg"
   xmlns="http://www.w3.org/2000/svg"
   xmlns:sodipodi="http://sodipodi.sourceforge.net/DTD/sodipodi-0.dtd"
   xmlns:inkscape="http://www.inkscape.org/namespaces/inkscape"
   version="1.1"
   x="0px"
   y="0px"
   width="303.06247"
   height="453.56247"
   viewBox="0 -0.321 303.06249 453.56249"
   enable-background="new 0 -0.321 144 120"
   xml:space="preserve"
   id="svg2"
   inkscape:version="0.48.2 r9819"
   sodipodi:docname="AJAX1.svg"><metadata
   id="metadata44"><rdf:RDF><cc:Work
       rdf:about=""><dc:format>image/svg+xml</dc:format><dc:type
         rdf:resource="http://purl.org/dc/dcmitype/StillImage" /><dc:title /></cc:Work></rdf:RDF></metadata><sodipodi:namedview
   pagecolor="#ffffff"
   bordercolor="#666666"
   borderopacity="1"
   objecttolerance="10"
   gridtolerance="10"
   guidetolerance="10"
   inkscape:pageopacity="0"
   inkscape:pageshadow="2"
   inkscape:window-width="1280"
   inkscape:window-height="1004"
   id="namedview42"
   showgrid="false"
   fit-margin-top="0"
   fit-margin-left="0"
   fit-margin-right="0"
   fit-margin-bottom="0"
   inkscape:zoom="0.67006655"
   inkscape:cx="620.52175"
   inkscape:cy="-92.972024"
   inkscape:window-x="-8"
   inkscape:window-y="-8"
   inkscape:window-maximized="1"
   inkscape:current-layer="svg2" />
<defs
   id="defs4">
</defs>


















<path
   inkscape:connector-curvature="0"
   d="m 19.815877,0.67032094 263.419623,0 c 10.3612,0 18.8157,8.45032996 18.8157,18.81568006 l 0,413.945179 c 0,10.35701 -8.4545,18.81569 -18.8157,18.81569 l -263.419623,0 c -10.365331,0 -18.815662,-8.45868 -18.815662,-18.81569 l 0,-413.945179 c 0,-10.3653501 8.450331,-18.81568006 18.815662,-18.81568006 z"
   style="fill:#ffffff;fill-opacity:1;fill-rule:nonzero;stroke:#000000;stroke-width:2.00000072;stroke-linecap:butt;stroke-linejoin:miter;stroke-miterlimit:3.16779995;stroke-opacity:1;stroke-dasharray:none"
   id="path6315" /><path
   inkscape:connector-curvature="0"
   d="m 19.878567,5.8968909 c 33.801372,0 67.602645,0 101.412433,0 48.3312,0 96.6583,0 144.9978,0 7.4134,0 18.9621,-2.04045 25.3176,2.90599 6.3848,4.9840601 5.2183,13.1166201 5.2183,20.2540401 0,39.97706 0,130.133479 0,170.118909 0,53.24423 0,106.49677 0,159.74526 0,18.53552 0,37.07524 0,55.6275 0,4.95899 0,9.9138 0,14.88114 0,2.4502 0.1799,5.00495 -0.435,7.38409 -2.5798,9.95139 -11.8831,10.20649 -20.2122,10.20649 -17.5906,0 -35.1895,0 -52.7801,0 -52.25741,0 -104.5149,0 -156.77229,0 -14.755711,0 -29.515512,0 -44.271233,0 -8.421031,0 -16.127072,-4.45723 -16.127072,-13.8651 0,-29.23958 0,-58.46659 0,-87.69361 0,-53.79204 0,-107.57983 0,-161.3634 0,-36.54425 0,-123.263679 0,-159.820469 0,-2.66764 -0.25524,-5.56944 0.42228,-8.17437 1.551251,-5.96666 7.087241,-10.1981001 13.229482,-10.2064701"
   style="fill:#000000;fill-opacity:1;fill-rule:evenodd;stroke:none"
   id="path6317" /><path
   inkscape:connector-curvature="0"
   d="m 19.970557,13.214141 c 33.897552,0 67.790815,0 101.680043,0 48.3145,0 96.6164,0 144.9225,0 4.9506,0 9.8887,0 14.8394,0 2.099,0 4.0683,0.0267 5.7911,1.43836 3.7631,3.10249 2.3038,10.63295 2.3038,14.81421 0,40.22795 0,130.631019 0,170.867339 0,53.23585 0,106.46753 0,159.71178 0,18.37666 0,36.76585 0,55.15083 0,4.84195 0,9.67549 0,14.50902 0,1.76449 0.2509,3.85513 -0.2887,5.56942 -1.8105,5.79942 -9.1276,4.42797 -13.7605,4.42797 -17.9167,0 -35.8418,0 -53.7669,0 -52.2657,0 -104.5232,0 -156.78901,0 -14.316681,0 -28.641642,0 -42.958323,0 -4.473941,0 -8.400121,-1.63485 -8.400121,-6.79456 0,-29.9713 0,-59.95929 0,-89.93058 0,-53.89237 0,-107.78051 0,-161.67281 0,-35.85017 0,-121.875469 0,-157.721439 0,-4.54086 0.25922,-10.45316 6.426621,-10.36954"
   style="fill:#ffffff;fill-opacity:1;fill-rule:evenodd;stroke:none"
   id="path6319" /><path
   inkscape:connector-curvature="0"
   d="m 57.05424,83.772981 0,-25.97402 -10.394611,25.97402 -10.390521,-25.97402 0,25.97402 -7.087181,0 0,-44.87333 7.087181,0 10.390521,25.19211 10.394611,-25.19211 7.083,0 0,44.87333 -7.083,0"
   style="fill:#000000;fill-opacity:1;fill-rule:nonzero;stroke:none"
   id="path6321" /><path
   inkscape:connector-curvature="0"
   d="m 74.837131,38.899651 7.241961,0 0,44.87333 -7.241961,0 0,-44.87333 z"
   style="fill:#000000;fill-opacity:1;fill-rule:nonzero;stroke:none"
   id="path6323" /><path
   inkscape:connector-curvature="0"
   d="m 117.0386,83.772981 -17.164107,-30.38525 0,30.38525 -7.087201,0 0,-44.87333 7.087201,0 16.382207,28.65838 0,-28.65838 7.0873,0 0,44.87333 -6.3054,0"
   style="fill:#000000;fill-opacity:1;fill-rule:nonzero;stroke:none"
   id="path6325" /><path
   inkscape:connector-curvature="0"
   d="m 134.0397,38.899651 7.242,0 0,44.87333 -7.242,0 0,-44.87333 z"
   style="fill:#000000;fill-opacity:1;fill-rule:nonzero;stroke:none"
   id="path6327" /><path
   inkscape:connector-curvature="0"
   d="m 179.86209,83.772981 0,-25.97402 -10.3904,25.97402 -10.39459,-25.97402 0,25.97402 -7.08311,0 0,-44.87333 7.08311,0 10.39459,25.19211 10.3904,-25.19211 7.08731,0 0,44.87333 -7.08731,0"
   style="fill:#000000;fill-opacity:1;fill-rule:nonzero;stroke:none"
   id="path6329" /><path
   inkscape:connector-curvature="0"
   d="m 226.1487,77.003511 c -2.3624,4.40705 -7.7103,7.55554 -13.2253,7.55554 -5.5068,0 -10.863,-3.14849 -13.2254,-7.55554 -1.2544,-2.67601 -2.0446,-5.8245 -2.0446,-9.28659 l 0,-28.81727 7.0873,0 0,28.81727 c 0,5.82032 3.2989,9.60018 8.1827,9.60018 4.8837,0 8.1911,-3.77986 8.1911,-9.60018 l 0,-28.81727 7.0831,0 0,28.81727 c 0,3.46209 -0.7861,6.61058 -2.0489,9.28659"
   style="fill:#000000;fill-opacity:1;fill-rule:nonzero;stroke:none"
   id="path6331" /><path
   inkscape:connector-curvature="0"
   d="m 266.778,83.772981 0,-25.97402 -10.403,25.97402 -10.382,-25.97402 0,25.97402 -7.0831,0 0,-44.87333 7.0831,0 10.382,25.19211 10.403,-25.19211 7.0831,0 0,44.87333 -7.0831,0"
   style="fill:#000000;fill-opacity:1;fill-rule:nonzero;stroke:none"
   id="path6333" /><path
   inkscape:connector-curvature="0"
   d="m 89.061822,148.41947 c -2.51718,2.20352 -5.98766,3.46627 -9.767411,3.46627 -7.7103,0 -13.384301,-4.57013 -16.373901,-11.33959 l 6.769451,-2.51713 c 1.89415,4.24817 5.36045,6.61477 9.60445,6.61477 4.093401,0 6.936681,-2.84326 6.936681,-6.61477 0,-5.98756 -6.936681,-6.92835 -12.761191,-9.29495 -2.67604,-1.10385 -8.655231,-3.77986 -8.655231,-11.1807 0,-8.8141 5.979191,-12.12148 14.011401,-12.12148 6.296931,0 10.553491,3.62098 12.752821,9.13188 l -6.29702,1.89412 c 0,0 -1.58041,-3.77986 -6.614761,-3.93875 -3.30315,-0.15889 -7.24187,1.09549 -6.92413,5.19313 0.61883,8.34998 21.730112,2.83072 21.730112,20.47564 0,4.08928 -1.580501,7.70607 -4.411271,10.23156"
   style="fill:#000000;fill-opacity:1;fill-rule:nonzero;stroke:none"
   id="path6335" /><path
   inkscape:connector-curvature="0"
   d="m 124.6402,129.99682 c -2.0405,0.94915 -4.7166,1.57216 -8.1911,1.57216 l -8.3416,0 0,19.52649 -7.0831,0 0,-44.87332 15.4247,0 c 3.6293,0 5.9917,0.30942 8.1911,1.40909 3.9345,1.8983 6.9283,6.61475 6.9283,11.18488 0,4.72482 -2.9938,9.44547 -6.9283,11.1807 z m -2.9896,-15.90971 c -1.2628,-0.63137 -2.0447,-0.77771 -4.2566,-0.77771 l -9.2865,0 0,11.01345 9.2865,0 c 2.2119,0 2.9938,-0.15454 4.2566,-0.78191 1.5679,-0.78606 2.6717,-2.83907 2.6717,-4.72482 0,-1.88575 -1.1038,-3.77986 -2.6717,-4.72901"
   style="fill:#000000;fill-opacity:1;fill-rule:nonzero;stroke:none"
   id="path6337" /><path
   inkscape:connector-curvature="0"
   d="m 138.179,151.09547 0,-44.87332 26.45079,0 0,7.08725 -19.36349,0 0,11.01345 13.0665,0 0,7.24613 -13.0665,0 0,12.28455 20.7851,0 0,7.24194 -27.8724,0"
   style="fill:#000000;fill-opacity:1;fill-rule:nonzero;stroke:none"
   id="path6339" /><path
   inkscape:connector-curvature="0"
   d="m 173.6111,151.09547 0,-44.87332 26.4465,0 0,7.08725 -19.36341,0 0,11.01345 13.06641,0 0,7.24613 -13.06641,0 0,12.28455 20.78511,0 0,7.24194 -27.8682,0"
   style="fill:#000000;fill-opacity:1;fill-rule:nonzero;stroke:none"
   id="path6341" /><path
   inkscape:connector-curvature="0"
   d="m 231.6972,148.57836 c -1.7268,1.57215 -4.0851,2.35822 -6.4558,2.51711 -0.46,0 -1.4091,0 -2.5129,0 l -13.6979,0 0,-44.87332 14.4839,0 c 4.5743,0 6.297,0.46413 8.6594,2.35824 4.7248,4.09764 7.4009,11.18488 7.4009,19.9948 0,8.98136 -2.8349,16.0686 -7.8776,20.00317 z m -2.9812,-33.38321 c -1.1039,-1.10804 -2.6802,-1.88575 -4.566,-1.88575 l -8.0363,0 0,30.54413 7.0872,0 c 2.3625,0 3.7798,-0.47248 5.0426,-1.73523 2.676,-2.68019 4.0893,-7.55554 4.0893,-13.54311 0,-5.9792 -1.4133,-11.02182 -3.6168,-13.38004"
   style="fill:#000000;fill-opacity:1;fill-rule:nonzero;stroke:none"
   id="path6343" /><path
   inkscape:connector-curvature="0"
   d="m 151.71379,165.87207 c 51.93131,0 94.28761,42.35619 94.28761,94.27913 0,51.9355 -42.3563,94.29175 -94.28761,94.29175 -51.935397,0 -94.29167,-42.35625 -94.29167,-94.29175 0,-51.92294 42.356273,-94.27913 94.29167,-94.27913"
   style="fill:#000000;fill-opacity:1;fill-rule:evenodd;stroke:none"
   id="path6345" /><path
   inkscape:connector-curvature="0"
   d="m 100.1212,414.01761 -9.290708,-18.10069 -4.02243,4.17709 0,13.9236 -7.120671,0 0,-41.46141 7.120671,-3.40357 0,21.97675 8.822431,-9.29494 8.968807,0 -8.504607,8.82245 12.062907,23.36072 -8.0364,0"
   style="fill:#000000;fill-opacity:1;fill-rule:nonzero;stroke:none"
   id="path6353" /><path
   inkscape:connector-curvature="0"
   d="m 149.94929,414.01761 0,-20.88961 c 0,-4.17288 -2.17419,-5.56108 -5.8872,-5.56108 -2.78459,0 -5.10119,1.85233 -5.10119,5.56108 l 0,20.88961 -7.42581,0 0,-20.88961 c 0,-4.17288 -2.16599,-5.56108 -6.03779,-5.56108 -2.7889,0.15065 -4.9547,1.85233 -4.9547,5.56108 l 0,20.88961 -7.2671,0 0,-32.18317 7.1123,0 0,1.40488 c 4.6371,-3.5624 11.91659,-2.94777 15.7843,1.54289 5.4189,-7.1207 20.739,-4.03491 20.739,7.41756 l 0,21.81784 -6.96181,0"
   style="fill:#000000;fill-opacity:1;fill-rule:nonzero;stroke:none"
   id="path6355" /><path
   inkscape:connector-curvature="0"
   d="m 215.8795,414.01761 0,-21.34535 c 0,-4.17289 -2.7805,-5.10534 -6.5019,-5.10534 -2.7805,0.15065 -5.4064,1.7018 -5.4064,5.41477 l 0,21.03592 -7.1248,0 0,-41.46141 6.966,-3.40357 0,13.76893 c 7.267,-4.64539 19.029,-0.92826 19.029,8.98137 l 0,22.11468 -6.9619,0"
   style="fill:#000000;fill-opacity:1;fill-rule:nonzero;stroke:none"
   id="path6357" /><path
   inkscape:connector-curvature="0"
   d="m 191.695,369.15263 -7.12471,0 -25.8863,44.84824 7.1207,0 25.89031,-44.84824"
   style="fill:#000000;fill-opacity:1;fill-rule:evenodd;stroke:none"
   id="path6359" /><path
   inkscape:connector-curvature="0"
   d="m 151.71379,174.84925 c 46.98491,0 85.30611,38.32547 85.30611,85.30195 0,46.98486 -38.3212,85.3104 -85.30611,85.3104 -46.98899,0 -85.31442,-38.32554 -85.31442,-85.3104 0,-46.97648 38.32543,-85.30195 85.31442,-85.30195"
   style="fill:#ffffff;fill-opacity:1;fill-rule:evenodd;stroke:none"
   id="path6347" /><path
   inkscape:connector-curvature="0"
   d="m 120.0533,297.99999 c -13.8567,0 -24.431107,-10.06847 -24.431107,-22.9217 0,-19.90699 11.076107,-40.30735 27.700907,-51.39188 l 5.7994,9.57928 c -8.8141,6.79455 -13.3508,12.59394 -17.6366,21.65893 4.0349,-0.75262 5.7952,-0.75262 8.5674,-0.75262 13.35079,0 24.43109,9.82177 24.43109,21.92236 0,12.33892 -10.5744,21.90563 -24.43109,21.90563 z m 0,-32.50095 c -7.0496,0 -12.849,4.78756 -12.849,10.3319 0,5.8078 5.7994,10.58696 12.849,10.58696 7.0538,0 13.0958,-4.77916 13.0958,-10.58696 0,-5.54434 -5.7911,-10.3319 -13.0958,-10.3319"
   style="fill:#000000;fill-opacity:1;fill-rule:nonzero;stroke:none"
   id="path6349" /><path
   inkscape:connector-curvature="0"
   d="m 201.6715,289.94688 c -4.0349,5.54436 -9.8301,8.05311 -17.38141,8.05311 -10.08519,0 -16.37799,-4.02654 -20.6596,-12.83647 -3.01889,-6.05029 -5.03429,-15.62955 -5.03429,-24.1886 0,-11.83717 3.01889,-22.42412 7.80649,-29.22703 4.2774,-5.54438 10.07261,-8.06148 18.3891,-8.06148 9.06921,0 15.36201,4.0349 19.89441,12.84901 3.0273,6.29699 4.7876,15.37451 4.7876,24.4395 0,11.33121 -2.768,22.67081 -7.8023,28.97196 z m -7.8105,-49.12566 c -2.2746,-3.77568 -5.0468,-5.29349 -9.32421,-5.54852 -5.5444,-0.24688 -9.06919,2.52545 -11.5863,8.81409 -1.76029,4.2858 -2.7722,10.83783 -2.7722,16.88813 0,7.55971 1.50941,15.36613 4.28161,19.89863 2.27039,3.77986 5.28929,5.54435 9.83019,5.54435 5.28931,0 8.55901,-2.77217 11.07611,-9.07754 1.5179,-3.77148 2.7723,-10.8211 2.7723,-16.36544 0,-8.06566 -1.5095,-15.37032 -4.2775,-20.1537"
   style="fill:#000000;fill-opacity:1;fill-rule:nonzero;stroke:none"
   id="path6351" /></svg>