<?xml version="1.0" encoding="utf-8"?>
<!-- Generator: Adobe Illustrator 27.7.0, SVG Export Plug-In . SVG Version: 6.00 Build 0)  -->
<svg version="1.1" id="For_Sheets" xmlns="http://www.w3.org/2000/svg" xmlns:xlink="http://www.w3.org/1999/xlink" x="0px" y="0px"
	 viewBox="0 0 173.3 130.1" style="enable-background:new 0 0 173.3 130.1;" xml:space="preserve">
<style type="text/css">
	.st0{fill:#FFFFFF;}
</style>
<g>
	<g>
		<path class="st0" d="M11.1,130c-6,0-10.9-4.9-10.9-10.9v-108C0.1,5,5,0.1,11.1,0.1h151.2c6,0,10.9,4.9,10.9,10.9v108
			c0,6-4.9,10.9-10.9,10.9H11.1z"/>
		<path d="M162.2,0.2c6,0,10.8,4.8,10.8,10.8v108c0,6-4.8,10.8-10.8,10.8H11c-6,0-10.8-4.8-10.8-10.8V11c0-6,4.8-10.8,10.8-10.8
			H162.2 M162.2,0H11C5,0,0,5,0,11v108c0,6.1,5,11.1,11,11.1h151.2c6.1,0,11-5,11-11.1V11C173.3,5,168.3,0,162.2,0L162.2,0z"/>
	</g>
	<path d="M11,127.2c-4.5,0-8.1-3.6-8.1-8.1v-108C2.9,6.6,6.6,3,11,3h151.2c4.5,0,8.1,3.6,8.1,8.1v108c0,4.5-3.6,8.1-8.1,8.1H11z
		 M162.2,122.7c2,0,3.6-1.6,3.6-3.6v-108c0-2-1.6-3.6-3.6-3.6H11c-2,0-3.6,1.6-3.6,3.6v108c0,2,1.6,3.6,3.6,3.6H162.2z"/>
	<g>
		<path d="M34.9,32.1V18.3h3.4v13.9c0,2.8,1.6,4.6,3.9,4.6c2.3,0,3.9-1.8,3.9-4.6V18.3h3.4v13.9c0,6.8-5.2,8.1-7.4,8.1
			C40.3,40.2,34.9,39.1,34.9,32.1z"/>
		<path d="M58.2,25.2v14.6h-3.4V18.3h3.4L66.1,32V18.3h3.4v21.6h-3L58.2,25.2z"/>
		<path d="M74.7,18.3h3.4v18.4h10v3.2H74.7V18.3z"/>
		<path d="M91.3,18.3H104v3.4h-9.3V27h6.3v3.5h-6.3v5.9h10v3.5H91.3V18.3z"/>
		<path d="M106.9,34.8l3.3-1.2c0.9,2,2.6,3.2,4.6,3.2c2,0,3.3-1.4,3.3-3.2c0-2.9-3.3-3.3-6.1-4.5c-1.3-0.5-4.2-1.8-4.2-5.4
			c0-4.2,2.9-5.8,6.7-5.8c3,0,5.1,1.7,6.1,4.4l-3,0.9c-0.3-0.9-1.6-1.9-3.2-1.9c-3.1,0-3.3,1.6-3.3,2.2c0,2,1.7,2.4,4.6,3.3
			c2.9,0.9,5.9,2.2,5.9,6.9c0,4.7-3.8,6.6-6.8,6.6C111,40.2,108.3,38,106.9,34.8z"/>
		<path d="M123.7,34.8l3.3-1.2c0.9,2,2.6,3.2,4.6,3.2c2,0,3.3-1.4,3.3-3.2c0-2.9-3.3-3.3-6.1-4.5c-1.3-0.5-4.2-1.8-4.2-5.4
			c0-4.2,2.9-5.8,6.7-5.8c3,0,5.1,1.7,6.1,4.4l-3,0.9c-0.3-0.9-1.6-1.9-3.2-1.9c-3.1,0-3.3,1.6-3.3,2.2c0,2,1.7,2.4,4.6,3.3
			c2.9,0.9,5.9,2.2,5.9,6.9c0,4.7-3.8,6.6-6.8,6.6C127.9,40.2,125.2,38,123.7,34.8z"/>
	</g>
	<g>
		<path d="M40.6,75.9h-3.4V57.3h-4.9v-3h13.4v3h-5V75.9z"/>
		<path d="M59.5,66.5h-7.9v9.4h-3.4V54.3h3.4V63h7.9v-8.7h3.4v21.6h-3.4V66.5z"/>
		<path d="M67,54.3h12.7v3.4h-9.3V63h6.3v3.5h-6.3v5.9h10v3.5H67V54.3z"/>
		<path d="M86.8,66.4v9.4h-3.4V54.3h7.8c5,0,6.4,4,6.4,6.1c0,0.8-0.3,4-3.4,5.4l3.8,10.1h-3.7l-3.5-9.4H86.8z M91.1,63
			c2.7,0,3.1-2,3.1-2.7c0-0.9-0.7-2.7-3-2.7h-4.5V63H91.1z"/>
		<path d="M112.5,75.9L109,62l-3.3,13.9h-3l-3.2-21.6h3.5l1.7,11.4l2.7-11.4h3.3l2.8,11.4l1.7-11.4h3.5l-3.2,21.6H112.5z"/>
		<path d="M121.3,54.3h3.5v21.6h-3.5V54.3z"/>
		<path d="M127.7,70.8l3.3-1.2c0.9,2,2.6,3.2,4.6,3.2c2,0,3.3-1.4,3.3-3.2c0-2.9-3.3-3.3-6.1-4.5c-1.3-0.5-4.2-1.8-4.2-5.4
			c0-4.2,2.9-5.8,6.7-5.8c3,0,5.1,1.7,6.1,4.4l-3,0.9c-0.3-0.9-1.6-1.9-3.2-1.9c-3.1,0-3.3,1.6-3.3,2.2c0,2,1.7,2.4,4.6,3.3
			c2.9,0.9,5.9,2.2,5.9,6.9c0,4.7-3.8,6.6-6.8,6.6C131.8,76.2,129.1,74,127.7,70.8z"/>
		<path d="M145.3,54.3H158v3.4h-9.3V63h6.3v3.5h-6.3v5.9h10v3.5h-13.4V54.3z"/>
		<path d="M29.9,65.1c0,0.8,0.2,11.2-7.7,11.2s-7.7-10.4-7.7-11.2c0-0.8-0.2-11.2,7.7-11.2S29.9,64.3,29.9,65.1z M22.3,72.7
			c2.3,0,4.2-2.2,4.2-7.7c0-5.5-1.9-7.7-4.2-7.7c-2.3,0-4.2,2.2-4.2,7.7C18.1,70.5,20,72.7,22.3,72.7z"/>
	</g>
	<g>
		<path d="M43.6,102.5h-4v9.4h-3.4V90.3h8.2c5.1,0,6.5,4.1,6.5,6.1C50.9,97.7,50.1,102.5,43.6,102.5z M39.6,99h4.8c2.7,0,3-2,3-2.7
			c0-1-0.8-2.7-2.9-2.7h-4.9V99z"/>
		<path d="M72.3,106.8l3.3-1.2c0.9,2,2.6,3.2,4.6,3.2c2,0,3.3-1.4,3.3-3.2c0-2.9-3.3-3.3-6.1-4.5c-1.3-0.5-4.2-1.8-4.2-5.4
			c0-4.2,2.9-5.8,6.7-5.8c3,0,5.1,1.7,6.1,4.4l-3,0.9c-0.3-0.9-1.6-1.9-3.2-1.9c-3.1,0-3.3,1.6-3.3,2.2c0,2,1.7,2.4,4.6,3.3
			c2.9,0.9,5.9,2.2,5.9,6.9c0,4.7-3.8,6.6-6.8,6.6C76.4,112.2,73.7,110,72.3,106.8z"/>
		<path d="M97.1,111.9h-3.4V93.3h-4.9v-3h13.4v3h-5V111.9z"/>
		<path d="M105.3,90.3h12.7v3.4h-9.3V99h6.3v3.5h-6.3v5.9h10v3.5h-13.4V90.3z"/>
		<path d="M122.4,111.9V90.3h7.8c5.5,0,6.9,7.2,6.9,10.3c0,8.1-4.2,11.3-6.9,11.3H122.4z M129.7,93.7h-3.9v14.7h3.6
			c3.1,0,4.2-3.8,4.2-7.9C133.6,98.6,133.1,93.7,129.7,93.7z"/>
		<path d="M69,101.1c0,0.8,0.2,11.2-7.7,11.2s-7.7-10.4-7.7-11.2c0-0.8-0.2-11.2,7.7-11.2S69,100.3,69,101.1z M61.4,108.7
			c2.3,0,4.2-2.2,4.2-7.7c0-5.5-1.9-7.7-4.2-7.7c-2.3,0-4.2,2.2-4.2,7.7C57.2,106.5,59.1,108.7,61.4,108.7z"/>
	</g>
</g>
</svg>
