<?xml version="1.0" encoding="UTF-8" standalone="no"?>
<!-- Created with Inkscape (http://www.inkscape.org/) -->

<svg
   xmlns:ns="http://ns.adobe.com/SaveForWeb/1.0/"
   xmlns:dc="http://purl.org/dc/elements/1.1/"
   xmlns:cc="http://creativecommons.org/ns#"
   xmlns:rdf="http://www.w3.org/1999/02/22-rdf-syntax-ns#"
   xmlns:svg="http://www.w3.org/2000/svg"
   xmlns="http://www.w3.org/2000/svg"
   xmlns:sodipodi="http://sodipodi.sourceforge.net/DTD/sodipodi-0.dtd"
   xmlns:inkscape="http://www.inkscape.org/namespaces/inkscape"
   version="1.1"
   width="2170"
   height="550"
   viewBox="0 0 2170 550"
   id="svg2"
   xml:space="preserve"
   inkscape:version="0.48.2 r9819"
   sodipodi:docname="AJAX2.svg"><sodipodi:namedview
   pagecolor="#ffffff"
   bordercolor="#666666"
   borderopacity="1"
   objecttolerance="10"
   gridtolerance="10"
   guidetolerance="10"
   inkscape:pageopacity="0"
   inkscape:pageshadow="2"
   inkscape:window-width="1280"
   inkscape:window-height="1004"
   id="namedview9"
   showgrid="false"
   fit-margin-top="0"
   fit-margin-left="0"
   fit-margin-right="0"
   fit-margin-bottom="0"
   inkscape:zoom="0.25284425"
   inkscape:cx="1317.563"
   inkscape:cy="52.159526"
   inkscape:window-x="-8"
   inkscape:window-y="-8"
   inkscape:window-maximized="1"
   inkscape:current-layer="svg2" /><defs
   id="defs11" />
<metadata
   id="metadata3">
	<ns:sfw>
		<ns:slices />
		<ns:sliceSourceBounds
   bottomLeftOrigin="true"
   x="-75"
   y="93"
   width="745"
   height="655" />
	</ns:sfw>
	<rdf:RDF>
		<cc:Work
   rdf:about="">
			<dc:format>image/svg+xml</dc:format>
			<dc:type
   rdf:resource="http://purl.org/dc/dcmitype/StillImage" />
			<dc:title></dc:title>
		</cc:Work>
	</rdf:RDF>
	<ns:sfw>
		<ns:slices />
		<ns:sliceSourceBounds
   bottomLeftOrigin="true"
   x="-75"
   y="93"
   width="745"
   height="655" />
	</ns:sfw>
</metadata>




<path
   inkscape:connector-curvature="0"
   style="fill:#ffffff;fill-rule:nonzero;stroke:#000000;stroke-width:10;stroke-linecap:butt;stroke-linejoin:miter;stroke-miterlimit:4;stroke-opacity:1;stroke-dasharray:none"
   d="m 2165,455 c 0,49.70625 -40.3,90 -90,90 L 95,545 C 45.29425,545 5,504.70625 5,455 L 5,95 C 5,45.29425 45.29425,5 95,5 l 1980,0 c 49.7,0 90,40.29425 90,90 l 0,360 z"
   id="path11" /><path
   inkscape:connector-curvature="0"
   style="fill:#000000;fill-rule:nonzero;stroke:none"
   d="M 95,511.25 C 63.983125,511.25 38.75,486.01625 38.75,455 l 0,-360 C 38.75,63.983125 63.983125,38.75 95,38.75 l 1980,0 c 31.0125,0 56.25,25.233125 56.25,56.25 l 0,360 c 0,31.01625 -25.2375,56.25 -56.25,56.25 l -1980,0 z"
   id="path13" /><path
   inkscape:connector-curvature="0"
   style="fill:#ffffff;fill-rule:nonzero;stroke:none"
   d="M 95,477.5 C 82.59275,477.5 72.5,467.40625 72.5,455 l 0,-360 C 72.5,82.59275 82.59275,72.5 95,72.5 l 1980,0 c 12.4,0 22.5,10.09275 22.5,22.5 l 0,360 c 0,12.40625 -10.1,22.5 -22.5,22.5 l -1980,0 z"
   id="path15" /><path
   inkscape:connector-curvature="0"
   style="fill:#000000;fill-rule:nonzero;stroke:none"
   d="m 1741.7,220.52625 -18.9875,77.68375 38.9375,0 -19.95,-77.68375 z M 1790.15,410 l -19,-73.895 -57.9375,0 -18.05,73.895 -38.9375,0 67.4375,-270 37.9875,0 67.4375,270 -38.9375,0 z"
   id="path17" /><path
   inkscape:connector-curvature="0"
   style="fill:#000000;fill-rule:nonzero;stroke:none"
   d="m 932.93375,205.3675 c -6.6175,-18.94625 -17.9625,-27.47375 -34.98125,-27.47375 l -32.145,0 0,194.2125 32.145,0 c 22.69125,0 34.98125,-18.00125 38.76375,-38.84375 1.89,-17.0525 3.78125,-35.99875 3.78125,-56.84125 0,-30.31625 -2.83625,-59.68375 -7.56375,-71.05375 z m 6.6175,192.31625 C 930.0975,406.21125 916.8625,410 901.73625,410 l -74.69,0 0,-270 69.01625,0 c 22.69,0 34.035,2.84125 43.48875,10.42125 16.0725,11.3675 27.4175,32.20875 32.145,59.68375 3.7825,19.895 6.6175,43.57875 6.6175,64.42125 0,62.5275 -12.29125,102.31625 -38.7625,123.1575 z"
   id="path19" /><path
   inkscape:connector-curvature="0"
   style="fill:#000000;fill-rule:nonzero;stroke:none"
   d="m 362.5125,410 0,-270 127.31375,0 0,37.89375 -88.36125,0 0,68.21125 56.05875,0 0,36.9475 -56.05875,0 0,89.05375 98.81375,0 0,37.89375 -137.76625,0 z"
   id="path21" /><path
   inkscape:connector-curvature="0"
   style="fill:#000000;fill-rule:nonzero;stroke:none"
   d="m 1032.3175,410 0,-270 127.3138,0 0,37.89375 -88.3613,0 0,68.21125 56.0575,0 0,36.9475 -56.0575,0 0,89.05375 98.8125,0 0,37.89375 -137.765,0 z"
   id="path23" /><path
   inkscape:connector-curvature="0"
   style="fill:#000000;fill-rule:nonzero;stroke:none"
   d="m 729.84625,410 0,-270 37.8,0 0,270 -37.8,0 z"
   id="path25" /><path
   inkscape:connector-curvature="0"
   style="fill:#000000;fill-rule:nonzero;stroke:none"
   d="m 1580.625,410 0,-270 37.8,0 0,270 -37.8,0 z"
   id="path27" /><path
   inkscape:connector-curvature="0"
   style="fill:#000000;fill-rule:nonzero;stroke:none"
   d="m 1866.8875,410 0,-270 38.95,0 0,234 98.825,0 0,36 -137.775,0 z"
   id="path29" /><path
   inkscape:connector-curvature="0"
   style="fill:#000000;fill-rule:nonzero;stroke:none"
   d="m 1337.9375,410 -83.1875,-180.9475 0,180.9475 -38.765,0 0,-270 38.765,0 73.7375,162.00125 0,-162.00125 38.7625,0 0,270 -29.3125,0 z"
   id="path31" /><path
   inkscape:connector-curvature="0"
   style="fill:#000000;fill-rule:nonzero;stroke:none"
   d="m 243.81375,177.89375 -39.70875,0 0,68.21125 39.70875,0 c 22.69,0 34.98,-12.31625 34.98,-34.105 0,-20.8425 -14.1825,-34.10625 -34.98,-34.10625 z M 276.9025,410 240.97625,283.05125 l -36.87125,0 0,126.94875 -38.7625,0 0,-270 80.36125,0 c 42.545,0 70.90625,28.42 70.90625,72 0,32.20875 -13.23625,55.89375 -38.7625,65.36875 L 316.61,410 l -39.7075,0 z"
   id="path33" /><path
   inkscape:connector-curvature="0"
   style="fill:#000000;fill-rule:nonzero;stroke:none"
   d="m 609.56,285.31 c -11.68125,-7.56875 -23.02375,-15.16125 -30.2625,-20.2575 -21.77,-15.3225 -33.3,-36 -33.3,-59.685 0,-38.84125 30.44375,-70.105 69.45,-70.105 38.055,0 67.5475,29.36875 68.49875,70.105 l -37.1025,0 C 645.8925,186.42125 632.5725,174.105 615.4475,174.105 c -18.07625,0 -32.3475,13.26375 -32.3475,31.2625 0,13.26375 5.71,20.84375 25.6875,32.21125 52.32625,30.315 75.15875,59.685 75.15875,98.52625 0,43.57875 -33.2975,78.6325 -75.15875,78.6325 -47.5675,0 -76.10875,-39.79125 -76.10875,-84.31625 l 38.055,0 c 0,22.735 11.41625,46.42125 38.05375,46.42125 20.93,0 38.05625,-18.94875 38.05625,-40.7375 0,-16.91875 -6.9925,-31.16875 -37.28375,-50.795 z"
   id="path35" /><path
   inkscape:connector-curvature="0"
   style="fill:#000000;fill-rule:nonzero;stroke:none"
   d="m 1493.4125,176 0,234 -38.95,0 0,-234 -49.4125,0 0,-36 137.775,0 0,36 -49.4125,0 z"
   id="path37" /></svg>