<?xml version="1.0" encoding="UTF-8" standalone="no"?>
<!-- Created with Inkscape (http://www.inkscape.org/) -->

<svg
   xmlns:ns="http://ns.adobe.com/SaveForWeb/1.0/"
   xmlns:dc="http://purl.org/dc/elements/1.1/"
   xmlns:cc="http://creativecommons.org/ns#"
   xmlns:rdf="http://www.w3.org/1999/02/22-rdf-syntax-ns#"
   xmlns:svg="http://www.w3.org/2000/svg"
   xmlns="http://www.w3.org/2000/svg"
   xmlns:sodipodi="http://sodipodi.sourceforge.net/DTD/sodipodi-0.dtd"
   xmlns:inkscape="http://www.inkscape.org/namespaces/inkscape"
   version="1.1"
   width="2170"
   height="550"
   viewBox="0 0 2170 550"
   id="svg2"
   xml:space="preserve"
   inkscape:version="0.48.2 r9819"
   sodipodi:docname="AJAX1.svg"><sodipodi:namedview
   pagecolor="#ffffff"
   bordercolor="#666666"
   borderopacity="1"
   objecttolerance="10"
   gridtolerance="10"
   guidetolerance="10"
   inkscape:pageopacity="0"
   inkscape:pageshadow="2"
   inkscape:window-width="1280"
   inkscape:window-height="1004"
   id="namedview9"
   showgrid="false"
   fit-margin-top="0"
   fit-margin-left="0"
   fit-margin-right="0"
   fit-margin-bottom="0"
   inkscape:zoom="0.25284425"
   inkscape:cx="448.53835"
   inkscape:cy="42.784526"
   inkscape:window-x="-8"
   inkscape:window-y="-8"
   inkscape:window-maximized="1"
   inkscape:current-layer="svg2" /><defs
   id="defs11" />
<metadata
   id="metadata3">
	<ns:sfw>
		<ns:slices />
		<ns:sliceSourceBounds
   bottomLeftOrigin="true"
   x="-75"
   y="93"
   width="745"
   height="655" />
	</ns:sfw>
	<rdf:RDF>
		<cc:Work
   rdf:about="">
			<dc:format>image/svg+xml</dc:format>
			<dc:type
   rdf:resource="http://purl.org/dc/dcmitype/StillImage" />
			<dc:title />
		</cc:Work>
	</rdf:RDF>
	<ns:sfw>
		<ns:slices />
		<ns:sliceSourceBounds
   bottomLeftOrigin="true"
   x="-75"
   y="93"
   width="745"
   height="655" />
	</ns:sfw>
</metadata>




<path
   inkscape:connector-curvature="0"
   style="fill:#ffffff;fill-rule:nonzero;stroke:#000000;stroke-width:10;stroke-linecap:butt;stroke-linejoin:miter;stroke-miterlimit:4;stroke-opacity:1;stroke-dasharray:none"
   d="m 2165,455.01025 c 0,49.70625 -40.3,90 -90,90 l -1980,0 c -49.70575,0 -90,-40.29375 -90,-90 L 5,95.010249 C 5,45.304499 45.29425,5.0102487 95,5.0102487 l 1980,0 c 49.7,0 90,40.2942503 90,90.0000003 l 0,360.000001 z"
   id="path11" /><path
   inkscape:connector-curvature="0"
   style="fill:#000000;fill-rule:nonzero;stroke:none"
   d="m 95,511.26025 c -31.016875,0 -56.25,-25.23375 -56.25,-56.25 l 0,-360.000001 c 0,-31.01687 25.233125,-56.25 56.25,-56.25 l 1980,0 c 31.0125,0 56.25,25.23313 56.25,56.25 l 0,360.000001 c 0,31.01625 -25.2375,56.25 -56.25,56.25 l -1980,0 z"
   id="path13" /><path
   inkscape:connector-curvature="0"
   style="fill:#ffffff;fill-rule:nonzero;stroke:none"
   d="m 95,477.51025 c -12.40725,0 -22.5,-10.09375 -22.5,-22.5 l 0,-360.000001 c 0,-12.40725 10.09275,-22.5 22.5,-22.5 l 1980,0 c 12.4,0 22.5,10.09275 22.5,22.5 l 0,360.000001 c 0,12.40625 -10.1,22.5 -22.5,22.5 l -1980,0 z"
   id="path15" /><path
   inkscape:connector-curvature="0"
   style="fill:#000000;fill-rule:nonzero;stroke:none"
   d="m 504.2975,410.01025 0,-270 43.2,0 0,270 -43.2,0 z"
   id="path17" /><path
   inkscape:connector-curvature="0"
   style="fill:#000000;fill-rule:nonzero;stroke:none"
   d="m 1357.8375,410.01025 0,-270 43.2,0 0,270 -43.2,0 z"
   id="path19" /><path
   inkscape:connector-curvature="0"
   style="fill:#000000;fill-rule:nonzero;stroke:none"
   d="m 712.91125,177.90525 0,232.105 -42.815,0 0,-232.105 -61.85125,0 0,-37.895 167.4675,0 0,37.895 -62.80125,0 z"
   id="path21" /><path
   inkscape:connector-curvature="0"
   style="fill:#000000;fill-rule:nonzero;stroke:none"
   d="m 1257.1751,410.01025 -38.0151,0 -42.7662,-173.36875 -41.8163,173.36875 -38.0125,0 -39.9137,-270 43.715,0 20.9062,142.105 34.2113,-142.105 41.8162,0 35.1613,142.105 20.91,-142.105 43.7163,0 -39.9125,270 z"
   id="path23" /><path
   inkscape:connector-curvature="0"
   style="fill:#000000;fill-rule:nonzero;stroke:none"
   d="m 938.08125,292.5365 0,117.47375 -42.84875,0 0,-117.47375 -95.21875,-152.52625 51.41875,0 64.75,104.20875 65.69875,-104.20875 50.46745,0 -94.26745,152.52625 z"
   id="path25" /><path
   inkscape:connector-curvature="0"
   style="fill:#000000;fill-rule:nonzero;stroke:none"
   d="m 1616.6625,194.009 c -6.625,-6.63125 -16.1,-11.36875 -27.475,-11.36875 l -48.3125,0 0,183.79125 42.625,0 c 14.2125,0 22.7375,-2.8425 30.325,-10.42 16.1,-16.10625 24.625,-45.47625 24.625,-81.4775 0,-35.99875 -8.525,-66.31375 -21.7875,-80.525 z m 18,200.845 c -10.425,9.4725 -24.625,14.21 -38.8375,15.15625 -2.85,0 -8.5375,0 -15.1625,0 l -82.425,0 0,-270 87.1625,0 c 27.475,0 37.9,2.84125 52.1125,14.21 28.425,24.63125 44.525,67.26375 44.525,120.31375 0,54.00125 -17.05,96.635 -47.375,120.32 z"
   id="path27" /><path
   inkscape:connector-curvature="0"
   style="fill:#000000;fill-rule:nonzero;stroke:none"
   d="m 1771.1375,410.01025 0,-270 158.95,0 0,42.63125 -116.375,0 0,66.31625 78.5375,0 0,43.57875 -78.5375,0 0,73.895 124.8875,0 0,43.57875 -167.4625,0 z"
   id="path29" /><path
   inkscape:connector-curvature="0"
   style="fill:#000000;fill-rule:nonzero;stroke:none"
   d="m 333.7175,414.74775 c -39.7925,0 -65.3725,-15.15875 -82.42625,-48.31625 -12.31625,-23.68375 -19.89625,-57.79 -19.89625,-91.895 0,-42.63125 11.36875,-85.26375 30.3175,-108.9475 16.10625,-19.895 38.845,-30.31625 69.1625,-30.31625 40.74,0 66.32125,17.055 84.3225,54.94875 L 375.405,207.274 c -15.16,-22.7375 -23.68625,-28.4225 -44.53,-28.4225 -21.79,0 -36.0025,9.47375 -45.47625,33.16 -6.63125,16.10375 -10.4225,39.78875 -10.4225,62.525 0,29.3675 6.6325,58.7375 17.055,75.79 9.47375,14.21 21.79,20.8425 40.73875,20.8425 18.00125,0 31.26625,-9.47375 41.6875,-31.26375 l 40.74,15.15875 c -16.10625,39.79 -42.635,59.68375 -81.48,59.68375 z"
   id="path31" /></svg>