<?xml version="1.0" encoding="UTF-8" standalone="no"?>
<!-- Created with Inkscape (http://www.inkscape.org/) -->

<svg
   xmlns:ns="http://ns.adobe.com/SaveForWeb/1.0/"
   xmlns:dc="http://purl.org/dc/elements/1.1/"
   xmlns:cc="http://creativecommons.org/ns#"
   xmlns:rdf="http://www.w3.org/1999/02/22-rdf-syntax-ns#"
   xmlns:svg="http://www.w3.org/2000/svg"
   xmlns="http://www.w3.org/2000/svg"
   xmlns:sodipodi="http://sodipodi.sourceforge.net/DTD/sodipodi-0.dtd"
   xmlns:inkscape="http://www.inkscape.org/namespaces/inkscape"
   version="1.1"
   width="2170"
   height="550"
   viewBox="0 0 2170 550"
   id="svg2"
   xml:space="preserve"
   inkscape:version="0.48.2 r9819"
   sodipodi:docname="AJAX1.svg"><sodipodi:namedview
   pagecolor="#ffffff"
   bordercolor="#666666"
   borderopacity="1"
   objecttolerance="10"
   gridtolerance="10"
   guidetolerance="10"
   inkscape:pageopacity="0"
   inkscape:pageshadow="2"
   inkscape:window-width="1280"
   inkscape:window-height="1004"
   id="namedview9"
   showgrid="false"
   fit-margin-top="0"
   fit-margin-left="0"
   fit-margin-right="0"
   fit-margin-bottom="0"
   inkscape:zoom="0.25284425"
   inkscape:cx="1312.8755"
   inkscape:cy="47.472026"
   inkscape:window-x="-8"
   inkscape:window-y="-8"
   inkscape:window-maximized="1"
   inkscape:current-layer="svg2" /><defs
   id="defs11" />
<metadata
   id="metadata3">
	<ns:sfw>
		<ns:slices />
		<ns:sliceSourceBounds
   bottomLeftOrigin="true"
   x="-75"
   y="93"
   width="745"
   height="655" />
	</ns:sfw>
	<rdf:RDF>
		<cc:Work
   rdf:about="">
			<dc:format>image/svg+xml</dc:format>
			<dc:type
   rdf:resource="http://purl.org/dc/dcmitype/StillImage" />
			<dc:title></dc:title>
		</cc:Work>
	</rdf:RDF>
	<ns:sfw>
		<ns:slices />
		<ns:sliceSourceBounds
   bottomLeftOrigin="true"
   x="-75"
   y="93"
   width="745"
   height="655" />
	</ns:sfw>
</metadata>




<path
   inkscape:connector-curvature="0"
   style="fill:#ffffff;fill-rule:nonzero;stroke:#000000;stroke-width:10;stroke-linecap:butt;stroke-linejoin:miter;stroke-miterlimit:4;stroke-opacity:1;stroke-dasharray:none"
   d="m 2165,455 c 0,49.70625 -40.3,90 -90,90 L 95,545 C 45.29425,545 5,504.70625 5,455 L 5,95 C 5,45.29425 45.29425,5 95,5 l 1980,0 c 49.7,0 90,40.29425 90,90 l 0,360 z"
   id="path11" /><path
   inkscape:connector-curvature="0"
   style="fill:#000000;fill-rule:nonzero;stroke:none"
   d="M 95,511.25 C 63.983125,511.25 38.75,486.01625 38.75,455 l 0,-360 C 38.75,63.983125 63.983125,38.75 95,38.75 l 1980,0 c 31.0125,0 56.25,25.233125 56.25,56.25 l 0,360 c 0,31.01625 -25.2375,56.25 -56.25,56.25 l -1980,0 z"
   id="path13" /><path
   inkscape:connector-curvature="0"
   style="fill:#ffffff;fill-rule:nonzero;stroke:none"
   d="M 95,477.5 C 82.59275,477.5 72.5,467.40625 72.5,455 l 0,-360 C 72.5,82.59275 82.59275,72.5 95,72.5 l 1980,0 c 12.4,0 22.5,10.09275 22.5,22.5 l 0,360 c 0,12.40625 -10.1,22.5 -22.5,22.5 l -1980,0 z"
   id="path15" /><path
   inkscape:connector-curvature="0"
   style="fill:#000000;fill-rule:nonzero;stroke:none"
   d="m 963.49875,284.4725 -25.50125,0 0,90 26.445,0 c 16.055,0 20.7775,-8.525 20.7775,-35.99875 0,-42.63125 -4.7225,-54.00125 -21.72125,-54.00125 z m -5.66625,-109.89375 -19.835,0 0,73.89375 23.61125,0 c 15.1125,0 18.88875,-8.525 18.88875,-36.94625 0,-26.52625 -5.66625,-36.9475 -22.665,-36.9475 z m 62.3325,161.0525 c 0,48.31625 -17.945,73.895 -51.945,73.895 l -64.22375,0 0,-270 49.1125,0 c 47.22375,0 62.33375,18 62.33375,72 0,26.525 -3.7775,40.7375 -13.2225,54.9475 12.3775,13.605 17.945,37.375 17.945,69.1575 z"
   id="path17" /><path
   inkscape:connector-curvature="0"
   style="fill:#000000;fill-rule:nonzero;stroke:none"
   d="M 1979.1,213.42125 C 1976.2625,184.0525 1970.6,174.58 1956.425,174.58 l -21.7125,0 0,199.89375 21.7125,0 c 12.275,0 18.8875,-8.52625 22.675,-28.42125 0.9375,-9.4725 2.825,-39.78875 2.825,-63.47375 0,-19.895 -1.8875,-50.21 -2.825,-69.1575 z m 32.1,-8.52625 c 3.1,21.875 5.675,46.42125 5.675,69.15875 0,63.4725 -8.5,104.21 -24.5625,122.21 -7.55,8.52625 -20.775,13.2625 -35.8875,13.2625 l -55.725,0 0,-270 55.725,0 c 18.8875,0 32.1125,6.63125 40.6125,19.895 6.6125,10.42125 11.7625,28.48625 14.1625,45.47375 z"
   id="path19" /><path
   inkscape:connector-curvature="0"
   style="fill:#000000;fill-rule:nonzero;stroke:none"
   d="m 328.69375,409.52625 0,-270 98.89875,0 0,35.05375 -64.99,0 0,69.1575 43.32625,0 0,35.99875 -43.32625,0 0,94.73625 68.75875,0 0,35.05375 -102.6675,0 z"
   id="path21" /><path
   inkscape:connector-curvature="0"
   style="fill:#000000;fill-rule:nonzero;stroke:none"
   d="m 673.32,383 c -6.21,18.7925 -23.80375,31.26375 -48.56125,31.26375 -27.61375,0 -43.80125,-10.42125 -52.37125,-36 -8.56875,-24.63125 -11.425,-49.26375 -11.425,-104.21 0,-54.00125 2.85625,-77.685 12.3775,-103.265 8.56875,-24.63125 24.75875,-35.0525 51.41875,-35.0525 30.47125,0 48.56125,18.94875 52.37,52.105 l -34.27875,0 c -1.9025,-11.3675 -7.615,-17.0525 -17.14,-17.0525 -12.3775,0 -20.94625,8.5275 -23.80375,26.5275 -3.8075,21.78875 -5.71375,39.79 -5.71375,76.7375 0,36.9475 1.90625,54.94625 4.76125,77.685 3.81,17.9975 10.475,27.4725 22.85375,27.4725 12.3775,0 19.0425,-11.37 19.0425,-29.36875 l 0,-36 -16.1875,0 0,-35.05375 50.46625,0 0,69.1575 c 0,12.3175 -1.07375,26.7825 -3.80875,35.05375 z"
   id="path23" /><path
   inkscape:connector-curvature="0"
   style="fill:#000000;fill-rule:nonzero;stroke:none"
   d="m 810.59875,409.52625 0,-126 -48.17,0 0,126 -34,0 0,-270 34,0 0,108.9475 48.17,0 0,-108.9475 33.99875,0 0,270 -33.99875,0 z"
   id="path25" /><path
   inkscape:connector-curvature="0"
   style="fill:#000000;fill-rule:nonzero;stroke:none"
   d="m 1472.3625,409.52625 0,-126 -48.1625,0 0,126 -34,0 0,-270 34,0 0,108.9475 48.1625,0 0,-108.9475 34.0125,0 0,270 -34.0125,0 z"
   id="path27" /><path
   inkscape:connector-curvature="0"
   style="fill:#000000;fill-rule:nonzero;stroke:none"
   d="m 474.56,409.52625 0,-270 35.10125,0 0,270 -35.10125,0 z"
   id="path29" /><path
   inkscape:connector-curvature="0"
   style="fill:#000000;fill-rule:nonzero;stroke:none"
   d="m 240.015,409.52625 -52.88875,-160.105 0,160.105 -34.00125,0 0,-270 34.00125,0 48.16625,134.52625 0,-134.52625 34.00125,0 0,270 -29.27875,0 z"
   id="path31" /><path
   inkscape:connector-curvature="0"
   style="fill:#000000;fill-rule:nonzero;stroke:none"
   d="m 1117.42,170.78875 c -31.265,0 -27.0075,84.31625 -27.0075,103.26375 0,18.00125 -4.2575,105.15875 27.0075,105.15875 30.315,0 26.0563,-87.1575 26.0563,-105.15875 0,-21.78875 -0.4788,-103.26375 -26.0563,-103.26375 z m 0,243.47375 c -67.2675,0 -62.0613,-95.68375 -62.0613,-140.21 0,-46.42125 -4.2587,-138.31625 62.0613,-138.31625 66.3175,0 62.0575,92.8425 62.0575,138.31625 0,44.52625 4.26,140.21 -62.0575,140.21 z"
   id="path33" /><path
   inkscape:connector-curvature="0"
   style="fill:#000000;fill-rule:nonzero;stroke:none"
   d="m 1619.825,170.78875 c -31.2625,0 -27.0125,84.31625 -27.0125,103.26375 0,18.00125 -4.25,105.15875 27.0125,105.15875 30.3125,0 26.0625,-87.1575 26.0625,-105.15875 0,-21.78875 -0.4875,-103.26375 -26.0625,-103.26375 z m 0,243.47375 c -67.275,0 -62.0625,-95.68375 -62.0625,-140.21 0,-46.42125 -4.2625,-138.31625 62.0625,-138.31625 66.3125,0 62.05,92.8425 62.05,138.31625 0,44.52625 4.2625,140.21 -62.05,140.21 z"
   id="path35" /><path
   inkscape:connector-curvature="0"
   style="fill:#000000;fill-rule:nonzero;stroke:none"
   d="m 1787.2875,170.78875 c -31.2625,0 -27,84.31625 -27,103.26375 0,18.00125 -4.2625,105.15875 27,105.15875 30.325,0 26.0625,-87.1575 26.0625,-105.15875 0,-21.78875 -0.4875,-103.26375 -26.0625,-103.26375 z m 0,243.47375 c -67.2625,0 -62.05,-95.68375 -62.05,-140.21 0,-46.42125 -4.2625,-138.31625 62.05,-138.31625 66.325,0 62.0625,92.8425 62.0625,138.31625 0,44.52625 4.2625,140.21 -62.0625,140.21 z"
   id="path37" /><path
   inkscape:connector-curvature="0"
   style="fill:#000000;fill-rule:nonzero;stroke:none"
   d="m 1281.575,174.58 -16.6,0 0,73.89375 22.2875,0 c 18.9625,0 24.65,-8.525 24.65,-34.105 0,-30.315 -6.6375,-39.78875 -30.3375,-39.78875 z m 36.975,100.42 27.5,134.52875 -35.0875,0 -30.3375,-126.00125 -15.65,0 0,126.00125 -34.1425,0 0,-270.0025 52.63,0 c 41.725,0 63.5375,25.58 63.5375,75.79125 0,30.315 -8.5375,47.3675 -28.45,59.6825 z"
   id="path39" /></svg>