<?xml version="1.0" encoding="utf-8"?>
<!-- Generator: Adobe Illustrator 27.7.0, SVG Export Plug-In . SVG Version: 6.00 Build 0)  -->
<svg version="1.1" id="For_Sheets" xmlns="http://www.w3.org/2000/svg" xmlns:xlink="http://www.w3.org/1999/xlink" x="0px" y="0px"
	 viewBox="0 0 173.3 130.1" style="enable-background:new 0 0 173.3 130.1;" xml:space="preserve">
<style type="text/css">
	.st0{fill:#FFFFFF;}
</style>
<g>
	<g>
		<path class="st0" d="M11.1,130c-6,0-10.9-4.9-10.9-10.9v-108C0.1,5,5,0.1,11.1,0.1h151.2c6,0,10.9,4.9,10.9,10.9v108
			c0,6-4.9,10.9-10.9,10.9H11.1z"/>
		<path d="M162.2,0.2c6,0,10.8,4.8,10.8,10.8v108c0,6-4.8,10.8-10.8,10.8H11c-6,0-10.8-4.8-10.8-10.8V11c0-6,4.8-10.8,10.8-10.8
			H162.2 M162.2,0H11C5,0,0,5,0,11v108c0,6.1,5,11.1,11,11.1h151.2c6.1,0,11-5,11-11.1V11C173.3,5,168.3,0,162.2,0L162.2,0z"/>
	</g>
	<path d="M162.2,3H11c-4.5,0-8.1,3.6-8.1,8.1v108c0,4.5,3.6,8.1,8.1,8.1h151.2c4.5,0,8.1-3.6,8.1-8.1v-108
		C170.3,6.6,166.7,3,162.2,3z M165.8,119.1c0,2-1.6,3.6-3.6,3.6H11c-2,0-3.6-1.6-3.6-3.6v-108c0-2,1.6-3.6,3.6-3.6h151.2
		c2,0,3.6,1.6,3.6,3.6V119.1z"/>
	<g>
		<path d="M52.2,87.5h8.4v4.6h-8.4v12.5h-4.5V75.9h17.9v4.5H52.2V87.5z"/>
		<path d="M69.8,75.9h4.6v28.8h-4.6V75.9z"/>
		<path d="M85.9,85.1v19.5h-4.5V75.9h4.5l10.5,18.4V75.9h4.6v28.8h-4L85.9,85.1z"/>
		<path d="M107.8,75.9h17v4.5h-12.4v7.1h8.4v4.6h-8.4v7.9h13.3v4.6h-17.9V75.9z"/>
	</g>
	<g>
		<path d="M52.8,25v-3.7h2.3V25c3.3,0.4,5.6,2.6,6.9,5.8l-4,1.2c0,0-0.7-1.7-2.8-2.3v7c3.8,1.2,8.1,2.8,8.1,9.2c0,2.6-1,5-2.8,6.6
			c-1.4,1.2-3.2,2-5.3,2.2v3.7h-2.3v-3.8c-4.3-0.5-7.5-3.3-9.2-7.2l4.3-1.6c1,2.3,2.7,3.7,4.9,4.1v-9.2c-3.9-1.3-8-3-8-8.1
			C44.8,27.5,48.1,25.2,52.8,25z M49.2,32.6c0,1.5,1,2.6,3.6,3.5v-6.5C51.1,29.7,49.2,30.3,49.2,32.6z M55.1,41.6V50
			c2.1-0.4,3.4-2,3.4-4.1C58.5,43.7,57,42.5,55.1,41.6z"/>
		<path d="M73,30.9h-2.6v-3.6h0.3c1.2,0,2.5-0.7,3.3-1.8h3.6v28.8H73V30.9z"/>
		<path d="M83.9,53.1l2.2-4c1.2,0.6,3.3,1,5.5,1c4.1,0,7.4-2.7,7.4-6.5c0-2.8-2.3-5.1-5.2-5.1c-2,0-2.9,0.6-4.6,3l-4.5-1.3l0.7-14.9
			h16.6V30H89.8l-0.3,4.7c2.1-0.6,3-0.8,4.4-0.8c5.3,0,9.6,4.4,9.6,9.7c0,6.4-5.2,11.1-12.5,11.1C88.5,54.8,85.9,54.1,83.9,53.1z"/>
		<path d="M129.7,39.8c0,1,0.2,14.9-10.2,14.9s-10.2-13.9-10.2-14.9c0-1-0.2-14.9,10.2-14.9S129.7,38.8,129.7,39.8z M119.6,50.1
			c3.1,0,5.6-2.9,5.6-10.3c0-7.3-2.5-10.3-5.6-10.3c-3.1,0-5.6,2.9-5.6,10.3C113.9,47.2,116.5,50.1,119.6,50.1z"/>
	</g>
</g>
</svg>
