<?xml version="1.0" encoding="UTF-8" standalone="no"?>
<!-- Generator: Adobe Illustrator 12.0.1, SVG Export Plug-In  -->

<svg
   xmlns:dc="http://purl.org/dc/elements/1.1/"
   xmlns:cc="http://creativecommons.org/ns#"
   xmlns:rdf="http://www.w3.org/1999/02/22-rdf-syntax-ns#"
   xmlns:svg="http://www.w3.org/2000/svg"
   xmlns="http://www.w3.org/2000/svg"
   xmlns:sodipodi="http://sodipodi.sourceforge.net/DTD/sodipodi-0.dtd"
   xmlns:inkscape="http://www.inkscape.org/namespaces/inkscape"
   version="1.1"
   width="284.75"
   height="284.75"
   viewBox="-0.999 0 284.75 284.75"
   enable-background="new -0.999 0 289 289"
   xml:space="preserve"
   id="svg2"
   inkscape:version="0.48.2 r9819"
   sodipodi:docname="AJAX1.svg"><metadata
   id="metadata18"><rdf:RDF><cc:Work
       rdf:about=""><dc:format>image/svg+xml</dc:format><dc:type
         rdf:resource="http://purl.org/dc/dcmitype/StillImage" /><dc:title /></cc:Work></rdf:RDF></metadata><sodipodi:namedview
   pagecolor="#ffffff"
   bordercolor="#666666"
   borderopacity="1"
   objecttolerance="10"
   gridtolerance="10"
   guidetolerance="10"
   inkscape:pageopacity="0"
   inkscape:pageshadow="2"
   inkscape:window-width="1280"
   inkscape:window-height="1004"
   id="namedview16"
   showgrid="false"
   fit-margin-top="0"
   fit-margin-left="0"
   fit-margin-right="0"
   fit-margin-bottom="0"
   inkscape:zoom="1.8901802"
   inkscape:cx="168.41809"
   inkscape:cy="131.54264"
   inkscape:window-x="-8"
   inkscape:window-y="-8"
   inkscape:window-maximized="1"
   inkscape:current-layer="svg2"
   showguides="true"
   inkscape:guide-bbox="true" />
<defs
   id="defs4">
</defs>





<path
   inkscape:connector-curvature="0"
   d="m 283.01387,266.30488 c 0,9.7375 -7.96625,17.70375 -17.70375,17.70375 l -247.85,0 c -9.7375,0 -17.703745,-7.96625 -17.703745,-17.70375 l 0,-247.85 c 0,-9.7375 7.966245,-17.70375 17.703745,-17.70375 l 247.85,0 c 9.7375,0 17.70375,7.96625 17.70375,17.70375 l 0,247.85 z"
   style="fill:#ffffff;fill-opacity:1;fill-rule:nonzero;stroke:#000000;stroke-width:1.5;stroke-miterlimit:4;stroke-opacity:1;stroke-dasharray:none"
   id="path3861" /><path
   inkscape:connector-curvature="0"
   d="m 265.31025,5.17675 -247.85,0 c -7.3025,0 -13.2775,5.975 -13.2775,13.2775 l 0,247.85 c 0,7.30375 5.975,13.27875 13.2775,13.27875 l 247.85,0 c 7.3025,0 13.2775,-5.975 13.2775,-13.27875 l 0,-247.85 c 0,-7.3025 -5.975,-13.2775 -13.2775,-13.2775 m 5.90125,261.1275 c 0,3.24625 -2.655,5.90125 -5.90125,5.90125 l -247.85,0 c -3.24625,0 -5.90125,-2.655 -5.90125,-5.90125 l 0,-247.85 c 0,-3.245 2.655,-5.90125 5.90125,-5.90125 l 247.85,0 c 3.24625,0 5.90125,2.65625 5.90125,5.90125 l 0,247.85 z"
   style="fill:#000000;fill-opacity:1;fill-rule:nonzero;stroke:none"
   id="path3869" /><path
   inkscape:connector-curvature="0"
   d="m 66.40475,84.94425 0,11.54125 13.70875,0 0,7.62375 -13.70875,0 0,20.56375 -7.48375,0 0,-47.2125 29.30625,0 0,7.48375 -21.8225,0 z"
   style="fill:#000000;fill-opacity:1;fill-rule:nonzero;stroke:none"
   id="path3873" /><path
   inkscape:connector-curvature="0"
   d="m 95.291,77.46 7.62375,0 0,47.2125 -7.62375,0 0,-47.2125 z"
   style="fill:#000000;fill-opacity:1;fill-rule:nonzero;stroke:none"
   id="path3875" /><path
   inkscape:connector-curvature="0"
   d="m 139.77636,124.67311 -18.04625,-31.965 0,31.965 -7.48375,0 0,-47.2125 7.48375,0 17.20625,30.14625 0,-30.14625 7.415,0 0,47.2125 -6.575,0 z"
   style="fill:#000000;fill-opacity:1;fill-rule:nonzero;stroke:none"
   id="path3879" /><path
   inkscape:connector-curvature="0"
   d="m 157.68175,124.67311 0,-47.2125 27.8375,0 0,7.48375 -20.35375,0 0,11.54125 13.71,0 0,7.62375 -13.71,0 0,12.94 21.8225,0 0,7.62375 -29.30625,0 z"
   style="fill:#000000;fill-opacity:1;fill-rule:nonzero;stroke:none"
   id="path3883" /><path
   inkscape:connector-curvature="0"
   d="m 208.95138,125.5125 c -8.11375,0 -14.05875,-4.82625 -17.20625,-11.96 l 7.13375,-2.65875 c 1.95875,4.47625 5.59625,6.995 10.0725,6.995 4.33625,0 7.27375,-3.0075 7.27375,-6.995 0,-6.295 -7.27375,-7.27375 -13.42875,-9.7225 -2.7975,-1.18875 -9.0925,-3.98625 -9.0925,-11.75 0,-9.3025 6.295,-12.8 14.7575,-12.8 6.645,0 11.12125,3.84625 13.43,9.6525 l -6.645,1.9575 c -0.7,-2.0975 -3.7075,-4.12625 -7.06375,-4.12625 -3.5675,0 -7.485,1.11875 -7.205,5.45625 0.7,8.7425 22.8725,3.0075 22.8725,21.5425 0,8.60375 -6.435,14.40875 -14.89875,14.40875"
   style="fill:#000000;fill-opacity:1;fill-rule:nonzero;stroke:none"
   id="path3887" /><path
   inkscape:connector-curvature="0"
   d="m 57.66164,207.299 0,-20.56375 -17.20625,0 0,20.56375 -7.485,0 0,-47.2125 7.485,0 0,19.025 17.20625,0 0,-19.025 7.41375,0 0,47.2125 -7.41375,0 z"
   style="fill:#000000;fill-opacity:1;fill-rule:nonzero;stroke:none"
   id="path3891" /><path
   inkscape:connector-curvature="0"
   d="m 76.406,160.08625 7.62375,0 0,47.2125 -7.62375,0 0,-47.2125 z"
   style="fill:#000000;fill-opacity:1;fill-rule:nonzero;stroke:none"
   id="path3893" /><path
   inkscape:connector-curvature="0"
   d="m 111.65836,208.13837 c -7.13375,0 -11.26125,-2.6575 -14.12875,-8.60375 -1.95875,-4.19625 -3.1475,-9.93125 -3.1475,-15.7375 0,-7.62375 2.09875,-15.1775 5.31625,-19.235 2.7975,-3.49625 6.78375,-5.315 12.1,-5.315 7.27375,0 11.61125,3.0075 14.75875,10.42125 l -7.135,2.8675 c -1.95875,-4.19625 -3.98625,-5.665 -7.62375,-5.665 -3.7775,0 -6.295,1.67875 -7.97375,5.805 -1.11875,2.7975 -1.81875,7.135 -1.81875,11.12125 0,4.96625 0.77,9.9325 2.37875,12.87 1.39875,2.7275 3.63625,3.8475 6.435,3.8475 4.82625,0 8.2525,-3.0075 8.2525,-7.275 l 0,-2.02875 -8.6025,0 0,-7.41375 16.0875,0 0,9.4425 c 0,8.60375 -6.295,14.89875 -14.89875,14.89875"
   style="fill:#000000;fill-opacity:1;fill-rule:nonzero;stroke:none"
   id="path3897" /><path
   inkscape:connector-curvature="0"
   d="m 161.59912,207.299 0,-20.56375 -17.20625,0 0,20.56375 -7.485,0 0,-47.2125 7.485,0 0,19.025 17.20625,0 0,-19.025 7.41375,0 0,47.2125 -7.41375,0 z"
   style="fill:#000000;fill-opacity:1;fill-rule:nonzero;stroke:none"
   id="path3901" /><path
   inkscape:connector-curvature="0"
   d="m 180.34387,207.299 0,-47.2125 27.83875,0 0,7.48375 -20.355,0 0,11.54125 13.71,0 0,7.62375 -13.71,0 0,12.94 21.8225,0 0,7.62375 -29.30625,0 z"
   style="fill:#000000;fill-opacity:1;fill-rule:nonzero;stroke:none"
   id="path3905" /><path
   inkscape:connector-curvature="0"
   d="m 241.68575,207.299 -7.62375,-20.56375 -8.88375,0 0,20.56375 -7.48375,0 0,-47.2125 17.13625,0 c 10.84125,0 13.99,8.6725 13.99,13.21875 0,5.03625 -2.93875,10.0025 -7.275,11.96125 l 8.25375,22.0325 -8.11375,0 z m -6.575,-39.72875 -9.9325,0 0,11.54125 9.8625,0 c 3.6375,0 6.365,-2.58875 6.365,-5.80625 0,-3.0775 -2.6575,-5.735 -6.295,-5.735"
   style="fill:#000000;fill-opacity:1;fill-rule:nonzero;stroke:none"
   id="path3909" /></svg>