<?xml version="1.0" encoding="UTF-8" standalone="no"?>
<!-- Created with Inkscape (http://www.inkscape.org/) -->

<svg
   xmlns:ns="http://ns.adobe.com/SaveForWeb/1.0/"
   xmlns:dc="http://purl.org/dc/elements/1.1/"
   xmlns:cc="http://creativecommons.org/ns#"
   xmlns:rdf="http://www.w3.org/1999/02/22-rdf-syntax-ns#"
   xmlns:svg="http://www.w3.org/2000/svg"
   xmlns="http://www.w3.org/2000/svg"
   xmlns:sodipodi="http://sodipodi.sourceforge.net/DTD/sodipodi-0.dtd"
   xmlns:inkscape="http://www.inkscape.org/namespaces/inkscape"
   version="1.1"
   width="2170"
   height="1630"
   viewBox="0 0 2170 1630"
   id="svg2"
   xml:space="preserve"
   inkscape:version="0.48.2 r9819"
   sodipodi:docname="AJAX5.svg"><sodipodi:namedview
   pagecolor="#ffffff"
   bordercolor="#666666"
   borderopacity="1"
   objecttolerance="10"
   gridtolerance="10"
   guidetolerance="10"
   inkscape:pageopacity="0"
   inkscape:pageshadow="2"
   inkscape:window-width="1280"
   inkscape:window-height="1004"
   id="namedview9"
   showgrid="false"
   fit-margin-top="0"
   fit-margin-left="0"
   fit-margin-right="0"
   fit-margin-bottom="0"
   inkscape:zoom="0.25284425"
   inkscape:cx="1995.017"
   inkscape:cy="790.8361"
   inkscape:window-x="-8"
   inkscape:window-y="-8"
   inkscape:window-maximized="1"
   inkscape:current-layer="svg2" /><defs
   id="defs11" />
<metadata
   id="metadata3">
	<ns:sfw>
		<ns:slices />
		<ns:sliceSourceBounds
   bottomLeftOrigin="true"
   x="-75"
   y="93"
   width="745"
   height="655" />
	</ns:sfw>
	<rdf:RDF>
		<cc:Work
   rdf:about="">
			<dc:format>image/svg+xml</dc:format>
			<dc:type
   rdf:resource="http://purl.org/dc/dcmitype/StillImage" />
			<dc:title></dc:title>
		</cc:Work>
	</rdf:RDF>
	<ns:sfw>
		<ns:slices />
		<ns:sliceSourceBounds
   bottomLeftOrigin="true"
   x="-75"
   y="93"
   width="745"
   height="655" />
	</ns:sfw>
</metadata>




<path
   inkscape:connector-curvature="0"
   style="fill:#ffffff;fill-rule:nonzero;stroke:#000000;stroke-width:10;stroke-linecap:butt;stroke-linejoin:miter;stroke-miterlimit:4;stroke-opacity:1;stroke-dasharray:none"
   d="m 2165,1490 c 0,74.5625 -60.4375,135 -135,135 l -1890,0 C 65.440625,1625 5,1564.5625 5,1490 L 5,140 C 5,65.440625 65.440625,5 140,5 l 1890,0 c 74.5625,0 135,60.440625 135,135 l 0,1350 z"
   id="path11" /><path
   inkscape:connector-curvature="0"
   style="fill:#000000;fill-rule:nonzero;stroke:none"
   d="M 140,1591.25 C 84.169875,1591.25 38.75,1545.825 38.75,1490 l 0,-1350 C 38.75,84.169875 84.169875,38.75 140,38.75 l 1890,0 c 55.825,0 101.25,45.419875 101.25,101.25 l 0,1350 c 0,55.825 -45.425,101.25 -101.25,101.25 l -1890,0 z"
   id="path13" /><path
   inkscape:connector-curvature="0"
   style="fill:#ffffff;fill-rule:nonzero;stroke:none"
   d="m 140,1535 c -24.81325,0 -45,-20.1875 -45,-45 L 95,140 c 0,-24.81325 20.18675,-45 45,-45 l 1890,0 c 24.8125,0 45,20.18675 45,45 l 0,1350 c 0,24.8125 -20.1875,45 -45,45 l -1890,0 z"
   id="path15" /><path
   inkscape:connector-curvature="0"
   style="fill:#000000;fill-rule:nonzero;stroke:none"
   d="m 1072.2713,680.0013 -137.69505,-243.79 0,243.79 -56.845,0 0,-360.00125 56.845,0 131.37755,229.89625 0,-229.89625 56.845,0 0,360.00125 -50.5275,0 z"
   id="path17" /><path
   inkscape:connector-curvature="0"
   style="fill:#000000;fill-rule:nonzero;stroke:none"
   d="m 733.73,680.0013 0,-360.00125 57.6,0 0,360.00125 -57.6,0 z"
   id="path19" /><path
   inkscape:connector-curvature="0"
   style="fill:#000000;fill-rule:nonzero;stroke:none"
   d="m 1678.1875,658.0863 c -20.2125,17.68375 -48,27.78875 -78.3125,27.78875 -61.9,0 -107.375,-36.63 -131.3875,-90.9475 l 54.325,-20.21 c 15.1625,34.105 42.9501,53.0525 77.0625,53.0525 32.8376,0 55.5751,-22.7375 55.5751,-53.0525 0,-48 -55.5751,-55.57625 -102.3251,-74.52625 -21.4749,-8.8425 -69.4749,-30.315 -69.4749,-89.685 0,-70.73625 48,-97.2625 112.425,-97.2625 50.5374,0 84.6375,29.0525 102.325,73.26375 l -50.5251,15.15625 c 0,0 -12.6375,-30.315 -53.0625,-31.5775 -26.525,-1.2625 -58.1124,8.84125 -55.575,41.685 5.05,66.94625 174.325,22.73625 174.325,164.20875 0,32.8425 -12.6375,61.895 -35.375,82.10625 z"
   id="path21" /><path
   inkscape:connector-curvature="0"
   style="fill:#000000;fill-rule:nonzero;stroke:none"
   d="m 1209.2,680.0013 0,-360.00125 211.9376,0 0,56.8425 -155.175,0 0,88.42125 104.7125,0 0,58.10625 -104.7125,0 0,98.52625 166.525,0 0,58.105 -223.2876,0 z"
   id="path23" /><path
   inkscape:connector-curvature="0"
   style="fill:#000000;fill-rule:nonzero;stroke:none"
   d="m 513.20875,376.84255 0,88.42125 104.705,0 0,58.10625 -104.705,0 0,156.63125 -56.77,0 0,-360.00125 223.29125,0 0,56.8425 -166.52125,0 z"
   id="path25" /><path
   inkscape:connector-curvature="0"
   style="fill:#000000;fill-rule:nonzero;stroke:none"
   d="m 589.685,1310.0001 0,-360.00005 57.6,0 0,360.00005 -57.6,0 z"
   id="path27" /><path
   inkscape:connector-curvature="0"
   style="fill:#000000;fill-rule:nonzero;stroke:none"
   d="m 1824.6126,1013.1588 c -8.8375,-5.0538 -13.8875,-6.315 -32.8375,-6.315 l -68.2126,0 0,88.42 68.2126,0 c 17.6875,0 24,-1.2625 32.8375,-6.3137 13.9,-7.5801 22.75,-22.7388 22.75,-37.895 0,-15.1588 -8.85,-30.3176 -22.75,-37.8963 z m 25.275,296.8412 -58.1125,-156.6337 -68.2125,0 0,156.6337 -56.85,0 0,-359.99995 118.75,0 c 27.7875,0 46.7375,2.52625 64.425,11.37 31.575,15.15875 54.3125,53.05125 54.3125,89.68505 0,37.895 -22.7375,75.7887 -55.575,90.9475 l 63.1625,167.9974 -61.9,0 z"
   id="path29" /><path
   inkscape:connector-curvature="0"
   style="fill:#000000;fill-rule:nonzero;stroke:none"
   d="m 446.44125,1310.0001 0,-156.6325 -131.38,0 0,156.6324 -56.845,0 0,-359.99995 56.845,0 0,145.26255 131.38,0 0,-145.26255 56.845,0 0,359.99995 -56.845,0 z"
   id="path31" /><path
   inkscape:connector-curvature="0"
   style="fill:#000000;fill-rule:nonzero;stroke:none"
   d="m 1238.98,1310.0001 0,-156.6325 -131.38,0 0,156.6324 -56.845,0 0,-359.99995 56.845,0 0,145.26255 131.38,0 0,-145.26255 56.8451,0 0,359.99995 -56.8451,0 z"
   id="path33" /><path
   inkscape:connector-curvature="0"
   style="fill:#000000;fill-rule:nonzero;stroke:none"
   d="m 1382.2251,1310.0001 0,-360.00005 211.9375,0 0,56.84245 -155.175,0 0,88.4213 104.7124,0 0,58.105 -104.7124,0 0,98.5275 166.5249,0 0,58.1038 -223.2874,0 z"
   id="path35" /><path
   inkscape:connector-curvature="0"
   style="fill:#000000;fill-rule:nonzero;stroke:none"
   d="m 857.8625,1316.3126 c -54.32,0 -85.90125,-20.2125 -107.37625,-65.68 -15.15875,-31.5788 -24.00125,-75.79 -24.00125,-120 0,-58.1063 16.42125,-114.9488 40.4225,-146.52755 21.4775,-26.52625 51.79375,-40.42125 92.21875,-40.42125 55.58375,0 88.4275,22.74 112.4275,79.58 l -54.31875,21.4738 c -15.15875,-31.58 -30.3175,-42.9475 -58.10875,-42.9475 -29.055,0 -48.005,12.6312 -60.63625,44.2112 -8.84375,21.4725 -13.8975,54.3163 -13.8975,84.6313 0,37.895 6.31625,75.7912 17.68625,98.5262 11.36875,20.21 27.7925,29.0538 49.2675,29.0538 36.6325,0 63.16375,-22.7375 63.16375,-55.58 l 0,-15.1588 -65.69125,0 0,-56.8412 122.535,0 0,72 c 0,65.68 -48.00125,113.68 -113.69125,113.68 z"
   id="path37" /></svg>