<svg xmlns="http://www.w3.org/2000/svg" version="1.0" width="77.016" height="66.029">
    <path d="M.003 61.611 0 4.418A4.427 4.427 0 0 1 4.416 0L72.6.005a4.426 4.426 0 0 1 4.416 4.415v57.19c0 2.431-1.987 4.419-4.416 4.416l-68.181.003A4.432 4.432 0 0 1 .003 61.61" style="fill:#dd7500;fill-opacity:1;fill-rule:nonzero;stroke:none"/>
    <path d="M1.15 61.375 1.15 4.65A3.516 3.516 0 0 1 4.65 1.147l67.713.005a3.511 3.511 0 0 1 3.503 3.502l.003 56.72a3.519 3.519 0 0 1-3.506 3.505H4.654a3.512 3.512 0 0 1-3.503-3.504" style="fill:#000;fill-opacity:1;fill-rule:evenodd;stroke:none"/>
    <path d="M2.918 61.362 2.916 4.666a1.754 1.754 0 0 1 1.75-1.751l67.686.002c.964 0 1.75.79 1.75 1.752v56.694c0 .962-.788 1.753-1.75 1.75H4.67c-.962 0-1.75-.788-1.75-1.75" style="fill:#dd7500;fill-opacity:1;fill-rule:evenodd;stroke:none"/>
    <g style="fill:#000;stroke:none">
        <path d="M0 0c-.073.503-.27.738-.614.738-.594 0-.808-.469-.808-1.801 0-1.476.252-2.07.88-2.07.434 0 .542.359.542.738h.738C.72-3.241.179-3.854-.542-3.854c-1.097 0-1.583.883-1.583 2.773 0 1.657.521 2.54 1.531 2.54.414 0 .773-.18 1.008-.524C.611.683.683.468.738 0H0z" style="fill:#000;fill-opacity:1;fill-rule:nonzero;stroke:none" transform="matrix(1.25 0 0 -1.25 19.386 51.04)"/>
    </g>
    <g style="fill:#000;stroke:none">
        <path d="M0 0v5.133h2.412v-.721H.738V3.115H1.8v-.701H.738V.721h1.873V0H0z" style="fill:#000;fill-opacity:1;fill-rule:nonzero;stroke:none" transform="matrix(1.25 0 0 -1.25 21.568 55.745)"/>
    </g>
    <g style="fill:#000;stroke:none">
        <path d="M0 0v5.133h.738V.685h1.873V0H0z" style="fill:#000;fill-opacity:1;fill-rule:nonzero;stroke:none" transform="matrix(1.25 0 0 -1.25 25.89 55.745)"/>
    </g>
    <g style="fill:#000;stroke:none">
        <path d="M0 0v5.133h.738V.685h1.873V0H0z" style="fill:#000;fill-opacity:1;fill-rule:nonzero;stroke:none" transform="matrix(1.25 0 0 -1.25 30.03 55.745)"/>
    </g>
    <g style="fill:#000;stroke:none">
        <path d="M0 0c0 .866-.541 1.442-1.35 1.442h-1.531v-5.133h.738v2.252h.793C-.487-1.439 0-.935 0 0m-.721 0c0-.468-.235-.738-.666-.738h-.756V.721h.756c.396 0 .666-.289.666-.721" style="fill:#000;fill-opacity:1;fill-rule:nonzero;stroke:none" transform="matrix(1.25 0 0 -1.25 40.946 51.131)"/>
    </g>
    <g style="fill:#000;stroke:none">
        <path d="M0 0v2.324h-1.405V0h-.738v5.133h.738v-2.09H0v2.09h.738V0H0z" style="fill:#000;fill-opacity:1;fill-rule:nonzero;stroke:none" transform="matrix(1.25 0 0 -1.25 44.478 55.745)"/>
    </g>
    <g style="fill:#000;stroke:none">
        <path d="M0 0c0 .774-.073 1.26-.289 1.764-.252.631-.612.883-1.206.883-.595 0-.955-.252-1.224-.866C-2.936 1.295-3.008.774-3.008 0c0-.793.072-1.279.289-1.783.252-.611.611-.883 1.224-.883.577 0 .954.272 1.206.883C-.073-1.297 0-.793 0 0m-.703 0c0-.596-.036-.9-.163-1.314-.125-.434-.324-.631-.629-.631-.324 0-.523.197-.648.631a4.509 4.509 0 0 0-.162 1.295c0 .576.035.919.162 1.314.125.434.324.631.648.631.305 0 .504-.197.629-.649C-.756.9-.703.576-.703 0" style="fill:#000;fill-opacity:1;fill-rule:nonzero;stroke:none" transform="matrix(1.25 0 0 -1.25 50.42 52.525)"/>
    </g>
    <g style="fill:#000;stroke:none">
        <path d="m0 0-1.584 3.439V0h-.739v5.133h.739l1.404-3.08v3.08h.738V0H0z" style="fill:#000;fill-opacity:1;fill-rule:nonzero;stroke:none" transform="matrix(1.25 0 0 -1.25 54.583 55.745)"/>
    </g>
    <g style="fill:#000;stroke:none">
        <path d="M0 0v5.133h2.412v-.721H.738V3.115h1.063v-.701H.738V.721h1.873V0H0z" style="fill:#000;fill-opacity:1;fill-rule:nonzero;stroke:none" transform="matrix(1.25 0 0 -1.25 56.653 55.745)"/>
    </g>
    <g style="fill:#000;stroke:none">
        <path d="M0 0c.037.703.089.955.252 1.404.216.541.486.956.828 1.28.127.107.234.197.648.486.342.234.432.359.432.611a.722.722 0 0 1-.719.721.723.723 0 0 1-.721-.721H0c.017.811.63 1.442 1.441 1.442a1.43 1.43 0 0 0 1.422-1.442c0-.414-.145-.738-.432-1.007a.957.957 0 0 1-.162-.127l-.182-.125-.179-.127-.197-.143c-.325-.234-.667-.703-.811-1.135C.845.99.828.901.793.721h2.07V0H0z" style="fill:#000;fill-opacity:1;fill-rule:nonzero;stroke:none" transform="matrix(1.25 0 0 -1.25 15.997 34.351)"/>
    </g>
    <path d="M20.159 30.862h2.25v.854h-2.25v-.854z" style="fill:#000;fill-opacity:1;fill-rule:nonzero;stroke:none"/>
    <g style="fill:#000;stroke:none">
        <path d="M0 0h-.629l-.486 2.684L-1.601 0h-.649l-.81 5.133h.72l.432-2.738.504 2.738h.576l.486-2.738.452 2.738h.718L0 0z" style="fill:#000;fill-opacity:1;fill-rule:nonzero;stroke:none" transform="matrix(1.25 0 0 -1.25 26.64 34.351)"/>
    </g>
    <g style="fill:#000;stroke:none">
        <path d="m0 0-.361-1.477h.738L0 0zm.918-3.602L.557-2.198H-.541l-.342-1.404h-.738l1.277 5.133h.721l1.279-5.133H.918z" style="fill:#000;fill-opacity:1;fill-rule:nonzero;stroke:none" transform="matrix(1.25 0 0 -1.25 30.086 29.849)"/>
    </g>
    <g style="fill:#000;stroke:none">
        <path d="M0 0v-2.324h-.738V0l-1.26 2.809h.773L-.361.953l.847 1.856h.791L0 0z" style="fill:#000;fill-opacity:1;fill-rule:nonzero;stroke:none" transform="matrix(1.25 0 0 -1.25 34.566 31.446)"/>
    </g>
    <g style="fill:#000;stroke:none">
        <path d="m0 0-.738 2.522c.486.179.738.63.738 1.242 0 .828-.541 1.369-1.352 1.369h-1.529V0h.738v2.414h.702L-.756 0H0zm-.721 3.764c0-.414-.234-.649-.666-.649h-.756v1.297h.756c.397 0 .666-.252.666-.648" style="fill:#000;fill-opacity:1;fill-rule:nonzero;stroke:none" transform="matrix(1.25 0 0 -1.25 43.838 34.351)"/>
    </g>
    <g style="fill:#000;stroke:none">
        <path d="m0 0-1.277 5.133h-.721L-3.277 0h.738l.342 1.404h1.099L-.738 0H0zm-1.277 2.125h-.738l.359 1.477.379-1.477z" style="fill:#000;fill-opacity:1;fill-rule:nonzero;stroke:none" transform="matrix(1.25 0 0 -1.25 48.518 34.351)"/>
    </g>
    <g style="fill:#000;stroke:none">
        <path d="M0 0c0 .395-.053.846-.125 1.223-.09.523-.306.92-.613 1.135-.18.144-.395.199-.828.199h-1.315v-5.133h1.424c.287 0 .539.072.719.235C-.232-1.945 0-1.189 0 0m-.719-.037c0-.396-.037-.756-.072-1.08-.072-.396-.306-.738-.738-.738h-.613v3.691h.613c.324 0 .539-.162.666-.521.09-.217.144-.776.144-1.352" style="fill:#000;fill-opacity:1;fill-rule:nonzero;stroke:none" transform="matrix(1.25 0 0 -1.25 52.996 31.131)"/>
    </g>
    <path d="M54.258 27.934h.899v6.417h-.9v-6.417z" style="fill:#000;fill-opacity:1;fill-rule:nonzero;stroke:none"/>
    <g style="fill:#000;stroke:none">
        <path d="M0 0c0 .774-.07 1.26-.287 1.764-.252.631-.613.883-1.207.883-.593 0-.953-.252-1.224-.865C-2.933 1.295-3.005.774-3.005 0c0-.793.072-1.279.287-1.783.252-.611.613-.883 1.224-.883.577 0 .955.272 1.207.883C-.07-1.297 0-.793 0 0m-.701 0c0-.595-.037-.9-.162-1.314-.127-.434-.324-.631-.631-.631-.324 0-.521.197-.648.631a4.544 4.544 0 0 0-.162 1.295c0 .576.037.92.162 1.314.127.434.324.631.648.631.307 0 .504-.197.631-.648C-.755.901-.701.576-.701 0" style="fill:#000;fill-opacity:1;fill-rule:nonzero;stroke:none" transform="matrix(1.25 0 0 -1.25 60.22 31.131)"/>
    </g>
    <g style="fill:#000;stroke:none">
        <path d="m0 0-1.278 5.131h-.72L-3.276 0h.739l.341 1.405h1.098L-.739 0H0zm-1.278 2.125h-.738l.359 1.477.379-1.477z" style="fill:#000;fill-opacity:1;fill-rule:nonzero;stroke:none" transform="matrix(1.25 0 0 -1.25 35.467 45.047)"/>
    </g>
    <g style="fill:#000;stroke:none">
        <path d="m0 0-1.586 3.44V0h-.737v5.131h.737L-.18 2.053v3.078h.738V0H0z" style="fill:#000;fill-opacity:1;fill-rule:nonzero;stroke:none" transform="matrix(1.25 0 0 -1.25 39.227 45.047)"/>
    </g>
    <g style="fill:#000;stroke:none">
        <path d="M0 0c0 .396-.055.845-.127 1.224-.09.522-.307.918-.612 1.135-.181.143-.396.197-.828.197h-1.314v-5.131h1.422c.287 0 .539.073.72.235C-.235-1.944 0-1.188 0 0m-.721-.035c0-.397-.037-.756-.072-1.081-.073-.396-.307-.738-.739-.738h-.611v3.69h.611c.325 0 .541-.162.666-.522.09-.217.145-.773.145-1.349" style="fill:#000;fill-opacity:1;fill-rule:nonzero;stroke:none" transform="matrix(1.25 0 0 -1.25 44.898 41.829)"/>
    </g>
    <g style="fill:#000;stroke:none">
        <path d="M0 0v-7.416h-1.23V0h-1.563v1.14h4.356V0H0z" style="fill:#000;fill-opacity:1;fill-rule:nonzero;stroke:none" transform="matrix(1.25 0 0 -1.25 13.196 11.831)"/>
    </g>
    <g style="fill:#000;stroke:none">
        <path d="M0 0c-.42-.692-1.23-1.202-2.041-1.202-.842 0-1.682.481-2.101 1.202-.241.449-.331.81-.331 1.5v6.005h1.231V1.349c0-.81.48-1.349 1.201-1.349C-1.381 0-.9.539-.9 1.349v6.156H.33V1.5C.33.81.24.449 0 0" style="fill:#000;fill-opacity:1;fill-rule:nonzero;stroke:none" transform="matrix(1.25 0 0 -1.25 22.166 19.788)"/>
    </g>
    <g style="fill:#000;stroke:none">
        <path d="m0 0-1.231 4.203C-.42 4.504 0 5.254 0 6.275c0 1.381-.9 2.281-2.252 2.281h-2.551V0h1.231v4.023H-2.4L-1.26 0H0zm-1.199 6.275c0-.691-.391-1.082-1.112-1.082h-1.261v2.162h1.261c.661 0 1.112-.42 1.112-1.08" style="fill:#000;fill-opacity:1;fill-rule:nonzero;stroke:none" transform="matrix(1.25 0 0 -1.25 30.872 21.101)"/>
    </g>
    <g style="fill:#000;stroke:none">
        <path d="m0 0-2.642 5.734V0h-1.231v8.556h1.231l2.341-5.134v5.134H.932V0H0z" style="fill:#000;fill-opacity:1;fill-rule:nonzero;stroke:none" transform="matrix(1.25 0 0 -1.25 37.478 21.101)"/>
    </g>
    <g style="fill:#000;stroke:none">
        <path d="M0 0c0 1.291-.119 2.101-.48 2.943-.42 1.051-1.021 1.471-2.012 1.471-.99 0-1.591-.42-2.041-1.442-.361-.81-.48-1.681-.48-2.972 0-1.321.119-2.133.48-2.973.42-1.021 1.02-1.471 2.041-1.471.961 0 1.592.45 2.012 1.471C-.119-2.162 0-1.321 0 0m-1.169 0c0-.991-.061-1.502-.272-2.192-.209-.72-.541-1.05-1.051-1.05-.541 0-.871.33-1.08 1.05-.181.69-.271 1.231-.271 2.162 0 .961.06 1.532.271 2.192.209.721.539 1.051 1.08 1.051.51 0 .842-.33 1.051-1.082.18-.629.272-1.17.272-2.131" style="fill:#000;fill-opacity:1;fill-rule:nonzero;stroke:none" transform="matrix(1.25 0 0 -1.25 52.302 15.735)"/>
    </g>
    <g style="fill:#000;stroke:none">
        <path d="M0 0v-2.162h1.711v-1.17H0v-4.023h-1.231v8.556h4.354V0H0z" style="fill:#000;fill-opacity:1;fill-rule:nonzero;stroke:none" transform="matrix(1.25 0 0 -1.25 55.943 11.908)"/>
    </g>
    <g style="fill:#000;stroke:none">
        <path d="M0 0v-2.162h1.711v-1.17H0v-4.023h-1.232v8.556h4.355V0H0z" style="fill:#000;fill-opacity:1;fill-rule:nonzero;stroke:none" transform="matrix(1.25 0 0 -1.25 62.85 11.908)"/>
    </g>
</svg>
