<?xml version="1.0" encoding="utf-8"?>
<!-- Generator: Adobe Illustrator 27.7.0, SVG Export Plug-In . SVG Version: 6.00 Build 0)  -->
<svg version="1.1" id="For_Sheets" xmlns="http://www.w3.org/2000/svg" xmlns:xlink="http://www.w3.org/1999/xlink" x="0px" y="0px"
	 viewBox="0 0 475.7 259.7" style="enable-background:new 0 0 475.7 259.7;" xml:space="preserve">
<style type="text/css">
	.st0{fill-rule:evenodd;clip-rule:evenodd;fill:#FFFFFF;}
	.st1{fill-rule:evenodd;clip-rule:evenodd;}
</style>
<g>
	<g>
		<path class="st0" d="M16.4,259.6c-9,0-16.3-7.3-16.3-16.3V16.5c0-9,7.3-16.3,16.3-16.3h442.8c9,0,16.3,7.3,16.3,16.3v226.8
			c0,9-7.3,16.3-16.3,16.3H16.4z"/>
		<path d="M459.2,0.2c8.9,0,16.2,7.3,16.2,16.2v226.8c0,8.9-7.3,16.2-16.2,16.2H16.4c-8.9,0-16.2-7.3-16.2-16.2V16.5
			c0-8.9,7.3-16.2,16.2-16.2H459.2 M459.2,0H16.4C7.4,0,0,7.4,0,16.5v226.8c0,9.1,7.4,16.5,16.4,16.5h442.8
			c9.1,0,16.5-7.4,16.5-16.5V16.5C475.7,7.4,468.3,0,459.2,0L459.2,0z"/>
	</g>
	<path class="st1" d="M16.4,4.7h442.8c6.5,0,11.7,5.2,11.7,11.7v226.8c0,6.5-5.2,11.7-11.7,11.7H16.4c-6.5,0-11.7-5.2-11.7-11.7
		V16.4C4.7,10,10,4.7,16.4,4.7z M11,243.2c0,3,2.4,5.4,5.4,5.4h442.8c3,0,5.4-2.4,5.4-5.4V16.4c0-3-2.4-5.4-5.4-5.4H69.5v87.3H11
		V243.2z"/>
	<path class="st0" d="M37.2,15.5l18,36l-18,36l-18-36L37.2,15.5z M37.2,75.5l12-23.9l-12-23.9l-12,23.9L37.2,75.5z"/>
	<g>
		<path d="M109.9,71H93.7v15.7h-6.5v-36h6.5v13.9h16.2V50.6h6.5v36h-6.5V71z"/>
		<path d="M124.7,68.6c0-11.5,5.8-18.6,15.3-18.6c9,0,14.9,7.4,14.9,18.4c0,11.2-5.8,18.8-14.9,18.8
			C129.3,87.3,124.7,77.6,124.7,68.6z M131.2,68.6c0,7.7,3.3,12.2,8.7,12.2c6.8,0,8.5-6.7,8.5-12.2c0-7.6-3.1-12.1-8.5-12.1
			C134.5,56.5,131.2,61,131.2,68.6z"/>
		<path d="M173,86.6l-13.1-36h6.8l9.7,26.3l9.7-26.3h6.9l-13.2,36H173z"/>
	</g>
	<g>
		<path d="M249.4,80.2v6.4h-29.2c0-9.3,5.1-16.1,12.7-19.7c4.2-2,10-2,10-6.2c0-2.7-2.5-4.2-7.1-4.2c-4.7,0-8.1,1.1-11.2,3.9
			l-4.4-4.9c4.2-3.7,9.4-5.6,15.2-5.6c8.5,0,13.9,4.2,13.9,10.7c0,4.3-2.4,7.6-6,9.2c-4.9,2.3-11,1.7-15.3,10.2H249.4z"/>
		<path d="M267.9,79.7h-6.5v-8.2H253V65h8.5V57h6.5V65h8.5v6.4h-8.5V79.7z"/>
	</g>
	<g>
		<path d="M303.3,68.6c0-11.5,5.8-18.6,15.3-18.6c9,0,14.9,7.4,14.9,18.4c0,11.2-5.8,18.8-14.9,18.8C308,87.3,303.3,77.6,303.3,68.6
			z M309.9,68.6c0,7.7,3.3,12.2,8.7,12.2c6.8,0,8.5-6.7,8.5-12.2c0-7.6-3.1-12.1-8.5-12.1C313.2,56.5,309.9,61,309.9,68.6z"/>
		<path d="M348.2,61.9v24.8h-6.3v-36h6.3l16.6,23.8V50.6h6.2v36h-5.6L348.2,61.9z"/>
		<path d="M380.4,50.6h6.5v30.4h20.5v5.6h-27V50.6z"/>
		<path d="M431.8,86.6h-6.4V72l-15.2-21.3h8l10.5,14.7L439,50.6h8L431.8,72V86.6z"/>
	</g>
	<g>
		<path d="M127.6,206.4h-5.4v12.5h-4.5v-28.8h10.9c6.8,0,8.7,5.5,8.7,8.1C137.3,200,136.3,206.4,127.6,206.4z M122.2,201.8h6.4
			c3.6,0,4-2.6,4-3.5c0-1.4-1-3.5-3.8-3.5h-6.6V201.8z"/>
		<path d="M141.6,190.1h17v4.5h-12.4v7.1h8.4v4.6h-8.4v7.9h13.3v4.6h-17.9V190.1z"/>
		<path d="M168.9,206.4v12.5h-4.5v-28.8h10.4c6.6,0,8.6,5.3,8.6,8.1c0,1.1-0.4,5.3-4.5,7.2l5.1,13.5h-5l-4.6-12.5H168.9z
			 M174.6,201.8c3.6,0,4.2-2.6,4.2-3.5c0-1.3-0.9-3.5-4-3.5h-5.9v7.1H174.6z"/>
	</g>
	<g>
		<path d="M214.7,218.9l-9.1-28.8h4.8l6.2,19.2l6.1-19.2h4.9l-9.2,28.8H214.7z"/>
		<path d="M231.8,190.1h17v4.5h-12.4v7.1h8.4v4.6h-8.4v7.9h13.3v4.6h-17.9V190.1z"/>
		<path d="M269.6,206.4h-10.5v12.5h-4.5v-28.8h4.5v11.6h10.5v-11.6h4.6v28.8h-4.5V206.4z"/>
		<path d="M281.1,190.1h4.6v28.8h-4.6V190.1z"/>
		<path d="M292,204.5c0-4.1,0.8-14.9,10.6-14.9c4.2,0,7,1.7,9,5.9l-4.2,1.8c-1.5-2.1-2.2-3-4.7-3c-6,0-6,8.4-6,10.2
			c0,1.8-0.1,10.3,6.2,10.3c2.2,0,3.5-1.3,4.4-3.3l4.3,1.6c-1.6,4-4.3,6.4-8.7,6.4C292.6,219.5,292,208,292,204.5z"/>
		<path d="M318,190.1h4.5v24.6h13.3v4.2H318V190.1z"/>
		<path d="M340.1,190.1h17v4.5h-12.4v7.1h8.4v4.6h-8.4v7.9H358v4.6h-17.9V190.1z"/>
	</g>
	<path d="M46.9,151.3h14.1v4.6H41.5c0.1-3.3,0.8-6.1,2.4-8.8c5.1-8.4,12.6-7.6,12.6-12c0-2.1-2.4-3.8-5.3-3.8c-2.9,0-4.8,1.4-5.3,4
		l-4.5-1c1-4.7,4.7-7.7,9.8-7.7c5.5,0,9.8,3.8,9.8,8.6c0,3.4-2,5.6-4.5,7.2C52.6,144.9,49.1,145.9,46.9,151.3z"/>
	<g>
		<path d="M168.6,139.3l-6.7,16.7l-6.7-16.7v16.7h-4.6v-28.8h4.6l6.7,16.2l6.7-16.2h4.6v28.8h-4.6V139.3z"/>
		<path d="M210.8,143.4v12.5h-4.5v-28.8h10.4c6.6,0,8.6,5.3,8.6,8.1c0,1.1-0.4,5.3-4.5,7.2l5.1,13.5h-5l-4.6-12.5H210.8z
			 M216.5,138.8c3.6,0,4.2-2.6,4.2-3.5c0-1.3-0.9-3.5-4-3.5h-5.9v7.1H216.5z"/>
		<path d="M230.8,127.1h17v4.5h-12.4v7.1h8.4v4.6h-8.4v7.9h13.3v4.6h-17.9V127.1z"/>
	</g>
	<g>
		<g>
			<path d="M114,143.4v12.5h-4.5v-28.8h10.4c6.6,0,8.6,5.3,8.6,8.1c0,1.1-0.4,5.3-4.5,7.2l5.1,13.5h-5l-4.6-12.5H114z M119.7,138.8
				c3.6,0,4.2-2.6,4.2-3.5c0-1.3-0.9-3.5-4-3.5H114v7.1H119.7z"/>
		</g>
		<path d="M103.1,141.5c0,1,0.2,14.9-10.2,14.9s-10.2-13.9-10.2-14.9c0-1-0.2-14.9,10.2-14.9S103.1,140.5,103.1,141.5z M92.9,151.8
			c3.1,0,5.6-2.9,5.6-10.3c0-7.3-2.5-10.3-5.6-10.3c-3.1,0-5.6,2.9-5.6,10.3C87.3,148.9,89.8,151.8,92.9,151.8z"/>
	</g>
	<g>
		<g>
			<path d="M280.1,143.4h-5.4v12.5h-4.5v-28.8h10.9c6.8,0,8.7,5.5,8.7,8.1C289.8,137,288.9,143.4,280.1,143.4z M274.8,138.8h6.4
				c3.6,0,4-2.6,4-3.5c0-1.4-1-3.5-3.8-3.5h-6.6V138.8z"/>
			<path d="M294.2,127.1h17v4.5h-12.4v7.1h8.4v4.6h-8.4v7.9H312v4.6h-17.9V127.1z"/>
			<path d="M321.5,143.4v12.5h-4.5v-28.8h10.4c6.6,0,8.6,5.3,8.6,8.1c0,1.1-0.4,5.3-4.5,7.2l5.1,13.5h-5l-4.6-12.5H321.5z
				 M327.2,138.8c3.6,0,4.2-2.6,4.2-3.5c0-1.3-0.9-3.5-4-3.5h-5.9v7.1H327.2z"/>
			<path d="M339.4,149.2l4.3-1.6c1.2,2.7,3.4,4.2,6.2,4.2c2.6,0,4.4-1.8,4.4-4.2c0-3.9-4.4-4.4-8.2-6c-1.7-0.7-5.6-2.4-5.6-7.2
				c0-5.7,3.8-7.8,9-7.8c4,0,6.8,2.3,8.2,5.9l-4,1.2c-0.5-1.1-2.1-2.5-4.2-2.5c-4.1,0-4.5,2.2-4.5,2.9c0,2.7,2.3,3.2,6.1,4.4
				c3.8,1.2,7.9,3,7.9,9.2c0,6.2-5,8.8-9.1,8.8C345,156.5,341.3,153.5,339.4,149.2z"/>
			<path d="M394.7,136.4v19.5h-4.5v-28.8h4.5l10.5,18.4v-18.4h4.6v28.8h-4L394.7,136.4z"/>
			<path d="M414.6,149.2l4.3-1.6c1.2,2.7,3.4,4.2,6.2,4.2c2.6,0,4.4-1.8,4.4-4.2c0-3.9-4.4-4.4-8.2-6c-1.7-0.7-5.6-2.4-5.6-7.2
				c0-5.7,3.8-7.8,9-7.8c4,0,6.8,2.3,8.2,5.9l-4,1.2c-0.5-1.1-2.1-2.5-4.2-2.5c-4.1,0-4.5,2.2-4.5,2.9c0,2.7,2.3,3.2,6.1,4.4
				c3.8,1.2,7.9,3,7.9,9.2c0,6.2-5,8.8-9.1,8.8C420.2,156.5,416.6,153.5,414.6,149.2z"/>
		</g>
		<path d="M383.8,141.5c0,1,0.2,14.9-10.2,14.9s-10.2-13.9-10.2-14.9c0-1-0.2-14.9,10.2-14.9S383.8,140.5,383.8,141.5z M373.6,151.8
			c3.1,0,5.6-2.9,5.6-10.3c0-7.3-2.5-10.3-5.6-10.3c-3.1,0-5.6,2.9-5.6,10.3C368,148.9,370.5,151.8,373.6,151.8z"/>
	</g>
	<path d="M199.9,141.5c0,1,0.2,14.9-10.2,14.9c-10.5,0-10.2-13.9-10.2-14.9c0-1-0.2-14.9,10.2-14.9
		C200.2,126.6,199.9,140.5,199.9,141.5z M189.8,151.8c3.1,0,5.6-2.9,5.6-10.3c0-7.3-2.5-10.3-5.6-10.3c-3.1,0-5.6,2.9-5.6,10.3
		C184.1,148.9,186.7,151.8,189.8,151.8z"/>
</g>
</svg>
