<?xml version="1.0" encoding="UTF-8" standalone="no"?>
<svg
   xmlns:dc="http://purl.org/dc/elements/1.1/"
   xmlns:cc="http://creativecommons.org/ns#"
   xmlns:rdf="http://www.w3.org/1999/02/22-rdf-syntax-ns#"
   xmlns:svg="http://www.w3.org/2000/svg"
   xmlns="http://www.w3.org/2000/svg"
   xmlns:sodipodi="http://sodipodi.sourceforge.net/DTD/sodipodi-0.dtd"
   xmlns:inkscape="http://www.inkscape.org/namespaces/inkscape"
   width="80.211617"
   height="68.850883"
   viewBox="0 0 226.37501 194.31248"
   version="1.1"
   id="svg2"
   inkscape:version="0.48.2 r9819"
   sodipodi:docname="MUTCD R3-15d.svg">
  <metadata
     id="metadata62">
    <rdf:RDF>
      <cc:Work
         rdf:about="">
        <dc:format>image/svg+xml</dc:format>
        <dc:type
           rdf:resource="http://purl.org/dc/dcmitype/StillImage" />
        <dc:title></dc:title>
      </cc:Work>
    </rdf:RDF>
  </metadata>
  <defs
     id="defs60" />
  <sodipodi:namedview
     pagecolor="#ffffff"
     bordercolor="#666666"
     borderopacity="1"
     objecttolerance="10"
     gridtolerance="10"
     guidetolerance="10"
     inkscape:pageopacity="0"
     inkscape:pageshadow="2"
     inkscape:window-width="1280"
     inkscape:window-height="1004"
     id="namedview58"
     showgrid="false"
     fit-margin-top="0"
     fit-margin-left="0"
     fit-margin-right="0"
     fit-margin-bottom="0"
     inkscape:zoom="5.4735947"
     inkscape:cx="30.862287"
     inkscape:cy="33.659196"
     inkscape:window-x="-8"
     inkscape:window-y="-8"
     inkscape:window-maximized="1"
     inkscape:current-layer="svg2" />
  <polygon
     points="395,375 315,545 235,375 315,205 "
     id="polygon10"
     style="fill:none;stroke:#ffffff;stroke-width:40"
     transform="translate(-2691.2813,-3305.1256)" />
  <!-- draw the bicycle -->
  <!-- RIGHT -->
  <!-- LANE -->
  <!-- ONLY -->
  <path
     d="m 225.5422,181.41289 c 0,6.64986 -5.3905,12.04031 -12.0368,12.04031 l -200.6318,0 c -6.64633,0 -12.03678,-5.39045 -12.03678,-12.04031 l 0,-168.525467 c 0,-6.64986 5.39045,-12.03676998 12.03678,-12.03676998 l 200.6318,0 c 6.6463,0 12.0368,5.38690998 12.0368,12.03676998 l 0,168.525467 z"
     style="fill:#ffffff;fill-opacity:1;fill-rule:nonzero;stroke:#000000;stroke-width:1.69333339;stroke-miterlimit:4;stroke-opacity:1;stroke-dasharray:none"
     id="path3264"
     inkscape:connector-curvature="0" />
  <path
     d="m 217.52,181.41289 c 0,2.21192 -1.8027,4.01814 -4.0146,4.01814 l -200.6318,0 c -2.20839,0 -4.00756,-1.80622 -4.00756,-4.01814 l 0,-168.525467 c 0,-2.21191 1.79917,-4.01108 4.00756,-4.01108 l 200.6318,0 c 2.2119,0 4.0146,1.79917 4.0146,4.01108 l 0,168.525467 z m -4.0146,-177.214377 -200.6318,0 c -4.78719,0 -8.68539,3.90172 -8.68539,8.68891 l 0,168.525467 c 0,4.79778 3.8982,8.69597 8.68539,8.69597 l 200.6318,0 c 4.7942,0 8.6924,-3.89819 8.6924,-8.69597 l 0,-168.525467 c 0,-4.78719 -3.8982,-8.68891 -8.6924,-8.68891"
     style="fill:#000000;fill-opacity:1;fill-rule:nonzero;stroke:none"
     id="path3272"
     inkscape:connector-curvature="0" />
  <path
     d="m 87.2004,59.926813 -7.0627,0 0,-8.9923 7.0627,0 c 1.1571,0 2.1695,0.38805 3.0515,1.15711 0.9595,0.83608 1.4393,1.95086 1.4393,3.33728 0,2.99508 -1.4958,4.49791 -4.4908,4.49791 m 2.4447,-14.95778 c -0.7232,0.55739 -1.5169,0.83962 -2.3777,0.83962 l -7.1297,0 0,-7.72937 6.7452,0 c 1.0971,0 2.0108,0.26812 2.7622,0.80434 0.9454,0.67028 1.4146,1.66864 1.4146,2.99861 0,1.3088 -0.4692,2.33539 -1.4146,3.0868 m 2.5647,3.3902 c 2.6529,-1.51695 3.9829,-3.67947 3.9829,-6.48406 0,-2.59291 -0.8749,-4.72016 -2.6212,-6.40291 -1.7427,-1.67923 -3.9264,-2.51884 -6.5581,-2.51884 l -12.0015,0 0,32.09925 12.1885,0 c 2.7763,0 5.0764,-0.92427 6.8968,-2.76225 1.8132,-1.8415 2.7199,-4.1275 2.7199,-6.86858 0,-3.35844 -1.5346,-5.71147 -4.6073,-7.06261 m -17.205,0.9278 0,-0.0248 0,-0.0353 0.01,0.0353 -0.01,0.0248 z"
     style="fill:#000000;fill-opacity:1;fill-rule:nonzero;stroke:none"
     id="path3276"
     inkscape:connector-curvature="0" />
  <path
     d="m 124.1044,54.691593 c 0,2.74108 -0.9913,5.17172 -2.9845,7.28839 -2.1413,2.27542 -4.7872,3.41136 -7.9375,3.41136 -3.1679,0 -5.8137,-1.12889 -7.9375,-3.37608 -1.9896,-2.0955 -2.9845,-4.54025 -2.9845,-7.32367 l 0,-21.73817 5.1259,0 0,21.75228 c 0,1.56281 0.568,2.87867 1.7039,3.94758 1.143,1.07245 2.5012,1.60514 4.0922,1.60514 1.6122,0 2.9775,-0.53269 4.1064,-1.60514 1.1218,-1.06891 1.6898,-2.38477 1.6898,-3.94758 l 0,-21.75228 5.1258,0 0,21.73817 z"
     style="fill:#000000;fill-opacity:1;fill-rule:nonzero;stroke:none"
     id="path3280"
     inkscape:connector-curvature="0" />
  <path
     d="m 151.4091,55.517093 c 0,2.89278 -1.0407,5.26344 -3.115,7.10494 -2.0814,1.84503 -4.6355,2.76931 -7.6835,2.76931 -3.8488,0 -6.8474,-1.40053 -8.9888,-4.18394 -0.9031,-1.15712 -1.5875,-2.54706 -2.0602,-4.17337 l 4.7589,-1.51694 c 0.8749,3.16089 2.9987,4.74133 6.3677,4.74133 1.4323,0 2.7023,-0.41275 3.7888,-1.25589 1.2065,-0.91369 1.8062,-2.07433 1.8062,-3.46427 0,-1.82739 -1.3652,-3.27378 -4.0851,-4.3427 -2.5294,-0.98425 -5.0589,-1.9685 -7.5883,-2.95628 -2.7199,-1.58397 -4.0851,-3.89819 -4.0851,-6.94266 0,-2.59292 0.7514,-4.63903 2.2542,-6.13834 1.7074,-1.69686 4.2863,-2.53647 7.7294,-2.53647 4.4944,0 7.7258,2.16253 9.6943,6.49111 l -4.7801,1.51342 c -0.9243,-1.92264 -2.5506,-2.87867 -4.886,-2.87867 -3.2526,0 -4.8789,1.17828 -4.8789,3.53484 0,1.52047 1.3582,2.74108 4.0781,3.66536 4.2651,1.45344 6.7945,2.43064 7.5882,2.921 2.7199,1.7145 4.0852,4.26508 4.0852,7.64822"
     style="fill:#000000;fill-opacity:1;fill-rule:nonzero;stroke:none"
     id="path3284"
     inkscape:connector-curvature="0" />
  <path
     d="m 81.3897,113.20334 -19.8966,0 0,-32.102777 5.1258,0 0,26.973387 14.7708,0 0,5.12939 z"
     style="fill:#000000;fill-opacity:1;fill-rule:nonzero;stroke:none"
     id="path3288"
     inkscape:connector-curvature="0" />
  <path
     d="m 100.359,99.085153 -3.3691,-9.80017 -3.3337,9.80017 6.7028,0 z m 10.2729,14.118157 -5.4222,0 -3.0868,-8.99231 -10.3012,0 -3.0162,8.99231 -5.4575,0 11.0455,-32.102777 5.1964,0 11.042,32.102777 z"
     style="fill:#000000;fill-opacity:1;fill-rule:nonzero;stroke:none"
     id="path3292"
     inkscape:connector-curvature="0" />
  <path
     d="m 137.2278,113.20334 -4.9178,0 -11.7263,-21.286607 0,21.286607 -5.1258,0 0,-32.102777 4.9812,0 11.6628,21.159607 0,-21.159607 5.1259,0 0,32.102777 z"
     style="fill:#000000;fill-opacity:1;fill-rule:nonzero;stroke:none"
     id="path3296"
     inkscape:connector-curvature="0" />
  <path
     d="m 164.8538,113.20334 -19.9002,0 0,-32.102777 19.2581,0 0,5.13292 -14.1322,0 0,7.72231 9.7719,0 0,5.12938 -9.7719,0 0,8.988777 14.7743,0 0,5.12939 z"
     style="fill:#000000;fill-opacity:1;fill-rule:nonzero;stroke:none"
     id="path3300"
     inkscape:connector-curvature="0" />
  <path
     d="m 81.3897,161.3575 -19.8966,0 0,-32.10277 19.2581,0 0,5.12586 -14.1323,0 0,7.72583 9.7684,0 0,5.13292 -9.7684,0 0,8.98525 14.7708,0 0,5.13291 z"
     style="fill:#000000;fill-opacity:1;fill-rule:nonzero;stroke:none"
     id="path3304"
     inkscape:connector-curvature="0" />
  <path
     d="m 108.6634,161.3575 -4.9213,0 -11.7263,-21.28308 0,21.28308 -5.1259,0 0,-32.10277 4.9812,0 11.6664,21.15255 0,-21.15255 5.1259,0 0,32.10277 z"
     style="fill:#000000;fill-opacity:1;fill-rule:nonzero;stroke:none"
     id="path3308"
     inkscape:connector-curvature="0" />
  <path
     d="m 133.1038,145.30256 c 0,-4.75192 -0.9102,-7.95867 -2.7376,-9.60261 -0.963,-0.87842 -2.3847,-1.31939 -4.2509,-1.31939 l -4.6038,0 0,21.844 4.4732,0 c 1.8874,0 3.3267,-0.43392 4.3145,-1.31586 1.8662,-1.64747 2.8046,-4.8507 2.8046,-9.60614 m 5.1259,0 c 0,6.80861 -1.7851,11.4935 -5.3623,14.06172 -1.8662,1.32292 -4.1627,1.9932 -6.8756,1.9932 l -9.6061,0 0,-32.10278 9.6061,0 c 2.7129,0 5.0094,0.67733 6.8756,2.02141 3.5772,2.54706 5.3623,7.22489 5.3623,14.02645"
     style="fill:#000000;fill-opacity:1;fill-rule:nonzero;stroke:none"
     id="path3312"
     inkscape:connector-curvature="0" />
  <path
     d="m 164.8926,151.82189 c 0,2.89278 -1.0407,5.26345 -3.1221,7.10142 -2.0708,1.8415 -4.6355,2.76578 -7.6729,2.76578 -3.8594,0 -6.858,-1.39348 -8.9994,-4.17689 -0.896,-1.15711 -1.5839,-2.55059 -2.0531,-4.18042 l 4.7625,-1.50989 c 0.8749,3.16089 2.9951,4.74134 6.357,4.74134 1.4394,0 2.7023,-0.42334 3.7959,-1.25589 1.1995,-0.92428 1.7992,-2.08139 1.7992,-3.47134 0,-1.82033 -1.3582,-3.26672 -4.0781,-4.34269 -2.5294,-0.98425 -5.0589,-1.9685 -7.5847,-2.95628 -2.7235,-1.58397 -4.0887,-3.89819 -4.0887,-6.93561 0,-2.59997 0.7514,-4.64608 2.2472,-6.14186 1.7145,-1.69333 4.2933,-2.54 7.7364,-2.54 4.4944,0 7.7258,2.16253 9.6943,6.49464 l -4.7872,1.50989 c -0.9172,-1.91559 -2.5506,-2.87867 -4.8789,-2.87867 -3.2597,0 -4.886,1.17828 -4.886,3.53483 0,1.52048 1.3653,2.74814 4.0887,3.66536 4.2651,1.4605 6.791,2.43064 7.5847,2.92806 2.7235,1.7145 4.0852,4.26508 4.0852,7.64822"
     style="fill:#000000;fill-opacity:1;fill-rule:nonzero;stroke:none"
     id="path3316"
     inkscape:connector-curvature="0" />
</svg>
