<?xml version="1.0" encoding="utf-8"?>
<!-- Generator: Adobe Illustrator 27.7.0, SVG Export Plug-In . SVG Version: 6.00 Build 0)  -->
<svg version="1.1" id="For_Sheets" xmlns="http://www.w3.org/2000/svg" xmlns:xlink="http://www.w3.org/1999/xlink" x="0px" y="0px"
	 viewBox="0 0 216.5 302.9" style="enable-background:new 0 0 216.5 302.9;" xml:space="preserve">
<style type="text/css">
	.st0{fill:#FFFFFF;}
	.st1{fill-rule:evenodd;clip-rule:evenodd;fill:#FFFFFF;}
	.st2{fill-rule:evenodd;clip-rule:evenodd;}
</style>
<g>
	<g>
		<path class="st0" d="M13.7,302.8c-7.5,0-13.6-6.1-13.6-13.6V13.7c0-7.5,6.1-13.6,13.6-13.6h189c7.5,0,13.6,6.1,13.6,13.6v275.4
			c0,7.5-6.1,13.6-13.6,13.6H13.7z"/>
		<path d="M202.8,0.2c7.4,0,13.5,6.1,13.5,13.5v275.4c0,7.4-6.1,13.5-13.5,13.5h-189c-7.4,0-13.5-6.1-13.5-13.5V13.7
			c0-7.4,6.1-13.5,13.5-13.5H202.8 M202.8,0h-189C6.2,0,0,6.2,0,13.7v275.4c0,7.6,6.2,13.8,13.8,13.8h189c7.6,0,13.8-6.2,13.8-13.8
			V13.7C216.5,6.2,210.3,0,202.8,0L202.8,0z"/>
	</g>
	<path d="M202.8,299.1h-189c-5.4,0-9.9-4.5-9.9-9.9V13.8c0-5.4,4.5-9.9,9.9-9.9h189c5.4,0,9.9,4.5,9.9,9.9v275.4
		C212.6,294.6,208.2,299.1,202.8,299.1z M9.2,91.8v197.4c0,2.5,2,4.5,4.5,4.5h189c2.5,0,4.5-2,4.5-4.5V91.8H9.2z"/>
	<polygon class="st1" points="108.3,12 126.2,47.9 108.3,84 90.2,47.9 	"/>
	<polygon class="st2" points="108.3,24 96.3,47.9 108.3,71.9 120.2,47.9 	"/>
	<g>
		<path d="M23.9,104.7h3.5v21.6h-3.5V104.7z"/>
		<path d="M35.9,111.6v14.6h-3.4v-21.6h3.4l7.9,13.8v-13.8h3.4v21.6h-3L35.9,111.6z"/>
		<path d="M63.7,116.9h-7.9v9.4h-3.4v-21.6h3.4v8.7h7.9v-8.7h3.4v21.6h-3.4V116.9z"/>
		<path d="M72.3,104.7H85v3.4h-9.3v5.3H82v3.5h-6.3v5.9h10v3.5H72.3V104.7z"/>
		<path d="M92.7,116.8v9.4h-3.4v-21.6h7.8c5,0,6.4,4,6.4,6.1c0,0.8-0.3,4-3.4,5.4l3.8,10.1h-3.7l-3.5-9.4H92.7z M97,113.4
			c2.7,0,3.1-2,3.1-2.7c0-0.9-0.7-2.7-3-2.7h-4.5v5.3H97z"/>
		<path d="M107.7,104.7h12.7v3.4h-9.3v5.3h6.3v3.5h-6.3v5.9h10v3.5h-13.4V104.7z"/>
		<path d="M128.2,111.6v14.6h-3.4v-21.6h3.4l7.9,13.8v-13.8h3.4v21.6h-3L128.2,111.6z"/>
		<path d="M151.1,126.3h-3.4v-18.6h-4.9v-3h13.4v3h-5V126.3z"/>
		<path d="M159.4,104.7h3.4v18.4h10v3.2h-13.4V104.7z"/>
		<path d="M185.1,126.3h-3.4v-9.4l-7.6-12.2h4.1l5.2,8.3l5.3-8.3h4l-7.5,12.2V126.3z"/>
	</g>
	<g>
		<path d="M81.5,143.3h3.4v18.4h10v3.2H81.5V143.3z"/>
		<path d="M128.8,164.9l-3.4-13.9l-3.3,13.9h-3l-3.2-21.6h3.5l1.7,11.4l2.7-11.4h3.3l2.8,11.4l1.7-11.4h3.5l-3.2,21.6H128.8z"/>
	</g>
	<g>
		<path d="M46,182.1h12.7v3.4h-9.3v5.3h6.3v3.5h-6.3v5.9h10v3.5H46V182.1z"/>
		<path d="M76.5,191.1l-5,12.5l-5-12.5v12.5h-3.4v-21.6h3.4l5,12.1l5-12.1h3.4v21.6h-3.4V191.1z"/>
		<path d="M85.1,182.1h3.5v21.6h-3.5V182.1z"/>
		<path d="M92.2,198.6l3.3-1.2c0.9,2,2.6,3.2,4.6,3.2c2,0,3.3-1.4,3.3-3.2c0-2.9-3.3-3.3-6.1-4.5c-1.3-0.5-4.2-1.8-4.2-5.4
			c0-4.2,2.9-5.8,6.7-5.8c3,0,5.1,1.7,6.1,4.4l-3,0.9c-0.3-0.9-1.6-1.9-3.2-1.9c-3.1,0-3.3,1.6-3.3,2.2c0,2,1.7,2.4,4.6,3.3
			c2.9,0.9,5.9,2.2,5.9,6.9c0,4.7-3.8,6.6-6.8,6.6C96.4,204,93.7,201.8,92.2,198.6z"/>
		<path d="M109.1,198.6l3.3-1.2c0.9,2,2.6,3.2,4.6,3.2c2,0,3.3-1.4,3.3-3.2c0-2.9-3.3-3.3-6.1-4.5c-1.3-0.5-4.2-1.8-4.2-5.4
			c0-4.2,2.9-5.8,6.7-5.8c3,0,5.1,1.7,6.1,4.4l-3,0.9c-0.3-0.9-1.6-1.9-3.2-1.9c-3.1,0-3.3,1.6-3.3,2.2c0,2,1.7,2.4,4.6,3.3
			c2.9,0.9,5.9,2.2,5.9,6.9c0,4.7-3.8,6.6-6.8,6.6C113.3,204,110.5,201.8,109.1,198.6z"/>
		<path d="M127.5,182.1h3.5v21.6h-3.5V182.1z"/>
		<path d="M159.2,189v14.6h-3.4v-21.6h3.4l7.9,13.8v-13.8h3.4v21.6h-3L159.2,189z"/>
	</g>
	<g>
		<path d="M49.5,242.3l-6.8-21.6h3.6l4.6,14.4l4.6-14.4h3.7l-6.9,21.6H49.5z"/>
		<path d="M62.3,220.8H75v3.4h-9.3v5.3H72v3.5h-6.3v5.9h10v3.5H62.3V220.8z"/>
		<path d="M90.7,233h-7.9v9.4h-3.4v-21.6h3.4v8.7h7.9v-8.7h3.4v21.6h-3.4V233z"/>
		<path d="M99.3,220.8h3.5v21.6h-3.5V220.8z"/>
		<path d="M107.5,231.5c0-3,0.6-11.1,8-11.1c3.1,0,5.3,1.3,6.7,4.4l-3.2,1.4c-1.1-1.6-1.7-2.3-3.6-2.3c-4.5,0-4.5,6.3-4.5,7.7
			c0,1.3-0.1,7.7,4.6,7.7c1.6,0,2.6-1,3.3-2.5l3.3,1.2c-1.2,3-3.3,4.8-6.5,4.8C107.9,242.7,107.5,234.1,107.5,231.5z"/>
		<path d="M126.9,220.8h3.4v18.4h10v3.2h-13.4V220.8z"/>
		<path d="M143.6,220.8h12.7v3.4H147v5.3h6.3v3.5H147v5.9h10v3.5h-13.4V220.8z"/>
		<path d="M159.1,237.3l3.3-1.2c0.9,2,2.6,3.2,4.6,3.2c2,0,3.3-1.4,3.3-3.2c0-2.9-3.3-3.3-6.1-4.5c-1.3-0.5-4.2-1.8-4.2-5.4
			c0-4.2,2.9-5.8,6.7-5.8c3,0,5.1,1.7,6.1,4.4l-3,0.9c-0.3-0.9-1.6-1.9-3.2-1.9c-3.1,0-3.3,1.6-3.3,2.2c0,2,1.7,2.4,4.6,3.3
			c2.9,0.9,5.9,2.2,5.9,6.9c0,4.7-3.8,6.6-6.8,6.6C163.3,242.7,160.6,240.5,159.1,237.3z"/>
	</g>
	<g>
		<path d="M57.4,275h-6.8l-2.1,6.1h-3.7l7.5-21.6h3.4l7.5,21.6h-3.7L57.4,275z M51.8,271.5h4.3l-2.1-6.1L51.8,271.5z"/>
		<path d="M66.4,259.5h3.4v18.4h10v3.2H66.4V259.5z"/>
		<path d="M83.1,259.5h3.4v18.4h10v3.2H83.1V259.5z"/>
		<path d="M130.4,281l-3.4-13.9l-3.3,13.9h-3l-3.2-21.6h3.5l1.7,11.4l2.7-11.4h3.3l2.8,11.4l1.7-11.4h3.5l-3.2,21.6H130.4z"/>
		<path d="M139.9,259.5h12.7v3.4h-9.3v5.3h6.3v3.5h-6.3v5.9h10v3.5h-13.4V259.5z"/>
		<path d="M157,281v-21.6h7.8c5.5,0,6.9,7.2,6.9,10.3c0,8.1-4.2,11.3-6.9,11.3H157z M164.2,262.9h-3.9v14.7h3.6
			c3.1,0,4.2-3.8,4.2-7.9C168.2,267.8,167.6,262.9,164.2,262.9z"/>
	</g>
	<g>
		<path d="M113,154.1c0,0.8,0.2,11.2-7.7,11.2s-7.7-10.4-7.7-11.2c0-0.8-0.2-11.2,7.7-11.2S113,153.4,113,154.1z M105.4,161.8
			c2.3,0,4.2-2.2,4.2-7.7c0-5.5-1.9-7.7-4.2-7.7c-2.3,0-4.2,2.2-4.2,7.7C101.2,159.6,103,161.8,105.4,161.8z"/>
	</g>
	<g>
		<path d="M151,192.8c0,0.8,0.2,11.2-7.7,11.2c-7.8,0-7.7-10.4-7.7-11.2c0-0.8-0.2-11.2,7.7-11.2C151.2,181.7,151,192.1,151,192.8z
			 M143.4,200.5c2.3,0,4.2-2.2,4.2-7.7c0-5.5-1.9-7.7-4.2-7.7c-2.3,0-4.2,2.2-4.2,7.7C139.2,198.3,141.1,200.5,143.4,200.5z"/>
	</g>
	<g>
		<path d="M114.6,270.2c0,0.8,0.2,11.2-7.7,11.2s-7.7-10.4-7.7-11.2s-0.2-11.2,7.7-11.2S114.6,269.5,114.6,270.2z M107,277.9
			c2.3,0,4.2-2.2,4.2-7.7s-1.9-7.7-4.2-7.7c-2.3,0-4.2,2.2-4.2,7.7C102.8,275.7,104.7,277.9,107,277.9z"/>
	</g>
</g>
</svg>
