<?xml version="1.0" encoding="utf-8"?>
<!-- Generator: Adobe Illustrator 27.7.0, SVG Export Plug-In . SVG Version: 6.00 Build 0)  -->
<svg version="1.1" id="For_Sheets" xmlns="http://www.w3.org/2000/svg" xmlns:xlink="http://www.w3.org/1999/xlink" x="0px" y="0px"
	 viewBox="0 0 518.9 432.5" style="enable-background:new 0 0 518.9 432.5;" xml:space="preserve">
<style type="text/css">
	.st0{fill:#FFFFFF;}
	.st1{fill-rule:evenodd;clip-rule:evenodd;fill:#FFFFFF;}
</style>
<g>
	<g>
		<path class="st0" d="M21.9,432.4c-12,0-21.7-9.7-21.7-21.7V21.9c0-12,9.7-21.7,21.7-21.7h475.2c12,0,21.7,9.7,21.7,21.7v388.8
			c0,12-9.7,21.7-21.7,21.7H21.9z"/>
		<path d="M497.1,0.2c11.9,0,21.6,9.7,21.6,21.6v388.8c0,11.9-9.7,21.6-21.6,21.6H21.9c-11.9,0-21.6-9.7-21.6-21.6V21.9
			C0.2,9.9,9.9,0.2,21.9,0.2H497.1 M497.1,0H21.9C9.8,0,0,9.8,0,21.9v388.8c0,12,9.8,21.8,21.9,21.8h475.2c12,0,21.8-9.8,21.8-21.8
			V21.9C518.9,9.8,509.1,0,497.1,0L497.1,0z"/>
	</g>
	<path d="M497,426.9H21.8c-8.9,0-16.2-7.3-16.2-16.2V21.9c0-8.9,7.3-16.2,16.2-16.2H497c8.9,0,16.2,7.3,16.2,16.2v388.8
		C513.2,419.6,506,426.9,497,426.9z M504.2,21.9c0-4-3.2-7.2-7.2-7.2H79.4v144H14.6v252c0,4,3.2,7.2,7.2,7.2H497
		c4,0,7.2-3.2,7.2-7.2V21.9z"/>
	<path class="st1" d="M42.6,24.6l28.8,57.6l-28.8,57.6L13.7,82.1L42.6,24.6z M42.6,123.7l20.7-41.5L42.6,40.6L21.8,82.1L42.6,123.7z
		"/>
	<g>
		<g>
			<g>
				<path d="M304.7,187.5v-57.6h10.3v48.7h32.9v8.9H304.7z"/>
			</g>
		</g>
		<g>
			<g>
				<path d="M280.8,187.5l-27.6-39.6v39.6H243v-57.6h10.1l26.6,38v-38h9.9v57.6H280.8z"/>
			</g>
		</g>
		<g>
			<g>
				<path d="M205.9,188.5c-17,0-24.5-15.4-24.5-29.9c0-18.4,9.3-29.7,24.5-29.7c14.2,0,23.9,11.9,23.9,29.5
					C229.8,176.3,220.5,188.5,205.9,188.5z M205.9,139.1c-8.7,0-14,7.3-14,19.4c0,12.3,5.3,19.6,14,19.6c10.9,0,13.6-10.7,13.6-19.6
					C219.5,146.4,214.6,139.1,205.9,139.1z"/>
			</g>
		</g>
		<g>
			<g>
				<path d="M387.1,164v23.4h-10.3V164l-24.2-34.2h12.7l16.8,23.4l16.6-23.4h12.7L387.1,164z"/>
			</g>
		</g>
	</g>
	<path d="M269.6,338.7v28l35.8-9.2c0.2-0.1,0.5-0.1,0.7-0.1c1.7,0,3.1,1.4,3.1,3.1c0,0.9-0.4,1.6-0.9,2.2l-48.8,44.4l-48.8-44.4
		c-0.6-0.6-0.9-1.3-0.9-2.2c0-1.7,1.4-3.1,3.1-3.1c0.3,0,0.5,0,0.7,0.1l35.8,9.2v-28H269.6z"/>
	<path d="M77.2,255.8c0-10,5.6-20.2,13.9-25.8l2.9,4.8c-4.4,3.4-6.7,6.3-8.8,10.9c2-0.4,2.9-0.4,4.3-0.4c6.7,0,12.2,4.9,12.2,11
		c0,6.2-5.2,11-12.3,11C82.5,267.3,77.2,262.2,77.2,255.8z M83,256.2c0,2.9,2.9,5.3,6.4,5.3s6.6-2.4,6.6-5.3c0-2.8-2.9-5.2-6.6-5.2
		C85.9,251,83,253.4,83,256.2z"/>
	<g>
		<path d="M201.1,256.5h-11.3l-3.6,10.1h-6.1l12.5-36h5.7l12.4,36h-6.1L201.1,256.5z M191.8,250.7h7.2l-3.6-10.1L191.8,250.7z"/>
		<path d="M238.5,245.8l-8.3,20.8l-8.4-20.8v20.8h-5.7v-36h5.7l8.4,20.2l8.3-20.2h5.7v36h-5.7V245.8z"/>
	</g>
	<path d="M248.6,246.1h22.5v5.7h-22.5V246.1z"/>
	<path d="M282.5,262.5c4.3-3.4,6.6-6.3,8.7-11c-2,0.4-2.9,0.5-4.3,0.5c-6.7,0-12.3-4.9-12.3-11c0-6.3,5.4-11,12.3-11
		c6.9,0,12.3,4.9,12.3,11.5c0,9.8-5.6,20.1-13.9,25.8L282.5,262.5z M280.5,241c0,3,2.9,5.2,6.4,5.2c3.7,0,6.6-2.3,6.6-5.2
		c0-2.9-3-5.2-6.6-5.2C283.4,235.8,280.5,238.1,280.5,241z"/>
	<g>
		<path d="M398.7,256.5h-11.3l-3.6,10.1h-6.1l12.5-36h5.7l12.4,36h-6.1L398.7,256.5z M389.4,250.7h7.2l-3.6-10.1L389.4,250.7z"/>
		<path d="M436.1,245.8l-8.3,20.8l-8.4-20.8v20.8h-5.7v-36h5.7l8.4,20.2l8.3-20.2h5.7v36h-5.7V245.8z"/>
	</g>
	<g>
		<path d="M188.9,303.4l-8.3,20.8l-8.4-20.8v20.8h-5.7v-36h5.7l8.4,20.2l8.3-20.2h5.7v36h-5.7V303.4z"/>
		<path d="M228.1,306.3c0,2,0.2,18.6-12.8,18.6s-12.8-16.5-12.8-18.6c0-3.5,0.5-18.7,13-18.7C228.4,287.6,228.1,304.8,228.1,306.3z
			 M208.4,306.3c0,1,0,12.8,7.1,12.8c7.1,0,7-11.4,7-12.8c0-1,0.2-12.9-6.8-12.9C208.1,293.4,208.4,305.3,208.4,306.3z"/>
		<path d="M241.7,299.9v24.4H236v-36h5.7l13.1,23v-23h5.7v36h-5.1L241.7,299.9z"/>
		<path d="M265.9,303.7h18v5.7h-18V303.7z"/>
		<g>
			<path d="M293.9,302.8h10.5v5.8h-10.5v15.7h-5.7v-36h22.3v5.7h-16.6V302.8z"/>
			<path d="M321.7,308.6v15.7H316v-36h13c8.3,0,10.7,6.6,10.7,10.1c0,1.3-0.5,6.6-5.6,9l6.3,16.9h-6.2l-5.8-15.7H321.7z
				 M328.8,302.8c4.5,0,5.2-3.3,5.2-4.4c0-1.6-1.2-4.4-5-4.4h-7.4v8.8H328.8z"/>
			<path d="M346.6,288.3h5.8v36h-5.8V288.3z"/>
		</g>
	</g>
	<g>
		<path d="M106.6,241.4c0-1.8,1.5-3.2,3.3-3.2c1.7,0,3.2,1.4,3.2,3.2c0,1.8-1.4,3.3-3.2,3.3C108.2,244.7,106.6,243.2,106.6,241.4z
			 M106.6,255.8c0-1.6,1.5-3.2,3.3-3.2c1.7,0,3.2,1.5,3.2,3.2c0,1.8-1.4,3.3-3.2,3.3C108.2,259.1,106.6,257.6,106.6,255.8z"/>
		<path d="M130.6,249.9v-5.7h1.4c2.3,0,3.6-1.3,3.6-3.5c0-2.8-2.3-4.8-5.2-4.8c-2.4,0-4.2,1.1-5.5,3.5l-5.3-2
			c1.9-4.5,6-7.3,10.7-7.3c6.1,0,11,4.9,11,11c0,2.1-0.5,3.7-2,5.9c2.7,2.4,3.4,4.3,3.4,7.8c0,7.3-5,12.5-12.4,12.5
			c-5.8,0-10.5-3.8-12.1-9.6l5.6-1.6c0.9,3.5,3.3,5.4,6.7,5.4c3.8,0,6.5-2.7,6.5-6.3c0-1.5-0.6-5.3-4.7-5.3H130.6z"/>
		<path d="M175.4,248.6c0,1.3,0.3,18.6-12.8,18.6c-13.1,0-12.8-17.3-12.8-18.6c0-1.3-0.3-18.6,12.8-18.6
			C175.7,230,175.4,247.4,175.4,248.6z M162.7,261.5c3.9,0,7-3.7,7-12.8c0-9.1-3.1-12.8-7-12.8c-3.9,0-7,3.7-7,12.8
			C155.7,257.8,158.8,261.5,162.7,261.5z"/>
	</g>
	<g>
		<path d="M304,241.4c0-1.8,1.5-3.2,3.3-3.2c1.7,0,3.2,1.4,3.2,3.2c0,1.8-1.4,3.3-3.2,3.3C305.6,244.7,304,243.2,304,241.4z
			 M304,255.8c0-1.6,1.5-3.2,3.3-3.2c1.7,0,3.2,1.5,3.2,3.2c0,1.8-1.4,3.3-3.2,3.3C305.6,259.1,304,257.6,304,255.8z"/>
		<path d="M328,249.9v-5.7h1.4c2.3,0,3.6-1.3,3.6-3.5c0-2.8-2.3-4.8-5.2-4.8c-2.4,0-4.2,1.1-5.5,3.5l-5.3-2c1.9-4.5,6-7.3,10.7-7.3
			c6.1,0,11,4.9,11,11c0,2.1-0.5,3.7-2,5.9c2.7,2.4,3.4,4.3,3.4,7.8c0,7.3-5,12.5-12.4,12.5c-5.8,0-10.5-3.8-12.1-9.6l5.6-1.6
			c0.9,3.5,3.3,5.4,6.7,5.4c3.8,0,6.5-2.7,6.5-6.3c0-1.5-0.6-5.3-4.7-5.3H328z"/>
		<path d="M372.8,248.6c0,1.3,0.3,18.6-12.8,18.6s-12.8-17.3-12.8-18.6c0-1.3-0.3-18.6,12.8-18.6S372.8,247.4,372.8,248.6z
			 M360.1,261.5c3.9,0,7-3.7,7-12.8c0-9.1-3.1-12.8-7-12.8c-3.9,0-7,3.7-7,12.8C353.1,257.8,356.2,261.5,360.1,261.5z"/>
	</g>
	<g>
		<g>
			<g>
				<g>
					<path d="M181.4,101.1V76h-26v25.1h-10.4V43.4h10.4v22.2h26V43.4h10.4v57.6H181.4z"/>
				</g>
			</g>
			<g>
				<g>
					<path d="M229.5,102.1c-17,0-24.5-15.4-24.5-29.9c0-18.4,9.3-29.7,24.5-29.7c14.2,0,23.9,11.9,23.9,29.5
						C253.4,89.9,244.1,102.1,229.5,102.1z M229.5,52.7c-8.7,0-14,7.3-14,19.4c0,12.3,5.3,19.6,14,19.6c10.9,0,13.6-10.7,13.6-19.6
						C243.1,60,238.2,52.7,229.5,52.7z"/>
				</g>
			</g>
			<g>
				<g>
					<path d="M293.4,101.1h-11l-20.9-57.6h11l15.5,42l15.5-42h11L293.4,101.1z"/>
				</g>
			</g>
		</g>
		<g>
			<g>
				<path d="M434.1,76.8v13.1h-10.3V76.8h-13.6V66.5h13.6V53.6h10.3v12.9h13.6v10.3H434.1z"/>
			</g>
		</g>
		<path d="M404.4,90.7v10.3h-46.7c0-14.8,8.2-25.8,20.2-31.6c6.7-3.2,16.1-3.2,16.1-9.9c0-4.2-4-6.7-11.4-6.7
			c-7.5,0-13,1.8-17.9,6.3l-7.1-7.9c6.7-5.9,15-8.9,24.4-8.9c13.6,0,22.3,6.7,22.3,17.2c0,6.8-3.9,12.1-9.6,14.8
			c-7.9,3.6-17.6,2.8-24.5,16.4H404.4z"/>
	</g>
</g>
</svg>
