<?xml version="1.0" encoding="utf-8"?>
<!-- Generator: Adobe Illustrator 27.7.0, SVG Export Plug-In . SVG Version: 6.00 Build 0)  -->
<svg version="1.1" id="For_Sheets" xmlns="http://www.w3.org/2000/svg" xmlns:xlink="http://www.w3.org/1999/xlink" x="0px" y="0px"
	 viewBox="0 0 216.5 302.9" style="enable-background:new 0 0 216.5 302.9;" xml:space="preserve">
<style type="text/css">
	.st0{fill:#FFFFFF;}
	.st1{fill-rule:evenodd;clip-rule:evenodd;fill:#FFFFFF;}
	.st2{fill-rule:evenodd;clip-rule:evenodd;}
</style>
<g>
	<g>
		<path class="st0" d="M13.7,302.8c-7.5,0-13.6-6.1-13.6-13.6V13.7c0-7.5,6.1-13.6,13.6-13.6h189c7.5,0,13.6,6.1,13.6,13.6v275.4
			c0,7.5-6.1,13.6-13.6,13.6H13.7z"/>
		<path d="M202.8,0.2c7.4,0,13.5,6.1,13.5,13.5v275.4c0,7.4-6.1,13.5-13.5,13.5h-189c-7.4,0-13.5-6.1-13.5-13.5V13.7
			c0-7.4,6.1-13.5,13.5-13.5H202.8 M202.8,0h-189C6.2,0,0,6.2,0,13.7v275.4c0,7.6,6.2,13.8,13.8,13.8h189c7.6,0,13.8-6.2,13.8-13.8
			V13.7C216.5,6.2,210.3,0,202.8,0L202.8,0z"/>
	</g>
	<path d="M202.8,299.1h-189c-5.4,0-9.9-4.5-9.9-9.9V13.8c0-5.4,4.5-9.9,9.9-9.9h189c5.4,0,9.9,4.5,9.9,9.9v275.4
		C212.6,294.6,208.2,299.1,202.8,299.1z M9.2,92.1v197.1c0,2.5,2,4.5,4.5,4.5h189c2.5,0,4.5-2,4.5-4.5V92.1H9.2z"/>
	<g>
		<path class="st1" d="M30,12l18,36L30,84l-18-36L30,12L30,12z"/>
		<polygon class="st2" points="18,47.9 30,24 41.9,47.9 30,71.9 		"/>
	</g>
	<g>
		<g>
			<path class="st0" d="M99.4,19.1h3.4v18.4h10v3.2H99.4V19.1z"/>
			<path class="st0" d="M116,19.1h12.7v3.4h-9.3v5.3h6.3v3.5h-6.3v5.9h10v3.5H116V19.1z"/>
			<path class="st0" d="M136.5,27.9h6.3v3.5h-6.3v9.4h-3.4V19.1h13.4v3.4h-10V27.9z"/>
			<path class="st0" d="M156.2,40.7h-3.4V22.2h-4.9v-3h13.4v3h-5V40.7z"/>
		</g>
		<g>
			<path class="st0" d="M95.3,55.1h3.4v18.4h10v3.2H95.3V55.1z"/>
			<path class="st0" d="M122.6,70.7h-6.8l-2.1,6.1H110l7.5-21.6h3.4l7.5,21.6h-3.7L122.6,70.7z M117,67.2h4.3l-2.1-6.1L117,67.2z"/>
			<path class="st0" d="M135,62.1v14.6h-3.4V55.1h3.4l7.9,13.8V55.1h3.4v21.6h-3L135,62.1z"/>
			<path class="st0" d="M151.5,55.1h12.7v3.4h-9.3v5.3h6.3v3.5h-6.3v5.9h10v3.5h-13.4V55.1z"/>
		</g>
	</g>
	<g>
		<path d="M44.1,133.1H31v15.7h-5.7v-36H31v14.5h13.1v-14.5h5.7v36h-5.7V133.1z"/>
		<path d="M99.4,148.7l-11.4-36h6l7.7,24l7.6-24h6.1l-11.5,36H99.4z"/>
		<path d="M144.7,142.9h17.7v5.8h-24.5c0.1-4.2,1-7.6,3-11c6.3-10.6,15.8-9.5,15.8-15c0-2.7-3-4.8-6.6-4.8c-3.7,0-5.9,1.8-6.6,5.1
			l-5.7-1.3c1.3-5.9,5.9-9.6,12.2-9.6c6.8,0,12.2,4.8,12.2,10.7c0,4.3-2.5,7-5.7,9C151.8,134.9,147.4,136.2,144.7,142.9z"/>
		<path d="M182,142.9h-5.7v-9h-9.2v-5.8h9.2v-9h5.7v9h9.2v5.8H182V142.9z"/>
		<path d="M83.3,130.7c0,1.3,0.3,18.6-12.8,18.6S57.7,132,57.7,130.7c0-1.3-0.3-18.6,12.8-18.6S83.3,129.5,83.3,130.7z M70.6,143.6
			c3.9,0,7-3.7,7-12.8c0-9.1-3.1-12.8-7-12.8c-3.9,0-7,3.7-7,12.8C63.6,139.9,66.7,143.6,70.6,143.6z"/>
	</g>
	<g>
		<path d="M86.4,177.5v24.4h-5.7v-36h5.7l13.1,23v-23h5.7v36h-5.1L86.4,177.5z"/>
		<path d="M113.8,165.9h5.7v30.7h16.6v5.3h-22.3V165.9z"/>
		<path d="M156.7,201.8H151v-15.7l-12.7-20.3h6.9l8.6,13.9l8.8-13.9h6.7l-12.6,20.3V201.8z"/>
		<path d="M72.8,183.9c0,1.3,0.3,18.6-12.8,18.6s-12.8-17.3-12.8-18.6c0-1.3-0.3-18.6,12.8-18.6S72.8,182.6,72.8,183.9z M60,196.7
			c3.9,0,7-3.7,7-12.8c0-9.1-3.1-12.8-7-12.8c-3.9,0-7,3.7-7,12.8C53,193,56.2,196.7,60,196.7z"/>
	</g>
	<g>
		<path d="M19,236c0-5,2.8-10.1,7-12.9l1.5,2.4c-2.2,1.7-3.3,3.2-4.4,5.4c1-0.2,1.5-0.2,2.1-0.2c3.3,0,6.1,2.5,6.1,5.5
			c0,3.1-2.6,5.5-6.1,5.5C21.7,241.8,19,239.2,19,236z M21.9,236.2c0,1.4,1.5,2.7,3.2,2.7s3.3-1.2,3.3-2.7c0-1.4-1.5-2.6-3.3-2.6
			C23.4,233.6,21.9,234.8,21.9,236.2z"/>
		<path d="M33.8,228.8c0-0.9,0.8-1.6,1.7-1.6c0.8,0,1.6,0.7,1.6,1.6c0,0.9-0.7,1.6-1.6,1.6C34.5,230.5,33.8,229.7,33.8,228.8z
			 M33.8,236c0-0.8,0.8-1.6,1.7-1.6c0.8,0,1.6,0.8,1.6,1.6c0,0.9-0.7,1.6-1.6,1.6C34.5,237.7,33.8,236.9,33.8,236z"/>
		<path d="M45.8,233.1v-2.8h0.7c1.1,0,1.8-0.6,1.8-1.8c0-1.4-1.1-2.4-2.6-2.4c-1.2,0-2.1,0.6-2.7,1.8l-2.7-1c0.9-2.3,3-3.7,5.3-3.7
			c3,0,5.5,2.5,5.5,5.5c0,1.1-0.3,1.8-1,3c1.3,1.2,1.7,2.1,1.7,3.9c0,3.7-2.5,6.3-6.2,6.3c-2.9,0-5.3-1.9-6-4.8l2.8-0.8
			c0.4,1.8,1.6,2.7,3.4,2.7c1.9,0,3.2-1.3,3.2-3.2c0-0.7-0.3-2.7-2.4-2.7H45.8z"/>
		<path d="M81,236.4h-5.7l-1.8,5.1h-3l6.2-18h2.9l6.2,18h-3L81,236.4z M76.4,233.5H80l-1.8-5.1L76.4,233.5z"/>
		<path d="M99.7,231l-4.2,10.4L91.4,231v10.4h-2.8v-18h2.8l4.2,10.1l4.2-10.1h2.8v18h-2.8V231z"/>
		<path d="M105.3,231.2h6.3v2.8h-6.3V231.2z"/>
		<path d="M117.8,239.4c2.1-1.7,3.3-3.2,4.4-5.5c-1,0.2-1.5,0.2-2.1,0.2c-3.4,0-6.1-2.5-6.1-5.5c0-3.1,2.7-5.5,6.1-5.5
			c3.4,0,6.1,2.5,6.1,5.7c0,4.9-2.8,10-6.9,12.9L117.8,239.4z M116.8,228.6c0,1.5,1.4,2.6,3.2,2.6c1.8,0,3.3-1.1,3.3-2.6
			c0-1.4-1.5-2.6-3.3-2.6C118.3,226,116.8,227.2,116.8,228.6z"/>
		<path d="M128.7,228.8c0-0.9,0.8-1.6,1.7-1.6c0.8,0,1.6,0.7,1.6,1.6c0,0.9-0.7,1.6-1.6,1.6C129.5,230.5,128.7,229.7,128.7,228.8z
			 M128.7,236c0-0.8,0.8-1.6,1.7-1.6c0.8,0,1.6,0.8,1.6,1.6c0,0.9-0.7,1.6-1.6,1.6C129.5,237.7,128.7,236.9,128.7,236z"/>
		<path d="M140.7,233.1v-2.8h0.7c1.1,0,1.8-0.6,1.8-1.8c0-1.4-1.1-2.4-2.6-2.4c-1.2,0-2.1,0.6-2.7,1.8l-2.7-1c0.9-2.3,3-3.7,5.3-3.7
			c3,0,5.5,2.5,5.5,5.5c0,1.1-0.3,1.8-1,3c1.3,1.2,1.7,2.1,1.7,3.9c0,3.7-2.5,6.3-6.2,6.3c-2.9,0-5.3-1.9-6-4.8l2.8-0.8
			c0.4,1.8,1.6,2.7,3.4,2.7c1.9,0,3.2-1.3,3.2-3.2c0-0.7-0.3-2.7-2.4-2.7H140.7z"/>
		<path d="M175.9,236.4h-5.7l-1.8,5.1h-3l6.2-18h2.9l6.2,18h-3L175.9,236.4z M171.3,233.5h3.6l-1.8-5.1L171.3,233.5z"/>
		<path d="M194.7,231l-4.2,10.4l-4.2-10.4v10.4h-2.8v-18h2.8l4.2,10.1l4.2-10.1h2.8v18h-2.8V231z"/>
		<path d="M68.2,232.4c0,0.6,0.1,9.3-6.4,9.3s-6.4-8.7-6.4-9.3c0-0.6-0.1-9.3,6.4-9.3S68.2,231.8,68.2,232.4z M61.8,238.9
			c1.9,0,3.5-1.8,3.5-6.4c0-4.6-1.6-6.4-3.5-6.4c-1.9,0-3.5,1.8-3.5,6.4C58.3,237,59.9,238.9,61.8,238.9z"/>
		<path d="M163.1,232.4c0,0.6,0.1,9.3-6.4,9.3s-6.4-8.7-6.4-9.3c0-0.6-0.1-9.3,6.4-9.3S163.1,231.8,163.1,232.4z M156.7,238.9
			c1.9,0,3.5-1.8,3.5-6.4c0-4.6-1.6-6.4-3.5-6.4c-1.9,0-3.5,1.8-3.5,6.4C153.2,237,154.8,238.9,156.7,238.9z"/>
	</g>
	<g>
		<path d="M74.1,263.4l-4.2,10.4l-4.2-10.4v10.4h-2.8v-18h2.8l4.2,10.1l4.2-10.1h2.8v18h-2.8V263.4z"/>
		<path d="M100.5,261.7v12.2h-2.8v-18h2.8l6.6,11.5v-11.5h2.8v18h-2.5L100.5,261.7z"/>
		<path d="M112.6,263.6h6.3v2.8h-6.3V263.6z"/>
		<path d="M124.4,263.1h5.2v2.9h-5.2v7.8h-2.8v-18h11.2v2.8h-8.3V263.1z"/>
		<path d="M138.3,266v7.8h-2.8v-18h6.5c4.1,0,5.4,3.3,5.4,5.1c0,0.7-0.2,3.3-2.8,4.5l3.2,8.4h-3.1l-2.9-7.8H138.3z M141.9,263.1
			c2.3,0,2.6-1.6,2.6-2.2c0-0.8-0.6-2.2-2.5-2.2h-3.7v4.4H141.9z"/>
		<path d="M150.8,255.8h2.9v18h-2.9V255.8z"/>
		<path d="M93.7,264.8c0,0.6,0.1,9.3-6.4,9.3c-6.5,0-6.4-8.7-6.4-9.3c0-0.6-0.1-9.3,6.4-9.3C93.8,255.5,93.7,264.2,93.7,264.8z
			 M87.3,271.3c1.9,0,3.5-1.8,3.5-6.4c0-4.6-1.6-6.4-3.5-6.4c-1.9,0-3.5,1.8-3.5,6.4C83.8,269.4,85.4,271.3,87.3,271.3z"/>
	</g>
</g>
</svg>
