<?xml version="1.0" encoding="UTF-8" standalone="no"?>
<svg
   xmlns:dc="http://purl.org/dc/elements/1.1/"
   xmlns:cc="http://creativecommons.org/ns#"
   xmlns:rdf="http://www.w3.org/1999/02/22-rdf-syntax-ns#"
   xmlns:svg="http://www.w3.org/2000/svg"
   xmlns="http://www.w3.org/2000/svg"
   xmlns:sodipodi="http://sodipodi.sourceforge.net/DTD/sodipodi-0.dtd"
   xmlns:inkscape="http://www.inkscape.org/namespaces/inkscape"
   width="80.222687"
   height="68.850883"
   viewBox="0 0 226.40625 194.31248"
   version="1.1"
   id="svg2"
   inkscape:version="0.48.2 r9819"
   sodipodi:docname="MUTCD R3-15c.svg">
  <metadata
     id="metadata62">
    <rdf:RDF>
      <cc:Work
         rdf:about="">
        <dc:format>image/svg+xml</dc:format>
        <dc:type
           rdf:resource="http://purl.org/dc/dcmitype/StillImage" />
        <dc:title></dc:title>
      </cc:Work>
    </rdf:RDF>
  </metadata>
  <defs
     id="defs60" />
  <sodipodi:namedview
     pagecolor="#ffffff"
     bordercolor="#666666"
     borderopacity="1"
     objecttolerance="10"
     gridtolerance="10"
     guidetolerance="10"
     inkscape:pageopacity="0"
     inkscape:pageshadow="2"
     inkscape:window-width="1280"
     inkscape:window-height="1004"
     id="namedview58"
     showgrid="false"
     fit-margin-top="0"
     fit-margin-left="0"
     fit-margin-right="0"
     fit-margin-bottom="0"
     inkscape:zoom="5.4735947"
     inkscape:cx="42.75468"
     inkscape:cy="39.115969"
     inkscape:window-x="-8"
     inkscape:window-y="-8"
     inkscape:window-maximized="1"
     inkscape:current-layer="svg2" />
  <polygon
     points="315,545 235,375 315,205 395,375 "
     id="polygon10"
     style="fill:none;stroke:#ffffff;stroke-width:40"
     transform="translate(-1749.5938,-2622.4068)" />
  <!-- draw the bicycle -->
  <!-- RIGHT -->
  <!-- LANE -->
  <!-- ONLY -->
  <path
     d="m 225.55402,181.4129 c 0,6.64987 -5.38692,12.04031 -12.03678,12.04031 l -200.62825,0 c -6.64986,0 -12.03678,-5.39044 -12.03678,-12.04031 l 0,-168.525469 c 0,-6.6498598 5.38692,-12.03677979 12.03678,-12.03677979 l 200.62825,0 c 6.64986,0 12.03678,5.38691999 12.03678,12.03677979 l 0,168.525469 z"
     style="fill:#ffffff;fill-opacity:1;fill-rule:nonzero;stroke:#000000;stroke-width:1.69333339;stroke-miterlimit:4;stroke-opacity:1;stroke-dasharray:none"
     id="path3192"
     inkscape:connector-curvature="0" />
  <path
     d="m 217.52836,181.41291 c 0,2.21192 -1.79917,4.01108 -4.01108,4.01108 l -200.62826,0 c -2.21192,0 -4.01814,-1.79916 -4.01814,-4.01108 l 0,-168.525479 c 0,-2.21191 1.80622,-4.0181398 4.01814,-4.0181398 l 200.62826,0 c 2.21191,0 4.01108,1.8062298 4.01108,4.0181398 l 0,168.525479 z m -4.01108,-177.2214488 -200.62826,0 c -4.79425,0 -8.69597,3.90172 -8.69597,8.6959698 l 0,168.525479 c 0,4.79778 3.90172,8.69597 8.69597,8.69597 l 200.62826,0 c 4.79777,0 8.69597,-3.89819 8.69597,-8.69597 l 0,-168.525479 c 0,-4.7942498 -3.8982,-8.6959698 -8.69597,-8.6959698"
     style="fill:#000000;fill-opacity:1;fill-rule:nonzero;stroke:none"
     id="path3200"
     inkscape:connector-curvature="0" />
  <path
     d="m 87.22633,59.919791 -7.06262,0 0,-8.9923 7.06262,0 c 1.16063,0 2.17311,0.38805 3.05505,1.15711 0.95603,0.83608 1.43933,1.95086 1.43933,3.34433 0,2.99509 -1.49577,4.49086 -4.49438,4.49086 m 2.44827,-14.95072 c -0.72319,0.55739 -1.51694,0.83256 -2.37772,0.83256 l -7.13317,0 0,-7.72231 6.74864,0 c 1.09361,0 2.01789,0.26811 2.76225,0.80434 0.94192,0.66322 1.41817,1.66158 1.41817,2.99155 0,1.30881 -0.47625,2.34245 -1.41817,3.09386 m 2.56117,3.3902 c 2.65289,-1.524 3.98286,-3.67948 3.98286,-6.48406 0,-2.59292 -0.87489,-4.72722 -2.61761,-6.40997 -1.74272,-1.67922 -3.92642,-2.51178 -6.55814,-2.51178 l -12.00503,0 0,32.0922 12.18848,0 c 2.77988,0 5.08,-0.91723 6.90033,-2.7552 1.80975,-1.8415 2.71992,-4.13455 2.71992,-6.86858 0,-3.36197 -1.53812,-5.71147 -4.61081,-7.06261 m -17.19792,0.9278 c -0.007,0 -0.007,-0.0141 -0.007,-0.0317 l 0.007,-0.0353 0,0.0353 0,0.0317 z"
     style="fill:#000000;fill-opacity:1;fill-rule:nonzero;stroke:none"
     id="path3204"
     inkscape:connector-curvature="0" />
  <path
     d="m 124.13078,54.691601 c 0,2.74108 -0.99131,5.16467 -2.98097,7.28839 -2.14489,2.26836 -4.79072,3.4043 -7.9375,3.4043 -3.17148,0 -5.81731,-1.12183 -7.9375,-3.36902 -1.9932,-2.10256 -2.98451,-4.54025 -2.98451,-7.32367 l 0,-21.73817 5.12587,0 0,21.74523 c 0,1.5628 0.56444,2.87866 1.70744,3.95463 1.13947,1.06539 2.5012,1.60514 4.0887,1.60514 1.61219,0 2.97391,-0.53975 4.10633,-1.60514 1.12889,-1.07597 1.68628,-2.39183 1.68628,-3.95463 l 0,-21.74523 5.12586,0 0,21.73817 z"
     style="fill:#000000;fill-opacity:1;fill-rule:nonzero;stroke:none"
     id="path3208"
     inkscape:connector-curvature="0" />
  <path
     d="m 151.43894,55.517101 c 0,2.89278 -1.04069,5.25639 -3.11503,7.10494 -2.08139,1.83798 -4.63902,2.76225 -7.6835,2.76225 -3.85233,0 -6.84741,-1.39347 -8.9923,-4.17688 -0.90311,-1.15712 -1.58397,-2.55412 -2.06022,-4.18042 l 4.7625,-1.50989 c 0.88194,3.15736 3.00213,4.74133 6.36763,4.74133 1.43228,0 2.69875,-0.4198 3.79589,-1.25589 1.19945,-0.92075 1.79564,-2.08138 1.79564,-3.47133 0,-1.82033 -1.36172,-3.26672 -4.08516,-4.34269 -2.52942,-0.98425 -5.05531,-1.9685 -7.58473,-2.95275 -2.72344,-1.5875 -4.07811,-3.90173 -4.07811,-6.93914 0,-2.59998 0.74436,-4.64609 2.24367,-6.13834 1.71097,-1.69686 4.28625,-2.54352 7.73289,-2.54352 4.49086,0 7.7223,2.16252 9.69433,6.49816 l -4.78367,1.50636 c -0.92075,-1.91558 -2.54705,-2.87866 -4.88244,-2.87866 -3.25261,0 -4.87892,1.17827 -4.87892,3.53483 0,1.524 1.3582,2.74108 4.07811,3.66536 4.26509,1.4605 6.7945,2.43064 7.58473,2.92806 2.72344,1.70744 4.08869,4.25802 4.08869,7.64822"
     style="fill:#000000;fill-opacity:1;fill-rule:nonzero;stroke:none"
     id="path3212"
     inkscape:connector-curvature="0" />
  <path
     d="m 81.42703,113.20335 -19.90725,0 0,-32.102779 5.12586,0 0,26.973389 14.78139,0 0,5.12939 z"
     style="fill:#000000;fill-opacity:1;fill-rule:nonzero;stroke:none"
     id="path3216"
     inkscape:connector-curvature="0" />
  <path
     d="m 100.38846,99.085161 -3.36902,-9.80017 -3.33375,9.80017 6.70277,0 z m 10.2729,14.118159 -5.4222,0 -3.07975,-8.9923 -10.30817,0 -3.01625,8.9923 -5.45747,0 11.04194,-32.102779 5.19642,0 11.04548,32.102779 z"
     style="fill:#000000;fill-opacity:1;fill-rule:nonzero;stroke:none"
     id="path3220"
     inkscape:connector-curvature="0" />
  <path
     d="m 137.25727,113.20335 -4.91419,0 -11.73339,-21.286609 0,21.286609 -5.12586,0 0,-32.102779 4.98122,0 11.66636,21.152559 0,-21.152559 5.12586,0 0,32.102779 z"
     style="fill:#000000;fill-opacity:1;fill-rule:nonzero;stroke:none"
     id="path3224"
     inkscape:connector-curvature="0" />
  <path
     d="m 164.88014,113.20335 -19.89667,0 0,-32.102779 19.25814,0 0,5.12586 -14.13227,0 0,7.72937 9.76841,0 0,5.12938 -9.76841,0 0,8.988779 14.7708,0 0,5.12939 z"
     style="fill:#000000;fill-opacity:1;fill-rule:nonzero;stroke:none"
     id="path3228"
     inkscape:connector-curvature="0" />
  <path
     d="m 61.20228,147.2323 -3.36903,-9.79664 -3.33375,9.79664 6.70278,0 z m 10.27641,14.11816 -5.42572,0 -3.07975,-8.9923 -10.30464,0 -3.01978,8.9923 -5.45747,0 11.04547,-32.10277 5.19642,0 11.04547,32.10277 z"
     style="fill:#000000;fill-opacity:1;fill-rule:nonzero;stroke:none"
     id="path3232"
     inkscape:connector-curvature="0" />
  <path
     d="m 98.10636,161.35044 -5.12586,0 0,-14.11817 -11.58875,0 0,14.11817 -5.12586,0 0,-32.10278 5.12586,0 0,12.85875 11.58875,0 0,-12.85875 5.12586,0 0,32.10278 z"
     style="fill:#000000;fill-opacity:1;fill-rule:nonzero;stroke:none"
     id="path3236"
     inkscape:connector-curvature="0" />
  <path
     d="m 125.69675,161.35044 -19.9002,0 0,-32.10278 19.25814,0 0,5.12939 -14.13228,0 0,7.72936 9.77195,0 0,5.12586 -9.77195,0 0,8.9923 14.77434,0 0,5.12587 z"
     style="fill:#000000;fill-opacity:1;fill-rule:nonzero;stroke:none"
     id="path3240"
     inkscape:connector-curvature="0" />
  <path
     d="m 145.3045,147.2323 -3.36903,-9.79664 -3.33375,9.79664 6.70278,0 z m 10.27289,14.11816 -5.42219,0 -3.07975,-8.9923 -10.30817,0 -3.01625,8.9923 -5.45747,0 11.04547,-32.10277 5.19642,0 11.04194,32.10277 z"
     style="fill:#000000;fill-opacity:1;fill-rule:nonzero;stroke:none"
     id="path3244"
     inkscape:connector-curvature="0" />
  <path
     d="m 177.08273,145.30257 c 0,-4.75191 -0.91017,-7.95866 -2.73403,-9.60966 -0.96661,-0.87489 -2.38478,-1.31586 -4.25098,-1.31586 l -4.60375,0 0,21.84752 4.48028,0 c 1.88736,0 3.31964,-0.44097 4.31095,-1.31586 1.86619,-1.65452 2.79753,-4.85069 2.79753,-9.60614 m 5.12586,0 c 0,6.80156 -1.78506,11.48645 -5.3587,14.0582 -1.86972,1.32644 -4.15572,1.98967 -6.87564,1.98967 l -9.60614,0 0,-32.10278 9.60614,0 c 2.71992,0 5.00592,0.67733 6.87564,2.02847 3.57364,2.54 5.3587,7.21783 5.3587,14.02644"
     style="fill:#000000;fill-opacity:1;fill-rule:nonzero;stroke:none"
     id="path3248"
     inkscape:connector-curvature="0" />
</svg>
