<?xml version="1.0" encoding="UTF-8" standalone="no"?>
<!-- Created with Inkscape (http://www.inkscape.org/) -->

<svg
   xmlns:dc="http://purl.org/dc/elements/1.1/"
   xmlns:cc="http://creativecommons.org/ns#"
   xmlns:rdf="http://www.w3.org/1999/02/22-rdf-syntax-ns#"
   xmlns:svg="http://www.w3.org/2000/svg"
   xmlns="http://www.w3.org/2000/svg"
   xmlns:sodipodi="http://sodipodi.sourceforge.net/DTD/sodipodi-0.dtd"
   xmlns:inkscape="http://www.inkscape.org/namespaces/inkscape"
   width="73.71875"
   height="102.96875"
   id="svg4779"
   version="1.1"
   inkscape:version="0.48.2 r9819"
   sodipodi:docname="MUTCD R3-12c.svg">
  <defs
     id="defs4781" />
  <sodipodi:namedview
     id="base"
     pagecolor="#ffffff"
     bordercolor="#666666"
     borderopacity="1.0"
     inkscape:pageopacity="0.0"
     inkscape:pageshadow="2"
     inkscape:zoom="5.6568543"
     inkscape:cx="25.623555"
     inkscape:cy="56.06373"
     inkscape:document-units="px"
     inkscape:current-layer="layer1"
     showgrid="false"
     inkscape:window-width="1280"
     inkscape:window-height="1004"
     inkscape:window-x="-8"
     inkscape:window-y="-8"
     inkscape:window-maximized="1"
     fit-margin-top="0"
     fit-margin-left="0"
     fit-margin-right="0"
     fit-margin-bottom="0" />
  <metadata
     id="metadata4784">
    <rdf:RDF>
      <cc:Work
         rdf:about="">
        <dc:format>image/svg+xml</dc:format>
        <dc:type
           rdf:resource="http://purl.org/dc/dcmitype/StillImage" />
        <dc:title></dc:title>
      </cc:Work>
    </rdf:RDF>
  </metadata>
  <g
     inkscape:label="Layer 1"
     inkscape:groupmode="layer"
     id="layer1"
     transform="translate(-401.3125,3112.875)">
    <path
       inkscape:connector-curvature="0"
       d="m 406.17025,-3010.2059 63.98375,0 c 2.49375,0 4.57,-2.075 4.57,-4.57 l 0,-93.235 c -10e-4,-2.495 -2.07625,-4.57 -4.57,-4.57 l -63.98375,0 c -2.49625,0 -4.57125,2.075 -4.57125,4.57 l 0,93.235 c 0,2.675 2.0825,4.3187 4.57125,4.57"
       style="fill:#ffffff;fill-opacity:1;fill-rule:nonzero;stroke:#000000;stroke-width:0.6;stroke-linecap:butt;stroke-linejoin:miter;stroke-miterlimit:4;stroke-opacity:1;stroke-dasharray:none"
       id="path3212" />
    <path
       d="m 471.67019,-3014.7888 c 0,0.805 -0.685,1.4875 -1.4875,1.4988 l -63.9875,0 c -0.815,0 -1.4875,-0.6938 -1.4875,-1.4988 l 0,-65.285 c 0,-0.8175 0.6725,-1.485 1.4875,-1.4899 l 63.9875,0 c 0.80875,0 1.485,0.6837 1.4875,1.4899 l 0,65.285 z m -1.4875,-96.645 -63.9875,0 c -1.8625,0 -3.4075,1.5462 -3.4075,3.41 l 0,93.235 c 0,1.8612 1.54875,3.4087 3.4075,3.4087 l 63.9875,0 c 1.85875,0 3.4075,-1.5487 3.4075,-3.4087 l 0,-93.235 c 0,-1.8625 -1.54875,-3.41 -3.4075,-3.41"
       style="fill:#000000;fill-opacity:1;fill-rule:evenodd;stroke:none"
       id="path3172"
       inkscape:connector-curvature="0" />
    <path
       d="m 438.18756,-3108.8413 6.09375,12.1875 -6.09375,12.1875 -6.09375,-12.1875 6.09375,-12.1875 z m 0,3.895 4.14875,8.2925 -4.14875,8.2951 -4.1475,-8.2951 4.1475,-8.2925 z"
       style="fill:#ffffff;fill-opacity:1;fill-rule:evenodd;stroke:none"
       id="path3176"
       inkscape:connector-curvature="0" />
    <path
       d="m 431.19269,-3067.4625 0,-4.19 -3.51626,0 0,4.19 -1.51749,0 0,-9.6337 1.51749,0 0,3.8887 3.51626,0 0,-3.8887 1.52374,0 0,9.6337 -1.52374,0 z"
       style="fill:#000000;fill-opacity:1;fill-rule:nonzero;stroke:none"
       id="path4630"
       inkscape:connector-curvature="0" />
    <path
       d="m 439.54281,-3074.9662 c -0.30625,-0.5062 -0.67625,-0.71 -1.25,-0.7425 -0.745,-0.035 -1.21625,0.3375 -1.55625,1.1825 -0.23875,0.575 -0.37,1.4537 -0.37,2.265 0,1.0138 0.2025,2.0625 0.57375,2.67 0.305,0.5075 0.71,0.7438 1.315,0.7438 0.71375,0 1.15,-0.3726 1.49,-1.2176 0.2025,-0.5062 0.37125,-1.4537 0.37125,-2.1962 0,-1.0825 -0.20375,-2.0625 -0.57375,-2.705 m 1.0475,6.5925 c -0.54,0.7437 -1.31875,1.0812 -2.335,1.0812 -1.35,0 -2.195,-0.5412 -2.77,-1.7237 -0.40625,-0.8112 -0.675,-2.0963 -0.675,-3.245 0,-1.5887 0.40625,-3.01 1.0475,-3.9212 0.57375,-0.7438 1.35,-1.0813 2.46875,-1.0813 1.21625,0 2.06,0.54 2.66875,1.7225 0.4075,0.8462 0.64125,2.0625 0.64125,3.28 0,1.52 -0.37,3.0412 -1.04625,3.8875"
       style="fill:#000000;fill-opacity:1;fill-rule:nonzero;stroke:none"
       id="path4634"
       inkscape:connector-curvature="0" />
    <path
       d="m 447.14781,-3067.4625 -1.185,0 -3.04125,-9.6337 1.58625,0 2.06375,6.4237 2.02875,-6.4237 1.62125,0 -3.07375,9.6337 z"
       style="fill:#000000;fill-opacity:1;fill-rule:nonzero;stroke:none"
       id="path4638"
       inkscape:connector-curvature="0" />
    <path
       d="m 410.17281,-3060.2037 -1.4675,0 0,2.5125 1.4675,0 c 0.83625,0 1.29125,-0.4538 1.29125,-1.2563 0,-0.7662 -0.525,-1.2562 -1.29125,-1.2562 m 1.22,8.5487 -1.325,-4.6749 -1.3625,0 0,4.6749 -1.43125,0 0,-9.9437 2.96625,0 c 1.5725,0 2.615,1.0462 2.615,2.6512 0,1.1863 -0.48375,2.0588 -1.42875,2.4076 l 1.42875,4.8849 -1.4625,0 z"
       style="fill:#000000;fill-opacity:1;fill-rule:nonzero;stroke:none"
       id="path4642"
       inkscape:connector-curvature="0" />
    <path
       d="m 414.00769,-3051.655 0,-9.9437 4.675,0 0,1.395 -3.2425,0 0,2.5125 2.05874,0 0,1.3613 -2.05874,0 0,3.2799 3.62874,0 0,1.395 -5.06124,0 z"
       style="fill:#000000;fill-opacity:1;fill-rule:nonzero;stroke:none"
       id="path4646"
       inkscape:connector-curvature="0" />
    <path
       d="m 422.52281,-3051.48 c -1.745,0 -2.7925,-1.465 -2.7925,-3.1062 l 1.39625,0 c 0,0.8388 0.42,1.71 1.39625,1.71 0.77,0 1.3975,-0.6963 1.3975,-1.5 0,-0.5575 -0.21,-0.9762 -0.80375,-1.43 -0.2075,-0.21 0.34875,0.1737 -1.675,-1.1875 -0.8025,-0.5588 -1.2225,-1.325 -1.2225,-2.1975 0,-1.4312 1.1175,-2.5825 2.54875,-2.5825 1.39375,0 2.475,1.0812 2.51125,2.5825 l -1.35875,0 c -0.035,-0.6975 -0.5225,-1.1513 -1.1525,-1.1513 -0.6625,0 -1.1875,0.4875 -1.1875,1.1513 0,0.4875 0.21,0.7675 0.9425,1.1862 1.9175,1.1163 2.75625,2.1988 2.75625,3.6288 0,1.605 -1.22,2.8962 -2.75625,2.8962"
       style="fill:#000000;fill-opacity:1;fill-rule:nonzero;stroke:none"
       id="path4650"
       inkscape:connector-curvature="0" />
    <path
       d="m 428.91031,-3060.2737 0,8.6187 -1.43125,0 0,-8.6187 -1.81625,0 0,-1.325 5.05875,0 0,1.325 -1.81125,0 z"
       style="fill:#000000;fill-opacity:1;fill-rule:nonzero;stroke:none"
       id="path4654"
       inkscape:connector-curvature="0" />
    <path
       d="m 434.45656,-3060.2037 -1.465,0 0,2.5125 1.465,0 c 0.835,0 1.29,-0.4538 1.29,-1.2563 0,-0.7662 -0.5225,-1.2562 -1.29,-1.2562 m 1.21875,8.5487 -1.32375,-4.6749 -1.36,0 0,4.6749 -1.4325,0 0,-9.9437 2.96875,0 c 1.5675,0 2.615,1.0462 2.615,2.6512 0,1.1863 -0.48875,2.0588 -1.43125,2.4076 l 1.43125,4.8849 -1.4675,0 z"
       style="fill:#000000;fill-opacity:1;fill-rule:nonzero;stroke:none"
       id="path4658"
       inkscape:connector-curvature="0" />
    <path
       d="m 438.29506,-3061.5991 1.39625,0 0,9.9438 -1.39625,0 0,-9.9438 z"
       style="fill:#000000;fill-opacity:1;fill-rule:nonzero;stroke:none"
       id="path4660"
       inkscape:connector-curvature="0" />
    <path
       d="m 445.30906,-3058.9475 c -0.13875,-0.9762 -0.525,-1.4312 -1.18625,-1.4312 -1.1525,0 -1.5725,0.9075 -1.5725,3.49 0,2.8612 0.4875,4.0125 1.71125,4.0125 0.8375,0 1.0475,-0.6963 1.0475,-1.43 l 1.43,0 c -0.0337,1.6387 -1.08125,2.8262 -2.4775,2.8262 -2.12875,0 -3.07125,-1.7112 -3.07125,-5.3737 0,-3.21 1.01125,-4.92 2.96625,-4.92 0.80375,0 1.50125,0.3487 1.955,1.0125 0.38375,0.4875 0.5225,0.9062 0.6275,1.8137 l -1.43,0 z"
       style="fill:#000000;fill-opacity:1;fill-rule:nonzero;stroke:none"
       id="path4664"
       inkscape:connector-curvature="0" />
    <path
       d="m 450.68281,-3060.2737 0,8.6187 -1.43125,0 0,-8.6187 -1.81625,0 0,-1.325 5.06125,0 0,1.325 -1.81375,0 z"
       style="fill:#000000;fill-opacity:1;fill-rule:nonzero;stroke:none"
       id="path4668"
       inkscape:connector-curvature="0" />
    <path
       d="m 453.33131,-3061.5991 1.39625,0 0,9.9438 -1.39625,0 0,-9.9438 z"
       style="fill:#000000;fill-opacity:1;fill-rule:nonzero;stroke:none"
       id="path4670"
       inkscape:connector-curvature="0" />
    <path
       d="m 460.38156,-3059.1224 c -0.24375,-0.8713 -0.62875,-1.2563 -1.2225,-1.2563 -0.6275,0 -1.01375,0.385 -1.2575,1.2212 -0.24375,0.7688 -0.3125,1.4301 -0.3125,2.5475 0,1.0825 0.105,1.71 0.3125,2.5138 0.24375,0.8362 0.63,1.22 1.2575,1.22 0.59375,0 0.97875,-0.3838 1.2225,-1.22 0.245,-0.8038 0.3125,-1.3963 0.3125,-2.5475 0,-1.1175 -0.10375,-1.745 -0.3125,-2.4787 m 1.11625,5.9312 c -0.48875,1.1887 -1.22,1.7112 -2.33875,1.7112 -1.18625,0 -1.8825,-0.5225 -2.37125,-1.7112 -0.41875,-0.9763 -0.55875,-1.9175 -0.55875,-3.4525 0,-1.5013 0.14,-2.5138 0.55875,-3.455 0.525,-1.1862 1.21875,-1.675 2.37125,-1.675 1.1525,0 1.85,0.4888 2.33875,1.71 0.42,0.9775 0.55875,1.9187 0.55875,3.42 0,1.535 -0.13875,2.5112 -0.55875,3.4525"
       style="fill:#000000;fill-opacity:1;fill-rule:nonzero;stroke:none"
       id="path4674"
       inkscape:connector-curvature="0" />
    <path
       d="m 468.02406,-3051.655 -3.07125,-6.6637 0,6.6637 -1.42875,0 0,-9.9437 1.42875,0 2.72125,5.9662 0,-5.9662 1.43125,0 0,9.9437 -1.08125,0 z"
       style="fill:#000000;fill-opacity:1;fill-rule:nonzero;stroke:none"
       id="path4678"
       inkscape:connector-curvature="0" />
    <path
       d="m 422.67406,-3036.1476 0,-9.6425 5.68375,0 0,1.525 -4.16,0 0,2.3675 2.805,0 0,1.5538 -2.805,0 0,2.64 4.4675,0 0,1.5562 -5.99125,0 z"
       style="fill:#000000;fill-opacity:1;fill-rule:nonzero;stroke:none"
       id="path4682"
       inkscape:connector-curvature="0" />
    <path
       d="m 435.49656,-3036.1476 -3.68375,-6.5312 0,6.5312 -1.52625,0 0,-9.6425 1.52625,0 3.5175,6.1563 0,-6.1563 1.52125,0 0,9.6425 -1.355,0 z"
       style="fill:#000000;fill-opacity:1;fill-rule:nonzero;stroke:none"
       id="path4686"
       inkscape:connector-curvature="0" />
    <path
       d="m 443.38281,-3043.8612 c -0.2375,-0.235 -0.57625,-0.4037 -0.98125,-0.4037 l -1.72875,0 0,6.5612 1.52375,0 c 0.51,0 0.81,-0.1025 1.08625,-0.3725 0.57125,-0.5738 0.87875,-1.625 0.87875,-2.9088 0,-1.2875 -0.3075,-2.3674 -0.77875,-2.8762 m 0.64,7.1737 c -0.37125,0.3363 -0.8775,0.5075 -1.3875,0.54 l -0.54125,0 -2.9425,0 0,-9.6424 3.115,0 c 0.98,0 1.3525,0.1037 1.86125,0.5099 1.015,0.8763 1.58875,2.4025 1.58875,4.295 0,1.9276 -0.6075,3.4501 -1.69375,4.2975"
       style="fill:#000000;fill-opacity:1;fill-rule:nonzero;stroke:none"
       id="path4690"
       inkscape:connector-curvature="0" />
    <path
       d="m 452.75531,-3036.7212 c -0.5425,0.4738 -1.28625,0.74 -2.1025,0.74 -1.655,0 -2.87375,-0.98 -3.515,-2.4337 l 1.455,-0.5413 c 0.405,0.9163 1.1525,1.4213 2.06,1.4213 0.88125,0 1.495,-0.6088 1.495,-1.4213 0,-1.2875 -1.495,-1.4863 -2.7425,-1.9962 -0.57375,-0.2401 -1.86,-0.8125 -1.86,-2.4 0,-1.8963 1.28625,-2.6088 3.0075,-2.6088 1.355,0 2.27125,0.78 2.7425,1.9638 l -1.35125,0.4074 c 0,0 -0.34375,-0.8137 -1.4225,-0.8449 -0.71125,-0.037 -1.555,0.2349 -1.49,1.1149 0.135,1.7938 4.67375,0.61 4.67375,4.3988 0,0.8813 -0.345,1.6575 -0.95,2.2"
       style="fill:#000000;fill-opacity:1;fill-rule:nonzero;stroke:none"
       id="path4694"
       inkscape:connector-curvature="0" />
    <path
       d="m 442.11531,-3019.05 0,-5.5812 -2.23125,5.5812 -2.23375,-5.5812 0,5.5812 -1.52125,0 0,-9.645 1.52125,0 2.23375,5.4138 2.23125,-5.4138 1.52125,0 0,9.645 -1.52125,0 z"
       style="fill:#000000;fill-opacity:1;fill-rule:nonzero;stroke:none"
       id="path4698"
       inkscape:connector-curvature="0" />
    <path
       d="m 445.94131,-3028.6953 1.5525,0 0,9.645 -1.5525,0 0,-9.645 z"
       style="fill:#000000;fill-opacity:1;fill-rule:nonzero;stroke:none"
       id="path4700"
       inkscape:connector-curvature="0" />
    <path
       d="m 449.79656,-3019.05 0,-9.645 1.5225,0 0,8.2226 4.46875,0 0,1.4224 -5.99125,0 z"
       style="fill:#000000;fill-opacity:1;fill-rule:nonzero;stroke:none"
       id="path4704"
       inkscape:connector-curvature="0" />
    <path
       d="m 457.20531,-3019.05 0,-9.645 5.68625,0 0,1.5213 -4.1625,0 0,2.3712 2.8075,0 0,1.5576 -2.8075,0 0,2.6374 4.465,0 0,1.5575 -5.98875,0 z"
       style="fill:#000000;fill-opacity:1;fill-rule:nonzero;stroke:none"
       id="path4708"
       inkscape:connector-curvature="0" />
    <path
       d="m 414.06156,-3020.7649 0,-7.8176 -0.87625,0 0,-1.2187 0.1,0 c 0.405,0 0.84625,-0.235 1.115,-0.6063 l 1.21875,0 0,9.6426 -1.5575,0 z"
       style="fill:#000000;fill-opacity:1;fill-rule:nonzero;stroke:none"
       id="path4712"
       inkscape:connector-curvature="0" />
    <path
       d="m 423.79531,-3017.5887 c 0.0362,-1.1162 0.27625,-2.0288 0.8175,-2.945 0.405,-0.745 1.01375,-1.3538 1.69,-1.86 0.17125,-0.1 0.3025,-0.2037 0.43625,-0.3038 l 0.50875,-0.2712 0.48,-0.27 0.47125,-0.2725 c 0.36875,-0.2375 0.64,-0.6438 0.64,-1.0475 0,-0.7113 -0.81,-1.2863 -1.76,-1.2863 -0.97875,0 -1.5875,0.4738 -1.76,1.3513 l -1.52375,-0.335 c 0.34375,-1.5925 1.59375,-2.5738 3.28375,-2.5738 1.82875,0 3.28375,1.2875 3.28375,2.8763 0,0.745 -0.34,1.49 -0.98125,2.065 -0.135,0.1025 -0.27125,0.2025 -0.40625,0.27 l -0.4725,0.3037 -0.50875,0.2738 -0.47375,0.2675 c -0.915,0.5425 -1.42,1.1188 -1.89375,2.2025 l 4.73625,0 0,1.555 -6.5675,0 z"
       style="fill:#000000;fill-opacity:1;fill-rule:nonzero;stroke:none"
       id="path4716"
       inkscape:connector-curvature="0" />
    <path
       d="m 423.22906,-3030.4625 -7.3175,12.8338 1.55375,0 7.31625,-12.8338 -1.5525,0 z"
       style="fill:#000000;fill-opacity:1;fill-rule:evenodd;stroke:none"
       id="path4720"
       inkscape:connector-curvature="0" />
  </g>
</svg>
