<?xml version="1.0" encoding="utf-8"?>
<!-- Generator: Adobe Illustrator 27.7.0, SVG Export Plug-In . SVG Version: 6.00 Build 0)  -->
<svg version="1.1" id="For_Sheets" xmlns="http://www.w3.org/2000/svg" xmlns:xlink="http://www.w3.org/1999/xlink" x="0px" y="0px"
	 viewBox="0 0 562.1 346.1" style="enable-background:new 0 0 562.1 346.1;" xml:space="preserve">
<style type="text/css">
	.st0{fill:#FFFFFF;}
	.st1{fill-rule:evenodd;clip-rule:evenodd;fill:#FFFFFF;}
</style>
<g>
	<g>
		<path class="st0" d="M43.5,346c-23.9,0-43.3-19.4-43.3-43.3V43.4c0-23.9,19.4-43.3,43.3-43.3h475.2c23.9,0,43.3,19.4,43.3,43.3
			v259.2c0,23.9-19.4,43.3-43.3,43.3H43.5z"/>
		<path d="M518.7,0.2c23.8,0,43.2,19.4,43.2,43.2v259.2c0,23.8-19.4,43.2-43.2,43.2H43.5c-23.8,0-43.2-19.4-43.2-43.2V43.4
			c0-23.8,19.4-43.2,43.2-43.2H518.7 M518.7,0H43.5C19.5,0,0,19.5,0,43.4v259.2c0,24,19.5,43.4,43.5,43.4h475.2
			c24,0,43.5-19.5,43.5-43.4V43.4C562.1,19.5,542.6,0,518.7,0L518.7,0z"/>
	</g>
	<path d="M518.7,341.4H43.4c-21.3,0-38.7-17.4-38.7-38.7V43.5c0-21.3,17.4-38.7,38.7-38.7h475.2c21.3,0,38.7,17.4,38.7,38.7v259.2
		C557.3,323.9,539.9,341.4,518.7,341.4z M518.7,10.2H129.8V336h388.8c18.3,0,33.3-15,33.3-33.3V43.5C552,25.1,537,10.2,518.7,10.2z"
		/>
	<path class="st1" d="M67.3,86.7l43.2,86.4l-43.2,86.4L24.1,173L67.3,86.7z M67.3,231.3L96.4,173l-29.1-58.2L38.2,173L67.3,231.3z"
		/>
	<path d="M393.7,263.1c-0.4,0-0.7,0-1.1,0.1l0,0l-39.7,9.5v-31.2h-24v31.2l-39.7-9.5l0,0c-0.4-0.1-0.7-0.1-1.1-0.1
		c-2.7,0-4.8,2.1-4.8,4.8c0,1.4,0.6,2.7,1.7,3.6l0,0l55.9,49.2l55.9-49.2l0,0c1-0.9,1.7-2.2,1.7-3.6
		C398.5,265.2,396.4,263.1,393.7,263.1z"/>
	<g>
		<path d="M244.7,147.8v-43.2h16.4c6.8,0,12,4.7,12,10.9c0,4.2-2,7.4-6.1,9.7c4.5,2.1,7.1,5.8,7.1,10.5c0,3.1-1.7,12.1-13,12.1
			H244.7z M261.5,111.5h-10v10.6h8.7c3.9,0,6-3.4,6-6.2C266.2,113,264.6,111.5,261.5,111.5z M251.5,129.1v11.8h10.3
			c3.5,0,5.3-1.7,5.3-5c0-3.3-2.3-6.8-5.8-6.8H251.5z"/>
		<path d="M281.5,104.6h25.4v6.8h-18.6v10.6h12.6v7h-12.6v11.8h20v7h-26.8V104.6z"/>
		<path d="M330.4,103.9c6.9,0,10.8,2.6,13.7,9.5l-6.5,2.6c-1.8-3.8-3.6-5.2-7-5.2c-9.5,0-8.9,14.5-8.9,15.5c0,1.6-0.4,15.3,8,15.3
			c4.4,0,7.6-2.7,7.6-6.7v-1.8h-7.9v-6.8h14.7v8.6c0,7.9-5.8,13.6-13.6,13.6c-1.6,0-15.8,1.3-15.8-22.4
			C314.7,122.9,314.9,103.9,330.4,103.9z"/>
		<path d="M353.7,104.6h6.9v43.2h-6.9V104.6z"/>
		<path d="M377.7,118.6v29.3h-6.8v-43.2h6.8l15.8,27.6v-27.6h6.8v43.2h-6.1L377.7,118.6z"/>
		<path d="M407.7,137.7l6.5-2.4c1.8,4.1,5.2,6.4,9.2,6.4c3.9,0,6.7-2.7,6.7-6.4c0-5.8-6.7-6.7-12.3-8.9c-2.6-1.1-8.3-3.6-8.3-10.8
			c0-8.5,5.8-11.7,13.5-11.7c6.1,0,10.2,3.5,12.3,8.8l-6.1,1.8c-0.7-1.7-3.1-3.8-6.4-3.8c-6.2,0-6.7,3.3-6.7,4.4
			c0,4,3.5,4.8,9.1,6.6c5.8,1.8,11.8,4.5,11.8,13.7c0,9.3-7.6,13.2-13.6,13.2C416,148.6,410.6,144.2,407.7,137.7z"/>
	</g>
	<path d="M257.1,181.2h-3.9v-5.5h0.4c1.8,0,3.8-1.1,5-2.7h5.4v43.2h-6.9V181.2z"/>
	<g>
		<path d="M334.1,191.2l-10,25l-10-25v25h-6.8v-43.2h6.8l10,24.3l10-24.3h6.8v43.2h-6.8V191.2z"/>
		<path d="M351.3,173.1h6.9v43.2h-6.9V173.1z"/>
		<path d="M368.5,173.1h6.8v36.8h20v6.4h-26.8V173.1z"/>
		<path d="M401.8,173.1h25.4v6.8h-18.6v10.6h12.6v7h-12.6v11.8h20v7h-26.8V173.1z"/>
	</g>
	<g>
		<path d="M303.7,72.5h21.2v7h-29.4c0.2-5,1.2-9.1,3.6-13.2c7.6-12.7,18.9-11.4,18.9-18c0-3.2-3.6-5.8-7.9-5.8
			c-4.4,0-7.1,2.1-7.9,6.1l-6.8-1.5c1.5-7.1,7.1-11.5,14.7-11.5c8.2,0,14.7,5.8,14.7,12.9c0,5.2-3,8.5-6.8,10.8
			C312.3,62.8,306.9,64.4,303.7,72.5z"/>
		<path d="M348.4,72.5h-6.8V61.7h-11.1v-7h11.1V44h6.8v10.8h11.1v7h-11.1V72.5z"/>
		<g>
			<path d="M181.2,60.7h-15.8v18.8h-6.8V36.2h6.8v17.4h15.8V36.2h6.8v43.2h-6.8V60.7z"/>
			<path d="M247.6,79.5l-13.7-43.2h7.1l9.3,28.8l9.1-28.8h7.3l-13.8,43.2H247.6z"/>
			<path d="M228.3,57.9c0,1.5,0.3,22.4-15.3,22.4s-15.3-20.8-15.3-22.4c0-1.5-0.3-22.4,15.3-22.4S228.3,56.3,228.3,57.9z M213,73.2
				c4.7,0,8.4-4.4,8.4-15.4c0-11-3.8-15.4-8.4-15.4c-4.7,0-8.4,4.4-8.4,15.4C204.5,68.8,208.3,73.2,213,73.2z"/>
		</g>
		<g>
			<path d="M426.2,50.2v29.3h-6.8V36.3h6.8L442,63.8V36.3h6.8v43.2h-6.1L426.2,50.2z"/>
			<path d="M457.1,36.3h6.8v36.8h20v6.4h-26.8V36.3z"/>
			<path d="M508.1,79.5h-6.9V60.7L486,36.3h8.2l10.4,16.7l10.5-16.7h8.1l-15.1,24.4V79.5z"/>
			<path d="M411.8,57.9c0,1.5,0.3,22.4-15.3,22.4c-15.7,0-15.3-20.8-15.3-22.4c0-1.5-0.3-22.4,15.3-22.4
				C412.1,35.5,411.8,56.3,411.8,57.9z M396.5,73.2c4.7,0,8.4-4.4,8.4-15.4c0-11-3.8-15.4-8.4-15.4c-4.7,0-8.4,4.4-8.4,15.4
				C388.1,68.8,391.9,73.2,396.5,73.2z"/>
		</g>
	</g>
</g>
</svg>
