<?xml version="1.0" encoding="utf-8"?>
<!-- Generator: Adobe Illustrator 27.7.0, SVG Export Plug-In . SVG Version: 6.00 Build 0)  -->
<svg version="1.1" xmlns="http://www.w3.org/2000/svg" xmlns:xlink="http://www.w3.org/1999/xlink" x="0px" y="0px"
	 viewBox="0 0 475.7 259.7" style="enable-background:new 0 0 475.7 259.7;" xml:space="preserve">
<style type="text/css">
	.st0{fill-rule:evenodd;clip-rule:evenodd;fill:#FFFFFF;}
	.st1{fill-rule:evenodd;clip-rule:evenodd;}
</style>
<g id="Layer_1">
</g>
<g id="For_Sheets">
	<g>
		<g>
			<path class="st0" d="M16.4,259.6c-9,0-16.3-7.3-16.3-16.3V16.5c0-9,7.3-16.3,16.3-16.3h442.8c9,0,16.3,7.3,16.3,16.3v226.8
				c0,9-7.3,16.3-16.3,16.3H16.4z"/>
			<path d="M459.2,0.2c8.9,0,16.2,7.3,16.2,16.2v226.8c0,8.9-7.3,16.2-16.2,16.2H16.4c-8.9,0-16.2-7.3-16.2-16.2V16.5
				c0-8.9,7.3-16.2,16.2-16.2H459.2 M459.2,0H16.4C7.4,0,0,7.4,0,16.5v226.8c0,9.1,7.4,16.5,16.4,16.5h442.8
				c9.1,0,16.5-7.4,16.5-16.5V16.5C475.7,7.4,468.3,0,459.2,0L459.2,0z"/>
		</g>
		<path class="st1" d="M16.4,4.7h442.8c6.5,0,11.7,5.2,11.7,11.7v226.8c0,6.5-5.2,11.7-11.7,11.7H16.4c-6.5,0-11.7-5.2-11.7-11.7
			V16.4C4.7,10,10,4.7,16.4,4.7z M11,243.2c0,3,2.4,5.4,5.4,5.4h442.8c3,0,5.4-2.4,5.4-5.4V16.4c0-3-2.4-5.4-5.4-5.4H69.5v87.3H11
			V243.2z"/>
		<path class="st0" d="M37.2,15.5l18,36l-18,36l-18-36L37.2,15.5z M37.2,75.5l12-23.9l-12-23.9l-12,23.9L37.2,75.5z"/>
		<g>
			<path d="M110.2,56.6H93.9v15.7h-6.5v-36h6.5v13.9h16.2V36.3h6.5v36h-6.5V56.6z"/>
			<path d="M124.9,54.2c0-11.5,5.8-18.6,15.3-18.6c9,0,14.9,7.4,14.9,18.4c0,11.2-5.8,18.8-14.9,18.8
				C129.6,72.9,124.9,63.2,124.9,54.2z M131.5,54.2c0,7.7,3.3,12.2,8.7,12.2c6.8,0,8.5-6.7,8.5-12.2c0-7.6-3.1-12.1-8.5-12.1
				C134.8,42.1,131.5,46.6,131.5,54.2z"/>
			<path d="M173.3,72.2l-13.1-36h6.8l9.7,26.3l9.7-26.3h6.9l-13.2,36H173.3z"/>
		</g>
		<g>
			<path d="M127.6,176.7h-5.4v12.5h-4.5v-28.8h10.9c6.8,0,8.7,5.5,8.7,8.1C137.3,170.3,136.3,176.7,127.6,176.7z M122.2,172.1h6.4
				c3.6,0,4-2.6,4-3.5c0-1.4-1-3.5-3.8-3.5h-6.6V172.1z"/>
			<path d="M141.6,160.5h17v4.5h-12.4v7.1h8.4v4.6h-8.4v7.9h13.3v4.6h-17.9V160.5z"/>
			<path d="M168.9,176.7v12.5h-4.5v-28.8h10.4c6.6,0,8.6,5.3,8.6,8.1c0,1.1-0.4,5.3-4.5,7.2l5.1,13.5h-5l-4.6-12.5H168.9z
				 M174.6,172.1c3.6,0,4.2-2.6,4.2-3.5c0-1.3-0.9-3.5-4-3.5h-5.9v7.1H174.6z"/>
		</g>
		<g>
			<path d="M214.7,189.3l-9.1-28.8h4.8l6.2,19.2l6.1-19.2h4.9l-9.2,28.8H214.7z"/>
			<path d="M231.8,160.5h17v4.5h-12.4v7.1h8.4v4.6h-8.4v7.9h13.3v4.6h-17.9V160.5z"/>
			<path d="M269.6,176.7h-10.5v12.5h-4.5v-28.8h4.5v11.6h10.5v-11.6h4.6v28.8h-4.5V176.7z"/>
			<path d="M281.1,160.5h4.6v28.8h-4.6V160.5z"/>
			<path d="M292,174.8c0-4,0.8-14.8,10.6-14.8c4.2,0,7,1.7,9,5.9l-4.2,1.8c-1.5-2.1-2.2-3-4.7-3c-6,0-6,8.4-6,10.2
				c0,1.8-0.1,10.3,6.2,10.3c2.2,0,3.5-1.3,4.4-3.3l4.3,1.6c-1.6,4-4.3,6.4-8.7,6.4C292.6,189.8,292,178.3,292,174.8z"/>
			<path d="M318,160.5h4.5V185h13.3v4.2H318V160.5z"/>
			<path d="M340.1,160.5h17v4.5h-12.4v7.1h8.4v4.6h-8.4v7.9H358v4.6h-17.9V160.5z"/>
		</g>
		<g>
			<path d="M84.6,223.2c0-6,3.3-12.1,8.3-15.5l1.7,2.9c-2.7,2-4,3.8-5.3,6.5c1.2-0.2,1.7-0.2,2.6-0.2c4,0,7.3,3,7.3,6.6
				c0,3.7-3.1,6.6-7.4,6.6C87.8,230.1,84.6,227.1,84.6,223.2z M88.1,223.5c0,1.7,1.7,3.2,3.9,3.2s3.9-1.4,3.9-3.2
				c0-1.7-1.7-3.1-3.9-3.1C89.8,220.4,88.1,221.8,88.1,223.5z"/>
			<path d="M114.7,223.7h-6.8l-2.1,6.1h-3.7l7.5-21.6h3.4l7.5,21.6h-3.7L114.7,223.7z M109.1,220.2h4.3l-2.1-6.1L109.1,220.2z"/>
			<path d="M137.2,217.2l-5,12.5l-5-12.5v12.5h-3.4v-21.6h3.4l5,12.1l5-12.1h3.4v21.6h-3.4V217.2z"/>
			<path d="M143.8,217.4h7.6v3.4h-7.6V217.4z"/>
			<path d="M158.9,227.3c2.6-2,3.9-3.8,5.2-6.6c-1.2,0.2-1.7,0.3-2.6,0.3c-4,0-7.4-3-7.4-6.6c0-3.8,3.3-6.6,7.4-6.6
				c4.1,0,7.4,3,7.4,6.9c0,5.9-3.3,12.1-8.3,15.5L158.9,227.3z M157.7,214.4c0,1.8,1.7,3.1,3.9,3.1c2.2,0,3.9-1.4,3.9-3.1
				c0-1.7-1.8-3.1-3.9-3.1C159.4,211.3,157.7,212.6,157.7,214.4z"/>
			<path d="M184.3,223.7h-6.8l-2.1,6.1h-3.7l7.5-21.6h3.4l7.5,21.6h-3.7L184.3,223.7z M178.7,220.2h4.3l-2.1-6.1L178.7,220.2z"/>
			<path d="M206.8,217.2l-5,12.5l-5-12.5v12.5h-3.4v-21.6h3.4l5,12.1l5-12.1h3.4v21.6h-3.4V217.2z"/>
		</g>
		<g>
			<path d="M249.3,65.8v6.4h-29.2c0-9.3,5.1-16.1,12.7-19.7c4.2-2,10-2,10-6.2c0-2.7-2.5-4.2-7.1-4.2c-4.7,0-8.1,1.1-11.2,3.9
				l-4.4-4.9c4.2-3.7,9.4-5.6,15.2-5.6c8.5,0,13.9,4.2,13.9,10.7c0,4.3-2.4,7.6-6,9.2c-4.9,2.3-11,1.7-15.3,10.2H249.3z"/>
			<path d="M267.8,65.3h-6.5v-8.2h-8.5v-6.4h8.5v-8.1h6.5v8.1h8.5v6.4h-8.5V65.3z"/>
		</g>
		<g>
			<path d="M303.3,54.2c0-11.5,5.8-18.6,15.3-18.6c9,0,14.9,7.4,14.9,18.4c0,11.2-5.8,18.8-14.9,18.8
				C308,72.9,303.3,63.2,303.3,54.2z M309.9,54.2c0,7.7,3.3,12.2,8.7,12.2c6.8,0,8.5-6.7,8.5-12.2c0-7.6-3.1-12.1-8.5-12.1
				C313.2,42.1,309.9,46.6,309.9,54.2z"/>
			<path d="M348.2,47.5v24.8h-6.3v-36h6.3L364.8,60V36.3h6.2v36h-5.6L348.2,47.5z"/>
			<path d="M380.4,36.3h6.5v30.4h20.5v5.6h-27V36.3z"/>
			<path d="M431.8,72.2h-6.4V57.6l-15.2-21.3h8l10.5,14.7L439,36.3h8l-15.2,21.3V72.2z"/>
		</g>
		<path d="M46.9,136.9h14.1v4.6H41.5c0.1-3.3,0.8-6.1,2.4-8.8c5.1-8.4,12.6-7.6,12.6-12c0-2.1-2.4-3.8-5.3-3.8c-2.9,0-4.8,1.4-5.3,4
			l-4.5-1c1-4.7,4.7-7.7,9.8-7.7c5.5,0,9.8,3.8,9.8,8.6c0,3.4-2,5.6-4.5,7.2C52.6,130.5,49.1,131.5,46.9,136.9z"/>
		<g>
			<path d="M114,129v12.5h-4.5v-28.8h10.4c6.6,0,8.6,5.3,8.6,8.1c0,1.1-0.4,5.3-4.5,7.2l5.1,13.5h-5l-4.6-12.5H114z M119.7,124.4
				c3.6,0,4.2-2.6,4.2-3.5c0-1.3-0.9-3.5-4-3.5H114v7.1H119.7z"/>
			<path d="M103.1,127.2c0,1,0.2,14.9-10.2,14.9s-10.2-13.9-10.2-14.9c0-1-0.2-14.9,10.2-14.9S103.1,126.1,103.1,127.2z M92.9,137.4
				c3.1,0,5.6-2.9,5.6-10.3c0-7.3-2.5-10.3-5.6-10.3c-3.1,0-5.6,2.9-5.6,10.3C87.3,134.5,89.8,137.4,92.9,137.4z"/>
		</g>
		<g>
			<path d="M280.1,129h-5.4v12.5h-4.5v-28.8h10.9c6.8,0,8.7,5.5,8.7,8.1C289.8,122.6,288.9,129,280.1,129z M274.8,124.4h6.4
				c3.6,0,4-2.6,4-3.5c0-1.4-1-3.5-3.8-3.5h-6.6V124.4z"/>
			<path d="M294.2,112.8h17v4.5h-12.4v7.1h8.4v4.6h-8.4v7.9H312v4.6h-17.9V112.8z"/>
			<path d="M321.5,129v12.5h-4.5v-28.8h10.4c6.6,0,8.6,5.3,8.6,8.1c0,1.1-0.4,5.3-4.5,7.2l5.1,13.5h-5l-4.6-12.5H321.5z
				 M327.2,124.4c3.6,0,4.2-2.6,4.2-3.5c0-1.3-0.9-3.5-4-3.5h-5.9v7.1H327.2z"/>
			<path d="M339.4,134.8l4.3-1.6c1.2,2.7,3.4,4.2,6.2,4.2c2.6,0,4.4-1.8,4.4-4.2c0-3.9-4.4-4.4-8.2-6c-1.7-0.7-5.6-2.4-5.6-7.2
				c0-5.7,3.8-7.8,9-7.8c4,0,6.8,2.3,8.2,5.9l-4,1.2c-0.5-1.1-2.1-2.5-4.2-2.5c-4.1,0-4.5,2.2-4.5,2.9c0,2.7,2.3,3.2,6.1,4.4
				c3.8,1.2,7.9,3,7.9,9.2c0,6.2-5,8.8-9.1,8.8C345,142.1,341.3,139.1,339.4,134.8z"/>
			<path d="M394.7,122v19.5h-4.5v-28.8h4.5l10.5,18.4v-18.4h4.6v28.8h-4L394.7,122z"/>
			<path d="M414.6,134.8l4.3-1.6c1.2,2.7,3.4,4.2,6.2,4.2c2.6,0,4.4-1.8,4.4-4.2c0-3.9-4.4-4.4-8.2-6c-1.7-0.7-5.6-2.4-5.6-7.2
				c0-5.7,3.8-7.8,9-7.8c4,0,6.8,2.3,8.2,5.9l-4,1.2c-0.5-1.1-2.1-2.5-4.2-2.5c-4.1,0-4.5,2.2-4.5,2.9c0,2.7,2.3,3.2,6.1,4.4
				c3.8,1.2,7.9,3,7.9,9.2c0,6.2-5,8.8-9.1,8.8C420.2,142.1,416.6,139.1,414.6,134.8z"/>
			<path d="M383.8,127.2c0,1,0.2,14.9-10.2,14.9s-10.2-13.9-10.2-14.9c0-1-0.2-14.9,10.2-14.9S383.8,126.1,383.8,127.2z
				 M373.6,137.4c3.1,0,5.6-2.9,5.6-10.3c0-7.3-2.5-10.3-5.6-10.3c-3.1,0-5.6,2.9-5.6,10.3C368,134.5,370.5,137.4,373.6,137.4z"/>
		</g>
		<g>
			<path d="M168.6,124.9l-6.7,16.7l-6.7-16.7v16.7h-4.6v-28.8h4.6l6.7,16.2l6.7-16.2h4.6v28.8h-4.6V124.9z"/>
			<path d="M210.8,129v12.5h-4.5v-28.8h10.4c6.6,0,8.6,5.3,8.6,8.1c0,1.1-0.4,5.3-4.5,7.2l5.1,13.5h-5l-4.6-12.5H210.8z
				 M216.5,124.4c3.6,0,4.2-2.6,4.2-3.5c0-1.3-0.9-3.5-4-3.5h-5.9v7.1H216.5z"/>
			<path d="M230.8,112.8h17v4.5h-12.4v7.1h8.4v4.6h-8.4v7.9h13.3v4.6h-17.9V112.8z"/>
			<path d="M199.9,127.2c0,1,0.2,14.9-10.2,14.9s-10.2-13.9-10.2-14.9c0-1-0.2-14.9,10.2-14.9S199.9,126.1,199.9,127.2z
				 M189.8,137.4c3.1,0,5.6-2.9,5.6-10.3c0-7.3-2.5-10.3-5.6-10.3c-3.1,0-5.6,2.9-5.6,10.3C184.1,134.5,186.7,137.4,189.8,137.4z"/>
		</g>
		<g>
			<path d="M295.6,217.2l-5,12.5l-5-12.5v12.5h-3.4v-21.6h3.4l5,12.1l5-12.1h3.4v21.6h-3.4V217.2z"/>
			<path d="M327.3,215.1v14.6h-3.4v-21.6h3.4l7.9,13.8v-13.8h3.4v21.6h-3L327.3,215.1z"/>
			<path d="M341.8,217.4h7.6v3.4h-7.6V217.4z"/>
			<path d="M356,216.9h6.3v3.5H356v9.4h-3.4v-21.6H366v3.4h-10V216.9z"/>
			<path d="M372.7,220.3v9.4h-3.4v-21.6h7.8c5,0,6.4,4,6.4,6.1c0,0.8-0.3,4-3.4,5.4l3.8,10.1h-3.7l-3.5-9.4H372.7z M377,216.9
				c2.7,0,3.1-2,3.1-2.7c0-0.9-0.7-2.7-3-2.7h-4.5v5.3H377z"/>
			<path d="M387.7,208.2h3.5v21.6h-3.5V208.2z"/>
			<path d="M319.1,218.9c0,0.8,0.2,11.2-7.7,11.2c-7.8,0-7.7-10.4-7.7-11.2c0-0.8-0.2-11.2,7.7-11.2
				C319.3,207.8,319.1,218.2,319.1,218.9z M311.5,226.6c2.3,0,4.2-2.2,4.2-7.7c0-5.5-1.9-7.7-4.2-7.7c-2.3,0-4.2,2.2-4.2,7.7
				C307.3,224.4,309.2,226.6,311.5,226.6z"/>
		</g>
	</g>
</g>
</svg>
