<?xml version="1.0" encoding="utf-8"?>
<!-- Generator: Adobe Illustrator 27.7.0, SVG Export Plug-In . SVG Version: 6.00 Build 0)  -->
<svg version="1.1" id="For_Sheets" xmlns="http://www.w3.org/2000/svg" xmlns:xlink="http://www.w3.org/1999/xlink" x="0px" y="0px"
	 viewBox="0 0 173.3 173.3" style="enable-background:new 0 0 173.3 173.3;" xml:space="preserve">
<style type="text/css">
	.st0{fill:#FFFFFF;}
	.st1{fill-rule:evenodd;clip-rule:evenodd;fill:#BF311A;}
</style>
<g>
	<g>
		<path class="st0" d="M11.1,173.2c-6,0-10.9-4.9-10.9-10.9V11C0.1,5,5,0.1,11.1,0.1h151.2c6,0,10.9,4.9,10.9,10.9v151.2
			c0,6-4.9,10.9-10.9,10.9H11.1z"/>
		<path d="M162.2,0.2c5.9,0,10.8,4.9,10.8,10.8v151.2c0,5.9-4.9,10.8-10.8,10.8H11c-5.9,0-10.8-4.9-10.8-10.8V11.1
			C0.2,5.1,5.1,0.2,11,0.2H162.2 M162.2,0H11C5,0,0,5,0,11.1v151.2c0,6.1,5,11.1,11,11.1h151.2c6.1,0,11-5,11-11.1V11.1
			C173.3,5,168.3,0,162.2,0L162.2,0z"/>
	</g>
	<path d="M11,170.4c-4.5,0-8.1-3.6-8.1-8.1V11.1C2.9,6.6,6.6,3,11,3h151.2c4.5,0,8.1,3.6,8.1,8.1v151.2c0,4.5-3.6,8.1-8.1,8.1H11z
		 M162.2,165.9c2,0,3.6-1.6,3.6-3.6V11.1c0-2-1.6-3.6-3.6-3.6H11c-2,0-3.6,1.6-3.6,3.6v151.2c0,2,1.6,3.6,3.6,3.6H162.2z"/>
	<path d="M125.8,77.6c-1.6-3.7-3.8-7.1-6.7-9.9c-2.9-2.9-6.2-5.1-9.9-6.7c-3.9-1.6-8-2.5-12.2-2.5H57.3l3.1-8.7
		c0.1-0.3,0.2-0.6,0.2-0.9c0-1.5-1.2-2.7-2.7-2.7c-0.6,0-1.1,0.2-1.5,0.5L28.1,66l28.2,19.3c0.4,0.3,1,0.5,1.5,0.5
		c1.5,0,2.7-1.2,2.7-2.7c0-0.3-0.1-0.6-0.2-0.9l-3.1-8.7h13.1c-0.8,1.4-1.6,2.8-2.2,4.2c-1.6,3.9-2.5,8-2.5,12.2v16.3L57,103
		c-0.3-0.1-0.6-0.2-0.9-0.2c-1.5,0-2.7,1.2-2.7,2.7c0,0.6,0.2,1.1,0.5,1.5l19.3,28.2l19.3-28.2c0.3-0.4,0.5-1,0.5-1.5
		c0-1.5-1.2-2.7-2.7-2.7c-0.3,0-0.6,0.1-0.9,0.2l-8.7,3.1V89.8c0-9.1,7.4-16.4,16.4-16.4s16.4,7.4,16.4,16.4v45.5h14.9V89.8
		C128.3,85.6,127.4,81.5,125.8,77.6z"/>
	<path class="st1" d="M86.6,11.9c-41.3,0-74.7,33.4-74.7,74.7s33.4,74.7,74.7,74.7s74.7-33.4,74.7-74.7S127.9,11.9,86.6,11.9z
		 M24.5,86.6c0-15,5.3-28.8,14.2-39.6l87.4,87.4c-10.7,8.9-24.5,14.2-39.6,14.2C52.4,148.7,24.5,120.9,24.5,86.6z M134.5,126.2
		L47.1,38.8c10.7-8.9,24.5-14.2,39.6-14.2c34.3,0,62.1,27.8,62.1,62.1C148.7,101.7,143.4,115.5,134.5,126.2z"/>
</g>
</svg>
