<?xml version="1.0" encoding="UTF-8" standalone="no"?>
<!-- Created with Inkscape (http://www.inkscape.org/) -->

<svg
   xmlns:dc="http://purl.org/dc/elements/1.1/"
   xmlns:cc="http://creativecommons.org/ns#"
   xmlns:rdf="http://www.w3.org/1999/02/22-rdf-syntax-ns#"
   xmlns:svg="http://www.w3.org/2000/svg"
   xmlns="http://www.w3.org/2000/svg"
   xmlns:sodipodi="http://sodipodi.sourceforge.net/DTD/sodipodi-0.dtd"
   xmlns:inkscape="http://www.inkscape.org/namespaces/inkscape"
   id="svg27183"
   version="1.1"
   inkscape:version="0.48.2 r9819"
   width="2166"
   height="726"
   xml:space="preserve"
   sodipodi:docname="AJAX1.svg"><metadata
     id="metadata27189"><rdf:RDF><cc:Work
         rdf:about=""><dc:format>image/svg+xml</dc:format><dc:type
           rdf:resource="http://purl.org/dc/dcmitype/StillImage" /><dc:title /></cc:Work></rdf:RDF></metadata><defs
     id="defs27187"><inkscape:perspective
       sodipodi:type="inkscape:persp3d"
       inkscape:vp_x="0 : 0.5 : 1"
       inkscape:vp_y="0 : 1000 : 0"
       inkscape:vp_z="1 : 0.5 : 1"
       inkscape:persp3d-origin="0.5 : 0.33333333 : 1"
       id="perspective27191" /><clipPath
       clipPathUnits="userSpaceOnUse"
       id="clipPath27201"><path
         d="m -2,710 501,0 0,-711 -501,0 0,711 z"
         id="path27203"
         inkscape:connector-curvature="0" /></clipPath><clipPath
       clipPathUnits="userSpaceOnUse"
       id="clipPath27207"><path
         d="m 0,708.06 498,0 0,-708 -498,0 0,708 z"
         id="path27209"
         inkscape:connector-curvature="0" /></clipPath></defs><sodipodi:namedview
     pagecolor="#ffffff"
     bordercolor="#666666"
     borderopacity="1"
     objecttolerance="10"
     gridtolerance="10"
     guidetolerance="10"
     inkscape:pageopacity="0"
     inkscape:pageshadow="2"
     inkscape:window-width="1280"
     inkscape:window-height="1004"
     id="namedview27185"
     showgrid="false"
     inkscape:zoom="0.50580916"
     inkscape:cx="472.16387"
     inkscape:cy="268.72743"
     inkscape:window-x="-8"
     inkscape:window-y="-8"
     inkscape:window-maximized="1"
     inkscape:current-layer="g27193"
     fit-margin-left="0.5"
     fit-margin-top="0.5"
     fit-margin-bottom="0.5"
     fit-margin-right="0.5"
     inkscape:snap-global="false" /><g
     id="g27193"
     inkscape:groupmode="layer"
     inkscape:label="GG1999P002"
     transform="matrix(1.25,0,0,-1.25,-394.07031,980.10937)"><path
       inkscape:connector-curvature="0"
       style="fill:#ffffff;fill-rule:nonzero;stroke:#000000;stroke-width:4;stroke-linecap:butt;stroke-linejoin:miter;stroke-miterlimit:4;stroke-opacity:1;stroke-dasharray:none"
       d="m 2045.6625,313.69375 c 0,-59.646 -48.35,-108 -108,-108 l -1512,0 c -59.6465,0 -108,48.354 -108,108 l 0,360 c 0,59.6475 48.3535,108 108,108 l 1512,0 c 59.65,0 108,-48.3525 108,-108 l 0,-360 z"
       id="path11" /><path
       inkscape:connector-curvature="0"
       style="fill:#000000;fill-rule:nonzero;stroke:none"
       d="m 1973.6625,313.69375 c 0,-19.851 -16.15,-36 -36,-36 l -1512,0 c -19.8506,0 -36,16.149 -36,36 l 0,360 c 0,19.8506 16.1494,36 36,36 l 1512,0 c 19.85,0 36,-16.1494 36,-36 l 0,-360 z m -36,441 -1512,0 c -44.6641,0 -81,-36.3359 -81,-81 l 0,-360 c 0,-44.663 36.3359,-81 81,-81 l 1512,0 c 44.66,0 81,36.337 81,81 l 0,360 c 0,44.6641 -36.34,81 -81,81 z"
       id="path13" /><path
       inkscape:connector-curvature="0"
       style="fill:#000000;fill-rule:nonzero;stroke:none"
       d="m 1000.7915,349.69175 0,125.307 -105.104,0 0,-125.307 -45.476,0 0,288.002 45.476,0 0,-116.211 105.104,0 0,116.211 45.476,0 0,-288.002 -45.476,0 z"
       id="path15" /><path
       inkscape:connector-curvature="0"
       style="fill:#000000;fill-rule:nonzero;stroke:none"
       d="m 1731.5225,580.09375 c -7.07,7.075 -17.17,12.127 -29.3,12.127 l -51.54,0 0,-196.045 45.47,0 c 15.16,0 24.26,3.032 32.34,11.116 17.18,17.179 26.28,48.507 26.28,86.908 0,38.398 -9.1,70.736 -23.25,85.894 z m 19.21,-214.234 c -11.12,-10.105 -26.28,-15.158 -41.44,-16.168 -3.03,0 -9.09,0 -16.17,0 l -87.92,0 0,288.002 92.97,0 c 29.31,0 40.43,-3.031 55.59,-15.158 30.32,-26.274 47.5,-71.748 47.5,-128.336 0,-57.602 -18.19,-103.076 -50.53,-128.34 z"
       id="path17" /><path
       inkscape:connector-curvature="0"
       style="fill:#000000;fill-rule:nonzero;stroke:none"
       d="m 1115.3855,349.69175 0,288.002 169.548,0 0,-45.475 -124.134,0 0,-70.737 83.767,0 0,-46.484 -83.767,0 0,-78.822 133.218,0 0,-46.484 -178.632,0 z"
       id="path19" /><path
       inkscape:connector-curvature="0"
       style="fill:#000000;fill-rule:nonzero;stroke:none"
       d="m 685.0475,557.86175 -29.475,-80.844 57.933,0 -28.458,80.844 z m 73.178,-208.17 -28.459,80.842 -90.456,0 -28.458,-80.842 -48.786,0 99.604,288.002 45.737,0 99.604,-288.002 -48.786,0 z"
       id="path21" /><path
       inkscape:connector-curvature="0"
       style="fill:#000000;fill-rule:nonzero;stroke:none"
       d="m 1440.0425,557.86175 -29.48,-80.844 57.93,0 -28.45,80.844 z m 73.17,-208.17 -28.45,80.842 -90.46,0 -28.46,-80.842 -48.784,0 99.604,288.002 45.74,0 99.6,-288.002 -48.79,0 z"
       id="path23" /></g></svg>