<?xml version="1.0" encoding="utf-8"?>
<!-- Generator: Adobe Illustrator 27.7.0, SVG Export Plug-In . SVG Version: 6.00 Build 0)  -->
<svg version="1.1" xmlns="http://www.w3.org/2000/svg" xmlns:xlink="http://www.w3.org/1999/xlink" x="0px" y="0px"
	 viewBox="0 0 518.9 432.5" style="enable-background:new 0 0 518.9 432.5;" xml:space="preserve">
<style type="text/css">
	.st0{fill:#FFFFFF;}
	.st1{fill-rule:evenodd;clip-rule:evenodd;fill:#FFFFFF;}
</style>
<g id="Layer_1">
</g>
<g id="For_Sheets">
	<g>
		<g>
			<path class="st0" d="M21.9,432.4c-12,0-21.7-9.7-21.7-21.7V21.9c0-12,9.7-21.7,21.7-21.7h475.2c12,0,21.7,9.7,21.7,21.7v388.8
				c0,12-9.7,21.7-21.7,21.7H21.9z"/>
			<path d="M497.1,0.2c11.9,0,21.6,9.7,21.6,21.6v388.8c0,11.9-9.7,21.6-21.6,21.6H21.9c-11.9,0-21.6-9.7-21.6-21.6V21.9
				C0.2,9.9,9.9,0.2,21.9,0.2H497.1 M497.1,0H21.9C9.8,0,0,9.8,0,21.9v388.8c0,12,9.8,21.8,21.9,21.8h475.2c12,0,21.8-9.8,21.8-21.8
				V21.9C518.9,9.8,509.1,0,497.1,0L497.1,0z"/>
		</g>
		<path d="M497,426.9H21.8c-8.9,0-16.2-7.3-16.2-16.2V21.9c0-8.9,7.3-16.2,16.2-16.2H497c8.9,0,16.2,7.3,16.2,16.2v388.8
			C513.2,419.6,506,426.9,497,426.9z M504.2,21.9c0-4-3.2-7.2-7.2-7.2H79.4v144H14.6v252c0,4,3.2,7.2,7.2,7.2H497
			c4,0,7.2-3.2,7.2-7.2V21.9z"/>
		<path class="st1" d="M42.6,24.6l28.8,57.6l-28.8,57.6L13.7,82.1L42.6,24.6z M42.6,123.7l20.7-41.5L42.6,40.6L21.8,82.1L42.6,123.7
			z"/>
		<path d="M269.6,338.6v28l35.8-9.2c0.2-0.1,0.5-0.1,0.7-0.1c1.7,0,3.1,1.4,3.1,3.1c0,0.9-0.4,1.6-0.9,2.2L259.5,407l-48.8-44.4
			c-0.6-0.6-0.9-1.3-0.9-2.2c0-1.7,1.4-3.1,3.1-3.1c0.3,0,0.5,0,0.7,0.1l35.8,9.2v-28H269.6z"/>
		<g>
			<path d="M181.4,216.1c0-18.4,9.3-29.7,24.5-29.7c14.3,0,23.9,11.8,23.9,29.5c0,18-9.2,30.1-23.9,30.1
				C188.9,246.1,181.4,230.6,181.4,216.1z M191.9,216.1c0,12.3,5.3,19.6,14,19.6c10.9,0,13.6-10.7,13.6-19.6
				c0-12.2-5-19.4-13.6-19.4C197.2,196.7,191.9,204,191.9,216.1z"/>
			<path d="M253.2,205.4V245H243v-57.6h10.1l26.6,38v-38h9.9V245h-8.9L253.2,205.4z"/>
			<path d="M304.7,187.5h10.3v48.7h32.9v8.9h-43.2V187.5z"/>
			<path d="M387.1,245h-10.3v-23.4l-24.2-34.2h12.7l16.8,23.4l16.6-23.4h12.7l-24.2,34.2V245z"/>
		</g>
		<g>
			<g>
				<path d="M34.5,299c0-10,5.6-20.2,13.9-25.8l2.9,4.8c-4.4,3.4-6.7,6.3-8.8,10.9c2-0.4,2.9-0.4,4.3-0.4c6.7,0,12.2,4.9,12.2,11
					c0,6.2-5.2,11-12.3,11C39.8,310.5,34.5,305.4,34.5,299z M40.3,299.4c0,2.9,2.9,5.3,6.4,5.3s6.6-2.4,6.6-5.3
					c0-2.8-2.9-5.2-6.6-5.2C43.2,294.2,40.3,296.6,40.3,299.4z"/>
				<path d="M84.7,299.7H73.4l-3.6,10.1h-6.1l12.5-36h5.7l12.4,36h-6.1L84.7,299.7z M75.4,293.9h7.2l-3.6-10.1L75.4,293.9z"/>
				<path d="M122.1,289l-8.3,20.8l-8.4-20.8v20.8h-5.7v-36h5.7l8.4,20.2l8.3-20.2h5.7v36h-5.7V289z"/>
			</g>
			<path d="M133.2,289.3h18v5.7h-18V289.3z"/>
			<path d="M162.7,305.7c4.3-3.4,6.6-6.3,8.7-11c-2,0.4-2.9,0.5-4.3,0.5c-6.7,0-12.3-4.9-12.3-11c0-6.3,5.4-11,12.3-11
				c6.9,0,12.3,4.9,12.3,11.5c0,9.8-5.6,20.1-13.9,25.8L162.7,305.7z M160.6,284.2c0,3,2.9,5.2,6.4,5.2c3.7,0,6.6-2.3,6.6-5.2
				c0-2.9-3-5.2-6.6-5.2C163.5,279,160.6,281.3,160.6,284.2z"/>
			<path d="M205,299.7h-11.3l-3.6,10.1H184l12.5-36h5.7l12.4,36h-6.1L205,299.7z M195.7,293.9h7.2l-3.6-10.1L195.7,293.9z"/>
			<path d="M242.4,289l-8.3,20.8l-8.4-20.8v20.8H220v-36h5.7l8.4,20.2l8.3-20.2h5.7v36h-5.7V289z"/>
		</g>
		<g>
			<path d="M320.9,289l-8.3,20.8l-8.4-20.8v20.8h-5.7v-36h5.7l8.4,20.2l8.3-20.2h5.7v36h-5.7V289z"/>
			<path d="M360.1,291.9c0,2,0.2,18.6-12.8,18.6c-13,0-12.8-16.5-12.8-18.6c0-3.5,0.5-18.7,13-18.7
				C360.4,273.2,360.1,290.4,360.1,291.9z M340.4,291.9c0,1,0,12.8,7.1,12.8c7.1,0,7-11.4,7-12.8c0-1,0.2-12.9-6.8-12.9
				C340.1,279,340.4,290.9,340.4,291.9z"/>
			<path d="M373.7,285.5v24.4H368v-36h5.7l13.1,23v-23h5.7v36h-5.1L373.7,285.5z"/>
			<path d="M398,289.3h18v5.7h-18V289.3z"/>
			<g>
				<path d="M425.9,288.4h10.5v5.8h-10.5v15.7h-5.7v-36h22.3v5.7h-16.6V288.4z"/>
				<path d="M453.7,294.2v15.7H448v-36h13c8.3,0,10.7,6.6,10.7,10.1c0,1.3-0.5,6.6-5.6,9l6.3,16.9h-6.2l-5.8-15.7H453.7z
					 M460.8,288.4c4.5,0,5.2-3.3,5.2-4.4c0-1.6-1.2-4.4-5-4.4h-7.4v8.8H460.8z"/>
				<path d="M478.6,273.9h5.8v36h-5.8V273.9z"/>
			</g>
		</g>
		<g>
			<g>
				<path d="M181.4,133.6h-26v25.1h-10.4V101h10.4v22.2h26V101h10.4v57.6h-10.4V133.6z"/>
				<path d="M205,129.7c0-18.4,9.3-29.7,24.5-29.7c14.3,0,23.9,11.8,23.9,29.5c0,18-9.2,30.1-23.9,30.1
					C212.5,159.7,205,144.2,205,129.7z M215.6,129.7c0,12.3,5.3,19.6,14,19.6c10.9,0,13.6-10.7,13.6-19.6c0-12.2-5-19.4-13.6-19.4
					C220.8,110.3,215.6,117.6,215.6,129.7z"/>
				<path d="M282.4,158.6L261.5,101h11l15.6,42l15.5-42h11l-21.1,57.6H282.4z"/>
			</g>
			<g>
				<path d="M404.4,148.3v10.3h-46.7c0-14.8,8.2-25.8,20.2-31.6c6.7-3.2,16.1-3.2,16.1-9.9c0-4.2-4-6.7-11.4-6.7
					c-7.5,0-13,1.8-17.9,6.3l-7.1-7.9c6.7-5.9,15-8.9,24.4-8.9c13.6,0,22.3,6.7,22.3,17.2c0,6.8-3.9,12.1-9.6,14.8
					c-7.9,3.6-17.6,2.8-24.5,16.4H404.4z"/>
				<path d="M434.1,147.5h-10.3v-13.1h-13.6v-10.3h13.6v-12.9h10.3v12.9h13.6v10.3h-13.6V147.5z"/>
			</g>
		</g>
	</g>
</g>
</svg>
