<?xml version="1.0" encoding="utf-8"?>
<!-- Generator: Adobe Illustrator 27.7.0, SVG Export Plug-In . SVG Version: 6.00 Build 0)  -->
<svg version="1.1" id="For_Sheets" xmlns="http://www.w3.org/2000/svg" xmlns:xlink="http://www.w3.org/1999/xlink" x="0px" y="0px"
	 viewBox="0 0 216.5 302.9" style="enable-background:new 0 0 216.5 302.9;" xml:space="preserve">
<style type="text/css">
	.st0{fill:#FFFFFF;}
	.st1{fill-rule:evenodd;clip-rule:evenodd;fill:#FFFFFF;}
	.st2{fill-rule:evenodd;clip-rule:evenodd;}
</style>
<g>
	<g>
		<path class="st0" d="M13.7,302.8c-7.5,0-13.6-6.1-13.6-13.6V13.7c0-7.5,6.1-13.6,13.6-13.6h189c7.5,0,13.6,6.1,13.6,13.6v275.4
			c0,7.5-6.1,13.6-13.6,13.6H13.7z"/>
		<path d="M202.8,0.2c7.4,0,13.5,6.1,13.5,13.5v275.4c0,7.4-6.1,13.5-13.5,13.5h-189c-7.4,0-13.5-6.1-13.5-13.5V13.7
			c0-7.4,6.1-13.5,13.5-13.5H202.8 M202.8,0h-189C6.2,0,0,6.2,0,13.7v275.4c0,7.6,6.2,13.8,13.8,13.8h189c7.6,0,13.8-6.2,13.8-13.8
			V13.7C216.5,6.2,210.3,0,202.8,0L202.8,0z"/>
	</g>
	<path d="M202.8,299.1h-189c-5.4,0-9.9-4.5-9.9-9.9V13.8c0-5.4,4.5-9.9,9.9-9.9h189c5.4,0,9.9,4.5,9.9,9.9v275.4
		C212.6,294.6,208.2,299.1,202.8,299.1z M9.2,92.1v197.1c0,2.5,2,4.5,4.5,4.5h189c2.5,0,4.5-2,4.5-4.5V92.1H9.2z"/>
	<polygon class="st1" points="108.3,12 126.2,47.9 108.3,84 90.2,47.9 	"/>
	<polygon class="st2" points="108.3,24 96.3,47.9 108.3,71.9 120.2,47.9 	"/>
	<g>
		<path d="M144.7,178h17.7v5.8h-24.5c0.1-4.2,1-7.6,3-11c6.3-10.6,15.8-9.5,15.8-15c0-2.7-3-4.8-6.6-4.8c-3.7,0-5.9,1.8-6.6,5.1
			l-5.7-1.3c1.3-5.9,5.9-9.6,12.2-9.6c6.8,0,12.2,4.8,12.2,10.7c0,4.3-2.5,7-5.7,9C151.8,170,147.4,171.3,144.7,178z"/>
		<path d="M182,178h-5.7v-9h-9.2v-5.8h9.2v-9h5.7v9h9.2v5.8H182V178z"/>
	</g>
	<g>
		<path d="M44.1,168.2H31v15.7h-5.7v-36H31v14.5h13.1v-14.5h5.7v36h-5.7V168.2z"/>
		<path d="M99.4,183.8l-11.4-36h6l7.7,24l7.6-24h6.1l-11.5,36H99.4z"/>
		<path d="M83.3,165.8c0,1.3,0.3,18.6-12.8,18.6s-12.8-17.3-12.8-18.6c0-1.3-0.3-18.6,12.8-18.6S83.3,164.6,83.3,165.8z M70.6,178.7
			c3.9,0,7-3.7,7-12.8c0-9.1-3.1-12.8-7-12.8c-3.9,0-7,3.7-7,12.8C63.6,175,66.7,178.7,70.6,178.7z"/>
	</g>
	<g>
		<path d="M86.4,213.5v24.4h-5.7v-36h5.7l13.1,23v-23h5.7v36h-5.1L86.4,213.5z"/>
		<path d="M113.8,201.9h5.7v30.7h16.6v5.3h-22.3V201.9z"/>
		<path d="M156.7,237.8H151v-15.7l-12.7-20.3h6.9l8.6,13.9l8.8-13.9h6.7l-12.6,20.3V237.8z"/>
		<path d="M72.8,219.8c0,1.3,0.3,18.6-12.8,18.6s-12.8-17.3-12.8-18.6c0-1.3-0.3-18.6,12.8-18.6S72.8,218.6,72.8,219.8z M60,232.7
			c3.9,0,7-3.7,7-12.8c0-9.1-3.1-12.8-7-12.8c-3.9,0-7,3.7-7,12.8C53,229,56.2,232.7,60,232.7z"/>
	</g>
</g>
</svg>
