<?xml version="1.0" encoding="utf-8"?>
<!-- Generator: Adobe Illustrator 27.7.0, SVG Export Plug-In . SVG Version: 6.00 Build 0)  -->
<svg version="1.1" id="For_Sheets" xmlns="http://www.w3.org/2000/svg" xmlns:xlink="http://www.w3.org/1999/xlink" x="0px" y="0px"
	 viewBox="0 0 216.5 302.9" style="enable-background:new 0 0 216.5 302.9;" xml:space="preserve">
<style type="text/css">
	.st0{fill:#FFFFFF;}
	.st1{fill-rule:evenodd;clip-rule:evenodd;fill:#FFFFFF;}
</style>
<g>
	<g>
		<path class="st0" d="M13.7,302.8c-7.5,0-13.6-6.1-13.6-13.6V13.7c0-7.5,6.1-13.6,13.6-13.6h189c7.5,0,13.6,6.1,13.6,13.6v275.4
			c0,7.5-6.1,13.6-13.6,13.6H13.7z"/>
		<path d="M202.8,0.2c7.4,0,13.5,6.1,13.5,13.5v275.4c0,7.4-6.1,13.5-13.5,13.5h-189c-7.4,0-13.5-6.1-13.5-13.5V13.7
			c0-7.4,6.1-13.5,13.5-13.5H202.8 M202.8,0h-189C6.2,0,0,6.2,0,13.7v275.4c0,7.6,6.2,13.8,13.8,13.8h189c7.6,0,13.8-6.2,13.8-13.8
			V13.7C216.5,6.2,210.3,0,202.8,0L202.8,0z"/>
	</g>
	<path d="M202.8,299.1h-189c-5.4,0-9.9-4.5-9.9-9.9V13.8c0-5.4,4.5-9.9,9.9-9.9h189c5.4,0,9.9,4.5,9.9,9.9v275.4
		C212.6,294.6,208.2,299.1,202.8,299.1z M9.2,92.1v197.1c0,2.5,2,4.5,4.5,4.5h189c2.5,0,4.5-2,4.5-4.5V92.1H9.2z"/>
	<path class="st1" d="M108.3,12l18,36l-18,36l-18-36L108.3,12z M108.3,24l-12,23.9l12,23.9l12-23.9L108.3,24z"/>
	<g>
		<g>
			<path d="M87.3,140.7H76.8v12.5h-4.5v-28.8h4.5v11.6h10.5v-11.6h4.6v28.8h-4.5V140.7z"/>
			<path d="M131.5,153.2l-9.1-28.8h4.8l6.2,19.2l6.1-19.2h4.9l-9.2,28.8H131.5z"/>
		</g>
	</g>
	<g>
		<path d="M61.9,178.5h4.5V203h13.3v4.2H61.9V178.5z"/>
		<path d="M98.2,199.2h-9l-2.8,8.1h-4.9l10-28.8H96l10,28.8h-4.9L98.2,199.2z M90.8,194.5h5.8l-2.8-8.1L90.8,194.5z"/>
		<path d="M114.8,187.7v19.5h-4.5v-28.8h4.5l10.5,18.4v-18.4h4.6v28.8h-4L114.8,187.7z"/>
		<path d="M136.8,178.5h17v4.5h-12.4v7.1h8.4v4.6h-8.4v7.9h13.3v4.6h-17.9V178.5z"/>
	</g>
	<g>
		<path d="M61.8,232.5h17v4.5H66.4v7.1h8.4v4.6h-8.4v7.9h13.3v4.6H61.8V232.5z"/>
		<path d="M89.1,241.7v19.5h-4.5v-28.8h4.5l10.5,18.4v-18.4h4.6v28.8h-4L89.1,241.7z"/>
		<path d="M111.1,261.3v-28.8h10.4c7.3,0,9.2,9.6,9.2,13.8c0,10.8-5.6,15-9.2,15H111.1z M120.8,237h-5.2v19.6h4.8
			c4.2,0,5.6-5.1,5.6-10.5C126.1,243.5,125.3,237,120.8,237z"/>
		<path d="M135,254.5l4.3-1.6c1.2,2.7,3.4,4.2,6.2,4.2c2.6,0,4.4-1.8,4.4-4.2c0-3.9-4.4-4.4-8.2-6c-1.7-0.7-5.6-2.4-5.6-7.2
			c0-5.7,3.8-7.8,9-7.8c4,0,6.8,2.3,8.2,5.9l-4,1.2c-0.5-1.1-2.1-2.5-4.2-2.5c-4.1,0-4.5,2.2-4.5,2.9c0,2.7,2.3,3.2,6.1,4.4
			c3.8,1.2,7.9,3,7.9,9.2c0,6.2-5,8.8-9.1,8.8C140.6,261.8,137,258.8,135,254.5z"/>
	</g>
	<g>
		<path d="M118.5,138.8c0,1,0.2,14.9-10.2,14.9S98,139.9,98,138.8c0-1-0.2-14.9,10.2-14.9S118.5,137.8,118.5,138.8z M108.3,149.1
			c3.1,0,5.6-2.9,5.6-10.3c0-7.3-2.5-10.3-5.6-10.3c-3.1,0-5.6,2.9-5.6,10.3C102.7,146.2,105.2,149.1,108.3,149.1z"/>
	</g>
</g>
</svg>
