<?xml version="1.0" encoding="UTF-8" standalone="no"?>
<svg
   xmlns:dc="http://purl.org/dc/elements/1.1/"
   xmlns:cc="http://creativecommons.org/ns#"
   xmlns:rdf="http://www.w3.org/1999/02/22-rdf-syntax-ns#"
   xmlns:svg="http://www.w3.org/2000/svg"
   xmlns="http://www.w3.org/2000/svg"
   xmlns:sodipodi="http://sodipodi.sourceforge.net/DTD/sodipodi-0.dtd"
   xmlns:inkscape="http://www.inkscape.org/namespaces/inkscape"
   width="124.94793"
   height="68.664711"
   viewBox="0 0 352.63083 193.78706"
   version="1.1"
   id="svg2"
   inkscape:version="0.48.2 r9819"
   sodipodi:docname="AJAX1.svg">
  <metadata
     id="metadata62">
    <rdf:RDF>
      <cc:Work
         rdf:about="">
        <dc:format>image/svg+xml</dc:format>
        <dc:type
           rdf:resource="http://purl.org/dc/dcmitype/StillImage" />
        <dc:title />
      </cc:Work>
    </rdf:RDF>
  </metadata>
  <defs
     id="defs60" />
  <sodipodi:namedview
     pagecolor="#ffffff"
     bordercolor="#666666"
     borderopacity="1"
     objecttolerance="10"
     gridtolerance="10"
     guidetolerance="10"
     inkscape:pageopacity="0"
     inkscape:pageshadow="2"
     inkscape:window-width="1280"
     inkscape:window-height="1004"
     id="namedview58"
     showgrid="false"
     fit-margin-top="0.3"
     fit-margin-left="0.3"
     fit-margin-right="0.3"
     fit-margin-bottom="0.3"
     inkscape:zoom="2.7367973"
     inkscape:cx="77.877413"
     inkscape:cy="49.091149"
     inkscape:window-x="-8"
     inkscape:window-y="-8"
     inkscape:window-maximized="1"
     inkscape:current-layer="svg2" />
  <polygon
     points="395,375 315,545 235,375 315,205 "
     id="polygon10"
     style="fill:none;stroke:#ffffff;stroke-width:40"
     transform="translate(-1137.4629,-1941.0571)" />
  <!-- draw the bicycle -->
  <!-- RIGHT -->
  <!-- LANE -->
  <!-- ONLY -->
  <path
     d="m 13.614264,192.08398 c -3.26672,-0.33867 -6.0289706,-1.07598 -8.4208006,-3.48898 -2.21192,-2.22955 -3.48545,-5.2705 -3.48545,-8.41022 l 0,-166.592249 c 0,-3.129139 1.26648,-6.194779 3.48545,-8.413749 2.21897,-2.21192 5.2846106,-3.4783899 8.4208006,-3.4783899 l 325.430456,0 c 3.13619,0 6.20183,1.2664699 8.42081,3.4783899 2.21897,2.21897 3.48544,5.28461 3.48544,8.413749 l 0,166.592249 c 0,3.12561 -1.26647,6.19125 -3.48544,8.41022 -2.21898,2.21898 -5.28462,3.48898 -8.42081,3.48898 l -325.430456,0 z"
     style="fill:#ffffff;fill-opacity:1;fill-rule:nonzero;stroke:#000000;stroke-width:1.69333339;stroke-miterlimit:4;stroke-opacity:1;stroke-dasharray:none"
     id="path3332"
     inkscape:connector-curvature="0" />
  <path
     inkscape:connector-curvature="0"
     style="fill:#000000;fill-opacity:1;fill-rule:evenodd;stroke:none"
     d="m 13.574584,4.995332 c -2.2613,0 -4.3991406,0.95956 -5.9972206,2.55764 -1.59808,1.59808 -2.55764,3.824109 -2.55764,6.085419 l 0,166.511109 c 0,2.25072 0.96661,4.49439 2.55764,6.08542 1.59808,1.59455 3.7429706,2.55764 5.9972206,2.55764 l 325.437516,0 c 2.2613,0 4.48733,-0.95956 6.08541,-2.55764 1.59103,-1.59809 2.55764,-3.82764 2.55764,-6.08542 l 0,-166.511109 c 0,-2.26131 -0.96661,-4.487339 -2.55764,-6.085419 -1.59808,-1.59808 -3.82411,-2.55764 -6.08541,-2.55764 l -325.437516,0 z m 112.359736,4.58611 c 0.48821,0.006 0.94631,0.0881 1.41111,0.0881 l 209.02083,0 c 1.90148,0 4.0005,-0.27856 5.46806,1.14652 1.44639,1.404059 1.14653,3.608919 1.14653,5.468059 l 0,161.219449 c 0,1.90147 0.27855,4.0005 -1.14653,5.46805 -1.41111,1.45697 -3.60892,1.14653 -5.46806,1.14653 l -209.02083,0 c -1.90148,0 -3.91231,0.28222 -5.37986,-1.14653 -1.45345,-1.41111 -1.23473,-3.60892 -1.23473,-5.46805 l 0,-161.219449 c 0,-1.89442 -0.19402,-4.00756 1.23473,-5.468059 1.05833,-1.09008 2.50411,-1.24795 3.96875,-1.23472 z"
     id="path3340" />
  <path
     d="m 180.02661,161.36054 0,-32.24742 19.00414,0 0,5.09059 -13.91003,0 0,7.91633 9.38389,0 0,5.21053 -9.38389,0 0,8.81944 14.92955,0 0,5.21053 -20.02366,0 z"
     style="fill:#000000;fill-opacity:1;fill-rule:nonzero;stroke:none"
     id="path3356"
     inkscape:connector-curvature="0" />
  <path
     d="m 222.90288,161.36054 -12.32958,-21.83694 0,21.83694 -5.09411,0 0,-32.24742 5.09411,0 11.76161,20.58812 0,-20.58812 5.08705,0 0,32.24742 -4.51908,0 z"
     style="fill:#000000;fill-opacity:1;fill-rule:nonzero;stroke:none"
     id="path3360"
     inkscape:connector-curvature="0" />
  <path
     d="m 249.25925,135.56193 c -0.79375,-0.79022 -1.92264,-1.35819 -3.28084,-1.35819 l -5.76791,0 0,21.9463 5.09411,0 c 1.69333,0 2.71286,-0.33867 3.61597,-1.24178 1.92264,-1.91911 2.94217,-5.42925 2.94217,-9.72608 0,-4.30036 -1.01953,-7.92339 -2.6035,-9.62025 m 2.14841,23.98536 c -1.23825,1.12889 -2.94216,1.69333 -4.6355,1.81328 l -1.81327,0 -9.83898,0 0,-32.24742 10.40342,0 c 3.28789,0 4.52967,0.33867 6.223,1.69334 3.39725,2.94216 5.31989,8.03627 5.31989,14.37569 0,6.44878 -2.032,11.53231 -5.65856,14.36511"
     style="fill:#000000;fill-opacity:1;fill-rule:nonzero;stroke:none"
     id="path3364"
     inkscape:connector-curvature="0" />
  <path
     d="m 280.5891,159.4379 c -1.80622,1.57692 -4.30036,2.48709 -7.01675,2.48709 -5.53861,0 -9.60261,-3.28084 -11.75455,-8.14564 l 4.8648,-1.80975 c 1.35114,3.05152 3.83823,4.74486 6.88975,4.74486 2.94217,0 4.98475,-2.032 4.98475,-4.74486 0,-4.30036 -4.98475,-4.98475 -9.16516,-6.67809 -1.92264,-0.79375 -6.21595,-2.71639 -6.21595,-8.03275 0,-6.33236 4.29331,-8.71008 10.06123,-8.71008 4.52613,0 7.57766,2.6035 9.16163,6.55814 l -4.52613,1.35819 c 0,0 -1.12889,-2.71639 -4.74487,-2.82575 -2.37772,-0.11641 -5.21052,0.79375 -4.98475,3.73592 0.45509,5.99369 15.61395,2.032 15.61395,14.70378 0,2.94216 -1.12889,5.54566 -3.16795,7.35894"
     style="fill:#000000;fill-opacity:1;fill-rule:nonzero;stroke:none"
     id="path3368"
     inkscape:connector-curvature="0" />
  <path
     d="m 210.96522,62.864991 0,-13.80773 -11.57464,0 0,13.80773 -5.0165,0 0,-31.72884 5.0165,0 0,12.79878 11.57464,0 0,-12.79878 5.00944,0 0,31.72884 -5.00944,0 z"
     style="fill:#000000;fill-opacity:1;fill-rule:nonzero;stroke:none"
     id="path3372"
     inkscape:connector-curvature="0" />
  <path
     d="m 236.34721,38.149401 c -0.99836,-1.67569 -2.22602,-2.34244 -4.12044,-2.4518 -2.44828,-0.11289 -4.00403,1.11477 -5.11881,3.89819 -0.77963,1.89442 -1.22766,4.7872 -1.22766,7.4542 0,3.34433 0.66675,6.7945 1.89441,8.79827 0.99837,1.6757 2.33539,2.45534 4.3427,2.45534 2.34244,0 3.78883,-1.22767 4.89655,-4.01109 0.67028,-1.67569 1.22767,-4.78719 1.22767,-7.24252 0,-3.55953 -0.67028,-6.78745 -1.89442,-8.90059 m 3.45017,21.70995 c -1.778,2.44475 -4.33917,3.56305 -7.67997,3.56305 -4.45206,0 -7.23547,-1.78505 -9.12989,-5.67619 -1.33703,-2.67406 -2.22603,-6.90739 -2.22603,-10.69622 0,-5.22817 1.33703,-9.906 3.45017,-12.91167 1.89442,-2.44475 4.45205,-3.56306 8.13153,-3.56306 4.00402,0 6.78744,1.778 8.79122,5.67973 1.33703,2.78341 2.11667,6.7945 2.11667,10.795 0,5.0165 -1.22767,10.02594 -3.4537,12.80936"
     style="fill:#000000;fill-opacity:1;fill-rule:nonzero;stroke:none"
     id="path3376"
     inkscape:connector-curvature="0" />
  <path
     d="m 259.28519,62.864991 -3.90172,0 -10.01889,-31.72884 5.2317,0 6.7945,21.15256 6.68161,-21.15256 5.334,0 -10.1212,31.72884 z"
     style="fill:#000000;fill-opacity:1;fill-rule:nonzero;stroke:none"
     id="path3380"
     inkscape:connector-curvature="0" />
  <path
     d="m 142.8403,88.039211 c 0,-2.63172 -1.08655,-4.00756 -3.27025,-4.13103 l -5.62328,0 0,8.26558 5.62328,0 c 2.1837,-0.13052 3.27025,-1.50636 3.27025,-4.13455 m 4.445,23.166909 -4.60375,0 -4.19453,-14.587359 -4.54025,0 0,14.587359 -4.445,0 0,-31.749999 9.84603,0 c 1.69686,0.1517 2.64584,0.24695 2.86103,0.28928 1.4605,0.33867 2.6035,1.03364 3.429,2.0955 1.09714,1.41817 1.64747,3.47839 1.64747,6.19125 0,3.91584 -1.47461,6.49817 -4.41678,7.747 l 4.41678,15.426969 z"
     style="fill:#000000;fill-opacity:1;fill-rule:nonzero;stroke:none"
     id="path3384"
     inkscape:connector-curvature="0" />
  <path
     d="m 167.9228,111.24848 -16.1925,-0.0423 0,-31.749999 16.1925,0 0,4.45206 -11.7475,0 0,8.26558 6.97795,0 0,4.445 -6.97795,0 0,10.142359 11.7475,0 0,4.48733 z"
     style="fill:#000000;fill-opacity:1;fill-rule:nonzero;stroke:none"
     id="path3388"
     inkscape:connector-curvature="0" />
  <path
     d="m 188.57055,102.54546 c 0,2.24367 -0.58561,4.18747 -1.74978,5.81377 -1.50283,2.12373 -3.72533,3.17853 -6.6675,3.17853 -3.302,0 -5.76792,-1.0548 -7.40128,-3.17853 -1.3088,-1.67216 -1.97203,-3.78177 -1.97203,-6.3253 l 4.45206,0 c 0,1.84856 0.57855,3.21028 1.74978,4.10633 0.86783,0.635 1.92969,0.9525 3.175,0.9525 2.54352,0 3.82058,-1.51694 3.82058,-4.54025 0,-2.37772 -1.02658,-4.314469 -3.08328,-5.817299 -1.90147,-1.19239 -3.81705,-2.36361 -5.74322,-3.52778 -2.05317,-1.59103 -3.07975,-3.66536 -3.07975,-6.22653 0,-1.67569 0.46567,-3.2138 1.397,-4.6108 1.43228,-2.16253 3.74297,-3.24556 6.91797,-3.24556 3.34081,0 5.70442,1.25589 7.10495,3.75708 0.5715,1.03717 0.9278,2.30012 1.0795,3.78178 l -4.44853,0 c 0,-0.53269 -0.17992,-1.06186 -0.53975,-1.59103 -0.63853,-1.00188 -1.70745,-1.49577 -3.21733,-1.49577 -2.56117,0 -3.85234,1.12889 -3.85234,3.39725 0,1.25236 1.0407,2.50119 3.12209,3.75355 3.09386,1.82034 5.03766,3.11503 5.81377,3.8735 2.08139,2.05317 3.12209,4.70606 3.12209,7.944559"
     style="fill:#000000;fill-opacity:1;fill-rule:nonzero;stroke:none"
     id="path3392"
     inkscape:connector-curvature="0" />
  <path
     d="m 206.6578,83.908211 -5.87022,0 0,27.297939 -4.445,0 0,-27.297939 -5.87728,0 0,-4.45206 16.1925,0 0,4.45206 z"
     style="fill:#000000;fill-opacity:1;fill-rule:nonzero;stroke:none"
     id="path3396"
     inkscape:connector-curvature="0" />
  <path
     d="m 223.48144,88.039211 c 0,-2.63172 -1.08656,-4.00756 -3.27025,-4.13103 l -5.62328,0 0,8.26558 5.62328,0 c 2.18369,-0.13052 3.27025,-1.50636 3.27025,-4.13455 m 4.445,23.166909 -4.60375,0 -4.18748,-14.587359 -4.5473,0 0,14.587359 -4.445,0 0,-31.749999 9.84955,0 c 1.69334,0.1517 2.64231,0.24695 2.8575,0.28928 1.4605,0.33867 2.6035,1.03364 3.429,2.0955 1.09714,1.41817 1.64748,3.47839 1.64748,6.19125 0,3.91584 -1.46756,6.49817 -4.41678,7.747 l 4.41678,15.426969 z"
     style="fill:#000000;fill-opacity:1;fill-rule:nonzero;stroke:none"
     id="path3400"
     inkscape:connector-curvature="0" />
  <path
     d="m 236.81536,111.20508 -4.445,0 0,-31.749999 4.445,0 0,31.749999 z"
     style="fill:#000000;fill-opacity:1;fill-rule:nonzero;stroke:none"
     id="path3402"
     inkscape:connector-curvature="0" />
  <path
     d="m 260.00099,102.86293 c -0.29633,1.69333 -0.77258,3.13267 -1.42522,4.318 -1.57339,2.90689 -3.90172,4.3568 -6.98853,4.3568 -3.83116,0 -6.51228,-2.17311 -8.03275,-6.51227 -0.889,-2.5647 -1.32997,-5.796139 -1.32997,-9.694339 0,-10.80558 3.12208,-16.20661 9.36272,-16.20661 2.9845,0 5.27756,1.30881 6.88975,3.91231 0.67734,1.08303 1.18534,2.39183 1.524,3.91583 l -4.7625,0 c -0.72319,-2.25425 -1.93675,-3.37608 -3.65125,-3.37608 -1.90147,0 -3.27378,1.55575 -4.09222,4.67078 -0.55033,2.01083 -0.8255,4.37444 -0.8255,7.08377 0,2.71287 0.27517,5.076479 0.8255,7.090839 0.81844,3.1115 2.19075,4.67077 4.09222,4.67077 1.85914,0 3.12209,-1.41463 3.77473,-4.2298 l 4.63902,0 z"
     style="fill:#000000;fill-opacity:1;fill-rule:nonzero;stroke:none"
     id="path3406"
     inkscape:connector-curvature="0" />
  <path
     d="m 279.03688,83.908211 -5.86316,0 0,27.297939 -4.45206,0 0,-27.297939 -5.87022,0 0,-4.45206 16.18544,0 0,4.45206 z"
     style="fill:#000000;fill-opacity:1;fill-rule:nonzero;stroke:none"
     id="path3410"
     inkscape:connector-curvature="0" />
  <path
     d="m 286.96625,111.20508 -4.44147,0 0,-31.749999 4.44147,0 0,31.749999 z"
     style="fill:#000000;fill-opacity:1;fill-rule:nonzero;stroke:none"
     id="path3412"
     inkscape:connector-curvature="0" />
  <path
     d="m 306.67349,95.331121 c 0,-2.70933 -0.27516,-5.07294 -0.8255,-7.08377 -0.8255,-3.11503 -2.19075,-4.67078 -4.09927,-4.67078 -1.90853,0 -3.27378,1.55575 -4.09928,4.67078 -0.55386,2.01083 -0.82903,4.37444 -0.82903,7.08377 0,2.71287 0.27517,5.076479 0.82903,7.090839 0.8255,3.1115 2.19075,4.67077 4.09928,4.67077 1.90852,0 3.27377,-1.55927 4.09927,-4.67077 0.55034,-2.01436 0.8255,-4.377969 0.8255,-7.090839 m 4.445,0 c 0,3.8982 -0.44802,7.129639 -1.33702,9.694339 -1.52048,4.33916 -4.20159,6.51227 -8.03275,6.51227 -3.83117,0 -6.51228,-2.17311 -8.03628,-6.51227 -0.88547,-2.5647 -1.3335,-5.796139 -1.3335,-9.694339 0,-10.80558 3.11855,-16.20661 9.36978,-16.20661 6.24769,0 9.36977,5.40103 9.36977,16.20661"
     style="fill:#000000;fill-opacity:1;fill-rule:nonzero;stroke:none"
     id="path3416"
     inkscape:connector-curvature="0" />
  <path
     d="m 334.28188,111.20612 -4.44147,0 -8.89705,-20.538719 0,20.538719 -4.44501,0 0,-31.749999 4.44501,0 8.89,20.5105 0.006,-20.5105 4.44147,0 0,31.749999 z"
     style="fill:#000000;fill-opacity:1;fill-rule:nonzero;stroke:none"
     id="path3420"
     inkscape:connector-curvature="0" />
  <path
     inkscape:connector-curvature="0"
     style="fill:#ffffff;fill-opacity:1;fill-rule:evenodd;stroke:none"
     d="m 62.522504,33.393941 -31.75,63.5 31.75,63.499999 31.75,-63.499999 -31.75,-63.5 z m 0,21.34306 21.07847,42.15694 -21.07847,42.156949 -21.07847,-42.156949 21.07847,-42.15694 z"
     id="path3344" />
</svg>
