<?xml version="1.0" encoding="UTF-8" standalone="no"?>
<svg
   xmlns:dc="http://purl.org/dc/elements/1.1/"
   xmlns:cc="http://creativecommons.org/ns#"
   xmlns:rdf="http://www.w3.org/1999/02/22-rdf-syntax-ns#"
   xmlns:svg="http://www.w3.org/2000/svg"
   xmlns="http://www.w3.org/2000/svg"
   xmlns:sodipodi="http://sodipodi.sourceforge.net/DTD/sodipodi-0.dtd"
   xmlns:inkscape="http://www.inkscape.org/namespaces/inkscape"
   width="124.959"
   height="68.697929"
   viewBox="0 0 352.66207 193.88081"
   version="1.1"
   id="svg2"
   inkscape:version="0.48.2 r9819"
   sodipodi:docname="AJAX1.svg">
  <metadata
     id="metadata62">
    <rdf:RDF>
      <cc:Work
         rdf:about="">
        <dc:format>image/svg+xml</dc:format>
        <dc:type
           rdf:resource="http://purl.org/dc/dcmitype/StillImage" />
        <dc:title />
      </cc:Work>
    </rdf:RDF>
  </metadata>
  <defs
     id="defs60" />
  <sodipodi:namedview
     pagecolor="#ffffff"
     bordercolor="#666666"
     borderopacity="1"
     objecttolerance="10"
     gridtolerance="10"
     guidetolerance="10"
     inkscape:pageopacity="0"
     inkscape:pageshadow="2"
     inkscape:window-width="1280"
     inkscape:window-height="1004"
     id="namedview58"
     showgrid="false"
     fit-margin-top="0.3"
     fit-margin-left="0.3"
     fit-margin-right="0.3"
     fit-margin-bottom="0.3"
     inkscape:zoom="5.4735947"
     inkscape:cx="65.119361"
     inkscape:cy="15.865829"
     inkscape:window-x="-8"
     inkscape:window-y="-8"
     inkscape:window-maximized="1"
     inkscape:current-layer="svg2" />
  <polygon
     points="235,375 315,205 395,375 315,545 "
     id="polygon10"
     style="fill:none;stroke:#ffffff;stroke-width:40"
     transform="translate(-981.11916,-1258.2445)" />
  <!-- draw the bicycle -->
  <!-- RIGHT -->
  <!-- LANE -->
  <!-- ONLY -->
  <path
     d="m 18.579134,192.17778 315.499756,0 c 9.21456,0 16.87689,-7.65527 16.87689,-16.87688 l 0,-156.74977 c 0,-9.2145501 -7.66233,-16.8733601 -16.87689,-16.8733601 l -315.499756,0 c -9.2110306,0 -16.8733606,7.65881 -16.8733606,16.8733601 l 0,156.74977 c 0,9.8813 7.68703,15.95261 16.8733606,16.87688"
     style="fill:#ffffff;fill-opacity:1;fill-rule:nonzero;stroke:#000000;stroke-width:1.69333339;stroke-linecap:butt;stroke-linejoin:miter;stroke-miterlimit:4;stroke-opacity:1;stroke-dasharray:none"
     id="path3156"
     inkscape:connector-curvature="0" />
  <path
     d="m 339.57938,175.30089 c 0,2.97745 -2.52942,5.49981 -5.49981,5.54214 l -199.08308,0 c -3.01272,0 -5.49981,-2.56469 -5.49981,-5.54214 l 0,-156.74976 c 0,-3.02683 2.48709,-5.48569 5.49981,-5.50686 l 199.08308,0 c 2.9845,0 5.4857,2.52236 5.49981,5.50686 l 0,156.74976 z m -5.49981,-169.3474501 -315.499756,0 c -6.87917,0 -12.5906406,5.7220501 -12.5906406,12.5976901 l 0,156.74976 c 0,6.87212 5.7220506,12.59064 12.5906406,12.59064 l 315.499756,0 c 6.87211,0 12.59064,-5.71852 12.59064,-12.59064 l 0,-156.74976 c 0,-6.87564 -5.71853,-12.5976901 -12.59064,-12.5976901"
     style="fill:#000000;fill-opacity:1;fill-rule:evenodd;stroke:none"
     id="path3160"
     inkscape:connector-curvature="0" />
  <path
     d="m 279.07834,33.42777 -5.34811,0 -6.67808,21.15961 -6.79097,-21.15961 -5.2317,0 10.02595,31.72884 3.89113,0 10.13178,-31.72884 z m -33.17875,15.92086 c 0,2.45534 -0.55033,5.55978 -1.22414,7.23548 -1.11125,2.78341 -2.55764,4.01108 -4.90008,4.01108 -2.00378,0 -3.33375,-0.77964 -4.33564,-2.44828 -1.23119,-2.00378 -1.89442,-5.45394 -1.89442,-8.79828 0,-2.67405 0.44098,-5.56683 1.22062,-7.46125 1.11477,-2.78341 2.67405,-4.01108 5.12586,-3.89113 1.88736,0.10936 3.11502,0.76905 4.11339,2.43769 1.22766,2.12019 1.89441,5.35517 1.89441,8.91469 m 5.00945,0 c 0,-4.00755 -0.77964,-8.01863 -2.11314,-10.80205 -2.00731,-3.89467 -4.79072,-5.67972 -8.79475,-5.67972 -3.67242,0 -6.23359,1.12536 -8.12095,3.56305 -2.12372,3.01272 -3.45369,7.6835 -3.45369,12.91872 0,3.78531 0.889,8.01512 2.21897,10.68917 1.89442,3.89114 4.67783,5.69736 9.12989,5.69736 3.34081,0 5.9055,-1.13241 7.6835,-3.58422 2.22956,-2.78342 3.45017,-7.79286 3.45017,-12.80231 m -29.28409,15.80798 0,-31.72884 -5.00239,0 0,12.80584 -11.57464,0 0,-12.80584 -5.0165,0 0,31.72884 5.0165,0 0,-13.80773 11.57464,0 0,13.80773 5.00239,0 z"
     style="fill:#000000;fill-opacity:1;fill-rule:evenodd;stroke:none"
     id="path3168"
     inkscape:connector-curvature="0" />
  <path
     d="m 290.69886,112.78164 0,-5.1188 -14.69674,0 0,-8.68187 9.24278,0 0,-5.12586 -9.24278,0 0,-7.79286 13.69132,0 0,-5.00239 -18.69724,0 0,31.72178 19.70266,0 z m -27.16038,0 0,-31.72178 -5.0165,0 0,20.25651 -11.57464,-20.25651 -5.00944,0 0,31.72178 5.00944,0 0,-21.49123 12.14261,21.49123 4.44853,0 z m -36.62892,-14.02292 -6.34294,0 3.22439,-8.90764 3.11855,8.90764 z m 10.23409,14.02292 -10.90789,-31.72178 -5.00945,0 -10.91494,31.72178 5.34811,0 3.12208,-8.90411 9.906,0 3.11503,8.90411 5.34106,0 z m -28.71964,0 0,-4.67077 -14.69672,0 0,-27.05101 -5.00945,0 0,31.72178 19.70617,0 z"
     style="fill:#000000;fill-opacity:1;fill-rule:evenodd;stroke:none"
     id="path3172"
     inkscape:connector-curvature="0" />
  <path
     d="m 290.90697,151.28378 c 0,-12.47069 -14.91543,-8.57955 -15.36346,-14.478 -0.22225,-2.89983 2.56117,-3.78883 4.89655,-3.67947 3.56306,0.11994 4.67784,2.78342 4.67784,2.78342 l 4.45207,-1.33703 c -1.55577,-3.89114 -4.56143,-6.44878 -9.01702,-6.44878 -5.67266,0 -9.90952,2.33186 -9.90952,8.56545 0,5.23522 4.23686,7.13316 6.12422,7.90927 4.11339,1.66864 9.01347,2.33539 9.01347,6.56873 0,2.67052 -1.99672,4.67783 -4.90008,4.67783 -2.99509,0 -5.45042,-1.6757 -6.78745,-4.67783 l -4.78719,1.78152 c 2.11666,4.79073 6.12422,8.03628 11.57464,8.03628 2.67405,0 5.12586,-0.91017 6.91091,-2.46592 2.0073,-1.778 3.11502,-4.34975 3.11502,-7.23547 m -31.39721,-6.7945 c 0,4.22981 -1.00189,7.6835 -2.88925,9.57792 -0.89606,0.889 -1.89442,1.22061 -3.55953,1.22061 l -5.00944,0 0,-21.60058 5.66914,0 c 1.33702,0 2.4518,0.55739 3.23144,1.3335 1.55575,1.66864 2.55764,5.23875 2.55764,9.46855 m 5.12586,0 c 0,-6.23711 -1.89442,-11.24303 -5.23875,-14.14639 -1.66511,-1.32997 -2.88572,-1.66511 -6.11717,-1.66511 l -10.24466,0 0,31.73589 9.68727,0 1.778,0 c 1.67217,-0.11289 3.34081,-0.67733 4.56848,-1.78505 3.55952,-2.78342 5.56683,-7.79287 5.56683,-14.13934 m -29.06183,15.92439 0,-31.73589 -5.00945,0 0,20.26356 -11.57817,-20.26356 -5.00944,0 0,31.73589 5.00944,0 0,-21.49122 12.13556,21.49122 4.45206,0 z m -26.83228,0 0,-5.12586 -14.69672,0 0,-8.68892 9.23925,0 0,-5.11527 -9.23925,0 0,-7.79639 13.6913,0 0,-5.00945 -18.70075,0 0,31.73589 19.70617,0 z"
     style="fill:#000000;fill-opacity:1;fill-rule:evenodd;stroke:none"
     id="path3176"
     inkscape:connector-curvature="0" />
  <path
     d="m 65.205054,54.13233 21.39244,42.79547 -21.39244,42.79195 -21.3995,-42.79195 21.3995,-42.79547 z m 0,-20.70453 31.74294,63.5 -31.74294,63.50001 -31.75706,-63.50001 31.75706,-63.5 z"
     style="fill:#ffffff;fill-opacity:1;fill-rule:evenodd;stroke:none"
     id="path3164"
     inkscape:connector-curvature="0" />
</svg>
