<?xml version="1.0" encoding="UTF-8" standalone="no"?>
<svg
   xmlns:dc="http://purl.org/dc/elements/1.1/"
   xmlns:cc="http://creativecommons.org/ns#"
   xmlns:rdf="http://www.w3.org/1999/02/22-rdf-syntax-ns#"
   xmlns:svg="http://www.w3.org/2000/svg"
   xmlns="http://www.w3.org/2000/svg"
   xmlns:sodipodi="http://sodipodi.sourceforge.net/DTD/sodipodi-0.dtd"
   xmlns:inkscape="http://www.inkscape.org/namespaces/inkscape"
   width="180.57579"
   height="113.07578"
   viewBox="0 0 509.62502 319.12497"
   version="1.1"
   id="svg2"
   inkscape:version="0.48.2 r9819"
   sodipodi:docname="MUTCD R3-14c.svg">
  <metadata
     id="metadata62">
    <rdf:RDF>
      <cc:Work
         rdf:about="">
        <dc:format>image/svg+xml</dc:format>
        <dc:type
           rdf:resource="http://purl.org/dc/dcmitype/StillImage" />
        <dc:title></dc:title>
      </cc:Work>
    </rdf:RDF>
  </metadata>
  <defs
     id="defs60" />
  <sodipodi:namedview
     pagecolor="#ffffff"
     bordercolor="#666666"
     borderopacity="1"
     objecttolerance="10"
     gridtolerance="10"
     guidetolerance="10"
     inkscape:pageopacity="0"
     inkscape:pageshadow="2"
     inkscape:window-width="1280"
     inkscape:window-height="1004"
     id="namedview58"
     showgrid="false"
     fit-margin-top="0"
     fit-margin-left="0"
     fit-margin-right="0"
     fit-margin-bottom="0"
     inkscape:zoom="3.5700388"
     inkscape:cx="100.88777"
     inkscape:cy="69.471736"
     inkscape:window-x="-8"
     inkscape:window-y="-8"
     inkscape:window-maximized="1"
     inkscape:current-layer="svg2" />
  <polygon
     points="235,375 315,205 395,375 315,545 "
     id="polygon10"
     style="fill:none;stroke:#ffffff;stroke-width:40"
     transform="translate(39.6875,361.28093)" />
  <!-- draw the bicycle -->
  <!-- RIGHT -->
  <!-- LANE -->
  <!-- ONLY -->
  <path
     d="m 508.77006,302.4189 c 0,8.76653 -7.10848,15.875 -15.875,15.875 l -476.179464,0 c -8.766528,0 -15.875,-7.10847 -15.875,-15.875 l 0,-285.707681 c 0,-8.7630008 7.108472,-15.87148073 15.875,-15.87148073 l 476.179464,0 c 8.76652,0 15.875,7.10847993 15.875,15.87148073 l 0,285.707681 z"
     style="fill:#ffffff;fill-opacity:1;fill-rule:nonzero;stroke:#000000;stroke-width:1.69333339;stroke-miterlimit:4;stroke-opacity:1;stroke-dasharray:none"
     id="path4338"
     inkscape:connector-curvature="0" />
  <path
     d="m 498.18672,302.4189 c 0,2.92453 -2.37066,5.29167 -5.29167,5.29167 l -476.179454,0 c -2.917472,0 -5.291666,-2.36714 -5.291666,-5.29167 l 0,-285.707681 c 0,-2.91395 2.374194,-5.29167 5.291666,-5.29167 l 476.179454,0 c 2.92101,0 5.29167,2.37772 5.29167,5.29167 l 0,285.707681 z m -5.29167,-297.6139318 -476.179454,0 c -6.565194,0 -11.90625,5.3410508 -11.90625,11.9062508 l 0,285.707681 c 0,6.56872 5.341056,11.90625 11.90625,11.90625 l 476.179454,0 c 6.56873,0 11.90626,-5.33753 11.90626,-11.90625 l 0,-285.707681 c 0,-6.5652 -5.33753,-11.9062508 -11.90626,-11.9062508"
     style="fill:#000000;fill-opacity:1;fill-rule:nonzero;stroke:none"
     id="path4346"
     inkscape:connector-curvature="0" />
  <path
     d="m 60.950403,240.24182 c -2.081389,0 -3.781778,1.40758 -3.781778,3.04094 0,1.70744 1.700389,3.11856 3.781778,3.11856 2.081389,0 3.859389,-1.41112 3.859389,-3.11856 0,-1.63336 -1.710973,-3.04094 -3.859389,-3.04094 m 0,9.57086 c -4.078111,0 -7.200195,-2.97039 -7.200195,-6.75217 0,-5.86317 3.266722,-11.87097 8.163278,-15.1377 l 1.710972,2.8187 c -2.599972,2.00378 -3.937,3.71475 -5.196416,6.38175 1.185333,-0.22225 1.707444,-0.22225 2.522361,-0.22225 3.933472,0 7.200194,2.89278 7.200194,6.45583 0,3.63714 -3.122083,6.45584 -7.200194,6.45584"
     style="fill:#000000;fill-opacity:1;fill-rule:nonzero;stroke:none"
     id="path4350"
     inkscape:connector-curvature="0" />
  <path
     d="m 79.876578,234.15993 -2.155472,5.93019 4.229806,0 -2.074334,-5.93019 z m 5.341056,15.28233 -2.074334,-5.93372 -6.607527,0 -2.081389,5.93372 -3.563056,0 7.277806,-21.1455 3.340805,0 7.267223,21.1455 -3.559528,0 z"
     style="fill:#000000;fill-opacity:1;fill-rule:nonzero;stroke:none"
     id="path4354"
     inkscape:connector-curvature="0" />
  <path
     d="m 105.1076,249.44229 0,-12.24492 -4.89656,12.24492 -4.900081,-12.24492 0,12.24492 -3.340806,0 0,-21.1455 3.340806,0 4.900081,11.87097 4.89656,-11.87097 3.33728,0 0,21.1455 -3.33728,0 z"
     style="fill:#000000;fill-opacity:1;fill-rule:nonzero;stroke:none"
     id="path4358"
     inkscape:connector-curvature="0" />
  <path
     d="m 111.63258,237.34799 7.42597,0 0,3.33375 -7.42597,0 0,-3.33375 z"
     style="fill:#000000;fill-opacity:1;fill-rule:nonzero;stroke:none"
     id="path4360"
     inkscape:connector-curvature="0" />
  <path
     d="m 129.00477,231.33418 c -2.08139,0 -3.78883,1.33702 -3.78883,3.04447 0,1.71097 1.70744,3.04094 3.78883,3.04094 2.14842,0 3.85939,-1.32997 3.85939,-3.04094 0,-1.63336 -1.78506,-3.04447 -3.85939,-3.04447 m -0.96661,18.4785 -1.63336,-2.8187 c 2.52236,-2.00378 3.85939,-3.71122 5.12233,-6.45583 -1.18533,0.22225 -1.71097,0.29633 -2.52236,0.29633 -3.93347,0 -7.2002,-2.89278 -7.2002,-6.45583 0,-3.63714 3.18912,-6.45584 7.2002,-6.45584 4.07811,0 7.20019,2.89631 7.20019,6.75217 0,5.78909 -3.26672,11.80395 -8.1668,15.1377"
     style="fill:#000000;fill-opacity:1;fill-rule:nonzero;stroke:none"
     id="path4364"
     inkscape:connector-curvature="0" />
  <path
     d="m 147.92389,234.15993 -2.14842,5.93019 4.22981,0 -2.08139,-5.93019 z m 5.34811,15.28233 -2.08139,-5.93372 -6.60047,0 -2.08139,5.93372 -3.56306,0 7.27781,-21.1455 3.33375,0 7.27428,21.1455 -3.55953,0 z"
     style="fill:#000000;fill-opacity:1;fill-rule:nonzero;stroke:none"
     id="path4368"
     inkscape:connector-curvature="0" />
  <path
     d="m 173.15491,249.44229 0,-12.24492 -4.89656,12.24492 -4.89302,-12.24492 0,12.24492 -3.34081,0 0,-21.1455 3.34081,0 4.89302,11.87097 4.89656,-11.87097 3.34433,0 0,21.1455 -3.34433,0 z"
     style="fill:#000000;fill-opacity:1;fill-rule:nonzero;stroke:none"
     id="path4372"
     inkscape:connector-curvature="0" />
  <path
     d="m 362.42372,249.44229 0,-12.24492 -4.89656,12.24492 -4.90008,-12.24492 0,12.24492 -3.34081,0 0,-21.1455 3.34081,0 4.90008,11.87097 4.89656,-11.87097 3.33728,0 0,21.1455 -3.33728,0 z"
     style="fill:#000000;fill-opacity:1;fill-rule:nonzero;stroke:none"
     id="path4376"
     inkscape:connector-curvature="0" />
  <path
     d="m 380.75405,232.96754 c -0.67028,-1.11125 -1.48166,-1.55928 -2.74461,-1.63336 -1.63336,-0.0741 -2.67405,0.74436 -3.41489,2.59644 -0.51858,1.26294 -0.81491,3.19264 -0.81491,4.97417 0,2.22603 0.44097,4.52966 1.25941,5.86669 0.67028,1.10772 1.55928,1.62984 2.89631,1.62984 1.55575,0 2.52236,-0.81845 3.26672,-2.67053 0.44097,-1.11831 0.81139,-3.19264 0.81139,-4.826 0,-2.3742 -0.44097,-4.52614 -1.25942,-5.93725 m 2.30011,14.47447 c -1.18533,1.63336 -2.89277,2.37067 -5.1188,2.37067 -2.97039,0 -4.82247,-1.18534 -6.08542,-3.78178 -0.89605,-1.78506 -1.48872,-4.60375 -1.48872,-7.12611 0,-3.48545 0.889,-6.60753 2.30364,-8.61131 1.25941,-1.6263 2.96686,-2.37067 5.41514,-2.37067 2.67405,0 4.52614,1.18534 5.86316,3.78178 0.89606,1.85561 1.41111,4.52967 1.41111,7.2002 0,3.34433 -0.81138,6.67808 -2.30011,8.53722"
     style="fill:#000000;fill-opacity:1;fill-rule:nonzero;stroke:none"
     id="path4380"
     inkscape:connector-curvature="0" />
  <path
     d="m 401.45505,249.44229 -8.08566,-14.31925 0,14.31925 -3.34081,0 0,-21.1455 3.34081,0 7.71172,13.50433 0,-13.50433 3.34433,0 0,21.1455 -2.97039,0 z"
     style="fill:#000000;fill-opacity:1;fill-rule:nonzero;stroke:none"
     id="path4384"
     inkscape:connector-curvature="0" />
  <path
     d="m 407.61314,237.34799 7.41892,0 0,3.33375 -7.41892,0 0,-3.33375 z"
     style="fill:#000000;fill-opacity:1;fill-rule:nonzero;stroke:none"
     id="path4386"
     inkscape:connector-curvature="0" />
  <path
     d="m 421.56691,231.63054 0,5.19641 6.1595,0 0,3.41489 -6.1595,0 0,9.20045 -3.3408,0 0,-21.1455 13.13744,0 0,3.33375 -9.79664,0 z"
     style="fill:#000000;fill-opacity:1;fill-rule:nonzero;stroke:none"
     id="path4390"
     inkscape:connector-curvature="0" />
  <path
     d="m 443.75311,232.00093 c -0.51506,-0.29634 -0.81139,-0.37042 -1.9297,-0.37042 l -4.00402,0 0,5.19642 4.00402,0 c 1.0407,0 1.41464,-0.0706 1.9297,-0.36689 0.81844,-0.44803 1.33703,-1.33703 1.33703,-2.23309 0,-0.889 -0.51859,-1.778 -1.33703,-2.22602 m 1.48872,17.44133 -3.41842,-9.20044 -4.00402,0 0,9.20044 -3.34081,0 0,-21.1455 6.98147,0 c 1.63337,0 2.74109,0.14464 3.78178,0.66675 1.85209,0.889 3.18911,3.11503 3.18911,5.26344 0,2.23309 -1.33702,4.45911 -3.26672,5.34811 l 3.71475,9.8672 -3.63714,0 z"
     style="fill:#000000;fill-opacity:1;fill-rule:nonzero;stroke:none"
     id="path4394"
     inkscape:connector-curvature="0" />
  <path
     d="m 452.44062,228.29571 3.41136,0 0,21.14551 -3.41136,0 0,-21.14551 z"
     style="fill:#000000;fill-opacity:1;fill-rule:nonzero;stroke:none"
     id="path4396"
     inkscape:connector-curvature="0" />
  <path
     d="m 198.50517,154.47448 c 0,-3.77472 -0.86078,-7.02028 -2.58234,-9.72961 -1.9438,-3.04447 -4.54377,-4.56847 -7.78227,-4.56847 -3.21734,0 -5.79261,1.524 -7.73642,4.56847 -1.74978,2.70933 -2.62467,5.95489 -2.62467,9.72961 0,3.7465 0.87489,6.97794 2.62467,9.68728 1.94381,3.04447 4.51908,4.56847 7.73642,4.56847 3.2385,0 5.83847,-1.524 7.78227,-4.56847 1.72156,-2.70934 2.58234,-5.94078 2.58234,-9.68728 m 7.41891,0 c 0,5.78203 -1.59808,10.77736 -4.78013,14.97894 -3.41842,4.49087 -7.75053,6.731 -13.00339,6.731 -5.24934,0 -9.58145,-2.24013 -12.99986,-6.731 -3.18912,-4.20158 -4.78367,-9.19691 -4.78367,-14.97894 0,-5.78908 1.59455,-10.78442 4.78367,-14.986 3.41841,-4.48733 7.75052,-6.731 12.99986,-6.731 5.25286,0 9.58497,2.24367 13.00339,6.731 3.18205,4.20158 4.78013,9.19692 4.78013,14.986"
     style="fill:#000000;fill-opacity:1;fill-rule:nonzero;stroke:none"
     id="path4400"
     inkscape:connector-curvature="0" />
  <path
     d="m 249.94722,175.63412 -7.60588,0 c -3.44664,-5.13292 -9.80723,-14.6297 -19.07117,-28.48328 l 0,28.48328 -7.60942,0 0,-42.32628 7.62,0 19.04647,28.57147 0.0141,-28.57147 7.60588,0 0,42.32628 z"
     style="fill:#000000;fill-opacity:1;fill-rule:nonzero;stroke:none"
     id="path4404"
     inkscape:connector-curvature="0" />
  <path
     d="m 292.70072,175.63412 -31.75,0 0,-42.32628 7.60589,0 0,34.72039 24.14411,0 0,7.60589 z"
     style="fill:#000000;fill-opacity:1;fill-rule:nonzero;stroke:none"
     id="path4408"
     inkscape:connector-curvature="0" />
  <path
     d="m 339.24622,133.30781 -17.78353,25.94681 0,16.37947 -7.60589,0 0,-16.37947 -17.78705,-25.94681 8.93586,0 12.65414,18.03048 12.36133,-18.03048 9.22514,0 z"
     style="fill:#000000;fill-opacity:1;fill-rule:nonzero;stroke:none"
     id="path4412"
     inkscape:connector-curvature="0" />
  <path
     d="m 59.916764,94.241189 c 0,-1.55222 -0.53975,-2.84692 -1.605139,-3.88055 -1.075972,-1.02659 -2.405945,-1.54164 -3.989917,-1.54164 l -13.472583,0 0,11.0243 13.472583,0 c 1.583972,0 2.913945,-0.53975 3.989917,-1.61219 1.065389,-1.07597 1.605139,-2.40595 1.605139,-3.98992 m -1.248834,-17.399 c 0,-1.13594 -0.515055,-2.10255 -1.548694,-2.90689 -1.033639,-0.80786 -2.169583,-1.21355 -3.414889,-1.21355 l -12.855222,0 0,8.48783 12.855222,0 c 1.245306,0 2.38125,-0.44097 3.414889,-1.31586 1.033639,-0.87489 1.548694,-1.89442 1.548694,-3.05153 m 8.854723,17.06033 c 0,3.72181 -1.322917,6.910931 -3.975806,9.563821 -2.652889,2.65289 -5.842,3.97581 -9.563805,3.97581 l -20.739806,0 0,-42.326291 20.327055,0 c 3.390195,0 6.325306,1.08655 8.805334,3.25966 2.596445,2.286 3.901722,5.15409 3.901722,8.59014 0,2.28953 -0.469194,4.10634 -1.407583,5.46453 -0.818444,0.98425 -1.654528,1.98967 -2.50825,3.00567 3.439583,2.54 5.161139,5.35869 5.161139,8.46666"
     style="fill:#000000;fill-opacity:1;fill-rule:nonzero;stroke:none"
     id="path4416"
     inkscape:connector-curvature="0" />
  <path
     d="m 110.26874,90.946269 c 0,4.88598 -1.6263,8.92881 -4.88597,12.135571 -3.25614,3.20322 -7.344839,4.80131 -12.24845,4.80131 -4.885972,0 -8.957028,-1.6122 -12.230806,-4.84364 C 77.629736,99.808049 75.98932,95.775799 75.98932,90.946269 l 0,-25.83038 7.609417,0 0,25.8445 c 0,2.68111 0.956027,4.92477 2.878666,6.731 1.8415,1.72861 4.060473,2.592921 6.656917,2.592921 2.624667,0 4.871861,-0.881951 6.738056,-2.635261 1.859144,-1.74977 2.797524,-3.97933 2.797524,-6.68866 l 0,-25.8445 7.59884,0 0,25.83038 z"
     style="fill:#000000;fill-opacity:1;fill-rule:nonzero;stroke:none"
     id="path4420"
     inkscape:connector-curvature="0" />
  <path
     d="m 151.63899,71.804519 -5.76086,4.74134 c -2.08844,-1.60514 -3.58422,-2.64584 -4.49086,-3.12209 -1.778,-0.95602 -3.69358,-1.43227 -5.76086,-1.43227 -1.778,0 -3.34786,0.46919 -4.72017,1.41111 -1.3723,0.9525 -2.05317,2.00025 -2.05317,3.15736 0.0282,2.31422 3.14678,4.07811 9.35567,5.29167 4.99534,0.98425 8.79122,2.73402 11.3912,5.24933 2.25777,2.22603 3.39019,4.78367 3.39019,7.66233 0,3.41136 -1.50989,6.434681 -4.52967,9.059351 -3.18911,2.70933 -7.06613,4.06047 -11.63461,4.06047 -4.45911,0 -8.02922,-0.70203 -10.71033,-2.11667 -2.11314,-1.12889 -4.58611,-3.29142 -7.40481,-6.484061 l 6.18067,-4.70606 c 1.38289,1.84856 2.81164,3.19264 4.27919,4.04636 2.00378,1.10067 4.55437,1.661591 7.66234,1.661591 2.39536,0 4.4203,-0.553871 6.07483,-1.654531 1.64747,-1.1042 2.47297,-2.39184 2.47297,-3.85939 0,-2.48003 -2.83633,-4.29331 -8.509,-5.4222 -10.41752,-2.08844 -15.62452,-6.28297 -15.62452,-12.58005 0,-3.6195 1.42522,-6.58284 4.27213,-8.89706 2.74109,-2.20486 6.08189,-3.30553 10.02948,-3.30553 3.7853,0 6.9603,0.68087 9.52853,2.032 1.72508,0.90312 3.90877,2.63878 6.56166,5.207"
     style="fill:#000000;fill-opacity:1;fill-rule:nonzero;stroke:none"
     id="path4424"
     inkscape:connector-curvature="0" />
  <path
     d="m 193.23502,107.44215 -31.74294,0 0,-42.326291 30.26127,0 0,7.60589 -22.65539,0 0,8.48783 13.56078,0 0,7.60942 -13.56078,0 0,11.0243 24.13706,0 0,7.598851 z"
     style="fill:#000000;fill-opacity:1;fill-rule:nonzero;stroke:none"
     id="path4428"
     inkscape:connector-curvature="0" />
  <path
     d="m 232.06174,71.804519 -5.76086,4.74134 c -2.08844,-1.60514 -3.59128,-2.64584 -4.49439,-3.12209 -1.77447,-0.95602 -3.69711,-1.43227 -5.75733,-1.43227 -1.778,0 -3.35844,0.46919 -4.72017,1.41111 -1.3723,0.9525 -2.05316,2.00025 -2.05316,3.15736 0.0282,2.31422 3.13972,4.07811 9.35566,5.29167 4.99534,0.98425 8.79123,2.73402 11.3912,5.24933 2.25778,2.22603 3.39019,4.78367 3.39019,7.66233 0,3.41136 -1.50989,6.434681 -4.52966,9.059351 -3.18912,2.70933 -7.06967,4.06047 -11.63814,4.06047 -4.45559,0 -8.0257,-0.70203 -10.70681,-2.11667 -2.11314,-1.12889 -4.58611,-3.29142 -7.4048,-6.484061 l 6.18066,-4.70606 c 1.38289,1.84856 2.81164,3.19264 4.2792,4.04636 1.99672,1.10067 4.55436,1.661591 7.6588,1.661591 2.39889,0 4.42384,-0.553871 6.07836,-1.654531 1.64748,-1.1042 2.47298,-2.39184 2.47298,-3.85939 0,-2.48003 -2.83634,-4.29331 -8.509,-5.4222 -10.41753,-2.08844 -15.62806,-6.28297 -15.62806,-12.58005 0,-3.6195 1.42875,-6.58284 4.27214,-8.89706 2.74461,-2.20486 6.08542,-3.30553 10.033,-3.30553 3.78178,0 6.9603,0.68087 9.52853,2.032 1.72508,0.90312 3.90877,2.63878 6.56166,5.207"
     style="fill:#000000;fill-opacity:1;fill-rule:nonzero;stroke:none"
     id="path4432"
     inkscape:connector-curvature="0" />
  <path
     d="m 360.54341,90.099609 -6.05014,-14.52386 -6.096,14.52386 12.14614,0 z m 15.52928,17.342561 -8.24442,0 -4.06752,-9.736671 -18.542,0 -4.064,9.736671 -8.24795,0 17.68828,-42.326281 7.75053,0 17.72708,42.326281 z"
     style="fill:#000000;fill-opacity:1;fill-rule:nonzero;stroke:none"
     id="path4440"
     inkscape:connector-curvature="0" />
  <path
     d="m 417.56994,107.44215 -9.017,0 -9.39094,-14.724961 -9.31334,14.724961 -9.10166,0 13.92414,-21.752291 -13.03514,-20.574 9.017,0 8.509,13.38086 8.50194,-13.38086 9.017,0 -12.954,20.574 13.843,21.752291 z"
     style="fill:#000000;fill-opacity:1;fill-rule:nonzero;stroke:none"
     id="path4444"
     inkscape:connector-curvature="0" />
  <path
     d="m 433.6305,107.4411 -7.59883,0 0,-42.326291 7.59883,0 0,42.326291 z"
     style="fill:#000000;fill-opacity:1;fill-rule:nonzero;stroke:none"
     id="path4446"
     inkscape:connector-curvature="0" />
  <path
     d="m 475.01275,71.804519 -5.75733,4.74134 c -2.08845,-1.60514 -3.58423,-2.64584 -4.48734,-3.12209 -1.78505,-0.95602 -3.70064,-1.43227 -5.76086,-1.43227 -1.78505,0 -3.36197,0.46919 -4.73428,1.41111 -1.36877,0.9525 -2.05316,2.00025 -2.05316,3.15736 0.0282,2.31422 3.1503,4.07811 9.36625,5.29167 5.00239,0.98425 8.79827,2.73402 11.39472,5.24933 2.2613,2.22603 3.38314,4.78367 3.38314,7.66233 0,3.41136 -1.50989,6.434681 -4.52614,9.059351 -3.18911,2.70933 -7.06967,4.06047 -11.63814,4.06047 -4.46264,0 -8.03275,-0.70203 -10.71386,-2.11667 -2.11667,-1.12889 -4.58258,-3.29142 -7.40834,-6.484061 l 6.18067,-4.70606 c 1.38642,1.84856 2.81164,3.19264 4.2792,4.04636 2.0073,1.10067 4.56847,1.661591 7.66939,1.661591 2.39888,0 4.42383,-0.553871 6.07836,-1.654531 1.651,-1.1042 2.48002,-2.39184 2.48002,-3.85939 0,-2.48003 -2.83986,-4.29331 -8.51605,-5.4222 -10.42458,-2.08844 -15.63511,-6.28297 -15.63511,-12.58005 0,-3.6195 1.42522,-6.58284 4.27919,-8.89706 2.73403,-2.20486 6.07836,-3.30553 10.04006,-3.30553 3.78178,0 6.94972,0.68087 9.52147,2.032 1.72156,0.90312 3.90525,2.63878 6.55814,5.207"
     style="fill:#000000;fill-opacity:1;fill-rule:nonzero;stroke:none"
     id="path4450"
     inkscape:connector-curvature="0" />
  <path
     d="m 256.64894,82.058729 17.88231,0 0,8.03981 -17.88231,0 0,-8.03981 z"
     style="fill:#000000;fill-opacity:1;fill-rule:nonzero;stroke:none"
     id="path4452"
     inkscape:connector-curvature="0" />
  <path
     d="m 282.86174,239.91726 c -0.20108,0 -0.36336,0 -0.52211,0.0423 l -21.47711,5.57036 0,-16.83808 -12.15672,0 0,16.83808 -21.51592,-5.57036 c -0.1658,-0.0423 -0.32455,-0.0423 -0.44803,-0.0423 -1.06186,0 -1.87325,0.81139 -1.87325,1.86972 0,0.49036 0.20462,0.9772 0.5715,1.34056 l 0.0388,0.0423 29.32642,26.68058 29.28408,-26.68058 c 0.4057,-0.36689 0.64558,-0.89253 0.64558,-1.38289 0,-1.05833 -0.85372,-1.86972 -1.87325,-1.86972"
     style="fill:#000000;fill-opacity:1;fill-rule:nonzero;stroke:none"
     id="path4456"
     inkscape:connector-curvature="0" />
  <path
     d="m 329.5166,72.721749 -11.94153,0 0,34.720401 -7.86341,0 0,-34.720401 -11.938,0 0,-7.60589 31.74294,0 0,7.60589 z"
     style="fill:#000000;fill-opacity:1;fill-rule:nonzero;stroke:none"
     id="path4436"
     inkscape:connector-curvature="0" />
</svg>
