<svg id="R3-1a" xmlns="http://www.w3.org/2000/svg" width="24in" height="30in" viewBox="0 0 1728 2160">
  <defs>
    <style>
      .a {
        fill: #fff;
      }
    </style>
  </defs>
  <rect width="1728" height="2160" rx="108"/>
  <g id="NO">
    <path class="a" d="M788.984,360.0112,678.896,165.01V360.0112H633.239V71.9893h45.657l104.9671,183.907V71.9893H829.094V360.0112h-40.11Z"/>
    <path class="a" d="M1063.1791,332.702c-16.64,21.762-39.25,32.429-69.5481,32.429-40.536,0-65.2839-16.215-82.778-51.63-11.949-24.322-20.482-62.725-20.482-96.8611,0-47.7889,11.947-90.459,31.575-117.3422C938.588,76.6835,962.482,66.87,995.7649,66.87c79.7941,0,98.9941,85.339,98.9941,149.77,0,45.23-11.52,90.4611-31.58,116.062ZM995.765,113.38c-25.6019,0-37.5489,10.24-47.79,35.416-6.8281,17.067-11.094,43.5221-11.094,67.844,0,30.296,6.4,61.445,17.494,79.7931,8.9609,14.934,20.908,22.188,39.2559,22.188,21.338,0,34.5581-11.095,44.3782-36.2691,5.97-15.362,11.09-43.5229,11.09-65.712,0-33.282-7.25-103.26-53.3341-103.26Z"/>
  </g>
  <g id="RIGHT">
    <path class="a" d="M497.356,792.01l-46.51-125.4479H396.655V792.01H350.999V503.99H455.54c66.138,0,85.339,52.91,85.339,80.6461,0,30.721-17.921,61.017-44.376,72.9649L546.853,792.01H497.356ZM457.247,549.6461H396.6551V620.052H456.82c22.188,0,38.829-15.788,38.829-35.416,0-18.775-16.214-34.99-38.402-34.99Z"/>
    <path class="a" d="M595.9211,792.01V503.99h46.51V792.01h-46.51Z"/>
    <path class="a" d="M808.526,797.1309c-43.522,0-68.698-16.2149-86.192-52.4849-11.947-25.6011-19.201-60.59-19.201-96.006,0-46.51,12.801-92.5931,32.429-117.341,17.068-21.3351,41.3891-32.43,73.818-32.43,44.376,0,70.8309,18.3489,90.032,63.578L855.89,579.9421c-11.948-25.602-24.3219-34.562-46.51-34.562-23.041,0-38.402,10.24-48.644,35.4149-6.827,17.068-11.093,43.523-11.093,67.845,0,30.296,4.693,60.5909,14.507,78.512,8.5349,16.642,22.1889,23.469,39.256,23.469,29.443,0,50.35-18.349,50.35-44.377V693.87h-52.484V648.64h98.14v57.604c0,52.484-38.4019,90.887-90.886,90.887Z"/>
    <path class="a" d="M1110.7391,792.01V666.5621h-104.96V792.01h-45.66V503.99h45.66V620.0521h104.96V503.99h45.23V792.01h-45.23Z"/>
    <path class="a" d="M1310.4291,544.526V792.01h-45.65V544.526h-65.71V503.99h177.93v40.536h-66.57Z"/>
  </g>
  <g id="TURN">
    <path class="a" d="M513.847,973.9649V1221.45H468.191V973.9649H402.479V933.43H580.412v40.535Z"/>
    <path class="a" d="M806.5561,1177.93c-14.934,28.59-49.496,48.64-84.9121,48.64s-70.406-20.05-84.914-48.64c-8.533-16.64-13.2259-37.13-13.2259-59.74V933.43H669.16v184.76c0,37.55,20.9069,61.87,52.4839,61.87,31.1491,0,52.483-24.32,52.483-61.87V933.43h45.231v184.76C819.358,1140.8,815.09,1161.29,806.5561,1177.93Z"/>
    <path class="a" d="M1031.099,1221.45,984.59,1096H930.399v125.45H884.743V933.43H989.2841c66.1349,0,85.3349,52.91,85.3349,80.65,0,30.72-17.92,61.01-44.37,72.96l50.35,134.41ZM990.99,979.086H930.399v70.404h60.164c22.186,0,38.826-15.79,38.826-35.41C1029.389,995.3009,1013.179,979.086,990.99,979.086Z"/>
    <path class="a" d="M1285.4091,1221.45l-110.09-195v195h-45.65V933.43h45.65l104.97,183.91V933.43h45.23v288.02Z"/>
  </g>
  <g id="ACROSS">
    <path class="a" d="M337.919,1656.01l-28.1619-80.64h-90.033l-28.1621,80.64H142.9191l98.9929-288.02h45.657l98.993,288.02Zm-72.538-208.23-29.443,81.08h57.605Z"/>
    <path class="a" d="M527.73,1661.13c-42.243,0-69.551-16.21-87.8989-51.63-12.801-25.17-21.335-61.44-21.335-98.14,0-45.23,12.374-90.89,32.43-116.06,17.067-21.34,41.388-32.43,73.8181-32.43,43.523,0,70.831,18.35,90.033,58.88l-42.67,17.93c-15.7879-24.33-25.175-30.3-47.3629-30.3-23.042,0-38.403,10.24-48.6431,35.41-6.8279,17.07-11.095,42.25-11.095,66.57,0,31.58,6.827,63.15,18.348,81.07,9.814,15.36,23.468,22.19,43.523,22.19,19.202,0,33.283-10.24,44.377-33.28l43.523,16.21c-17.068,42.24-45.657,63.58-87.047,63.58Z"/>
    <path class="a" d="M824.284,1656.01l-46.51-125.45h-54.19v125.45H677.928V1367.99h104.54c66.138,0,85.34,52.91,85.34,80.64,0,30.73-17.921,61.02-44.3769,72.97l50.35,134.41H824.284Zm-40.1091-242.36h-60.591v70.4H783.748c22.189,0,38.83-15.79,38.83-35.42,0-18.77-16.2149-34.98-38.4029-34.98Z"/>
    <path class="a" d="M1089.6891,1628.7c-16.64,21.76-39.26,32.43-69.55,32.43-40.539,0-65.2871-16.21-82.783-51.63-11.947-24.32-20.481-62.72-20.481-96.86,0-47.79,11.948-90.46,31.576-117.34,16.641-22.62,40.536-32.43,73.8179-32.43,79.79,0,98.99,85.34,98.99,149.77,0,45.23-11.52,90.46-31.57,116.06Zm-67.42-219.32c-25.6009,0-37.5489,10.24-47.79,35.41-6.827,17.07-11.093,43.53-11.093,67.85,0,30.3,6.4,61.44,17.4941,79.79,8.9609,14.94,20.909,22.19,39.259,22.19,21.33,0,34.56-11.09,44.37-36.27,5.98-15.36,11.1-43.52,11.1-65.71,0-33.28-7.26-103.26-53.34-103.26Z"/>
    <path class="a" d="M1269.3291,1661.13c-49.5,0-85.77-29.44-104.97-72.96l43.52-16.22c11.95,27.31,34.14,42.67,61.45,42.67,26.45,0,44.37-18.35,44.37-42.67,0-38.4-44.37-44.38-81.92-59.31-17.07-7.25-55.47-24.32-55.47-71.68,0-56.75,38.4-78.09,90.03-78.09,40.54,0,67.84,23.47,81.92,58.88l-40.53,11.95c-4.27-12.8-22.62-25.17-43.1-25.17-21.76,0-45.65,6.82-43.95,33.28,4.27,53.34,139.53,18.35,139.53,131.42,0,52.48-39.25,87.9-90.88,87.9Z"/>
    <path class="a" d="M1494.189,1661.13c-49.49,0-85.76-29.44-104.96-72.96l43.52-16.22c11.95,27.31,34.14,42.67,61.44,42.67,26.46,0,44.38-18.35,44.38-42.67,0-38.4-44.38-44.38-81.93-59.31-17.06-7.25-55.47-24.32-55.47-71.68,0-56.75,38.41-78.09,90.04-78.09,40.53,0,67.84,23.47,81.92,58.88l-40.53,11.95c-4.27-12.8-22.62-25.17-43.1-25.17-21.76,0-45.66,6.82-43.95,33.28,4.27,53.34,139.53,18.35,139.53,131.42,0,52.48-39.26,87.9-90.89,87.9Z"/>
  </g>
  <g id="TRACKS">
    <path class="a" d="M274.016,1840.53v247.48H228.359V1840.53H162.646v-40.54H340.58v40.54Z"/>
    <path class="a" d="M530.029,2088.01l-46.51-125.45h-54.19v125.45H383.672V1799.99H488.2131c66.1379,0,85.3379,52.91,85.3379,80.64,0,30.73-17.921,61.02-44.375,72.97l50.35,134.41H530.029ZM489.92,1845.65H429.329v70.4h60.164c22.188,0,38.829-15.79,38.829-35.42C528.322,1861.86,512.107,1845.65,489.92,1845.65Z"/>
    <path class="a" d="M797.5641,2088.01l-28.162-80.64H679.37l-28.162,80.64h-48.644l98.995-288.02h45.655l98.995,288.02ZM725.026,1879.78l-29.442,81.08h57.604l-28.162-81.08Z"/>
    <path class="a" d="M989.3092,2093.13c-42.2432,0-69.5511-16.21-87.9-51.63-12.801-25.18-21.335-61.44-21.335-98.14,0-45.23,12.375-90.89,32.43-116.06,17.067-21.34,41.39-32.43,73.8181-32.43,43.5269,0,70.837,18.35,90.037,58.88l-42.67,17.93c-15.79-24.33-25.18-30.3-47.367-30.3-23.042,0-38.402,10.24-48.6431,35.41-6.827,17.07-11.094,42.25-11.094,66.57,0,31.58,6.827,63.15,18.348,81.07,9.813,15.36,23.467,22.19,43.523,22.19,19.203,0,33.283-10.24,44.373-33.28l43.53,16.21c-17.07,42.24-45.66,63.58-87.05,63.58Z"/>
    <path class="a" d="M1287.999,2088.01l-72.54-136.54-30.3,37.55v98.99h-45.65V1799.99h45.65v114.35l90.89-114.35h58.46l-88.76,112.22,94.73,175.8Z"/>
    <path class="a" d="M1474.4591,2093.13c-49.49,0-85.76-29.44-104.96-72.96l43.52-16.22c11.95,27.31,34.14,42.67,61.44,42.67,26.46,0,44.38-18.35,44.38-42.67,0-38.4-44.38-44.38-81.92-59.31-17.07-7.25-55.47-24.32-55.47-71.68,0-56.75,38.4-78.09,90.03-78.09,40.53,0,67.84,23.47,81.92,58.88l-40.53,11.95c-4.27-12.8-22.62-25.17-43.1-25.17-21.76,0-45.66,6.82-43.95,33.28,4.27,53.34,139.53,18.35,139.53,131.42,0,52.48-39.26,87.9-90.89,87.9Z"/>
  </g>
</svg>
