<?xml version="1.0" encoding="UTF-8" standalone="no"?>
<!-- Created with Inkscape (http://www.inkscape.org/) -->

<svg
   xmlns:dc="http://purl.org/dc/elements/1.1/"
   xmlns:cc="http://creativecommons.org/ns#"
   xmlns:rdf="http://www.w3.org/1999/02/22-rdf-syntax-ns#"
   xmlns:svg="http://www.w3.org/2000/svg"
   xmlns="http://www.w3.org/2000/svg"
   xmlns:sodipodi="http://sodipodi.sourceforge.net/DTD/sodipodi-0.dtd"
   xmlns:inkscape="http://www.inkscape.org/namespaces/inkscape"
   width="73.71875"
   height="37.1875"
   id="svg4779"
   version="1.1"
   inkscape:version="0.48.2 r9819"
   sodipodi:docname="MUTCD R3-11c.svg">
  <defs
     id="defs4781" />
  <sodipodi:namedview
     id="base"
     pagecolor="#ffffff"
     bordercolor="#666666"
     borderopacity="1.0"
     inkscape:pageopacity="0.0"
     inkscape:pageshadow="2"
     inkscape:zoom="8"
     inkscape:cx="37.365662"
     inkscape:cy="13.12543"
     inkscape:document-units="px"
     inkscape:current-layer="layer1"
     showgrid="false"
     inkscape:window-width="1280"
     inkscape:window-height="1004"
     inkscape:window-x="-8"
     inkscape:window-y="-8"
     inkscape:window-maximized="1"
     fit-margin-top="0"
     fit-margin-left="0"
     fit-margin-right="0"
     fit-margin-bottom="0" />
  <metadata
     id="metadata4784">
    <rdf:RDF>
      <cc:Work
         rdf:about="">
        <dc:format>image/svg+xml</dc:format>
        <dc:type
           rdf:resource="http://purl.org/dc/dcmitype/StillImage" />
        <dc:title></dc:title>
      </cc:Work>
    </rdf:RDF>
  </metadata>
  <g
     inkscape:label="Layer 1"
     inkscape:groupmode="layer"
     id="layer1"
     transform="translate(-530.09375,3047.0938)">
    <path
       d="m 603.52406,-3013.8763 c 0,2.0212 -1.6375,3.6575 -3.65625,3.6575 l -65.8125,0 c -2.01875,0 -3.65625,-1.6363 -3.65625,-3.6575 l 0,-29.2488 c 0,-2.0187 1.6375,-3.6562 3.65625,-3.6562 l 65.8125,0 c 2.01875,0 3.65625,1.6375 3.65625,3.6562 l 0,29.2488 z"
       style="fill:#ffffff;fill-opacity:1;fill-rule:nonzero;stroke:#000000;stroke-width:0.60000002;stroke-miterlimit:4;stroke-opacity:1;stroke-dasharray:none"
       id="path3928"
       inkscape:connector-curvature="0" />
    <path
       d="m 601.08656,-3013.8763 c 0,0.6738 -0.54625,1.22 -1.21875,1.22 l -65.8125,0 c -0.6725,0 -1.21875,-0.5462 -1.21875,-1.22 l 0,-29.2487 c 0,-0.6725 0.54625,-1.22 1.21875,-1.22 l 65.8125,0 c 0.6725,0 1.21875,0.5475 1.21875,1.22 l 0,29.2487 z m -1.21875,-31.9912 -65.8125,0 c -1.51125,0 -2.74125,1.23 -2.74125,2.7425 l 0,29.2487 c 0,1.5125 1.23,2.7438 2.74125,2.7438 l 65.8125,0 c 1.5125,0 2.7425,-1.2313 2.7425,-2.7438 l 0,-29.2487 c 0,-1.5125 -1.23,-2.7425 -2.7425,-2.7425"
       style="fill:#000000;fill-opacity:1;fill-rule:nonzero;stroke:none"
       id="path3952"
       inkscape:connector-curvature="0" />
    <path
       d="m 537.74656,-3034.6775 1.6825,-4.1825 1.1675,0 0,7.3137 -1.1675,0 -0.004,-4.1912 -1.6825,4.1912 -1.6825,-4.1912 0,4.1912 -1.1675,0 0,-7.3137 1.17125,0 1.6825,4.1825 z"
       style="fill:#000000;fill-opacity:1;fill-rule:nonzero;stroke:none"
       id="path3956"
       inkscape:connector-curvature="0" />
    <path
       d="m 545.89781,-3035.2037 c 0,-0.7475 -0.10875,-1.3451 -0.3275,-1.7963 -0.24875,-0.5113 -0.61625,-0.7675 -1.09875,-0.7675 -0.48625,0 -0.8525,0.2562 -1.095,0.7675 -0.22,0.4462 -0.33,1.0438 -0.33,1.7963 0,0.7487 0.11,1.3462 0.33,1.7949 0.2475,0.5138 0.6125,0.7701 1.095,0.7701 0.4825,0 0.85,-0.2563 1.09875,-0.7701 0.21875,-0.4487 0.3275,-1.0462 0.3275,-1.7949 m 1.16875,0 c 0,0.9862 -0.1775,1.8074 -0.52625,2.4674 -0.4525,0.8426 -1.1425,1.265 -2.06875,1.265 -0.93,0 -1.61875,-0.4224 -2.065,-1.265 -0.35375,-0.6549 -0.5275,-1.4762 -0.5275,-2.4674 0,-0.9901 0.17375,-1.8125 0.5275,-2.4663 0.44625,-0.8437 1.135,-1.265 2.065,-1.265 0.92625,0 1.61625,0.4213 2.06875,1.265 0.34875,0.6587 0.52625,1.4812 0.52625,2.4663"
       style="fill:#000000;fill-opacity:1;fill-rule:nonzero;stroke:none"
       id="path3960"
       inkscape:connector-curvature="0" />
    <path
       d="m 552.22906,-3037.6913 -1.68125,0 0,6.145 -1.1675,0 0,-6.145 -1.68375,0 0,-1.1687 4.5325,0 0,1.1687 z"
       style="fill:#000000;fill-opacity:1;fill-rule:nonzero;stroke:none"
       id="path3964"
       inkscape:connector-curvature="0" />
    <path
       d="m 556.86781,-3035.2037 c 0,-0.7475 -0.11,-1.3451 -0.33,-1.7963 -0.24875,-0.5113 -0.615,-0.7675 -1.0975,-0.7675 -0.48625,0 -0.85125,0.2562 -1.09625,0.7675 -0.21875,0.4462 -0.32875,1.0438 -0.32875,1.7963 0,0.7487 0.11,1.3462 0.32875,1.7949 0.25,0.5138 0.615,0.7701 1.09625,0.7701 0.4825,0 0.84875,-0.2563 1.0975,-0.7701 0.22,-0.4487 0.33,-1.0462 0.33,-1.7949 m 1.16625,0 c 0,0.9862 -0.175,1.8074 -0.52375,2.4674 -0.455,0.8426 -1.14375,1.265 -2.07,1.265 -0.93,0 -1.61875,-0.4224 -2.06625,-1.265 -0.35125,-0.6549 -0.52625,-1.4762 -0.52625,-2.4674 0,-0.9901 0.175,-1.8125 0.52625,-2.4663 0.4475,-0.8437 1.13625,-1.265 2.06625,-1.265 0.92625,0 1.615,0.4213 2.07,1.265 0.34875,0.6587 0.52375,1.4812 0.52375,2.4663"
       style="fill:#000000;fill-opacity:1;fill-rule:nonzero;stroke:none"
       id="path3968"
       inkscape:connector-curvature="0" />
    <path
       d="m 563.02281,-3036.8262 c 0,-0.2451 -0.0813,-0.4488 -0.245,-0.6163 -0.1625,-0.1663 -0.36875,-0.2488 -0.61,-0.2488 l -1.685,0 0,1.7601 1.685,0 c 0.24125,0 0.4475,-0.086 0.61,-0.2601 0.16375,-0.175 0.245,-0.3862 0.245,-0.6349 m 1.26625,5.2799 -1.2375,0 -1.1775,-3.2174 -1.39125,0 0,3.2174 -1.1675,0 0,-7.3137 2.84375,0 c 0.56125,0 1.0375,0.1988 1.4375,0.5963 0.39625,0.3962 0.59375,0.8762 0.59375,1.4375 0,0.8174 -0.38625,1.4325 -1.15875,1.8424 l 1.2575,3.4375 z"
       style="fill:#000000;fill-opacity:1;fill-rule:nonzero;stroke:none"
       id="path3972"
       inkscape:connector-curvature="0" />
    <path
       d="m 570.01531,-3033.06 c -0.44125,1.0587 -1.21625,1.5887 -2.3175,1.5887 -0.94875,0 -1.65125,-0.4224 -2.105,-1.265 -0.35625,-0.6549 -0.53375,-1.4762 -0.53375,-2.4674 0,-0.9951 0.175,-1.8176 0.52625,-2.4663 0.45875,-0.8437 1.16375,-1.265 2.1125,-1.265 1.0725,0 1.85,0.515 2.3325,1.5438 l -1.105,0.4537 c -0.2175,-0.5538 -0.62875,-0.83 -1.2275,-0.83 -0.5075,0 -0.88875,0.2562 -1.1425,0.7675 -0.21875,0.4413 -0.32875,1.0387 -0.32875,1.7963 0,0.7574 0.11,1.3562 0.32875,1.7949 0.24875,0.5138 0.63,0.7701 1.1425,0.7701 0.56,0 0.97375,-0.2851 1.24375,-0.8538 l 1.07375,0.4325 z"
       style="fill:#000000;fill-opacity:1;fill-rule:nonzero;stroke:none"
       id="path3976"
       inkscape:connector-curvature="0" />
    <path
       d="m 576.94519,-3038.8601 -2.5575,4.1525 0,3.1612 -1.1675,0 0,-3.1612 -2.565,-4.1525 1.34625,0 1.8,2.8887 1.7775,-2.8887 1.36625,0 z"
       style="fill:#000000;fill-opacity:1;fill-rule:nonzero;stroke:none"
       id="path3980"
       inkscape:connector-curvature="0" />
    <path
       d="m 582.52031,-3033.06 c -0.44375,1.0587 -1.21625,1.5887 -2.3175,1.5887 -0.95125,0 -1.65375,-0.4224 -2.10625,-1.265 -0.3575,-0.6549 -0.53375,-1.4762 -0.53375,-2.4674 0,-0.9951 0.175,-1.8176 0.525,-2.4663 0.46,-0.8437 1.16375,-1.265 2.115,-1.265 1.0725,0 1.85,0.515 2.3325,1.5438 l -1.105,0.4537 c -0.21875,-0.5538 -0.62875,-0.83 -1.2275,-0.83 -0.5075,0 -0.88875,0.2562 -1.1425,0.7675 -0.21875,0.4413 -0.33,1.0387 -0.33,1.7963 0,0.7574 0.11125,1.3562 0.33,1.7949 0.24875,0.5138 0.62875,0.7701 1.1425,0.7701 0.55875,0 0.97375,-0.2851 1.2425,-0.8538 l 1.075,0.4325 z"
       style="fill:#000000;fill-opacity:1;fill-rule:nonzero;stroke:none"
       id="path3984"
       inkscape:connector-curvature="0" />
    <path
       d="m 588.34644,-3031.5463 -4.5325,0 0,-7.3137 1.16625,0 0,6.145 3.36625,0 0,1.1687 z"
       style="fill:#000000;fill-opacity:1;fill-rule:nonzero;stroke:none"
       id="path3988"
       inkscape:connector-curvature="0" />
    <path
       d="m 593.64781,-3031.5463 -4.5325,0 0,-7.3137 4.38625,0 0,1.1687 -3.21875,0 0,1.7601 2.225,0 0,1.1675 -2.225,0 0,2.0487 3.365,0 0,1.1687 z"
       style="fill:#000000;fill-opacity:1;fill-rule:nonzero;stroke:none"
       id="path3992"
       inkscape:connector-curvature="0" />
    <path
       d="m 599.02906,-3033.7188 c 0,0.6588 -0.23375,1.1975 -0.70875,1.6176 -0.4725,0.42 -1.055,0.6299 -1.7475,0.6299 -0.87875,0 -1.5625,-0.3174 -2.05,-0.9512 -0.20625,-0.2638 -0.36125,-0.5813 -0.47,-0.9525 l 1.08625,-0.345 c 0.19875,0.7212 0.6825,1.0813 1.45,1.0813 0.3275,0 0.61375,-0.095 0.86375,-0.2863 0.2725,-0.21 0.40875,-0.4738 0.40875,-0.7913 0,-0.415 -0.30875,-0.7437 -0.92875,-0.9887 -0.575,-0.2238 -1.1525,-0.4488 -1.7275,-0.6738 -0.62125,-0.36 -0.93125,-0.8874 -0.93125,-1.58 0,-0.5912 0.16875,-1.0574 0.5125,-1.3987 0.39,-0.385 0.9775,-0.5775 1.76125,-0.5775 1.02375,0 1.76,0.4912 2.21,1.4775 l -1.0925,0.3462 c -0.20875,-0.4387 -0.57875,-0.6562 -1.11125,-0.6562 -0.7425,0 -1.1125,0.2675 -1.1125,0.805 0,0.3462 0.30875,0.625 0.93125,0.835 0.9725,0.3312 1.54625,0.5537 1.72625,0.6662 0.62125,0.39 0.93,0.9713 0.93,1.7425"
       style="fill:#000000;fill-opacity:1;fill-rule:nonzero;stroke:none"
       id="path3996"
       inkscape:connector-curvature="0" />
    <path
       d="m 548.86656,-3021.3575 -0.76875,-2.2313 -0.76,2.2313 1.52875,0 z m 2.34,3.2163 -1.23625,0 -0.7025,-2.0476 -2.34625,0 -0.68875,2.0476 -1.2425,0 2.51625,-7.3113 1.18375,0 2.51625,7.3113 z"
       style="fill:#000000;fill-opacity:1;fill-rule:nonzero;stroke:none"
       id="path4000"
       inkscape:connector-curvature="0" />
    <path
       d="m 556.83156,-3018.1412 -4.53625,0 0,-7.3113 1.1675,0 0,6.1438 3.36875,0 0,1.1675 z"
       style="fill:#000000;fill-opacity:1;fill-rule:nonzero;stroke:none"
       id="path4004"
       inkscape:connector-curvature="0" />
    <path
       d="m 562.46031,-3018.1412 -4.53375,0 0,-7.3113 1.16625,0 0,6.1438 3.3675,0 0,1.1675 z"
       style="fill:#000000;fill-opacity:1;fill-rule:nonzero;stroke:none"
       id="path4008"
       inkscape:connector-curvature="0" />
    <path
       d="m 567.43406,-3021.7964 c 0,-0.7475 -0.11125,-1.3475 -0.33,-1.7962 -0.2475,-0.5125 -0.61375,-0.7688 -1.09625,-0.7688 -0.4875,0 -0.85375,0.2563 -1.0975,0.7688 -0.21875,0.445 -0.32875,1.0437 -0.32875,1.7962 0,0.7463 0.11,1.345 0.32875,1.7938 0.24875,0.5125 0.61375,0.77 1.0975,0.77 0.4825,0 0.84875,-0.2575 1.09625,-0.77 0.21875,-0.4488 0.33,-1.0475 0.33,-1.7938 m 1.16875,0 c 0,0.985 -0.17625,1.8075 -0.5275,2.465 -0.45375,0.845 -1.1425,1.2663 -2.0675,1.2663 -0.9325,0 -1.62,-0.4213 -2.0675,-1.2663 -0.3525,-0.6537 -0.5275,-1.475 -0.5275,-2.465 0,-0.9912 0.175,-1.8137 0.5275,-2.4675 0.4475,-0.8437 1.135,-1.2662 2.0675,-1.2662 0.925,0 1.61375,0.4225 2.0675,1.2662 0.35125,0.6575 0.5275,1.4813 0.5275,2.4675"
       style="fill:#000000;fill-opacity:1;fill-rule:nonzero;stroke:none"
       id="path4012"
       inkscape:connector-curvature="0" />
    <path
       d="m 572.81406,-3022.865 -1.185,4.7238 -1.11125,0 -0.9575,-7.3113 1.18375,0 0.5125,3.9475 0.995,-3.9475 1.12375,0 0.9975,3.9475 0.51,-3.9475 1.18375,0 -0.95625,7.3113 -1.1125,0 -1.18375,-4.7238 z"
       style="fill:#000000;fill-opacity:1;fill-rule:nonzero;stroke:none"
       id="path4016"
       inkscape:connector-curvature="0" />
    <path
       d="m 581.69019,-3018.1412 -4.53125,0 0,-7.3113 4.38625,0 0,1.1663 -3.21875,0 0,1.7612 2.225,0 0,1.1675 -2.225,0 0,2.0488 3.36375,0 0,1.1675 z"
       style="fill:#000000;fill-opacity:1;fill-rule:nonzero;stroke:none"
       id="path4020"
       inkscape:connector-curvature="0" />
    <path
       d="m 586.74406,-3021.7964 c 0,-1.0837 -0.20875,-1.8137 -0.62375,-2.1887 -0.22125,-0.2013 -0.5425,-0.3013 -0.9675,-0.3013 l -1.05,0 0,4.9775 1.01875,0 c 0.4325,0 0.75875,-0.1 0.985,-0.3 0.42375,-0.3762 0.6375,-1.105 0.6375,-2.1875 m 1.1675,0 c 0,1.5488 -0.4075,2.6163 -1.2225,3.2013 -0.425,0.3025 -0.9475,0.4537 -1.56625,0.4537 l -2.1875,0 0,-7.3112 2.1875,0 c 0.61875,0 1.14125,0.1525 1.56625,0.46 0.815,0.58 1.2225,1.645 1.2225,3.1962"
       style="fill:#000000;fill-opacity:1;fill-rule:nonzero;stroke:none"
       id="path4024"
       inkscape:connector-curvature="0" />
  </g>
</svg>
