<?xml version="1.0" encoding="UTF-8" standalone="no"?>
<!-- Created with Inkscape (http://www.inkscape.org/) -->

<svg
   xmlns:dc="http://purl.org/dc/elements/1.1/"
   xmlns:cc="http://creativecommons.org/ns#"
   xmlns:rdf="http://www.w3.org/1999/02/22-rdf-syntax-ns#"
   xmlns:svg="http://www.w3.org/2000/svg"
   xmlns="http://www.w3.org/2000/svg"
   xmlns:sodipodi="http://sodipodi.sourceforge.net/DTD/sodipodi-0.dtd"
   xmlns:inkscape="http://www.inkscape.org/namespaces/inkscape"
   id="svg27183"
   version="1.1"
   inkscape:version="0.48.2 r9819"
   width="2166"
   height="726"
   xml:space="preserve"
   sodipodi:docname="AJAX1.svg"><metadata
     id="metadata27189"><rdf:RDF><cc:Work
         rdf:about=""><dc:format>image/svg+xml</dc:format><dc:type
           rdf:resource="http://purl.org/dc/dcmitype/StillImage" /><dc:title></dc:title></cc:Work></rdf:RDF></metadata><defs
     id="defs27187"><inkscape:perspective
       sodipodi:type="inkscape:persp3d"
       inkscape:vp_x="0 : 0.5 : 1"
       inkscape:vp_y="0 : 1000 : 0"
       inkscape:vp_z="1 : 0.5 : 1"
       inkscape:persp3d-origin="0.5 : 0.33333333 : 1"
       id="perspective27191" /><clipPath
       clipPathUnits="userSpaceOnUse"
       id="clipPath27201"><path
         d="m -2,710 501,0 0,-711 -501,0 0,711 z"
         id="path27203"
         inkscape:connector-curvature="0" /></clipPath><clipPath
       clipPathUnits="userSpaceOnUse"
       id="clipPath27207"><path
         d="m 0,708.06 498,0 0,-708 -498,0 0,708 z"
         id="path27209"
         inkscape:connector-curvature="0" /></clipPath></defs><sodipodi:namedview
     pagecolor="#ffffff"
     bordercolor="#666666"
     borderopacity="1"
     objecttolerance="10"
     gridtolerance="10"
     guidetolerance="10"
     inkscape:pageopacity="0"
     inkscape:pageshadow="2"
     inkscape:window-width="1280"
     inkscape:window-height="1004"
     id="namedview27185"
     showgrid="false"
     inkscape:zoom="0.50580916"
     inkscape:cx="1401.7633"
     inkscape:cy="271.11024"
     inkscape:window-x="-8"
     inkscape:window-y="-8"
     inkscape:window-maximized="1"
     inkscape:current-layer="g27193"
     fit-margin-left="0.5"
     fit-margin-top="0.5"
     fit-margin-bottom="0.5"
     fit-margin-right="0.5"
     inkscape:snap-global="false" /><g
     id="g27193"
     inkscape:groupmode="layer"
     inkscape:label="GG1999P002"
     transform="matrix(1.25,0,0,-1.25,-391.6875,977.72656)"><path
       inkscape:connector-curvature="0"
       style="fill:#ffffff;fill-rule:nonzero;stroke:#000000;stroke-width:4;stroke-linecap:butt;stroke-linejoin:miter;stroke-miterlimit:4;stroke-opacity:1;stroke-dasharray:none"
       d="m 2043.7563,311.7875 c 0,-59.646 -48.35,-108 -108,-108 l -1512.00005,0 c -59.6465,0 -108,48.354 -108,108 l 0,360 c 0,59.6465 48.3535,108 108,108 l 1512.00005,0 c 59.65,0 108,-48.3535 108,-108 l 0,-360 z"
       id="path11" /><path
       inkscape:connector-curvature="0"
       style="fill:#000000;fill-rule:nonzero;stroke:none"
       d="m 1971.7563,311.7875 c 0,-19.851 -16.15,-36 -36,-36 l -1512.00005,0 c -19.8506,0 -36,16.149 -36,36 l 0,360 c 0,19.8506 16.1494,36 36,36 l 1512.00005,0 c 19.85,0 36,-16.1494 36,-36 l 0,-360 z m -36,441 -1512.00005,0 c -44.6641,0 -81,-36.3359 -81,-81 l 0,-360 c 0,-44.664 36.3359,-81 81,-81 l 1512.00005,0 c 44.66,0 81,36.336 81,81 l 0,360 c 0,44.6641 -36.34,81 -81,81 z"
       id="path13" /><path
       inkscape:connector-curvature="0"
       style="fill:#000000;fill-rule:nonzero;stroke:none"
       d="m 1098.9423,347.7865 -110.15705,195.033 0,-195.033 -45.476,0 0,288.002 45.476,0 105.10205,-183.918 0,183.918 45.4759,0 0,-288.002 -40.4209,0 z"
       id="path15" /><path
       inkscape:connector-curvature="0"
       style="fill:#000000;fill-rule:nonzero;stroke:none"
       d="m 1615.4963,364.9665 c -16.1601,-14.148 -38.4,-22.232 -62.65,-22.232 -49.52,0 -85.9,29.305 -105.1,72.758 l 43.45,16.168 c 12.13,-27.283 34.3599,-42.441 61.65,-42.441 26.27,0 44.46,18.189 44.46,42.441 0,38.4 -44.46,44.463 -81.85,59.621 -17.18,7.074 -55.59,24.252 -55.59,71.748 0,56.589 38.41,77.811 89.95,77.811 40.4199,0 67.7099,-23.242 81.85,-58.612 l -40.42,-12.125 c 0,0 -10.1101,24.252 -42.45,25.262 -21.2201,1.011 -46.4801,-7.072 -44.4601,-33.348 4.04,-53.556 139.4601,-18.189 139.4601,-131.367 0,-26.273 -10.1,-49.515 -28.3,-65.684 z"
       id="path17" /><path
       inkscape:connector-curvature="0"
       style="fill:#000000;fill-rule:nonzero;stroke:none"
       d="m 1334.8063,578.1885 c -7.07,7.075 -17.17,12.127 -29.304,12.127 l -51.541,0 0,-196.045 45.479,0 c 15.16,0 24.256,3.032 32.336,11.116 17.18,17.179 26.28,48.507 26.28,86.908 0,38.398 -9.1,70.736 -23.25,85.894 z m 19.21,-214.234 c -11.12,-10.105 -26.28,-15.158 -41.439,-16.168 -3.031,0 -9.096,0 -16.169,0 l -87.923,0 0,288.002 92.974,0 c 29.307,0 40.427,-3.031 55.587,-15.158 30.32,-26.274 47.5,-71.748 47.5,-128.336 0,-57.602 -18.2,-103.076 -50.53,-128.34 z"
       id="path19" /><path
       inkscape:connector-curvature="0"
       style="fill:#000000;fill-rule:nonzero;stroke:none"
       d="m 715.71525,347.7865 0,288.002 169.549,0 0,-45.475 -124.135,0 0,-70.737 83.768,0 0,-46.484 -83.768,0 0,-78.822 133.219,0 0,-46.484 -178.633,0 z"
       id="path21" /></g></svg>