<?xml version="1.0" encoding="UTF-8" standalone="no"?>
<svg
   xmlns:dc="http://purl.org/dc/elements/1.1/"
   xmlns:cc="http://creativecommons.org/ns#"
   xmlns:rdf="http://www.w3.org/1999/02/22-rdf-syntax-ns#"
   xmlns:svg="http://www.w3.org/2000/svg"
   xmlns="http://www.w3.org/2000/svg"
   xmlns:sodipodi="http://sodipodi.sourceforge.net/DTD/sodipodi-0.dtd"
   xmlns:inkscape="http://www.inkscape.org/namespaces/inkscape"
   sodipodi:docname="R3-11c.svg"
   inkscape:version="1.0 (4035a4fb49, 2020-05-01)"
   id="svg5446"
   version="1.1"
   viewBox="0 0 20.813889 29.068888"
   height="29.068888mm"
   width="20.813889mm">
  <defs
     id="defs5440">
    <clipPath
       clipPathUnits="userSpaceOnUse"
       id="clipPath1685">
      <path
         d="M 63,212.4 H 576 V 738 H 63 Z"
         id="path1683" />
    </clipPath>
  </defs>
  <sodipodi:namedview
     inkscape:window-maximized="1"
     inkscape:window-y="0"
     inkscape:window-x="0"
     inkscape:window-height="836"
     inkscape:window-width="1600"
     showgrid="false"
     inkscape:document-rotation="0"
     inkscape:current-layer="g1681"
     inkscape:document-units="mm"
     inkscape:cy="54.933331"
     inkscape:cx="39.333333"
     inkscape:zoom="5.8208202"
     inkscape:pageshadow="2"
     inkscape:pageopacity="0.0"
     borderopacity="1.0"
     bordercolor="#666666"
     pagecolor="#ffffff"
     id="base" />
  <metadata
     id="metadata5443">
    <rdf:RDF>
      <cc:Work
         rdf:about="">
        <dc:format>image/svg+xml</dc:format>
        <dc:type
           rdf:resource="http://purl.org/dc/dcmitype/StillImage" />
        <dc:title></dc:title>
      </cc:Work>
    </rdf:RDF>
  </metadata>
  <g
     transform="translate(-364.13935,8.7162495)"
     id="layer1"
     inkscape:groupmode="layer"
     inkscape:label="Layer 1">
    <g
       transform="matrix(0.35277777,0,0,-0.35277777,225.52337,203.65304)"
       id="g1679">
      <g
         id="g1681"
         clip-path="url(#clipPath1685)">
        <g
           id="g1687"
           transform="translate(396.8332,519.8417)">
          <path
             d="m 0,0 h 51.187 c 1.995,0.001 3.657,1.66 3.657,3.656 V 78.244 C 54.841,80.24 53.182,81.9 51.187,81.9 H 0 C -1.999,81.899 -3.656,80.24 -3.656,78.244 V 3.656 C -3.656,1.516 -1.991,0.201 0,0"
             style="fill:#ffffff;fill-opacity:1;fill-rule:nonzero;stroke:#231f20;stroke-width:0.5;stroke-linecap:butt;stroke-linejoin:miter;stroke-miterlimit:4;stroke-dasharray:none;stroke-opacity:1"
             id="path1689" />
        </g>
        <g
           id="g1695"
           transform="translate(431.0522,556.3717)">
          <path
             d="M 0,0 C 0.03,1.04 0.251,1.892 0.756,2.743 1.134,3.437 1.701,4.004 2.333,4.478 2.49,4.572 2.617,4.666 2.742,4.762 l 0.474,0.252 0.44,0.251 0.441,0.253 c 0.348,0.221 0.6,0.599 0.6,0.977 0,0.663 -0.757,1.198 -1.638,1.198 -0.914,0 -1.483,-0.441 -1.641,-1.26 L 0,6.747 C 0.314,8.23 1.482,9.144 3.059,9.144 4.76,9.144 6.116,7.945 6.116,6.464 6.116,5.77 5.801,5.076 5.202,4.54 5.075,4.445 4.951,4.351 4.824,4.289 L 4.381,4.004 3.91,3.752 3.467,3.5 C 2.617,2.995 2.145,2.459 1.701,1.45 H 6.116 V 0 Z"
             style="fill:#231f20;fill-opacity:1;fill-rule:nonzero;stroke:none"
             id="path1697" />
        </g>
        <g
           id="g1699"
           transform="translate(441.9922,560.0607)">
          <path
             d="M 0,0 V -2.239 H -1.419 V 0 H -3.72 v 1.451 h 2.301 V 3.689 H 0 V 1.451 H 2.303 V 0 Z"
             style="fill:#231f20;fill-opacity:1;fill-rule:nonzero;stroke:none"
             id="path1701" />
        </g>
        <g
           id="g1703"
           transform="translate(403.7332,556.3357)">
          <path
             d="M 0,0 V 3.91 H -3.28 V 0 H -4.699 V 8.987 H -3.28 V 5.36 H 0 V 8.987 H 1.42 V 0 Z"
             style="fill:#231f20;fill-opacity:1;fill-rule:nonzero;stroke:none"
             id="path1705" />
        </g>
        <g
           id="g1707"
           transform="translate(411.7722,563.3357)">
          <path
             d="m 0,0 c -0.284,0.474 -0.63,0.662 -1.165,0.693 -0.693,0.033 -1.136,-0.314 -1.453,-1.102 -0.218,-0.536 -0.345,-1.357 -0.345,-2.114 0,-0.945 0.191,-1.922 0.536,-2.49 0.285,-0.473 0.663,-0.694 1.229,-0.694 0.662,0 1.074,0.347 1.389,1.135 0.187,0.473 0.345,1.356 0.345,2.049 C 0.536,-1.513 0.348,-0.599 0,0 m 0.978,-6.149 c -0.503,-0.693 -1.229,-1.009 -2.176,-1.009 -1.26,0 -2.049,0.505 -2.585,1.608 -0.378,0.758 -0.63,1.955 -0.63,3.027 0,1.483 0.379,2.807 0.978,3.659 0.536,0.693 1.259,1.007 2.3,1.007 C 0,2.143 0.79,1.64 1.356,0.537 1.735,-0.252 1.955,-1.387 1.955,-2.523 1.955,-3.94 1.608,-5.36 0.978,-6.149"
             style="fill:#231f20;fill-opacity:1;fill-rule:nonzero;stroke:none"
             id="path1709" />
        </g>
        <g
           id="g1711"
           transform="translate(419.1182,556.3357)">
          <path
             d="M 0,0 H -1.103 L -3.94,8.987 h 1.482 l 1.925,-5.991 1.891,5.991 h 1.513 z"
             style="fill:#231f20;fill-opacity:1;fill-rule:nonzero;stroke:none"
             id="path1713" />
        </g>
        <g
           id="g1715"
           transform="translate(411.2932,550.7467)">
          <path
             d="m 0,0 c -0.285,0.473 -0.633,0.663 -1.168,0.693 -0.694,0.033 -1.136,-0.315 -1.45,-1.102 -0.221,-0.537 -0.348,-1.357 -0.348,-2.113 0,-0.946 0.19,-1.923 0.535,-2.492 0.285,-0.472 0.663,-0.693 1.232,-0.693 0.66,0 1.072,0.347 1.386,1.135 0.191,0.472 0.348,1.357 0.348,2.05 C 0.535,-1.513 0.344,-0.6 0,0 m 0.977,-6.147 c -0.506,-0.695 -1.231,-1.01 -2.176,-1.01 -1.262,0 -2.049,0.504 -2.587,1.607 -0.378,0.757 -0.63,1.955 -0.63,3.028 0,1.482 0.379,2.806 0.977,3.658 0.536,0.693 1.262,1.009 2.301,1.009 1.138,0 1.925,-0.504 2.493,-1.609 0.378,-0.788 0.6,-1.923 0.6,-3.058 0,-1.418 -0.349,-2.838 -0.978,-3.625"
             style="fill:#231f20;fill-opacity:1;fill-rule:nonzero;stroke:none"
             id="path1717" />
        </g>
        <g
           id="g1719"
           transform="translate(420.0241,543.7467)">
          <path
             d="M 0,0 -3.435,6.086 V 0 h -1.419 v 8.986 h 1.419 L -0.157,3.248 V 8.986 H 1.262 V 0 Z"
             style="fill:#231f20;fill-opacity:1;fill-rule:nonzero;stroke:none"
             id="path1721" />
        </g>
        <g
           id="g1723"
           transform="translate(423.3682,543.7467)">
          <path
             d="M 0,0 V 8.986 H 1.42 V 1.324 H 5.581 V 0 Z"
             style="fill:#231f20;fill-opacity:1;fill-rule:nonzero;stroke:none"
             id="path1725" />
        </g>
        <g
           id="g1727"
           transform="translate(434.1512,547.6567)">
          <path
             d="M 0,0 V -3.91 H -1.419 V 0 l -3.153,5.076 h 1.703 L -0.725,1.608 1.45,5.076 h 1.671 z"
             style="fill:#231f20;fill-opacity:1;fill-rule:nonzero;stroke:none"
             id="path1729" />
        </g>
        <g
           id="g1731"
           transform="translate(406.4662,526.7727)">
          <path
             d="m 0,0 c 0.015,0.519 0.124,0.944 0.376,1.37 0.19,0.346 0.471,0.628 0.787,0.865 0.078,0.047 0.141,0.093 0.205,0.141 l 0.236,0.125 0.219,0.127 0.221,0.125 c 0.172,0.11 0.299,0.298 0.299,0.488 0,0.33 -0.379,0.597 -0.817,0.597 -0.457,0 -0.742,-0.219 -0.82,-0.63 L 0,3.367 C 0.157,4.105 0.739,4.562 1.526,4.562 2.374,4.562 3.051,3.964 3.051,3.225 3.051,2.878 2.894,2.533 2.594,2.266 2.531,2.218 2.47,2.171 2.407,2.139 L 2.186,1.998 1.95,1.873 1.729,1.748 C 1.304,1.495 1.069,1.227 0.847,0.724 H 3.051 V 0 Z"
             style="fill:#231f20;fill-opacity:1;fill-rule:nonzero;stroke:none"
             id="path1733" />
        </g>
        <g
           id="g1735"
           transform="translate(412.4582,530.2177)">
          <path
             d="M 0,0 -1.275,-1.684 H 0 Z M 0.708,-2.327 V -3.445 H 0 v 1.118 h -2.217 v 0.424 L 0,1.039 h 0.708 v -2.723 h 0.425 v -0.643 z"
             style="fill:#231f20;fill-opacity:1;fill-rule:nonzero;stroke:none"
             id="path1737" />
        </g>
        <g
           id="g1739"
           transform="translate(420.5752,526.7377)">
          <path
             d="M 0,0 V 1.95 H -1.638 V 0 h -0.708 v 4.483 h 0.708 V 2.674 H 0 V 4.483 H 0.706 V 0 Z"
             style="fill:#231f20;fill-opacity:1;fill-rule:nonzero;stroke:none"
             id="path1741" />
        </g>
        <g
           id="g1743"
           transform="translate(424.4272,530.2297)">
          <path
             d="m 0,0 c -0.142,0.236 -0.315,0.331 -0.582,0.347 -0.345,0.016 -0.566,-0.157 -0.723,-0.551 -0.11,-0.267 -0.173,-0.675 -0.173,-1.053 0,-0.473 0.094,-0.96 0.267,-1.244 0.142,-0.236 0.333,-0.344 0.614,-0.344 0.33,0 0.536,0.172 0.693,0.565 0.094,0.236 0.173,0.677 0.173,1.023 C 0.269,-0.754 0.175,-0.299 0,0 m 0.488,-3.067 c -0.252,-0.346 -0.612,-0.502 -1.085,-0.502 -0.629,0 -1.023,0.25 -1.289,0.801 -0.189,0.378 -0.316,0.976 -0.316,1.511 0,0.739 0.189,1.399 0.488,1.825 0.266,0.346 0.63,0.503 1.148,0.503 0.566,0 0.959,-0.253 1.244,-0.804 0.188,-0.393 0.297,-0.958 0.297,-1.524 0,-0.708 -0.173,-1.416 -0.487,-1.81"
             style="fill:#231f20;fill-opacity:1;fill-rule:nonzero;stroke:none"
             id="path1745" />
        </g>
        <g
           id="g1747"
           transform="translate(429.2112,527.4137)">
          <path
             d="m 0,0 c -0.237,-0.439 -0.773,-0.753 -1.324,-0.753 -0.55,0 -1.083,0.314 -1.32,0.753 -0.127,0.269 -0.205,0.582 -0.205,0.929 v 2.878 h 0.708 V 0.929 c 0,-0.581 0.33,-0.958 0.817,-0.958 0.488,0 0.818,0.377 0.818,0.958 V 3.807 H 0.203 V 0.929 C 0.203,0.582 0.124,0.269 0,0"
             style="fill:#231f20;fill-opacity:1;fill-rule:nonzero;stroke:none"
             id="path1749" />
        </g>
        <g
           id="g1751"
           transform="translate(432.4202,530.4357)">
          <path
             d="m 0,0 c -0.112,0.061 -0.175,0.078 -0.411,0.078 h -0.848 v -1.102 h 0.848 c 0.22,0 0.299,0.017 0.411,0.08 0.173,0.093 0.282,0.281 0.282,0.471 C 0.282,-0.284 0.173,-0.095 0,0 m 0.312,-3.698 -0.723,1.95 h -0.848 v -1.95 h -0.709 v 4.483 h 1.477 c 0.349,0 0.584,-0.032 0.803,-0.141 0.394,-0.189 0.678,-0.66 0.678,-1.117 0,-0.471 -0.284,-0.942 -0.693,-1.131 l 0.787,-2.094 z"
             style="fill:#231f20;fill-opacity:1;fill-rule:nonzero;stroke:none"
             id="path1753" />
        </g>
        <g
           id="g1755"
           transform="translate(436.9012,527.0057)">
          <path
             d="m 0,0 c -0.251,-0.22 -0.597,-0.345 -0.974,-0.345 -0.773,0 -1.338,0.455 -1.636,1.131 l 0.676,0.253 c 0.187,-0.426 0.536,-0.66 0.96,-0.66 0.408,0 0.693,0.281 0.693,0.66 0,0.598 -0.693,0.691 -1.275,0.928 -0.269,0.109 -0.866,0.378 -0.866,1.117 0,0.881 0.597,1.211 1.399,1.211 0.63,0 1.053,-0.362 1.275,-0.913 l -0.63,-0.189 c 0,0 -0.155,0.378 -0.66,0.394 C -1.368,3.603 -1.762,3.476 -1.728,3.068 -1.668,2.233 0.443,2.784 0.443,1.022 0.443,0.613 0.282,0.252 0,0"
             style="fill:#231f20;fill-opacity:1;fill-rule:nonzero;stroke:none"
             id="path1757" />
        </g>
        <path
           sodipodi:nodetypes="scssscscscsssssssc"
           d="m 449.2117,523.4977 c 0,-0.644 -0.548,-1.19 -1.191,-1.199 h -51.187 c -0.653,0 -1.191,0.555 -1.191,1.199 v 46.09917 c 0,0.654 0.538,1.188 1.191,1.192 h 51.187 c 0.648,0 1.189,-0.547 1.191,-1.192 z m -1.191,77.315 h -51.187 c -1.49,0 -2.727,-1.237 -2.727,-2.727 v -74.588 c 0,-1.489 1.238,-2.727 2.727,-2.727 h 51.187 c 1.489,0 2.727,1.239 2.727,2.727 v 74.588 c 0,1.489 -1.238,2.727 -2.727,2.727"
           style="display:inline;fill:#231f20;fill-opacity:1;fill-rule:evenodd;stroke:none;stroke-width:0.999998"
           id="path1547" />
        <g
           id="g1761"
           transform="translate(422.5202,577.3187)">
          <path
             d="M 0,0 -5.03,8.19 0,16.392 5.004,8.19 0.021,0.033 Z M 0,20.524 -7.533,8.19 0,-4.133 0.021,-4.08 7.541,8.19 Z"
             style="fill:#ffffff;fill-opacity:1;fill-rule:evenodd;stroke:none"
             id="path1763" />
        </g>
      </g>
    </g>
  </g>
</svg>
