<?xml version="1.0" encoding="utf-8"?>
<!-- Generator: Adobe Illustrator 27.7.0, SVG Export Plug-In . SVG Version: 6.00 Build 0)  -->
<svg version="1.1" id="For_Sheets" xmlns="http://www.w3.org/2000/svg" xmlns:xlink="http://www.w3.org/1999/xlink" x="0px" y="0px"
	 viewBox="0 0 216.5 302.9" style="enable-background:new 0 0 216.5 302.9;" xml:space="preserve">
<style type="text/css">
	.st0{fill:#FFFFFF;}
	.st1{fill-rule:evenodd;clip-rule:evenodd;fill:#FFFFFF;}
</style>
<g>
	<g>
		<path class="st0" d="M13.7,302.8c-7.5,0-13.6-6.1-13.6-13.6V13.7c0-7.5,6.1-13.6,13.6-13.6h189c7.5,0,13.6,6.1,13.6,13.6v275.4
			c0,7.5-6.1,13.6-13.6,13.6H13.7z"/>
		<path d="M202.8,0.2c7.4,0,13.5,6.1,13.5,13.5v275.4c0,7.4-6.1,13.5-13.5,13.5h-189c-7.4,0-13.5-6.1-13.5-13.5V13.7
			c0-7.4,6.1-13.5,13.5-13.5H202.8 M202.8,0h-189C6.2,0,0,6.2,0,13.7v275.4c0,7.6,6.2,13.8,13.8,13.8h189c7.6,0,13.8-6.2,13.8-13.8
			V13.7C216.5,6.2,210.3,0,202.8,0L202.8,0z"/>
	</g>
	<path d="M202.8,299.1h-189c-5.4,0-9.9-4.5-9.9-9.9V13.8c0-5.4,4.5-9.9,9.9-9.9h189c5.4,0,9.9,4.5,9.9,9.9v275.4
		C212.6,294.6,208.2,299.1,202.8,299.1z M9.2,92.1v197.1c0,2.5,2,4.5,4.5,4.5h189c2.5,0,4.5-2,4.5-4.5V92.1H9.2z"/>
	<path class="st1" d="M108.3,12l18,36l-18,36l-18-36L108.3,12z M108.3,24l-12,23.9l12,23.9l12-23.9L108.3,24z"/>
	<g>
		<polygon points="62.5,240.6 37.5,283.8 42.9,283.8 67.8,240.6 		"/>
	</g>
	<g>
		<g>
			<path d="M87.3,123.6H76.8v12.5h-4.5v-28.8h4.5V119h10.5v-11.6h4.6v28.8h-4.5V123.6z"/>
			<path d="M131.5,136.1l-9.1-28.8h4.8l6.2,19.2l6.1-19.2h4.9l-9.2,28.8H131.5z"/>
		</g>
	</g>
	<g>
		<path d="M61.9,153.3h4.5v24.6h13.3v4.2H61.9V153.3z"/>
		<path d="M98.2,174h-9l-2.8,8.1h-4.9l10-28.8H96l10,28.8h-4.9L98.2,174z M90.8,169.3h5.8l-2.8-8.1L90.8,169.3z"/>
		<path d="M114.8,162.5V182h-4.5v-28.8h4.5l10.5,18.4v-18.4h4.6V182h-4L114.8,162.5z"/>
		<path d="M136.8,153.3h17v4.5h-12.4v7.1h8.4v4.6h-8.4v7.9h13.3v4.6h-17.9V153.3z"/>
	</g>
	<g>
		<path d="M61.8,199.2h17v4.5H66.4v7.1h8.4v4.6h-8.4v7.9h13.3v4.6H61.8V199.2z"/>
		<path d="M89.1,208.4V228h-4.5v-28.8h4.5l10.5,18.4v-18.4h4.6V228h-4L89.1,208.4z"/>
		<path d="M111.1,228v-28.8h10.4c7.3,0,9.2,9.6,9.2,13.8c0,10.8-5.6,15-9.2,15H111.1z M120.8,203.7h-5.2v19.6h4.8
			c4.2,0,5.6-5.1,5.6-10.5C126.1,210.2,125.3,203.7,120.8,203.7z"/>
		<path d="M135,221.2l4.3-1.6c1.2,2.7,3.4,4.2,6.2,4.2c2.6,0,4.4-1.8,4.4-4.2c0-3.9-4.4-4.4-8.2-6c-1.7-0.7-5.6-2.4-5.6-7.2
			c0-5.7,3.8-7.8,9-7.8c4,0,6.8,2.3,8.2,5.9l-4,1.2c-0.5-1.1-2.1-2.5-4.2-2.5c-4.1,0-4.5,2.2-4.5,2.9c0,2.7,2.3,3.2,6.1,4.4
			c3.8,1.2,7.9,3,7.9,9.2c0,6.2-5,8.8-9.1,8.8C140.6,228.5,137,225.5,135,221.2z"/>
	</g>
	<g>
		<path d="M121.7,259.9l-6.7,16.7l-6.7-16.7v16.7h-4.6v-28.8h4.6l6.7,16.2l6.7-16.2h4.6v28.8h-4.6V259.9z"/>
		<path d="M133.2,247.8h4.6v28.8h-4.6V247.8z"/>
		<path d="M144.7,247.8h4.5v24.6h13.3v4.2h-17.9V247.8z"/>
		<path d="M166.9,247.8h17v4.5h-12.4v7.1h8.4v4.6h-8.4v7.9h13.3v4.6h-17.9V247.8z"/>
	</g>
	<g>
		<path d="M34.4,246h-2.6v-3.6h0.3c1.2,0,2.5-0.7,3.3-1.8H39v28.8h-4.6V246z"/>
		<path d="M68,279.1h14.1v4.6H62.6c0.1-3.3,0.8-6.1,2.4-8.8c5.1-8.4,12.6-7.6,12.6-12c0-2.1-2.4-3.8-5.3-3.8c-2.9,0-4.8,1.4-5.3,4
			l-4.5-1c1-4.7,4.7-7.7,9.8-7.7c5.5,0,9.8,3.8,9.8,8.6c0,3.4-2,5.6-4.5,7.2C73.7,272.7,70.2,273.7,68,279.1z"/>
	</g>
	<g>
		<path d="M118.5,121.7c0,1,0.2,14.9-10.2,14.9S98,122.8,98,121.7c0-1-0.2-14.9,10.2-14.9S118.5,120.7,118.5,121.7z M108.3,132
			c3.1,0,5.6-2.9,5.6-10.3c0-7.3-2.5-10.3-5.6-10.3c-3.1,0-5.6,2.9-5.6,10.3C102.7,129.1,105.2,132,108.3,132z"/>
	</g>
</g>
</svg>
