<?xml version="1.0" encoding="utf-8"?>
<!-- Generator: Adobe Illustrator 27.7.0, SVG Export Plug-In . SVG Version: 6.00 Build 0)  -->
<svg version="1.1" id="For_Sheets" xmlns="http://www.w3.org/2000/svg" xmlns:xlink="http://www.w3.org/1999/xlink" x="0px" y="0px"
	 viewBox="0 0 475.7 259.7" style="enable-background:new 0 0 475.7 259.7;" xml:space="preserve">
<style type="text/css">
	.st0{fill:#FFFFFF;}
	.st1{fill-rule:evenodd;clip-rule:evenodd;fill:#FFFFFF;}
	.st2{fill-rule:evenodd;clip-rule:evenodd;}
</style>
<g>
	<g>
		<path class="st0" d="M16.4,259.6c-9,0-16.3-7.3-16.3-16.3V16.5c0-9,7.3-16.3,16.3-16.3h442.8c9,0,16.3,7.3,16.3,16.3v226.8
			c0,9-7.3,16.3-16.3,16.3H16.4z"/>
		<path d="M459.2,0.2c8.9,0,16.2,7.3,16.2,16.2v226.8c0,8.9-7.3,16.2-16.2,16.2H16.4c-8.9,0-16.2-7.3-16.2-16.2V16.5
			c0-8.9,7.3-16.2,16.2-16.2H459.2 M459.2,0H16.4C7.4,0,0,7.4,0,16.5v226.8c0,9.1,7.4,16.5,16.4,16.5h442.8
			c9.1,0,16.5-7.4,16.5-16.5V16.5C475.7,7.4,468.3,0,459.2,0L459.2,0z"/>
	</g>
	<path d="M459.2,254.9H16.4c-6.5,0-11.7-5.2-11.7-11.7V16.4C4.7,10,10,4.7,16.4,4.7h442.8c6.5,0,11.7,5.2,11.7,11.7v226.8
		C470.9,249.7,465.7,254.9,459.2,254.9z M464.6,16.4c0-3-2.4-5.4-5.4-5.4H173.1v237.6h286.2c3,0,5.4-2.4,5.4-5.4V16.4z"/>
	<g>
		<polygon class="st1" points="89.4,43.4 132.6,129.8 89.4,216.2 46.1,129.8 		"/>
		<polygon class="st2" points="60.2,129.8 89.4,71.6 118.5,129.8 89.4,188.1 		"/>
	</g>
	<g>
		<path d="M249.3,108.3h6.8v36.8h20v6.4h-26.8V108.3z"/>
		<path d="M303.8,139.3h-13.6l-4.3,12.1h-7.3l14.9-43.2h6.9l14.9,43.2h-7.3L303.8,139.3z M292.7,132.4h8.7l-4.3-12.1L292.7,132.4z"
			/>
		<path d="M328.7,122.2v29.3h-6.8v-43.2h6.8l15.8,27.6v-27.6h6.8v43.2h-6.1L328.7,122.2z"/>
		<path d="M361.7,108.3h25.4v6.8h-18.6v10.6H381v7h-12.6v11.8h20v7h-26.8V108.3z"/>
	</g>
	<g>
		<path d="M251.1,209.5h-13.6l-4.3,12.1h-7.3l14.9-43.2h6.9l14.9,43.2h-7.3L251.1,209.5z M239.9,202.6h8.7l-4.3-12.1L239.9,202.6z"
			/>
		<path d="M291.7,202.9h-15.8v18.8h-6.8v-43.2h6.8v17.4h15.8v-17.4h6.8v43.2h-6.8V202.9z"/>
		<path d="M308.9,178.4h25.4v6.8h-18.6v10.6h12.6v7h-12.6v11.8h20v7h-26.8V178.4z"/>
		<path d="M364.3,209.5h-13.6l-4.3,12.1h-7.3l14.9-43.2h6.9l14.9,43.2h-7.3L364.3,209.5z M353.2,202.6h8.7l-4.3-12.1L353.2,202.6z"
			/>
		<path d="M382.4,221.6v-43.2H398c10.9,0,13.8,14.4,13.8,20.6c0,16.2-8.3,22.6-13.8,22.6H382.4z M396.9,185.3h-7.7v29.4h7.3
			c6.3,0,8.3-7.6,8.3-15.7C404.8,195.1,403.7,185.3,396.9,185.3z"/>
	</g>
	<g>
		<path d="M365.3,74.3h21.2v7h-29.4c0.2-5,1.2-9.1,3.6-13.2c7.6-12.7,18.9-11.4,18.9-18c0-3.2-3.6-5.8-7.9-5.8
			c-4.4,0-7.1,2.1-7.9,6.1l-6.8-1.5c1.5-7.1,7.1-11.5,14.7-11.5c8.2,0,14.7,5.8,14.7,12.9c0,5.2-3,8.5-6.8,10.8
			C373.9,64.6,368.5,66.2,365.3,74.3z"/>
		<path d="M410,74.3h-6.8V63.5h-11.1v-7h11.1V45.8h6.8v10.8h11.1v7H410V74.3z"/>
	</g>
	<g>
		<g>
			<path d="M239.2,62.5h-15.8v18.8h-6.8V38.1h6.8v17.4h15.8V38.1h6.8v43.2h-6.8V62.5z"/>
			<path d="M305.5,81.2l-13.7-43.2h7.1l9.3,28.8l9.1-28.8h7.3l-13.8,43.2H305.5z"/>
		</g>
		<path d="M286.2,59.6c0,1.5,0.3,22.4-15.3,22.4c-15.7,0-15.3-20.8-15.3-22.4c0-1.5-0.3-22.4,15.3-22.4
			C286.6,37.3,286.2,58.1,286.2,59.6z M271,75c4.7,0,8.4-4.4,8.4-15.4c0-11-3.8-15.4-8.4-15.4c-4.7,0-8.4,4.4-8.4,15.4
			C262.5,70.6,266.3,75,271,75z"/>
	</g>
</g>
</svg>
