<?xml version="1.0" encoding="UTF-8" standalone="no"?>
<!-- Created with Inkscape (http://www.inkscape.org/) -->

<svg
   xmlns:dc="http://purl.org/dc/elements/1.1/"
   xmlns:cc="http://creativecommons.org/ns#"
   xmlns:rdf="http://www.w3.org/1999/02/22-rdf-syntax-ns#"
   xmlns:svg="http://www.w3.org/2000/svg"
   xmlns="http://www.w3.org/2000/svg"
   xmlns:sodipodi="http://sodipodi.sourceforge.net/DTD/sodipodi-0.dtd"
   xmlns:inkscape="http://www.inkscape.org/namespaces/inkscape"
   width="73.71875"
   height="102.96875"
   id="svg4779"
   version="1.1"
   inkscape:version="0.48.2 r9819"
   sodipodi:docname="MUTCD R3-12b.svg">
  <defs
     id="defs4781" />
  <sodipodi:namedview
     id="base"
     pagecolor="#ffffff"
     bordercolor="#666666"
     borderopacity="1.0"
     inkscape:pageopacity="0.0"
     inkscape:pageshadow="2"
     inkscape:zoom="5.6568543"
     inkscape:cx="25.623555"
     inkscape:cy="56.06373"
     inkscape:document-units="px"
     inkscape:current-layer="layer1"
     showgrid="false"
     inkscape:window-width="1280"
     inkscape:window-height="1004"
     inkscape:window-x="-8"
     inkscape:window-y="-8"
     inkscape:window-maximized="1"
     fit-margin-top="0"
     fit-margin-left="0"
     fit-margin-right="0"
     fit-margin-bottom="0" />
  <metadata
     id="metadata4784">
    <rdf:RDF>
      <cc:Work
         rdf:about="">
        <dc:format>image/svg+xml</dc:format>
        <dc:type
           rdf:resource="http://purl.org/dc/dcmitype/StillImage" />
        <dc:title></dc:title>
      </cc:Work>
    </rdf:RDF>
  </metadata>
  <g
     inkscape:label="Layer 1"
     inkscape:groupmode="layer"
     id="layer1"
     transform="translate(-401.3125,3112.875)">
    <path
       inkscape:connector-curvature="0"
       d="m 406.17025,-3010.2059 63.98375,0 c 2.49375,0 4.57,-2.075 4.57,-4.57 l 0,-93.235 c -10e-4,-2.495 -2.07625,-4.57 -4.57,-4.57 l -63.98375,0 c -2.49625,0 -4.57125,2.075 -4.57125,4.57 l 0,93.235 c 0,2.675 2.0825,4.3187 4.57125,4.57"
       style="fill:#ffffff;fill-opacity:1;fill-rule:nonzero;stroke:#000000;stroke-width:0.6;stroke-linecap:butt;stroke-linejoin:miter;stroke-miterlimit:4;stroke-opacity:1;stroke-dasharray:none"
       id="path3212" />
    <path
       d="m 471.67019,-3014.7888 c 0,0.805 -0.685,1.4875 -1.4875,1.4988 l -63.9875,0 c -0.815,0 -1.4875,-0.6938 -1.4875,-1.4988 l 0,-65.285 c 0,-0.8175 0.6725,-1.485 1.4875,-1.4899 l 63.9875,0 c 0.80875,0 1.485,0.6837 1.4875,1.4899 l 0,65.285 z m -1.4875,-96.645 -63.9875,0 c -1.8625,0 -3.4075,1.5462 -3.4075,3.41 l 0,93.235 c 0,1.8612 1.54875,3.4087 3.4075,3.4087 l 63.9875,0 c 1.85875,0 3.4075,-1.5487 3.4075,-3.4087 l 0,-93.235 c 0,-1.8625 -1.54875,-3.41 -3.4075,-3.41"
       style="fill:#000000;fill-opacity:1;fill-rule:evenodd;stroke:none"
       id="path3172"
       inkscape:connector-curvature="0" />
    <path
       d="m 438.18756,-3108.8413 6.09375,12.1875 -6.09375,12.1875 -6.09375,-12.1875 6.09375,-12.1875 z m 0,3.895 4.14875,8.2925 -4.14875,8.2951 -4.1475,-8.2951 4.1475,-8.2925 z"
       style="fill:#ffffff;fill-opacity:1;fill-rule:evenodd;stroke:none"
       id="path3176"
       inkscape:connector-curvature="0" />
    <path
       d="m 431.18919,-3060.85 0,-4.1925 -3.51375,0 0,4.1925 -1.52375,0 0,-9.6362 1.52375,0 0,3.8887 3.51375,0 0,-3.8887 1.5225,0 0,9.6362 -1.5225,0 z"
       style="fill:#000000;fill-opacity:1;fill-rule:nonzero;stroke:none"
       id="path4040"
       inkscape:connector-curvature="0" />
    <path
       d="m 439.54294,-3068.355 c -0.305,-0.5074 -0.67625,-0.71 -1.2525,-0.7437 -0.74375,-0.035 -1.215,0.3375 -1.555,1.1825 -0.23625,0.575 -0.37375,1.4537 -0.37375,2.2662 0,1.0138 0.205,2.0625 0.57625,2.67 0.305,0.5075 0.71125,0.7438 1.32125,0.7438 0.705,0 1.1475,-0.3725 1.48375,-1.2175 0.2025,-0.5063 0.37375,-1.4537 0.37375,-2.1963 0,-1.0825 -0.2025,-2.0637 -0.57375,-2.705 m 1.0475,6.5926 c -0.54125,0.7437 -1.32125,1.0812 -2.33125,1.0812 -1.3525,0 -2.2,-0.54 -2.77625,-1.7237 -0.405,-0.8113 -0.67625,-2.0963 -0.67625,-3.2451 0,-1.5899 0.4075,-3.01 1.0475,-3.9224 0.57875,-0.7438 1.3575,-1.0813 2.47125,-1.0813 1.2175,0 2.0625,0.54 2.67,1.7238 0.40625,0.8449 0.6425,2.0625 0.6425,3.2799 0,1.52 -0.37125,3.0413 -1.0475,3.8876"
       style="fill:#000000;fill-opacity:1;fill-rule:nonzero;stroke:none"
       id="path4044"
       inkscape:connector-curvature="0" />
    <path
       d="m 447.14781,-3060.85 -1.18375,0 -3.04,-9.6362 1.5875,0 2.0625,6.4237 2.02626,-6.4237 1.62374,0 -3.07625,9.6362 z"
       style="fill:#000000;fill-opacity:1;fill-rule:nonzero;stroke:none"
       id="path4048"
       inkscape:connector-curvature="0" />
    <path
       d="m 422.67031,-3024.37 0,-9.6437 5.68875,0 0,1.5213 -4.16499,0 0,2.3699 2.81,0 0,1.5563 -2.81,0 0,2.6413 4.46999,0 0,1.5549 -5.99375,0 z"
       style="fill:#000000;fill-opacity:1;fill-rule:nonzero;stroke:none"
       id="path4052"
       inkscape:connector-curvature="0" />
    <path
       d="m 435.50031,-3024.37 -3.69124,-6.5312 0,6.5312 -1.52125,0 0,-9.6437 1.52125,0 3.51999,6.1575 0,-6.1575 1.52375,0 0,9.6437 -1.3525,0 z"
       style="fill:#000000;fill-opacity:1;fill-rule:nonzero;stroke:none"
       id="path4056"
       inkscape:connector-curvature="0" />
    <path
       d="m 443.38294,-3032.0875 c -0.23375,-0.2337 -0.5725,-0.4049 -0.98125,-0.4049 l -1.72625,0 0,6.5675 1.52375,0 c 0.5075,0 0.81375,-0.1026 1.08125,-0.3713 0.57625,-0.5763 0.8825,-1.6263 0.8825,-2.91 0,-1.2888 -0.30625,-2.3738 -0.78,-2.8813 m 0.645,7.1775 c -0.37375,0.3376 -0.87875,0.5088 -1.38625,0.54 l -0.5425,0 -2.94625,0 0,-9.6437 3.1125,0 c 0.98375,0 1.3575,0.1 1.865,0.5075 1.01625,0.88 1.59,2.4025 1.59,4.3 0,1.9263 -0.61125,3.45 -1.6925,4.2962"
       style="fill:#000000;fill-opacity:1;fill-rule:nonzero;stroke:none"
       id="path4060"
       inkscape:connector-curvature="0" />
    <path
       d="m 452.75794,-3024.9462 c -0.54125,0.4763 -1.28375,0.7475 -2.09625,0.7475 -1.66,0 -2.87875,-0.9812 -3.52125,-2.4375 l 1.455,-0.5412 c 0.40625,0.9124 1.1525,1.4212 2.06625,1.4212 0.87875,0 1.48875,-0.6112 1.48875,-1.4212 0,-1.2863 -1.48875,-1.4901 -2.74375,-1.9975 -0.57375,-0.2363 -1.8575,-0.8125 -1.8575,-2.4051 0,-1.8937 1.28375,-2.605 3.01,-2.605 1.3525,0 2.2675,0.7788 2.73875,1.9663 l -1.3525,0.405 c 0,0 -0.33875,-0.8125 -1.42125,-0.8475 -0.71,-0.034 -1.555,0.24 -1.48875,1.1187 0.13625,1.7913 4.67,0.6075 4.67,4.3988 0,0.8787 -0.33625,1.6575 -0.9475,2.1975"
       style="fill:#000000;fill-opacity:1;fill-rule:nonzero;stroke:none"
       id="path4064"
       inkscape:connector-curvature="0" />
    <path
       d="m 410.16544,-3051.0099 -1.465,0 0,2.5124 1.465,0 c 0.8375,0 1.29125,-0.4537 1.29125,-1.2562 0,-0.7675 -0.52125,-1.2562 -1.29125,-1.2562 m 1.22375,8.5512 -1.32875,-4.6762 -1.36,0 0,4.6762 -1.4325,0 0,-9.9475 2.96875,0 c 1.57,0 2.6175,1.0475 2.6175,2.6525 0,1.1862 -0.48875,2.0587 -1.43125,2.4088 l 1.43125,4.8862 -1.465,0 z"
       style="fill:#000000;fill-opacity:1;fill-rule:nonzero;stroke:none"
       id="path4068"
       inkscape:connector-curvature="0" />
    <path
       d="m 414.00419,-3042.4587 0,-9.9475 4.6775,0 0,1.3963 -3.2475,0 0,2.5124 2.06125,0 0,1.3626 -2.06125,0 0,3.2799 3.63,0 0,1.3963 -5.06,0 z"
       style="fill:#000000;fill-opacity:1;fill-rule:nonzero;stroke:none"
       id="path4072"
       inkscape:connector-curvature="0" />
    <path
       d="m 422.51906,-3042.285 c -1.7425,0 -2.79,-1.465 -2.79,-3.1062 l 1.39625,0 c 0,0.8375 0.42,1.71 1.39375,1.71 0.76626,0 1.39625,-0.6975 1.39625,-1.5 0,-0.5587 -0.21,-0.9775 -0.8025,-1.43 -0.20999,-0.21 0.34875,0.1737 -1.6725,-1.1887 -0.80375,-0.5576 -1.22375,-1.3251 -1.22375,-2.1976 0,-1.4312 1.11876,-2.5837 2.54625,-2.5837 1.39751,0 2.47875,1.0825 2.51501,2.5837 l -1.36251,0 c -0.0337,-0.6987 -0.525,-1.1512 -1.1525,-1.1512 -0.66375,0 -1.18625,0.4875 -1.18625,1.1512 0,0.4888 0.21,0.7675 0.9425,1.1875 1.91875,1.115 2.75876,2.1988 2.75876,3.6288 0,1.605 -1.22251,2.8962 -2.75876,2.8962"
       style="fill:#000000;fill-opacity:1;fill-rule:nonzero;stroke:none"
       id="path4076"
       inkscape:connector-curvature="0" />
    <path
       d="m 428.90794,-3051.08 0,8.6213 -1.4325,0 0,-8.6213 -1.81375,0 0,-1.3262 5.05875,0 0,1.3262 -1.8125,0 z"
       style="fill:#000000;fill-opacity:1;fill-rule:nonzero;stroke:none"
       id="path4080"
       inkscape:connector-curvature="0" />
    <path
       d="m 434.45544,-3051.0099 -1.465,0 0,2.5124 1.465,0 c 0.8375,0 1.29125,-0.4537 1.29125,-1.2562 0,-0.7675 -0.5225,-1.2562 -1.29125,-1.2562 m 1.2225,8.5512 -1.3275,-4.6762 -1.36,0 0,4.6762 -1.4325,0 0,-9.9475 2.96875,0 c 1.56875,0 2.61625,1.0475 2.61625,2.6525 0,1.1862 -0.4875,2.0587 -1.43,2.4088 l 1.43,4.8862 -1.465,0 z"
       style="fill:#000000;fill-opacity:1;fill-rule:nonzero;stroke:none"
       id="path4084"
       inkscape:connector-curvature="0" />
    <path
       d="m 438.29269,-3052.4066 1.39625,0 0,9.9475 -1.39625,0 0,-9.9475 z"
       style="fill:#000000;fill-opacity:1;fill-rule:nonzero;stroke:none"
       id="path4086"
       inkscape:connector-curvature="0" />
    <path
       d="m 445.31031,-3049.7537 c -0.14,-0.9763 -0.52249,-1.4313 -1.1875,-1.4313 -1.15249,0 -1.5725,0.9075 -1.5725,3.49 0,2.8625 0.49125,4.0138 1.7125,4.0138 0.83751,0 1.0475,-0.6975 1.0475,-1.43 l 1.4275,0 c -0.0337,1.6387 -1.07875,2.8262 -2.475,2.8262 -2.13,0 -3.07124,-1.7112 -3.07124,-5.3737 0,-3.2113 1.00999,-4.9225 2.96625,-4.9225 0.8025,0 1.50124,0.3487 1.95249,1.0137 0.38376,0.4875 0.5225,0.9063 0.6275,1.8138 l -1.4275,0 z"
       style="fill:#000000;fill-opacity:1;fill-rule:nonzero;stroke:none"
       id="path4090"
       inkscape:connector-curvature="0" />
    <path
       d="m 450.68281,-3051.08 0,8.6213 -1.43,0 0,-8.6213 -1.81624,0 0,-1.3262 5.0625,0 0,1.3262 -1.81626,0 z"
       style="fill:#000000;fill-opacity:1;fill-rule:nonzero;stroke:none"
       id="path4094"
       inkscape:connector-curvature="0" />
    <path
       d="m 453.33394,-3052.4066 1.3975,0 0,9.9475 -1.3975,0 0,-9.9475 z"
       style="fill:#000000;fill-opacity:1;fill-rule:nonzero;stroke:none"
       id="path4096"
       inkscape:connector-curvature="0" />
    <path
       d="m 460.38544,-3049.9287 c -0.24375,-0.8725 -0.6275,-1.2563 -1.22125,-1.2563 -0.62875,0 -1.0125,0.3838 -1.25625,1.2225 -0.245,0.7675 -0.315,1.4301 -0.315,2.5475 0,1.0813 0.105,1.71 0.315,2.5125 0.24375,0.8375 0.6275,1.2213 1.25625,1.2213 0.59375,0 0.9775,-0.3838 1.22125,-1.2213 0.24375,-0.8025 0.315,-1.3962 0.315,-2.5474 0,-1.1176 -0.105,-1.7451 -0.315,-2.4788 m 1.11875,5.9325 c -0.48875,1.1887 -1.22375,1.7112 -2.34,1.7112 -1.18875,0 -1.88625,-0.5225 -2.375,-1.7112 -0.4175,-0.9763 -0.55875,-1.9188 -0.55875,-3.4537 0,-1.5013 0.14125,-2.5126 0.55875,-3.455 0.525,-1.1863 1.22375,-1.6763 2.375,-1.6763 1.1525,0 1.85125,0.49 2.34,1.7112 0.4175,0.9775 0.55375,1.9188 0.55375,3.4201 0,1.5349 -0.13625,2.5124 -0.55375,3.4537"
       style="fill:#000000;fill-opacity:1;fill-rule:nonzero;stroke:none"
       id="path4100"
       inkscape:connector-curvature="0" />
    <path
       d="m 468.02919,-3042.4587 -3.07375,-6.6663 0,6.6663 -1.43,0 0,-9.9475 1.43,0 2.725,5.9687 0,-5.9687 1.43125,0 0,9.9475 -1.0825,0 z"
       style="fill:#000000;fill-opacity:1;fill-rule:nonzero;stroke:none"
       id="path4104"
       inkscape:connector-curvature="0" />
  </g>
</svg>
