<?xml version="1.0" encoding="utf-8"?>
<!-- Generator: Adobe Illustrator 27.7.0, SVG Export Plug-In . SVG Version: 6.00 Build 0)  -->
<svg version="1.1" id="For_Sheets" xmlns="http://www.w3.org/2000/svg" xmlns:xlink="http://www.w3.org/1999/xlink" x="0px" y="0px"
	 viewBox="0 0 518.9 432.5" style="enable-background:new 0 0 518.9 432.5;" xml:space="preserve">
<style type="text/css">
	.st0{fill:#FFFFFF;}
</style>
<g>
	<g>
		<path class="st0" d="M21.9,432.4c-12,0-21.7-9.7-21.7-21.7V21.9c0-12,9.7-21.7,21.7-21.7h475.2c12,0,21.7,9.7,21.7,21.7v388.8
			c0,12-9.7,21.7-21.7,21.7H21.9z"/>
		<path d="M497.1,0.2c11.9,0,21.6,9.7,21.6,21.6v388.8c0,11.9-9.7,21.6-21.6,21.6H21.9c-11.9,0-21.6-9.7-21.6-21.6V21.9
			C0.2,9.9,9.9,0.2,21.9,0.2H497.1 M497.1,0H21.9C9.8,0,0,9.8,0,21.9v388.8c0,12,9.8,21.8,21.9,21.8h475.2c12,0,21.8-9.8,21.8-21.8
			V21.9C518.9,9.8,509.1,0,497.1,0L497.1,0z"/>
	</g>
	<path d="M497,426.9H21.8c-8.9,0-16.2-7.3-16.2-16.2V21.9c0-8.9,7.3-16.2,16.2-16.2H497c8.9,0,16.2,7.3,16.2,16.2v388.8
		C513.2,419.6,506,426.9,497,426.9z M497,14.7H129.9v201.6H14.6v194.4c0,4,3.2,7.2,7.2,7.2H497c4,0,7.2-3.2,7.2-7.2V21.9
		C504.2,17.9,501,14.7,497,14.7z"/>
	<path class="st0" d="M30.8,111l37.8-75.6l37.8,75.6l-37.8,75.6L30.8,111z M68.6,162.4L94.4,111L68.6,59.5L42.9,111L68.6,162.4z"/>
	<path d="M277,264.9v48.6l62.2-16c0.4-0.1,0.8-0.2,1.3-0.2c3,0,5.4,2.4,5.4,5.4c0,1.5-0.6,2.9-1.6,3.8l-84.8,77.2l-84.8-77.2
		c-1-1-1.6-2.3-1.6-3.8c0-3,2.4-5.4,5.4-5.4c0.4,0,0.9,0.1,1.3,0.2l62.2,16v-48.6H277z"/>
	<path d="M380.9,95.4h28.3v9.3H370c0.2-6.7,1.6-12.1,4.9-17.6c10.1-16.9,25.3-15.2,25.3-24c0-4.2-4.8-7.7-10.5-7.7
		c-5.9,0-9.5,2.8-10.5,8.1l-9.1-2c2-9.5,9.5-15.4,19.6-15.4c10.9,0,19.6,7.7,19.6,17.2c0,6.9-4,11.3-9.1,14.5
		C392.3,82.5,385.2,84.6,380.9,95.4z"/>
	<path d="M451.1,95.4H442V81h-14.8v-9.3H442V57.4h9.1v14.3h14.8V81h-14.8V95.4z"/>
	<g>
		<g>
			<path d="M198.4,79.6h-21v25.1h-9.1V47.1h9.1v23.2h21V47.1h9.1v57.6h-9.1V79.6z"/>
			<path d="M286.8,104.6l-18.3-57.6h9.5l12.4,38.4l12.2-38.4h9.7l-18.5,57.6H286.8z"/>
		</g>
		<path d="M261.1,75.8c0,2.1,0.4,29.8-20.5,29.8s-20.5-27.7-20.5-29.8c0-2.1-0.4-29.8,20.5-29.8S261.1,73.8,261.1,75.8z M240.7,96.4
			c6.2,0,11.2-5.9,11.2-20.5c0-14.6-5-20.5-11.2-20.5c-6.2,0-11.2,5.9-11.2,20.5C229.5,90.5,234.5,96.4,240.7,96.4z"/>
	</g>
	<g>
		<g>
			<path d="M282,166.4v39H273v-57.6h9.1l21,36.8v-36.8h9.1v57.6h-8.1L282,166.4z"/>
			<path d="M326,147.8h9.1V197h26.6v8.5H326V147.8z"/>
			<path d="M394.6,205.4h-9.1v-25.1l-20.3-32.5h11l13.8,22.2l14-22.2h10.8l-20.1,32.5V205.4z"/>
		</g>
		<g>
			<path d="M260.3,176.6c0,2.1,0.4,29.8-20.5,29.8s-20.5-27.7-20.5-29.8c0-2.1-0.4-29.8,20.5-29.8S260.3,174.6,260.3,176.6z
				 M239.9,197.2c6.2,0,11.2-5.9,11.2-20.5c0-14.6-5-20.5-11.2-20.5c-6.2,0-11.2,5.9-11.2,20.5C228.7,191.3,233.7,197.2,239.9,197.2
				z"/>
		</g>
	</g>
</g>
</svg>
