<?xml version="1.0" encoding="utf-8"?>
<!-- Generator: Adobe Illustrator 27.7.0, SVG Export Plug-In . SVG Version: 6.00 Build 0)  -->
<svg version="1.1" id="For_Sheets" xmlns="http://www.w3.org/2000/svg" xmlns:xlink="http://www.w3.org/1999/xlink" x="0px" y="0px"
	 viewBox="0 0 173.3 130.1" style="enable-background:new 0 0 173.3 130.1;" xml:space="preserve">
<style type="text/css">
	.st0{fill:#FFFFFF;}
</style>
<g>
	<g>
		<path class="st0" d="M11.1,130c-6,0-10.9-4.9-10.9-10.9v-108C0.1,5,5,0.1,11.1,0.1h151.2c6,0,10.9,4.9,10.9,10.9v108
			c0,6-4.9,10.9-10.9,10.9H11.1z"/>
		<path d="M162.2,0.2c6,0,10.8,4.8,10.8,10.8v108c0,6-4.8,10.8-10.8,10.8H11c-6,0-10.8-4.8-10.8-10.8V11c0-6,4.8-10.8,10.8-10.8
			H162.2 M162.2,0H11C5,0,0,5,0,11v108c0,6.1,5,11.1,11,11.1h151.2c6.1,0,11-5,11-11.1V11C173.3,5,168.3,0,162.2,0L162.2,0z"/>
	</g>
	<path d="M162.2,3H11c-4.5,0-8.1,3.6-8.1,8.1v108c0,4.5,3.6,8.1,8.1,8.1h151.2c4.5,0,8.1-3.6,8.1-8.1v-108
		C170.3,6.6,166.7,3,162.2,3z M165.8,119.1c0,2-1.6,3.6-3.6,3.6H11c-2,0-3.6-1.6-3.6-3.6V79.5h158.4V119.1z"/>
	<g>
		<path d="M14.9,115.5V86.7H24c3.8,0,6.6,3,6.6,7.5c0,2.6-0.7,3.8-3,6.3c2.2,1.8,3.5,4.2,3.5,7.2c0,4.3-3.4,7.9-7.7,7.9H14.9z
			 M19,90.7v7.7h4.3c1.9,0,3.1-1.6,3.1-4.2c0-2.5-0.9-3.4-3.1-3.4H19z M19,111.4h4.1c2.3,0,3.8-1.6,3.8-4.1c0-2.8-1.7-4.8-3.8-4.8
			H19V111.4z"/>
		<path d="M33.5,86.7h4v28.8h-4V86.7z"/>
		<path d="M47.5,101.4l-2.6,4.8v9.2h-4.1V86.7h4.1v11.5l6.6-11.5h4.7l-6,10.1l6.7,18.7h-4.3L47.5,101.4z"/>
		<path d="M59.3,86.7h13.6v4h-9.4V98h6v3.9h-6v9.5H74v4H59.3V86.7z"/>
	</g>
	<g>
		<path d="M88.4,86.7h4.2v25h10.5v3.8H88.4V86.7z"/>
		<path d="M116.2,107.6H110l-1.9,7.9h-4.2l7.2-28.8h4.1l7.2,28.8h-4.2L116.2,107.6z M111,103.5h4.2l-2.1-8.3L111,103.5z"/>
		<path d="M128.5,96.2v19.3h-4.1V86.7h4.1l7.9,17.3V86.7h4.1v28.8h-3.1L128.5,96.2z"/>
		<path d="M143.7,86.7h13.6v4h-9.4V98h6v3.9h-6v9.5h10.5v4h-14.7V86.7z"/>
	</g>
	<path class="st0" d="M55.3,32.3c3.5,0,6.7,0.9,9.5,2.5c1.6-4.9,4.1-13.2,5.2-16.6l-2.3-1.7l3.6-3.6h8.3v2.4h-7.3l-0.9,0.9l2,1.5
		c-0.1,0.4-0.4,1.3-0.7,2.5c-0.4,1.4-0.9,3.1-1.5,5h27.2l0.5-1.9c-3-0.3-7.3-1.3-7.4-2.6c0-1.2,6.7-1.2,8-1.2
		c4.6-0.1,8.8-1.2,8.9,0.3c0.1,1.5-2.2,3.1-6.4,3.5l-0.9,3.1l6.7,8.9c3-1.9,6.5-3,10.2-3c10.5,0,19.1,8.5,19.1,19.1
		c0,10.5-8.5,19.1-19.1,19.1c-8.6,0-15.9-5.7-18.3-13.6l-6.9,1.5c-0.2,0.3-0.4,0.6-0.8,0.8l1.5,5.8h1.8v1.4h-4.6v-1.4h1.5l-1.4-5.5
		c-1.2,0-2.2-1-2.2-2.2c0-0.1,0-0.1,0-0.2L68.1,34.7c-0.2,0.7-0.4,1.4-0.6,2c4.2,3.5,6.9,8.8,6.9,14.7c0,10.5-8.5,19.1-19.1,19.1
		c-10.5,0-19.1-8.5-19.1-19.1C36.2,40.8,44.8,32.3,55.3,32.3z"/>
	<path d="M102.6,53.1l12.7-2.7L107.5,40c-3.1,2.8-5,6.9-5,11.4C102.5,52,102.5,52.6,102.6,53.1z"/>
	<path d="M55.3,66.9c8.5,0,15.5-6.9,15.5-15.5C70.8,47,69,43,66,40.2c-1.2,2.4-2.8,4.6-4,6.2c-1.7,2.2-3.4,4-4.7,5.2
		c-0.1,1-1,1.8-2,1.8c-1.1,0-2-0.9-2-2c0-1.1,0.9-2,2-2c2.7-2.5,6.4-6.9,8.3-11.1c-2.4-1.5-5.2-2.4-8.3-2.4
		c-8.5,0-15.5,6.9-15.5,15.5C39.8,59.9,46.8,66.9,55.3,66.9z"/>
	<path d="M88.2,49.5h-1.8v-1.4H91v1.4h-1.5l0.9,3.6l7-24.9H70.1c-0.3,1.1-0.7,2.1-1,3.2l19.9,21.7L88.2,49.5z"/>
	<path d="M99.1,53.9c-0.1-0.8-0.2-1.7-0.2-2.5c0-5.7,2.5-10.8,6.4-14.3l-5.3-7l-7,25.1L99.1,53.9z"/>
	<path d="M120,51.4c0,1.1-0.9,2-2,2c-0.4,0-0.7-0.1-1-0.3l-13.8,3c2,6.2,7.8,10.7,14.7,10.7c8.5,0,15.5-6.9,15.5-15.5
		c0-8.5-6.9-15.5-15.5-15.5c-2.9,0-5.7,0.8-8,2.3l8.5,11.2C119.3,49.6,120,50.4,120,51.4z"/>
</g>
</svg>
