<?xml version="1.0" encoding="UTF-8" standalone="no"?>
<!-- Created with Inkscape (http://www.inkscape.org/) -->

<svg
   xmlns:dc="http://purl.org/dc/elements/1.1/"
   xmlns:cc="http://creativecommons.org/ns#"
   xmlns:rdf="http://www.w3.org/1999/02/22-rdf-syntax-ns#"
   xmlns:svg="http://www.w3.org/2000/svg"
   xmlns="http://www.w3.org/2000/svg"
   xmlns:sodipodi="http://sodipodi.sourceforge.net/DTD/sodipodi-0.dtd"
   xmlns:inkscape="http://www.inkscape.org/namespaces/inkscape"
   width="74.53125"
   height="104.09375"
   id="svg4779"
   version="1.1"
   inkscape:version="0.48.2 r9819"
   sodipodi:docname="AJAX1.svg">
  <defs
     id="defs4781" />
  <sodipodi:namedview
     id="base"
     pagecolor="#ffffff"
     bordercolor="#666666"
     borderopacity="1.0"
     inkscape:pageopacity="0.0"
     inkscape:pageshadow="2"
     inkscape:zoom="5.6568543"
     inkscape:cx="32.618903"
     inkscape:cy="54.495053"
     inkscape:document-units="px"
     inkscape:current-layer="layer1"
     showgrid="false"
     inkscape:window-width="1280"
     inkscape:window-height="1004"
     inkscape:window-x="-8"
     inkscape:window-y="-8"
     inkscape:window-maximized="1"
     fit-margin-top="0"
     fit-margin-left="0"
     fit-margin-right="0"
     fit-margin-bottom="0" />
  <metadata
     id="metadata4784">
    <rdf:RDF>
      <cc:Work
         rdf:about="">
        <dc:format>image/svg+xml</dc:format>
        <dc:type
           rdf:resource="http://purl.org/dc/dcmitype/StillImage" />
        <dc:title />
      </cc:Work>
    </rdf:RDF>
  </metadata>
  <g
     inkscape:label="Layer 1"
     inkscape:groupmode="layer"
     id="layer1"
     transform="translate(-530.09375,3114)">
    <path
       d="m 604.3125,-3014.8281 c 0,2.5513 -2.07,4.6225 -4.62125,4.6225 l -64.6875,0 c -2.55625,0 -4.62125,-2.0712 -4.62125,-4.6225 l 0,-94.2625 c 0,-2.5513 2.065,-4.6213 4.62125,-4.6213 l 64.6875,0 c 2.55125,0 4.62125,2.07 4.62125,4.6213 l 0,94.2625 z"
       style="fill:#ffffff;fill-opacity:1;fill-rule:nonzero;stroke:#000000;stroke-width:0.59999996;stroke-miterlimit:4;stroke-opacity:1;stroke-dasharray:none"
       id="path4278"
       inkscape:connector-curvature="0" />
    <path
       d="m 601.23125,-3014.8281 c 0,0.8525 -0.6875,1.5412 -1.54,1.5412 l -64.6875,0 c -0.8525,0 -1.5425,-0.6887 -1.5425,-1.5412 l 0,-94.2625 c 0,-0.8487 0.69,-1.54 1.5425,-1.54 l 64.6875,0 c 0.8525,0 1.54,0.6913 1.54,1.54 l 0,94.2625 z m -1.54,-97.6513 -64.6875,0 c -1.87,0 -3.39125,1.5213 -3.39125,3.3888 l 0,94.2625 c 0,1.87 1.52125,3.3912 3.39125,3.3912 l 64.6875,0 c 1.87,0 3.39125,-1.5212 3.39125,-3.3912 l 0,-94.2625 c 0,-1.8675 -1.52125,-3.3888 -3.39125,-3.3888"
       style="fill:#000000;fill-opacity:1;fill-rule:nonzero;stroke:none"
       id="path4286"
       inkscape:connector-curvature="0" />
    <path
       d="m 560.10919,-3093.3619 c 0,-0.8175 -0.30375,-1.3887 -0.89874,-1.7087 -0.29625,-0.1563 -0.60875,-0.2338 -0.93501,-0.2338 l -1.60875,0 0,3.935 1.88,0 c 0.25375,0 0.52,-0.095 0.80001,-0.28 0.50749,-0.3375 0.76249,-0.9062 0.76249,-1.7125 m -0.36375,-5.2775 c 0,-0.9812 -0.46749,-1.5112 -1.3975,-1.5925 l -1.68125,0 0,3.1988 1.4225,0 c 1.10375,0 1.65625,-0.535 1.65625,-1.6063 m 2.08875,5.3025 c 0,1.65 -0.59,2.7663 -1.7725,3.34 -0.5,0.2388 -1.105,0.3588 -1.81125,0.3588 l -3.3125,0 0,-12.3238 3.545,0 c 0.58375,0.065 1.08626,0.2188 1.50376,0.4563 0.99375,0.5837 1.48875,1.5675 1.48875,2.9562 0,1.3238 -0.46626,2.1263 -1.40376,2.405 1.17501,0.6463 1.7625,1.5838 1.7625,2.8075"
       style="fill:#000000;fill-opacity:1;fill-rule:nonzero;stroke:none"
       id="path4484"
       inkscape:connector-curvature="0" />
    <path
       d="m 570.83169,-3092.9681 c 0,0.9525 -0.3375,1.765 -1.00624,2.4387 -0.66876,0.6713 -1.48252,1.0113 -2.44375,1.0113 -0.9525,0 -1.765,-0.34 -2.43625,-1.0113 -0.67626,-0.6737 -1.01376,-1.4862 -1.01376,-2.4387 l 0,-8.9938 1.73126,0 0,8.9888 c 0,0.4787 0.16373,0.8837 0.49748,1.2212 0.33001,0.3363 0.74001,0.505 1.22127,0.505 0.46623,0 0.86874,-0.1687 1.20875,-0.505 0.34124,-0.3375 0.51248,-0.7425 0.51248,-1.2212 l 0,-8.9888 1.72875,0 0,8.9938 z"
       style="fill:#000000;fill-opacity:1;fill-rule:nonzero;stroke:none"
       id="path4488"
       inkscape:connector-curvature="0" />
    <path
       d="m 579.82545,-3093.002 c 0,0.8687 -0.225,1.62 -0.67876,2.25 -0.58124,0.8212 -1.4425,1.2337 -2.585,1.2337 -1.28,0 -2.23875,-0.4125 -2.86875,-1.2337 -0.50874,-0.6488 -0.7625,-1.465 -0.7625,-2.4488 l 1.72625,0 c 0,0.7138 0.22501,1.2413 0.67876,1.585 0.33749,0.2438 0.745,0.3688 1.23124,0.3688 0.98876,0 1.47875,-0.5887 1.47875,-1.7625 0,-0.9188 -0.4,-1.6675 -1.19625,-2.2538 -0.74,-0.4587 -1.48125,-0.9125 -2.22875,-1.3649 -0.79624,-0.6151 -1.19624,-1.4213 -1.19624,-2.4125 0,-0.6488 0.17999,-1.2426 0.54374,-1.7863 0.55501,-0.8375 1.45126,-1.255 2.68126,-1.255 1.29874,0 2.21624,0.4862 2.75875,1.4525 0.22249,0.4025 0.36123,0.8912 0.4175,1.465 l -1.72875,0 c 0,-0.205 -0.07,-0.4075 -0.21,-0.6125 -0.24626,-0.3838 -0.65877,-0.5762 -1.24252,-0.5762 -0.99374,0 -1.48875,0.4387 -1.48875,1.3174 0,0.4863 0.40251,0.9675 1.20627,1.4538 1.1975,0.705 1.94998,1.205 2.255,1.5012 0.80624,0.795 1.20875,1.8213 1.20875,3.0788"
       style="fill:#000000;fill-opacity:1;fill-rule:nonzero;stroke:none"
       id="path4492"
       inkscape:connector-curvature="0" />
    <path
       d="m 557.40157,-3068.0756 -6.285,0 0,-12.3213 1.72875,0 0,10.5925 4.55625,0 0,1.7288 z"
       style="fill:#000000;fill-opacity:1;fill-rule:nonzero;stroke:none"
       id="path4496"
       inkscape:connector-curvature="0" />
    <path
       d="m 563.03544,-3073.1244 -0.95875,-4.0087 -0.9725,4.0087 1.93125,0 z m 2.98375,5.0488 -1.76,0 -0.80374,-3.32 -2.77125,0 -0.8025,3.32 -1.74875,0 2.98375,-12.3213 1.91874,0 2.98375,12.3213 z"
       style="fill:#000000;fill-opacity:1;fill-rule:nonzero;stroke:none"
       id="path4500"
       inkscape:connector-curvature="0" />
    <path
       d="m 574.64907,-3068.0756 -1.7275,0 -3.4425,-7.9713 0,7.9713 -1.72875,0 0,-12.3213 1.72625,0 3.44875,7.9613 -0.004,-7.9613 1.7275,0 0,12.3213 z"
       style="fill:#000000;fill-opacity:1;fill-rule:nonzero;stroke:none"
       id="path4504"
       inkscape:connector-curvature="0" />
    <path
       d="m 583.64919,-3068.0581 -6.285,-0.017 0,-12.3213 6.285,0 0,1.7275 -4.55874,0 0,3.2013 2.70749,0 0,1.7287 -2.70749,0 0,3.935 4.55874,0 0,1.7463 z"
       style="fill:#000000;fill-opacity:1;fill-rule:nonzero;stroke:none"
       id="path4508"
       inkscape:connector-curvature="0" />
    <path
       d="m 556.8467,-3046.4931 -6.28376,-0.015 0,-12.3238 6.28376,0 0,1.7275 -4.5525,0 0,3.2013 2.7075,0 0,1.7287 -2.7075,0 0,3.935 4.5525,0 0,1.7463 z"
       style="fill:#000000;fill-opacity:1;fill-rule:nonzero;stroke:none"
       id="path4512"
       inkscape:connector-curvature="0" />
    <path
       d="m 565.83907,-3046.5081 -1.72875,0 -3.4375,-7.9763 0,7.9763 -1.73125,0 0,-12.3238 1.72875,0 3.45,7.9588 -0.01,-7.9588 1.72875,0 0,12.3238 z"
       style="fill:#000000;fill-opacity:1;fill-rule:nonzero;stroke:none"
       id="path4516"
       inkscape:connector-curvature="0" />
    <path
       d="m 573.72419,-3052.6631 c 0,-2.9613 -0.6975,-4.4413 -2.09,-4.4413 l -1.3525,0 0,8.8825 1.3525,0 c 1.3925,0 2.09,-1.48 2.09,-4.4412 m 1.72626,-0.01 c 0,2.4662 -0.48375,4.2112 -1.45001,5.2425 -0.59375,0.625 -1.29125,0.935 -2.095,0.935 l -0.27374,0 -3.07876,0 0,-12.3388 3.21625,0 c 0.80501,0 1.49376,0.2625 2.06751,0.7875 1.07625,0.9838 1.61375,2.7788 1.61375,5.3738"
       style="fill:#000000;fill-opacity:1;fill-rule:nonzero;stroke:none"
       id="path4520"
       inkscape:connector-curvature="0" />
    <path
       d="m 584.20045,-3049.8731 c 0,0.87 -0.225,1.6187 -0.67626,2.2487 -0.58374,0.8238 -1.4475,1.2338 -2.5875,1.2338 -1.2825,0 -2.23624,-0.41 -2.87124,-1.2338 -0.50751,-0.6462 -0.76251,-1.4625 -0.76251,-2.4487 l 1.72625,0 c 0,0.7137 0.23,1.2412 0.67875,1.5875 0.3375,0.2437 0.75,0.3687 1.23375,0.3687 0.98625,0 1.47875,-0.5887 1.47875,-1.7625 0,-0.9212 -0.39749,-1.67 -1.19375,-2.2537 -0.73999,-0.4588 -1.48625,-0.9138 -2.23125,-1.365 -0.79624,-0.615 -1.19624,-1.4213 -1.19624,-2.415 0,-0.6463 0.17999,-1.2425 0.54125,-1.7838 0.55999,-0.8375 1.45124,-1.2575 2.68374,-1.2575 1.29625,0 2.21375,0.4863 2.75625,1.455 0.2225,0.4025 0.36125,0.8888 0.42001,1.4625 l -1.73126,0 c 0,-0.2025 -0.0675,-0.405 -0.20749,-0.6125 -0.24626,-0.3837 -0.66125,-0.5737 -1.24501,-0.5737 -0.99374,0 -1.48874,0.4362 -1.48874,1.315 0,0.4837 0.40249,0.97 1.20999,1.455 1.19875,0.7037 1.94875,1.2062 2.25376,1.5025 0.80624,0.795 1.20875,1.8212 1.20875,3.0775"
       style="fill:#000000;fill-opacity:1;fill-rule:nonzero;stroke:none"
       id="path4524"
       inkscape:connector-curvature="0" />
    <path
       d="m 541.27157,-3028.0044 -1.72625,0 0,-10.1075 -0.85625,0 0,-1.355 c 0.21249,-0.015 0.36125,-0.032 0.44375,-0.046 0.14625,-0.033 0.30499,-0.099 0.47875,-0.1988 0.17375,-0.098 0.37375,-0.305 0.60375,-0.615 l 1.05624,0 0,12.3225 z"
       style="fill:#000000;fill-opacity:1;fill-rule:nonzero;stroke:none"
       id="path4528"
       inkscape:connector-curvature="0" />
    <path
       d="m 552.88419,-3040.3269 -10.68499,18.4813 -1.97001,0 10.61875,-18.4813 2.03625,0 z"
       style="fill:#000000;fill-opacity:1;fill-rule:nonzero;stroke:none"
       id="path4532"
       inkscape:connector-curvature="0" />
    <path
       d="m 574.62782,-3024.9331 -1.72625,0 0,-6.9 -2.33625,6.9 -2.33625,-6.9 0,6.9 -1.72875,0 0,-12.3225 1.72375,0 2.33875,6.9025 2.33875,-6.9025 1.72625,0 0,12.3225 z"
       style="fill:#000000;fill-opacity:1;fill-rule:nonzero;stroke:none"
       id="path4540"
       inkscape:connector-curvature="0" />
    <path
       d="m 579.07019,-3024.9335 -1.725,0 0,-12.3225 1.725,0 0,12.3225 z"
       style="fill:#000000;fill-opacity:1;fill-rule:nonzero;stroke:none"
       id="path4542"
       inkscape:connector-curvature="0" />
    <path
       d="m 588.06294,-3024.9331 -6.28499,0 0,-12.3225 1.72875,0 0,10.5937 4.55624,0 0,1.7288 z"
       style="fill:#000000;fill-opacity:1;fill-rule:nonzero;stroke:none"
       id="path4546"
       inkscape:connector-curvature="0" />
    <path
       d="m 596.07294,-3024.9169 -6.28374,-0.016 0,-12.3225 6.28374,0 0,1.7287 -4.5575,0 0,3.2013 2.71126,0 0,1.7275 -2.71126,0 0,3.9362 4.5575,0 0,1.745 z"
       style="fill:#000000;fill-opacity:1;fill-rule:nonzero;stroke:none"
       id="path4550"
       inkscape:connector-curvature="0" />
    <path
       d="m 557.11789,-3021.8456 -6.8975,0 c -0.009,-0.1288 -0.0137,-0.2875 -0.0137,-0.4775 0,-2.3537 0.75625,-4.2613 2.2775,-5.7325 0.34625,-0.3275 0.80375,-0.6988 1.3675,-1.1088 0.5275,-0.3712 0.86875,-0.6399 1.025,-0.815 0.26375,-0.2862 0.3925,-0.6162 0.3925,-0.985 0,-0.3612 -0.12625,-0.6975 -0.3825,-1.0125 -0.32,-0.4074 -0.755,-0.6149 -1.30875,-0.6149 -0.66625,0 -1.135,0.2875 -1.40375,0.8637 -0.15125,0.305 -0.2225,0.6037 -0.2225,0.8887 l -1.73125,0 c 0.0175,-0.9837 0.3425,-1.8087 0.975,-2.48 0.6325,-0.6675 1.4275,-1.0012 2.39,-1.0012 1.00375,0 1.83125,0.3538 2.4875,1.06 0.62,0.6562 0.9275,1.425 0.9275,2.2987 0,0.75 -0.19,1.3825 -0.56875,1.9 -0.25625,0.3413 -0.66625,0.6988 -1.235,1.0575 -0.6575,0.4175 -1.0625,0.7075 -1.22125,0.8613 -1.1325,1.1187 -1.775,2.3075 -1.92375,3.5713 l 5.06625,0 0,1.7262 z"
       style="fill:#000000;fill-opacity:1;fill-rule:nonzero;stroke:none"
       id="path4536"
       inkscape:connector-curvature="0" />
  </g>
</svg>
