<?xml version="1.0" encoding="UTF-8" standalone="no"?>
<svg
   xmlns:dc="http://purl.org/dc/elements/1.1/"
   xmlns:cc="http://creativecommons.org/ns#"
   xmlns:rdf="http://www.w3.org/1999/02/22-rdf-syntax-ns#"
   xmlns:svg="http://www.w3.org/2000/svg"
   xmlns="http://www.w3.org/2000/svg"
   xmlns:sodipodi="http://sodipodi.sourceforge.net/DTD/sodipodi-0.dtd"
   xmlns:inkscape="http://www.inkscape.org/namespaces/inkscape"
   height="2170.0027"
   width="5410.0039"
   viewBox="82.992 45.607 15847.343 6999.0937"
   id="svg2"
   version="1.1"
   inkscape:version="0.48.2 r9819"
   sodipodi:docname="AJAX6.svg">
  <metadata
     id="metadata2508">
    <rdf:RDF>
      <cc:Work
         rdf:about="">
        <dc:format>image/svg+xml</dc:format>
        <dc:type
           rdf:resource="http://purl.org/dc/dcmitype/StillImage" />
        <dc:title></dc:title>
      </cc:Work>
    </rdf:RDF>
  </metadata>
  <sodipodi:namedview
     pagecolor="#ffffff"
     bordercolor="#666666"
     borderopacity="1"
     objecttolerance="10"
     gridtolerance="10"
     guidetolerance="10"
     inkscape:pageopacity="0"
     inkscape:pageshadow="2"
     inkscape:window-width="1280"
     inkscape:window-height="1004"
     id="namedview2506"
     showgrid="false"
     inkscape:zoom="0.11523651"
     inkscape:cx="102.86541"
     inkscape:cy="150.84618"
     inkscape:window-x="-8"
     inkscape:window-y="-8"
     inkscape:window-maximized="1"
     inkscape:current-layer="svg2"
     showguides="true"
     inkscape:guide-bbox="true"
     fit-margin-top="0"
     fit-margin-left="0"
     fit-margin-right="0"
     fit-margin-bottom="0" />
  <defs
     id="defs4">
    <linearGradient
       id="linearGradient6324">
      <stop
         style="stop-color:#ec8028;stop-opacity:1;"
         offset="0"
         id="stop6326" />
      <stop
         style="stop-color:#ec8028;stop-opacity:0;"
         offset="1"
         id="stop6328" />
    </linearGradient>
    <clipPath
       id="SVG_CP_1">
      <path
         inkscape:connector-curvature="0"
         d="M 598.41107,0 0,0 l 0,392.15871 598.41107,0 0,-392.15871 z"
         id="path21406" />
    </clipPath>
    <clipPath
       id="clipPath6506">
      <path
         inkscape:connector-curvature="0"
         d="M 598.41107,0 0,0 l 0,392.15871 598.41107,0 0,-392.15871 z"
         id="path6508" />
    </clipPath>
    <clipPath
       id="clipPath6510">
      <path
         inkscape:connector-curvature="0"
         d="M 598.41107,0 0,0 l 0,392.15871 598.41107,0 0,-392.15871 z"
         id="path6512" />
    </clipPath>
    <clipPath
       id="clipPath6514">
      <path
         inkscape:connector-curvature="0"
         d="M 598.41107,0 0,0 l 0,392.15871 598.41107,0 0,-392.15871 z"
         id="path6516" />
    </clipPath>
    <clipPath
       id="clipPath6518">
      <path
         inkscape:connector-curvature="0"
         d="M 598.41107,0 0,0 l 0,392.15871 598.41107,0 0,-392.15871 z"
         id="path6520-6" />
    </clipPath>
    <clipPath
       id="clipPath6522">
      <path
         inkscape:connector-curvature="0"
         d="M 598.41107,0 0,0 l 0,392.15871 598.41107,0 0,-392.15871 z"
         id="path6524-5" />
    </clipPath>
    <clipPath
       id="clipPath6526">
      <path
         inkscape:connector-curvature="0"
         d="M 598.41107,0 0,0 l 0,392.15871 598.41107,0 0,-392.15871 z"
         id="path6528-2" />
    </clipPath>
    <clipPath
       id="SVG_CP_1-9">
      <path
         inkscape:connector-curvature="0"
         d="M 598.41107,0 0,0 l 0,392.15871 598.41107,0 0,-392.15871 z"
         id="path21406-3" />
    </clipPath>
    <clipPath
       id="SVG_CP_1-0">
      <path
         inkscape:connector-curvature="0"
         d="M 598.41107,0 0,0 l 0,392.15871 598.41107,0 0,-392.15871 z"
         id="path21406-1" />
    </clipPath>
    <clipPath
       id="clipPath6597">
      <path
         inkscape:connector-curvature="0"
         d="M 598.41107,0 0,0 l 0,392.15871 598.41107,0 0,-392.15871 z"
         id="path6599" />
    </clipPath>
    <clipPath
       id="clipPath6601">
      <path
         inkscape:connector-curvature="0"
         d="M 598.41107,0 0,0 l 0,392.15871 598.41107,0 0,-392.15871 z"
         id="path6603" />
    </clipPath>
  </defs>
  <style
     id="style_css_sheet"
     type="text/css"> 
/*
 * Below are Cascading Style Sheet (CSS) definitions in use in this file,
 * which allow easily changing how countries are displayed.
 *
 */

/*
 * Circles around small countries
 *
 * Change opacity to 1 to display all circles.
 *
 */
.circlexx
{
   opacity:1;
   fill:#e0e0e0;
   stroke:#000000;
   stroke-width:0.5;
}

/*
 * Smaller circles around French DOMs and Chinese SARs
 *
 * Change opacity to 1 to display all subnational circles.
 *
 */
.subxx
{
   opacity:1;
   stroke-width:0.3;
}

/*
 * Circles around small, unrecognized countries
 *
 * Change opacity to 1 to display all circles.
 *
 */
.unxx
{
   opacity:0;
   fill:#e0e0e0;
   stroke:#000000;
   stroke-width:0.3;
}

/*
 * Circles around small countries, but with no permanent residents 
 *
 * Change opacity to 1 to display all circles.
 *
 */
.noxx
{
   opacity:0;
   fill:#e0e0e0;
   stroke:#000000;
   stroke-width:0.5;
}

/*
 * land
 */
.landxx
{
   fill: #e0e0e0;
   stroke:#ffffff;
   stroke-width:0.5;
   fill-rule:evenodd;
}

/*
 * Styles for coastlines of islands with no borders
 */
.coastxx
{
   fill: #e0e0e0;
   stroke:#ffffff;
   stroke-width:0.3;
   fill-rule:evenodd;
}

/*
 * Styles for nations with limited recognition
 */
.limitxx
{
   fill: #e0e0e0;
   stroke:#ffffff;
   stroke-width:0;
   fill-rule:evenodd;
}

/*
 * Styles for nations with no permanent population.
 */
.antxx
{
   fill: #e0e0e0;
   stroke:#ffffff;
   stroke-width:0;
   fill-rule:evenodd;
}

/*
 * Ocean
 */
.oceanxx
{
   opacity: 1;
   color: #000000;
   fill:#ffffff;
   stroke:#000;
   stroke-width:0.5;
   stroke-miterlimit:1;
}

/*
 * Additional style rules
 *
 * The following are examples of colouring countries.  You can substitute these with your own styles to colour the countries on the map.
 *
 * Color a few countries:
 *
 * .gb, .au, .nc
 * {
 *    fill:       #ff0000;
 * }
 *
 * Color a few small country circles (and the countries):
 *
 * .ms, .ky
 * {
 *    opacity:    1;
 *    fill:       #ff0000;
 * }
 *
 */

/* Same-sex marriage */
.ar, .be, .ca, .dk, .es, .is, .nl, .no, .pt, .se, .za
{ fill: #002255; }

/* Civil unions etc. */
.ad, .at, .au, .bl, .br, .ch, .co, .cz, .de, .ec, .fi, .fr, .gb, .gf, .gl, .hr, .hu, .ie, .il, .im, .je, .li, .lu, .mf, .nc, .nf, .nz, .pm, .re, .si, .uy, .wf
{ fill: #0066ff; }

/* Recognition of foreign marriages */
.aw, .cw, .sx, .mx
{ fill: #7fbcff; }

/* Legal but no recognition */
.ai, .al, .am, .as, .az, .ba, .bg, .bf, .by, .bj, .bm, .bo, .bs, .cd, .cg, .cf, .ci, .cl, .cn, .cr, .cu, .cv, .cy, .dj, .do, .ee, .fk, .fj, .fm, .fo, .ga, .ge, .gg, .gi, .gq, .gr, .gs, .gt, .gu, .gw, .hn, .ht, .id, .in, .iq, .it, .jo, .jp, .kg, .kh, .kp, .kr, .ky, .kz, .la, .lk, .lt, .lv, .mc, .md, .me, .mg, .mh, .mk, .ml, .mn, .mp, .mt, .ms, .mz, .ne, .ni, .np, .pa, .pe, .pf, .ph, .pl, .pn, .pr, .py, .ro, .rs, .ru, .rw, .sh, .sk, .sm, .sr, .st, .sv, .tc, .td, .th, .tj, .tk, .tl, .tr, .tw, .ua, .us, .va, .ve, .vg, .vi, .vn, .vu, .xk, .ps_west_bank
{ fill: #cccccc; }

/* Illegal, minimal penalty */
.bt, .lb, .lr
{ fill: #f9dc36; }

/* Illegal, large penalty */
.ag, .ao, .bh, .bi, .bn, .bw, .bz, .cm, .ck, .dm, .dz, .eg, .eh, .er, .et, .gd, .gh, .gm, .gn, .jm, .ke, .ki, .km, .kn, .kw, .lc, .ls, .ly, .ma, .mu, .mv, .mw, .my, .na, .ng, .nr, .nu, .om, .pg, .pw, .qa, .sb, .sc, .sg, .sn, .so, .ss, .sy, .sz, .tg, .tm, .tn, .to, .tt, .tv, .uz, .vc, .ws, .zm, .zw, .xc, .ps_gaza_strip
{ fill: #ec8028; }

/* Illegal, life imprisonment */
.bb, .bd, .gy, .mm, .pk, .sl, .tz, .ug
{ fill: #e73e21; }

/* Illegal, death penalty */
.ae, .af, .ir, .mr, .sa, .sd, .ye
{ fill: #8c201f; }

/* SUB-NATIONAL UNITS */

/* Same-sex marriage */
.br_al, .mx_dif, .us_ct, .us_dc, .us_ia, .us_ma, .us_md, .us_nh, .us_ny, .us_vt, .us_wa
{ fill: #002255; }

/* Civil unions etc. */
.mx_coa, .uk_je, .us_ca, .us_co, .us_de, .us_hi, .us_il, .us_me, .us_nj, .us_nv, .us_or, .us_ri, .us_wi, .ve_l
{ fill: #0066ff; }

/* Recognition of foreign marriages */
.bq
{ fill: #7fbcff; }

/* Illegal, large penalty */
.id_ac
{ fill: #ec8028; }

/* Illegal, death penalty */
.ng_sharia, .so_shabaab
{ fill: #8c201f; }

</style>
  <path
     inkscape:connector-curvature="0"
     style="fill:#ffffff;fill-rule:nonzero;stroke:#000000;stroke-width:32.25384903;stroke-linecap:butt;stroke-linejoin:miter;stroke-miterlimit:4;stroke-opacity:1;stroke-dasharray:none"
     d="m 16715.199,6593.1443 c 0,240.4928 -194.935,435.427 -435.427,435.427 l -16546.22536,0 c -240.48268,0 -435.42695,-194.9342 -435.42695,-435.427 l 0,-6095.9771 c 0,-240.4786 194.94427,-435.427 435.42695,-435.427 l 16546.22536,0 c 240.492,0 435.427,194.9484 435.427,435.427 l 0,6095.9771 z"
     id="path11" />
  <path
     inkscape:connector-curvature="0"
     style="fill:#000000;fill-rule:nonzero;stroke:none"
     d="m -266.45336,6919.7145 c -180.07364,0 -326.57022,-146.5131 -326.57022,-326.5702 l 0,-6095.9771 c 0,-180.0736 146.49658,-326.5702 326.57022,-326.5702 l 16546.22536,0 c 180.057,0 326.57,146.4966 326.57,326.5702 l 0,6095.9771 c 0,180.0571 -146.513,326.5702 -326.57,326.5702 l -16546.22536,0 z"
     id="path13" />
  <path
     inkscape:connector-curvature="0"
     style="fill:#ffffff;fill-rule:nonzero;stroke:none"
     d="m -266.45336,6738.2867 c -80.03228,0 -145.14232,-65.1125 -145.14232,-145.1423 l 0,-6095.9772 c 0,-80.0323 65.11004,-145.1423 145.14232,-145.1423 l 16546.22536,0 c 80.03,0 145.142,65.11 145.142,145.1423 l 0,6095.9772 c 0,80.0298 -65.112,145.1423 -145.142,145.1423 l -16546.22536,0 z"
     id="path15" />
  <path
     inkscape:connector-curvature="0"
     style="fill:#000000;fill-rule:nonzero;stroke:none"
     d="m 10922.528,5722.2908 -536.663,-1167.2668 0,1167.2668 -250.049,0 0,-1741.7119 250.049,0 475.704,1045.0287 0,-1045.0287 250.048,0 0,1741.7119 -189.089,0 z"
     id="path17" />
  <path
     inkscape:connector-curvature="0"
     style="fill:#000000;fill-rule:nonzero;stroke:none"
     d="m 9370.1095,4225.0267 -256.1359,0 0,440.0232 256.1359,0 c 146.3921,0 225.656,-79.4654 225.656,-220.0117 0,-134.4582 -91.48,-220.0115 -225.656,-220.0115 z m 213.4801,1497.2641 -231.7842,-818.9252 -237.8318,0 0,818.9252 -250.048,0 0,-1741.7119 518.4,0 c 274.4399,0 457.3999,183.3267 457.3999,464.4593 0,207.7957 -85.3921,360.5579 -250.048,421.679 l 250.048,855.5736 -256.1359,0 z"
     id="path19" />
  <path
     inkscape:connector-curvature="0"
     style="fill:#000000;fill-rule:nonzero;stroke:none"
     d="m 6942.4026,4212.8105 0,1509.4803 -251.2978,0 0,-1509.4803 -318.7083,0 0,-232.2316 888.7145,0 0,232.2316 -318.7084,0 z"
     id="path23" />
  <path
     inkscape:connector-curvature="0"
     style="fill:#000000;fill-rule:nonzero;stroke:none"
     d="m 8413.6619,5508.4075 c -85.392,140.5461 -250.0479,244.4439 -414.7038,244.4439 -170.7842,0 -341.528,-97.7695 -426.92,-244.4439 -48.784,-91.6816 -67.088,-165.0188 -67.088,-305.565 l 0,-1222.2636 250.0479,0 0,1252.8242 c 0,164.9784 97.6082,275.0044 243.9601,275.0044 134.176,0 231.7439,-110.026 231.7439,-275.0044 l 0,-1252.8242 250.0479,0 0,1222.2636 c 0,140.5462 -18.304,213.8834 -67.088,305.565 z"
     id="path25" />
  <path
     inkscape:connector-curvature="0"
     style="fill:#000000;fill-rule:nonzero;stroke:none"
     d="m 6470.7707,1887.4814 -122.5243,501.1238 251.2172,0 -128.6929,-501.1239 z m 312.4995,1222.2516 -122.5646,-476.6798 -373.7415,0 -116.3961,476.6798 -251.2171,0 435.0238,-1741.7079 245.0889,0 435.0238,1741.7079 -251.2172,0 z"
     id="path27" />
  <path
     inkscape:connector-curvature="0"
     style="fill:#000000;fill-rule:nonzero;stroke:none"
     d="m 9320.3579,1789.6958 c -42.696,-122.23 -115.8719,-177.2269 -225.656,-177.2269 l -207.3519,0 0,1252.8162 207.3519,0 c 146.3519,0 225.656,-116.1179 250.048,-250.5642 12.1758,-110.0017 24.392,-232.2277 24.392,-366.6778 0,-195.5591 -18.3041,-385.0142 -48.784,-458.3473 z m 42.696,1240.5919 c -61,55.0009 -146.3921,79.4452 -243.96,79.4452 l -481.7919,0 0,-1741.7079 445.1838,0 c 146.3921,0 219.5681,18.3242 280.5681,67.221 103.6558,73.3292 176.8318,207.7793 207.352,385.0102 24.3919,128.33 42.696,281.1205 42.696,415.5626 0,403.3464 -79.3041,660.0185 -250.048,794.4688 z"
     id="path29" />
  <path
     inkscape:connector-curvature="0"
     style="fill:#000000;fill-rule:nonzero;stroke:none"
     d="m 12487.364,3109.7329 0,-1741.7079 821.264,0 0,244.4438 -570.007,0 0,440.0151 361.647,0 0,238.3438 -361.647,0 0,574.4573 637.417,0 0,244.4479 -888.674,0 z"
     id="path31" />
  <path
     inkscape:connector-curvature="0"
     style="fill:#000000;fill-rule:nonzero;stroke:none"
     d="m 13923.426,1612.4689 0,440.0151 349.35,0 0,238.3438 -349.35,0 0,818.9051 -251.298,0 0,-1741.7078 888.715,0 0,244.4438 -637.417,0 z"
     id="path33" />
  <path
     inkscape:connector-curvature="0"
     style="fill:#000000;fill-rule:nonzero;stroke:none"
     d="m 11354.81,3109.7329 0,-1741.7079 251.258,0 0,1509.4801 637.417,0 0,232.2278 -888.675,0 z"
     id="path35" />
  <path
     inkscape:connector-curvature="0"
     style="fill:#000000;fill-rule:nonzero;stroke:none"
     d="m 8065.0381,3109.7329 -536.6637,-1167.2508 0,1167.2508 -250.0479,0 0,-1741.7119 250.0479,0 475.704,1045.0246 0,-1045.0246 250.0479,0 0,1741.7119 -189.0882,0 z"
     id="path37" />
  <path
     inkscape:connector-curvature="0"
     style="fill:#000000;fill-rule:nonzero;stroke:none"
     d="m 15235.352,1600.2528 0,1509.4802 -251.298,0 0,-1509.4802 -318.709,0 0,-232.2317 888.715,0 0,232.2317 -318.708,0 z"
     id="path39" />
  <path
     inkscape:connector-curvature="0"
     style="fill:#000000;fill-rule:nonzero;stroke:none"
     d="m 4110.5551,2895.8374 c -85.3921,140.5664 -250.048,244.4519 -414.7039,244.4519 -170.7841,0 -341.5279,-97.7815 -426.92,-244.4519 -48.796,-91.6654 -67.088,-165.0026 -67.088,-305.5608 l 0,-1222.2555 250.048,0 0,1252.8119 c 0,165.0067 97.5679,275.0044 243.96,275.0044 134.176,0 231.7439,-109.9977 231.7439,-275.0044 l 0,-1252.8119 250.048,0 0,1222.2555 c 0,140.5583 -18.3041,213.8954 -67.088,305.5608 z"
     id="path41" />
  <path
     inkscape:connector-curvature="0"
     style="fill:#000000;fill-rule:nonzero;stroke:none"
     d="m 465.38246,2458.3381 0.004,0.016 c -13.595,20.2353 -21.52945,44.591 -21.52945,70.8053 0,70.2246 56.92401,127.1488 127.14467,127.1488 14.23201,0 27.91168,-2.3788 40.6842,-6.6927 l 394.73872,-125.4876 0,3343.3047 653.1403,0 0,-3343.3129 394.7388,125.4957 c 12.7725,4.3139 26.4522,6.6927 40.6801,6.6927 70.2247,0 127.1487,-56.9241 127.1487,-127.1487 0,-26.2144 -7.9384,-50.57 -21.5334,-70.8053 l 0,-0.01 -867.6073,-1235.4655 -867.61234,1235.4595 z"
     id="path43" />
</svg>
