<?xml version="1.0" encoding="UTF-8" standalone="no"?>
<svg
   xmlns:dc="http://purl.org/dc/elements/1.1/"
   xmlns:cc="http://creativecommons.org/ns#"
   xmlns:rdf="http://www.w3.org/1999/02/22-rdf-syntax-ns#"
   xmlns:svg="http://www.w3.org/2000/svg"
   xmlns="http://www.w3.org/2000/svg"
   xmlns:sodipodi="http://sodipodi.sourceforge.net/DTD/sodipodi-0.dtd"
   xmlns:inkscape="http://www.inkscape.org/namespaces/inkscape"
   height="1629.9993"
   width="6490.001"
   viewBox="82.992 45.607 19010.942 5257.3749"
   id="svg2"
   version="1.1"
   inkscape:version="0.48.2 r9819"
   sodipodi:docname="AJAX7.svg">
  <metadata
     id="metadata2508">
    <rdf:RDF>
      <cc:Work
         rdf:about="">
        <dc:format>image/svg+xml</dc:format>
        <dc:type
           rdf:resource="http://purl.org/dc/dcmitype/StillImage" />
        <dc:title></dc:title>
      </cc:Work>
    </rdf:RDF>
  </metadata>
  <sodipodi:namedview
     pagecolor="#ffffff"
     bordercolor="#666666"
     borderopacity="1"
     objecttolerance="10"
     gridtolerance="10"
     guidetolerance="10"
     inkscape:pageopacity="0"
     inkscape:pageshadow="2"
     inkscape:window-width="1280"
     inkscape:window-height="1004"
     id="namedview2506"
     showgrid="false"
     inkscape:zoom="0.11523651"
     inkscape:cx="6638.2265"
     inkscape:cy="-538.69248"
     inkscape:window-x="-8"
     inkscape:window-y="-8"
     inkscape:window-maximized="1"
     inkscape:current-layer="svg2"
     showguides="true"
     inkscape:guide-bbox="true"
     fit-margin-top="0"
     fit-margin-left="0"
     fit-margin-right="0"
     fit-margin-bottom="0" />
  <defs
     id="defs4">
    <linearGradient
       id="linearGradient6324">
      <stop
         style="stop-color:#ec8028;stop-opacity:1;"
         offset="0"
         id="stop6326" />
      <stop
         style="stop-color:#ec8028;stop-opacity:0;"
         offset="1"
         id="stop6328" />
    </linearGradient>
    <clipPath
       id="SVG_CP_1">
      <path
         inkscape:connector-curvature="0"
         d="M 598.41107,0 0,0 l 0,392.15871 598.41107,0 0,-392.15871 z"
         id="path21406" />
    </clipPath>
    <clipPath
       id="clipPath6506">
      <path
         inkscape:connector-curvature="0"
         d="M 598.41107,0 0,0 l 0,392.15871 598.41107,0 0,-392.15871 z"
         id="path6508" />
    </clipPath>
    <clipPath
       id="clipPath6510">
      <path
         inkscape:connector-curvature="0"
         d="M 598.41107,0 0,0 l 0,392.15871 598.41107,0 0,-392.15871 z"
         id="path6512" />
    </clipPath>
    <clipPath
       id="clipPath6514">
      <path
         inkscape:connector-curvature="0"
         d="M 598.41107,0 0,0 l 0,392.15871 598.41107,0 0,-392.15871 z"
         id="path6516" />
    </clipPath>
    <clipPath
       id="clipPath6518">
      <path
         inkscape:connector-curvature="0"
         d="M 598.41107,0 0,0 l 0,392.15871 598.41107,0 0,-392.15871 z"
         id="path6520-6" />
    </clipPath>
    <clipPath
       id="clipPath6522">
      <path
         inkscape:connector-curvature="0"
         d="M 598.41107,0 0,0 l 0,392.15871 598.41107,0 0,-392.15871 z"
         id="path6524-5" />
    </clipPath>
    <clipPath
       id="clipPath6526">
      <path
         inkscape:connector-curvature="0"
         d="M 598.41107,0 0,0 l 0,392.15871 598.41107,0 0,-392.15871 z"
         id="path6528-2" />
    </clipPath>
    <clipPath
       id="SVG_CP_1-9">
      <path
         inkscape:connector-curvature="0"
         d="M 598.41107,0 0,0 l 0,392.15871 598.41107,0 0,-392.15871 z"
         id="path21406-3" />
    </clipPath>
    <clipPath
       id="SVG_CP_1-0">
      <path
         inkscape:connector-curvature="0"
         d="M 598.41107,0 0,0 l 0,392.15871 598.41107,0 0,-392.15871 z"
         id="path21406-1" />
    </clipPath>
    <clipPath
       id="clipPath6597">
      <path
         inkscape:connector-curvature="0"
         d="M 598.41107,0 0,0 l 0,392.15871 598.41107,0 0,-392.15871 z"
         id="path6599" />
    </clipPath>
    <clipPath
       id="clipPath6601">
      <path
         inkscape:connector-curvature="0"
         d="M 598.41107,0 0,0 l 0,392.15871 598.41107,0 0,-392.15871 z"
         id="path6603" />
    </clipPath>
  </defs>
  <style
     id="style_css_sheet"
     type="text/css"> 
/*
 * Below are Cascading Style Sheet (CSS) definitions in use in this file,
 * which allow easily changing how countries are displayed.
 *
 */

/*
 * Circles around small countries
 *
 * Change opacity to 1 to display all circles.
 *
 */
.circlexx
{
   opacity:1;
   fill:#e0e0e0;
   stroke:#000000;
   stroke-width:0.5;
}

/*
 * Smaller circles around French DOMs and Chinese SARs
 *
 * Change opacity to 1 to display all subnational circles.
 *
 */
.subxx
{
   opacity:1;
   stroke-width:0.3;
}

/*
 * Circles around small, unrecognized countries
 *
 * Change opacity to 1 to display all circles.
 *
 */
.unxx
{
   opacity:0;
   fill:#e0e0e0;
   stroke:#000000;
   stroke-width:0.3;
}

/*
 * Circles around small countries, but with no permanent residents 
 *
 * Change opacity to 1 to display all circles.
 *
 */
.noxx
{
   opacity:0;
   fill:#e0e0e0;
   stroke:#000000;
   stroke-width:0.5;
}

/*
 * land
 */
.landxx
{
   fill: #e0e0e0;
   stroke:#ffffff;
   stroke-width:0.5;
   fill-rule:evenodd;
}

/*
 * Styles for coastlines of islands with no borders
 */
.coastxx
{
   fill: #e0e0e0;
   stroke:#ffffff;
   stroke-width:0.3;
   fill-rule:evenodd;
}

/*
 * Styles for nations with limited recognition
 */
.limitxx
{
   fill: #e0e0e0;
   stroke:#ffffff;
   stroke-width:0;
   fill-rule:evenodd;
}

/*
 * Styles for nations with no permanent population.
 */
.antxx
{
   fill: #e0e0e0;
   stroke:#ffffff;
   stroke-width:0;
   fill-rule:evenodd;
}

/*
 * Ocean
 */
.oceanxx
{
   opacity: 1;
   color: #000000;
   fill:#ffffff;
   stroke:#000;
   stroke-width:0.5;
   stroke-miterlimit:1;
}

/*
 * Additional style rules
 *
 * The following are examples of colouring countries.  You can substitute these with your own styles to colour the countries on the map.
 *
 * Color a few countries:
 *
 * .gb, .au, .nc
 * {
 *    fill:       #ff0000;
 * }
 *
 * Color a few small country circles (and the countries):
 *
 * .ms, .ky
 * {
 *    opacity:    1;
 *    fill:       #ff0000;
 * }
 *
 */

/* Same-sex marriage */
.ar, .be, .ca, .dk, .es, .is, .nl, .no, .pt, .se, .za
{ fill: #002255; }

/* Civil unions etc. */
.ad, .at, .au, .bl, .br, .ch, .co, .cz, .de, .ec, .fi, .fr, .gb, .gf, .gl, .hr, .hu, .ie, .il, .im, .je, .li, .lu, .mf, .nc, .nf, .nz, .pm, .re, .si, .uy, .wf
{ fill: #0066ff; }

/* Recognition of foreign marriages */
.aw, .cw, .sx, .mx
{ fill: #7fbcff; }

/* Legal but no recognition */
.ai, .al, .am, .as, .az, .ba, .bg, .bf, .by, .bj, .bm, .bo, .bs, .cd, .cg, .cf, .ci, .cl, .cn, .cr, .cu, .cv, .cy, .dj, .do, .ee, .fk, .fj, .fm, .fo, .ga, .ge, .gg, .gi, .gq, .gr, .gs, .gt, .gu, .gw, .hn, .ht, .id, .in, .iq, .it, .jo, .jp, .kg, .kh, .kp, .kr, .ky, .kz, .la, .lk, .lt, .lv, .mc, .md, .me, .mg, .mh, .mk, .ml, .mn, .mp, .mt, .ms, .mz, .ne, .ni, .np, .pa, .pe, .pf, .ph, .pl, .pn, .pr, .py, .ro, .rs, .ru, .rw, .sh, .sk, .sm, .sr, .st, .sv, .tc, .td, .th, .tj, .tk, .tl, .tr, .tw, .ua, .us, .va, .ve, .vg, .vi, .vn, .vu, .xk, .ps_west_bank
{ fill: #cccccc; }

/* Illegal, minimal penalty */
.bt, .lb, .lr
{ fill: #f9dc36; }

/* Illegal, large penalty */
.ag, .ao, .bh, .bi, .bn, .bw, .bz, .cm, .ck, .dm, .dz, .eg, .eh, .er, .et, .gd, .gh, .gm, .gn, .jm, .ke, .ki, .km, .kn, .kw, .lc, .ls, .ly, .ma, .mu, .mv, .mw, .my, .na, .ng, .nr, .nu, .om, .pg, .pw, .qa, .sb, .sc, .sg, .sn, .so, .ss, .sy, .sz, .tg, .tm, .tn, .to, .tt, .tv, .uz, .vc, .ws, .zm, .zw, .xc, .ps_gaza_strip
{ fill: #ec8028; }

/* Illegal, life imprisonment */
.bb, .bd, .gy, .mm, .pk, .sl, .tz, .ug
{ fill: #e73e21; }

/* Illegal, death penalty */
.ae, .af, .ir, .mr, .sa, .sd, .ye
{ fill: #8c201f; }

/* SUB-NATIONAL UNITS */

/* Same-sex marriage */
.br_al, .mx_dif, .us_ct, .us_dc, .us_ia, .us_ma, .us_md, .us_nh, .us_ny, .us_vt, .us_wa
{ fill: #002255; }

/* Civil unions etc. */
.mx_coa, .uk_je, .us_ca, .us_co, .us_de, .us_hi, .us_il, .us_me, .us_nj, .us_nv, .us_or, .us_ri, .us_wi, .ve_l
{ fill: #0066ff; }

/* Recognition of foreign marriages */
.bq
{ fill: #7fbcff; }

/* Illegal, large penalty */
.id_ac
{ fill: #ec8028; }

/* Illegal, death penalty */
.ng_sharia, .so_shabaab
{ fill: #8c201f; }

</style>
  <path
     inkscape:connector-curvature="0"
     style="fill:#ffffff;fill-rule:nonzero;stroke:#000000;stroke-width:32.25384903;stroke-linecap:butt;stroke-linejoin:miter;stroke-miterlimit:4;stroke-opacity:1;stroke-dasharray:none"
     d="m 20038.723,4851.4341 c 0,240.4927 -194.934,435.4269 -435.427,435.4269 l -20029.63985,0 c -240.48267,0 -435.42695,-194.9342 -435.42695,-435.4269 l 0,-4354.2693 c 0,-240.4786 194.94428,-435.4269 435.42695,-435.4269 l 20029.63985,0 c 240.493,0 435.427,194.9483 435.427,435.4269 l 0,4354.2693 z"
     id="path11" />
  <path
     inkscape:connector-curvature="0"
     style="fill:#000000;fill-rule:nonzero;stroke:none"
     d="m 19748.438,4851.4341 c 0,80.0299 -65.112,145.1423 -145.142,145.1423 l -20029.63985,0 c -80.03228,0 -145.14232,-65.1124 -145.14232,-145.1423 l 0,-4354.2693 c 0,-80.0323 65.11004,-145.1423 145.14232,-145.1423 l 20029.63985,0 c 80.03,0 145.142,65.11 145.142,145.1423 l 0,4354.2693 z m -145.142,-4680.8395 -20029.63985,0 c -180.07364,0 -326.57021,146.4966 -326.57021,326.5702 l 0,4354.2693 c 0,180.0571 146.49657,326.5702 326.57021,326.5702 l 20029.63985,0 c 180.057,0 326.57,-146.5131 326.57,-326.5702 l 0,-4354.2693 c 0,-180.0736 -146.513,-326.5702 -326.57,-326.5702 z"
     id="path13" />
  <path
     inkscape:connector-curvature="0"
     style="fill:#000000;fill-rule:nonzero;stroke:none"
     d="m 17426.806,3835.4378 -888.27,-1572.6332 0,1572.6332 -366.686,0 0,-2322.2852 366.686,0 847.51,1483.0078 0,-1483.0078 366.686,0 0,2322.2852 -325.926,0 z"
     id="path15" />
  <path
     inkscape:connector-curvature="0"
     style="fill:#000000;fill-rule:nonzero;stroke:none"
     d="m 13532.88,3485.0561 c -122.242,228.1557 -399.303,391.1223 -684.507,391.1223 -285.205,0 -562.265,-162.9666 -684.508,-391.1223 -65.193,-138.5141 -105.954,-301.4847 -105.954,-480.7516 l 0,-1491.1438 366.727,0 0,1491.1438 c 0,301.4968 171.106,497.0519 423.735,497.0519 252.628,0 423.735,-195.5551 423.735,-497.0519 l 0,-1491.1438 366.726,0 0,1491.1438 c 0,179.2669 -40.761,342.2375 -105.954,480.7516 z"
     id="path17" />
  <path
     inkscape:connector-curvature="0"
     style="fill:#000000;fill-rule:nonzero;stroke:none"
     d="m 11169.439,1839.0858 0,1996.3439 -368.259,0 0,-1996.3439 -531.987,0 0,-325.9412 1440.417,0 0,325.9412 -540.171,0 z"
     id="path19" />
  <path
     inkscape:connector-curvature="0"
     style="fill:#000000;fill-rule:nonzero;stroke:none"
     d="m 15214.757,1920.5752 c -57.009,-32.6006 -89.625,-40.7447 -211.868,-40.7447 l -440.023,0 0,570.3811 440.023,0 c 114.098,0 154.859,-8.1441 211.868,-40.7286 89.666,-48.9008 146.715,-146.6824 146.715,-244.4519 0,-97.7856 -57.049,-195.5712 -146.715,-244.4559 z m 163.003,1914.8585 -374.871,-1010.4042 -440.023,0 0,1010.4042 -366.686,0 0,-2322.2851 765.989,0 c 179.291,0 301.493,16.3003 415.591,73.3412 203.723,97.7856 350.398,342.2254 350.398,578.5413 0,244.4519 -146.675,488.8918 -358.542,586.6774 l 407.446,1083.7252 -399.302,0 z"
     id="path21" />
  <path
     inkscape:connector-curvature="0"
     style="fill:#000000;fill-rule:nonzero;stroke:none"
     d="m 7005.8298,3876.1824 c -548.3155,0 -941.127,-407.4145 -941.127,-977.8036 l 0,-1385.2181 417.3648,0 0,1385.2181 c 0,138.5262 16.3688,211.8554 73.6597,301.4888 90.0286,154.8225 261.8609,252.6001 450.1025,252.6001 188.2012,0 360.0739,-97.7776 450.0621,-252.6001 57.2909,-89.6334 73.6597,-171.1107 73.6597,-301.4888 l 0,-1385.2181 417.3648,0 0,1385.2181 c 0,570.3891 -392.8115,977.8036 -941.0866,977.8036 z"
     id="path23" />
  <path
     inkscape:connector-curvature="0"
     style="fill:#000000;fill-rule:nonzero;stroke:none"
     d="m 1412.6335,2472.4788 c -18.292,26.3958 -29.0365,58.4319 -29.0365,92.9677 0,90.2664 73.1598,163.4343 163.4262,163.4343 15.8729,0 31.1814,-2.2981 45.6795,-6.5193 l 534.8898,-156.5924 0,1995.3804 870.8539,0 0,-1995.3804 534.8938,156.5924 c 14.4739,4.2212 29.7944,6.5193 45.6795,6.5193 90.2704,0 163.406,-73.1679 163.406,-163.4343 0,-34.5358 -10.7244,-66.5718 -29.0284,-92.9677 L 2563.0154,787.4614 1412.6335,2472.4788 z"
     id="path25" />
</svg>
