<?xml version="1.0" encoding="UTF-8" standalone="no"?>
<!-- Created with Inkscape (http://www.inkscape.org/) -->

<svg
   xmlns:dc="http://purl.org/dc/elements/1.1/"
   xmlns:cc="http://creativecommons.org/ns#"
   xmlns:rdf="http://www.w3.org/1999/02/22-rdf-syntax-ns#"
   xmlns:svg="http://www.w3.org/2000/svg"
   xmlns="http://www.w3.org/2000/svg"
   xmlns:sodipodi="http://sodipodi.sourceforge.net/DTD/sodipodi-0.dtd"
   xmlns:inkscape="http://www.inkscape.org/namespaces/inkscape"
   width="502.125"
   height="212.3125"
   id="svg4779"
   version="1.1"
   inkscape:version="0.48.2 r9819"
   sodipodi:docname="AJAX1.svg">
  <defs
     id="defs4781" />
  <sodipodi:namedview
     id="base"
     pagecolor="#ffffff"
     bordercolor="#666666"
     borderopacity="1.0"
     inkscape:pageopacity="0.0"
     inkscape:pageshadow="2"
     inkscape:zoom="1.4"
     inkscape:cx="256.43835"
     inkscape:cy="25.364246"
     inkscape:document-units="px"
     inkscape:current-layer="layer1"
     showgrid="false"
     inkscape:window-width="1280"
     inkscape:window-height="1004"
     inkscape:window-x="-8"
     inkscape:window-y="-8"
     inkscape:window-maximized="1"
     fit-margin-top="0"
     fit-margin-left="0"
     fit-margin-right="0"
     fit-margin-bottom="0" />
  <metadata
     id="metadata4784">
    <rdf:RDF>
      <cc:Work
         rdf:about="">
        <dc:format>image/svg+xml</dc:format>
        <dc:type
           rdf:resource="http://purl.org/dc/dcmitype/StillImage" />
        <dc:title></dc:title>
      </cc:Work>
    </rdf:RDF>
  </metadata>
  <g
     inkscape:label="Layer 1"
     inkscape:groupmode="layer"
     id="layer1"
     transform="translate(1633.2188,2681.875)">
    <path
       d="m -1131.8467,-2483.5003 c 0,7.2753 -5.8988,13.1741 -13.1768,13.1741 l -474.2631,0 c -7.2753,0 -13.1742,-5.8988 -13.1742,-13.1741 l 0,-184.4351 c 0,-7.2753 5.8989,-13.1768 13.1742,-13.1768 l 474.2631,0 c 7.278,0 13.1768,5.9015 13.1768,13.1768 l 0,184.4351 z"
       style="fill:#ffffff;fill-opacity:1;fill-rule:nonzero;stroke:#000000;stroke-width:1.5;stroke-miterlimit:4;stroke-opacity:1;stroke-dasharray:none"
       id="path3366"
       inkscape:connector-curvature="0" />
    <path
       d="m -1140.6294,-2483.5003 c 0,2.4216 -1.9725,4.3914 -4.394,4.3914 l -474.2632,0 c -2.4215,0 -4.3914,-1.9698 -4.3914,-4.3914 l 0,-184.435 c 0,-2.4216 1.9699,-4.3914 4.3914,-4.3914 l 474.2632,0 c 2.4215,0 4.394,1.9698 4.394,4.3914 l 0,184.435 z m -4.394,-194.3163 -474.2632,0 c -5.4471,0 -9.8813,4.4315 -9.8813,9.8813 l 0,184.435 c 0,5.4498 4.4342,9.8813 9.8813,9.8813 l 474.2632,0 c 5.4498,0 9.8812,-4.4315 9.8812,-9.8813 l 0,-184.435 c 0,-5.4498 -4.4314,-9.8813 -9.8812,-9.8813"
       style="fill:#000000;fill-opacity:1;fill-rule:nonzero;stroke:none"
       id="path3390"
       inkscape:connector-curvature="0" />
    <path
       d="m -1428.3064,-2629.5125 -11.8805,0 0,35.131 -8.7827,0 0,-35.131 -11.8324,0 0,-8.7828 32.4956,0 0,8.7828 z"
       style="fill:#000000;fill-opacity:1;fill-rule:nonzero;stroke:none"
       id="path3394"
       inkscape:connector-curvature="0" />
    <path
       d="m -1394.0561,-2616.3379 c 0,-3.5975 -0.7911,-6.6819 -2.3734,-9.2585 -1.7881,-2.8946 -4.2177,-4.3433 -7.2913,-4.3433 -3.0791,0 -5.5086,1.4487 -7.2967,4.3433 -1.5823,2.5766 -2.3708,5.661 -2.3708,9.2585 0,3.5976 0.7885,6.6846 2.3708,9.2558 1.7881,2.8973 4.2176,4.3433 7.2967,4.3433 3.0736,0 5.5032,-1.446 7.2913,-4.3433 1.5823,-2.5712 2.3734,-5.6582 2.3734,-9.2558 m 8.7828,0 c 0,5.9683 -1.6545,11.1188 -4.9634,15.4487 -3.5147,4.6239 -8.0076,6.9358 -13.4841,6.9358 -5.4792,0 -9.9749,-2.3119 -13.4869,-6.9358 -3.3089,-4.3299 -4.966,-9.4804 -4.966,-15.4487 0,-5.9683 1.6571,-11.1187 4.966,-15.4486 3.512,-4.624 8.0077,-6.9359 13.4869,-6.9359 5.4765,0 9.9694,2.3119 13.4841,6.9359 3.3089,4.3299 4.9634,9.4803 4.9634,15.4486"
       style="fill:#000000;fill-opacity:1;fill-rule:nonzero;stroke:none"
       id="path3398"
       inkscape:connector-curvature="0" />
    <path
       d="m -1342.237,-2594.3813 -32.4956,0 0,-43.9137 8.7827,0 0,35.131 23.7129,0 0,8.7827 z"
       style="fill:#000000;fill-opacity:1;fill-rule:nonzero;stroke:none"
       id="path3402"
       inkscape:connector-curvature="0" />
    <path
       d="m -1302.7173,-2594.3813 -32.493,0 0,-43.9137 8.7801,0 0,35.131 23.7129,0 0,8.7827 z"
       style="fill:#000000;fill-opacity:1;fill-rule:nonzero;stroke:none"
       id="path3406"
       inkscape:connector-curvature="0" />
    <path
       d="m -1226.3026,-2568.1469 0,-3.8515 3.6911,0 0,3.8782 c 2.9909,0.6495 4.6266,2.6728 4.9099,6.0672 l -3.6911,0 c 0,-0.441 -0.1497,-0.8793 -0.449,-1.3203 -0.5266,-0.8286 -1.4166,-1.2455 -2.6674,-1.2455 -2.1303,0 -3.1967,0.9408 -3.1967,2.8224 0,1.0371 0.8633,2.0741 2.5846,3.1111 2.5712,1.5128 4.1802,2.5846 4.8324,3.2181 1.7212,1.7052 2.5872,3.9022 2.5872,6.591 0,1.5315 -0.3448,2.9187 -1.0317,4.1696 -0.8793,1.5796 -2.1729,2.5926 -3.8782,3.0309 l 0,3.9557 -3.6911,0 0,-3.798 c -2.1596,-0.3181 -3.7739,-1.3097 -4.8457,-2.9801 -0.8767,-1.3364 -1.315,-2.9374 -1.315,-4.803 l 3.6911,0 c 0,1.5341 0.4837,2.6674 1.4513,3.4078 0.7216,0.5292 1.601,0.7911 2.638,0.7911 2.1115,0 3.1673,-1.2562 3.1673,-3.7686 0,-1.9699 -0.85,-3.5762 -2.5552,-4.8271 -1.5823,-0.9835 -3.1726,-1.9591 -4.7682,-2.9266 -1.7053,-1.3177 -2.5552,-3.0417 -2.5552,-5.1692 0,-1.1787 0.286,-2.2932 0.866,-3.3463 0.8927,-1.6358 2.2985,-2.638 4.2256,-3.0069"
       style="fill:#000000;fill-opacity:1;fill-rule:nonzero;stroke:none"
       id="path3410"
       inkscape:connector-curvature="0" />
    <path
       d="m -1197.9311,-2541.6853 -3.6911,0 0,-21.6068 -1.8282,0 0,-2.8972 c 0.4571,-0.035 0.7725,-0.07 0.9462,-0.1069 0.3154,-0.067 0.6575,-0.2085 1.0263,-0.4197 0.3662,-0.2111 0.7965,-0.6495 1.2856,-1.3177 l 2.2612,0 0,26.3483 z"
       style="fill:#000000;fill-opacity:1;fill-rule:nonzero;stroke:none"
       id="path3414"
       inkscape:connector-curvature="0" />
    <path
       d="m -1194.0208,-2543.5295 c 0,-0.5827 0.2058,-1.0825 0.6201,-1.4968 0.4116,-0.4143 0.9061,-0.6227 1.4834,-0.6227 0.58,0 1.0771,0.2084 1.4887,0.6227 0.4116,0.4143 0.6174,0.9141 0.6174,1.4968 0,0.5826 -0.2058,1.0824 -0.6174,1.4967 -0.4116,0.4143 -0.9087,0.6228 -1.4887,0.6228 -0.5773,0 -1.0718,-0.2085 -1.4834,-0.6228 -0.4143,-0.4143 -0.6201,-0.9141 -0.6201,-1.4967"
       style="fill:#000000;fill-opacity:1;fill-rule:nonzero;stroke:none"
       id="path3418"
       inkscape:connector-curvature="0" />
    <path
       d="m -1172.398,-2541.6853 -14.719,0 c -0.043,-0.2807 -0.062,-0.6228 -0.062,-1.029 0,-5.0275 1.6251,-9.1142 4.8725,-12.2601 0.7377,-0.7029 1.7132,-1.4941 2.9267,-2.3734 1.1226,-0.7911 1.8496,-1.3711 2.1837,-1.74 0.5612,-0.6147 0.8419,-1.3177 0.8419,-2.1088 0,-0.7751 -0.27,-1.4941 -0.8125,-2.1623 -0.6843,-0.8793 -1.6144,-1.3203 -2.7878,-1.3203 -1.4219,0 -2.4215,0.6174 -2.9988,1.8522 -0.3154,0.6549 -0.4731,1.291 -0.4731,1.9084 l -3.6911,0 c 0.035,-2.1062 0.727,-3.8756 2.0741,-5.3055 1.3497,-1.4299 3.0496,-2.1436 5.1023,-2.1436 2.1356,0 3.9049,0.7538 5.3081,2.2639 1.3124,1.4059 1.9672,3.047 1.9672,4.9259 0,1.5983 -0.4009,2.9481 -1.2107,4.0573 -0.5426,0.735 -1.422,1.4914 -2.6327,2.2638 -1.4059,0.8954 -2.2746,1.5102 -2.6087,1.8443 -2.4215,2.3867 -3.7927,4.9339 -4.108,7.6388 l 10.8274,0 0,3.6884 z"
       style="fill:#000000;fill-opacity:1;fill-rule:nonzero;stroke:none"
       id="path3422"
       inkscape:connector-curvature="0" />
    <path
       d="m -1154.5038,-2550.8417 c 0,3.512 -1.0878,6.0779 -3.2608,7.6922 -1.5823,1.16 -3.5922,1.74 -6.0298,1.74 -1.9163,0 -3.6964,-0.8285 -5.3455,-2.483 l 2.5792,-2.6674 c 0,0.1416 0.2887,0.3902 0.8687,0.743 0.7697,0.4784 1.6838,0.7163 2.7369,0.7163 1.4059,0 2.5605,-0.5693 3.4719,-1.7106 0.8607,-1.1065 1.2883,-2.4402 1.2883,-4.0038 0,-1.5609 -0.4116,-2.8011 -1.2375,-3.7125 -0.6815,-0.7911 -1.4593,-1.1867 -2.3387,-1.1867 -1.4914,-0.016 -2.4562,0.4891 -2.8973,1.5128 l -3.8675,-0.5265 0.9248,-13.3051 12.1451,0 0,3.6911 -8.5128,0 -0.3902,5.6395 c 0.735,-0.4677 1.5876,-0.7002 2.5498,-0.7002 2.2291,0 4.0279,0.8686 5.3937,2.6059 1.2803,1.6171 1.9217,3.6029 1.9217,5.955"
       style="fill:#000000;fill-opacity:1;fill-rule:nonzero;stroke:none"
       id="path3426"
       inkscape:connector-curvature="0" />
    <path
       d="m -1593.935,-2495.5459 -13.436,-0.029 0,-26.3483 13.436,0 0,3.6884 -9.7476,0 0,6.8637 5.7946,0 0,3.6885 -5.7946,0 0,8.4165 9.7476,0 0,3.7206 z"
       style="fill:#000000;fill-opacity:1;fill-rule:nonzero;stroke:none"
       id="path3430"
       inkscape:connector-curvature="0" />
    <path
       d="m -1581.0723,-2506.3715 -2.058,-8.5716 -2.0794,8.5716 4.1374,0 z m 6.3746,10.7954 -3.7686,0 -1.7106,-7.1043 -5.9309,0 -1.7132,7.1043 -3.7393,0 6.3773,-26.3483 4.1107,0 6.3746,26.3483 z"
       style="fill:#000000;fill-opacity:1;fill-rule:nonzero;stroke:none"
       id="path3434"
       inkscape:connector-curvature="0" />
    <path
       d="m -1556.7772,-2502.5059 c -0.2459,1.4086 -0.6388,2.6033 -1.184,3.5896 -1.3017,2.4108 -3.2314,3.6136 -5.7973,3.6136 -3.1806,0 -5.4017,-1.8015 -6.6659,-5.4044 -0.7377,-2.1275 -1.1038,-4.8083 -1.1038,-8.0424 0,-8.9671 2.5872,-13.4494 7.7697,-13.4494 2.4777,0 4.3807,1.0825 5.7171,3.2474 0.5613,0.8981 0.9862,1.9806 1.2642,3.2475 l -3.9503,0 c -0.5961,-1.8683 -1.6064,-2.8038 -3.0283,-2.8038 -1.5823,0 -2.7156,1.291 -3.3998,3.8756 -0.457,1.6704 -0.6869,3.6323 -0.6869,5.8827 0,2.2505 0.2299,4.2097 0.6869,5.8801 0.6842,2.5846 1.8175,3.8783 3.3998,3.8783 1.5449,0 2.5872,-1.1707 3.1352,-3.5148 l 3.8434,0 z"
       style="fill:#000000;fill-opacity:1;fill-rule:nonzero;stroke:none"
       id="path3438"
       inkscape:connector-curvature="0" />
    <path
       d="m -1536.7549,-2495.5761 -3.6911,0 0,-12.1077 -7.3795,0 0,12.1077 -3.6885,0 0,-26.3483 3.6885,0 0,10.5521 7.3795,0 0,-10.5521 3.6911,0 0,26.3483 z"
       style="fill:#000000;fill-opacity:1;fill-rule:nonzero;stroke:none"
       id="path3442"
       inkscape:connector-curvature="0" />
    <path
       d="m -1503.7603,-2506.3715 -2.0527,-8.5716 -2.0847,8.5716 4.1374,0 z m 6.3773,10.7954 -3.766,0 -1.7132,-7.1043 -5.9309,0 -1.7106,7.1043 -3.7419,0 6.3773,-26.3483 4.108,0 6.3773,26.3483 z"
       style="fill:#000000;fill-opacity:1;fill-rule:nonzero;stroke:none"
       id="path3446"
       inkscape:connector-curvature="0" />
    <path
       d="m -1482.6285,-2508.735 c 0,-6.3318 -1.4941,-9.4991 -4.4796,-9.4991 l -2.8999,0 0,18.9981 2.8999,0 c 2.9855,0 4.4796,-3.1645 4.4796,-9.499 m 3.6911,-0.013 c 0,5.2707 -1.037,9.0046 -3.1111,11.1989 -1.2669,1.3364 -2.7583,2.0046 -4.4796,2.0046 l -0.58,0 -6.591,0 0,-26.3803 6.8824,0 c 1.7186,0 3.1966,0.5639 4.4261,1.6865 2.3013,2.1088 3.4532,5.9389 3.4532,11.4903"
       style="fill:#000000;fill-opacity:1;fill-rule:nonzero;stroke:none"
       id="path3450"
       inkscape:connector-curvature="0" />
    <path
       d="m -1462.6035,-2508.735 c 0,-6.3318 -1.4967,-9.4991 -4.4822,-9.4991 l -2.9,0 0,18.9981 2.9,0 c 2.9855,0 4.4822,-3.1645 4.4822,-9.499 m 3.6885,-0.013 c 0,5.2707 -1.0371,9.0046 -3.1085,11.1989 -1.2669,1.3364 -2.7583,2.0046 -4.4822,2.0046 l -0.58,0 -6.5884,0 0,-26.3803 6.8797,0 c 1.7213,0 3.1966,0.5639 4.4288,1.6865 2.2986,2.1088 3.4506,5.9389 3.4506,11.4903"
       style="fill:#000000;fill-opacity:1;fill-rule:nonzero;stroke:none"
       id="path3454"
       inkscape:connector-curvature="0" />
    <path
       d="m -1449.9588,-2495.5767 -3.6911,0 0,-26.3482 3.6911,0 0,26.3482 z"
       style="fill:#000000;fill-opacity:1;fill-rule:nonzero;stroke:none"
       id="path3456"
       inkscape:connector-curvature="0" />
    <path
       d="m -1432.8322,-2518.2346 -4.8671,0 0,22.6598 -3.6911,0 0,-22.6598 -4.8778,0 0,-3.6885 13.436,0 0,3.6885 z"
       style="fill:#000000;fill-opacity:1;fill-rule:nonzero;stroke:none"
       id="path3460"
       inkscape:connector-curvature="0" />
    <path
       d="m -1425.4548,-2495.5767 -3.6911,0 0,-26.3482 3.6911,0 0,26.3482 z"
       style="fill:#000000;fill-opacity:1;fill-rule:nonzero;stroke:none"
       id="path3462"
       inkscape:connector-curvature="0" />
    <path
       d="m -1408.318,-2508.7495 c 0,-2.2504 -0.2298,-4.2123 -0.6869,-5.8827 -0.6842,-2.582 -1.8201,-3.8756 -3.3998,-3.8756 -1.5822,0 -2.7155,1.2936 -3.3997,3.8756 -0.4598,1.6704 -0.6869,3.6323 -0.6869,5.8827 0,2.2505 0.2271,4.2097 0.6869,5.8802 0.6842,2.5872 1.8175,3.8782 3.3997,3.8782 1.5797,0 2.7156,-1.291 3.3998,-3.8782 0.4571,-1.6705 0.6869,-3.6297 0.6869,-5.8802 m 3.6911,0 c 0,3.2341 -0.3715,5.9149 -1.1092,8.0424 -1.2642,3.6056 -3.488,5.4044 -6.6686,5.4044 -3.1806,0 -5.4043,-1.7988 -6.6685,-5.4044 -0.7404,-2.1275 -1.1066,-4.8083 -1.1066,-8.0424 0,-8.9645 2.5899,-13.4494 7.7751,-13.4494 5.1852,0 7.7778,4.4849 7.7778,13.4494"
       style="fill:#000000;fill-opacity:1;fill-rule:nonzero;stroke:none"
       id="path3466"
       inkscape:connector-curvature="0" />
    <path
       d="m -1384.6153,-2495.5761 -3.6911,0 -7.3795,-17.047 0,17.047 -3.6885,0 0,-26.3483 3.6858,0 7.3795,17.0203 0,-17.0203 3.6911,0 0,26.3483 z"
       style="fill:#000000;fill-opacity:1;fill-rule:nonzero;stroke:none"
       id="path3470"
       inkscape:connector-curvature="0" />
    <path
       d="m -1370.4423,-2506.3715 -2.0553,-8.5716 -2.0821,8.5716 4.1374,0 z m 6.3773,10.7954 -3.766,0 -1.7132,-7.1043 -5.9309,0 -1.7106,7.1043 -3.7419,0 6.3746,-26.3483 4.1107,0 6.3773,26.3483 z"
       style="fill:#000000;fill-opacity:1;fill-rule:nonzero;stroke:none"
       id="path3474"
       inkscape:connector-curvature="0" />
    <path
       d="m -1346.9438,-2495.5761 -13.436,0 0,-26.3483 3.6911,0 0,22.6598 9.7449,0 0,3.6885 z"
       style="fill:#000000;fill-opacity:1;fill-rule:nonzero;stroke:none"
       id="path3478"
       inkscape:connector-curvature="0" />
    <path
       d="m -1313.9831,-2506.3715 -2.0527,-8.5716 -2.0847,8.5716 4.1374,0 z m 6.3773,10.7954 -3.7687,0 -1.7132,-7.1043 -5.9282,0 -1.7106,7.1043 -3.7446,0 6.3773,-26.3483 4.1107,0 6.3773,26.3483 z"
       style="fill:#000000;fill-opacity:1;fill-rule:nonzero;stroke:none"
       id="path3482"
       inkscape:connector-curvature="0" />
    <path
       d="m -1290.4814,-2495.5761 -3.9503,0 -3.8221,-9.1436 -3.8221,9.1436 -3.9504,0 5.7706,-13.8317 -5.2708,-12.5166 3.9825,0 3.2902,7.8526 3.2153,-7.8526 3.9531,0 -5.2173,12.5166 5.8213,13.8317 z"
       style="fill:#000000;fill-opacity:1;fill-rule:nonzero;stroke:none"
       id="path3486"
       inkscape:connector-curvature="0" />
    <path
       d="m -1273.3595,-2495.5761 -13.436,0 0,-26.3483 3.6884,0 0,22.6598 9.7476,0 0,3.6885 z"
       style="fill:#000000;fill-opacity:1;fill-rule:nonzero;stroke:none"
       id="path3490"
       inkscape:connector-curvature="0" />
    <path
       d="m -1256.2324,-2495.5459 -13.4387,-0.029 0,-26.3483 13.4387,0 0,3.6884 -9.7476,0 0,6.8637 5.7946,0 0,3.6885 -5.7946,0 0,8.4165 9.7476,0 0,3.7206 z"
       style="fill:#000000;fill-opacity:1;fill-rule:nonzero;stroke:none"
       id="path3494"
       inkscape:connector-curvature="0" />
    <path
       d="m -1226.3026,-2522.0428 0,-3.8488 3.6911,0 0,3.8782 c 2.9909,0.6495 4.6266,2.6728 4.9099,6.0672 l -3.6911,0 c 0,-0.441 -0.1497,-0.882 -0.449,-1.323 -0.5266,-0.8286 -1.4166,-1.2429 -2.6674,-1.2429 -2.1303,0 -3.1967,0.9409 -3.1967,2.8198 0,1.0397 0.8633,2.0768 2.5846,3.1111 2.5712,1.5128 4.1802,2.5846 4.8324,3.2181 1.7212,1.7052 2.5872,3.9049 2.5872,6.5937 0,1.5288 -0.3448,2.9187 -1.0317,4.1669 -0.8793,1.5823 -2.1729,2.5926 -3.8782,3.0309 l 0,3.9557 -3.6911,0 0,-3.798 c -2.1596,-0.3154 -3.7739,-1.3097 -4.8457,-2.9801 -0.8767,-1.3364 -1.315,-2.9374 -1.315,-4.8004 l 3.6911,0 c 0,1.5315 0.4837,2.6675 1.4513,3.4078 0.7216,0.5266 1.601,0.7912 2.638,0.7912 2.1115,0 3.1673,-1.2562 3.1673,-3.7713 0,-1.9672 -0.85,-3.5762 -2.5552,-4.8244 -1.5823,-0.9836 -3.1726,-1.9618 -4.7682,-2.9293 -1.7053,-1.3177 -2.5552,-3.039 -2.5552,-5.1665 0,-1.1787 0.286,-2.2933 0.866,-3.349 0.8927,-1.6358 2.2985,-2.638 4.2256,-3.0069"
       style="fill:#000000;fill-opacity:1;fill-rule:nonzero;stroke:none"
       id="path3498"
       inkscape:connector-curvature="0" />
    <path
       d="m -1201.101,-2508.7532 c 0,-2.2505 -0.2298,-4.2123 -0.6869,-5.8828 -0.6869,-2.5819 -1.8201,-3.8755 -3.4024,-3.8755 -1.5796,0 -2.7129,1.2936 -3.3998,3.8755 -0.4571,1.6705 -0.6869,3.6323 -0.6869,5.8828 0,2.2505 0.2298,4.2096 0.6869,5.8801 0.6869,2.5846 1.8202,3.8782 3.3998,3.8782 1.5823,0 2.7155,-1.2936 3.4024,-3.8782 0.4571,-1.6705 0.6869,-3.6296 0.6869,-5.8801 m 3.6885,0 c 0,3.234 -0.3689,5.9148 -1.1092,8.0424 -1.2643,3.6029 -3.4854,5.4043 -6.6686,5.4043 -3.1806,0 -5.4017,-1.8014 -6.6686,-5.4043 -0.7377,-2.1276 -1.1065,-4.8084 -1.1065,-8.0424 0,-8.9672 2.5925,-13.4494 7.7751,-13.4494 5.1852,0 7.7778,4.4822 7.7778,13.4494"
       style="fill:#000000;fill-opacity:1;fill-rule:nonzero;stroke:none"
       id="path3502"
       inkscape:connector-curvature="0" />
    <path
       d="m -1194.0208,-2497.4254 c 0,-0.5827 0.2058,-1.0798 0.6201,-1.4968 0.4116,-0.4143 0.9061,-0.6228 1.4834,-0.6228 0.58,0 1.0771,0.2085 1.4887,0.6228 0.4116,0.417 0.6174,0.9141 0.6174,1.4968 0,0.5826 -0.2058,1.0824 -0.6174,1.4994 -0.4116,0.4116 -0.9087,0.6201 -1.4887,0.6201 -0.5773,0 -1.0718,-0.2085 -1.4834,-0.6201 -0.4143,-0.417 -0.6201,-0.9168 -0.6201,-1.4994"
       style="fill:#000000;fill-opacity:1;fill-rule:nonzero;stroke:none"
       id="path3506"
       inkscape:connector-curvature="0" />
    <path
       d="m -1173.1544,-2518.2386 c -1.5662,2.0206 -2.9106,4.1535 -4.0359,6.4039 -2.6754,5.3376 -4.0118,10.7553 -4.0118,16.2559 l -3.6885,0 c 0,-5.9015 1.2028,-11.4529 3.6163,-16.6514 1.0023,-2.1623 2.2077,-4.1642 3.6136,-6.0084 l -10.2501,0 0,-3.6885 14.7564,0 0,3.6885 z"
       style="fill:#000000;fill-opacity:1;fill-rule:nonzero;stroke:none"
       id="path3510"
       inkscape:connector-curvature="0" />
    <path
       d="m -1154.5038,-2504.7363 c 0,3.512 -1.0878,6.0752 -3.2608,7.6923 -1.5823,1.1573 -3.5922,1.7373 -6.0298,1.7373 -1.9163,0 -3.6964,-0.8259 -5.3455,-2.4804 l 2.5792,-2.6674 c 0,0.1417 0.2887,0.3902 0.8687,0.743 0.7697,0.4785 1.6838,0.7163 2.7369,0.7163 1.4059,0 2.5605,-0.5693 3.4719,-1.7132 0.8607,-1.1039 1.2883,-2.4376 1.2883,-4.0012 0,-1.5635 -0.4116,-2.801 -1.2375,-3.7125 -0.6815,-0.7911 -1.4593,-1.1867 -2.3387,-1.1867 -1.4914,-0.016 -2.4562,0.4865 -2.8973,1.5128 l -3.8675,-0.5265 0.9248,-13.3051 12.1451,0 0,3.6884 -8.5128,0 -0.3902,5.6423 c 0.735,-0.4678 1.5876,-0.7003 2.5498,-0.7003 2.2291,0 4.0279,0.8687 5.3937,2.606 1.2803,1.617 1.9217,3.6029 1.9217,5.9549"
       style="fill:#000000;fill-opacity:1;fill-rule:nonzero;stroke:none"
       id="path3514"
       inkscape:connector-curvature="0" />
    <path
       d="m -1592.651,-2541.6853 -14.7216,0 c -0.04,-0.2807 -0.059,-0.6228 -0.059,-1.029 0,-5.0275 1.6223,-9.1142 4.8724,-12.2601 0.735,-0.7029 1.7133,-1.4941 2.924,-2.3734 1.1226,-0.7911 1.8523,-1.3711 2.1837,-1.74 0.564,-0.6147 0.8446,-1.3177 0.8446,-2.1088 0,-0.7751 -0.2726,-1.4941 -0.8152,-2.1623 -0.6842,-0.8793 -1.6143,-1.3203 -2.7877,-1.3203 -1.4192,0 -2.4189,0.6174 -2.9989,1.8522 -0.3153,0.6549 -0.473,1.291 -0.473,1.9084 l -3.6911,0 c 0.035,-2.1062 0.727,-3.8756 2.0767,-5.3055 1.3498,-1.4299 3.047,-2.1436 5.0997,-2.1436 2.1382,0 3.9076,0.7538 5.3081,2.2639 1.3123,1.4059 1.9698,3.047 1.9698,4.9259 0,1.5983 -0.4035,2.9481 -1.2107,4.0573 -0.5453,0.735 -1.4219,1.4914 -2.6354,2.2638 -1.4032,0.8954 -2.2745,1.5102 -2.6086,1.8443 -2.4216,2.3867 -3.7927,4.9339 -4.1081,7.6388 l 10.8301,0 0,3.6884 z"
       style="fill:#000000;fill-opacity:1;fill-rule:nonzero;stroke:none"
       id="path3518"
       inkscape:connector-curvature="0" />
    <path
       d="m -1559.5206,-2552.4809 -2.0527,-8.5716 -2.0847,8.5716 4.1374,0 z m 6.3773,10.7953 -3.7687,0 -1.7132,-7.1042 -5.9282,0 -1.7106,7.1042 -3.7446,0 6.3773,-26.3482 4.1107,0 6.3773,26.3482 z"
       style="fill:#000000;fill-opacity:1;fill-rule:nonzero;stroke:none"
       id="path3522"
       inkscape:connector-curvature="0" />
    <path
       d="m -1536.0188,-2541.6853 -3.9503,0 -3.8221,-9.1409 -3.8221,9.1409 -3.9504,0 5.7706,-13.8316 -5.2708,-12.5167 3.9771,0 3.2956,7.8527 3.2153,-7.8527 3.9504,0 -5.2173,12.5167 5.824,13.8316 z"
       style="fill:#000000;fill-opacity:1;fill-rule:nonzero;stroke:none"
       id="path3526"
       inkscape:connector-curvature="0" />
    <path
       d="m -1518.8962,-2541.6853 -13.436,0 0,-26.3483 3.6857,0 0,22.6599 9.7503,0 0,3.6884 z"
       style="fill:#000000;fill-opacity:1;fill-rule:nonzero;stroke:none"
       id="path3530"
       inkscape:connector-curvature="0" />
    <path
       d="m -1501.7712,-2541.654 -13.436,-0.032 0,-26.3483 13.436,0 0,3.6911 -9.7449,0 0,6.861 5.7946,0 0,3.6911 -5.7946,0 0,8.4166 9.7449,0 0,3.7205 z"
       style="fill:#000000;fill-opacity:1;fill-rule:nonzero;stroke:none"
       id="path3534"
       inkscape:connector-curvature="0" />
    <path
       d="m -1483.8449,-2548.8738 c 0,1.863 -0.4838,3.472 -1.4486,4.8271 -1.2482,1.756 -3.0924,2.638 -5.5327,2.638 -2.7449,0 -4.7896,-0.882 -6.142,-2.6407 -1.0905,-1.3898 -1.6331,-3.1405 -1.6331,-5.252 l 3.6858,0 c 0,1.5342 0.4864,2.6674 1.4513,3.4078 0.7243,0.5292 1.6037,0.7938 2.6434,0.7938 2.1088,0 3.1645,-1.2589 3.1645,-3.7713 0,-1.9698 -0.8499,-3.5788 -2.5551,-4.827 -1.5823,-0.9836 -3.17,-1.9592 -4.7683,-2.9267 -1.7052,-1.3177 -2.5552,-3.0416 -2.5552,-5.1692 0,-1.3871 0.3823,-2.6647 1.16,-3.8247 1.1921,-1.7934 3.1058,-2.6888 5.7385,-2.6888 2.7717,0 4.7388,1.037 5.8961,3.1138 0.4758,0.8633 0.7725,1.911 0.8954,3.1405 l -3.6884,0 c 0,-0.441 -0.1497,-0.8794 -0.449,-1.3204 -0.5293,-0.8285 -1.4166,-1.2455 -2.6675,-1.2455 -2.1329,0 -3.1966,0.9408 -3.1966,2.8225 0,1.037 0.8633,2.074 2.5872,3.1138 2.5659,1.5101 4.1776,2.5819 4.8297,3.2153 1.724,1.7052 2.5846,3.9049 2.5846,6.5937"
       style="fill:#000000;fill-opacity:1;fill-rule:nonzero;stroke:none"
       id="path3538"
       inkscape:connector-curvature="0" />
  </g>
</svg>
