<?xml version="1.0" encoding="UTF-8" standalone="no"?>
<svg
   xmlns:dc="http://purl.org/dc/elements/1.1/"
   xmlns:cc="http://creativecommons.org/ns#"
   xmlns:rdf="http://www.w3.org/1999/02/22-rdf-syntax-ns#"
   xmlns:svg="http://www.w3.org/2000/svg"
   xmlns="http://www.w3.org/2000/svg"
   xmlns:sodipodi="http://sodipodi.sourceforge.net/DTD/sodipodi-0.dtd"
   xmlns:inkscape="http://www.inkscape.org/namespaces/inkscape"
   height="2169.9929"
   width="5409.9941"
   viewBox="82.992 45.607 15847.314 6999.0622"
   id="svg2"
   version="1.1"
   inkscape:version="0.48.2 r9819"
   sodipodi:docname="AJAX1.svg">
  <metadata
     id="metadata2508">
    <rdf:RDF>
      <cc:Work
         rdf:about="">
        <dc:format>image/svg+xml</dc:format>
        <dc:type
           rdf:resource="http://purl.org/dc/dcmitype/StillImage" />
        <dc:title></dc:title>
      </cc:Work>
    </rdf:RDF>
  </metadata>
  <sodipodi:namedview
     pagecolor="#ffffff"
     bordercolor="#666666"
     borderopacity="1"
     objecttolerance="10"
     gridtolerance="10"
     guidetolerance="10"
     inkscape:pageopacity="0"
     inkscape:pageshadow="2"
     inkscape:window-width="1280"
     inkscape:window-height="1004"
     id="namedview2506"
     showgrid="false"
     inkscape:zoom="0.11523651"
     inkscape:cx="2079.3342"
     inkscape:cy="127.4102"
     inkscape:window-x="-8"
     inkscape:window-y="-8"
     inkscape:window-maximized="1"
     inkscape:current-layer="svg2"
     showguides="true"
     inkscape:guide-bbox="true"
     fit-margin-top="0"
     fit-margin-left="0"
     fit-margin-right="0"
     fit-margin-bottom="0" />
  <defs
     id="defs4">
    <linearGradient
       id="linearGradient6324">
      <stop
         style="stop-color:#ec8028;stop-opacity:1;"
         offset="0"
         id="stop6326" />
      <stop
         style="stop-color:#ec8028;stop-opacity:0;"
         offset="1"
         id="stop6328" />
    </linearGradient>
    <clipPath
       id="SVG_CP_1">
      <path
         inkscape:connector-curvature="0"
         d="M 598.41107,0 0,0 l 0,392.15871 598.41107,0 0,-392.15871 z"
         id="path21406" />
    </clipPath>
    <clipPath
       id="clipPath6506">
      <path
         inkscape:connector-curvature="0"
         d="M 598.41107,0 0,0 l 0,392.15871 598.41107,0 0,-392.15871 z"
         id="path6508" />
    </clipPath>
    <clipPath
       id="clipPath6510">
      <path
         inkscape:connector-curvature="0"
         d="M 598.41107,0 0,0 l 0,392.15871 598.41107,0 0,-392.15871 z"
         id="path6512" />
    </clipPath>
    <clipPath
       id="clipPath6514">
      <path
         inkscape:connector-curvature="0"
         d="M 598.41107,0 0,0 l 0,392.15871 598.41107,0 0,-392.15871 z"
         id="path6516" />
    </clipPath>
    <clipPath
       id="clipPath6518">
      <path
         inkscape:connector-curvature="0"
         d="M 598.41107,0 0,0 l 0,392.15871 598.41107,0 0,-392.15871 z"
         id="path6520-6" />
    </clipPath>
    <clipPath
       id="clipPath6522">
      <path
         inkscape:connector-curvature="0"
         d="M 598.41107,0 0,0 l 0,392.15871 598.41107,0 0,-392.15871 z"
         id="path6524-5" />
    </clipPath>
    <clipPath
       id="clipPath6526">
      <path
         inkscape:connector-curvature="0"
         d="M 598.41107,0 0,0 l 0,392.15871 598.41107,0 0,-392.15871 z"
         id="path6528-2" />
    </clipPath>
    <clipPath
       id="SVG_CP_1-9">
      <path
         inkscape:connector-curvature="0"
         d="M 598.41107,0 0,0 l 0,392.15871 598.41107,0 0,-392.15871 z"
         id="path21406-3" />
    </clipPath>
    <clipPath
       id="SVG_CP_1-0">
      <path
         inkscape:connector-curvature="0"
         d="M 598.41107,0 0,0 l 0,392.15871 598.41107,0 0,-392.15871 z"
         id="path21406-1" />
    </clipPath>
    <clipPath
       id="clipPath6597">
      <path
         inkscape:connector-curvature="0"
         d="M 598.41107,0 0,0 l 0,392.15871 598.41107,0 0,-392.15871 z"
         id="path6599" />
    </clipPath>
    <clipPath
       id="clipPath6601">
      <path
         inkscape:connector-curvature="0"
         d="M 598.41107,0 0,0 l 0,392.15871 598.41107,0 0,-392.15871 z"
         id="path6603" />
    </clipPath>
  </defs>
  <style
     id="style_css_sheet"
     type="text/css"> 
/*
 * Below are Cascading Style Sheet (CSS) definitions in use in this file,
 * which allow easily changing how countries are displayed.
 *
 */

/*
 * Circles around small countries
 *
 * Change opacity to 1 to display all circles.
 *
 */
.circlexx
{
   opacity:1;
   fill:#e0e0e0;
   stroke:#000000;
   stroke-width:0.5;
}

/*
 * Smaller circles around French DOMs and Chinese SARs
 *
 * Change opacity to 1 to display all subnational circles.
 *
 */
.subxx
{
   opacity:1;
   stroke-width:0.3;
}

/*
 * Circles around small, unrecognized countries
 *
 * Change opacity to 1 to display all circles.
 *
 */
.unxx
{
   opacity:0;
   fill:#e0e0e0;
   stroke:#000000;
   stroke-width:0.3;
}

/*
 * Circles around small countries, but with no permanent residents 
 *
 * Change opacity to 1 to display all circles.
 *
 */
.noxx
{
   opacity:0;
   fill:#e0e0e0;
   stroke:#000000;
   stroke-width:0.5;
}

/*
 * land
 */
.landxx
{
   fill: #e0e0e0;
   stroke:#ffffff;
   stroke-width:0.5;
   fill-rule:evenodd;
}

/*
 * Styles for coastlines of islands with no borders
 */
.coastxx
{
   fill: #e0e0e0;
   stroke:#ffffff;
   stroke-width:0.3;
   fill-rule:evenodd;
}

/*
 * Styles for nations with limited recognition
 */
.limitxx
{
   fill: #e0e0e0;
   stroke:#ffffff;
   stroke-width:0;
   fill-rule:evenodd;
}

/*
 * Styles for nations with no permanent population.
 */
.antxx
{
   fill: #e0e0e0;
   stroke:#ffffff;
   stroke-width:0;
   fill-rule:evenodd;
}

/*
 * Ocean
 */
.oceanxx
{
   opacity: 1;
   color: #000000;
   fill:#ffffff;
   stroke:#000;
   stroke-width:0.5;
   stroke-miterlimit:1;
}

/*
 * Additional style rules
 *
 * The following are examples of colouring countries.  You can substitute these with your own styles to colour the countries on the map.
 *
 * Color a few countries:
 *
 * .gb, .au, .nc
 * {
 *    fill:       #ff0000;
 * }
 *
 * Color a few small country circles (and the countries):
 *
 * .ms, .ky
 * {
 *    opacity:    1;
 *    fill:       #ff0000;
 * }
 *
 */

/* Same-sex marriage */
.ar, .be, .ca, .dk, .es, .is, .nl, .no, .pt, .se, .za
{ fill: #002255; }

/* Civil unions etc. */
.ad, .at, .au, .bl, .br, .ch, .co, .cz, .de, .ec, .fi, .fr, .gb, .gf, .gl, .hr, .hu, .ie, .il, .im, .je, .li, .lu, .mf, .nc, .nf, .nz, .pm, .re, .si, .uy, .wf
{ fill: #0066ff; }

/* Recognition of foreign marriages */
.aw, .cw, .sx, .mx
{ fill: #7fbcff; }

/* Legal but no recognition */
.ai, .al, .am, .as, .az, .ba, .bg, .bf, .by, .bj, .bm, .bo, .bs, .cd, .cg, .cf, .ci, .cl, .cn, .cr, .cu, .cv, .cy, .dj, .do, .ee, .fk, .fj, .fm, .fo, .ga, .ge, .gg, .gi, .gq, .gr, .gs, .gt, .gu, .gw, .hn, .ht, .id, .in, .iq, .it, .jo, .jp, .kg, .kh, .kp, .kr, .ky, .kz, .la, .lk, .lt, .lv, .mc, .md, .me, .mg, .mh, .mk, .ml, .mn, .mp, .mt, .ms, .mz, .ne, .ni, .np, .pa, .pe, .pf, .ph, .pl, .pn, .pr, .py, .ro, .rs, .ru, .rw, .sh, .sk, .sm, .sr, .st, .sv, .tc, .td, .th, .tj, .tk, .tl, .tr, .tw, .ua, .us, .va, .ve, .vg, .vi, .vn, .vu, .xk, .ps_west_bank
{ fill: #cccccc; }

/* Illegal, minimal penalty */
.bt, .lb, .lr
{ fill: #f9dc36; }

/* Illegal, large penalty */
.ag, .ao, .bh, .bi, .bn, .bw, .bz, .cm, .ck, .dm, .dz, .eg, .eh, .er, .et, .gd, .gh, .gm, .gn, .jm, .ke, .ki, .km, .kn, .kw, .lc, .ls, .ly, .ma, .mu, .mv, .mw, .my, .na, .ng, .nr, .nu, .om, .pg, .pw, .qa, .sb, .sc, .sg, .sn, .so, .ss, .sy, .sz, .tg, .tm, .tn, .to, .tt, .tv, .uz, .vc, .ws, .zm, .zw, .xc, .ps_gaza_strip
{ fill: #ec8028; }

/* Illegal, life imprisonment */
.bb, .bd, .gy, .mm, .pk, .sl, .tz, .ug
{ fill: #e73e21; }

/* Illegal, death penalty */
.ae, .af, .ir, .mr, .sa, .sd, .ye
{ fill: #8c201f; }

/* SUB-NATIONAL UNITS */

/* Same-sex marriage */
.br_al, .mx_dif, .us_ct, .us_dc, .us_ia, .us_ma, .us_md, .us_nh, .us_ny, .us_vt, .us_wa
{ fill: #002255; }

/* Civil unions etc. */
.mx_coa, .uk_je, .us_ca, .us_co, .us_de, .us_hi, .us_il, .us_me, .us_nj, .us_nv, .us_or, .us_ri, .us_wi, .ve_l
{ fill: #0066ff; }

/* Recognition of foreign marriages */
.bq
{ fill: #7fbcff; }

/* Illegal, large penalty */
.id_ac
{ fill: #ec8028; }

/* Illegal, death penalty */
.ng_sharia, .so_shabaab
{ fill: #8c201f; }

</style>
  <path
     inkscape:connector-curvature="0"
     style="fill:#ffffff;fill-rule:nonzero;stroke:#000000;stroke-width:32.25384903;stroke-linecap:butt;stroke-linejoin:miter;stroke-miterlimit:4;stroke-opacity:1;stroke-dasharray:none"
     d="m 16715.19,6593.1263 c 0,240.4928 -194.935,435.427 -435.427,435.427 l -16546.22507,0 c -240.48268,0 -435.42695,-194.9342 -435.42695,-435.427 l 0,-6095.9771 c 0,-240.4786 194.94427,-435.427 435.42695,-435.427 l 16546.22507,0 c 240.492,0 435.427,194.9484 435.427,435.427 l 0,6095.9771 z"
     id="path11" />
  <path
     inkscape:connector-curvature="0"
     style="fill:#000000;fill-rule:nonzero;stroke:none"
     d="m -266.46207,6919.6965 c -180.07364,0 -326.57022,-146.5131 -326.57022,-326.5702 l 0,-6095.9771 c 0,-180.0736 146.49658,-326.5702 326.57022,-326.5702 l 16546.22507,0 c 180.057,0 326.57,146.4966 326.57,326.5702 l 0,6095.9771 c 0,180.0571 -146.513,326.5702 -326.57,326.5702 l -16546.22507,0 z"
     id="path13" />
  <path
     inkscape:connector-curvature="0"
     style="fill:#ffffff;fill-rule:nonzero;stroke:none"
     d="m -266.46207,6738.2687 c -80.03228,0 -145.14232,-65.1125 -145.14232,-145.1423 l 0,-6095.9772 c 0,-80.0323 65.11004,-145.1423 145.14232,-145.1423 l 16546.22507,0 c 80.03,0 145.142,65.11 145.142,145.1423 l 0,6095.9772 c 0,80.0298 -65.112,145.1423 -145.142,145.1423 l -16546.22507,0 z"
     id="path15" />
  <path
     inkscape:connector-curvature="0"
     style="fill:#000000;fill-rule:nonzero;stroke:none"
     d="M 8179.9741,5722.2725 7643.27,4555.0058 l 0,1167.2667 -250.0479,0 0,-1741.7117 250.0479,0 475.704,1045.0289 0,-1045.0289 250.0479,0 0,1741.7116 -189.0478,0 z"
     id="path17" />
  <path
     inkscape:connector-curvature="0"
     style="fill:#000000;fill-rule:nonzero;stroke:none"
     d="m 6627.5157,4225.0087 -256.1358,0 0,440.023 256.1358,0 c 146.3922,0 225.656,-79.4653 225.656,-220.0115 0,-134.458 -91.48,-220.0115 -225.656,-220.0115 z m 213.4802,1497.2637 -231.7439,-818.9249 -237.8721,0 0,818.9249 -250.048,0 0,-1741.7116 518.4,0 c 274.4399,0 457.3999,183.3268 457.3999,464.4594 0,207.7952 -85.3921,360.5579 -250.048,421.6789 l 250.048,855.5733 -256.1359,0 z"
     id="path19" />
  <path
     inkscape:connector-curvature="0"
     style="fill:#000000;fill-rule:nonzero;stroke:none"
     d="m 9161.0555,4917.9421 c -75.353,-48.8243 -148.529,-97.8098 -195.2164,-130.7087 -140.4252,-98.8178 -214.8106,-232.2278 -214.8106,-384.99 0,-250.572 196.3856,-452.2393 448.0059,-452.2393 245.4921,0 435.7092,189.451 441.8777,452.2393 l -239.3638,0 c -6.1283,-122.242 -92.0445,-201.6672 -202.5139,-201.6672 -116.5976,0 -208.6421,85.5533 -208.6421,201.6672 0,85.5533 36.8097,134.4582 165.6639,207.7954 337.5365,195.539 484.8559,384.99 484.8559,635.5621 0,281.0922 -214.8106,507.232 -484.8559,507.232 -306.8551,0 -490.9439,-256.66 -490.9439,-543.9208 l 245.4921,0 c 0,146.6744 73.6194,299.477 245.4518,299.477 135.0226,0 245.4921,-122.2421 245.4921,-262.7882 0,-109.139 -45.1151,-201.0625 -240.4928,-327.6588 z"
     id="path21" />
  <path
     inkscape:connector-curvature="0"
     style="fill:#000000;fill-rule:nonzero;stroke:none"
     d="m 4199.8089,4212.7925 0,1509.48 -251.2978,0 0,-1509.4799 -318.7083,0 0,-232.2317 888.7144,0 0,232.2317 -318.7083,0 z"
     id="path23" />
  <path
     inkscape:connector-curvature="0"
     style="fill:#000000;fill-rule:nonzero;stroke:none"
     d="m 5671.0682,5508.3895 c -85.3921,140.546 -250.048,244.4439 -414.7039,244.4439 -170.7841,0 -341.5279,-97.7695 -426.92,-244.4439 -48.7839,-91.6816 -67.088,-165.0188 -67.088,-305.565 l 0,-1222.2636 250.048,0 0,1252.8239 c 0,164.9787 97.6082,275.0044 243.96,275.0044 134.176,0 231.7439,-110.0257 231.7439,-275.0044 l 0,-1252.8239 250.048,0 0,1222.2636 c 0,140.5462 -18.3041,213.8834 -67.088,305.565 z"
     id="path25" />
  <path
     inkscape:connector-curvature="0"
     style="fill:#000000;fill-rule:nonzero;stroke:none"
     d="m 3728.177,1887.4634 -122.5243,501.124 251.2171,0 -128.6928,-501.124 z m 312.4995,1222.2515 -122.5243,-476.6798 -373.7818,0 -116.3961,476.6798 -251.2172,0 435.0238,-1741.7078 245.0889,0 435.0238,1741.7078 -251.2171,0 z"
     id="path27" />
  <path
     inkscape:connector-curvature="0"
     style="fill:#000000;fill-rule:nonzero;stroke:none"
     d="m 6577.7642,1789.6778 c -42.6961,-122.23 -115.872,-177.2269 -225.656,-177.2269 l -207.3519,0 0,1252.8162 207.3519,0 c 146.3518,0 225.656,-116.1179 250.0479,-250.5642 12.1759,-110.0017 24.392,-232.2277 24.392,-366.6778 0,-195.5591 -18.304,-385.0142 -48.7839,-458.3473 z m 42.696,1240.5919 c -61.0001,55.0009 -146.3922,79.4452 -243.96,79.4452 l -481.7919,0 0,-1741.7078 445.1837,0 c 146.3922,0 219.5681,18.3242 280.5682,67.221 103.6558,73.3292 176.8317,207.7793 207.3519,385.0102 24.392,128.33 42.6961,281.1205 42.6961,415.5626 0,403.3465 -79.3042,660.0186 -250.048,794.4688 z"
     id="path29" />
  <path
     inkscape:connector-curvature="0"
     style="fill:#000000;fill-rule:nonzero;stroke:none"
     d="m 9744.7695,3109.7149 0,-1741.7078 821.2645,0 0,244.4438 -570.007,0 0,440.0151 361.647,0 0,238.3438 -361.647,0 0,574.4573 637.417,0 0,244.4478 -888.6745,0 z"
     id="path31" />
  <path
     inkscape:connector-curvature="0"
     style="fill:#000000;fill-rule:nonzero;stroke:none"
     d="m 11180.832,1612.4509 0,440.0151 349.349,0 0,238.3438 -349.349,0 0,818.9051 -251.297,0 0,-1741.7078 888.714,0 0,244.4438 -637.417,0 z"
     id="path33" />
  <path
     inkscape:connector-curvature="0"
     style="fill:#000000;fill-rule:nonzero;stroke:none"
     d="m 8612.216,3109.7149 0,-1741.7078 251.2574,0 0,1509.48 637.4167,0 0,232.2278 -888.6741,0 z"
     id="path35" />
  <path
     inkscape:connector-curvature="0"
     style="fill:#000000;fill-rule:nonzero;stroke:none"
     d="m 5322.4444,3109.7149 -536.6637,-1167.2507 0,1167.2507 -250.048,0 0,-1741.7119 250.048,0 475.7039,1045.0248 0,-1045.0248 250.048,0 0,1741.7119 -189.0882,0 z"
     id="path37" />
  <path
     inkscape:connector-curvature="0"
     style="fill:#000000;fill-rule:nonzero;stroke:none"
     d="m 12492.757,1600.2348 0,1509.4801 -251.298,0 0,-1509.4801 -318.708,0 0,-232.2317 888.715,0 0,232.2317 -318.709,0 z"
     id="path39" />
  <path
     inkscape:connector-curvature="0"
     style="fill:#000000;fill-rule:nonzero;stroke:none"
     d="m 1367.9694,2895.8194 c -85.3881,140.5664 -250.056,244.4519 -414.71995,244.4519 -170.76397,0 -341.536,-97.7815 -426.9079,-244.4519 -48.80007,-91.6654 -67.09204,-165.0026 -67.09204,-305.5608 l 0,-1222.2555 250.05199,0 0,1252.8119 c 0,165.0067 97.57596,275.0044 243.94795,275.0044 134.17195,0 231.75595,-109.9977 231.75595,-275.0044 l 0,-1252.8119 250.0439,0 0,1222.2555 c 0,140.5583 -18.296,213.8954 -67.0799,305.5608 z"
     id="path41" />
  <path
     inkscape:connector-curvature="0"
     style="fill:#000000;fill-rule:nonzero;stroke:none"
     d="m 14357.231,1845.8277 0,0.013 c -23.908,4.6969 -46.768,16.3043 -65.273,34.8422 -49.671,49.6549 -49.671,130.1565 0,179.8113 10.039,10.0632 21.408,18.054 33.463,24.0372 l 367.855,190.3864 -2774.597,2774.6211 461.875,461.8347 2774.597,-2774.6129 190.379,367.8552 c 5.966,12.0871 13.949,23.4364 24.029,33.4997 49.671,49.6547 130.144,49.6505 179.815,0 18.546,-18.5339 30.157,-41.3696 34.834,-65.29 l 260.127,-1487.1057 -1487.104,260.1112 z"
     id="path43" />
</svg>
