<?xml version="1.0" encoding="UTF-8" standalone="no"?>
<!-- Created with Inkscape (http://www.inkscape.org/) -->

<svg
   xmlns:dc="http://purl.org/dc/elements/1.1/"
   xmlns:cc="http://creativecommons.org/ns#"
   xmlns:rdf="http://www.w3.org/1999/02/22-rdf-syntax-ns#"
   xmlns:svg="http://www.w3.org/2000/svg"
   xmlns="http://www.w3.org/2000/svg"
   xmlns:sodipodi="http://sodipodi.sourceforge.net/DTD/sodipodi-0.dtd"
   xmlns:inkscape="http://www.inkscape.org/namespaces/inkscape"
   width="2170.0166"
   height="1089.9974"
   id="svg2934"
   version="1.1"
   inkscape:version="0.48.2 r9819"
   sodipodi:docname="MUTCD M4-15.svg">
  <defs
     id="defs2936">
    <inkscape:perspective
       sodipodi:type="inkscape:persp3d"
       inkscape:vp_x="0 : 526.18109 : 1"
       inkscape:vp_y="0 : 1000 : 0"
       inkscape:vp_z="744.09448 : 526.18109 : 1"
       inkscape:persp3d-origin="372.04724 : 350.78739 : 1"
       id="perspective2942" />
    <inkscape:perspective
       id="perspective2924"
       inkscape:persp3d-origin="0.5 : 0.33333333 : 1"
       inkscape:vp_z="1 : 0.5 : 1"
       inkscape:vp_y="0 : 1000 : 0"
       inkscape:vp_x="0 : 0.5 : 1"
       sodipodi:type="inkscape:persp3d" />
    <clipPath
       id="Clip0">
      <path
         inkscape:connector-curvature="0"
         d="m 0,0 0,1296.5 864.5,0 L 864.5,0 0,0 z"
         transform="translate(0,0.5)"
         id="path7" />
    </clipPath>
  </defs>
  <sodipodi:namedview
     id="base"
     pagecolor="#ffffff"
     bordercolor="#666666"
     borderopacity="1.0"
     inkscape:pageopacity="0.0"
     inkscape:pageshadow="2"
     inkscape:zoom="0.17376232"
     inkscape:cx="776.94464"
     inkscape:cy="308.44519"
     inkscape:document-units="px"
     inkscape:current-layer="g2909"
     showgrid="false"
     inkscape:window-width="1280"
     inkscape:window-height="1004"
     inkscape:window-x="-8"
     inkscape:window-y="-8"
     inkscape:window-maximized="1"
     fit-margin-top="0"
     fit-margin-left="0"
     fit-margin-right="0"
     fit-margin-bottom="0" />
  <metadata
     id="metadata2939">
    <rdf:RDF>
      <cc:Work
         rdf:about="">
        <dc:format>image/svg+xml</dc:format>
        <dc:type
           rdf:resource="http://purl.org/dc/dcmitype/StillImage" />
        <dc:title></dc:title>
      </cc:Work>
    </rdf:RDF>
  </metadata>
  <g
     inkscape:label="Ebene 1"
     inkscape:groupmode="layer"
     id="layer1"
     transform="translate(-227.84124,1016.8421)">
    <g
       id="g3018"
       transform="translate(2,-2)">
      <g
         id="g2909"
         transform="matrix(0.80835983,0,0,0.80835983,-165.10178,-177.02766)">
        <path
           inkscape:connector-curvature="0"
           style="fill:#ffffff;fill-rule:nonzero;stroke:#000000;stroke-width:12.37072849;stroke-linecap:butt;stroke-linejoin:miter;stroke-miterlimit:4;stroke-opacity:1;stroke-dasharray:none"
           d="m 3161.8938,138.7883 c 0,92.23306 -74.7656,167.00483 -167.0049,167.00483 l -2338.06763,0 c -92.23538,0 -167.00483,-74.77177 -167.00483,-167.00483 l 0,-1002.02901 c 0,-92.23538 74.76945,-167.00479 167.00483,-167.00479 l 2338.06763,0 c 92.2393,0 167.0049,74.76941 167.0049,167.00479 l 0,1002.02901 z"
           id="path11" />
        <path
           inkscape:connector-curvature="0"
           style="fill:#000000;fill-rule:nonzero;stroke:none"
           d="m 656.82127,264.04193 c -69.06594,0 -125.25363,-56.18939 -125.25363,-125.25362 l 0,-1002.02901 c 0,-69.06594 56.18769,-125.25363 125.25363,-125.25363 l 2338.06773,0 c 69.0595,0 125.2536,56.18769 125.2536,125.25363 l 0,1002.02901 c 0,69.06423 -56.1941,125.25362 -125.2536,125.25362 l -2338.06773,0 z"
           id="path13" />
        <path
           inkscape:connector-curvature="0"
           style="fill:#ffffff;fill-rule:nonzero;stroke:none"
           d="m 656.82127,194.45659 c -30.6958,0 -55.66828,-24.97187 -55.66828,-55.66828 l 0,-1002.02901 c 0,-30.6958 24.97248,-55.66828 55.66828,-55.66828 l 2338.06763,0 c 30.6949,0 55.6683,24.97248 55.6683,55.66828 l 0,1002.02901 c 0,30.69641 -24.9734,55.66828 -55.6683,55.66828 l -2338.06763,0 z"
           id="path15" />
        <path
           inkscape:connector-curvature="0"
           style="fill:#000000;fill-rule:nonzero;stroke:none"
           d="m 2109.8252,-451.10214 -31.2361,146.49725 60.5392,0 -29.3031,-146.49725 z m 76.1727,367.217344 -31.2515,-148.448754 -91.7908,0 -31.2377,148.448754 -72.2589,0 113.2694,-556.684334 72.2606,0 115.2178,556.684334 -74.2089,0 z"
           id="path17" />
        <path
           inkscape:connector-curvature="0"
           style="fill:#000000;fill-rule:nonzero;stroke:none"
           d="m 1890.37,-140.52882 c -12.1744,40.37961 -49.0793,66.410714 -98.1602,66.410714 -56.9316,0 -92.2717,-23.43944 -109.9387,-74.224374 -15.7077,-46.87888 -23.56,-123.05628 -23.56,-212.90642 0,-50.78648 5.8915,-125.01085 13.7439,-167.98213 15.7046,-85.94409 49.0793,-119.15021 115.8286,-119.15021 62.8232,0 104.0487,39.06521 109.9418,107.4305 l -72.6394,0 c -1.9638,-23.43944 -15.7062,-35.15916 -35.337,-35.15916 -25.5239,0 -39.2662,17.58035 -47.1185,54.69254 -9.8177,44.9243 -11.7785,85.94409 -11.7785,160.16846 0,78.13042 1.9608,111.33655 11.7785,158.21388 7.8523,37.11218 21.5946,56.64557 45.1531,56.64557 25.5224,0 37.3024,-19.53339 37.3024,-68.36374 l 72.6394,0 c 0,42.97127 -1.967,54.69099 -7.8554,74.22437 z"
           id="path19" />
        <path
           inkscape:connector-curvature="0"
           style="fill:#000000;fill-rule:nonzero;stroke:none"
           d="m 2802.7406,-83.884796 0,-259.785304 -99.3215,0 0,259.785304 -70.0956,0 0,-556.682784 70.0956,0 0,224.62614 99.3215,0 0,-224.62614 70.0956,0 0,556.682784 -70.0956,0 z"
           id="path21" />
        <path
           inkscape:connector-curvature="0"
           style="fill:#000000;fill-rule:nonzero;stroke:none"
           d="M 958.02068,-83.884796 848.9758,-413.98841 l 0,330.103614 -70.10183,0 0,-556.682784 70.10183,0 99.30757,277.3641 0,-277.3641 70.10183,0 0,556.682784 -60.36452,0 z"
           id="path23" />
        <path
           inkscape:connector-curvature="0"
           style="fill:#000000;fill-rule:nonzero;stroke:none"
           d="m 1252.3033,-576.1099 c -64.4608,0 -55.6807,173.83966 -55.6807,212.90642 0,37.11218 -8.7801,216.81403 55.6807,216.81403 62.5077,0 53.7261,-179.70185 53.7261,-216.81403 0,-44.92585 -0.9866,-212.90642 -53.7261,-212.90642 z m 0,501.991794 c -138.6867,0 -127.9535,-197.280654 -127.9535,-289.085374 0,-95.70923 -8.7786,-285.17931 127.9535,-285.17931 136.7337,0 127.9535,191.42311 127.9535,285.17931 0,91.80472 8.7802,289.085374 -127.9535,289.085374 z"
           id="path25" />
        <path
           inkscape:connector-curvature="0"
           style="fill:#000000;fill-rule:nonzero;stroke:none"
           d="m 2516.884,-324.13518 c 16.0665,34.49114 27.3702,82.03804 27.3702,121.10016 0,39.06676 -17.5973,80.08501 -44.9676,103.525994 -17.5973,15.62578 -42.5244,25.39247 -71.8585,25.39247 -78.1984,0 -118.7744,-50.783394 -122.6867,-148.448754 l 72.3379,0 c 0,21.48486 1.9638,29.29852 5.8761,41.01979 5.8606,21.48486 22.9631,35.15762 44.4727,35.15762 27.3703,0 44.4883,-21.48642 44.4883,-56.64712 0,-48.83036 -17.118,-89.85015 -60.1218,-140.63508 -25.4218,-29.29852 -42.5398,-50.78493 -48.4004,-58.59705 -31.2825,-37.11373 -44.9676,-76.17894 -44.9676,-115.24261 0,-76.18049 46.4366,-130.87148 112.9138,-130.87148 68.4256,0 105.0893,42.97127 112.9138,130.87148 l -72.3378,0 c -1.9484,-42.97436 -13.2058,-60.55317 -38.6276,-60.55317 -27.3703,0 -42.5244,23.43944 -42.5244,60.55317 0,25.39247 9.2935,44.92585 38.6276,76.1774 60.6011,68.36374 70.8843,81.55712 87.492,117.19718 z"
           id="path27" />
      </g>
    </g>
  </g>
</svg>
