<?xml version="1.0" encoding="UTF-8" standalone="no"?>
<!-- Created with Inkscape (http://www.inkscape.org/) -->

<svg
   xmlns:dc="http://purl.org/dc/elements/1.1/"
   xmlns:cc="http://creativecommons.org/ns#"
   xmlns:rdf="http://www.w3.org/1999/02/22-rdf-syntax-ns#"
   xmlns:svg="http://www.w3.org/2000/svg"
   xmlns="http://www.w3.org/2000/svg"
   xmlns:sodipodi="http://sodipodi.sourceforge.net/DTD/sodipodi-0.dtd"
   xmlns:inkscape="http://www.inkscape.org/namespaces/inkscape"
   version="1.1"
   width="7030"
   height="3250"
   id="svg2816"
   xml:space="preserve"
   inkscape:version="0.48.2 r9819"
   sodipodi:docname="AJAX4.svg"><metadata
     id="metadata81"><rdf:RDF><cc:Work
         rdf:about=""><dc:format>image/svg+xml</dc:format><dc:type
           rdf:resource="http://purl.org/dc/dcmitype/StillImage" /><dc:title></dc:title></cc:Work></rdf:RDF></metadata><sodipodi:namedview
     pagecolor="#ffffff"
     bordercolor="#666666"
     borderopacity="1"
     objecttolerance="10"
     gridtolerance="10"
     guidetolerance="10"
     inkscape:pageopacity="0"
     inkscape:pageshadow="2"
     inkscape:window-width="1280"
     inkscape:window-height="1004"
     id="namedview79"
     showgrid="false"
     fit-margin-top="0"
     fit-margin-left="0"
     fit-margin-right="0"
     fit-margin-bottom="0"
     inkscape:zoom="0.092767296"
     inkscape:cx="2719.6817"
     inkscape:cy="246.16473"
     inkscape:window-x="-8"
     inkscape:window-y="-8"
     inkscape:window-maximized="1"
     inkscape:current-layer="svg2816" /><defs
     id="defs2820"><clipPath
       id="clipPath2832"><path
         d="m -0.24,595.138 317.48,0 0,-595.276 -317.48,0 0,595.276 z"
         id="path2834"
         inkscape:connector-curvature="0" /></clipPath><clipPath
       id="clipPath2840"><path
         d="m 0.03,595.32 317.46,0 0,-595.32 -317.46,0 0,595.32 z"
         id="path2842"
         inkscape:connector-curvature="0" /></clipPath><clipPath
       id="clipPath2858"><path
         d="m -0.24,595.138 317.48,0 0,-595.276 -317.48,0 0,595.276 z"
         id="path2860"
         inkscape:connector-curvature="0" /></clipPath><clipPath
       id="clipPath2864"><path
         d="m 0.03,595.32 317.46,0 0,-595.32 -317.46,0 0,595.32 z"
         id="path2866"
         inkscape:connector-curvature="0" /></clipPath><clipPath
       id="clipPath3306"><path
         d="m 199.238,472.977 0,-29.74 29.744,0 0,29.74"
         id="path3308"
         inkscape:connector-curvature="0" /></clipPath><clipPath
       id="clipPath3322"><path
         d="m -0.24,595.138 317.48,0 0,-595.276 -317.48,0 0,595.276 z"
         id="path3324"
         inkscape:connector-curvature="0" /></clipPath><clipPath
       id="clipPath3330"><path
         d="m 0.03,595.32 317.46,0 0,-595.32 -317.46,0 0,595.32 z"
         id="path3332"
         inkscape:connector-curvature="0" /></clipPath><clipPath
       id="clipPath3344"><path
         d="m 88.233,387.221 0,-28.335 32.08,0 0,28.335"
         id="path3346"
         inkscape:connector-curvature="0" /></clipPath><clipPath
       id="clipPath3462"><path
         d="m -0.24,595.138 317.48,0 0,-595.276 -317.48,0 0,595.276 z"
         id="path3464"
         inkscape:connector-curvature="0" /></clipPath><clipPath
       id="clipPath3470"><path
         d="m 0.03,595.32 317.46,0 0,-595.32 -317.46,0 0,595.32 z"
         id="path3472"
         inkscape:connector-curvature="0" /></clipPath><clipPath
       id="clipPath3490"><path
         d="m -0.24,595.138 317.48,0 0,-595.276 -317.48,0 0,595.276 z"
         id="path3492"
         inkscape:connector-curvature="0" /></clipPath><clipPath
       id="clipPath3496"><path
         d="m 0.03,595.32 317.46,0 0,-595.32 -317.46,0 0,595.32 z"
         id="path3498"
         inkscape:connector-curvature="0" /></clipPath><clipPath
       id="clipPath3520"><path
         d="m 254.788,326.215 0,-28.309 28.326,0 0,28.309"
         id="path3522"
         inkscape:connector-curvature="0" /></clipPath><clipPath
       id="clipPath3544"><path
         d="m 145.049,326.142 0,-28.333 28.342,0 0,28.333"
         id="path3546"
         inkscape:connector-curvature="0" /></clipPath><clipPath
       id="clipPath3682"><path
         d="m -0.24,595.138 317.48,0 0,-595.276 -317.48,0 0,595.276 z"
         id="path3684"
         inkscape:connector-curvature="0" /></clipPath><clipPath
       id="clipPath3690"><path
         d="m 0.03,595.32 317.46,0 0,-595.32 -317.46,0 0,595.32 z"
         id="path3692"
         inkscape:connector-curvature="0" /></clipPath><clipPath
       id="clipPath3980"><path
         d="m -0.24,595.138 317.48,0 0,-595.276 -317.48,0 0,595.276 z"
         id="path3982"
         inkscape:connector-curvature="0" /></clipPath><clipPath
       id="clipPath3988"><path
         d="m 0.03,595.32 317.46,0 0,-595.32 -317.46,0 0,595.32 z"
         id="path3990"
         inkscape:connector-curvature="0" /></clipPath><clipPath
       id="clipPath4010"><path
         d="m -0.24,595.138 317.48,0 0,-595.276 -317.48,0 0,595.276 z"
         id="path4012"
         inkscape:connector-curvature="0" /></clipPath><clipPath
       id="clipPath4016"><path
         d="m 0.03,595.32 317.46,0 0,-595.32 -317.46,0 0,595.32 z"
         id="path4018"
         inkscape:connector-curvature="0" /></clipPath><clipPath
       id="clipPath4062"><path
         d="m 200.163,177.773 0,-28.284 28.283,0 0,28.284"
         id="path4064"
         inkscape:connector-curvature="0" /></clipPath><clipPath
       id="clipPath4090"><path
         d="m 34.886,177.515 0,-51.632 30.367,0 0,51.632"
         id="path4092"
         inkscape:connector-curvature="0" /></clipPath><clipPath
       id="clipPath4106"><path
         d="m 34.886,177.515 0,-51.632 30.367,0 0,51.632"
         id="path4108"
         inkscape:connector-curvature="0" /></clipPath><clipPath
       id="clipPath4272"><path
         d="m 34.886,177.515 0,-51.632 30.367,0 0,51.632"
         id="path4274"
         inkscape:connector-curvature="0" /></clipPath><clipPath
       id="clipPath4304"><path
         d="m 254.653,176.442 0,-48.167 28.317,0 0,48.167"
         id="path4306"
         inkscape:connector-curvature="0" /></clipPath><clipPath
       id="clipPath4310"><path
         d="m 253.565,177.983 31.181,0 0,-49.183 -31.181,0 0,49.183 z"
         id="path4312"
         inkscape:connector-curvature="0" /></clipPath><clipPath
       id="clipPath4316"><path
         d="m -0.24,595.138 317.48,0 0,-595.276 -317.48,0 0,595.276 z"
         id="path4318"
         inkscape:connector-curvature="0" /></clipPath><clipPath
       id="clipPath4322"><path
         d="m 0.03,595.32 317.46,0 0,-595.32 -317.46,0 0,595.32 z"
         id="path4324"
         inkscape:connector-curvature="0" /></clipPath><clipPath
       id="clipPath4456"><path
         d="m -0.24,595.138 317.48,0 0,-595.276 -317.48,0 0,595.276 z"
         id="path4458"
         inkscape:connector-curvature="0" /></clipPath><clipPath
       id="clipPath4464"><path
         d="m 0.03,595.32 317.46,0 0,-595.32 -317.46,0 0,595.32 z"
         id="path4466"
         inkscape:connector-curvature="0" /></clipPath></defs><path
     inkscape:connector-curvature="0"
     style="fill:#ffffff;fill-rule:nonzero;stroke:#000000;stroke-width:10;stroke-linecap:butt;stroke-linejoin:miter;stroke-miterlimit:4;stroke-opacity:1;stroke-dasharray:none"
     d="m 7025,3042.5 c 0,111.8375 -90.6625,202.5 -202.5,202.5 l -6615,0 C 95.662875,3245 5,3154.3375 5,3042.5 L 5,207.5 C 5,95.6629 95.662875,5 207.50125,5 L 6822.5,5 C 6934.3375,5 7025,95.6629 7025,207.5 l 0,2835 z"
     id="path11" /><path
     inkscape:connector-curvature="0"
     style="fill:#000000;fill-rule:nonzero;stroke:none"
     d="m 207.5,3188.7488 c -80.64212,0 -146.25,-65.6125 -146.25,-146.25 L 61.25,207.5 c 0,-80.6421 65.60788,-146.2487 146.25,-146.25 l 6615,0 c 80.6375,0 146.25,65.6091 146.25,146.2512 l 0,2834.9988 c 0,80.6375 -65.6125,146.25 -146.25,146.25 l -6615,0 z"
     id="path13" /><path
     inkscape:connector-curvature="0"
     style="fill:#ffffff;fill-rule:nonzero;stroke:none"
     d="m 207.5,3110 c -37.21875,0 -67.5,-30.2875 -67.5,-67.5 l 0,-2835 c 0,-37.22 30.28125,-67.5 67.5,-67.5 l 6615,0 c 37.2125,0 67.5,30.28 67.5,67.5 l 0,2834.9988 c 0,37.2125 -30.2875,67.5 -67.5,67.5 l -6615,0 z"
     id="path15" /><path
     inkscape:connector-curvature="0"
     style="fill:#000000;fill-rule:nonzero;stroke:none"
     d="m 5604.0875,1355 -275.3876,-487.5775 0,487.5775 -113.6875,0 0,-719.99875 113.6875,0 262.75,459.79255 0,-459.79255 113.7001,0 0,719.99875 -101.0625,0 z"
     id="path17" /><path
     inkscape:connector-curvature="0"
     style="fill:#000000;fill-rule:nonzero;stroke:none"
     d="m 1318.0125,1355 0,-719.99875 115.2,0 0,719.99875 -115.2,0 z"
     id="path19" /><path
     inkscape:connector-curvature="0"
     style="fill:#000000;fill-rule:nonzero;stroke:none"
     d="m 4004.8625,1355 0,-720.00375 113.5375,0 0,613.90375 333.0375,0 0,106.1 -446.575,0 z"
     id="path21" /><path
     inkscape:connector-curvature="0"
     style="fill:#000000;fill-rule:nonzero;stroke:none"
     d="m 3117.4001,736.055 0,618.945 -114.1751,0 0,-618.945 -164.9375,0 0,-101.055 446.575,0 0,101.055 -167.4624,0 z"
     id="path23" /><path
     inkscape:connector-curvature="0"
     style="fill:#000000;fill-rule:nonzero;stroke:none"
     d="m 1021.2763,761.31875 c -17.6801,-10.1075 -27.78755,-12.6325 -65.68505,-12.6325 l -136.43125,0 0,176.84125 136.43125,0 c 35.3725,0 48.00495,-2.525 65.68505,-12.6275 27.7987,-15.16125 45.4837,-45.4775 45.4837,-75.79 0,-30.3175 -17.685,-60.635 -45.4837,-75.79125 z M 1071.8088,1355 955.59125,1041.7363 l -136.43125,0 0,313.2637 -113.68875,0 0,-720 237.485,0 c 55.58625,0 93.48375,5.05375 128.85255,22.73875 63.165,30.3175 108.64,106.10375 108.64,179.37125 0,75.79 -45.475,151.57625 -111.1638,181.8938 L 1195.6125,1355 l -123.8037,0 z"
     id="path25" /><path
     inkscape:connector-curvature="0"
     style="fill:#000000;fill-rule:nonzero;stroke:none"
     d="m 2616.6001,1355 0,-313.2625 -262.7625,0 0,313.2625 -113.6875,0 0,-719.99875 113.6875,0 0,290.525 262.7625,0 0,-290.525 113.6875,0 0,719.99875 -113.6875,0 z"
     id="path27" /><path
     inkscape:connector-curvature="0"
     style="fill:#000000;fill-rule:nonzero;stroke:none"
     d="m 5877.9499,1355 0,-719.99875 423.875,0 0,113.68375 -310.3374,0 0,176.845 209.4124,0 0,116.2113 -209.4124,0 0,197.0512 333.0374,0 0,116.2075 -446.575,0 z"
     id="path29" /><path
     inkscape:connector-curvature="0"
     style="fill:#000000;fill-rule:nonzero;stroke:none"
     d="m 4802.0999,834.58125 -73.6875,202.10745 144.8375,0 -71.15,-202.10745 z M 4985.0374,1355 4913.9,1152.8988 l -226.1376,0 -71.1499,202.1012 -121.9625,0 249,-719.99875 114.35,0 249,719.99875 -121.9625,0 z"
     id="path31" /><path
     inkscape:connector-curvature="0"
     style="fill:#000000;fill-rule:nonzero;stroke:none"
     d="m 1854.3626,1367.6375 c -108.6376,0 -171.8001,-40.425 -214.7501,-131.3712 -30.3125,-63.1576 -48,-151.58 -48,-240.00005 0,-116.21125 32.8375,-229.89625 80.8375,-293.055 C 1715.4125,650.16 1776.0501,622.37 1856.9,622.37 c 111.1626,0 176.8501,45.47625 224.8501,159.16125 l -108.6375,42.945 C 1942.7875,761.3175 1912.475,738.58 1856.9001,738.58 c -58.1126,0 -96.0125,25.26375 -121.2751,88.425 -17.6875,42.945 -27.8001,108.63 -27.8001,169.26125 0,75.79125 12.6376,151.58005 35.3752,197.05255 22.7374,40.42 55.5875,58.1075 98.5374,58.1075 73.2625,0 126.325,-45.475 126.325,-111.1588 l 0,-30.3175 -131.3875,0 0,-113.68375 245.075,0 0,144.00125 c 0,131.37 -96,227.37 -227.3875,227.37 z"
     id="path33" /><path
     inkscape:connector-curvature="0"
     style="fill:#000000;fill-rule:nonzero;stroke:none"
     d="m 5276.4875,2615 0,-720 115.2001,0 0,720 -115.2001,0 z"
     id="path35" /><path
     inkscape:connector-curvature="0"
     style="fill:#000000;fill-rule:nonzero;stroke:none"
     d="m 1531.7875,2615 0,-416.8375 L 1364.725,2615 l -167.0712,-416.8375 0,416.8375 -113.9113,0 0,-720 113.9113,0 167.0712,404.2125 167.0625,-404.2125 113.9125,0 0,720 -113.9125,0 z"
     id="path37" /><path
     inkscape:connector-curvature="0"
     style="fill:#000000;fill-rule:nonzero;stroke:none"
     d="m 2275.8126,2506.375 c -37.9002,70.7375 -123.8,121.2625 -212.225,121.2625 -88.4375,0 -174.3375,-50.525 -212.2375,-121.2625 -20.2,-42.95 -32.8375,-93.475 -32.8375,-149.05 l 0,-462.325 113.6875,0 0,462.325 c 0,93.475 53.0625,154.1 131.3875,154.1 78.3125,0 131.375,-60.625 131.375,-154.1 l 0,-462.325 113.6875,0 0,462.325 c 0,55.575 -12.6375,106.1 -32.8375,149.05 z"
     id="path39" /><path
     inkscape:connector-curvature="0"
     style="fill:#000000;fill-rule:nonzero;stroke:none"
     d="m 3257.9001,1996.0625 0,618.9375 -114.1751,0 0,-618.9375 -164.9375,0 0,-101.0625 446.575,0 0,101.0625 -167.4624,0 z"
     id="path41" /><path
     inkscape:connector-curvature="0"
     style="fill:#000000;fill-rule:nonzero;stroke:none"
     d="m 5778.7876,1996.05 0,618.95 -114.1751,0 0,-618.95 -164.9375,0 0,-101.05 446.5874,0 0,101.05 -167.4748,0 z"
     id="path43" /><path
     inkscape:connector-curvature="0"
     style="fill:#000000;fill-rule:nonzero;stroke:none"
     d="m 2850.4501,2571.175 c -40.4251,35.3625 -96.0125,55.575 -156.6376,55.575 -123.7999,0 -214.75,-73.2625 -262.7625,-181.8875 l 108.6375,-40.425 c 30.3251,68.2125 85.9001,106.1 154.125,106.1 65.6876,0 111.1626,-45.475 111.1626,-106.1 0,-96 -111.1625,-111.15 -204.65,-149.05 -42.9501,-17.6875 -138.9501,-60.6375 -138.9501,-179.375 0,-141.475 96,-194.525 224.8501,-194.525 101.0624,0 169.2749,58.1125 204.6499,146.525 l -101.0625,30.3125 c 0,0 -25.2625,-60.625 -106.1125,-63.15 -53.05,-2.525 -116.2249,17.6875 -111.1624,83.375 10.1124,133.8875 348.6499,45.4625 348.6499,328.4125 0,65.6875 -25.2625,123.7875 -70.7375,164.2125 z"
     id="path45" /><path
     inkscape:connector-curvature="0"
     style="fill:#000000;fill-rule:nonzero;stroke:none"
     d="m 5025.2375,2615 -116.2251,-240 -116.2125,240 -128.85,0 179.375,-371.3625 -166.75,-348.6375 128.8501,0 103.5874,214.7375 103.5875,-214.7375 128.85,0 -169.2749,348.6375 181.9125,371.3625 -128.85,0 z"
     id="path47" /><path
     inkscape:connector-curvature="0"
     style="fill:#000000;fill-rule:nonzero;stroke:none"
     d="m 4145.3625,2615 0,-720 423.875,0 0,113.6875 -310.3375,0 0,176.85 209.425,0 0,116.2 -209.425,0 0,197.0625 333.05,0 0,116.2 -446.5875,0 z"
     id="path49" /></svg>