<?xml version="1.0" encoding="UTF-8" standalone="no"?>
<!-- Created with Inkscape (http://www.inkscape.org/) -->

<svg
   xmlns:dc="http://purl.org/dc/elements/1.1/"
   xmlns:cc="http://creativecommons.org/ns#"
   xmlns:rdf="http://www.w3.org/1999/02/22-rdf-syntax-ns#"
   xmlns:svg="http://www.w3.org/2000/svg"
   xmlns="http://www.w3.org/2000/svg"
   xmlns:sodipodi="http://sodipodi.sourceforge.net/DTD/sodipodi-0.dtd"
   xmlns:inkscape="http://www.inkscape.org/namespaces/inkscape"
   version="1.1"
   width="2170"
   height="1630"
   id="svg2816"
   xml:space="preserve"
   inkscape:version="0.48.2 r9819"
   sodipodi:docname="AJAX3.svg"><metadata
     id="metadata81"><rdf:RDF><cc:Work
         rdf:about=""><dc:format>image/svg+xml</dc:format><dc:type
           rdf:resource="http://purl.org/dc/dcmitype/StillImage" /><dc:title></dc:title></cc:Work></rdf:RDF></metadata><sodipodi:namedview
     pagecolor="#ffffff"
     bordercolor="#666666"
     borderopacity="1"
     objecttolerance="10"
     gridtolerance="10"
     guidetolerance="10"
     inkscape:pageopacity="0"
     inkscape:pageshadow="2"
     inkscape:window-width="1280"
     inkscape:window-height="1004"
     id="namedview79"
     showgrid="false"
     fit-margin-top="0"
     fit-margin-left="0"
     fit-margin-right="0"
     fit-margin-bottom="0"
     inkscape:zoom="0.18553459"
     inkscape:cx="1010.1953"
     inkscape:cy="1582.5637"
     inkscape:window-x="-8"
     inkscape:window-y="-8"
     inkscape:window-maximized="1"
     inkscape:current-layer="svg2816" /><defs
     id="defs2820"><clipPath
       id="clipPath2832"><path
         d="m -0.24,595.138 317.48,0 0,-595.276 -317.48,0 0,595.276 z"
         id="path2834"
         inkscape:connector-curvature="0" /></clipPath><clipPath
       id="clipPath2840"><path
         d="m 0.03,595.32 317.46,0 0,-595.32 -317.46,0 0,595.32 z"
         id="path2842"
         inkscape:connector-curvature="0" /></clipPath><clipPath
       id="clipPath2858"><path
         d="m -0.24,595.138 317.48,0 0,-595.276 -317.48,0 0,595.276 z"
         id="path2860"
         inkscape:connector-curvature="0" /></clipPath><clipPath
       id="clipPath2864"><path
         d="m 0.03,595.32 317.46,0 0,-595.32 -317.46,0 0,595.32 z"
         id="path2866"
         inkscape:connector-curvature="0" /></clipPath><clipPath
       id="clipPath3306"><path
         d="m 199.238,472.977 0,-29.74 29.744,0 0,29.74"
         id="path3308"
         inkscape:connector-curvature="0" /></clipPath><clipPath
       id="clipPath3322"><path
         d="m -0.24,595.138 317.48,0 0,-595.276 -317.48,0 0,595.276 z"
         id="path3324"
         inkscape:connector-curvature="0" /></clipPath><clipPath
       id="clipPath3330"><path
         d="m 0.03,595.32 317.46,0 0,-595.32 -317.46,0 0,595.32 z"
         id="path3332"
         inkscape:connector-curvature="0" /></clipPath><clipPath
       id="clipPath3344"><path
         d="m 88.233,387.221 0,-28.335 32.08,0 0,28.335"
         id="path3346"
         inkscape:connector-curvature="0" /></clipPath><clipPath
       id="clipPath3462"><path
         d="m -0.24,595.138 317.48,0 0,-595.276 -317.48,0 0,595.276 z"
         id="path3464"
         inkscape:connector-curvature="0" /></clipPath><clipPath
       id="clipPath3470"><path
         d="m 0.03,595.32 317.46,0 0,-595.32 -317.46,0 0,595.32 z"
         id="path3472"
         inkscape:connector-curvature="0" /></clipPath><clipPath
       id="clipPath3490"><path
         d="m -0.24,595.138 317.48,0 0,-595.276 -317.48,0 0,595.276 z"
         id="path3492"
         inkscape:connector-curvature="0" /></clipPath><clipPath
       id="clipPath3496"><path
         d="m 0.03,595.32 317.46,0 0,-595.32 -317.46,0 0,595.32 z"
         id="path3498"
         inkscape:connector-curvature="0" /></clipPath><clipPath
       id="clipPath3520"><path
         d="m 254.788,326.215 0,-28.309 28.326,0 0,28.309"
         id="path3522"
         inkscape:connector-curvature="0" /></clipPath><clipPath
       id="clipPath3544"><path
         d="m 145.049,326.142 0,-28.333 28.342,0 0,28.333"
         id="path3546"
         inkscape:connector-curvature="0" /></clipPath><clipPath
       id="clipPath3682"><path
         d="m -0.24,595.138 317.48,0 0,-595.276 -317.48,0 0,595.276 z"
         id="path3684"
         inkscape:connector-curvature="0" /></clipPath><clipPath
       id="clipPath3690"><path
         d="m 0.03,595.32 317.46,0 0,-595.32 -317.46,0 0,595.32 z"
         id="path3692"
         inkscape:connector-curvature="0" /></clipPath><clipPath
       id="clipPath3980"><path
         d="m -0.24,595.138 317.48,0 0,-595.276 -317.48,0 0,595.276 z"
         id="path3982"
         inkscape:connector-curvature="0" /></clipPath><clipPath
       id="clipPath3988"><path
         d="m 0.03,595.32 317.46,0 0,-595.32 -317.46,0 0,595.32 z"
         id="path3990"
         inkscape:connector-curvature="0" /></clipPath><clipPath
       id="clipPath4010"><path
         d="m -0.24,595.138 317.48,0 0,-595.276 -317.48,0 0,595.276 z"
         id="path4012"
         inkscape:connector-curvature="0" /></clipPath><clipPath
       id="clipPath4016"><path
         d="m 0.03,595.32 317.46,0 0,-595.32 -317.46,0 0,595.32 z"
         id="path4018"
         inkscape:connector-curvature="0" /></clipPath><clipPath
       id="clipPath4062"><path
         d="m 200.163,177.773 0,-28.284 28.283,0 0,28.284"
         id="path4064"
         inkscape:connector-curvature="0" /></clipPath><clipPath
       id="clipPath4090"><path
         d="m 34.886,177.515 0,-51.632 30.367,0 0,51.632"
         id="path4092"
         inkscape:connector-curvature="0" /></clipPath><clipPath
       id="clipPath4106"><path
         d="m 34.886,177.515 0,-51.632 30.367,0 0,51.632"
         id="path4108"
         inkscape:connector-curvature="0" /></clipPath><clipPath
       id="clipPath4272"><path
         d="m 34.886,177.515 0,-51.632 30.367,0 0,51.632"
         id="path4274"
         inkscape:connector-curvature="0" /></clipPath><clipPath
       id="clipPath4304"><path
         d="m 254.653,176.442 0,-48.167 28.317,0 0,48.167"
         id="path4306"
         inkscape:connector-curvature="0" /></clipPath><clipPath
       id="clipPath4310"><path
         d="m 253.565,177.983 31.181,0 0,-49.183 -31.181,0 0,49.183 z"
         id="path4312"
         inkscape:connector-curvature="0" /></clipPath><clipPath
       id="clipPath4316"><path
         d="m -0.24,595.138 317.48,0 0,-595.276 -317.48,0 0,595.276 z"
         id="path4318"
         inkscape:connector-curvature="0" /></clipPath><clipPath
       id="clipPath4322"><path
         d="m 0.03,595.32 317.46,0 0,-595.32 -317.46,0 0,595.32 z"
         id="path4324"
         inkscape:connector-curvature="0" /></clipPath><clipPath
       id="clipPath4456"><path
         d="m -0.24,595.138 317.48,0 0,-595.276 -317.48,0 0,595.276 z"
         id="path4458"
         inkscape:connector-curvature="0" /></clipPath><clipPath
       id="clipPath4464"><path
         d="m 0.03,595.32 317.46,0 0,-595.32 -317.46,0 0,595.32 z"
         id="path4466"
         inkscape:connector-curvature="0" /></clipPath></defs><path
     inkscape:connector-curvature="0"
     style="fill:#ffffff;fill-rule:nonzero;stroke:#000000;stroke-width:10;stroke-linecap:butt;stroke-linejoin:miter;stroke-miterlimit:4;stroke-opacity:1;stroke-dasharray:none"
     d="m 2165,1490 c 0,74.5625 -60.4375,135 -135,135 l -1890,0 C 65.440625,1625 5,1564.5625 5,1490 L 5,140 C 5,65.440625 65.440625,5 140,5 l 1890,0 c 74.5625,0 135,60.440625 135,135 l 0,1350 z"
     id="path11" /><path
     inkscape:connector-curvature="0"
     style="fill:#000000;fill-rule:nonzero;stroke:none"
     d="M 140,1591.25 C 84.169875,1591.25 38.75,1545.825 38.75,1490 l 0,-1350 C 38.75,84.169875 84.169875,38.75 140,38.75 l 1890,0 c 55.825,0 101.25,45.419875 101.25,101.25 l 0,1350 c 0,55.825 -45.425,101.25 -101.25,101.25 l -1890,0 z"
     id="path13" /><path
     inkscape:connector-curvature="0"
     style="fill:#ffffff;fill-rule:nonzero;stroke:none"
     d="m 140,1535 c -24.81325,0 -45,-20.1875 -45,-45 L 95,140 c 0,-24.81325 20.18675,-45 45,-45 l 1890,0 c 24.8125,0 45,20.18675 45,45 l 0,1350 c 0,24.8125 -20.1875,45 -45,45 l -1890,0 z"
     id="path15" /><path
     inkscape:connector-curvature="0"
     style="fill:#000000;fill-rule:nonzero;stroke:none"
     d="M 937.89125,427.36875 912.56,530.9475 l 51.92625,0 -26.595,-103.57875 z M 1002.4763,680 l -25.32755,-98.52625 -77.2525,0 L 875.835,680 l -51.92375,0 89.9175,-360 50.6575,0 89.91495,360 -51.9249,0 z"
     id="path17" /><path
     inkscape:connector-curvature="0"
     style="fill:#000000;fill-rule:nonzero;stroke:none"
     d="m 1367.6875,680 0,-360 169.7626,0 0,50.52625 -117.8251,0 0,90.9475 74.75,0 0,49.26375 -74.75,0 0,118.73625 131.75,0 0,50.52625 -183.6875,0 z"
     id="path19" /><path
     inkscape:connector-curvature="0"
     style="fill:#000000;fill-rule:nonzero;stroke:none"
     d="m 1252.2875,680.00125 -63.03,-175.58 -32.775,60.6325 0,114.9475 -51.6825,0 0,-360.00125 51.6825,0 0,144.00125 L 1238.42,320 l 59.2425,0 -74.3687,126.31625 83.1937,233.685 -54.2,0 z"
     id="path21" /><path
     inkscape:connector-curvature="0"
     style="fill:#000000;fill-rule:nonzero;stroke:none"
     d="m 736.435,368 0,312 -51.93875,0 0,-312 -65.87625,0 0,-48 183.69125,0 0,48 -65.87625,0 z"
     id="path23" /><path
     inkscape:connector-curvature="0"
     style="fill:#000000;fill-rule:nonzero;stroke:none"
     d="m 944.74625,1046.0013 c -5.07375,-35.3688 -19.0275,-51.79255 -43.12875,-51.79255 -41.86,0 -57.08125,32.84505 -57.08125,126.31875 0,103.5788 17.7575,145.26 62.15625,145.26 30.4425,0 38.05375,-25.26 38.05375,-51.7887 l 52.0075,0 c -1.2675,59.3762 -39.3225,102.3137 -90.06125,102.3137 -77.37875,0 -111.6275,-61.8875 -111.6275,-194.5225 0,-116.2113 36.785,-178.10625 107.82125,-178.10625 29.17375,0 54.545,12.6325 71.03625,36.63125 13.9525,17.685 19.02625,32.8437 22.83125,65.6862 l -52.0075,0 z"
     id="path25" /><path
     inkscape:connector-curvature="0"
     style="fill:#000000;fill-rule:nonzero;stroke:none"
     d="m 672.665,1310 0,-360 50.4,0 0,360 -50.4,0 z"
     id="path27" /><path
     inkscape:connector-curvature="0"
     style="fill:#000000;fill-rule:nonzero;stroke:none"
     d="m 1331.65,1310 0,-360 169.7501,0 0,50.5275 -117.8126,0 0,90.9475 74.7376,0 0,49.2625 -74.7376,0 0,118.7375 131.75,0 0,50.525 -183.6875,0 z"
     id="path29" /><path
     inkscape:connector-curvature="0"
     style="fill:#000000;fill-rule:nonzero;stroke:none"
     d="m 1216.2426,1310 -63.03,-175.5788 -32.775,60.6326 0,114.9462 -51.6838,0 0,-360 51.6838,0 0,144.0013 81.9375,-144.0013 59.25,0 -74.3763,126.3162 83.2013,233.6838 -54.2075,0 z"
     id="path31" /><path
     inkscape:connector-curvature="0"
     style="fill:#000000;fill-rule:nonzero;stroke:none"
     d="m 556.38875,998 0,312 -51.93875,0 0,-312 -65.87625,0 0,-48 183.6925,0 0,48 -65.8775,0 z"
     id="path33" /><path
     inkscape:connector-curvature="0"
     style="fill:#000000;fill-rule:nonzero;stroke:none"
     d="m 1665.5501,998 0,312 -51.9375,0 0,-312 -65.875,0 0,-48 183.6875,0 0,48 -65.875,0 z"
     id="path35" /></svg>