<?xml version="1.0" encoding="UTF-8" standalone="no"?>
<!-- Created with Inkscape (http://www.inkscape.org/) -->

<svg
   xmlns:dc="http://purl.org/dc/elements/1.1/"
   xmlns:cc="http://creativecommons.org/ns#"
   xmlns:rdf="http://www.w3.org/1999/02/22-rdf-syntax-ns#"
   xmlns:svg="http://www.w3.org/2000/svg"
   xmlns="http://www.w3.org/2000/svg"
   xmlns:sodipodi="http://sodipodi.sourceforge.net/DTD/sodipodi-0.dtd"
   xmlns:inkscape="http://www.inkscape.org/namespaces/inkscape"
   width="2169.9915"
   height="2169.9915"
   id="svg2934"
   version="1.1"
   inkscape:version="0.48.2 r9819"
   sodipodi:docname="MUTCD M4-16.svg">
  <defs
     id="defs2936">
    <inkscape:perspective
       sodipodi:type="inkscape:persp3d"
       inkscape:vp_x="0 : 526.18109 : 1"
       inkscape:vp_y="0 : 1000 : 0"
       inkscape:vp_z="744.09448 : 526.18109 : 1"
       inkscape:persp3d-origin="372.04724 : 350.78739 : 1"
       id="perspective2942" />
    <inkscape:perspective
       id="perspective2924"
       inkscape:persp3d-origin="0.5 : 0.33333333 : 1"
       inkscape:vp_z="1 : 0.5 : 1"
       inkscape:vp_y="0 : 1000 : 0"
       inkscape:vp_x="0 : 0.5 : 1"
       sodipodi:type="inkscape:persp3d" />
    <clipPath
       id="Clip0">
      <path
         inkscape:connector-curvature="0"
         d="m 0,0 0,1296.5 864.5,0 L 864.5,0 0,0 z"
         transform="translate(0,0.5)"
         id="path7" />
    </clipPath>
  </defs>
  <sodipodi:namedview
     id="base"
     pagecolor="#ffffff"
     bordercolor="#666666"
     borderopacity="1.0"
     inkscape:pageopacity="0.0"
     inkscape:pageshadow="2"
     inkscape:zoom="0.17376232"
     inkscape:cx="781.94637"
     inkscape:cy="313.4469"
     inkscape:document-units="px"
     inkscape:current-layer="g2909"
     showgrid="false"
     inkscape:window-width="1280"
     inkscape:window-height="1004"
     inkscape:window-x="-8"
     inkscape:window-y="-8"
     inkscape:window-maximized="1"
     fit-margin-top="0"
     fit-margin-left="0"
     fit-margin-right="0"
     fit-margin-bottom="0" />
  <metadata
     id="metadata2939">
    <rdf:RDF>
      <cc:Work
         rdf:about="">
        <dc:format>image/svg+xml</dc:format>
        <dc:type
           rdf:resource="http://purl.org/dc/dcmitype/StillImage" />
        <dc:title></dc:title>
      </cc:Work>
    </rdf:RDF>
  </metadata>
  <g
     inkscape:label="Ebene 1"
     inkscape:groupmode="layer"
     id="layer1"
     transform="translate(-222.83952,2091.8344)">
    <g
       id="g3018"
       transform="translate(2,-2)">
      <g
         id="g2909"
         transform="matrix(0.80835983,0,0,0.80835983,-165.10178,-177.02766)">
        <path
           inkscape:connector-curvature="0"
           style="fill:#ffffff;fill-rule:nonzero;stroke:#000000;stroke-width:12.37072849;stroke-miterlimit:4;stroke-opacity:1;stroke-dasharray:none"
           d="m 3155.7024,144.96388 c 0,92.2393 -74.7656,167.0049 -167.0049,167.0049 l -2338.06767,0 c -92.23383,0 -167.00483,-74.7656 -167.00483,-167.0049 l 0,-2338.06768 c 0,-92.2338 74.771,-167.0048 167.00483,-167.0048 l 2338.06767,0 c 92.2393,0 167.0049,74.771 167.0049,167.0048 l 0,2338.06768 z"
           id="path11" />
        <path
           inkscape:connector-curvature="0"
           style="fill:#661f5c;fill-rule:nonzero;stroke:none"
           d="m 650.62984,256.30046 c -61.3916,0 -111.33656,-49.9468 -111.33656,-111.3366 l 0,-2338.06766 c 0,-61.3916 49.94496,-111.3365 111.33656,-111.3365 l 2338.06766,0 c 61.3898,0 111.3366,49.9449 111.3366,111.3365 l 0,2338.06766 c 0,61.3898 -49.9468,111.3366 -111.3366,111.3366 l -2338.06766,0 z"
           id="path13" />
        <path
           inkscape:connector-curvature="0"
           style="fill:#ffffff;fill-rule:nonzero;stroke:none"
           d="m 2933.0292,-1024.0745 -2226.73109,0 0,-1002.029 2226.73109,0 0,1002.029 z"
           id="path15" />
        <path
           inkscape:connector-curvature="0"
           style="fill:#ffffff;fill-rule:evenodd;stroke:none"
           d="m 2821.6927,-77.70909 c 0,30.74126 -24.927,55.66828 -55.6683,55.66828 l -1892.72146,0 c -30.74435,0 -55.66827,-24.92702 -55.66827,-55.66828 l 0,-556.68278 c 0,-30.74126 24.92392,-55.66828 55.66827,-55.66828 l 1892.72146,0 c 30.7413,0 55.6683,24.92702 55.6683,55.66828 l 0,556.68278 z"
           id="path73" />
        <path
           inkscape:connector-curvature="0"
           style="fill:#000000;fill-rule:nonzero;stroke:none"
           d="m 1719.4098,-133.37749 -170.3388,-301.5829 0,301.5829 -70.323,0 0,-445.34625 70.323,0 162.522,284.40307 0,-284.40307 70.323,0 0,445.34625 -62.5062,0 z"
           id="path75" />
        <path
           inkscape:connector-curvature="0"
           style="fill:#000000;fill-rule:nonzero;stroke:none"
           d="m 1283.6555,-480.28365 c -14.098,-23.44253 -31.3289,-32.81335 -57.9569,-34.37516 -34.4633,-1.5618 -56.3935,15.63351 -72.0564,54.69409 -10.9666,26.56614 -17.2309,67.18852 -17.2309,104.68729 0,46.88506 9.3971,95.33192 26.6265,123.45987 14.1011,23.42706 32.8968,34.37516 61.0928,34.37516 32.8953,0 53.2576,-17.19531 68.9235,-56.25589 9.3987,-23.44253 17.2309,-67.18852 17.2309,-101.57914 0,-49.99321 -9.3986,-95.31647 -26.6295,-125.00622 z m 48.5582,304.70651 c -25.0647,34.39063 -61.0913,50.00867 -108.0831,50.00867 -62.6577,0 -101.8204,-25.00433 -128.4483,-79.68295 -18.7958,-37.51424 -31.3258,-96.89373 -31.3258,-150.02601 0,-73.43574 18.7942,-139.06246 48.5582,-181.2621 26.6295,-34.37521 62.6577,-49.99321 114.3473,-49.99321 56.3935,0 95.553,25.0043 123.7505,79.68296 18.7943,39.07603 29.7609,95.33192 29.7609,151.57235 0,70.32759 -17.2309,140.63972 -48.5597,179.70029 z"
           id="path77" />
        <path
           inkscape:connector-curvature="0"
           style="fill:#000000;fill-rule:nonzero;stroke:none"
           d="m 1888.8037,-133.37749 0,-445.34625 70.2255,0 0,379.71953 205.9943,0 0,65.62672 -276.2198,0 z"
           id="path79" />
        <path
           inkscape:connector-curvature="0"
           style="fill:#000000;fill-rule:nonzero;stroke:none"
           d="m 2419.4894,-327.14949 0,193.772 -70.6833,0 0,-193.772 -157.0618,-251.57425 84.8168,0 106.8058,171.8913 108.3676,-171.8913 83.2395,0 -155.4846,251.57425 z"
           id="path81" />
        <path
           inkscape:connector-curvature="0"
           style="fill:#000000;fill-rule:nonzero;stroke:none"
           d="m 841.37719,-1742.8355 -23.74252,102.6647 186.20423,0 -102.29512,443.52 119.53212,0 102.2967,-443.52 308.4873,0 23.673,-102.6647 -614.15571,0 z"
           id="path31" />
        <path
           inkscape:connector-curvature="0"
           style="fill:#000000;fill-rule:nonzero;stroke:none"
           d="m 1229.4361,-1431.8029 c -6.9539,0 -16.0773,-0.9819 -19.9153,-5.7942 -4.6267,-5.8668 -5.0658,-19.2643 -1.1598,-35.9137 11.8806,-52.3344 43.2991,-52.3344 53.6519,-52.3344 6.875,0 15.9984,1.002 19.8364,5.8668 4.636,5.7772 4.9963,19.1778 1.1583,35.7885 -12.0198,52.387 -43.2203,52.387 -53.5715,52.387 z m 150.0044,-149.29 c -22.2967,-28.046 -59.8697,-43.5542 -105.6259,-43.5542 -67.9107,0 -155.7985,36.8277 -179.6215,140.4572 -12.5996,54.7065 2.7494,88.7214 17.8077,107.6192 22.3044,28.097 59.8759,43.5187 105.6336,43.5187 68.053,0 155.8682,-36.8107 179.47,-140.4588 12.6722,-54.5116 -2.6072,-88.5806 -17.6639,-107.5821 z"
           id="path33" />
        <path
           inkscape:connector-curvature="0"
           style="fill:#000000;fill-rule:nonzero;stroke:none"
           d="m 1484.7123,-1853.5257 -133.2853,581.3237 114.6782,0 133.3549,-581.3237 -114.7478,0 z"
           id="path35" />
        <path
           inkscape:connector-curvature="0"
           style="fill:#000000;fill-rule:nonzero;stroke:none"
           d="m 1616.0369,-1853.5257 -133.3534,581.3237 114.6767,0 133.5033,-581.3237 -114.8266,0 z"
           id="path37" />
        <path
           inkscape:connector-curvature="0"
           style="fill:#000000;fill-rule:nonzero;stroke:none"
           d="m 2668.2648,-1426.5871 c -20.3344,0 -25.3446,-3.9849 -23.8755,-5.1447 l 0.2783,-1.1953 c 5.9998,1.2649 11.9377,2.4247 17.6592,3.4777 3.7576,0.7902 8.2575,1.6175 12.7573,2.5654 -2.0411,0.2103 -4.3607,0.2969 -6.8193,0.2969 z m -262.6461,0 c -20.3498,0 -25.2672,-3.9849 -23.8136,-4.9344 l 0.3402,-1.4056 c 5.9379,1.2649 11.814,2.4247 17.5355,3.4777 3.8349,0.7902 8.2574,1.6175 12.7264,2.5654 -2.0103,0.2103 -4.3298,0.2969 -6.7885,0.2969 z m -142.9901,34.7385 c 0.2783,-2.5298 0.7886,-6.1126 1.9484,-10.9233 l 1.8865,-7.9745 c 0.9433,8.5528 3.0463,16 5.8606,22.3044 l -9.6955,-3.4066 z m -147.9694,-30.9793 c 1.7938,-7.605 4.9174,-12.5223 33.0608,-16.8768 3.2627,-0.4222 6.309,-0.8953 9.278,-1.3345 -9.0461,10.5368 -26.7053,17.3329 -42.3388,18.2113 z m -138.2846,-204.2423 c -3.2675,13.6109 -7.1813,30.4165 -41.0585,30.4165 l -35.8442,0 10.2043,-44.7465 37.4416,0 c 24.3935,0 29.8892,4.4257 30.0315,4.4257 0.07,0.2458 0.8056,2.8808 -0.7747,9.9043 z m 843.8491,106.4238 c 4.4071,-28.7295 -1.1443,-52.4039 -16.5768,-70.2982 -19.4684,-22.6554 -52.8385,-33.7025 -101.9348,-33.7025 -88.8991,0 -131.9647,49.6298 -142.5417,95.9752 -4.8555,20.8462 -2.2422,39.1611 7.7317,54.4405 3.3401,5.2158 7.3915,9.694 11.8759,13.6449 l -32.8597,0 c -1.299,-8.7276 -4.3453,-16.9123 -9.1853,-24.3564 -3.8504,-6.006 -8.6286,-11.1522 -14.0563,-15.5779 l 31.7928,0 3.0154,-20.1256 c 4.4225,-28.7295 -1.1598,-52.4039 -16.5768,-70.2982 -19.453,-22.6554 -52.9158,-33.7025 -101.9966,-33.7025 -88.961,0 -132.3359,51.7359 -142.4799,95.9752 -4.8555,20.8462 -2.1649,39.1611 7.7472,54.4405 3.3401,5.2158 7.376,9.694 11.8759,13.6449 l -38.1483,0 15.5562,-67.8751 c 6.9585,-30.0825 -2.5205,-50.0149 -11.5821,-61.5707 -23.9528,-30.1521 -70.5131,-34.6148 -96.136,-34.6148 -20.1952,0 -60.6784,0.3 -96.5845,22.4096 1.1598,-3.8288 2.5979,-7.8152 3.402,-11.2218 10.8553,-47.2407 -2.3814,-76.5857 -15.3552,-92.9552 -13.2367,-16.5768 -39.5245,-36.421 -89.7682,-36.421 l -173.903,0 -93.2444,403.7775 119.5244,0 36.0545,-156.2114 62.5557,0 c 39.0204,0 69.3488,-11.7321 92.6691,-28.38 l -9.2007,27.5543 22.5147,0 c -21.5653,16.034 -36.4055,38.7234 -42.8506,66.5406 -7.6745,32.9989 2.2483,54.5116 11.9454,66.6983 15.2748,19.2303 40.91,29.8042 72.0379,29.8042 28.0197,0 49.8076,-6.4467 66.8947,-14.63 l 1.0051,8.624 110.9036,0 10.4378,-43.6238 c 2.3195,4.2307 4.8401,7.9188 7.2987,10.9589 26.3033,32.0139 74.8893,38.6709 110.9964,38.6709 51.6942,0 109.8366,-18.1773 137.8563,-65.3824 3.2473,11.5218 8.675,20.3885 13.9016,26.7981 26.2878,31.9273 74.7811,38.5843 110.9036,38.5843 62.333,0 134.9492,-25.7822 151.5414,-98.0999 4.7164,-20.4937 2.0876,-38.5132 -7.7626,-53.791 -3.8968,-6.006 -8.675,-11.1522 -14.1181,-15.5779 l 31.7928,0 3.0308,-20.1256 z"
           id="path39" />
        <path
           inkscape:connector-curvature="0"
           style="fill:#661f5c;fill-opacity:1;fill-rule:nonzero;stroke:none"
           d="m 2756.2361,-1272.202 -1202.3823,0 3.1762,-13.6449 1202.3761,0 -3.17,13.6449 z"
           id="path17" />
        <path
           inkscape:connector-curvature="0"
           style="fill:#661f5c;fill-opacity:1;fill-rule:nonzero;stroke:none"
           d="m 1377.8493,-1234.3739 -102.1559,0 3.187,-13.7516 102.227,0 -3.2581,13.7516 z"
           id="path19" />
        <path
           inkscape:connector-curvature="0"
           style="fill:#661f5c;fill-opacity:1;fill-rule:nonzero;stroke:none"
           d="m 1720.2911,-1234.3739 -102.0059,0 2.9675,-13.7516 102.227,0 -3.1886,13.7516 z"
           id="path21" />
        <path
           inkscape:connector-curvature="0"
           style="fill:#661f5c;fill-opacity:1;fill-rule:nonzero;stroke:none"
           d="m 2062.9495,-1234.3739 -102.3802,0 3.1963,-13.7516 102.2302,0 -3.0463,13.7516 z"
           id="path23" />
        <path
           inkscape:connector-curvature="0"
           style="fill:#661f5c;fill-opacity:1;fill-rule:nonzero;stroke:none"
           d="m 2405.2475,-1234.3739 -102.2286,0 3.0463,-13.7516 102.3677,0 -3.1854,13.7516 z"
           id="path25" />
        <path
           inkscape:connector-curvature="0"
           style="fill:#661f5c;fill-opacity:1;fill-rule:nonzero;stroke:none"
           d="m 2747.7466,-1234.3739 -102.3368,0 3.17,-13.7516 102.2286,0 -3.0618,13.7516 z"
           id="path27" />
        <path
           inkscape:connector-curvature="0"
           style="fill:#661f5c;fill-opacity:1;fill-rule:nonzero;stroke:none"
           d="m 2739.1474,-1196.6509 -1582.6182,0 3.1082,-13.699 1582.5409,0 -3.0309,13.699 z"
           id="path29" />
        <path
           inkscape:connector-curvature="0"
           style="fill:#ffffff;fill-rule:nonzero;stroke:none"
           d="m 1011.6634,-1208.5236 -95.2098,0 102.374,-443.52 -186.28311,0 18.31641,-78.9562 589.7544,0 -18.2376,78.9562 -308.4177,0 -102.2966,443.52 z"
           id="path41" />
        <path
           inkscape:connector-curvature="0"
           style="fill:#ffffff;fill-rule:nonzero;stroke:none"
           d="m 1262.0129,-1537.7335 c -42.2089,0 -58.7888,33.5247 -65.302,61.5522 -4.7071,20.7055 -3.4777,37.0565 3.6154,45.8892 5.4369,6.8843 15.2793,10.362 29.1098,10.362 42.1316,0 58.6404,-33.4551 65.1536,-61.5351 4.7055,-20.7766 3.5473,-37.038 -3.5473,-45.9062 -5.355,-6.8843 -15.2006,-10.3621 -29.0295,-10.3621 z m -44.3785,192.8087 c -42.0697,0 -76.383,-13.8382 -96.3617,-39.0219 -19.2644,-24.2529 -24.6905,-57.9182 -15.5671,-97.5185 22.3741,-96.9772 104.5435,-131.2905 168.109,-131.2905 42.0604,0 76.3057,13.8552 96.3602,39.0915 19.2566,24.2172 24.6116,57.9553 15.4186,97.5184 -22.0833,96.9046 -104.2528,131.221 -167.959,131.221 z"
           id="path43" />
        <path
           inkscape:connector-curvature="0"
           style="fill:#ffffff;fill-rule:nonzero;stroke:none"
           d="m 1456.6926,-1284.0748 -90.4254,0 127.7773,-557.5812 90.4965,0 -127.8484,557.5812 z"
           id="path45" />
        <path
           inkscape:connector-curvature="0"
           style="fill:#ffffff;fill-rule:nonzero;stroke:none"
           d="m 1588.0187,-1284.0748 -90.4254,0 127.8577,-557.5812 90.5661,0 -127.9984,557.5812 z"
           id="path47" />
        <path
           inkscape:connector-curvature="0"
           style="fill:#ffffff;fill-rule:nonzero;stroke:none"
           d="m 1884.6347,-1584.7809 50.6813,0 c 43.2898,0 49.2958,-25.7806 52.5447,-39.5662 2.1772,-9.3786 1.7551,-15.9644 -1.2278,-19.722 -3.32,-4.1798 -12.8748,-9.2023 -39.5152,-9.2023 l -46.8541,0 -15.6289,68.4905 z m -54.224,233.8501 -95.2098,0 87.826,-380.069 164.4116,0 c 35.9849,0 63.8516,11.0455 80.5056,31.9273 16.3603,20.5292 20.8601,49.2077 13.0976,82.8731 -8.5978,37.757 -49.5293,109.0588 -142.616,109.0588 l -71.9528,0 -36.0622,156.2098 z"
           id="path49" />
        <path
           inkscape:connector-curvature="0"
           style="fill:#ffffff;fill-rule:nonzero;stroke:none"
           d="m 2175.8943,-1456.7933 c -7.8864,1.9685 -17.5974,3.7066 -29.7671,5.3751 -25.9167,3.9694 -39.0296,8.9022 -42.9883,25.8672 -0.9587,4.2864 -0.7422,7.4997 0.8505,9.3785 1.9484,2.5283 6.6648,4.1272 12.0306,4.1272 23.8136,0 52.7766,-14.0485 57.9877,-36.7395 l 1.8866,-8.0085 z m -9.4172,-83.6107 c -25.5456,0 -32.5041,12.8207 -37.004,24.7616 l -1.2216,3.4777 46.6222,-6.2689 c 10.345,-1.2649 16.1438,-4.373 17.2262,-9.3074 0.5103,-2.0891 1.0979,-5.9364 -0.2783,-7.7456 -2.6752,-3.2133 -11.1491,-4.9174 -25.3445,-4.9174 z m -80.9355,195.4792 c -27.5094,0 -49.8077,-8.975 -62.7676,-25.3059 -8.0456,-10.1703 -16.2968,-28.2037 -9.694,-56.7244 9.694,-42.0605 41.2564,-71.09 87.3683,-81.0113 l -62.1165,0 5.1493,-15.6118 c 26.427,-79.0815 89.8424,-89.1775 142.2634,-89.1775 23.458,0 65.9514,3.8612 86.858,30.1521 10.8707,13.6804 14.0562,31.049 9.278,51.473 l -28.8083,125.6356 c -4.2061,18.0705 -1.9639,22.1281 -1.8866,22.2673 l 10.0667,3.4777 -6.2317,28.8192 -91.095,0 -1.2989,-10.3605 c -0.2784,-1.9499 -0.4794,-3.7592 -0.6186,-5.3225 -17.4582,11.0471 -41.9367,21.689 -76.4665,21.689 z"
           id="path51" />
        <path
           inkscape:connector-curvature="0"
           style="fill:#ffffff;fill-rule:nonzero;stroke:none"
           d="m 2432.0302,-1542.9323 c -31.1897,0 -33.5092,9.8348 -34.3906,13.5398 2.969,3.1808 25.0507,7.5168 39.5399,10.3791 6.4328,1.1953 13.1903,2.5808 19.9788,4.056 l 0.5102,-9.8146 c 0.3557,-7.0977 -0.3711,-10.7146 -2.3968,-12.8749 -1.8865,-1.9669 -7.3915,-5.2854 -23.2415,-5.2854 z m -58.7146,95.8515 -3.0308,12.8888 c -1.8092,7.7456 0.2784,10.4162 1.0206,11.2945 1.8711,2.3875 9.1853,8.1832 34.3133,8.1832 26.8445,0 35.102,-10.7656 36.1225,-14.8402 -2.8298,-4.3545 -25.2053,-8.6224 -39.8956,-11.4847 -9.3244,-1.8448 -19.0354,-3.6896 -28.53,-6.0416 z m 19.7623,102.156 c -33.5865,0 -78.5387,-5.8668 -101.7802,-34.2453 -12.9738,-15.8593 -17.0716,-36.0545 -12.3089,-60.0954 l 1.933,-9.4482 85.8837,0 c -21.7879,-5.972 -41.6893,-14.9809 -52.6374,-31.9613 -8.1801,-12.5223 -10.2677,-27.7305 -6.2318,-45.3279 9.6183,-41.9894 49.1118,-86.7528 130.9751,-86.7528 45.4625,0 75.8635,9.6569 93.0434,29.5722 13.0356,15.1201 17.6592,35.6138 13.8861,60.7294 l -1.5154,10.0621 -76.2191,0 c 23.8136,6.1637 46.8077,15.5763 58.6836,33.8927 8.1183,12.4527 10.144,27.4321 6.2317,44.6599 -18.9581,82.539 -111.9087,88.9146 -139.9438,88.9146 z"
           id="path53" />
        <path
           inkscape:connector-curvature="0"
           style="fill:#ffffff;fill-rule:nonzero;stroke:none"
           d="m 2694.8309,-1542.9323 c -31.4062,0 -33.5865,9.7636 -34.468,13.4517 2.9845,3.2689 24.9889,7.6049 39.5554,10.4672 6.3555,1.1953 13.0975,2.5808 19.9169,4.056 l 0.4175,-9.728 c 0.2784,-7.2524 -0.3556,-10.8693 -2.4587,-13.0481 -1.8092,-1.9483 -7.3142,-5.1988 -22.9631,-5.1988 z m -59.1476,95.7804 -2.8916,12.8022 c -1.7319,7.9033 0.4484,10.5739 1.1597,11.4522 1.9639,2.4571 9.2008,8.1832 34.3133,8.1832 26.8754,0 35.1329,-10.679 35.9834,-14.7691 -2.7525,-4.4256 -25.0507,-8.6935 -39.741,-11.5558 -9.3399,-1.8448 -19.1901,-3.6896 -28.8238,-6.1127 z m 20.0561,102.2271 c -33.5247,0 -78.4768,-5.8668 -101.7029,-34.2453 -12.9738,-15.8593 -17.1644,-36.0545 -12.3862,-60.0259 l 1.8711,-9.5177 86.0075,0 c -21.7725,-5.972 -41.6275,-14.9809 -52.6838,-31.9613 -8.1802,-12.5223 -10.2214,-27.7305 -6.1699,-45.3279 9.5563,-41.9894 49.0808,-86.7528 131.0369,-86.7528 45.4006,0 75.8016,9.6569 92.966,29.5722 13.0975,15.1201 17.6592,35.6138 13.9016,60.7294 l -1.5154,10.0621 -76.3119,0 c 23.8136,6.1637 46.9005,15.5763 58.7919,33.8927 8.1028,12.4527 10.113,27.4321 6.2163,44.6599 -18.9582,82.539 -111.9397,88.9146 -140.0212,88.9146 z"
           id="path55" />
        <path
           inkscape:connector-curvature="0"
           style="fill:#6ab21b;fill-rule:nonzero;stroke:none"
           d="m 1002.2508,-1220.3253 -70.94924,0 102.36774,-443.4829 -186.20726,0 12.74185,-55.3899 565.57111,0 -12.8114,55.3899 -308.4177,0 -102.2951,443.4829 z"
           id="path57" />
        <path
           inkscape:connector-curvature="0"
           style="fill:#6ab21b;fill-rule:nonzero;stroke:none"
           d="m 1262.0129,-1549.5181 c -50.9721,0 -69.9379,40.9718 -76.8145,70.6508 -6.8039,29.7144 -6.8039,70.7389 44.2377,70.7389 50.8932,0 69.7895,-41.0245 76.6661,-70.7389 6.875,-29.679 6.8039,-70.6508 -44.0893,-70.6508 z m -44.3785,192.7916 c -67.6214,0 -119.6744,-38.2317 -100.4178,-122.1408 19.3277,-83.6988 89.0476,-122.1409 156.598,-122.1409 67.5426,0 119.6728,38.4421 100.2678,122.1409 -19.1066,83.9091 -88.9053,122.1408 -156.448,122.1408 z"
           id="path59" />
        <path
           inkscape:connector-curvature="0"
           style="fill:#6ab21b;fill-rule:nonzero;stroke:none"
           d="m 1447.2088,-1295.8409 -66.1014,0 122.4207,-534.0134 66.1726,0 -122.4919,534.0134 z"
           id="path61" />
        <path
           inkscape:connector-curvature="0"
           style="fill:#6ab21b;fill-rule:nonzero;stroke:none"
           d="m 1578.5349,-1295.8409 -66.1029,0 122.5026,-534.0134 66.2407,0 -122.6404,534.0134 z"
           id="path63" />
        <path
           inkscape:connector-curvature="0"
           style="fill:#6ab21b;fill-rule:nonzero;stroke:none"
           d="m 1935.316,-1572.9792 c 52.9313,0 60.8857,-34.9659 64.1345,-48.8752 7.0962,-30.5913 -8.3935,-43.2187 -52.3328,-43.2187 l -56.3378,0 -20.987,92.0939 65.5231,0 z m -114.3179,210.2127 -70.9476,0 82.3101,-356.4316 155.0779,0 c 65.5989,0 96.2165,38.9167 82.0984,100.3822 -6.5101,28.38 -39.9497,99.8736 -131.1112,99.8736 l -81.3638,0 -36.0638,156.1758 z"
           id="path65" />
        <path
           inkscape:connector-curvature="0"
           style="fill:#6ab21b;fill-rule:nonzero;stroke:none"
           d="m 2192.3164,-1475.7948 c -7.6544,4.8122 -19.4684,8.7307 -47.7664,12.6445 -25.4219,3.8998 -46.9933,9.6228 -52.9313,34.8962 -4.8555,21.4246 11.5821,28.0105 24.4013,28.0105 29.2413,0 62.9824,-17.5959 69.4925,-45.9078 l 6.8039,-29.6434 z m 49.2355,67.6664 c -6.3709,27.5016 -1.1597,33.5602 6.3864,36.1952 l -2.1803,9.1667 -71.3946,0 c -1.3608,-10.9064 -1.5154,-14.4537 0.2165,-27.4862 -18.4478,14.401 -44.148,33.5262 -89.0383,33.5262 -37.7308,0 -72.0379,-19.6169 -60.9599,-67.5071 10.4872,-45.3619 47.0428,-68.5245 90.4177,-74.2491 l 61.4052,-8.2559 c 10.7161,-1.2278 24.1693,-5.2498 27.2929,-18.3133 5.8606,-25.7837 -20.1334,-27.1538 -37.2204,-27.1538 -33.1536,0 -42.9419,18.7556 -48.0603,32.4376 l -63.6475,0 c 23.6745,-71.2476 79.5593,-81.2401 130.9752,-81.2401 35.3957,0 97.8679,9.9925 84.6312,67.1901 l -28.8238,125.6897 z"
           id="path67" />
        <path
           inkscape:connector-curvature="0"
           style="fill:#6ab21b;fill-rule:nonzero;stroke:none"
           d="m 2469.4671,-1524.1937 c 0.7268,-14.9083 -1.4535,-30.5743 -37.4369,-30.5743 -35.8287,0 -43.5913,12.6615 -45.9108,22.6895 -8.2575,36.6669 155.0825,10.0265 135.3976,95.6056 -15.4789,67.5056 -89.3476,79.7464 -128.4391,79.7464 -57.1064,0 -114.8158,-18.3164 -102.507,-80.1515 l 68.1937,0 c -4.639,19.5829 5.4431,33.9654 46.8541,33.9654 33.9422,0 45.6016,-15.2794 47.6273,-24.0425 8.9843,-38.8116 -153.8454,-9.5178 -133.7894,-96.3958 7.8245,-34.0706 41.1327,-77.6573 119.4548,-77.6573 49.1582,0 105.1976,11.2574 95.2083,76.8145 l -64.6526,0 z"
           id="path69" />
        <path
           inkscape:connector-curvature="0"
           style="fill:#6ab21b;fill-rule:nonzero;stroke:none"
           d="m 2732.0513,-1524.1937 c 0.6495,-14.9083 -1.4381,-30.5743 -37.2204,-30.5743 -36.0452,0 -43.7151,12.6615 -45.9727,22.6895 -8.3967,36.6669 155.1598,10.0265 135.3821,95.6056 -15.5562,67.5056 -89.2393,79.7464 -128.5009,79.7464 -57.1219,0 -114.754,-18.3164 -102.507,-80.1515 l 68.039,0 c -4.407,19.5829 5.5823,33.9654 46.9933,33.9654 33.9732,0 45.6326,-15.2794 47.5655,-24.0425 9.0616,-38.8116 -153.7063,-9.5178 -133.6503,-96.3958 7.84,-34.0706 40.9935,-77.6573 119.5322,-77.6573 49.0963,0 105.1203,11.2574 95.1464,76.8145 l -64.8072,0 z"
           id="path71" />
      </g>
    </g>
  </g>
</svg>
