<?xml version="1.0" encoding="UTF-8" standalone="no"?>
<!-- Generator: Adobe Illustrator 12.0.1, SVG Export Plug-In  -->

<svg
   xmlns:dc="http://purl.org/dc/elements/1.1/"
   xmlns:cc="http://creativecommons.org/ns#"
   xmlns:rdf="http://www.w3.org/1999/02/22-rdf-syntax-ns#"
   xmlns:svg="http://www.w3.org/2000/svg"
   xmlns="http://www.w3.org/2000/svg"
   xmlns:sodipodi="http://sodipodi.sourceforge.net/DTD/sodipodi-0.dtd"
   xmlns:inkscape="http://www.inkscape.org/namespaces/inkscape"
   version="1.1"
   width="12430"
   height="5950"
   viewBox="-1 0 12430 5949.9999"
   enable-background="new -1 0 289 288"
   xml:space="preserve"
   id="svg2"
   inkscape:version="0.48.2 r9819"
   sodipodi:docname="AJAX1.svg"><metadata
   id="metadata50"><rdf:RDF><cc:Work
       rdf:about=""><dc:format>image/svg+xml</dc:format><dc:type
         rdf:resource="http://purl.org/dc/dcmitype/StillImage" /></cc:Work></rdf:RDF></metadata><sodipodi:namedview
   pagecolor="#ffffff"
   bordercolor="#666666"
   borderopacity="1"
   objecttolerance="10"
   gridtolerance="10"
   guidetolerance="10"
   inkscape:pageopacity="0"
   inkscape:pageshadow="2"
   inkscape:window-width="1280"
   inkscape:window-height="1004"
   id="namedview48"
   showgrid="false"
   fit-margin-top="0"
   fit-margin-left="0"
   fit-margin-right="0"
   fit-margin-bottom="0"
   inkscape:zoom="0.10243056"
   inkscape:cx="2641.8306"
   inkscape:cy="2102.0356"
   inkscape:window-x="-8"
   inkscape:window-y="-8"
   inkscape:window-maximized="1"
   inkscape:current-layer="svg2" />
<defs
   id="defs4">
</defs>





















<path
   inkscape:connector-curvature="0"
   style="fill:#ffffff;fill-rule:nonzero;stroke:#000000;stroke-width:10;stroke-linecap:butt;stroke-linejoin:miter;stroke-miterlimit:4;stroke-opacity:1;stroke-dasharray:none"
   d="m 12424,5405.0079 c 0,298.2375 -241.763,540 -540,540 l -11340.00001,0 c -298.23374,0 -539.9999905,-241.7625 -539.9999905,-540 l 0,-4859.99965 c 0,-298.2337 241.7662505,-539.9999 539.9999905,-539.9999 l 11340.00001,0 c 298.237,0 540,241.7662 540,539.9999 l 0,4859.99965 z"
   id="path11" /><path
   inkscape:connector-curvature="0"
   style="fill:#000000;fill-rule:nonzero;stroke:none"
   d="m 12232.749,5405.0079 c 0,93.15 -36.275,180.7375 -102.15,246.6 -65.863,65.875 -153.45,102.15 -246.6,102.15 l -11339.99901,0 c -93.155,0 -180.73374,-36.275 -246.60124,-102.15 C 231.52625,5585.7454 195.25,5498.158 195.25,5405.0079 l 0,-4859.99965 c 0,-93.155 36.27625,-180.7324 102.14625,-246.5999 65.87,-65.8738 153.44874,-102.15 246.60374,-102.15 l 11339.99901,0 c 93.15,0 180.737,36.2762 246.6,102.1462 65.875,65.8713 102.15,153.4487 102.15,246.6037 l 0,4859.99965 z m -6.687,-5202.06205 c -91.363,-91.3689 -212.85,-141.6875 -342.063,-141.6875 l -11339.99901,0 c -129.21375,0 -250.69499,50.3186 -342.06249,141.6875 -91.36888,91.3675 -141.687501,212.8487 -141.687501,342.0624 l 0,4859.99965 c 0,129.2125 50.318621,250.7 141.687501,342.0625 91.3675,91.375 212.84874,141.6875 342.06249,141.6875 l 11339.99901,0 c 129.213,0 250.7,-50.3125 342.063,-141.6875 91.362,-91.3625 141.687,-212.85 141.687,-342.0625 l 0,-4859.99965 c 0,-129.2137 -50.325,-250.6949 -141.687,-342.0624 z"
   id="path13" /><path
   inkscape:connector-curvature="0"
   style="fill:#000000;fill-rule:nonzero;stroke:none"
   d="m 4221.0998,1985.008 0,-391.575 -405.9624,0 0,391.575 -161.75,0 0,-900 161.75,0 0,347.3625 405.9624,0 0,-347.3625 161.7375,0 0,900 -161.7375,0 z"
   id="path15" /><path
   inkscape:connector-curvature="0"
   style="fill:#000000;fill-rule:nonzero;stroke:none"
   d="m 5055.5998,1230.2681 c -136.0875,0 -218.375,113.6899 -218.375,303.1525 0,192.6375 82.2875,306.325 218.375,306.325 170.925,0 212.0625,-167.375 212.0625,-306.325 0,-189.4625 -75.9625,-303.1525 -212.0625,-303.1525 z m 0,770.5275 c -265.8625,0 -382.9625,-240 -382.9625,-467.375 0,-287.3625 145.5875,-464.2063 382.9625,-464.2063 221.5625,0 373.4875,186.3188 373.4875,461.0563 0,281.05 -145.6,470.525 -373.4875,470.525 z"
   id="path17" /><path
   inkscape:connector-curvature="0"
   style="fill:#000000;fill-rule:nonzero;stroke:none"
   d="m 6103.7999,1985.0081 -171.3001,0 -327.0124,-900.0038 171.2875,0 242.9375,656.8413 242.9375,-656.8413 171.2874,0 -330.1374,900.0038 z"
   id="path19" /><path
   inkscape:connector-curvature="0"
   style="fill:#000000;fill-rule:nonzero;stroke:none"
   d="m 7333.9373,1985.0081 c 0,-107.375 22.2,-186.3125 72.9375,-274.7375 79.2876,-132.6375 193.4751,-214.7375 358.3875,-258.9501 101.4875,-28.425 136.375,-60 136.375,-113.6875 0,-66.3125 -63.425,-104.2075 -177.6,-104.2075 -117.35,0 -202.9874,28.42 -279.1,97.895 l -111,-123.1562 c 104.6626,-91.58 234.6875,-138.95 380.575,-138.95 212.5,0 348.875,104.2113 348.875,268.4188 0,75.8 -31.7124,145.2625 -91.9749,195.7875 -28.55,22.1125 -69.7751,44.2125 -133.2001,63.1625 -120.525,34.7375 -155.4124,50.525 -209.325,97.9 -41.2249,34.7375 -66.5999,69.475 -98.3125,129.475 l 532.8125,0 0,161.05 -729.45,0 z"
   id="path21" /><path
   inkscape:connector-curvature="0"
   style="fill:#000000;fill-rule:nonzero;stroke:none"
   d="m 8562.6623,1606.0705 0,205.2624 -161.325,0 0,-205.2624 -211.95,0 0,-161.0625 211.95,0 0,-202.1013 161.325,0 0,202.1013 211.9501,0 0,161.0625 -211.9501,0 z"
   id="path23" /><path
   inkscape:connector-curvature="0"
   style="fill:#000000;fill-rule:nonzero;stroke:none"
   d="m 5133.7873,3044.1705 c -22.8,-37.9001 -50.65,-53.0625 -93.7125,-55.5876 -55.7124,-2.525 -91.1624,25.2625 -116.4874,88.4251 -17.7375,42.9499 -27.8625,108.6374 -27.8625,169.2624 0,75.7875 15.2,154.1 43.05,199.575 22.8,37.9 53.1875,55.5875 98.7749,55.5875 53.175,0 86.1,-27.8 111.425,-90.9499 15.2,-37.9001 27.8625,-108.6375 27.8625,-164.2126 0,-80.8375 -15.2,-154.0999 -43.05,-202.0999 z m 78.5,492.625 c -40.525,55.5875 -98.775,80.8499 -174.7374,80.8499 -101.3001,0 -164.6126,-40.425 -207.6751,-128.8499 -30.375,-60.625 -50.6374,-156.625 -50.6374,-242.5251 0,-118.7375 30.3874,-224.8375 78.5,-293.05 43.05,-55.5875 101.3,-80.85 184.8749,-80.85 91.175,0 154.475,40.4251 200.0626,128.85 30.3874,63.15 48.125,154.1 48.125,245.05 0,113.6875 -27.8626,227.3626 -78.5126,290.5251 z"
   id="path25" /><path
   inkscape:connector-curvature="0"
   style="fill:#000000;fill-rule:nonzero;stroke:none"
   d="m 4475.2248,3605.008 0,-416.8375 -167.0625,416.8375 -167.0748,-416.8375 0,416.8375 -113.9001,0 0,-720 113.9001,0 167.0748,404.2125 167.0625,-404.2125 113.9125,0 0,720 -113.9125,0 z"
   id="path27" /><path
   inkscape:connector-curvature="0"
   style="fill:#000000;fill-rule:nonzero;stroke:none"
   d="m 5796.6749,3011.3205 c -17.6751,-10.1 -27.7876,-12.625 -65.6875,-12.625 l -136.4251,0 0,176.8375 136.4251,0 c 35.375,0 48.0124,-2.525 65.6875,-12.625 27.8,-15.1625 45.4875,-45.475 45.4875,-75.7875 0,-30.3249 -17.6875,-60.6374 -45.4875,-75.8 z m 50.5374,593.6875 -116.2249,-313.2625 -136.4251,0 0,313.2625 -113.6875,0 0,-720 237.4751,0 c 55.5874,0 93.4874,5.05 128.8624,22.7375 63.1625,30.3125 108.6376,106.1 108.6376,179.375 0,75.7875 -45.4751,151.575 -111.1626,181.8875 l 126.325,336 -123.8,0 z"
   id="path29" /><path
   inkscape:connector-curvature="0"
   style="fill:#000000;fill-rule:nonzero;stroke:none"
   d="m 6117.8873,3605.008 0,-720 423.875,0 0,113.6875 -310.3374,0 0,176.8375 209.4124,0 0,116.2125 -209.4124,0 0,197.0501 333.0499,0 0,116.2125 -446.5875,0 z"
   id="path31" /><path
   inkscape:connector-curvature="0"
   style="fill:#000000;fill-rule:nonzero;stroke:none"
   d="m 2469.9499,3044.1705 c -22.7875,-37.9001 -50.65,-53.0625 -93.7,-55.5876 -55.7125,-2.525 -91.175,25.2625 -116.4875,88.4251 -17.7375,42.9499 -27.8625,108.625 -27.8625,169.2624 0,75.7875 15.1875,154.1 43.05,199.575 22.8,37.9 53.1875,55.5875 98.7625,55.5875 53.1875,0 86.1125,-27.8 111.4375,-90.9499 15.2,-37.9001 27.85,-108.6375 27.85,-164.2126 0,-80.8375 -15.1875,-154.0999 -43.05,-202.0999 z m 78.5125,492.625 c -40.525,55.5875 -98.775,80.8499 -174.75,80.8499 -101.2875,0 -164.6125,-40.425 -207.6625,-128.8499 -30.3875,-60.6375 -50.6375,-156.625 -50.6375,-242.5251 0,-118.7375 30.375,-224.8375 78.5,-293.05 43.05,-55.5875 101.3,-80.85 184.875,-80.85 91.1625,0 154.475,40.4251 200.0625,128.85 30.3875,63.15 48.1125,154.1 48.1125,245.05 0,113.6875 -27.85,227.3626 -78.5,290.5251 z"
   id="path33" /><path
   inkscape:connector-curvature="0"
   style="fill:#000000;fill-rule:nonzero;stroke:none"
   d="m 3132.8499,3011.3205 c -17.6875,-10.1 -27.7875,-12.625 -65.6875,-12.625 l -136.4375,0 0,176.8375 136.4375,0 c 35.375,0 48,-2.525 65.6875,-12.625 27.8001,-15.1625 45.475,-45.475 45.475,-75.7875 0,-30.3249 -17.6749,-60.6374 -45.475,-75.8 z m 50.525,593.6875 -116.2125,-313.2625 -136.4375,0 0,313.2625 -113.6875,0 0,-720 237.4876,0 c 55.5874,0 93.4874,5.05 128.8499,22.7375 63.1625,30.3125 108.6501,106.1 108.6501,179.375 0,75.7875 -45.4876,151.575 -111.1751,181.8875 l 126.3375,336 -123.8125,0 z"
   id="path35" /><path
   inkscape:connector-curvature="0"
   style="fill:#000000;fill-rule:nonzero;stroke:none"
   d="m 10784.65,3605.008 -275.388,-487.575 0,487.575 -113.687,0 0,-720 113.687,0 262.75,459.7875 0,-459.7875 113.7,0 0,720 -101.062,0 z"
   id="path37" /><path
   inkscape:connector-curvature="0"
   style="fill:#000000;fill-rule:nonzero;stroke:none"
   d="m 10048.487,3044.1705 c -22.8,-37.9001 -50.6497,-53.0625 -93.6996,-55.5876 -55.7251,-2.525 -91.1751,25.2625 -116.5,88.4251 -17.7376,42.9499 -27.8626,108.625 -27.8626,169.2624 0,75.7875 15.2,154.1 43.0501,199.575 22.7999,37.9 53.1875,55.5875 98.7749,55.5875 53.1742,0 86.0992,-27.8 111.4242,-90.9499 15.2,-37.9001 27.863,-108.6375 27.863,-164.2126 0,-80.8375 -15.2,-154.0999 -43.05,-202.0999 z m 78.5,492.625 c -40.525,55.5875 -98.763,80.8499 -174.7372,80.8499 -101.2999,0 -164.6124,-40.425 -207.6749,-128.8499 -30.3876,-60.6375 -50.6376,-156.625 -50.6376,-242.5251 0,-118.7375 30.3876,-224.8375 78.5,-293.05 43.05,-55.5875 101.3,-80.85 184.875,-80.85 91.1747,0 154.4747,40.4251 200.0617,128.85 30.388,63.15 48.113,154.1 48.113,245.05 0,113.6875 -27.85,227.3626 -78.5,290.5251 z"
   id="path39" /><path
   inkscape:connector-curvature="0"
   style="fill:#000000;fill-rule:nonzero;stroke:none"
   d="m 7615.4373,3011.3205 c -20.2124,-10.1 -32.8374,-12.6375 -68.2124,-12.6375 l -149.0625,0 0,176.85 149.0625,0 c 35.375,0 48,-2.525 68.2124,-12.625 25.2626,-12.6374 42.9501,-45.475 42.9501,-75.8 0,-30.3125 -17.6875,-60.625 -42.9501,-75.7875 z m 48,255.1625 c -32.8374,15.15 -75.7874,25.2624 -131.375,25.2624 l -133.8999,0 0,313.2625 -113.6875,0 0,-720 247.5874,0 c 58.1126,0 96,5.05 131.375,22.7375 63.1626,30.3125 111.1626,106.1 111.1626,179.3626 0,75.8 -48,151.5875 -111.1626,179.375 z"
   id="path41" /><path
   inkscape:connector-curvature="0"
   style="fill:#000000;fill-rule:nonzero;stroke:none"
   d="m 8813.4623,3011.3205 c -17.6875,-10.1 -27.7875,-12.625 -65.6875,-12.625 l -136.425,0 0,176.8375 136.425,0 c 35.375,0 48,-2.525 65.6875,-12.625 27.8,-15.1625 45.4875,-45.475 45.4875,-75.7875 0,-30.3249 -17.6875,-60.6374 -45.4875,-75.8 z m 50.5375,593.6875 -116.225,-313.2625 -136.425,0 0,313.2625 -113.7,0 0,-720 237.4875,0 c 55.5875,0 93.4875,5.05 128.8625,22.7375 63.1625,30.3125 108.6375,106.1 108.6375,179.375 0,75.7875 -45.475,151.575 -111.1625,181.8875 l 126.325,336 -123.8,0 z"
   id="path43" /><path
   inkscape:connector-curvature="0"
   style="fill:#000000;fill-rule:nonzero;stroke:none"
   d="m 9493.5874,3562.058 c -40.4125,35.375 -96,55.5875 -156.6375,55.5875 -123.8,0 -214.75,-73.2624 -262.75,-181.9 l 108.6375,-40.425 c 30.3125,68.2125 85.9,106.1125 154.1125,106.1125 65.6875,0 111.1625,-45.475 111.1625,-106.1125 0,-96 -111.1625,-111.15 -204.6375,-149.0501 -42.95,-17.6875 -138.9625,-60.625 -138.9625,-179.3625 0,-141.475 96.0125,-194.525 224.8625,-194.525 101.05,0 169.275,58.1 204.6375,146.525 l -101.05,30.3125 c 0,0 -25.2625,-60.6375 -106.1125,-63.1625 -53.0625,-2.525 -116.225,17.6875 -111.175,83.375 10.1125,133.8875 348.6625,45.475 348.6625,328.4125 0,65.6875 -25.2625,123.7875 -70.75,164.2125 z"
   id="path45" /><path
   inkscape:connector-curvature="0"
   style="fill:#000000;fill-rule:nonzero;stroke:none"
   d="m 11451.987,3562.058 c -40.413,35.375 -96,55.5875 -156.638,55.5875 -123.8,0 -214.75,-73.2624 -262.75,-181.9 l 108.638,-40.425 c 30.312,68.2125 85.9,106.1125 154.112,106.1125 65.688,0 111.163,-45.475 111.163,-106.1125 0,-96 -111.163,-111.15 -204.65,-149.0501 -42.938,-17.6875 -138.95,-60.625 -138.95,-179.3625 0,-141.475 96.012,-194.5375 224.862,-194.5375 101.05,0 169.275,58.1126 204.638,146.5375 l -101.05,30.3125 c 0,0 -25.275,-60.6375 -106.113,-63.1625 -53.062,-2.525 -116.225,17.6875 -111.175,83.375 10.113,133.8875 348.663,45.475 348.663,328.4125 0,65.6875 -25.275,123.7875 -70.75,164.2125 z"
   id="path47" /><path
   inkscape:connector-curvature="0"
   style="fill:#000000;fill-rule:nonzero;stroke:none"
   d="m 7904.1998,3605.008 0,-720 423.8625,0 0,113.6875 -310.3375,0 0,176.8375 209.425,0 0,116.2125 -209.425,0 0,197.0501 333.05,0 0,116.2125 -446.575,0 z"
   id="path49" /><path
   inkscape:connector-curvature="0"
   style="fill:#000000;fill-rule:nonzero;stroke:none"
   d="m 1281.7,3267.933 c -96.9588,60.275 -186.1313,86.9375 -240.0038,220.8625 l 353.7163,0 0,116.2126 -490.14626,0 c 2.52625,-83.375 19.92875,-151.75 60.635,-219.7875 126.33496,-211.1751 315.81126,-187.85 315.81126,-300.6374 0,-53.0501 -60.6338,-96 -131.3763,-96 -73.2687,0 -118.745,35.375 -131.3787,101.05 l -113.69126,-25.2624 c 25.26375,-118.7376 118.74496,-192 245.06996,-192 136.4263,0 245.0763,96 245.0763,214.7376 0,86.0999 -49.5375,140.9251 -113.7125,180.8249 z"
   id="path51" /><path
   inkscape:connector-curvature="0"
   style="fill:#000000;fill-rule:nonzero;stroke:none"
   d="m 3345.1125,4451.3203 c -20.2125,-10.1 -32.8375,-12.625 -68.2125,-12.625 l -149.0625,0 0,176.8375 149.0625,0 c 35.375,0 48,-2.525 68.2125,-12.625 25.2624,-12.6375 42.9499,-45.4749 42.9499,-75.8 0,-30.3125 -17.6875,-60.625 -42.9499,-75.7875 z m 48.0124,255.1626 c -32.8499,15.1625 -75.7999,25.2625 -131.3874,25.2625 l -133.9,0 0,313.2625 -113.6875,0 0,-720.0001 247.5875,0 c 58.1124,0 96.0124,5.0501 131.3874,22.7376 63.1501,30.3125 111.1625,106.1124 111.1625,179.3624 0,75.8 -48.0124,151.5876 -111.1625,179.3751 z"
   id="path53" /><path
   inkscape:connector-curvature="0"
   style="fill:#000000;fill-rule:nonzero;stroke:none"
   d="m 4543.1373,4451.3203 c -17.675,-10.1 -27.7875,-12.625 -65.6875,-12.625 l -136.425,0 0,176.8375 136.425,0 c 35.375,0 48.0125,-2.525 65.6875,-12.625 27.8,-15.1624 45.4875,-45.4749 45.4875,-75.7874 0,-30.3251 -17.6875,-60.6376 -45.4875,-75.8001 z m 50.5375,593.6876 -116.225,-313.2625 -136.425,0 0,313.2625 -113.6875,0 0,-720.0001 237.4875,0 c 55.575,0 93.475,5.0501 128.85,22.7376 63.1625,30.3249 108.6375,106.1001 108.6375,179.375 0,75.7876 -45.475,151.575 -111.1625,181.8875 l 126.325,336 -123.8,0 z"
   id="path55" /><path
   inkscape:connector-curvature="0"
   style="fill:#000000;fill-rule:nonzero;stroke:none"
   d="m 3633.8749,5045.0079 0,-720.0001 423.875,0 0,113.6875 -310.3375,0 0,176.8375 209.4125,0 0,116.2126 -209.4125,0 0,197.05 333.0375,0 0,116.2125 -446.575,0 z"
   id="path57" /><path
   inkscape:connector-curvature="0"
   style="fill:#000000;fill-rule:nonzero;stroke:none"
   d="m 7405.5999,5045.0079 0,-720.0001 115.2,0 0,720.0001 -115.2,0 z"
   id="path59" /><path
   inkscape:connector-curvature="0"
   style="fill:#000000;fill-rule:nonzero;stroke:none"
   d="m 8391.0999,5045.0079 0,-720.0001 113.5375,0 0,613.9001 333.0375,0 0,106.1 -446.575,0 z"
   id="path61" /><path
   inkscape:connector-curvature="0"
   style="fill:#000000;fill-rule:nonzero;stroke:none"
   d="m 5754.3499,5045.0079 -88.7251,0 -228.1499,-720.0001 119.1499,0 154.625,480.0001 152.1001,-480.0001 121.6875,0 -230.6875,720.0001 z"
   id="path63" /><path
   inkscape:connector-curvature="0"
   style="fill:#000000;fill-rule:nonzero;stroke:none"
   d="m 7084.5499,5045.0079 0,-313.2625 -262.7625,0 0,313.2625 -113.6875,0 0,-720.0001 113.6875,0 0,290.525 262.7625,0 0,-290.525 113.6875,0 0,720.0001 -113.6875,0 z"
   id="path65" /><path
   inkscape:connector-curvature="0"
   style="fill:#000000;fill-rule:nonzero;stroke:none"
   d="m 6114.6373,5045.0079 0,-720.0001 423.8625,0 0,113.6875 -310.3249,0 0,176.8375 209.4124,0 0,116.2126 -209.4124,0 0,197.05 333.0374,0 0,116.2125 -446.575,0 z"
   id="path67" /><path
   inkscape:connector-curvature="0"
   style="fill:#000000;fill-rule:nonzero;stroke:none"
   d="m 8967.2748,5045.0079 0,-720.0001 423.8751,0 0,113.6875 -310.3376,0 0,176.8375 209.4126,0 0,116.2126 -209.4126,0 0,197.05 333.0376,0 0,116.2125 -446.5751,0 z"
   id="path69" /><path
   inkscape:connector-curvature="0"
   style="fill:#000000;fill-rule:nonzero;stroke:none"
   d="m 7983.7374,5057.6454 c -106.1126,0 -174.325,-40.425 -219.8125,-128.85 -32.8376,-63.15 -53.0501,-154.1 -53.0501,-245.05 0,-113.6875 30.3125,-227.3626 80.8501,-290.5251 42.95,-53.05 103.5874,-80.8373 184.4249,-80.8373 108.6376,0 176.8625,45.4748 224.8625,146.5248 l -106.1125,45.475 c -40.4249,-60.6375 -63.1624,-75.8 -118.75,-75.8 -58.0999,0 -96,25.275 -121.2625,88.425 -17.6875,42.95 -27.8,106.1125 -27.8,166.7376 0,78.3125 17.6875,156.6375 45.4875,202.1127 25.2625,37.8873 58.1001,55.5748 108.6375,55.5748 48,0 83.3625,-25.2623 111.1625,-83.375 l 108.6375,40.4252 c -42.95,106.1125 -113.6875,159.1625 -217.2749,159.1625 z"
   id="path71" /></svg>