<?xml version="1.0" encoding="UTF-8" standalone="no"?>
<!-- Generator: Adobe Illustrator 12.0.1, SVG Export Plug-In  -->

<svg
   xmlns:dc="http://purl.org/dc/elements/1.1/"
   xmlns:cc="http://creativecommons.org/ns#"
   xmlns:rdf="http://www.w3.org/1999/02/22-rdf-syntax-ns#"
   xmlns:svg="http://www.w3.org/2000/svg"
   xmlns="http://www.w3.org/2000/svg"
   xmlns:sodipodi="http://sodipodi.sourceforge.net/DTD/sodipodi-0.dtd"
   xmlns:inkscape="http://www.inkscape.org/namespaces/inkscape"
   version="1.1"
   width="11890"
   height="7570"
   viewBox="-1 0 11890 7569.9999"
   enable-background="new -1 0 289 288"
   xml:space="preserve"
   id="svg2"
   inkscape:version="0.48.2 r9819"
   sodipodi:docname="AJAX2.svg"><metadata
   id="metadata50"><rdf:RDF><cc:Work
       rdf:about=""><dc:format>image/svg+xml</dc:format><dc:type
         rdf:resource="http://purl.org/dc/dcmitype/StillImage" /><dc:title></dc:title></cc:Work></rdf:RDF></metadata><sodipodi:namedview
   pagecolor="#ffffff"
   bordercolor="#666666"
   borderopacity="1"
   objecttolerance="10"
   gridtolerance="10"
   guidetolerance="10"
   inkscape:pageopacity="0"
   inkscape:pageshadow="2"
   inkscape:window-width="1280"
   inkscape:window-height="1004"
   id="namedview48"
   showgrid="false"
   fit-margin-top="0"
   fit-margin-left="0"
   fit-margin-right="0"
   fit-margin-bottom="0"
   inkscape:zoom="0.072429341"
   inkscape:cx="4135.1575"
   inkscape:cy="3568.1545"
   inkscape:window-x="-8"
   inkscape:window-y="-8"
   inkscape:window-maximized="1"
   inkscape:current-layer="svg2" />
<defs
   id="defs4">
</defs>





















<path
   inkscape:connector-curvature="0"
   style="fill:#ffffff;fill-rule:nonzero;stroke:#000000;stroke-width:10;stroke-linecap:butt;stroke-linejoin:miter;stroke-miterlimit:4;stroke-opacity:1;stroke-dasharray:none"
   d="m 11884.001,6754.999 c 0,447.35 -362.651,810 -810,810 l -10260.001,0 c -447.35,0 -810,-362.65 -810,-810 L 4,814.9995 c 0,-447.35 362.65,-810 810,-810 l 10260.001,0 c 447.349,0 810,362.65 810,810 l 0,5939.9995 z"
   id="path11" /><path
   inkscape:connector-curvature="0"
   style="fill:#000000;fill-rule:nonzero;stroke:none"
   d="m 11681.501,6754.999 c 0,334.975 -272.525,607.5 -607.5,607.5 l -10260.001,0 c -334.97625,0 -607.5,-272.525 -607.5,-607.5 l 0,-5939.9995 c 0,-334.97625 272.52375,-607.5 607.5,-607.5 l 10260.001,0 c 334.975,0 607.5,272.52375 607.5,607.5 l 0,5939.9995 z M 11074.001,72.4995 814,72.4995 c -409.415,0 -742.5,333.08375 -742.5,742.5 l 0,5939.9995 c 0,409.4126 333.085,742.5 742.5,742.5 l 10260.001,0 c 409.413,0 742.5,-333.0874 742.5,-742.5 l 0,-5939.9995 c 0,-409.41625 -333.087,-742.5 -742.5,-742.5 z"
   id="path13" /><path
   inkscape:connector-curvature="0"
   style="fill:#000000;fill-rule:nonzero;stroke:none"
   d="m 1695.8,4684.999 0,-391.575 -405.95,0 0,391.575 -161.7525,0 0,-900 161.7525,0 0,347.375 405.95,0 0,-347.375 161.75,0 0,900 -161.75,0 z"
   id="path15" /><path
   inkscape:connector-curvature="0"
   style="fill:#000000;fill-rule:nonzero;stroke:none"
   d="m 2488.9125,3930.2615 c -136.0875,0 -218.375,113.6875 -218.375,303.1625 0,192.625 82.2875,306.3125 218.375,306.3125 170.925,0 212.0625,-167.375 212.0625,-306.3125 0,-189.4749 -75.9625,-303.1624 -212.0625,-303.1624 z m 0,770.525 c -265.8625,0 -382.9625,-240 -382.9625,-467.3625 0,-287.375 145.5875,-464.2125 382.9625,-464.2125 221.5625,0 373.4875,186.3125 373.4875,461.05 0,281.05 -145.6,470.525 -373.4875,470.525 z"
   id="path17" /><path
   inkscape:connector-curvature="0"
   style="fill:#000000;fill-rule:nonzero;stroke:none"
   d="m 3511.9125,4684.999 -171.3,0 -327.0125,-900 171.2875,0 242.9375,656.85 242.925,-656.8495 171.3,0 -330.1375,899.9997 z"
   id="path19" /><path
   inkscape:connector-curvature="0"
   style="fill:#000000;fill-rule:nonzero;stroke:none"
   d="m 9079.825,4684.999 0,-900 161.625,0 0,761.05 513.375,0 0,138.95 -675,0 z"
   id="path21" /><path
   inkscape:connector-curvature="0"
   style="fill:#000000;fill-rule:nonzero;stroke:none"
   d="m 8659.4875,4684.999 -431.3375,-618.9499 0,618.9499 -158.575,0 0,-900 158.575,0 415.475,593.6875 0,-593.6875 155.4,0 0,900 -139.5375,0 z"
   id="path23" /><path
   inkscape:connector-curvature="0"
   style="fill:#000000;fill-rule:nonzero;stroke:none"
   d="m 7447.7,3930.2615 c -136.1,0 -218.3875,113.6875 -218.3875,303.1625 0,192.625 82.2875,306.3125 218.3875,306.3125 170.9125,0 212.0625,-167.375 212.0625,-306.3125 0,-189.4749 -75.975,-303.1624 -212.0625,-303.1624 z m 0,770.525 c -265.875,0 -382.975,-240 -382.975,-467.3625 0,-287.375 145.5875,-464.2125 382.975,-464.2125 221.55,0 373.475,186.3125 373.475,461.05 0,281.05 -145.6,470.525 -373.475,470.525 z"
   id="path25" /><path
   inkscape:connector-curvature="0"
   style="fill:#000000;fill-rule:nonzero;stroke:none"
   d="m 10381.064,4318.6865 0,366.3125 -161,0 0,-366.3125 -378.839,-533.6875 198.888,0 262.026,366.3125 258.875,-366.3125 198.887,0 -378.837,533.6875 z"
   id="path27" /><path
   inkscape:connector-curvature="0"
   style="fill:#000000;fill-rule:nonzero;stroke:none"
   d="m 4742.05,4684.999 c 0,-107.375 22.2,-186.3125 72.9375,-274.7375 79.2875,-132.6375 193.4625,-214.7375 358.3875,-258.95 101.4875,-28.425 136.375,-60 136.375,-113.675 0,-66.325 -63.4375,-104.2125 -177.6125,-104.2125 -117.3375,0 -202.975,28.4125 -279.0875,97.8875 l -111,-123.15 c 104.6625,-91.5875 234.6875,-138.9625 380.575,-138.9625 212.5,0 348.875,104.2125 348.875,268.4375 0,75.775 -31.725,145.2625 -91.975,195.7875 -28.55,22.1 -69.775,44.2 -133.2125,63.15 -120.5125,34.7375 -155.4,50.525 -209.3125,97.9 -41.225,34.7375 -66.6,69.4625 -98.325,129.475 l 532.825,0 0,161.05 -729.45,0 z"
   id="path29" /><path
   inkscape:connector-curvature="0"
   style="fill:#000000;fill-rule:nonzero;stroke:none"
   d="m 5952.775,4306.0615 0,205.25 -161.325,0 0,-205.25 -211.95,0 0,-161.0625 211.95,0 0,-202.0999 161.325,0 0,202.0999 211.95,0 0,161.0625 -211.95,0 z"
   id="path31" /><path
   inkscape:connector-curvature="0"
   style="fill:#000000;fill-rule:nonzero;stroke:none"
   d="m 6163.375,5404.999 0,607.5 776.975,-200.5375 c 5.175,-1.275 10.575,-1.9625 16.15,-1.9625 37.275,0 67.5,30.225 67.5,67.5 0,18.7125 -7.6125,35.6375 -19.9125,47.8625 L 5944,6889.999 4883.9125,5925.3615 c -12.3,-12.225 -19.9125,-29.15 -19.9125,-47.8625 0,-37.275 30.225,-67.5 67.5,-67.5 5.575,0 10.975,0.6875 16.15,1.9625 l 776.975,200.5375 0,-607.5 438.75,0 z"
   id="path33" /><path
   inkscape:connector-curvature="0"
   style="fill:#000000;fill-rule:nonzero;stroke:none"
   d="m 9047.2125,1741.2115 c -108.875,0 -174.7,90.95 -174.7,242.525 0,154.1 65.825,245.05 174.7,245.05 136.7375,0 169.65,-133.9 169.65,-245.05 0,-151.575 -60.775,-242.525 -169.65,-242.525 z m 0,616.425 c -212.6875,0 -306.375,-192.0125 -306.375,-373.9 0,-229.9 116.475,-371.375 306.375,-371.375 177.25,0 298.7875,149.0625 298.7875,368.85 0,224.8375 -116.475,376.425 -298.7875,376.425 z"
   id="path35" /><path
   inkscape:connector-curvature="0"
   style="fill:#000000;fill-rule:nonzero;stroke:none"
   d="m 9847.7125,1753.8365 -207.3375,0 0,179.375 207.3375,0 c 63.125,0 103.525,-35.375 103.525,-88.425 0,-55.575 -40.4,-90.95 -103.525,-90.95 z m 103.525,591.1625 -116.15,-282.95 -194.7125,0 0,282.95 -128.775,0 0,-720 333.5875,0 c 53.025,0 85.85,7.575 123.725,30.3125 68.1745,37.9 111.1015,108.6375 111.1015,189.475 0,80.8375 -42.926,151.575 -116.1515,192 l 131.3015,308.2125 -143.9265,0 z"
   id="path37" /><path
   inkscape:connector-curvature="0"
   style="fill:#661f5c;fill-rule:nonzero;stroke:none"
   d="m 7262.6625,1987.2115 -162.4875,0 c 1.4625,-37.25 -3.7,-76.6875 -93.8375,-76.6875 -90.15,0 -109.325,31.7625 -115.125,56.975 -21.175,92.0125 389.1875,25.1875 339.7625,239.9 -39.0875,169.8125 -224.0625,200.475 -322.5,200.475 -143.5125,0 -288.3,-46 -257.25,-201.575 l 170.7875,0 c -11.325,49.3 13.55,85.4625 117.925,85.4625 85.4125,0 114.4,-38.3375 119.4375,-60.25 22.4375,-97.5125 -385.875,-24.1125 -335.7,-242.1125 19.6625,-85.4499 103,-194.9999 299.8875,-194.9999 123.3625,0 263.875,28.4874 239.1,192.8124 z m -101.925,573.4125 -2956.8125,0 -61.8875,0 -104.1625,0 307.5875,-1340.8412 166.05,0 -299.6875,1306.3662 2956.7375,0 -7.825,34.475 z m -21.475,94.7875 -256.6125,0 7.825,-34.4625 256.6,0 -7.8125,34.4625 z m -1116.325,0 7.8125,-34.4625 256.6,0 -7.8125,34.4625 -256.6,0 z m -859.7375,0 7.8,-34.4625 256.6125,0 -7.8,34.4625 -256.6125,0 z m -859.7375,0 7.8125,-34.4625 256.6,0 -7.8,34.4625 -256.6125,0 z m 2814.325,94.8 -3973.5625,0 7.8,-34.475 3973.5625,0 -7.8,34.475 z m -3409.65,-129.2624 -7.8125,34.4625 -256.575,0 7.7875,-34.4625 256.6,0 z M 3045.625,2101.1365 c 48.4125,-210.325 223.6,-306.7375 393.225,-306.7375 169.6,0 300.425,96.4125 252.025,306.7375 -48.4125,210.3375 -223.6125,306.7375 -393.225,306.7375 -169.6125,0 -300.425,-96.4 -252.025,-306.7375 z m -288.7875,649.075 -177.9125,0 256.9875,-1113.3997 -467.7625,0 32.0125,-139.125 1420.4,0 -32.0125,139.125 -774.725,0 -256.9875,1113.3997 z m 1424.95,-1530.4286 -307.5875,1340.8413 -166.0625,0 307.6,-1340.8412 166.05,0 z m 659.3875,277.9039 389.0375,0 c 164.85,0 242.0625,97.5 206.5,251.95 -16.3875,71.2249 -100.4375,250.8749 -329.3625,250.8749 l -204,0 -90.9375,392.0251 -177.8875,0 206.65,-894.85 z m 887.175,296.7124 c 88.9625,0 245.6625,25.2 212.6125,168.7123 l -72.6,315.4877 c -15.875,69.0374 -2.825,84.375 15.8375,90.9375 l -5.2875,23 -179.1,0 c -3.1875,-27.375 -3.55,-36.1375 0.4625,-69 -46.275,36.1374 -110.75,84.3375 -223.4375,84.3375 -94.875,0 -180.7875,-49.2875 -153.0625,-169.7875 26.225,-113.9375 117.8625,-171.9875 226.7125,-186.2375 l 154.25,-20.8251 c 26.8375,-3.275 61.125,-13.125 68.7,-46 14.875,-64.6375 -50.7875,-67.9249 -93.4875,-67.9249 -83.0375,0 -108.1,47.0999 -120.6875,81.075 l -160.0875,0 c 60.0625,-178.575 199.9,-203.775 329.175,-203.775 z m 263.4,411.8999 170.8,0 c -11.3625,49.3001 13.5375,85.4625 117.925,85.4625 85.3875,0 114.375,-38.3375 119.425,-60.25 22.4375,-97.5124 -385.8625,-24.1126 -335.6875,-242.1125 19.6625,-85.4499 102.9875,-194.9999 299.875,-194.9999 123.3625,0 263.8875,28.4875 239.1125,192.8124 l -162.4875,0 c 1.4375,-37.25 -3.7125,-76.6875 -93.85,-76.6875 -90.1375,0 -109.3125,31.7626 -115.125,56.975 -21.1625,92.0125 389.175,25.1875 339.75,239.8999 -39.0625,169.8125 -224.0375,200.475 -322.4875,200.475 -143.5125,0 -288.325,-46 -257.25,-201.5749 z M 1792.8375,904.9995 l 0,2159.9995 6048,0 0,-2159.9995 -6048,0 z"
   id="path43" /><path
   inkscape:connector-curvature="0"
   style="fill:#661f5c;fill-rule:nonzero;stroke:none"
   d="m 5260.575,1741.974 c 17.6375,-76.675 -21.3,-108.4625 -131.6,-108.4625 l -141.1625,0 -53.2,231.1625 164.8625,0 c 132.85,0 153.025,-87.6375 161.1,-122.7 z"
   id="path39" /><path
   inkscape:connector-curvature="0"
   style="fill:#661f5c;fill-rule:nonzero;stroke:none"
   d="m 3520.075,2101.1365 c 17.1375,-74.4875 17.1125,-177.4625 -110.9875,-177.4625 -128.0875,0 -175.5125,102.9751 -192.6625,177.4625 -17.15,74.5 -17.125,177.4625 110.9875,177.4625 128.0875,0 175.5125,-102.9625 192.6625,-177.4625 z"
   id="path41" /><path
   inkscape:connector-curvature="0"
   style="fill:#661f5c;fill-rule:nonzero;stroke:none"
   d="m 5492.1,2228.224 c -12.35,53.6751 28.95,70.1126 60.9625,70.1126 73.55,0 158.35,-43.8375 174.7375,-115.0376 l 17.1625,-74.4874 c -19.3875,12.0499 -48.95,21.9124 -120,31.7749 -63.95,9.8375 -118.2375,24.1 -132.8625,87.6375 z"
   id="path45" /></svg>