<?xml version="1.0" encoding="UTF-8" standalone="no"?>
<!-- Generator: Adobe Illustrator 12.0.1, SVG Export Plug-In  -->

<svg
   xmlns:dc="http://purl.org/dc/elements/1.1/"
   xmlns:cc="http://creativecommons.org/ns#"
   xmlns:rdf="http://www.w3.org/1999/02/22-rdf-syntax-ns#"
   xmlns:svg="http://www.w3.org/2000/svg"
   xmlns="http://www.w3.org/2000/svg"
   xmlns:sodipodi="http://sodipodi.sourceforge.net/DTD/sodipodi-0.dtd"
   xmlns:inkscape="http://www.inkscape.org/namespaces/inkscape"
   version="1.1"
   width="8110"
   height="7570"
   viewBox="-1 0 8110 7569.9999"
   enable-background="new -1 0 289 288"
   xml:space="preserve"
   id="svg2"
   inkscape:version="0.48.2 r9819"
   sodipodi:docname="AJAX1.svg"><metadata
   id="metadata50"><rdf:RDF><cc:Work
       rdf:about=""><dc:format>image/svg+xml</dc:format><dc:type
         rdf:resource="http://purl.org/dc/dcmitype/StillImage" /><dc:title></dc:title></cc:Work></rdf:RDF></metadata><sodipodi:namedview
   pagecolor="#ffffff"
   bordercolor="#666666"
   borderopacity="1"
   objecttolerance="10"
   gridtolerance="10"
   guidetolerance="10"
   inkscape:pageopacity="0"
   inkscape:pageshadow="2"
   inkscape:window-width="1280"
   inkscape:window-height="1004"
   id="namedview48"
   showgrid="false"
   fit-margin-top="0"
   fit-margin-left="0"
   fit-margin-right="0"
   fit-margin-bottom="0"
   inkscape:zoom="0.072429341"
   inkscape:cx="4130.47"
   inkscape:cy="1678.7903"
   inkscape:window-x="-8"
   inkscape:window-y="-8"
   inkscape:window-maximized="1"
   inkscape:current-layer="svg2" />
<defs
   id="defs4">
</defs>





















<path
   inkscape:connector-curvature="0"
   style="fill:#ffffff;fill-rule:nonzero;stroke:#000000;stroke-width:10;stroke-linecap:butt;stroke-linejoin:miter;stroke-miterlimit:4;stroke-opacity:1;stroke-dasharray:none"
   d="m 8104,6754.9997 c 0,447.35 -362.65,810 -810,810 l -6480,0 c -447.35,0 -810,-362.65 -810,-810 L 4,814.99985 C 4,367.6498 366.65,4.9998 814,4.9998 l 6480,0 c 447.35,0 810,362.65 810,810.00005 l 0,5939.99985 z"
   id="path11" /><path
   inkscape:connector-curvature="0"
   style="fill:#000000;fill-rule:nonzero;stroke:none"
   d="m 7901.5,6754.9997 c 0,334.975 -272.525,607.5 -607.5,607.5 l -6480,0 c -334.97625,0 -607.5,-272.525 -607.5,-607.5 l 0,-5939.99985 C 206.5,480.0236 479.02375,207.4998 814,207.4998 l 6480,0 c 334.975,0 607.5,272.5238 607.5,607.50005 l 0,5939.99985 z M 7294,72.4998 l -6480,0 c -409.41625,0 -742.5,333.0838 -742.5,742.50005 l 0,5939.99985 c 0,409.4125 333.08375,742.5 742.5,742.5 l 6480,0 c 409.4125,0 742.5,-333.0875 742.5,-742.5 l 0,-5939.99985 C 8036.5,405.5836 7703.4125,72.4998 7294,72.4998 z"
   id="path13" /><path
   inkscape:connector-curvature="0"
   style="fill:#000000;fill-rule:nonzero;stroke:none"
   d="m 4184.6125,4684.9997 0,-900 161.625,0 0,761.05 513.375,0 0,138.95 -675,0 z"
   id="path23" /><path
   inkscape:connector-curvature="0"
   style="fill:#000000;fill-rule:nonzero;stroke:none"
   d="m 3811.075,4684.9997 -431.3375,-618.95 0,618.95 -158.575,0 0,-900 158.575,0 415.475,593.6875 0,-593.6875 155.4,0 0,900 -139.5375,0 z"
   id="path25" /><path
   inkscape:connector-curvature="0"
   style="fill:#000000;fill-rule:nonzero;stroke:none"
   d="m 2640.6875,3930.2622 c -136.1,0 -218.3875,113.6875 -218.3875,303.1625 0,192.625 82.2875,306.3125 218.3875,306.3125 170.9125,0 212.0625,-167.375 212.0625,-306.3125 0,-189.475 -75.975,-303.1625 -212.0625,-303.1625 z m 0,770.525 c -265.875,0 -382.975,-240 -382.975,-467.3625 0,-287.375 145.5875,-464.2125 382.975,-464.2125 221.55,0 373.475,186.3125 373.475,461.05 0,281.05 -145.6,470.525 -373.475,470.525 z"
   id="path27" /><path
   inkscape:connector-curvature="0"
   style="fill:#000000;fill-rule:nonzero;stroke:none"
   d="m 5471.45,4318.6872 0,366.3125 -161,0 0,-366.3125 -378.8375,-533.6875 198.8875,0 262.025,366.3125 258.875,-366.3125 198.8875,0 -378.8375,533.6875 z"
   id="path29" /><path
   inkscape:connector-curvature="0"
   style="fill:#000000;fill-rule:nonzero;stroke:none"
   d="m 4273.375,5404.9997 0,607.5 776.975,-200.5375 c 5.175,-1.275 10.575,-1.9625 16.15,-1.9625 37.275,0 67.5,30.225 67.5,67.5 0,18.7125 -7.6125,35.65 -19.9125,47.875 L 4054,6889.9997 2993.9125,5925.3747 c -12.3,-12.225 -19.9125,-29.1625 -19.9125,-47.875 0,-37.275 30.225,-67.5 67.5,-67.5 5.575,0 10.975,0.6875 16.15,1.9625 l 776.975,200.5375 0,-607.5 438.75,0 z"
   id="path31" /><path
   inkscape:connector-curvature="0"
   style="fill:#661f5c;fill-rule:nonzero;stroke:none"
   d="m 6499.8263,1987.2122 -162.4875,0 c 1.4625,-37.25 -3.7,-76.6875 -93.8375,-76.6875 -90.15,0 -109.3375,31.7625 -115.125,56.9625 -21.175,92.025 389.1875,25.2 339.7625,239.9125 -39.0875,169.8 -224.0625,200.475 -322.5,200.475 -143.5125,0 -288.3,-46 -257.2625,-201.575 l 170.8,0 c -11.325,49.3 13.55,85.4625 117.925,85.4625 85.4125,0 114.4,-38.3375 119.4375,-60.2624 22.4375,-97.5 -385.875,-24.1 -335.7,-242.1 19.6625,-85.4374 103,-194.9999 299.8875,-194.9999 123.3625,0 263.875,28.4875 239.1,192.8124 z m -101.925,573.4125 -2956.8125,0 -61.8875,0 -104.1625,0 307.5875,-1340.8424 166.05,0 -299.6875,1306.3674 2956.7375,0 -7.825,34.475 z m -21.475,94.7875 -256.6125,0 7.825,-34.4625 256.6,0 -7.8125,34.4625 z m -1116.325,0 7.8125,-34.4625 256.6,0 -7.8125,34.4625 -256.6,0 z m -859.75,0 7.8125,-34.4625 256.6125,0 -7.8,34.4625 -256.625,0 z m -859.725,0 7.8125,-34.4625 256.6,0 -7.8125,34.4625 -256.6,0 z m 2814.325,94.8 -3973.575,0 7.8125,-34.475 3973.5625,0 -7.8,34.475 z m -3409.65,-129.2625 -7.8125,34.4625 -256.5875,0 7.8,-34.4625 256.6,0 z m -662.5125,-519.8249 c 48.4,-210.3124 223.6,-306.7249 393.2125,-306.7249 169.6125,0 300.4375,96.4125 252.0375,306.7249 -48.4125,210.3499 -223.6125,306.75 -393.225,306.75 -169.6125,0 -300.4387,-96.4001 -252.025,-306.75 z M 1994,2750.2122 l -177.9125,0 256.9751,-1113.3999 -467.7626,0 32.0125,-139.125 1420.4138,0 -32.0125,139.125 -774.7387,0 L 1994,2750.2122 z m 1424.9513,-1530.4299 -307.5875,1340.8424 -166.0625,0 307.6,-1340.8424 166.05,0 z m 659.3875,277.905 389.025,0 c 164.8625,0 242.075,97.5 206.5125,251.95 -16.4,71.225 -100.4375,250.8749 -329.3625,250.8749 l -204,0 -90.9375,392.025 -177.8875,0 206.65,-894.8499 z m 887.175,296.7125 c 88.9625,0 245.65,25.2 212.6125,168.7124 l -72.6,315.4875 c -15.875,69.0375 -2.825,84.375 15.8375,90.9375 l -5.2875,23 -179.1,0 c -3.1875,-27.375 -3.55,-36.1375 0.4625,-69 -46.275,36.1375 -110.75,84.3375 -223.4375,84.3375 -94.8875,0 -180.7875,-49.2875 -153.0625,-169.7875 26.225,-113.9375 117.8625,-171.9875 226.7125,-186.2375 l 154.2375,-20.825 c 26.8375,-3.275 61.1375,-13.125 68.7,-46 14.875,-64.6375 -50.775,-67.925 -93.4875,-67.925 -83.025,0 -108.0875,47.1 -120.675,81.0625 l -160.1,0 c 60.075,-178.5624 199.9125,-203.7624 329.1875,-203.7624 z m 263.3875,411.8999 170.8125,0 c -11.3625,49.3 13.5375,85.4625 117.9125,85.4625 85.3875,0 114.3875,-38.3375 119.4375,-60.2625 22.425,-97.5 -385.8625,-24.1 -335.6875,-242.1 19.6625,-85.4374 102.9875,-194.9999 299.875,-194.9999 123.3625,0 263.8875,28.4875 239.1125,192.8124 l -162.5,0 c 1.45,-37.25 -3.7,-76.6875 -93.8375,-76.6875 -90.1375,0 -109.3125,31.7625 -115.125,56.9625 -21.1625,92.025 389.175,25.2 339.75,239.9125 -39.0625,169.8 -224.0375,200.475 -322.4875,200.475 -143.5125,0 -288.325,-46 -257.2625,-201.575 z m -4198.9,-1301.29985 0,2159.99985 6048,0 0,-2159.99985 -6048,0 z"
   id="path21" /><path
   inkscape:connector-curvature="0"
   style="fill:#661f5c;fill-rule:nonzero;stroke:none"
   d="m 4497.7375,1741.9748 c 17.6375,-76.675 -21.3,-108.4625 -131.6125,-108.4625 l -141.15,0 -53.2125,231.1625 164.875,0 c 132.85,0 153.025,-87.6375 161.1,-122.7 z"
   id="path15" /><path
   inkscape:connector-curvature="0"
   style="fill:#661f5c;fill-rule:nonzero;stroke:none"
   d="m 2757.225,2101.1248 c 17.15,-74.475 17.125,-177.45 -110.975,-177.45 -128.1,0 -175.525,102.975 -192.6625,177.45 -17.15,74.5125 -17.125,177.475 110.9875,177.475 128.0875,0 175.5,-102.9625 192.65,-177.475 z"
   id="path17" /><path
   inkscape:connector-curvature="0"
   style="fill:#661f5c;fill-rule:nonzero;stroke:none"
   d="m 4729.2625,2228.2248 c -12.35,53.675 28.95,70.1125 60.95,70.1125 73.5625,0 158.3625,-43.8375 174.75,-115.0375 l 17.15,-74.4875 c -19.3875,12.05 -48.9375,21.9125 -119.9875,31.775 -63.95,9.8375 -118.2375,24.1 -132.8625,87.6375 z"
   id="path19" /></svg>