<?xml version="1.0" encoding="UTF-8" standalone="no"?>
<!-- Generator: Adobe Illustrator 12.0.1, SVG Export Plug-In  -->

<svg
   xmlns:dc="http://purl.org/dc/elements/1.1/"
   xmlns:cc="http://creativecommons.org/ns#"
   xmlns:rdf="http://www.w3.org/1999/02/22-rdf-syntax-ns#"
   xmlns:svg="http://www.w3.org/2000/svg"
   xmlns="http://www.w3.org/2000/svg"
   xmlns:sodipodi="http://sodipodi.sourceforge.net/DTD/sodipodi-0.dtd"
   xmlns:inkscape="http://www.inkscape.org/namespaces/inkscape"
   version="1.1"
   width="10270"
   height="5950"
   viewBox="-1 0 10270 5949.9999"
   enable-background="new -1 0 289 288"
   xml:space="preserve"
   id="svg2"
   inkscape:version="0.48.2 r9819"
   sodipodi:docname="AJAX4.svg"><metadata
   id="metadata50"><rdf:RDF><cc:Work
       rdf:about=""><dc:format>image/svg+xml</dc:format><dc:type
         rdf:resource="http://purl.org/dc/dcmitype/StillImage" /><dc:title></dc:title></cc:Work></rdf:RDF></metadata><sodipodi:namedview
   pagecolor="#ffffff"
   bordercolor="#666666"
   borderopacity="1"
   objecttolerance="10"
   gridtolerance="10"
   guidetolerance="10"
   inkscape:pageopacity="0"
   inkscape:pageshadow="2"
   inkscape:window-width="1280"
   inkscape:window-height="1004"
   id="namedview48"
   showgrid="false"
   fit-margin-top="0"
   fit-margin-left="0"
   fit-margin-right="0"
   fit-margin-bottom="0"
   inkscape:zoom="0.072429341"
   inkscape:cx="4186.0296"
   inkscape:cy="2314.1803"
   inkscape:window-x="-8"
   inkscape:window-y="-8"
   inkscape:window-maximized="1"
   inkscape:current-layer="svg2" />
<defs
   id="defs4">
</defs>





















<path
   inkscape:connector-curvature="0"
   style="fill:#ffffff;fill-rule:nonzero;stroke:#000000;stroke-width:10;stroke-linecap:butt;stroke-linejoin:miter;stroke-miterlimit:4;stroke-opacity:1;stroke-dasharray:none"
   d="m 10264.001,5404.9991 c 0,298.2375 -241.764,540 -540.001,540 l -9180,0 c -298.23375,0 -540,-241.7625 -540,-540 L 4,544.99955 c 0,-298.23375 241.76625,-540 540,-540 l 9180,0 c 298.237,0 540.001,241.76625 540.001,540 l 0,4859.99955 z"
   id="path11" /><path
   inkscape:connector-curvature="0"
   style="fill:#000000;fill-rule:nonzero;stroke:none"
   d="m 10061.501,5404.9991 c 0,186.1 -151.401,337.5 -337.501,337.5 l -9180,0 c -186.09875,0 -337.5,-151.4 -337.5,-337.5 l 0,-4859.99955 c 0,-186.09875 151.40125,-337.5 337.5,-337.5 l 9180,0 c 186.1,0 337.501,151.40125 337.501,337.5 l 0,4859.99955 z M 9724,72.49955 l -9180,0 c -260.5375,0 -472.5,211.9625 -472.5,472.5 l 0,4859.99955 c 0,260.5376 211.9625,472.5 472.5,472.5 l 9180,0 c 260.5375,0 472.501,-211.9624 472.501,-472.5 l 0,-4859.99955 c 0,-260.5375 -211.9635,-472.5 -472.501,-472.5 z"
   id="path13" /><path
   inkscape:connector-curvature="0"
   style="fill:#000000;fill-rule:nonzero;stroke:none"
   d="m 2029.225,1804.9991 0,-899.99955 659.1625,0 0,161.05215 -494.375,0 0,167.3687 269.375,0 0,164.2162 -269.375,0 0,246.3125 510.2125,0 0,161.05 -675,0 z"
   id="path15" /><path
   inkscape:connector-curvature="0"
   style="fill:#000000;fill-rule:nonzero;stroke:none"
   d="m 5777.275,1804.9991 0,-899.99955 659.1625,0 0,161.05215 -494.375,0 0,167.3687 269.3625,0 0,164.2162 -269.3625,0 0,246.3125 510.2125,0 0,161.05 -675,0 z"
   id="path17" /><path
   inkscape:connector-curvature="0"
   style="fill:#000000;fill-rule:nonzero;stroke:none"
   d="m 4321.4,1066.0517 -271.8,0 0,224.2099 271.8,0 c 78.9125,0 132.5625,-44.2113 132.5625,-110.5263 0,-69.4737 -53.65,-113.6836 -132.5625,-113.6836 z m 154.65,350.5224 c -50.4875,28.425 -91.525,34.7375 -160.9625,34.7375 l -265.4875,0 0,353.6875 -164.125,0 0,-900.0008 429.6125,0 c 69.4375,0 110.475,9.4725 160.9625,37.8925 85.225,47.37125 138.875,135.7908 138.875,236.8445 0,94.7388 -53.65,189.4763 -138.875,236.8388 z"
   id="path19" /><path
   inkscape:connector-curvature="0"
   style="fill:#000000;fill-rule:nonzero;stroke:none"
   d="m 5233.9625,1066.0517 -259.175,0 0,224.2099 259.175,0 c 78.9125,0 129.4125,-44.2087 129.4125,-110.5262 0,-69.4738 -50.5,-113.6837 -129.4125,-113.6837 z m 129.4125,738.9474 -145.1875,-353.6875 -243.4,0 0,353.6875 -160.9625,0 0,-899.99955 416.9875,0 c 66.275,0 107.3125,9.4725 154.65,37.895 85.225,47.3675 138.875,135.78705 138.875,236.84085 0,101.0512 -53.65,189.4762 -145.1875,240.0012 l 164.125,385.2625 -179.9,0 z"
   id="path21" /><path
   inkscape:connector-curvature="0"
   style="fill:#000000;fill-rule:nonzero;stroke:none"
   d="m 6951.625,1401.1366 c -40.0625,-11.0625 -140.8,-35.2375 -174.7875,-55.175 -67.75,-39.7125 -119.525,-104.6663 -119.525,-200.9613 0,-148.422 126.85,-249.4745 310.8,-249.4745 133.2,0 244.2125,44.21125 336.1875,138.9459 l -120.525,107.3699 c -57.0875,-60 -130.025,-88.4212 -215.6625,-88.4212 -91.975,0 -145.8875,34.7374 -145.8875,91.5799 0,50.525 31.7125,72.6313 142.7125,97.8938 120.525,25.2675 199.8125,50.53 250.55,75.7925 79.3,41.05 130.0375,126.3125 130.0375,224.2125 0,91.575 -41.225,161.05 -126.8625,211.575 -63.425,37.9002 -145.8875,60 -228.35,60 -155.4,0 -272.75,-56.8375 -374.2375,-173.6875 l 130.025,-101.05 c 66.6125,78.9502 139.55,113.6875 241.0375,113.6875 114.175,0 196.6375,-50.525 196.6375,-116.8498 0,-84.4749 -91.8875,-96.7249 -232.15,-135.4375 z"
   id="path23" /><path
   inkscape:connector-curvature="0"
   style="fill:#000000;fill-rule:nonzero;stroke:none"
   d="m 7844.875,1401.1366 c -40.0625,-11.0625 -140.7875,-35.2375 -174.7875,-55.175 -67.75,-39.7125 -119.525,-104.6663 -119.525,-200.9613 0,-148.422 126.85,-249.4745 310.8,-249.4745 133.2,0 244.2125,44.21125 336.175,138.9459 l -120.5125,107.3699 c -57.0875,-60 -130.025,-88.4212 -215.6625,-88.4212 -91.975,0 -145.8875,34.7374 -145.8875,91.5799 0,50.525 31.7125,72.6313 142.7125,97.8938 120.525,25.2675 199.8125,50.53 250.55,75.7925 79.3,41.05 130.0375,126.3125 130.0375,224.2125 0,91.575 -41.2375,161.05 -126.8625,211.575 -63.425,37.9002 -145.8875,60 -228.35,60 -155.4,0 -272.75,-56.8375 -374.2375,-173.6875 l 130.025,-101.05 c 66.6125,78.9502 139.55,113.6875 241.0375,113.6875 114.175,0 196.6375,-50.525 196.6375,-116.8498 0,-84.4749 -91.8875,-96.7249 -232.15,-135.4375 z"
   id="path25" /><path
   inkscape:connector-curvature="0"
   style="fill:#000000;fill-rule:nonzero;stroke:none"
   d="m 3461.1625,1804.9991 -203,-318.95 -199.825,318.95 -190.3125,0 294.9875,-473.6875 -269.6125,-426.31205 193.4875,0 171.275,274.73585 171.275,-274.73585 193.4875,0 -266.4375,426.31205 294.9875,473.6875 -190.3125,0 z"
   id="path27" /><path
   inkscape:connector-curvature="0"
   style="fill:#000000;fill-rule:nonzero;stroke:none"
   d="m 5712.575,4340.7866 c -40.9875,-22.1 -88.3,-34.7375 -135.6,-34.7375 l -136.55,0 0,577.9 136.55,0 c 47.3,0 91.45,-12.625 129.3,-34.7375 94.6125,-50.525 138.7625,-132.625 138.7625,-255.7875 0,-120 -44.15,-202.1 -132.4625,-252.6375 z m 75.7,650.5375 c -63.075,34.7377 -138.7625,53.6752 -211.3,53.6752 l -300.55,0 0,-900 300.55,0 c 75.6875,0 148.225,18.9499 214.45,56.85 138.7625,78.9375 214.45,214.7375 214.45,391.575 0,180 -75.6875,318.95 -217.6,397.8999 z"
   id="path29" /><path
   inkscape:connector-curvature="0"
   style="fill:#000000;fill-rule:nonzero;stroke:none"
   d="m 3333.775,5044.9991 0,-900 659.1625,0 0,161.05 -494.375,0 0,167.375 269.375,0 0,164.2125 -269.375,0 0,246.3125 510.2125,0 0,161.05 -675,0 z"
   id="path31" /><path
   inkscape:connector-curvature="0"
   style="fill:#000000;fill-rule:nonzero;stroke:none"
   d="m 4832.6875,5044.9991 -431.3375,-618.9375 0,618.9375 -158.575,0 0,-900 158.575,0 415.475,593.6875 0,-593.6875 155.4125,0 0,900 -139.55,0 z"
   id="path33" /><path
   inkscape:connector-curvature="0"
   style="fill:#000000;fill-rule:nonzero;stroke:none"
   d="m 6540.325,4641.1366 c -40.0625,-11.0625 -140.7875,-35.2375 -174.775,-55.1625 -67.75,-39.725 -119.5375,-104.675 -119.5375,-200.975 0,-148.4125 126.8625,-249.475 310.8,-249.475 133.2125,0 244.2125,44.2125 336.1875,138.95 l -120.525,107.375 c -57.0875,-60 -130.025,-88.425 -215.6625,-88.425 -91.975,0 -145.8875,34.7375 -145.8875,91.575 0,50.525 31.7125,72.6375 142.725,97.9 120.5125,25.2625 199.8,50.525 250.55,75.7875 79.2875,41.05 130.025,126.3125 130.025,224.2125 0,91.575 -41.225,161.05 -126.8625,211.575 -63.425,37.9 -145.8875,60 -228.35,60 -155.4,0 -272.75,-56.8375 -374.2375,-173.6875 l 130.0375,-101.05 c 66.6,78.95 139.55,113.6875 241.0375,113.6875 114.175,0 196.625,-50.525 196.625,-116.8375 0,-84.475 -91.8875,-96.7375 -232.15,-135.45 z"
   id="path35" /><path
   inkscape:connector-curvature="0"
   style="fill:#000000;fill-rule:nonzero;stroke:none"
   d="m 5991.2875,3441.2866 c -236.825,0 -382.0875,-186.3125 -382.0875,-467.375 0,-284.2 145.2625,-464.2125 382.0875,-464.2125 145.2625,0 277.8875,72.6375 347.3625,198.95 l -142.1,75.7875 c -25.2625,-37.8875 -37.9,-50.525 -63.1625,-66.3125 -34.725,-28.4125 -94.725,-47.3625 -142.1,-47.3625 -164.2,0 -217.8875,161.05 -217.8875,300 0,195.7875 82.1,309.475 217.8875,309.475 82.1,0 126.3125,-28.425 205.2625,-113.6875 l 142.1,75.7875 c -66.3125,126.325 -202.1,198.95 -347.3625,198.95 z"
   id="path37" /><path
   inkscape:connector-curvature="0"
   style="fill:#000000;fill-rule:nonzero;stroke:none"
   d="m 1720.3,3425.4991 0,-900 659.15,0 0,161.05 -494.3625,0 0,167.3626 269.3625,0 0,164.2125 -269.3625,0 0,246.325 510.2125,0 0,161.05 -675,0 z"
   id="path39" /><path
   inkscape:connector-curvature="0"
   style="fill:#000000;fill-rule:nonzero;stroke:none"
   d="m 5198.8,3425.4991 0,-900 162,0 0,900 -162,0 z"
   id="path41" /><path
   inkscape:connector-curvature="0"
   style="fill:#000000;fill-rule:nonzero;stroke:none"
   d="m 7348.45,3425.4991 0,-900 162,0 0,900 -162,0 z"
   id="path43" /><path
   inkscape:connector-curvature="0"
   style="fill:#000000;fill-rule:nonzero;stroke:none"
   d="m 9353.6125,3425.4991 -431.3375,-618.95 0,618.95 -158.575,0 0,-900 158.575,0 415.475,593.6875 0,-593.6875 155.4125,0 0,900 -139.55,0 z"
   id="path45" /><path
   inkscape:connector-curvature="0"
   style="fill:#000000;fill-rule:nonzero;stroke:none"
   d="m 8141.825,2670.7616 c -136.1,0 -218.3875,113.675 -218.3875,303.15 0,192.6375 82.2875,306.325 218.3875,306.325 170.9125,0 212.0625,-167.375 212.0625,-306.325 0,-189.475 -75.975,-303.15 -212.0625,-303.15 z m 0,770.525 c -265.8625,0 -382.975,-240 -382.975,-467.375 0,-287.3625 145.5875,-464.2125 382.975,-464.2125 221.55,0 373.475,186.325 373.475,461.0625 0,281.05 -145.5875,470.525 -373.475,470.525 z"
   id="path47" /><path
   inkscape:connector-curvature="0"
   style="fill:#000000;fill-rule:nonzero;stroke:none"
   d="m 1194.9875,2686.5491 -259.1725,0 0,224.2125 259.1725,0 c 78.9125,0 129.4,-44.2125 129.4,-110.525 0,-69.475 -50.4875,-113.6875 -129.4,-113.6875 z m 129.4,738.95 -145.1837,-353.6875 -243.3888,0 0,353.6875 -160.96875,0 0,-900 416.98505,0 c 66.2812,0 107.3187,9.475 154.6562,37.8875 85.2125,47.375 138.875,135.7875 138.875,236.85 0,101.05 -53.6625,189.475 -145.1875,240 l 164.125,385.2625 -179.9125,0 z"
   id="path49" /><path
   inkscape:connector-curvature="0"
   style="fill:#000000;fill-rule:nonzero;stroke:none"
   d="m 4673.4875,2686.5491 -259.175,0 0,224.2125 259.175,0 c 78.9,0 129.4,-44.2125 129.4,-110.525 0,-69.475 -50.5,-113.6875 -129.4,-113.6875 z m 129.4,738.95 -145.1875,-353.6875 -243.3875,0 0,353.6875 -160.9625,0 0,-900 416.975,0 c 66.275,0 107.3125,9.475 154.6625,37.8875 85.2125,47.375 138.875,135.7875 138.875,236.85 0,101.05 -53.6625,189.475 -145.1875,240 l 164.1125,385.2625 -179.9,0 z"
   id="path51" /><path
   inkscape:connector-curvature="0"
   style="fill:#000000;fill-rule:nonzero;stroke:none"
   d="m 2882.0375,3021.6241 c -40.05,-11.05 -140.7875,-35.225 -174.775,-55.1625 -67.75,-39.7125 -119.5375,-104.675 -119.5375,-200.9625 0,-148.425 126.8625,-249.475 310.8125,-249.475 133.2,0 244.2,44.2125 336.175,138.95 L 3114.2,2762.3366 c -57.0875,-60 -130.0375,-88.425 -215.6625,-88.425 -91.975,0 -145.8875,34.7375 -145.8875,91.5875 0,50.525 31.7125,72.625 142.7125,97.8875 120.5125,25.2625 199.8125,50.525 250.55,75.8 79.2875,41.05 130.0375,126.3125 130.0375,224.2 0,91.5875 -41.2375,161.0625 -126.8625,211.5875 -63.4375,37.8875 -145.8875,60 -228.35,60 -155.4,0 -272.75,-56.85 -374.2375,-173.6875 l 130.025,-101.05 c 66.6,78.95 139.55,113.6875 241.0375,113.6875 114.175,0 196.6375,-50.5375 196.6375,-116.85 0,-84.475 -91.8875,-96.725 -232.1625,-135.45 z"
   id="path53" /><path
   inkscape:connector-curvature="0"
   style="fill:#000000;fill-rule:nonzero;stroke:none"
   d="m 3811.1,2683.3866 0,742.1125 -157.7125,0 0,-742.1125 -258.65,0 0,-157.8875 675,0 0,157.8875 -258.6375,0 z"
   id="path55" /><path
   inkscape:connector-curvature="0"
   style="fill:#000000;fill-rule:nonzero;stroke:none"
   d="m 6906.2,2683.3866 0,742.1125 -157.7125,0 0,-742.1125 -258.6375,0 0,-157.8875 675,0 0,157.8875 -258.65,0 z"
   id="path57" /></svg>