<?xml version="1.0" encoding="UTF-8" standalone="no"?>
<!-- Generator: Adobe Illustrator 12.0.1, SVG Export Plug-In  -->

<svg
   xmlns:dc="http://purl.org/dc/elements/1.1/"
   xmlns:cc="http://creativecommons.org/ns#"
   xmlns:rdf="http://www.w3.org/1999/02/22-rdf-syntax-ns#"
   xmlns:svg="http://www.w3.org/2000/svg"
   xmlns="http://www.w3.org/2000/svg"
   xmlns:sodipodi="http://sodipodi.sourceforge.net/DTD/sodipodi-0.dtd"
   xmlns:inkscape="http://www.inkscape.org/namespaces/inkscape"
   version="1.1"
   width="8110"
   height="5950"
   viewBox="-1 0 8110 5949.9999"
   enable-background="new -1 0 289 288"
   xml:space="preserve"
   id="svg2"
   inkscape:version="0.48.2 r9819"
   sodipodi:docname="AJAX3.svg"><metadata
   id="metadata50"><rdf:RDF><cc:Work
       rdf:about=""><dc:format>image/svg+xml</dc:format><dc:type
         rdf:resource="http://purl.org/dc/dcmitype/StillImage" /><dc:title></dc:title></cc:Work></rdf:RDF></metadata><sodipodi:namedview
   pagecolor="#ffffff"
   bordercolor="#666666"
   borderopacity="1"
   objecttolerance="10"
   gridtolerance="10"
   guidetolerance="10"
   inkscape:pageopacity="0"
   inkscape:pageshadow="2"
   inkscape:window-width="1280"
   inkscape:window-height="1004"
   id="namedview48"
   showgrid="false"
   fit-margin-top="0"
   fit-margin-left="0"
   fit-margin-right="0"
   fit-margin-bottom="0"
   inkscape:zoom="0.072429341"
   inkscape:cx="4139.845"
   inkscape:cy="3546.548"
   inkscape:window-x="-8"
   inkscape:window-y="-8"
   inkscape:window-maximized="1"
   inkscape:current-layer="svg2" />
<defs
   id="defs4">
</defs>





















<path
   inkscape:connector-curvature="0"
   style="fill:#ffffff;fill-rule:nonzero;stroke:#000000;stroke-width:10;stroke-linecap:butt;stroke-linejoin:miter;stroke-miterlimit:4;stroke-opacity:1;stroke-dasharray:none"
   d="m 8104,5134.9995 c 0,447.35 -362.65,810 -810,810 l -6480,0 c -447.35,0 -810,-362.65 -810,-810 L 4,814.9997 c 0,-447.3512 362.65,-810 810,-810 l 6480,0 c 447.35,0 810,362.6488 810,810 l 0,4319.9998 z"
   id="path11" /><path
   inkscape:connector-curvature="0"
   style="fill:#000000;fill-rule:nonzero;stroke:none"
   d="m 7901.5,5134.9995 c 0,334.975 -272.525,607.5 -607.5,607.5 l -6480,0 c -334.97625,0 -607.5,-272.525 -607.5,-607.5 l 0,-4319.9998 c 0,-334.9762 272.52375,-607.5 607.5,-607.5 l 6480,0 c 334.975,0 607.5,272.5238 607.5,607.5 l 0,4319.9998 z M 7294,72.4997 l -6480,0 c -409.41625,0 -742.5,333.0838 -742.5,742.5001 l 0,4319.9997 c 0,409.4125 333.08375,742.5 742.5,742.5 l 6480,0 c 409.4125,0 742.5,-333.0875 742.5,-742.5 l 0,-4319.9997 C 8036.5,405.5835 7703.4125,72.4997 7294,72.4997 z"
   id="path13" /><path
   inkscape:connector-curvature="0"
   style="fill:#000000;fill-rule:nonzero;stroke:none"
   d="m 949.2275,1804.9995 0,-899.9998 659.16,0 0,161.0523 -494.37,0 0,167.3688 269.37,0 0,164.2162 -269.37,0 0,246.3125 510.2075,0 0,161.05 -674.9975,0 z"
   id="path15" /><path
   inkscape:connector-curvature="0"
   style="fill:#000000;fill-rule:nonzero;stroke:none"
   d="m 4697.275,1804.9995 0,-899.9998 659.1625,0 0,161.0523 -494.375,0 0,167.3688 269.3625,0 0,164.2162 -269.3625,0 0,246.3125 510.2125,0 0,161.05 -675,0 z"
   id="path17" /><path
   inkscape:connector-curvature="0"
   style="fill:#000000;fill-rule:nonzero;stroke:none"
   d="m 3241.4,1066.052 -271.8,0 0,224.21 271.8,0 c 78.9,0 132.5625,-44.2112 132.5625,-110.5262 0,-69.4738 -53.6625,-113.6837 -132.5625,-113.6837 z m 154.65,350.5225 c -50.5,28.425 -91.525,34.7375 -160.9625,34.7375 l -265.4875,0 0,353.6875 -164.125,0 0,-900.001 429.6125,0 c 69.4375,0 110.4625,9.4725 160.9625,37.8925 85.225,47.3712 138.875,135.791 138.875,236.8448 0,94.7387 -53.65,189.4762 -138.875,236.8387 z"
   id="path19" /><path
   inkscape:connector-curvature="0"
   style="fill:#000000;fill-rule:nonzero;stroke:none"
   d="m 4153.9625,1066.052 -259.175,0 0,224.21 259.175,0 c 78.9125,0 129.4,-44.2087 129.4,-110.5262 0,-69.4738 -50.4875,-113.6837 -129.4,-113.6837 z m 129.4,738.9475 -145.175,-353.6875 -243.4,0 0,353.6875 -160.9625,0 0,-899.9998 416.9875,0 c 66.275,0 107.3125,9.4725 154.65,37.895 85.225,47.3675 138.875,135.7873 138.875,236.8411 0,101.0512 -53.65,189.4762 -145.1875,240.0012 l 164.125,385.2625 -179.9125,0 z"
   id="path21" /><path
   inkscape:connector-curvature="0"
   style="fill:#000000;fill-rule:nonzero;stroke:none"
   d="m 5871.625,1401.137 c -40.0625,-11.0625 -140.8,-35.2375 -174.7875,-55.175 -67.75,-39.7125 -119.5375,-104.6662 -119.5375,-200.9612 0,-148.4223 126.8625,-249.4749 310.8125,-249.4749 133.2,0 244.2,44.2113 336.175,138.9461 l -120.5125,107.37 c -57.0875,-60 -130.0375,-88.4212 -215.6625,-88.4212 -91.975,0 -145.8875,34.7375 -145.8875,91.58 0,50.525 31.7125,72.6312 142.7125,97.8937 120.525,25.2675 199.8125,50.53 250.55,75.7925 79.3,41.05 130.0375,126.3125 130.0375,224.2125 0,91.575 -41.2375,161.05 -126.8625,211.575 -63.425,37.9001 -145.8875,60 -228.35,60 -155.4,0 -272.75,-56.8375 -374.2375,-173.6875 L 5666.1,1539.7371 c 66.6125,78.95 139.55,113.6875 241.0375,113.6875 114.175,0 196.6375,-50.5251 196.6375,-116.85 0,-84.475 -91.8875,-96.725 -232.15,-135.4375 z"
   id="path23" /><path
   inkscape:connector-curvature="0"
   style="fill:#000000;fill-rule:nonzero;stroke:none"
   d="m 6764.875,1401.137 c -40.0625,-11.0625 -140.8,-35.2375 -174.7875,-55.175 -67.75,-39.7125 -119.5375,-104.6662 -119.5375,-200.9612 0,-148.4223 126.8625,-249.4749 310.8125,-249.4749 133.2,0 244.2125,44.2113 336.175,138.9461 l -120.5125,107.37 c -57.0875,-60 -130.0375,-88.4212 -215.6625,-88.4212 -91.975,0 -145.8875,34.7375 -145.8875,91.58 0,50.525 31.7125,72.6312 142.7125,97.8937 120.525,25.2675 199.8125,50.53 250.55,75.7925 79.2875,41.05 130.0375,126.3125 130.0375,224.2125 0,91.575 -41.2375,161.05 -126.8625,211.575 -63.425,37.9001 -145.8875,60 -228.35,60 -155.4,0 -272.75,-56.8375 -374.2375,-173.6875 l 130.025,-101.0499 c 66.6125,78.95 139.55,113.6875 241.0375,113.6875 114.175,0 196.6375,-50.5251 196.6375,-116.85 0,-84.475 -91.8875,-96.725 -232.15,-135.4375 z"
   id="path25" /><path
   inkscape:connector-curvature="0"
   style="fill:#000000;fill-rule:nonzero;stroke:none"
   d="m 2381.1625,1804.9995 -203,-318.95 -199.8375,318.95 -190.3,0 294.9875,-473.6875 -269.6125,-426.3123 193.4875,0 171.275,274.7361 171.275,-274.7361 193.4875,0 -266.4375,426.3123 294.9875,473.6875 -190.3125,0 z"
   id="path27" /><path
   inkscape:connector-curvature="0"
   style="fill:#000000;fill-rule:nonzero;stroke:none"
   d="m 3486.1,2749.212 -126.275,303.1626 252.5625,0 L 3486.1,2749.212 z m 284.125,675.7876 -88.3875,-211.5749 -391.4625,0 -88.4,211.5749 -176.7875,0 378.8375,-900 164.1625,0 375.675,900 -173.6375,0 z"
   id="path29" /><path
   inkscape:connector-curvature="0"
   style="fill:#000000;fill-rule:nonzero;stroke:none"
   d="m 5176.4125,3424.9995 0,-900 659.1625,0 0,161.05 -494.3625,0 0,167.375 269.3625,0 0,164.2125 -269.3625,0 0,246.3125 510.2,0 0,161.0501 -675,0 z"
   id="path31" /><path
   inkscape:connector-curvature="0"
   style="fill:#000000;fill-rule:nonzero;stroke:none"
   d="m 2256.5875,3424.9995 0,-900 161.6125,0 0,761.05 513.3875,0 0,138.95 -675,0 z"
   id="path33" /><path
   inkscape:connector-curvature="0"
   style="fill:#000000;fill-rule:nonzero;stroke:none"
   d="m 4732.675,3424.9995 -431.3375,-618.95 0,618.95 -158.575,0 0,-900 158.575,0 415.475,593.6875 0,-593.6875 155.4,0 0,900 -139.5375,0 z"
   id="path35" /><path
   inkscape:connector-curvature="0"
   style="fill:#000000;fill-rule:nonzero;stroke:none"
   d="m 4632.575,4340.787 c -40.9875,-22.1 -88.3,-34.7375 -135.6,-34.7375 l -136.5625,0 0,577.9 136.5625,0 c 47.3,0 91.45,-12.625 129.3,-34.7375 94.6125,-50.525 138.7625,-132.625 138.7625,-255.7875 0,-120 -44.15,-202.1 -132.4625,-252.6375 z m 75.7,650.5375 c -63.075,34.7374 -138.7625,53.6749 -211.3,53.6749 l -300.55,0 0,-899.9998 300.55,0 c 75.6875,0 148.225,18.95 214.45,56.8501 138.7625,78.9375 214.45,214.7375 214.45,391.5748 0,180 -75.6875,318.95 -217.6,397.9001 z"
   id="path37" /><path
   inkscape:connector-curvature="0"
   style="fill:#000000;fill-rule:nonzero;stroke:none"
   d="m 2253.775,5044.9994 0,-899.9999 659.1625,0 0,161.05 -494.375,0 0,167.375 269.3625,0 0,164.2125 -269.3625,0 0,246.3125 510.2125,0 0,161.0499 -675,0 z"
   id="path39" /><path
   inkscape:connector-curvature="0"
   style="fill:#000000;fill-rule:nonzero;stroke:none"
   d="M 3752.6875,5044.9994 3321.35,4426.062 l 0,618.9374 -158.575,0 0,-899.9999 158.575,0 415.475,593.6875 0,-593.6875 155.4,0 0,899.9999 -139.5375,0 z"
   id="path41" /><path
   inkscape:connector-curvature="0"
   style="fill:#000000;fill-rule:nonzero;stroke:none"
   d="m 5460.325,4641.137 c -40.0625,-11.0625 -140.7875,-35.2376 -174.7875,-55.1626 -67.7375,-39.725 -119.525,-104.675 -119.525,-200.975 0,-148.4125 126.8625,-249.475 310.8,-249.475 133.2125,0 244.2125,44.2125 336.1875,138.95 l -120.525,107.375 c -57.0875,-60 -130.025,-88.425 -215.6625,-88.425 -91.975,0 -145.8875,34.7375 -145.8875,91.575 0,50.525 31.7125,72.6376 142.7125,97.9 120.525,25.2625 199.8125,50.525 250.55,75.7875 79.3,41.05 130.0375,126.3125 130.0375,224.2125 0,91.575 -41.225,161.0501 -126.8625,211.575 -63.425,37.9 -145.8875,60 -228.35,60 -155.4,0 -272.75,-56.8375 -374.2375,-173.6875 l 130.0375,-101.05 c 66.6,78.95 139.55,113.6875 241.0375,113.6875 114.175,0 196.625,-50.525 196.625,-116.8375 0,-84.475 -91.8875,-96.7375 -232.15,-135.4499 z"
   id="path43" /></svg>