<?xml version="1.0" encoding="UTF-8" standalone="no"?>
<!-- Generator: Adobe Illustrator 14.0.0, SVG Export Plug-In  -->

<svg
   xmlns:dc="http://purl.org/dc/elements/1.1/"
   xmlns:cc="http://creativecommons.org/ns#"
   xmlns:rdf="http://www.w3.org/1999/02/22-rdf-syntax-ns#"
   xmlns:svg="http://www.w3.org/2000/svg"
   xmlns="http://www.w3.org/2000/svg"
   xmlns:sodipodi="http://sodipodi.sourceforge.net/DTD/sodipodi-0.dtd"
   xmlns:inkscape="http://www.inkscape.org/namespaces/inkscape"
   version="1.1"
   x="0px"
   y="0px"
   width="72.718735"
   height="36.687492"
   viewBox="0 -0.321 72.718737 36.6875"
   enable-background="new 0 -0.321 144 120"
   xml:space="preserve"
   id="svg2"
   inkscape:version="0.48.2 r9819"
   sodipodi:docname="AJAX1.svg"><metadata
   id="metadata44"><rdf:RDF><cc:Work
       rdf:about=""><dc:format>image/svg+xml</dc:format><dc:type
         rdf:resource="http://purl.org/dc/dcmitype/StillImage" /><dc:title></dc:title></cc:Work></rdf:RDF></metadata><sodipodi:namedview
   pagecolor="#ffffff"
   bordercolor="#666666"
   borderopacity="1"
   objecttolerance="10"
   gridtolerance="10"
   guidetolerance="10"
   inkscape:pageopacity="0"
   inkscape:pageshadow="2"
   inkscape:window-width="1280"
   inkscape:window-height="1004"
   id="namedview42"
   showgrid="false"
   fit-margin-top="0"
   fit-margin-left="0"
   fit-margin-right="0"
   fit-margin-bottom="0"
   inkscape:zoom="3.7904688"
   inkscape:cx="65.500496"
   inkscape:cy="-6.4935215"
   inkscape:window-x="-8"
   inkscape:window-y="-8"
   inkscape:window-maximized="1"
   inkscape:current-layer="svg2" />
<defs
   id="defs4">
</defs>


















<path
   inkscape:connector-curvature="0"
   d="m 5.980693,0.02602 60.750011,0 c 3.09876,0 5.62501,2.525 5.62501,5.62375 l 0,24.75 c 0,3.09875 -2.52625,5.625 -5.62501,5.625 l -60.750011,0 c -3.09875,0 -5.62500009,-2.52625 -5.62500009,-5.625 l 0,-24.75 c 0,-3.09875 2.52625009,-5.62375 5.62500009,-5.62375"
   style="fill:#ffffff;fill-opacity:1;fill-rule:nonzero;stroke:#000000;stroke-width:0.70000017;stroke-miterlimit:4;stroke-opacity:1;stroke-dasharray:none"
   id="path6286" /><path
   inkscape:connector-curvature="0"
   d="m 5.999433,1.52602 30.317511,0 25.34751,0 c 2.2225,0 5.71125,-0.615 7.6075,0.88125 1.21875,0.96125 1.58375,2.30875 1.58375,3.79375 l 0,8.98625 0,11.56251 c 0,1.5625 0.30375,3.5525 -0.25,5.06375 -1.0475,2.85625 -3.85875,2.71 -6.34625,2.71 l -22.27126,0 -35.448761,0 c -2.86125,0 -4.685,-1.79875 -4.685,-4.6725 l 0,-20.55251 c 0,-1.56125 -0.3025,-3.54875 0.25125,-5.06125 0.59625,-1.62125 2.175,-2.70375 3.89375,-2.71125"
   style="fill:#000000;fill-opacity:1;fill-rule:evenodd;stroke:none"
   id="path6294" /><path
   inkscape:connector-curvature="0"
   d="m 6.029433,3.77478 30.397511,0 25.32376,0 4.43625,0 c 0.62625,0 1.2175,0.006 1.73,0.42875 0.675,0.5575 0.68875,1.31125 0.68875,2.115 l 0,9.22375 0,11.50375 c 0,1.18375 0.33625,2.93 -0.14625,4.075 -0.6875,1.6325 -3.04875,1.15375 -4.43,1.15375 l -22.66876,0 -34.921261,0 c -1.8075,0 -2.33375,-1.06625 -2.33375,-2.72375 l 0,-20.89375 c 0,-1.54375 -0.59125,-4.91875 1.92375,-4.8825"
   style="fill:#ffffff;fill-opacity:1;fill-rule:evenodd;stroke:none"
   id="path6298" /><path
   inkscape:connector-curvature="0"
   d="m 63.898194,19.0949 0,-1.935 -3.07375,0 0,-2.98875 -1.8925,0 0,2.98875 -3.07125,0 0,1.935 3.07125,0 0,2.98625 1.8925,0 0,-2.98625 3.07375,0 z m -9.595,4.925 0,-1.93875 -5.89125,0 c 0.58875,-1.345 1.21875,-2.06 2.35625,-2.73375 l 0.59,-0.33625 0.63,-0.3375 0.58875,-0.3775 c 0.16875,-0.0863 0.33625,-0.21 0.505,-0.3375 0.79875,-0.715 1.22125,-1.64 1.22125,-2.56625 0,-1.97875 -1.81,-3.5775 -4.0825,-3.5775 -2.1025,0 -3.66125,1.22 -4.08125,3.19875 l 1.89375,0.42 c 0.21,-1.09375 0.9675,-1.6825 2.1875,-1.6825 1.17875,0 2.1875,0.715 2.1875,1.5975 0,0.5075 -0.335,1.01 -0.79875,1.305 l -0.59,0.3375 -0.58875,0.33625 -0.63,0.33625 c -0.17,0.12625 -0.33625,0.2525 -0.54625,0.38 -0.8425,0.63 -1.6,1.3875 -2.105,2.31375 -0.67375,1.13625 -0.96625,2.27375 -1.01,3.6625 l 8.16375,0 z m -15.655,-11.995 -2.01875,0 -2.525,7.99625 -2.5675,-7.99625 -1.9775,0 3.7875,11.995 1.47375,0 3.8275,-11.995 z m -12.53875,6.01875 c 0,0.925 -0.21,2.10375 -0.46375,2.735 -0.42,1.05125 -0.96625,1.51375 -1.85,1.51375 -0.7575,0 -1.2625,-0.29375 -1.64125,-0.925 -0.46375,-0.7575 -0.71625,-2.0625 -0.71625,-3.32375 0,-1.01125 0.17,-2.105 0.4625,-2.82 0.42125,-1.0525 1.01,-1.515 1.93625,-1.4725 0.715,0.0412 1.17875,0.2925 1.5575,0.925 0.4625,0.8 0.715,2.02 0.715,3.3675 m 1.8925,0 c 0,-1.515 -0.29375,-3.03 -0.79875,-4.0825 -0.75625,-1.47375 -1.80875,-2.14625 -3.32375,-2.14625 -1.3875,0 -2.3575,0.42125 -3.0725,1.34625 -0.8,1.1375 -1.30376,2.905 -1.30376,4.8825 0,1.43 0.33625,3.02875 0.84126,4.0375 0.71625,1.475 1.7675,2.155 3.45125,2.155 1.26125,0 2.22875,-0.4275 2.9025,-1.35375 0.8425,-1.0525 1.30375,-2.945 1.30375,-4.83875 m -11.06626,5.97625 0,-11.995 -1.8925,0 0,4.84 -4.37625,0 0,-4.84 -1.893751,0 0,11.995 1.893751,0 0,-5.22 4.37625,0 0,5.22 1.8925,0 z"
   style="fill:#000000;fill-opacity:1;fill-rule:evenodd;stroke:none"
   id="path6302" /></svg>