<?xml version="1.0" encoding="utf-8"?>
<!-- Generator: Adobe Illustrator 27.7.0, SVG Export Plug-In . SVG Version: 6.00 Build 0)  -->
<svg version="1.1" id="For_Sheets" xmlns="http://www.w3.org/2000/svg" xmlns:xlink="http://www.w3.org/1999/xlink" x="0px" y="0px"
	 viewBox="0 0 216.5 86.9" style="enable-background:new 0 0 216.5 86.9;" xml:space="preserve">
<style type="text/css">
	.st0{fill:#FFFFFF;}
</style>
<g>
	<g>
		<path class="st0" d="M13.7,86.8c-7.5,0-13.6-6.1-13.6-13.6V13.7c0-7.5,6.1-13.6,13.6-13.6h189c7.5,0,13.6,6.1,13.6,13.6v59.4
			c0,7.5-6.1,13.6-13.6,13.6H13.7z"/>
		<path d="M202.8,0.2c7.4,0,13.5,6.1,13.5,13.5v59.4c0,7.4-6.1,13.5-13.5,13.5h-189c-7.4,0-13.5-6.1-13.5-13.5V13.8
			c0-7.4,6.1-13.5,13.5-13.5H202.8 M202.8,0h-189C6.2,0,0,6.2,0,13.8v59.4c0,7.6,6.2,13.8,13.8,13.8h189c7.6,0,13.8-6.2,13.8-13.8
			V13.8C216.5,6.2,210.3,0,202.8,0L202.8,0z"/>
	</g>
	<path d="M202.8,83h-189c-5.4,0-9.9-4.5-9.9-9.9V13.7c0-5.4,4.5-9.9,9.9-9.9h189c5.4,0,9.9,4.5,9.9,9.9v59.4
		C212.6,78.6,208.2,83,202.8,83z M207.2,73.1V13.7c0-2.5-2-4.5-4.5-4.5h-189c-2.5,0-4.5,2-4.5,4.5v59.4c0,2.5,2,4.5,4.5,4.5h189
		C205.2,77.6,207.2,75.6,207.2,73.1z"/>
	<g>
		<path d="M32.1,57.8V29h9.1c3.8,0,6.6,3,6.6,7.5c0,2.6-0.7,3.8-3,6.3c2.2,1.8,3.5,4.2,3.5,7.2c0,4.3-3.4,7.9-7.7,7.9H32.1z
			 M36.3,33.1v7.7h4.3c1.9,0,3.1-1.6,3.1-4.2c0-2.5-0.9-3.4-3.1-3.4H36.3z M36.3,53.8h4.1c2.3,0,3.8-1.6,3.8-4.1
			c0-2.8-1.7-4.8-3.8-4.8h-4.1V53.8z"/>
		<path d="M53.2,49.5V29h4.1v20.7c0,2.7,1.6,4.6,4,4.6c2.2,0,3.8-1.8,3.8-4.6V29h4.1v20.5c0,6.6-5.1,8.8-8,8.8
			C58.7,58.4,53.2,56.6,53.2,49.5z"/>
		<path d="M82.4,39.5c3.1,2,7.9,4.7,7.9,10.4c0,4.7-3.6,8.4-8,8.4c-5.1,0-8.1-4.3-8.1-9h4.1c0,2.5,1.2,5,4.1,5c2.2,0,4.1-2,4.1-4.3
			c0-6.3-10.8-5.9-10.8-13.9c0-4.1,3.2-7.5,7.4-7.5c4.1,0,7.2,3.1,7.3,7.5h-4c-0.1-2-1.5-3.3-3.3-3.3c-1.9,0-3.4,1.4-3.4,3.3
			C79.6,37.9,80.6,38.4,82.4,39.5z"/>
	</g>
	<g>
		<path d="M108.3,29h4.2v25H123v3.8h-14.7V29z"/>
		<path d="M137,50h-6.2l-1.9,7.9h-4.2l7.2-28.8h4.1l7.2,28.8H139L137,50z M131.8,45.9h4.2l-2.1-8.3L131.8,45.9z"/>
		<path d="M151.3,38.6v19.3h-4.1V29h4.1l7.9,17.3V29h4.1v28.8h-3.1L151.3,38.6z"/>
		<path d="M169.7,29h13.6v4h-9.4v7.3h6v3.9h-6v9.5h10.5v4h-14.7V29z"/>
	</g>
</g>
</svg>
