<?xml version="1.0" encoding="utf-8"?>
<!-- Generator: Adobe Illustrator 27.7.0, SVG Export Plug-In . SVG Version: 6.00 Build 0)  -->
<svg version="1.1" id="For_Sheets" xmlns="http://www.w3.org/2000/svg" xmlns:xlink="http://www.w3.org/1999/xlink" x="0px" y="0px"
	 viewBox="0 0 216.5 86.9" style="enable-background:new 0 0 216.5 86.9;" xml:space="preserve">
<style type="text/css">
	.st0{fill:#FFFFFF;}
</style>
<g>
	<g>
		<path class="st0" d="M13.7,86.8c-7.5,0-13.6-6.1-13.6-13.6V13.7c0-7.5,6.1-13.6,13.6-13.6h189c7.5,0,13.6,6.1,13.6,13.6v59.4
			c0,7.5-6.1,13.6-13.6,13.6H13.7z"/>
		<path d="M202.8,0.2c7.4,0,13.5,6.1,13.5,13.5v59.4c0,7.4-6.1,13.5-13.5,13.5h-189c-7.4,0-13.5-6.1-13.5-13.5V13.8
			c0-7.4,6.1-13.5,13.5-13.5H202.8 M202.8,0h-189C6.2,0,0,6.2,0,13.8v59.4c0,7.6,6.2,13.8,13.8,13.8h189c7.6,0,13.8-6.2,13.8-13.8
			V13.8C216.5,6.2,210.3,0,202.8,0L202.8,0z"/>
	</g>
	<path d="M13.7,83c-2.6,0-5.1-1-7-2.9c-1.9-1.9-2.9-4.4-2.9-7V13.7c0-2.6,1-5.1,2.9-7c1.9-1.9,4.4-2.9,7-2.9h189c2.6,0,5.1,1,7,2.9
		c1.9,1.9,2.9,4.4,2.9,7v59.4c0,2.6-1,5.1-2.9,7c-1.9,1.9-4.4,2.9-7,2.9H13.7z"/>
	<path class="st0" d="M13.7,77.6c-1.2,0-2.3-0.5-3.2-1.3c-0.9-0.9-1.3-2-1.3-3.2V13.7c0-1.2,0.5-2.3,1.3-3.2c0.9-0.9,2-1.3,3.2-1.3
		h189c1.2,0,2.3,0.5,3.2,1.3c0.9,0.9,1.3,2,1.3,3.2v59.4c0,1.2-0.5,2.3-1.3,3.2c-0.9,0.9-2,1.3-3.2,1.3H13.7z"/>
	<g>
		<path d="M26.6,37.6c-0.3-2.5-1.3-3.6-3-3.6c-2.9,0-4,2.3-4,8.8c0,7.3,1.2,10.2,4.4,10.2c2.1,0,2.7-1.8,2.7-3.6h3.6
			c-0.1,4.2-2.7,7.2-6.3,7.2c-5.4,0-7.8-4.3-7.8-13.6c0-8.1,2.6-12.5,7.5-12.5c4.6,0,6.4,4.2,6.6,7.2H26.6z"/>
		<path d="M35.2,30.9h11.9v3.5h-8.2v6.4h5.2v3.4h-5.2v8.3h9.2V56H35.2V30.9z"/>
		<path d="M56,39.2V56h-3.6V30.9H56L62.9,46V30.9h3.6V56h-2.7L56,39.2z"/>
		<path d="M78.3,56h-3.6V34.2H70v-3.4h12.9v3.4h-4.6V56z"/>
		<path d="M86.4,30.9h11.9v3.5H90v6.4h5.2v3.4H90v8.3h9.2V56H86.4V30.9z"/>
		<path d="M110.6,44.2h-3.4V56h-3.6V30.9h7.5c4,0,6.6,2.7,6.6,6.7c0,3-1.2,5.2-3.6,6.1l3.6,12.4H114L110.6,44.2z M107.2,34.4v6.4
			h3.7c2.1,0,3.3-1.1,3.3-3.2c0-1.9-1.3-3.2-3.3-3.2H107.2z"/>
	</g>
	<g>
		<path d="M133.9,30.9h3.6v21.8h9.2V56h-12.9V30.9z"/>
		<path d="M159,49.2h-5.4l-1.7,6.9h-3.6l6.3-25.2h3.6l6.3,25.2h-3.6L159,49.2z M154.4,45.6h3.6l-1.9-7.3L154.4,45.6z"/>
		<path d="M171.5,39.2V56h-3.6V30.9h3.6l6.9,15.1V30.9h3.6V56h-2.7L171.5,39.2z"/>
		<path d="M187.6,30.9h11.9v3.5h-8.2v6.4h5.2v3.4h-5.2v8.3h9.2V56h-12.9V30.9z"/>
	</g>
</g>
</svg>
