<?xml version="1.0" encoding="utf-8"?>
<!-- Generator: Adobe Illustrator 27.7.0, SVG Export Plug-In . SVG Version: 6.00 Build 0)  -->
<svg version="1.1" xmlns="http://www.w3.org/2000/svg" xmlns:xlink="http://www.w3.org/1999/xlink" x="0px" y="0px"
	 viewBox="0 0 216.5 86.9" style="enable-background:new 0 0 216.5 86.9;" xml:space="preserve">
<style type="text/css">
	.st0{fill:#FFFFFF;}
</style>
<g id="Layer_1">
</g>
<g id="For_Sheets">
	<g>
		<g>
			<path class="st0" d="M13.7,86.8c-7.5,0-13.6-6.1-13.6-13.6V13.7c0-7.5,6.1-13.6,13.6-13.6h189c7.5,0,13.6,6.1,13.6,13.6v59.4
				c0,7.5-6.1,13.6-13.6,13.6H13.7z"/>
			<path d="M202.8,0.2c7.4,0,13.5,6.1,13.5,13.5v59.4c0,7.4-6.1,13.5-13.5,13.5h-189c-7.4,0-13.5-6.1-13.5-13.5V13.8
				c0-7.4,6.1-13.5,13.5-13.5H202.8 M202.8,0h-189C6.2,0,0,6.2,0,13.8v59.4c0,7.6,6.2,13.8,13.8,13.8h189c7.6,0,13.8-6.2,13.8-13.8
				V13.8C216.5,6.2,210.3,0,202.8,0L202.8,0z"/>
		</g>
		<path d="M202.8,83h-189c-5.4,0-9.9-4.5-9.9-9.9V13.7c0-5.4,4.5-9.9,9.9-9.9h189c5.4,0,9.9,4.5,9.9,9.9v59.4
			C212.6,78.6,208.2,83,202.8,83z M207.2,73.1V13.7c0-2.5-2-4.5-4.5-4.5h-189c-2.5,0-4.5,2-4.5,4.5v59.4c0,2.5,2,4.5,4.5,4.5h189
			C205.2,77.6,207.2,75.6,207.2,73.1z"/>
		<g>
			<g>
				<path d="M25.5,44.3h-3.9v13.5h-4.1V29H26c4.5,0,7.6,3,7.6,7.7c0,3.4-1.4,6-4.1,7l4.1,14.1h-4.2L25.5,44.3z M21.6,33.1v7.3h4.2
					c2.4,0,3.7-1.3,3.7-3.6c0-2.2-1.5-3.6-3.7-3.6H21.6z"/>
				<path d="M38.5,29h4v28.8h-4V29z"/>
				<path d="M57.2,58.4c-2.6,0-8.9-0.5-8.9-14.9s6-15,8.6-15c4.2,0,7.3,3,7.5,7.3h-4.2c-0.1-1.9-1.4-3.2-3.4-3.2
					c-1.4,0-4.6,0.4-4.6,10.9c0,10.5,3.5,10.8,4.9,10.8c2.1,0,3.1-1.4,3.1-4.4v-1.9H57v-4h7.4v6C64.4,57.1,59.6,58.4,57.2,58.4z"/>
				<path d="M82.1,44.8h-7.9v13h-4.1V29h4.1v11.7h7.9V29h4.1v28.8h-4.1V44.8z"/>
				<path d="M99.7,57.8h-4.2v-25h-5.3V29H105v3.8h-5.3V57.8z"/>
			</g>
			<g>
				<path d="M123,29h4.2v25h10.5v3.8H123V29z"/>
				<path d="M151.7,50h-6.2l-1.9,7.9h-4.2l7.2-28.8h4.1l7.2,28.8h-4.2L151.7,50z M146.5,45.9h4.2l-2.1-8.3L146.5,45.9z"/>
				<path d="M166,38.5v19.3h-4.1V29h4.1l7.9,17.3V29h4.1v28.8h-3.1L166,38.5z"/>
			</g>
			<path d="M184.4,29H198v4h-9.4v7.3h6v3.9h-6v9.5h10.5v4h-14.7V29z"/>
		</g>
	</g>
</g>
</svg>
