<?xml version="1.0" encoding="utf-8"?>
<!-- Generator: Adobe Illustrator 27.7.0, SVG Export Plug-In . SVG Version: 6.00 Build 0)  -->
<svg version="1.1" id="For_Sheets" xmlns="http://www.w3.org/2000/svg" xmlns:xlink="http://www.w3.org/1999/xlink" x="0px" y="0px"
	 viewBox="0 0 216.5 259.7" style="enable-background:new 0 0 216.5 259.7;" xml:space="preserve">
<style type="text/css">
	.st0{fill:#FFFFFF;}
</style>
<g>
	<g>
		<path class="st0" d="M13.7,259.6c-7.5,0-13.6-6.1-13.6-13.6V13.7c0-7.5,6.1-13.6,13.6-13.6h189c7.5,0,13.6,6.1,13.6,13.6v232.2
			c0,7.5-6.1,13.6-13.6,13.6H13.7z"/>
		<path d="M202.8,0.2c7.4,0,13.5,6.1,13.5,13.5v232.2c0,7.4-6.1,13.5-13.5,13.5h-189c-7.4,0-13.5-6.1-13.5-13.5V13.8
			c0-7.4,6.1-13.5,13.5-13.5H202.8 M202.8,0h-189C6.2,0,0,6.2,0,13.8v232.2c0,7.6,6.2,13.8,13.8,13.8h189c7.6,0,13.8-6.2,13.8-13.8
			V13.8C216.5,6.2,210.3,0,202.8,0L202.8,0z"/>
	</g>
	<path d="M202.8,255.8h-189c-5.4,0-9.9-4.5-9.9-9.9V13.7c0-5.4,4.5-9.9,9.9-9.9h189c5.4,0,9.9,4.5,9.9,9.9v232.2
		C212.6,251.4,208.2,255.8,202.8,255.8z M207.2,245.9V13.7c0-2.5-2-4.5-4.5-4.5h-189c-2.5,0-4.5,2-4.5,4.5v232.2
		c0,2.5,2,4.5,4.5,4.5h189C205.2,250.4,207.2,248.4,207.2,245.9z"/>
	<g>
		<path d="M82.5,201.4v29.3h-6.8v-43.2h6.8L98.3,215v-27.6h6.8v43.2H99L82.5,201.4z"/>
		<path d="M112.4,187.4h6.8v36.8h20v6.4h-26.8V187.4z"/>
		<path d="M163.1,230.6h-6.9v-18.8L141,187.4h8.2l10.4,16.7l10.5-16.7h8.1l-15.1,24.4V230.6z"/>
		<path d="M69,209c0,1.5,0.3,22.4-15.3,22.4S38.4,210.6,38.4,209c0-1.5-0.3-22.4,15.3-22.4S69,207.5,69,209z M53.8,224.4
			c4.7,0,8.4-4.4,8.4-15.4c0-11-3.8-15.4-8.4-15.4c-4.7,0-8.4,4.4-8.4,15.4C45.3,220,49.1,224.4,53.8,224.4z"/>
	</g>
	<path d="M142.5,79.3L108.3,29L74,79.3c-2.7,4,1.3,9.1,5.8,7.4L95,81.2v84.7h26.6V81.2l15.1,5.6C141.2,88.4,145.2,83.3,142.5,79.3z"
		/>
</g>
</svg>
