<?xml version="1.0" encoding="UTF-8" standalone="no"?>
<!-- Generator: Adobe Illustrator 14.0.0, SVG Export Plug-In  -->

<svg
   xmlns:dc="http://purl.org/dc/elements/1.1/"
   xmlns:cc="http://creativecommons.org/ns#"
   xmlns:rdf="http://www.w3.org/1999/02/22-rdf-syntax-ns#"
   xmlns:svg="http://www.w3.org/2000/svg"
   xmlns="http://www.w3.org/2000/svg"
   xmlns:sodipodi="http://sodipodi.sourceforge.net/DTD/sodipodi-0.dtd"
   xmlns:inkscape="http://www.inkscape.org/namespaces/inkscape"
   version="1.1"
   x="0px"
   y="0px"
   width="90.718735"
   height="36.687492"
   viewBox="0 -0.321 90.718738 36.6875"
   enable-background="new 0 -0.321 144 120"
   xml:space="preserve"
   id="svg2"
   inkscape:version="0.48.2 r9819"
   sodipodi:docname="AJAX1.svg"><metadata
   id="metadata44"><rdf:RDF><cc:Work
       rdf:about=""><dc:format>image/svg+xml</dc:format><dc:type
         rdf:resource="http://purl.org/dc/dcmitype/StillImage" /><dc:title></dc:title></cc:Work></rdf:RDF></metadata><sodipodi:namedview
   pagecolor="#ffffff"
   bordercolor="#666666"
   borderopacity="1"
   objecttolerance="10"
   gridtolerance="10"
   guidetolerance="10"
   inkscape:pageopacity="0"
   inkscape:pageshadow="2"
   inkscape:window-width="1280"
   inkscape:window-height="1004"
   id="namedview42"
   showgrid="false"
   fit-margin-top="0"
   fit-margin-left="0"
   fit-margin-right="0"
   fit-margin-bottom="0"
   inkscape:zoom="3.7904688"
   inkscape:cx="41.09676"
   inkscape:cy="-20.856423"
   inkscape:window-x="-8"
   inkscape:window-y="-8"
   inkscape:window-maximized="1"
   inkscape:current-layer="svg2" />
<defs
   id="defs4">
</defs>


















<path
   inkscape:connector-curvature="0"
   d="m 5.9857183,0.02601 78.7500097,0 c 3.0975,0 5.625,2.52501 5.625,5.62376 l 0,24.75 c 0,3.09875 -2.5275,5.625 -5.625,5.625 l -78.7500097,0 c -3.09876,0 -5.62500999,-2.52625 -5.62500999,-5.625 l 0,-24.75 c 0,-3.09875 2.52624999,-5.62376 5.62500999,-5.62376"
   style="fill:#ffffff;fill-opacity:1;fill-rule:nonzero;stroke:#000000;stroke-width:0.70000017;stroke-miterlimit:4;stroke-opacity:1;stroke-dasharray:none"
   id="path5804" /><path
   inkscape:connector-curvature="0"
   d="m 6.0044683,1.52602 30.3174997,0 43.34751,0 c 2.22125,0 5.71,-0.615 7.6075,0.88125 1.21875,0.96125 1.585,2.30875 1.585,3.79375 l 0,8.98625 0,11.56251 c 0,1.5625 0.3025,3.5525 -0.2525,5.06375 -1.04625,2.85625 -3.85625,2.71 -6.345,2.71 l -40.27126,0 -35.4487497,0 c -2.86001,0 -4.68376,-1.79875 -4.68376,-4.6725 l 0,-20.55251 c 0,-1.56125 -0.30375,-3.54875 0.25,-5.06125 0.59625,-1.62125 2.175,-2.70375 3.89376,-2.71125"
   style="fill:#000000;fill-opacity:1;fill-rule:evenodd;stroke:none"
   id="path5828" /><path
   inkscape:connector-curvature="0"
   d="m 6.0344583,3.77478 30.3974997,0 43.32251,0 4.43625,0 c 0.6275,0 1.21875,0.006 1.73125,0.42875 0.67625,0.5575 0.68875,1.31125 0.68875,2.115 l 0,9.22375 0,11.50375 c 0,1.18375 0.33625,2.93 -0.14625,4.075 -0.68625,1.6325 -3.05,1.15375 -4.42875,1.15375 l -40.66751,0 -34.9237497,0 c -1.805,0 -2.33375,-1.06625 -2.33375,-2.72375 l 0,-20.89375 c 0,-1.54375 -0.59125,-4.91875 1.92375,-4.8825"
   style="fill:#ffffff;fill-opacity:1;fill-rule:evenodd;stroke:none"
   id="path5832" /><path
   inkscape:connector-curvature="0"
   d="m 78.140718,24.05978 0,-1.68375 -4.37625,0 0,-3.95625 2.4825,0 0,-1.64 -2.4825,0 0,-3.03 3.9125,0 0,-1.68375 -5.63625,0 0,11.99375 6.1,0 z m -8.66875,0 0,-11.99375 -1.72375,0 0,7.19625 -3.28375,-7.19625 -1.72375,0 0,11.99375 1.72375,0 0,-8.0375 3.70375,8.0375 1.30375,0 z m -11.36,-4.96625 -1.72625,0 0.8425,-3.45 0.88375,3.45 z m 2.98625,4.96625 -2.98625,-11.99375 -1.685,0 -2.985,11.99375 1.72375,0 0.8,-3.2825 2.56625,0 0.8425,3.2825 1.72375,0 z m -8.37251,0 0,-1.59875 -4.3775,0 0,-10.395 -1.7225,0 0,11.99375 6.1,0 z m -14.685,-11.99375 -1.68375,0 0,11.99375 1.68375,0 0,-11.99375 z m -3.325,11.99375 -2.6075,-6.2275 2.3975,-5.76625 -1.80875,0 -1.51375,3.62 -1.51625,-3.62 -1.80875,0 2.44125,5.76625 -2.61,6.2275 1.80875,0 1.685,-4.0825 1.6825,4.0825 1.85,0 z m -10.73,-4.96625 -1.72375,0 0.84,-3.45 0.88375,3.45 z m 2.98875,4.96625 -2.98875,-11.99375 -1.68125,0 -2.98875,11.99375 1.72625,0 0.7975,-3.2825 2.56875,0 0.84,3.2825 1.72625,0 z m -8.37375,-10.39375 0,-1.6 -6.10125,0 0,1.6 2.1875,0 0,10.39375 1.72625,0 0,-10.39375 2.1875,0 z"
   style="fill:#000000;fill-opacity:1;fill-rule:evenodd;stroke:none"
   id="path5836" /></svg>