<?xml version="1.0" encoding="utf-8"?>
<!-- Generator: Adobe Illustrator 27.7.0, SVG Export Plug-In . SVG Version: 6.00 Build 0)  -->
<svg version="1.1" id="For_Sheets" xmlns="http://www.w3.org/2000/svg" xmlns:xlink="http://www.w3.org/1999/xlink" x="0px" y="0px"
	 viewBox="0 0 216.5 259.7" style="enable-background:new 0 0 216.5 259.7;" xml:space="preserve">
<style type="text/css">
	.st0{fill:#FFFFFF;}
</style>
<g>
	<g>
		<path class="st0" d="M13.7,259.6c-7.5,0-13.6-6.1-13.6-13.6V13.7c0-7.5,6.1-13.6,13.6-13.6h189c7.5,0,13.6,6.1,13.6,13.6v232.2
			c0,7.5-6.1,13.6-13.6,13.6H13.7z"/>
		<path d="M202.8,0.2c7.4,0,13.5,6.1,13.5,13.5v232.2c0,7.4-6.1,13.5-13.5,13.5h-189c-7.4,0-13.5-6.1-13.5-13.5V13.8
			c0-7.4,6.1-13.5,13.5-13.5H202.8 M202.8,0h-189C6.2,0,0,6.2,0,13.8v232.2c0,7.6,6.2,13.8,13.8,13.8h189c7.6,0,13.8-6.2,13.8-13.8
			V13.8C216.5,6.2,210.3,0,202.8,0L202.8,0z"/>
	</g>
	<path d="M13.7,255.8c-5.5,0-9.9-4.4-9.9-9.9V13.7c0-5.5,4.4-9.9,9.9-9.9h189c5.5,0,9.9,4.4,9.9,9.9v232.2c0,5.5-4.4,9.9-9.9,9.9
		H13.7z M202.8,250.4c2.5,0,4.5-2,4.5-4.5V13.7c0-2.5-2-4.5-4.5-4.5h-189c-2.5,0-4.5,2-4.5,4.5v232.2c0,2.5,2,4.5,4.5,4.5H202.8z"/>
	<path d="M159.3,116.9l-23.3,9.6c-35.3,14.6-56.6,48.8-56.7,84.8l-0.1,21.1H54.1v-21.1c0-45.9,27.2-89.4,72.3-108.1l23.3-9.6
		L159.3,116.9z"/>
	<rect x="54.1" y="64.1" width="25.2" height="168.3"/>
	<g>
		<path d="M34.3,66.7l32.4-47.6l32.4,47.6c2.7,4-1.3,9.2-5.9,7.4l-26.6-10l-26.6,10C35.7,75.9,31.6,70.7,34.3,66.7z"/>
	</g>
	<g>
		<path d="M136.4,77.6l56.4,11.7l-31.5,48.2c-2.7,4.1-9,2.3-9.1-2.6l-0.9-28.4l-19.4-20.7C128.4,82.3,131.6,76.6,136.4,77.6z"/>
	</g>
</g>
</svg>
