<?xml version="1.0" encoding="utf-8"?>
<!-- Generator: Adobe Illustrator 27.7.0, SVG Export Plug-In . SVG Version: 6.00 Build 0)  -->
<svg version="1.1" id="For_Sheets" xmlns="http://www.w3.org/2000/svg" xmlns:xlink="http://www.w3.org/1999/xlink" x="0px" y="0px"
	 viewBox="0 0 216.5 259.7" style="enable-background:new 0 0 216.5 259.7;" xml:space="preserve">
<style type="text/css">
	.st0{fill:#FFFFFF;}
</style>
<g>
	<g>
		<path class="st0" d="M13.7,259.6c-7.5,0-13.6-6.1-13.6-13.6V13.7c0-7.5,6.1-13.6,13.6-13.6h189c7.5,0,13.6,6.1,13.6,13.6v232.2
			c0,7.5-6.1,13.6-13.6,13.6H13.7z"/>
		<path d="M202.8,0.2c7.4,0,13.5,6.1,13.5,13.5v232.2c0,7.4-6.1,13.5-13.5,13.5h-189c-7.4,0-13.5-6.1-13.5-13.5V13.8
			c0-7.4,6.1-13.5,13.5-13.5H202.8 M202.8,0h-189C6.2,0,0,6.2,0,13.8v232.2c0,7.6,6.2,13.8,13.8,13.8h189c7.6,0,13.8-6.2,13.8-13.8
			V13.8C216.5,6.2,210.3,0,202.8,0L202.8,0z"/>
	</g>
	<path d="M13.7,255.8c-5.5,0-9.9-4.4-9.9-9.9V13.7c0-5.5,4.4-9.9,9.9-9.9h189c5.5,0,9.9,4.4,9.9,9.9v232.2c0,5.5-4.4,9.9-9.9,9.9
		H13.7z M202.8,250.4c2.5,0,4.5-2,4.5-4.5V13.7c0-2.5-2-4.5-4.5-4.5h-189c-2.5,0-4.5,2-4.5,4.5v232.2c0,2.5,2,4.5,4.5,4.5H202.8z"/>
	<path d="M57.1,116.9l23.3,9.6c35.3,14.6,56.6,48.8,56.7,84.8l0.1,21.1h25.2v-21.1c0-45.9-27.2-89.4-72.3-108.1l-23.3-9.6
		L57.1,116.9z"/>
	<rect x="137.1" y="64.1" width="25.2" height="168.3"/>
	<g>
		<path d="M182.1,66.7l-32.4-47.6l-32.4,47.6c-2.7,4,1.3,9.2,5.9,7.4l26.6-10l26.6,10C180.7,75.9,184.8,70.7,182.1,66.7z"/>
	</g>
	<g>
		<path d="M80,77.6L23.6,89.3l31.5,48.2c2.7,4.1,9,2.3,9.1-2.6l0.9-28.4l19.4-20.7C88,82.3,84.8,76.6,80,77.6z"/>
	</g>
</g>
</svg>
