<?xml version="1.0" encoding="utf-8"?>
<!-- Generator: Adobe Illustrator 27.7.0, SVG Export Plug-In . SVG Version: 6.00 Build 0)  -->
<svg version="1.1" id="For_Sheets" xmlns="http://www.w3.org/2000/svg" xmlns:xlink="http://www.w3.org/1999/xlink" x="0px" y="0px"
	 viewBox="0 0 216.5 216.5" style="enable-background:new 0 0 216.5 216.5;" xml:space="preserve">
<style type="text/css">
	.st0{fill:#FFFFFF;}
	.st1{fill-rule:evenodd;clip-rule:evenodd;}
</style>
<g>
	<g>
		<path class="st0" d="M13.7,216.4c-7.5,0-13.6-6.1-13.6-13.6v-189c0-7.5,6.1-13.6,13.6-13.6h189c7.5,0,13.6,6.1,13.6,13.6v189
			c0,7.5-6.1,13.6-13.6,13.6H13.7z"/>
		<path d="M202.8,0.2c7.4,0,13.5,6.1,13.5,13.5v189c0,7.4-6.1,13.5-13.5,13.5h-189c-7.4,0-13.5-6.1-13.5-13.5v-189
			c0-7.4,6.1-13.5,13.5-13.5H202.8 M202.8,0h-189C6.2,0,0,6.2,0,13.8v189c0,7.6,6.2,13.8,13.8,13.8h189c7.6,0,13.8-6.2,13.8-13.8
			v-189C216.5,6.2,210.3,0,202.8,0L202.8,0z"/>
	</g>
	<path d="M13.7,212.7c-5.5,0-9.9-4.4-9.9-9.9v-189c0-5.5,4.4-9.9,9.9-9.9h189c5.5,0,9.9,4.4,9.9,9.9v189c0,5.5-4.4,9.9-9.9,9.9H13.7
		z M202.8,207.3c2.5,0,4.5-2,4.5-4.5v-189c0-2.5-2-4.5-4.5-4.5h-189c-2.5,0-4.5,2-4.5,4.5v189c0,2.5,2,4.5,4.5,4.5H202.8z"/>
	<rect x="111.8" y="126.3" class="st1" width="5.4" height="86.4"/>
	<g>
		<path d="M43.6,175.1v19.5h-4.5v-28.8h4.5l10.5,18.4v-18.4h4.6v28.8h-4L43.6,175.1z"/>
		<path d="M62.1,165.8h4.5v24.6H80v4.2H62.1V165.8z"/>
		<path d="M95.6,194.6H91v-12.5l-10.2-16.3h5.5l6.9,11.1l7-11.1h5.4l-10.1,16.3V194.6z"/>
		<path d="M35.9,180.2c0,1,0.2,14.9-10.2,14.9s-10.2-13.9-10.2-14.9c0-1-0.2-14.9,10.2-14.9S35.9,179.2,35.9,180.2z M25.7,190.5
			c3.1,0,5.6-2.9,5.6-10.3c0-7.3-2.5-10.3-5.6-10.3c-3.1,0-5.6,2.9-5.6,10.3C20.1,187.6,22.6,190.5,25.7,190.5z"/>
	</g>
	<rect x="167.4" y="57.9" width="18.5" height="133.2"/>
	<g>
		<path d="M185.9,191.1h-18.4V168c0-28.7-14-55.7-37.5-72.1l-22.1-15.5l10.6-15.1l22.1,15.5c28.4,19.9,45.4,52.5,45.4,87.2V191.1z"
			/>
	</g>
	<path d="M157.3,65.7l19.4-7.4l19.4,7.4c3.3,1.3,6.3-2.5,4.3-5.4l-23.7-34.8L153,60.3C151,63.2,154,67,157.3,65.7z"/>
	<g>
		<path d="M115.5,98.2l5.1-20.1l17.2-11.6c2.9-2,1.6-6.5-2-6.6l-42.1-0.6l15,39.4C109.9,101.9,114.7,101.6,115.5,98.2z"/>
	</g>
	<path d="M87,133c0-21-13.7-40.3-34.8-46.6l-15.5-4.6l-4.6,15.5l15.5,4.6c14.1,4.2,23.2,17.1,23.2,31.1v22.1H87V133z"/>
	<g>
		<path d="M44.5,110.6l-1.4-18.5l11.2-14.7c1.9-2.5-0.6-5.9-3.5-4.9L15.5,84l23.4,28.9C40.9,115.2,44.7,113.7,44.5,110.6z"/>
	</g>
</g>
</svg>
