<?xml version="1.0" encoding="UTF-8" standalone="no"?>
<!-- Created with Inkscape (http://www.inkscape.org/) -->

<svg
   xmlns:ns="http://ns.adobe.com/SaveForWeb/1.0/"
   xmlns:dc="http://purl.org/dc/elements/1.1/"
   xmlns:cc="http://creativecommons.org/ns#"
   xmlns:rdf="http://www.w3.org/1999/02/22-rdf-syntax-ns#"
   xmlns:svg="http://www.w3.org/2000/svg"
   xmlns="http://www.w3.org/2000/svg"
   xmlns:sodipodi="http://sodipodi.sourceforge.net/DTD/sodipodi-0.dtd"
   xmlns:inkscape="http://www.inkscape.org/namespaces/inkscape"
   version="1.1"
   width="3250"
   height="3250"
   viewBox="0 0 3250 3250"
   id="svg2"
   xml:space="preserve"
   inkscape:version="0.48.2 r9819"
   sodipodi:docname="AJAX2.svg"><sodipodi:namedview
   pagecolor="#ffffff"
   bordercolor="#666666"
   borderopacity="1"
   objecttolerance="10"
   gridtolerance="10"
   guidetolerance="10"
   inkscape:pageopacity="0"
   inkscape:pageshadow="2"
   inkscape:window-width="1280"
   inkscape:window-height="1004"
   id="namedview9"
   showgrid="false"
   fit-margin-top="0"
   fit-margin-left="0"
   fit-margin-right="0"
   fit-margin-bottom="0"
   inkscape:zoom="0.12642213"
   inkscape:cx="1178.4564"
   inkscape:cy="1844.1259"
   inkscape:window-x="-8"
   inkscape:window-y="-8"
   inkscape:window-maximized="1"
   inkscape:current-layer="svg2" /><defs
   id="defs11" />
<metadata
   id="metadata3">
	<ns:sfw>
		<ns:slices />
		<ns:sliceSourceBounds
   bottomLeftOrigin="true"
   x="-75"
   y="93"
   width="745"
   height="655" />
	</ns:sfw>
	<rdf:RDF>
		<cc:Work
   rdf:about="">
			<dc:format>image/svg+xml</dc:format>
			<dc:type
   rdf:resource="http://purl.org/dc/dcmitype/StillImage" />
			<dc:title></dc:title>
		</cc:Work>
	</rdf:RDF>
	<ns:sfw>
		<ns:slices />
		<ns:sliceSourceBounds
   bottomLeftOrigin="true"
   x="-75"
   y="93"
   width="745"
   height="655" />
	</ns:sfw>
</metadata>




<path
   inkscape:connector-curvature="0"
   style="fill:#ffffff;fill-rule:nonzero;stroke:#000000;stroke-width:10;stroke-linecap:butt;stroke-linejoin:miter;stroke-miterlimit:4;stroke-opacity:1;stroke-dasharray:none"
   d="m 3245,3042.5 c 0,111.8375 -90.6625,202.5 -202.5,202.5 l -2835,0 C 95.662875,3245 5,3154.3375 5,3042.5 L 5,207.5 C 5,95.66287 95.662875,5 207.50125,5 L 3042.5,5 C 3154.3375,5 3245,95.66287 3245,207.5 l 0,2835 z"
   id="path11" /><path
   inkscape:connector-curvature="0"
   style="fill:#000000;fill-rule:nonzero;stroke:none"
   d="m 3110.0012,3042.5 c 0,37.2125 -30.275,67.5 -67.5,67.5 l -1439.9999,0 0,-1485 -78.75,0 0,1485 -1316.25005,0 c -37.21875,0 -67.5,-30.2875 -67.5,-67.5 l 0,-2835 c 0,-37.22 30.28125,-67.5 67.5,-67.5 l 2834.99995,0.001 c 37.225,-0.001 67.5,30.28125 67.5,67.5 l 0,2834.9988 z m -67.5,-2981.25 -2834.99995,0 c -80.64212,10e-4 -146.25,65.60913 -146.25,146.25 l 0,2835 c 0,80.6375 65.60788,146.25 146.25,146.25 l 2834.99995,0 c 80.6375,0 146.25,-65.6125 146.25,-146.25 l 0,-2835 c 0,-80.64087 -65.6125,-146.24875 -146.25,-146.25 z"
   id="path15" /><path
   inkscape:connector-curvature="0"
   style="fill:#000000;fill-rule:nonzero;stroke:none"
   d="m 688.32625,1812.7626 c -33.75,-33.75 -79.5,-52.725 -127.275,-52.725 -47.7,0 -93.525,18.975 -127.275,52.725 -33.75,33.75 -52.725,79.575 -52.725,127.275 0,47.775 18.975,93.525 52.725,127.275 33.75,33.75 79.575,52.725 127.275,52.725 47.775,0 93.525,-18.975 127.275,-52.725 33.75,-33.75 52.725,-79.5 52.725,-127.275 0,-47.7 -18.975,-93.525 -52.725,-127.275 z"
   id="path13" /><path
   inkscape:connector-curvature="0"
   style="fill:#000000;fill-rule:nonzero;stroke:none"
   d="m 1159.1763,1541.9376 c -42.5251,-78.3 -105.375,-143.7 -181.95005,-189.225 -76.575,-45.525 -163.95,-69.525 -253.05,-69.525 l -106.425,0 33.675,-106.1262 c 4.65,-14.6988 -0.525,-30.6738 -12.9,-39.8238 -12.375,-9.15 -29.1,-9.4513 -41.775,-0.7512 l -345.075,236.7012 345.075,236.625 c 12.67625,8.7 29.4,8.4 41.775,-0.75 12.375,-9.15 17.55,-25.125 12.9,-39.825 l -33.675,-106.125 106.425,0 c 56.7,0 112.35,15.3 161.025,44.325 48.75,28.95 88.725,70.575 115.79995,120.375 27.0001,49.8 40.1251,105.975 37.9501,162.675 -2.25,56.625 -19.725,111.6 -50.55005,159.15 -35.305,54.4625 -62.625,113.625 -81.075,175.875 -18.375,62.175 -27.75,126.75 -27.75,191.625 l 0,117.9738 180.00005,0 0,-117.9738 c 0,-95.625 27.675,-189.225 79.8,-269.475 48.5337,-74.725 75.8999,-161.175 79.425,-250.2 3.45,-88.95 -17.175,-177.3 -59.625,-255.525 z"
   id="path17" /><path
   inkscape:connector-curvature="0"
   style="fill:#000000;fill-rule:nonzero;stroke:none"
   d="m 2615.675,1646.1863 c -13.9499,-6.375 -30.4499,-3.15 -41.0249,8.025 -10.575,11.1 -12.9,27.75 -5.775,41.4 l 50.85,97.2 c -69,11.4 -136.125,32.175 -199.4251,61.8 15.75,-102.225 10.725,-206.55 -14.925,-306.75 -25.65,-100.1987 -71.4,-194.0987 -134.4,-276.1487 -35.9625,-46.8425 -63.9751,-99.3 -83.025,-155.25 -18.975,-55.875 -28.65,-114.6 -28.65,-173.6238 l 0,-324.07625 106.125,33.6 c 14.625,4.65 30.6,-0.45 39.7499,-12.825 9.1501,-12.37625 9.45,-29.175 0.75,-41.85125 l -236.6249,-345 -236.6999,345 c -8.7,12.67625 -8.4,29.475 0.75,41.85125 9.225,12.3 25.2,17.475 39.825,12.825 l 106.125,-33.6 0,324.07625 c 0,33.75 2.4,67.5 7.125,100.9475 -100.95,-46.87375 -210.9,-71.1 -322.1251,-71.1 l -34.1999,0 33.675,-106.12375 c 4.6498,-14.625 -0.5251,-30.675 -12.825,-39.825 -12.375,-9.15125 -29.175,-9.45 -41.85,-0.75 L 1264.1,1062.6863 l 345.0001,236.6263 c 12.675,8.7 29.475,8.4 41.85,-0.75 12.2999,-9.15 17.4748,-25.125 12.825,-39.825 l -33.675,-106.0513 34.1999,0 c 108.6001,0 215.1001,30.2263 307.575,87.3763 92.4001,57.075 167.0251,138.825 215.625,235.95 48.6001,97.1987 69.1501,205.9487 59.4001,314.1737 -9.75,108.15 -49.425,211.5 -114.6001,298.425 -49.325,65.7875 -87.75,139.125 -113.775,217.125 -25.9499,78 -39.225,159.675 -39.225,241.875 l 0,270 180,0 0,-270 c 0,-69 12.225,-137.55 36.075,-202.275 23.8501,-64.8 59.0251,-124.8 103.8,-177.3 44.7751,-52.575 98.5501,-96.75 158.7,-130.5 60.2251,-33.825 125.925,-56.7 194.1001,-67.575 l -14.9251,111.9 c -2.1,15.225 5.775,30.075 19.575,36.975 13.7251,6.825 30.3,4.275 41.25,-6.525 l 298.7251,-293.025 -380.9251,-173.1 z"
   id="path19" /><path
   inkscape:connector-curvature="0"
   style="fill:#000000;fill-rule:nonzero;stroke:none"
   d="m 754.32875,2975.1126 -137.695,-243.7875 0,243.7875 -56.84625,0 0,-360 56.84625,0 131.37625,229.9 0,-229.9 56.84625,0 0,360 -50.5275,0 z"
   id="path21" /><path
   inkscape:connector-curvature="0"
   style="fill:#000000;fill-rule:nonzero;stroke:none"
   d="m 425.8425,2694.6876 c -11.39625,-18.95 -25.325,-26.525 -46.85125,-27.7875 -27.85875,-1.2625 -45.585,12.6375 -58.24625,44.2125 -8.865,21.475 -13.92875,54.3125 -13.92875,84.625 0,37.9 7.595,77.0625 21.52375,99.8 11.39875,18.9375 26.59125,27.7875 49.385,27.7875 26.59125,0 43.05125,-13.9 55.715,-45.475 7.5975,-18.95 13.92875,-54.3125 13.92875,-82.1125 0,-40.4125 -7.59875,-77.05 -21.52625,-101.05 z m 39.2525,246.325 c -20.26125,27.7875 -49.385,40.4125 -87.37,40.4125 -50.65,0 -82.3075,-20.2125 -103.83375,-64.4125 -15.1925,-30.325 -25.3225,-78.325 -25.3225,-121.275 0,-59.3625 15.19375,-112.4125 39.25375,-146.525 21.52625,-27.7875 50.64875,-40.4125 92.43375,-40.4125 45.58625,0 77.24125,20.2125 100.03375,64.4125 15.19375,31.5875 24.05875,77.0625 24.05875,122.525 0,56.85 -13.92875,113.6875 -39.25375,145.275 z"
   id="path23" /><path
   inkscape:connector-curvature="0"
   style="fill:#000000;fill-rule:nonzero;stroke:none"
   d="m 1287.8376,2818.4751 0,156.6375 -57.1313,0 0,-156.6375 -126.9575,-203.3625 68.5575,0 86.3313,138.95 87.5999,-138.95 67.2875,0 -125.6875,203.3625 z"
   id="path25" /><path
   inkscape:connector-curvature="0"
   style="fill:#000000;fill-rule:nonzero;stroke:none"
   d="m 865.33875,2975.1126 0,-360 56.76625,0 0,306.95 166.5225,0 0,53.05 -223.28875,0 z"
   id="path27" /></svg>