<?xml version="1.0" encoding="UTF-8" standalone="no"?>
<!-- Generator: Adobe Illustrator 14.0.0, SVG Export Plug-In  -->

<svg
   xmlns:dc="http://purl.org/dc/elements/1.1/"
   xmlns:cc="http://creativecommons.org/ns#"
   xmlns:rdf="http://www.w3.org/1999/02/22-rdf-syntax-ns#"
   xmlns:svg="http://www.w3.org/2000/svg"
   xmlns="http://www.w3.org/2000/svg"
   xmlns:sodipodi="http://sodipodi.sourceforge.net/DTD/sodipodi-0.dtd"
   xmlns:inkscape="http://www.inkscape.org/namespaces/inkscape"
   version="1.1"
   x="0px"
   y="0px"
   width="90.687477"
   height="90.718727"
   viewBox="0 -0.321 90.68748 90.718746"
   enable-background="new 0 -0.321 144 120"
   xml:space="preserve"
   id="svg2"
   inkscape:version="0.48.2 r9819"
   sodipodi:docname="MUTCD R3-5cP.svg"><metadata
   id="metadata44"><rdf:RDF><cc:Work
       rdf:about=""><dc:format>image/svg+xml</dc:format><dc:type
         rdf:resource="http://purl.org/dc/dcmitype/StillImage" /><dc:title></dc:title></cc:Work></rdf:RDF></metadata><sodipodi:namedview
   pagecolor="#ffffff"
   bordercolor="#666666"
   borderopacity="1"
   objecttolerance="10"
   gridtolerance="10"
   guidetolerance="10"
   inkscape:pageopacity="0"
   inkscape:pageshadow="2"
   inkscape:window-width="1280"
   inkscape:window-height="1004"
   id="namedview42"
   showgrid="false"
   fit-margin-top="0"
   fit-margin-left="0"
   fit-margin-right="0"
   fit-margin-bottom="0"
   inkscape:zoom="5.3605324"
   inkscape:cx="25.275603"
   inkscape:cy="59.77539"
   inkscape:window-x="-8"
   inkscape:window-y="-8"
   inkscape:window-maximized="1"
   inkscape:current-layer="svg2" />
<defs
   id="defs4">
</defs>


















<path
   inkscape:connector-curvature="0"
   d="m 5.9643796,0.04231 78.7500204,0 c 3.0975,0 5.625,2.5275 5.625,5.62625 l 0,78.74877 c 0,3.09875 -2.5275,5.625 -5.625,5.625 l -78.7500204,0 c -3.0975,0 -5.62500003,-2.52625 -5.62500003,-5.625 l 0,-78.74877 c 0,-3.09875 2.52750003,-5.62625 5.62500003,-5.62625"
   style="fill:#ffffff;fill-opacity:1;fill-rule:nonzero;stroke:#000000;stroke-width:0.70000017;stroke-miterlimit:4;stroke-opacity:1;stroke-dasharray:none"
   id="path6022" /><path
   inkscape:connector-curvature="0"
   d="m 5.9831296,1.54493 30.3175004,0 43.34751,0 c 2.22875,0 5.7025,-0.61375 7.6075,0.88125 2.11625,1.6625 1.58375,4.71125 1.58375,7.0775 l 0,42.12626 0,32.66375 c 0,2.82751 -2.26,4.24751 -4.83125,4.24751 l -13.0925,0 -46.85001,0 -15.9050004,0 c -2.50875,0 -5.3175,-0.0238 -6.16375,-2.99751 -0.24,-0.8475 -0.1575,-1.79 -0.1575,-2.66375 l 0,-5.79375 0,-20.34625 0,-44.48751 c 0,-3.4425 -1.26375003,-10.68625 4.14375,-10.7075"
   style="fill:#000000;fill-opacity:1;fill-rule:evenodd;stroke:none"
   id="path6030" /><path
   inkscape:connector-curvature="0"
   d="m 6.0118796,3.79231 30.3987504,0 43.32251,0 4.43625,0 c 0.6275,0 1.21875,0.008 1.73125,0.43 1.28625,1.05875 0.68875,4.0575 0.68875,5.4375 l 0,42.34876 0,32.29501 c 0,2.11375 -2.06125,1.98875 -3.58875,1.98875 l -21.29,0 -9.93625,0 -2.41,0 -2.905,0 -2.39,0 -37.9850104,0 c -1.73375,0 -1.995,-1.4525 -1.995,-2.83625 l 0,-13.69876 0,-46.97001 0,-15.315 c 0,-1.37125 -0.25125,-3.365 1.59,-3.655 0.10875,-0.0175 0.2225,-0.025 0.3325,-0.025"
   style="fill:#ffffff;fill-opacity:1;fill-rule:evenodd;stroke:none"
   id="path6034" /><path
   inkscape:connector-curvature="0"
   d="m 41.10063,55.74107 0.0437,9.065 -7.58376,0 0,-9.10875 c 0,-3.27625 -1.07625,-6.5525 -3.09625,-9.2 -1.795,-2.3325 -4.3975,-4.17125 -7.31375,-4.935 l -3.23125,-0.8525 0.225,4.6675 c 0,0.13375 -0.045,0.27 -0.0887,0.4025 -0.22625,0.67375 -0.76375,1.1675 -1.48125,1.1225 -0.405,-0.045 -0.8075,-0.17875 -1.0775,-0.49375 L 6.1006196,33.08232 22.65812,27.24857 c 0.26875,-0.0888 0.5375,-0.13375 0.8525,-0.0438 0.6725,0.1775 1.16625,0.8525 1.12,1.57 0,0.13375 -0.09,0.5375 -0.22375,0.6725 l -2.73625,4.30875 3.365,0.85125 c 4.57625,1.2125 8.65875,3.99375 11.48626,7.71875 1.93,2.51125 3.41,5.4725 4.03875,8.57 0.36,1.615 0.44875,3.23 0.54,4.845"
   style="fill:#000000;fill-opacity:1;fill-rule:evenodd;stroke:none"
   id="path6038" /><path
   inkscape:connector-curvature="0"
   d="m 45.09313,68.97856 -2.245,0 -2.87,4.62126 -2.8725,-4.62126 -2.28875,0 4.21875,6.77751 0,5.24875 1.885,0 0,-5.24875 4.1725,-6.77751 z m -10.59001,12.02626 0,-1.7975 -5.56375,0 0,-10.22876 -1.93,0 0,12.02626 7.49375,0 z m -9.6925,0 0,-12.02626 -1.88375,0 0,7.67376 -4.3975,-7.67376 -1.93,0 0,12.02626 1.93,0 0,-8.1675 4.5775,8.1675 1.70375,0 z m -12.115,-6.015 c 0,0.9425 -0.18,2.11 -0.4475,2.73875 -0.405,1.07875 -0.98875,1.52625 -1.84,1.52625 -0.7637504,0 -1.2562504,-0.27 -1.6612504,-0.89625 -0.4475,-0.765 -0.7175,-2.11125 -0.7175,-3.36875 0,-0.985 0.18,-2.1075 0.44875,-2.825 0.44875,-1.03251 1.03125,-1.52626 1.9737504,-1.48001 0.7175,0.0438 1.1675,0.31375 1.52625,0.94125 0.49375,0.80751 0.7175,2.02001 0.7175,3.36376 m 1.93,0 c 0,-1.525 -0.315,-3.00375 -0.80875,-4.08126 -0.76125,-1.48125 -1.83875,-2.15375 -3.31875,-2.15375 -1.3925004,0 -2.3787504,0.4025 -3.0975004,1.34625 -0.8075,1.165 -1.3,2.91501 -1.3,4.88876 0,1.4375 0.31375,3.0525 0.8525,4.08375 0.71625,1.43625 1.75,2.15625 3.4550004,2.15625 1.255,0 2.2425,-0.45 2.91625,-1.3925 0.8075,-1.03 1.30125,-2.915 1.30125,-4.8475"
   style="fill:#000000;fill-opacity:1;fill-rule:evenodd;stroke:none"
   id="path6042" /><path
   inkscape:connector-curvature="0"
   d="m 77.80439,21.8198 -0.0462,43.07501 -7.40375,-0.0437 c -0.0888,0 -2.24375,-12.43 -5.5625,-17.72375 -3.1425,-4.98125 -7.27,-9.19875 -11.8025,-12.9225 l -2.78125,-2.29 -1.48,4.6675 c -0.045,0.135 -0.045,0.27 -0.13625,0.35875 -0.44875,0.58375 -1.12125,0.85375 -1.79375,0.53875 -0.315,-0.135 -0.6725,-0.44875 -0.80875,-0.7625 l -5.9675,-16.19876 17.14125,0.0913 c 0.315,0 0.62875,0.1325 0.8525,0.31375 0.58375,0.40375 0.8075,1.12 0.4925,1.7925 -0.0888,0.27125 -0.2225,0.44875 -0.44875,0.58375 l -3.41,2.64876 2.7375,1.795 c 3.41,2.2425 6.50625,4.98 9.155,8.07625 1.435,1.615 2.64625,3.365 3.8575,5.11375 l 0,-19.11376 -4.4425,1.3925 c -0.0437,0.0437 -0.13375,0.0437 -0.22375,0.0437 l -0.18,0 c -0.31375,0 -0.5825,-0.0437 -0.80625,-0.225 -0.49375,-0.315 -0.72,-0.8525 -0.67375,-1.435 0.045,-0.18125 0.09,-0.45 0.22375,-0.58375 L 74.07944,6.7886 83.8157,20.96735 c 0.18,0.26875 0.31375,0.5375 0.31375,0.8525 -0.0438,0.71875 -0.5375,1.345 -1.255,1.48 -0.22501,0.0462 -0.49501,0 -0.71876,-0.0875 l -4.35125,-1.3925 z"
   style="fill:#000000;fill-opacity:1;fill-rule:evenodd;stroke:none"
   id="path6046" /><path
   inkscape:connector-curvature="0"
   d="m 76.54563,81.00495 -3.9475,-7.35875 3.72375,-4.66751 -2.46625,0 -3.76875,4.75751 0,-4.75751 -1.93,0 0,12.02626 1.93,0 0,-4.13 1.255,-1.56875 3.0525,5.69875 2.15125,0 z m -12.2925,-6.015 c 0,0.9425 -0.18,2.11 -0.45,2.73875 -0.40375,1.07875 -0.98625,1.52625 -1.84,1.52625 -0.76125,0 -1.30125,-0.27 -1.65875,-0.89625 -0.44875,-0.765 -0.71875,-2.11125 -0.71875,-3.36875 0,-0.985 0.18,-2.1075 0.44875,-2.825 0.44875,-1.03251 1.0325,-1.52626 1.97375,-1.48001 0.71875,0.0437 1.1675,0.31375 1.5275,0.94125 0.49125,0.80751 0.7175,2.02001 0.7175,3.36376 m 1.92875,0 c 0,-1.525 -0.31375,-3.00375 -0.8075,-4.08126 -0.7625,-1.48125 -1.83875,-2.15375 -3.36625,-2.15375 -1.39,0 -2.3325,0.4025 -3.05,1.34625 -0.8075,1.165 -1.3025,2.91501 -1.3025,4.88876 0,1.4375 0.315,3.0525 0.80875,4.08375 0.7175,1.43625 1.79375,2.15625 3.49875,2.15625 1.2575,0 2.2,-0.45 2.8725,-1.3925 0.8525,-1.03 1.34625,-2.915 1.34625,-4.8475"
   style="fill:#000000;fill-opacity:1;fill-rule:evenodd;stroke:none"
   id="path6050" /><path
   inkscape:connector-curvature="0"
   d="m 46.62001,48.02494 2.3775,0 0,39.16626 -2.3775,0 0,-39.16626 z"
   style="fill:#000000;fill-opacity:1;fill-rule:evenodd;stroke:none"
   id="path6052" /></svg>