<?xml version="1.0" encoding="UTF-8" standalone="no"?>
<svg
   xmlns:dc="http://purl.org/dc/elements/1.1/"
   xmlns:cc="http://creativecommons.org/ns#"
   xmlns:rdf="http://www.w3.org/1999/02/22-rdf-syntax-ns#"
   xmlns:svg="http://www.w3.org/2000/svg"
   xmlns="http://www.w3.org/2000/svg"
   xmlns:sodipodi="http://sodipodi.sourceforge.net/DTD/sodipodi-0.dtd"
   xmlns:inkscape="http://www.inkscape.org/namespaces/inkscape"
   width="543.91565"
   height="543.91565"
   viewBox="0 0 435.13252 435.13252"
   version="1.1"
   id="svg2"
   inkscape:version="0.48.4 r9939"
   sodipodi:docname="AJAX1.svg">
  <metadata
     id="metadata31">
    <rdf:RDF>
      <cc:Work
         rdf:about="">
        <dc:format>image/svg+xml</dc:format>
        <dc:type
           rdf:resource="http://purl.org/dc/dcmitype/StillImage" />
      </cc:Work>
    </rdf:RDF>
  </metadata>
  <defs
     id="defs29" />
  <sodipodi:namedview
     pagecolor="#ffffff"
     bordercolor="#666666"
     borderopacity="1"
     objecttolerance="10"
     gridtolerance="10"
     guidetolerance="10"
     inkscape:pageopacity="0"
     inkscape:pageshadow="2"
     inkscape:window-width="1280"
     inkscape:window-height="1004"
     id="namedview27"
     showgrid="false"
     fit-margin-top="0.2"
     fit-margin-left="0.2"
     fit-margin-right="0.2"
     fit-margin-bottom="0.2"
     inkscape:zoom="0.66878307"
     inkscape:cx="193.01169"
     inkscape:cy="29.609128"
     inkscape:window-x="-8"
     inkscape:window-y="-8"
     inkscape:window-maximized="1"
     inkscape:current-layer="svg2" />
  <path
     inkscape:connector-curvature="0"
     d="m 433.56268,406.5704 c 0,14.91 -12.089,27 -27,27 l -378,0 c -14.912,0 -27,-12.09 -27,-27 l 0,-378.001001 c 0,-14.910999 12.088,-26.999999 27,-26.999999 l 378,0 c 14.911,0 27,12.089 27,26.999999 l 0,378.001001 z"
     style="fill:#ffffff;fill-opacity:1;fill-rule:nonzero;stroke:#000000;stroke-width:2.79999995;stroke-miterlimit:4;stroke-opacity:1;stroke-dasharray:none"
     id="path3035" />
  <path
     inkscape:connector-curvature="0"
     d="m 415.56268,406.5704 c 0,4.961 -4.037,9 -9,9 l -175.5,0 0,-198.001 -10.5,0 0,198.001 -192,0 c -4.962,0 -9,-4.039 -9,-9 l 0,-378.001001 c 0,-4.962 4.038,-8.999999 9,-8.999999 l 378,9.6e-4 c 4.963,-9.6e-4 9,4.036999 9,8.999999 l 0,378.000001 z m -9,-397.501 -378,0 c -10.752,10e-4 -19.5,8.748 -19.5,19.499999 l 0,378.001001 c 0,10.752 8.748,19.5 19.5,19.5 l 378,0 c 10.752,0 19.5,-8.748 19.5,-19.5 l 0,-378.001001 c 0,-10.751999 -8.748,-19.498999 -19.5,-19.499999"
     style="fill:#000000;fill-opacity:1;fill-rule:nonzero;stroke:none"
     id="path3043" />
  <path
     inkscape:connector-curvature="0"
     d="m 189.06268,231.9893 c -0.07,-11.059 -1.93,-22.04 -5.51,-32.5 l -0.008,0 c -3.583,-10.444 -8.844,-20.252 -15.592,-29.04 -4.795,-6.245 -8.53,-13.24 -11.07,-20.7 -2.53,-7.45 -3.82,-15.279 -3.82,-23.149 l 0,-43.209997 14.15,4.48 c 1.95,0.62 4.08,-0.06104 5.3,-1.71 1.22,-1.651 1.26,-3.891 0.1,-5.581 l -31.55,-46 -31.56,46 c -1.16,1.69 -1.12,3.93 0.1,5.581 1.231,1.639 3.36,2.33 5.31,1.71 l 14.15,-4.48 0,43.209997 c 0,4.5 0.32,9 0.95,13.459 -13.46,-6.25 -28.12,-9.48 -42.95,-9.48 l -6.698,0 4.49,-14.149 c 0.62,-1.951 -0.07,-4.091 -1.71,-5.311 -1.65,-1.22 -3.89,-1.26 -5.581,-0.1 l -45.999,31.56 46,31.55 c 1.69,1.16 3.93,1.12 5.58,-0.1 1.64,-1.22 2.33,-3.35 1.71,-5.31 l -4.49,-14.14 6.698,0 c 14.48,0 28.68,4.03 41.01,11.65 12.32,7.61 22.27,18.51 28.75,31.46 l 0.012,0.004 c 6.469,12.959 9.218,27.458 7.908,41.886 -1.3,14.42 -6.59,28.2 -15.28,39.79 -6.577,8.773 -11.7,18.541 -15.16,28.941 -3.47,10.398 -5.24,21.299 -5.24,32.26 l 0,36 24,0 0,-36 c 0,-8.381 1.35,-16.711 4,-24.67 2.65,-7.951 6.567,-15.422 11.6,-22.131 6.64,-8.85 11.79,-18.721 15.26,-29.22 3.46,-10.499 5.2,-21.499 5.14,-32.56"
     style="fill:#000000;fill-opacity:1;fill-rule:nonzero;stroke:none"
     id="path3047" />
  <path
     inkscape:connector-curvature="0"
     d="m 117.06268,232.5693 c 0,16.569 -13.431,30 -30,30 -16.568,0 -30,-13.431 -30,-30 0,-16.568 13.432,-30 30,-30 16.569,0 30,13.432 30,30"
     style="fill:#000000;fill-opacity:1;fill-rule:nonzero;stroke:none"
     id="path3051" />
  <path
     inkscape:connector-curvature="0"
     d="m 288.91268,83.379303 14.15,4.491 c 1.95,0.62 4.08,-0.07104 5.3,-1.71 1.23,-1.651 1.27,-3.891 0.11,-5.581 l -31.56,-46 -31.56,46 c -1.16,1.69 -1.11,3.93 0.11,5.581 1.22,1.639 3.35,2.33 5.3,1.71 l 14.15,-4.491 0,43.220997 c 0,10.5 1.72,20.929 5.1,30.869 3.38,9.94 8.37,19.27 14.76,27.6 5.144,6.705 9.18,14.2 11.92,22.21 2.75,8 4.17,16.39 4.22,24.851 0.05,8.459 -1.28,16.859 -3.93,24.899 -2.649,8.03 -6.6,15.57 -11.67,22.34 -6.572,8.777 -11.7,18.541 -15.17,28.941 -3.46,10.398 -5.23,21.299 -5.23,32.26 l 0,36 24,0 0,-36 c 0,-9.211 1.63,-18.34 4.81,-26.971 3.18,-8.641 7.87,-16.641 13.84,-23.65 5.98,-7 13.14,-12.889 21.17,-17.389 8.02,-4.511 16.78,-7.561 25.87,-9.011 l -1.99,14.919 c -0.27,2.031 0.78,4.012 2.61,4.932 1.83,0.91 4.04,0.558 5.51,-0.871 l 39.82,-39.07 -50.78,-23.09 c -1.87,-0.84 -4.07,-0.41 -5.48,1.07 -1.4,1.491 -1.709,3.71 -0.76,5.531 l 6.78,12.96 c -9.21,1.519 -18.15,4.29 -26.6,8.239 2.11,-13.63 1.43,-27.539 -1.99,-40.9 -3.42,-13.36 -9.51,-25.89 -17.91,-36.82 -4.802,-6.248 -8.54,-13.24 -11.07,-20.7 -2.54,-7.46 -3.83,-15.279 -3.83,-23.149 l 0,-43.220997 z"
     style="fill:#000000;fill-opacity:1;fill-rule:nonzero;stroke:none"
     id="path3055" />
</svg>
