<?xml version="1.0" encoding="UTF-8" standalone="no"?>
<svg
   xmlns:dc="http://purl.org/dc/elements/1.1/"
   xmlns:cc="http://creativecommons.org/ns#"
   xmlns:rdf="http://www.w3.org/1999/02/22-rdf-syntax-ns#"
   xmlns:svg="http://www.w3.org/2000/svg"
   xmlns="http://www.w3.org/2000/svg"
   xmlns:sodipodi="http://sodipodi.sourceforge.net/DTD/sodipodi-0.dtd"
   xmlns:inkscape="http://www.inkscape.org/namespaces/inkscape"
   width="543.91565"
   height="543.91565"
   viewBox="0 0 435.13252 435.13252"
   version="1.1"
   id="svg2"
   inkscape:version="0.48.4 r9939"
   sodipodi:docname="AJAX1.svg">
  <metadata
     id="metadata31">
    <rdf:RDF>
      <cc:Work
         rdf:about="">
        <dc:format>image/svg+xml</dc:format>
        <dc:type
           rdf:resource="http://purl.org/dc/dcmitype/StillImage" />
      </cc:Work>
    </rdf:RDF>
  </metadata>
  <defs
     id="defs29" />
  <sodipodi:namedview
     pagecolor="#ffffff"
     bordercolor="#666666"
     borderopacity="1"
     objecttolerance="10"
     gridtolerance="10"
     guidetolerance="10"
     inkscape:pageopacity="0"
     inkscape:pageshadow="2"
     inkscape:window-width="1280"
     inkscape:window-height="1004"
     id="namedview27"
     showgrid="false"
     fit-margin-top="0.2"
     fit-margin-left="0.2"
     fit-margin-right="0.2"
     fit-margin-bottom="0.2"
     inkscape:zoom="0.9713002"
     inkscape:cx="240.88685"
     inkscape:cy="200.44232"
     inkscape:window-x="-8"
     inkscape:window-y="-8"
     inkscape:window-maximized="1"
     inkscape:current-layer="svg2" />
  <path
     inkscape:connector-curvature="0"
     d="m 433.57279,406.56092 c 0,14.91 -12.089,27 -27,27 l -378.000004,0 c -14.912,0 -27,-12.09 -27,-27 l 0,-378.001001 c 0,-14.911 12.088,-26.9999997 27,-26.9999997 l 378.000004,0 c 14.911,0 27,12.0889997 27,26.9999997 l 0,378.001001 z"
     style="fill:#ffffff;fill-opacity:1;fill-rule:nonzero;stroke:#000000;stroke-width:2.79999995;stroke-miterlimit:4;stroke-opacity:1;stroke-dasharray:none"
     id="path5430" />
  <path
     inkscape:connector-curvature="0"
     d="m 415.57279,406.56092 c 0,4.961 -4.037,9 -9,9 l -175.5,0 0,-198.00101 -10.5,0 0,198.00101 -192.000004,0 c -4.962,0 -9,-4.039 -9,-9 l 0,-378.001001 c 0,-4.962 4.038,-9 9,-9 l 378.000004,9.6e-4 c 4.963,-9.6e-4 9,4.037 9,9 l 0,378.000001 z m -9,-397.5010007 -378.000004,0 c -10.752,10e-4 -19.5,8.7479997 -19.5,19.4999997 l 0,378.001001 c 0,10.752 8.748,19.5 19.5,19.5 l 378.000004,0 c 10.752,0 19.5,-8.748 19.5,-19.5 l 0,-378.001001 c 0,-10.752 -8.748,-19.4989997 -19.5,-19.4999997"
     style="fill:#000000;fill-opacity:1;fill-rule:nonzero;stroke:none"
     id="path5438" />
  <path
     inkscape:connector-curvature="0"
     d="m 324.06279,83.369819 14.15,4.491 c 1.96,0.62 4.09,-0.071 5.31,-1.71 1.22,-1.651 1.26,-3.891 0.1,-5.581 l -31.56,-46 -31.55,46 c -1.16,1.69 -1.12,3.93 0.1,5.581 1.22,1.639 3.35,2.33 5.31,1.71 l 14.15,-4.491 0,17.721001 c 0,10.49999 1.72,20.92899 5.1,30.86999 3.37,9.949 8.36,19.269 14.76,27.599 5.149,6.701 9.17,14.21 11.92,22.21 2.741,8 4.16,16.39 4.21,24.85 0.05,8.46 -1.28,16.87 -3.929,24.9 -2.651,8.03 -6.591,15.58 -11.671,22.34 -6.583,8.761 -11.69,18.55 -15.16,28.951 -3.47,10.40001 -5.23,21.28901 -5.23,32.25001 l 0,18 23.99,0 0,-18 c 0,-8.381 1.36,-16.711 4.01,-24.67001 2.65,-7.951 6.56,-15.42 11.59,-22.131 6.637,-8.852 11.79,-18.719 15.26,-29.219 3.47,-10.5 5.2,-21.501 5.14,-32.561 -0.06,-11.06 -1.92,-22.04 -5.51,-32.5 -3.59,-10.46 -8.85,-20.27 -15.59,-29.04 -4.802,-6.248 -8.54,-13.24 -11.07,-20.7 -2.53,-7.45 -3.83,-15.28 -3.83,-23.14899 l 0,-17.721001 z"
     style="fill:#000000;fill-opacity:1;fill-rule:nonzero;stroke:none"
     id="path5442" />
  <path
     inkscape:connector-curvature="0"
     d="m 189.07279,231.97981 c -0.07,-11.059 -1.93,-22.04 -5.51,-32.5 l -0.008,0 c -3.583,-10.444 -8.844,-20.252 -15.592,-29.04 -4.795,-6.245 -8.53,-13.24 -11.07,-20.7 -2.53,-7.45 -3.82,-15.279 -3.82,-23.149 l 0,-43.209991 14.15,4.48 c 1.95,0.62 4.08,-0.061 5.3,-1.71 1.22,-1.651 1.26,-3.891 0.1,-5.581 l -31.55,-46 -31.56,46 c -1.16,1.69 -1.12,3.93 0.1,5.581 1.231,1.639 3.36,2.33 5.31,1.71 l 14.15,-4.48 0,43.209991 c 0,4.5 0.32,9 0.95,13.459 -13.46,-6.25 -28.12,-9.48 -42.95,-9.48 l -6.698,0 4.49,-14.149 c 0.62,-1.951 -0.07,-4.091 -1.71,-5.311 -1.65,-1.22 -3.89,-1.26 -5.581,-0.1 l -45.999004,31.56 46.000004,31.55 c 1.69,1.16 3.93,1.12 5.58,-0.1 1.64,-1.22 2.33,-3.35 1.71,-5.31 l -4.49,-14.14 6.698,0 c 14.48,0 28.68,4.03 41.01,11.65 12.32,7.61 22.27,18.51 28.75,31.46 l 0.012,0.004 c 6.469,12.959 9.218,27.458 7.908,41.886 -1.3,14.42 -6.59,28.2 -15.28,39.79 -6.577,8.773 -11.7,18.54101 -15.16,28.94101 -3.47,10.398 -5.24,21.299 -5.24,32.26 l 0,36 24,0 0,-36 c 0,-8.381 1.35,-16.711 4,-24.67 2.65,-7.951 6.567,-15.422 11.6,-22.131 6.64,-8.85001 11.79,-18.72101 15.26,-29.22001 3.46,-10.499 5.2,-21.499 5.14,-32.56"
     style="fill:#000000;fill-opacity:1;fill-rule:nonzero;stroke:none"
     id="path5446" />
  <path
     inkscape:connector-curvature="0"
     d="m 117.07279,232.55981 c 0,16.569 -13.431,30 -30,30 -16.568,0 -30,-13.431 -30,-30 0,-16.568 13.432,-30 30,-30 16.569,0 30,13.432 30,30"
     style="fill:#000000;fill-opacity:1;fill-rule:nonzero;stroke:none"
     id="path5450" />
  <path
     inkscape:connector-curvature="0"
     d="m 313.25279,397.56092 -18.36,-32.506 0,32.506 -7.58,0 0,-48 7.58,0 17.517,30.652 0,-30.652 7.579,0 0,48 -6.736,0 z"
     style="fill:#000000;fill-opacity:1;fill-rule:nonzero;stroke:none"
     id="path5454" />
  <path
     inkscape:connector-curvature="0"
     d="m 269.45379,360.16982 c -1.52,-2.525 -3.376,-3.537 -6.246,-3.705 -3.715,-0.168 -6.078,1.684 -7.767,5.895 -1.181,2.863 -1.857,7.242 -1.857,11.285 0,5.052 1.012,10.273 2.87,13.304 1.519,2.528 3.546,3.705 6.585,3.705 3.545,0 5.74,-1.851 7.429,-6.062 1.012,-2.527 1.856,-7.242 1.856,-10.947 0,-5.391 -1.013,-10.274 -2.87,-13.475 m 5.234,32.842 c -2.702,3.707 -6.585,5.391 -11.649,5.391 -6.754,0 -10.975,-2.696 -13.845,-8.59 -2.025,-4.043 -3.376,-10.442 -3.376,-16.168 0,-7.916 2.026,-14.991 5.234,-19.537 2.87,-3.705 6.752,-5.391 12.324,-5.391 6.078,0 10.299,2.695 13.338,8.59 2.026,4.211 3.208,10.273 3.208,16.338 0,7.578 -1.858,15.158 -5.234,19.367"
     style="fill:#000000;fill-opacity:1;fill-rule:nonzero;stroke:none"
     id="path5458" />
  <path
     inkscape:connector-curvature="0"
     d="m 384.38679,376.67582 0,20.885 -7.618,0 0,-20.885 -16.927,-27.117 9.141,0 11.511,18.527 11.68,-18.527 8.971,0 -16.758,27.117 z"
     style="fill:#000000;fill-opacity:1;fill-rule:nonzero;stroke:none"
     id="path5462" />
  <path
     inkscape:connector-curvature="0"
     d="m 328.05279,397.56092 0,-48 7.57,0 0,40.926 22.203,0 0,7.074 -29.773,0 z"
     style="fill:#000000;fill-opacity:1;fill-rule:nonzero;stroke:none"
     id="path5466" />
</svg>
