<?xml version="1.0" encoding="UTF-8" standalone="no"?>
<svg
   xmlns:dc="http://purl.org/dc/elements/1.1/"
   xmlns:cc="http://creativecommons.org/ns#"
   xmlns:rdf="http://www.w3.org/1999/02/22-rdf-syntax-ns#"
   xmlns:svg="http://www.w3.org/2000/svg"
   xmlns="http://www.w3.org/2000/svg"
   xmlns:sodipodi="http://sodipodi.sourceforge.net/DTD/sodipodi-0.dtd"
   xmlns:inkscape="http://www.inkscape.org/namespaces/inkscape"
   width="543.91565"
   height="543.91565"
   viewBox="0 0 435.13252 435.13252"
   version="1.1"
   id="svg2"
   inkscape:version="0.48.4 r9939"
   sodipodi:docname="AJAX1.svg">
  <metadata
     id="metadata31">
    <rdf:RDF>
      <cc:Work
         rdf:about="">
        <dc:format>image/svg+xml</dc:format>
        <dc:type
           rdf:resource="http://purl.org/dc/dcmitype/StillImage" />
      </cc:Work>
    </rdf:RDF>
  </metadata>
  <defs
     id="defs29" />
  <sodipodi:namedview
     pagecolor="#ffffff"
     bordercolor="#666666"
     borderopacity="1"
     objecttolerance="10"
     gridtolerance="10"
     guidetolerance="10"
     inkscape:pageopacity="0"
     inkscape:pageshadow="2"
     inkscape:window-width="1280"
     inkscape:window-height="1004"
     id="namedview27"
     showgrid="false"
     fit-margin-top="0.2"
     fit-margin-left="0.2"
     fit-margin-right="0.2"
     fit-margin-bottom="0.2"
     inkscape:zoom="0.9713002"
     inkscape:cx="212.7056"
     inkscape:cy="231.16231"
     inkscape:window-x="-8"
     inkscape:window-y="-8"
     inkscape:window-maximized="1"
     inkscape:current-layer="svg2" />
  <path
     inkscape:connector-curvature="0"
     d="m 433.56394,406.56849 c 0,14.911 -12.089,27 -27,27 l -378,0 c -14.912,0 -27,-12.089 -27,-27 l 0,-377.999999 c 0,-14.912 12.088,-27 27,-27 l 378,0 c 14.911,0 27,12.088 27,27 l 0,377.999999 z"
     style="fill:#ffffff;fill-opacity:1;fill-rule:nonzero;stroke:#000000;stroke-width:2.79999995;stroke-miterlimit:4;stroke-opacity:1;stroke-dasharray:none"
     id="path6983" />
  <path
     inkscape:connector-curvature="0"
     d="m 415.56394,406.56849 c 0,4.962 -4.037,9 -9,9 l -175.5,0 0,-198 -10.5,0 0,198 -192,0 c -4.962,0 -9,-4.038 -9,-9 l 0,-377.999999 c 0,-4.963 4.038,-9 9,-9 l 378,0 c 4.963,0 9,4.037 9,9 l 0,377.999999 z m -9,-397.499999 -378,0 c -10.752,0 -19.5,8.748 -19.5,19.5 l 0,377.999999 c 0,10.752 8.748,19.5 19.5,19.5 l 378,0 c 10.752,0 19.5,-8.748 19.5,-19.5 l 0,-377.999999 c 0,-10.752 -8.748,-19.5 -19.5,-19.5"
     style="fill:#000000;fill-opacity:1;fill-rule:nonzero;stroke:none"
     id="path6991" />
  <path
     inkscape:connector-curvature="0"
     d="m 189.06394,231.98849 c -0.07,-11.06 -1.93,-22.04 -5.51,-32.5 l -0.008,-8e-4 c -3.583,-10.4432 -8.844,-20.2512 -15.592,-29.0392 -4.795,-6.246 -8.53,-13.24 -11.07,-20.7 -2.53,-7.45 -3.82,-15.28 -3.82,-23.15 l 0,-43.21 14.15,4.48 c 1.95,0.62 4.08,-0.06 5.3,-1.71 1.22,-1.65 1.26,-3.89 0.1,-5.58 l -31.55,-45.999999 -31.56,45.999999 c -1.16,1.69 -1.12,3.93 0.1,5.58 1.231,1.64 3.36,2.33 5.31,1.71 l 14.15,-4.48 0,43.21 c 0,4.5 0.32,9 0.95,13.46 -13.46,-6.25 -28.12,-9.48 -42.95,-9.48 l -6.698,0 4.49,-14.15 c 0.62,-1.95 -0.07,-4.09 -1.71,-5.31 -1.65,-1.22 -3.89,-1.26 -5.581,-0.1 l -45.999,31.56 46,31.55 c 1.69,1.16 3.93,1.12 5.58,-0.1 1.64,-1.22 2.33,-3.35 1.71,-5.31 l -4.49,-14.14 6.698,0 c 14.48,0 28.68,4.03 41.01,11.65 12.32,7.61 22.27,18.51 28.75,31.46 l 0.012,0.004 c 6.469,12.959 9.218,27.458 7.908,41.886 -1.3,14.42 -6.59,28.2 -15.28,39.79 -6.577,8.772 -11.7,18.54 -15.16,28.94 -3.47,10.399 -5.24,21.3 -5.24,32.26 l 0,36 24,0 0,-36 c 0,-8.38 1.35,-16.71 4,-24.67 2.65,-7.95 6.567,-15.422 11.6,-22.13 6.64,-8.851 11.79,-18.721 15.26,-29.221 3.46,-10.499 5.2,-21.499 5.14,-32.559"
     style="fill:#000000;fill-opacity:1;fill-rule:nonzero;stroke:none"
     id="path6995" />
  <path
     inkscape:connector-curvature="0"
     d="m 117.06394,232.56849 c 0,16.568 -13.431,30 -30,30 -16.568,0 -30,-13.432 -30,-30 0,-16.569 13.432,-30 30,-30 16.569,0 30,13.431 30,30"
     style="fill:#000000;fill-opacity:1;fill-rule:nonzero;stroke:none"
     id="path6999" />
  <path
     inkscape:connector-curvature="0"
     d="m 362.04394,243.51849 c 0.21,2.04 1.68,3.72 3.68,4.189 2,0.46 4.07,-0.389 5.16,-2.129 l 29.67,-47.23 -54.75,-10.68 c -2.02,-0.39 -4.05,0.53 -5.08,2.31 -1.02,1.77 -0.81,4 0.54,5.55 l 9.74,11.2 -12.49,5.41 -1.27,0.55 c -7.08,3.18 -13.67,7.37 -19.55,12.43 -5.89,5.06 -11.02,10.93 -15.23,17.45 -4.22,6.519 -7.47,13.61 -9.67,21.05 -2.2,7.45 -3.31,15.17 -3.31,22.929 l -0.01,46.521 24,0 0.01,-46.521 c 0,-10.92 3.14,-21.609 9.04,-30.799 5.9,-9.19 14.32,-16.491 24.25,-21.03 0.342,-0.156 0.86,-0.39 1.21,-0.54 l 12.55,-5.43 1.51,14.77 z"
     style="fill:#000000;fill-opacity:1;fill-rule:nonzero;stroke:none"
     id="path7003" />
  <path
     inkscape:connector-curvature="0"
     d="m 313.24394,397.56849 -18.36,-32.506 0,32.506 -7.58,0 0,-48 7.58,0 17.517,30.652 0,-30.652 7.579,0 0,48 -6.736,0 z"
     style="fill:#000000;fill-opacity:1;fill-rule:nonzero;stroke:none"
     id="path7007" />
  <path
     inkscape:connector-curvature="0"
     d="m 269.44494,360.17849 c -1.52,-2.526 -3.376,-3.537 -6.246,-3.705 -3.715,-0.169 -6.078,1.684 -7.767,5.895 -1.181,2.863 -1.857,7.242 -1.857,11.284 0,5.053 1.012,10.273 2.87,13.305 1.519,2.527 3.546,3.706 6.585,3.706 3.545,0 5.74,-1.853 7.429,-6.064 1.012,-2.526 1.856,-7.242 1.856,-10.947 0,-5.39 -1.013,-10.274 -2.87,-13.474 m 5.234,32.842 c -2.702,3.706 -6.585,5.39 -11.649,5.39 -6.754,0 -10.975,-2.696 -13.845,-8.589 -2.025,-4.043 -3.376,-10.443 -3.376,-16.169 0,-7.916 2.026,-14.989 5.234,-19.537 2.87,-3.705 6.752,-5.39 12.324,-5.39 6.078,0 10.299,2.695 13.338,8.59 2.026,4.211 3.208,10.273 3.208,16.337 0,7.579 -1.858,15.158 -5.234,19.368"
     style="fill:#000000;fill-opacity:1;fill-rule:nonzero;stroke:none"
     id="path7011" />
  <path
     inkscape:connector-curvature="0"
     d="m 384.37794,376.68349 0,20.885 -7.618,0 0,-20.885 -16.927,-27.116 9.141,0 11.511,18.526 11.68,-18.526 8.971,0 -16.758,27.116 z"
     style="fill:#000000;fill-opacity:1;fill-rule:nonzero;stroke:none"
     id="path7015" />
  <path
     inkscape:connector-curvature="0"
     d="m 328.04394,397.56849 0,-48 7.57,0 0,40.927 22.203,0 0,7.073 -29.773,0 z"
     style="fill:#000000;fill-opacity:1;fill-rule:nonzero;stroke:none"
     id="path7019" />
</svg>
