<?xml version="1.0" encoding="utf-8"?>
<!-- Generator: Adobe Illustrator 27.7.0, SVG Export Plug-In . SVG Version: 6.00 Build 0)  -->
<svg version="1.1" id="For_Sheets" xmlns="http://www.w3.org/2000/svg" xmlns:xlink="http://www.w3.org/1999/xlink" x="0px" y="0px"
	 viewBox="0 0 346.1 216.5" style="enable-background:new 0 0 346.1 216.5;" xml:space="preserve">
<style type="text/css">
	.st0{fill:#FFFFFF;}
	.st1{fill-rule:evenodd;clip-rule:evenodd;fill:none;stroke:#FFFFFF;stroke-width:2;stroke-dasharray:75,33,33,33;}
	.st2{fill-rule:evenodd;clip-rule:evenodd;}
</style>
<g>
	<g>
		<path class="st0" d="M13.8,216.4c-7.5,0-13.6-6.1-13.6-13.6v-189c0-7.5,6.1-13.6,13.6-13.6h318.6c7.5,0,13.6,6.1,13.6,13.6v189
			c0,7.5-6.1,13.6-13.6,13.6H13.8z"/>
		<path d="M332.3,0.2c7.4,0,13.5,6.1,13.5,13.5v189c0,7.4-6.1,13.5-13.5,13.5H13.8c-7.4,0-13.5-6.1-13.5-13.5v-189
			c0-7.4,6.1-13.5,13.5-13.5H332.3 M332.3,0H13.8C6.2,0,0,6.2,0,13.8v189c0,7.6,6.2,13.8,13.8,13.8h318.6c7.6,0,13.8-6.2,13.8-13.8
			v-189C346.1,6.2,339.9,0,332.3,0L332.3,0z"/>
	</g>
	<path d="M13.8,212.6c-5.5,0-9.9-4.4-9.9-9.9v-189c0-5.5,4.4-9.9,9.9-9.9h318.6c5.5,0,9.9,4.4,9.9,9.9v189c0,5.5-4.4,9.9-9.9,9.9
		H13.8z M332.4,207.2c2.5,0,4.5-2,4.5-4.5v-189c0-2.5-2-4.5-4.5-4.5H13.8c-2.5,0-4.5,2-4.5,4.5v189c0,2.5,2,4.5,4.5,4.5H332.4z"/>
	<path class="st1" d="M4.6,118.4"/>
	<rect x="118.6" y="108.2" width="5.4" height="99"/>
	<rect x="222.1" y="108.2" transform="matrix(-1 -4.480117e-11 4.480117e-11 -1 449.6072 315.5)" width="5.4" height="99"/>
	<g>
		<path d="M47,175.1v19.5h-4.5v-28.8H47l10.5,18.4v-18.4h4.6v28.8h-4L47,175.1z"/>
		<path d="M65.5,165.9h4.5v24.6h13.3v4.2H65.5V165.9z"/>
		<path d="M99,194.7h-4.6v-12.5l-10.2-16.3h5.5l6.9,11.1l7-11.1h5.4L99,182.1V194.7z"/>
		<path d="M156.1,175.1v19.5h-4.5v-28.8h4.5l10.5,18.4v-18.4h4.6v28.8h-4L156.1,175.1z"/>
		<path d="M174.6,165.9h4.5v24.6h13.3v4.2h-17.9V165.9z"/>
		<path d="M208.1,194.7h-4.6v-12.5l-10.2-16.3h5.5l6.9,11.1l7-11.1h5.4l-10.1,16.3V194.7z"/>
		<path d="M265.2,175.1v19.5h-4.5v-28.8h4.5l10.5,18.4v-18.4h4.6v28.8h-4L265.2,175.1z"/>
		<path d="M283.8,165.9h4.5v24.6h13.3v4.2h-17.9V165.9z"/>
		<path d="M317.2,194.7h-4.6v-12.5l-10.2-16.3h5.5l6.9,11.1l7-11.1h5.4l-10.1,16.3V194.7z"/>
		<path d="M39.3,180.3c0,1,0.2,14.9-10.2,14.9s-10.2-13.9-10.2-14.9c0-1-0.2-14.9,10.2-14.9S39.3,179.2,39.3,180.3z M29.1,190.5
			c3.1,0,5.6-2.9,5.6-10.3c0-7.3-2.5-10.3-5.6-10.3c-3.1,0-5.6,2.9-5.6,10.3C23.5,187.6,26,190.5,29.1,190.5z"/>
		<path d="M148.4,180.3c0,1,0.2,14.9-10.2,14.9s-10.2-13.9-10.2-14.9c0-1-0.2-14.9,10.2-14.9S148.4,179.2,148.4,180.3z M138.2,190.5
			c3.1,0,5.6-2.9,5.6-10.3c0-7.3-2.5-10.3-5.6-10.3c-3.1,0-5.6,2.9-5.6,10.3C132.6,187.6,135.1,190.5,138.2,190.5z"/>
		<path d="M257.5,180.3c0,1,0.2,14.9-10.2,14.9c-10.5,0-10.2-13.9-10.2-14.9c0-1-0.2-14.9,10.2-14.9
			C257.8,165.3,257.5,179.2,257.5,180.3z M247.4,190.5c3.1,0,5.6-2.9,5.6-10.3c0-7.3-2.5-10.3-5.6-10.3c-3.1,0-5.6,2.9-5.6,10.3
			C241.7,187.6,244.3,190.5,247.4,190.5z"/>
	</g>
	<g>
		<path d="M60.1,65.6L21.9,77.6l24.9,31.4c2.2,2.8,6.7,1,6.4-2.5l-1.7-19.8L64,71.3C66.2,68.5,63.5,64.5,60.1,65.6z"/>
	</g>
	<path class="st2" d="M40.3,92.4l16.8,5.1c15.2,4.7,25,18.7,25,33.8v24.7h17.5v-24.7c0-22.6-14.6-43.6-37.4-50.6l-16.8-5.1
		L40.3,92.4z"/>
	<g>
		<path d="M286,65.6l38.2,12.1l-24.9,31.4c-2.2,2.8-6.7,1-6.4-2.5l1.7-19.8l-12.4-15.5C279.9,68.5,282.6,64.5,286,65.6z"/>
	</g>
	<path class="st2" d="M305.8,92.4L289,97.5c-15.2,4.7-25,18.7-25,33.8v24.7h-17.5v-24.7c0-22.6,14.6-43.6,37.4-50.6l16.8-5.1
		L305.8,92.4z"/>
	<g>
		<rect x="164.5" y="51.6" width="17.1" height="104.4"/>
		<g>
			<path d="M154.8,58.1l18.3-6.6l18.3,6.6c2.9,1,5.4-2.2,3.7-4.8L173.1,21l-21.9,32.4C149.4,55.9,151.9,59.1,154.8,58.1z"/>
		</g>
	</g>
</g>
</svg>
