<?xml version="1.0" encoding="utf-8"?>
<!-- Generator: Adobe Illustrator 27.7.0, SVG Export Plug-In . SVG Version: 6.00 Build 0)  -->
<svg version="1.1" id="For_Sheets" xmlns="http://www.w3.org/2000/svg" xmlns:xlink="http://www.w3.org/1999/xlink" x="0px" y="0px"
	 viewBox="0 0 216.5 259.7" style="enable-background:new 0 0 216.5 259.7;" xml:space="preserve">
<style type="text/css">
	.st0{fill:#FFFFFF;}
</style>
<g>
	<g>
		<path class="st0" d="M13.7,259.6c-7.5,0-13.6-6.1-13.6-13.6V13.7c0-7.5,6.1-13.6,13.6-13.6h189c7.5,0,13.6,6.1,13.6,13.6v232.2
			c0,7.5-6.1,13.6-13.6,13.6H13.7z"/>
		<path d="M202.8,0.2c7.4,0,13.5,6.1,13.5,13.5v232.2c0,7.4-6.1,13.5-13.5,13.5h-189c-7.4,0-13.5-6.1-13.5-13.5V13.8
			c0-7.4,6.1-13.5,13.5-13.5H202.8 M202.8,0h-189C6.2,0,0,6.2,0,13.8v232.2c0,7.6,6.2,13.8,13.8,13.8h189c7.6,0,13.8-6.2,13.8-13.8
			V13.8C216.5,6.2,210.3,0,202.8,0L202.8,0z"/>
	</g>
	<path d="M13.7,255.8c-5.5,0-9.9-4.4-9.9-9.9V13.7c0-5.5,4.4-9.9,9.9-9.9h189c5.5,0,9.9,4.4,9.9,9.9v232.2c0,5.5-4.4,9.9-9.9,9.9
		H13.7z M202.8,250.4c2.5,0,4.5-2,4.5-4.5V13.7c0-2.5-2-4.5-4.5-4.5h-189c-2.5,0-4.5,2-4.5,4.5v232.2c0,2.5,2,4.5,4.5,4.5H202.8z"/>
	<path d="M115.6,120.9c-2.2-6.6-5.5-12.8-9.7-18.3c-4.3-5.6-9.4-10.5-15.2-14.4c-6-4.1-12.6-7.1-19.7-9l-9.3-2.5l7.9-11.1
		c0.3-0.4,0.5-0.8,0.6-1.3c0.6-2.2-0.7-4.4-2.9-5C66.6,59,65.8,59,65,59.3l0,0L18.2,75.8l32.2,37.7l0,0c0.5,0.6,1.2,1.1,2,1.3
		c2.2,0.6,4.4-0.7,5-2.9c0.1-0.5,0.2-1,0.1-1.5l-1.3-13l9.1,2.4c4.7,1.3,9.2,3.3,13.2,6c3.9,2.6,7.3,5.9,10.1,9.6
		c2.8,3.7,5,7.8,6.5,12.2c1.5,4.5,2.3,9.1,2.3,13.8v24.2h21.6v-24.2C119.1,134.6,117.9,127.6,115.6,120.9z"/>
	<path d="M100.9,74c2.2,6.6,5.5,12.8,9.7,18.3c4.3,5.6,9.4,10.5,15.2,14.4c6,4.1,12.6,7.1,19.7,9l9.3,2.5l-7.9,11.1
		c-0.3,0.4-0.5,0.8-0.6,1.3c-0.6,2.2,0.7,4.4,2.9,5c0.8,0.2,1.7,0.2,2.4-0.1l0,0l46.8-16.5L166,81.3l0,0c-0.5-0.6-1.2-1.1-2-1.3
		c-2.2-0.6-4.4,0.7-5,2.9c-0.1,0.5-0.2,1-0.1,1.5l1.3,13l-9.1-2.4c-4.7-1.3-9.2-3.3-13.2-6c-3.9-2.6-7.3-5.9-10.1-9.6
		c-2.8-3.7-5-7.8-6.5-12.2c-1.5-4.5-2.3-9.1-2.3-13.8V29.1H97.4v24.2C97.4,60.3,98.6,67.3,100.9,74z"/>
	<line x1="119" y1="29.1" x2="97.4" y2="29.1"/>
	<g>
		<path d="M82,201.4v29.3h-6.8v-43.2H82L97.8,215v-27.6h6.8v43.2h-6.1L82,201.4z"/>
		<path d="M115,187.5h6.8v36.8h20v6.4H115V187.5z"/>
		<path d="M166.4,230.7h-6.9v-18.8l-15.2-24.4h8.2l10.4,16.7l10.5-16.7h8.1l-15.1,24.4V230.7z"/>
		<path d="M65.7,209.1c0,1.5,0.3,22.4-15.3,22.4S35,210.6,35,209.1c0-1.5-0.3-22.4,15.3-22.4S65.7,207.5,65.7,209.1z M50.4,224.4
			c4.7,0,8.4-4.4,8.4-15.4c0-11-3.8-15.4-8.4-15.4c-4.7,0-8.4,4.4-8.4,15.4C42,220,45.8,224.4,50.4,224.4z"/>
	</g>
</g>
</svg>
