<?xml version="1.0" encoding="utf-8"?>
<!-- Generator: Adobe Illustrator 27.7.0, SVG Export Plug-In . SVG Version: 6.00 Build 0)  -->
<svg version="1.1" id="For_Sheets" xmlns="http://www.w3.org/2000/svg" xmlns:xlink="http://www.w3.org/1999/xlink" x="0px" y="0px"
	 viewBox="0 0 173.3 259.7" style="enable-background:new 0 0 173.3 259.7;" xml:space="preserve">
<style type="text/css">
	.st0{fill:#FFFFFF;}
</style>
<g>
	<g>
		<path class="st0" d="M11.1,259.6c-6,0-10.9-4.9-10.9-10.9V11.1C0.1,5,5,0.1,11.1,0.1h151.2c6,0,10.9,4.9,10.9,10.9v237.6
			c0,6-4.9,10.9-10.9,10.9H11.1z"/>
		<path d="M162.2,0.2c5.9,0,10.8,4.9,10.8,10.8v237.6c0,5.9-4.9,10.8-10.8,10.8H11c-5.9,0-10.8-4.9-10.8-10.8V11
			C0.2,5.1,5.1,0.2,11,0.2H162.2 M162.2,0H11C5,0,0,5,0,11v237.6c0,6.1,5,11.1,11,11.1h151.2c6.1,0,11-5,11-11.1V11
			C173.3,5,168.3,0,162.2,0L162.2,0z"/>
	</g>
	<path d="M11,256.8c-4.5,0-8.1-3.6-8.1-8.1V11c0-4.5,3.6-8.1,8.1-8.1h151.2c4.5,0,8.1,3.6,8.1,8.1v237.6c0,4.5-3.6,8.1-8.1,8.1H11z
		 M162.2,252.2c2,0,3.6-1.6,3.6-3.6V11c0-2-1.6-3.6-3.6-3.6H11c-2,0-3.6,1.6-3.6,3.6v237.6c0,2,1.6,3.6,3.6,3.6H162.2z"/>
	<path d="M92.7,168.5c-1.8-5.3-4.4-10.2-7.8-14.7c-3.4-4.5-7.5-8.4-12.2-11.6c-4.8-3.3-10.1-5.7-15.8-7.2l-6.7-1.8l6.3-8.4
		c0.3-0.4,0.5-0.8,0.6-1.3c0.5-1.9-0.6-3.9-2.5-4.4c-0.7-0.2-1.5-0.2-2.1,0.1l-37.8,13.4l26,30.5c0.5,0.5,1.1,0.9,1.8,1.1
		c1.9,0.5,3.9-0.6,4.4-2.5c0.1-0.5,0.2-1,0.1-1.4l-1.2-10.1l6.5,1.8l0,0c7.5,2,13.9,6.3,18.5,12.5c4.5,6,7,13.3,7,20.8v20.3h17.6
		v-20.3C95.4,179.5,94.5,173.9,92.7,168.5z"/>
	<path d="M80.6,130.8c1.8,5.3,4.4,10.2,7.8,14.7c3.4,4.5,7.5,8.4,12.2,11.6c4.8,3.3,10.1,5.7,15.8,7.2l6.7,1.8l-6.3,8.4
		c-0.3,0.4-0.5,0.8-0.6,1.3c-0.5,1.9,0.6,3.9,2.5,4.4c0.7,0.2,1.5,0.2,2.1-0.1l37.8-13.4l-26-30.5c-0.5-0.5-1.1-0.9-1.8-1.1
		c-1.9-0.5-3.9,0.6-4.4,2.5c-0.1,0.5-0.2,1-0.1,1.4l1.2,10.1l-6.5-1.8l0,0c-7.5-2-13.9-6.3-18.5-12.5c-4.5-6-7-13.3-7-20.8V93.8
		H77.9v20.3C77.9,119.8,78.8,125.4,80.6,130.8z"/>
	<line x1="95.4" y1="114.1" x2="95.4" y2="93.8"/>
	<rect x="29" y="80.8" width="115.2" height="4.5"/>
	<g>
		<path d="M29.6,28.9c0,4.7,2,7.4,5.2,7.4c2,0,3-0.7,4.9-2.7l3.4,1.8c-1.6,3-4.9,4.8-8.3,4.8c-5.7,0-9.2-4.5-9.2-11.2
			c0-6.9,3.5-11.1,9.2-11.1c3.5,0,6.7,1.7,8.3,4.8l-3.4,1.8c-0.8-1.3-2.6-2.7-4.9-2.7C30.8,21.7,29.6,25.6,29.6,28.9z"/>
		<path d="M48.1,18.3h15.8v3.9H52v4h6.5v3.9H52V36h12.2v3.9H48.1V18.3z"/>
		<path d="M72.4,25v14.9h-3.8V18.3h3.8l10,14.3V18.3h3.7v21.6h-3.4L72.4,25z"/>
		<path d="M99.8,39.8H96V22h-6.2v-3.8H106V22h-6.2V39.8z"/>
		<path d="M109.7,18.3h15.8v3.9h-11.9v4h6.5v3.9h-6.5V36h12.2v3.9h-16.2V18.3z"/>
		<path d="M143.7,30.6l3.9,9.2h-4.3l-3.5-8.5H134v8.5h-3.9V18.3h10.2c4.5,0,6.8,3.5,6.8,6.6C147.2,27.3,145.9,29.4,143.7,30.6z
			 M134,22.1v5.4h6.2c1.9,0,3.1-1.1,3.1-2.7c0-1.7-1.2-2.7-3.1-2.7H134z"/>
	</g>
	<g>
		<path d="M45.2,50.7H49v18.3h12.3v3.3H45.2V50.7z"/>
		<path d="M78.9,67.2h-9.4l-2.1,5.1h-4.2l9.1-21.6h3.9l9,21.6H81L78.9,67.2z M71.1,63.3h6.1l-3-7.3L71.1,63.3z"/>
		<path d="M92.6,57.4v14.9h-3.8V50.7h3.8l10,14.3V50.7h3.7v21.6H103L92.6,57.4z"/>
		<path d="M111.9,50.7h15.8v3.9h-11.9v4h6.5v3.9h-6.5v5.9h12.2v3.9h-16.2V50.7z"/>
	</g>
	<g>
		<path d="M43.5,227c0-6.9,3.5-11.1,9.2-11.1c5.4,0,9,4.4,9,11.1c0,6.7-3.5,11.3-9,11.3C46.4,238.2,43.5,232.4,43.5,227z M47.5,227
			c0,4.6,2,7.3,5.2,7.3c4.1,0,5.1-4,5.1-7.3c0-4.6-1.9-7.3-5.1-7.3C49.5,219.7,47.5,222.5,47.5,227z"/>
		<path d="M70.5,223v14.9h-3.8v-21.6h3.8l10,14.3v-14.3h3.7v21.6h-3.4L70.5,223z"/>
		<path d="M89.8,216.3h3.9v18.3H106v3.3H89.8V216.3z"/>
		<path d="M120.7,237.8h-3.9v-8.8l-9.1-12.8h4.8l6.3,8.8l6.2-8.8h4.8l-9.1,12.8V237.8z"/>
	</g>
</g>
</svg>
