<?xml version="1.0" encoding="utf-8"?>
<!-- Generator: Adobe Illustrator 27.7.0, SVG Export Plug-In . SVG Version: 6.00 Build 0)  -->
<svg version="1.1" id="For_Sheets" xmlns="http://www.w3.org/2000/svg" xmlns:xlink="http://www.w3.org/1999/xlink" x="0px" y="0px"
	 viewBox="0 0 778.1 259.7" style="enable-background:new 0 0 778.1 259.7;" xml:space="preserve">
<style type="text/css">
	.st0{fill:#FFFFFF;}
</style>
<g>
	<g>
		<path class="st0" d="M16.5,259.6c-9,0-16.3-7.3-16.3-16.3V16.5c0-9,7.3-16.3,16.3-16.3h745.2c9,0,16.3,7.3,16.3,16.3v226.8
			c0,9-7.3,16.3-16.3,16.3H16.5z"/>
		<path d="M761.7,0.2c8.9,0,16.2,7.3,16.2,16.2v226.8c0,8.9-7.3,16.2-16.2,16.2H16.5c-8.9,0-16.2-7.3-16.2-16.2V16.5
			c0-8.9,7.3-16.2,16.2-16.2H761.7 M761.7,0H16.5C7.4,0,0,7.4,0,16.5v226.8c0,9.1,7.4,16.5,16.5,16.5h745.2
			c9.1,0,16.5-7.4,16.5-16.5V16.5C778.1,7.4,770.7,0,761.7,0L761.7,0z"/>
	</g>
	<path d="M761.7,254.9H16.5c-6.5,0-11.7-5.2-11.7-11.7V16.4C4.8,10,10,4.7,16.5,4.7h745.2c6.5,0,11.7,5.2,11.7,11.7v226.8
		C773.3,249.7,768.1,254.9,761.7,254.9z M767,243.2V16.4c0-3-2.4-5.4-5.4-5.4H16.5c-3,0-5.4,2.4-5.4,5.4v226.8c0,3,2.4,5.4,5.4,5.4
		h745.2C764.6,248.6,767,246.2,767,243.2z"/>
	<g>
		<g>
			<path d="M76.5,54.2h27.2v8.1H84.8v14.6h12v7.9h-12v19h21.1v8.1H76.5V54.2z"/>
			<path d="M123.9,73.3v38.6h-8.3V54.2h8.3l15.7,34.6V54.2h8.3v57.6h-6.2L123.9,73.3z"/>
			<path d="M160.6,111.8V54.2H177c3.5,0,15.8,0.2,15.8,28.7c0,26.1-11.4,28.9-15.1,28.9H160.6z M175.3,62.3h-6.5v41.4h5.7
				c6.7,0,10.2-2.9,10.2-20.4C184.8,63.1,179.7,62.3,175.3,62.3z"/>
		</g>
		<g>
			<path d="M252.2,84.8h-7.9v27.1h-8.3V54.2h17.1c9,0,15.1,6.1,15.1,15.4c0,6.9-2.8,11.9-8.3,13.9l8.3,28.3h-8.5L252.2,84.8z
				 M244.3,62.3v14.6h8.5c4.9,0,7.5-2.6,7.5-7.3c0-4.4-3-7.3-7.5-7.3H244.3z"/>
			<path d="M278.1,54.2h27.2v8.1h-18.8v14.6h12v7.9h-12v19h21.1v8.1h-29.4V54.2z"/>
			<path d="M327.3,111.8l-14.6-57.6h8.3l9.5,37.4l9.5-37.4h8.3l-14.8,57.6H327.3z"/>
			<path d="M356.5,54.2h27.2v8.1h-18.8v14.6h12v7.9h-12v19h21.1v8.1h-29.4V54.2z"/>
			<path d="M411.8,84.8h-7.9v27.1h-8.3V54.2h17.1c9,0,15.1,6.1,15.1,15.4c0,6.9-2.8,11.9-8.3,13.9l8.3,28.3h-8.5L411.8,84.8z
				 M403.9,62.3v14.6h8.5c4.9,0,7.5-2.6,7.5-7.3c0-4.4-3-7.3-7.5-7.3H403.9z"/>
			<path d="M451.4,75.2c6.3,4,15.7,9.5,15.7,20.9c0,9.3-7.1,16.8-16,16.8c-10.1,0-16.2-8.6-16.2-18h8.1c0,4.9,2.4,9.9,8.1,9.9
				c4.5,0,8.1-4,8.1-8.7c0-12.5-21.5-11.8-21.5-27.9c0-8.3,6.5-14.9,14.8-14.9c8.1,0,14.4,6.3,14.6,15h-7.9c-0.2-4-3-6.7-6.7-6.7
				c-3.9,0-6.9,2.8-6.9,6.7C445.6,71.9,447.6,72.9,451.4,75.2z"/>
			<path d="M476.9,54.2h27.2v8.1h-18.8v14.6h12v7.9h-12v19h21.1v8.1h-29.4V54.2z"/>
		</g>
		<g>
			<path d="M549.5,54.2h8.3v49.9h21.1v7.7h-29.4V54.2z"/>
			<path d="M606.9,96.1h-12.4l-3.9,15.8h-8.3l14.4-57.6h8.1l14.4,57.6h-8.3L606.9,96.1z M596.5,88h8.3l-4.3-16.6L596.5,88z"/>
			<path d="M635.6,73.3v38.6h-8.3V54.2h8.3l15.7,34.6V54.2h8.3v57.6h-6.2L635.6,73.3z"/>
			<path d="M672.2,54.2h27.2v8.1h-18.8v14.6h12v7.9h-12v19h21.1v8.1h-29.4V54.2z"/>
		</g>
	</g>
	<g>
		<g>
			<path d="M267.2,205.4h-8.3v-13.9h-24v-5.9l24-37.8h8.3v36h3.5v7.7h-3.5V205.4z M245.1,183.8h13.8v-21.6L245.1,183.8z"/>
			<path d="M281,176.5c0-30.2,14-29.7,17.1-29.7s16.9-0.5,16.9,29.7c0,30.4-13.8,29.9-16.9,29.9S281,206.9,281,176.5z M298,154.9
				c-1.6,0-9.1-0.3-9.1,21.7c0,22.1,7.4,21.8,9.1,21.8c1.6,0,9.1,0.3,9.1-21.8C307.1,154.6,299.7,154.9,298,154.9z"/>
			<path d="M325.4,176.5c0-30.2,14-29.7,17.1-29.7s16.9-0.5,16.9,29.7c0,30.4-13.8,29.9-16.9,29.9S325.4,206.9,325.4,176.5z
				 M342.4,154.9c-1.6,0-9.1-0.3-9.1,21.7c0,22.1,7.4,21.8,9.1,21.8c1.6,0,9.1,0.3,9.1-21.8C351.4,154.6,344,154.9,342.4,154.9z"/>
		</g>
		<g>
			<path d="M410.9,170.5h11.6v7.9h-11.6v27.1h-8.3v-57.6H432v8.1h-21.1V170.5z"/>
			<path d="M440,147.8h27.2v8.1h-18.8v14.6h12v7.9h-12v19h21.1v8.1H440V147.8z"/>
			<path d="M479.2,147.8h27.2v8.1h-18.8v14.6h12v7.9h-12v19h21.1v8.1h-29.4V147.8z"/>
			<path d="M532.6,205.4h-8.3v-49.9h-10.5v-7.7h29.4v7.7h-10.5V205.4z"/>
		</g>
	</g>
</g>
</svg>
