<?xml version="1.0" encoding="UTF-8" standalone="no"?>
<!-- Created with Inkscape (http://www.inkscape.org/) -->

<svg
   xmlns:ns="http://ns.adobe.com/SaveForWeb/1.0/"
   xmlns:dc="http://purl.org/dc/elements/1.1/"
   xmlns:cc="http://creativecommons.org/ns#"
   xmlns:rdf="http://www.w3.org/1999/02/22-rdf-syntax-ns#"
   xmlns:svg="http://www.w3.org/2000/svg"
   xmlns="http://www.w3.org/2000/svg"
   xmlns:sodipodi="http://sodipodi.sourceforge.net/DTD/sodipodi-0.dtd"
   xmlns:inkscape="http://www.inkscape.org/namespaces/inkscape"
   version="1.1"
   width="2710"
   height="1090"
   viewBox="0 0 2710 1090"
   id="svg2"
   xml:space="preserve"
   inkscape:version="0.48.2 r9819"
   sodipodi:docname="AJAX3.svg"><sodipodi:namedview
   pagecolor="#ffffff"
   bordercolor="#666666"
   borderopacity="1"
   objecttolerance="10"
   gridtolerance="10"
   guidetolerance="10"
   inkscape:pageopacity="0"
   inkscape:pageshadow="2"
   inkscape:window-width="1280"
   inkscape:window-height="1004"
   id="namedview9"
   showgrid="false"
   fit-margin-top="0"
   fit-margin-left="0"
   fit-margin-right="0"
   fit-margin-bottom="0"
   inkscape:zoom="0.12642213"
   inkscape:cx="1183.1439"
   inkscape:cy="1848.8134"
   inkscape:window-x="-8"
   inkscape:window-y="-8"
   inkscape:window-maximized="1"
   inkscape:current-layer="svg2" /><defs
   id="defs11" />
<metadata
   id="metadata3">
	<ns:sfw>
		<ns:slices />
		<ns:sliceSourceBounds
   bottomLeftOrigin="true"
   x="-75"
   y="93"
   width="745"
   height="655" />
	</ns:sfw>
	<rdf:RDF>
		<cc:Work
   rdf:about="">
			<dc:format>image/svg+xml</dc:format>
			<dc:type
   rdf:resource="http://purl.org/dc/dcmitype/StillImage" />
			<dc:title></dc:title>
		</cc:Work>
	</rdf:RDF>
	<ns:sfw>
		<ns:slices />
		<ns:sliceSourceBounds
   bottomLeftOrigin="true"
   x="-75"
   y="93"
   width="745"
   height="655" />
	</ns:sfw>
</metadata>




<path
   inkscape:connector-curvature="0"
   style="fill:#ffffff;fill-rule:nonzero;stroke:#000000;stroke-width:10;stroke-linecap:butt;stroke-linejoin:miter;stroke-miterlimit:4;stroke-opacity:1;stroke-dasharray:none"
   d="m 2705,950 c 0,74.5575 -60.4375,135 -135,135 l -2430,0 C 65.440625,1085 5,1024.5575 5,950 L 5,140 C 5,65.4406 65.440625,5 140,5 l 2430,0 c 74.5625,0 135,60.4406 135,135 l 0,810 z"
   id="path11" /><path
   inkscape:connector-curvature="0"
   style="fill:#000000;fill-rule:nonzero;stroke:none"
   d="M 140,1051.25 C 84.169875,1051.25 38.75,1005.8288 38.75,950 l 0,-810 C 38.75,84.1699 84.169875,38.75 140,38.75 l 2430,0 c 55.825,0 101.25,45.4199 101.25,101.25 l 0,810 c 0,55.8288 -45.425,101.25 -101.25,101.25 l -2430,0 z"
   id="path13" /><path
   inkscape:connector-curvature="0"
   style="fill:#ffffff;fill-rule:nonzero;stroke:none"
   d="m 140,995 c -24.812,0 -45,-20.1862 -45,-45 l 0,-810 c 0,-24.812 20.188,-45 45,-45 l 2430,0 c 24.8125,0 45,20.188 45,45 l 0,810 c 0,24.8138 -20.1875,45 -45,45 l -2430,0 z"
   id="path15" /><path
   inkscape:connector-curvature="0"
   style="fill:#000000;fill-rule:nonzero;stroke:none"
   d="m 2251.8876,815.005 -206.55,-365.6888 0,365.6888 -85.2625,0 0,-540.005 85.2625,0 197.0625,344.8463 0,-344.8463 85.275,0 0,540.005 -75.7875,0 z"
   id="path17" /><path
   inkscape:connector-curvature="0"
   style="fill:#000000;fill-rule:nonzero;stroke:none"
   d="m 1744.0751,815.005 0,-540.005 86.4,0 0,540.005 -86.4,0 z"
   id="path19" /><path
   inkscape:connector-curvature="0"
   style="fill:#000000;fill-rule:nonzero;stroke:none"
   d="m 841.73,815.0025 0,-540 317.9038,0 0,85.2613 -232.75255,0 0,132.6337 157.06375,0 0,87.1588 -157.06375,0 0,147.7875 249.78505,0 0,87.1587 -334.9363,0 z"
   id="path21" /><path
   inkscape:connector-curvature="0"
   style="fill:#000000;fill-rule:nonzero;stroke:none"
   d="m 611.60625,583.845 c -11.37,-3.7887 -17.05375,-3.7887 -36.0025,-3.7887 l -108.00875,0 0,147.7875 128.8525,0 c 43.58125,0 66.32,-20.8413 66.32,-62.5263 0,-35.9987 -20.8425,-70.105 -51.16125,-81.4725 z m -18.9475,-223.5837 -125.06375,0 0,132.6325 102.325,0 c 24.6325,0 36.00125,-3.7876 51.16,-15.1575 18.94875,-15.1575 30.31875,-37.895 30.31875,-62.5263 0,-35.9988 -20.84375,-54.9487 -58.74,-54.9487 z m 70.10875,441.48 c -18.9475,7.58 -51.16125,13.2612 -75.795,13.2612 l -204.64625,0 0,-540.0038 204.64625,0 c 85.27,0 149.69625,58.7401 149.69625,136.4213 0,53.0525 -24.63375,92.845 -75.79625,121.2662 56.8475,26.5275 89.05875,72.0013 89.05875,130.7363 0,58.7388 -36.00125,117.4737 -87.16375,138.3188 z"
   id="path23" /><path
   inkscape:connector-curvature="0"
   style="fill:#000000;fill-rule:nonzero;stroke:none"
   d="m 1454.7375,824.4775 c -81.4875,0 -128.85,-30.3175 -161.0625,-98.5275 -22.7375,-47.3687 -36.0125,-113.6862 -36.0125,-179.9987 0,-87.1588 24.6375,-172.4238 60.6375,-219.7925 32.2125,-39.7888 77.6875,-60.63 138.3251,-60.63 83.375,0 132.6499,34.1075 168.6499,119.3699 l -81.4875,32.2088 c -22.7375,-47.37 -45.4749,-64.4213 -87.1624,-64.4213 -43.5751,0 -72.0001,18.9488 -90.9501,66.3175 -13.2625,32.2088 -20.85,81.4726 -20.85,126.9476 0,56.8412 9.475,113.685 26.5375,147.7862 17.05,30.315 41.6875,43.5813 73.9,43.5813 54.95,0 94.7376,-34.1063 94.7376,-83.3688 l 0,-22.7388 -98.5251,0 0,-85.2599 183.8,0 0,107.9987 c 0,98.5275 -72,170.5275 -170.5375,170.5275 z"
   id="path25" /></svg>