<?xml version="1.0" encoding="utf-8"?>
<!-- Generator: Adobe Illustrator 27.7.0, SVG Export Plug-In . SVG Version: 6.00 Build 0)  -->
<svg version="1.1" id="For_Sheets" xmlns="http://www.w3.org/2000/svg" xmlns:xlink="http://www.w3.org/1999/xlink" x="0px" y="0px"
	 viewBox="0 0 216.5 302.9" style="enable-background:new 0 0 216.5 302.9;" xml:space="preserve">
<style type="text/css">
	.st0{fill-rule:evenodd;clip-rule:evenodd;fill:#FFFFFF;}
	.st1{fill-rule:evenodd;clip-rule:evenodd;}
	.st2{fill:#FFFFFF;}
</style>
<g>
	<g>
		<path class="st0" d="M13.7,302.8c-7.5,0-13.6-6.1-13.6-13.6V13.7c0-7.5,6.1-13.6,13.6-13.6h189c7.5,0,13.6,6.1,13.6,13.6v275.4
			c0,7.5-6.1,13.6-13.6,13.6H13.7z"/>
		<path d="M202.8,0.2c7.4,0,13.5,6.1,13.5,13.5v275.4c0,7.4-6.1,13.5-13.5,13.5h-189c-7.4,0-13.5-6.1-13.5-13.5V13.7
			c0-7.4,6.1-13.5,13.5-13.5H202.8 M202.8,0h-189C6.2,0,0,6.2,0,13.7v275.4c0,7.6,6.2,13.8,13.8,13.8h189c7.6,0,13.8-6.2,13.8-13.8
			V13.7C216.5,6.2,210.3,0,202.8,0L202.8,0z"/>
	</g>
	<path class="st1" d="M202.8,299.1h-189c-5.4,0-9.9-4.5-9.9-9.9V13.8c0-5.4,4.5-9.9,9.9-9.9h189c5.4,0,9.9,4.5,9.9,9.9v275.4
		C212.6,294.6,208.2,299.1,202.8,299.1z M9.2,104.7v184.5c0,2.5,2,4.5,4.5,4.5h189c2.5,0,4.5-2,4.5-4.5V104.7H9.2z"/>
	<g>
		<path class="st2" d="M32.1,33.4c0,6.3,2.6,9.9,7,9.9c2.6,0,4-0.9,6.6-3.6l4.5,2.4c-2.1,4-6.5,6.4-11.1,6.4c-7.6,0-12.2-6-12.2-15
			c0-9.2,4.7-14.8,12.2-14.8c4.6,0,8.9,2.3,11.1,6.4l-4.5,2.4c-1-1.7-3.5-3.6-6.6-3.6C33.8,23.8,32.1,29,32.1,33.4z"/>
		<path class="st2" d="M56.8,19.1h21.1v5.2H62.1v5.4h8.6v5.3h-8.6v7.9h16.3v5.2H56.8V19.1z"/>
		<path class="st2" d="M89.3,28.1v19.8h-5.1V19.1h5.1l13.3,19v-19h5v28.8h-4.5L89.3,28.1z"/>
		<path class="st2" d="M125.8,47.9h-5V24.2h-8.3v-5.1H134v5.1h-8.3V47.9z"/>
		<path class="st2" d="M138.9,19.1H160v5.2h-15.8v5.4h8.6v5.3h-8.6v7.9h16.3v5.2h-21.6V19.1z"/>
		<path class="st2" d="M184.4,35.6l5.3,12.3h-5.8l-4.6-11.3h-7.8v11.3h-5.2V19.1h13.6c6,0,9.1,4.7,9.1,8.8
			C189,31.2,187.3,34,184.4,35.6z M171.4,24.3v7.2h8.3c2.5,0,4.1-1.5,4.1-3.5c0-2.2-1.6-3.6-4.1-3.6H171.4z"/>
	</g>
	<g>
		<path class="st2" d="M52.9,62.4h5.2v24.4h16.4v4.4H52.9V62.4z"/>
		<path class="st2" d="M97.9,84.4H85.3l-2.8,6.8h-5.7L89,62.4h5.3l12,28.8h-5.6L97.9,84.4z M87.5,79.2h8.1l-4-9.7L87.5,79.2z"/>
		<path class="st2" d="M116.2,71.3v19.8h-5.1V62.4h5.1l13.3,19v-19h5v28.8H130L116.2,71.3z"/>
		<path class="st2" d="M142,62.4h21.1v5.2h-15.8v5.4h8.6v5.3h-8.6V86h16.3v5.2H142V62.4z"/>
	</g>
	<g>
		<path d="M74.8,180.7v-18.5h4.5v18.5c0,3.7,2.1,6.2,5.3,6.2c3.1,0,5.3-2.4,5.3-6.2v-18.5h4.6v18.5c0,9.1-7,10.8-9.8,10.8
			C82.1,191.6,74.8,190,74.8,180.7z"/>
		<path d="M99.3,184.3l4.3-1.6c1.2,2.7,3.4,4.2,6.2,4.2c2.6,0,4.4-1.8,4.4-4.2c0-3.9-4.4-4.4-8.2-6c-1.7-0.7-5.6-2.4-5.6-7.2
			c0-5.7,3.8-7.8,9-7.8c4,0,6.8,2.3,8.2,5.9l-4,1.2c-0.5-1.1-2.1-2.5-4.2-2.5c-4.1,0-4.5,2.2-4.5,2.9c0,2.7,2.3,3.2,6.1,4.4
			c3.8,1.2,7.9,3,7.9,9.2c0,6.2-5,8.8-9.1,8.8C104.9,191.6,101.2,188.6,99.3,184.3z"/>
		<path d="M123.8,162.3h17v4.5h-12.4v7.1h8.4v4.6h-8.4v7.9h13.3v4.6h-17.9V162.3z"/>
	</g>
	<g>
		<path d="M68.1,222.3h10.1v4.6H68.1V222.3z"/>
		<path d="M52,238.8c0-11.2,4.7-20.2,7.4-24.3H45.6V210h19.6v4.5c-1.9,2-8.5,11.3-8.5,24.3H52z"/>
		<path d="M88.2,235.4c3.4-2.7,5.3-5.1,7-8.8c-1.6,0.3-2.3,0.4-3.4,0.4c-5.4,0-9.8-3.9-9.8-8.8c0-5,4.3-8.8,9.8-8.8
			c5.5,0,9.8,3.9,9.8,9.2c0,7.9-4.4,16.1-11.1,20.6L88.2,235.4z M86.6,218.2c0,2.4,2.3,4.1,5.2,4.1c2.9,0,5.3-1.8,5.3-4.1
			c0-2.3-2.4-4.1-5.3-4.1C88.9,214.1,86.6,215.9,86.6,218.2z"/>
	</g>
	<g>
		<path d="M136.3,230.7h-9l-2.8,8.1h-4.9l10-28.8h4.6l10,28.8h-4.9L136.3,230.7z M128.9,226h5.8l-2.8-8.1L128.9,226z"/>
		<path d="M166.3,222.1l-6.7,16.7l-6.7-16.7v16.7h-4.6V210h4.6l6.7,16.2l6.7-16.2h4.6v28.8h-4.6V222.1z"/>
	</g>
	<g>
		<path d="M111.6,128.3v19.5h-4.5v-28.8h4.5l10.5,18.4v-18.4h4.6v28.8h-4L111.6,128.3z"/>
		<path d="M168.4,147.8h-4.6v-24.8h-6.6v-4h17.9v4h-6.7V147.8z"/>
	</g>
	<g>
		<g>
			<path d="M41.4,147.8v-28.8h10.4c7.3,0,9.2,9.6,9.2,13.8c0,10.8-5.6,15-9.2,15H41.4z M51.1,123.6H46v19.6h4.8
				c4.2,0,5.6-5.1,5.6-10.5C56.4,130.1,55.6,123.6,51.1,123.6z"/>
		</g>
		<path d="M87.3,133.4c0,1,0.2,14.9-10.2,14.9s-10.2-13.9-10.2-14.9c0-1-0.2-14.9,10.2-14.9S87.3,132.4,87.3,133.4z M77.1,143.7
			c3.1,0,5.6-2.9,5.6-10.3c0-7.3-2.5-10.3-5.6-10.3c-3.1,0-5.6,2.9-5.6,10.3C71.5,140.8,74,143.7,77.1,143.7z"/>
	</g>
	<path d="M154.7,133.4c0,1,0.2,14.9-10.2,14.9c-10.5,0-10.2-13.9-10.2-14.9c0-1-0.2-14.9,10.2-14.9
		C154.9,118.5,154.7,132.4,154.7,133.4z M144.5,143.7c3.1,0,5.6-2.9,5.6-10.3c0-7.3-2.5-10.3-5.6-10.3c-3.1,0-5.6,2.9-5.6,10.3
		C138.8,140.8,141.4,143.7,144.5,143.7z"/>
	<g>
		<path d="M67.2,262.2l-5,12.5l-5-12.5v12.5h-3.4v-21.6h3.4l5,12.1l5-12.1h3.4v21.6h-3.4V262.2z"/>
		<path d="M98.9,260.1v14.6h-3.4v-21.6h3.4l7.9,13.8v-13.8h3.4v21.6h-3L98.9,260.1z"/>
		<path d="M113.4,262.4h7.6v3.4h-7.6V262.4z"/>
		<path d="M127.7,261.9h6.3v3.5h-6.3v9.4h-3.4v-21.6h13.4v3.4h-10V261.9z"/>
		<path d="M144.3,265.3v9.4h-3.4v-21.6h7.8c5,0,6.4,4,6.4,6.1c0,0.8-0.3,4-3.4,5.4l3.8,10.1h-3.7l-3.5-9.4H144.3z M148.6,261.9
			c2.7,0,3.1-2,3.1-2.7c0-0.9-0.7-2.7-3-2.7h-4.5v5.3H148.6z"/>
		<path d="M159.3,253.2h3.5v21.6h-3.5V253.2z"/>
		<path d="M90.7,264c0,0.8,0.2,11.2-7.7,11.2s-7.7-10.4-7.7-11.2c0-0.8-0.2-11.2,7.7-11.2S90.7,263.2,90.7,264z M83.1,271.6
			c2.3,0,4.2-2.2,4.2-7.7c0-5.5-1.9-7.7-4.2-7.7c-2.3,0-4.2,2.2-4.2,7.7C78.9,269.4,80.8,271.6,83.1,271.6z"/>
	</g>
</g>
</svg>
