<?xml version="1.0" encoding="UTF-8" standalone="no"?>
<!-- Created with Inkscape (http://www.inkscape.org/) -->

<svg
   xmlns:ns="http://ns.adobe.com/SaveForWeb/1.0/"
   xmlns:dc="http://purl.org/dc/elements/1.1/"
   xmlns:cc="http://creativecommons.org/ns#"
   xmlns:rdf="http://www.w3.org/1999/02/22-rdf-syntax-ns#"
   xmlns:svg="http://www.w3.org/2000/svg"
   xmlns="http://www.w3.org/2000/svg"
   xmlns:sodipodi="http://sodipodi.sourceforge.net/DTD/sodipodi-0.dtd"
   xmlns:inkscape="http://www.inkscape.org/namespaces/inkscape"
   version="1.1"
   width="2710"
   height="1090"
   viewBox="0 0 2710 1090"
   id="svg2"
   xml:space="preserve"
   inkscape:version="0.48.2 r9819"
   sodipodi:docname="AJAX4.svg"><sodipodi:namedview
   pagecolor="#ffffff"
   bordercolor="#666666"
   borderopacity="1"
   objecttolerance="10"
   gridtolerance="10"
   guidetolerance="10"
   inkscape:pageopacity="0"
   inkscape:pageshadow="2"
   inkscape:window-width="1280"
   inkscape:window-height="1004"
   id="namedview9"
   showgrid="false"
   fit-margin-top="0"
   fit-margin-left="0"
   fit-margin-right="0"
   fit-margin-bottom="0"
   inkscape:zoom="0.12642213"
   inkscape:cx="1187.8314"
   inkscape:cy="1853.5009"
   inkscape:window-x="-8"
   inkscape:window-y="-8"
   inkscape:window-maximized="1"
   inkscape:current-layer="svg2" /><defs
   id="defs11" />
<metadata
   id="metadata3">
	<ns:sfw>
		<ns:slices />
		<ns:sliceSourceBounds
   bottomLeftOrigin="true"
   x="-75"
   y="93"
   width="745"
   height="655" />
	</ns:sfw>
	<rdf:RDF>
		<cc:Work
   rdf:about="">
			<dc:format>image/svg+xml</dc:format>
			<dc:type
   rdf:resource="http://purl.org/dc/dcmitype/StillImage" />
			<dc:title></dc:title>
		</cc:Work>
	</rdf:RDF>
	<ns:sfw>
		<ns:slices />
		<ns:sliceSourceBounds
   bottomLeftOrigin="true"
   x="-75"
   y="93"
   width="745"
   height="655" />
	</ns:sfw>
</metadata>




<path
   inkscape:connector-curvature="0"
   style="fill:#ffffff;fill-rule:nonzero;stroke:#000000;stroke-width:10;stroke-linecap:butt;stroke-linejoin:miter;stroke-miterlimit:4;stroke-opacity:1;stroke-dasharray:none"
   d="m 2705,950 c 0,74.5575 -60.4375,135 -135,135 l -2430,0 C 65.440625,1085 5,1024.5575 5,950 L 5,140 C 5,65.440625 65.440625,5 140,5 l 2430,0 c 74.5625,0 135,60.440625 135,135 l 0,810 z"
   id="path11" /><path
   inkscape:connector-curvature="0"
   style="fill:#000000;fill-rule:nonzero;stroke:none"
   d="M 140,1051.25 C 84.169875,1051.25 38.75,1005.8288 38.75,950 l 0,-810 C 38.75,84.169875 84.169875,38.75 140,38.75 l 2430,0 c 55.825,0 101.25,45.419875 101.25,101.25 l 0,810 c 0,55.8288 -45.425,101.25 -101.25,101.25 l -2430,0 z"
   id="path13" /><path
   inkscape:connector-curvature="0"
   style="fill:#ffffff;fill-rule:nonzero;stroke:none"
   d="m 140,995 c -24.812,0 -45,-20.18625 -45,-45 l 0,-810 c 0,-24.812 20.188,-45 45,-45 l 2430,0 c 24.8125,0 45,20.188 45,45 l 0,810 c 0,24.81375 -20.1875,45 -45,45 l -2430,0 z"
   id="path15" /><path
   inkscape:connector-curvature="0"
   style="fill:#000000;fill-rule:nonzero;stroke:none"
   d="m 2005.4875,392.47375 c -24.6,-13.26375 -52.975,-20.8425 -81.3625,-20.8425 l -81.9375,0 0,346.73625 81.9375,0 c 28.3875,0 54.875,-7.5775 77.5875,-20.84125 56.7625,-30.315 83.25,-79.57875 83.25,-153.47375 0,-72 -26.4875,-121.26375 -79.475,-151.57875 z m 45.4125,390.315 c -37.8375,20.84375 -83.25,32.2125 -126.775,32.2125 l -180.325,0 0,-540.00125 180.325,0 c 45.4125,0 88.9375,11.36875 128.675,34.105 83.25,47.36875 128.675,128.84125 128.675,234.9475 0,108.00125 -45.425,191.36875 -130.575,238.73625 z"
   id="path17" /><path
   inkscape:connector-curvature="0"
   style="fill:#000000;fill-rule:nonzero;stroke:none"
   d="m 528.53,815.00125 0,-540.00125 395.49375,0 0,96.63125 -296.61875,0 0,100.42125 161.6175,0 0,98.52625 -161.6175,0 0,147.78875 306.125,0 0,96.63375 -405,0 z"
   id="path19" /><path
   inkscape:connector-curvature="0"
   style="fill:#000000;fill-rule:nonzero;stroke:none"
   d="m 1449.475,815.00125 -258.8,-371.37 0,371.37 -95.145,0 0,-540.0025 95.145,0 249.275,356.21125 0,-356.21125 93.25,0 0,540.0025 -83.725,0 z"
   id="path21" /></svg>