<svg id="R4-11" xmlns="http://www.w3.org/2000/svg" width="30in" height="30in" viewBox="0 0 2160 2160">
  <defs>
    <style>
      .a {
        fill-rule: evenodd;
      }
    </style>
  </defs>
  <g>
    <rect width="2160" height="2160" rx="135" fill="#fff"/>
    <path d="M2025,2.2536A132.7467,132.7467,0,0,1,2157.7463,135V2025A132.7467,132.7467,0,0,1,2025,2157.7463H135A132.7467,132.7467,0,0,1,2.2536,2025V135A132.7467,132.7467,0,0,1,135,2.2536ZM2025,0H135A135,135,0,0,0,0,135V2025a135,135,0,0,0,135,135H2025a135,135,0,0,0,135-135V135A135,135,0,0,0,2025,0Z"/>
  </g>
  <path d="M2025,36H135a99.1106,99.1106,0,0,0-99,99V2025a99.1107,99.1107,0,0,0,99,99H2025a99.1106,99.1106,0,0,0,99-99V135A99.11,99.11,0,0,0,2025,36Zm45,1989a45.0548,45.0548,0,0,1-45,45H135a45.0549,45.0549,0,0,1-45-45V135a45.0549,45.0549,0,0,1,45-45H2025a45.0549,45.0549,0,0,1,45,45Z"/>
  <path class="a" d="M1463.6376,469.9059c-43.6005,0-88.4958,11.7283-125.6039,34.2521l-78.7287-97.54,12.6995-34.29c46.99-7.2921,57.8422-19.4966,70.2559-33.0718,12.3948-13.5751,10.51-22.9045-8.0346-22.8093-18.5256.0761-116.1033,5.5785-181.7708,8.3774-12.547.4-22.181,9.196-11.1762,18.773,11.024,9.5579,57.1378,26.0461,83.8883,29.5113l-5.0835,15.5362H887.3482L911.3,303.7476l-19.04-34.29,16.5073-17.783h81.28L988.772,225H896.0684l-43.1818,46.99,21.5908,36.8225L806.3349,496.8087c-32.9575-17.6306-71.9315-26.9028-109.9725-26.9028-130.84,0-237.5567,106.7167-237.5567,237.5565C458.8057,838.2833,565.5226,945,696.3624,945S933.9,838.2833,933.9,707.4624c0-72.3883-34.3284-141.978-91.6946-187.1589l10.586-28.6926,236.338,267.2964c-6.9684,19.8964,5.2931,39.926,28.7117,43.7529l15.7267,61.1741h-12.6993v17.783l52.0731-2.5513-1.2756-16.5073h-16.5073L1142.25,801.3655c8.6249-5.1216,15.8409-11.6522,18.9443-20.1818l72.3313-13.0041C1261.3614,870.7648,1356.0071,945,1463.6376,945c130.84,0,237.5567-106.7167,237.5567-237.5376C1701.1943,576.6226,1594.4776,469.9059,1463.6376,469.9059ZM888.7,707.4624C888.7,813.3986,802.2985,899.8,696.3624,899.8c-105.9552,0-192.3567-86.4015-192.3567-192.3377,0-105.9551,86.4015-192.3566,192.3567-192.3566a193.5082,193.5082,0,0,1,96.2449,26.2174C773.7392,600.936,755.385,631.685,697.3334,678.408a25.4025,25.4025,0,0,0,.6093,50.7976c13.975,0,24.3706-11.4047,24.3706-26.0271,44.5906-35.4326,79.3-69.19,104.3368-136.7612C866.1572,602.2688,888.7,654.1136,888.7,707.4624Zm229.617-10.0148-3.8079-27.931h10.1672l-1.2758-17.7829h-44.4573l1.2756,16.5073h11.4238l2.5513,30.4823S870.67,447.1726,869.3939,445.8969l5.16-15.8219,332.107-.4378Zm108.9634,31.5486L1151.77,736.65l93.2367-284.4511,60.2412,72.1409C1247.4053,577.5555,1226.1,641.5665,1226.1,707.4624,1226.1,713.955,1227.014,723.2272,1227.2805,728.9962Zm104.87-169.414L1434.66,692.7068l-162.636,26.56C1272.4233,661.5009,1279.03,605.9055,1332.15,559.5822ZM1463.6376,899.8c-85.6589,0-163.0548-58.6038-184.7979-139.6742l174.84-33.5287a27.3734,27.3734,0,0,0,11.3665,2.6084,25.4415,25.4415,0,0,0,25.3989-25.3987c0-13.7847-11.1192-25.2084-23.8756-25.3989l-104.413-138.627c28.54-16.6976,67.6666-24.6752,101.4808-24.6752,105.9552,0,192.3568,86.4015,192.3568,192.3566C1655.9944,813.3986,1569.5928,899.8,1463.6376,899.8Z"/>
  <g id="MAY USE">
    <g id="MAY">
      <path d="M528.6244,1251.3242l-53.64,161.6764-53.64-161.6764v161.6764H379.872V1124.9991h41.4722l53.64,161.6764,53.64-161.6764h41.4722v288.0015H528.6244Z"/>
      <path d="M733,1334.1964H671.2231l-19.26,78.8042H610.4192l71.9284-288.0015H722.92l71.8922,288.0015H753.268Zm-51.66-40.4282h41.5445l-21.2763-82.8731Z"/>
      <path d="M924.5516,1413.0006H883.0071V1282.6437l-70.92-157.6446h43.56l48.6363,104.0761,47.6283-104.0761H996.48l-71.9284,157.6446Z"/>
    </g>
    <g id="USE">
      <path d="M1212.48,1329.3V1124.9991h41.3286v207.1453c0,27.108,15.84,45.504,40.32,45.504,22.1767,0,38.3409-18.18,38.3409-45.504V1124.9991h41.3638v204.9135c0,65.52-50.616,88.1278-79.7047,88.1278C1267.5243,1418.04,1212.48,1400.7246,1212.48,1329.3Z"/>
      <path d="M1503.976,1377.6845c22.32,0,40.5727-20.2321,40.5727-43.4881-.0361-61.345-107.5326-61.2-107.5326-139.5007,0-41.4361,32.472-74.7363,74.0527-74.7363,40.6078,0,72.0719,31.2834,73.08,74.7724h-39.636c-1.008-20.1969-15.2276-33.3363-33.48-33.3363-19.2964,0-34.4879,14.1121-34.4879,33.3,0,17.2435,10.8354,24.12,24.2639,32.5443,38.9524,23.508,83.3039,51.8759,83.3039,106.9925,0,46.62-35.532,83.88-80.1716,83.88-50.7244,0-81.1444-42.9118-81.1444-90h40.644C1463.4405,1352.6285,1475.5719,1377.6845,1503.976,1377.6845Z"/>
      <path d="M1633.1032,1124.9991h135.7931v40.4281h-94.2486v72.7566h59.7607v39.42h-59.7607v95.0046H1780.056v40.392H1633.1032Z"/>
    </g>
  </g>
  <g id="FULL LANE">
    <g id="FULL">
      <path d="M260.1359,1706.152h57.78v39.42h-57.78v135.3963H218.592V1592.9675H365.544v40.428H260.1359Z"/>
      <path d="M405.8493,1797.2682V1592.9675h41.3286v207.1448c0,27.108,15.84,45.5039,40.32,45.5039,22.1757,0,38.34-18.18,38.34-45.5039V1592.9675h41.3642v204.9131c0,65.52-50.6163,88.1275-79.7041,88.1275C460.8935,1886.0081,405.8493,1868.6924,405.8493,1797.2682Z"/>
      <path d="M630.59,1592.9675h41.5439v249.5887H777.5422v38.4122H630.59Z"/>
      <path d="M817.8475,1592.9675h41.5444v249.5887H964.8v38.4122H817.8475Z"/>
    </g>
    <g id="LANE">
      <path d="M1180.8,1593h41.5443v249.588H1327.752V1881H1180.8Z"/>
      <path d="M1467.5967,1802.1962H1405.82L1386.56,1881h-41.5442l71.9289-288h40.5715l71.8918,288h-41.5442Zm-51.6608-40.428H1457.48l-21.2761-82.8727Z"/>
      <path d="M1611.08,1688.0041V1881h-41.3284V1593H1611.08l78.6593,172.8V1593h41.3646v288h-31.2481Z"/>
      <path d="M1794.456,1593h135.7924v40.4279H1836v72.7562h59.7605v39.42H1836v95.0041H1941.408V1881H1794.456Z"/>
    </g>
  </g>
</svg>
