<?xml version="1.0" encoding="utf-8"?>
<!-- Generator: Adobe Illustrator 27.8.1, SVG Export Plug-In . SVG Version: 6.00 Build 0)  -->
<svg version="1.1" id="For_Sheets" xmlns="http://www.w3.org/2000/svg" xmlns:xlink="http://www.w3.org/1999/xlink" x="0px" y="0px"
	 viewBox="0 0 302.9 173.3" style="enable-background:new 0 0 302.9 173.3;" xml:space="preserve">
<style type="text/css">
	.st0{fill:#FFFFFF;}
</style>
<g>
	<g>
		<path class="st0" d="M11.1,173.2c-6,0-10.9-4.9-10.9-10.9V11.1C0.1,5,5,0.1,11.1,0.1h280.8c6,0,10.9,4.9,10.9,10.9v151.2
			c0,6-4.9,10.9-10.9,10.9H11.1z"/>
		<path d="M291.8,0.2c6,0,10.8,4.8,10.8,10.8v151.2c0,6-4.8,10.8-10.8,10.8H11.1c-6,0-10.8-4.8-10.8-10.8V11.1
			c0-6,4.8-10.8,10.8-10.8H291.8 M291.8,0H11.1C5,0,0,5,0,11.1v151.2c0,6.1,5,11.1,11.1,11.1h280.8c6.1,0,11.1-5,11.1-11.1V11.1
			C302.9,5,297.9,0,291.8,0L291.8,0z"/>
	</g>
	<path d="M11,170.4c-4.5,0-8.1-3.6-8.1-8.1V11.1C2.9,6.6,6.6,3,11,3h280.8c4.5,0,8.1,3.6,8.1,8.1v151.2c0,4.5-3.6,8.1-8.1,8.1H11z"
		/>
	<path class="st0" d="M11,165.9c-2,0-3.6-1.6-3.6-3.6V11.1c0-2,1.6-3.6,3.6-3.6h280.8c2,0,3.6,1.6,3.6,3.6v151.2
		c0,2-1.6,3.6-3.6,3.6H11z"/>
	<g>
		<g>
			<path d="M33.7,48.9c2.2,0,4.1-2,4.1-4.3c0-6.1-10.8-6.1-10.8-13.9c0-4.1,3.2-7.5,7.4-7.5c4.1,0,7.2,3.1,7.3,7.5h-4
				c-0.1-2-1.5-3.3-3.3-3.3c-1.9,0-3.4,1.4-3.4,3.3c0,1.7,1.1,2.4,2.4,3.3c3.9,2.4,8.3,5.2,8.3,10.7c0,4.7-3.6,8.4-8,8.4
				c-5.1,0-8.1-4.3-8.1-9h4.1C29.6,46.4,30.8,48.9,33.7,48.9z"/>
			<path d="M46.6,23.7h4.2v25h10.5v3.8H46.6V23.7z"/>
			<path d="M64.7,38c0-15.1,7-14.8,8.5-14.8c1.6,0,8.5-0.2,8.5,14.8c0,15.2-6.9,15-8.5,15C71.7,53,64.7,53.2,64.7,38z M73.2,27.2
				c-0.8,0-4.5-0.2-4.5,10.8c0,11.1,3.7,10.9,4.5,10.9c0.8,0,4.5,0.2,4.5-10.9C77.8,27,74.1,27.2,73.2,27.2z"/>
			<path d="M98.9,52.5l-2.7-15.1l-2.7,15.1h-3.6l-4.6-28.8h4.1L91.7,39l2.8-15.4h3.2l2.7,15.4l2.5-15.4h4.1l-4.7,28.8H98.9z"/>
		</g>
		<g>
			<path d="M136,52.5l-7.3-28.8h4.2l4.8,18.7l4.8-18.7h4.2l-7.4,28.8H136z"/>
			<path d="M150.6,23.7h13.6v4h-9.4V35h6v3.9h-6v9.5h10.5v4h-14.7V23.7z"/>
			<path d="M182.2,39.4h-7.9v13h-4.1V23.7h4.1v11.7h7.9V23.7h4.1v28.8h-4.1V39.4z"/>
			<path d="M192.6,23.7h4v28.8h-4V23.7z"/>
			<path d="M214.4,31.3c-0.4-2.8-1.5-4.1-3.4-4.1c-3.3,0-4.6,2.6-4.6,10.1c0,8.3,1.4,11.6,5,11.6c2.4,0,3-2,3-4.1h4.2
				c-0.1,4.7-3.1,8.2-7.2,8.2c-6.2,0-8.9-4.9-8.9-15.6c0-9.3,2.9-14.2,8.6-14.2c5.3,0,7.4,4.8,7.5,8.2H214.4z"/>
			<path d="M224.3,23.7h4.2v25H239v3.8h-14.7V23.7z"/>
			<path d="M243.1,23.7h13.6v4h-9.4V35h6v3.9h-6v9.5h10.5v4h-14.7V23.7z"/>
			<path d="M269.3,48.9c2.2,0,4.1-2,4.1-4.3c0-6.1-10.8-6.1-10.8-13.9c0-4.1,3.2-7.5,7.4-7.5c4.1,0,7.2,3.1,7.3,7.5h-4
				c-0.1-2-1.5-3.3-3.3-3.3c-1.9,0-3.4,1.4-3.4,3.3c0,1.7,1.1,2.4,2.4,3.3c3.9,2.4,8.3,5.2,8.3,10.7c0,4.7-3.6,8.4-8,8.4
				c-5.1,0-8.1-4.3-8.1-9h4.1C265.3,46.4,266.5,48.9,269.3,48.9z"/>
		</g>
	</g>
	<g>
		<path d="M26,149.6h-4.2v-25h-5.3v-3.8h14.7v3.8H26V149.6z"/>
		<path d="M34.5,141.3v-20.4h4.1v20.7c0,2.7,1.6,4.6,4,4.6c2.2,0,3.8-1.8,3.8-4.6v-20.7h4.1v20.5c0,6.6-5.1,8.8-8,8.8
			C40,150.2,34.5,148.4,34.5,141.3z"/>
		<path d="M63.7,136.1h-3.9v13.5h-4.1v-28.8h8.6c4.5,0,7.6,3,7.6,7.7c0,3.4-1.4,6-4.1,7l4.1,14.1h-4.2L63.7,136.1z M59.8,124.9v7.3
			H64c2.4,0,3.7-1.3,3.7-3.6c0-2.2-1.5-3.6-3.7-3.6H59.8z"/>
		<path d="M79.9,130.4v19.3h-4.1v-28.8h4.1l7.9,17.3v-17.3h4.1v28.8h-3.1L79.9,130.4z"/>
	</g>
	<g>
		<path d="M97.3,134h14.4v3.8H97.3V134z"/>
	</g>
	<g>
		<path d="M115.3,135.2c0-15.1,7-14.8,8.5-14.8s8.5-0.2,8.5,14.8c0,15.2-6.9,15-8.5,15S115.3,150.4,115.3,135.2z M123.8,124.4
			c-0.8,0-4.5-0.2-4.5,10.8c0,11.1,3.7,10.9,4.5,10.9c0.8,0,4.5,0.2,4.5-10.9C128.3,124.2,124.6,124.4,123.8,124.4z"/>
		<path d="M136.9,141.3v-20.4h4.1v20.7c0,2.7,1.6,4.6,4,4.6c2.2,0,3.8-1.8,3.8-4.6v-20.7h4.1v20.5c0,6.6-5.1,8.8-8,8.8
			C142.4,150.2,136.9,148.4,136.9,141.3z"/>
		<path d="M165.6,149.6h-4.2v-25h-5.3v-3.8h14.7v3.8h-5.3V149.6z"/>
	</g>
	<g>
		<path d="M201.2,141.8H195l-1.9,7.9h-4.2l7.2-28.8h4.1l7.2,28.8h-4.2L201.2,141.8z M196,137.7h4.2l-2.1-8.3L196,137.7z"/>
		<path d="M222.6,136.6h-7.9v13h-4.1v-28.8h4.1v11.7h7.9v-11.7h4.1v28.8h-4.1V136.6z"/>
		<path d="M231.8,120.9h13.6v4h-9.4v7.3h6v3.9h-6v9.5h10.5v4h-14.7V120.9z"/>
		<path d="M260.8,141.8h-6.2l-1.9,7.9h-4.2l7.2-28.8h4.1l7.2,28.8h-4.2L260.8,141.8z M255.6,137.7h4.2l-2.1-8.3L255.6,137.7z"/>
		<path d="M270.2,149.6v-28.8h8.2c1.8,0,7.9,0.1,7.9,14.3c0,13-5.7,14.5-7.6,14.5H270.2z M277.6,124.9h-3.2v20.7h2.9
			c3.4,0,5.1-1.5,5.1-10.2C282.3,125.3,279.8,124.9,277.6,124.9z"/>
	</g>
	<g>
		<g>
			<path d="M83.6,84.9L78.3,101l-5.4-16.2V101h-4.1V72.2h4.1l5.4,16.2l5.4-16.2h4.1V101h-4.1V84.9z"/>
			<path d="M94.1,92.7V72.2h4.1V93c0,2.7,1.6,4.6,4,4.6c2.2,0,3.8-1.8,3.8-4.6V72.2h4.1v20.5c0,6.6-5.1,8.8-8,8.8
				C99.6,101.6,94.1,99.8,94.1,92.7z"/>
			<path d="M123.3,97.5c2.2,0,4.1-2,4.1-4.3c0-6.1-10.8-6.1-10.8-13.9c0-4.1,3.2-7.5,7.4-7.5c4.1,0,7.2,3.1,7.3,7.5h-4
				c-0.1-2-1.5-3.3-3.3-3.3c-1.9,0-3.4,1.4-3.4,3.3c0,1.7,1.1,2.4,2.4,3.3c3.9,2.4,8.3,5.2,8.3,10.7c0,4.7-3.6,8.4-8,8.4
				c-5.1,0-8.1-4.3-8.1-9h4.1C119.2,95,120.4,97.5,123.3,97.5z"/>
			<path d="M143.3,101h-4.2v-25h-5.3v-3.8h14.7v3.8h-5.3V101z"/>
		</g>
		<g>
			<path d="M177.4,92.7V72.2h4.1V93c0,2.7,1.6,4.6,4,4.6c2.2,0,3.8-1.8,3.8-4.6V72.2h4.1v20.5c0,6.6-5.1,8.8-8,8.8
				C182.9,101.6,177.4,99.8,177.4,92.7z"/>
			<path d="M206.5,97.5c2.2,0,4.1-2,4.1-4.3c0-6.1-10.8-6.1-10.8-13.9c0-4.1,3.2-7.5,7.4-7.5c4.1,0,7.2,3.1,7.3,7.5h-4
				c-0.1-2-1.5-3.3-3.3-3.3c-1.9,0-3.4,1.4-3.4,3.3c0,1.7,1.1,2.4,2.4,3.3c3.9,2.4,8.3,5.2,8.3,10.7c0,4.7-3.6,8.4-8,8.4
				c-5.1,0-8.1-4.3-8.1-9h4.1C202.5,95,203.7,97.5,206.5,97.5z"/>
			<path d="M219.4,72.2H233v4h-9.4v7.3h6v3.9h-6V97h10.5v4h-14.7V72.2z"/>
		</g>
	</g>
</g>
</svg>
