<?xml version="1.0" encoding="utf-8"?>
<!-- Generator: Adobe Illustrator 27.8.1, SVG Export Plug-In . SVG Version: 6.00 Build 0)  -->
<svg version="1.1" id="For_Sheets" xmlns="http://www.w3.org/2000/svg" xmlns:xlink="http://www.w3.org/1999/xlink" x="0px" y="0px"
	 viewBox="0 0 173.3 216.5" style="enable-background:new 0 0 173.3 216.5;" xml:space="preserve">
<style type="text/css">
	.st0{fill:#FFFFFF;}
</style>
<g>
	<g>
		<path class="st0" d="M11.1,216.4c-6,0-10.9-4.9-10.9-10.9V11C0.1,5,5,0.1,11.1,0.1h151.2c6,0,10.9,4.9,10.9,10.9v194.4
			c0,6-4.9,10.9-10.9,10.9H11.1z"/>
		<path d="M162.2,0.2c6,0,10.8,4.8,10.8,10.8v194.4c0,6-4.8,10.8-10.8,10.8H11c-6,0-10.8-4.8-10.8-10.8V11c0-6,4.8-10.8,10.8-10.8
			H162.2 M162.2,0H11C5,0,0,5,0,11v194.4c0,6.1,5,11.1,11,11.1h151.2c6.1,0,11-5,11-11.1V11C173.3,5,168.3,0,162.2,0L162.2,0z"/>
	</g>
	<path d="M11,213.5c-4.5,0-8.1-3.6-8.1-8.1V11c0-4.5,3.6-8.1,8.1-8.1h151.2c4.5,0,8.1,3.6,8.1,8.1v194.4c0,4.5-3.6,8.1-8.1,8.1H11z
		 M162.2,209c2,0,3.6-1.6,3.6-3.6V11c0-2-1.6-3.6-3.6-3.6H11c-2,0-3.6,1.6-3.6,3.6v194.4c0,2,1.6,3.6,3.6,3.6H162.2z"/>
	<g>
		<path d="M45.5,38.8l-3,3.7v9.9h-4.6V23.6h4.6v11.4l9.1-11.4h5.9l-8.9,11.2l9.5,17.6h-5.3L45.5,38.8z"/>
		<path d="M65.4,23.6h17v4.5H69.9v7.1h8.4v4.6h-8.4v7.9h13.3v4.6H65.4V23.6z"/>
		<path d="M90.6,23.6h17v4.5H95.1v7.1h8.4v4.6h-8.4v7.9h13.3v4.6H90.6V23.6z"/>
		<path d="M125.7,39.9h-5.4v12.5h-4.5V23.6h10.9c6.8,0,8.7,5.5,8.7,8.1C135.4,33.5,134.4,39.9,125.7,39.9z M120.4,35.3h6.4
			c3.6,0,4-2.6,4-3.5c0-1.3-1-3.5-3.8-3.5h-6.6V35.3z"/>
	</g>
	<g>
		<path d="M34.1,86.7v12.5h-4.5V70.4H40c6.6,0,8.6,5.3,8.6,8.1c0,1.1-0.4,5.3-4.5,7.2l5.1,13.5h-5l-4.6-12.5H34.1z M39.9,82.1
			c3.6,0,4.2-2.6,4.2-3.5c0-1.3-0.9-3.5-4-3.5h-5.9v7.1H39.9z"/>
		<path d="M56.5,70.4h4.6v28.8h-4.6V70.4z"/>
		<path d="M81.1,69.9c4.6,0,7.2,1.7,9.2,6.4L85.9,78c-1.2-2.5-2.4-3.4-4.6-3.4c-6.3,0-6,9.6-6,10.3c0,1.1-0.2,10.2,5.4,10.2
			c2.9,0,5.1-1.8,5.1-4.4v-1.2h-5.3v-4.6h9.8v5.8c0,5.3-3.8,9.1-9.1,9.1c-1,0-10.5,0.9-10.5-14.9C70.7,82.6,70.8,69.9,81.1,69.9z"/>
		<path d="M114.8,86.7h-10.5v12.5h-4.5V70.4h4.5v11.6h10.5V70.4h4.6v28.8h-4.5V86.7z"/>
		<path d="M137,99.2h-4.6V74.5h-6.6v-4h17.9v4H137V99.2z"/>
	</g>
	<g>
		<path d="M29.9,117.3h13.6v4H34v7.3h6v3.9h-6v9.5h10.5v4H29.9V117.3z"/>
		<path d="M55.6,136.3l-4.1,9.8h-4.4l6.3-15l-5.9-13.8H52l3.7,8.7l3.7-8.7h4.4l-5.8,13.8l6.3,15h-4.5L55.6,136.3z"/>
		<path d="M79.6,124.9c-0.4-2.8-1.5-4.1-3.4-4.1c-3.3,0-4.6,2.6-4.6,10.1c0,8.3,1.4,11.6,5,11.6c2.4,0,3-2,3-4.1h4.2
			c-0.1,4.7-3.1,8.2-7.2,8.2c-6.2,0-8.9-4.9-8.9-15.6c0-9.3,2.9-14.2,8.6-14.2c5.3,0,7.4,4.8,7.5,8.2H79.6z"/>
		<path d="M89.5,117.3h13.6v4h-9.4v7.3h6v3.9h-6v9.5h10.5v4H89.5V117.3z"/>
		<path d="M113.3,133.4V146h-4.1v-28.8h8.6c4.5,0,7.6,3.2,7.6,8.1c0,5.3-2.7,8.1-7.6,8.1H113.3z M113.3,129.5h4.2
			c2.4,0,3.7-1.5,3.7-4.1c0-2.4-1.5-4-3.7-4h-4.2V129.5z"/>
		<path d="M138.1,146H134v-25h-5.3v-3.8h14.7v3.8h-5.3V146z"/>
	</g>
	<g>
		<path d="M29.5,192.8h-4.2v-25h-5.3V164h14.7v3.8h-5.3V192.8z"/>
		<path d="M38.3,178.4c0-15.1,7-14.8,8.5-14.8s8.5-0.2,8.5,14.8c0,15.2-6.9,15-8.5,15S38.3,193.6,38.3,178.4z M46.8,167.6
			c-0.8,0-4.5-0.2-4.5,10.8c0,11.1,3.7,10.9,4.5,10.9c0.8,0,4.5,0.2,4.5-10.9C51.3,167.4,47.6,167.6,46.8,167.6z"/>
	</g>
	<g>
		<path d="M81,180.2v12.6h-4.1v-28.8h8.6c4.5,0,7.6,3.2,7.6,8.1c0,5.3-2.7,8.1-7.6,8.1H81z M81,176.3h4.2c2.4,0,3.7-1.5,3.7-4.1
			c0-2.4-1.5-4-3.7-4H81V176.3z"/>
		<path d="M108.7,185h-6.2l-1.9,7.9h-4.2l7.2-28.8h4.1l7.2,28.8h-4.2L108.7,185z M103.5,180.9h4.2l-2.1-8.3L103.5,180.9z"/>
		<path d="M125.7,174.5c3.1,2,7.9,4.7,7.9,10.4c0,4.7-3.6,8.4-8,8.4c-5.1,0-8.1-4.3-8.1-9h4.1c0,2.5,1.2,5,4.1,5
			c2.2,0,4.1-2,4.1-4.3c0-6.3-10.8-5.9-10.8-13.9c0-4.1,3.2-7.5,7.4-7.5c4.1,0,7.2,3.1,7.3,7.5h-4c-0.1-2-1.5-3.3-3.3-3.3
			c-1.9,0-3.4,1.4-3.4,3.3C122.9,172.9,123.8,173.4,125.7,174.5z"/>
		<path d="M145.3,174.5c3.1,2,7.9,4.7,7.9,10.4c0,4.7-3.6,8.4-8,8.4c-5.1,0-8.1-4.3-8.1-9h4.1c0,2.5,1.2,5,4.1,5
			c2.2,0,4.1-2,4.1-4.3c0-6.3-10.8-5.9-10.8-13.9c0-4.1,3.2-7.5,7.4-7.5c4.1,0,7.2,3.1,7.3,7.5h-4c-0.1-2-1.5-3.3-3.3-3.3
			c-1.9,0-3.4,1.4-3.4,3.3C142.4,172.9,143.4,173.4,145.3,174.5z"/>
	</g>
</g>
</svg>
