<?xml version="1.0" encoding="utf-8"?>
<!-- Generator: Adobe Illustrator 27.8.1, SVG Export Plug-In . SVG Version: 6.00 Build 0)  -->
<svg version="1.1" id="For_Sheets" xmlns="http://www.w3.org/2000/svg" xmlns:xlink="http://www.w3.org/1999/xlink" x="0px" y="0px"
	 viewBox="0 0 302.9 173.3" style="enable-background:new 0 0 302.9 173.3;" xml:space="preserve">
<style type="text/css">
	.st0{fill:#FFFFFF;}
</style>
<g>
	<g>
		<path class="st0" d="M11.1,173.2c-6,0-10.9-4.9-10.9-10.9V11.1C0.1,5,5,0.1,11.1,0.1h280.8c6,0,10.9,4.9,10.9,10.9v151.2
			c0,6-4.9,10.9-10.9,10.9H11.1z"/>
		<path d="M291.8,0.2c6,0,10.8,4.8,10.8,10.8v151.2c0,6-4.8,10.8-10.8,10.8H11.1c-6,0-10.8-4.8-10.8-10.8V11.1
			c0-6,4.8-10.8,10.8-10.8H291.8 M291.8,0H11.1C5,0,0,5,0,11.1v151.2c0,6.1,5,11.1,11.1,11.1h280.8c6.1,0,11.1-5,11.1-11.1V11.1
			C302.9,5,297.9,0,291.8,0L291.8,0z"/>
	</g>
	<path d="M11,170.4c-4.5,0-8.1-3.6-8.1-8.1V11.1C2.9,6.6,6.6,3,11,3h280.8c4.5,0,8.1,3.6,8.1,8.1v151.2c0,4.5-3.6,8.1-8.1,8.1H11z
		 M291.8,165.9c2,0,3.6-1.6,3.6-3.6V11.1c0-2-1.6-3.6-3.6-3.6H11c-2,0-3.6,1.6-3.6,3.6v151.2c0,2,1.6,3.6,3.6,3.6H291.8z"/>
	<g>
		<path d="M33.8,28.7c3.1,2,7.9,4.7,7.9,10.4c0,4.7-3.6,8.4-8,8.4c-5.1,0-8.1-4.3-8.1-9h4.1c0,2.5,1.2,5,4.1,5c2.2,0,4.1-2,4.1-4.3
			c0-6.3-10.8-5.9-10.8-13.9c0-4.1,3.2-7.5,7.4-7.5c4.1,0,7.2,3.1,7.3,7.5h-4c-0.1-2-1.5-3.3-3.3-3.3c-1.9,0-3.4,1.4-3.4,3.3
			C30.9,27.1,31.9,27.6,33.8,28.7z"/>
		<path d="M46.6,18.3h4.2v25h10.5V47H46.6V18.3z"/>
		<path d="M64.7,32.6c0-15.1,7-14.8,8.5-14.8c1.6,0,8.5-0.2,8.5,14.8c0,15.2-6.9,15-8.5,15C71.7,47.6,64.7,47.8,64.7,32.6z
			 M73.2,21.8c-0.8,0-4.5-0.2-4.5,10.8c0,11.1,3.7,10.9,4.5,10.9c0.8,0,4.5,0.2,4.5-10.9C77.8,21.6,74.1,21.8,73.2,21.8z"/>
		<path d="M98.9,47L96.1,32L93.4,47h-3.6l-4.6-28.8h4.1l2.4,15.4l2.8-15.4h3.2l2.7,15.4l2.5-15.4h4.1L102.4,47H98.9z"/>
	</g>
	<g>
		<path d="M136,47l-7.3-28.8h4.2l4.8,18.7l4.8-18.7h4.2L139.1,47H136z"/>
		<path d="M150.6,18.3h13.6v4h-9.4v7.3h6v3.9h-6V43h10.5v4h-14.7V18.3z"/>
		<path d="M182.2,34h-7.9v13h-4.1V18.3h4.1V30h7.9V18.3h4.1V47h-4.1V34z"/>
		<path d="M192.6,18.3h4V47h-4V18.3z"/>
		<path d="M214.4,25.9c-0.4-2.8-1.5-4.1-3.4-4.1c-3.3,0-4.6,2.6-4.6,10.1c0,8.3,1.4,11.6,5,11.6c2.4,0,3-2,3-4.1h4.2
			c-0.1,4.7-3.1,8.2-7.2,8.2c-6.2,0-8.9-4.9-8.9-15.6c0-9.3,2.9-14.2,8.6-14.2c5.3,0,7.4,4.8,7.5,8.2H214.4z"/>
		<path d="M224.3,18.3h4.2v25H239V47h-14.7V18.3z"/>
		<path d="M243.1,18.3h13.6v4h-9.4v7.3h6v3.9h-6V43h10.5v4h-14.7V18.3z"/>
		<path d="M269.5,28.7c3.1,2,7.9,4.7,7.9,10.4c0,4.7-3.6,8.4-8,8.4c-5.1,0-8.1-4.3-8.1-9h4.1c0,2.5,1.2,5,4.1,5c2.2,0,4.1-2,4.1-4.3
			c0-6.3-10.8-5.9-10.8-13.9c0-4.1,3.2-7.5,7.4-7.5c4.1,0,7.2,3.1,7.3,7.5h-4c-0.1-2-1.5-3.3-3.3-3.3c-1.9,0-3.4,1.4-3.4,3.3
			C266.6,27.1,267.6,27.6,269.5,28.7z"/>
	</g>
	<g>
		<path d="M23.3,105.9h4.3v3h-4.3V119h-3.1V97.5h11v3h-7.9V105.9z"/>
		<path d="M33.8,108.2c0-11.3,5.2-11.1,6.4-11.1c1.2,0,6.3-0.2,6.3,11.1c0,11.4-5.2,11.2-6.3,11.2C39,119.4,33.8,119.6,33.8,108.2z
			 M40.2,100.1c-0.6,0-3.4-0.1-3.4,8.1c0,8.3,2.8,8.2,3.4,8.2s3.4,0.1,3.4-8.2C43.6,100,40.8,100.1,40.2,100.1z"/>
		<path d="M50.9,97.5H54v18.7h7.9v2.9h-11V97.5z"/>
		<path d="M64.9,97.5H68v18.7h7.9v2.9h-11V97.5z"/>
		<path d="M78.5,108.2c0-11.3,5.2-11.1,6.4-11.1c1.2,0,6.3-0.2,6.3,11.1c0,11.4-5.2,11.2-6.3,11.2C83.8,119.4,78.5,119.6,78.5,108.2
			z M84.9,100.1c-0.6,0-3.4-0.1-3.4,8.1c0,8.3,2.8,8.2,3.4,8.2s3.4,0.1,3.4-8.2C88.3,100,85.5,100.1,84.9,100.1z"/>
		<path d="M104.1,119l-2.1-11.3L100,119h-2.7l-3.4-21.6h3l1.8,11.5l2.1-11.5h2.4l2.1,11.5l1.9-11.5h3l-3.5,21.6H104.1z"/>
		<path d="M113.3,97.5h3V119h-3V97.5z"/>
		<path d="M124.2,104.6V119h-3.1V97.5h3.1l5.9,13v-13h3.1V119h-2.3L124.2,104.6z"/>
		<path d="M144.2,119.4c-2,0-6.7-0.4-6.7-11.1s4.5-11.2,6.5-11.2c3.1,0,5.5,2.3,5.6,5.5h-3.1c-0.1-1.4-1.1-2.4-2.6-2.4
			c-1,0-3.4,0.3-3.4,8.2c0,7.9,2.6,8.1,3.7,8.1c1.6,0,2.4-1.1,2.4-3.3v-1.4h-2.4v-3h5.6v4.5C149.6,118.5,146.1,119.4,144.2,119.4z"
			/>
	</g>
	<g>
		<path d="M176.7,119l-5.5-21.6h3.1l3.6,14l3.6-14h3.1l-5.6,21.6H176.7z"/>
		<path d="M187.6,97.5h10.2v3h-7.1v5.5h4.5v3h-4.5v7.1h7.9v3h-11V97.5z"/>
		<path d="M211.3,109.3h-5.9v9.8h-3.1V97.5h3.1v8.8h5.9v-8.8h3.1V119h-3.1V109.3z"/>
		<path d="M219.2,97.5h3V119h-3V97.5z"/>
		<path d="M235.5,103.2c-0.3-2.1-1.1-3.1-2.6-3.1c-2.5,0-3.4,2-3.4,7.6c0,6.2,1.1,8.7,3.7,8.7c1.8,0,2.3-1.5,2.3-3.1h3.1
			c-0.1,3.6-2.4,6.1-5.4,6.1c-4.6,0-6.7-3.7-6.7-11.7c0-7,2.2-10.7,6.5-10.7c4,0,5.5,3.6,5.6,6.1H235.5z"/>
		<path d="M243,97.5h3.1v18.7h7.9v2.9h-11V97.5z"/>
		<path d="M257,97.5h10.2v3h-7.1v5.5h4.5v3h-4.5v7.1h7.9v3h-11V97.5z"/>
		<path d="M276.8,105.3c2.4,1.5,5.9,3.6,5.9,7.8c0,3.5-2.7,6.3-6,6.3c-3.8,0-6.1-3.2-6.1-6.7h3c0,1.8,0.9,3.7,3,3.7
			c1.7,0,3-1.5,3-3.3c0-4.7-8.1-4.4-8.1-10.5c0-3.1,2.4-5.6,5.6-5.6c3,0,5.4,2.3,5.5,5.6h-3c-0.1-1.5-1.1-2.5-2.5-2.5
			c-1.4,0-2.6,1.1-2.6,2.5C274.6,104.1,275.4,104.4,276.8,105.3z"/>
	</g>
	<g>
		<path d="M51.6,83l-2.1-11.3L47.5,83h-2.7l-3.4-21.6h3L46.2,73l2.1-11.5h2.4L52.8,73l1.9-11.5h3L54.3,83H51.6z"/>
		<path d="M60.8,61.5h3V83h-3V61.5z"/>
		<path d="M73.9,83h-3.1V64.3h-4v-2.9h11v2.9h-4V83z"/>
		<path d="M89.9,73.3H84V83h-3.1V61.5H84v8.8h5.9v-8.8H93V83h-3.1V73.3z"/>
	</g>
	<g>
		<path d="M114.6,81.5l2.1-2.2c1.1,0.8,1.9,1.1,3,1.1c2.3,0,4-2.1,4-5.1c0-2.3-1.1-3.8-3-3.8c-1,0-1.8,0.4-2.6,1.1l-3-0.4l0.5-10.8
			h10.2v3h-7.3l-0.2,4.5c1.1-0.4,1.6-0.5,2.4-0.5c3.5,0,5.9,2.8,5.9,6.9c0,4.5-2.9,8-6.8,8C118,83.4,116.2,82.7,114.6,81.5z"/>
	</g>
	<g>
		<path d="M148.3,72.2c0-11.3,5.2-11.1,6.4-11.1c1.2,0,6.3-0.2,6.3,11.1c0,11.4-5.2,11.2-6.3,11.2C153.6,83.4,148.3,83.6,148.3,72.2
			z M154.7,64.1c-0.6,0-3.4-0.1-3.4,8.1c0,8.3,2.8,8.2,3.4,8.2s3.4,0.1,3.4-8.2C158.1,64,155.3,64.1,154.7,64.1z"/>
		<path d="M171.4,72.9h-3V83h-3.1V61.5h6.4c3.4,0,5.7,2.3,5.7,5.8c0,2.6-1.1,4.5-3.1,5.2l3.1,10.6h-3.2L171.4,72.9z M168.5,64.5v5.5
			h3.2c1.8,0,2.8-1,2.8-2.7c0-1.7-1.1-2.7-2.8-2.7H168.5z"/>
	</g>
	<g>
		<path d="M210.2,70.9l-4,12.1l-4-12.1V83h-3.1V61.5h3.1l4,12.1l4-12.1h3.1V83h-3.1V70.9z"/>
		<path d="M217.7,72.2c0-11.3,5.2-11.1,6.4-11.1c1.2,0,6.3-0.2,6.3,11.1c0,11.4-5.2,11.2-6.3,11.2C222.9,83.4,217.7,83.6,217.7,72.2
			z M224,64.1c-0.6,0-3.4-0.1-3.4,8.1c0,8.3,2.8,8.2,3.4,8.2c0.6,0,3.4,0.1,3.4-8.2C227.4,64,224.7,64.1,224,64.1z"/>
		<path d="M240.8,72.9h-3V83h-3.1V61.5h6.4c3.4,0,5.7,2.3,5.7,5.8c0,2.6-1.1,4.5-3.1,5.2l3.1,10.6h-3.2L240.8,72.9z M237.8,64.5v5.5
			h3.2c1.8,0,2.8-1,2.8-2.7c0-1.7-1.1-2.7-2.8-2.7H237.8z"/>
		<path d="M250.5,61.5h10.2v3h-7.1v5.5h4.5v3h-4.5V80h7.9v3h-11V61.5z"/>
	</g>
	<g>
		<path d="M31.1,142.9l-4,12.1l-4-12.1V155H20v-21.6h3.1l4,12.1l4-12.1h3.1V155h-3.1V142.9z"/>
		<path d="M39,148.8v-15.3h3.1V149c0,2,1.2,3.4,3,3.4c1.7,0,2.9-1.4,2.9-3.4v-15.5h3.1v15.4c0,4.9-3.8,6.6-6,6.6
			C43.1,155.4,39,154.1,39,148.8z"/>
		<path d="M61,141.3c2.4,1.5,5.9,3.6,5.9,7.8c0,3.5-2.7,6.3-6,6.3c-3.8,0-6.1-3.2-6.1-6.7h3c0,1.8,0.9,3.7,3,3.7c1.7,0,3-1.5,3-3.3
			c0-4.7-8.1-4.4-8.1-10.5c0-3.1,2.4-5.6,5.6-5.6c3,0,5.4,2.3,5.5,5.6h-3c-0.1-1.5-1.1-2.5-2.5-2.5c-1.4,0-2.6,1.1-2.6,2.5
			C58.8,140.1,59.6,140.4,61,141.3z"/>
		<path d="M75.9,155h-3.1v-18.7h-4v-2.9h11v2.9h-4V155z"/>
	</g>
	<g>
		<path d="M97.9,148.8v-15.3h3.1V149c0,2,1.2,3.4,3,3.4c1.7,0,2.9-1.4,2.9-3.4v-15.5h3.1v15.4c0,4.9-3.8,6.6-6,6.6
			C102,155.4,97.9,154.1,97.9,148.8z"/>
		<path d="M119.8,141.3c2.4,1.5,5.9,3.6,5.9,7.8c0,3.5-2.7,6.3-6,6.3c-3.8,0-6.1-3.2-6.1-6.7h3c0,1.8,0.9,3.7,3,3.7
			c1.7,0,3-1.5,3-3.3c0-4.7-8.1-4.4-8.1-10.5c0-3.1,2.4-5.6,5.6-5.6c3,0,5.4,2.3,5.5,5.6h-3c-0.1-1.5-1.1-2.5-2.5-2.5
			c-1.4,0-2.6,1.1-2.6,2.5C117.7,140.1,118.4,140.4,119.8,141.3z"/>
		<path d="M129.4,133.5h10.2v3h-7.1v5.5h4.5v3h-4.5v7.1h7.9v3h-11V133.5z"/>
	</g>
	<g>
		<path d="M165.5,155h-3.1v-18.7h-4v-2.9h11v2.9h-4V155z"/>
		<path d="M172.5,148.8v-15.3h3.1V149c0,2,1.2,3.4,3,3.4c1.7,0,2.9-1.4,2.9-3.4v-15.5h3.1v15.4c0,4.9-3.8,6.6-6,6.6
			C176.6,155.4,172.5,154.1,172.5,148.8z"/>
		<path d="M195.4,144.9h-3V155h-3.1v-21.6h6.4c3.4,0,5.7,2.3,5.7,5.8c0,2.6-1.1,4.5-3.1,5.2l3.1,10.6h-3.2L195.4,144.9z
			 M192.4,136.5v5.5h3.2c1.8,0,2.8-1,2.8-2.7c0-1.7-1.1-2.7-2.8-2.7H192.4z"/>
		<path d="M208.2,140.6V155h-3.1v-21.6h3.1l5.9,13v-13h3.1V155h-2.3L208.2,140.6z"/>
	</g>
	<g>
		<path d="M223.5,143.3h10.8v2.9h-10.8V143.3z"/>
	</g>
	<g>
		<path d="M239.7,144.2c0-11.3,5.2-11.1,6.4-11.1c1.2,0,6.3-0.2,6.3,11.1c0,11.4-5.2,11.2-6.3,11.2
			C244.9,155.4,239.7,155.6,239.7,144.2z M246.1,136.1c-0.6,0-3.4-0.1-3.4,8.1c0,8.3,2.8,8.2,3.4,8.2c0.6,0,3.4,0.1,3.4-8.2
			C249.5,136,246.7,136.1,246.1,136.1z"/>
		<path d="M256.8,148.8v-15.3h3.1V149c0,2,1.2,3.4,3,3.4c1.7,0,2.9-1.4,2.9-3.4v-15.5h3.1v15.4c0,4.9-3.8,6.6-6,6.6
			C260.9,155.4,256.8,154.1,256.8,148.8z"/>
		<path d="M279,155h-3.1v-18.7h-4v-2.9h11v2.9h-4V155z"/>
	</g>
</g>
</svg>
