<?xml version="1.0" encoding="utf-8"?>
<!-- Generator: Adobe Illustrator 27.8.1, SVG Export Plug-In . SVG Version: 6.00 Build 0)  -->
<svg version="1.1" xmlns="http://www.w3.org/2000/svg" xmlns:xlink="http://www.w3.org/1999/xlink" x="0px" y="0px"
	 viewBox="0 0 173.3 216.5" style="enable-background:new 0 0 173.3 216.5;" xml:space="preserve">
<style type="text/css">
	.st0{fill:#FFFFFF;}
</style>
<g id="Layer_1">
</g>
<g id="For_Sheets">
	<g>
		<g>
			<path class="st0" d="M11.1,216.4c-6,0-10.9-4.9-10.9-10.9V11C0.1,5,5,0.1,11.1,0.1h151.2c6,0,10.9,4.9,10.9,10.9v194.4
				c0,6-4.9,10.9-10.9,10.9H11.1z"/>
			<path d="M162.2,0.2c6,0,10.8,4.8,10.8,10.8v194.4c0,6-4.8,10.8-10.8,10.8H11c-6,0-10.8-4.8-10.8-10.8V11c0-6,4.8-10.8,10.8-10.8
				H162.2 M162.2,0H11C5,0,0,5,0,11v194.4c0,6.1,5,11.1,11,11.1h151.2c6.1,0,11-5,11-11.1V11C173.3,5,168.3,0,162.2,0L162.2,0z"/>
		</g>
		<path d="M11,213.5c-4.5,0-8.1-3.6-8.1-8.1V11c0-4.5,3.6-8.1,8.1-8.1h151.2c4.5,0,8.1,3.6,8.1,8.1v194.4c0,4.5-3.6,8.1-8.1,8.1H11z
			 M162.2,209c2,0,3.6-1.6,3.6-3.6V11c0-2-1.6-3.6-3.6-3.6H11c-2,0-3.6,1.6-3.6,3.6v194.4c0,2,1.6,3.6,3.6,3.6H162.2z"/>
		<g>
			<path d="M22.6,52.4V23.6h8.2c1.8,0,7.9,0.1,7.9,14.3c0,13-5.7,14.5-7.6,14.5H22.6z M30,27.7h-3.2v20.7h2.9
				c3.4,0,5.1-1.5,5.1-10.2C34.7,28.1,32.2,27.7,30,27.7z"/>
			<path d="M46,38c0-15.1,7-14.8,8.5-14.8S63,22.9,63,38c0,15.2-6.9,15-8.5,15S46,53.2,46,38z M54.5,27.2C53.7,27.2,50,27,50,38
				c0,11.1,3.7,10.9,4.5,10.9S59,49.1,59,38C59,27,55.3,27.2,54.5,27.2z"/>
		</g>
		<g>
			<path d="M95.9,33.2v19.3h-4.1V23.6h4.1l7.9,17.3V23.6h4.1v28.8h-3.1L95.9,33.2z"/>
			<path d="M114.8,38c0-15.1,7-14.8,8.5-14.8c1.6,0,8.5-0.2,8.5,14.8c0,15.2-6.9,15-8.5,15C121.8,53,114.8,53.2,114.8,38z
				 M123.3,27.2c-0.8,0-4.5-0.2-4.5,10.8c0,11.1,3.7,10.9,4.5,10.9c0.8,0,4.5,0.2,4.5-10.9C127.9,27,124.2,27.2,123.3,27.2z"/>
			<path d="M145.4,52.4h-4.2v-25H136v-3.8h14.7v3.8h-5.3V52.4z"/>
		</g>
		<g>
			<path d="M67.2,131.6c0-15.1,7-14.8,8.5-14.8c1.6,0,8.5-0.2,8.5,14.8c0,15.2-6.9,15-8.5,15C74.2,146.6,67.2,146.8,67.2,131.6z
				 M75.7,120.8c-0.8,0-4.5-0.2-4.5,10.8c0,11.1,3.7,10.9,4.5,10.9s4.5,0.2,4.5-10.9C80.2,120.6,76.5,120.8,75.7,120.8z"/>
			<path d="M94.1,126.8V146H90v-28.8h4.1l7.9,17.3v-17.3h4.1V146H103L94.1,126.8z"/>
		</g>
		<g>
			<path d="M52.6,86.6v12.6h-4.1V70.4H57c4.5,0,7.6,3.2,7.6,8.1c0,5.3-2.7,8.1-7.6,8.1H52.6z M52.6,82.7h4.2c2.4,0,3.7-1.5,3.7-4.1
				c0-2.4-1.5-4-3.7-4h-4.2V82.7z"/>
			<path d="M80.3,91.4h-6.2l-1.9,7.9h-4.2l7.2-28.8h4.1l7.2,28.8h-4.2L80.3,91.4z M75.2,87.3h4.2L77.2,79L75.2,87.3z"/>
			<path d="M97.4,80.9c3.1,2,7.9,4.7,7.9,10.4c0,4.7-3.6,8.4-8,8.4c-5.1,0-8.1-4.3-8.1-9h4.1c0,2.5,1.2,5,4.1,5c2.2,0,4.1-2,4.1-4.3
				c0-6.3-10.8-5.9-10.8-13.9c0-4.1,3.2-7.5,7.4-7.5c4.1,0,7.2,3.1,7.3,7.5h-4c-0.1-2-1.5-3.3-3.3-3.3c-1.9,0-3.4,1.4-3.4,3.3
				C94.5,79.3,95.5,79.8,97.4,80.9z"/>
			<path d="M117,80.9c3.1,2,7.9,4.7,7.9,10.4c0,4.7-3.6,8.4-8,8.4c-5.1,0-8.1-4.3-8.1-9h4.1c0,2.5,1.2,5,4.1,5c2.2,0,4.1-2,4.1-4.3
				c0-6.3-10.8-5.9-10.8-13.9c0-4.1,3.2-7.5,7.4-7.5c4.1,0,7.2,3.1,7.3,7.5h-4c-0.1-2-1.5-3.3-3.3-3.3c-1.9,0-3.4,1.4-3.4,3.3
				C114.1,79.3,115.1,79.8,117,80.9z"/>
		</g>
		<g>
			<path d="M25.1,186.7c0-7.2-7.9-9.5-7.9-16.3c0-3.9,2.4-6.8,5.8-6.8c3.5,0,5.4,2.2,5.8,6.8h-3.7c-0.1-2.2-0.7-3.1-2-3.1
				c-1.4,0-2.2,1.2-2.2,3.1c0,2.2,1.2,3,3,5c1.3,1.5,5,5.2,5,11.2c0,2.8-1.8,6.7-6,6.7c-4,0-6.1-2.6-6.3-7.7h3.7
				c0,1.1,0.2,3.9,2.6,3.9C24.3,189.6,25.1,188.5,25.1,186.7z"/>
			<path d="M43.2,179.4H38v13.4h-3.6V164H38v11.6h5.1V164h3.6v28.8h-3.6V179.4z"/>
			<path d="M60,193.4c-6.5,0-6.6-8.1-6.6-14.9c0-6.7,0.2-14.8,6.6-14.8s6.6,8.1,6.6,14.8C66.6,185.2,66.5,193.4,60,193.4z
				 M57.2,178.5c0,5,0.1,11.1,2.8,11.1c2.8,0,2.8-6.1,2.8-11.1c0-5-0.1-11.1-2.8-11.1C57.2,167.4,57.2,173.5,57.2,178.5z"/>
			<path d="M73.2,185.8V164h3.6v22.2c0,2.1,0.9,3.3,2.6,3.3c1.6,0,2.5-1.2,2.5-3.3V164h3.6v21.7c0,6-3.2,7.6-6.2,7.6
				C76.2,193.4,73.2,191.6,73.2,185.8z"/>
			<path d="M93.2,164h3.6v25.5h7.3v3.3h-11V164z"/>
			<path d="M109,192.8V164h5.9c2.4,0,6.4,0.1,6.4,14.3c0,14.2-4,14.5-6.4,14.5H109z M112.6,167.8v21.3h2.3c2.8,0,2.7-4.3,2.7-10.7
				c0-9.5-0.9-10.6-2.7-10.6H112.6z"/>
			<path d="M127.9,164h10.5v3.7h-6.9v7.4h4.6v3.8h-4.6v10.1h7.3v3.7h-11V164z"/>
			<path d="M153.8,178.5l2.9,14.3h-3.9l-2.7-13.4h-2v13.4h-3.6V164h5.6c4.5,0,6.8,2.7,6.8,8.1C156.8,174.9,156,177.3,153.8,178.5z
				 M153.1,172c0-3.3-0.7-4.2-3.2-4.2h-1.8v7.9h2.4C152.5,175.7,153.1,174.8,153.1,172z"/>
		</g>
	</g>
</g>
</svg>
