<?xml version="1.0" encoding="utf-8"?>
<!-- Generator: Adobe Illustrator 27.8.1, SVG Export Plug-In . SVG Version: 6.00 Build 0)  -->
<svg version="1.1" id="For_Sheets" xmlns="http://www.w3.org/2000/svg" xmlns:xlink="http://www.w3.org/1999/xlink" x="0px" y="0px"
	 viewBox="0 0 346.1 346.1" style="enable-background:new 0 0 346.1 346.1;" xml:space="preserve">
<style type="text/css">
	.st0{fill:#FFFFFF;}
</style>
<g>
	<g>
		<path class="st0" d="M21.8,346c-12,0-21.7-9.7-21.7-21.7V21.8c0-12,9.7-21.7,21.7-21.7h302.4c12,0,21.7,9.7,21.7,21.7v302.4
			c0,12-9.7,21.7-21.7,21.7H21.8z"/>
		<path d="M324.2,0.2c11.9,0,21.6,9.7,21.6,21.6v302.4c0,11.9-9.7,21.6-21.6,21.6H21.9c-11.9,0-21.6-9.7-21.6-21.6V21.9
			C0.2,10,10,0.2,21.9,0.2H324.2 M324.2,0H21.9C9.8,0,0,9.8,0,21.9v302.4c0,12,9.8,21.8,21.9,21.8h302.4c12,0,21.8-9.8,21.8-21.8
			V21.9C346.1,9.8,336.3,0,324.2,0L324.2,0z"/>
	</g>
	<path d="M324.2,340.4H21.8c-8.9,0-16.2-7.3-16.2-16.2V21.8c0-8.9,7.3-16.2,16.2-16.2h302.4c8.9,0,16.2,7.3,16.2,16.2v302.4
		C340.4,333.2,333.2,340.4,324.2,340.4z M331.4,324.2V21.8c0-4-3.2-7.2-7.2-7.2H21.8c-4,0-7.2,3.2-7.2,7.2v302.4
		c0,4,3.2,7.2,7.2,7.2h302.4C328.2,331.4,331.4,328.2,331.4,324.2z"/>
	<g>
		<path d="M45.2,96.6v18.8h-6.8V72.2H54c9.9,0,12.9,7.9,12.9,12.1c0,1.6-0.6,7.9-6.7,10.8l7.6,20.2h-7.4l-7-18.8H45.2z M53.8,89.7
			c5.4,0,6.3-3.9,6.3-5.3c0-1.9-1.4-5.3-5.9-5.3h-8.9v10.6H53.8z"/>
		<path d="M75.1,100V72.2H82V100c0,5.6,3.2,9.2,7.9,9.2c4.7,0,7.9-3.6,7.9-9.2V72.2h6.8V100c0,13.7-10.5,16.2-14.7,16.2
			C86,116.2,75.1,113.9,75.1,100z"/>
		<path d="M121.7,86.2v29.3h-6.8V72.2h6.8l15.8,27.6V72.2h6.8v43.2h-6.1L121.7,86.2z"/>
		<path d="M176,103.3h-13.6l-4.3,12.1h-7.3l14.9-43.2h6.9l14.9,43.2h-7.3L176,103.3z M164.8,96.4h8.7l-4.3-12.1L164.8,96.4z"/>
		<path d="M216.1,115.4l-6.8-27.7l-6.7,27.7h-6.1l-6.4-43.2h7l3.3,22.7l5.5-22.7h6.7l5.6,22.7l3.3-22.7h7l-6.4,43.2H216.1z"/>
		<path d="M256.4,103.3h-13.6l-4.3,12.1h-7.3l14.9-43.2h6.9l14.9,43.2h-7.3L256.4,103.3z M245.2,96.4h8.7l-4.3-12.1L245.2,96.4z"/>
		<path d="M292.6,115.4h-6.9V96.7l-15.2-24.4h8.2l10.4,16.7l10.5-16.7h8.1l-15.1,24.4V115.4z"/>
	</g>
	<g>
		<path d="M55.5,194.6l-13.7-43.2H49l9.3,28.8l9.1-28.8h7.3l-13.8,43.2H55.5z"/>
		<path d="M81.2,151.5h25.4v6.8H88v10.6h12.6v7H88v11.8h20v7H81.2V151.5z"/>
		<path d="M137.9,175.9h-15.8v18.8h-6.8v-43.2h6.8v17.4h15.8v-17.4h6.8v43.2h-6.8V175.9z"/>
		<path d="M155.1,151.5h6.9v43.2h-6.9V151.5z"/>
		<path d="M171.5,173c0-6.1,1.2-22.3,15.9-22.3c6.3,0,10.5,2.5,13.5,8.8l-6.4,2.7c-2.2-3.2-3.3-4.5-7.1-4.5c-9,0-8.9,12.6-8.9,15.3
			c0,2.7-0.2,15.5,9.2,15.5c3.3,0,5.2-2,6.7-5l6.5,2.4c-2.4,6-6.5,9.5-13,9.5C172.3,195.4,171.5,178.2,171.5,173z"/>
		<path d="M210.4,151.5h6.8v36.8h20v6.4h-26.8V151.5z"/>
		<path d="M243.7,151.5h25.4v6.8h-18.6v10.6h12.6v7h-12.6v11.8h20v7h-26.8V151.5z"/>
		<path d="M274.8,184.5l6.5-2.4c1.8,4.1,5.2,6.4,9.2,6.4c3.9,0,6.7-2.7,6.7-6.4c0-5.8-6.7-6.7-12.3-8.9c-2.6-1.1-8.3-3.6-8.3-10.8
			c0-8.5,5.8-11.7,13.5-11.7c6.1,0,10.2,3.5,12.3,8.8l-6.1,1.8c-0.7-1.7-3.1-3.8-6.4-3.8c-6.2,0-6.7,3.3-6.7,4.4
			c0,4,3.5,4.8,9.1,6.6c5.8,1.8,11.8,4.5,11.8,13.7c0,9.3-7.6,13.2-13.6,13.2C283.2,195.4,277.7,191,274.8,184.5z"/>
	</g>
	<g>
		<path d="M146.8,244.6v29.3H140v-43.2h6.8l15.8,27.6v-27.6h6.8v43.2h-6.1L146.8,244.6z"/>
		<path d="M179.8,230.6h6.8v36.8h20v6.4h-26.8V230.6z"/>
		<path d="M231.2,273.8h-6.9v-18.8l-15.2-24.4h8.2l10.4,16.7l10.5-16.7h8.1l-15.1,24.4V273.8z"/>
		<path d="M130.5,252.2c0,1.5,0.3,22.4-15.3,22.4s-15.3-20.8-15.3-22.4c0-1.5-0.3-22.4,15.3-22.4S130.5,250.7,130.5,252.2z
			 M115.2,267.6c4.7,0,8.4-4.4,8.4-15.4c0-11-3.8-15.4-8.4-15.4c-4.7,0-8.4,4.4-8.4,15.4C106.8,263.2,110.5,267.6,115.2,267.6z"/>
	</g>
</g>
</svg>
