<?xml version="1.0" encoding="utf-8"?>
<!-- Generator: Adobe Illustrator 27.7.0, SVG Export Plug-In . SVG Version: 6.00 Build 0)  -->
<svg version="1.1" id="For_Sheets" xmlns="http://www.w3.org/2000/svg" xmlns:xlink="http://www.w3.org/1999/xlink" x="0px" y="0px"
	 viewBox="0 0 173.3 216.5" style="enable-background:new 0 0 173.3 216.5;" xml:space="preserve">
<style type="text/css">
	.st0{fill:#FFFFFF;}
</style>
<g>
	<g>
		<path class="st0" d="M11.1,216.4c-6,0-10.9-4.9-10.9-10.9V11C0.1,5,5,0.1,11.1,0.1h151.2c6,0,10.9,4.9,10.9,10.9v194.4
			c0,6-4.9,10.9-10.9,10.9H11.1z"/>
		<path d="M162.2,0.2c5.9,0,10.8,4.9,10.8,10.8v194.4c0,5.9-4.9,10.8-10.8,10.8H11c-5.9,0-10.8-4.9-10.8-10.8V11.1
			C0.2,5.1,5.1,0.2,11,0.2H162.2 M162.2,0H11C5,0,0,5,0,11.1v194.4c0,6.1,5,11,11,11h151.2c6.1,0,11-5,11-11V11.1
			C173.3,5,168.3,0,162.2,0L162.2,0z"/>
	</g>
	<path d="M11,213.6c-4.5,0-8.1-3.6-8.1-8.1V11.1C2.9,6.6,6.6,3,11,3h151.2c4.5,0,8.1,3.6,8.1,8.1v194.4c0,4.5-3.6,8.1-8.1,8.1H11z"
		/>
	<path class="st0" d="M11,209.1c-2,0-3.6-1.6-3.6-3.6V11.1c0-2,1.6-3.6,3.6-3.6h151.2c2,0,3.6,1.6,3.6,3.6v194.4
		c0,2-1.6,3.6-3.6,3.6H11z"/>
	<g>
		<path d="M18,48.4l4.3-1.6c1.2,2.7,3.4,4.2,6.2,4.2c2.6,0,4.4-1.8,4.4-4.2c0-3.9-4.4-4.4-8.2-6c-1.7-0.7-5.6-2.4-5.6-7.2
			c0-5.7,3.8-7.8,9-7.8c4,0,6.8,2.3,8.2,5.9l-4,1.2c-0.5-1.1-2.1-2.5-4.2-2.5c-4.1,0-4.5,2.2-4.5,2.9c0,2.7,2.3,3.2,6.1,4.4
			c3.8,1.2,7.9,3,7.9,9.2c0,6.2-5,8.8-9.1,8.8C23.6,55.7,19.9,52.7,18,48.4z"/>
		<polygon points="41.3,26.4 45.8,26.4 45.8,50.9 59.2,50.9 59.2,55.1 41.3,55.1 		"/>
		<polygon points="102.6,55.1 98,36.7 93.6,55.1 89.5,55.1 85.2,26.4 89.9,26.4 92.1,41.5 95.8,26.4 100.3,26.4 104,41.5 
			106.2,26.4 110.9,26.4 106.6,55.1 		"/>
		<polygon points="114.1,26.4 131.1,26.4 131.1,30.9 118.7,30.9 118.7,38 127.1,38 127.1,42.6 118.7,42.6 118.7,50.5 132,50.5 
			132,55.1 114.1,55.1 		"/>
		<path d="M145.9,38c3.6,0,4.2-2.6,4.2-3.5c0-1.3-0.9-3.5-4-3.5h-5.9V38H145.9z M140.2,42.6v12.5h-4.5V26.4h10.4
			c6.6,0,8.6,5.3,8.6,8.1c0,1.1-0.4,5.3-4.5,7.2l5.1,13.5h-5l-4.6-12.5H140.2z"/>
	</g>
	<g>
		<polygon points="27.1,100.1 22.6,100.1 22.6,75.4 16,75.4 16,71.4 33.8,71.4 33.8,75.4 27.1,75.4 		"/>
		<path d="M47.3,83c3.6,0,4.2-2.6,4.2-3.5c0-1.3-0.9-3.5-4-3.5h-5.9V83H47.3z M41.6,87.6v12.5h-4.5V71.4h10.4c6.6,0,8.6,5.3,8.6,8.1
			c0,1.1-0.4,5.3-4.5,7.2l5.1,13.5h-5l-4.6-12.5H41.6z"/>
		<path d="M67.8,87.4h5.8l-2.8-8.1L67.8,87.4z M75.2,92.1h-9l-2.8,8.1h-4.9l10-28.8H73l10,28.8H78L75.2,92.1z"/>
		<polygon points="90.7,83 99.1,83 99.1,87.6 90.7,87.6 90.7,100.1 86.2,100.1 86.2,71.4 104,71.4 104,75.9 90.7,75.9 		"/>
		<polygon points="111.8,83 120.2,83 120.2,87.6 111.8,87.6 111.8,100.1 107.3,100.1 107.3,71.4 125.1,71.4 125.1,75.9 111.8,75.9 
					"/>
		<rect x="128.4" y="71.4" width="4.6" height="28.8"/>
		<path d="M137.7,85.7c0-4,0.8-14.8,10.6-14.8c4.2,0,7,1.7,9,5.9l-4.2,1.8c-1.5-2.1-2.2-3-4.7-3c-6,0-6,8.4-6,10.2
			c0,1.8-0.1,10.3,6.2,10.3c2.2,0,3.5-1.3,4.4-3.3l4.3,1.6c-1.6,4-4.3,6.4-8.7,6.4C138.3,100.7,137.7,89.2,137.7,85.7z"/>
	</g>
	<g>
		<path d="M49.2,131.5l-3,3.7v9.9h-4.6v-28.8h4.6v11.4l9.1-11.4h5.9l-8.9,11.2l9.5,17.6h-5.3L49.2,131.5z"/>
		<path d="M66.6,116.4h17v4.5H71.2v7.1h8.4v4.6h-8.4v7.9h13.3v4.6H66.6V116.4z"/>
		<path d="M89.4,116.4h17v4.5H93.9v7.1h8.4v4.6h-8.4v7.9h13.3v4.6H89.4V116.4z"/>
		<path d="M122,132.6h-5.4v12.5h-4.5v-28.8H123c6.8,0,8.7,5.5,8.7,8.1C131.7,126.2,130.8,132.6,122,132.6z M116.7,128h6.4
			c3.6,0,4-2.6,4-3.5c0-1.4-1-3.5-3.8-3.5h-6.6V128z"/>
	</g>
	<g>
		<path d="M39.6,177.6v12.5h-4.5v-28.8h10.4c6.6,0,8.6,5.3,8.6,8.1c0,1.1-0.4,5.3-4.5,7.2l5.1,13.5h-5l-4.6-12.5H39.6z M45.3,173
			c3.6,0,4.2-2.6,4.2-3.5c0-1.3-0.9-3.5-4-3.5h-5.9v7.1H45.3z"/>
		<path d="M59.6,161.4h4.6v28.8h-4.6V161.4z"/>
		<path d="M80.9,160.8c4.6,0,7.2,1.7,9.2,6.4l-4.3,1.7c-1.2-2.5-2.4-3.4-4.6-3.4c-6.3,0-6,9.6-6,10.3c0,1.1-0.2,10.2,5.4,10.2
			c2.9,0,5.1-1.8,5.1-4.4v-1.2h-5.3v-4.6h9.8v5.8c0,5.3-3.8,9.1-9.1,9.1c-1,0-10.5,0.9-10.5-14.9C70.5,173.5,70.6,160.8,80.9,160.8z
			"/>
		<path d="M111.5,177.6H101v12.5h-4.5v-28.8h4.5V173h10.5v-11.6h4.6v28.8h-4.5V177.6z"/>
		<path d="M131.5,190.1H127v-24.8h-6.6v-4h17.9v4h-6.7V190.1z"/>
	</g>
	<g>
		<path d="M82.4,40.7c0,1,0.2,14.9-10.2,14.9S62,41.8,62,40.7c0-1-0.2-14.9,10.2-14.9S82.4,39.7,82.4,40.7z M72.3,51
			c3.1,0,5.6-2.9,5.6-10.3c0-7.3-2.5-10.3-5.6-10.3c-3.1,0-5.6,2.9-5.6,10.3C66.6,48.1,69.2,51,72.3,51z"/>
	</g>
</g>
</svg>
