<?xml version="1.0" encoding="utf-8"?>
<!-- Generator: Adobe Illustrator 27.7.0, SVG Export Plug-In . SVG Version: 6.00 Build 0)  -->
<svg version="1.1" xmlns="http://www.w3.org/2000/svg" xmlns:xlink="http://www.w3.org/1999/xlink" x="0px" y="0px"
	 viewBox="0 0 259.7 216.5" style="enable-background:new 0 0 259.7 216.5;" xml:space="preserve">
<style type="text/css">
	.st0{fill:#FFFFFF;}
</style>
<g id="Layer_1">
</g>
<g id="For_Sheets">
	<g>
		<g>
			<path class="st0" d="M13.8,216.4c-7.5,0-13.6-6.1-13.6-13.6v-189c0-7.5,6.1-13.6,13.6-13.6H246c7.5,0,13.6,6.1,13.6,13.6v189
				c0,7.5-6.1,13.6-13.6,13.6H13.8z"/>
			<path d="M246,0.2c7.5,0,13.5,6,13.5,13.5v189c0,7.5-6,13.5-13.5,13.5H13.8c-7.5,0-13.5-6-13.5-13.5v-189c0-7.5,6-13.5,13.5-13.5
				H246 M246,0H13.8C6.2,0,0,6.2,0,13.8v189c0,7.6,6.2,13.8,13.8,13.8H246c7.6,0,13.8-6.2,13.8-13.8v-189C259.7,6.2,253.5,0,246,0
				L246,0z"/>
		</g>
		<path d="M13.8,212.7c-5.5,0-9.9-4.4-9.9-9.9v-189c0-5.5,4.4-9.9,9.9-9.9h232.2c5.5,0,9.9,4.4,9.9,9.9v189c0,5.5-4.4,9.9-9.9,9.9
			H13.8z M245.9,207.3c2.5,0,4.5-2,4.5-4.5v-189c0-2.5-2-4.5-4.5-4.5H13.8c-2.5,0-4.5,2-4.5,4.5v189c0,2.5,2,4.5,4.5,4.5H245.9z"/>
		<g>
			<rect x="125.7" y="114.1" transform="matrix(0.866 -0.5 0.5 0.866 -43.5993 88.3599)" width="34.8" height="22.9"/>
			<path d="M148.2,156.9c0.9,0.1,1.8-0.1,2.6-0.6c2.2-1.2,2.9-4,1.6-6.1c-0.3-0.5-0.6-0.9-1.1-1.2l-20.2-16.6l-4.3-25.8
				c-0.1-0.5-0.3-1-0.5-1.5c-1.2-2.2-4-2.9-6.1-1.6c-0.8,0.5-1.4,1.2-1.8,2l-22.6,47.5L148.2,156.9z"/>
		</g>
		<g>
			<path d="M85.6,54.2V25.5h9.1c3.8,0,6.6,3,6.6,7.5c0,2.6-0.7,3.8-3,6.3c2.2,1.8,3.5,4.2,3.5,7.2c0,4.3-3.4,7.9-7.7,7.9H85.6z
				 M89.8,29.5v7.7h4.3c1.9,0,3.1-1.6,3.1-4.2c0-2.5-0.9-3.4-3.1-3.4H89.8z M89.8,50.2h4.1c2.3,0,3.8-1.6,3.8-4.1
				c0-2.8-1.7-4.8-3.8-4.8h-4.1V50.2z"/>
			<path d="M106.7,25.5h13.6v4h-9.4v7.3h6v3.9h-6v9.5h10.5v4h-14.7V25.5z"/>
			<path d="M134.6,54.8c-2.6,0-8.9-0.5-8.9-14.9s6-15,8.6-15c4.2,0,7.3,3,7.5,7.3h-4.2c-0.1-1.9-1.4-3.2-3.4-3.2
				c-1.4,0-4.6,0.4-4.6,10.9s3.5,10.8,4.9,10.8c2.1,0,3.1-1.4,3.1-4.4v-1.9h-3.2v-4h7.4v6C141.8,53.5,137.1,54.8,134.6,54.8z"/>
			<path d="M147.6,25.5h4v28.8h-4V25.5z"/>
			<path d="M162.1,35v19.3h-4.1V25.5h4.1l7.9,17.3V25.5h4.1v28.8h-3.1L162.1,35z"/>
		</g>
		<g>
			<path d="M28.5,83.1l2.9,14.3h-3.9L24.8,84h-2v13.4h-3.6V68.7h5.6c4.5,0,6.8,2.7,6.8,8.1C31.6,79.5,30.7,81.9,28.5,83.1z
				 M27.8,76.6c0-3.3-0.7-4.2-3.2-4.2h-1.8v7.9h2.4C27.2,80.3,27.8,79.4,27.8,76.6z"/>
			<path d="M35.2,68.7H39v28.8h-3.7V68.7z"/>
			<path d="M50.1,68.3c3.3,0,5.4,2,5.7,5.6H52c-0.1-1.2-0.8-1.8-1.8-1.8c-1.8,0-3,1.5-3,11.1s1.2,11.1,3,11.1c1.5,0,1.9-1.8,1.9-3.5
				v-3.4h-1.7v-3.7h5.4v7.2c0,1.9,0.3,7.3-5.7,7.3c-5.2,0-6.7-4-6.7-14.9C43.4,70.3,46.1,68.3,50.1,68.3z"/>
			<path d="M68.9,84h-5.1v13.4h-3.6V68.7h3.6v11.6h5.1V68.7h3.6v28.8h-3.6V84z"/>
			<path d="M82.9,97.4h-3.6V72.4h-3.6v-3.7h11v3.7h-3.8V97.4z"/>
		</g>
		<g>
			<path d="M111,97.4h-3.6V72.4h-3.6v-3.7h11v3.7H111V97.4z"/>
			<path d="M118,90.4V68.7h3.6v22.2c0,2.1,0.9,3.3,2.6,3.3c1.6,0,2.5-1.2,2.5-3.3V68.7h3.6v21.7c0,6-3.2,7.6-6.2,7.6
				C121,98,118,96.2,118,90.4z"/>
			<path d="M144.8,83.1l2.9,14.3h-3.9L141,84h-2v13.4h-3.6V68.7h5.6c4.5,0,6.8,2.7,6.8,8.1C147.8,79.5,147,81.9,144.8,83.1z
				 M144.1,76.6c0-3.3-0.7-4.2-3.2-4.2h-1.8v7.9h2.4C143.5,80.3,144.1,79.4,144.1,76.6z"/>
			<path d="M155.1,80.4v17.1h-3.6V68.7h3.6l5.1,14.3V68.7h3.6v28.8h-3.1L155.1,80.4z"/>
		</g>
		<g>
			<path d="M181,68.7h3.6v25.5h7.3v3.3h-11V68.7z"/>
			<path d="M203.4,89.8h-4.7l-1.6,7.7h-3.7l5.9-28.8h3.7l6,28.8h-3.8L203.4,89.8z M199.5,86h3.1l-1.5-7.6L199.5,86z"/>
			<path d="M215.8,80.4v17.1h-3.6V68.7h3.6l5.1,14.3V68.7h3.6v28.8h-3.1L215.8,80.4z"/>
			<path d="M229.6,68.7h10.5v3.7h-6.9v7.4h4.6v3.8h-4.6v10.1h7.3v3.7h-11V68.7z"/>
		</g>
		<g>
			<path d="M37.1,191h-3.7v-13l-5.9-15.8h3.9l3.9,10.1l3.8-10.1H43L37.1,178V191z"/>
			<path d="M47.1,162.3h3.7V191h-3.7V162.3z"/>
			<path d="M57.1,162.3h10.5v3.7h-6.9v7.4h4.6v3.8h-4.6v10.1h7.3v3.7h-11V162.3z"/>
			<path d="M72.7,162.3h3.6v25.5h7.3v3.3h-11V162.3z"/>
			<path d="M87.7,191v-28.8h5.9c2.4,0,6.4,0.1,6.4,14.3c0,14.2-4,14.5-6.4,14.5H87.7z M91.3,166v21.3h2.3c2.8,0,2.7-4.3,2.7-10.7
				c0-9.5-0.9-10.6-2.7-10.6H91.3z"/>
		</g>
		<g>
			<path d="M168.5,191h-6.9v-28.8h5.2c5.1,0,6.6,1.9,6.6,7.7c0,2.8-0.4,4.3-1.4,5.9c1.3,1.5,1.9,4,1.9,7.4
				C174,188.3,172.1,191,168.5,191z M165.3,166v7.9h2.5c1.6,0,2-0.9,2-3.9c0-2.8-0.6-3.9-2.4-3.9H165.3z M165.3,177.7v9.6h2.8
				c1.7,0,2.2-0.9,2.2-3.8c0-4.5-0.5-5.8-2.3-5.8H165.3z"/>
			<path d="M178.6,162.3h3.7V191h-3.7V162.3z"/>
			<path d="M193.6,177.4l-1.3,2.8V191h-3.6v-28.8h3.6v9.2l4.4-9.2h4.2l-4.7,9.9l5.1,18.9h-3.9L193.6,177.4z"/>
			<path d="M206,162.3h10.5v3.7h-6.9v7.4h4.6v3.8h-4.6v10.1h7.3v3.7h-11V162.3z"/>
			<path d="M228.5,184.9c0-7.2-7.9-9.5-7.9-16.3c0-3.9,2.4-6.8,5.8-6.8c3.5,0,5.4,2.2,5.8,6.8h-3.7c-0.1-2.2-0.7-3.1-2-3.1
				c-1.4,0-2.2,1.2-2.2,3.1c0,2.2,1.2,3,3,5c1.3,1.5,5,5.2,5,11.2c0,2.8-1.8,6.7-6,6.7c-4,0-6.1-2.6-6.3-7.7h3.7
				c0,1.1,0.2,3.9,2.6,3.9C227.6,187.8,228.5,186.7,228.5,184.9z"/>
		</g>
		<g>
			<path d="M124.4,191.1h-3.6V166h-3.6v-3.7h11v3.7h-3.8V191.1z"/>
			<path d="M137.9,191.6c-6.5,0-6.6-8.1-6.6-14.9c0-6.7,0.2-14.8,6.6-14.8c6.5,0,6.6,8.1,6.6,14.8
				C144.5,183.4,144.4,191.6,137.9,191.6z M135.1,176.7c0,5,0.1,11.1,2.8,11.1c2.8,0,2.8-6.1,2.8-11.1c0-5-0.1-11.1-2.8-11.1
				C135.2,165.6,135.1,171.7,135.1,176.7z"/>
		</g>
	</g>
</g>
</svg>
