<?xml version="1.0" encoding="utf-8"?>
<!-- Generator: Adobe Illustrator 27.7.0, SVG Export Plug-In . SVG Version: 6.00 Build 0)  -->
<svg version="1.1" id="For_Sheets" xmlns="http://www.w3.org/2000/svg" xmlns:xlink="http://www.w3.org/1999/xlink" x="0px" y="0px"
	 viewBox="0 0 173.3 216.5" style="enable-background:new 0 0 173.3 216.5;" xml:space="preserve">
<style type="text/css">
	.st0{fill:#FFFFFF;}
</style>
<g>
	<g>
		<path class="st0" d="M11.1,216.4c-6,0-10.9-4.9-10.9-10.9V11.1C0.1,5,5,0.1,11.1,0.1h151.2c6,0,10.9,4.9,10.9,10.9v194.4
			c0,6-4.9,10.9-10.9,10.9H11.1z"/>
		<path d="M162.2,0.2c5.9,0,10.8,4.9,10.8,10.8v194.4c0,5.9-4.9,10.8-10.8,10.8H11c-5.9,0-10.8-4.9-10.8-10.8V11
			C0.2,5.1,5.1,0.2,11,0.2H162.2 M162.2,0H11C5,0,0,5,0,11v194.4c0,6.1,5,11.1,11,11.1h151.2c6.1,0,11-5,11-11.1V11
			C173.3,5,168.3,0,162.2,0L162.2,0z"/>
	</g>
	<path d="M11,213.5c-4.5,0-8.1-3.6-8.1-8.1V11c0-4.5,3.6-8.1,8.1-8.1h151.2c4.5,0,8.1,3.6,8.1,8.1v194.4c0,4.5-3.6,8.1-8.1,8.1H11z"
		/>
	<path class="st0" d="M11,209c-2,0-3.6-1.6-3.6-3.6V11c0-2,1.6-3.6,3.6-3.6h151.2c2,0,3.6,1.6,3.6,3.6v194.4c0,2-1.6,3.6-3.6,3.6H11
		z"/>
	<g>
		<path d="M30.9,55.1h-4.6V30.4h-6.6v-4h17.9v4h-6.7V55.1z"/>
		<path d="M45.2,42.6v12.5h-4.5V26.3h10.4c6.6,0,8.6,5.3,8.6,8.1c0,1.1-0.4,5.3-4.5,7.2l5.1,13.5h-5l-4.6-12.5H45.2z M50.9,38
			c3.6,0,4.2-2.6,4.2-3.5c0-1.3-0.9-3.5-4-3.5h-5.9V38H50.9z"/>
		<path d="M63.7,44.8V26.3h4.5v18.5c0,3.7,2.1,6.2,5.3,6.2c3.1,0,5.3-2.4,5.3-6.2V26.3h4.6v18.5c0,9.1-7,10.8-9.8,10.8
			C70.9,55.7,63.7,54.1,63.7,44.8z"/>
		<path d="M87.7,40.7c0-4,0.8-14.8,10.6-14.8c4.2,0,7,1.7,9,5.9l-4.2,1.8c-1.5-2.1-2.2-3-4.7-3c-6,0-6,8.4-6,10.2
			c0,1.8-0.1,10.3,6.2,10.3c2.2,0,3.5-1.3,4.4-3.3l4.3,1.6c-1.6,4-4.3,6.4-8.7,6.4C88.3,55.7,87.7,44.2,87.7,40.7z"/>
		<path d="M119.4,41.5l-3,3.7v9.9h-4.6V26.3h4.6v11.4l9.1-11.4h5.9l-8.9,11.2l9.5,17.6h-5.3L119.4,41.5z"/>
		<path d="M133.9,48.4l4.3-1.6c1.2,2.7,3.4,4.2,6.2,4.2c2.6,0,4.4-1.8,4.4-4.2c0-3.9-4.4-4.4-8.2-6c-1.7-0.7-5.6-2.4-5.6-7.2
			c0-5.7,3.8-7.8,9-7.8c4,0,6.8,2.3,8.2,5.9l-4,1.2c-0.5-1.1-2.1-2.5-4.2-2.5c-4.1,0-4.5,2.2-4.5,2.9c0,2.7,2.3,3.2,6.1,4.4
			c3.8,1.2,7.9,3,7.9,9.2c0,6.2-5,8.8-9.1,8.8C139.5,55.7,135.9,52.7,133.9,48.4z"/>
	</g>
	<g>
		<path d="M53.2,89.8V71.4h4.5v18.5c0,3.7,2.1,6.2,5.3,6.2c3.1,0,5.3-2.4,5.3-6.2V71.4h4.6v18.5c0,9.1-7,10.8-9.8,10.8
			C60.5,100.7,53.2,99.1,53.2,89.8z"/>
		<path d="M77.7,93.4l4.3-1.6c1.2,2.7,3.4,4.2,6.2,4.2c2.6,0,4.4-1.8,4.4-4.2c0-3.9-4.4-4.4-8.2-6c-1.7-0.7-5.6-2.4-5.6-7.2
			c0-5.7,3.8-7.8,9-7.8c4,0,6.8,2.3,8.2,5.9l-4,1.2c-0.5-1.1-2.1-2.5-4.2-2.5c-4.1,0-4.5,2.2-4.5,2.9c0,2.7,2.3,3.2,6.1,4.4
			c3.8,1.2,7.9,3,7.9,9.2c0,6.2-5,8.8-9.1,8.8C83.3,100.7,79.6,97.7,77.7,93.4z"/>
		<path d="M102.2,71.4h17v4.5h-12.4V83h8.4v4.6h-8.4v7.9h13.3v4.6h-17.9V71.4z"/>
	</g>
	<g>
		<path d="M39.6,132.6v12.5h-4.5v-28.8h10.4c6.6,0,8.6,5.3,8.6,8.1c0,1.1-0.4,5.3-4.5,7.2l5.1,13.5h-5l-4.6-12.5H39.6z M45.3,128
			c3.6,0,4.2-2.6,4.2-3.5c0-1.3-0.9-3.5-4-3.5h-5.9v7.1H45.3z"/>
		<path d="M59.6,116.4h4.6v28.8h-4.6V116.4z"/>
		<path d="M80.9,115.8c4.6,0,7.2,1.7,9.2,6.4l-4.3,1.7c-1.2-2.5-2.4-3.4-4.6-3.4c-6.3,0-6,9.6-6,10.3c0,1.1-0.2,10.2,5.4,10.2
			c2.9,0,5.1-1.8,5.1-4.4v-1.2h-5.3v-4.6h9.8v5.8c0,5.3-3.8,9.1-9.1,9.1c-1,0-10.5,0.9-10.5-14.9C70.5,128.5,70.6,115.8,80.9,115.8z
			"/>
		<path d="M111.5,132.6H101v12.5h-4.5v-28.8h4.5V128h10.5v-11.6h4.6v28.8h-4.5V132.6z"/>
		<path d="M131.5,145.2H127v-24.8h-6.6v-4h17.9v4h-6.7V145.2z"/>
	</g>
	<g>
		<path d="M40.3,161.4h4.5v24.6h13.3v4.2H40.3V161.4z"/>
		<path d="M76.6,182.1h-9l-2.8,8.1h-4.9l10-28.8h4.6l10,28.8h-4.9L76.6,182.1z M69.2,177.4H75l-2.8-8.1L69.2,177.4z"/>
		<path d="M93.2,170.6v19.5h-4.5v-28.8h4.5l10.5,18.4v-18.4h4.6v28.8h-4L93.2,170.6z"/>
		<path d="M115.2,161.4h17v4.5h-12.4v7.1h8.4v4.6h-8.4v7.9H133v4.6h-17.9V161.4z"/>
	</g>
</g>
</svg>
