<?xml version="1.0" encoding="UTF-8" standalone="no"?>
<!-- Created with Inkscape (http://www.inkscape.org/) -->

<svg
   xmlns:dc="http://purl.org/dc/elements/1.1/"
   xmlns:cc="http://creativecommons.org/ns#"
   xmlns:rdf="http://www.w3.org/1999/02/22-rdf-syntax-ns#"
   xmlns:svg="http://www.w3.org/2000/svg"
   xmlns="http://www.w3.org/2000/svg"
   xmlns:sodipodi="http://sodipodi.sourceforge.net/DTD/sodipodi-0.dtd"
   xmlns:inkscape="http://www.inkscape.org/namespaces/inkscape"
   width="225.1875"
   height="281.125"
   id="svg4779"
   version="1.1"
   inkscape:version="0.48.2 r9819"
   sodipodi:docname="MUTCD R4-5.svg">
  <defs
     id="defs4781" />
  <sodipodi:namedview
     id="base"
     pagecolor="#ffffff"
     bordercolor="#666666"
     borderopacity="1.0"
     inkscape:pageopacity="0.0"
     inkscape:pageshadow="2"
     inkscape:zoom="0.9899495"
     inkscape:cx="131.20494"
     inkscape:cy="201.92175"
     inkscape:document-units="px"
     inkscape:current-layer="layer1"
     showgrid="false"
     inkscape:window-width="1280"
     inkscape:window-height="1004"
     inkscape:window-x="-8"
     inkscape:window-y="-8"
     inkscape:window-maximized="1"
     fit-margin-top="0"
     fit-margin-left="0"
     fit-margin-right="0"
     fit-margin-bottom="0" />
  <metadata
     id="metadata4784">
    <rdf:RDF>
      <cc:Work
         rdf:about="">
        <dc:format>image/svg+xml</dc:format>
        <dc:type
           rdf:resource="http://purl.org/dc/dcmitype/StillImage" />
        <dc:title></dc:title>
      </cc:Work>
    </rdf:RDF>
  </metadata>
  <g
     inkscape:label="Layer 1"
     inkscape:groupmode="layer"
     id="layer1"
     transform="translate(-2264.9063,2403.0313)">
    <path
       inkscape:connector-curvature="0"
       d="m 2489.3524,-2136.6376 c 0,7.69 -6.2913,13.9812 -13.9813,13.9812 l -195.7425,0 c -7.6887,0 -13.9812,-6.2912 -13.9812,-13.9812 l 0,-251.6675 c 0,-7.69 6.2925,-13.9825 13.9812,-13.9825 l 195.7425,0 c 7.69,0 13.9813,6.2925 13.9813,13.9825 l 0,251.6675 z"
       style="fill:#ffffff;fill-opacity:1;fill-rule:nonzero;stroke:#000000;stroke-width:1.5;stroke-miterlimit:4;stroke-opacity:1;stroke-dasharray:none"
       id="path7124" />
    <path
       inkscape:connector-curvature="0"
       d="m 2475.3707,-2398.7919 -195.7412,0 c -5.7675,0 -10.4863,4.7188 -10.4863,10.4863 l 0,251.6675 c 0,5.7675 4.7188,10.4862 10.4863,10.4862 l 195.7412,0 c 5.7675,0 10.4863,-4.7187 10.4863,-10.4862 l 0,-251.6675 c 0,-5.7675 -4.7188,-10.4863 -10.4863,-10.4863 m 4.6613,262.1538 c 0,2.5637 -2.0975,4.6612 -4.6613,4.6612 l -195.7412,0 c -2.5637,0 -4.6612,-2.0975 -4.6612,-4.6612 l 0,-251.6675 c 0,-2.5638 2.0975,-4.66 4.6612,-4.66 l 195.7412,0 c 2.5638,0 4.6613,2.0962 4.6613,4.66 l 0,251.6675 z"
       style="fill:#000000;fill-opacity:1;fill-rule:nonzero;stroke:none"
       id="path7132" />
    <path
       inkscape:connector-curvature="0"
       d="m 2303.3255,-2361.9797 0,30.765 -6.5725,0 0,-30.765 -10.7162,0 0,-6.5175 28.0037,0 0,6.5175 -10.715,0 z"
       style="fill:#000000;fill-opacity:1;fill-rule:nonzero;stroke:none"
       id="path7136" />
    <path
       inkscape:connector-curvature="0"
       d="m 2343.2425,-2331.2146 -5.965,-14.6375 -9.9425,0 0,14.6375 -6.6838,0 0,-37.2825 17.675,0 c 6.2975,0 11.6,4.86 11.6,11.3775 0,4.1987 -2.21,7.8437 -6.0212,9.9425 l 6.7937,15.9625 -7.4562,0 z m -5.3575,-30.6 -10.55,0 0,9.28 10.55,0 c 3.3137,0 5.3575,-1.8225 5.3575,-4.585 0,-2.8713 -2.0438,-4.695 -5.3575,-4.695"
       style="fill:#000000;fill-opacity:1;fill-rule:nonzero;stroke:none"
       id="path7140" />
    <path
       inkscape:connector-curvature="0"
       d="m 2373.6757,-2330.5517 c -8.7825,0 -15.0237,-6.5725 -15.0237,-15.6863 l 0,-22.26 6.6837,0 0,22.5913 c 0,5.0812 3.8663,8.5612 8.34,8.5612 4.4188,0 8.395,-3.3687 8.395,-8.5612 l 0,-22.5913 6.6288,0 0,22.26 c 0,9.1138 -6.2413,15.6863 -15.0238,15.6863"
       style="fill:#000000;fill-opacity:1;fill-rule:nonzero;stroke:none"
       id="path7144" />
    <path
       inkscape:connector-curvature="0"
       d="m 2413.5536,-2330.5517 c -9.8312,0 -15.8525,-7.7325 -15.8525,-19.3875 0,-11.765 6.0213,-19.2213 15.8525,-19.2213 6.02,0 11.4888,3.0388 14.4163,8.23 l -5.91,3.1488 c -1.9338,-2.8725 -4.805,-4.695 -8.5063,-4.695 -6.7937,0 -9.0025,6.6837 -9.0025,12.4275 0,8.1187 3.3688,12.8137 9.0025,12.8137 3.425,0 5.2475,-1.16 8.5063,-4.695 l 5.91,3.1488 c -2.7625,5.1925 -8.3963,8.23 -14.4163,8.23"
       style="fill:#000000;fill-opacity:1;fill-rule:nonzero;stroke:none"
       id="path7148" />
    <path
       inkscape:connector-curvature="0"
       d="m 2460.1752,-2331.2146 -9.555,-19.3875 -7.015,8.9487 0,10.4388 -6.6837,0 0,-37.2825 6.6837,0 0,16.2387 13.2013,-16.2387 8.6162,0 -9.9425,12.1512 12.3175,25.1313 -7.6225,0 z"
       style="fill:#000000;fill-opacity:1;fill-rule:nonzero;stroke:none"
       id="path7152" />
    <path
       inkscape:connector-curvature="0"
       d="m 2307.0095,-2272.9585 0,-37.2825 6.6837,0 0,31.5388 21.1538,0 0,5.7437 -27.8375,0 z"
       style="fill:#000000;fill-opacity:1;fill-rule:nonzero;stroke:none"
       id="path7156" />
    <path
       inkscape:connector-curvature="0"
       d="m 2368.5976,-2272.9585 -3.645,-8.7825 -16.2387,0 -3.6463,8.7825 -7.3462,0 15.6875,-37.2825 6.7937,0 15.575,37.2825 -7.18,0 z m -11.765,-28.0037 -5.2475,12.5937 10.495,0 -5.2475,-12.5937 z"
       style="fill:#000000;fill-opacity:1;fill-rule:nonzero;stroke:none"
       id="path7160" />
    <path
       inkscape:connector-curvature="0"
       d="m 2406.1564,-2272.9585 -17.785,-25.6287 0,25.6287 -6.5175,0 0,-37.2825 6.5175,0 17.1225,24.5788 0,-24.5788 6.4062,0 0,37.2825 -5.7437,0 z"
       style="fill:#000000;fill-opacity:1;fill-rule:nonzero;stroke:none"
       id="path7164" />
    <path
       inkscape:connector-curvature="0"
       d="m 2421.3176,-2272.9585 0,-37.2825 27.175,0 0,6.6825 -20.3812,0 0,6.905 11.1025,0 0,6.8488 -11.1025,0 0,10.1625 21.0437,0 0,6.6837 -27.8375,0 z"
       style="fill:#000000;fill-opacity:1;fill-rule:nonzero;stroke:none"
       id="path7168" />
    <path
       inkscape:connector-curvature="0"
       d="m 2338.9026,-2214.0392 c -5.1362,0 -9.6662,-1.325 -14.4162,-4.1975 l 3.535,-5.6338 c 3.2587,1.9875 7.07,3.0375 10.8812,3.0375 5.6338,0 9.0038,-2.485 9.0038,-6.6837 0,-1.7113 -0.7188,-6.6825 -7.9538,-6.6825 -3.0937,0 -4.8612,0.3862 -7.6225,1.4362 l -6.6287,-1.7125 1.16,-17.5087 24.855,0 0,6.5175 -18.5575,0 -0.4425,5.4125 c 3.0375,-0.6625 4.86,-0.9388 7.2362,-0.9388 8.505,0 14.6363,5.7438 14.6363,13.4763 0,7.8437 -6.5175,13.4775 -15.6863,13.4775"
       style="fill:#000000;fill-opacity:1;fill-rule:nonzero;stroke:none"
       id="path7172" />
    <path
       inkscape:connector-curvature="0"
       d="m 2377.0176,-2214.0392 c -11.1575,0 -15.7412,-9.555 -15.7412,-19.3875 0,-9.7763 4.75,-19.2213 15.7412,-19.2213 11.1025,0 15.5763,9.6663 15.5763,19.1113 0,9.555 -4.3638,19.4975 -15.5763,19.4975 m 0,-31.925 c -6.6837,0 -9.0587,6.9037 -9.0587,12.4275 0,8.23 3.425,12.815 9.0587,12.815 5.4688,0 8.8925,-5.0825 8.8925,-12.815 0,-7.8425 -3.2587,-12.4275 -8.8925,-12.4275"
       style="fill:#000000;fill-opacity:1;fill-rule:nonzero;stroke:none"
       id="path7176" />
    <path
       inkscape:connector-curvature="0"
       d="m 2416.1026,-2214.0392 c -11.1575,0 -15.7412,-9.555 -15.7412,-19.3875 0,-9.7763 4.75,-19.2213 15.7412,-19.2213 11.1025,0 15.5763,9.6663 15.5763,19.1113 0,9.555 -4.3638,19.4975 -15.5763,19.4975 m 0,-31.925 c -6.6837,0 -9.0587,6.9037 -9.0587,12.4275 0,8.23 3.425,12.815 9.0587,12.815 5.4688,0 8.8925,-5.0825 8.8925,-12.815 0,-7.8425 -3.2587,-12.4275 -8.8925,-12.4275"
       style="fill:#000000;fill-opacity:1;fill-rule:nonzero;stroke:none"
       id="path7180" />
    <path
       inkscape:connector-curvature="0"
       d="m 2320.2116,-2187.0444 0,7.5675 11.6538,0 0,6.7938 -11.6538,0 0,16.2387 -6.7937,0 0,-37.2837 27.8375,0 0,6.6837 -21.0438,0 z"
       style="fill:#000000;fill-opacity:1;fill-rule:nonzero;stroke:none"
       id="path7184" />
    <path
       inkscape:connector-curvature="0"
       d="m 2347.7725,-2156.4447 0,-37.2825 27.175,0 0,6.6825 -20.3813,0 0,6.905 11.1025,0 0,6.8487 -11.1025,0 0,10.1625 21.0438,0 0,6.6838 -27.8375,0 z"
       style="fill:#000000;fill-opacity:1;fill-rule:nonzero;stroke:none"
       id="path7188" />
    <path
       inkscape:connector-curvature="0"
       d="m 2383.232,-2156.4447 0,-37.2825 27.175,0 0,6.6825 -20.3813,0 0,6.905 11.1025,0 0,6.8487 -11.1025,0 0,10.1625 21.0438,0 0,6.6838 -27.8375,0 z"
       style="fill:#000000;fill-opacity:1;fill-rule:nonzero;stroke:none"
       id="path7192" />
    <path
       inkscape:connector-curvature="0"
       d="m 2432.6145,-2187.2099 0,30.765 -6.5725,0 0,-30.765 -10.715,0 0,-6.5175 28.0025,0 0,6.5175 -10.715,0 z"
       style="fill:#000000;fill-opacity:1;fill-rule:nonzero;stroke:none"
       id="path7196" />
  </g>
</svg>
