<?xml version="1.0" encoding="utf-8"?>
<!-- Generator: Adobe Illustrator 27.7.0, SVG Export Plug-In . SVG Version: 6.00 Build 0)  -->
<svg version="1.1" id="For_Sheets" xmlns="http://www.w3.org/2000/svg" xmlns:xlink="http://www.w3.org/1999/xlink" x="0px" y="0px"
	 viewBox="0 0 173.3 216.5" style="enable-background:new 0 0 173.3 216.5;" xml:space="preserve">
<style type="text/css">
	.st0{fill:#FFFFFF;}
	.st1{fill:none;stroke:#000000;stroke-width:0.25;stroke-miterlimit:10;}
	.st2{fill-rule:evenodd;clip-rule:evenodd;}
</style>
<g>
	<g>
		<path class="st0" d="M11.1,216.4c-6,0-10.9-4.9-10.9-10.9V11.1C0.1,5,5,0.1,11.1,0.1h151.2c6,0,10.9,4.9,10.9,10.9v194.4
			c0,6-4.9,10.9-10.9,10.9H11.1z"/>
		<path d="M162.2,0.2c5.9,0,10.8,4.9,10.8,10.8v194.4c0,5.9-4.9,10.8-10.8,10.8H11c-5.9,0-10.8-4.9-10.8-10.8V11
			C0.2,5.1,5.1,0.2,11,0.2H162.2 M162.2,0H11C5,0,0,5,0,11v194.4c0,6.1,5,11.1,11,11.1h151.2c6.1,0,11-5,11-11.1V11
			C173.3,5,168.3,0,162.2,0L162.2,0z"/>
	</g>
	<path class="st1" d="M143.1,94.4"/>
	<path d="M11,213.5c-4.5,0-8.1-3.6-8.1-8.1V11c0-4.5,3.6-8.1,8.1-8.1h151.2c4.5,0,8.1,3.6,8.1,8.1v194.4c0,4.5-3.6,8.1-8.1,8.1H11z
		 M162.2,209c2,0,3.6-1.6,3.6-3.6V11c0-2-1.6-3.6-3.6-3.6H11c-2,0-3.6,1.6-3.6,3.6v194.4c0,2,1.6,3.6,3.6,3.6H162.2z"/>
	<path class="st2" d="M60.3,116.8c-2.1,5.3-7.2,9-13.2,9s-11.1-3.7-13.2-9l0,0c-9.5-24.4-14.8-50.9-14.8-78.7l56,0
		C75,65.9,69.8,92.4,60.3,116.8z"/>
	<path d="M152.3,76.4l-36.9-54.6L78.6,76.4c-0.6,0.9-0.9,1.9-0.9,3c0,3,2.4,5.4,5.4,5.4c0.7,0,1.3-0.1,1.9-0.4l16.1-6v15.4
		c0,6.7-1.1,13.2-3.1,19.5c-2,6.1-4.9,11.8-8.6,17c-5.4,7.6-9.7,16-12.6,24.8c-3,9.2-4.5,18.7-4.5,28.4l0,12.7h28.8v-12.7
		c0-6.7,1.1-13.2,3.1-19.5c2-6.1,4.9-11.8,8.6-17c5.4-7.6,9.7-16,12.6-24.8c3-9.2,4.5-18.7,4.5-28.4V78.5l16.1,6
		c0.6,0.2,1.3,0.4,1.9,0.4c3,0,5.4-2.4,5.4-5.4C153.2,78.3,152.9,77.3,152.3,76.4z"/>
</g>
</svg>
