<?xml version="1.0" encoding="utf-8"?>
<!-- Generator: Adobe Illustrator 27.8.1, SVG Export Plug-In . SVG Version: 6.00 Build 0)  -->
<svg version="1.1" xmlns="http://www.w3.org/2000/svg" xmlns:xlink="http://www.w3.org/1999/xlink" x="0px" y="0px"
	 viewBox="0 0 173.3 216.5" style="enable-background:new 0 0 173.3 216.5;" xml:space="preserve">
<style type="text/css">
	.st0{fill:#FFFFFF;}
</style>
<g id="Layer_1">
</g>
<g id="For_Sheets">
	<g>
		<g>
			<path class="st0" d="M11.1,216.4c-6,0-10.9-4.9-10.9-10.9V11C0.1,5,5,0.1,11.1,0.1h151.2c6,0,10.9,4.9,10.9,10.9v194.4
				c0,6-4.9,10.9-10.9,10.9H11.1z"/>
			<path d="M162.2,0.2c5.9,0,10.8,4.9,10.8,10.8v194.4c0,5.9-4.9,10.8-10.8,10.8H11c-5.9,0-10.8-4.9-10.8-10.8V11
				C0.2,5.1,5.1,0.2,11,0.2H162.2 M162.2,0H11C5,0,0,5,0,11v194.4c0,6.1,5,11.1,11,11.1h151.2c6.1,0,11-5,11-11.1V11
				C173.3,5,168.3,0,162.2,0L162.2,0z"/>
		</g>
		<path d="M11,213.5c-4.5,0-8.1-3.6-8.1-8.1V11c0-4.5,3.6-8.1,8.1-8.1h151.2c4.5,0,8.1,3.6,8.1,8.1v194.4c0,4.5-3.6,8.1-8.1,8.1H11z
			"/>
		<path class="st0" d="M11,209c-2,0-3.6-1.6-3.6-3.6V11c0-2,1.6-3.6,3.6-3.6h151.2c2,0,3.6,1.6,3.6,3.6v194.4c0,2-1.6,3.6-3.6,3.6
			H11z"/>
		<path d="M92.5,75.5c-0.7-0.1-1.4,0.1-2.1,0.5c-1.7,1-2.3,3.2-1.3,4.9c0.2,0.4,0.5,0.7,0.8,1l8.8,7.4l-61.3,35.4L47,141l61.3-35.4
			l2,11.4c0.1,0.4,0.2,0.8,0.4,1.2c1,1.7,3.2,2.3,4.9,1.3c0.7-0.4,1.1-0.9,1.4-1.6l18.7-39.2L92.5,75.5z"/>
		<g>
			<path d="M39.8,40.8L36,45.5v12.4h-5.7v-36H36v14.3l11.4-14.3h7.3l-11.2,14l11.9,22h-6.6L39.8,40.8z"/>
			<path d="M61.6,21.8h21.2v5.7H67.3v8.8h10.5v5.8H67.3V52h16.6v5.8H61.6V21.8z"/>
			<path d="M90.1,21.8h21.2v5.7H95.7v8.8h10.5v5.8H95.7V52h16.6v5.8H90.1V21.8z"/>
			<path d="M130.9,42.2h-6.7v15.7h-5.7v-36h13.6c8.5,0,10.9,6.9,10.9,10.1C143,34.2,141.8,42.2,130.9,42.2z M124.2,36.4h8
				c4.5,0,5-3.3,5-4.4c0-1.7-1.3-4.4-4.8-4.4h-8.2V36.4z"/>
		</g>
		<g>
			<path d="M27.8,179v15.7h-5.7v-36h13c8.3,0,10.7,6.6,10.7,10.1c0,1.3-0.5,6.6-5.6,9l6.3,16.9h-6.2L34.7,179H27.8z M35,173.2
				c4.5,0,5.2-3.3,5.2-4.4c0-1.6-1.2-4.4-5-4.4h-7.4v8.8H35z"/>
			<path d="M52.8,158.7h5.8v36h-5.8V158.7z"/>
			<path d="M79.5,158c5.8,0,9,2.2,11.5,8l-5.4,2.1c-1.5-3.2-3-4.3-5.8-4.3c-7.9,0-7.5,12-7.5,12.9c0,1.4-0.3,12.8,6.7,12.8
				c3.7,0,6.3-2.3,6.3-5.6v-1.5h-6.6v-5.7H91v7.2c0,6.6-4.8,11.4-11.4,11.4c-1.3,0-13.1,1.1-13.1-18.6C66.5,173.9,66.6,158,79.5,158
				z"/>
			<path d="M117.7,179h-13.1v15.7h-5.7v-36h5.7v14.5h13.1v-14.5h5.7v36h-5.7V179z"/>
			<path d="M142.8,194.7h-5.7v-30.9h-8.2v-5.1h22.3v5.1h-8.4V194.7z"/>
		</g>
	</g>
</g>
</svg>
