<?xml version="1.0" encoding="utf-8"?>
<!-- Generator: Adobe Illustrator 27.8.1, SVG Export Plug-In . SVG Version: 6.00 Build 0)  -->
<svg version="1.1" id="For_Sheets" xmlns="http://www.w3.org/2000/svg" xmlns:xlink="http://www.w3.org/1999/xlink" x="0px" y="0px"
	 viewBox="0 0 173.3 216.5" style="enable-background:new 0 0 173.3 216.5;" xml:space="preserve">
<style type="text/css">
	.st0{fill:#FFFFFF;}
</style>
<g>
	<g>
		<path class="st0" d="M11.1,216.4c-6,0-10.9-4.9-10.9-10.9V11C0.1,5,5,0.1,11.1,0.1h151.2c6,0,10.9,4.9,10.9,10.9v194.4
			c0,6-4.9,10.9-10.9,10.9H11.1z"/>
		<path d="M162.2,0.2c5.9,0,10.8,4.9,10.8,10.8v194.4c0,5.9-4.9,10.8-10.8,10.8H11c-5.9,0-10.8-4.9-10.8-10.8V11
			C0.2,5.1,5.1,0.2,11,0.2H162.2 M162.2,0H11C5,0,0,5,0,11v194.4c0,6.1,5,11.1,11,11.1h151.2c6.1,0,11-5,11-11.1V11
			C173.3,5,168.3,0,162.2,0L162.2,0z"/>
	</g>
	<path d="M11,213.5c-4.5,0-8.1-3.6-8.1-8.1V11c0-4.5,3.6-8.1,8.1-8.1h151.2c4.5,0,8.1,3.6,8.1,8.1v194.4c0,4.5-3.6,8.1-8.1,8.1H11z
		 M162.2,209c2,0,3.6-1.6,3.6-3.6V11c0-2-1.6-3.6-3.6-3.6H11c-2,0-3.6,1.6-3.6,3.6v194.4c0,2,1.6,3.6,3.6,3.6H162.2z"/>
	<path d="M80.8,75.5c0.7-0.1,1.4,0.1,2.1,0.5c1.7,1,2.3,3.2,1.3,4.9c-0.2,0.4-0.5,0.7-0.8,1l-8.8,7.4l61.3,35.4l-9.5,16.4L65,105.6
		l-2,11.4c-0.1,0.4-0.2,0.8-0.4,1.2c-1,1.7-3.2,2.3-4.9,1.3c-0.7-0.4-1.1-0.9-1.4-1.6L37.5,78.9L80.8,75.5z"/>
	<g>
		<path d="M39.8,40.8L36,45.5v12.4h-5.7v-36H36v14.3l11.4-14.3h7.3l-11.2,14l11.9,22h-6.6L39.8,40.8z"/>
		<path d="M61.6,21.8h21.2v5.7H67.3v8.8h10.5v5.8H67.3V52h16.6v5.8H61.6V21.8z"/>
		<path d="M90.1,21.8h21.2v5.7H95.7v8.8h10.5v5.8H95.7V52h16.6v5.8H90.1V21.8z"/>
		<path d="M130.9,42.2h-6.7v15.7h-5.7v-36h13.6c8.5,0,10.9,6.9,10.9,10.1C143,34.2,141.8,42.2,130.9,42.2z M124.2,36.4h8
			c4.5,0,5-3.3,5-4.4c0-1.7-1.3-4.4-4.8-4.4h-8.2V36.4z"/>
	</g>
	<g>
		<g>
			<g>
				<path d="M129.8,163.7v30.9h-5.7v-30.9h-8.2v-5.1h22.3v5.1H129.8z"/>
			</g>
		</g>
		<g>
			<g>
				<path d="M62.9,194.6v-36h21.2v5.7H68.6v8.8H79v5.8H68.6v9.9h16.7v5.8H62.9z"/>
			</g>
		</g>
		<g>
			<g>
				<path d="M97,164.3v8.8h10.5v5.8H97v15.7h-5.7v-36h22.3v5.7H97z"/>
			</g>
		</g>
		<g>
			<g>
				<path d="M35.2,194.6v-36h5.7v30.7h16.7v5.3H35.2z"/>
			</g>
		</g>
	</g>
</g>
</svg>
