<?xml version="1.0" encoding="utf-8"?>
<!-- Generator: Adobe Illustrator 27.8.1, SVG Export Plug-In . SVG Version: 6.00 Build 0)  -->
<svg version="1.1" xmlns="http://www.w3.org/2000/svg" xmlns:xlink="http://www.w3.org/1999/xlink" x="0px" y="0px"
	 viewBox="0 0 173.3 216.5" style="enable-background:new 0 0 173.3 216.5;" xml:space="preserve">
<style type="text/css">
	.st0{fill:#FFFFFF;}
</style>
<g id="Layer_1">
</g>
<g id="For_Sheets">
	<g>
		<g>
			<path class="st0" d="M11.1,216.4c-6,0-10.9-4.9-10.9-10.9V11C0.1,5,5,0.1,11.1,0.1h151.2c6,0,10.9,4.9,10.9,10.9v194.4
				c0,6-4.9,10.9-10.9,10.9H11.1z"/>
			<path d="M162.2,0.2c6,0,10.8,4.8,10.8,10.8v194.4c0,6-4.8,10.8-10.8,10.8H11c-6,0-10.8-4.8-10.8-10.8V11c0-6,4.8-10.8,10.8-10.8
				H162.2 M162.2,0H11C5,0,0,5,0,11v194.4c0,6.1,5,11.1,11,11.1h151.2c6.1,0,11-5,11-11.1V11C173.3,5,168.3,0,162.2,0L162.2,0z"/>
		</g>
		<path d="M11,213.5c-4.5,0-8.1-3.6-8.1-8.1V11c0-4.5,3.6-8.1,8.1-8.1h151.2c4.5,0,8.1,3.6,8.1,8.1v194.4c0,4.5-3.6,8.1-8.1,8.1H11z
			"/>
		<path class="st0" d="M11,209c-2,0-3.6-1.6-3.6-3.6V11c0-2,1.6-3.6,3.6-3.6h151.2c2,0,3.6,1.6,3.6,3.6v194.4c0,2-1.6,3.6-3.6,3.6
			H11z"/>
		<g>
			<path d="M39.8,51.6L36,56.3v12.4h-5.7v-36H36v14.3l11.4-14.3h7.3l-11.2,14l11.9,22h-6.6L39.8,51.6z"/>
			<path d="M61.6,32.7h21.2v5.7H67.3v8.8h10.5V53H67.3v9.9h16.6v5.8H61.6V32.7z"/>
			<path d="M90.1,32.7h21.2v5.7H95.7v8.8h10.5V53H95.7v9.9h16.6v5.8H90.1V32.7z"/>
			<path d="M130.9,53h-6.7v15.7h-5.7v-36h13.6c8.5,0,10.9,6.9,10.9,10.1C143,45,141.8,53,130.9,53z M124.2,47.2h8c4.5,0,5-3.3,5-4.4
				c0-1.7-1.3-4.4-4.8-4.4h-8.2V47.2z"/>
		</g>
		<g>
			<path d="M35.2,147.9h5.7v30.7h16.6v5.3H35.2V147.9z"/>
			<path d="M62.9,147.9h21.2v5.7H68.6v8.8H79v5.8H68.6v9.9h16.6v5.8H62.9V147.9z"/>
			<path d="M97,162.4h10.5v5.8H97v15.7h-5.7v-36h22.3v5.7H97V162.4z"/>
			<path d="M129.8,183.9h-5.7v-30.9h-8.2v-5.1h22.3v5.1h-8.4V183.9z"/>
		</g>
		<g>
			<rect x="57.1" y="98.8" width="83.6" height="18.9"/>
		</g>
		<g>
			<path d="M32.7,108.3l35.7,24.5c2.9,2,6.6-0.9,5.4-4.2l-7.4-20.3c0,0,0,0,0,0l7.4-20.3c1.2-3.3-2.5-6.2-5.4-4.2L32.7,108.3
				C32.7,108.2,32.7,108.2,32.7,108.3z"/>
		</g>
	</g>
</g>
</svg>
