<?xml version="1.0" encoding="UTF-8" standalone="no"?>
<!-- Generator: Adobe Illustrator 27.7.0, SVG Export Plug-In . SVG Version: 6.00 Build 0)  -->

<svg
   version="1.1"
   id="For_Sheets"
   x="0px"
   y="0px"
   viewBox="0 0 173.3 216.5"
   style="enable-background:new 0 0 173.3 216.5;"
   xml:space="preserve"
   sodipodi:docname="MUTCD_R4-7.svg"
   inkscape:version="1.2.2 (732a01da63, 2022-12-09)"
   xmlns:inkscape="http://www.inkscape.org/namespaces/inkscape"
   xmlns:sodipodi="http://sodipodi.sourceforge.net/DTD/sodipodi-0.dtd"
   xmlns="http://www.w3.org/2000/svg"
   xmlns:svg="http://www.w3.org/2000/svg"><defs
   id="defs23" /><sodipodi:namedview
   id="namedview21"
   pagecolor="#ffffff"
   bordercolor="#111111"
   borderopacity="1"
   inkscape:showpageshadow="0"
   inkscape:pageopacity="0"
   inkscape:pagecheckerboard="1"
   inkscape:deskcolor="#d1d1d1"
   showgrid="false"
   inkscape:zoom="3.0831815"
   inkscape:cx="137.19594"
   inkscape:cy="106.38362"
   inkscape:window-width="1920"
   inkscape:window-height="1057"
   inkscape:window-x="-8"
   inkscape:window-y="-8"
   inkscape:window-maximized="1"
   inkscape:current-layer="g8" />
<style
   type="text/css"
   id="style2">
	.st0{fill:#FFFFFF;}
	.st1{fill:none;stroke:#000000;stroke-width:0.25;stroke-miterlimit:10;}
	.st2{fill-rule:evenodd;clip-rule:evenodd;}
</style>
<g
   id="g18">
	<g
   id="g8">
		<path
   class="st0"
   d="m 11.1,216.4 c -6,0 -10.9,-4.9 -10.9,-10.9 V 11.1 C 0.1,5 5,0.1 11.1,0.1 h 151.2 c 6,0 10.9,4.9 10.9,10.9 v 194.4 c 0,6 -4.9,10.9 -10.9,10.9 H 11.1 Z"
   id="path4" />
		<path
   d="M162.2,0.2c5.9,0,10.8,4.9,10.8,10.8v194.4c0,5.9-4.9,10.8-10.8,10.8H11c-5.9,0-10.8-4.9-10.8-10.8V11    C0.2,5.1,5.1,0.2,11,0.2H162.2 M162.2,0H11C5,0,0,5,0,11v194.4c0,6.1,5,11.1,11,11.1h151.2c6.1,0,11-5,11-11.1V11    C173.3,5,168.3,0,162.2,0L162.2,0z"
   id="path6" />
	</g>
	<path
   class="st1"
   d="M143.1,94.4"
   id="path10" />
	<path
   d="M11,213.5c-4.5,0-8.1-3.6-8.1-8.1V11c0-4.5,3.6-8.1,8.1-8.1h151.2c4.5,0,8.1,3.6,8.1,8.1v194.4c0,4.5-3.6,8.1-8.1,8.1H11z    M162.2,209c2,0,3.6-1.6,3.6-3.6V11c0-2-1.6-3.6-3.6-3.6H11c-2,0-3.6,1.6-3.6,3.6v194.4c0,2,1.6,3.6,3.6,3.6H162.2z"
   id="path12" />
	<path
   class="st2"
   d="m 113.0985,116.8 c 2.1,5.3 7.2,9 13.2,9 6,0 11.1,-3.7 13.2,-9 v 0 c 9.5,-24.4 14.8,-50.9 14.8,-78.7 H 98.298496 c 0.1,27.8 5.300004,54.3 14.800004,78.7 z"
   id="path14" />
	<path
   d="m 21.098496,76.4 36.9,-54.6 36.8,54.6 c 0.6,0.9 0.9,1.9 0.9,3 0,3 -2.4,5.4 -5.4,5.4 -0.7,0 -1.3,-0.1 -1.9,-0.4 l -16.1,-6 v 15.4 c 0,6.7 1.1,13.2 3.1,19.5 2,6.1 4.9,11.8 8.6,17 5.4,7.6 9.7,16 12.6,24.8 3,9.2 4.500004,18.7 4.500004,28.4 v 12.7 H 72.298496 v -12.7 c 0,-6.7 -1.1,-13.2 -3.1,-19.5 -2,-6.1 -4.9,-11.8 -8.6,-17 -5.4,-7.6 -9.7,-16 -12.6,-24.8 -3,-9.2 -4.5,-18.7 -4.5,-28.4 V 78.5 l -16.1,6 c -0.6,0.2 -1.3,0.4 -1.9,0.4 -3,0 -5.4,-2.4 -5.4,-5.4 0.1,-1.2 0.4,-2.2 1,-3.1 z"
   id="path16" />
</g>
</svg>
