<?xml version="1.0" encoding="utf-8"?>
<!-- Generator: Adobe Illustrator 27.8.1, SVG Export Plug-In . SVG Version: 6.00 Build 0)  -->
<svg version="1.1" xmlns="http://www.w3.org/2000/svg" xmlns:xlink="http://www.w3.org/1999/xlink" x="0px" y="0px"
	 viewBox="0 0 130.1 216.5" style="enable-background:new 0 0 130.1 216.5;" xml:space="preserve">
<style type="text/css">
	.st0{fill:#FFFFFF;}
</style>
<g id="Layer_1">
</g>
<g id="For_Sheets">
	<g>
		<g>
			<path class="st0" d="M11.1,216.4c-6,0-10.9-4.9-10.9-10.9V11.1C0.1,5,5,0.1,11.1,0.1h108c6,0,10.9,4.9,10.9,10.9v194.4
				c0,6-4.9,10.9-10.9,10.9H11.1z"/>
			<path d="M119,0.2c6,0,10.8,4.8,10.8,10.8v194.4c0,6-4.8,10.8-10.8,10.8H11c-6,0-10.8-4.8-10.8-10.8V11c0-6,4.8-10.8,10.8-10.8
				H119 M119,0H11C5,0,0,5,0,11v194.4c0,6.1,5,11.1,11,11.1h108c6.1,0,11.1-5,11.1-11.1V11C130.1,5,125.1,0,119,0L119,0z"/>
		</g>
		<path d="M119,2.9H11c-4.5,0-8.1,3.6-8.1,8.1v194.4c0,4.5,3.6,8.1,8.1,8.1h108c4.5,0,8.1-3.6,8.1-8.1V11
			C127.1,6.6,123.5,2.9,119,2.9z M122.6,205.5c0,2-1.6,3.6-3.6,3.6H11c-2,0-3.6-1.6-3.6-3.6V11c0-2,1.6-3.6,3.6-3.6h108
			c2,0,3.6,1.6,3.6,3.6V205.5z"/>
		<g>
			<path d="M79.5,38.9c0,20.5,3.3,40.2,9.5,58.6c2.7,8.2,14.3,8.2,17.1,0c6.1-18.4,9.5-38.1,9.5-58.6H79.5z"/>
		</g>
		<path d="M54.3,60.5v34.4c0,9.4,3,18.4,8.8,26.1c4.1,5.5,7.3,11.5,9.4,18c2.3,6.7,3.4,13.7,3.4,20.7v26.8H54.3v-26.8
			c0-9.4-3-18.3-8.6-25.8c-4.1-5.5-7.3-11.6-9.6-18.1c-2.3-6.8-3.5-13.8-3.5-21V60.5L54.3,60.5z"/>
		<g>
			<path d="M66.7,76.9l-23.3-8.7l-23.3,8.7c-3.7,1.4-7-2.8-4.8-6.1l28.1-40.9l28.1,40.9C73.8,74.1,70.5,78.3,66.7,76.9z"/>
		</g>
	</g>
</g>
</svg>
