<?xml version="1.0" encoding="utf-8"?>
<!-- Generator: Adobe Illustrator 27.8.1, SVG Export Plug-In . SVG Version: 6.00 Build 0)  -->
<svg version="1.1" id="For_Sheets" xmlns="http://www.w3.org/2000/svg" xmlns:xlink="http://www.w3.org/1999/xlink" x="0px" y="0px"
	 viewBox="0 0 173.3 216.5" style="enable-background:new 0 0 173.3 216.5;" xml:space="preserve">
<style type="text/css">
	.st0{fill:#FFFFFF;}
</style>
<g>
	<g>
		<path class="st0" d="M11.1,216.4c-6,0-10.9-4.9-10.9-10.9V11C0.1,5,5,0.1,11.1,0.1h151.2c6,0,10.9,4.9,10.9,10.9v194.4
			c0,6-4.9,10.9-10.9,10.9H11.1z"/>
		<path d="M162.2,0.2c5.9,0,10.8,4.9,10.8,10.8v194.4c0,5.9-4.9,10.8-10.8,10.8H11c-5.9,0-10.8-4.9-10.8-10.8V11
			C0.2,5.1,5.1,0.2,11,0.2H162.2 M162.2,0H11C5,0,0,5,0,11v194.4c0,6.1,5,11.1,11,11.1h151.2c6.1,0,11-5,11-11.1V11
			C173.3,5,168.3,0,162.2,0L162.2,0z"/>
	</g>
	<path d="M11,213.5c-4.5,0-8.1-3.6-8.1-8.1V11c0-4.5,3.6-8.1,8.1-8.1h151.2c4.5,0,8.1,3.6,8.1,8.1v194.4c0,4.5-3.6,8.1-8.1,8.1H11z
		 M162.2,209c2,0,3.6-1.6,3.6-3.6V11c0-2-1.6-3.6-3.6-3.6H11c-2,0-3.6,1.6-3.6,3.6v194.4c0,2,1.6,3.6,3.6,3.6H162.2z"/>
	<g>
		<path d="M67.2,90.3H73v36h-5.8V90.3z"/>
		<path d="M87.3,101.9v24.4h-5.7v-36h5.7l13.1,23v-23h5.7v36h-5.1L87.3,101.9z"/>
	</g>
	<g>
		<path d="M28.7,153.7h5.7v30.7H51v5.3H28.7V153.7z"/>
		<path d="M74.1,179.6H62.8l-3.6,10.1h-6.1l12.5-36h5.7l12.4,36h-6.1L74.1,179.6z M64.8,173.8h7.2l-3.6-10.1L64.8,173.8z"/>
		<path d="M94.8,165.3v24.4h-5.7v-36h5.7l13.1,23v-23h5.7v36h-5.1L94.8,165.3z"/>
		<path d="M122.3,153.7h21.2v5.7H128v8.8h10.5v5.8H128v9.9h16.6v5.8h-22.3V153.7z"/>
	</g>
	<g>
		<path d="M28.8,54.3l5.4-2c1.5,3.4,4.3,5.3,7.7,5.3c3.3,0,5.6-2.3,5.6-5.3c0-4.8-5.6-5.5-10.2-7.4c-2.1-0.9-6.9-3-6.9-9
			c0-7.1,4.8-9.7,11.2-9.7c5,0,8.5,2.9,10.2,7.3l-5,1.5c-0.8-1.6-2.6-3.2-5.6-3.2c-4.4,0-5.3,2.4-5.3,3.6c0,3.4,2.9,4,7.6,5.5
			c4.8,1.5,9.8,3.7,9.8,11.4c0,7.8-6.3,11-11.4,11C35.8,63.4,31.2,59.8,28.8,54.3z"/>
		<path d="M70.2,62.8h-5.7V31.9h-8.2v-5.1h22.3v5.1h-8.4V62.8z"/>
		<path d="M101.7,52.7H90.4l-3.6,10.1h-6.1l12.5-36h5.7l12.4,36h-6.1L101.7,52.7z M92.4,46.9h7.2l-3.6-10.1L92.4,46.9z"/>
		<path d="M131.9,62.8h-5.7V47.1l-12.7-20.3h6.9l8.6,13.9l8.8-13.9h6.7l-12.6,20.3V62.8z"/>
	</g>
</g>
</svg>
