<?xml version="1.0" encoding="utf-8"?>
<!-- Generator: Adobe Illustrator 27.8.1, SVG Export Plug-In . SVG Version: 6.00 Build 0)  -->
<svg version="1.1" id="For_Sheets" xmlns="http://www.w3.org/2000/svg" xmlns:xlink="http://www.w3.org/1999/xlink" x="0px" y="0px"
	 viewBox="0 0 86.9 130.1" style="enable-background:new 0 0 86.9 130.1;" xml:space="preserve">
<style type="text/css">
	.st0{fill:#FFFFFF;}
	.st1{fill:#BF311A;}
</style>
<g>
	<g>
		<path class="st0" d="M11.1,130c-6,0-10.9-4.9-10.9-10.9v-108C0.1,5,5,0.1,11.1,0.1h64.8c6,0,10.9,4.9,10.9,10.9v108
			c0,6-4.9,10.9-10.9,10.9H11.1z"/>
		<path d="M75.9,0.2c5.9,0,10.8,4.9,10.8,10.8v108c0,5.9-4.9,10.8-10.8,10.8H11.1c-5.9,0-10.8-4.9-10.8-10.8v-108
			c0-5.9,4.9-10.8,10.8-10.8H75.9 M75.9,0H11.1C5,0,0,5,0,11.1v108c0,6.1,5,11,11.1,11h64.8c6.1,0,11-5,11-11v-108
			C86.9,5,81.9,0,75.9,0L75.9,0z"/>
	</g>
	<path class="st1" d="M11.1,127.2c-4.5,0-8.1-3.6-8.1-8.1v-108C3,6.6,6.6,3,11.1,3h64.8c4.5,0,8.1,3.6,8.1,8.1v108
		c0,4.5-3.6,8.1-8.1,8.1H11.1z"/>
	<path class="st0" d="M63,30.4c-2.4,0-4.5,0.7-6.4,1.9l-4.2-5.6l0.5-2c2.6-0.2,4.1-1.2,4-2.2c-0.1-0.9-2.7-0.2-5.6-0.2
		c-0.8,0-5,0-5,0.8c0,0.8,2.7,1.4,4.6,1.6l-0.3,1.2h-17c0.4-1.2,0.7-2.3,0.9-3.1c0.2-0.7,0.4-1.3,0.5-1.5l-1.2-0.9l0.6-0.6H39v-1.5
		h-5.2l-2.2,2.2l1.4,1.1c-0.7,2.2-2.2,7.3-3.2,10.4c-1.8-1-3.8-1.6-6-1.6c-6.6,0-11.9,5.3-11.9,11.9c0,6.6,5.3,11.9,11.9,11.9
		s11.9-5.3,11.9-11.9c0-3.7-1.7-7-4.3-9.2c0.1-0.4,0.3-0.8,0.4-1.2l12.8,14c0,0,0,0.1,0,0.1c0,0.8,0.6,1.4,1.4,1.4l0.9,3.4H46v0.9
		h2.9v-0.9h-1.2l-1-3.6c0.2-0.1,0.4-0.3,0.5-0.5l4.3-0.9c1.5,4.9,6,8.5,11.4,8.5c6.6,0,11.9-5.3,11.9-11.9
		C75,35.7,69.6,30.4,63,30.4z M33.6,42.3c0,5.3-4.3,9.7-9.7,9.7c-5.3,0-9.7-4.3-9.7-9.7c0-5.3,4.3-9.7,9.7-9.7
		c1.9,0,3.7,0.5,5.2,1.5c-1.2,2.6-3.5,5.4-5.2,6.9c-0.7,0-1.3,0.6-1.3,1.3c0,0.7,0.6,1.3,1.3,1.3c0.6,0,1.2-0.5,1.3-1.1
		c0.8-0.8,1.9-1.9,2.9-3.2c0.8-1,1.8-2.4,2.5-3.9C32.4,37.1,33.6,39.6,33.6,42.3z M45.8,43.4l-0.6-2.2h0.9v-0.9h-2.9v0.9h1.2
		l0.6,2.2L32.5,29.8c0.2-0.6,0.4-1.3,0.6-2h17L45.8,43.4z M51.2,43.9l-3.8,0.8L51.8,29l3.3,4.4c-2.5,2.2-4,5.4-4,8.9
		C51.1,42.9,51.1,43.4,51.2,43.9z M53.4,42.3c0-2.8,1.2-5.4,3.1-7.1l4.9,6.5l-8,1.7C53.4,43.1,53.4,42.7,53.4,42.3z M63,52
		c-4.3,0-8-2.8-9.2-6.7l8.6-1.9c0.2,0.1,0.4,0.2,0.6,0.2c0.7,0,1.3-0.6,1.3-1.3c0-0.6-0.4-1.1-1-1.2l-5.3-7c1.5-0.9,3.2-1.4,5-1.4
		c5.3,0,9.7,4.3,9.7,9.7C72.7,47.7,68.4,52,63,52z"/>
	<g>
		<path class="st0" d="M18.5,86.6l-1.7-9.4l-1.7,9.4h-2.3l-2.9-18h2.5l1.5,9.6l1.8-9.6h2l1.7,9.6l1.6-9.6h2.5l-2.9,18H18.5z"/>
		<path class="st0" d="M31.2,78.2h-2.5v8.5h-2.6v-18h5.4c2.8,0,4.7,1.9,4.7,4.8c0,2.1-0.9,3.7-2.6,4.4l2.6,8.8h-2.6L31.2,78.2z
			 M28.7,71.2v4.5h2.6c1.5,0,2.3-0.8,2.3-2.3c0-1.4-0.9-2.3-2.3-2.3H28.7z"/>
		<path class="st0" d="M39,77.6c0-9.4,4.4-9.3,5.3-9.3c1,0,5.3-0.1,5.3,9.3c0,9.5-4.3,9.3-5.3,9.3C43.3,87,39,87.1,39,77.6z
			 M44.3,70.9c-0.5,0-2.8-0.1-2.8,6.8c0,6.9,2.3,6.8,2.8,6.8c0.5,0,2.8,0.1,2.8-6.8C47.1,70.8,44.8,70.9,44.3,70.9z"/>
		<path class="st0" d="M55.8,74.6v12.1h-2.6v-18h2.6l4.9,10.8V68.7h2.6v18h-2L55.8,74.6z"/>
		<path class="st0" d="M72.4,87c-1.6,0-5.6-0.3-5.6-9.3s3.8-9.3,5.4-9.3c2.6,0,4.6,1.9,4.7,4.5h-2.6c-0.1-1.2-0.9-2-2.2-2
			c-0.9,0-2.9,0.3-2.9,6.8c0,6.6,2.2,6.8,3,6.8c1.3,0,2-0.9,2-2.8v-1.2h-2v-2.5h4.6v3.7C76.9,86.2,74,87,72.4,87z"/>
	</g>
	<g>
		<path class="st0" d="M32.6,111.8l-1.7-9.4l-1.7,9.4h-2.3l-2.9-18h2.5l1.5,9.6l1.8-9.6h2l1.7,9.6l1.6-9.6h2.5l-2.9,18H32.6z"/>
		<path class="st0" d="M46.4,106.9h-3.9l-1.2,4.9h-2.6l4.5-18h2.5l4.5,18h-2.6L46.4,106.9z M43.2,104.4h2.6l-1.3-5.2L43.2,104.4z"/>
		<path class="st0" d="M58.4,111.8h-2.6v-8.1l-4.4-9.9h2.7l3,6.5l3-6.5h2.8l-4.5,9.9V111.8z"/>
	</g>
</g>
</svg>
