<?xml version="1.0" encoding="utf-8"?>
<!-- Generator: Adobe Illustrator 27.8.1, SVG Export Plug-In . SVG Version: 6.00 Build 0)  -->
<svg version="1.1" xmlns="http://www.w3.org/2000/svg" xmlns:xlink="http://www.w3.org/1999/xlink" x="0px" y="0px"
	 viewBox="0 0 216.5 216.5" style="enable-background:new 0 0 216.5 216.5;" xml:space="preserve">
<style type="text/css">
	.st0{fill:#FFFFFF;}
	.st1{fill:#BF311A;}
</style>
<g id="Layer_1">
</g>
<g id="For_Sheets">
	<g>
		<g>
			<path class="st0" d="M13.8,216.4c-7.5,0-13.6-6.1-13.6-13.6v-189c0-7.5,6.1-13.6,13.6-13.6h189c7.5,0,13.6,6.1,13.6,13.6v189
				c0,7.5-6.1,13.6-13.6,13.6H13.8z"/>
			<path d="M202.8,0.2c7.4,0,13.5,6.1,13.5,13.5v189c0,7.4-6.1,13.5-13.5,13.5h-189c-7.4,0-13.5-6.1-13.5-13.5v-189
				c0-7.4,6.1-13.5,13.5-13.5H202.8 M202.8,0h-189C6.2,0,0,6.2,0,13.8v189c0,7.6,6.2,13.8,13.8,13.8h189c7.6,0,13.8-6.2,13.8-13.8
				v-189C216.5,6.2,210.3,0,202.8,0L202.8,0z"/>
		</g>
		<path class="st1" d="M108.2,3.8C50.6,3.8,3.8,50.6,3.8,108.2s46.7,104.4,104.4,104.4s104.4-46.7,104.4-104.4S165.9,3.8,108.2,3.8z
			 M20.1,126.2c-1.2-5.8-1.8-11.8-1.8-18c0-6.2,0.6-12.2,1.8-18h176.4c1.2,5.8,1.8,11.8,1.8,18c0,6.2-0.6,12.2-1.8,18H20.1z"/>
		<g>
			<g>
				<path class="st0" d="M36.9,75.8V47h10.4c7.3,0,9.2,9.6,9.2,13.8c0,10.8-5.6,15-9.2,15H36.9z M46.6,51.6h-5.2v19.6h4.8
					c4.2,0,5.6-5.1,5.6-10.5C51.9,58.1,51.1,51.6,46.6,51.6z"/>
				<path class="st0" d="M82.8,61.4c0,1,0.2,14.9-10.2,14.9S62.3,62.5,62.3,61.4c0-1-0.2-14.9,10.2-14.9S82.8,60.4,82.8,61.4z
					 M72.6,71.7c3.1,0,5.6-2.9,5.6-10.3s-2.5-10.3-5.6-10.3S67,54.1,67,61.4C67,68.8,69.5,71.7,72.6,71.7z"/>
			</g>
			<g>
				<path class="st0" d="M116.1,56.3v19.5h-4.5V47.1h4.5l10.5,18.4V47.1h4.6v28.8h-4L116.1,56.3z"/>
				<path class="st0" d="M158,61.4c0,1,0.2,14.9-10.2,14.9s-10.2-13.9-10.2-14.9s-0.2-14.9,10.2-14.9S158,60.4,158,61.4z
					 M147.8,71.7c3.1,0,5.6-2.9,5.6-10.3c0-7.3-2.5-10.3-5.6-10.3c-3.1,0-5.6,2.9-5.6,10.3C142.2,68.8,144.7,71.7,147.8,71.7z"/>
				<path class="st0" d="M172.9,75.8h-4.6V51.1h-6.6v-4h17.9v4h-6.7V75.8z"/>
			</g>
		</g>
		<g>
			<path class="st0" d="M52.6,140.7h17v4.5H57.2v7.1h8.4v4.6h-8.4v7.9h13.3v4.6H52.6V140.7z"/>
			<path class="st0" d="M79.9,149.9v19.5h-4.5v-28.8h4.5L90.4,159v-18.4H95v28.8h-4L79.9,149.9z"/>
			<path class="st0" d="M110.5,169.4h-4.6v-24.8h-6.6v-4h17.9v4h-6.7V169.4z"/>
			<path class="st0" d="M121.5,140.7h17v4.5H126v7.1h8.4v4.6H126v7.9h13.3v4.6h-17.9V140.7z"/>
			<path class="st0" d="M148.8,156.9v12.5h-4.5v-28.8h10.4c6.6,0,8.6,5.3,8.6,8.1c0,1.1-0.4,5.3-4.5,7.2l5.1,13.5h-5l-4.6-12.5
				H148.8z M154.5,152.3c3.6,0,4.2-2.6,4.2-3.5c0-1.3-0.9-3.5-4-3.5h-5.9v7.1H154.5z"/>
		</g>
	</g>
</g>
</svg>
