<?xml version="1.0" encoding="utf-8"?>
<!-- Generator: Adobe Illustrator 27.9.0, SVG Export Plug-In . SVG Version: 6.00 Build 0)  -->
<svg version="1.1" xmlns="http://www.w3.org/2000/svg" xmlns:xlink="http://www.w3.org/1999/xlink" x="0px" y="0px"
	 viewBox="0 0 216.5 173.3" style="enable-background:new 0 0 216.5 173.3;" xml:space="preserve">
<style type="text/css">
	.st0{fill:#FFFFFF;}
</style>
<g id="Layer_1">
</g>
<g id="For_Sheets">
	<g>
		<g>
			<path class="st0" d="M11,173.2c-6,0-10.9-4.9-10.9-10.9V11.1C0.1,5,5,0.1,11,0.1h194.4c6,0,10.9,4.9,10.9,10.9v151.2
				c0,6-4.9,10.9-10.9,10.9H11z"/>
			<path d="M205.4,0.2c6,0,10.8,4.8,10.8,10.8v151.2c0,6-4.8,10.8-10.8,10.8H11.1c-6,0-10.8-4.8-10.8-10.8V11.1
				c0-6,4.8-10.8,10.8-10.8H205.4 M205.4,0H11.1C5,0,0,5,0,11.1v151.2c0,6.1,5,11.1,11.1,11.1h194.4c6.1,0,11.1-5,11.1-11.1V11.1
				C216.5,5,211.5,0,205.4,0L205.4,0z"/>
		</g>
		<path d="M11,170.4c-4.5,0-8.1-3.6-8.1-8.1V11.1C2.9,6.6,6.6,3,11,3h194.4c4.5,0,8.1,3.6,8.1,8.1v151.2c0,4.5-3.6,8.1-8.1,8.1H11z"
			/>
		<path class="st0" d="M11,165.9c-2,0-3.6-1.6-3.6-3.6V11.1c0-2,1.6-3.6,3.6-3.6h194.4c2,0,3.6,1.6,3.6,3.6v151.2
			c0,2-1.6,3.6-3.6,3.6H11z"/>
		<g>
			<path d="M26.3,46.4h-6.2l-1.9,7.9H14l7.2-28.8h4.1l7.2,28.8h-4.2L26.3,46.4z M21.1,42.3h4.2L23.2,34L21.1,42.3z"/>
			<path d="M36.1,45.9V25.5h4.1v20.7c0,2.7,1.6,4.6,4,4.6c2.2,0,3.8-1.8,3.8-4.6V25.5h4.1v20.5c0,6.6-5.1,8.8-8,8.8
				C41.6,54.8,36.1,53,36.1,45.9z"/>
			<path d="M65.3,54.2h-4.2v-25h-5.3v-3.8h14.7v3.8h-5.3V54.2z"/>
			<path d="M86.2,41.2h-7.9v13h-4.1V25.5h4.1v11.7h7.9V25.5h4.1v28.8h-4.1V41.2z"/>
			<path d="M95.5,39.8c0-15.1,7-14.8,8.5-14.8s8.5-0.2,8.5,14.8c0,15.2-6.9,15-8.5,15S95.5,55,95.5,39.8z M104,29
				c-0.8,0-4.5-0.2-4.5,10.8c0,11.1,3.7,10.9,4.5,10.9c0.8,0,4.5,0.2,4.5-10.9C108.5,28.8,104.8,29,104,29z"/>
			<path d="M125.8,40.7h-3.9v13.5h-4.1V25.5h8.6c4.5,0,7.6,3,7.6,7.7c0,3.4-1.4,6-4.1,7l4.1,14.1h-4.2L125.8,40.7z M121.8,29.5v7.3
				h4.2c2.4,0,3.7-1.3,3.7-3.6c0-2.2-1.5-3.6-3.7-3.6H121.8z"/>
			<path d="M138.2,25.5h4v28.8h-4V25.5z"/>
			<path d="M146.7,49.8l10.9-20.3h-9.8v-4h15v2.6L151,50.3h11.8v3.9h-16.1V49.8z"/>
			<path d="M167.2,25.5h13.6v4h-9.4v7.3h6v3.9h-6v9.5h10.5v4h-14.7V25.5z"/>
			<path d="M186.3,54.2V25.5h8.2c1.8,0,7.9,0.1,7.9,14.3c0,13-5.7,14.5-7.6,14.5H186.3z M193.7,29.5h-3.2v20.7h2.9
				c3.4,0,5.1-1.5,5.1-10.2C198.4,29.9,195.9,29.5,193.7,29.5z"/>
		</g>
		<g>
			<path d="M41.2,101l-7.3-28.8h4.2l4.8,18.7l4.8-18.7h4.2L44.4,101H41.2z"/>
			<path d="M55.8,72.3h13.6v4H60v7.3h6v3.9h-6V97h10.5v4H55.8V72.3z"/>
			<path d="M87.4,88h-7.9v13h-4.1V72.3h4.1V84h7.9V72.3h4.1V101h-4.1V88z"/>
			<path d="M97.9,72.3h4V101h-4V72.3z"/>
			<path d="M119.6,79.9c-0.4-2.8-1.5-4.1-3.4-4.1c-3.3,0-4.6,2.6-4.6,10.1c0,8.3,1.4,11.6,5,11.6c2.4,0,3-2,3-4.1h4.2
				c-0.1,4.7-3.1,8.2-7.2,8.2c-6.2,0-8.9-4.9-8.9-15.6c0-9.3,2.9-14.2,8.6-14.2c5.3,0,7.4,4.8,7.5,8.2H119.6z"/>
			<path d="M129.6,72.3h4.2v25h10.5v3.8h-14.7V72.3z"/>
			<path d="M148.3,72.3h13.6v4h-9.4v7.3h6v3.9h-6V97H163v4h-14.7V72.3z"/>
			<path d="M174.7,82.7c3.1,2,7.9,4.7,7.9,10.4c0,4.7-3.6,8.4-8,8.4c-5.1,0-8.1-4.3-8.1-9h4.1c0,2.5,1.2,5,4.1,5
				c2.2,0,4.1-2,4.1-4.3c0-6.3-10.8-5.9-10.8-13.9c0-4.1,3.2-7.5,7.4-7.5c4.1,0,7.2,3.1,7.3,7.5h-4c-0.1-2-1.5-3.3-3.3-3.3
				c-1.9,0-3.4,1.4-3.4,3.3C171.8,81.1,172.8,81.6,174.7,82.7z"/>
		</g>
		<g>
			<path d="M78.4,133.4c0,1,0.2,14.9-10.2,14.9s-10.2-13.9-10.2-14.9s-0.2-14.9,10.2-14.9S78.4,132.4,78.4,133.4z M68.2,143.7
				c3.1,0,5.6-2.9,5.6-10.3c0-7.3-2.5-10.3-5.6-10.3c-3.1,0-5.6,2.9-5.6,10.3C62.6,140.8,65.1,143.7,68.2,143.7z"/>
			<path d="M90.5,128.3v19.5H86V119h4.5l10.5,18.4V119h4.6v28.8h-4L90.5,128.3z"/>
			<path d="M113.9,119h4.5v24.6h13.3v4.2h-17.9V119z"/>
			<path d="M148.5,147.8H144v-12.5L133.8,119h5.5l6.9,11.1l7-11.1h5.4l-10.1,16.3V147.8z"/>
		</g>
	</g>
</g>
</svg>
