<?xml version="1.0" encoding="utf-8"?>
<!-- Generator: Adobe Illustrator 27.9.0, SVG Export Plug-In . SVG Version: 6.00 Build 0)  -->
<svg version="1.1" xmlns="http://www.w3.org/2000/svg" xmlns:xlink="http://www.w3.org/1999/xlink" x="0px" y="0px"
	 viewBox="0 0 173.3 86.9" style="enable-background:new 0 0 173.3 86.9;" xml:space="preserve">
<style type="text/css">
	.st0{fill:#FFFFFF;}
</style>
<g id="Layer_1">
</g>
<g id="For_Sheets">
	<g>
		<g>
			<path class="st0" d="M11.1,86.8c-6,0-10.9-4.9-10.9-10.9V11.1C0.1,5,5,0.1,11.1,0.1h151.2c6,0,10.9,4.9,10.9,10.9v64.8
				c0,6-4.9,10.9-10.9,10.9H11.1z"/>
			<path d="M162.2,0.2c6,0,10.8,4.8,10.8,10.8v64.8c0,6-4.8,10.8-10.8,10.8H11c-6,0-10.8-4.8-10.8-10.8V11c0-6,4.8-10.8,10.8-10.8
				H162.2 M162.2,0H11C5,0,0,5,0,11v64.8c0,6.1,5,11,11,11h151.2c6.1,0,11-5,11-11V11C173.3,5,168.3,0,162.2,0L162.2,0z"/>
		</g>
		<path d="M162.2,2.9H11c-4.5,0-8.1,3.6-8.1,8.1v64.8c0,4.5,3.6,8.1,8.1,8.1h151.2c4.5,0,8.1-3.6,8.1-8.1V11
			C170.3,6.6,166.7,2.9,162.2,2.9z M165.8,75.8c0,2-1.6,3.6-3.6,3.6H11c-2,0-3.6-1.6-3.6-3.6V11c0-2,1.6-3.6,3.6-3.6h151.2
			c2,0,3.6,1.6,3.6,3.6V75.8z"/>
		<g>
			<path d="M72.7,23.4V38h-3.4V16.4h3.4l7.9,13.8V16.4H84V38h-3L72.7,23.4z"/>
			<path d="M104.1,27.2c0,0.8,0.2,11.2-7.7,11.2S88.7,28,88.7,27.2s-0.2-11.2,7.7-11.2S104.1,26.5,104.1,27.2z M96.4,34.9
				c2.3,0,4.2-2.2,4.2-7.7s-1.9-7.7-4.2-7.7c-2.3,0-4.2,2.2-4.2,7.7C92.2,32.7,94.1,34.9,96.4,34.9z"/>
		</g>
		<g>
			<path d="M18.5,61v9.5h-3.1V48.8h6.4c3.4,0,5.7,2.4,5.7,6.1c0,3.9-2,6.1-5.7,6.1H18.5z M18.5,58h3.2c1.8,0,2.8-1.1,2.8-3.1
				c0-1.8-1.1-3-2.8-3h-3.2V58z"/>
			<path d="M30.1,48.8h10.2v3h-7.1v5.5h4.5v3h-4.5v7.1h7.9v3h-11V48.8z"/>
			<path d="M43.3,70.4V48.8h6.2c1.3,0,5.9,0.1,5.9,10.8c0,9.8-4.3,10.8-5.7,10.8H43.3z M48.8,51.9h-2.4v15.5h2.2
				c2.5,0,3.8-1.1,3.8-7.7C52.4,52.2,50.5,51.9,48.8,51.9z"/>
			<path d="M58,48.8h10.2v3h-7.1v5.5h4.5v3h-4.5v7.1H69v3H58V48.8z"/>
			<path d="M76.8,56.7c2.4,1.5,5.9,3.6,5.9,7.8c0,3.5-2.7,6.3-6,6.3c-3.8,0-6.1-3.2-6.1-6.7h3c0,1.8,0.9,3.7,3,3.7
				c1.7,0,3-1.5,3-3.3c0-4.7-8.1-4.4-8.1-10.5c0-3.1,2.4-5.6,5.6-5.6c3,0,5.4,2.3,5.5,5.6h-3c-0.1-1.5-1.1-2.5-2.5-2.5
				c-1.4,0-2.6,1.1-2.6,2.5C74.6,55.5,75.4,55.8,76.8,56.7z"/>
			<path d="M90.9,70.4h-3.1V51.7h-4v-2.9h11v2.9h-4V70.4z"/>
			<path d="M102.8,60.3h-3v10.2h-3.1V48.8h6.4c3.4,0,5.7,2.3,5.7,5.8c0,2.6-1.1,4.5-3.1,5.2l3.1,10.6h-3.2L102.8,60.3z M99.8,51.9
				v5.5h3.2c1.8,0,2.8-1,2.8-2.7c0-1.7-1.1-2.7-2.8-2.7H99.8z"/>
			<path d="M111,48.8h3v21.6h-3V48.8z"/>
			<path d="M125,64.5h-4.6l-1.4,5.9h-3.1l5.4-21.6h3l5.4,21.6h-3.1L125,64.5z M121.2,61.5h3.1l-1.6-6.2L121.2,61.5z"/>
			<path d="M134.6,56v14.5h-3.1V48.8h3.1l5.9,13v-13h3.1v21.6h-2.3L134.6,56z"/>
			<path d="M152,56.7c2.4,1.5,5.9,3.6,5.9,7.8c0,3.5-2.7,6.3-6,6.3c-3.8,0-6.1-3.2-6.1-6.7h3c0,1.8,0.9,3.7,3,3.7c1.7,0,3-1.5,3-3.3
				c0-4.7-8.1-4.4-8.1-10.5c0-3.1,2.4-5.6,5.6-5.6c3,0,5.4,2.3,5.5,5.6h-3c-0.1-1.5-1.1-2.5-2.5-2.5c-1.4,0-2.6,1.1-2.6,2.5
				C149.8,55.5,150.6,55.8,152,56.7z"/>
		</g>
	</g>
</g>
</svg>
