<?xml version="1.0" encoding="utf-8"?>
<!-- Generator: Adobe Illustrator 27.9.0, SVG Export Plug-In . SVG Version: 6.00 Build 0)  -->
<svg version="1.1" xmlns="http://www.w3.org/2000/svg" xmlns:xlink="http://www.w3.org/1999/xlink" x="0px" y="0px"
	 viewBox="0 0 216.5 130.1" style="enable-background:new 0 0 216.5 130.1;" xml:space="preserve">
<style type="text/css">
	.st0{fill:#FFFFFF;}
</style>
<g id="Layer_1">
</g>
<g id="For_Sheets">
	<g>
		<g>
			<path class="st0" d="M11,130c-6,0-10.9-4.9-10.9-10.9v-108C0.1,5,5,0.1,11,0.1h194.4c6,0,10.9,4.9,10.9,10.9v108
				c0,6-4.9,10.9-10.9,10.9H11z"/>
			<path d="M205.4,0.2c6,0,10.8,4.8,10.8,10.8v108c0,6-4.8,10.8-10.8,10.8H11.1c-6,0-10.8-4.8-10.8-10.8v-108
				c0-6,4.8-10.8,10.8-10.8H205.4 M205.4,0H11.1C5,0,0,5,0,11.1v108c0,6.1,5,11,11.1,11h194.4c6.1,0,11.1-5,11.1-11v-108
				C216.5,5,211.5,0,205.4,0L205.4,0z"/>
		</g>
		<path d="M205.4,3H11c-4.5,0-8.1,3.6-8.1,8.1v108c0,4.5,3.6,8.1,8.1,8.1h194.4c4.5,0,8.1-3.6,8.1-8.1v-108
			C213.5,6.6,209.9,3,205.4,3z M209,119.1c0,2-1.6,3.6-3.6,3.6H11c-2,0-3.6-1.6-3.6-3.6v-108c0-2,1.6-3.6,3.6-3.6h194.4
			c2,0,3.6,1.6,3.6,3.6V119.1z"/>
		<g>
			<path d="M33.5,66.4v9.5h-3.1V54.3h6.4c3.4,0,5.7,2.4,5.7,6.1c0,3.9-2,6.1-5.7,6.1H33.5z M33.5,63.4h3.2c1.8,0,2.8-1.1,2.8-3.1
				c0-1.8-1.1-3-2.8-3h-3.2V63.4z"/>
			<path d="M46.8,54.3H57v3h-7.1v5.5h4.5v3h-4.5v7.1h7.9v3h-11V54.3z"/>
			<path d="M61.5,75.9V54.3h6.2c1.3,0,5.9,0.1,5.9,10.8c0,9.8-4.3,10.8-5.7,10.8H61.5z M67,57.3h-2.4v15.5h2.2
				c2.5,0,3.8-1.1,3.8-7.7C70.5,57.6,68.7,57.3,67,57.3z"/>
			<path d="M77.9,54.3h10.2v3H81v5.5h4.5v3H81v7.1h7.9v3h-11V54.3z"/>
			<path d="M97.7,62.1c2.4,1.5,5.9,3.6,5.9,7.8c0,3.5-2.7,6.3-6,6.3c-3.8,0-6.1-3.2-6.1-6.7h3c0,1.8,0.9,3.7,3,3.7
				c1.7,0,3-1.5,3-3.3c0-4.7-8.1-4.4-8.1-10.5c0-3.1,2.4-5.6,5.6-5.6c3,0,5.4,2.3,5.5,5.6h-3c-0.1-1.5-1.1-2.5-2.5-2.5
				c-1.4,0-2.6,1.1-2.6,2.5C95.5,60.9,96.3,61.2,97.7,62.1z"/>
			<path d="M112.6,75.9h-3.1V57.1h-4v-2.9h11v2.9h-4V75.9z"/>
			<path d="M125.6,65.7h-3v10.2h-3.1V54.3h6.4c3.4,0,5.7,2.3,5.7,5.8c0,2.6-1.1,4.5-3.1,5.2l3.1,10.6h-3.2L125.6,65.7z M122.7,57.3
				v5.5h3.2c1.8,0,2.8-1,2.8-2.7c0-1.7-1.1-2.7-2.8-2.7H122.7z"/>
			<path d="M135.4,54.3h3v21.6h-3V54.3z"/>
			<path d="M150.6,69.9H146l-1.4,5.9h-3.1l5.4-21.6h3l5.4,21.6h-3.1L150.6,69.9z M146.7,66.9h3.1l-1.6-6.2L146.7,66.9z"/>
			<path d="M161.4,61.4v14.5h-3.1V54.3h3.1l5.9,13v-13h3.1v21.6H168L161.4,61.4z"/>
			<path d="M180.2,62.1c2.4,1.5,5.9,3.6,5.9,7.8c0,3.5-2.7,6.3-6,6.3c-3.8,0-6.1-3.2-6.1-6.7h3c0,1.8,0.9,3.7,3,3.7
				c1.7,0,3-1.5,3-3.3c0-4.7-8.1-4.4-8.1-10.5c0-3.1,2.4-5.6,5.6-5.6c3,0,5.4,2.3,5.5,5.6h-3c-0.1-1.5-1.1-2.5-2.5-2.5
				c-1.4,0-2.6,1.1-2.6,2.5C178.1,60.9,178.8,61.2,180.2,62.1z"/>
		</g>
		<g>
			<g>
				<path d="M30.4,99.2c0-11.3,5.2-11.1,6.4-11.1c1.2,0,6.3-0.2,6.3,11.1c0,11.4-5.2,11.2-6.3,11.2C35.6,110.4,30.4,110.6,30.4,99.2
					z M36.7,91.1c-0.6,0-3.4-0.1-3.4,8.1c0,8.3,2.8,8.2,3.4,8.2c0.6,0,3.4,0.1,3.4-8.2C40.1,91,37.3,91.1,36.7,91.1z"/>
				<path d="M53.5,99.9h-3v10.2h-3.1V88.5h6.4c3.4,0,5.7,2.3,5.7,5.8c0,2.6-1.1,4.5-3.1,5.2l3.1,10.6h-3.2L53.5,99.9z M50.5,91.5
					v5.5h3.2c1.8,0,2.8-1,2.8-2.7c0-1.7-1.1-2.7-2.8-2.7H50.5z"/>
			</g>
			<g>
				<path d="M75.7,110.1V88.5h6.8c2.9,0,4.9,2.3,4.9,5.6c0,2-0.5,2.9-2.3,4.7c1.7,1.4,2.6,3.2,2.6,5.4c0,3.2-2.6,5.9-5.7,5.9H75.7z
					 M78.8,91.5v5.8h3.3c1.4,0,2.3-1.2,2.3-3.2c0-1.9-0.7-2.6-2.3-2.6H78.8z M78.8,107h3.1c1.7,0,2.9-1.2,2.9-3.1
					c0-2.1-1.3-3.6-2.9-3.6h-3.1V107z"/>
				<path d="M91.5,88.5h3v21.6h-3V88.5z"/>
				<path d="M107.8,94.2c-0.3-2.1-1.1-3.1-2.6-3.1c-2.5,0-3.4,2-3.4,7.6c0,6.2,1.1,8.7,3.7,8.7c1.8,0,2.3-1.5,2.3-3.1h3.1
					c-0.1,3.6-2.4,6.1-5.4,6.1c-4.6,0-6.7-3.7-6.7-11.7c0-7,2.2-10.7,6.5-10.7c4,0,5.5,3.6,5.6,6.1H107.8z"/>
				<path d="M122,110.1h-3.1v-9.8l-5.3-11.8h3.3l3.6,7.8l3.6-7.8h3.3l-5.4,11.8V110.1z"/>
				<path d="M138.9,94.2c-0.3-2.1-1.1-3.1-2.6-3.1c-2.5,0-3.4,2-3.4,7.6c0,6.2,1.1,8.7,3.7,8.7c1.8,0,2.3-1.5,2.3-3.1h3.1
					c-0.1,3.6-2.4,6.1-5.4,6.1c-4.6,0-6.7-3.7-6.7-11.7c0-7,2.2-10.7,6.5-10.7c4,0,5.5,3.6,5.6,6.1H138.9z"/>
				<path d="M146.4,88.5h3.1v18.7h7.9v2.9h-11V88.5z"/>
				<path d="M160.4,88.5h10.2v3h-7.1v5.5h4.5v3h-4.5v7.1h7.9v3h-11V88.5z"/>
				<path d="M180.2,96.3c2.4,1.5,5.9,3.6,5.9,7.8c0,3.5-2.7,6.3-6,6.3c-3.8,0-6.1-3.2-6.1-6.7h3c0,1.8,0.9,3.7,3,3.7
					c1.7,0,3-1.5,3-3.3c0-4.7-8.1-4.4-8.1-10.5c0-3.1,2.4-5.6,5.6-5.6c3,0,5.4,2.3,5.5,5.6h-3c-0.1-1.5-1.1-2.5-2.5-2.5
					c-1.4,0-2.6,1.1-2.6,2.5C178.1,95.1,178.8,95.4,180.2,96.3z"/>
			</g>
		</g>
		<g>
			<path d="M93.8,27v14.6h-3.4V20.1h3.4l7.9,13.8V20.1h3.4v21.6h-3L93.8,27z"/>
			<path d="M126.1,30.8c0,0.8,0.2,11.2-7.7,11.2s-7.7-10.4-7.7-11.2s-0.2-11.2,7.7-11.2S126.1,30.1,126.1,30.8z M118.5,38.5
				c2.3,0,4.2-2.2,4.2-7.7s-1.9-7.7-4.2-7.7c-2.3,0-4.2,2.2-4.2,7.7C114.3,36.3,116.2,38.5,118.5,38.5z"/>
		</g>
	</g>
</g>
</svg>
