<?xml version="1.0" encoding="utf-8"?>
<!-- Generator: Adobe Illustrator 27.8.1, SVG Export Plug-In . SVG Version: 6.00 Build 0)  -->
<svg version="1.1" xmlns="http://www.w3.org/2000/svg" xmlns:xlink="http://www.w3.org/1999/xlink" x="0px" y="0px"
	 viewBox="0 0 173.3 173.3" style="enable-background:new 0 0 173.3 173.3;" xml:space="preserve">
<style type="text/css">
	.st0{fill:#FFFFFF;}
</style>
<g id="Layer_1">
</g>
<g id="For_Sheets">
	<g>
		<g>
			<path class="st0" d="M11.1,173.2c-6,0-10.9-4.9-10.9-10.9V11.1C0.1,5,5,0.1,11.1,0.1h151.2c6,0,10.9,4.9,10.9,10.9v151.2
				c0,6-4.9,10.9-10.9,10.9H11.1z"/>
			<path d="M162.2,0.2c6,0,10.8,4.8,10.8,10.8v151.2c0,6-4.8,10.8-10.8,10.8H11c-6,0-10.8-4.8-10.8-10.8V11.1
				c0-6,4.8-10.8,10.8-10.8H162.2 M162.2,0H11C5,0,0,5,0,11.1v151.2c0,6.1,5,11.1,11,11.1h151.2c6.1,0,11-5,11-11.1V11.1
				C173.3,5,168.3,0,162.2,0L162.2,0z"/>
		</g>
		<path d="M162.2,3H11c-4.5,0-8.1,3.6-8.1,8.1v151.2c0,4.5,3.6,8.1,8.1,8.1h151.2c4.5,0,8.1-3.6,8.1-8.1V11.1
			C170.3,6.6,166.7,3,162.2,3z M165.8,162.3c0,2-1.6,3.6-3.6,3.6H11c-2,0-3.6-1.6-3.6-3.6V11.1c0-2,1.6-3.6,3.6-3.6h151.2
			c2,0,3.6,1.6,3.6,3.6V162.3z"/>
		<g>
			<path d="M50.4,84.9L45,101l-5.4-16.2V101h-4.1V72.3h4.1L45,88.4l5.4-16.2h4.1V101h-4.1V84.9z"/>
			<path d="M60.3,86.6c0-15.1,7-14.8,8.5-14.8c1.6,0,8.5-0.2,8.5,14.8c0,15.2-6.9,15-8.5,15C67.3,101.6,60.3,101.8,60.3,86.6z
				 M68.8,75.8c-0.8,0-4.5-0.2-4.5,10.8c0,11.1,3.7,10.9,4.5,10.9c0.8,0,4.5,0.2,4.5-10.9C73.3,75.6,69.6,75.8,68.8,75.8z"/>
			<path d="M90.2,101H86v-25h-5.3v-3.8h14.7v3.8h-5.3V101z"/>
			<path d="M98.9,86.6c0-15.1,7-14.8,8.5-14.8c1.6,0,8.5-0.2,8.5,14.8c0,15.2-6.9,15-8.5,15C105.9,101.6,98.9,101.8,98.9,86.6z
				 M107.4,75.8c-0.8,0-4.5-0.2-4.5,10.8c0,11.1,3.7,10.9,4.5,10.9c0.8,0,4.5,0.2,4.5-10.9C111.9,75.6,108.2,75.8,107.4,75.8z"/>
			<path d="M129.7,87.5h-3.9V101h-4.1V72.3h8.6c4.5,0,7.6,3,7.6,7.7c0,3.4-1.4,6-4.1,7l4.1,14.1h-4.2L129.7,87.5z M125.8,76.3v7.3
				h4.2c2.4,0,3.7-1.3,3.7-3.6c0-2.2-1.5-3.6-3.7-3.6H125.8z"/>
		</g>
		<g>
			<path d="M31.8,147.8l-5.2-28.8h3.7l3.1,16.4l3-16.4h3.7l-5.2,28.8H31.8z"/>
			<path d="M44.2,119.1h10.5v3.7h-6.9v7.4h4.6v3.8h-4.6v10.1h7.3v3.7h-11V119.1z"/>
			<path d="M68.5,134.4h-5.1v13.4h-3.6v-28.8h3.6v11.6h5.1v-11.6h3.6v28.8h-3.6V134.4z"/>
			<path d="M78.4,119.1h3.7v28.8h-3.7V119.1z"/>
			<path d="M94.4,118.7c3.3,0,5.4,2,5.7,5.6h-3.8c-0.1-1.2-0.8-1.8-1.8-1.8c-1.8,0-3,1.5-3,11.1c0,9.6,1.2,11.1,3,11.1
				c1.5,0,1.8-1.8,1.8-3.5h3.8c0,1.9,0.3,7.3-5.7,7.3c-5.2,0-6.7-4-6.7-14.9C87.7,120.7,90.4,118.7,94.4,118.7z"/>
			<path d="M105.5,119.1h3.6v25.5h7.3v3.3h-11V119.1z"/>
			<path d="M120.5,119.1H131v3.7h-6.9v7.4h4.6v3.8h-4.6v10.1h7.3v3.7h-11V119.1z"/>
			<path d="M143,141.7c0-7.2-7.9-9.5-7.9-16.3c0-3.9,2.4-6.8,5.8-6.8c3.5,0,5.4,2.2,5.8,6.8H143c-0.1-2.2-0.7-3.1-2-3.1
				c-1.4,0-2.2,1.2-2.2,3.1c0,2.2,1.2,3,3,5c1.3,1.5,5,5.2,5,11.2c0,2.8-1.8,6.7-6,6.7c-4,0-6.1-2.6-6.3-7.7h3.7
				c0,1.1,0.2,3.9,2.6,3.9C142.1,144.6,143,143.5,143,141.7z"/>
		</g>
		<g>
			<g>
				<path d="M67.4,34.7v19.5h-4.5V25.5h4.5l10.5,18.4V25.5h4.6v28.8h-4L67.4,34.7z"/>
			</g>
			<g>
				<path d="M110.5,39.8c0,1,0.2,14.9-10.2,14.9S90,40.9,90,39.8s-0.2-14.9,10.2-14.9S110.5,38.8,110.5,39.8z M100.3,50.1
					c3.1,0,5.6-2.9,5.6-10.3s-2.5-10.3-5.6-10.3s-5.6,2.9-5.6,10.3C94.7,47.2,97.2,50.1,100.3,50.1z"/>
			</g>
		</g>
	</g>
</g>
</svg>
