<?xml version="1.0" encoding="utf-8"?>
<!-- Generator: Adobe Illustrator 27.9.0, SVG Export Plug-In . SVG Version: 6.00 Build 0)  -->
<svg version="1.1" xmlns="http://www.w3.org/2000/svg" xmlns:xlink="http://www.w3.org/1999/xlink" x="0px" y="0px"
	 viewBox="0 0 173.3 216.5" style="enable-background:new 0 0 173.3 216.5;" xml:space="preserve">
<style type="text/css">
	.st0{fill:#FFFFFF;}
</style>
<g id="Layer_1">
</g>
<g id="For_Sheets">
	<g>
		<g>
			<path class="st0" d="M11.1,216.4c-6,0-10.9-4.9-10.9-10.9V11C0.1,5,5,0.1,11.1,0.1h151.2c6,0,10.9,4.9,10.9,10.9v194.4
				c0,6-4.9,10.9-10.9,10.9H11.1z"/>
			<path d="M162.2,0.2c6,0,10.8,4.8,10.8,10.8v194.4c0,6-4.8,10.8-10.8,10.8H11c-6,0-10.8-4.8-10.8-10.8V11c0-6,4.8-10.8,10.8-10.8
				H162.2 M162.2,0H11C5,0,0,5,0,11v194.4c0,6.1,5,11.1,11,11.1h151.2c6.1,0,11-5,11-11.1V11C173.3,5,168.3,0,162.2,0L162.2,0z"/>
		</g>
		<path d="M162.2,2.9H11c-4.5,0-8.1,3.6-8.1,8.1v194.4c0,4.5,3.6,8.1,8.1,8.1h151.2c4.5,0,8.1-3.6,8.1-8.1V11
			C170.3,6.6,166.7,2.9,162.2,2.9z M165.8,205.4c0,2-1.6,3.6-3.6,3.6H11c-2,0-3.6-1.6-3.6-3.6V11c0-2,1.6-3.6,3.6-3.6h151.2
			c2,0,3.6,1.6,3.6,3.6V205.4z"/>
		<g>
			<path d="M67.4,45.5V65h-4.5V36.2h4.5l10.5,18.4V36.2h4.6V65h-4L67.4,45.5z"/>
			<path d="M110.5,50.6c0,1,0.2,14.9-10.2,14.9S90,51.7,90,50.6s-0.2-14.9,10.2-14.9S110.5,49.6,110.5,50.6z M100.3,60.9
				c3.1,0,5.6-2.9,5.6-10.3s-2.5-10.3-5.6-10.3c-3.1,0-5.6,2.9-5.6,10.3C94.7,58,97.2,60.9,100.3,60.9z"/>
		</g>
		<g>
			<path d="M28.5,180.3l-5.2-28.8H27l3.1,16.4l3-16.4h3.7l-5.2,28.8H28.5z"/>
			<path d="M41.7,151.5h10.5v3.7h-6.9v7.4h4.6v3.8h-4.6v10.1h7.3v3.7h-11V151.5z"/>
			<path d="M66.9,166.8h-5.1v13.4h-3.6v-28.8h3.6v11.6h5.1v-11.6h3.6v28.8h-3.6V166.8z"/>
			<path d="M78.2,151.5h3.7v28.8h-3.7V151.5z"/>
			<path d="M95.2,151.1c3.3,0,5.4,2,5.7,5.6h-3.8c-0.1-1.2-0.8-1.8-1.8-1.8c-1.8,0-3,1.5-3,11.1c0,9.6,1.2,11.1,3,11.1
				c1.5,0,1.8-1.8,1.8-3.5h3.8c0,1.9,0.3,7.3-5.7,7.3c-5.2,0-6.7-4-6.7-14.9C88.5,153.1,91.2,151.1,95.2,151.1z"/>
			<path d="M107.4,151.5h3.6v25.5h7.3v3.3h-11V151.5z"/>
			<path d="M123.2,151.5h10.5v3.7h-6.9v7.4h4.6v3.8h-4.6v10.1h7.3v3.7h-11V151.5z"/>
			<path d="M146.3,174.1c0-7.2-7.9-9.5-7.9-16.3c0-3.9,2.4-6.8,5.8-6.8c3.5,0,5.4,2.2,5.8,6.8h-3.7c-0.1-2.2-0.7-3.1-2-3.1
				c-1.4,0-2.2,1.2-2.2,3.1c0,2.2,1.2,3,3,5c1.3,1.5,5,5.2,5,11.2c0,2.8-1.8,6.7-6,6.7c-4,0-6.1-2.6-6.3-7.7h3.7
				c0,1.1,0.2,3.9,2.6,3.9C145.4,177,146.3,175.9,146.3,174.1z"/>
		</g>
		<g>
			<path d="M22.3,93.5c3.3,0,5.4,2,5.7,5.6h-3.8c-0.1-1.2-0.8-1.8-1.8-1.8c-1.8,0-3,1.5-3,11.1s1.2,11.1,3,11.1
				c1.5,0,1.8-1.8,1.8-3.5h3.8c0,1.9,0.3,7.3-5.7,7.3c-5.2,0-6.7-4-6.7-14.9C15.6,95.5,18.3,93.5,22.3,93.5z"/>
			<path d="M36.9,123.2c-6.5,0-6.6-8.1-6.6-14.9s0.2-14.8,6.6-14.8s6.6,8.1,6.6,14.8S43.3,123.2,36.9,123.2z M34,108.3
				c0,5,0.1,11.1,2.8,11.1s2.8-6.1,2.8-11.1s-0.1-11.1-2.8-11.1S34,103.3,34,108.3z"/>
			<path d="M56.7,105.6l-3.3,10.8l-3.5-10.8v17.1h-3.6V93.9h3.6l3.5,10.2l3.3-10.2h3.6v28.8h-3.6V105.6z"/>
			<path d="M74,105.6l-3.3,10.8l-3.5-10.8v17.1h-3.6V93.9h3.6l3.5,10.2L74,93.9h3.6v28.8H74V105.6z"/>
			<path d="M80.8,93.9h10.5v3.7h-6.9v7.4h4.6v3.8h-4.6v10.1h7.3v3.7h-11V93.9z"/>
			<path d="M103.4,108.3l2.9,14.3h-3.9l-2.7-13.4h-2v13.4h-3.6V93.9h5.6c4.5,0,6.8,2.7,6.8,8.1C106.5,104.7,105.6,107.1,103.4,108.3
				z M102.7,101.8c0-3.3-0.7-4.2-3.2-4.2h-1.8v7.9h2.4C102.1,105.5,102.7,104.6,102.7,101.8z"/>
			<path d="M115,93.5c3.3,0,5.4,2,5.7,5.6H117c-0.1-1.2-0.8-1.8-1.8-1.8c-1.8,0-3,1.5-3,11.1s1.2,11.1,3,11.1c1.5,0,1.8-1.8,1.8-3.5
				h3.8c0,1.9,0.3,7.3-5.7,7.3c-5.2,0-6.7-4-6.7-14.9C108.3,95.5,111.1,93.5,115,93.5z"/>
			<path d="M123.5,93.9h3.7v28.8h-3.7V93.9z"/>
			<path d="M139.3,115h-4.7l-1.6,7.7h-3.7l5.9-28.8h3.7l6,28.8h-3.8L139.3,115z M135.4,111.2h3.1l-1.5-7.6L135.4,111.2z"/>
			<path d="M146.8,93.9h3.6v25.5h7.3v3.3h-11V93.9z"/>
		</g>
	</g>
</g>
</svg>
