<?xml version="1.0" encoding="utf-8"?>
<!-- Generator: Adobe Illustrator 27.9.0, SVG Export Plug-In . SVG Version: 6.00 Build 0)  -->
<svg version="1.1" xmlns="http://www.w3.org/2000/svg" xmlns:xlink="http://www.w3.org/1999/xlink" x="0px" y="0px"
	 viewBox="0 0 173.3 216.5" style="enable-background:new 0 0 173.3 216.5;" xml:space="preserve">
<style type="text/css">
	.st0{fill:#FFFFFF;}
</style>
<g id="Layer_1">
</g>
<g id="For_Sheets">
	<g>
		<g>
			<path class="st0" d="M11.1,216.4c-6,0-10.9-4.9-10.9-10.9V11C0.1,5,5,0.1,11.1,0.1h151.2c6,0,10.9,4.9,10.9,10.9v194.4
				c0,6-4.9,10.9-10.9,10.9H11.1z"/>
			<path d="M162.2,0.2c6,0,10.8,4.8,10.8,10.8v194.4c0,6-4.8,10.8-10.8,10.8H11c-6,0-10.8-4.8-10.8-10.8V11c0-6,4.8-10.8,10.8-10.8
				H162.2 M162.2,0H11C5,0,0,5,0,11v194.4c0,6.1,5,11.1,11,11.1h151.2c6.1,0,11-5,11-11.1V11C173.3,5,168.3,0,162.2,0L162.2,0z"/>
		</g>
		<path d="M162.2,2.9H11c-4.5,0-8.1,3.6-8.1,8.1v194.4c0,4.5,3.6,8.1,8.1,8.1h151.2c4.5,0,8.1-3.6,8.1-8.1V11
			C170.3,6.6,166.7,2.9,162.2,2.9z M165.8,205.4c0,2-1.6,3.6-3.6,3.6H11c-2,0-3.6-1.6-3.6-3.6V11c0-2,1.6-3.6,3.6-3.6h151.2
			c2,0,3.6,1.6,3.6,3.6V205.4z"/>
		<g>
			<path d="M67.4,45.5V65h-4.5V36.2h4.5l10.5,18.4V36.2h4.6V65h-4L67.4,45.5z"/>
			<path d="M110.5,50.6c0,1,0.2,14.9-10.2,14.9S90,51.7,90,50.6s-0.2-14.9,10.2-14.9S110.5,49.6,110.5,50.6z M100.3,60.9
				c3.1,0,5.6-2.9,5.6-10.3s-2.5-10.3-5.6-10.3c-3.1,0-5.6,2.9-5.6,10.3C94.7,58,97.2,60.9,100.3,60.9z"/>
		</g>
		<g>
			<path d="M28.5,122.7l-5.2-28.8H27l3.1,16.4l3-16.4h3.7l-5.2,28.8H28.5z"/>
			<path d="M41.7,93.9h10.5v3.7h-6.9v7.4h4.6v3.8h-4.6v10.1h7.3v3.7h-11V93.9z"/>
			<path d="M66.9,109.2h-5.1v13.4h-3.6V93.9h3.6v11.6h5.1V93.9h3.6v28.8h-3.6V109.2z"/>
			<path d="M78.2,93.9h3.7v28.8h-3.7V93.9z"/>
			<path d="M95.2,93.5c3.3,0,5.4,2,5.7,5.6h-3.8c-0.1-1.2-0.8-1.8-1.8-1.8c-1.8,0-3,1.5-3,11.1s1.2,11.1,3,11.1
				c1.5,0,1.8-1.8,1.8-3.5h3.8c0,1.9,0.3,7.3-5.7,7.3c-5.2,0-6.7-4-6.7-14.9C88.5,95.5,91.2,93.5,95.2,93.5z"/>
			<path d="M107.4,93.9h3.6v25.5h7.3v3.3h-11V93.9z"/>
			<path d="M123.2,93.9h10.5v3.7h-6.9v7.4h4.6v3.8h-4.6v10.1h7.3v3.7h-11V93.9z"/>
			<path d="M146.3,116.5c0-7.2-7.9-9.5-7.9-16.3c0-3.9,2.4-6.8,5.8-6.8c3.5,0,5.4,2.2,5.8,6.8h-3.7c-0.1-2.2-0.7-3.1-2-3.1
				c-1.4,0-2.2,1.2-2.2,3.1c0,2.2,1.2,3,3,5c1.3,1.5,5,5.2,5,11.2c0,2.8-1.8,6.7-6,6.7c-4,0-6.1-2.6-6.3-7.7h3.7
				c0,1.1,0.2,3.9,2.6,3.9C145.4,119.4,146.3,118.3,146.3,116.5z"/>
		</g>
		<g>
			<g>
				<path d="M31.9,180.3l-2.7-16.2l-2.6,16.2h-3.1L20,151.5h3.8l1.5,13.3l2.3-13.3h3.1l2.3,13.3l1.5-13.3h3.8L35,180.3H31.9z"/>
				<path d="M42.4,151.5h3.7v28.8h-3.7V151.5z"/>
				<path d="M57.4,180.3h-3.6v-25.1h-3.6v-3.7h11v3.7h-3.8V180.3z"/>
				<path d="M73.9,166.8h-5.1v13.4h-3.6v-28.8h3.6v11.6H74v-11.6h3.6v28.8h-3.6V166.8z"/>
			</g>
			<g>
				<path d="M92,151.5h3.6v25.5h7.3v3.3H92V151.5z"/>
				<path d="M107,173.2v-21.7h3.6v22.2c0,2.1,0.9,3.3,2.6,3.3c1.6,0,2.5-1.2,2.5-3.3v-22.2h3.6v21.7c0,6-3.2,7.6-6.2,7.6
					C109.9,180.8,107,179,107,173.2z"/>
				<path d="M131.5,151.1c3.3,0,5.4,2,5.7,5.6h-3.8c-0.1-1.2-0.8-1.8-1.8-1.8c-1.8,0-3,1.5-3,11.1c0,9.6,1.2,11.1,3,11.1
					c1.5,0,1.9-1.8,1.9-3.5V170h-1.7v-3.7h5.4v7.2c0,1.9,0.3,7.3-5.7,7.3c-5.2,0-6.7-4-6.7-14.9
					C124.8,153.1,127.6,151.1,131.5,151.1z"/>
				<path d="M149.6,174.1c0-7.2-7.9-9.5-7.9-16.3c0-3.9,2.4-6.8,5.8-6.8c3.5,0,5.4,2.2,5.8,6.8h-3.7c-0.1-2.2-0.7-3.1-2-3.1
					c-1.4,0-2.2,1.2-2.2,3.1c0,2.2,1.2,3,3,5c1.3,1.5,5,5.2,5,11.2c0,2.8-1.8,6.7-6,6.7c-4,0-6.1-2.6-6.3-7.7h3.7
					c0,1.1,0.2,3.9,2.6,3.9C148.7,177,149.6,175.9,149.6,174.1z"/>
			</g>
		</g>
	</g>
</g>
</svg>
