<?xml version="1.0" encoding="utf-8"?>
<!-- Generator: Adobe Illustrator 27.9.0, SVG Export Plug-In . SVG Version: 6.00 Build 0)  -->
<svg version="1.1" xmlns="http://www.w3.org/2000/svg" xmlns:xlink="http://www.w3.org/1999/xlink" x="0px" y="0px"
	 viewBox="0 0 216.5 173.3" style="enable-background:new 0 0 216.5 173.3;" xml:space="preserve">
<style type="text/css">
	.st0{fill:#FFFFFF;}
</style>
<g id="Layer_1">
</g>
<g id="For_Sheets">
	<g>
		<g>
			<path class="st0" d="M11,173.2c-6,0-10.9-4.9-10.9-10.9V11.1C0.1,5,5,0.1,11,0.1h194.4c6,0,10.9,4.9,10.9,10.9v151.2
				c0,6-4.9,10.9-10.9,10.9H11z"/>
			<path d="M205.4,0.2c6,0,10.8,4.8,10.8,10.8v151.2c0,6-4.8,10.8-10.8,10.8H11.1c-6,0-10.8-4.8-10.8-10.8V11.1
				c0-6,4.8-10.8,10.8-10.8H205.4 M205.4,0H11.1C5,0,0,5,0,11.1v151.2c0,6.1,5,11.1,11.1,11.1h194.4c6.1,0,11.1-5,11.1-11.1V11.1
				C216.5,5,211.5,0,205.4,0L205.4,0z"/>
		</g>
		<path d="M205.4,3H11c-4.5,0-8.1,3.6-8.1,8.1v151.2c0,4.5,3.6,8.1,8.1,8.1h194.4c4.5,0,8.1-3.6,8.1-8.1V11.1
			C213.5,6.6,209.9,3,205.4,3z M209,162.3c0,2-1.6,3.6-3.6,3.6H11c-2,0-3.6-1.6-3.6-3.6V11.1c0-2,1.6-3.6,3.6-3.6h194.4
			c2,0,3.6,1.6,3.6,3.6V162.3z"/>
		<g>
			<path d="M91.4,37.2v17.1h-4V29.1h4l9.2,16.1V29.1h4v25.2H101L91.4,37.2z"/>
			<path d="M129.1,41.6c0,0.9,0.2,13-9,13s-9-12.1-9-13s-0.2-13,9-13S129.1,40.7,129.1,41.6z M120.2,50.6c2.7,0,4.9-2.6,4.9-9
				s-2.2-9-4.9-9c-2.7,0-4.9,2.6-4.9,9C115.3,48.1,117.5,50.6,120.2,50.6z"/>
		</g>
		<g>
			<path d="M46.8,131.6c0-3.5,0.7-13,9.3-13c3.7,0,6.1,1.5,7.9,5.1l-3.7,1.6c-1.3-1.9-1.9-2.7-4.2-2.7c-5.3,0-5.2,7.3-5.2,8.9
				c0,1.6-0.1,9,5.4,9c1.9,0,3-1.2,3.9-2.9l3.8,1.4c-1.4,3.5-3.8,5.6-7.6,5.6C47.3,144.7,46.8,134.7,46.8,131.6z"/>
			<path d="M80.2,144.3h-4v-11l-8.9-14.2h4.8l6,9.7l6.1-9.7H89l-8.8,14.2V144.3z"/>
			<path d="M92.2,131.6c0-3.5,0.7-13,9.3-13c3.7,0,6.1,1.5,7.9,5.1l-3.7,1.6c-1.3-1.9-1.9-2.7-4.2-2.7c-5.3,0-5.2,7.3-5.2,8.9
				c0,1.6-0.1,9,5.4,9c1.9,0,3-1.2,3.9-2.9l3.8,1.4c-1.4,3.5-3.8,5.6-7.6,5.6C92.7,144.7,92.2,134.7,92.2,131.6z"/>
			<path d="M114.9,119.1h4v21.5h11.7v3.7h-15.6V119.1z"/>
			<path d="M134.3,119.1h14.8v4h-10.9v6.2h7.3v4.1h-7.3v6.9H150v4.1h-15.6V119.1z"/>
			<path d="M152.5,138.3l3.8-1.4c1.1,2.4,3,3.7,5.4,3.7c2.3,0,3.9-1.6,3.9-3.7c0-3.4-3.9-3.9-7.2-5.2c-1.5-0.6-4.9-2.1-4.9-6.3
				c0-5,3.4-6.8,7.9-6.8c3.5,0,5.9,2,7.2,5.1l-3.5,1.1c-0.4-1-1.8-2.2-3.7-2.2c-3.6,0-3.9,1.9-3.9,2.5c0,2.4,2,2.8,5.3,3.9
				c3.4,1.1,6.9,2.6,6.9,8c0,5.4-4.4,7.7-8,7.7C157.4,144.7,154.2,142.1,152.5,138.3z"/>
		</g>
		<g>
			<g>
				<path d="M26.5,85.1l-4.7,14.1l-4.7-14.1v14.1h-3.6V74.1h3.6l4.7,14.1l4.7-14.1h3.6v25.2h-3.6V85.1z"/>
				<path d="M32.6,86.6c0-13.2,6.1-13,7.5-13s7.4-0.2,7.4,13c0,13.3-6,13.1-7.4,13.1S32.6,99.9,32.6,86.6z M40.1,77.1
					c-0.7,0-4-0.1-4,9.5c0,9.7,3.2,9.5,4,9.5c0.7,0,4,0.1,4-9.5C44,77,40.8,77.1,40.1,77.1z"/>
				<path d="M57.3,99.2h-3.6V77.4H49v-3.4h12.9v3.4h-4.6V99.2z"/>
				<path d="M63.4,86.6c0-13.2,6.1-13,7.5-13c1.4,0,7.4-0.2,7.4,13c0,13.3-6,13.1-7.4,13.1C69.5,99.7,63.4,99.9,63.4,86.6z
					 M70.8,77.1c-0.7,0-4-0.1-4,9.5c0,9.7,3.2,9.5,4,9.5s4,0.1,4-9.5C74.8,77,71.6,77.1,70.8,77.1z"/>
				<path d="M87.9,87.4h-3.4v11.8h-3.6V74.1h7.5c4,0,6.6,2.7,6.6,6.7c0,3-1.2,5.2-3.6,6.1l3.6,12.4h-3.7L87.9,87.4z M84.4,77.6V84
					h3.7c2.1,0,3.3-1.1,3.3-3.2c0-1.9-1.3-3.2-3.3-3.2H84.4z"/>
			</g>
			<g>
				<path d="M99.4,85.9H112v3.4H99.4V85.9z"/>
			</g>
			<g>
				<path d="M118.3,99.2V74.1h7.2c1.5,0,6.9,0.1,6.9,12.6c0,11.4-5,12.6-6.6,12.6H118.3z M124.8,77.6h-2.8v18.1h2.5
					c2.9,0,4.5-1.3,4.5-8.9C128.9,77.9,126.7,77.6,124.8,77.6z"/>
				<path d="M142,87.4h-3.4v11.8H135V74.1h7.5c4,0,6.6,2.7,6.6,6.7c0,3-1.2,5.2-3.6,6.1l3.6,12.4h-3.7L142,87.4z M138.6,77.6V84h3.7
					c2.1,0,3.3-1.1,3.3-3.2c0-1.9-1.3-3.2-3.3-3.2H138.6z"/>
				<path d="M151.2,74.1h3.5v25.2h-3.5V74.1z"/>
				<path d="M162.9,99.2l-6.4-25.2h3.6l4.2,16.4l4.2-16.4h3.6l-6.5,25.2H162.9z"/>
				<path d="M173.9,74.1h11.9v3.5h-8.2V84h5.2v3.4h-5.2v8.3h9.2v3.5h-12.9V74.1z"/>
				<path d="M192.5,82.4v16.9h-3.6V74.1h3.6l6.9,15.1V74.1h3.6v25.2h-2.7L192.5,82.4z"/>
			</g>
		</g>
	</g>
</g>
</svg>
