<?xml version="1.0" encoding="utf-8"?>
<!-- Generator: Adobe Illustrator 27.9.0, SVG Export Plug-In . SVG Version: 6.00 Build 0)  -->
<svg version="1.1" xmlns="http://www.w3.org/2000/svg" xmlns:xlink="http://www.w3.org/1999/xlink" x="0px" y="0px"
	 viewBox="0 0 432.5 173.3" style="enable-background:new 0 0 432.5 173.3;" xml:space="preserve">
<style type="text/css">
	.st0{fill:#FFFFFF;}
</style>
<g id="Layer_1">
</g>
<g id="For_Sheets">
	<g>
		<g>
			<path class="st0" d="M11,173.2c-6,0-10.9-4.9-10.9-10.9V11.1C0.1,5,5,0.1,11,0.1h410.4c6,0,10.9,4.9,10.9,10.9v151.2
				c0,6-4.9,10.9-10.9,10.9H11z"/>
			<path d="M421.5,0.2c6,0,10.8,4.8,10.8,10.8v151.2c0,6-4.8,10.8-10.8,10.8H11.1c-6,0-10.8-4.8-10.8-10.8V11
				c0-6,4.8-10.8,10.8-10.8H421.5 M421.5,0H11.1C5,0,0,5,0,11v151.2c0,6.1,5,11,11.1,11h410.4c6.1,0,11-5,11-11V11
				C432.5,5,427.5,0,421.5,0L421.5,0z"/>
		</g>
		<polygon points="61.9,160.9 7.4,160.9 61.9,86.6 7.4,12.4 61.9,12.4 116.3,86.6 		"/>
		<polygon points="165.4,160.9 110.9,160.9 165.4,86.6 110.9,12.4 165.4,12.4 219.8,86.6 		"/>
		<polygon points="268.9,160.9 214.4,160.9 268.9,86.6 214.4,12.4 268.9,12.4 323.4,86.6 		"/>
		<polygon points="372.4,160.9 317.9,160.9 372.4,86.6 317.9,12.4 372.4,12.4 426.9,86.6 		"/>
	</g>
</g>
</svg>
