<?xml version="1.0" encoding="utf-8"?>
<!-- Generator: Adobe Illustrator 27.9.0, SVG Export Plug-In . SVG Version: 6.00 Build 0)  -->
<svg version="1.1" xmlns="http://www.w3.org/2000/svg" xmlns:xlink="http://www.w3.org/1999/xlink" x="0px" y="0px"
	 viewBox="0 0 346.1 173.3" style="enable-background:new 0 0 346.1 173.3;" xml:space="preserve">
<style type="text/css">
	.st0{fill:#FFFFFF;}
</style>
<g id="Layer_1">
</g>
<g id="For_Sheets">
	<g>
		<g>
			<path class="st0" d="M11.1,173.2c-6,0-10.9-4.9-10.9-10.9V11.1C0.1,5,5,0.1,11.1,0.1h324c6,0,10.9,4.9,10.9,10.9v151.2
				c0,6-4.9,10.9-10.9,10.9H11.1z"/>
			<path d="M335,0.2c6,0,10.8,4.8,10.8,10.8v151.2c0,6-4.8,10.8-10.8,10.8h-324c-6,0-10.8-4.8-10.8-10.8V11.1
				c0-6,4.8-10.8,10.8-10.8H335 M335,0h-324C5,0,0,5,0,11.1v151.2c0,6.1,5,11.1,11.1,11.1h324c6.1,0,11-5,11-11.1V11.1
				C346.1,5,341.1,0,335,0L335,0z"/>
		</g>
		<polygon points="72.7,160.9 18.2,160.9 72.7,86.7 18.2,12.4 72.7,12.4 127.1,86.7 		"/>
		<polygon points="176.2,160.9 121.7,160.9 176.2,86.7 121.7,12.4 176.2,12.4 230.6,86.7 		"/>
		<polygon points="279.7,160.9 225.2,160.9 279.7,86.7 225.2,12.4 279.7,12.4 334.1,86.7 		"/>
	</g>
</g>
</svg>
