<?xml version="1.0" encoding="utf-8"?>
<!-- Generator: Adobe Illustrator 27.9.0, SVG Export Plug-In . SVG Version: 6.00 Build 0)  -->
<svg version="1.1" xmlns="http://www.w3.org/2000/svg" xmlns:xlink="http://www.w3.org/1999/xlink" x="0px" y="0px"
	 viewBox="0 0 216.5 173.3" style="enable-background:new 0 0 216.5 173.3;" xml:space="preserve">
<style type="text/css">
	.st0{fill:#FFFFFF;}
</style>
<g id="Layer_1">
</g>
<g id="For_Sheets">
	<g>
		<g>
			<path class="st0" d="M11,173.2c-6,0-10.9-4.9-10.9-10.9V11.1C0.1,5,5,0.1,11,0.1h194.4c6,0,10.9,4.9,10.9,10.9v151.2
				c0,6-4.9,10.9-10.9,10.9H11z"/>
			<path d="M205.4,0.2c6,0,10.8,4.8,10.8,10.8v151.2c0,6-4.8,10.8-10.8,10.8H11.1c-6,0-10.8-4.8-10.8-10.8V11.1
				c0-6,4.8-10.8,10.8-10.8H205.4 M205.4,0H11.1C5,0,0,5,0,11.1v151.2c0,6.1,5,11.1,11.1,11.1h194.4c6.1,0,11.1-5,11.1-11.1V11.1
				C216.5,5,211.5,0,205.4,0L205.4,0z"/>
		</g>
		<polygon points="60.1,160.9 5.6,160.9 60.1,86.7 5.6,12.4 60.1,12.4 114.5,86.7 		"/>
		<polygon points="158.2,160.9 103.7,160.9 158.2,86.7 103.7,12.4 158.2,12.4 212.6,86.7 		"/>
	</g>
</g>
</svg>
