<svg id="R6-5P" xmlns="http://www.w3.org/2000/svg" width="30in" height="30in" viewBox="0 0 2160 2160">
  <g>
    <rect width="2160" height="2160" rx="135" fill="#fff"/>
    <path d="M2025,2.2536A132.7467,132.7467,0,0,1,2157.7463,135V2025A132.7467,132.7467,0,0,1,2025,2157.7463H135A132.7467,132.7467,0,0,1,2.2536,2025V135A132.7467,132.7467,0,0,1,135,2.2536ZM2025,0H135A135,135,0,0,0,0,135V2025a135,135,0,0,0,135,135H2025a135,135,0,0,0,135-135V135A135,135,0,0,0,2025,0Z"/>
  </g>
  <path d="M2025,36H135a99.1106,99.1106,0,0,0-99,99V2025a99.1107,99.1107,0,0,0,99,99H2025a99.1106,99.1106,0,0,0,99-99V135A99.11,99.11,0,0,0,2025,36Zm45,1989a45.0548,45.0548,0,0,1-45,45H135a45.0549,45.0549,0,0,1-45-45V135a45.0549,45.0549,0,0,1,45-45H2025a45.0549,45.0549,0,0,1,45,45Z"/>
  <g>
    <path d="M1550.3268,440.1458c-114.9006-81.9655-260.1827-138.4152-403.0377-150.8415-217.39-18.9176-436.67,55.8744-598.8112,198.25L474.8593,387.952c-9.7-11.9049-18.8753-20.5585-33.4718-21.16a39.7886,39.7886,0,0,0-41.3125,38.042L378.7725,900.208l467.5965-164.18a39.7868,39.7868,0,0,0,24.4386-50.5643c-5.0227-14.4239-15.9115-20.1252-31.7886-26.2176l-115.9664-42.24c113.6085-87.0916,262.13-129.3473,405.8865-116.8405,107.2476,9.3323,216.0826,53.2905,300.31,115.7979Z"/>
    <path d="M284.9941,1003.7213c-12.3536,140.5967,12.6946,294.4365,74.4467,423.8531,93.97,196.9351,269.6605,347.9761,474.6051,415.4832L785.5521,1957.03c-5.341,14.3971-8.1437,26.6893-1.2576,39.5757a39.7909,39.7909,0,0,0,53.7426,16.31l437.7134-232.93L897.0711,1460.2985a39.7889,39.7889,0,0,0-55.9742,4.5895c-9.88,11.6441-9.2709,23.9209-6.4681,40.6952l22.4218,121.3649c-132.6832-53.7312-244.44-160.2926-306.5829-290.5259-46.3582-97.16-63.6845-213.2492-52.5387-317.5409Z"/>
    <path d="M1408.2,1810.28c127.7908-59.9118,248.2547-158.82,329.1659-277.2021,123.1324-180.1533,165.5377-407.9262,121.0162-619.059l122.91-15.2905c15.1334-2.611,27.1725-6.3607,34.8559-18.7833a39.7824,39.7824,0,0,0-12.8787-54.6629L1582.054,563.6962l-86.3328,488.0016a39.7892,39.7892,0,0,0,32.0723,46.1051c15.0336,2.6954,25.3435-3.9951,38.4447-14.8418l93.6979-80.3284c20.1521,141.724-15.8886,291.8753-97.3136,411.0088-60.7438,88.8746-152.44,162.1482-248.2279,204.8755Z"/>
  </g>
</svg>
