<?xml version="1.0" encoding="UTF-8" standalone="no"?>
<!-- Created with Inkscape (http://www.inkscape.org/) -->

<svg
   xmlns:dc="http://purl.org/dc/elements/1.1/"
   xmlns:cc="http://creativecommons.org/ns#"
   xmlns:rdf="http://www.w3.org/1999/02/22-rdf-syntax-ns#"
   xmlns:svg="http://www.w3.org/2000/svg"
   xmlns="http://www.w3.org/2000/svg"
   xmlns:sodipodi="http://sodipodi.sourceforge.net/DTD/sodipodi-0.dtd"
   xmlns:inkscape="http://www.inkscape.org/namespaces/inkscape"
   width="2170"
   height="2710"
   id="svg3562"
   version="1.1"
   inkscape:version="0.48.2 r9819"
   sodipodi:docname="AJAX1.svg">
  <defs
     id="defs3564">
    <inkscape:perspective
       sodipodi:type="inkscape:persp3d"
       inkscape:vp_x="0 : 526.18109 : 1"
       inkscape:vp_y="0 : 1000 : 0"
       inkscape:vp_z="744.09448 : 526.18109 : 1"
       inkscape:persp3d-origin="372.04724 : 350.78739 : 1"
       id="perspective3570" />
    <inkscape:perspective
       id="perspective3595"
       inkscape:persp3d-origin="301.91901 : 198.427 : 1"
       inkscape:vp_z="603.83801 : 297.6405 : 1"
       inkscape:vp_y="0 : 1000 : 0"
       inkscape:vp_x="0 : 297.6405 : 1"
       sodipodi:type="inkscape:persp3d" />
    <inkscape:perspective
       id="perspective3615"
       inkscape:persp3d-origin="0.5 : 0.33333333 : 1"
       inkscape:vp_z="1 : 0.5 : 1"
       inkscape:vp_y="0 : 1000 : 0"
       inkscape:vp_x="0 : 0.5 : 1"
       sodipodi:type="inkscape:persp3d" />
    <inkscape:perspective
       id="perspective4061"
       inkscape:persp3d-origin="0.5 : 0.33333333 : 1"
       inkscape:vp_z="1 : 0.5 : 1"
       inkscape:vp_y="0 : 1000 : 0"
       inkscape:vp_x="0 : 0.5 : 1"
       sodipodi:type="inkscape:persp3d" />
    <inkscape:perspective
       id="perspective4872"
       inkscape:persp3d-origin="263 : 175.33333 : 1"
       inkscape:vp_z="526 : 263 : 1"
       inkscape:vp_y="0 : 1000 : 0"
       inkscape:vp_x="0 : 263 : 1"
       sodipodi:type="inkscape:persp3d" />
    <inkscape:perspective
       id="perspective4933"
       inkscape:persp3d-origin="0.5 : 0.33333333 : 1"
       inkscape:vp_z="1 : 0.5 : 1"
       inkscape:vp_y="0 : 1000 : 0"
       inkscape:vp_x="0 : 0.5 : 1"
       sodipodi:type="inkscape:persp3d" />
    <inkscape:perspective
       id="perspective4966"
       inkscape:persp3d-origin="0.5 : 0.33333333 : 1"
       inkscape:vp_z="1 : 0.5 : 1"
       inkscape:vp_y="0 : 1000 : 0"
       inkscape:vp_x="0 : 0.5 : 1"
       sodipodi:type="inkscape:persp3d" />
    <inkscape:perspective
       id="perspective3614"
       inkscape:persp3d-origin="0.5 : 0.33333333 : 1"
       inkscape:vp_z="1 : 0.5 : 1"
       inkscape:vp_y="0 : 1000 : 0"
       inkscape:vp_x="0 : 0.5 : 1"
       sodipodi:type="inkscape:persp3d" />
    <inkscape:perspective
       id="perspective3653"
       inkscape:persp3d-origin="0.5 : 0.33333333 : 1"
       inkscape:vp_z="1 : 0.5 : 1"
       inkscape:vp_y="0 : 1000 : 0"
       inkscape:vp_x="0 : 0.5 : 1"
       sodipodi:type="inkscape:persp3d" />
    <inkscape:perspective
       id="perspective3701"
       inkscape:persp3d-origin="0.5 : 0.33333333 : 1"
       inkscape:vp_z="1 : 0.5 : 1"
       inkscape:vp_y="0 : 1000 : 0"
       inkscape:vp_x="0 : 0.5 : 1"
       sodipodi:type="inkscape:persp3d" />
    <inkscape:perspective
       id="perspective4525"
       inkscape:persp3d-origin="0.5 : 0.33333333 : 1"
       inkscape:vp_z="1 : 0.5 : 1"
       inkscape:vp_y="0 : 1000 : 0"
       inkscape:vp_x="0 : 0.5 : 1"
       sodipodi:type="inkscape:persp3d" />
    <inkscape:perspective
       id="perspective4729"
       inkscape:persp3d-origin="301.91901 : 198.427 : 1"
       inkscape:vp_z="603.83801 : 297.6405 : 1"
       inkscape:vp_y="0 : 1000 : 0"
       inkscape:vp_x="0 : 297.6405 : 1"
       sodipodi:type="inkscape:persp3d" />
    <inkscape:perspective
       id="perspective4759"
       inkscape:persp3d-origin="0.5 : 0.33333333 : 1"
       inkscape:vp_z="1 : 0.5 : 1"
       inkscape:vp_y="0 : 1000 : 0"
       inkscape:vp_x="0 : 0.5 : 1"
       sodipodi:type="inkscape:persp3d" />
    <inkscape:perspective
       id="perspective4793"
       inkscape:persp3d-origin="0.5 : 0.33333333 : 1"
       inkscape:vp_z="1 : 0.5 : 1"
       inkscape:vp_y="0 : 1000 : 0"
       inkscape:vp_x="0 : 0.5 : 1"
       sodipodi:type="inkscape:persp3d" />
  </defs>
  <sodipodi:namedview
     id="base"
     pagecolor="#ffffff"
     bordercolor="#666666"
     borderopacity="1.0"
     inkscape:pageopacity="0.0"
     inkscape:pageshadow="2"
     inkscape:zoom="0.21834447"
     inkscape:cx="652.09367"
     inkscape:cy="925.66074"
     inkscape:document-units="px"
     inkscape:current-layer="layer1"
     showgrid="false"
     inkscape:window-width="1280"
     inkscape:window-height="1004"
     inkscape:window-x="-8"
     inkscape:window-y="-8"
     inkscape:window-maximized="1"
     fit-margin-top="0"
     fit-margin-left="0"
     fit-margin-right="0"
     fit-margin-bottom="0" />
  <metadata
     id="metadata3567">
    <rdf:RDF>
      <cc:Work
         rdf:about="">
        <dc:format>image/svg+xml</dc:format>
        <dc:type
           rdf:resource="http://purl.org/dc/dcmitype/StillImage" />
        <dc:title />
      </cc:Work>
    </rdf:RDF>
  </metadata>
  <g
     inkscape:label="Livello 1"
     inkscape:groupmode="layer"
     id="layer1"
     transform="translate(167.375,1955.9375)">
    <g
       display="none"
       id="Layer_1_1_"
       style="display:none"
       transform="translate(-179.26841,166.65141)">
      <path
         id="path3574"
         enable-background="new    "
         d=""
         display="inline"
         style="fill:none;display:inline"
         inkscape:connector-curvature="0" />
    </g>
    <g
       display="none"
       id="Layer_3"
       transform="translate(-859.87637,144.75832)"
       style="display:none">
      <line
         y2="395.00101"
         x2="154.05701"
         y1="342.67899"
         x1="207.533"
         display="inline"
         id="line7934"
         style="fill:none;display:inline" />
    </g>
    <path
       inkscape:connector-curvature="0"
       style="fill:#ffffff;fill-rule:nonzero;stroke:#000000;stroke-width:10;stroke-linecap:butt;stroke-linejoin:miter;stroke-miterlimit:4;stroke-opacity:1;stroke-dasharray:none"
       d="m 1997.636,614.06415 c 0,74.5625 -60.4375,135 -135,135 l -1889.99996,0 c -74.55937,0 -135,-60.4375 -135,-135 l 0,-2429.99995 c 0,-74.5594 60.44063,-135 135,-135 l 1889.99996,0 c 74.5625,0 135,60.4406 135,135 l 0,2429.99995 z"
       id="path11" />
    <path
       inkscape:connector-curvature="0"
       style="fill:#000000;fill-rule:nonzero;stroke:none"
       d="m -27.36396,715.31415 c -55.83013,0 -101.25,-45.425 -101.25,-101.25 l 0,-2429.99995 c 0,-55.8301 45.41987,-101.25 101.25,-101.25 l 1889.99996,0 c 55.825,0 101.25,45.4199 101.25,101.25 l 0,2429.99995 c 0,55.825 -45.425,101.25 -101.25,101.25 l -1889.99996,0 z"
       id="path13" />
    <path
       inkscape:connector-curvature="0"
       style="fill:#ffffff;fill-rule:nonzero;stroke:none"
       d="m -27.36396,659.06415 c -24.81325,0 -45,-20.1875 -45,-45 l 0,-2429.99995 c 0,-24.8133 20.18675,-45 45,-45 l 1889.99996,0 c 24.8125,0 45,20.1867 45,45 l 0,2429.99995 c 0,24.8125 -20.1875,45 -45,45 l -1889.99996,0 z"
       id="path15" />
    <path
       inkscape:connector-curvature="0"
       style="fill:#000000;fill-rule:nonzero;stroke:none"
       d="m 243.51354,-1340.3571 -77.52375,0 0,168.6325 77.52375,0 c 43.49,0 71.85375,-30.3175 71.85375,-77.6838 0,-51.1587 -32.145,-90.9487 -71.85375,-90.9487 z m 3.78375,-219.79 -81.3075,0 0,144.0012 81.3075,0 c 35.925,0 58.615,-30.3162 58.615,-79.58 0,-45.4725 -17.0175,-64.4212 -58.615,-64.4212 z m 0,464.2112 -158.8325,0 0,-540 170.17625,0 c 71.85125,0 122.90375,56.8425 122.90375,140.21 0,49.2638 -13.235,72.0013 -56.72375,117.4738 41.5975,34.1062 66.17875,79.58 66.17875,134.5275 0,81.4737 -64.28875,147.7887 -143.7025,147.7887 z"
       id="path17" />
    <path
       inkscape:connector-curvature="0"
       style="fill:#000000;fill-rule:nonzero;stroke:none"
       d="m 482.80229,-1095.9359 0,-540 254.63,0 0,75.7888 -176.7225,0 0,136.4225 112.115,0 0,73.895 -112.115,0 0,178.105 197.62625,0 0,75.7887 -275.53375,0 z"
       id="path19" />
    <path
       inkscape:connector-curvature="0"
       style="fill:#000000;fill-rule:nonzero;stroke:none"
       d="m 1126.6485,-1162.2509 c -20.925,47.3675 -64.6913,75.79 -119.8713,75.79 -64.69121,0 -112.25871,-32.2112 -138.89746,-92.8425 -17.12625,-39.79 -28.5425,-115.58 -28.5425,-185.685 0,-75.7887 5.71,-130.7375 24.735,-181.895 19.0275,-56.8425 74.20875,-98.5262 136.99876,-98.5262 78.01,0 136.99,56.8425 140.8025,136.4225 l -78.0138,0 c -1.9025,-36.0013 -26.6362,-60.635 -64.69246,-60.635 -26.63875,0 -47.57,13.2637 -60.88625,39.7912 -15.2225,26.5263 -24.73625,87.1575 -24.73625,151.5788 0,45.4737 3.805,92.8437 11.41375,134.5275 11.4175,53.0525 38.05625,81.4737 79.91751,81.4737 39.9575,0 58.9837,-26.5262 58.9837,-83.3687 l 0,-36 -60.885,0 0,-75.7913 138.8988,0 0,111.7913 c 0,37.8937 -3.8125,60.6337 -15.225,83.3687 z"
       id="path21" />
    <path
       inkscape:connector-curvature="0"
       style="fill:#000000;fill-rule:nonzero;stroke:none"
       d="m 1249.8736,-1095.9346 0,-540.0013 75.6,0 0,540.0013 -75.6,0 z"
       id="path23" />
    <path
       inkscape:connector-curvature="0"
       style="fill:#000000;fill-rule:nonzero;stroke:none"
       d="m 1688.1861,-1095.9359 -166.3875,-361.895 0,361.895 -77.5251,0 0,-540 77.5251,0 147.4875,324 0,-324 77.525,0 0,540 -58.625,0 z"
       id="path25" />
    <path
       inkscape:connector-curvature="0"
       style="fill:#000000;fill-rule:nonzero;stroke:none"
       d="m 1044.611,-330.93585 -206.54246,-365.6875 0,365.6875 -85.26875,0 0,-540.00001 85.26875,0 197.06496,344.85001 0,-344.85001 85.2651,0 0,540.00001 -75.7876,0 z"
       id="path27" />
    <path
       inkscape:connector-curvature="0"
       style="fill:#000000;fill-rule:nonzero;stroke:none"
       d="m 516.24229,-751.56715 c -17.095,-28.4212 -37.98875,-39.7875 -70.27625,-41.6837 -41.79,-1.895 -68.37875,18.9462 -87.37,66.315 -13.29875,32.2125 -20.89375,81.475 -20.89375,126.95 0,56.8375 11.39375,115.575 32.285,149.6875 17.1,28.4125 39.8875,41.675 74.0775,41.675 39.8875,0 64.5775,-20.8375 83.57375,-68.2 11.39625,-28.425 20.89125,-81.475 20.89125,-123.1625 0,-60.6375 -11.39625,-115.5788 -32.2875,-151.5813 z m 58.87875,369.4688 c -30.3925,41.6875 -74.07625,60.6375 -131.05625,60.6375 -75.975,0 -123.46,-30.3125 -155.75,-96.625 -22.7875,-45.4875 -37.98375,-117.475 -37.98375,-181.9 0,-89.05 22.79125,-168.6325 58.88,-219.7913 32.29,-41.68621 75.97375,-60.63121 138.6525,-60.63121 68.37875,0 115.86125,30.31621 150.05125,96.63371 22.7875,47.365 36.08625,115.5763 36.08625,183.7888 0,85.2625 -20.89375,170.525 -58.88,217.8875 z"
       id="path29" />
    <path
       inkscape:connector-curvature="0"
       style="fill:#000000;fill-rule:nonzero;stroke:none"
       d="m 1249.9986,-330.93585 0,-540.00001 317.9125,0 0,85.26251 -232.75,0 0,132.6375 157.0625,0 0,87.15 -157.0625,0 0,147.7875 249.775,0 0,87.1625 -334.9375,0 z"
       id="path31" />
    <path
       inkscape:connector-curvature="0"
       style="fill:#000000;fill-rule:nonzero;stroke:none"
       d="m 583.86854,434.06415 -76.02125,0 -85.5325,-346.7375 -83.63125,346.7375 -76.025,0 -79.8275,-540 87.43,0 41.81375,284.2125 68.4225,-284.2125 83.63125,0 70.32375,284.2125 41.8175,-284.2125 87.43,0 -79.83125,540 z"
       id="path33" />
    <path
       inkscape:connector-curvature="0"
       style="fill:#000000;fill-rule:nonzero;stroke:none"
       d="m 1463.9111,199.11415 0,234.95 -85.7,0 0,-234.95 -190.4375,-305.05 102.8375,0 129.5,208.425 131.4,-208.425 100.925,0 -188.525,305.05 z"
       id="path35" />
    <path
       inkscape:connector-curvature="0"
       style="fill:#000000;fill-rule:nonzero;stroke:none"
       d="m 926.68854,43.75165 -55.26625,151.575 108.62625,0 -53.36,-151.575 z m 137.20746,390.3125 -53.3575,-151.575 -169.60621,0 -53.35875,151.575 -91.47375,0 186.75625,-540 85.75625,0 186.76131,540 -91.4776,0 z"
       id="path37" />
  </g>
</svg>
