<?xml version="1.0" encoding="utf-8"?>
<!-- Generator: Adobe Illustrator 27.9.0, SVG Export Plug-In . SVG Version: 6.00 Build 0)  -->
<svg version="1.1" xmlns="http://www.w3.org/2000/svg" xmlns:xlink="http://www.w3.org/1999/xlink" x="0px" y="0px"
	 viewBox="0 0 86.9 130.1" style="enable-background:new 0 0 86.9 130.1;" xml:space="preserve">
<style type="text/css">
	.st0{fill:#FFFFFF;}
	.st1{fill:#BF311A;}
</style>
<g id="Layer_1">
</g>
<g id="For_Sheets">
	<g>
		<g>
			<path class="st0" d="M11.1,130c-6,0-10.9-4.9-10.9-10.9v-108C0.1,5,5,0.1,11.1,0.1h64.8c6,0,10.9,4.9,10.9,10.9v108
				c0,6-4.9,10.9-10.9,10.9H11.1z"/>
			<path d="M75.9,0.2c5.9,0,10.8,4.9,10.8,10.8v108c0,5.9-4.9,10.8-10.8,10.8H11.1c-5.9,0-10.8-4.9-10.8-10.8v-108
				c0-5.9,4.9-10.8,10.8-10.8H75.9 M75.9,0H11.1C5,0,0,5,0,11.1v108c0,6.1,5,11,11.1,11h64.8c6.1,0,11-5,11-11v-108
				C86.9,5,81.9,0,75.9,0L75.9,0z"/>
		</g>
		<path class="st1" d="M75.9,3H11.1C6.6,3,3,6.6,3,11.1v108c0,4.5,3.6,8.1,8.1,8.1h64.8c4.5,0,8.1-3.6,8.1-8.1v-108
			C84,6.6,80.3,3,75.9,3z M81.3,11.1v27h-54V5.7h48.6C78.8,5.7,81.3,8.1,81.3,11.1z M75.9,124.5H11.1c-3,0-5.4-2.4-5.4-5.4V40.8
			h75.6v78.3C81.3,122,78.8,124.5,75.9,124.5z"/>
		<g>
			<rect x="15.6" y="109.1" class="st1" width="48.6" height="5.4"/>
			<path class="st1" d="M60.6,104.6c-0.5,0-0.9,0.4-0.9,0.9c0,0.1,0,0.2,0.1,0.3l2.2,6l-2.2,6c0,0.1-0.1,0.2-0.1,0.3
				c0,0.5,0.4,0.9,0.9,0.9c0.2,0,0.4-0.1,0.5-0.2l10.3-7l-10.3-7C60.9,104.7,60.7,104.6,60.6,104.6z"/>
		</g>
		<g>
			<path class="st1" d="M31.3,16.5v4.4h1c1.1,0,1.5-0.6,1.5-2.1c0-1.6-0.5-2.3-1.5-2.3H31.3z M32.3,22.8h-1V29h-1.8V14.7h2.9
				c3.1,0,3.3,3.4,3.3,4.2C35.7,21.2,34.3,22.8,32.3,22.8z"/>
			<path class="st1" d="M39.3,23.3h1.6l-0.8-3.8L39.3,23.3z M41.3,25.2h-2.4L38.1,29h-1.9l2.9-14.4h1.9L44,29h-1.9L41.3,25.2z"/>
			<path class="st1" d="M49.7,18.6c0-1.6-0.4-2.1-1.6-2.1h-0.9v3.9h1.2C49.4,20.5,49.7,20,49.7,18.6z M50,21.9l1.5,7.2h-2l-1.4-6.7
				h-1V29h-1.8V14.7h2.8c2.2,0,3.4,1.4,3.4,4C51.6,20.1,51.1,21.3,50,21.9z"/>
			<polygon class="st1" points="55.5,22.2 54.9,23.6 54.9,29 53.1,29 53.1,14.7 54.9,14.7 54.9,19.3 57.1,14.7 59.2,14.7 56.8,19.6 
				59.4,29 57.4,29 			"/>
			<rect x="60.9" y="14.7" class="st1" width="1.9" height="14.4"/>
			<polygon class="st1" points="66.6,20.5 66.6,29 64.8,29 64.8,14.7 66.6,14.7 69.2,21.8 69.2,14.7 71,14.7 71,29 69.5,29 			"/>
			<path class="st1" d="M76.1,14.5c1.6,0,2.7,1,2.8,2.8h-1.9c-0.1-0.6-0.4-0.9-0.9-0.9c-0.9,0-1.5,0.8-1.5,5.6s0.6,5.6,1.5,5.6
				c0.8,0,1-0.9,1-1.8v-1.7h-0.9v-1.9H79v3.6c0,0.9,0.1,3.6-2.8,3.6c-2.6,0-3.4-2-3.4-7.4C72.8,15.5,74.2,14.5,76.1,14.5z"/>
		</g>
		<g>
			<path class="st1" d="M21.6,71.3V49.7h6.8c2.9,0,4.9,2.3,4.9,5.6c0,2-0.5,2.9-2.3,4.7c1.7,1.4,2.6,3.2,2.6,5.4
				c0,3.2-2.6,5.9-5.7,5.9H21.6z M24.7,52.8v5.8H28c1.4,0,2.3-1.2,2.3-3.2c0-1.9-0.7-2.6-2.3-2.6H24.7z M24.7,68.3h3.1
				c1.7,0,2.9-1.2,2.9-3.1c0-2.1-1.2-3.6-2.9-3.6h-3.1V68.3z"/>
			<path class="st1" d="M37.4,65.1V49.7h3.1v15.5c0,2,1.2,3.4,3,3.4c1.7,0,2.9-1.4,2.9-3.4V49.7h3.1v15.4c0,4.9-3.8,6.6-6,6.6
				C41.5,71.7,37.4,70.4,37.4,65.1z"/>
			<path class="st1" d="M59.4,57.6c2.4,1.5,5.9,3.6,5.9,7.8c0,3.5-2.7,6.3-6,6.3c-3.8,0-6.1-3.2-6.1-6.7h3c0,1.8,0.9,3.7,3,3.7
				c1.7,0,3-1.5,3-3.3c0-4.7-8.1-4.4-8.1-10.5c0-3.1,2.4-5.6,5.6-5.6c3,0,5.4,2.3,5.5,5.6h-3c-0.1-1.5-1.1-2.5-2.5-2.5
				c-1.4,0-2.6,1.1-2.6,2.5C57.2,56.4,57.9,56.7,59.4,57.6z"/>
		</g>
		<g>
			<path class="st1" d="M21.2,86.4c2.4,1.5,5.9,3.6,5.9,7.8c0,3.5-2.7,6.3-6,6.3c-3.8,0-6.1-3.2-6.1-6.7h3c0,1.8,0.9,3.7,3,3.7
				c1.7,0,3-1.5,3-3.3c0-4.7-8.1-4.4-8.1-10.5c0-3.1,2.4-5.6,5.6-5.6c3,0,5.4,2.3,5.5,5.6h-3c-0.1-1.5-1.1-2.5-2.5-2.5
				c-1.4,0-2.6,1.1-2.6,2.5C19.1,85.2,19.8,85.5,21.2,86.4z"/>
			<path class="st1" d="M36.1,100.1H33V81.4h-4v-2.9h11v2.9h-4V100.1z"/>
			<path class="st1" d="M42.7,89.3c0-11.3,5.2-11.1,6.4-11.1c1.2,0,6.3-0.2,6.3,11.1c0,11.4-5.2,11.2-6.3,11.2
				C47.9,100.5,42.7,100.7,42.7,89.3z M49.1,81.2c-0.6,0-3.4-0.1-3.4,8.1c0,8.3,2.8,8.2,3.4,8.2c0.6,0,3.4,0.1,3.4-8.2
				C52.5,81.1,49.7,81.2,49.1,81.2z"/>
			<path class="st1" d="M62.9,90.7v9.5h-3.1V78.5h6.4c3.4,0,5.7,2.4,5.7,6.1c0,3.9-2,6.1-5.7,6.1H62.9z M62.9,87.7H66
				c1.8,0,2.8-1.1,2.8-3.1c0-1.8-1.1-3-2.8-3h-3.2V87.7z"/>
		</g>
		<g>
			<path class="st0" d="M8.1,19.1v11.7H5.7V11.1h2.5l3.5,9.9v-9.9h2.5v19.8H12L8.1,19.1z"/>
			<path class="st0" d="M20.6,31.2c-4.4,0-4.6-5.6-4.6-10.2s0.1-10.2,4.6-10.2s4.6,5.6,4.6,10.2S25.1,31.2,20.6,31.2z M18.7,21
				c0,3.5,0,7.6,1.9,7.6c1.9,0,1.9-4.2,1.9-7.6s0-7.6-1.9-7.6C18.7,13.3,18.7,17.5,18.7,21z"/>
		</g>
	</g>
</g>
</svg>
