<?xml version="1.0" encoding="UTF-8" standalone="no"?>
<!-- Generator: Adobe Illustrator 14.0.0, SVG Export Plug-In  -->

<svg
   xmlns:dc="http://purl.org/dc/elements/1.1/"
   xmlns:cc="http://creativecommons.org/ns#"
   xmlns:rdf="http://www.w3.org/1999/02/22-rdf-syntax-ns#"
   xmlns:svg="http://www.w3.org/2000/svg"
   xmlns="http://www.w3.org/2000/svg"
   xmlns:sodipodi="http://sodipodi.sourceforge.net/DTD/sodipodi-0.dtd"
   xmlns:inkscape="http://www.inkscape.org/namespaces/inkscape"
   version="1.1"
   x="0px"
   y="0px"
   width="86.499977"
   height="214.74995"
   viewBox="0 -0.321 86.49998 214.75001"
   enable-background="new 0 -0.321 144 120"
   xml:space="preserve"
   id="svg2"
   inkscape:version="0.48.2 r9819"
   sodipodi:docname="AJAX1.svg"><metadata
   id="metadata44"><rdf:RDF><cc:Work
       rdf:about=""><dc:format>image/svg+xml</dc:format><dc:type
         rdf:resource="http://purl.org/dc/dcmitype/StillImage" /><dc:title></dc:title></cc:Work></rdf:RDF></metadata><sodipodi:namedview
   pagecolor="#ffffff"
   bordercolor="#666666"
   borderopacity="1"
   objecttolerance="10"
   gridtolerance="10"
   guidetolerance="10"
   inkscape:pageopacity="0"
   inkscape:pageshadow="2"
   inkscape:window-width="1280"
   inkscape:window-height="1004"
   id="namedview42"
   showgrid="false"
   fit-margin-top="0"
   fit-margin-left="0"
   fit-margin-right="0"
   fit-margin-bottom="0"
   inkscape:zoom="3.5451037"
   inkscape:cx="20.108714"
   inkscape:cy="117.38288"
   inkscape:window-x="-8"
   inkscape:window-y="-8"
   inkscape:window-maximized="1"
   inkscape:current-layer="svg2" />
<defs
   id="defs4">
</defs>


















<path
   d="m 11.194402,0.191889 64.12627,0 c 5.88625,0 10.68875,4.801251 10.68875,10.687503 l 0,192.376298 c 0,5.88625 -4.8025,10.6875 -10.68875,10.6875 l -64.12627,0 c -5.8862494,0 -10.68624938,-4.80125 -10.68624938,-10.6875 l 0,-192.376298 c 0,-5.812502 4.87624998,-10.687503 10.68624938,-10.687503"
   style="fill:#ffffff;fill-opacity:1;fill-rule:nonzero;stroke:#000000;stroke-width:1.00000024;stroke-linecap:butt;stroke-linejoin:miter;stroke-miterlimit:4;stroke-opacity:1;stroke-dasharray:none"
   id="path4269"
   inkscape:connector-curvature="0" /><path
   d="m 11.228152,2.86439 64.05752,0 c 4.415,0.025 8.0225,3.635001 8.05,8.050002 l 0,192.306298 c -0.0275,4.4175 -3.635,8.0225 -8.05,8.05 l -64.05752,0 c -4.4037494,-0.0275 -8.0337494,-3.6325 -8.0487494,-8.05 l 0,-192.306298 c 0.015,-4.415001 3.645,-8.025002 8.0487494,-8.050002"
   style="fill:#bf2519;fill-opacity:1;fill-rule:evenodd;stroke:none"
   id="path4273"
   inkscape:connector-curvature="0" /><path
   d="m 11.263152,5.535641 63.98877,0 c 2.99375,0.02 5.38875,2.42125 5.4125,5.410001 l 0,192.243798 c -0.0238,2.99375 -2.41625,5.38875 -5.4125,5.41 l -63.98877,0 c -2.9912494,-0.0212 -5.3937494,-2.41625 -5.4099994,-5.41 l 0,-192.243798 c 0.0162,-2.988751 2.42125,-5.390001 5.4099994,-5.410001"
   style="fill:#ffffff;fill-opacity:1;fill-rule:evenodd;stroke:none"
   id="path4277"
   inkscape:connector-curvature="0" /><path
   d="m 7.9441526,11.770512 70.7012694,0 0,38.337509 -70.7012694,0 0,-38.337509 z"
   style="fill:none;stroke:#000000;stroke-width:0.70000017;stroke-linecap:butt;stroke-linejoin:miter;stroke-miterlimit:2.61299992;stroke-opacity:1;stroke-dasharray:none"
   id="path4317"
   inkscape:connector-curvature="0" /><g
   id="g4319"
   transform="matrix(1.2500003,0,0,-1.2500003,15.208152,18.416889)"
   style="fill:#000000;stroke:none"><path
     d="m 0,0 1.967,0 0,-0.453 -0.717,0 0,-2.765 -0.535,0 0,2.765 L 0,-0.453 0,0 z"
     style="fill:#000000;fill-opacity:1;fill-rule:nonzero;stroke:none"
     id="path4321"
     inkscape:connector-curvature="0" /></g><g
   id="g4323"
   transform="matrix(1.2500003,0,0,-1.2500003,18.018152,18.416889)"
   style="fill:#000000;stroke:none"><path
     d="m 0,0 0.533,0 0,-1.33 0.951,0 0,1.33 0.532,0 0,-3.218 -0.532,0 0,1.433 -0.951,0 0,-1.433 L 0,-3.218 0,0 z"
     style="fill:#000000;fill-opacity:1;fill-rule:nonzero;stroke:none"
     id="path4325"
     inkscape:connector-curvature="0" /></g><path
   d="m 21.365402,18.416764 0.66876,0 0,4.022501 -0.66876,0 0,-4.022501 z"
   style="fill:#000000;fill-opacity:1;fill-rule:nonzero;stroke:none"
   id="path4327"
   inkscape:connector-curvature="0" /><g
   id="g4329"
   transform="matrix(1.2500003,0,0,-1.2500003,25.259412,19.316889)"
   style="fill:#000000;stroke:none"><path
     d="M 0,0 -0.453,-0.16 C -0.506,0.011 -0.576,0.138 -0.664,0.22 -0.75,0.302 -0.871,0.343 -1.02,0.343 -1.16,0.343 -1.268,0.302 -1.344,0.218 -1.42,0.134 -1.459,0.041 -1.459,-0.065 c 0,-0.119 0.045,-0.213 0.129,-0.283 0.086,-0.072 0.256,-0.152 0.512,-0.252 0.218,-0.082 0.388,-0.162 0.504,-0.238 0.119,-0.074 0.212,-0.176 0.287,-0.301 0.072,-0.129 0.109,-0.275 0.109,-0.439 0,-0.27 -0.096,-0.5 -0.287,-0.692 -0.19,-0.189 -0.459,-0.283 -0.803,-0.283 -0.594,0 -0.963,0.301 -1.105,0.904 l 0.478,0.133 c 0.084,-0.402 0.301,-0.603 0.653,-0.603 0.17,0 0.3,0.044 0.388,0.134 0.09,0.088 0.135,0.2 0.135,0.33 0,0.098 -0.029,0.186 -0.092,0.268 -0.06,0.082 -0.213,0.172 -0.459,0.264 -0.256,0.097 -0.443,0.179 -0.558,0.246 -0.114,0.068 -0.211,0.166 -0.291,0.299 -0.08,0.13 -0.121,0.283 -0.121,0.451 0,0.254 0.089,0.468 0.267,0.642 0.18,0.176 0.416,0.262 0.711,0.262 C -0.479,0.777 -0.145,0.517 0,0"
     style="fill:#000000;fill-opacity:1;fill-rule:nonzero;stroke:none"
     id="path4331"
     inkscape:connector-curvature="0" /></g><g
   id="g4333"
   transform="matrix(1.2500003,0,0,-1.2500003,26.785662,22.439265)"
   style="fill:#000000;stroke:none"><path
     d="m 0,0 0.508,0 0.201,0.812 0.943,0 L 1.853,0 2.394,0 1.529,3.218 0.927,3.218 0,0 z m 0.812,1.226 0.365,1.475 0.37,-1.475 -0.735,0 z"
     style="fill:#000000;fill-opacity:1;fill-rule:nonzero;stroke:none"
     id="path4335"
     inkscape:connector-curvature="0" /></g><g
   id="g4337"
   transform="matrix(1.2500003,0,0,-1.2500003,30.234412,22.439265)"
   style="fill:#000000;stroke:none"><path
     d="m 0,0 0.534,0 0,1.345 0.5,0 L 1.532,0 2.112,0 1.5,1.457 C 1.827,1.623 1.991,1.902 1.991,2.298 1.991,2.595 1.909,2.822 1.743,2.98 1.577,3.14 1.319,3.218 0.969,3.218 L 0,3.218 0,0 z M 0.946,2.804 C 1.297,2.804 1.471,2.636 1.471,2.3 1.471,2.14 1.428,2.009 1.342,1.91 1.256,1.812 1.124,1.761 0.942,1.761 l -0.408,0 0,1.043 0.412,0 z"
     style="fill:#000000;fill-opacity:1;fill-rule:nonzero;stroke:none"
     id="path4339"
     inkscape:connector-curvature="0" /></g><g
   id="g4341"
   transform="matrix(1.2500003,0,0,-1.2500003,33.479412,18.416889)"
   style="fill:#000000;stroke:none"><path
     d="m 0,0 1.848,0 0,-0.427 -1.315,0 0,-0.916 1.032,0 0,-0.434 -1.032,0 0,-1.006 1.332,0 0,-0.435 L 0,-3.218 0,0 z"
     style="fill:#000000;fill-opacity:1;fill-rule:nonzero;stroke:none"
     id="path4343"
     inkscape:connector-curvature="0" /></g><g
   id="g4345"
   transform="matrix(1.2500003,0,0,-1.2500003,35.906912,22.439265)"
   style="fill:#000000;stroke:none"><path
     d="m 0,0 0.505,0 0.204,0.812 0.943,0 L 1.853,0 2.394,0 1.529,3.218 0.927,3.218 0,0 z m 0.812,1.226 0.367,1.475 0.369,-1.475 -0.736,0 z"
     style="fill:#000000;fill-opacity:1;fill-rule:nonzero;stroke:none"
     id="path4347"
     inkscape:connector-curvature="0" /></g><g
   id="g4349"
   transform="matrix(1.2500003,0,0,-1.2500003,40.525662,18.416889)"
   style="fill:#000000;stroke:none"><path
     d="M 0,0 0.791,0 1.43,-2.32 2.088,0 l 0.76,0 0,-3.218 -0.504,0 0,2.746 -0.762,-2.746 -0.387,0 -0.748,2.75 0,-2.75 L 0,-3.218 0,0 z"
     style="fill:#000000;fill-opacity:1;fill-rule:nonzero;stroke:none"
     id="path4351"
     inkscape:connector-curvature="0" /></g><g
   id="g4353"
   transform="matrix(1.2500003,0,0,-1.2500003,44.506912,22.439265)"
   style="fill:#000000;stroke:none"><path
     d="m 0,0 0.51,0 0.201,0.812 0.942,0 L 1.856,0 2.395,0 1.532,3.218 0.93,3.218 0,0 z m 0.813,1.226 0.367,1.475 0.369,-1.475 -0.736,0 z"
     style="fill:#000000;fill-opacity:1;fill-rule:nonzero;stroke:none"
     id="path4355"
     inkscape:connector-curvature="0" /></g><g
   id="g4357"
   transform="matrix(1.2500003,0,0,-1.2500003,47.236912,18.416889)"
   style="fill:#000000;stroke:none"><path
     d="M 0,0 0.572,0 1.17,-1.355 1.777,0 2.279,0 1.387,-1.857 l 0,-1.361 -0.533,0 0,1.361 L 0,0 z"
     style="fill:#000000;fill-opacity:1;fill-rule:nonzero;stroke:none"
     id="path4359"
     inkscape:connector-curvature="0" /></g><g
   id="g4361"
   transform="matrix(1.2500003,0,0,-1.2500003,52.170662,20.599389)"
   style="fill:#000000;stroke:none"><path
     d="m 0,0 0.387,0 c 0.258,0 0.428,-0.054 0.514,-0.16 0.082,-0.107 0.125,-0.23 0.125,-0.363 0,-0.346 -0.2,-0.52 -0.594,-0.52 L 0,-1.043 0,0 z m -0.521,-1.472 0.992,0 c 0.43,0 0.721,0.089 0.873,0.265 0.152,0.178 0.229,0.387 0.229,0.623 0,0.418 -0.194,0.688 -0.581,0.811 C 1.311,0.338 1.471,0.573 1.471,0.93 1.471,1.123 1.426,1.289 1.34,1.424 1.252,1.563 1.141,1.649 1.014,1.688 0.887,1.727 0.7,1.746 0.455,1.746 l -0.976,0 0,-3.218 z M 0,1.332 l 0.391,0 C 0.573,1.332 0.707,1.297 0.793,1.229 0.881,1.157 0.924,1.043 0.924,0.879 0.924,0.744 0.885,0.631 0.809,0.545 0.735,0.457 0.578,0.416 0.338,0.416 L 0,0.416 0,1.332 z"
     style="fill:#000000;fill-opacity:1;fill-rule:nonzero;stroke:none"
     id="path4363"
     inkscape:connector-curvature="0" /></g><g
   id="g4365"
   transform="matrix(1.2500003,0,0,-1.2500003,54.866912,18.416889)"
   style="fill:#000000;stroke:none"><path
     d="m 0,0 1.847,0 0,-0.427 -1.314,0 0,-0.916 1.031,0 0,-0.434 -1.031,0 0,-1.006 1.334,0 0,-0.435 L 0,-3.218 0,0 z"
     style="fill:#000000;fill-opacity:1;fill-rule:nonzero;stroke:none"
     id="path4367"
     inkscape:connector-curvature="0" /></g><g
   id="g4369"
   transform="matrix(1.2500003,0,0,-1.2500003,58.858162,18.416889)"
   style="fill:#000000;stroke:none"><path
     d="m 0,0 0.519,0 0,-1.998 c 0,-0.224 0.012,-0.39 0.038,-0.496 0.021,-0.105 0.078,-0.191 0.162,-0.252 0.084,-0.064 0.199,-0.093 0.341,-0.093 0.137,0 0.245,0.025 0.319,0.076 0.076,0.052 0.131,0.125 0.162,0.217 0.031,0.095 0.047,0.281 0.047,0.556 l 0,1.99 0.476,0 0,-1.959 C 2.064,-2.273 2.043,-2.515 1.998,-2.685 1.953,-2.853 1.85,-2.994 1.687,-3.107 1.523,-3.218 1.305,-3.273 1.029,-3.273 0.818,-3.273 0.633,-3.24 0.475,-3.168 0.318,-3.099 0.199,-2.986 0.119,-2.83 0.039,-2.673 0,-2.396 0,-1.996 L 0,0 z"
     style="fill:#000000;fill-opacity:1;fill-rule:nonzero;stroke:none"
     id="path4371"
     inkscape:connector-curvature="0" /></g><g
   id="g4373"
   transform="matrix(1.2500003,0,0,-1.2500003,64.629422,19.316889)"
   style="fill:#000000;stroke:none"><path
     d="m 0,0 -0.451,-0.16 c -0.055,0.171 -0.123,0.298 -0.211,0.38 -0.088,0.082 -0.205,0.123 -0.357,0.123 -0.139,0 -0.247,-0.041 -0.323,-0.125 -0.078,-0.084 -0.115,-0.177 -0.115,-0.283 0,-0.119 0.043,-0.213 0.129,-0.283 0.084,-0.072 0.258,-0.152 0.512,-0.252 0.216,-0.082 0.386,-0.162 0.504,-0.238 0.117,-0.074 0.212,-0.176 0.285,-0.301 0.074,-0.129 0.111,-0.275 0.111,-0.439 0,-0.27 -0.098,-0.5 -0.287,-0.692 -0.191,-0.189 -0.459,-0.283 -0.805,-0.283 -0.593,0 -0.961,0.301 -1.101,0.904 l 0.476,0.133 c 0.084,-0.402 0.301,-0.603 0.653,-0.603 0.17,0 0.3,0.044 0.39,0.134 0.088,0.088 0.133,0.2 0.133,0.33 0,0.098 -0.031,0.186 -0.094,0.268 -0.058,0.082 -0.213,0.172 -0.459,0.264 -0.256,0.097 -0.441,0.179 -0.554,0.246 -0.116,0.068 -0.213,0.166 -0.293,0.299 -0.08,0.13 -0.121,0.283 -0.121,0.451 0,0.254 0.089,0.468 0.269,0.642 0.176,0.176 0.414,0.262 0.709,0.262 0.524,0 0.858,-0.26 1,-0.777"
     style="fill:#000000;fill-opacity:1;fill-rule:nonzero;stroke:none"
     id="path4375"
     inkscape:connector-curvature="0" /></g><g
   id="g4377"
   transform="matrix(1.2500003,0,0,-1.2500003,65.379422,18.416889)"
   style="fill:#000000;stroke:none"><path
     d="m 0,0 1.847,0 0,-0.427 -1.312,0 0,-0.916 1.029,0 0,-0.434 -1.029,0 0,-1.006 1.332,0 0,-0.435 L 0,-3.218 0,0 z"
     style="fill:#000000;fill-opacity:1;fill-rule:nonzero;stroke:none"
     id="path4379"
     inkscape:connector-curvature="0" /></g><g
   id="g4381"
   transform="matrix(1.2500003,0,0,-1.2500003,68.213172,22.439265)"
   style="fill:#000000;stroke:none"><path
     d="m 0,0 0.768,0 c 0.367,0 0.65,0.076 0.849,0.226 0.2,0.153 0.348,0.352 0.446,0.596 0.095,0.248 0.142,0.527 0.142,0.842 0,0.299 -0.05,0.568 -0.16,0.816 C 1.938,2.722 1.778,2.908 1.569,3.035 1.36,3.156 1.076,3.218 0.727,3.218 L 0,3.218 0,0 z M 0.758,2.791 C 1.352,2.791 1.647,2.396 1.647,1.609 1.647,1.252 1.576,0.963 1.438,0.75 1.295,0.535 1.071,0.429 0.758,0.429 l -0.223,0 0,2.362 0.223,0 z"
     style="fill:#000000;fill-opacity:1;fill-rule:nonzero;stroke:none"
     id="path4383"
     inkscape:connector-curvature="0" /></g><g
   id="g4385"
   transform="matrix(1.2500003,0,0,-1.2500003,19.024402,25.45439)"
   style="fill:#000000;stroke:none"><path
     d="m 0,0 1.783,0 0,-0.426 -1.25,0 0,-0.963 1,0 0,-0.428 -1,0 0,-1.402 L 0,-3.219 0,0 z"
     style="fill:#000000;fill-opacity:1;fill-rule:nonzero;stroke:none"
     id="path4387"
     inkscape:connector-curvature="0" /></g><g
   id="g4389"
   transform="matrix(1.2500003,0,0,-1.2500003,24.040662,25.909265)"
   style="fill:#000000;stroke:none"><path
     d="m 0,0 c -0.199,0.281 -0.486,0.42 -0.859,0.42 -0.375,0 -0.662,-0.139 -0.859,-0.424 -0.202,-0.279 -0.299,-0.693 -0.299,-1.238 0,-0.553 0.099,-0.967 0.299,-1.246 0.199,-0.281 0.486,-0.42 0.863,-0.42 0.375,0 0.658,0.141 0.855,0.42 0.196,0.279 0.295,0.695 0.295,1.246 C 0.295,-0.693 0.196,-0.279 0,0 m -0.4,-2.152 c -0.088,-0.217 -0.24,-0.324 -0.455,-0.324 -0.229,0 -0.389,0.111 -0.473,0.334 -0.088,0.226 -0.131,0.523 -0.131,0.898 0,0.381 0.043,0.68 0.133,0.9 0.088,0.221 0.242,0.333 0.463,0.333 0.223,0 0.377,-0.112 0.465,-0.331 0.09,-0.22 0.133,-0.521 0.133,-0.902 0,-0.391 -0.043,-0.693 -0.135,-0.908"
     style="fill:#000000;fill-opacity:1;fill-rule:nonzero;stroke:none"
     id="path4391"
     inkscape:connector-curvature="0" /></g><g
   id="g4393"
   transform="matrix(1.2500003,0,0,-1.2500003,25.108162,29.478141)"
   style="fill:#000000;stroke:none"><path
     d="m 0,0 0.533,0 0,1.345 0.498,0 L 1.531,0 2.109,0 1.498,1.459 c 0.328,0.162 0.494,0.443 0.494,0.84 0,0.296 -0.084,0.525 -0.25,0.683 C 1.576,3.142 1.316,3.219 0.967,3.219 L 0,3.219 0,0 z M 0.943,2.804 C 1.295,2.804 1.471,2.638 1.471,2.303 1.471,2.14 1.426,2.011 1.342,1.912 1.256,1.81 1.121,1.761 0.941,1.761 l -0.408,0 0,1.043 0.41,0 z"
     style="fill:#000000;fill-opacity:1;fill-rule:nonzero;stroke:none"
     id="path4395"
     inkscape:connector-curvature="0" /></g><g
   id="g4397"
   transform="matrix(1.2500003,0,0,-1.2500003,29.129412,29.478141)"
   style="fill:#000000;stroke:none"><path
     d="m 0,0 0.506,0 0.203,0.81 0.943,0 L 1.855,0 2.392,0 1.527,3.219 l -0.6,0 L 0,0 z m 0.812,1.226 0.367,1.475 0.37,-1.475 -0.737,0 z"
     style="fill:#000000;fill-opacity:1;fill-rule:nonzero;stroke:none"
     id="path4399"
     inkscape:connector-curvature="0" /></g><g
   id="g4401"
   transform="matrix(1.2500003,0,0,-1.2500003,33.276912,25.45439)"
   style="fill:#000000;stroke:none"><path
     d="m 0,0 1.967,0 0,-0.452 -0.717,0 0,-2.767 -0.533,0 0,2.767 L 0,-0.452 0,0 z"
     style="fill:#000000;fill-opacity:1;fill-rule:nonzero;stroke:none"
     id="path4403"
     inkscape:connector-curvature="0" /></g><g
   id="g4405"
   transform="matrix(1.2500003,0,0,-1.2500003,36.086912,29.478141)"
   style="fill:#000000;stroke:none"><path
     d="m 0,0 0.535,0 0,1.345 0.498,0 L 1.531,0 2.111,0 1.5,1.459 c 0.328,0.162 0.492,0.443 0.492,0.84 0,0.296 -0.082,0.525 -0.25,0.683 C 1.576,3.142 1.317,3.219 0.967,3.219 L 0,3.219 0,0 z m 0.945,2.804 c 0.35,0 0.524,-0.166 0.524,-0.501 C 1.469,2.14 1.428,2.011 1.34,1.912 1.258,1.81 1.123,1.761 0.942,1.761 l -0.407,0 0,1.043 0.41,0 z"
     style="fill:#000000;fill-opacity:1;fill-rule:nonzero;stroke:none"
     id="path4407"
     inkscape:connector-curvature="0" /></g><g
   id="g4409"
   transform="matrix(1.2500003,0,0,-1.2500003,38.921912,29.478141)"
   style="fill:#000000;stroke:none"><path
     d="m 0,0 0.508,0 0.203,0.81 0.941,0 L 1.855,0 2.394,0 1.531,3.219 0.929,3.219 0,0 z m 0.812,1.226 0.367,1.475 0.37,-1.475 -0.737,0 z"
     style="fill:#000000;fill-opacity:1;fill-rule:nonzero;stroke:none"
     id="path4411"
     inkscape:connector-curvature="0" /></g><g
   id="g4413"
   transform="matrix(1.2500003,0,0,-1.2500003,42.356912,25.45439)"
   style="fill:#000000;stroke:none"><path
     d="m 0,0 0.627,0 1.056,-2.319 0,2.319 0.446,0 0,-3.219 -0.496,0 -1.186,2.578 0,-2.578 L 0,-3.219 0,0 z"
     style="fill:#000000;fill-opacity:1;fill-rule:nonzero;stroke:none"
     id="path4415"
     inkscape:connector-curvature="0" /></g><g
   id="g4417"
   transform="matrix(1.2500003,0,0,-1.2500003,48.218162,26.355641)"
   style="fill:#000000;stroke:none"><path
     d="m 0,0 -0.453,-0.158 c -0.053,0.171 -0.123,0.298 -0.211,0.38 -0.086,0.083 -0.205,0.124 -0.355,0.124 -0.139,0 -0.248,-0.041 -0.325,-0.125 -0.076,-0.084 -0.113,-0.178 -0.113,-0.284 0,-0.121 0.041,-0.216 0.127,-0.285 0.086,-0.07 0.256,-0.154 0.512,-0.25 0.219,-0.084 0.389,-0.166 0.504,-0.24 0.119,-0.076 0.215,-0.176 0.287,-0.301 0.072,-0.127 0.109,-0.273 0.109,-0.441 0,-0.268 -0.095,-0.498 -0.287,-0.69 -0.189,-0.187 -0.459,-0.281 -0.803,-0.281 -0.595,0 -0.963,0.301 -1.103,0.9 l 0.476,0.135 c 0.084,-0.402 0.303,-0.603 0.653,-0.603 0.17,0 0.301,0.045 0.39,0.134 0.088,0.088 0.133,0.2 0.133,0.331 0,0.097 -0.029,0.185 -0.092,0.267 -0.062,0.082 -0.212,0.172 -0.459,0.264 -0.255,0.097 -0.443,0.178 -0.556,0.246 -0.115,0.068 -0.213,0.166 -0.291,0.299 -0.08,0.133 -0.121,0.283 -0.121,0.449 0,0.256 0.088,0.473 0.267,0.646 0.178,0.174 0.414,0.26 0.709,0.26 C -0.478,0.777 -0.144,0.519 0,0"
     style="fill:#000000;fill-opacity:1;fill-rule:nonzero;stroke:none"
     id="path4419"
     inkscape:connector-curvature="0" /></g><path
   d="m 48.967912,25.454265 0.66625,0 0,4.023751 -0.66625,0 0,-4.023751 z"
   style="fill:#000000;fill-opacity:1;fill-rule:nonzero;stroke:none"
   id="path4421"
   inkscape:connector-curvature="0" /><g
   id="g4423"
   transform="matrix(1.2500003,0,0,-1.2500003,49.978162,25.45439)"
   style="fill:#000000;stroke:none"><path
     d="m 0,0 1.967,0 0,-0.452 -0.717,0 0,-2.767 -0.535,0 0,2.767 L 0,-0.452 0,0 z"
     style="fill:#000000;fill-opacity:1;fill-rule:nonzero;stroke:none"
     id="path4425"
     inkscape:connector-curvature="0" /></g><g
   id="g4427"
   transform="matrix(1.2500003,0,0,-1.2500003,53.973162,25.45439)"
   style="fill:#000000;stroke:none"><path
     d="m 0,0 0.535,0 0,-2.764 1.137,0 0,-0.455 L 0,-3.219 0,0 z"
     style="fill:#000000;fill-opacity:1;fill-rule:nonzero;stroke:none"
     id="path4429"
     inkscape:connector-curvature="0" /></g><g
   id="g4431"
   transform="matrix(1.2500003,0,0,-1.2500003,58.860662,25.909265)"
   style="fill:#000000;stroke:none"><path
     d="m 0,0 c -0.197,0.281 -0.483,0.42 -0.856,0.42 -0.377,0 -0.666,-0.139 -0.863,-0.424 -0.197,-0.279 -0.297,-0.693 -0.297,-1.238 0,-0.553 0.1,-0.967 0.301,-1.246 0.199,-0.281 0.486,-0.42 0.863,-0.42 0.373,0 0.659,0.141 0.854,0.42 0.197,0.279 0.295,0.695 0.295,1.246 C 0.297,-0.693 0.199,-0.279 0,0 m -0.397,-2.152 c -0.089,-0.217 -0.242,-0.324 -0.455,-0.324 -0.23,0 -0.388,0.111 -0.474,0.334 -0.086,0.226 -0.131,0.523 -0.131,0.898 0,0.381 0.045,0.68 0.133,0.9 0.089,0.221 0.242,0.333 0.464,0.333 0.221,0 0.377,-0.112 0.465,-0.331 0.088,-0.22 0.133,-0.521 0.133,-0.902 0,-0.391 -0.045,-0.693 -0.135,-0.908"
     style="fill:#000000;fill-opacity:1;fill-rule:nonzero;stroke:none"
     id="path4433"
     inkscape:connector-curvature="0" /></g><g
   id="g4435"
   transform="matrix(1.2500003,0,0,-1.2500003,61.296912,27.408141)"
   style="fill:#000000;stroke:none"><path
     d="m 0,0 1.074,0 0,-1.68 -0.287,0 -0.07,0.414 c -0.164,-0.296 -0.42,-0.443 -0.774,-0.443 -0.359,0 -0.64,0.145 -0.841,0.436 -0.203,0.289 -0.303,0.683 -0.303,1.183 0,0.528 0.1,0.944 0.301,1.248 0.199,0.309 0.508,0.461 0.92,0.461 0.578,0 0.921,-0.326 1.035,-0.978 L 0.572,0.522 C 0.516,0.799 0.44,0.98 0.342,1.063 0.248,1.147 0.135,1.188 0.002,1.188 c -0.428,0 -0.644,-0.409 -0.644,-1.231 0,-0.822 0.222,-1.234 0.662,-1.234 0.369,0 0.552,0.283 0.552,0.847 L 0,-0.43 0,0 z"
     style="fill:#000000;fill-opacity:1;fill-rule:nonzero;stroke:none"
     id="path4437"
     inkscape:connector-curvature="0" /></g><g
   id="g4439"
   transform="matrix(1.2500003,0,0,-1.2500003,65.769422,25.909265)"
   style="fill:#000000;stroke:none"><path
     d="m 0,0 c -0.199,0.281 -0.484,0.42 -0.855,0.42 -0.379,0 -0.666,-0.139 -0.865,-0.424 -0.198,-0.279 -0.295,-0.693 -0.295,-1.238 0,-0.553 0.097,-0.967 0.296,-1.246 0.202,-0.281 0.489,-0.42 0.866,-0.42 0.375,0 0.658,0.141 0.855,0.42 0.195,0.279 0.295,0.695 0.295,1.246 C 0.297,-0.693 0.196,-0.279 0,0 m -0.398,-2.152 c -0.09,-0.217 -0.24,-0.324 -0.455,-0.324 -0.231,0 -0.389,0.111 -0.473,0.334 -0.088,0.226 -0.133,0.523 -0.133,0.898 0,0.381 0.045,0.68 0.133,0.9 0.09,0.221 0.244,0.333 0.465,0.333 0.223,0 0.377,-0.112 0.465,-0.331 0.088,-0.22 0.133,-0.521 0.133,-0.902 0,-0.391 -0.045,-0.693 -0.135,-0.908"
     style="fill:#000000;fill-opacity:1;fill-rule:nonzero;stroke:none"
     id="path4441"
     inkscape:connector-curvature="0" /></g><path
   d="m 66.836672,28.714266 0.67375,0 0,0.76375 -0.67375,0 0,-0.76375 z"
   style="fill:#000000;fill-opacity:1;fill-rule:nonzero;stroke:none"
   id="path4443"
   inkscape:connector-curvature="0" /><g
   id="g4445"
   transform="matrix(1.2500003,0,0,-1.2500003,16.414402,32.493017)"
   style="fill:#000000;stroke:none"><path
     d="m 0,0 0.39,0 c -0.369,-0.608 -0.552,-1.278 -0.552,-2.01 0,-0.734 0.183,-1.406 0.552,-2.012 l -0.39,0 c -0.436,0.623 -0.653,1.295 -0.653,2.012 0,0.732 0.217,1.402 0.653,2.01"
     style="fill:#000000;fill-opacity:1;fill-rule:nonzero;stroke:none"
     id="path4447"
     inkscape:connector-curvature="0" /></g><path
   d="m 17.310402,32.493017 0.66625,0 0,4.021251 -0.66625,0 0,-4.021251 z"
   style="fill:#000000;fill-opacity:1;fill-rule:nonzero;stroke:none"
   id="path4449"
   inkscape:connector-curvature="0" /><g
   id="g4451"
   transform="matrix(1.2500003,0,0,-1.2500003,18.806902,32.493017)"
   style="fill:#000000;stroke:none"><path
     d="m 0,0 1.785,0 0,-0.426 -1.25,0 0,-0.963 0.998,0 0,-0.428 -0.998,0 0,-1.4 L 0,-3.217 0,0 z"
     style="fill:#000000;fill-opacity:1;fill-rule:nonzero;stroke:none"
     id="path4453"
     inkscape:connector-curvature="0" /></g><g
   id="g4455"
   transform="matrix(1.2500003,0,0,-1.2500003,22.605662,32.493017)"
   style="fill:#000000;stroke:none"><path
     d="m 0,0 0.629,0 1.057,-2.319 0,2.319 0.445,0 0,-3.217 -0.498,0 -1.186,2.574 0,-2.574 L 0,-3.217 0,0 z"
     style="fill:#000000;fill-opacity:1;fill-rule:nonzero;stroke:none"
     id="path4457"
     inkscape:connector-curvature="0" /></g><g
   id="g4459"
   transform="matrix(1.2500003,0,0,-1.2500003,28.458162,32.948142)"
   style="fill:#000000;stroke:none"><path
     d="m 0,0 c -0.198,0.28 -0.483,0.422 -0.856,0.422 -0.377,0 -0.664,-0.142 -0.863,-0.424 -0.197,-0.281 -0.295,-0.695 -0.295,-1.242 0,-0.552 0.098,-0.965 0.297,-1.246 0.201,-0.279 0.488,-0.42 0.863,-0.42 0.375,0 0.66,0.143 0.856,0.42 0.197,0.281 0.296,0.695 0.296,1.246 C 0.298,-0.693 0.197,-0.279 0,0 m -0.397,-2.152 c -0.09,-0.217 -0.24,-0.324 -0.457,-0.324 -0.228,0 -0.387,0.111 -0.473,0.334 -0.086,0.226 -0.128,0.523 -0.128,0.898 0,0.379 0.042,0.68 0.13,0.901 0.09,0.218 0.243,0.33 0.465,0.33 0.223,0 0.377,-0.112 0.465,-0.328 0.088,-0.221 0.133,-0.522 0.133,-0.903 0,-0.39 -0.045,-0.693 -0.135,-0.908"
     style="fill:#000000;fill-opacity:1;fill-rule:nonzero;stroke:none"
     id="path4461"
     inkscape:connector-curvature="0" /></g><g
   id="g4463"
   transform="matrix(1.2500003,0,0,-1.2500003,29.060662,32.493017)"
   style="fill:#000000;stroke:none"><path
     d="m 0,0 1.969,0 0,-0.453 -0.717,0 0,-2.764 -0.533,0 0,2.764 L 0,-0.453 0,0 z"
     style="fill:#000000;fill-opacity:1;fill-rule:nonzero;stroke:none"
     id="path4465"
     inkscape:connector-curvature="0" /></g><g
   id="g4467"
   transform="matrix(1.2500003,0,0,-1.2500003,33.028162,32.493017)"
   style="fill:#000000;stroke:none"><path
     d="m 0,0 0.519,0 0,-2 c 0,-0.225 0.014,-0.387 0.037,-0.496 0.024,-0.106 0.079,-0.188 0.163,-0.25 0.084,-0.063 0.197,-0.094 0.341,-0.094 0.137,0 0.243,0.025 0.319,0.078 0.076,0.049 0.131,0.121 0.162,0.215 0.033,0.094 0.049,0.279 0.049,0.556 l 0,1.991 0.476,0 0,-1.959 C 2.066,-2.276 2.043,-2.516 2,-2.684 1.953,-2.856 1.849,-2.994 1.685,-3.108 1.523,-3.217 1.305,-3.274 1.029,-3.274 0.818,-3.274 0.633,-3.241 0.474,-3.168 0.318,-3.1 0.201,-2.987 0.119,-2.83 0.039,-2.674 0,-2.395 0,-1.996 L 0,0 z"
     style="fill:#000000;fill-opacity:1;fill-rule:nonzero;stroke:none"
     id="path4469"
     inkscape:connector-curvature="0" /></g><g
   id="g4471"
   transform="matrix(1.2500003,0,0,-1.2500003,38.799412,33.394392)"
   style="fill:#000000;stroke:none"><path
     d="m 0,0 -0.449,-0.158 c -0.055,0.17 -0.125,0.299 -0.211,0.381 -0.088,0.08 -0.209,0.121 -0.359,0.121 -0.139,0 -0.247,-0.041 -0.323,-0.123 -0.076,-0.084 -0.113,-0.18 -0.113,-0.285 0,-0.12 0.043,-0.215 0.127,-0.284 0.086,-0.07 0.258,-0.154 0.512,-0.25 0.218,-0.084 0.386,-0.166 0.504,-0.24 0.119,-0.076 0.212,-0.176 0.287,-0.303 0.07,-0.125 0.107,-0.271 0.107,-0.439 0,-0.27 -0.094,-0.498 -0.285,-0.69 -0.19,-0.187 -0.459,-0.283 -0.803,-0.283 -0.594,0 -0.961,0.301 -1.105,0.903 l 0.478,0.132 c 0.084,-0.402 0.301,-0.601 0.653,-0.601 0.171,0 0.3,0.045 0.39,0.135 0.088,0.087 0.133,0.199 0.133,0.33 0,0.097 -0.029,0.185 -0.092,0.267 -0.06,0.082 -0.213,0.17 -0.459,0.264 -0.258,0.096 -0.441,0.178 -0.556,0.246 -0.116,0.066 -0.213,0.166 -0.293,0.299 -0.08,0.133 -0.121,0.283 -0.121,0.449 0,0.256 0.087,0.471 0.269,0.647 0.176,0.173 0.412,0.261 0.709,0.261 0.523,0 0.857,-0.26 1,-0.779"
     style="fill:#000000;fill-opacity:1;fill-rule:nonzero;stroke:none"
     id="path4473"
     inkscape:connector-curvature="0" /></g><g
   id="g4475"
   transform="matrix(1.2500003,0,0,-1.2500003,39.549412,32.493017)"
   style="fill:#000000;stroke:none"><path
     d="m 0,0 1.849,0 0,-0.426 -1.314,0 0,-0.92 1.031,0 0,-0.434 -1.031,0 0,-1.005 1.332,0 0,-0.432 L 0,-3.217 0,0 z"
     style="fill:#000000;fill-opacity:1;fill-rule:nonzero;stroke:none"
     id="path4477"
     inkscape:connector-curvature="0" /></g><g
   id="g4479"
   transform="matrix(1.2500003,0,0,-1.2500003,42.385662,36.514393)"
   style="fill:#000000;stroke:none"><path
     d="M 0,0 0.764,0 C 1.133,0 1.418,0.074 1.617,0.224 1.815,0.377 1.963,0.574 2.061,0.822 2.158,1.066 2.205,1.348 2.205,1.66 2.205,1.959 2.151,2.232 2.043,2.476 1.938,2.723 1.776,2.908 1.567,3.031 1.356,3.156 1.076,3.217 0.725,3.217 L 0,3.217 0,0 z M 0.756,2.791 C 1.35,2.791 1.647,2.394 1.647,1.607 1.647,1.25 1.576,0.963 1.436,0.75 1.295,0.533 1.069,0.426 0.756,0.426 l -0.223,0 0,2.365 0.223,0 z"
     style="fill:#000000;fill-opacity:1;fill-rule:nonzero;stroke:none"
     id="path4481"
     inkscape:connector-curvature="0" /></g><g
   id="g4483"
   transform="matrix(1.2500003,0,0,-1.2500003,47.019412,36.514393)"
   style="fill:#000000;stroke:none"><path
     d="m 0,0 0.768,0 c 0.369,0 0.65,0.074 0.851,0.224 0.198,0.153 0.348,0.35 0.444,0.598 0.095,0.244 0.144,0.526 0.144,0.838 0,0.299 -0.052,0.572 -0.162,0.816 C 1.938,2.723 1.78,2.908 1.569,3.031 1.36,3.156 1.078,3.217 0.729,3.217 L 0,3.217 0,0 z M 0.758,2.791 C 1.35,2.791 1.649,2.394 1.649,1.607 1.649,1.25 1.578,0.963 1.438,0.75 1.295,0.533 1.069,0.426 0.758,0.426 l -0.223,0 0,2.365 0.223,0 z"
     style="fill:#000000;fill-opacity:1;fill-rule:nonzero;stroke:none"
     id="path4485"
     inkscape:connector-curvature="0" /></g><g
   id="g4487"
   transform="matrix(1.2500003,0,0,-1.2500003,50.471912,32.493017)"
   style="fill:#000000;stroke:none"><path
     d="m 0,0 1.848,0 0,-0.426 -1.315,0 0,-0.92 1.031,0 0,-0.434 -1.031,0 0,-1.005 1.334,0 0,-0.432 L 0,-3.217 0,0 z"
     style="fill:#000000;fill-opacity:1;fill-rule:nonzero;stroke:none"
     id="path4489"
     inkscape:connector-curvature="0" /></g><g
   id="g4491"
   transform="matrix(1.2500003,0,0,-1.2500003,55.325662,35.156893)"
   style="fill:#000000;stroke:none"><path
     d="M 0,0 0.492,-0.069 C 0.39,-0.785 0.039,-1.143 -0.561,-1.143 c -0.39,0 -0.681,0.149 -0.875,0.447 -0.189,0.301 -0.285,0.702 -0.285,1.206 0,0.541 0.1,0.957 0.303,1.246 0.203,0.287 0.494,0.433 0.877,0.433 0.59,0 0.935,-0.367 1.037,-1.097 L -0.006,1.017 c -0.055,0.491 -0.234,0.737 -0.541,0.737 -0.408,0 -0.615,-0.424 -0.615,-1.276 0,-0.793 0.207,-1.187 0.619,-1.187 0.164,0 0.287,0.06 0.371,0.183 C -0.092,-0.404 -0.033,-0.229 0,0"
     style="fill:#000000;fill-opacity:1;fill-rule:nonzero;stroke:none"
     id="path4493"
     inkscape:connector-curvature="0" /></g><g
   id="g4495"
   transform="matrix(1.2500003,0,0,-1.2500003,56.550662,36.514393)"
   style="fill:#000000;stroke:none"><path
     d="m 0,0 0.533,0 0,1.344 0.5,0 L 1.533,0 2.112,0 1.5,1.457 C 1.83,1.619 1.992,1.9 1.992,2.297 1.992,2.594 1.908,2.822 1.742,2.98 1.576,3.139 1.319,3.217 0.969,3.217 L 0,3.217 0,0 z m 0.946,2.801 c 0.351,0 0.527,-0.164 0.527,-0.5 C 1.473,2.139 1.428,2.01 1.344,1.908 1.258,1.808 1.125,1.758 0.942,1.758 l -0.409,0 0,1.043 0.413,0 z"
     style="fill:#000000;fill-opacity:1;fill-rule:nonzero;stroke:none"
     id="path4497"
     inkscape:connector-curvature="0" /></g><g
   id="g4499"
   transform="matrix(1.2500003,0,0,-1.2500003,59.795662,32.493017)"
   style="fill:#000000;stroke:none"><path
     d="m 0,0 1.848,0 0,-0.426 -1.313,0 0,-0.92 1.031,0 0,-0.434 -1.031,0 0,-1.005 1.332,0 0,-0.432 L 0,-3.217 0,0 z"
     style="fill:#000000;fill-opacity:1;fill-rule:nonzero;stroke:none"
     id="path4501"
     inkscape:connector-curvature="0" /></g><g
   id="g4503"
   transform="matrix(1.2500003,0,0,-1.2500003,62.221912,36.514393)"
   style="fill:#000000;stroke:none"><path
     d="m 0,0 0.508,0 0.201,0.808 0.944,0 L 1.856,0 2.395,0 1.53,3.217 0.93,3.217 0,0 z m 0.813,1.224 0.367,1.475 0.369,-1.475 -0.736,0 z"
     style="fill:#000000;fill-opacity:1;fill-rule:nonzero;stroke:none"
     id="path4505"
     inkscape:connector-curvature="0" /></g><g
   id="g4507"
   transform="matrix(1.2500003,0,0,-1.2500003,68.069422,33.394392)"
   style="fill:#000000;stroke:none"><path
     d="m 0,0 -0.453,-0.158 c -0.053,0.17 -0.123,0.299 -0.211,0.381 -0.088,0.08 -0.205,0.121 -0.355,0.121 -0.141,0 -0.249,-0.041 -0.325,-0.123 -0.076,-0.084 -0.117,-0.18 -0.117,-0.285 0,-0.12 0.045,-0.215 0.131,-0.284 0.086,-0.07 0.254,-0.154 0.512,-0.25 0.218,-0.084 0.386,-0.166 0.504,-0.24 0.117,-0.076 0.212,-0.176 0.285,-0.303 0.074,-0.125 0.109,-0.271 0.109,-0.439 0,-0.27 -0.096,-0.498 -0.285,-0.69 -0.191,-0.187 -0.459,-0.283 -0.803,-0.283 -0.595,0 -0.963,0.301 -1.103,0.903 l 0.476,0.132 c 0.082,-0.402 0.301,-0.601 0.653,-0.601 0.17,0 0.3,0.045 0.39,0.135 0.088,0.087 0.133,0.199 0.133,0.33 0,0.097 -0.031,0.185 -0.092,0.267 -0.062,0.082 -0.215,0.17 -0.457,0.264 -0.26,0.096 -0.447,0.178 -0.56,0.246 -0.116,0.066 -0.211,0.166 -0.291,0.299 -0.082,0.133 -0.121,0.283 -0.121,0.449 0,0.256 0.089,0.471 0.267,0.647 0.178,0.173 0.414,0.261 0.709,0.261 C -0.48,0.779 -0.146,0.519 0,0"
     style="fill:#000000;fill-opacity:1;fill-rule:nonzero;stroke:none"
     id="path4509"
     inkscape:connector-curvature="0" /></g><g
   id="g4511"
   transform="matrix(1.2500003,0,0,-1.2500003,68.816922,32.493017)"
   style="fill:#000000;stroke:none"><path
     d="m 0,0 1.847,0 0,-0.426 -1.312,0 0,-0.92 1.031,0 0,-0.434 -1.031,0 0,-1.005 1.332,0 0,-0.432 L 0,-3.217 0,0 z"
     style="fill:#000000;fill-opacity:1;fill-rule:nonzero;stroke:none"
     id="path4513"
     inkscape:connector-curvature="0" /></g><g
   id="g4515"
   transform="matrix(1.2500003,0,0,-1.2500003,15.471902,40.433144)"
   style="fill:#000000;stroke:none"><path
     d="m 0,0 -0.453,-0.158 c -0.053,0.17 -0.125,0.299 -0.211,0.379 -0.086,0.082 -0.207,0.123 -0.358,0.123 -0.138,0 -0.246,-0.041 -0.322,-0.125 -0.078,-0.082 -0.115,-0.176 -0.115,-0.283 0,-0.119 0.043,-0.213 0.127,-0.282 0.088,-0.07 0.258,-0.156 0.512,-0.254 0.218,-0.082 0.388,-0.162 0.504,-0.238 0.119,-0.074 0.214,-0.174 0.287,-0.301 0.072,-0.128 0.111,-0.273 0.111,-0.439 0,-0.27 -0.096,-0.5 -0.289,-0.691 -0.19,-0.188 -0.459,-0.284 -0.803,-0.284 -0.594,0 -0.961,0.301 -1.103,0.905 l 0.478,0.132 c 0.084,-0.402 0.301,-0.603 0.651,-0.603 0.171,0 0.3,0.045 0.39,0.135 0.09,0.088 0.133,0.199 0.133,0.33 0,0.097 -0.029,0.185 -0.092,0.269 -0.06,0.08 -0.213,0.168 -0.457,0.262 -0.258,0.098 -0.445,0.18 -0.558,0.248 -0.116,0.067 -0.213,0.164 -0.291,0.297 -0.082,0.131 -0.122,0.281 -0.122,0.449 0,0.256 0.09,0.471 0.268,0.645 0.178,0.176 0.414,0.261 0.709,0.261 C -0.481,0.777 -0.145,0.518 0,0"
     style="fill:#000000;fill-opacity:1;fill-rule:nonzero;stroke:none"
     id="path4517"
     inkscape:connector-curvature="0" /></g><path
   d="m 16.219152,39.531769 0.66625,0 0,4.021251 -0.66625,0 0,-4.021251 z"
   style="fill:#000000;fill-opacity:1;fill-rule:nonzero;stroke:none"
   id="path4519"
   inkscape:connector-curvature="0" /><g
   id="g4521"
   transform="matrix(1.2500003,0,0,-1.2500003,19.083152,41.488144)"
   style="fill:#000000;stroke:none"><path
     d="m 0,0 1.076,0 0,-1.677 -0.285,0 -0.075,0.414 C 0.554,-1.56 0.298,-1.709 -0.055,-1.709 c -0.358,0 -0.641,0.147 -0.842,0.436 -0.203,0.293 -0.303,0.687 -0.303,1.185 0,0.526 0.1,0.942 0.299,1.25 0.201,0.307 0.508,0.459 0.922,0.459 0.576,0 0.922,-0.328 1.037,-0.978 L 0.574,0.522 C 0.515,0.801 0.439,0.983 0.343,1.063 0.248,1.147 0.136,1.188 0.005,1.188 c -0.429,0 -0.644,-0.408 -0.644,-1.229 0,-0.824 0.219,-1.234 0.66,-1.234 0.369,0 0.553,0.283 0.553,0.85 L 0,-0.425 0,0 z"
     style="fill:#000000;fill-opacity:1;fill-rule:nonzero;stroke:none"
     id="path4523"
     inkscape:connector-curvature="0" /></g><g
   id="g4525"
   transform="matrix(1.2500003,0,0,-1.2500003,21.155652,39.531894)"
   style="fill:#000000;stroke:none"><path
     d="m 0,0 0.627,0 1.056,-2.319 0,2.319 0.448,0 0,-3.217 -0.5,0 -1.186,2.576 0,-2.576 L 0,-3.217 0,0 z"
     style="fill:#000000;fill-opacity:1;fill-rule:nonzero;stroke:none"
     id="path4527"
     inkscape:connector-curvature="0" /></g><g
   id="g4529"
   transform="matrix(1.2500003,0,0,-1.2500003,25.806912,39.531894)"
   style="fill:#000000;stroke:none"><path
     d="m 0,0 0.533,0 0,-1.332 0.951,0 0,1.332 0.533,0 0,-3.217 -0.533,0 0,1.434 -0.951,0 0,-1.434 L 0,-3.217 0,0 z"
     style="fill:#000000;fill-opacity:1;fill-rule:nonzero;stroke:none"
     id="path4531"
     inkscape:connector-curvature="0" /></g><g
   id="g4533"
   transform="matrix(1.2500003,0,0,-1.2500003,29.153162,39.531894)"
   style="fill:#000000;stroke:none"><path
     d="m 0,0 1.848,0 0,-0.428 -1.313,0 0,-0.916 1.032,0 0,-0.434 -1.032,0 0,-1.005 1.332,0 0,-0.434 L 0,-3.217 0,0 z"
     style="fill:#000000;fill-opacity:1;fill-rule:nonzero;stroke:none"
     id="path4535"
     inkscape:connector-curvature="0" /></g><path
   d="m 31.990412,39.531769 0.66625,0 0,4.021251 -0.66625,0 0,-4.021251 z"
   style="fill:#000000;fill-opacity:1;fill-rule:nonzero;stroke:none"
   id="path4537"
   inkscape:connector-curvature="0" /><g
   id="g4539"
   transform="matrix(1.2500003,0,0,-1.2500003,34.854412,41.488144)"
   style="fill:#000000;stroke:none"><path
     d="m 0,0 1.074,0 0,-1.677 -0.285,0 -0.072,0.414 c -0.163,-0.297 -0.42,-0.446 -0.772,-0.446 -0.359,0 -0.641,0.147 -0.842,0.436 -0.203,0.293 -0.304,0.687 -0.304,1.185 0,0.526 0.101,0.942 0.298,1.25 0.202,0.307 0.508,0.459 0.924,0.459 0.576,0 0.922,-0.328 1.035,-0.978 L 0.572,0.522 C 0.513,0.801 0.439,0.983 0.342,1.063 0.246,1.147 0.135,1.188 0.006,1.188 c -0.432,0 -0.647,-0.408 -0.647,-1.229 0,-0.824 0.221,-1.234 0.662,-1.234 0.367,0 0.551,0.283 0.551,0.85 L 0,-0.425 0,0 z"
     style="fill:#000000;fill-opacity:1;fill-rule:nonzero;stroke:none"
     id="path4541"
     inkscape:connector-curvature="0" /></g><g
   id="g4543"
   transform="matrix(1.2500003,0,0,-1.2500003,36.941912,39.531894)"
   style="fill:#000000;stroke:none"><path
     d="m 0,0 0.535,0 0,-1.332 0.947,0 0,1.332 0.535,0 0,-3.217 -0.535,0 0,1.434 -0.947,0 0,-1.434 L 0,-3.217 0,0 z"
     style="fill:#000000;fill-opacity:1;fill-rule:nonzero;stroke:none"
     id="path4545"
     inkscape:connector-curvature="0" /></g><g
   id="g4547"
   transform="matrix(1.2500003,0,0,-1.2500003,39.803162,39.531894)"
   style="fill:#000000;stroke:none"><path
     d="m 0,0 1.965,0 0,-0.453 -0.715,0 0,-2.764 -0.535,0 0,2.764 L 0,-0.453 0,0 z"
     style="fill:#000000;fill-opacity:1;fill-rule:nonzero;stroke:none"
     id="path4549"
     inkscape:connector-curvature="0" /></g><g
   id="g4551"
   transform="matrix(1.2500003,0,0,-1.2500003,44.449412,41.714269)"
   style="fill:#000000;stroke:none"><path
     d="m 0,0 0.386,0 c 0.258,0 0.428,-0.055 0.512,-0.162 0.084,-0.106 0.127,-0.227 0.127,-0.362 0,-0.345 -0.199,-0.519 -0.594,-0.519 L 0,-1.043 0,0 z m -0.522,-1.471 0.992,0 c 0.43,0 0.721,0.088 0.873,0.264 0.153,0.179 0.229,0.386 0.229,0.625 0,0.416 -0.195,0.685 -0.582,0.806 0.32,0.114 0.48,0.35 0.48,0.705 0,0.196 -0.045,0.36 -0.131,0.496 C 1.252,1.56 1.14,1.65 1.013,1.687 0.886,1.726 0.699,1.746 0.453,1.746 l -0.975,0 0,-3.217 z M 0,1.33 l 0.39,0 C 0.572,1.33 0.707,1.297 0.793,1.228 0.88,1.158 0.923,1.043 0.923,0.881 0.923,0.744 0.884,0.631 0.81,0.543 0.732,0.459 0.576,0.414 0.339,0.414 L 0,0.414 0,1.33 z"
     style="fill:#000000;fill-opacity:1;fill-rule:nonzero;stroke:none"
     id="path4553"
     inkscape:connector-curvature="0" /></g><g
   id="g4555"
   transform="matrix(1.2500003,0,0,-1.2500003,46.555662,39.531894)"
   style="fill:#000000;stroke:none"><path
     d="M 0,0 0.572,0 1.17,-1.358 1.777,0 2.279,0 1.387,-1.856 l 0,-1.361 -0.535,0 0,1.361 L 0,0 z"
     style="fill:#000000;fill-opacity:1;fill-rule:nonzero;stroke:none"
     id="path4557"
     inkscape:connector-curvature="0" /></g><g
   id="g4559"
   transform="matrix(1.2500003,0,0,-1.2500003,52.884412,39.693144)"
   style="fill:#000000;stroke:none"><path
     d="m 0,0 c -0.168,0.125 -0.36,0.185 -0.584,0.185 -0.338,0 -0.608,-0.15 -0.805,-0.447 -0.199,-0.299 -0.299,-0.728 -0.299,-1.293 0,-0.545 0.1,-0.945 0.297,-1.203 0.195,-0.258 0.453,-0.387 0.768,-0.387 0.296,0 0.537,0.098 0.718,0.297 0.182,0.199 0.272,0.461 0.272,0.785 0,0.321 -0.086,0.575 -0.256,0.764 -0.17,0.19 -0.379,0.285 -0.623,0.285 -0.318,0 -0.545,-0.16 -0.686,-0.474 0.01,0.425 0.061,0.74 0.159,0.947 0.097,0.207 0.248,0.312 0.445,0.312 0.254,0 0.414,-0.168 0.492,-0.504 l 0.445,0.141 C 0.279,-0.322 0.164,-0.123 0,0 m -0.625,-2.731 c -0.159,0 -0.284,0.061 -0.375,0.184 -0.094,0.123 -0.141,0.279 -0.141,0.469 0,0.183 0.045,0.338 0.135,0.463 0.09,0.127 0.219,0.185 0.39,0.185 0.143,0 0.256,-0.054 0.34,-0.162 0.086,-0.105 0.129,-0.267 0.129,-0.482 0,-0.438 -0.16,-0.657 -0.478,-0.657"
     style="fill:#000000;fill-opacity:1;fill-rule:nonzero;stroke:none"
     id="path4561"
     inkscape:connector-curvature="0" /></g><path
   d="m 55.166662,39.531769 0.66625,0 0,4.021251 -0.66625,0 0,-4.021251 z"
   style="fill:#000000;fill-opacity:1;fill-rule:nonzero;stroke:none"
   id="path4563"
   inkscape:connector-curvature="0" /><g
   id="g4565"
   transform="matrix(1.2500003,0,0,-1.2500003,56.645662,39.531894)"
   style="fill:#000000;stroke:none"><path
     d="m 0,0 0.629,0 1.057,-2.319 0,2.319 0.445,0 0,-3.217 -0.498,0 -1.185,2.576 0,-2.576 L 0,-3.217 0,0 z"
     style="fill:#000000;fill-opacity:1;fill-rule:nonzero;stroke:none"
     id="path4567"
     inkscape:connector-curvature="0" /></g><g
   id="g4569"
   transform="matrix(1.2500003,0,0,-1.2500003,62.131912,42.195519)"
   style="fill:#000000;stroke:none"><path
     d="m 0,0 0.49,-0.066 c -0.099,-0.719 -0.451,-1.077 -1.05,-1.077 -0.393,0 -0.682,0.151 -0.874,0.45 -0.191,0.3 -0.289,0.701 -0.289,1.205 0,0.539 0.104,0.955 0.307,1.244 0.199,0.287 0.492,0.431 0.875,0.431 0.59,0 0.936,-0.365 1.039,-1.095 L -0.004,1.019 c -0.055,0.491 -0.236,0.735 -0.541,0.735 -0.412,0 -0.617,-0.424 -0.617,-1.276 0,-0.791 0.207,-1.187 0.619,-1.187 0.166,0 0.287,0.062 0.371,0.184 C -0.092,-0.404 -0.033,-0.229 0,0"
     style="fill:#000000;fill-opacity:1;fill-rule:nonzero;stroke:none"
     id="path4571"
     inkscape:connector-curvature="0" /></g><g
   id="g4573"
   transform="matrix(1.2500003,0,0,-1.2500003,63.358162,39.531894)"
   style="fill:#000000;stroke:none"><path
     d="m 0,0 0.535,0 0,-1.332 0.947,0 0,1.332 0.535,0 0,-3.217 -0.535,0 0,1.434 -0.947,0 0,-1.434 L 0,-3.217 0,0 z"
     style="fill:#000000;fill-opacity:1;fill-rule:nonzero;stroke:none"
     id="path4575"
     inkscape:connector-curvature="0" /></g><g
   id="g4577"
   transform="matrix(1.2500003,0,0,-1.2500003,66.706922,39.531894)"
   style="fill:#000000;stroke:none"><path
     d="m 0,0 1.848,0 0,-0.428 -1.315,0 0,-0.916 1.03,0 0,-0.434 -1.03,0 0,-1.005 1.334,0 0,-0.434 L 0,-3.217 0,0 z"
     style="fill:#000000;fill-opacity:1;fill-rule:nonzero;stroke:none"
     id="path4579"
     inkscape:connector-curvature="0" /></g><g
   id="g4581"
   transform="matrix(1.2500003,0,0,-1.2500003,71.936922,40.433144)"
   style="fill:#000000;stroke:none"><path
     d="m 0,0 -0.453,-0.158 c -0.053,0.17 -0.123,0.299 -0.209,0.379 -0.088,0.082 -0.207,0.123 -0.358,0.123 -0.138,0 -0.248,-0.041 -0.324,-0.125 -0.076,-0.082 -0.115,-0.176 -0.115,-0.283 0,-0.119 0.045,-0.213 0.129,-0.282 0.084,-0.07 0.258,-0.156 0.511,-0.254 0.219,-0.082 0.387,-0.162 0.506,-0.238 0.116,-0.074 0.213,-0.174 0.284,-0.301 0.074,-0.128 0.111,-0.273 0.111,-0.439 0,-0.27 -0.096,-0.5 -0.287,-0.691 -0.192,-0.188 -0.457,-0.284 -0.803,-0.284 -0.594,0 -0.963,0.301 -1.104,0.905 l 0.479,0.132 c 0.082,-0.402 0.299,-0.603 0.65,-0.603 0.172,0 0.301,0.045 0.391,0.135 0.088,0.088 0.133,0.199 0.133,0.33 0,0.097 -0.031,0.185 -0.092,0.269 -0.061,0.08 -0.215,0.168 -0.459,0.262 -0.258,0.098 -0.443,0.18 -0.557,0.248 -0.117,0.067 -0.211,0.164 -0.293,0.297 -0.08,0.131 -0.121,0.281 -0.121,0.449 0,0.256 0.09,0.471 0.27,0.645 0.178,0.176 0.414,0.261 0.709,0.261 C -0.477,0.777 -0.145,0.518 0,0"
     style="fill:#000000;fill-opacity:1;fill-rule:nonzero;stroke:none"
     id="path4583"
     inkscape:connector-curvature="0" /></g><g
   id="g4585"
   transform="matrix(1.2500003,0,0,-1.2500003,72.749422,44.559395)"
   style="fill:#000000;stroke:none"><path
     d="m 0,0 -0.388,0 c 0.367,0.608 0.552,1.28 0.552,2.014 0,0.73 -0.185,1.4 -0.552,2.008 L 0,4.022 C 0.436,3.412 0.654,2.743 0.654,2.014 0.654,1.282 0.436,0.61 0,0"
     style="fill:#000000;fill-opacity:1;fill-rule:nonzero;stroke:none"
     id="path4587"
     inkscape:connector-curvature="0" /></g><path
   d="m 37.698162,153.74318 0,-9.71126 12.24875,0 c 3.1375,0 5.37875,2.0925 5.37875,4.78 0,2.99125 -2.0925,4.93126 -5.37875,4.93126 l -12.24875,0 z m -8.36375,24.52375 8.36375,0 0,-16.01001 11.20375,0 c 3.88375,0 5.67625,-0.4475 8.215,-1.7925 4.03375,-2.24125 6.57251,-6.72124 6.57251,-11.6525 0,-4.78 -2.53876,-9.11375 -6.57251,-11.50125 -2.39,-1.345 -4.18125,-1.7925 -7.76875,-1.7925 l -20.01375,0 0,42.74876 z"
   style="fill:#000000;fill-opacity:1;fill-rule:evenodd;stroke:none"
   id="path4285"
   inkscape:connector-curvature="0" /><path
   d="m 15.441902,102.40066 0,6.20125 4.6175,0 0,5.67376 9.69751,0 0,-5.61251 27.31375,0 0,5.34626 9.63376,0 0,-5.60751 4.615,0 0,-5.94 -0.92375,-1.31375 1.12625,-9.503749 -3.4325,-26.653756 c -0.225,-1.755001 -0.65,-3.500001 -1.71625,-4.946251 -0.61625,-0.832501 -1.3975,-1.567501 -2.28125,-2.108751 -0.69,-0.4225 -1.46,-0.66125 -2.27251,-0.66125 l -33.3175,0 c -1.43375,0 -2.915,0.0038 -4.31,0.405 -1.40125,0.3975 -2.63625,1.19625 -3.66375,2.22375 -1.10126,1.096251 -1.92126,2.471251 -2.12126,4.033751 l -3.3625,26.522507 1.19125,10.818749 -0.79375,1.1225 z"
   style="fill:#000000;fill-opacity:1;fill-rule:evenodd;stroke:none"
   id="path4289"
   inkscape:connector-curvature="0" /><path
   d="m 20.518162,103.51692 0.005,-1.64625 45.97876,0 0,1.64625 -45.98376,0 z"
   style="fill:#ffffff;fill-opacity:1;fill-rule:evenodd;stroke:none"
   id="path4293"
   inkscape:connector-curvature="0" /><path
   d="m 29.231662,58.919283 27.76875,0 0,6.335002 -27.76875,0 0,-6.335002 z"
   style="fill:#ffffff;fill-opacity:1;fill-rule:evenodd;stroke:none"
   id="path4295"
   inkscape:connector-curvature="0" /><path
   d="m 45.195662,66.90816 21.17501,1.38125 1.78,17.221254 -22.95501,0 0,-18.602504 z"
   style="fill:#ffffff;fill-opacity:1;fill-rule:evenodd;stroke:none"
   id="path4299"
   inkscape:connector-curvature="0" /><path
   d="m 18.474402,85.510664 1.97751,-17.021253 20.58375,-1.652501 0,18.673754 -22.56126,0 z"
   style="fill:#ffffff;fill-opacity:1;fill-rule:evenodd;stroke:none"
   id="path4303"
   inkscape:connector-curvature="0" /><path
   d="m 24.744412,97.121917 c -0.3075,0.55 -0.715,0.98 -1.32625,1.21375 -1.06875,0.415 -2.275,0.03875 -2.92625,-0.90125 -0.56751,-0.825 -0.56751,-1.93 0.002,-2.753751 0.64625,-0.93 1.865,-1.30375 2.92375,-0.9 0.61375,0.23125 1.01875,0.67625 1.32625,1.227501 0.3,-0.553751 0.705,-0.998751 1.31125,-1.232501 1.05,-0.39875 2.2825,-0.0125 2.9225,0.9025 0.58,0.826251 0.5825,1.917501 0.0113,2.750001 -0.63375,0.93 -1.8775,1.325 -2.93375,0.92 -0.60625,-0.235 -1.00875,-0.67625 -1.31125,-1.22625"
   style="fill:#ffffff;fill-opacity:1;fill-rule:evenodd;stroke:none"
   id="path4307"
   inkscape:connector-curvature="0" /><path
   d="m 61.814412,97.054292 c -0.295,0.55375 -0.705,1.0075 -1.31625,1.2375 -1.0425,0.38875 -2.2825,0.03625 -2.9175,-0.88875 -0.57625,-0.84 -0.585,-1.90875 -0.0213,-2.756251 0.635,-0.955 1.8775,-1.33 2.93875,-0.915 0.6275,0.24375 0.99875,0.65375 1.31625,1.210001 0.30501,-0.546251 0.71251,-0.983751 1.31126,-1.215001 1.055,-0.4175 2.3025,-0.01 2.9375,0.92 0.47125,0.693751 0.56875,1.542501 0.22625,2.315001 -0.4875,1.1 -1.59875,1.63 -2.76875,1.44 -0.8075,-0.1325 -1.3375,-0.65875 -1.70626,-1.3475"
   style="fill:#ffffff;fill-opacity:1;fill-rule:evenodd;stroke:none"
   id="path4311"
   inkscape:connector-curvature="0" /><path
   d="m 60.461912,193.75056 10.205,6.9025 -10.205,6.91375 c -0.44875,0.3075 -1.06375,0.1875 -1.3725,-0.26125 -0.2025,-0.3 -0.165,-0.61 -0.07,-0.98125 l 0.89875,-2.99375 -44.21251,0 0,-5.34625 44.21251,0 -0.88,-2.94875 c -0.11125,-0.40875 -0.16,-0.70875 0.0513,-1.02125 0.30875,-0.45125 0.92375,-0.56875 1.3725,-0.26375"
   style="fill:#bf2519;fill-opacity:1;fill-rule:evenodd;stroke:none"
   id="path4281"
   inkscape:connector-curvature="0" /><path
   d="m 60.451912,178.66306 c -11.05875,8.57875 -27.09876,7.5725 -37.01876,-2.34625 -9.91875,-9.91751 -11.00375,-25.88126 -2.4025,-36.96251 l 39.42126,39.30876 z m 4.98375,-4.9825 c 8.58125,-11.06001 7.5725,-27.10001 -2.34625,-37.02001 -9.9175,-9.91876 -25.88125,-11.00251 -36.96376,-2.4025 l 39.31001,39.42251 z M 18.376902,131.6243 c 13.70125,-13.70376 36.05001,-13.70376 49.75126,0 13.70126,13.69875 13.70126,36.0475 0,49.75126 -13.70125,13.70125 -36.05001,13.70125 -49.75126,0 -13.7012494,-13.70376 -13.7012494,-36.05251 0,-49.75126"
   style="fill:#bf2519;fill-opacity:1;fill-rule:evenodd;stroke:none"
   id="path4315"
   inkscape:connector-curvature="0" /></svg>