<?xml version="1.0" encoding="UTF-8" standalone="no"?>
<!-- Generator: Adobe Illustrator 14.0.0, SVG Export Plug-In  -->

<svg
   xmlns:dc="http://purl.org/dc/elements/1.1/"
   xmlns:cc="http://creativecommons.org/ns#"
   xmlns:rdf="http://www.w3.org/1999/02/22-rdf-syntax-ns#"
   xmlns:svg="http://www.w3.org/2000/svg"
   xmlns="http://www.w3.org/2000/svg"
   xmlns:sodipodi="http://sodipodi.sourceforge.net/DTD/sodipodi-0.dtd"
   xmlns:inkscape="http://www.inkscape.org/namespaces/inkscape"
   version="1.1"
   x="0px"
   y="0px"
   width="86.812477"
   height="129.90622"
   viewBox="0 -0.321 86.81248 129.90625"
   enable-background="new 0 -0.321 144 120"
   xml:space="preserve"
   id="svg2"
   inkscape:version="0.48.2 r9819"
   sodipodi:docname="MUTCD R7-23.svg"><metadata
   id="metadata44"><rdf:RDF><cc:Work
       rdf:about=""><dc:format>image/svg+xml</dc:format><dc:type
         rdf:resource="http://purl.org/dc/dcmitype/StillImage" /><dc:title></dc:title></cc:Work></rdf:RDF></metadata><sodipodi:namedview
   pagecolor="#ffffff"
   bordercolor="#666666"
   borderopacity="1"
   objecttolerance="10"
   gridtolerance="10"
   guidetolerance="10"
   inkscape:pageopacity="0"
   inkscape:pageshadow="2"
   inkscape:window-width="1280"
   inkscape:window-height="1004"
   id="namedview42"
   showgrid="false"
   fit-margin-top="0"
   fit-margin-left="0"
   fit-margin-right="0"
   fit-margin-bottom="0"
   inkscape:zoom="2.6802662"
   inkscape:cx="55.253278"
   inkscape:cy="46.258658"
   inkscape:window-x="-8"
   inkscape:window-y="-8"
   inkscape:window-maximized="1"
   inkscape:current-layer="svg2" />
<defs
   id="defs4">
</defs>


















<path
   d="m 86.462141,118.45754 c 0,5.945 -4.822501,10.765 -10.767503,10.765 l -64.592515,0 c -5.9450008,0 -10.7650017,-4.82 -10.7650017,-10.765 l 0,-107.65628 c 0,-5.945 4.8200009,-10.765 10.7650017,-10.765 l 64.592515,0 c 5.945002,0 10.767503,4.82 10.767503,10.765 l 0,107.65628 z"
   style="fill:#ffffff;fill-opacity:1;fill-rule:nonzero;stroke:#000000;stroke-width:0.70000016;stroke-miterlimit:4;stroke-opacity:1;stroke-dasharray:none"
   id="path4869"
   inkscape:connector-curvature="0" /><path
   d="m 80.62964,118.45754 c 0,2.72 -2.215001,4.935 -4.935001,4.935 l -64.592516,0 c -2.7212508,0 -4.9337508,-2.215 -4.9337508,-4.935 l 0,-107.65628 c 0,-2.72 2.2125,-4.93375 4.9337508,-4.93375 l 64.592516,0 c 2.72,0 4.935001,2.21375 4.935001,4.93375 l 0,107.65628 z M 75.694639,2.72751 l -64.592516,0 c -4.4512508,0 -8.0737518,3.6225 -8.0737518,8.07375 l 0,107.65628 c 0,4.45125 3.622501,8.07375 8.0737518,8.07375 l 64.592516,0 c 4.453751,0 8.073752,-3.6225 8.073752,-8.07375 l 0,-107.65628 c 0,-4.45125 -3.620001,-8.07375 -8.073752,-8.07375"
   style="fill:#00674c;fill-opacity:1;fill-rule:nonzero;stroke:none"
   id="path4877"
   inkscape:connector-curvature="0" /><path
   d="m 43.423501,57.486043 c -11.891252,0 -21.531255,-9.641252 -21.531255,-21.531255 0,-11.892502 9.640003,-21.530005 21.531255,-21.530005 11.891253,0 21.530005,9.637503 21.530005,21.530005 0,11.890003 -9.638752,21.531255 -21.530005,21.531255 m 0,-48.4450113 c -14.823753,0 -26.912506,12.0900033 -26.912506,26.9137563 0,14.822504 12.088753,26.911257 26.912506,26.911257 14.822504,0 26.912507,-12.088753 26.912507,-26.911257 0,-14.823753 -12.090003,-26.9137563 -26.912507,-26.9137563"
   style="fill:#00674c;fill-opacity:1;fill-rule:evenodd;stroke:none"
   id="path4627"
   inkscape:connector-curvature="0" /><path
   d="m 49.011878,26.279916 -9.342502,0 0,7.361251 9.342502,0 c 2.507501,0 4.101251,-1.4725 4.101251,-3.73875 0,-2.037501 -1.70875,-3.622501 -4.101251,-3.622501 m 5.468751,12.456252 c -1.93625,1.020001 -3.303751,1.360001 -6.266251,1.360001 l -8.545002,0 0,12.116253 -6.378752,0 0,-32.387508 15.266254,0 c 2.73375,0 4.101251,0.33875 5.923751,1.360001 3.076251,1.81125 5.013751,5.095001 5.013751,8.717502 0,3.73875 -1.9375,7.136251 -5.013751,8.833751"
   style="fill:#000000;fill-opacity:1;fill-rule:nonzero;stroke:none"
   id="path4623"
   inkscape:connector-curvature="0" /><path
   d="m 60.958135,105.71606 c -0.4525,-0.3075 -1.0725,-0.19125 -1.38,0.26375 -0.215,0.315 -0.1675,0.62 -0.0525,1.03 l 0.885,2.96625 -33.975008,0.007 0.90625,-3.0175 c 0.095,-0.37125 0.13125,-0.68375 -0.07375,-0.98625 -0.3075,-0.455 -0.92875,-0.57125 -1.38,-0.26375 l -10.276252,6.96 10.276252,6.95125 c 0.45125,0.3075 1.0725,0.19 1.38,-0.26375 0.215,-0.315 0.16625,-0.62 0.0525,-1.03 l -0.885,-2.9675 33.975008,-0.006 -0.9075,3.015 c -0.09375,0.37375 -0.13,0.68625 0.075,0.98875 0.3075,0.45375 0.9275,0.57125 1.38,0.26375 l 10.275003,-6.96125 -10.275003,-6.95 z"
   style="fill:#00674c;fill-opacity:1;fill-rule:evenodd;stroke:none"
   id="path4715"
   inkscape:connector-curvature="0" /><path
   d="m 20.174376,89.463555 c -0.2975,0.54375 -0.57,1.09625 -0.81875,1.65 -0.5925,1.321251 -1.02375,2.538751 -1.291251,3.660001 -0.44,1.893751 -0.6175,4.285001 -0.53125,7.175004 l -1.86625,0 c 0,-2.986253 0.215,-5.458753 0.64625,-7.421254 0.37375,-1.7025 1.03875,-3.39125 1.995001,-5.066251 l -4.306251,0.0025 0,-1.87 6.172501,0 0,1.87 z"
   style="fill:#00674c;fill-opacity:1;fill-rule:nonzero;stroke:none"
   id="path4719"
   inkscape:connector-curvature="0" /><path
   d="m 26.449377,96.489932 -0.83375,-4.057501 -0.84625,4.057501 1.68,0 z m 3.042501,5.458748 -1.922501,0 -0.7325,-3.588748 -2.44125,0 -0.745,3.588748 -1.910001,0 2.942501,-14.355 1.86625,0 2.942501,14.355 z"
   style="fill:#00674c;fill-opacity:1;fill-rule:nonzero;stroke:none"
   id="path4723"
   inkscape:connector-curvature="0" /><path
   d="m 38.53938,101.94868 -1.86875,0 0,-8.325004 -1.645001,5.166251 -1.645,-5.166251 0,8.325004 -1.868751,0 0,-14.355005 1.863751,0 1.65,5.312501 1.778751,-5.312501 1.735,0 0,14.355005 z"
   style="fill:#00674c;fill-opacity:1;fill-rule:nonzero;stroke:none"
   id="path4727"
   inkscape:connector-curvature="0" /><path
   d="m 46.426632,95.931057 -4.447501,0 0,-1.858751 4.447501,0 0,1.858751 z"
   style="fill:#00674c;fill-opacity:1;fill-rule:nonzero;stroke:none"
   id="path4729"
   inkscape:connector-curvature="0" /><path
   d="m 53.548134,97.686182 c 0,-1.71375 -0.423751,-2.571251 -1.272501,-2.571251 -0.515,0 -0.8575,0.322501 -1.02875,0.962501 -0.085,0.33625 -0.12875,0.87125 -0.12875,1.60875 0,0.68125 0.08625,1.25 0.25625,1.70875 0.20125,0.556251 0.50125,0.834998 0.90125,0.834998 0.84875,0 1.272501,-0.849998 1.272501,-2.543748 m 1.86875,-8.847502 c -1.86375,1.57875 -2.996251,3.071251 -3.397501,4.467501 0.23,-0.06625 0.45375,-0.1 0.67375,-0.1 0.812501,0 1.470001,0.3975 1.971251,1.19375 0.5025,0.79375 0.7525,1.895001 0.7525,3.303751 0,1.415 -0.29625,2.511248 -0.88875,3.287498 -0.555,0.7375 -1.306251,1.10625 -2.252501,1.10625 -2.0175,0 -3.0275,-1.47 -3.0275,-4.408748 0,-4.348751 1.7225,-7.825002 5.165001,-10.430002 l 1.00375,1.58 z"
   style="fill:#00674c;fill-opacity:1;fill-rule:nonzero;stroke:none"
   id="path4733"
   inkscape:connector-curvature="0" /><path
   d="m 61.921886,91.772431 c 0,-1.596251 -0.478751,-2.367501 -1.432501,-2.308751 l -1,0 0,4.447501 1,0 c 0.95375,-0.02875 1.432501,-0.74125 1.432501,-2.13875 m 1.86875,0 c 0,1.61875 -0.49625,2.76875 -1.49125,3.4475 -0.555001,0.373751 -1.123751,0.561251 -1.706251,0.561251 l -1.10375,0 0,6.167498 -1.866251,0 0,-14.355 2.866251,0 c 0.70125,0 1.30375,0.1675 1.807501,0.5025 0.99625,0.66125 1.49375,1.8875 1.49375,3.676251"
   style="fill:#00674c;fill-opacity:1;fill-rule:nonzero;stroke:none"
   id="path4737"
   inkscape:connector-curvature="0" /><path
   d="m 72.844388,101.94868 -1.86875,0 0,-8.325004 -1.645001,5.166251 -1.645,-5.166251 0,8.325004 -1.868751,0 0,-14.355005 1.863751,0 1.65,5.312501 1.778751,-5.312501 1.735,0 0,14.355005 z"
   style="fill:#00674c;fill-opacity:1;fill-rule:nonzero;stroke:none"
   id="path4741"
   inkscape:connector-curvature="0" /><path
   d="m 21.473126,82.212428 -1.86875,0 0,-12.397502 -1.14625,0 0,-1.07125 c 0.305,-0.01 0.61625,-0.0975 0.9325,-0.26375 0.31625,-0.16875 0.565,-0.37375 0.74625,-0.622501 l 1.33625,0 0,14.355003 z"
   style="fill:#00674c;fill-opacity:1;fill-rule:nonzero;stroke:none"
   id="path4745"
   inkscape:connector-curvature="0" /><path
   d="m 40.843131,82.212428 -1.868751,0 0,-6.741251 -2.43,0 0,6.741251 -1.870001,0 0,-14.355003 1.870001,0 0,5.743752 2.43,0 0,-5.743752 1.868751,0 0,14.355003 z"
   style="fill:#00674c;fill-opacity:1;fill-rule:nonzero;stroke:none"
   id="path4749"
   inkscape:connector-curvature="0" /><path
   d="m 46.870632,69.578676 c -0.56375,0 -0.95625,0.5 -1.17375,1.50625 -0.1725,0.815 -0.26,2.131251 -0.26,3.950001 0,1.598751 0.035,2.671251 0.10125,3.2175 0.20125,1.491251 0.645,2.238751 1.3325,2.238751 0.66875,0 1.10375,-0.7475 1.30375,-2.238751 0.08625,-0.632499 0.12875,-1.703749 0.12875,-3.2175 0,-1.81875 -0.085,-3.135001 -0.2575,-3.950001 -0.21875,-1.00625 -0.61125,-1.50625 -1.175,-1.50625 m 0,-1.870001 c 1.33,0 2.24,0.676251 2.728751,2.026251 0.38125,1.05125 0.57375,2.818751 0.57375,5.300001 0,2.421251 -0.1725,4.147501 -0.5175,5.171251 -0.4875,1.4375 -1.416251,2.155 -2.785001,2.155 -1.3975,0 -2.335001,-0.74625 -2.813751,-2.24125 -0.32625,-1.005 -0.48875,-2.7 -0.48875,-5.085001 0,-2.43125 0.20625,-4.200001 0.61875,-5.300001 0.50625,-1.35 1.401251,-2.026251 2.683751,-2.026251"
   style="fill:#00674c;fill-opacity:1;fill-rule:nonzero;stroke:none"
   id="path4753"
   inkscape:connector-curvature="0" /><path
   d="m 59.073135,79.331178 c 0,0.81375 -0.31625,1.52125 -0.9475,2.125 -0.631251,0.6025 -1.362501,0.905 -2.195001,0.905 -0.87,0 -1.60125,-0.315 -2.195,-0.9475 -0.553751,-0.6025 -0.831251,-1.29875 -0.831251,-2.0825 l 0,-11.473753 1.868751,0 0,11.471253 c 0,0.27875 0.095,0.5325 0.28625,0.7625 0.2375,0.26875 0.5475,0.4 0.92875,0.4 0.38125,0 0.69125,-0.13125 0.92875,-0.4 0.19,-0.23 0.28625,-0.48375 0.28625,-0.7625 l 0,-11.471253 1.870001,0 0,11.473753 z"
   style="fill:#00674c;fill-opacity:1;fill-rule:nonzero;stroke:none"
   id="path4757"
   inkscape:connector-curvature="0" /><path
   d="m 66.520637,71.736051 c 0,-1.34 -0.410001,-2.00875 -1.231251,-2.00875 l -1.2025,0 0,3.873751 1.16,0 c 0.84875,0 1.273751,-0.6225 1.273751,-1.865001 m 1.86875,10.476252 -1.9075,0 -1.491251,-6.741251 -0.90375,0 0,6.741251 -1.865,0 0,-14.355003 2.5825,0 c 0.81125,0 1.501251,0.172501 2.065001,0.517501 1.01375,0.6325 1.52,1.75 1.52,3.35875 0,1.655001 -0.5225,2.761251 -1.57,3.316251 l 1.57,7.162501 z"
   style="fill:#00674c;fill-opacity:1;fill-rule:nonzero;stroke:none"
   id="path4761"
   inkscape:connector-curvature="0" /></svg>