<?xml version="1.0" encoding="UTF-8" standalone="no"?>
<!-- Generator: Adobe Illustrator 14.0.0, SVG Export Plug-In  -->

<svg
   xmlns:dc="http://purl.org/dc/elements/1.1/"
   xmlns:cc="http://creativecommons.org/ns#"
   xmlns:rdf="http://www.w3.org/1999/02/22-rdf-syntax-ns#"
   xmlns:svg="http://www.w3.org/2000/svg"
   xmlns="http://www.w3.org/2000/svg"
   xmlns:sodipodi="http://sodipodi.sourceforge.net/DTD/sodipodi-0.dtd"
   xmlns:inkscape="http://www.inkscape.org/namespaces/inkscape"
   version="1.1"
   x="0px"
   y="0px"
   width="86.812477"
   height="129.90622"
   viewBox="0 -0.321 86.81248 129.90625"
   enable-background="new 0 -0.321 144 120"
   xml:space="preserve"
   id="svg2"
   inkscape:version="0.48.2 r9819"
   sodipodi:docname="MUTCD R7-22.svg"><metadata
   id="metadata44"><rdf:RDF><cc:Work
       rdf:about=""><dc:format>image/svg+xml</dc:format><dc:type
         rdf:resource="http://purl.org/dc/dcmitype/StillImage" /><dc:title></dc:title></cc:Work></rdf:RDF></metadata><sodipodi:namedview
   pagecolor="#ffffff"
   bordercolor="#666666"
   borderopacity="1"
   objecttolerance="10"
   gridtolerance="10"
   guidetolerance="10"
   inkscape:pageopacity="0"
   inkscape:pageshadow="2"
   inkscape:window-width="1280"
   inkscape:window-height="1004"
   id="namedview42"
   showgrid="false"
   fit-margin-top="0"
   fit-margin-left="0"
   fit-margin-right="0"
   fit-margin-bottom="0"
   inkscape:zoom="2.6802662"
   inkscape:cx="55.253278"
   inkscape:cy="46.258658"
   inkscape:window-x="-8"
   inkscape:window-y="-8"
   inkscape:window-maximized="1"
   inkscape:current-layer="svg2" />
<defs
   id="defs4">
</defs>


















<path
   d="m 86.462141,118.45754 c 0,5.945 -4.822501,10.765 -10.767503,10.765 l -64.592515,0 c -5.9450008,0 -10.7650017,-4.82 -10.7650017,-10.765 l 0,-107.65628 c 0,-5.945 4.8200009,-10.765 10.7650017,-10.765 l 64.592515,0 c 5.945002,0 10.767503,4.82 10.767503,10.765 l 0,107.65628 z"
   style="fill:#ffffff;fill-opacity:1;fill-rule:nonzero;stroke:#000000;stroke-width:0.70000016;stroke-miterlimit:4;stroke-opacity:1;stroke-dasharray:none"
   id="path4869"
   inkscape:connector-curvature="0" /><path
   d="m 80.62964,118.45754 c 0,2.72 -2.215001,4.935 -4.935001,4.935 l -64.592516,0 c -2.7212508,0 -4.9337508,-2.215 -4.9337508,-4.935 l 0,-107.65628 c 0,-2.72 2.2125,-4.93375 4.9337508,-4.93375 l 64.592516,0 c 2.72,0 4.935001,2.21375 4.935001,4.93375 l 0,107.65628 z M 75.694639,2.72751 l -64.592516,0 c -4.4512508,0 -8.0737518,3.6225 -8.0737518,8.07375 l 0,107.65628 c 0,4.45125 3.622501,8.07375 8.0737518,8.07375 l 64.592516,0 c 4.453751,0 8.073752,-3.6225 8.073752,-8.07375 l 0,-107.65628 c 0,-4.45125 -3.620001,-8.07375 -8.073752,-8.07375"
   style="fill:#00674c;fill-opacity:1;fill-rule:nonzero;stroke:none"
   id="path4877"
   inkscape:connector-curvature="0" /><path
   d="m 43.423501,57.486043 c -11.891252,0 -21.531255,-9.641252 -21.531255,-21.531255 0,-11.892502 9.640003,-21.530005 21.531255,-21.530005 11.891253,0 21.530005,9.637503 21.530005,21.530005 0,11.890003 -9.638752,21.531255 -21.530005,21.531255 m 0,-48.4450113 c -14.823753,0 -26.912506,12.0900033 -26.912506,26.9137563 0,14.822504 12.088753,26.911257 26.912506,26.911257 14.822504,0 26.912507,-12.088753 26.912507,-26.911257 0,-14.823753 -12.090003,-26.9137563 -26.912507,-26.9137563"
   style="fill:#00674c;fill-opacity:1;fill-rule:evenodd;stroke:none"
   id="path4627"
   inkscape:connector-curvature="0" /><path
   d="m 60.957755,105.71605 c -0.45125,-0.3075 -1.0725,-0.19125 -1.38,0.26375 -0.21375,0.3175 -0.16625,0.62 -0.05375,1.03 l 0.885,2.96624 -33.972508,0.008 0.906251,-3.01499 c 0.095,-0.37375 0.13125,-0.68625 -0.07375,-0.98875 -0.307501,-0.4525 -0.927501,-0.57125 -1.381251,-0.26375 l -10.273752,6.96249 10.273752,6.94876 c 0.45375,0.3075 1.07375,0.19 1.381251,-0.26375 0.215,-0.315 0.1675,-0.62 0.0525,-1.03 l -0.885001,-2.96751 33.972508,-0.006 -0.905,3.01751 c -0.095,0.37125 -0.1325,0.68375 0.07375,0.98625 0.3075,0.45375 0.92875,0.57125 1.38,0.26375 l 10.275003,-6.96126 -10.275003,-6.94999 z"
   style="fill:#00674c;fill-opacity:1;fill-rule:evenodd;stroke:none"
   id="path4631"
   inkscape:connector-curvature="0" /><path
   d="m 22.548246,71.587422 c 0,-1.337501 -0.36,-2.008751 -1.07875,-2.008751 -0.71,0 -1.065,0.67125 -1.065,2.008751 0,1.31125 0.355,1.965 1.065,1.965 0.71875,0 1.07875,-0.65375 1.07875,-1.965 m 0.13625,6.318751 c 0,-1.705 -0.405,-2.55875 -1.21375,-2.55875 -0.81125,0 -1.21625,0.85375 -1.21625,2.55875 0,1.726251 0.405,2.587501 1.21625,2.587501 0.80875,0 1.21375,-0.86125 1.21375,-2.587501 m 1.868751,0.005 c -0.02875,2.968751 -1.05625,4.452501 -3.082501,4.452501 -1.025,0 -1.80375,-0.4175 -2.33875,-1.25 -0.4975,-0.77625 -0.74625,-1.842501 -0.74625,-3.202501 0,-1.8025 0.33625,-2.968751 1.00625,-3.506251 -0.52125,-0.46875 -0.78125,-1.40875 -0.78125,-2.815 0,-1.245001 0.25875,-2.205001 0.775,-2.873751 0.5175,-0.67125 1.21125,-1.00625 2.0825,-1.00625 0.89875,0 1.603751,0.35 2.110001,1.0475 0.5075,0.70125 0.76625,1.64375 0.77625,2.832501 0.0088,1.30125 -0.2575,2.23625 -0.80125,2.8 0.2675,0.19125 0.495,0.59375 0.68625,1.206251 0.21875,0.68125 0.32375,1.4525 0.31375,2.315"
   style="fill:#00674c;fill-opacity:1;fill-rule:nonzero;stroke:none"
   id="path4635"
   inkscape:connector-curvature="0" /><path
   d="m 36.179875,77.722298 c 0,1.445 -0.285,2.581251 -0.853751,3.406251 -0.56875,0.8225 -1.33,1.235 -2.2875,1.235 -1.873751,0 -2.882501,-0.98875 -3.026251,-2.96625 l 1.863751,0 c -0.01,0.73 0.37625,1.09625 1.16,1.09625 0.85,0 1.275,-0.8075 1.275,-2.426251 0,-1.245 -0.23,-2.06875 -0.69,-2.47125 -0.21,-0.1825 -0.52625,-0.27375 -0.94875,-0.27375 l -0.51625,0 0,-1.867501 c 0.54625,0 0.93375,-0.0825 1.165,-0.24375 0.46875,-0.345 0.70375,-1.08125 0.70375,-2.2125 0,-0.946251 -0.40375,-1.420001 -1.2125,-1.420001 -0.22875,0 -0.4275,0.1025 -0.59875,0.3025 -0.17125,0.2 -0.2575,0.42 -0.2575,0.65625 l -1.868751,0 c 0,-0.45875 0.13375,-0.9475 0.40125,-1.4625 0.47875,-0.91 1.252501,-1.365 2.323751,-1.365 0.87875,0 1.605,0.29875 2.17875,0.89125 0.60125,0.6225 0.903751,1.46 0.903751,2.512501 0,1.61875 -0.346251,2.67375 -1.035001,3.16125 0.880001,0.48875 1.320001,1.638751 1.320001,3.447501"
   style="fill:#00674c;fill-opacity:1;fill-rule:nonzero;stroke:none"
   id="path4639"
   inkscape:connector-curvature="0" /><path
   d="m 39.91275,75.037423 c 0,1.89375 0.095,3.24875 0.286251,4.0625 0.21,0.930001 0.5925,1.393751 1.14625,1.393751 0.6975,0 1.14125,-0.75625 1.3325,-2.267501 0.0675,-0.50875 0.1,-1.57 0.1,-3.18875 0,-1.600001 -0.0325,-2.661251 -0.1,-3.188751 -0.19125,-1.513751 -0.635,-2.270001 -1.3325,-2.270001 -0.55375,0 -0.93625,0.46625 -1.14625,1.393751 -0.19125,0.8125 -0.286251,2.1675 -0.286251,4.065001 m -1.86875,0 c 0,-2.815001 0.2425,-4.751252 0.73125,-5.803752 0.46875,-1.015 1.325001,-1.52375 2.570001,-1.52375 1.24375,0 2.105,0.5225 2.58375,1.565 0.478751,1.045 0.717501,2.965001 0.717501,5.762502 0,2.83375 -0.24375,4.772501 -0.732501,5.817501 -0.45875,1.00625 -1.315,1.50875 -2.56875,1.50875 -1.2725,0 -2.141251,-0.5125 -2.605001,-1.5375 C 38.2765,79.799924 38.044,77.871173 38.044,75.037423"
   style="fill:#00674c;fill-opacity:1;fill-rule:nonzero;stroke:none"
   id="path4643"
   inkscape:connector-curvature="0" /><path
   d="m 56.669379,76.756173 -0.8325,-4.060001 -0.8475,4.060001 1.68,0 z m 3.043751,5.456251 -1.925,0 -0.73125,-3.586251 -2.441251,0 -0.745,3.586251 -1.910001,0 2.942501,-14.352503 1.86625,0 2.943751,14.352503 z"
   style="fill:#00674c;fill-opacity:1;fill-rule:nonzero;stroke:none"
   id="path4647"
   inkscape:connector-curvature="0" /><path
   d="m 68.759257,82.212424 -1.86875,0 0,-8.325002 -1.645001,5.168751 -1.645,-5.168751 0,8.325002 -1.86875,0 0,-14.352503 1.86375,0 1.65,5.310001 1.777501,-5.310001 1.73625,0 0,14.352503 z"
   style="fill:#00674c;fill-opacity:1;fill-rule:nonzero;stroke:none"
   id="path4651"
   inkscape:connector-curvature="0" /><path
   d="m 14.50262,89.466176 -1.795001,0 0,12.482504 -1.86875,0 0,-12.482504 -1.7937506,0 0,-1.870001 5.4575016,0 0,1.870001 z"
   style="fill:#00674c;fill-opacity:1;fill-rule:nonzero;stroke:none"
   id="path4655"
   inkscape:connector-curvature="0" /><path
   d="m 19.384246,89.314926 c -0.5625,0 -0.955,0.5025 -1.175,1.50875 -0.17125,0.8125 -0.257501,2.131251 -0.257501,3.950001 0,1.598751 0.03375,2.671251 0.100001,3.215001 0.20125,1.49375 0.645,2.241252 1.3325,2.241252 0.66875,0 1.10375,-0.747502 1.305,-2.241252 0.085,-0.6325 0.1275,-1.703751 0.1275,-3.215001 0,-1.81875 -0.085,-3.137501 -0.2575,-3.950001 -0.21875,-1.00625 -0.61125,-1.50875 -1.175,-1.50875 m 0,-1.867501 c 1.33,0 2.24,0.673751 2.72875,2.023751 0.38125,1.05375 0.57375,2.821251 0.57375,5.302501 0,2.421251 -0.1725,4.145001 -0.5175,5.171251 -0.4875,1.435002 -1.41625,2.152502 -2.785,2.152502 -1.397501,0 -2.335001,-0.74375 -2.813751,-2.238752 -0.325,-1.005 -0.48875,-2.7025 -0.48875,-5.085001 0,-2.43375 0.20625,-4.200001 0.6175,-5.302501 0.50875,-1.35 1.403751,-2.023751 2.685001,-2.023751"
   style="fill:#00674c;fill-opacity:1;fill-rule:nonzero;stroke:none"
   id="path4659"
   inkscape:connector-curvature="0" /><path
   d="m 35.454749,96.203552 c 0,1.971251 -0.49125,3.491251 -1.4775,4.561248 -0.82125,0.88875 -1.81625,1.3325 -2.982501,1.3325 -0.79375,0 -1.3625,-0.22 -1.7075,-0.66125 l 0.96,-1.626247 c 0.23,0.281247 0.50625,0.419997 0.83125,0.419997 0.831251,0 1.481251,-0.497497 1.950001,-1.491247 0.3725,-0.77375 0.5575,-1.62375 0.5575,-2.551251 0,-1.3675 -0.44875,-2.05125 -1.34625,-2.05125 -0.42,0 -0.7075,0.2125 -0.860001,0.6375 l -1.9625,-0.3175 0.2725,-6.860002 5.411251,0 0,1.870001 -3.575,0 -0.128751,2.838751 c 0.211251,-0.04875 0.502501,-0.0725 0.875001,-0.0725 2.12125,0 3.1825,1.3225 3.1825,3.97125"
   style="fill:#00674c;fill-opacity:1;fill-rule:nonzero;stroke:none"
   id="path4663"
   inkscape:connector-curvature="0" /><path
   d="m 47.089252,97.458553 c 0,1.44625 -0.285,2.581247 -0.855,3.403747 -0.56875,0.825 -1.33,1.235 -2.287501,1.235 -1.87375,0 -2.88125,-0.98625 -3.02625,-2.963747 l 1.86375,0 c -0.01,0.73 0.37625,1.096247 1.16,1.096247 0.850001,0 1.276251,-0.807497 1.276251,-2.426247 0,-1.245 -0.23125,-2.068751 -0.69,-2.471251 -0.21125,-0.1825 -0.527501,-0.27375 -0.948751,-0.27375 l -0.5175,0 0,-1.8675 c 0.54625,0 0.93375,-0.0825 1.165001,-0.24375 0.46875,-0.34375 0.70375,-1.081251 0.70375,-2.212501 0,-0.94625 -0.40375,-1.42 -1.211251,-1.42 -0.22875,0 -0.42875,0.1 -0.6,0.3025 -0.1725,0.2 -0.2575,0.42 -0.2575,0.65625 l -1.86875,0 c 0,-0.45875 0.13375,-0.9475 0.40125,-1.465 0.47875,-0.9075 1.2525,-1.361251 2.32375,-1.361251 0.878751,0 1.605001,0.295 2.178751,0.890001 0.60125,0.6225 0.9025,1.46 0.9025,2.5125 0,1.618751 -0.345,2.673751 -1.03375,3.161251 0.88,0.48875 1.32125,1.63875 1.32125,3.447501"
   style="fill:#00674c;fill-opacity:1;fill-rule:nonzero;stroke:none"
   id="path4667"
   inkscape:connector-curvature="0" /><path
   d="m 50.821003,94.773677 c 0,1.893751 0.095,3.248751 0.28625,4.062501 0.21,0.93 0.5925,1.393752 1.14625,1.393752 0.697501,0 1.142501,-0.756252 1.332501,-2.267502 0.0675,-0.50875 0.1,-1.5725 0.1,-3.188751 0,-1.59875 -0.0325,-2.66375 -0.1,-3.188751 -0.19,-1.51375 -0.635,-2.27 -1.332501,-2.27 -0.55375,0 -0.93625,0.46625 -1.14625,1.39375 -0.19125,0.8125 -0.28625,2.167501 -0.28625,4.065001 m -1.86875,0 c 0,-2.817501 0.24375,-4.751251 0.7325,-5.803751 0.46875,-1.015 1.32375,-1.522501 2.56875,-1.522501 1.245001,0 2.105001,0.521251 2.583751,1.563751 0.47875,1.045 0.7175,2.965 0.7175,5.762501 0,2.833751 -0.24375,4.772501 -0.73125,5.817503 -0.46,1.00625 -1.31625,1.50625 -2.570001,1.50625 -1.2725,0 -2.14125,-0.51 -2.60625,-1.535 -0.46375,-1.026252 -0.695,-2.955002 -0.695,-5.788753"
   style="fill:#00674c;fill-opacity:1;fill-rule:nonzero;stroke:none"
   id="path4671"
   inkscape:connector-curvature="0" /><path
   d="m 66.879382,91.774801 c 0,-1.59875 -0.47875,-2.3675 -1.432501,-2.30875 l -1,0 0,4.447501 1,0 c 0.953751,-0.02875 1.432501,-0.74125 1.432501,-2.138751 m 1.86875,0 c 0,1.618751 -0.4975,2.766251 -1.49125,3.447501 -0.555,0.37375 -1.12375,0.55875 -1.7075,0.55875 l -1.102501,0 0,6.167498 -1.8675,0 0,-14.3525 2.8675,0 c 0.701251,0 1.303751,0.1675 1.807501,0.502501 0.99625,0.66125 1.49375,1.8875 1.49375,3.67625"
   style="fill:#00674c;fill-opacity:1;fill-rule:nonzero;stroke:none"
   id="path4675"
   inkscape:connector-curvature="0" /><path
   d="m 77.800384,101.94868 -1.8675,0 0,-8.325003 -1.64625,5.168751 -1.642501,-5.168751 0,8.325003 -1.87,0 0,-14.352505 1.865,0 1.647501,5.310002 1.78,-5.310002 1.73375,0 0,14.352505 z"
   style="fill:#00674c;fill-opacity:1;fill-rule:nonzero;stroke:none"
   id="path4679"
   inkscape:connector-curvature="0" /><path
   d="m 28.469873,72.186172 c 0,-0.60125 -0.45,-1.05 -1.05,-1.05 -0.548751,0 -1.050001,0.44875 -1.050001,1.05 0,0.5975 0.50125,1.04875 1.050001,1.04875 0.6,0 1.05,-0.45125 1.05,-1.04875"
   style="fill:#00674c;fill-opacity:1;fill-rule:evenodd;stroke:none"
   id="path5181"
   inkscape:connector-curvature="0" /><path
   d="m 28.469873,77.881173 c 0,-0.6025 -0.45,-1.0525 -1.05,-1.0525 -0.548751,0 -1.050001,0.45 -1.050001,1.0525 0,0.55 0.50125,1.0575 1.050001,1.0575 0.6,0 1.05,-0.5075 1.05,-1.0575"
   style="fill:#00674c;fill-opacity:1;fill-rule:evenodd;stroke:none"
   id="path5185"
   inkscape:connector-curvature="0" /><path
   d="m 39.378125,91.922426 c 0,-0.60125 -0.45,-1.05 -1.05,-1.05 -0.54875,0 -1.05,0.44875 -1.05,1.05 0,0.597501 0.50125,1.048751 1.05,1.048751 0.6,0 1.05,-0.45125 1.05,-1.048751"
   style="fill:#00674c;fill-opacity:1;fill-rule:evenodd;stroke:none"
   id="path5189"
   inkscape:connector-curvature="0" /><path
   d="m 39.378125,97.614803 c 0,-0.6 -0.45,-1.05 -1.05,-1.05 -0.54875,0 -1.05,0.45 -1.05,1.05 0,0.55 0.50125,1.0575 1.05,1.0575 0.6,0 1.05,-0.5075 1.05,-1.0575"
   style="fill:#00674c;fill-opacity:1;fill-rule:evenodd;stroke:none"
   id="path5193"
   inkscape:connector-curvature="0" /><path
   d="m 49.011878,26.279916 -9.342502,0 0,7.361251 9.342502,0 c 2.507501,0 4.101251,-1.4725 4.101251,-3.73875 0,-2.037501 -1.70875,-3.622501 -4.101251,-3.622501 m 5.468751,12.456252 c -1.93625,1.020001 -3.303751,1.360001 -6.266251,1.360001 l -8.545002,0 0,12.116253 -6.378752,0 0,-32.387508 15.266254,0 c 2.73375,0 4.101251,0.33875 5.923751,1.360001 3.076251,1.81125 5.013751,5.095001 5.013751,8.717502 0,3.73875 -1.9375,7.136251 -5.013751,8.833751"
   style="fill:#000000;fill-opacity:1;fill-rule:nonzero;stroke:none"
   id="path4623"
   inkscape:connector-curvature="0" /></svg>