<?xml version="1.0" encoding="UTF-8" standalone="no"?>
<!-- Generator: Adobe Illustrator 12.0.1, SVG Export Plug-In  -->

<svg
   xmlns:dc="http://purl.org/dc/elements/1.1/"
   xmlns:cc="http://creativecommons.org/ns#"
   xmlns:rdf="http://www.w3.org/1999/02/22-rdf-syntax-ns#"
   xmlns:svg="http://www.w3.org/2000/svg"
   xmlns="http://www.w3.org/2000/svg"
   xmlns:sodipodi="http://sodipodi.sourceforge.net/DTD/sodipodi-0.dtd"
   xmlns:inkscape="http://www.inkscape.org/namespaces/inkscape"
   version="1.1"
   width="303.4375"
   height="152.4375"
   viewBox="-0.999 0 303.4375 152.4375"
   enable-background="new -0.999 0 289 289"
   xml:space="preserve"
   id="svg2"
   inkscape:version="0.48.2 r9819"
   sodipodi:docname="MUTCD R7-9.svg"><metadata
   id="metadata18"><rdf:RDF><cc:Work
       rdf:about=""><dc:format>image/svg+xml</dc:format><dc:type
         rdf:resource="http://purl.org/dc/dcmitype/StillImage" /><dc:title></dc:title></cc:Work></rdf:RDF></metadata><sodipodi:namedview
   pagecolor="#ffffff"
   bordercolor="#666666"
   borderopacity="1"
   objecttolerance="10"
   gridtolerance="10"
   guidetolerance="10"
   inkscape:pageopacity="0"
   inkscape:pageshadow="2"
   inkscape:window-width="1280"
   inkscape:window-height="1004"
   id="namedview16"
   showgrid="false"
   fit-margin-top="0"
   fit-margin-left="0"
   fit-margin-right="0"
   fit-margin-bottom="0"
   inkscape:zoom="1.8901802"
   inkscape:cx="93.775454"
   inkscape:cy="31.683294"
   inkscape:window-x="-8"
   inkscape:window-y="-8"
   inkscape:window-maximized="1"
   inkscape:current-layer="svg2"
   showguides="true"
   inkscape:guide-bbox="true" />
<defs
   id="defs4">
</defs>





<path
   inkscape:connector-curvature="0"
   d="m 301.68775,113.95925 c 0,20.7575 -16.98375,37.74125 -37.74125,37.74125 l -226.44375,0 c -20.7575,0 -37.74125,-16.98375 -37.74125,-37.74125 l 0,-75.48125 c 0,-20.7575 16.98375,-37.74125 37.74125,-37.74125 l 226.44375,0 c 20.7575,0 37.74125,16.98375 37.74125,37.74125 l 0,75.48125 z"
   style="fill:#ffffff;fill-opacity:1;fill-rule:nonzero;stroke:#000000;stroke-width:1.5;stroke-miterlimit:4;stroke-opacity:1;stroke-dasharray:none"
   id="path8890" /><path
   inkscape:connector-curvature="0"
   d="m 263.947,10.17212 -226.445,0 c -15.5675,0 -28.305,12.7375 -28.305,28.305 l 0,75.4825 c 0,15.5675 12.7375,28.305 28.305,28.305 l 226.445,0 c 15.5675,0 28.305,-12.7375 28.305,-28.305 l 0,-75.4825 c 0,-15.5675 -12.7375,-28.305 -28.305,-28.305 m 18.87,103.7875 c 0,10.37875 -8.49125,18.87 -18.87,18.87 l -226.445,0 c -10.37875,0 -18.87,-8.49125 -18.87,-18.87 l 0,-75.4825 c 0,-10.37875 8.49125,-18.87 18.87,-18.87 l 226.445,0 c 10.37875,0 18.87,8.49125 18.87,18.87 l 0,75.4825 z"
   style="fill:#000000;fill-opacity:1;fill-rule:nonzero;stroke:none"
   id="path8898" /><path
   inkscape:connector-curvature="0"
   d="m 231.48925,87.13 c -9.96875,0 -18.09625,8.135 -18.09625,18.105 0,9.96625 8.1275,18.09625 18.09625,18.09625 9.96375,0 18.0925,-8.13 18.0925,-18.09625 0,-9.97 -8.12875,-18.105 -18.0925,-18.105 m -157.57,-8.14375 c -9.96875,0 -18.09875,8.12625 -18.09875,18.0925 0,9.96625 8.13,18.10125 18.09875,18.10125 9.965,0 18.09625,-8.135 18.09625,-18.10125 0,-9.96625 -8.13125,-18.0925 -18.09625,-18.0925 m 177.6425,-5.9875 -61.845,-32.90875 -24.7875,0 -0.1225,4.75375 -49.94,32.88625 0,-2.865 -9.055,3.11875 L 98.4255,55.565 73.038,61.28375 48.9555,44.06875 13.768,49.665 l -2.74875,55.755 38.885,-6.2175 c -0.5575,-14.07875 9.19,-26.2525 24.015,-26.2525 9.42375,0 18.09625,5.47 22.0225,13.96625 l 19.24125,-5.3525 52.80125,-35.2325 17.02,0 16.785,26.61125 -22.53625,0 0,34.525 28.2425,-0.0825 c -0.9675,-14.0825 9.435,-26.27875 23.99375,-26.27875 15.4625,0 24.1125,12.15625 24.02875,26.36625 l 29.0975,-0.0913 0,-34.35625 -33.05375,-0.0263 z m -232.8325,-1.4875 0,-18.82875 28.84875,-3.9 11.2675,15.7675 -40.11625,6.96125 z m 189.29,1.43125 -16.53875,-24.93625 45.31,24.93625 -28.77125,0 z"
   style="fill:#000000;fill-opacity:1;fill-rule:nonzero;stroke:none"
   id="path8902" /></svg>