<?xml version="1.0" encoding="utf-8"?>
<!-- Generator: Adobe Illustrator 27.9.0, SVG Export Plug-In . SVG Version: 6.00 Build 0)  -->
<svg version="1.1" xmlns="http://www.w3.org/2000/svg" xmlns:xlink="http://www.w3.org/1999/xlink" x="0px" y="0px"
	 viewBox="0 0 86.9 130.1" style="enable-background:new 0 0 86.9 130.1;" xml:space="preserve">
<style type="text/css">
	.st0{fill:#FFFFFF;}
	.st1{fill:#BF311A;}
</style>
<g id="Layer_1">
</g>
<g id="For_Sheets">
	<g>
		<g>
			<path class="st0" d="M11.1,130c-6,0-10.9-4.9-10.9-10.9v-108C0.1,5,5,0.1,11.1,0.1h64.8c6,0,10.9,4.9,10.9,10.9v108
				c0,6-4.9,10.9-10.9,10.9H11.1z"/>
			<path d="M75.9,0.2c5.9,0,10.8,4.9,10.8,10.8v108c0,5.9-4.9,10.8-10.8,10.8H11.1c-5.9,0-10.8-4.9-10.8-10.8v-108
				c0-5.9,4.9-10.8,10.8-10.8H75.9 M75.9,0H11.1C5,0,0,5,0,11.1v108c0,6.1,5,11,11.1,11h64.8c6.1,0,11-5,11-11v-108
				C86.9,5,81.9,0,75.9,0L75.9,0z"/>
		</g>
		<path class="st1" d="M11.1,127.2c-4.5,0-8.1-3.6-8.1-8.1v-108C3,6.6,6.6,3,11.1,3h64.8c4.5,0,8.1,3.6,8.1,8.1v108
			c0,4.5-3.6,8.1-8.1,8.1H11.1z"/>
		<path class="st0" d="M11.1,124.5c-3,0-5.4-2.4-5.4-5.4v-108c0-3,2.4-5.4,5.4-5.4h64.8c3,0,5.4,2.4,5.4,5.4v108
			c0,3-2.4,5.4-5.4,5.4H11.1z"/>
		<g>
			<path d="M56.9,49.5c-2.4,1.2-4,1.7-7.6,1.7H38.6V66h-7.8V26.4h18.8c3.3,0,5,0.4,7.2,1.7c3.7,2.2,6.1,6.2,6.1,10.7
				C62.9,43.2,60.6,47.4,56.9,49.5z M50.2,34.2H38.6v9h11.6c3,0,5-1.8,5-4.6C55.2,36.2,53.1,34.2,50.2,34.2z"/>
		</g>
		<path class="st1" d="M43.5,13.8c-17.9,0-32.4,14.5-32.4,32.4s14.5,32.4,32.4,32.4S75.9,64,75.9,46.2S61.3,13.8,43.5,13.8z
			 M68.7,46.2c0,5.7-1.9,10.9-5,15.1L28.4,26c4.2-3.2,9.4-5,15.1-5C57.4,21,68.7,32.2,68.7,46.2z M18.3,46.2c0-5.7,1.9-10.9,5-15.1
			l35.3,35.3c-4.2,3.2-9.4,5-15.1,5C29.5,71.4,18.3,60.1,18.3,46.2z"/>
		<g>
			<path class="st1" d="M56.5,95.4h-2.4l-0.8,3.8h-1.9l2.9-14.4h1.9l3,14.4h-1.9L56.5,95.4z M54.6,93.5h1.6l-0.8-3.8L54.6,93.5z"/>
			<path class="st1" d="M66.1,90.7l-1.7,5.4l-1.8-5.4v8.5h-1.8V84.8h1.8l1.8,5.1l1.7-5.1h1.8v14.4h-1.8V90.7z"/>
		</g>
		<g>
			<path class="st1" d="M13.1,119h-1.8v-12.5H9.5v-1.9H15v1.9h-1.9V119z"/>
			<path class="st1" d="M19.5,104.5c2.8,0,3.3,2.7,3.3,7.4c0,3.3,0,7.4-3.3,7.4s-3.3-4.1-3.3-7.4C16.2,107.2,16.7,104.5,19.5,104.5z
				 M20.9,111.9c0-3.1-0.4-5.6-1.4-5.6c-1.3,0-1.4,2.4-1.4,5.6c0,2.7,0,5.6,1.4,5.6C21.1,117.4,20.9,113.2,20.9,111.9z"/>
		</g>
		<g>
			<path class="st1" d="M65.4,112.8h-1v6.3h-1.8v-14.4h2.9c3.1,0,3.3,3.4,3.3,4.2C68.7,111.2,67.4,112.8,65.4,112.8z M64.4,106.5
				v4.4h1c1.1,0,1.5-0.6,1.5-2.1c0-1.6-0.5-2.3-1.5-2.3H64.4z"/>
			<path class="st1" d="M75.6,110.5l-1.7,5.4l-1.8-5.4v8.5h-1.8v-14.4h1.8l1.8,5.1l1.7-5.1h1.8V119h-1.8V110.5z"/>
		</g>
		<g>
			<path class="st1" d="M33.1,111.2c-0.4,0-0.7,0.2-1,0.6l-1.9-0.2l0.3-7h5.3v1.9h-3.6l-0.1,2.9c0.4-0.1,0.7-0.1,1-0.1
				c2.7,0,3.1,2.8,3.1,4c0,1.6-0.5,6-4,6c-0.8,0-1.5-0.2-2.2-0.7l1-1.6c0.5,0.3,0.8,0.4,1.3,0.4c1.6,0,2-3.4,2-4.4
				C34.4,111.9,33.9,111.2,33.1,111.2z"/>
			<path class="st1" d="M37.7,109c0-0.6,0.5-1.1,1-1.1c0.6,0,1,0.5,1,1.1c0,0.6-0.4,1.1-1,1.1C38.2,110,37.7,109.6,37.7,109z
				 M37.7,114.7c0-0.6,0.5-1.1,1-1.1c0.6,0,1,0.5,1,1.1c0,0.6-0.4,1.1-1,1.1C38.2,115.8,37.7,115.3,37.7,114.7z"/>
			<path class="st1" d="M42.9,116.4c0.1,0.6,0.5,1.1,1.1,1.1c1,0,1.3-0.7,1.3-2.4c0-2.3-0.4-2.9-1.6-2.9h-0.6v-1.9h0.5
				c1,0,1.4-0.6,1.4-2.2c0-1.2-0.4-1.8-1.2-1.8c-0.6,0-0.9,0.4-1,1H41c0.1-1.8,1.2-2.8,2.8-2.8c2,0,3,1.2,3,3.6
				c0,1.3-0.2,2.1-0.8,3.1c1,0.8,1.1,2.1,1.1,3.8c0,4.1-2.2,4.3-3.3,4.3c-2,0-2.9-1.9-2.9-2.9H42.9z"/>
			<g>
				<path class="st1" d="M52,119.3c-3.2,0-3.3-4.1-3.3-7.4s0.1-7.4,3.3-7.4s3.3,4.1,3.3,7.4S55.3,119.3,52,119.3z M50.6,111.9
					c0,2.5,0,5.6,1.4,5.6c1.4,0,1.4-3,1.4-5.6c0-2.5,0-5.6-1.4-5.6C50.7,106.3,50.6,109.4,50.6,111.9z"/>
			</g>
		</g>
		<g>
			<path class="st1" d="M24.9,88.7c0,1.2-0.3,2.1-0.9,2.8c0.7,0.9,1.1,2.1,1.1,3.6c0,2.2-0.8,4.4-3.1,4.4c-2.9,0-3.1-3.5-3.1-4.5
				c0-1.5,0.4-2.7,1.1-3.6c-0.6-0.7-0.9-1.5-0.9-2.8c0-2.5,1.1-4.1,2.8-4.1C23.8,84.6,24.9,86.2,24.9,88.7z M23.3,95.1
				c0-1.6-0.4-2.5-1.2-2.5c-0.8,0-1.3,0.9-1.3,2.5c0,1.6,0.5,2.6,1.3,2.6C22.9,97.6,23.3,96.7,23.3,95.1z M23,88.8
				c0-1.5-0.3-2.3-0.9-2.3c-0.7,0-1,0.8-1,2.3c0,1.3,0.3,1.9,1,1.9C22.8,90.7,23,90.1,23,88.8z"/>
			<path class="st1" d="M26.7,89.2c0-0.6,0.5-1.1,1-1.1c0.6,0,1,0.5,1,1.1c0,0.6-0.4,1.1-1,1.1C27.2,90.2,26.7,89.8,26.7,89.2z
				 M26.7,94.9c0-0.6,0.5-1.1,1-1.1c0.6,0,1,0.5,1,1.1c0,0.6-0.4,1.1-1,1.1C27.2,96,26.7,95.5,26.7,94.9z"/>
			<path class="st1" d="M31.8,96.6c0.1,0.6,0.5,1.1,1.1,1.1c1,0,1.3-0.7,1.3-2.4c0-2.3-0.4-2.9-1.6-2.9h-0.6v-1.9h0.5
				c1,0,1.4-0.6,1.4-2.2c0-1.2-0.4-1.8-1.2-1.8c-0.6,0-0.9,0.4-1,1H30c0.1-1.8,1.2-2.8,2.8-2.8c2,0,3,1.2,3,3.6
				c0,1.3-0.2,2.1-0.8,3.1c1,0.8,1.1,2.1,1.1,3.8c0,4.1-2.2,4.3-3.3,4.3c-2,0-2.9-1.9-2.9-2.9H31.8z"/>
			<g>
				<path class="st1" d="M41,99.5c-3.2,0-3.3-4.1-3.3-7.4c0-3.4,0.1-7.4,3.3-7.4s3.3,4.1,3.3,7.4C44.3,95.4,44.2,99.5,41,99.5z
					 M39.5,92.1c0,2.5,0,5.6,1.4,5.6c1.4,0,1.4-3,1.4-5.6c0-2.5,0-5.6-1.4-5.6C39.6,86.5,39.5,89.6,39.5,92.1z"/>
			</g>
		</g>
	</g>
</g>
</svg>
