<?xml version="1.0" encoding="UTF-8" standalone="no"?>
<!-- Generator: Adobe Illustrator 14.0.0, SVG Export Plug-In  -->

<svg
   xmlns:dc="http://purl.org/dc/elements/1.1/"
   xmlns:cc="http://creativecommons.org/ns#"
   xmlns:rdf="http://www.w3.org/1999/02/22-rdf-syntax-ns#"
   xmlns:svg="http://www.w3.org/2000/svg"
   xmlns="http://www.w3.org/2000/svg"
   xmlns:sodipodi="http://sodipodi.sourceforge.net/DTD/sodipodi-0.dtd"
   xmlns:inkscape="http://www.inkscape.org/namespaces/inkscape"
   version="1.1"
   x="0px"
   y="0px"
   width="86.499985"
   height="43.749989"
   viewBox="0 -0.321 86.499988 43.749998"
   enable-background="new 0 -0.321 144 120"
   xml:space="preserve"
   id="svg2"
   inkscape:version="0.48.2 r9819"
   sodipodi:docname="MUTCD R7-201aP.svg"><metadata
   id="metadata44"><rdf:RDF><cc:Work
       rdf:about=""><dc:format>image/svg+xml</dc:format><dc:type
         rdf:resource="http://purl.org/dc/dcmitype/StillImage" /><dc:title></dc:title></cc:Work></rdf:RDF></metadata><sodipodi:namedview
   pagecolor="#ffffff"
   bordercolor="#666666"
   borderopacity="1"
   objecttolerance="10"
   gridtolerance="10"
   guidetolerance="10"
   inkscape:pageopacity="0"
   inkscape:pageshadow="2"
   inkscape:window-width="1280"
   inkscape:window-height="1004"
   id="namedview42"
   showgrid="false"
   fit-margin-top="0"
   fit-margin-left="0"
   fit-margin-right="0"
   fit-margin-bottom="0"
   inkscape:zoom="5.0135337"
   inkscape:cx="23.068989"
   inkscape:cy="20.522496"
   inkscape:window-x="-8"
   inkscape:window-y="-8"
   inkscape:window-maximized="1"
   inkscape:current-layer="svg2" />
<defs
   id="defs4">
</defs>


















<path
   inkscape:connector-curvature="0"
   d="m 11.15621,0.18126 64.18502,0 c 5.86125,0 10.65875,4.795 10.65875,10.655 l 0,21.43626 c 0,5.86375 -4.7975,10.65875 -10.65875,10.65875 l -64.18502,0 c -5.8612491,0 -10.65624909,-4.795 -10.65624909,-10.65875 l 0,-21.43626 c 0,-5.86 4.79499999,-10.655 10.65624909,-10.655"
   style="fill:#ffffff;fill-opacity:1;fill-rule:nonzero;stroke:#000000;stroke-width:1.00000024;stroke-miterlimit:4;stroke-opacity:1;stroke-dasharray:none"
   id="path10084" /><path
   inkscape:connector-curvature="0"
   style="fill:#bf2519;fill-opacity:1;fill-rule:evenodd;stroke:none"
   d="m 11.15634,2.85513 c -4.3899991,0 -7.9999991,3.57875 -7.9999991,7.96875 l 0,21.43751 c 0,4.3925 3.61,8 7.9999991,8 l 64.18752,0 c 4.39375,0 7.96875,-3.6075 7.96875,-8 l 0,-21.43751 c 0,-4.39 -3.575,-7.96875 -7.96875,-7.96875 l -64.18752,0 z m 0,3.125 64.18752,0 c 2.6775,0 4.875,2.17 4.875,4.84375 l 0,21.43751 c 0,2.67625 -2.1975,4.875 -4.875,4.875 l -64.18752,0 c -2.6737491,0 -4.8749991,-2.19875 -4.8749991,-4.875 l 0,-21.43751 c 0,-2.67375 2.20125,-4.84375 4.8749991,-4.84375 z"
   id="path10108" /><path
   inkscape:connector-curvature="0"
   d="m 32.91372,25.39489 0,-1.54875 -6.51875,0 0,11.035 1.84375,0 0,-5.1875 2.56375,0 0,-1.51125 -2.56375,0 0,-2.7875 4.675,0 z m -9.93626,3.95 c 0,1.27875 -0.09,1.9375 -0.405,2.82875 -0.3125,0.92875 -0.80875,1.35375 -1.5725,1.35375 -0.8075,0 -1.30375,-0.425 -1.61875,-1.35375 -0.26875,-0.89125 -0.4025,-1.59 -0.4025,-2.79 0,-1.24 0.09,-1.97375 0.4025,-2.8275 0.315,-0.93 0.81125,-1.355 1.61875,-1.355 0.76375,0 1.26,0.425 1.5725,1.39375 0.27375,0.815 0.405,1.51125 0.405,2.75 m 1.75251,0 c 0,-1.66375 -0.1775,-2.71 -0.715,-3.79375 -0.6325,-1.355 -1.53251,-1.89875 -3.01501,-1.89875 -1.48375,0 -2.3825,0.54375 -3.05625,1.85875 -0.54,1.045 -0.71875,2.17 -0.71875,3.83375 0,1.70375 0.17875,2.75 0.71875,3.8325 0.63,1.31875 1.525,1.905 3.05625,1.905 1.4375,0 2.38251,-0.58625 3.01501,-1.905 0.5375,-1.045 0.715,-2.12875 0.715,-3.8325"
   style="fill:#bf2519;fill-opacity:1;fill-rule:evenodd;stroke:none"
   id="path10116" /><path
   inkscape:connector-curvature="0"
   d="m 74.03748,19.84252 0,-1.54875 -4.67625,0 0,-3.63875 2.6525,0 0,-1.50876 -2.6525,0 0,-2.79 4.18,0 0,-1.5475 -6.02251,0 0,11.03376 6.51876,0 z m -9.97376,-5.46125 c 0,0.855 -0.09,1.62875 -0.1775,2.32625 -0.18125,0.85 -0.7675,1.58625 -1.84375,1.58625 l -1.52875,0 0,-7.93751 1.52875,0 c 0.8075,0 1.3475,0.34875 1.6625,1.1225 0.225,0.46625 0.35875,1.6675 0.35875,2.90251 m 1.8025,-0.0763 c 0,-0.85126 -0.1375,-1.81876 -0.3175,-2.63126 -0.225,-1.125 -0.765,-1.975 -1.52875,-2.43875 -0.44875,-0.31 -0.98875,-0.42625 -2.0675,-0.42625 l -3.28125,0 0,11.03376 3.55,0 c 0.72,0 1.35,-0.15375 1.79875,-0.5025 1.26,-0.8525 1.84625,-2.47875 1.84625,-5.035 m -9.11875,-5.49626 -1.8,0 0,11.03376 1.8,0 0,-11.03376 z m -3.09625,8.01376 c 0,-1.58625 -1.07875,-2.79001 -3.55,-4.02876 -0.9475,-0.46375 -1.215,-0.77375 -1.215,-1.315 0,-0.735 0.67625,-1.2775 1.53,-1.2775 0.80875,0 1.43875,0.50375 1.4825,1.2775 l 1.7525,0 c -0.0437,-1.6625 -1.4375,-2.86375 -3.235,-2.86375 -1.8425,0 -3.28375,1.27625 -3.28375,2.86375 0,0.96875 0.54,1.82125 1.575,2.43875 2.6075,1.51126 1.8875,1.08626 2.15875,1.31876 0.76375,0.50125 1.0325,0.96875 1.0325,1.58625 0,0.89125 -0.80875,1.665 -1.7975,1.665 -1.26,0 -1.79875,-0.96625 -1.79875,-1.89875 l -1.7975,0 c 0,1.82375 1.3475,3.45375 3.59625,3.45375 1.975,0 3.55,-1.4375 3.55,-3.22"
   style="fill:#bf2519;fill-opacity:1;fill-rule:evenodd;stroke:none"
   id="path10120" /><path
   inkscape:connector-curvature="0"
   d="m 38.81748,16.82239 c 0,-1.58625 -1.07875,-2.79001 -3.5525,-4.02876 -0.9425,-0.46375 -1.21375,-0.77375 -1.21375,-1.315 0,-0.735 0.67375,-1.2775 1.52875,-1.2775 0.81125,0 1.44,0.50375 1.485,1.2775 l 1.7525,0 c -0.0437,-1.6625 -1.44,-2.86375 -3.2375,-2.86375 -1.84375,0 -3.28125,1.27625 -3.28125,2.86375 0,0.96875 0.54,1.82125 1.575,2.43875 2.6075,1.51126 1.8875,1.08626 2.155,1.31876 0.765,0.50125 1.03625,0.96875 1.03625,1.58625 0,0.89125 -0.81125,1.665 -1.8,1.665 -1.26,0 -1.79625,-0.96625 -1.79625,-1.89875 l -1.8,0 c 0,1.82375 1.3475,3.45375 3.59625,3.45375 1.98,0 3.5525,-1.4375 3.5525,-3.22 m -8.47125,-8.01376 -1.7975,0 0,11.03376 1.7975,0 0,-11.03376 z m -3.70875,11.03376 0,-11.03376 -1.84375,0 0,4.49125 -3.50626,0 0,-4.49125 -1.8425,0 0,11.03376 1.8425,0 0,-4.9925 3.50626,0 0,4.9925 1.84375,0 z m -8.11251,-9.56501 0,-1.46875 -6.51375,0 0,1.46875 2.33375,0 0,9.56501 1.8425,0 0,-9.56501 2.3375,0 z"
   style="fill:#bf2519;fill-opacity:1;fill-rule:evenodd;stroke:none"
   id="path10124" /><path
   inkscape:connector-curvature="0"
   d="m 68.60998,34.88114 0,-11.035 -1.84376,0 0,6.6225 -3.5075,-6.6225 -1.84375,0 0,11.035 1.84375,0 0,-7.395 3.9575,7.395 1.39376,0 z m -8.94751,-3.05625 0,-2.28625 -3.28125,0 0,1.54875 1.4375,0 0,0.7375 c 0,1.16 -0.44875,1.7025 -1.39375,1.7025 -0.98875,0 -1.61875,-0.58125 -1.8875,-1.66625 -0.18,-0.85125 -0.26875,-1.81875 -0.26875,-2.74875 0,-1.31625 0.2225,-2.55625 0.58375,-3.09625 0.3125,-0.54125 0.80875,-0.815 1.4375,-0.815 0.89875,0 1.4825,0.50625 1.52875,1.24 l 1.84375,0 c -0.0912,-1.625 -1.485,-2.78875 -3.3275,-2.78875 -1.4825,0 -2.78625,0.85375 -3.235,2.0125 -0.4525,1.04625 -0.58625,2.17125 -0.58625,3.71875 0,1.43125 0.27125,2.9825 0.67375,3.79375 0.63,1.23875 1.755,1.905 3.28375,1.905 1.30125,0 2.33625,-0.58625 2.8325,-1.555 0.2675,-0.465 0.35875,-0.92875 0.35875,-1.7025 m -8.9475,-7.97875 -1.7975,0 0,11.035 1.7975,0 0,-11.035 z m -3.19125,8.015 c 0,-1.58625 -1.08,-2.7875 -3.5525,-4.025 -0.945,-0.46625 -1.21375,-0.77375 -1.21375,-1.31875 0,-0.7325 0.67375,-1.2775 1.52875,-1.2775 0.81,0 1.44,0.50375 1.48375,1.2775 l 1.75375,0 c -0.0438,-1.66375 -1.43875,-2.865 -3.2375,-2.865 -1.84375,0 -3.28125,1.2775 -3.28125,2.865 0,0.96875 0.54,1.8225 1.5725,2.44 2.6075,1.51125 1.88875,1.085 2.16,1.3175 0.765,0.505 1.0325,0.96625 1.0325,1.58625 0,0.89375 -0.8075,1.66625 -1.79875,1.66625 -1.2575,0 -1.79875,-0.96875 -1.79875,-1.8975 l -1.7975,0 c 0,1.82125 1.3475,3.4525 3.59625,3.4525 1.9775,0 3.5525,-1.4375 3.5525,-3.22125"
   style="fill:#bf2519;fill-opacity:1;fill-rule:evenodd;stroke:none"
   id="path10128" /></svg>