<?xml version="1.0" encoding="UTF-8" standalone="no"?>
<!-- Generator: Adobe Illustrator 14.0.0, SVG Export Plug-In  -->

<svg
   xmlns:dc="http://purl.org/dc/elements/1.1/"
   xmlns:cc="http://creativecommons.org/ns#"
   xmlns:rdf="http://www.w3.org/1999/02/22-rdf-syntax-ns#"
   xmlns:svg="http://www.w3.org/2000/svg"
   xmlns="http://www.w3.org/2000/svg"
   xmlns:sodipodi="http://sodipodi.sourceforge.net/DTD/sodipodi-0.dtd"
   xmlns:inkscape="http://www.inkscape.org/namespaces/inkscape"
   version="1.1"
   x="0px"
   y="0px"
   width="86.812477"
   height="129.90622"
   viewBox="0 -0.321 86.81248 129.90625"
   enable-background="new 0 -0.321 144 120"
   xml:space="preserve"
   id="svg2"
   inkscape:version="0.48.2 r9819"
   sodipodi:docname="MUTCD R7-21.svg"><metadata
   id="metadata44"><rdf:RDF><cc:Work
       rdf:about=""><dc:format>image/svg+xml</dc:format><dc:type
         rdf:resource="http://purl.org/dc/dcmitype/StillImage" /><dc:title></dc:title></cc:Work></rdf:RDF></metadata><sodipodi:namedview
   pagecolor="#ffffff"
   bordercolor="#666666"
   borderopacity="1"
   objecttolerance="10"
   gridtolerance="10"
   guidetolerance="10"
   inkscape:pageopacity="0"
   inkscape:pageshadow="2"
   inkscape:window-width="1280"
   inkscape:window-height="1004"
   id="namedview42"
   showgrid="false"
   fit-margin-top="0"
   fit-margin-left="0"
   fit-margin-right="0"
   fit-margin-bottom="0"
   inkscape:zoom="2.6802662"
   inkscape:cx="55.253278"
   inkscape:cy="46.258658"
   inkscape:window-x="-8"
   inkscape:window-y="-8"
   inkscape:window-maximized="1"
   inkscape:current-layer="svg2" />
<defs
   id="defs4">
</defs>


















<path
   d="m 86.462141,118.45754 c 0,5.945 -4.822501,10.765 -10.767503,10.765 l -64.592515,0 c -5.9450008,0 -10.7650017,-4.82 -10.7650017,-10.765 l 0,-107.65628 c 0,-5.945 4.8200009,-10.765 10.7650017,-10.765 l 64.592515,0 c 5.945002,0 10.767503,4.82 10.767503,10.765 l 0,107.65628 z"
   style="fill:#ffffff;fill-opacity:1;fill-rule:nonzero;stroke:#000000;stroke-width:0.70000016;stroke-miterlimit:4;stroke-opacity:1;stroke-dasharray:none"
   id="path4869"
   inkscape:connector-curvature="0" /><path
   d="m 80.62964,118.45754 c 0,2.72 -2.215001,4.935 -4.935001,4.935 l -64.592516,0 c -2.7212508,0 -4.9337508,-2.215 -4.9337508,-4.935 l 0,-107.65628 c 0,-2.72 2.2125,-4.93375 4.9337508,-4.93375 l 64.592516,0 c 2.72,0 4.935001,2.21375 4.935001,4.93375 l 0,107.65628 z M 75.694639,2.72751 l -64.592516,0 c -4.4512508,0 -8.0737518,3.6225 -8.0737518,8.07375 l 0,107.65628 c 0,4.45125 3.622501,8.07375 8.0737518,8.07375 l 64.592516,0 c 4.453751,0 8.073752,-3.6225 8.073752,-8.07375 l 0,-107.65628 c 0,-4.45125 -3.620001,-8.07375 -8.073752,-8.07375"
   style="fill:#00674c;fill-opacity:1;fill-rule:nonzero;stroke:none"
   id="path4877"
   inkscape:connector-curvature="0" /><path
   d="m 21.238746,104.17481 -2.2625,0 0,-13.276254 -1.136251,0 0,-1.7825 c 0.278751,-0.02125 0.475001,-0.04375 0.582501,-0.065 0.19375,-0.0425 0.405,-0.13 0.63,-0.26 0.22625,-0.12875 0.49125,-0.3975 0.7925,-0.807501 l 1.39375,0 0,16.191255 z"
   style="fill:#00674c;fill-opacity:1;fill-rule:nonzero;stroke:none"
   id="path5061"
   inkscape:connector-curvature="0" /><path
   d="m 33.063749,98.542305 c 0,2.158745 -0.671251,3.736255 -2.010001,4.727505 -0.9725,0.7125 -2.20875,1.06875 -3.711251,1.06875 -1.17625,0 -2.27375,-0.5075 -3.28875,-1.52375 l 1.59,-1.635 c 0,0.0875 0.17875,0.23875 0.535,0.45625 0.47625,0.295 1.0375,0.44125 1.68625,0.44125 0.865001,0 1.578751,-0.35125 2.141251,-1.05375 0.53,-0.68126 0.795,-1.503755 0.795,-2.466255 0,-0.9625 -0.255,-1.72375 -0.7625,-2.285001 -0.42125,-0.48625 -0.90375,-0.73 -1.44375,-0.73 -0.920001,-0.01 -1.515001,0.3025 -1.783751,0.9425 l -2.38625,-0.325 0.5675,-8.176252 7.465001,0 0,2.285001 -5.228751,0 -0.245,3.450001 c 0.455,-0.2925 0.97875,-0.4375 1.572501,-0.4375 1.3725,0 2.48,0.535 3.3225,1.6025 0.788751,0.9925 1.185001,2.213751 1.185001,3.658751"
   style="fill:#00674c;fill-opacity:1;fill-rule:nonzero;stroke:none"
   id="path5065"
   inkscape:connector-curvature="0" /><path
   d="m 46.066252,95.181055 -1.006251,0 0,-4.031251 -1.36875,4.031251 -1.3675,-4.031251 0,4.031251 -1.00625,0 0,-7.197502 1.00875,0 1.36625,4.028751 1.3675,-4.028751 1.006251,0 0,7.197502 z"
   style="fill:#00674c;fill-opacity:1;fill-rule:nonzero;stroke:none"
   id="path5069"
   inkscape:connector-curvature="0" /><path
   d="m 48.656002,95.181057 -1.00625,0 0,-7.197502 1.00625,0 0,7.197502 z"
   style="fill:#00674c;fill-opacity:1;fill-rule:nonzero;stroke:none"
   id="path5071"
   inkscape:connector-curvature="0" /><path
   d="m 54.271254,95.181055 -1.005001,0 -2.02,-4.658751 0,4.658751 -1.005,0 0,-7.197502 1.0075,0 2.01625,4.648752 0.0012,-4.648752 1.005001,0 0,7.197502 z"
   style="fill:#00674c;fill-opacity:1;fill-rule:nonzero;stroke:none"
   id="path5075"
   inkscape:connector-curvature="0" /><path
   d="m 59.885005,93.239805 c 0,0.55625 -0.19625,1.03 -0.58625,1.42375 -0.39125,0.395 -0.86875,0.59 -1.428751,0.59 -0.55625,0 -1.03125,-0.195 -1.42375,-0.59 -0.395,-0.39375 -0.59125,-0.8675 -0.59125,-1.42375 l 0,-5.256252 1.00625,0 0,5.256252 c 0,0.27875 0.0975,0.5175 0.29125,0.7125 0.195,0.19875 0.43375,0.29625 0.7175,0.29625 0.27375,0 0.510001,-0.0975 0.710001,-0.29625 0.2,-0.195 0.29875,-0.43375 0.29875,-0.7125 l 0,-5.256252 1.00625,0 0,5.256252 z"
   style="fill:#00674c;fill-opacity:1;fill-rule:nonzero;stroke:none"
   id="path5079"
   inkscape:connector-curvature="0" /><path
   d="m 64.558756,88.989929 -1.335,0 0,6.191251 -1.005001,0 0,-6.191251 -1.33125,0 0,-1.006251 3.671251,0 0,1.006251 z"
   style="fill:#00674c;fill-opacity:1;fill-rule:nonzero;stroke:none"
   id="path5083"
   inkscape:connector-curvature="0" /><path
   d="m 69.235007,95.186055 -3.671251,-0.005 0,-7.197502 3.671251,0 0,1.006251 -2.665001,0 0,1.8725 1.586251,0 0,1.005 -1.586251,0 0,2.307501 2.665001,0 0,1.01125 z"
   style="fill:#00674c;fill-opacity:1;fill-rule:nonzero;stroke:none"
   id="path5087"
   inkscape:connector-curvature="0" /><path
   d="m 49.408752,104.17481 -3.67125,0 0,-7.195002 1.00625,0 0,6.188752 2.665,0 0,1.00625 z"
   style="fill:#00674c;fill-opacity:1;fill-rule:nonzero;stroke:none"
   id="path5091"
   inkscape:connector-curvature="0" /><path
   d="m 51.427253,104.17481 -1.00625,0 0,-7.195002 1.00625,0 0,7.195002 z"
   style="fill:#00674c;fill-opacity:1;fill-rule:nonzero;stroke:none"
   id="path5093"
   inkscape:connector-curvature="0" /><path
   d="m 57.760004,104.17481 -1.005,0 0,-4.02875 -1.36875,4.02875 -1.3675,-4.02875 0,4.02875 -1.006251,0 0,-7.195002 1.007501,0 1.3675,4.028752 1.3675,-4.028752 1.005,0 0,7.195002 z"
   style="fill:#00674c;fill-opacity:1;fill-rule:nonzero;stroke:none"
   id="path5097"
   inkscape:connector-curvature="0" /><path
   d="m 60.352255,104.17481 -1.00625,0 0,-7.195002 1.00625,0 0,7.195002 z"
   style="fill:#00674c;fill-opacity:1;fill-rule:nonzero;stroke:none"
   id="path5099"
   inkscape:connector-curvature="0" /><path
   d="m 65.026256,97.986055 -1.335,0 0,6.188755 -1.005,0 0,-6.188755 -1.331251,0 0,-1.00625 3.671251,0 0,1.00625 z"
   style="fill:#00674c;fill-opacity:1;fill-rule:nonzero;stroke:none"
   id="path5103"
   inkscape:connector-curvature="0" /><path
   d="m 72.160008,81.037426 c -0.48875,1.10625 -1.508751,1.7675 -2.795001,1.7675 -1.51,0 -2.61875,-0.75125 -3.240001,-2.165 -0.40125,-0.9275 -0.66625,-2.695001 -0.66625,-4.330001 0,-1.767501 0.1325,-3.050001 0.57625,-4.242501 0.445,-1.325001 1.731251,-2.298751 3.196251,-2.298751 1.818751,0 3.195001,1.32625 3.283751,3.182501 l -1.820001,0 c -0.04375,-0.84 -0.62125,-1.415 -1.50875,-1.415 -0.62125,0 -1.11,0.31 -1.42,0.9275 -0.355,0.62125 -0.5775,2.03375 -0.5775,3.537501 0,1.06 0.09,2.16375 0.26625,3.1375 0.26625,1.237501 0.8875,1.898751 1.86375,1.898751 0.9325,0 1.37625,-0.6175 1.37625,-1.942501 l 0,-0.84 -1.42,0 0,-1.76875 3.240001,0 0,2.60875 c 0,0.883751 -0.08875,1.413751 -0.355,1.942501"
   style="fill:#00674c;fill-opacity:1;fill-rule:nonzero;stroke:none"
   id="path5111"
   inkscape:connector-curvature="0" /><path
   d="m 51.348503,69.991051 1.76375,0 0,12.595003 -1.76375,0 0,-12.595003 z"
   style="fill:#00674c;fill-opacity:1;fill-rule:nonzero;stroke:none"
   id="path5113"
   inkscape:connector-curvature="0" /><path
   d="m 47.311252,82.586051 -2.205001,-6.143751 -1.14625,2.12 0,4.023751 -1.8075,0 0,-12.595003 1.8075,0 0,5.036251 2.866251,-5.036251 2.0725,0 -2.60125,4.418751 2.91125,8.176252 -1.8975,0 z"
   style="fill:#00674c;fill-opacity:1;fill-rule:nonzero;stroke:none"
   id="path5117"
   inkscape:connector-curvature="0" /><path
   d="m 61.572505,82.586051 -3.880001,-8.442502 0,8.442502 -1.81,0 0,-12.595003 1.81,0 3.440001,7.556252 0,-7.556252 1.807501,0 0,12.595003 -1.367501,0 z"
   style="fill:#00674c;fill-opacity:1;fill-rule:nonzero;stroke:none"
   id="path5121"
   inkscape:connector-curvature="0" /><path
   d="m 27.116247,73.746175 -0.88625,3.623751 1.81625,0 -0.93,-3.623751 z m 2.257501,8.840002 -0.88625,-3.447501 -2.702501,0 -0.84125,3.447501 -1.81625,0 3.14625,-12.595003 1.7725,0 3.143751,12.595003 -1.81625,0 z"
   style="fill:#00674c;fill-opacity:1;fill-rule:nonzero;stroke:none"
   id="path5125"
   inkscape:connector-curvature="0" /><path
   d="m 18.219996,71.75855 -1.851251,0 0,3.57875 1.851251,0 c 1.05875,0 1.6325,-0.6625 1.6325,-1.81125 0,-1.0625 -0.66125,-1.7675 -1.6325,-1.7675 m 0.08875,5.302501 -1.940001,0 0,5.525001 -1.80875,0 0,-12.595003 3.748751,0 c 1.98375,0 3.30625,1.413751 3.30625,3.535001 0,2.297501 -1.19,3.535001 -3.30625,3.535001"
   style="fill:#00674c;fill-opacity:1;fill-rule:nonzero;stroke:none"
   id="path5129"
   inkscape:connector-curvature="0" /><path
   d="m 36.614999,71.75855 -1.8525,0 0,3.18125 1.8525,0 c 1.058751,0 1.631251,-0.57375 1.631251,-1.5925 0,-0.97125 -0.66125,-1.58875 -1.631251,-1.58875 m 1.543751,10.827502 -1.675001,-5.922501 -1.72125,0 0,5.922501 -1.8075,0 0,-12.595003 3.74875,0 c 1.985001,0 3.307501,1.325001 3.307501,3.356251 0,1.505 -0.6175,2.607501 -1.80875,3.050001 l 1.80875,6.188751 -1.8525,0 z"
   style="fill:#00674c;fill-opacity:1;fill-rule:nonzero;stroke:none"
   id="path5133"
   inkscape:connector-curvature="0" /><path
   d="m 43.367501,55.753546 -0.88625,3.625 1.81625,0 -0.93,-3.625 z m 2.258751,8.840002 -0.886251,-3.447501 -2.7025,0 -0.8425,3.447501 -1.816251,0 3.147501,-12.596253 1.77125,0 3.145001,12.596253 -1.81625,0 z"
   style="fill:#00674c;fill-opacity:1;fill-rule:nonzero;stroke:none"
   id="path5137"
   inkscape:connector-curvature="0" /><path
   d="m 34.471249,53.764919 -1.851251,0 0,3.580001 1.851251,0 c 1.06,0 1.6325,-0.6625 1.6325,-1.81125 0,-1.060001 -0.66125,-1.768751 -1.6325,-1.768751 m 0.08875,5.303751 -1.940001,0 0,5.525002 -1.8075,0 0,-12.596253 3.747501,0 c 1.985,0 3.307501,1.41375 3.307501,3.536251 0,2.29625 -1.190001,3.535 -3.307501,3.535"
   style="fill:#00674c;fill-opacity:1;fill-rule:nonzero;stroke:none"
   id="path5141"
   inkscape:connector-curvature="0" /><path
   d="m 53.116253,58.89242 0,5.701252 -1.81625,0 0,-5.701252 -3.101251,-6.895001 1.905001,0 2.12625,4.552501 2.083751,-4.552501 1.94875,0 -3.146251,6.895001 z"
   style="fill:#00674c;fill-opacity:1;fill-rule:nonzero;stroke:none"
   id="path5145"
   inkscape:connector-curvature="0" /><path
   d="m 60.593755,117.71118 -0.88875,3.37125 c -0.0225,0.0138 -0.04375,0.0362 -0.05125,0.0625 -0.02,0.0438 -0.03375,0.0862 -0.04875,0.13 0.02125,0.19875 0.06375,0.37625 0.185,0.535 0.215,0.29125 0.5125,0.3625 0.855,0.355 0.1125,0 0.24875,-0.0362 0.34125,-0.0987 l 10.198753,-7.02625 -10.198753,-6.92625 c -0.14125,-0.0987 -0.24125,-0.15625 -0.4125,-0.19125 -0.3,-0.0575 -0.635,0.17875 -0.805,0.4125 -0.1,0.14875 -0.14875,0.29375 -0.16375,0.47 0.015,0.0575 0.015,0.1225 0.04125,0.1775 0.015,0.0438 0.03625,0.0787 0.05875,0.12125 l 0.88875,3.265 -44.70251,0 0,5.3425 44.70251,0 z"
   style="fill:#00674c;fill-opacity:1;fill-rule:evenodd;stroke:none"
   id="path5217"
   inkscape:connector-curvature="0" /><path
   d="m 43.536252,44.32367 c -8.743752,0 -15.832504,-7.088751 -15.832504,-15.832503 0,-8.745002 7.088752,-15.833754 15.832504,-15.833754 8.746252,0 15.833754,7.088752 15.833754,15.833754 0,8.743752 -7.087502,15.832503 -15.833754,15.832503 m 0,-35.6250084 c -10.900003,0 -19.791255,8.8912524 -19.791255,19.7925054 0,10.900002 8.891252,19.791254 19.791255,19.791254 10.901252,0 19.792505,-8.891252 19.792505,-19.791254 0,-10.901253 -8.891253,-19.7925054 -19.792505,-19.7925054"
   style="fill:#00674c;fill-opacity:1;fill-rule:evenodd;stroke:none"
   id="path5057"
   inkscape:connector-curvature="0" /><path
   d="m 47.647502,21.376165 -6.870001,0 0,5.412501 6.870001,0 c 1.84375,0 3.016251,-1.0825 3.016251,-2.747501 0,-1.5 -1.256251,-2.665 -3.016251,-2.665 m 4.021251,9.160001 c -1.42375,0.75 -2.428751,1.000001 -4.607501,1.000001 l -6.283751,0 0,8.911252 -4.692501,0 0,-23.818756 11.227502,0 c 2.01,0 3.016251,0.250001 4.356251,1.000001 2.2625,1.3325 3.686251,3.747501 3.686251,6.412501 0,2.747501 -1.423751,5.246251 -3.686251,6.495001"
   style="fill:#000000;fill-opacity:1;fill-rule:nonzero;stroke:none"
   id="path5053"
   inkscape:connector-curvature="0" /></svg>