<?xml version="1.0" encoding="UTF-8" standalone="no"?>
<!-- Generator: Adobe Illustrator 14.0.0, SVG Export Plug-In  -->

<svg
   xmlns:dc="http://purl.org/dc/elements/1.1/"
   xmlns:cc="http://creativecommons.org/ns#"
   xmlns:rdf="http://www.w3.org/1999/02/22-rdf-syntax-ns#"
   xmlns:svg="http://www.w3.org/2000/svg"
   xmlns="http://www.w3.org/2000/svg"
   xmlns:sodipodi="http://sodipodi.sourceforge.net/DTD/sodipodi-0.dtd"
   xmlns:inkscape="http://www.inkscape.org/namespaces/inkscape"
   version="1.1"
   x="0px"
   y="0px"
   width="86.499985"
   height="43.749992"
   viewBox="0 -0.321 86.499988 43.750002"
   enable-background="new 0 -0.321 144 120"
   xml:space="preserve"
   id="svg2"
   inkscape:version="0.48.2 r9819"
   sodipodi:docname="MUTCD R7-200a.svg"><metadata
   id="metadata44"><rdf:RDF><cc:Work
       rdf:about=""><dc:format>image/svg+xml</dc:format><dc:type
         rdf:resource="http://purl.org/dc/dcmitype/StillImage" /><dc:title></dc:title></cc:Work></rdf:RDF></metadata><sodipodi:namedview
   pagecolor="#ffffff"
   bordercolor="#666666"
   borderopacity="1"
   objecttolerance="10"
   gridtolerance="10"
   guidetolerance="10"
   inkscape:pageopacity="0"
   inkscape:pageshadow="2"
   inkscape:window-width="1280"
   inkscape:window-height="1004"
   id="namedview42"
   showgrid="false"
   fit-margin-top="0"
   fit-margin-left="0"
   fit-margin-right="0"
   fit-margin-bottom="0"
   inkscape:zoom="5.0135337"
   inkscape:cx="39.817675"
   inkscape:cy="21.194847"
   inkscape:window-x="-8"
   inkscape:window-y="-8"
   inkscape:window-maximized="1"
   inkscape:current-layer="svg2" />
<defs
   id="defs4">
</defs>


















<path
   inkscape:connector-curvature="0"
   d="m 11.143708,0.18975 64.18501,0 c 5.8625,0 10.65625,4.795 10.65625,10.655 l 0,21.43626 c 0,5.86375 -4.79375,10.65875 -10.65625,10.65875 l -64.18501,0 c -5.8624993,0 -10.65625935,-4.795 -10.65625935,-10.65875 l 0,-21.43626 c 0,-5.86 4.79376005,-10.655 10.65625935,-10.655"
   style="fill:#ffffff;fill-opacity:1;fill-rule:nonzero;stroke:#000000;stroke-width:1.00000024;stroke-miterlimit:4;stroke-opacity:1;stroke-dasharray:none"
   id="path10048" /><path
   inkscape:connector-curvature="0"
   style="fill:#bf2519;fill-opacity:1;fill-rule:evenodd;stroke:none"
   d="m 11.156328,2.86362 c -4.3924993,0 -7.9999993,3.57875 -7.9999993,7.96875 l 0,21.43751 c 0,4.3925 3.6075,8 7.9999993,8 l 64.18751,0 c 4.3925,0 7.96875,-3.6075 7.96875,-8 l 0,-21.43751 c 0,-4.39 -3.57625,-7.96875 -7.96875,-7.96875 l -64.18751,0 z m 0,3.125 64.18751,0 c 2.67625,0 4.84375,2.17 4.84375,4.84375 l 0,21.43751 c 0,2.67625 -2.1675,4.875 -4.84375,4.875 l -64.18751,0 c -2.6762493,0 -4.8749993,-2.19875 -4.8749993,-4.875 l 0,-21.43751 c 0,-2.67375 2.19875,-4.84375 4.8749993,-4.84375 z"
   id="path10056" /><path
   inkscape:connector-curvature="0"
   d="m 73.527458,10.83099 -1.575,0 -2.04875,2.9 -2.0725,-2.9 -1.5725,0 2.99625,4.22375 0,2.89875 1.27375,0 0,-2.89875 2.99875,-4.22375 z m -10.4425,4.17375 -1.99625,0 0.9975,-2.4 0.99875,2.4 z m 2.6225,2.94875 -2.97125,-7.1225 -1.29875,0 -2.99875,7.1225 1.4,0 0.7,-1.67375 3.09625,0 0.7,1.67375 1.3725,0 z m -7.8175,-7.1225 -1.29875,0 -0.7225,4.59875 -1.10125,-4.59875 -1.2725,0 -1.05125,4.59875 -0.7725,-4.59875 -1.3225,0 1.29875,7.1225 1.3475,0 1.1225,-4.7725 1.15,4.7725 1.3475,0 1.275,-7.1225 z m -10.715,4.17375 -1.99751,0 0.9975,-2.4 1.00001,2.4 z m 2.62125,2.94875 -2.97125,-7.1225 -1.29876,0 -2.99875,7.1225 1.4,0 0.7,-1.67375 3.09626,0 0.70125,1.67375 1.37125,0 z m -9.24126,-4.14875 -2.4975,0 0,1.275 2.4975,0 0,-1.275 z m -4.995,-2.97375 -1.29875,0 -0.725,4.59875 -1.09875,-4.59875 -1.27375,0 -1.0475,4.59875 -0.77625,-4.59875 -1.32375,0 1.29875,7.1225 1.35,0 1.12375,-4.7725 1.15,4.7725 1.3475,0 1.27375,-7.1225 z m -9.7925,3.54875 c 0,1.09875 -0.325,2.425 -1.6725,2.425 -1.07375,0 -1.72375,-0.90125 -1.72375,-2.425 0,-1.49875 0.65,-2.3975 1.72375,-2.3975 1.075,0 1.6725,0.89875 1.6725,2.3975 m 1.275,-0.025 c 0,-2.17375 -1.19875,-3.64625 -2.9475,-3.64625 -1.8725,0 -3.0225,1.39875 -3.0225,3.67125 0,1.8 0.92625,3.70125 3.0225,3.70125 1.8,0 2.9475,-1.5025 2.9475,-3.72625 m -6.94375,-2.27375 0,-1.25 -5.34375,0 0,1.25 2.0475,0 0,5.8725 1.2475,0 0,-5.8725 2.04875,0 z"
   style="fill:#bf2519;fill-opacity:1;fill-rule:evenodd;stroke:none"
   id="path10064" /><path
   inkscape:connector-curvature="0"
   d="m 57.521208,32.2485 0,-1.27125 -4.02125,0 0,-1.95125 2.12125,0 0,-1.29875 -2.12125,0 0,-1.32375 3.89625,0 0,-1.27375 -5.195,0 0,7.11875 5.32,0 z m -7.6,0 0,-7.11875 -1.22625,0 0,4.69625 -3.26876,-4.69625 -1.25,0 0,7.11875 1.25,0 0,-4.895 3.39376,4.895 1.10125,0 z m -9.07501,-3.57125 c 0,1.09875 -0.325,2.4225 -1.6725,2.4225 -1.0725,0 -1.72125,-0.89875 -1.72125,-2.4225 0,-1.5 0.64875,-2.39875 1.72125,-2.39875 1.07375,0 1.6725,0.89875 1.6725,2.39875 m 1.27625,-0.025 c 0,-2.175 -1.19875,-3.64875 -2.94875,-3.64875 -1.8725,0 -3.02,1.4 -3.02,3.67375 0,1.79875 0.9225,3.7025 3.02,3.7025 1.79875,0 2.94875,-1.505 2.94875,-3.7275 m -7.6,3.59625 0,-1.27125 -4.02375,0 4.02375,-4.39875 0,-1.44875 -5.37125,0 0,1.2475 3.82125,0 -4.045,4.42375 0,1.4475 5.595,0 z"
   style="fill:#bf2519;fill-opacity:1;fill-rule:evenodd;stroke:none"
   id="path10068" /></svg>