<?xml version="1.0" encoding="UTF-8" standalone="no"?>
<!-- Generator: Adobe Illustrator 14.0.0, SVG Export Plug-In  -->

<svg
   xmlns:dc="http://purl.org/dc/elements/1.1/"
   xmlns:cc="http://creativecommons.org/ns#"
   xmlns:rdf="http://www.w3.org/1999/02/22-rdf-syntax-ns#"
   xmlns:svg="http://www.w3.org/2000/svg"
   xmlns="http://www.w3.org/2000/svg"
   xmlns:sodipodi="http://sodipodi.sourceforge.net/DTD/sodipodi-0.dtd"
   xmlns:inkscape="http://www.inkscape.org/namespaces/inkscape"
   version="1.1"
   x="0px"
   y="0px"
   width="130.34372"
   height="173.4062"
   viewBox="0 -0.321 130.34372 173.40624"
   enable-background="new 0 -0.321 144 120"
   xml:space="preserve"
   id="svg2"
   inkscape:version="0.48.2 r9819"
   sodipodi:docname="MUTCD R7-202P.svg"><metadata
   id="metadata44"><rdf:RDF><cc:Work
       rdf:about=""><dc:format>image/svg+xml</dc:format><dc:type
         rdf:resource="http://purl.org/dc/dcmitype/StillImage" /><dc:title></dc:title></cc:Work></rdf:RDF></metadata><sodipodi:namedview
   pagecolor="#ffffff"
   bordercolor="#666666"
   borderopacity="1"
   objecttolerance="10"
   gridtolerance="10"
   guidetolerance="10"
   inkscape:pageopacity="0"
   inkscape:pageshadow="2"
   inkscape:window-width="1280"
   inkscape:window-height="1004"
   id="namedview42"
   showgrid="false"
   fit-margin-top="0"
   fit-margin-left="0"
   fit-margin-right="0"
   fit-margin-bottom="0"
   inkscape:zoom="2.1881986"
   inkscape:cx="106.50229"
   inkscape:cy="82.21109"
   inkscape:window-x="-8"
   inkscape:window-y="-8"
   inkscape:window-maximized="1"
   inkscape:current-layer="svg2"
   showguides="true"
   inkscape:guide-bbox="true" />
<defs
   id="defs4">
</defs>


















<path
   inkscape:connector-curvature="0"
   d="m 12.023419,0.18602 106.301291,0 c 6.3375,0 11.51125,5.175 11.51125,11.4475 l 0,149.49628 c 0,6.27251 -5.17375,11.44751 -11.51125,11.44751 l -106.301291,0 c -6.3374999,0 -11.50874984,-5.175 -11.50874984,-11.44751 l 0,-149.49628 c 0,-6.2725 5.17124994,-11.4475 11.50874984,-11.4475"
   style="fill:#ffffff;fill-opacity:1;fill-rule:evenodd;stroke:#000000;stroke-width:1.00000024;stroke-miterlimit:4;stroke-opacity:1;stroke-dasharray:none"
   id="path9860" /><path
   inkscape:connector-curvature="0"
   style="fill:#bf2519;fill-opacity:1;fill-rule:evenodd;stroke:none"
   d="m 12.031299,3.0824 c -4.7187499,0 -8.5937499,3.9075 -8.5937499,8.625 l 0,149.43753 c 0,4.72126 3.875,8.59376 8.5937499,8.59376 l 106.281291,0 c 4.72125,0 8.625,-3.8725 8.625,-8.59376 l 0,-149.43753 c 0,-4.7175 -3.90375,-8.625 -8.625,-8.625 l -106.281291,0 z m -4.2812499,67.53126 114.8437909,0 0,90.25002 c 0,2.52125 -2.01,4.53126 -4.46875,4.53126 l -105.906291,0 c -2.4587499,0 -4.4687499,-2.01001 -4.4687499,-4.53126 l 0,-90.25002 z"
   id="path9868" /><path
   inkscape:connector-curvature="0"
   d="m 24.481919,97.82604 -4.43375,-9.61876 0,9.61876 -2.065,0 0,-14.35501 2.065,0 3.92875,8.61376 0,-8.61376 2.065,0 0,14.35501 -1.56,0 z"
   style="fill:#bf2519;fill-opacity:1;fill-rule:evenodd;stroke:none"
   id="path9948" /><path
   inkscape:connector-curvature="0"
   d="m 37.326179,90.62467 c 0,-2.16626 -0.2025,-3.52626 -0.80875,-4.93751 -0.7025,-1.7625 -1.71125,-2.4675 -3.37375,-2.4675 -1.66251,0 -2.67126,0.705 -3.42501,2.41875 -0.605,1.36 -0.805,2.82 -0.805,4.98626 0,2.21625 0.2,3.57625 0.805,4.9875 0.705,1.71125 1.71375,2.46875 3.42501,2.46875 1.61125,0 2.67125,-0.7575 3.37375,-2.46875 0.60625,-1.36 0.80875,-2.77125 0.80875,-4.9875 m -1.965,0 c 0,1.6625 -0.1,2.51875 -0.455,3.67625 -0.35125,1.20875 -0.905,1.7625 -1.7625,1.7625 -0.905,0 -1.46001,-0.55375 -1.81376,-1.7625 -0.3025,-1.1575 -0.45125,-2.0625 -0.45125,-3.625 0,-1.61375 0.1,-2.57126 0.45125,-3.67751 0.35375,-1.2075 0.90876,-1.765 1.81376,-1.765 0.8575,0 1.41125,0.5575 1.7625,1.81375 0.30375,1.0575 0.455,1.96626 0.455,3.57751"
   style="fill:#bf2519;fill-opacity:1;fill-rule:evenodd;stroke:none"
   id="path9952" /><path
   inkscape:connector-curvature="0"
   d="m 55.407429,87.50229 c 0,-2.4175 -1.51125,-4.03125 -3.7775,-4.03125 l -4.28125,0 0,14.35501 2.065,0 0,-6.29375 2.21625,0 c 2.4175,0 3.7775,-1.41125 3.7775,-4.03001 m -2.015,0 c 0,1.30876 -0.65375,2.06501 -1.8625,2.06501 l -2.11625,0 0,-4.08001 2.11625,0 c 1.10625,0 1.8625,0.80625 1.8625,2.015"
   style="fill:#bf2519;fill-opacity:1;fill-rule:evenodd;stroke:none"
   id="path9956" /><path
   inkscape:connector-curvature="0"
   d="m 65.428679,97.82604 -3.57375,-14.35501 -2.01375,0 -3.5775,14.35501 2.06375,0 0.95875,-3.9275 3.07125,0 1.00875,3.9275 2.0625,0 z m -3.57375,-5.94125 -2.065,0 1.0075,-4.13126 1.0575,4.13126 z"
   style="fill:#bf2519;fill-opacity:1;fill-rule:evenodd;stroke:none"
   id="path9960" /><path
   inkscape:connector-curvature="0"
   d="m 75.453679,97.82604 -2.065,-7.05 c 1.35875,-0.50375 2.065,-1.7625 2.065,-3.47626 0,-2.315 -1.51125,-3.82875 -3.7775,-3.82875 l -4.28125,0 0,14.35501 2.065,0 0,-6.7475 1.965,0 1.915,6.7475 2.11375,0 z m -2.01375,-10.52626 c 0,1.15875 -0.655,1.81376 -1.86625,1.81376 l -2.11375,0 0,-3.62626 2.11375,0 c 1.11125,0 1.86625,0.70375 1.86625,1.8125"
   style="fill:#bf2519;fill-opacity:1;fill-rule:evenodd;stroke:none"
   id="path9964" /><path
   inkscape:connector-curvature="0"
   d="m 83.763699,97.82604 -2.51875,-6.99875 -1.30875,2.41625 0,4.5825 -2.06501,0 0,-14.35501 2.06501,0 0,5.74251 3.27375,-5.74251 2.36875,0 -2.97375,5.03875 3.325,9.31626 -2.16625,0 z"
   style="fill:#bf2519;fill-opacity:1;fill-rule:evenodd;stroke:none"
   id="path9968" /><path
   inkscape:connector-curvature="0"
   d="m 88.346319,83.47116 2.0175,0 0,14.35501 -2.0175,0 0,-14.35501 z"
   style="fill:#bf2519;fill-opacity:1;fill-rule:evenodd;stroke:none"
   id="path9970" /><path
   inkscape:connector-curvature="0"
   d="m 100.03371,97.82604 -4.433761,-9.61876 0,9.61876 -2.0625,0 0,-14.35501 2.0625,0 3.93125,8.61376 0,-8.61376 2.065011,0 0,14.35501 -1.5625,0 z"
   style="fill:#bf2519;fill-opacity:1;fill-rule:evenodd;stroke:none"
   id="path9974" /><path
   inkscape:connector-curvature="0"
   d="m 112.07246,96.06355 c -0.555,1.26 -1.71375,2.0175 -3.17375,2.0175 -1.71376,0 -2.97126,-0.8575 -3.67751,-2.46875 -0.45375,-1.06 -0.75625,-3.07375 -0.75625,-4.93625 0,-2.01501 0.15125,-3.47751 0.65375,-4.83626 0.50625,-1.51125 1.96625,-2.62 3.62876,-2.62 2.065,0 3.625,1.51125 3.7275,3.6275 l -2.065,0 c -0.0512,-0.95625 -0.70625,-1.61375 -1.71375,-1.61375 -0.70626,0 -1.25751,0.35375 -1.61126,1.06 -0.40375,0.705 -0.655,2.31625 -0.655,4.02876 0,1.21 0.1,2.4675 0.3025,3.57625 0.30375,1.41125 1.00625,2.165 2.11501,2.165 1.05875,0 1.5625,-0.705 1.5625,-2.21375 l 0,-0.9575 -1.61125,0 0,-2.01625 3.67625,0 0,2.97375 c 0,1.005 -0.1025,1.61125 -0.4025,2.21375"
   style="fill:#bf2519;fill-opacity:1;fill-rule:evenodd;stroke:none"
   id="path9978" /><path
   inkscape:connector-curvature="0"
   d="m 35.246309,110.75867 2.01375,0 0,14.35501 -2.01375,0 0,-14.35501 z"
   style="fill:#bf2519;fill-opacity:1;fill-rule:evenodd;stroke:none"
   id="path9980" /><path
   inkscape:connector-curvature="0"
   d="m 42.499929,112.7723 0,3.62625 2.87125,0 0,1.965 -2.87125,0 0,6.75001 -2.06625,0 0,-14.35501 7.305,0 0,2.01375 -5.23875,0 z"
   style="fill:#bf2519;fill-opacity:1;fill-rule:evenodd;stroke:none"
   id="path9984" /><path
   inkscape:connector-curvature="0"
   d="m 65.064939,117.90967 c 0,-2.16625 -0.2,-3.525 -0.805,-4.93625 -0.70625,-1.76375 -1.71125,-2.46875 -3.37375,-2.46875 -1.6625,0 -2.67125,0.705 -3.42625,2.42 -0.605,1.35875 -0.805,2.81875 -0.805,4.985 0,2.21626 0.2,3.57626 0.805,4.98751 0.70625,1.71125 1.7125,2.46875 3.42625,2.46875 1.61125,0 2.6675,-0.7575 3.37375,-2.46875 0.605,-1.36 0.805,-2.77125 0.805,-4.98751 m -1.965,0 c 0,1.66251 -0.1,2.51876 -0.45125,3.67876 -0.35375,1.20875 -0.90875,1.76 -1.7625,1.76 -0.90875,0 -1.4625,-0.55125 -1.815,-1.76 -0.3025,-1.16 -0.45375,-2.065 -0.45375,-3.62751 0,-1.61125 0.1,-2.56875 0.45375,-3.6775 0.3525,-1.2075 0.90625,-1.7625 1.815,-1.7625 0.85375,0 1.40875,0.555 1.7625,1.81375 0.3,1.0575 0.45125,1.96375 0.45125,3.575"
   style="fill:#bf2519;fill-opacity:1;fill-rule:evenodd;stroke:none"
   id="path9988" /><path
   inkscape:connector-curvature="0"
   d="m 72.016179,125.11343 -1.56,0 -3.6275,-14.35501 2.065,0 2.3675,9.31876 2.36625,-9.31876 2.065,0 -3.67625,14.35501 z"
   style="fill:#bf2519;fill-opacity:1;fill-rule:evenodd;stroke:none"
   id="path9992" /><path
   inkscape:connector-curvature="0"
   d="m 77.707429,125.11343 0,-14.35501 6.75001,0 0,2.01375 -4.685,0 0,3.62625 2.97125,0 0,1.965 -2.97125,0 0,4.73626 5.23875,0 0,2.01375 -7.30376,0 z"
   style="fill:#bf2519;fill-opacity:1;fill-rule:evenodd;stroke:none"
   id="path9996" /><path
   inkscape:connector-curvature="0"
   d="m 95.487439,125.11343 -2.065,-7.05251 c 1.36,-0.5025 2.065,-1.7625 2.065,-3.47625 0,-2.315 -1.51125,-3.82625 -3.77625,-3.82625 l -4.2825,0 0,14.35501 2.065,0 0,-6.75001 1.96375,0 1.91625,6.75001 2.11375,0 z m -2.01375,-10.52876 c 0,1.15875 -0.65625,1.81375 -1.865,1.81375 l -2.115,0 0,-3.62625 2.115,0 c 1.1075,0 1.865,0.70625 1.865,1.8125"
   style="fill:#bf2519;fill-opacity:1;fill-rule:evenodd;stroke:none"
   id="path10000" /><path
   inkscape:connector-curvature="0"
   d="m 28.915429,152.46481 c 0.1,-1.965 0.25125,-2.67 0.70625,-3.9275 0.6025,-1.51125 1.35875,-2.67125 2.31625,-3.5775 0.35126,-0.3025 0.65376,-0.55375 1.81376,-1.35875 0.9575,-0.655 1.20875,-1.00875 1.20875,-1.715 0,-1.105 -0.90875,-2.01375 -2.01375,-2.01375 -1.10876,0 -2.01751,0.90875 -2.01751,2.01375 l -2.01375,0 c 0.0512,-2.265 1.7625,-4.0275 4.03126,-4.0275 2.215,0 3.9775,1.81125 3.9775,4.0275 0,1.16 -0.40125,2.06625 -1.20875,2.8225 -0.15125,0.1 -0.3025,0.2 -0.45375,0.3525 l -0.50375,0.35125 -0.5025,0.35375 -0.555,0.4025 c -0.905,0.655 -1.86251,1.96625 -2.26501,3.17375 -0.15125,0.3525 -0.2025,0.60375 -0.30375,1.10875 l 5.79251,0 0,2.01375 -8.00876,0 z"
   style="fill:#bf2519;fill-opacity:1;fill-rule:evenodd;stroke:none"
   id="path10004" /><path
   inkscape:connector-curvature="0"
   d="m 46.493809,138.10993 2.01625,0 0,14.355 -2.01625,0 0,-14.355 z"
   style="fill:#bf2519;fill-opacity:1;fill-rule:evenodd;stroke:none"
   id="path10006" /><path
   inkscape:connector-curvature="0"
   d="m 58.181189,152.46481 -4.43375,-9.61875 0,9.61875 -2.06625,0 0,-14.355 2.06625,0 3.93,8.61375 0,-8.61375 2.06375,0 0,14.355 -1.56,0 z"
   style="fill:#bf2519;fill-opacity:1;fill-rule:evenodd;stroke:none"
   id="path10010" /><path
   inkscape:connector-curvature="0"
   d="m 68.556189,141.9373 c -0.2025,-1.41 -0.75625,-2.065 -1.71375,-2.065 -1.6625,0 -2.265,1.30875 -2.265,5.03625 0,4.13125 0.705,5.79375 2.4675,5.79375 1.20875,0 1.51125,-1.0075 1.51125,-2.065 l 2.06625,0 c -0.0512,2.3675 -1.5625,4.08 -3.5775,4.08 -3.07375,0 -4.43375,-2.46875 -4.43375,-7.7575 0,-4.63375 1.4625,-7.10125 4.2825,-7.10125 1.1575,0 2.16625,0.5025 2.82,1.46 0.55375,0.705 0.7575,1.31125 0.90875,2.61875 l -2.06625,0 z"
   style="fill:#bf2519;fill-opacity:1;fill-rule:evenodd;stroke:none"
   id="path10014" /><path
   inkscape:connector-curvature="0"
   d="m 79.486199,152.46481 0,-6.49875 -3.92751,0 0,6.49875 -2.065,0 0,-14.355 2.065,0 0,5.8425 3.92751,0 0,-5.8425 2.06625,0 0,14.355 -2.06625,0 z"
   style="fill:#bf2519;fill-opacity:1;fill-rule:evenodd;stroke:none"
   id="path10018" /><path
   inkscape:connector-curvature="0"
   d="m 84.672439,152.46481 0,-14.355 6.75,0 0,2.01375 -4.685,0 0,3.62875 2.97375,0 0,1.965 -2.97375,0 0,4.73375 5.24,0 0,2.01375 -7.305,0 z"
   style="fill:#bf2519;fill-opacity:1;fill-rule:evenodd;stroke:none"
   id="path10022" /><path
   inkscape:connector-curvature="0"
   d="m 97.718689,152.7173 c -2.51875,0 -4.03,-2.115 -4.03,-4.4825 l 2.01625,0 c 0,1.2075 0.60375,2.4675 2.01375,2.4675 1.10875,0 2.015,-1.0075 2.015,-2.165 0,-0.80625 -0.3025,-1.41125 -1.1575,-2.06625 -0.3025,-0.3025 0.5025,0.2525 -2.42,-1.71375 -1.15625,-0.805 -1.7625,-1.91125 -1.7625,-3.17375 0,-2.065 1.61125,-3.725 3.6775,-3.725 2.016261,0 3.576261,1.56 3.627511,3.725 l -1.965011,0 c -0.0488,-1.005 -0.755,-1.66 -1.6625,-1.66 -0.9575,0 -1.71125,0.70625 -1.71125,1.66 0,0.70625 0.3025,1.10875 1.35875,1.71375 2.771261,1.61125 3.980011,3.17375 3.980011,5.24 0,2.31625 -1.762511,4.18 -3.980011,4.18"
   style="fill:#bf2519;fill-opacity:1;fill-rule:evenodd;stroke:none"
   id="path10026" /><path
   inkscape:connector-curvature="0"
   d="m 10.114169,30.3209 0,-14.35625 8.4625,0 0,2.2675 -6.1975,0 0,3.525 4.1825,0 0,2.31625 -4.1825,0 0,3.93 6.65125,0 0,2.3175 -8.91625,0 z"
   style="fill:#ffffff;fill-opacity:1;fill-rule:evenodd;stroke:none"
   id="path9876" /><path
   inkscape:connector-curvature="0"
   d="m 30.363169,30.3209 0,-8.3125 -3.325,8.3125 -3.325,-8.3125 0,8.3125 -2.26625,0 0,-14.35625 2.26625,0 3.325,8.06 3.325,-8.06 2.26626,0 0,14.35625 -2.26626,0 z"
   style="fill:#ffffff;fill-opacity:1;fill-rule:evenodd;stroke:none"
   id="path9880" /><path
   inkscape:connector-curvature="0"
   d="m 36.053679,30.3209 0,-14.35625 8.4625,0 0,2.2675 -6.19375,0 0,3.525 4.18,0 0,2.31625 -4.18,0 0,3.93 6.6475,0 0,2.3175 -8.91625,0 z"
   style="fill:#ffffff;fill-opacity:1;fill-rule:evenodd;stroke:none"
   id="path9884" /><path
   inkscape:connector-curvature="0"
   d="m 57.159939,30.3209 -2.51875,-6.7 c 1.31,-0.60375 2.21625,-2.115 2.21625,-3.62625 0,-1.46125 -0.90625,-2.97125 -2.165,-3.5775 -0.70625,-0.35125 -1.4625,-0.4525 -2.56875,-0.4525 l -4.73625,0 0,14.35625 2.2675,0 0,-6.2475 2.72,0 2.3175,6.2475 2.4675,0 z m -2.57,-10.32625 c 0,0.60375 -0.3525,1.20875 -0.90625,1.51125 -0.35125,0.20125 -0.60375,0.25125 -1.30875,0.25125 l -2.72,0 0,-3.525 2.72,0 c 0.755,0 0.9575,0.0513 1.30875,0.25125 0.55375,0.3025 0.90625,0.90625 0.90625,1.51125"
   style="fill:#ffffff;fill-opacity:1;fill-rule:evenodd;stroke:none"
   id="path9888" /><path
   inkscape:connector-curvature="0"
   d="m 64.513679,30.57352 c -2.165,0 -3.425,-0.80625 -4.2825,-2.62 -0.6025,-1.26 -0.95625,-3.0225 -0.95625,-4.785 0,-2.3175 0.65375,-4.58375 1.61125,-5.84375 0.85625,-1.05875 2.065,-1.61125 3.67625,-1.61125 2.21625,0 3.5275,0.9075 4.485,3.1725 l -2.16625,0.8575 c -0.605,-1.26 -1.2075,-1.71375 -2.31875,-1.71375 -1.1575,0 -1.91125,0.50375 -2.4175,1.7625 -0.35125,0.85625 -0.55375,2.1675 -0.55375,3.37625 0,1.51125 0.25125,3.0225 0.70625,3.9275 0.45375,0.80625 1.1075,1.16 1.965,1.16 1.46,0 2.51625,-0.90625 2.51625,-2.21625 l 0,-0.60625 -2.61625,0 0,-2.265 4.885,0 0,2.87125 c 0,2.6175 -1.91375,4.53375 -4.53375,4.53375"
   style="fill:#ffffff;fill-opacity:1;fill-rule:evenodd;stroke:none"
   id="path9892" /><path
   inkscape:connector-curvature="0"
   d="m 72.169929,30.3209 0,-14.35625 8.46126,0 0,2.2675 -6.19626,0 0,3.525 4.1825,0 0,2.31625 -4.1825,0 0,3.93 6.65126,0 0,2.3175 -8.91626,0 z"
   style="fill:#ffffff;fill-opacity:1;fill-rule:evenodd;stroke:none"
   id="path9896" /><path
   inkscape:connector-curvature="0"
   d="m 91.258689,30.3209 -5.49,-9.7225 0,9.7225 -2.26625,0 0,-14.35625 2.26625,0 5.23875,9.1675 0,-9.1675 2.26625,0 0,14.35625 -2.015,0 z"
   style="fill:#ffffff;fill-opacity:1;fill-rule:evenodd;stroke:none"
   id="path9900" /><path
   inkscape:connector-curvature="0"
   d="m 101.83495,30.57352 c -2.113761,0 -3.473761,-0.80625 -4.380011,-2.57 -0.65625,-1.25875 -1.05875,-3.0725 -1.05875,-4.885 0,-2.2675 0.605,-4.53375 1.61375,-5.79375 0.85375,-1.05875 2.065011,-1.61125 3.676261,-1.61125 2.16625,0 3.52625,0.9075 4.4825,2.92125 l -2.11625,0.90625 c -0.80625,-1.20875 -1.2575,-1.51125 -2.36625,-1.51125 -1.15875,0 -1.916261,0.50375 -2.418761,1.7625 -0.3525,0.85625 -0.5525,2.11625 -0.5525,3.32625 0,1.56125 0.3525,3.12125 0.90625,4.02875 0.502511,0.755 1.157511,1.10875 2.165011,1.10875 0.9575,0 1.6625,-0.505 2.2175,-1.6625 l 2.165,0.80625 c -0.85625,2.115 -2.265,3.17375 -4.33375,3.17375"
   style="fill:#ffffff;fill-opacity:1;fill-rule:evenodd;stroke:none"
   id="path9904" /><path
   inkscape:connector-curvature="0"
   d="m 115.58747,24.07352 0,6.2475 -2.26501,0 0,-6.2475 -5.03875,-8.10875 2.72125,0 3.42626,5.54125 3.47375,-5.54125 2.67125,0 -4.98875,8.10875 z"
   style="fill:#ffffff;fill-opacity:1;fill-rule:evenodd;stroke:none"
   id="path9908" /><path
   inkscape:connector-curvature="0"
   d="m 16.561919,56.81341 c -0.80625,0.705 -1.91375,1.10875 -3.1225,1.10875 -2.46875,0 -4.2799999,-1.46 -5.2374999,-3.62625 l 2.1662499,-0.8075 c 0.6025,1.3625 1.71125,2.11625 3.07125,2.11625 1.31125,0 2.21625,-0.90625 2.21625,-2.11625 0,-1.915 -2.21625,-2.215 -4.07875,-2.97125 -0.8575,-0.35125 -2.7712499,-1.20875 -2.7712499,-3.5775 0,-2.81875 1.9137499,-3.87625 4.4824999,-3.87625 2.01625,0 3.37375,1.1575 4.08,2.92 l -2.015,0.605 c 0,0 -0.5025,-1.20875 -2.11375,-1.26 -1.06,-0.05 -2.32,0.35375 -2.2175,1.6625 0.2025,2.66875 6.95125,0.90625 6.95125,6.54875 0,1.31125 -0.5025,2.4675 -1.41125,3.27375"
   style="fill:#ffffff;fill-opacity:1;fill-rule:evenodd;stroke:none"
   id="path9912" /><path
   inkscape:connector-curvature="0"
   d="m 28.148919,57.66978 -5.49375,-9.72125 0,9.72125 -2.265,0 0,-14.355 2.265,0 5.24,9.1675 0,-9.1675 2.2675,0 0,14.355 -2.01375,0 z"
   style="fill:#ffffff;fill-opacity:1;fill-rule:evenodd;stroke:none"
   id="path9916" /><path
   inkscape:connector-curvature="0"
   d="m 43.458679,50.51716 c 0,-1.81375 -0.35125,-3.62625 -0.95375,-4.885 -0.90875,-1.76375 -2.16875,-2.56875 -3.9825,-2.56875 -1.66,0 -2.82,0.5025 -3.67625,1.61125 -0.955,1.36 -1.56125,3.475 -1.56125,5.8425 0,1.71125 0.40375,3.6275 1.00625,4.83625 0.8575,1.7625 2.1175,2.56875 4.13125,2.56875 1.51125,0 2.67125,-0.50375 3.47625,-1.61125 1.00625,-1.26 1.56,-3.52875 1.56,-5.79375 m -2.265,0 c 0,1.1075 -0.25125,2.51875 -0.555,3.27375 -0.5025,1.26 -1.15875,1.81375 -2.21625,1.81375 -0.90625,0 -1.51125,-0.35125 -1.965,-1.10875 -0.5525,-0.9075 -0.855,-2.4675 -0.855,-3.97875 0,-1.20875 0.2,-2.51875 0.55375,-3.375 0.50375,-1.25875 1.20875,-1.81375 2.3175,-1.7625 0.855,0.0487 1.40875,0.3525 1.8625,1.1075 0.555,0.95875 0.8575,2.41875 0.8575,4.03"
   style="fill:#ffffff;fill-opacity:1;fill-rule:evenodd;stroke:none"
   id="path9920" /><path
   inkscape:connector-curvature="0"
   d="m 56.002439,57.66978 -2.01625,0 -2.265,-9.21875 -2.2175,9.21875 -2.01375,0 -2.1175,-14.355 2.3175,0 1.10875,7.55375 1.81375,-7.55375 2.21625,0 1.86375,7.55375 1.1075,-7.55375 2.3175,0 -2.115,14.355 z"
   style="fill:#ffffff;fill-opacity:1;fill-rule:evenodd;stroke:none"
   id="path9924" /><path
   inkscape:connector-curvature="0"
   d="m 75.107439,57.66978 -2.5175,-6.69875 c 1.30875,-0.605 2.21375,-2.11625 2.21375,-3.62625 0,-1.46125 -0.905,-2.9725 -2.165,-3.5775 -0.705,-0.3525 -1.46,-0.4525 -2.56875,-0.4525 l -4.73375,0 0,14.355 2.26625,0 0,-6.2475 2.71875,0 2.3175,6.2475 2.46875,0 z m -2.56875,-10.325 c 0,0.60375 -0.35125,1.20625 -0.90875,1.51 -0.35125,0.2025 -0.6025,0.25125 -1.30875,0.25125 l -2.71875,0 0,-3.525 2.71875,0 c 0.7575,0 0.9575,0.0512 1.30875,0.2525 0.5575,0.30125 0.90875,0.90625 0.90875,1.51125"
   style="fill:#ffffff;fill-opacity:1;fill-rule:evenodd;stroke:none"
   id="path9928" /><path
   inkscape:connector-curvature="0"
   d="m 87.397439,50.51716 c 0,-1.81375 -0.3525,-3.62625 -0.9575,-4.885 -0.90625,-1.76375 -2.165,-2.56875 -3.98,-2.56875 -1.6625,0 -2.81875,0.5025 -3.67625,1.61125 -0.95751,1.36 -1.56251,3.475 -1.56251,5.8425 0,1.71125 0.4025,3.6275 1.00875,4.83625 0.85626,1.7625 2.11376,2.56875 4.13001,2.56875 1.51125,0 2.66875,-0.50375 3.475,-1.61125 1.0075,-1.26 1.5625,-3.52875 1.5625,-5.79375 m -2.26625,0 c 0,1.1075 -0.25375,2.51875 -0.55625,3.27375 -0.50375,1.26 -1.1575,1.81375 -2.215,1.81375 -0.9075,0 -1.51125,-0.35125 -1.965,-1.10875 -0.55375,-0.9075 -0.8575,-2.4675 -0.8575,-3.97875 0,-1.20875 0.20375,-2.51875 0.555,-3.375 0.505,-1.25875 1.21125,-1.81375 2.31625,-1.7625 0.8575,0.0487 1.41125,0.3525 1.86625,1.1075 0.55375,0.95875 0.85625,2.41875 0.85625,4.03"
   style="fill:#ffffff;fill-opacity:1;fill-rule:evenodd;stroke:none"
   id="path9932" /><path
   inkscape:connector-curvature="0"
   d="m 99.687439,55.50466 c -0.7575,1.41125 -2.46875,2.4175 -4.23125,2.4175 -1.765,0 -3.47625,-1.00625 -4.23125,-2.4175 -0.405,-0.8575 -0.65375,-1.865 -0.65375,-2.97375 l 0,-9.21625 2.265,0 0,9.21625 c 0,1.865 1.0575,3.07375 2.62,3.07375 1.5625,0 2.6175,-1.20875 2.6175,-3.07375 l 0,-9.21625 2.267511,0 0,9.21625 c 0,1.10875 -0.25125,2.11625 -0.653761,2.97375"
   style="fill:#ffffff;fill-opacity:1;fill-rule:evenodd;stroke:none"
   id="path9936" /><path
   inkscape:connector-curvature="0"
   d="m 108.0462,45.32841 0,12.34125 -2.265,0 0,-12.34125 -3.275,0 0,-2.01375 8.8675,0 0,2.01375 -3.3275,0 z"
   style="fill:#ffffff;fill-opacity:1;fill-rule:evenodd;stroke:none"
   id="path9940" /><path
   inkscape:connector-curvature="0"
   d="m 113.48871,57.66978 0,-14.355 8.46125,0 0,2.26625 -6.19625,0 0,3.525 4.1825,0 0,2.31625 -4.1825,0 0,3.93125 6.64875,0 0,2.31625 -8.91375,0 z"
   style="fill:#ffffff;fill-opacity:1;fill-rule:evenodd;stroke:none"
   id="path9944" /></svg>