<?xml version="1.0" encoding="utf-8"?>
<!-- Generator: Adobe Illustrator 27.9.0, SVG Export Plug-In . SVG Version: 6.00 Build 0)  -->
<svg version="1.1" xmlns="http://www.w3.org/2000/svg" xmlns:xlink="http://www.w3.org/1999/xlink" x="0px" y="0px"
	 viewBox="0 0 173.3 130.1" style="enable-background:new 0 0 173.3 130.1;" xml:space="preserve">
<style type="text/css">
	.st0{fill:#FFFFFF;}
	.st1{fill:#006F53;}
</style>
<g id="Layer_1">
</g>
<g id="For_Sheets">
	<g>
		<g>
			<path class="st0" d="M11.1,130c-6,0-10.9-4.9-10.9-10.9v-108C0.1,5,5,0.1,11.1,0.1h151.2c6,0,10.9,4.9,10.9,10.9v108
				c0,6-4.9,10.9-10.9,10.9H11.1z"/>
			<path d="M162.2,0.2c6,0,10.8,4.8,10.8,10.8v108c0,6-4.8,10.8-10.8,10.8H11c-6,0-10.8-4.8-10.8-10.8v-108c0-6,4.8-10.8,10.8-10.8
				H162.2 M162.2,0H11C5,0,0,5,0,11.1v108c0,6.1,5,11,11,11h151.2c6.1,0,11-5,11-11v-108C173.3,5,168.3,0,162.2,0L162.2,0z"/>
		</g>
		<path class="st1" d="M11,127.2c-4.5,0-8.1-3.6-8.1-8.1v-108C2.9,6.6,6.6,3,11,3h151.2c4.5,0,8.1,3.6,8.1,8.1v108
			c0,4.5-3.6,8.1-8.1,8.1H11z M119,122.7c2,0,3.6-1.6,3.6-3.6v-108c0-2-1.6-3.6-3.6-3.6H11c-2,0-3.6,1.6-3.6,3.6v108
			c0,2,1.6,3.6,3.6,3.6H119z M130.8,122.7h31.5c2,0,3.6-1.6,3.6-3.6V70.5c0-2-1.6-3.6-3.6-3.6h-31.5c-2,0-3.6,1.6-3.6,3.6v48.6
			C127.1,121,128.8,122.7,130.8,122.7z"/>
		<path class="st1" d="M157.3,94.8c-0.2,0-0.5,0-0.7,0.1l-5.5,2.1V74h-9.4V97l-5.4-2.1c-0.2-0.1-0.4-0.1-0.7-0.1
			c-1,0-1.8,0.8-1.8,1.8c0,0.4,0.1,0.7,0.3,1l12.3,17.9l12.3-17.9c0.2-0.3,0.3-0.6,0.3-1C159.1,95.6,158.3,94.8,157.3,94.8z"/>
		<g>
			<g>
				<path class="st1" d="M81.1,62.9c-3.1,3.1-6.3,6.3-9.3,9.3l9.1,9.1c2.6,2.6,6.7,2.6,9.3,0c2.6-2.6,2.6-6.7,0-9.3L81.1,62.9z"/>
				<path class="st1" d="M82.9,61.8l6.1,6.1c2.6,2.6,6.7,2.6,9.3,0c1.6-1.6,2.2-4,1.8-6.1H82.9z"/>
			</g>
			<g>
				<path class="st1" d="M63.3,12c-2.6,0-5.2,1-7.2,3L26.7,44.4c-2,2-3,4.6-3,7.2v10.6c4.4-3,9.5-4.6,14.9-4.6
					c1.8,0,3.6,0.2,5.4,0.5v-2.3l14.6-14.6h12.9L51.7,61l-1.3,1.3L39.1,73.6c-3.4,3.4-3.9,8.6-1.4,12.6c0.3,0.5,0.7,1,1.1,1.5
					c0.1,0.1,0.2,0.2,0.3,0.3c4,4,10.4,4,14.4,0l9.4-9.4l1.5-1.5L81.5,60H104c2.8,0,5.3-1.1,7.2-3l7-7V12H63.3z"/>
				<path class="st1" d="M54.8,89.2c-4.7,4.7-12.3,4.7-16.9,0c0,0-0.4-0.4-0.4-0.4c-0.5-0.5-0.9-1.1-1.3-1.7
					c-1.2-1.9-1.8-4.1-1.8-6.4c0-0.4,0-0.8,0.1-1.3c0.3-2.7,1.5-5.2,3.4-7.2c0,0,4.9-4.9,10.8-10.8c-3.1-1.4-6.5-2.1-10-2.1
					c-13.7,0-24.9,11.1-24.9,24.9c0,13.7,11.1,24.9,24.9,24.9c13.7,0,24.9-11.1,24.9-24.9c0-1.2-0.1-2.4-0.3-3.6
					C58.5,85.5,54.8,89.2,54.8,89.2z"/>
			</g>
			<path class="st1" d="M65.3,84.3c0,0.9,0,1.9-0.1,2.8l2,2c2.6,2.6,6.7,2.6,9.3,0c2.6-2.6,2.6-6.7,0-9.3l-6.1-6.1
				c-1.9,1.9-3.8,3.8-5.5,5.5l0.2,1.3C65.3,81.7,65.3,83,65.3,84.3z"/>
		</g>
		<path class="st0" d="M142.5,52.4V23.1h-4.2v-8.8c3.2-1.5,3.5-2.4,4.8-5.1h8.1v43.2H142.5z"/>
		<g>
			<path class="st0" d="M136.7,60.1h-3.2v3.1h-1.3V56h1.3v2.8h3.2V56h1.3v7.2h-1.3V60.1z"/>
			<path class="st0" d="M139.6,59.6c0-2.3,1.2-3.7,3.1-3.7c1.8,0,3,1.5,3,3.7c0,2.2-1.2,3.8-3,3.8C140.6,63.4,139.6,61.4,139.6,59.6
				z M140.9,59.6c0,1.5,0.7,2.4,1.7,2.4c1.4,0,1.7-1.3,1.7-2.4c0-1.5-0.6-2.4-1.7-2.4C141.6,57.2,140.9,58.1,140.9,59.6z"/>
			<path class="st0" d="M150.2,62.1c0.8,0,1.6-0.5,1.6-1.7V56h1.3v4.3c0,1.8-1.2,3-2.9,3s-2.9-1.3-2.9-3V56h1.3v4.3
				C148.6,61.5,149.4,62.1,150.2,62.1z"/>
			<path class="st0" d="M159.6,60.2l1.3,3.1h-1.4l-1.2-2.8h-1.9v2.8H155V56h3.4c1.5,0,2.3,1.2,2.3,2.2
				C160.7,59.1,160.3,59.8,159.6,60.2z M156.3,57.3v1.8h2.1c0.6,0,1-0.4,1-0.9c0-0.6-0.4-0.9-1-0.9H156.3z"/>
		</g>
	</g>
</g>
</svg>
