<?xml version="1.0" encoding="utf-8"?>
<!-- Generator: Adobe Illustrator 27.9.0, SVG Export Plug-In . SVG Version: 6.00 Build 0)  -->
<svg version="1.1" xmlns="http://www.w3.org/2000/svg" xmlns:xlink="http://www.w3.org/1999/xlink" x="0px" y="0px"
	 viewBox="0 0 86.9 130.1" style="enable-background:new 0 0 86.9 130.1;" xml:space="preserve">
<style type="text/css">
	.st0{fill:#FFFFFF;}
	.st1{fill:#BF311A;}
</style>
<g id="Layer_1">
</g>
<g id="For_Sheets">
	<g>
		<g>
			<path class="st0" d="M11.1,130c-6,0-10.9-4.9-10.9-10.9v-108C0.1,5,5,0.1,11.1,0.1h64.8c6,0,10.9,4.9,10.9,10.9v108
				c0,6-4.9,10.9-10.9,10.9H11.1z"/>
			<path d="M75.9,0.2c5.9,0,10.8,4.9,10.8,10.8v108c0,5.9-4.9,10.8-10.8,10.8H11.1c-5.9,0-10.8-4.9-10.8-10.8v-108
				c0-5.9,4.9-10.8,10.8-10.8H75.9 M75.9,0H11.1C5,0,0,5,0,11.1v108c0,6.1,5,11,11.1,11h64.8c6.1,0,11-5,11-11v-108
				C86.9,5,81.9,0,75.9,0L75.9,0z"/>
		</g>
		<path class="st1" d="M11.1,127.2c-4.5,0-8.1-3.6-8.1-8.1v-108C3,6.6,6.6,3,11.1,3h64.8c4.5,0,8.1,3.6,8.1,8.1v108
			c0,4.5-3.6,8.1-8.1,8.1H11.1z"/>
		<path class="st0" d="M11.1,124.5c-3,0-5.4-2.4-5.4-5.4v-108c0-3,2.4-5.4,5.4-5.4h64.8c3,0,5.4,2.4,5.4,5.4v108
			c0,3-2.4,5.4-5.4,5.4H11.1z"/>
		<g>
			<rect x="15.6" y="109.2" class="st1" width="47.5" height="5.4"/>
			<path class="st1" d="M60.6,104.7c-0.5,0-0.9,0.4-0.9,0.9c0,0.1,0,0.2,0.1,0.3l2.2,6l-2.2,6c0,0.1-0.1,0.2-0.1,0.3
				c0,0.5,0.4,0.9,0.9,0.9c0.2,0,0.4-0.1,0.5-0.2l10.3-7l-10.3-7C60.9,104.7,60.7,104.7,60.6,104.7z"/>
		</g>
		<g>
			<path class="st1" d="M32,20.9v14.5h-3.1V13.8H32l5.9,13v-13H41v21.6h-2.3L32,20.9z"/>
			<path class="st1" d="M45.3,24.5c0-11.3,5.2-11.1,6.4-11.1c1.2,0,6.3-0.2,6.3,11.1c0,11.4-5.2,11.2-6.3,11.2
				C50.5,35.7,45.3,35.9,45.3,24.5z M51.7,16.4c-0.6,0-3.4-0.1-3.4,8.1c0,8.3,2.8,8.2,3.4,8.2c0.6,0,3.4,0.1,3.4-8.2
				C55.1,16.3,52.3,16.4,51.7,16.4z"/>
		</g>
		<g>
			<path class="st1" d="M11.6,44.5V51h1.5c1.7,0,2.3-0.9,2.3-3.1c0-2.4-0.8-3.5-2.3-3.5H11.6z M13.1,53.9h-1.5v9.4H8.9V41.7h4.4
				c4.6,0,4.9,5.1,4.9,6.3C18.1,51.5,16.1,53.9,13.1,53.9z"/>
			<path class="st1" d="M23.3,54.7h2.3L24.5,49L23.3,54.7z M26.2,57.5h-3.6l-1.2,5.8h-2.8l4.4-21.6h2.8l4.5,21.6h-2.9L26.2,57.5z"/>
			<path class="st1" d="M38,47.6c0-2.4-0.5-3.2-2.4-3.2h-1.3v5.9h1.8C37.6,50.4,38,49.7,38,47.6z M38.6,52.5l2.2,10.8h-3l-2.1-10.1
				h-1.5v10.1h-2.7V41.7h4.2c3.3,0,5.1,2,5.1,6.1C40.8,49.8,40.2,51.6,38.6,52.5z"/>
			<polygon class="st1" points="45.9,53 44.9,55.1 44.9,63.2 42.2,63.2 42.2,41.7 44.9,41.7 44.9,48.6 48.2,41.7 51.4,41.7 
				47.9,49.1 51.7,63.2 48.8,63.2 			"/>
			<rect x="53.1" y="41.7" class="st1" width="2.8" height="21.6"/>
			<polygon class="st1" points="60.5,50.4 60.5,63.2 57.8,63.2 57.8,41.7 60.5,41.7 64.4,52.4 64.4,41.7 67.1,41.7 67.1,63.2 
				64.8,63.2 			"/>
			<path class="st1" d="M73.8,41.4c2.4,0,4,1.5,4.3,4.2h-2.8c-0.1-0.9-0.6-1.4-1.4-1.4c-1.4,0-2.3,1.2-2.3,8.3
				c0,7.2,0.9,8.3,2.3,8.3c1.1,0,1.4-1.3,1.4-2.7v-2.6H74v-2.8h4v5.4c0,1.4,0.2,5.5-4.3,5.5c-3.9,0-5-3-5-11.1
				C68.8,42.9,70.8,41.4,73.8,41.4z"/>
		</g>
		<g>
			<path class="st1" d="M65.4,94.8h-1v6.3h-1.8V86.7h2.9c3.1,0,3.3,3.4,3.3,4.2C68.7,93.2,67.4,94.8,65.4,94.8z M64.4,88.5v4.4h1
				c1.1,0,1.5-0.6,1.5-2.1c0-1.6-0.5-2.3-1.5-2.3H64.4z"/>
			<path class="st1" d="M75.6,92.5l-1.7,5.4l-1.8-5.4v8.5h-1.8V86.7h1.8l1.8,5.1l1.7-5.1h1.8V101h-1.8V92.5z"/>
		</g>
		<g>
			<g>
				<path class="st1" d="M56.5,78.3h-2.4l-0.8,3.8h-1.9l2.9-14.4h1.9l3,14.4h-1.9L56.5,78.3z M54.6,76.4h1.6l-0.8-3.8L54.6,76.4z"/>
				<path class="st1" d="M66.1,73.6L64.4,79l-1.8-5.4v8.5h-1.8V67.8h1.8l1.8,5.1l1.7-5.1h1.8v14.4h-1.8V73.6z"/>
			</g>
			<g>
				<path class="st1" d="M24.9,71.6c0,1.2-0.3,2.1-0.9,2.8c0.7,0.9,1.1,2.1,1.1,3.6c0,2.2-0.8,4.4-3.1,4.4c-2.9,0-3.1-3.5-3.1-4.5
					c0-1.5,0.4-2.7,1.1-3.6c-0.6-0.7-0.9-1.5-0.9-2.8c0-2.5,1.1-4.1,2.8-4.1C23.8,67.5,24.9,69.1,24.9,71.6z M23.3,78
					c0-1.6-0.4-2.5-1.2-2.5c-0.8,0-1.3,0.9-1.3,2.5c0,1.6,0.5,2.6,1.3,2.6C22.9,80.5,23.3,79.6,23.3,78z M23,71.7
					c0-1.5-0.3-2.3-0.9-2.3c-0.7,0-1,0.8-1,2.3c0,1.3,0.3,1.9,1,1.9C22.8,73.6,23,73,23,71.7z"/>
				<path class="st1" d="M26.7,72.1c0-0.6,0.5-1.1,1-1.1c0.6,0,1,0.5,1,1.1c0,0.6-0.4,1.1-1,1.1C27.2,73.1,26.7,72.7,26.7,72.1z
					 M26.7,77.8c0-0.6,0.5-1.1,1-1.1c0.6,0,1,0.5,1,1.1c0,0.6-0.4,1.1-1,1.1C27.2,78.9,26.7,78.4,26.7,77.8z"/>
				<path class="st1" d="M31.8,79.5c0.1,0.6,0.5,1.1,1.1,1.1c1,0,1.3-0.7,1.3-2.4c0-2.3-0.4-2.9-1.6-2.9h-0.6v-1.9h0.5
					c1,0,1.4-0.6,1.4-2.2c0-1.2-0.4-1.8-1.2-1.8c-0.6,0-0.9,0.4-1,1H30c0.1-1.8,1.2-2.8,2.8-2.8c2,0,3,1.2,3,3.6
					c0,1.3-0.2,2.1-0.8,3.1c1,0.8,1.1,2.1,1.1,3.8c0,4.1-2.2,4.3-3.3,4.3c-2,0-2.9-1.9-2.9-2.9H31.8z"/>
				<path class="st1" d="M41,82.4c-3.2,0-3.3-4.1-3.3-7.4s0.1-7.4,3.3-7.4c3.2,0,3.3,4.1,3.3,7.4S44.2,82.4,41,82.4z M39.5,75
					c0,2.5,0,5.6,1.4,5.6c1.4,0,1.4-3,1.4-5.6c0-2.5,0-5.6-1.4-5.6C39.6,69.4,39.5,72.5,39.5,75z"/>
			</g>
		</g>
		<g>
			<path class="st1" d="M33.1,93.2c-0.4,0-0.7,0.2-1,0.6l-1.9-0.2l0.3-7h5.3v1.9h-3.6l-0.1,2.9c0.4-0.1,0.7-0.1,1-0.1
				c2.7,0,3.1,2.8,3.1,4c0,1.6-0.5,6-4,6c-0.8,0-1.5-0.2-2.2-0.7l1-1.6c0.5,0.3,0.8,0.4,1.3,0.4c1.6,0,2-3.4,2-4.4
				C34.4,93.9,33.9,93.2,33.1,93.2z"/>
			<path class="st1" d="M37.7,91c0-0.6,0.5-1.1,1-1.1c0.6,0,1,0.5,1,1.1c0,0.6-0.4,1.1-1,1.1C38.2,92,37.7,91.6,37.7,91z M37.7,96.7
				c0-0.6,0.5-1.1,1-1.1c0.6,0,1,0.5,1,1.1c0,0.6-0.4,1.1-1,1.1C38.2,97.8,37.7,97.3,37.7,96.7z"/>
			<path class="st1" d="M42.9,98.4c0.1,0.6,0.5,1.1,1.1,1.1c1,0,1.3-0.7,1.3-2.4c0-2.3-0.4-2.9-1.6-2.9h-0.6v-1.9h0.5
				c1,0,1.4-0.6,1.4-2.2c0-1.2-0.4-1.8-1.2-1.8c-0.6,0-0.9,0.4-1,1H41c0.1-1.8,1.2-2.8,2.8-2.8c2,0,3,1.2,3,3.6
				c0,1.3-0.2,2.1-0.8,3.1c1,0.8,1.1,2.1,1.1,3.8c0,4.1-2.2,4.3-3.3,4.3c-2,0-2.9-1.9-2.9-2.9H42.9z"/>
			<path class="st1" d="M52,101.3c-3.2,0-3.3-4.1-3.3-7.4s0.1-7.4,3.3-7.4c3.2,0,3.3,4.1,3.3,7.4S55.3,101.3,52,101.3z M50.6,93.9
				c0,2.5,0,5.6,1.4,5.6c1.4,0,1.4-3,1.4-5.6s0-5.6-1.4-5.6C50.7,88.3,50.6,91.4,50.6,93.9z"/>
		</g>
		<g>
			<path class="st1" d="M13.1,101h-1.8V88.5H9.5v-1.9H15v1.9h-1.9V101z"/>
			<path class="st1" d="M19.5,101.3c-3.2,0-3.3-4.1-3.3-7.4s0.1-7.4,3.3-7.4c3.2,0,3.3,4.1,3.3,7.4S22.8,101.3,19.5,101.3z
				 M18.1,93.9c0,2.5,0,5.6,1.4,5.6c1.4,0,1.4-3,1.4-5.6c0-2.5,0-5.6-1.4-5.6C18.2,88.3,18.1,91.4,18.1,93.9z"/>
		</g>
	</g>
</g>
</svg>
