<?xml version="1.0" encoding="UTF-8" standalone="no"?>
<!-- Generator: Adobe Illustrator 14.0.0, SVG Export Plug-In  -->

<svg
   xmlns:dc="http://purl.org/dc/elements/1.1/"
   xmlns:cc="http://creativecommons.org/ns#"
   xmlns:rdf="http://www.w3.org/1999/02/22-rdf-syntax-ns#"
   xmlns:svg="http://www.w3.org/2000/svg"
   xmlns="http://www.w3.org/2000/svg"
   xmlns:sodipodi="http://sodipodi.sourceforge.net/DTD/sodipodi-0.dtd"
   xmlns:inkscape="http://www.inkscape.org/namespaces/inkscape"
   version="1.1"
   x="0px"
   y="0px"
   width="178.4062"
   height="129.24997"
   viewBox="0 -0.321 178.40621 129.25"
   enable-background="new 0 -0.321 144 120"
   xml:space="preserve"
   id="svg2"
   inkscape:version="0.48.2 r9819"
   sodipodi:docname="AJAX1.svg"><metadata
   id="metadata44"><rdf:RDF><cc:Work
       rdf:about=""><dc:format>image/svg+xml</dc:format><dc:type
         rdf:resource="http://purl.org/dc/dcmitype/StillImage" /><dc:title></dc:title></cc:Work></rdf:RDF></metadata><sodipodi:namedview
   pagecolor="#ffffff"
   bordercolor="#666666"
   borderopacity="1"
   objecttolerance="10"
   gridtolerance="10"
   guidetolerance="10"
   inkscape:pageopacity="0"
   inkscape:pageshadow="2"
   inkscape:window-width="1280"
   inkscape:window-height="1004"
   id="namedview42"
   showgrid="false"
   fit-margin-top="0"
   fit-margin-left="0"
   fit-margin-right="0"
   fit-margin-bottom="0"
   inkscape:zoom="2.5067668"
   inkscape:cx="111.4506"
   inkscape:cy="58.693029"
   inkscape:window-x="-8"
   inkscape:window-y="-8"
   inkscape:window-maximized="1"
   inkscape:current-layer="svg2" />
<defs
   id="defs4">
</defs>


















<path
   inkscape:connector-curvature="0"
   d="m 11.189777,0.18719 156.018773,0 c 5.88625,0 10.68875,4.8 10.68875,10.68625 l 0,106.87503 c 0,5.88625 -4.8025,10.68875 -10.68875,10.68875 l -156.018773,0 c -5.8837504,0 -10.68375026,-4.8025 -10.68375026,-10.68875 l 0,-106.87503 c 0,-5.81 4.87374986,-10.68625 10.68375026,-10.68625"
   style="fill:#ffffff;fill-opacity:1;fill-rule:nonzero;stroke:#000000;stroke-width:1.00000024;stroke-miterlimit:4;stroke-opacity:1;stroke-dasharray:none"
   id="path10250" /><path
   inkscape:connector-curvature="0"
   d="m 11.223907,2.85832 68.51501,0 c 4.41751,0.015 8.02501,3.6425 8.05251,8.05 l 0,106.80878 c -0.0275,4.41125 -3.635,8.0275 -8.05251,8.04875 l -68.51501,0 c -4.4037504,-0.0212 -8.0325004,-3.6375 -8.0487504,-8.04875 l 0,-106.80878 c 0.0162,-4.4075 3.645,-8.035 8.0487504,-8.05"
   style="fill:#bf2519;fill-opacity:1;fill-rule:evenodd;stroke:none"
   id="path10274" /><path
   inkscape:connector-curvature="0"
   d="m 98.661677,2.85832 68.515013,0 c 4.4175,0.015 8.025,3.6425 8.0525,8.05 l 0,106.80878 c -0.0275,4.41125 -3.635,8.0275 -8.0525,8.04875 l -68.515013,0 c -4.40375,-0.0212 -8.0325,-3.6375 -8.04875,-8.04875 l 0,-106.80878 c 0.0162,-4.4075 3.645,-8.035 8.04875,-8.05"
   style="fill:#00674c;fill-opacity:1;fill-rule:evenodd;stroke:none"
   id="path10282" /><path
   inkscape:connector-curvature="0"
   d="m 11.265407,5.9797 68.43502,0 c 2.75125,0.015 4.95625,2.2175 4.97125,4.96875 l 0,106.73253 c -0.015,2.73625 -2.22,4.9675 -4.97125,4.965 l -68.43502,0 c -2.7487504,0.002 -4.9562504,-2.22875 -4.9687504,-4.965 l 0,-106.73253 c 0.0125,-2.75125 2.22,-4.95125 4.9687504,-4.96875"
   style="fill:#ffffff;fill-opacity:1;fill-rule:evenodd;stroke:none"
   id="path10278" /><path
   inkscape:connector-curvature="0"
   d="m 98.703167,5.9797 68.433763,0 c 2.75125,0.015 4.95625,2.2175 4.97125,4.96875 l 0,106.73253 c -0.015,2.73625 -2.22,4.9675 -4.97125,4.965 l -68.433763,0 c -2.74875,0.002 -4.95625,-2.22875 -4.96875,-4.965 l 0,-106.73253 c 0.0125,-2.75125 2.22,-4.95125 4.96875,-4.96875"
   style="fill:#ffffff;fill-opacity:1;fill-rule:evenodd;stroke:none"
   id="path10286" /><path
   inkscape:connector-curvature="0"
   d="m 56.438787,24.29708 c 0,2.475 -0.15125,3.7475 -0.67875,5.47125 -0.525,1.79875 -1.35,2.62125 -2.625,2.62125 -1.3475,0 -2.17,-0.8225 -2.6975,-2.62125 -0.45125,-1.72375 -0.67625,-3.07625 -0.67625,-5.39875 0,-2.39751 0.14875,-3.82251 0.67625,-5.47126 0.5275,-1.79875 1.35,-2.62125 2.6975,-2.62125 1.275,0 2.1,0.8225 2.625,2.6975 0.44875,1.5725 0.67875,2.9225 0.67875,5.32251 m 2.9225,0 c 0,-3.22501 -0.3025,-5.24751 -1.20125,-7.34626 -1.05,-2.6225 -2.55125,-3.675 -5.025,-3.675 -2.4725,0 -3.97375,1.0525 -5.0975,3.59875 -0.9,2.02375 -1.19875,4.1975 -1.19875,7.42251 0,3.2975 0.29875,5.31875 1.19875,7.41875 1.05,2.54875 2.55125,3.68625 5.0975,3.68625 2.4,0 3.975,-1.1375 5.025,-3.68625 0.89875,-2.02125 1.20125,-4.12125 1.20125,-7.41875 m -16.72125,10.72 0,-21.36751 -3.07625,0 0,12.82001 -5.85001,-12.82001 -3.07125,0 0,21.36751 3.07125,0 0,-14.31876 6.60001,14.31876 2.32625,0 z"
   style="fill:#bf2519;fill-opacity:1;fill-rule:evenodd;stroke:none"
   id="path10290" /><path
   inkscape:connector-curvature="0"
   d="m 74.656537,54.93346 0,-4.555 -3.315,0 0,2.30875 1.06375,0 0,2.37375 c 0,1.18875 -0.43625,1.93625 -1.25,1.93625 -0.81,0 -1.2475,-0.625 -1.49625,-1.81125 -0.18625,-1.5 -0.315,-2.68625 -0.315,-5.1225 0,-2.43375 0.12875,-3.62125 0.37375,-5.05875 0.19,-1.18625 0.75125,-1.75 1.565,-1.75 0.625,0 0.99875,0.375 1.1225,1.125 l 2.25125,0 c -0.25375,-2.185 -1.4375,-3.435 -3.4375,-3.435 -1.74625,0 -2.81,0.68625 -3.36875,2.31 -0.6275,1.68875 -0.81875,3.24875 -0.81875,6.80875 0,3.6225 0.19125,5.24625 0.75,6.87 0.56625,1.69 1.62875,2.385 3.4375,2.385 1.62375,0 2.81,-0.8225 3.18375,-2.07 0.12625,-0.56125 0.25375,-1.50125 0.25375,-2.315 m -9.71625,4.065 0,-17.805 -2.24875,0 0,8.87 -3.18625,-8.87 -2.24375,0 0,17.805 2.24375,0 0,-10.55875 3.49875,10.55875 1.93625,0 z m -10.335,-17.805 -2.24875,0 0,17.805 2.24875,0 0,-17.805 z m -3.8425,17.805 -3.18875,-11.68125 2.9375,-6.12375 -2.625,0 -2.81,5.68625 0,-5.68625 -2.25125,0 0,17.805 2.25125,0 0,-6.68625 0.87375,-1.74875 2.37375,8.435 2.43875,0 z m -11.7775,-12.87125 c 0,1.6875 -0.37625,2.25125 -1.62376,2.25125 l -1.49625,0 0,-4.8725 1.12,0 c 1.56001,0 2.00001,0.625 2.00001,2.62125 m 2.31,0.0638 c 0,-3.31 -1.43375,-4.9975 -4.18251,-4.9975 l -3.49625,0 0,17.805 2.24875,0 0,-8.31 1.05625,0 2.00001,8.31 2.3125,0 -1.81,-8.87125 c 1.31125,-0.81125 1.87125,-1.93625 1.87125,-3.93625 m -12.77126,5.7475 -1.93625,0 0.99875,-4.685 0.9375,4.685 z m 3.86875,7.06 -3.68375,-17.805 -2.31125,0 -3.62375,17.805 2.3125,0 1.0025,-4.75 2.935,0 0.99625,4.75 2.3725,0 z m -11.775,-12.61875 c 0,1.8725 -0.4975,2.56 -1.87,2.56 l -1.25,0 0,-5.43375 1.25,0 c 1.2475,0 1.87,0.87375 1.87,2.87375 m 2.3125,0 c 0,-1.93625 -0.68375,-3.62625 -1.6875,-4.43625 -0.55875,-0.50125 -1.49625,-0.75 -2.495,-0.75 l -3.4975,0 0,17.805 2.2475,0 0,-7.74625 1.25,0 c 2.495,0 4.1825,-1.93625 4.1825,-4.8725"
   style="fill:#bf2519;fill-opacity:1;fill-rule:evenodd;stroke:none"
   id="path10294" /><path
   inkscape:connector-curvature="0"
   d="m 59.954417,65.25096 -2.2,0 -2.34625,5.14876 -2.4,-5.14876 -2.1475,0 3.49625,7.79876 0,6.4425 2.0475,0 0,-6.4425 3.55,-7.79876 z m -11.0425,14.24126 0,-14.24126 -2.05375,0 0,8.54751 -3.89625,-8.54751 -2.05,0 0,14.24126 2.05,0 0,-9.54375 4.3975,9.54375 1.5525,0 z m -13.49876,-5.89375 -2.05,0 1,-4.09875 1.05,4.09875 z m 3.54751,5.89375 -3.54751,-14.24126 -1.99875,0 -3.55,14.24126 2.0475,0 0.9525,-3.89625 3.0475,0 1,3.89625 2.04876,0 z"
   style="fill:#bf2519;fill-opacity:1;fill-rule:evenodd;stroke:none"
   id="path10298" /><path
   inkscape:connector-curvature="0"
   d="m 60.406037,99.93584 0,-1.99625 -5.1975,0 0,-4.695 2.94875,0 0,-1.94875 -2.94875,0 0,-3.60125 4.65,0 0,-1.99875 -6.70125,0 0,14.24 7.24875,0 z m -10.34625,0 0,-14.24 -2.05125,0 -2.64625,7.995 -2.65125,-7.995 -2.04875,0 0,14.24 2.04875,0 0,-7.99 2.65125,7.99 2.64625,-7.99 0,7.99 2.05125,0 z m -12.4975,-14.24 -1.99751,0 0,14.24 1.99751,0 0,-14.24 z m -3.94626,1.89875 0,-1.89875 -7.2475,0 0,1.89875 2.5975,0 0,12.34125 2.0475,0 0,-12.34125 2.6025,0 z"
   style="fill:#bf2519;fill-opacity:1;fill-rule:evenodd;stroke:none"
   id="path10302" /><path
   inkscape:connector-curvature="0"
   d="m 31.983147,117.53596 -10.195,-6.89874 10.195,-6.90751 c 0.45125,-0.305 1.0675,-0.1875 1.3725,0.26125 0.205,0.29875 0.16875,0.61375 0.075,0.98 l -0.9025,2.995 35.69251,0 0,5.34251 -35.69251,0 0.88125,2.94624 c 0.115,0.405 0.16125,0.705 -0.0538,1.02 -0.305,0.4525 -0.92125,0.5675 -1.3725,0.26125"
   style="fill:#bf2519;fill-opacity:1;fill-rule:evenodd;stroke:none"
   id="path10306" /><path
   inkscape:connector-curvature="0"
   d="m 147.81117,30.52708 0,-2 -5.19625,0 0,-4.69876 2.945,0 0,-1.94875 -2.945,0 0,-3.59375 4.6475,0 0,-2 -6.69875,0 0,14.24126 7.2475,0 z m -9.91625,0 0,-14.24126 -2.04875,0 0,8.54251 -3.89625,-8.54251 -2.05,0 0,14.24126 2.05,0 0,-9.54626 4.4025,9.54626 1.5425,0 z m -12.41,-7.14626 c 0,1.65001 -0.1025,2.50001 -0.44875,3.64751 -0.35125,1.19875 -0.90125,1.74875 -1.7525,1.74875 -0.89875,0 -1.44875,-0.55 -1.8,-1.74875 -0.2975,-1.1475 -0.44875,-2.04875 -0.44875,-3.59626 0,-1.60125 0.1025,-2.54875 0.44875,-3.6525 0.35125,-1.19625 0.90125,-1.745 1.8,-1.745 0.85125,0 1.40125,0.54875 1.7525,1.79625 0.2975,1.0525 0.44875,1.95125 0.44875,3.55 m 1.94875,0 c 0,-2.15125 -0.1975,-3.49875 -0.80125,-4.9 -0.7,-1.745 -1.69625,-2.44625 -3.34875,-2.44625 -1.64875,0 -2.6475,0.70125 -3.39625,2.3975 -0.60125,1.3475 -0.80125,2.7975 -0.80125,4.94875 0,2.19751 0.2,3.54751 0.80125,4.94626 0.6975,1.6975 1.69625,2.45875 3.39625,2.45875 1.60125,0 2.64875,-0.76125 3.34875,-2.45875 0.60375,-1.3475 0.80125,-2.74875 0.80125,-4.94626"
   style="fill:#00674c;fill-opacity:1;fill-rule:evenodd;stroke:none"
   id="path10310" /><path
   inkscape:connector-curvature="0"
   d="m 151.13617,43.16333 c 0,1.1475 -0.64875,1.7975 -1.8475,1.7975 l -2.105,0 0,-3.59875 2.105,0 c 1.09625,0 1.8475,0.7 1.8475,1.80125 m 1.9975,10.445 -2.04875,-6.995 c 1.35,-0.5025 2.04875,-1.75 2.04875,-3.45 0,-2.3 -1.49875,-3.79875 -3.7475,-3.79875 l -4.25,0 0,14.24375 2.0475,0 0,-6.7 1.95375,0 1.89625,6.7 2.1,0 z m -10.4675,-4.24875 0,-9.995 -2.05125,0 0,10.2425 c 0,1.35 -0.80125,2.25 -1.8975,2.25 -1.20125,0 -1.99875,-0.9 -1.99875,-2.25 l 0,-10.2425 -2.05375,0 0,9.995 c 0,1.15 0.15125,1.74875 0.5525,2.4975 0.7,1.19875 2.09875,2.0075 3.5,2.0075 1.3475,0 2.69625,-0.86 3.39625,-2.0075 0.4025,-0.74875 0.5525,-1.3475 0.5525,-2.4975 m -12.2225,-2.8975 c 0,1.65 -0.1,2.495 -0.44625,3.645 -0.35375,1.20375 -0.90375,1.75 -1.75375,1.75 -0.9,0 -1.4475,-0.54625 -1.79625,-1.75 -0.3,-1.15 -0.45125,-2.04625 -0.45125,-3.59625 0,-1.59875 0.1,-2.54875 0.45125,-3.6475 0.34875,-1.19875 0.89625,-1.7475 1.79625,-1.7475 0.85,0 1.4,0.54875 1.75375,1.79875 0.295,1.0475 0.44625,1.94875 0.44625,3.5475 m 1.94875,0 c 0,-2.15125 -0.1975,-3.49875 -0.79625,-4.8975 -0.7,-1.75 -1.70125,-2.45125 -3.3525,-2.45125 -1.65,0 -2.64875,0.70125 -3.395,2.4 -0.60125,1.35 -0.80125,2.7975 -0.80125,4.94875 0,2.2 0.2,3.55 0.80125,4.94625 0.6975,1.69875 1.69875,2.45625 3.395,2.45625 1.6025,0 2.6525,-0.7575 3.3525,-2.45625 0.59875,-1.3475 0.79625,-2.74625 0.79625,-4.94625 m -10.56875,7.14625 0,-14.24375 -2.04875,0 0,5.79875 -3.90125,0 0,-5.79875 -2.04876,0 0,14.24375 2.04876,0 0,-6.4475 3.90125,0 0,6.4475 2.04875,0 z"
   style="fill:#00674c;fill-opacity:1;fill-rule:evenodd;stroke:none"
   id="path10314" /><path
   inkscape:connector-curvature="0"
   d="m 163.29243,72.80972 0,-2.94625 -3.65,0 0,1.99875 1.60125,0 0,0.9475 c 0,1.49875 -0.5025,2.2 -1.55,2.2 -1.10125,0 -1.80125,-0.75 -2.09751,-2.15125 -0.2025,-1.09625 -0.3025,-2.34625 -0.3025,-3.5475 0,-1.69625 0.25125,-3.29501 0.65001,-3.99626 0.35125,-0.70125 0.9,-1.05 1.60125,-1.05 0.99875,0 1.6475,0.65 1.69875,1.59875 l 2.04875,0 c -0.1,-2.09875 -1.65,-3.5975 -3.69875,-3.5975 -1.65,0 -3.10001,1.1 -3.59876,2.6 -0.4975,1.34751 -0.64875,2.79751 -0.64875,4.79751 0,1.8475 0.2975,3.845 0.74875,4.8975 0.70125,1.59625 1.94876,2.4525 3.64751,2.4525 1.45,0 2.5975,-0.75625 3.1525,-2.00375 0.2975,-0.59875 0.3975,-1.19875 0.3975,-2.2 m -9.96376,3.9475 0,-14.24251 -2.05,0 0,8.54751 -3.89875,-8.54751 -2.05125,0 0,14.24251 2.05125,0 0,-9.545 4.39625,9.545 1.5525,0 z m -10.31375,-14.24251 -2.0025,0 0,14.24251 2.0025,0 0,-14.24251 z m -3.5675,14.24251 -3.3025,-9.245 2.94875,-4.99751 -2.34625,0 -3.24875,5.69751 0,-5.69751 -2.05125,0 0,14.24251 2.05125,0 0,-4.5475 1.29875,-2.3975 2.5,6.945 2.15,0 z m -11.5675,-10.44125 c 0,1.1475 -0.64875,1.79625 -1.8475,1.79625 l -2.1,0 0,-3.59876 2.1,0 c 1.09875,0 1.8475,0.70125 1.8475,1.80251 m 2.0025,10.44125 -2.05375,-6.99375 c 1.35,-0.50125 2.05375,-1.75125 2.05375,-3.4475 0,-2.30001 -1.49875,-3.80126 -3.7475,-3.80126 l -4.2525,0 0,14.24251 2.05,0 0,-6.69625 1.94875,0 1.89875,6.69625 2.1025,0 z m -12.7175,-5.895 -2.04876,0 1.00126,-4.1 1.0475,4.1 z m 3.55,5.895 -3.55,-14.24251 -2.00001,0 -3.54625,14.24251 2.05,0 0.95,-3.89875 3.04876,0 0.99875,3.89875 2.04875,0 z M 109.54991,66.51597 c 0,1.29875 -0.64875,2.04875 -1.8475,2.04875 l -2.1,0 0,-4.05126 2.1,0 c 1.09875,0 1.8475,0.80125 1.8475,2.00251 m 1.9975,0 c 0,-2.40001 -1.49375,-4.00126 -3.745,-4.00126 l -4.25125,0 0,14.24251 2.05125,0 0,-6.245 2.2,0 c 2.3975,0 3.745,-1.39875 3.745,-3.99625"
   style="fill:#00674c;fill-opacity:1;fill-rule:evenodd;stroke:none"
   id="path10318" /><path
   inkscape:connector-curvature="0"
   d="m 162.93618,100.01459 0,-14.24375 -1.8025,0 -1.69375,5.04875 -1.75001,-5.04875 -1.8,0 0,14.24375 1.8,0 0,-8.445 1.75001,5.34375 1.69375,-5.34375 0,8.445 1.8025,0 z m -10.84751,-10.0975 c 0,1.50125 -0.4,2.05 -1.49625,2.05 l -1.00375,0 0,-4.345 1.00375,0 c 0.99625,0 1.49625,0.6975 1.49625,2.295 m 1.84875,0 c 0,-1.54625 -0.55,-2.89875 -1.3475,-3.5475 -0.45,-0.39875 -1.19875,-0.59875 -1.9975,-0.59875 l -2.8,0 0,14.24375 1.79625,0 0,-6.19875 1.00375,0 c 1.9975,0 3.345,-1.54625 3.345,-3.89875 m -8.79625,-2.295 0,-1.85125 -6.145,0 0,1.85125 4.29625,0 c -1.75,3.3975 -2.6025,7.195 -2.74875,12.3925 l 1.84875,0 c 0.15125,-5.34875 0.84875,-8.545 2.74875,-12.3925 m -8.7475,4.795 -4.44875,0 0,1.85 4.44875,0 0,-1.85 z m -8.4475,7.5975 0,-14.24375 -1.79875,0 -1.7,5.04875 -1.75,-5.04875 -1.7975,0 0,14.24375 1.7975,0 0,-8.445 1.75,5.34375 1.7,-5.34375 0,8.445 1.79875,0 z m -12.095,-5.6475 -1.55001,0 0.80125,-3.75 0.74876,3.75 z m 3.09625,5.6475 -2.94875,-14.24375 -1.84876,0 -2.8975,14.24375 1.8475,0 0.80125,-3.79875 2.34876,0 0.8,3.79875 1.8975,0 z m -10.69626,-10.0975 c 0,1.70375 -0.35125,2.44875 -1.19875,2.44875 -0.8,0 -1.20125,-0.69625 -1.20125,-2.24625 0,-1.8975 0.3525,-2.74875 1.20125,-2.74875 0.29875,0 0.59875,0.15125 0.80125,0.44875 0.2975,0.3 0.3975,1.00125 0.3975,2.0975 m 1.84875,-0.14875 c 0,-2.75 -1.0475,-4.24625 -2.99625,-4.24625 -0.8,0 -1.45,0.24875 -2.00375,0.69875 -0.69875,0.64875 -1.09625,2.00125 -1.09625,3.69625 0,1.29875 0.2975,2.6 0.75,3.2 0.54875,0.69875 1.40125,1.10125 2.29875,1.10125 0.1475,0 0.25,0 0.35,-0.0512 -0.75,1.84875 -1.8,3.19625 -3.39875,4.54625 l 0.99625,1.5575 c 3.4025,-2.75625 5.1,-6.255 5.1,-10.5025"
   style="fill:#00674c;fill-opacity:1;fill-rule:evenodd;stroke:none"
   id="path10322" /><path
   inkscape:connector-curvature="0"
   d="m 146.46618,117.53596 10.2025,-6.89874 -10.2025,-6.90751 c -0.44875,-0.305 -1.06375,-0.1875 -1.37,0.26125 -0.205,0.29875 -0.1675,0.61375 -0.07,0.98 l 0.8975,2.995 -35.68751,0 0,5.34251 35.68751,0 -0.88125,2.94624 c -0.10875,0.405 -0.15625,0.705 0.0538,1.02 0.30625,0.4525 0.92125,0.5675 1.37,0.26125"
   style="fill:#00674c;fill-opacity:1;fill-rule:evenodd;stroke:none"
   id="path10326" /></svg>