<?xml version="1.0" encoding="utf-8"?>
<!-- Generator: Adobe Illustrator 27.9.0, SVG Export Plug-In . SVG Version: 6.00 Build 0)  -->
<svg version="1.1" xmlns="http://www.w3.org/2000/svg" xmlns:xlink="http://www.w3.org/1999/xlink" x="0px" y="0px"
	 viewBox="0 0 86.9 259.7" style="enable-background:new 0 0 86.9 259.7;" xml:space="preserve">
<style type="text/css">
	.st0{fill:#FFFFFF;}
	.st1{fill:#BF311A;}
	.st2{fill:#006F53;}
</style>
<g id="Layer_1">
</g>
<g id="For_Sheets">
	<g>
		<g>
			<path class="st0" d="M11.1,259.6c-6,0-10.9-4.9-10.9-10.9V11C0.1,5,5,0.1,11.1,0.1h64.8c6,0,10.9,4.9,10.9,10.9v237.6
				c0,6-4.9,10.9-10.9,10.9H11.1z"/>
			<path d="M75.9,0.2c6,0,10.8,4.8,10.8,10.8v237.6c0,6-4.8,10.8-10.8,10.8H11.1c-6,0-10.8-4.8-10.8-10.8V11c0-6,4.8-10.8,10.8-10.8
				H75.9 M75.9,0H11.1C5,0,0,5,0,11v237.6c0,6.1,5,11,11.1,11h64.8c6.1,0,11-5,11-11V11C86.9,5,81.9,0,75.9,0L75.9,0z"/>
		</g>
		<path class="st1" d="M11.1,128.5c-4.5,0-8.1-3.6-8.1-8.1V11c0-4.5,3.6-8.1,8.1-8.1h64.8c4.5,0,8.1,3.6,8.1,8.1v109.3
			c0,4.5-3.6,8.1-8.1,8.1H11.1z"/>
		<path class="st0" d="M11.1,125.8c-3,0-5.4-2.4-5.4-5.4V11c0-3,2.4-5.4,5.4-5.4h64.8c3,0,5.4,2.4,5.4,5.4v109.3
			c0,3-2.4,5.4-5.4,5.4H11.1z"/>
		<path class="st2" d="M75.9,131.2c4.5,0,8.1,3.6,8.1,8.1v109.4c0,4.5-3.6,8.1-8.1,8.1H11.1c-4.5,0-8.1-3.6-8.1-8.1V139.3
			c0-4.5,3.6-8.1,8.1-8.1H75.9z"/>
		<path class="st0" d="M75.9,133.9c3,0,5.4,2.4,5.4,5.4v109.4c0,3-2.4,5.4-5.4,5.4H11.1c-3,0-5.4-2.4-5.4-5.4V139.3
			c0-3,2.4-5.4,5.4-5.4H75.9z"/>
		<g>
			<path class="st1" d="M30.9,104.7c0.5,0,0.9,0.4,0.9,0.9c0,0.1,0,0.2-0.1,0.3l-2.2,6l2.2,6c0,0.1,0.1,0.2,0.1,0.3
				c0,0.5-0.4,0.9-0.9,0.9c-0.2,0-0.4-0.1-0.5-0.2l-10.3-7l10.3-7C30.5,104.8,30.7,104.7,30.9,104.7z"/>
			<rect x="27.5" y="109.2" class="st1" width="39.4" height="5.4"/>
		</g>
		<g>
			<path class="st2" d="M56.1,234.4c-0.5,0-0.9,0.4-0.9,0.9c0,0.1,0,0.2,0.1,0.3l2.2,6l-2.2,6c0,0.1-0.1,0.2-0.1,0.3
				c0,0.5,0.4,0.9,0.9,0.9c0.2,0,0.4-0.1,0.5-0.2l10.3-7l-10.3-7C56.4,234.4,56.2,234.4,56.1,234.4z"/>
			<rect x="20.1" y="238.9" class="st2" width="39.4" height="5.4"/>
		</g>
		<g>
			<path class="st1" d="M32,20.9v14.5h-3.1V13.8H32l5.9,13v-13H41v21.6h-2.3L32,20.9z"/>
			<path class="st1" d="M45.3,24.6c0-11.3,5.2-11.1,6.4-11.1c1.2,0,6.3-0.2,6.3,11.1c0,11.4-5.2,11.2-6.3,11.2
				C50.5,35.8,45.3,36,45.3,24.6z M51.7,16.5c-0.6,0-3.4-0.1-3.4,8.1c0,8.3,2.8,8.2,3.4,8.2c0.6,0,3.4,0.1,3.4-8.2
				C55.1,16.3,52.3,16.5,51.7,16.5z"/>
		</g>
		<g>
			<path class="st1" d="M13.1,51.9h-1.2v7.8H9.6v-18h3.6c3.8,0,4.1,4.3,4.1,5.2C17.3,49.9,15.6,51.9,13.1,51.9z M11.9,44v5.5h1.2
				c1.4,0,1.9-0.7,1.9-2.6c0-2-0.6-2.9-1.9-2.9H11.9z"/>
			<path class="st1" d="M24.7,54.9h-3l-1,4.8h-2.3l3.7-18h2.3l3.7,18h-2.4L24.7,54.9z M22.3,52.6h2l-0.9-4.7L22.3,52.6z"/>
			<path class="st1" d="M36.5,50.7l1.8,9h-2.5l-1.7-8.4h-1.2v8.4h-2.3v-18h3.5c2.8,0,4.2,1.7,4.2,5.1C38.4,48.5,37.9,50,36.5,50.7z
				 M36.1,46.7c0-2-0.4-2.7-2-2.7h-1.1V49h1.5C35.7,49,36.1,48.4,36.1,46.7z"/>
			<path class="st1" d="M44.4,51.2l-0.8,1.8v6.8h-2.3v-18h2.3v5.8l2.7-5.8H49l-3,6.2l3.2,11.8h-2.5L44.4,51.2z"/>
			<path class="st1" d="M52.1,41.7h2.3v18h-2.3V41.7z"/>
			<path class="st1" d="M60.7,49v10.7h-2.3v-18h2.3l3.2,9v-9h2.3v18h-2L60.7,49z"/>
			<path class="st1" d="M73.7,41.5c2,0,3.4,1.3,3.6,3.5H75c-0.1-0.8-0.5-1.1-1.1-1.1c-1.1,0-1.9,1-1.9,6.9c0,6,0.8,6.9,1.9,6.9
				c1,0,1.2-1.1,1.2-2.2v-2.1h-1.1V51h3.4v4.5c0,1.2,0.2,4.5-3.6,4.5c-3.2,0-4.2-2.5-4.2-9.3C69.6,42.7,71.3,41.5,73.7,41.5z"/>
		</g>
		<g>
			<path class="st1" d="M34.3,76.5h-3.1l-1,3.9h-2.1L31.8,66h2l3.6,14.4h-2.1L34.3,76.5z M31.7,74.4h2.1l-1.1-4.1L31.7,74.4z"/>
			<path class="st1" d="M41.5,70.8v9.6h-2.1V66h2.1l3.9,8.6V66h2.1v14.4h-1.6L41.5,70.8z"/>
			<path class="st1" d="M55.1,80.4H53v-6.5L49.5,66h2.2l2.4,5.2l2.4-5.2h2.2l-3.6,7.9V80.4z"/>
		</g>
		<g>
			<path class="st1" d="M30.9,101.1h-2.1V88.6h-2.6v-1.9h7.3v1.9h-2.6V101.1z"/>
			<path class="st1" d="M35.5,86.7h2v14.4h-2V86.7z"/>
			<path class="st1" d="M48.1,93l-2.7,8.1L42.8,93v8.1h-2.1V86.7h2.1l2.7,8.1l2.7-8.1h2.1v14.4h-2.1V93z"/>
			<path class="st1" d="M53.4,86.7h6.8v2h-4.7v3.6h3v2h-3v4.8h5.3v2h-7.3V86.7z"/>
		</g>
		<g>
			<path class="st2" d="M28.5,153.2c0-7.5,3.5-7.4,4.3-7.4c0.8,0,4.2-0.1,4.2,7.4c0,7.6-3.5,7.5-4.2,7.5
				C32,160.7,28.5,160.8,28.5,153.2z M32.7,147.8c-0.4,0-2.3-0.1-2.3,5.4c0,5.5,1.9,5.5,2.3,5.5c0.4,0,2.3,0.1,2.3-5.5
				C35,147.7,33.1,147.8,32.7,147.8z"/>
			<path class="st2" d="M41.9,150.8v9.6h-2.1V146h2.1l3.9,8.6V146h2.1v14.4h-1.6L41.9,150.8z"/>
			<path class="st2" d="M51.1,146h6.8v2h-4.7v3.6h3v2h-3v4.8h5.3v2h-7.3V146z"/>
		</g>
		<g>
			<path class="st2" d="M28.6,177.3h-3.9v6.5h-2.1v-14.4h2.1v5.9h3.9v-5.9h2.1v14.4h-2.1V177.3z"/>
			<path class="st2" d="M33.6,176.6c0-7.5,3.5-7.4,4.3-7.4c0.8,0,4.2-0.1,4.2,7.4c0,7.6-3.5,7.5-4.2,7.5
				C37.1,184.1,33.6,184.2,33.6,176.6z M37.8,171.2c-0.4,0-2.3-0.1-2.3,5.4c0,5.5,1.9,5.5,2.3,5.5c0.4,0,2.3,0.1,2.3-5.5
				C40.1,171.1,38.2,171.2,37.8,171.2z"/>
			<path class="st2" d="M45,179.7v-10.2H47v10.4c0,1.4,0.8,2.3,2,2.3c1.1,0,1.9-0.9,1.9-2.3v-10.4H53v10.2c0,3.3-2.5,4.4-4,4.4
				C47.7,184.1,45,183.2,45,179.7z"/>
			<path class="st2" d="M60.2,177.1h-2v6.8h-2.1v-14.4h4.3c2.3,0,3.8,1.5,3.8,3.8c0,1.7-0.7,3-2.1,3.5l2.1,7.1h-2.1L60.2,177.1z
				 M58.3,171.5v3.6h2.1c1.2,0,1.9-0.7,1.9-1.8c0-1.1-0.8-1.8-1.9-1.8H58.3z"/>
		</g>
		<g>
			<path class="st2" d="M12.4,200.9v6.3h-2.1v-14.4h4.3c2.3,0,3.8,1.6,3.8,4c0,2.6-1.4,4-3.8,4H12.4z M12.4,199h2.1
				c1.2,0,1.9-0.8,1.9-2.1c0-1.2-0.8-2-1.9-2h-2.1V199z"/>
			<path class="st2" d="M26.2,203.3h-3.1l-1,3.9h-2.1l3.6-14.4h2l3.6,14.4h-2.1L26.2,203.3z M23.7,201.3h2.1l-1.1-4.1L23.7,201.3z"
				/>
			<path class="st2" d="M35.4,200.5h-2v6.8h-2.1v-14.4h4.3c2.3,0,3.8,1.5,3.8,3.8c0,1.7-0.7,3-2.1,3.5l2.1,7.1h-2.1L35.4,200.5z
				 M33.4,194.9v3.6h2.1c1.2,0,1.9-0.7,1.9-1.8c0-1.1-0.8-1.8-1.9-1.8H33.4z"/>
			<path class="st2" d="M45.2,200.2l-1.3,2.4v4.6h-2.1v-14.4h2.1v5.8l3.3-5.8h2.4l-3,5.1l3.3,9.3h-2.2L45.2,200.2z"/>
			<path class="st2" d="M52.4,192.8h2v14.4h-2V192.8z"/>
			<path class="st2" d="M59.6,197.6v9.6h-2.1v-14.4h2.1l3.9,8.6v-8.6h2.1v14.4h-1.6L59.6,197.6z"/>
			<path class="st2" d="M73,207.5c-1.3,0-4.5-0.2-4.5-7.4s3-7.5,4.3-7.5c2.1,0,3.7,1.5,3.8,3.6h-2.1c-0.1-1-0.7-1.6-1.7-1.6
				c-0.7,0-2.3,0.2-2.3,5.5c0,5.2,1.7,5.4,2.4,5.4c1.1,0,1.6-0.7,1.6-2.2v-1h-1.6v-2h3.7v3C76.6,206.9,74.2,207.5,73,207.5z"/>
		</g>
		<g>
			<path class="st2" d="M21.6,220.3c0,4.3-1.8,7.9-5.2,10.6l-1-1.6c1.6-1.3,2.7-2.7,3.4-4.6c-0.2,0.1-0.5,0.1-0.7,0.1
				c-2.1,0-2.7-2.9-2.7-4.4c0-3,1.1-4.4,3.1-4.4C20.5,216,21.6,217.5,21.6,220.3z M17.3,220.7c0,1.5,0.4,2.2,1.2,2.2
				c0.9,0,1.2-0.8,1.2-2.5c0-2.4-0.7-2.6-1.2-2.6v0C17.8,217.9,17.3,218.3,17.3,220.7z"/>
			<path class="st2" d="M27.8,226.8h-2.4l-0.8,3.8h-1.9l2.9-14.4h1.9l3,14.4h-1.9L27.8,226.8z M25.9,224.9h1.6l-0.8-3.8L25.9,224.9z
				"/>
			<path class="st2" d="M37.8,222.1l-1.7,5.4l-1.8-5.4v8.5h-1.8v-14.4h1.8l1.8,5.1l1.7-5.1h1.8v14.4h-1.8V222.1z"/>
			<path class="st2" d="M41.7,223h4.5v1.9h-4.5V223z"/>
			<path class="st2" d="M48.8,230.6c0.1-5.3,1-9.1,2.8-12.5h-4.3v-1.9h6.2v1.9c-1.9,3.9-2.6,7.1-2.8,12.5H48.8z"/>
			<path class="st2" d="M59,224.4h-1v6.3h-1.8v-14.4h2.9c3.1,0,3.3,3.4,3.3,4.2C62.4,222.8,61,224.4,59,224.4z M58,218.1v4.4h1
				c1.1,0,1.5-0.6,1.5-2.1c0-1.6-0.5-2.3-1.5-2.3H58z"/>
			<path class="st2" d="M69.7,222.1l-1.7,5.4l-1.8-5.4v8.5h-1.8v-14.4h1.8l1.8,5.1l1.7-5.1h1.8v14.4h-1.8V222.1z"/>
		</g>
	</g>
</g>
</svg>
