<?xml version="1.0" encoding="UTF-8" standalone="no"?>
<!-- Generator: Adobe Illustrator 14.0.0, SVG Export Plug-In  -->

<svg
   xmlns:dc="http://purl.org/dc/elements/1.1/"
   xmlns:cc="http://creativecommons.org/ns#"
   xmlns:rdf="http://www.w3.org/1999/02/22-rdf-syntax-ns#"
   xmlns:svg="http://www.w3.org/2000/svg"
   xmlns="http://www.w3.org/2000/svg"
   xmlns:sodipodi="http://sodipodi.sourceforge.net/DTD/sodipodi-0.dtd"
   xmlns:inkscape="http://www.inkscape.org/namespaces/inkscape"
   version="1.1"
   x="0px"
   y="0px"
   width="86.812477"
   height="129.90622"
   viewBox="0 -0.321 86.81248 129.90625"
   enable-background="new 0 -0.321 144 120"
   xml:space="preserve"
   id="svg2"
   inkscape:version="0.48.2 r9819"
   sodipodi:docname="MUTCD R7-20.svg"><metadata
   id="metadata44"><rdf:RDF><cc:Work
       rdf:about=""><dc:format>image/svg+xml</dc:format><dc:type
         rdf:resource="http://purl.org/dc/dcmitype/StillImage" /><dc:title></dc:title></cc:Work></rdf:RDF></metadata><sodipodi:namedview
   pagecolor="#ffffff"
   bordercolor="#666666"
   borderopacity="1"
   objecttolerance="10"
   gridtolerance="10"
   guidetolerance="10"
   inkscape:pageopacity="0"
   inkscape:pageshadow="2"
   inkscape:window-width="1280"
   inkscape:window-height="1004"
   id="namedview42"
   showgrid="false"
   fit-margin-top="0"
   fit-margin-left="0"
   fit-margin-right="0"
   fit-margin-bottom="0"
   inkscape:zoom="2.6802662"
   inkscape:cx="55.253278"
   inkscape:cy="46.258658"
   inkscape:window-x="-8"
   inkscape:window-y="-8"
   inkscape:window-maximized="1"
   inkscape:current-layer="svg2" />
<defs
   id="defs4">
</defs>


















<path
   d="m 86.462141,118.45754 c 0,5.945 -4.822501,10.765 -10.767503,10.765 l -64.592515,0 c -5.9450008,0 -10.7650017,-4.82 -10.7650017,-10.765 l 0,-107.65628 c 0,-5.945 4.8200009,-10.765 10.7650017,-10.765 l 64.592515,0 c 5.945002,0 10.767503,4.82 10.767503,10.765 l 0,107.65628 z"
   style="fill:#ffffff;fill-opacity:1;fill-rule:nonzero;stroke:#000000;stroke-width:0.70000016;stroke-miterlimit:4;stroke-opacity:1;stroke-dasharray:none"
   id="path4869"
   inkscape:connector-curvature="0" /><path
   d="m 80.62964,118.45754 c 0,2.72 -2.215001,4.935 -4.935001,4.935 l -64.592516,0 c -2.7212508,0 -4.9337508,-2.215 -4.9337508,-4.935 l 0,-107.65628 c 0,-2.72 2.2125,-4.93375 4.9337508,-4.93375 l 64.592516,0 c 2.72,0 4.935001,2.21375 4.935001,4.93375 l 0,107.65628 z M 75.694639,2.72751 l -64.592516,0 c -4.4512508,0 -8.0737518,3.6225 -8.0737518,8.07375 l 0,107.65628 c 0,4.45125 3.622501,8.07375 8.0737518,8.07375 l 64.592516,0 c 4.453751,0 8.073752,-3.6225 8.073752,-8.07375 l 0,-107.65628 c 0,-4.45125 -3.620001,-8.07375 -8.073752,-8.07375"
   style="fill:#00674c;fill-opacity:1;fill-rule:nonzero;stroke:none"
   id="path4877"
   inkscape:connector-curvature="0" /><path
   d="m 43.399631,57.48765 c -11.892504,0 -21.532506,-9.63875 -21.532506,-21.53125 0,-11.89001 9.640002,-21.53001 21.532506,-21.53001 11.891253,0 21.531255,9.64 21.531255,21.53001 0,11.8925 -9.640002,21.53125 -21.531255,21.53125 m -0.0012,-48.44376 c -14.822504,0 -26.913757,12.09 -26.913757,26.91376 0,14.8225 12.091253,26.9125 26.913757,26.9125 14.823754,0 26.913756,-12.09 26.913756,-26.9125 0,-14.82376 -12.090002,-26.91376 -26.913756,-26.91376"
   style="fill:#00674c;fill-opacity:1;fill-rule:evenodd;stroke:none"
   id="path4885"
   inkscape:connector-curvature="0" /><path
   d="m 24.082126,75.97516 -1.507501,0 0,-8.82751 -0.7475,0 0,-1.18375 c 0.186249,-0.015 0.314999,-0.03 0.3875,-0.0437 0.12875,-0.03 0.26875,-0.0863 0.41875,-0.1725 0.15,-0.0863 0.324999,-0.265 0.52625,-0.53875 l 0.922501,0 0,10.76626 z"
   style="fill:#00674c;fill-opacity:1;fill-rule:nonzero;stroke:none"
   id="path4889"
   inkscape:connector-curvature="0" /><path
   d="m 40.00713,75.97516 -1.5075,0 0,-4.94626 -3.015002,0 0,4.94626 -1.50875,0 0,-10.76626 1.50875,0 0,4.31125 3.015002,0 0,-4.31125 1.5075,0 0,10.76626 z"
   style="fill:#00674c;fill-opacity:1;fill-rule:nonzero;stroke:none"
   id="path4893"
   inkscape:connector-curvature="0" /><path
   d="m 47.008382,70.59265 c 0,-0.92 -0.09375,-1.72125 -0.28,-2.40375 -0.28,-1.05625 -0.74375,-1.58375 -1.38875,-1.58375 -0.647501,0 -1.110001,0.5275 -1.391251,1.58375 -0.18625,0.6825 -0.27875,1.48375 -0.27875,2.40375 0,0.91875 0.0925,1.72 0.27875,2.4025 0.28125,1.05626 0.74375,1.58376 1.391251,1.58376 0.645,0 1.10875,-0.5275 1.38875,-1.58376 0.18625,-0.6825 0.28,-1.48375 0.28,-2.4025 m 1.50875,0 c 0,1.32125 -0.15125,2.41625 -0.45375,3.28626 -0.5175,1.4725 -1.425,2.2075 -2.72375,2.2075 -1.300001,0 -2.208751,-0.735 -2.726251,-2.2075 -0.30125,-0.87001 -0.45125,-1.96501 -0.45125,-3.28626 0,-3.665 1.0575,-5.49625 3.177501,-5.49625 2.1175,0 3.1775,1.83125 3.1775,5.49625"
   style="fill:#00674c;fill-opacity:1;fill-rule:nonzero;stroke:none"
   id="path4897"
   inkscape:connector-curvature="0" /><path
   d="m 56.693384,73.07127 c 0,0.83251 -0.29375,1.54501 -0.8775,2.13251 -0.585,0.58875 -1.29875,0.8825 -2.137501,0.8825 -0.8325,0 -1.54375,-0.29375 -2.1325,-0.8825 -0.58875,-0.5875 -0.8825,-1.3 -0.8825,-2.13251 l 0,-7.8625 1.5075,0 0,7.8625 c 0,0.41626 0.145,0.77126 0.435,1.06626 0.29125,0.295 0.64875,0.44125 1.0725,0.44125 0.408751,0 0.762501,-0.14625 1.060001,-0.44125 0.29875,-0.295 0.4475,-0.65 0.4475,-1.06626 l 0,-7.8625 1.5075,0 0,7.8625 z"
   style="fill:#00674c;fill-opacity:1;fill-rule:nonzero;stroke:none"
   id="path4901"
   inkscape:connector-curvature="0" /><path
   d="m 63.582136,68.1189 c 0,-0.89125 -0.36875,-1.36 -1.10875,-1.4025 l -1.906251,0 0,2.80375 1.906251,0 c 0.74,-0.0437 1.10875,-0.51 1.10875,-1.40125 m 1.50875,7.85626 -1.5625,0 -1.421251,-4.94626 -1.54,0 0,4.94626 -1.5075,0 0,-10.76626 3.3375,0 c 0.575001,0.05 0.898751,0.0838 0.970001,0.0975 0.495,0.115 0.88375,0.3525 1.1625,0.71125 0.37375,0.48125 0.56125,1.18 0.56125,2.0975 0,1.32875 -0.5,2.20375 -1.5,2.6275 l 1.5,5.23251 z"
   style="fill:#00674c;fill-opacity:1;fill-rule:nonzero;stroke:none"
   id="path4905"
   inkscape:connector-curvature="0" /><path
   d="m 23.158375,97.01253 c 0,-0.9425 -0.36875,-1.4675 -1.10875,-1.575 l -1.90625,0 0,3.1275 1.90625,0 c 0.74,-0.0363 1.10875,-0.55375 1.10875,-1.5525 m 1.508751,0 c 0,1.265 -0.44625,2.15125 -1.336251,2.66125 -0.45875,0.26625 -0.91125,0.3975 -1.3575,0.3975 l -1.83,0 0,4.625 -1.507501,0 0,-10.7675 3.337501,0 c 0.4525,0 0.905,0.13 1.3575,0.38875 0.890001,0.51 1.336251,1.40875 1.336251,2.695"
   style="fill:#00674c;fill-opacity:1;fill-rule:nonzero;stroke:none"
   id="path4909"
   inkscape:connector-curvature="0" /><path
   d="m 30.243376,100.28378 -0.839999,-3.5 -0.851251,3.5 1.69125,0 z m 2.605002,4.4125 -1.540001,0 -0.700001,-2.90375 -2.422501,0 -0.7,2.90375 -1.528749,0 2.606251,-10.7675 1.679999,0 2.605002,10.7675 z"
   style="fill:#00674c;fill-opacity:1;fill-rule:nonzero;stroke:none"
   id="path4913"
   inkscape:connector-curvature="0" /><path
   d="m 38.87588,96.83891 c 0,-0.89 -0.36875,-1.35875 -1.10875,-1.40125 l -1.906252,0 0,2.80375 1.906252,0 c 0.74,-0.045 1.10875,-0.51125 1.10875,-1.4025 m 1.5075,7.8575 -1.56125,0 -1.42125,-4.94625 -1.540002,0 0,4.94625 -1.5075,0 0,-10.7675 3.338752,0 c 0.57375,0.0513 0.89625,0.0838 0.96875,0.0975 0.495,0.115 0.8825,0.3525 1.16375,0.71125 0.37125,0.48125 0.55875,1.18125 0.55875,2.1 0,1.3275 -0.5,2.20125 -1.4975,2.62625 l 1.4975,5.2325 z"
   style="fill:#00674c;fill-opacity:1;fill-rule:nonzero;stroke:none"
   id="path4917"
   inkscape:connector-curvature="0" /><path
   d="m 48.240882,104.69641 -1.58375,0 -1.785001,-5.1475 -1.1525,1.9925 0,3.155 -1.5075,0 0,-10.7675 1.5075,0 0,4.5875 2.647501,-4.5875 1.74375,0 -2.25,3.8975 2.38,6.87 z"
   style="fill:#00674c;fill-opacity:1;fill-rule:nonzero;stroke:none"
   id="path4921"
   inkscape:connector-curvature="0" /><path
   d="m 51.578135,104.69628 -1.5075,0 0,-10.7675 1.5075,0 0,10.7675 z"
   style="fill:#00674c;fill-opacity:1;fill-rule:nonzero;stroke:none"
   id="path4923"
   inkscape:connector-curvature="0" /><path
   d="m 59.977135,104.69641 -1.5075,0 -3.015001,-6.96625 0,6.96625 -1.50875,0 0,-10.7675 1.5075,0 3.015001,6.95625 0.0012,-6.95625 1.5075,0 0,10.7675 z"
   style="fill:#00674c;fill-opacity:1;fill-rule:nonzero;stroke:none"
   id="path4927"
   inkscape:connector-curvature="0" /><path
   d="m 68.162137,96.47141 -1.611251,0 c -0.25125,-0.765 -0.66625,-1.145 -1.24625,-1.145 -0.65125,0 -1.11625,0.54125 -1.39625,1.625 -0.1725,0.67625 -0.2575,1.4625 -0.2575,2.36125 0,0.89875 0.08625,1.685 0.25875,2.36125 0.28,1.08375 0.74625,1.625 1.39875,1.625 0.45875,0 0.81875,-0.26125 1.0775,-0.785 0.17875,-0.36625 0.2675,-0.72375 0.2675,-1.0675 l 0,-0.3025 -1.345,0 0,-1.50625 2.853751,0 0,1.96 c 0,0.5025 -0.13625,1.04 -0.40875,1.61625 -0.49375,1.0625 -1.308751,1.59375 -2.440001,1.59375 -1.29625,0 -2.2025,-0.73625 -2.71875,-2.20875 -0.301251,-0.86875 -0.451251,-1.965 -0.451251,-3.28625 0,-3.665 1.055001,-5.49625 3.165001,-5.49625 1.00875,0 1.787501,0.4425 2.337501,1.32875 0.23,0.36625 0.40125,0.8075 0.51625,1.32625"
   style="fill:#00674c;fill-opacity:1;fill-rule:nonzero;stroke:none"
   id="path4931"
   inkscape:connector-curvature="0" /><path
   d="m 37.04838,82.64516 c 0,-0.9425 -0.370001,-1.4675 -1.110001,-1.575 l -1.905001,0 0,3.1275 1.905001,0 c 0.74,-0.0337 1.110001,-0.55125 1.110001,-1.5525 m 1.5075,0 c 0,1.265 -0.445,2.15375 -1.335,2.66125 -0.460001,0.26625 -0.912501,0.4 -1.357502,0.4 l -1.83,0 0,4.62125 -1.507501,0 0,-10.76375 3.337501,0 c 0.452501,0 0.903751,0.13 1.357502,0.38875 0.89,0.51 1.335,1.40625 1.335,2.6925"
   style="fill:#00674c;fill-opacity:1;fill-rule:nonzero;stroke:none"
   id="path4935"
   inkscape:connector-curvature="0" /><path
   d="m 44.132131,85.91878 -0.84,-3.50375 -0.85125,3.50375 1.69125,0 z m 2.605001,4.40875 -1.540001,0 -0.69875,-2.9025 -2.42375,0 -0.69875,2.9025 -1.528751,0 2.605001,-10.76375 1.68,0 2.605001,10.76375 z"
   style="fill:#00674c;fill-opacity:1;fill-rule:nonzero;stroke:none"
   id="path4939"
   inkscape:connector-curvature="0" /><path
   d="m 54.272134,79.56391 -2.690001,5.80125 0,4.9625 -1.5075,0 0,-4.9625 -2.692501,-5.80125 1.62625,0 1.818751,3.89625 1.81,-3.89625 1.635001,0 z"
   style="fill:#00674c;fill-opacity:1;fill-rule:nonzero;stroke:none"
   id="path4943"
   inkscape:connector-curvature="0" /><path
   d="m 60.455885,117.72392 -0.89,3.37125 c -0.0225,0.0137 -0.04375,0.035 -0.05125,0.0637 -0.02,0.0437 -0.03375,0.085 -0.0475,0.1275 0.02125,0.2 0.0625,0.3775 0.18375,0.535 0.215,0.2925 0.51375,0.36375 0.855,0.35625 0.11375,0 0.25,-0.035 0.3425,-0.1 l 10.197503,-7.025 -10.197503,-6.92501 c -0.1425,-0.1 -0.2425,-0.15625 -0.41375,-0.1925 -0.29875,-0.0562 -0.63375,0.1775 -0.805,0.4125 -0.1,0.15 -0.14875,0.29375 -0.1625,0.47 0.01375,0.0575 0.01375,0.1225 0.04125,0.1775 0.01375,0.0438 0.035,0.08 0.0575,0.1225 l 0.89,3.26251 -44.70376,0 0,5.34375 44.70376,0 z"
   style="fill:#00674c;fill-opacity:1;fill-rule:evenodd;stroke:none"
   id="path5213"
   inkscape:connector-curvature="0" /><path
   d="m 48.988381,26.28251 -9.342502,0 0,7.36126 9.342502,0 c 2.507501,0 4.101251,-1.4725 4.101251,-3.73751 0,-2.03875 -1.70875,-3.62375 -4.101251,-3.62375 m 5.468752,12.45751 c -1.936251,1.01875 -3.305001,1.35875 -6.266252,1.35875 l -8.545002,0 0,12.1175 -6.380002,0 0,-32.38876 15.266254,0 c 2.735001,0 4.102501,0.33875 5.925002,1.35875 3.07625,1.81125 5.012501,5.09625 5.012501,8.72 0,3.73751 -1.936251,7.13501 -5.012501,8.83376"
   style="fill:#000000;fill-opacity:1;fill-rule:nonzero;stroke:none"
   id="path4881"
   inkscape:connector-curvature="0" /></svg>