<?xml version="1.0" encoding="utf-8"?>
<!-- Generator: Adobe Illustrator 27.9.0, SVG Export Plug-In . SVG Version: 6.00 Build 0)  -->
<svg version="1.1" xmlns="http://www.w3.org/2000/svg" xmlns:xlink="http://www.w3.org/1999/xlink" x="0px" y="0px"
	 viewBox="0 0 86.9 130.1" style="enable-background:new 0 0 86.9 130.1;" xml:space="preserve">
<style type="text/css">
	.st0{fill:#FFFFFF;}
	.st1{fill:#BF311A;}
</style>
<g id="Layer_1">
</g>
<g id="For_Sheets">
	<g>
		<g>
			<path class="st0" d="M11.1,130c-6,0-10.9-4.9-10.9-10.9v-108C0.1,5,5,0.1,11.1,0.1h64.8c6,0,10.9,4.9,10.9,10.9v108
				c0,6-4.9,10.9-10.9,10.9H11.1z"/>
			<path d="M75.9,0.2c5.9,0,10.8,4.9,10.8,10.8v108c0,5.9-4.9,10.8-10.8,10.8H11.1c-5.9,0-10.8-4.9-10.8-10.8v-108
				c0-5.9,4.9-10.8,10.8-10.8H75.9 M75.9,0H11.1C5,0,0,5,0,11.1v108c0,6.1,5,11,11.1,11h64.8c6.1,0,11-5,11-11v-108
				C86.9,5,81.9,0,75.9,0L75.9,0z"/>
		</g>
		<path class="st1" d="M11.1,127.2c-4.5,0-8.1-3.6-8.1-8.1v-108C3,6.6,6.6,3,11.1,3h64.8c4.5,0,8.1,3.6,8.1,8.1v108
			c0,4.5-3.6,8.1-8.1,8.1H11.1z"/>
		<path class="st0" d="M11.1,124.5c-3,0-5.4-2.4-5.4-5.4v-108c0-3,2.4-5.4,5.4-5.4h64.8c3,0,5.4,2.4,5.4,5.4v108
			c0,3-2.4,5.4-5.4,5.4H11.1z"/>
		<g>
			<path class="st1" d="M32,21.8v14.5h-3.1V14.7H32l5.9,13v-13H41v21.6h-2.3L32,21.8z"/>
			<path class="st1" d="M45.3,25.4c0-11.3,5.2-11.1,6.4-11.1c1.2,0,6.3-0.2,6.3,11.1c0,11.4-5.2,11.2-6.3,11.2
				C50.5,36.6,45.3,36.8,45.3,25.4z M51.7,17.3c-0.6,0-3.4-0.1-3.4,8.1c0,8.3,2.8,8.2,3.4,8.2c0.6,0,3.4,0.1,3.4-8.2
				C55.1,17.2,52.3,17.3,51.7,17.3z"/>
		</g>
		<g>
			<path class="st1" d="M11.6,44.5V51h1.5c1.7,0,2.3-0.9,2.3-3.1c0-2.4-0.8-3.5-2.3-3.5H11.6z M13.1,53.9h-1.5v9.4H8.9V41.7h4.4
				c4.6,0,4.9,5.1,4.9,6.3C18.1,51.5,16.1,53.9,13.1,53.9z"/>
			<path class="st1" d="M23.3,54.7h2.3L24.5,49L23.3,54.7z M26.2,57.5h-3.6l-1.2,5.8h-2.8l4.4-21.6h2.8l4.5,21.6h-2.9L26.2,57.5z"/>
			<path class="st1" d="M38,47.6c0-2.4-0.5-3.2-2.4-3.2h-1.3v5.9h1.8C37.6,50.4,38,49.7,38,47.6z M38.6,52.5l2.2,10.8h-3l-2.1-10.1
				h-1.5v10.1h-2.7V41.7h4.2c3.3,0,5.1,2,5.1,6.1C40.8,49.8,40.2,51.6,38.6,52.5z"/>
			<polygon class="st1" points="45.9,53 44.9,55.1 44.9,63.2 42.2,63.2 42.2,41.7 44.9,41.7 44.9,48.6 48.2,41.7 51.4,41.7 
				47.9,49.1 51.7,63.2 48.8,63.2 			"/>
			<rect x="53.1" y="41.7" class="st1" width="2.8" height="21.6"/>
			<polygon class="st1" points="60.5,50.4 60.5,63.2 57.8,63.2 57.8,41.7 60.5,41.7 64.4,52.4 64.4,41.7 67.1,41.7 67.1,63.2 
				64.8,63.2 			"/>
			<path class="st1" d="M73.8,41.4c2.4,0,4,1.5,4.3,4.2h-2.8c-0.1-0.9-0.6-1.4-1.4-1.4c-1.4,0-2.3,1.2-2.3,8.3
				c0,7.2,0.9,8.3,2.3,8.3c1.1,0,1.4-1.3,1.4-2.7v-2.6H74v-2.8h4v5.4c0,1.4,0.2,5.5-4.3,5.5c-3.9,0-5-3-5-11.1
				C68.8,42.9,70.8,41.4,73.8,41.4z"/>
		</g>
		<g>
			<path class="st1" d="M29.3,68.7h3.4v1h-2.4v1.8h1.5v1h-1.5v2.4h2.6v1h-3.7V68.7z"/>
			<path class="st1" d="M35.7,73.4l-1,2.4h-1.1l1.6-3.7l-1.5-3.5h1.1l0.9,2.2l0.9-2.2h1.1l-1.5,3.5l1.6,3.7h-1.1L35.7,73.4z"/>
			<path class="st1" d="M41.7,70.6c-0.1-0.7-0.4-1-0.9-1c-0.8,0-1.1,0.7-1.1,2.5c0,2.1,0.4,2.9,1.2,2.9c0.6,0,0.8-0.5,0.8-1h1
				c0,1.2-0.8,2-1.8,2c-1.5,0-2.2-1.2-2.2-3.9c0-2.3,0.7-3.6,2.2-3.6c1.3,0,1.8,1.2,1.9,2H41.7z"/>
			<path class="st1" d="M44.2,68.7h3.4v1h-2.4v1.8h1.5v1h-1.5v2.4h2.6v1h-3.7V68.7z"/>
			<path class="st1" d="M50.1,72.7v3.2h-1v-7.2h2.1c1.1,0,1.9,0.8,1.9,2c0,1.3-0.7,2-1.9,2H50.1z M50.1,71.7h1.1
				c0.6,0,0.9-0.4,0.9-1c0-0.6-0.4-1-0.9-1h-1.1V71.7z"/>
			<path class="st1" d="M56.3,75.9h-1v-6.2H54v-1h3.7v1h-1.3V75.9z"/>
		</g>
		<g>
			<path class="st1" d="M16.4,83.9c0.8,0.5,2,1.2,2,2.6c0,1.2-0.9,2.1-2,2.1c-1.3,0-2-1.1-2-2.2h1c0,0.6,0.3,1.2,1,1.2
				c0.6,0,1-0.5,1-1.1c0-1.6-2.7-1.5-2.7-3.5c0-1,0.8-1.9,1.9-1.9c1,0,1.8,0.8,1.8,1.9h-1c0-0.5-0.4-0.8-0.8-0.8
				c-0.5,0-0.9,0.4-0.9,0.8C15.7,83.5,15.9,83.6,16.4,83.9z"/>
			<path class="st1" d="M19.6,86.4v-5.1h1v5.2c0,0.7,0.4,1.1,1,1.1c0.6,0,1-0.5,1-1.1v-5.2h1v5.1c0,1.6-1.3,2.2-2,2.2
				C21,88.6,19.6,88.1,19.6,86.4z"/>
			<path class="st1" d="M26.3,83.6v4.8h-1v-7.2h1l2,4.3v-4.3h1v7.2h-0.8L26.3,83.6z"/>
			<path class="st1" d="M30.8,88.5v-7.2h2.1c0.4,0,2,0,2,3.6c0,3.3-1.4,3.6-1.9,3.6H30.8z M32.7,82.3h-0.8v5.2h0.7
				c0.8,0,1.3-0.4,1.3-2.6C33.9,82.4,33.2,82.3,32.7,82.3z"/>
			<path class="st1" d="M38.8,86.5h-1.5l-0.5,2h-1l1.8-7.2h1l1.8,7.2h-1L38.8,86.5z M37.5,85.5h1L38,83.4L37.5,85.5z"/>
			<path class="st1" d="M43.6,88.5h-1v-3.3l-1.8-3.9h1.1l1.2,2.6l1.2-2.6h1.1l-1.8,3.9V88.5z"/>
			<path class="st1" d="M48.1,83.9c0.8,0.5,2,1.2,2,2.6c0,1.2-0.9,2.1-2,2.1c-1.3,0-2-1.1-2-2.2h1c0,0.6,0.3,1.2,1,1.2
				c0.6,0,1-0.5,1-1.1c0-1.6-2.7-1.5-2.7-3.5c0-1,0.8-1.9,1.9-1.9c1,0,1.8,0.8,1.8,1.9h-1c0-0.5-0.4-0.8-0.8-0.8
				c-0.5,0-0.9,0.4-0.9,0.8C47.4,83.5,47.6,83.6,48.1,83.9z"/>
		</g>
		<g>
			<path class="st1" d="M60.3,86.5h-1.5l-0.5,2h-1l1.8-7.2h1l1.8,7.2h-1L60.3,86.5z M59.1,85.5h1l-0.5-2.1L59.1,85.5z"/>
			<path class="st1" d="M63.9,83.6v4.8h-1v-7.2h1l2,4.3v-4.3h1v7.2h-0.8L63.9,83.6z"/>
			<path class="st1" d="M68.5,88.5v-7.2h2.1c0.4,0,2,0,2,3.6c0,3.3-1.4,3.6-1.9,3.6H68.5z M70.4,82.3h-0.8v5.2h0.7
				c0.8,0,1.3-0.4,1.3-2.6C71.5,82.4,70.9,82.3,70.4,82.3z"/>
		</g>
		<g>
			<path class="st1" d="M27.6,97.8h-2v3.3h-1v-7.2h1v2.9h2v-2.9h1v7.2h-1V97.8z"/>
			<path class="st1" d="M30.1,97.4c0-3.8,1.7-3.7,2.1-3.7c0.4,0,2.1-0.1,2.1,3.7c0,3.8-1.7,3.7-2.1,3.7
				C31.8,101.2,30.1,101.2,30.1,97.4z M32.2,94.7c-0.2,0-1.1,0-1.1,2.7c0,2.8,0.9,2.7,1.1,2.7c0.2,0,1.1,0,1.1-2.7
				C33.3,94.7,32.4,94.7,32.2,94.7z"/>
			<path class="st1" d="M35.8,93.9h1v6.2h2.6v1h-3.7V93.9z"/>
			<path class="st1" d="M40.5,93.9h1v7.2h-1V93.9z"/>
			<path class="st1" d="M43.1,101.1v-7.2h2.1c0.4,0,2,0,2,3.6c0,3.3-1.4,3.6-1.9,3.6H43.1z M44.9,94.9h-0.8v5.2h0.7
				c0.8,0,1.3-0.4,1.3-2.6C46.1,95,45.4,94.9,44.9,94.9z"/>
			<path class="st1" d="M51,99.1h-1.5l-0.5,2h-1l1.8-7.2h1l1.8,7.2h-1L51,99.1z M49.7,98.1h1L50.2,96L49.7,98.1z"/>
			<path class="st1" d="M55.8,101.1h-1v-3.3L53,93.9h1.1l1.2,2.6l1.2-2.6h1.1l-1.8,3.9V101.1z"/>
			<path class="st1" d="M60.3,96.5c0.8,0.5,2,1.2,2,2.6c0,1.2-0.9,2.1-2,2.1c-1.3,0-2-1.1-2-2.2h1c0,0.6,0.3,1.2,1,1.2
				c0.6,0,1-0.5,1-1.1c0-1.6-2.7-1.5-2.7-3.5c0-1,0.8-1.9,1.9-1.9c1,0,1.8,0.8,1.8,1.9h-1c0-0.5-0.4-0.8-0.8-0.8
				c-0.5,0-0.9,0.4-0.9,0.8C59.6,96.1,59.8,96.2,60.3,96.5z"/>
		</g>
		<g>
			<rect x="22.6" y="110.1" class="st1" width="41.5" height="5.4"/>
			<path class="st1" d="M60.6,105.6c-0.5,0-0.9,0.4-0.9,0.9c0,0.1,0,0.2,0.1,0.3l2.2,6l-2.2,6c0,0.1-0.1,0.2-0.1,0.3
				c0,0.5,0.4,0.9,0.9,0.9c0.2,0,0.4-0.1,0.5-0.2l10.3-7l-10.3-7C60.9,105.6,60.7,105.6,60.6,105.6z"/>
			<path class="st1" d="M26.4,120c0.5,0,0.9-0.4,0.9-0.9c0-0.1,0-0.2-0.1-0.3l-2.2-6l2.2-6c0-0.1,0.1-0.2,0.1-0.3
				c0-0.5-0.4-0.9-0.9-0.9c-0.2,0-0.4,0.1-0.5,0.2l-10.3,7l10.3,7C26,119.9,26.2,120,26.4,120z"/>
		</g>
	</g>
</g>
</svg>
