<?xml version="1.0" encoding="utf-8"?>
<!-- Generator: Adobe Illustrator 27.9.0, SVG Export Plug-In . SVG Version: 6.00 Build 0)  -->
<svg version="1.1" xmlns="http://www.w3.org/2000/svg" xmlns:xlink="http://www.w3.org/1999/xlink" x="0px" y="0px"
	 viewBox="0 0 86.9 130.1" style="enable-background:new 0 0 86.9 130.1;" xml:space="preserve">
<style type="text/css">
	.st0{fill:#FFFFFF;}
	.st1{fill:#006F53;}
</style>
<g id="Layer_1">
</g>
<g id="For_Sheets">
	<g>
		<g>
			<path class="st0" d="M11.1,130c-6,0-10.9-4.9-10.9-10.9v-108C0.1,5,5,0.1,11.1,0.1h64.8c6,0,10.9,4.9,10.9,10.9v108
				c0,6-4.9,10.9-10.9,10.9H11.1z"/>
			<path d="M75.9,0.2c5.9,0,10.8,4.9,10.8,10.8v108c0,5.9-4.9,10.8-10.8,10.8H11.1c-5.9,0-10.8-4.9-10.8-10.8v-108
				c0-5.9,4.9-10.8,10.8-10.8H75.9 M75.9,0H11.1C5,0,0,5,0,11.1v108c0,6.1,5,11,11.1,11h64.8c6.1,0,11-5,11-11v-108
				C86.9,5,81.9,0,75.9,0L75.9,0z"/>
		</g>
		<path class="st1" d="M11.1,127.2c-4.5,0-8.1-3.6-8.1-8.1v-108C3,6.6,6.6,3,11.1,3h64.8c4.5,0,8.1,3.6,8.1,8.1v108
			c0,4.5-3.6,8.1-8.1,8.1H11.1z"/>
		<path class="st0" d="M11.1,124.5c-3,0-5.4-2.4-5.4-5.4v-108c0-3,2.4-5.4,5.4-5.4h64.8c3,0,5.4,2.4,5.4,5.4v108
			c0,3-2.4,5.4-5.4,5.4H11.1z"/>
		<g>
			<path class="st1" d="M28.5,21.8c0-7.5,3.5-7.4,4.3-7.4c0.8,0,4.2-0.1,4.2,7.4c0,7.6-3.5,7.5-4.2,7.5C32,29.3,28.5,29.4,28.5,21.8
				z M32.7,16.4c-0.4,0-2.3-0.1-2.3,5.4c0,5.5,1.9,5.5,2.3,5.5c0.4,0,2.3,0.1,2.3-5.5C35,16.3,33.1,16.4,32.7,16.4z"/>
			<path class="st1" d="M41.9,19.4v9.6h-2.1V14.7h2.1l3.9,8.6v-8.6h2.1v14.4h-1.6L41.9,19.4z"/>
			<path class="st1" d="M51.1,14.7h6.8v2h-4.7v3.6h3v2h-3V27h5.3v2h-7.3V14.7z"/>
		</g>
		<g>
			<path class="st1" d="M28.6,51.3h-3.9v6.5h-2.1V43.5h2.1v5.9h3.9v-5.9h2.1v14.4h-2.1V51.3z"/>
			<path class="st1" d="M33.6,50.6c0-7.5,3.5-7.4,4.3-7.4c0.8,0,4.2-0.1,4.2,7.4c0,7.6-3.5,7.5-4.2,7.5
				C37.1,58.1,33.6,58.2,33.6,50.6z M37.8,45.2c-0.4,0-2.3-0.1-2.3,5.4c0,5.5,1.9,5.5,2.3,5.5c0.4,0,2.3,0.1,2.3-5.5
				C40.1,45.1,38.2,45.2,37.8,45.2z"/>
			<path class="st1" d="M45,53.7V43.5H47v10.4c0,1.4,0.8,2.3,2,2.3c1.1,0,1.9-0.9,1.9-2.3V43.5H53v10.2c0,3.3-2.5,4.4-4,4.4
				C47.7,58.1,45,57.2,45,53.7z"/>
			<path class="st1" d="M60.2,51.1h-2v6.8h-2.1V43.5h4.3c2.3,0,3.8,1.5,3.8,3.8c0,1.7-0.7,3-2.1,3.5l2.1,7.1h-2.1L60.2,51.1z
				 M58.3,45.5v3.6h2.1c1.2,0,1.9-0.7,1.9-1.8c0-1.1-0.8-1.8-1.9-1.8H58.3z"/>
		</g>
		<g>
			<path class="st1" d="M12.4,80.3v6.3h-2.1V72.3h4.3c2.3,0,3.8,1.6,3.8,4c0,2.6-1.4,4-3.8,4H12.4z M12.4,78.4h2.1
				c1.2,0,1.9-0.8,1.9-2.1c0-1.2-0.8-2-1.9-2h-2.1V78.4z"/>
			<path class="st1" d="M26.2,82.7h-3.1l-1,3.9h-2.1l3.6-14.4h2l3.6,14.4h-2.1L26.2,82.7z M23.7,80.7h2.1l-1.1-4.1L23.7,80.7z"/>
			<path class="st1" d="M35.4,79.9h-2v6.8h-2.1V72.3h4.3c2.3,0,3.8,1.5,3.8,3.8c0,1.7-0.7,3-2.1,3.5l2.1,7.1h-2.1L35.4,79.9z
				 M33.4,74.3v3.6h2.1c1.2,0,1.9-0.7,1.9-1.8c0-1.1-0.8-1.8-1.9-1.8H33.4z"/>
			<path class="st1" d="M45.2,79.6L43.9,82v4.6h-2.1V72.3h2.1V78l3.3-5.8h2.4l-3,5.1l3.3,9.3h-2.2L45.2,79.6z"/>
			<path class="st1" d="M52.4,72.3h2v14.4h-2V72.3z"/>
			<path class="st1" d="M59.6,77v9.6h-2.1V72.3h2.1l3.9,8.6v-8.6h2.1v14.4h-1.6L59.6,77z"/>
			<path class="st1" d="M73,86.9c-1.3,0-4.5-0.2-4.5-7.4s3-7.5,4.3-7.5c2.1,0,3.7,1.5,3.8,3.6h-2.1c-0.1-1-0.7-1.6-1.7-1.6
				c-0.7,0-2.3,0.2-2.3,5.5c0,5.2,1.7,5.4,2.4,5.4c1.1,0,1.6-0.7,1.6-2.2v-1h-1.6v-2h3.7v3C76.6,86.3,74.2,86.9,73,86.9z"/>
		</g>
		<g>
			<rect x="22.6" y="105.6" class="st1" width="41.5" height="5.4"/>
			<path class="st1" d="M60.6,101.1c-0.5,0-0.9,0.4-0.9,0.9c0,0.1,0,0.2,0.1,0.3l2.2,6l-2.2,6c0,0.1-0.1,0.2-0.1,0.3
				c0,0.5,0.4,0.9,0.9,0.9c0.2,0,0.4-0.1,0.5-0.2l10.3-7l-10.3-7C60.9,101.1,60.7,101.1,60.6,101.1z"/>
			<path class="st1" d="M26.4,115.5c0.5,0,0.9-0.4,0.9-0.9c0-0.1,0-0.2-0.1-0.3l-2.2-6l2.2-6c0-0.1,0.1-0.2,0.1-0.3
				c0-0.5-0.4-0.9-0.9-0.9c-0.2,0-0.4,0.1-0.5,0.2l-10.3,7l10.3,7C26,115.4,26.2,115.5,26.4,115.5z"/>
		</g>
	</g>
</g>
</svg>
