<?xml version="1.0" encoding="utf-8"?>
<!-- Generator: Adobe Illustrator 27.9.0, SVG Export Plug-In . SVG Version: 6.00 Build 0)  -->
<svg version="1.1" xmlns="http://www.w3.org/2000/svg" xmlns:xlink="http://www.w3.org/1999/xlink" x="0px" y="0px"
	 viewBox="0 0 86.9 130.1" style="enable-background:new 0 0 86.9 130.1;" xml:space="preserve">
<style type="text/css">
	.st0{fill:#FFFFFF;}
	.st1{fill:#BF311A;}
</style>
<g id="Layer_1">
</g>
<g id="For_Sheets">
	<g>
		<g>
			<path class="st0" d="M11.1,130c-6,0-10.9-4.9-10.9-10.9v-108C0.1,5,5,0.1,11.1,0.1h64.8c6,0,10.9,4.9,10.9,10.9v108
				c0,6-4.9,10.9-10.9,10.9H11.1z"/>
			<path d="M75.9,0.2c5.9,0,10.8,4.9,10.8,10.8v108c0,5.9-4.9,10.8-10.8,10.8H11.1c-5.9,0-10.8-4.9-10.8-10.8v-108
				c0-5.9,4.9-10.8,10.8-10.8H75.9 M75.9,0H11.1C5,0,0,5,0,11.1v108c0,6.1,5,11,11.1,11h64.8c6.1,0,11-5,11-11v-108
				C86.9,5,81.9,0,75.9,0L75.9,0z"/>
		</g>
		<path class="st1" d="M11.1,127.2c-4.5,0-8.1-3.6-8.1-8.1v-108C3,6.6,6.6,3,11.1,3h64.8c4.5,0,8.1,3.6,8.1,8.1v108
			c0,4.5-3.6,8.1-8.1,8.1H11.1z"/>
		<path class="st0" d="M11.1,124.5c-3,0-5.4-2.4-5.4-5.4v-108c0-3,2.4-5.4,5.4-5.4h64.8c3,0,5.4,2.4,5.4,5.4v108
			c0,3-2.4,5.4-5.4,5.4H11.1z"/>
		<g>
			<rect x="22.6" y="111" class="st1" width="41.5" height="5.4"/>
			<path class="st1" d="M60.6,106.5c-0.5,0-0.9,0.4-0.9,0.9c0,0.1,0,0.2,0.1,0.3l2.2,6l-2.2,6c0,0.1-0.1,0.2-0.1,0.3
				c0,0.5,0.4,0.9,0.9,0.9c0.2,0,0.4-0.1,0.5-0.2l10.3-7l-10.3-7C60.9,106.5,60.7,106.5,60.6,106.5z"/>
			<path class="st1" d="M26.4,120.9c0.5,0,0.9-0.4,0.9-0.9c0-0.1,0-0.2-0.1-0.3l-2.2-6l2.2-6c0-0.1,0.1-0.2,0.1-0.3
				c0-0.5-0.4-0.9-0.9-0.9c-0.2,0-0.4,0.1-0.5,0.2l-10.3,7l10.3,7C26,120.8,26.2,120.9,26.4,120.9z"/>
		</g>
		<g>
			<path class="st1" d="M32,20.9v14.5h-3.1V13.8H32l5.9,13v-13H41v21.6h-2.3L32,20.9z"/>
			<path class="st1" d="M45.3,24.5c0-11.3,5.2-11.1,6.4-11.1c1.2,0,6.3-0.2,6.3,11.1c0,11.4-5.2,11.2-6.3,11.2
				C50.5,35.7,45.3,35.9,45.3,24.5z M51.7,16.4c-0.6,0-3.4-0.1-3.4,8.1c0,8.3,2.8,8.2,3.4,8.2c0.6,0,3.4,0.1,3.4-8.2
				C55.1,16.3,52.3,16.4,51.7,16.4z"/>
		</g>
		<g>
			<path class="st1" d="M11.6,44.5V51h1.5c1.7,0,2.3-0.9,2.3-3.1c0-2.4-0.8-3.5-2.3-3.5H11.6z M13.1,53.9h-1.5v9.4H8.9V41.7h4.4
				c4.6,0,4.9,5.1,4.9,6.3C18.1,51.5,16.1,53.9,13.1,53.9z"/>
			<path class="st1" d="M23.3,54.7h2.3L24.5,49L23.3,54.7z M26.2,57.5h-3.6l-1.2,5.8h-2.8l4.4-21.6h2.8l4.5,21.6h-2.9L26.2,57.5z"/>
			<path class="st1" d="M38,47.6c0-2.4-0.5-3.2-2.4-3.2h-1.3v5.9h1.8C37.6,50.4,38,49.7,38,47.6z M38.6,52.5l2.2,10.8h-3l-2.1-10.1
				h-1.5v10.1h-2.7V41.7h4.2c3.3,0,5.1,2,5.1,6.1C40.8,49.8,40.2,51.6,38.6,52.5z"/>
			<polygon class="st1" points="45.9,53 44.9,55.1 44.9,63.2 42.2,63.2 42.2,41.7 44.9,41.7 44.9,48.6 48.2,41.7 51.4,41.7 
				47.9,49.1 51.7,63.2 48.8,63.2 			"/>
			<rect x="53.1" y="41.7" class="st1" width="2.8" height="21.6"/>
			<polygon class="st1" points="60.5,50.4 60.5,63.2 57.8,63.2 57.8,41.7 60.5,41.7 64.4,52.4 64.4,41.7 67.1,41.7 67.1,63.2 
				64.8,63.2 			"/>
			<path class="st1" d="M73.8,41.4c2.4,0,4,1.5,4.3,4.2h-2.8c-0.1-0.9-0.6-1.4-1.4-1.4c-1.4,0-2.3,1.2-2.3,8.3
				c0,7.2,0.9,8.3,2.3,8.3c1.1,0,1.4-1.3,1.4-2.7v-2.6H74v-2.8h4v5.4c0,1.4,0.2,5.5-4.3,5.5c-3.9,0-5-3-5-11.1
				C68.8,42.9,70.8,41.4,73.8,41.4z"/>
		</g>
		<g>
			<path class="st1" d="M10.6,70.5h2.1v12.5H18v1.9h-7.3V70.5z"/>
			<path class="st1" d="M19.7,77.6c0-7.5,3.5-7.4,4.3-7.4c0.8,0,4.2-0.1,4.2,7.4c0,7.6-3.5,7.5-4.2,7.5
				C23.2,85.1,19.7,85.2,19.7,77.6z M23.9,72.2c-0.4,0-2.3-0.1-2.3,5.4c0,5.5,1.9,5.5,2.3,5.5c0.4,0,2.3,0.1,2.3-5.5
				C26.2,72.1,24.3,72.2,23.9,72.2z"/>
			<path class="st1" d="M36,80.9H33l-1,3.9h-2.1l3.6-14.4h2l3.6,14.4h-2.1L36,80.9z M33.5,78.9h2.1l-1.1-4.1L33.5,78.9z"/>
			<path class="st1" d="M41.1,84.8V70.5h4.1c0.9,0,4,0,4,7.2c0,6.5-2.8,7.2-3.8,7.2H41.1z M44.8,72.5h-1.6v10.4h1.4
				c1.7,0,2.5-0.7,2.5-5.1C47.2,72.7,45.9,72.5,44.8,72.5z"/>
			<path class="st1" d="M52.1,70.5h2v14.4h-2V70.5z"/>
			<path class="st1" d="M59.3,75.2v9.6h-2.1V70.5h2.1l3.9,8.6v-8.6h2.1v14.4h-1.6L59.3,75.2z"/>
			<path class="st1" d="M72.7,85.1c-1.3,0-4.5-0.2-4.5-7.4c0-7.2,3-7.5,4.3-7.5c2.1,0,3.7,1.5,3.8,3.6h-2.1c-0.1-1-0.7-1.6-1.7-1.6
				c-0.7,0-2.3,0.2-2.3,5.5s1.7,5.4,2.4,5.4c1.1,0,1.6-0.7,1.6-2.2v-1h-1.6v-2h3.7v3C76.3,84.5,73.9,85.1,72.7,85.1z"/>
		</g>
		<g>
			<path class="st1" d="M23.4,100.6l5.4-10.2h-4.9v-2h7.5v1.3l-5.9,11.1h5.9v2h-8.1V100.6z"/>
			<path class="st1" d="M33.6,95.6c0-7.5,3.5-7.4,4.3-7.4c0.8,0,4.2-0.1,4.2,7.4c0,7.6-3.5,7.5-4.2,7.5
				C37.1,103.1,33.6,103.2,33.6,95.6z M37.8,90.2c-0.4,0-2.3-0.1-2.3,5.4c0,5.5,1.9,5.5,2.3,5.5c0.4,0,2.3,0.1,2.3-5.5
				C40.1,90.1,38.2,90.2,37.8,90.2z"/>
			<path class="st1" d="M47,93.2v9.6H45V88.5H47l3.9,8.6v-8.6H53v14.4h-1.6L47,93.2z"/>
			<path class="st1" d="M56.2,88.5H63v2h-4.7v3.6h3v2h-3v4.8h5.3v2h-7.3V88.5z"/>
		</g>
	</g>
</g>
</svg>
