<?xml version="1.0" encoding="UTF-8" standalone="no"?>
<!-- Generator: Adobe Illustrator 14.0.0, SVG Export Plug-In  -->

<svg
   xmlns:dc="http://purl.org/dc/elements/1.1/"
   xmlns:cc="http://creativecommons.org/ns#"
   xmlns:rdf="http://www.w3.org/1999/02/22-rdf-syntax-ns#"
   xmlns:svg="http://www.w3.org/2000/svg"
   xmlns="http://www.w3.org/2000/svg"
   xmlns:sodipodi="http://sodipodi.sourceforge.net/DTD/sodipodi-0.dtd"
   xmlns:inkscape="http://www.inkscape.org/namespaces/inkscape"
   version="1.1"
   x="0px"
   y="0px"
   width="86.218727"
   height="128.93747"
   viewBox="0 -0.321 86.218731 128.9375"
   enable-background="new 0 -0.321 144 120"
   xml:space="preserve"
   id="svg2"
   inkscape:version="0.48.2 r9819"
   sodipodi:docname="MUTCD R7-6.svg"><metadata
   id="metadata44"><rdf:RDF><cc:Work
       rdf:about=""><dc:format>image/svg+xml</dc:format><dc:type
         rdf:resource="http://purl.org/dc/dcmitype/StillImage" /><dc:title></dc:title></cc:Work></rdf:RDF></metadata><sodipodi:namedview
   pagecolor="#ffffff"
   bordercolor="#666666"
   borderopacity="1"
   objecttolerance="10"
   gridtolerance="10"
   guidetolerance="10"
   inkscape:pageopacity="0"
   inkscape:pageshadow="2"
   inkscape:window-width="1280"
   inkscape:window-height="1004"
   id="namedview42"
   showgrid="false"
   fit-margin-top="0"
   fit-margin-left="0"
   fit-margin-right="0"
   fit-margin-bottom="0"
   inkscape:zoom="3.7904688"
   inkscape:cx="29.000333"
   inkscape:cy="74.843774"
   inkscape:window-x="-8"
   inkscape:window-y="-8"
   inkscape:window-maximized="1"
   inkscape:current-layer="svg2" />
<defs
   id="defs4">
</defs>


















<path
   inkscape:connector-curvature="0"
   d="m 11.046506,0.03044 64.12501,0 c 5.88625,0 10.68751,4.80125 10.68751,10.6875 l 0,106.87503 c 0,5.88625 -4.80126,10.68625 -10.68751,10.68625 l -64.12501,0 c -5.8862524,0 -10.68750208,-4.8 -10.68750208,-10.68625 l 0,-106.87503 c 0,-5.8125 4.87499968,-10.6875 10.68750208,-10.6875"
   style="fill:#ffffff;fill-opacity:1;fill-rule:nonzero;stroke:#000000;stroke-width:0.70000017;stroke-linecap:butt;stroke-linejoin:miter;stroke-miterlimit:4;stroke-opacity:1;stroke-dasharray:none"
   id="path3081" /><path
   d="m 11.089682,2.6941002 64.056265,0 c 4.415001,0.0175 8.022502,3.6425009 8.050002,8.0487518 l 0,106.807528 c -0.0275,4.41 -3.635001,8.02625 -8.050002,8.05 l -64.056265,0 c -4.4050012,-0.0238 -8.035002,-3.64 -8.050002,-8.05 l 0,-106.807528 c 0.015,-4.4062509 3.6450008,-8.0312518 8.050002,-8.0487518"
   style="fill:#bf2519;fill-opacity:1;fill-rule:evenodd;stroke:none"
   id="path3565"
   inkscape:connector-curvature="0" /><path
   d="m 11.129682,5.8141009 63.976265,0 c 2.751251,0.01625 4.952501,2.2187505 4.968751,4.9700011 l 0,106.726278 c -0.01625,2.7375 -2.2175,4.97 -4.968751,4.96875 l -63.976265,0 c -2.7487507,0.001 -4.9550013,-2.23125 -4.9700013,-4.96875 l 0,-106.726278 C 6.1734307,8.0328514 8.3809313,5.8316009 11.129682,5.8141009"
   style="fill:#ffffff;fill-opacity:1;fill-rule:evenodd;stroke:none"
   id="path3569"
   inkscape:connector-curvature="0" /><path
   d="m 60.190943,113.13663 -0.89,3.37124 c -0.0225,0.015 -0.04375,0.035 -0.05125,0.0625 -0.02,0.045 -0.035,0.0863 -0.0475,0.12875 0.02,0.2 0.06125,0.3775 0.18375,0.535 0.215,0.2925 0.5125,0.36375 0.855,0.35625 0.11375,0 0.25,-0.035 0.3425,-0.1 l 10.196253,-7.025 -10.196253,-6.925 c -0.1425,-0.1 -0.2425,-0.15625 -0.41375,-0.19125 -0.29875,-0.0588 -0.635,0.17625 -0.805,0.4125 -0.10125,0.14875 -0.15,0.2925 -0.1625,0.46875 0.0125,0.0575 0.0125,0.1225 0.04125,0.1775 0.01375,0.045 0.035,0.0787 0.0575,0.1225 l 0.89,3.2625 -44.70376,0 0,5.34376 44.70376,0 z"
   style="fill:#bf2519;fill-opacity:1;fill-rule:evenodd;stroke:none"
   id="path3821"
   inkscape:connector-curvature="0" /><path
   d="m 31.887186,20.402723 6.407502,14.326254 2.27375,0 0,-21.375005 -3.01125,0 0,12.783753 -5.670002,-12.783753 -3.0125,0 0,21.375005 3.0125,0 0,-14.326254 z"
   style="fill:#bf2519;fill-opacity:1;fill-rule:evenodd;stroke:none"
   id="path3825"
   inkscape:connector-curvature="0" /><path
   d="m 78.048447,44.809106 c -0.29125,-2.692501 -1.73125,-4.197501 -4.070001,-4.197501 -2.01875,0 -3.266251,0.89625 -3.972501,2.81875 -0.7375,1.987501 -0.96125,3.877501 -0.96125,8.202502 0,4.357501 0.22375,6.247502 0.8975,8.233752 0.70625,1.986251 1.922501,2.825001 4.036251,2.825001 1.892501,0 3.332501,-0.935 3.750001,-2.441251 0.19,-0.6725 0.32,-1.79375 0.32,-2.78625 l 0,-5.478752 -3.877501,0 0,2.786251 1.218751,0 0,2.820001 c 0,1.47375 -0.547501,2.30625 -1.506251,2.30625 -0.9275,0 -1.475,-0.70375 -1.6975,-2.11375 -0.29,-1.793751 -0.385,-3.236251 -0.385,-6.151252 0,-2.947501 0.095,-4.388751 0.4175,-6.118751 0.25375,-1.411251 0.86375,-2.116251 1.82625,-2.116251 0.7375,0 1.215001,0.51375 1.345001,1.411251 l 2.65875,0 z"
   style="fill:#bf2519;fill-opacity:1;fill-rule:evenodd;stroke:none"
   id="path3829"
   inkscape:connector-curvature="0" /><path
   d="m 66.502194,40.964104 -2.66,0 0,10.668752 -3.682501,-10.668752 -2.661251,0 0,21.375005 2.661251,0 0,-12.693753 4.100001,12.693753 2.2425,0 0,-21.375005 z"
   style="fill:#bf2519;fill-opacity:1;fill-rule:evenodd;stroke:none"
   id="path3833"
   inkscape:connector-curvature="0" /><path
   d="m 54.956944,40.963977 -2.658751,0 0,21.375005 2.658751,0 0,-21.375005 z"
   style="fill:#bf2519;fill-opacity:1;fill-rule:evenodd;stroke:none"
   id="path3835"
   inkscape:connector-curvature="0" /><path
   d="m 46.74344,48.332855 3.460001,-7.368751 -3.043751,0 -3.300001,6.823751 0,-6.823751 -2.66,0 0,21.375005 2.66,0 0,-8.015002 0.9925,-2.115001 2.820001,10.130003 2.883751,0 -3.812501,-14.006254 z"
   style="fill:#bf2519;fill-opacity:1;fill-rule:evenodd;stroke:none"
   id="path3839"
   inkscape:connector-curvature="0" /><path
   d="m 57.474692,70.230236 c -0.0875,-2.135001 -1.5825,-3.673751 -3.56875,-3.673751 -1.963751,0 -3.566251,1.645 -3.566251,3.673751 0,1.2825 0.5975,2.35 1.75125,3.16125 2.797501,1.965001 2.028751,1.410001 2.348751,1.687501 0.79125,0.6825 1.09,1.26125 1.09,2.05 0,1.175 -0.87625,2.157501 -1.943751,2.157501 -1.13125,0 -1.96625,-0.982501 -1.96625,-2.285001 l 0,-0.17125 -1.9425,0 0,0.1925 c 0,2.392501 1.70875,4.253751 3.90875,4.253751 2.136251,0 3.888751,-1.86125 3.888751,-4.147501 0,-2.02875 -1.1975,-3.608751 -3.888751,-5.188751 -1.00375,-0.59875 -1.3025,-0.98375 -1.3025,-1.71 0,-0.917501 0.72625,-1.666251 1.622501,-1.666251 0.8975,0 1.58125,0.68375 1.62375,1.666251 l 1.945,0 z"
   style="fill:#bf2519;fill-opacity:1;fill-rule:evenodd;stroke:none"
   id="path3843"
   inkscape:connector-curvature="0" /><path
   d="m 45.074689,66.79161 0,10.252502 c 0,1.34625 -0.7475,2.242501 -1.8575,2.242501 -1.155,0 -1.9225,-0.896251 -1.9225,-2.242501 l 0,-10.252502 -2.007501,0 0,9.975002 c 0,1.175 0.12875,1.772501 0.5325,2.497501 0.685,1.2175 2.051251,2.0125 3.397501,2.0125 1.32375,0 2.668751,-0.815 3.332501,-2.0125 0.40625,-0.725 0.53375,-1.322501 0.53375,-2.497501 l 0,-9.975002 -2.008751,0 z"
   style="fill:#bf2519;fill-opacity:1;fill-rule:evenodd;stroke:none"
   id="path3847"
   inkscape:connector-curvature="0" /><path
   inkscape:connector-curvature="0"
   style="fill:#bf2519;fill-opacity:1;fill-rule:evenodd;stroke:none"
   d="m 28.874998,66.796173 0,14.250003 4.093751,0 c 2.05,0 3.6875,-1.74875 3.6875,-3.906251 0,-1.43 -0.57625,-2.64375 -1.6875,-3.562501 1.1525,-1.175 1.46875,-1.81125 1.46875,-3.09375 0,-2.178751 -1.3075,-3.687501 -3.1875,-3.687501 l -4.375001,0 z m 2,1.96875 2.093751,0 c 1.0475,0 1.53125,0.545 1.53125,1.718751 0,1.3025 -0.59125,2.125 -1.53125,2.125 l -2.093751,0 0,-3.843751 z m 0,5.812502 2.000001,0 c 1.02625,0 1.84375,1.0925 1.84375,2.4375 0,1.2375 -0.7325,2.031251 -1.84375,2.031251 l -2.000001,0 0,-4.468751 z"
   id="path3851" /><path
   inkscape:connector-curvature="0"
   style="fill:#bf2519;fill-opacity:1;fill-rule:evenodd;stroke:none"
   d="m 54.093754,85.483677 0,14.250004 2.03125,0 0,-6.218752 2.156251,0 c 2.35,0 3.625,-1.445 3.625,-4.031251 0,-2.39125 -1.445,-4.000001 -3.625,-4.000001 l -4.187501,0 z m 2.03125,2.000001 2.031251,0 c 1.06625,0 1.8125,0.80625 1.8125,2 0,1.30375 -0.66125,2.031251 -1.8125,2.031251 l -2.031251,0 0,-4.031251 z"
   id="path3855" /><path
   d="m 41.315939,87.396615 0,-1.902501 -7.112502,0 0,1.902501 2.585,0 0,12.347503 2.007501,0 0,-12.347503 2.520001,0 z"
   style="fill:#bf2519;fill-opacity:1;fill-rule:evenodd;stroke:none"
   id="path3859"
   inkscape:connector-curvature="0" /><path
   d="m 32.217186,88.934116 c -0.085,-2.136251 -1.57875,-3.673751 -3.56625,-3.673751 -1.965001,0 -3.566251,1.645 -3.566251,3.673751 0,1.28125 0.5975,2.348751 1.75125,3.161251 2.797501,1.965 2.028751,1.41 2.348751,1.6875 0.79125,0.6825 1.09,1.26 1.09,2.050001 0,1.175 -0.87625,2.1575 -1.943751,2.1575 -1.1325,0 -1.965,-0.9825 -1.965,-2.28625 l 0,-0.17125 -1.94375,0 0,0.19375 c 0,2.3925 1.70875,4.253751 3.90875,4.253751 2.135001,0 3.886251,-1.861251 3.886251,-4.147501 0,-2.028751 -1.195,-3.610001 -3.886251,-5.190002 -1.00375,-0.5975 -1.30375,-0.9825 -1.30375,-1.70875 0,-0.91875 0.72625,-1.66625 1.623751,-1.66625 0.8975,0 1.58,0.6825 1.62375,1.66625 l 1.9425,0 z"
   style="fill:#bf2519;fill-opacity:1;fill-rule:evenodd;stroke:none"
   id="path3863"
   inkscape:connector-curvature="0" /><path
   d="m 51.269691,15.981473 c -1.28,0 -2.113751,0.801251 -2.627501,2.595001 -0.48,1.66625 -0.64,3.075001 -0.64,5.478752 0,2.33875 0.16,3.71625 0.64,5.382501 0.51375,1.82625 1.315001,2.658751 2.627501,2.658751 1.25,0 2.0825,-0.832501 2.595001,-2.627501 0.48,-1.697501 0.64125,-3.011251 0.64125,-5.446251 0,-2.402501 -0.16125,-3.811252 -0.64125,-5.382502 -0.545001,-1.8575 -1.345001,-2.658751 -2.595001,-2.658751 m 0,-2.98 c 2.435,0 3.877501,1.0575 4.967501,3.652501 0.86375,2.0825 1.18375,4.10125 1.18375,7.368752 0,3.3 -0.32,5.351251 -1.18375,7.433751 -1.05875,2.531251 -2.565001,3.625001 -4.967501,3.625001 -2.467501,0 -3.941251,-1.09375 -4.998751,-3.657501 -0.86375,-2.0825 -1.183751,-4.133751 -1.183751,-7.401251 0,-3.267502 0.351251,-5.446252 1.216251,-7.465003 1.09,-2.49875 2.5625,-3.55625 4.966251,-3.55625"
   style="fill:#bf2519;fill-opacity:1;fill-rule:evenodd;stroke:none"
   id="path3867"
   inkscape:connector-curvature="0" /><path
   d="m 32.314685,49.550356 1.730001,0 c 1.44125,0 1.89,-0.641251 1.89,-2.660001 0,-2.433751 -0.5125,-3.138751 -2.30625,-3.138751 l -1.313751,0 0,5.798752 z m 4.165001,2.11375 2.115001,10.675003 -2.723751,0 -2.33875,-10.002503 -1.217501,0 0,10.002503 -2.66,0 0,-21.375005 4.068751,0 c 3.268751,0 4.935001,2.0175 4.935001,5.958751 0,2.435001 -0.60875,3.748751 -2.178751,4.741251"
   style="fill:#bf2519;fill-opacity:1;fill-rule:evenodd;stroke:none"
   id="path3871"
   inkscape:connector-curvature="0" /><path
   d="m 23.715934,53.875357 -1.1525,-5.638752 -1.15375,5.638752 2.30625,0 z m 0.577501,2.7875 -3.460001,0 -1.153751,5.676252 -2.7875,0 4.293751,-21.375005 2.755,0 4.293751,21.375005 -2.78875,0 -1.1525,-5.676252 z"
   style="fill:#bf2519;fill-opacity:1;fill-rule:evenodd;stroke:none"
   id="path3875"
   inkscape:connector-curvature="0" /><path
   d="m 11.049682,50.222856 1.41,0 c 1.633751,0 2.211251,-0.80125 2.211251,-3.043751 0,-2.37 -0.70625,-3.427501 -2.211251,-3.427501 l -1.41,0 0,6.471252 z m 0,2.7875 0,9.328753 -2.6587508,0 0,-21.375005 4.0687508,0 c 1.2175,0 2.273751,0.32 2.947501,0.865 1.2175,0.9925 1.98625,3.043751 1.98625,5.318751 0,3.523751 -1.98625,5.862501 -4.933751,5.862501 l -1.41,0 z"
   style="fill:#bf2519;fill-opacity:1;fill-rule:evenodd;stroke:none"
   id="path3879"
   inkscape:connector-curvature="0" /><path
   d="m 47.42344,87.246615 c -0.8525,0 -1.40875,0.535 -1.75125,1.72875 -0.318751,1.11125 -0.426251,2.05125 -0.426251,3.653751 0,1.55875 0.1075,2.47625 0.426251,3.587501 0.3425,1.2175 0.8775,1.77375 1.75125,1.77375 0.8325,0 1.38875,-0.55625 1.73125,-1.75125 0.31875,-1.133751 0.42625,-2.007501 0.42625,-3.631251 0,-1.602501 -0.1075,-2.542501 -0.42625,-3.588751 -0.36375,-1.2375 -0.89875,-1.7725 -1.73125,-1.7725 m 0,-1.986251 c 1.62375,0 2.585001,0.705 3.311251,2.435001 0.57625,1.38875 0.79,2.73375 0.79,4.912501 0,2.2 -0.21375,3.567501 -0.79,4.955001 -0.70375,1.6875 -1.707501,2.417501 -3.311251,2.417501 -1.64375,0 -2.626251,-0.730001 -3.331251,-2.440001 -0.5775,-1.3875 -0.79125,-2.755001 -0.79125,-4.932501 0,-2.178751 0.235,-3.632501 0.8125,-4.977501 0.72625,-1.665001 1.708751,-2.370001 3.310001,-2.370001"
   style="fill:#bf2519;fill-opacity:1;fill-rule:evenodd;stroke:none"
   id="path3895"
   inkscape:connector-curvature="0" /></svg>