<?xml version="1.0" encoding="utf-8"?>
<!-- Generator: Adobe Illustrator 27.9.0, SVG Export Plug-In . SVG Version: 6.00 Build 0)  -->
<svg version="1.1" xmlns="http://www.w3.org/2000/svg" xmlns:xlink="http://www.w3.org/1999/xlink" x="0px" y="0px"
	 viewBox="0 0 86.9 130.1" style="enable-background:new 0 0 86.9 130.1;" xml:space="preserve">
<style type="text/css">
	.st0{fill:#FFFFFF;}
	.st1{fill:#006F53;}
	.st2{fill-rule:evenodd;clip-rule:evenodd;fill:#005A9C;}
</style>
<g id="Layer_1">
</g>
<g id="For_Sheets">
	<g>
		<g>
			<path class="st0" d="M11.1,130c-6,0-10.9-4.9-10.9-10.9v-108C0.1,5,5,0.1,11.1,0.1h64.8c6,0,10.9,4.9,10.9,10.9v108
				c0,6-4.9,10.9-10.9,10.9H11.1z"/>
			<path d="M75.9,0.2c5.9,0,10.8,4.9,10.8,10.8v108c0,5.9-4.9,10.8-10.8,10.8H11.1c-5.9,0-10.8-4.9-10.8-10.8v-108
				c0-5.9,4.9-10.8,10.8-10.8H75.9 M75.9,0H11.1C5,0,0,5,0,11.1v108c0,6.1,5,11,11.1,11h64.8c6.1,0,11-5,11-11v-108
				C86.9,5,81.9,0,75.9,0L75.9,0z"/>
		</g>
		<path class="st1" d="M11.1,127.2c-4.5,0-8.1-3.6-8.1-8.1v-108C3,6.6,6.6,3,11.1,3h64.8c4.5,0,8.1,3.6,8.1,8.1v108
			c0,4.5-3.6,8.1-8.1,8.1H11.1z"/>
		<path class="st0" d="M11.1,124.5c-3,0-5.4-2.4-5.4-5.4v-108c0-3,2.4-5.4,5.4-5.4h64.8c3,0,5.4,2.4,5.4,5.4v108
			c0,3-2.4,5.4-5.4,5.4H11.1z"/>
		<g>
			<rect x="24.1" y="109.2" class="st1" width="37.9" height="5.4"/>
		</g>
		<path class="st1" d="M29.1,119.1c0.5,0,0.9-0.4,0.9-0.9c0-0.1,0-0.2-0.1-0.3l-2.2-6l2.2-6c0-0.1,0.1-0.2,0.1-0.3
			c0-0.5-0.4-0.9-0.9-0.9c-0.2,0-0.4,0.1-0.5,0.2l-10.3,7l10.3,7C28.7,119,28.9,119.1,29.1,119.1z"/>
		<path class="st1" d="M57.9,104.7c-0.5,0-0.9,0.4-0.9,0.9c0,0.1,0,0.2,0.1,0.3l2.2,6l-2.2,6c0,0.1-0.1,0.2-0.1,0.3
			c0,0.5,0.4,0.9,0.9,0.9c0.2,0,0.4-0.1,0.5-0.2l10.3-7l-10.3-7C58.2,104.7,58,104.7,57.9,104.7z"/>
		<g>
			<path class="st2" d="M25.3,57.8h36.3c1.9,0,3.5,1.6,3.5,3.5v36.3c0,1.9-1.6,3.5-3.5,3.5H25.3c-1.9,0-3.5-1.6-3.5-3.5V61.3
				C21.9,59.4,23.4,57.8,25.3,57.8"/>
		</g>
		<g>
			<path class="st0" d="M55.1,86.5l-2.7,1.1l-3.5-8.5h-8.7l-0.1-1.5h6.2v-2.6h-6.4l-0.3-4.9c1.2-0.2,2.1-1.3,2.1-2.5
				c0-1.4-1.2-2.6-2.6-2.6s-2.6,1.2-2.6,2.6c0,0.5,0.1,1,0.4,1.4l0.9,12.8h9.3L51,91l5.1-2.1L55.1,86.5z"/>
			<g>
				<path class="st0" d="M46.8,84.3c0,0.1,0,0.2,0,0.3c0,3.7-3,6.7-6.7,6.7c-3.7,0-6.7-3-6.7-6.7c0-2.3,1.1-4.3,2.9-5.5l-0.2-2.8
					c-3.1,1.5-5.3,4.7-5.3,8.4c0,5.1,4.1,9.3,9.3,9.3c3.7,0,6.9-2.2,8.4-5.4L46.8,84.3z"/>
			</g>
		</g>
		<g>
			<path class="st1" d="M12.8,24.9h-1.7v5.9H9.3V18.2H13c2,0,3.3,1.3,3.3,3.4c0,1.5-0.6,2.6-1.8,3.1l1.8,6.2h-1.9L12.8,24.9z
				 M11.1,20v3.2h1.9c1.1,0,1.6-0.6,1.6-1.6c0-1-0.7-1.6-1.6-1.6H11.1z"/>
			<path class="st1" d="M18.5,18.2h5.9V20h-4.1v3.2h2.6v1.7h-2.6v4.2h4.6v1.8h-6.4V18.2z"/>
			<path class="st1" d="M30,22.8c1.4,0.9,3.4,2.1,3.4,4.6c0,2-1.6,3.7-3.5,3.7c-2.2,0-3.6-1.9-3.6-3.9h1.8c0,1.1,0.5,2.2,1.8,2.2
				c1,0,1.8-0.9,1.8-1.9c0-2.7-4.7-2.6-4.7-6.1c0-1.8,1.4-3.3,3.2-3.3c1.8,0,3.2,1.4,3.2,3.3h-1.7c0-0.9-0.7-1.5-1.5-1.5
				c-0.8,0-1.5,0.6-1.5,1.5C28.8,22.1,29.2,22.3,30,22.8z"/>
			<path class="st1" d="M35.6,18.2h5.9V20h-4.1v3.2h2.6v1.7h-2.6v4.2h4.6v1.8h-6.4V18.2z"/>
			<path class="st1" d="M47.7,24.9H46v5.9h-1.8V18.2H48c2,0,3.3,1.3,3.3,3.4c0,1.5-0.6,2.6-1.8,3.1l1.8,6.2h-1.9L47.7,24.9z M46,20
				v3.2h1.9c1.1,0,1.6-0.6,1.6-1.6c0-1-0.7-1.6-1.6-1.6H46z"/>
			<path class="st1" d="M55.6,30.8l-3.2-12.6h1.8l2.1,8.2l2.1-8.2h1.8L57,30.8H55.6z"/>
			<path class="st1" d="M62,18.2h5.9V20h-4.1v3.2h2.6v1.7h-2.6v4.2h4.6v1.8H62V18.2z"/>
			<path class="st1" d="M70.6,30.8V18.2h3.6c0.8,0,3.5,0,3.5,6.3c0,5.7-2.5,6.3-3.3,6.3H70.6z M73.8,20h-1.4v9.1h1.3
				c1.5,0,2.2-0.6,2.2-4.5C75.8,20.2,74.7,20,73.8,20z"/>
		</g>
		<g>
			<path class="st1" d="M16.3,45.1v5.5h-1.8V38h3.8c2,0,3.3,1.4,3.3,3.5c0,2.3-1.2,3.5-3.3,3.5H16.3z M16.3,43.4h1.9
				c1.1,0,1.6-0.7,1.6-1.8c0-1.1-0.7-1.8-1.6-1.8h-1.9V43.4z"/>
			<path class="st1" d="M28.4,47.2h-2.7l-0.8,3.4H23L26.2,38H28l3.1,12.6h-1.8L28.4,47.2z M26.1,45.4H28L27,41.8L26.1,45.4z"/>
			<path class="st1" d="M36.4,44.7h-1.7v5.9h-1.8V38h3.8c2,0,3.3,1.3,3.3,3.4c0,1.5-0.6,2.6-1.8,3.1l1.8,6.2h-1.9L36.4,44.7z
				 M34.7,39.8V43h1.9c1.1,0,1.6-0.6,1.6-1.6c0-1-0.7-1.6-1.6-1.6H34.7z"/>
			<path class="st1" d="M45,44.5l-1.1,2.1v4h-1.8V38h1.8v5l2.9-5h2.1l-2.6,4.4l2.9,8.2h-1.9L45,44.5z"/>
			<path class="st1" d="M51.3,38H53v12.6h-1.8V38z"/>
			<path class="st1" d="M57.6,42.2v8.4h-1.8V38h1.8l3.4,7.6V38h1.8v12.6h-1.4L57.6,42.2z"/>
			<path class="st1" d="M69.3,50.9c-1.1,0-3.9-0.2-3.9-6.5c0-6.3,2.6-6.5,3.8-6.5c1.8,0,3.2,1.3,3.3,3.2h-1.8c0-0.8-0.6-1.4-1.5-1.4
				c-0.6,0-2,0.2-2,4.8c0,4.6,1.5,4.7,2.1,4.7c0.9,0,1.4-0.6,1.4-1.9v-0.8h-1.4v-1.8h3.2v2.6C72.4,50.3,70.4,50.9,69.3,50.9z"/>
		</g>
	</g>
</g>
</svg>
