<?xml version="1.0" encoding="UTF-8" standalone="no"?>
<svg
   xmlns:dc="http://purl.org/dc/elements/1.1/"
   xmlns:cc="http://creativecommons.org/ns#"
   xmlns:rdf="http://www.w3.org/1999/02/22-rdf-syntax-ns#"
   xmlns:svg="http://www.w3.org/2000/svg"
   xmlns="http://www.w3.org/2000/svg"
   xmlns:sodipodi="http://sodipodi.sourceforge.net/DTD/sodipodi-0.dtd"
   xmlns:inkscape="http://www.inkscape.org/namespaces/inkscape"
   width="111.24876"
   height="166.25859"
   viewBox="0 0 313.96874 469.21867"
   version="1.1"
   id="svg2"
   inkscape:version="0.48.2 r9819"
   sodipodi:docname="AJAX1.svg">
  <metadata
     id="metadata62">
    <rdf:RDF>
      <cc:Work
         rdf:about="">
        <dc:format>image/svg+xml</dc:format>
        <dc:type
           rdf:resource="http://purl.org/dc/dcmitype/StillImage" />
        <dc:title />
      </cc:Work>
    </rdf:RDF>
  </metadata>
  <defs
     id="defs60" />
  <sodipodi:namedview
     pagecolor="#ffffff"
     bordercolor="#666666"
     borderopacity="1"
     objecttolerance="10"
     gridtolerance="10"
     guidetolerance="10"
     inkscape:pageopacity="0"
     inkscape:pageshadow="2"
     inkscape:window-width="1280"
     inkscape:window-height="1004"
     id="namedview58"
     showgrid="false"
     fit-margin-top="0"
     fit-margin-left="0"
     fit-margin-right="0"
     fit-margin-bottom="0"
     inkscape:zoom="3.3053845"
     inkscape:cx="52.334771"
     inkscape:cy="83.817645"
     inkscape:window-x="-8"
     inkscape:window-y="-8"
     inkscape:window-maximized="1"
     inkscape:current-layer="svg2" />
  <!-- draw the bicycle -->
  <!-- RIGHT -->
  <!-- LANE -->
  <!-- ONLY -->
  <path
     inkscape:connector-curvature="0"
     d="m 40.493854,467.53297 232.894136,0 c 21.11294,0 38.87745,-17.64949 38.87745,-38.80078 l 0,-388.256968 c 0,-21.138501 -17.76451,-38.7879945 -38.87745,-38.7879945 l -232.894136,0 c -21.125713,0 -38.7879932,17.6750515 -38.7879932,38.7879945 l 0,388.256968 c 0,9.7705 3.8724215,19.31733 10.4861902,26.48065 7.674525,8.32631 17.336378,11.19547 28.301803,12.32013"
     style="fill:#ffffff;fill-opacity:1;fill-rule:nonzero;stroke:#000000;stroke-width:3.38666677;stroke-linecap:butt;stroke-linejoin:miter;stroke-miterlimit:4;stroke-opacity:1;stroke-dasharray:none"
     id="path3365" />
  <path
     inkscape:connector-curvature="0"
     d="m 11.514689,428.73219 0,-388.256968 C 11.527368,24.710805 24.710273,11.521615 40.481083,11.521615 l 232.919687,0 c 15.75803,0 29.04307,13.170026 29.04307,28.953607 l 0,388.256968 c -0.0127,15.7836 -13.27227,28.95362 -29.04307,28.95362 l -232.919687,0 c -15.77081,0 -28.966394,-13.17002 -28.966394,-28.95362"
     style="fill:#bf2519;fill-opacity:1;fill-rule:evenodd;stroke:none"
     id="path3369" />
  <path
     inkscape:connector-curvature="0"
     d="m 21.361863,428.73219 c 0,10.37117 8.748053,19.13201 19.11922,19.13201 l 232.919687,0 c 10.38394,-0.0127 19.20869,-8.71612 19.20869,-19.13201 l 0,-388.256968 c 0,-10.396709 -8.83754,-19.119221 -19.20869,-19.119221 l -232.919687,0 c -10.358379,0 -19.11922,8.760841 -19.11922,19.119221 l 0,388.256968"
     style="fill:#ffffff;fill-opacity:1;fill-rule:evenodd;stroke:none"
     id="path3373" />
  <path
     inkscape:connector-curvature="0"
     d="m 240.26169,338.08204 0,-9.08675 -23.58592,0 0,-21.31743 13.37451,0 0,-8.8503 -13.37451,0 0,-16.34592 21.10015,0 0,-9.07396 -30.39777,0 0,64.67436 32.88354,0 z m -45.04393,0 -14.95926,-41.98306 13.37451,-22.6913 -10.6587,0 -14.73562,25.87357 0,-25.87357 -9.29762,0 0,64.67436 9.29762,0 0,-20.65286 5.89808,-10.88875 11.33607,31.54161 9.74492,0 z m -51.84299,-64.67436 -9.06119,0 0,64.67436 9.06119,0 0,-64.67436 z m -30.28915,46.28999 c 0,5.6808 -3.40594,9.29762 -8.61389,9.29762 l -9.310391,0 0,-20.17999 9.310391,0 c 4.75425,0 8.61389,4.75425 8.61389,10.88237 m -1.13745,-29.49037 c 0,5.89168 -2.72219,9.52125 -7.02912,9.52125 l -9.757711,0 0,-17.24691 9.757711,0 c 4.99707,0 7.02912,2.28128 7.02912,7.72566 m 10.2114,30.1805 c 0,-6.5946 -2.94583,-12.03259 -7.93652,-16.11587 5.21434,-5.44437 6.79909,-8.17295 6.79909,-14.06463 0,-9.98776 -6.12812,-16.79962 -14.74199,-16.79962 l -20.416415,0 0,64.67436 19.055315,0 c 9.52767,0 17.24052,-7.94932 17.24052,-17.69424"
     style="fill:#bf2519;fill-opacity:1;fill-rule:evenodd;stroke:none"
     id="path3377" />
  <path
     inkscape:connector-curvature="0"
     d="m 250.92034,428.74498 0,-9.08675 -23.58592,0 0,-21.31742 13.37451,0 0,-8.85031 -13.37451,0 0,-16.33952 21.08738,0 0,-9.07396 -30.38498,0 0,64.66796 32.88352,0 z m -47.27407,0 0,-64.66796 -9.2976,0 0,38.79439 -17.70063,-38.79439 -9.29762,0 0,64.66796 9.29762,0 0,-43.33776 19.96911,43.33776 7.02912,0 z m -61.7924,-26.77458 -9.29763,0 4.54337,-18.60802 4.75426,18.60802 z m 16.10948,26.77458 -16.10948,-64.66796 -9.07398,0 -16.10309,64.66796 9.29763,0 4.31972,-17.70061 13.8282,0 4.54338,17.70061 9.29762,0 z m -45.68934,0 0,-8.62666 -23.592289,0 0,-56.0413 -9.297623,0 0,64.66796 32.889912,0 z"
     style="fill:#bf2519;fill-opacity:1;fill-rule:evenodd;stroke:none"
     id="path3381" />
  <path
     d="m 193.4649,119.33946 c 0,9.53406 -7.72564,15.89222 -19.05532,15.89222 l -37.66972,0 0,-32.23174 37.66972,0 c 11.32968,0 19.05532,6.37095 19.05532,16.33952 m 23.13861,0 c 0,-14.51195 -7.71287,-27.221887 -19.96911,-34.027353 -7.26556,-4.089677 -13.15724,-5.450778 -23.1386,-5.450778 l -60.34186,0 0,129.329541 23.58592,0 0,-50.82058 36.75594,0 c 9.98136,0 15.87304,-0.91379 23.1386,-4.99707 12.25624,-6.79909 19.96911,-20.41642 19.96911,-34.03376"
     style="fill:#000000;fill-opacity:1;fill-rule:evenodd;stroke:none"
     id="path3385"
     inkscape:connector-curvature="0" />
  <path
     inkscape:connector-curvature="0"
     d="m 156.99204,40.50078 c 57.0254,0 103.52626,46.507259 103.52626,103.53264 0,57.0126 -46.50086,103.51347 -103.52626,103.51347 -57.012599,0 -103.513464,-46.50087 -103.513464,-103.51347 0,-57.025381 46.500865,-103.53264 103.513464,-103.53264 m 67.04509,159.42058 C 252.97796,165.66396 250.5689,114.03183 218.72055,82.183507 186.885,50.335166 135.25287,47.913309 100.98908,76.87331 L 224.03713,199.92136 z M 212.7522,211.19352 C 178.50756,240.13436 126.87544,237.72529 95.027099,205.87695 63.172382,174.03501 60.763313,122.40289 89.723314,88.139096 L 212.7522,211.19352 z"
     style="fill:#bf2519;fill-opacity:1;fill-rule:evenodd;stroke:none"
     id="path3389" />
</svg>
