<?xml version="1.0" encoding="UTF-8" standalone="no"?>
<!-- Generator: Adobe Illustrator 12.0.1, SVG Export Plug-In  -->

<svg
   xmlns:dc="http://purl.org/dc/elements/1.1/"
   xmlns:cc="http://creativecommons.org/ns#"
   xmlns:rdf="http://www.w3.org/1999/02/22-rdf-syntax-ns#"
   xmlns:svg="http://www.w3.org/2000/svg"
   xmlns="http://www.w3.org/2000/svg"
   xmlns:sodipodi="http://sodipodi.sourceforge.net/DTD/sodipodi-0.dtd"
   xmlns:inkscape="http://www.inkscape.org/namespaces/inkscape"
   version="1.1"
   width="187.78125"
   height="280.96875"
   viewBox="-0.999 0 187.78125 280.96875"
   enable-background="new -0.999 0 289 289"
   xml:space="preserve"
   id="svg2"
   inkscape:version="0.48.2 r9819"
   sodipodi:docname="MUTCD R7-8.svg"><metadata
   id="metadata18"><rdf:RDF><cc:Work
       rdf:about=""><dc:format>image/svg+xml</dc:format><dc:type
         rdf:resource="http://purl.org/dc/dcmitype/StillImage" /><dc:title></dc:title></cc:Work></rdf:RDF></metadata><sodipodi:namedview
   pagecolor="#ffffff"
   bordercolor="#666666"
   borderopacity="1"
   objecttolerance="10"
   gridtolerance="10"
   guidetolerance="10"
   inkscape:pageopacity="0"
   inkscape:pageshadow="2"
   inkscape:window-width="1280"
   inkscape:window-height="1004"
   id="namedview16"
   showgrid="false"
   fit-margin-top="0"
   fit-margin-left="0"
   fit-margin-right="0"
   fit-margin-bottom="0"
   inkscape:zoom="1.3365592"
   inkscape:cx="27.994433"
   inkscape:cy="26.164682"
   inkscape:window-x="-8"
   inkscape:window-y="-8"
   inkscape:window-maximized="1"
   inkscape:current-layer="svg2"
   showguides="true"
   inkscape:guide-bbox="true" />
<defs
   id="defs4">
</defs>





<path
   inkscape:connector-curvature="0"
   d="m 186.04775,256.92937 c 0,12.80875 -10.48,23.28875 -23.28875,23.28875 l -139.72875,0 c -12.80875,0 -23.28875,-10.48 -23.28875,-23.28875 l 0,-232.8825 c 0,-12.80875 10.48,-23.28875 23.28875,-23.28875 l 139.72875,0 c 12.80875,0 23.28875,10.48 23.28875,23.28875 l 0,232.8825"
   style="fill:#ffffff;fill-opacity:1;fill-rule:nonzero;stroke:#000000;stroke-width:1.5;stroke-miterlimit:4;stroke-opacity:1;stroke-dasharray:none"
   id="path6739" /><path
   inkscape:connector-curvature="0"
   d="m 174.40364,82.26762 -114.5,0 0,-69.865 102.85625,0 c 6.40375,0 11.64375,5.24 11.64375,11.645 l 0,58.22 z m 0,174.66125 c 0,6.405 -5.24,11.645 -11.64375,11.645 l -139.73,0 c -6.40375,0 -11.64375,-5.24 -11.64375,-11.645 l 0,-170.78 163.0175,0 0,170.78 z m -11.64375,-250.3475 -139.73,0 c -9.60625,0 -17.466252,7.85875 -17.466252,17.46625 l 0,232.88125 c 0,9.6075 7.860002,17.46625 17.466252,17.46625 l 139.73,0 c 9.60625,0 17.46625,-7.85875 17.46625,-17.46625 l 0,-232.88125 c 0,-9.6075 -7.86,-17.46625 -17.46625,-17.46625"
   style="fill:#bf2033;fill-opacity:1;fill-rule:nonzero;stroke:none"
   id="path6763" /><path
   inkscape:connector-curvature="0"
   d="m 69.38387,35.79075 -2.16125,0 0,9.475 2.16125,0 c 2.39125,0 3.265,-1.19625 3.265,-4.46125 0,-3.49625 -1.10375,-5.01375 -3.265,-5.01375 m 0,13.47625 -2.16125,0 0,13.5225 -3.95625,0 0,-31.04625 6.1175,0 c 1.7475,0 3.3575,0.46 4.36875,1.2875 1.7025,1.4725 2.94375,4.37 2.94375,7.77375 0,5.105 -2.94375,8.4625 -7.3125,8.4625"
   style="fill:#bf2033;fill-opacity:1;fill-rule:nonzero;stroke:none"
   id="path6767" /><path
   inkscape:connector-curvature="0"
   d="m 85.57326,42.32175 -1.7475,8.14125 3.3575,0 -1.61,-8.14125 z m 4.23125,20.4675 -1.7475,-8.27875 -5.10625,0 -1.7475,8.27875 -4.0475,0 6.3475,-31.04625 4.00125,0 6.44,31.04625 -4.14,0 z"
   style="fill:#bf2033;fill-opacity:1;fill-rule:nonzero;stroke:none"
   id="path6771" /><path
   inkscape:connector-curvature="0"
   d="m 102.77488,35.79075 -1.93125,0 0,8.4625 2.575,0 c 2.2075,0 2.85125,-0.96625 2.85125,-3.90875 0,-3.49625 -0.78125,-4.55375 -3.495,-4.55375 m 4.2775,11.545 3.1275,15.45375 -4.00125,0 -3.495,-14.48875 -1.84,0 0,14.48875 -3.95625,0 0,-31.04625 6.1175,0 c 4.78375,0 7.3125,2.94375 7.3125,8.6925 0,3.49625 -1.01125,5.47375 -3.265,6.9"
   style="fill:#bf2033;fill-opacity:1;fill-rule:nonzero;stroke:none"
   id="path6775" /><path
   inkscape:connector-curvature="0"
   d="m 123.47188,62.78913 -4.14,-14.7175 -1.5175,3.08125 0,11.63625 -3.955,0 0,-31.04625 3.955,0 0,9.935 4.875,-9.935 4.6,0 -5.15125,10.67125 5.565,20.375 -4.23125,0 z"
   style="fill:#bf2033;fill-opacity:1;fill-rule:nonzero;stroke:none"
   id="path6779" /><path
   inkscape:connector-curvature="0"
   d="m 131.29125,31.74375 3.955,0 0,31.04625 -3.955,0 0,-31.04625 z"
   style="fill:#bf2033;fill-opacity:1;fill-rule:nonzero;stroke:none"
   id="path6781" /><path
   inkscape:connector-curvature="0"
   d="m 150.69986,62.78913 -6.07125,-18.3975 0,18.3975 -3.955,0 0,-31.04625 3.955,0 5.51875,15.45375 0,-15.45375 3.95625,0 0,31.04625 -3.40375,0 z"
   style="fill:#bf2033;fill-opacity:1;fill-rule:nonzero;stroke:none"
   id="path6785" /><path
   inkscape:connector-curvature="0"
   d="m 171.44276,59.75351 c -0.59875,2.1625 -2.71375,3.5875 -5.51875,3.5875 -3.175,0 -5.01375,-1.19625 -6.02625,-4.13875 -0.965,-2.8525 -1.2875,-5.6575 -1.2875,-12.005 0,-6.20875 0.3675,-8.9225 1.42625,-11.86625 1.01125,-2.80625 2.805,-4.00125 5.8875,-4.00125 3.44875,0 5.51875,2.16125 5.97875,5.97875 l -3.91,0 c -0.23,-1.33375 -0.87375,-1.9775 -1.9775,-1.9775 -1.42625,0 -2.39125,1.01125 -2.71375,3.035 -0.41375,2.53 -0.64375,4.6 -0.64375,8.83125 0,4.2775 0.0913,6.3475 0.50625,8.96875 0.3675,2.07 1.24125,3.1275 2.62125,3.1275 1.42625,0 2.2075,-1.2875 2.2075,-3.3575 l 0,-4.13875 -1.885,0 0,-4.04875 5.795,0 0,7.9575 c 0,1.42625 -0.18375,3.0825 -0.46,4.0475"
   style="fill:#bf2033;fill-opacity:1;fill-rule:nonzero;stroke:none"
   id="path6789" /><path
   inkscape:connector-curvature="0"
   d="m 51.94314,142.66176 -6.69375,0 0,14.56 6.69375,0 c 3.795,0 6.21,-2.6225 6.21,-6.69375 0,-4.41625 -2.76,-7.86625 -6.21,-7.86625 m 0.345,-18.90625 -7.03875,0 0,12.42 7.03875,0 c 3.105,0 5.10625,-2.6225 5.10625,-6.9 0,-3.93375 -1.51875,-5.52 -5.10625,-5.52 m 0,40.02125 -13.73125,0 0,-46.57625 14.6975,0 c 6.21,0 10.62625,4.89875 10.62625,12.075 0,4.2775 -1.10375,6.21 -4.89875,10.1425 3.5875,2.9675 5.72625,6.90125 5.72625,11.5925 0,7.03875 -5.52,12.76625 -12.42,12.76625"
   style="fill:#bf2033;fill-opacity:1;fill-rule:nonzero;stroke:none"
   id="path6801" /><path
   inkscape:connector-curvature="0"
   d="m 72.6425,117.2 6.555,0 0,46.57625 -6.555,0 0,-46.57625 z"
   style="fill:#bf2033;fill-opacity:1;fill-rule:nonzero;stroke:none"
   id="path6803" /><path
   inkscape:connector-curvature="0"
   d="m 108.52375,163.77651 -8.1425,-22.70125 -4.2775,7.79625 0,14.905 -6.69375,0 0,-46.57625 6.69375,0 0,18.63 10.62625,-18.63 7.7275,0 -9.66,16.35375 10.765,30.2225 -7.03875,0 z"
   style="fill:#bf2033;fill-opacity:1;fill-rule:nonzero;stroke:none"
   id="path6807" /><path
   inkscape:connector-curvature="0"
   d="m 123.49662,163.77651 0,-46.57625 21.9425,0 0,6.555 -15.25,0 0,11.73 9.66125,0 0,6.4175 -9.66125,0 0,15.31875 17.04375,0 0,6.555 -23.73625,0 z"
   style="fill:#bf2033;fill-opacity:1;fill-rule:nonzero;stroke:none"
   id="path6811" /><path
   inkscape:connector-curvature="0"
   d="m 31.44987,233.64112 0,-46.57625 6.6925,0 0,40.36625 17.04375,0 0,6.21 -23.73625,0 z"
   style="fill:#bf2033;fill-opacity:1;fill-rule:nonzero;stroke:none"
   id="path6815" /><path
   inkscape:connector-curvature="0"
   d="m 72.64325,200.93412 -3.2425,13.45625 6.6925,0 -3.45,-13.45625 z m 8.34875,32.7075 -3.2425,-12.76625 -10.005,0 -3.105,12.76625 -6.69375,0 11.5925,-46.5775 6.555,0 11.5925,46.5775 -6.69375,0 z"
   style="fill:#bf2033;fill-opacity:1;fill-rule:nonzero;stroke:none"
   id="path6819" /><path
   inkscape:connector-curvature="0"
   d="m 115.35461,233.64112 -14.42125,-31.18875 0,31.18875 -6.69375,0 0,-46.57625 6.69375,0 12.765,27.94625 0,-27.94625 6.69375,0 0,46.57625 -5.0375,0 z"
   style="fill:#bf2033;fill-opacity:1;fill-rule:nonzero;stroke:none"
   id="path6823" /><path
   inkscape:connector-curvature="0"
   d="m 130.60337,233.64112 0,-46.57625 21.9425,0 0,6.555 -15.24875,0 0,11.73 9.66,0 0,6.4175 -9.66,0 0,15.31875 17.0425,0 0,6.555 -23.73625,0 z"
   style="fill:#bf2033;fill-opacity:1;fill-rule:nonzero;stroke:none"
   id="path6827" /><path
   inkscape:connector-curvature="0"
   d="m 26.42838,70.52 -9.10875,-27.60125 0,27.60125 -5.93375,0 0,-46.57625 5.93375,0 8.28125,23.185 0,-23.185 5.93375,0 0,46.57625 -5.10625,0 z"
   style="fill:#ffffff;fill-opacity:1;fill-rule:nonzero;stroke:none"
   id="path6793" /><path
   inkscape:connector-curvature="0"
   d="m 45.18862,29.32575 c -5.3825,0 -4.6925,14.56 -4.6925,17.8025 0,3.105 -0.69,18.1475 4.6925,18.1475 5.24375,0 4.62375,-15.0425 4.62375,-18.1475 0,-3.72625 -0.2075,-17.8025 -4.62375,-17.8025 m 0,42.0225 c -11.5925,0 -10.76375,-16.49125 -10.76375,-24.22 0,-8.00375 -0.62125,-23.80625 10.76375,-23.80625 11.45375,0 10.83375,16.00875 10.83375,23.80625 0,7.72875 0.62,24.22 -10.83375,24.22"
   style="fill:#ffffff;fill-opacity:1;fill-rule:nonzero;stroke:none"
   id="path6797" /></svg>