<?xml version="1.0" encoding="UTF-8" standalone="no"?>
<!-- Generator: Adobe Illustrator 12.0.1, SVG Export Plug-In  -->

<svg
   xmlns:dc="http://purl.org/dc/elements/1.1/"
   xmlns:cc="http://creativecommons.org/ns#"
   xmlns:rdf="http://www.w3.org/1999/02/22-rdf-syntax-ns#"
   xmlns:svg="http://www.w3.org/2000/svg"
   xmlns="http://www.w3.org/2000/svg"
   xmlns:sodipodi="http://sodipodi.sourceforge.net/DTD/sodipodi-0.dtd"
   xmlns:inkscape="http://www.inkscape.org/namespaces/inkscape"
   version="1.1"
   width="187.15625"
   height="279.96875"
   viewBox="-0.999 0 187.15625 279.96875"
   enable-background="new -0.999 0 289 289"
   xml:space="preserve"
   id="svg2"
   inkscape:version="0.48.2 r9819"
   sodipodi:docname="MUTCD R8-9.svg"><metadata
   id="metadata18"><rdf:RDF><cc:Work
       rdf:about=""><dc:format>image/svg+xml</dc:format><dc:type
         rdf:resource="http://purl.org/dc/dcmitype/StillImage" /><dc:title></dc:title></cc:Work></rdf:RDF></metadata><sodipodi:namedview
   pagecolor="#ffffff"
   bordercolor="#666666"
   borderopacity="1"
   objecttolerance="10"
   gridtolerance="10"
   guidetolerance="10"
   inkscape:pageopacity="0"
   inkscape:pageshadow="2"
   inkscape:window-width="1280"
   inkscape:window-height="1004"
   id="namedview16"
   showgrid="false"
   fit-margin-top="0"
   fit-margin-left="0"
   fit-margin-right="0"
   fit-margin-bottom="0"
   inkscape:zoom="1.8901801"
   inkscape:cx="90.16829"
   inkscape:cy="107.39067"
   inkscape:window-x="-8"
   inkscape:window-y="-8"
   inkscape:window-maximized="1"
   inkscape:current-layer="svg2"
   showguides="true"
   inkscape:guide-bbox="true" />
<defs
   id="defs4">
</defs>





<path
   inkscape:connector-curvature="0"
   d="m 185.39963,267.61486 c 0,6.38125 -5.22125,11.60375 -11.60375,11.60375 l -162.445,0 c -6.3825,0 -11.60375,-5.2225 -11.60375,-11.60375 l 0,-255.27125 c 0,-6.3825 5.22125,-11.60375 11.60375,-11.60375 l 162.445,0 c 6.3825,0 11.60375,5.22125 11.60375,11.60375 l 0,255.27125"
   style="fill:#ffffff;fill-opacity:1;fill-rule:nonzero;stroke:#000000;stroke-width:1.5;stroke-miterlimit:4;stroke-opacity:1;stroke-dasharray:none"
   id="path7080" /><path
   inkscape:connector-curvature="0"
   d="m 177.66413,267.61486 c 0,2.1275 -1.74,3.8675 -3.8675,3.8675 l -162.44625,0 c -2.1275,0 -3.8675,-1.74 -3.8675,-3.8675 l 0,-255.27125 c 0,-2.1275 1.74,-3.86875 3.8675,-3.86875 l 162.44625,0 c 2.1275,0 3.8675,1.74125 3.8675,3.86875 l 0,255.27125 z m -3.8675,-263.97375 -162.44625,0 c -4.78625,0 -8.7025,3.915 -8.7025,8.7025 l 0,255.27125 c 0,4.78625 3.91625,8.7025 8.7025,8.7025 l 162.44625,0 c 4.78625,0 8.7025,-3.91625 8.7025,-8.7025 l 0,-255.27125 c 0,-4.7875 -3.91625,-8.7025 -8.7025,-8.7025"
   style="fill:#000000;fill-opacity:1;fill-rule:nonzero;stroke:none"
   id="path7104" /><path
   inkscape:connector-curvature="0"
   d="m 46.42201,63.31 c -6.64625,0 -11.51625,-3.95375 -14.095,-9.7975 l 5.84375,-2.1775 c 1.605,3.6675 4.58375,5.73 8.25125,5.73 3.5525,0 5.95875,-2.46375 5.95875,-5.73 0,-5.15625 -5.95875,-5.95875 -11.00125,-7.96375 -2.29125,-0.97375 -7.4475,-3.26625 -7.4475,-9.62625 0,-7.62 5.15625,-10.485 12.08875,-10.485 5.44375,0 9.11,3.15125 11.00125,7.9075 l -5.44375,1.60375 c -0.5725,-1.71875 -3.03625,-3.38 -5.78625,-3.38 -2.9225,0 -6.13125,0.91625 -5.90125,4.46875 0.5725,7.16125 18.735,2.46375 18.735,17.6475 0,7.04625 -5.27125,11.8025 -12.20375,11.8025"
   style="fill:#000000;fill-opacity:1;fill-rule:nonzero;stroke:none"
   id="path7108" /><path
   inkscape:connector-curvature="0"
   d="m 76.67414,29.39088 0,33.23125 -6.13,0 0,-33.23125 -8.82375,0 0,-5.4425 23.8925,0 0,5.4425 -8.93875,0 z"
   style="fill:#000000;fill-opacity:1;fill-rule:nonzero;stroke:none"
   id="path7112" /><path
   inkscape:connector-curvature="0"
   d="m 104.74852,29.50551 c -3.4375,0 -5.0425,1.375 -6.4175,4.755 -0.91625,2.2925 -1.49,5.845 -1.49,9.11 0,4.06875 0.86,8.25125 2.35,10.715 1.2025,2.005 2.8075,2.97875 5.27125,2.97875 2.865,0 4.64,-1.48875 5.95875,-4.87 0.80125,-2.0625 1.48875,-5.84375 1.48875,-8.82375 0,-4.46875 -0.9725,-13.865 -7.16125,-13.865 m 9.0525,29.45 c -2.235,2.9225 -5.27125,4.355 -9.33875,4.355 -5.44375,0 -8.76625,-2.1775 -11.115,-6.93375 -1.605,-3.265 -2.75125,-8.4225 -2.75125,-13.00625 0,-6.41625 1.605,-12.14625 4.24,-15.75625 2.235,-3.03625 5.44375,-4.35375 9.9125,-4.35375 10.715,0 13.2925,11.45875 13.2925,20.11 0,6.07375 -1.54625,12.1475 -4.24,15.585"
   style="fill:#000000;fill-opacity:1;fill-rule:nonzero;stroke:none"
   id="path7116" /><path
   inkscape:connector-curvature="0"
   d="m 141.47476,30.0785 -8.8225,0 0,9.45375 8.8225,0 c 3.0375,0 5.1575,-2.005 5.1575,-4.755 0,-2.2925 -1.77625,-4.69875 -5.1575,-4.69875 m -1.26,15.69875 -7.5625,0 0,16.845 -6.13125,0 0,-38.675 14.6675,0 c 8.995,0 11.63125,7.2775 11.63125,10.83 0,2.97875 -1.83375,11 -12.605,11"
   style="fill:#000000;fill-opacity:1;fill-rule:nonzero;stroke:none"
   id="path7120" /><path
   inkscape:connector-curvature="0"
   d="m 67.78587,105.16925 0,-10.1075 -8.4575,0 0,10.1075 -3.67875,0 0,-23.20625 3.67875,0 0,9.35125 8.4575,0 0,-9.35125 3.64375,0 0,23.20625 -3.64375,0 z"
   style="fill:#000000;fill-opacity:1;fill-rule:nonzero;stroke:none"
   id="path7124" /><path
   inkscape:connector-curvature="0"
   d="m 76.99938,105.16925 0,-23.20625 13.68375,0 0,3.67875 -10.005,0 0,5.6725 6.73875,0 0,3.7475 -6.73875,0 0,6.36 10.72625,0 0,3.7475 -14.405,0 z"
   style="fill:#000000;fill-opacity:1;fill-rule:nonzero;stroke:none"
   id="path7128" /><path
   inkscape:connector-curvature="0"
   d="m 103.91876,85.64126 -4.8825,0 0,5.6725 4.8475,0 c 1.78875,0 3.12875,-1.27125 3.12875,-2.85375 0,-1.5125 -1.30625,-2.81875 -3.09375,-2.81875 m 3.23125,19.5275 -3.7475,-10.1075 -4.36625,0 0,10.1075 -3.67875,0 0,-23.20625 8.42375,0 c 5.32875,0 6.87625,4.26375 6.87625,6.4975 0,2.47625 -1.44375,4.91625 -3.57625,5.87875 l 4.0575,10.83 -3.98875,0"
   style="fill:#000000;fill-opacity:1;fill-rule:nonzero;stroke:none"
   id="path7132" /><path
   inkscape:connector-curvature="0"
   d="m 115.09237,105.16925 0,-23.20625 13.6825,0 0,3.67875 -10.00375,0 0,5.6725 6.7375,0 0,3.7475 -6.7375,0 0,6.36 10.72625,0 0,3.7475 -14.405,0 z"
   style="fill:#000000;fill-opacity:1;fill-rule:nonzero;stroke:none"
   id="path7136" /><path
   inkscape:connector-curvature="0"
   d="m 133.94663,194.36062 -62.805,36.26 -3.02625,-12.1075 c -0.085,-0.3375 -0.2175,-0.67 -0.40125,-0.98625 -1.0675,-1.85125 -3.43375,-2.485 -5.28375,-1.41625 -0.6925,0.4 -1.21625,0.98375 -1.5425,1.65375 l -19.84,41.955 46.25375,3.795 c 0.74375,0.0525 1.51,-0.10875 2.20375,-0.51 1.85,-1.0675 2.48375,-3.43375 1.415,-5.28375 -0.1825,-0.31625 -0.40375,-0.5975 -0.65375,-0.84 l -8.9725,-8.675 62.805,-36.26 -10.1525,-17.585"
   style="fill:#000000;fill-opacity:1;fill-rule:nonzero;stroke:none"
   id="path7140" /><path
   inkscape:connector-curvature="0"
   d="m 69.9689,147.71437 -3.26625,0 -3.64375,-14.88625 -3.61,14.88625 -3.2325,0 -3.4375,-23.20625 3.7475,0 1.7875,12.205 2.95625,-12.205 3.57625,0 2.99125,12.205 1.82125,-12.205 3.71375,0 -3.40375,23.20625 z"
   style="fill:#000000;fill-opacity:1;fill-rule:nonzero;stroke:none"
   id="path7144" /><path
   inkscape:connector-curvature="0"
   d="m 89.0154,147.71437 0,-10.1075 -8.4575,0 0,10.1075 -3.67875,0 0,-23.20625 3.67875,0 0,9.35125 8.4575,0 0,-9.35125 3.64375,0 0,23.20625 -3.64375,0 z"
   style="fill:#000000;fill-opacity:1;fill-rule:nonzero;stroke:none"
   id="path7148" /><path
   inkscape:connector-curvature="0"
   d="m 98.22876,147.71437 0,-23.20625 13.68375,0 0,3.67875 -10.005,0 0,5.6725 6.73875,0 0,3.7475 -6.73875,0 0,6.36 10.72625,0 0,3.7475 -14.405,0 z"
   style="fill:#000000;fill-opacity:1;fill-rule:nonzero;stroke:none"
   id="path7152" /><path
   inkscape:connector-curvature="0"
   d="m 129.13665,147.71437 -8.87,-15.71125 0,15.71125 -3.67875,0 0,-23.20625 3.67875,0 8.4575,14.8175 0,-14.8175 3.64375,0 0,23.20625 -3.23125,0 z"
   style="fill:#000000;fill-opacity:1;fill-rule:nonzero;stroke:none"
   id="path7156" /><path
   inkscape:connector-curvature="0"
   d="m 25.13827,170.73188 0,5.6725 6.73875,0 0,3.7475 -6.73875,0 0,10.1075 -3.67875,0 0,-23.20625 14.405,0 0,3.67875 -10.72625,0 z"
   style="fill:#000000;fill-opacity:1;fill-rule:nonzero;stroke:none"
   id="path7160" /><path
   inkscape:connector-curvature="0"
   d="m 39.33676,190.25975 0,-23.20625 3.67875,0 0,19.8025 10.72625,0 0,3.40375 -14.405,0 z"
   style="fill:#000000;fill-opacity:1;fill-rule:nonzero;stroke:none"
   id="path7164" /><path
   inkscape:connector-curvature="0"
   d="m 64.98402,173.48225 -2.3725,6.5325 4.64125,0 -2.26875,-6.5325 z m 5.845,16.7775 -2.27,-6.4975 -7.25375,0 -2.26875,6.4975 -3.92,0 7.97625,-23.20625 3.67875,0 7.97625,23.20625 -3.91875,0 z"
   style="fill:#000000;fill-opacity:1;fill-rule:nonzero;stroke:none"
   id="path7168" /><path
   inkscape:connector-curvature="0"
   d="m 85.06163,190.67225 c -3.98875,0 -6.91,-2.3725 -8.4575,-5.87875 l 3.50625,-1.30625 c 0.9625,2.2 2.75125,3.4375 4.95125,3.4375 2.13125,0 3.575,-1.47875 3.575,-3.4375 0,-3.095 -3.575,-3.57625 -6.6,-4.77875 -1.37625,-0.585 -4.47,-1.96 -4.47,-5.77625 0,-4.5725 3.09375,-6.29125 7.25375,-6.29125 3.26625,0 5.4675,1.89 6.60125,4.74375 l -3.26625,0.9625 c -0.34375,-1.03125 -1.82125,-2.0275 -3.4725,-2.0275 -1.7525,0 -3.67875,0.55 -3.54,2.68125 0.34375,4.2975 11.24125,1.47875 11.24125,10.58875 0,4.22875 -3.1625,7.0825 -7.3225,7.0825"
   style="fill:#000000;fill-opacity:1;fill-rule:nonzero;stroke:none"
   id="path7172" /><path
   inkscape:connector-curvature="0"
   d="m 108.47426,190.25975 0,-10.1075 -8.4575,0 0,10.1075 -3.67875,0 0,-23.20625 3.67875,0 0,9.35125 8.4575,0 0,-9.35125 3.64375,0 0,23.20625 -3.64375,0 z"
   style="fill:#000000;fill-opacity:1;fill-rule:nonzero;stroke:none"
   id="path7176" /><path
   inkscape:connector-curvature="0"
   d="m 117.68676,167.05375 3.74875,0 0,23.20625 -3.74875,0 0,-23.20625 z"
   style="fill:#000000;fill-opacity:1;fill-rule:nonzero;stroke:none"
   id="path7178" /><path
   inkscape:connector-curvature="0"
   d="m 139.55277,190.25975 -8.87,-15.71125 0,15.71125 -3.67875,0 0,-23.20625 3.67875,0 8.4575,14.8175 0,-14.8175 3.64375,0 0,23.20625 -3.23125,0 z"
   style="fill:#000000;fill-opacity:1;fill-rule:nonzero;stroke:none"
   id="path7182" /><path
   inkscape:connector-curvature="0"
   d="m 156.36463,190.67225 c -3.50625,0 -5.535,-1.30625 -6.945,-4.22875 -0.9625,-2.0625 -1.5475,-4.8825 -1.5475,-7.735 0,-3.7475 1.0325,-7.46125 2.61375,-9.455 1.375,-1.71875 3.335,-2.6125 5.9475,-2.6125 3.575,0 5.7075,1.4775 7.25375,5.1225 l -3.50625,1.40875 c -0.9625,-2.0625 -1.96,-2.78375 -3.7475,-2.78375 -1.85625,0 -3.09375,0.825 -3.91875,2.8525 -0.55125,1.37625 -0.895,3.5075 -0.895,5.4675 0,2.44 0.37875,4.88125 1.17,6.325 0.6875,1.34125 1.7875,1.89125 3.1625,1.89125 2.3725,0 4.05625,-1.47875 4.05625,-3.575 l 0,-0.9975 -4.22875,0 0,-3.64375 7.9075,0 0,4.64125 c 0,4.22875 -3.09375,7.3225 -7.3225,7.3225"
   style="fill:#000000;fill-opacity:1;fill-rule:nonzero;stroke:none"
   id="path7186" /></svg>