<?xml version="1.0" encoding="UTF-8" standalone="no"?>
<!-- Created with Inkscape (http://www.inkscape.org/) -->

<svg
   xmlns:dc="http://purl.org/dc/elements/1.1/"
   xmlns:cc="http://creativecommons.org/ns#"
   xmlns:rdf="http://www.w3.org/1999/02/22-rdf-syntax-ns#"
   xmlns:svg="http://www.w3.org/2000/svg"
   xmlns="http://www.w3.org/2000/svg"
   xmlns:sodipodi="http://sodipodi.sourceforge.net/DTD/sodipodi-0.dtd"
   xmlns:inkscape="http://www.inkscape.org/namespaces/inkscape"
   width="90.6875"
   height="113.1875"
   id="svg2"
   sodipodi:version="0.32"
   inkscape:version="0.48.2 r9819"
   version="1.0"
   sodipodi:docname="AJAX1.svg"
   inkscape:output_extension="org.inkscape.output.svg.inkscape">
  <defs
     id="defs4">
    <inkscape:perspective
       sodipodi:type="inkscape:persp3d"
       inkscape:vp_x="0 : 300.5 : 1"
       inkscape:vp_y="0 : 1000 : 0"
       inkscape:vp_z="601 : 300.5 : 1"
       inkscape:persp3d-origin="300.5 : 200.33333 : 1"
       id="perspective3380" />
    <inkscape:perspective
       id="perspective3990"
       inkscape:persp3d-origin="375 : 250 : 1"
       inkscape:vp_z="750 : 375 : 1"
       inkscape:vp_y="0 : 1000 : 0"
       inkscape:vp_x="0 : 375 : 1"
       sodipodi:type="inkscape:persp3d" />
  </defs>
  <sodipodi:namedview
     id="base"
     pagecolor="#ffffff"
     bordercolor="#666666"
     borderopacity="1.0"
     gridtolerance="10000"
     guidetolerance="10"
     objecttolerance="10"
     inkscape:pageopacity="0.0"
     inkscape:pageshadow="2"
     inkscape:zoom="3.639243"
     inkscape:cx="59.10511"
     inkscape:cy="64.380721"
     inkscape:document-units="px"
     inkscape:current-layer="layer1"
     width="601px"
     height="601px"
     inkscape:window-width="1280"
     inkscape:window-height="1004"
     inkscape:window-x="-8"
     inkscape:window-y="-8"
     showgrid="false"
     fit-margin-top="0"
     fit-margin-left="0"
     fit-margin-right="0"
     fit-margin-bottom="0"
     inkscape:window-maximized="1" />
  <metadata
     id="metadata7">
    <rdf:RDF>
      <cc:Work
         rdf:about="">
        <dc:format>image/svg+xml</dc:format>
        <dc:type
           rdf:resource="http://purl.org/dc/dcmitype/StillImage" />
        <dc:title></dc:title>
      </cc:Work>
    </rdf:RDF>
  </metadata>
  <g
     inkscape:label="Layer 1"
     inkscape:groupmode="layer"
     id="layer1"
     transform="translate(-255.71875,1092.125)">
    <rect
       style="color:#000000;fill:#000000;fill-opacity:1;fill-rule:nonzero;stroke:none;stroke-width:0.8735441;marker:none;visibility:visible;display:inline;overflow:visible"
       id="rect3653"
       width="0"
       height="27.202072"
       x="578.73834"
       y="298.1684"
       rx="249.48199"
       ry="27.202072" />
    <path
       inkscape:connector-curvature="0"
       d="m 261.69175,-1091.7733 78.75,0 c 3.0975,0 5.625,2.5263 5.625,5.625 l 0,101.25005 c 0,3.0975 -2.5275,5.625 -5.625,5.625 l -78.75,0 c -3.09875,0 -5.625,-2.5275 -5.625,-5.625 l 0,-101.25005 c 0,-3.0587 2.565,-5.625 5.625,-5.625"
       style="fill:#ffffff;fill-opacity:1;fill-rule:nonzero;stroke:#000000;stroke-width:0.69999999;stroke-linecap:butt;stroke-linejoin:miter;stroke-miterlimit:4;stroke-opacity:1;stroke-dasharray:none"
       id="path3585" />
    <path
       inkscape:connector-curvature="0"
       style="fill:#bf2519;fill-opacity:1;fill-rule:evenodd;stroke:none"
       d="m 261.71875,-1090.375 c -2.315,0 -4.24625,1.935 -4.25,4.25 l 0,101.21875 c 0.004,2.31875 1.935,4.21 4.25,4.21875 l 78.71875,0 c 2.3175,-0.009 4.21,-1.9 4.21875,-4.21875 l 0,-101.21875 c -0.009,-2.315 -1.90125,-4.2463 -4.21875,-4.25 l -78.71875,0 z m 0.0312,2.3437 78.65625,0 c 1.055,-0.015 1.92375,0.8788 1.90625,1.9375 l 0,101.1563 c 0.0175,1.05625 -0.85125,1.925 -1.90625,1.90625 l -78.65625,0 c -1.05875,0.0188 -1.95375,-0.85 -1.9375,-1.90625 l 0,-101.1563 c -0.015,-1.0587 0.87875,-1.9524 1.9375,-1.9375 z"
       id="path3589" />
    <path
       inkscape:connector-curvature="0"
       d="m 297.39425,-1061.7379 -5.73125,-10.1487 0,10.1487 -2.36625,0 0,-14.9862 2.36625,0 5.46875,9.57 0,-9.57 2.36625,0 0,14.9862 -2.10375,0 z"
       style="fill:#bf2519;fill-opacity:1;fill-rule:evenodd;stroke:none"
       id="path3597" />
    <path
       inkscape:connector-curvature="0"
       d="m 313.32675,-1069.205 c 0,-1.8925 -0.3675,-3.7863 -0.99875,-5.1013 -0.94625,-1.84 -2.26125,-2.6812 -4.15375,-2.6812 -1.735,0 -2.945,0.5263 -3.83875,1.6825 -0.99875,1.42 -1.63,3.6287 -1.63,6.1 0,1.7875 0.42,3.7863 1.05125,5.0487 0.89375,1.8401 2.20875,2.6813 4.31125,2.6813 1.5775,0 2.7875,-0.5263 3.62875,-1.6825 1.05125,-1.315 1.63,-3.6812 1.63,-6.0475 m -2.36625,0 c 0,1.1562 -0.2625,2.63 -0.57875,3.4175 -0.525,1.315 -1.20875,1.8937 -2.31375,1.8937 -0.94625,0 -1.5775,-0.3675 -2.05,-1.1575 -0.57875,-0.9462 -0.89375,-2.5762 -0.89375,-4.1537 0,-1.2625 0.21,-2.63 0.57875,-3.5225 0.525,-1.315 1.26125,-1.8938 2.41875,-1.8413 0.89375,0.054 1.47125,0.3675 1.945,1.1576 0.57875,0.9987 0.89375,2.5237 0.89375,4.2062"
       style="fill:#bf2519;fill-opacity:1;fill-rule:evenodd;stroke:none"
       id="path3601" />
    <path
       inkscape:connector-curvature="0"
       d="m 275.8655,-1045.5038 c 0,-2.5237 -1.57625,-4.2062 -3.9425,-4.2062 l -4.47,0 0,14.9862 2.15625,0 0,-6.5725 2.31375,0 c 2.52375,0 3.9425,-1.4725 3.9425,-4.2075 m -2.1025,0 c 0,1.3675 -0.68375,2.1563 -1.945,2.1563 l -2.20875,0 0,-4.26 2.20875,0 c 1.15625,0 1.945,0.8425 1.945,2.1037"
       style="fill:#bf2519;fill-opacity:1;fill-rule:evenodd;stroke:none"
       id="path3605" />
    <path
       inkscape:connector-curvature="0"
       d="m 286.278,-1034.7238 -3.73375,-14.9862 -2.10375,0 -3.73375,14.9862 2.15625,0 0.99875,-4.1012 3.20875,0 1.05125,4.1012 2.15625,0 z m -3.73375,-6.205 -2.15625,0 1.05125,-4.3125 1.105,4.3125 z"
       style="fill:#bf2519;fill-opacity:1;fill-rule:evenodd;stroke:none"
       id="path3609" />
    <path
       inkscape:connector-curvature="0"
       d="m 296.688,-1034.7238 -2.155,-7.3625 c 1.41875,-0.525 2.155,-1.84 2.155,-3.6274 0,-2.4188 -1.5775,-3.9963 -3.94375,-3.9963 l -4.46875,0 0,14.9862 2.155,0 0,-7.0462 2.05125,0 1.99875,7.0462 2.2075,0 z m -2.1025,-10.9899 c 0,1.2087 -0.68375,1.8924 -1.94625,1.8924 l -2.20875,0 0,-3.7862 2.20875,0 c 1.1575,0 1.94625,0.7362 1.94625,1.8938"
       style="fill:#bf2519;fill-opacity:1;fill-rule:evenodd;stroke:none"
       id="path3613" />
    <path
       inkscape:connector-curvature="0"
       d="m 305.31175,-1034.7238 -2.62875,-7.3087 -1.3675,2.5237 0,4.7851 -2.15625,0 0,-14.9863 2.15625,0 0,5.995 3.4175,-5.995 2.4725,0 -3.10375,5.2575 3.47125,9.7288 -2.26125,0 z"
       style="fill:#bf2519;fill-opacity:1;fill-rule:evenodd;stroke:none"
       id="path3617" />
    <path
       inkscape:connector-curvature="0"
       d="m 310.04375,-1049.71 2.1025,0 0,14.9862 -2.1025,0 0,-14.9862 z"
       style="fill:#bf2519;fill-opacity:1;fill-rule:evenodd;stroke:none"
       id="path3619" />
    <path
       inkscape:connector-curvature="0"
       d="m 322.1905,-1034.7238 -4.6275,-10.0437 0,10.0437 -2.15625,0 0,-14.9862 2.15625,0 4.1025,8.9912 0,-8.9912 2.155,0 0,14.9862 -1.63,0 z"
       style="fill:#bf2519;fill-opacity:1;fill-rule:evenodd;stroke:none"
       id="path3623" />
    <path
       inkscape:connector-curvature="0"
       d="m 334.7055,-1036.564 c -0.57875,1.3137 -1.78875,2.1037 -3.31375,2.1037 -1.7875,0 -3.1025,-0.895 -3.8375,-2.5775 -0.47375,-1.1037 -0.79,-3.2075 -0.79,-5.1525 0,-2.1037 0.15875,-3.6287 0.68375,-5.0487 0.52625,-1.5775 2.05125,-2.7338 3.78625,-2.7338 2.15625,0 3.78625,1.5775 3.89125,3.785 l -2.15625,0 c -0.0525,-0.9987 -0.73625,-1.6825 -1.7875,-1.6825 -0.73625,0 -1.315,0.3688 -1.6825,1.105 -0.42125,0.7363 -0.68375,2.4188 -0.68375,4.2063 0,1.2625 0.105,2.5775 0.315,3.7338 0.31625,1.4724 1.0525,2.2612 2.20875,2.2612 1.105,0 1.63,-0.7362 1.63,-2.3137 l 0,-0.9988 -1.6825,0 0,-2.1037 3.83875,0 0,3.1025 c 0,1.0512 -0.105,1.6825 -0.42,2.3137"
       style="fill:#bf2519;fill-opacity:1;fill-rule:evenodd;stroke:none"
       id="path3627" />
    <path
       inkscape:connector-curvature="0"
       d="m 271.7855,-1012.6802 0,-9.9913 4.6975,0 0,1.4025 -3.26,0 0,2.5238 2.06875,0 0,1.3675 -2.06875,0 0,3.2949 3.64625,0 0,1.4026 -5.08375,0 z"
       style="fill:#bf2519;fill-opacity:1;fill-rule:evenodd;stroke:none"
       id="path3631" />
    <path
       inkscape:connector-curvature="0"
       d="m 282.09175,-1012.6802 -1.4025,-3.4 -1.4025,3.4 -1.5075,0 2.17375,-5.1875 -2.0325,-4.8038 1.5075,0 1.26125,3.015 1.2625,-3.015 1.5075,0 -1.99875,4.8038 2.17375,5.1875 -1.5425,0 z"
       style="fill:#bf2519;fill-opacity:1;fill-rule:evenodd;stroke:none"
       id="path3635" />
    <path
       inkscape:connector-curvature="0"
       d="m 288.963,-1020.007 c -0.14125,-0.9812 -0.52625,-1.4375 -1.1925,-1.4375 -1.15625,0 -1.5775,0.9113 -1.5775,3.5062 0,2.8738 0.49125,4.0313 1.7175,4.0313 0.84125,0 1.0525,-0.7012 1.0525,-1.4375 l 1.43625,0 c -0.035,1.6475 -1.08625,2.8387 -2.48875,2.8387 -2.13875,0 -3.085,-1.7162 -3.085,-5.3975 0,-3.2249 1.01625,-4.9424 2.98,-4.9424 0.80625,0 1.5075,0.3499 1.96375,1.0162 0.385,0.49 0.525,0.9113 0.63,1.8225 l -1.43625,0 z"
       style="fill:#bf2519;fill-opacity:1;fill-rule:evenodd;stroke:none"
       id="path3639" />
    <path
       inkscape:connector-curvature="0"
       d="m 292.398,-1012.6802 0,-9.9913 4.6975,0 0,1.4025 -3.26125,0 0,2.5238 2.06875,0 0,1.3675 -2.06875,0 0,3.2949 3.64625,0 0,1.4026 -5.0825,0 z"
       style="fill:#bf2519;fill-opacity:1;fill-rule:evenodd;stroke:none"
       id="path3643" />
    <path
       inkscape:connector-curvature="0"
       d="m 304.77175,-1019.8665 c 0,-1.6825 -1.05125,-2.805 -2.62875,-2.805 l -2.98,0 0,9.9913 1.4375,0 0,-4.3813 1.5425,0 c 1.6825,0 2.62875,-0.9825 2.62875,-2.805 m -1.4025,0 c 0,0.9113 -0.455,1.4375 -1.29625,1.4375 l -1.4725,0 0,-2.84 1.4725,0 c 0.77125,0 1.29625,0.5612 1.29625,1.4025"
       style="fill:#bf2519;fill-opacity:1;fill-rule:evenodd;stroke:none"
       id="path3647" />
    <path
       inkscape:connector-curvature="0"
       d="m 308.628,-1021.3394 0,8.6588 -1.4375,0 0,-8.6588 -1.8225,0 0,-1.3312 5.0825,0 0,1.3312 -1.8225,0 z"
       style="fill:#bf2519;fill-opacity:1;fill-rule:evenodd;stroke:none"
       id="path3651" />
    <path
       inkscape:connector-curvature="0"
       d="m 322.47425,-1017.6931 c 0,-1.5075 -0.14,-2.4538 -0.56125,-3.435 -0.49,-1.2275 -1.19125,-1.7175 -2.34875,-1.7175 -1.15625,0 -1.8575,0.49 -2.38375,1.6825 -0.42,0.9462 -0.56,1.9625 -0.56,3.47 0,1.5425 0.14,2.4887 0.56,3.47 0.49125,1.1925 1.1925,1.7175 2.38375,1.7175 1.1225,0 1.85875,-0.525 2.34875,-1.7175 0.42125,-0.9463 0.56125,-1.9275 0.56125,-3.47 m -1.3675,0 c 0,1.1562 -0.07,1.7525 -0.315,2.5587 -0.245,0.8413 -0.63125,1.2275 -1.2275,1.2275 -0.63,0 -1.01625,-0.3862 -1.26125,-1.2275 -0.21125,-0.8062 -0.31625,-1.4362 -0.31625,-2.5237 0,-1.1225 0.07,-1.7875 0.31625,-2.5588 0.245,-0.8412 0.63125,-1.2275 1.26125,-1.2275 0.59625,0 0.9825,0.3863 1.2275,1.2625 0.21,0.7363 0.315,1.3675 0.315,2.4888"
       style="fill:#bf2519;fill-opacity:1;fill-rule:evenodd;stroke:none"
       id="path3655" />
    <path
       inkscape:connector-curvature="0"
       d="m 328.99425,-1012.6802 -3.085,-6.6963 0,6.6963 -1.4375,0 0,-9.9913 1.4375,0 2.735,5.995 0,-5.995 1.4375,0 0,9.9913 -1.0875,0 z"
       style="fill:#bf2519;fill-opacity:1;fill-rule:evenodd;stroke:none"
       id="path3659" />
    <path
       inkscape:connector-curvature="0"
       d="m 275.18925,-992.53188 c -1.7525,0 -2.80375,-1.4725 -2.80375,-3.12 l 1.4025,0 c 0,0.84125 0.42,1.7175 1.40125,1.7175 0.7725,0 1.40375,-0.70125 1.40375,-1.5075 0,-0.56 -0.21125,-0.98125 -0.80625,-1.4375 -0.21125,-0.21 0.35,0.17625 -1.68375,-1.19125 -0.80625,-0.56125 -1.22625,-1.3325 -1.22625,-2.20877 0,-1.4375 1.12125,-2.5937 2.55875,-2.5937 1.4025,0 2.48875,1.0862 2.52375,2.5937 l -1.36625,0 c -0.0362,-0.7012 -0.52625,-1.1562 -1.1575,-1.1562 -0.66625,0 -1.1925,0.49 -1.1925,1.1562 0,0.49127 0.21125,0.77127 0.94625,1.19252 1.92875,1.12125 2.77,2.2075 2.77,3.645 0,1.6125 -1.2275,2.91 -2.77,2.91"
       style="fill:#bf2519;fill-opacity:1;fill-rule:evenodd;stroke:none"
       id="path3663" />
    <path
       inkscape:connector-curvature="0"
       d="m 283.813,-992.70688 0,-4.5225 -2.73375,0 0,4.5225 -1.4375,0 0,-9.99122 1.4375,0 0,4.06622 2.73375,0 0,-4.06622 1.4375,0 0,9.99122 -1.4375,0 z"
       style="fill:#bf2519;fill-opacity:1;fill-rule:evenodd;stroke:none"
       id="path3667" />
    <path
       inkscape:connector-curvature="0"
       d="m 293.103,-997.71938 c 0,-1.5075 -0.14,-2.45502 -0.56125,-3.43622 -0.49125,-1.2263 -1.19125,-1.7175 -2.34875,-1.7175 -1.15625,0 -1.8575,0.4912 -2.38375,1.6825 -0.42125,0.9462 -0.56125,1.96372 -0.56125,3.47122 0,1.54125 0.14,2.48875 0.56125,3.47 0.49125,1.1925 1.19125,1.7175 2.38375,1.7175 1.12125,0 1.8575,-0.525 2.34875,-1.7175 0.42125,-0.94625 0.56125,-1.92875 0.56125,-3.47 m -1.3675,0 c 0,1.15625 -0.07,1.75125 -0.31625,2.5575 -0.245,0.8425 -0.63,1.2275 -1.22625,1.2275 -0.63125,0 -1.01625,-0.385 -1.26125,-1.2275 -0.21125,-0.80625 -0.31625,-1.43625 -0.31625,-2.52375 0,-1.12125 0.07,-1.7875 0.31625,-2.55877 0.245,-0.8412 0.63,-1.2262 1.26125,-1.2262 0.59625,0 0.98125,0.385 1.22625,1.2612 0.21125,0.73627 0.31625,1.36752 0.31625,2.49002"
       style="fill:#bf2519;fill-opacity:1;fill-rule:evenodd;stroke:none"
       id="path3671" />
    <path
       inkscape:connector-curvature="0"
       d="m 300.32425,-993.93438 c -0.49125,0.80625 -1.4375,1.4025 -2.38375,1.4025 -0.98125,0 -1.96375,-0.56125 -2.45375,-1.4025 -0.28125,-0.52625 -0.38625,-0.94625 -0.38625,-1.7525 l 0,-7.01122 1.4375,0 0,7.18622 c 0,0.94625 0.56125,1.5775 1.4025,1.5775 0.77125,0 1.3325,-0.63125 1.3325,-1.5775 l 0,-7.18622 1.43625,0 0,7.01122 c 0,0.80625 -0.105,1.22625 -0.385,1.7525"
       style="fill:#bf2519;fill-opacity:1;fill-rule:evenodd;stroke:none"
       id="path3675" />
    <path
       inkscape:connector-curvature="0"
       d="m 302.883,-992.70688 0,-9.99122 1.43625,0 0,8.65872 3.64625,0 0,1.3325 -5.0825,0 z"
       style="fill:#bf2519;fill-opacity:1;fill-rule:evenodd;stroke:none"
       id="path3679" />
    <path
       inkscape:connector-curvature="0"
       d="m 314.97675,-997.71938 c 0,-0.7725 -0.105,-1.64875 -0.24625,-2.38502 -0.175,-1.0162 -0.595,-1.7875 -1.19125,-2.2075 -0.35125,-0.2812 -0.77125,-0.3862 -1.6125,-0.3862 l -2.55875,0 0,9.99122 2.76875,0 c 0.56125,0 1.05125,-0.14125 1.4025,-0.45625 0.98125,-0.77125 1.4375,-2.24375 1.4375,-4.55625 m -1.4025,0.07 c 0,0.77 -0.07,1.47125 -0.14,2.1025 -0.14,0.77125 -0.59625,1.4375 -1.4375,1.4375 l -1.19125,0 0,-7.18622 1.19125,0 c 0.63125,0 1.0525,0.315 1.2975,1.0162 0.175,0.42127 0.28,1.50752 0.28,2.63002"
       style="fill:#bf2519;fill-opacity:1;fill-rule:evenodd;stroke:none"
       id="path3683" />
    <path
       inkscape:connector-curvature="0"
       d="m 316.93925,-992.70688 0,-9.99122 4.6975,0 0,1.4025 -3.26,0 0,2.52372 2.06875,0 0,1.3675 -2.06875,0 0,3.295 3.645,0 0,1.4025 -5.0825,0 z"
       style="fill:#bf2519;fill-opacity:1;fill-rule:evenodd;stroke:none"
       id="path3687" />
    <path
       inkscape:connector-curvature="0"
       d="m 329.313,-992.70688 -1.43625,-4.9075 c 0.94625,-0.35125 1.43625,-1.2275 1.43625,-2.42002 0,-1.6125 -1.05125,-2.6637 -2.62875,-2.6637 l -2.98,0 0,9.99122 1.4375,0 0,-4.6975 1.3675,0 1.3325,4.6975 1.47125,0 z m -1.40125,-7.32752 c 0,0.80752 -0.45625,1.26252 -1.2975,1.26252 l -1.4725,0 0,-2.52372 1.4725,0 c 0.77125,0 1.2975,0.49 1.2975,1.2612"
       style="fill:#bf2519;fill-opacity:1;fill-rule:evenodd;stroke:none"
       id="path3691" />
  </g>
</svg>
