<?xml version="1.0" encoding="UTF-8" standalone="no"?>
<!-- Generator: Adobe Illustrator 12.0.1, SVG Export Plug-In  -->

<svg
   xmlns:dc="http://purl.org/dc/elements/1.1/"
   xmlns:cc="http://creativecommons.org/ns#"
   xmlns:rdf="http://www.w3.org/1999/02/22-rdf-syntax-ns#"
   xmlns:svg="http://www.w3.org/2000/svg"
   xmlns="http://www.w3.org/2000/svg"
   xmlns:sodipodi="http://sodipodi.sourceforge.net/DTD/sodipodi-0.dtd"
   xmlns:inkscape="http://www.inkscape.org/namespaces/inkscape"
   version="1.1"
   width="1090"
   height="820"
   viewBox="-1 0 1090 820"
   enable-background="new -1 0 289 288"
   xml:space="preserve"
   id="svg2"
   inkscape:version="0.48.2 r9819"
   sodipodi:docname="AJAX1.svg"><metadata
   id="metadata38"><rdf:RDF><cc:Work
       rdf:about=""><dc:format>image/svg+xml</dc:format><dc:type
         rdf:resource="http://purl.org/dc/dcmitype/StillImage" /><dc:title></dc:title></cc:Work></rdf:RDF></metadata><sodipodi:namedview
   pagecolor="#ffffff"
   bordercolor="#666666"
   borderopacity="1"
   objecttolerance="10"
   gridtolerance="10"
   guidetolerance="10"
   inkscape:pageopacity="0"
   inkscape:pageshadow="2"
   inkscape:window-width="1280"
   inkscape:window-height="1004"
   id="namedview36"
   showgrid="false"
   fit-margin-top="0"
   fit-margin-left="0"
   fit-margin-right="0"
   fit-margin-bottom="0"
   inkscape:zoom="0.20486111"
   inkscape:cx="452.94713"
   inkscape:cy="440.06173"
   inkscape:window-x="-8"
   inkscape:window-y="-8"
   inkscape:window-maximized="1"
   inkscape:current-layer="svg2" />
<defs
   id="defs4">
</defs>















<path
   inkscape:connector-curvature="0"
   style="opacity:0.98000004;fill:#ffffff;fill-rule:nonzero;stroke:#000000;stroke-width:10;stroke-linecap:butt;stroke-linejoin:miter;stroke-miterlimit:4;stroke-opacity:1;stroke-dasharray:none"
   d="m 1083.9996,679.98729 c 0,74.5575 -60.4426,135 -135.00013,135 l -810,0 c -74.559375,0 -135,-60.4425 -135,-135 l 0,-540 c 0,-74.55938 60.440625,-135 135,-135 l 810,0 c 74.55753,0 135.00013,60.44062 135.00013,135 l 0,540 z"
   id="path11" /><path
   inkscape:connector-curvature="0"
   style="fill:#bc270d;fill-rule:nonzero;stroke:none"
   d="m 1016.4995,679.98729 c 0,37.21875 -30.28128,67.5 -67.50003,67.5 l -810,0 c -37.2205,0 -67.5,-30.28125 -67.5,-67.5 l 0,-540 c 0,-37.2205 30.2795,-67.5 67.5,-67.5 l 810,0 c 37.21875,0 67.50003,30.2795 67.50003,67.5 l 0,540 z m -67.50003,-641.25 -810,0 c -55.830125,0 -101.25,45.41987 -101.25,101.25 l 0,540 c 0,55.83 45.419875,101.25 101.25,101.25 l 810,0 c 55.83003,0 101.25013,-45.42 101.25013,-101.25 l 0,-540 c 0,-55.83013 -45.4201,-101.25 -101.25013,-101.25 z"
   id="path13" /><path
   inkscape:connector-curvature="0"
   style="fill:#bc270d;fill-rule:nonzero;stroke:none"
   d="m 646.00447,364.98729 -55.46375,-120.63125 0,120.63125 -25.84125,0 0,-180 25.84125,0 49.1625,108 0,-108 25.84,0 0,180 -19.53875,0 z"
   id="path15" /><path
   inkscape:connector-curvature="0"
   style="fill:#bc270d;fill-rule:nonzero;stroke:none"
   d="m 498.16197,229.82979 c -4.4525,-15.79 -11.45125,-22.7375 -22.26625,-22.7375 -11.4525,0 -18.45,6.9475 -22.90375,22.10625 -4.4525,13.89375 -5.725,25.89375 -5.725,46.10375 0,19.58 1.90875,30.9475 5.725,45.47375 4.45375,15.15875 11.45125,22.10625 22.90375,22.10625 10.815,0 17.81375,-6.9475 22.26625,-22.10625 4.455,-14.52625 5.72625,-25.2625 5.72625,-46.10375 0,-20.21 -1.90875,-31.58 -5.72625,-44.8425 z m 20.3575,107.3675 c -8.90625,21.475 -22.265,30.94875 -42.62375,30.94875 -21.63125,0 -34.355,-9.47375 -43.2625,-30.94875 -7.63375,-17.6825 -10.1775,-34.73625 -10.1775,-62.525 0,-27.15875 2.54375,-45.47375 10.1775,-62.5275 9.54375,-21.47375 22.26875,-30.31625 43.2625,-30.31625 20.995,0 33.7175,8.8425 42.62375,30.9475 7.63625,17.685 10.18125,34.7375 10.18125,61.89625 0,27.78875 -2.545,45.4725 -10.18125,62.525 z"
   id="path17" /><path
   inkscape:connector-curvature="0"
   style="fill:#bc270d;fill-rule:nonzero;stroke:none"
   d="m 469.54447,508.67354 -12.665,51.79 25.9625,0 -13.2975,-51.79 z m 32.29375,126.31625 -12.665,-49.265 -38.62625,0 -12.03125,49.265 -25.96125,0 44.95875,-180 25.32875,0 44.9575,180 -25.96125,0 z"
   id="path19" /><path
   inkscape:connector-curvature="0"
   style="fill:#bc270d;fill-rule:nonzero;stroke:none"
   d="m 624.23947,502.98729 c -2.53625,-17.6825 -9.51375,-25.8925 -21.565,-25.8925 -20.92875,0 -28.54,16.42 -28.54,63.15625 0,51.79 8.88,72.63125 31.07875,72.63125 15.22,0 19.02625,-12.63125 19.02625,-25.8925 l 26.00375,0 c -0.63375,29.685 -19.66,51.15625 -45.03,51.15625 -38.68875,0 -55.81375,-30.94625 -55.81375,-97.2625 0,-58.10625 18.3925,-89.0525 53.91,-89.0525 14.5875,0 27.27375,6.315 35.5175,18.315 6.9775,8.8425 9.515,16.42125 11.41625,32.84125 l -26.00375,0 z"
   id="path21" /><path
   inkscape:connector-curvature="0"
   style="fill:#bc270d;fill-rule:nonzero;stroke:none"
   d="m 759.98822,634.98979 -31.515,-87.79 -16.3875,30.31375 0,57.47625 -25.84125,0 0,-180.0025 25.84125,0 0,72.0025 40.96875,-72.0025 29.6225,0 -37.18625,63.15875 41.59875,116.84375 -27.10125,0 z"
   id="path23" /><path
   inkscape:connector-curvature="0"
   style="fill:#bc270d;fill-rule:nonzero;stroke:none"
   d="m 347.82322,480.25104 -26.47125,0 0,45.47375 26.47125,0 c 15.12625,0 23.32,-8.21125 23.32,-22.7375 0,-13.89375 -9.455,-22.73625 -23.32,-22.73625 z m 22.06,154.73875 -23.95125,-84.63375 -24.58,0 0,84.63375 -25.8425,0 0,-180.0025 53.57375,0 c 28.36375,0 47.27125,18.9475 47.27125,48 0,21.475 -8.82375,37.26375 -25.84125,43.58 l 25.84125,88.4225 -26.47125,0 z"
   id="path25" /><path
   inkscape:connector-curvature="0"
   style="fill:#bc270d;fill-rule:nonzero;stroke:none"
   d="m 859.94197,551.86229 c -7.7875,-5.04625 -15.34875,-10.1075 -20.17625,-13.50625 -14.51125,-10.215 -22.19875,-23.99875 -22.19875,-39.79 0,-25.89375 20.2975,-46.735 46.3025,-46.735 25.36625,0 45.03,19.5775 45.665,46.735 l -24.73625,0 c -0.635,-12.63125 -9.515,-20.8425 -20.92875,-20.8425 -12.0525,0 -21.56625,8.84375 -21.56625,20.8425 0,8.84375 3.80625,13.89625 17.125,21.475 34.88375,20.21 50.10625,39.79 50.10625,65.68375 0,29.0525 -22.2,52.42125 -50.10625,52.42125 -31.7125,0 -50.74,-26.525 -50.74,-56.21 l 25.37,0 c 0,15.15875 7.61,30.94625 25.37,30.94625 13.95375,0 25.37,-12.63125 25.37,-27.1575 0,-11.28 -4.66125,-20.77875 -24.85625,-33.8625 z"
   id="path27" /><path
   inkscape:connector-curvature="0"
   style="fill:#bc270d;fill-rule:nonzero;stroke:none"
   d="m 237.37197,478.98854 0,156.00125 -25.97,0 0,-156.00125 -32.9375,0 0,-24.00125 91.845,0 0,24.00125 -32.9375,0 z"
   id="path29" /></svg>