<?xml version="1.0" encoding="UTF-8" standalone="no"?>
<!-- Created with Inkscape (http://www.inkscape.org/) -->

<svg
   xmlns:dc="http://purl.org/dc/elements/1.1/"
   xmlns:cc="http://creativecommons.org/ns#"
   xmlns:rdf="http://www.w3.org/1999/02/22-rdf-syntax-ns#"
   xmlns:svg="http://www.w3.org/2000/svg"
   xmlns="http://www.w3.org/2000/svg"
   xmlns:sodipodi="http://sodipodi.sourceforge.net/DTD/sodipodi-0.dtd"
   xmlns:inkscape="http://www.inkscape.org/namespaces/inkscape"
   width="90.6875"
   height="68.1875"
   id="svg2"
   sodipodi:version="0.32"
   inkscape:version="0.48.2 r9819"
   version="1.0"
   sodipodi:docname="MUTCD R8-3cP.svg"
   inkscape:output_extension="org.inkscape.output.svg.inkscape">
  <defs
     id="defs4">
    <inkscape:perspective
       sodipodi:type="inkscape:persp3d"
       inkscape:vp_x="0 : 300.5 : 1"
       inkscape:vp_y="0 : 1000 : 0"
       inkscape:vp_z="601 : 300.5 : 1"
       inkscape:persp3d-origin="300.5 : 200.33333 : 1"
       id="perspective3380" />
    <inkscape:perspective
       id="perspective3990"
       inkscape:persp3d-origin="375 : 250 : 1"
       inkscape:vp_z="750 : 375 : 1"
       inkscape:vp_y="0 : 1000 : 0"
       inkscape:vp_x="0 : 375 : 1"
       sodipodi:type="inkscape:persp3d" />
  </defs>
  <sodipodi:namedview
     id="base"
     pagecolor="#ffffff"
     bordercolor="#666666"
     borderopacity="1.0"
     gridtolerance="10000"
     guidetolerance="10"
     objecttolerance="10"
     inkscape:pageopacity="0.0"
     inkscape:pageshadow="2"
     inkscape:zoom="2.5733334"
     inkscape:cx="4.7938419"
     inkscape:cy="26.300118"
     inkscape:document-units="px"
     inkscape:current-layer="layer1"
     width="601px"
     height="601px"
     inkscape:window-width="1280"
     inkscape:window-height="1004"
     inkscape:window-x="-8"
     inkscape:window-y="-8"
     showgrid="false"
     fit-margin-top="0"
     fit-margin-left="0"
     fit-margin-right="0"
     fit-margin-bottom="0"
     inkscape:window-maximized="1" />
  <metadata
     id="metadata7">
    <rdf:RDF>
      <cc:Work
         rdf:about="">
        <dc:format>image/svg+xml</dc:format>
        <dc:type
           rdf:resource="http://purl.org/dc/dcmitype/StillImage" />
        <dc:title></dc:title>
      </cc:Work>
    </rdf:RDF>
  </metadata>
  <g
     inkscape:label="Layer 1"
     inkscape:groupmode="layer"
     id="layer1"
     transform="translate(-1234.1875,3960.0625)">
    <rect
       style="color:#000000;fill:#000000;fill-opacity:1;fill-rule:nonzero;stroke:none;stroke-width:0.8735441;marker:none;visibility:visible;display:inline;overflow:visible"
       id="rect3653"
       width="0"
       height="27.202072"
       x="578.73834"
       y="298.1684"
       rx="249.48199"
       ry="27.202072" />
    <path
       inkscape:connector-curvature="0"
       d="m 1234.5268,-3897.8531 0,-56.2488 c 0,-3.0987 2.5275,-5.625 5.625,-5.625 l 78.7488,0 c 3.0987,0 5.625,2.5263 5.625,5.625 l 0,56.2488 c 0,3.0987 -2.5263,5.625 -5.625,5.625 l -78.7488,0 c -3.0587,0 -5.625,-2.565 -5.625,-5.625"
       style="fill:#ffffff;fill-opacity:1;fill-rule:nonzero;stroke:#000000;stroke-width:0.69999999;stroke-linecap:butt;stroke-linejoin:miter;stroke-miterlimit:4;stroke-opacity:1;stroke-dasharray:none"
       id="path3355" />
    <path
       inkscape:connector-curvature="0"
       style="fill:#bf2519;fill-opacity:1;fill-rule:evenodd;stroke:none"
       d="m 1240.1563,-3958.3125 c -2.3138,0.01 -4.215,1.9013 -4.2188,4.2188 l 0,56.2187 c 0,2.3138 1.905,4.2475 4.2188,4.25 l 78.7187,0 c 2.3188,-0.01 4.2438,-1.9362 4.25,-4.25 l 0,-56.2187 c -0.01,-2.3175 -1.9312,-4.21 -4.25,-4.2188 l -78.7187,0 z m 0.031,2.3438 78.6562,0 c 1.055,-0.019 1.9575,0.85 1.9375,1.9062 l 0,56.1563 c 0.02,1.0575 -0.8825,1.9525 -1.9375,1.9375 l -78.6562,0 c -1.0588,0.015 -1.9213,-0.88 -1.9063,-1.9375 l 0,-56.1563 c -0.015,-1.0562 0.8488,-1.925 1.9063,-1.9062 z"
       id="path3359" />
    <path
       inkscape:connector-curvature="0"
       d="m 1291.598,-3928.2143 0,-14.9913 -2.3687,0 0,9.5725 -5.4688,-9.5725 -2.3675,0 0,14.9913 2.3675,0 0,-10.1525 5.7325,10.1525 2.105,0 z m -15.8325,-7.47 c 0,1.1575 -0.2637,2.63 -0.5787,3.42 -0.5263,1.3137 -1.2113,1.8925 -2.315,1.8925 -0.9475,0 -1.5788,-0.3675 -2.0513,-1.1575 -0.5775,-0.945 -0.895,-2.5763 -0.895,-4.155 0,-1.2625 0.2112,-2.63 0.5788,-3.5238 0.5275,-1.315 1.2625,-1.8937 2.42,-1.8412 0.895,0.052 1.4737,0.3687 1.9462,1.1575 0.5787,0.9987 0.895,2.5237 0.895,4.2075 m 2.365,0 c 0,-1.8925 -0.3675,-3.7875 -0.9987,-5.1025 -0.9463,-1.8413 -2.2613,-2.6813 -4.155,-2.6813 -1.7363,0 -2.945,0.525 -3.84,1.6825 -0.9988,1.42 -1.6313,3.63 -1.6313,6.1013 0,1.7887 0.4225,3.7875 1.0525,5.05 0.895,1.8412 2.21,2.6925 4.3138,2.6925 1.5775,0 2.7887,-0.535 3.63,-1.6925 1.05,-1.3163 1.6287,-3.6825 1.6287,-6.05"
       style="fill:#bf2519;fill-opacity:1;fill-rule:evenodd;stroke:none"
       id="path3367" />
    <path
       inkscape:connector-curvature="0"
       d="m 1313.138,-3905.7293 0,-2.42 -6.9425,0 0,-4.1025 4.3675,0 0,-2.4188 -4.3675,0 0,-3.6825 6.47,0 0,-2.3662 -8.8362,0 0,14.99 9.3087,0 z m -12.5712,-4.47 0,-2.9988 -5.1025,0 0,2.3663 2.7375,0 0,0.6325 c 0,1.3675 -1.1063,2.3137 -2.6313,2.3137 -0.8937,0 -1.5775,-0.3687 -2.0512,-1.2087 -0.4738,-0.9475 -0.7363,-2.5263 -0.7363,-4.1038 0,-1.2625 0.2113,-2.63 0.5788,-3.525 0.5262,-1.315 1.315,-1.8412 2.525,-1.8412 1.1575,0 1.7875,0.4737 2.42,1.7887 l 2.26,-0.8937 c -0.9975,-2.3663 -2.365,-3.3138 -4.68,-3.3138 -1.6838,0 -2.9463,0.5788 -3.84,1.6838 -1,1.3137 -1.6838,3.6812 -1.6838,6.1012 0,1.8413 0.3675,3.6825 1,4.9963 0.8938,1.8937 2.21,2.745 4.47,2.745 2.7363,0 4.7338,-2.0088 4.7338,-4.7425 m -15.5688,-3.0525 c 0,2 -0.4737,3.6312 -1.3662,4.525 -0.4213,0.42 -0.8938,0.5775 -1.6838,0.5775 l -2.3675,0 0,-10.2038 2.6838,0 c 0.63,0 1.1575,0.2625 1.525,0.6313 0.735,0.7887 1.2087,2.4725 1.2087,4.47 m 2.42,0 c 0,-2.945 -0.8937,-5.3125 -2.4725,-6.6788 -0.7887,-0.6312 -1.3675,-0.7887 -2.8925,-0.7887 l -4.84,0 0,14.99 4.5775,0 0.8413,0 c 0.79,-0.052 1.5774,-0.315 2.1562,-0.8413 1.6825,-1.315 2.63,-3.6825 2.63,-6.6812 m -13.7287,-7.4675 -2.4188,0 0,14.99 2.4188,0 0,-14.99 z m -7.5738,4.2075 c 0,0.6312 -0.3675,1.2625 -0.9462,1.5775 -0.3688,0.2112 -0.6325,0.2637 -1.3688,0.2637 l -2.84,0 0,-3.6825 2.84,0 c 0.79,0 1,0.052 1.3688,0.2625 0.5787,0.3163 0.9462,0.9475 0.9462,1.5788 m 2.6813,10.7825 -2.6288,-6.9963 c 1.3675,-0.6312 2.3138,-2.2087 2.3138,-3.7862 0,-1.5263 -0.9463,-3.1038 -2.2613,-3.735 -0.7362,-0.3675 -1.525,-0.4725 -2.6825,-0.4725 l -4.945,0 0,14.99 2.3675,0 0,-6.5225 2.84,0 2.42,6.5225 2.5763,0 z m -15.095,-4.155 c 0,1.1575 -0.6313,1.735 -1.84,1.735 l -3.5775,0 0,-4.1025 2.9987,0 c 0.525,0 0.6838,0 0.9988,0.105 0.8412,0.3162 1.42,1.2637 1.42,2.2625 m -0.3151,-6.9438 c 0,0.6838 -0.3162,1.315 -0.8424,1.7363 -0.4188,0.3162 -0.7363,0.4212 -1.42,0.4212 l -2.84,0 0,-3.6825 3.4725,0 c 1.0512,0 1.6299,0.525 1.6299,1.525 m 2.7351,6.8913 c 0,-1.6313 -0.8938,-2.8938 -2.4725,-3.63 1.42,-0.7888 2.1037,-1.8925 2.1037,-3.3663 0,-2.1562 -1.7875,-3.7862 -4.155,-3.7862 l -5.6812,0 0,14.99 5.6812,0 c 0.6838,0 1.5775,-0.1575 2.1038,-0.3675 1.4212,-0.5788 2.42,-2.21 2.42,-3.84"
       style="fill:#bf2519;fill-opacity:1;fill-rule:evenodd;stroke:none"
       id="path3371" />
  </g>
</svg>
