<?xml version="1.0" encoding="UTF-8" standalone="no"?>
<!-- Generator: Adobe Illustrator 12.0.1, SVG Export Plug-In  -->

<svg
   xmlns:dc="http://purl.org/dc/elements/1.1/"
   xmlns:cc="http://creativecommons.org/ns#"
   xmlns:rdf="http://www.w3.org/1999/02/22-rdf-syntax-ns#"
   xmlns:svg="http://www.w3.org/2000/svg"
   xmlns="http://www.w3.org/2000/svg"
   xmlns:sodipodi="http://sodipodi.sourceforge.net/DTD/sodipodi-0.dtd"
   xmlns:inkscape="http://www.inkscape.org/namespaces/inkscape"
   version="1.1"
   width="1090"
   height="820"
   viewBox="-1 0 1090 820"
   enable-background="new -1 0 289 288"
   xml:space="preserve"
   id="svg2"
   inkscape:version="0.48.2 r9819"
   sodipodi:docname="AJAX2.svg"><metadata
   id="metadata38"><rdf:RDF><cc:Work
       rdf:about=""><dc:format>image/svg+xml</dc:format><dc:type
         rdf:resource="http://purl.org/dc/dcmitype/StillImage" /><dc:title></dc:title></cc:Work></rdf:RDF></metadata><sodipodi:namedview
   pagecolor="#ffffff"
   bordercolor="#666666"
   borderopacity="1"
   objecttolerance="10"
   gridtolerance="10"
   guidetolerance="10"
   inkscape:pageopacity="0"
   inkscape:pageshadow="2"
   inkscape:window-width="1280"
   inkscape:window-height="1004"
   id="namedview36"
   showgrid="false"
   fit-margin-top="0"
   fit-margin-left="0"
   fit-margin-right="0"
   fit-margin-bottom="0"
   inkscape:zoom="0.20486111"
   inkscape:cx="457.79088"
   inkscape:cy="444.90548"
   inkscape:window-x="-8"
   inkscape:window-y="-8"
   inkscape:window-maximized="1"
   inkscape:current-layer="svg2" />
<defs
   id="defs4">
</defs>















<path
   inkscape:connector-curvature="0"
   style="fill:#ffffff;fill-rule:nonzero;stroke:#000000;stroke-width:10;stroke-linecap:butt;stroke-linejoin:miter;stroke-miterlimit:4;stroke-opacity:1;stroke-dasharray:none"
   d="m 1084.0001,680 c 0,74.5575 -60.4426,135 -135.0001,135 l -810,0 C 64.440625,815 4,754.5575 4,680 L 4,140 C 4,65.440625 64.440625,5 139,5 l 810,0 c 74.5575,0 135.0001,60.440625 135.0001,135 l 0,540 z"
   id="path11" /><path
   inkscape:connector-curvature="0"
   style="fill:#bc270d;fill-rule:nonzero;stroke:none"
   d="m 1016.5,680 c 0,37.21875 -30.28125,67.5 -67.5,67.5 l -810,0 c -37.2205,0 -67.5,-30.28125 -67.5,-67.5 l 0,-540 c 0,-37.2205 30.2795,-67.5 67.5,-67.5 l 810,0 c 37.21875,0 67.5,30.2795 67.5,67.5 l 0,540 z M 949,38.75 l -810,0 C 83.169875,38.75 37.75,84.169875 37.75,140 l 0,540 c 0,55.83 45.419875,101.25 101.25,101.25 l 810,0 c 55.83,0 101.2501,-45.42 101.2501,-101.25 l 0,-540 C 1050.2501,84.169875 1004.83,38.75 949,38.75 z"
   id="path13" /><path
   inkscape:connector-curvature="0"
   style="fill:#bc270d;fill-rule:nonzero;stroke:none"
   d="m 712.40125,498.9325 c -3.30875,-9.4725 -8.98,-13.735 -17.49,-13.735 l -16.07,0 0,97.105 16.07,0 c 11.345,0 17.49,-9.00125 19.38125,-19.42125 0.945,-8.52875 1.89,-18.00125 1.89,-28.42125 0,-15.15875 -1.41625,-29.84375 -3.78125,-35.5275 z m 3.31,96.1575 c -4.72625,4.2625 -11.345,6.16 -18.90875,6.16 l -37.34375,0 0,-135 34.5075,0 c 11.345,0 17.01875,1.42125 21.745,5.2075 8.035,5.68625 13.70875,16.10625 16.0725,29.84375 1.89125,9.94875 3.3075,21.79 3.3075,32.2125 0,31.26125 -6.145,51.15625 -19.38,61.57625 z"
   id="path15" /><path
   inkscape:connector-curvature="0"
   style="fill:#bc270d;fill-rule:nonzero;stroke:none"
   d="m 762.09375,601.25 0,-135 63.65625,0 0,18.9475 -44.17875,0 0,34.10375 28.0275,0 0,18.475 -28.0275,0 0,44.52625 49.40375,0 0,18.9475 -68.88125,0 z"
   id="path17" /><path
   inkscape:connector-curvature="0"
   style="fill:#bc270d;fill-rule:nonzero;stroke:none"
   d="m 313.2775,601.25 0,-61.10625 -36.8725,0 0,61.10625 -19.38,0 0,-135 19.38,0 0,54.94625 36.8725,0 0,-54.94625 19.38,0 0,135 -19.38,0 z"
   id="path19" /><path
   inkscape:connector-curvature="0"
   style="fill:#bc270d;fill-rule:nonzero;stroke:none"
   d="m 571.67375,601.25 0,-135 19.48,0 0,116.9975 49.40375,0 0,18.0025 -68.88375,0 z"
   id="path21" /><path
   inkscape:connector-curvature="0"
   style="fill:#bc270d;fill-rule:nonzero;stroke:none"
   d="m 416.44,499.88 c -3.34,-11.84 -8.59,-17.0525 -16.7025,-17.0525 -8.5875,0 -13.83625,5.2125 -17.17625,16.57875 -3.34,10.42 -4.29375,19.4225 -4.29375,34.57875 0,14.685 1.43125,23.21 4.29375,34.10625 3.34,11.36875 8.58875,16.57625 17.17625,16.57625 8.1125,0 13.3625,-5.2075 16.7025,-16.57625 3.34,-10.89625 4.2925,-18.94875 4.2925,-34.58 0,-15.15625 -1.43125,-23.685 -4.2925,-33.63125 z m 15.2675,80.525 c -6.68,16.10625 -16.7,23.21125 -31.97,23.21125 -16.2225,0 -25.76375,-7.105 -32.44625,-23.21125 -5.725,-13.26125 -7.6325,-26.0525 -7.6325,-46.89375 0,-20.36875 1.9075,-34.105 7.6325,-46.895 C 374.45,470.5125 383.99375,463.88 399.7375,463.88 c 15.7475,0 25.29,6.6325 31.97,23.21 5.7275,13.26375 7.635,26.0525 7.635,46.42125 0,20.84125 -1.9075,34.10625 -7.635,46.89375 z"
   id="path23" /><path
   inkscape:connector-curvature="0"
   style="fill:#bc270d;fill-rule:nonzero;stroke:none"
   d="m 893.1625,485.195 -19.85625,0 0,34.10375 19.85625,0 c 11.345,0 17.49,-6.15625 17.49,-17.05 0,-10.4225 -7.0925,-17.05375 -17.49,-17.05375 z m 16.5425,116.055 -17.96375,-63.47625 -18.435,0 0,63.47625 -19.38,0 0,-135.0025 40.18125,0 c 21.27,0 35.45125,14.21125 35.45125,36.00125 0,16.10625 -6.61625,27.94625 -19.38,32.6825 l 19.38,66.31875 -19.85375,0 z"
   id="path25" /><path
   inkscape:connector-curvature="0"
   style="fill:#bc270d;fill-rule:nonzero;stroke:none"
   d="M 196.8825,538.90375 C 191.04125,535.12 185.37,531.32375 181.75,528.775 170.86625,521.11375 165.1,510.77375 165.1,498.93125 c 0,-19.42 15.2225,-35.05125 34.72625,-35.05125 19.02625,0 33.77375,14.685 34.24875,35.05125 l -18.55125,0 c -0.47625,-9.47375 -7.135,-15.63 -15.6975,-15.63 -9.0375,0 -16.17375,6.63 -16.17375,15.63 0,6.6325 2.855,10.42125 12.84375,16.105 26.16125,15.15875 37.57875,29.84375 37.57875,49.2625 0,21.79 -16.64875,39.3175 -37.57875,39.3175 -23.78375,0 -38.055,-19.8925 -38.055,-42.15875 l 19.0275,0 c 0,11.37 5.7075,23.21 19.0275,23.21 10.465,0 19.0275,-9.4725 19.0275,-20.36875 0,-8.45875 -3.49625,-15.5825 -18.64125,-25.395 z"
   id="path27" /><path
   inkscape:connector-curvature="0"
   style="fill:#bc270d;fill-rule:nonzero;stroke:none"
   d="m 536.77375,584.6675 c -6.61625,10.89625 -19.38,18.94875 -32.14375,18.94875 -13.23625,0 -26.47125,-7.57875 -33.08875,-18.94875 -3.78375,-7.10375 -5.2,-12.7875 -5.2,-23.68125 l 0,-94.73875 19.37875,0 0,97.1075 c 0,12.7875 7.565,21.3125 18.91,21.3125 10.4,0 17.96375,-8.525 17.96375,-21.3125 l 0,-97.1075 19.38,0 0,94.73875 c 0,10.89375 -1.41625,16.5775 -5.2,23.68125 z"
   id="path29" /><path
   inkscape:connector-curvature="0"
   style="fill:#bc270d;fill-rule:nonzero;stroke:none"
   d="m 352.3375,254.75125 c -1.9025,-13.265 -7.13375,-19.4225 -16.17125,-19.4225 -15.69875,0 -21.4075,12.315 -21.4075,47.36875 0,38.8425 6.66,54.47375 23.31,54.47375 11.41625,0 14.26875,-9.47375 14.26875,-19.42125 l 19.505,0 c -0.47625,22.26375 -14.7475,38.36875 -33.77375,38.36875 -29.01625,0 -41.86,-23.21125 -41.86,-72.94875 0,-43.57875 13.79375,-66.79 40.43125,-66.79 10.94125,0 20.455,4.73875 26.64,13.73875 5.23125,6.63 7.13375,12.31625 8.5625,24.6325 l -19.505,0 z"
   id="path31" /><path
   inkscape:connector-curvature="0"
   style="fill:#bc270d;fill-rule:nonzero;stroke:none"
   d="m 119.2905,353.75 0,-135 63.657,0 0,18.9475 -44.18,0 0,34.105 28.0275,0 0,18.475 -28.0275,0 0,44.525 49.405,0 0,18.9475 -68.882,0 z"
   id="path33" /><path
   inkscape:connector-curvature="0"
   style="fill:#bc270d;fill-rule:nonzero;stroke:none"
   d="m 398.8425,353.75 0,-135 63.65625,0 0,18.9475 -44.17875,0 0,34.105 28.0275,0 0,18.475 -28.0275,0 0,44.525 49.405,0 0,18.9475 -68.8825,0 z"
   id="path35" /><path
   inkscape:connector-curvature="0"
   style="fill:#bc270d;fill-rule:nonzero;stroke:none"
   d="m 954.05625,353.75 -41.5975,-90.47375 0,90.47375 -19.38125,0 0,-135 19.38125,0 36.87125,81 0,-81 19.38,0 0,135 -14.65375,0 z"
   id="path37" /><path
   inkscape:connector-curvature="0"
   style="fill:#bc270d;fill-rule:nonzero;stroke:none"
   d="m 843.175,252.38125 c -3.34,-11.84125 -8.58875,-17.0525 -16.70125,-17.0525 -8.5875,0 -13.8375,5.21125 -17.1775,16.5775 -3.34,10.42125 -4.2925,19.4225 -4.2925,34.58 0,14.68625 1.43,23.21125 4.2925,34.10625 3.34,11.3675 8.59,16.5775 17.1775,16.5775 8.1125,0 13.36125,-5.21 16.70125,-16.5775 3.34,-10.895 4.29375,-18.94875 4.29375,-34.58 0,-15.1575 -1.4325,-23.685 -4.29375,-33.63125 z m 15.2675,80.52625 c -6.68,16.10625 -16.7,23.21125 -31.96875,23.21125 -16.22375,0 -25.765,-7.105 -32.4475,-23.21125 -5.725,-13.2625 -7.6325,-26.0525 -7.6325,-46.895 0,-20.36875 1.9075,-34.10625 7.6325,-46.895 7.15875,-16.105 16.7025,-22.7375 32.4475,-22.7375 15.74625,0 25.28875,6.6325 31.96875,23.21125 5.7275,13.26375 7.635,26.0525 7.635,46.42125 0,20.8425 -1.9075,34.105 -7.635,46.895 z"
   id="path39" /><path
   inkscape:connector-curvature="0"
   style="fill:#bc270d;fill-rule:nonzero;stroke:none"
   d="m 529.91125,237.69625 -19.85375,0 0,38.37 19.85375,0 c 11.345,0 17.49,-7.10625 17.49,-19.4225 0,-11.3675 -7.0925,-18.9475 -17.49,-18.9475 z m 0.94375,56.84375 -20.7975,0 0,59.21 -19.3825,0 0,-135 40.18,0 c 21.2725,0 35.45375,15.1575 35.45375,37.89375 0,24.6325 -12.7625,37.89625 -35.45375,37.89625 z"
   id="path41" /><path
   inkscape:connector-curvature="0"
   style="fill:#bc270d;fill-rule:nonzero;stroke:none"
   d="m 626.69,236.74875 0,117.00125 -19.47625,0 0,-117.00125 -24.70375,0 0,-17.99875 68.88375,0 0,17.99875 -24.70375,0 z"
   id="path43" /><path
   inkscape:connector-curvature="0"
   style="fill:#bc270d;fill-rule:nonzero;stroke:none"
   d="m 259.0125,353.75125 -19.085,-45.94875 -19.085,45.94875 -20.51875,0 29.5825,-70.10625 -27.675,-64.895 20.51875,0 17.1775,40.73625 17.1775,-40.73625 20.51625,0 -27.19625,64.895 29.5825,70.10625 -20.995,0 z"
   id="path45" /></svg>