<?xml version="1.0" encoding="UTF-8" standalone="no"?>
<!-- Generator: Adobe Illustrator 12.0.1, SVG Export Plug-In  -->

<svg
   xmlns:dc="http://purl.org/dc/elements/1.1/"
   xmlns:cc="http://creativecommons.org/ns#"
   xmlns:rdf="http://www.w3.org/1999/02/22-rdf-syntax-ns#"
   xmlns:svg="http://www.w3.org/2000/svg"
   xmlns="http://www.w3.org/2000/svg"
   xmlns:sodipodi="http://sodipodi.sourceforge.net/DTD/sodipodi-0.dtd"
   xmlns:inkscape="http://www.inkscape.org/namespaces/inkscape"
   version="1.1"
   width="1090"
   height="820"
   viewBox="-1 0 1090 820"
   enable-background="new -1 0 289 288"
   xml:space="preserve"
   id="svg2"
   inkscape:version="0.48.2 r9819"
   sodipodi:docname="AJAX3.svg"><metadata
   id="metadata38"><rdf:RDF><cc:Work
       rdf:about=""><dc:format>image/svg+xml</dc:format><dc:type
         rdf:resource="http://purl.org/dc/dcmitype/StillImage" /><dc:title></dc:title></cc:Work></rdf:RDF></metadata><sodipodi:namedview
   pagecolor="#ffffff"
   bordercolor="#666666"
   borderopacity="1"
   objecttolerance="10"
   gridtolerance="10"
   guidetolerance="10"
   inkscape:pageopacity="0"
   inkscape:pageshadow="2"
   inkscape:window-width="1280"
   inkscape:window-height="1004"
   id="namedview36"
   showgrid="false"
   fit-margin-top="0"
   fit-margin-left="0"
   fit-margin-right="0"
   fit-margin-bottom="0"
   inkscape:zoom="0.20486111"
   inkscape:cx="516.16588"
   inkscape:cy="600.90548"
   inkscape:window-x="-8"
   inkscape:window-y="-8"
   inkscape:window-maximized="1"
   inkscape:current-layer="svg2" />
<defs
   id="defs4">
</defs>















<path
   inkscape:connector-curvature="0"
   style="fill:#ffffff;fill-rule:nonzero;stroke:#000000;stroke-width:10;stroke-linecap:butt;stroke-linejoin:miter;stroke-miterlimit:4;stroke-opacity:1;stroke-dasharray:none"
   d="m 1083.9926,680.00953 c 0,74.5575 -60.4425,135 -135.00002,135 l -810,0 c -74.558121,0 -134.999996,-60.4425 -134.999996,-135 l 0,-540 c 0,-74.55812 60.441875,-135 134.999996,-135 l 810,0 c 74.55752,0 135.00002,60.44188 135.00002,135 l 0,540 z"
   id="path11" /><path
   inkscape:connector-curvature="0"
   style="fill:#bc270d;fill-rule:nonzero;stroke:none"
   d="m 1016.4926,680.00953 c 0,37.21875 -30.28127,67.5 -67.50002,67.5 l -810,0 c -37.2205,0 -67.499996,-30.28125 -67.499996,-67.5 l 0,-540 c 0,-37.2205 30.279496,-67.5 67.499996,-67.5 l 810,0 c 37.21875,0 67.50002,30.2795 67.50002,67.5 l 0,540 z m -67.50002,-641.25 -810,0 c -55.830121,0 -101.249996,45.41988 -101.249996,101.25 l 0,540 c 0,55.83 45.419875,101.25 101.249996,101.25 l 810,0 c 55.83002,0 101.25002,-45.42 101.25002,-101.25 l 0,-540 c 0,-55.83012 -45.42,-101.25 -101.25002,-101.25 z"
   id="path13" /><path
   inkscape:connector-curvature="0"
   style="fill:#bc270d;fill-rule:nonzero;stroke:none"
   d="m 459.80008,180.27203 -9.4975,38.8425 19.47125,0 -9.97375,-38.8425 z m 24.22,94.7375 -9.4975,-36.9475 -28.96875,0 -9.02375,36.9475 -19.47125,0 33.71875,-135 18.99625,0 33.71875,135 -19.4725,0 z"
   id="path15" /><path
   inkscape:connector-curvature="0"
   style="fill:#bc270d;fill-rule:nonzero;stroke:none"
   d="m 575.33633,172.69328 c -3.30875,-9.47375 -8.98,-13.7375 -17.49,-13.7375 l -16.07125,0 0,97.10625 16.07125,0 c 11.345,0 17.49,-9 19.38125,-19.42125 0.945,-8.5275 1.89125,-18 1.89125,-28.42125 0,-15.1575 -1.41875,-29.8425 -3.7825,-35.52625 z m 3.31,96.1575 c -4.72875,4.26375 -11.34625,6.15875 -18.90875,6.15875 l -37.345,0 0,-135 34.5075,0 c 11.345,0 17.0175,1.42125 21.74625,5.21 8.035,5.68375 13.7075,16.105 16.07125,29.8425 1.89125,9.9475 3.30875,21.78875 3.30875,32.21 0,31.26375 -6.145,51.15875 -19.38,61.57875 z"
   id="path17" /><path
   inkscape:connector-curvature="0"
   style="fill:#bc270d;fill-rule:nonzero;stroke:none"
   d="m 848.08883,258.43078 c -5.23125,11.84125 -16.1725,18.9475 -29.9675,18.9475 -16.17375,0 -28.065,-8.05375 -34.725,-23.21125 -4.28,-9.9475 -7.13625,-28.895 -7.13625,-46.42125 0,-18.9475 1.42875,-32.68375 6.185,-45.47375 4.75625,-14.21125 18.5525,-24.63125 34.24875,-24.63125 19.50375,0 34.25,14.21 35.2,34.105 l -19.50125,0 c -0.47625,-9 -6.66,-15.1575 -16.175,-15.1575 -6.65875,0 -11.89,3.315 -15.22,9.9475 -3.805,6.63125 -6.185,21.78875 -6.185,37.895 0,11.3675 0.9525,23.21 2.85375,33.63125 2.855,13.2625 9.51375,20.36875 19.97875,20.36875 9.99,0 14.7475,-6.63125 14.7475,-20.8425 l 0,-9 -15.2225,0 0,-18.9475 34.72375,0 0,27.9475 c 0,9.47375 -0.95,15.1575 -3.805,20.8425 z"
   id="path19" /><path
   inkscape:connector-curvature="0"
   style="fill:#bc270d;fill-rule:nonzero;stroke:none"
   d="m 625.02633,275.00953 0,-135 18.9,0 0,135 -18.9,0 z"
   id="path21" /><path
   inkscape:connector-curvature="0"
   style="fill:#bc270d;fill-rule:nonzero;stroke:none"
   d="m 236.09133,275.00953 0,-135 19.4775,0 0,117.00125 49.40625,0 0,17.99875 -68.88375,0 z"
   id="path23" /><path
   inkscape:connector-curvature="0"
   style="fill:#bc270d;fill-rule:nonzero;stroke:none"
   d="m 734.60633,275.00953 -41.5975,-90.47375 0,90.47375 -19.3825,0 0,-135 19.3825,0 36.87,81 0,-81 19.38125,0 0,135 -14.65375,0 z"
   id="path25" /><path
   inkscape:connector-curvature="0"
   style="fill:#bc270d;fill-rule:nonzero;stroke:none"
   d="m 377.95508,173.64078 c -3.34,-11.8425 -8.5875,-17.0525 -16.69875,-17.0525 -8.59,0 -13.8375,5.21 -17.1775,16.57875 -3.34125,10.42125 -4.295,19.42125 -4.295,34.57875 0,14.685 1.43125,23.21 4.295,34.105 3.34,11.36875 8.5875,16.58 17.1775,16.58 8.11125,0 13.35875,-5.21125 16.69875,-16.58 3.34,-10.895 4.29375,-18.9475 4.29375,-34.5775 0,-15.15875 -1.43,-23.685 -4.29375,-33.6325 z m 15.27,80.52625 c -6.68,16.105 -16.7025,23.21125 -31.96875,23.21125 -16.22375,0 -25.7675,-7.10625 -32.44625,-23.21125 -5.72625,-13.2625 -7.63625,-26.0525 -7.63625,-46.89375 0,-20.36875 1.91,-34.10625 7.63625,-46.89625 7.1575,-16.105 16.69875,-22.7375 32.44625,-22.7375 15.745,0 25.28875,6.6325 31.96875,23.21125 5.725,13.26375 7.6325,26.05375 7.6325,46.4225 0,20.84125 -1.9075,34.105 -7.6325,46.89375 z"
   id="path27" /><path
   inkscape:connector-curvature="0"
   style="fill:#bc270d;fill-rule:nonzero;stroke:none"
   d="m 663.50133,511.25953 0,-135 63.6575,0 0,18.94625 -44.18,0 0,34.105 28.02875,0 0,18.475 -28.02875,0 0,44.5275 49.40625,0 0,18.94625 -68.88375,0 z"
   id="path29" /><path
   inkscape:connector-curvature="0"
   style="fill:#bc270d;fill-rule:nonzero;stroke:none"
   d="m 619.14633,511.25953 -41.5975,-90.47375 0,90.47375 -19.38125,0 0,-135 19.38125,0 36.87125,81 0,-81 19.38,0 0,135 -14.65375,0 z"
   id="path31" /><path
   inkscape:connector-curvature="0"
   style="fill:#bc270d;fill-rule:nonzero;stroke:none"
   d="m 508.26383,409.89078 c -3.34,-11.8425 -8.58875,-17.0525 -16.7,-17.0525 -8.58625,0 -13.8375,5.21 -17.1775,16.57875 -3.34,10.42 -4.29375,19.42125 -4.29375,34.57875 0,14.68625 1.43125,23.21125 4.29375,34.10625 3.34,11.3675 8.59125,16.5775 17.1775,16.5775 8.11125,0 13.36,-5.21 16.7,-16.5775 3.34,-10.895 4.295,-18.94875 4.295,-34.58 0,-15.15625 -1.43125,-23.685 -4.295,-33.63125 z m 15.26875,80.52625 c -6.68,16.105 -16.70125,23.21125 -31.96875,23.21125 -16.2225,0 -25.76625,-7.10625 -32.44625,-23.21125 -5.725,-13.2625 -7.635,-26.0525 -7.635,-46.895 0,-20.36875 1.91,-34.105 7.635,-46.895 7.1575,-16.10375 16.7,-22.7375 32.44625,-22.7375 15.74625,0 25.28875,6.63375 31.96875,23.21125 5.72625,13.26375 7.63375,26.0525 7.63375,46.42125 0,20.8425 -1.9075,34.10625 -7.63375,46.895 z"
   id="path33" /><path
   inkscape:connector-curvature="0"
   style="fill:#bc270d;fill-rule:nonzero;stroke:none"
   d="m 355.60008,511.25953 0,-20.76875 51.065,-95.34875 -45.765,0 0,-18.88125 70.33375,0 0,12.2725 -55.4,104.31625 55.4,0 0,18.41 -75.63375,0 z"
   id="path35" /><path
   inkscape:connector-curvature="0"
   style="fill:#bc270d;fill-rule:evenodd;stroke:none"
   d="m 762.98508,547.17828 c -5.71375,-3.89 -13.55,-2.4025 -17.435,3.31875 -2.595,3.8175 -2.12875,7.77625 -0.9325,12.47875 l 11.505,38.285 -424.26,0 11.505,-38.285 c 1.19625,-4.7025 1.66375,-8.66125 -0.9325,-12.47875 -3.88375,-5.72125 -11.72125,-7.20875 -17.435,-3.31875 l -129.7575,87.90375 129.7575,87.7625 c 5.71375,3.885 13.55125,2.40125 17.435,-3.32 2.71,-3.99625 2.11,-7.83 0.665,-13.01125 l -11.26375,-37.7525 424.3125,0 -11.2625,37.7525 c -1.445,5.18125 -2.04625,9.015 0.66375,13.01125 3.885,5.72125 11.72125,7.205 17.435,3.32 l 129.7575,-87.7625 -129.7575,-87.90375 z"
   id="path37" /></svg>