<?xml version="1.0" encoding="UTF-8" standalone="no"?>
<!-- Generator: Adobe Illustrator 12.0.1, SVG Export Plug-In  -->

<svg
   xmlns:dc="http://purl.org/dc/elements/1.1/"
   xmlns:cc="http://creativecommons.org/ns#"
   xmlns:rdf="http://www.w3.org/1999/02/22-rdf-syntax-ns#"
   xmlns:svg="http://www.w3.org/2000/svg"
   xmlns="http://www.w3.org/2000/svg"
   xmlns:sodipodi="http://sodipodi.sourceforge.net/DTD/sodipodi-0.dtd"
   xmlns:inkscape="http://www.inkscape.org/namespaces/inkscape"
   version="1.1"
   width="1090"
   height="820"
   viewBox="-1 0 1090 820"
   enable-background="new -1 0 289 288"
   xml:space="preserve"
   id="svg2"
   inkscape:version="0.48.2 r9819"
   sodipodi:docname="AJAX1.svg"><metadata
   id="metadata38"><rdf:RDF><cc:Work
       rdf:about=""><dc:format>image/svg+xml</dc:format><dc:type
         rdf:resource="http://purl.org/dc/dcmitype/StillImage" /></cc:Work></rdf:RDF></metadata><sodipodi:namedview
   pagecolor="#ffffff"
   bordercolor="#666666"
   borderopacity="1"
   objecttolerance="10"
   gridtolerance="10"
   guidetolerance="10"
   inkscape:pageopacity="0"
   inkscape:pageshadow="2"
   inkscape:window-width="1280"
   inkscape:window-height="1004"
   id="namedview36"
   showgrid="false"
   fit-margin-top="0"
   fit-margin-left="0"
   fit-margin-right="0"
   fit-margin-bottom="0"
   inkscape:zoom="0.20486111"
   inkscape:cx="423.69713"
   inkscape:cy="732.96798"
   inkscape:window-x="-8"
   inkscape:window-y="-8"
   inkscape:window-maximized="1"
   inkscape:current-layer="svg2" />
<defs
   id="defs4">
</defs>















<path
   inkscape:connector-curvature="0"
   style="fill:#ffffff;fill-rule:nonzero;stroke:#000000;stroke-width:10;stroke-linecap:butt;stroke-linejoin:miter;stroke-miterlimit:4;stroke-opacity:1;stroke-dasharray:none"
   d="m 1084,680 c 0,74.5575 -60.4425,135 -135,135 l -810,0 C 64.441875,815 4,754.5575 4,680 L 4,140 C 4,65.4419 64.441875,5 139,5 l 810,0 c 74.5575,0 135,60.4419 135,135 l 0,540 z"
   id="path11" /><path
   inkscape:connector-curvature="0"
   style="fill:#bc270d;fill-rule:nonzero;stroke:none"
   d="M 139,781.25 C 83.169875,781.25 37.75,735.83 37.75,680 l 0,-540 C 37.75,84.1699 83.169875,38.75 139,38.75 l 810,0 c 55.83,0 101.25,45.4199 101.25,101.25 l 0,540 c 0,55.83 -45.42,101.25 -101.25,101.25 l -810,0 z"
   id="path13" /><path
   inkscape:connector-curvature="0"
   style="fill:#ffffff;fill-rule:nonzero;stroke:none"
   d="m 139,747.5 c -37.2205,0 -67.5,-30.2812 -67.5,-67.5 l 0,-540 c 0,-37.2205 30.2795,-67.5 67.5,-67.5 l 810,0 c 37.21875,0 67.5,30.2795 67.5,67.5 l 0,540 c 0,37.2188 -30.28125,67.5 -67.5,67.5 l -810,0 z"
   id="path15" /><path
   inkscape:connector-curvature="0"
   style="fill:#bc270d;fill-rule:nonzero;stroke:none"
   d="m 480.535,388.4475 -7.5775,35.5263 14.68125,0 -7.10375,-35.5263 z m 18.46875,89.0525 -7.57625,-36.0012 -22.26,0 -7.57625,36.0012 -17.52375,0 27.46875,-135 17.5225,0 27.9425,135 -17.9975,0 z"
   id="path17" /><path
   inkscape:connector-curvature="0"
   style="fill:#bc270d;fill-rule:nonzero;stroke:none"
   d="m 770.885,388.4475 -7.57625,35.5263 14.68,0 -7.10375,-35.5263 z m 18.47125,89.0525 -7.5775,-36.0012 -22.25875,0 -7.5775,36.0012 -17.5225,0 27.46875,-135 17.52125,0 27.9425,135 -17.99625,0 z"
   id="path19" /><path
   inkscape:connector-curvature="0"
   style="fill:#bc270d;fill-rule:nonzero;stroke:none"
   d="m 410.32875,379.4475 c -1.4175,-14.6837 -4.25,-19.4212 -11.33375,-19.4212 l -10.8625,0 0,99.9475 10.8625,0 c 6.13875,0 9.44375,-4.2638 11.33375,-14.2113 0.47125,-4.7362 1.41625,-19.895 1.41625,-31.7362 0,-9.9475 -0.945,-25.105 -1.41625,-34.5788 z m 16.055,-4.2637 c 1.545,10.9362 2.8325,23.2112 2.8325,34.58 0,31.735 -4.25,52.1037 -12.2775,61.1037 -3.7775,4.2638 -10.3875,6.6325 -17.94375,6.6325 l -27.86125,0 0,-135 27.86125,0 c 9.44375,0 16.055,3.315 20.305,9.9463 3.305,5.2112 5.88375,14.2437 7.08375,22.7375 z"
   id="path21" /><path
   inkscape:connector-curvature="0"
   style="fill:#bc270d;fill-rule:nonzero;stroke:none"
   d="M 953.22875,379.4475 C 951.8125,364.7638 948.98,360.0263 941.895,360.0263 l -10.86125,0 0,99.9475 10.86125,0 c 6.14125,0 9.44625,-4.2638 11.33375,-14.2113 0.47375,-4.7362 1.41875,-19.895 1.41875,-31.7362 0,-9.9475 -0.945,-25.105 -1.41875,-34.5788 z m 16.0575,-4.2637 c 1.545,10.9362 2.83125,23.2112 2.83125,34.58 0,31.735 -4.25,52.1037 -12.2775,61.1037 -3.7775,4.2638 -10.38875,6.6325 -17.945,6.6325 l -27.86125,0 0,-135 27.86125,0 c 9.44625,0 16.0575,3.315 20.30625,9.9463 3.305,5.2112 5.88375,14.2437 7.085,22.7375 z"
   id="path23" /><path
   inkscape:connector-curvature="0"
   style="fill:#bc270d;fill-rule:nonzero;stroke:none"
   d="m 326.795,477.5 -26.44375,-80.0525 0,80.0525 -17.00125,0 0,-135 17.00125,0 24.08125,67.2638 0,-67.2638 17.00125,0 0,135 -14.63875,0 z"
   id="path25" /><path
   inkscape:connector-curvature="0"
   style="fill:#bc270d;fill-rule:nonzero;stroke:none"
   d="m 869.69875,477.5 -26.44625,-80.0525 0,80.0525 -16.99875,0 0,-135 16.99875,0 24.0825,67.2638 0,-67.2638 17.00375,0 0,135 -14.64,0 z"
   id="path27" /><path
   inkscape:connector-curvature="0"
   style="fill:#bc270d;fill-rule:nonzero;stroke:none"
   d="m 167.32749,419.2375 c 3.89625,8.3638 6.63875,19.895 6.63875,29.3675 0,9.475 -4.2675,19.4213 -10.905,25.1063 -4.2675,3.7887 -10.31375,6.1587 -17.42625,6.1587 -18.96537,0 -28.80425,-12.3175 -29.75262,-36.0012 l 17.54262,0 c 0,5.21 0.47375,7.105 1.4225,9.9475 1.42125,5.2112 5.5725,8.5262 10.7875,8.5262 6.6375,0 10.7875,-5.2112 10.7875,-13.7375 0,-11.8425 -4.15,-21.79 -14.58125,-34.1037 -6.1625,-7.1063 -10.31374,-12.3163 -11.73499,-14.2125 -7.58701,-9 -10.90601,-18.4738 -10.90601,-27.9463 0,-18.4737 11.26225,-31.7375 27.38225,-31.7375 16.59625,0 25.4875,10.4213 27.38375,31.7375 l -17.54375,0 c -0.47375,-10.4212 -3.20125,-14.685 -9.365,-14.685 -6.6375,0 -10.31375,5.685 -10.31375,14.685 0,6.1575 2.25375,10.895 9.36625,18.4725 14.6975,16.58 17.19125,19.78 21.2175,28.4225 z"
   id="path29" /><path
   inkscape:connector-curvature="0"
   style="fill:#bc270d;fill-rule:nonzero;stroke:none"
   d="m 660.28125,419.2375 c 3.8975,8.3638 6.63875,19.895 6.63875,29.3675 0,9.475 -4.2675,19.4213 -10.90625,25.1063 -4.2675,3.7887 -10.3125,6.1587 -17.42625,6.1587 -18.965,0 -28.80375,-12.3175 -29.75125,-36.0012 l 17.54125,0 c 0,5.21 0.47375,7.105 1.42375,9.9475 1.42125,5.2112 5.57125,8.5262 10.78625,8.5262 6.6375,0 10.78875,-5.2112 10.78875,-13.7375 0,-11.8425 -4.15125,-21.79 -14.58,-34.1037 -6.165,-7.1063 -10.315,-12.3163 -11.73625,-14.2125 -7.5875,-9 -10.90625,-18.4738 -10.90625,-27.9463 0,-18.4737 11.2625,-31.7375 27.38375,-31.7375 16.59375,0 25.485,10.4213 27.3825,31.7375 l -17.54375,0 c -0.47375,-10.4212 -3.20125,-14.685 -9.365,-14.685 -6.63875,0 -10.3125,5.685 -10.3125,14.685 0,6.1575 2.2525,10.895 9.365,18.4725 14.6975,16.58 17.1925,19.78 21.2175,28.4225 z"
   id="path31" /><path
   inkscape:connector-curvature="0"
   style="fill:#bc270d;fill-rule:nonzero;stroke:none"
   d="m 249.39125,465.6575 c -5.205,9.9475 -12.77625,14.2125 -24.60625,14.2125 -13.72,0 -22.12125,-6.1587 -26.8525,-18.4762 -1.42,-4.2625 -2.36625,-8.9988 -2.36625,-17.0513 l 0,-101.8425 17.03375,0 0,104.21 c 0,9.9488 4.1425,15.6325 12.185,15.6325 7.57125,0 11.83,-5.6837 11.83,-15.6325 l 0,-104.21 17.035,0 0,101.8425 c 0,9.4738 -1.42,16.105 -4.25875,21.315 z"
   id="path33" /><path
   inkscape:connector-curvature="0"
   style="fill:#bc270d;fill-rule:nonzero;stroke:none"
   d="m 570.33,416.3938 0,61.1062 -17.52375,0 0,-61.1062 L 525.1,342.5 l 18.4725,0 18.2325,47.3688 17.75875,-47.3688 18.4725,0 -27.70625,73.8938 z"
   id="path35" /><path
   inkscape:connector-curvature="0"
   style="fill:#bc270d;fill-rule:nonzero;stroke:none"
   d="m 533.59,250.0138 c -2.9525,9.793 -11.90375,16.1067 -23.805,16.1067 -13.80625,0 -22.37625,-5.685 -26.66125,-18.0017 -3.80875,-11.3688 -5.7125,-29.8425 -5.7125,-51.6325 0,-12.315 1.4275,-30.315 3.3325,-40.735 3.8075,-20.8425 11.90125,-28.8958 28.08875,-28.8958 15.23625,0 25.23375,9.4733 26.66125,26.052 l -17.615,0 c -0.47625,-5.6837 -3.80875,-8.5262 -8.57,-8.5262 -6.18875,0 -9.52125,4.2637 -11.42625,13.2637 -2.38125,10.895 -2.85625,20.8425 -2.85625,38.8413 0,18.9487 0.475,27.0012 2.85625,38.37 1.905,8.9987 5.2375,13.7362 10.95,13.7362 6.18875,0 9.04625,-4.7375 9.04625,-16.58 l 17.615,0 c 0,10.4213 -0.47625,13.265 -1.90375,18.0013 z"
   id="path37" /><path
   inkscape:connector-curvature="0"
   style="fill:#bc270d;fill-rule:nonzero;stroke:none"
   d="m 325.3325,263.75 0,-135.0012 49.45125,0 0,17.5275 -32.495,0 0,34.5787 21.6625,0 0,18 -21.6625,0 0,47.3688 34.37875,0 0,17.5262 -51.335,0 z"
   id="path39" /><path
   inkscape:connector-curvature="0"
   style="fill:#bc270d;fill-rule:nonzero;stroke:none"
   d="m 566.275,263.75 0,-135.0012 49.44875,0 0,17.5275 -32.495,0 0,34.5787 21.6625,0 0,18 -21.6625,0 0,47.3688 34.38,0 0,17.5262 -51.33375,0 z"
   id="path41" /><path
   inkscape:connector-curvature="0"
   style="fill:#bc270d;fill-rule:nonzero;stroke:none"
   d="m 669.8475,146.2763 -9.24875,0 0,41.21 9.24875,0 c 10.42875,0 14.22375,-5.2113 14.22375,-19.4213 0,-15.1575 -4.74125,-21.7887 -14.22375,-21.7887 z m 0,58.7362 -9.24875,0 0,58.7375 -17.07,0 0,-135 26.31875,0 c 7.585,0 14.6975,1.895 18.965,5.6838 7.585,6.1587 12.8,18.9475 12.8,33.6312 0,22.2638 -12.8,36.9475 -31.765,36.9475 z"
   id="path43" /><path
   inkscape:connector-curvature="0"
   style="fill:#bc270d;fill-rule:nonzero;stroke:none"
   d="m 745.0425,146.2763 0,117.4737 -17.03375,0 0,-117.4737 -16.6775,0 0,-17.5263 51.33625,0 0,17.5263 -17.625,0 z"
   id="path45" /><path
   inkscape:connector-curvature="0"
   style="fill:#bc270d;fill-rule:nonzero;stroke:none"
   d="m 437.87375,263.75 -13.26625,-40.7375 -13.265,40.7375 -18.47625,0 22.74,-69.1587 -21.7925,-65.8425 18.95,0 11.84375,37.4225 12.31875,-37.4225 18.47625,0 -21.7925,65.8425 22.74,69.1587 -18.47625,0 z"
   id="path47" /><path
   inkscape:connector-curvature="0"
   style="fill:#bc270d;fill-rule:nonzero;stroke:none"
   d="m 650.00875,602.1963 -7.57625,35.5262 14.68,0 -7.10375,-35.5262 z M 668.48,691.25 l -7.57875,-36.0012 -22.2575,0 -7.57875,36.0012 -17.52125,0 27.4675,-135.0012 17.5225,0 27.94125,135.0012 -17.995,0 z"
   id="path49" /><path
   inkscape:connector-curvature="0"
   style="fill:#bc270d;fill-rule:nonzero;stroke:none"
   d="M 579.80375,593.1975 C 578.385,578.5138 575.5525,573.7763 568.47,573.7763 l -10.86125,0 0,99.9475 10.86125,0 c 6.1375,0 9.44375,-4.2638 11.33375,-14.2113 0.47125,-4.7375 1.415,-19.8937 1.415,-31.7362 0,-9.9463 -0.94375,-25.105 -1.415,-34.5788 z m 16.05375,-4.265 c 1.54625,10.9375 2.835,23.2113 2.835,34.5813 0,31.735 -4.25,52.1037 -12.2775,61.105 -3.78,4.2625 -10.39125,6.6312 -17.945,6.6312 l -27.8625,0 0,-135 27.8625,0 c 9.44375,0 16.055,3.315 20.305,9.9463 3.30625,5.2112 5.88125,14.2437 7.0825,22.7362 z"
   id="path51" /><path
   inkscape:connector-curvature="0"
   style="fill:#bc270d;fill-rule:nonzero;stroke:none"
   d="m 292.69,691.25 0,-63 -24.08375,0 0,63 -17,0 0,-135 17,0 0,54.4725 24.08375,0 0,-54.4725 17,0 0,135 -17,0 z"
   id="path53" /><path
   inkscape:connector-curvature="0"
   style="fill:#bc270d;fill-rule:nonzero;stroke:none"
   d="m 493.3575,691.25 0,-135 17.55,0 0,135 -17.55,0 z"
   id="path55" /><path
   inkscape:connector-curvature="0"
   style="fill:#bc270d;fill-rule:nonzero;stroke:none"
   d="m 423.125,691.25 0,-135 16.95375,0 0,119.3675 34.37875,0 0,15.6325 -51.3325,0 z"
   id="path57" /><path
   inkscape:connector-curvature="0"
   style="fill:#bc270d;fill-rule:nonzero;stroke:none"
   d="m 366.41625,571.8813 c -15.6325,0 -13.5025,42.1575 -13.5025,51.6325 0,8.9987 -2.13,52.5775 13.5025,52.5775 15.15875,0 13.02875,-43.5788 13.02875,-52.5775 0,-10.895 -0.23875,-51.6325 -13.02875,-51.6325 z m 0,121.7387 c -33.6325,0 -31.03,-47.8437 -31.03,-70.1062 0,-23.2113 -2.13,-69.16 31.03,-69.16 33.15875,0 31.03,46.4225 31.03,69.16 0,22.2625 2.12875,70.1062 -31.03,70.1062 z"
   id="path59" /><path
   inkscape:connector-curvature="0"
   style="fill:#bc270d;fill-rule:nonzero;stroke:none"
   d="m 829.755,632.9863 c 3.8975,8.3637 6.63875,19.895 6.63875,29.37 0,9.4725 -4.26625,19.4199 -10.905,25.105 -4.2675,3.7887 -10.31375,6.1587 -17.42625,6.1587 -18.965,0 -28.80375,-12.3162 -29.7525,-36 l 17.5425,0 c 0,5.21 0.47375,7.1038 1.4225,9.9463 1.4225,5.21 5.5725,8.525 10.7875,8.525 6.63875,0 10.78875,-5.21 10.78875,-13.735 0,-11.8438 -4.15,-21.79 -14.58125,-34.1063 -6.16375,-7.105 -10.31375,-12.315 -11.73625,-14.21 C 784.9475,605.0388 781.63,595.5663 781.63,586.0913 c 0,-18.4738 11.26125,-31.7363 27.38125,-31.7363 16.595,0 25.48625,10.42 27.3825,31.7363 l -17.5425,0 c -0.475,-10.42 -3.2025,-14.6838 -9.365,-14.6838 -6.63875,0 -10.31375,5.685 -10.31375,14.6838 0,6.16 2.2525,10.8962 9.365,18.4737 14.69875,16.58 17.1925,19.7788 21.2175,28.4213 z"
   id="path61" /><path
   inkscape:connector-curvature="0"
   style="fill:#bc270d;fill-rule:nonzero;stroke:none"
   d="m 739.805,630.1438 0,61.1062 -17.525,0 0,-61.1062 -27.705,-73.8938 18.47125,0 18.2325,47.3688 17.75875,-47.3688 18.4725,0 -27.705,73.8938 z"
   id="path63" /></svg>