<?xml version="1.0" encoding="UTF-8" standalone="no"?>
<!-- Created with Inkscape (http://www.inkscape.org/) -->

<svg
   xmlns:dc="http://purl.org/dc/elements/1.1/"
   xmlns:cc="http://creativecommons.org/ns#"
   xmlns:rdf="http://www.w3.org/1999/02/22-rdf-syntax-ns#"
   xmlns:svg="http://www.w3.org/2000/svg"
   xmlns="http://www.w3.org/2000/svg"
   xmlns:sodipodi="http://sodipodi.sourceforge.net/DTD/sodipodi-0.dtd"
   xmlns:inkscape="http://www.inkscape.org/namespaces/inkscape"
   width="90.6875"
   height="113.21875"
   id="svg2"
   sodipodi:version="0.32"
   inkscape:version="0.48.2 r9819"
   version="1.0"
   sodipodi:docname="MUTCD R8-3dP.svg"
   inkscape:output_extension="org.inkscape.output.svg.inkscape">
  <defs
     id="defs4">
    <inkscape:perspective
       sodipodi:type="inkscape:persp3d"
       inkscape:vp_x="0 : 300.5 : 1"
       inkscape:vp_y="0 : 1000 : 0"
       inkscape:vp_z="601 : 300.5 : 1"
       inkscape:persp3d-origin="300.5 : 200.33333 : 1"
       id="perspective3380" />
    <inkscape:perspective
       id="perspective3990"
       inkscape:persp3d-origin="375 : 250 : 1"
       inkscape:vp_z="750 : 375 : 1"
       inkscape:vp_y="0 : 1000 : 0"
       inkscape:vp_x="0 : 375 : 1"
       sodipodi:type="inkscape:persp3d" />
  </defs>
  <sodipodi:namedview
     id="base"
     pagecolor="#ffffff"
     bordercolor="#666666"
     borderopacity="1.0"
     gridtolerance="10000"
     guidetolerance="10"
     objecttolerance="10"
     inkscape:pageopacity="0.0"
     inkscape:pageshadow="2"
     inkscape:zoom="5.1466668"
     inkscape:cx="28.930841"
     inkscape:cy="80.019344"
     inkscape:document-units="px"
     inkscape:current-layer="layer1"
     width="601px"
     height="601px"
     inkscape:window-width="1280"
     inkscape:window-height="1004"
     inkscape:window-x="-8"
     inkscape:window-y="-8"
     showgrid="false"
     fit-margin-top="0"
     fit-margin-left="0"
     fit-margin-right="0"
     fit-margin-bottom="0"
     inkscape:window-maximized="1" />
  <metadata
     id="metadata7">
    <rdf:RDF>
      <cc:Work
         rdf:about="">
        <dc:format>image/svg+xml</dc:format>
        <dc:type
           rdf:resource="http://purl.org/dc/dcmitype/StillImage" />
        <dc:title></dc:title>
      </cc:Work>
    </rdf:RDF>
  </metadata>
  <g
     inkscape:label="Layer 1"
     inkscape:groupmode="layer"
     id="layer1"
     transform="translate(-1537.3125,4539.75)">
    <rect
       style="color:#000000;fill:#000000;fill-opacity:1;fill-rule:nonzero;stroke:none;stroke-width:0.8735441;marker:none;visibility:visible;display:inline;overflow:visible"
       id="rect3653"
       width="0"
       height="27.202072"
       x="578.73834"
       y="298.1684"
       rx="249.48199"
       ry="27.202072" />
    <path
       inkscape:connector-curvature="0"
       d="m 1543.2743,-4539.3881 78.7488,0 c 3.0975,0 5.625,2.5275 5.625,5.625 l 0,101.25 c 0,3.0988 -2.5275,5.625 -5.625,5.625 l -78.7488,0 c -3.0988,0 -5.625,-2.5262 -5.625,-5.625 l 0,-101.25 c 0,-3.0588 2.5662,-5.625 5.625,-5.625"
       style="fill:#ffffff;fill-opacity:1;fill-rule:nonzero;stroke:#000000;stroke-width:0.69999999;stroke-linecap:butt;stroke-linejoin:miter;stroke-miterlimit:4;stroke-opacity:1;stroke-dasharray:none"
       id="path3253" />
    <path
       inkscape:connector-curvature="0"
       style="fill:#bf2519;fill-opacity:1;fill-rule:evenodd;stroke:none"
       d="m 1543.2813,-4537.9687 c -2.315,0 -4.215,1.9037 -4.2188,4.2186 l 0,101.2189 c 0.01,2.3175 1.9038,4.2425 4.2188,4.25 l 78.7187,0 c 2.3175,-0.01 4.24,-1.9325 4.25,-4.25 l 0,-101.2189 c -0.01,-2.3149 -1.9325,-4.2136 -4.25,-4.2186 l -78.7187,0 z m 0.031,2.3436 78.6562,0 c 1.0575,-0.014 1.955,0.8489 1.9375,1.9064 l 0,101.1561 c 0.018,1.0563 -0.88,1.9563 -1.9375,1.9375 l -78.6562,0 c -1.0588,0.019 -1.9213,-0.8812 -1.9063,-1.9375 l 0,-101.1561 c -0.015,-1.0575 0.8475,-1.92 1.9063,-1.9064 z"
       id="path3257" />
    <path
       inkscape:connector-curvature="0"
       d="m 1579.1443,-4510.5281 -5.73,-10.1487 0,10.1487 -2.365,0 0,-14.9862 2.365,0 5.4687,9.5687 0,-9.5687 2.3663,0 0,14.9862 -2.105,0 z"
       style="fill:#bf2519;fill-opacity:1;fill-rule:evenodd;stroke:none"
       id="path3265" />
    <path
       inkscape:connector-curvature="0"
       d="m 1595.0768,-4517.9956 c 0,-1.8925 -0.3688,-3.7862 -0.9988,-5.1 -0.9462,-1.8412 -2.26,-2.6812 -4.155,-2.6812 -1.7337,0 -2.9437,0.525 -3.8375,1.6825 -0.9987,1.4187 -1.6287,3.6275 -1.6287,6.0987 0,1.7887 0.42,3.7863 1.05,5.0488 0.8962,1.84 2.21,2.6812 4.3112,2.6812 1.5775,0 2.7888,-0.5262 3.6288,-1.6825 1.0512,-1.3137 1.63,-3.6812 1.63,-6.0475 m -2.365,0 c 0,1.1563 -0.2638,2.6288 -0.5788,3.4175 -0.5275,1.3163 -1.2112,1.895 -2.315,1.895 -0.9475,0 -1.5775,-0.3687 -2.0475,-1.1575 -0.5787,-0.9475 -0.8962,-2.5775 -0.8962,-4.155 0,-1.2612 0.2125,-2.6287 0.5787,-3.5238 0.5275,-1.3138 1.2613,-1.8912 2.4188,-1.8387 0.8937,0.053 1.4725,0.3675 1.9462,1.155 0.5763,1 0.8938,2.525 0.8938,4.2075"
       style="fill:#bf2519;fill-opacity:1;fill-rule:evenodd;stroke:none"
       id="path3269" />
    <path
       inkscape:connector-curvature="0"
       d="m 1556.9655,-4483.3506 c -0.4725,0.42 -1.1562,0.6838 -1.945,0.6838 -2.1037,0 -3.2075,-1.3663 -3.3125,-3.9963 l 1.9463,0 c 0,0.5788 0.051,0.7888 0.1562,1.1038 0.1588,0.5787 0.6313,0.9475 1.21,0.9475 0.735,0 1.2088,-0.5788 1.2088,-1.525 0,-1.315 -0.4738,-2.4188 -1.6313,-3.785 -0.6812,-0.79 -1.155,-1.3675 -1.3125,-1.5788 -0.8425,-1 -1.21,-2.0512 -1.21,-3.1025 0,-2.05 1.2625,-3.5225 3.05,-3.5225 1.84,0 2.84,1.1563 3.05,3.5225 l -1.9462,0 c -0.053,-1.1562 -0.3688,-1.63 -1.0525,-1.63 -0.735,0 -1.155,0.6313 -1.155,1.63 0,0.6838 0.2612,1.2088 1.05,2.0513 1.6312,1.84 1.8937,2.2075 2.3675,3.155 0.4212,0.9462 0.7362,2.2087 0.7362,3.26 0,1.0512 -0.4737,2.1562 -1.21,2.7862"
       style="fill:#bf2519;fill-opacity:1;fill-rule:evenodd;stroke:none"
       id="path3273" />
    <path
       inkscape:connector-curvature="0"
       d="m 1563.0655,-4495.9693 0,13.0387 -1.895,0 0,-13.0387 -1.8387,0 0,-1.9463 5.6799,0 0,1.9463 -1.9462,0 z"
       style="fill:#bf2519;fill-opacity:1;fill-rule:evenodd;stroke:none"
       id="path3277" />
    <path
       inkscape:connector-curvature="0"
       d="m 1573.5805,-4490.4493 c 0,-2.5238 0.21,-7.6763 -3.4687,-7.6763 -3.6825,0 -3.4725,5.1 -3.4725,7.6763 0,2.4712 -0.2625,7.7825 3.4725,7.7825 3.6787,0 3.4687,-5.3113 3.4687,-7.7825 m -1.9975,0 c 0,1 0.21,5.8375 -1.4712,5.8375 -1.7363,0 -1.5263,-4.8375 -1.5263,-5.8375 0,-1.0513 -0.21,-5.73 1.5263,-5.73 1.4175,0 1.4712,4.5212 1.4712,5.73"
       style="fill:#bf2519;fill-opacity:1;fill-rule:evenodd;stroke:none"
       id="path3281" />
    <path
       inkscape:connector-curvature="0"
       d="m 1582.7818,-4493.5518 c 0,-1.6288 -0.5788,-3.05 -1.4175,-3.7338 -0.4738,-0.42 -1.2625,-0.63 -2.105,-0.63 l -2.945,0 0,14.985 1.8925,0 0,-6.5187 1.0525,0 c 2.105,0 3.5225,-1.63 3.5225,-4.1025 m -1.945,0 c 0,1.5787 -0.42,2.1561 -1.5775,2.1561 l -1.0525,0 0,-4.5736 1.0525,0 c 1.0525,0 1.5775,0.735 1.5775,2.4175"
       style="fill:#bf2519;fill-opacity:1;fill-rule:evenodd;stroke:none"
       id="path3285" />
    <path
       inkscape:connector-curvature="0"
       d="m 1591.2468,-4493.5518 c 0,-1.6288 -0.5788,-3.05 -1.4213,-3.7338 -0.4712,-0.42 -1.26,-0.63 -2.1025,-0.63 l -2.9437,0 0,14.985 1.895,0 0,-6.5187 1.0487,0 c 2.1025,0 3.5238,-1.63 3.5238,-4.1025 m -1.9463,0 c 0,1.5787 -0.42,2.1561 -1.5775,2.1561 l -1.0487,0 0,-4.5736 1.0487,0 c 1.0525,0 1.5775,0.735 1.5775,2.4175"
       style="fill:#bf2519;fill-opacity:1;fill-rule:evenodd;stroke:none"
       id="path3289" />
    <path
       inkscape:connector-curvature="0"
       d="m 1593.2425,-4497.9162 1.895,0 0,14.985 -1.895,0 0,-14.985 z"
       style="fill:#bf2519;fill-opacity:1;fill-rule:evenodd;stroke:none"
       id="path3291" />
    <path
       inkscape:connector-curvature="0"
       d="m 1603.2343,-4482.9306 -2.945,-8.8862 0,8.8862 -1.8925,0 0,-14.985 1.8925,0 2.6837,7.4663 0,-7.4663 1.8913,0 0,14.985 -1.63,0 z"
       style="fill:#bf2519;fill-opacity:1;fill-rule:evenodd;stroke:none"
       id="path3295" />
    <path
       inkscape:connector-curvature="0"
       d="m 1613.8568,-4484.4018 c -0.315,1.0512 -1.3138,1.735 -2.6813,1.735 -1.5262,0 -2.4187,-0.5788 -2.8925,-1.9975 -0.4737,-1.3675 -0.63,-2.735 -0.63,-5.785 0,-2.9963 0.1563,-4.3113 0.6838,-5.73 0.4712,-1.3675 1.3662,-1.9463 2.8387,-1.9463 1.6825,0 2.6813,1.0513 2.8913,2.8912 l -1.8925,0 c -0.105,-0.6299 -0.42,-0.9449 -0.9475,-0.9449 -0.6838,0 -1.1575,0.4724 -1.3138,1.4711 -0.21,1.2089 -0.315,2.2076 -0.315,4.2588 0,2.0501 0.105,3.0501 0.2613,4.3125 0.21,1 0.5787,1.5251 1.2625,1.5251 0.6837,0 1.0525,-0.6313 1.0525,-1.6313 l 0,-1.9975 -0.8938,0 0,-1.945 2.7863,0 0,3.8375 c 0,0.6837 -0.105,1.4725 -0.21,1.9463"
       style="fill:#bf2519;fill-opacity:1;fill-rule:evenodd;stroke:none"
       id="path3299" />
    <path
       inkscape:connector-curvature="0"
       d="m 1581.9518,-4465.3393 c 0,-1.2613 -0.2463,-2.5238 -0.6663,-3.4 -0.6325,-1.2276 -1.5087,-1.7888 -2.7687,-1.7888 -1.1575,0 -1.965,0.3513 -2.5613,1.1237 -0.6637,0.9462 -1.0862,2.4176 -1.0862,4.0651 0,1.1925 0.2812,2.5236 0.7012,3.3662 0.5975,1.225 1.4738,1.7875 2.8763,1.7875 1.0512,0 1.8575,-0.3513 2.4187,-1.1226 0.7013,-0.8762 1.0863,-2.4537 1.0863,-4.0311 m -1.5763,0 c 0,0.7712 -0.1763,1.7525 -0.3862,2.28 -0.3513,0.875 -0.8088,1.2611 -1.5425,1.2611 -0.6325,0 -1.0525,-0.2461 -1.3675,-0.7711 -0.3863,-0.6314 -0.5963,-1.7188 -0.5963,-2.77 0,-0.84 0.14,-1.7526 0.3863,-2.3488 0.3487,-0.8763 0.84,-1.2626 1.6112,-1.2263 0.595,0.035 0.9813,0.2451 1.2963,0.7713 0.3862,0.6662 0.5987,1.6824 0.5987,2.8038"
       style="fill:#bf2519;fill-opacity:1;fill-rule:evenodd;stroke:none"
       id="path3303" />
    <path
       inkscape:connector-curvature="0"
       d="m 1589.523,-4460.3618 -3.8212,-6.765 0,6.765 -1.5763,0 0,-9.99 1.5763,0 3.645,6.3787 0,-6.3787 1.5775,0 0,9.99 -1.4013,0 z"
       style="fill:#bf2519;fill-opacity:1;fill-rule:evenodd;stroke:none"
       id="path3307" />
    <path
       inkscape:connector-curvature="0"
       d="m 1556.9618,-4447.5418 c 0,-1.0188 -0.6663,-2.0689 -1.5425,-2.49 -0.4913,-0.245 -1.0163,-0.315 -1.8225,-0.315 l -3.435,0 0,9.99 1.5762,0 0,-4.3463 1.8588,0 c 0.7712,0 1.3662,-0.1412 1.8225,-0.3512 0.8762,-0.3851 1.5425,-1.4363 1.5425,-2.4876 m -1.6125,0 c 0,0.42 -0.245,0.8762 -0.5963,1.0512 -0.28,0.1401 -0.455,0.1738 -0.945,0.1738 l -2.07,0 0,-2.4538 2.07,0 c 0.49,0 0.665,0.036 0.945,0.1764 0.3513,0.21 0.5963,0.6311 0.5963,1.0524"
       style="fill:#bf2519;fill-opacity:1;fill-rule:evenodd;stroke:none"
       id="path3311" />
    <path
       inkscape:connector-curvature="0"
       d="m 1565.9705,-4440.3568 -3.435,-9.99 -1.5775,0 -3.435,9.99 1.6825,0 0.9813,-2.8038 3.12,0 0.9812,2.8038 1.6825,0 z m -3.225,-4.4163 -1.9975,0 1.0163,-2.805 0.9812,2.805 z"
       style="fill:#bf2519;fill-opacity:1;fill-rule:evenodd;stroke:none"
       id="path3315" />
    <path
       inkscape:connector-curvature="0"
       d="m 1570.9492,-4440.3568 -1.2287,0 -3.1537,-9.99 1.6475,0 2.1387,6.66 2.1025,-6.66 1.6812,0 -3.1875,9.99 z"
       style="fill:#bf2519;fill-opacity:1;fill-rule:evenodd;stroke:none"
       id="path3319" />
    <path
       inkscape:connector-curvature="0"
       d="m 1575.5755,-4440.3568 0,-9.99 5.8888,0 0,1.5761 -4.3125,0 0,2.4539 2.9112,0 0,1.6137 -2.9112,0 0,2.7349 4.6275,0 0,1.6114 -6.2038,0 z"
       style="fill:#bf2519;fill-opacity:1;fill-rule:evenodd;stroke:none"
       id="path3323" />
    <path
       inkscape:connector-curvature="0"
       d="m 1589.6305,-4440.3568 0,-5.7838 -2.3125,5.7838 -2.3137,-5.7838 0,5.7838 -1.5775,0 0,-9.99 1.5775,0 2.3137,5.6087 2.3125,-5.6087 1.5775,0 0,9.99 -1.5775,0 z"
       style="fill:#bf2519;fill-opacity:1;fill-rule:evenodd;stroke:none"
       id="path3327" />
    <path
       inkscape:connector-curvature="0"
       d="m 1593.5555,-4440.3568 0,-9.99 5.8888,0 0,1.5761 -4.3113,0 0,2.4539 2.91,0 0,1.6137 -2.91,0 0,2.7349 4.6288,0 0,1.6114 -6.2063,0 z"
       style="fill:#bf2519;fill-opacity:1;fill-rule:evenodd;stroke:none"
       id="path3331" />
    <path
       inkscape:connector-curvature="0"
       d="m 1606.808,-4440.3568 -3.8212,-6.765 0,6.765 -1.5788,0 0,-9.99 1.5788,0 3.645,6.3787 0,-6.3787 1.5775,0 0,9.99 -1.4013,0 z"
       style="fill:#bf2519;fill-opacity:1;fill-rule:evenodd;stroke:none"
       id="path3335" />
    <path
       inkscape:connector-curvature="0"
       d="m 1613.5368,-4448.9456 0,8.5888 -1.5776,0 0,-8.5888 -2.2774,0 0,-1.4012 6.1687,0 0,1.4012 -2.3137,0 z"
       style="fill:#bf2519;fill-opacity:1;fill-rule:evenodd;stroke:none"
       id="path3339" />
  </g>
</svg>
