<?xml version="1.0" encoding="UTF-8" standalone="no"?>
<!-- Created with Inkscape (http://www.inkscape.org/) -->

<svg
   xmlns:dc="http://purl.org/dc/elements/1.1/"
   xmlns:cc="http://creativecommons.org/ns#"
   xmlns:rdf="http://www.w3.org/1999/02/22-rdf-syntax-ns#"
   xmlns:svg="http://www.w3.org/2000/svg"
   xmlns="http://www.w3.org/2000/svg"
   xmlns:sodipodi="http://sodipodi.sourceforge.net/DTD/sodipodi-0.dtd"
   xmlns:inkscape="http://www.inkscape.org/namespaces/inkscape"
   width="90.6875"
   height="113.21875"
   id="svg2"
   sodipodi:version="0.32"
   inkscape:version="0.48.2 r9819"
   version="1.0"
   sodipodi:docname="MUTCD R8-5.svg"
   inkscape:output_extension="org.inkscape.output.svg.inkscape">
  <defs
     id="defs4">
    <inkscape:perspective
       sodipodi:type="inkscape:persp3d"
       inkscape:vp_x="0 : 300.5 : 1"
       inkscape:vp_y="0 : 1000 : 0"
       inkscape:vp_z="601 : 300.5 : 1"
       inkscape:persp3d-origin="300.5 : 200.33333 : 1"
       id="perspective3380" />
    <inkscape:perspective
       id="perspective3990"
       inkscape:persp3d-origin="375 : 250 : 1"
       inkscape:vp_z="750 : 375 : 1"
       inkscape:vp_y="0 : 1000 : 0"
       inkscape:vp_x="0 : 375 : 1"
       sodipodi:type="inkscape:persp3d" />
  </defs>
  <sodipodi:namedview
     id="base"
     pagecolor="#ffffff"
     bordercolor="#666666"
     borderopacity="1.0"
     gridtolerance="10000"
     guidetolerance="10"
     objecttolerance="10"
     inkscape:pageopacity="0.0"
     inkscape:pageshadow="2"
     inkscape:zoom="5.1466668"
     inkscape:cx="28.930841"
     inkscape:cy="80.019344"
     inkscape:document-units="px"
     inkscape:current-layer="layer1"
     width="601px"
     height="601px"
     inkscape:window-width="1280"
     inkscape:window-height="1004"
     inkscape:window-x="-8"
     inkscape:window-y="-8"
     showgrid="false"
     fit-margin-top="0"
     fit-margin-left="0"
     fit-margin-right="0"
     fit-margin-bottom="0"
     inkscape:window-maximized="1" />
  <metadata
     id="metadata7">
    <rdf:RDF>
      <cc:Work
         rdf:about="">
        <dc:format>image/svg+xml</dc:format>
        <dc:type
           rdf:resource="http://purl.org/dc/dcmitype/StillImage" />
        <dc:title></dc:title>
      </cc:Work>
    </rdf:RDF>
  </metadata>
  <g
     inkscape:label="Layer 1"
     inkscape:groupmode="layer"
     id="layer1"
     transform="translate(-1537.3125,4539.75)">
    <rect
       style="color:#000000;fill:#000000;fill-opacity:1;fill-rule:nonzero;stroke:none;stroke-width:0.8735441;marker:none;visibility:visible;display:inline;overflow:visible"
       id="rect3653"
       width="0"
       height="27.202072"
       x="578.73834"
       y="298.1684"
       rx="249.48199"
       ry="27.202072" />
    <path
       inkscape:connector-curvature="0"
       d="m 1543.2743,-4539.3881 78.7488,0 c 3.0975,0 5.625,2.5275 5.625,5.625 l 0,101.25 c 0,3.0988 -2.5275,5.625 -5.625,5.625 l -78.7488,0 c -3.0988,0 -5.625,-2.5262 -5.625,-5.625 l 0,-101.25 c 0,-3.0588 2.5662,-5.625 5.625,-5.625"
       style="fill:#ffffff;fill-opacity:1;fill-rule:nonzero;stroke:#000000;stroke-width:0.69999999;stroke-linecap:butt;stroke-linejoin:miter;stroke-miterlimit:4;stroke-opacity:1;stroke-dasharray:none"
       id="path3253" />
    <path
       inkscape:connector-curvature="0"
       style="fill:#bf2519;fill-opacity:1;fill-rule:evenodd;stroke:none"
       d="m 1543.2813,-4537.9687 c -2.315,0 -4.215,1.9037 -4.2188,4.2186 l 0,101.2189 c 0.01,2.3175 1.9038,4.2425 4.2188,4.25 l 78.7187,0 c 2.3175,-0.01 4.24,-1.9325 4.25,-4.25 l 0,-101.2189 c -0.01,-2.3149 -1.9325,-4.2136 -4.25,-4.2186 l -78.7187,0 z m 0.031,2.3436 78.6562,0 c 1.0575,-0.014 1.955,0.8489 1.9375,1.9064 l 0,101.1561 c 0.018,1.0563 -0.88,1.9563 -1.9375,1.9375 l -78.6562,0 c -1.0588,0.019 -1.9213,-0.8812 -1.9063,-1.9375 l 0,-101.1561 c -0.015,-1.0575 0.8475,-1.92 1.9063,-1.9064 z"
       id="path3257" />
    <path
       d="m 1577.6341,-4510.4866 -5.73,-10.1487 0,10.1487 -2.365,0 0,-14.9875 2.365,0 5.4687,9.5713 0,-9.5713 2.3663,0 0,14.9875 -2.105,0 z"
       style="fill:#bf2519;fill-opacity:1;fill-rule:nonzero;stroke:none"
       id="path3399"
       inkscape:connector-curvature="0" />
    <path
       d="m 1593.5678,-4517.9541 c 0,-1.8925 -0.3662,-3.7862 -0.9987,-5.1 -0.9475,-1.8412 -2.2613,-2.6825 -4.1538,-2.6825 -1.735,0 -2.9462,0.5263 -3.84,1.6838 -0.9987,1.4187 -1.6287,3.6275 -1.6287,6.0987 0,1.7888 0.42,3.7863 1.05,5.0488 0.8962,1.84 2.21,2.6812 4.3137,2.6812 1.5775,0 2.7863,-0.525 3.6288,-1.6825 1.05,-1.315 1.6287,-3.6812 1.6287,-6.0475 m -2.3662,0 c 0,1.1575 -0.2638,2.6288 -0.5788,3.4175 -0.525,1.315 -1.2087,1.8938 -2.3125,1.8938 -0.9462,0 -1.5787,-0.3675 -2.05,-1.1575 -0.5787,-0.9463 -0.8962,-2.5763 -0.8962,-4.1538 0,-1.2625 0.2125,-2.63 0.5787,-3.5225 0.5275,-1.315 1.2625,-1.8925 2.42,-1.8412 0.8925,0.054 1.4713,0.3687 1.945,1.1575 0.5788,0.9987 0.8938,2.5237 0.8938,4.2062"
       style="fill:#bf2519;fill-opacity:1;fill-rule:nonzero;stroke:none"
       id="path3403"
       inkscape:connector-curvature="0" />
    <path
       d="m 1555.4541,-4483.3078 c -0.4738,0.4212 -1.1563,0.6837 -1.945,0.6837 -2.1025,0 -3.2088,-1.3675 -3.3138,-3.9975 l 1.9463,0 c 0,0.5788 0.054,0.7888 0.1587,1.105 0.1563,0.5788 0.63,0.9463 1.2088,0.9463 0.7375,0 1.21,-0.5788 1.21,-1.5238 0,-1.3162 -0.4725,-2.4187 -1.63,-3.7862 -0.6838,-0.7888 -1.1575,-1.3675 -1.3163,-1.5775 -0.84,-1 -1.2087,-2.05 -1.2087,-3.1025 0,-2.0513 1.2625,-3.5238 3.05,-3.5238 1.84,0 2.8387,1.1575 3.0487,3.5238 l -1.9437,0 c -0.054,-1.1575 -0.3675,-1.6313 -1.0513,-1.6313 -0.7375,0 -1.1575,0.6325 -1.1575,1.6313 0,0.6837 0.2638,1.2099 1.0525,2.05 1.6275,1.8412 1.8913,2.21 2.365,3.155 0.42,0.9475 0.735,2.2087 0.735,3.2612 0,1.0513 -0.4712,2.1563 -1.2087,2.7863"
       style="fill:#bf2519;fill-opacity:1;fill-rule:nonzero;stroke:none"
       id="path3407"
       inkscape:connector-curvature="0" />
    <path
       d="m 1561.5528,-4495.9278 0,13.0412 -1.8912,0 0,-13.0412 -1.8413,0 0,-1.9463 5.6788,0 0,1.9463 -1.9463,0 z"
       style="fill:#bf2519;fill-opacity:1;fill-rule:nonzero;stroke:none"
       id="path3411"
       inkscape:connector-curvature="0" />
    <path
       d="m 1572.0703,-4490.4066 c 0,-2.5238 0.21,-7.6775 -3.4712,-7.6775 -3.6813,0 -3.4688,5.1 -3.4688,7.6775 0,2.4725 -0.2637,7.7825 3.4688,7.7825 3.6812,0 3.4712,-5.31 3.4712,-7.7825 m -1.9987,0 c 0,1 0.21,5.8363 -1.4725,5.8363 -1.7363,0 -1.5238,-4.8363 -1.5238,-5.8363 0,-1.0512 -0.2125,-5.7312 1.5238,-5.7312 1.4212,0 1.4725,4.5212 1.4725,5.7312"
       style="fill:#bf2519;fill-opacity:1;fill-rule:nonzero;stroke:none"
       id="path3415"
       inkscape:connector-curvature="0" />
    <path
       d="m 1581.2728,-4493.5078 c 0,-1.6313 -0.5787,-3.0513 -1.4212,-3.7351 -0.4738,-0.4212 -1.2625,-0.6312 -2.105,-0.6312 l -2.9438,0 0,14.9875 1.8938,0 0,-6.52 1.05,0 c 2.105,0 3.5262,-1.6313 3.5262,-4.1012 m -1.9462,0 c 0,1.5762 -0.4225,2.155 -1.58,2.155 l -1.05,0 0,-4.575 1.05,0 c 1.0525,0 1.58,0.7362 1.58,2.42"
       style="fill:#bf2519;fill-opacity:1;fill-rule:nonzero;stroke:none"
       id="path3419"
       inkscape:connector-curvature="0" />
    <path
       d="m 1589.7366,-4493.5078 c 0,-1.6313 -0.5788,-3.0513 -1.4213,-3.7351 -0.4712,-0.4212 -1.2612,-0.6312 -2.1012,-0.6312 l -2.945,0 0,14.9875 1.8925,0 0,-6.52 1.0525,0 c 2.1012,0 3.5225,-1.6313 3.5225,-4.1012 m -1.9463,0 c 0,1.5762 -0.4187,2.155 -1.5762,2.155 l -1.0525,0 0,-4.575 1.0525,0 c 1.0525,0 1.5762,0.7362 1.5762,2.42"
       style="fill:#bf2519;fill-opacity:1;fill-rule:nonzero;stroke:none"
       id="path3423"
       inkscape:connector-curvature="0" />
    <path
       d="m 1591.7335,-4497.8747 1.8913,0 0,14.9875 -1.8913,0 0,-14.9875 z"
       style="fill:#bf2519;fill-opacity:1;fill-rule:nonzero;stroke:none"
       id="path3425"
       inkscape:connector-curvature="0" />
    <path
       d="m 1601.7241,-4482.8866 -2.945,-8.8875 0,8.8875 -1.8913,0 0,-14.9875 1.8913,0 2.6837,7.4675 0,-7.4675 1.8925,0 0,14.9875 -1.6312,0 z"
       style="fill:#bf2519;fill-opacity:1;fill-rule:nonzero;stroke:none"
       id="path3429"
       inkscape:connector-curvature="0" />
    <path
       d="m 1612.3466,-4484.3591 c -0.315,1.0513 -1.3138,1.735 -2.6813,1.735 -1.525,0 -2.4187,-0.5788 -2.8925,-1.9975 -0.4737,-1.3675 -0.6325,-2.735 -0.6325,-5.785 0,-2.9962 0.1588,-4.3112 0.6838,-5.7312 0.4737,-1.3675 1.3675,-1.9463 2.8412,-1.9463 1.6825,0 2.6813,1.0525 2.8913,2.8925 l -1.8925,0 c -0.105,-0.6312 -0.4225,-0.9462 -0.9475,-0.9462 -0.6825,0 -1.1563,0.4737 -1.3125,1.4725 -0.2125,1.2087 -0.3175,2.2075 -0.3175,4.2587 0,2.0513 0.105,3.05 0.2637,4.3125 0.21,0.9988 0.5788,1.5238 1.2625,1.5238 0.6825,0 1.0513,-0.63 1.0513,-1.63 l 0,-1.9975 -0.8938,0 0,-1.9463 2.7863,0 0,3.8387 c 0,0.6838 -0.105,1.4726 -0.21,1.9463"
       style="fill:#bf2519;fill-opacity:1;fill-rule:nonzero;stroke:none"
       id="path3433"
       inkscape:connector-curvature="0" />
    <path
       d="m 1552.4316,-4460.3191 0,-9.9912 4.6975,0 0,1.4037 -3.2588,0 0,2.5238 2.0675,0 0,1.3674 -2.0675,0 0,3.2938 3.645,0 0,1.4025 -5.0837,0 z"
       style="fill:#bf2519;fill-opacity:1;fill-rule:nonzero;stroke:none"
       id="path3437"
       inkscape:connector-curvature="0" />
    <path
       d="m 1562.7378,-4460.3191 -1.4025,-3.3987 -1.4012,3.3987 -1.5088,0 2.1738,-5.1875 -2.0313,-4.8037 1.5063,0 1.2612,3.015 1.2625,-3.015 1.5063,0 -1.9963,4.8037 2.1725,5.1875 -1.5425,0 z"
       style="fill:#bf2519;fill-opacity:1;fill-rule:nonzero;stroke:none"
       id="path3441"
       inkscape:connector-curvature="0" />
    <path
       d="m 1569.6078,-4467.6453 c -0.14,-0.9813 -0.525,-1.4363 -1.1925,-1.4363 -1.1562,0 -1.5762,0.91 -1.5762,3.505 0,2.8737 0.49,4.0313 1.7187,4.0313 0.84,0 1.05,-0.7013 1.05,-1.4388 l 1.4375,0 c -0.034,1.6488 -1.0862,2.84 -2.4875,2.84 -2.1387,0 -3.0862,-1.7162 -3.0862,-5.3975 0,-3.225 1.0162,-4.9425 2.9812,-4.9425 0.805,0 1.5063,0.35 1.9625,1.0163 0.3863,0.4912 0.525,0.9112 0.63,1.8225 l -1.4375,0 z"
       style="fill:#bf2519;fill-opacity:1;fill-rule:nonzero;stroke:none"
       id="path3445"
       inkscape:connector-curvature="0" />
    <path
       d="m 1573.0428,-4460.3191 0,-9.9912 4.6988,0 0,1.4037 -3.2613,0 0,2.5238 2.0675,0 0,1.3674 -2.0675,0 0,3.2938 3.645,0 0,1.4025 -5.0825,0 z"
       style="fill:#bf2519;fill-opacity:1;fill-rule:nonzero;stroke:none"
       id="path3449"
       inkscape:connector-curvature="0" />
    <path
       d="m 1585.4178,-4467.5053 c 0,-1.6813 -1.0525,-2.805 -2.6287,-2.805 l -2.9788,0 0,9.9912 1.435,0 0,-4.3812 1.5438,0 c 1.6812,0 2.6287,-0.9813 2.6287,-2.805 m -1.4012,0 c 0,0.9112 -0.4563,1.4387 -1.2988,1.4387 l -1.4725,0 0,-2.84 1.4725,0 c 0.7713,0 1.2988,0.5588 1.2988,1.4013"
       style="fill:#bf2519;fill-opacity:1;fill-rule:nonzero;stroke:none"
       id="path3453"
       inkscape:connector-curvature="0" />
    <path
       d="m 1589.2728,-4468.9766 0,8.6575 -1.435,0 0,-8.6575 -1.8237,0 0,-1.3337 5.0824,0 0,1.3337 -1.8237,0 z"
       style="fill:#bf2519;fill-opacity:1;fill-rule:nonzero;stroke:none"
       id="path3457"
       inkscape:connector-curvature="0" />
    <path
       d="m 1603.1203,-4465.3316 c 0,-1.5062 -0.1412,-2.4537 -0.5612,-3.435 -0.4913,-1.2275 -1.1913,-1.7175 -2.3488,-1.7175 -1.1575,0 -1.8575,0.49 -2.3825,1.6825 -0.4225,0.9463 -0.5612,1.9638 -0.5612,3.47 0,1.5425 0.1387,2.49 0.5612,3.4713 0.49,1.1912 1.1913,1.7162 2.3825,1.7162 1.1213,0 1.8575,-0.525 2.3488,-1.7162 0.42,-0.9475 0.5612,-1.9288 0.5612,-3.4713 m -1.3675,0 c 0,1.1563 -0.07,1.7525 -0.315,2.5588 -0.2462,0.8412 -0.6312,1.2275 -1.2275,1.2275 -0.63,0 -1.015,-0.3863 -1.2625,-1.2275 -0.21,-0.8063 -0.315,-1.4363 -0.315,-2.5238 0,-1.1225 0.071,-1.7887 0.315,-2.5587 0.2475,-0.8413 0.6325,-1.2263 1.2625,-1.2263 0.5963,0 0.9813,0.385 1.2275,1.2613 0.21,0.735 0.315,1.3674 0.315,2.4887"
       style="fill:#bf2519;fill-opacity:1;fill-rule:nonzero;stroke:none"
       id="path3461"
       inkscape:connector-curvature="0" />
    <path
       d="m 1609.6391,-4460.3191 -3.0838,-6.695 0,6.695 -1.4375,0 0,-9.9912 1.4375,0 2.735,5.995 0,-5.995 1.435,0 0,9.9912 -1.0862,0 z"
       style="fill:#bf2519;fill-opacity:1;fill-rule:nonzero;stroke:none"
       id="path3465"
       inkscape:connector-curvature="0" />
    <path
       d="m 1555.7666,-4440.1416 c -1.7525,0 -2.805,-1.4725 -2.805,-3.12 l 1.4012,0 c 0,0.8425 0.42,1.7188 1.4038,1.7188 0.77,0 1.4012,-0.7013 1.4012,-1.5075 0,-0.56 -0.21,-0.9813 -0.805,-1.4375 -0.2125,-0.21 0.3488,0.175 -1.685,-1.1913 -0.805,-0.5612 -1.225,-1.3325 -1.225,-2.2087 0,-1.4388 1.12,-2.595 2.5588,-2.595 1.4012,0 2.49,1.0875 2.5237,2.595 l -1.3675,0 c -0.034,-0.7013 -0.5237,-1.1575 -1.1562,-1.1575 -0.6675,0 -1.1913,0.4899 -1.1913,1.1575 0,0.49 0.2088,0.7712 0.9463,1.1912 1.9262,1.1225 2.7687,2.2088 2.7687,3.6463 0,1.6125 -1.2275,2.9087 -2.7687,2.9087"
       style="fill:#bf2519;fill-opacity:1;fill-rule:nonzero;stroke:none"
       id="path3469"
       inkscape:connector-curvature="0" />
    <path
       d="m 1564.3903,-4440.3166 0,-4.5225 -2.735,0 0,4.5225 -1.4375,0 0,-9.9912 1.4375,0 0,4.0675 2.735,0 0,-4.0675 1.435,0 0,9.9912 -1.435,0 z"
       style="fill:#bf2519;fill-opacity:1;fill-rule:nonzero;stroke:none"
       id="path3473"
       inkscape:connector-curvature="0" />
    <path
       d="m 1573.6766,-4445.3291 c 0,-1.5075 -0.1388,-2.4537 -0.5588,-3.4363 -0.49,-1.2262 -1.1912,-1.7174 -2.3487,-1.7174 -1.1563,0 -1.8575,0.4912 -2.385,1.6837 -0.42,0.9463 -0.5588,1.9625 -0.5588,3.47 0,1.5425 0.1388,2.49 0.5588,3.4713 0.4912,1.1912 1.1912,1.7162 2.385,1.7162 1.1212,0 1.8587,-0.525 2.3487,-1.7162 0.42,-0.9476 0.5588,-1.9288 0.5588,-3.4713 m -1.3663,0 c 0,1.1563 -0.069,1.7525 -0.315,2.5588 -0.245,0.8412 -0.63,1.2275 -1.2262,1.2275 -0.6325,0 -1.0175,-0.3863 -1.2613,-1.2275 -0.21,-0.8063 -0.315,-1.4363 -0.315,-2.5238 0,-1.1225 0.068,-1.7887 0.315,-2.5587 0.2438,-0.8413 0.6288,-1.2263 1.2613,-1.2263 0.5962,0 0.9812,0.385 1.2262,1.2613 0.21,0.735 0.315,1.3675 0.315,2.4887"
       style="fill:#bf2519;fill-opacity:1;fill-rule:nonzero;stroke:none"
       id="path3477"
       inkscape:connector-curvature="0" />
    <path
       d="m 1580.8991,-4441.5428 c -0.4913,0.805 -1.4363,1.4012 -2.3825,1.4012 -0.9826,0 -1.9638,-0.56 -2.4538,-1.4012 -0.2812,-0.5263 -0.3862,-0.9475 -0.3862,-1.7538 l 0,-7.0112 1.4375,0 0,7.1875 c 0,0.9462 0.56,1.5775 1.4025,1.5775 0.7712,0 1.3299,-0.6313 1.3299,-1.5775 l 0,-7.1875 1.4375,0 0,7.0112 c 0,0.8063 -0.1049,1.2275 -0.3849,1.7538"
       style="fill:#bf2519;fill-opacity:1;fill-rule:nonzero;stroke:none"
       id="path3481"
       inkscape:connector-curvature="0" />
    <path
       d="m 1583.4578,-4440.3166 0,-9.9912 1.4375,0 0,8.66 3.645,0 0,1.3312 -5.0825,0 z"
       style="fill:#bf2519;fill-opacity:1;fill-rule:nonzero;stroke:none"
       id="path3485"
       inkscape:connector-curvature="0" />
    <path
       d="m 1595.5516,-4445.3291 c 0,-0.7725 -0.105,-1.6487 -0.2463,-2.3837 -0.1725,-1.0163 -0.595,-1.7875 -1.1912,-2.2088 -0.3488,-0.2813 -0.7713,-0.3862 -1.6113,-0.3862 l -2.5612,0 0,9.9912 2.7712,0 c 0.5613,0 1.0525,-0.14 1.4013,-0.455 0.9812,-0.7712 1.4375,-2.2438 1.4375,-4.5575 m -1.4013,0.07 c 0,0.7713 -0.07,1.4725 -0.1412,2.1038 -0.1388,0.77 -0.595,1.4362 -1.4375,1.4362 l -1.1913,0 0,-7.185 1.1913,0 c 0.6325,0 1.0512,0.315 1.2987,1.0163 0.1725,0.42 0.28,1.5075 0.28,2.6287"
       style="fill:#bf2519;fill-opacity:1;fill-rule:nonzero;stroke:none"
       id="path3489"
       inkscape:connector-curvature="0" />
    <path
       d="m 1597.5153,-4440.3166 0,-9.9912 4.6975,0 0,1.4037 -3.2625,0 0,2.5238 2.07,0 0,1.3662 -2.07,0 0,3.295 3.6475,0 0,1.4025 -5.0825,0 z"
       style="fill:#bf2519;fill-opacity:1;fill-rule:nonzero;stroke:none"
       id="path3493"
       inkscape:connector-curvature="0" />
    <path
       d="m 1609.8878,-4440.3166 -1.435,-4.9075 c 0.945,-0.35 1.435,-1.2262 1.435,-2.4187 0,-1.6125 -1.05,-2.665 -2.6287,-2.665 l -2.9788,0 0,9.9912 1.4375,0 0,-4.6975 1.3675,0 1.33,4.6975 1.4725,0 z m -1.4012,-7.3262 c 0,0.8062 -0.4563,1.2625 -1.2963,1.2625 l -1.4725,0 0,-2.5238 1.4725,0 c 0.7713,0 1.2963,0.4912 1.2963,1.2613"
       style="fill:#bf2519;fill-opacity:1;fill-rule:nonzero;stroke:none"
       id="path3497"
       inkscape:connector-curvature="0" />
  </g>
</svg>
