<?xml version="1.0" encoding="UTF-8" standalone="no"?>
<!-- Generator: Adobe Illustrator 12.0.1, SVG Export Plug-In  -->

<svg
   xmlns:dc="http://purl.org/dc/elements/1.1/"
   xmlns:cc="http://creativecommons.org/ns#"
   xmlns:rdf="http://www.w3.org/1999/02/22-rdf-syntax-ns#"
   xmlns:svg="http://www.w3.org/2000/svg"
   xmlns="http://www.w3.org/2000/svg"
   xmlns:sodipodi="http://sodipodi.sourceforge.net/DTD/sodipodi-0.dtd"
   xmlns:inkscape="http://www.inkscape.org/namespaces/inkscape"
   version="1.1"
   width="279.75"
   height="279.78125"
   viewBox="-0.999 0 279.75 279.78125"
   enable-background="new -0.999 0 289 289"
   xml:space="preserve"
   id="svg2"
   inkscape:version="0.48.2 r9819"
   sodipodi:docname="MUTCD R8-8.svg"><metadata
   id="metadata18"><rdf:RDF><cc:Work
       rdf:about=""><dc:format>image/svg+xml</dc:format><dc:type
         rdf:resource="http://purl.org/dc/dcmitype/StillImage" /><dc:title></dc:title></cc:Work></rdf:RDF></metadata><sodipodi:namedview
   pagecolor="#ffffff"
   bordercolor="#666666"
   borderopacity="1"
   objecttolerance="10"
   gridtolerance="10"
   guidetolerance="10"
   inkscape:pageopacity="0"
   inkscape:pageshadow="2"
   inkscape:window-width="1280"
   inkscape:window-height="1004"
   id="namedview16"
   showgrid="false"
   fit-margin-top="0"
   fit-margin-left="0"
   fit-margin-right="0"
   fit-margin-bottom="0"
   inkscape:zoom="1.8901801"
   inkscape:cx="121.84697"
   inkscape:cy="150.26783"
   inkscape:window-x="-8"
   inkscape:window-y="-8"
   inkscape:window-maximized="1"
   inkscape:current-layer="svg2"
   showguides="true"
   inkscape:guide-bbox="true" />
<defs
   id="defs4">
</defs>





<path
   inkscape:connector-curvature="0"
   d="m 278.00914,255.8285 c 0,12.75375 -10.435,23.18875 -23.18875,23.18875 l -231.88625,0 c -12.75375,0 -23.18875,-10.435 -23.18875,-23.18875 l 0,-231.88625 c 0,-12.75375 10.435,-23.18875 23.18875,-23.18875 l 231.88625,0 c 12.75375,0 23.18875,10.435 23.18875,23.18875 l 0,231.88625"
   style="fill:#ffffff;fill-opacity:1;fill-rule:nonzero;stroke:#000000;stroke-width:1.5;stroke-miterlimit:4;stroke-opacity:1;stroke-dasharray:none"
   id="path3431" /><path
   inkscape:connector-curvature="0"
   d="m 262.55013,255.8285 c 0,4.25125 -3.47875,7.73 -7.73,7.73 l -231.88625,0 c -4.25125,0 -7.72875,-3.47875 -7.72875,-7.73 l 0,-231.88625 c 0,-4.25125 3.4775,-7.73 7.72875,-7.73 l 231.88625,0 c 4.25125,0 7.73,3.47875 7.73,7.73 l 0,231.88625 z m -7.73,-249.2775 -231.88625,0 c -9.565,0 -17.39125,7.82625 -17.39125,17.39125 l 0,231.88625 c 0,9.565 7.82625,17.39125 17.39125,17.39125 l 231.88625,0 c 9.56625,0 17.39125,-7.82625 17.39125,-17.39125 l 0,-231.88625 c 0,-9.565 -7.825,-17.39125 -17.39125,-17.39125"
   style="fill:#000000;fill-opacity:1;fill-rule:nonzero;stroke:none"
   id="path3455" /><path
   inkscape:connector-curvature="0"
   d="m 59.9695,49.4495 0,40.19375 -6.73375,0 0,-40.19375 -8.45,0 0,-6.18375 23.635,0 0,6.18375 -8.45125,0 z"
   style="fill:#000000;fill-opacity:1;fill-rule:nonzero;stroke:none"
   id="path3459" /><path
   inkscape:connector-curvature="0"
   d="m 88.41324,49.793 -6.87125,0 0,11.68 6.87125,0 c 3.91625,0 5.9775,-2.13 5.9775,-5.84 0,-3.5725 -2.405,-5.84 -5.9775,-5.84 m 5.7025,39.85 -6.18375,-21.78 -6.39,0 0,21.78 -6.66375,0 0,-46.3775 13.87875,0 c 7.2825,0 12.16125,4.87875 12.16125,12.3675 0,5.565 -2.2675,9.61875 -6.665,11.2 l 6.665,22.81 -6.8025,0"
   style="fill:#000000;fill-opacity:1;fill-rule:nonzero;stroke:none"
   id="path3463" /><path
   inkscape:connector-curvature="0"
   d="m 119.74301,57.076 -3.22875,13.3975 6.66375,0 -3.435,-13.3975 z m 8.31375,32.5675 -3.23,-12.71125 -9.9625,0 -3.09125,12.71125 -6.665,0 11.54375,-46.3775 6.52625,0 11.54375,46.3775 -6.665,0 z"
   style="fill:#000000;fill-opacity:1;fill-rule:nonzero;stroke:none"
   id="path3467" /><path
   inkscape:connector-curvature="0"
   d="m 154.64512,90.46762 c -9.89375,0 -14.29125,-7.97 -14.29125,-25.0775 0,-14.97875 4.6725,-22.94875 13.81,-22.94875 7.695,0 11.68,6.87125 12.02375,13.19125 l -6.66375,0 c -0.61875,-4.53375 -2.405,-6.66375 -5.4975,-6.66375 -5.35875,0 -7.35125,4.19125 -7.35125,16.28375 0,13.32875 2.2675,18.6875 7.97,18.6875 3.91625,0 4.87875,-3.22875 4.87875,-6.66375 l 6.66375,0 c -0.1375,7.62625 -5.015,13.19125 -11.5425,13.19125"
   style="fill:#000000;fill-opacity:1;fill-rule:nonzero;stroke:none"
   id="path3471" /><path
   inkscape:connector-curvature="0"
   d="m 194.49411,89.64313 -8.1075,-22.605 -4.26,7.76375 0,14.84125 -6.66375,0 0,-46.3775 6.66375,0 0,18.55125 10.58125,-18.55125 7.695,0 -9.61875,16.28375 10.71875,30.09375 -7.00875,0 z"
   style="fill:#000000;fill-opacity:1;fill-rule:nonzero;stroke:none"
   id="path3475" /><path
   inkscape:connector-curvature="0"
   d="m 220.12125,90.46762 c -8.1075,0 -13.05375,-6.87125 -13.05375,-14.4975 l 6.52625,0 c 0,3.91625 1.9925,7.97 6.5275,7.97 3.5725,0 6.5275,-3.22875 6.5275,-7.0075 0,-5.49625 -4.74125,-7.3525 -11.5425,-12.16125 -4.1225,-2.955 -5.70375,-6.18375 -5.70375,-10.30625 0,-6.665 5.15375,-12.02375 11.88625,-12.02375 6.45875,0 11.54375,5.08375 11.68125,12.02375 l -6.32125,0 c -0.20625,-3.22875 -2.47375,-5.35875 -5.36,-5.35875 -3.09125,0 -5.565,2.2675 -5.565,5.35875 0,2.33625 0.9625,3.5725 4.3975,5.565 8.9325,5.15375 12.84875,10.2375 12.84875,16.9025 0,7.48875 -5.70375,13.535 -12.84875,13.535"
   style="fill:#000000;fill-opacity:1;fill-rule:nonzero;stroke:none"
   id="path3479" /><path
   inkscape:connector-curvature="0"
   d="m 67.4305,128.23936 c -1.1675,-4.05375 -2.955,-5.84 -5.7025,-5.84 -2.955,0 -4.6725,1.78625 -5.90875,5.7025 -1.03125,3.5725 -1.4425,6.665 -1.4425,11.88625 0,5.01625 0.41125,7.97 1.4425,11.68 1.09875,3.91625 2.95375,5.7025 5.90875,5.7025 2.7475,0 4.535,-1.78625 5.7025,-5.7025 1.09875,-3.71 1.4425,-6.52625 1.4425,-11.88625 0,-5.1525 -0.48,-8.1075 -1.4425,-11.5425 m 5.1525,27.68875 c -2.335,5.49625 -5.7025,7.97 -10.855,7.97 -5.565,0 -8.795,-2.47375 -11.0625,-7.97 -1.92375,-4.60375 -2.61,-8.93125 -2.61,-16.14625 0,-7.0075 0.6175,-11.68 2.61,-16.0775 2.405,-5.565 5.70375,-7.8325 11.0625,-7.8325 5.35875,0 8.52,2.33625 10.855,7.97 1.92375,4.60375 2.61125,8.9325 2.61125,15.94 0,7.215 -0.6875,11.68 -2.61125,16.14625"
   style="fill:#000000;fill-opacity:1;fill-rule:nonzero;stroke:none"
   id="path3483" /><path
   inkscape:connector-curvature="0"
   d="m 108.72324,157.37112 c -2.19875,3.77875 -6.665,6.5275 -11.06125,6.5275 -4.535,0 -9.13875,-2.61125 -11.40625,-6.5275 -1.305,-2.405 -1.78625,-4.3975 -1.78625,-8.1075 l 0,-32.5675 6.665,0 0,33.32375 c 0,4.39625 2.61,7.35125 6.5275,7.35125 3.5725,0 6.1825,-2.955 6.1825,-7.35125 l 0,-33.32375 6.665,0 0,32.5675 c 0,3.71 -0.4125,5.7025 -1.78625,8.1075"
   style="fill:#000000;fill-opacity:1;fill-rule:nonzero;stroke:none"
   id="path3487" /><path
   inkscape:connector-curvature="0"
   d="m 132.15212,122.88025 0,40.19375 -6.73375,0 0,-40.19375 -8.45125,0 0,-6.18375 23.63625,0 0,6.18375 -8.45125,0 z"
   style="fill:#000000;fill-opacity:1;fill-rule:nonzero;stroke:none"
   id="path3491" /><path
   inkscape:connector-curvature="0"
   d="m 189.02513,128.23936 c -1.1675,-4.05375 -2.955,-5.84 -5.7025,-5.84 -2.955,0 -4.6725,1.78625 -5.90875,5.7025 -1.03125,3.5725 -1.4425,6.665 -1.4425,11.88625 0,5.01625 0.41125,7.97 1.4425,11.68 1.09875,3.91625 2.95375,5.7025 5.90875,5.7025 2.7475,0 4.535,-1.78625 5.7025,-5.7025 1.09875,-3.71 1.4425,-6.52625 1.4425,-11.88625 0,-5.1525 -0.48,-8.1075 -1.4425,-11.5425 m 5.1525,27.68875 c -2.335,5.49625 -5.7025,7.97 -10.855,7.97 -5.56625,0 -8.795,-2.47375 -11.0625,-7.97 -1.92375,-4.60375 -2.61,-8.93125 -2.61,-16.14625 0,-7.0075 0.6175,-11.68 2.61,-16.0775 2.405,-5.565 5.70375,-7.8325 11.0625,-7.8325 5.35875,0 8.52,2.33625 10.855,7.97 1.92375,4.60375 2.61125,8.9325 2.61125,15.94 0,7.215 -0.6875,11.68 -2.61125,16.14625"
   style="fill:#000000;fill-opacity:1;fill-rule:nonzero;stroke:none"
   id="path3495" /><path
   inkscape:connector-curvature="0"
   d="m 212.72886,123.22375 0,11.68 9.275,0 0,6.39 -9.275,0 0,21.78 -6.665,0 0,-46.3775 23.63625,0 0,6.5275 -16.97125,0 z"
   style="fill:#000000;fill-opacity:1;fill-rule:nonzero;stroke:none"
   id="path3499" /><path
   inkscape:connector-curvature="0"
   d="m 49.354,237.32912 c -8.1075,0 -13.05375,-6.87125 -13.05375,-14.4975 l 6.52625,0 c 0,3.91625 1.9925,7.97 6.5275,7.97 3.5725,0 6.5275,-3.22875 6.5275,-7.0075 0,-5.4975 -4.74125,-7.3525 -11.54375,-12.16125 -4.12125,-2.955 -5.7025,-6.18375 -5.7025,-10.30625 0,-6.665 5.15375,-12.02375 11.88625,-12.02375 6.45875,0 11.54375,5.08375 11.68125,12.02375 l -6.32125,0 c -0.20625,-3.22875 -2.47375,-5.35875 -5.36,-5.35875 -3.09125,0 -5.565,2.2675 -5.565,5.35875 0,2.33625 0.9625,3.5725 4.3975,5.565 8.93125,5.15375 12.84875,10.2375 12.84875,16.9025 0,7.48875 -5.70375,13.535 -12.84875,13.535"
   style="fill:#000000;fill-opacity:1;fill-rule:nonzero;stroke:none"
   id="path3503" /><path
   inkscape:connector-curvature="0"
   d="m 70.10325,236.50461 0,-46.3775 21.84875,0 0,6.5275 -15.185,0 0,11.68 9.62,0 0,6.39 -9.62,0 0,15.2525 16.97125,0 0,6.5275 -23.635,0 z"
   style="fill:#000000;fill-opacity:1;fill-rule:nonzero;stroke:none"
   id="path3507" /><path
   inkscape:connector-curvature="0"
   d="m 115.10564,196.6545 -6.87125,0 0,11.68 6.87125,0 c 3.91625,0 5.9775,-2.13 5.9775,-5.84 0,-3.5725 -2.405,-5.84 -5.9775,-5.84 m 5.7025,39.85 -6.18375,-21.78 -6.39,0 0,21.78 -6.66375,0 0,-46.3775 13.87875,0 c 7.2825,0 12.16125,4.87875 12.16125,12.3675 0,5.565 -2.2675,9.61875 -6.665,11.2 l 6.665,22.81 -6.8025,0"
   style="fill:#000000;fill-opacity:1;fill-rule:nonzero;stroke:none"
   id="path3511" /><path
   inkscape:connector-curvature="0"
   d="m 148.56513,236.50461 -5.015,0 -11.75,-46.3775 6.665,0 7.695,30.09375 7.62625,-30.09375 6.665,0 -11.88625,46.3775 z"
   style="fill:#000000;fill-opacity:1;fill-rule:nonzero;stroke:none"
   id="path3515" /><path
   inkscape:connector-curvature="0"
   d="m 166.9095,190.1275 6.5275,0 0,46.3775 -6.5275,0 0,-46.3775 z"
   style="fill:#000000;fill-opacity:1;fill-rule:nonzero;stroke:none"
   id="path3517" /><path
   inkscape:connector-curvature="0"
   d="m 197.00237,237.32912 c -9.89375,0 -14.29125,-7.97 -14.29125,-25.0775 0,-14.97875 4.6725,-22.94875 13.81,-22.94875 7.695,0 11.68,6.87125 12.02375,13.1925 l -6.66375,0 c -0.61875,-4.535 -2.405,-6.665 -5.4975,-6.665 -5.35875,0 -7.35125,4.19125 -7.35125,16.28375 0,13.32875 2.2675,18.6875 7.97,18.6875 3.91625,0 4.87875,-3.22875 4.87875,-6.66375 l 6.66375,0 c -0.1375,7.62625 -5.015,13.19125 -11.5425,13.19125"
   style="fill:#000000;fill-opacity:1;fill-rule:nonzero;stroke:none"
   id="path3521" /><path
   inkscape:connector-curvature="0"
   d="m 217.81961,236.50461 0,-46.3775 21.84875,0 0,6.5275 -15.18375,0 0,11.68 9.61875,0 0,6.39 -9.61875,0 0,15.2525 16.97,0 0,6.5275 -23.635,0 z"
   style="fill:#000000;fill-opacity:1;fill-rule:nonzero;stroke:none"
   id="path3525" /></svg>