<?xml version="1.0" encoding="UTF-8" standalone="no"?>
<!-- Created with Inkscape (http://www.inkscape.org/) -->

<svg
   xmlns:dc="http://purl.org/dc/elements/1.1/"
   xmlns:cc="http://creativecommons.org/ns#"
   xmlns:rdf="http://www.w3.org/1999/02/22-rdf-syntax-ns#"
   xmlns:svg="http://www.w3.org/2000/svg"
   xmlns="http://www.w3.org/2000/svg"
   xmlns:sodipodi="http://sodipodi.sourceforge.net/DTD/sodipodi-0.dtd"
   xmlns:inkscape="http://www.inkscape.org/namespaces/inkscape"
   width="163"
   height="217.03125"
   id="svg2"
   sodipodi:version="0.32"
   inkscape:version="0.48.2 r9819"
   version="1.0"
   sodipodi:docname="MUTCD R8-6.svg"
   inkscape:output_extension="org.inkscape.output.svg.inkscape">
  <defs
     id="defs4">
    <inkscape:perspective
       sodipodi:type="inkscape:persp3d"
       inkscape:vp_x="0 : 300.5 : 1"
       inkscape:vp_y="0 : 1000 : 0"
       inkscape:vp_z="601 : 300.5 : 1"
       inkscape:persp3d-origin="300.5 : 200.33333 : 1"
       id="perspective3380" />
    <inkscape:perspective
       id="perspective3990"
       inkscape:persp3d-origin="375 : 250 : 1"
       inkscape:vp_z="750 : 375 : 1"
       inkscape:vp_y="0 : 1000 : 0"
       inkscape:vp_x="0 : 375 : 1"
       sodipodi:type="inkscape:persp3d" />
  </defs>
  <sodipodi:namedview
     id="base"
     pagecolor="#ffffff"
     bordercolor="#666666"
     borderopacity="1.0"
     gridtolerance="10000"
     guidetolerance="10"
     objecttolerance="10"
     inkscape:pageopacity="0.0"
     inkscape:pageshadow="2"
     inkscape:zoom="2.5733334"
     inkscape:cx="69.72427"
     inkscape:cy="131.01116"
     inkscape:document-units="px"
     inkscape:current-layer="layer1"
     width="601px"
     height="601px"
     inkscape:window-width="1280"
     inkscape:window-height="1004"
     inkscape:window-x="-8"
     inkscape:window-y="-8"
     showgrid="false"
     fit-margin-top="0"
     fit-margin-left="0"
     fit-margin-right="0"
     fit-margin-bottom="0"
     inkscape:window-maximized="1" />
  <metadata
     id="metadata7">
    <rdf:RDF>
      <cc:Work
         rdf:about="">
        <dc:format>image/svg+xml</dc:format>
        <dc:type
           rdf:resource="http://purl.org/dc/dcmitype/StillImage" />
        <dc:title></dc:title>
      </cc:Work>
    </rdf:RDF>
  </metadata>
  <g
     inkscape:label="Layer 1"
     inkscape:groupmode="layer"
     id="layer1"
     transform="translate(-1633.9375,5321.4687)">
    <rect
       style="color:#000000;fill:#000000;fill-opacity:1;fill-rule:nonzero;stroke:none;stroke-width:0.8735441;marker:none;visibility:visible;display:inline;overflow:visible"
       id="rect3653"
       width="0"
       height="27.202072"
       x="578.73834"
       y="298.1684"
       rx="249.48199"
       ry="27.202072" />
    <path
       inkscape:connector-curvature="0"
       d="m 1644.5629,-5320.9545 141.7488,0 c 5.5775,0 10.1262,4.5488 10.1262,10.125 l 0,195.7525 c 0,5.5763 -4.5487,10.125 -10.1262,10.125 l -141.7488,0 c -5.5775,0 -10.125,-4.5487 -10.125,-10.125 l 0,-195.7525 c 0,-5.5075 4.6188,-10.125 10.125,-10.125"
       style="fill:#ffffff;fill-opacity:1;fill-rule:nonzero;stroke:#000000;stroke-width:1;stroke-linecap:butt;stroke-linejoin:miter;stroke-miterlimit:4;stroke-opacity:1;stroke-dasharray:none"
       id="path6611" />
    <path
       inkscape:connector-curvature="0"
       style="fill:#000000;fill-opacity:1;fill-rule:evenodd;stroke:none"
       d="m 1644.5938,-5318.4375 c -4.1725,0.016 -7.61,3.45 -7.625,7.625 l 0,195.6875 c 0.015,4.1775 3.4525,7.6038 7.625,7.625 l 141.6875,0 c 4.1824,-0.021 7.5975,-3.4475 7.625,-7.625 l 0,-195.6875 c -0.027,-4.175 -3.4426,-7.6087 -7.625,-7.625 l -141.6875,0 z m 0.031,2.9688 141.625,0 c 2.6062,0.015 4.6724,2.1125 4.6875,4.7187 l 0,195.5938 c -0.015,2.5937 -2.0813,4.72 -4.6875,4.7187 l -141.625,0 c -2.605,0 -4.6738,-2.125 -4.6875,-4.7187 l 0,-195.5938 c 0.014,-2.6062 2.0825,-4.7037 4.6875,-4.7187 z"
       id="path6615" />
    <path
       inkscape:connector-curvature="0"
       style="fill:#000000;fill-opacity:1;fill-rule:evenodd;stroke:none"
       d="m 1657.4063,-5235.9687 c -1.8,0 -3.6763,0.4062 -5.125,1.5312 -1.6475,1.2775 -2.6687,3.2575 -3.2812,5.2188 -1.6825,5.3562 -1.6,12.725 1.4687,17.5937 2.1413,3.3938 6.2875,4.1925 9.9688,3.0938 6.1837,-1.835 6.98,-11.9588 6.1875,-17.1875 -0.82,-5.455 -3.0363,-10.25 -9.2188,-10.25 z m 0,4.2187 c 3.8063,0 4.755,4.1362 5.125,7.1875 0.3775,3.1138 0.1613,10.5975 -3.4375,11.9375 -2.295,0.8575 -4.475,0 -5.5625,-2.1562 -1.7562,-3.4988 -1.7225,-8.545 -0.8125,-12.2813 0.3138,-1.3137 0.88,-2.6525 1.8438,-3.625 0.7462,-0.7475 1.8087,-1.0537 2.8437,-1.0625 z"
       id="path6623" />
    <path
       inkscape:connector-curvature="0"
       d="m 1675.4632,-5235.4497 9.7475,17.4237 0,-17.4862 4.2212,0 0,26.9825 -3.745,0 -10.1612,-18.1 0,18.1 -4.2213,0 0,-26.92 4.1588,0 z"
       style="fill:#000000;fill-opacity:1;fill-rule:evenodd;stroke:none"
       id="path6627" />
    <path
       inkscape:connector-curvature="0"
       d="m 1747.9047,-5208.4876 0,-27 16.4362,0 0,4.2487 -12.2237,0 0,6.7213 8.695,0 0,4.2237 -8.695,0 0,11.8063 -4.2125,0 z"
       style="fill:#000000;fill-opacity:1;fill-rule:evenodd;stroke:none"
       id="path6631" />
    <path
       inkscape:connector-curvature="0"
       d="m 1727.6202,-5208.4876 0,-27 15.5875,0 0,4.2487 -11.3775,0 0,6.7213 8.6962,0 0,4.2237 -8.6962,0 0,7.585 12.2225,0 0,4.2213 -16.4325,0 z"
       style="fill:#000000;fill-opacity:1;fill-rule:evenodd;stroke:none"
       id="path6635" />
    <path
       inkscape:connector-curvature="0"
       d="m 1707.3236,-5208.4876 0,-27 4.2212,0 0,22.7787 12.2213,0 0,4.2213 -16.4426,0 z"
       style="fill:#000000;fill-opacity:1;fill-rule:evenodd;stroke:none"
       id="path6639" />
    <path
       inkscape:connector-curvature="0"
       d="m 1776.8034,-5231.239 0,22.7513 -4.2187,0 0,-22.7513 -6.095,0 0,-4.2475 16.4362,0 0,4.2475 -6.1225,0 z"
       style="fill:#000000;fill-opacity:1;fill-rule:evenodd;stroke:none"
       id="path6643" />
    <path
       inkscape:connector-curvature="0"
       style="fill:#000000;fill-opacity:1;fill-rule:evenodd;stroke:none"
       d="m 1704.2501,-5150.2187 -6.1875,18 2.9687,0 2,-5.8125 5.1563,0 1.9687,5.8125 2.9688,0 -6.0938,-18 -2.7812,0 z m 1.375,4.625 1.625,4.75 -3.25,0 1.625,-4.75 z"
       id="path6647" />
    <path
       inkscape:connector-curvature="0"
       d="m 1764.3322,-5146.7139 -2.8176,0.6038 c -0.1624,-0.305 -0.3338,-0.585 -0.5938,-0.82 -0.7375,-0.6638 -1.7837,-0.8638 -2.7362,-0.6825 -1.3588,0.2612 -2.115,1.2675 -2.565,2.5725 -0.8725,2.54 -0.8638,7.1012 0.955,9.2812 0.8012,0.9625 2.385,1.1688 3.4987,0.7188 0.6675,-0.27 1.1163,-0.7275 1.4413,-1.3513 l 2.8175,0.5663 c -0.4775,1.1362 -1.0813,2.0437 -2.105,2.7737 -1.2963,0.9188 -2.9975,1.1875 -4.5375,0.9088 -1.9975,-0.36 -3.4475,-1.6913 -4.32,-3.5113 -1.575,-3.2737 -1.4749,-7.7212 -0.099,-11.06 1.1075,-2.6725 3.9324,-4.2662 6.7936,-3.6612 2.1163,0.4387 3.485,1.745 4.2675,3.6612"
       style="fill:#000000;fill-opacity:1;fill-rule:evenodd;stroke:none"
       id="path6651" />
    <path
       inkscape:connector-curvature="0"
       style="fill:#000000;fill-opacity:1;fill-rule:evenodd;stroke:none"
       d="m 1682.5938,-5150.2187 0,18 2.8125,0 0,-7.875 3.25,0 3,7.875 3.0313,0 -3.1875,-8.3438 c 0.8737,-0.4575 1.545,-0.995 2.0937,-1.8437 1.0713,-1.6738 1.0763,-3.9075 -0.031,-5.5625 -0.9275,-1.4063 -2.535,-2.25 -4.2187,-2.25 l -6.75,0 z m 2.8125,2.8125 3.9375,0 c 0.7475,0 1.4613,0.3725 1.875,1 0.485,0.7299 0.485,1.7299 0,2.4687 -0.405,0.6125 -1.1362,1.0313 -1.875,1.0313 l -3.9375,0 0,-4.5 z"
       id="path6655" />
    <path
       inkscape:connector-curvature="0"
       d="m 1716.4953,-5132.2325 0,-17.9912 10.9538,0 0,2.8262 -8.1439,0 0,4.4825 5.7963,0 0,2.8075 -5.7963,0 0,7.875 -2.8099,0 z"
       style="fill:#000000;fill-opacity:1;fill-rule:evenodd;stroke:none"
       id="path6659" />
    <path
       inkscape:connector-curvature="0"
       d="m 1730.8324,-5132.2325 0,-17.9912 10.9637,0 0,2.8262 -8.1549,0 0,4.4825 5.795,0 0,2.8075 -5.795,0 0,7.875 -2.8088,0 z"
       style="fill:#000000;fill-opacity:1;fill-rule:evenodd;stroke:none"
       id="path6663" />
    <path
       inkscape:connector-curvature="0"
       d="m 1675.1416,-5147.3976 0,15.165 -2.8175,0 0,-15.165 -4.0588,0 0,-2.8263 10.9538,0 0,2.8263 -4.0776,0 z"
       style="fill:#000000;fill-opacity:1;fill-rule:evenodd;stroke:none"
       id="path6667" />
    <path
       inkscape:connector-curvature="0"
       d="m 1747.9888,-5132.2325 -2.8176,0 0,-17.9912 2.8176,0 0,17.9912 z"
       style="fill:#000000;fill-opacity:1;fill-rule:evenodd;stroke:none"
       id="path6681" />
    <path
       inkscape:connector-curvature="0"
       d="m 1775.7422,-5257.9991 -11.8675,-21.9663 11.1087,-14.0125 -7.32,0 -11.3625,14.265 0,-14.265 -5.68,0 0,35.9788 5.68,0 0,-12.3725 3.7875,-4.6713 9.09,17.0438 6.5637,0 z m -29.0875,0 0,-5.3038 -16.6613,0 0,-30.675 -5.6825,0 0,35.9788 22.3438,0 z m -38.05,-15.9075 -7.195,0 3.6612,-10.1 3.5338,10.1 z m 11.615,15.9075 -12.3725,-35.9788 -5.68,0 -12.3725,35.9788 6.06,0 3.535,-10.1 11.235,0 3.535,10.1 6.06,0 z m -31.2325,-35.9788 -5.8075,0 -2.7788,18.935 -4.67,-18.935 -5.5537,0 -4.545,18.935 -2.7775,-18.935 -5.8075,0 5.3037,35.9788 5.0488,0 5.5525,-23.1025 5.6812,23.1025 5.0513,0 5.3025,-35.9788 z"
       style="fill:#000000;fill-opacity:1;fill-rule:evenodd;stroke:none"
       id="path6685" />
    <path
       inkscape:connector-curvature="0"
       d="m 1754.5634,-5173.2664 0,-3.5987 -6.1238,0 0,2.8387 3.2825,0 0,0.76 c 0,1.6388 -1.325,2.7775 -3.1575,2.7775 -1.0725,0 -1.8938,-0.4437 -2.4613,-1.455 -0.5675,-1.1337 -0.8837,-3.0275 -0.8837,-4.9212 0,-1.5163 0.2537,-3.1563 0.695,-4.23 0.63,-1.5775 1.5775,-2.2075 3.03,-2.2075 1.3862,0 2.1462,0.5662 2.9025,2.1437 l 2.7162,-1.0725 c -1.2,-2.8387 -2.8412,-3.9762 -5.6187,-3.9762 -2.02,0 -3.5363,0.6937 -4.6088,2.0212 -1.1987,1.5775 -2.0212,4.4163 -2.0212,7.3213 0,2.21 0.445,4.4187 1.2,5.9962 1.0725,2.2725 2.6525,3.2938 5.3662,3.2938 3.2825,0 5.6825,-2.4113 5.6825,-5.6913 m -15.5137,5.3638 0,-17.9888 -2.8413,0 0,11.4875 -6.565,-11.4875 -2.8412,0 0,17.9888 2.8412,0 0,-12.1813 6.88,12.1813 2.5263,0 z m -15.8925,-17.9888 -2.9025,0 0,17.9888 2.9025,0 0,-17.9888 z m -6.2363,14.3288 -2.7112,-1.01 c -0.6963,1.4512 -1.58,2.0837 -2.7775,2.0837 -1.265,0 -2.0825,-0.4437 -2.7149,-1.3887 -0.695,-1.1375 -1.1363,-3.0938 -1.1363,-5.0488 0,-1.5162 0.2525,-3.095 0.6938,-4.1687 0.6312,-1.5775 1.5775,-2.2075 3.0312,-2.2075 1.3888,0 1.9549,0.3775 2.9663,1.8937 l 2.6487,-1.1387 c -1.1987,-2.5225 -2.9025,-3.66 -5.615,-3.66 -2.0225,0 -3.5362,0.6937 -4.6087,2.0212 -1.2625,1.5775 -2.02,4.4163 -2.02,7.26 0,2.2713 0.505,4.5438 1.3262,6.1213 1.1362,2.2087 2.8413,3.23 5.49,3.23 2.5888,0 4.355,-1.3363 5.4275,-3.9875 m -19.8037,-4.2913 -3.5975,0 1.8299,-5.05 1.7675,5.05 z m 5.8062,7.9513 -6.185,-17.9888 -2.84,0 -6.185,17.9888 3.03,0 1.7663,-5.05 5.6175,0 1.7675,5.05 3.0287,0 z m -15.7012,-15.15 0,-2.8388 -11.1725,0 0,17.9888 2.84,0 0,-7.8263 5.24,0 0,-2.9037 -5.24,0 0,-4.42 8.3325,0 z"
       style="fill:#000000;fill-opacity:1;fill-rule:evenodd;stroke:none"
       id="path6689" />
  </g>
</svg>
