<?xml version="1.0" encoding="UTF-8" standalone="no"?>
<!-- Generator: Adobe Illustrator 12.0.1, SVG Export Plug-In  -->

<svg
   xmlns:dc="http://purl.org/dc/elements/1.1/"
   xmlns:cc="http://creativecommons.org/ns#"
   xmlns:rdf="http://www.w3.org/1999/02/22-rdf-syntax-ns#"
   xmlns:svg="http://www.w3.org/2000/svg"
   xmlns="http://www.w3.org/2000/svg"
   xmlns:sodipodi="http://sodipodi.sourceforge.net/DTD/sodipodi-0.dtd"
   xmlns:inkscape="http://www.inkscape.org/namespaces/inkscape"
   version="1.1"
   width="1626"
   height="1626"
   viewBox="0 -0.764 1626 1626"
   enable-background="new 0 -0.764 289 256"
   xml:space="preserve"
   id="svg2"
   inkscape:version="0.48.2 r9819"
   sodipodi:docname="AJAX1.svg"><metadata
   id="metadata26"><rdf:RDF><cc:Work
       rdf:about=""><dc:format>image/svg+xml</dc:format><dc:type
         rdf:resource="http://purl.org/dc/dcmitype/StillImage" /></cc:Work></rdf:RDF></metadata><sodipodi:namedview
   pagecolor="#ffffff"
   bordercolor="#666666"
   borderopacity="1"
   objecttolerance="10"
   gridtolerance="10"
   guidetolerance="10"
   inkscape:pageopacity="0"
   inkscape:pageshadow="2"
   inkscape:window-width="1280"
   inkscape:window-height="1004"
   id="namedview24"
   showgrid="false"
   fit-margin-top="0"
   fit-margin-left="0"
   fit-margin-right="0"
   fit-margin-bottom="0"
   inkscape:zoom="0.20811725"
   inkscape:cx="785.8038"
   inkscape:cy="1051.5552"
   inkscape:window-x="-8"
   inkscape:window-y="-8"
   inkscape:window-maximized="1"
   inkscape:current-layer="svg2" />
<defs
   id="defs4">
</defs>









<path
   inkscape:connector-curvature="0"
   style="fill:#ffffff;fill-rule:nonzero;stroke:#000000;stroke-width:6;stroke-linecap:butt;stroke-linejoin:miter;stroke-miterlimit:4;stroke-opacity:1;stroke-dasharray:none"
   d="m 1623,1487.2286 c 0,74.5625 -60.4375,135 -135,135 l -1350,0 c -74.558127,0 -135.0000024,-60.4375 -135.0000024,-135 l 0,-1350.0001 c 0,-74.5594 60.4418754,-135 135.0000024,-135 l 1350,0 c 74.5625,0 135,60.4406 135,135 l 0,1350.0001 z"
   id="path11" /><path
   inkscape:connector-curvature="0"
   style="fill:#000000;fill-rule:nonzero;stroke:none"
   d="m 1533,1487.2286 c 0,24.8125 -20.1875,45 -45,45 l -1350,0 c -24.81325,0 -45.000002,-20.1875 -45.000002,-45 l 0,-1350.0001 c 0,-24.8132 20.186752,-45 45.000002,-45 l 1350,0 c 24.8125,0 45,20.1868 45,45 l 0,1350.0001 z m -45,-1451.2501 -1350,0 c -55.830127,0 -101.250002,45.4199 -101.250002,101.25 l 0,1350.0001 c 0,55.825 45.419875,101.25 101.250002,101.25 l 1350,0 c 55.825,0 101.25,-45.425 101.25,-101.25 l 0,-1350.0001 c 0,-55.8301 -45.425,-101.25 -101.25,-101.25 z"
   id="path13" /><path
   inkscape:connector-curvature="0"
   style="fill:#000000;fill-rule:evenodd;stroke:none"
   d="m 1168.2863,424.1035 c 45.2175,0 76.9075,34.4375 76.9075,54.43125 0,8.245 -3.6675,13.565 -10.125,16.975 0.2712,2.47375 0.4325,4.98875 0.4325,7.53625 0,37.1275 -30.0925,67.21875 -67.215,67.21875 -37.1263,0 -67.2163,-30.09125 -67.2163,-67.21875 0,-6.99125 1.0713,-13.73125 3.045,-20.06625 -14.8225,0 -24.2487,0 -33.3212,0 -31.11,0 20.8425,-58.87625 97.4925,-58.87625 z"
   id="path15" /><path
   inkscape:connector-curvature="0"
   style="fill:#000000;fill-rule:evenodd;stroke:none"
   d="m 934.6075,1153.1973 3.3275,-10.6612 -5.5275,-16.0375 36.66,-51.2425 55.5375,0 30.025,33.635 63.2862,20.945 -4.205,22.575 c 11.2475,2.0687 19.7588,11.9175 19.7588,23.765 0,13.3475 -10.8275,24.1775 -24.175,24.1775 -13.3588,0 -24.1825,-10.83 -24.1825,-24.1775 0,0 0,0 0,0 l -7.36,0 c 0,0 0,0 0,0 0,13.3475 -10.82,24.1775 -24.18,24.1775 -13.35,0 -24.1775,-10.83 -24.1775,-24.1775 l -7.3563,0 c 0,13.3475 -10.8275,24.1775 -24.1787,24.1775 -13.36,0 -24.175,-10.83 -24.175,-24.1775 l -7.36625,0 c 0,13.3475 -10.8175,24.1775 -24.1775,24.1775 -13.34625,0 -24.17875,-10.83 -24.17875,-24.1775 0,-10.72 6.9825,-19.8063 16.645,-22.9788 z"
   id="path17" /><path
   inkscape:connector-curvature="0"
   style="fill:#000000;fill-rule:evenodd;stroke:none"
   d="m 337.545,1078.9211 c 0.0188,-4.835 1.48125,-9.7075 4.50375,-13.9413 6.23125,-8.7275 17.18,-12.05 26.885,-9.0187 l 8.92375,-6.7525 4.81375,-16.27 59.61,-20.3925 45.205,32.285 4.8775,44.8213 39.33125,53.8262 -16.5425,15.9324 c 7.935,8.2249 9.15,21.1724 2.27,30.815 -7.76625,10.87 -22.86125,13.3838 -33.7275,5.6187 -10.8675,-7.7611 -13.3875,-22.8574 -5.625,-33.7262 l -5.98875,-4.28 c -7.76,10.8699 -22.86125,13.3888 -33.72875,5.625 -10.86625,-7.7588 -13.38875,-22.8562 -5.6275,-33.72 l 0.002,0 -5.99,-4.28 c -7.76,10.8662 -22.85375,13.3862 -33.72875,5.625 -10.865,-7.7687 -13.38,-22.8662 -5.6175,-33.7325 l -5.98875,-4.28 0,0 c -7.76125,10.8638 -22.86125,13.3838 -33.72875,5.6224 -6.6325,-4.7363 -10.15625,-12.21 -10.12875,-19.7799 z"
   id="path19" /><path
   inkscape:connector-curvature="0"
   style="fill:#000000;fill-rule:nonzero;stroke:none"
   d="M 736.97875,767.88975 C 722.54,717.89975 923.93625,575.536 942.8175,564.42725 l -205.135,5.10125 -21.10625,-33.05875 c 0,0 241.04625,-31.6425 268.7075,-32.35625 63.80125,-1.6425 98.15245,24.26875 122.38245,52.75375 41.0425,48.22125 35.4763,112.68625 36.5875,144.9025 l 144.1963,27.435 -17.5875,35.1725 -170.4663,-6.91625 -11.0062,-85.9375 -180.07,113.24875 139.2675,90.735 -22.2975,185.68135 -58.5475,0 -14.82,-158.2451 -143.4925,-57.6775 -308.985,191.5326 -46.92875,-33.52 283.4625,-235.38885 z"
   id="path21" /><path
   inkscape:connector-curvature="0"
   style="fill:#af1e2d;fill-opacity:1;fill-rule:nonzero;stroke:none"
   d="M 1263.625,1167.3974 457.83375,361.6023 C 555.525,284.4985 678.88875,238.4785 813,238.4785 c 316.8725,0 573.75,256.87755 573.75,573.75005 0,134.11375 -46.0125,257.47515 -123.125,355.16885 z M 813,1385.9799 c -316.8725,0 -573.75,-256.8787 -573.75,-573.75135 0,-134.1125 46.02,-257.475 123.1225,-355.16625 l 805.7963,805.7914 C 1070.475,1339.9662 947.11375,1385.9799 813,1385.9799 z m 0,-1282.5001 c -391.43125,0 -708.75,317.3175 -708.75,708.74875 0,391.43255 317.31875,708.75135 708.75,708.75135 391.4325,0 708.75,-317.3187 708.75,-708.75135 C 1521.75,420.7973 1204.4325,103.4798 813,103.4798 z"
   id="path23" /></svg>