<?xml version="1.0" encoding="UTF-8" standalone="no"?>
<!-- Generator: Adobe Illustrator 12.0.1, SVG Export Plug-In  -->

<svg
   xmlns:dc="http://purl.org/dc/elements/1.1/"
   xmlns:cc="http://creativecommons.org/ns#"
   xmlns:rdf="http://www.w3.org/1999/02/22-rdf-syntax-ns#"
   xmlns:svg="http://www.w3.org/2000/svg"
   xmlns="http://www.w3.org/2000/svg"
   xmlns:sodipodi="http://sodipodi.sourceforge.net/DTD/sodipodi-0.dtd"
   xmlns:inkscape="http://www.inkscape.org/namespaces/inkscape"
   version="1.1"
   width="1626"
   height="1626"
   viewBox="0 -0.764 1626 1626"
   enable-background="new 0 -0.764 289 256"
   xml:space="preserve"
   id="svg2"
   inkscape:version="0.48.2 r9819"
   sodipodi:docname="AJAX1.svg"><metadata
   id="metadata26"><rdf:RDF><cc:Work
       rdf:about=""><dc:format>image/svg+xml</dc:format><dc:type
         rdf:resource="http://purl.org/dc/dcmitype/StillImage" /><dc:title /></cc:Work></rdf:RDF></metadata><sodipodi:namedview
   pagecolor="#ffffff"
   bordercolor="#666666"
   borderopacity="1"
   objecttolerance="10"
   gridtolerance="10"
   guidetolerance="10"
   inkscape:pageopacity="0"
   inkscape:pageshadow="2"
   inkscape:window-width="1280"
   inkscape:window-height="1004"
   id="namedview24"
   showgrid="false"
   fit-margin-top="0"
   fit-margin-left="0"
   fit-margin-right="0"
   fit-margin-bottom="0"
   inkscape:zoom="0.20811725"
   inkscape:cx="-58.107712"
   inkscape:cy="681.57669"
   inkscape:window-x="-8"
   inkscape:window-y="-8"
   inkscape:window-maximized="1"
   inkscape:current-layer="svg2" />
<defs
   id="defs4">
</defs>









<path
   inkscape:connector-curvature="0"
   style="fill:#ffffff;fill-rule:nonzero;stroke:#000000;stroke-width:6;stroke-miterlimit:4;stroke-opacity:1;stroke-dasharray:none"
   d="m 1622.994,1487.2236 c 0,74.5625 -60.4375,135 -135,135 l -1350,0 c -74.5582,0 -135,-60.4375 -135,-135 l 0,-1350.00036 c 0,-74.55941 60.4418,-135.00001 135,-135.00001 l 1350,0 c 74.5625,0 135,60.4406 135,135.00001 l 0,1350.00036 z"
   id="path11" /><path
   inkscape:connector-curvature="0"
   style="fill:#000000;fill-rule:nonzero;stroke:none"
   d="m 1532.994,1487.2236 c 0,24.8125 -20.1875,45 -45,45 l -1350,0 c -24.8133,0 -45,-20.1875 -45,-45 l 0,-1350.00036 c 0,-24.8132 20.1867,-45.00001 45,-45.00001 l 1350,0 c 24.8125,0 45,20.18681 45,45.00001 l 0,1350.00036 z m -45,-1451.25037 -1350,0 c -55.8302,0 -101.25,45.4199 -101.25,101.25001 l 0,1350.00036 c 0,55.825 45.4198,101.25 101.25,101.25 l 1350,0 c 55.825,0 101.25,-45.425 101.25,-101.25 l 0,-1350.00036 c 0,-55.83011 -45.425,-101.25001 -101.25,-101.25001 z"
   id="path13" /><path
   style="fill:#000000;fill-rule:evenodd;stroke:none"
   d="m 828.7352,411.52836 c 25.97,0 47.15,-21.18375 47.15,-47.155 0,-25.97 -21.18,-47.15 -47.15,-47.15 -25.9737,0 -47.1562,21.18 -47.1562,47.15 0,25.97125 21.1825,47.155 47.1562,47.155 z"
   id="path15"
   inkscape:connector-curvature="0" /><path
   style="fill:#000000;fill-rule:evenodd;stroke:none"
   d="m 416.289,830.84461 c -5.3763,2.04 -10.8725,3.355 -17.2088,-0.365 -9.6212,-2.98 -13.2062,-9.43625 -13.2612,-17.20625 5.615,1.44 8.72,4.665 14.3375,6.0975 10.5162,4.86625 21.0287,3.4925 31.5462,-2.15125 30.4575,-16.14625 58.1125,-35.09375 85.6738,-54.12875 2.9875,1.4325 5.9737,2.8675 8.9625,4.30125 -36.6838,21.155 -73.3688,42.2975 -110.05,63.4525 z m -7.1725,-51.97875 c 20.0762,-6.0975 37.7612,-17.92375 53.055,-35.495 18.0412,0.24375 34.1737,5.73875 48.395,16.495 -21.285,15.61875 -43.0038,30.3775 -65.2425,44.09125 -15.7475,7.91 -31.4625,15.30625 -46.2438,6.80875 -3.5862,-1.905 -5.7362,-4.7775 -6.4512,-8.60625 5.4962,-7.76125 10.9925,-15.53125 16.4875,-23.29375 z m 871.865,377.72404 c -17.5,-47.4813 -28.1125,-99.26 -28.6837,-157.31154 -2.7288,-7.105 -5.4638,-14.21125 -8.1963,-21.3075 -17.9675,-20.22875 -34.6062,-43.76 -48.3462,-74.56625 2.46,-3.8175 4.9212,-7.6425 7.38,-11.4675 24.1087,40.3675 51.1337,53.09 79.4837,53.26375 -21.2,-39.78125 -30.76,-84.8525 -28.6875,-135.20125 9.9375,-96.25 -43.5987,-145.95875 -160.5925,-149.125 -58.9437,3.95125 -119.38,13.43875 -168.7863,-18.02625 2.9438,-90.88 -1.925,-177.65125 -51.625,-240.89 -15.5412,9.4775 -31.4887,16.09 -48.3425,16.385 -6.825,34.6875 -13.6537,69.37 -20.4812,104.05875 -0.875,6.3375 -3.06,10.71 -6.5575,13.11125 -34.4113,26.49125 -68.825,52.98375 -103.2375,79.4775 10.3787,7.375 20.7575,14.74875 31.1337,22.125 21.305,-13.11375 42.6075,-26.22 63.9125,-39.33375 -1.3662,7.9225 -2.7325,15.84375 -4.0975,23.765 -2.2187,8.35875 -5.495,13.54875 -9.8337,15.56875 -14.7475,9.01 -29.4963,18.02375 -44.2438,27.0375 -9.2862,-3.27875 -18.5725,-6.55625 -27.8587,-9.83375 3.5487,-3.82125 7.1025,-7.64625 10.65,-11.47125 -8.1913,-6.01 -16.3838,-12.02 -24.5813,-18.02875 -8.1925,7.37625 -16.3862,14.74875 -24.5775,22.125 -82.0212,-21.82875 -162.8112,-39.9625 -240.895,-49.98 -6.1675,-9.01125 -13.9775,-18.02625 -25.4,-27.0375 -2.1862,2.18375 -4.3712,4.36875 -6.555,6.55 -4.37,-2.73 -8.7387,-5.46 -13.1112,-8.19125 -0.545,3.825 -1.09,7.65 -1.6363,11.47 3.8225,10.93 7.6475,21.8525 11.47,32.77625 -25.2312,58.5 -50.655,117.14625 -63.91,166.33375 -2.7512,6.2775 0.2588,11.41625 4.0963,16.385 10.6437,12.30625 23.595,20.00125 36.8725,27.0375 3.005,-0.545 6.0087,-1.0925 9.0125,-1.63625 6,9.02125 14.3075,14.58875 22.9425,19.6675 7.4837,3.27875 14.3125,3.27875 20.4837,0 38.2388,-22.95125 76.475,-45.88875 114.71,-68.83 9.0138,9.01375 18.0263,18.02625 27.04,27.03625 6.4188,6.555 11.6075,13.10875 15.5675,19.66375 6.01,20.21375 12.0175,40.4225 18.0263,60.635 2.9087,7.65 3.6587,15.3 4.0975,22.94125 -5.19,34.96 -10.38,69.91875 -15.5675,104.87904 -1.495,4.65 -2.5038,9.455 -4.545,13.8012 -18.4825,39.3513 -33.9813,76.8475 -51.1,112.3038 -11.5863,24 -35.495,41.9225 -50.8738,63.1687 -1.235,4.9838 1.2925,6.1713 4.915,7.38 19.12,0 38.2375,0 57.3588,0 2.455,-1.92 4.915,-3.825 7.3725,-5.7437 -0.02,-15.1138 9.4437,-25.8513 25.4,-33.5925 3.4562,-1.2363 4.7475,-5.71 5.7362,-10.655 9.945,-45.82 27.7275,-91.005 67.1875,-134.375 3.6875,-4.495 6.1438,-10.2425 7.3738,-17.1988 2.6212,-11.96524 -6.8825,-13.76399 44.2462,-66.37274 33.855,68.02404 71.9125,133.96154 132.7363,193.37154 2.8462,6.7125 8.2237,10.9025 14.7525,13.93 2.525,2.1162 4.4325,4.8475 5.7337,8.1962 1.91,13.655 3.8275,27.3075 5.7325,40.9638 0.4113,4.1612 2.05,5.2562 4.9213,3.2812 14.7462,-12.2962 29.495,-24.5862 44.245,-36.875 0.955,-3.0025 0.6825,-6.0037 -0.8238,-9.0162 -5.7312,-5.7325 -11.4662,-11.4663 -17.2062,-17.1988 -2.4563,-2.7312 -4.9138,-5.465 -7.37,-8.2 -2.19,-4.37 -4.37,-8.7375 -6.5563,-13.105 -2.1887,-2.73 -4.3662,-5.4587 -6.5537,-8.1912 -24.4763,-19.33 -41.0763,-44.1763 -53.2625,-72.1075 -5.0525,-9.8263 -8.8763,-19.67 -11.4713,-29.4976 -2.5962,-23.21269 -6,-46.43394 -12.29,-69.65019 86.7788,-0.395 159.9613,-8.12 203.2013,-31.955 9.6263,65.2425 5.1262,131.81899 -24.5775,200.75149 -5.7963,17.195 -14.2775,34.01 -28.6813,49.9788 -13.1012,12.2875 -28.745,23.9487 -36.0475,37.6875 -2.8412,3.9862 0.875,6.3375 3.2763,9.0187 22.12,0.2688 44.2462,0.54 66.365,0.8113 -1.945,-7.3263 1.5125,-13.5738 5.74,-19.66 5.46,-3.2813 10.925,-6.5538 16.3887,-9.8363 1.4275,-0.3387 2.2513,-2.5262 2.4538,-6.5487 7.1363,-42.2238 27.225,-75.805 49.1625,-108.1588 3.5538,-4.0962 7.1025,-8.1937 10.65,-12.29 5.7275,-10.2737 7.795,-21.2725 7.3763,-32.7737 0.2737,-7.3751 0.5462,-14.74654 0.8175,-22.12529 6.1612,-27.39375 14.3262,-48.8 25.4,-61.4575 33.5937,31.14 67.1875,62.2825 100.7825,93.41529 12.0187,9.5575 15.8437,27.3087 21.3075,43.4237 4.095,22.94 8.1912,45.8838 12.2862,68.8238 -0.1275,6.7312 2.9863,11.3112 6.5563,15.5725 6.3675,10.9225 12.9587,21.8437 15.57,32.7687 2.73,2.4625 5.4612,4.9213 8.1887,7.38 13.3875,11.9213 26.775,21.685 40.15,31.135 2.7375,-16.1162 5.4625,-32.2287 8.2,-48.3425 -7.1125,-4.0975 -14.2125,-8.1925 -21.3,-12.2912 z"
   id="path17"
   inkscape:connector-curvature="0" /><path
   style="fill:#af1e2d;fill-rule:nonzero;stroke:none;fill-opacity:1"
   d="M 1263.619,1167.3924 457.8277,361.59716 c 97.6913,-77.10375 221.055,-123.12375 355.1663,-123.12375 316.8725,0 573.75,256.8775 573.75,573.75 0,134.11375 -46.0125,257.47529 -123.125,355.16899 z m -450.625,218.5825 c -316.8725,0 -573.75,-256.8787 -573.75,-573.75149 0,-134.1125 46.02,-257.475 123.1225,-355.16625 l 805.7963,805.79154 c -97.6938,77.1124 -221.0551,123.1261 -355.1688,123.1261 z m 0,-1282.50024 c -391.4313,0 -708.75,317.3175 -708.75,708.74875 0,391.43279 317.3187,708.75139 708.75,708.75139 391.4325,0 708.75,-317.3187 708.75,-708.75139 0,-391.43125 -317.3175,-708.74875 -708.75,-708.74875 z"
   id="path19"
   inkscape:connector-curvature="0" /></svg>