<?xml version="1.0" encoding="UTF-8" standalone="no"?>
<!-- Created with Inkscape (http://www.inkscape.org/) -->

<svg
   xmlns:dc="http://purl.org/dc/elements/1.1/"
   xmlns:cc="http://creativecommons.org/ns#"
   xmlns:rdf="http://www.w3.org/1999/02/22-rdf-syntax-ns#"
   xmlns:svg="http://www.w3.org/2000/svg"
   xmlns="http://www.w3.org/2000/svg"
   xmlns:sodipodi="http://sodipodi.sourceforge.net/DTD/sodipodi-0.dtd"
   xmlns:inkscape="http://www.inkscape.org/namespaces/inkscape"
   width="109"
   height="163.03125"
   id="svg2"
   sodipodi:version="0.32"
   inkscape:version="0.48.2 r9819"
   version="1.0"
   sodipodi:docname="AJAX1.svg"
   inkscape:output_extension="org.inkscape.output.svg.inkscape">
  <defs
     id="defs4">
    <inkscape:perspective
       sodipodi:type="inkscape:persp3d"
       inkscape:vp_x="0 : 300.5 : 1"
       inkscape:vp_y="0 : 1000 : 0"
       inkscape:vp_z="601 : 300.5 : 1"
       inkscape:persp3d-origin="300.5 : 200.33333 : 1"
       id="perspective3380" />
    <inkscape:perspective
       id="perspective3990"
       inkscape:persp3d-origin="375 : 250 : 1"
       inkscape:vp_z="750 : 375 : 1"
       inkscape:vp_y="0 : 1000 : 0"
       inkscape:vp_x="0 : 375 : 1"
       sodipodi:type="inkscape:persp3d" />
  </defs>
  <sodipodi:namedview
     id="base"
     pagecolor="#ffffff"
     bordercolor="#666666"
     borderopacity="1.0"
     gridtolerance="10000"
     guidetolerance="10"
     objecttolerance="10"
     inkscape:pageopacity="0.0"
     inkscape:pageshadow="2"
     inkscape:zoom="2.5733334"
     inkscape:cx="15.348579"
     inkscape:cy="69.748521"
     inkscape:document-units="px"
     inkscape:current-layer="layer1"
     width="601px"
     height="601px"
     inkscape:window-width="1280"
     inkscape:window-height="1004"
     inkscape:window-x="-8"
     inkscape:window-y="-8"
     showgrid="false"
     fit-margin-top="0"
     fit-margin-left="0"
     fit-margin-right="0"
     fit-margin-bottom="0"
     inkscape:window-maximized="1" />
  <metadata
     id="metadata7">
    <rdf:RDF>
      <cc:Work
         rdf:about="">
        <dc:format>image/svg+xml</dc:format>
        <dc:type
           rdf:resource="http://purl.org/dc/dcmitype/StillImage" />
        <dc:title></dc:title>
      </cc:Work>
    </rdf:RDF>
  </metadata>
  <g
     inkscape:label="Layer 1"
     inkscape:groupmode="layer"
     id="layer1"
     transform="translate(-1914.2188,5945.375)">
    <rect
       style="color:#000000;fill:#000000;fill-opacity:1;fill-rule:nonzero;stroke:none;stroke-width:0.8735441;marker:none;visibility:visible;display:inline;overflow:visible"
       id="rect3653"
       width="0"
       height="27.202072"
       x="578.73834"
       y="298.1684"
       rx="249.48199"
       ry="27.202072" />
    <path
       inkscape:connector-curvature="0"
       d="m 1924.8321,-5944.86 87.75,0 c 5.5763,0 10.125,4.5487 10.125,10.125 l 0,141.7512 c 0,5.5763 -4.5487,10.125 -10.125,10.125 l -87.75,0 c -5.5762,0 -10.125,-4.5487 -10.125,-10.125 l 0,-141.7512 c 0,-5.5063 4.6188,-10.125 10.125,-10.125"
       style="fill:#ffffff;fill-opacity:1;fill-rule:nonzero;stroke:#000000;stroke-width:1;stroke-linecap:butt;stroke-linejoin:miter;stroke-miterlimit:4;stroke-opacity:1;stroke-dasharray:none"
       id="path6693" />
    <path
       inkscape:connector-curvature="0"
       style="fill:#000000;fill-opacity:1;fill-rule:evenodd;stroke:none"
       d="m 1924.875,-5942.3437 c -4.1725,0.016 -7.6112,3.4812 -7.625,7.6562 l 0,141.6563 c 0.014,4.1775 3.4525,7.6337 7.625,7.6562 l 87.6875,0 c 4.1838,-0.023 7.5988,-3.4787 7.625,-7.6562 l 0,-141.6563 c -0.026,-4.175 -3.4412,-7.64 -7.625,-7.6562 l -87.6875,0 z m 0.031,2.9687 87.5938,0 c 2.6062,0.015 4.7037,2.1125 4.7187,4.7188 l 0,141.5937 c -0.015,2.5938 -2.1125,4.7212 -4.7187,4.7188 l -87.5938,0 c -2.605,0 -4.7062,-2.125 -4.7187,-4.7188 l 0,-141.5937 c 0.013,-2.6064 2.1137,-4.7038 4.7187,-4.7188 z"
       id="path6697" />
    <path
       inkscape:connector-curvature="0"
       d="m 2004.8396,-5914.0207 c 0,-7.07 -8.4575,-4.8588 -8.71,-8.205 -0.1275,-1.6413 1.45,-2.1463 2.7775,-2.0838 2.02,0.064 2.65,1.5775 2.65,1.5775 l 2.525,-0.7562 c -0.8837,-2.2101 -2.5862,-3.6613 -5.1137,-3.6613 -3.2188,0 -5.615,1.3262 -5.615,4.8613 0,2.9662 2.3962,4.0387 3.4712,4.4812 2.3363,0.9463 5.1125,1.325 5.1125,3.7238 0,1.515 -1.1362,2.65 -2.7762,2.65 -1.7063,0 -3.095,-0.945 -3.8525,-2.65 l -2.7138,1.0099 c 1.2,2.7151 3.4713,4.5563 6.5663,4.5563 1.5125,0 2.9012,-0.5163 3.9125,-1.4 1.1337,-1.0112 1.7662,-2.4612 1.7662,-4.1037 m -13.8137,0 c 0,-7.07 -8.4575,-4.8588 -8.7113,-8.205 -0.125,-1.6413 1.4538,-2.1463 2.7763,-2.0838 2.0212,0.064 2.6525,1.5775 2.6525,1.5775 l 2.5237,-0.7562 c -0.8825,-2.2101 -2.5875,-3.6613 -5.11,-3.6613 -3.22,0 -5.62,1.3262 -5.62,4.8613 0,2.9662 2.4,4.0387 3.4713,4.4812 2.3375,0.9463 5.115,1.325 5.115,3.7238 0,1.515 -1.1388,2.65 -2.7775,2.65 -1.705,0 -3.0925,-0.945 -3.8513,-2.65 l -2.7137,1.0099 c 1.1987,2.7151 3.4725,4.5563 6.565,4.5563 1.5137,0 2.9025,-0.5163 3.9112,-1.4 1.1375,-1.0112 1.7688,-2.4612 1.7688,-4.1037 m -17.6013,-3.7863 c 0,1.3888 -0.3137,3.1563 -0.695,4.1013 -0.63,1.5787 -1.4512,2.2725 -2.7762,2.2725 -1.1363,0 -1.895,-0.44 -2.4613,-1.3888 -0.695,-1.135 -1.0737,-3.0912 -1.0737,-4.985 0,-1.515 0.2537,-3.1562 0.695,-4.23 0.6312,-1.5775 1.515,-2.2725 2.9037,-2.2087 1.0713,0.062 1.7663,0.4412 2.3338,1.3887 0.695,1.2 1.0737,3.0288 1.0737,5.05 m 2.8413,0 c 0,-2.2725 -0.4425,-4.545 -1.2,-6.1238 -1.1363,-2.2087 -2.715,-3.2187 -4.9863,-3.2187 -2.0837,0 -3.535,0.6313 -4.6087,2.0213 -1.1975,1.7025 -1.9563,4.355 -1.9563,7.3212 0,2.145 0.5063,4.5438 1.2613,6.06 1.075,2.2075 2.6525,3.23 5.1775,3.23 1.8937,0 3.3462,-0.6425 4.355,-2.0325 1.2625,-1.5775 1.9575,-4.4175 1.9575,-7.2575 m -18.4225,-3.9775 c 0,0.7588 -0.4425,1.5163 -1.1363,1.8938 -0.4412,0.2525 -0.7575,0.3162 -1.64,0.3162 l -3.41,0 0,-4.4188 3.41,0 c 0.945,0 1.1988,0.062 1.64,0.3151 0.6938,0.3787 1.1363,1.1375 1.1363,1.8937 m 3.2175,12.94 -3.1538,-8.395 c 1.64,-0.7575 2.7763,-2.6512 2.7763,-4.545 0,-1.83 -1.1363,-3.7237 -2.715,-4.4812 -0.8825,-0.4413 -1.8288,-0.5675 -3.2175,-0.5675 l -5.9338,0 0,17.9887 2.84,0 0,-7.8275 3.41,0 2.9013,7.8275 3.0925,0 z m -16.0213,-3.6612 -2.715,-1.01 c -0.6937,1.4512 -1.5775,2.0825 -2.7775,2.0825 -1.2625,0 -2.0825,-0.44 -2.7137,-1.3888 -0.6938,-1.135 -1.1363,-3.0912 -1.1363,-5.05 0,-1.5138 0.2538,-3.0912 0.695,-4.165 0.6313,-1.5775 1.5775,-2.2087 3.03,-2.2087 1.3888,0 1.9563,0.3787 2.9663,1.8937 l 2.6512,-1.1362 c -1.2,-2.525 -2.9037,-3.6613 -5.6175,-3.6613 -2.0212,0 -3.5362,0.695 -4.6087,2.0213 -1.2613,1.5775 -2.0188,4.4175 -2.0188,7.2562 0,2.2738 0.5038,4.5463 1.3238,6.125 1.1375,2.2075 2.84,3.23 5.4925,3.23 2.5887,0 4.355,-1.3375 5.4287,-3.9887"
       style="fill:#000000;fill-opacity:1;fill-rule:evenodd;stroke:none"
       id="path6705" />
    <path
       inkscape:connector-curvature="0"
       d="m 1997.7996,-5897.6214 -3.3437,0 -4.3575,6.9438 -4.2913,-6.9438 -3.4062,0 6.3087,10.1625 0,7.8275 2.8413,0 0,-7.8275 6.2487,-10.1625 z m -12.37,17.99 0,-2.65 -8.3325,0 0,-15.34 -2.84,0 0,17.99 11.1725,0 z m -15.4025,0 0,-17.99 -2.84,0 0,11.4888 -6.5637,-11.4888 -2.84,0 0,17.99 2.84,0 0,-12.1825 6.88,12.1825 2.5237,0 z m -18.9975,-8.9637 c 0,1.3887 -0.3162,3.1562 -0.6937,4.1036 -0.63,1.5776 -1.4513,2.2714 -2.7775,2.2714 -1.1363,0 -1.8938,-0.4414 -2.4613,-1.3875 -0.695,-1.1363 -1.0725,-3.0938 -1.0725,-4.9875 0,-1.5138 0.2513,-3.155 0.6938,-4.2275 0.6312,-1.5788 1.515,-2.2725 2.9037,-2.21 1.0725,0.064 1.7663,0.4412 2.335,1.3887 0.6938,1.2 1.0725,3.03 1.0725,5.0488 m 2.8413,0 c 0,-2.2725 -0.4425,-4.5439 -1.1988,-6.1226 -1.1375,-2.2088 -2.715,-3.2174 -4.9875,-3.2174 -2.0825,0 -3.5337,0.63 -4.6062,2.0186 -1.2,1.7038 -1.9588,4.355 -1.9588,7.3213 0,2.1475 0.505,4.545 1.2638,6.06 1.0725,2.21 2.65,3.23 5.175,3.23 1.8925,0 3.345,-0.6413 4.355,-2.03 1.2637,-1.5788 1.9575,-4.4188 1.9575,-7.26"
       style="fill:#000000;fill-opacity:1;fill-rule:evenodd;stroke:none"
       id="path6709" />
    <path
       inkscape:connector-curvature="0"
       d="m 2004.7171,-5835.2839 c 0,-7.07 -8.46,-4.86 -8.7125,-8.205 -0.125,-1.6412 1.4525,-2.1475 2.7775,-2.0837 2.0213,0.062 2.6525,1.5775 2.6525,1.5775 l 2.5238,-0.7563 c -0.885,-2.21 -2.5875,-3.6637 -5.1125,-3.6637 -3.2188,0 -5.6163,1.3275 -5.6163,4.8612 0,2.9688 2.3975,4.04 3.47,4.4813 2.335,0.9475 5.1125,1.3275 5.1125,3.725 0,1.5137 -1.1362,2.6512 -2.7775,2.6512 -1.7025,0 -3.0912,-0.9462 -3.85,-2.6512 l -2.7137,1.0112 c 1.1975,2.7125 3.4725,4.555 6.5637,4.555 1.5163,0 2.905,-0.515 3.9138,-1.4 1.135,-1.0112 1.7687,-2.4612 1.7687,-4.1025 m -13.7837,0 c 0,-7.07 -8.4575,-4.86 -8.7113,-8.205 -0.125,-1.6412 1.4513,-2.1475 2.7763,-2.0837 2.0225,0.062 2.65,1.5775 2.65,1.5775 l 2.5275,-0.7563 c -0.8838,-2.21 -2.5888,-3.6637 -5.1138,-3.6637 -3.2187,0 -5.615,1.3275 -5.615,4.8612 0,2.9688 2.3963,4.04 3.47,4.4813 2.3363,0.9475 5.1138,1.3275 5.1138,3.725 0,1.5137 -1.1375,2.6512 -2.7775,2.6512 -1.705,0 -3.0938,-0.9462 -3.8513,-2.6512 l -2.7137,1.0112 c 1.2,2.7125 3.4712,4.555 6.565,4.555 1.5137,0 2.9025,-0.515 3.9112,-1.4 1.1363,-1.0112 1.7688,-2.4612 1.7688,-4.1025 m -17.5713,-3.7887 c 0,1.39 -0.3162,3.1562 -0.695,4.1037 -0.6287,1.5775 -1.45,2.2725 -2.7762,2.2725 -1.135,0 -1.8938,-0.4425 -2.4613,-1.3887 -0.695,-1.1363 -1.0737,-3.0938 -1.0737,-4.9875 0,-1.5125 0.2525,-3.1538 0.695,-4.2275 0.6325,-1.5788 1.515,-2.2725 2.9037,-2.21 1.0725,0.064 1.7675,0.4425 2.335,1.3875 0.695,1.2012 1.0725,3.0312 1.0725,5.05 m 2.8425,0 c 0,-2.2725 -0.4437,-4.5425 -1.2,-6.1213 -1.1362,-2.21 -2.715,-3.2212 -4.9862,-3.2212 -2.0838,0 -3.535,0.6337 -4.6088,2.0225 -1.1975,1.7037 -1.9575,4.3537 -1.9575,7.32 0,2.1475 0.5063,4.545 1.2625,6.06 1.075,2.2087 2.6513,3.2312 5.1763,3.2312 1.895,0 3.345,-0.6425 4.355,-2.03 1.2637,-1.58 1.9587,-4.42 1.9587,-7.2612 m -18.3912,-3.9763 c 0,0.7575 -0.4438,1.5163 -1.1375,1.8938 -0.44,0.2537 -0.7575,0.3162 -1.64,0.3162 l -3.4088,0 0,-4.4187 3.4088,0 c 0.9462,0 1.2,0.064 1.64,0.315 0.6937,0.38 1.1375,1.1362 1.1375,1.8937 m 3.2175,12.94 -3.155,-8.3937 c 1.64,-0.7588 2.7775,-2.6525 2.7775,-4.5463 0,-1.83 -1.1375,-3.7237 -2.715,-4.48 -0.8838,-0.4425 -1.83,-0.5687 -3.2188,-0.5687 l -5.9325,0 0,17.9887 2.84,0 0,-7.8262 3.4088,0 2.9025,7.8262 3.0925,0 z m -15.9913,-3.66 -2.715,-1.01 c -0.6937,1.4513 -1.5775,2.0825 -2.7775,2.0825 -1.2625,0 -2.0825,-0.4425 -2.7137,-1.3887 -0.6938,-1.1363 -1.1363,-3.0938 -1.1363,-5.0488 0,-1.5162 0.2538,-3.0925 0.695,-4.1662 0.6313,-1.5788 1.5775,-2.21 3.03,-2.21 1.3888,0 1.9563,0.38 2.9663,1.895 l 2.6512,-1.1363 c -1.2,-2.5262 -2.9037,-3.6637 -5.6175,-3.6637 -2.0212,0 -3.5362,0.695 -4.6087,2.0225 -1.2613,1.5762 -2.0188,4.4187 -2.0188,7.2587 0,2.2713 0.5038,4.5438 1.3238,6.1213 1.1375,2.2087 2.84,3.2312 5.4925,3.2312 2.5887,0 4.355,-1.3362 5.4287,-3.9875"
       style="fill:#000000;fill-opacity:1;fill-rule:evenodd;stroke:none"
       id="path6713" />
    <path
       inkscape:connector-curvature="0"
       d="m 2005.2509,-5806.0714 c 0,-7.0687 -8.4575,-4.86 -8.7125,-8.2062 -0.125,-1.6413 1.4525,-2.145 2.7775,-2.0838 2.0212,0.065 2.6525,1.58 2.6525,1.58 l 2.525,-0.7587 c -0.8838,-2.2088 -2.5888,-3.66 -5.1138,-3.66 -3.2187,0 -5.6162,1.325 -5.6162,4.8612 0,2.965 2.3975,4.0388 3.47,4.48 2.3375,0.9463 5.115,1.3275 5.115,3.7238 0,1.5162 -1.1388,2.6525 -2.7775,2.6525 -1.705,0 -3.0938,-0.9488 -3.8513,-2.6525 l -2.7137,1.01 c 1.2,2.7162 3.4712,4.5562 6.565,4.5562 1.5137,0 2.9025,-0.5162 3.9112,-1.4 1.1363,-1.0087 1.7688,-2.4625 1.7688,-4.1025 m -13.445,5.1763 -5.9325,-10.9838 5.5537,-7.0062 -3.66,0 -5.6812,7.1325 0,-7.1325 -2.8388,0 0,17.99 2.8388,0 0,-6.185 1.8925,-2.3375 4.5475,8.5225 3.28,0 z m -14.6413,0 0,-2.6513 -8.3325,0 0,-15.3387 -2.84,0 0,17.99 11.1725,0 z m -19.1237,-7.9538 -3.5975,0 1.8287,-5.0487 1.7688,5.0487 z m 5.8075,7.9538 -6.1875,-17.99 -2.84,0 -6.1863,17.99 3.0313,0 1.7662,-5.0513 5.6175,0 1.7688,5.0513 3.03,0 z m -15.7163,-17.99 -2.9037,0 -1.3888,9.4675 -2.335,-9.4675 -2.7775,0 -2.2712,9.4675 -1.3888,-9.4675 -2.9037,0 2.65,17.99 2.525,0 2.7775,-11.5513 2.84,11.5513 2.5262,0 2.65,-17.99 z"
       style="fill:#000000;fill-opacity:1;fill-rule:evenodd;stroke:none"
       id="path6717" />
    <path
       inkscape:connector-curvature="0"
       d="m 1978.2659,-5868.7151 0,-1.8938 -8.3288,0 0,1.8938 3.0763,0 0,11.5975 2.13,0 0,-11.5975 3.1225,0 z m -12.5888,5.6337 -2.6962,0 1.3712,-3.7875 1.325,3.7875 z m 4.355,5.9638 -4.6387,-13.4913 -2.13,0 -4.6375,13.4913 2.2725,0 1.325,-3.785 4.2112,0 1.3238,3.785 2.2737,0 z"
       style="fill:#000000;fill-opacity:1;fill-rule:evenodd;stroke:none"
       id="path6721" />
  </g>
</svg>
