<?xml version="1.0" encoding="UTF-8" standalone="no"?>
<!-- Created with Inkscape (http://www.inkscape.org/) -->

<svg
   xmlns:dc="http://purl.org/dc/elements/1.1/"
   xmlns:cc="http://creativecommons.org/ns#"
   xmlns:rdf="http://www.w3.org/1999/02/22-rdf-syntax-ns#"
   xmlns:svg="http://www.w3.org/2000/svg"
   xmlns="http://www.w3.org/2000/svg"
   xmlns:sodipodi="http://sodipodi.sourceforge.net/DTD/sodipodi-0.dtd"
   xmlns:inkscape="http://www.inkscape.org/namespaces/inkscape"
   width="109"
   height="163.03125"
   id="svg2"
   sodipodi:version="0.32"
   inkscape:version="0.48.2 r9819"
   version="1.0"
   sodipodi:docname="AJAX1.svg"
   inkscape:output_extension="org.inkscape.output.svg.inkscape">
  <defs
     id="defs4">
    <inkscape:perspective
       sodipodi:type="inkscape:persp3d"
       inkscape:vp_x="0 : 300.5 : 1"
       inkscape:vp_y="0 : 1000 : 0"
       inkscape:vp_z="601 : 300.5 : 1"
       inkscape:persp3d-origin="300.5 : 200.33333 : 1"
       id="perspective3380" />
    <inkscape:perspective
       id="perspective3990"
       inkscape:persp3d-origin="375 : 250 : 1"
       inkscape:vp_z="750 : 375 : 1"
       inkscape:vp_y="0 : 1000 : 0"
       inkscape:vp_x="0 : 375 : 1"
       sodipodi:type="inkscape:persp3d" />
  </defs>
  <sodipodi:namedview
     id="base"
     pagecolor="#ffffff"
     bordercolor="#666666"
     borderopacity="1.0"
     gridtolerance="10000"
     guidetolerance="10"
     objecttolerance="10"
     inkscape:pageopacity="0.0"
     inkscape:pageshadow="2"
     inkscape:zoom="2.5733334"
     inkscape:cx="81.46404"
     inkscape:cy="105.73086"
     inkscape:document-units="px"
     inkscape:current-layer="layer1"
     width="601px"
     height="601px"
     inkscape:window-width="1280"
     inkscape:window-height="1004"
     inkscape:window-x="-8"
     inkscape:window-y="-8"
     showgrid="false"
     fit-margin-top="0"
     fit-margin-left="0"
     fit-margin-right="0"
     fit-margin-bottom="0"
     inkscape:window-maximized="1" />
  <metadata
     id="metadata7">
    <rdf:RDF>
      <cc:Work
         rdf:about="">
        <dc:format>image/svg+xml</dc:format>
        <dc:type
           rdf:resource="http://purl.org/dc/dcmitype/StillImage" />
        <dc:title></dc:title>
      </cc:Work>
    </rdf:RDF>
  </metadata>
  <g
     inkscape:label="Layer 1"
     inkscape:groupmode="layer"
     id="layer1"
     transform="translate(-2507.7813,6623.2812)">
    <rect
       style="color:#000000;fill:#000000;fill-opacity:1;fill-rule:nonzero;stroke:none;stroke-width:0.8735441;marker:none;visibility:visible;display:inline;overflow:visible"
       id="rect3653"
       width="0"
       height="27.202072"
       x="578.73834"
       y="298.1684"
       rx="249.48199"
       ry="27.202072" />
    <path
       inkscape:connector-curvature="0"
       d="m 2518.4021,-6622.7667 87.7512,0 c 5.5763,0 10.1238,4.5488 10.1238,10.125 l 0,141.7513 c 0,5.5762 -4.5475,10.125 -10.1238,10.125 l -87.7512,0 c -5.5763,0 -10.125,-4.5488 -10.125,-10.125 l 0,-141.7513 c 0,-5.5063 4.6187,-10.125 10.125,-10.125"
       style="fill:#ffffff;fill-opacity:1;fill-rule:nonzero;stroke:#000000;stroke-width:1;stroke-linecap:butt;stroke-linejoin:miter;stroke-miterlimit:4;stroke-opacity:1;stroke-dasharray:none"
       id="path6725" />
    <path
       inkscape:connector-curvature="0"
       style="fill:#000000;fill-opacity:1;fill-rule:evenodd;stroke:none"
       d="m 2518.4375,-6620.25 c -4.1725,0.016 -7.61,3.45 -7.625,7.625 l 0,141.6875 c 0.015,4.1775 3.4525,7.605 7.625,7.625 l 87.6875,0 c 4.1837,-0.02 7.5987,-3.4475 7.625,-7.625 l 0,-141.6875 c -0.026,-4.175 -3.4413,-7.6087 -7.625,-7.625 l -87.6875,0 z m 0.031,2.9688 87.625,0 c 2.6062,0.015 4.6725,2.1125 4.6875,4.7187 l 0,141.5938 c -0.015,2.5937 -2.0813,4.72 -4.6875,4.7187 l -87.625,0 c -2.605,0 -4.705,-2.125 -4.7188,-4.7187 l 0,-141.5938 c 0.014,-2.6062 2.1138,-4.7037 4.7188,-4.7187 z"
       id="path6729" />
    <path
       inkscape:connector-curvature="0"
       d="m 2555.8071,-6560.3414 -9.32,-16.5012 0,16.5012 -3.8475,0 0,-24.3675 3.8475,0 8.8925,15.5613 0,-15.5613 3.8475,0 0,24.3675 -3.42,0 z"
       style="fill:#000000;fill-opacity:1;fill-rule:nonzero;stroke:none"
       id="path6737" />
    <path
       inkscape:connector-curvature="0"
       d="m 2581.7983,-6572.4825 c 0,-3.0775 -0.5987,-6.1562 -1.625,-8.2937 -1.5387,-2.9913 -3.6762,-4.36 -6.7537,-4.36 -2.8225,0 -4.7888,0.855 -6.2413,2.7362 -1.625,2.3087 -2.6512,5.8988 -2.6512,9.9175 0,2.9075 0.685,6.1563 1.71,8.2088 1.4537,2.9925 3.5912,4.36 7.0112,4.36 2.565,0 4.5313,-0.855 5.8988,-2.7363 1.71,-2.1375 2.6512,-5.985 2.6512,-9.8325 m -3.8475,0 c 0,1.8813 -0.4275,4.275 -0.9412,5.5575 -0.8538,2.1375 -1.9663,3.0788 -3.7613,3.0788 -1.5387,0 -2.565,-0.5988 -3.335,-1.8813 -0.94,-1.5387 -1.4537,-4.19 -1.4537,-6.755 0,-2.0512 0.3425,-4.275 0.9412,-5.7275 0.855,-2.1375 2.0525,-3.0787 3.9338,-2.9925 1.4525,0.085 2.3937,0.5988 3.1625,1.88 0.9412,1.625 1.4537,4.105 1.4537,6.84"
       style="fill:#000000;fill-opacity:1;fill-rule:nonzero;stroke:none"
       id="path6741" />
    <path
       inkscape:connector-curvature="0"
       d="m 2526.1371,-6537.4089 c 0,-2.305 -1.44,-3.84 -3.6,-3.84 l -4.0813,0 0,13.68 1.9688,0 0,-6 2.1125,0 c 2.3037,0 3.6,-1.3437 3.6,-3.84 m -1.92,0 c 0,1.2475 -0.6238,1.9675 -1.7763,1.9675 l -2.0162,0 0,-3.8875 2.0162,0 c 1.0563,0 1.7763,0.7675 1.7763,1.92"
       style="fill:#000000;fill-opacity:1;fill-rule:nonzero;stroke:none"
       id="path6745" />
    <path
       inkscape:connector-curvature="0"
       d="m 2528.0083,-6527.5688 0,-13.6799 6.4325,0 0,1.92 -4.465,0 0,3.4562 2.8325,0 0,1.8713 -2.8325,0 0,4.5124 4.9913,0 0,1.92 -6.9588,0 z"
       style="fill:#000000;fill-opacity:1;fill-rule:nonzero;stroke:none"
       id="path6749" />
    <path
       inkscape:connector-curvature="0"
       d="m 2544.9521,-6534.4325 c 0,-1.0563 -0.145,-2.2562 -0.3363,-3.265 -0.24,-1.3912 -0.8162,-2.4475 -1.6325,-3.0237 -0.4787,-0.3838 -1.055,-0.5275 -2.2075,-0.5275 l -3.5037,0 0,13.6799 3.7912,0 c 0.7688,0 1.4413,-0.1924 1.92,-0.6237 1.345,-1.0562 1.9688,-3.0725 1.9688,-6.24 m -1.92,0.095 c 0,1.0563 -0.096,2.0163 -0.1925,2.88 -0.1913,1.0563 -0.8163,1.9687 -1.9675,1.9687 l -1.6325,0 0,-9.8399 1.6325,0 c 0.8637,0 1.4387,0.4312 1.7762,1.3912 0.2388,0.5763 0.3838,2.065 0.3838,3.6"
       style="fill:#000000;fill-opacity:1;fill-rule:nonzero;stroke:none"
       id="path6753" />
    <path
       inkscape:connector-curvature="0"
       d="m 2547.6396,-6527.5688 0,-13.6799 6.4325,0 0,1.92 -4.465,0 0,3.4562 2.8325,0 0,1.8713 -2.8325,0 0,4.5124 4.9912,0 0,1.92 -6.9587,0 z"
       style="fill:#000000;fill-opacity:1;fill-rule:nonzero;stroke:none"
       id="path6757" />
    <path
       inkscape:connector-curvature="0"
       d="m 2560.0708,-6527.3287 c -2.4,0 -3.84,-2.0163 -3.84,-4.2725 l 1.92,0 c 0,1.1525 0.5763,2.3525 1.92,2.3525 1.0563,0 1.92,-0.96 1.92,-2.0638 0,-0.7687 -0.2887,-1.3437 -1.1037,-1.9687 -0.2888,-0.2876 0.48,0.24 -2.3038,-1.6313 -1.105,-0.7687 -1.6812,-1.825 -1.6812,-3.025 0,-1.9675 1.5375,-3.5513 3.505,-3.5513 1.92,0 3.4087,1.4888 3.4562,3.5513 l -1.8725,0 c -0.049,-0.96 -0.72,-1.5837 -1.5837,-1.5837 -0.9125,0 -1.6325,0.6725 -1.6325,1.5837 0,0.6725 0.2887,1.0562 1.2962,1.6325 2.64,1.5363 3.7925,3.0238 3.7925,4.9925 0,2.2075 -1.68,3.9838 -3.7925,3.9838"
       style="fill:#000000;fill-opacity:1;fill-rule:nonzero;stroke:none"
       id="path6761" />
    <path
       inkscape:connector-curvature="0"
       d="m 2569.5746,-6539.425 0,11.8562 -1.9675,0 0,-11.8562 -2.4963,0 0,-1.8237 6.96,0 0,1.8237 -2.4962,0 z"
       style="fill:#000000;fill-opacity:1;fill-rule:nonzero;stroke:none"
       id="path6765" />
    <path
       inkscape:connector-curvature="0"
       d="m 2581.6221,-6527.5688 -1.9688,-6.7199 c 1.2975,-0.48 1.9688,-1.68 1.9688,-3.3125 0,-2.2075 -1.4413,-3.6475 -3.6,-3.6475 l -4.08,0 0,13.6799 1.9675,0 0,-6.4324 1.8712,0 1.825,6.4324 2.0163,0 z m -1.92,-10.0324 c 0,1.1037 -0.625,1.7287 -1.7763,1.7287 l -2.0162,0 0,-3.4562 2.0162,0 c 1.055,0 1.7763,0.6725 1.7763,1.7275"
       style="fill:#000000;fill-opacity:1;fill-rule:nonzero;stroke:none"
       id="path6769" />
    <path
       inkscape:connector-curvature="0"
       d="m 2583.925,-6541.2487 1.9212,0 0,13.6799 -1.9212,0 0,-13.6799 z"
       style="fill:#000000;fill-opacity:1;fill-rule:nonzero;stroke:none"
       id="path6771" />
    <path
       inkscape:connector-curvature="0"
       d="m 2596.5496,-6527.5688 -3.4088,-13.6799 -1.92,0 -3.4075,13.6799 1.9675,0 0.9125,-3.7437 2.9275,0 0.9613,3.7437 1.9675,0 z m -3.4088,-5.6637 -1.9675,0 0.96,-3.9362 1.0075,3.9362 z"
       style="fill:#000000;fill-opacity:1;fill-rule:nonzero;stroke:none"
       id="path6775" />
    <path
       inkscape:connector-curvature="0"
       d="m 2604.6121,-6527.5688 -4.2238,-9.1687 0,9.1687 -1.9675,0 0,-13.6799 1.9675,0 3.7438,8.2075 0,-8.2075 1.9687,0 0,13.6799 -1.4887,0 z"
       style="fill:#000000;fill-opacity:1;fill-rule:nonzero;stroke:none"
       id="path6779" />
    <path
       inkscape:connector-curvature="0"
       d="m 2531.7508,-6507.6014 c -0.1912,-1.3437 -0.7187,-1.9675 -1.6312,-1.9675 -1.5838,0 -2.16,1.2475 -2.16,4.8 0,3.935 0.6725,5.52 2.3525,5.52 1.1525,0 1.4387,-0.96 1.4387,-1.9687 l 1.9688,0 c -0.049,2.2562 -1.4875,3.8887 -3.4075,3.8887 -2.9288,0 -4.2238,-2.3525 -4.2238,-7.3925 0,-4.4162 1.3913,-6.7675 4.08,-6.7675 1.1025,0 2.0638,0.48 2.6875,1.3913 0.5275,0.6725 0.72,1.2487 0.8638,2.4962 l -1.9688,0 z"
       style="fill:#000000;fill-opacity:1;fill-rule:nonzero;stroke:none"
       id="path6783" />
    <path
       inkscape:connector-curvature="0"
       d="m 2544.1346,-6497.5689 -1.9675,-6.72 c 1.2962,-0.48 1.9675,-1.68 1.9675,-3.3125 0,-2.2075 -1.4388,-3.6475 -3.5988,-3.6475 l -4.08,0 0,13.68 1.9675,0 0,-6.4325 1.8725,0 1.8238,6.4325 2.015,0 z m -1.92,-10.0325 c 0,1.1038 -0.6238,1.7288 -1.775,1.7288 l -2.0163,0 0,-3.4563 2.0163,0 c 1.0562,0 1.775,0.6713 1.775,1.7275"
       style="fill:#000000;fill-opacity:1;fill-rule:nonzero;stroke:none"
       id="path6787" />
    <path
       inkscape:connector-curvature="0"
       d="m 2554.2158,-6504.4325 c 0,-2.065 -0.1925,-3.36 -0.7687,-4.705 -0.6725,-1.68 -1.6325,-2.3513 -3.2163,-2.3513 -1.5837,0 -2.5437,0.6713 -3.2637,2.3038 -0.5763,1.2963 -0.7675,2.6875 -0.7675,4.7525 0,2.1113 0.1912,3.4075 0.7675,4.7513 0.6725,1.6325 1.6325,2.3525 3.2637,2.3525 1.5363,0 2.5438,-0.72 3.2163,-2.3525 0.5762,-1.2963 0.7687,-2.64 0.7687,-4.7513 m -1.8725,0 c 0,1.5838 -0.096,2.4 -0.4325,3.5038 -0.335,1.1512 -0.8637,1.68 -1.68,1.68 -0.8637,0 -1.3912,-0.5288 -1.7275,-1.68 -0.2887,-1.1038 -0.4325,-1.9688 -0.4325,-3.4563 0,-1.5362 0.096,-2.4475 0.4325,-3.5037 0.3363,-1.1525 0.8638,-1.6801 1.7275,-1.6801 0.8163,0 1.345,0.5276 1.68,1.7275 0.2888,1.0088 0.4325,1.8726 0.4325,3.4088"
       style="fill:#000000;fill-opacity:1;fill-rule:nonzero;stroke:none"
       id="path6791" />
    <path
       inkscape:connector-curvature="0"
       d="m 2560.1183,-6497.3287 c -2.3987,0 -3.84,-2.0163 -3.84,-4.2725 l 1.92,0 c 0,1.1525 0.5763,2.3525 1.92,2.3525 1.0563,0 1.9213,-0.96 1.9213,-2.0638 0,-0.7687 -0.2888,-1.3437 -1.105,-1.9687 -0.2888,-0.2876 0.4812,0.24 -2.3038,-1.6325 -1.1037,-0.7675 -1.68,-1.8238 -1.68,-3.0238 0,-1.9675 1.5363,-3.5513 3.5038,-3.5513 1.92,0 3.4087,1.4876 3.4562,3.5513 l -1.8712,0 c -0.049,-0.96 -0.7213,-1.5837 -1.585,-1.5837 -0.9113,0 -1.6325,0.6725 -1.6325,1.5837 0,0.6725 0.2887,1.0562 1.2962,1.6325 2.6413,1.5363 3.7925,3.0238 3.7925,4.9925 0,2.2075 -1.68,3.9838 -3.7925,3.9838"
       style="fill:#000000;fill-opacity:1;fill-rule:nonzero;stroke:none"
       id="path6795" />
    <path
       inkscape:connector-curvature="0"
       d="m 2569.3833,-6497.3287 c -2.4,0 -3.8412,-2.0163 -3.8412,-4.2725 l 1.92,0 c 0,1.1525 0.5762,2.3525 1.9212,2.3525 1.055,0 1.9188,-0.96 1.9188,-2.0638 0,-0.7687 -0.2875,-1.3437 -1.1038,-1.9687 -0.2875,-0.2876 0.48,0.24 -2.3037,-1.6325 -1.105,-0.7675 -1.6813,-1.8238 -1.6813,-3.0238 0,-1.9675 1.5375,-3.5513 3.505,-3.5513 1.92,0 3.4088,1.4876 3.4563,3.5513 l -1.8725,0 c -0.047,-0.96 -0.7188,-1.5837 -1.5838,-1.5837 -0.9112,0 -1.6312,0.6725 -1.6312,1.5837 0,0.6725 0.2875,1.0562 1.2962,1.6325 2.6388,1.5363 3.7913,3.0238 3.7913,4.9925 0,2.2075 -1.68,3.9838 -3.7913,3.9838"
       style="fill:#000000;fill-opacity:1;fill-rule:nonzero;stroke:none"
       id="path6799" />
    <path
       inkscape:connector-curvature="0"
       d="m 2575.4787,-6511.2487 1.92,0 0,13.6799 -1.92,0 0,-13.6799 z"
       style="fill:#000000;fill-opacity:1;fill-rule:nonzero;stroke:none"
       id="path6801" />
    <path
       inkscape:connector-curvature="0"
       d="m 2586.6146,-6497.5689 -4.225,-9.1687 0,9.1687 -1.9675,0 0,-13.68 1.9675,0 3.7437,8.2075 0,-8.2075 1.9688,0 0,13.68 -1.4875,0 z"
       style="fill:#000000;fill-opacity:1;fill-rule:nonzero;stroke:none"
       id="path6805" />
    <path
       inkscape:connector-curvature="0"
       d="m 2598.0858,-6499.2487 c -0.5287,1.2 -1.6325,1.92 -3.0237,1.92 -1.6325,0 -2.8325,-0.8163 -3.505,-2.3525 -0.4325,-1.0075 -0.72,-2.9275 -0.72,-4.7038 0,-1.92 0.1437,-3.3125 0.625,-4.6075 0.48,-1.44 1.8712,-2.4963 3.455,-2.4963 1.9687,0 3.4562,1.4401 3.5512,3.4563 l -1.9675,0 c -0.047,-0.9125 -0.6712,-1.5363 -1.6325,-1.5363 -0.6712,0 -1.2,0.3363 -1.535,1.0076 -0.3837,0.6725 -0.6237,2.2075 -0.6237,3.84 0,1.1524 0.096,2.3525 0.2875,3.4087 0.2887,1.3438 0.96,2.0638 2.0162,2.0638 1.0075,0 1.4875,-0.6725 1.4875,-2.1125 l 0,-0.9113 -1.5362,0 0,-1.92 3.5037,0 0,2.8313 c 0,0.96 -0.095,1.5362 -0.3825,2.1125"
       style="fill:#000000;fill-opacity:1;fill-rule:nonzero;stroke:none"
       id="path6809" />
  </g>
</svg>
