<?xml version="1.0" encoding="UTF-8" standalone="no"?>
<!-- Generator: Adobe Illustrator 12.0.1, SVG Export Plug-In  -->

<svg
   xmlns:dc="http://purl.org/dc/elements/1.1/"
   xmlns:cc="http://creativecommons.org/ns#"
   xmlns:rdf="http://www.w3.org/1999/02/22-rdf-syntax-ns#"
   xmlns:svg="http://www.w3.org/2000/svg"
   xmlns="http://www.w3.org/2000/svg"
   xmlns:sodipodi="http://sodipodi.sourceforge.net/DTD/sodipodi-0.dtd"
   xmlns:inkscape="http://www.inkscape.org/namespaces/inkscape"
   version="1.1"
   width="306.8125"
   height="205.03125"
   viewBox="-0.999 0 306.8125 205.03125"
   enable-background="new -0.999 0 289 289"
   xml:space="preserve"
   id="svg2"
   inkscape:version="0.48.2 r9819"
   sodipodi:docname="AJAX1.svg"><metadata
   id="metadata18"><rdf:RDF><cc:Work
       rdf:about=""><dc:format>image/svg+xml</dc:format><dc:type
         rdf:resource="http://purl.org/dc/dcmitype/StillImage" /><dc:title></dc:title></cc:Work></rdf:RDF></metadata><sodipodi:namedview
   pagecolor="#ffffff"
   bordercolor="#666666"
   borderopacity="1"
   objecttolerance="10"
   gridtolerance="10"
   guidetolerance="10"
   inkscape:pageopacity="0"
   inkscape:pageshadow="2"
   inkscape:window-width="1280"
   inkscape:window-height="1004"
   id="namedview16"
   showgrid="false"
   fit-margin-top="0"
   fit-margin-left="0"
   fit-margin-right="0"
   fit-margin-bottom="0"
   inkscape:zoom="1.8901801"
   inkscape:cx="138.14173"
   inkscape:cy="127.91222"
   inkscape:window-x="-8"
   inkscape:window-y="-8"
   inkscape:window-maximized="1"
   inkscape:current-layer="svg2"
   showguides="true"
   inkscape:guide-bbox="true" />
<defs
   id="defs4">
</defs>





<path
   inkscape:connector-curvature="0"
   d="m 25.18512,204.28501 c -13.993749,0 -25.443749,-11.45 -25.443749,-25.44375 l 0,-152.6625 c 0,-13.99375 11.45,-25.44375 25.443749,-25.44375 l 254.4375,0 c 13.99375,0 25.4425,11.45 25.4425,25.44375 l 0,152.6625 c 0,13.99375 -11.44875,25.44375 -25.4425,25.44375 l -254.4375,0 z"
   style="fill:#ffffff;fill-opacity:1;fill-rule:nonzero;stroke:#000000;stroke-width:1.5;stroke-miterlimit:4;stroke-opacity:1;stroke-dasharray:none"
   id="path8026" /><path
   inkscape:connector-curvature="0"
   d="m 298.70486,178.84124 0,-152.6625 c 0,-10.495 -8.5875,-19.0825 -19.0825,-19.0825 l -254.4375,0 c -10.495,0 -19.082498,8.5875 -19.082498,19.0825 l 0,152.6625 c 0,10.495 8.587498,19.0825 19.082498,19.0825 l 254.4375,0 c 10.495,0 19.0825,-8.5875 19.0825,-19.0825 m -273.52,12.72125 c -6.99625,0 -12.721248,-5.72375 -12.721248,-12.72125 l 0,-152.6625 c 0,-6.99625 5.724998,-12.72125 12.721248,-12.72125 l 254.4375,0 c 6.99625,0 12.72125,5.725 12.72125,12.72125 l 0,152.6625 c 0,6.9975 -5.725,12.72125 -12.72125,12.72125 l -254.4375,0 z"
   style="fill:#000000;fill-opacity:1;fill-rule:nonzero;stroke:none"
   id="path8034" /><path
   inkscape:connector-curvature="0"
   d="m 70.72489,74.59699 0,-35.715 -7.3225,0 0,36.6075 c 0,4.8225 -2.85625,8.0375 -6.78875,8.0375 -4.2875,0 -7.1425,-3.215 -7.1425,-8.0375 l 0,-36.6075 -7.32375,0 0,35.715 c 0,4.10875 0.53625,6.24625 1.96375,8.93 2.50375,4.2825 7.5025,7.17125 12.5025,7.17125 4.8225,0 9.65,-3.06625 12.1475,-7.17125 1.42875,-2.68375 1.96375,-4.82125 1.96375,-8.93 m 36.7975,1.25 c 0,-7.3225 -4.28375,-12.855 -14.11375,-18.57125 -3.74625,-2.14375 -4.81875,-3.5725 -4.81875,-6.07125 0,-3.3925 2.68125,-5.89375 6.07,-5.89375 3.21625,0 5.72,2.3225 5.89625,5.89375 l 6.96625,0 c -0.17875,-7.6775 -5.71875,-13.21375 -12.8625,-13.21375 -7.32125,0 -13.03625,5.89375 -13.03625,13.21375 0,4.465 2.1425,8.3925 6.25,11.2475 10.3575,6.96625 7.5025,5.0025 8.57625,6.0725 3.03375,2.3225 4.10625,4.465 4.10625,7.3225 0,4.1075 -3.21625,7.68 -7.1475,7.68 -4.99875,0 -7.1425,-4.4675 -7.1425,-8.7525 l -7.14625,0 c 0,8.3875 5.3625,15.92375 14.28875,15.92375 7.86375,0 14.11375,-6.63875 14.11375,-14.85125 m 34.47375,13.92875 0,-7.1425 -18.5775,0 0,-16.7875 10.5425,0 0,-6.96 -10.5425,0 0,-12.86 16.61375,0 0,-7.14375 -23.93625,0 0,50.89375 25.9,0"
   style="fill:#000000;fill-opacity:1;fill-rule:evenodd;stroke:none"
   id="path8038" /><path
   inkscape:connector-curvature="0"
   d="m 43.53562,154.05374 -6.61375,0 c 0,4.46125 -1.06875,6.24625 -3.3875,6.24625 -2.14875,0 -3.4,-1.785 -4.1125,-5.1775 -0.895,-4.2875 -1.07,-7.32125 -1.07,-14.4675 0,-6.7825 0.175,-10.5325 1.07,-14.64125 0.7125,-3.39125 1.96375,-5.00125 4.28375,-5.00125 1.7925,0 3.04125,1.07125 3.21625,3.21875 l 6.61375,0 c -0.54,-6.25 -4.29,-9.82125 -10.00125,-9.82125 -6.07875,0 -9.11,3.035 -10.54625,10.88875 -0.71125,3.92875 -1.24875,10.7175 -1.24875,15.35625 0,8.21375 0.71625,15.1825 2.145,19.465 1.61,4.6475 4.8225,6.82125 10.0025,6.82125 4.4675,0 8.04125,-2.355 8.9325,-6.10125 0.53625,-1.79 0.71625,-2.85875 0.71625,-6.78625 m 31.43625,-24.6425 c 0,-9.46875 -4.11,-14.29 -11.9675,-14.29 l -10.005,0 0,50.8925 6.4325,0 0,-23.75 3.035,0 5.71625,23.75 6.60625,0 -5.18,-25.35875 c 3.755,-2.31875 5.3625,-5.535 5.3625,-11.24375 m -6.61,-0.18375 c 0,4.825 -1.0725,6.42875 -4.64625,6.42875 l -4.28375,0 0,-13.93 3.21625,0 c 4.46125,0 5.71375,1.79125 5.71375,7.50125 m 36.62125,11.25 c 0,-8.5725 0.71125,-26.0675 -11.795,-26.0675 -12.50125,0 -11.785,17.32 -11.785,26.0675 0,8.39125 -0.89625,26.46375 11.785,26.46375 12.50625,0 11.795,-18.0725 11.795,-26.46375 m -6.79,0 c 0,3.39625 0.715,19.8225 -5.005,19.8225 -5.89375,0 -5.18125,-16.42625 -5.18125,-19.8225 0,-3.57 -0.7125,-19.465 5.18125,-19.465 4.82375,0 5.005,15.36 5.005,19.465 m 35.1875,14.645 c 0,-3.57625 -1.0725,-7.86 -2.49875,-11.07125 -1.60875,-3.21625 -2.50375,-4.46625 -8.04,-10.7125 -2.6775,-2.86 -3.57125,-4.64875 -3.57125,-6.96625 0,-3.39625 1.42375,-5.535 3.9275,-5.535 2.32,0 3.395,1.6075 3.57125,5.535 l 6.61125,0 c -0.7175,-8.035 -4.1075,-11.9625 -10.35875,-11.9625 -6.07375,0 -10.36125,4.9975 -10.36125,11.9625 0,3.56875 1.2475,7.14125 4.1075,10.535 0.53625,0.71375 2.14375,2.6775 4.46625,5.35625 3.9275,4.64125 5.535,8.39125 5.535,12.85875 0,3.21375 -1.6075,5.1775 -4.11125,5.1775 -1.96375,0 -3.57125,-1.25 -4.10125,-3.21375 -0.36,-1.07125 -0.5375,-1.785 -0.5375,-3.75125 l -6.61125,0 c 0.36125,8.93 4.1075,13.60625 11.25,13.60625 2.685,0 5.0075,-0.9275 6.615,-2.355 2.49875,-2.14375 4.1075,-5.89125 4.1075,-9.46375 m 26.79375,0 c 0,-3.57625 -1.0725,-7.86 -2.49875,-11.07125 -1.61125,-3.21625 -2.50375,-4.46625 -8.0425,-10.7125 -2.67875,-2.86 -3.5725,-4.64875 -3.5725,-6.96625 0,-3.39625 1.43375,-5.535 3.9325,-5.535 2.32,0 3.3925,1.6075 3.57125,5.535 l 6.61,0 c -0.71625,-8.035 -4.11,-11.9625 -10.36125,-11.9625 -6.07125,0 -10.35875,4.9975 -10.35875,11.9625 0,3.56875 1.2525,7.14125 4.1075,10.535 0.5325,0.71375 2.14375,2.6775 4.4625,5.35625 3.9325,4.64125 5.54,8.39125 5.54,12.85875 0,3.21375 -1.6075,5.1775 -4.10625,5.1775 -1.96375,0 -3.5725,-1.25 -4.1125,-3.21375 -0.355,-1.07125 -0.53125,-1.785 -0.53125,-3.75125 l -6.61125,0 c 0.35625,8.93 4.1125,13.60625 11.255,13.60625 2.67875,0 4.9975,-0.9275 6.60625,-2.355 2.50375,-2.14375 4.11,-5.89125 4.11,-9.46375 m 36.26,-40.00125 -6.61125,0 -2.675,23.57 -4.11125,-23.57 -5.535,0 -4.1125,23.57 -2.6775,-23.57 -6.61,0 5.89875,50.8925 5.535,0 4.64125,-28.5725 4.825,28.5725 5.535,0 5.8975,-50.8925 z m 30.54625,50.8925 -10.545,-50.8925 -6.60375,0 -10.3625,50.8925 6.6075,0 2.85875,-13.57125 8.39375,0 2.86,13.57125 6.79125,0 z m -11.07375,-20.17625 -5.54375,0 2.86,-13.395 2.68375,13.395 z m 37.51125,20.17625 0,-5.89375 -13.04125,0 0,-44.99875 -6.435,0 0,50.8925 19.47625,0 z m 29.65,0 -9.11375,-33.39625 8.3975,-17.49625 -7.5025,0 -8.0375,16.25375 0,-16.25375 -6.43125,0 0,50.8925 6.43125,0 0,-19.10875 2.50125,-4.9975 6.78875,24.10625 6.96625,0"
   style="fill:#000000;fill-opacity:1;fill-rule:evenodd;stroke:none"
   id="path8042" /><path
   inkscape:connector-curvature="0"
   d="M 215.3885,96.34275 262.65975,64.369 215.3885,32.34525 c -2.08625,-1.41625 -4.935,-0.875 -6.3525,1.21125 -0.9475,1.38875 -0.78,2.8325 -0.34,4.545 l 4.16375,13.87625 -52.92125,0 0,24.76625 52.92125,0 -4.0725,13.65375 c -0.52375,1.88375 -0.7425,3.27875 0.24875,4.7375 1.4175,2.08125 4.26625,2.6275 6.3525,1.2075"
   style="fill:#000000;fill-opacity:1;fill-rule:evenodd;stroke:none"
   id="path8046" /></svg>