<?xml version="1.0" encoding="UTF-8" standalone="no"?>
<!-- Generator: Adobe Illustrator 12.0.1, SVG Export Plug-In  -->

<svg
   xmlns:dc="http://purl.org/dc/elements/1.1/"
   xmlns:cc="http://creativecommons.org/ns#"
   xmlns:rdf="http://www.w3.org/1999/02/22-rdf-syntax-ns#"
   xmlns:svg="http://www.w3.org/2000/svg"
   xmlns="http://www.w3.org/2000/svg"
   xmlns:sodipodi="http://sodipodi.sourceforge.net/DTD/sodipodi-0.dtd"
   xmlns:inkscape="http://www.inkscape.org/namespaces/inkscape"
   version="1.1"
   width="279.84375"
   height="279.875"
   viewBox="-0.999 0 279.84375 279.875"
   enable-background="new -0.999 0 289 289"
   xml:space="preserve"
   id="svg2"
   inkscape:version="0.48.2 r9819"
   sodipodi:docname="MUTCD R9-3b.svg"><metadata
   id="metadata18"><rdf:RDF><cc:Work
       rdf:about=""><dc:format>image/svg+xml</dc:format><dc:type
         rdf:resource="http://purl.org/dc/dcmitype/StillImage" /><dc:title></dc:title></cc:Work></rdf:RDF></metadata><sodipodi:namedview
   pagecolor="#ffffff"
   bordercolor="#666666"
   borderopacity="1"
   objecttolerance="10"
   gridtolerance="10"
   guidetolerance="10"
   inkscape:pageopacity="0"
   inkscape:pageshadow="2"
   inkscape:window-width="1280"
   inkscape:window-height="1004"
   id="namedview16"
   showgrid="false"
   fit-margin-top="0"
   fit-margin-left="0"
   fit-margin-right="0"
   fit-margin-bottom="0"
   inkscape:zoom="1.3365592"
   inkscape:cx="41.893252"
   inkscape:cy="86.680344"
   inkscape:window-x="-8"
   inkscape:window-y="-8"
   inkscape:window-maximized="1"
   inkscape:current-layer="svg2"
   showguides="true"
   inkscape:guide-bbox="true" />
<defs
   id="defs4">
</defs>





<path
   inkscape:connector-curvature="0"
   d="m 278.10976,244.33687 c 0,19.1375 -15.65875,34.79625 -34.79625,34.79625 l -208.77875,0 c -19.1375,0 -34.79625,-15.65875 -34.79625,-34.79625 l 0,-208.77875 c 0,-19.1375 15.65875,-34.79625 34.79625,-34.79625 l 208.77875,0 c 19.1375,0 34.79625,15.65875 34.79625,34.79625 l 0,208.77875"
   style="fill:#ffffff;fill-opacity:1;fill-rule:nonzero;stroke:#000000;stroke-width:1.5;stroke-miterlimit:4;stroke-opacity:1;stroke-dasharray:none"
   id="path7562" /><path
   inkscape:connector-curvature="0"
   d="m 259.2505,244.33687 c 0,8.765 -7.1725,15.93625 -15.9375,15.93625 l -208.7775,0 c -8.765,0 -15.9375,-7.17125 -15.9375,-15.93625 l 0,-208.77875 c 0,-8.765 7.1725,-15.93625 15.9375,-15.93625 l 208.7775,0 c 8.765,0 15.9375,7.17125 15.9375,15.93625 l 0,208.77875 z m -15.9375,-234.875 -208.7775,0 C 20.18175,9.46187 8.438,21.20562 8.438,35.55812 l 0,208.77875 c 0,14.35375 11.74375,26.0975 26.0975,26.0975 l 208.7775,0 c 14.35375,0 26.0975,-11.74375 26.0975,-26.0975 l 0,-208.77875 c 0,-14.3525 -11.74375,-26.09625 -26.0975,-26.09625"
   style="fill:#000000;fill-opacity:1;fill-rule:nonzero;stroke:none"
   id="path7586" /><path
   inkscape:connector-curvature="0"
   d="m 97.65699,53.28287 -6.8725,0 0,11.6825 6.8725,0 c 3.9175,0 5.97875,-2.13 5.97875,-5.84125 0,-3.57375 -2.405,-5.84125 -5.97875,-5.84125 m 5.70375,39.85875 -6.185,-21.785 -6.39125,0 0,21.785 -6.66625,0 0,-46.3875 13.8825,0 c 7.285,0 12.16375,4.88 12.16375,12.37 0,5.56625 -2.2675,9.62125 -6.66625,11.2025 l 6.66625,22.815 -6.80375,0"
   style="fill:#000000;fill-opacity:1;fill-rule:nonzero;stroke:none"
   id="path7590" /><path
   inkscape:connector-curvature="0"
   d="m 118.0675,46.75375 6.52875,0 0,46.3875 -6.52875,0 0,-46.3875 z"
   style="fill:#000000;fill-opacity:1;fill-rule:nonzero;stroke:none"
   id="path7592" /><path
   inkscape:connector-curvature="0"
   d="m 153.04676,57.95626 c -1.2375,-3.23 -3.0925,-4.67375 -6.0475,-4.67375 l -5.56625,0 0,33.33125 5.56625,0 c 3.9175,0 6.11625,-3.02375 6.66625,-6.6675 0.4125,-2.885 0.61875,-6.18375 0.61875,-9.7575 0,-5.22375 -0.55,-10.24 -1.2375,-12.2325 m 1.09875,33.055 c -1.7175,1.375 -3.91625,2.13125 -6.5275,2.13125 l -12.85125,0 0,-46.3875 11.88875,0 c 3.9175,0 5.84125,0.54875 7.49,1.78625 2.75,1.9925 4.67375,5.56625 5.5675,10.24 0.6175,3.435 1.1,7.49 1.1,11.06375 0,10.79 -2.2,17.525 -6.6675,21.16625"
   style="fill:#000000;fill-opacity:1;fill-rule:nonzero;stroke:none"
   id="path7596" /><path
   inkscape:connector-curvature="0"
   d="m 170.08925,93.14213 0,-46.3875 21.85375,0 0,6.52875 -15.1875,0 0,11.6825 9.62125,0 0,6.39125 -9.62125,0 0,15.25625 16.97375,0 0,6.52875 -23.64,0 z"
   style="fill:#000000;fill-opacity:1;fill-rule:nonzero;stroke:none"
   id="path7600" /><path
   inkscape:connector-curvature="0"
   d="m 111.22987,162.73487 -5.70375,0 -4.39875,-24.25875 -4.3975,24.25875 -5.8425,0 -7.3525,-46.3875 6.52875,0 3.9175,24.74 4.535,-24.74 5.2225,0 4.39875,24.74 4.055,-24.74 6.52875,0 -7.49125,46.3875 z"
   style="fill:#000000;fill-opacity:1;fill-rule:nonzero;stroke:none"
   id="path7604" /><path
   inkscape:connector-curvature="0"
   d="m 125.18,116.34625 6.52875,0 0,46.3875 -6.52875,0 0,-46.3875 z"
   style="fill:#000000;fill-opacity:1;fill-rule:nonzero;stroke:none"
   id="path7606" /><path
   inkscape:connector-curvature="0"
   d="m 153.356,122.53188 0,40.2025 -6.735,0 0,-40.2025 -8.4525,0 0,-6.185 23.64,0 0,6.185 -8.4525,0 z"
   style="fill:#000000;fill-opacity:1;fill-rule:nonzero;stroke:none"
   id="path7610" /><path
   inkscape:connector-curvature="0"
   d="m 187.64787,162.73487 0,-21.02875 -12.71375,0 0,21.02875 -6.66625,0 0,-46.3875 6.66625,0 0,18.89875 12.71375,0 0,-18.89875 6.66625,0 0,46.3875 -6.66625,0 z"
   style="fill:#000000;fill-opacity:1;fill-rule:nonzero;stroke:none"
   id="path7614" /><path
   inkscape:connector-curvature="0"
   d="m 54.94713,192.11362 0,40.2025 -6.735,0 0,-40.2025 -8.4525,0 0,-6.185 23.64,0 0,6.185 -8.4525,0 z"
   style="fill:#000000;fill-opacity:1;fill-rule:nonzero;stroke:none"
   id="path7618" /><path
   inkscape:connector-curvature="0"
   d="m 83.39761,192.45737 -6.8725,0 0,11.6825 6.8725,0 c 3.9175,0 5.97875,-2.13 5.97875,-5.84125 0,-3.57375 -2.405,-5.84125 -5.97875,-5.84125 m 5.70375,39.85875 -6.185,-21.785 -6.39125,0 0,21.785 -6.66625,0 0,-46.3875 13.8825,0 c 7.285,0 12.16375,4.87875 12.16375,12.37 0,5.56625 -2.2675,9.62125 -6.66625,11.20125 l 6.66625,22.81625 -6.80375,0"
   style="fill:#000000;fill-opacity:1;fill-rule:nonzero;stroke:none"
   id="path7622" /><path
   inkscape:connector-curvature="0"
   d="m 114.73439,199.74212 -3.23,13.40125 6.66625,0 -3.43625,-13.40125 z m 8.315,32.57375 -3.22875,-12.7125 -9.965,0 -3.0925,12.7125 -6.66625,0 11.545,-46.3875 6.52875,0 11.545,46.3875 -6.66625,0 z"
   style="fill:#000000;fill-opacity:1;fill-rule:nonzero;stroke:none"
   id="path7626" /><path
   inkscape:connector-curvature="0"
   d="m 142.90975,192.45737 0,11.6825 9.2775,0 0,6.39125 -9.2775,0 0,21.785 -6.66625,0 0,-46.3875 23.64125,0 0,6.52875 -16.975,0 z"
   style="fill:#000000;fill-opacity:1;fill-rule:nonzero;stroke:none"
   id="path7630" /><path
   inkscape:connector-curvature="0"
   d="m 173.00987,192.45737 0,11.6825 9.2775,0 0,6.39125 -9.2775,0 0,21.785 -6.66625,0 0,-46.3875 23.64,0 0,6.52875 -16.97375,0 z"
   style="fill:#000000;fill-opacity:1;fill-rule:nonzero;stroke:none"
   id="path7634" /><path
   inkscape:connector-curvature="0"
   d="m 196.44375,185.92875 6.52875,0 0,46.3875 -6.52875,0 0,-46.3875 z"
   style="fill:#000000;fill-opacity:1;fill-rule:nonzero;stroke:none"
   id="path7636" /><path
   inkscape:connector-curvature="0"
   d="m 226.5435,233.14111 c -9.89625,0 -14.29375,-7.9725 -14.29375,-25.08375 0,-14.98125 4.6725,-22.95375 13.8125,-22.95375 7.6975,0 11.6825,6.8725 12.02625,13.195 l -6.665,0 c -0.61875,-4.53625 -2.40625,-6.66625 -5.49875,-6.66625 -5.36,0 -7.3525,4.1925 -7.3525,16.2875 0,13.3325 2.2675,18.6925 7.97125,18.6925 3.9175,0 4.88,-3.23 4.88,-6.66625 l 6.665,0 c -0.1375,7.62875 -5.01625,13.195 -11.545,13.195"
   style="fill:#000000;fill-opacity:1;fill-rule:nonzero;stroke:none"
   id="path7640" /></svg>