<?xml version="1.0" encoding="UTF-8" standalone="no"?>
<!-- Generator: Adobe Illustrator 12.0.1, SVG Export Plug-In  -->

<svg
   xmlns:dc="http://purl.org/dc/elements/1.1/"
   xmlns:cc="http://creativecommons.org/ns#"
   xmlns:rdf="http://www.w3.org/1999/02/22-rdf-syntax-ns#"
   xmlns:svg="http://www.w3.org/2000/svg"
   xmlns="http://www.w3.org/2000/svg"
   xmlns:sodipodi="http://sodipodi.sourceforge.net/DTD/sodipodi-0.dtd"
   xmlns:inkscape="http://www.inkscape.org/namespaces/inkscape"
   version="1.1"
   width="163"
   height="163.03125"
   viewBox="-0.999 0 163 163.03125"
   enable-background="new -0.999 0 289 289"
   xml:space="preserve"
   id="svg2"
   inkscape:version="0.48.2 r9819"
   sodipodi:docname="AJAX1.svg"><metadata
   id="metadata18"><rdf:RDF><cc:Work
       rdf:about=""><dc:format>image/svg+xml</dc:format><dc:type
         rdf:resource="http://purl.org/dc/dcmitype/StillImage" /><dc:title /></cc:Work></rdf:RDF></metadata><sodipodi:namedview
   pagecolor="#ffffff"
   bordercolor="#666666"
   borderopacity="1"
   objecttolerance="10"
   gridtolerance="10"
   guidetolerance="10"
   inkscape:pageopacity="0"
   inkscape:pageshadow="2"
   inkscape:window-width="1280"
   inkscape:window-height="1004"
   id="namedview16"
   showgrid="false"
   fit-margin-top="0"
   fit-margin-left="0"
   fit-margin-right="0"
   fit-margin-bottom="0"
   inkscape:zoom="1.8341804"
   inkscape:cx="6.2833959"
   inkscape:cy="10.477334"
   inkscape:window-x="-8"
   inkscape:window-y="-8"
   inkscape:window-maximized="1"
   inkscape:current-layer="svg2" />
<defs
   id="defs4">
</defs>





<path
   inkscape:connector-curvature="0"
   d="m 9.61088,0.51487 141.75125,0 c 5.57625,0 10.125,4.54875 10.125,10.125 l 0,141.7525 c 0,5.5775 -4.54875,10.12625 -10.125,10.12625 l -141.75125,0 c -5.57625,0 -10.125,-4.54875 -10.125,-10.12625 l 0,-141.7525 c 0,-5.5075 4.61625,-10.125 10.125,-10.125"
   style="fill:#ffffff;fill-opacity:1;fill-rule:nonzero;stroke:#000000;stroke-width:1;stroke-linecap:butt;stroke-linejoin:miter;stroke-miterlimit:4;stroke-opacity:1;stroke-dasharray:none"
   id="path5205" /><path
   inkscape:connector-curvature="0"
   d="m 9.63963,3.04625 141.68875,0 c 4.18125,0.0163 7.6,3.45125 7.62625,7.62625 l 0,141.6875 c -0.0263,4.1775 -3.445,7.605 -7.62625,7.6275 l -141.68875,0 c -4.1725,-0.0225 -7.61,-3.45 -7.625,-7.6275 l 0,-141.6875 c 0.015,-4.175 3.4525,-7.61 7.625,-7.62625"
   style="fill:#000000;fill-opacity:1;fill-rule:evenodd;stroke:none"
   id="path5209" /><path
   inkscape:connector-curvature="0"
   d="m 9.68088,6.00238 141.61,0 c 2.605,0.015 4.69,2.10125 4.7075,4.7075 l 0,141.61375 c -0.0175,2.5925 -2.1025,4.7075 -4.7075,4.705 l -141.61,0 c -2.6075,0.002 -4.6975,-2.1125 -4.70875,-4.705 l 0,-141.61375 c 0.0113,-2.60625 2.10125,-4.6925 4.70875,-4.7075"
   style="fill:#ffffff;fill-opacity:1;fill-rule:evenodd;stroke:none"
   id="path5213" /><path
   inkscape:connector-curvature="0"
   d="m 89.34963,62.76875 c 0.0112,-0.0175 -4.96875,-0.49 -6.39,-1.7025 L 68.10838,48.395 c -0.76875,-0.88375 -2.33875,-0.77375 -3.33875,-0.58875 -1.47,0.26375 -2.49625,1.01 -3.5925,1.98375 -0.8175,0.71375 -1.5525,1.3275 -1.98875,2.33125 -0.26375,0.61375 -0.4375,1.3275 -0.35,2 0.145,1.05875 0.8425,1.9225 1.5925,2.6275 l 16.16,15.185 c 0.97875,0.92375 2.30125,1.45875 3.69625,1.27 3.28375,-0.4175 5.05375,-4.5575 2.86625,-7.1425 l -11.48,-13.4325 12.9075,13.65125 c 1.85125,1.95125 0.77125,4.77125 -0.54875,6.175 -2.02875,2.82625 -5.74,1.86125 -5.755,1.8475 -0.0975,1.30125 -0.0587,3.635 -1.0425,4.97 -1.47625,1.99625 -4.5825,2.5675 -4.63125,2.61125 0.0175,-0.0775 1.165,3.1725 -0.25875,5.6075 -1.42375,2.43125 -3.81875,2.515 -3.78125,2.63375 0.54875,1.74625 0.615,2.57625 0.14375,3.68625 -1.63125,3.8675 -9.07,1.9925 -11.82625,1.57875 -2.87875,-0.43125 -8.15875,-2.09625 -8.62125,-2.215 -0.0437,-0.01 19.05125,4.79 19.515,-0.6325 0.16125,-1.89 -2.01625,-2.915 -3.43,-3.5575 -4.85375,-2.20875 -16.34125,-8.75375 -21.09875,-8.645 -1.19625,0.0275 -2.13125,0.64 -2.98375,1.4925 -1.09125,1.0325 -1.77,2.46125 -1.39625,3.955 0.4975,1.53875 1.18375,3.14875 1.79875,4.61875 1.44625,3.38375 3.79,6.32125 6.1575,9.0925 3.57625,4.195 7.84,7.26625 12.41,10.3025 2.7,1.795 8.7375,5.98375 17.985,8.52875 11.5,3.16125 22.35375,9.9925 22.77875,10.185 -0.22625,-0.215 4.93875,-1.18875 9.595,-11.3675 4.65625,-10.1725 9.62125,-11.2125 9.42875,-11.18375 -0.18625,0.0312 -7.1725,-6.11 -10.415,-9.51875 -3.41125,-3.57875 -6.01625,-8.2875 -7.0125,-13.12 -0.85125,-4.09625 0.215,-7.91 0.9475,-11.93625 0.5475,-2.95875 0.45,-5.6575 0.1425,-8.66375 -0.30875,-3.19875 -0.4275,-6.04 0.3075,-9.16625 0.165,-0.51875 0.31,-1.04125 0.5225,-1.53875 0.3075,-0.7825 0.63625,-1.5625 0.97125,-2.36875 0.735,-1.845 1.51625,-3.6925 2.36625,-5.4925 0.56875,-1.20875 1.27875,-2.32 2.085,-3.38625 0.4725,-0.5425 1.06375,-0.995 1.5625,-1.5625 0.23625,-0.285 0.45125,-0.615 0.66125,-0.9475 0.45375,-0.6625 0.6425,-1.16125 0.56875,-1.96625 -0.0463,-0.49625 -0.25875,-0.89875 -0.52,-1.32625 -0.615,-0.6375 -1.30125,-1.015 -2.22625,-0.945 -0.99375,0.07 -1.9175,0.3775 -2.88875,0.545 -2.39,0.3775 -4.33375,2.22375 -6.10875,3.6925 -1.565,1.2775 -3.17375,2.53375 -4.52125,4.02625 -1.06875,1.18375 -2.03875,2.50875 -2.6075,4.025 -0.7125,1.91375 -1.27375,4.5225 -1.70375,6.5825 l -1.80125,9.8725 z"
   style="fill:#000000;fill-opacity:1;fill-rule:evenodd;stroke:none"
   id="path5225" /><path
   inkscape:connector-curvature="0"
   d="m 69.93212,80.91 c 2.86625,1.82375 2.395,6.2975 -0.615,7.6725 -1.27625,0.59 -2.7,0.47375 -3.90875,-0.1175 L 45.47212,78.75375 c -0.9225,-0.4475 -1.84625,-1.0625 -2.2975,-2.03375 -0.2825,-0.6175 -0.3325,-1.35125 -0.26125,-2.015 0.12,-1.0875 0.64,-1.89375 1.20875,-2.8175 0.75875,-1.25375 1.51625,-2.27375 2.84125,-2.96125 0.90125,-0.4725 2.36875,-1.04125 3.3625,-0.42375 L 69.93212,80.91 z"
   style="fill:#000000;fill-opacity:1;fill-rule:evenodd;stroke:none"
   id="path5217" /><path
   inkscape:connector-curvature="0"
   d="m 75.62586,72.94625 c 2.54625,2.24875 1.38,6.595 -1.80375,7.4825 -1.36,0.38625 -2.745,0.0463 -3.845,-0.7275 L 51.80211,66.9975 c -0.84125,-0.59 -1.6575,-1.34375 -1.95,-2.37375 -0.18375,-0.65 -0.115,-1.38375 0.0587,-2.02625 0.285,-1.05875 0.9275,-1.77 1.63,-2.5975 0.945,-1.12 1.85375,-2.0075 3.2725,-2.4775 0.96125,-0.3275 2.5,-0.66 3.38625,0.105 l 17.42625,15.31875 z"
   style="fill:#000000;fill-opacity:1;fill-rule:evenodd;stroke:none"
   id="path5221" /><path
   inkscape:connector-curvature="0"
   d="m 125.53337,116.9275 c 7.84375,-9.86 12.32625,-22.63625 12.32625,-35.41375 0,-31.59875 -25.77375,-57.3725 -57.3725,-57.3725 -12.77625,0 -25.5525,4.4825 -35.4475,12.30875 l 80.49375,80.4775 z m -9.6075,9.65875 c -9.8925,7.8225 -22.66625,12.305 -35.43875,12.305 -31.60375,0 -57.37875,-25.77125 -57.37875,-57.3775 0,-12.7725 4.4825,-25.77125 12.3275,-35.6325 l 80.49,80.705 z M 80.48712,10.64125 c 39.035,0 70.875,31.83875 70.875,70.8725 0,39.04 -31.84,70.87875 -70.875,70.87875 -39.03875,0 -70.87625,-31.83875 -70.87625,-70.87875 0,-39.03375 31.8375,-70.8725 70.87625,-70.8725"
   style="fill:#c4122e;fill-opacity:1;fill-rule:evenodd;stroke:none"
   id="path5229" /></svg>