<?xml version="1.0" encoding="UTF-8" standalone="no"?>
<!-- Generator: Adobe Illustrator 12.0.1, SVG Export Plug-In  -->

<svg
   xmlns:dc="http://purl.org/dc/elements/1.1/"
   xmlns:cc="http://creativecommons.org/ns#"
   xmlns:rdf="http://www.w3.org/1999/02/22-rdf-syntax-ns#"
   xmlns:svg="http://www.w3.org/2000/svg"
   xmlns="http://www.w3.org/2000/svg"
   xmlns:sodipodi="http://sodipodi.sourceforge.net/DTD/sodipodi-0.dtd"
   xmlns:inkscape="http://www.inkscape.org/namespaces/inkscape"
   version="1.1"
   width="163"
   height="217.03125"
   viewBox="-0.999 0 163 217.03125"
   enable-background="new -0.999 0 289 289"
   xml:space="preserve"
   id="svg2"
   inkscape:version="0.48.2 r9819"
   sodipodi:docname="AJAX1.svg"><metadata
   id="metadata18"><rdf:RDF><cc:Work
       rdf:about=""><dc:format>image/svg+xml</dc:format><dc:type
         rdf:resource="http://purl.org/dc/dcmitype/StillImage" /><dc:title /></cc:Work></rdf:RDF></metadata><sodipodi:namedview
   pagecolor="#ffffff"
   bordercolor="#666666"
   borderopacity="1"
   objecttolerance="10"
   gridtolerance="10"
   guidetolerance="10"
   inkscape:pageopacity="0"
   inkscape:pageshadow="2"
   inkscape:window-width="1280"
   inkscape:window-height="1004"
   id="namedview16"
   showgrid="false"
   fit-margin-top="0"
   fit-margin-left="0"
   fit-margin-right="0"
   fit-margin-bottom="0"
   inkscape:zoom="3.6683608"
   inkscape:cx="36.477689"
   inkscape:cy="105.08792"
   inkscape:window-x="-8"
   inkscape:window-y="-8"
   inkscape:window-maximized="1"
   inkscape:current-layer="svg2" />
<defs
   id="defs4">
</defs>





<path
   inkscape:connector-curvature="0"
   d="m 9.62512,0.515 141.74875,0 c 5.57875,0 10.1275,4.54875 10.1275,10.12625 l 0,195.75125 c 0,5.5775 -4.54875,10.12625 -10.1275,10.12625 l -141.74875,0 c -5.5775,0 -10.12625,-4.54875 -10.12625,-10.12625 l 0,-195.75125 C -0.50113,5.13375 4.11762,0.515 9.62512,0.515"
   style="fill:#ffffff;fill-opacity:1;fill-rule:nonzero;stroke:#000000;stroke-width:1;stroke-linecap:butt;stroke-linejoin:miter;stroke-miterlimit:4;stroke-opacity:1;stroke-dasharray:none"
   id="path5135" /><path
   inkscape:connector-curvature="0"
   d="m 9.65637,3.0475 141.68625,0 c 4.18125,0.0163 7.6,3.45 7.62625,7.625 l 0,195.6875 c -0.0263,4.1775 -3.445,7.605 -7.62625,7.6275 l -141.68625,0 c -4.17375,-0.0225 -7.6125,-3.45 -7.625,-7.6275 l 0,-195.6875 c 0.0125,-4.175 3.45125,-7.60875 7.625,-7.625"
   style="fill:#000000;fill-opacity:1;fill-rule:evenodd;stroke:none"
   id="path5139" /><path
   inkscape:connector-curvature="0"
   d="m 9.69387,6.00375 141.61125,0 c 2.605,0.015 4.69,2.10125 4.7075,4.7075 l 0,195.6125 c -0.0175,2.5925 -2.1025,4.7075 -4.7075,4.705 l -141.61125,0 c -2.605,0.003 -4.69375,-2.1125 -4.70625,-4.705 l 0,-195.6125 C 5.00012,8.105 7.08887,6.01875 9.69387,6.00375"
   style="fill:#ffffff;fill-opacity:1;fill-rule:evenodd;stroke:none"
   id="path5143" /><path
   inkscape:connector-curvature="0"
   d="M 69.07513,81.58875 52.43888,45.4775 l 0,36.11125 -7.75125,0 0,-53.8825 7.75125,0 14.7475,32.33 0,-32.33 7.75125,0 0,53.8825 -5.8625,0 z"
   style="fill:#000000;fill-opacity:1;fill-rule:evenodd;stroke:none"
   id="path5147" /><path
   inkscape:connector-curvature="0"
   d="m 117.09513,54.55237 c 0,-8.13 -0.75625,-13.23375 -3.025,-18.5275 -2.64625,-6.6175 -6.4275,-9.265 -12.66625,-9.265 -6.24,0 -10.02125,2.6475 -12.8575,9.07625 -2.2675,5.10375 -3.02375,10.58625 -3.02375,18.71625 0,8.31875 0.75625,13.42375 3.02375,18.7175 2.6475,6.4275 6.42875,9.26375 12.8575,9.26375 6.04875,0 10.02,-2.83625 12.66625,-9.26375 2.26875,-5.105 3.025,-10.39875 3.025,-18.7175 m -7.3725,0 c 0,6.24 -0.37875,9.4525 -1.70125,13.80125 -1.32375,4.5375 -3.40375,6.6175 -6.6175,6.6175 -3.40375,0 -5.48375,-2.08 -6.8075,-6.6175 -1.13375,-4.34875 -1.70125,-7.75125 -1.70125,-13.6125 0,-6.05 0.37875,-9.64125 1.70125,-13.80125 1.32375,-4.5375 3.40375,-6.61625 6.8075,-6.61625 3.21375,0 5.29375,2.07875 6.6175,6.80625 1.13375,3.97 1.70125,7.3725 1.70125,13.4225"
   style="fill:#000000;fill-opacity:1;fill-rule:evenodd;stroke:none"
   id="path5151" /><path
   inkscape:connector-curvature="0"
   d="m 41.88387,135.56625 0,-16.27625 -9.8425,0 0,16.27625 -5.1725,0 0,-35.96 5.1725,0 0,14.63625 9.8425,0 0,-14.63625 5.17375,0 0,35.96 -5.17375,0 z"
   style="fill:#000000;fill-opacity:1;fill-rule:evenodd;stroke:none"
   id="path5155" /><path
   inkscape:connector-curvature="0"
   d="m 54.75175,99.60625 5.0475,0 0,35.96 -5.0475,0 0,-35.96 z"
   style="fill:#000000;fill-opacity:1;fill-rule:evenodd;stroke:none"
   id="path5157" /><path
   inkscape:connector-curvature="0"
   d="m 76.58013,104.40125 0,31.165 -5.1725,0 0,-31.165 -6.5625,0 0,-4.795 18.29625,0 0,4.795 -6.56125,0 z"
   style="fill:#000000;fill-opacity:1;fill-rule:evenodd;stroke:none"
   id="path5161" /><path
   inkscape:connector-curvature="0"
   d="m 102.19262,109.195 c -0.505,-3.5325 -1.8925,-5.1725 -4.29,-5.1725 -4.16375,0 -5.6775,3.28 -5.6775,12.6175 0,10.34625 1.76625,14.51 6.1825,14.51 3.02875,0 3.785,-2.5225 3.785,-5.1725 l 5.17375,0 c -0.12625,5.93 -3.91125,10.22 -8.95875,10.22 -7.69625,0 -11.10375,-6.1825 -11.10375,-19.43125 0,-11.60875 3.65875,-17.79125 10.725,-17.79125 2.9025,0 5.42625,1.26125 7.06625,3.65875 1.3875,1.7675 1.8925,3.28125 2.27125,6.56125 l -5.17375,0 z"
   style="fill:#000000;fill-opacity:1;fill-rule:evenodd;stroke:none"
   id="path5165" /><path
   inkscape:connector-curvature="0"
   d="m 129.44637,135.56625 0,-16.27625 -9.84125,0 0,16.27625 -5.17375,0 0,-35.96 5.17375,0 0,14.63625 9.84125,0 0,-14.63625 5.17375,0 0,35.96 -5.17375,0 z"
   style="fill:#000000;fill-opacity:1;fill-rule:evenodd;stroke:none"
   id="path5169" /><path
   inkscape:connector-curvature="0"
   d="m 32.36512,189.495 0,-16.27625 -9.8425,0 0,16.27625 -5.17375,0 0,-35.96125 5.17375,0 0,14.6375 9.8425,0 0,-14.6375 5.17375,0 0,35.96125 -5.17375,0 z"
   style="fill:#000000;fill-opacity:1;fill-rule:evenodd;stroke:none"
   id="path5173" /><path
   inkscape:connector-curvature="0"
   d="m 45.233,153.53375 5.0475,0 0,35.96125 -5.0475,0 0,-35.96125 z"
   style="fill:#000000;fill-opacity:1;fill-rule:evenodd;stroke:none"
   id="path5175" /><path
   inkscape:connector-curvature="0"
   d="m 72.86638,189.495 -6.31,-17.53875 -3.28,6.05625 0,11.4825 -5.17375,0 0,-35.96125 5.17375,0 0,14.38625 8.20125,-14.38625 5.93,0 -7.445,12.61875 8.3275,23.3425 -5.42375,0 z"
   style="fill:#000000;fill-opacity:1;fill-rule:evenodd;stroke:none"
   id="path5179" /><path
   inkscape:connector-curvature="0"
   d="m 84.2205,153.53375 5.04875,0 0,35.96125 -5.04875,0 0,-35.96125 z"
   style="fill:#000000;fill-opacity:1;fill-rule:evenodd;stroke:none"
   id="path5181" /><path
   inkscape:connector-curvature="0"
   d="m 113.36762,189.495 -11.10375,-24.09875 0,24.09875 -5.17375,0 0,-35.96125 5.17375,0 9.84125,21.57625 0,-21.57625 5.17375,0 0,35.96125 -3.91125,0 z"
   style="fill:#000000;fill-opacity:1;fill-rule:evenodd;stroke:none"
   id="path5185" /><path
   inkscape:connector-curvature="0"
   d="m 143.39512,185.07875 c -1.38625,3.15375 -4.28875,5.04875 -7.94875,5.04875 -4.29,0 -7.44375,-2.14625 -9.21125,-6.18375 -1.135,-2.65 -1.8925,-7.69625 -1.8925,-12.36625 0,-5.04625 0.37875,-8.70625 1.64125,-12.11125 1.26,-3.7875 4.92,-6.5625 9.08375,-6.5625 5.17375,0 9.085,3.78625 9.33875,9.08375 l -5.17375,0 c -0.12625,-2.3975 -1.7675,-4.035 -4.29,-4.035 -1.76625,0 -3.155,0.88125 -4.03875,2.64875 -1.00875,1.765 -1.64,5.8025 -1.64,10.095 0,3.0275 0.2525,6.18125 0.75625,8.9575 0.75875,3.5325 2.525,5.425 5.30125,5.425 2.64875,0 3.91125,-1.765 3.91125,-5.5525 l 0,-2.3975 -4.03875,0 0,-5.04625 9.2125,0 0,7.44375 c 0,2.525 -0.25375,4.03875 -1.01125,5.5525"
   style="fill:#000000;fill-opacity:1;fill-rule:evenodd;stroke:none"
   id="path5189" /></svg>