<?xml version="1.0" encoding="UTF-8" standalone="no"?>
<!-- Generator: Adobe Illustrator 12.0.1, SVG Export Plug-In  -->

<svg
   xmlns:dc="http://purl.org/dc/elements/1.1/"
   xmlns:cc="http://creativecommons.org/ns#"
   xmlns:rdf="http://www.w3.org/1999/02/22-rdf-syntax-ns#"
   xmlns:svg="http://www.w3.org/2000/svg"
   xmlns="http://www.w3.org/2000/svg"
   xmlns:sodipodi="http://sodipodi.sourceforge.net/DTD/sodipodi-0.dtd"
   xmlns:inkscape="http://www.inkscape.org/namespaces/inkscape"
   version="1.1"
   width="184.3125"
   height="275.71875"
   viewBox="-0.999 0 184.3125 275.71875"
   enable-background="new -0.999 0 289 289"
   xml:space="preserve"
   id="svg2"
   inkscape:version="0.48.2 r9819"
   sodipodi:docname="MUTCD R9-4a.svg"><metadata
   id="metadata18"><rdf:RDF><cc:Work
       rdf:about=""><dc:format>image/svg+xml</dc:format><dc:type
         rdf:resource="http://purl.org/dc/dcmitype/StillImage" /><dc:title></dc:title></cc:Work></rdf:RDF></metadata><sodipodi:namedview
   pagecolor="#ffffff"
   bordercolor="#666666"
   borderopacity="1"
   objecttolerance="10"
   gridtolerance="10"
   guidetolerance="10"
   inkscape:pageopacity="0"
   inkscape:pageshadow="2"
   inkscape:window-width="1280"
   inkscape:window-height="1004"
   id="namedview16"
   showgrid="false"
   fit-margin-top="0"
   fit-margin-left="0"
   fit-margin-right="0"
   fit-margin-bottom="0"
   inkscape:zoom="1.633218"
   inkscape:cx="65.969627"
   inkscape:cy="132.96214"
   inkscape:window-x="-8"
   inkscape:window-y="-8"
   inkscape:window-maximized="1"
   inkscape:current-layer="svg2" />
<defs
   id="defs4">
</defs>





<path
   inkscape:connector-curvature="0"
   d="m 182.55863,252.10439 c 0,12.5675 -10.2825,22.85 -22.85,22.85 l -137.10125,0 c -12.5675,0 -22.85,-10.2825 -22.85,-22.85 l 0,-228.50125 c 0,-12.5675 10.2825,-22.85 22.85,-22.85 l 137.10125,0 c 12.5675,0 22.85,10.2825 22.85,22.85 l 0,228.50125"
   style="fill:#ffffff;fill-opacity:1;fill-rule:nonzero;stroke:#000000;stroke-width:1.5;stroke-miterlimit:4;stroke-opacity:1;stroke-dasharray:none"
   id="path4295" /><path
   inkscape:connector-curvature="0"
   d="m 171.13362,252.10439 c 0,6.28375 -5.14125,11.425 -11.425,11.425 l -137.10125,0 c -6.28375,0 -11.425,-5.14125 -11.425,-11.425 l 0,-228.50125 c 0,-6.28375 5.14125,-11.425 11.425,-11.425 l 137.10125,0 c 6.28375,0 11.425,5.14125 11.425,11.425 l 0,228.50125 z m -11.425,-245.63875 -137.10125,0 c -9.425,0 -17.1375,7.71125 -17.1375,17.1375 l 0,228.50125 c 0,9.42625 7.7125,17.1375 17.1375,17.1375 l 137.10125,0 c 9.425,0 17.1375,-7.71125 17.1375,-17.1375 l 0,-228.50125 c 0,-9.42625 -7.7125,-17.1375 -17.1375,-17.1375"
   style="fill:#000000;fill-opacity:1;fill-rule:nonzero;stroke:none"
   id="path4319" /><path
   inkscape:connector-curvature="0"
   d="m 77.101,149.34511 c -1.445,2.4825 -4.3775,4.2875 -7.26625,4.2875 -2.9775,0 -6.00125,-1.715 -7.49125,-4.2875 -0.8575,-1.57875 -1.1725,-2.8875 -1.1725,-5.325 l 0,-21.39125 4.3775,0 0,21.8875 c 0,2.88875 1.715,4.82875 4.28625,4.82875 2.3475,0 4.0625,-1.94 4.0625,-4.82875 l 0,-21.8875 4.3775,0 0,21.39125 c 0,2.4375 -0.27125,3.74625 -1.17375,5.325"
   style="fill:#000000;fill-opacity:1;fill-rule:nonzero;stroke:none"
   id="path4323" /><path
   inkscape:connector-curvature="0"
   d="m 91.99311,153.63249 c -5.325,0 -8.575,-4.5125 -8.575,-9.5225 l 4.2875,0 c 0,2.5725 1.30875,5.235 4.2875,5.235 2.34625,0 4.2875,-2.12125 4.2875,-4.6025 0,-3.61125 -3.11375,-4.83 -7.5825,-7.98875 -2.7075,-1.94 -3.745,-4.06125 -3.745,-6.76875 0,-4.3775 3.385,-7.8975 7.8075,-7.8975 4.24125,0 7.58125,3.34 7.67125,7.8975 l -4.15125,0 c -0.13625,-2.12125 -1.625,-3.52 -3.52,-3.52 -2.03125,0 -3.65625,1.48875 -3.65625,3.52 0,1.53375 0.6325,2.34625 2.88875,3.655 5.86625,3.385 8.43875,6.72375 8.43875,11.1025 0,4.91875 -3.745,8.89 -8.43875,8.89"
   style="fill:#000000;fill-opacity:1;fill-rule:nonzero;stroke:none"
   id="path4327" /><path
   inkscape:connector-curvature="0"
   d="m 105.62175,153.09089 0,-30.46125 14.35125,0 0,4.28625 -9.97375,0 0,7.6725 6.3175,0 0,4.19625 -6.3175,0 0,10.01875 11.14625,0 0,4.2875 -15.52375,0 z"
   style="fill:#000000;fill-opacity:1;fill-rule:nonzero;stroke:none"
   id="path4331" /><path
   inkscape:connector-curvature="0"
   d="m 69.56424,172.61025 -4.5125,0 0,8.665 4.5125,0 c 2.5725,0 3.92625,-1.625 3.92625,-4.42375 0,-2.52625 -1.58,-4.24125 -3.92625,-4.24125 m 0.22625,12.81625 -4.73875,0 0,13.35875 -4.3775,0 0,-30.4625 9.11625,0 c 4.7825,0 7.9875,3.43 7.9875,8.52875 0,5.59625 -2.88875,8.575 -7.9875,8.575"
   style="fill:#000000;fill-opacity:1;fill-rule:nonzero;stroke:none"
   id="path4335" /><path
   inkscape:connector-curvature="0"
   d="m 83.86987,198.78488 0,-30.46125 14.35125,0 0,4.28625 -9.97375,0 0,7.6725 6.3175,0 0,4.19625 -6.3175,0 0,10.01875 11.14625,0 0,4.2875 -15.52375,0 z"
   style="fill:#000000;fill-opacity:1;fill-rule:nonzero;stroke:none"
   id="path4339" /><path
   inkscape:connector-curvature="0"
   d="m 116.54287,175.67886 c -0.8125,-2.12125 -2.03125,-3.06875 -3.97125,-3.06875 l -3.655,0 0,21.8875 3.655,0 c 2.5725,0 4.01625,-1.98625 4.3775,-4.3775 0.27125,-1.895 0.40625,-4.06125 0.40625,-6.40875 0,-3.43 -0.36125,-6.72375 -0.8125,-8.0325 m 0.7225,21.70625 c -1.12875,0.90375 -2.5725,1.4 -4.2875,1.4 l -8.43875,0 0,-30.4625 7.8075,0 c 2.57125,0 3.835,0.36125 4.91875,1.17375 1.805,1.30875 3.06875,3.655 3.655,6.72375 0.40625,2.25625 0.7225,4.91875 0.7225,7.26625 0,7.085 -1.445,11.5075 -4.3775,13.89875"
   style="fill:#000000;fill-opacity:1;fill-rule:nonzero;stroke:none"
   id="path4343" /><path
   inkscape:connector-curvature="0"
   d="m 41.60776,245.02088 c -5.325,0 -8.575,-4.5125 -8.575,-9.5225 l 4.2875,0 c 0,2.5725 1.30875,5.23375 4.2875,5.23375 2.34625,0 4.2875,-2.12 4.2875,-4.60125 0,-3.6125 -3.11375,-4.83125 -7.5825,-7.99 -2.7075,-1.94 -3.745,-4.06 -3.745,-6.7675 0,-4.3775 3.385,-7.89875 7.8075,-7.89875 4.24125,0 7.58125,3.34125 7.67125,7.89875 l -4.15125,0 c -0.13625,-2.1225 -1.625,-3.52125 -3.52,-3.52125 -2.03125,0 -3.65625,1.49 -3.65625,3.52125 0,1.53375 0.6325,2.34625 2.88875,3.65625 5.86625,3.3825 8.43875,6.72375 8.43875,11.10125 0,4.91875 -3.745,8.89 -8.43875,8.89"
   style="fill:#000000;fill-opacity:1;fill-rule:nonzero;stroke:none"
   id="path4347" /><path
   inkscape:connector-curvature="0"
   d="m 55.236,214.01625 4.2875,0 0,30.4625 -4.2875,0 0,-30.4625 z"
   style="fill:#000000;fill-opacity:1;fill-rule:nonzero;stroke:none"
   id="path4349" /><path
   inkscape:connector-curvature="0"
   d="m 81.72687,240.73225 c -1.21875,2.66375 -3.61,4.28875 -6.72375,4.28875 -3.61125,0 -6.31875,-1.805 -7.8075,-5.235 -0.9475,-2.2575 -1.58,-6.54375 -1.58,-10.47 0,-4.28625 0.36125,-7.35625 1.39875,-10.28875 1.08375,-3.16 4.1525,-5.5525 7.6725,-5.5525 4.3775,0 7.71625,3.205 7.8975,7.71875 l -4.3775,0 c -0.09,-2.03125 -1.49,-3.43 -3.61,-3.43 -1.49,0 -2.6625,0.76625 -3.43,2.255 -0.8125,1.49 -1.39875,4.92 -1.39875,8.52875 0,2.5725 0.18,5.23625 0.63125,7.58375 0.6325,3.0225 2.16625,4.60125 4.5125,4.60125 2.2575,0 3.295,-1.49 3.295,-4.6925 l 0,-2.03125 -3.43,0 0,-4.28625 7.8075,0 0,6.3175 c 0,2.12125 -0.22625,3.385 -0.8575,4.6925"
   style="fill:#000000;fill-opacity:1;fill-rule:nonzero;stroke:none"
   id="path4353" /><path
   inkscape:connector-curvature="0"
   d="m 102.48564,244.47926 -9.43125,-20.3975 0,20.3975 -4.3775,0 0,-30.4625 4.3775,0 8.34875,18.2775 0,-18.2775 4.3775,0 0,30.4625 -3.295,0 z"
   style="fill:#000000;fill-opacity:1;fill-rule:nonzero;stroke:none"
   id="path4357" /><path
   inkscape:connector-curvature="0"
   d="m 119.63437,223.08687 -2.12125,8.80125 4.3775,0 -2.25625,-8.80125 z m 5.46,21.3925 -2.12,-8.34875 -6.54375,0 -2.03125,8.34875 -4.3775,0 7.58125,-30.4625 4.2875,0 7.58125,30.4625 -4.3775,0 z"
   style="fill:#000000;fill-opacity:1;fill-rule:nonzero;stroke:none"
   id="path4361" /><path
   inkscape:connector-curvature="0"
   d="m 133.75925,244.47926 0,-30.4625 4.3775,0 0,26.4 11.14625,0 0,4.0625 -15.52375,0 z"
   style="fill:#000000;fill-opacity:1;fill-rule:nonzero;stroke:none"
   id="path4365" /><path
   inkscape:connector-curvature="0"
   d="M 112.11537,78.6065 129.86412,75.709 118.67787,61.17775 c -5.7975,5.05625 -6.51875,11.12625 -6.5625,17.42875 m -4.8825,1.0625 c -0.0288,-0.63 -0.13,-1.6425 -0.13,-2.35125 0,-7.19 2.32625,-14.1775 8.63875,-19.985 l -6.575,-7.8725 -10.17625,31.045 8.2425,-0.83625 z m -39.06,-30.8975 0.56375,-1.7275 36.24625,-0.0475 -9.64125,29.23 -0.41625,-3.04875 1.10875,0 -0.13875,-1.94125 -4.85125,0 0.13875,1.8025 1.2475,0 0.27625,3.32625 c 0,0 -24.395,-27.455 -24.53375,-27.59375 m -16.0525,28.07875 c 4.8675,-3.86625 8.65625,-7.55125 11.3875,-14.925 4.3125,3.9125 6.7725,9.57 6.7725,15.3925 0,11.5625 -9.43,20.99375 -20.9925,20.99375 -11.5625,0 -20.99375,-9.43125 -20.99375,-20.99375 0,-11.5625 9.43125,-20.9925 20.99375,-20.9925 3.69,0 7.4625,1.065 10.50375,2.86125 -2.05875,6.50625 -4.06125,9.86125 -10.39625,14.96125 -1.5375,0.065 -2.7075,1.29875 -2.7075,2.7725 0,1.52625 1.245,2.77125 2.7725,2.77125 1.52625,0 2.66,-1.245 2.66,-2.84125 m 60.73875,6.21625 c 2.375,8.8475 10.82125,15.245 20.17,15.245 11.5625,0 20.9925,-9.43125 20.9925,-20.99375 0,-11.5625 -9.43,-20.99375 -20.9925,-20.99375 -3.69125,0 -7.96125,0.87125 -11.07625,2.695 l 11.395,15.12875 c 1.39375,0.0213 2.60625,1.2675 2.60625,2.7725 0,1.52625 -1.245,2.77125 -2.7725,2.77125 -0.42125,0 -0.86625,-0.1075 -1.24,-0.28375 l -19.0825,3.65875 z m -51.56875,-28.73875 7.4375,-20.51625 -2.3575,-4.02 4.71375,-5.12875 10.11875,0 0.13875,2.91125 -8.87125,0 -1.8025,1.94 2.07875,3.7425 -2.61375,9.2675 36.31375,0 0.555,-1.695 c -2.91875,-0.38 -7.9525,-2.1775 -9.155,-3.2225 -1.2025,-1.045 -0.15,-2.005 1.22,-2.05 7.1675,-0.30375 17.815,-0.905 19.8375,-0.91375 2.02375,-0.009 2.23,1.00875 0.87625,2.49 -1.35375,1.48125 -2.5375,2.81375 -7.6675,3.60875 l -1.38625,3.7425 8.59375,10.645 c 4.05,-2.4575 8.94875,-3.7375 13.70875,-3.7375 14.27875,0 25.92625,11.64625 25.92625,25.92625 0,14.28 -11.6475,25.92625 -25.92625,25.92625 -11.7475,0 -22.0775,-8.1025 -25.11375,-19.29875 l -7.89625,1.41875 c -0.3375,0.93125 -1.12625,1.64375 -2.0675,2.2025 l 1.40875,6.68 1.8025,0 0.13875,1.80125 -5.68375,0.2775 0,-1.94 1.38625,0 -1.71625,-6.67625 c -2.555,-0.4175 -3.89375,-2.605 -3.1325,-4.775 l -25.79375,-29.1725 -1.155,3.13 c 6.26,4.93125 10.0075,12.5275 10.0075,20.42625 0,14.28 -11.64625,25.92625 -25.92625,25.92625 -14.28,0 -25.92625,-11.64625 -25.92625,-25.92625 0,-14.28 11.64625,-25.92625 25.92625,-25.92625 4.1525,0 8.40625,1.0125 12.0025,2.93625"
   style="fill:#000000;fill-opacity:1;fill-rule:evenodd;stroke:none"
   id="path4369" /></svg>