<?xml version="1.0" encoding="UTF-8" standalone="no"?>
<!-- Generator: Adobe Illustrator 12.0.1, SVG Export Plug-In  -->

<svg
   xmlns:dc="http://purl.org/dc/elements/1.1/"
   xmlns:cc="http://creativecommons.org/ns#"
   xmlns:rdf="http://www.w3.org/1999/02/22-rdf-syntax-ns#"
   xmlns:svg="http://www.w3.org/2000/svg"
   xmlns="http://www.w3.org/2000/svg"
   xmlns:sodipodi="http://sodipodi.sourceforge.net/DTD/sodipodi-0.dtd"
   xmlns:inkscape="http://www.inkscape.org/namespaces/inkscape"
   version="1.1"
   width="184.3125"
   height="275.6875"
   viewBox="-0.999 0 184.3125 275.6875"
   enable-background="new -0.999 0 289 289"
   xml:space="preserve"
   id="svg2"
   inkscape:version="0.48.2 r9819"
   sodipodi:docname="MUTCD R9-5.svg"><metadata
   id="metadata18"><rdf:RDF><cc:Work
       rdf:about=""><dc:format>image/svg+xml</dc:format><dc:type
         rdf:resource="http://purl.org/dc/dcmitype/StillImage" /><dc:title></dc:title></cc:Work></rdf:RDF></metadata><sodipodi:namedview
   pagecolor="#ffffff"
   bordercolor="#666666"
   borderopacity="1"
   objecttolerance="10"
   gridtolerance="10"
   guidetolerance="10"
   inkscape:pageopacity="0"
   inkscape:pageshadow="2"
   inkscape:window-width="1280"
   inkscape:window-height="1004"
   id="namedview16"
   showgrid="false"
   fit-margin-top="0"
   fit-margin-left="0"
   fit-margin-right="0"
   fit-margin-bottom="0"
   inkscape:zoom="1.633218"
   inkscape:cx="65.968245"
   inkscape:cy="132.93399"
   inkscape:window-x="-8"
   inkscape:window-y="-8"
   inkscape:window-maximized="1"
   inkscape:current-layer="svg2" />
<defs
   id="defs4">
</defs>





<path
   inkscape:connector-curvature="0"
   d="m 182.55725,252.10125 c 0,12.5675 -10.2825,22.85 -22.85,22.85 l -137.101252,0 c -12.5675,0 -22.84999999,-10.2825 -22.84999999,-22.85 l 0,-228.50125 c 0,-12.5675 10.28249999,-22.85 22.84999999,-22.85 l 137.101252,0 c 12.5675,0 22.85,10.2825 22.85,22.85 l 0,228.50125"
   style="fill:#ffffff;fill-opacity:1;fill-rule:nonzero;stroke:#000000;stroke-width:1.5;stroke-miterlimit:4;stroke-opacity:1;stroke-dasharray:none"
   id="path4295" /><path
   inkscape:connector-curvature="0"
   d="m 171.13224,252.10125 c 0,6.28375 -5.14125,11.425 -11.425,11.425 l -137.101252,0 c -6.28375,0 -11.425,-5.14125 -11.425,-11.425 l 0,-228.50125 c 0,-6.28375 5.14125,-11.425 11.425,-11.425 l 137.101252,0 c 6.28375,0 11.425,5.14125 11.425,11.425 l 0,228.50125 z m -11.425,-245.63875 -137.101252,0 c -9.425,0 -17.1375,7.71125 -17.1375,17.1375 l 0,228.50125 c 0,9.42625 7.7125,17.1375 17.1375,17.1375 l 137.101252,0 c 9.425,0 17.1375,-7.71125 17.1375,-17.1375 l 0,-228.50125 c 0,-9.42625 -7.7125,-17.1375 -17.1375,-17.1375"
   style="fill:#000000;fill-opacity:1;fill-rule:nonzero;stroke:none"
   id="path4319" /><path
   d="m 112.114,78.603362 17.74875,-2.8975 -11.18625,-14.531249 c -5.7975,5.056249 -6.51875,11.126249 -6.5625,17.428749 m -4.8825,1.0625 c -0.0288,-0.63 -0.13,-1.6425 -0.13,-2.35125 0,-7.19 2.32625,-14.177499 8.63875,-19.984999 l -6.575,-7.8725 -10.176253,31.044999 8.242503,-0.83625 z m -39.060003,-30.897499 0.56375,-1.7275 36.246253,-0.0475 -9.641253,29.229999 -0.41625,-3.04875 1.10875,0 -0.13875,-1.94125 -4.85125,0 0.13875,1.8025 1.2475,0 0.27625,3.32625 c 0,0 -24.395,-27.454999 -24.53375,-27.593749 M 52.118998,76.847112 c 4.8675,-3.86625 8.65625,-7.55125 11.3875,-14.924999 4.312499,3.912499 6.772499,9.569999 6.772499,15.392499 0,11.5625 -9.429999,20.99375 -20.992499,20.99375 -11.5625,0 -20.99375,-9.43125 -20.99375,-20.99375 0,-11.5625 9.43125,-20.992499 20.99375,-20.992499 3.69,0 7.4625,1.065 10.50375,2.86125 -2.05875,6.506249 -4.06125,9.861249 -10.39625,14.961249 -1.5375,0.065 -2.7075,1.29875 -2.7075,2.7725 0,1.52625 1.245,2.77125 2.7725,2.77125 1.52625,0 2.66,-1.245 2.66,-2.84125 m 60.738752,6.21625 c 2.375,8.8475 10.82125,15.245 20.17,15.245 11.5625,0 20.9925,-9.43125 20.9925,-20.99375 0,-11.5625 -9.43,-20.993749 -20.9925,-20.993749 -3.69125,0 -7.96125,0.87125 -11.07625,2.695 l 11.395,15.128749 c 1.39375,0.02125 2.60625,1.2675 2.60625,2.7725 0,1.52625 -1.245,2.77125 -2.7725,2.77125 -0.42125,0 -0.86625,-0.1075 -1.24,-0.28375 l -19.0825,3.65875 z m -51.568752,-28.738749 7.437499,-20.51625 -2.3575,-4.02 4.71375,-5.12875 10.11875,0 0.13875,2.91125 -8.87125,0 -1.8025,1.94 2.07875,3.7425 -2.61375,9.2675 36.313753,0 0.555,-1.695 c -2.91875,-0.38 -7.952503,-2.1775 -9.155003,-3.2225 -1.2025,-1.045 -0.15,-2.005 1.22,-2.05 7.167503,-0.30375 17.815003,-0.905 19.837503,-0.91375 2.02375,-0.0087 2.23,1.00875 0.87625,2.49 -1.35375,1.48125 -2.5375,2.81375 -7.6675,3.60875 l -1.38625,3.7425 8.59375,10.645 c 4.05,-2.4575 8.94875,-3.7375 13.70875,-3.7375 14.27875,0 25.92625,11.64625 25.92625,25.926249 0,14.28 -11.6475,25.926248 -25.92625,25.926248 -11.7475,0 -22.0775,-8.102498 -25.11375,-19.298748 l -7.89625,1.41875 c -0.337503,0.93125 -1.126253,1.64375 -2.067503,2.2025 l 1.40875,6.68 1.802503,0 0.13875,1.80125 -5.683753,0.2775 0,-1.94 1.38625,0 -1.71625,-6.67625 c -2.555,-0.4175 -3.89375,-2.605 -3.1325,-4.775 l -25.79375,-29.172499 -1.155,3.13 c 6.26,4.93125 10.0075,12.527499 10.0075,20.426249 0,14.28 -11.646249,25.926248 -25.926249,25.926248 -14.28,0 -25.92625,-11.646248 -25.92625,-25.926248 0,-14.279999 11.64625,-25.926249 25.92625,-25.926249 4.1525,0 8.40625,1.0125 12.0025,2.93625"
   style="fill:#000000;fill-opacity:1;fill-rule:evenodd;stroke:none"
   id="path3877"
   inkscape:connector-curvature="0" /><path
   d="m 56.484123,139.27435 0,13.81 -4.3775,0 0,-13.81 -7.49125,-16.65249 4.6025,0 5.145,11.01124 5.01,-11.01124 4.692499,0 -7.581249,16.65249 z"
   style="fill:#000000;fill-opacity:1;fill-rule:nonzero;stroke:none"
   id="path3881"
   inkscape:connector-curvature="0" /><path
   d="m 68.352872,122.62249 4.2875,0 0,30.46249 -4.2875,0 0,-30.46249 z"
   style="fill:#000000;fill-opacity:1;fill-rule:nonzero;stroke:none"
   id="path3883"
   inkscape:connector-curvature="0" /><path
   d="m 79.318497,153.08384 0,-30.46249 14.35125,0 0,4.28749 -9.97375,0 0,7.6725 6.3175,0 0,4.19625 -6.3175,0 0,10.01875 11.14625,0 0,4.2875 -15.52375,0 z"
   style="fill:#000000;fill-opacity:1;fill-rule:nonzero;stroke:none"
   id="path3887"
   inkscape:connector-curvature="0" /><path
   d="m 99.987127,153.08384 0,-30.46249 4.377503,0 0,26.40124 11.14625,0 0,4.06125 -15.523753,0 z"
   style="fill:#000000;fill-opacity:1;fill-rule:nonzero;stroke:none"
   id="path3891"
   inkscape:connector-curvature="0" /><path
   d="m 131.7575,129.97798 c -0.8125,-2.12125 -2.03125,-3.06875 -3.97125,-3.06875 l -3.655,0 0,21.8875 3.655,0 c 2.5725,0 4.01625,-1.985 4.3775,-4.3775 0.27125,-1.895 0.40625,-4.06125 0.40625,-6.40875 0,-3.43 -0.36125,-6.72375 -0.8125,-8.0325 m 0.7225,21.7075 c -1.12875,0.90125 -2.5725,1.39875 -4.2875,1.39875 l -8.43875,0 0,-30.46249 7.8075,0 c 2.57125,0 3.835,0.36125 4.91875,1.17375 1.805,1.30874 3.06875,3.65499 3.655,6.72374 0.40625,2.25625 0.7225,4.91875 0.7225,7.26625 0,7.085 -1.445,11.5075 -4.3775,13.9"
   style="fill:#000000;fill-opacity:1;fill-rule:nonzero;stroke:none"
   id="path3895"
   inkscape:connector-curvature="0" /><path
   d="m 82.627609,172.38148 0,26.4 -4.4225,0 0,-26.4 -5.55125,0 0,-4.06125 15.525,0 0,4.06125 -5.55125,0 z"
   style="fill:#000000;fill-opacity:1;fill-rule:nonzero;stroke:none"
   id="path3899"
   inkscape:connector-curvature="0" /><path
   d="m 104.55974,175.90148 c -0.7675,-2.6625 -1.94,-3.83625 -3.745,-3.83625 -1.941253,0 -3.070003,1.17375 -3.881253,3.74625 -0.6775,2.34625 -0.94875,4.3775 -0.94875,7.8075 0,3.29375 0.27125,5.235 0.94875,7.67125 0.72125,2.5725 1.94,3.74625 3.881253,3.74625 1.805,0 2.9775,-1.17375 3.745,-3.74625 0.7225,-2.43625 0.9475,-4.2875 0.9475,-7.8075 0,-3.38375 -0.31625,-5.325 -0.9475,-7.58125 m 3.385,18.1875 c -1.535,3.61 -3.74625,5.23375 -7.13,5.23375 -3.656253,0 -5.777503,-1.62375 -7.266253,-5.23375 -1.26375,-3.02375 -1.715,-5.8675 -1.715,-10.60625 0,-4.6025 0.40625,-7.67125 1.715,-10.56 1.58,-3.655 3.745,-5.145 7.266253,-5.145 3.51875,0 5.595,1.535 7.13,5.235 1.2625,3.02375 1.715,5.8675 1.715,10.47 0,4.73875 -0.4525,7.6725 -1.715,10.60625"
   style="fill:#000000;fill-opacity:1;fill-rule:nonzero;stroke:none"
   id="path3903"
   inkscape:connector-curvature="0" /><path
   d="m 58.77711,218.30837 -4.5125,0 0,8.66375 4.5125,0 c 2.5725,0 3.92625,-1.625 3.92625,-4.42375 0,-2.52625 -1.58,-4.24 -3.92625,-4.24 m 0.225,12.815 -4.7375,0 0,13.35875 -4.3775,0 0,-30.4625 9.115,0 c 4.785,0 7.988749,3.43 7.988749,8.52875 0,5.59625 -2.88875,8.575 -7.988749,8.575"
   style="fill:#000000;fill-opacity:1;fill-rule:nonzero;stroke:none"
   id="path3907"
   inkscape:connector-curvature="0" /><path
   d="m 73.082747,244.48236 0,-30.4625 14.35125,0 0,4.28875 -9.97375,0 0,7.67125 6.3175,0 0,4.19625 -6.3175,0 0,10.0175 11.14625,0 0,4.28875 -15.52375,0 z"
   style="fill:#000000;fill-opacity:1;fill-rule:nonzero;stroke:none"
   id="path3911"
   inkscape:connector-curvature="0" /><path
   d="m 105.75575,221.37624 c -0.8125,-2.1225 -2.03125,-3.0675 -3.97125,-3.0675 l -3.656253,0 0,21.885 3.656253,0 c 2.5725,0 4.01625,-1.985 4.3775,-4.375 0.27,-1.89625 0.40625,-4.0625 0.40625,-6.40875 0,-3.43 -0.36125,-6.72625 -0.8125,-8.03375 m 0.7225,21.7075 c -1.12875,0.90125 -2.5725,1.39875 -4.2875,1.39875 l -8.438753,0 0,-30.4625 7.806253,0 c 2.5725,0 3.83625,0.36125 4.92,1.17375 1.805,1.3075 3.06875,3.65375 3.655,6.72375 0.40625,2.25625 0.7225,4.92 0.7225,7.26625 0,7.085 -1.445,11.5075 -4.3775,13.9"
   style="fill:#000000;fill-opacity:1;fill-rule:nonzero;stroke:none"
   id="path3915"
   inkscape:connector-curvature="0" /><path
   d="m 123.98764,245.02398 c -5.325,0 -8.575,-4.5125 -8.575,-9.5225 l 4.2875,0 c 0,2.5725 1.30875,5.23625 4.2875,5.23625 2.34625,0 4.2875,-2.1225 4.2875,-4.60375 0,-3.6125 -3.11375,-4.82875 -7.5825,-7.99 -2.7075,-1.94 -3.745,-4.06 -3.745,-6.7675 0,-4.3775 3.385,-7.89875 7.8075,-7.89875 4.24125,0 7.58125,3.34125 7.67125,7.89875 l -4.15125,0 c -0.13625,-2.1225 -1.625,-3.52125 -3.52,-3.52125 -2.03125,0 -3.65625,1.49 -3.65625,3.52125 0,1.53375 0.6325,2.34625 2.88875,3.65625 5.86625,3.3825 8.43875,6.72375 8.43875,11.10125 0,4.91875 -3.745,8.89 -8.43875,8.89"
   style="fill:#000000;fill-opacity:1;fill-rule:nonzero;stroke:none"
   id="path3919"
   inkscape:connector-curvature="0" /></svg>