<?xml version="1.0" encoding="UTF-8" standalone="no"?>
<!-- Generator: Adobe Illustrator 12.0.1, SVG Export Plug-In  -->

<svg
   xmlns:dc="http://purl.org/dc/elements/1.1/"
   xmlns:cc="http://creativecommons.org/ns#"
   xmlns:rdf="http://www.w3.org/1999/02/22-rdf-syntax-ns#"
   xmlns:svg="http://www.w3.org/2000/svg"
   xmlns="http://www.w3.org/2000/svg"
   xmlns:sodipodi="http://sodipodi.sourceforge.net/DTD/sodipodi-0.dtd"
   xmlns:inkscape="http://www.inkscape.org/namespaces/inkscape"
   version="1.1"
   width="184.28125"
   height="275.71875"
   viewBox="-0.999 0 184.28125 275.71875"
   enable-background="new -0.999 0 289 289"
   xml:space="preserve"
   id="svg2"
   inkscape:version="0.48.2 r9819"
   sodipodi:docname="MUTCD R9-6.svg"><metadata
   id="metadata18"><rdf:RDF><cc:Work
       rdf:about=""><dc:format>image/svg+xml</dc:format><dc:type
         rdf:resource="http://purl.org/dc/dcmitype/StillImage" /><dc:title></dc:title></cc:Work></rdf:RDF></metadata><sodipodi:namedview
   pagecolor="#ffffff"
   bordercolor="#666666"
   borderopacity="1"
   objecttolerance="10"
   gridtolerance="10"
   guidetolerance="10"
   inkscape:pageopacity="0"
   inkscape:pageshadow="2"
   inkscape:window-width="1280"
   inkscape:window-height="1004"
   id="namedview16"
   showgrid="false"
   fit-margin-top="0"
   fit-margin-left="0"
   fit-margin-right="0"
   fit-margin-bottom="0"
   inkscape:zoom="1.633218"
   inkscape:cx="114.39727"
   inkscape:cy="180.77819"
   inkscape:window-x="-8"
   inkscape:window-y="-8"
   inkscape:window-maximized="1"
   inkscape:current-layer="svg2" />
<defs
   id="defs4">
</defs>





<path
   d="m 182.53924,252.11196 c 0,12.5675 -10.2825,22.85 -22.85,22.85 l -137.10125,0 c -12.5675,0 -22.85,-10.2825 -22.85,-22.85 l 0,-228.50125 c 0,-12.5675 10.2825,-22.85 22.85,-22.85 l 137.10125,0 c 12.5675,0 22.85,10.2825 22.85,22.85 l 0,228.50125"
   style="fill:#ffffff;fill-opacity:1;fill-rule:nonzero;stroke:#000000;stroke-width:1.5;stroke-miterlimit:4;stroke-opacity:1;stroke-dasharray:none"
   id="path3397"
   inkscape:connector-curvature="0" /><path
   d="m 171.11424,252.11196 c 0,6.28375 -5.14125,11.425 -11.425,11.425 l -137.10125,0 c -6.28375,0 -11.425,-5.14125 -11.425,-11.425 l 0,-228.50125 c 0,-6.28375 5.14125,-11.425 11.425,-11.425 l 137.10125,0 c 6.28375,0 11.425,5.14125 11.425,11.425 l 0,228.50125 z m -11.425,-245.63875 -137.10125,0 c -9.425,0 -17.1375,7.71125 -17.1375,17.1375 l 0,228.50125 c 0,9.42625 7.7125,17.1375 17.1375,17.1375 l 137.10125,0 c 9.425,0 17.1375,-7.71125 17.1375,-17.1375 l 0,-228.50125 c 0,-9.42625 -7.7125,-17.1375 -17.1375,-17.1375"
   style="fill:#000000;fill-opacity:1;fill-rule:nonzero;stroke:none"
   id="path3421"
   inkscape:connector-curvature="0" /><path
   d="m 45.32236,92.160958 -8.125,-28.88875 -2.97875,6.04875 0,22.84 -7.765,0 0,-60.93875 7.765,0 0,19.50125 9.56875,-19.50125 9.02875,0 -10.11125,20.945 10.92375,39.99375 -8.30625,0 z"
   style="fill:#000000;fill-opacity:1;fill-rule:nonzero;stroke:none"
   id="path3425"
   inkscape:connector-curvature="0" /><path
   d="m 63.37825,92.160958 0,-60.93875 22.47875,0 0,7.945 -14.715,0 0,15.61875 9.75,0 0,8.125 -9.75,0 0,21.305 15.5275,0 0,7.945 -23.29125,0 z"
   style="fill:#000000;fill-opacity:1;fill-rule:nonzero;stroke:none"
   id="path3429"
   inkscape:connector-curvature="0" /><path
   d="m 96.42026,92.160958 0,-60.93875 22.47875,0 0,7.945 -14.715,0 0,15.61875 9.75,0 0,8.125 -9.75,0 0,21.305 15.52875,0 0,7.945 -23.2925,0 z"
   style="fill:#000000;fill-opacity:1;fill-rule:nonzero;stroke:none"
   id="path3433"
   inkscape:connector-curvature="0" /><path
   d="m 141.46926,39.167345 -4.24375,0 0,18.5975 4.24375,0 c 4.695,0 6.41,-2.3475 6.41,-8.7575 0,-6.86125 -2.1675,-9.84 -6.41,-9.84 m 0,26.45125 -4.24375,0 0,26.5425 -7.76375,0 0,-60.93875 12.0075,0 c 3.43,0 6.59,0.90375 8.57625,2.52875 3.34,2.88875 5.7775,8.57625 5.7775,15.25625 0,10.02125 -5.7775,16.61125 -14.35375,16.61125"
   style="fill:#000000;fill-opacity:1;fill-rule:nonzero;stroke:none"
   id="path3437"
   inkscape:connector-curvature="0" /><path
   d="m 59.78974,232.65972 8.52625,-1.39 -5.37375,-6.9825 c -2.785,2.42875 -3.13125,5.345 -3.1525,8.3725 m -2.345,0.5125 c -0.0137,-0.3025 -0.0625,-0.79 -0.0625,-1.13 0,-3.455 1.1175,-6.81125 4.15,-9.60125 l -3.15875,-3.78125 -4.88875,14.9125 3.96,-0.4 z m -18.76375,-14.8425 0.27125,-0.83125 17.41125,-0.0238 -4.63125,14.0425 -0.2,-1.46375 0.5325,0 -0.0662,-0.93375 -2.33,0 0.0662,0.86625 0.59875,0 0.13375,1.59625 c 0,0 -11.71875,-13.1875 -11.78625,-13.2525 m -7.71125,13.4875 c 2.33875,-1.8575 4.15875,-3.6275 5.47125,-7.17 2.07125,1.87875 3.2525,4.5975 3.2525,7.395 0,5.55375 -4.53,10.08375 -10.08375,10.08375 -5.55375,0 -10.08375,-4.53 -10.08375,-10.08375 0,-5.55625 4.53,-10.08625 10.08375,-10.08625 1.7725,0 3.585,0.5125 5.04625,1.375 -0.99,3.125 -1.95125,4.7375 -4.995,7.1875 -0.73875,0.0312 -1.3,0.62375 -1.3,1.33125 0,0.73375 0.5975,1.3325 1.33125,1.3325 0.73375,0 1.2775,-0.59875 1.2775,-1.365 m 29.1775,2.98625 c 1.14,4.25 5.1975,7.3225 9.68875,7.3225 5.55375,0 10.08375,-4.53 10.08375,-10.08375 0,-5.55625 -4.53,-10.08625 -10.08375,-10.08625 -1.7725,0 -3.82375,0.41875 -5.32,1.295 l 5.47375,7.2675 c 0.66875,0.0112 1.25125,0.61 1.25125,1.33125 0,0.73375 -0.5975,1.3325 -1.33125,1.3325 -0.2025,0 -0.41625,-0.0525 -0.59625,-0.1375 l -9.16625,1.75875 z m -24.77125,-13.80625 3.5725,-9.855 -1.1325,-1.93125 2.26375,-2.46375 4.86,0 0.0675,1.39875 -4.26125,0 -0.86625,0.9325 0.99875,1.7975 -1.255,4.45125 17.44375,0 0.26625,-0.81375 c -1.4025,-0.1825 -3.82,-1.04625 -4.3975,-1.5475 -0.5775,-0.50375 -0.0725,-0.96375 0.58625,-0.985 3.4425,-0.14625 8.5575,-0.435 9.52875,-0.43875 0.9725,-0.005 1.07125,0.48375 0.42125,1.195 -0.65125,0.71125 -1.21875,1.3525 -3.68375,1.73375 l -0.665,1.7975 4.1275,5.11375 c 1.945,-1.18 4.29875,-1.79625 6.585,-1.79625 6.85875,0 12.45375,5.59625 12.45375,12.45625 0,6.85875 -5.595,12.4525 -12.45375,12.4525 -5.64375,0 -10.605,-3.89 -12.06375,-9.27125 l -3.7925,0.68125 c -0.1625,0.44875 -0.54125,0.79125 -0.99375,1.06 l 0.6775,3.2075 0.865,0 0.0663,0.86625 -2.73,0.1325 0,-0.93 0.66625,0 -0.825,-3.2075 c -1.22625,-0.20125 -1.87,-1.25125 -1.50375,-2.29375 l -12.39125,-14.015 -0.555,1.50375 c 3.0075,2.37 4.8075,6.0175 4.8075,9.81375 0,6.85875 -5.595,12.4525 -12.45375,12.4525 -6.85875,0 -12.45375,-5.59375 -12.45375,-12.4525 0,-6.86 5.595,-12.45625 12.45375,-12.45625 1.995,0 4.0375,0.4875 5.76625,1.41125"
   style="fill:#000000;fill-opacity:1;fill-rule:evenodd;stroke:none"
   id="path3441"
   inkscape:connector-curvature="0" /><path
   d="m 144.32875,215.23435 c 1.5175,-4.33125 0.54875,-10.90625 -2.09,-17.7275 1.2075,0.2425 2.415,0.485 3.6225,0.72875 l 1.25375,12.68 3.205,0.5575 0,-15.885 c -0.085,-0.09 -14.86625,-10.97875 -18.875,-8.3275 -4.0475,2.1125 -6.065,11.24 -6.55125,13.295 l -10.5225,7.015 1.6725,2.50875 11.425,-3.7625 2.44125,-3.18 2.29625,7.9175 -5.99125,10.72875 -5.155,19.23 5.7125,2.0875 5.99125,-18.2525 4.31875,-4.5975 9.33625,24.245 4.32,-3.06625 -6.41,-26.195 z m -14.77,-29.26125 c 2.7625,0 5.01625,-2.2525 5.01625,-5.015 0,-2.76375 -2.25375,-5.01625 -5.01625,-5.01625 -2.7625,0 -5.01625,2.2525 -5.01625,5.01625 0,2.7625 2.25375,5.015 5.01625,5.015"
   style="fill:#000000;fill-opacity:1;fill-rule:evenodd;stroke:none"
   id="path3445"
   inkscape:connector-curvature="0" /><path
   d="m 93.99537,244.49497 -5.7125,0 0,-129.48375 5.7125,0 0,129.48375 z"
   style="fill:#000000;fill-opacity:1;fill-rule:evenodd;stroke:none"
   id="path3447"
   inkscape:connector-curvature="0" /><path
   d="m 29.55012,141.67148 0,-26.65875 3.39625,0 0,23.5775 6.79375,0 0,3.08125 -10.19,0 z"
   style="fill:#000000;fill-opacity:1;fill-rule:nonzero;stroke:none"
   id="path3451"
   inkscape:connector-curvature="0" /><path
   d="m 43.49162,141.67148 0,-26.65875 9.83375,0 0,3.475 -6.4375,0 0,6.83375 4.26625,0 0,3.55375 -4.26625,0 0,9.32125 6.79375,0 0,3.475 -10.19,0 z"
   style="fill:#000000;fill-opacity:1;fill-rule:nonzero;stroke:none"
   id="path3455"
   inkscape:connector-curvature="0" /><path
   d="m 61.34313,118.48835 0,6.8325 3.91,0 0,3.555 -3.91,0 0,12.79625 -3.39625,0 0,-26.65875 10.18875,0 0,3.475 -6.7925,0 z"
   style="fill:#000000;fill-opacity:1;fill-rule:nonzero;stroke:none"
   id="path3459"
   inkscape:connector-curvature="0" /><path
   d="m 76.39038,118.48835 0,23.18375 -3.35625,0 0,-23.18375 -3.27875,0 0,-3.475 10.11,0 0,3.475 -3.475,0 z"
   style="fill:#000000;fill-opacity:1;fill-rule:nonzero;stroke:none"
   id="path3463"
   inkscape:connector-curvature="0" /><path
   d="m 105.0195,118.4881 -1.65875,0 0,7.2675 2.21125,0 c 1.89625,0 2.44875,-0.83 2.44875,-3.3575 0,-3.00125 -0.67125,-3.91 -3.00125,-3.91 m 3.67375,9.91375 2.685,13.27 -3.43625,0 -3.00125,-12.44125 -1.58,0 0,12.44125 -3.39625,0 0,-26.65875 5.2525,0 c 4.1075,0 6.28,2.5275 6.28,7.46375 0,3.00125 -0.86875,4.7 -2.80375,5.925"
   style="fill:#000000;fill-opacity:1;fill-rule:nonzero;stroke:none"
   id="path3467"
   inkscape:connector-curvature="0" /><path
   d="m 114.53787,115.01247 3.39625,0 0,26.65875 -3.39625,0 0,-26.65875 z"
   style="fill:#000000;fill-opacity:1;fill-rule:nonzero;stroke:none"
   id="path3469"
   inkscape:connector-curvature="0" /><path
   d="m 132.82325,139.0646 c -0.51375,1.85625 -2.33,3.08125 -4.74,3.08125 -2.725,0 -4.305,-1.0275 -5.17375,-3.555 -0.82875,-2.44875 -1.105,-4.8575 -1.105,-10.3075 0,-5.3325 0.31625,-7.6625 1.22375,-10.19 0.86875,-2.40875 2.40875,-3.43625 5.055,-3.43625 2.9625,0 4.74,1.85625 5.135,5.13375 l -3.3575,0 c -0.1975,-1.145 -0.75,-1.6975 -1.6975,-1.6975 -1.225,0 -2.05375,0.86875 -2.33125,2.60625 -0.355,2.1725 -0.5525,3.95 -0.5525,7.58375 0,3.6725 0.0787,5.45 0.435,7.70125 0.31625,1.77625 1.06625,2.685 2.25125,2.685 1.22375,0 1.895,-1.10625 1.895,-2.8825 l 0,-3.555 -1.61875,0 0,-3.475 4.97625,0 0,6.8325 c 0,1.22375 -0.1575,2.64625 -0.395,3.475"
   style="fill:#000000;fill-opacity:1;fill-rule:nonzero;stroke:none"
   id="path3473"
   inkscape:connector-curvature="0" /><path
   d="m 145.22412,141.67148 0,-12.44125 -4.74,0 0,12.44125 -3.39625,0 0,-26.65875 3.39625,0 0,10.7425 4.74,0 0,-10.7425 3.39625,0 0,26.65875 -3.39625,0 z"
   style="fill:#000000;fill-opacity:1;fill-rule:nonzero;stroke:none"
   id="path3477"
   inkscape:connector-curvature="0" /><path
   d="m 157.78275,118.4881 0,23.18375 -3.35625,0 0,-23.18375 -3.27875,0 0,-3.475 10.11,0 0,3.475 -3.475,0 z"
   style="fill:#000000;fill-opacity:1;fill-rule:nonzero;stroke:none"
   id="path3481"
   inkscape:connector-curvature="0" /></svg>