<?xml version="1.0" encoding="UTF-8" standalone="no"?>
<svg
   xmlns:dc="http://purl.org/dc/elements/1.1/"
   xmlns:cc="http://creativecommons.org/ns#"
   xmlns:rdf="http://www.w3.org/1999/02/22-rdf-syntax-ns#"
   xmlns:svg="http://www.w3.org/2000/svg"
   xmlns="http://www.w3.org/2000/svg"
   xmlns:sodipodi="http://sodipodi.sourceforge.net/DTD/sodipodi-0.dtd"
   xmlns:inkscape="http://www.inkscape.org/namespaces/inkscape"
   width="108.60233"
   height="54.611206"
   viewBox="0 0 306.49999 154.12495"
   version="1.1"
   id="svg2"
   inkscape:version="0.48.2 r9819"
   sodipodi:docname="AJAX1.svg">
  <metadata
     id="metadata62">
    <rdf:RDF>
      <cc:Work
         rdf:about="">
        <dc:format>image/svg+xml</dc:format>
        <dc:type
           rdf:resource="http://purl.org/dc/dcmitype/StillImage" />
        <dc:title></dc:title>
      </cc:Work>
    </rdf:RDF>
  </metadata>
  <defs
     id="defs60" />
  <sodipodi:namedview
     pagecolor="#ffffff"
     bordercolor="#666666"
     borderopacity="1"
     objecttolerance="10"
     gridtolerance="10"
     guidetolerance="10"
     inkscape:pageopacity="0"
     inkscape:pageshadow="2"
     inkscape:window-width="1280"
     inkscape:window-height="1004"
     id="namedview58"
     showgrid="false"
     fit-margin-top="0"
     fit-margin-left="0"
     fit-margin-right="0"
     fit-margin-bottom="0"
     inkscape:zoom="5.6568543"
     inkscape:cx="72.392536"
     inkscape:cy="8.7240271"
     inkscape:window-x="-8"
     inkscape:window-y="-8"
     inkscape:window-maximized="1"
     inkscape:current-layer="svg2" />
  <!-- draw the bicycle -->
  <!-- RIGHT -->
  <!-- LANE -->
  <!-- ONLY -->
  <path
     inkscape:connector-curvature="0"
     d="m 305.65956,136.33698 0,0 0,-118.53338 c 0,-9.348613 -7.56709,-16.94392008 -16.92981,-16.94392008 l -270.92987,0 C 8.44421,0.85967992 0.85596,8.454987 0.85596,17.8036 l 0,118.28996 0,0.24342 c 0,9.35566 7.58825,16.9298 16.94392,16.9298 l 270.92987,0 c 9.34156,0 16.92981,-7.58825 16.92981,-16.9298"
     style="fill:#ffffff;fill-opacity:1;fill-rule:evenodd;stroke:#000000;stroke-width:1.69333375;stroke-miterlimit:4;stroke-opacity:1;stroke-dasharray:none"
     id="path3857" />
  <path
     inkscape:connector-curvature="0"
     d="m 302.13141,136.27348 0,0 0,-118.413436 c 0,-7.475363 -6.05014,-13.532558 -13.53255,-13.532558 l -270.96516,0 c -7.48241,0 -13.53961,6.057195 -13.53961,13.532558 l 0,118.413436 c 0,7.48241 6.0572,13.53255 13.53961,13.53255 l 270.96516,0 c 7.4683,0 13.53255,-6.05719 13.53255,-13.53255"
     style="fill:#000000;fill-opacity:1;fill-rule:evenodd;stroke:none"
     id="path3865" />
  <path
     inkscape:connector-curvature="0"
     d="m 297.07295,136.26645 0,0 0,-118.392267 c 0,-4.677834 -3.78178,-8.463139 -8.45609,-8.463139 l -270.97573,0 c -4.67078,0 -8.45609,3.785305 -8.45609,8.463139 l 0,118.392267 c 0,4.66725 3.78531,8.45608 8.45609,8.45608 l 270.97573,0 c 4.68136,0 8.45609,-3.78178 8.45609,-8.45608"
     style="fill:#ffffff;fill-opacity:1;fill-rule:evenodd;stroke:none"
     id="path3869" />
  <path
     inkscape:connector-curvature="0"
     d="m 275.14038,66.063978 0,-38.075315 -5.47158,0 0,22.849422 -10.42459,-22.849422 -5.48217,0 0,38.075315 5.48217,0 0,-25.516423 11.76161,25.516423 4.13456,0 z m -36.07506,-15.758587 -5.4857,0 2.68111,-10.960808 2.80459,10.960808 z m 9.48619,15.758587 -9.48619,-38.075315 -5.34812,0 -9.48619,38.075315 5.48216,0 2.53648,-10.41753 8.15269,0 2.67053,10.41753 5.47864,0 z m -29.66862,-38.075315 -5.34105,0 0,38.075315 5.34105,0 0,-38.075315 z M 201.9037,38.145138 c 0,3.072695 -1.73567,4.808362 -4.94595,4.808362 l -5.60211,0 0,-9.616724 5.60211,0 c 2.94217,0 4.94595,1.866195 4.94595,4.808362 m 5.35516,27.91884 -5.48569,-18.700754 c 3.61244,-1.337029 5.48569,-4.677835 5.48569,-9.218086 0,-6.14539 -4.01814,-10.156475 -10.02594,-10.156475 l -11.36298,0 0,38.075315 5.4857,0 0,-17.899949 5.21053,0 5.06941,17.899949 5.62328,0 z m -26.60297,-32.998841 0,-5.076474 -19.36751,0 0,5.076474 6.94267,0 0,32.998841 5.47864,0 0,-32.998841 6.9462,0 z m -22.85648,22.581311 c 0,-5.47864 -3.21028,-9.620253 -10.55512,-13.899448 -2.80458,-1.605139 -3.60186,-2.670528 -3.60186,-4.540251 0,-2.536473 1.99673,-4.409723 4.5332,-4.409723 2.413,0 4.28625,1.735667 4.41678,4.409723 l 5.207,0 c -0.13053,-5.746751 -4.26861,-9.888364 -9.62378,-9.888364 -5.47864,0 -9.75078,4.409724 -9.75078,9.888364 0,3.340806 1.60514,6.279446 4.67078,8.420807 7.76111,5.210529 5.62328,3.739446 6.42408,4.540252 2.27189,1.735667 3.0727,3.340806 3.0727,5.47864 0,3.072695 -2.40595,5.746751 -5.34812,5.746751 -3.73239,0 -5.33752,-3.344334 -5.33752,-6.547557 l -5.35517,0 c 0,6.279446 4.01108,11.913308 10.69269,11.913308 5.88434,0 10.55512,-4.967112 10.55512,-11.112502 m -25.78806,10.41753 0,-5.341057 -13.90651,0 0,-12.558892 7.89164,0 0,-5.210529 -7.89164,0 0,-9.616724 12.43895,0 0,-5.348113 -17.907,0 0,38.075315 19.37456,0 z M 99.7992,47.22564 c 0,2.942168 -0.26811,5.616224 -0.52917,8.022169 -0.54681,2.935112 -2.28247,5.475112 -5.4857,5.475112 l -4.54025,0 0,-27.386145 4.54025,0 c 2.40595,0 4.01109,1.195917 4.93889,3.869973 0.67734,1.605139 1.07598,5.746751 1.07598,10.018891 m 5.34811,-0.261055 c 0,-2.942168 -0.40216,-6.282974 -0.93839,-9.087558 -0.66675,-3.880557 -2.27189,-6.815668 -4.54731,-8.413752 -1.32997,-1.075973 -2.93511,-1.474612 -6.14539,-1.474612 l -9.75783,0 0,38.075315 10.56217,0 c 2.14489,0 4.01108,-0.529167 5.34105,-1.735667 3.74651,-2.935112 5.4857,-8.551335 5.4857,-17.363726 m -27.80242,19.099393 0,-5.341057 -13.89945,0 0,-12.558892 7.88458,0 0,-5.210529 -7.88458,0 0,-9.616724 12.43189,0 0,-5.348113 -17.91406,0 0,38.075315 19.38162,0 z M 47.40463,38.68136 c 0,3.474862 -1.73567,5.471585 -4.93889,5.471585 l -5.61623,0 0,-10.816169 5.61623,0 c 2.94217,0 4.93889,2.134306 4.93889,5.344584 m 5.34811,0 c 0,-6.420557 -4.00403,-10.692697 -10.01889,-10.692697 l -11.35945,0 0,38.075315 5.47511,0 0,-16.696976 5.88434,0 c 6.40997,0 10.01889,-3.739446 10.01889,-10.685642"
     style="fill:#000000;fill-opacity:1;fill-rule:evenodd;stroke:none"
     id="path3873" />
  <path
     inkscape:connector-curvature="0"
     d="m 273.72258,126.117 -8.81945,-24.71562 7.88812,-13.359708 -6.28298,0 -8.68186,15.229438 0,-15.229438 -5.4857,0 0,38.075328 5.4857,0 0,-12.1532 3.47133,-6.4135 6.67809,18.5667 5.74675,0 z m -26.58887,0 0,-5.07647 -13.89945,0 0,-32.998858 -5.48216,0 0,38.075328 19.38161,0 z m -34.08539,-15.76211 -5.47864,0 2.667,-10.957299 2.81164,10.957299 z m 9.48619,15.76211 -9.48619,-38.075328 -5.34812,0 -9.48267,38.075328 5.47159,0 2.54353,-10.41753 8.15269,0 2.67759,10.41753 5.47158,0 z m -26.58887,-38.075328 -5.35516,0 -3.34081,20.312968 -3.60186,-20.312968 -4.2792,0 -3.74297,20.312968 -3.20322,-20.312968 -5.34812,0 6.01487,38.075328 4.81894,0 3.60186,-19.90373 3.61245,19.90373 4.67078,0 6.15244,-38.075328 z m -32.34267,27.657798 c 0,-5.47864 -3.21028,-9.61672 -10.56217,-13.89592 -2.80458,-1.59808 -3.61244,-2.67407 -3.61244,-4.540265 0,-2.543528 2.0073,-4.409723 4.5473,-4.409723 2.40595,0 4.2792,1.735667 4.41678,4.409723 l 5.21053,0 c -0.13758,-5.746751 -4.27919,-9.888363 -9.62731,-9.888363 -5.47511,0 -9.75431,4.409723 -9.75431,9.888363 0,3.333765 1.60514,6.275935 4.67784,8.410235 7.75053,5.21759 5.60917,3.75003 6.4135,4.54731 2.27542,1.73919 3.07975,3.34433 3.07975,5.47864 0,3.0727 -2.40947,5.74675 -5.35164,5.74675 -3.74297,0 -5.34811,-3.3408 -5.34811,-6.55108 l -5.33753,0 c 0,6.28297 4.0005,11.9133 10.68564,11.9133 5.87728,0 10.56217,-4.96358 10.56217,-11.10897 m -25.79864,0 c 0,-5.47864 -3.21028,-9.61672 -10.56217,-13.89592 -2.80459,-1.59808 -3.60187,-2.67407 -3.60187,-4.540265 0,-2.543528 1.99673,-4.409723 4.54026,-4.409723 2.40594,0 4.27919,1.735667 4.41677,4.409723 l 5.20701,0 c -0.13759,-5.746751 -4.27567,-9.888363 -9.62378,-9.888363 -5.47864,0 -9.75784,4.409723 -9.75784,9.888363 0,3.333765 1.60514,6.275935 4.68136,8.410235 7.75759,5.21759 5.60564,3.75003 6.4135,4.54731 2.27189,1.73919 3.07975,3.34433 3.07975,5.47864 0,3.0727 -2.413,5.74675 -5.35516,5.74675 -3.73945,0 -5.33753,-3.3408 -5.33753,-6.55108 l -5.34811,0 c 0,6.28297 4.00402,11.9133 10.68564,11.9133 5.87728,0 10.56217,-4.96358 10.56217,-11.10897 m -32.21568,-8.68186 c 0,4.40266 -0.26458,6.67808 -1.19239,9.74372 -0.93839,3.21028 -2.413,4.68489 -4.67784,4.68489 -2.413,0 -3.88761,-1.47461 -4.81894,-4.68489 -0.80433,-3.06564 -1.19592,-5.47158 -1.19592,-9.6132 0,-4.27566 0.26106,-6.81213 1.19592,-9.754317 0.93133,-3.203223 2.40594,-4.670779 4.81894,-4.670779 2.26484,0 3.73945,1.467556 4.67784,4.801307 0.79728,2.811659 1.19239,5.214069 1.19239,9.493269 m 5.21406,0 c 0,-5.74675 -0.52917,-9.355686 -2.13431,-13.098659 -1.86972,-4.670779 -4.54025,-6.544029 -8.94998,-6.544029 -4.40972,0 -7.09083,1.87325 -9.09814,6.413501 -1.59808,3.60539 -2.1343,7.482437 -2.1343,13.229187 0,5.87728 0.53622,9.48267 2.1343,13.22211 1.87678,4.54025 4.55084,6.56872 9.09814,6.56872 4.27215,0 7.08026,-2.02847 8.94998,-6.56872 1.60514,-3.60892 2.13431,-7.34483 2.13431,-13.22211 M 77.53222,98.191091 c 0,3.079769 -1.73919,4.818959 -4.94947,4.818959 l -5.60917,0 0,-9.620266 5.60917,0 c 2.93511,0 4.94947,1.866195 4.94947,4.801307 M 82.86975,126.117 77.39111,107.41272 c 3.61245,-1.32997 5.47864,-4.67431 5.47864,-9.221629 0,-6.138335 -4.00403,-10.149419 -10.02594,-10.149419 l -11.35239,0 0,38.075328 5.48216,0 0,-17.89995 5.21053,0 5.07648,17.89995 5.60916,0 z M 54.009,98.191091 c -0.40217,-3.471334 -0.93839,-5.076474 -2.413,-6.942668 -1.73567,-2.536473 -4.40973,-3.873501 -7.47537,-3.873501 -7.48947,0 -11.36297,6.544029 -11.36297,18.838348 0,14.02645 3.60539,20.59517 11.75456,20.59517 5.34811,0 9.36272,-4.56141 9.49678,-10.84791 l -5.4857,0 c 0,2.81164 -0.8008,5.48569 -4.01108,5.48569 -4.67078,0 -6.54403,-4.40972 -6.54403,-15.36347 0,-9.888382 1.60514,-13.359716 6.01486,-13.359716 2.54,0 4.00756,1.735667 4.54025,5.468057 l 5.4857,0 z"
     style="fill:#000000;fill-opacity:1;fill-rule:evenodd;stroke:none"
     id="path3877" />
</svg>
